<?xml version="1.0" encoding="UTF-8" standalone="no"?>
<!DOCTYPE svg PUBLIC "-//W3C//DTD SVG 1.1//EN"
 "http://www.w3.org/Graphics/SVG/1.1/DTD/svg11.dtd">
<!-- Generated by graphviz version 12.2.1 (20241206.2353)
 -->
<!-- Title: model/ActivationFunction.h Pages: 1 -->
<svg width="1893pt" height="448pt"
 viewBox="0.00 0.00 1893.00 447.75" xmlns="http://www.w3.org/2000/svg" xmlns:xlink="http://www.w3.org/1999/xlink">
<g id="graph0" class="graph" transform="scale(1 1) rotate(0) translate(4 443.75)">
<title>model/ActivationFunction.h</title>
<!-- Node1 -->
<g id="Node000001" class="node">
<title>Node1</title>
<g id="a_Node000001"><a xlink:title="Activation function classes for cardiac chamber models.">
<polygon fill="#999999" stroke="#666666" points="1543.88,-439.75 1410.12,-439.75 1410.12,-420.5 1543.88,-420.5 1543.88,-439.75"/>
<text text-anchor="middle" x="1477" y="-426.25" font-family="Helvetica,sans-Serif" font-size="10.00">model/ActivationFunction.h</text>
</a>
</g>
</g>
<!-- Node2 -->
<g id="Node000002" class="node">
<title>Node2</title>
<g id="a_Node000002"><a xlink:href="_block_8h.html" target="_top" xlink:title="model::Block source file">
<polygon fill="white" stroke="#666666" points="1078.75,-384.5 1001.25,-384.5 1001.25,-365.25 1078.75,-365.25 1078.75,-384.5"/>
<text text-anchor="middle" x="1040" y="-371" font-family="Helvetica,sans-Serif" font-size="10.00">model/Block.h</text>
</a>
</g>
</g>
<!-- Node1&#45;&gt;Node2 -->
<g id="edge1_Node000001_Node000002" class="edge">
<title>Node1&#45;&gt;Node2</title>
<g id="a_edge1_Node000001_Node000002"><a xlink:title=" ">
<path fill="none" stroke="#63b8ff" d="M1398.52,-419.56C1304.5,-408.11 1150.74,-389.37 1079.07,-380.64"/>
<polygon fill="#63b8ff" stroke="#63b8ff" points="1397.82,-423 1408.17,-420.74 1398.67,-416.05 1397.82,-423"/>
</a>
</g>
</g>
<!-- Node8 -->
<g id="Node000008" class="node">
<title>Node8</title>
<g id="a_Node000008"><a xlink:href="_chamber_elastance_inductor_8h.html" target="_top" xlink:title="model::ChamberElastanceInductor source file">
<polygon fill="white" stroke="#666666" points="1435.88,-80.12 1266.12,-80.12 1266.12,-60.88 1435.88,-60.88 1435.88,-80.12"/>
<text text-anchor="middle" x="1351" y="-66.62" font-family="Helvetica,sans-Serif" font-size="10.00">model/ChamberElastanceInductor.h</text>
</a>
</g>
</g>
<!-- Node1&#45;&gt;Node8 -->
<g id="edge63_Node000001_Node000008" class="edge">
<title>Node1&#45;&gt;Node8</title>
<g id="a_edge63_Node000001_Node000008"><a xlink:title=" ">
<path fill="none" stroke="#63b8ff" d="M1555.55,-424.22C1674.08,-414.62 1885,-388.08 1885,-320.62 1885,-320.62 1885,-320.62 1885,-191.25 1885,-95.05 1773.47,-144.54 1680,-121.75 1676.74,-120.96 1505,-94.86 1410.99,-80.6"/>
<polygon fill="#63b8ff" stroke="#63b8ff" points="1555.58,-420.7 1545.88,-424.97 1556.12,-427.68 1555.58,-420.7"/>
</a>
</g>
</g>
<!-- Node9 -->
<g id="Node000009" class="node">
<title>Node9</title>
<g id="a_Node000009"><a xlink:href="_linear_elastance_chamber_8h.html" target="_top" xlink:title="model::LinearElastanceChamber source file">
<polygon fill="white" stroke="#666666" points="424.75,-80.12 263.25,-80.12 263.25,-60.88 424.75,-60.88 424.75,-80.12"/>
<text text-anchor="middle" x="344" y="-66.62" font-family="Helvetica,sans-Serif" font-size="10.00">model/LinearElastanceChamber.h</text>
</a>
</g>
</g>
<!-- Node1&#45;&gt;Node9 -->
<g id="edge64_Node000001_Node000009" class="edge">
<title>Node1&#45;&gt;Node9</title>
<g id="a_edge64_Node000001_Node000009"><a xlink:title=" ">
<path fill="none" stroke="#63b8ff" d="M1398.3,-427.5C1092.48,-420.69 0,-391.39 0,-320.62 0,-320.62 0,-320.62 0,-191.25 0,-142.45 40.82,-142.47 85,-121.75 141.09,-95.45 210.2,-82.91 262.93,-76.94"/>
<polygon fill="#63b8ff" stroke="#63b8ff" points="1398.11,-431 1408.19,-427.72 1398.26,-424 1398.11,-431"/>
</a>
</g>
</g>
<!-- Node12 -->
<g id="Node000012" class="node">
<title>Node12</title>
<g id="a_Node000012"><a xlink:href="_simulation_parameters_8h.html" target="_top" xlink:title="Source file to read simulation configuration.">
<polygon fill="white" stroke="#666666" points="1599.88,-80.12 1454.12,-80.12 1454.12,-60.88 1599.88,-60.88 1599.88,-80.12"/>
<text text-anchor="middle" x="1527" y="-66.62" font-family="Helvetica,sans-Serif" font-size="10.00">solve/SimulationParameters.h</text>
</a>
</g>
</g>
<!-- Node1&#45;&gt;Node12 -->
<g id="edge65_Node000001_Node000012" class="edge">
<title>Node1&#45;&gt;Node12</title>
<g id="a_edge65_Node000001_Node000012"><a xlink:title=" ">
<path fill="none" stroke="#63b8ff" d="M1555.24,-422.07C1663.82,-410.08 1847,-380.91 1847,-320.62 1847,-320.62 1847,-320.62 1847,-191.25 1847,-135.57 1674.88,-97.15 1583.11,-80.62"/>
<polygon fill="#63b8ff" stroke="#63b8ff" points="1555.08,-418.57 1545.51,-423.12 1555.83,-425.53 1555.08,-418.57"/>
</a>
</g>
</g>
<!-- Node3 -->
<g id="Node000003" class="node">
<title>Node3</title>
<g id="a_Node000003"><a xlink:href="_block_factory_8h.html" target="_top" xlink:title="Define the block factory functional.">
<polygon fill="white" stroke="#666666" points="1383.88,-201.88 1274.12,-201.88 1274.12,-182.62 1383.88,-182.62 1383.88,-201.88"/>
<text text-anchor="middle" x="1329" y="-188.38" font-family="Helvetica,sans-Serif" font-size="10.00">model/BlockFactory.h</text>
</a>
</g>
</g>
<!-- Node2&#45;&gt;Node3 -->
<g id="edge2_Node000002_Node000003" class="edge">
<title>Node2&#45;&gt;Node3</title>
<g id="a_edge2_Node000002_Node000003"><a xlink:title=" ">
<path fill="none" stroke="#63b8ff" d="M1090.35,-366.65C1133.07,-359.68 1195.6,-347.48 1248,-329.25 1274.21,-320.13 1345.35,-297.57 1360,-274 1374.91,-250.02 1351.2,-217.71 1337.56,-202.24"/>
<polygon fill="#63b8ff" stroke="#63b8ff" points="1089.94,-363.17 1080.61,-368.2 1091.04,-370.09 1089.94,-363.17"/>
</a>
</g>
</g>
<!-- Node4 -->
<g id="Node000004" class="node">
<title>Node4</title>
<g id="a_Node000004"><a xlink:href="_model_8h.html" target="_top" xlink:title="model::Model source file">
<polygon fill="white" stroke="#666666" points="1012.5,-141 933.5,-141 933.5,-121.75 1012.5,-121.75 1012.5,-141"/>
<text text-anchor="middle" x="973" y="-127.5" font-family="Helvetica,sans-Serif" font-size="10.00">model/Model.h</text>
</a>
</g>
</g>
<!-- Node2&#45;&gt;Node4 -->
<g id="edge45_Node000002_Node000004" class="edge">
<title>Node2&#45;&gt;Node4</title>
<g id="a_edge45_Node000002_Node000004"><a xlink:title=" ">
<path fill="none" stroke="#63b8ff" d="M1090.45,-370.46C1141.67,-365.7 1222.52,-354.6 1288,-329.25 1364.66,-299.58 1447.97,-238.12 1393,-177 1367.81,-148.99 1112.42,-137.19 1012.64,-133.63"/>
<polygon fill="#63b8ff" stroke="#63b8ff" points="1090.21,-366.97 1080.55,-371.33 1090.82,-373.94 1090.21,-366.97"/>
</a>
</g>
</g>
<!-- Node2&#45;&gt;Node8 -->
<g id="edge27_Node000002_Node000008" class="edge">
<title>Node2&#45;&gt;Node8</title>
<g id="a_edge27_Node000002_Node000008"><a xlink:title=" ">
<path fill="none" stroke="#63b8ff" d="M1090.61,-374.22C1250.26,-374.85 1735.93,-373.13 1790,-329.25 1814.87,-309.07 1809,-291.77 1809,-259.75 1809,-259.75 1809,-259.75 1809,-191.25 1809,-150.36 1532.25,-100.68 1409.01,-80.59"/>
<polygon fill="#63b8ff" stroke="#63b8ff" points="1090.78,-370.72 1080.76,-374.18 1090.75,-377.72 1090.78,-370.72"/>
</a>
</g>
</g>
<!-- Node2&#45;&gt;Node9 -->
<g id="edge44_Node000002_Node000009" class="edge">
<title>Node2&#45;&gt;Node9</title>
<g id="a_edge44_Node000002_Node000009"><a xlink:title=" ">
<path fill="none" stroke="#63b8ff" d="M989.67,-373.22C794.1,-370.47 93.71,-358.61 57,-329.25 31.99,-309.25 38,-291.77 38,-259.75 38,-259.75 38,-259.75 38,-191.25 38,-137.2 205.67,-97.55 292.78,-80.6"/>
<polygon fill="#63b8ff" stroke="#63b8ff" points="989.45,-376.72 999.5,-373.36 989.55,-369.72 989.45,-376.72"/>
</a>
</g>
</g>
<!-- Node14 -->
<g id="Node000014" class="node">
<title>Node14</title>
<g id="a_Node000014"><a xlink:href="_blood_vessel_8h.html" target="_top" xlink:title="model::BloodVessel source file">
<polygon fill="white" stroke="#666666" points="1456.75,-329.25 1349.25,-329.25 1349.25,-310 1456.75,-310 1456.75,-329.25"/>
<text text-anchor="middle" x="1403" y="-315.75" font-family="Helvetica,sans-Serif" font-size="10.00">model/BloodVessel.h</text>
</a>
</g>
</g>
<!-- Node2&#45;&gt;Node14 -->
<g id="edge19_Node000002_Node000014" class="edge">
<title>Node2&#45;&gt;Node14</title>
<g id="a_edge19_Node000002_Node000014"><a xlink:title=" ">
<path fill="none" stroke="#63b8ff" d="M1090.45,-366.47C1158.5,-356.49 1279.18,-338.79 1349,-328.55"/>
<polygon fill="#63b8ff" stroke="#63b8ff" points="1090.08,-362.99 1080.69,-367.91 1091.09,-369.92 1090.08,-362.99"/>
</a>
</g>
</g>
<!-- Node15 -->
<g id="Node000015" class="node">
<title>Node15</title>
<g id="a_Node000015"><a xlink:href="_blood_vessel_junction_8h.html" target="_top" xlink:title="model::BloodVesselJunction source file">
<polygon fill="white" stroke="#666666" points="1627.12,-268.38 1482.88,-268.38 1482.88,-249.12 1627.12,-249.12 1627.12,-268.38"/>
<text text-anchor="middle" x="1555" y="-254.88" font-family="Helvetica,sans-Serif" font-size="10.00">model/BloodVesselJunction.h</text>
</a>
</g>
</g>
<!-- Node2&#45;&gt;Node15 -->
<g id="edge26_Node000002_Node000015" class="edge">
<title>Node2&#45;&gt;Node15</title>
<g id="a_edge26_Node000002_Node000015"><a xlink:title=" ">
<path fill="none" stroke="#63b8ff" d="M1090.56,-372.06C1188.2,-368 1398.99,-356.3 1466,-329.25 1500.54,-315.31 1532.83,-283.78 1547.19,-268.45"/>
<polygon fill="#63b8ff" stroke="#63b8ff" points="1090.59,-368.56 1080.74,-372.46 1090.88,-375.55 1090.59,-368.56"/>
</a>
</g>
</g>
<!-- Node16 -->
<g id="Node000016" class="node">
<title>Node16</title>
<g id="a_Node000016"><a xlink:href="_blood_vessel_c_r_l_8h.html" target="_top" xlink:title="model::BloodVesselCRL source file">
<polygon fill="white" stroke="#666666" points="1640.5,-329.25 1513.5,-329.25 1513.5,-310 1640.5,-310 1640.5,-329.25"/>
<text text-anchor="middle" x="1577" y="-315.75" font-family="Helvetica,sans-Serif" font-size="10.00">model/BloodVesselCRL.h</text>
</a>
</g>
</g>
<!-- Node2&#45;&gt;Node16 -->
<g id="edge23_Node000002_Node000016" class="edge">
<title>Node2&#45;&gt;Node16</title>
<g id="a_edge23_Node000002_Node000016"><a xlink:title=" ">
<path fill="none" stroke="#63b8ff" d="M1090.31,-369.2C1174.79,-361.31 1350.5,-344.68 1499,-329.25 1503.61,-328.77 1508.37,-328.27 1513.16,-327.75"/>
<polygon fill="#63b8ff" stroke="#63b8ff" points="1090.15,-365.7 1080.52,-370.12 1090.8,-372.67 1090.15,-365.7"/>
</a>
</g>
</g>
<!-- Node17 -->
<g id="Node000017" class="node">
<title>Node17</title>
<g id="a_Node000017"><a xlink:href="_chamber_sphere_8h.html" target="_top" xlink:title="model::ChamberSphere source file">
<polygon fill="white" stroke="#666666" points="1781.25,-329.25 1658.75,-329.25 1658.75,-310 1781.25,-310 1781.25,-329.25"/>
<text text-anchor="middle" x="1720" y="-315.75" font-family="Helvetica,sans-Serif" font-size="10.00">model/ChamberSphere.h</text>
</a>
</g>
</g>
<!-- Node2&#45;&gt;Node17 -->
<g id="edge28_Node000002_Node000017" class="edge">
<title>Node2&#45;&gt;Node17</title>
<g id="a_edge28_Node000002_Node000017"><a xlink:title=" ">
<path fill="none" stroke="#63b8ff" d="M1090.38,-371.04C1194.86,-364.97 1442.67,-349.59 1650,-329.25 1652.8,-328.97 1655.67,-328.68 1658.56,-328.37"/>
<polygon fill="#63b8ff" stroke="#63b8ff" points="1090.24,-367.54 1080.46,-371.61 1090.65,-374.53 1090.24,-367.54"/>
</a>
</g>
</g>
<!-- Node18 -->
<g id="Node000018" class="node">
<title>Node18</title>
<g id="a_Node000018"><a xlink:href="_closed_loop_coronary_b_c_8h.html" target="_top" xlink:title="model::ClosedLoopCoronaryBC source file">
<polygon fill="white" stroke="#666666" points="730.12,-268.38 573.88,-268.38 573.88,-249.12 730.12,-249.12 730.12,-268.38"/>
<text text-anchor="middle" x="652" y="-254.88" font-family="Helvetica,sans-Serif" font-size="10.00">model/ClosedLoopCoronaryBC.h</text>
</a>
</g>
</g>
<!-- Node2&#45;&gt;Node18 -->
<g id="edge30_Node000002_Node000018" class="edge">
<title>Node2&#45;&gt;Node18</title>
<g id="a_edge30_Node000002_Node000018"><a xlink:title=" ">
<path fill="none" stroke="#63b8ff" d="M998.33,-361.62C919.88,-338.54 751.97,-289.15 682.77,-268.8"/>
<polygon fill="#63b8ff" stroke="#63b8ff" points="997.2,-364.93 1007.78,-364.4 999.17,-358.22 997.2,-364.93"/>
</a>
</g>
</g>
<!-- Node21 -->
<g id="Node000021" class="node">
<title>Node21</title>
<g id="a_Node000021"><a xlink:href="_closed_loop_heart_pulmonary_8h.html" target="_top" xlink:title="model::ClosedLoopHeartPulmonary source file">
<polygon fill="white" stroke="#666666" points="739.12,-329.25 564.88,-329.25 564.88,-310 739.12,-310 739.12,-329.25"/>
<text text-anchor="middle" x="652" y="-315.75" font-family="Helvetica,sans-Serif" font-size="10.00">model/ClosedLoopHeartPulmonary.h</text>
</a>
</g>
</g>
<!-- Node2&#45;&gt;Node21 -->
<g id="edge35_Node000002_Node000021" class="edge">
<title>Node2&#45;&gt;Node21</title>
<g id="a_edge35_Node000002_Node000021"><a xlink:title=" ">
<path fill="none" stroke="#63b8ff" d="M989.99,-367.01C920.72,-357.5 795.4,-340.31 718.37,-329.73"/>
<polygon fill="#63b8ff" stroke="#63b8ff" points="989.14,-370.43 999.52,-368.32 990.09,-363.49 989.14,-370.43"/>
</a>
</g>
</g>
<!-- Node22 -->
<g id="Node000022" class="node">
<title>Node22</title>
<g id="a_Node000022"><a xlink:href="_closed_loop_r_c_r_b_c_8h.html" target="_top" xlink:title="model::ClosedLoopRCRBC source file">
<polygon fill="white" stroke="#666666" points="204.12,-329.25 65.88,-329.25 65.88,-310 204.12,-310 204.12,-329.25"/>
<text text-anchor="middle" x="135" y="-315.75" font-family="Helvetica,sans-Serif" font-size="10.00">model/ClosedLoopRCRBC.h</text>
</a>
</g>
</g>
<!-- Node2&#45;&gt;Node22 -->
<g id="edge38_Node000002_Node000022" class="edge">
<title>Node2&#45;&gt;Node22</title>
<g id="a_edge38_Node000002_Node000022"><a xlink:title=" ">
<path fill="none" stroke="#63b8ff" d="M989.63,-372.01C860.98,-367.04 509.86,-352.32 218,-329.25 213.52,-328.9 208.91,-328.5 204.27,-328.08"/>
<polygon fill="#63b8ff" stroke="#63b8ff" points="989.38,-375.5 999.51,-372.38 989.65,-368.5 989.38,-375.5"/>
</a>
</g>
</g>
<!-- Node23 -->
<g id="Node000023" class="node">
<title>Node23</title>
<g id="a_Node000023"><a xlink:href="_flow_reference_b_c_8h.html" target="_top" xlink:title="model::FlowReferenceBC source file">
<polygon fill="white" stroke="#666666" points="236.75,-201.88 105.25,-201.88 105.25,-182.62 236.75,-182.62 236.75,-201.88"/>
<text text-anchor="middle" x="171" y="-188.38" font-family="Helvetica,sans-Serif" font-size="10.00">model/FlowReferenceBC.h</text>
</a>
</g>
</g>
<!-- Node2&#45;&gt;Node23 -->
<g id="edge40_Node000002_Node000023" class="edge">
<title>Node2&#45;&gt;Node23</title>
<g id="a_edge40_Node000002_Node000023"><a xlink:title=" ">
<path fill="none" stroke="#63b8ff" d="M989.41,-373.39C828.57,-371.49 335.81,-362.97 273,-329.25 218.65,-300.07 185.06,-227.89 174.56,-202.37"/>
<polygon fill="#63b8ff" stroke="#63b8ff" points="989.3,-376.88 999.34,-373.5 989.38,-369.88 989.3,-376.88"/>
</a>
</g>
</g>
<!-- Node24 -->
<g id="Node000024" class="node">
<title>Node24</title>
<g id="a_Node000024"><a xlink:href="_junction_8h.html" target="_top" xlink:title="model::Junction source file">
<polygon fill="white" stroke="#666666" points="344.75,-201.88 255.25,-201.88 255.25,-182.62 344.75,-182.62 344.75,-201.88"/>
<text text-anchor="middle" x="300" y="-188.38" font-family="Helvetica,sans-Serif" font-size="10.00">model/Junction.h</text>
</a>
</g>
</g>
<!-- Node2&#45;&gt;Node24 -->
<g id="edge42_Node000002_Node000024" class="edge">
<title>Node2&#45;&gt;Node24</title>
<g id="a_edge42_Node000002_Node000024"><a xlink:title=" ">
<path fill="none" stroke="#63b8ff" d="M989.6,-372.76C825.09,-368.87 313.04,-354.76 289,-329.25 255.37,-293.56 283.32,-226.67 295.25,-202.37"/>
<polygon fill="#63b8ff" stroke="#63b8ff" points="989.24,-376.25 999.31,-372.99 989.4,-369.25 989.24,-376.25"/>
</a>
</g>
</g>
<!-- Node25 -->
<g id="Node000025" class="node">
<title>Node25</title>
<g id="a_Node000025"><a xlink:href="_open_loop_coronary_b_c_8h.html" target="_top" xlink:title="model::OpenLoopCoronaryBC source file">
<polygon fill="white" stroke="#666666" points="447.75,-329.25 298.25,-329.25 298.25,-310 447.75,-310 447.75,-329.25"/>
<text text-anchor="middle" x="373" y="-315.75" font-family="Helvetica,sans-Serif" font-size="10.00">model/OpenLoopCoronaryBC.h</text>
</a>
</g>
</g>
<!-- Node2&#45;&gt;Node25 -->
<g id="edge46_Node000002_Node000025" class="edge">
<title>Node2&#45;&gt;Node25</title>
<g id="a_edge46_Node000002_Node000025"><a xlink:title=" ">
<path fill="none" stroke="#63b8ff" d="M989.79,-370.33C889.46,-363.17 657.07,-346.23 462,-329.25 457.36,-328.85 452.59,-328.42 447.77,-327.98"/>
<polygon fill="#63b8ff" stroke="#63b8ff" points="989.34,-373.81 999.57,-371.03 989.84,-366.83 989.34,-373.81"/>
</a>
</g>
</g>
<!-- Node26 -->
<g id="Node000026" class="node">
<title>Node26</title>
<g id="a_Node000026"><a xlink:href="_open_loop_coronary_var_res_b_c_8h.html" target="_top" xlink:title="model::OpenLoopCoronaryVarResBC source file">
<polygon fill="white" stroke="#666666" points="479.75,-274 336.25,-274 336.25,-243.5 479.75,-243.5 479.75,-274"/>
<text text-anchor="start" x="344.25" y="-260.5" font-family="Helvetica,sans-Serif" font-size="10.00">model/OpenLoopCoronaryVar</text>
<text text-anchor="middle" x="408" y="-249.25" font-family="Helvetica,sans-Serif" font-size="10.00">ResBC.h</text>
</a>
</g>
</g>
<!-- Node2&#45;&gt;Node26 -->
<g id="edge50_Node000002_Node000026" class="edge">
<title>Node2&#45;&gt;Node26</title>
<g id="a_edge50_Node000002_Node000026"><a xlink:title=" ">
<path fill="none" stroke="#63b8ff" d="M989.59,-373.27C873.15,-371.32 588.68,-363.11 500,-329.25 468.58,-317.26 438.78,-291.07 422,-274.49"/>
<polygon fill="#63b8ff" stroke="#63b8ff" points="989.41,-376.77 999.46,-373.43 989.52,-369.77 989.41,-376.77"/>
</a>
</g>
</g>
<!-- Node27 -->
<g id="Node000027" class="node">
<title>Node27</title>
<g id="a_Node000027"><a xlink:href="_piecewise_valve_8h.html" target="_top" xlink:title="model::PiecewiseValve source file">
<polygon fill="white" stroke="#666666" points="561.25,-201.88 438.75,-201.88 438.75,-182.62 561.25,-182.62 561.25,-201.88"/>
<text text-anchor="middle" x="500" y="-188.38" font-family="Helvetica,sans-Serif" font-size="10.00">model/PiecewiseValve.h</text>
</a>
</g>
</g>
<!-- Node2&#45;&gt;Node27 -->
<g id="edge51_Node000002_Node000027" class="edge">
<title>Node2&#45;&gt;Node27</title>
<g id="a_edge51_Node000002_Node000027"><a xlink:title=" ">
<path fill="none" stroke="#63b8ff" d="M989.58,-372.15C872.65,-367.75 590.33,-354.6 556,-329.25 513.07,-297.55 502.91,-226.96 500.63,-202.11"/>
<polygon fill="#63b8ff" stroke="#63b8ff" points="989.39,-375.65 999.51,-372.52 989.65,-368.65 989.39,-375.65"/>
</a>
</g>
</g>
<!-- Node28 -->
<g id="Node000028" class="node">
<title>Node28</title>
<g id="a_Node000028"><a xlink:href="_pressure_reference_b_c_8h.html" target="_top" xlink:title="model::PressureReferenceBC source file">
<polygon fill="white" stroke="#666666" points="897.75,-268.38 748.25,-268.38 748.25,-249.12 897.75,-249.12 897.75,-268.38"/>
<text text-anchor="middle" x="823" y="-254.88" font-family="Helvetica,sans-Serif" font-size="10.00">model/PressureReferenceBC.h</text>
</a>
</g>
</g>
<!-- Node2&#45;&gt;Node28 -->
<g id="edge53_Node000002_Node000028" class="edge">
<title>Node2&#45;&gt;Node28</title>
<g id="a_edge53_Node000002_Node000028"><a xlink:title=" ">
<path fill="none" stroke="#63b8ff" d="M1013,-359.68C967.77,-335.89 877.92,-288.63 840.25,-268.82"/>
<polygon fill="#63b8ff" stroke="#63b8ff" points="1011.15,-362.66 1021.63,-364.22 1014.41,-356.46 1011.15,-362.66"/>
</a>
</g>
</g>
<!-- Node29 -->
<g id="Node000029" class="node">
<title>Node29</title>
<g id="a_Node000029"><a xlink:href="_resistance_b_c_8h.html" target="_top" xlink:title="model::ResistanceBC source file">
<polygon fill="white" stroke="#666666" points="1030.5,-268.38 915.5,-268.38 915.5,-249.12 1030.5,-249.12 1030.5,-268.38"/>
<text text-anchor="middle" x="973" y="-254.88" font-family="Helvetica,sans-Serif" font-size="10.00">model/ResistanceBC.h</text>
</a>
</g>
</g>
<!-- Node2&#45;&gt;Node29 -->
<g id="edge55_Node000002_Node000029" class="edge">
<title>Node2&#45;&gt;Node29</title>
<g id="a_edge55_Node000002_Node000029"><a xlink:title=" ">
<path fill="none" stroke="#63b8ff" d="M1029.04,-355.2C1014.42,-330.3 989.12,-287.21 978.23,-268.66"/>
<polygon fill="#63b8ff" stroke="#63b8ff" points="1025.9,-356.76 1033.98,-363.61 1031.93,-353.22 1025.9,-356.76"/>
</a>
</g>
</g>
<!-- Node30 -->
<g id="Node000030" class="node">
<title>Node30</title>
<g id="a_Node000030"><a xlink:href="_resistive_junction_8h.html" target="_top" xlink:title="model::ResistiveJunction source file">
<polygon fill="white" stroke="#666666" points="1179,-268.38 1049,-268.38 1049,-249.12 1179,-249.12 1179,-268.38"/>
<text text-anchor="middle" x="1114" y="-254.88" font-family="Helvetica,sans-Serif" font-size="10.00">model/ResistiveJunction.h</text>
</a>
</g>
</g>
<!-- Node2&#45;&gt;Node30 -->
<g id="edge57_Node000002_Node000030" class="edge">
<title>Node2&#45;&gt;Node30</title>
<g id="a_edge57_Node000002_Node000030"><a xlink:title=" ">
<path fill="none" stroke="#63b8ff" d="M1051.89,-355.53C1068.01,-330.68 1096.14,-287.29 1108.22,-268.66"/>
<polygon fill="#63b8ff" stroke="#63b8ff" points="1049.13,-353.36 1046.63,-363.65 1055.01,-357.16 1049.13,-353.36"/>
</a>
</g>
</g>
<!-- Node31 -->
<g id="Node000031" class="node">
<title>Node31</title>
<g id="a_Node000031"><a xlink:href="_valve_tanh_8h.html" target="_top" xlink:title="model::ValveTanh source file">
<polygon fill="white" stroke="#666666" points="1201.62,-201.88 1102.38,-201.88 1102.38,-182.62 1201.62,-182.62 1201.62,-201.88"/>
<text text-anchor="middle" x="1152" y="-188.38" font-family="Helvetica,sans-Serif" font-size="10.00">model/ValveTanh.h</text>
</a>
</g>
</g>
<!-- Node2&#45;&gt;Node31 -->
<g id="edge59_Node000002_Node000031" class="edge">
<title>Node2&#45;&gt;Node31</title>
<g id="a_edge59_Node000002_Node000031"><a xlink:title=" ">
<path fill="none" stroke="#63b8ff" d="M1077.34,-360.61C1113.05,-345.68 1164.79,-317.66 1188,-274 1201.54,-248.52 1175.78,-216.91 1161.14,-201.92"/>
<polygon fill="#63b8ff" stroke="#63b8ff" points="1076.21,-357.29 1068.23,-364.26 1078.81,-363.79 1076.21,-357.29"/>
</a>
</g>
</g>
<!-- Node32 -->
<g id="Node000032" class="node">
<title>Node32</title>
<g id="a_Node000032"><a xlink:href="_windkessel_b_c_8h.html" target="_top" xlink:title="model::WindkesselBC source file">
<polygon fill="white" stroke="#666666" points="1351.25,-268.38 1234.75,-268.38 1234.75,-249.12 1351.25,-249.12 1351.25,-268.38"/>
<text text-anchor="middle" x="1293" y="-254.88" font-family="Helvetica,sans-Serif" font-size="10.00">model/WindkesselBC.h</text>
</a>
</g>
</g>
<!-- Node2&#45;&gt;Node32 -->
<g id="edge61_Node000002_Node000032" class="edge">
<title>Node2&#45;&gt;Node32</title>
<g id="a_edge61_Node000002_Node000032"><a xlink:title=" ">
<path fill="none" stroke="#63b8ff" d="M1090.48,-368.62C1128.3,-363.03 1180.31,-351.73 1221,-329.25 1249.59,-313.46 1275.02,-283.38 1286.51,-268.51"/>
<polygon fill="#63b8ff" stroke="#63b8ff" points="1090.15,-365.14 1080.73,-369.97 1091.11,-372.07 1090.15,-365.14"/>
</a>
</g>
</g>
<!-- Node3&#45;&gt;Node4 -->
<g id="edge3_Node000003_Node000004" class="edge">
<title>Node3&#45;&gt;Node4</title>
<g id="a_edge3_Node000003_Node000004"><a xlink:title=" ">
<path fill="none" stroke="#63b8ff" d="M1271.16,-180.08C1265.37,-179.01 1259.57,-177.97 1254,-177 1168.11,-162.02 1067.08,-146.49 1012.62,-138.28"/>
<polygon fill="#63b8ff" stroke="#63b8ff" points="1270.27,-183.47 1280.74,-181.86 1271.55,-176.59 1270.27,-183.47"/>
</a>
</g>
</g>
<!-- Node5 -->
<g id="Node000005" class="node">
<title>Node5</title>
<g id="a_Node000005"><a xlink:href="_integrator_8h.html" target="_top" xlink:title="Integrator source file.">
<polygon fill="white" stroke="#666666" points="1209.62,-80.12 1110.38,-80.12 1110.38,-60.88 1209.62,-60.88 1209.62,-80.12"/>
<text text-anchor="middle" x="1160" y="-66.62" font-family="Helvetica,sans-Serif" font-size="10.00">algebra/Integrator.h</text>
</a>
</g>
</g>
<!-- Node4&#45;&gt;Node5 -->
<g id="edge4_Node000004_Node000005" class="edge">
<title>Node4&#45;&gt;Node5</title>
<g id="a_edge4_Node000004_Node000005"><a xlink:title=" ">
<path fill="none" stroke="#63b8ff" d="M1012.74,-117.86C1048.26,-106.68 1099.44,-90.57 1131.16,-80.58"/>
<polygon fill="#63b8ff" stroke="#63b8ff" points="1011.74,-114.51 1003.25,-120.85 1013.84,-121.19 1011.74,-114.51"/>
</a>
</g>
</g>
<!-- Node6 -->
<g id="Node000006" class="node">
<title>Node6</title>
<g id="a_Node000006"><a xlink:href="interface_8h.html" target="_top" xlink:title="svZeroDSolver callable interface.">
<polygon fill="white" stroke="#666666" points="815.75,-19.25 714.25,-19.25 714.25,0 815.75,0 815.75,-19.25"/>
<text text-anchor="middle" x="765" y="-5.75" font-family="Helvetica,sans-Serif" font-size="10.00">interface/interface.h</text>
</a>
</g>
</g>
<!-- Node4&#45;&gt;Node6 -->
<g id="edge7_Node000004_Node000006" class="edge">
<title>Node4&#45;&gt;Node6</title>
<g id="a_edge7_Node000004_Node000006"><a xlink:title=" ">
<path fill="none" stroke="#63b8ff" d="M921.79,-129.27C852.85,-126.57 735.7,-117.34 709,-85.75 700.25,-75.4 703.12,-67.46 709,-55.25 716.72,-39.23 733.29,-27.19 746.41,-19.67"/>
<polygon fill="#63b8ff" stroke="#63b8ff" points="921.62,-132.77 931.74,-129.62 921.87,-125.77 921.62,-132.77"/>
</a>
</g>
</g>
<!-- Node7 -->
<g id="Node000007" class="node">
<title>Node7</title>
<g id="a_Node000007"><a xlink:href="_solver_8h.html" target="_top" xlink:title="Solver source file.">
<polygon fill="white" stroke="#666666" points="1276.75,-19.25 1199.25,-19.25 1199.25,0 1276.75,0 1276.75,-19.25"/>
<text text-anchor="middle" x="1238" y="-5.75" font-family="Helvetica,sans-Serif" font-size="10.00">solve/Solver.h</text>
</a>
</g>
</g>
<!-- Node4&#45;&gt;Node7 -->
<g id="edge16_Node000004_Node000007" class="edge">
<title>Node4&#45;&gt;Node7</title>
<g id="a_edge16_Node000004_Node000007"><a xlink:title=" ">
<path fill="none" stroke="#63b8ff" d="M1024.14,-127.5C1087.76,-122.87 1191.41,-111.51 1219,-85.75 1237.68,-68.3 1239.1,-35.37 1238.59,-19.55"/>
<polygon fill="#63b8ff" stroke="#63b8ff" points="1023.99,-124 1014.26,-128.18 1024.48,-130.98 1023.99,-124"/>
</a>
</g>
</g>
<!-- Node4&#45;&gt;Node8 -->
<g id="edge8_Node000004_Node000008" class="edge">
<title>Node4&#45;&gt;Node8</title>
<g id="a_edge8_Node000004_Node000008"><a xlink:title=" ">
<path fill="none" stroke="#63b8ff" d="M1024.25,-121.62C1092.6,-110.61 1213.36,-91.79 1287.43,-80.62"/>
<polygon fill="#63b8ff" stroke="#63b8ff" points="1023.74,-118.16 1014.43,-123.21 1024.86,-125.07 1023.74,-118.16"/>
</a>
</g>
</g>
<!-- Node4&#45;&gt;Node9 -->
<g id="edge10_Node000004_Node000009" class="edge">
<title>Node4&#45;&gt;Node9</title>
<g id="a_edge10_Node000004_Node000009"><a xlink:title=" ">
<path fill="none" stroke="#63b8ff" d="M921.75,-125.93C812.59,-116.05 556.68,-92.13 425.13,-79.54"/>
<polygon fill="#63b8ff" stroke="#63b8ff" points="921.31,-129.41 931.58,-126.82 921.94,-122.43 921.31,-129.41"/>
</a>
</g>
</g>
<!-- Node10 -->
<g id="Node000010" class="node">
<title>Node10</title>
<g id="a_Node000010"><a xlink:href="_levenberg_marquardt_optimizer_8h.html" target="_top" xlink:title="opt::LevenbergMarquardtOptimizer source file">
<polygon fill="white" stroke="#666666" points="975.12,-85.75 830.88,-85.75 830.88,-55.25 975.12,-55.25 975.12,-85.75"/>
<text text-anchor="start" x="838.88" y="-72.25" font-family="Helvetica,sans-Serif" font-size="10.00">optimize/LevenbergMarquardt</text>
<text text-anchor="middle" x="903" y="-61" font-family="Helvetica,sans-Serif" font-size="10.00">Optimizer.h</text>
</a>
</g>
</g>
<!-- Node4&#45;&gt;Node10 -->
<g id="edge12_Node000004_Node000010" class="edge">
<title>Node4&#45;&gt;Node10</title>
<g id="a_edge12_Node000004_Node000010"><a xlink:title=" ">
<path fill="none" stroke="#63b8ff" d="M953.58,-114.04C943.14,-105.26 930.37,-94.52 920.28,-86.03"/>
<polygon fill="#63b8ff" stroke="#63b8ff" points="951.3,-116.7 961.21,-120.46 955.81,-111.34 951.3,-116.7"/>
</a>
</g>
</g>
<!-- Node11 -->
<g id="Node000011" class="node">
<title>Node11</title>
<g id="a_Node000011"><a xlink:href="calibrate_8h.html" target="_top" xlink:title="opt::calibrate source file">
<polygon fill="white" stroke="#666666" points="1092.62,-80.12 993.38,-80.12 993.38,-60.88 1092.62,-60.88 1092.62,-80.12"/>
<text text-anchor="middle" x="1043" y="-66.62" font-family="Helvetica,sans-Serif" font-size="10.00">optimize/calibrate.h</text>
</a>
</g>
</g>
<!-- Node4&#45;&gt;Node11 -->
<g id="edge13_Node000004_Node000011" class="edge">
<title>Node4&#45;&gt;Node11</title>
<g id="a_edge13_Node000004_Node000011"><a xlink:title=" ">
<path fill="none" stroke="#63b8ff" d="M992.25,-114.19C1005.14,-103.34 1021.64,-89.46 1032.27,-80.53"/>
<polygon fill="#63b8ff" stroke="#63b8ff" points="990.19,-111.34 984.79,-120.46 994.7,-116.7 990.19,-111.34"/>
</a>
</g>
</g>
<!-- Node4&#45;&gt;Node12 -->
<g id="edge14_Node000004_Node000012" class="edge">
<title>Node4&#45;&gt;Node12</title>
<g id="a_edge14_Node000004_Node000012"><a xlink:title=" ">
<path fill="none" stroke="#63b8ff" d="M1024.26,-126.84C1111.09,-120.56 1292.52,-106.18 1445,-85.75 1455.88,-84.29 1467.53,-82.44 1478.53,-80.57"/>
<polygon fill="#63b8ff" stroke="#63b8ff" points="1024.14,-123.34 1014.41,-127.55 1024.64,-130.32 1024.14,-123.34"/>
</a>
</g>
</g>
<!-- Node13 -->
<g id="Node000013" class="node">
<title>Node13</title>
<g id="a_Node000013"><a xlink:href="csv__writer_8h.html" target="_top" xlink:title="csv_writer source file">
<polygon fill="white" stroke="#666666" points="812.38,-80.12 717.62,-80.12 717.62,-60.88 812.38,-60.88 812.38,-80.12"/>
<text text-anchor="middle" x="765" y="-66.62" font-family="Helvetica,sans-Serif" font-size="10.00">solve/csv_writer.h</text>
</a>
</g>
</g>
<!-- Node4&#45;&gt;Node13 -->
<g id="edge17_Node000004_Node000013" class="edge">
<title>Node4&#45;&gt;Node13</title>
<g id="a_edge17_Node000004_Node000013"><a xlink:title=" ">
<path fill="none" stroke="#63b8ff" d="M930.07,-118.22C890.53,-107.03 832.75,-90.68 797.08,-80.58"/>
<polygon fill="#63b8ff" stroke="#63b8ff" points="928.92,-121.54 939.5,-120.89 930.83,-114.8 928.92,-121.54"/>
</a>
</g>
</g>
<!-- Node5&#45;&gt;Node6 -->
<g id="edge5_Node000005_Node000006" class="edge">
<title>Node5&#45;&gt;Node6</title>
<g id="a_edge5_Node000005_Node000006"><a xlink:title=" ">
<path fill="none" stroke="#63b8ff" d="M1114.63,-57.85C1110.37,-56.91 1106.11,-56.03 1102,-55.25 1001.38,-36.29 882.35,-22.53 816.09,-15.63"/>
<polygon fill="#63b8ff" stroke="#63b8ff" points="1113.78,-61.25 1124.31,-60.1 1115.36,-54.43 1113.78,-61.25"/>
</a>
</g>
</g>
<!-- Node5&#45;&gt;Node7 -->
<g id="edge6_Node000005_Node000007" class="edge">
<title>Node5&#45;&gt;Node7</title>
<g id="a_edge6_Node000005_Node000007"><a xlink:title=" ">
<path fill="none" stroke="#63b8ff" d="M1181.03,-53.63C1195.46,-42.73 1214.09,-28.67 1226.04,-19.65"/>
<polygon fill="#63b8ff" stroke="#63b8ff" points="1178.93,-50.83 1173.05,-59.65 1183.14,-56.42 1178.93,-50.83"/>
</a>
</g>
</g>
<!-- Node8&#45;&gt;Node4 -->
<g id="edge9_Node000008_Node000004" class="edge">
<title>Node8&#45;&gt;Node4</title>
<g id="a_edge9_Node000008_Node000004"><a xlink:title=" ">
<path fill="none" stroke="#63b8ff" d="M1286.4,-82.4C1207.85,-94.97 1077.89,-115.15 1012.71,-124.84"/>
<polygon fill="#63b8ff" stroke="#63b8ff" points="1286.78,-85.88 1296.1,-80.84 1285.67,-78.97 1286.78,-85.88"/>
</a>
</g>
</g>
<!-- Node9&#45;&gt;Node4 -->
<g id="edge11_Node000009_Node000004" class="edge">
<title>Node9&#45;&gt;Node4</title>
<g id="a_edge11_Node000009_Node000004"><a xlink:title=" ">
<path fill="none" stroke="#63b8ff" d="M436.15,-79.67C575.69,-92.46 834.62,-116.74 933.4,-126.33"/>
<polygon fill="#63b8ff" stroke="#63b8ff" points="436.87,-76.22 426.59,-78.8 436.23,-83.19 436.87,-76.22"/>
</a>
</g>
</g>
<!-- Node12&#45;&gt;Node7 -->
<g id="edge15_Node000012_Node000007" class="edge">
<title>Node12&#45;&gt;Node7</title>
<g id="a_edge15_Node000012_Node000007"><a xlink:title=" ">
<path fill="none" stroke="#63b8ff" d="M1471.49,-58.19C1414.46,-46.57 1327.13,-28.78 1277.01,-18.57"/>
<polygon fill="#63b8ff" stroke="#63b8ff" points="1470.5,-61.56 1480.99,-60.13 1471.89,-54.7 1470.5,-61.56"/>
</a>
</g>
</g>
<!-- Node13&#45;&gt;Node6 -->
<g id="edge18_Node000013_Node000006" class="edge">
<title>Node13&#45;&gt;Node6</title>
<g id="a_edge18_Node000013_Node000006"><a xlink:title=" ">
<path fill="none" stroke="#63b8ff" d="M765,-49.07C765,-39.04 765,-27.46 765,-19.65"/>
<polygon fill="#63b8ff" stroke="#63b8ff" points="761.5,-49.04 765,-59.04 768.5,-49.04 761.5,-49.04"/>
</a>
</g>
</g>
<!-- Node14&#45;&gt;Node4 -->
<g id="edge22_Node000014_Node000004" class="edge">
<title>Node14&#45;&gt;Node4</title>
<g id="a_edge22_Node000014_Node000004"><a xlink:title=" ">
<path fill="none" stroke="#63b8ff" d="M1417.45,-300.74C1422.81,-293 1428.26,-283.53 1431,-274 1442.92,-232.57 1459.97,-208.93 1431,-177 1403.12,-146.27 1118.86,-136.03 1012.7,-133.26"/>
<polygon fill="#63b8ff" stroke="#63b8ff" points="1414.77,-298.48 1411.58,-308.58 1420.37,-302.67 1414.77,-298.48"/>
</a>
</g>
</g>
<!-- Node14&#45;&gt;Node15 -->
<g id="edge20_Node000014_Node000015" class="edge">
<title>Node14&#45;&gt;Node15</title>
<g id="a_edge20_Node000014_Node000015"><a xlink:title=" ">
<path fill="none" stroke="#63b8ff" d="M1436.82,-305.53C1465.61,-294.38 1506.22,-278.65 1531.56,-268.83"/>
<polygon fill="#63b8ff" stroke="#63b8ff" points="1435.89,-302.13 1427.83,-309.01 1438.42,-308.66 1435.89,-302.13"/>
</a>
</g>
</g>
<!-- Node15&#45;&gt;Node4 -->
<g id="edge21_Node000015_Node000004" class="edge">
<title>Node15&#45;&gt;Node4</title>
<g id="a_edge21_Node000015_Node000004"><a xlink:title=" ">
<path fill="none" stroke="#63b8ff" d="M1541.87,-239.71C1526.71,-220.45 1499.87,-190.85 1469,-177 1387.65,-140.5 1115.43,-133.85 1012.7,-132.64"/>
<polygon fill="#63b8ff" stroke="#63b8ff" points="1538.94,-241.64 1547.77,-247.49 1544.52,-237.41 1538.94,-241.64"/>
</a>
</g>
</g>
<!-- Node16&#45;&gt;Node4 -->
<g id="edge25_Node000016_Node000004" class="edge">
<title>Node16&#45;&gt;Node4</title>
<g id="a_edge25_Node000016_Node000004"><a xlink:title=" ">
<path fill="none" stroke="#63b8ff" d="M1606.84,-303.79C1618.13,-296.49 1629.76,-286.54 1636,-274 1642.04,-261.86 1643.11,-255.04 1636,-243.5 1601.55,-187.57 1567.22,-194.85 1504,-177 1411.52,-150.88 1119.44,-137.77 1012.62,-133.75"/>
<polygon fill="#63b8ff" stroke="#63b8ff" points="1605.27,-300.65 1598.44,-308.75 1608.83,-306.68 1605.27,-300.65"/>
</a>
</g>
</g>
<!-- Node16&#45;&gt;Node15 -->
<g id="edge24_Node000016_Node000015" class="edge">
<title>Node16&#45;&gt;Node15</title>
<g id="a_edge24_Node000016_Node000015"><a xlink:title=" ">
<path fill="none" stroke="#63b8ff" d="M1569.74,-299.2C1565.91,-288.94 1561.39,-276.84 1558.37,-268.78"/>
<polygon fill="#63b8ff" stroke="#63b8ff" points="1566.35,-300.12 1573.13,-308.27 1572.91,-297.67 1566.35,-300.12"/>
</a>
</g>
</g>
<!-- Node17&#45;&gt;Node4 -->
<g id="edge29_Node000017_Node000004" class="edge">
<title>Node17&#45;&gt;Node4</title>
<g id="a_edge29_Node000017_Node000004"><a xlink:title=" ">
<path fill="none" stroke="#63b8ff" d="M1707.67,-300.39C1684.57,-268.09 1631.26,-201.88 1567,-177 1465.38,-137.65 1128.5,-132.85 1012.59,-132.38"/>
<polygon fill="#63b8ff" stroke="#63b8ff" points="1704.63,-302.15 1713.22,-308.35 1710.37,-298.15 1704.63,-302.15"/>
</a>
</g>
</g>
<!-- Node19 -->
<g id="Node000019" class="node">
<title>Node19</title>
<g id="a_Node000019"><a xlink:href="_closed_loop_coronary_left_b_c_8h.html" target="_top" xlink:title="Left side of ClosedLoopCoronaryBC.">
<polygon fill="white" stroke="#666666" points="905.62,-207.5 770.38,-207.5 770.38,-177 905.62,-177 905.62,-207.5"/>
<text text-anchor="start" x="778.38" y="-194" font-family="Helvetica,sans-Serif" font-size="10.00">model/ClosedLoopCoronary</text>
<text text-anchor="middle" x="838" y="-182.75" font-family="Helvetica,sans-Serif" font-size="10.00">LeftBC.h</text>
</a>
</g>
</g>
<!-- Node18&#45;&gt;Node19 -->
<g id="edge31_Node000018_Node000019" class="edge">
<title>Node18&#45;&gt;Node19</title>
<g id="a_edge31_Node000018_Node000019"><a xlink:title=" ">
<path fill="none" stroke="#63b8ff" d="M688.96,-244.93C719.74,-234.26 763.59,-219.05 795.76,-207.9"/>
<polygon fill="#63b8ff" stroke="#63b8ff" points="687.99,-241.57 679.68,-248.15 690.28,-248.18 687.99,-241.57"/>
</a>
</g>
</g>
<!-- Node20 -->
<g id="Node000020" class="node">
<title>Node20</title>
<g id="a_Node000020"><a xlink:href="_closed_loop_coronary_right_b_c_8h.html" target="_top" xlink:title="Right side of ClosedLoopCoronaryBC.">
<polygon fill="white" stroke="#666666" points="752.62,-207.5 617.38,-207.5 617.38,-177 752.62,-177 752.62,-207.5"/>
<text text-anchor="start" x="625.38" y="-194" font-family="Helvetica,sans-Serif" font-size="10.00">model/ClosedLoopCoronary</text>
<text text-anchor="middle" x="685" y="-182.75" font-family="Helvetica,sans-Serif" font-size="10.00">RightBC.h</text>
</a>
</g>
</g>
<!-- Node18&#45;&gt;Node20 -->
<g id="edge33_Node000018_Node000020" class="edge">
<title>Node18&#45;&gt;Node20</title>
<g id="a_edge33_Node000018_Node000020"><a xlink:title=" ">
<path fill="none" stroke="#63b8ff" d="M661.77,-238.66C666.86,-228.71 672.98,-216.75 677.66,-207.59"/>
<polygon fill="#63b8ff" stroke="#63b8ff" points="658.72,-236.94 657.28,-247.43 664.95,-240.13 658.72,-236.94"/>
</a>
</g>
</g>
<!-- Node19&#45;&gt;Node4 -->
<g id="edge32_Node000019_Node000004" class="edge">
<title>Node19&#45;&gt;Node4</title>
<g id="a_edge32_Node000019_Node000004"><a xlink:title=" ">
<path fill="none" stroke="#63b8ff" d="M882.2,-171.97C905.79,-161.69 933.71,-149.51 952.3,-141.4"/>
<polygon fill="#63b8ff" stroke="#63b8ff" points="880.87,-168.73 873.11,-175.94 883.67,-175.15 880.87,-168.73"/>
</a>
</g>
</g>
<!-- Node20&#45;&gt;Node4 -->
<g id="edge34_Node000020_Node000004" class="edge">
<title>Node20&#45;&gt;Node4</title>
<g id="a_edge34_Node000020_Node000004"><a xlink:title=" ">
<path fill="none" stroke="#63b8ff" d="M763.98,-175.1C818.81,-163.9 889.56,-149.43 933.08,-140.54"/>
<polygon fill="#63b8ff" stroke="#63b8ff" points="763.47,-171.64 754.37,-177.07 764.87,-178.5 763.47,-171.64"/>
</a>
</g>
</g>
<!-- Node21&#45;&gt;Node4 -->
<g id="edge37_Node000021_Node000004" class="edge">
<title>Node21&#45;&gt;Node4</title>
<g id="a_edge37_Node000021_Node000004"><a xlink:title=" ">
<path fill="none" stroke="#63b8ff" d="M604.66,-305.4C589.29,-298.61 573.92,-288.59 565,-274 540.41,-233.76 568.03,-202.02 608,-177 661.51,-143.51 850.14,-135.13 933.22,-133.05"/>
<polygon fill="#63b8ff" stroke="#63b8ff" points="603.22,-308.59 613.81,-309.03 605.81,-302.09 603.22,-308.59"/>
</a>
</g>
</g>
<!-- Node21&#45;&gt;Node18 -->
<g id="edge36_Node000021_Node000018" class="edge">
<title>Node21&#45;&gt;Node18</title>
<g id="a_edge36_Node000021_Node000018"><a xlink:title=" ">
<path fill="none" stroke="#63b8ff" d="M652,-298.2C652,-288.17 652,-276.58 652,-268.78"/>
<polygon fill="#63b8ff" stroke="#63b8ff" points="648.5,-298.17 652,-308.17 655.5,-298.17 648.5,-298.17"/>
</a>
</g>
</g>
<!-- Node22&#45;&gt;Node4 -->
<g id="edge39_Node000022_Node000004" class="edge">
<title>Node22&#45;&gt;Node4</title>
<g id="a_edge39_Node000022_Node000004"><a xlink:title=" ">
<path fill="none" stroke="#63b8ff" d="M120.82,-300.78C99.05,-271.12 63.17,-211.55 96,-177 125.19,-146.28 765.42,-135.26 933.1,-132.89"/>
<polygon fill="#63b8ff" stroke="#63b8ff" points="117.79,-302.57 126.63,-308.41 123.36,-298.33 117.79,-302.57"/>
</a>
</g>
</g>
<!-- Node23&#45;&gt;Node4 -->
<g id="edge41_Node000023_Node000004" class="edge">
<title>Node23&#45;&gt;Node4</title>
<g id="a_edge41_Node000023_Node000004"><a xlink:title=" ">
<path fill="none" stroke="#63b8ff" d="M225,-180.15C232.04,-178.95 239.18,-177.85 246,-177 506.67,-144.37 823.04,-135.31 933.04,-133.06"/>
<polygon fill="#63b8ff" stroke="#63b8ff" points="224.4,-176.7 215.18,-181.91 225.64,-183.59 224.4,-176.7"/>
</a>
</g>
</g>
<!-- Node24&#45;&gt;Node4 -->
<g id="edge43_Node000024_Node000004" class="edge">
<title>Node24&#45;&gt;Node4</title>
<g id="a_edge43_Node000024_Node000004"><a xlink:title=" ">
<path fill="none" stroke="#63b8ff" d="M344.62,-179.66C349.45,-178.65 354.31,-177.73 359,-177 573.9,-143.47 835.13,-135.05 933.24,-133.01"/>
<polygon fill="#63b8ff" stroke="#63b8ff" points="343.97,-176.21 334.98,-181.82 345.51,-183.04 343.97,-176.21"/>
</a>
</g>
</g>
<!-- Node25&#45;&gt;Node4 -->
<g id="edge47_Node000025_Node000004" class="edge">
<title>Node25&#45;&gt;Node4</title>
<g id="a_edge47_Node000025_Node000004"><a xlink:title=" ">
<path fill="none" stroke="#63b8ff" d="M349.8,-302.6C340.91,-295.07 331.76,-285.26 327,-274 321.72,-261.52 321.21,-255.75 327,-243.5 336.96,-222.45 386.4,-185.71 408,-177 503.6,-138.47 821.12,-133.12 933.31,-132.44"/>
<polygon fill="#63b8ff" stroke="#63b8ff" points="347.54,-305.28 357.58,-308.67 351.84,-299.76 347.54,-305.28"/>
</a>
</g>
</g>
<!-- Node25&#45;&gt;Node26 -->
<g id="edge48_Node000025_Node000026" class="edge">
<title>Node25&#45;&gt;Node26</title>
<g id="a_edge48_Node000025_Node000026"><a xlink:title=" ">
<path fill="none" stroke="#63b8ff" d="M384.18,-299.82C389.09,-291.55 394.78,-281.99 399.36,-274.28"/>
<polygon fill="#63b8ff" stroke="#63b8ff" points="381.19,-298 379.09,-308.38 387.21,-301.57 381.19,-298"/>
</a>
</g>
</g>
<!-- Node26&#45;&gt;Node4 -->
<g id="edge49_Node000026_Node000004" class="edge">
<title>Node26&#45;&gt;Node4</title>
<g id="a_edge49_Node000026_Node000004"><a xlink:title=" ">
<path fill="none" stroke="#63b8ff" d="M407.76,-231.84C409.09,-213.61 414.13,-190.19 430,-177 468.51,-145 814.82,-135.4 933.39,-133.05"/>
<polygon fill="#63b8ff" stroke="#63b8ff" points="404.27,-231.54 407.4,-241.66 411.26,-231.8 404.27,-231.54"/>
</a>
</g>
</g>
<!-- Node27&#45;&gt;Node4 -->
<g id="edge52_Node000027_Node000004" class="edge">
<title>Node27&#45;&gt;Node4</title>
<g id="a_edge52_Node000027_Node000004"><a xlink:title=" ">
<path fill="none" stroke="#63b8ff" d="M555.6,-180.2C562.13,-179.05 568.7,-177.95 575,-177 705.46,-157.32 861.18,-142.3 933.04,-135.84"/>
<polygon fill="#63b8ff" stroke="#63b8ff" points="555.42,-176.67 546.21,-181.91 556.67,-183.56 555.42,-176.67"/>
</a>
</g>
</g>
<!-- Node28&#45;&gt;Node4 -->
<g id="edge54_Node000028_Node000004" class="edge">
<title>Node28&#45;&gt;Node4</title>
<g id="a_edge54_Node000028_Node000004"><a xlink:title=" ">
<path fill="none" stroke="#63b8ff" d="M855.76,-243.95C874.32,-235.17 897.3,-222.61 915,-207.5 938.56,-187.39 958.8,-156.3 967.88,-141.2"/>
<polygon fill="#63b8ff" stroke="#63b8ff" points="854.43,-240.71 846.79,-248.04 857.34,-247.07 854.43,-240.71"/>
</a>
</g>
</g>
<!-- Node29&#45;&gt;Node4 -->
<g id="edge56_Node000029_Node000004" class="edge">
<title>Node29&#45;&gt;Node4</title>
<g id="a_edge56_Node000029_Node000004"><a xlink:title=" ">
<path fill="none" stroke="#63b8ff" d="M973,-237.3C973,-209.57 973,-161.2 973,-141.31"/>
<polygon fill="#63b8ff" stroke="#63b8ff" points="969.5,-237.22 973,-247.22 976.5,-237.22 969.5,-237.22"/>
</a>
</g>
</g>
<!-- Node30&#45;&gt;Node4 -->
<g id="edge58_Node000030_Node000004" class="edge">
<title>Node30&#45;&gt;Node4</title>
<g id="a_edge58_Node000030_Node000004"><a xlink:title=" ">
<path fill="none" stroke="#63b8ff" d="M1095.48,-241.29C1065.31,-214.45 1006.53,-162.19 983.05,-141.31"/>
<polygon fill="#63b8ff" stroke="#63b8ff" points="1092.93,-243.7 1102.73,-247.73 1097.58,-238.47 1092.93,-243.7"/>
</a>
</g>
</g>
<!-- Node31&#45;&gt;Node4 -->
<g id="edge60_Node000031_Node000004" class="edge">
<title>Node31&#45;&gt;Node4</title>
<g id="a_edge60_Node000031_Node000004"><a xlink:title=" ">
<path fill="none" stroke="#63b8ff" d="M1113.51,-178.59C1079.54,-167.42 1030.84,-151.4 1000.61,-141.46"/>
<polygon fill="#63b8ff" stroke="#63b8ff" points="1112.39,-181.91 1122.99,-181.71 1114.58,-175.26 1112.39,-181.91"/>
</a>
</g>
</g>
<!-- Node32&#45;&gt;Node4 -->
<g id="edge62_Node000032_Node000004" class="edge">
<title>Node32&#45;&gt;Node4</title>
<g id="a_edge62_Node000032_Node000004"><a xlink:title=" ">
<path fill="none" stroke="#63b8ff" d="M1279.99,-239.7C1265.4,-220.91 1239.97,-192.14 1211,-177 1147.1,-143.61 1062,-134.93 1012.79,-132.84"/>
<polygon fill="#63b8ff" stroke="#63b8ff" points="1277.05,-241.62 1285.85,-247.52 1282.65,-237.42 1277.05,-241.62"/>
</a>
</g>
</g>
</g>
</svg>
