<?xml version="1.0" encoding="UTF-8" standalone="no"?>
<!DOCTYPE svg PUBLIC "-//W3C//DTD SVG 1.1//EN"
 "http://www.w3.org/Graphics/SVG/1.1/DTD/svg11.dtd">
<!-- Generated by graphviz version 12.2.1 (20241206.2353)
 -->
<!-- Title: model/ActivationFunction.h Pages: 1 -->
<svg width="575pt" height="193pt"
 viewBox="0.00 0.00 574.62 193.00" xmlns="http://www.w3.org/2000/svg" xmlns:xlink="http://www.w3.org/1999/xlink">
<g id="graph0" class="graph" transform="scale(1 1) rotate(0) translate(4 189)">
<title>model/ActivationFunction.h</title>
<!-- Node1 -->
<g id="Node000001" class="node">
<title>Node1</title>
<g id="a_Node000001"><a xlink:title="Activation function classes for cardiac chamber models.">
<polygon fill="#999999" stroke="#666666" points="347.25,-185 213.5,-185 213.5,-165.75 347.25,-165.75 347.25,-185"/>
<text text-anchor="middle" x="280.38" y="-171.5" font-family="Helvetica,sans-Serif" font-size="10.00">model/ActivationFunction.h</text>
</a>
</g>
</g>
<!-- Node2 -->
<g id="Node000002" class="node">
<title>Node2</title>
<g id="a_Node000002"><a xlink:title=" ">
<polygon fill="#e0e0e0" stroke="#999999" points="34.75,-19.25 0,-19.25 0,0 34.75,0 34.75,-19.25"/>
<text text-anchor="middle" x="17.38" y="-5.75" font-family="Helvetica,sans-Serif" font-size="10.00">map</text>
</a>
</g>
</g>
<!-- Node1&#45;&gt;Node2 -->
<g id="edge1_Node000001_Node000002" class="edge">
<title>Node1&#45;&gt;Node2</title>
<g id="a_edge1_Node000001_Node000002"><a xlink:title=" ">
<path fill="none" stroke="#63b8ff" d="M213.04,-170.4C174.61,-165.36 127.13,-154.22 91.38,-129.75 55.65,-105.31 33.86,-57.37 23.88,-30.35"/>
<polygon fill="#63b8ff" stroke="#63b8ff" points="27.21,-29.29 20.61,-21 20.6,-31.59 27.21,-29.29"/>
</a>
</g>
</g>
<!-- Node3 -->
<g id="Node000003" class="node">
<title>Node3</title>
<g id="a_Node000003"><a xlink:title=" ">
<polygon fill="#e0e0e0" stroke="#999999" points="566.62,-129.75 516.12,-129.75 516.12,-110.5 566.62,-110.5 566.62,-129.75"/>
<text text-anchor="middle" x="541.38" y="-116.25" font-family="Helvetica,sans-Serif" font-size="10.00">memory</text>
</a>
</g>
</g>
<!-- Node1&#45;&gt;Node3 -->
<g id="edge2_Node000001_Node000003" class="edge">
<title>Node1&#45;&gt;Node3</title>
<g id="a_edge2_Node000001_Node000003"><a xlink:title=" ">
<path fill="none" stroke="#63b8ff" d="M326.77,-165.32C371.72,-156.48 441.79,-142.54 502.38,-129.75 503.19,-129.58 504.01,-129.4 504.84,-129.23"/>
<polygon fill="#63b8ff" stroke="#63b8ff" points="505.28,-132.71 514.32,-127.18 503.8,-125.87 505.28,-132.71"/>
</a>
</g>
</g>
<!-- Node4 -->
<g id="Node000004" class="node">
<title>Node4</title>
<g id="a_Node000004"><a xlink:title=" ">
<polygon fill="#e0e0e0" stroke="#999999" points="104.38,-19.25 64.38,-19.25 64.38,0 104.38,0 104.38,-19.25"/>
<text text-anchor="middle" x="84.38" y="-5.75" font-family="Helvetica,sans-Serif" font-size="10.00">string</text>
</a>
</g>
</g>
<!-- Node1&#45;&gt;Node4 -->
<g id="edge3_Node000001_Node000004" class="edge">
<title>Node1&#45;&gt;Node4</title>
<g id="a_edge3_Node000001_Node000004"><a xlink:title=" ">
<path fill="none" stroke="#63b8ff" d="M220.61,-165.28C168.6,-153.86 96.24,-128.72 61.38,-74.5 52.23,-60.28 60.55,-41.94 69.64,-28.57"/>
<polygon fill="#63b8ff" stroke="#63b8ff" points="72.37,-30.77 75.56,-20.66 66.76,-26.57 72.37,-30.77"/>
</a>
</g>
</g>
<!-- Node5 -->
<g id="Node000005" class="node">
<title>Node5</title>
<g id="a_Node000005"><a xlink:title=" ">
<polygon fill="#e0e0e0" stroke="#999999" points="329.88,-19.25 286.88,-19.25 286.88,0 329.88,0 329.88,-19.25"/>
<text text-anchor="middle" x="308.38" y="-5.75" font-family="Helvetica,sans-Serif" font-size="10.00">vector</text>
</a>
</g>
</g>
<!-- Node1&#45;&gt;Node5 -->
<g id="edge4_Node000001_Node000005" class="edge">
<title>Node1&#45;&gt;Node5</title>
<g id="a_edge4_Node000001_Node000005"><a xlink:title=" ">
<path fill="none" stroke="#63b8ff" d="M323.47,-165.26C368.81,-153.12 437.87,-126.79 469.38,-74.5 498.73,-25.79 396.84,-14.19 341.61,-11.45"/>
<polygon fill="#63b8ff" stroke="#63b8ff" points="341.92,-7.96 331.78,-11.04 341.63,-14.96 341.92,-7.96"/>
</a>
</g>
</g>
<!-- Node6 -->
<g id="Node000006" class="node">
<title>Node6</title>
<g id="a_Node000006"><a xlink:href="_parameter_8h.html" target="_top" xlink:title="model::Parameter source file">
<polygon fill="white" stroke="#666666" points="314.62,-129.75 246.12,-129.75 246.12,-110.5 314.62,-110.5 314.62,-129.75"/>
<text text-anchor="middle" x="280.38" y="-116.25" font-family="Helvetica,sans-Serif" font-size="10.00">Parameter.h</text>
</a>
</g>
</g>
<!-- Node1&#45;&gt;Node6 -->
<g id="edge5_Node000001_Node000006" class="edge">
<title>Node1&#45;&gt;Node6</title>
<g id="a_edge5_Node000001_Node000006"><a xlink:title=" ">
<path fill="none" stroke="#63b8ff" d="M280.38,-165.58C280.38,-159.07 280.38,-149.92 280.38,-141.62"/>
<polygon fill="#63b8ff" stroke="#63b8ff" points="283.88,-141.62 280.38,-131.62 276.88,-141.62 283.88,-141.62"/>
</a>
</g>
</g>
<!-- Node6&#45;&gt;Node5 -->
<g id="edge10_Node000006_Node000005" class="edge">
<title>Node6&#45;&gt;Node5</title>
<g id="a_edge10_Node000006_Node000005"><a xlink:title=" ">
<path fill="none" stroke="#63b8ff" d="M282.67,-110.25C287.14,-92.92 297.12,-54.23 303.25,-30.49"/>
<polygon fill="#63b8ff" stroke="#63b8ff" points="306.56,-31.65 305.67,-21.09 299.79,-29.9 306.56,-31.65"/>
</a>
</g>
</g>
<!-- Node7 -->
<g id="Node000007" class="node">
<title>Node7</title>
<g id="a_Node000007"><a xlink:title=" ">
<polygon fill="#e0e0e0" stroke="#999999" points="460.25,-74.5 404.5,-74.5 404.5,-55.25 460.25,-55.25 460.25,-74.5"/>
<text text-anchor="middle" x="432.38" y="-61" font-family="Helvetica,sans-Serif" font-size="10.00">algorithm</text>
</a>
</g>
</g>
<!-- Node6&#45;&gt;Node7 -->
<g id="edge6_Node000006_Node000007" class="edge">
<title>Node6&#45;&gt;Node7</title>
<g id="a_edge6_Node000006_Node000007"><a xlink:title=" ">
<path fill="none" stroke="#63b8ff" d="M306.16,-110.09C330.73,-101.49 367.96,-88.44 395.63,-78.75"/>
<polygon fill="#63b8ff" stroke="#63b8ff" points="396.75,-82.06 405.04,-75.45 394.44,-75.46 396.75,-82.06"/>
</a>
</g>
</g>
<!-- Node8 -->
<g id="Node000008" class="node">
<title>Node8</title>
<g id="a_Node000008"><a xlink:title=" ">
<polygon fill="#e0e0e0" stroke="#999999" points="208.88,-74.5 165.88,-74.5 165.88,-55.25 208.88,-55.25 208.88,-74.5"/>
<text text-anchor="middle" x="187.38" y="-61" font-family="Helvetica,sans-Serif" font-size="10.00">cmath</text>
</a>
</g>
</g>
<!-- Node6&#45;&gt;Node8 -->
<g id="edge7_Node000006_Node000008" class="edge">
<title>Node6&#45;&gt;Node8</title>
<g id="a_edge7_Node000006_Node000008"><a xlink:title=" ">
<path fill="none" stroke="#63b8ff" d="M264.6,-110.09C250.44,-101.98 229.39,-89.93 212.85,-80.46"/>
<polygon fill="#63b8ff" stroke="#63b8ff" points="214.96,-77.64 204.54,-75.7 211.48,-83.71 214.96,-77.64"/>
</a>
</g>
</g>
<!-- Node9 -->
<g id="Node000009" class="node">
<title>Node9</title>
<g id="a_Node000009"><a xlink:title=" ">
<polygon fill="#e0e0e0" stroke="#999999" points="280.12,-74.5 226.62,-74.5 226.62,-55.25 280.12,-55.25 280.12,-74.5"/>
<text text-anchor="middle" x="253.38" y="-61" font-family="Helvetica,sans-Serif" font-size="10.00">iostream</text>
</a>
</g>
</g>
<!-- Node6&#45;&gt;Node9 -->
<g id="edge8_Node000006_Node000009" class="edge">
<title>Node6&#45;&gt;Node9</title>
<g id="a_edge8_Node000006_Node000009"><a xlink:title=" ">
<path fill="none" stroke="#63b8ff" d="M275.92,-110.33C272.42,-103.44 267.43,-93.59 263.03,-84.91"/>
<polygon fill="#63b8ff" stroke="#63b8ff" points="266.26,-83.55 258.61,-76.21 260.02,-86.71 266.26,-83.55"/>
</a>
</g>
</g>
<!-- Node10 -->
<g id="Node000010" class="node">
<title>Node10</title>
<g id="a_Node000010"><a xlink:title=" ">
<polygon fill="#e0e0e0" stroke="#999999" points="386.62,-74.5 336.12,-74.5 336.12,-55.25 386.62,-55.25 386.62,-74.5"/>
<text text-anchor="middle" x="361.38" y="-61" font-family="Helvetica,sans-Serif" font-size="10.00">numeric</text>
</a>
</g>
</g>
<!-- Node6&#45;&gt;Node10 -->
<g id="edge9_Node000006_Node000010" class="edge">
<title>Node6&#45;&gt;Node10</title>
<g id="a_edge9_Node000006_Node000010"><a xlink:title=" ">
<path fill="none" stroke="#63b8ff" d="M294.12,-110.09C306.1,-102.21 323.75,-90.61 337.96,-81.27"/>
<polygon fill="#63b8ff" stroke="#63b8ff" points="339.87,-84.2 346.3,-75.78 336.02,-78.35 339.87,-84.2"/>
</a>
</g>
</g>
<!-- Node11 -->
<g id="Node000011" class="node">
<title>Node11</title>
<g id="a_Node000011"><a xlink:href="_d_o_f_handler_8h.html" target="_top" xlink:title="model::DOFHandler source file">
<polygon fill="white" stroke="#666666" points="148.12,-74.5 70.62,-74.5 70.62,-55.25 148.12,-55.25 148.12,-74.5"/>
<text text-anchor="middle" x="109.38" y="-61" font-family="Helvetica,sans-Serif" font-size="10.00">DOFHandler.h</text>
</a>
</g>
</g>
<!-- Node6&#45;&gt;Node11 -->
<g id="edge11_Node000006_Node000011" class="edge">
<title>Node6&#45;&gt;Node11</title>
<g id="a_edge11_Node000006_Node000011"><a xlink:title=" ">
<path fill="none" stroke="#63b8ff" d="M251.37,-110.09C223.36,-101.37 180.72,-88.09 149.47,-78.36"/>
<polygon fill="#63b8ff" stroke="#63b8ff" points="150.56,-75.03 139.97,-75.4 148.48,-81.72 150.56,-75.03"/>
</a>
</g>
</g>
<!-- Node11&#45;&gt;Node2 -->
<g id="edge12_Node000011_Node000002" class="edge">
<title>Node11&#45;&gt;Node2</title>
<g id="a_edge12_Node000011_Node000002"><a xlink:title=" ">
<path fill="none" stroke="#63b8ff" d="M93.77,-54.84C79.76,-46.73 58.94,-34.68 42.57,-25.21"/>
<polygon fill="#63b8ff" stroke="#63b8ff" points="44.78,-22.44 34.37,-20.46 41.27,-28.5 44.78,-22.44"/>
</a>
</g>
</g>
<!-- Node11&#45;&gt;Node4 -->
<g id="edge13_Node000011_Node000004" class="edge">
<title>Node11&#45;&gt;Node4</title>
<g id="a_edge13_Node000011_Node000004"><a xlink:title=" ">
<path fill="none" stroke="#63b8ff" d="M105.25,-55.08C102.05,-48.26 97.49,-38.56 93.45,-29.95"/>
<polygon fill="#63b8ff" stroke="#63b8ff" points="96.65,-28.54 89.24,-20.98 90.32,-31.52 96.65,-28.54"/>
</a>
</g>
</g>
<!-- Node11&#45;&gt;Node5 -->
<g id="edge14_Node000011_Node000005" class="edge">
<title>Node11&#45;&gt;Node5</title>
<g id="a_edge14_Node000011_Node000005"><a xlink:title=" ">
<path fill="none" stroke="#63b8ff" d="M143.13,-54.84C180.06,-44.96 238.84,-29.23 275.43,-19.44"/>
<polygon fill="#63b8ff" stroke="#63b8ff" points="276.26,-22.84 285.02,-16.87 274.45,-16.08 276.26,-22.84"/>
</a>
</g>
</g>
</g>
</svg>
