<?xml version="1.0" encoding="UTF-8" standalone="no"?>
<!DOCTYPE svg PUBLIC "-//W3C//DTD SVG 1.1//EN"
 "http://www.w3.org/Graphics/SVG/1.1/DTD/svg11.dtd">
<!-- Generated by graphviz version 12.2.1 (20241206.2353)
 -->
<!-- Title: model/ActivationFunction.h Pages: 1 -->
<svg width="2135pt" height="448pt"
 viewBox="0.00 0.00 2135.00 447.75" xmlns="http://www.w3.org/2000/svg" xmlns:xlink="http://www.w3.org/1999/xlink">
<g id="graph0" class="graph" transform="scale(1 1) rotate(0) translate(4 443.75)">
<title>model/ActivationFunction.h</title>
<!-- Node1 -->
<g id="Node000001" class="node">
<title>Node1</title>
<g id="a_Node000001"><a xlink:title="Activation function classes for cardiac chamber models.">
<polygon fill="#999999" stroke="#666666" points="1902.88,-439.75 1769.12,-439.75 1769.12,-420.5 1902.88,-420.5 1902.88,-439.75"/>
<text text-anchor="middle" x="1836" y="-426.25" font-family="Helvetica,sans-Serif" font-size="10.00">model/ActivationFunction.h</text>
</a>
</g>
</g>
<!-- Node2 -->
<g id="Node000002" class="node">
<title>Node2</title>
<g id="a_Node000002"><a xlink:href="_block_8h.html" target="_top" xlink:title="model::Block source file">
<polygon fill="white" stroke="#666666" points="1107.75,-384.5 1030.25,-384.5 1030.25,-365.25 1107.75,-365.25 1107.75,-384.5"/>
<text text-anchor="middle" x="1069" y="-371" font-family="Helvetica,sans-Serif" font-size="10.00">model/Block.h</text>
</a>
</g>
</g>
<!-- Node1&#45;&gt;Node2 -->
<g id="edge1_Node000001_Node000002" class="edge">
<title>Node1&#45;&gt;Node2</title>
<g id="a_edge1_Node000001_Node000002"><a xlink:title=" ">
<path fill="none" stroke="#63b8ff" d="M1757.63,-423.68C1595.5,-412.43 1228.37,-386.94 1108.01,-378.58"/>
<polygon fill="#63b8ff" stroke="#63b8ff" points="1757.21,-427.16 1767.43,-424.36 1757.7,-420.18 1757.21,-427.16"/>
</a>
</g>
</g>
<!-- Node8 -->
<g id="Node000008" class="node">
<title>Node8</title>
<g id="a_Node000008"><a xlink:href="_linear_elastance_chamber_8h.html" target="_top" xlink:title="model::LinearElastanceChamber source file">
<polygon fill="white" stroke="#666666" points="1849.75,-80.12 1688.25,-80.12 1688.25,-60.88 1849.75,-60.88 1849.75,-80.12"/>
<text text-anchor="middle" x="1769" y="-66.62" font-family="Helvetica,sans-Serif" font-size="10.00">model/LinearElastanceChamber.h</text>
</a>
</g>
</g>
<!-- Node1&#45;&gt;Node8 -->
<g id="edge68_Node000001_Node000008" class="edge">
<title>Node1&#45;&gt;Node8</title>
<g id="a_edge68_Node000001_Node000008"><a xlink:title=" ">
<path fill="none" stroke="#63b8ff" d="M1903.01,-417.95C1988.94,-401.69 2127,-368.16 2127,-320.62 2127,-320.62 2127,-320.62 2127,-191.25 2127,-131.36 1944.56,-95.95 1840.16,-80.59"/>
<polygon fill="#63b8ff" stroke="#63b8ff" points="1902.45,-414.5 1893.25,-419.76 1903.72,-421.38 1902.45,-414.5"/>
</a>
</g>
</g>
<!-- Node11 -->
<g id="Node000011" class="node">
<title>Node11</title>
<g id="a_Node000011"><a xlink:href="_simulation_parameters_8h.html" target="_top" xlink:title="Source file to read simulation configuration.">
<polygon fill="white" stroke="#666666" points="886.88,-80.12 741.12,-80.12 741.12,-60.88 886.88,-60.88 886.88,-80.12"/>
<text text-anchor="middle" x="814" y="-66.62" font-family="Helvetica,sans-Serif" font-size="10.00">solve/SimulationParameters.h</text>
</a>
</g>
</g>
<!-- Node1&#45;&gt;Node11 -->
<g id="edge69_Node000001_Node000011" class="edge">
<title>Node1&#45;&gt;Node11</title>
<g id="a_edge69_Node000001_Node000011"><a xlink:title=" ">
<path fill="none" stroke="#63b8ff" d="M1757.45,-428.66C1406.61,-426.06 0,-410.06 0,-320.62 0,-320.62 0,-320.62 0,-191.25 0,-116.75 540.6,-84.15 740.69,-74.63"/>
<polygon fill="#63b8ff" stroke="#63b8ff" points="1757.21,-432.15 1767.24,-428.73 1757.26,-425.15 1757.21,-432.15"/>
</a>
</g>
</g>
<!-- Node17 -->
<g id="Node000017" class="node">
<title>Node17</title>
<g id="a_Node000017"><a xlink:href="_chamber_elastance_inductor_8h.html" target="_top" xlink:title="model::ChamberElastanceInductor source file">
<polygon fill="white" stroke="#666666" points="1920.88,-329.25 1751.12,-329.25 1751.12,-310 1920.88,-310 1920.88,-329.25"/>
<text text-anchor="middle" x="1836" y="-315.75" font-family="Helvetica,sans-Serif" font-size="10.00">model/ChamberElastanceInductor.h</text>
</a>
</g>
</g>
<!-- Node1&#45;&gt;Node17 -->
<g id="edge66_Node000001_Node000017" class="edge">
<title>Node1&#45;&gt;Node17</title>
<g id="a_edge66_Node000001_Node000017"><a xlink:title=" ">
<path fill="none" stroke="#63b8ff" d="M1836,-408.78C1836,-385.05 1836,-346.89 1836,-329.63"/>
<polygon fill="#63b8ff" stroke="#63b8ff" points="1832.5,-408.73 1836,-418.73 1839.5,-408.73 1832.5,-408.73"/>
</a>
</g>
</g>
<!-- Node19 -->
<g id="Node000019" class="node">
<title>Node19</title>
<g id="a_Node000019"><a xlink:href="_chamber_sphere_8h.html" target="_top" xlink:title="model::ChamberSphere source file">
<polygon fill="white" stroke="#666666" points="2099.25,-329.25 1976.75,-329.25 1976.75,-310 2099.25,-310 2099.25,-329.25"/>
<text text-anchor="middle" x="2038" y="-315.75" font-family="Helvetica,sans-Serif" font-size="10.00">model/ChamberSphere.h</text>
</a>
</g>
</g>
<!-- Node1&#45;&gt;Node19 -->
<g id="edge67_Node000001_Node000019" class="edge">
<title>Node1&#45;&gt;Node19</title>
<g id="a_edge67_Node000001_Node000019"><a xlink:title=" ">
<path fill="none" stroke="#63b8ff" d="M1862.99,-414.63C1905.29,-391.91 1985.97,-348.57 2021.03,-329.74"/>
<polygon fill="#63b8ff" stroke="#63b8ff" points="1861.36,-411.53 1854.21,-419.34 1864.67,-417.7 1861.36,-411.53"/>
</a>
</g>
</g>
<!-- Node3 -->
<g id="Node000003" class="node">
<title>Node3</title>
<g id="a_Node000003"><a xlink:href="_block_factory_8h.html" target="_top" xlink:title="Define the block factory functional.">
<polygon fill="white" stroke="#666666" points="309.88,-201.88 200.12,-201.88 200.12,-182.62 309.88,-182.62 309.88,-201.88"/>
<text text-anchor="middle" x="255" y="-188.38" font-family="Helvetica,sans-Serif" font-size="10.00">model/BlockFactory.h</text>
</a>
</g>
</g>
<!-- Node2&#45;&gt;Node3 -->
<g id="edge2_Node000002_Node000003" class="edge">
<title>Node2&#45;&gt;Node3</title>
<g id="a_edge2_Node000002_Node000003"><a xlink:title=" ">
<path fill="none" stroke="#63b8ff" d="M1018.45,-372.73C848.49,-368.67 306.69,-353.85 279,-329.25 241.71,-296.13 249.17,-227.05 253.28,-202.31"/>
<polygon fill="#63b8ff" stroke="#63b8ff" points="1018.21,-376.23 1028.29,-372.97 1018.37,-369.23 1018.21,-376.23"/>
</a>
</g>
</g>
<!-- Node4 -->
<g id="Node000004" class="node">
<title>Node4</title>
<g id="a_Node000004"><a xlink:href="_model_8h.html" target="_top" xlink:title="model::Model source file">
<polygon fill="white" stroke="#666666" points="1160.5,-141 1081.5,-141 1081.5,-121.75 1160.5,-121.75 1160.5,-141"/>
<text text-anchor="middle" x="1121" y="-127.5" font-family="Helvetica,sans-Serif" font-size="10.00">model/Model.h</text>
</a>
</g>
</g>
<!-- Node2&#45;&gt;Node4 -->
<g id="edge48_Node000002_Node000004" class="edge">
<title>Node2&#45;&gt;Node4</title>
<g id="a_edge48_Node000002_Node000004"><a xlink:title=" ">
<path fill="none" stroke="#63b8ff" d="M1018.54,-373.87C851.63,-373.49 324.28,-369.12 260,-329.25 196.87,-290.09 139.74,-230.78 191,-177 222.14,-144.33 907,-134.7 1081.05,-132.77"/>
<polygon fill="#63b8ff" stroke="#63b8ff" points="1018.41,-377.37 1028.41,-373.89 1018.42,-370.37 1018.41,-377.37"/>
</a>
</g>
</g>
<!-- Node2&#45;&gt;Node8 -->
<g id="edge47_Node000002_Node000008" class="edge">
<title>Node2&#45;&gt;Node8</title>
<g id="a_edge47_Node000002_Node000008"><a xlink:title=" ">
<path fill="none" stroke="#63b8ff" d="M1119.51,-374.1C1293.56,-374.5 1861.5,-372.44 1930,-329.25 1964.15,-307.71 1976.42,-280.39 1960,-243.5 1923.52,-161.56 1826.58,-102.26 1786.61,-80.56"/>
<polygon fill="#63b8ff" stroke="#63b8ff" points="1119.67,-370.6 1109.66,-374.08 1119.65,-377.6 1119.67,-370.6"/>
</a>
</g>
</g>
<!-- Node13 -->
<g id="Node000013" class="node">
<title>Node13</title>
<g id="a_Node000013"><a xlink:href="_blood_vessel_8h.html" target="_top" xlink:title="model::BloodVessel source file">
<polygon fill="white" stroke="#666666" points="578.75,-329.25 471.25,-329.25 471.25,-310 578.75,-310 578.75,-329.25"/>
<text text-anchor="middle" x="525" y="-315.75" font-family="Helvetica,sans-Serif" font-size="10.00">model/BloodVessel.h</text>
</a>
</g>
</g>
<!-- Node2&#45;&gt;Node13 -->
<g id="edge17_Node000002_Node000013" class="edge">
<title>Node2&#45;&gt;Node13</title>
<g id="a_edge17_Node000002_Node000013"><a xlink:title=" ">
<path fill="none" stroke="#63b8ff" d="M1018.4,-369.68C931.38,-362.34 747.79,-346.32 593,-329.25 588.51,-328.75 583.85,-328.22 579.17,-327.66"/>
<polygon fill="#63b8ff" stroke="#63b8ff" points="1018.01,-373.16 1028.27,-370.51 1018.59,-366.18 1018.01,-373.16"/>
</a>
</g>
</g>
<!-- Node14 -->
<g id="Node000014" class="node">
<title>Node14</title>
<g id="a_Node000014"><a xlink:href="_blood_vessel_junction_8h.html" target="_top" xlink:title="model::BloodVesselJunction source file">
<polygon fill="white" stroke="#666666" points="503.12,-268.38 358.88,-268.38 358.88,-249.12 503.12,-249.12 503.12,-268.38"/>
<text text-anchor="middle" x="431" y="-254.88" font-family="Helvetica,sans-Serif" font-size="10.00">model/BloodVesselJunction.h</text>
</a>
</g>
</g>
<!-- Node2&#45;&gt;Node14 -->
<g id="edge24_Node000002_Node000014" class="edge">
<title>Node2&#45;&gt;Node14</title>
<g id="a_edge24_Node000002_Node000014"><a xlink:title=" ">
<path fill="none" stroke="#63b8ff" d="M1018.57,-373.1C881.1,-370.59 507.06,-360.9 462,-329.25 441.67,-314.97 434.48,-284.18 432.1,-268.83"/>
<polygon fill="#63b8ff" stroke="#63b8ff" points="1018.4,-376.6 1028.46,-373.28 1018.52,-369.6 1018.4,-376.6"/>
</a>
</g>
</g>
<!-- Node15 -->
<g id="Node000015" class="node">
<title>Node15</title>
<g id="a_Node000015"><a xlink:href="_blood_vessel_c_r_l_8h.html" target="_top" xlink:title="model::BloodVesselCRL source file">
<polygon fill="white" stroke="#666666" points="414.5,-329.25 287.5,-329.25 287.5,-310 414.5,-310 414.5,-329.25"/>
<text text-anchor="middle" x="351" y="-315.75" font-family="Helvetica,sans-Serif" font-size="10.00">model/BloodVesselCRL.h</text>
</a>
</g>
</g>
<!-- Node2&#45;&gt;Node15 -->
<g id="edge21_Node000002_Node000015" class="edge">
<title>Node2&#45;&gt;Node15</title>
<g id="a_edge21_Node000002_Node000015"><a xlink:title=" ">
<path fill="none" stroke="#63b8ff" d="M1018.82,-371.07C910.83,-364.88 648.41,-349.02 429,-329.25 424.39,-328.83 419.62,-328.38 414.83,-327.9"/>
<polygon fill="#63b8ff" stroke="#63b8ff" points="1018.3,-374.55 1028.48,-371.62 1018.7,-367.56 1018.3,-374.55"/>
</a>
</g>
</g>
<!-- Node16 -->
<g id="Node000016" class="node">
<title>Node16</title>
<g id="a_Node000016"><a xlink:href="_blood_vessel_r_c_8h_source.html" target="_top" xlink:title=" ">
<polygon fill="white" stroke="#666666" points="563.5,-201.88 442.5,-201.88 442.5,-182.62 563.5,-182.62 563.5,-201.88"/>
<text text-anchor="middle" x="503" y="-188.38" font-family="Helvetica,sans-Serif" font-size="10.00">model/BloodVesselRC.h</text>
</a>
</g>
</g>
<!-- Node2&#45;&gt;Node16 -->
<g id="edge25_Node000002_Node000016" class="edge">
<title>Node2&#45;&gt;Node16</title>
<g id="a_edge25_Node000002_Node000016"><a xlink:title=" ">
<path fill="none" stroke="#63b8ff" d="M1018.63,-371.78C925.84,-367.34 731.79,-355.19 670,-329.25 597.94,-299 532.23,-227.5 510.53,-202.26"/>
<polygon fill="#63b8ff" stroke="#63b8ff" points="1018.29,-375.27 1028.44,-372.24 1018.62,-368.27 1018.29,-375.27"/>
</a>
</g>
</g>
<!-- Node2&#45;&gt;Node17 -->
<g id="edge27_Node000002_Node000017" class="edge">
<title>Node2&#45;&gt;Node17</title>
<g id="a_edge27_Node000002_Node000017"><a xlink:title=" ">
<path fill="none" stroke="#63b8ff" d="M1119.42,-370.67C1229.77,-363.61 1500.97,-346 1728,-329.25 1735.41,-328.7 1743.1,-328.12 1750.82,-327.52"/>
<polygon fill="#63b8ff" stroke="#63b8ff" points="1119.27,-367.17 1109.52,-371.3 1119.72,-374.16 1119.27,-367.17"/>
</a>
</g>
</g>
<!-- Node2&#45;&gt;Node19 -->
<g id="edge31_Node000002_Node000019" class="edge">
<title>Node2&#45;&gt;Node19</title>
<g id="a_edge31_Node000002_Node000019"><a xlink:title=" ">
<path fill="none" stroke="#63b8ff" d="M1119.07,-372.51C1254.97,-368.56 1642.08,-355.68 1963,-329.25 1967.44,-328.88 1972.03,-328.46 1976.64,-328.01"/>
<polygon fill="#63b8ff" stroke="#63b8ff" points="1119.24,-369 1109.35,-372.79 1119.44,-376 1119.24,-369"/>
</a>
</g>
</g>
<!-- Node20 -->
<g id="Node000020" class="node">
<title>Node20</title>
<g id="a_Node000020"><a xlink:href="_closed_loop_coronary_b_c_8h.html" target="_top" xlink:title="model::ClosedLoopCoronaryBC source file">
<polygon fill="white" stroke="#666666" points="829.12,-268.38 672.88,-268.38 672.88,-249.12 829.12,-249.12 829.12,-268.38"/>
<text text-anchor="middle" x="751" y="-254.88" font-family="Helvetica,sans-Serif" font-size="10.00">model/ClosedLoopCoronaryBC.h</text>
</a>
</g>
</g>
<!-- Node2&#45;&gt;Node20 -->
<g id="edge33_Node000002_Node000020" class="edge">
<title>Node2&#45;&gt;Node20</title>
<g id="a_edge33_Node000002_Node000020"><a xlink:title=" ">
<path fill="none" stroke="#63b8ff" d="M1018.35,-371.38C922.58,-366.15 722.63,-352.54 702,-329.25 684.18,-309.14 716.47,-282.49 736.62,-268.77"/>
<polygon fill="#63b8ff" stroke="#63b8ff" points="1018.09,-374.87 1028.26,-371.91 1018.46,-367.88 1018.09,-374.87"/>
</a>
</g>
</g>
<!-- Node23 -->
<g id="Node000023" class="node">
<title>Node23</title>
<g id="a_Node000023"><a xlink:href="_closed_loop_heart_pulmonary_8h.html" target="_top" xlink:title="model::ClosedLoopHeartPulmonary source file">
<polygon fill="white" stroke="#666666" points="885.12,-329.25 710.88,-329.25 710.88,-310 885.12,-310 885.12,-329.25"/>
<text text-anchor="middle" x="798" y="-315.75" font-family="Helvetica,sans-Serif" font-size="10.00">model/ClosedLoopHeartPulmonary.h</text>
</a>
</g>
</g>
<!-- Node2&#45;&gt;Node23 -->
<g id="edge38_Node000002_Node000023" class="edge">
<title>Node2&#45;&gt;Node23</title>
<g id="a_edge38_Node000002_Node000023"><a xlink:title=" ">
<path fill="none" stroke="#63b8ff" d="M1018.71,-363.99C968.79,-354.18 892.88,-339.27 844.37,-329.74"/>
<polygon fill="#63b8ff" stroke="#63b8ff" points="1017.91,-367.4 1028.4,-365.9 1019.26,-360.53 1017.91,-367.4"/>
</a>
</g>
</g>
<!-- Node24 -->
<g id="Node000024" class="node">
<title>Node24</title>
<g id="a_Node000024"><a xlink:href="_closed_loop_r_c_r_b_c_8h.html" target="_top" xlink:title="model::ClosedLoopRCRBC source file">
<polygon fill="white" stroke="#666666" points="1041.12,-329.25 902.88,-329.25 902.88,-310 1041.12,-310 1041.12,-329.25"/>
<text text-anchor="middle" x="972" y="-315.75" font-family="Helvetica,sans-Serif" font-size="10.00">model/ClosedLoopRCRBC.h</text>
</a>
</g>
</g>
<!-- Node2&#45;&gt;Node24 -->
<g id="edge41_Node000002_Node000024" class="edge">
<title>Node2&#45;&gt;Node24</title>
<g id="a_edge41_Node000002_Node000024"><a xlink:title=" ">
<path fill="none" stroke="#63b8ff" d="M1042.53,-359.34C1025.29,-349.88 1003.33,-337.83 988.54,-329.7"/>
<polygon fill="#63b8ff" stroke="#63b8ff" points="1040.77,-362.37 1051.22,-364.11 1044.14,-356.23 1040.77,-362.37"/>
</a>
</g>
</g>
<!-- Node25 -->
<g id="Node000025" class="node">
<title>Node25</title>
<g id="a_Node000025"><a xlink:href="_flow_reference_b_c_8h.html" target="_top" xlink:title="model::FlowReferenceBC source file">
<polygon fill="white" stroke="#666666" points="712.75,-201.88 581.25,-201.88 581.25,-182.62 712.75,-182.62 712.75,-201.88"/>
<text text-anchor="middle" x="647" y="-188.38" font-family="Helvetica,sans-Serif" font-size="10.00">model/FlowReferenceBC.h</text>
</a>
</g>
</g>
<!-- Node2&#45;&gt;Node25 -->
<g id="edge43_Node000002_Node000025" class="edge">
<title>Node2&#45;&gt;Node25</title>
<g id="a_edge43_Node000002_Node000025"><a xlink:title=" ">
<path fill="none" stroke="#63b8ff" d="M1018.76,-373.59C928.8,-372.17 744.75,-364.86 693,-329.25 650.09,-299.72 646.58,-227.76 646.74,-202.33"/>
<polygon fill="#63b8ff" stroke="#63b8ff" points="1018.47,-377.09 1028.52,-373.73 1018.57,-370.09 1018.47,-377.09"/>
</a>
</g>
</g>
<!-- Node26 -->
<g id="Node000026" class="node">
<title>Node26</title>
<g id="a_Node000026"><a xlink:href="_junction_8h.html" target="_top" xlink:title="model::Junction source file">
<polygon fill="white" stroke="#666666" points="1202.75,-201.88 1113.25,-201.88 1113.25,-182.62 1202.75,-182.62 1202.75,-201.88"/>
<text text-anchor="middle" x="1158" y="-188.38" font-family="Helvetica,sans-Serif" font-size="10.00">model/Junction.h</text>
</a>
</g>
</g>
<!-- Node2&#45;&gt;Node26 -->
<g id="edge45_Node000002_Node000026" class="edge">
<title>Node2&#45;&gt;Node26</title>
<g id="a_edge45_Node000002_Node000026"><a xlink:title=" ">
<path fill="none" stroke="#63b8ff" d="M1067.63,-353.49C1065.69,-339.64 1061.04,-321.75 1050,-310 1018.24,-276.17 978.56,-312.05 952,-274 944.24,-262.88 943.63,-254.16 952,-243.5 952.33,-243.08 1060.93,-216.74 1120.29,-202.37"/>
<polygon fill="#63b8ff" stroke="#63b8ff" points="1064.14,-353.69 1068.62,-363.29 1071.1,-352.99 1064.14,-353.69"/>
</a>
</g>
</g>
<!-- Node27 -->
<g id="Node000027" class="node">
<title>Node27</title>
<g id="a_Node000027"><a xlink:href="_open_loop_coronary_b_c_8h.html" target="_top" xlink:title="model::OpenLoopCoronaryBC source file">
<polygon fill="white" stroke="#666666" points="1718.75,-329.25 1569.25,-329.25 1569.25,-310 1718.75,-310 1718.75,-329.25"/>
<text text-anchor="middle" x="1644" y="-315.75" font-family="Helvetica,sans-Serif" font-size="10.00">model/OpenLoopCoronaryBC.h</text>
</a>
</g>
</g>
<!-- Node2&#45;&gt;Node27 -->
<g id="edge49_Node000002_Node000027" class="edge">
<title>Node2&#45;&gt;Node27</title>
<g id="a_edge49_Node000002_Node000027"><a xlink:title=" ">
<path fill="none" stroke="#63b8ff" d="M1119.5,-369.2C1220.9,-359.81 1449.71,-338.62 1568.79,-327.59"/>
<polygon fill="#63b8ff" stroke="#63b8ff" points="1119.21,-365.71 1109.58,-370.12 1119.86,-372.68 1119.21,-365.71"/>
</a>
</g>
</g>
<!-- Node28 -->
<g id="Node000028" class="node">
<title>Node28</title>
<g id="a_Node000028"><a xlink:href="_open_loop_coronary_var_res_b_c_8h.html" target="_top" xlink:title="model::OpenLoopCoronaryVarResBC source file">
<polygon fill="white" stroke="#666666" points="1715.75,-274 1572.25,-274 1572.25,-243.5 1715.75,-243.5 1715.75,-274"/>
<text text-anchor="start" x="1580.25" y="-260.5" font-family="Helvetica,sans-Serif" font-size="10.00">model/OpenLoopCoronaryVar</text>
<text text-anchor="middle" x="1644" y="-249.25" font-family="Helvetica,sans-Serif" font-size="10.00">ResBC.h</text>
</a>
</g>
</g>
<!-- Node2&#45;&gt;Node28 -->
<g id="edge53_Node000002_Node000028" class="edge">
<title>Node2&#45;&gt;Node28</title>
<g id="a_edge53_Node000002_Node000028"><a xlink:title=" ">
<path fill="none" stroke="#63b8ff" d="M1119.45,-371.1C1191.19,-366.42 1326.49,-354.82 1439,-329.25 1499.65,-315.47 1567.56,-290.46 1607.99,-274.5"/>
<polygon fill="#63b8ff" stroke="#63b8ff" points="1119.34,-367.6 1109.58,-371.73 1119.78,-374.59 1119.34,-367.6"/>
</a>
</g>
</g>
<!-- Node29 -->
<g id="Node000029" class="node">
<title>Node29</title>
<g id="a_Node000029"><a xlink:href="_piecewise_valve_8h.html" target="_top" xlink:title="model::PiecewiseValve source file">
<polygon fill="white" stroke="#666666" points="1083.25,-268.38 960.75,-268.38 960.75,-249.12 1083.25,-249.12 1083.25,-268.38"/>
<text text-anchor="middle" x="1022" y="-254.88" font-family="Helvetica,sans-Serif" font-size="10.00">model/PiecewiseValve.h</text>
</a>
</g>
</g>
<!-- Node2&#45;&gt;Node29 -->
<g id="edge54_Node000002_Node000029" class="edge">
<title>Node2&#45;&gt;Node29</title>
<g id="a_edge54_Node000002_Node000029"><a xlink:title=" ">
<path fill="none" stroke="#63b8ff" d="M1079.48,-354.61C1085.12,-341.54 1089.67,-324.13 1083,-310 1074.16,-291.26 1054.52,-277.15 1039.91,-268.72"/>
<polygon fill="#63b8ff" stroke="#63b8ff" points="1076.42,-352.91 1075.17,-363.43 1082.71,-355.98 1076.42,-352.91"/>
</a>
</g>
</g>
<!-- Node30 -->
<g id="Node000030" class="node">
<title>Node30</title>
<g id="a_Node000030"><a xlink:href="_pressure_reference_b_c_8h.html" target="_top" xlink:title="model::PressureReferenceBC source file">
<polygon fill="white" stroke="#666666" points="1367.75,-268.38 1218.25,-268.38 1218.25,-249.12 1367.75,-249.12 1367.75,-268.38"/>
<text text-anchor="middle" x="1293" y="-254.88" font-family="Helvetica,sans-Serif" font-size="10.00">model/PressureReferenceBC.h</text>
</a>
</g>
</g>
<!-- Node2&#45;&gt;Node30 -->
<g id="edge56_Node000002_Node000030" class="edge">
<title>Node2&#45;&gt;Node30</title>
<g id="a_edge56_Node000002_Node000030"><a xlink:title=" ">
<path fill="none" stroke="#63b8ff" d="M1096.57,-359.83C1143.17,-336.08 1236.23,-288.67 1275.19,-268.82"/>
<polygon fill="#63b8ff" stroke="#63b8ff" points="1095.25,-356.57 1087.93,-364.23 1098.42,-362.81 1095.25,-356.57"/>
</a>
</g>
</g>
<!-- Node31 -->
<g id="Node000031" class="node">
<title>Node31</title>
<g id="a_Node000031"><a xlink:href="_resistance_b_c_8h.html" target="_top" xlink:title="model::ResistanceBC source file">
<polygon fill="white" stroke="#666666" points="1452.5,-201.88 1337.5,-201.88 1337.5,-182.62 1452.5,-182.62 1452.5,-201.88"/>
<text text-anchor="middle" x="1395" y="-188.38" font-family="Helvetica,sans-Serif" font-size="10.00">model/ResistanceBC.h</text>
</a>
</g>
</g>
<!-- Node2&#45;&gt;Node31 -->
<g id="edge58_Node000002_Node000031" class="edge">
<title>Node2&#45;&gt;Node31</title>
<g id="a_edge58_Node000002_Node000031"><a xlink:title=" ">
<path fill="none" stroke="#63b8ff" d="M1119.47,-372.26C1188.1,-367.22 1309.94,-347.69 1377,-274 1395.46,-253.71 1396.4,-218.75 1395.68,-202.3"/>
<polygon fill="#63b8ff" stroke="#63b8ff" points="1119.38,-368.76 1109.63,-372.9 1119.83,-375.74 1119.38,-368.76"/>
</a>
</g>
</g>
<!-- Node32 -->
<g id="Node000032" class="node">
<title>Node32</title>
<g id="a_Node000032"><a xlink:href="_resistive_junction_8h.html" target="_top" xlink:title="model::ResistiveJunction source file">
<polygon fill="white" stroke="#666666" points="1554,-268.38 1424,-268.38 1424,-249.12 1554,-249.12 1554,-268.38"/>
<text text-anchor="middle" x="1489" y="-254.88" font-family="Helvetica,sans-Serif" font-size="10.00">model/ResistiveJunction.h</text>
</a>
</g>
</g>
<!-- Node2&#45;&gt;Node32 -->
<g id="edge60_Node000002_Node000032" class="edge">
<title>Node2&#45;&gt;Node32</title>
<g id="a_edge60_Node000002_Node000032"><a xlink:title=" ">
<path fill="none" stroke="#63b8ff" d="M1119.51,-370.88C1201.44,-365.42 1359.29,-352.25 1410,-329.25 1441.28,-315.06 1469.22,-284.23 1481.86,-268.85"/>
<polygon fill="#63b8ff" stroke="#63b8ff" points="1119.49,-367.37 1109.74,-371.52 1119.94,-374.36 1119.49,-367.37"/>
</a>
</g>
</g>
<!-- Node33 -->
<g id="Node000033" class="node">
<title>Node33</title>
<g id="a_Node000033"><a xlink:href="_valve_tanh_8h.html" target="_top" xlink:title="model::ValveTanh source file">
<polygon fill="white" stroke="#666666" points="1200.62,-268.38 1101.38,-268.38 1101.38,-249.12 1200.62,-249.12 1200.62,-268.38"/>
<text text-anchor="middle" x="1151" y="-254.88" font-family="Helvetica,sans-Serif" font-size="10.00">model/ValveTanh.h</text>
</a>
</g>
</g>
<!-- Node2&#45;&gt;Node33 -->
<g id="edge62_Node000002_Node000033" class="edge">
<title>Node2&#45;&gt;Node33</title>
<g id="a_edge62_Node000002_Node000033"><a xlink:title=" ">
<path fill="none" stroke="#63b8ff" d="M1081.94,-355.86C1099.75,-331.07 1131.15,-287.38 1144.6,-268.66"/>
<polygon fill="#63b8ff" stroke="#63b8ff" points="1079.31,-353.53 1076.32,-363.69 1085,-357.61 1079.31,-353.53"/>
</a>
</g>
</g>
<!-- Node34 -->
<g id="Node000034" class="node">
<title>Node34</title>
<g id="a_Node000034"><a xlink:href="_windkessel_b_c_8h.html" target="_top" xlink:title="model::WindkesselBC source file">
<polygon fill="white" stroke="#666666" points="144.25,-201.88 27.75,-201.88 27.75,-182.62 144.25,-182.62 144.25,-201.88"/>
<text text-anchor="middle" x="86" y="-188.38" font-family="Helvetica,sans-Serif" font-size="10.00">model/WindkesselBC.h</text>
</a>
</g>
</g>
<!-- Node2&#45;&gt;Node34 -->
<g id="edge64_Node000002_Node000034" class="edge">
<title>Node2&#45;&gt;Node34</title>
<g id="a_edge64_Node000002_Node000034"><a xlink:title=" ">
<path fill="none" stroke="#63b8ff" d="M1018.56,-374.28C837.99,-375.36 230.69,-375.47 158,-329.25 110.88,-299.29 92.71,-227.6 87.63,-202.29"/>
<polygon fill="#63b8ff" stroke="#63b8ff" points="1018.33,-377.79 1028.31,-374.22 1018.29,-370.79 1018.33,-377.79"/>
</a>
</g>
</g>
<!-- Node3&#45;&gt;Node4 -->
<g id="edge3_Node000003_Node000004" class="edge">
<title>Node3&#45;&gt;Node4</title>
<g id="a_edge3_Node000003_Node000004"><a xlink:title=" ">
<path fill="none" stroke="#63b8ff" d="M305.12,-180C311.45,-178.84 317.86,-177.8 324,-177 612.58,-139.33 964.02,-133.43 1081,-132.53"/>
<polygon fill="#63b8ff" stroke="#63b8ff" points="304.51,-176.55 295.36,-181.89 305.84,-183.42 304.51,-176.55"/>
</a>
</g>
</g>
<!-- Node5 -->
<g id="Node000005" class="node">
<title>Node5</title>
<g id="a_Node000005"><a xlink:href="_integrator_8h.html" target="_top" xlink:title="Integrator source file.">
<polygon fill="white" stroke="#666666" points="1042.62,-80.12 943.38,-80.12 943.38,-60.88 1042.62,-60.88 1042.62,-80.12"/>
<text text-anchor="middle" x="993" y="-66.62" font-family="Helvetica,sans-Serif" font-size="10.00">algebra/Integrator.h</text>
</a>
</g>
</g>
<!-- Node4&#45;&gt;Node5 -->
<g id="edge4_Node000004_Node000005" class="edge">
<title>Node4&#45;&gt;Node5</title>
<g id="a_edge4_Node000004_Node000005"><a xlink:title=" ">
<path fill="none" stroke="#63b8ff" d="M1090.87,-116.52C1066.67,-105.38 1033.38,-90.07 1012.53,-80.48"/>
<polygon fill="#63b8ff" stroke="#63b8ff" points="1089.36,-119.67 1099.91,-120.67 1092.28,-113.31 1089.36,-119.67"/>
</a>
</g>
</g>
<!-- Node6 -->
<g id="Node000006" class="node">
<title>Node6</title>
<g id="a_Node000006"><a xlink:href="interface_8h.html" target="_top" xlink:title="svZeroDSolver callable interface.">
<polygon fill="white" stroke="#666666" points="1121.75,-19.25 1020.25,-19.25 1020.25,0 1121.75,0 1121.75,-19.25"/>
<text text-anchor="middle" x="1071" y="-5.75" font-family="Helvetica,sans-Serif" font-size="10.00">interface/interface.h</text>
</a>
</g>
</g>
<!-- Node4&#45;&gt;Node6 -->
<g id="edge7_Node000004_Node000006" class="edge">
<title>Node4&#45;&gt;Node6</title>
<g id="a_edge7_Node000004_Node000006"><a xlink:title=" ">
<path fill="none" stroke="#63b8ff" d="M1106.4,-112.53C1100.59,-104.71 1094.29,-95.17 1090,-85.75 1079.63,-62.98 1074.3,-33.64 1072.16,-19.3"/>
<polygon fill="#63b8ff" stroke="#63b8ff" points="1103.46,-114.46 1112.37,-120.2 1108.99,-110.16 1103.46,-114.46"/>
</a>
</g>
</g>
<!-- Node7 -->
<g id="Node000007" class="node">
<title>Node7</title>
<g id="a_Node000007"><a xlink:href="_solver_8h.html" target="_top" xlink:title="Solver source file.">
<polygon fill="white" stroke="#666666" points="953.75,-19.25 876.25,-19.25 876.25,0 953.75,0 953.75,-19.25"/>
<text text-anchor="middle" x="915" y="-5.75" font-family="Helvetica,sans-Serif" font-size="10.00">solve/Solver.h</text>
</a>
</g>
</g>
<!-- Node4&#45;&gt;Node7 -->
<g id="edge14_Node000004_Node000007" class="edge">
<title>Node4&#45;&gt;Node7</title>
<g id="a_edge14_Node000004_Node000007"><a xlink:title=" ">
<path fill="none" stroke="#63b8ff" d="M1070,-124.19C1021.44,-117.27 953.03,-104.52 934,-85.75 915.9,-67.89 914.17,-35.45 914.5,-19.7"/>
<polygon fill="#63b8ff" stroke="#63b8ff" points="1069.37,-127.63 1079.76,-125.53 1070.33,-120.7 1069.37,-127.63"/>
</a>
</g>
</g>
<!-- Node4&#45;&gt;Node8 -->
<g id="edge8_Node000004_Node000008" class="edge">
<title>Node4&#45;&gt;Node8</title>
<g id="a_edge8_Node000004_Node000008"><a xlink:title=" ">
<path fill="none" stroke="#63b8ff" d="M1172.24,-125.36C1284.45,-114.85 1552.33,-90.49 1687.76,-78.47"/>
<polygon fill="#63b8ff" stroke="#63b8ff" points="1172.06,-121.86 1162.43,-126.28 1172.72,-128.83 1172.06,-121.86"/>
</a>
</g>
</g>
<!-- Node9 -->
<g id="Node000009" class="node">
<title>Node9</title>
<g id="a_Node000009"><a xlink:href="_levenberg_marquardt_optimizer_8h.html" target="_top" xlink:title="opt::LevenbergMarquardtOptimizer source file">
<polygon fill="white" stroke="#666666" points="1243.12,-85.75 1098.88,-85.75 1098.88,-55.25 1243.12,-55.25 1243.12,-85.75"/>
<text text-anchor="start" x="1106.88" y="-72.25" font-family="Helvetica,sans-Serif" font-size="10.00">optimize/LevenbergMarquardt</text>
<text text-anchor="middle" x="1171" y="-61" font-family="Helvetica,sans-Serif" font-size="10.00">Optimizer.h</text>
</a>
</g>
</g>
<!-- Node4&#45;&gt;Node9 -->
<g id="edge10_Node000004_Node000009" class="edge">
<title>Node4&#45;&gt;Node9</title>
<g id="a_edge10_Node000004_Node000009"><a xlink:title=" ">
<path fill="none" stroke="#63b8ff" d="M1136.03,-112.68C1143.26,-104.17 1151.82,-94.09 1158.66,-86.03"/>
<polygon fill="#63b8ff" stroke="#63b8ff" points="1133.38,-110.39 1129.57,-120.28 1138.71,-114.92 1133.38,-110.39"/>
</a>
</g>
</g>
<!-- Node10 -->
<g id="Node000010" class="node">
<title>Node10</title>
<g id="a_Node000010"><a xlink:href="calibrate_8h.html" target="_top" xlink:title="opt::calibrate source file">
<polygon fill="white" stroke="#666666" points="1360.62,-80.12 1261.38,-80.12 1261.38,-60.88 1360.62,-60.88 1360.62,-80.12"/>
<text text-anchor="middle" x="1311" y="-66.62" font-family="Helvetica,sans-Serif" font-size="10.00">optimize/calibrate.h</text>
</a>
</g>
</g>
<!-- Node4&#45;&gt;Node10 -->
<g id="edge11_Node000004_Node000010" class="edge">
<title>Node4&#45;&gt;Node10</title>
<g id="a_edge11_Node000004_Node000010"><a xlink:title=" ">
<path fill="none" stroke="#63b8ff" d="M1160.91,-118.01C1197.01,-106.82 1249.32,-90.61 1281.7,-80.58"/>
<polygon fill="#63b8ff" stroke="#63b8ff" points="1160.23,-114.55 1151.72,-120.86 1162.3,-121.24 1160.23,-114.55"/>
</a>
</g>
</g>
<!-- Node4&#45;&gt;Node11 -->
<g id="edge12_Node000004_Node000011" class="edge">
<title>Node4&#45;&gt;Node11</title>
<g id="a_edge12_Node000004_Node000011"><a xlink:title=" ">
<path fill="none" stroke="#63b8ff" d="M1070.09,-120.61C1012.1,-109.49 918.11,-91.47 861.56,-80.62"/>
<polygon fill="#63b8ff" stroke="#63b8ff" points="1069.21,-124.01 1079.69,-122.45 1070.53,-117.13 1069.21,-124.01"/>
</a>
</g>
</g>
<!-- Node12 -->
<g id="Node000012" class="node">
<title>Node12</title>
<g id="a_Node000012"><a xlink:href="csv__writer_8h.html" target="_top" xlink:title="csv_writer source file">
<polygon fill="white" stroke="#666666" points="1473.38,-80.12 1378.62,-80.12 1378.62,-60.88 1473.38,-60.88 1473.38,-80.12"/>
<text text-anchor="middle" x="1426" y="-66.62" font-family="Helvetica,sans-Serif" font-size="10.00">solve/csv_writer.h</text>
</a>
</g>
</g>
<!-- Node4&#45;&gt;Node12 -->
<g id="edge15_Node000004_Node000012" class="edge">
<title>Node4&#45;&gt;Node12</title>
<g id="a_edge15_Node000004_Node000012"><a xlink:title=" ">
<path fill="none" stroke="#63b8ff" d="M1172.1,-122.32C1222.58,-114.1 1301.91,-100.5 1370,-85.75 1377.16,-84.2 1384.79,-82.38 1392.04,-80.56"/>
<polygon fill="#63b8ff" stroke="#63b8ff" points="1171.66,-118.85 1162.34,-123.9 1172.77,-125.76 1171.66,-118.85"/>
</a>
</g>
</g>
<!-- Node5&#45;&gt;Node6 -->
<g id="edge5_Node000005_Node000006" class="edge">
<title>Node5&#45;&gt;Node6</title>
<g id="a_edge5_Node000005_Node000006"><a xlink:title=" ">
<path fill="none" stroke="#63b8ff" d="M1014.03,-53.63C1028.46,-42.73 1047.09,-28.67 1059.04,-19.65"/>
<polygon fill="#63b8ff" stroke="#63b8ff" points="1011.93,-50.83 1006.05,-59.65 1016.14,-56.42 1011.93,-50.83"/>
</a>
</g>
</g>
<!-- Node5&#45;&gt;Node7 -->
<g id="edge6_Node000005_Node000007" class="edge">
<title>Node5&#45;&gt;Node7</title>
<g id="a_edge6_Node000005_Node000007"><a xlink:title=" ">
<path fill="none" stroke="#63b8ff" d="M971.97,-53.63C957.54,-42.73 938.91,-28.67 926.96,-19.65"/>
<polygon fill="#63b8ff" stroke="#63b8ff" points="969.86,-56.42 979.95,-59.65 974.07,-50.83 969.86,-56.42"/>
</a>
</g>
</g>
<!-- Node8&#45;&gt;Node4 -->
<g id="edge9_Node000008_Node000004" class="edge">
<title>Node8&#45;&gt;Node4</title>
<g id="a_edge9_Node000008_Node000004"><a xlink:title=" ">
<path fill="none" stroke="#63b8ff" d="M1676.44,-80.36C1532.69,-93.68 1261.92,-118.23 1160.55,-127.08"/>
<polygon fill="#63b8ff" stroke="#63b8ff" points="1676.69,-83.85 1686.33,-79.45 1676.05,-76.88 1676.69,-83.85"/>
</a>
</g>
</g>
<!-- Node11&#45;&gt;Node7 -->
<g id="edge13_Node000011_Node000007" class="edge">
<title>Node11&#45;&gt;Node7</title>
<g id="a_edge13_Node000011_Node000007"><a xlink:title=" ">
<path fill="none" stroke="#63b8ff" d="M839.1,-54.87C858.05,-43.82 883.44,-29.02 899.52,-19.65"/>
<polygon fill="#63b8ff" stroke="#63b8ff" points="837.52,-51.74 830.65,-59.8 841.05,-57.78 837.52,-51.74"/>
</a>
</g>
</g>
<!-- Node12&#45;&gt;Node6 -->
<g id="edge16_Node000012_Node000006" class="edge">
<title>Node12&#45;&gt;Node6</title>
<g id="a_edge16_Node000012_Node000006"><a xlink:title=" ">
<path fill="none" stroke="#63b8ff" d="M1381.67,-57.78C1377.74,-56.88 1373.8,-56.02 1370,-55.25 1283.56,-37.85 1181.8,-24.07 1122.06,-16.65"/>
<polygon fill="#63b8ff" stroke="#63b8ff" points="1380.65,-61.14 1391.19,-60.08 1382.29,-54.33 1380.65,-61.14"/>
</a>
</g>
</g>
<!-- Node13&#45;&gt;Node4 -->
<g id="edge20_Node000013_Node000004" class="edge">
<title>Node13&#45;&gt;Node4</title>
<g id="a_edge20_Node000013_Node000004"><a xlink:title=" ">
<path fill="none" stroke="#63b8ff" d="M526.38,-298.69C526.47,-282.28 524.08,-259.23 512,-243.5 488.75,-213.22 454.58,-239.66 434,-207.5 426.69,-196.08 424.73,-186.89 434,-177 478.34,-129.69 941.13,-130.52 1081.11,-131.87"/>
<polygon fill="#63b8ff" stroke="#63b8ff" points="522.9,-298.07 526,-308.2 529.9,-298.35 522.9,-298.07"/>
</a>
</g>
</g>
<!-- Node13&#45;&gt;Node14 -->
<g id="edge18_Node000013_Node000014" class="edge">
<title>Node13&#45;&gt;Node14</title>
<g id="a_edge18_Node000013_Node000014"><a xlink:title=" ">
<path fill="none" stroke="#63b8ff" d="M501.15,-303.68C483.57,-292.67 460.23,-278.06 445.41,-268.78"/>
<polygon fill="#63b8ff" stroke="#63b8ff" points="499.11,-306.54 509.44,-308.88 502.82,-300.61 499.11,-306.54"/>
</a>
</g>
</g>
<!-- Node14&#45;&gt;Node4 -->
<g id="edge19_Node000014_Node000004" class="edge">
<title>Node14&#45;&gt;Node4</title>
<g id="a_edge19_Node000014_Node000004"><a xlink:title=" ">
<path fill="none" stroke="#63b8ff" d="M414.97,-240.47C400.31,-222.57 383.27,-194.8 400,-177 423.49,-152.01 933.28,-137.15 1081.14,-133.35"/>
<polygon fill="#63b8ff" stroke="#63b8ff" points="412.03,-242.42 421.23,-247.68 417.31,-237.83 412.03,-242.42"/>
</a>
</g>
</g>
<!-- Node15&#45;&gt;Node4 -->
<g id="edge23_Node000015_Node000004" class="edge">
<title>Node15&#45;&gt;Node4</title>
<g id="a_edge23_Node000015_Node000004"><a xlink:title=" ">
<path fill="none" stroke="#63b8ff" d="M350.45,-298.3C350.27,-290.68 350.09,-281.94 350,-274 349.85,-260.45 346.45,-256.58 350,-243.5 358.98,-210.43 359.8,-194.93 389,-177 448.13,-140.69 937.37,-133.86 1081.31,-132.63"/>
<polygon fill="#63b8ff" stroke="#63b8ff" points="346.95,-298.32 350.7,-308.22 353.95,-298.14 346.95,-298.32"/>
</a>
</g>
</g>
<!-- Node15&#45;&gt;Node14 -->
<g id="edge22_Node000015_Node000014" class="edge">
<title>Node15&#45;&gt;Node14</title>
<g id="a_edge22_Node000015_Node000014"><a xlink:title=" ">
<path fill="none" stroke="#63b8ff" d="M372.14,-303.06C387,-292.13 406.36,-277.89 418.74,-268.78"/>
<polygon fill="#63b8ff" stroke="#63b8ff" points="370.35,-300.04 364.37,-308.79 374.5,-305.68 370.35,-300.04"/>
</a>
</g>
</g>
<!-- Node16&#45;&gt;Node4 -->
<g id="edge26_Node000016_Node000004" class="edge">
<title>Node16&#45;&gt;Node4</title>
<g id="a_edge26_Node000016_Node000004"><a xlink:title=" ">
<path fill="none" stroke="#63b8ff" d="M553.84,-180.02C559.94,-178.89 566.1,-177.85 572,-177 761.56,-149.83 990.48,-137.86 1081.2,-133.94"/>
<polygon fill="#63b8ff" stroke="#63b8ff" points="553.62,-176.49 544.47,-181.84 554.96,-183.37 553.62,-176.49"/>
</a>
</g>
</g>
<!-- Node17&#45;&gt;Node4 -->
<g id="edge30_Node000017_Node000004" class="edge">
<title>Node17&#45;&gt;Node4</title>
<g id="a_edge30_Node000017_Node000004"><a xlink:title=" ">
<path fill="none" stroke="#63b8ff" d="M1899.57,-305.83C1916.5,-299.21 1932.88,-289.19 1943,-274 1950.52,-262.72 1950.36,-254.88 1943,-243.5 1903.83,-182.95 1864.97,-194.44 1795,-177 1673.67,-146.77 1286.79,-135.94 1160.96,-133.16"/>
<polygon fill="#63b8ff" stroke="#63b8ff" points="1898.72,-302.42 1890.44,-309.03 1901.03,-309.03 1898.72,-302.42"/>
</a>
</g>
</g>
<!-- Node18 -->
<g id="Node000018" class="node">
<title>Node18</title>
<g id="a_Node000018"><a xlink:href="_chamber_elastance_inductor_exponential_8h.html" target="_top" xlink:title="model::ChamberElastanceInductorExponential source file">
<polygon fill="white" stroke="#666666" points="1934.12,-274 1771.88,-274 1771.88,-243.5 1934.12,-243.5 1934.12,-274"/>
<text text-anchor="start" x="1779.88" y="-260.5" font-family="Helvetica,sans-Serif" font-size="10.00">model/ChamberElastanceInductor</text>
<text text-anchor="middle" x="1853" y="-249.25" font-family="Helvetica,sans-Serif" font-size="10.00">Exponential.h</text>
</a>
</g>
</g>
<!-- Node17&#45;&gt;Node18 -->
<g id="edge28_Node000017_Node000018" class="edge">
<title>Node17&#45;&gt;Node18</title>
<g id="a_edge28_Node000017_Node000018"><a xlink:title=" ">
<path fill="none" stroke="#63b8ff" d="M1841.75,-298.7C1844.06,-290.7 1846.68,-281.65 1848.8,-274.28"/>
<polygon fill="#63b8ff" stroke="#63b8ff" points="1838.41,-297.65 1839,-308.23 1845.14,-299.59 1838.41,-297.65"/>
</a>
</g>
</g>
<!-- Node18&#45;&gt;Node4 -->
<g id="edge29_Node000018_Node000004" class="edge">
<title>Node18&#45;&gt;Node4</title>
<g id="a_edge29_Node000018_Node000004"><a xlink:title=" ">
<path fill="none" stroke="#63b8ff" d="M1833.77,-234.73C1816.22,-215.54 1788.45,-189.42 1758,-177 1649.06,-132.57 1282.88,-131.14 1160.91,-131.95"/>
<polygon fill="#63b8ff" stroke="#63b8ff" points="1831.05,-236.94 1840.3,-242.1 1836.29,-232.3 1831.05,-236.94"/>
</a>
</g>
</g>
<!-- Node19&#45;&gt;Node4 -->
<g id="edge32_Node000019_Node000004" class="edge">
<title>Node19&#45;&gt;Node4</title>
<g id="a_edge32_Node000019_Node000004"><a xlink:title=" ">
<path fill="none" stroke="#63b8ff" d="M2023.94,-300.72C1997.28,-268.42 1935.79,-201.51 1866,-177 1734.12,-130.68 1295.38,-130.74 1160.68,-131.9"/>
<polygon fill="#63b8ff" stroke="#63b8ff" points="2021.11,-302.78 2030.11,-308.36 2026.55,-298.38 2021.11,-302.78"/>
</a>
</g>
</g>
<!-- Node21 -->
<g id="Node000021" class="node">
<title>Node21</title>
<g id="a_Node000021"><a xlink:href="_closed_loop_coronary_left_b_c_8h.html" target="_top" xlink:title="Left side of ClosedLoopCoronaryBC.">
<polygon fill="white" stroke="#666666" points="865.62,-207.5 730.38,-207.5 730.38,-177 865.62,-177 865.62,-207.5"/>
<text text-anchor="start" x="738.38" y="-194" font-family="Helvetica,sans-Serif" font-size="10.00">model/ClosedLoopCoronary</text>
<text text-anchor="middle" x="798" y="-182.75" font-family="Helvetica,sans-Serif" font-size="10.00">LeftBC.h</text>
</a>
</g>
</g>
<!-- Node20&#45;&gt;Node21 -->
<g id="edge34_Node000020_Node000021" class="edge">
<title>Node20&#45;&gt;Node21</title>
<g id="a_edge34_Node000020_Node000021"><a xlink:title=" ">
<path fill="none" stroke="#63b8ff" d="M764.21,-239.62C771.59,-229.49 780.66,-217.04 787.55,-207.59"/>
<polygon fill="#63b8ff" stroke="#63b8ff" points="761.49,-237.42 758.43,-247.56 767.14,-241.54 761.49,-237.42"/>
</a>
</g>
</g>
<!-- Node22 -->
<g id="Node000022" class="node">
<title>Node22</title>
<g id="a_Node000022"><a xlink:href="_closed_loop_coronary_right_b_c_8h.html" target="_top" xlink:title="Right side of ClosedLoopCoronaryBC.">
<polygon fill="white" stroke="#666666" points="1018.62,-207.5 883.38,-207.5 883.38,-177 1018.62,-177 1018.62,-207.5"/>
<text text-anchor="start" x="891.38" y="-194" font-family="Helvetica,sans-Serif" font-size="10.00">model/ClosedLoopCoronary</text>
<text text-anchor="middle" x="951" y="-182.75" font-family="Helvetica,sans-Serif" font-size="10.00">RightBC.h</text>
</a>
</g>
</g>
<!-- Node20&#45;&gt;Node22 -->
<g id="edge36_Node000020_Node000022" class="edge">
<title>Node20&#45;&gt;Node22</title>
<g id="a_edge36_Node000020_Node000022"><a xlink:title=" ">
<path fill="none" stroke="#63b8ff" d="M789.87,-245.21C823.01,-234.53 870.68,-219.15 905.58,-207.9"/>
<polygon fill="#63b8ff" stroke="#63b8ff" points="789.11,-241.78 780.67,-248.18 791.26,-248.44 789.11,-241.78"/>
</a>
</g>
</g>
<!-- Node21&#45;&gt;Node4 -->
<g id="edge35_Node000021_Node000004" class="edge">
<title>Node21&#45;&gt;Node4</title>
<g id="a_edge35_Node000021_Node000004"><a xlink:title=" ">
<path fill="none" stroke="#63b8ff" d="M876.9,-176.47C954.66,-162.19 1034.57,-147.83 1081.2,-139.48"/>
<polygon fill="#63b8ff" stroke="#63b8ff" points="876.64,-172.96 867.44,-178.21 877.91,-179.85 876.64,-172.96"/>
</a>
</g>
</g>
<!-- Node22&#45;&gt;Node4 -->
<g id="edge37_Node000022_Node000004" class="edge">
<title>Node22&#45;&gt;Node4</title>
<g id="a_edge37_Node000022_Node000004"><a xlink:title=" ">
<path fill="none" stroke="#63b8ff" d="M1004.23,-172.81C1034.33,-162.39 1070.62,-149.82 1094.68,-141.49"/>
<polygon fill="#63b8ff" stroke="#63b8ff" points="1003.19,-169.47 994.89,-176.05 1005.48,-176.08 1003.19,-169.47"/>
</a>
</g>
</g>
<!-- Node23&#45;&gt;Node4 -->
<g id="edge40_Node000023_Node000004" class="edge">
<title>Node23&#45;&gt;Node4</title>
<g id="a_edge40_Node000023_Node000004"><a xlink:title=" ">
<path fill="none" stroke="#63b8ff" d="M822.22,-303.73C848.81,-287.72 893.06,-262.06 933,-243.5 973.95,-224.47 989.6,-231.26 1028,-207.5 1044.98,-196.99 1045.63,-189.76 1061,-177 1076.78,-163.9 1095.94,-149.97 1108.29,-141.23"/>
<polygon fill="#63b8ff" stroke="#63b8ff" points="820.64,-300.6 813.91,-308.78 824.27,-306.58 820.64,-300.6"/>
</a>
</g>
</g>
<!-- Node23&#45;&gt;Node20 -->
<g id="edge39_Node000023_Node000020" class="edge">
<title>Node23&#45;&gt;Node20</title>
<g id="a_edge39_Node000023_Node000020"><a xlink:title=" ">
<path fill="none" stroke="#63b8ff" d="M783.8,-300.84C775.35,-290.25 764.99,-277.28 758.21,-268.78"/>
<polygon fill="#63b8ff" stroke="#63b8ff" points="780.94,-302.87 789.92,-308.5 786.41,-298.5 780.94,-302.87"/>
</a>
</g>
</g>
<!-- Node24&#45;&gt;Node4 -->
<g id="edge42_Node000024_Node000004" class="edge">
<title>Node24&#45;&gt;Node4</title>
<g id="a_edge42_Node000024_Node000004"><a xlink:title=" ">
<path fill="none" stroke="#63b8ff" d="M955.74,-301.08C942.85,-284.98 928.99,-261.03 942,-243.5 974.93,-199.13 1015.25,-238.49 1061,-207.5 1087.12,-189.81 1107.38,-157.29 1116.19,-141.48"/>
<polygon fill="#63b8ff" stroke="#63b8ff" points="952.85,-303.09 962.02,-308.4 958.16,-298.53 952.85,-303.09"/>
</a>
</g>
</g>
<!-- Node25&#45;&gt;Node4 -->
<g id="edge44_Node000025_Node000004" class="edge">
<title>Node25&#45;&gt;Node4</title>
<g id="a_edge44_Node000025_Node000004"><a xlink:title=" ">
<path fill="none" stroke="#63b8ff" d="M702.33,-180.1C708.61,-178.98 714.94,-177.92 721,-177 852.26,-157.07 1009.02,-142.14 1081.12,-135.77"/>
<polygon fill="#63b8ff" stroke="#63b8ff" points="701.81,-176.64 692.61,-181.89 703.07,-183.52 701.81,-176.64"/>
</a>
</g>
</g>
<!-- Node26&#45;&gt;Node4 -->
<g id="edge46_Node000026_Node000004" class="edge">
<title>Node26&#45;&gt;Node4</title>
<g id="a_edge46_Node000026_Node000004"><a xlink:title=" ">
<path fill="none" stroke="#63b8ff" d="M1146.41,-172.81C1139.84,-162.35 1131.91,-149.73 1126.67,-141.4"/>
<polygon fill="#63b8ff" stroke="#63b8ff" points="1143.29,-174.42 1151.58,-181.03 1149.22,-170.7 1143.29,-174.42"/>
</a>
</g>
</g>
<!-- Node27&#45;&gt;Node4 -->
<g id="edge50_Node000027_Node000004" class="edge">
<title>Node27&#45;&gt;Node4</title>
<g id="a_edge50_Node000027_Node000004"><a xlink:title=" ">
<path fill="none" stroke="#63b8ff" d="M1687.2,-305.12C1701.83,-298.24 1716.59,-288.24 1725,-274 1731.9,-262.33 1732.83,-254.56 1725,-243.5 1659.37,-150.84 1284.82,-135.44 1160.84,-132.88"/>
<polygon fill="#63b8ff" stroke="#63b8ff" points="1685.9,-301.87 1678.05,-308.99 1688.63,-308.31 1685.9,-301.87"/>
</a>
</g>
</g>
<!-- Node27&#45;&gt;Node28 -->
<g id="edge51_Node000027_Node000028" class="edge">
<title>Node27&#45;&gt;Node28</title>
<g id="a_edge51_Node000027_Node000028"><a xlink:title=" ">
<path fill="none" stroke="#63b8ff" d="M1644,-298.42C1644,-290.49 1644,-281.56 1644,-274.28"/>
<polygon fill="#63b8ff" stroke="#63b8ff" points="1640.5,-298.17 1644,-308.17 1647.5,-298.17 1640.5,-298.17"/>
</a>
</g>
</g>
<!-- Node28&#45;&gt;Node4 -->
<g id="edge52_Node000028_Node000004" class="edge">
<title>Node28&#45;&gt;Node4</title>
<g id="a_edge52_Node000028_Node000004"><a xlink:title=" ">
<path fill="none" stroke="#63b8ff" d="M1612.14,-237.22C1581.2,-218.32 1532.25,-191.16 1486,-177 1371.54,-141.96 1228.95,-134.31 1160.83,-132.72"/>
<polygon fill="#63b8ff" stroke="#63b8ff" points="1609.9,-239.94 1620.24,-242.23 1613.58,-233.99 1609.9,-239.94"/>
</a>
</g>
</g>
<!-- Node29&#45;&gt;Node4 -->
<g id="edge55_Node000029_Node000004" class="edge">
<title>Node29&#45;&gt;Node4</title>
<g id="a_edge55_Node000029_Node000004"><a xlink:title=" ">
<path fill="none" stroke="#63b8ff" d="M1071.98,-246.12C1126.79,-233.14 1207.62,-213.19 1212,-207.5 1220.27,-196.76 1219.17,-188.5 1212,-177 1200.74,-158.93 1179.79,-147.97 1160.83,-141.44"/>
<polygon fill="#63b8ff" stroke="#63b8ff" points="1071.46,-242.65 1062.53,-248.35 1073.07,-249.46 1071.46,-242.65"/>
</a>
</g>
</g>
<!-- Node30&#45;&gt;Node4 -->
<g id="edge57_Node000030_Node000004" class="edge">
<title>Node30&#45;&gt;Node4</title>
<g id="a_edge57_Node000030_Node000004"><a xlink:title=" ">
<path fill="none" stroke="#63b8ff" d="M1290.26,-237.5C1286.76,-219.28 1278.97,-192.98 1262,-177 1234.52,-151.12 1192.11,-140.25 1160.97,-135.68"/>
<polygon fill="#63b8ff" stroke="#63b8ff" points="1286.8,-238.03 1291.85,-247.34 1293.71,-236.91 1286.8,-238.03"/>
</a>
</g>
</g>
<!-- Node31&#45;&gt;Node4 -->
<g id="edge59_Node000031_Node000004" class="edge">
<title>Node31&#45;&gt;Node4</title>
<g id="a_edge59_Node000031_Node000004"><a xlink:title=" ">
<path fill="none" stroke="#63b8ff" d="M1341.56,-179.77C1288.45,-168.36 1208.24,-151.12 1160.59,-140.88"/>
<polygon fill="#63b8ff" stroke="#63b8ff" points="1340.8,-183.18 1351.31,-181.86 1342.27,-176.34 1340.8,-183.18"/>
</a>
</g>
</g>
<!-- Node32&#45;&gt;Node4 -->
<g id="edge61_Node000032_Node000004" class="edge">
<title>Node32&#45;&gt;Node4</title>
<g id="a_edge61_Node000032_Node000004"><a xlink:title=" ">
<path fill="none" stroke="#63b8ff" d="M1488.04,-237.42C1485.99,-218.72 1479.89,-191.74 1462,-177 1416.84,-139.79 1240.94,-133.4 1160.97,-132.45"/>
<polygon fill="#63b8ff" stroke="#63b8ff" points="1484.54,-237.57 1488.79,-247.27 1491.52,-237.04 1484.54,-237.57"/>
</a>
</g>
</g>
<!-- Node33&#45;&gt;Node4 -->
<g id="edge63_Node000033_Node000004" class="edge">
<title>Node33&#45;&gt;Node4</title>
<g id="a_edge63_Node000033_Node000004"><a xlink:title=" ">
<path fill="none" stroke="#63b8ff" d="M1197.06,-244.64C1215.3,-236.94 1234.42,-225.15 1245,-207.5 1251.97,-195.87 1252.8,-188.09 1245,-177 1226.12,-150.14 1189.44,-139.37 1160.85,-135.09"/>
<polygon fill="#63b8ff" stroke="#63b8ff" points="1195.97,-241.31 1187.9,-248.17 1198.49,-247.84 1195.97,-241.31"/>
</a>
</g>
</g>
<!-- Node34&#45;&gt;Node4 -->
<g id="edge65_Node000034_Node000004" class="edge">
<title>Node34&#45;&gt;Node4</title>
<g id="a_edge65_Node000034_Node000004"><a xlink:title=" ">
<path fill="none" stroke="#63b8ff" d="M137.31,-180.13C144.24,-178.91 151.27,-177.82 158,-177 514.38,-133.72 949.63,-131.64 1081.38,-132.1"/>
<polygon fill="#63b8ff" stroke="#63b8ff" points="136.87,-176.65 127.68,-181.92 138.15,-183.53 136.87,-176.65"/>
</a>
</g>
</g>
</g>
</svg>
