<?xml version="1.0" encoding="UTF-8" standalone="no"?>
<!DOCTYPE svg PUBLIC "-//W3C//DTD SVG 1.1//EN"
 "http://www.w3.org/Graphics/SVG/1.1/DTD/svg11.dtd">
<!-- Generated by graphviz version 12.2.1 (20241206.2353)
 -->
<!-- Title: model/ActivationFunction.h Pages: 1 -->
<svg width="1683pt" height="437pt"
 viewBox="0.00 0.00 1683.00 436.50" xmlns="http://www.w3.org/2000/svg" xmlns:xlink="http://www.w3.org/1999/xlink">
<g id="graph0" class="graph" transform="scale(1 1) rotate(0) translate(4 432.5)">
<title>model/ActivationFunction.h</title>
<!-- Node1 -->
<g id="Node000001" class="node">
<title>Node1</title>
<g id="a_Node000001"><a xlink:title="Activation function classes for cardiac chamber models.">
<polygon fill="#999999" stroke="#666666" points="1337.88,-428.5 1204.12,-428.5 1204.12,-409.25 1337.88,-409.25 1337.88,-428.5"/>
<text text-anchor="middle" x="1271" y="-415" font-family="Helvetica,sans-Serif" font-size="10.00">model/ActivationFunction.h</text>
</a>
</g>
</g>
<!-- Node2 -->
<g id="Node000002" class="node">
<title>Node2</title>
<g id="a_Node000002"><a xlink:href="_block_8h.html" target="_top" xlink:title="model::Block source file">
<polygon fill="white" stroke="#666666" points="947.75,-373.25 870.25,-373.25 870.25,-354 947.75,-354 947.75,-373.25"/>
<text text-anchor="middle" x="909" y="-359.75" font-family="Helvetica,sans-Serif" font-size="10.00">model/Block.h</text>
</a>
</g>
</g>
<!-- Node1&#45;&gt;Node2 -->
<g id="edge1_Node000001_Node000002" class="edge">
<title>Node1&#45;&gt;Node2</title>
<g id="a_edge1_Node000001_Node000002"><a xlink:title=" ">
<path fill="none" stroke="#63b8ff" d="M1197.9,-407.12C1122.55,-396.04 1007.91,-379.17 948.22,-370.39"/>
<polygon fill="#63b8ff" stroke="#63b8ff" points="1197.28,-410.57 1207.68,-408.56 1198.3,-403.64 1197.28,-410.57"/>
</a>
</g>
</g>
<!-- Node8 -->
<g id="Node000008" class="node">
<title>Node8</title>
<g id="a_Node000008"><a xlink:href="_chamber_elastance_inductor_8h.html" target="_top" xlink:title="model::ChamberElastanceInductor source file">
<polygon fill="white" stroke="#666666" points="1405.88,-80.12 1236.12,-80.12 1236.12,-60.88 1405.88,-60.88 1405.88,-80.12"/>
<text text-anchor="middle" x="1321" y="-66.62" font-family="Helvetica,sans-Serif" font-size="10.00">model/ChamberElastanceInductor.h</text>
</a>
</g>
</g>
<!-- Node1&#45;&gt;Node8 -->
<g id="edge60_Node000001_Node000008" class="edge">
<title>Node1&#45;&gt;Node8</title>
<g id="a_edge60_Node000001_Node000008"><a xlink:title=" ">
<path fill="none" stroke="#63b8ff" d="M1349.61,-418.03C1446.98,-416.65 1605.59,-408.79 1651,-373.25 1674.88,-354.56 1675,-339.7 1675,-309.38 1675,-309.38 1675,-309.38 1675,-191.25 1675,-124.16 1603.99,-144.85 1541,-121.75 1487.67,-102.19 1424.17,-88.67 1379.13,-80.62"/>
<polygon fill="#63b8ff" stroke="#63b8ff" points="1349.81,-414.53 1339.86,-418.14 1349.9,-421.52 1349.81,-414.53"/>
</a>
</g>
</g>
<!-- Node9 -->
<g id="Node000009" class="node">
<title>Node9</title>
<g id="a_Node000009"><a xlink:href="_linear_elastance_chamber_8h.html" target="_top" xlink:title="model::LinearElastanceChamber source file">
<polygon fill="white" stroke="#666666" points="316.75,-80.12 155.25,-80.12 155.25,-60.88 316.75,-60.88 316.75,-80.12"/>
<text text-anchor="middle" x="236" y="-66.62" font-family="Helvetica,sans-Serif" font-size="10.00">model/LinearElastanceChamber.h</text>
</a>
</g>
</g>
<!-- Node1&#45;&gt;Node9 -->
<g id="edge61_Node000001_Node000009" class="edge">
<title>Node1&#45;&gt;Node9</title>
<g id="a_edge61_Node000001_Node000009"><a xlink:title=" ">
<path fill="none" stroke="#63b8ff" d="M1192.88,-415.32C916.29,-405.76 0,-369.55 0,-309.38 0,-309.38 0,-309.38 0,-191.25 0,-120.04 86.52,-91.16 154.78,-79.46"/>
<polygon fill="#63b8ff" stroke="#63b8ff" points="1192.38,-418.8 1202.5,-415.65 1192.62,-411.81 1192.38,-418.8"/>
</a>
</g>
</g>
<!-- Node12 -->
<g id="Node000012" class="node">
<title>Node12</title>
<g id="a_Node000012"><a xlink:href="_simulation_parameters_8h.html" target="_top" xlink:title="Source file to read simulation configuration.">
<polygon fill="white" stroke="#666666" points="1569.88,-80.12 1424.12,-80.12 1424.12,-60.88 1569.88,-60.88 1569.88,-80.12"/>
<text text-anchor="middle" x="1497" y="-66.62" font-family="Helvetica,sans-Serif" font-size="10.00">solve/SimulationParameters.h</text>
</a>
</g>
</g>
<!-- Node1&#45;&gt;Node12 -->
<g id="edge62_Node000001_Node000012" class="edge">
<title>Node1&#45;&gt;Node12</title>
<g id="a_edge62_Node000001_Node000012"><a xlink:title=" ">
<path fill="none" stroke="#63b8ff" d="M1349.26,-410.56C1456.77,-398.31 1637,-368.9 1637,-309.38 1637,-309.38 1637,-309.38 1637,-191.25 1637,-132.4 1564.68,-96.28 1523.99,-80.62"/>
<polygon fill="#63b8ff" stroke="#63b8ff" points="1349.19,-407.05 1339.63,-411.63 1349.96,-414.01 1349.19,-407.05"/>
</a>
</g>
</g>
<!-- Node3 -->
<g id="Node000003" class="node">
<title>Node3</title>
<g id="a_Node000003"><a xlink:href="_block_factory_8h.html" target="_top" xlink:title="Define the block factory functional.">
<polygon fill="white" stroke="#666666" points="1202.88,-262.75 1093.12,-262.75 1093.12,-243.5 1202.88,-243.5 1202.88,-262.75"/>
<text text-anchor="middle" x="1148" y="-249.25" font-family="Helvetica,sans-Serif" font-size="10.00">model/BlockFactory.h</text>
</a>
</g>
</g>
<!-- Node2&#45;&gt;Node3 -->
<g id="edge2_Node000002_Node000003" class="edge">
<title>Node2&#45;&gt;Node3</title>
<g id="a_edge2_Node000002_Node000003"><a xlink:title=" ">
<path fill="none" stroke="#63b8ff" d="M957.5,-350.58C985.01,-342.91 1019.7,-331.82 1049,-318 1082.67,-302.12 1118.5,-276.53 1136.41,-263.07"/>
<polygon fill="#63b8ff" stroke="#63b8ff" points="956.76,-347.15 948.03,-353.16 958.59,-353.91 956.76,-347.15"/>
</a>
</g>
</g>
<!-- Node4 -->
<g id="Node000004" class="node">
<title>Node4</title>
<g id="a_Node000004"><a xlink:href="_model_8h.html" target="_top" xlink:title="model::Model source file">
<polygon fill="white" stroke="#666666" points="982.5,-141 903.5,-141 903.5,-121.75 982.5,-121.75 982.5,-141"/>
<text text-anchor="middle" x="943" y="-127.5" font-family="Helvetica,sans-Serif" font-size="10.00">model/Model.h</text>
</a>
</g>
</g>
<!-- Node2&#45;&gt;Node4 -->
<g id="edge45_Node000002_Node000004" class="edge">
<title>Node2&#45;&gt;Node4</title>
<g id="a_edge45_Node000002_Node000004"><a xlink:title=" ">
<path fill="none" stroke="#63b8ff" d="M959.34,-351.47C993.69,-343.37 1040.04,-331.5 1080,-318 1087.53,-315.46 1205.74,-267.65 1212,-262.75 1236.07,-243.9 1243.4,-236.53 1253,-207.5 1257.25,-194.63 1261.88,-187.25 1253,-177 1218.51,-137.19 1058.66,-132.08 982.96,-131.95"/>
<polygon fill="#63b8ff" stroke="#63b8ff" points="958.59,-348.05 949.65,-353.72 960.18,-354.86 958.59,-348.05"/>
</a>
</g>
</g>
<!-- Node2&#45;&gt;Node8 -->
<g id="edge27_Node000002_Node000008" class="edge">
<title>Node2&#45;&gt;Node8</title>
<g id="a_edge27_Node000002_Node000008"><a xlink:title=" ">
<path fill="none" stroke="#63b8ff" d="M959.38,-362.54C1107.11,-361.83 1531.87,-356.45 1580,-318 1603.14,-299.51 1599,-283.74 1599,-254.12 1599,-254.12 1599,-254.12 1599,-191.25 1599,-140.67 1441.81,-98.45 1363.83,-80.61"/>
<polygon fill="#63b8ff" stroke="#63b8ff" points="959.5,-359.04 949.51,-362.58 959.53,-366.04 959.5,-359.04"/>
</a>
</g>
</g>
<!-- Node2&#45;&gt;Node9 -->
<g id="edge44_Node000002_Node000009" class="edge">
<title>Node2&#45;&gt;Node9</title>
<g id="a_edge44_Node000002_Node000009"><a xlink:title=" ">
<path fill="none" stroke="#63b8ff" d="M858.64,-361.87C715.77,-359.36 309.9,-349.57 181,-318 113.39,-301.44 38,-323.73 38,-254.12 38,-254.12 38,-254.12 38,-191.25 38,-124.26 122.01,-93.73 180.58,-80.59"/>
<polygon fill="#63b8ff" stroke="#63b8ff" points="858.48,-365.37 868.54,-362.04 858.6,-358.37 858.48,-365.37"/>
</a>
</g>
</g>
<!-- Node14 -->
<g id="Node000014" class="node">
<title>Node14</title>
<g id="a_Node000014"><a xlink:href="_blood_vessel_8h.html" target="_top" xlink:title="model::BloodVessel source file">
<polygon fill="white" stroke="#666666" points="1246.75,-318 1139.25,-318 1139.25,-298.75 1246.75,-298.75 1246.75,-318"/>
<text text-anchor="middle" x="1193" y="-304.5" font-family="Helvetica,sans-Serif" font-size="10.00">model/BloodVessel.h</text>
</a>
</g>
</g>
<!-- Node2&#45;&gt;Node14 -->
<g id="edge19_Node000002_Node000014" class="edge">
<title>Node2&#45;&gt;Node14</title>
<g id="a_edge19_Node000002_Node000014"><a xlink:title=" ">
<path fill="none" stroke="#63b8ff" d="M959.22,-353.21C1011.59,-343.39 1093.09,-328.11 1144.72,-318.43"/>
<polygon fill="#63b8ff" stroke="#63b8ff" points="958.86,-349.71 949.68,-355 960.15,-356.59 958.86,-349.71"/>
</a>
</g>
</g>
<!-- Node15 -->
<g id="Node000015" class="node">
<title>Node15</title>
<g id="a_Node000015"><a xlink:href="_blood_vessel_junction_8h.html" target="_top" xlink:title="model::BloodVesselJunction source file">
<polygon fill="white" stroke="#666666" points="1441.12,-262.75 1296.88,-262.75 1296.88,-243.5 1441.12,-243.5 1441.12,-262.75"/>
<text text-anchor="middle" x="1369" y="-249.25" font-family="Helvetica,sans-Serif" font-size="10.00">model/BloodVesselJunction.h</text>
</a>
</g>
</g>
<!-- Node2&#45;&gt;Node15 -->
<g id="edge26_Node000002_Node000015" class="edge">
<title>Node2&#45;&gt;Node15</title>
<g id="a_edge26_Node000002_Node000015"><a xlink:title=" ">
<path fill="none" stroke="#63b8ff" d="M959.41,-362.17C1028.16,-360.21 1154.39,-351.81 1256,-318 1266.32,-314.57 1325.3,-280.01 1353.71,-263.2"/>
<polygon fill="#63b8ff" stroke="#63b8ff" points="959.5,-358.67 949.59,-362.41 959.67,-365.67 959.5,-358.67"/>
</a>
</g>
</g>
<!-- Node16 -->
<g id="Node000016" class="node">
<title>Node16</title>
<g id="a_Node000016"><a xlink:href="_blood_vessel_c_r_l_8h.html" target="_top" xlink:title="model::BloodVesselCRL source file">
<polygon fill="white" stroke="#666666" points="1430.5,-318 1303.5,-318 1303.5,-298.75 1430.5,-298.75 1430.5,-318"/>
<text text-anchor="middle" x="1367" y="-304.5" font-family="Helvetica,sans-Serif" font-size="10.00">model/BloodVesselCRL.h</text>
</a>
</g>
</g>
<!-- Node2&#45;&gt;Node16 -->
<g id="edge23_Node000002_Node000016" class="edge">
<title>Node2&#45;&gt;Node16</title>
<g id="a_edge23_Node000002_Node000016"><a xlink:title=" ">
<path fill="none" stroke="#63b8ff" d="M959.3,-356.78C1043.09,-347.03 1211.12,-327.5 1303.15,-316.8"/>
<polygon fill="#63b8ff" stroke="#63b8ff" points="959.08,-353.28 949.55,-357.91 959.89,-360.23 959.08,-353.28"/>
</a>
</g>
</g>
<!-- Node17 -->
<g id="Node000017" class="node">
<title>Node17</title>
<g id="a_Node000017"><a xlink:href="_chamber_sphere_8h.html" target="_top" xlink:title="model::ChamberSphere source file">
<polygon fill="white" stroke="#666666" points="1571.25,-318 1448.75,-318 1448.75,-298.75 1571.25,-298.75 1571.25,-318"/>
<text text-anchor="middle" x="1510" y="-304.5" font-family="Helvetica,sans-Serif" font-size="10.00">model/ChamberSphere.h</text>
</a>
</g>
</g>
<!-- Node2&#45;&gt;Node17 -->
<g id="edge28_Node000002_Node000017" class="edge">
<title>Node2&#45;&gt;Node17</title>
<g id="a_edge28_Node000002_Node000017"><a xlink:title=" ">
<path fill="none" stroke="#63b8ff" d="M959.49,-359.04C1053.94,-352.18 1263.73,-336.26 1440,-318 1442.8,-317.71 1445.66,-317.4 1448.56,-317.08"/>
<polygon fill="#63b8ff" stroke="#63b8ff" points="959.25,-355.54 949.53,-359.76 959.76,-362.53 959.25,-355.54"/>
</a>
</g>
</g>
<!-- Node18 -->
<g id="Node000018" class="node">
<title>Node18</title>
<g id="a_Node000018"><a xlink:href="_closed_loop_coronary_b_c_8h.html" target="_top" xlink:title="model::ClosedLoopCoronaryBC source file">
<polygon fill="white" stroke="#666666" points="747.12,-262.75 590.88,-262.75 590.88,-243.5 747.12,-243.5 747.12,-262.75"/>
<text text-anchor="middle" x="669" y="-249.25" font-family="Helvetica,sans-Serif" font-size="10.00">model/ClosedLoopCoronaryBC.h</text>
</a>
</g>
</g>
<!-- Node2&#45;&gt;Node18 -->
<g id="edge30_Node000002_Node000018" class="edge">
<title>Node2&#45;&gt;Node18</title>
<g id="a_edge30_Node000002_Node000018"><a xlink:title=" ">
<path fill="none" stroke="#63b8ff" d="M887.3,-347.02C867.03,-332.97 835.55,-312.48 806,-298.75 772.88,-283.36 732.98,-271.01 704.8,-263.24"/>
<polygon fill="#63b8ff" stroke="#63b8ff" points="885.12,-349.76 895.31,-352.65 889.15,-344.04 885.12,-349.76"/>
</a>
</g>
</g>
<!-- Node21 -->
<g id="Node000021" class="node">
<title>Node21</title>
<g id="a_Node000021"><a xlink:href="_closed_loop_heart_pulmonary_8h.html" target="_top" xlink:title="model::ClosedLoopHeartPulmonary source file">
<polygon fill="white" stroke="#666666" points="797.12,-318 622.88,-318 622.88,-298.75 797.12,-298.75 797.12,-318"/>
<text text-anchor="middle" x="710" y="-304.5" font-family="Helvetica,sans-Serif" font-size="10.00">model/ClosedLoopHeartPulmonary.h</text>
</a>
</g>
</g>
<!-- Node2&#45;&gt;Node21 -->
<g id="edge35_Node000002_Node000021" class="edge">
<title>Node2&#45;&gt;Node21</title>
<g id="a_edge35_Node000002_Node000021"><a xlink:title=" ">
<path fill="none" stroke="#63b8ff" d="M864.42,-350.7C827.95,-340.94 777.14,-327.34 743.92,-318.45"/>
<polygon fill="#63b8ff" stroke="#63b8ff" points="863.22,-354 873.78,-353.2 865.02,-347.23 863.22,-354"/>
</a>
</g>
</g>
<!-- Node22 -->
<g id="Node000022" class="node">
<title>Node22</title>
<g id="a_Node000022"><a xlink:href="_closed_loop_r_c_r_b_c_8h.html" target="_top" xlink:title="model::ClosedLoopRCRBC source file">
<polygon fill="white" stroke="#666666" points="204.12,-262.75 65.88,-262.75 65.88,-243.5 204.12,-243.5 204.12,-262.75"/>
<text text-anchor="middle" x="135" y="-249.25" font-family="Helvetica,sans-Serif" font-size="10.00">model/ClosedLoopRCRBC.h</text>
</a>
</g>
</g>
<!-- Node2&#45;&gt;Node22 -->
<g id="edge38_Node000002_Node000022" class="edge">
<title>Node2&#45;&gt;Node22</title>
<g id="a_edge38_Node000002_Node000022"><a xlink:title=" ">
<path fill="none" stroke="#63b8ff" d="M858.42,-363.15C719.61,-363.99 335.24,-362.16 218,-318 186.35,-306.08 156.88,-277.76 143.12,-263.17"/>
<polygon fill="#63b8ff" stroke="#63b8ff" points="858.43,-366.65 868.41,-363.08 858.39,-359.65 858.43,-366.65"/>
</a>
</g>
</g>
<!-- Node23 -->
<g id="Node000023" class="node">
<title>Node23</title>
<g id="a_Node000023"><a xlink:href="_flow_reference_b_c_8h.html" target="_top" xlink:title="model::FlowReferenceBC source file">
<polygon fill="white" stroke="#666666" points="241.75,-201.88 110.25,-201.88 110.25,-182.62 241.75,-182.62 241.75,-201.88"/>
<text text-anchor="middle" x="176" y="-188.38" font-family="Helvetica,sans-Serif" font-size="10.00">model/FlowReferenceBC.h</text>
</a>
</g>
</g>
<!-- Node2&#45;&gt;Node23 -->
<g id="edge40_Node000002_Node000023" class="edge">
<title>Node2&#45;&gt;Node23</title>
<g id="a_edge40_Node000002_Node000023"><a xlink:title=" ">
<path fill="none" stroke="#63b8ff" d="M858.9,-362.04C713.95,-359.98 301.3,-351.2 251,-318 219.98,-297.52 232.53,-275.13 213,-243.5 203.67,-228.38 191.11,-212.01 183.28,-202.2"/>
<polygon fill="#63b8ff" stroke="#63b8ff" points="858.51,-365.54 868.56,-362.18 858.61,-358.54 858.51,-365.54"/>
</a>
</g>
</g>
<!-- Node24 -->
<g id="Node000024" class="node">
<title>Node24</title>
<g id="a_Node000024"><a xlink:href="_junction_8h.html" target="_top" xlink:title="model::Junction source file">
<polygon fill="white" stroke="#666666" points="349.75,-318 260.25,-318 260.25,-298.75 349.75,-298.75 349.75,-318"/>
<text text-anchor="middle" x="305" y="-304.5" font-family="Helvetica,sans-Serif" font-size="10.00">model/Junction.h</text>
</a>
</g>
</g>
<!-- Node2&#45;&gt;Node24 -->
<g id="edge42_Node000002_Node000024" class="edge">
<title>Node2&#45;&gt;Node24</title>
<g id="a_edge42_Node000002_Node000024"><a xlink:title=" ">
<path fill="none" stroke="#63b8ff" d="M858.51,-359.57C762.18,-353.49 545.55,-338.68 364,-318 359.47,-317.48 354.76,-316.89 350.06,-316.26"/>
<polygon fill="#63b8ff" stroke="#63b8ff" points="858.22,-363.05 868.42,-360.19 858.65,-356.07 858.22,-363.05"/>
</a>
</g>
</g>
<!-- Node25 -->
<g id="Node000025" class="node">
<title>Node25</title>
<g id="a_Node000025"><a xlink:href="_open_loop_coronary_b_c_8h.html" target="_top" xlink:title="model::OpenLoopCoronaryBC source file">
<polygon fill="white" stroke="#666666" points="447.75,-201.88 298.25,-201.88 298.25,-182.62 447.75,-182.62 447.75,-201.88"/>
<text text-anchor="middle" x="373" y="-188.38" font-family="Helvetica,sans-Serif" font-size="10.00">model/OpenLoopCoronaryBC.h</text>
</a>
</g>
</g>
<!-- Node2&#45;&gt;Node25 -->
<g id="edge46_Node000002_Node000025" class="edge">
<title>Node2&#45;&gt;Node25</title>
<g id="a_edge46_Node000002_Node000025"><a xlink:title=" ">
<path fill="none" stroke="#63b8ff" d="M858.64,-361.46C751.87,-358.43 506.26,-348.29 429,-318 391.45,-303.28 374.84,-298.93 357,-262.75 347.03,-242.54 359.33,-215.94 367.26,-202.25"/>
<polygon fill="#63b8ff" stroke="#63b8ff" points="858.44,-364.96 868.53,-361.73 858.63,-357.96 858.44,-364.96"/>
</a>
</g>
</g>
<!-- Node26 -->
<g id="Node000026" class="node">
<title>Node26</title>
<g id="a_Node000026"><a xlink:href="_piecewise_valve_8h.html" target="_top" xlink:title="model::PiecewiseValve source file">
<polygon fill="white" stroke="#666666" points="488.25,-262.75 365.75,-262.75 365.75,-243.5 488.25,-243.5 488.25,-262.75"/>
<text text-anchor="middle" x="427" y="-249.25" font-family="Helvetica,sans-Serif" font-size="10.00">model/PiecewiseValve.h</text>
</a>
</g>
</g>
<!-- Node2&#45;&gt;Node26 -->
<g id="edge48_Node000002_Node000026" class="edge">
<title>Node2&#45;&gt;Node26</title>
<g id="a_edge48_Node000002_Node000026"><a xlink:title=" ">
<path fill="none" stroke="#63b8ff" d="M858.63,-360.91C745.24,-356.61 477.35,-343.81 446,-318 429.57,-304.47 426.94,-277.39 426.76,-263.23"/>
<polygon fill="#63b8ff" stroke="#63b8ff" points="858.44,-364.41 868.56,-361.28 858.7,-357.41 858.44,-364.41"/>
</a>
</g>
</g>
<!-- Node27 -->
<g id="Node000027" class="node">
<title>Node27</title>
<g id="a_Node000027"><a xlink:href="_pressure_reference_b_c_8h.html" target="_top" xlink:title="model::PressureReferenceBC source file">
<polygon fill="white" stroke="#666666" points="604.75,-318 455.25,-318 455.25,-298.75 604.75,-298.75 604.75,-318"/>
<text text-anchor="middle" x="530" y="-304.5" font-family="Helvetica,sans-Serif" font-size="10.00">model/PressureReferenceBC.h</text>
</a>
</g>
</g>
<!-- Node2&#45;&gt;Node27 -->
<g id="edge50_Node000002_Node000027" class="edge">
<title>Node2&#45;&gt;Node27</title>
<g id="a_edge50_Node000002_Node000027"><a xlink:title=" ">
<path fill="none" stroke="#63b8ff" d="M858.62,-355.55C790.63,-345.99 669.43,-328.97 594.75,-318.47"/>
<polygon fill="#63b8ff" stroke="#63b8ff" points="857.98,-358.99 868.37,-356.92 858.95,-352.06 857.98,-358.99"/>
</a>
</g>
</g>
<!-- Node28 -->
<g id="Node000028" class="node">
<title>Node28</title>
<g id="a_Node000028"><a xlink:href="_resistance_b_c_8h.html" target="_top" xlink:title="model::ResistanceBC source file">
<polygon fill="white" stroke="#666666" points="880.5,-262.75 765.5,-262.75 765.5,-243.5 880.5,-243.5 880.5,-262.75"/>
<text text-anchor="middle" x="823" y="-249.25" font-family="Helvetica,sans-Serif" font-size="10.00">model/ResistanceBC.h</text>
</a>
</g>
</g>
<!-- Node2&#45;&gt;Node28 -->
<g id="edge52_Node000002_Node000028" class="edge">
<title>Node2&#45;&gt;Node28</title>
<g id="a_edge52_Node000002_Node000028"><a xlink:title=" ">
<path fill="none" stroke="#63b8ff" d="M894.91,-344.85C876.33,-321.41 844.33,-281.03 830.13,-263.13"/>
<polygon fill="#63b8ff" stroke="#63b8ff" points="892.07,-346.9 901.02,-352.56 897.55,-342.55 892.07,-346.9"/>
</a>
</g>
</g>
<!-- Node29 -->
<g id="Node000029" class="node">
<title>Node29</title>
<g id="a_Node000029"><a xlink:href="_resistive_junction_8h.html" target="_top" xlink:title="model::ResistiveJunction source file">
<polygon fill="white" stroke="#666666" points="1055,-201.88 925,-201.88 925,-182.62 1055,-182.62 1055,-201.88"/>
<text text-anchor="middle" x="990" y="-188.38" font-family="Helvetica,sans-Serif" font-size="10.00">model/ResistiveJunction.h</text>
</a>
</g>
</g>
<!-- Node2&#45;&gt;Node29 -->
<g id="edge54_Node000002_Node000029" class="edge">
<title>Node2&#45;&gt;Node29</title>
<g id="a_edge54_Node000002_Node000029"><a xlink:title=" ">
<path fill="none" stroke="#63b8ff" d="M907.97,-342.27C907.62,-317.32 910.07,-274.54 928,-243.5 938.54,-225.26 958.42,-210.97 972.83,-202.36"/>
<polygon fill="#63b8ff" stroke="#63b8ff" points="904.46,-342.15 908.29,-352.03 911.46,-341.92 904.46,-342.15"/>
</a>
</g>
</g>
<!-- Node30 -->
<g id="Node000030" class="node">
<title>Node30</title>
<g id="a_Node000030"><a xlink:href="_valve_tanh_8h.html" target="_top" xlink:title="model::ValveTanh source file">
<polygon fill="white" stroke="#666666" points="1036.62,-262.75 937.38,-262.75 937.38,-243.5 1036.62,-243.5 1036.62,-262.75"/>
<text text-anchor="middle" x="987" y="-249.25" font-family="Helvetica,sans-Serif" font-size="10.00">model/ValveTanh.h</text>
</a>
</g>
</g>
<!-- Node2&#45;&gt;Node30 -->
<g id="edge56_Node000002_Node000030" class="edge">
<title>Node2&#45;&gt;Node30</title>
<g id="a_edge56_Node000002_Node000030"><a xlink:title=" ">
<path fill="none" stroke="#63b8ff" d="M922,-344.54C938.89,-321.05 967.71,-280.95 980.53,-263.13"/>
<polygon fill="#63b8ff" stroke="#63b8ff" points="919.26,-342.35 916.27,-352.52 924.95,-346.44 919.26,-342.35"/>
</a>
</g>
</g>
<!-- Node31 -->
<g id="Node000031" class="node">
<title>Node31</title>
<g id="a_Node000031"><a xlink:href="_windkessel_b_c_8h.html" target="_top" xlink:title="model::WindkesselBC source file">
<polygon fill="white" stroke="#666666" points="1227.25,-201.88 1110.75,-201.88 1110.75,-182.62 1227.25,-182.62 1227.25,-201.88"/>
<text text-anchor="middle" x="1169" y="-188.38" font-family="Helvetica,sans-Serif" font-size="10.00">model/WindkesselBC.h</text>
</a>
</g>
</g>
<!-- Node2&#45;&gt;Node31 -->
<g id="edge58_Node000002_Node000031" class="edge">
<title>Node2&#45;&gt;Node31</title>
<g id="a_edge58_Node000002_Node000031"><a xlink:title=" ">
<path fill="none" stroke="#63b8ff" d="M930.66,-347.22C963.44,-324.07 1027.77,-279.21 1084,-243.5 1107.73,-228.43 1135.94,-212.04 1153.15,-202.22"/>
<polygon fill="#63b8ff" stroke="#63b8ff" points="928.92,-344.16 922.79,-352.8 932.97,-349.88 928.92,-344.16"/>
</a>
</g>
</g>
<!-- Node3&#45;&gt;Node4 -->
<g id="edge3_Node000003_Node000004" class="edge">
<title>Node3&#45;&gt;Node4</title>
<g id="a_edge3_Node000003_Node000004"><a xlink:title=" ">
<path fill="none" stroke="#63b8ff" d="M1196.25,-238.86C1211.67,-232.09 1227.04,-222.09 1236,-207.5 1243.09,-195.95 1244.83,-187.28 1236,-177 1203.81,-139.53 1055.09,-133.17 982.75,-132.32"/>
<polygon fill="#63b8ff" stroke="#63b8ff" points="1195.07,-235.56 1187.06,-242.49 1197.64,-242.07 1195.07,-235.56"/>
</a>
</g>
</g>
<!-- Node5 -->
<g id="Node000005" class="node">
<title>Node5</title>
<g id="a_Node000005"><a xlink:href="_integrator_8h.html" target="_top" xlink:title="Integrator source file.">
<polygon fill="white" stroke="#666666" points="1179.62,-80.12 1080.38,-80.12 1080.38,-60.88 1179.62,-60.88 1179.62,-80.12"/>
<text text-anchor="middle" x="1130" y="-66.62" font-family="Helvetica,sans-Serif" font-size="10.00">algebra/Integrator.h</text>
</a>
</g>
</g>
<!-- Node4&#45;&gt;Node5 -->
<g id="edge4_Node000004_Node000005" class="edge">
<title>Node4&#45;&gt;Node5</title>
<g id="a_edge4_Node000004_Node000005"><a xlink:title=" ">
<path fill="none" stroke="#63b8ff" d="M982.74,-117.86C1018.26,-106.68 1069.44,-90.57 1101.16,-80.58"/>
<polygon fill="#63b8ff" stroke="#63b8ff" points="981.74,-114.51 973.25,-120.85 983.84,-121.19 981.74,-114.51"/>
</a>
</g>
</g>
<!-- Node6 -->
<g id="Node000006" class="node">
<title>Node6</title>
<g id="a_Node000006"><a xlink:href="interface_8h.html" target="_top" xlink:title="svZeroDSolver callable interface.">
<polygon fill="white" stroke="#666666" points="785.75,-19.25 684.25,-19.25 684.25,0 785.75,0 785.75,-19.25"/>
<text text-anchor="middle" x="735" y="-5.75" font-family="Helvetica,sans-Serif" font-size="10.00">interface/interface.h</text>
</a>
</g>
</g>
<!-- Node4&#45;&gt;Node6 -->
<g id="edge7_Node000004_Node000006" class="edge">
<title>Node4&#45;&gt;Node6</title>
<g id="a_edge7_Node000004_Node000006"><a xlink:title=" ">
<path fill="none" stroke="#63b8ff" d="M891.79,-129.27C822.85,-126.57 705.7,-117.34 679,-85.75 670.25,-75.4 673.12,-67.46 679,-55.25 686.72,-39.23 703.29,-27.19 716.41,-19.67"/>
<polygon fill="#63b8ff" stroke="#63b8ff" points="891.62,-132.77 901.74,-129.62 891.87,-125.77 891.62,-132.77"/>
</a>
</g>
</g>
<!-- Node7 -->
<g id="Node000007" class="node">
<title>Node7</title>
<g id="a_Node000007"><a xlink:href="_solver_8h.html" target="_top" xlink:title="Solver source file.">
<polygon fill="white" stroke="#666666" points="1246.75,-19.25 1169.25,-19.25 1169.25,0 1246.75,0 1246.75,-19.25"/>
<text text-anchor="middle" x="1208" y="-5.75" font-family="Helvetica,sans-Serif" font-size="10.00">solve/Solver.h</text>
</a>
</g>
</g>
<!-- Node4&#45;&gt;Node7 -->
<g id="edge16_Node000004_Node000007" class="edge">
<title>Node4&#45;&gt;Node7</title>
<g id="a_edge16_Node000004_Node000007"><a xlink:title=" ">
<path fill="none" stroke="#63b8ff" d="M994.14,-127.5C1057.76,-122.87 1161.41,-111.51 1189,-85.75 1207.68,-68.3 1209.1,-35.37 1208.59,-19.55"/>
<polygon fill="#63b8ff" stroke="#63b8ff" points="993.99,-124 984.26,-128.18 994.48,-130.98 993.99,-124"/>
</a>
</g>
</g>
<!-- Node4&#45;&gt;Node8 -->
<g id="edge8_Node000004_Node000008" class="edge">
<title>Node4&#45;&gt;Node8</title>
<g id="a_edge8_Node000004_Node000008"><a xlink:title=" ">
<path fill="none" stroke="#63b8ff" d="M994.25,-121.62C1062.6,-110.61 1183.36,-91.79 1257.43,-80.62"/>
<polygon fill="#63b8ff" stroke="#63b8ff" points="993.74,-118.16 984.43,-123.21 994.86,-125.07 993.74,-118.16"/>
</a>
</g>
</g>
<!-- Node4&#45;&gt;Node9 -->
<g id="edge10_Node000004_Node000009" class="edge">
<title>Node4&#45;&gt;Node9</title>
<g id="a_edge10_Node000004_Node000009"><a xlink:title=" ">
<path fill="none" stroke="#63b8ff" d="M891.85,-126.42C770.42,-116.62 464.29,-91.16 317.23,-78.65"/>
<polygon fill="#63b8ff" stroke="#63b8ff" points="891.26,-129.88 901.51,-127.19 891.82,-122.9 891.26,-129.88"/>
</a>
</g>
</g>
<!-- Node10 -->
<g id="Node000010" class="node">
<title>Node10</title>
<g id="a_Node000010"><a xlink:href="_levenberg_marquardt_optimizer_8h.html" target="_top" xlink:title="opt::LevenbergMarquardtOptimizer source file">
<polygon fill="white" stroke="#666666" points="945.12,-85.75 800.88,-85.75 800.88,-55.25 945.12,-55.25 945.12,-85.75"/>
<text text-anchor="start" x="808.88" y="-72.25" font-family="Helvetica,sans-Serif" font-size="10.00">optimize/LevenbergMarquardt</text>
<text text-anchor="middle" x="873" y="-61" font-family="Helvetica,sans-Serif" font-size="10.00">Optimizer.h</text>
</a>
</g>
</g>
<!-- Node4&#45;&gt;Node10 -->
<g id="edge12_Node000004_Node000010" class="edge">
<title>Node4&#45;&gt;Node10</title>
<g id="a_edge12_Node000004_Node000010"><a xlink:title=" ">
<path fill="none" stroke="#63b8ff" d="M923.58,-114.04C913.14,-105.26 900.37,-94.52 890.28,-86.03"/>
<polygon fill="#63b8ff" stroke="#63b8ff" points="921.3,-116.7 931.21,-120.46 925.81,-111.34 921.3,-116.7"/>
</a>
</g>
</g>
<!-- Node11 -->
<g id="Node000011" class="node">
<title>Node11</title>
<g id="a_Node000011"><a xlink:href="calibrate_8h.html" target="_top" xlink:title="opt::calibrate source file">
<polygon fill="white" stroke="#666666" points="1062.62,-80.12 963.38,-80.12 963.38,-60.88 1062.62,-60.88 1062.62,-80.12"/>
<text text-anchor="middle" x="1013" y="-66.62" font-family="Helvetica,sans-Serif" font-size="10.00">optimize/calibrate.h</text>
</a>
</g>
</g>
<!-- Node4&#45;&gt;Node11 -->
<g id="edge13_Node000004_Node000011" class="edge">
<title>Node4&#45;&gt;Node11</title>
<g id="a_edge13_Node000004_Node000011"><a xlink:title=" ">
<path fill="none" stroke="#63b8ff" d="M962.25,-114.19C975.14,-103.34 991.64,-89.46 1002.27,-80.53"/>
<polygon fill="#63b8ff" stroke="#63b8ff" points="960.19,-111.34 954.79,-120.46 964.7,-116.7 960.19,-111.34"/>
</a>
</g>
</g>
<!-- Node4&#45;&gt;Node12 -->
<g id="edge14_Node000004_Node000012" class="edge">
<title>Node4&#45;&gt;Node12</title>
<g id="a_edge14_Node000004_Node000012"><a xlink:title=" ">
<path fill="none" stroke="#63b8ff" d="M994.26,-126.84C1081.09,-120.56 1262.52,-106.18 1415,-85.75 1425.88,-84.29 1437.53,-82.44 1448.53,-80.57"/>
<polygon fill="#63b8ff" stroke="#63b8ff" points="994.14,-123.34 984.41,-127.55 994.64,-130.32 994.14,-123.34"/>
</a>
</g>
</g>
<!-- Node13 -->
<g id="Node000013" class="node">
<title>Node13</title>
<g id="a_Node000013"><a xlink:href="csv__writer_8h.html" target="_top" xlink:title="csv_writer source file">
<polygon fill="white" stroke="#666666" points="782.38,-80.12 687.62,-80.12 687.62,-60.88 782.38,-60.88 782.38,-80.12"/>
<text text-anchor="middle" x="735" y="-66.62" font-family="Helvetica,sans-Serif" font-size="10.00">solve/csv_writer.h</text>
</a>
</g>
</g>
<!-- Node4&#45;&gt;Node13 -->
<g id="edge17_Node000004_Node000013" class="edge">
<title>Node4&#45;&gt;Node13</title>
<g id="a_edge17_Node000004_Node000013"><a xlink:title=" ">
<path fill="none" stroke="#63b8ff" d="M900.07,-118.22C860.53,-107.03 802.75,-90.68 767.08,-80.58"/>
<polygon fill="#63b8ff" stroke="#63b8ff" points="898.92,-121.54 909.5,-120.89 900.83,-114.8 898.92,-121.54"/>
</a>
</g>
</g>
<!-- Node5&#45;&gt;Node6 -->
<g id="edge5_Node000005_Node000006" class="edge">
<title>Node5&#45;&gt;Node6</title>
<g id="a_edge5_Node000005_Node000006"><a xlink:title=" ">
<path fill="none" stroke="#63b8ff" d="M1084.63,-57.85C1080.37,-56.91 1076.11,-56.03 1072,-55.25 971.38,-36.29 852.35,-22.53 786.09,-15.63"/>
<polygon fill="#63b8ff" stroke="#63b8ff" points="1083.78,-61.25 1094.31,-60.1 1085.36,-54.43 1083.78,-61.25"/>
</a>
</g>
</g>
<!-- Node5&#45;&gt;Node7 -->
<g id="edge6_Node000005_Node000007" class="edge">
<title>Node5&#45;&gt;Node7</title>
<g id="a_edge6_Node000005_Node000007"><a xlink:title=" ">
<path fill="none" stroke="#63b8ff" d="M1151.03,-53.63C1165.46,-42.73 1184.09,-28.67 1196.04,-19.65"/>
<polygon fill="#63b8ff" stroke="#63b8ff" points="1148.93,-50.83 1143.05,-59.65 1153.14,-56.42 1148.93,-50.83"/>
</a>
</g>
</g>
<!-- Node8&#45;&gt;Node4 -->
<g id="edge9_Node000008_Node000004" class="edge">
<title>Node8&#45;&gt;Node4</title>
<g id="a_edge9_Node000008_Node000004"><a xlink:title=" ">
<path fill="none" stroke="#63b8ff" d="M1256.4,-82.4C1177.85,-94.97 1047.89,-115.15 982.71,-124.84"/>
<polygon fill="#63b8ff" stroke="#63b8ff" points="1256.78,-85.88 1266.1,-80.84 1255.67,-78.97 1256.78,-85.88"/>
</a>
</g>
</g>
<!-- Node9&#45;&gt;Node4 -->
<g id="edge11_Node000009_Node000004" class="edge">
<title>Node9&#45;&gt;Node4</title>
<g id="a_edge11_Node000009_Node000004"><a xlink:title=" ">
<path fill="none" stroke="#63b8ff" d="M328.64,-78.83C484.59,-91.55 793.11,-117.28 903.03,-126.76"/>
<polygon fill="#63b8ff" stroke="#63b8ff" points="328.98,-75.34 318.73,-78.02 328.42,-82.32 328.98,-75.34"/>
</a>
</g>
</g>
<!-- Node12&#45;&gt;Node7 -->
<g id="edge15_Node000012_Node000007" class="edge">
<title>Node12&#45;&gt;Node7</title>
<g id="a_edge15_Node000012_Node000007"><a xlink:title=" ">
<path fill="none" stroke="#63b8ff" d="M1441.49,-58.19C1384.46,-46.57 1297.13,-28.78 1247.01,-18.57"/>
<polygon fill="#63b8ff" stroke="#63b8ff" points="1440.5,-61.56 1450.99,-60.13 1441.89,-54.7 1440.5,-61.56"/>
</a>
</g>
</g>
<!-- Node13&#45;&gt;Node6 -->
<g id="edge18_Node000013_Node000006" class="edge">
<title>Node13&#45;&gt;Node6</title>
<g id="a_edge18_Node000013_Node000006"><a xlink:title=" ">
<path fill="none" stroke="#63b8ff" d="M735,-49.07C735,-39.04 735,-27.46 735,-19.65"/>
<polygon fill="#63b8ff" stroke="#63b8ff" points="731.5,-49.04 735,-59.04 738.5,-49.04 731.5,-49.04"/>
</a>
</g>
</g>
<!-- Node14&#45;&gt;Node4 -->
<g id="edge22_Node000014_Node000004" class="edge">
<title>Node14&#45;&gt;Node4</title>
<g id="a_edge22_Node000014_Node000004"><a xlink:title=" ">
<path fill="none" stroke="#63b8ff" d="M1220.63,-292.68C1248.41,-276.16 1289.53,-246.46 1307,-207.5 1312.55,-195.13 1315.98,-187.15 1307,-177 1285.77,-153.01 1072.97,-139.16 982.91,-134.33"/>
<polygon fill="#63b8ff" stroke="#63b8ff" points="1218.97,-289.6 1212.03,-297.61 1222.45,-295.68 1218.97,-289.6"/>
</a>
</g>
</g>
<!-- Node14&#45;&gt;Node15 -->
<g id="edge20_Node000014_Node000015" class="edge">
<title>Node14&#45;&gt;Node15</title>
<g id="a_edge20_Node000014_Node000015"><a xlink:title=" ">
<path fill="none" stroke="#63b8ff" d="M1233.69,-295.07C1265.84,-285.34 1310,-271.98 1339,-263.2"/>
<polygon fill="#63b8ff" stroke="#63b8ff" points="1232.86,-291.66 1224.3,-297.9 1234.89,-298.36 1232.86,-291.66"/>
</a>
</g>
</g>
<!-- Node15&#45;&gt;Node4 -->
<g id="edge21_Node000015_Node000004" class="edge">
<title>Node15&#45;&gt;Node4</title>
<g id="a_edge21_Node000015_Node000004"><a xlink:title=" ">
<path fill="none" stroke="#63b8ff" d="M1368.31,-231.58C1366.56,-214.24 1361.12,-190.2 1345,-177 1317.32,-154.34 1079.05,-139.48 982.94,-134.36"/>
<polygon fill="#63b8ff" stroke="#63b8ff" points="1364.82,-231.74 1368.95,-241.5 1371.8,-231.29 1364.82,-231.74"/>
</a>
</g>
</g>
<!-- Node16&#45;&gt;Node4 -->
<g id="edge25_Node000016_Node000004" class="edge">
<title>Node16&#45;&gt;Node4</title>
<g id="a_edge25_Node000016_Node000004"><a xlink:title=" ">
<path fill="none" stroke="#63b8ff" d="M1411.16,-294.15C1426.17,-287.3 1441.34,-277.24 1450,-262.75 1480.76,-211.29 1420.7,-198.85 1368,-177 1298.87,-148.34 1074.74,-137.14 982.85,-133.68"/>
<polygon fill="#63b8ff" stroke="#63b8ff" points="1410.18,-290.76 1402.27,-297.81 1412.84,-297.24 1410.18,-290.76"/>
</a>
</g>
</g>
<!-- Node16&#45;&gt;Node15 -->
<g id="edge24_Node000016_Node000015" class="edge">
<title>Node16&#45;&gt;Node15</title>
<g id="a_edge24_Node000016_Node000015"><a xlink:title=" ">
<path fill="none" stroke="#63b8ff" d="M1367.76,-287.13C1368.07,-278.84 1368.42,-269.67 1368.66,-263.11"/>
<polygon fill="#63b8ff" stroke="#63b8ff" points="1364.26,-286.95 1367.39,-297.07 1371.26,-287.21 1364.26,-286.95"/>
</a>
</g>
</g>
<!-- Node17&#45;&gt;Node4 -->
<g id="edge29_Node000017_Node000004" class="edge">
<title>Node17&#45;&gt;Node4</title>
<g id="a_edge29_Node000017_Node000004"><a xlink:title=" ">
<path fill="none" stroke="#63b8ff" d="M1502.62,-287.93C1490.11,-258.05 1461.68,-201.71 1417,-177 1342.77,-135.95 1082.88,-132.04 982.75,-132.1"/>
<polygon fill="#63b8ff" stroke="#63b8ff" points="1499.23,-288.9 1506.19,-296.89 1505.74,-286.3 1499.23,-288.9"/>
</a>
</g>
</g>
<!-- Node19 -->
<g id="Node000019" class="node">
<title>Node19</title>
<g id="a_Node000019"><a xlink:href="_closed_loop_coronary_left_b_c_8h.html" target="_top" xlink:title="Left side of ClosedLoopCoronaryBC.">
<polygon fill="white" stroke="#666666" points="715.62,-207.5 580.38,-207.5 580.38,-177 715.62,-177 715.62,-207.5"/>
<text text-anchor="start" x="588.38" y="-194" font-family="Helvetica,sans-Serif" font-size="10.00">model/ClosedLoopCoronary</text>
<text text-anchor="middle" x="648" y="-182.75" font-family="Helvetica,sans-Serif" font-size="10.00">LeftBC.h</text>
</a>
</g>
</g>
<!-- Node18&#45;&gt;Node19 -->
<g id="edge31_Node000018_Node000019" class="edge">
<title>Node18&#45;&gt;Node19</title>
<g id="a_edge31_Node000018_Node000019"><a xlink:title=" ">
<path fill="none" stroke="#63b8ff" d="M661.99,-232.48C659.11,-224.41 655.84,-215.23 653.18,-207.78"/>
<polygon fill="#63b8ff" stroke="#63b8ff" points="658.65,-233.51 665.3,-241.76 665.24,-231.16 658.65,-233.51"/>
</a>
</g>
</g>
<!-- Node20 -->
<g id="Node000020" class="node">
<title>Node20</title>
<g id="a_Node000020"><a xlink:href="_closed_loop_coronary_right_b_c_8h.html" target="_top" xlink:title="Right side of ClosedLoopCoronaryBC.">
<polygon fill="white" stroke="#666666" points="868.62,-207.5 733.38,-207.5 733.38,-177 868.62,-177 868.62,-207.5"/>
<text text-anchor="start" x="741.38" y="-194" font-family="Helvetica,sans-Serif" font-size="10.00">model/ClosedLoopCoronary</text>
<text text-anchor="middle" x="801" y="-182.75" font-family="Helvetica,sans-Serif" font-size="10.00">RightBC.h</text>
</a>
</g>
</g>
<!-- Node18&#45;&gt;Node20 -->
<g id="edge33_Node000018_Node000020" class="edge">
<title>Node18&#45;&gt;Node20</title>
<g id="a_edge33_Node000018_Node000020"><a xlink:title=" ">
<path fill="none" stroke="#63b8ff" d="M699.69,-238.44C720.18,-229.3 747.11,-217.29 768.05,-207.94"/>
<polygon fill="#63b8ff" stroke="#63b8ff" points="698.43,-235.17 690.72,-242.44 701.28,-241.56 698.43,-235.17"/>
</a>
</g>
</g>
<!-- Node19&#45;&gt;Node4 -->
<g id="edge32_Node000019_Node000004" class="edge">
<title>Node19&#45;&gt;Node4</title>
<g id="a_edge32_Node000019_Node000004"><a xlink:title=" ">
<path fill="none" stroke="#63b8ff" d="M727.19,-175.45C784.12,-164.08 858.47,-149.24 903.38,-140.28"/>
<polygon fill="#63b8ff" stroke="#63b8ff" points="726.66,-171.98 717.53,-177.37 728.03,-178.85 726.66,-171.98"/>
</a>
</g>
</g>
<!-- Node20&#45;&gt;Node4 -->
<g id="edge34_Node000020_Node000004" class="edge">
<title>Node20&#45;&gt;Node4</title>
<g id="a_edge34_Node000020_Node000004"><a xlink:title=" ">
<path fill="none" stroke="#63b8ff" d="M846.82,-172.25C871.78,-161.91 901.49,-149.58 921.22,-141.4"/>
<polygon fill="#63b8ff" stroke="#63b8ff" points="845.76,-168.9 837.86,-175.97 848.44,-175.37 845.76,-168.9"/>
</a>
</g>
</g>
<!-- Node21&#45;&gt;Node4 -->
<g id="edge37_Node000021_Node000004" class="edge">
<title>Node21&#45;&gt;Node4</title>
<g id="a_edge37_Node000021_Node000004"><a xlink:title=" ">
<path fill="none" stroke="#63b8ff" d="M634.09,-294.98C614.67,-288.38 595.49,-278.26 582,-262.75 556.78,-233.76 545.5,-205.74 571,-177 592.8,-152.43 811.81,-138.85 903.24,-134.21"/>
<polygon fill="#63b8ff" stroke="#63b8ff" points="632.83,-298.26 643.42,-297.85 634.89,-291.57 632.83,-298.26"/>
</a>
</g>
</g>
<!-- Node21&#45;&gt;Node18 -->
<g id="edge36_Node000021_Node000018" class="edge">
<title>Node21&#45;&gt;Node18</title>
<g id="a_edge36_Node000021_Node000018"><a xlink:title=" ">
<path fill="none" stroke="#63b8ff" d="M696.41,-289.72C689.54,-280.81 681.51,-270.37 675.92,-263.11"/>
<polygon fill="#63b8ff" stroke="#63b8ff" points="693.43,-291.59 702.31,-297.38 698.98,-287.32 693.43,-291.59"/>
</a>
</g>
</g>
<!-- Node22&#45;&gt;Node4 -->
<g id="edge39_Node000022_Node000004" class="edge">
<title>Node22&#45;&gt;Node4</title>
<g id="a_edge39_Node000022_Node000004"><a xlink:title=" ">
<path fill="none" stroke="#63b8ff" d="M117.2,-234.94C102.17,-218.38 85.37,-193.48 101,-177 128.91,-147.58 739.55,-135.65 903.04,-132.98"/>
<polygon fill="#63b8ff" stroke="#63b8ff" points="114.64,-237.32 124.11,-242.08 119.68,-232.46 114.64,-237.32"/>
</a>
</g>
</g>
<!-- Node23&#45;&gt;Node4 -->
<g id="edge41_Node000023_Node000004" class="edge">
<title>Node23&#45;&gt;Node4</title>
<g id="a_edge41_Node000023_Node000004"><a xlink:title=" ">
<path fill="none" stroke="#63b8ff" d="M233.1,-180.28C240.78,-179.04 248.57,-177.9 256,-177 501.02,-147.31 797.76,-136.48 903.36,-133.41"/>
<polygon fill="#63b8ff" stroke="#63b8ff" points="232.75,-176.79 223.47,-181.9 233.91,-183.69 232.75,-176.79"/>
</a>
</g>
</g>
<!-- Node24&#45;&gt;Node4 -->
<g id="edge43_Node000024_Node000004" class="edge">
<title>Node24&#45;&gt;Node4</title>
<g id="a_edge43_Node000024_Node000004"><a xlink:title=" ">
<path fill="none" stroke="#63b8ff" d="M294.44,-288.15C280.5,-259.88 260.82,-207.17 289,-177 330.95,-132.09 767.7,-131.2 903.16,-132.01"/>
<polygon fill="#63b8ff" stroke="#63b8ff" points="291.32,-289.73 299.04,-296.98 297.53,-286.5 291.32,-289.73"/>
</a>
</g>
</g>
<!-- Node25&#45;&gt;Node4 -->
<g id="edge47_Node000025_Node000004" class="edge">
<title>Node25&#45;&gt;Node4</title>
<g id="a_edge47_Node000025_Node000004"><a xlink:title=" ">
<path fill="none" stroke="#63b8ff" d="M437.31,-180.44C445.6,-179.19 453.99,-178.01 462,-177 625.29,-156.38 820.9,-141.15 903.31,-135.16"/>
<polygon fill="#63b8ff" stroke="#63b8ff" points="436.95,-176.95 427.59,-181.93 438.01,-183.87 436.95,-176.95"/>
</a>
</g>
</g>
<!-- Node26&#45;&gt;Node4 -->
<g id="edge49_Node000026_Node000004" class="edge">
<title>Node26&#45;&gt;Node4</title>
<g id="a_edge49_Node000026_Node000004"><a xlink:title=" ">
<path fill="none" stroke="#63b8ff" d="M438.92,-233.86C451.7,-216 473.72,-189.7 500,-177 570.73,-142.83 808.39,-134.79 903.33,-132.93"/>
<polygon fill="#63b8ff" stroke="#63b8ff" points="436.13,-231.76 433.37,-241.99 441.9,-235.71 436.13,-231.76"/>
</a>
</g>
</g>
<!-- Node27&#45;&gt;Node4 -->
<g id="edge51_Node000027_Node000004" class="edge">
<title>Node27&#45;&gt;Node4</title>
<g id="a_edge51_Node000027_Node000004"><a xlink:title=" ">
<path fill="none" stroke="#63b8ff" d="M526.93,-287.37C523.74,-258.48 522.82,-205.4 553,-177 578.19,-153.3 808.66,-139.13 903.01,-134.27"/>
<polygon fill="#63b8ff" stroke="#63b8ff" points="523.41,-287.5 528.2,-296.96 530.35,-286.58 523.41,-287.5"/>
</a>
</g>
</g>
<!-- Node28&#45;&gt;Node4 -->
<g id="edge53_Node000028_Node000004" class="edge">
<title>Node28&#45;&gt;Node4</title>
<g id="a_edge53_Node000028_Node000004"><a xlink:title=" ">
<path fill="none" stroke="#63b8ff" d="M844.25,-236.3C854.77,-228.12 867.45,-217.72 878,-207.5 901.04,-185.18 924.91,-155.63 936.25,-141.15"/>
<polygon fill="#63b8ff" stroke="#63b8ff" points="842.34,-233.36 836.52,-242.21 846.59,-238.92 842.34,-233.36"/>
</a>
</g>
</g>
<!-- Node29&#45;&gt;Node4 -->
<g id="edge55_Node000029_Node000004" class="edge">
<title>Node29&#45;&gt;Node4</title>
<g id="a_edge55_Node000029_Node000004"><a xlink:title=" ">
<path fill="none" stroke="#63b8ff" d="M975.8,-173.46C967.35,-162.88 956.99,-149.9 950.21,-141.4"/>
<polygon fill="#63b8ff" stroke="#63b8ff" points="972.94,-175.49 981.92,-181.13 978.41,-171.13 972.94,-175.49"/>
</a>
</g>
</g>
<!-- Node30&#45;&gt;Node4 -->
<g id="edge57_Node000030_Node000004" class="edge">
<title>Node30&#45;&gt;Node4</title>
<g id="a_edge57_Node000030_Node000004"><a xlink:title=" ">
<path fill="none" stroke="#63b8ff" d="M1027.14,-238.62C1041.38,-231.67 1055.87,-221.61 1064,-207.5 1070.77,-195.75 1071.75,-188.12 1064,-177 1045.82,-150.92 1010.58,-140.04 982.8,-135.52"/>
<polygon fill="#63b8ff" stroke="#63b8ff" points="1026.03,-235.28 1018.3,-242.53 1028.86,-241.68 1026.03,-235.28"/>
</a>
</g>
</g>
<!-- Node31&#45;&gt;Node4 -->
<g id="edge59_Node000031_Node000004" class="edge">
<title>Node31&#45;&gt;Node4</title>
<g id="a_edge59_Node000031_Node000004"><a xlink:title=" ">
<path fill="none" stroke="#63b8ff" d="M1123.18,-179.31C1080.2,-168.12 1016.86,-151.62 977.86,-141.46"/>
<polygon fill="#63b8ff" stroke="#63b8ff" points="1122.16,-182.66 1132.72,-181.8 1123.92,-175.89 1122.16,-182.66"/>
</a>
</g>
</g>
</g>
</svg>
