<?xml version="1.0" encoding="UTF-8" standalone="no"?>
<!DOCTYPE svg PUBLIC "-//W3C//DTD SVG 1.1//EN"
 "http://www.w3.org/Graphics/SVG/1.1/DTD/svg11.dtd">
<!-- Generated by graphviz version 12.2.1 (20241206.2353)
 -->
<!-- Title: model/ActivationFunction.h Pages: 1 -->
<svg width="2073pt" height="448pt"
 viewBox="0.00 0.00 2073.00 447.75" xmlns="http://www.w3.org/2000/svg" xmlns:xlink="http://www.w3.org/1999/xlink">
<g id="graph0" class="graph" transform="scale(1 1) rotate(0) translate(4 443.75)">
<title>model/ActivationFunction.h</title>
<!-- Node1 -->
<g id="Node000001" class="node">
<title>Node1</title>
<g id="a_Node000001"><a xlink:title="Activation function classes for cardiac chamber models.">
<polygon fill="#999999" stroke="#666666" points="1522.88,-439.75 1389.12,-439.75 1389.12,-420.5 1522.88,-420.5 1522.88,-439.75"/>
<text text-anchor="middle" x="1456" y="-426.25" font-family="Helvetica,sans-Serif" font-size="10.00">model/ActivationFunction.h</text>
</a>
</g>
</g>
<!-- Node2 -->
<g id="Node000002" class="node">
<title>Node2</title>
<g id="a_Node000002"><a xlink:href="_block_8h.html" target="_top" xlink:title="model::Block source file">
<polygon fill="white" stroke="#666666" points="1085.75,-384.5 1008.25,-384.5 1008.25,-365.25 1085.75,-365.25 1085.75,-384.5"/>
<text text-anchor="middle" x="1047" y="-371" font-family="Helvetica,sans-Serif" font-size="10.00">model/Block.h</text>
</a>
</g>
</g>
<!-- Node1&#45;&gt;Node2 -->
<g id="edge1_Node000001_Node000002" class="edge">
<title>Node1&#45;&gt;Node2</title>
<g id="a_edge1_Node000001_Node000002"><a xlink:title=" ">
<path fill="none" stroke="#63b8ff" d="M1377.75,-418.94C1290.49,-407.58 1152.86,-389.66 1086.01,-380.95"/>
<polygon fill="#63b8ff" stroke="#63b8ff" points="1377.05,-422.38 1387.42,-420.2 1377.95,-415.43 1377.05,-422.38"/>
</a>
</g>
</g>
<!-- Node8 -->
<g id="Node000008" class="node">
<title>Node8</title>
<g id="a_Node000008"><a xlink:href="_linear_elastance_chamber_8h.html" target="_top" xlink:title="model::LinearElastanceChamber source file">
<polygon fill="white" stroke="#666666" points="1859.75,-80.12 1698.25,-80.12 1698.25,-60.88 1859.75,-60.88 1859.75,-80.12"/>
<text text-anchor="middle" x="1779" y="-66.62" font-family="Helvetica,sans-Serif" font-size="10.00">model/LinearElastanceChamber.h</text>
</a>
</g>
</g>
<!-- Node1&#45;&gt;Node8 -->
<g id="edge67_Node000001_Node000008" class="edge">
<title>Node1&#45;&gt;Node8</title>
<g id="a_edge67_Node000001_Node000008"><a xlink:title=" ">
<path fill="none" stroke="#63b8ff" d="M1534.21,-423.24C1698.62,-409.82 2065,-373.94 2065,-320.62 2065,-320.62 2065,-320.62 2065,-191.25 2065,-101.89 1944.75,-78.07 1860.19,-72.36"/>
<polygon fill="#63b8ff" stroke="#63b8ff" points="1534.4,-419.71 1524.72,-424.01 1534.97,-426.69 1534.4,-419.71"/>
</a>
</g>
</g>
<!-- Node11 -->
<g id="Node000011" class="node">
<title>Node11</title>
<g id="a_Node000011"><a xlink:href="_simulation_parameters_8h.html" target="_top" xlink:title="Source file to read simulation configuration.">
<polygon fill="white" stroke="#666666" points="751.88,-80.12 606.12,-80.12 606.12,-60.88 751.88,-60.88 751.88,-80.12"/>
<text text-anchor="middle" x="679" y="-66.62" font-family="Helvetica,sans-Serif" font-size="10.00">solve/SimulationParameters.h</text>
</a>
</g>
</g>
<!-- Node1&#45;&gt;Node11 -->
<g id="edge68_Node000001_Node000011" class="edge">
<title>Node1&#45;&gt;Node11</title>
<g id="a_edge68_Node000001_Node000011"><a xlink:title=" ">
<path fill="none" stroke="#63b8ff" d="M1377.4,-427.42C1074.53,-420.34 0,-390.31 0,-320.62 0,-320.62 0,-320.62 0,-191.25 0,-130.28 430.12,-90.5 605.69,-76.81"/>
<polygon fill="#63b8ff" stroke="#63b8ff" points="1377.1,-430.91 1387.18,-427.65 1377.26,-423.92 1377.1,-430.91"/>
</a>
</g>
</g>
<!-- Node17 -->
<g id="Node000017" class="node">
<title>Node17</title>
<g id="a_Node000017"><a xlink:href="_chamber_elastance_inductor_8h.html" target="_top" xlink:title="model::ChamberElastanceInductor source file">
<polygon fill="white" stroke="#666666" points="1968.88,-329.25 1799.12,-329.25 1799.12,-310 1968.88,-310 1968.88,-329.25"/>
<text text-anchor="middle" x="1884" y="-315.75" font-family="Helvetica,sans-Serif" font-size="10.00">model/ChamberElastanceInductor.h</text>
</a>
</g>
</g>
<!-- Node1&#45;&gt;Node17 -->
<g id="edge66_Node000001_Node000017" class="edge">
<title>Node1&#45;&gt;Node17</title>
<g id="a_edge66_Node000001_Node000017"><a xlink:title=" ">
<path fill="none" stroke="#63b8ff" d="M1502.76,-417.27C1588.86,-395.44 1770.76,-349.33 1848.05,-329.74"/>
<polygon fill="#63b8ff" stroke="#63b8ff" points="1502.06,-413.84 1493.22,-419.69 1503.78,-420.62 1502.06,-413.84"/>
</a>
</g>
</g>
<!-- Node3 -->
<g id="Node000003" class="node">
<title>Node3</title>
<g id="a_Node000003"><a xlink:href="_block_factory_8h.html" target="_top" xlink:title="Define the block factory functional.">
<polygon fill="white" stroke="#666666" points="730.88,-201.88 621.12,-201.88 621.12,-182.62 730.88,-182.62 730.88,-201.88"/>
<text text-anchor="middle" x="676" y="-188.38" font-family="Helvetica,sans-Serif" font-size="10.00">model/BlockFactory.h</text>
</a>
</g>
</g>
<!-- Node2&#45;&gt;Node3 -->
<g id="edge2_Node000002_Node000003" class="edge">
<title>Node2&#45;&gt;Node3</title>
<g id="a_edge2_Node000002_Node000003"><a xlink:title=" ">
<path fill="none" stroke="#63b8ff" d="M996.7,-372.19C891.12,-368.13 654.13,-356.1 630,-329.25 595.51,-290.87 646.87,-225.64 667.8,-202.07"/>
<polygon fill="#63b8ff" stroke="#63b8ff" points="996.36,-375.68 1006.49,-372.55 996.63,-368.68 996.36,-375.68"/>
</a>
</g>
</g>
<!-- Node4 -->
<g id="Node000004" class="node">
<title>Node4</title>
<g id="a_Node000004"><a xlink:href="_model_8h.html" target="_top" xlink:title="model::Model source file">
<polygon fill="white" stroke="#666666" points="1025.5,-141 946.5,-141 946.5,-121.75 1025.5,-121.75 1025.5,-141"/>
<text text-anchor="middle" x="986" y="-127.5" font-family="Helvetica,sans-Serif" font-size="10.00">model/Model.h</text>
</a>
</g>
</g>
<!-- Node2&#45;&gt;Node4 -->
<g id="edge48_Node000002_Node000004" class="edge">
<title>Node2&#45;&gt;Node4</title>
<g id="a_edge48_Node000002_Node000004"><a xlink:title=" ">
<path fill="none" stroke="#63b8ff" d="M996.6,-372.31C888.4,-368.44 641.55,-356.66 616,-329.25 569.85,-279.73 567.06,-227.62 612,-177 633.92,-152.31 854.11,-138.8 946.02,-134.2"/>
<polygon fill="#63b8ff" stroke="#63b8ff" points="996.23,-375.8 1006.35,-372.65 996.47,-368.8 996.23,-375.8"/>
</a>
</g>
</g>
<!-- Node2&#45;&gt;Node8 -->
<g id="edge47_Node000002_Node000008" class="edge">
<title>Node2&#45;&gt;Node8</title>
<g id="a_edge47_Node000002_Node000008"><a xlink:title=" ">
<path fill="none" stroke="#63b8ff" d="M1097.43,-374.02C1280.13,-374.21 1900.72,-371.7 1978,-329.25 2011.13,-311.05 2027,-297.54 2027,-259.75 2027,-259.75 2027,-259.75 2027,-191.25 2027,-115.71 1932.53,-87.8 1860.2,-77.5"/>
<polygon fill="#63b8ff" stroke="#63b8ff" points="1097.56,-370.52 1087.55,-374.01 1097.55,-377.52 1097.56,-370.52"/>
</a>
</g>
</g>
<!-- Node13 -->
<g id="Node000013" class="node">
<title>Node13</title>
<g id="a_Node000013"><a xlink:href="_blood_vessel_8h.html" target="_top" xlink:title="model::BloodVessel source file">
<polygon fill="white" stroke="#666666" points="929.75,-329.25 822.25,-329.25 822.25,-310 929.75,-310 929.75,-329.25"/>
<text text-anchor="middle" x="876" y="-315.75" font-family="Helvetica,sans-Serif" font-size="10.00">model/BloodVessel.h</text>
</a>
</g>
</g>
<!-- Node2&#45;&gt;Node13 -->
<g id="edge17_Node000002_Node000013" class="edge">
<title>Node2&#45;&gt;Node13</title>
<g id="a_edge17_Node000002_Node000013"><a xlink:title=" ">
<path fill="none" stroke="#63b8ff" d="M1007.06,-361.44C975.85,-351.72 933.21,-338.44 905.15,-329.7"/>
<polygon fill="#63b8ff" stroke="#63b8ff" points="1005.96,-364.76 1016.55,-364.39 1008.04,-358.08 1005.96,-364.76"/>
</a>
</g>
</g>
<!-- Node14 -->
<g id="Node000014" class="node">
<title>Node14</title>
<g id="a_Node000014"><a xlink:href="_blood_vessel_junction_8h.html" target="_top" xlink:title="model::BloodVesselJunction source file">
<polygon fill="white" stroke="#666666" points="869.12,-268.38 724.88,-268.38 724.88,-249.12 869.12,-249.12 869.12,-268.38"/>
<text text-anchor="middle" x="797" y="-254.88" font-family="Helvetica,sans-Serif" font-size="10.00">model/BloodVesselJunction.h</text>
</a>
</g>
</g>
<!-- Node2&#45;&gt;Node14 -->
<g id="edge24_Node000002_Node000014" class="edge">
<title>Node2&#45;&gt;Node14</title>
<g id="a_edge24_Node000002_Node000014"><a xlink:title=" ">
<path fill="none" stroke="#63b8ff" d="M996.64,-370.62C935.88,-365.64 838.68,-353.98 813,-329.25 796.23,-313.1 795.46,-283.19 796.24,-268.44"/>
<polygon fill="#63b8ff" stroke="#63b8ff" points="996.15,-374.09 1006.39,-371.38 996.7,-367.11 996.15,-374.09"/>
</a>
</g>
</g>
<!-- Node15 -->
<g id="Node000015" class="node">
<title>Node15</title>
<g id="a_Node000015"><a xlink:href="_blood_vessel_c_r_l_8h.html" target="_top" xlink:title="model::BloodVesselCRL source file">
<polygon fill="white" stroke="#666666" points="765.5,-329.25 638.5,-329.25 638.5,-310 765.5,-310 765.5,-329.25"/>
<text text-anchor="middle" x="702" y="-315.75" font-family="Helvetica,sans-Serif" font-size="10.00">model/BloodVesselCRL.h</text>
</a>
</g>
</g>
<!-- Node2&#45;&gt;Node15 -->
<g id="edge21_Node000002_Node000015" class="edge">
<title>Node2&#45;&gt;Node15</title>
<g id="a_edge21_Node000002_Node000015"><a xlink:title=" ">
<path fill="none" stroke="#63b8ff" d="M996.61,-366.1C934.02,-356.44 827.43,-339.99 761.07,-329.74"/>
<polygon fill="#63b8ff" stroke="#63b8ff" points="995.85,-369.52 1006.26,-367.59 996.92,-362.6 995.85,-369.52"/>
</a>
</g>
</g>
<!-- Node16 -->
<g id="Node000016" class="node">
<title>Node16</title>
<g id="a_Node000016"><a xlink:href="_blood_vessel_r_c_8h_source.html" target="_top" xlink:title=" ">
<polygon fill="white" stroke="#666666" points="1002.5,-201.88 881.5,-201.88 881.5,-182.62 1002.5,-182.62 1002.5,-201.88"/>
<text text-anchor="middle" x="942" y="-188.38" font-family="Helvetica,sans-Serif" font-size="10.00">model/BloodVesselRC.h</text>
</a>
</g>
</g>
<!-- Node2&#45;&gt;Node16 -->
<g id="edge25_Node000002_Node000016" class="edge">
<title>Node2&#45;&gt;Node16</title>
<g id="a_edge25_Node000002_Node000016"><a xlink:title=" ">
<path fill="none" stroke="#63b8ff" d="M1014.31,-359.72C1000.95,-352.41 986.44,-342.26 977,-329.25 947.51,-288.6 942.82,-225.31 942.11,-202.13"/>
<polygon fill="#63b8ff" stroke="#63b8ff" points="1012.36,-362.65 1022.86,-364.06 1015.53,-356.41 1012.36,-362.65"/>
</a>
</g>
</g>
<!-- Node2&#45;&gt;Node17 -->
<g id="edge27_Node000002_Node000017" class="edge">
<title>Node2&#45;&gt;Node17</title>
<g id="a_edge27_Node000002_Node000017"><a xlink:title=" ">
<path fill="none" stroke="#63b8ff" d="M1097.53,-371.28C1217.09,-365.05 1526.7,-348.31 1785,-329.25 1789.47,-328.92 1794.06,-328.57 1798.69,-328.2"/>
<polygon fill="#63b8ff" stroke="#63b8ff" points="1097.54,-367.78 1087.74,-371.79 1097.91,-374.77 1097.54,-367.78"/>
</a>
</g>
</g>
<!-- Node19 -->
<g id="Node000019" class="node">
<title>Node19</title>
<g id="a_Node000019"><a xlink:href="_chamber_sphere_8h.html" target="_top" xlink:title="model::ChamberSphere source file">
<polygon fill="white" stroke="#666666" points="1108.25,-329.25 985.75,-329.25 985.75,-310 1108.25,-310 1108.25,-329.25"/>
<text text-anchor="middle" x="1047" y="-315.75" font-family="Helvetica,sans-Serif" font-size="10.00">model/ChamberSphere.h</text>
</a>
</g>
</g>
<!-- Node2&#45;&gt;Node19 -->
<g id="edge31_Node000002_Node000019" class="edge">
<title>Node2&#45;&gt;Node19</title>
<g id="a_edge31_Node000002_Node000019"><a xlink:title=" ">
<path fill="none" stroke="#63b8ff" d="M1047,-353.63C1047,-345.34 1047,-336.17 1047,-329.61"/>
<polygon fill="#63b8ff" stroke="#63b8ff" points="1043.5,-353.57 1047,-363.57 1050.5,-353.57 1043.5,-353.57"/>
</a>
</g>
</g>
<!-- Node20 -->
<g id="Node000020" class="node">
<title>Node20</title>
<g id="a_Node000020"><a xlink:href="_closed_loop_coronary_b_c_8h.html" target="_top" xlink:title="model::ClosedLoopCoronaryBC source file">
<polygon fill="white" stroke="#666666" points="507.12,-268.38 350.88,-268.38 350.88,-249.12 507.12,-249.12 507.12,-268.38"/>
<text text-anchor="middle" x="429" y="-254.88" font-family="Helvetica,sans-Serif" font-size="10.00">model/ClosedLoopCoronaryBC.h</text>
</a>
</g>
</g>
<!-- Node2&#45;&gt;Node20 -->
<g id="edge33_Node000002_Node000020" class="edge">
<title>Node2&#45;&gt;Node20</title>
<g id="a_edge33_Node000002_Node000020"><a xlink:title=" ">
<path fill="none" stroke="#63b8ff" d="M996.96,-374.46C846.23,-375.72 404.25,-375.4 361,-329.25 340.34,-307.2 381.82,-282.01 408.64,-268.85"/>
<polygon fill="#63b8ff" stroke="#63b8ff" points="996.65,-377.97 1006.62,-374.38 996.59,-370.97 996.65,-377.97"/>
</a>
</g>
</g>
<!-- Node23 -->
<g id="Node000023" class="node">
<title>Node23</title>
<g id="a_Node000023"><a xlink:href="_closed_loop_heart_pulmonary_8h.html" target="_top" xlink:title="model::ClosedLoopHeartPulmonary source file">
<polygon fill="white" stroke="#666666" points="544.12,-329.25 369.88,-329.25 369.88,-310 544.12,-310 544.12,-329.25"/>
<text text-anchor="middle" x="457" y="-315.75" font-family="Helvetica,sans-Serif" font-size="10.00">model/ClosedLoopHeartPulmonary.h</text>
</a>
</g>
</g>
<!-- Node2&#45;&gt;Node23 -->
<g id="edge38_Node000002_Node000023" class="edge">
<title>Node2&#45;&gt;Node23</title>
<g id="a_edge38_Node000002_Node000023"><a xlink:title=" ">
<path fill="none" stroke="#63b8ff" d="M996.49,-369.32C895.94,-360.24 669.65,-339.82 544.45,-328.52"/>
<polygon fill="#63b8ff" stroke="#63b8ff" points="996.05,-372.79 1006.32,-370.2 996.68,-365.82 996.05,-372.79"/>
</a>
</g>
</g>
<!-- Node24 -->
<g id="Node000024" class="node">
<title>Node24</title>
<g id="a_Node000024"><a xlink:href="_closed_loop_r_c_r_b_c_8h.html" target="_top" xlink:title="model::ClosedLoopRCRBC source file">
<polygon fill="white" stroke="#666666" points="1264.12,-329.25 1125.88,-329.25 1125.88,-310 1264.12,-310 1264.12,-329.25"/>
<text text-anchor="middle" x="1195" y="-315.75" font-family="Helvetica,sans-Serif" font-size="10.00">model/ClosedLoopRCRBC.h</text>
</a>
</g>
</g>
<!-- Node2&#45;&gt;Node24 -->
<g id="edge41_Node000002_Node000024" class="edge">
<title>Node2&#45;&gt;Node24</title>
<g id="a_edge41_Node000002_Node000024"><a xlink:title=" ">
<path fill="none" stroke="#63b8ff" d="M1082.64,-361.05C1109.55,-351.37 1145.81,-338.32 1169.77,-329.7"/>
<polygon fill="#63b8ff" stroke="#63b8ff" points="1081.75,-357.65 1073.53,-364.33 1084.12,-364.24 1081.75,-357.65"/>
</a>
</g>
</g>
<!-- Node25 -->
<g id="Node000025" class="node">
<title>Node25</title>
<g id="a_Node000025"><a xlink:href="_flow_reference_b_c_8h.html" target="_top" xlink:title="model::FlowReferenceBC source file">
<polygon fill="white" stroke="#666666" points="1228.75,-201.88 1097.25,-201.88 1097.25,-182.62 1228.75,-182.62 1228.75,-201.88"/>
<text text-anchor="middle" x="1163" y="-188.38" font-family="Helvetica,sans-Serif" font-size="10.00">model/FlowReferenceBC.h</text>
</a>
</g>
</g>
<!-- Node2&#45;&gt;Node25 -->
<g id="edge43_Node000002_Node000025" class="edge">
<title>Node2&#45;&gt;Node25</title>
<g id="a_edge43_Node000002_Node000025"><a xlink:title=" ">
<path fill="none" stroke="#63b8ff" d="M1097.43,-371.16C1157.13,-366.78 1251.22,-355.75 1273,-329.25 1303.56,-292.07 1234.74,-297.5 1211,-274 1188.98,-252.2 1173.2,-218.28 1166.53,-202.24"/>
<polygon fill="#63b8ff" stroke="#63b8ff" points="1097.23,-367.67 1087.49,-371.85 1097.71,-374.65 1097.23,-367.67"/>
</a>
</g>
</g>
<!-- Node26 -->
<g id="Node000026" class="node">
<title>Node26</title>
<g id="a_Node000026"><a xlink:href="_junction_8h.html" target="_top" xlink:title="model::Junction source file">
<polygon fill="white" stroke="#666666" points="1336.75,-201.88 1247.25,-201.88 1247.25,-182.62 1336.75,-182.62 1336.75,-201.88"/>
<text text-anchor="middle" x="1292" y="-188.38" font-family="Helvetica,sans-Serif" font-size="10.00">model/Junction.h</text>
</a>
</g>
</g>
<!-- Node2&#45;&gt;Node26 -->
<g id="edge45_Node000002_Node000026" class="edge">
<title>Node2&#45;&gt;Node26</title>
<g id="a_edge45_Node000002_Node000026"><a xlink:title=" ">
<path fill="none" stroke="#63b8ff" d="M1097.47,-372C1161.59,-368.43 1266.86,-358.21 1291,-329.25 1315.94,-299.34 1251.24,-288.66 1244,-274 1238,-261.84 1238.96,-256.08 1244,-243.5 1251,-226.03 1267.3,-211.19 1278.96,-202.27"/>
<polygon fill="#63b8ff" stroke="#63b8ff" points="1097.32,-368.5 1087.51,-372.51 1097.68,-375.49 1097.32,-368.5"/>
</a>
</g>
</g>
<!-- Node27 -->
<g id="Node000027" class="node">
<title>Node27</title>
<g id="a_Node000027"><a xlink:href="_open_loop_coronary_b_c_8h.html" target="_top" xlink:title="model::OpenLoopCoronaryBC source file">
<polygon fill="white" stroke="#666666" points="1545.75,-329.25 1396.25,-329.25 1396.25,-310 1545.75,-310 1545.75,-329.25"/>
<text text-anchor="middle" x="1471" y="-315.75" font-family="Helvetica,sans-Serif" font-size="10.00">model/OpenLoopCoronaryBC.h</text>
</a>
</g>
</g>
<!-- Node2&#45;&gt;Node27 -->
<g id="edge49_Node000002_Node000027" class="edge">
<title>Node2&#45;&gt;Node27</title>
<g id="a_edge49_Node000002_Node000027"><a xlink:title=" ">
<path fill="none" stroke="#63b8ff" d="M1097.55,-367.53C1172.36,-358.13 1312.91,-340.48 1398.62,-329.71"/>
<polygon fill="#63b8ff" stroke="#63b8ff" points="1097.12,-364.05 1087.63,-368.77 1097.99,-371 1097.12,-364.05"/>
</a>
</g>
</g>
<!-- Node28 -->
<g id="Node000028" class="node">
<title>Node28</title>
<g id="a_Node000028"><a xlink:href="_open_loop_coronary_var_res_b_c_8h.html" target="_top" xlink:title="model::OpenLoopCoronaryVarResBC source file">
<polygon fill="white" stroke="#666666" points="1574.75,-274 1431.25,-274 1431.25,-243.5 1574.75,-243.5 1574.75,-274"/>
<text text-anchor="start" x="1439.25" y="-260.5" font-family="Helvetica,sans-Serif" font-size="10.00">model/OpenLoopCoronaryVar</text>
<text text-anchor="middle" x="1503" y="-249.25" font-family="Helvetica,sans-Serif" font-size="10.00">ResBC.h</text>
</a>
</g>
</g>
<!-- Node2&#45;&gt;Node28 -->
<g id="edge53_Node000002_Node000028" class="edge">
<title>Node2&#45;&gt;Node28</title>
<g id="a_edge53_Node000002_Node000028"><a xlink:title=" ">
<path fill="none" stroke="#63b8ff" d="M1097.29,-373.23C1219.54,-371.13 1524.48,-362.57 1555,-329.25 1571.29,-311.47 1546.9,-288.77 1526.32,-274.24"/>
<polygon fill="#63b8ff" stroke="#63b8ff" points="1097.51,-369.72 1087.56,-373.38 1097.62,-376.72 1097.51,-369.72"/>
</a>
</g>
</g>
<!-- Node29 -->
<g id="Node000029" class="node">
<title>Node29</title>
<g id="a_Node000029"><a xlink:href="_piecewise_valve_8h.html" target="_top" xlink:title="model::PiecewiseValve source file">
<polygon fill="white" stroke="#666666" points="1375.25,-268.38 1252.75,-268.38 1252.75,-249.12 1375.25,-249.12 1375.25,-268.38"/>
<text text-anchor="middle" x="1314" y="-254.88" font-family="Helvetica,sans-Serif" font-size="10.00">model/PiecewiseValve.h</text>
</a>
</g>
</g>
<!-- Node2&#45;&gt;Node29 -->
<g id="edge54_Node000002_Node000029" class="edge">
<title>Node2&#45;&gt;Node29</title>
<g id="a_edge54_Node000002_Node000029"><a xlink:title=" ">
<path fill="none" stroke="#63b8ff" d="M1097.36,-373.89C1173.61,-372.72 1312.77,-365.52 1344,-329.25 1359.78,-310.92 1337.38,-283.04 1323.53,-268.8"/>
<polygon fill="#63b8ff" stroke="#63b8ff" points="1097.61,-370.39 1087.66,-374.01 1097.7,-377.39 1097.61,-370.39"/>
</a>
</g>
</g>
<!-- Node30 -->
<g id="Node000030" class="node">
<title>Node30</title>
<g id="a_Node000030"><a xlink:href="_pressure_reference_b_c_8h.html" target="_top" xlink:title="model::PressureReferenceBC source file">
<polygon fill="white" stroke="#666666" points="1742.75,-268.38 1593.25,-268.38 1593.25,-249.12 1742.75,-249.12 1742.75,-268.38"/>
<text text-anchor="middle" x="1668" y="-254.88" font-family="Helvetica,sans-Serif" font-size="10.00">model/PressureReferenceBC.h</text>
</a>
</g>
</g>
<!-- Node2&#45;&gt;Node30 -->
<g id="edge56_Node000002_Node000030" class="edge">
<title>Node2&#45;&gt;Node30</title>
<g id="a_edge56_Node000002_Node000030"><a xlink:title=" ">
<path fill="none" stroke="#63b8ff" d="M1097.54,-373.01C1211.62,-370.51 1485.87,-361.25 1572,-329.25 1608.45,-315.71 1643.41,-284.28 1659.21,-268.76"/>
<polygon fill="#63b8ff" stroke="#63b8ff" points="1097.48,-369.51 1087.56,-373.22 1097.63,-376.51 1097.48,-369.51"/>
</a>
</g>
</g>
<!-- Node31 -->
<g id="Node000031" class="node">
<title>Node31</title>
<g id="a_Node000031"><a xlink:href="_resistance_b_c_8h.html" target="_top" xlink:title="model::ResistanceBC source file">
<polygon fill="white" stroke="#666666" points="1780.5,-201.88 1665.5,-201.88 1665.5,-182.62 1780.5,-182.62 1780.5,-201.88"/>
<text text-anchor="middle" x="1723" y="-188.38" font-family="Helvetica,sans-Serif" font-size="10.00">model/ResistanceBC.h</text>
</a>
</g>
</g>
<!-- Node2&#45;&gt;Node31 -->
<g id="edge58_Node000002_Node000031" class="edge">
<title>Node2&#45;&gt;Node31</title>
<g id="a_edge58_Node000002_Node000031"><a xlink:title=" ">
<path fill="none" stroke="#63b8ff" d="M1097.33,-374.43C1195.71,-374.5 1419.91,-369.73 1603,-329.25 1671.96,-314 1711.66,-331.98 1752,-274 1768.16,-250.77 1744.36,-217.54 1731.01,-201.95"/>
<polygon fill="#63b8ff" stroke="#63b8ff" points="1097.49,-370.93 1087.48,-374.4 1097.47,-377.93 1097.49,-370.93"/>
</a>
</g>
</g>
<!-- Node32 -->
<g id="Node000032" class="node">
<title>Node32</title>
<g id="a_Node000032"><a xlink:href="_resistive_junction_8h.html" target="_top" xlink:title="model::ResistiveJunction source file">
<polygon fill="white" stroke="#666666" points="158,-268.38 28,-268.38 28,-249.12 158,-249.12 158,-268.38"/>
<text text-anchor="middle" x="93" y="-254.88" font-family="Helvetica,sans-Serif" font-size="10.00">model/ResistiveJunction.h</text>
</a>
</g>
</g>
<!-- Node2&#45;&gt;Node32 -->
<g id="edge60_Node000002_Node000032" class="edge">
<title>Node2&#45;&gt;Node32</title>
<g id="a_edge60_Node000002_Node000032"><a xlink:title=" ">
<path fill="none" stroke="#63b8ff" d="M996.76,-373.21C846.44,-370.89 401.9,-361.42 261,-329.25 202.84,-315.97 138.99,-284.42 109.55,-268.81"/>
<polygon fill="#63b8ff" stroke="#63b8ff" points="996.33,-376.71 1006.38,-373.36 996.44,-369.71 996.33,-376.71"/>
</a>
</g>
</g>
<!-- Node33 -->
<g id="Node000033" class="node">
<title>Node33</title>
<g id="a_Node000033"><a xlink:href="_valve_tanh_8h.html" target="_top" xlink:title="model::ValveTanh source file">
<polygon fill="white" stroke="#666666" points="275.62,-268.38 176.38,-268.38 176.38,-249.12 275.62,-249.12 275.62,-268.38"/>
<text text-anchor="middle" x="226" y="-254.88" font-family="Helvetica,sans-Serif" font-size="10.00">model/ValveTanh.h</text>
</a>
</g>
</g>
<!-- Node2&#45;&gt;Node33 -->
<g id="edge62_Node000002_Node000033" class="edge">
<title>Node2&#45;&gt;Node33</title>
<g id="a_edge62_Node000002_Node000033"><a xlink:title=" ">
<path fill="none" stroke="#63b8ff" d="M996.66,-373.08C837.74,-370.29 353.5,-359.36 290,-329.25 261.84,-315.9 240.23,-284.08 230.95,-268.56"/>
<polygon fill="#63b8ff" stroke="#63b8ff" points="996.39,-376.58 1006.45,-373.25 996.51,-369.58 996.39,-376.58"/>
</a>
</g>
</g>
<!-- Node34 -->
<g id="Node000034" class="node">
<title>Node34</title>
<g id="a_Node000034"><a xlink:href="_windkessel_b_c_8h.html" target="_top" xlink:title="model::WindkesselBC source file">
<polygon fill="white" stroke="#666666" points="220.25,-201.88 103.75,-201.88 103.75,-182.62 220.25,-182.62 220.25,-201.88"/>
<text text-anchor="middle" x="162" y="-188.38" font-family="Helvetica,sans-Serif" font-size="10.00">model/WindkesselBC.h</text>
</a>
</g>
</g>
<!-- Node2&#45;&gt;Node34 -->
<g id="edge64_Node000002_Node000034" class="edge">
<title>Node2&#45;&gt;Node34</title>
<g id="a_edge64_Node000002_Node000034"><a xlink:title=" ">
<path fill="none" stroke="#63b8ff" d="M996.84,-373.04C846.68,-370.2 407.57,-359.38 351,-329.25 308.55,-306.64 323.25,-272.66 285,-243.5 258.86,-223.57 223.71,-210.26 197.68,-202.37"/>
<polygon fill="#63b8ff" stroke="#63b8ff" points="996.4,-376.53 1006.46,-373.21 996.53,-369.53 996.4,-376.53"/>
</a>
</g>
</g>
<!-- Node3&#45;&gt;Node4 -->
<g id="edge3_Node000003_Node000004" class="edge">
<title>Node3&#45;&gt;Node4</title>
<g id="a_edge3_Node000003_Node000004"><a xlink:title=" ">
<path fill="none" stroke="#63b8ff" d="M730.66,-179.85C735.51,-178.88 740.34,-177.91 745,-177 815.78,-163.14 898.48,-148.07 946.29,-139.47"/>
<polygon fill="#63b8ff" stroke="#63b8ff" points="729.99,-176.42 720.89,-181.84 731.39,-183.28 729.99,-176.42"/>
</a>
</g>
</g>
<!-- Node5 -->
<g id="Node000005" class="node">
<title>Node5</title>
<g id="a_Node000005"><a xlink:href="_integrator_8h.html" target="_top" xlink:title="Integrator source file.">
<polygon fill="white" stroke="#666666" points="907.62,-80.12 808.38,-80.12 808.38,-60.88 907.62,-60.88 907.62,-80.12"/>
<text text-anchor="middle" x="858" y="-66.62" font-family="Helvetica,sans-Serif" font-size="10.00">algebra/Integrator.h</text>
</a>
</g>
</g>
<!-- Node4&#45;&gt;Node5 -->
<g id="edge4_Node000004_Node000005" class="edge">
<title>Node4&#45;&gt;Node5</title>
<g id="a_edge4_Node000004_Node000005"><a xlink:title=" ">
<path fill="none" stroke="#63b8ff" d="M955.87,-116.52C931.67,-105.38 898.38,-90.07 877.53,-80.48"/>
<polygon fill="#63b8ff" stroke="#63b8ff" points="954.36,-119.67 964.91,-120.67 957.28,-113.31 954.36,-119.67"/>
</a>
</g>
</g>
<!-- Node6 -->
<g id="Node000006" class="node">
<title>Node6</title>
<g id="a_Node000006"><a xlink:href="interface_8h.html" target="_top" xlink:title="svZeroDSolver callable interface.">
<polygon fill="white" stroke="#666666" points="986.75,-19.25 885.25,-19.25 885.25,0 986.75,0 986.75,-19.25"/>
<text text-anchor="middle" x="936" y="-5.75" font-family="Helvetica,sans-Serif" font-size="10.00">interface/interface.h</text>
</a>
</g>
</g>
<!-- Node4&#45;&gt;Node6 -->
<g id="edge7_Node000004_Node000006" class="edge">
<title>Node4&#45;&gt;Node6</title>
<g id="a_edge7_Node000004_Node000006"><a xlink:title=" ">
<path fill="none" stroke="#63b8ff" d="M971.4,-112.53C965.59,-104.71 959.29,-95.17 955,-85.75 944.63,-62.98 939.3,-33.64 937.16,-19.3"/>
<polygon fill="#63b8ff" stroke="#63b8ff" points="968.46,-114.46 977.37,-120.2 973.99,-110.16 968.46,-114.46"/>
</a>
</g>
</g>
<!-- Node7 -->
<g id="Node000007" class="node">
<title>Node7</title>
<g id="a_Node000007"><a xlink:href="_solver_8h.html" target="_top" xlink:title="Solver source file.">
<polygon fill="white" stroke="#666666" points="818.75,-19.25 741.25,-19.25 741.25,0 818.75,0 818.75,-19.25"/>
<text text-anchor="middle" x="780" y="-5.75" font-family="Helvetica,sans-Serif" font-size="10.00">solve/Solver.h</text>
</a>
</g>
</g>
<!-- Node4&#45;&gt;Node7 -->
<g id="edge14_Node000004_Node000007" class="edge">
<title>Node4&#45;&gt;Node7</title>
<g id="a_edge14_Node000004_Node000007"><a xlink:title=" ">
<path fill="none" stroke="#63b8ff" d="M935,-124.19C886.44,-117.27 818.03,-104.52 799,-85.75 780.9,-67.89 779.17,-35.45 779.5,-19.7"/>
<polygon fill="#63b8ff" stroke="#63b8ff" points="934.37,-127.63 944.76,-125.53 935.33,-120.7 934.37,-127.63"/>
</a>
</g>
</g>
<!-- Node4&#45;&gt;Node8 -->
<g id="edge8_Node000004_Node000008" class="edge">
<title>Node4&#45;&gt;Node8</title>
<g id="a_edge8_Node000004_Node000008"><a xlink:title=" ">
<path fill="none" stroke="#63b8ff" d="M1037.07,-126.31C1171.38,-116.05 1534.99,-89.04 1698.05,-77.2"/>
<polygon fill="#63b8ff" stroke="#63b8ff" points="1037.13,-122.8 1027.43,-127.05 1037.66,-129.78 1037.13,-122.8"/>
</a>
</g>
</g>
<!-- Node9 -->
<g id="Node000009" class="node">
<title>Node9</title>
<g id="a_Node000009"><a xlink:href="_levenberg_marquardt_optimizer_8h.html" target="_top" xlink:title="opt::LevenbergMarquardtOptimizer source file">
<polygon fill="white" stroke="#666666" points="1108.12,-85.75 963.88,-85.75 963.88,-55.25 1108.12,-55.25 1108.12,-85.75"/>
<text text-anchor="start" x="971.88" y="-72.25" font-family="Helvetica,sans-Serif" font-size="10.00">optimize/LevenbergMarquardt</text>
<text text-anchor="middle" x="1036" y="-61" font-family="Helvetica,sans-Serif" font-size="10.00">Optimizer.h</text>
</a>
</g>
</g>
<!-- Node4&#45;&gt;Node9 -->
<g id="edge10_Node000004_Node000009" class="edge">
<title>Node4&#45;&gt;Node9</title>
<g id="a_edge10_Node000004_Node000009"><a xlink:title=" ">
<path fill="none" stroke="#63b8ff" d="M1001.03,-112.68C1008.26,-104.17 1016.82,-94.09 1023.66,-86.03"/>
<polygon fill="#63b8ff" stroke="#63b8ff" points="998.38,-110.39 994.57,-120.28 1003.71,-114.92 998.38,-110.39"/>
</a>
</g>
</g>
<!-- Node10 -->
<g id="Node000010" class="node">
<title>Node10</title>
<g id="a_Node000010"><a xlink:href="calibrate_8h.html" target="_top" xlink:title="opt::calibrate source file">
<polygon fill="white" stroke="#666666" points="1225.62,-80.12 1126.38,-80.12 1126.38,-60.88 1225.62,-60.88 1225.62,-80.12"/>
<text text-anchor="middle" x="1176" y="-66.62" font-family="Helvetica,sans-Serif" font-size="10.00">optimize/calibrate.h</text>
</a>
</g>
</g>
<!-- Node4&#45;&gt;Node10 -->
<g id="edge11_Node000004_Node000010" class="edge">
<title>Node4&#45;&gt;Node10</title>
<g id="a_edge11_Node000004_Node000010"><a xlink:title=" ">
<path fill="none" stroke="#63b8ff" d="M1025.91,-118.01C1062.01,-106.82 1114.32,-90.61 1146.7,-80.58"/>
<polygon fill="#63b8ff" stroke="#63b8ff" points="1025.23,-114.55 1016.72,-120.86 1027.3,-121.24 1025.23,-114.55"/>
</a>
</g>
</g>
<!-- Node4&#45;&gt;Node11 -->
<g id="edge12_Node000004_Node000011" class="edge">
<title>Node4&#45;&gt;Node11</title>
<g id="a_edge12_Node000004_Node000011"><a xlink:title=" ">
<path fill="none" stroke="#63b8ff" d="M935.09,-120.61C877.1,-109.49 783.11,-91.47 726.56,-80.62"/>
<polygon fill="#63b8ff" stroke="#63b8ff" points="934.21,-124.01 944.69,-122.45 935.53,-117.13 934.21,-124.01"/>
</a>
</g>
</g>
<!-- Node12 -->
<g id="Node000012" class="node">
<title>Node12</title>
<g id="a_Node000012"><a xlink:href="csv__writer_8h.html" target="_top" xlink:title="csv_writer source file">
<polygon fill="white" stroke="#666666" points="1338.38,-80.12 1243.62,-80.12 1243.62,-60.88 1338.38,-60.88 1338.38,-80.12"/>
<text text-anchor="middle" x="1291" y="-66.62" font-family="Helvetica,sans-Serif" font-size="10.00">solve/csv_writer.h</text>
</a>
</g>
</g>
<!-- Node4&#45;&gt;Node12 -->
<g id="edge15_Node000004_Node000012" class="edge">
<title>Node4&#45;&gt;Node12</title>
<g id="a_edge15_Node000004_Node000012"><a xlink:title=" ">
<path fill="none" stroke="#63b8ff" d="M1037.1,-122.32C1087.58,-114.1 1166.91,-100.5 1235,-85.75 1242.16,-84.2 1249.79,-82.38 1257.04,-80.56"/>
<polygon fill="#63b8ff" stroke="#63b8ff" points="1036.66,-118.85 1027.34,-123.9 1037.77,-125.76 1036.66,-118.85"/>
</a>
</g>
</g>
<!-- Node5&#45;&gt;Node6 -->
<g id="edge5_Node000005_Node000006" class="edge">
<title>Node5&#45;&gt;Node6</title>
<g id="a_edge5_Node000005_Node000006"><a xlink:title=" ">
<path fill="none" stroke="#63b8ff" d="M879.03,-53.63C893.46,-42.73 912.09,-28.67 924.04,-19.65"/>
<polygon fill="#63b8ff" stroke="#63b8ff" points="876.93,-50.83 871.05,-59.65 881.14,-56.42 876.93,-50.83"/>
</a>
</g>
</g>
<!-- Node5&#45;&gt;Node7 -->
<g id="edge6_Node000005_Node000007" class="edge">
<title>Node5&#45;&gt;Node7</title>
<g id="a_edge6_Node000005_Node000007"><a xlink:title=" ">
<path fill="none" stroke="#63b8ff" d="M836.97,-53.63C822.54,-42.73 803.91,-28.67 791.96,-19.65"/>
<polygon fill="#63b8ff" stroke="#63b8ff" points="834.86,-56.42 844.95,-59.65 839.07,-50.83 834.86,-56.42"/>
</a>
</g>
</g>
<!-- Node8&#45;&gt;Node4 -->
<g id="edge9_Node000008_Node000004" class="edge">
<title>Node8&#45;&gt;Node4</title>
<g id="a_edge9_Node000008_Node000004"><a xlink:title=" ">
<path fill="none" stroke="#63b8ff" d="M1686.62,-78.7C1513.59,-91.79 1147.4,-118.94 1025.98,-127.63"/>
<polygon fill="#63b8ff" stroke="#63b8ff" points="1686.76,-82.2 1696.47,-77.95 1686.24,-75.22 1686.76,-82.2"/>
</a>
</g>
</g>
<!-- Node11&#45;&gt;Node7 -->
<g id="edge13_Node000011_Node000007" class="edge">
<title>Node11&#45;&gt;Node7</title>
<g id="a_edge13_Node000011_Node000007"><a xlink:title=" ">
<path fill="none" stroke="#63b8ff" d="M704.1,-54.87C723.05,-43.82 748.44,-29.02 764.52,-19.65"/>
<polygon fill="#63b8ff" stroke="#63b8ff" points="702.52,-51.74 695.65,-59.8 706.05,-57.78 702.52,-51.74"/>
</a>
</g>
</g>
<!-- Node12&#45;&gt;Node6 -->
<g id="edge16_Node000012_Node000006" class="edge">
<title>Node12&#45;&gt;Node6</title>
<g id="a_edge16_Node000012_Node000006"><a xlink:title=" ">
<path fill="none" stroke="#63b8ff" d="M1246.67,-57.78C1242.74,-56.88 1238.8,-56.02 1235,-55.25 1148.56,-37.85 1046.8,-24.07 987.06,-16.65"/>
<polygon fill="#63b8ff" stroke="#63b8ff" points="1245.65,-61.14 1256.19,-60.08 1247.29,-54.33 1245.65,-61.14"/>
</a>
</g>
</g>
<!-- Node13&#45;&gt;Node4 -->
<g id="edge20_Node000013_Node000004" class="edge">
<title>Node13&#45;&gt;Node4</title>
<g id="a_edge20_Node000013_Node000004"><a xlink:title=" ">
<path fill="none" stroke="#63b8ff" d="M877.1,-298.3C877.47,-290.68 877.82,-281.95 878,-274 878.3,-260.45 878.93,-257.02 878,-243.5 876.89,-227.38 874.11,-223.62 873,-207.5 872.07,-193.98 865.38,-188.21 873,-177 889.31,-153.02 920.7,-141.93 946.26,-136.79"/>
<polygon fill="#63b8ff" stroke="#63b8ff" points="873.61,-298.06 876.59,-308.23 880.6,-298.42 873.61,-298.06"/>
</a>
</g>
</g>
<!-- Node13&#45;&gt;Node14 -->
<g id="edge18_Node000013_Node000014" class="edge">
<title>Node13&#45;&gt;Node14</title>
<g id="a_edge18_Node000013_Node000014"><a xlink:title=" ">
<path fill="none" stroke="#63b8ff" d="M855.12,-303.06C840.45,-292.13 821.33,-277.89 809.11,-268.78"/>
<polygon fill="#63b8ff" stroke="#63b8ff" points="852.68,-305.61 862.79,-308.78 856.86,-300 852.68,-305.61"/>
</a>
</g>
</g>
<!-- Node14&#45;&gt;Node4 -->
<g id="edge19_Node000014_Node000004" class="edge">
<title>Node14&#45;&gt;Node4</title>
<g id="a_edge19_Node000014_Node000004"><a xlink:title=" ">
<path fill="none" stroke="#63b8ff" d="M802.45,-237.88C808.48,-219.54 819.94,-192.82 839,-177 869.47,-151.7 914.06,-140.74 946.13,-135.99"/>
<polygon fill="#63b8ff" stroke="#63b8ff" points="799.14,-236.73 799.62,-247.32 805.85,-238.74 799.14,-236.73"/>
</a>
</g>
</g>
<!-- Node15&#45;&gt;Node4 -->
<g id="edge23_Node000015_Node000004" class="edge">
<title>Node15&#45;&gt;Node4</title>
<g id="a_edge23_Node000015_Node000004"><a xlink:title=" ">
<path fill="none" stroke="#63b8ff" d="M701.67,-298.71C702.3,-282.62 705.3,-260.02 716,-243.5 744.21,-199.93 764.79,-198.56 812,-177 855.83,-156.98 910.13,-144.87 946.3,-138.42"/>
<polygon fill="#63b8ff" stroke="#63b8ff" points="698.17,-298.43 701.58,-308.46 705.17,-298.49 698.17,-298.43"/>
</a>
</g>
</g>
<!-- Node15&#45;&gt;Node14 -->
<g id="edge22_Node000015_Node000014" class="edge">
<title>Node15&#45;&gt;Node14</title>
<g id="a_edge22_Node000015_Node000014"><a xlink:title=" ">
<path fill="none" stroke="#63b8ff" d="M726.11,-303.68C743.87,-292.67 767.46,-278.06 782.44,-268.78"/>
<polygon fill="#63b8ff" stroke="#63b8ff" points="724.37,-300.64 717.71,-308.89 728.06,-306.59 724.37,-300.64"/>
</a>
</g>
</g>
<!-- Node16&#45;&gt;Node4 -->
<g id="edge26_Node000016_Node000004" class="edge">
<title>Node16&#45;&gt;Node4</title>
<g id="a_edge26_Node000016_Node000004"><a xlink:title=" ">
<path fill="none" stroke="#63b8ff" d="M955.54,-173.14C963.4,-162.61 972.97,-149.82 979.25,-141.4"/>
<polygon fill="#63b8ff" stroke="#63b8ff" points="952.77,-170.99 949.59,-181.1 958.38,-175.18 952.77,-170.99"/>
</a>
</g>
</g>
<!-- Node17&#45;&gt;Node4 -->
<g id="edge30_Node000017_Node000004" class="edge">
<title>Node17&#45;&gt;Node4</title>
<g id="a_edge30_Node000017_Node000004"><a xlink:title=" ">
<path fill="none" stroke="#63b8ff" d="M1930.45,-305.44C1945.76,-298.64 1961.13,-288.6 1970,-274 1977.04,-262.42 1977.3,-254.92 1970,-243.5 1932.01,-184.12 1894.43,-193.95 1826,-177 1671.49,-138.72 1171,-133.28 1025.82,-132.5"/>
<polygon fill="#63b8ff" stroke="#63b8ff" points="1929.32,-302.12 1921.34,-309.08 1931.92,-308.62 1929.32,-302.12"/>
</a>
</g>
</g>
<!-- Node18 -->
<g id="Node000018" class="node">
<title>Node18</title>
<g id="a_Node000018"><a xlink:href="_chamber_elastance_inductor_exponential_8h.html" target="_top" xlink:title="model::ChamberElastanceInductorExponential source file">
<polygon fill="white" stroke="#666666" points="1961.12,-274 1798.88,-274 1798.88,-243.5 1961.12,-243.5 1961.12,-274"/>
<text text-anchor="start" x="1806.88" y="-260.5" font-family="Helvetica,sans-Serif" font-size="10.00">model/ChamberElastanceInductor</text>
<text text-anchor="middle" x="1880" y="-249.25" font-family="Helvetica,sans-Serif" font-size="10.00">Exponential.h</text>
</a>
</g>
</g>
<!-- Node17&#45;&gt;Node18 -->
<g id="edge28_Node000017_Node000018" class="edge">
<title>Node17&#45;&gt;Node18</title>
<g id="a_edge28_Node000017_Node000018"><a xlink:title=" ">
<path fill="none" stroke="#63b8ff" d="M1882.63,-298.42C1882.09,-290.49 1881.48,-281.56 1880.99,-274.28"/>
<polygon fill="#63b8ff" stroke="#63b8ff" points="1879.12,-298.43 1883.29,-308.17 1886.1,-297.96 1879.12,-298.43"/>
</a>
</g>
</g>
<!-- Node18&#45;&gt;Node4 -->
<g id="edge29_Node000018_Node000004" class="edge">
<title>Node18&#45;&gt;Node4</title>
<g id="a_edge29_Node000018_Node000004"><a xlink:title=" ">
<path fill="none" stroke="#63b8ff" d="M1861.86,-234.37C1845.42,-215.15 1819.33,-189.17 1790,-177 1719.1,-147.58 1178.1,-135.79 1025.79,-133.04"/>
<polygon fill="#63b8ff" stroke="#63b8ff" points="1859.09,-236.52 1868.16,-242 1864.49,-232.06 1859.09,-236.52"/>
</a>
</g>
</g>
<!-- Node19&#45;&gt;Node4 -->
<g id="edge32_Node000019_Node000004" class="edge">
<title>Node19&#45;&gt;Node4</title>
<g id="a_edge32_Node000019_Node000004"><a xlink:title=" ">
<path fill="none" stroke="#63b8ff" d="M1043.93,-298.72C1039.21,-270.8 1028.91,-218.73 1012,-177 1006.68,-163.87 998.02,-149.95 992.17,-141.21"/>
<polygon fill="#63b8ff" stroke="#63b8ff" points="1040.42,-298.92 1045.47,-308.24 1047.33,-297.81 1040.42,-298.92"/>
</a>
</g>
</g>
<!-- Node21 -->
<g id="Node000021" class="node">
<title>Node21</title>
<g id="a_Node000021"><a xlink:href="_closed_loop_coronary_left_b_c_8h.html" target="_top" xlink:title="Left side of ClosedLoopCoronaryBC.">
<polygon fill="white" stroke="#666666" points="373.62,-207.5 238.38,-207.5 238.38,-177 373.62,-177 373.62,-207.5"/>
<text text-anchor="start" x="246.38" y="-194" font-family="Helvetica,sans-Serif" font-size="10.00">model/ClosedLoopCoronary</text>
<text text-anchor="middle" x="306" y="-182.75" font-family="Helvetica,sans-Serif" font-size="10.00">LeftBC.h</text>
</a>
</g>
</g>
<!-- Node20&#45;&gt;Node21 -->
<g id="edge34_Node000020_Node000021" class="edge">
<title>Node20&#45;&gt;Node21</title>
<g id="a_edge34_Node000020_Node000021"><a xlink:title=" ">
<path fill="none" stroke="#63b8ff" d="M401.52,-243.34C381.31,-232.74 353.96,-218.4 333.7,-207.78"/>
<polygon fill="#63b8ff" stroke="#63b8ff" points="399.82,-246.4 410.3,-247.94 403.07,-240.2 399.82,-246.4"/>
</a>
</g>
</g>
<!-- Node22 -->
<g id="Node000022" class="node">
<title>Node22</title>
<g id="a_Node000022"><a xlink:href="_closed_loop_coronary_right_b_c_8h.html" target="_top" xlink:title="Right side of ClosedLoopCoronaryBC.">
<polygon fill="white" stroke="#666666" points="526.62,-207.5 391.38,-207.5 391.38,-177 526.62,-177 526.62,-207.5"/>
<text text-anchor="start" x="399.38" y="-194" font-family="Helvetica,sans-Serif" font-size="10.00">model/ClosedLoopCoronary</text>
<text text-anchor="middle" x="459" y="-182.75" font-family="Helvetica,sans-Serif" font-size="10.00">RightBC.h</text>
</a>
</g>
</g>
<!-- Node20&#45;&gt;Node22 -->
<g id="edge36_Node000020_Node000022" class="edge">
<title>Node20&#45;&gt;Node22</title>
<g id="a_edge36_Node000020_Node000022"><a xlink:title=" ">
<path fill="none" stroke="#63b8ff" d="M437.88,-238.66C442.51,-228.71 448.07,-216.75 452.33,-207.59"/>
<polygon fill="#63b8ff" stroke="#63b8ff" points="434.85,-236.87 433.81,-247.41 441.2,-239.82 434.85,-236.87"/>
</a>
</g>
</g>
<!-- Node21&#45;&gt;Node4 -->
<g id="edge35_Node000021_Node000004" class="edge">
<title>Node21&#45;&gt;Node4</title>
<g id="a_edge35_Node000021_Node000004"><a xlink:title=" ">
<path fill="none" stroke="#63b8ff" d="M385.19,-176.67C602.36,-149.02 851.09,-137.46 946.27,-133.78"/>
<polygon fill="#63b8ff" stroke="#63b8ff" points="384.86,-173.19 375.39,-177.94 385.76,-180.13 384.86,-173.19"/>
</a>
</g>
</g>
<!-- Node22&#45;&gt;Node4 -->
<g id="edge37_Node000022_Node000004" class="edge">
<title>Node22&#45;&gt;Node4</title>
<g id="a_edge37_Node000022_Node000004"><a xlink:title=" ">
<path fill="none" stroke="#63b8ff" d="M537.98,-177.42C538.99,-177.28 540,-177.14 541,-177 690.05,-156.6 868.38,-141.52 946.3,-135.39"/>
<polygon fill="#63b8ff" stroke="#63b8ff" points="537.83,-173.9 528.45,-178.83 538.86,-180.83 537.83,-173.9"/>
</a>
</g>
</g>
<!-- Node23&#45;&gt;Node4 -->
<g id="edge40_Node000023_Node000004" class="edge">
<title>Node23&#45;&gt;Node4</title>
<g id="a_edge40_Node000023_Node000004"><a xlink:title=" ">
<path fill="none" stroke="#63b8ff" d="M481.07,-303.28C492.43,-295.36 505.71,-285.05 516,-274 551.03,-236.37 535.23,-203.96 579,-177 639.83,-139.54 856.04,-133.39 946.14,-132.48"/>
<polygon fill="#63b8ff" stroke="#63b8ff" points="479.31,-300.25 472.97,-308.74 483.22,-306.06 479.31,-300.25"/>
</a>
</g>
</g>
<!-- Node23&#45;&gt;Node20 -->
<g id="edge39_Node000023_Node000020" class="edge">
<title>Node23&#45;&gt;Node20</title>
<g id="a_edge39_Node000023_Node000020"><a xlink:title=" ">
<path fill="none" stroke="#63b8ff" d="M447.92,-299.53C443.01,-289.2 437.17,-276.93 433.29,-268.78"/>
<polygon fill="#63b8ff" stroke="#63b8ff" points="444.64,-300.79 452.1,-308.32 450.96,-297.78 444.64,-300.79"/>
</a>
</g>
</g>
<!-- Node24&#45;&gt;Node4 -->
<g id="edge42_Node000024_Node000004" class="edge">
<title>Node24&#45;&gt;Node4</title>
<g id="a_edge42_Node000024_Node000004"><a xlink:title=" ">
<path fill="none" stroke="#63b8ff" d="M1176.55,-302.19C1133.74,-264.04 1028.8,-170.52 995.98,-141.27"/>
<polygon fill="#63b8ff" stroke="#63b8ff" points="1174,-304.59 1183.79,-308.63 1178.65,-299.37 1174,-304.59"/>
</a>
</g>
</g>
<!-- Node25&#45;&gt;Node4 -->
<g id="edge44_Node000025_Node000004" class="edge">
<title>Node25&#45;&gt;Node4</title>
<g id="a_edge44_Node000025_Node000004"><a xlink:title=" ">
<path fill="none" stroke="#63b8ff" d="M1124.94,-178.59C1091.35,-167.42 1043.2,-151.4 1013.3,-141.46"/>
<polygon fill="#63b8ff" stroke="#63b8ff" points="1123.7,-181.87 1134.3,-181.7 1125.91,-175.22 1123.7,-181.87"/>
</a>
</g>
</g>
<!-- Node26&#45;&gt;Node4 -->
<g id="edge46_Node000026_Node000004" class="edge">
<title>Node26&#45;&gt;Node4</title>
<g id="a_edge46_Node000026_Node000004"><a xlink:title=" ">
<path fill="none" stroke="#63b8ff" d="M1248.27,-179.38C1244.8,-178.54 1241.35,-177.74 1238,-177 1163.58,-160.62 1075.78,-146.16 1025.92,-138.4"/>
<polygon fill="#63b8ff" stroke="#63b8ff" points="1247.25,-182.73 1257.8,-181.78 1248.95,-175.95 1247.25,-182.73"/>
</a>
</g>
</g>
<!-- Node27&#45;&gt;Node4 -->
<g id="edge50_Node000027_Node000004" class="edge">
<title>Node27&#45;&gt;Node4</title>
<g id="a_edge50_Node000027_Node000004"><a xlink:title=" ">
<path fill="none" stroke="#63b8ff" d="M1450.56,-302.32C1441.25,-294.34 1430.45,-284.26 1422,-274 1389.91,-235.06 1405.45,-204.28 1363,-177 1307.9,-141.6 1111.12,-134.27 1025.86,-132.76"/>
<polygon fill="#63b8ff" stroke="#63b8ff" points="1448.14,-304.86 1458.07,-308.56 1452.61,-299.48 1448.14,-304.86"/>
</a>
</g>
</g>
<!-- Node27&#45;&gt;Node28 -->
<g id="edge51_Node000027_Node000028" class="edge">
<title>Node27&#45;&gt;Node28</title>
<g id="a_edge51_Node000027_Node000028"><a xlink:title=" ">
<path fill="none" stroke="#63b8ff" d="M1481.22,-299.82C1485.71,-291.55 1490.91,-281.99 1495.1,-274.28"/>
<polygon fill="#63b8ff" stroke="#63b8ff" points="1478.28,-297.9 1476.58,-308.35 1484.43,-301.24 1478.28,-297.9"/>
</a>
</g>
</g>
<!-- Node28&#45;&gt;Node4 -->
<g id="edge52_Node000028_Node000004" class="edge">
<title>Node28&#45;&gt;Node4</title>
<g id="a_edge52_Node000028_Node000004"><a xlink:title=" ">
<path fill="none" stroke="#63b8ff" d="M1485.26,-234.14C1469.57,-215.2 1444.89,-189.74 1417,-177 1347.81,-145.39 1118.93,-135.87 1025.87,-133.27"/>
<polygon fill="#63b8ff" stroke="#63b8ff" points="1482.49,-236.28 1491.47,-241.9 1487.96,-231.91 1482.49,-236.28"/>
</a>
</g>
</g>
<!-- Node29&#45;&gt;Node4 -->
<g id="edge55_Node000029_Node000004" class="edge">
<title>Node29&#45;&gt;Node4</title>
<g id="a_edge55_Node000029_Node000004"><a xlink:title=" ">
<path fill="none" stroke="#63b8ff" d="M1330.37,-240.42C1345.11,-222.71 1362.16,-195.28 1346,-177 1325.04,-153.29 1115.07,-139.3 1025.81,-134.39"/>
<polygon fill="#63b8ff" stroke="#63b8ff" points="1328.06,-237.75 1324.07,-247.56 1333.31,-242.38 1328.06,-237.75"/>
</a>
</g>
</g>
<!-- Node30&#45;&gt;Node4 -->
<g id="edge57_Node000030_Node000004" class="edge">
<title>Node30&#45;&gt;Node4</title>
<g id="a_edge57_Node000030_Node000004"><a xlink:title=" ">
<path fill="none" stroke="#63b8ff" d="M1638.57,-243.91C1597.69,-225.35 1520.97,-192.9 1452,-177 1297.17,-141.3 1107.05,-134.1 1025.84,-132.69"/>
<polygon fill="#63b8ff" stroke="#63b8ff" points="1636.95,-247.02 1647.5,-248.01 1639.87,-240.66 1636.95,-247.02"/>
</a>
</g>
</g>
<!-- Node31&#45;&gt;Node4 -->
<g id="edge59_Node000031_Node000004" class="edge">
<title>Node31&#45;&gt;Node4</title>
<g id="a_edge59_Node000031_Node000004"><a xlink:title=" ">
<path fill="none" stroke="#63b8ff" d="M1653.77,-182.48C1637.16,-180.53 1619.46,-178.57 1603,-177 1385.43,-156.23 1123.88,-140.28 1025.75,-134.61"/>
<polygon fill="#63b8ff" stroke="#63b8ff" points="1653.23,-185.94 1663.57,-183.65 1654.06,-178.99 1653.23,-185.94"/>
</a>
</g>
</g>
<!-- Node32&#45;&gt;Node4 -->
<g id="edge61_Node000032_Node000004" class="edge">
<title>Node32&#45;&gt;Node4</title>
<g id="a_edge61_Node000032_Node000004"><a xlink:title=" ">
<path fill="none" stroke="#63b8ff" d="M83.67,-238.48C76.32,-220.19 69.63,-193.15 85,-177 115.08,-145.39 775.7,-135 946.16,-132.84"/>
<polygon fill="#63b8ff" stroke="#63b8ff" points="80.38,-239.71 87.64,-247.42 86.78,-236.86 80.38,-239.71"/>
</a>
</g>
</g>
<!-- Node33&#45;&gt;Node4 -->
<g id="edge63_Node000033_Node000004" class="edge">
<title>Node33&#45;&gt;Node4</title>
<g id="a_edge63_Node000033_Node000004"><a xlink:title=" ">
<path fill="none" stroke="#63b8ff" d="M178.25,-245.56C145,-236 104.92,-221.93 95,-207.5 87.32,-196.33 85.66,-186.82 95,-177 124.7,-145.77 776.57,-135.11 946.03,-132.86"/>
<polygon fill="#63b8ff" stroke="#63b8ff" points="177.18,-248.9 187.75,-248.22 179.06,-242.15 177.18,-248.9"/>
</a>
</g>
</g>
<!-- Node34&#45;&gt;Node4 -->
<g id="edge65_Node000034_Node000004" class="edge">
<title>Node34&#45;&gt;Node4</title>
<g id="a_edge65_Node000034_Node000004"><a xlink:title=" ">
<path fill="none" stroke="#63b8ff" d="M210.66,-180.01C216.81,-178.85 223.03,-177.81 229,-177 501.68,-140.18 833.68,-133.74 946.39,-132.61"/>
<polygon fill="#63b8ff" stroke="#63b8ff" points="210.35,-176.5 201.22,-181.89 211.72,-183.36 210.35,-176.5"/>
</a>
</g>
</g>
</g>
</svg>
