<?xml version="1.0" encoding="UTF-8" standalone="no"?>
<!DOCTYPE svg PUBLIC "-//W3C//DTD SVG 1.1//EN"
 "http://www.w3.org/Graphics/SVG/1.1/DTD/svg11.dtd">
<!-- Generated by graphviz version 12.2.1 (20241206.2353)
 -->
<!-- Title: model/Block.h Pages: 1 -->
<svg width="899pt" height="193pt"
 viewBox="0.00 0.00 899.44 193.00" xmlns="http://www.w3.org/2000/svg" xmlns:xlink="http://www.w3.org/1999/xlink">
<g id="graph0" class="graph" transform="scale(1 1) rotate(0) translate(4 189)">
<title>model/Block.h</title>
<!-- Node1 -->
<g id="Node000001" class="node">
<title>Node1</title>
<g id="a_Node000001"><a xlink:title="model::Block source file">
<polygon fill="#999999" stroke="#666666" points="231.38,-185 153.88,-185 153.88,-165.75 231.38,-165.75 231.38,-185"/>
<text text-anchor="middle" x="192.62" y="-171.5" font-family="Helvetica,sans-Serif" font-size="10.00">model/Block.h</text>
</a>
</g>
</g>
<!-- Node2 -->
<g id="Node000002" class="node">
<title>Node2</title>
<g id="a_Node000002"><a xlink:title=" ">
<polygon fill="#e0e0e0" stroke="#999999" points="63.25,-74.5 0,-74.5 0,-55.25 63.25,-55.25 63.25,-74.5"/>
<text text-anchor="middle" x="31.62" y="-61" font-family="Helvetica,sans-Serif" font-size="10.00">Eigen/Core</text>
</a>
</g>
</g>
<!-- Node1&#45;&gt;Node2 -->
<g id="edge1_Node000001_Node000002" class="edge">
<title>Node1&#45;&gt;Node2</title>
<g id="a_edge1_Node000001_Node000002"><a xlink:title=" ">
<path fill="none" stroke="#63b8ff" d="M153.39,-169.48C108.81,-163.01 40.22,-150.02 24.62,-129.75 14.96,-117.18 18.19,-98.86 22.97,-85.07"/>
<polygon fill="#63b8ff" stroke="#63b8ff" points="26.07,-86.76 26.54,-76.17 19.57,-84.15 26.07,-86.76"/>
</a>
</g>
</g>
<!-- Node3 -->
<g id="Node000003" class="node">
<title>Node3</title>
<g id="a_Node000003"><a xlink:title=" ">
<polygon fill="#e0e0e0" stroke="#999999" points="127.03,-129.75 98.22,-129.75 98.22,-110.5 127.03,-110.5 127.03,-129.75"/>
<text text-anchor="middle" x="112.62" y="-116.25" font-family="Helvetica,sans-Serif" font-size="10.00">list</text>
</a>
</g>
</g>
<!-- Node1&#45;&gt;Node3 -->
<g id="edge2_Node000001_Node000003" class="edge">
<title>Node1&#45;&gt;Node3</title>
<g id="a_edge2_Node000001_Node000003"><a xlink:title=" ">
<path fill="none" stroke="#63b8ff" d="M179.05,-165.34C167.22,-157.46 149.79,-145.86 135.75,-136.52"/>
<polygon fill="#63b8ff" stroke="#63b8ff" points="137.79,-133.67 127.52,-131.04 133.91,-139.5 137.79,-133.67"/>
</a>
</g>
</g>
<!-- Node4 -->
<g id="Node000004" class="node">
<title>Node4</title>
<g id="a_Node000004"><a xlink:title=" ">
<polygon fill="#e0e0e0" stroke="#999999" points="196,-19.25 161.25,-19.25 161.25,0 196,0 196,-19.25"/>
<text text-anchor="middle" x="178.62" y="-5.75" font-family="Helvetica,sans-Serif" font-size="10.00">map</text>
</a>
</g>
</g>
<!-- Node1&#45;&gt;Node4 -->
<g id="edge3_Node000001_Node000004" class="edge">
<title>Node1&#45;&gt;Node4</title>
<g id="a_edge3_Node000001_Node000004"><a xlink:title=" ">
<path fill="none" stroke="#63b8ff" d="M188.89,-165.34C185.45,-156.46 180.57,-142.43 178.62,-129.75 173.37,-95.42 175.01,-54.88 176.76,-31.04"/>
<polygon fill="#63b8ff" stroke="#63b8ff" points="180.24,-31.42 177.57,-21.17 173.26,-30.85 180.24,-31.42"/>
</a>
</g>
</g>
<!-- Node5 -->
<g id="Node000005" class="node">
<title>Node5</title>
<g id="a_Node000005"><a xlink:title=" ">
<polygon fill="#e0e0e0" stroke="#999999" points="281.12,-19.25 238.12,-19.25 238.12,0 281.12,0 281.12,-19.25"/>
<text text-anchor="middle" x="259.62" y="-5.75" font-family="Helvetica,sans-Serif" font-size="10.00">vector</text>
</a>
</g>
</g>
<!-- Node1&#45;&gt;Node5 -->
<g id="edge4_Node000001_Node000005" class="edge">
<title>Node1&#45;&gt;Node5</title>
<g id="a_edge4_Node000001_Node000005"><a xlink:title=" ">
<path fill="none" stroke="#63b8ff" d="M192.14,-165.39C191.4,-144.65 191.81,-92.39 211.62,-55.25 217.65,-43.96 227.65,-33.97 236.97,-26.32"/>
<polygon fill="#63b8ff" stroke="#63b8ff" points="238.87,-29.27 244.68,-20.42 234.61,-23.72 238.87,-29.27"/>
</a>
</g>
</g>
<!-- Node6 -->
<g id="Node000006" class="node">
<title>Node6</title>
<g id="a_Node000006"><a xlink:href="_block_type_8h.html" target="_top" xlink:title="Specifies the types of blocks and their parameters.">
<polygon fill="white" stroke="#666666" points="862.25,-129.75 793,-129.75 793,-110.5 862.25,-110.5 862.25,-129.75"/>
<text text-anchor="middle" x="827.62" y="-116.25" font-family="Helvetica,sans-Serif" font-size="10.00">BlockType.h</text>
</a>
</g>
</g>
<!-- Node1&#45;&gt;Node6 -->
<g id="edge5_Node000001_Node000006" class="edge">
<title>Node1&#45;&gt;Node6</title>
<g id="a_edge5_Node000001_Node000006"><a xlink:title=" ">
<path fill="none" stroke="#63b8ff" d="M231.87,-171.08C343.35,-161.74 661.57,-135.05 781.31,-125.01"/>
<polygon fill="#63b8ff" stroke="#63b8ff" points="781.42,-128.51 791.09,-124.19 780.83,-121.54 781.42,-128.51"/>
</a>
</g>
</g>
<!-- Node8 -->
<g id="Node000008" class="node">
<title>Node8</title>
<g id="a_Node000008"><a xlink:href="_d_o_f_handler_8h.html" target="_top" xlink:title="model::DOFHandler source file">
<polygon fill="white" stroke="#666666" points="298.38,-74.5 220.88,-74.5 220.88,-55.25 298.38,-55.25 298.38,-74.5"/>
<text text-anchor="middle" x="259.62" y="-61" font-family="Helvetica,sans-Serif" font-size="10.00">DOFHandler.h</text>
</a>
</g>
</g>
<!-- Node1&#45;&gt;Node8 -->
<g id="edge7_Node000001_Node000008" class="edge">
<title>Node1&#45;&gt;Node8</title>
<g id="a_edge7_Node000001_Node000008"><a xlink:title=" ">
<path fill="none" stroke="#63b8ff" d="M198.11,-165.5C209,-147.85 233.58,-108.05 248.16,-84.45"/>
<polygon fill="#63b8ff" stroke="#63b8ff" points="250.99,-86.51 253.27,-76.16 245.04,-82.83 250.99,-86.51"/>
</a>
</g>
</g>
<!-- Node9 -->
<g id="Node000009" class="node">
<title>Node9</title>
<g id="a_Node000009"><a xlink:href="_parameter_8h.html" target="_top" xlink:title="model::Parameter source file">
<polygon fill="white" stroke="#666666" points="436.88,-129.75 368.38,-129.75 368.38,-110.5 436.88,-110.5 436.88,-129.75"/>
<text text-anchor="middle" x="402.62" y="-116.25" font-family="Helvetica,sans-Serif" font-size="10.00">Parameter.h</text>
</a>
</g>
</g>
<!-- Node1&#45;&gt;Node9 -->
<g id="edge11_Node000001_Node000009" class="edge">
<title>Node1&#45;&gt;Node9</title>
<g id="a_edge11_Node000001_Node000009"><a xlink:title=" ">
<path fill="none" stroke="#63b8ff" d="M228.25,-165.34C263.72,-156.35 318.3,-142.51 356.93,-132.71"/>
<polygon fill="#63b8ff" stroke="#63b8ff" points="357.58,-136.16 366.41,-130.31 355.86,-129.37 357.58,-136.16"/>
</a>
</g>
</g>
<!-- Node14 -->
<g id="Node000014" class="node">
<title>Node14</title>
<g id="a_Node000014"><a xlink:href="_sparse_system_8h.html" target="_top" xlink:title="SparseSystem source file.">
<polygon fill="white" stroke="#666666" points="698.25,-129.75 611,-129.75 611,-110.5 698.25,-110.5 698.25,-129.75"/>
<text text-anchor="middle" x="654.62" y="-116.25" font-family="Helvetica,sans-Serif" font-size="10.00">SparseSystem.h</text>
</a>
</g>
</g>
<!-- Node1&#45;&gt;Node14 -->
<g id="edge18_Node000001_Node000014" class="edge">
<title>Node1&#45;&gt;Node14</title>
<g id="a_edge18_Node000001_Node000014"><a xlink:title=" ">
<path fill="none" stroke="#63b8ff" d="M231.62,-169.88C313.69,-160.42 504.48,-138.43 599.21,-127.51"/>
<polygon fill="#63b8ff" stroke="#63b8ff" points="599.51,-131 609.05,-126.38 598.71,-124.05 599.51,-131"/>
</a>
</g>
</g>
<!-- Node18 -->
<g id="Node000018" class="node">
<title>Node18</title>
<g id="a_Node000018"><a xlink:href="_state_8h.html" target="_top" xlink:title="State source file.">
<polygon fill="white" stroke="#666666" points="80,-129.75 33.25,-129.75 33.25,-110.5 80,-110.5 80,-129.75"/>
<text text-anchor="middle" x="56.62" y="-116.25" font-family="Helvetica,sans-Serif" font-size="10.00">State.h</text>
</a>
</g>
</g>
<!-- Node1&#45;&gt;Node18 -->
<g id="edge23_Node000001_Node000018" class="edge">
<title>Node1&#45;&gt;Node18</title>
<g id="a_edge23_Node000001_Node000018"><a xlink:title=" ">
<path fill="none" stroke="#63b8ff" d="M169.55,-165.34C147.87,-156.85 115.14,-144.04 90.5,-134.39"/>
<polygon fill="#63b8ff" stroke="#63b8ff" points="91.81,-131.14 81.22,-130.75 89.25,-137.66 91.81,-131.14"/>
</a>
</g>
</g>
<!-- Node7 -->
<g id="Node000007" class="node">
<title>Node7</title>
<g id="a_Node000007"><a xlink:title=" ">
<polygon fill="#e0e0e0" stroke="#999999" points="632.62,-19.25 592.62,-19.25 592.62,0 632.62,0 632.62,-19.25"/>
<text text-anchor="middle" x="612.62" y="-5.75" font-family="Helvetica,sans-Serif" font-size="10.00">string</text>
</a>
</g>
</g>
<!-- Node6&#45;&gt;Node7 -->
<g id="edge6_Node000006_Node000007" class="edge">
<title>Node6&#45;&gt;Node7</title>
<g id="a_edge6_Node000006_Node000007"><a xlink:title=" ">
<path fill="none" stroke="#63b8ff" d="M846.75,-110.03C869.88,-97.83 903.74,-75.38 886.62,-55.25 855.76,-18.96 709.16,-12.11 643.99,-10.87"/>
<polygon fill="#63b8ff" stroke="#63b8ff" points="644.38,-7.37 634.32,-10.72 644.27,-14.37 644.38,-7.37"/>
</a>
</g>
</g>
<!-- Node8&#45;&gt;Node4 -->
<g id="edge8_Node000008_Node000004" class="edge">
<title>Node8&#45;&gt;Node4</title>
<g id="a_edge8_Node000008_Node000004"><a xlink:title=" ">
<path fill="none" stroke="#63b8ff" d="M245.88,-54.84C233.9,-46.96 216.25,-35.36 202.04,-26.02"/>
<polygon fill="#63b8ff" stroke="#63b8ff" points="203.98,-23.1 193.7,-20.53 200.13,-28.95 203.98,-23.1"/>
</a>
</g>
</g>
<!-- Node8&#45;&gt;Node5 -->
<g id="edge10_Node000008_Node000005" class="edge">
<title>Node8&#45;&gt;Node5</title>
<g id="a_edge10_Node000008_Node000005"><a xlink:title=" ">
<path fill="none" stroke="#63b8ff" d="M259.62,-55.08C259.62,-48.57 259.62,-39.42 259.62,-31.12"/>
<polygon fill="#63b8ff" stroke="#63b8ff" points="263.13,-31.12 259.63,-21.12 256.13,-31.12 263.13,-31.12"/>
</a>
</g>
</g>
<!-- Node8&#45;&gt;Node7 -->
<g id="edge9_Node000008_Node000007" class="edge">
<title>Node8&#45;&gt;Node7</title>
<g id="a_edge9_Node000008_Node000007"><a xlink:title=" ">
<path fill="none" stroke="#63b8ff" d="M298.64,-56.76C301.68,-56.23 304.7,-55.73 307.62,-55.25 407.27,-39.01 525.69,-22.47 581.1,-14.89"/>
<polygon fill="#63b8ff" stroke="#63b8ff" points="581.31,-18.4 590.74,-13.58 580.36,-11.46 581.31,-18.4"/>
</a>
</g>
</g>
<!-- Node9&#45;&gt;Node5 -->
<g id="edge16_Node000009_Node000005" class="edge">
<title>Node9&#45;&gt;Node5</title>
<g id="a_edge16_Node000009_Node000005"><a xlink:title=" ">
<path fill="none" stroke="#63b8ff" d="M413.51,-110.29C428.07,-97.42 450.52,-73.09 436.62,-55.25 419.11,-32.77 338.85,-19.85 292.65,-14.15"/>
<polygon fill="#63b8ff" stroke="#63b8ff" points="293.26,-10.7 282.92,-13.01 292.44,-17.66 293.26,-10.7"/>
</a>
</g>
</g>
<!-- Node9&#45;&gt;Node8 -->
<g id="edge17_Node000009_Node000008" class="edge">
<title>Node9&#45;&gt;Node8</title>
<g id="a_edge17_Node000009_Node000008"><a xlink:title=" ">
<path fill="none" stroke="#63b8ff" d="M378.37,-110.09C355.36,-101.52 320.53,-88.56 294.54,-78.88"/>
<polygon fill="#63b8ff" stroke="#63b8ff" points="296.01,-75.69 285.42,-75.48 293.57,-82.25 296.01,-75.69"/>
</a>
</g>
</g>
<!-- Node10 -->
<g id="Node000010" class="node">
<title>Node10</title>
<g id="a_Node000010"><a xlink:title=" ">
<polygon fill="#e0e0e0" stroke="#999999" points="539.5,-74.5 483.75,-74.5 483.75,-55.25 539.5,-55.25 539.5,-74.5"/>
<text text-anchor="middle" x="511.62" y="-61" font-family="Helvetica,sans-Serif" font-size="10.00">algorithm</text>
</a>
</g>
</g>
<!-- Node9&#45;&gt;Node10 -->
<g id="edge12_Node000009_Node000010" class="edge">
<title>Node9&#45;&gt;Node10</title>
<g id="a_edge12_Node000009_Node000010"><a xlink:title=" ">
<path fill="none" stroke="#63b8ff" d="M421.12,-110.09C438.03,-101.83 463.31,-89.48 482.86,-79.93"/>
<polygon fill="#63b8ff" stroke="#63b8ff" points="484.24,-83.15 491.68,-75.62 481.16,-76.86 484.24,-83.15"/>
</a>
</g>
</g>
<!-- Node11 -->
<g id="Node000011" class="node">
<title>Node11</title>
<g id="a_Node000011"><a xlink:title=" ">
<polygon fill="#e0e0e0" stroke="#999999" points="359.12,-74.5 316.12,-74.5 316.12,-55.25 359.12,-55.25 359.12,-74.5"/>
<text text-anchor="middle" x="337.62" y="-61" font-family="Helvetica,sans-Serif" font-size="10.00">cmath</text>
</a>
</g>
</g>
<!-- Node9&#45;&gt;Node11 -->
<g id="edge13_Node000009_Node000011" class="edge">
<title>Node9&#45;&gt;Node11</title>
<g id="a_edge13_Node000009_Node000011"><a xlink:title=" ">
<path fill="none" stroke="#63b8ff" d="M391.6,-110.09C382.2,-102.4 368.48,-91.15 357.22,-81.93"/>
<polygon fill="#63b8ff" stroke="#63b8ff" points="359.61,-79.36 349.66,-75.73 355.18,-84.78 359.61,-79.36"/>
</a>
</g>
</g>
<!-- Node12 -->
<g id="Node000012" class="node">
<title>Node12</title>
<g id="a_Node000012"><a xlink:title=" ">
<polygon fill="#e0e0e0" stroke="#999999" points="611.38,-74.5 557.88,-74.5 557.88,-55.25 611.38,-55.25 611.38,-74.5"/>
<text text-anchor="middle" x="584.62" y="-61" font-family="Helvetica,sans-Serif" font-size="10.00">iostream</text>
</a>
</g>
</g>
<!-- Node9&#45;&gt;Node12 -->
<g id="edge14_Node000009_Node000012" class="edge">
<title>Node9&#45;&gt;Node12</title>
<g id="a_edge14_Node000009_Node000012"><a xlink:title=" ">
<path fill="none" stroke="#63b8ff" d="M433.5,-110.09C464.75,-100.95 513.13,-86.79 546.7,-76.97"/>
<polygon fill="#63b8ff" stroke="#63b8ff" points="547.4,-80.41 556.02,-74.25 545.44,-73.69 547.4,-80.41"/>
</a>
</g>
</g>
<!-- Node13 -->
<g id="Node000013" class="node">
<title>Node13</title>
<g id="a_Node000013"><a xlink:title=" ">
<polygon fill="#e0e0e0" stroke="#999999" points="427.88,-74.5 377.38,-74.5 377.38,-55.25 427.88,-55.25 427.88,-74.5"/>
<text text-anchor="middle" x="402.62" y="-61" font-family="Helvetica,sans-Serif" font-size="10.00">numeric</text>
</a>
</g>
</g>
<!-- Node9&#45;&gt;Node13 -->
<g id="edge15_Node000009_Node000013" class="edge">
<title>Node9&#45;&gt;Node13</title>
<g id="a_edge15_Node000009_Node000013"><a xlink:title=" ">
<path fill="none" stroke="#63b8ff" d="M402.62,-110.33C402.62,-103.82 402.62,-94.67 402.62,-86.37"/>
<polygon fill="#63b8ff" stroke="#63b8ff" points="406.13,-86.37 402.63,-76.37 399.13,-86.37 406.13,-86.37"/>
</a>
</g>
</g>
<!-- Node14&#45;&gt;Node12 -->
<g id="edge21_Node000014_Node000012" class="edge">
<title>Node14&#45;&gt;Node12</title>
<g id="a_edge21_Node000014_Node000012"><a xlink:title=" ">
<path fill="none" stroke="#63b8ff" d="M642.75,-110.09C632.53,-102.32 617.55,-90.92 605.36,-81.65"/>
<polygon fill="#63b8ff" stroke="#63b8ff" points="607.61,-78.96 597.53,-75.69 603.37,-84.53 607.61,-78.96"/>
</a>
</g>
</g>
<!-- Node15 -->
<g id="Node000015" class="node">
<title>Node15</title>
<g id="a_Node000015"><a xlink:title=" ">
<polygon fill="#e0e0e0" stroke="#999999" points="771.5,-74.5 697.75,-74.5 697.75,-55.25 771.5,-55.25 771.5,-74.5"/>
<text text-anchor="middle" x="734.62" y="-61" font-family="Helvetica,sans-Serif" font-size="10.00">Eigen/Sparse</text>
</a>
</g>
</g>
<!-- Node14&#45;&gt;Node15 -->
<g id="edge19_Node000014_Node000015" class="edge">
<title>Node14&#45;&gt;Node15</title>
<g id="a_edge19_Node000014_Node000015"><a xlink:title=" ">
<path fill="none" stroke="#63b8ff" d="M668.2,-110.09C680.03,-102.21 697.46,-90.61 711.5,-81.27"/>
<polygon fill="#63b8ff" stroke="#63b8ff" points="713.34,-84.25 719.73,-75.79 709.46,-78.42 713.34,-84.25"/>
</a>
</g>
</g>
<!-- Node16 -->
<g id="Node000016" class="node">
<title>Node16</title>
<g id="a_Node000016"><a xlink:title=" ">
<polygon fill="#e0e0e0" stroke="#999999" points="877.25,-74.5 790,-74.5 790,-55.25 877.25,-55.25 877.25,-74.5"/>
<text text-anchor="middle" x="833.62" y="-61" font-family="Helvetica,sans-Serif" font-size="10.00">Eigen/SparseLU</text>
</a>
</g>
</g>
<!-- Node14&#45;&gt;Node16 -->
<g id="edge20_Node000014_Node000016" class="edge">
<title>Node14&#45;&gt;Node16</title>
<g id="a_edge20_Node000014_Node000016"><a xlink:title=" ">
<path fill="none" stroke="#63b8ff" d="M684.99,-110.09C714.43,-101.33 759.33,-87.98 792.08,-78.23"/>
<polygon fill="#63b8ff" stroke="#63b8ff" points="793.07,-81.59 801.66,-75.38 791.08,-74.88 793.07,-81.59"/>
</a>
</g>
</g>
<!-- Node17 -->
<g id="Node000017" class="node">
<title>Node17</title>
<g id="a_Node000017"><a xlink:title=" ">
<polygon fill="#e0e0e0" stroke="#999999" points="679.88,-74.5 629.38,-74.5 629.38,-55.25 679.88,-55.25 679.88,-74.5"/>
<text text-anchor="middle" x="654.62" y="-61" font-family="Helvetica,sans-Serif" font-size="10.00">memory</text>
</a>
</g>
</g>
<!-- Node14&#45;&gt;Node17 -->
<g id="edge22_Node000014_Node000017" class="edge">
<title>Node14&#45;&gt;Node17</title>
<g id="a_edge22_Node000014_Node000017"><a xlink:title=" ">
<path fill="none" stroke="#63b8ff" d="M654.62,-110.33C654.62,-103.82 654.62,-94.67 654.62,-86.37"/>
<polygon fill="#63b8ff" stroke="#63b8ff" points="658.13,-86.37 654.63,-76.37 651.13,-86.37 658.13,-86.37"/>
</a>
</g>
</g>
<!-- Node18&#45;&gt;Node2 -->
<g id="edge24_Node000018_Node000002" class="edge">
<title>Node18&#45;&gt;Node2</title>
<g id="a_edge24_Node000018_Node000002"><a xlink:title=" ">
<path fill="none" stroke="#63b8ff" d="M52.5,-110.33C49.3,-103.51 44.74,-93.81 40.7,-85.2"/>
<polygon fill="#63b8ff" stroke="#63b8ff" points="43.9,-83.79 36.49,-76.23 37.57,-86.77 43.9,-83.79"/>
</a>
</g>
</g>
</g>
</svg>
