<?xml version="1.0" encoding="UTF-8" standalone="no"?>
<!DOCTYPE svg PUBLIC "-//W3C//DTD SVG 1.1//EN"
 "http://www.w3.org/Graphics/SVG/1.1/DTD/svg11.dtd">
<!-- Generated by graphviz version 12.2.1 (20241206.2353)
 -->
<!-- Title: model/BlockType.h Pages: 1 -->
<svg width="2056pt" height="448pt"
 viewBox="0.00 0.00 2055.51 447.75" xmlns="http://www.w3.org/2000/svg" xmlns:xlink="http://www.w3.org/1999/xlink">
<g id="graph0" class="graph" transform="scale(1 1) rotate(0) translate(4 443.75)">
<title>model/BlockType.h</title>
<!-- Node1 -->
<g id="Node000001" class="node">
<title>Node1</title>
<g id="a_Node000001"><a xlink:title="Specifies the types of blocks and their parameters.">
<polygon fill="#999999" stroke="#666666" points="1199.76,-439.75 1101.26,-439.75 1101.26,-420.5 1199.76,-420.5 1199.76,-439.75"/>
<text text-anchor="middle" x="1150.51" y="-426.25" font-family="Helvetica,sans-Serif" font-size="10.00">model/BlockType.h</text>
</a>
</g>
</g>
<!-- Node2 -->
<g id="Node000002" class="node">
<title>Node2</title>
<g id="a_Node000002"><a xlink:href="_block_8h.html" target="_top" xlink:title="model::Block source file">
<polygon fill="white" stroke="#666666" points="1142.26,-384.5 1064.76,-384.5 1064.76,-365.25 1142.26,-365.25 1142.26,-384.5"/>
<text text-anchor="middle" x="1103.51" y="-371" font-family="Helvetica,sans-Serif" font-size="10.00">model/Block.h</text>
</a>
</g>
</g>
<!-- Node1&#45;&gt;Node2 -->
<g id="edge1_Node000001_Node000002" class="edge">
<title>Node1&#45;&gt;Node2</title>
<g id="a_edge1_Node000001_Node000002"><a xlink:title=" ">
<path fill="none" stroke="#63b8ff" d="M1135.18,-411.76C1127.26,-402.78 1117.92,-392.2 1111.44,-384.86"/>
<polygon fill="#63b8ff" stroke="#63b8ff" points="1132.51,-414.02 1141.75,-419.2 1137.76,-409.38 1132.51,-414.02"/>
</a>
</g>
</g>
<!-- Node35 -->
<g id="Node000035" class="node">
<title>Node35</title>
<g id="a_Node000035"><a xlink:href="_node_8h.html" target="_top" xlink:title="model::Node source file">
<polygon fill="white" stroke="#666666" points="1676.51,-384.5 1600.51,-384.5 1600.51,-365.25 1676.51,-365.25 1676.51,-384.5"/>
<text text-anchor="middle" x="1638.51" y="-371" font-family="Helvetica,sans-Serif" font-size="10.00">model/Node.h</text>
</a>
</g>
</g>
<!-- Node1&#45;&gt;Node35 -->
<g id="edge66_Node000001_Node000035" class="edge">
<title>Node1&#45;&gt;Node35</title>
<g id="a_edge66_Node000001_Node000035"><a xlink:title=" ">
<path fill="none" stroke="#63b8ff" d="M1211.32,-422.49C1313.32,-411.36 1515.97,-389.25 1600.3,-380.04"/>
<polygon fill="#63b8ff" stroke="#63b8ff" points="1211.06,-419 1201.49,-423.56 1211.82,-425.96 1211.06,-419"/>
</a>
</g>
</g>
<!-- Node3 -->
<g id="Node000003" class="node">
<title>Node3</title>
<g id="a_Node000003"><a xlink:href="_block_factory_8h.html" target="_top" xlink:title="Define the block factory functional.">
<polygon fill="white" stroke="#666666" points="2012.39,-268.38 1902.64,-268.38 1902.64,-249.12 2012.39,-249.12 2012.39,-268.38"/>
<text text-anchor="middle" x="1957.51" y="-254.88" font-family="Helvetica,sans-Serif" font-size="10.00">model/BlockFactory.h</text>
</a>
</g>
</g>
<!-- Node2&#45;&gt;Node3 -->
<g id="edge2_Node000002_Node000003" class="edge">
<title>Node2&#45;&gt;Node3</title>
<g id="a_edge2_Node000002_Node000003"><a xlink:title=" ">
<path fill="none" stroke="#63b8ff" d="M1153.65,-372.6C1289.54,-368.84 1662.7,-356.27 1782.51,-329.25 1842.78,-315.66 1909.45,-284.25 1940.21,-268.75"/>
<polygon fill="#63b8ff" stroke="#63b8ff" points="1153.8,-369.1 1143.9,-372.87 1153.99,-376.1 1153.8,-369.1"/>
</a>
</g>
</g>
<!-- Node4 -->
<g id="Node000004" class="node">
<title>Node4</title>
<g id="a_Node000004"><a xlink:href="_model_8h.html" target="_top" xlink:title="model::Model source file">
<polygon fill="white" stroke="#666666" points="1092.01,-141 1013.01,-141 1013.01,-121.75 1092.01,-121.75 1092.01,-141"/>
<text text-anchor="middle" x="1052.51" y="-127.5" font-family="Helvetica,sans-Serif" font-size="10.00">model/Model.h</text>
</a>
</g>
</g>
<!-- Node2&#45;&gt;Node4 -->
<g id="edge48_Node000002_Node000004" class="edge">
<title>Node2&#45;&gt;Node4</title>
<g id="a_edge48_Node000002_Node000004"><a xlink:title=" ">
<path fill="none" stroke="#63b8ff" d="M1153.83,-374.46C1272.11,-375.03 1576.66,-371.85 1826.51,-329.25 1919.84,-313.34 2074.41,-322.02 2021.51,-243.5 1977.57,-178.27 1934.26,-194.19 1857.51,-177 1709.14,-143.77 1232.85,-134.8 1092.06,-132.85"/>
<polygon fill="#63b8ff" stroke="#63b8ff" points="1154.18,-370.96 1144.16,-374.4 1154.14,-377.96 1154.18,-370.96"/>
</a>
</g>
</g>
<!-- Node8 -->
<g id="Node000008" class="node">
<title>Node8</title>
<g id="a_Node000008"><a xlink:href="_linear_elastance_chamber_8h.html" target="_top" xlink:title="model::LinearElastanceChamber source file">
<polygon fill="white" stroke="#666666" points="690.26,-80.12 528.76,-80.12 528.76,-60.88 690.26,-60.88 690.26,-80.12"/>
<text text-anchor="middle" x="609.51" y="-66.62" font-family="Helvetica,sans-Serif" font-size="10.00">model/LinearElastanceChamber.h</text>
</a>
</g>
</g>
<!-- Node2&#45;&gt;Node8 -->
<g id="edge47_Node000002_Node000008" class="edge">
<title>Node2&#45;&gt;Node8</title>
<g id="a_edge47_Node000002_Node000008"><a xlink:title=" ">
<path fill="none" stroke="#63b8ff" d="M1052.93,-373.44C844.51,-371.43 61.33,-361.76 20.51,-329.25 -4.54,-309.3 1.51,-291.77 1.51,-259.75 1.51,-259.75 1.51,-259.75 1.51,-191.25 1.51,-85.08 362.93,-71.44 528.46,-70.76"/>
<polygon fill="#63b8ff" stroke="#63b8ff" points="1052.86,-376.94 1062.89,-373.53 1052.93,-369.94 1052.86,-376.94"/>
</a>
</g>
</g>
<!-- Node13 -->
<g id="Node000013" class="node">
<title>Node13</title>
<g id="a_Node000013"><a xlink:href="_blood_vessel_8h.html" target="_top" xlink:title="model::BloodVessel source file">
<polygon fill="white" stroke="#666666" points="137.26,-329.25 29.76,-329.25 29.76,-310 137.26,-310 137.26,-329.25"/>
<text text-anchor="middle" x="83.51" y="-315.75" font-family="Helvetica,sans-Serif" font-size="10.00">model/BloodVessel.h</text>
</a>
</g>
</g>
<!-- Node2&#45;&gt;Node13 -->
<g id="edge17_Node000002_Node000013" class="edge">
<title>Node2&#45;&gt;Node13</title>
<g id="a_edge17_Node000002_Node000013"><a xlink:title=" ">
<path fill="none" stroke="#63b8ff" d="M1053.12,-372.92C911.09,-369.93 495.43,-359.07 151.51,-329.25 147.01,-328.86 142.34,-328.39 137.66,-327.89"/>
<polygon fill="#63b8ff" stroke="#63b8ff" points="1052.86,-376.42 1062.93,-373.12 1053.01,-369.42 1052.86,-376.42"/>
</a>
</g>
</g>
<!-- Node14 -->
<g id="Node000014" class="node">
<title>Node14</title>
<g id="a_Node000014"><a xlink:href="_blood_vessel_junction_8h.html" target="_top" xlink:title="model::BloodVesselJunction source file">
<polygon fill="white" stroke="#666666" points="213.64,-268.38 69.39,-268.38 69.39,-249.12 213.64,-249.12 213.64,-268.38"/>
<text text-anchor="middle" x="141.51" y="-254.88" font-family="Helvetica,sans-Serif" font-size="10.00">model/BloodVesselJunction.h</text>
</a>
</g>
</g>
<!-- Node2&#45;&gt;Node14 -->
<g id="edge24_Node000002_Node000014" class="edge">
<title>Node2&#45;&gt;Node14</title>
<g id="a_edge24_Node000002_Node000014"><a xlink:title=" ">
<path fill="none" stroke="#63b8ff" d="M1053.04,-374.14C871.62,-374.73 259.41,-373.4 184.51,-329.25 161.29,-315.56 148.85,-283.91 143.98,-268.5"/>
<polygon fill="#63b8ff" stroke="#63b8ff" points="1052.85,-377.64 1062.84,-374.11 1052.83,-370.64 1052.85,-377.64"/>
</a>
</g>
</g>
<!-- Node15 -->
<g id="Node000015" class="node">
<title>Node15</title>
<g id="a_Node000015"><a xlink:href="_blood_vessel_c_r_l_8h.html" target="_top" xlink:title="model::BloodVesselCRL source file">
<polygon fill="white" stroke="#666666" points="321.01,-329.25 194.01,-329.25 194.01,-310 321.01,-310 321.01,-329.25"/>
<text text-anchor="middle" x="257.51" y="-315.75" font-family="Helvetica,sans-Serif" font-size="10.00">model/BloodVesselCRL.h</text>
</a>
</g>
</g>
<!-- Node2&#45;&gt;Node15 -->
<g id="edge21_Node000002_Node000015" class="edge">
<title>Node2&#45;&gt;Node15</title>
<g id="a_edge21_Node000002_Node000015"><a xlink:title=" ">
<path fill="none" stroke="#63b8ff" d="M1053.04,-371.85C930.15,-366.73 605.62,-352.02 335.51,-329.25 330.9,-328.86 326.13,-328.42 321.34,-327.96"/>
<polygon fill="#63b8ff" stroke="#63b8ff" points="1052.65,-375.34 1062.79,-372.26 1052.94,-368.35 1052.65,-375.34"/>
</a>
</g>
</g>
<!-- Node16 -->
<g id="Node000016" class="node">
<title>Node16</title>
<g id="a_Node000016"><a xlink:href="_blood_vessel_r_c_8h_source.html" target="_top" xlink:title=" ">
<polygon fill="white" stroke="#666666" points="329.01,-201.88 208.01,-201.88 208.01,-182.62 329.01,-182.62 329.01,-201.88"/>
<text text-anchor="middle" x="268.51" y="-188.38" font-family="Helvetica,sans-Serif" font-size="10.00">model/BloodVesselRC.h</text>
</a>
</g>
</g>
<!-- Node2&#45;&gt;Node16 -->
<g id="edge25_Node000002_Node000016" class="edge">
<title>Node2&#45;&gt;Node16</title>
<g id="a_edge25_Node000002_Node000016"><a xlink:title=" ">
<path fill="none" stroke="#63b8ff" d="M1053.23,-373.17C922.94,-370.88 576.92,-361.84 467.51,-329.25 382.89,-304.04 302.58,-228 276.95,-202.04"/>
<polygon fill="#63b8ff" stroke="#63b8ff" points="1052.85,-376.66 1062.91,-373.33 1052.97,-369.66 1052.85,-376.66"/>
</a>
</g>
</g>
<!-- Node17 -->
<g id="Node000017" class="node">
<title>Node17</title>
<g id="a_Node000017"><a xlink:href="_chamber_elastance_inductor_8h.html" target="_top" xlink:title="model::ChamberElastanceInductor source file">
<polygon fill="white" stroke="#666666" points="547.39,-268.38 377.64,-268.38 377.64,-249.12 547.39,-249.12 547.39,-268.38"/>
<text text-anchor="middle" x="462.51" y="-254.88" font-family="Helvetica,sans-Serif" font-size="10.00">model/ChamberElastanceInductor.h</text>
</a>
</g>
</g>
<!-- Node2&#45;&gt;Node17 -->
<g id="edge27_Node000002_Node000017" class="edge">
<title>Node2&#45;&gt;Node17</title>
<g id="a_edge27_Node000002_Node000017"><a xlink:title=" ">
<path fill="none" stroke="#63b8ff" d="M1053.4,-373.41C914.15,-371.68 529.88,-363.8 485.51,-329.25 466.66,-314.57 463.09,-283.97 462.53,-268.75"/>
<polygon fill="#63b8ff" stroke="#63b8ff" points="1052.99,-376.91 1063.03,-373.52 1053.07,-369.91 1052.99,-376.91"/>
</a>
</g>
</g>
<!-- Node19 -->
<g id="Node000019" class="node">
<title>Node19</title>
<g id="a_Node000019"><a xlink:href="_chamber_sphere_8h.html" target="_top" xlink:title="model::ChamberSphere source file">
<polygon fill="white" stroke="#666666" points="616.76,-329.25 494.26,-329.25 494.26,-310 616.76,-310 616.76,-329.25"/>
<text text-anchor="middle" x="555.51" y="-315.75" font-family="Helvetica,sans-Serif" font-size="10.00">model/ChamberSphere.h</text>
</a>
</g>
</g>
<!-- Node2&#45;&gt;Node19 -->
<g id="edge31_Node000002_Node000019" class="edge">
<title>Node2&#45;&gt;Node19</title>
<g id="a_edge31_Node000002_Node000019"><a xlink:title=" ">
<path fill="none" stroke="#63b8ff" d="M1053.25,-369.47C966.81,-361.83 784.43,-345.36 630.51,-329.25 626.08,-328.79 621.5,-328.29 616.9,-327.79"/>
<polygon fill="#63b8ff" stroke="#63b8ff" points="1052.77,-372.94 1063.04,-370.34 1053.39,-365.97 1052.77,-372.94"/>
</a>
</g>
</g>
<!-- Node20 -->
<g id="Node000020" class="node">
<title>Node20</title>
<g id="a_Node000020"><a xlink:href="_closed_loop_coronary_b_c_8h.html" target="_top" xlink:title="model::ClosedLoopCoronaryBC source file">
<polygon fill="white" stroke="#666666" points="799.64,-268.38 643.39,-268.38 643.39,-249.12 799.64,-249.12 799.64,-268.38"/>
<text text-anchor="middle" x="721.51" y="-254.88" font-family="Helvetica,sans-Serif" font-size="10.00">model/ClosedLoopCoronaryBC.h</text>
</a>
</g>
</g>
<!-- Node2&#45;&gt;Node20 -->
<g id="edge33_Node000002_Node000020" class="edge">
<title>Node2&#45;&gt;Node20</title>
<g id="a_edge33_Node000002_Node000020"><a xlink:title=" ">
<path fill="none" stroke="#63b8ff" d="M1053.2,-372.49C943.24,-368.94 689.25,-357.73 663.51,-329.25 644.44,-308.15 681.33,-282.14 704.58,-268.72"/>
<polygon fill="#63b8ff" stroke="#63b8ff" points="1053.01,-375.99 1063.11,-372.8 1053.22,-368.99 1053.01,-375.99"/>
</a>
</g>
</g>
<!-- Node23 -->
<g id="Node000023" class="node">
<title>Node23</title>
<g id="a_Node000023"><a xlink:href="_closed_loop_heart_pulmonary_8h.html" target="_top" xlink:title="model::ClosedLoopHeartPulmonary source file">
<polygon fill="white" stroke="#666666" points="846.64,-329.25 672.39,-329.25 672.39,-310 846.64,-310 846.64,-329.25"/>
<text text-anchor="middle" x="759.51" y="-315.75" font-family="Helvetica,sans-Serif" font-size="10.00">model/ClosedLoopHeartPulmonary.h</text>
</a>
</g>
</g>
<!-- Node2&#45;&gt;Node23 -->
<g id="edge38_Node000002_Node000023" class="edge">
<title>Node2&#45;&gt;Node23</title>
<g id="a_edge38_Node000002_Node000023"><a xlink:title=" ">
<path fill="none" stroke="#63b8ff" d="M1053.26,-366.1C990.86,-356.44 884.58,-339.99 818.41,-329.74"/>
<polygon fill="#63b8ff" stroke="#63b8ff" points="1052.47,-369.52 1062.89,-367.59 1053.54,-362.6 1052.47,-369.52"/>
</a>
</g>
</g>
<!-- Node24 -->
<g id="Node000024" class="node">
<title>Node24</title>
<g id="a_Node000024"><a xlink:href="_closed_loop_r_c_r_b_c_8h.html" target="_top" xlink:title="model::ClosedLoopRCRBC source file">
<polygon fill="white" stroke="#666666" points="1002.64,-329.25 864.39,-329.25 864.39,-310 1002.64,-310 1002.64,-329.25"/>
<text text-anchor="middle" x="933.51" y="-315.75" font-family="Helvetica,sans-Serif" font-size="10.00">model/ClosedLoopRCRBC.h</text>
</a>
</g>
</g>
<!-- Node2&#45;&gt;Node24 -->
<g id="edge41_Node000002_Node000024" class="edge">
<title>Node2&#45;&gt;Node24</title>
<g id="a_edge41_Node000002_Node000024"><a xlink:title=" ">
<path fill="none" stroke="#63b8ff" d="M1063.81,-361.44C1032.78,-351.72 990.38,-338.44 962.49,-329.7"/>
<polygon fill="#63b8ff" stroke="#63b8ff" points="1062.64,-364.74 1073.23,-364.39 1064.73,-358.06 1062.64,-364.74"/>
</a>
</g>
</g>
<!-- Node25 -->
<g id="Node000025" class="node">
<title>Node25</title>
<g id="a_Node000025"><a xlink:href="_flow_reference_b_c_8h.html" target="_top" xlink:title="model::FlowReferenceBC source file">
<polygon fill="white" stroke="#666666" points="1118.26,-201.88 986.76,-201.88 986.76,-182.62 1118.26,-182.62 1118.26,-201.88"/>
<text text-anchor="middle" x="1052.51" y="-188.38" font-family="Helvetica,sans-Serif" font-size="10.00">model/FlowReferenceBC.h</text>
</a>
</g>
</g>
<!-- Node2&#45;&gt;Node25 -->
<g id="edge43_Node000002_Node000025" class="edge">
<title>Node2&#45;&gt;Node25</title>
<g id="a_edge43_Node000002_Node000025"><a xlink:title=" ">
<path fill="none" stroke="#63b8ff" d="M1076.49,-358.75C1066.03,-351.34 1055.22,-341.38 1049.51,-329.25 1028.89,-285.45 1043.22,-224.59 1049.75,-202.08"/>
<polygon fill="#63b8ff" stroke="#63b8ff" points="1074.27,-361.48 1084.56,-364 1078.09,-355.61 1074.27,-361.48"/>
</a>
</g>
</g>
<!-- Node26 -->
<g id="Node000026" class="node">
<title>Node26</title>
<g id="a_Node000026"><a xlink:href="_junction_8h.html" target="_top" xlink:title="model::Junction source file">
<polygon fill="white" stroke="#666666" points="1148.26,-329.25 1058.76,-329.25 1058.76,-310 1148.26,-310 1148.26,-329.25"/>
<text text-anchor="middle" x="1103.51" y="-315.75" font-family="Helvetica,sans-Serif" font-size="10.00">model/Junction.h</text>
</a>
</g>
</g>
<!-- Node2&#45;&gt;Node26 -->
<g id="edge45_Node000002_Node000026" class="edge">
<title>Node2&#45;&gt;Node26</title>
<g id="a_edge45_Node000002_Node000026"><a xlink:title=" ">
<path fill="none" stroke="#63b8ff" d="M1103.51,-353.63C1103.51,-345.34 1103.51,-336.17 1103.51,-329.61"/>
<polygon fill="#63b8ff" stroke="#63b8ff" points="1100.01,-353.57 1103.51,-363.57 1107.01,-353.57 1100.01,-353.57"/>
</a>
</g>
</g>
<!-- Node27 -->
<g id="Node000027" class="node">
<title>Node27</title>
<g id="a_Node000027"><a xlink:href="_open_loop_coronary_b_c_8h.html" target="_top" xlink:title="model::OpenLoopCoronaryBC source file">
<polygon fill="white" stroke="#666666" points="1316.26,-329.25 1166.76,-329.25 1166.76,-310 1316.26,-310 1316.26,-329.25"/>
<text text-anchor="middle" x="1241.51" y="-315.75" font-family="Helvetica,sans-Serif" font-size="10.00">model/OpenLoopCoronaryBC.h</text>
</a>
</g>
</g>
<!-- Node2&#45;&gt;Node27 -->
<g id="edge49_Node000002_Node000027" class="edge">
<title>Node2&#45;&gt;Node27</title>
<g id="a_edge49_Node000002_Node000027"><a xlink:title=" ">
<path fill="none" stroke="#63b8ff" d="M1137.41,-360.79C1162.43,-351.14 1195.84,-338.25 1217.99,-329.7"/>
<polygon fill="#63b8ff" stroke="#63b8ff" points="1136.4,-357.43 1128.33,-364.3 1138.92,-363.96 1136.4,-357.43"/>
</a>
</g>
</g>
<!-- Node28 -->
<g id="Node000028" class="node">
<title>Node28</title>
<g id="a_Node000028"><a xlink:href="_open_loop_coronary_var_res_b_c_8h.html" target="_top" xlink:title="model::OpenLoopCoronaryVarResBC source file">
<polygon fill="white" stroke="#666666" points="1354.26,-274 1210.76,-274 1210.76,-243.5 1354.26,-243.5 1354.26,-274"/>
<text text-anchor="start" x="1218.76" y="-260.5" font-family="Helvetica,sans-Serif" font-size="10.00">model/OpenLoopCoronaryVar</text>
<text text-anchor="middle" x="1282.51" y="-249.25" font-family="Helvetica,sans-Serif" font-size="10.00">ResBC.h</text>
</a>
</g>
</g>
<!-- Node2&#45;&gt;Node28 -->
<g id="edge53_Node000002_Node000028" class="edge">
<title>Node2&#45;&gt;Node28</title>
<g id="a_edge53_Node000002_Node000028"><a xlink:title=" ">
<path fill="none" stroke="#63b8ff" d="M1154.03,-370.95C1212.72,-366.38 1304.26,-355.2 1325.51,-329.25 1339.9,-311.69 1319.5,-288.93 1302.19,-274.33"/>
<polygon fill="#63b8ff" stroke="#63b8ff" points="1153.98,-367.45 1144.26,-371.67 1154.49,-374.43 1153.98,-367.45"/>
</a>
</g>
</g>
<!-- Node29 -->
<g id="Node000029" class="node">
<title>Node29</title>
<g id="a_Node000029"><a xlink:href="_piecewise_valve_8h.html" target="_top" xlink:title="model::PiecewiseValve source file">
<polygon fill="white" stroke="#666666" points="1372.76,-201.88 1250.26,-201.88 1250.26,-182.62 1372.76,-182.62 1372.76,-201.88"/>
<text text-anchor="middle" x="1311.51" y="-188.38" font-family="Helvetica,sans-Serif" font-size="10.00">model/PiecewiseValve.h</text>
</a>
</g>
</g>
<!-- Node2&#45;&gt;Node29 -->
<g id="edge54_Node000002_Node000029" class="edge">
<title>Node2&#45;&gt;Node29</title>
<g id="a_edge54_Node000002_Node000029"><a xlink:title=" ">
<path fill="none" stroke="#63b8ff" d="M1153.64,-370.12C1214.78,-364.59 1313.46,-352.34 1341.51,-329.25 1371.89,-304.25 1378.88,-279.72 1363.51,-243.5 1355.96,-225.7 1338.68,-211.13 1326.1,-202.35"/>
<polygon fill="#63b8ff" stroke="#63b8ff" points="1153.48,-366.62 1143.82,-370.97 1154.09,-373.59 1153.48,-366.62"/>
</a>
</g>
</g>
<!-- Node30 -->
<g id="Node000030" class="node">
<title>Node30</title>
<g id="a_Node000030"><a xlink:href="_pressure_reference_b_c_8h.html" target="_top" xlink:title="model::PressureReferenceBC source file">
<polygon fill="white" stroke="#666666" points="1540.26,-201.88 1390.76,-201.88 1390.76,-182.62 1540.26,-182.62 1540.26,-201.88"/>
<text text-anchor="middle" x="1465.51" y="-188.38" font-family="Helvetica,sans-Serif" font-size="10.00">model/PressureReferenceBC.h</text>
</a>
</g>
</g>
<!-- Node2&#45;&gt;Node30 -->
<g id="edge56_Node000002_Node000030" class="edge">
<title>Node2&#45;&gt;Node30</title>
<g id="a_edge56_Node000002_Node000030"><a xlink:title=" ">
<path fill="none" stroke="#63b8ff" d="M1154.02,-369.72C1219.68,-363.56 1330.05,-350.41 1364.51,-329.25 1391.2,-312.86 1443.4,-229.59 1460.18,-202.08"/>
<polygon fill="#63b8ff" stroke="#63b8ff" points="1153.85,-366.22 1144.21,-370.62 1154.48,-373.19 1153.85,-366.22"/>
</a>
</g>
</g>
<!-- Node31 -->
<g id="Node000031" class="node">
<title>Node31</title>
<g id="a_Node000031"><a xlink:href="_resistance_b_c_8h.html" target="_top" xlink:title="model::ResistanceBC source file">
<polygon fill="white" stroke="#666666" points="1564.01,-268.38 1449.01,-268.38 1449.01,-249.12 1564.01,-249.12 1564.01,-268.38"/>
<text text-anchor="middle" x="1506.51" y="-254.88" font-family="Helvetica,sans-Serif" font-size="10.00">model/ResistanceBC.h</text>
</a>
</g>
</g>
<!-- Node2&#45;&gt;Node31 -->
<g id="edge58_Node000002_Node000031" class="edge">
<title>Node2&#45;&gt;Node31</title>
<g id="a_edge58_Node000002_Node000031"><a xlink:title=" ">
<path fill="none" stroke="#63b8ff" d="M1153.82,-370.93C1233.86,-365.61 1386.07,-352.7 1434.51,-329.25 1463.91,-315.02 1488.96,-284.21 1500.19,-268.84"/>
<polygon fill="#63b8ff" stroke="#63b8ff" points="1153.82,-367.42 1144.07,-371.56 1154.28,-374.41 1153.82,-367.42"/>
</a>
</g>
</g>
<!-- Node32 -->
<g id="Node000032" class="node">
<title>Node32</title>
<g id="a_Node000032"><a xlink:href="_resistive_junction_8h.html" target="_top" xlink:title="model::ResistiveJunction source file">
<polygon fill="white" stroke="#666666" points="1712.51,-268.38 1582.51,-268.38 1582.51,-249.12 1712.51,-249.12 1712.51,-268.38"/>
<text text-anchor="middle" x="1647.51" y="-254.88" font-family="Helvetica,sans-Serif" font-size="10.00">model/ResistiveJunction.h</text>
</a>
</g>
</g>
<!-- Node2&#45;&gt;Node32 -->
<g id="edge60_Node000002_Node000032" class="edge">
<title>Node2&#45;&gt;Node32</title>
<g id="a_edge60_Node000002_Node000032"><a xlink:title=" ">
<path fill="none" stroke="#63b8ff" d="M1153.69,-371.37C1223.72,-367.04 1354.34,-355.89 1462.51,-329.25 1524.81,-313.9 1594.81,-283.89 1628.02,-268.83"/>
<polygon fill="#63b8ff" stroke="#63b8ff" points="1153.86,-367.86 1144.08,-371.94 1154.27,-374.84 1153.86,-367.86"/>
</a>
</g>
</g>
<!-- Node33 -->
<g id="Node000033" class="node">
<title>Node33</title>
<g id="a_Node000033"><a xlink:href="_valve_tanh_8h.html" target="_top" xlink:title="model::ValveTanh source file">
<polygon fill="white" stroke="#666666" points="1773.14,-201.88 1673.89,-201.88 1673.89,-182.62 1773.14,-182.62 1773.14,-201.88"/>
<text text-anchor="middle" x="1723.51" y="-188.38" font-family="Helvetica,sans-Serif" font-size="10.00">model/ValveTanh.h</text>
</a>
</g>
</g>
<!-- Node2&#45;&gt;Node33 -->
<g id="edge62_Node000002_Node000033" class="edge">
<title>Node2&#45;&gt;Node33</title>
<g id="a_edge62_Node000002_Node000033"><a xlink:title=" ">
<path fill="none" stroke="#63b8ff" d="M1153.72,-373.99C1288.23,-373.09 1651.3,-362.37 1721.51,-274 1738.18,-253.03 1731.09,-218.4 1726.41,-202.17"/>
<polygon fill="#63b8ff" stroke="#63b8ff" points="1154.05,-370.49 1144.06,-374.04 1154.08,-377.49 1154.05,-370.49"/>
</a>
</g>
</g>
<!-- Node34 -->
<g id="Node000034" class="node">
<title>Node34</title>
<g id="a_Node000034"><a xlink:href="_windkessel_b_c_8h.html" target="_top" xlink:title="model::WindkesselBC source file">
<polygon fill="white" stroke="#666666" points="1884.76,-268.38 1768.26,-268.38 1768.26,-249.12 1884.76,-249.12 1884.76,-268.38"/>
<text text-anchor="middle" x="1826.51" y="-254.88" font-family="Helvetica,sans-Serif" font-size="10.00">model/WindkesselBC.h</text>
</a>
</g>
</g>
<!-- Node2&#45;&gt;Node34 -->
<g id="edge64_Node000002_Node000034" class="edge">
<title>Node2&#45;&gt;Node34</title>
<g id="a_edge64_Node000002_Node000034"><a xlink:title=" ">
<path fill="none" stroke="#63b8ff" d="M1154.06,-372.4C1297.49,-367.94 1700.2,-353.38 1754.51,-329.25 1784.68,-315.85 1809.73,-284.06 1820.64,-268.55"/>
<polygon fill="#63b8ff" stroke="#63b8ff" points="1153.99,-368.9 1144.1,-372.71 1154.2,-375.9 1153.99,-368.9"/>
</a>
</g>
</g>
<!-- Node3&#45;&gt;Node4 -->
<g id="edge3_Node000003_Node000004" class="edge">
<title>Node3&#45;&gt;Node4</title>
<g id="a_edge3_Node000003_Node000004"><a xlink:title=" ">
<path fill="none" stroke="#63b8ff" d="M1936.6,-242.41C1909.06,-223.17 1858.38,-191.01 1809.51,-177 1672.83,-137.82 1227.88,-132.99 1092.17,-132.43"/>
<polygon fill="#63b8ff" stroke="#63b8ff" points="1934.24,-245.03 1944.42,-247.98 1938.3,-239.33 1934.24,-245.03"/>
</a>
</g>
</g>
<!-- Node5 -->
<g id="Node000005" class="node">
<title>Node5</title>
<g id="a_Node000005"><a xlink:href="_integrator_8h.html" target="_top" xlink:title="Integrator source file.">
<polygon fill="white" stroke="#666666" points="1289.14,-80.12 1189.89,-80.12 1189.89,-60.88 1289.14,-60.88 1289.14,-80.12"/>
<text text-anchor="middle" x="1239.51" y="-66.62" font-family="Helvetica,sans-Serif" font-size="10.00">algebra/Integrator.h</text>
</a>
</g>
</g>
<!-- Node4&#45;&gt;Node5 -->
<g id="edge4_Node000004_Node000005" class="edge">
<title>Node4&#45;&gt;Node5</title>
<g id="a_edge4_Node000004_Node000005"><a xlink:title=" ">
<path fill="none" stroke="#63b8ff" d="M1092.26,-117.86C1127.77,-106.68 1178.95,-90.57 1210.67,-80.58"/>
<polygon fill="#63b8ff" stroke="#63b8ff" points="1091.25,-114.51 1082.76,-120.85 1093.35,-121.19 1091.25,-114.51"/>
</a>
</g>
</g>
<!-- Node6 -->
<g id="Node000006" class="node">
<title>Node6</title>
<g id="a_Node000006"><a xlink:href="interface_8h.html" target="_top" xlink:title="svZeroDSolver callable interface.">
<polygon fill="white" stroke="#666666" points="1405.26,-19.25 1303.76,-19.25 1303.76,0 1405.26,0 1405.26,-19.25"/>
<text text-anchor="middle" x="1354.51" y="-5.75" font-family="Helvetica,sans-Serif" font-size="10.00">interface/interface.h</text>
</a>
</g>
</g>
<!-- Node4&#45;&gt;Node6 -->
<g id="edge7_Node000004_Node000006" class="edge">
<title>Node4&#45;&gt;Node6</title>
<g id="a_edge7_Node000004_Node000006"><a xlink:title=" ">
<path fill="none" stroke="#63b8ff" d="M1103.67,-127.69C1197.76,-122.22 1390.54,-108.37 1410.51,-85.75 1419.49,-75.59 1416.4,-67.46 1410.51,-55.25 1402.8,-39.23 1386.23,-27.19 1373.1,-19.67"/>
<polygon fill="#63b8ff" stroke="#63b8ff" points="1103.73,-124.18 1093.94,-128.24 1104.13,-131.17 1103.73,-124.18"/>
</a>
</g>
</g>
<!-- Node7 -->
<g id="Node000007" class="node">
<title>Node7</title>
<g id="a_Node000007"><a xlink:href="_solver_8h.html" target="_top" xlink:title="Solver source file.">
<polygon fill="white" stroke="#666666" points="921.26,-19.25 843.76,-19.25 843.76,0 921.26,0 921.26,-19.25"/>
<text text-anchor="middle" x="882.51" y="-5.75" font-family="Helvetica,sans-Serif" font-size="10.00">solve/Solver.h</text>
</a>
</g>
</g>
<!-- Node4&#45;&gt;Node7 -->
<g id="edge14_Node000004_Node000007" class="edge">
<title>Node4&#45;&gt;Node7</title>
<g id="a_edge14_Node000004_Node000007"><a xlink:title=" ">
<path fill="none" stroke="#63b8ff" d="M1001.36,-127.86C968.53,-123.54 927.35,-112.64 901.51,-85.75 883.8,-67.32 881.91,-34.87 882.12,-19.36"/>
<polygon fill="#63b8ff" stroke="#63b8ff" points="1000.76,-131.31 1011.09,-128.96 1001.54,-124.36 1000.76,-131.31"/>
</a>
</g>
</g>
<!-- Node4&#45;&gt;Node8 -->
<g id="edge8_Node000004_Node000008" class="edge">
<title>Node4&#45;&gt;Node8</title>
<g id="a_edge8_Node000004_Node000008"><a xlink:title=" ">
<path fill="none" stroke="#63b8ff" d="M1001.42,-125.11C931.05,-117.19 800.87,-101.46 690.51,-85.75 679.39,-84.17 667.52,-82.37 656.35,-80.59"/>
<polygon fill="#63b8ff" stroke="#63b8ff" points="1000.77,-128.56 1011.1,-126.19 1001.55,-121.61 1000.77,-128.56"/>
</a>
</g>
</g>
<!-- Node9 -->
<g id="Node000009" class="node">
<title>Node9</title>
<g id="a_Node000009"><a xlink:href="_levenberg_marquardt_optimizer_8h.html" target="_top" xlink:title="opt::LevenbergMarquardtOptimizer source file">
<polygon fill="white" stroke="#666666" points="1054.64,-85.75 910.39,-85.75 910.39,-55.25 1054.64,-55.25 1054.64,-85.75"/>
<text text-anchor="start" x="918.39" y="-72.25" font-family="Helvetica,sans-Serif" font-size="10.00">optimize/LevenbergMarquardt</text>
<text text-anchor="middle" x="982.51" y="-61" font-family="Helvetica,sans-Serif" font-size="10.00">Optimizer.h</text>
</a>
</g>
</g>
<!-- Node4&#45;&gt;Node9 -->
<g id="edge10_Node000004_Node000009" class="edge">
<title>Node4&#45;&gt;Node9</title>
<g id="a_edge10_Node000004_Node000009"><a xlink:title=" ">
<path fill="none" stroke="#63b8ff" d="M1033.09,-114.04C1022.65,-105.26 1009.88,-94.52 999.79,-86.03"/>
<polygon fill="#63b8ff" stroke="#63b8ff" points="1030.82,-116.7 1040.72,-120.46 1035.32,-111.34 1030.82,-116.7"/>
</a>
</g>
</g>
<!-- Node10 -->
<g id="Node000010" class="node">
<title>Node10</title>
<g id="a_Node000010"><a xlink:href="calibrate_8h.html" target="_top" xlink:title="opt::calibrate source file">
<polygon fill="white" stroke="#666666" points="1172.14,-80.12 1072.89,-80.12 1072.89,-60.88 1172.14,-60.88 1172.14,-80.12"/>
<text text-anchor="middle" x="1122.51" y="-66.62" font-family="Helvetica,sans-Serif" font-size="10.00">optimize/calibrate.h</text>
</a>
</g>
</g>
<!-- Node4&#45;&gt;Node10 -->
<g id="edge11_Node000004_Node000010" class="edge">
<title>Node4&#45;&gt;Node10</title>
<g id="a_edge11_Node000004_Node000010"><a xlink:title=" ">
<path fill="none" stroke="#63b8ff" d="M1071.76,-114.19C1084.66,-103.34 1101.16,-89.46 1111.78,-80.53"/>
<polygon fill="#63b8ff" stroke="#63b8ff" points="1069.7,-111.34 1064.3,-120.46 1074.21,-116.7 1069.7,-111.34"/>
</a>
</g>
</g>
<!-- Node11 -->
<g id="Node000011" class="node">
<title>Node11</title>
<g id="a_Node000011"><a xlink:href="_simulation_parameters_8h.html" target="_top" xlink:title="Source file to read simulation configuration.">
<polygon fill="white" stroke="#666666" points="854.39,-80.12 708.64,-80.12 708.64,-60.88 854.39,-60.88 854.39,-80.12"/>
<text text-anchor="middle" x="781.51" y="-66.62" font-family="Helvetica,sans-Serif" font-size="10.00">solve/SimulationParameters.h</text>
</a>
</g>
</g>
<!-- Node4&#45;&gt;Node11 -->
<g id="edge12_Node000004_Node000011" class="edge">
<title>Node4&#45;&gt;Node11</title>
<g id="a_edge12_Node000004_Node000011"><a xlink:title=" ">
<path fill="none" stroke="#63b8ff" d="M1001.33,-119.26C949.84,-108.07 871.38,-91.02 823.45,-80.61"/>
<polygon fill="#63b8ff" stroke="#63b8ff" points="1000.53,-122.66 1011.05,-121.37 1002.02,-115.82 1000.53,-122.66"/>
</a>
</g>
</g>
<!-- Node12 -->
<g id="Node000012" class="node">
<title>Node12</title>
<g id="a_Node000012"><a xlink:href="csv__writer_8h.html" target="_top" xlink:title="csv_writer source file">
<polygon fill="white" stroke="#666666" points="1401.89,-80.12 1307.14,-80.12 1307.14,-60.88 1401.89,-60.88 1401.89,-80.12"/>
<text text-anchor="middle" x="1354.51" y="-66.62" font-family="Helvetica,sans-Serif" font-size="10.00">solve/csv_writer.h</text>
</a>
</g>
</g>
<!-- Node4&#45;&gt;Node12 -->
<g id="edge15_Node000004_Node000012" class="edge">
<title>Node4&#45;&gt;Node12</title>
<g id="a_edge15_Node000004_Node000012"><a xlink:title=" ">
<path fill="none" stroke="#63b8ff" d="M1103.43,-122.2C1153.32,-113.95 1231.42,-100.35 1298.51,-85.75 1305.57,-84.21 1313.09,-82.41 1320.25,-80.62"/>
<polygon fill="#63b8ff" stroke="#63b8ff" points="1103.1,-118.71 1093.8,-123.79 1104.23,-125.62 1103.1,-118.71"/>
</a>
</g>
</g>
<!-- Node5&#45;&gt;Node6 -->
<g id="edge5_Node000005_Node000006" class="edge">
<title>Node5&#45;&gt;Node6</title>
<g id="a_edge5_Node000005_Node000006"><a xlink:title=" ">
<path fill="none" stroke="#63b8ff" d="M1267.2,-55.33C1288.86,-44.24 1318.33,-29.15 1336.88,-19.65"/>
<polygon fill="#63b8ff" stroke="#63b8ff" points="1265.63,-52.2 1258.33,-59.87 1268.82,-58.43 1265.63,-52.2"/>
</a>
</g>
</g>
<!-- Node5&#45;&gt;Node7 -->
<g id="edge6_Node000005_Node000007" class="edge">
<title>Node5&#45;&gt;Node7</title>
<g id="a_edge6_Node000005_Node000007"><a xlink:title=" ">
<path fill="none" stroke="#63b8ff" d="M1193.79,-57.85C1189.65,-56.92 1185.51,-56.04 1181.51,-55.25 1088.82,-36.99 978.66,-22.34 921.41,-15.26"/>
<polygon fill="#63b8ff" stroke="#63b8ff" points="1192.66,-61.18 1203.19,-60.04 1194.25,-54.36 1192.66,-61.18"/>
</a>
</g>
</g>
<!-- Node8&#45;&gt;Node4 -->
<g id="edge9_Node000008_Node000004" class="edge">
<title>Node8&#45;&gt;Node4</title>
<g id="a_edge9_Node000008_Node000004"><a xlink:title=" ">
<path fill="none" stroke="#63b8ff" d="M685.13,-82.3C693.05,-83.5 700.95,-84.67 708.51,-85.75 818.59,-101.42 948.39,-117.12 1012.63,-125.05"/>
<polygon fill="#63b8ff" stroke="#63b8ff" points="685.88,-78.87 675.47,-80.82 684.82,-85.79 685.88,-78.87"/>
</a>
</g>
</g>
<!-- Node11&#45;&gt;Node7 -->
<g id="edge13_Node000011_Node000007" class="edge">
<title>Node11&#45;&gt;Node7</title>
<g id="a_edge13_Node000011_Node000007"><a xlink:title=" ">
<path fill="none" stroke="#63b8ff" d="M806.61,-54.87C825.56,-43.82 850.95,-29.02 867.03,-19.65"/>
<polygon fill="#63b8ff" stroke="#63b8ff" points="805.04,-51.74 798.16,-59.8 808.56,-57.78 805.04,-51.74"/>
</a>
</g>
</g>
<!-- Node12&#45;&gt;Node6 -->
<g id="edge16_Node000012_Node000006" class="edge">
<title>Node12&#45;&gt;Node6</title>
<g id="a_edge16_Node000012_Node000006"><a xlink:title=" ">
<path fill="none" stroke="#63b8ff" d="M1354.51,-49.07C1354.51,-39.04 1354.51,-27.46 1354.51,-19.65"/>
<polygon fill="#63b8ff" stroke="#63b8ff" points="1351.01,-49.04 1354.51,-59.04 1358.01,-49.04 1351.01,-49.04"/>
</a>
</g>
</g>
<!-- Node13&#45;&gt;Node4 -->
<g id="edge20_Node000013_Node000004" class="edge">
<title>Node13&#45;&gt;Node4</title>
<g id="a_edge20_Node000013_Node000004"><a xlink:title=" ">
<path fill="none" stroke="#63b8ff" d="M70.33,-300C61.06,-284.44 51.74,-261.91 60.51,-243.5 80.7,-201.14 98.68,-193.76 142.51,-177 224.46,-145.67 847.92,-135.13 1012.68,-132.87"/>
<polygon fill="#63b8ff" stroke="#63b8ff" points="67.31,-301.77 75.69,-308.25 73.18,-297.96 67.31,-301.77"/>
</a>
</g>
</g>
<!-- Node13&#45;&gt;Node14 -->
<g id="edge18_Node000013_Node000014" class="edge">
<title>Node13&#45;&gt;Node14</title>
<g id="a_edge18_Node000013_Node000014"><a xlink:title=" ">
<path fill="none" stroke="#63b8ff" d="M100.09,-301.8C110.68,-291.05 123.99,-277.54 132.62,-268.78"/>
<polygon fill="#63b8ff" stroke="#63b8ff" points="97.91,-299.02 93.38,-308.6 102.89,-303.94 97.91,-299.02"/>
</a>
</g>
</g>
<!-- Node14&#45;&gt;Node4 -->
<g id="edge19_Node000014_Node000004" class="edge">
<title>Node14&#45;&gt;Node4</title>
<g id="a_edge19_Node000014_Node000004"><a xlink:title=" ">
<path fill="none" stroke="#63b8ff" d="M141.41,-237.16C142.53,-218.28 147.48,-191.17 165.51,-177 199.23,-150.5 844.38,-136.35 1012.65,-133.11"/>
<polygon fill="#63b8ff" stroke="#63b8ff" points="137.91,-237.06 141.16,-247.14 144.91,-237.23 137.91,-237.06"/>
</a>
</g>
</g>
<!-- Node15&#45;&gt;Node4 -->
<g id="edge23_Node000015_Node000004" class="edge">
<title>Node15&#45;&gt;Node4</title>
<g id="a_edge23_Node000015_Node000004"><a xlink:title=" ">
<path fill="none" stroke="#63b8ff" d="M249.46,-299.27C242.83,-283.86 232.85,-261.89 222.51,-243.5 213.09,-226.74 204.08,-225.9 198.51,-207.5 194.58,-194.53 189.18,-186.83 198.51,-177 226.86,-147.13 847.57,-135.52 1012.54,-132.95"/>
<polygon fill="#63b8ff" stroke="#63b8ff" points="246.13,-300.38 253.25,-308.22 252.58,-297.65 246.13,-300.38"/>
</a>
</g>
</g>
<!-- Node15&#45;&gt;Node14 -->
<g id="edge22_Node000015_Node000014" class="edge">
<title>Node15&#45;&gt;Node14</title>
<g id="a_edge22_Node000015_Node000014"><a xlink:title=" ">
<path fill="none" stroke="#63b8ff" d="M229.62,-304.47C207.73,-293.36 177.93,-278.24 159.21,-268.73"/>
<polygon fill="#63b8ff" stroke="#63b8ff" points="227.79,-307.46 238.29,-308.87 230.96,-301.22 227.79,-307.46"/>
</a>
</g>
</g>
<!-- Node16&#45;&gt;Node4 -->
<g id="edge26_Node000016_Node000004" class="edge">
<title>Node16&#45;&gt;Node4</title>
<g id="a_edge26_Node000016_Node000004"><a xlink:title=" ">
<path fill="none" stroke="#63b8ff" d="M322.51,-180.16C329.55,-178.96 336.69,-177.86 343.51,-177 597.12,-145.05 904.78,-135.59 1012.76,-133.14"/>
<polygon fill="#63b8ff" stroke="#63b8ff" points="321.92,-176.71 312.69,-181.92 323.15,-183.6 321.92,-176.71"/>
</a>
</g>
</g>
<!-- Node17&#45;&gt;Node4 -->
<g id="edge30_Node000017_Node000004" class="edge">
<title>Node17&#45;&gt;Node4</title>
<g id="a_edge30_Node000017_Node000004"><a xlink:title=" ">
<path fill="none" stroke="#63b8ff" d="M429.5,-244.04C396.35,-228.41 353.27,-201.82 376.51,-177 420.07,-130.47 874.47,-130.74 1012.78,-131.92"/>
<polygon fill="#63b8ff" stroke="#63b8ff" points="427.89,-247.15 438.44,-248.08 430.77,-240.77 427.89,-247.15"/>
</a>
</g>
</g>
<!-- Node18 -->
<g id="Node000018" class="node">
<title>Node18</title>
<g id="a_Node000018"><a xlink:href="_chamber_elastance_inductor_exponential_8h.html" target="_top" xlink:title="model::ChamberElastanceInductorExponential source file">
<polygon fill="white" stroke="#666666" points="547.64,-207.5 385.39,-207.5 385.39,-177 547.64,-177 547.64,-207.5"/>
<text text-anchor="start" x="393.39" y="-194" font-family="Helvetica,sans-Serif" font-size="10.00">model/ChamberElastanceInductor</text>
<text text-anchor="middle" x="466.51" y="-182.75" font-family="Helvetica,sans-Serif" font-size="10.00">Exponential.h</text>
</a>
</g>
</g>
<!-- Node17&#45;&gt;Node18 -->
<g id="edge28_Node000017_Node000018" class="edge">
<title>Node17&#45;&gt;Node18</title>
<g id="a_edge28_Node000017_Node000018"><a xlink:title=" ">
<path fill="none" stroke="#63b8ff" d="M463.78,-237.37C464.38,-227.69 465.08,-216.35 465.62,-207.59"/>
<polygon fill="#63b8ff" stroke="#63b8ff" points="460.29,-237.07 463.16,-247.27 467.27,-237.51 460.29,-237.07"/>
</a>
</g>
</g>
<!-- Node18&#45;&gt;Node4 -->
<g id="edge29_Node000018_Node000004" class="edge">
<title>Node18&#45;&gt;Node4</title>
<g id="a_edge29_Node000018_Node000004"><a xlink:title=" ">
<path fill="none" stroke="#63b8ff" d="M559.45,-177.25C560.14,-177.17 560.83,-177.08 561.51,-177 728.71,-156.88 928.93,-141.33 1012.65,-135.21"/>
<polygon fill="#63b8ff" stroke="#63b8ff" points="559.07,-173.77 549.59,-178.51 559.95,-180.71 559.07,-173.77"/>
</a>
</g>
</g>
<!-- Node19&#45;&gt;Node4 -->
<g id="edge32_Node000019_Node000004" class="edge">
<title>Node19&#45;&gt;Node4</title>
<g id="a_edge32_Node000019_Node000004"><a xlink:title=" ">
<path fill="none" stroke="#63b8ff" d="M558.21,-298.68C563.39,-263.5 575.92,-192.65 594.51,-177 626.22,-150.31 907.43,-137.57 1012.84,-133.7"/>
<polygon fill="#63b8ff" stroke="#63b8ff" points="554.77,-297.97 556.84,-308.36 561.7,-298.95 554.77,-297.97"/>
</a>
</g>
</g>
<!-- Node21 -->
<g id="Node000021" class="node">
<title>Node21</title>
<g id="a_Node000021"><a xlink:href="_closed_loop_coronary_left_b_c_8h.html" target="_top" xlink:title="Left side of ClosedLoopCoronaryBC.">
<polygon fill="white" stroke="#666666" points="739.14,-207.5 603.89,-207.5 603.89,-177 739.14,-177 739.14,-207.5"/>
<text text-anchor="start" x="611.89" y="-194" font-family="Helvetica,sans-Serif" font-size="10.00">model/ClosedLoopCoronary</text>
<text text-anchor="middle" x="671.51" y="-182.75" font-family="Helvetica,sans-Serif" font-size="10.00">LeftBC.h</text>
</a>
</g>
</g>
<!-- Node20&#45;&gt;Node21 -->
<g id="edge34_Node000020_Node000021" class="edge">
<title>Node20&#45;&gt;Node21</title>
<g id="a_edge34_Node000020_Node000021"><a xlink:title=" ">
<path fill="none" stroke="#63b8ff" d="M707.7,-239.94C699.81,-229.75 690.03,-217.14 682.63,-207.59"/>
<polygon fill="#63b8ff" stroke="#63b8ff" points="704.74,-241.83 713.63,-247.59 710.27,-237.54 704.74,-241.83"/>
</a>
</g>
</g>
<!-- Node22 -->
<g id="Node000022" class="node">
<title>Node22</title>
<g id="a_Node000022"><a xlink:href="_closed_loop_coronary_right_b_c_8h.html" target="_top" xlink:title="Right side of ClosedLoopCoronaryBC.">
<polygon fill="white" stroke="#666666" points="892.14,-207.5 756.89,-207.5 756.89,-177 892.14,-177 892.14,-207.5"/>
<text text-anchor="start" x="764.89" y="-194" font-family="Helvetica,sans-Serif" font-size="10.00">model/ClosedLoopCoronary</text>
<text text-anchor="middle" x="824.51" y="-182.75" font-family="Helvetica,sans-Serif" font-size="10.00">RightBC.h</text>
</a>
</g>
</g>
<!-- Node20&#45;&gt;Node22 -->
<g id="edge36_Node000020_Node000022" class="edge">
<title>Node20&#45;&gt;Node22</title>
<g id="a_edge36_Node000020_Node000022"><a xlink:title=" ">
<path fill="none" stroke="#63b8ff" d="M745.47,-242.75C762.26,-232.24 784.57,-218.26 801.21,-207.84"/>
<polygon fill="#63b8ff" stroke="#63b8ff" points="743.73,-239.7 737.12,-247.98 747.45,-245.64 743.73,-239.7"/>
</a>
</g>
</g>
<!-- Node21&#45;&gt;Node4 -->
<g id="edge35_Node000021_Node000004" class="edge">
<title>Node21&#45;&gt;Node4</title>
<g id="a_edge35_Node000021_Node000004"><a xlink:title=" ">
<path fill="none" stroke="#63b8ff" d="M750.65,-176.51C850.56,-160.03 956.82,-145.24 1012.95,-137.65"/>
<polygon fill="#63b8ff" stroke="#63b8ff" points="750.23,-173.04 740.93,-178.13 751.37,-179.94 750.23,-173.04"/>
</a>
</g>
</g>
<!-- Node22&#45;&gt;Node4 -->
<g id="edge37_Node000022_Node000004" class="edge">
<title>Node22&#45;&gt;Node4</title>
<g id="a_edge37_Node000022_Node000004"><a xlink:title=" ">
<path fill="none" stroke="#63b8ff" d="M892.47,-173.7C933.48,-163.11 984.03,-150.06 1017.21,-141.49"/>
<polygon fill="#63b8ff" stroke="#63b8ff" points="891.73,-170.28 882.92,-176.17 893.48,-177.06 891.73,-170.28"/>
</a>
</g>
</g>
<!-- Node23&#45;&gt;Node4 -->
<g id="edge40_Node000023_Node000004" class="edge">
<title>Node23&#45;&gt;Node4</title>
<g id="a_edge40_Node000023_Node000004"><a xlink:title=" ">
<path fill="none" stroke="#63b8ff" d="M779.06,-302.51C813.37,-274.7 887.25,-216.86 955.51,-177 979.84,-162.79 1009.48,-149.73 1029.54,-141.45"/>
<polygon fill="#63b8ff" stroke="#63b8ff" points="777.18,-299.53 771.65,-308.56 781.61,-304.95 777.18,-299.53"/>
</a>
</g>
</g>
<!-- Node23&#45;&gt;Node20 -->
<g id="edge39_Node000023_Node000020" class="edge">
<title>Node23&#45;&gt;Node20</title>
<g id="a_edge39_Node000023_Node000020"><a xlink:title=" ">
<path fill="none" stroke="#63b8ff" d="M747.61,-300.18C740.86,-289.73 732.71,-277.1 727.34,-268.78"/>
<polygon fill="#63b8ff" stroke="#63b8ff" points="744.56,-301.91 752.92,-308.41 750.44,-298.11 744.56,-301.91"/>
</a>
</g>
</g>
<!-- Node24&#45;&gt;Node4 -->
<g id="edge42_Node000024_Node000004" class="edge">
<title>Node24&#45;&gt;Node4</title>
<g id="a_edge42_Node000024_Node000004"><a xlink:title=" ">
<path fill="none" stroke="#63b8ff" d="M935.24,-298.37C938.69,-268.82 948.77,-213.46 977.51,-177 990.55,-160.46 1011.54,-148.73 1028.01,-141.45"/>
<polygon fill="#63b8ff" stroke="#63b8ff" points="931.77,-297.84 934.26,-308.14 938.74,-298.54 931.77,-297.84"/>
</a>
</g>
</g>
<!-- Node25&#45;&gt;Node4 -->
<g id="edge44_Node000025_Node000004" class="edge">
<title>Node25&#45;&gt;Node4</title>
<g id="a_edge44_Node000025_Node000004"><a xlink:title=" ">
<path fill="none" stroke="#63b8ff" d="M1052.51,-170.82C1052.51,-160.79 1052.51,-149.21 1052.51,-141.4"/>
<polygon fill="#63b8ff" stroke="#63b8ff" points="1049.01,-170.79 1052.51,-180.79 1056.01,-170.79 1049.01,-170.79"/>
</a>
</g>
</g>
<!-- Node26&#45;&gt;Node4 -->
<g id="edge46_Node000026_Node000004" class="edge">
<title>Node26&#45;&gt;Node4</title>
<g id="a_edge46_Node000026_Node000004"><a xlink:title=" ">
<path fill="none" stroke="#63b8ff" d="M1114.03,-299.79C1128.39,-271.31 1149.93,-216.42 1127.51,-177 1117.63,-159.61 1098,-148.29 1081.3,-141.4"/>
<polygon fill="#63b8ff" stroke="#63b8ff" points="1111.11,-297.83 1109.52,-308.3 1117.29,-301.1 1111.11,-297.83"/>
</a>
</g>
</g>
<!-- Node27&#45;&gt;Node4 -->
<g id="edge50_Node000027_Node000004" class="edge">
<title>Node27&#45;&gt;Node4</title>
<g id="a_edge50_Node000027_Node000004"><a xlink:title=" ">
<path fill="none" stroke="#63b8ff" d="M1224.54,-301.39C1217.07,-293.39 1208.43,-283.55 1201.51,-274 1172.3,-233.69 1182.03,-210.83 1145.51,-177 1127.38,-160.2 1101.78,-148.55 1082.02,-141.37"/>
<polygon fill="#63b8ff" stroke="#63b8ff" points="1221.84,-303.63 1231.28,-308.44 1226.9,-298.79 1221.84,-303.63"/>
</a>
</g>
</g>
<!-- Node27&#45;&gt;Node28 -->
<g id="edge51_Node000027_Node000028" class="edge">
<title>Node27&#45;&gt;Node28</title>
<g id="a_edge51_Node000027_Node000028"><a xlink:title=" ">
<path fill="none" stroke="#63b8ff" d="M1254.22,-300.38C1260.06,-291.98 1266.9,-282.16 1272.39,-274.28"/>
<polygon fill="#63b8ff" stroke="#63b8ff" points="1251.45,-298.23 1248.6,-308.44 1257.19,-302.24 1251.45,-298.23"/>
</a>
</g>
</g>
<!-- Node28&#45;&gt;Node4 -->
<g id="edge52_Node000028_Node000004" class="edge">
<title>Node28&#45;&gt;Node4</title>
<g id="a_edge52_Node000028_Node000004"><a xlink:title=" ">
<path fill="none" stroke="#63b8ff" d="M1263.57,-234.29C1247.87,-216.28 1224.06,-192.01 1198.51,-177 1165.38,-157.53 1122.94,-145.8 1092.37,-139.29"/>
<polygon fill="#63b8ff" stroke="#63b8ff" points="1260.89,-236.55 1270.03,-241.91 1266.23,-232.02 1260.89,-236.55"/>
</a>
</g>
</g>
<!-- Node29&#45;&gt;Node4 -->
<g id="edge55_Node000029_Node000004" class="edge">
<title>Node29&#45;&gt;Node4</title>
<g id="a_edge55_Node000029_Node000004"><a xlink:title=" ">
<path fill="none" stroke="#63b8ff" d="M1260.57,-179.67C1211.29,-168.47 1137.63,-151.72 1092.46,-141.46"/>
<polygon fill="#63b8ff" stroke="#63b8ff" points="1259.61,-183.04 1270.14,-181.84 1261.16,-176.21 1259.61,-183.04"/>
</a>
</g>
</g>
<!-- Node30&#45;&gt;Node4 -->
<g id="edge57_Node000030_Node000004" class="edge">
<title>Node30&#45;&gt;Node4</title>
<g id="a_edge57_Node000030_Node000004"><a xlink:title=" ">
<path fill="none" stroke="#63b8ff" d="M1402.27,-180.29C1395.27,-179.15 1388.24,-178.03 1381.51,-177 1277.38,-161.11 1154.26,-145.17 1092.33,-137.34"/>
<polygon fill="#63b8ff" stroke="#63b8ff" points="1401.65,-183.73 1412.08,-181.92 1402.79,-176.83 1401.65,-183.73"/>
</a>
</g>
</g>
<!-- Node31&#45;&gt;Node4 -->
<g id="edge59_Node000031_Node000004" class="edge">
<title>Node31&#45;&gt;Node4</title>
<g id="a_edge59_Node000031_Node000004"><a xlink:title=" ">
<path fill="none" stroke="#63b8ff" d="M1526.23,-241.18C1544.69,-223.71 1567.01,-196.14 1549.51,-177 1518.86,-143.47 1204.79,-134.93 1092.31,-132.94"/>
<polygon fill="#63b8ff" stroke="#63b8ff" points="1523.91,-238.56 1518.8,-247.85 1528.58,-243.77 1523.91,-238.56"/>
</a>
</g>
</g>
<!-- Node32&#45;&gt;Node4 -->
<g id="edge61_Node000032_Node000004" class="edge">
<title>Node32&#45;&gt;Node4</title>
<g id="a_edge61_Node000032_Node000004"><a xlink:title=" ">
<path fill="none" stroke="#63b8ff" d="M1635.2,-239.44C1621.11,-220.17 1596.12,-190.77 1566.51,-177 1482.35,-137.87 1197.58,-132.85 1092.18,-132.36"/>
<polygon fill="#63b8ff" stroke="#63b8ff" points="1632.22,-241.28 1640.84,-247.45 1637.95,-237.26 1632.22,-241.28"/>
</a>
</g>
</g>
<!-- Node33&#45;&gt;Node4 -->
<g id="edge63_Node000033_Node000004" class="edge">
<title>Node33&#45;&gt;Node4</title>
<g id="a_edge63_Node000033_Node000004"><a xlink:title=" ">
<path fill="none" stroke="#63b8ff" d="M1664.67,-180.32C1656.9,-179.08 1649.03,-177.94 1641.51,-177 1435.69,-151.38 1187.45,-138.39 1092.28,-134.06"/>
<polygon fill="#63b8ff" stroke="#63b8ff" points="1664,-183.76 1674.44,-181.94 1665.14,-176.85 1664,-183.76"/>
</a>
</g>
</g>
<!-- Node34&#45;&gt;Node4 -->
<g id="edge65_Node000034_Node000004" class="edge">
<title>Node34&#45;&gt;Node4</title>
<g id="a_edge65_Node000034_Node000004"><a xlink:title=" ">
<path fill="none" stroke="#63b8ff" d="M1821.59,-237.67C1815.74,-218.52 1803.95,-190.63 1782.51,-177 1724.12,-139.86 1235.81,-133.61 1092.13,-132.58"/>
<polygon fill="#63b8ff" stroke="#63b8ff" points="1818.21,-238.58 1824.22,-247.3 1824.96,-236.73 1818.21,-238.58"/>
</a>
</g>
</g>
<!-- Node35&#45;&gt;Node4 -->
<g id="edge67_Node000035_Node000004" class="edge">
<title>Node35&#45;&gt;Node4</title>
<g id="a_edge67_Node000035_Node000004"><a xlink:title=" ">
<path fill="none" stroke="#63b8ff" d="M1688.22,-369.74C1744.33,-364.19 1837.9,-352.24 1915.51,-329.25 1980.11,-310.12 2072.87,-302.59 2040.51,-243.5 2014.16,-195.38 1988.77,-193.72 1936.51,-177 1855.56,-151.1 1254.24,-136.64 1092.48,-133.19"/>
<polygon fill="#63b8ff" stroke="#63b8ff" points="1687.96,-366.25 1678.34,-370.68 1688.63,-373.22 1687.96,-366.25"/>
</a>
</g>
</g>
</g>
</svg>
