<?xml version="1.0" encoding="UTF-8" standalone="no"?>
<!DOCTYPE svg PUBLIC "-//W3C//DTD SVG 1.1//EN"
 "http://www.w3.org/Graphics/SVG/1.1/DTD/svg11.dtd">
<!-- Generated by graphviz version 12.2.1 (20241206.2353)
 -->
<!-- Title: model/BlockType.h Pages: 1 -->
<svg width="1886pt" height="448pt"
 viewBox="0.00 0.00 1885.79 447.75" xmlns="http://www.w3.org/2000/svg" xmlns:xlink="http://www.w3.org/1999/xlink">
<g id="graph0" class="graph" transform="scale(1 1) rotate(0) translate(4 443.75)">
<title>model/BlockType.h</title>
<!-- Node1 -->
<g id="Node000001" class="node">
<title>Node1</title>
<g id="a_Node000001"><a xlink:title="Specifies the types of blocks and their parameters.">
<polygon fill="#999999" stroke="#666666" points="1143.38,-439.75 1044.88,-439.75 1044.88,-420.5 1143.38,-420.5 1143.38,-439.75"/>
<text text-anchor="middle" x="1094.12" y="-426.25" font-family="Helvetica,sans-Serif" font-size="10.00">model/BlockType.h</text>
</a>
</g>
</g>
<!-- Node2 -->
<g id="Node000002" class="node">
<title>Node2</title>
<g id="a_Node000002"><a xlink:href="_block_8h.html" target="_top" xlink:title="model::Block source file">
<polygon fill="white" stroke="#666666" points="1085.88,-384.5 1008.38,-384.5 1008.38,-365.25 1085.88,-365.25 1085.88,-384.5"/>
<text text-anchor="middle" x="1047.12" y="-371" font-family="Helvetica,sans-Serif" font-size="10.00">model/Block.h</text>
</a>
</g>
</g>
<!-- Node1&#45;&gt;Node2 -->
<g id="edge1_Node000001_Node000002" class="edge">
<title>Node1&#45;&gt;Node2</title>
<g id="a_edge1_Node000001_Node000002"><a xlink:title=" ">
<path fill="none" stroke="#63b8ff" d="M1078.8,-411.76C1070.87,-402.78 1061.53,-392.2 1055.05,-384.86"/>
<polygon fill="#63b8ff" stroke="#63b8ff" points="1076.12,-414.02 1085.36,-419.2 1081.37,-409.38 1076.12,-414.02"/>
</a>
</g>
</g>
<!-- Node33 -->
<g id="Node000033" class="node">
<title>Node33</title>
<g id="a_Node000033"><a xlink:href="_node_8h.html" target="_top" xlink:title="model::Node source file">
<polygon fill="white" stroke="#666666" points="1558.12,-384.5 1482.12,-384.5 1482.12,-365.25 1558.12,-365.25 1558.12,-384.5"/>
<text text-anchor="middle" x="1520.12" y="-371" font-family="Helvetica,sans-Serif" font-size="10.00">model/Node.h</text>
</a>
</g>
</g>
<!-- Node1&#45;&gt;Node33 -->
<g id="edge63_Node000001_Node000033" class="edge">
<title>Node1&#45;&gt;Node33</title>
<g id="a_edge63_Node000001_Node000033"><a xlink:title=" ">
<path fill="none" stroke="#63b8ff" d="M1155.11,-421.5C1244.24,-410.36 1407.54,-389.95 1481.68,-380.68"/>
<polygon fill="#63b8ff" stroke="#63b8ff" points="1154.82,-418.01 1145.33,-422.72 1155.69,-424.96 1154.82,-418.01"/>
</a>
</g>
</g>
<!-- Node3 -->
<g id="Node000003" class="node">
<title>Node3</title>
<g id="a_Node000003"><a xlink:href="_block_factory_8h.html" target="_top" xlink:title="Define the block factory functional.">
<polygon fill="white" stroke="#666666" points="1705,-201.88 1595.25,-201.88 1595.25,-182.62 1705,-182.62 1705,-201.88"/>
<text text-anchor="middle" x="1650.12" y="-188.38" font-family="Helvetica,sans-Serif" font-size="10.00">model/BlockFactory.h</text>
</a>
</g>
</g>
<!-- Node2&#45;&gt;Node3 -->
<g id="edge2_Node000002_Node000003" class="edge">
<title>Node2&#45;&gt;Node3</title>
<g id="a_edge2_Node000002_Node000003"><a xlink:title=" ">
<path fill="none" stroke="#63b8ff" d="M1097.82,-373.43C1231.56,-371.79 1586.37,-364.14 1625.12,-329.25 1662.23,-295.84 1655.54,-226.94 1651.73,-202.28"/>
<polygon fill="#63b8ff" stroke="#63b8ff" points="1097.8,-369.93 1087.84,-373.55 1097.88,-376.93 1097.8,-369.93"/>
</a>
</g>
</g>
<!-- Node4 -->
<g id="Node000004" class="node">
<title>Node4</title>
<g id="a_Node000004"><a xlink:href="_model_8h.html" target="_top" xlink:title="model::Model source file">
<polygon fill="white" stroke="#666666" points="1135.62,-141 1056.62,-141 1056.62,-121.75 1135.62,-121.75 1135.62,-141"/>
<text text-anchor="middle" x="1096.12" y="-127.5" font-family="Helvetica,sans-Serif" font-size="10.00">model/Model.h</text>
</a>
</g>
</g>
<!-- Node2&#45;&gt;Node4 -->
<g id="edge45_Node000002_Node000004" class="edge">
<title>Node2&#45;&gt;Node4</title>
<g id="a_edge45_Node000002_Node000004"><a xlink:title=" ">
<path fill="none" stroke="#63b8ff" d="M1055.78,-354.73C1062.5,-341.23 1072.74,-323.26 1085.12,-310 1104.31,-289.45 1124.08,-298.9 1137.12,-274 1149.72,-249.97 1113.34,-168.61 1100.46,-141.36"/>
<polygon fill="#63b8ff" stroke="#63b8ff" points="1052.77,-352.92 1051.64,-363.45 1059.09,-355.92 1052.77,-352.92"/>
</a>
</g>
</g>
<!-- Node8 -->
<g id="Node000008" class="node">
<title>Node8</title>
<g id="a_Node000008"><a xlink:href="_chamber_elastance_inductor_8h.html" target="_top" xlink:title="model::ChamberElastanceInductor source file">
<polygon fill="white" stroke="#666666" points="1620,-80.12 1450.25,-80.12 1450.25,-60.88 1620,-60.88 1620,-80.12"/>
<text text-anchor="middle" x="1535.12" y="-66.62" font-family="Helvetica,sans-Serif" font-size="10.00">model/ChamberElastanceInductor.h</text>
</a>
</g>
</g>
<!-- Node2&#45;&gt;Node8 -->
<g id="edge27_Node000002_Node000008" class="edge">
<title>Node2&#45;&gt;Node8</title>
<g id="a_edge27_Node000002_Node000008"><a xlink:title=" ">
<path fill="none" stroke="#63b8ff" d="M1097.62,-372.5C1262.43,-367.81 1775.72,-351.48 1803.12,-329.25 1828,-309.08 1822.12,-291.77 1822.12,-259.75 1822.12,-259.75 1822.12,-259.75 1822.12,-191.25 1822.12,-139.49 1661.11,-98.08 1580.28,-80.56"/>
<polygon fill="#63b8ff" stroke="#63b8ff" points="1097.77,-369 1087.88,-372.78 1097.97,-375.99 1097.77,-369"/>
</a>
</g>
</g>
<!-- Node9 -->
<g id="Node000009" class="node">
<title>Node9</title>
<g id="a_Node000009"><a xlink:href="_linear_elastance_chamber_8h.html" target="_top" xlink:title="model::LinearElastanceChamber source file">
<polygon fill="white" stroke="#666666" points="1799.88,-80.12 1638.38,-80.12 1638.38,-60.88 1799.88,-60.88 1799.88,-80.12"/>
<text text-anchor="middle" x="1719.12" y="-66.62" font-family="Helvetica,sans-Serif" font-size="10.00">model/LinearElastanceChamber.h</text>
</a>
</g>
</g>
<!-- Node2&#45;&gt;Node9 -->
<g id="edge44_Node000002_Node000009" class="edge">
<title>Node2&#45;&gt;Node9</title>
<g id="a_edge44_Node000002_Node000009"><a xlink:title=" ">
<path fill="none" stroke="#63b8ff" d="M1097.77,-372.36C1265.6,-367.15 1794.7,-349.22 1825.12,-329.25 1854.04,-310.27 1860.12,-294.33 1860.12,-259.75 1860.12,-259.75 1860.12,-259.75 1860.12,-191.25 1860.12,-132.16 1787.28,-96.15 1746.31,-80.57"/>
<polygon fill="#63b8ff" stroke="#63b8ff" points="1097.72,-368.86 1087.83,-372.66 1097.94,-375.85 1097.72,-368.86"/>
</a>
</g>
</g>
<!-- Node14 -->
<g id="Node000014" class="node">
<title>Node14</title>
<g id="a_Node000014"><a xlink:href="_blood_vessel_8h.html" target="_top" xlink:title="model::BloodVessel source file">
<polygon fill="white" stroke="#666666" points="1615.88,-329.25 1508.38,-329.25 1508.38,-310 1615.88,-310 1615.88,-329.25"/>
<text text-anchor="middle" x="1562.12" y="-315.75" font-family="Helvetica,sans-Serif" font-size="10.00">model/BloodVessel.h</text>
</a>
</g>
</g>
<!-- Node2&#45;&gt;Node14 -->
<g id="edge19_Node000002_Node000014" class="edge">
<title>Node2&#45;&gt;Node14</title>
<g id="a_edge19_Node000002_Node000014"><a xlink:title=" ">
<path fill="none" stroke="#63b8ff" d="M1097.67,-369.27C1180.55,-361.62 1350.5,-345.52 1494.12,-329.25 1498.62,-328.74 1503.28,-328.19 1507.95,-327.63"/>
<polygon fill="#63b8ff" stroke="#63b8ff" points="1097.47,-365.78 1087.83,-370.18 1098.11,-372.75 1097.47,-365.78"/>
</a>
</g>
</g>
<!-- Node15 -->
<g id="Node000015" class="node">
<title>Node15</title>
<g id="a_Node000015"><a xlink:href="_blood_vessel_junction_8h.html" target="_top" xlink:title="model::BloodVesselJunction source file">
<polygon fill="white" stroke="#666666" points="1578.25,-268.38 1434,-268.38 1434,-249.12 1578.25,-249.12 1578.25,-268.38"/>
<text text-anchor="middle" x="1506.12" y="-254.88" font-family="Helvetica,sans-Serif" font-size="10.00">model/BloodVesselJunction.h</text>
</a>
</g>
</g>
<!-- Node2&#45;&gt;Node15 -->
<g id="edge26_Node000002_Node000015" class="edge">
<title>Node2&#45;&gt;Node15</title>
<g id="a_edge26_Node000002_Node000015"><a xlink:title=" ">
<path fill="none" stroke="#63b8ff" d="M1097.54,-373.76C1194.21,-372.69 1401.38,-366.03 1461.12,-329.25 1484.14,-315.08 1497.62,-284.24 1503.16,-268.86"/>
<polygon fill="#63b8ff" stroke="#63b8ff" points="1097.8,-370.26 1087.83,-373.85 1097.86,-377.26 1097.8,-370.26"/>
</a>
</g>
</g>
<!-- Node16 -->
<g id="Node000016" class="node">
<title>Node16</title>
<g id="a_Node000016"><a xlink:href="_blood_vessel_c_r_l_8h.html" target="_top" xlink:title="model::BloodVesselCRL source file">
<polygon fill="white" stroke="#666666" points="1451.62,-329.25 1324.62,-329.25 1324.62,-310 1451.62,-310 1451.62,-329.25"/>
<text text-anchor="middle" x="1388.12" y="-315.75" font-family="Helvetica,sans-Serif" font-size="10.00">model/BloodVesselCRL.h</text>
</a>
</g>
</g>
<!-- Node2&#45;&gt;Node16 -->
<g id="edge23_Node000002_Node000016" class="edge">
<title>Node2&#45;&gt;Node16</title>
<g id="a_edge23_Node000002_Node000016"><a xlink:title=" ">
<path fill="none" stroke="#63b8ff" d="M1097.29,-366.04C1159.23,-356.37 1264.41,-339.94 1329.87,-329.72"/>
<polygon fill="#63b8ff" stroke="#63b8ff" points="1097.08,-362.53 1087.74,-367.53 1098.16,-369.45 1097.08,-362.53"/>
</a>
</g>
</g>
<!-- Node17 -->
<g id="Node000017" class="node">
<title>Node17</title>
<g id="a_Node000017"><a xlink:href="_chamber_sphere_8h.html" target="_top" xlink:title="model::ChamberSphere source file">
<polygon fill="white" stroke="#666666" points="1794.38,-329.25 1671.88,-329.25 1671.88,-310 1794.38,-310 1794.38,-329.25"/>
<text text-anchor="middle" x="1733.12" y="-315.75" font-family="Helvetica,sans-Serif" font-size="10.00">model/ChamberSphere.h</text>
</a>
</g>
</g>
<!-- Node2&#45;&gt;Node17 -->
<g id="edge28_Node000002_Node000017" class="edge">
<title>Node2&#45;&gt;Node17</title>
<g id="a_edge28_Node000002_Node000017"><a xlink:title=" ">
<path fill="none" stroke="#63b8ff" d="M1097.58,-370.9C1202.2,-364.58 1450.38,-348.77 1658.12,-329.25 1662.56,-328.83 1667.14,-328.37 1671.75,-327.89"/>
<polygon fill="#63b8ff" stroke="#63b8ff" points="1097.41,-367.41 1087.64,-371.5 1097.83,-374.39 1097.41,-367.41"/>
</a>
</g>
</g>
<!-- Node18 -->
<g id="Node000018" class="node">
<title>Node18</title>
<g id="a_Node000018"><a xlink:href="_closed_loop_coronary_b_c_8h.html" target="_top" xlink:title="model::ClosedLoopCoronaryBC source file">
<polygon fill="white" stroke="#666666" points="1378.25,-268.38 1222,-268.38 1222,-249.12 1378.25,-249.12 1378.25,-268.38"/>
<text text-anchor="middle" x="1300.12" y="-254.88" font-family="Helvetica,sans-Serif" font-size="10.00">model/ClosedLoopCoronaryBC.h</text>
</a>
</g>
</g>
<!-- Node2&#45;&gt;Node18 -->
<g id="edge30_Node000002_Node000018" class="edge">
<title>Node2&#45;&gt;Node18</title>
<g id="a_edge30_Node000002_Node000018"><a xlink:title=" ">
<path fill="none" stroke="#63b8ff" d="M1097.62,-369.99C1157.06,-364.43 1251,-352.23 1277.12,-329.25 1295.07,-313.47 1299.06,-283.38 1299.92,-268.52"/>
<polygon fill="#63b8ff" stroke="#63b8ff" points="1097.38,-366.5 1087.73,-370.88 1098.01,-373.47 1097.38,-366.5"/>
</a>
</g>
</g>
<!-- Node21 -->
<g id="Node000021" class="node">
<title>Node21</title>
<g id="a_Node000021"><a xlink:href="_closed_loop_heart_pulmonary_8h.html" target="_top" xlink:title="model::ClosedLoopHeartPulmonary source file">
<polygon fill="white" stroke="#666666" points="1268.25,-329.25 1094,-329.25 1094,-310 1268.25,-310 1268.25,-329.25"/>
<text text-anchor="middle" x="1181.12" y="-315.75" font-family="Helvetica,sans-Serif" font-size="10.00">model/ClosedLoopHeartPulmonary.h</text>
</a>
</g>
</g>
<!-- Node2&#45;&gt;Node21 -->
<g id="edge35_Node000002_Node000021" class="edge">
<title>Node2&#45;&gt;Node21</title>
<g id="a_edge35_Node000002_Node000021"><a xlink:title=" ">
<path fill="none" stroke="#63b8ff" d="M1080.37,-360.66C1104.63,-351.02 1136.88,-338.21 1158.28,-329.7"/>
<polygon fill="#63b8ff" stroke="#63b8ff" points="1079.26,-357.34 1071.26,-364.28 1081.85,-363.84 1079.26,-357.34"/>
</a>
</g>
</g>
<!-- Node22 -->
<g id="Node000022" class="node">
<title>Node22</title>
<g id="a_Node000022"><a xlink:href="_closed_loop_r_c_r_b_c_8h.html" target="_top" xlink:title="model::ClosedLoopRCRBC source file">
<polygon fill="white" stroke="#666666" points="138.25,-201.88 0,-201.88 0,-182.62 138.25,-182.62 138.25,-201.88"/>
<text text-anchor="middle" x="69.12" y="-188.38" font-family="Helvetica,sans-Serif" font-size="10.00">model/ClosedLoopRCRBC.h</text>
</a>
</g>
</g>
<!-- Node2&#45;&gt;Node22 -->
<g id="edge38_Node000002_Node000022" class="edge">
<title>Node2&#45;&gt;Node22</title>
<g id="a_edge38_Node000002_Node000022"><a xlink:title=" ">
<path fill="none" stroke="#63b8ff" d="M996.85,-372.84C831.71,-369.21 312.46,-355.79 242.12,-329.25 167.06,-300.93 98.74,-227.56 76.6,-202.1"/>
<polygon fill="#63b8ff" stroke="#63b8ff" points="996.53,-376.34 1006.6,-373.06 996.68,-369.34 996.53,-376.34"/>
</a>
</g>
</g>
<!-- Node23 -->
<g id="Node000023" class="node">
<title>Node23</title>
<g id="a_Node000023"><a xlink:href="_flow_reference_b_c_8h.html" target="_top" xlink:title="model::FlowReferenceBC source file">
<polygon fill="white" stroke="#666666" points="287.88,-201.88 156.38,-201.88 156.38,-182.62 287.88,-182.62 287.88,-201.88"/>
<text text-anchor="middle" x="222.12" y="-188.38" font-family="Helvetica,sans-Serif" font-size="10.00">model/FlowReferenceBC.h</text>
</a>
</g>
</g>
<!-- Node2&#45;&gt;Node23 -->
<g id="edge40_Node000002_Node000023" class="edge">
<title>Node2&#45;&gt;Node23</title>
<g id="a_edge40_Node000002_Node000023"><a xlink:title=" ">
<path fill="none" stroke="#63b8ff" d="M996.68,-374.32C832.31,-375.33 319.49,-374.77 262.12,-329.25 221.83,-297.28 220.67,-226.86 221.6,-202.09"/>
<polygon fill="#63b8ff" stroke="#63b8ff" points="996.41,-377.82 1006.38,-374.26 996.36,-370.82 996.41,-377.82"/>
</a>
</g>
</g>
<!-- Node24 -->
<g id="Node000024" class="node">
<title>Node24</title>
<g id="a_Node000024"><a xlink:href="_junction_8h.html" target="_top" xlink:title="model::Junction source file">
<polygon fill="white" stroke="#666666" points="360.88,-329.25 271.38,-329.25 271.38,-310 360.88,-310 360.88,-329.25"/>
<text text-anchor="middle" x="316.12" y="-315.75" font-family="Helvetica,sans-Serif" font-size="10.00">model/Junction.h</text>
</a>
</g>
</g>
<!-- Node2&#45;&gt;Node24 -->
<g id="edge42_Node000002_Node000024" class="edge">
<title>Node2&#45;&gt;Node24</title>
<g id="a_edge42_Node000002_Node000024"><a xlink:title=" ">
<path fill="none" stroke="#63b8ff" d="M996.78,-372.15C884.18,-367.95 603.57,-355.53 370.12,-329.25 367.2,-328.92 364.19,-328.54 361.16,-328.14"/>
<polygon fill="#63b8ff" stroke="#63b8ff" points="996.46,-375.64 1006.58,-372.51 996.71,-368.65 996.46,-375.64"/>
</a>
</g>
</g>
<!-- Node25 -->
<g id="Node000025" class="node">
<title>Node25</title>
<g id="a_Node000025"><a xlink:href="_open_loop_coronary_b_c_8h.html" target="_top" xlink:title="model::OpenLoopCoronaryBC source file">
<polygon fill="white" stroke="#666666" points="528.88,-329.25 379.38,-329.25 379.38,-310 528.88,-310 528.88,-329.25"/>
<text text-anchor="middle" x="454.12" y="-315.75" font-family="Helvetica,sans-Serif" font-size="10.00">model/OpenLoopCoronaryBC.h</text>
</a>
</g>
</g>
<!-- Node2&#45;&gt;Node25 -->
<g id="edge46_Node000002_Node000025" class="edge">
<title>Node2&#45;&gt;Node25</title>
<g id="a_edge46_Node000002_Node000025"><a xlink:title=" ">
<path fill="none" stroke="#63b8ff" d="M996.77,-369.35C892.45,-359.99 652.18,-338.41 529.37,-327.38"/>
<polygon fill="#63b8ff" stroke="#63b8ff" points="996.44,-372.84 1006.71,-370.25 997.06,-365.87 996.44,-372.84"/>
</a>
</g>
</g>
<!-- Node26 -->
<g id="Node000026" class="node">
<title>Node26</title>
<g id="a_Node000026"><a xlink:href="_open_loop_coronary_var_res_b_c_8h.html" target="_top" xlink:title="model::OpenLoopCoronaryVarResBC source file">
<polygon fill="white" stroke="#666666" points="525.88,-274 382.38,-274 382.38,-243.5 525.88,-243.5 525.88,-274"/>
<text text-anchor="start" x="390.38" y="-260.5" font-family="Helvetica,sans-Serif" font-size="10.00">model/OpenLoopCoronaryVar</text>
<text text-anchor="middle" x="454.12" y="-249.25" font-family="Helvetica,sans-Serif" font-size="10.00">ResBC.h</text>
</a>
</g>
</g>
<!-- Node2&#45;&gt;Node26 -->
<g id="edge50_Node000002_Node000026" class="edge">
<title>Node2&#45;&gt;Node26</title>
<g id="a_edge50_Node000002_Node000026"><a xlink:title=" ">
<path fill="none" stroke="#63b8ff" d="M996.95,-372C920.7,-368.32 771.49,-357.83 648.12,-329.25 590.09,-315.8 525.49,-290.45 487.4,-274.36"/>
<polygon fill="#63b8ff" stroke="#63b8ff" points="996.44,-375.48 1006.59,-372.45 996.76,-368.49 996.44,-375.48"/>
</a>
</g>
</g>
<!-- Node27 -->
<g id="Node000027" class="node">
<title>Node27</title>
<g id="a_Node000027"><a xlink:href="_piecewise_valve_8h.html" target="_top" xlink:title="model::PiecewiseValve source file">
<polygon fill="white" stroke="#666666" points="666.38,-268.38 543.88,-268.38 543.88,-249.12 666.38,-249.12 666.38,-268.38"/>
<text text-anchor="middle" x="605.12" y="-254.88" font-family="Helvetica,sans-Serif" font-size="10.00">model/PiecewiseValve.h</text>
</a>
</g>
</g>
<!-- Node2&#45;&gt;Node27 -->
<g id="edge51_Node000002_Node000027" class="edge">
<title>Node2&#45;&gt;Node27</title>
<g id="a_edge51_Node000002_Node000027"><a xlink:title=" ">
<path fill="none" stroke="#63b8ff" d="M996.59,-371.57C909.51,-366.97 735.24,-354.81 680.12,-329.25 649.53,-315.06 623.03,-283.65 611.41,-268.4"/>
<polygon fill="#63b8ff" stroke="#63b8ff" points="996.35,-375.06 1006.51,-372.08 996.7,-368.07 996.35,-375.06"/>
</a>
</g>
</g>
<!-- Node28 -->
<g id="Node000028" class="node">
<title>Node28</title>
<g id="a_Node000028"><a xlink:href="_pressure_reference_b_c_8h.html" target="_top" xlink:title="model::PressureReferenceBC source file">
<polygon fill="white" stroke="#666666" points="800.88,-201.88 651.38,-201.88 651.38,-182.62 800.88,-182.62 800.88,-201.88"/>
<text text-anchor="middle" x="726.12" y="-188.38" font-family="Helvetica,sans-Serif" font-size="10.00">model/PressureReferenceBC.h</text>
</a>
</g>
</g>
<!-- Node2&#45;&gt;Node28 -->
<g id="edge53_Node000002_Node000028" class="edge">
<title>Node2&#45;&gt;Node28</title>
<g id="a_edge53_Node000002_Node000028"><a xlink:title=" ">
<path fill="none" stroke="#63b8ff" d="M996.68,-366.97C910.9,-354 742.98,-322.81 713.12,-274 699.12,-251.11 712.88,-218 721.04,-202.24"/>
<polygon fill="#63b8ff" stroke="#63b8ff" points="996.06,-370.42 1006.47,-368.42 997.09,-363.49 996.06,-370.42"/>
</a>
</g>
</g>
<!-- Node29 -->
<g id="Node000029" class="node">
<title>Node29</title>
<g id="a_Node000029"><a xlink:href="_resistance_b_c_8h.html" target="_top" xlink:title="model::ResistanceBC source file">
<polygon fill="white" stroke="#666666" points="837.62,-268.38 722.62,-268.38 722.62,-249.12 837.62,-249.12 837.62,-268.38"/>
<text text-anchor="middle" x="780.12" y="-254.88" font-family="Helvetica,sans-Serif" font-size="10.00">model/ResistanceBC.h</text>
</a>
</g>
</g>
<!-- Node2&#45;&gt;Node29 -->
<g id="edge55_Node000002_Node000029" class="edge">
<title>Node2&#45;&gt;Node29</title>
<g id="a_edge55_Node000002_Node000029"><a xlink:title=" ">
<path fill="none" stroke="#63b8ff" d="M996.6,-369.84C955.61,-364.85 897.39,-353.76 852.12,-329.25 823.4,-313.7 798.04,-283.5 786.59,-268.56"/>
<polygon fill="#63b8ff" stroke="#63b8ff" points="996.12,-373.31 1006.44,-370.95 996.9,-366.35 996.12,-373.31"/>
</a>
</g>
</g>
<!-- Node30 -->
<g id="Node000030" class="node">
<title>Node30</title>
<g id="a_Node000030"><a xlink:href="_resistive_junction_8h.html" target="_top" xlink:title="model::ResistiveJunction source file">
<polygon fill="white" stroke="#666666" points="991.12,-201.88 861.12,-201.88 861.12,-182.62 991.12,-182.62 991.12,-201.88"/>
<text text-anchor="middle" x="926.12" y="-188.38" font-family="Helvetica,sans-Serif" font-size="10.00">model/ResistiveJunction.h</text>
</a>
</g>
</g>
<!-- Node2&#45;&gt;Node30 -->
<g id="edge57_Node000002_Node000030" class="edge">
<title>Node2&#45;&gt;Node30</title>
<g id="a_edge57_Node000002_Node000030"><a xlink:title=" ">
<path fill="none" stroke="#63b8ff" d="M1004.78,-361.03C965.85,-346.71 910.47,-319.39 885.12,-274 870.87,-248.47 898.97,-217.41 915.41,-202.33"/>
<polygon fill="#63b8ff" stroke="#63b8ff" points="1003.51,-364.3 1014.1,-364.31 1005.83,-357.69 1003.51,-364.3"/>
</a>
</g>
</g>
<!-- Node31 -->
<g id="Node000031" class="node">
<title>Node31</title>
<g id="a_Node000031"><a xlink:href="_valve_tanh_8h.html" target="_top" xlink:title="model::ValveTanh source file">
<polygon fill="white" stroke="#666666" points="993.75,-268.38 894.5,-268.38 894.5,-249.12 993.75,-249.12 993.75,-268.38"/>
<text text-anchor="middle" x="944.12" y="-254.88" font-family="Helvetica,sans-Serif" font-size="10.00">model/ValveTanh.h</text>
</a>
</g>
</g>
<!-- Node2&#45;&gt;Node31 -->
<g id="edge59_Node000002_Node000031" class="edge">
<title>Node2&#45;&gt;Node31</title>
<g id="a_edge59_Node000002_Node000031"><a xlink:title=" ">
<path fill="none" stroke="#63b8ff" d="M1031.46,-356.52C1009.2,-331.85 969.21,-287.54 952.17,-268.66"/>
<polygon fill="#63b8ff" stroke="#63b8ff" points="1028.73,-358.72 1038.03,-363.8 1033.93,-354.03 1028.73,-358.72"/>
</a>
</g>
</g>
<!-- Node32 -->
<g id="Node000032" class="node">
<title>Node32</title>
<g id="a_Node000032"><a xlink:href="_windkessel_b_c_8h.html" target="_top" xlink:title="model::WindkesselBC source file">
<polygon fill="white" stroke="#666666" points="1128.38,-268.38 1011.88,-268.38 1011.88,-249.12 1128.38,-249.12 1128.38,-268.38"/>
<text text-anchor="middle" x="1070.12" y="-254.88" font-family="Helvetica,sans-Serif" font-size="10.00">model/WindkesselBC.h</text>
</a>
</g>
</g>
<!-- Node2&#45;&gt;Node32 -->
<g id="edge61_Node000002_Node000032" class="edge">
<title>Node2&#45;&gt;Node32</title>
<g id="a_edge61_Node000002_Node000032"><a xlink:title=" ">
<path fill="none" stroke="#63b8ff" d="M1047.33,-353.97C1047.79,-341.27 1049.01,-324.52 1052.12,-310 1055.31,-295.14 1061.8,-278.7 1066.06,-268.8"/>
<polygon fill="#63b8ff" stroke="#63b8ff" points="1043.84,-353.5 1047.11,-363.58 1050.84,-353.66 1043.84,-353.5"/>
</a>
</g>
</g>
<!-- Node3&#45;&gt;Node4 -->
<g id="edge3_Node000003_Node000004" class="edge">
<title>Node3&#45;&gt;Node4</title>
<g id="a_edge3_Node000003_Node000004"><a xlink:title=" ">
<path fill="none" stroke="#63b8ff" d="M1598.59,-179.95C1592.72,-178.86 1586.8,-177.84 1581.12,-177 1416.78,-152.55 1218.98,-139.34 1135.91,-134.52"/>
<polygon fill="#63b8ff" stroke="#63b8ff" points="1597.79,-183.36 1608.28,-181.84 1599.13,-176.49 1597.79,-183.36"/>
</a>
</g>
</g>
<!-- Node5 -->
<g id="Node000005" class="node">
<title>Node5</title>
<g id="a_Node000005"><a xlink:href="_integrator_8h.html" target="_top" xlink:title="Integrator source file.">
<polygon fill="white" stroke="#666666" points="1067.75,-80.12 968.5,-80.12 968.5,-60.88 1067.75,-60.88 1067.75,-80.12"/>
<text text-anchor="middle" x="1018.12" y="-66.62" font-family="Helvetica,sans-Serif" font-size="10.00">algebra/Integrator.h</text>
</a>
</g>
</g>
<!-- Node4&#45;&gt;Node5 -->
<g id="edge4_Node000004_Node000005" class="edge">
<title>Node4&#45;&gt;Node5</title>
<g id="a_edge4_Node000004_Node000005"><a xlink:title=" ">
<path fill="none" stroke="#63b8ff" d="M1075.09,-114.5C1060.66,-103.61 1042.04,-89.55 1030.08,-80.53"/>
<polygon fill="#63b8ff" stroke="#63b8ff" points="1072.98,-117.29 1083.07,-120.52 1077.2,-111.7 1072.98,-117.29"/>
</a>
</g>
</g>
<!-- Node6 -->
<g id="Node000006" class="node">
<title>Node6</title>
<g id="a_Node000006"><a xlink:href="interface_8h.html" target="_top" xlink:title="svZeroDSolver callable interface.">
<polygon fill="white" stroke="#666666" points="953.88,-19.25 852.38,-19.25 852.38,0 953.88,0 953.88,-19.25"/>
<text text-anchor="middle" x="903.12" y="-5.75" font-family="Helvetica,sans-Serif" font-size="10.00">interface/interface.h</text>
</a>
</g>
</g>
<!-- Node4&#45;&gt;Node6 -->
<g id="edge7_Node000004_Node000006" class="edge">
<title>Node4&#45;&gt;Node6</title>
<g id="a_edge7_Node000004_Node000006"><a xlink:title=" ">
<path fill="none" stroke="#63b8ff" d="M1045.04,-128.68C979.66,-125.31 871.85,-115.3 847.12,-85.75 838.43,-75.35 841.24,-67.46 847.12,-55.25 854.84,-39.23 871.41,-27.19 884.53,-19.67"/>
<polygon fill="#63b8ff" stroke="#63b8ff" points="1044.67,-132.16 1054.82,-129.14 1045,-125.17 1044.67,-132.16"/>
</a>
</g>
</g>
<!-- Node7 -->
<g id="Node000007" class="node">
<title>Node7</title>
<g id="a_Node000007"><a xlink:href="_solver_8h.html" target="_top" xlink:title="Solver source file.">
<polygon fill="white" stroke="#666666" points="1134.88,-19.25 1057.38,-19.25 1057.38,0 1134.88,0 1134.88,-19.25"/>
<text text-anchor="middle" x="1096.12" y="-5.75" font-family="Helvetica,sans-Serif" font-size="10.00">solve/Solver.h</text>
</a>
</g>
</g>
<!-- Node4&#45;&gt;Node7 -->
<g id="edge16_Node000004_Node000007" class="edge">
<title>Node4&#45;&gt;Node7</title>
<g id="a_edge16_Node000004_Node000007"><a xlink:title=" ">
<path fill="none" stroke="#63b8ff" d="M1096.12,-110.13C1096.12,-83.8 1096.12,-38.9 1096.12,-19.73"/>
<polygon fill="#63b8ff" stroke="#63b8ff" points="1092.63,-109.86 1096.13,-119.86 1099.63,-109.86 1092.63,-109.86"/>
</a>
</g>
</g>
<!-- Node4&#45;&gt;Node8 -->
<g id="edge8_Node000004_Node000008" class="edge">
<title>Node4&#45;&gt;Node8</title>
<g id="a_edge8_Node000004_Node000008"><a xlink:title=" ">
<path fill="none" stroke="#63b8ff" d="M1147.31,-123.31C1213.27,-114.82 1331.13,-99.93 1432.12,-85.75 1443.57,-84.14 1455.78,-82.35 1467.67,-80.59"/>
<polygon fill="#63b8ff" stroke="#63b8ff" points="1146.98,-119.83 1137.51,-124.58 1147.87,-126.77 1146.98,-119.83"/>
</a>
</g>
</g>
<!-- Node4&#45;&gt;Node9 -->
<g id="edge10_Node000004_Node000009" class="edge">
<title>Node4&#45;&gt;Node9</title>
<g id="a_edge10_Node000004_Node000009"><a xlink:title=" ">
<path fill="none" stroke="#63b8ff" d="M1147.26,-127.01C1241.21,-120.9 1447.07,-106.67 1620.12,-85.75 1632.06,-84.31 1644.84,-82.47 1657.15,-80.59"/>
<polygon fill="#63b8ff" stroke="#63b8ff" points="1147.1,-123.51 1137.34,-127.65 1147.55,-130.5 1147.1,-123.51"/>
</a>
</g>
</g>
<!-- Node10 -->
<g id="Node000010" class="node">
<title>Node10</title>
<g id="a_Node000010"><a xlink:href="_levenberg_marquardt_optimizer_8h.html" target="_top" xlink:title="opt::LevenbergMarquardtOptimizer source file">
<polygon fill="white" stroke="#666666" points="1432.25,-85.75 1288,-85.75 1288,-55.25 1432.25,-55.25 1432.25,-85.75"/>
<text text-anchor="start" x="1296" y="-72.25" font-family="Helvetica,sans-Serif" font-size="10.00">optimize/LevenbergMarquardt</text>
<text text-anchor="middle" x="1360.12" y="-61" font-family="Helvetica,sans-Serif" font-size="10.00">Optimizer.h</text>
</a>
</g>
</g>
<!-- Node4&#45;&gt;Node10 -->
<g id="edge12_Node000004_Node000010" class="edge">
<title>Node4&#45;&gt;Node10</title>
<g id="a_edge12_Node000004_Node000010"><a xlink:title=" ">
<path fill="none" stroke="#63b8ff" d="M1146.98,-119.03C1188.84,-109.7 1248.49,-96.4 1294.05,-86.24"/>
<polygon fill="#63b8ff" stroke="#63b8ff" points="1146.41,-115.57 1137.41,-121.17 1147.93,-122.41 1146.41,-115.57"/>
</a>
</g>
</g>
<!-- Node11 -->
<g id="Node000011" class="node">
<title>Node11</title>
<g id="a_Node000011"><a xlink:href="calibrate_8h.html" target="_top" xlink:title="opt::calibrate source file">
<polygon fill="white" stroke="#666666" points="799.75,-80.12 700.5,-80.12 700.5,-60.88 799.75,-60.88 799.75,-80.12"/>
<text text-anchor="middle" x="750.12" y="-66.62" font-family="Helvetica,sans-Serif" font-size="10.00">optimize/calibrate.h</text>
</a>
</g>
</g>
<!-- Node4&#45;&gt;Node11 -->
<g id="edge13_Node000004_Node000011" class="edge">
<title>Node4&#45;&gt;Node11</title>
<g id="a_edge13_Node000004_Node000011"><a xlink:title=" ">
<path fill="none" stroke="#63b8ff" d="M1045.14,-123.28C988.54,-115.18 894.53,-101.05 814.12,-85.75 805.96,-84.2 797.25,-82.37 788.97,-80.55"/>
<polygon fill="#63b8ff" stroke="#63b8ff" points="1044.4,-126.71 1054.8,-124.65 1045.39,-119.78 1044.4,-126.71"/>
</a>
</g>
</g>
<!-- Node12 -->
<g id="Node000012" class="node">
<title>Node12</title>
<g id="a_Node000012"><a xlink:href="_simulation_parameters_8h.html" target="_top" xlink:title="Source file to read simulation configuration.">
<polygon fill="white" stroke="#666666" points="1270,-80.12 1124.25,-80.12 1124.25,-60.88 1270,-60.88 1270,-80.12"/>
<text text-anchor="middle" x="1197.12" y="-66.62" font-family="Helvetica,sans-Serif" font-size="10.00">solve/SimulationParameters.h</text>
</a>
</g>
</g>
<!-- Node4&#45;&gt;Node12 -->
<g id="edge14_Node000004_Node000012" class="edge">
<title>Node4&#45;&gt;Node12</title>
<g id="a_edge14_Node000004_Node000012"><a xlink:title=" ">
<path fill="none" stroke="#63b8ff" d="M1121.23,-115.74C1140.17,-104.7 1165.57,-89.9 1181.64,-80.53"/>
<polygon fill="#63b8ff" stroke="#63b8ff" points="1119.65,-112.61 1112.77,-120.67 1123.17,-118.66 1119.65,-112.61"/>
</a>
</g>
</g>
<!-- Node13 -->
<g id="Node000013" class="node">
<title>Node13</title>
<g id="a_Node000013"><a xlink:href="csv__writer_8h.html" target="_top" xlink:title="csv_writer source file">
<polygon fill="white" stroke="#666666" points="950.5,-80.12 855.75,-80.12 855.75,-60.88 950.5,-60.88 950.5,-80.12"/>
<text text-anchor="middle" x="903.12" y="-66.62" font-family="Helvetica,sans-Serif" font-size="10.00">solve/csv_writer.h</text>
</a>
</g>
</g>
<!-- Node4&#45;&gt;Node13 -->
<g id="edge17_Node000004_Node000013" class="edge">
<title>Node4&#45;&gt;Node13</title>
<g id="a_edge17_Node000004_Node000013"><a xlink:title=" ">
<path fill="none" stroke="#63b8ff" d="M1055.58,-118.01C1018.91,-106.82 965.77,-90.61 932.89,-80.58"/>
<polygon fill="#63b8ff" stroke="#63b8ff" points="1054.36,-121.29 1064.94,-120.86 1056.4,-114.6 1054.36,-121.29"/>
</a>
</g>
</g>
<!-- Node5&#45;&gt;Node6 -->
<g id="edge5_Node000005_Node000006" class="edge">
<title>Node5&#45;&gt;Node6</title>
<g id="a_edge5_Node000005_Node000006"><a xlink:title=" ">
<path fill="none" stroke="#63b8ff" d="M990.44,-55.33C968.78,-44.24 939.31,-29.15 920.76,-19.65"/>
<polygon fill="#63b8ff" stroke="#63b8ff" points="988.82,-58.43 999.31,-59.87 992.01,-52.2 988.82,-58.43"/>
</a>
</g>
</g>
<!-- Node5&#45;&gt;Node7 -->
<g id="edge6_Node000005_Node000007" class="edge">
<title>Node5&#45;&gt;Node7</title>
<g id="a_edge6_Node000005_Node000007"><a xlink:title=" ">
<path fill="none" stroke="#63b8ff" d="M1039.16,-53.63C1053.59,-42.73 1072.21,-28.67 1084.17,-19.65"/>
<polygon fill="#63b8ff" stroke="#63b8ff" points="1037.05,-50.83 1031.18,-59.65 1041.27,-56.42 1037.05,-50.83"/>
</a>
</g>
</g>
<!-- Node8&#45;&gt;Node4 -->
<g id="edge9_Node000008_Node000004" class="edge">
<title>Node8&#45;&gt;Node4</title>
<g id="a_edge9_Node000008_Node000004"><a xlink:title=" ">
<path fill="none" stroke="#63b8ff" d="M1474.07,-82.28C1466.03,-83.48 1457.9,-84.66 1450.12,-85.75 1336.64,-101.69 1201.85,-118.52 1136.02,-126.16"/>
<polygon fill="#63b8ff" stroke="#63b8ff" points="1474.44,-85.77 1483.81,-80.82 1473.4,-78.85 1474.44,-85.77"/>
</a>
</g>
</g>
<!-- Node9&#45;&gt;Node4 -->
<g id="edge11_Node000009_Node000004" class="edge">
<title>Node9&#45;&gt;Node4</title>
<g id="a_edge11_Node000009_Node000004"><a xlink:title=" ">
<path fill="none" stroke="#63b8ff" d="M1663.36,-82.33C1654.94,-83.58 1646.33,-84.76 1638.12,-85.75 1451.21,-108.34 1226.04,-123.14 1135.98,-128.32"/>
<polygon fill="#63b8ff" stroke="#63b8ff" points="1663.83,-85.8 1673.18,-80.82 1662.77,-78.88 1663.83,-85.8"/>
</a>
</g>
</g>
<!-- Node12&#45;&gt;Node7 -->
<g id="edge15_Node000012_Node000007" class="edge">
<title>Node12&#45;&gt;Node7</title>
<g id="a_edge15_Node000012_Node000007"><a xlink:title=" ">
<path fill="none" stroke="#63b8ff" d="M1172.02,-54.87C1153.08,-43.82 1127.68,-29.02 1111.61,-19.65"/>
<polygon fill="#63b8ff" stroke="#63b8ff" points="1170.08,-57.78 1180.48,-59.8 1173.6,-51.74 1170.08,-57.78"/>
</a>
</g>
</g>
<!-- Node13&#45;&gt;Node6 -->
<g id="edge18_Node000013_Node000006" class="edge">
<title>Node13&#45;&gt;Node6</title>
<g id="a_edge18_Node000013_Node000006"><a xlink:title=" ">
<path fill="none" stroke="#63b8ff" d="M903.12,-49.07C903.12,-39.04 903.12,-27.46 903.12,-19.65"/>
<polygon fill="#63b8ff" stroke="#63b8ff" points="899.63,-49.04 903.13,-59.04 906.63,-49.04 899.63,-49.04"/>
</a>
</g>
</g>
<!-- Node14&#45;&gt;Node4 -->
<g id="edge22_Node000014_Node000004" class="edge">
<title>Node14&#45;&gt;Node4</title>
<g id="a_edge22_Node000014_Node000004"><a xlink:title=" ">
<path fill="none" stroke="#63b8ff" d="M1575.82,-300.2C1585.51,-284.76 1595.43,-262.3 1587.12,-243.5 1569.39,-203.35 1554.15,-195 1514.12,-177 1447.15,-146.88 1227.15,-136.54 1136.11,-133.49"/>
<polygon fill="#63b8ff" stroke="#63b8ff" points="1572.98,-298.15 1570.22,-308.38 1578.76,-302.1 1572.98,-298.15"/>
</a>
</g>
</g>
<!-- Node14&#45;&gt;Node15 -->
<g id="edge20_Node000014_Node000015" class="edge">
<title>Node14&#45;&gt;Node15</title>
<g id="a_edge20_Node000014_Node000015"><a xlink:title=" ">
<path fill="none" stroke="#63b8ff" d="M1545.82,-301.48C1535.64,-290.79 1522.96,-277.45 1514.71,-268.78"/>
<polygon fill="#63b8ff" stroke="#63b8ff" points="1543.15,-303.75 1552.58,-308.59 1548.22,-298.93 1543.15,-303.75"/>
</a>
</g>
</g>
<!-- Node15&#45;&gt;Node4 -->
<g id="edge21_Node000015_Node000004" class="edge">
<title>Node15&#45;&gt;Node4</title>
<g id="a_edge21_Node000015_Node000004"><a xlink:title=" ">
<path fill="none" stroke="#63b8ff" d="M1509.06,-237.41C1510.48,-218.93 1509.16,-192.29 1493.12,-177 1467.56,-152.62 1231.21,-138.78 1135.79,-134.15"/>
<polygon fill="#63b8ff" stroke="#63b8ff" points="1505.61,-236.83 1507.96,-247.16 1512.56,-237.61 1505.61,-236.83"/>
</a>
</g>
</g>
<!-- Node16&#45;&gt;Node4 -->
<g id="edge25_Node000016_Node000004" class="edge">
<title>Node16&#45;&gt;Node4</title>
<g id="a_edge25_Node000016_Node000004"><a xlink:title=" ">
<path fill="none" stroke="#63b8ff" d="M1395.67,-299.25C1402.26,-283.51 1412.7,-261.11 1425.12,-243.5 1437.99,-225.27 1451.73,-228.18 1460.12,-207.5 1465.22,-194.94 1469.11,-187.15 1460.12,-177 1438.9,-153.01 1226.09,-139.16 1136.04,-134.33"/>
<polygon fill="#63b8ff" stroke="#63b8ff" points="1392.48,-297.82 1391.98,-308.4 1398.97,-300.43 1392.48,-297.82"/>
</a>
</g>
</g>
<!-- Node16&#45;&gt;Node15 -->
<g id="edge24_Node000016_Node000015" class="edge">
<title>Node16&#45;&gt;Node15</title>
<g id="a_edge24_Node000016_Node000015"><a xlink:title=" ">
<path fill="none" stroke="#63b8ff" d="M1416.5,-304.47C1438.76,-293.36 1469.08,-278.24 1488.12,-268.73"/>
<polygon fill="#63b8ff" stroke="#63b8ff" points="1415.04,-301.28 1407.66,-308.88 1418.17,-307.55 1415.04,-301.28"/>
</a>
</g>
</g>
<!-- Node17&#45;&gt;Node4 -->
<g id="edge29_Node000017_Node000004" class="edge">
<title>Node17&#45;&gt;Node4</title>
<g id="a_edge29_Node000017_Node000004"><a xlink:title=" ">
<path fill="none" stroke="#63b8ff" d="M1737.38,-298.58C1742.66,-267.56 1747.32,-208.22 1714.12,-177 1672.06,-137.43 1265.68,-132.85 1135.81,-132.4"/>
<polygon fill="#63b8ff" stroke="#63b8ff" points="1733.99,-297.68 1735.54,-308.16 1740.86,-299 1733.99,-297.68"/>
</a>
</g>
</g>
<!-- Node19 -->
<g id="Node000019" class="node">
<title>Node19</title>
<g id="a_Node000019"><a xlink:href="_closed_loop_coronary_left_b_c_8h.html" target="_top" xlink:title="Left side of ClosedLoopCoronaryBC.">
<polygon fill="white" stroke="#666666" points="1297.75,-207.5 1162.5,-207.5 1162.5,-177 1297.75,-177 1297.75,-207.5"/>
<text text-anchor="start" x="1170.5" y="-194" font-family="Helvetica,sans-Serif" font-size="10.00">model/ClosedLoopCoronary</text>
<text text-anchor="middle" x="1230.12" y="-182.75" font-family="Helvetica,sans-Serif" font-size="10.00">LeftBC.h</text>
</a>
</g>
</g>
<!-- Node18&#45;&gt;Node19 -->
<g id="edge31_Node000018_Node000019" class="edge">
<title>Node18&#45;&gt;Node19</title>
<g id="a_edge31_Node000018_Node000019"><a xlink:title=" ">
<path fill="none" stroke="#63b8ff" d="M1282.2,-241.24C1271.01,-230.92 1256.73,-217.77 1245.96,-207.84"/>
<polygon fill="#63b8ff" stroke="#63b8ff" points="1279.55,-243.55 1289.28,-247.76 1284.3,-238.41 1279.55,-243.55"/>
</a>
</g>
</g>
<!-- Node20 -->
<g id="Node000020" class="node">
<title>Node20</title>
<g id="a_Node000020"><a xlink:href="_closed_loop_coronary_right_b_c_8h.html" target="_top" xlink:title="Right side of ClosedLoopCoronaryBC.">
<polygon fill="white" stroke="#666666" points="1450.75,-207.5 1315.5,-207.5 1315.5,-177 1450.75,-177 1450.75,-207.5"/>
<text text-anchor="start" x="1323.5" y="-194" font-family="Helvetica,sans-Serif" font-size="10.00">model/ClosedLoopCoronary</text>
<text text-anchor="middle" x="1383.12" y="-182.75" font-family="Helvetica,sans-Serif" font-size="10.00">RightBC.h</text>
</a>
</g>
</g>
<!-- Node18&#45;&gt;Node20 -->
<g id="edge33_Node000018_Node000020" class="edge">
<title>Node18&#45;&gt;Node20</title>
<g id="a_edge33_Node000018_Node000020"><a xlink:title=" ">
<path fill="none" stroke="#63b8ff" d="M1320.59,-241.85C1333.97,-231.45 1351.32,-217.97 1364.35,-207.84"/>
<polygon fill="#63b8ff" stroke="#63b8ff" points="1318.61,-238.95 1312.86,-247.85 1322.9,-244.48 1318.61,-238.95"/>
</a>
</g>
</g>
<!-- Node19&#45;&gt;Node4 -->
<g id="edge32_Node000019_Node000004" class="edge">
<title>Node19&#45;&gt;Node4</title>
<g id="a_edge32_Node000019_Node000004"><a xlink:title=" ">
<path fill="none" stroke="#63b8ff" d="M1186.25,-171.97C1162.84,-161.69 1135.13,-149.51 1116.68,-141.4"/>
<polygon fill="#63b8ff" stroke="#63b8ff" points="1184.71,-175.12 1195.27,-175.94 1187.52,-168.71 1184.71,-175.12"/>
</a>
</g>
</g>
<!-- Node20&#45;&gt;Node4 -->
<g id="edge34_Node000020_Node000004" class="edge">
<title>Node20&#45;&gt;Node4</title>
<g id="a_edge34_Node000020_Node000004"><a xlink:title=" ">
<path fill="none" stroke="#63b8ff" d="M1304.06,-175.03C1249.43,-163.82 1179.07,-149.39 1135.81,-140.52"/>
<polygon fill="#63b8ff" stroke="#63b8ff" points="1303.13,-178.41 1313.63,-176.99 1304.53,-171.56 1303.13,-178.41"/>
</a>
</g>
</g>
<!-- Node21&#45;&gt;Node4 -->
<g id="edge37_Node000021_Node000004" class="edge">
<title>Node21&#45;&gt;Node4</title>
<g id="a_edge37_Node000021_Node000004"><a xlink:title=" ">
<path fill="none" stroke="#63b8ff" d="M1180.55,-298.16C1179.55,-282.7 1176.91,-261.19 1170.12,-243.5 1154.01,-201.52 1119.82,-159.35 1104.21,-141.38"/>
<polygon fill="#63b8ff" stroke="#63b8ff" points="1177.05,-298.17 1181,-308 1184.04,-297.85 1177.05,-298.17"/>
</a>
</g>
</g>
<!-- Node21&#45;&gt;Node18 -->
<g id="edge36_Node000021_Node000018" class="edge">
<title>Node21&#45;&gt;Node18</title>
<g id="a_edge36_Node000021_Node000018"><a xlink:title=" ">
<path fill="none" stroke="#63b8ff" d="M1209.74,-304.47C1232.19,-293.36 1262.76,-278.24 1281.97,-268.73"/>
<polygon fill="#63b8ff" stroke="#63b8ff" points="1208.23,-301.31 1200.81,-308.88 1211.33,-307.59 1208.23,-301.31"/>
</a>
</g>
</g>
<!-- Node22&#45;&gt;Node4 -->
<g id="edge39_Node000022_Node000004" class="edge">
<title>Node22&#45;&gt;Node4</title>
<g id="a_edge39_Node000022_Node000004"><a xlink:title=" ">
<path fill="none" stroke="#63b8ff" d="M124.2,-180.24C131.88,-178.98 139.68,-177.85 147.12,-177 497.81,-136.9 925.35,-132.66 1056.19,-132.35"/>
<polygon fill="#63b8ff" stroke="#63b8ff" points="123.86,-176.75 114.6,-181.9 125.05,-183.65 123.86,-176.75"/>
</a>
</g>
</g>
<!-- Node23&#45;&gt;Node4 -->
<g id="edge41_Node000023_Node000004" class="edge">
<title>Node23&#45;&gt;Node4</title>
<g id="a_edge41_Node000023_Node000004"><a xlink:title=" ">
<path fill="none" stroke="#63b8ff" d="M278.92,-180.27C286.7,-179.02 294.59,-177.88 302.12,-177 590.11,-143.38 939.91,-134.89 1056.32,-132.92"/>
<polygon fill="#63b8ff" stroke="#63b8ff" points="278.45,-176.8 269.17,-181.91 279.61,-183.7 278.45,-176.8"/>
</a>
</g>
</g>
<!-- Node24&#45;&gt;Node4 -->
<g id="edge43_Node000024_Node000004" class="edge">
<title>Node24&#45;&gt;Node4</title>
<g id="a_edge43_Node000024_Node000004"><a xlink:title=" ">
<path fill="none" stroke="#63b8ff" d="M321.87,-298.96C332.35,-267.03 357.88,-204.7 404.12,-177 460.09,-143.48 917.36,-134.73 1056.26,-132.84"/>
<polygon fill="#63b8ff" stroke="#63b8ff" points="318.65,-297.54 319.02,-308.13 325.33,-299.62 318.65,-297.54"/>
</a>
</g>
</g>
<!-- Node25&#45;&gt;Node4 -->
<g id="edge47_Node000025_Node000004" class="edge">
<title>Node25&#45;&gt;Node4</title>
<g id="a_edge47_Node000025_Node000004"><a xlink:title=" ">
<path fill="none" stroke="#63b8ff" d="M410.92,-305.12C396.29,-298.24 381.54,-288.24 373.12,-274 366.23,-262.33 365.54,-254.73 373.12,-243.5 417.37,-177.97 461.17,-195.14 538.12,-177 636.86,-153.73 945.6,-138.74 1056.21,-134"/>
<polygon fill="#63b8ff" stroke="#63b8ff" points="409.5,-308.31 420.07,-308.99 412.23,-301.87 409.5,-308.31"/>
</a>
</g>
</g>
<!-- Node25&#45;&gt;Node26 -->
<g id="edge48_Node000025_Node000026" class="edge">
<title>Node25&#45;&gt;Node26</title>
<g id="a_edge48_Node000025_Node000026"><a xlink:title=" ">
<path fill="none" stroke="#63b8ff" d="M454.12,-298.42C454.12,-290.49 454.12,-281.56 454.12,-274.28"/>
<polygon fill="#63b8ff" stroke="#63b8ff" points="450.63,-298.17 454.13,-308.17 457.63,-298.17 450.63,-298.17"/>
</a>
</g>
</g>
<!-- Node26&#45;&gt;Node4 -->
<g id="edge49_Node000026_Node000004" class="edge">
<title>Node26&#45;&gt;Node4</title>
<g id="a_edge49_Node000026_Node000004"><a xlink:title=" ">
<path fill="none" stroke="#63b8ff" d="M486.01,-237.25C517.49,-218.13 567.65,-190.58 615.12,-177 697.77,-153.35 956.5,-138.96 1056.3,-134.17"/>
<polygon fill="#63b8ff" stroke="#63b8ff" points="484.44,-234.11 477.77,-242.34 488.12,-240.07 484.44,-234.11"/>
</a>
</g>
</g>
<!-- Node27&#45;&gt;Node4 -->
<g id="edge52_Node000027_Node000004" class="edge">
<title>Node27&#45;&gt;Node4</title>
<g id="a_edge52_Node000027_Node000004"><a xlink:title=" ">
<path fill="none" stroke="#63b8ff" d="M608.56,-237.37C612.9,-218.44 622.34,-191.11 642.12,-177 675.49,-153.2 951.73,-138.71 1056.26,-134.04"/>
<polygon fill="#63b8ff" stroke="#63b8ff" points="605.13,-236.65 606.63,-247.14 612,-238 605.13,-236.65"/>
</a>
</g>
</g>
<!-- Node28&#45;&gt;Node4 -->
<g id="edge54_Node000028_Node000004" class="edge">
<title>Node28&#45;&gt;Node4</title>
<g id="a_edge54_Node000028_Node000004"><a xlink:title=" ">
<path fill="none" stroke="#63b8ff" d="M794.12,-180.43C870.93,-168.21 993.39,-148.72 1056.16,-138.73"/>
<polygon fill="#63b8ff" stroke="#63b8ff" points="793.95,-176.91 784.62,-181.94 795.05,-183.83 793.95,-176.91"/>
</a>
</g>
</g>
<!-- Node29&#45;&gt;Node4 -->
<g id="edge56_Node000029_Node000004" class="edge">
<title>Node29&#45;&gt;Node4</title>
<g id="a_edge56_Node000029_Node000004"><a xlink:title=" ">
<path fill="none" stroke="#63b8ff" d="M791.37,-239.14C803.79,-220.31 825.58,-191.91 852.12,-177 917.08,-140.52 1005.67,-132.96 1056.29,-131.9"/>
<polygon fill="#63b8ff" stroke="#63b8ff" points="788.51,-237.11 786.13,-247.43 794.43,-240.85 788.51,-237.11"/>
</a>
</g>
</g>
<!-- Node30&#45;&gt;Node4 -->
<g id="edge58_Node000030_Node000004" class="edge">
<title>Node30&#45;&gt;Node4</title>
<g id="a_edge58_Node000030_Node000004"><a xlink:title=" ">
<path fill="none" stroke="#63b8ff" d="M963.1,-178.45C995.34,-167.28 1041.32,-151.36 1069.91,-141.46"/>
<polygon fill="#63b8ff" stroke="#63b8ff" points="962.05,-175.1 953.75,-181.68 964.34,-181.72 962.05,-175.1"/>
</a>
</g>
</g>
<!-- Node31&#45;&gt;Node4 -->
<g id="edge60_Node000031_Node000004" class="edge">
<title>Node31&#45;&gt;Node4</title>
<g id="a_edge60_Node000031_Node000004"><a xlink:title=" ">
<path fill="none" stroke="#63b8ff" d="M963.67,-241.63C996.07,-214.9 1059.87,-162.28 1085.29,-141.31"/>
<polygon fill="#63b8ff" stroke="#63b8ff" points="961.71,-238.71 956.22,-247.77 966.17,-244.11 961.71,-238.71"/>
</a>
</g>
</g>
<!-- Node32&#45;&gt;Node4 -->
<g id="edge62_Node000032_Node000004" class="edge">
<title>Node32&#45;&gt;Node4</title>
<g id="a_edge62_Node000032_Node000004"><a xlink:title=" ">
<path fill="none" stroke="#63b8ff" d="M1072.27,-237.26C1074.21,-220.84 1077.47,-197.27 1082.12,-177 1085,-164.5 1089.66,-150.43 1092.8,-141.49"/>
<polygon fill="#63b8ff" stroke="#63b8ff" points="1068.79,-236.87 1071.17,-247.2 1075.75,-237.64 1068.79,-236.87"/>
</a>
</g>
</g>
<!-- Node33&#45;&gt;Node4 -->
<g id="edge64_Node000033_Node000004" class="edge">
<title>Node33&#45;&gt;Node4</title>
<g id="a_edge64_Node000033_Node000004"><a xlink:title=" ">
<path fill="none" stroke="#63b8ff" d="M1569.96,-371.19C1662.72,-365.68 1854.33,-351.69 1874.12,-329.25 1879.78,-322.83 1877.46,-317.88 1874.12,-310 1841.07,-231.84 1814.61,-211.61 1737.12,-177 1682.38,-152.55 1267.47,-137.69 1135.97,-133.56"/>
<polygon fill="#63b8ff" stroke="#63b8ff" points="1569.91,-367.69 1560.13,-371.76 1570.32,-374.68 1569.91,-367.69"/>
</a>
</g>
</g>
</g>
</svg>
