<?xml version="1.0" encoding="UTF-8" standalone="no"?>
<!DOCTYPE svg PUBLIC "-//W3C//DTD SVG 1.1//EN"
 "http://www.w3.org/Graphics/SVG/1.1/DTD/svg11.dtd">
<!-- Generated by graphviz version 9.0.0 (20230911.1827)
 -->
<!-- Title: model/BloodVesselJunction.h Pages: 1 -->
<svg width="703pt" height="304pt"
 viewBox="0.00 0.00 703.00 303.50" xmlns="http://www.w3.org/2000/svg" xmlns:xlink="http://www.w3.org/1999/xlink">
<g id="graph0" class="graph" transform="scale(1 1) rotate(0) translate(4 299.5)">
<title>model/BloodVesselJunction.h</title>
<!-- Node1 -->
<g id="Node000001" class="node">
<title>Node1</title>
<g id="a_Node000001"><a xlink:title="model::BloodVesselJunction source file">
<polygon fill="#999999" stroke="#666666" points="453.5,-295.5 309.25,-295.5 309.25,-276.25 453.5,-276.25 453.5,-295.5"/>
<text text-anchor="middle" x="381.38" y="-282" font-family="Helvetica,sans-Serif" font-size="10.00">model/BloodVesselJunction.h</text>
</a>
</g>
</g>
<!-- Node2 -->
<g id="Node000002" class="node">
<title>Node2</title>
<g id="a_Node000002"><a xlink:href="_block_8h.html" target="_top" xlink:title="model::Block source file">
<polygon fill="white" stroke="#666666" points="309.5,-185 261.25,-185 261.25,-165.75 309.5,-165.75 309.5,-185"/>
<text text-anchor="middle" x="285.38" y="-171.5" font-family="Helvetica,sans-Serif" font-size="10.00">Block.h</text>
</a>
</g>
</g>
<!-- Node1&#45;&gt;Node2 -->
<g id="edge1_Node000001_Node000002" class="edge">
<title>Node1&#45;&gt;Node2</title>
<g id="a_edge1_Node000001_Node000002"><a xlink:title=" ">
<path fill="none" stroke="#63b8ff" d="M370.56,-275.8C360.48,-267.13 345.25,-253.44 333.38,-240.25 320.34,-225.77 307.16,-207.95 297.92,-194.82"/>
<polygon fill="#63b8ff" stroke="#63b8ff" points="300.86,-192.92 292.29,-186.69 295.1,-196.9 300.86,-192.92"/>
</a>
</g>
</g>
<!-- Node14 -->
<g id="Node000014" class="node">
<title>Node14</title>
<g id="a_Node000014"><a xlink:href="_sparse_system_8h.html" target="_top" xlink:title="SparseSystem source file.">
<polygon fill="white" stroke="#666666" points="535,-129.75 447.75,-129.75 447.75,-110.5 535,-110.5 535,-129.75"/>
<text text-anchor="middle" x="491.38" y="-116.25" font-family="Helvetica,sans-Serif" font-size="10.00">SparseSystem.h</text>
</a>
</g>
</g>
<!-- Node1&#45;&gt;Node14 -->
<g id="edge27_Node000001_Node000014" class="edge">
<title>Node1&#45;&gt;Node14</title>
<g id="a_edge27_Node000001_Node000014"><a xlink:title=" ">
<path fill="none" stroke="#63b8ff" d="M393.11,-275.91C403.54,-267.51 418.76,-254.19 429.38,-240.25 453.77,-208.21 473.47,-165.17 483.71,-140.57"/>
<polygon fill="#63b8ff" stroke="#63b8ff" points="486.87,-142.08 487.38,-131.5 480.38,-139.45 486.87,-142.08"/>
</a>
</g>
</g>
<!-- Node18 -->
<g id="Node000018" class="node">
<title>Node18</title>
<g id="a_Node000018"><a xlink:href="_blood_vessel_8h.html" target="_top" xlink:title="model::BloodVessel source file">
<polygon fill="white" stroke="#666666" points="420.5,-240.25 342.25,-240.25 342.25,-221 420.5,-221 420.5,-240.25"/>
<text text-anchor="middle" x="381.38" y="-226.75" font-family="Helvetica,sans-Serif" font-size="10.00">BloodVessel.h</text>
</a>
</g>
</g>
<!-- Node1&#45;&gt;Node18 -->
<g id="edge23_Node000001_Node000018" class="edge">
<title>Node1&#45;&gt;Node18</title>
<g id="a_edge23_Node000001_Node000018"><a xlink:title=" ">
<path fill="none" stroke="#63b8ff" d="M381.38,-276.08C381.38,-269.57 381.38,-260.42 381.38,-252.12"/>
<polygon fill="#63b8ff" stroke="#63b8ff" points="384.88,-252.12 381.38,-242.12 377.88,-252.12 384.88,-252.12"/>
</a>
</g>
</g>
<!-- Node3 -->
<g id="Node000003" class="node">
<title>Node3</title>
<g id="a_Node000003"><a xlink:title=" ">
<polygon fill="#e0e0e0" stroke="#999999" points="307,-129.75 243.75,-129.75 243.75,-110.5 307,-110.5 307,-129.75"/>
<text text-anchor="middle" x="275.38" y="-116.25" font-family="Helvetica,sans-Serif" font-size="10.00">Eigen/Core</text>
</a>
</g>
</g>
<!-- Node2&#45;&gt;Node3 -->
<g id="edge2_Node000002_Node000003" class="edge">
<title>Node2&#45;&gt;Node3</title>
<g id="a_edge2_Node000002_Node000003"><a xlink:title=" ">
<path fill="none" stroke="#63b8ff" d="M283.72,-165.58C282.49,-158.99 280.74,-149.71 279.17,-141.32"/>
<polygon fill="#63b8ff" stroke="#63b8ff" points="282.63,-140.78 277.34,-131.6 275.75,-142.07 282.63,-140.78"/>
</a>
</g>
</g>
<!-- Node4 -->
<g id="Node000004" class="node">
<title>Node4</title>
<g id="a_Node000004"><a xlink:title=" ">
<polygon fill="#e0e0e0" stroke="#999999" points="353.77,-129.75 324.98,-129.75 324.98,-110.5 353.77,-110.5 353.77,-129.75"/>
<text text-anchor="middle" x="339.38" y="-116.25" font-family="Helvetica,sans-Serif" font-size="10.00">list</text>
</a>
</g>
</g>
<!-- Node2&#45;&gt;Node4 -->
<g id="edge3_Node000002_Node000004" class="edge">
<title>Node2&#45;&gt;Node4</title>
<g id="a_edge3_Node000002_Node000004"><a xlink:title=" ">
<path fill="none" stroke="#63b8ff" d="M294.29,-165.58C301.83,-158.15 312.84,-147.29 322.1,-138.16"/>
<polygon fill="#63b8ff" stroke="#63b8ff" points="324.52,-140.69 329.19,-131.17 319.61,-135.7 324.52,-140.69"/>
</a>
</g>
</g>
<!-- Node5 -->
<g id="Node000005" class="node">
<title>Node5</title>
<g id="a_Node000005"><a xlink:title=" ">
<polygon fill="#e0e0e0" stroke="#999999" points="34.75,-19.25 0,-19.25 0,0 34.75,0 34.75,-19.25"/>
<text text-anchor="middle" x="17.38" y="-5.75" font-family="Helvetica,sans-Serif" font-size="10.00">map</text>
</a>
</g>
</g>
<!-- Node2&#45;&gt;Node5 -->
<g id="edge4_Node000002_Node000005" class="edge">
<title>Node2&#45;&gt;Node5</title>
<g id="a_edge4_Node000002_Node000005"><a xlink:title=" ">
<path fill="none" stroke="#63b8ff" d="M261.1,-173.99C202.07,-172.49 53.61,-165.19 22.38,-129.75 -1.62,-102.52 4.91,-56.72 11.4,-30.55"/>
<polygon fill="#63b8ff" stroke="#63b8ff" points="14.78,-31.48 14.05,-20.91 8.03,-29.63 14.78,-31.48"/>
</a>
</g>
</g>
<!-- Node6 -->
<g id="Node000006" class="node">
<title>Node6</title>
<g id="a_Node000006"><a xlink:title=" ">
<polygon fill="#e0e0e0" stroke="#999999" points="199.88,-19.25 156.88,-19.25 156.88,0 199.88,0 199.88,-19.25"/>
<text text-anchor="middle" x="178.38" y="-5.75" font-family="Helvetica,sans-Serif" font-size="10.00">vector</text>
</a>
</g>
</g>
<!-- Node2&#45;&gt;Node6 -->
<g id="edge5_Node000002_Node000006" class="edge">
<title>Node2&#45;&gt;Node6</title>
<g id="a_edge5_Node000002_Node000006"><a xlink:title=" ">
<path fill="none" stroke="#63b8ff" d="M306.6,-165.29C348.81,-145.99 436.26,-99.06 400.38,-55.25 376.88,-26.56 267.45,-15.92 211.5,-12.31"/>
<polygon fill="#63b8ff" stroke="#63b8ff" points="211.81,-8.82 201.62,-11.71 211.39,-15.81 211.81,-8.82"/>
</a>
</g>
</g>
<!-- Node7 -->
<g id="Node000007" class="node">
<title>Node7</title>
<g id="a_Node000007"><a xlink:href="_block_type_8h.html" target="_top" xlink:title="Specifies the types of blocks and their parameters.">
<polygon fill="white" stroke="#666666" points="101,-129.75 31.75,-129.75 31.75,-110.5 101,-110.5 101,-129.75"/>
<text text-anchor="middle" x="66.38" y="-116.25" font-family="Helvetica,sans-Serif" font-size="10.00">BlockType.h</text>
</a>
</g>
</g>
<!-- Node2&#45;&gt;Node7 -->
<g id="edge6_Node000002_Node000007" class="edge">
<title>Node2&#45;&gt;Node7</title>
<g id="a_edge6_Node000002_Node000007"><a xlink:title=" ">
<path fill="none" stroke="#63b8ff" d="M261.1,-168.47C225.27,-159.76 157.58,-143.3 112.22,-132.27"/>
<polygon fill="#63b8ff" stroke="#63b8ff" points="113.21,-128.91 102.67,-129.95 111.56,-135.71 113.21,-128.91"/>
</a>
</g>
</g>
<!-- Node9 -->
<g id="Node000009" class="node">
<title>Node9</title>
<g id="a_Node000009"><a xlink:href="_d_o_f_handler_8h.html" target="_top" xlink:title="model::DOFHandler source file">
<polygon fill="white" stroke="#666666" points="150.12,-74.5 72.62,-74.5 72.62,-55.25 150.12,-55.25 150.12,-74.5"/>
<text text-anchor="middle" x="111.38" y="-61" font-family="Helvetica,sans-Serif" font-size="10.00">DOFHandler.h</text>
</a>
</g>
</g>
<!-- Node2&#45;&gt;Node9 -->
<g id="edge8_Node000002_Node000009" class="edge">
<title>Node2&#45;&gt;Node9</title>
<g id="a_edge8_Node000002_Node000009"><a xlink:title=" ">
<path fill="none" stroke="#63b8ff" d="M260.83,-171.74C231.29,-167.47 181.53,-156.58 148.38,-129.75 134.05,-118.16 124.15,-99.45 118.22,-85.26"/>
<polygon fill="#63b8ff" stroke="#63b8ff" points="121.55,-84.17 114.7,-76.08 115.01,-86.67 121.55,-84.17"/>
</a>
</g>
</g>
<!-- Node10 -->
<g id="Node000010" class="node">
<title>Node10</title>
<g id="a_Node000010"><a xlink:href="_parameter_8h.html" target="_top" xlink:title="model::Parameter source file">
<polygon fill="white" stroke="#666666" points="225.62,-129.75 157.12,-129.75 157.12,-110.5 225.62,-110.5 225.62,-129.75"/>
<text text-anchor="middle" x="191.38" y="-116.25" font-family="Helvetica,sans-Serif" font-size="10.00">Parameter.h</text>
</a>
</g>
</g>
<!-- Node2&#45;&gt;Node10 -->
<g id="edge12_Node000002_Node000010" class="edge">
<title>Node2&#45;&gt;Node10</title>
<g id="a_edge12_Node000002_Node000010"><a xlink:title=" ">
<path fill="none" stroke="#63b8ff" d="M269.43,-165.34C255.11,-157.23 233.84,-145.18 217.12,-135.71"/>
<polygon fill="#63b8ff" stroke="#63b8ff" points="219.14,-132.83 208.72,-130.95 215.69,-138.92 219.14,-132.83"/>
</a>
</g>
</g>
<!-- Node2&#45;&gt;Node14 -->
<g id="edge18_Node000002_Node000014" class="edge">
<title>Node2&#45;&gt;Node14</title>
<g id="a_edge18_Node000002_Node000014"><a xlink:title=" ">
<path fill="none" stroke="#63b8ff" d="M309.81,-168.06C343.11,-159.45 403.35,-143.88 445.27,-133.04"/>
<polygon fill="#63b8ff" stroke="#63b8ff" points="446.04,-136.46 454.84,-130.57 444.28,-129.68 446.04,-136.46"/>
</a>
</g>
</g>
<!-- Node8 -->
<g id="Node000008" class="node">
<title>Node8</title>
<g id="a_Node000008"><a xlink:title=" ">
<polygon fill="#e0e0e0" stroke="#999999" points="105.38,-19.25 65.38,-19.25 65.38,0 105.38,0 105.38,-19.25"/>
<text text-anchor="middle" x="85.38" y="-5.75" font-family="Helvetica,sans-Serif" font-size="10.00">string</text>
</a>
</g>
</g>
<!-- Node7&#45;&gt;Node8 -->
<g id="edge7_Node000007_Node000008" class="edge">
<title>Node7&#45;&gt;Node8</title>
<g id="a_edge7_Node000007_Node000008"><a xlink:title=" ">
<path fill="none" stroke="#63b8ff" d="M64.46,-110.31C62.09,-97.86 58.89,-74.49 63.38,-55.25 65.45,-46.33 69.59,-37.14 73.71,-29.44"/>
<polygon fill="#63b8ff" stroke="#63b8ff" points="76.6,-31.45 78.57,-21.04 70.54,-27.94 76.6,-31.45"/>
</a>
</g>
</g>
<!-- Node9&#45;&gt;Node5 -->
<g id="edge9_Node000009_Node000005" class="edge">
<title>Node9&#45;&gt;Node5</title>
<g id="a_edge9_Node000009_Node000005"><a xlink:title=" ">
<path fill="none" stroke="#63b8ff" d="M95.43,-54.84C81.11,-46.73 59.84,-34.68 43.12,-25.21"/>
<polygon fill="#63b8ff" stroke="#63b8ff" points="45.14,-22.33 34.72,-20.45 41.69,-28.42 45.14,-22.33"/>
</a>
</g>
</g>
<!-- Node9&#45;&gt;Node6 -->
<g id="edge11_Node000009_Node000006" class="edge">
<title>Node9&#45;&gt;Node6</title>
<g id="a_edge11_Node000009_Node000006"><a xlink:title=" ">
<path fill="none" stroke="#63b8ff" d="M122.74,-54.84C132.42,-47.15 146.57,-35.9 158.18,-26.68"/>
<polygon fill="#63b8ff" stroke="#63b8ff" points="160.34,-29.43 165.99,-20.47 155.99,-23.95 160.34,-29.43"/>
</a>
</g>
</g>
<!-- Node9&#45;&gt;Node8 -->
<g id="edge10_Node000009_Node000008" class="edge">
<title>Node9&#45;&gt;Node8</title>
<g id="a_edge10_Node000009_Node000008"><a xlink:title=" ">
<path fill="none" stroke="#63b8ff" d="M107.08,-55.08C103.75,-48.26 99.01,-38.56 94.81,-29.95"/>
<polygon fill="#63b8ff" stroke="#63b8ff" points="97.96,-28.42 90.43,-20.97 91.67,-31.49 97.96,-28.42"/>
</a>
</g>
</g>
<!-- Node10&#45;&gt;Node6 -->
<g id="edge16_Node000010_Node000006" class="edge">
<title>Node10&#45;&gt;Node6</title>
<g id="a_edge16_Node000010_Node000006"><a xlink:title=" ">
<path fill="none" stroke="#63b8ff" d="M190.31,-110.25C188.24,-93 183.64,-54.58 180.79,-30.81"/>
<polygon fill="#63b8ff" stroke="#63b8ff" points="184.3,-30.64 179.63,-21.13 177.35,-31.47 184.3,-30.64"/>
</a>
</g>
</g>
<!-- Node10&#45;&gt;Node9 -->
<g id="edge17_Node000010_Node000009" class="edge">
<title>Node10&#45;&gt;Node9</title>
<g id="a_edge17_Node000010_Node000009"><a xlink:title=" ">
<path fill="none" stroke="#63b8ff" d="M177.8,-110.09C165.97,-102.21 148.54,-90.61 134.5,-81.27"/>
<polygon fill="#63b8ff" stroke="#63b8ff" points="136.54,-78.42 126.27,-75.79 132.66,-84.25 136.54,-78.42"/>
</a>
</g>
</g>
<!-- Node11 -->
<g id="Node000011" class="node">
<title>Node11</title>
<g id="a_Node000011"><a xlink:title=" ">
<polygon fill="#e0e0e0" stroke="#999999" points="320,-74.5 274.75,-74.5 274.75,-55.25 320,-55.25 320,-74.5"/>
<text text-anchor="middle" x="297.38" y="-61" font-family="Helvetica,sans-Serif" font-size="10.00">math.h</text>
</a>
</g>
</g>
<!-- Node10&#45;&gt;Node11 -->
<g id="edge13_Node000010_Node000011" class="edge">
<title>Node10&#45;&gt;Node11</title>
<g id="a_edge13_Node000010_Node000011"><a xlink:title=" ">
<path fill="none" stroke="#63b8ff" d="M209.36,-110.09C225.73,-101.87 250.16,-89.59 269.14,-80.06"/>
<polygon fill="#63b8ff" stroke="#63b8ff" points="270.59,-83.25 277.95,-75.63 267.45,-76.99 270.59,-83.25"/>
</a>
</g>
</g>
<!-- Node12 -->
<g id="Node000012" class="node">
<title>Node12</title>
<g id="a_Node000012"><a xlink:title=" ">
<polygon fill="#e0e0e0" stroke="#999999" points="391.12,-74.5 337.62,-74.5 337.62,-55.25 391.12,-55.25 391.12,-74.5"/>
<text text-anchor="middle" x="364.38" y="-61" font-family="Helvetica,sans-Serif" font-size="10.00">iostream</text>
</a>
</g>
</g>
<!-- Node10&#45;&gt;Node12 -->
<g id="edge14_Node000010_Node000012" class="edge">
<title>Node10&#45;&gt;Node12</title>
<g id="a_edge14_Node000010_Node000012"><a xlink:title=" ">
<path fill="none" stroke="#63b8ff" d="M220.72,-110.09C249.87,-101.12 294.69,-87.33 326.5,-77.53"/>
<polygon fill="#63b8ff" stroke="#63b8ff" points="327.19,-80.98 335.72,-74.69 325.13,-74.29 327.19,-80.98"/>
</a>
</g>
</g>
<!-- Node13 -->
<g id="Node000013" class="node">
<title>Node13</title>
<g id="a_Node000013"><a xlink:title=" ">
<polygon fill="#e0e0e0" stroke="#999999" points="256.62,-74.5 206.12,-74.5 206.12,-55.25 256.62,-55.25 256.62,-74.5"/>
<text text-anchor="middle" x="231.38" y="-61" font-family="Helvetica,sans-Serif" font-size="10.00">numeric</text>
</a>
</g>
</g>
<!-- Node10&#45;&gt;Node13 -->
<g id="edge15_Node000010_Node000013" class="edge">
<title>Node10&#45;&gt;Node13</title>
<g id="a_edge15_Node000010_Node000013"><a xlink:title=" ">
<path fill="none" stroke="#63b8ff" d="M197.98,-110.33C203.33,-103.21 211.05,-92.93 217.72,-84.05"/>
<polygon fill="#63b8ff" stroke="#63b8ff" points="220.51,-86.17 223.72,-76.07 214.91,-81.96 220.51,-86.17"/>
</a>
</g>
</g>
<!-- Node14&#45;&gt;Node12 -->
<g id="edge21_Node000014_Node000012" class="edge">
<title>Node14&#45;&gt;Node12</title>
<g id="a_edge21_Node000014_Node000012"><a xlink:title=" ">
<path fill="none" stroke="#63b8ff" d="M469.83,-110.09C449.76,-101.68 419.57,-89.02 396.63,-79.4"/>
<polygon fill="#63b8ff" stroke="#63b8ff" points="398,-76.18 387.42,-75.54 395.29,-82.63 398,-76.18"/>
</a>
</g>
</g>
<!-- Node15 -->
<g id="Node000015" class="node">
<title>Node15</title>
<g id="a_Node000015"><a xlink:title=" ">
<polygon fill="#e0e0e0" stroke="#999999" points="589.25,-74.5 515.5,-74.5 515.5,-55.25 589.25,-55.25 589.25,-74.5"/>
<text text-anchor="middle" x="552.38" y="-61" font-family="Helvetica,sans-Serif" font-size="10.00">Eigen/Sparse</text>
</a>
</g>
</g>
<!-- Node14&#45;&gt;Node15 -->
<g id="edge19_Node000014_Node000015" class="edge">
<title>Node14&#45;&gt;Node15</title>
<g id="a_edge19_Node000014_Node000015"><a xlink:title=" ">
<path fill="none" stroke="#63b8ff" d="M501.72,-110.09C510.45,-102.47 523.16,-91.37 533.67,-82.2"/>
<polygon fill="#63b8ff" stroke="#63b8ff" points="535.81,-84.98 541.04,-75.77 531.2,-79.71 535.81,-84.98"/>
</a>
</g>
</g>
<!-- Node16 -->
<g id="Node000016" class="node">
<title>Node16</title>
<g id="a_Node000016"><a xlink:title=" ">
<polygon fill="#e0e0e0" stroke="#999999" points="695,-74.5 607.75,-74.5 607.75,-55.25 695,-55.25 695,-74.5"/>
<text text-anchor="middle" x="651.38" y="-61" font-family="Helvetica,sans-Serif" font-size="10.00">Eigen/SparseLU</text>
</a>
</g>
</g>
<!-- Node14&#45;&gt;Node16 -->
<g id="edge20_Node000014_Node000016" class="edge">
<title>Node14&#45;&gt;Node16</title>
<g id="a_edge20_Node000014_Node000016"><a xlink:title=" ">
<path fill="none" stroke="#63b8ff" d="M518.52,-110.09C544.61,-101.41 584.27,-88.21 613.47,-78.49"/>
<polygon fill="#63b8ff" stroke="#63b8ff" points="614.28,-81.91 622.66,-75.43 612.07,-75.27 614.28,-81.91"/>
</a>
</g>
</g>
<!-- Node17 -->
<g id="Node000017" class="node">
<title>Node17</title>
<g id="a_Node000017"><a xlink:title=" ">
<polygon fill="#e0e0e0" stroke="#999999" points="497.62,-74.5 447.12,-74.5 447.12,-55.25 497.62,-55.25 497.62,-74.5"/>
<text text-anchor="middle" x="472.38" y="-61" font-family="Helvetica,sans-Serif" font-size="10.00">memory</text>
</a>
</g>
</g>
<!-- Node14&#45;&gt;Node17 -->
<g id="edge22_Node000014_Node000017" class="edge">
<title>Node14&#45;&gt;Node17</title>
<g id="a_edge22_Node000014_Node000017"><a xlink:title=" ">
<path fill="none" stroke="#63b8ff" d="M488.24,-110.33C485.83,-103.59 482.42,-94.02 479.37,-85.49"/>
<polygon fill="#63b8ff" stroke="#63b8ff" points="482.75,-84.53 476.09,-76.28 476.15,-86.88 482.75,-84.53"/>
</a>
</g>
</g>
<!-- Node18&#45;&gt;Node2 -->
<g id="edge25_Node000018_Node000002" class="edge">
<title>Node18&#45;&gt;Node2</title>
<g id="a_edge25_Node000018_Node000002"><a xlink:title=" ">
<path fill="none" stroke="#63b8ff" d="M365.09,-220.59C350.47,-212.48 328.75,-200.43 311.67,-190.96"/>
<polygon fill="#63b8ff" stroke="#63b8ff" points="313.51,-187.98 303.06,-186.19 310.11,-194.1 313.51,-187.98"/>
</a>
</g>
</g>
<!-- Node18&#45;&gt;Node11 -->
<g id="edge24_Node000018_Node000011" class="edge">
<title>Node18&#45;&gt;Node11</title>
<g id="a_edge24_Node000018_Node000011"><a xlink:title=" ">
<path fill="none" stroke="#63b8ff" d="M382.21,-220.73C383.74,-199.76 384.98,-146.26 362.38,-110.5 354.32,-97.75 341.16,-87.71 328.78,-80.41"/>
<polygon fill="#63b8ff" stroke="#63b8ff" points="330.48,-77.35 320.03,-75.65 327.14,-83.5 330.48,-77.35"/>
</a>
</g>
</g>
<!-- Node18&#45;&gt;Node14 -->
<g id="edge26_Node000018_Node000014" class="edge">
<title>Node18&#45;&gt;Node14</title>
<g id="a_edge26_Node000018_Node000014"><a xlink:title=" ">
<path fill="none" stroke="#63b8ff" d="M390.38,-220.75C408.67,-202.71 450.44,-161.5 474.14,-138.13"/>
<polygon fill="#63b8ff" stroke="#63b8ff" points="476.51,-140.7 481.17,-131.19 471.59,-135.72 476.51,-140.7"/>
</a>
</g>
</g>
</g>
</svg>
