<?xml version="1.0" encoding="UTF-8" standalone="no"?>
<!DOCTYPE svg PUBLIC "-//W3C//DTD SVG 1.1//EN"
 "http://www.w3.org/Graphics/SVG/1.1/DTD/svg11.dtd">
<!-- Generated by graphviz version 12.2.1 (20241206.2353)
 -->
<!-- Title: model/BlockFactory.h Pages: 1 -->
<svg width="871pt" height="248pt"
 viewBox="0.00 0.00 871.11 248.25" xmlns="http://www.w3.org/2000/svg" xmlns:xlink="http://www.w3.org/1999/xlink">
<g id="graph0" class="graph" transform="scale(1 1) rotate(0) translate(4 244.25)">
<title>model/BlockFactory.h</title>
<!-- Node1 -->
<g id="Node000001" class="node">
<title>Node1</title>
<g id="a_Node000001"><a xlink:title="Define the block factory functional.">
<polygon fill="#999999" stroke="#666666" points="321.25,-240.25 211.5,-240.25 211.5,-221 321.25,-221 321.25,-240.25"/>
<text text-anchor="middle" x="266.38" y="-226.75" font-family="Helvetica,sans-Serif" font-size="10.00">model/BlockFactory.h</text>
</a>
</g>
</g>
<!-- Node2 -->
<g id="Node000002" class="node">
<title>Node2</title>
<g id="a_Node000002"><a xlink:title=" ">
<polygon fill="#e0e0e0" stroke="#999999" points="224.38,-185 166.38,-185 166.38,-165.75 224.38,-165.75 224.38,-185"/>
<text text-anchor="middle" x="195.38" y="-171.5" font-family="Helvetica,sans-Serif" font-size="10.00">functional</text>
</a>
</g>
</g>
<!-- Node1&#45;&gt;Node2 -->
<g id="edge1_Node000001_Node000002" class="edge">
<title>Node1&#45;&gt;Node2</title>
<g id="a_edge1_Node000001_Node000002"><a xlink:title=" ">
<path fill="none" stroke="#63b8ff" d="M254.33,-220.59C243.97,-212.82 228.77,-201.42 216.41,-192.15"/>
<polygon fill="#63b8ff" stroke="#63b8ff" points="218.55,-189.38 208.45,-186.18 214.35,-194.98 218.55,-189.38"/>
</a>
</g>
</g>
<!-- Node3 -->
<g id="Node000003" class="node">
<title>Node3</title>
<g id="a_Node000003"><a xlink:title=" ">
<polygon fill="#e0e0e0" stroke="#999999" points="629.88,-19.25 586.88,-19.25 586.88,0 629.88,0 629.88,-19.25"/>
<text text-anchor="middle" x="608.38" y="-5.75" font-family="Helvetica,sans-Serif" font-size="10.00">vector</text>
</a>
</g>
</g>
<!-- Node1&#45;&gt;Node3 -->
<g id="edge2_Node000001_Node000003" class="edge">
<title>Node1&#45;&gt;Node3</title>
<g id="a_edge2_Node000001_Node000003"><a xlink:title=" ">
<path fill="none" stroke="#63b8ff" d="M321.6,-225.13C459.03,-212.52 808.98,-171.24 859.38,-74.5 863.33,-66.91 864.87,-61.81 859.38,-55.25 831.93,-22.49 703.05,-13.76 641.39,-11.45"/>
<polygon fill="#63b8ff" stroke="#63b8ff" points="641.63,-7.96 631.52,-11.12 641.4,-14.95 641.63,-7.96"/>
</a>
</g>
</g>
<!-- Node4 -->
<g id="Node000004" class="node">
<title>Node4</title>
<g id="a_Node000004"><a xlink:href="_block_8h.html" target="_top" xlink:title="model::Block source file">
<polygon fill="white" stroke="#666666" points="290.5,-185 242.25,-185 242.25,-165.75 290.5,-165.75 290.5,-185"/>
<text text-anchor="middle" x="266.38" y="-171.5" font-family="Helvetica,sans-Serif" font-size="10.00">Block.h</text>
</a>
</g>
</g>
<!-- Node1&#45;&gt;Node4 -->
<g id="edge3_Node000001_Node000004" class="edge">
<title>Node1&#45;&gt;Node4</title>
<g id="a_edge3_Node000001_Node000004"><a xlink:title=" ">
<path fill="none" stroke="#63b8ff" d="M266.38,-220.83C266.38,-214.32 266.38,-205.17 266.38,-196.87"/>
<polygon fill="#63b8ff" stroke="#63b8ff" points="269.88,-196.87 266.38,-186.87 262.88,-196.87 269.88,-196.87"/>
</a>
</g>
</g>
<!-- Node4&#45;&gt;Node3 -->
<g id="edge7_Node000004_Node000003" class="edge">
<title>Node4&#45;&gt;Node3</title>
<g id="a_edge7_Node000004_Node000003"><a xlink:title=" ">
<path fill="none" stroke="#63b8ff" d="M290.71,-174.4C391.91,-173.9 777.29,-165.97 843.38,-74.5 848.39,-67.56 848.83,-61.84 843.38,-55.25 818.1,-24.73 699.9,-14.91 641.38,-11.89"/>
<polygon fill="#63b8ff" stroke="#63b8ff" points="641.85,-8.41 631.69,-11.43 641.51,-15.4 641.85,-8.41"/>
</a>
</g>
</g>
<!-- Node5 -->
<g id="Node000005" class="node">
<title>Node5</title>
<g id="a_Node000005"><a xlink:title=" ">
<polygon fill="#e0e0e0" stroke="#999999" points="106,-74.5 42.75,-74.5 42.75,-55.25 106,-55.25 106,-74.5"/>
<text text-anchor="middle" x="74.38" y="-61" font-family="Helvetica,sans-Serif" font-size="10.00">Eigen/Core</text>
</a>
</g>
</g>
<!-- Node4&#45;&gt;Node5 -->
<g id="edge4_Node000004_Node000005" class="edge">
<title>Node4&#45;&gt;Node5</title>
<g id="a_edge4_Node000004_Node000005"><a xlink:title=" ">
<path fill="none" stroke="#63b8ff" d="M241.97,-167.09C210.48,-157.47 157.69,-140.48 140.38,-129.75 120.14,-117.21 101.06,-97.57 88.67,-83.38"/>
<polygon fill="#63b8ff" stroke="#63b8ff" points="91.66,-81.5 82.53,-76.12 86.32,-86.02 91.66,-81.5"/>
</a>
</g>
</g>
<!-- Node6 -->
<g id="Node000006" class="node">
<title>Node6</title>
<g id="a_Node000006"><a xlink:title=" ">
<polygon fill="#e0e0e0" stroke="#999999" points="93.78,-129.75 64.97,-129.75 64.97,-110.5 93.78,-110.5 93.78,-129.75"/>
<text text-anchor="middle" x="79.38" y="-116.25" font-family="Helvetica,sans-Serif" font-size="10.00">list</text>
</a>
</g>
</g>
<!-- Node4&#45;&gt;Node6 -->
<g id="edge5_Node000004_Node000006" class="edge">
<title>Node4&#45;&gt;Node6</title>
<g id="a_edge5_Node000004_Node000006"><a xlink:title=" ">
<path fill="none" stroke="#63b8ff" d="M241.81,-167.69C210.52,-159.12 154.82,-143.71 107.38,-129.75 106.57,-129.51 105.75,-129.27 104.93,-129.02"/>
<polygon fill="#63b8ff" stroke="#63b8ff" points="106.21,-125.76 95.62,-126.2 104.18,-132.45 106.21,-125.76"/>
</a>
</g>
</g>
<!-- Node7 -->
<g id="Node000007" class="node">
<title>Node7</title>
<g id="a_Node000007"><a xlink:title=" ">
<polygon fill="#e0e0e0" stroke="#999999" points="279.75,-19.25 245,-19.25 245,0 279.75,0 279.75,-19.25"/>
<text text-anchor="middle" x="262.38" y="-5.75" font-family="Helvetica,sans-Serif" font-size="10.00">map</text>
</a>
</g>
</g>
<!-- Node4&#45;&gt;Node7 -->
<g id="edge6_Node000004_Node000007" class="edge">
<title>Node4&#45;&gt;Node7</title>
<g id="a_edge6_Node000004_Node000007"><a xlink:title=" ">
<path fill="none" stroke="#63b8ff" d="M261.48,-165.39C251.26,-145.5 229.43,-96.26 239.38,-55.25 241.55,-46.27 245.87,-37.07 250.19,-29.38"/>
<polygon fill="#63b8ff" stroke="#63b8ff" points="253.09,-31.35 255.27,-20.98 247.1,-27.72 253.09,-31.35"/>
</a>
</g>
</g>
<!-- Node8 -->
<g id="Node000008" class="node">
<title>Node8</title>
<g id="a_Node000008"><a xlink:href="_block_type_8h.html" target="_top" xlink:title="Specifies the types of blocks and their parameters.">
<polygon fill="white" stroke="#666666" points="219,-129.75 149.75,-129.75 149.75,-110.5 219,-110.5 219,-129.75"/>
<text text-anchor="middle" x="184.38" y="-116.25" font-family="Helvetica,sans-Serif" font-size="10.00">BlockType.h</text>
</a>
</g>
</g>
<!-- Node4&#45;&gt;Node8 -->
<g id="edge8_Node000004_Node000008" class="edge">
<title>Node4&#45;&gt;Node8</title>
<g id="a_edge8_Node000004_Node000008"><a xlink:title=" ">
<path fill="none" stroke="#63b8ff" d="M252.46,-165.34C240.21,-157.39 222.12,-145.64 207.66,-136.25"/>
<polygon fill="#63b8ff" stroke="#63b8ff" points="209.92,-133.54 199.62,-131.03 206.1,-139.41 209.92,-133.54"/>
</a>
</g>
</g>
<!-- Node10 -->
<g id="Node000010" class="node">
<title>Node10</title>
<g id="a_Node000010"><a xlink:href="_d_o_f_handler_8h.html" target="_top" xlink:title="model::DOFHandler source file">
<polygon fill="white" stroke="#666666" points="326.12,-74.5 248.62,-74.5 248.62,-55.25 326.12,-55.25 326.12,-74.5"/>
<text text-anchor="middle" x="287.38" y="-61" font-family="Helvetica,sans-Serif" font-size="10.00">DOFHandler.h</text>
</a>
</g>
</g>
<!-- Node4&#45;&gt;Node10 -->
<g id="edge10_Node000004_Node000010" class="edge">
<title>Node4&#45;&gt;Node10</title>
<g id="a_edge10_Node000004_Node000010"><a xlink:title=" ">
<path fill="none" stroke="#63b8ff" d="M268.09,-165.5C271.43,-148.25 278.87,-109.83 283.47,-86.06"/>
<polygon fill="#63b8ff" stroke="#63b8ff" points="286.88,-86.85 285.35,-76.36 280.01,-85.52 286.88,-86.85"/>
</a>
</g>
</g>
<!-- Node11 -->
<g id="Node000011" class="node">
<title>Node11</title>
<g id="a_Node000011"><a xlink:href="_parameter_8h.html" target="_top" xlink:title="model::Parameter source file">
<polygon fill="white" stroke="#666666" points="414.62,-129.75 346.12,-129.75 346.12,-110.5 414.62,-110.5 414.62,-129.75"/>
<text text-anchor="middle" x="380.38" y="-116.25" font-family="Helvetica,sans-Serif" font-size="10.00">Parameter.h</text>
</a>
</g>
</g>
<!-- Node4&#45;&gt;Node11 -->
<g id="edge14_Node000004_Node000011" class="edge">
<title>Node4&#45;&gt;Node11</title>
<g id="a_edge14_Node000004_Node000011"><a xlink:title=" ">
<path fill="none" stroke="#63b8ff" d="M285.71,-165.34C303.48,-157.04 330.09,-144.61 350.58,-135.04"/>
<polygon fill="#63b8ff" stroke="#63b8ff" points="351.99,-138.25 359.57,-130.84 349.03,-131.9 351.99,-138.25"/>
</a>
</g>
</g>
<!-- Node15 -->
<g id="Node000015" class="node">
<title>Node15</title>
<g id="a_Node000015"><a xlink:href="_sparse_system_8h.html" target="_top" xlink:title="SparseSystem source file.">
<polygon fill="white" stroke="#666666" points="667,-129.75 579.75,-129.75 579.75,-110.5 667,-110.5 667,-129.75"/>
<text text-anchor="middle" x="623.38" y="-116.25" font-family="Helvetica,sans-Serif" font-size="10.00">SparseSystem.h</text>
</a>
</g>
</g>
<!-- Node4&#45;&gt;Node15 -->
<g id="edge20_Node000004_Node000015" class="edge">
<title>Node4&#45;&gt;Node15</title>
<g id="a_edge20_Node000004_Node000015"><a xlink:title=" ">
<path fill="none" stroke="#63b8ff" d="M290.91,-170.71C347.74,-162.24 489.55,-141.09 568.36,-129.33"/>
<polygon fill="#63b8ff" stroke="#63b8ff" points="568.64,-132.83 578.02,-127.89 567.61,-125.9 568.64,-132.83"/>
</a>
</g>
</g>
<!-- Node19 -->
<g id="Node000019" class="node">
<title>Node19</title>
<g id="a_Node000019"><a xlink:href="_state_8h.html" target="_top" xlink:title="State source file.">
<polygon fill="white" stroke="#666666" points="46.75,-129.75 0,-129.75 0,-110.5 46.75,-110.5 46.75,-129.75"/>
<text text-anchor="middle" x="23.38" y="-116.25" font-family="Helvetica,sans-Serif" font-size="10.00">State.h</text>
</a>
</g>
</g>
<!-- Node4&#45;&gt;Node19 -->
<g id="edge25_Node000004_Node000019" class="edge">
<title>Node4&#45;&gt;Node19</title>
<g id="a_edge25_Node000004_Node000019"><a xlink:title=" ">
<path fill="none" stroke="#63b8ff" d="M241.9,-167.82C239.03,-167.1 236.14,-166.39 233.38,-165.75 158.54,-148.37 136.45,-147.91 58.04,-130.02"/>
<polygon fill="#63b8ff" stroke="#63b8ff" points="59.14,-126.68 48.6,-127.84 57.56,-133.5 59.14,-126.68"/>
</a>
</g>
</g>
<!-- Node9 -->
<g id="Node000009" class="node">
<title>Node9</title>
<g id="a_Node000009"><a xlink:title=" ">
<polygon fill="#e0e0e0" stroke="#999999" points="215.38,-19.25 175.38,-19.25 175.38,0 215.38,0 215.38,-19.25"/>
<text text-anchor="middle" x="195.38" y="-5.75" font-family="Helvetica,sans-Serif" font-size="10.00">string</text>
</a>
</g>
</g>
<!-- Node8&#45;&gt;Node9 -->
<g id="edge9_Node000008_Node000009" class="edge">
<title>Node8&#45;&gt;Node9</title>
<g id="a_edge9_Node000008_Node000009"><a xlink:title=" ">
<path fill="none" stroke="#63b8ff" d="M185.28,-110.25C187.02,-93 190.92,-54.58 193.33,-30.81"/>
<polygon fill="#63b8ff" stroke="#63b8ff" points="196.78,-31.43 194.31,-21.13 189.82,-30.73 196.78,-31.43"/>
</a>
</g>
</g>
<!-- Node10&#45;&gt;Node3 -->
<g id="edge13_Node000010_Node000003" class="edge">
<title>Node10&#45;&gt;Node3</title>
<g id="a_edge13_Node000010_Node000003"><a xlink:title=" ">
<path fill="none" stroke="#63b8ff" d="M326.41,-57.4C390.32,-46.8 516.11,-25.93 575.65,-16.05"/>
<polygon fill="#63b8ff" stroke="#63b8ff" points="575.85,-19.57 585.15,-14.48 574.71,-12.66 575.85,-19.57"/>
</a>
</g>
</g>
<!-- Node10&#45;&gt;Node7 -->
<g id="edge11_Node000010_Node000007" class="edge">
<title>Node10&#45;&gt;Node7</title>
<g id="a_edge11_Node000010_Node000007"><a xlink:title=" ">
<path fill="none" stroke="#63b8ff" d="M283.25,-55.08C280.05,-48.26 275.49,-38.56 271.45,-29.95"/>
<polygon fill="#63b8ff" stroke="#63b8ff" points="274.65,-28.54 267.24,-20.98 268.32,-31.52 274.65,-28.54"/>
</a>
</g>
</g>
<!-- Node10&#45;&gt;Node9 -->
<g id="edge12_Node000010_Node000009" class="edge">
<title>Node10&#45;&gt;Node9</title>
<g id="a_edge12_Node000010_Node000009"><a xlink:title=" ">
<path fill="none" stroke="#63b8ff" d="M271.77,-54.84C257.76,-46.73 236.94,-34.68 220.57,-25.21"/>
<polygon fill="#63b8ff" stroke="#63b8ff" points="222.78,-22.44 212.37,-20.46 219.27,-28.5 222.78,-22.44"/>
</a>
</g>
</g>
<!-- Node11&#45;&gt;Node3 -->
<g id="edge18_Node000011_Node000003" class="edge">
<title>Node11&#45;&gt;Node3</title>
<g id="a_edge18_Node000011_Node000003"><a xlink:title=" ">
<path fill="none" stroke="#63b8ff" d="M375.71,-110.12C369.43,-96.58 360.43,-70.89 373.38,-55.25 398.65,-24.73 516.85,-14.91 575.37,-11.89"/>
<polygon fill="#63b8ff" stroke="#63b8ff" points="575.24,-15.4 585.06,-11.43 574.9,-8.41 575.24,-15.4"/>
</a>
</g>
</g>
<!-- Node11&#45;&gt;Node10 -->
<g id="edge19_Node000011_Node000010" class="edge">
<title>Node11&#45;&gt;Node10</title>
<g id="a_edge19_Node000011_Node000010"><a xlink:title=" ">
<path fill="none" stroke="#63b8ff" d="M364.6,-110.09C350.44,-101.98 329.39,-89.93 312.85,-80.46"/>
<polygon fill="#63b8ff" stroke="#63b8ff" points="314.96,-77.64 304.54,-75.7 311.48,-83.71 314.96,-77.64"/>
</a>
</g>
</g>
<!-- Node12 -->
<g id="Node000012" class="node">
<title>Node12</title>
<g id="a_Node000012"><a xlink:title=" ">
<polygon fill="#e0e0e0" stroke="#999999" points="428,-74.5 382.75,-74.5 382.75,-55.25 428,-55.25 428,-74.5"/>
<text text-anchor="middle" x="405.38" y="-61" font-family="Helvetica,sans-Serif" font-size="10.00">math.h</text>
</a>
</g>
</g>
<!-- Node11&#45;&gt;Node12 -->
<g id="edge15_Node000011_Node000012" class="edge">
<title>Node11&#45;&gt;Node12</title>
<g id="a_edge15_Node000011_Node000012"><a xlink:title=" ">
<path fill="none" stroke="#63b8ff" d="M384.5,-110.33C387.7,-103.51 392.26,-93.81 396.3,-85.2"/>
<polygon fill="#63b8ff" stroke="#63b8ff" points="399.43,-86.77 400.51,-76.23 393.1,-83.79 399.43,-86.77"/>
</a>
</g>
</g>
<!-- Node13 -->
<g id="Node000013" class="node">
<title>Node13</title>
<g id="a_Node000013"><a xlink:title=" ">
<polygon fill="#e0e0e0" stroke="#999999" points="568.12,-74.5 514.62,-74.5 514.62,-55.25 568.12,-55.25 568.12,-74.5"/>
<text text-anchor="middle" x="541.38" y="-61" font-family="Helvetica,sans-Serif" font-size="10.00">iostream</text>
</a>
</g>
</g>
<!-- Node11&#45;&gt;Node13 -->
<g id="edge16_Node000011_Node000013" class="edge">
<title>Node11&#45;&gt;Node13</title>
<g id="a_edge16_Node000011_Node000013"><a xlink:title=" ">
<path fill="none" stroke="#63b8ff" d="M407.69,-110.09C434.02,-101.38 474.09,-88.13 503.5,-78.4"/>
<polygon fill="#63b8ff" stroke="#63b8ff" points="504.37,-81.8 512.76,-75.34 502.17,-75.16 504.37,-81.8"/>
</a>
</g>
</g>
<!-- Node14 -->
<g id="Node000014" class="node">
<title>Node14</title>
<g id="a_Node000014"><a xlink:title=" ">
<polygon fill="#e0e0e0" stroke="#999999" points="496.62,-74.5 446.12,-74.5 446.12,-55.25 496.62,-55.25 496.62,-74.5"/>
<text text-anchor="middle" x="471.38" y="-61" font-family="Helvetica,sans-Serif" font-size="10.00">numeric</text>
</a>
</g>
</g>
<!-- Node11&#45;&gt;Node14 -->
<g id="edge17_Node000011_Node000014" class="edge">
<title>Node11&#45;&gt;Node14</title>
<g id="a_edge17_Node000011_Node000014"><a xlink:title=" ">
<path fill="none" stroke="#63b8ff" d="M395.81,-110.09C409.54,-102.06 429.87,-90.16 445.99,-80.73"/>
<polygon fill="#63b8ff" stroke="#63b8ff" points="447.69,-83.79 454.56,-75.72 444.16,-77.75 447.69,-83.79"/>
</a>
</g>
</g>
<!-- Node15&#45;&gt;Node13 -->
<g id="edge23_Node000015_Node000013" class="edge">
<title>Node15&#45;&gt;Node13</title>
<g id="a_edge23_Node000015_Node000013"><a xlink:title=" ">
<path fill="none" stroke="#63b8ff" d="M609.46,-110.09C597.21,-102.14 579.12,-90.39 564.66,-81"/>
<polygon fill="#63b8ff" stroke="#63b8ff" points="566.92,-78.29 556.62,-75.78 563.1,-84.16 566.92,-78.29"/>
</a>
</g>
</g>
<!-- Node16 -->
<g id="Node000016" class="node">
<title>Node16</title>
<g id="a_Node000016"><a xlink:title=" ">
<polygon fill="#e0e0e0" stroke="#999999" points="660.25,-74.5 586.5,-74.5 586.5,-55.25 660.25,-55.25 660.25,-74.5"/>
<text text-anchor="middle" x="623.38" y="-61" font-family="Helvetica,sans-Serif" font-size="10.00">Eigen/Sparse</text>
</a>
</g>
</g>
<!-- Node15&#45;&gt;Node16 -->
<g id="edge21_Node000015_Node000016" class="edge">
<title>Node15&#45;&gt;Node16</title>
<g id="a_edge21_Node000015_Node000016"><a xlink:title=" ">
<path fill="none" stroke="#63b8ff" d="M623.38,-110.33C623.38,-103.82 623.38,-94.67 623.38,-86.37"/>
<polygon fill="#63b8ff" stroke="#63b8ff" points="626.88,-86.37 623.38,-76.37 619.88,-86.37 626.88,-86.37"/>
</a>
</g>
</g>
<!-- Node17 -->
<g id="Node000017" class="node">
<title>Node17</title>
<g id="a_Node000017"><a xlink:title=" ">
<polygon fill="#e0e0e0" stroke="#999999" points="766,-74.5 678.75,-74.5 678.75,-55.25 766,-55.25 766,-74.5"/>
<text text-anchor="middle" x="722.38" y="-61" font-family="Helvetica,sans-Serif" font-size="10.00">Eigen/SparseLU</text>
</a>
</g>
</g>
<!-- Node15&#45;&gt;Node17 -->
<g id="edge22_Node000015_Node000017" class="edge">
<title>Node15&#45;&gt;Node17</title>
<g id="a_edge22_Node000015_Node000017"><a xlink:title=" ">
<path fill="none" stroke="#63b8ff" d="M640.17,-110.09C655.39,-101.91 678.07,-89.71 695.76,-80.19"/>
<polygon fill="#63b8ff" stroke="#63b8ff" points="697.02,-83.49 704.17,-75.67 693.7,-77.32 697.02,-83.49"/>
</a>
</g>
</g>
<!-- Node18 -->
<g id="Node000018" class="node">
<title>Node18</title>
<g id="a_Node000018"><a xlink:title=" ">
<polygon fill="#e0e0e0" stroke="#999999" points="834.62,-74.5 784.12,-74.5 784.12,-55.25 834.62,-55.25 834.62,-74.5"/>
<text text-anchor="middle" x="809.38" y="-61" font-family="Helvetica,sans-Serif" font-size="10.00">memory</text>
</a>
</g>
</g>
<!-- Node15&#45;&gt;Node18 -->
<g id="edge24_Node000015_Node000018" class="edge">
<title>Node15&#45;&gt;Node18</title>
<g id="a_edge24_Node000015_Node000018"><a xlink:title=" ">
<path fill="none" stroke="#63b8ff" d="M654.93,-110.09C687.52,-100.76 738.34,-86.21 772.7,-76.38"/>
<polygon fill="#63b8ff" stroke="#63b8ff" points="773.56,-79.77 782.21,-73.65 771.64,-73.04 773.56,-79.77"/>
</a>
</g>
</g>
<!-- Node19&#45;&gt;Node5 -->
<g id="edge26_Node000019_Node000005" class="edge">
<title>Node19&#45;&gt;Node5</title>
<g id="a_edge26_Node000019_Node000005"><a xlink:title=" ">
<path fill="none" stroke="#63b8ff" d="M31.8,-110.33C38.91,-102.9 49.32,-92.04 58.06,-82.91"/>
<polygon fill="#63b8ff" stroke="#63b8ff" points="60.33,-85.6 64.72,-75.95 55.28,-80.75 60.33,-85.6"/>
</a>
</g>
</g>
</g>
</svg>
