<?xml version="1.0" encoding="UTF-8" standalone="no"?>
<!DOCTYPE svg PUBLIC "-//W3C//DTD SVG 1.1//EN"
 "http://www.w3.org/Graphics/SVG/1.1/DTD/svg11.dtd">
<!-- Generated by graphviz version 9.0.0 (20230911.1827)
 -->
<!-- Title: model/BlockType.h Pages: 1 -->
<svg width="1335pt" height="437pt"
 viewBox="0.00 0.00 1335.29 436.50" xmlns="http://www.w3.org/2000/svg" xmlns:xlink="http://www.w3.org/1999/xlink">
<g id="graph0" class="graph" transform="scale(1 1) rotate(0) translate(4 432.5)">
<title>model/BlockType.h</title>
<!-- Node1 -->
<g id="Node000001" class="node">
<title>Node1</title>
<g id="a_Node000001"><a xlink:title="Specifies the types of blocks and their parameters.">
<polygon fill="#999999" stroke="#666666" points="833.97,-428.5 735.47,-428.5 735.47,-409.25 833.97,-409.25 833.97,-428.5"/>
<text text-anchor="middle" x="784.72" y="-415" font-family="Helvetica,sans-Serif" font-size="10.00">model/BlockType.h</text>
</a>
</g>
</g>
<!-- Node2 -->
<g id="Node000002" class="node">
<title>Node2</title>
<g id="a_Node000002"><a xlink:href="_block_8h.html" target="_top" xlink:title="model::Block source file">
<polygon fill="white" stroke="#666666" points="776.47,-373.25 698.97,-373.25 698.97,-354 776.47,-354 776.47,-373.25"/>
<text text-anchor="middle" x="737.72" y="-359.75" font-family="Helvetica,sans-Serif" font-size="10.00">model/Block.h</text>
</a>
</g>
</g>
<!-- Node1&#45;&gt;Node2 -->
<g id="edge1_Node000001_Node000002" class="edge">
<title>Node1&#45;&gt;Node2</title>
<g id="a_edge1_Node000001_Node000002"><a xlink:title=" ">
<path fill="none" stroke="#63b8ff" d="M769.39,-400.51C761.47,-391.53 752.12,-380.95 745.65,-373.61"/>
<polygon fill="#63b8ff" stroke="#63b8ff" points="766.72,-402.77 775.96,-407.95 771.96,-398.13 766.72,-402.77"/>
</a>
</g>
</g>
<!-- Node27 -->
<g id="Node000027" class="node">
<title>Node27</title>
<g id="a_Node000027"><a xlink:href="_node_8h.html" target="_top" xlink:title="model::Node source file">
<polygon fill="white" stroke="#666666" points="1118.72,-373.25 1042.72,-373.25 1042.72,-354 1118.72,-354 1118.72,-373.25"/>
<text text-anchor="middle" x="1080.72" y="-359.75" font-family="Helvetica,sans-Serif" font-size="10.00">model/Node.h</text>
</a>
</g>
</g>
<!-- Node1&#45;&gt;Node27 -->
<g id="edge47_Node000001_Node000027" class="edge">
<title>Node1&#45;&gt;Node27</title>
<g id="a_edge47_Node000001_Node000027"><a xlink:title=" ">
<path fill="none" stroke="#63b8ff" d="M845.3,-406.98C904.35,-396.35 992.34,-380.52 1042.34,-371.53"/>
<polygon fill="#63b8ff" stroke="#63b8ff" points="844.98,-403.48 835.75,-408.69 846.22,-410.37 844.98,-403.48"/>
</a>
</g>
</g>
<!-- Node3 -->
<g id="Node000003" class="node">
<title>Node3</title>
<g id="a_Node000003"><a xlink:href="_block_factory_8h.html" target="_top" xlink:title="Define the block factory functional.">
<polygon fill="white" stroke="#666666" points="1301.6,-201.88 1191.85,-201.88 1191.85,-182.62 1301.6,-182.62 1301.6,-201.88"/>
<text text-anchor="middle" x="1246.72" y="-188.38" font-family="Helvetica,sans-Serif" font-size="10.00">model/BlockFactory.h</text>
</a>
</g>
</g>
<!-- Node2&#45;&gt;Node3 -->
<g id="edge2_Node000002_Node000003" class="edge">
<title>Node2&#45;&gt;Node3</title>
<g id="a_edge2_Node000002_Node000003"><a xlink:title=" ">
<path fill="none" stroke="#63b8ff" d="M788.08,-360.35C885.9,-355.44 1098.04,-342.3 1166.72,-318 1209.2,-302.97 1230.23,-302.35 1251.72,-262.75 1262.34,-243.19 1255.11,-215.84 1250.2,-202.01"/>
<polygon fill="#63b8ff" stroke="#63b8ff" points="788.06,-356.84 778.24,-360.83 788.4,-363.84 788.06,-356.84"/>
</a>
</g>
</g>
<!-- Node4 -->
<g id="Node000004" class="node">
<title>Node4</title>
<g id="a_Node000004"><a xlink:href="_model_8h.html" target="_top" xlink:title="model::Model source file">
<polygon fill="white" stroke="#666666" points="727.22,-141 648.22,-141 648.22,-121.75 727.22,-121.75 727.22,-141"/>
<text text-anchor="middle" x="687.72" y="-127.5" font-family="Helvetica,sans-Serif" font-size="10.00">model/Model.h</text>
</a>
</g>
</g>
<!-- Node2&#45;&gt;Node4 -->
<g id="edge34_Node000002_Node000004" class="edge">
<title>Node2&#45;&gt;Node4</title>
<g id="a_edge34_Node000002_Node000004"><a xlink:title=" ">
<path fill="none" stroke="#63b8ff" d="M687.74,-363.17C538.28,-364.29 102.4,-363.58 59.72,-318 26.44,-282.46 -73.33,-313.5 95.72,-177 138.52,-142.44 521.69,-134.49 647.73,-132.8"/>
<polygon fill="#63b8ff" stroke="#63b8ff" points="687.35,-366.68 697.32,-363.09 687.29,-359.68 687.35,-366.68"/>
</a>
</g>
</g>
<!-- Node12 -->
<g id="Node000012" class="node">
<title>Node12</title>
<g id="a_Node000012"><a xlink:href="_blood_vessel_8h.html" target="_top" xlink:title="model::BloodVessel source file">
<polygon fill="white" stroke="#666666" points="176.47,-318 68.97,-318 68.97,-298.75 176.47,-298.75 176.47,-318"/>
<text text-anchor="middle" x="122.72" y="-304.5" font-family="Helvetica,sans-Serif" font-size="10.00">model/BloodVessel.h</text>
</a>
</g>
</g>
<!-- Node2&#45;&gt;Node12 -->
<g id="edge15_Node000002_Node000012" class="edge">
<title>Node2&#45;&gt;Node12</title>
<g id="a_edge15_Node000002_Node000012"><a xlink:title=" ">
<path fill="none" stroke="#63b8ff" d="M687.08,-359.25C590.45,-352.65 373.12,-337 190.72,-318 186.22,-317.53 181.56,-317.01 176.89,-316.47"/>
<polygon fill="#63b8ff" stroke="#63b8ff" points="686.81,-362.74 697.02,-359.93 687.28,-355.76 686.81,-362.74"/>
</a>
</g>
</g>
<!-- Node13 -->
<g id="Node000013" class="node">
<title>Node13</title>
<g id="a_Node000013"><a xlink:href="_blood_vessel_junction_8h.html" target="_top" xlink:title="model::BloodVesselJunction source file">
<polygon fill="white" stroke="#666666" points="250.85,-262.75 106.6,-262.75 106.6,-243.5 250.85,-243.5 250.85,-262.75"/>
<text text-anchor="middle" x="178.72" y="-249.25" font-family="Helvetica,sans-Serif" font-size="10.00">model/BloodVesselJunction.h</text>
</a>
</g>
</g>
<!-- Node2&#45;&gt;Node13 -->
<g id="edge19_Node000002_Node000013" class="edge">
<title>Node2&#45;&gt;Node13</title>
<g id="a_edge19_Node000002_Node000013"><a xlink:title=" ">
<path fill="none" stroke="#63b8ff" d="M687.42,-361.86C579.66,-359.6 330.06,-350.87 252.72,-318 223.67,-305.65 197.77,-277.53 185.78,-263.07"/>
<polygon fill="#63b8ff" stroke="#63b8ff" points="687.04,-365.35 697.1,-362.05 687.17,-358.35 687.04,-365.35"/>
</a>
</g>
</g>
<!-- Node14 -->
<g id="Node000014" class="node">
<title>Node14</title>
<g id="a_Node000014"><a xlink:href="_closed_loop_coronary_b_c_8h.html" target="_top" xlink:title="model::ClosedLoopCoronaryBC source file">
<polygon fill="white" stroke="#666666" points="429.85,-262.75 273.6,-262.75 273.6,-243.5 429.85,-243.5 429.85,-262.75"/>
<text text-anchor="middle" x="351.72" y="-249.25" font-family="Helvetica,sans-Serif" font-size="10.00">model/ClosedLoopCoronaryBC.h</text>
</a>
</g>
</g>
<!-- Node2&#45;&gt;Node14 -->
<g id="edge20_Node000002_Node000014" class="edge">
<title>Node2&#45;&gt;Node14</title>
<g id="a_edge20_Node000002_Node000014"><a xlink:title=" ">
<path fill="none" stroke="#63b8ff" d="M687.41,-361.66C570.83,-358.89 289.98,-349.04 261.72,-318 240.11,-294.27 285.31,-274.25 319.14,-263.24"/>
<polygon fill="#63b8ff" stroke="#63b8ff" points="687.23,-365.15 697.31,-361.88 687.39,-358.15 687.23,-365.15"/>
</a>
</g>
</g>
<!-- Node17 -->
<g id="Node000017" class="node">
<title>Node17</title>
<g id="a_Node000017"><a xlink:href="_closed_loop_heart_pulmonary_8h.html" target="_top" xlink:title="model::ClosedLoopHeartPulmonary source file">
<polygon fill="white" stroke="#666666" points="444.85,-318 270.6,-318 270.6,-298.75 444.85,-298.75 444.85,-318"/>
<text text-anchor="middle" x="357.72" y="-304.5" font-family="Helvetica,sans-Serif" font-size="10.00">model/ClosedLoopHeartPulmonary.h</text>
</a>
</g>
</g>
<!-- Node2&#45;&gt;Node17 -->
<g id="edge25_Node000002_Node000017" class="edge">
<title>Node2&#45;&gt;Node17</title>
<g id="a_edge25_Node000002_Node000017"><a xlink:title=" ">
<path fill="none" stroke="#63b8ff" d="M687.21,-355.55C619.04,-345.99 497.52,-328.97 422.64,-318.47"/>
<polygon fill="#63b8ff" stroke="#63b8ff" points="686.6,-359 696.99,-356.92 687.57,-352.06 686.6,-359"/>
</a>
</g>
</g>
<!-- Node18 -->
<g id="Node000018" class="node">
<title>Node18</title>
<g id="a_Node000018"><a xlink:href="_closed_loop_r_c_r_b_c_8h.html" target="_top" xlink:title="model::ClosedLoopRCRBC source file">
<polygon fill="white" stroke="#666666" points="600.85,-318 462.6,-318 462.6,-298.75 600.85,-298.75 600.85,-318"/>
<text text-anchor="middle" x="531.72" y="-304.5" font-family="Helvetica,sans-Serif" font-size="10.00">model/ClosedLoopRCRBC.h</text>
</a>
</g>
</g>
<!-- Node2&#45;&gt;Node18 -->
<g id="edge28_Node000002_Node000018" class="edge">
<title>Node2&#45;&gt;Node18</title>
<g id="a_edge28_Node000002_Node000018"><a xlink:title=" ">
<path fill="none" stroke="#63b8ff" d="M692.06,-350.82C654.27,-341.05 601.37,-327.38 566.84,-318.45"/>
<polygon fill="#63b8ff" stroke="#63b8ff" points="690.75,-354.1 701.31,-353.21 692.5,-347.32 690.75,-354.1"/>
</a>
</g>
</g>
<!-- Node19 -->
<g id="Node000019" class="node">
<title>Node19</title>
<g id="a_Node000019"><a xlink:href="_flow_reference_b_c_8h.html" target="_top" xlink:title="model::FlowReferenceBC source file">
<polygon fill="white" stroke="#666666" points="659.47,-201.88 527.97,-201.88 527.97,-182.62 659.47,-182.62 659.47,-201.88"/>
<text text-anchor="middle" x="593.72" y="-188.38" font-family="Helvetica,sans-Serif" font-size="10.00">model/FlowReferenceBC.h</text>
</a>
</g>
</g>
<!-- Node2&#45;&gt;Node19 -->
<g id="edge30_Node000002_Node000019" class="edge">
<title>Node2&#45;&gt;Node19</title>
<g id="a_edge30_Node000002_Node000019"><a xlink:title=" ">
<path fill="none" stroke="#63b8ff" d="M696,-349.72C658.16,-335.4 605.27,-308.11 584.72,-262.75 575.58,-242.58 583.99,-215.96 589.61,-202.26"/>
<polygon fill="#63b8ff" stroke="#63b8ff" points="694.7,-352.97 705.29,-353.07 697.07,-346.39 694.7,-352.97"/>
</a>
</g>
</g>
<!-- Node20 -->
<g id="Node000020" class="node">
<title>Node20</title>
<g id="a_Node000020"><a xlink:href="_junction_8h.html" target="_top" xlink:title="model::Junction source file">
<polygon fill="white" stroke="#666666" points="746.47,-318 656.97,-318 656.97,-298.75 746.47,-298.75 746.47,-318"/>
<text text-anchor="middle" x="701.72" y="-304.5" font-family="Helvetica,sans-Serif" font-size="10.00">model/Junction.h</text>
</a>
</g>
</g>
<!-- Node2&#45;&gt;Node20 -->
<g id="edge32_Node000002_Node000020" class="edge">
<title>Node2&#45;&gt;Node20</title>
<g id="a_edge32_Node000002_Node000020"><a xlink:title=" ">
<path fill="none" stroke="#63b8ff" d="M725.4,-344.4C719.46,-335.61 712.6,-325.46 707.79,-318.36"/>
<polygon fill="#63b8ff" stroke="#63b8ff" points="722.43,-346.25 730.93,-352.58 728.23,-342.33 722.43,-346.25"/>
</a>
</g>
</g>
<!-- Node21 -->
<g id="Node000021" class="node">
<title>Node21</title>
<g id="a_Node000021"><a xlink:href="_open_loop_coronary_b_c_8h.html" target="_top" xlink:title="model::OpenLoopCoronaryBC source file">
<polygon fill="white" stroke="#666666" points="753.47,-262.75 603.97,-262.75 603.97,-243.5 753.47,-243.5 753.47,-262.75"/>
<text text-anchor="middle" x="678.72" y="-249.25" font-family="Helvetica,sans-Serif" font-size="10.00">model/OpenLoopCoronaryBC.h</text>
</a>
</g>
</g>
<!-- Node2&#45;&gt;Node21 -->
<g id="edge35_Node000002_Node000021" class="edge">
<title>Node2&#45;&gt;Node21</title>
<g id="a_edge35_Node000002_Node000021"><a xlink:title=" ">
<path fill="none" stroke="#63b8ff" d="M750.1,-344.35C757.45,-331.04 763.89,-312.93 755.72,-298.75 745.61,-281.21 725.69,-269.94 708.64,-263.11"/>
<polygon fill="#63b8ff" stroke="#63b8ff" points="747.32,-342.19 745.07,-352.54 753.29,-345.85 747.32,-342.19"/>
</a>
</g>
</g>
<!-- Node22 -->
<g id="Node000022" class="node">
<title>Node22</title>
<g id="a_Node000022"><a xlink:href="_pressure_reference_b_c_8h.html" target="_top" xlink:title="model::PressureReferenceBC source file">
<polygon fill="white" stroke="#666666" points="921.47,-262.75 771.97,-262.75 771.97,-243.5 921.47,-243.5 921.47,-262.75"/>
<text text-anchor="middle" x="846.72" y="-249.25" font-family="Helvetica,sans-Serif" font-size="10.00">model/PressureReferenceBC.h</text>
</a>
</g>
</g>
<!-- Node2&#45;&gt;Node22 -->
<g id="edge37_Node000002_Node000022" class="edge">
<title>Node2&#45;&gt;Node22</title>
<g id="a_edge37_Node000002_Node000022"><a xlink:title=" ">
<path fill="none" stroke="#63b8ff" d="M754.64,-345.78C778.04,-322.49 819.45,-281.27 837.68,-263.13"/>
<polygon fill="#63b8ff" stroke="#63b8ff" points="752.33,-343.14 747.71,-352.68 757.27,-348.1 752.33,-343.14"/>
</a>
</g>
</g>
<!-- Node23 -->
<g id="Node000023" class="node">
<title>Node23</title>
<g id="a_Node000023"><a xlink:href="_resistance_b_c_8h.html" target="_top" xlink:title="model::ResistanceBC source file">
<polygon fill="white" stroke="#666666" points="990.22,-318 875.22,-318 875.22,-298.75 990.22,-298.75 990.22,-318"/>
<text text-anchor="middle" x="932.72" y="-304.5" font-family="Helvetica,sans-Serif" font-size="10.00">model/ResistanceBC.h</text>
</a>
</g>
</g>
<!-- Node2&#45;&gt;Node23 -->
<g id="edge39_Node000002_Node000023" class="edge">
<title>Node2&#45;&gt;Node23</title>
<g id="a_edge39_Node000002_Node000023"><a xlink:title=" ">
<path fill="none" stroke="#63b8ff" d="M781.87,-350.57C817.57,-340.82 867.07,-327.3 899.48,-318.45"/>
<polygon fill="#63b8ff" stroke="#63b8ff" points="780.98,-347.18 772.26,-353.19 782.83,-353.94 780.98,-347.18"/>
</a>
</g>
</g>
<!-- Node24 -->
<g id="Node000024" class="node">
<title>Node24</title>
<g id="a_Node000024"><a xlink:href="_resistive_junction_8h.html" target="_top" xlink:title="model::ResistiveJunction source file">
<polygon fill="white" stroke="#666666" points="1107.72,-262.75 977.72,-262.75 977.72,-243.5 1107.72,-243.5 1107.72,-262.75"/>
<text text-anchor="middle" x="1042.72" y="-249.25" font-family="Helvetica,sans-Serif" font-size="10.00">model/ResistiveJunction.h</text>
</a>
</g>
</g>
<!-- Node2&#45;&gt;Node24 -->
<g id="edge41_Node000002_Node000024" class="edge">
<title>Node2&#45;&gt;Node24</title>
<g id="a_edge41_Node000002_Node000024"><a xlink:title=" ">
<path fill="none" stroke="#63b8ff" d="M788.07,-358.67C853.83,-352.73 964.6,-339.8 998.72,-318 1019.83,-304.52 1033.49,-276.91 1039.38,-262.82"/>
<polygon fill="#63b8ff" stroke="#63b8ff" points="787.91,-355.17 778.25,-359.54 788.52,-362.15 787.91,-355.17"/>
</a>
</g>
</g>
<!-- Node25 -->
<g id="Node000025" class="node">
<title>Node25</title>
<g id="a_Node000025"><a xlink:href="_valve_tanh_8h.html" target="_top" xlink:title="model::ValveTanh source file">
<polygon fill="white" stroke="#666666" points="1225.35,-262.75 1126.1,-262.75 1126.1,-243.5 1225.35,-243.5 1225.35,-262.75"/>
<text text-anchor="middle" x="1175.72" y="-249.25" font-family="Helvetica,sans-Serif" font-size="10.00">model/ValveTanh.h</text>
</a>
</g>
</g>
<!-- Node2&#45;&gt;Node25 -->
<g id="edge43_Node000002_Node000025" class="edge">
<title>Node2&#45;&gt;Node25</title>
<g id="a_edge43_Node000002_Node000025"><a xlink:title=" ">
<path fill="none" stroke="#63b8ff" d="M787.93,-358.44C845.48,-352.8 942.24,-340.74 1022.72,-318 1073.69,-303.6 1130.43,-276.9 1158.31,-263.02"/>
<polygon fill="#63b8ff" stroke="#63b8ff" points="787.74,-354.94 778.12,-359.37 788.4,-361.91 787.74,-354.94"/>
</a>
</g>
</g>
<!-- Node26 -->
<g id="Node000026" class="node">
<title>Node26</title>
<g id="a_Node000026"><a xlink:href="_windkessel_b_c_8h.html" target="_top" xlink:title="model::WindkesselBC source file">
<polygon fill="white" stroke="#666666" points="1173.97,-201.88 1057.47,-201.88 1057.47,-182.62 1173.97,-182.62 1173.97,-201.88"/>
<text text-anchor="middle" x="1115.72" y="-188.38" font-family="Helvetica,sans-Serif" font-size="10.00">model/WindkesselBC.h</text>
</a>
</g>
</g>
<!-- Node2&#45;&gt;Node26 -->
<g id="edge45_Node000002_Node000026" class="edge">
<title>Node2&#45;&gt;Node26</title>
<g id="a_edge45_Node000002_Node000026"><a xlink:title=" ">
<path fill="none" stroke="#63b8ff" d="M788.05,-360.74C903.69,-355.2 1182.4,-334.51 1234.72,-262.75 1257.2,-231.92 1205.47,-212.52 1163.28,-202.29"/>
<polygon fill="#63b8ff" stroke="#63b8ff" points="788.07,-357.24 778.24,-361.19 788.39,-364.23 788.07,-357.24"/>
</a>
</g>
</g>
<!-- Node3&#45;&gt;Node4 -->
<g id="edge3_Node000003_Node000004" class="edge">
<title>Node3&#45;&gt;Node4</title>
<g id="a_edge3_Node000003_Node000004"><a xlink:title=" ">
<path fill="none" stroke="#63b8ff" d="M1198.73,-179.86C1193.35,-178.8 1187.93,-177.81 1182.72,-177 1014.76,-150.84 812.17,-138.52 727.71,-134.23"/>
<polygon fill="#63b8ff" stroke="#63b8ff" points="1197.66,-183.22 1208.17,-181.83 1199.09,-176.36 1197.66,-183.22"/>
</a>
</g>
</g>
<!-- Node5 -->
<g id="Node000005" class="node">
<title>Node5</title>
<g id="a_Node000005"><a xlink:href="_integrator_8h.html" target="_top" xlink:title="Integrator source file.">
<polygon fill="white" stroke="#666666" points="597.35,-80.12 498.1,-80.12 498.1,-60.88 597.35,-60.88 597.35,-80.12"/>
<text text-anchor="middle" x="547.72" y="-66.62" font-family="Helvetica,sans-Serif" font-size="10.00">algebra/Integrator.h</text>
</a>
</g>
</g>
<!-- Node4&#45;&gt;Node5 -->
<g id="edge4_Node000004_Node000005" class="edge">
<title>Node4&#45;&gt;Node5</title>
<g id="a_edge4_Node000004_Node000005"><a xlink:title=" ">
<path fill="none" stroke="#63b8ff" d="M655.84,-116.97C629.28,-105.8 592.19,-90.2 569.08,-80.48"/>
<polygon fill="#63b8ff" stroke="#63b8ff" points="654.18,-120.07 664.76,-120.72 656.9,-113.62 654.18,-120.07"/>
</a>
</g>
</g>
<!-- Node6 -->
<g id="Node000006" class="node">
<title>Node6</title>
<g id="a_Node000006"><a xlink:href="interface_8h.html" target="_top" xlink:title="svZeroDSolver callable interface.">
<polygon fill="white" stroke="#666666" points="520.47,-19.25 418.97,-19.25 418.97,0 520.47,0 520.47,-19.25"/>
<text text-anchor="middle" x="469.72" y="-5.75" font-family="Helvetica,sans-Serif" font-size="10.00">interface/interface.h</text>
</a>
</g>
</g>
<!-- Node4&#45;&gt;Node6 -->
<g id="edge7_Node000004_Node000006" class="edge">
<title>Node4&#45;&gt;Node6</title>
<g id="a_edge7_Node000004_Node000006"><a xlink:title=" ">
<path fill="none" stroke="#63b8ff" d="M636.8,-125.03C585,-118.56 509.48,-105.95 488.72,-85.75 470.5,-68.02 468.83,-35.52 469.2,-19.72"/>
<polygon fill="#63b8ff" stroke="#63b8ff" points="636.26,-128.49 646.6,-126.21 637.09,-121.54 636.26,-128.49"/>
</a>
</g>
</g>
<!-- Node7 -->
<g id="Node000007" class="node">
<title>Node7</title>
<g id="a_Node000007"><a xlink:href="_solver_8h.html" target="_top" xlink:title="Solver source file.">
<polygon fill="white" stroke="#666666" points="1007.47,-19.25 929.97,-19.25 929.97,0 1007.47,0 1007.47,-19.25"/>
<text text-anchor="middle" x="968.72" y="-5.75" font-family="Helvetica,sans-Serif" font-size="10.00">solve/Solver.h</text>
</a>
</g>
</g>
<!-- Node4&#45;&gt;Node7 -->
<g id="edge12_Node000004_Node000007" class="edge">
<title>Node4&#45;&gt;Node7</title>
<g id="a_edge12_Node000004_Node000007"><a xlink:title=" ">
<path fill="none" stroke="#63b8ff" d="M738.88,-127.78C834.02,-122.44 1030.4,-108.72 1050.72,-85.75 1059.7,-75.6 1057.65,-66.9 1050.72,-55.25 1040.2,-37.56 1019.94,-26.43 1002.19,-19.72"/>
<polygon fill="#63b8ff" stroke="#63b8ff" points="738.83,-124.28 729.04,-128.32 739.21,-131.27 738.83,-124.28"/>
</a>
</g>
</g>
<!-- Node8 -->
<g id="Node000008" class="node">
<title>Node8</title>
<g id="a_Node000008"><a xlink:href="_levenberg_marquardt_optimizer_8h.html" target="_top" xlink:title="opt::LevenbergMarquardtOptimizer source file">
<polygon fill="white" stroke="#666666" points="759.85,-85.75 615.6,-85.75 615.6,-55.25 759.85,-55.25 759.85,-85.75"/>
<text text-anchor="start" x="623.6" y="-72.25" font-family="Helvetica,sans-Serif" font-size="10.00">optimize/LevenbergMarquardt</text>
<text text-anchor="middle" x="687.72" y="-61" font-family="Helvetica,sans-Serif" font-size="10.00">Optimizer.h</text>
</a>
</g>
</g>
<!-- Node4&#45;&gt;Node8 -->
<g id="edge8_Node000004_Node000008" class="edge">
<title>Node4&#45;&gt;Node8</title>
<g id="a_edge8_Node000004_Node000008"><a xlink:title=" ">
<path fill="none" stroke="#63b8ff" d="M687.72,-110.17C687.72,-102.24 687.72,-93.31 687.72,-86.03"/>
<polygon fill="#63b8ff" stroke="#63b8ff" points="684.22,-109.92 687.72,-119.92 691.22,-109.92 684.22,-109.92"/>
</a>
</g>
</g>
<!-- Node9 -->
<g id="Node000009" class="node">
<title>Node9</title>
<g id="a_Node000009"><a xlink:href="calibrate_8h.html" target="_top" xlink:title="opt::calibrate source file">
<polygon fill="white" stroke="#666666" points="877.35,-80.12 778.1,-80.12 778.1,-60.88 877.35,-60.88 877.35,-80.12"/>
<text text-anchor="middle" x="827.72" y="-66.62" font-family="Helvetica,sans-Serif" font-size="10.00">optimize/calibrate.h</text>
</a>
</g>
</g>
<!-- Node4&#45;&gt;Node9 -->
<g id="edge9_Node000004_Node000009" class="edge">
<title>Node4&#45;&gt;Node9</title>
<g id="a_edge9_Node000004_Node000009"><a xlink:title=" ">
<path fill="none" stroke="#63b8ff" d="M719.6,-116.97C746.16,-105.8 783.25,-90.2 806.36,-80.48"/>
<polygon fill="#63b8ff" stroke="#63b8ff" points="718.54,-113.62 710.68,-120.72 721.26,-120.07 718.54,-113.62"/>
</a>
</g>
</g>
<!-- Node10 -->
<g id="Node000010" class="node">
<title>Node10</title>
<g id="a_Node000010"><a xlink:href="_simulation_parameters_8h.html" target="_top" xlink:title="Source file to read simulation configuration.">
<polygon fill="white" stroke="#666666" points="1041.6,-80.12 895.85,-80.12 895.85,-60.88 1041.6,-60.88 1041.6,-80.12"/>
<text text-anchor="middle" x="968.72" y="-66.62" font-family="Helvetica,sans-Serif" font-size="10.00">solve/SimulationParameters.h</text>
</a>
</g>
</g>
<!-- Node4&#45;&gt;Node10 -->
<g id="edge10_Node000004_Node000010" class="edge">
<title>Node4&#45;&gt;Node10</title>
<g id="a_edge10_Node000004_Node000010"><a xlink:title=" ">
<path fill="none" stroke="#63b8ff" d="M738.92,-119.65C792.26,-108.47 874.92,-91.15 925.2,-80.62"/>
<polygon fill="#63b8ff" stroke="#63b8ff" points="738.23,-116.22 729.16,-121.69 739.67,-123.07 738.23,-116.22"/>
</a>
</g>
</g>
<!-- Node11 -->
<g id="Node000011" class="node">
<title>Node11</title>
<g id="a_Node000011"><a xlink:href="csv__writer_8h.html" target="_top" xlink:title="csv_writer source file">
<polygon fill="white" stroke="#666666" points="442.1,-80.12 347.35,-80.12 347.35,-60.88 442.1,-60.88 442.1,-80.12"/>
<text text-anchor="middle" x="394.72" y="-66.62" font-family="Helvetica,sans-Serif" font-size="10.00">solve/csv_writer.h</text>
</a>
</g>
</g>
<!-- Node4&#45;&gt;Node11 -->
<g id="edge13_Node000004_Node000011" class="edge">
<title>Node4&#45;&gt;Node11</title>
<g id="a_edge13_Node000004_Node000011"><a xlink:title=" ">
<path fill="none" stroke="#63b8ff" d="M636.68,-121.16C589.59,-112.51 517.8,-98.97 455.72,-85.75 448.17,-84.14 440.11,-82.33 432.41,-80.55"/>
<polygon fill="#63b8ff" stroke="#63b8ff" points="635.85,-124.56 646.31,-122.92 637.11,-117.68 635.85,-124.56"/>
</a>
</g>
</g>
<!-- Node5&#45;&gt;Node6 -->
<g id="edge5_Node000005_Node000006" class="edge">
<title>Node5&#45;&gt;Node6</title>
<g id="a_edge5_Node000005_Node000006"><a xlink:title=" ">
<path fill="none" stroke="#63b8ff" d="M526.69,-53.63C512.26,-42.73 493.63,-28.67 481.68,-19.65"/>
<polygon fill="#63b8ff" stroke="#63b8ff" points="524.58,-56.42 534.67,-59.65 528.79,-50.83 524.58,-56.42"/>
</a>
</g>
</g>
<!-- Node5&#45;&gt;Node7 -->
<g id="edge6_Node000005_Node000007" class="edge">
<title>Node5&#45;&gt;Node7</title>
<g id="a_edge6_Node000005_Node000007"><a xlink:title=" ">
<path fill="none" stroke="#63b8ff" d="M593.49,-57.9C597.95,-56.94 602.41,-56.03 606.72,-55.25 723.38,-34.04 863.05,-19.98 929.66,-13.96"/>
<polygon fill="#63b8ff" stroke="#63b8ff" points="592.97,-54.43 584,-60.06 594.52,-61.26 592.97,-54.43"/>
</a>
</g>
</g>
<!-- Node10&#45;&gt;Node7 -->
<g id="edge11_Node000010_Node000007" class="edge">
<title>Node10&#45;&gt;Node7</title>
<g id="a_edge11_Node000010_Node000007"><a xlink:title=" ">
<path fill="none" stroke="#63b8ff" d="M968.72,-49.07C968.72,-39.04 968.72,-27.46 968.72,-19.65"/>
<polygon fill="#63b8ff" stroke="#63b8ff" points="965.22,-49.04 968.72,-59.04 972.22,-49.04 965.22,-49.04"/>
</a>
</g>
</g>
<!-- Node11&#45;&gt;Node6 -->
<g id="edge14_Node000011_Node000006" class="edge">
<title>Node11&#45;&gt;Node6</title>
<g id="a_edge14_Node000011_Node000006"><a xlink:title=" ">
<path fill="none" stroke="#63b8ff" d="M414.94,-53.63C428.82,-42.73 446.73,-28.67 458.22,-19.65"/>
<polygon fill="#63b8ff" stroke="#63b8ff" points="413.01,-50.7 407.3,-59.62 417.33,-56.2 413.01,-50.7"/>
</a>
</g>
</g>
<!-- Node12&#45;&gt;Node4 -->
<g id="edge18_Node000012_Node000004" class="edge">
<title>Node12&#45;&gt;Node4</title>
<g id="a_edge18_Node000012_Node000004"><a xlink:title=" ">
<path fill="none" stroke="#63b8ff" d="M109.64,-289.02C104.9,-281.29 100.13,-271.97 97.72,-262.75 87.56,-223.82 93.96,-200.36 126.72,-177 168.93,-146.9 526.78,-136.04 647.86,-133.2"/>
<polygon fill="#63b8ff" stroke="#63b8ff" points="106.58,-290.74 115.02,-297.14 112.42,-286.87 106.58,-290.74"/>
</a>
</g>
</g>
<!-- Node12&#45;&gt;Node13 -->
<g id="edge16_Node000012_Node000013" class="edge">
<title>Node12&#45;&gt;Node13</title>
<g id="a_edge16_Node000012_Node000013"><a xlink:title=" ">
<path fill="none" stroke="#63b8ff" d="M140.35,-290.61C149.96,-281.47 161.47,-270.53 169.36,-263.02"/>
<polygon fill="#63b8ff" stroke="#63b8ff" points="138.15,-287.87 133.32,-297.3 142.98,-292.94 138.15,-287.87"/>
</a>
</g>
</g>
<!-- Node13&#45;&gt;Node4 -->
<g id="edge17_Node000013_Node000004" class="edge">
<title>Node13&#45;&gt;Node4</title>
<g id="a_edge17_Node000013_Node000004"><a xlink:title=" ">
<path fill="none" stroke="#63b8ff" d="M158.47,-236.02C140.47,-219.82 119.35,-194.75 135.72,-177 170.31,-139.5 526.99,-133.51 647.9,-132.55"/>
<polygon fill="#63b8ff" stroke="#63b8ff" points="155.85,-238.39 165.73,-242.21 160.39,-233.06 155.85,-238.39"/>
</a>
</g>
</g>
<!-- Node15 -->
<g id="Node000015" class="node">
<title>Node15</title>
<g id="a_Node000015"><a xlink:href="_closed_loop_coronary_left_b_c_8h.html" target="_top" xlink:title="Left side of ClosedLoopCoronaryBC.">
<polygon fill="white" stroke="#666666" points="280.35,-207.5 145.1,-207.5 145.1,-177 280.35,-177 280.35,-207.5"/>
<text text-anchor="start" x="153.1" y="-194" font-family="Helvetica,sans-Serif" font-size="10.00">model/ClosedLoopCoronary</text>
<text text-anchor="middle" x="212.72" y="-182.75" font-family="Helvetica,sans-Serif" font-size="10.00">LeftBC.h</text>
</a>
</g>
</g>
<!-- Node14&#45;&gt;Node15 -->
<g id="edge21_Node000014_Node000015" class="edge">
<title>Node14&#45;&gt;Node15</title>
<g id="a_edge21_Node000014_Node000015"><a xlink:title=" ">
<path fill="none" stroke="#63b8ff" d="M320,-238.69C298.35,-229.52 269.67,-217.37 247.41,-207.94"/>
<polygon fill="#63b8ff" stroke="#63b8ff" points="318.34,-241.79 328.91,-242.46 321.07,-235.34 318.34,-241.79"/>
</a>
</g>
</g>
<!-- Node16 -->
<g id="Node000016" class="node">
<title>Node16</title>
<g id="a_Node000016"><a xlink:href="_closed_loop_coronary_right_b_c_8h.html" target="_top" xlink:title="Right side of ClosedLoopCoronaryBC.">
<polygon fill="white" stroke="#666666" points="433.35,-207.5 298.1,-207.5 298.1,-177 433.35,-177 433.35,-207.5"/>
<text text-anchor="start" x="306.1" y="-194" font-family="Helvetica,sans-Serif" font-size="10.00">model/ClosedLoopCoronary</text>
<text text-anchor="middle" x="365.72" y="-182.75" font-family="Helvetica,sans-Serif" font-size="10.00">RightBC.h</text>
</a>
</g>
</g>
<!-- Node14&#45;&gt;Node16 -->
<g id="edge23_Node000014_Node000016" class="edge">
<title>Node14&#45;&gt;Node16</title>
<g id="a_edge23_Node000014_Node000016"><a xlink:title=" ">
<path fill="none" stroke="#63b8ff" d="M356.46,-232.2C358.36,-224.2 360.51,-215.15 362.26,-207.78"/>
<polygon fill="#63b8ff" stroke="#63b8ff" points="353.1,-231.17 354.2,-241.71 359.92,-232.79 353.1,-231.17"/>
</a>
</g>
</g>
<!-- Node15&#45;&gt;Node4 -->
<g id="edge22_Node000015_Node000004" class="edge">
<title>Node15&#45;&gt;Node4</title>
<g id="a_edge22_Node000015_Node000004"><a xlink:title=" ">
<path fill="none" stroke="#63b8ff" d="M291.67,-176.62C427.89,-156.63 577.94,-142.15 647.95,-135.84"/>
<polygon fill="#63b8ff" stroke="#63b8ff" points="291.51,-173.11 282.13,-178.04 292.53,-180.03 291.51,-173.11"/>
</a>
</g>
</g>
<!-- Node16&#45;&gt;Node4 -->
<g id="edge24_Node000016_Node000004" class="edge">
<title>Node16&#45;&gt;Node4</title>
<g id="a_edge24_Node000016_Node000004"><a xlink:title=" ">
<path fill="none" stroke="#63b8ff" d="M444.93,-176.77C509.27,-165 597.34,-148.9 647.81,-139.67"/>
<polygon fill="#63b8ff" stroke="#63b8ff" points="444.31,-173.32 435.1,-178.56 445.57,-180.21 444.31,-173.32"/>
</a>
</g>
</g>
<!-- Node17&#45;&gt;Node4 -->
<g id="edge27_Node000017_Node000004" class="edge">
<title>Node17&#45;&gt;Node4</title>
<g id="a_edge27_Node000017_Node000004"><a xlink:title=" ">
<path fill="none" stroke="#63b8ff" d="M389.89,-293.53C405.61,-285.84 424.21,-275.29 438.72,-262.75 474.9,-231.47 463.72,-203.21 503.72,-177 547.71,-148.18 608.59,-137.95 648.06,-134.33"/>
<polygon fill="#63b8ff" stroke="#63b8ff" points="388.49,-290.33 380.93,-297.75 391.47,-296.66 388.49,-290.33"/>
</a>
</g>
</g>
<!-- Node17&#45;&gt;Node14 -->
<g id="edge26_Node000017_Node000014" class="edge">
<title>Node17&#45;&gt;Node14</title>
<g id="a_edge26_Node000017_Node000014"><a xlink:title=" ">
<path fill="none" stroke="#63b8ff" d="M355.47,-287.42C354.53,-279.05 353.48,-269.75 352.73,-263.11"/>
<polygon fill="#63b8ff" stroke="#63b8ff" points="351.96,-287.53 356.56,-297.08 358.92,-286.75 351.96,-287.53"/>
</a>
</g>
</g>
<!-- Node18&#45;&gt;Node4 -->
<g id="edge29_Node000018_Node000004" class="edge">
<title>Node18&#45;&gt;Node4</title>
<g id="a_edge29_Node000018_Node000004"><a xlink:title=" ">
<path fill="none" stroke="#63b8ff" d="M522.23,-288.01C510.2,-260.36 493.82,-209.33 518.72,-177 534.37,-156.69 603.01,-143.74 647.85,-137.29"/>
<polygon fill="#63b8ff" stroke="#63b8ff" points="518.98,-289.33 526.35,-296.94 525.34,-286.39 518.98,-289.33"/>
</a>
</g>
</g>
<!-- Node19&#45;&gt;Node4 -->
<g id="edge31_Node000019_Node000004" class="edge">
<title>Node19&#45;&gt;Node4</title>
<g id="a_edge31_Node000019_Node000004"><a xlink:title=" ">
<path fill="none" stroke="#63b8ff" d="M617.57,-176.31C635.15,-165.3 658.49,-150.68 673.31,-141.4"/>
<polygon fill="#63b8ff" stroke="#63b8ff" points="615.9,-173.23 609.28,-181.5 619.61,-179.16 615.9,-173.23"/>
</a>
</g>
</g>
<!-- Node20&#45;&gt;Node4 -->
<g id="edge33_Node000020_Node000004" class="edge">
<title>Node20&#45;&gt;Node4</title>
<g id="a_edge33_Node000020_Node000004"><a xlink:title=" ">
<path fill="none" stroke="#63b8ff" d="M645.47,-297.23C626.06,-290.74 606.3,-280.12 594.72,-262.75 565.15,-218.38 648.67,-232.15 668.72,-207.5 684.68,-187.88 687.45,-156.56 687.79,-141.31"/>
<polygon fill="#63b8ff" stroke="#63b8ff" points="644.44,-300.58 655.03,-300.08 646.44,-293.87 644.44,-300.58"/>
</a>
</g>
</g>
<!-- Node21&#45;&gt;Node4 -->
<g id="edge36_Node000021_Node000004" class="edge">
<title>Node21&#45;&gt;Node4</title>
<g id="a_edge36_Node000021_Node000004"><a xlink:title=" ">
<path fill="none" stroke="#63b8ff" d="M690.91,-233.37C695.22,-225.68 699.54,-216.48 701.72,-207.5 707.47,-183.78 697.72,-155.35 691.78,-141.23"/>
<polygon fill="#63b8ff" stroke="#63b8ff" points="688.01,-231.4 685.82,-241.77 694,-235.03 688.01,-231.4"/>
</a>
</g>
</g>
<!-- Node22&#45;&gt;Node4 -->
<g id="edge38_Node000022_Node000004" class="edge">
<title>Node22&#45;&gt;Node4</title>
<g id="a_edge38_Node000022_Node000004"><a xlink:title=" ">
<path fill="none" stroke="#63b8ff" d="M825.77,-236.35C792.04,-210.94 726.76,-161.78 699.81,-141.48"/>
<polygon fill="#63b8ff" stroke="#63b8ff" points="823.47,-238.99 833.56,-242.21 827.68,-233.4 823.47,-238.99"/>
</a>
</g>
</g>
<!-- Node23&#45;&gt;Node4 -->
<g id="edge40_Node000023_Node000004" class="edge">
<title>Node23&#45;&gt;Node4</title>
<g id="a_edge40_Node000023_Node000004"><a xlink:title=" ">
<path fill="none" stroke="#63b8ff" d="M937.18,-287.69C939.11,-274.16 939.28,-256.38 930.72,-243.5 884.63,-174.15 783.7,-147.42 727.5,-137.64"/>
<polygon fill="#63b8ff" stroke="#63b8ff" points="933.81,-286.7 935.4,-297.18 940.69,-288 933.81,-286.7"/>
</a>
</g>
</g>
<!-- Node24&#45;&gt;Node4 -->
<g id="edge42_Node000024_Node000004" class="edge">
<title>Node24&#45;&gt;Node4</title>
<g id="a_edge42_Node000024_Node000004"><a xlink:title=" ">
<path fill="none" stroke="#63b8ff" d="M1029.48,-234.41C1015.28,-216.81 991.05,-190.55 963.72,-177 886.31,-138.62 783.11,-132.04 727.42,-131.59"/>
<polygon fill="#63b8ff" stroke="#63b8ff" points="1026.46,-236.23 1035.36,-241.97 1031.98,-231.93 1026.46,-236.23"/>
</a>
</g>
</g>
<!-- Node25&#45;&gt;Node4 -->
<g id="edge44_Node000025_Node000004" class="edge">
<title>Node25&#45;&gt;Node4</title>
<g id="a_edge44_Node000025_Node000004"><a xlink:title=" ">
<path fill="none" stroke="#63b8ff" d="M1133.54,-239.76C1108.39,-231.79 1076.13,-220.5 1048.72,-207.5 1025.2,-196.35 1023.22,-185.81 998.72,-177 905.43,-143.46 787.85,-135.05 727.49,-132.99"/>
<polygon fill="#63b8ff" stroke="#63b8ff" points="1132.16,-243 1142.75,-242.62 1134.24,-236.31 1132.16,-243"/>
</a>
</g>
</g>
<!-- Node26&#45;&gt;Node4 -->
<g id="edge46_Node000026_Node000004" class="edge">
<title>Node26&#45;&gt;Node4</title>
<g id="a_edge46_Node000026_Node000004"><a xlink:title=" ">
<path fill="none" stroke="#63b8ff" d="M1060.88,-180.13C1054.77,-179.01 1048.62,-177.95 1042.72,-177 928.79,-158.74 793.29,-143.49 727.51,-136.49"/>
<polygon fill="#63b8ff" stroke="#63b8ff" points="1059.84,-183.5 1070.31,-181.9 1061.13,-176.62 1059.84,-183.5"/>
</a>
</g>
</g>
<!-- Node27&#45;&gt;Node4 -->
<g id="edge48_Node000027_Node000004" class="edge">
<title>Node27&#45;&gt;Node4</title>
<g id="a_edge48_Node000027_Node000004"><a xlink:title=" ">
<path fill="none" stroke="#63b8ff" d="M1128.74,-350.41C1153.09,-343.04 1182.56,-332.29 1206.72,-318 1273.74,-278.36 1363.78,-233.99 1310.72,-177 1271.01,-134.34 858.57,-131.86 727.49,-132.16"/>
<polygon fill="#63b8ff" stroke="#63b8ff" points="1128.02,-346.97 1119.39,-353.13 1129.97,-353.69 1128.02,-346.97"/>
</a>
</g>
</g>
</g>
</svg>
