<?xml version="1.0" encoding="UTF-8" standalone="no"?>
<!DOCTYPE svg PUBLIC "-//W3C//DTD SVG 1.1//EN"
 "http://www.w3.org/Graphics/SVG/1.1/DTD/svg11.dtd">
<!-- Generated by graphviz version 12.2.1 (20241206.2353)
 -->
<!-- Title: model/Block.h Pages: 1 -->
<svg width="2001pt" height="393pt"
 viewBox="0.00 0.00 2000.88 392.50" xmlns="http://www.w3.org/2000/svg" xmlns:xlink="http://www.w3.org/1999/xlink">
<g id="graph0" class="graph" transform="scale(1 1) rotate(0) translate(4 388.5)">
<title>model/Block.h</title>
<!-- Node1 -->
<g id="Node000001" class="node">
<title>Node1</title>
<g id="a_Node000001"><a xlink:title="model::Block source file">
<polygon fill="#999999" stroke="#666666" points="1005.75,-384.5 928.25,-384.5 928.25,-365.25 1005.75,-365.25 1005.75,-384.5"/>
<text text-anchor="middle" x="967" y="-371" font-family="Helvetica,sans-Serif" font-size="10.00">model/Block.h</text>
</a>
</g>
</g>
<!-- Node2 -->
<g id="Node000002" class="node">
<title>Node2</title>
<g id="a_Node000002"><a xlink:href="_block_factory_8h.html" target="_top" xlink:title="Define the block factory functional.">
<polygon fill="white" stroke="#666666" points="1992.88,-201.88 1883.12,-201.88 1883.12,-182.62 1992.88,-182.62 1992.88,-201.88"/>
<text text-anchor="middle" x="1938" y="-188.38" font-family="Helvetica,sans-Serif" font-size="10.00">model/BlockFactory.h</text>
</a>
</g>
</g>
<!-- Node1&#45;&gt;Node2 -->
<g id="edge1_Node000001_Node000002" class="edge">
<title>Node1&#45;&gt;Node2</title>
<g id="a_edge1_Node000001_Node000002"><a xlink:title=" ">
<path fill="none" stroke="#63b8ff" d="M1017.13,-372.6C1169.27,-368.49 1624.16,-354.39 1770,-329.25 1855.82,-314.46 1905.82,-343.72 1958,-274 1974.44,-252.03 1955.46,-218.19 1944.58,-202.2"/>
<polygon fill="#63b8ff" stroke="#63b8ff" points="1017.29,-369.09 1007.38,-372.86 1017.47,-376.09 1017.29,-369.09"/>
</a>
</g>
</g>
<!-- Node3 -->
<g id="Node000003" class="node">
<title>Node3</title>
<g id="a_Node000003"><a xlink:href="_model_8h.html" target="_top" xlink:title="model::Model source file">
<polygon fill="white" stroke="#666666" points="1026.5,-141 947.5,-141 947.5,-121.75 1026.5,-121.75 1026.5,-141"/>
<text text-anchor="middle" x="987" y="-127.5" font-family="Helvetica,sans-Serif" font-size="10.00">model/Model.h</text>
</a>
</g>
</g>
<!-- Node1&#45;&gt;Node3 -->
<g id="edge47_Node000001_Node000003" class="edge">
<title>Node1&#45;&gt;Node3</title>
<g id="a_edge47_Node000001_Node000003"><a xlink:title=" ">
<path fill="none" stroke="#63b8ff" d="M916.53,-373.3C729.74,-370.94 86.82,-360.56 57,-329.25 33.99,-305.08 -1.75,-259.57 129,-177 198.68,-133 787.48,-131.71 947.18,-132.18"/>
<polygon fill="#63b8ff" stroke="#63b8ff" points="916.36,-376.8 926.4,-373.43 916.44,-369.8 916.36,-376.8"/>
</a>
</g>
</g>
<!-- Node7 -->
<g id="Node000007" class="node">
<title>Node7</title>
<g id="a_Node000007"><a xlink:href="_linear_elastance_chamber_8h.html" target="_top" xlink:title="model::LinearElastanceChamber source file">
<polygon fill="white" stroke="#666666" points="624.75,-80.12 463.25,-80.12 463.25,-60.88 624.75,-60.88 624.75,-80.12"/>
<text text-anchor="middle" x="544" y="-66.62" font-family="Helvetica,sans-Serif" font-size="10.00">model/LinearElastanceChamber.h</text>
</a>
</g>
</g>
<!-- Node1&#45;&gt;Node7 -->
<g id="edge46_Node000001_Node000007" class="edge">
<title>Node1&#45;&gt;Node7</title>
<g id="a_edge46_Node000001_Node000007"><a xlink:title=" ">
<path fill="none" stroke="#63b8ff" d="M916.51,-374.3C733.62,-375.47 112.58,-375.93 38,-329.25 8.16,-310.57 0,-294.95 0,-259.75 0,-259.75 0,-259.75 0,-191.25 0,-97.63 311.2,-77.12 462.85,-72.69"/>
<polygon fill="#63b8ff" stroke="#63b8ff" points="916.42,-377.8 926.4,-374.24 916.38,-370.8 916.42,-377.8"/>
</a>
</g>
</g>
<!-- Node12 -->
<g id="Node000012" class="node">
<title>Node12</title>
<g id="a_Node000012"><a xlink:href="_blood_vessel_8h.html" target="_top" xlink:title="model::BloodVessel source file">
<polygon fill="white" stroke="#666666" points="173.75,-329.25 66.25,-329.25 66.25,-310 173.75,-310 173.75,-329.25"/>
<text text-anchor="middle" x="120" y="-315.75" font-family="Helvetica,sans-Serif" font-size="10.00">model/BloodVessel.h</text>
</a>
</g>
</g>
<!-- Node1&#45;&gt;Node12 -->
<g id="edge16_Node000001_Node000012" class="edge">
<title>Node1&#45;&gt;Node12</title>
<g id="a_edge16_Node000001_Node000012"><a xlink:title=" ">
<path fill="none" stroke="#63b8ff" d="M916.67,-372.2C792.64,-367.79 462.43,-354.48 188,-329.25 183.5,-328.84 178.83,-328.35 174.15,-327.84"/>
<polygon fill="#63b8ff" stroke="#63b8ff" points="916.39,-375.69 926.51,-372.54 916.64,-368.69 916.39,-375.69"/>
</a>
</g>
</g>
<!-- Node13 -->
<g id="Node000013" class="node">
<title>Node13</title>
<g id="a_Node000013"><a xlink:href="_blood_vessel_junction_8h.html" target="_top" xlink:title="model::BloodVesselJunction source file">
<polygon fill="white" stroke="#666666" points="261.12,-268.38 116.88,-268.38 116.88,-249.12 261.12,-249.12 261.12,-268.38"/>
<text text-anchor="middle" x="189" y="-254.88" font-family="Helvetica,sans-Serif" font-size="10.00">model/BloodVesselJunction.h</text>
</a>
</g>
</g>
<!-- Node1&#45;&gt;Node13 -->
<g id="edge23_Node000001_Node000013" class="edge">
<title>Node1&#45;&gt;Node13</title>
<g id="a_edge23_Node000001_Node000013"><a xlink:title=" ">
<path fill="none" stroke="#63b8ff" d="M916.67,-373.82C758.44,-373.26 278.15,-368.31 221,-329.25 200.38,-315.16 192.79,-284.28 190.21,-268.87"/>
<polygon fill="#63b8ff" stroke="#63b8ff" points="916.41,-377.32 926.42,-373.85 916.43,-370.32 916.41,-377.32"/>
</a>
</g>
</g>
<!-- Node14 -->
<g id="Node000014" class="node">
<title>Node14</title>
<g id="a_Node000014"><a xlink:href="_blood_vessel_c_r_l_8h.html" target="_top" xlink:title="model::BloodVesselCRL source file">
<polygon fill="white" stroke="#666666" points="357.5,-329.25 230.5,-329.25 230.5,-310 357.5,-310 357.5,-329.25"/>
<text text-anchor="middle" x="294" y="-315.75" font-family="Helvetica,sans-Serif" font-size="10.00">model/BloodVesselCRL.h</text>
</a>
</g>
</g>
<!-- Node1&#45;&gt;Node14 -->
<g id="edge20_Node000001_Node000014" class="edge">
<title>Node1&#45;&gt;Node14</title>
<g id="a_edge20_Node000001_Node000014"><a xlink:title=" ">
<path fill="none" stroke="#63b8ff" d="M916.75,-370.71C814.23,-364.11 573.62,-347.95 372,-329.25 367.39,-328.82 362.62,-328.36 357.83,-327.87"/>
<polygon fill="#63b8ff" stroke="#63b8ff" points="916.26,-374.18 926.46,-371.33 916.71,-367.2 916.26,-374.18"/>
</a>
</g>
</g>
<!-- Node15 -->
<g id="Node000015" class="node">
<title>Node15</title>
<g id="a_Node000015"><a xlink:href="_blood_vessel_r_c_8h_source.html" target="_top" xlink:title=" ">
<polygon fill="white" stroke="#666666" points="376.5,-201.88 255.5,-201.88 255.5,-182.62 376.5,-182.62 376.5,-201.88"/>
<text text-anchor="middle" x="316" y="-188.38" font-family="Helvetica,sans-Serif" font-size="10.00">model/BloodVesselRC.h</text>
</a>
</g>
</g>
<!-- Node1&#45;&gt;Node15 -->
<g id="edge24_Node000001_Node000015" class="edge">
<title>Node1&#45;&gt;Node15</title>
<g id="a_edge24_Node000001_Node000015"><a xlink:title=" ">
<path fill="none" stroke="#63b8ff" d="M916.71,-374.43C800.63,-374.94 517.55,-371.67 434,-329.25 375.75,-299.67 333.96,-227.74 320.58,-202.33"/>
<polygon fill="#63b8ff" stroke="#63b8ff" points="916.57,-377.93 926.55,-374.37 916.53,-370.93 916.57,-377.93"/>
</a>
</g>
</g>
<!-- Node16 -->
<g id="Node000016" class="node">
<title>Node16</title>
<g id="a_Node000016"><a xlink:href="_chamber_elastance_inductor_8h.html" target="_top" xlink:title="model::ChamberElastanceInductor source file">
<polygon fill="white" stroke="#666666" points="583.88,-268.38 414.12,-268.38 414.12,-249.12 583.88,-249.12 583.88,-268.38"/>
<text text-anchor="middle" x="499" y="-254.88" font-family="Helvetica,sans-Serif" font-size="10.00">model/ChamberElastanceInductor.h</text>
</a>
</g>
</g>
<!-- Node1&#45;&gt;Node16 -->
<g id="edge26_Node000001_Node000016" class="edge">
<title>Node1&#45;&gt;Node16</title>
<g id="a_edge26_Node000001_Node000016"><a xlink:title=" ">
<path fill="none" stroke="#63b8ff" d="M916.46,-373.37C791.29,-371.59 474.64,-363.69 443,-329.25 424.03,-308.59 459.88,-282.4 482.51,-268.83"/>
<polygon fill="#63b8ff" stroke="#63b8ff" points="916.41,-376.87 926.45,-373.5 916.5,-369.87 916.41,-376.87"/>
</a>
</g>
</g>
<!-- Node18 -->
<g id="Node000018" class="node">
<title>Node18</title>
<g id="a_Node000018"><a xlink:href="_chamber_sphere_8h.html" target="_top" xlink:title="model::ChamberSphere source file">
<polygon fill="white" stroke="#666666" points="574.25,-329.25 451.75,-329.25 451.75,-310 574.25,-310 574.25,-329.25"/>
<text text-anchor="middle" x="513" y="-315.75" font-family="Helvetica,sans-Serif" font-size="10.00">model/ChamberSphere.h</text>
</a>
</g>
</g>
<!-- Node1&#45;&gt;Node18 -->
<g id="edge30_Node000001_Node000018" class="edge">
<title>Node1&#45;&gt;Node18</title>
<g id="a_edge30_Node000001_Node000018"><a xlink:title=" ">
<path fill="none" stroke="#63b8ff" d="M916.66,-367.97C832.91,-358.15 665.26,-338.48 574.6,-327.85"/>
<polygon fill="#63b8ff" stroke="#63b8ff" points="916.06,-371.42 926.4,-369.11 916.87,-364.47 916.06,-371.42"/>
</a>
</g>
</g>
<!-- Node19 -->
<g id="Node000019" class="node">
<title>Node19</title>
<g id="a_Node000019"><a xlink:href="_closed_loop_coronary_b_c_8h.html" target="_top" xlink:title="model::ClosedLoopCoronaryBC source file">
<polygon fill="white" stroke="#666666" points="807.12,-268.38 650.88,-268.38 650.88,-249.12 807.12,-249.12 807.12,-268.38"/>
<text text-anchor="middle" x="729" y="-254.88" font-family="Helvetica,sans-Serif" font-size="10.00">model/ClosedLoopCoronaryBC.h</text>
</a>
</g>
</g>
<!-- Node1&#45;&gt;Node19 -->
<g id="edge32_Node000001_Node000019" class="edge">
<title>Node1&#45;&gt;Node19</title>
<g id="a_edge32_Node000001_Node000019"><a xlink:title=" ">
<path fill="none" stroke="#63b8ff" d="M916.31,-370.98C824.92,-365.24 640.18,-351.06 621,-329.25 596.34,-301.2 650.18,-280.11 690.36,-268.87"/>
<polygon fill="#63b8ff" stroke="#63b8ff" points="916.06,-374.47 926.26,-371.59 916.49,-367.49 916.06,-374.47"/>
</a>
</g>
</g>
<!-- Node22 -->
<g id="Node000022" class="node">
<title>Node22</title>
<g id="a_Node000022"><a xlink:href="_closed_loop_heart_pulmonary_8h.html" target="_top" xlink:title="model::ClosedLoopHeartPulmonary source file">
<polygon fill="white" stroke="#666666" points="804.12,-329.25 629.88,-329.25 629.88,-310 804.12,-310 804.12,-329.25"/>
<text text-anchor="middle" x="717" y="-315.75" font-family="Helvetica,sans-Serif" font-size="10.00">model/ClosedLoopHeartPulmonary.h</text>
</a>
</g>
</g>
<!-- Node1&#45;&gt;Node22 -->
<g id="edge37_Node000001_Node000022" class="edge">
<title>Node1&#45;&gt;Node22</title>
<g id="a_edge37_Node000001_Node000022"><a xlink:title=" ">
<path fill="none" stroke="#63b8ff" d="M916.7,-363.16C870.59,-353.34 803.05,-338.95 759.55,-329.69"/>
<polygon fill="#63b8ff" stroke="#63b8ff" points="915.95,-366.58 926.46,-365.24 917.41,-359.73 915.95,-366.58"/>
</a>
</g>
</g>
<!-- Node23 -->
<g id="Node000023" class="node">
<title>Node23</title>
<g id="a_Node000023"><a xlink:href="_closed_loop_r_c_r_b_c_8h.html" target="_top" xlink:title="model::ClosedLoopRCRBC source file">
<polygon fill="white" stroke="#666666" points="960.12,-329.25 821.88,-329.25 821.88,-310 960.12,-310 960.12,-329.25"/>
<text text-anchor="middle" x="891" y="-315.75" font-family="Helvetica,sans-Serif" font-size="10.00">model/ClosedLoopRCRBC.h</text>
</a>
</g>
</g>
<!-- Node1&#45;&gt;Node23 -->
<g id="edge40_Node000001_Node000023" class="edge">
<title>Node1&#45;&gt;Node23</title>
<g id="a_edge40_Node000001_Node000023"><a xlink:title=" ">
<path fill="none" stroke="#63b8ff" d="M944.71,-358.26C931.46,-348.97 915.11,-337.52 903.96,-329.7"/>
<polygon fill="#63b8ff" stroke="#63b8ff" points="942.67,-361.1 952.87,-363.97 946.69,-355.37 942.67,-361.1"/>
</a>
</g>
</g>
<!-- Node24 -->
<g id="Node000024" class="node">
<title>Node24</title>
<g id="a_Node000024"><a xlink:href="_flow_reference_b_c_8h.html" target="_top" xlink:title="model::FlowReferenceBC source file">
<polygon fill="white" stroke="#666666" points="1109.75,-329.25 978.25,-329.25 978.25,-310 1109.75,-310 1109.75,-329.25"/>
<text text-anchor="middle" x="1044" y="-315.75" font-family="Helvetica,sans-Serif" font-size="10.00">model/FlowReferenceBC.h</text>
</a>
</g>
</g>
<!-- Node1&#45;&gt;Node24 -->
<g id="edge42_Node000001_Node000024" class="edge">
<title>Node1&#45;&gt;Node24</title>
<g id="a_edge42_Node000001_Node000024"><a xlink:title=" ">
<path fill="none" stroke="#63b8ff" d="M989.19,-358.53C1002.68,-349.2 1019.46,-337.6 1030.87,-329.7"/>
<polygon fill="#63b8ff" stroke="#63b8ff" points="987.54,-355.41 981.31,-363.98 991.52,-361.17 987.54,-355.41"/>
</a>
</g>
</g>
<!-- Node25 -->
<g id="Node000025" class="node">
<title>Node25</title>
<g id="a_Node000025"><a xlink:href="_junction_8h.html" target="_top" xlink:title="model::Junction source file">
<polygon fill="white" stroke="#666666" points="1161.75,-201.88 1072.25,-201.88 1072.25,-182.62 1161.75,-182.62 1161.75,-201.88"/>
<text text-anchor="middle" x="1117" y="-188.38" font-family="Helvetica,sans-Serif" font-size="10.00">model/Junction.h</text>
</a>
</g>
</g>
<!-- Node1&#45;&gt;Node25 -->
<g id="edge44_Node000001_Node000025" class="edge">
<title>Node1&#45;&gt;Node25</title>
<g id="a_edge44_Node000001_Node000025"><a xlink:title=" ">
<path fill="none" stroke="#63b8ff" d="M1017.46,-365.71C1056.76,-358.2 1106.66,-345.73 1119,-329.25 1134,-309.21 1122.78,-229.09 1118.49,-202.15"/>
<polygon fill="#63b8ff" stroke="#63b8ff" points="1016.87,-362.26 1007.67,-367.51 1018.13,-369.14 1016.87,-362.26"/>
</a>
</g>
</g>
<!-- Node26 -->
<g id="Node000026" class="node">
<title>Node26</title>
<g id="a_Node000026"><a xlink:href="_open_loop_coronary_b_c_8h.html" target="_top" xlink:title="model::OpenLoopCoronaryBC source file">
<polygon fill="white" stroke="#666666" points="1315.75,-329.25 1166.25,-329.25 1166.25,-310 1315.75,-310 1315.75,-329.25"/>
<text text-anchor="middle" x="1241" y="-315.75" font-family="Helvetica,sans-Serif" font-size="10.00">model/OpenLoopCoronaryBC.h</text>
</a>
</g>
</g>
<!-- Node1&#45;&gt;Node26 -->
<g id="edge48_Node000001_Node000026" class="edge">
<title>Node1&#45;&gt;Node26</title>
<g id="a_edge48_Node000001_Node000026"><a xlink:title=" ">
<path fill="none" stroke="#63b8ff" d="M1017.27,-364.11C1067.83,-354.28 1145.15,-339.25 1194.37,-329.69"/>
<polygon fill="#63b8ff" stroke="#63b8ff" points="1016.6,-360.67 1007.45,-366.01 1017.94,-367.54 1016.6,-360.67"/>
</a>
</g>
</g>
<!-- Node27 -->
<g id="Node000027" class="node">
<title>Node27</title>
<g id="a_Node000027"><a xlink:href="_open_loop_coronary_var_res_b_c_8h.html" target="_top" xlink:title="model::OpenLoopCoronaryVarResBC source file">
<polygon fill="white" stroke="#666666" points="1319.75,-274 1176.25,-274 1176.25,-243.5 1319.75,-243.5 1319.75,-274"/>
<text text-anchor="start" x="1184.25" y="-260.5" font-family="Helvetica,sans-Serif" font-size="10.00">model/OpenLoopCoronaryVar</text>
<text text-anchor="middle" x="1248" y="-249.25" font-family="Helvetica,sans-Serif" font-size="10.00">ResBC.h</text>
</a>
</g>
</g>
<!-- Node1&#45;&gt;Node27 -->
<g id="edge52_Node000001_Node000027" class="edge">
<title>Node1&#45;&gt;Node27</title>
<g id="a_edge52_Node000001_Node000027"><a xlink:title=" ">
<path fill="none" stroke="#63b8ff" d="M1017.39,-371.23C1111.2,-365.8 1304.97,-351.93 1325,-329.25 1343.24,-308.6 1312.17,-287.81 1284.22,-274.42"/>
<polygon fill="#63b8ff" stroke="#63b8ff" points="1017.22,-367.74 1007.44,-371.8 1017.62,-374.73 1017.22,-367.74"/>
</a>
</g>
</g>
<!-- Node28 -->
<g id="Node000028" class="node">
<title>Node28</title>
<g id="a_Node000028"><a xlink:href="_piecewise_valve_8h.html" target="_top" xlink:title="model::PiecewiseValve source file">
<polygon fill="white" stroke="#666666" points="1399.25,-201.88 1276.75,-201.88 1276.75,-182.62 1399.25,-182.62 1399.25,-201.88"/>
<text text-anchor="middle" x="1338" y="-188.38" font-family="Helvetica,sans-Serif" font-size="10.00">model/PiecewiseValve.h</text>
</a>
</g>
</g>
<!-- Node1&#45;&gt;Node28 -->
<g id="edge53_Node000001_Node000028" class="edge">
<title>Node1&#45;&gt;Node28</title>
<g id="a_edge53_Node000001_Node000028"><a xlink:title=" ">
<path fill="none" stroke="#63b8ff" d="M1017.37,-371.54C1114.66,-366.51 1320.8,-353.13 1342,-329.25 1374.47,-292.69 1351.81,-226.33 1341.95,-202.27"/>
<polygon fill="#63b8ff" stroke="#63b8ff" points="1017.38,-368.03 1007.57,-372.03 1017.74,-375.02 1017.38,-368.03"/>
</a>
</g>
</g>
<!-- Node29 -->
<g id="Node000029" class="node">
<title>Node29</title>
<g id="a_Node000029"><a xlink:href="_pressure_reference_b_c_8h.html" target="_top" xlink:title="model::PressureReferenceBC source file">
<polygon fill="white" stroke="#666666" points="1525.75,-268.38 1376.25,-268.38 1376.25,-249.12 1525.75,-249.12 1525.75,-268.38"/>
<text text-anchor="middle" x="1451" y="-254.88" font-family="Helvetica,sans-Serif" font-size="10.00">model/PressureReferenceBC.h</text>
</a>
</g>
</g>
<!-- Node1&#45;&gt;Node29 -->
<g id="edge55_Node000001_Node000029" class="edge">
<title>Node1&#45;&gt;Node29</title>
<g id="a_edge55_Node000001_Node000029"><a xlink:title=" ">
<path fill="none" stroke="#63b8ff" d="M1017.46,-373.47C1116.44,-371.9 1331.99,-364.42 1396,-329.25 1421.62,-315.17 1439.51,-283.71 1447.03,-268.42"/>
<polygon fill="#63b8ff" stroke="#63b8ff" points="1017.45,-369.97 1007.5,-373.61 1017.55,-376.97 1017.45,-369.97"/>
</a>
</g>
</g>
<!-- Node30 -->
<g id="Node000030" class="node">
<title>Node30</title>
<g id="a_Node000030"><a xlink:href="_resistance_b_c_8h.html" target="_top" xlink:title="model::ResistanceBC source file">
<polygon fill="white" stroke="#666666" points="1658.5,-268.38 1543.5,-268.38 1543.5,-249.12 1658.5,-249.12 1658.5,-268.38"/>
<text text-anchor="middle" x="1601" y="-254.88" font-family="Helvetica,sans-Serif" font-size="10.00">model/ResistanceBC.h</text>
</a>
</g>
</g>
<!-- Node1&#45;&gt;Node30 -->
<g id="edge57_Node000001_Node000030" class="edge">
<title>Node1&#45;&gt;Node30</title>
<g id="a_edge57_Node000001_Node000030"><a xlink:title=" ">
<path fill="none" stroke="#63b8ff" d="M1017.47,-373.34C1102.06,-371.47 1277.31,-363.38 1421,-329.25 1482.27,-314.69 1550.63,-284.04 1582.62,-268.78"/>
<polygon fill="#63b8ff" stroke="#63b8ff" points="1017.59,-369.84 1007.66,-373.54 1017.73,-376.84 1017.59,-369.84"/>
</a>
</g>
</g>
<!-- Node31 -->
<g id="Node000031" class="node">
<title>Node31</title>
<g id="a_Node000031"><a xlink:href="_resistive_junction_8h.html" target="_top" xlink:title="model::ResistiveJunction source file">
<polygon fill="white" stroke="#666666" points="1700,-201.88 1570,-201.88 1570,-182.62 1700,-182.62 1700,-201.88"/>
<text text-anchor="middle" x="1635" y="-188.38" font-family="Helvetica,sans-Serif" font-size="10.00">model/ResistiveJunction.h</text>
</a>
</g>
</g>
<!-- Node1&#45;&gt;Node31 -->
<g id="edge59_Node000001_Node000031" class="edge">
<title>Node1&#45;&gt;Node31</title>
<g id="a_edge59_Node000001_Node000031"><a xlink:title=" ">
<path fill="none" stroke="#63b8ff" d="M1017.31,-372.3C1107.62,-368.82 1302.93,-358.33 1465,-329.25 1557.03,-312.74 1611.22,-348.29 1668,-274 1685.38,-251.26 1659.11,-218.08 1644.17,-202.27"/>
<polygon fill="#63b8ff" stroke="#63b8ff" points="1017.43,-368.79 1007.57,-372.66 1017.69,-375.79 1017.43,-368.79"/>
</a>
</g>
</g>
<!-- Node32 -->
<g id="Node000032" class="node">
<title>Node32</title>
<g id="a_Node000032"><a xlink:href="_valve_tanh_8h.html" target="_top" xlink:title="model::ValveTanh source file">
<polygon fill="white" stroke="#666666" points="1814.62,-268.38 1715.38,-268.38 1715.38,-249.12 1814.62,-249.12 1814.62,-268.38"/>
<text text-anchor="middle" x="1765" y="-254.88" font-family="Helvetica,sans-Serif" font-size="10.00">model/ValveTanh.h</text>
</a>
</g>
</g>
<!-- Node1&#45;&gt;Node32 -->
<g id="edge61_Node000001_Node000032" class="edge">
<title>Node1&#45;&gt;Node32</title>
<g id="a_edge61_Node000001_Node000032"><a xlink:title=" ">
<path fill="none" stroke="#63b8ff" d="M1017.14,-372.99C1172.59,-369.94 1639.62,-358.42 1701,-329.25 1729.15,-315.87 1750.77,-284.07 1760.04,-268.56"/>
<polygon fill="#63b8ff" stroke="#63b8ff" points="1017.51,-369.48 1007.58,-373.17 1017.65,-376.48 1017.51,-369.48"/>
</a>
</g>
</g>
<!-- Node33 -->
<g id="Node000033" class="node">
<title>Node33</title>
<g id="a_Node000033"><a xlink:href="_windkessel_b_c_8h.html" target="_top" xlink:title="model::WindkesselBC source file">
<polygon fill="white" stroke="#666666" points="1949.25,-268.38 1832.75,-268.38 1832.75,-249.12 1949.25,-249.12 1949.25,-268.38"/>
<text text-anchor="middle" x="1891" y="-254.88" font-family="Helvetica,sans-Serif" font-size="10.00">model/WindkesselBC.h</text>
</a>
</g>
</g>
<!-- Node1&#45;&gt;Node33 -->
<g id="edge63_Node000001_Node000033" class="edge">
<title>Node1&#45;&gt;Node33</title>
<g id="a_edge63_Node000001_Node000033"><a xlink:title=" ">
<path fill="none" stroke="#63b8ff" d="M1017.11,-373.18C1164.09,-370.78 1592.21,-361.16 1728,-329.25 1784.6,-315.95 1846.47,-284.41 1874.98,-268.81"/>
<polygon fill="#63b8ff" stroke="#63b8ff" points="1017.26,-369.67 1007.31,-373.33 1017.37,-376.67 1017.26,-369.67"/>
</a>
</g>
</g>
<!-- Node2&#45;&gt;Node3 -->
<g id="edge2_Node000002_Node000003" class="edge">
<title>Node2&#45;&gt;Node3</title>
<g id="a_edge2_Node000002_Node000003"><a xlink:title=" ">
<path fill="none" stroke="#63b8ff" d="M1874.2,-180.51C1864.77,-179.17 1855.14,-177.94 1846,-177 1531.46,-144.55 1149.56,-135.25 1026.93,-133.01"/>
<polygon fill="#63b8ff" stroke="#63b8ff" points="1873.67,-183.97 1884.08,-181.97 1874.7,-177.04 1873.67,-183.97"/>
</a>
</g>
</g>
<!-- Node4 -->
<g id="Node000004" class="node">
<title>Node4</title>
<g id="a_Node000004"><a xlink:href="_integrator_8h.html" target="_top" xlink:title="Integrator source file.">
<polygon fill="white" stroke="#666666" points="1223.62,-80.12 1124.38,-80.12 1124.38,-60.88 1223.62,-60.88 1223.62,-80.12"/>
<text text-anchor="middle" x="1174" y="-66.62" font-family="Helvetica,sans-Serif" font-size="10.00">algebra/Integrator.h</text>
</a>
</g>
</g>
<!-- Node3&#45;&gt;Node4 -->
<g id="edge3_Node000003_Node000004" class="edge">
<title>Node3&#45;&gt;Node4</title>
<g id="a_edge3_Node000003_Node000004"><a xlink:title=" ">
<path fill="none" stroke="#63b8ff" d="M1026.74,-117.86C1062.26,-106.68 1113.44,-90.57 1145.16,-80.58"/>
<polygon fill="#63b8ff" stroke="#63b8ff" points="1025.74,-114.51 1017.25,-120.85 1027.84,-121.19 1025.74,-114.51"/>
</a>
</g>
</g>
<!-- Node5 -->
<g id="Node000005" class="node">
<title>Node5</title>
<g id="a_Node000005"><a xlink:href="interface_8h.html" target="_top" xlink:title="svZeroDSolver callable interface.">
<polygon fill="white" stroke="#666666" points="1339.75,-19.25 1238.25,-19.25 1238.25,0 1339.75,0 1339.75,-19.25"/>
<text text-anchor="middle" x="1289" y="-5.75" font-family="Helvetica,sans-Serif" font-size="10.00">interface/interface.h</text>
</a>
</g>
</g>
<!-- Node3&#45;&gt;Node5 -->
<g id="edge6_Node000003_Node000005" class="edge">
<title>Node3&#45;&gt;Node5</title>
<g id="a_edge6_Node000003_Node000005"><a xlink:title=" ">
<path fill="none" stroke="#63b8ff" d="M1038.16,-127.69C1132.25,-122.22 1325.03,-108.37 1345,-85.75 1353.97,-75.59 1350.88,-67.46 1345,-55.25 1337.28,-39.23 1320.71,-27.19 1307.59,-19.67"/>
<polygon fill="#63b8ff" stroke="#63b8ff" points="1038.22,-124.18 1028.43,-128.24 1038.61,-131.17 1038.22,-124.18"/>
</a>
</g>
</g>
<!-- Node6 -->
<g id="Node000006" class="node">
<title>Node6</title>
<g id="a_Node000006"><a xlink:href="_solver_8h.html" target="_top" xlink:title="Solver source file.">
<polygon fill="white" stroke="#666666" points="855.75,-19.25 778.25,-19.25 778.25,0 855.75,0 855.75,-19.25"/>
<text text-anchor="middle" x="817" y="-5.75" font-family="Helvetica,sans-Serif" font-size="10.00">solve/Solver.h</text>
</a>
</g>
</g>
<!-- Node3&#45;&gt;Node6 -->
<g id="edge13_Node000003_Node000006" class="edge">
<title>Node3&#45;&gt;Node6</title>
<g id="a_edge13_Node000003_Node000006"><a xlink:title=" ">
<path fill="none" stroke="#63b8ff" d="M935.85,-127.86C903.02,-123.54 861.84,-112.64 836,-85.75 818.29,-67.32 816.4,-34.87 816.61,-19.36"/>
<polygon fill="#63b8ff" stroke="#63b8ff" points="935.24,-131.31 945.57,-128.96 936.03,-124.36 935.24,-131.31"/>
</a>
</g>
</g>
<!-- Node3&#45;&gt;Node7 -->
<g id="edge7_Node000003_Node000007" class="edge">
<title>Node3&#45;&gt;Node7</title>
<g id="a_edge7_Node000003_Node000007"><a xlink:title=" ">
<path fill="none" stroke="#63b8ff" d="M935.9,-125.11C865.53,-117.19 735.36,-101.46 625,-85.75 613.88,-84.17 602.01,-82.37 590.84,-80.59"/>
<polygon fill="#63b8ff" stroke="#63b8ff" points="935.26,-128.56 945.58,-126.19 936.03,-121.61 935.26,-128.56"/>
</a>
</g>
</g>
<!-- Node8 -->
<g id="Node000008" class="node">
<title>Node8</title>
<g id="a_Node000008"><a xlink:href="_levenberg_marquardt_optimizer_8h.html" target="_top" xlink:title="opt::LevenbergMarquardtOptimizer source file">
<polygon fill="white" stroke="#666666" points="989.12,-85.75 844.88,-85.75 844.88,-55.25 989.12,-55.25 989.12,-85.75"/>
<text text-anchor="start" x="852.88" y="-72.25" font-family="Helvetica,sans-Serif" font-size="10.00">optimize/LevenbergMarquardt</text>
<text text-anchor="middle" x="917" y="-61" font-family="Helvetica,sans-Serif" font-size="10.00">Optimizer.h</text>
</a>
</g>
</g>
<!-- Node3&#45;&gt;Node8 -->
<g id="edge9_Node000003_Node000008" class="edge">
<title>Node3&#45;&gt;Node8</title>
<g id="a_edge9_Node000003_Node000008"><a xlink:title=" ">
<path fill="none" stroke="#63b8ff" d="M967.58,-114.04C957.14,-105.26 944.37,-94.52 934.28,-86.03"/>
<polygon fill="#63b8ff" stroke="#63b8ff" points="965.3,-116.7 975.21,-120.46 969.81,-111.34 965.3,-116.7"/>
</a>
</g>
</g>
<!-- Node9 -->
<g id="Node000009" class="node">
<title>Node9</title>
<g id="a_Node000009"><a xlink:href="calibrate_8h.html" target="_top" xlink:title="opt::calibrate source file">
<polygon fill="white" stroke="#666666" points="1106.62,-80.12 1007.38,-80.12 1007.38,-60.88 1106.62,-60.88 1106.62,-80.12"/>
<text text-anchor="middle" x="1057" y="-66.62" font-family="Helvetica,sans-Serif" font-size="10.00">optimize/calibrate.h</text>
</a>
</g>
</g>
<!-- Node3&#45;&gt;Node9 -->
<g id="edge10_Node000003_Node000009" class="edge">
<title>Node3&#45;&gt;Node9</title>
<g id="a_edge10_Node000003_Node000009"><a xlink:title=" ">
<path fill="none" stroke="#63b8ff" d="M1006.25,-114.19C1019.14,-103.34 1035.64,-89.46 1046.27,-80.53"/>
<polygon fill="#63b8ff" stroke="#63b8ff" points="1004.19,-111.34 998.79,-120.46 1008.7,-116.7 1004.19,-111.34"/>
</a>
</g>
</g>
<!-- Node10 -->
<g id="Node000010" class="node">
<title>Node10</title>
<g id="a_Node000010"><a xlink:href="_simulation_parameters_8h.html" target="_top" xlink:title="Source file to read simulation configuration.">
<polygon fill="white" stroke="#666666" points="788.88,-80.12 643.12,-80.12 643.12,-60.88 788.88,-60.88 788.88,-80.12"/>
<text text-anchor="middle" x="716" y="-66.62" font-family="Helvetica,sans-Serif" font-size="10.00">solve/SimulationParameters.h</text>
</a>
</g>
</g>
<!-- Node3&#45;&gt;Node10 -->
<g id="edge11_Node000003_Node000010" class="edge">
<title>Node3&#45;&gt;Node10</title>
<g id="a_edge11_Node000003_Node000010"><a xlink:title=" ">
<path fill="none" stroke="#63b8ff" d="M935.82,-119.26C884.32,-108.07 805.87,-91.02 757.94,-80.61"/>
<polygon fill="#63b8ff" stroke="#63b8ff" points="935.02,-122.66 945.53,-121.37 936.5,-115.82 935.02,-122.66"/>
</a>
</g>
</g>
<!-- Node11 -->
<g id="Node000011" class="node">
<title>Node11</title>
<g id="a_Node000011"><a xlink:href="csv__writer_8h.html" target="_top" xlink:title="csv_writer source file">
<polygon fill="white" stroke="#666666" points="1336.38,-80.12 1241.62,-80.12 1241.62,-60.88 1336.38,-60.88 1336.38,-80.12"/>
<text text-anchor="middle" x="1289" y="-66.62" font-family="Helvetica,sans-Serif" font-size="10.00">solve/csv_writer.h</text>
</a>
</g>
</g>
<!-- Node3&#45;&gt;Node11 -->
<g id="edge14_Node000003_Node000011" class="edge">
<title>Node3&#45;&gt;Node11</title>
<g id="a_edge14_Node000003_Node000011"><a xlink:title=" ">
<path fill="none" stroke="#63b8ff" d="M1037.92,-122.2C1087.81,-113.95 1165.91,-100.35 1233,-85.75 1240.06,-84.21 1247.58,-82.41 1254.74,-80.62"/>
<polygon fill="#63b8ff" stroke="#63b8ff" points="1037.59,-118.71 1028.29,-123.79 1038.72,-125.62 1037.59,-118.71"/>
</a>
</g>
</g>
<!-- Node4&#45;&gt;Node5 -->
<g id="edge4_Node000004_Node000005" class="edge">
<title>Node4&#45;&gt;Node5</title>
<g id="a_edge4_Node000004_Node000005"><a xlink:title=" ">
<path fill="none" stroke="#63b8ff" d="M1201.69,-55.33C1223.35,-44.24 1252.81,-29.15 1271.37,-19.65"/>
<polygon fill="#63b8ff" stroke="#63b8ff" points="1200.12,-52.2 1192.81,-59.87 1203.31,-58.43 1200.12,-52.2"/>
</a>
</g>
</g>
<!-- Node4&#45;&gt;Node6 -->
<g id="edge5_Node000004_Node000006" class="edge">
<title>Node4&#45;&gt;Node6</title>
<g id="a_edge5_Node000004_Node000006"><a xlink:title=" ">
<path fill="none" stroke="#63b8ff" d="M1128.28,-57.85C1124.14,-56.92 1120,-56.04 1116,-55.25 1023.31,-36.99 913.14,-22.34 855.9,-15.26"/>
<polygon fill="#63b8ff" stroke="#63b8ff" points="1127.14,-61.18 1137.68,-60.04 1128.73,-54.36 1127.14,-61.18"/>
</a>
</g>
</g>
<!-- Node7&#45;&gt;Node3 -->
<g id="edge8_Node000007_Node000003" class="edge">
<title>Node7&#45;&gt;Node3</title>
<g id="a_edge8_Node000007_Node000003"><a xlink:title=" ">
<path fill="none" stroke="#63b8ff" d="M619.62,-82.3C627.54,-83.5 635.44,-84.67 643,-85.75 753.08,-101.42 882.88,-117.12 947.12,-125.05"/>
<polygon fill="#63b8ff" stroke="#63b8ff" points="620.37,-78.87 609.95,-80.82 619.31,-85.79 620.37,-78.87"/>
</a>
</g>
</g>
<!-- Node10&#45;&gt;Node6 -->
<g id="edge12_Node000010_Node000006" class="edge">
<title>Node10&#45;&gt;Node6</title>
<g id="a_edge12_Node000010_Node000006"><a xlink:title=" ">
<path fill="none" stroke="#63b8ff" d="M741.1,-54.87C760.05,-43.82 785.44,-29.02 801.52,-19.65"/>
<polygon fill="#63b8ff" stroke="#63b8ff" points="739.52,-51.74 732.65,-59.8 743.05,-57.78 739.52,-51.74"/>
</a>
</g>
</g>
<!-- Node11&#45;&gt;Node5 -->
<g id="edge15_Node000011_Node000005" class="edge">
<title>Node11&#45;&gt;Node5</title>
<g id="a_edge15_Node000011_Node000005"><a xlink:title=" ">
<path fill="none" stroke="#63b8ff" d="M1289,-49.07C1289,-39.04 1289,-27.46 1289,-19.65"/>
<polygon fill="#63b8ff" stroke="#63b8ff" points="1285.5,-49.04 1289,-59.04 1292.5,-49.04 1285.5,-49.04"/>
</a>
</g>
</g>
<!-- Node12&#45;&gt;Node3 -->
<g id="edge19_Node000012_Node000003" class="edge">
<title>Node12&#45;&gt;Node3</title>
<g id="a_edge19_Node000012_Node000003"><a xlink:title=" ">
<path fill="none" stroke="#63b8ff" d="M110.93,-299.29C104.93,-283.56 99.58,-261.17 108,-243.5 128.19,-201.14 146.23,-193.91 190,-177 260.9,-149.61 795.55,-136.39 947.08,-133.17"/>
<polygon fill="#63b8ff" stroke="#63b8ff" points="107.69,-300.61 114.83,-308.43 114.13,-297.86 107.69,-300.61"/>
</a>
</g>
</g>
<!-- Node12&#45;&gt;Node13 -->
<g id="edge17_Node000012_Node000013" class="edge">
<title>Node12&#45;&gt;Node13</title>
<g id="a_edge17_Node000012_Node000013"><a xlink:title=" ">
<path fill="none" stroke="#63b8ff" d="M138.97,-302.44C151.69,-291.59 167.95,-277.71 178.42,-268.78"/>
<polygon fill="#63b8ff" stroke="#63b8ff" points="136.97,-299.55 131.63,-308.7 141.51,-304.87 136.97,-299.55"/>
</a>
</g>
</g>
<!-- Node13&#45;&gt;Node3 -->
<g id="edge18_Node000013_Node000003" class="edge">
<title>Node13&#45;&gt;Node3</title>
<g id="a_edge18_Node000013_Node000003"><a xlink:title=" ">
<path fill="none" stroke="#63b8ff" d="M188.92,-237.19C190.06,-218.33 195.02,-191.24 213,-177 270.81,-131.23 796.73,-131.12 947.05,-132.04"/>
<polygon fill="#63b8ff" stroke="#63b8ff" points="185.42,-237.07 188.66,-247.16 192.42,-237.25 185.42,-237.07"/>
</a>
</g>
</g>
<!-- Node14&#45;&gt;Node3 -->
<g id="edge22_Node000014_Node000003" class="edge">
<title>Node14&#45;&gt;Node3</title>
<g id="a_edge22_Node000014_Node000003"><a xlink:title=" ">
<path fill="none" stroke="#63b8ff" d="M289.25,-298.65C285.18,-283.17 278.62,-261.41 270,-243.5 261.66,-226.17 251.57,-225.9 246,-207.5 242.07,-194.53 236.71,-186.87 246,-177 270.21,-151.28 796.47,-136.88 947.07,-133.28"/>
<polygon fill="#63b8ff" stroke="#63b8ff" points="285.78,-299.2 291.6,-308.06 292.57,-297.51 285.78,-299.2"/>
</a>
</g>
</g>
<!-- Node14&#45;&gt;Node13 -->
<g id="edge21_Node000014_Node000013" class="edge">
<title>Node14&#45;&gt;Node13</title>
<g id="a_edge21_Node000014_Node000013"><a xlink:title=" ">
<path fill="none" stroke="#63b8ff" d="M268.18,-304.15C248.45,-293.09 221.88,-278.19 205.1,-268.78"/>
<polygon fill="#63b8ff" stroke="#63b8ff" points="266.3,-307.1 276.73,-308.94 269.72,-301 266.3,-307.1"/>
</a>
</g>
</g>
<!-- Node15&#45;&gt;Node3 -->
<g id="edge25_Node000015_Node000003" class="edge">
<title>Node15&#45;&gt;Node3</title>
<g id="a_edge25_Node000015_Node000003"><a xlink:title=" ">
<path fill="none" stroke="#63b8ff" d="M370.27,-180.19C377.23,-178.99 384.27,-177.89 391,-177 599.31,-149.5 850.99,-137.58 947.08,-133.8"/>
<polygon fill="#63b8ff" stroke="#63b8ff" points="369.81,-176.72 360.58,-181.93 371.05,-183.61 369.81,-176.72"/>
</a>
</g>
</g>
<!-- Node16&#45;&gt;Node3 -->
<g id="edge29_Node000016_Node000003" class="edge">
<title>Node16&#45;&gt;Node3</title>
<g id="a_edge29_Node000016_Node000003"><a xlink:title=" ">
<path fill="none" stroke="#63b8ff" d="M469.92,-243.59C440.56,-227.48 402.4,-200.38 424,-177 459.39,-138.7 824.79,-133.24 947.25,-132.49"/>
<polygon fill="#63b8ff" stroke="#63b8ff" points="468.01,-246.54 478.49,-248.1 471.27,-240.34 468.01,-246.54"/>
</a>
</g>
</g>
<!-- Node17 -->
<g id="Node000017" class="node">
<title>Node17</title>
<g id="a_Node000017"><a xlink:href="_chamber_elastance_inductor_exponential_8h.html" target="_top" xlink:title="model::ChamberElastanceInductorExponential source file">
<polygon fill="white" stroke="#666666" points="595.12,-207.5 432.88,-207.5 432.88,-177 595.12,-177 595.12,-207.5"/>
<text text-anchor="start" x="440.88" y="-194" font-family="Helvetica,sans-Serif" font-size="10.00">model/ChamberElastanceInductor</text>
<text text-anchor="middle" x="514" y="-182.75" font-family="Helvetica,sans-Serif" font-size="10.00">Exponential.h</text>
</a>
</g>
</g>
<!-- Node16&#45;&gt;Node17 -->
<g id="edge27_Node000016_Node000017" class="edge">
<title>Node16&#45;&gt;Node17</title>
<g id="a_edge27_Node000016_Node000017"><a xlink:title=" ">
<path fill="none" stroke="#63b8ff" d="M503.66,-237.69C505.93,-227.94 508.6,-216.45 510.66,-207.59"/>
<polygon fill="#63b8ff" stroke="#63b8ff" points="500.28,-236.77 501.43,-247.31 507.1,-238.36 500.28,-236.77"/>
</a>
</g>
</g>
<!-- Node17&#45;&gt;Node3 -->
<g id="edge28_Node000017_Node000003" class="edge">
<title>Node17&#45;&gt;Node3</title>
<g id="a_edge28_Node000017_Node000003"><a xlink:title=" ">
<path fill="none" stroke="#63b8ff" d="M606.94,-177.28C607.63,-177.18 608.32,-177.09 609,-177 732.13,-160.5 878.27,-144.17 947.22,-136.66"/>
<polygon fill="#63b8ff" stroke="#63b8ff" points="606.52,-173.8 597.09,-178.63 607.48,-180.74 606.52,-173.8"/>
</a>
</g>
</g>
<!-- Node18&#45;&gt;Node3 -->
<g id="edge31_Node000018_Node000003" class="edge">
<title>Node18&#45;&gt;Node3</title>
<g id="a_edge31_Node000018_Node000003"><a xlink:title=" ">
<path fill="none" stroke="#63b8ff" d="M547.4,-305.01C562.79,-297.61 580.29,-287.24 593,-274 626.44,-239.15 602.57,-204.9 642,-177 690.38,-142.77 867.33,-134.8 947.3,-132.94"/>
<polygon fill="#63b8ff" stroke="#63b8ff" points="546.2,-301.71 538.54,-309.03 549.09,-308.08 546.2,-301.71"/>
</a>
</g>
</g>
<!-- Node20 -->
<g id="Node000020" class="node">
<title>Node20</title>
<g id="a_Node000020"><a xlink:href="_closed_loop_coronary_left_b_c_8h.html" target="_top" xlink:title="Left side of ClosedLoopCoronaryBC.">
<polygon fill="white" stroke="#666666" points="786.62,-207.5 651.38,-207.5 651.38,-177 786.62,-177 786.62,-207.5"/>
<text text-anchor="start" x="659.38" y="-194" font-family="Helvetica,sans-Serif" font-size="10.00">model/ClosedLoopCoronary</text>
<text text-anchor="middle" x="719" y="-182.75" font-family="Helvetica,sans-Serif" font-size="10.00">LeftBC.h</text>
</a>
</g>
</g>
<!-- Node19&#45;&gt;Node20 -->
<g id="edge33_Node000019_Node000020" class="edge">
<title>Node19&#45;&gt;Node20</title>
<g id="a_edge33_Node000019_Node000020"><a xlink:title=" ">
<path fill="none" stroke="#63b8ff" d="M725.89,-237.69C724.38,-227.94 722.6,-216.45 721.22,-207.59"/>
<polygon fill="#63b8ff" stroke="#63b8ff" points="722.39,-237.94 727.38,-247.29 729.3,-236.87 722.39,-237.94"/>
</a>
</g>
</g>
<!-- Node21 -->
<g id="Node000021" class="node">
<title>Node21</title>
<g id="a_Node000021"><a xlink:href="_closed_loop_coronary_right_b_c_8h.html" target="_top" xlink:title="Right side of ClosedLoopCoronaryBC.">
<polygon fill="white" stroke="#666666" points="939.62,-207.5 804.38,-207.5 804.38,-177 939.62,-177 939.62,-207.5"/>
<text text-anchor="start" x="812.38" y="-194" font-family="Helvetica,sans-Serif" font-size="10.00">model/ClosedLoopCoronary</text>
<text text-anchor="middle" x="872" y="-182.75" font-family="Helvetica,sans-Serif" font-size="10.00">RightBC.h</text>
</a>
</g>
</g>
<!-- Node19&#45;&gt;Node21 -->
<g id="edge35_Node000019_Node000021" class="edge">
<title>Node19&#45;&gt;Node21</title>
<g id="a_edge35_Node000019_Node000021"><a xlink:title=" ">
<path fill="none" stroke="#63b8ff" d="M759.62,-243.94C783.14,-233.33 815.55,-218.71 839.52,-207.9"/>
<polygon fill="#63b8ff" stroke="#63b8ff" points="758.24,-240.72 750.56,-248.02 761.12,-247.1 758.24,-240.72"/>
</a>
</g>
</g>
<!-- Node20&#45;&gt;Node3 -->
<g id="edge34_Node000020_Node000003" class="edge">
<title>Node20&#45;&gt;Node3</title>
<g id="a_edge34_Node000020_Node000003"><a xlink:title=" ">
<path fill="none" stroke="#63b8ff" d="M797.18,-174.07C846.32,-163.28 907.66,-149.81 947.08,-141.15"/>
<polygon fill="#63b8ff" stroke="#63b8ff" points="796.43,-170.66 787.41,-176.22 797.93,-177.49 796.43,-170.66"/>
</a>
</g>
</g>
<!-- Node21&#45;&gt;Node3 -->
<g id="edge36_Node000021_Node000003" class="edge">
<title>Node21&#45;&gt;Node3</title>
<g id="a_edge36_Node000021_Node000003"><a xlink:title=" ">
<path fill="none" stroke="#63b8ff" d="M910.74,-171.41C930.6,-161.25 953.81,-149.37 969.36,-141.4"/>
<polygon fill="#63b8ff" stroke="#63b8ff" points="909.38,-168.18 902.07,-175.86 912.57,-174.41 909.38,-168.18"/>
</a>
</g>
</g>
<!-- Node22&#45;&gt;Node3 -->
<g id="edge39_Node000022_Node000003" class="edge">
<title>Node22&#45;&gt;Node3</title>
<g id="a_edge39_Node000022_Node000003"><a xlink:title=" ">
<path fill="none" stroke="#63b8ff" d="M763.53,-306.42C814.67,-290.93 896.51,-259.75 949,-207.5 968.48,-188.12 979.84,-156.69 984.5,-141.36"/>
<polygon fill="#63b8ff" stroke="#63b8ff" points="762.86,-302.97 754.25,-309.15 764.83,-309.69 762.86,-302.97"/>
</a>
</g>
</g>
<!-- Node22&#45;&gt;Node19 -->
<g id="edge38_Node000022_Node000019" class="edge">
<title>Node22&#45;&gt;Node19</title>
<g id="a_edge38_Node000022_Node000019"><a xlink:title=" ">
<path fill="none" stroke="#63b8ff" d="M721.1,-298.53C723.16,-288.42 725.55,-276.67 727.16,-268.78"/>
<polygon fill="#63b8ff" stroke="#63b8ff" points="717.69,-297.7 719.12,-308.2 724.55,-299.1 717.69,-297.7"/>
</a>
</g>
</g>
<!-- Node23&#45;&gt;Node3 -->
<g id="edge41_Node000023_Node000003" class="edge">
<title>Node23&#45;&gt;Node3</title>
<g id="a_edge41_Node000023_Node000003"><a xlink:title=" ">
<path fill="none" stroke="#63b8ff" d="M940.49,-305.57C956.43,-298.82 972.42,-288.78 982,-274 1009.7,-231.26 995.87,-165.04 989.57,-141.26"/>
<polygon fill="#63b8ff" stroke="#63b8ff" points="939.6,-302.17 931.51,-309.01 942.1,-308.7 939.6,-302.17"/>
</a>
</g>
</g>
<!-- Node24&#45;&gt;Node3 -->
<g id="edge43_Node000024_Node000003" class="edge">
<title>Node24&#45;&gt;Node3</title>
<g id="a_edge43_Node000024_Node000003"><a xlink:title=" ">
<path fill="none" stroke="#63b8ff" d="M1043.51,-298.46C1042.18,-270.23 1037.36,-217.79 1020,-177 1014.19,-163.35 1003.43,-149.97 995.77,-141.48"/>
<polygon fill="#63b8ff" stroke="#63b8ff" points="1040,-298.22 1043.85,-308.09 1046.99,-297.97 1040,-298.22"/>
</a>
</g>
</g>
<!-- Node25&#45;&gt;Node3 -->
<g id="edge45_Node000025_Node000003" class="edge">
<title>Node25&#45;&gt;Node3</title>
<g id="a_edge45_Node000025_Node000003"><a xlink:title=" ">
<path fill="none" stroke="#63b8ff" d="M1086.74,-177.54C1062.12,-166.4 1028.1,-150.99 1006.84,-141.36"/>
<polygon fill="#63b8ff" stroke="#63b8ff" points="1085.04,-180.62 1095.59,-181.56 1087.93,-174.24 1085.04,-180.62"/>
</a>
</g>
</g>
<!-- Node26&#45;&gt;Node3 -->
<g id="edge49_Node000026_Node000003" class="edge">
<title>Node26&#45;&gt;Node3</title>
<g id="a_edge49_Node000026_Node000003"><a xlink:title=" ">
<path fill="none" stroke="#63b8ff" d="M1202.6,-304.88C1188.85,-297.88 1174.82,-287.85 1167,-274 1145.78,-236.43 1197.67,-210.92 1171,-177 1153.42,-154.65 1075.57,-142.13 1026.94,-136.36"/>
<polygon fill="#63b8ff" stroke="#63b8ff" points="1201.04,-308.01 1211.59,-309.02 1203.97,-301.65 1201.04,-308.01"/>
</a>
</g>
</g>
<!-- Node26&#45;&gt;Node27 -->
<g id="edge50_Node000026_Node000027" class="edge">
<title>Node26&#45;&gt;Node27</title>
<g id="a_edge50_Node000026_Node000027"><a xlink:title=" ">
<path fill="none" stroke="#63b8ff" d="M1243.4,-298.42C1244.35,-290.49 1245.41,-281.56 1246.27,-274.28"/>
<polygon fill="#63b8ff" stroke="#63b8ff" points="1239.95,-297.84 1242.24,-308.18 1246.9,-298.66 1239.95,-297.84"/>
</a>
</g>
</g>
<!-- Node27&#45;&gt;Node3 -->
<g id="edge51_Node000027_Node000003" class="edge">
<title>Node27&#45;&gt;Node3</title>
<g id="a_edge51_Node000027_Node000003"><a xlink:title=" ">
<path fill="none" stroke="#63b8ff" d="M1240.63,-232.54C1233.99,-214.33 1222.4,-190.62 1204,-177 1176.33,-156.52 1081.26,-142.86 1026.58,-136.5"/>
<polygon fill="#63b8ff" stroke="#63b8ff" points="1237.26,-233.48 1243.74,-241.86 1243.9,-231.26 1237.26,-233.48"/>
</a>
</g>
</g>
<!-- Node28&#45;&gt;Node3 -->
<g id="edge54_Node000028_Node000003" class="edge">
<title>Node28&#45;&gt;Node3</title>
<g id="a_edge54_Node000028_Node000003"><a xlink:title=" ">
<path fill="none" stroke="#63b8ff" d="M1272.73,-180.3C1200.64,-168.21 1086.86,-149.12 1026.94,-139.07"/>
<polygon fill="#63b8ff" stroke="#63b8ff" points="1271.99,-183.73 1282.43,-181.93 1273.15,-176.82 1271.99,-183.73"/>
</a>
</g>
</g>
<!-- Node29&#45;&gt;Node3 -->
<g id="edge56_Node000029_Node000003" class="edge">
<title>Node29&#45;&gt;Node3</title>
<g id="a_edge56_Node000029_Node000003"><a xlink:title=" ">
<path fill="none" stroke="#63b8ff" d="M1446.19,-237.89C1440.47,-218.9 1428.95,-191.14 1408,-177 1346.39,-135.43 1119.35,-131.69 1026.74,-131.95"/>
<polygon fill="#63b8ff" stroke="#63b8ff" points="1442.77,-238.66 1448.76,-247.41 1449.53,-236.84 1442.77,-238.66"/>
</a>
</g>
</g>
<!-- Node30&#45;&gt;Node3 -->
<g id="edge58_Node000030_Node000003" class="edge">
<title>Node30&#45;&gt;Node3</title>
<g id="a_edge58_Node000030_Node000003"><a xlink:title=" ">
<path fill="none" stroke="#63b8ff" d="M1577.49,-242.98C1546.26,-224.15 1488.74,-192.22 1435,-177 1288.73,-135.57 1106.12,-131.33 1026.82,-131.69"/>
<polygon fill="#63b8ff" stroke="#63b8ff" points="1575.39,-245.79 1585.74,-248.03 1579.04,-239.82 1575.39,-245.79"/>
</a>
</g>
</g>
<!-- Node31&#45;&gt;Node3 -->
<g id="edge60_Node000031_Node000003" class="edge">
<title>Node31&#45;&gt;Node3</title>
<g id="a_edge60_Node000031_Node000003"><a xlink:title=" ">
<path fill="none" stroke="#63b8ff" d="M1558.45,-182.1C1542.76,-180.32 1526.36,-178.54 1511,-177 1330.44,-158.94 1114.4,-142.03 1026.81,-135.36"/>
<polygon fill="#63b8ff" stroke="#63b8ff" points="1557.88,-185.55 1568.22,-183.21 1558.68,-178.6 1557.88,-185.55"/>
</a>
</g>
</g>
<!-- Node32&#45;&gt;Node3 -->
<g id="edge62_Node000032_Node000003" class="edge">
<title>Node32&#45;&gt;Node3</title>
<g id="a_edge62_Node000032_Node000003"><a xlink:title=" ">
<path fill="none" stroke="#63b8ff" d="M1757.42,-238.09C1748.84,-218.82 1732.88,-190.45 1709,-177 1649.44,-143.44 1168.84,-134.69 1026.55,-132.82"/>
<polygon fill="#63b8ff" stroke="#63b8ff" points="1754.17,-239.4 1761.23,-247.3 1760.64,-236.72 1754.17,-239.4"/>
</a>
</g>
</g>
<!-- Node33&#45;&gt;Node3 -->
<g id="edge64_Node000033_Node000003" class="edge">
<title>Node33&#45;&gt;Node3</title>
<g id="a_edge64_Node000033_Node000003"><a xlink:title=" ">
<path fill="none" stroke="#63b8ff" d="M1869.29,-242.42C1840.73,-223.19 1788.24,-191.04 1738,-177 1602.3,-139.08 1161.92,-133.38 1026.79,-132.53"/>
<polygon fill="#63b8ff" stroke="#63b8ff" points="1867.21,-245.24 1877.44,-248.01 1871.17,-239.47 1867.21,-245.24"/>
</a>
</g>
</g>
</g>
</svg>
