<?xml version="1.0" encoding="UTF-8" standalone="no"?>
<!DOCTYPE svg PUBLIC "-//W3C//DTD SVG 1.1//EN"
 "http://www.w3.org/Graphics/SVG/1.1/DTD/svg11.dtd">
<!-- Generated by graphviz version 9.0.0 (20230911.1827)
 -->
<!-- Title: model/BloodVesselJunction.h Pages: 1 -->
<svg width="574pt" height="248pt"
 viewBox="0.00 0.00 574.38 248.25" xmlns="http://www.w3.org/2000/svg" xmlns:xlink="http://www.w3.org/1999/xlink">
<g id="graph0" class="graph" transform="scale(1 1) rotate(0) translate(4 244.25)">
<title>model/BloodVesselJunction.h</title>
<!-- Node1 -->
<g id="Node000001" class="node">
<title>Node1</title>
<g id="a_Node000001"><a xlink:title="model::BloodVesselJunction source file">
<polygon fill="#999999" stroke="#666666" points="422.62,-240.25 278.38,-240.25 278.38,-221 422.62,-221 422.62,-240.25"/>
<text text-anchor="middle" x="350.5" y="-226.75" font-family="Helvetica,sans-Serif" font-size="10.00">model/BloodVesselJunction.h</text>
</a>
</g>
</g>
<!-- Node2 -->
<g id="Node000002" class="node">
<title>Node2</title>
<g id="a_Node000002"><a xlink:href="_block_8h.html" target="_top" xlink:title="model::Block source file">
<polygon fill="white" stroke="#666666" points="322.62,-129.75 274.38,-129.75 274.38,-110.5 322.62,-110.5 322.62,-129.75"/>
<text text-anchor="middle" x="298.5" y="-116.25" font-family="Helvetica,sans-Serif" font-size="10.00">Block.h</text>
</a>
</g>
</g>
<!-- Node1&#45;&gt;Node2 -->
<g id="edge1_Node000001_Node000002" class="edge">
<title>Node1&#45;&gt;Node2</title>
<g id="a_edge1_Node000001_Node000002"><a xlink:title=" ">
<path fill="none" stroke="#63b8ff" d="M346.24,-220.75C337.86,-203.26 319.06,-164.02 307.71,-140.34"/>
<polygon fill="#63b8ff" stroke="#63b8ff" points="310.95,-139 303.47,-131.49 304.63,-142.02 310.95,-139"/>
</a>
</g>
</g>
<!-- Node10 -->
<g id="Node000010" class="node">
<title>Node10</title>
<g id="a_Node000010"><a xlink:href="_sparse_system_8h.html" target="_top" xlink:title="SparseSystem source file.">
<polygon fill="white" stroke="#666666" points="458.12,-74.5 370.88,-74.5 370.88,-55.25 458.12,-55.25 458.12,-74.5"/>
<text text-anchor="middle" x="414.5" y="-61" font-family="Helvetica,sans-Serif" font-size="10.00">SparseSystem.h</text>
</a>
</g>
</g>
<!-- Node1&#45;&gt;Node10 -->
<g id="edge21_Node000001_Node000010" class="edge">
<title>Node1&#45;&gt;Node10</title>
<g id="a_edge21_Node000001_Node000010"><a xlink:title=" ">
<path fill="none" stroke="#63b8ff" d="M352.72,-220.82C355.94,-208.39 362.32,-185.05 369.5,-165.75 380.2,-136.99 395.29,-104.81 404.98,-84.95"/>
<polygon fill="#63b8ff" stroke="#63b8ff" points="408.04,-86.67 409.32,-76.15 401.76,-83.57 408.04,-86.67"/>
</a>
</g>
</g>
<!-- Node15 -->
<g id="Node000015" class="node">
<title>Node15</title>
<g id="a_Node000015"><a xlink:href="_blood_vessel_8h.html" target="_top" xlink:title="model::BloodVessel source file">
<polygon fill="white" stroke="#666666" points="456.62,-185 378.38,-185 378.38,-165.75 456.62,-165.75 456.62,-185"/>
<text text-anchor="middle" x="417.5" y="-171.5" font-family="Helvetica,sans-Serif" font-size="10.00">BloodVessel.h</text>
</a>
</g>
</g>
<!-- Node1&#45;&gt;Node15 -->
<g id="edge17_Node000001_Node000015" class="edge">
<title>Node1&#45;&gt;Node15</title>
<g id="a_edge17_Node000001_Node000015"><a xlink:title=" ">
<path fill="none" stroke="#63b8ff" d="M361.87,-220.59C371.55,-212.9 385.7,-201.65 397.31,-192.43"/>
<polygon fill="#63b8ff" stroke="#63b8ff" points="399.47,-195.18 405.12,-186.22 395.11,-189.7 399.47,-195.18"/>
</a>
</g>
</g>
<!-- Node3 -->
<g id="Node000003" class="node">
<title>Node3</title>
<g id="a_Node000003"><a xlink:title=" ">
<polygon fill="#e0e0e0" stroke="#999999" points="268.12,-74.5 204.88,-74.5 204.88,-55.25 268.12,-55.25 268.12,-74.5"/>
<text text-anchor="middle" x="236.5" y="-61" font-family="Helvetica,sans-Serif" font-size="10.00">Eigen/Core</text>
</a>
</g>
</g>
<!-- Node2&#45;&gt;Node3 -->
<g id="edge2_Node000002_Node000003" class="edge">
<title>Node2&#45;&gt;Node3</title>
<g id="a_edge2_Node000002_Node000003"><a xlink:title=" ">
<path fill="none" stroke="#63b8ff" d="M287.98,-110.09C279.11,-102.47 266.19,-91.37 255.51,-82.2"/>
<polygon fill="#63b8ff" stroke="#63b8ff" points="257.88,-79.62 248.01,-75.76 253.32,-84.93 257.88,-79.62"/>
</a>
</g>
</g>
<!-- Node4 -->
<g id="Node000004" class="node">
<title>Node4</title>
<g id="a_Node000004"><a xlink:title=" ">
<polygon fill="#e0e0e0" stroke="#999999" points="314.9,-74.5 286.1,-74.5 286.1,-55.25 314.9,-55.25 314.9,-74.5"/>
<text text-anchor="middle" x="300.5" y="-61" font-family="Helvetica,sans-Serif" font-size="10.00">list</text>
</a>
</g>
</g>
<!-- Node2&#45;&gt;Node4 -->
<g id="edge3_Node000002_Node000004" class="edge">
<title>Node2&#45;&gt;Node4</title>
<g id="a_edge3_Node000002_Node000004"><a xlink:title=" ">
<path fill="none" stroke="#63b8ff" d="M298.83,-110.33C299.08,-103.74 299.43,-94.46 299.74,-86.07"/>
<polygon fill="#63b8ff" stroke="#63b8ff" points="303.23,-86.5 300.11,-76.37 296.23,-86.23 303.23,-86.5"/>
</a>
</g>
</g>
<!-- Node5 -->
<g id="Node000005" class="node">
<title>Node5</title>
<g id="a_Node000005"><a xlink:title=" ">
<polygon fill="#e0e0e0" stroke="#999999" points="179.88,-19.25 145.12,-19.25 145.12,0 179.88,0 179.88,-19.25"/>
<text text-anchor="middle" x="162.5" y="-5.75" font-family="Helvetica,sans-Serif" font-size="10.00">map</text>
</a>
</g>
</g>
<!-- Node2&#45;&gt;Node5 -->
<g id="edge4_Node000002_Node000005" class="edge">
<title>Node2&#45;&gt;Node5</title>
<g id="a_edge4_Node000002_Node000005"><a xlink:title=" ">
<path fill="none" stroke="#63b8ff" d="M307.23,-110.09C318.84,-96.96 336.48,-72.31 323.5,-55.25 307.6,-34.34 233.61,-20.68 191.68,-14.48"/>
<polygon fill="#63b8ff" stroke="#63b8ff" points="192.18,-11.01 181.79,-13.07 191.2,-17.95 192.18,-11.01"/>
</a>
</g>
</g>
<!-- Node6 -->
<g id="Node000006" class="node">
<title>Node6</title>
<g id="a_Node000006"><a xlink:title=" ">
<polygon fill="#e0e0e0" stroke="#999999" points="43,-19.25 0,-19.25 0,0 43,0 43,-19.25"/>
<text text-anchor="middle" x="21.5" y="-5.75" font-family="Helvetica,sans-Serif" font-size="10.00">vector</text>
</a>
</g>
</g>
<!-- Node2&#45;&gt;Node6 -->
<g id="edge5_Node000002_Node000006" class="edge">
<title>Node2&#45;&gt;Node6</title>
<g id="a_edge5_Node000002_Node000006"><a xlink:title=" ">
<path fill="none" stroke="#63b8ff" d="M273.97,-119.17C211.14,-118.71 47.04,-113.7 13.5,-74.5 3.17,-62.43 6.78,-44.06 12.04,-30.11"/>
<polygon fill="#63b8ff" stroke="#63b8ff" points="15.19,-31.63 15.96,-21.07 8.77,-28.85 15.19,-31.63"/>
</a>
</g>
</g>
<!-- Node7 -->
<g id="Node000007" class="node">
<title>Node7</title>
<g id="a_Node000007"><a xlink:href="_block_type_8h_source.html" target="_top" xlink:title=" ">
<polygon fill="white" stroke="#666666" points="92.12,-74.5 22.88,-74.5 22.88,-55.25 92.12,-55.25 92.12,-74.5"/>
<text text-anchor="middle" x="57.5" y="-61" font-family="Helvetica,sans-Serif" font-size="10.00">BlockType.h</text>
</a>
</g>
</g>
<!-- Node2&#45;&gt;Node7 -->
<g id="edge6_Node000002_Node000007" class="edge">
<title>Node2&#45;&gt;Node7</title>
<g id="a_edge6_Node000002_Node000007"><a xlink:title=" ">
<path fill="none" stroke="#63b8ff" d="M274.07,-113.73C234.13,-104.9 154.23,-87.25 103.44,-76.03"/>
<polygon fill="#63b8ff" stroke="#63b8ff" points="104.45,-72.66 93.93,-73.92 102.94,-79.5 104.45,-72.66"/>
</a>
</g>
</g>
<!-- Node9 -->
<g id="Node000009" class="node">
<title>Node9</title>
<g id="a_Node000009"><a xlink:href="_d_o_f_handler_8h.html" target="_top" xlink:title="model::DOFHandler source file">
<polygon fill="white" stroke="#666666" points="187.25,-74.5 109.75,-74.5 109.75,-55.25 187.25,-55.25 187.25,-74.5"/>
<text text-anchor="middle" x="148.5" y="-61" font-family="Helvetica,sans-Serif" font-size="10.00">DOFHandler.h</text>
</a>
</g>
</g>
<!-- Node2&#45;&gt;Node9 -->
<g id="edge8_Node000002_Node000009" class="edge">
<title>Node2&#45;&gt;Node9</title>
<g id="a_edge8_Node000002_Node000009"><a xlink:title=" ">
<path fill="none" stroke="#63b8ff" d="M274.07,-110.45C249.92,-101.88 212.67,-88.66 185.01,-78.84"/>
<polygon fill="#63b8ff" stroke="#63b8ff" points="186.2,-75.54 175.61,-75.5 183.86,-82.14 186.2,-75.54"/>
</a>
</g>
</g>
<!-- Node2&#45;&gt;Node10 -->
<g id="edge12_Node000002_Node000010" class="edge">
<title>Node2&#45;&gt;Node10</title>
<g id="a_edge12_Node000002_Node000010"><a xlink:title=" ">
<path fill="none" stroke="#63b8ff" d="M318.18,-110.09C336.34,-101.75 363.58,-89.25 384.47,-79.66"/>
<polygon fill="#63b8ff" stroke="#63b8ff" points="385.72,-82.94 393.35,-75.58 382.8,-76.58 385.72,-82.94"/>
</a>
</g>
</g>
<!-- Node8 -->
<g id="Node000008" class="node">
<title>Node8</title>
<g id="a_Node000008"><a xlink:title=" ">
<polygon fill="#e0e0e0" stroke="#999999" points="102.5,-19.25 62.5,-19.25 62.5,0 102.5,0 102.5,-19.25"/>
<text text-anchor="middle" x="82.5" y="-5.75" font-family="Helvetica,sans-Serif" font-size="10.00">string</text>
</a>
</g>
</g>
<!-- Node7&#45;&gt;Node8 -->
<g id="edge7_Node000007_Node000008" class="edge">
<title>Node7&#45;&gt;Node8</title>
<g id="a_edge7_Node000007_Node000008"><a xlink:title=" ">
<path fill="none" stroke="#63b8ff" d="M61.63,-55.08C64.83,-48.26 69.39,-38.56 73.43,-29.95"/>
<polygon fill="#63b8ff" stroke="#63b8ff" points="76.56,-31.52 77.64,-20.98 70.22,-28.54 76.56,-31.52"/>
</a>
</g>
</g>
<!-- Node9&#45;&gt;Node5 -->
<g id="edge9_Node000009_Node000005" class="edge">
<title>Node9&#45;&gt;Node5</title>
<g id="a_edge9_Node000009_Node000005"><a xlink:title=" ">
<path fill="none" stroke="#63b8ff" d="M150.81,-55.08C152.56,-48.42 155.04,-38.99 157.27,-30.53"/>
<polygon fill="#63b8ff" stroke="#63b8ff" points="160.6,-31.63 159.75,-21.07 153.83,-29.85 160.6,-31.63"/>
</a>
</g>
</g>
<!-- Node9&#45;&gt;Node6 -->
<g id="edge11_Node000009_Node000006" class="edge">
<title>Node9&#45;&gt;Node6</title>
<g id="a_edge11_Node000009_Node000006"><a xlink:title=" ">
<path fill="none" stroke="#63b8ff" d="M126.96,-54.84C106.89,-46.43 76.7,-33.77 53.75,-24.15"/>
<polygon fill="#63b8ff" stroke="#63b8ff" points="55.12,-20.93 44.55,-20.29 52.41,-27.38 55.12,-20.93"/>
</a>
</g>
</g>
<!-- Node9&#45;&gt;Node8 -->
<g id="edge10_Node000009_Node000008" class="edge">
<title>Node9&#45;&gt;Node8</title>
<g id="a_edge10_Node000009_Node000008"><a xlink:title=" ">
<path fill="none" stroke="#63b8ff" d="M137.3,-54.84C127.76,-47.15 113.83,-35.9 102.39,-26.68"/>
<polygon fill="#63b8ff" stroke="#63b8ff" points="104.69,-24.03 94.71,-20.48 100.29,-29.48 104.69,-24.03"/>
</a>
</g>
</g>
<!-- Node11 -->
<g id="Node000011" class="node">
<title>Node11</title>
<g id="a_Node000011"><a xlink:title=" ">
<polygon fill="#e0e0e0" stroke="#999999" points="566.38,-19.25 492.62,-19.25 492.62,0 566.38,0 566.38,-19.25"/>
<text text-anchor="middle" x="529.5" y="-5.75" font-family="Helvetica,sans-Serif" font-size="10.00">Eigen/Sparse</text>
</a>
</g>
</g>
<!-- Node10&#45;&gt;Node11 -->
<g id="edge13_Node000010_Node000011" class="edge">
<title>Node10&#45;&gt;Node11</title>
<g id="a_edge13_Node000010_Node000011"><a xlink:title=" ">
<path fill="none" stroke="#63b8ff" d="M434.01,-54.84C452.02,-46.5 479.02,-34 499.73,-24.41"/>
<polygon fill="#63b8ff" stroke="#63b8ff" points="500.92,-27.72 508.52,-20.34 497.98,-21.36 500.92,-27.72"/>
</a>
</g>
</g>
<!-- Node12 -->
<g id="Node000012" class="node">
<title>Node12</title>
<g id="a_Node000012"><a xlink:title=" ">
<polygon fill="#e0e0e0" stroke="#999999" points="335.12,-19.25 247.88,-19.25 247.88,0 335.12,0 335.12,-19.25"/>
<text text-anchor="middle" x="291.5" y="-5.75" font-family="Helvetica,sans-Serif" font-size="10.00">Eigen/SparseLU</text>
</a>
</g>
</g>
<!-- Node10&#45;&gt;Node12 -->
<g id="edge14_Node000010_Node000012" class="edge">
<title>Node10&#45;&gt;Node12</title>
<g id="a_edge14_Node000010_Node000012"><a xlink:title=" ">
<path fill="none" stroke="#63b8ff" d="M393.63,-54.84C374.2,-46.43 344.96,-33.77 322.74,-24.15"/>
<polygon fill="#63b8ff" stroke="#63b8ff" points="324.42,-21.06 313.86,-20.3 321.64,-27.49 324.42,-21.06"/>
</a>
</g>
</g>
<!-- Node13 -->
<g id="Node000013" class="node">
<title>Node13</title>
<g id="a_Node000013"><a xlink:title=" ">
<polygon fill="#e0e0e0" stroke="#999999" points="406.25,-19.25 352.75,-19.25 352.75,0 406.25,0 406.25,-19.25"/>
<text text-anchor="middle" x="379.5" y="-5.75" font-family="Helvetica,sans-Serif" font-size="10.00">iostream</text>
</a>
</g>
</g>
<!-- Node10&#45;&gt;Node13 -->
<g id="edge15_Node000010_Node000013" class="edge">
<title>Node10&#45;&gt;Node13</title>
<g id="a_edge15_Node000010_Node000013"><a xlink:title=" ">
<path fill="none" stroke="#63b8ff" d="M408.72,-55.08C404.09,-48.03 397.43,-37.9 391.63,-29.08"/>
<polygon fill="#63b8ff" stroke="#63b8ff" points="394.65,-27.31 386.24,-20.87 388.8,-31.15 394.65,-27.31"/>
</a>
</g>
</g>
<!-- Node14 -->
<g id="Node000014" class="node">
<title>Node14</title>
<g id="a_Node000014"><a xlink:title=" ">
<polygon fill="#e0e0e0" stroke="#999999" points="474.75,-19.25 424.25,-19.25 424.25,0 474.75,0 474.75,-19.25"/>
<text text-anchor="middle" x="449.5" y="-5.75" font-family="Helvetica,sans-Serif" font-size="10.00">memory</text>
</a>
</g>
</g>
<!-- Node10&#45;&gt;Node14 -->
<g id="edge16_Node000010_Node000014" class="edge">
<title>Node10&#45;&gt;Node14</title>
<g id="a_edge16_Node000010_Node000014"><a xlink:title=" ">
<path fill="none" stroke="#63b8ff" d="M420.28,-55.08C424.91,-48.03 431.57,-37.9 437.37,-29.08"/>
<polygon fill="#63b8ff" stroke="#63b8ff" points="440.2,-31.15 442.76,-20.87 434.35,-27.31 440.2,-31.15"/>
</a>
</g>
</g>
<!-- Node15&#45;&gt;Node2 -->
<g id="edge19_Node000015_Node000002" class="edge">
<title>Node15&#45;&gt;Node2</title>
<g id="a_edge19_Node000015_Node000002"><a xlink:title=" ">
<path fill="none" stroke="#63b8ff" d="M397.31,-165.34C378.59,-156.97 350.48,-144.38 329.02,-134.78"/>
<polygon fill="#63b8ff" stroke="#63b8ff" points="330.72,-131.71 320.17,-130.82 327.87,-138.1 330.72,-131.71"/>
</a>
</g>
</g>
<!-- Node15&#45;&gt;Node10 -->
<g id="edge20_Node000015_Node000010" class="edge">
<title>Node15&#45;&gt;Node10</title>
<g id="a_edge20_Node000015_Node000010"><a xlink:title=" ">
<path fill="none" stroke="#63b8ff" d="M417.25,-165.5C416.78,-148.25 415.72,-109.83 415.06,-86.06"/>
<polygon fill="#63b8ff" stroke="#63b8ff" points="418.57,-86.29 414.79,-76.39 411.57,-86.48 418.57,-86.29"/>
</a>
</g>
</g>
<!-- Node16 -->
<g id="Node000016" class="node">
<title>Node16</title>
<g id="a_Node000016"><a xlink:title=" ">
<polygon fill="#e0e0e0" stroke="#999999" points="488.12,-129.75 442.88,-129.75 442.88,-110.5 488.12,-110.5 488.12,-129.75"/>
<text text-anchor="middle" x="465.5" y="-116.25" font-family="Helvetica,sans-Serif" font-size="10.00">math.h</text>
</a>
</g>
</g>
<!-- Node15&#45;&gt;Node16 -->
<g id="edge18_Node000015_Node000016" class="edge">
<title>Node15&#45;&gt;Node16</title>
<g id="a_edge18_Node000015_Node000016"><a xlink:title=" ">
<path fill="none" stroke="#63b8ff" d="M425.43,-165.58C432.06,-158.23 441.72,-147.51 449.89,-138.44"/>
<polygon fill="#63b8ff" stroke="#63b8ff" points="452.29,-141 456.39,-131.23 447.09,-136.32 452.29,-141"/>
</a>
</g>
</g>
</g>
</svg>
