<?xml version="1.0" encoding="UTF-8" standalone="no"?>
<!DOCTYPE svg PUBLIC "-//W3C//DTD SVG 1.1//EN"
 "http://www.w3.org/Graphics/SVG/1.1/DTD/svg11.dtd">
<!-- Generated by graphviz version 9.0.0 (20230911.1827)
 -->
<!-- Title: model/Block.h Pages: 1 -->
<svg width="834pt" height="193pt"
 viewBox="0.00 0.00 834.25 193.00" xmlns="http://www.w3.org/2000/svg" xmlns:xlink="http://www.w3.org/1999/xlink">
<g id="graph0" class="graph" transform="scale(1 1) rotate(0) translate(4 189)">
<title>model/Block.h</title>
<!-- Node1 -->
<g id="Node000001" class="node">
<title>Node1</title>
<g id="a_Node000001"><a xlink:title="model::Block source file">
<polygon fill="#999999" stroke="#666666" points="270.38,-185 192.88,-185 192.88,-165.75 270.38,-165.75 270.38,-185"/>
<text text-anchor="middle" x="231.62" y="-171.5" font-family="Helvetica,sans-Serif" font-size="10.00">model/Block.h</text>
</a>
</g>
</g>
<!-- Node2 -->
<g id="Node000002" class="node">
<title>Node2</title>
<g id="a_Node000002"><a xlink:title=" ">
<polygon fill="#e0e0e0" stroke="#999999" points="63.25,-129.75 0,-129.75 0,-110.5 63.25,-110.5 63.25,-129.75"/>
<text text-anchor="middle" x="31.62" y="-116.25" font-family="Helvetica,sans-Serif" font-size="10.00">Eigen/Core</text>
</a>
</g>
</g>
<!-- Node1&#45;&gt;Node2 -->
<g id="edge1_Node000001_Node000002" class="edge">
<title>Node1&#45;&gt;Node2</title>
<g id="a_edge1_Node000001_Node000002"><a xlink:title=" ">
<path fill="none" stroke="#63b8ff" d="M197.7,-165.34C163.76,-156.31 111.45,-142.38 74.63,-132.57"/>
<polygon fill="#63b8ff" stroke="#63b8ff" points="75.76,-129.25 65.19,-130.06 73.96,-136.02 75.76,-129.25"/>
</a>
</g>
</g>
<!-- Node3 -->
<g id="Node000003" class="node">
<title>Node3</title>
<g id="a_Node000003"><a xlink:title=" ">
<polygon fill="#e0e0e0" stroke="#999999" points="110.03,-129.75 81.22,-129.75 81.22,-110.5 110.03,-110.5 110.03,-129.75"/>
<text text-anchor="middle" x="95.62" y="-116.25" font-family="Helvetica,sans-Serif" font-size="10.00">list</text>
</a>
</g>
</g>
<!-- Node1&#45;&gt;Node3 -->
<g id="edge2_Node000001_Node000003" class="edge">
<title>Node1&#45;&gt;Node3</title>
<g id="a_edge2_Node000001_Node000003"><a xlink:title=" ">
<path fill="none" stroke="#63b8ff" d="M208.55,-165.34C184.24,-155.82 146.05,-140.87 120.92,-131.03"/>
<polygon fill="#63b8ff" stroke="#63b8ff" points="122.39,-127.85 111.81,-127.46 119.84,-134.37 122.39,-127.85"/>
</a>
</g>
</g>
<!-- Node4 -->
<g id="Node000004" class="node">
<title>Node4</title>
<g id="a_Node000004"><a xlink:title=" ">
<polygon fill="#e0e0e0" stroke="#999999" points="168,-19.25 133.25,-19.25 133.25,0 168,0 168,-19.25"/>
<text text-anchor="middle" x="150.62" y="-5.75" font-family="Helvetica,sans-Serif" font-size="10.00">map</text>
</a>
</g>
</g>
<!-- Node1&#45;&gt;Node4 -->
<g id="edge3_Node000001_Node000004" class="edge">
<title>Node1&#45;&gt;Node4</title>
<g id="a_edge3_Node000001_Node000004"><a xlink:title=" ">
<path fill="none" stroke="#63b8ff" d="M203.52,-165.32C186.86,-158.38 167.02,-147.01 156.62,-129.75 138.16,-99.1 141.89,-55.55 146.26,-30.48"/>
<polygon fill="#63b8ff" stroke="#63b8ff" points="149.63,-31.48 148.14,-20.99 142.77,-30.12 149.63,-31.48"/>
</a>
</g>
</g>
<!-- Node5 -->
<g id="Node000005" class="node">
<title>Node5</title>
<g id="a_Node000005"><a xlink:title=" ">
<polygon fill="#e0e0e0" stroke="#999999" points="394.12,-19.25 351.12,-19.25 351.12,0 394.12,0 394.12,-19.25"/>
<text text-anchor="middle" x="372.62" y="-5.75" font-family="Helvetica,sans-Serif" font-size="10.00">vector</text>
</a>
</g>
</g>
<!-- Node1&#45;&gt;Node5 -->
<g id="edge4_Node000001_Node000005" class="edge">
<title>Node1&#45;&gt;Node5</title>
<g id="a_edge4_Node000001_Node000005"><a xlink:title=" ">
<path fill="none" stroke="#63b8ff" d="M270.8,-171C325.33,-163.88 421.69,-141.91 459.62,-74.5 474.52,-48.03 435.67,-29.47 405.17,-19.42"/>
<polygon fill="#63b8ff" stroke="#63b8ff" points="406.46,-16.15 395.87,-16.55 404.39,-22.84 406.46,-16.15"/>
</a>
</g>
</g>
<!-- Node6 -->
<g id="Node000006" class="node">
<title>Node6</title>
<g id="a_Node000006"><a xlink:href="_block_type_8h.html" target="_top" xlink:title="Specifies the types of blocks and their parameters.">
<polygon fill="white" stroke="#666666" points="235.25,-129.75 166,-129.75 166,-110.5 235.25,-110.5 235.25,-129.75"/>
<text text-anchor="middle" x="200.62" y="-116.25" font-family="Helvetica,sans-Serif" font-size="10.00">BlockType.h</text>
</a>
</g>
</g>
<!-- Node1&#45;&gt;Node6 -->
<g id="edge5_Node000001_Node000006" class="edge">
<title>Node1&#45;&gt;Node6</title>
<g id="a_edge5_Node000001_Node000006"><a xlink:title=" ">
<path fill="none" stroke="#63b8ff" d="M226.51,-165.58C222.45,-158.61 216.63,-148.62 211.54,-139.87"/>
<polygon fill="#63b8ff" stroke="#63b8ff" points="214.67,-138.3 206.62,-131.42 208.62,-141.82 214.67,-138.3"/>
</a>
</g>
</g>
<!-- Node8 -->
<g id="Node000008" class="node">
<title>Node8</title>
<g id="a_Node000008"><a xlink:href="_d_o_f_handler_8h.html" target="_top" xlink:title="model::DOFHandler source file">
<polygon fill="white" stroke="#666666" points="281.38,-74.5 203.88,-74.5 203.88,-55.25 281.38,-55.25 281.38,-74.5"/>
<text text-anchor="middle" x="242.62" y="-61" font-family="Helvetica,sans-Serif" font-size="10.00">DOFHandler.h</text>
</a>
</g>
</g>
<!-- Node1&#45;&gt;Node8 -->
<g id="edge7_Node000001_Node000008" class="edge">
<title>Node1&#45;&gt;Node8</title>
<g id="a_edge7_Node000001_Node000008"><a xlink:title=" ">
<path fill="none" stroke="#63b8ff" d="M235.09,-165.31C238.29,-156.41 242.82,-142.37 244.62,-129.75 246.72,-115.09 246.08,-98.35 245,-85.68"/>
<polygon fill="#63b8ff" stroke="#63b8ff" points="248.52,-85.7 244,-76.11 241.56,-86.42 248.52,-85.7"/>
</a>
</g>
</g>
<!-- Node9 -->
<g id="Node000009" class="node">
<title>Node9</title>
<g id="a_Node000009"><a xlink:href="_parameter_8h.html" target="_top" xlink:title="model::Parameter source file">
<polygon fill="white" stroke="#666666" points="359.88,-129.75 291.38,-129.75 291.38,-110.5 359.88,-110.5 359.88,-129.75"/>
<text text-anchor="middle" x="325.62" y="-116.25" font-family="Helvetica,sans-Serif" font-size="10.00">Parameter.h</text>
</a>
</g>
</g>
<!-- Node1&#45;&gt;Node9 -->
<g id="edge11_Node000001_Node000009" class="edge">
<title>Node1&#45;&gt;Node9</title>
<g id="a_edge11_Node000001_Node000009"><a xlink:title=" ">
<path fill="none" stroke="#63b8ff" d="M247.57,-165.34C261.89,-157.23 283.16,-145.18 299.88,-135.71"/>
<polygon fill="#63b8ff" stroke="#63b8ff" points="301.31,-138.92 308.28,-130.95 297.86,-132.83 301.31,-138.92"/>
</a>
</g>
</g>
<!-- Node12 -->
<g id="Node000012" class="node">
<title>Node12</title>
<g id="a_Node000012"><a xlink:href="_sparse_system_8h.html" target="_top" xlink:title="SparseSystem source file.">
<polygon fill="white" stroke="#666666" points="647.25,-129.75 560,-129.75 560,-110.5 647.25,-110.5 647.25,-129.75"/>
<text text-anchor="middle" x="603.62" y="-116.25" font-family="Helvetica,sans-Serif" font-size="10.00">SparseSystem.h</text>
</a>
</g>
</g>
<!-- Node1&#45;&gt;Node12 -->
<g id="edge16_Node000001_Node000012" class="edge">
<title>Node1&#45;&gt;Node12</title>
<g id="a_edge16_Node000001_Node000012"><a xlink:title=" ">
<path fill="none" stroke="#63b8ff" d="M270.73,-168.78C337.18,-159.27 472.3,-139.92 548.38,-129.03"/>
<polygon fill="#63b8ff" stroke="#63b8ff" points="548.71,-132.52 558.11,-127.64 547.72,-125.59 548.71,-132.52"/>
</a>
</g>
</g>
<!-- Node7 -->
<g id="Node000007" class="node">
<title>Node7</title>
<g id="a_Node000007"><a xlink:title=" ">
<polygon fill="#e0e0e0" stroke="#999999" points="237.62,-19.25 197.62,-19.25 197.62,0 237.62,0 237.62,-19.25"/>
<text text-anchor="middle" x="217.62" y="-5.75" font-family="Helvetica,sans-Serif" font-size="10.00">string</text>
</a>
</g>
</g>
<!-- Node6&#45;&gt;Node7 -->
<g id="edge6_Node000006_Node000007" class="edge">
<title>Node6&#45;&gt;Node7</title>
<g id="a_edge6_Node000006_Node000007"><a xlink:title=" ">
<path fill="none" stroke="#63b8ff" d="M197.99,-110.32C194.68,-97.87 189.95,-74.52 194.62,-55.25 196.8,-46.27 201.12,-37.07 205.44,-29.38"/>
<polygon fill="#63b8ff" stroke="#63b8ff" points="208.34,-31.35 210.52,-20.98 202.35,-27.72 208.34,-31.35"/>
</a>
</g>
</g>
<!-- Node8&#45;&gt;Node4 -->
<g id="edge8_Node000008_Node000004" class="edge">
<title>Node8&#45;&gt;Node4</title>
<g id="a_edge8_Node000008_Node000004"><a xlink:title=" ">
<path fill="none" stroke="#63b8ff" d="M227.02,-54.84C213.01,-46.73 192.19,-34.68 175.82,-25.21"/>
<polygon fill="#63b8ff" stroke="#63b8ff" points="178.03,-22.44 167.62,-20.46 174.52,-28.5 178.03,-22.44"/>
</a>
</g>
</g>
<!-- Node8&#45;&gt;Node5 -->
<g id="edge10_Node000008_Node000005" class="edge">
<title>Node8&#45;&gt;Node5</title>
<g id="a_edge10_Node000008_Node000005"><a xlink:title=" ">
<path fill="none" stroke="#63b8ff" d="M264.68,-54.84C285.44,-46.34 316.78,-33.5 340.36,-23.84"/>
<polygon fill="#63b8ff" stroke="#63b8ff" points="341.57,-27.13 349.5,-20.1 338.92,-20.65 341.57,-27.13"/>
</a>
</g>
</g>
<!-- Node8&#45;&gt;Node7 -->
<g id="edge9_Node000008_Node000007" class="edge">
<title>Node8&#45;&gt;Node7</title>
<g id="a_edge9_Node000008_Node000007"><a xlink:title=" ">
<path fill="none" stroke="#63b8ff" d="M238.5,-55.08C235.3,-48.26 230.74,-38.56 226.7,-29.95"/>
<polygon fill="#63b8ff" stroke="#63b8ff" points="229.9,-28.54 222.49,-20.98 223.57,-31.52 229.9,-28.54"/>
</a>
</g>
</g>
<!-- Node9&#45;&gt;Node5 -->
<g id="edge14_Node000009_Node000005" class="edge">
<title>Node9&#45;&gt;Node5</title>
<g id="a_edge14_Node000009_Node000005"><a xlink:title=" ">
<path fill="none" stroke="#63b8ff" d="M332.18,-110.3C338.4,-101.58 347.67,-87.67 353.62,-74.5 360.06,-60.28 364.99,-43.31 368.21,-30.44"/>
<polygon fill="#63b8ff" stroke="#63b8ff" points="371.54,-31.58 370.42,-21.05 364.72,-29.98 371.54,-31.58"/>
</a>
</g>
</g>
<!-- Node9&#45;&gt;Node8 -->
<g id="edge15_Node000009_Node000008" class="edge">
<title>Node9&#45;&gt;Node8</title>
<g id="a_edge15_Node000009_Node000008"><a xlink:title=" ">
<path fill="none" stroke="#63b8ff" d="M311.55,-110.09C299.14,-102.14 280.83,-90.39 266.2,-81"/>
<polygon fill="#63b8ff" stroke="#63b8ff" points="268.35,-78.22 258.05,-75.77 264.57,-84.12 268.35,-78.22"/>
</a>
</g>
</g>
<!-- Node10 -->
<g id="Node000010" class="node">
<title>Node10</title>
<g id="a_Node000010"><a xlink:title=" ">
<polygon fill="#e0e0e0" stroke="#999999" points="344.25,-74.5 299,-74.5 299,-55.25 344.25,-55.25 344.25,-74.5"/>
<text text-anchor="middle" x="321.62" y="-61" font-family="Helvetica,sans-Serif" font-size="10.00">math.h</text>
</a>
</g>
</g>
<!-- Node9&#45;&gt;Node10 -->
<g id="edge12_Node000009_Node000010" class="edge">
<title>Node9&#45;&gt;Node10</title>
<g id="a_edge12_Node000009_Node000010"><a xlink:title=" ">
<path fill="none" stroke="#63b8ff" d="M324.96,-110.33C324.47,-103.74 323.77,-94.46 323.14,-86.07"/>
<polygon fill="#63b8ff" stroke="#63b8ff" points="326.65,-86.08 322.41,-76.37 319.67,-86.6 326.65,-86.08"/>
</a>
</g>
</g>
<!-- Node11 -->
<g id="Node000011" class="node">
<title>Node11</title>
<g id="a_Node000011"><a xlink:title=" ">
<polygon fill="#e0e0e0" stroke="#999999" points="450.88,-74.5 400.38,-74.5 400.38,-55.25 450.88,-55.25 450.88,-74.5"/>
<text text-anchor="middle" x="425.62" y="-61" font-family="Helvetica,sans-Serif" font-size="10.00">numeric</text>
</a>
</g>
</g>
<!-- Node9&#45;&gt;Node11 -->
<g id="edge13_Node000009_Node000011" class="edge">
<title>Node9&#45;&gt;Node11</title>
<g id="a_edge13_Node000009_Node000011"><a xlink:title=" ">
<path fill="none" stroke="#63b8ff" d="M342.59,-110.09C357.89,-101.94 380.66,-89.82 398.49,-80.33"/>
<polygon fill="#63b8ff" stroke="#63b8ff" points="400.06,-83.45 407.24,-75.66 396.77,-77.27 400.06,-83.45"/>
</a>
</g>
</g>
<!-- Node13 -->
<g id="Node000013" class="node">
<title>Node13</title>
<g id="a_Node000013"><a xlink:title=" ">
<polygon fill="#e0e0e0" stroke="#999999" points="720.5,-74.5 646.75,-74.5 646.75,-55.25 720.5,-55.25 720.5,-74.5"/>
<text text-anchor="middle" x="683.62" y="-61" font-family="Helvetica,sans-Serif" font-size="10.00">Eigen/Sparse</text>
</a>
</g>
</g>
<!-- Node12&#45;&gt;Node13 -->
<g id="edge17_Node000012_Node000013" class="edge">
<title>Node12&#45;&gt;Node13</title>
<g id="a_edge17_Node000012_Node000013"><a xlink:title=" ">
<path fill="none" stroke="#63b8ff" d="M617.2,-110.09C629.03,-102.21 646.46,-90.61 660.5,-81.27"/>
<polygon fill="#63b8ff" stroke="#63b8ff" points="662.34,-84.25 668.73,-75.79 658.46,-78.42 662.34,-84.25"/>
</a>
</g>
</g>
<!-- Node14 -->
<g id="Node000014" class="node">
<title>Node14</title>
<g id="a_Node000014"><a xlink:title=" ">
<polygon fill="#e0e0e0" stroke="#999999" points="826.25,-74.5 739,-74.5 739,-55.25 826.25,-55.25 826.25,-74.5"/>
<text text-anchor="middle" x="782.62" y="-61" font-family="Helvetica,sans-Serif" font-size="10.00">Eigen/SparseLU</text>
</a>
</g>
</g>
<!-- Node12&#45;&gt;Node14 -->
<g id="edge18_Node000012_Node000014" class="edge">
<title>Node12&#45;&gt;Node14</title>
<g id="a_edge18_Node000012_Node000014"><a xlink:title=" ">
<path fill="none" stroke="#63b8ff" d="M633.99,-110.09C663.43,-101.33 708.33,-87.98 741.08,-78.23"/>
<polygon fill="#63b8ff" stroke="#63b8ff" points="742.07,-81.59 750.66,-75.38 740.08,-74.88 742.07,-81.59"/>
</a>
</g>
</g>
<!-- Node15 -->
<g id="Node000015" class="node">
<title>Node15</title>
<g id="a_Node000015"><a xlink:title=" ">
<polygon fill="#e0e0e0" stroke="#999999" points="560.38,-74.5 506.88,-74.5 506.88,-55.25 560.38,-55.25 560.38,-74.5"/>
<text text-anchor="middle" x="533.62" y="-61" font-family="Helvetica,sans-Serif" font-size="10.00">iostream</text>
</a>
</g>
</g>
<!-- Node12&#45;&gt;Node15 -->
<g id="edge19_Node000012_Node000015" class="edge">
<title>Node12&#45;&gt;Node15</title>
<g id="a_edge19_Node000012_Node000015"><a xlink:title=" ">
<path fill="none" stroke="#63b8ff" d="M591.75,-110.09C581.53,-102.32 566.55,-90.92 554.36,-81.65"/>
<polygon fill="#63b8ff" stroke="#63b8ff" points="556.61,-78.96 546.53,-75.69 552.37,-84.53 556.61,-78.96"/>
</a>
</g>
</g>
<!-- Node16 -->
<g id="Node000016" class="node">
<title>Node16</title>
<g id="a_Node000016"><a xlink:title=" ">
<polygon fill="#e0e0e0" stroke="#999999" points="628.88,-74.5 578.38,-74.5 578.38,-55.25 628.88,-55.25 628.88,-74.5"/>
<text text-anchor="middle" x="603.62" y="-61" font-family="Helvetica,sans-Serif" font-size="10.00">memory</text>
</a>
</g>
</g>
<!-- Node12&#45;&gt;Node16 -->
<g id="edge20_Node000012_Node000016" class="edge">
<title>Node12&#45;&gt;Node16</title>
<g id="a_edge20_Node000012_Node000016"><a xlink:title=" ">
<path fill="none" stroke="#63b8ff" d="M603.62,-110.33C603.62,-103.82 603.62,-94.67 603.62,-86.37"/>
<polygon fill="#63b8ff" stroke="#63b8ff" points="607.13,-86.37 603.63,-76.37 600.13,-86.37 607.13,-86.37"/>
</a>
</g>
</g>
</g>
</svg>
