<?xml version="1.0" encoding="UTF-8" standalone="no"?>
<!DOCTYPE svg PUBLIC "-//W3C//DTD SVG 1.1//EN"
 "http://www.w3.org/Graphics/SVG/1.1/DTD/svg11.dtd">
<!-- Generated by graphviz version 9.0.0 (20230911.1827)
 -->
<!-- Title: model/BloodVesselJunction.h Pages: 1 -->
<svg width="534pt" height="248pt"
 viewBox="0.00 0.00 534.38 248.25" xmlns="http://www.w3.org/2000/svg" xmlns:xlink="http://www.w3.org/1999/xlink">
<g id="graph0" class="graph" transform="scale(1 1) rotate(0) translate(4 244.25)">
<title>model/BloodVesselJunction.h</title>
<!-- Node1 -->
<g id="Node000001" class="node">
<title>Node1</title>
<g id="a_Node000001"><a xlink:title="model::BloodVesselJunction source file">
<polygon fill="#999999" stroke="#666666" points="393.62,-240.25 249.38,-240.25 249.38,-221 393.62,-221 393.62,-240.25"/>
<text text-anchor="middle" x="321.5" y="-226.75" font-family="Helvetica,sans-Serif" font-size="10.00">model/BloodVesselJunction.h</text>
</a>
</g>
</g>
<!-- Node2 -->
<g id="Node000002" class="node">
<title>Node2</title>
<g id="a_Node000002"><a xlink:href="_block_8h.html" target="_top" xlink:title="model::Block source file">
<polygon fill="white" stroke="#666666" points="260.62,-129.75 212.38,-129.75 212.38,-110.5 260.62,-110.5 260.62,-129.75"/>
<text text-anchor="middle" x="236.5" y="-116.25" font-family="Helvetica,sans-Serif" font-size="10.00">Block.h</text>
</a>
</g>
</g>
<!-- Node1&#45;&gt;Node2 -->
<g id="edge1_Node000001_Node000002" class="edge">
<title>Node1&#45;&gt;Node2</title>
<g id="a_edge1_Node000001_Node000002"><a xlink:title=" ">
<path fill="none" stroke="#63b8ff" d="M310.6,-220.8C300.51,-212.29 285.45,-198.71 274.5,-185 263.18,-170.82 252.83,-152.95 245.8,-139.71"/>
<polygon fill="#63b8ff" stroke="#63b8ff" points="249.11,-138.5 241.42,-131.22 242.89,-141.71 249.11,-138.5"/>
</a>
</g>
</g>
<!-- Node9 -->
<g id="Node000009" class="node">
<title>Node9</title>
<g id="a_Node000009"><a xlink:href="_sparse_system_8h.html" target="_top" xlink:title="SparseSystem source file.">
<polygon fill="white" stroke="#666666" points="394.12,-74.5 306.88,-74.5 306.88,-55.25 394.12,-55.25 394.12,-74.5"/>
<text text-anchor="middle" x="350.5" y="-61" font-family="Helvetica,sans-Serif" font-size="10.00">SparseSystem.h</text>
</a>
</g>
</g>
<!-- Node1&#45;&gt;Node9 -->
<g id="edge20_Node000001_Node000009" class="edge">
<title>Node1&#45;&gt;Node9</title>
<g id="a_edge20_Node000001_Node000009"><a xlink:title=" ">
<path fill="none" stroke="#63b8ff" d="M317.07,-220.54C311.6,-208.17 303.47,-185.32 307.5,-165.75 313.62,-136.07 328.97,-104.35 339.57,-84.81"/>
<polygon fill="#63b8ff" stroke="#63b8ff" points="342.59,-86.58 344.41,-76.15 336.48,-83.16 342.59,-86.58"/>
</a>
</g>
</g>
<!-- Node14 -->
<g id="Node000014" class="node">
<title>Node14</title>
<g id="a_Node000014"><a xlink:href="_block_type_8h_source.html" target="_top" xlink:title=" ">
<polygon fill="white" stroke="#666666" points="482.12,-185 412.88,-185 412.88,-165.75 482.12,-165.75 482.12,-185"/>
<text text-anchor="middle" x="447.5" y="-171.5" font-family="Helvetica,sans-Serif" font-size="10.00">BlockType.h</text>
</a>
</g>
</g>
<!-- Node1&#45;&gt;Node14 -->
<g id="edge15_Node000001_Node000014" class="edge">
<title>Node1&#45;&gt;Node14</title>
<g id="a_edge15_Node000001_Node000014"><a xlink:title=" ">
<path fill="none" stroke="#63b8ff" d="M342.87,-220.59C362.79,-212.18 392.74,-199.52 415.5,-189.9"/>
<polygon fill="#63b8ff" stroke="#63b8ff" points="416.78,-193.16 424.63,-186.04 414.05,-186.71 416.78,-193.16"/>
</a>
</g>
</g>
<!-- Node15 -->
<g id="Node000015" class="node">
<title>Node15</title>
<g id="a_Node000015"><a xlink:href="_blood_vessel_8h.html" target="_top" xlink:title="model::BloodVessel source file">
<polygon fill="white" stroke="#666666" points="394.62,-185 316.38,-185 316.38,-165.75 394.62,-165.75 394.62,-185"/>
<text text-anchor="middle" x="355.5" y="-171.5" font-family="Helvetica,sans-Serif" font-size="10.00">BloodVessel.h</text>
</a>
</g>
</g>
<!-- Node1&#45;&gt;Node15 -->
<g id="edge16_Node000001_Node000015" class="edge">
<title>Node1&#45;&gt;Node15</title>
<g id="a_edge16_Node000001_Node000015"><a xlink:title=" ">
<path fill="none" stroke="#63b8ff" d="M327.11,-220.83C331.62,-213.78 338.09,-203.65 343.71,-194.83"/>
<polygon fill="#63b8ff" stroke="#63b8ff" points="346.52,-196.95 348.95,-186.63 340.62,-193.18 346.52,-196.95"/>
</a>
</g>
</g>
<!-- Node3 -->
<g id="Node000003" class="node">
<title>Node3</title>
<g id="a_Node000003"><a xlink:title=" ">
<polygon fill="#e0e0e0" stroke="#999999" points="204.12,-74.5 140.88,-74.5 140.88,-55.25 204.12,-55.25 204.12,-74.5"/>
<text text-anchor="middle" x="172.5" y="-61" font-family="Helvetica,sans-Serif" font-size="10.00">Eigen/Core</text>
</a>
</g>
</g>
<!-- Node2&#45;&gt;Node3 -->
<g id="edge2_Node000002_Node000003" class="edge">
<title>Node2&#45;&gt;Node3</title>
<g id="a_edge2_Node000002_Node000003"><a xlink:title=" ">
<path fill="none" stroke="#63b8ff" d="M225.64,-110.09C216.39,-102.4 202.88,-91.15 191.79,-81.93"/>
<polygon fill="#63b8ff" stroke="#63b8ff" points="194.29,-79.45 184.36,-75.74 189.81,-84.83 194.29,-79.45"/>
</a>
</g>
</g>
<!-- Node4 -->
<g id="Node000004" class="node">
<title>Node4</title>
<g id="a_Node000004"><a xlink:title=" ">
<polygon fill="#e0e0e0" stroke="#999999" points="250.9,-74.5 222.1,-74.5 222.1,-55.25 250.9,-55.25 250.9,-74.5"/>
<text text-anchor="middle" x="236.5" y="-61" font-family="Helvetica,sans-Serif" font-size="10.00">list</text>
</a>
</g>
</g>
<!-- Node2&#45;&gt;Node4 -->
<g id="edge3_Node000002_Node000004" class="edge">
<title>Node2&#45;&gt;Node4</title>
<g id="a_edge3_Node000002_Node000004"><a xlink:title=" ">
<path fill="none" stroke="#63b8ff" d="M236.5,-110.33C236.5,-103.82 236.5,-94.67 236.5,-86.37"/>
<polygon fill="#63b8ff" stroke="#63b8ff" points="240,-86.37 236.5,-76.37 233,-86.37 240,-86.37"/>
</a>
</g>
</g>
<!-- Node5 -->
<g id="Node000005" class="node">
<title>Node5</title>
<g id="a_Node000005"><a xlink:title=" ">
<polygon fill="#e0e0e0" stroke="#999999" points="178.88,-19.25 144.12,-19.25 144.12,0 178.88,0 178.88,-19.25"/>
<text text-anchor="middle" x="161.5" y="-5.75" font-family="Helvetica,sans-Serif" font-size="10.00">map</text>
</a>
</g>
</g>
<!-- Node2&#45;&gt;Node5 -->
<g id="edge4_Node000002_Node000005" class="edge">
<title>Node2&#45;&gt;Node5</title>
<g id="a_edge4_Node000002_Node000005"><a xlink:title=" ">
<path fill="none" stroke="#63b8ff" d="M244.41,-110.3C254.95,-97.42 270.98,-73.09 259.5,-55.25 251.48,-42.79 215.81,-28.65 189.81,-19.69"/>
<polygon fill="#63b8ff" stroke="#63b8ff" points="191.05,-16.41 180.46,-16.55 188.83,-23.05 191.05,-16.41"/>
</a>
</g>
</g>
<!-- Node6 -->
<g id="Node000006" class="node">
<title>Node6</title>
<g id="a_Node000006"><a xlink:title=" ">
<polygon fill="#e0e0e0" stroke="#999999" points="43,-19.25 0,-19.25 0,0 43,0 43,-19.25"/>
<text text-anchor="middle" x="21.5" y="-5.75" font-family="Helvetica,sans-Serif" font-size="10.00">vector</text>
</a>
</g>
</g>
<!-- Node2&#45;&gt;Node6 -->
<g id="edge5_Node000002_Node000006" class="edge">
<title>Node2&#45;&gt;Node6</title>
<g id="a_edge5_Node000002_Node000006"><a xlink:title=" ">
<path fill="none" stroke="#63b8ff" d="M212.05,-116.89C164.3,-112.02 61.16,-98.89 36.5,-74.5 25.09,-63.22 21.7,-45.01 20.95,-30.91"/>
<polygon fill="#63b8ff" stroke="#63b8ff" points="24.45,-30.93 20.87,-20.96 17.45,-30.99 24.45,-30.93"/>
</a>
</g>
</g>
<!-- Node7 -->
<g id="Node000007" class="node">
<title>Node7</title>
<g id="a_Node000007"><a xlink:href="_d_o_f_handler_8h.html" target="_top" xlink:title="model::DOFHandler source file">
<polygon fill="white" stroke="#666666" points="123.25,-74.5 45.75,-74.5 45.75,-55.25 123.25,-55.25 123.25,-74.5"/>
<text text-anchor="middle" x="84.5" y="-61" font-family="Helvetica,sans-Serif" font-size="10.00">DOFHandler.h</text>
</a>
</g>
</g>
<!-- Node2&#45;&gt;Node7 -->
<g id="edge6_Node000002_Node000007" class="edge">
<title>Node2&#45;&gt;Node7</title>
<g id="a_edge6_Node000002_Node000007"><a xlink:title=" ">
<path fill="none" stroke="#63b8ff" d="M212.08,-110.57C187.48,-101.95 149.24,-88.55 121.03,-78.67"/>
<polygon fill="#63b8ff" stroke="#63b8ff" points="122.41,-75.45 111.82,-75.44 120.1,-82.05 122.41,-75.45"/>
</a>
</g>
</g>
<!-- Node2&#45;&gt;Node9 -->
<g id="edge10_Node000002_Node000009" class="edge">
<title>Node2&#45;&gt;Node9</title>
<g id="a_edge10_Node000002_Node000009"><a xlink:title=" ">
<path fill="none" stroke="#63b8ff" d="M255.84,-110.09C273.61,-101.79 300.22,-89.36 320.7,-79.79"/>
<polygon fill="#63b8ff" stroke="#63b8ff" points="322.12,-83 329.7,-75.59 319.15,-76.65 322.12,-83"/>
</a>
</g>
</g>
<!-- Node7&#45;&gt;Node5 -->
<g id="edge7_Node000007_Node000005" class="edge">
<title>Node7&#45;&gt;Node5</title>
<g id="a_edge7_Node000007_Node000005"><a xlink:title=" ">
<path fill="none" stroke="#63b8ff" d="M97.56,-54.84C108.96,-46.96 125.73,-35.36 139.24,-26.02"/>
<polygon fill="#63b8ff" stroke="#63b8ff" points="140.9,-29.13 147.13,-20.56 136.91,-23.37 140.9,-29.13"/>
</a>
</g>
</g>
<!-- Node7&#45;&gt;Node6 -->
<g id="edge9_Node000007_Node000006" class="edge">
<title>Node7&#45;&gt;Node6</title>
<g id="a_edge9_Node000007_Node000006"><a xlink:title=" ">
<path fill="none" stroke="#63b8ff" d="M73.81,-54.84C64.8,-47.22 51.67,-36.12 40.82,-26.95"/>
<polygon fill="#63b8ff" stroke="#63b8ff" points="43.08,-24.28 33.19,-20.5 38.56,-29.63 43.08,-24.28"/>
</a>
</g>
</g>
<!-- Node8 -->
<g id="Node000008" class="node">
<title>Node8</title>
<g id="a_Node000008"><a xlink:title=" ">
<polygon fill="#e0e0e0" stroke="#999999" points="104.5,-19.25 64.5,-19.25 64.5,0 104.5,0 104.5,-19.25"/>
<text text-anchor="middle" x="84.5" y="-5.75" font-family="Helvetica,sans-Serif" font-size="10.00">string</text>
</a>
</g>
</g>
<!-- Node7&#45;&gt;Node8 -->
<g id="edge8_Node000007_Node000008" class="edge">
<title>Node7&#45;&gt;Node8</title>
<g id="a_edge8_Node000007_Node000008"><a xlink:title=" ">
<path fill="none" stroke="#63b8ff" d="M84.5,-55.08C84.5,-48.57 84.5,-39.42 84.5,-31.12"/>
<polygon fill="#63b8ff" stroke="#63b8ff" points="88,-31.12 84.5,-21.12 81,-31.12 88,-31.12"/>
</a>
</g>
</g>
<!-- Node10 -->
<g id="Node000010" class="node">
<title>Node10</title>
<g id="a_Node000010"><a xlink:title=" ">
<polygon fill="#e0e0e0" stroke="#999999" points="526.38,-19.25 452.62,-19.25 452.62,0 526.38,0 526.38,-19.25"/>
<text text-anchor="middle" x="489.5" y="-5.75" font-family="Helvetica,sans-Serif" font-size="10.00">Eigen/Sparse</text>
</a>
</g>
</g>
<!-- Node9&#45;&gt;Node10 -->
<g id="edge11_Node000009_Node000010" class="edge">
<title>Node9&#45;&gt;Node10</title>
<g id="a_edge11_Node000009_Node000010"><a xlink:title=" ">
<path fill="none" stroke="#63b8ff" d="M374.08,-54.84C396.34,-46.31 429.99,-33.42 455.22,-23.76"/>
<polygon fill="#63b8ff" stroke="#63b8ff" points="456.31,-27.09 464.39,-20.24 453.8,-20.55 456.31,-27.09"/>
</a>
</g>
</g>
<!-- Node11 -->
<g id="Node000011" class="node">
<title>Node11</title>
<g id="a_Node000011"><a xlink:title=" ">
<polygon fill="#e0e0e0" stroke="#999999" points="295.12,-19.25 207.88,-19.25 207.88,0 295.12,0 295.12,-19.25"/>
<text text-anchor="middle" x="251.5" y="-5.75" font-family="Helvetica,sans-Serif" font-size="10.00">Eigen/SparseLU</text>
</a>
</g>
</g>
<!-- Node9&#45;&gt;Node11 -->
<g id="edge12_Node000009_Node000011" class="edge">
<title>Node9&#45;&gt;Node11</title>
<g id="a_edge12_Node000009_Node000011"><a xlink:title=" ">
<path fill="none" stroke="#63b8ff" d="M333.71,-54.84C318.49,-46.66 295.8,-34.46 278.12,-24.94"/>
<polygon fill="#63b8ff" stroke="#63b8ff" points="280.17,-22.07 269.71,-20.42 276.86,-28.24 280.17,-22.07"/>
</a>
</g>
</g>
<!-- Node12 -->
<g id="Node000012" class="node">
<title>Node12</title>
<g id="a_Node000012"><a xlink:title=" ">
<polygon fill="#e0e0e0" stroke="#999999" points="366.25,-19.25 312.75,-19.25 312.75,0 366.25,0 366.25,-19.25"/>
<text text-anchor="middle" x="339.5" y="-5.75" font-family="Helvetica,sans-Serif" font-size="10.00">iostream</text>
</a>
</g>
</g>
<!-- Node9&#45;&gt;Node12 -->
<g id="edge13_Node000009_Node000012" class="edge">
<title>Node9&#45;&gt;Node12</title>
<g id="a_edge13_Node000009_Node000012"><a xlink:title=" ">
<path fill="none" stroke="#63b8ff" d="M348.68,-55.08C347.32,-48.49 345.4,-39.21 343.67,-30.82"/>
<polygon fill="#63b8ff" stroke="#63b8ff" points="347.11,-30.18 341.66,-21.09 340.26,-31.59 347.11,-30.18"/>
</a>
</g>
</g>
<!-- Node13 -->
<g id="Node000013" class="node">
<title>Node13</title>
<g id="a_Node000013"><a xlink:title=" ">
<polygon fill="#e0e0e0" stroke="#999999" points="434.75,-19.25 384.25,-19.25 384.25,0 434.75,0 434.75,-19.25"/>
<text text-anchor="middle" x="409.5" y="-5.75" font-family="Helvetica,sans-Serif" font-size="10.00">memory</text>
</a>
</g>
</g>
<!-- Node9&#45;&gt;Node13 -->
<g id="edge14_Node000009_Node000013" class="edge">
<title>Node9&#45;&gt;Node13</title>
<g id="a_edge14_Node000009_Node000013"><a xlink:title=" ">
<path fill="none" stroke="#63b8ff" d="M360.51,-54.84C368.87,-47.3 381,-36.35 391.1,-27.23"/>
<polygon fill="#63b8ff" stroke="#63b8ff" points="393.44,-29.84 398.52,-20.54 388.75,-24.64 393.44,-29.84"/>
</a>
</g>
</g>
<!-- Node15&#45;&gt;Node2 -->
<g id="edge18_Node000015_Node000002" class="edge">
<title>Node15&#45;&gt;Node2</title>
<g id="a_edge18_Node000015_Node000002"><a xlink:title=" ">
<path fill="none" stroke="#63b8ff" d="M335.31,-165.34C316.59,-156.97 288.48,-144.38 267.02,-134.78"/>
<polygon fill="#63b8ff" stroke="#63b8ff" points="268.72,-131.71 258.17,-130.82 265.87,-138.1 268.72,-131.71"/>
</a>
</g>
</g>
<!-- Node15&#45;&gt;Node9 -->
<g id="edge19_Node000015_Node000009" class="edge">
<title>Node15&#45;&gt;Node9</title>
<g id="a_edge19_Node000015_Node000009"><a xlink:title=" ">
<path fill="none" stroke="#63b8ff" d="M355.09,-165.5C354.3,-148.25 352.53,-109.83 351.43,-86.06"/>
<polygon fill="#63b8ff" stroke="#63b8ff" points="354.94,-86.22 350.98,-76.39 347.95,-86.54 354.94,-86.22"/>
</a>
</g>
</g>
<!-- Node16 -->
<g id="Node000016" class="node">
<title>Node16</title>
<g id="a_Node000016"><a xlink:title=" ">
<polygon fill="#e0e0e0" stroke="#999999" points="424.12,-129.75 378.88,-129.75 378.88,-110.5 424.12,-110.5 424.12,-129.75"/>
<text text-anchor="middle" x="401.5" y="-116.25" font-family="Helvetica,sans-Serif" font-size="10.00">math.h</text>
</a>
</g>
</g>
<!-- Node15&#45;&gt;Node16 -->
<g id="edge17_Node000015_Node000016" class="edge">
<title>Node15&#45;&gt;Node16</title>
<g id="a_edge17_Node000015_Node000016"><a xlink:title=" ">
<path fill="none" stroke="#63b8ff" d="M363.1,-165.58C369.38,-158.3 378.51,-147.73 386.3,-138.73"/>
<polygon fill="#63b8ff" stroke="#63b8ff" points="388.86,-141.11 392.75,-131.25 383.56,-136.53 388.86,-141.11"/>
</a>
</g>
</g>
</g>
</svg>
