<?xml version="1.0" encoding="UTF-8" standalone="no"?>
<!DOCTYPE svg PUBLIC "-//W3C//DTD SVG 1.1//EN"
 "http://www.w3.org/Graphics/SVG/1.1/DTD/svg11.dtd">
<!-- Generated by graphviz version 9.0.0 (20230911.1827)
 -->
<!-- Title: model/Block.h Pages: 1 -->
<svg width="1222pt" height="315pt"
 viewBox="0.00 0.00 1222.38 314.75" xmlns="http://www.w3.org/2000/svg" xmlns:xlink="http://www.w3.org/1999/xlink">
<g id="graph0" class="graph" transform="scale(1 1) rotate(0) translate(4 310.75)">
<title>model/Block.h</title>
<!-- Node1 -->
<g id="Node000001" class="node">
<title>Node1</title>
<g id="a_Node000001"><a xlink:title="model::Block source file">
<polygon fill="#999999" stroke="#666666" points="672.88,-306.75 595.38,-306.75 595.38,-287.5 672.88,-287.5 672.88,-306.75"/>
<text text-anchor="middle" x="634.12" y="-293.25" font-family="Helvetica,sans-Serif" font-size="10.00">model/Block.h</text>
</a>
</g>
</g>
<!-- Node2 -->
<g id="Node000002" class="node">
<title>Node2</title>
<g id="a_Node000002"><a xlink:href="_blood_vessel_8h.html" target="_top" xlink:title="model::BloodVessel source file">
<polygon fill="white" stroke="#666666" points="181.88,-251.5 74.38,-251.5 74.38,-232.25 181.88,-232.25 181.88,-251.5"/>
<text text-anchor="middle" x="128.12" y="-238" font-family="Helvetica,sans-Serif" font-size="10.00">model/BloodVessel.h</text>
</a>
</g>
</g>
<!-- Node1&#45;&gt;Node2 -->
<g id="edge1_Node000001_Node000002" class="edge">
<title>Node1&#45;&gt;Node2</title>
<g id="a_edge1_Node000001_Node000002"><a xlink:title=" ">
<path fill="none" stroke="#63b8ff" d="M583.72,-291.4C502.19,-283.66 336.36,-267.54 196.12,-251.5 191.63,-250.99 186.97,-250.44 182.3,-249.87"/>
<polygon fill="#63b8ff" stroke="#63b8ff" points="583.33,-294.88 593.62,-292.33 583.99,-287.91 583.33,-294.88"/>
</a>
</g>
</g>
<!-- Node3 -->
<g id="Node000003" class="node">
<title>Node3</title>
<g id="a_Node000003"><a xlink:href="_blood_vessel_junction_8h.html" target="_top" xlink:title="model::BloodVesselJunction source file">
<polygon fill="white" stroke="#666666" points="144.25,-196.25 0,-196.25 0,-177 144.25,-177 144.25,-196.25"/>
<text text-anchor="middle" x="72.12" y="-182.75" font-family="Helvetica,sans-Serif" font-size="10.00">model/BloodVesselJunction.h</text>
</a>
</g>
</g>
<!-- Node1&#45;&gt;Node3 -->
<g id="edge16_Node000001_Node000003" class="edge">
<title>Node1&#45;&gt;Node3</title>
<g id="a_edge16_Node000001_Node000003"><a xlink:title=" ">
<path fill="none" stroke="#63b8ff" d="M583.86,-295.99C451.31,-295.1 99.98,-289.19 65.12,-251.5 51.19,-236.43 60.9,-210.02 67.47,-196.36"/>
<polygon fill="#63b8ff" stroke="#63b8ff" points="583.72,-299.49 593.74,-296.05 583.76,-292.49 583.72,-299.49"/>
</a>
</g>
</g>
<!-- Node4 -->
<g id="Node000004" class="node">
<title>Node4</title>
<g id="a_Node000004"><a xlink:href="_model_8h.html" target="_top" xlink:title="model::Model source file">
<polygon fill="white" stroke="#666666" points="607.62,-141 528.62,-141 528.62,-121.75 607.62,-121.75 607.62,-141"/>
<text text-anchor="middle" x="568.12" y="-127.5" font-family="Helvetica,sans-Serif" font-size="10.00">model/Model.h</text>
</a>
</g>
</g>
<!-- Node1&#45;&gt;Node4 -->
<g id="edge28_Node000001_Node000004" class="edge">
<title>Node1&#45;&gt;Node4</title>
<g id="a_edge28_Node000001_Node000004"><a xlink:title=" ">
<path fill="none" stroke="#63b8ff" d="M583.62,-296.79C492.82,-296.93 306.96,-292.09 259.12,-251.5 239.63,-234.96 246.72,-221.56 243.12,-196.25 241.92,-187.78 237.5,-183.45 243.12,-177 279.72,-135.04 449.96,-131.14 528.38,-131.64"/>
<polygon fill="#63b8ff" stroke="#63b8ff" points="583.5,-300.29 593.48,-296.75 583.47,-293.29 583.5,-300.29"/>
</a>
</g>
</g>
<!-- Node12 -->
<g id="Node000012" class="node">
<title>Node12</title>
<g id="a_Node000012"><a xlink:href="_closed_loop_coronary_b_c_8h.html" target="_top" xlink:title="model::ClosedLoopCoronaryBC source file">
<polygon fill="white" stroke="#666666" points="408.25,-196.25 252,-196.25 252,-177 408.25,-177 408.25,-196.25"/>
<text text-anchor="middle" x="330.12" y="-182.75" font-family="Helvetica,sans-Serif" font-size="10.00">model/ClosedLoopCoronaryBC.h</text>
</a>
</g>
</g>
<!-- Node1&#45;&gt;Node12 -->
<g id="edge17_Node000001_Node000012" class="edge">
<title>Node1&#45;&gt;Node12</title>
<g id="a_edge17_Node000001_Node000012"><a xlink:title=" ">
<path fill="none" stroke="#63b8ff" d="M583.47,-293.63C487.7,-288.4 287.76,-274.79 267.12,-251.5 249.05,-231.1 285.13,-208.74 309.77,-196.63"/>
<polygon fill="#63b8ff" stroke="#63b8ff" points="583.21,-297.12 593.38,-294.16 583.58,-290.13 583.21,-297.12"/>
</a>
</g>
</g>
<!-- Node13 -->
<g id="Node000013" class="node">
<title>Node13</title>
<g id="a_Node000013"><a xlink:href="_closed_loop_heart_pulmonary_8h.html" target="_top" xlink:title="model::ClosedLoopHeartPulmonary source file">
<polygon fill="white" stroke="#666666" points="450.25,-251.5 276,-251.5 276,-232.25 450.25,-232.25 450.25,-251.5"/>
<text text-anchor="middle" x="363.12" y="-238" font-family="Helvetica,sans-Serif" font-size="10.00">model/ClosedLoopHeartPulmonary.h</text>
</a>
</g>
</g>
<!-- Node1&#45;&gt;Node13 -->
<g id="edge19_Node000001_Node000013" class="edge">
<title>Node1&#45;&gt;Node13</title>
<g id="a_edge19_Node000001_Node000013"><a xlink:title=" ">
<path fill="none" stroke="#63b8ff" d="M583.84,-286.24C533.91,-276.43 458.01,-261.52 409.5,-251.99"/>
<polygon fill="#63b8ff" stroke="#63b8ff" points="583.04,-289.65 593.52,-288.15 584.39,-282.78 583.04,-289.65"/>
</a>
</g>
</g>
<!-- Node14 -->
<g id="Node000014" class="node">
<title>Node14</title>
<g id="a_Node000014"><a xlink:href="_closed_loop_r_c_r_b_c_8h.html" target="_top" xlink:title="model::ClosedLoopRCRBC source file">
<polygon fill="white" stroke="#666666" points="606.25,-251.5 468,-251.5 468,-232.25 606.25,-232.25 606.25,-251.5"/>
<text text-anchor="middle" x="537.12" y="-238" font-family="Helvetica,sans-Serif" font-size="10.00">model/ClosedLoopRCRBC.h</text>
</a>
</g>
</g>
<!-- Node1&#45;&gt;Node14 -->
<g id="edge22_Node000001_Node000014" class="edge">
<title>Node1&#45;&gt;Node14</title>
<g id="a_edge22_Node000001_Node000014"><a xlink:title=" ">
<path fill="none" stroke="#63b8ff" d="M607.65,-281.59C590.41,-272.13 568.46,-260.08 553.66,-251.95"/>
<polygon fill="#63b8ff" stroke="#63b8ff" points="605.89,-284.62 616.34,-286.36 609.26,-278.48 605.89,-284.62"/>
</a>
</g>
</g>
<!-- Node15 -->
<g id="Node000015" class="node">
<title>Node15</title>
<g id="a_Node000015"><a xlink:href="_flow_reference_b_c_8h.html" target="_top" xlink:title="model::FlowReferenceBC source file">
<polygon fill="white" stroke="#666666" points="633.88,-196.25 502.38,-196.25 502.38,-177 633.88,-177 633.88,-196.25"/>
<text text-anchor="middle" x="568.12" y="-182.75" font-family="Helvetica,sans-Serif" font-size="10.00">model/FlowReferenceBC.h</text>
</a>
</g>
</g>
<!-- Node1&#45;&gt;Node15 -->
<g id="edge24_Node000001_Node000015" class="edge">
<title>Node1&#45;&gt;Node15</title>
<g id="a_edge24_Node000001_Node000015"><a xlink:title=" ">
<path fill="none" stroke="#63b8ff" d="M630.96,-276.14C628.23,-262.95 623.38,-245.7 615.12,-232.25 606.18,-217.67 591.29,-204.67 580.67,-196.52"/>
<polygon fill="#63b8ff" stroke="#63b8ff" points="627.48,-276.56 632.71,-285.78 634.37,-275.32 627.48,-276.56"/>
</a>
</g>
</g>
<!-- Node16 -->
<g id="Node000016" class="node">
<title>Node16</title>
<g id="a_Node000016"><a xlink:href="_junction_8h.html" target="_top" xlink:title="model::Junction source file">
<polygon fill="white" stroke="#666666" points="751.88,-251.5 662.38,-251.5 662.38,-232.25 751.88,-232.25 751.88,-251.5"/>
<text text-anchor="middle" x="707.12" y="-238" font-family="Helvetica,sans-Serif" font-size="10.00">model/Junction.h</text>
</a>
</g>
</g>
<!-- Node1&#45;&gt;Node16 -->
<g id="edge26_Node000001_Node000016" class="edge">
<title>Node1&#45;&gt;Node16</title>
<g id="a_edge26_Node000001_Node000016"><a xlink:title=" ">
<path fill="none" stroke="#63b8ff" d="M655.59,-280.47C668.41,-271.12 684.22,-259.58 694.92,-251.77"/>
<polygon fill="#63b8ff" stroke="#63b8ff" points="653.75,-277.48 647.73,-286.2 657.87,-283.13 653.75,-277.48"/>
</a>
</g>
</g>
<!-- Node17 -->
<g id="Node000017" class="node">
<title>Node17</title>
<g id="a_Node000017"><a xlink:href="_open_loop_coronary_b_c_8h.html" target="_top" xlink:title="model::OpenLoopCoronaryBC source file">
<polygon fill="white" stroke="#666666" points="839.88,-196.25 690.38,-196.25 690.38,-177 839.88,-177 839.88,-196.25"/>
<text text-anchor="middle" x="765.12" y="-182.75" font-family="Helvetica,sans-Serif" font-size="10.00">model/OpenLoopCoronaryBC.h</text>
</a>
</g>
</g>
<!-- Node1&#45;&gt;Node17 -->
<g id="edge29_Node000001_Node000017" class="edge">
<title>Node1&#45;&gt;Node17</title>
<g id="a_edge29_Node000001_Node000017"><a xlink:title=" ">
<path fill="none" stroke="#63b8ff" d="M684.53,-291.62C711.67,-286.39 743.17,-275.23 761.12,-251.5 773.33,-235.37 770.2,-209.89 767.37,-196.51"/>
<polygon fill="#63b8ff" stroke="#63b8ff" points="683.99,-288.16 674.71,-293.27 685.15,-295.06 683.99,-288.16"/>
</a>
</g>
</g>
<!-- Node18 -->
<g id="Node000018" class="node">
<title>Node18</title>
<g id="a_Node000018"><a xlink:href="_pressure_reference_b_c_8h.html" target="_top" xlink:title="model::PressureReferenceBC source file">
<polygon fill="white" stroke="#666666" points="957.88,-251.5 808.38,-251.5 808.38,-232.25 957.88,-232.25 957.88,-251.5"/>
<text text-anchor="middle" x="883.12" y="-238" font-family="Helvetica,sans-Serif" font-size="10.00">model/PressureReferenceBC.h</text>
</a>
</g>
</g>
<!-- Node1&#45;&gt;Node18 -->
<g id="edge31_Node000001_Node000018" class="edge">
<title>Node1&#45;&gt;Node18</title>
<g id="a_edge31_Node000001_Node000018"><a xlink:title=" ">
<path fill="none" stroke="#63b8ff" d="M684.51,-285.35C730.46,-275.52 797.61,-261.16 840.84,-251.92"/>
<polygon fill="#63b8ff" stroke="#63b8ff" points="683.83,-281.92 674.79,-287.43 685.3,-288.76 683.83,-281.92"/>
</a>
</g>
</g>
<!-- Node19 -->
<g id="Node000019" class="node">
<title>Node19</title>
<g id="a_Node000019"><a xlink:href="_resistance_b_c_8h.html" target="_top" xlink:title="model::ResistanceBC source file">
<polygon fill="white" stroke="#666666" points="1011.62,-196.25 896.62,-196.25 896.62,-177 1011.62,-177 1011.62,-196.25"/>
<text text-anchor="middle" x="954.12" y="-182.75" font-family="Helvetica,sans-Serif" font-size="10.00">model/ResistanceBC.h</text>
</a>
</g>
</g>
<!-- Node1&#45;&gt;Node19 -->
<g id="edge33_Node000001_Node000019" class="edge">
<title>Node1&#45;&gt;Node19</title>
<g id="a_edge33_Node000001_Node000019"><a xlink:title=" ">
<path fill="none" stroke="#63b8ff" d="M684.61,-297.09C768.51,-297.48 931.04,-292.75 967.12,-251.5 980.69,-236 968.4,-210.25 960.16,-196.67"/>
<polygon fill="#63b8ff" stroke="#63b8ff" points="684.85,-293.59 674.82,-297.01 684.8,-300.59 684.85,-293.59"/>
</a>
</g>
</g>
<!-- Node20 -->
<g id="Node000020" class="node">
<title>Node20</title>
<g id="a_Node000020"><a xlink:href="_resistive_junction_8h.html" target="_top" xlink:title="model::ResistiveJunction source file">
<polygon fill="white" stroke="#666666" points="1160.12,-196.25 1030.12,-196.25 1030.12,-177 1160.12,-177 1160.12,-196.25"/>
<text text-anchor="middle" x="1095.12" y="-182.75" font-family="Helvetica,sans-Serif" font-size="10.00">model/ResistiveJunction.h</text>
</a>
</g>
</g>
<!-- Node1&#45;&gt;Node20 -->
<g id="edge35_Node000001_Node000020" class="edge">
<title>Node1&#45;&gt;Node20</title>
<g id="a_edge35_Node000001_Node000020"><a xlink:title=" ">
<path fill="none" stroke="#63b8ff" d="M684.62,-295.95C754.1,-294.32 882.27,-286.3 985.12,-251.5 1023.82,-238.41 1064.04,-210.88 1083.36,-196.62"/>
<polygon fill="#63b8ff" stroke="#63b8ff" points="684.61,-292.45 674.68,-296.14 684.74,-299.45 684.61,-292.45"/>
</a>
</g>
</g>
<!-- Node21 -->
<g id="Node000021" class="node">
<title>Node21</title>
<g id="a_Node000021"><a xlink:href="_windkessel_b_c_8h.html" target="_top" xlink:title="model::WindkesselBC source file">
<polygon fill="white" stroke="#666666" points="1214.38,-251.5 1097.88,-251.5 1097.88,-232.25 1214.38,-232.25 1214.38,-251.5"/>
<text text-anchor="middle" x="1156.12" y="-238" font-family="Helvetica,sans-Serif" font-size="10.00">model/WindkesselBC.h</text>
</a>
</g>
</g>
<!-- Node1&#45;&gt;Node21 -->
<g id="edge37_Node000001_Node000021" class="edge">
<title>Node1&#45;&gt;Node21</title>
<g id="a_edge37_Node000001_Node000021"><a xlink:title=" ">
<path fill="none" stroke="#63b8ff" d="M684.63,-290.97C781.89,-281.05 994.63,-259.35 1097.76,-248.83"/>
<polygon fill="#63b8ff" stroke="#63b8ff" points="684.46,-287.47 674.87,-291.97 685.17,-294.44 684.46,-287.47"/>
</a>
</g>
</g>
<!-- Node2&#45;&gt;Node3 -->
<g id="edge2_Node000002_Node000003" class="edge">
<title>Node2&#45;&gt;Node3</title>
<g id="a_edge2_Node000002_Node000003"><a xlink:title=" ">
<path fill="none" stroke="#63b8ff" d="M110.49,-224.11C100.88,-214.97 89.37,-204.03 81.48,-196.52"/>
<polygon fill="#63b8ff" stroke="#63b8ff" points="107.87,-226.44 117.53,-230.8 112.69,-221.37 107.87,-226.44"/>
</a>
</g>
</g>
<!-- Node2&#45;&gt;Node4 -->
<g id="edge15_Node000002_Node000004" class="edge">
<title>Node2&#45;&gt;Node4</title>
<g id="a_edge15_Node000002_Node000004"><a xlink:title=" ">
<path fill="none" stroke="#63b8ff" d="M141.49,-223.14C153.88,-208.14 173.73,-187.45 196.12,-177 254.4,-149.79 444.62,-137.99 528.16,-134.03"/>
<polygon fill="#63b8ff" stroke="#63b8ff" points="138.87,-220.81 135.41,-230.83 144.36,-225.15 138.87,-220.81"/>
</a>
</g>
</g>
<!-- Node3&#45;&gt;Node4 -->
<g id="edge3_Node000003_Node000004" class="edge">
<title>Node3&#45;&gt;Node4</title>
<g id="a_edge3_Node000003_Node000004"><a xlink:title=" ">
<path fill="none" stroke="#63b8ff" d="M155.69,-176.65C263.73,-165.05 447.54,-145.32 528.19,-136.66"/>
<polygon fill="#63b8ff" stroke="#63b8ff" points="155.59,-173.14 146.02,-177.69 156.33,-180.1 155.59,-173.14"/>
</a>
</g>
</g>
<!-- Node5 -->
<g id="Node000005" class="node">
<title>Node5</title>
<g id="a_Node000005"><a xlink:href="_integrator_8h.html" target="_top" xlink:title="Integrator source file.">
<polygon fill="white" stroke="#666666" points="477.75,-80.12 378.5,-80.12 378.5,-60.88 477.75,-60.88 477.75,-80.12"/>
<text text-anchor="middle" x="428.12" y="-66.62" font-family="Helvetica,sans-Serif" font-size="10.00">algebra/Integrator.h</text>
</a>
</g>
</g>
<!-- Node4&#45;&gt;Node5 -->
<g id="edge4_Node000004_Node000005" class="edge">
<title>Node4&#45;&gt;Node5</title>
<g id="a_edge4_Node000004_Node000005"><a xlink:title=" ">
<path fill="none" stroke="#63b8ff" d="M536.24,-116.97C509.69,-105.8 472.6,-90.2 449.49,-80.48"/>
<polygon fill="#63b8ff" stroke="#63b8ff" points="534.59,-120.07 545.16,-120.72 537.3,-113.62 534.59,-120.07"/>
</a>
</g>
</g>
<!-- Node6 -->
<g id="Node000006" class="node">
<title>Node6</title>
<g id="a_Node000006"><a xlink:href="interface_8h.html" target="_top" xlink:title="svZeroDSolver callable interface.">
<polygon fill="white" stroke="#666666" points="400.88,-19.25 299.38,-19.25 299.38,0 400.88,0 400.88,-19.25"/>
<text text-anchor="middle" x="350.12" y="-5.75" font-family="Helvetica,sans-Serif" font-size="10.00">interface/interface.h</text>
</a>
</g>
</g>
<!-- Node4&#45;&gt;Node6 -->
<g id="edge7_Node000004_Node000006" class="edge">
<title>Node4&#45;&gt;Node6</title>
<g id="a_edge7_Node000004_Node000006"><a xlink:title=" ">
<path fill="none" stroke="#63b8ff" d="M517.2,-125.03C465.4,-118.56 389.88,-105.95 369.12,-85.75 350.9,-68.02 349.23,-35.52 349.6,-19.72"/>
<polygon fill="#63b8ff" stroke="#63b8ff" points="516.66,-128.49 527.01,-126.21 517.5,-121.54 516.66,-128.49"/>
</a>
</g>
</g>
<!-- Node7 -->
<g id="Node000007" class="node">
<title>Node7</title>
<g id="a_Node000007"><a xlink:href="_solver_8h.html" target="_top" xlink:title="Solver source file.">
<polygon fill="white" stroke="#666666" points="887.88,-19.25 810.38,-19.25 810.38,0 887.88,0 887.88,-19.25"/>
<text text-anchor="middle" x="849.12" y="-5.75" font-family="Helvetica,sans-Serif" font-size="10.00">solve/Solver.h</text>
</a>
</g>
</g>
<!-- Node4&#45;&gt;Node7 -->
<g id="edge12_Node000004_Node000007" class="edge">
<title>Node4&#45;&gt;Node7</title>
<g id="a_edge12_Node000004_Node000007"><a xlink:title=" ">
<path fill="none" stroke="#63b8ff" d="M619.28,-127.78C714.42,-122.44 910.81,-108.72 931.12,-85.75 940.11,-75.6 938.05,-66.9 931.12,-55.25 920.61,-37.56 900.35,-26.43 882.59,-19.72"/>
<polygon fill="#63b8ff" stroke="#63b8ff" points="619.23,-124.28 609.44,-128.32 619.62,-131.27 619.23,-124.28"/>
</a>
</g>
</g>
<!-- Node8 -->
<g id="Node000008" class="node">
<title>Node8</title>
<g id="a_Node000008"><a xlink:href="_levenberg_marquardt_optimizer_8h.html" target="_top" xlink:title="opt::LevenbergMarquardtOptimizer source file">
<polygon fill="white" stroke="#666666" points="640.25,-85.75 496,-85.75 496,-55.25 640.25,-55.25 640.25,-85.75"/>
<text text-anchor="start" x="504" y="-72.25" font-family="Helvetica,sans-Serif" font-size="10.00">optimize/LevenbergMarquardt</text>
<text text-anchor="middle" x="568.12" y="-61" font-family="Helvetica,sans-Serif" font-size="10.00">Optimizer.h</text>
</a>
</g>
</g>
<!-- Node4&#45;&gt;Node8 -->
<g id="edge8_Node000004_Node000008" class="edge">
<title>Node4&#45;&gt;Node8</title>
<g id="a_edge8_Node000004_Node000008"><a xlink:title=" ">
<path fill="none" stroke="#63b8ff" d="M568.12,-110.17C568.12,-102.24 568.12,-93.31 568.12,-86.03"/>
<polygon fill="#63b8ff" stroke="#63b8ff" points="564.63,-109.92 568.13,-119.92 571.63,-109.92 564.63,-109.92"/>
</a>
</g>
</g>
<!-- Node9 -->
<g id="Node000009" class="node">
<title>Node9</title>
<g id="a_Node000009"><a xlink:href="calibrate_8h.html" target="_top" xlink:title="opt::calibrate source file">
<polygon fill="white" stroke="#666666" points="757.75,-80.12 658.5,-80.12 658.5,-60.88 757.75,-60.88 757.75,-80.12"/>
<text text-anchor="middle" x="708.12" y="-66.62" font-family="Helvetica,sans-Serif" font-size="10.00">optimize/calibrate.h</text>
</a>
</g>
</g>
<!-- Node4&#45;&gt;Node9 -->
<g id="edge9_Node000004_Node000009" class="edge">
<title>Node4&#45;&gt;Node9</title>
<g id="a_edge9_Node000004_Node000009"><a xlink:title=" ">
<path fill="none" stroke="#63b8ff" d="M600.01,-116.97C626.56,-105.8 663.65,-90.2 686.76,-80.48"/>
<polygon fill="#63b8ff" stroke="#63b8ff" points="598.95,-113.62 591.09,-120.72 601.66,-120.07 598.95,-113.62"/>
</a>
</g>
</g>
<!-- Node10 -->
<g id="Node000010" class="node">
<title>Node10</title>
<g id="a_Node000010"><a xlink:href="_simulation_parameters_8h_source.html" target="_top" xlink:title=" ">
<polygon fill="white" stroke="#666666" points="922,-80.12 776.25,-80.12 776.25,-60.88 922,-60.88 922,-80.12"/>
<text text-anchor="middle" x="849.12" y="-66.62" font-family="Helvetica,sans-Serif" font-size="10.00">solve/SimulationParameters.h</text>
</a>
</g>
</g>
<!-- Node4&#45;&gt;Node10 -->
<g id="edge10_Node000004_Node000010" class="edge">
<title>Node4&#45;&gt;Node10</title>
<g id="a_edge10_Node000004_Node000010"><a xlink:title=" ">
<path fill="none" stroke="#63b8ff" d="M619.33,-119.65C672.67,-108.47 755.32,-91.15 805.61,-80.62"/>
<polygon fill="#63b8ff" stroke="#63b8ff" points="618.64,-116.22 609.57,-121.69 620.07,-123.07 618.64,-116.22"/>
</a>
</g>
</g>
<!-- Node11 -->
<g id="Node000011" class="node">
<title>Node11</title>
<g id="a_Node000011"><a xlink:href="csv__writer_8h.html" target="_top" xlink:title="csv_writer source file">
<polygon fill="white" stroke="#666666" points="322.5,-80.12 227.75,-80.12 227.75,-60.88 322.5,-60.88 322.5,-80.12"/>
<text text-anchor="middle" x="275.12" y="-66.62" font-family="Helvetica,sans-Serif" font-size="10.00">solve/csv_writer.h</text>
</a>
</g>
</g>
<!-- Node4&#45;&gt;Node11 -->
<g id="edge13_Node000004_Node000011" class="edge">
<title>Node4&#45;&gt;Node11</title>
<g id="a_edge13_Node000004_Node000011"><a xlink:title=" ">
<path fill="none" stroke="#63b8ff" d="M517.08,-121.16C470,-112.51 398.2,-98.97 336.12,-85.75 328.57,-84.14 320.52,-82.33 312.82,-80.55"/>
<polygon fill="#63b8ff" stroke="#63b8ff" points="516.25,-124.56 526.72,-122.92 517.51,-117.68 516.25,-124.56"/>
</a>
</g>
</g>
<!-- Node5&#45;&gt;Node6 -->
<g id="edge5_Node000005_Node000006" class="edge">
<title>Node5&#45;&gt;Node6</title>
<g id="a_edge5_Node000005_Node000006"><a xlink:title=" ">
<path fill="none" stroke="#63b8ff" d="M407.09,-53.63C392.66,-42.73 374.04,-28.67 362.08,-19.65"/>
<polygon fill="#63b8ff" stroke="#63b8ff" points="404.98,-56.42 415.07,-59.65 409.2,-50.83 404.98,-56.42"/>
</a>
</g>
</g>
<!-- Node5&#45;&gt;Node7 -->
<g id="edge6_Node000005_Node000007" class="edge">
<title>Node5&#45;&gt;Node7</title>
<g id="a_edge6_Node000005_Node000007"><a xlink:title=" ">
<path fill="none" stroke="#63b8ff" d="M473.89,-57.9C478.35,-56.94 482.82,-56.03 487.12,-55.25 603.79,-34.04 743.46,-19.98 810.06,-13.96"/>
<polygon fill="#63b8ff" stroke="#63b8ff" points="473.38,-54.43 464.4,-60.06 474.93,-61.26 473.38,-54.43"/>
</a>
</g>
</g>
<!-- Node10&#45;&gt;Node7 -->
<g id="edge11_Node000010_Node000007" class="edge">
<title>Node10&#45;&gt;Node7</title>
<g id="a_edge11_Node000010_Node000007"><a xlink:title=" ">
<path fill="none" stroke="#63b8ff" d="M849.12,-49.07C849.12,-39.04 849.12,-27.46 849.12,-19.65"/>
<polygon fill="#63b8ff" stroke="#63b8ff" points="845.63,-49.04 849.13,-59.04 852.63,-49.04 845.63,-49.04"/>
</a>
</g>
</g>
<!-- Node11&#45;&gt;Node6 -->
<g id="edge14_Node000011_Node000006" class="edge">
<title>Node11&#45;&gt;Node6</title>
<g id="a_edge14_Node000011_Node000006"><a xlink:title=" ">
<path fill="none" stroke="#63b8ff" d="M295.35,-53.63C309.22,-42.73 327.13,-28.67 338.63,-19.65"/>
<polygon fill="#63b8ff" stroke="#63b8ff" points="293.41,-50.7 287.71,-59.62 297.73,-56.2 293.41,-50.7"/>
</a>
</g>
</g>
<!-- Node12&#45;&gt;Node4 -->
<g id="edge18_Node000012_Node000004" class="edge">
<title>Node12&#45;&gt;Node4</title>
<g id="a_edge18_Node000012_Node000004"><a xlink:title=" ">
<path fill="none" stroke="#63b8ff" d="M381.83,-174.06C425.87,-164.2 488.24,-150.25 528.44,-141.25"/>
<polygon fill="#63b8ff" stroke="#63b8ff" points="381.24,-170.6 372.25,-176.2 382.77,-177.43 381.24,-170.6"/>
</a>
</g>
</g>
<!-- Node13&#45;&gt;Node4 -->
<g id="edge21_Node000013_Node000004" class="edge">
<title>Node13&#45;&gt;Node4</title>
<g id="a_edge21_Node000013_Node000004"><a xlink:title=" ">
<path fill="none" stroke="#63b8ff" d="M390.25,-226.52C433.1,-203.84 515.25,-160.36 550.9,-141.49"/>
<polygon fill="#63b8ff" stroke="#63b8ff" points="388.79,-223.33 381.59,-231.1 392.06,-229.52 388.79,-223.33"/>
</a>
</g>
</g>
<!-- Node13&#45;&gt;Node12 -->
<g id="edge20_Node000013_Node000012" class="edge">
<title>Node13&#45;&gt;Node12</title>
<g id="a_edge20_Node000013_Node000012"><a xlink:title=" ">
<path fill="none" stroke="#63b8ff" d="M351.65,-222.37C346.25,-213.64 340.05,-203.64 335.69,-196.61"/>
<polygon fill="#63b8ff" stroke="#63b8ff" points="348.64,-224.14 356.88,-230.8 354.59,-220.45 348.64,-224.14"/>
</a>
</g>
</g>
<!-- Node14&#45;&gt;Node4 -->
<g id="edge23_Node000014_Node000004" class="edge">
<title>Node14&#45;&gt;Node4</title>
<g id="a_edge23_Node000014_Node000004"><a xlink:title=" ">
<path fill="none" stroke="#63b8ff" d="M514.44,-225.17C499.15,-212.54 483.39,-194.12 493.12,-177 503.01,-159.61 522.64,-148.29 539.34,-141.4"/>
<polygon fill="#63b8ff" stroke="#63b8ff" points="511.93,-227.66 522,-230.97 516.2,-222.1 511.93,-227.66"/>
</a>
</g>
</g>
<!-- Node15&#45;&gt;Node4 -->
<g id="edge25_Node000015_Node000004" class="edge">
<title>Node15&#45;&gt;Node4</title>
<g id="a_edge25_Node000015_Node000004"><a xlink:title=" ">
<path fill="none" stroke="#63b8ff" d="M568.12,-165.38C568.12,-157.09 568.12,-147.92 568.12,-141.36"/>
<polygon fill="#63b8ff" stroke="#63b8ff" points="564.63,-165.32 568.13,-175.32 571.63,-165.32 564.63,-165.32"/>
</a>
</g>
</g>
<!-- Node16&#45;&gt;Node4 -->
<g id="edge27_Node000016_Node000004" class="edge">
<title>Node16&#45;&gt;Node4</title>
<g id="a_edge27_Node000016_Node000004"><a xlink:title=" ">
<path fill="none" stroke="#63b8ff" d="M691.92,-223.49C679.56,-209.93 661.25,-191.09 643.12,-177 624.94,-162.87 601.91,-149.79 586.2,-141.49"/>
<polygon fill="#63b8ff" stroke="#63b8ff" points="689.17,-225.66 698.44,-230.78 694.39,-221 689.17,-225.66"/>
</a>
</g>
</g>
<!-- Node17&#45;&gt;Node4 -->
<g id="edge30_Node000017_Node000004" class="edge">
<title>Node17&#45;&gt;Node4</title>
<g id="a_edge30_Node000017_Node000004"><a xlink:title=" ">
<path fill="none" stroke="#63b8ff" d="M720.99,-173.7C684.89,-163.94 634.59,-150.34 601.71,-141.45"/>
<polygon fill="#63b8ff" stroke="#63b8ff" points="719.68,-176.97 730.25,-176.2 721.51,-170.21 719.68,-176.97"/>
</a>
</g>
</g>
<!-- Node18&#45;&gt;Node4 -->
<g id="edge32_Node000018_Node000004" class="edge">
<title>Node18&#45;&gt;Node4</title>
<g id="a_edge32_Node000018_Node000004"><a xlink:title=" ">
<path fill="none" stroke="#63b8ff" d="M877.89,-221.32C872.93,-206.75 863.99,-187.6 849.12,-177 811.12,-149.89 676.07,-138.49 607.98,-134.37"/>
<polygon fill="#63b8ff" stroke="#63b8ff" points="874.49,-222.18 880.72,-230.75 881.2,-220.17 874.49,-222.18"/>
</a>
</g>
</g>
<!-- Node19&#45;&gt;Node4 -->
<g id="edge34_Node000019_Node000004" class="edge">
<title>Node19&#45;&gt;Node4</title>
<g id="a_edge34_Node000019_Node000004"><a xlink:title=" ">
<path fill="none" stroke="#63b8ff" d="M885.29,-176.13C804.57,-164.99 673.49,-146.91 608.01,-137.88"/>
<polygon fill="#63b8ff" stroke="#63b8ff" points="884.45,-179.55 894.84,-177.45 885.41,-172.61 884.45,-179.55"/>
</a>
</g>
</g>
<!-- Node20&#45;&gt;Node4 -->
<g id="edge36_Node000020_Node000004" class="edge">
<title>Node20&#45;&gt;Node4</title>
<g id="a_edge36_Node000020_Node000004"><a xlink:title=" ">
<path fill="none" stroke="#63b8ff" d="M1018.29,-176.82C859.58,-159.94 685.02,-143.33 608.05,-136.1"/>
<polygon fill="#63b8ff" stroke="#63b8ff" points="1017.87,-180.3 1028.18,-177.88 1018.61,-173.34 1017.87,-180.3"/>
</a>
</g>
</g>
<!-- Node21&#45;&gt;Node4 -->
<g id="edge38_Node000021_Node000004" class="edge">
<title>Node21&#45;&gt;Node4</title>
<g id="a_edge38_Node000021_Node000004"><a xlink:title=" ">
<path fill="none" stroke="#63b8ff" d="M1167.4,-222.52C1174.51,-208.34 1180.42,-189.16 1169.12,-177 1130.99,-135.93 735.73,-132.35 607.82,-132.27"/>
<polygon fill="#63b8ff" stroke="#63b8ff" points="1164.56,-220.42 1162.73,-230.86 1170.67,-223.84 1164.56,-220.42"/>
</a>
</g>
</g>
</g>
</svg>
