<?xml version="1.0" encoding="UTF-8" standalone="no"?>
<!DOCTYPE svg PUBLIC "-//W3C//DTD SVG 1.1//EN"
 "http://www.w3.org/Graphics/SVG/1.1/DTD/svg11.dtd">
<!-- Generated by graphviz version 7.0.5 (20221223.1930)
 -->
<!-- Title: model/BloodVessel.h Pages: 1 -->
<svg width="720pt" height="258pt"
 viewBox="0.00 0.00 720.50 258.00" xmlns="http://www.w3.org/2000/svg" xmlns:xlink="http://www.w3.org/1999/xlink">
<g id="graph0" class="graph" transform="scale(1 1) rotate(0) translate(4 254)">
<title>model/BloodVessel.h</title>
<!-- Node1 -->
<g id="node1" class="node">
<title>Node1</title>
<g id="a_node1"><a xlink:title="model::BloodVessel source file">
<polygon fill="#999999" stroke="#666666" points="396.5,-250 288.5,-250 288.5,-231 396.5,-231 396.5,-250"/>
<text text-anchor="middle" x="342.5" y="-238" font-family="Helvetica,sans-Serif" font-size="10.00">model/BloodVessel.h</text>
</a>
</g>
</g>
<!-- Node2 -->
<g id="node2" class="node">
<title>Node2</title>
<g id="a_node2"><a xlink:href="_blood_vessel_junction_8h.html" target="_top" xlink:title="model::BloodVesselJunction source file">
<polygon fill="white" stroke="#666666" points="365,-195 220,-195 220,-176 365,-176 365,-195"/>
<text text-anchor="middle" x="292.5" y="-183" font-family="Helvetica,sans-Serif" font-size="10.00">model/BloodVesselJunction.h</text>
</a>
</g>
</g>
<!-- Node1&#45;&gt;Node2 -->
<g id="edge1" class="edge">
<title>Node1&#45;&gt;Node2</title>
<path fill="none" stroke="#63b8ff" d="M326.46,-222.5C317.97,-213.5 307.9,-202.82 300.94,-195.44"/>
<polygon fill="#63b8ff" stroke="#63b8ff" points="323.8,-224.78 333.2,-229.65 328.89,-219.97 323.8,-224.78"/>
</g>
<!-- Node3 -->
<g id="node3" class="node">
<title>Node3</title>
<g id="a_node3"><a xlink:href="_model_8h.html" target="_top" xlink:title="model::Model source file">
<polygon fill="white" stroke="#666666" points="382.5,-140 302.5,-140 302.5,-121 382.5,-121 382.5,-140"/>
<text text-anchor="middle" x="342.5" y="-128" font-family="Helvetica,sans-Serif" font-size="10.00">model/Model.h</text>
</a>
</g>
</g>
<!-- Node1&#45;&gt;Node3 -->
<g id="edge14" class="edge">
<title>Node1&#45;&gt;Node3</title>
<path fill="none" stroke="#63b8ff" d="M358.94,-222.36C368.86,-209.9 378.65,-192.42 373.5,-176 369.16,-162.17 358.82,-148.87 351.27,-140.48"/>
<polygon fill="#63b8ff" stroke="#63b8ff" points="356.51,-219.83 352.58,-229.67 361.79,-224.43 356.51,-219.83"/>
</g>
<!-- Node2&#45;&gt;Node3 -->
<g id="edge2" class="edge">
<title>Node2&#45;&gt;Node3</title>
<path fill="none" stroke="#63b8ff" d="M308.54,-167.5C317.03,-158.5 327.1,-147.82 334.06,-140.44"/>
<polygon fill="#63b8ff" stroke="#63b8ff" points="306.11,-164.97 301.8,-174.65 311.2,-169.78 306.11,-164.97"/>
</g>
<!-- Node4 -->
<g id="node4" class="node">
<title>Node4</title>
<g id="a_node4"><a xlink:href="_integrator_8h.html" target="_top" xlink:title="algebra::Integrator source file">
<polygon fill="white" stroke="#666666" points="251.5,-79.5 151.5,-79.5 151.5,-60.5 251.5,-60.5 251.5,-79.5"/>
<text text-anchor="middle" x="201.5" y="-67.5" font-family="Helvetica,sans-Serif" font-size="10.00">algebra/Integrator.h</text>
</a>
</g>
</g>
<!-- Node3&#45;&gt;Node4 -->
<g id="edge3" class="edge">
<title>Node3&#45;&gt;Node4</title>
<path fill="none" stroke="#63b8ff" d="M310.71,-116.31C283.98,-105.22 246.49,-89.67 223.12,-79.97"/>
<polygon fill="#63b8ff" stroke="#63b8ff" points="309.11,-119.44 319.69,-120.04 311.79,-112.97 309.11,-119.44"/>
</g>
<!-- Node5 -->
<g id="node5" class="node">
<title>Node5</title>
<g id="a_node5"><a xlink:href="interface_8h.html" target="_top" xlink:title="svZeroDSolver callable interface.">
<polygon fill="white" stroke="#666666" points="174.5,-19 72.5,-19 72.5,0 174.5,0 174.5,-19"/>
<text text-anchor="middle" x="123.5" y="-7" font-family="Helvetica,sans-Serif" font-size="10.00">interface/interface.h</text>
</a>
</g>
</g>
<!-- Node3&#45;&gt;Node5 -->
<g id="edge6" class="edge">
<title>Node3&#45;&gt;Node5</title>
<path fill="none" stroke="#63b8ff" d="M290.89,-124.16C238.85,-117.73 163.33,-105.2 142.5,-85 124.29,-67.34 122.65,-34.86 123.01,-19.28"/>
<polygon fill="#63b8ff" stroke="#63b8ff" points="290.41,-127.63 300.75,-125.33 291.24,-120.67 290.41,-127.63"/>
</g>
<!-- Node6 -->
<g id="node6" class="node">
<title>Node6</title>
<g id="a_node6"><a xlink:href="_solver_8h.html" target="_top" xlink:title="solve::Solver source file">
<polygon fill="white" stroke="#666666" points="663.5,-19 585.5,-19 585.5,0 663.5,0 663.5,-19"/>
<text text-anchor="middle" x="624.5" y="-7" font-family="Helvetica,sans-Serif" font-size="10.00">solve/Solver.h</text>
</a>
</g>
</g>
<!-- Node3&#45;&gt;Node6 -->
<g id="edge11" class="edge">
<title>Node3&#45;&gt;Node6</title>
<path fill="none" stroke="#63b8ff" d="M394.16,-126.92C489.69,-121.61 686.14,-108 706.5,-85 715.34,-75.02 713.32,-66.46 706.5,-55 695.9,-37.18 675.4,-26.06 657.55,-19.39"/>
<polygon fill="#63b8ff" stroke="#63b8ff" points="394.05,-123.42 384.26,-127.46 394.44,-130.41 394.05,-123.42"/>
</g>
<!-- Node7 -->
<g id="node7" class="node">
<title>Node7</title>
<g id="a_node7"><a xlink:href="_levenberg_marquardt_optimizer_8h.html" target="_top" xlink:title="opt::LevenbergMarquardtOptimizer source file">
<polygon fill="white" stroke="#666666" points="415,-85 270,-85 270,-55 415,-55 415,-85"/>
<text text-anchor="start" x="278" y="-73" font-family="Helvetica,sans-Serif" font-size="10.00">optimize/LevenbergMarquardt</text>
<text text-anchor="middle" x="342.5" y="-62" font-family="Helvetica,sans-Serif" font-size="10.00">Optimizer.h</text>
</a>
</g>
</g>
<!-- Node3&#45;&gt;Node7 -->
<g id="edge7" class="edge">
<title>Node3&#45;&gt;Node7</title>
<path fill="none" stroke="#63b8ff" d="M342.5,-109.51C342.5,-101.49 342.5,-92.43 342.5,-85.11"/>
<polygon fill="#63b8ff" stroke="#63b8ff" points="339,-109.35 342.5,-119.35 346,-109.35 339,-109.35"/>
</g>
<!-- Node8 -->
<g id="node8" class="node">
<title>Node8</title>
<g id="a_node8"><a xlink:href="calibrate_8h.html" target="_top" xlink:title="opt::calibrate source file">
<polygon fill="white" stroke="#666666" points="533.5,-79.5 433.5,-79.5 433.5,-60.5 533.5,-60.5 533.5,-79.5"/>
<text text-anchor="middle" x="483.5" y="-67.5" font-family="Helvetica,sans-Serif" font-size="10.00">optimize/calibrate.h</text>
</a>
</g>
</g>
<!-- Node3&#45;&gt;Node8 -->
<g id="edge8" class="edge">
<title>Node3&#45;&gt;Node8</title>
<path fill="none" stroke="#63b8ff" d="M374.29,-116.31C401.02,-105.22 438.51,-89.67 461.88,-79.97"/>
<polygon fill="#63b8ff" stroke="#63b8ff" points="373.21,-112.97 365.31,-120.04 375.89,-119.44 373.21,-112.97"/>
</g>
<!-- Node9 -->
<g id="node9" class="node">
<title>Node9</title>
<g id="a_node9"><a xlink:href="_simulation_parameters_8h_source.html" target="_top" xlink:title=" ">
<polygon fill="white" stroke="#666666" points="697.5,-79.5 551.5,-79.5 551.5,-60.5 697.5,-60.5 697.5,-79.5"/>
<text text-anchor="middle" x="624.5" y="-67.5" font-family="Helvetica,sans-Serif" font-size="10.00">solve/SimulationParameters.h</text>
</a>
</g>
</g>
<!-- Node3&#45;&gt;Node9 -->
<g id="edge9" class="edge">
<title>Node3&#45;&gt;Node9</title>
<path fill="none" stroke="#63b8ff" d="M393.9,-118.84C447.62,-107.69 530.99,-90.4 581.4,-79.94"/>
<polygon fill="#63b8ff" stroke="#63b8ff" points="393.47,-115.35 384.39,-120.81 394.89,-122.21 393.47,-115.35"/>
</g>
<!-- Node10 -->
<g id="node10" class="node">
<title>Node10</title>
<g id="a_node10"><a xlink:href="csv__writer_8h.html" target="_top" xlink:title="io::csv_writer source file">
<polygon fill="white" stroke="#666666" points="95,-79.5 0,-79.5 0,-60.5 95,-60.5 95,-79.5"/>
<text text-anchor="middle" x="47.5" y="-67.5" font-family="Helvetica,sans-Serif" font-size="10.00">solve/csv_writer.h</text>
</a>
</g>
</g>
<!-- Node3&#45;&gt;Node10 -->
<g id="edge12" class="edge">
<title>Node3&#45;&gt;Node10</title>
<path fill="none" stroke="#63b8ff" d="M290.83,-120.14C243.55,-111.46 171.7,-97.96 109.5,-85 101.94,-83.42 93.88,-81.66 86.15,-79.94"/>
<polygon fill="#63b8ff" stroke="#63b8ff" points="290.05,-123.56 300.52,-121.92 291.32,-116.67 290.05,-123.56"/>
</g>
<!-- Node4&#45;&gt;Node5 -->
<g id="edge4" class="edge">
<title>Node4&#45;&gt;Node5</title>
<path fill="none" stroke="#63b8ff" d="M180.47,-53.23C166.04,-42.4 147.41,-28.43 135.46,-19.47"/>
<polygon fill="#63b8ff" stroke="#63b8ff" points="178.34,-56.01 188.44,-59.21 182.54,-50.41 178.34,-56.01"/>
</g>
<!-- Node4&#45;&gt;Node6 -->
<g id="edge5" class="edge">
<title>Node4&#45;&gt;Node6</title>
<path fill="none" stroke="#63b8ff" d="M247.27,-57.61C251.73,-56.66 256.19,-55.77 260.5,-55 377.84,-33.97 518.27,-19.9 585.23,-13.85"/>
<polygon fill="#63b8ff" stroke="#63b8ff" points="246.78,-54.14 237.78,-59.73 248.31,-60.97 246.78,-54.14"/>
</g>
<!-- Node9&#45;&gt;Node6 -->
<g id="edge10" class="edge">
<title>Node9&#45;&gt;Node6</title>
<path fill="none" stroke="#63b8ff" d="M624.5,-49.16C624.5,-38.95 624.5,-27.04 624.5,-19.17"/>
<polygon fill="#63b8ff" stroke="#63b8ff" points="621,-48.85 624.5,-58.85 628,-48.85 621,-48.85"/>
</g>
<!-- Node10&#45;&gt;Node5 -->
<g id="edge13" class="edge">
<title>Node10&#45;&gt;Node5</title>
<path fill="none" stroke="#63b8ff" d="M67.99,-53.23C82.05,-42.4 100.2,-28.43 111.85,-19.47"/>
<polygon fill="#63b8ff" stroke="#63b8ff" points="66.03,-50.32 60.24,-59.19 70.3,-55.87 66.03,-50.32"/>
</g>
</g>
</svg>
