<?xml version="1.0" encoding="UTF-8" standalone="no"?>
<!DOCTYPE svg PUBLIC "-//W3C//DTD SVG 1.1//EN"
 "http://www.w3.org/Graphics/SVG/1.1/DTD/svg11.dtd">
<!-- Generated by graphviz version 12.2.1 (20241206.2353)
 -->
<!-- Title: model/BloodVesselJunction.h Pages: 1 -->
<svg width="961pt" height="304pt"
 viewBox="0.00 0.00 961.25 303.50" xmlns="http://www.w3.org/2000/svg" xmlns:xlink="http://www.w3.org/1999/xlink">
<g id="graph0" class="graph" transform="scale(1 1) rotate(0) translate(4 299.5)">
<title>model/BloodVesselJunction.h</title>
<!-- Node1 -->
<g id="Node000001" class="node">
<title>Node1</title>
<g id="a_Node000001"><a xlink:title="model::BloodVesselJunction source file">
<polygon fill="#999999" stroke="#666666" points="552.5,-295.5 408.25,-295.5 408.25,-276.25 552.5,-276.25 552.5,-295.5"/>
<text text-anchor="middle" x="480.38" y="-282" font-family="Helvetica,sans-Serif" font-size="10.00">model/BloodVesselJunction.h</text>
</a>
</g>
</g>
<!-- Node2 -->
<g id="Node000002" class="node">
<title>Node2</title>
<g id="a_Node000002"><a xlink:href="_block_8h.html" target="_top" xlink:title="model::Block source file">
<polygon fill="white" stroke="#666666" points="328.5,-185 280.25,-185 280.25,-165.75 328.5,-165.75 328.5,-185"/>
<text text-anchor="middle" x="304.38" y="-171.5" font-family="Helvetica,sans-Serif" font-size="10.00">Block.h</text>
</a>
</g>
</g>
<!-- Node1&#45;&gt;Node2 -->
<g id="edge1_Node000001_Node000002" class="edge">
<title>Node1&#45;&gt;Node2</title>
<g id="a_edge1_Node000001_Node000002"><a xlink:title=" ">
<path fill="none" stroke="#63b8ff" d="M454.44,-275.81C433.4,-267.9 403.4,-255.34 379.38,-240.25 357.55,-226.54 335.42,-206.83 320.92,-192.94"/>
<polygon fill="#63b8ff" stroke="#63b8ff" points="323.63,-190.69 314.03,-186.21 318.73,-195.7 323.63,-190.69"/>
</a>
</g>
</g>
<!-- Node15 -->
<g id="Node000015" class="node">
<title>Node15</title>
<g id="a_Node000015"><a xlink:href="_sparse_system_8h.html" target="_top" xlink:title="SparseSystem source file.">
<polygon fill="white" stroke="#666666" points="666,-129.75 578.75,-129.75 578.75,-110.5 666,-110.5 666,-129.75"/>
<text text-anchor="middle" x="622.38" y="-116.25" font-family="Helvetica,sans-Serif" font-size="10.00">SparseSystem.h</text>
</a>
</g>
</g>
<!-- Node1&#45;&gt;Node15 -->
<g id="edge34_Node000001_Node000015" class="edge">
<title>Node1&#45;&gt;Node15</title>
<g id="a_edge34_Node000001_Node000015"><a xlink:title=" ">
<path fill="none" stroke="#63b8ff" d="M528.81,-275.83C550.76,-269.38 575.32,-258.49 591.38,-240.25 615.89,-212.39 621.41,-167.51 622.43,-141.52"/>
<polygon fill="#63b8ff" stroke="#63b8ff" points="625.92,-141.71 622.6,-131.65 618.92,-141.59 625.92,-141.71"/>
</a>
</g>
</g>
<!-- Node20 -->
<g id="Node000020" class="node">
<title>Node20</title>
<g id="a_Node000020"><a xlink:href="_blood_vessel_8h.html" target="_top" xlink:title="model::BloodVessel source file">
<polygon fill="white" stroke="#666666" points="466.5,-240.25 388.25,-240.25 388.25,-221 466.5,-221 466.5,-240.25"/>
<text text-anchor="middle" x="427.38" y="-226.75" font-family="Helvetica,sans-Serif" font-size="10.00">BloodVessel.h</text>
</a>
</g>
</g>
<!-- Node1&#45;&gt;Node20 -->
<g id="edge26_Node000001_Node000020" class="edge">
<title>Node1&#45;&gt;Node20</title>
<g id="a_edge26_Node000001_Node000020"><a xlink:title=" ">
<path fill="none" stroke="#63b8ff" d="M471.62,-276.08C464.23,-268.65 453.41,-257.79 444.33,-248.66"/>
<polygon fill="#63b8ff" stroke="#63b8ff" points="446.92,-246.3 437.38,-241.68 441.96,-251.24 446.92,-246.3"/>
</a>
</g>
</g>
<!-- Node22 -->
<g id="Node000022" class="node">
<title>Node22</title>
<g id="a_Node000022"><a xlink:href="_blood_vessel_c_r_l_8h.html" target="_top" xlink:title="model::BloodVesselCRL source file">
<polygon fill="white" stroke="#666666" points="582.25,-240.25 484.5,-240.25 484.5,-221 582.25,-221 582.25,-240.25"/>
<text text-anchor="middle" x="533.38" y="-226.75" font-family="Helvetica,sans-Serif" font-size="10.00">BloodVesselCRL.h</text>
</a>
</g>
</g>
<!-- Node1&#45;&gt;Node22 -->
<g id="edge30_Node000001_Node000022" class="edge">
<title>Node1&#45;&gt;Node22</title>
<g id="a_edge30_Node000001_Node000022"><a xlink:title=" ">
<path fill="none" stroke="#63b8ff" d="M489.13,-276.08C496.52,-268.65 507.34,-257.79 516.42,-248.66"/>
<polygon fill="#63b8ff" stroke="#63b8ff" points="518.79,-251.24 523.37,-241.68 513.83,-246.3 518.79,-251.24"/>
</a>
</g>
</g>
<!-- Node3 -->
<g id="Node000003" class="node">
<title>Node3</title>
<g id="a_Node000003"><a xlink:title=" ">
<polygon fill="#e0e0e0" stroke="#999999" points="202,-74.5 138.75,-74.5 138.75,-55.25 202,-55.25 202,-74.5"/>
<text text-anchor="middle" x="170.38" y="-61" font-family="Helvetica,sans-Serif" font-size="10.00">Eigen/Core</text>
</a>
</g>
</g>
<!-- Node2&#45;&gt;Node3 -->
<g id="edge2_Node000002_Node000003" class="edge">
<title>Node2&#45;&gt;Node3</title>
<g id="a_edge2_Node000002_Node000003"><a xlink:title=" ">
<path fill="none" stroke="#63b8ff" d="M280.12,-165.75C261.32,-158.24 235.37,-146.01 216.38,-129.75 201.47,-116.99 188.81,-98.44 180.57,-84.62"/>
<polygon fill="#63b8ff" stroke="#63b8ff" points="183.69,-83.02 175.7,-76.06 177.6,-86.48 183.69,-83.02"/>
</a>
</g>
</g>
<!-- Node4 -->
<g id="Node000004" class="node">
<title>Node4</title>
<g id="a_Node000004"><a xlink:title=" ">
<polygon fill="#e0e0e0" stroke="#999999" points="93.78,-129.75 64.97,-129.75 64.97,-110.5 93.78,-110.5 93.78,-129.75"/>
<text text-anchor="middle" x="79.38" y="-116.25" font-family="Helvetica,sans-Serif" font-size="10.00">list</text>
</a>
</g>
</g>
<!-- Node2&#45;&gt;Node4 -->
<g id="edge3_Node000002_Node000004" class="edge">
<title>Node2&#45;&gt;Node4</title>
<g id="a_edge3_Node000002_Node000004"><a xlink:title=" ">
<path fill="none" stroke="#63b8ff" d="M279.97,-169.47C242.6,-161.82 169.04,-146.21 107.38,-129.75 106.56,-129.53 105.74,-129.31 104.91,-129.08"/>
<polygon fill="#63b8ff" stroke="#63b8ff" points="106.17,-125.8 95.59,-126.33 104.19,-132.52 106.17,-125.8"/>
</a>
</g>
</g>
<!-- Node5 -->
<g id="Node000005" class="node">
<title>Node5</title>
<g id="a_Node000005"><a xlink:title=" ">
<polygon fill="#e0e0e0" stroke="#999999" points="192.75,-19.25 158,-19.25 158,0 192.75,0 192.75,-19.25"/>
<text text-anchor="middle" x="175.38" y="-5.75" font-family="Helvetica,sans-Serif" font-size="10.00">map</text>
</a>
</g>
</g>
<!-- Node2&#45;&gt;Node5 -->
<g id="edge4_Node000002_Node000005" class="edge">
<title>Node2&#45;&gt;Node5</title>
<g id="a_edge4_Node000002_Node000005"><a xlink:title=" ">
<path fill="none" stroke="#63b8ff" d="M280.06,-169.69C238.85,-160.21 157.05,-134.35 129.38,-74.5 121.16,-56.73 136.54,-38.84 151.69,-26.54"/>
<polygon fill="#63b8ff" stroke="#63b8ff" points="153.76,-29.36 159.66,-20.56 149.56,-23.76 153.76,-29.36"/>
</a>
</g>
</g>
<!-- Node6 -->
<g id="Node000006" class="node">
<title>Node6</title>
<g id="a_Node000006"><a xlink:title=" ">
<polygon fill="#e0e0e0" stroke="#999999" points="318.88,-19.25 275.88,-19.25 275.88,0 318.88,0 318.88,-19.25"/>
<text text-anchor="middle" x="297.38" y="-5.75" font-family="Helvetica,sans-Serif" font-size="10.00">vector</text>
</a>
</g>
</g>
<!-- Node2&#45;&gt;Node6 -->
<g id="edge5_Node000002_Node000006" class="edge">
<title>Node2&#45;&gt;Node6</title>
<g id="a_edge5_Node000002_Node000006"><a xlink:title=" ">
<path fill="none" stroke="#63b8ff" d="M297.36,-165.41C284.77,-148.69 258.79,-111.12 249.38,-74.5 247.24,-66.21 245.96,-63.09 249.38,-55.25 254.42,-43.67 264.11,-33.74 273.48,-26.21"/>
<polygon fill="#63b8ff" stroke="#63b8ff" points="275.37,-29.17 281.33,-20.41 271.21,-23.54 275.37,-29.17"/>
</a>
</g>
</g>
<!-- Node7 -->
<g id="Node000007" class="node">
<title>Node7</title>
<g id="a_Node000007"><a xlink:href="_block_type_8h.html" target="_top" xlink:title="Specifies the types of blocks and their parameters.">
<polygon fill="white" stroke="#666666" points="561,-129.75 491.75,-129.75 491.75,-110.5 561,-110.5 561,-129.75"/>
<text text-anchor="middle" x="526.38" y="-116.25" font-family="Helvetica,sans-Serif" font-size="10.00">BlockType.h</text>
</a>
</g>
</g>
<!-- Node2&#45;&gt;Node7 -->
<g id="edge6_Node000002_Node000007" class="edge">
<title>Node2&#45;&gt;Node7</title>
<g id="a_edge6_Node000002_Node000007"><a xlink:title=" ">
<path fill="none" stroke="#63b8ff" d="M328.98,-168.47C365.41,-159.74 434.31,-143.21 480.3,-132.18"/>
<polygon fill="#63b8ff" stroke="#63b8ff" points="481.08,-135.59 489.99,-129.85 479.45,-128.78 481.08,-135.59"/>
</a>
</g>
</g>
<!-- Node9 -->
<g id="Node000009" class="node">
<title>Node9</title>
<g id="a_Node000009"><a xlink:href="_d_o_f_handler_8h.html" target="_top" xlink:title="model::DOFHandler source file">
<polygon fill="white" stroke="#666666" points="336.12,-74.5 258.62,-74.5 258.62,-55.25 336.12,-55.25 336.12,-74.5"/>
<text text-anchor="middle" x="297.38" y="-61" font-family="Helvetica,sans-Serif" font-size="10.00">DOFHandler.h</text>
</a>
</g>
</g>
<!-- Node2&#45;&gt;Node9 -->
<g id="edge8_Node000002_Node000009" class="edge">
<title>Node2&#45;&gt;Node9</title>
<g id="a_edge8_Node000002_Node000009"><a xlink:title=" ">
<path fill="none" stroke="#63b8ff" d="M303.8,-165.5C302.69,-148.25 300.21,-109.83 298.68,-86.06"/>
<polygon fill="#63b8ff" stroke="#63b8ff" points="302.19,-86.14 298.05,-76.39 295.2,-86.59 302.19,-86.14"/>
</a>
</g>
</g>
<!-- Node10 -->
<g id="Node000010" class="node">
<title>Node10</title>
<g id="a_Node000010"><a xlink:href="_parameter_8h.html" target="_top" xlink:title="model::Parameter source file">
<polygon fill="white" stroke="#666666" points="473.62,-129.75 405.12,-129.75 405.12,-110.5 473.62,-110.5 473.62,-129.75"/>
<text text-anchor="middle" x="439.38" y="-116.25" font-family="Helvetica,sans-Serif" font-size="10.00">Parameter.h</text>
</a>
</g>
</g>
<!-- Node2&#45;&gt;Node10 -->
<g id="edge12_Node000002_Node000010" class="edge">
<title>Node2&#45;&gt;Node10</title>
<g id="a_edge12_Node000002_Node000010"><a xlink:title=" ">
<path fill="none" stroke="#63b8ff" d="M327.28,-165.34C348.8,-156.85 381.29,-144.04 405.75,-134.39"/>
<polygon fill="#63b8ff" stroke="#63b8ff" points="406.94,-137.68 414.95,-130.76 404.37,-131.17 406.94,-137.68"/>
</a>
</g>
</g>
<!-- Node2&#45;&gt;Node15 -->
<g id="edge19_Node000002_Node000015" class="edge">
<title>Node2&#45;&gt;Node15</title>
<g id="a_edge19_Node000002_Node000015"><a xlink:title=" ">
<path fill="none" stroke="#63b8ff" d="M328.8,-170.28C379.5,-161.8 497.25,-142.08 567.25,-130.36"/>
<polygon fill="#63b8ff" stroke="#63b8ff" points="567.69,-133.83 576.98,-128.73 566.54,-126.93 567.69,-133.83"/>
</a>
</g>
</g>
<!-- Node19 -->
<g id="Node000019" class="node">
<title>Node19</title>
<g id="a_Node000019"><a xlink:href="_state_8h.html" target="_top" xlink:title="State source file.">
<polygon fill="white" stroke="#666666" points="46.75,-129.75 0,-129.75 0,-110.5 46.75,-110.5 46.75,-129.75"/>
<text text-anchor="middle" x="23.38" y="-116.25" font-family="Helvetica,sans-Serif" font-size="10.00">State.h</text>
</a>
</g>
</g>
<!-- Node2&#45;&gt;Node19 -->
<g id="edge24_Node000002_Node000019" class="edge">
<title>Node2&#45;&gt;Node19</title>
<g id="a_edge24_Node000002_Node000019"><a xlink:title=" ">
<path fill="none" stroke="#63b8ff" d="M279.96,-170.63C237.18,-163.92 145.68,-148.97 58.3,-130.02"/>
<polygon fill="#63b8ff" stroke="#63b8ff" points="59.11,-126.61 48.59,-127.89 57.61,-133.45 59.11,-126.61"/>
</a>
</g>
</g>
<!-- Node8 -->
<g id="Node000008" class="node">
<title>Node8</title>
<g id="a_Node000008"><a xlink:title=" ">
<polygon fill="#e0e0e0" stroke="#999999" points="537.38,-19.25 497.38,-19.25 497.38,0 537.38,0 537.38,-19.25"/>
<text text-anchor="middle" x="517.38" y="-5.75" font-family="Helvetica,sans-Serif" font-size="10.00">string</text>
</a>
</g>
</g>
<!-- Node7&#45;&gt;Node8 -->
<g id="edge7_Node000007_Node000008" class="edge">
<title>Node7&#45;&gt;Node8</title>
<g id="a_edge7_Node000007_Node000008"><a xlink:title=" ">
<path fill="none" stroke="#63b8ff" d="M561.43,-112.08C596.51,-104.23 646.88,-90.52 658.38,-74.5 663.36,-67.55 663.43,-62.15 658.38,-55.25 633.45,-21.21 582.43,-12.48 549.08,-10.6"/>
<polygon fill="#63b8ff" stroke="#63b8ff" points="549.31,-7.11 539.19,-10.24 549.05,-14.1 549.31,-7.11"/>
</a>
</g>
</g>
<!-- Node9&#45;&gt;Node5 -->
<g id="edge9_Node000009_Node000005" class="edge">
<title>Node9&#45;&gt;Node5</title>
<g id="a_edge9_Node000009_Node000005"><a xlink:title=" ">
<path fill="none" stroke="#63b8ff" d="M276.68,-54.84C256.56,-46.06 225.84,-32.65 203.51,-22.91"/>
<polygon fill="#63b8ff" stroke="#63b8ff" points="204.95,-19.72 194.39,-18.92 202.15,-26.13 204.95,-19.72"/>
</a>
</g>
</g>
<!-- Node9&#45;&gt;Node6 -->
<g id="edge11_Node000009_Node000006" class="edge">
<title>Node9&#45;&gt;Node6</title>
<g id="a_edge11_Node000009_Node000006"><a xlink:title=" ">
<path fill="none" stroke="#63b8ff" d="M297.38,-55.08C297.38,-48.57 297.38,-39.42 297.38,-31.12"/>
<polygon fill="#63b8ff" stroke="#63b8ff" points="300.88,-31.12 297.38,-21.12 293.88,-31.12 300.88,-31.12"/>
</a>
</g>
</g>
<!-- Node9&#45;&gt;Node8 -->
<g id="edge10_Node000009_Node000008" class="edge">
<title>Node9&#45;&gt;Node8</title>
<g id="a_edge10_Node000009_Node000008"><a xlink:title=" ">
<path fill="none" stroke="#63b8ff" d="M334.7,-54.84C377.23,-44.55 446,-27.9 485.92,-18.24"/>
<polygon fill="#63b8ff" stroke="#63b8ff" points="486.71,-21.65 495.61,-15.89 485.07,-14.84 486.71,-21.65"/>
</a>
</g>
</g>
<!-- Node10&#45;&gt;Node6 -->
<g id="edge17_Node000010_Node000006" class="edge">
<title>Node10&#45;&gt;Node6</title>
<g id="a_edge17_Node000010_Node000006"><a xlink:title=" ">
<path fill="none" stroke="#63b8ff" d="M472.21,-110.08C500.96,-101.42 539.49,-87.74 548.38,-74.5 553.14,-67.4 553.87,-61.81 548.38,-55.25 520.93,-22.49 392.05,-13.76 330.39,-11.45"/>
<polygon fill="#63b8ff" stroke="#63b8ff" points="330.63,-7.96 320.52,-11.12 330.4,-14.95 330.63,-7.96"/>
</a>
</g>
</g>
<!-- Node10&#45;&gt;Node9 -->
<g id="edge18_Node000010_Node000009" class="edge">
<title>Node10&#45;&gt;Node9</title>
<g id="a_edge18_Node000010_Node000009"><a xlink:title=" ">
<path fill="none" stroke="#63b8ff" d="M415.29,-110.09C392.44,-101.52 357.86,-88.56 332.05,-78.88"/>
<polygon fill="#63b8ff" stroke="#63b8ff" points="333.59,-75.72 323,-75.48 331.13,-82.27 333.59,-75.72"/>
</a>
</g>
</g>
<!-- Node11 -->
<g id="Node000011" class="node">
<title>Node11</title>
<g id="a_Node000011"><a xlink:title=" ">
<polygon fill="#e0e0e0" stroke="#999999" points="410.25,-74.5 354.5,-74.5 354.5,-55.25 410.25,-55.25 410.25,-74.5"/>
<text text-anchor="middle" x="382.38" y="-61" font-family="Helvetica,sans-Serif" font-size="10.00">algorithm</text>
</a>
</g>
</g>
<!-- Node10&#45;&gt;Node11 -->
<g id="edge13_Node000010_Node000011" class="edge">
<title>Node10&#45;&gt;Node11</title>
<g id="a_edge13_Node000010_Node000011"><a xlink:title=" ">
<path fill="none" stroke="#63b8ff" d="M429.71,-110.09C421.63,-102.55 409.91,-91.6 400.15,-82.48"/>
<polygon fill="#63b8ff" stroke="#63b8ff" points="402.7,-80.08 393.01,-75.81 397.93,-85.19 402.7,-80.08"/>
</a>
</g>
</g>
<!-- Node12 -->
<g id="Node000012" class="node">
<title>Node12</title>
<g id="a_Node000012"><a xlink:title=" ">
<polygon fill="#e0e0e0" stroke="#999999" points="470.88,-74.5 427.88,-74.5 427.88,-55.25 470.88,-55.25 470.88,-74.5"/>
<text text-anchor="middle" x="449.38" y="-61" font-family="Helvetica,sans-Serif" font-size="10.00">cmath</text>
</a>
</g>
</g>
<!-- Node10&#45;&gt;Node12 -->
<g id="edge14_Node000010_Node000012" class="edge">
<title>Node10&#45;&gt;Node12</title>
<g id="a_edge14_Node000010_Node000012"><a xlink:title=" ">
<path fill="none" stroke="#63b8ff" d="M441.03,-110.33C442.26,-103.74 444.01,-94.46 445.58,-86.07"/>
<polygon fill="#63b8ff" stroke="#63b8ff" points="449,-86.82 447.41,-76.35 442.12,-85.53 449,-86.82"/>
</a>
</g>
</g>
<!-- Node13 -->
<g id="Node000013" class="node">
<title>Node13</title>
<g id="a_Node000013"><a xlink:title=" ">
<polygon fill="#e0e0e0" stroke="#999999" points="649.12,-74.5 595.62,-74.5 595.62,-55.25 649.12,-55.25 649.12,-74.5"/>
<text text-anchor="middle" x="622.38" y="-61" font-family="Helvetica,sans-Serif" font-size="10.00">iostream</text>
</a>
</g>
</g>
<!-- Node10&#45;&gt;Node13 -->
<g id="edge15_Node000010_Node000013" class="edge">
<title>Node10&#45;&gt;Node13</title>
<g id="a_edge15_Node000010_Node000013"><a xlink:title=" ">
<path fill="none" stroke="#63b8ff" d="M470.42,-110.09C501.93,-100.92 550.77,-86.71 584.54,-76.89"/>
<polygon fill="#63b8ff" stroke="#63b8ff" points="585.28,-80.31 593.91,-74.16 583.33,-73.59 585.28,-80.31"/>
</a>
</g>
</g>
<!-- Node14 -->
<g id="Node000014" class="node">
<title>Node14</title>
<g id="a_Node000014"><a xlink:title=" ">
<polygon fill="#e0e0e0" stroke="#999999" points="539.62,-74.5 489.12,-74.5 489.12,-55.25 539.62,-55.25 539.62,-74.5"/>
<text text-anchor="middle" x="514.38" y="-61" font-family="Helvetica,sans-Serif" font-size="10.00">numeric</text>
</a>
</g>
</g>
<!-- Node10&#45;&gt;Node14 -->
<g id="edge16_Node000010_Node000014" class="edge">
<title>Node10&#45;&gt;Node14</title>
<g id="a_edge16_Node000010_Node000014"><a xlink:title=" ">
<path fill="none" stroke="#63b8ff" d="M452.1,-110.09C463.09,-102.29 479.22,-90.84 492.31,-81.54"/>
<polygon fill="#63b8ff" stroke="#63b8ff" points="494.23,-84.47 500.36,-75.83 490.18,-78.76 494.23,-84.47"/>
</a>
</g>
</g>
<!-- Node15&#45;&gt;Node13 -->
<g id="edge22_Node000015_Node000013" class="edge">
<title>Node15&#45;&gt;Node13</title>
<g id="a_edge22_Node000015_Node000013"><a xlink:title=" ">
<path fill="none" stroke="#63b8ff" d="M622.38,-110.33C622.38,-103.82 622.38,-94.67 622.38,-86.37"/>
<polygon fill="#63b8ff" stroke="#63b8ff" points="625.88,-86.37 622.38,-76.37 618.88,-86.37 625.88,-86.37"/>
</a>
</g>
</g>
<!-- Node16 -->
<g id="Node000016" class="node">
<title>Node16</title>
<g id="a_Node000016"><a xlink:title=" ">
<polygon fill="#e0e0e0" stroke="#999999" points="953.25,-74.5 879.5,-74.5 879.5,-55.25 953.25,-55.25 953.25,-74.5"/>
<text text-anchor="middle" x="916.38" y="-61" font-family="Helvetica,sans-Serif" font-size="10.00">Eigen/Sparse</text>
</a>
</g>
</g>
<!-- Node15&#45;&gt;Node16 -->
<g id="edge20_Node000015_Node000016" class="edge">
<title>Node15&#45;&gt;Node16</title>
<g id="a_edge20_Node000015_Node000016"><a xlink:title=" ">
<path fill="none" stroke="#63b8ff" d="M666.3,-111.32C713.55,-102.9 791.24,-89 867.92,-74.94"/>
<polygon fill="#63b8ff" stroke="#63b8ff" points="868.53,-78.39 877.73,-73.14 867.27,-71.5 868.53,-78.39"/>
</a>
</g>
</g>
<!-- Node17 -->
<g id="Node000017" class="node">
<title>Node17</title>
<g id="a_Node000017"><a xlink:title=" ">
<polygon fill="#e0e0e0" stroke="#999999" points="793,-74.5 705.75,-74.5 705.75,-55.25 793,-55.25 793,-74.5"/>
<text text-anchor="middle" x="749.38" y="-61" font-family="Helvetica,sans-Serif" font-size="10.00">Eigen/SparseLU</text>
</a>
</g>
</g>
<!-- Node15&#45;&gt;Node17 -->
<g id="edge21_Node000015_Node000017" class="edge">
<title>Node15&#45;&gt;Node17</title>
<g id="a_edge21_Node000015_Node000017"><a xlink:title=" ">
<path fill="none" stroke="#63b8ff" d="M643.92,-110.09C663.99,-101.68 694.18,-89.02 717.12,-79.4"/>
<polygon fill="#63b8ff" stroke="#63b8ff" points="718.46,-82.63 726.33,-75.54 715.75,-76.18 718.46,-82.63"/>
</a>
</g>
</g>
<!-- Node18 -->
<g id="Node000018" class="node">
<title>Node18</title>
<g id="a_Node000018"><a xlink:title=" ">
<polygon fill="#e0e0e0" stroke="#999999" points="861.62,-74.5 811.12,-74.5 811.12,-55.25 861.62,-55.25 861.62,-74.5"/>
<text text-anchor="middle" x="836.38" y="-61" font-family="Helvetica,sans-Serif" font-size="10.00">memory</text>
</a>
</g>
</g>
<!-- Node15&#45;&gt;Node18 -->
<g id="edge23_Node000015_Node000018" class="edge">
<title>Node15&#45;&gt;Node18</title>
<g id="a_edge23_Node000015_Node000018"><a xlink:title=" ">
<path fill="none" stroke="#63b8ff" d="M659.28,-110.04C693.4,-101.62 745.81,-88.66 799.92,-75.11"/>
<polygon fill="#63b8ff" stroke="#63b8ff" points="800.44,-78.58 809.29,-72.76 798.74,-71.79 800.44,-78.58"/>
</a>
</g>
</g>
<!-- Node19&#45;&gt;Node3 -->
<g id="edge25_Node000019_Node000003" class="edge">
<title>Node19&#45;&gt;Node3</title>
<g id="a_edge25_Node000019_Node000003"><a xlink:title=" ">
<path fill="none" stroke="#63b8ff" d="M46.99,-110.57C70.68,-101.99 107.44,-88.67 134.68,-78.81"/>
<polygon fill="#63b8ff" stroke="#63b8ff" points="135.71,-82.16 143.92,-75.46 133.32,-75.57 135.71,-82.16"/>
</a>
</g>
</g>
<!-- Node20&#45;&gt;Node2 -->
<g id="edge28_Node000020_Node000002" class="edge">
<title>Node20&#45;&gt;Node2</title>
<g id="a_edge28_Node000020_Node000002"><a xlink:title=" ">
<path fill="none" stroke="#63b8ff" d="M406.51,-220.59C387.07,-212.18 357.83,-199.52 335.61,-189.9"/>
<polygon fill="#63b8ff" stroke="#63b8ff" points="337.3,-186.81 326.73,-186.05 334.52,-193.24 337.3,-186.81"/>
</a>
</g>
</g>
<!-- Node20&#45;&gt;Node15 -->
<g id="edge29_Node000020_Node000015" class="edge">
<title>Node20&#45;&gt;Node15</title>
<g id="a_edge29_Node000020_Node000015"><a xlink:title=" ">
<path fill="none" stroke="#63b8ff" d="M431.24,-220.77C437.73,-206.94 452.11,-180.32 472.38,-165.75 488.17,-154.4 533.22,-141.78 569.86,-132.87"/>
<polygon fill="#63b8ff" stroke="#63b8ff" points="570.54,-136.31 579.45,-130.58 568.91,-129.5 570.54,-136.31"/>
</a>
</g>
</g>
<!-- Node21 -->
<g id="Node000021" class="node">
<title>Node21</title>
<g id="a_Node000021"><a xlink:title=" ">
<polygon fill="#e0e0e0" stroke="#999999" points="527,-185 481.75,-185 481.75,-165.75 527,-165.75 527,-185"/>
<text text-anchor="middle" x="504.38" y="-171.5" font-family="Helvetica,sans-Serif" font-size="10.00">math.h</text>
</a>
</g>
</g>
<!-- Node20&#45;&gt;Node21 -->
<g id="edge27_Node000020_Node000021" class="edge">
<title>Node20&#45;&gt;Node21</title>
<g id="a_edge27_Node000020_Node000021"><a xlink:title=" ">
<path fill="none" stroke="#63b8ff" d="M440.44,-220.59C451.83,-212.71 468.6,-201.11 482.11,-191.77"/>
<polygon fill="#63b8ff" stroke="#63b8ff" points="483.77,-194.88 490,-186.31 479.79,-189.12 483.77,-194.88"/>
</a>
</g>
</g>
<!-- Node22&#45;&gt;Node2 -->
<g id="edge32_Node000022_Node000002" class="edge">
<title>Node22&#45;&gt;Node2</title>
<g id="a_edge32_Node000022_Node000002"><a xlink:title=" ">
<path fill="none" stroke="#63b8ff" d="M494.27,-220.53C450.95,-210.46 381.71,-194.36 339.89,-184.63"/>
<polygon fill="#63b8ff" stroke="#63b8ff" points="340.87,-181.27 330.34,-182.41 339.29,-188.09 340.87,-181.27"/>
</a>
</g>
</g>
<!-- Node22&#45;&gt;Node15 -->
<g id="edge33_Node000022_Node000015" class="edge">
<title>Node22&#45;&gt;Node15</title>
<g id="a_edge33_Node000022_Node000015"><a xlink:title=" ">
<path fill="none" stroke="#63b8ff" d="M540.66,-220.75C555.33,-202.86 588.66,-162.22 607.92,-138.75"/>
<polygon fill="#63b8ff" stroke="#63b8ff" points="610.4,-141.25 614.03,-131.3 604.98,-136.81 610.4,-141.25"/>
</a>
</g>
</g>
<!-- Node22&#45;&gt;Node21 -->
<g id="edge31_Node000022_Node000021" class="edge">
<title>Node22&#45;&gt;Node21</title>
<g id="a_edge31_Node000022_Node000021"><a xlink:title=" ">
<path fill="none" stroke="#63b8ff" d="M528.59,-220.83C524.83,-213.94 519.47,-204.09 514.74,-195.41"/>
<polygon fill="#63b8ff" stroke="#63b8ff" points="517.85,-193.8 509.99,-186.69 511.7,-197.14 517.85,-193.8"/>
</a>
</g>
</g>
</g>
</svg>
