<?xml version="1.0" encoding="UTF-8" standalone="no"?>
<!DOCTYPE svg PUBLIC "-//W3C//DTD SVG 1.1//EN"
 "http://www.w3.org/Graphics/SVG/1.1/DTD/svg11.dtd">
<!-- Generated by graphviz version 9.0.0 (20230911.1827)
 -->
<!-- Title: model/BloodVesselJunction.h Pages: 1 -->
<svg width="834pt" height="304pt"
 viewBox="0.00 0.00 833.50 303.50" xmlns="http://www.w3.org/2000/svg" xmlns:xlink="http://www.w3.org/1999/xlink">
<g id="graph0" class="graph" transform="scale(1 1) rotate(0) translate(4 299.5)">
<title>model/BloodVesselJunction.h</title>
<!-- Node1 -->
<g id="Node000001" class="node">
<title>Node1</title>
<g id="a_Node000001"><a xlink:title="model::BloodVesselJunction source file">
<polygon fill="#999999" stroke="#666666" points="538.75,-295.5 394.5,-295.5 394.5,-276.25 538.75,-276.25 538.75,-295.5"/>
<text text-anchor="middle" x="466.62" y="-282" font-family="Helvetica,sans-Serif" font-size="10.00">model/BloodVesselJunction.h</text>
</a>
</g>
</g>
<!-- Node2 -->
<g id="Node000002" class="node">
<title>Node2</title>
<g id="a_Node000002"><a xlink:href="_block_8h.html" target="_top" xlink:title="model::Block source file">
<polygon fill="white" stroke="#666666" points="318.75,-185 270.5,-185 270.5,-165.75 318.75,-165.75 318.75,-185"/>
<text text-anchor="middle" x="294.62" y="-171.5" font-family="Helvetica,sans-Serif" font-size="10.00">Block.h</text>
</a>
</g>
</g>
<!-- Node1&#45;&gt;Node2 -->
<g id="edge1_Node000001_Node000002" class="edge">
<title>Node1&#45;&gt;Node2</title>
<g id="a_edge1_Node000001_Node000002"><a xlink:title=" ">
<path fill="none" stroke="#63b8ff" d="M452.26,-275.81C422.59,-257.1 354.31,-214.03 318.13,-191.2"/>
<polygon fill="#63b8ff" stroke="#63b8ff" points="320.44,-188.52 310.11,-186.14 316.7,-194.44 320.44,-188.52"/>
</a>
</g>
</g>
<!-- Node13 -->
<g id="Node000013" class="node">
<title>Node13</title>
<g id="a_Node000013"><a xlink:href="_sparse_system_8h.html" target="_top" xlink:title="SparseSystem source file.">
<polygon fill="white" stroke="#666666" points="594.25,-129.75 507,-129.75 507,-110.5 594.25,-110.5 594.25,-129.75"/>
<text text-anchor="middle" x="550.62" y="-116.25" font-family="Helvetica,sans-Serif" font-size="10.00">SparseSystem.h</text>
</a>
</g>
</g>
<!-- Node1&#45;&gt;Node13 -->
<g id="edge26_Node000001_Node000013" class="edge">
<title>Node1&#45;&gt;Node13</title>
<g id="a_edge26_Node000001_Node000013"><a xlink:title=" ">
<path fill="none" stroke="#63b8ff" d="M479.42,-276.03C490.27,-267.91 505.47,-254.92 514.62,-240.25 534.19,-208.87 543.69,-166.2 547.83,-141.36"/>
<polygon fill="#63b8ff" stroke="#63b8ff" points="551.27,-142.06 549.31,-131.65 544.35,-141.01 551.27,-142.06"/>
</a>
</g>
</g>
<!-- Node18 -->
<g id="Node000018" class="node">
<title>Node18</title>
<g id="a_Node000018"><a xlink:href="_blood_vessel_8h.html" target="_top" xlink:title="model::BloodVessel source file">
<polygon fill="white" stroke="#666666" points="505.75,-240.25 427.5,-240.25 427.5,-221 505.75,-221 505.75,-240.25"/>
<text text-anchor="middle" x="466.62" y="-226.75" font-family="Helvetica,sans-Serif" font-size="10.00">BloodVessel.h</text>
</a>
</g>
</g>
<!-- Node1&#45;&gt;Node18 -->
<g id="edge22_Node000001_Node000018" class="edge">
<title>Node1&#45;&gt;Node18</title>
<g id="a_edge22_Node000001_Node000018"><a xlink:title=" ">
<path fill="none" stroke="#63b8ff" d="M466.62,-276.08C466.62,-269.57 466.62,-260.42 466.62,-252.12"/>
<polygon fill="#63b8ff" stroke="#63b8ff" points="470.13,-252.12 466.63,-242.12 463.13,-252.12 470.13,-252.12"/>
</a>
</g>
</g>
<!-- Node3 -->
<g id="Node000003" class="node">
<title>Node3</title>
<g id="a_Node000003"><a xlink:title=" ">
<polygon fill="#e0e0e0" stroke="#999999" points="63.25,-129.75 0,-129.75 0,-110.5 63.25,-110.5 63.25,-129.75"/>
<text text-anchor="middle" x="31.62" y="-116.25" font-family="Helvetica,sans-Serif" font-size="10.00">Eigen/Core</text>
</a>
</g>
</g>
<!-- Node2&#45;&gt;Node3 -->
<g id="edge2_Node000002_Node000003" class="edge">
<title>Node2&#45;&gt;Node3</title>
<g id="a_edge2_Node000002_Node000003"><a xlink:title=" ">
<path fill="none" stroke="#63b8ff" d="M270.3,-169.56C231.28,-161.82 151.99,-146.02 74.34,-130.09"/>
<polygon fill="#63b8ff" stroke="#63b8ff" points="75.39,-126.73 64.89,-128.14 73.98,-133.59 75.39,-126.73"/>
</a>
</g>
</g>
<!-- Node4 -->
<g id="Node000004" class="node">
<title>Node4</title>
<g id="a_Node000004"><a xlink:title=" ">
<polygon fill="#e0e0e0" stroke="#999999" points="110.03,-129.75 81.22,-129.75 81.22,-110.5 110.03,-110.5 110.03,-129.75"/>
<text text-anchor="middle" x="95.62" y="-116.25" font-family="Helvetica,sans-Serif" font-size="10.00">list</text>
</a>
</g>
</g>
<!-- Node2&#45;&gt;Node4 -->
<g id="edge3_Node000002_Node000004" class="edge">
<title>Node2&#45;&gt;Node4</title>
<g id="a_edge3_Node000002_Node000004"><a xlink:title=" ">
<path fill="none" stroke="#63b8ff" d="M270.18,-168.35C236.91,-160.07 175.57,-144.52 123.62,-129.75 122.82,-129.52 122,-129.28 121.17,-129.04"/>
<polygon fill="#63b8ff" stroke="#63b8ff" points="122.45,-125.77 111.86,-126.25 120.43,-132.48 122.45,-125.77"/>
</a>
</g>
</g>
<!-- Node5 -->
<g id="Node000005" class="node">
<title>Node5</title>
<g id="a_Node000005"><a xlink:title=" ">
<polygon fill="#e0e0e0" stroke="#999999" points="168,-19.25 133.25,-19.25 133.25,0 168,0 168,-19.25"/>
<text text-anchor="middle" x="150.62" y="-5.75" font-family="Helvetica,sans-Serif" font-size="10.00">map</text>
</a>
</g>
</g>
<!-- Node2&#45;&gt;Node5 -->
<g id="edge4_Node000002_Node000005" class="edge">
<title>Node2&#45;&gt;Node5</title>
<g id="a_edge4_Node000002_Node000005"><a xlink:title=" ">
<path fill="none" stroke="#63b8ff" d="M270.25,-174.31C238.39,-172.78 183.52,-164.82 156.62,-129.75 134.64,-101.08 139.83,-56.17 145.37,-30.46"/>
<polygon fill="#63b8ff" stroke="#63b8ff" points="148.71,-31.55 147.65,-21.01 141.9,-29.91 148.71,-31.55"/>
</a>
</g>
</g>
<!-- Node6 -->
<g id="Node000006" class="node">
<title>Node6</title>
<g id="a_Node000006"><a xlink:title=" ">
<polygon fill="#e0e0e0" stroke="#999999" points="331.12,-19.25 288.12,-19.25 288.12,0 331.12,0 331.12,-19.25"/>
<text text-anchor="middle" x="309.62" y="-5.75" font-family="Helvetica,sans-Serif" font-size="10.00">vector</text>
</a>
</g>
</g>
<!-- Node2&#45;&gt;Node6 -->
<g id="edge5_Node000002_Node000006" class="edge">
<title>Node2&#45;&gt;Node6</title>
<g id="a_edge5_Node000002_Node000006"><a xlink:title=" ">
<path fill="none" stroke="#63b8ff" d="M316.28,-165.31C332.35,-157.72 353.92,-145.58 368.62,-129.75 387.36,-109.58 390.23,-101.28 396.62,-74.5 398.61,-66.18 401.09,-62.55 396.62,-55.25 384.86,-36 361.86,-24.71 342.46,-18.3"/>
<polygon fill="#63b8ff" stroke="#63b8ff" points="343.6,-14.99 333.02,-15.5 341.61,-21.7 343.6,-14.99"/>
</a>
</g>
</g>
<!-- Node7 -->
<g id="Node000007" class="node">
<title>Node7</title>
<g id="a_Node000007"><a xlink:href="_block_type_8h.html" target="_top" xlink:title="Specifies the types of blocks and their parameters.">
<polygon fill="white" stroke="#666666" points="235.25,-129.75 166,-129.75 166,-110.5 235.25,-110.5 235.25,-129.75"/>
<text text-anchor="middle" x="200.62" y="-116.25" font-family="Helvetica,sans-Serif" font-size="10.00">BlockType.h</text>
</a>
</g>
</g>
<!-- Node2&#45;&gt;Node7 -->
<g id="edge6_Node000002_Node000007" class="edge">
<title>Node2&#45;&gt;Node7</title>
<g id="a_edge6_Node000002_Node000007"><a xlink:title=" ">
<path fill="none" stroke="#63b8ff" d="M278.68,-165.34C264.36,-157.23 243.09,-145.18 226.37,-135.71"/>
<polygon fill="#63b8ff" stroke="#63b8ff" points="228.39,-132.83 217.97,-130.95 224.94,-138.92 228.39,-132.83"/>
</a>
</g>
</g>
<!-- Node9 -->
<g id="Node000009" class="node">
<title>Node9</title>
<g id="a_Node000009"><a xlink:href="_d_o_f_handler_8h.html" target="_top" xlink:title="model::DOFHandler source file">
<polygon fill="white" stroke="#666666" points="281.38,-74.5 203.88,-74.5 203.88,-55.25 281.38,-55.25 281.38,-74.5"/>
<text text-anchor="middle" x="242.62" y="-61" font-family="Helvetica,sans-Serif" font-size="10.00">DOFHandler.h</text>
</a>
</g>
</g>
<!-- Node2&#45;&gt;Node9 -->
<g id="edge8_Node000002_Node000009" class="edge">
<title>Node2&#45;&gt;Node9</title>
<g id="a_edge8_Node000002_Node000009"><a xlink:title=" ">
<path fill="none" stroke="#63b8ff" d="M290.37,-165.5C281.99,-148.01 263.18,-108.77 251.83,-85.09"/>
<polygon fill="#63b8ff" stroke="#63b8ff" points="255.07,-83.75 247.59,-76.24 248.76,-86.77 255.07,-83.75"/>
</a>
</g>
</g>
<!-- Node10 -->
<g id="Node000010" class="node">
<title>Node10</title>
<g id="a_Node000010"><a xlink:href="_parameter_8h.html" target="_top" xlink:title="model::Parameter source file">
<polygon fill="white" stroke="#666666" points="359.88,-129.75 291.38,-129.75 291.38,-110.5 359.88,-110.5 359.88,-129.75"/>
<text text-anchor="middle" x="325.62" y="-116.25" font-family="Helvetica,sans-Serif" font-size="10.00">Parameter.h</text>
</a>
</g>
</g>
<!-- Node2&#45;&gt;Node10 -->
<g id="edge12_Node000002_Node000010" class="edge">
<title>Node2&#45;&gt;Node10</title>
<g id="a_edge12_Node000002_Node000010"><a xlink:title=" ">
<path fill="none" stroke="#63b8ff" d="M299.74,-165.58C303.8,-158.61 309.62,-148.62 314.71,-139.87"/>
<polygon fill="#63b8ff" stroke="#63b8ff" points="317.63,-141.82 319.63,-131.42 311.58,-138.3 317.63,-141.82"/>
</a>
</g>
</g>
<!-- Node2&#45;&gt;Node13 -->
<g id="edge17_Node000002_Node000013" class="edge">
<title>Node2&#45;&gt;Node13</title>
<g id="a_edge17_Node000002_Node000013"><a xlink:title=" ">
<path fill="none" stroke="#63b8ff" d="M319.17,-169.27C359.6,-160.86 441.14,-143.9 495.83,-132.52"/>
<polygon fill="#63b8ff" stroke="#63b8ff" points="496.51,-135.96 505.58,-130.49 495.08,-129.1 496.51,-135.96"/>
</a>
</g>
</g>
<!-- Node8 -->
<g id="Node000008" class="node">
<title>Node8</title>
<g id="a_Node000008"><a xlink:title=" ">
<polygon fill="#e0e0e0" stroke="#999999" points="237.62,-19.25 197.62,-19.25 197.62,0 237.62,0 237.62,-19.25"/>
<text text-anchor="middle" x="217.62" y="-5.75" font-family="Helvetica,sans-Serif" font-size="10.00">string</text>
</a>
</g>
</g>
<!-- Node7&#45;&gt;Node8 -->
<g id="edge7_Node000007_Node000008" class="edge">
<title>Node7&#45;&gt;Node8</title>
<g id="a_edge7_Node000007_Node000008"><a xlink:title=" ">
<path fill="none" stroke="#63b8ff" d="M197.99,-110.32C194.68,-97.87 189.95,-74.52 194.62,-55.25 196.8,-46.27 201.12,-37.07 205.44,-29.38"/>
<polygon fill="#63b8ff" stroke="#63b8ff" points="208.34,-31.35 210.52,-20.98 202.35,-27.72 208.34,-31.35"/>
</a>
</g>
</g>
<!-- Node9&#45;&gt;Node5 -->
<g id="edge9_Node000009_Node000005" class="edge">
<title>Node9&#45;&gt;Node5</title>
<g id="a_edge9_Node000009_Node000005"><a xlink:title=" ">
<path fill="none" stroke="#63b8ff" d="M227.02,-54.84C213.01,-46.73 192.19,-34.68 175.82,-25.21"/>
<polygon fill="#63b8ff" stroke="#63b8ff" points="178.03,-22.44 167.62,-20.46 174.52,-28.5 178.03,-22.44"/>
</a>
</g>
</g>
<!-- Node9&#45;&gt;Node6 -->
<g id="edge11_Node000009_Node000006" class="edge">
<title>Node9&#45;&gt;Node6</title>
<g id="a_edge11_Node000009_Node000006"><a xlink:title=" ">
<path fill="none" stroke="#63b8ff" d="M253.99,-54.84C263.67,-47.15 277.82,-35.9 289.43,-26.68"/>
<polygon fill="#63b8ff" stroke="#63b8ff" points="291.59,-29.43 297.24,-20.47 287.24,-23.95 291.59,-29.43"/>
</a>
</g>
</g>
<!-- Node9&#45;&gt;Node8 -->
<g id="edge10_Node000009_Node000008" class="edge">
<title>Node9&#45;&gt;Node8</title>
<g id="a_edge10_Node000009_Node000008"><a xlink:title=" ">
<path fill="none" stroke="#63b8ff" d="M238.5,-55.08C235.3,-48.26 230.74,-38.56 226.7,-29.95"/>
<polygon fill="#63b8ff" stroke="#63b8ff" points="229.9,-28.54 222.49,-20.98 223.57,-31.52 229.9,-28.54"/>
</a>
</g>
</g>
<!-- Node10&#45;&gt;Node6 -->
<g id="edge15_Node000010_Node000006" class="edge">
<title>Node10&#45;&gt;Node6</title>
<g id="a_edge15_Node000010_Node000006"><a xlink:title=" ">
<path fill="none" stroke="#63b8ff" d="M324.32,-110.25C321.77,-93 316.11,-54.58 312.6,-30.81"/>
<polygon fill="#63b8ff" stroke="#63b8ff" points="316.09,-30.51 311.17,-21.12 309.17,-31.53 316.09,-30.51"/>
</a>
</g>
</g>
<!-- Node10&#45;&gt;Node9 -->
<g id="edge16_Node000010_Node000009" class="edge">
<title>Node10&#45;&gt;Node9</title>
<g id="a_edge16_Node000010_Node000009"><a xlink:title=" ">
<path fill="none" stroke="#63b8ff" d="M311.55,-110.09C299.14,-102.14 280.83,-90.39 266.2,-81"/>
<polygon fill="#63b8ff" stroke="#63b8ff" points="268.35,-78.22 258.05,-75.77 264.57,-84.12 268.35,-78.22"/>
</a>
</g>
</g>
<!-- Node11 -->
<g id="Node000011" class="node">
<title>Node11</title>
<g id="a_Node000011"><a xlink:title=" ">
<polygon fill="#e0e0e0" stroke="#999999" points="489.25,-74.5 444,-74.5 444,-55.25 489.25,-55.25 489.25,-74.5"/>
<text text-anchor="middle" x="466.62" y="-61" font-family="Helvetica,sans-Serif" font-size="10.00">math.h</text>
</a>
</g>
</g>
<!-- Node10&#45;&gt;Node11 -->
<g id="edge13_Node000010_Node000011" class="edge">
<title>Node10&#45;&gt;Node11</title>
<g id="a_edge13_Node000010_Node000011"><a xlink:title=" ">
<path fill="none" stroke="#63b8ff" d="M349.54,-110.09C372.4,-101.46 407.09,-88.36 432.78,-78.66"/>
<polygon fill="#63b8ff" stroke="#63b8ff" points="433.99,-81.94 442.11,-75.13 431.52,-75.39 433.99,-81.94"/>
</a>
</g>
</g>
<!-- Node12 -->
<g id="Node000012" class="node">
<title>Node12</title>
<g id="a_Node000012"><a xlink:title=" ">
<polygon fill="#e0e0e0" stroke="#999999" points="387.88,-74.5 337.38,-74.5 337.38,-55.25 387.88,-55.25 387.88,-74.5"/>
<text text-anchor="middle" x="362.62" y="-61" font-family="Helvetica,sans-Serif" font-size="10.00">numeric</text>
</a>
</g>
</g>
<!-- Node10&#45;&gt;Node12 -->
<g id="edge14_Node000010_Node000012" class="edge">
<title>Node10&#45;&gt;Node12</title>
<g id="a_edge14_Node000010_Node000012"><a xlink:title=" ">
<path fill="none" stroke="#63b8ff" d="M331.73,-110.33C336.69,-103.21 343.83,-92.93 350,-84.05"/>
<polygon fill="#63b8ff" stroke="#63b8ff" points="352.69,-86.31 355.52,-76.1 346.94,-82.32 352.69,-86.31"/>
</a>
</g>
</g>
<!-- Node14 -->
<g id="Node000014" class="node">
<title>Node14</title>
<g id="a_Node000014"><a xlink:title=" ">
<polygon fill="#e0e0e0" stroke="#999999" points="825.5,-74.5 751.75,-74.5 751.75,-55.25 825.5,-55.25 825.5,-74.5"/>
<text text-anchor="middle" x="788.62" y="-61" font-family="Helvetica,sans-Serif" font-size="10.00">Eigen/Sparse</text>
</a>
</g>
</g>
<!-- Node13&#45;&gt;Node14 -->
<g id="edge18_Node000013_Node000014" class="edge">
<title>Node13&#45;&gt;Node14</title>
<g id="a_edge18_Node000013_Node000014"><a xlink:title=" ">
<path fill="none" stroke="#63b8ff" d="M591.27,-110.03C632.55,-100.8 696.48,-86.49 740.32,-76.68"/>
<polygon fill="#63b8ff" stroke="#63b8ff" points="740.81,-80.16 749.81,-74.56 739.29,-73.33 740.81,-80.16"/>
</a>
</g>
</g>
<!-- Node15 -->
<g id="Node000015" class="node">
<title>Node15</title>
<g id="a_Node000015"><a xlink:title=" ">
<polygon fill="#e0e0e0" stroke="#999999" points="594.25,-74.5 507,-74.5 507,-55.25 594.25,-55.25 594.25,-74.5"/>
<text text-anchor="middle" x="550.62" y="-61" font-family="Helvetica,sans-Serif" font-size="10.00">Eigen/SparseLU</text>
</a>
</g>
</g>
<!-- Node13&#45;&gt;Node15 -->
<g id="edge19_Node000013_Node000015" class="edge">
<title>Node13&#45;&gt;Node15</title>
<g id="a_edge19_Node000013_Node000015"><a xlink:title=" ">
<path fill="none" stroke="#63b8ff" d="M550.62,-110.33C550.62,-103.82 550.62,-94.67 550.62,-86.37"/>
<polygon fill="#63b8ff" stroke="#63b8ff" points="554.13,-86.37 550.63,-76.37 547.13,-86.37 554.13,-86.37"/>
</a>
</g>
</g>
<!-- Node16 -->
<g id="Node000016" class="node">
<title>Node16</title>
<g id="a_Node000016"><a xlink:title=" ">
<polygon fill="#e0e0e0" stroke="#999999" points="665.38,-74.5 611.88,-74.5 611.88,-55.25 665.38,-55.25 665.38,-74.5"/>
<text text-anchor="middle" x="638.62" y="-61" font-family="Helvetica,sans-Serif" font-size="10.00">iostream</text>
</a>
</g>
</g>
<!-- Node13&#45;&gt;Node16 -->
<g id="edge20_Node000013_Node000016" class="edge">
<title>Node13&#45;&gt;Node16</title>
<g id="a_edge20_Node000013_Node000016"><a xlink:title=" ">
<path fill="none" stroke="#63b8ff" d="M565.55,-110.09C578.83,-102.06 598.49,-90.16 614.08,-80.73"/>
<polygon fill="#63b8ff" stroke="#63b8ff" points="615.59,-83.91 622.33,-75.74 611.96,-77.92 615.59,-83.91"/>
</a>
</g>
</g>
<!-- Node17 -->
<g id="Node000017" class="node">
<title>Node17</title>
<g id="a_Node000017"><a xlink:title=" ">
<polygon fill="#e0e0e0" stroke="#999999" points="733.88,-74.5 683.38,-74.5 683.38,-55.25 733.88,-55.25 733.88,-74.5"/>
<text text-anchor="middle" x="708.62" y="-61" font-family="Helvetica,sans-Serif" font-size="10.00">memory</text>
</a>
</g>
</g>
<!-- Node13&#45;&gt;Node17 -->
<g id="edge21_Node000013_Node000017" class="edge">
<title>Node13&#45;&gt;Node17</title>
<g id="a_edge21_Node000013_Node000017"><a xlink:title=" ">
<path fill="none" stroke="#63b8ff" d="M577.43,-110.09C603.47,-101.32 643.2,-87.93 672.12,-78.18"/>
<polygon fill="#63b8ff" stroke="#63b8ff" points="673.21,-81.5 681.57,-74.99 670.97,-74.87 673.21,-81.5"/>
</a>
</g>
</g>
<!-- Node18&#45;&gt;Node2 -->
<g id="edge24_Node000018_Node000002" class="edge">
<title>Node18&#45;&gt;Node2</title>
<g id="a_edge24_Node000018_Node000002"><a xlink:title=" ">
<path fill="none" stroke="#63b8ff" d="M437.45,-220.59C407.83,-211.42 361.93,-197.21 330.2,-187.39"/>
<polygon fill="#63b8ff" stroke="#63b8ff" points="331.23,-184.05 320.65,-184.43 329.16,-190.73 331.23,-184.05"/>
</a>
</g>
</g>
<!-- Node18&#45;&gt;Node11 -->
<g id="edge23_Node000018_Node000011" class="edge">
<title>Node18&#45;&gt;Node11</title>
<g id="a_edge23_Node000018_Node000011"><a xlink:title=" ">
<path fill="none" stroke="#63b8ff" d="M466.62,-220.82C466.62,-195.5 466.62,-122 466.62,-86.09"/>
<polygon fill="#63b8ff" stroke="#63b8ff" points="470.13,-86.24 466.63,-76.24 463.13,-86.24 470.13,-86.24"/>
</a>
</g>
</g>
<!-- Node18&#45;&gt;Node13 -->
<g id="edge25_Node000018_Node000013" class="edge">
<title>Node18&#45;&gt;Node13</title>
<g id="a_edge25_Node000018_Node000013"><a xlink:title=" ">
<path fill="none" stroke="#63b8ff" d="M473.5,-220.75C487.28,-202.94 518.53,-162.58 536.74,-139.06"/>
<polygon fill="#63b8ff" stroke="#63b8ff" points="539.38,-141.37 542.73,-131.32 533.84,-137.09 539.38,-141.37"/>
</a>
</g>
</g>
</g>
</svg>
