<?xml version="1.0" encoding="UTF-8" standalone="no"?>
<!DOCTYPE svg PUBLIC "-//W3C//DTD SVG 1.1//EN"
 "http://www.w3.org/Graphics/SVG/1.1/DTD/svg11.dtd">
<!-- Generated by graphviz version 12.2.1 (20241206.2353)
 -->
<!-- Title: model/BloodVesselJunction.h Pages: 1 -->
<svg width="841pt" height="304pt"
 viewBox="0.00 0.00 840.92 303.50" xmlns="http://www.w3.org/2000/svg" xmlns:xlink="http://www.w3.org/1999/xlink">
<g id="graph0" class="graph" transform="scale(1 1) rotate(0) translate(4 299.5)">
<title>model/BloodVesselJunction.h</title>
<!-- Node1 -->
<g id="Node000001" class="node">
<title>Node1</title>
<g id="a_Node000001"><a xlink:title="model::BloodVesselJunction source file">
<polygon fill="#999999" stroke="#666666" points="562.42,-295.5 418.17,-295.5 418.17,-276.25 562.42,-276.25 562.42,-295.5"/>
<text text-anchor="middle" x="490.29" y="-282" font-family="Helvetica,sans-Serif" font-size="10.00">model/BloodVesselJunction.h</text>
</a>
</g>
</g>
<!-- Node2 -->
<g id="Node000002" class="node">
<title>Node2</title>
<g id="a_Node000002"><a xlink:href="_block_8h.html" target="_top" xlink:title="model::Block source file">
<polygon fill="white" stroke="#666666" points="385.42,-185 337.17,-185 337.17,-165.75 385.42,-165.75 385.42,-185"/>
<text text-anchor="middle" x="361.29" y="-171.5" font-family="Helvetica,sans-Serif" font-size="10.00">Block.h</text>
</a>
</g>
</g>
<!-- Node1&#45;&gt;Node2 -->
<g id="edge1_Node000001_Node000002" class="edge">
<title>Node1&#45;&gt;Node2</title>
<g id="a_edge1_Node000001_Node000002"><a xlink:title=" ">
<path fill="none" stroke="#63b8ff" d="M479.73,-276C458.1,-257.8 408.43,-216.02 380.77,-192.76"/>
<polygon fill="#63b8ff" stroke="#63b8ff" points="383.06,-190.11 373.15,-186.35 378.55,-195.47 383.06,-190.11"/>
</a>
</g>
</g>
<!-- Node15 -->
<g id="Node000015" class="node">
<title>Node15</title>
<g id="a_Node000015"><a xlink:href="_sparse_system_8h.html" target="_top" xlink:title="SparseSystem source file.">
<polygon fill="white" stroke="#666666" points="646.92,-129.75 559.67,-129.75 559.67,-110.5 646.92,-110.5 646.92,-129.75"/>
<text text-anchor="middle" x="603.29" y="-116.25" font-family="Helvetica,sans-Serif" font-size="10.00">SparseSystem.h</text>
</a>
</g>
</g>
<!-- Node1&#45;&gt;Node15 -->
<g id="edge30_Node000001_Node000015" class="edge">
<title>Node1&#45;&gt;Node15</title>
<g id="a_edge30_Node000001_Node000015"><a xlink:title=" ">
<path fill="none" stroke="#63b8ff" d="M491.57,-276.1C493.73,-263.3 498.91,-239.05 509.29,-221 528.84,-187.02 562.12,-155.44 583.39,-137.22"/>
<polygon fill="#63b8ff" stroke="#63b8ff" points="585.38,-140.13 590.8,-131.02 580.88,-134.76 585.38,-140.13"/>
</a>
</g>
</g>
<!-- Node20 -->
<g id="Node000020" class="node">
<title>Node20</title>
<g id="a_Node000020"><a xlink:href="_blood_vessel_8h.html" target="_top" xlink:title="model::BloodVessel source file">
<polygon fill="white" stroke="#666666" points="596.42,-240.25 518.17,-240.25 518.17,-221 596.42,-221 596.42,-240.25"/>
<text text-anchor="middle" x="557.29" y="-226.75" font-family="Helvetica,sans-Serif" font-size="10.00">BloodVessel.h</text>
</a>
</g>
</g>
<!-- Node1&#45;&gt;Node20 -->
<g id="edge26_Node000001_Node000020" class="edge">
<title>Node1&#45;&gt;Node20</title>
<g id="a_edge26_Node000001_Node000020"><a xlink:title=" ">
<path fill="none" stroke="#63b8ff" d="M501.66,-275.84C511.34,-268.15 525.49,-256.9 537.1,-247.68"/>
<polygon fill="#63b8ff" stroke="#63b8ff" points="539.26,-250.43 544.91,-241.47 534.9,-244.95 539.26,-250.43"/>
</a>
</g>
</g>
<!-- Node3 -->
<g id="Node000003" class="node">
<title>Node3</title>
<g id="a_Node000003"><a xlink:title=" ">
<polygon fill="#e0e0e0" stroke="#999999" points="81.92,-74.5 18.67,-74.5 18.67,-55.25 81.92,-55.25 81.92,-74.5"/>
<text text-anchor="middle" x="50.29" y="-61" font-family="Helvetica,sans-Serif" font-size="10.00">Eigen/Core</text>
</a>
</g>
</g>
<!-- Node2&#45;&gt;Node3 -->
<g id="edge2_Node000002_Node000003" class="edge">
<title>Node2&#45;&gt;Node3</title>
<g id="a_edge2_Node000002_Node000003"><a xlink:title=" ">
<path fill="none" stroke="#63b8ff" d="M336.95,-170.3C301.23,-163.92 232.83,-150.15 177.29,-129.75 140.4,-116.2 100.26,-94.79 75.19,-80.54"/>
<polygon fill="#63b8ff" stroke="#63b8ff" points="77.15,-77.63 66.73,-75.67 73.65,-83.7 77.15,-77.63"/>
</a>
</g>
</g>
<!-- Node4 -->
<g id="Node000004" class="node">
<title>Node4</title>
<g id="a_Node000004"><a xlink:title=" ">
<polygon fill="#e0e0e0" stroke="#999999" points="541.69,-129.75 512.89,-129.75 512.89,-110.5 541.69,-110.5 541.69,-129.75"/>
<text text-anchor="middle" x="527.29" y="-116.25" font-family="Helvetica,sans-Serif" font-size="10.00">list</text>
</a>
</g>
</g>
<!-- Node2&#45;&gt;Node4 -->
<g id="edge3_Node000002_Node000004" class="edge">
<title>Node2&#45;&gt;Node4</title>
<g id="a_edge3_Node000002_Node000004"><a xlink:title=" ">
<path fill="none" stroke="#63b8ff" d="M385.78,-166.52C416.81,-156.56 470.04,-139.49 501.62,-129.36"/>
<polygon fill="#63b8ff" stroke="#63b8ff" points="502.67,-132.7 511.13,-126.31 500.54,-126.03 502.67,-132.7"/>
</a>
</g>
</g>
<!-- Node5 -->
<g id="Node000005" class="node">
<title>Node5</title>
<g id="a_Node000005"><a xlink:title=" ">
<polygon fill="#e0e0e0" stroke="#999999" points="73.67,-19.25 38.92,-19.25 38.92,0 73.67,0 73.67,-19.25"/>
<text text-anchor="middle" x="56.29" y="-5.75" font-family="Helvetica,sans-Serif" font-size="10.00">map</text>
</a>
</g>
</g>
<!-- Node2&#45;&gt;Node5 -->
<g id="edge4_Node000002_Node000005" class="edge">
<title>Node2&#45;&gt;Node5</title>
<g id="a_edge4_Node000002_Node000005"><a xlink:title=" ">
<path fill="none" stroke="#63b8ff" d="M337.15,-174.72C267.16,-175.18 66.18,-172.69 20.29,-129.75 -4.15,-106.88 -3.92,-86 9.29,-55.25 14.22,-43.77 23.71,-33.86 32.88,-26.31"/>
<polygon fill="#63b8ff" stroke="#63b8ff" points="34.7,-29.32 40.56,-20.49 30.47,-23.74 34.7,-29.32"/>
</a>
</g>
</g>
<!-- Node6 -->
<g id="Node000006" class="node">
<title>Node6</title>
<g id="a_Node000006"><a xlink:title=" ">
<polygon fill="#e0e0e0" stroke="#999999" points="468.79,-19.25 425.79,-19.25 425.79,0 468.79,0 468.79,-19.25"/>
<text text-anchor="middle" x="447.29" y="-5.75" font-family="Helvetica,sans-Serif" font-size="10.00">vector</text>
</a>
</g>
</g>
<!-- Node2&#45;&gt;Node6 -->
<g id="edge5_Node000002_Node000006" class="edge">
<title>Node2&#45;&gt;Node6</title>
<g id="a_edge5_Node000002_Node000006"><a xlink:title=" ">
<path fill="none" stroke="#63b8ff" d="M373.64,-165.34C393.91,-149.61 433.4,-114.97 447.29,-74.5 452.1,-60.5 451.89,-43.73 450.59,-30.89"/>
<polygon fill="#63b8ff" stroke="#63b8ff" points="454.08,-30.55 449.28,-21.1 447.14,-31.48 454.08,-30.55"/>
</a>
</g>
</g>
<!-- Node7 -->
<g id="Node000007" class="node">
<title>Node7</title>
<g id="a_Node000007"><a xlink:href="_block_type_8h.html" target="_top" xlink:title="Specifies the types of blocks and their parameters.">
<polygon fill="white" stroke="#666666" points="255.92,-129.75 186.67,-129.75 186.67,-110.5 255.92,-110.5 255.92,-129.75"/>
<text text-anchor="middle" x="221.29" y="-116.25" font-family="Helvetica,sans-Serif" font-size="10.00">BlockType.h</text>
</a>
</g>
</g>
<!-- Node2&#45;&gt;Node7 -->
<g id="edge6_Node000002_Node000007" class="edge">
<title>Node2&#45;&gt;Node7</title>
<g id="a_edge6_Node000002_Node000007"><a xlink:title=" ">
<path fill="none" stroke="#63b8ff" d="M337.54,-165.34C315.12,-156.81 281.23,-143.92 255.82,-134.26"/>
<polygon fill="#63b8ff" stroke="#63b8ff" points="257.16,-131.02 246.57,-130.74 254.67,-137.57 257.16,-131.02"/>
</a>
</g>
</g>
<!-- Node9 -->
<g id="Node000009" class="node">
<title>Node9</title>
<g id="a_Node000009"><a xlink:href="_d_o_f_handler_8h.html" target="_top" xlink:title="model::DOFHandler source file">
<polygon fill="white" stroke="#666666" points="216.04,-74.5 138.54,-74.5 138.54,-55.25 216.04,-55.25 216.04,-74.5"/>
<text text-anchor="middle" x="177.29" y="-61" font-family="Helvetica,sans-Serif" font-size="10.00">DOFHandler.h</text>
</a>
</g>
</g>
<!-- Node2&#45;&gt;Node9 -->
<g id="edge8_Node000002_Node000009" class="edge">
<title>Node2&#45;&gt;Node9</title>
<g id="a_edge8_Node000002_Node000009"><a xlink:title=" ">
<path fill="none" stroke="#63b8ff" d="M348.86,-165.42C330.84,-152.59 296.24,-128.56 265.29,-110.5 246.3,-99.42 224.23,-88.23 206.94,-79.83"/>
<polygon fill="#63b8ff" stroke="#63b8ff" points="208.76,-76.82 198.23,-75.64 205.73,-83.13 208.76,-76.82"/>
</a>
</g>
</g>
<!-- Node10 -->
<g id="Node000010" class="node">
<title>Node10</title>
<g id="a_Node000010"><a xlink:href="_parameter_8h.html" target="_top" xlink:title="model::Parameter source file">
<polygon fill="white" stroke="#666666" points="395.54,-129.75 327.04,-129.75 327.04,-110.5 395.54,-110.5 395.54,-129.75"/>
<text text-anchor="middle" x="361.29" y="-116.25" font-family="Helvetica,sans-Serif" font-size="10.00">Parameter.h</text>
</a>
</g>
</g>
<!-- Node2&#45;&gt;Node10 -->
<g id="edge12_Node000002_Node000010" class="edge">
<title>Node2&#45;&gt;Node10</title>
<g id="a_edge12_Node000002_Node000010"><a xlink:title=" ">
<path fill="none" stroke="#63b8ff" d="M361.29,-165.58C361.29,-159.07 361.29,-149.92 361.29,-141.62"/>
<polygon fill="#63b8ff" stroke="#63b8ff" points="364.79,-141.62 361.29,-131.62 357.79,-141.62 364.79,-141.62"/>
</a>
</g>
</g>
<!-- Node2&#45;&gt;Node15 -->
<g id="edge19_Node000002_Node000015" class="edge">
<title>Node2&#45;&gt;Node15</title>
<g id="a_edge19_Node000002_Node000015"><a xlink:title=" ">
<path fill="none" stroke="#63b8ff" d="M385.83,-168.98C424.37,-160.5 499.96,-143.86 551.06,-132.62"/>
<polygon fill="#63b8ff" stroke="#63b8ff" points="551.72,-136.06 560.73,-130.49 550.21,-129.22 551.72,-136.06"/>
</a>
</g>
</g>
<!-- Node19 -->
<g id="Node000019" class="node">
<title>Node19</title>
<g id="a_Node000019"><a xlink:href="_state_8h.html" target="_top" xlink:title="State source file.">
<polygon fill="white" stroke="#666666" points="75.67,-129.75 28.92,-129.75 28.92,-110.5 75.67,-110.5 75.67,-129.75"/>
<text text-anchor="middle" x="52.29" y="-116.25" font-family="Helvetica,sans-Serif" font-size="10.00">State.h</text>
</a>
</g>
</g>
<!-- Node2&#45;&gt;Node19 -->
<g id="edge24_Node000002_Node000019" class="edge">
<title>Node2&#45;&gt;Node19</title>
<g id="a_edge24_Node000002_Node000019"><a xlink:title=" ">
<path fill="none" stroke="#63b8ff" d="M336.79,-170.15C282.21,-160.75 150.48,-138.05 87.28,-127.15"/>
<polygon fill="#63b8ff" stroke="#63b8ff" points="87.89,-123.71 77.44,-125.46 86.7,-130.61 87.89,-123.71"/>
</a>
</g>
</g>
<!-- Node8 -->
<g id="Node000008" class="node">
<title>Node8</title>
<g id="a_Node000008"><a xlink:title=" ">
<polygon fill="#e0e0e0" stroke="#999999" points="163.29,-19.25 123.29,-19.25 123.29,0 163.29,0 163.29,-19.25"/>
<text text-anchor="middle" x="143.29" y="-5.75" font-family="Helvetica,sans-Serif" font-size="10.00">string</text>
</a>
</g>
</g>
<!-- Node7&#45;&gt;Node8 -->
<g id="edge7_Node000007_Node000008" class="edge">
<title>Node7&#45;&gt;Node8</title>
<g id="a_edge7_Node000007_Node000008"><a xlink:title=" ">
<path fill="none" stroke="#63b8ff" d="M186.2,-111.84C165.8,-105.6 141.73,-94.36 129.29,-74.5 120.82,-60.97 125.88,-43.03 132.16,-29.61"/>
<polygon fill="#63b8ff" stroke="#63b8ff" points="135.17,-31.41 136.75,-20.93 128.98,-28.14 135.17,-31.41"/>
</a>
</g>
</g>
<!-- Node9&#45;&gt;Node5 -->
<g id="edge9_Node000009_Node000005" class="edge">
<title>Node9&#45;&gt;Node5</title>
<g id="a_edge9_Node000009_Node000005"><a xlink:title=" ">
<path fill="none" stroke="#63b8ff" d="M156.76,-54.84C136.92,-46.11 106.7,-32.81 84.58,-23.07"/>
<polygon fill="#63b8ff" stroke="#63b8ff" points="86.1,-19.92 75.54,-19.1 83.28,-26.33 86.1,-19.92"/>
</a>
</g>
</g>
<!-- Node9&#45;&gt;Node6 -->
<g id="edge11_Node000009_Node000006" class="edge">
<title>Node9&#45;&gt;Node6</title>
<g id="a_edge11_Node000009_Node000006"><a xlink:title=" ">
<path fill="none" stroke="#63b8ff" d="M216.26,-56.19C269.53,-45.68 364.16,-27.02 414.18,-17.16"/>
<polygon fill="#63b8ff" stroke="#63b8ff" points="414.68,-20.62 423.82,-15.25 413.33,-13.76 414.68,-20.62"/>
</a>
</g>
</g>
<!-- Node9&#45;&gt;Node8 -->
<g id="edge10_Node000009_Node000008" class="edge">
<title>Node9&#45;&gt;Node8</title>
<g id="a_edge10_Node000009_Node000008"><a xlink:title=" ">
<path fill="none" stroke="#63b8ff" d="M171.68,-55.08C167.18,-48.03 160.7,-37.9 155.08,-29.08"/>
<polygon fill="#63b8ff" stroke="#63b8ff" points="158.17,-27.43 149.84,-20.88 152.27,-31.2 158.17,-27.43"/>
</a>
</g>
</g>
<!-- Node10&#45;&gt;Node6 -->
<g id="edge17_Node000010_Node000006" class="edge">
<title>Node10&#45;&gt;Node6</title>
<g id="a_edge17_Node000010_Node000006"><a xlink:title=" ">
<path fill="none" stroke="#63b8ff" d="M381.99,-110.11C396.9,-102.62 416.42,-90.58 428.29,-74.5 437.67,-61.81 442.45,-44.5 444.86,-31.11"/>
<polygon fill="#63b8ff" stroke="#63b8ff" points="448.32,-31.64 446.31,-21.24 441.4,-30.63 448.32,-31.64"/>
</a>
</g>
</g>
<!-- Node10&#45;&gt;Node9 -->
<g id="edge18_Node000010_Node000009" class="edge">
<title>Node10&#45;&gt;Node9</title>
<g id="a_edge18_Node000010_Node000009"><a xlink:title=" ">
<path fill="none" stroke="#63b8ff" d="M330.08,-110.09C299.68,-101.29 253.25,-87.86 219.56,-78.11"/>
<polygon fill="#63b8ff" stroke="#63b8ff" points="220.69,-74.79 210.11,-75.37 218.74,-81.52 220.69,-74.79"/>
</a>
</g>
</g>
<!-- Node11 -->
<g id="Node000011" class="node">
<title>Node11</title>
<g id="a_Node000011"><a xlink:title=" ">
<polygon fill="#e0e0e0" stroke="#999999" points="290.17,-74.5 234.42,-74.5 234.42,-55.25 290.17,-55.25 290.17,-74.5"/>
<text text-anchor="middle" x="262.29" y="-61" font-family="Helvetica,sans-Serif" font-size="10.00">algorithm</text>
</a>
</g>
</g>
<!-- Node10&#45;&gt;Node11 -->
<g id="edge13_Node000010_Node000011" class="edge">
<title>Node10&#45;&gt;Node11</title>
<g id="a_edge13_Node000010_Node000011"><a xlink:title=" ">
<path fill="none" stroke="#63b8ff" d="M344.5,-110.09C329.28,-101.91 306.6,-89.71 288.91,-80.19"/>
<polygon fill="#63b8ff" stroke="#63b8ff" points="290.97,-77.32 280.5,-75.67 287.65,-83.49 290.97,-77.32"/>
</a>
</g>
</g>
<!-- Node12 -->
<g id="Node000012" class="node">
<title>Node12</title>
<g id="a_Node000012"><a xlink:title=" ">
<polygon fill="#e0e0e0" stroke="#999999" points="350.79,-74.5 307.79,-74.5 307.79,-55.25 350.79,-55.25 350.79,-74.5"/>
<text text-anchor="middle" x="329.29" y="-61" font-family="Helvetica,sans-Serif" font-size="10.00">cmath</text>
</a>
</g>
</g>
<!-- Node10&#45;&gt;Node12 -->
<g id="edge14_Node000010_Node000012" class="edge">
<title>Node10&#45;&gt;Node12</title>
<g id="a_edge14_Node000010_Node000012"><a xlink:title=" ">
<path fill="none" stroke="#63b8ff" d="M356.01,-110.33C351.82,-103.36 345.81,-93.37 340.56,-84.62"/>
<polygon fill="#63b8ff" stroke="#63b8ff" points="343.62,-82.93 335.47,-76.16 337.62,-86.53 343.62,-82.93"/>
</a>
</g>
</g>
<!-- Node13 -->
<g id="Node000013" class="node">
<title>Node13</title>
<g id="a_Node000013"><a xlink:title=" ">
<polygon fill="#e0e0e0" stroke="#999999" points="567.04,-74.5 513.54,-74.5 513.54,-55.25 567.04,-55.25 567.04,-74.5"/>
<text text-anchor="middle" x="540.29" y="-61" font-family="Helvetica,sans-Serif" font-size="10.00">iostream</text>
</a>
</g>
</g>
<!-- Node10&#45;&gt;Node13 -->
<g id="edge15_Node000010_Node000013" class="edge">
<title>Node10&#45;&gt;Node13</title>
<g id="a_edge15_Node000010_Node000013"><a xlink:title=" ">
<path fill="none" stroke="#63b8ff" d="M391.66,-110.09C422.17,-101.01 469.29,-87 502.27,-77.19"/>
<polygon fill="#63b8ff" stroke="#63b8ff" points="503.26,-80.54 511.85,-74.34 501.26,-73.83 503.26,-80.54"/>
</a>
</g>
</g>
<!-- Node14 -->
<g id="Node000014" class="node">
<title>Node14</title>
<g id="a_Node000014"><a xlink:title=" ">
<polygon fill="#e0e0e0" stroke="#999999" points="419.54,-74.5 369.04,-74.5 369.04,-55.25 419.54,-55.25 419.54,-74.5"/>
<text text-anchor="middle" x="394.29" y="-61" font-family="Helvetica,sans-Serif" font-size="10.00">numeric</text>
</a>
</g>
</g>
<!-- Node10&#45;&gt;Node14 -->
<g id="edge16_Node000010_Node000014" class="edge">
<title>Node10&#45;&gt;Node14</title>
<g id="a_edge16_Node000010_Node000014"><a xlink:title=" ">
<path fill="none" stroke="#63b8ff" d="M366.74,-110.33C371.06,-103.36 377.25,-93.37 382.67,-84.62"/>
<polygon fill="#63b8ff" stroke="#63b8ff" points="385.63,-86.49 387.93,-76.15 379.68,-82.8 385.63,-86.49"/>
</a>
</g>
</g>
<!-- Node15&#45;&gt;Node13 -->
<g id="edge22_Node000015_Node000013" class="edge">
<title>Node15&#45;&gt;Node13</title>
<g id="a_edge22_Node000015_Node000013"><a xlink:title=" ">
<path fill="none" stroke="#63b8ff" d="M592.6,-110.09C583.59,-102.47 570.46,-91.37 559.61,-82.2"/>
<polygon fill="#63b8ff" stroke="#63b8ff" points="561.87,-79.53 551.98,-75.75 557.35,-84.88 561.87,-79.53"/>
</a>
</g>
</g>
<!-- Node16 -->
<g id="Node000016" class="node">
<title>Node16</title>
<g id="a_Node000016"><a xlink:title=" ">
<polygon fill="#e0e0e0" stroke="#999999" points="727.17,-74.5 653.42,-74.5 653.42,-55.25 727.17,-55.25 727.17,-74.5"/>
<text text-anchor="middle" x="690.29" y="-61" font-family="Helvetica,sans-Serif" font-size="10.00">Eigen/Sparse</text>
</a>
</g>
</g>
<!-- Node15&#45;&gt;Node16 -->
<g id="edge20_Node000015_Node000016" class="edge">
<title>Node15&#45;&gt;Node16</title>
<g id="a_edge20_Node000015_Node000016"><a xlink:title=" ">
<path fill="none" stroke="#63b8ff" d="M618.05,-110.09C631.17,-102.06 650.61,-90.16 666.02,-80.73"/>
<polygon fill="#63b8ff" stroke="#63b8ff" points="667.47,-83.95 674.17,-75.74 663.81,-77.98 667.47,-83.95"/>
</a>
</g>
</g>
<!-- Node17 -->
<g id="Node000017" class="node">
<title>Node17</title>
<g id="a_Node000017"><a xlink:title=" ">
<polygon fill="#e0e0e0" stroke="#999999" points="832.92,-74.5 745.67,-74.5 745.67,-55.25 832.92,-55.25 832.92,-74.5"/>
<text text-anchor="middle" x="789.29" y="-61" font-family="Helvetica,sans-Serif" font-size="10.00">Eigen/SparseLU</text>
</a>
</g>
</g>
<!-- Node15&#45;&gt;Node17 -->
<g id="edge21_Node000015_Node000017" class="edge">
<title>Node15&#45;&gt;Node17</title>
<g id="a_edge21_Node000015_Node000017"><a xlink:title=" ">
<path fill="none" stroke="#63b8ff" d="M634.84,-110.09C665.57,-101.29 712.5,-87.86 746.57,-78.11"/>
<polygon fill="#63b8ff" stroke="#63b8ff" points="747.48,-81.49 756.13,-75.37 745.55,-74.76 747.48,-81.49"/>
</a>
</g>
</g>
<!-- Node18 -->
<g id="Node000018" class="node">
<title>Node18</title>
<g id="a_Node000018"><a xlink:title=" ">
<polygon fill="#e0e0e0" stroke="#999999" points="635.54,-74.5 585.04,-74.5 585.04,-55.25 635.54,-55.25 635.54,-74.5"/>
<text text-anchor="middle" x="610.29" y="-61" font-family="Helvetica,sans-Serif" font-size="10.00">memory</text>
</a>
</g>
</g>
<!-- Node15&#45;&gt;Node18 -->
<g id="edge23_Node000015_Node000018" class="edge">
<title>Node15&#45;&gt;Node18</title>
<g id="a_edge23_Node000015_Node000018"><a xlink:title=" ">
<path fill="none" stroke="#63b8ff" d="M604.45,-110.33C605.31,-103.74 606.53,-94.46 607.64,-86.07"/>
<polygon fill="#63b8ff" stroke="#63b8ff" points="611.08,-86.73 608.91,-76.36 604.14,-85.82 611.08,-86.73"/>
</a>
</g>
</g>
<!-- Node19&#45;&gt;Node3 -->
<g id="edge25_Node000019_Node000003" class="edge">
<title>Node19&#45;&gt;Node3</title>
<g id="a_edge25_Node000019_Node000003"><a xlink:title=" ">
<path fill="none" stroke="#63b8ff" d="M51.96,-110.33C51.71,-103.74 51.36,-94.46 51.05,-86.07"/>
<polygon fill="#63b8ff" stroke="#63b8ff" points="54.56,-86.23 50.69,-76.37 47.56,-86.5 54.56,-86.23"/>
</a>
</g>
</g>
<!-- Node20&#45;&gt;Node2 -->
<g id="edge28_Node000020_Node000002" class="edge">
<title>Node20&#45;&gt;Node2</title>
<g id="a_edge28_Node000020_Node000002"><a xlink:title=" ">
<path fill="none" stroke="#63b8ff" d="M524.04,-220.59C488.66,-210.98 432.9,-195.83 396.71,-186"/>
<polygon fill="#63b8ff" stroke="#63b8ff" points="397.73,-182.65 387.16,-183.4 395.89,-189.4 397.73,-182.65"/>
</a>
</g>
</g>
<!-- Node20&#45;&gt;Node15 -->
<g id="edge29_Node000020_Node000015" class="edge">
<title>Node20&#45;&gt;Node15</title>
<g id="a_edge29_Node000020_Node000015"><a xlink:title=" ">
<path fill="none" stroke="#63b8ff" d="M559.19,-220.69C562.03,-208.11 567.96,-184.58 576.29,-165.75 580.27,-156.76 585.73,-147.36 590.71,-139.52"/>
<polygon fill="#63b8ff" stroke="#63b8ff" points="593.58,-141.52 596.16,-131.25 587.74,-137.67 593.58,-141.52"/>
</a>
</g>
</g>
<!-- Node21 -->
<g id="Node000021" class="node">
<title>Node21</title>
<g id="a_Node000021"><a xlink:title=" ">
<polygon fill="#e0e0e0" stroke="#999999" points="630.92,-185 585.67,-185 585.67,-165.75 630.92,-165.75 630.92,-185"/>
<text text-anchor="middle" x="608.29" y="-171.5" font-family="Helvetica,sans-Serif" font-size="10.00">math.h</text>
</a>
</g>
</g>
<!-- Node20&#45;&gt;Node21 -->
<g id="edge27_Node000020_Node000021" class="edge">
<title>Node20&#45;&gt;Node21</title>
<g id="a_edge27_Node000020_Node000021"><a xlink:title=" ">
<path fill="none" stroke="#63b8ff" d="M565.71,-220.83C572.83,-213.4 583.23,-202.54 591.98,-193.41"/>
<polygon fill="#63b8ff" stroke="#63b8ff" points="594.25,-196.1 598.64,-186.45 589.19,-191.25 594.25,-196.1"/>
</a>
</g>
</g>
</g>
</svg>
