<?xml version="1.0" encoding="UTF-8" standalone="no"?>
<!DOCTYPE svg PUBLIC "-//W3C//DTD SVG 1.1//EN"
 "http://www.w3.org/Graphics/SVG/1.1/DTD/svg11.dtd">
<!-- Generated by graphviz version 12.2.1 (20241206.2353)
 -->
<!-- Title: model/BloodVesselJunction.h Pages: 1 -->
<svg width="773pt" height="304pt"
 viewBox="0.00 0.00 772.93 303.50" xmlns="http://www.w3.org/2000/svg" xmlns:xlink="http://www.w3.org/1999/xlink">
<g id="graph0" class="graph" transform="scale(1 1) rotate(0) translate(4 299.5)">
<title>model/BloodVesselJunction.h</title>
<!-- Node1 -->
<g id="Node000001" class="node">
<title>Node1</title>
<g id="a_Node000001"><a xlink:title="model::BloodVesselJunction source file">
<polygon fill="#999999" stroke="#666666" points="490.8,-295.5 346.55,-295.5 346.55,-276.25 490.8,-276.25 490.8,-295.5"/>
<text text-anchor="middle" x="418.68" y="-282" font-family="Helvetica,sans-Serif" font-size="10.00">model/BloodVesselJunction.h</text>
</a>
</g>
</g>
<!-- Node2 -->
<g id="Node000002" class="node">
<title>Node2</title>
<g id="a_Node000002"><a xlink:href="_block_8h.html" target="_top" xlink:title="model::Block source file">
<polygon fill="white" stroke="#666666" points="271.8,-185 223.55,-185 223.55,-165.75 271.8,-165.75 271.8,-185"/>
<text text-anchor="middle" x="247.68" y="-171.5" font-family="Helvetica,sans-Serif" font-size="10.00">Block.h</text>
</a>
</g>
</g>
<!-- Node1&#45;&gt;Node2 -->
<g id="edge1_Node000001_Node000002" class="edge">
<title>Node1&#45;&gt;Node2</title>
<g id="a_edge1_Node000001_Node000002"><a xlink:title=" ">
<path fill="none" stroke="#63b8ff" d="M404.39,-275.81C375.03,-257.18 307.6,-214.4 271.51,-191.5"/>
<polygon fill="#63b8ff" stroke="#63b8ff" points="273.4,-188.55 263.08,-186.15 269.65,-194.46 273.4,-188.55"/>
</a>
</g>
</g>
<!-- Node14 -->
<g id="Node000014" class="node">
<title>Node14</title>
<g id="a_Node000014"><a xlink:href="_sparse_system_8h.html" target="_top" xlink:title="SparseSystem source file.">
<polygon fill="white" stroke="#666666" points="538.3,-129.75 451.05,-129.75 451.05,-110.5 538.3,-110.5 538.3,-129.75"/>
<text text-anchor="middle" x="494.68" y="-116.25" font-family="Helvetica,sans-Serif" font-size="10.00">SparseSystem.h</text>
</a>
</g>
</g>
<!-- Node1&#45;&gt;Node14 -->
<g id="edge29_Node000001_Node000014" class="edge">
<title>Node1&#45;&gt;Node14</title>
<g id="a_edge29_Node000001_Node000014"><a xlink:title=" ">
<path fill="none" stroke="#63b8ff" d="M432.14,-275.85C443.1,-267.79 458.11,-255.01 466.68,-240.25 484.95,-208.81 491.3,-166.16 493.51,-141.34"/>
<polygon fill="#63b8ff" stroke="#63b8ff" points="496.98,-141.88 494.22,-131.65 490,-141.37 496.98,-141.88"/>
</a>
</g>
</g>
<!-- Node19 -->
<g id="Node000019" class="node">
<title>Node19</title>
<g id="a_Node000019"><a xlink:href="_blood_vessel_8h.html" target="_top" xlink:title="model::BloodVessel source file">
<polygon fill="white" stroke="#666666" points="457.8,-240.25 379.55,-240.25 379.55,-221 457.8,-221 457.8,-240.25"/>
<text text-anchor="middle" x="418.68" y="-226.75" font-family="Helvetica,sans-Serif" font-size="10.00">BloodVessel.h</text>
</a>
</g>
</g>
<!-- Node1&#45;&gt;Node19 -->
<g id="edge25_Node000001_Node000019" class="edge">
<title>Node1&#45;&gt;Node19</title>
<g id="a_edge25_Node000001_Node000019"><a xlink:title=" ">
<path fill="none" stroke="#63b8ff" d="M418.68,-276.08C418.68,-269.57 418.68,-260.42 418.68,-252.12"/>
<polygon fill="#63b8ff" stroke="#63b8ff" points="422.18,-252.12 418.68,-242.12 415.18,-252.12 422.18,-252.12"/>
</a>
</g>
</g>
<!-- Node3 -->
<g id="Node000003" class="node">
<title>Node3</title>
<g id="a_Node000003"><a xlink:title=" ">
<polygon fill="#e0e0e0" stroke="#999999" points="79.3,-74.5 16.05,-74.5 16.05,-55.25 79.3,-55.25 79.3,-74.5"/>
<text text-anchor="middle" x="47.68" y="-61" font-family="Helvetica,sans-Serif" font-size="10.00">Eigen/Core</text>
</a>
</g>
</g>
<!-- Node2&#45;&gt;Node3 -->
<g id="edge2_Node000002_Node000003" class="edge">
<title>Node2&#45;&gt;Node3</title>
<g id="a_edge2_Node000002_Node000003"><a xlink:title=" ">
<path fill="none" stroke="#63b8ff" d="M223.16,-172.88C173.04,-169.27 61.67,-158.16 38.68,-129.75 28.66,-117.37 32.55,-99.04 37.99,-85.18"/>
<polygon fill="#63b8ff" stroke="#63b8ff" points="41.11,-86.76 42.02,-76.21 34.73,-83.89 41.11,-86.76"/>
</a>
</g>
</g>
<!-- Node4 -->
<g id="Node000004" class="node">
<title>Node4</title>
<g id="a_Node000004"><a xlink:title=" ">
<polygon fill="#e0e0e0" stroke="#999999" points="391.08,-129.75 362.28,-129.75 362.28,-110.5 391.08,-110.5 391.08,-129.75"/>
<text text-anchor="middle" x="376.68" y="-116.25" font-family="Helvetica,sans-Serif" font-size="10.00">list</text>
</a>
</g>
</g>
<!-- Node2&#45;&gt;Node4 -->
<g id="edge3_Node000002_Node000004" class="edge">
<title>Node2&#45;&gt;Node4</title>
<g id="a_edge3_Node000002_Node000004"><a xlink:title=" ">
<path fill="none" stroke="#63b8ff" d="M269.56,-165.34C292.28,-155.97 327.75,-141.32 351.58,-131.48"/>
<polygon fill="#63b8ff" stroke="#63b8ff" points="352.63,-134.84 360.54,-127.79 349.96,-128.37 352.63,-134.84"/>
</a>
</g>
</g>
<!-- Node5 -->
<g id="Node000005" class="node">
<title>Node5</title>
<g id="a_Node000005"><a xlink:title=" ">
<polygon fill="#e0e0e0" stroke="#999999" points="71.05,-19.25 36.3,-19.25 36.3,0 71.05,0 71.05,-19.25"/>
<text text-anchor="middle" x="53.68" y="-5.75" font-family="Helvetica,sans-Serif" font-size="10.00">map</text>
</a>
</g>
</g>
<!-- Node2&#45;&gt;Node5 -->
<g id="edge4_Node000002_Node000005" class="edge">
<title>Node2&#45;&gt;Node5</title>
<g id="a_edge4_Node000002_Node000005"><a xlink:title=" ">
<path fill="none" stroke="#63b8ff" d="M223.2,-172.3C172.46,-167.54 58.07,-154.33 28.68,-129.75 2.19,-107.6 -6.94,-86.97 6.68,-55.25 11.61,-43.77 21.1,-33.86 30.27,-26.31"/>
<polygon fill="#63b8ff" stroke="#63b8ff" points="32.09,-29.32 37.95,-20.49 27.86,-23.74 32.09,-29.32"/>
</a>
</g>
</g>
<!-- Node6 -->
<g id="Node000006" class="node">
<title>Node6</title>
<g id="a_Node000006"><a xlink:title=" ">
<polygon fill="#e0e0e0" stroke="#999999" points="269.18,-19.25 226.18,-19.25 226.18,0 269.18,0 269.18,-19.25"/>
<text text-anchor="middle" x="247.68" y="-5.75" font-family="Helvetica,sans-Serif" font-size="10.00">vector</text>
</a>
</g>
</g>
<!-- Node2&#45;&gt;Node6 -->
<g id="edge5_Node000002_Node000006" class="edge">
<title>Node2&#45;&gt;Node6</title>
<g id="a_edge5_Node000002_Node000006"><a xlink:title=" ">
<path fill="none" stroke="#63b8ff" d="M247.68,-165.57C247.68,-140.25 247.68,-66.75 247.68,-30.84"/>
<polygon fill="#63b8ff" stroke="#63b8ff" points="251.18,-30.99 247.68,-20.99 244.18,-30.99 251.18,-30.99"/>
</a>
</g>
</g>
<!-- Node7 -->
<g id="Node000007" class="node">
<title>Node7</title>
<g id="a_Node000007"><a xlink:href="_block_type_8h.html" target="_top" xlink:title="Specifies the types of blocks and their parameters.">
<polygon fill="white" stroke="#666666" points="181.3,-129.75 112.05,-129.75 112.05,-110.5 181.3,-110.5 181.3,-129.75"/>
<text text-anchor="middle" x="146.68" y="-116.25" font-family="Helvetica,sans-Serif" font-size="10.00">BlockType.h</text>
</a>
</g>
</g>
<!-- Node2&#45;&gt;Node7 -->
<g id="edge6_Node000002_Node000007" class="edge">
<title>Node2&#45;&gt;Node7</title>
<g id="a_edge6_Node000002_Node000007"><a xlink:title=" ">
<path fill="none" stroke="#63b8ff" d="M230.55,-165.34C215.02,-157.16 191.88,-144.96 173.84,-135.44"/>
<polygon fill="#63b8ff" stroke="#63b8ff" points="175.71,-132.48 165.24,-130.91 172.45,-138.67 175.71,-132.48"/>
</a>
</g>
</g>
<!-- Node9 -->
<g id="Node000009" class="node">
<title>Node9</title>
<g id="a_Node000009"><a xlink:href="_d_o_f_handler_8h.html" target="_top" xlink:title="model::DOFHandler source file">
<polygon fill="white" stroke="#666666" points="219.43,-74.5 141.93,-74.5 141.93,-55.25 219.43,-55.25 219.43,-74.5"/>
<text text-anchor="middle" x="180.68" y="-61" font-family="Helvetica,sans-Serif" font-size="10.00">DOFHandler.h</text>
</a>
</g>
</g>
<!-- Node2&#45;&gt;Node9 -->
<g id="edge8_Node000002_Node000009" class="edge">
<title>Node2&#45;&gt;Node9</title>
<g id="a_edge8_Node000002_Node000009"><a xlink:title=" ">
<path fill="none" stroke="#63b8ff" d="M242.2,-165.5C231.3,-147.85 206.72,-108.05 192.15,-84.45"/>
<polygon fill="#63b8ff" stroke="#63b8ff" points="195.27,-82.83 187.03,-76.16 189.31,-86.51 195.27,-82.83"/>
</a>
</g>
</g>
<!-- Node10 -->
<g id="Node000010" class="node">
<title>Node10</title>
<g id="a_Node000010"><a xlink:href="_parameter_8h.html" target="_top" xlink:title="model::Parameter source file">
<polygon fill="white" stroke="#666666" points="343.93,-129.75 275.43,-129.75 275.43,-110.5 343.93,-110.5 343.93,-129.75"/>
<text text-anchor="middle" x="309.68" y="-116.25" font-family="Helvetica,sans-Serif" font-size="10.00">Parameter.h</text>
</a>
</g>
</g>
<!-- Node2&#45;&gt;Node10 -->
<g id="edge12_Node000002_Node000010" class="edge">
<title>Node2&#45;&gt;Node10</title>
<g id="a_edge12_Node000002_Node000010"><a xlink:title=" ">
<path fill="none" stroke="#63b8ff" d="M258.2,-165.34C267.07,-157.72 279.99,-146.62 290.67,-137.45"/>
<polygon fill="#63b8ff" stroke="#63b8ff" points="292.86,-140.18 298.17,-131.01 288.3,-134.87 292.86,-140.18"/>
</a>
</g>
</g>
<!-- Node2&#45;&gt;Node14 -->
<g id="edge18_Node000002_Node000014" class="edge">
<title>Node2&#45;&gt;Node14</title>
<g id="a_edge18_Node000002_Node000014"><a xlink:title=" ">
<path fill="none" stroke="#63b8ff" d="M272.27,-169.07C311.49,-160.62 389.12,-143.88 441.47,-132.6"/>
<polygon fill="#63b8ff" stroke="#63b8ff" points="442.05,-136.05 451.09,-130.52 440.57,-129.21 442.05,-136.05"/>
</a>
</g>
</g>
<!-- Node18 -->
<g id="Node000018" class="node">
<title>Node18</title>
<g id="a_Node000018"><a xlink:href="_state_8h.html" target="_top" xlink:title="State source file.">
<polygon fill="white" stroke="#666666" points="94.05,-129.75 47.3,-129.75 47.3,-110.5 94.05,-110.5 94.05,-129.75"/>
<text text-anchor="middle" x="70.68" y="-116.25" font-family="Helvetica,sans-Serif" font-size="10.00">State.h</text>
</a>
</g>
</g>
<!-- Node2&#45;&gt;Node18 -->
<g id="edge23_Node000002_Node000018" class="edge">
<title>Node2&#45;&gt;Node18</title>
<g id="a_edge23_Node000002_Node000018"><a xlink:title=" ">
<path fill="none" stroke="#63b8ff" d="M223.07,-166.97C192.52,-157.78 140.21,-142.04 105.54,-131.61"/>
<polygon fill="#63b8ff" stroke="#63b8ff" points="106.55,-128.26 95.97,-128.73 104.53,-134.96 106.55,-128.26"/>
</a>
</g>
</g>
<!-- Node8 -->
<g id="Node000008" class="node">
<title>Node8</title>
<g id="a_Node000008"><a xlink:title=" ">
<polygon fill="#e0e0e0" stroke="#999999" points="166.68,-19.25 126.68,-19.25 126.68,0 166.68,0 166.68,-19.25"/>
<text text-anchor="middle" x="146.68" y="-5.75" font-family="Helvetica,sans-Serif" font-size="10.00">string</text>
</a>
</g>
</g>
<!-- Node7&#45;&gt;Node8 -->
<g id="edge7_Node000007_Node000008" class="edge">
<title>Node7&#45;&gt;Node8</title>
<g id="a_edge7_Node000007_Node000008"><a xlink:title=" ">
<path fill="none" stroke="#63b8ff" d="M142.95,-110.09C139.5,-101.21 134.62,-87.18 132.68,-74.5 130.39,-59.53 134.28,-42.82 138.54,-30.25"/>
<polygon fill="#63b8ff" stroke="#63b8ff" points="141.75,-31.66 142.01,-21.07 135.2,-29.19 141.75,-31.66"/>
</a>
</g>
</g>
<!-- Node9&#45;&gt;Node5 -->
<g id="edge9_Node000009_Node000005" class="edge">
<title>Node9&#45;&gt;Node5</title>
<g id="a_edge9_Node000009_Node000005"><a xlink:title=" ">
<path fill="none" stroke="#63b8ff" d="M159.14,-54.84C137.85,-45.92 105.18,-32.22 81.85,-22.43"/>
<polygon fill="#63b8ff" stroke="#63b8ff" points="83.2,-19.21 72.63,-18.57 80.5,-25.66 83.2,-19.21"/>
</a>
</g>
</g>
<!-- Node9&#45;&gt;Node6 -->
<g id="edge11_Node000009_Node000006" class="edge">
<title>Node9&#45;&gt;Node6</title>
<g id="a_edge11_Node000009_Node000006"><a xlink:title=" ">
<path fill="none" stroke="#63b8ff" d="M192.05,-54.84C201.73,-47.15 215.88,-35.9 227.49,-26.68"/>
<polygon fill="#63b8ff" stroke="#63b8ff" points="229.65,-29.43 235.3,-20.47 225.29,-23.95 229.65,-29.43"/>
</a>
</g>
</g>
<!-- Node9&#45;&gt;Node8 -->
<g id="edge10_Node000009_Node000008" class="edge">
<title>Node9&#45;&gt;Node8</title>
<g id="a_edge10_Node000009_Node000008"><a xlink:title=" ">
<path fill="none" stroke="#63b8ff" d="M175.07,-55.08C170.56,-48.03 164.09,-37.9 158.47,-29.08"/>
<polygon fill="#63b8ff" stroke="#63b8ff" points="161.56,-27.43 153.23,-20.88 155.66,-31.2 161.56,-27.43"/>
</a>
</g>
</g>
<!-- Node10&#45;&gt;Node6 -->
<g id="edge16_Node000010_Node000006" class="edge">
<title>Node10&#45;&gt;Node6</title>
<g id="a_edge16_Node000010_Node000006"><a xlink:title=" ">
<path fill="none" stroke="#63b8ff" d="M304.61,-110.25C294.57,-92.68 271.99,-53.16 258.47,-29.52"/>
<polygon fill="#63b8ff" stroke="#63b8ff" points="261.57,-27.89 253.57,-20.94 255.5,-31.36 261.57,-27.89"/>
</a>
</g>
</g>
<!-- Node10&#45;&gt;Node9 -->
<g id="edge17_Node000010_Node000009" class="edge">
<title>Node10&#45;&gt;Node9</title>
<g id="a_edge17_Node000010_Node000009"><a xlink:title=" ">
<path fill="none" stroke="#63b8ff" d="M287.8,-110.09C267.32,-101.64 236.47,-88.9 213.12,-79.27"/>
<polygon fill="#63b8ff" stroke="#63b8ff" points="214.65,-76.11 204.07,-75.53 211.98,-82.58 214.65,-76.11"/>
</a>
</g>
</g>
<!-- Node11 -->
<g id="Node000011" class="node">
<title>Node11</title>
<g id="a_Node000011"><a xlink:title=" ">
<polygon fill="#e0e0e0" stroke="#999999" points="427.3,-74.5 382.05,-74.5 382.05,-55.25 427.3,-55.25 427.3,-74.5"/>
<text text-anchor="middle" x="404.68" y="-61" font-family="Helvetica,sans-Serif" font-size="10.00">math.h</text>
</a>
</g>
</g>
<!-- Node10&#45;&gt;Node11 -->
<g id="edge13_Node000010_Node000011" class="edge">
<title>Node10&#45;&gt;Node11</title>
<g id="a_edge13_Node000010_Node000011"><a xlink:title=" ">
<path fill="none" stroke="#63b8ff" d="M325.8,-110.09C340.26,-101.98 361.76,-89.93 378.66,-80.46"/>
<polygon fill="#63b8ff" stroke="#63b8ff" points="380.15,-83.64 387.17,-75.69 376.73,-77.53 380.15,-83.64"/>
</a>
</g>
</g>
<!-- Node12 -->
<g id="Node000012" class="node">
<title>Node12</title>
<g id="a_Node000012"><a xlink:title=" ">
<polygon fill="#e0e0e0" stroke="#999999" points="498.43,-74.5 444.93,-74.5 444.93,-55.25 498.43,-55.25 498.43,-74.5"/>
<text text-anchor="middle" x="471.68" y="-61" font-family="Helvetica,sans-Serif" font-size="10.00">iostream</text>
</a>
</g>
</g>
<!-- Node10&#45;&gt;Node12 -->
<g id="edge14_Node000010_Node000012" class="edge">
<title>Node10&#45;&gt;Node12</title>
<g id="a_edge14_Node000010_Node000012"><a xlink:title=" ">
<path fill="none" stroke="#63b8ff" d="M337.16,-110.09C363.74,-101.36 404.22,-88.05 433.84,-78.31"/>
<polygon fill="#63b8ff" stroke="#63b8ff" points="434.76,-81.7 443.17,-75.25 432.57,-75.05 434.76,-81.7"/>
</a>
</g>
</g>
<!-- Node13 -->
<g id="Node000013" class="node">
<title>Node13</title>
<g id="a_Node000013"><a xlink:title=" ">
<polygon fill="#e0e0e0" stroke="#999999" points="363.93,-74.5 313.43,-74.5 313.43,-55.25 363.93,-55.25 363.93,-74.5"/>
<text text-anchor="middle" x="338.68" y="-61" font-family="Helvetica,sans-Serif" font-size="10.00">numeric</text>
</a>
</g>
</g>
<!-- Node10&#45;&gt;Node13 -->
<g id="edge15_Node000010_Node000013" class="edge">
<title>Node10&#45;&gt;Node13</title>
<g id="a_edge15_Node000010_Node000013"><a xlink:title=" ">
<path fill="none" stroke="#63b8ff" d="M314.47,-110.33C318.22,-103.44 323.59,-93.59 328.31,-84.91"/>
<polygon fill="#63b8ff" stroke="#63b8ff" points="331.35,-86.64 333.06,-76.19 325.21,-83.3 331.35,-86.64"/>
</a>
</g>
</g>
<!-- Node14&#45;&gt;Node12 -->
<g id="edge21_Node000014_Node000012" class="edge">
<title>Node14&#45;&gt;Node12</title>
<g id="a_edge21_Node000014_Node000012"><a xlink:title=" ">
<path fill="none" stroke="#63b8ff" d="M490.88,-110.33C487.94,-103.51 483.74,-93.81 480.03,-85.2"/>
<polygon fill="#63b8ff" stroke="#63b8ff" points="483.34,-84.04 476.16,-76.25 476.91,-86.82 483.34,-84.04"/>
</a>
</g>
</g>
<!-- Node15 -->
<g id="Node000015" class="node">
<title>Node15</title>
<g id="a_Node000015"><a xlink:title=" ">
<polygon fill="#e0e0e0" stroke="#999999" points="590.55,-74.5 516.8,-74.5 516.8,-55.25 590.55,-55.25 590.55,-74.5"/>
<text text-anchor="middle" x="553.68" y="-61" font-family="Helvetica,sans-Serif" font-size="10.00">Eigen/Sparse</text>
</a>
</g>
</g>
<!-- Node14&#45;&gt;Node15 -->
<g id="edge19_Node000014_Node000015" class="edge">
<title>Node14&#45;&gt;Node15</title>
<g id="a_edge19_Node000014_Node000015"><a xlink:title=" ">
<path fill="none" stroke="#63b8ff" d="M504.69,-110.09C513.05,-102.55 525.18,-91.6 535.28,-82.48"/>
<polygon fill="#63b8ff" stroke="#63b8ff" points="537.62,-85.09 542.7,-75.79 532.93,-79.89 537.62,-85.09"/>
</a>
</g>
</g>
<!-- Node16 -->
<g id="Node000016" class="node">
<title>Node16</title>
<g id="a_Node000016"><a xlink:title=" ">
<polygon fill="#e0e0e0" stroke="#999999" points="696.3,-74.5 609.05,-74.5 609.05,-55.25 696.3,-55.25 696.3,-74.5"/>
<text text-anchor="middle" x="652.68" y="-61" font-family="Helvetica,sans-Serif" font-size="10.00">Eigen/SparseLU</text>
</a>
</g>
</g>
<!-- Node14&#45;&gt;Node16 -->
<g id="edge20_Node000014_Node000016" class="edge">
<title>Node14&#45;&gt;Node16</title>
<g id="a_edge20_Node000014_Node000016"><a xlink:title=" ">
<path fill="none" stroke="#63b8ff" d="M521.48,-110.09C547.13,-101.45 586.07,-88.32 614.87,-78.62"/>
<polygon fill="#63b8ff" stroke="#63b8ff" points="615.95,-81.95 624.31,-75.44 613.72,-75.31 615.95,-81.95"/>
</a>
</g>
</g>
<!-- Node17 -->
<g id="Node000017" class="node">
<title>Node17</title>
<g id="a_Node000017"><a xlink:title=" ">
<polygon fill="#e0e0e0" stroke="#999999" points="764.93,-74.5 714.43,-74.5 714.43,-55.25 764.93,-55.25 764.93,-74.5"/>
<text text-anchor="middle" x="739.68" y="-61" font-family="Helvetica,sans-Serif" font-size="10.00">memory</text>
</a>
</g>
</g>
<!-- Node14&#45;&gt;Node17 -->
<g id="edge22_Node000014_Node000017" class="edge">
<title>Node14&#45;&gt;Node17</title>
<g id="a_edge22_Node000014_Node000017"><a xlink:title=" ">
<path fill="none" stroke="#63b8ff" d="M538.44,-110.4C578.85,-102.23 640.82,-89.4 703.25,-75"/>
<polygon fill="#63b8ff" stroke="#63b8ff" points="703.66,-78.5 712.61,-72.83 702.08,-71.68 703.66,-78.5"/>
</a>
</g>
</g>
<!-- Node18&#45;&gt;Node3 -->
<g id="edge24_Node000018_Node000003" class="edge">
<title>Node18&#45;&gt;Node3</title>
<g id="a_edge24_Node000018_Node000003"><a xlink:title=" ">
<path fill="none" stroke="#63b8ff" d="M66.88,-110.33C63.94,-103.51 59.74,-93.81 56.03,-85.2"/>
<polygon fill="#63b8ff" stroke="#63b8ff" points="59.34,-84.04 52.16,-76.25 52.91,-86.82 59.34,-84.04"/>
</a>
</g>
</g>
<!-- Node19&#45;&gt;Node2 -->
<g id="edge27_Node000019_Node000002" class="edge">
<title>Node19&#45;&gt;Node2</title>
<g id="a_edge27_Node000019_Node000002"><a xlink:title=" ">
<path fill="none" stroke="#63b8ff" d="M389.67,-220.59C360.22,-211.42 314.59,-197.21 283.04,-187.39"/>
<polygon fill="#63b8ff" stroke="#63b8ff" points="284.15,-184.07 273.56,-184.43 282.07,-190.75 284.15,-184.07"/>
</a>
</g>
</g>
<!-- Node19&#45;&gt;Node11 -->
<g id="edge26_Node000019_Node000011" class="edge">
<title>Node19&#45;&gt;Node11</title>
<g id="a_edge26_Node000019_Node000011"><a xlink:title=" ">
<path fill="none" stroke="#63b8ff" d="M417.93,-220.82C415.76,-195.5 409.48,-122 406.41,-86.09"/>
<polygon fill="#63b8ff" stroke="#63b8ff" points="409.9,-85.9 405.57,-76.23 402.93,-86.49 409.9,-85.9"/>
</a>
</g>
</g>
<!-- Node19&#45;&gt;Node14 -->
<g id="edge28_Node000019_Node000014" class="edge">
<title>Node19&#45;&gt;Node14</title>
<g id="a_edge28_Node000019_Node000014"><a xlink:title=" ">
<path fill="none" stroke="#63b8ff" d="M424.9,-220.75C437.31,-203.02 465.39,-162.94 481.89,-139.38"/>
<polygon fill="#63b8ff" stroke="#63b8ff" points="484.64,-141.56 487.51,-131.37 478.9,-137.55 484.64,-141.56"/>
</a>
</g>
</g>
</g>
</svg>
