<?xml version="1.0" encoding="UTF-8" standalone="no"?>
<!DOCTYPE svg PUBLIC "-//W3C//DTD SVG 1.1//EN"
 "http://www.w3.org/Graphics/SVG/1.1/DTD/svg11.dtd">
<!-- Generated by graphviz version 12.2.1 (20241206.2353)
 -->
<!-- Title: model/Block.h Pages: 1 -->
<svg width="1829pt" height="393pt"
 viewBox="0.00 0.00 1829.12 392.50" xmlns="http://www.w3.org/2000/svg" xmlns:xlink="http://www.w3.org/1999/xlink">
<g id="graph0" class="graph" transform="scale(1 1) rotate(0) translate(4 388.5)">
<title>model/Block.h</title>
<!-- Node1 -->
<g id="Node000001" class="node">
<title>Node1</title>
<g id="a_Node000001"><a xlink:title="model::Block source file">
<polygon fill="#999999" stroke="#666666" points="1101.88,-384.5 1024.38,-384.5 1024.38,-365.25 1101.88,-365.25 1101.88,-384.5"/>
<text text-anchor="middle" x="1063.12" y="-371" font-family="Helvetica,sans-Serif" font-size="10.00">model/Block.h</text>
</a>
</g>
</g>
<!-- Node2 -->
<g id="Node000002" class="node">
<title>Node2</title>
<g id="a_Node000002"><a xlink:href="_block_factory_8h.html" target="_top" xlink:title="Define the block factory functional.">
<polygon fill="white" stroke="#666666" points="1425,-201.88 1315.25,-201.88 1315.25,-182.62 1425,-182.62 1425,-201.88"/>
<text text-anchor="middle" x="1370.12" y="-188.38" font-family="Helvetica,sans-Serif" font-size="10.00">model/BlockFactory.h</text>
</a>
</g>
</g>
<!-- Node1&#45;&gt;Node2 -->
<g id="edge1_Node000001_Node000002" class="edge">
<title>Node1&#45;&gt;Node2</title>
<g id="a_edge1_Node000001_Node000002"><a xlink:title=" ">
<path fill="none" stroke="#63b8ff" d="M1113.77,-372.99C1158.45,-370.01 1223.66,-360.11 1271.12,-329.25 1322.05,-296.14 1355.58,-227.05 1366.36,-202.31"/>
<polygon fill="#63b8ff" stroke="#63b8ff" points="1113.61,-369.49 1103.83,-373.55 1114.01,-376.48 1113.61,-369.49"/>
</a>
</g>
</g>
<!-- Node3 -->
<g id="Node000003" class="node">
<title>Node3</title>
<g id="a_Node000003"><a xlink:href="_model_8h.html" target="_top" xlink:title="model::Model source file">
<polygon fill="white" stroke="#666666" points="1014.62,-141 935.62,-141 935.62,-121.75 1014.62,-121.75 1014.62,-141"/>
<text text-anchor="middle" x="975.12" y="-127.5" font-family="Helvetica,sans-Serif" font-size="10.00">model/Model.h</text>
</a>
</g>
</g>
<!-- Node1&#45;&gt;Node3 -->
<g id="edge44_Node000001_Node000003" class="edge">
<title>Node1&#45;&gt;Node3</title>
<g id="a_edge44_Node000001_Node000003"><a xlink:title=" ">
<path fill="none" stroke="#63b8ff" d="M1110.13,-361.33C1131.34,-354.17 1155.89,-343.7 1175.12,-329.25 1238.52,-281.62 1319.8,-237.14 1268.12,-177 1235.93,-139.53 1087.22,-133.17 1014.87,-132.32"/>
<polygon fill="#63b8ff" stroke="#63b8ff" points="1109.29,-357.92 1100.84,-364.3 1111.43,-364.59 1109.29,-357.92"/>
</a>
</g>
</g>
<!-- Node7 -->
<g id="Node000007" class="node">
<title>Node7</title>
<g id="a_Node000007"><a xlink:href="_chamber_elastance_inductor_8h.html" target="_top" xlink:title="model::ChamberElastanceInductor source file">
<polygon fill="white" stroke="#666666" points="1436,-80.12 1266.25,-80.12 1266.25,-60.88 1436,-60.88 1436,-80.12"/>
<text text-anchor="middle" x="1351.12" y="-66.62" font-family="Helvetica,sans-Serif" font-size="10.00">model/ChamberElastanceInductor.h</text>
</a>
</g>
</g>
<!-- Node1&#45;&gt;Node7 -->
<g id="edge26_Node000001_Node000007" class="edge">
<title>Node1&#45;&gt;Node7</title>
<g id="a_edge26_Node000001_Node000007"><a xlink:title=" ">
<path fill="none" stroke="#63b8ff" d="M1113.21,-373.99C1265.23,-373.9 1713.97,-370.12 1764.12,-329.25 1788.95,-309.02 1783.12,-291.77 1783.12,-259.75 1783.12,-259.75 1783.12,-259.75 1783.12,-191.25 1783.12,-152.34 1519.45,-101.14 1404.1,-80.6"/>
<polygon fill="#63b8ff" stroke="#63b8ff" points="1113.46,-370.49 1103.46,-373.99 1113.46,-377.49 1113.46,-370.49"/>
</a>
</g>
</g>
<!-- Node8 -->
<g id="Node000008" class="node">
<title>Node8</title>
<g id="a_Node000008"><a xlink:href="_linear_elastance_chamber_8h.html" target="_top" xlink:title="model::LinearElastanceChamber source file">
<polygon fill="white" stroke="#666666" points="1615.88,-80.12 1454.38,-80.12 1454.38,-60.88 1615.88,-60.88 1615.88,-80.12"/>
<text text-anchor="middle" x="1535.12" y="-66.62" font-family="Helvetica,sans-Serif" font-size="10.00">model/LinearElastanceChamber.h</text>
</a>
</g>
</g>
<!-- Node1&#45;&gt;Node8 -->
<g id="edge43_Node000001_Node000008" class="edge">
<title>Node1&#45;&gt;Node8</title>
<g id="a_edge43_Node000001_Node000008"><a xlink:title=" ">
<path fill="none" stroke="#63b8ff" d="M1113.37,-373.64C1268.1,-372.51 1730.29,-366.06 1786.12,-329.25 1815,-310.21 1821.12,-294.33 1821.12,-259.75 1821.12,-259.75 1821.12,-259.75 1821.12,-191.25 1821.12,-101.89 1700.87,-78.07 1616.32,-72.36"/>
<polygon fill="#63b8ff" stroke="#63b8ff" points="1113.41,-370.14 1103.43,-373.7 1113.45,-377.14 1113.41,-370.14"/>
</a>
</g>
</g>
<!-- Node13 -->
<g id="Node000013" class="node">
<title>Node13</title>
<g id="a_Node000013"><a xlink:href="_blood_vessel_8h.html" target="_top" xlink:title="model::BloodVessel source file">
<polygon fill="white" stroke="#666666" points="1614.88,-329.25 1507.38,-329.25 1507.38,-310 1614.88,-310 1614.88,-329.25"/>
<text text-anchor="middle" x="1561.12" y="-315.75" font-family="Helvetica,sans-Serif" font-size="10.00">model/BloodVessel.h</text>
</a>
</g>
</g>
<!-- Node1&#45;&gt;Node13 -->
<g id="edge18_Node000001_Node000013" class="edge">
<title>Node1&#45;&gt;Node13</title>
<g id="a_edge18_Node000001_Node000013"><a xlink:title=" ">
<path fill="none" stroke="#63b8ff" d="M1113.54,-369.02C1193.9,-361.19 1355.97,-345.06 1493.12,-329.25 1497.62,-328.73 1502.27,-328.18 1506.95,-327.61"/>
<polygon fill="#63b8ff" stroke="#63b8ff" points="1113.41,-365.51 1103.79,-369.97 1114.09,-372.48 1113.41,-365.51"/>
</a>
</g>
</g>
<!-- Node14 -->
<g id="Node000014" class="node">
<title>Node14</title>
<g id="a_Node000014"><a xlink:href="_blood_vessel_junction_8h.html" target="_top" xlink:title="model::BloodVesselJunction source file">
<polygon fill="white" stroke="#666666" points="1563.25,-268.38 1419,-268.38 1419,-249.12 1563.25,-249.12 1563.25,-268.38"/>
<text text-anchor="middle" x="1491.12" y="-254.88" font-family="Helvetica,sans-Serif" font-size="10.00">model/BloodVesselJunction.h</text>
</a>
</g>
</g>
<!-- Node1&#45;&gt;Node14 -->
<g id="edge25_Node000001_Node000014" class="edge">
<title>Node1&#45;&gt;Node14</title>
<g id="a_edge25_Node000001_Node000014"><a xlink:title=" ">
<path fill="none" stroke="#63b8ff" d="M1113.61,-374.28C1207.9,-374.06 1406.11,-368.77 1460.12,-329.25 1480.17,-314.58 1487.49,-283.98 1489.97,-268.75"/>
<polygon fill="#63b8ff" stroke="#63b8ff" points="1113.62,-370.78 1103.62,-374.28 1113.62,-377.78 1113.62,-370.78"/>
</a>
</g>
</g>
<!-- Node15 -->
<g id="Node000015" class="node">
<title>Node15</title>
<g id="a_Node000015"><a xlink:href="_blood_vessel_c_r_l_8h.html" target="_top" xlink:title="model::BloodVesselCRL source file">
<polygon fill="white" stroke="#666666" points="1450.62,-329.25 1323.62,-329.25 1323.62,-310 1450.62,-310 1450.62,-329.25"/>
<text text-anchor="middle" x="1387.12" y="-315.75" font-family="Helvetica,sans-Serif" font-size="10.00">model/BloodVesselCRL.h</text>
</a>
</g>
</g>
<!-- Node1&#45;&gt;Node15 -->
<g id="edge22_Node000001_Node000015" class="edge">
<title>Node1&#45;&gt;Node15</title>
<g id="a_edge22_Node000001_Node000015"><a xlink:title=" ">
<path fill="none" stroke="#63b8ff" d="M1113.5,-365.6C1172.63,-355.88 1270.38,-339.81 1331.64,-329.74"/>
<polygon fill="#63b8ff" stroke="#63b8ff" points="1113,-362.13 1103.7,-367.21 1114.14,-369.04 1113,-362.13"/>
</a>
</g>
</g>
<!-- Node16 -->
<g id="Node000016" class="node">
<title>Node16</title>
<g id="a_Node000016"><a xlink:href="_chamber_sphere_8h.html" target="_top" xlink:title="model::ChamberSphere source file">
<polygon fill="white" stroke="#666666" points="1755.38,-329.25 1632.88,-329.25 1632.88,-310 1755.38,-310 1755.38,-329.25"/>
<text text-anchor="middle" x="1694.12" y="-315.75" font-family="Helvetica,sans-Serif" font-size="10.00">model/ChamberSphere.h</text>
</a>
</g>
</g>
<!-- Node1&#45;&gt;Node16 -->
<g id="edge27_Node000001_Node000016" class="edge">
<title>Node1&#45;&gt;Node16</title>
<g id="a_edge27_Node000001_Node000016"><a xlink:title=" ">
<path fill="none" stroke="#63b8ff" d="M1113.65,-370.59C1212.03,-364.03 1436.14,-348.3 1624.12,-329.25 1626.93,-328.97 1629.79,-328.66 1632.68,-328.35"/>
<polygon fill="#63b8ff" stroke="#63b8ff" points="1113.54,-367.09 1103.8,-371.24 1114.01,-374.07 1113.54,-367.09"/>
</a>
</g>
</g>
<!-- Node17 -->
<g id="Node000017" class="node">
<title>Node17</title>
<g id="a_Node000017"><a xlink:href="_closed_loop_coronary_b_c_8h.html" target="_top" xlink:title="model::ClosedLoopCoronaryBC source file">
<polygon fill="white" stroke="#666666" points="734.25,-268.38 578,-268.38 578,-249.12 734.25,-249.12 734.25,-268.38"/>
<text text-anchor="middle" x="656.12" y="-254.88" font-family="Helvetica,sans-Serif" font-size="10.00">model/ClosedLoopCoronaryBC.h</text>
</a>
</g>
</g>
<!-- Node1&#45;&gt;Node17 -->
<g id="edge29_Node000001_Node000017" class="edge">
<title>Node1&#45;&gt;Node17</title>
<g id="a_edge29_Node000001_Node000017"><a xlink:title=" ">
<path fill="none" stroke="#63b8ff" d="M1019.92,-361.76C937.85,-338.75 761.13,-289.2 688.41,-268.8"/>
<polygon fill="#63b8ff" stroke="#63b8ff" points="1018.82,-365.09 1029.39,-364.42 1020.71,-358.35 1018.82,-365.09"/>
</a>
</g>
</g>
<!-- Node20 -->
<g id="Node000020" class="node">
<title>Node20</title>
<g id="a_Node000020"><a xlink:href="_closed_loop_heart_pulmonary_8h.html" target="_top" xlink:title="model::ClosedLoopHeartPulmonary source file">
<polygon fill="white" stroke="#666666" points="743.25,-329.25 569,-329.25 569,-310 743.25,-310 743.25,-329.25"/>
<text text-anchor="middle" x="656.12" y="-315.75" font-family="Helvetica,sans-Serif" font-size="10.00">model/ClosedLoopHeartPulmonary.h</text>
</a>
</g>
</g>
<!-- Node1&#45;&gt;Node20 -->
<g id="edge34_Node000001_Node000020" class="edge">
<title>Node1&#45;&gt;Node20</title>
<g id="a_edge34_Node000001_Node000020"><a xlink:title=" ">
<path fill="none" stroke="#63b8ff" d="M1013.07,-367.33C940.93,-357.89 807.46,-340.42 725.75,-329.73"/>
<polygon fill="#63b8ff" stroke="#63b8ff" points="1012.23,-370.75 1022.6,-368.57 1013.14,-363.81 1012.23,-370.75"/>
</a>
</g>
</g>
<!-- Node21 -->
<g id="Node000021" class="node">
<title>Node21</title>
<g id="a_Node000021"><a xlink:href="_closed_loop_r_c_r_b_c_8h.html" target="_top" xlink:title="model::ClosedLoopRCRBC source file">
<polygon fill="white" stroke="#666666" points="138.25,-329.25 0,-329.25 0,-310 138.25,-310 138.25,-329.25"/>
<text text-anchor="middle" x="69.12" y="-315.75" font-family="Helvetica,sans-Serif" font-size="10.00">model/ClosedLoopRCRBC.h</text>
</a>
</g>
</g>
<!-- Node1&#45;&gt;Node21 -->
<g id="edge37_Node000001_Node000021" class="edge">
<title>Node1&#45;&gt;Node21</title>
<g id="a_edge37_Node000001_Node000021"><a xlink:title=" ">
<path fill="none" stroke="#63b8ff" d="M1012.61,-372.37C874.6,-368.05 479.67,-354.27 152.12,-329.25 147.65,-328.91 143.04,-328.52 138.39,-328.11"/>
<polygon fill="#63b8ff" stroke="#63b8ff" points="1012.39,-375.86 1022.5,-372.68 1012.61,-368.87 1012.39,-375.86"/>
</a>
</g>
</g>
<!-- Node22 -->
<g id="Node000022" class="node">
<title>Node22</title>
<g id="a_Node000022"><a xlink:href="_flow_reference_b_c_8h.html" target="_top" xlink:title="model::FlowReferenceBC source file">
<polygon fill="white" stroke="#666666" points="239.88,-201.88 108.38,-201.88 108.38,-182.62 239.88,-182.62 239.88,-201.88"/>
<text text-anchor="middle" x="174.12" y="-188.38" font-family="Helvetica,sans-Serif" font-size="10.00">model/FlowReferenceBC.h</text>
</a>
</g>
</g>
<!-- Node1&#45;&gt;Node22 -->
<g id="edge39_Node000001_Node000022" class="edge">
<title>Node1&#45;&gt;Node22</title>
<g id="a_edge39_Node000001_Node000022"><a xlink:title=" ">
<path fill="none" stroke="#63b8ff" d="M1012.86,-372.71C848.38,-368.66 332.63,-354.11 262.12,-329.25 222.4,-315.24 206.85,-310.09 185.12,-274 171.33,-251.09 171.91,-217.99 173.16,-202.24"/>
<polygon fill="#63b8ff" stroke="#63b8ff" points="1012.49,-376.2 1022.58,-372.94 1012.66,-369.2 1012.49,-376.2"/>
</a>
</g>
</g>
<!-- Node23 -->
<g id="Node000023" class="node">
<title>Node23</title>
<g id="a_Node000023"><a xlink:href="_junction_8h.html" target="_top" xlink:title="model::Junction source file">
<polygon fill="white" stroke="#666666" points="283.88,-268.38 194.38,-268.38 194.38,-249.12 283.88,-249.12 283.88,-268.38"/>
<text text-anchor="middle" x="239.12" y="-254.88" font-family="Helvetica,sans-Serif" font-size="10.00">model/Junction.h</text>
</a>
</g>
</g>
<!-- Node1&#45;&gt;Node23 -->
<g id="edge41_Node000001_Node000023" class="edge">
<title>Node1&#45;&gt;Node23</title>
<g id="a_edge41_Node000001_Node000023"><a xlink:title=" ">
<path fill="none" stroke="#63b8ff" d="M1012.93,-373.53C851.13,-372.05 350.13,-364.65 287.12,-329.25 262.83,-315.6 248.16,-283.93 242.21,-268.51"/>
<polygon fill="#63b8ff" stroke="#63b8ff" points="1012.44,-377.02 1022.47,-373.61 1012.5,-370.02 1012.44,-377.02"/>
</a>
</g>
</g>
<!-- Node24 -->
<g id="Node000024" class="node">
<title>Node24</title>
<g id="a_Node000024"><a xlink:href="_open_loop_coronary_b_c_8h.html" target="_top" xlink:title="model::OpenLoopCoronaryBC source file">
<polygon fill="white" stroke="#666666" points="445.88,-329.25 296.38,-329.25 296.38,-310 445.88,-310 445.88,-329.25"/>
<text text-anchor="middle" x="371.12" y="-315.75" font-family="Helvetica,sans-Serif" font-size="10.00">model/OpenLoopCoronaryBC.h</text>
</a>
</g>
</g>
<!-- Node1&#45;&gt;Node24 -->
<g id="edge45_Node000001_Node000024" class="edge">
<title>Node1&#45;&gt;Node24</title>
<g id="a_edge45_Node000001_Node000024"><a xlink:title=" ">
<path fill="none" stroke="#63b8ff" d="M1012.6,-370.53C908.96,-363.57 664.82,-346.74 460.12,-329.25 455.48,-328.85 450.71,-328.43 445.9,-328"/>
<polygon fill="#63b8ff" stroke="#63b8ff" points="1012.22,-374.01 1022.44,-371.18 1012.69,-367.02 1012.22,-374.01"/>
</a>
</g>
</g>
<!-- Node25 -->
<g id="Node000025" class="node">
<title>Node25</title>
<g id="a_Node000025"><a xlink:href="_open_loop_coronary_var_res_b_c_8h.html" target="_top" xlink:title="model::OpenLoopCoronaryVarResBC source file">
<polygon fill="white" stroke="#666666" points="483.88,-274 340.38,-274 340.38,-243.5 483.88,-243.5 483.88,-274"/>
<text text-anchor="start" x="348.38" y="-260.5" font-family="Helvetica,sans-Serif" font-size="10.00">model/OpenLoopCoronaryVar</text>
<text text-anchor="middle" x="412.12" y="-249.25" font-family="Helvetica,sans-Serif" font-size="10.00">ResBC.h</text>
</a>
</g>
</g>
<!-- Node1&#45;&gt;Node25 -->
<g id="edge49_Node000001_Node000025" class="edge">
<title>Node1&#45;&gt;Node25</title>
<g id="a_edge49_Node000001_Node000025"><a xlink:title=" ">
<path fill="none" stroke="#63b8ff" d="M1012.84,-373.69C892.5,-372.63 591.01,-366.27 498.12,-329.25 467.99,-317.24 440.16,-290.8 424.73,-274.21"/>
<polygon fill="#63b8ff" stroke="#63b8ff" points="1012.71,-377.19 1022.74,-373.76 1012.76,-370.19 1012.71,-377.19"/>
</a>
</g>
</g>
<!-- Node26 -->
<g id="Node000026" class="node">
<title>Node26</title>
<g id="a_Node000026"><a xlink:href="_piecewise_valve_8h.html" target="_top" xlink:title="model::PiecewiseValve source file">
<polygon fill="white" stroke="#666666" points="518.38,-201.88 395.88,-201.88 395.88,-182.62 518.38,-182.62 518.38,-201.88"/>
<text text-anchor="middle" x="457.12" y="-188.38" font-family="Helvetica,sans-Serif" font-size="10.00">model/PiecewiseValve.h</text>
</a>
</g>
</g>
<!-- Node1&#45;&gt;Node26 -->
<g id="edge50_Node000001_Node000026" class="edge">
<title>Node1&#45;&gt;Node26</title>
<g id="a_edge50_Node000001_Node000026"><a xlink:title=" ">
<path fill="none" stroke="#63b8ff" d="M1012.74,-374.5C901.13,-375.07 636.89,-371.74 560.12,-329.25 553.16,-325.4 485.24,-232.09 463.67,-202.3"/>
<polygon fill="#63b8ff" stroke="#63b8ff" points="1012.51,-378 1022.48,-374.43 1012.46,-371 1012.51,-378"/>
</a>
</g>
</g>
<!-- Node27 -->
<g id="Node000027" class="node">
<title>Node27</title>
<g id="a_Node000027"><a xlink:href="_pressure_reference_b_c_8h.html" target="_top" xlink:title="model::PressureReferenceBC source file">
<polygon fill="white" stroke="#666666" points="901.88,-268.38 752.38,-268.38 752.38,-249.12 901.88,-249.12 901.88,-268.38"/>
<text text-anchor="middle" x="827.12" y="-254.88" font-family="Helvetica,sans-Serif" font-size="10.00">model/PressureReferenceBC.h</text>
</a>
</g>
</g>
<!-- Node1&#45;&gt;Node27 -->
<g id="edge52_Node000001_Node000027" class="edge">
<title>Node1&#45;&gt;Node27</title>
<g id="a_edge52_Node000001_Node000027"><a xlink:title=" ">
<path fill="none" stroke="#63b8ff" d="M1034.38,-359.98C985.39,-336.28 887.02,-288.71 845.88,-268.82"/>
<polygon fill="#63b8ff" stroke="#63b8ff" points="1032.72,-363.06 1043.24,-364.26 1035.77,-356.76 1032.72,-363.06"/>
</a>
</g>
</g>
<!-- Node28 -->
<g id="Node000028" class="node">
<title>Node28</title>
<g id="a_Node000028"><a xlink:href="_resistance_b_c_8h.html" target="_top" xlink:title="model::ResistanceBC source file">
<polygon fill="white" stroke="#666666" points="1034.62,-268.38 919.62,-268.38 919.62,-249.12 1034.62,-249.12 1034.62,-268.38"/>
<text text-anchor="middle" x="977.12" y="-254.88" font-family="Helvetica,sans-Serif" font-size="10.00">model/ResistanceBC.h</text>
</a>
</g>
</g>
<!-- Node1&#45;&gt;Node28 -->
<g id="edge54_Node000001_Node000028" class="edge">
<title>Node1&#45;&gt;Node28</title>
<g id="a_edge54_Node000001_Node000028"><a xlink:title=" ">
<path fill="none" stroke="#63b8ff" d="M1049.55,-355.86C1030.87,-331.07 997.94,-287.38 983.84,-268.66"/>
<polygon fill="#63b8ff" stroke="#63b8ff" points="1046.65,-357.83 1055.47,-363.71 1052.24,-353.62 1046.65,-357.83"/>
</a>
</g>
</g>
<!-- Node29 -->
<g id="Node000029" class="node">
<title>Node29</title>
<g id="a_Node000029"><a xlink:href="_resistive_junction_8h.html" target="_top" xlink:title="model::ResistiveJunction source file">
<polygon fill="white" stroke="#666666" points="1087.12,-201.88 957.12,-201.88 957.12,-182.62 1087.12,-182.62 1087.12,-201.88"/>
<text text-anchor="middle" x="1022.12" y="-188.38" font-family="Helvetica,sans-Serif" font-size="10.00">model/ResistiveJunction.h</text>
</a>
</g>
</g>
<!-- Node1&#45;&gt;Node29 -->
<g id="edge56_Node000001_Node000029" class="edge">
<title>Node1&#45;&gt;Node29</title>
<g id="a_edge56_Node000001_Node000029"><a xlink:title=" ">
<path fill="none" stroke="#63b8ff" d="M1061.85,-353.56C1059.85,-327.6 1055,-281.5 1044.12,-243.5 1039.83,-228.48 1032.01,-212.08 1026.94,-202.24"/>
<polygon fill="#63b8ff" stroke="#63b8ff" points="1058.35,-353.61 1062.54,-363.34 1065.33,-353.12 1058.35,-353.61"/>
</a>
</g>
</g>
<!-- Node30 -->
<g id="Node000030" class="node">
<title>Node30</title>
<g id="a_Node000030"><a xlink:href="_valve_tanh_8h.html" target="_top" xlink:title="model::ValveTanh source file">
<polygon fill="white" stroke="#666666" points="1190.75,-268.38 1091.5,-268.38 1091.5,-249.12 1190.75,-249.12 1190.75,-268.38"/>
<text text-anchor="middle" x="1141.12" y="-254.88" font-family="Helvetica,sans-Serif" font-size="10.00">model/ValveTanh.h</text>
</a>
</g>
</g>
<!-- Node1&#45;&gt;Node30 -->
<g id="edge58_Node000001_Node000030" class="edge">
<title>Node1&#45;&gt;Node30</title>
<g id="a_edge58_Node000001_Node000030"><a xlink:title=" ">
<path fill="none" stroke="#63b8ff" d="M1075.66,-355.53C1092.64,-330.68 1122.3,-287.29 1135.03,-268.66"/>
<polygon fill="#63b8ff" stroke="#63b8ff" points="1072.85,-353.44 1070.1,-363.67 1078.63,-357.39 1072.85,-353.44"/>
</a>
</g>
</g>
<!-- Node31 -->
<g id="Node000031" class="node">
<title>Node31</title>
<g id="a_Node000031"><a xlink:href="_windkessel_b_c_8h.html" target="_top" xlink:title="model::WindkesselBC source file">
<polygon fill="white" stroke="#666666" points="1259.38,-201.88 1142.88,-201.88 1142.88,-182.62 1259.38,-182.62 1259.38,-201.88"/>
<text text-anchor="middle" x="1201.12" y="-188.38" font-family="Helvetica,sans-Serif" font-size="10.00">model/WindkesselBC.h</text>
</a>
</g>
</g>
<!-- Node1&#45;&gt;Node31 -->
<g id="edge60_Node000001_Node000031" class="edge">
<title>Node1&#45;&gt;Node31</title>
<g id="a_edge60_Node000001_Node000031"><a xlink:title=" ">
<path fill="none" stroke="#63b8ff" d="M1096.7,-360.24C1129.76,-344.78 1178.37,-316.13 1200.12,-274 1212.22,-250.58 1207.09,-218.01 1203.51,-202.36"/>
<polygon fill="#63b8ff" stroke="#63b8ff" points="1095.63,-356.88 1087.94,-364.17 1098.5,-363.26 1095.63,-356.88"/>
</a>
</g>
</g>
<!-- Node2&#45;&gt;Node3 -->
<g id="edge2_Node000002_Node000003" class="edge">
<title>Node2&#45;&gt;Node3</title>
<g id="a_edge2_Node000002_Node000003"><a xlink:title=" ">
<path fill="none" stroke="#63b8ff" d="M1317.21,-179.94C1311.78,-178.9 1306.35,-177.9 1301.12,-177 1198.37,-159.38 1076.44,-144.2 1014.9,-136.94"/>
<polygon fill="#63b8ff" stroke="#63b8ff" points="1316.27,-183.33 1326.76,-181.84 1317.63,-176.46 1316.27,-183.33"/>
</a>
</g>
</g>
<!-- Node4 -->
<g id="Node000004" class="node">
<title>Node4</title>
<g id="a_Node000004"><a xlink:href="_integrator_8h.html" target="_top" xlink:title="Integrator source file.">
<polygon fill="white" stroke="#666666" points="883.75,-80.12 784.5,-80.12 784.5,-60.88 883.75,-60.88 883.75,-80.12"/>
<text text-anchor="middle" x="834.12" y="-66.62" font-family="Helvetica,sans-Serif" font-size="10.00">algebra/Integrator.h</text>
</a>
</g>
</g>
<!-- Node3&#45;&gt;Node4 -->
<g id="edge3_Node000003_Node000004" class="edge">
<title>Node3&#45;&gt;Node4</title>
<g id="a_edge3_Node000003_Node000004"><a xlink:title=" ">
<path fill="none" stroke="#63b8ff" d="M943.02,-116.97C916.27,-105.8 878.91,-90.2 855.64,-80.48"/>
<polygon fill="#63b8ff" stroke="#63b8ff" points="941.43,-120.1 952.01,-120.72 944.13,-113.64 941.43,-120.1"/>
</a>
</g>
</g>
<!-- Node5 -->
<g id="Node000005" class="node">
<title>Node5</title>
<g id="a_Node000005"><a xlink:href="interface_8h.html" target="_top" xlink:title="svZeroDSolver callable interface.">
<polygon fill="white" stroke="#666666" points="806.88,-19.25 705.38,-19.25 705.38,0 806.88,0 806.88,-19.25"/>
<text text-anchor="middle" x="756.12" y="-5.75" font-family="Helvetica,sans-Serif" font-size="10.00">interface/interface.h</text>
</a>
</g>
</g>
<!-- Node3&#45;&gt;Node5 -->
<g id="edge6_Node000003_Node000005" class="edge">
<title>Node3&#45;&gt;Node5</title>
<g id="a_edge6_Node000003_Node000005"><a xlink:title=" ">
<path fill="none" stroke="#63b8ff" d="M923.95,-125.06C871.89,-118.62 795.99,-106.04 775.12,-85.75 756.89,-68.03 755.23,-35.52 755.6,-19.73"/>
<polygon fill="#63b8ff" stroke="#63b8ff" points="923.47,-128.53 933.81,-126.24 924.3,-121.58 923.47,-128.53"/>
</a>
</g>
</g>
<!-- Node6 -->
<g id="Node000006" class="node">
<title>Node6</title>
<g id="a_Node000006"><a xlink:href="_solver_8h.html" target="_top" xlink:title="Solver source file.">
<polygon fill="white" stroke="#666666" points="1013.88,-19.25 936.38,-19.25 936.38,0 1013.88,0 1013.88,-19.25"/>
<text text-anchor="middle" x="975.12" y="-5.75" font-family="Helvetica,sans-Serif" font-size="10.00">solve/Solver.h</text>
</a>
</g>
</g>
<!-- Node3&#45;&gt;Node6 -->
<g id="edge15_Node000003_Node000006" class="edge">
<title>Node3&#45;&gt;Node6</title>
<g id="a_edge15_Node000003_Node000006"><a xlink:title=" ">
<path fill="none" stroke="#63b8ff" d="M1019.19,-116.83C1033.89,-109.97 1048.66,-99.99 1057.12,-85.75 1064.05,-74.1 1064.05,-66.9 1057.12,-55.25 1046.61,-37.56 1026.35,-26.43 1008.59,-19.72"/>
<polygon fill="#63b8ff" stroke="#63b8ff" points="1017.85,-113.59 1009.99,-120.69 1020.57,-120.05 1017.85,-113.59"/>
</a>
</g>
</g>
<!-- Node3&#45;&gt;Node7 -->
<g id="edge7_Node000003_Node000007" class="edge">
<title>Node3&#45;&gt;Node7</title>
<g id="a_edge7_Node000003_Node000007"><a xlink:title=" ">
<path fill="none" stroke="#63b8ff" d="M1026.08,-121.62C1094.05,-110.61 1214.18,-91.79 1287.86,-80.62"/>
<polygon fill="#63b8ff" stroke="#63b8ff" points="1025.63,-118.15 1016.32,-123.21 1026.75,-125.06 1025.63,-118.15"/>
</a>
</g>
</g>
<!-- Node3&#45;&gt;Node8 -->
<g id="edge9_Node000003_Node000008" class="edge">
<title>Node3&#45;&gt;Node8</title>
<g id="a_edge9_Node000003_Node000008"><a xlink:title=" ">
<path fill="none" stroke="#63b8ff" d="M1026.45,-126.11C1111.74,-119.24 1287.59,-104.54 1436.12,-85.75 1447.9,-84.26 1460.49,-82.42 1472.65,-80.56"/>
<polygon fill="#63b8ff" stroke="#63b8ff" points="1026.22,-122.62 1016.53,-126.91 1026.78,-129.6 1026.22,-122.62"/>
</a>
</g>
</g>
<!-- Node9 -->
<g id="Node000009" class="node">
<title>Node9</title>
<g id="a_Node000009"><a xlink:href="_levenberg_marquardt_optimizer_8h.html" target="_top" xlink:title="opt::LevenbergMarquardtOptimizer source file">
<polygon fill="white" stroke="#666666" points="1248.25,-85.75 1104,-85.75 1104,-55.25 1248.25,-55.25 1248.25,-85.75"/>
<text text-anchor="start" x="1112" y="-72.25" font-family="Helvetica,sans-Serif" font-size="10.00">optimize/LevenbergMarquardt</text>
<text text-anchor="middle" x="1176.12" y="-61" font-family="Helvetica,sans-Serif" font-size="10.00">Optimizer.h</text>
</a>
</g>
</g>
<!-- Node3&#45;&gt;Node9 -->
<g id="edge11_Node000003_Node000009" class="edge">
<title>Node3&#45;&gt;Node9</title>
<g id="a_edge11_Node000003_Node000009"><a xlink:title=" ">
<path fill="none" stroke="#63b8ff" d="M1016.77,-118.18C1048.5,-108.88 1092.3,-96.05 1125.96,-86.19"/>
<polygon fill="#63b8ff" stroke="#63b8ff" points="1016.16,-114.71 1007.54,-120.88 1018.12,-121.43 1016.16,-114.71"/>
</a>
</g>
</g>
<!-- Node10 -->
<g id="Node000010" class="node">
<title>Node10</title>
<g id="a_Node000010"><a xlink:href="calibrate_8h.html" target="_top" xlink:title="opt::calibrate source file">
<polygon fill="white" stroke="#666666" points="615.75,-80.12 516.5,-80.12 516.5,-60.88 615.75,-60.88 615.75,-80.12"/>
<text text-anchor="middle" x="566.12" y="-66.62" font-family="Helvetica,sans-Serif" font-size="10.00">optimize/calibrate.h</text>
</a>
</g>
</g>
<!-- Node3&#45;&gt;Node10 -->
<g id="edge12_Node000003_Node000010" class="edge">
<title>Node3&#45;&gt;Node10</title>
<g id="a_edge12_Node000003_Node000010"><a xlink:title=" ">
<path fill="none" stroke="#63b8ff" d="M923.98,-125.64C855.57,-118.89 730.63,-105.16 625.12,-85.75 617.25,-84.3 608.85,-82.46 600.93,-80.58"/>
<polygon fill="#63b8ff" stroke="#63b8ff" points="923.48,-129.1 933.77,-126.59 924.16,-122.14 923.48,-129.1"/>
</a>
</g>
</g>
<!-- Node11 -->
<g id="Node000011" class="node">
<title>Node11</title>
<g id="a_Node000011"><a xlink:href="_simulation_parameters_8h.html" target="_top" xlink:title="Source file to read simulation configuration.">
<polygon fill="white" stroke="#666666" points="1048,-80.12 902.25,-80.12 902.25,-60.88 1048,-60.88 1048,-80.12"/>
<text text-anchor="middle" x="975.12" y="-66.62" font-family="Helvetica,sans-Serif" font-size="10.00">solve/SimulationParameters.h</text>
</a>
</g>
</g>
<!-- Node3&#45;&gt;Node11 -->
<g id="edge13_Node000003_Node000011" class="edge">
<title>Node3&#45;&gt;Node11</title>
<g id="a_edge13_Node000003_Node000011"><a xlink:title=" ">
<path fill="none" stroke="#63b8ff" d="M975.12,-109.95C975.12,-99.92 975.12,-88.33 975.12,-80.53"/>
<polygon fill="#63b8ff" stroke="#63b8ff" points="971.63,-109.92 975.13,-119.92 978.63,-109.92 971.63,-109.92"/>
</a>
</g>
</g>
<!-- Node12 -->
<g id="Node000012" class="node">
<title>Node12</title>
<g id="a_Node000012"><a xlink:href="csv__writer_8h.html" target="_top" xlink:title="csv_writer source file">
<polygon fill="white" stroke="#666666" points="728.5,-80.12 633.75,-80.12 633.75,-60.88 728.5,-60.88 728.5,-80.12"/>
<text text-anchor="middle" x="681.12" y="-66.62" font-family="Helvetica,sans-Serif" font-size="10.00">solve/csv_writer.h</text>
</a>
</g>
</g>
<!-- Node3&#45;&gt;Node12 -->
<g id="edge16_Node000003_Node000012" class="edge">
<title>Node3&#45;&gt;Node12</title>
<g id="a_edge16_Node000003_Node000012"><a xlink:title=" ">
<path fill="none" stroke="#63b8ff" d="M924.29,-121.25C877,-112.61 804.65,-99.04 742.12,-85.75 734.57,-84.15 726.52,-82.33 718.82,-80.56"/>
<polygon fill="#63b8ff" stroke="#63b8ff" points="923.5,-124.66 933.96,-123.01 924.75,-117.77 923.5,-124.66"/>
</a>
</g>
</g>
<!-- Node4&#45;&gt;Node5 -->
<g id="edge4_Node000004_Node000005" class="edge">
<title>Node4&#45;&gt;Node5</title>
<g id="a_edge4_Node000004_Node000005"><a xlink:title=" ">
<path fill="none" stroke="#63b8ff" d="M813.09,-53.63C798.66,-42.73 780.04,-28.67 768.08,-19.65"/>
<polygon fill="#63b8ff" stroke="#63b8ff" points="810.98,-56.42 821.07,-59.65 815.2,-50.83 810.98,-56.42"/>
</a>
</g>
</g>
<!-- Node4&#45;&gt;Node6 -->
<g id="edge5_Node000004_Node000006" class="edge">
<title>Node4&#45;&gt;Node6</title>
<g id="a_edge5_Node000004_Node000006"><a xlink:title=" ">
<path fill="none" stroke="#63b8ff" d="M866.23,-56.09C892.98,-44.92 930.34,-29.33 953.61,-19.61"/>
<polygon fill="#63b8ff" stroke="#63b8ff" points="865.12,-52.76 857.24,-59.85 867.82,-59.22 865.12,-52.76"/>
</a>
</g>
</g>
<!-- Node7&#45;&gt;Node3 -->
<g id="edge8_Node000007_Node000003" class="edge">
<title>Node7&#45;&gt;Node3</title>
<g id="a_edge8_Node000007_Node000003"><a xlink:title=" ">
<path fill="none" stroke="#63b8ff" d="M1287.04,-82.38C1209.07,-94.93 1080.01,-115.07 1015,-124.78"/>
<polygon fill="#63b8ff" stroke="#63b8ff" points="1287.34,-85.87 1296.66,-80.82 1286.23,-78.96 1287.34,-85.87"/>
</a>
</g>
</g>
<!-- Node8&#45;&gt;Node3 -->
<g id="edge10_Node000008_Node000003" class="edge">
<title>Node8&#45;&gt;Node3</title>
<g id="a_edge10_Node000008_Node000003"><a xlink:title=" ">
<path fill="none" stroke="#63b8ff" d="M1479.02,-82.29C1470.7,-83.54 1462.22,-84.73 1454.12,-85.75 1292.1,-106.25 1097.57,-121.87 1015.05,-127.79"/>
<polygon fill="#63b8ff" stroke="#63b8ff" points="1479.35,-85.78 1488.7,-80.79 1478.29,-78.86 1479.35,-85.78"/>
</a>
</g>
</g>
<!-- Node11&#45;&gt;Node6 -->
<g id="edge14_Node000011_Node000006" class="edge">
<title>Node11&#45;&gt;Node6</title>
<g id="a_edge14_Node000011_Node000006"><a xlink:title=" ">
<path fill="none" stroke="#63b8ff" d="M975.12,-49.07C975.12,-39.04 975.12,-27.46 975.12,-19.65"/>
<polygon fill="#63b8ff" stroke="#63b8ff" points="971.63,-49.04 975.13,-59.04 978.63,-49.04 971.63,-49.04"/>
</a>
</g>
</g>
<!-- Node12&#45;&gt;Node5 -->
<g id="edge17_Node000012_Node000005" class="edge">
<title>Node12&#45;&gt;Node5</title>
<g id="a_edge17_Node000012_Node000005"><a xlink:title=" ">
<path fill="none" stroke="#63b8ff" d="M701.35,-53.63C715.22,-42.73 733.13,-28.67 744.63,-19.65"/>
<polygon fill="#63b8ff" stroke="#63b8ff" points="699.41,-50.7 693.71,-59.62 703.73,-56.2 699.41,-50.7"/>
</a>
</g>
</g>
<!-- Node13&#45;&gt;Node3 -->
<g id="edge21_Node000013_Node000003" class="edge">
<title>Node13&#45;&gt;Node3</title>
<g id="a_edge21_Node000013_Node000003"><a xlink:title=" ">
<path fill="none" stroke="#63b8ff" d="M1569.8,-299.27C1575.51,-283.53 1580.53,-261.14 1572.12,-243.5 1551.94,-201.14 1533.63,-194.58 1490.12,-177 1404,-142.21 1120.44,-134.5 1015.04,-132.83"/>
<polygon fill="#63b8ff" stroke="#63b8ff" points="1566.61,-297.83 1566.08,-308.41 1573.09,-300.47 1566.61,-297.83"/>
</a>
</g>
</g>
<!-- Node13&#45;&gt;Node14 -->
<g id="edge19_Node000013_Node000014" class="edge">
<title>Node13&#45;&gt;Node14</title>
<g id="a_edge19_Node000013_Node000014"><a xlink:title=" ">
<path fill="none" stroke="#63b8ff" d="M1541.88,-302.44C1528.98,-291.59 1512.48,-277.71 1501.86,-268.78"/>
<polygon fill="#63b8ff" stroke="#63b8ff" points="1539.43,-304.95 1549.34,-308.71 1543.94,-299.59 1539.43,-304.95"/>
</a>
</g>
</g>
<!-- Node14&#45;&gt;Node3 -->
<g id="edge20_Node000014_Node000003" class="edge">
<title>Node14&#45;&gt;Node3</title>
<g id="a_edge20_Node000014_Node000003"><a xlink:title=" ">
<path fill="none" stroke="#63b8ff" d="M1491.1,-237.32C1489.88,-218.56 1484.87,-191.53 1467.12,-177 1432.41,-148.57 1125.73,-136.8 1014.88,-133.45"/>
<polygon fill="#63b8ff" stroke="#63b8ff" points="1487.6,-237.33 1491.4,-247.22 1494.59,-237.12 1487.6,-237.33"/>
</a>
</g>
</g>
<!-- Node15&#45;&gt;Node3 -->
<g id="edge24_Node000015_Node000003" class="edge">
<title>Node15&#45;&gt;Node3</title>
<g id="a_edge24_Node000015_Node000003"><a xlink:title=" ">
<path fill="none" stroke="#63b8ff" d="M1391.56,-298.64C1395.39,-283.16 1401.64,-261.4 1410.12,-243.5 1418.36,-226.12 1428.55,-225.9 1434.12,-207.5 1438.05,-194.53 1443.23,-187.04 1434.12,-177 1406.18,-146.21 1121.31,-136 1014.92,-133.25"/>
<polygon fill="#63b8ff" stroke="#63b8ff" points="1388.23,-297.51 1389.35,-308.05 1395.04,-299.11 1388.23,-297.51"/>
</a>
</g>
</g>
<!-- Node15&#45;&gt;Node14 -->
<g id="edge23_Node000015_Node000014" class="edge">
<title>Node15&#45;&gt;Node14</title>
<g id="a_edge23_Node000015_Node000014"><a xlink:title=" ">
<path fill="none" stroke="#63b8ff" d="M1412.7,-304.15C1432.24,-293.09 1458.55,-278.19 1475.18,-268.78"/>
<polygon fill="#63b8ff" stroke="#63b8ff" points="1411.22,-300.97 1404.24,-308.94 1414.66,-307.06 1411.22,-300.97"/>
</a>
</g>
</g>
<!-- Node16&#45;&gt;Node3 -->
<g id="edge28_Node000016_Node000003" class="edge">
<title>Node16&#45;&gt;Node3</title>
<g id="a_edge28_Node000016_Node000003"><a xlink:title=" ">
<path fill="none" stroke="#63b8ff" d="M1680.21,-300.49C1654.77,-268.89 1597.35,-204.51 1532.12,-177 1438.72,-137.6 1126.58,-132.79 1015.11,-132.35"/>
<polygon fill="#63b8ff" stroke="#63b8ff" points="1677.44,-302.63 1686.38,-308.31 1682.94,-298.29 1677.44,-302.63"/>
</a>
</g>
</g>
<!-- Node18 -->
<g id="Node000018" class="node">
<title>Node18</title>
<g id="a_Node000018"><a xlink:href="_closed_loop_coronary_left_b_c_8h.html" target="_top" xlink:title="Left side of ClosedLoopCoronaryBC.">
<polygon fill="white" stroke="#666666" points="862.75,-207.5 727.5,-207.5 727.5,-177 862.75,-177 862.75,-207.5"/>
<text text-anchor="start" x="735.5" y="-194" font-family="Helvetica,sans-Serif" font-size="10.00">model/ClosedLoopCoronary</text>
<text text-anchor="middle" x="795.12" y="-182.75" font-family="Helvetica,sans-Serif" font-size="10.00">LeftBC.h</text>
</a>
</g>
</g>
<!-- Node17&#45;&gt;Node18 -->
<g id="edge30_Node000017_Node000018" class="edge">
<title>Node17&#45;&gt;Node18</title>
<g id="a_edge30_Node000017_Node000018"><a xlink:title=" ">
<path fill="none" stroke="#63b8ff" d="M685.89,-243.94C708.75,-233.33 740.25,-218.71 763.56,-207.9"/>
<polygon fill="#63b8ff" stroke="#63b8ff" points="684.72,-240.62 677.12,-248.01 687.66,-246.97 684.72,-240.62"/>
</a>
</g>
</g>
<!-- Node19 -->
<g id="Node000019" class="node">
<title>Node19</title>
<g id="a_Node000019"><a xlink:href="_closed_loop_coronary_right_b_c_8h.html" target="_top" xlink:title="Right side of ClosedLoopCoronaryBC.">
<polygon fill="white" stroke="#666666" points="709.75,-207.5 574.5,-207.5 574.5,-177 709.75,-177 709.75,-207.5"/>
<text text-anchor="start" x="582.5" y="-194" font-family="Helvetica,sans-Serif" font-size="10.00">model/ClosedLoopCoronary</text>
<text text-anchor="middle" x="642.12" y="-182.75" font-family="Helvetica,sans-Serif" font-size="10.00">RightBC.h</text>
</a>
</g>
</g>
<!-- Node17&#45;&gt;Node19 -->
<g id="edge32_Node000017_Node000019" class="edge">
<title>Node17&#45;&gt;Node19</title>
<g id="a_edge32_Node000017_Node000019"><a xlink:title=" ">
<path fill="none" stroke="#63b8ff" d="M651.77,-237.69C649.66,-227.94 647.16,-216.45 645.24,-207.59"/>
<polygon fill="#63b8ff" stroke="#63b8ff" points="648.32,-238.27 653.86,-247.3 655.16,-236.79 648.32,-238.27"/>
</a>
</g>
</g>
<!-- Node18&#45;&gt;Node3 -->
<g id="edge31_Node000018_Node000003" class="edge">
<title>Node18&#45;&gt;Node3</title>
<g id="a_edge31_Node000018_Node000003"><a xlink:title=" ">
<path fill="none" stroke="#63b8ff" d="M850.65,-173.09C882.68,-162.61 921.56,-149.89 947.26,-141.49"/>
<polygon fill="#63b8ff" stroke="#63b8ff" points="849.94,-169.64 841.52,-176.07 852.11,-176.29 849.94,-169.64"/>
</a>
</g>
</g>
<!-- Node19&#45;&gt;Node3 -->
<g id="edge33_Node000019_Node000003" class="edge">
<title>Node19&#45;&gt;Node3</title>
<g id="a_edge33_Node000019_Node000003"><a xlink:title=" ">
<path fill="none" stroke="#63b8ff" d="M721.04,-176.49C802.66,-161.81 887.13,-147.31 935.47,-139.09"/>
<polygon fill="#63b8ff" stroke="#63b8ff" points="720.78,-172.98 711.56,-178.2 722.02,-179.87 720.78,-172.98"/>
</a>
</g>
</g>
<!-- Node20&#45;&gt;Node3 -->
<g id="edge36_Node000020_Node000003" class="edge">
<title>Node20&#45;&gt;Node3</title>
<g id="a_edge36_Node000020_Node000003"><a xlink:title=" ">
<path fill="none" stroke="#63b8ff" d="M610,-305.42C594.44,-298.6 578.63,-288.55 569.12,-274 545.53,-237.87 536.31,-209.12 565.12,-177 589.6,-149.72 837.2,-137.53 935.35,-133.74"/>
<polygon fill="#63b8ff" stroke="#63b8ff" points="608.66,-308.65 619.25,-309.09 611.24,-302.15 608.66,-308.65"/>
</a>
</g>
</g>
<!-- Node20&#45;&gt;Node17 -->
<g id="edge35_Node000020_Node000017" class="edge">
<title>Node20&#45;&gt;Node17</title>
<g id="a_edge35_Node000020_Node000017"><a xlink:title=" ">
<path fill="none" stroke="#63b8ff" d="M656.12,-298.2C656.12,-288.17 656.12,-276.58 656.12,-268.78"/>
<polygon fill="#63b8ff" stroke="#63b8ff" points="652.63,-298.17 656.13,-308.17 659.63,-298.17 652.63,-298.17"/>
</a>
</g>
</g>
<!-- Node21&#45;&gt;Node3 -->
<g id="edge38_Node000021_Node000003" class="edge">
<title>Node21&#45;&gt;Node3</title>
<g id="a_edge38_Node000021_Node000003"><a xlink:title=" ">
<path fill="none" stroke="#63b8ff" d="M66.55,-298.28C63.84,-266.85 64.01,-206.97 99.12,-177 131.3,-149.54 767.86,-136.12 935.14,-133.07"/>
<polygon fill="#63b8ff" stroke="#63b8ff" points="63.04,-298.43 67.59,-308 70,-297.68 63.04,-298.43"/>
</a>
</g>
</g>
<!-- Node22&#45;&gt;Node3 -->
<g id="edge40_Node000022_Node000003" class="edge">
<title>Node22&#45;&gt;Node3</title>
<g id="a_edge40_Node000022_Node000003"><a xlink:title=" ">
<path fill="none" stroke="#63b8ff" d="M233.53,-180.37C241.77,-179.1 250.14,-177.92 258.12,-177 515.21,-147.28 826.59,-136.42 935.35,-133.37"/>
<polygon fill="#63b8ff" stroke="#63b8ff" points="233.23,-176.87 223.91,-181.92 234.34,-183.78 233.23,-176.87"/>
</a>
</g>
</g>
<!-- Node23&#45;&gt;Node3 -->
<g id="edge42_Node000023_Node000003" class="edge">
<title>Node23&#45;&gt;Node3</title>
<g id="a_edge42_Node000023_Node000003"><a xlink:title=" ">
<path fill="none" stroke="#63b8ff" d="M247.28,-238.36C256.52,-219.08 273.57,-190.51 298.12,-177 353.92,-146.31 798.54,-135.63 935.26,-133.05"/>
<polygon fill="#63b8ff" stroke="#63b8ff" points="244.16,-236.75 243.26,-247.31 250.55,-239.62 244.16,-236.75"/>
</a>
</g>
</g>
<!-- Node24&#45;&gt;Node3 -->
<g id="edge46_Node000024_Node000003" class="edge">
<title>Node24&#45;&gt;Node3</title>
<g id="a_edge46_Node000024_Node000003"><a xlink:title=" ">
<path fill="none" stroke="#63b8ff" d="M350.96,-302.1C343.2,-294.46 335.22,-284.7 331.12,-274 314.14,-229.61 335,-200.82 376.12,-177 424.34,-149.06 809.64,-136.67 935.5,-133.34"/>
<polygon fill="#63b8ff" stroke="#63b8ff" points="348.23,-304.35 357.98,-308.49 352.94,-299.17 348.23,-304.35"/>
</a>
</g>
</g>
<!-- Node24&#45;&gt;Node25 -->
<g id="edge47_Node000024_Node000025" class="edge">
<title>Node24&#45;&gt;Node25</title>
<g id="a_edge47_Node000024_Node000025"><a xlink:title=" ">
<path fill="none" stroke="#63b8ff" d="M383.83,-300.38C389.68,-291.98 396.52,-282.16 402,-274.28"/>
<polygon fill="#63b8ff" stroke="#63b8ff" points="381.06,-298.23 378.22,-308.44 386.8,-302.24 381.06,-298.23"/>
</a>
</g>
</g>
<!-- Node25&#45;&gt;Node3 -->
<g id="edge48_Node000025_Node000003" class="edge">
<title>Node25&#45;&gt;Node3</title>
<g id="a_edge48_Node000025_Node000003"><a xlink:title=" ">
<path fill="none" stroke="#63b8ff" d="M393.77,-233.91C382.5,-216.2 372.73,-192.53 387.12,-177 424.32,-136.88 809.33,-132.65 935.4,-132.34"/>
<polygon fill="#63b8ff" stroke="#63b8ff" points="390.64,-235.53 399.19,-241.79 396.41,-231.57 390.64,-235.53"/>
</a>
</g>
</g>
<!-- Node26&#45;&gt;Node3 -->
<g id="edge51_Node000026_Node000003" class="edge">
<title>Node26&#45;&gt;Node3</title>
<g id="a_edge51_Node000026_Node000003"><a xlink:title=" ">
<path fill="none" stroke="#63b8ff" d="M512.45,-180.17C519.07,-179.02 525.74,-177.93 532.12,-177 680.15,-155.52 857.5,-141.02 935.27,-135.22"/>
<polygon fill="#63b8ff" stroke="#63b8ff" points="512.14,-176.67 502.92,-181.9 513.39,-183.56 512.14,-176.67"/>
</a>
</g>
</g>
<!-- Node27&#45;&gt;Node3 -->
<g id="edge53_Node000027_Node000003" class="edge">
<title>Node27&#45;&gt;Node3</title>
<g id="a_edge53_Node000027_Node000003"><a xlink:title=" ">
<path fill="none" stroke="#63b8ff" d="M846.15,-241.63C877.7,-214.9 939.82,-162.28 964.58,-141.31"/>
<polygon fill="#63b8ff" stroke="#63b8ff" points="844.29,-238.62 838.92,-247.76 848.82,-243.96 844.29,-238.62"/>
</a>
</g>
</g>
<!-- Node28&#45;&gt;Node3 -->
<g id="edge55_Node000028_Node000003" class="edge">
<title>Node28&#45;&gt;Node3</title>
<g id="a_edge55_Node000028_Node000003"><a xlink:title=" ">
<path fill="none" stroke="#63b8ff" d="M963.56,-239.63C957.57,-230.5 951.19,-218.95 948.12,-207.5 944.62,-194.41 944.48,-190.06 948.12,-177 951.92,-163.39 961.12,-149.8 967.72,-141.25"/>
<polygon fill="#63b8ff" stroke="#63b8ff" points="960.5,-241.35 969.11,-247.54 966.23,-237.34 960.5,-241.35"/>
</a>
</g>
</g>
<!-- Node29&#45;&gt;Node3 -->
<g id="edge57_Node000029_Node000003" class="edge">
<title>Node29&#45;&gt;Node3</title>
<g id="a_edge57_Node000029_Node000003"><a xlink:title=" ">
<path fill="none" stroke="#63b8ff" d="M1007.92,-173.46C999.48,-162.88 989.12,-149.9 982.33,-141.4"/>
<polygon fill="#63b8ff" stroke="#63b8ff" points="1005.07,-175.49 1014.04,-181.13 1010.54,-171.13 1005.07,-175.49"/>
</a>
</g>
</g>
<!-- Node30&#45;&gt;Node3 -->
<g id="edge59_Node000030_Node000003" class="edge">
<title>Node30&#45;&gt;Node3</title>
<g id="a_edge59_Node000030_Node000003"><a xlink:title=" ">
<path fill="none" stroke="#63b8ff" d="M1134.59,-237.84C1127.69,-219.68 1115.14,-193.27 1096.12,-177 1073.08,-157.27 1040.53,-145.93 1014.99,-139.62"/>
<polygon fill="#63b8ff" stroke="#63b8ff" points="1131.27,-238.94 1137.9,-247.2 1137.87,-236.61 1131.27,-238.94"/>
</a>
</g>
</g>
<!-- Node31&#45;&gt;Node3 -->
<g id="edge61_Node000031_Node000003" class="edge">
<title>Node31&#45;&gt;Node3</title>
<g id="a_edge61_Node000031_Node000003"><a xlink:title=" ">
<path fill="none" stroke="#63b8ff" d="M1155.3,-179.31C1112.32,-168.12 1048.98,-151.62 1009.98,-141.46"/>
<polygon fill="#63b8ff" stroke="#63b8ff" points="1154.28,-182.66 1164.84,-181.8 1156.05,-175.89 1154.28,-182.66"/>
</a>
</g>
</g>
</g>
</svg>
