<?xml version="1.0" encoding="UTF-8" standalone="no"?>
<!DOCTYPE svg PUBLIC "-//W3C//DTD SVG 1.1//EN"
 "http://www.w3.org/Graphics/SVG/1.1/DTD/svg11.dtd">
<!-- Generated by graphviz version 12.2.1 (20241206.2353)
 -->
<!-- Title: model/ChamberElastanceInductor.h Pages: 1 -->
<svg width="845pt" height="304pt"
 viewBox="0.00 0.00 844.69 303.50" xmlns="http://www.w3.org/2000/svg" xmlns:xlink="http://www.w3.org/1999/xlink">
<g id="graph0" class="graph" transform="scale(1 1) rotate(0) translate(4 299.5)">
<title>model/ChamberElastanceInductor.h</title>
<!-- Node1 -->
<g id="Node000001" class="node">
<title>Node1</title>
<g id="a_Node000001"><a xlink:title="model::ChamberElastanceInductor source file">
<polygon fill="#999999" stroke="#666666" points="642.25,-295.5 472.5,-295.5 472.5,-276.25 642.25,-276.25 642.25,-295.5"/>
<text text-anchor="middle" x="557.38" y="-282" font-family="Helvetica,sans-Serif" font-size="10.00">model/ChamberElastanceInductor.h</text>
</a>
</g>
</g>
<!-- Node2 -->
<g id="Node000002" class="node">
<title>Node2</title>
<g id="a_Node000002"><a xlink:title=" ">
<polygon fill="#e0e0e0" stroke="#999999" points="262,-240.25 216.75,-240.25 216.75,-221 262,-221 262,-240.25"/>
<text text-anchor="middle" x="239.38" y="-226.75" font-family="Helvetica,sans-Serif" font-size="10.00">math.h</text>
</a>
</g>
</g>
<!-- Node1&#45;&gt;Node2 -->
<g id="edge1_Node000001_Node000002" class="edge">
<title>Node1&#45;&gt;Node2</title>
<g id="a_edge1_Node000001_Node000002"><a xlink:title=" ">
<path fill="none" stroke="#63b8ff" d="M484.69,-275.75C429.25,-268.28 350.82,-256.63 273.3,-240.46"/>
<polygon fill="#63b8ff" stroke="#63b8ff" points="274.36,-237.1 263.86,-238.46 272.91,-243.95 274.36,-237.1"/>
</a>
</g>
</g>
<!-- Node3 -->
<g id="Node000003" class="node">
<title>Node3</title>
<g id="a_Node000003"><a xlink:title=" ">
<polygon fill="#e0e0e0" stroke="#999999" points="584.62,-129.75 534.12,-129.75 534.12,-110.5 584.62,-110.5 584.62,-129.75"/>
<text text-anchor="middle" x="559.38" y="-116.25" font-family="Helvetica,sans-Serif" font-size="10.00">memory</text>
</a>
</g>
</g>
<!-- Node1&#45;&gt;Node3 -->
<g id="edge2_Node000001_Node000003" class="edge">
<title>Node1&#45;&gt;Node3</title>
<g id="a_edge2_Node000001_Node000003"><a xlink:title=" ">
<path fill="none" stroke="#63b8ff" d="M557.48,-276.07C557.79,-250.75 558.69,-177.25 559.13,-141.34"/>
<polygon fill="#63b8ff" stroke="#63b8ff" points="562.63,-141.53 559.25,-131.49 555.63,-141.44 562.63,-141.53"/>
</a>
</g>
</g>
<!-- Node4 -->
<g id="Node000004" class="node">
<title>Node4</title>
<g id="a_Node000004"><a xlink:href="_activation_function_8h.html" target="_top" xlink:title="Activation function classes for cardiac chamber models.">
<polygon fill="white" stroke="#666666" points="549.62,-185 445.12,-185 445.12,-165.75 549.62,-165.75 549.62,-185"/>
<text text-anchor="middle" x="497.38" y="-171.5" font-family="Helvetica,sans-Serif" font-size="10.00">ActivationFunction.h</text>
</a>
</g>
</g>
<!-- Node1&#45;&gt;Node4 -->
<g id="edge3_Node000001_Node000004" class="edge">
<title>Node1&#45;&gt;Node4</title>
<g id="a_edge3_Node000001_Node000004"><a xlink:title=" ">
<path fill="none" stroke="#63b8ff" d="M552.46,-276C542.75,-258.43 520.9,-218.91 507.82,-195.27"/>
<polygon fill="#63b8ff" stroke="#63b8ff" points="510.99,-193.76 503.09,-186.7 504.86,-197.15 510.99,-193.76"/>
</a>
</g>
</g>
<!-- Node14 -->
<g id="Node000014" class="node">
<title>Node14</title>
<g id="a_Node000014"><a xlink:href="_block_8h.html" target="_top" xlink:title="model::Block source file">
<polygon fill="white" stroke="#666666" points="328.5,-240.25 280.25,-240.25 280.25,-221 328.5,-221 328.5,-240.25"/>
<text text-anchor="middle" x="304.38" y="-226.75" font-family="Helvetica,sans-Serif" font-size="10.00">Block.h</text>
</a>
</g>
</g>
<!-- Node1&#45;&gt;Node14 -->
<g id="edge18_Node000001_Node000014" class="edge">
<title>Node1&#45;&gt;Node14</title>
<g id="a_edge18_Node000001_Node000014"><a xlink:title=" ">
<path fill="none" stroke="#63b8ff" d="M514.17,-275.78C464.96,-265.42 385.49,-248.7 339.79,-239.08"/>
<polygon fill="#63b8ff" stroke="#63b8ff" points="340.65,-235.68 330.14,-237.05 339.21,-242.53 340.65,-235.68"/>
</a>
</g>
</g>
<!-- Node18 -->
<g id="Node000018" class="node">
<title>Node18</title>
<g id="a_Node000018"><a xlink:href="_sparse_system_8h.html" target="_top" xlink:title="SparseSystem source file.">
<polygon fill="white" stroke="#666666" points="693,-185 605.75,-185 605.75,-165.75 693,-165.75 693,-185"/>
<text text-anchor="middle" x="649.38" y="-171.5" font-family="Helvetica,sans-Serif" font-size="10.00">SparseSystem.h</text>
</a>
</g>
</g>
<!-- Node1&#45;&gt;Node18 -->
<g id="edge35_Node000001_Node000018" class="edge">
<title>Node1&#45;&gt;Node18</title>
<g id="a_edge35_Node000001_Node000018"><a xlink:title=" ">
<path fill="none" stroke="#63b8ff" d="M564.9,-276C580.07,-258.11 614.53,-217.47 634.43,-194"/>
<polygon fill="#63b8ff" stroke="#63b8ff" points="636.97,-196.42 640.76,-186.53 631.63,-191.89 636.97,-196.42"/>
</a>
</g>
</g>
<!-- Node22 -->
<g id="Node000022" class="node">
<title>Node22</title>
<g id="a_Node000022"><a xlink:href="debug_8h.html" target="_top" xlink:title="DEBUG_MSG source file.">
<polygon fill="white" stroke="#666666" points="791.25,-240.25 741.5,-240.25 741.5,-221 791.25,-221 791.25,-240.25"/>
<text text-anchor="middle" x="766.38" y="-226.75" font-family="Helvetica,sans-Serif" font-size="10.00">debug.h</text>
</a>
</g>
</g>
<!-- Node1&#45;&gt;Node22 -->
<g id="edge36_Node000001_Node000022" class="edge">
<title>Node1&#45;&gt;Node22</title>
<g id="a_edge36_Node000001_Node000022"><a xlink:title=" ">
<path fill="none" stroke="#63b8ff" d="M592.83,-275.84C631.2,-266.07 692.05,-250.56 730.56,-240.75"/>
<polygon fill="#63b8ff" stroke="#63b8ff" points="730.98,-244.26 739.81,-238.39 729.25,-237.47 730.98,-244.26"/>
</a>
</g>
</g>
<!-- Node4&#45;&gt;Node3 -->
<g id="edge5_Node000004_Node000003" class="edge">
<title>Node4&#45;&gt;Node3</title>
<g id="a_edge5_Node000004_Node000003"><a xlink:title=" ">
<path fill="none" stroke="#63b8ff" d="M507.89,-165.34C516.76,-157.72 529.69,-146.62 540.36,-137.45"/>
<polygon fill="#63b8ff" stroke="#63b8ff" points="542.56,-140.18 547.86,-131.01 538,-134.87 542.56,-140.18"/>
</a>
</g>
</g>
<!-- Node5 -->
<g id="Node000005" class="node">
<title>Node5</title>
<g id="a_Node000005"><a xlink:title=" ">
<polygon fill="#e0e0e0" stroke="#999999" points="34.75,-19.25 0,-19.25 0,0 34.75,0 34.75,-19.25"/>
<text text-anchor="middle" x="17.38" y="-5.75" font-family="Helvetica,sans-Serif" font-size="10.00">map</text>
</a>
</g>
</g>
<!-- Node4&#45;&gt;Node5 -->
<g id="edge4_Node000004_Node000005" class="edge">
<title>Node4&#45;&gt;Node5</title>
<g id="a_edge4_Node000004_Node000005"><a xlink:title=" ">
<path fill="none" stroke="#63b8ff" d="M444.88,-166.79C363.22,-154.94 213.91,-133.05 202.38,-129.75 198.65,-128.68 77.52,-76.77 74.38,-74.5 56.72,-61.77 40.61,-42.7 30.06,-28.71"/>
<polygon fill="#63b8ff" stroke="#63b8ff" points="33.02,-26.83 24.3,-20.81 27.36,-30.95 33.02,-26.83"/>
</a>
</g>
</g>
<!-- Node6 -->
<g id="Node000006" class="node">
<title>Node6</title>
<g id="a_Node000006"><a xlink:title=" ">
<polygon fill="#e0e0e0" stroke="#999999" points="488.38,-19.25 448.38,-19.25 448.38,0 488.38,0 488.38,-19.25"/>
<text text-anchor="middle" x="468.38" y="-5.75" font-family="Helvetica,sans-Serif" font-size="10.00">string</text>
</a>
</g>
</g>
<!-- Node4&#45;&gt;Node6 -->
<g id="edge6_Node000004_Node000006" class="edge">
<title>Node4&#45;&gt;Node6</title>
<g id="a_edge6_Node000004_Node000006"><a xlink:title=" ">
<path fill="none" stroke="#63b8ff" d="M496.79,-165.32C495.37,-145.28 491.21,-95.78 482.38,-55.25 480.58,-47.02 477.94,-38.14 475.44,-30.48"/>
<polygon fill="#63b8ff" stroke="#63b8ff" points="478.8,-29.48 472.25,-21.16 472.18,-31.75 478.8,-29.48"/>
</a>
</g>
</g>
<!-- Node7 -->
<g id="Node000007" class="node">
<title>Node7</title>
<g id="a_Node000007"><a xlink:title=" ">
<polygon fill="#e0e0e0" stroke="#999999" points="350.88,-19.25 307.88,-19.25 307.88,0 350.88,0 350.88,-19.25"/>
<text text-anchor="middle" x="329.38" y="-5.75" font-family="Helvetica,sans-Serif" font-size="10.00">vector</text>
</a>
</g>
</g>
<!-- Node4&#45;&gt;Node7 -->
<g id="edge7_Node000004_Node000007" class="edge">
<title>Node4&#45;&gt;Node7</title>
<g id="a_edge7_Node000004_Node000007"><a xlink:title=" ">
<path fill="none" stroke="#63b8ff" d="M492.67,-165.26C481.23,-143.78 450.05,-89.3 411.38,-55.25 396.61,-42.25 377.4,-31.54 361.29,-23.88"/>
<polygon fill="#63b8ff" stroke="#63b8ff" points="363.16,-20.88 352.61,-19.91 360.25,-27.25 363.16,-20.88"/>
</a>
</g>
</g>
<!-- Node8 -->
<g id="Node000008" class="node">
<title>Node8</title>
<g id="a_Node000008"><a xlink:href="_parameter_8h.html" target="_top" xlink:title="model::Parameter source file">
<polygon fill="white" stroke="#666666" points="279.62,-129.75 211.12,-129.75 211.12,-110.5 279.62,-110.5 279.62,-129.75"/>
<text text-anchor="middle" x="245.38" y="-116.25" font-family="Helvetica,sans-Serif" font-size="10.00">Parameter.h</text>
</a>
</g>
</g>
<!-- Node4&#45;&gt;Node8 -->
<g id="edge8_Node000004_Node000008" class="edge">
<title>Node4&#45;&gt;Node8</title>
<g id="a_edge8_Node000004_Node000008"><a xlink:title=" ">
<path fill="none" stroke="#63b8ff" d="M454.34,-165.28C408.98,-155.7 337.81,-140.66 291.36,-130.84"/>
<polygon fill="#63b8ff" stroke="#63b8ff" points="292.11,-127.42 281.6,-128.78 290.66,-134.27 292.11,-127.42"/>
</a>
</g>
</g>
<!-- Node8&#45;&gt;Node7 -->
<g id="edge13_Node000008_Node000007" class="edge">
<title>Node8&#45;&gt;Node7</title>
<g id="a_edge13_Node000008_Node000007"><a xlink:title=" ">
<path fill="none" stroke="#63b8ff" d="M252.25,-110.25C266.03,-92.44 297.28,-52.08 315.49,-28.56"/>
<polygon fill="#63b8ff" stroke="#63b8ff" points="318.13,-30.87 321.48,-20.82 312.59,-26.59 318.13,-30.87"/>
</a>
</g>
</g>
<!-- Node9 -->
<g id="Node000009" class="node">
<title>Node9</title>
<g id="a_Node000009"><a xlink:title=" ">
<polygon fill="#e0e0e0" stroke="#999999" points="207.25,-74.5 151.5,-74.5 151.5,-55.25 207.25,-55.25 207.25,-74.5"/>
<text text-anchor="middle" x="179.38" y="-61" font-family="Helvetica,sans-Serif" font-size="10.00">algorithm</text>
</a>
</g>
</g>
<!-- Node8&#45;&gt;Node9 -->
<g id="edge9_Node000008_Node000009" class="edge">
<title>Node8&#45;&gt;Node9</title>
<g id="a_edge9_Node000008_Node000009"><a xlink:title=" ">
<path fill="none" stroke="#63b8ff" d="M234.18,-110.09C224.64,-102.4 210.7,-91.15 199.27,-81.93"/>
<polygon fill="#63b8ff" stroke="#63b8ff" points="201.56,-79.28 191.58,-75.73 197.17,-84.73 201.56,-79.28"/>
</a>
</g>
</g>
<!-- Node10 -->
<g id="Node000010" class="node">
<title>Node10</title>
<g id="a_Node000010"><a xlink:title=" ">
<polygon fill="#e0e0e0" stroke="#999999" points="267.88,-74.5 224.88,-74.5 224.88,-55.25 267.88,-55.25 267.88,-74.5"/>
<text text-anchor="middle" x="246.38" y="-61" font-family="Helvetica,sans-Serif" font-size="10.00">cmath</text>
</a>
</g>
</g>
<!-- Node8&#45;&gt;Node10 -->
<g id="edge10_Node000008_Node000010" class="edge">
<title>Node8&#45;&gt;Node10</title>
<g id="a_edge10_Node000008_Node000010"><a xlink:title=" ">
<path fill="none" stroke="#63b8ff" d="M245.54,-110.33C245.66,-103.82 245.83,-94.67 245.99,-86.37"/>
<polygon fill="#63b8ff" stroke="#63b8ff" points="249.49,-86.44 246.18,-76.37 242.49,-86.3 249.49,-86.44"/>
</a>
</g>
</g>
<!-- Node11 -->
<g id="Node000011" class="node">
<title>Node11</title>
<g id="a_Node000011"><a xlink:title=" ">
<polygon fill="#e0e0e0" stroke="#999999" points="745.12,-74.5 691.62,-74.5 691.62,-55.25 745.12,-55.25 745.12,-74.5"/>
<text text-anchor="middle" x="718.38" y="-61" font-family="Helvetica,sans-Serif" font-size="10.00">iostream</text>
</a>
</g>
</g>
<!-- Node8&#45;&gt;Node11 -->
<g id="edge11_Node000008_Node000011" class="edge">
<title>Node8&#45;&gt;Node11</title>
<g id="a_edge11_Node000008_Node000011"><a xlink:title=" ">
<path fill="none" stroke="#63b8ff" d="M279.77,-115.25C365.83,-105.56 590,-80.33 680.08,-70.19"/>
<polygon fill="#63b8ff" stroke="#63b8ff" points="680.33,-73.68 689.87,-69.08 679.54,-66.72 680.33,-73.68"/>
</a>
</g>
</g>
<!-- Node12 -->
<g id="Node000012" class="node">
<title>Node12</title>
<g id="a_Node000012"><a xlink:title=" ">
<polygon fill="#e0e0e0" stroke="#999999" points="133.62,-74.5 83.12,-74.5 83.12,-55.25 133.62,-55.25 133.62,-74.5"/>
<text text-anchor="middle" x="108.38" y="-61" font-family="Helvetica,sans-Serif" font-size="10.00">numeric</text>
</a>
</g>
</g>
<!-- Node8&#45;&gt;Node12 -->
<g id="edge12_Node000008_Node000012" class="edge">
<title>Node8&#45;&gt;Node12</title>
<g id="a_edge12_Node000008_Node000012"><a xlink:title=" ">
<path fill="none" stroke="#63b8ff" d="M222.13,-110.09C200.19,-101.56 167.03,-88.67 142.16,-79.01"/>
<polygon fill="#63b8ff" stroke="#63b8ff" points="143.73,-75.86 133.14,-75.5 141.19,-82.39 143.73,-75.86"/>
</a>
</g>
</g>
<!-- Node13 -->
<g id="Node000013" class="node">
<title>Node13</title>
<g id="a_Node000013"><a xlink:href="_d_o_f_handler_8h.html" target="_top" xlink:title="model::DOFHandler source file">
<polygon fill="white" stroke="#666666" points="402.12,-74.5 324.62,-74.5 324.62,-55.25 402.12,-55.25 402.12,-74.5"/>
<text text-anchor="middle" x="363.38" y="-61" font-family="Helvetica,sans-Serif" font-size="10.00">DOFHandler.h</text>
</a>
</g>
</g>
<!-- Node8&#45;&gt;Node13 -->
<g id="edge14_Node000008_Node000013" class="edge">
<title>Node8&#45;&gt;Node13</title>
<g id="a_edge14_Node000008_Node000013"><a xlink:title=" ">
<path fill="none" stroke="#63b8ff" d="M265.39,-110.09C283.87,-101.75 311.58,-89.25 332.82,-79.66"/>
<polygon fill="#63b8ff" stroke="#63b8ff" points="334.2,-82.88 341.88,-75.58 331.33,-76.5 334.2,-82.88"/>
</a>
</g>
</g>
<!-- Node13&#45;&gt;Node5 -->
<g id="edge15_Node000013_Node000005" class="edge">
<title>Node13&#45;&gt;Node5</title>
<g id="a_edge15_Node000013_Node000005"><a xlink:title=" ">
<path fill="none" stroke="#63b8ff" d="M324.36,-57.87C254.27,-47.08 108.59,-24.66 46.47,-15.1"/>
<polygon fill="#63b8ff" stroke="#63b8ff" points="47.11,-11.66 36.7,-13.6 46.05,-18.58 47.11,-11.66"/>
</a>
</g>
</g>
<!-- Node13&#45;&gt;Node6 -->
<g id="edge16_Node000013_Node000006" class="edge">
<title>Node13&#45;&gt;Node6</title>
<g id="a_edge16_Node000013_Node000006"><a xlink:title=" ">
<path fill="none" stroke="#63b8ff" d="M381.19,-54.84C397.4,-46.62 421.61,-34.34 440.41,-24.81"/>
<polygon fill="#63b8ff" stroke="#63b8ff" points="441.79,-28.03 449.13,-20.39 438.62,-21.79 441.79,-28.03"/>
</a>
</g>
</g>
<!-- Node13&#45;&gt;Node7 -->
<g id="edge17_Node000013_Node000007" class="edge">
<title>Node13&#45;&gt;Node7</title>
<g id="a_edge17_Node000013_Node000007"><a xlink:title=" ">
<path fill="none" stroke="#63b8ff" d="M357.76,-55.08C353.26,-48.03 346.79,-37.9 341.16,-29.08"/>
<polygon fill="#63b8ff" stroke="#63b8ff" points="344.26,-27.43 335.93,-20.88 338.36,-31.2 344.26,-27.43"/>
</a>
</g>
</g>
<!-- Node14&#45;&gt;Node4 -->
<g id="edge23_Node000014_Node000004" class="edge">
<title>Node14&#45;&gt;Node4</title>
<g id="a_edge23_Node000014_Node000004"><a xlink:title=" ">
<path fill="none" stroke="#63b8ff" d="M328.82,-222.88C360.11,-214.25 414.9,-199.13 453.5,-188.48"/>
<polygon fill="#63b8ff" stroke="#63b8ff" points="454.26,-191.9 462.97,-185.87 452.4,-185.15 454.26,-191.9"/>
</a>
</g>
</g>
<!-- Node14&#45;&gt;Node5 -->
<g id="edge21_Node000014_Node000005" class="edge">
<title>Node14&#45;&gt;Node5</title>
<g id="a_edge21_Node000014_Node000005"><a xlink:title=" ">
<path fill="none" stroke="#63b8ff" d="M279.92,-223.01C277.05,-222.3 274.15,-221.61 271.38,-221 183.17,-201.57 141.76,-241.59 71.38,-185 24.1,-146.98 17.33,-68.32 16.92,-31.05"/>
<polygon fill="#63b8ff" stroke="#63b8ff" points="20.42,-31.27 16.98,-21.25 13.42,-31.23 20.42,-31.27"/>
</a>
</g>
</g>
<!-- Node14&#45;&gt;Node7 -->
<g id="edge22_Node000014_Node000007" class="edge">
<title>Node14&#45;&gt;Node7</title>
<g id="a_edge22_Node000014_Node000007"><a xlink:title=" ">
<path fill="none" stroke="#63b8ff" d="M279.9,-223.07C277.03,-222.35 274.14,-221.64 271.38,-221 192.74,-202.79 154.08,-238.19 93.38,-185 49.54,-146.59 36.88,-99.87 74.38,-55.25 102.35,-21.95 233.76,-13.5 296.23,-11.35"/>
<polygon fill="#63b8ff" stroke="#63b8ff" points="296,-14.86 305.89,-11.06 295.79,-7.86 296,-14.86"/>
</a>
</g>
</g>
<!-- Node14&#45;&gt;Node8 -->
<g id="edge27_Node000014_Node000008" class="edge">
<title>Node14&#45;&gt;Node8</title>
<g id="a_edge27_Node000014_Node000008"><a xlink:title=" ">
<path fill="none" stroke="#63b8ff" d="M295.97,-220.65C288.25,-212.03 276.9,-198.39 269.38,-185 261.54,-171.07 255.3,-154.09 251.15,-141.13"/>
<polygon fill="#63b8ff" stroke="#63b8ff" points="254.52,-140.18 248.26,-131.63 247.82,-142.22 254.52,-140.18"/>
</a>
</g>
</g>
<!-- Node14&#45;&gt;Node13 -->
<g id="edge26_Node000014_Node000013" class="edge">
<title>Node14&#45;&gt;Node13</title>
<g id="a_edge26_Node000014_Node000013"><a xlink:title=" ">
<path fill="none" stroke="#63b8ff" d="M302.44,-220.74C300.08,-208.22 297.03,-184.76 302.38,-165.75 311.27,-134.1 333.29,-102.57 348.29,-83.64"/>
<polygon fill="#63b8ff" stroke="#63b8ff" points="350.81,-86.09 354.43,-76.13 345.39,-81.66 350.81,-86.09"/>
</a>
</g>
</g>
<!-- Node15 -->
<g id="Node000015" class="node">
<title>Node15</title>
<g id="a_Node000015"><a xlink:title=" ">
<polygon fill="#e0e0e0" stroke="#999999" points="147,-129.75 83.75,-129.75 83.75,-110.5 147,-110.5 147,-129.75"/>
<text text-anchor="middle" x="115.38" y="-116.25" font-family="Helvetica,sans-Serif" font-size="10.00">Eigen/Core</text>
</a>
</g>
</g>
<!-- Node14&#45;&gt;Node15 -->
<g id="edge19_Node000014_Node000015" class="edge">
<title>Node14&#45;&gt;Node15</title>
<g id="a_edge19_Node000014_Node000015"><a xlink:title=" ">
<path fill="none" stroke="#63b8ff" d="M288.59,-220.56C255.93,-201.81 180.7,-158.62 140.99,-135.83"/>
<polygon fill="#63b8ff" stroke="#63b8ff" points="142.98,-132.94 132.56,-130.99 139.49,-139.01 142.98,-132.94"/>
</a>
</g>
</g>
<!-- Node16 -->
<g id="Node000016" class="node">
<title>Node16</title>
<g id="a_Node000016"><a xlink:title=" ">
<polygon fill="#e0e0e0" stroke="#999999" points="339.77,-185 310.98,-185 310.98,-165.75 339.77,-165.75 339.77,-185"/>
<text text-anchor="middle" x="325.38" y="-171.5" font-family="Helvetica,sans-Serif" font-size="10.00">list</text>
</a>
</g>
</g>
<!-- Node14&#45;&gt;Node16 -->
<g id="edge20_Node000014_Node000016" class="edge">
<title>Node14&#45;&gt;Node16</title>
<g id="a_edge20_Node000014_Node000016"><a xlink:title=" ">
<path fill="none" stroke="#63b8ff" d="M307.84,-220.83C310.5,-214.09 314.27,-204.52 317.64,-195.99"/>
<polygon fill="#63b8ff" stroke="#63b8ff" points="320.86,-197.35 321.28,-186.77 314.35,-194.79 320.86,-197.35"/>
</a>
</g>
</g>
<!-- Node17 -->
<g id="Node000017" class="node">
<title>Node17</title>
<g id="a_Node000017"><a xlink:href="_block_type_8h.html" target="_top" xlink:title="Specifies the types of blocks and their parameters.">
<polygon fill="white" stroke="#666666" points="427,-185 357.75,-185 357.75,-165.75 427,-165.75 427,-185"/>
<text text-anchor="middle" x="392.38" y="-171.5" font-family="Helvetica,sans-Serif" font-size="10.00">BlockType.h</text>
</a>
</g>
</g>
<!-- Node14&#45;&gt;Node17 -->
<g id="edge24_Node000014_Node000017" class="edge">
<title>Node14&#45;&gt;Node17</title>
<g id="a_edge24_Node000014_Node000017"><a xlink:title=" ">
<path fill="none" stroke="#63b8ff" d="M319.3,-220.59C332.58,-212.56 352.24,-200.66 367.83,-191.23"/>
<polygon fill="#63b8ff" stroke="#63b8ff" points="369.34,-194.41 376.08,-186.24 365.71,-188.42 369.34,-194.41"/>
</a>
</g>
</g>
<!-- Node14&#45;&gt;Node18 -->
<g id="edge28_Node000014_Node000018" class="edge">
<title>Node14&#45;&gt;Node18</title>
<g id="a_edge28_Node000014_Node000018"><a xlink:title=" ">
<path fill="none" stroke="#63b8ff" d="M328.91,-225.84C383.89,-217.35 518.11,-196.64 594.26,-184.88"/>
<polygon fill="#63b8ff" stroke="#63b8ff" points="594.67,-188.36 604.02,-183.38 593.6,-181.44 594.67,-188.36"/>
</a>
</g>
</g>
<!-- Node21 -->
<g id="Node000021" class="node">
<title>Node21</title>
<g id="a_Node000021"><a xlink:href="_state_8h.html" target="_top" xlink:title="State source file.">
<polygon fill="white" stroke="#666666" points="148.75,-185 102,-185 102,-165.75 148.75,-165.75 148.75,-185"/>
<text text-anchor="middle" x="125.38" y="-171.5" font-family="Helvetica,sans-Serif" font-size="10.00">State.h</text>
</a>
</g>
</g>
<!-- Node14&#45;&gt;Node21 -->
<g id="edge33_Node000014_Node000021" class="edge">
<title>Node14&#45;&gt;Node21</title>
<g id="a_edge33_Node000014_Node000021"><a xlink:title=" ">
<path fill="none" stroke="#63b8ff" d="M279.86,-222.33C248.76,-213.08 194.94,-197.07 159.74,-186.6"/>
<polygon fill="#63b8ff" stroke="#63b8ff" points="161.06,-183.34 150.47,-183.84 159.06,-190.05 161.06,-183.34"/>
</a>
</g>
</g>
<!-- Node17&#45;&gt;Node6 -->
<g id="edge25_Node000017_Node000006" class="edge">
<title>Node17&#45;&gt;Node6</title>
<g id="a_edge25_Node000017_Node000006"><a xlink:title=" ">
<path fill="none" stroke="#63b8ff" d="M396.46,-165.57C408.32,-140.03 442.93,-65.45 459.43,-29.9"/>
<polygon fill="#63b8ff" stroke="#63b8ff" points="462.6,-31.39 463.63,-20.85 456.25,-28.44 462.6,-31.39"/>
</a>
</g>
</g>
<!-- Node18&#45;&gt;Node3 -->
<g id="edge32_Node000018_Node000003" class="edge">
<title>Node18&#45;&gt;Node3</title>
<g id="a_edge32_Node000018_Node000003"><a xlink:title=" ">
<path fill="none" stroke="#63b8ff" d="M634.11,-165.34C620.53,-157.31 600.42,-145.41 584.48,-135.98"/>
<polygon fill="#63b8ff" stroke="#63b8ff" points="586.41,-133.05 576.02,-130.97 582.84,-139.08 586.41,-133.05"/>
</a>
</g>
</g>
<!-- Node18&#45;&gt;Node11 -->
<g id="edge31_Node000018_Node000011" class="edge">
<title>Node18&#45;&gt;Node11</title>
<g id="a_edge31_Node000018_Node000011"><a xlink:title=" ">
<path fill="none" stroke="#63b8ff" d="M663.18,-165.34C674.46,-157.27 690.02,-144.48 699.38,-129.75 707.83,-116.43 712.67,-99.17 715.35,-85.95"/>
<polygon fill="#63b8ff" stroke="#63b8ff" points="718.77,-86.72 717.04,-76.26 711.87,-85.51 718.77,-86.72"/>
</a>
</g>
</g>
<!-- Node19 -->
<g id="Node000019" class="node">
<title>Node19</title>
<g id="a_Node000019"><a xlink:title=" ">
<polygon fill="#e0e0e0" stroke="#999999" points="820.25,-129.75 746.5,-129.75 746.5,-110.5 820.25,-110.5 820.25,-129.75"/>
<text text-anchor="middle" x="783.38" y="-116.25" font-family="Helvetica,sans-Serif" font-size="10.00">Eigen/Sparse</text>
</a>
</g>
</g>
<!-- Node18&#45;&gt;Node19 -->
<g id="edge29_Node000018_Node000019" class="edge">
<title>Node18&#45;&gt;Node19</title>
<g id="a_edge29_Node000018_Node000019"><a xlink:title=" ">
<path fill="none" stroke="#63b8ff" d="M672.11,-165.34C693.47,-156.85 725.72,-144.04 750,-134.39"/>
<polygon fill="#63b8ff" stroke="#63b8ff" points="751.13,-137.71 759.13,-130.76 748.54,-131.2 751.13,-137.71"/>
</a>
</g>
</g>
<!-- Node20 -->
<g id="Node000020" class="node">
<title>Node20</title>
<g id="a_Node000020"><a xlink:title=" ">
<polygon fill="#e0e0e0" stroke="#999999" points="690,-129.75 602.75,-129.75 602.75,-110.5 690,-110.5 690,-129.75"/>
<text text-anchor="middle" x="646.38" y="-116.25" font-family="Helvetica,sans-Serif" font-size="10.00">Eigen/SparseLU</text>
</a>
</g>
</g>
<!-- Node18&#45;&gt;Node20 -->
<g id="edge30_Node000018_Node000020" class="edge">
<title>Node18&#45;&gt;Node20</title>
<g id="a_edge30_Node000018_Node000020"><a xlink:title=" ">
<path fill="none" stroke="#63b8ff" d="M648.88,-165.58C648.51,-158.99 647.99,-149.71 647.51,-141.32"/>
<polygon fill="#63b8ff" stroke="#63b8ff" points="651.02,-141.41 646.97,-131.62 644.03,-141.8 651.02,-141.41"/>
</a>
</g>
</g>
<!-- Node21&#45;&gt;Node15 -->
<g id="edge34_Node000021_Node000015" class="edge">
<title>Node21&#45;&gt;Node15</title>
<g id="a_edge34_Node000021_Node000015"><a xlink:title=" ">
<path fill="none" stroke="#63b8ff" d="M123.72,-165.58C122.49,-158.99 120.74,-149.71 119.17,-141.32"/>
<polygon fill="#63b8ff" stroke="#63b8ff" points="122.63,-140.78 117.34,-131.6 115.75,-142.07 122.63,-140.78"/>
</a>
</g>
</g>
<!-- Node22&#45;&gt;Node11 -->
<g id="edge37_Node000022_Node000011" class="edge">
<title>Node22&#45;&gt;Node11</title>
<g id="a_edge37_Node000022_Node000011"><a xlink:title=" ">
<path fill="none" stroke="#63b8ff" d="M777.86,-220.58C802.38,-200.17 855.57,-149.27 829.38,-110.5 813.14,-86.47 781.6,-75.38 756.27,-70.26"/>
<polygon fill="#63b8ff" stroke="#63b8ff" points="757.1,-66.85 746.64,-68.57 755.89,-73.75 757.1,-66.85"/>
</a>
</g>
</g>
</g>
</svg>
