<?xml version="1.0" encoding="UTF-8" standalone="no"?>
<!DOCTYPE svg PUBLIC "-//W3C//DTD SVG 1.1//EN"
 "http://www.w3.org/Graphics/SVG/1.1/DTD/svg11.dtd">
<!-- Generated by graphviz version 12.2.1 (20241206.2353)
 -->
<!-- Title: model/ClosedLoopHeartPulmonary.h Pages: 1 -->
<svg width="847pt" height="304pt"
 viewBox="0.00 0.00 847.13 303.50" xmlns="http://www.w3.org/2000/svg" xmlns:xlink="http://www.w3.org/1999/xlink">
<g id="graph0" class="graph" transform="scale(1 1) rotate(0) translate(4 299.5)">
<title>model/ClosedLoopHeartPulmonary.h</title>
<!-- Node1 -->
<g id="Node000001" class="node">
<title>Node1</title>
<g id="a_Node000001"><a xlink:title="model::ClosedLoopHeartPulmonary source file">
<polygon fill="#999999" stroke="#666666" points="758.75,-295.5 584.5,-295.5 584.5,-276.25 758.75,-276.25 758.75,-295.5"/>
<text text-anchor="middle" x="671.62" y="-282" font-family="Helvetica,sans-Serif" font-size="10.00">model/ClosedLoopHeartPulmonary.h</text>
</a>
</g>
</g>
<!-- Node2 -->
<g id="Node000002" class="node">
<title>Node2</title>
<g id="a_Node000002"><a xlink:href="_block_8h.html" target="_top" xlink:title="model::Block source file">
<polygon fill="white" stroke="#666666" points="311.75,-240.25 263.5,-240.25 263.5,-221 311.75,-221 311.75,-240.25"/>
<text text-anchor="middle" x="287.62" y="-226.75" font-family="Helvetica,sans-Serif" font-size="10.00">Block.h</text>
</a>
</g>
</g>
<!-- Node1&#45;&gt;Node2 -->
<g id="edge1_Node000001_Node000002" class="edge">
<title>Node1&#45;&gt;Node2</title>
<g id="a_edge1_Node000001_Node000002"><a xlink:title=" ">
<path fill="none" stroke="#63b8ff" d="M606.05,-275.78C524.38,-264.46 387.77,-245.51 323.33,-236.58"/>
<polygon fill="#63b8ff" stroke="#63b8ff" points="324.05,-233.14 313.67,-235.24 323.09,-240.08 324.05,-233.14"/>
</a>
</g>
</g>
<!-- Node12 -->
<g id="Node000012" class="node">
<title>Node12</title>
<g id="a_Node000012"><a xlink:title=" ">
<polygon fill="#e0e0e0" stroke="#999999" points="706.12,-74.5 663.12,-74.5 663.12,-55.25 706.12,-55.25 706.12,-74.5"/>
<text text-anchor="middle" x="684.62" y="-61" font-family="Helvetica,sans-Serif" font-size="10.00">cmath</text>
</a>
</g>
</g>
<!-- Node1&#45;&gt;Node12 -->
<g id="edge33_Node000001_Node000012" class="edge">
<title>Node1&#45;&gt;Node12</title>
<g id="a_edge33_Node000001_Node000012"><a xlink:title=" ">
<path fill="none" stroke="#63b8ff" d="M687.81,-275.88C722.79,-255.39 804.78,-201.38 835.62,-129.75 856.47,-81.34 768.17,-69.54 717.7,-66.72"/>
<polygon fill="#63b8ff" stroke="#63b8ff" points="718.03,-63.23 707.88,-66.27 717.71,-70.23 718.03,-63.23"/>
</a>
</g>
</g>
<!-- Node17 -->
<g id="Node000017" class="node">
<title>Node17</title>
<g id="a_Node000017"><a xlink:href="_sparse_system_8h.html" target="_top" xlink:title="SparseSystem source file.">
<polygon fill="white" stroke="#666666" points="715.25,-185 628,-185 628,-165.75 715.25,-165.75 715.25,-185"/>
<text text-anchor="middle" x="671.62" y="-171.5" font-family="Helvetica,sans-Serif" font-size="10.00">SparseSystem.h</text>
</a>
</g>
</g>
<!-- Node1&#45;&gt;Node17 -->
<g id="edge32_Node000001_Node000017" class="edge">
<title>Node1&#45;&gt;Node17</title>
<g id="a_edge32_Node000001_Node000017"><a xlink:title=" ">
<path fill="none" stroke="#63b8ff" d="M671.62,-276C671.62,-258.75 671.62,-220.33 671.62,-196.56"/>
<polygon fill="#63b8ff" stroke="#63b8ff" points="675.13,-196.89 671.63,-186.89 668.13,-196.89 675.13,-196.89"/>
</a>
</g>
</g>
<!-- Node3 -->
<g id="Node000003" class="node">
<title>Node3</title>
<g id="a_Node000003"><a xlink:title=" ">
<polygon fill="#e0e0e0" stroke="#999999" points="63.25,-129.75 0,-129.75 0,-110.5 63.25,-110.5 63.25,-129.75"/>
<text text-anchor="middle" x="31.62" y="-116.25" font-family="Helvetica,sans-Serif" font-size="10.00">Eigen/Core</text>
</a>
</g>
</g>
<!-- Node2&#45;&gt;Node3 -->
<g id="edge2_Node000002_Node000003" class="edge">
<title>Node2&#45;&gt;Node3</title>
<g id="a_edge2_Node000002_Node000003"><a xlink:title=" ">
<path fill="none" stroke="#63b8ff" d="M263.35,-229.63C201.18,-229.06 38.78,-223.82 5.62,-185 -5.87,-171.54 4.59,-152.32 15.47,-138.48"/>
<polygon fill="#63b8ff" stroke="#63b8ff" points="17.99,-140.92 21.83,-131.05 12.67,-136.37 17.99,-140.92"/>
</a>
</g>
</g>
<!-- Node4 -->
<g id="Node000004" class="node">
<title>Node4</title>
<g id="a_Node000004"><a xlink:title=" ">
<polygon fill="#e0e0e0" stroke="#999999" points="43.02,-185 14.22,-185 14.22,-165.75 43.02,-165.75 43.02,-185"/>
<text text-anchor="middle" x="28.62" y="-171.5" font-family="Helvetica,sans-Serif" font-size="10.00">list</text>
</a>
</g>
</g>
<!-- Node2&#45;&gt;Node4 -->
<g id="edge3_Node000002_Node000004" class="edge">
<title>Node2&#45;&gt;Node4</title>
<g id="a_edge3_Node000002_Node000004"><a xlink:title=" ">
<path fill="none" stroke="#63b8ff" d="M263.32,-226.3C222.2,-220.4 136.16,-206.89 54.46,-185.11"/>
<polygon fill="#63b8ff" stroke="#63b8ff" points="55.52,-181.77 44.95,-182.52 53.68,-188.52 55.52,-181.77"/>
</a>
</g>
</g>
<!-- Node5 -->
<g id="Node000005" class="node">
<title>Node5</title>
<g id="a_Node000005"><a xlink:title=" ">
<polygon fill="#e0e0e0" stroke="#999999" points="229,-19.25 194.25,-19.25 194.25,0 229,0 229,-19.25"/>
<text text-anchor="middle" x="211.62" y="-5.75" font-family="Helvetica,sans-Serif" font-size="10.00">map</text>
</a>
</g>
</g>
<!-- Node2&#45;&gt;Node5 -->
<g id="edge4_Node000002_Node000005" class="edge">
<title>Node2&#45;&gt;Node5</title>
<g id="a_edge4_Node000002_Node000005"><a xlink:title=" ">
<path fill="none" stroke="#63b8ff" d="M264.12,-220.61C248.89,-213.42 230.16,-201.76 220.62,-185 192.57,-135.71 200.72,-65.32 207.13,-31.01"/>
<polygon fill="#63b8ff" stroke="#63b8ff" points="210.56,-31.72 209.13,-21.22 203.7,-30.32 210.56,-31.72"/>
</a>
</g>
</g>
<!-- Node6 -->
<g id="Node000006" class="node">
<title>Node6</title>
<g id="a_Node000006"><a xlink:title=" ">
<polygon fill="#e0e0e0" stroke="#999999" points="319.12,-19.25 276.12,-19.25 276.12,0 319.12,0 319.12,-19.25"/>
<text text-anchor="middle" x="297.62" y="-5.75" font-family="Helvetica,sans-Serif" font-size="10.00">vector</text>
</a>
</g>
</g>
<!-- Node2&#45;&gt;Node6 -->
<g id="edge5_Node000002_Node000006" class="edge">
<title>Node2&#45;&gt;Node6</title>
<g id="a_edge5_Node000002_Node000006"><a xlink:title=" ">
<path fill="none" stroke="#63b8ff" d="M266.52,-220.53C252.4,-213.19 234.94,-201.38 226.62,-185 222.75,-177.37 225.18,-174.18 226.62,-165.75 235.42,-114.42 241.54,-101.43 265.62,-55.25 270.46,-45.98 277.03,-36.46 282.95,-28.61"/>
<polygon fill="#63b8ff" stroke="#63b8ff" points="285.59,-30.92 289.01,-20.89 280.08,-26.6 285.59,-30.92"/>
</a>
</g>
</g>
<!-- Node7 -->
<g id="Node000007" class="node">
<title>Node7</title>
<g id="a_Node000007"><a xlink:href="_activation_function_8h.html" target="_top" xlink:title="Activation function classes for cardiac chamber models.">
<polygon fill="white" stroke="#666666" points="339.88,-185 235.38,-185 235.38,-165.75 339.88,-165.75 339.88,-185"/>
<text text-anchor="middle" x="287.62" y="-171.5" font-family="Helvetica,sans-Serif" font-size="10.00">ActivationFunction.h</text>
</a>
</g>
</g>
<!-- Node2&#45;&gt;Node7 -->
<g id="edge6_Node000002_Node000007" class="edge">
<title>Node2&#45;&gt;Node7</title>
<g id="a_edge6_Node000002_Node000007"><a xlink:title=" ">
<path fill="none" stroke="#63b8ff" d="M287.62,-220.83C287.62,-214.32 287.62,-205.17 287.62,-196.87"/>
<polygon fill="#63b8ff" stroke="#63b8ff" points="291.13,-196.87 287.63,-186.87 284.13,-196.87 291.13,-196.87"/>
</a>
</g>
</g>
<!-- Node10 -->
<g id="Node000010" class="node">
<title>Node10</title>
<g id="a_Node000010"><a xlink:href="_parameter_8h.html" target="_top" xlink:title="model::Parameter source file">
<polygon fill="white" stroke="#666666" points="415.88,-129.75 347.38,-129.75 347.38,-110.5 415.88,-110.5 415.88,-129.75"/>
<text text-anchor="middle" x="381.62" y="-116.25" font-family="Helvetica,sans-Serif" font-size="10.00">Parameter.h</text>
</a>
</g>
</g>
<!-- Node2&#45;&gt;Node10 -->
<g id="edge24_Node000002_Node000010" class="edge">
<title>Node2&#45;&gt;Node10</title>
<g id="a_edge24_Node000002_Node000010"><a xlink:title=" ">
<path fill="none" stroke="#63b8ff" d="M304.02,-220.54C317.33,-212.53 335.91,-199.85 348.62,-185 359.93,-171.8 368.7,-154.07 374.34,-140.63"/>
<polygon fill="#63b8ff" stroke="#63b8ff" points="377.51,-142.15 377.93,-131.57 371,-139.58 377.51,-142.15"/>
</a>
</g>
</g>
<!-- Node15 -->
<g id="Node000015" class="node">
<title>Node15</title>
<g id="a_Node000015"><a xlink:href="_d_o_f_handler_8h.html" target="_top" xlink:title="model::DOFHandler source file">
<polygon fill="white" stroke="#666666" points="573.38,-74.5 495.88,-74.5 495.88,-55.25 573.38,-55.25 573.38,-74.5"/>
<text text-anchor="middle" x="534.62" y="-61" font-family="Helvetica,sans-Serif" font-size="10.00">DOFHandler.h</text>
</a>
</g>
</g>
<!-- Node2&#45;&gt;Node15 -->
<g id="edge23_Node000002_Node000015" class="edge">
<title>Node2&#45;&gt;Node15</title>
<g id="a_edge23_Node000002_Node000015"><a xlink:title=" ">
<path fill="none" stroke="#63b8ff" d="M312.01,-222.62C353.29,-209.8 437.88,-179.21 493.62,-129.75 507.64,-117.31 518.73,-98.99 525.83,-85.15"/>
<polygon fill="#63b8ff" stroke="#63b8ff" points="528.97,-86.7 530.17,-76.17 522.66,-83.66 528.97,-86.7"/>
</a>
</g>
</g>
<!-- Node16 -->
<g id="Node000016" class="node">
<title>Node16</title>
<g id="a_Node000016"><a xlink:href="_block_type_8h.html" target="_top" xlink:title="Specifies the types of blocks and their parameters.">
<polygon fill="white" stroke="#666666" points="610.25,-185 541,-185 541,-165.75 610.25,-165.75 610.25,-185"/>
<text text-anchor="middle" x="575.62" y="-171.5" font-family="Helvetica,sans-Serif" font-size="10.00">BlockType.h</text>
</a>
</g>
</g>
<!-- Node2&#45;&gt;Node16 -->
<g id="edge21_Node000002_Node000016" class="edge">
<title>Node2&#45;&gt;Node16</title>
<g id="a_edge21_Node000002_Node000016"><a xlink:title=" ">
<path fill="none" stroke="#63b8ff" d="M312.18,-225.08C360.33,-216.18 467.82,-196.31 529.59,-184.89"/>
<polygon fill="#63b8ff" stroke="#63b8ff" points="529.88,-188.39 539.07,-183.13 528.6,-181.51 529.88,-188.39"/>
</a>
</g>
</g>
<!-- Node2&#45;&gt;Node17 -->
<g id="edge25_Node000002_Node000017" class="edge">
<title>Node2&#45;&gt;Node17</title>
<g id="a_edge25_Node000002_Node000017"><a xlink:title=" ">
<path fill="none" stroke="#63b8ff" d="M312.24,-226.58C365.69,-219.91 496.64,-203.27 616.48,-185.44"/>
<polygon fill="#63b8ff" stroke="#63b8ff" points="616.8,-188.93 626.17,-183.99 615.76,-182.01 616.8,-188.93"/>
</a>
</g>
</g>
<!-- Node20 -->
<g id="Node000020" class="node">
<title>Node20</title>
<g id="a_Node000020"><a xlink:href="_state_8h.html" target="_top" xlink:title="State source file.">
<polygon fill="white" stroke="#666666" points="108,-185 61.25,-185 61.25,-165.75 108,-165.75 108,-185"/>
<text text-anchor="middle" x="84.62" y="-171.5" font-family="Helvetica,sans-Serif" font-size="10.00">State.h</text>
</a>
</g>
</g>
<!-- Node2&#45;&gt;Node20 -->
<g id="edge30_Node000002_Node000020" class="edge">
<title>Node2&#45;&gt;Node20</title>
<g id="a_edge30_Node000002_Node000020"><a xlink:title=" ">
<path fill="none" stroke="#63b8ff" d="M263.14,-223.2C227.26,-213.79 160.24,-196.21 119.31,-185.47"/>
<polygon fill="#63b8ff" stroke="#63b8ff" points="120.28,-182.11 109.72,-182.96 118.5,-188.88 120.28,-182.11"/>
</a>
</g>
</g>
<!-- Node7&#45;&gt;Node5 -->
<g id="edge7_Node000007_Node000005" class="edge">
<title>Node7&#45;&gt;Node5</title>
<g id="a_edge7_Node000007_Node000005"><a xlink:title=" ">
<path fill="none" stroke="#63b8ff" d="M283.42,-165.49C279.17,-156.49 272.41,-142.17 266.62,-129.75 250.24,-94.6 231.33,-53.52 220.49,-29.94"/>
<polygon fill="#63b8ff" stroke="#63b8ff" points="223.73,-28.6 216.37,-20.98 217.37,-31.53 223.73,-28.6"/>
</a>
</g>
</g>
<!-- Node7&#45;&gt;Node6 -->
<g id="edge10_Node000007_Node000006" class="edge">
<title>Node7&#45;&gt;Node6</title>
<g id="a_edge10_Node000007_Node000006"><a xlink:title=" ">
<path fill="none" stroke="#63b8ff" d="M283.89,-165.34C280.45,-156.46 275.57,-142.43 273.62,-129.75 268.61,-97.02 265.54,-87.36 273.62,-55.25 275.9,-46.21 280.41,-37 284.91,-29.31"/>
<polygon fill="#63b8ff" stroke="#63b8ff" points="287.83,-31.24 290.22,-20.92 281.92,-27.5 287.83,-31.24"/>
</a>
</g>
</g>
<!-- Node8 -->
<g id="Node000008" class="node">
<title>Node8</title>
<g id="a_Node000008"><a xlink:title=" ">
<polygon fill="#e0e0e0" stroke="#999999" points="484.88,-129.75 434.38,-129.75 434.38,-110.5 484.88,-110.5 484.88,-129.75"/>
<text text-anchor="middle" x="459.62" y="-116.25" font-family="Helvetica,sans-Serif" font-size="10.00">memory</text>
</a>
</g>
</g>
<!-- Node7&#45;&gt;Node8 -->
<g id="edge8_Node000007_Node000008" class="edge">
<title>Node7&#45;&gt;Node8</title>
<g id="a_edge8_Node000007_Node000008"><a xlink:title=" ">
<path fill="none" stroke="#63b8ff" d="M316.8,-165.34C346.21,-156.24 391.66,-142.17 423.37,-132.35"/>
<polygon fill="#63b8ff" stroke="#63b8ff" points="424,-135.82 432.51,-129.52 421.93,-129.13 424,-135.82"/>
</a>
</g>
</g>
<!-- Node9 -->
<g id="Node000009" class="node">
<title>Node9</title>
<g id="a_Node000009"><a xlink:title=" ">
<polygon fill="#e0e0e0" stroke="#999999" points="554.62,-19.25 514.62,-19.25 514.62,0 554.62,0 554.62,-19.25"/>
<text text-anchor="middle" x="534.62" y="-5.75" font-family="Helvetica,sans-Serif" font-size="10.00">string</text>
</a>
</g>
</g>
<!-- Node7&#45;&gt;Node9 -->
<g id="edge9_Node000007_Node000009" class="edge">
<title>Node7&#45;&gt;Node9</title>
<g id="a_edge9_Node000007_Node000009"><a xlink:title=" ">
<path fill="none" stroke="#63b8ff" d="M289.21,-165.26C293.63,-142.81 308.19,-84.57 344.62,-55.25 390.54,-18.3 461.76,-10.96 502.71,-10.05"/>
<polygon fill="#63b8ff" stroke="#63b8ff" points="502.66,-13.55 512.63,-9.96 502.6,-6.55 502.66,-13.55"/>
</a>
</g>
</g>
<!-- Node7&#45;&gt;Node10 -->
<g id="edge11_Node000007_Node000010" class="edge">
<title>Node7&#45;&gt;Node10</title>
<g id="a_edge11_Node000007_Node000010"><a xlink:title=" ">
<path fill="none" stroke="#63b8ff" d="M303.57,-165.34C317.89,-157.23 339.16,-145.18 355.88,-135.71"/>
<polygon fill="#63b8ff" stroke="#63b8ff" points="357.31,-138.92 364.28,-130.95 353.86,-132.83 357.31,-138.92"/>
</a>
</g>
</g>
<!-- Node10&#45;&gt;Node6 -->
<g id="edge16_Node000010_Node000006" class="edge">
<title>Node10&#45;&gt;Node6</title>
<g id="a_edge16_Node000010_Node000006"><a xlink:title=" ">
<path fill="none" stroke="#63b8ff" d="M373.81,-110.02C366.22,-101.09 354.42,-87.03 344.62,-74.5 332.72,-59.26 319.73,-41.52 310.43,-28.6"/>
<polygon fill="#63b8ff" stroke="#63b8ff" points="313.4,-26.74 304.73,-20.65 307.71,-30.82 313.4,-26.74"/>
</a>
</g>
</g>
<!-- Node11 -->
<g id="Node000011" class="node">
<title>Node11</title>
<g id="a_Node000011"><a xlink:title=" ">
<polygon fill="#e0e0e0" stroke="#999999" points="409.5,-74.5 353.75,-74.5 353.75,-55.25 409.5,-55.25 409.5,-74.5"/>
<text text-anchor="middle" x="381.62" y="-61" font-family="Helvetica,sans-Serif" font-size="10.00">algorithm</text>
</a>
</g>
</g>
<!-- Node10&#45;&gt;Node11 -->
<g id="edge12_Node000010_Node000011" class="edge">
<title>Node10&#45;&gt;Node11</title>
<g id="a_edge12_Node000010_Node000011"><a xlink:title=" ">
<path fill="none" stroke="#63b8ff" d="M381.62,-110.33C381.62,-103.82 381.62,-94.67 381.62,-86.37"/>
<polygon fill="#63b8ff" stroke="#63b8ff" points="385.13,-86.37 381.63,-76.37 378.13,-86.37 385.13,-86.37"/>
</a>
</g>
</g>
<!-- Node10&#45;&gt;Node12 -->
<g id="edge13_Node000010_Node000012" class="edge">
<title>Node10&#45;&gt;Node12</title>
<g id="a_edge13_Node000010_Node000012"><a xlink:title=" ">
<path fill="none" stroke="#63b8ff" d="M416.19,-112.22C419.38,-111.62 422.56,-111.04 425.62,-110.5 523.52,-93.22 552.05,-96.51 651.58,-74.96"/>
<polygon fill="#63b8ff" stroke="#63b8ff" points="652.26,-78.39 661.27,-72.83 650.75,-71.56 652.26,-78.39"/>
</a>
</g>
</g>
<!-- Node13 -->
<g id="Node000013" class="node">
<title>Node13</title>
<g id="a_Node000013"><a xlink:title=" ">
<polygon fill="#e0e0e0" stroke="#999999" points="645.38,-74.5 591.88,-74.5 591.88,-55.25 645.38,-55.25 645.38,-74.5"/>
<text text-anchor="middle" x="618.62" y="-61" font-family="Helvetica,sans-Serif" font-size="10.00">iostream</text>
</a>
</g>
</g>
<!-- Node10&#45;&gt;Node13 -->
<g id="edge14_Node000010_Node000013" class="edge">
<title>Node10&#45;&gt;Node13</title>
<g id="a_edge14_Node000010_Node000013"><a xlink:title=" ">
<path fill="none" stroke="#63b8ff" d="M416.16,-111.64C454.05,-103.39 516.93,-89.58 580.48,-74.97"/>
<polygon fill="#63b8ff" stroke="#63b8ff" points="581.08,-78.42 590.03,-72.76 579.5,-71.6 581.08,-78.42"/>
</a>
</g>
</g>
<!-- Node14 -->
<g id="Node000014" class="node">
<title>Node14</title>
<g id="a_Node000014"><a xlink:title=" ">
<polygon fill="#e0e0e0" stroke="#999999" points="477.88,-74.5 427.38,-74.5 427.38,-55.25 477.88,-55.25 477.88,-74.5"/>
<text text-anchor="middle" x="452.62" y="-61" font-family="Helvetica,sans-Serif" font-size="10.00">numeric</text>
</a>
</g>
</g>
<!-- Node10&#45;&gt;Node14 -->
<g id="edge15_Node000010_Node000014" class="edge">
<title>Node10&#45;&gt;Node14</title>
<g id="a_edge15_Node000010_Node000014"><a xlink:title=" ">
<path fill="none" stroke="#63b8ff" d="M393.67,-110.09C404.03,-102.32 419.23,-90.92 431.59,-81.65"/>
<polygon fill="#63b8ff" stroke="#63b8ff" points="433.65,-84.48 439.55,-75.68 429.45,-78.88 433.65,-84.48"/>
</a>
</g>
</g>
<!-- Node10&#45;&gt;Node15 -->
<g id="edge17_Node000010_Node000015" class="edge">
<title>Node10&#45;&gt;Node15</title>
<g id="a_edge17_Node000010_Node000015"><a xlink:title=" ">
<path fill="none" stroke="#63b8ff" d="M407.58,-110.09C432.42,-101.45 470.12,-88.32 498.01,-78.62"/>
<polygon fill="#63b8ff" stroke="#63b8ff" points="498.82,-82.04 507.11,-75.45 496.52,-75.43 498.82,-82.04"/>
</a>
</g>
</g>
<!-- Node15&#45;&gt;Node5 -->
<g id="edge18_Node000015_Node000005" class="edge">
<title>Node15&#45;&gt;Node5</title>
<g id="a_edge18_Node000015_Node000005"><a xlink:title=" ">
<path fill="none" stroke="#63b8ff" d="M495.6,-56.81C492.57,-56.27 489.55,-55.75 486.62,-55.25 396.99,-39.93 290.7,-23.04 240.56,-15.15"/>
<polygon fill="#63b8ff" stroke="#63b8ff" points="241.25,-11.72 230.83,-13.63 240.17,-18.64 241.25,-11.72"/>
</a>
</g>
</g>
<!-- Node15&#45;&gt;Node6 -->
<g id="edge20_Node000015_Node000006" class="edge">
<title>Node15&#45;&gt;Node6</title>
<g id="a_edge20_Node000015_Node000006"><a xlink:title=" ">
<path fill="none" stroke="#63b8ff" d="M495.49,-55.08C449.36,-44.72 373.55,-27.68 330.39,-17.99"/>
<polygon fill="#63b8ff" stroke="#63b8ff" points="331.39,-14.62 320.86,-15.85 329.85,-21.45 331.39,-14.62"/>
</a>
</g>
</g>
<!-- Node15&#45;&gt;Node9 -->
<g id="edge19_Node000015_Node000009" class="edge">
<title>Node15&#45;&gt;Node9</title>
<g id="a_edge19_Node000015_Node000009"><a xlink:title=" ">
<path fill="none" stroke="#63b8ff" d="M534.62,-55.08C534.62,-48.57 534.62,-39.42 534.62,-31.12"/>
<polygon fill="#63b8ff" stroke="#63b8ff" points="538.13,-31.12 534.63,-21.12 531.13,-31.12 538.13,-31.12"/>
</a>
</g>
</g>
<!-- Node16&#45;&gt;Node9 -->
<g id="edge22_Node000016_Node000009" class="edge">
<title>Node16&#45;&gt;Node9</title>
<g id="a_edge22_Node000016_Node000009"><a xlink:title=" ">
<path fill="none" stroke="#63b8ff" d="M582.42,-165.52C593.02,-152.18 614.67,-126.76 637.62,-110.5 672.29,-85.94 741.82,-88.69 715.62,-55.25 697.4,-31.99 613.08,-19.21 566.23,-13.79"/>
<polygon fill="#63b8ff" stroke="#63b8ff" points="566.75,-10.33 556.42,-12.71 565.98,-17.28 566.75,-10.33"/>
</a>
</g>
</g>
<!-- Node17&#45;&gt;Node8 -->
<g id="edge29_Node000017_Node000008" class="edge">
<title>Node17&#45;&gt;Node8</title>
<g id="a_edge29_Node000017_Node000008"><a xlink:title=" ">
<path fill="none" stroke="#63b8ff" d="M635.66,-165.34C596.82,-155.59 535.28,-140.13 496.2,-130.31"/>
<polygon fill="#63b8ff" stroke="#63b8ff" points="497.11,-126.93 486.56,-127.89 495.4,-133.72 497.11,-126.93"/>
</a>
</g>
</g>
<!-- Node17&#45;&gt;Node13 -->
<g id="edge28_Node000017_Node000013" class="edge">
<title>Node17&#45;&gt;Node13</title>
<g id="a_edge28_Node000017_Node000013"><a xlink:title=" ">
<path fill="none" stroke="#63b8ff" d="M663.26,-165.47C655.63,-156.9 644.51,-143.3 637.62,-129.75 630.56,-115.84 625.66,-98.85 622.61,-85.89"/>
<polygon fill="#63b8ff" stroke="#63b8ff" points="626.1,-85.45 620.56,-76.42 619.26,-86.93 626.1,-85.45"/>
</a>
</g>
</g>
<!-- Node18 -->
<g id="Node000018" class="node">
<title>Node18</title>
<g id="a_Node000018"><a xlink:title=" ">
<polygon fill="#e0e0e0" stroke="#999999" points="720.5,-129.75 646.75,-129.75 646.75,-110.5 720.5,-110.5 720.5,-129.75"/>
<text text-anchor="middle" x="683.62" y="-116.25" font-family="Helvetica,sans-Serif" font-size="10.00">Eigen/Sparse</text>
</a>
</g>
</g>
<!-- Node17&#45;&gt;Node18 -->
<g id="edge26_Node000017_Node000018" class="edge">
<title>Node17&#45;&gt;Node18</title>
<g id="a_edge26_Node000017_Node000018"><a xlink:title=" ">
<path fill="none" stroke="#63b8ff" d="M673.61,-165.58C675.09,-158.99 677.18,-149.71 679.07,-141.32"/>
<polygon fill="#63b8ff" stroke="#63b8ff" points="682.48,-142.11 681.27,-131.59 675.65,-140.57 682.48,-142.11"/>
</a>
</g>
</g>
<!-- Node19 -->
<g id="Node000019" class="node">
<title>Node19</title>
<g id="a_Node000019"><a xlink:title=" ">
<polygon fill="#e0e0e0" stroke="#999999" points="826.25,-129.75 739,-129.75 739,-110.5 826.25,-110.5 826.25,-129.75"/>
<text text-anchor="middle" x="782.62" y="-116.25" font-family="Helvetica,sans-Serif" font-size="10.00">Eigen/SparseLU</text>
</a>
</g>
</g>
<!-- Node17&#45;&gt;Node19 -->
<g id="edge27_Node000017_Node000019" class="edge">
<title>Node17&#45;&gt;Node19</title>
<g id="a_edge27_Node000017_Node000019"><a xlink:title=" ">
<path fill="none" stroke="#63b8ff" d="M690.45,-165.34C707.68,-157.08 733.43,-144.73 753.33,-135.18"/>
<polygon fill="#63b8ff" stroke="#63b8ff" points="754.84,-138.34 762.34,-130.86 751.81,-132.03 754.84,-138.34"/>
</a>
</g>
</g>
<!-- Node20&#45;&gt;Node3 -->
<g id="edge31_Node000020_Node000003" class="edge">
<title>Node20&#45;&gt;Node3</title>
<g id="a_edge31_Node000020_Node000003"><a xlink:title=" ">
<path fill="none" stroke="#63b8ff" d="M75.87,-165.58C68.48,-158.15 57.66,-147.29 48.58,-138.16"/>
<polygon fill="#63b8ff" stroke="#63b8ff" points="51.17,-135.8 41.63,-131.18 46.21,-140.74 51.17,-135.8"/>
</a>
</g>
</g>
</g>
</svg>
