<?xml version="1.0" encoding="UTF-8" standalone="no"?>
<!DOCTYPE svg PUBLIC "-//W3C//DTD SVG 1.1//EN"
 "http://www.w3.org/Graphics/SVG/1.1/DTD/svg11.dtd">
<!-- Generated by graphviz version 9.0.0 (20230911.1827)
 -->
<!-- Title: model/ClosedLoopHeartPulmonary.h Pages: 1 -->
<svg width="717pt" height="326pt"
 viewBox="0.00 0.00 717.47 326.00" xmlns="http://www.w3.org/2000/svg" xmlns:xlink="http://www.w3.org/1999/xlink">
<g id="graph0" class="graph" transform="scale(1 1) rotate(0) translate(4 322)">
<title>model/ClosedLoopHeartPulmonary.h</title>
<!-- Node1 -->
<g id="Node000001" class="node">
<title>Node1</title>
<g id="a_Node000001"><a xlink:title="model::ClosedLoopHeartPulmonary source file">
<polygon fill="#999999" stroke="#666666" points="470.5,-318 296.25,-318 296.25,-298.75 470.5,-298.75 470.5,-318"/>
<text text-anchor="middle" x="383.38" y="-304.5" font-family="Helvetica,sans-Serif" font-size="10.00">model/ClosedLoopHeartPulmonary.h</text>
</a>
</g>
</g>
<!-- Node2 -->
<g id="Node000002" class="node">
<title>Node2</title>
<g id="a_Node000002"><a xlink:href="_closed_loop_coronary_b_c_8h.html" target="_top" xlink:title="model::ClosedLoopCoronaryBC source file">
<polygon fill="white" stroke="#666666" points="408.5,-262.75 252.25,-262.75 252.25,-243.5 408.5,-243.5 408.5,-262.75"/>
<text text-anchor="middle" x="330.38" y="-249.25" font-family="Helvetica,sans-Serif" font-size="10.00">model/ClosedLoopCoronaryBC.h</text>
</a>
</g>
</g>
<!-- Node1&#45;&gt;Node2 -->
<g id="edge1_Node000001_Node000002" class="edge">
<title>Node1&#45;&gt;Node2</title>
<g id="a_edge1_Node000001_Node000002"><a xlink:title=" ">
<path fill="none" stroke="#63b8ff" d="M366.65,-290.57C357.6,-281.48 346.77,-270.6 339.32,-263.11"/>
<polygon fill="#63b8ff" stroke="#63b8ff" points="364.02,-292.89 373.56,-297.51 368.98,-287.95 364.02,-292.89"/>
</a>
</g>
</g>
<!-- Node4 -->
<g id="Node000004" class="node">
<title>Node4</title>
<g id="a_Node000004"><a xlink:href="_model_8h.html" target="_top" xlink:title="model::Model source file">
<polygon fill="white" stroke="#666666" points="379.88,-141 300.88,-141 300.88,-121.75 379.88,-121.75 379.88,-141"/>
<text text-anchor="middle" x="340.38" y="-127.5" font-family="Helvetica,sans-Serif" font-size="10.00">model/Model.h</text>
</a>
</g>
</g>
<!-- Node1&#45;&gt;Node4 -->
<g id="edge17_Node000001_Node000004" class="edge">
<title>Node1&#45;&gt;Node4</title>
<g id="a_edge17_Node000001_Node000004"><a xlink:title=" ">
<path fill="none" stroke="#63b8ff" d="M400.69,-290.18C407.25,-282.48 413.96,-272.85 417.38,-262.75 429.56,-226.64 436.4,-210.02 417.38,-177 407.27,-159.46 387.34,-148.19 370.29,-141.36"/>
<polygon fill="#63b8ff" stroke="#63b8ff" points="398.22,-287.7 394.01,-297.42 403.36,-292.45 398.22,-287.7"/>
</a>
</g>
</g>
<!-- Node3 -->
<g id="Node000003" class="node">
<title>Node3</title>
<g id="a_Node000003"><a xlink:href="_closed_loop_coronary_left_b_c_8h.html" target="_top" xlink:title="Left side of ClosedLoopCoronaryBC.">
<polygon fill="white" stroke="#666666" points="408,-207.5 272.75,-207.5 272.75,-177 408,-177 408,-207.5"/>
<text text-anchor="start" x="280.75" y="-194" font-family="Helvetica,sans-Serif" font-size="10.00">model/ClosedLoopCoronary</text>
<text text-anchor="middle" x="340.38" y="-182.75" font-family="Helvetica,sans-Serif" font-size="10.00">LeftBC.h</text>
</a>
</g>
</g>
<!-- Node2&#45;&gt;Node3 -->
<g id="edge2_Node000002_Node000003" class="edge">
<title>Node2&#45;&gt;Node3</title>
<g id="a_edge2_Node000002_Node000003"><a xlink:title=" ">
<path fill="none" stroke="#63b8ff" d="M333.81,-231.92C335.15,-223.99 336.67,-215.06 337.91,-207.78"/>
<polygon fill="#63b8ff" stroke="#63b8ff" points="330.37,-231.25 332.15,-241.69 337.27,-232.42 330.37,-231.25"/>
</a>
</g>
</g>
<!-- Node12 -->
<g id="Node000012" class="node">
<title>Node12</title>
<g id="a_Node000012"><a xlink:href="_closed_loop_coronary_right_b_c_8h.html" target="_top" xlink:title="Right side of ClosedLoopCoronaryBC.">
<polygon fill="white" stroke="#666666" points="255,-207.5 119.75,-207.5 119.75,-177 255,-177 255,-207.5"/>
<text text-anchor="start" x="127.75" y="-194" font-family="Helvetica,sans-Serif" font-size="10.00">model/ClosedLoopCoronary</text>
<text text-anchor="middle" x="187.38" y="-182.75" font-family="Helvetica,sans-Serif" font-size="10.00">RightBC.h</text>
</a>
</g>
</g>
<!-- Node2&#45;&gt;Node12 -->
<g id="edge15_Node000002_Node000012" class="edge">
<title>Node2&#45;&gt;Node12</title>
<g id="a_edge15_Node000002_Node000012"><a xlink:title=" ">
<path fill="none" stroke="#63b8ff" d="M297.74,-238.69C275.47,-229.52 245.96,-217.37 223.07,-207.94"/>
<polygon fill="#63b8ff" stroke="#63b8ff" points="296.37,-241.91 306.95,-242.48 299.03,-235.44 296.37,-241.91"/>
</a>
</g>
</g>
<!-- Node3&#45;&gt;Node4 -->
<g id="edge3_Node000003_Node000004" class="edge">
<title>Node3&#45;&gt;Node4</title>
<g id="a_edge3_Node000003_Node000004"><a xlink:title=" ">
<path fill="none" stroke="#63b8ff" d="M340.38,-165.23C340.38,-156.73 340.38,-147.84 340.38,-141.45"/>
<polygon fill="#63b8ff" stroke="#63b8ff" points="336.88,-165.18 340.38,-175.18 343.88,-165.18 336.88,-165.18"/>
</a>
</g>
</g>
<!-- Node5 -->
<g id="Node000005" class="node">
<title>Node5</title>
<g id="a_Node000005"><a xlink:href="_integrator_8h.html" target="_top" xlink:title="Integrator source file.">
<polygon fill="white" stroke="#666666" points="250,-80.12 150.75,-80.12 150.75,-60.88 250,-60.88 250,-80.12"/>
<text text-anchor="middle" x="200.38" y="-66.62" font-family="Helvetica,sans-Serif" font-size="10.00">algebra/Integrator.h</text>
</a>
</g>
</g>
<!-- Node4&#45;&gt;Node5 -->
<g id="edge4_Node000004_Node000005" class="edge">
<title>Node4&#45;&gt;Node5</title>
<g id="a_edge4_Node000004_Node000005"><a xlink:title=" ">
<path fill="none" stroke="#63b8ff" d="M308.49,-116.97C281.94,-105.8 244.85,-90.2 221.74,-80.48"/>
<polygon fill="#63b8ff" stroke="#63b8ff" points="306.84,-120.07 317.41,-120.72 309.55,-113.62 306.84,-120.07"/>
</a>
</g>
</g>
<!-- Node6 -->
<g id="Node000006" class="node">
<title>Node6</title>
<g id="a_Node000006"><a xlink:href="interface_8h.html" target="_top" xlink:title="svZeroDSolver callable interface.">
<polygon fill="white" stroke="#666666" points="173.12,-19.25 71.62,-19.25 71.62,0 173.12,0 173.12,-19.25"/>
<text text-anchor="middle" x="122.38" y="-5.75" font-family="Helvetica,sans-Serif" font-size="10.00">interface/interface.h</text>
</a>
</g>
</g>
<!-- Node4&#45;&gt;Node6 -->
<g id="edge7_Node000004_Node000006" class="edge">
<title>Node4&#45;&gt;Node6</title>
<g id="a_edge7_Node000004_Node000006"><a xlink:title=" ">
<path fill="none" stroke="#63b8ff" d="M289.45,-125.03C237.65,-118.56 162.13,-105.95 141.38,-85.75 123.15,-68.02 121.48,-35.52 121.85,-19.72"/>
<polygon fill="#63b8ff" stroke="#63b8ff" points="288.91,-128.49 299.26,-126.21 289.75,-121.54 288.91,-128.49"/>
</a>
</g>
</g>
<!-- Node7 -->
<g id="Node000007" class="node">
<title>Node7</title>
<g id="a_Node000007"><a xlink:href="_solver_8h.html" target="_top" xlink:title="Solver source file.">
<polygon fill="white" stroke="#666666" points="660.12,-19.25 582.62,-19.25 582.62,0 660.12,0 660.12,-19.25"/>
<text text-anchor="middle" x="621.38" y="-5.75" font-family="Helvetica,sans-Serif" font-size="10.00">solve/Solver.h</text>
</a>
</g>
</g>
<!-- Node4&#45;&gt;Node7 -->
<g id="edge12_Node000004_Node000007" class="edge">
<title>Node4&#45;&gt;Node7</title>
<g id="a_edge12_Node000004_Node000007"><a xlink:title=" ">
<path fill="none" stroke="#63b8ff" d="M391.53,-127.78C486.67,-122.44 683.06,-108.72 703.38,-85.75 712.36,-75.6 710.3,-66.9 703.38,-55.25 692.86,-37.56 672.6,-26.43 654.84,-19.72"/>
<polygon fill="#63b8ff" stroke="#63b8ff" points="391.48,-124.28 381.69,-128.32 391.87,-131.27 391.48,-124.28"/>
</a>
</g>
</g>
<!-- Node8 -->
<g id="Node000008" class="node">
<title>Node8</title>
<g id="a_Node000008"><a xlink:href="_levenberg_marquardt_optimizer_8h.html" target="_top" xlink:title="opt::LevenbergMarquardtOptimizer source file">
<polygon fill="white" stroke="#666666" points="412.5,-85.75 268.25,-85.75 268.25,-55.25 412.5,-55.25 412.5,-85.75"/>
<text text-anchor="start" x="276.25" y="-72.25" font-family="Helvetica,sans-Serif" font-size="10.00">optimize/LevenbergMarquardt</text>
<text text-anchor="middle" x="340.38" y="-61" font-family="Helvetica,sans-Serif" font-size="10.00">Optimizer.h</text>
</a>
</g>
</g>
<!-- Node4&#45;&gt;Node8 -->
<g id="edge8_Node000004_Node000008" class="edge">
<title>Node4&#45;&gt;Node8</title>
<g id="a_edge8_Node000004_Node000008"><a xlink:title=" ">
<path fill="none" stroke="#63b8ff" d="M340.38,-110.17C340.38,-102.24 340.38,-93.31 340.38,-86.03"/>
<polygon fill="#63b8ff" stroke="#63b8ff" points="336.88,-109.92 340.38,-119.92 343.88,-109.92 336.88,-109.92"/>
</a>
</g>
</g>
<!-- Node9 -->
<g id="Node000009" class="node">
<title>Node9</title>
<g id="a_Node000009"><a xlink:href="calibrate_8h.html" target="_top" xlink:title="opt::calibrate source file">
<polygon fill="white" stroke="#666666" points="530,-80.12 430.75,-80.12 430.75,-60.88 530,-60.88 530,-80.12"/>
<text text-anchor="middle" x="480.38" y="-66.62" font-family="Helvetica,sans-Serif" font-size="10.00">optimize/calibrate.h</text>
</a>
</g>
</g>
<!-- Node4&#45;&gt;Node9 -->
<g id="edge9_Node000004_Node000009" class="edge">
<title>Node4&#45;&gt;Node9</title>
<g id="a_edge9_Node000004_Node000009"><a xlink:title=" ">
<path fill="none" stroke="#63b8ff" d="M372.26,-116.97C398.81,-105.8 435.9,-90.2 459.01,-80.48"/>
<polygon fill="#63b8ff" stroke="#63b8ff" points="371.2,-113.62 363.34,-120.72 373.91,-120.07 371.2,-113.62"/>
</a>
</g>
</g>
<!-- Node10 -->
<g id="Node000010" class="node">
<title>Node10</title>
<g id="a_Node000010"><a xlink:href="_simulation_parameters_8h.html" target="_top" xlink:title="Source file to read simulation configuration.">
<polygon fill="white" stroke="#666666" points="694.25,-80.12 548.5,-80.12 548.5,-60.88 694.25,-60.88 694.25,-80.12"/>
<text text-anchor="middle" x="621.38" y="-66.62" font-family="Helvetica,sans-Serif" font-size="10.00">solve/SimulationParameters.h</text>
</a>
</g>
</g>
<!-- Node4&#45;&gt;Node10 -->
<g id="edge10_Node000004_Node000010" class="edge">
<title>Node4&#45;&gt;Node10</title>
<g id="a_edge10_Node000004_Node000010"><a xlink:title=" ">
<path fill="none" stroke="#63b8ff" d="M391.58,-119.65C444.92,-108.47 527.57,-91.15 577.86,-80.62"/>
<polygon fill="#63b8ff" stroke="#63b8ff" points="390.89,-116.22 381.82,-121.69 392.32,-123.07 390.89,-116.22"/>
</a>
</g>
</g>
<!-- Node11 -->
<g id="Node000011" class="node">
<title>Node11</title>
<g id="a_Node000011"><a xlink:href="csv__writer_8h.html" target="_top" xlink:title="csv_writer source file">
<polygon fill="white" stroke="#666666" points="94.75,-80.12 0,-80.12 0,-60.88 94.75,-60.88 94.75,-80.12"/>
<text text-anchor="middle" x="47.38" y="-66.62" font-family="Helvetica,sans-Serif" font-size="10.00">solve/csv_writer.h</text>
</a>
</g>
</g>
<!-- Node4&#45;&gt;Node11 -->
<g id="edge13_Node000004_Node000011" class="edge">
<title>Node4&#45;&gt;Node11</title>
<g id="a_edge13_Node000004_Node000011"><a xlink:title=" ">
<path fill="none" stroke="#63b8ff" d="M289.33,-121.16C242.25,-112.51 170.45,-98.97 108.38,-85.75 100.82,-84.14 92.77,-82.33 85.07,-80.55"/>
<polygon fill="#63b8ff" stroke="#63b8ff" points="288.5,-124.56 298.97,-122.92 289.76,-117.68 288.5,-124.56"/>
</a>
</g>
</g>
<!-- Node5&#45;&gt;Node6 -->
<g id="edge5_Node000005_Node000006" class="edge">
<title>Node5&#45;&gt;Node6</title>
<g id="a_edge5_Node000005_Node000006"><a xlink:title=" ">
<path fill="none" stroke="#63b8ff" d="M179.34,-53.63C164.91,-42.73 146.29,-28.67 134.33,-19.65"/>
<polygon fill="#63b8ff" stroke="#63b8ff" points="177.23,-56.42 187.32,-59.65 181.45,-50.83 177.23,-56.42"/>
</a>
</g>
</g>
<!-- Node5&#45;&gt;Node7 -->
<g id="edge6_Node000005_Node000007" class="edge">
<title>Node5&#45;&gt;Node7</title>
<g id="a_edge6_Node000005_Node000007"><a xlink:title=" ">
<path fill="none" stroke="#63b8ff" d="M246.14,-57.9C250.6,-56.94 255.07,-56.03 259.38,-55.25 376.04,-34.04 515.71,-19.98 582.31,-13.96"/>
<polygon fill="#63b8ff" stroke="#63b8ff" points="245.63,-54.43 236.65,-60.06 247.18,-61.26 245.63,-54.43"/>
</a>
</g>
</g>
<!-- Node10&#45;&gt;Node7 -->
<g id="edge11_Node000010_Node000007" class="edge">
<title>Node10&#45;&gt;Node7</title>
<g id="a_edge11_Node000010_Node000007"><a xlink:title=" ">
<path fill="none" stroke="#63b8ff" d="M621.38,-49.07C621.38,-39.04 621.38,-27.46 621.38,-19.65"/>
<polygon fill="#63b8ff" stroke="#63b8ff" points="617.88,-49.04 621.38,-59.04 624.88,-49.04 617.88,-49.04"/>
</a>
</g>
</g>
<!-- Node11&#45;&gt;Node6 -->
<g id="edge14_Node000011_Node000006" class="edge">
<title>Node11&#45;&gt;Node6</title>
<g id="a_edge14_Node000011_Node000006"><a xlink:title=" ">
<path fill="none" stroke="#63b8ff" d="M67.6,-53.63C81.47,-42.73 99.38,-28.67 110.88,-19.65"/>
<polygon fill="#63b8ff" stroke="#63b8ff" points="65.66,-50.7 59.96,-59.62 69.98,-56.2 65.66,-50.7"/>
</a>
</g>
</g>
<!-- Node12&#45;&gt;Node4 -->
<g id="edge16_Node000012_Node000004" class="edge">
<title>Node12&#45;&gt;Node4</title>
<g id="a_edge16_Node000012_Node000004"><a xlink:title=" ">
<path fill="none" stroke="#63b8ff" d="M236.03,-172.53C263.06,-162.13 295.46,-149.66 316.91,-141.4"/>
<polygon fill="#63b8ff" stroke="#63b8ff" points="235.08,-169.14 227,-176 237.59,-175.68 235.08,-169.14"/>
</a>
</g>
</g>
</g>
</svg>
