<?xml version="1.0" encoding="UTF-8" standalone="no"?>
<!DOCTYPE svg PUBLIC "-//W3C//DTD SVG 1.1//EN"
 "http://www.w3.org/Graphics/SVG/1.1/DTD/svg11.dtd">
<!-- Generated by graphviz version 7.0.5 (20221223.1930)
 -->
<!-- Title: model/ClosedLoopCoronaryBC.h Pages: 1 -->
<svg width="541pt" height="247pt"
 viewBox="0.00 0.00 541.00 247.00" xmlns="http://www.w3.org/2000/svg" xmlns:xlink="http://www.w3.org/1999/xlink">
<g id="graph0" class="graph" transform="scale(1 1) rotate(0) translate(4 243)">
<title>model/ClosedLoopCoronaryBC.h</title>
<!-- Node1 -->
<g id="node1" class="node">
<title>Node1</title>
<g id="a_node1"><a xlink:title="model::ClosedLoopCoronaryBC source file">
<polygon fill="#999999" stroke="#666666" points="371.5,-239 214.5,-239 214.5,-220 371.5,-220 371.5,-239"/>
<text text-anchor="middle" x="293" y="-227" font-family="Helvetica,sans-Serif" font-size="10.00">model/ClosedLoopCoronaryBC.h</text>
</a>
</g>
</g>
<!-- Node2 -->
<g id="node2" class="node">
<title>Node2</title>
<g id="a_node2"><a xlink:href="_block_8h.html" target="_top" xlink:title="model::Block source file">
<polygon fill="white" stroke="#666666" points="264.5,-129 215.5,-129 215.5,-110 264.5,-110 264.5,-129"/>
<text text-anchor="middle" x="240" y="-117" font-family="Helvetica,sans-Serif" font-size="10.00">Block.h</text>
</a>
</g>
</g>
<!-- Node1&#45;&gt;Node2 -->
<g id="edge1" class="edge">
<title>Node1&#45;&gt;Node2</title>
<path fill="none" stroke="#63b8ff" d="M288.66,-219.66C280.12,-202.26 260.95,-163.19 249.38,-139.62"/>
<polygon fill="#63b8ff" stroke="#63b8ff" points="252.61,-138.25 245.06,-130.82 246.33,-141.34 252.61,-138.25"/>
</g>
<!-- Node9 -->
<g id="node9" class="node">
<title>Node9</title>
<g id="a_node9"><a xlink:href="_sparse_system_8h.html" target="_top" xlink:title="SparseSystem source file.">
<polygon fill="white" stroke="#666666" points="399,-74 311,-74 311,-55 399,-55 399,-74"/>
<text text-anchor="middle" x="355" y="-62" font-family="Helvetica,sans-Serif" font-size="10.00">SparseSystem.h</text>
</a>
</g>
</g>
<!-- Node1&#45;&gt;Node9 -->
<g id="edge19" class="edge">
<title>Node1&#45;&gt;Node9</title>
<path fill="none" stroke="#63b8ff" d="M295.26,-219.77C298.54,-207.43 304.99,-184.25 312,-165 322.34,-136.61 336.63,-104.68 345.84,-84.83"/>
<polygon fill="#63b8ff" stroke="#63b8ff" points="349.01,-86.32 350.09,-75.78 342.67,-83.35 349.01,-86.32"/>
</g>
<!-- Node14 -->
<g id="node14" class="node">
<title>Node14</title>
<g id="a_node14"><a xlink:href="_closed_loop_heart_pulmonary_8h.html" target="_top" xlink:title="model::ClosedLoopHeartPulmonary source file">
<polygon fill="white" stroke="#666666" points="467,-184 321,-184 321,-165 467,-165 467,-184"/>
<text text-anchor="middle" x="394" y="-172" font-family="Helvetica,sans-Serif" font-size="10.00">ClosedLoopHeartPulmonary.h</text>
</a>
</g>
</g>
<!-- Node1&#45;&gt;Node14 -->
<g id="edge15" class="edge">
<title>Node1&#45;&gt;Node14</title>
<path fill="none" stroke="#63b8ff" d="M310.13,-219.51C325.75,-211.31 349.08,-199.07 367.17,-189.58"/>
<polygon fill="#63b8ff" stroke="#63b8ff" points="368.55,-192.81 375.78,-185.06 365.3,-186.61 368.55,-192.81"/>
</g>
<!-- Node3 -->
<g id="node3" class="node">
<title>Node3</title>
<g id="a_node3"><a xlink:title=" ">
<polygon fill="#e0e0e0" stroke="#999999" points="207,-74 143,-74 143,-55 207,-55 207,-74"/>
<text text-anchor="middle" x="175" y="-62" font-family="Helvetica,sans-Serif" font-size="10.00">Eigen/Core</text>
</a>
</g>
</g>
<!-- Node2&#45;&gt;Node3 -->
<g id="edge2" class="edge">
<title>Node2&#45;&gt;Node3</title>
<path fill="none" stroke="#63b8ff" d="M228.97,-109.51C219.58,-101.85 205.85,-90.66 194.59,-81.47"/>
<polygon fill="#63b8ff" stroke="#63b8ff" points="197,-78.92 187.04,-75.31 192.57,-84.35 197,-78.92"/>
</g>
<!-- Node4 -->
<g id="node4" class="node">
<title>Node4</title>
<g id="a_node4"><a xlink:title=" ">
<polygon fill="#e0e0e0" stroke="#999999" points="254.5,-74 225.5,-74 225.5,-55 254.5,-55 254.5,-74"/>
<text text-anchor="middle" x="240" y="-62" font-family="Helvetica,sans-Serif" font-size="10.00">list</text>
</a>
</g>
</g>
<!-- Node2&#45;&gt;Node4 -->
<g id="edge3" class="edge">
<title>Node2&#45;&gt;Node4</title>
<path fill="none" stroke="#63b8ff" d="M240,-109.75C240,-103.27 240,-94.16 240,-85.9"/>
<polygon fill="#63b8ff" stroke="#63b8ff" points="243.5,-85.96 240,-75.96 236.5,-85.96 243.5,-85.96"/>
</g>
<!-- Node5 -->
<g id="node5" class="node">
<title>Node5</title>
<g id="a_node5"><a xlink:title=" ">
<polygon fill="#e0e0e0" stroke="#999999" points="181.5,-19 146.5,-19 146.5,0 181.5,0 181.5,-19"/>
<text text-anchor="middle" x="164" y="-7" font-family="Helvetica,sans-Serif" font-size="10.00">map</text>
</a>
</g>
</g>
<!-- Node2&#45;&gt;Node5 -->
<g id="edge4" class="edge">
<title>Node2&#45;&gt;Node5</title>
<path fill="none" stroke="#63b8ff" d="M247.91,-109.72C258.44,-96.92 274.46,-72.72 263,-55 254.89,-42.46 218.85,-28.38 192.59,-19.48"/>
<polygon fill="#63b8ff" stroke="#63b8ff" points="193.73,-16.17 183.14,-16.37 191.54,-22.82 193.73,-16.17"/>
</g>
<!-- Node6 -->
<g id="node6" class="node">
<title>Node6</title>
<g id="a_node6"><a xlink:title=" ">
<polygon fill="#e0e0e0" stroke="#999999" points="44,-19 0,-19 0,0 44,0 44,-19"/>
<text text-anchor="middle" x="22" y="-7" font-family="Helvetica,sans-Serif" font-size="10.00">vector</text>
</a>
</g>
</g>
<!-- Node2&#45;&gt;Node6 -->
<g id="edge5" class="edge">
<title>Node2&#45;&gt;Node6</title>
<path fill="none" stroke="#63b8ff" d="M215.34,-116.28C167.18,-111.44 63.13,-98.38 38,-74 26.51,-62.85 22.82,-44.74 21.82,-30.71"/>
<polygon fill="#63b8ff" stroke="#63b8ff" points="25.32,-30.7 21.56,-20.8 18.33,-30.89 25.32,-30.7"/>
</g>
<!-- Node7 -->
<g id="node7" class="node">
<title>Node7</title>
<g id="a_node7"><a xlink:href="_d_o_f_handler_8h.html" target="_top" xlink:title="model::DOFHandler source file">
<polygon fill="white" stroke="#666666" points="125,-74 47,-74 47,-55 125,-55 125,-74"/>
<text text-anchor="middle" x="86" y="-62" font-family="Helvetica,sans-Serif" font-size="10.00">DOFHandler.h</text>
</a>
</g>
</g>
<!-- Node2&#45;&gt;Node7 -->
<g id="edge6" class="edge">
<title>Node2&#45;&gt;Node7</title>
<path fill="none" stroke="#63b8ff" d="M215.26,-109.98C190.26,-101.38 151.36,-87.99 122.76,-78.15"/>
<polygon fill="#63b8ff" stroke="#63b8ff" points="123.99,-74.87 113.4,-74.93 121.72,-81.49 123.99,-74.87"/>
</g>
<!-- Node2&#45;&gt;Node9 -->
<g id="edge10" class="edge">
<title>Node2&#45;&gt;Node9</title>
<path fill="none" stroke="#63b8ff" d="M259.51,-109.51C277.63,-101.16 304.85,-88.61 325.6,-79.05"/>
<polygon fill="#63b8ff" stroke="#63b8ff" points="326.79,-82.36 334.41,-74.99 323.86,-76 326.79,-82.36"/>
</g>
<!-- Node7&#45;&gt;Node5 -->
<g id="edge7" class="edge">
<title>Node7&#45;&gt;Node5</title>
<path fill="none" stroke="#63b8ff" d="M99.23,-54.51C110.84,-46.62 127.97,-34.98 141.7,-25.65"/>
<polygon fill="#63b8ff" stroke="#63b8ff" points="143.41,-28.72 149.71,-20.21 139.47,-22.93 143.41,-28.72"/>
</g>
<!-- Node7&#45;&gt;Node6 -->
<g id="edge9" class="edge">
<title>Node7&#45;&gt;Node6</title>
<path fill="none" stroke="#63b8ff" d="M75.14,-54.51C65.89,-46.85 52.38,-35.66 41.29,-26.47"/>
<polygon fill="#63b8ff" stroke="#63b8ff" points="43.8,-24.01 33.86,-20.32 39.33,-29.4 43.8,-24.01"/>
</g>
<!-- Node8 -->
<g id="node8" class="node">
<title>Node8</title>
<g id="a_node8"><a xlink:title=" ">
<polygon fill="#e0e0e0" stroke="#999999" points="106.5,-19 65.5,-19 65.5,0 106.5,0 106.5,-19"/>
<text text-anchor="middle" x="86" y="-7" font-family="Helvetica,sans-Serif" font-size="10.00">string</text>
</a>
</g>
</g>
<!-- Node7&#45;&gt;Node8 -->
<g id="edge8" class="edge">
<title>Node7&#45;&gt;Node8</title>
<path fill="none" stroke="#63b8ff" d="M86,-54.75C86,-48.27 86,-39.16 86,-30.9"/>
<polygon fill="#63b8ff" stroke="#63b8ff" points="89.5,-30.96 86,-20.96 82.5,-30.96 89.5,-30.96"/>
</g>
<!-- Node10 -->
<g id="node10" class="node">
<title>Node10</title>
<g id="a_node10"><a xlink:title=" ">
<polygon fill="#e0e0e0" stroke="#999999" points="533,-19 459,-19 459,0 533,0 533,-19"/>
<text text-anchor="middle" x="496" y="-7" font-family="Helvetica,sans-Serif" font-size="10.00">Eigen/Sparse</text>
</a>
</g>
</g>
<!-- Node9&#45;&gt;Node10 -->
<g id="edge11" class="edge">
<title>Node9&#45;&gt;Node10</title>
<path fill="none" stroke="#63b8ff" d="M378.92,-54.51C401.64,-45.97 436.05,-33.03 461.69,-23.4"/>
<polygon fill="#63b8ff" stroke="#63b8ff" points="462.89,-26.69 471.02,-19.89 460.43,-20.13 462.89,-26.69"/>
</g>
<!-- Node11 -->
<g id="node11" class="node">
<title>Node11</title>
<g id="a_node11"><a xlink:title=" ">
<polygon fill="#e0e0e0" stroke="#999999" points="299,-19 211,-19 211,0 299,0 299,-19"/>
<text text-anchor="middle" x="255" y="-7" font-family="Helvetica,sans-Serif" font-size="10.00">Eigen/SparseLU</text>
</a>
</g>
</g>
<!-- Node9&#45;&gt;Node11 -->
<g id="edge12" class="edge">
<title>Node9&#45;&gt;Node11</title>
<path fill="none" stroke="#63b8ff" d="M338.04,-54.51C322.64,-46.35 299.69,-34.19 281.81,-24.71"/>
<polygon fill="#63b8ff" stroke="#63b8ff" points="283.53,-21.66 273.05,-20.07 280.25,-27.84 283.53,-21.66"/>
</g>
<!-- Node12 -->
<g id="node12" class="node">
<title>Node12</title>
<g id="a_node12"><a xlink:title=" ">
<polygon fill="#e0e0e0" stroke="#999999" points="371,-19 317,-19 317,0 371,0 371,-19"/>
<text text-anchor="middle" x="344" y="-7" font-family="Helvetica,sans-Serif" font-size="10.00">iostream</text>
</a>
</g>
</g>
<!-- Node9&#45;&gt;Node12 -->
<g id="edge13" class="edge">
<title>Node9&#45;&gt;Node12</title>
<path fill="none" stroke="#63b8ff" d="M353.18,-54.75C351.82,-48.19 349.9,-38.95 348.17,-30.6"/>
<polygon fill="#63b8ff" stroke="#63b8ff" points="351.62,-30 346.16,-20.92 344.77,-31.43 351.62,-30"/>
</g>
<!-- Node13 -->
<g id="node13" class="node">
<title>Node13</title>
<g id="a_node13"><a xlink:title=" ">
<polygon fill="#e0e0e0" stroke="#999999" points="440.5,-19 389.5,-19 389.5,0 440.5,0 440.5,-19"/>
<text text-anchor="middle" x="415" y="-7" font-family="Helvetica,sans-Serif" font-size="10.00">memory</text>
</a>
</g>
</g>
<!-- Node9&#45;&gt;Node13 -->
<g id="edge14" class="edge">
<title>Node9&#45;&gt;Node13</title>
<path fill="none" stroke="#63b8ff" d="M365.18,-54.51C373.76,-46.93 386.27,-35.88 396.6,-26.75"/>
<polygon fill="#63b8ff" stroke="#63b8ff" points="398.66,-29.6 403.84,-20.36 394.03,-24.36 398.66,-29.6"/>
</g>
<!-- Node14&#45;&gt;Node2 -->
<g id="edge16" class="edge">
<title>Node14&#45;&gt;Node2</title>
<path fill="none" stroke="#63b8ff" d="M367.88,-164.51C342.5,-155.77 303.77,-142.45 275.59,-132.75"/>
<polygon fill="#63b8ff" stroke="#63b8ff" points="277,-129.53 266.41,-129.59 274.72,-136.15 277,-129.53"/>
</g>
<!-- Node14&#45;&gt;Node9 -->
<g id="edge17" class="edge">
<title>Node14&#45;&gt;Node9</title>
<path fill="none" stroke="#63b8ff" d="M389.67,-164.78C385.36,-155.91 378.73,-141.7 374,-129 368.64,-114.6 363.7,-97.95 360.2,-85.32"/>
<polygon fill="#63b8ff" stroke="#63b8ff" points="363.6,-84.46 357.62,-75.71 356.84,-86.27 363.6,-84.46"/>
</g>
<!-- Node15 -->
<g id="node15" class="node">
<title>Node15</title>
<g id="a_node15"><a xlink:title=" ">
<polygon fill="#e0e0e0" stroke="#999999" points="429,-129 383,-129 383,-110 429,-110 429,-129"/>
<text text-anchor="middle" x="406" y="-117" font-family="Helvetica,sans-Serif" font-size="10.00">math.h</text>
</a>
</g>
</g>
<!-- Node14&#45;&gt;Node15 -->
<g id="edge18" class="edge">
<title>Node14&#45;&gt;Node15</title>
<path fill="none" stroke="#63b8ff" d="M395.98,-164.75C397.47,-158.19 399.56,-148.95 401.45,-140.6"/>
<polygon fill="#63b8ff" stroke="#63b8ff" points="404.85,-141.44 403.64,-130.92 398.02,-139.9 404.85,-141.44"/>
</g>
</g>
</svg>
