<?xml version="1.0" encoding="UTF-8" standalone="no"?>
<!DOCTYPE svg PUBLIC "-//W3C//DTD SVG 1.1//EN"
 "http://www.w3.org/Graphics/SVG/1.1/DTD/svg11.dtd">
<!-- Generated by graphviz version 9.0.0 (20230911.1827)
 -->
<!-- Title: model/ClosedLoopCoronaryLeftBC.h Pages: 1 -->
<svg width="574pt" height="315pt"
 viewBox="0.00 0.00 574.38 314.75" xmlns="http://www.w3.org/2000/svg" xmlns:xlink="http://www.w3.org/1999/xlink">
<g id="graph0" class="graph" transform="scale(1 1) rotate(0) translate(4 310.75)">
<title>model/ClosedLoopCoronaryLeftBC.h</title>
<!-- Node1 -->
<g id="Node000001" class="node">
<title>Node1</title>
<g id="a_Node000001"><a xlink:title="Left side of ClosedLoopCoronaryBC.">
<polygon fill="#999999" stroke="#666666" points="400.12,-306.75 264.88,-306.75 264.88,-276.25 400.12,-276.25 400.12,-306.75"/>
<text text-anchor="start" x="272.88" y="-293.25" font-family="Helvetica,sans-Serif" font-size="10.00">model/ClosedLoopCoronary</text>
<text text-anchor="middle" x="332.5" y="-282" font-family="Helvetica,sans-Serif" font-size="10.00">LeftBC.h</text>
</a>
</g>
</g>
<!-- Node2 -->
<g id="Node000002" class="node">
<title>Node2</title>
<g id="a_Node000002"><a xlink:href="_closed_loop_coronary_b_c_8h.html" target="_top" xlink:title="model::ClosedLoopCoronaryBC source file">
<polygon fill="white" stroke="#666666" points="396,-240.25 269,-240.25 269,-221 396,-221 396,-240.25"/>
<text text-anchor="middle" x="332.5" y="-226.75" font-family="Helvetica,sans-Serif" font-size="10.00">ClosedLoopCoronaryBC.h</text>
</a>
</g>
</g>
<!-- Node1&#45;&gt;Node2 -->
<g id="edge1_Node000001_Node000002" class="edge">
<title>Node1&#45;&gt;Node2</title>
<g id="a_edge1_Node000001_Node000002"><a xlink:title=" ">
<path fill="none" stroke="#63b8ff" d="M332.5,-275.95C332.5,-268.71 332.5,-259.84 332.5,-251.94"/>
<polygon fill="#63b8ff" stroke="#63b8ff" points="336,-252.21 332.5,-242.21 329,-252.21 336,-252.21"/>
</a>
</g>
</g>
<!-- Node3 -->
<g id="Node000003" class="node">
<title>Node3</title>
<g id="a_Node000003"><a xlink:href="_block_8h.html" target="_top" xlink:title="model::Block source file">
<polygon fill="white" stroke="#666666" points="304.62,-129.75 256.38,-129.75 256.38,-110.5 304.62,-110.5 304.62,-129.75"/>
<text text-anchor="middle" x="280.5" y="-116.25" font-family="Helvetica,sans-Serif" font-size="10.00">Block.h</text>
</a>
</g>
</g>
<!-- Node2&#45;&gt;Node3 -->
<g id="edge2_Node000002_Node000003" class="edge">
<title>Node2&#45;&gt;Node3</title>
<g id="a_edge2_Node000002_Node000003"><a xlink:title=" ">
<path fill="none" stroke="#63b8ff" d="M328.24,-220.75C319.86,-203.26 301.06,-164.02 289.71,-140.34"/>
<polygon fill="#63b8ff" stroke="#63b8ff" points="292.95,-139 285.47,-131.49 286.63,-142.02 292.95,-139"/>
</a>
</g>
</g>
<!-- Node11 -->
<g id="Node000011" class="node">
<title>Node11</title>
<g id="a_Node000011"><a xlink:href="_sparse_system_8h.html" target="_top" xlink:title="SparseSystem source file.">
<polygon fill="white" stroke="#666666" points="458.12,-74.5 370.88,-74.5 370.88,-55.25 458.12,-55.25 458.12,-74.5"/>
<text text-anchor="middle" x="414.5" y="-61" font-family="Helvetica,sans-Serif" font-size="10.00">SparseSystem.h</text>
</a>
</g>
</g>
<!-- Node2&#45;&gt;Node11 -->
<g id="edge22_Node000002_Node000011" class="edge">
<title>Node2&#45;&gt;Node11</title>
<g id="a_edge22_Node000002_Node000011"><a xlink:title=" ">
<path fill="none" stroke="#63b8ff" d="M334.35,-220.67C337.13,-208.06 342.99,-184.5 351.5,-165.75 365.29,-135.37 387.01,-103.25 401,-83.88"/>
<polygon fill="#63b8ff" stroke="#63b8ff" points="403.71,-86.11 406.81,-75.98 398.07,-81.96 403.71,-86.11"/>
</a>
</g>
</g>
<!-- Node16 -->
<g id="Node000016" class="node">
<title>Node16</title>
<g id="a_Node000016"><a xlink:href="_closed_loop_heart_pulmonary_8h.html" target="_top" xlink:title="model::ClosedLoopHeartPulmonary source file">
<polygon fill="white" stroke="#666666" points="506,-185 361,-185 361,-165.75 506,-165.75 506,-185"/>
<text text-anchor="middle" x="433.5" y="-171.5" font-family="Helvetica,sans-Serif" font-size="10.00">ClosedLoopHeartPulmonary.h</text>
</a>
</g>
</g>
<!-- Node2&#45;&gt;Node16 -->
<g id="edge18_Node000002_Node000016" class="edge">
<title>Node2&#45;&gt;Node16</title>
<g id="a_edge18_Node000002_Node000016"><a xlink:title=" ">
<path fill="none" stroke="#63b8ff" d="M349.63,-220.59C365.16,-212.41 388.3,-200.21 406.34,-190.69"/>
<polygon fill="#63b8ff" stroke="#63b8ff" points="407.73,-193.92 414.94,-186.16 404.47,-187.73 407.73,-193.92"/>
</a>
</g>
</g>
<!-- Node4 -->
<g id="Node000004" class="node">
<title>Node4</title>
<g id="a_Node000004"><a xlink:title=" ">
<polygon fill="#e0e0e0" stroke="#999999" points="268.12,-74.5 204.88,-74.5 204.88,-55.25 268.12,-55.25 268.12,-74.5"/>
<text text-anchor="middle" x="236.5" y="-61" font-family="Helvetica,sans-Serif" font-size="10.00">Eigen/Core</text>
</a>
</g>
</g>
<!-- Node3&#45;&gt;Node4 -->
<g id="edge3_Node000003_Node000004" class="edge">
<title>Node3&#45;&gt;Node4</title>
<g id="a_edge3_Node000003_Node000004"><a xlink:title=" ">
<path fill="none" stroke="#63b8ff" d="M273.23,-110.33C267.22,-103.05 258.49,-92.48 251.04,-83.48"/>
<polygon fill="#63b8ff" stroke="#63b8ff" points="253.96,-81.51 244.89,-76.03 248.56,-85.96 253.96,-81.51"/>
</a>
</g>
</g>
<!-- Node5 -->
<g id="Node000005" class="node">
<title>Node5</title>
<g id="a_Node000005"><a xlink:title=" ">
<polygon fill="#e0e0e0" stroke="#999999" points="314.9,-74.5 286.1,-74.5 286.1,-55.25 314.9,-55.25 314.9,-74.5"/>
<text text-anchor="middle" x="300.5" y="-61" font-family="Helvetica,sans-Serif" font-size="10.00">list</text>
</a>
</g>
</g>
<!-- Node3&#45;&gt;Node5 -->
<g id="edge4_Node000003_Node000005" class="edge">
<title>Node3&#45;&gt;Node5</title>
<g id="a_edge4_Node000003_Node000005"><a xlink:title=" ">
<path fill="none" stroke="#63b8ff" d="M283.8,-110.33C286.33,-103.59 289.93,-94.02 293.13,-85.49"/>
<polygon fill="#63b8ff" stroke="#63b8ff" points="296.35,-86.87 296.59,-76.28 289.8,-84.41 296.35,-86.87"/>
</a>
</g>
</g>
<!-- Node6 -->
<g id="Node000006" class="node">
<title>Node6</title>
<g id="a_Node000006"><a xlink:title=" ">
<polygon fill="#e0e0e0" stroke="#999999" points="179.88,-19.25 145.12,-19.25 145.12,0 179.88,0 179.88,-19.25"/>
<text text-anchor="middle" x="162.5" y="-5.75" font-family="Helvetica,sans-Serif" font-size="10.00">map</text>
</a>
</g>
</g>
<!-- Node3&#45;&gt;Node6 -->
<g id="edge5_Node000003_Node000006" class="edge">
<title>Node3&#45;&gt;Node6</title>
<g id="a_edge5_Node000003_Node000006"><a xlink:title=" ">
<path fill="none" stroke="#63b8ff" d="M294.35,-110.01C311.78,-97.41 337.82,-74.08 323.5,-55.25 307.6,-34.34 233.61,-20.68 191.68,-14.48"/>
<polygon fill="#63b8ff" stroke="#63b8ff" points="192.18,-11.01 181.79,-13.07 191.2,-17.95 192.18,-11.01"/>
</a>
</g>
</g>
<!-- Node7 -->
<g id="Node000007" class="node">
<title>Node7</title>
<g id="a_Node000007"><a xlink:title=" ">
<polygon fill="#e0e0e0" stroke="#999999" points="43,-19.25 0,-19.25 0,0 43,0 43,-19.25"/>
<text text-anchor="middle" x="21.5" y="-5.75" font-family="Helvetica,sans-Serif" font-size="10.00">vector</text>
</a>
</g>
</g>
<!-- Node3&#45;&gt;Node7 -->
<g id="edge6_Node000003_Node000007" class="edge">
<title>Node3&#45;&gt;Node7</title>
<g id="a_edge6_Node000003_Node000007"><a xlink:title=" ">
<path fill="none" stroke="#63b8ff" d="M256.2,-118.89C196.37,-117.73 44.55,-111.17 13.5,-74.5 3.23,-62.37 6.84,-44.01 12.07,-30.08"/>
<polygon fill="#63b8ff" stroke="#63b8ff" points="15.22,-31.62 15.98,-21.05 8.8,-28.84 15.22,-31.62"/>
</a>
</g>
</g>
<!-- Node8 -->
<g id="Node000008" class="node">
<title>Node8</title>
<g id="a_Node000008"><a xlink:href="_block_type_8h_source.html" target="_top" xlink:title=" ">
<polygon fill="white" stroke="#666666" points="92.12,-74.5 22.88,-74.5 22.88,-55.25 92.12,-55.25 92.12,-74.5"/>
<text text-anchor="middle" x="57.5" y="-61" font-family="Helvetica,sans-Serif" font-size="10.00">BlockType.h</text>
</a>
</g>
</g>
<!-- Node3&#45;&gt;Node8 -->
<g id="edge7_Node000003_Node000008" class="edge">
<title>Node3&#45;&gt;Node8</title>
<g id="a_edge7_Node000003_Node000008"><a xlink:title=" ">
<path fill="none" stroke="#63b8ff" d="M256.21,-113.32C219.61,-104.58 149.66,-87.88 103.29,-76.81"/>
<polygon fill="#63b8ff" stroke="#63b8ff" points="104.35,-73.46 93.81,-74.54 102.72,-80.27 104.35,-73.46"/>
</a>
</g>
</g>
<!-- Node10 -->
<g id="Node000010" class="node">
<title>Node10</title>
<g id="a_Node000010"><a xlink:href="_d_o_f_handler_8h.html" target="_top" xlink:title="model::DOFHandler source file">
<polygon fill="white" stroke="#666666" points="187.25,-74.5 109.75,-74.5 109.75,-55.25 187.25,-55.25 187.25,-74.5"/>
<text text-anchor="middle" x="148.5" y="-61" font-family="Helvetica,sans-Serif" font-size="10.00">DOFHandler.h</text>
</a>
</g>
</g>
<!-- Node3&#45;&gt;Node10 -->
<g id="edge9_Node000003_Node000010" class="edge">
<title>Node3&#45;&gt;Node10</title>
<g id="a_edge9_Node000003_Node000010"><a xlink:title=" ">
<path fill="none" stroke="#63b8ff" d="M258.11,-110.09C237.06,-101.6 205.3,-88.79 181.38,-79.14"/>
<polygon fill="#63b8ff" stroke="#63b8ff" points="182.99,-76.01 172.41,-75.52 180.37,-82.51 182.99,-76.01"/>
</a>
</g>
</g>
<!-- Node3&#45;&gt;Node11 -->
<g id="edge13_Node000003_Node000011" class="edge">
<title>Node3&#45;&gt;Node11</title>
<g id="a_edge13_Node000003_Node000011"><a xlink:title=" ">
<path fill="none" stroke="#63b8ff" d="M303.23,-110.09C324.6,-101.6 356.84,-88.79 381.13,-79.14"/>
<polygon fill="#63b8ff" stroke="#63b8ff" points="382.25,-82.46 390.25,-75.51 379.66,-75.95 382.25,-82.46"/>
</a>
</g>
</g>
<!-- Node9 -->
<g id="Node000009" class="node">
<title>Node9</title>
<g id="a_Node000009"><a xlink:title=" ">
<polygon fill="#e0e0e0" stroke="#999999" points="102.5,-19.25 62.5,-19.25 62.5,0 102.5,0 102.5,-19.25"/>
<text text-anchor="middle" x="82.5" y="-5.75" font-family="Helvetica,sans-Serif" font-size="10.00">string</text>
</a>
</g>
</g>
<!-- Node8&#45;&gt;Node9 -->
<g id="edge8_Node000008_Node000009" class="edge">
<title>Node8&#45;&gt;Node9</title>
<g id="a_edge8_Node000008_Node000009"><a xlink:title=" ">
<path fill="none" stroke="#63b8ff" d="M61.63,-55.08C64.83,-48.26 69.39,-38.56 73.43,-29.95"/>
<polygon fill="#63b8ff" stroke="#63b8ff" points="76.56,-31.52 77.64,-20.98 70.22,-28.54 76.56,-31.52"/>
</a>
</g>
</g>
<!-- Node10&#45;&gt;Node6 -->
<g id="edge10_Node000010_Node000006" class="edge">
<title>Node10&#45;&gt;Node6</title>
<g id="a_edge10_Node000010_Node000006"><a xlink:title=" ">
<path fill="none" stroke="#63b8ff" d="M150.81,-55.08C152.56,-48.42 155.04,-38.99 157.27,-30.53"/>
<polygon fill="#63b8ff" stroke="#63b8ff" points="160.6,-31.63 159.75,-21.07 153.83,-29.85 160.6,-31.63"/>
</a>
</g>
</g>
<!-- Node10&#45;&gt;Node7 -->
<g id="edge12_Node000010_Node000007" class="edge">
<title>Node10&#45;&gt;Node7</title>
<g id="a_edge12_Node000010_Node000007"><a xlink:title=" ">
<path fill="none" stroke="#63b8ff" d="M126.96,-54.84C106.89,-46.43 76.7,-33.77 53.75,-24.15"/>
<polygon fill="#63b8ff" stroke="#63b8ff" points="55.12,-20.93 44.55,-20.29 52.41,-27.38 55.12,-20.93"/>
</a>
</g>
</g>
<!-- Node10&#45;&gt;Node9 -->
<g id="edge11_Node000010_Node000009" class="edge">
<title>Node10&#45;&gt;Node9</title>
<g id="a_edge11_Node000010_Node000009"><a xlink:title=" ">
<path fill="none" stroke="#63b8ff" d="M137.3,-54.84C127.76,-47.15 113.83,-35.9 102.39,-26.68"/>
<polygon fill="#63b8ff" stroke="#63b8ff" points="104.69,-24.03 94.71,-20.48 100.29,-29.48 104.69,-24.03"/>
</a>
</g>
</g>
<!-- Node12 -->
<g id="Node000012" class="node">
<title>Node12</title>
<g id="a_Node000012"><a xlink:title=" ">
<polygon fill="#e0e0e0" stroke="#999999" points="566.38,-19.25 492.62,-19.25 492.62,0 566.38,0 566.38,-19.25"/>
<text text-anchor="middle" x="529.5" y="-5.75" font-family="Helvetica,sans-Serif" font-size="10.00">Eigen/Sparse</text>
</a>
</g>
</g>
<!-- Node11&#45;&gt;Node12 -->
<g id="edge14_Node000011_Node000012" class="edge">
<title>Node11&#45;&gt;Node12</title>
<g id="a_edge14_Node000011_Node000012"><a xlink:title=" ">
<path fill="none" stroke="#63b8ff" d="M434.01,-54.84C452.02,-46.5 479.02,-34 499.73,-24.41"/>
<polygon fill="#63b8ff" stroke="#63b8ff" points="500.92,-27.72 508.52,-20.34 497.98,-21.36 500.92,-27.72"/>
</a>
</g>
</g>
<!-- Node13 -->
<g id="Node000013" class="node">
<title>Node13</title>
<g id="a_Node000013"><a xlink:title=" ">
<polygon fill="#e0e0e0" stroke="#999999" points="335.12,-19.25 247.88,-19.25 247.88,0 335.12,0 335.12,-19.25"/>
<text text-anchor="middle" x="291.5" y="-5.75" font-family="Helvetica,sans-Serif" font-size="10.00">Eigen/SparseLU</text>
</a>
</g>
</g>
<!-- Node11&#45;&gt;Node13 -->
<g id="edge15_Node000011_Node000013" class="edge">
<title>Node11&#45;&gt;Node13</title>
<g id="a_edge15_Node000011_Node000013"><a xlink:title=" ">
<path fill="none" stroke="#63b8ff" d="M393.63,-54.84C374.2,-46.43 344.96,-33.77 322.74,-24.15"/>
<polygon fill="#63b8ff" stroke="#63b8ff" points="324.42,-21.06 313.86,-20.3 321.64,-27.49 324.42,-21.06"/>
</a>
</g>
</g>
<!-- Node14 -->
<g id="Node000014" class="node">
<title>Node14</title>
<g id="a_Node000014"><a xlink:title=" ">
<polygon fill="#e0e0e0" stroke="#999999" points="406.25,-19.25 352.75,-19.25 352.75,0 406.25,0 406.25,-19.25"/>
<text text-anchor="middle" x="379.5" y="-5.75" font-family="Helvetica,sans-Serif" font-size="10.00">iostream</text>
</a>
</g>
</g>
<!-- Node11&#45;&gt;Node14 -->
<g id="edge16_Node000011_Node000014" class="edge">
<title>Node11&#45;&gt;Node14</title>
<g id="a_edge16_Node000011_Node000014"><a xlink:title=" ">
<path fill="none" stroke="#63b8ff" d="M408.72,-55.08C404.09,-48.03 397.43,-37.9 391.63,-29.08"/>
<polygon fill="#63b8ff" stroke="#63b8ff" points="394.65,-27.31 386.24,-20.87 388.8,-31.15 394.65,-27.31"/>
</a>
</g>
</g>
<!-- Node15 -->
<g id="Node000015" class="node">
<title>Node15</title>
<g id="a_Node000015"><a xlink:title=" ">
<polygon fill="#e0e0e0" stroke="#999999" points="474.75,-19.25 424.25,-19.25 424.25,0 474.75,0 474.75,-19.25"/>
<text text-anchor="middle" x="449.5" y="-5.75" font-family="Helvetica,sans-Serif" font-size="10.00">memory</text>
</a>
</g>
</g>
<!-- Node11&#45;&gt;Node15 -->
<g id="edge17_Node000011_Node000015" class="edge">
<title>Node11&#45;&gt;Node15</title>
<g id="a_edge17_Node000011_Node000015"><a xlink:title=" ">
<path fill="none" stroke="#63b8ff" d="M420.28,-55.08C424.91,-48.03 431.57,-37.9 437.37,-29.08"/>
<polygon fill="#63b8ff" stroke="#63b8ff" points="440.2,-31.15 442.76,-20.87 434.35,-27.31 440.2,-31.15"/>
</a>
</g>
</g>
<!-- Node16&#45;&gt;Node3 -->
<g id="edge19_Node000016_Node000003" class="edge">
<title>Node16&#45;&gt;Node3</title>
<g id="a_edge19_Node000016_Node000003"><a xlink:title=" ">
<path fill="none" stroke="#63b8ff" d="M407.55,-165.34C382.26,-156.54 343.63,-143.1 315.6,-133.34"/>
<polygon fill="#63b8ff" stroke="#63b8ff" points="317.09,-130.15 306.49,-130.17 314.78,-136.76 317.09,-130.15"/>
</a>
</g>
</g>
<!-- Node16&#45;&gt;Node11 -->
<g id="edge20_Node000016_Node000011" class="edge">
<title>Node16&#45;&gt;Node11</title>
<g id="a_edge20_Node000016_Node000011"><a xlink:title=" ">
<path fill="none" stroke="#63b8ff" d="M431.95,-165.5C428.93,-148.25 422.2,-109.83 418.04,-86.06"/>
<polygon fill="#63b8ff" stroke="#63b8ff" points="421.51,-85.61 416.34,-76.37 414.61,-86.82 421.51,-85.61"/>
</a>
</g>
</g>
<!-- Node17 -->
<g id="Node000017" class="node">
<title>Node17</title>
<g id="a_Node000017"><a xlink:title=" ">
<polygon fill="#e0e0e0" stroke="#999999" points="486,-129.75 443,-129.75 443,-110.5 486,-110.5 486,-129.75"/>
<text text-anchor="middle" x="464.5" y="-116.25" font-family="Helvetica,sans-Serif" font-size="10.00">cmath</text>
</a>
</g>
</g>
<!-- Node16&#45;&gt;Node17 -->
<g id="edge21_Node000016_Node000017" class="edge">
<title>Node16&#45;&gt;Node17</title>
<g id="a_edge21_Node000016_Node000017"><a xlink:title=" ">
<path fill="none" stroke="#63b8ff" d="M438.62,-165.58C442.68,-158.61 448.49,-148.62 453.59,-139.87"/>
<polygon fill="#63b8ff" stroke="#63b8ff" points="456.5,-141.82 458.51,-131.42 450.45,-138.3 456.5,-141.82"/>
</a>
</g>
</g>
</g>
</svg>
