<?xml version="1.0" encoding="UTF-8" standalone="no"?>
<!DOCTYPE svg PUBLIC "-//W3C//DTD SVG 1.1//EN"
 "http://www.w3.org/Graphics/SVG/1.1/DTD/svg11.dtd">
<!-- Generated by graphviz version 12.2.1 (20241206.2353)
 -->
<!-- Title: model/ClosedLoopCoronaryRightBC.h Pages: 1 -->
<svg width="842pt" height="370pt"
 viewBox="0.00 0.00 842.03 370.00" xmlns="http://www.w3.org/2000/svg" xmlns:xlink="http://www.w3.org/1999/xlink">
<g id="graph0" class="graph" transform="scale(1 1) rotate(0) translate(4 366)">
<title>model/ClosedLoopCoronaryRightBC.h</title>
<!-- Node1 -->
<g id="Node000001" class="node">
<title>Node1</title>
<g id="a_Node000001"><a xlink:title="Right side of ClosedLoopCoronaryBC.">
<polygon fill="#999999" stroke="#666666" points="504.78,-362 369.53,-362 369.53,-331.5 504.78,-331.5 504.78,-362"/>
<text text-anchor="start" x="377.53" y="-348.5" font-family="Helvetica,sans-Serif" font-size="10.00">model/ClosedLoopCoronary</text>
<text text-anchor="middle" x="437.15" y="-337.25" font-family="Helvetica,sans-Serif" font-size="10.00">RightBC.h</text>
</a>
</g>
</g>
<!-- Node2 -->
<g id="Node000002" class="node">
<title>Node2</title>
<g id="a_Node000002"><a xlink:href="_closed_loop_coronary_b_c_8h.html" target="_top" xlink:title="model::ClosedLoopCoronaryBC source file">
<polygon fill="white" stroke="#666666" points="500.65,-295.5 373.65,-295.5 373.65,-276.25 500.65,-276.25 500.65,-295.5"/>
<text text-anchor="middle" x="437.15" y="-282" font-family="Helvetica,sans-Serif" font-size="10.00">ClosedLoopCoronaryBC.h</text>
</a>
</g>
</g>
<!-- Node1&#45;&gt;Node2 -->
<g id="edge1_Node000001_Node000002" class="edge">
<title>Node1&#45;&gt;Node2</title>
<g id="a_edge1_Node000001_Node000002"><a xlink:title=" ">
<path fill="none" stroke="#63b8ff" d="M437.15,-331.2C437.15,-323.96 437.15,-315.09 437.15,-307.19"/>
<polygon fill="#63b8ff" stroke="#63b8ff" points="440.65,-307.46 437.15,-297.46 433.65,-307.46 440.65,-307.46"/>
</a>
</g>
</g>
<!-- Node3 -->
<g id="Node000003" class="node">
<title>Node3</title>
<g id="a_Node000003"><a xlink:href="_block_8h.html" target="_top" xlink:title="model::Block source file">
<polygon fill="white" stroke="#666666" points="325.28,-185 277.03,-185 277.03,-165.75 325.28,-165.75 325.28,-185"/>
<text text-anchor="middle" x="301.15" y="-171.5" font-family="Helvetica,sans-Serif" font-size="10.00">Block.h</text>
</a>
</g>
</g>
<!-- Node2&#45;&gt;Node3 -->
<g id="edge2_Node000002_Node000003" class="edge">
<title>Node2&#45;&gt;Node3</title>
<g id="a_edge2_Node000002_Node000003"><a xlink:title=" ">
<path fill="none" stroke="#63b8ff" d="M416.26,-275.9C399.12,-267.97 374.73,-255.32 356.15,-240.25 339.51,-226.74 323.91,-207.79 313.6,-194.04"/>
<polygon fill="#63b8ff" stroke="#63b8ff" points="316.7,-192.34 307.99,-186.32 311.04,-196.46 316.7,-192.34"/>
</a>
</g>
</g>
<!-- Node16 -->
<g id="Node000016" class="node">
<title>Node16</title>
<g id="a_Node000016"><a xlink:href="_sparse_system_8h.html" target="_top" xlink:title="SparseSystem source file.">
<polygon fill="white" stroke="#666666" points="673.78,-129.75 586.53,-129.75 586.53,-110.5 673.78,-110.5 673.78,-129.75"/>
<text text-anchor="middle" x="630.15" y="-116.25" font-family="Helvetica,sans-Serif" font-size="10.00">SparseSystem.h</text>
</a>
</g>
</g>
<!-- Node2&#45;&gt;Node16 -->
<g id="edge31_Node000002_Node000016" class="edge">
<title>Node2&#45;&gt;Node16</title>
<g id="a_edge31_Node000002_Node000016"><a xlink:title=" ">
<path fill="none" stroke="#63b8ff" d="M458.15,-275.76C475.42,-267.74 500.07,-255.05 519.15,-240.25 558.81,-209.5 596.85,-164.11 616.44,-139.17"/>
<polygon fill="#63b8ff" stroke="#63b8ff" points="619.16,-141.37 622.52,-131.32 613.63,-137.08 619.16,-141.37"/>
</a>
</g>
</g>
<!-- Node21 -->
<g id="Node000021" class="node">
<title>Node21</title>
<g id="a_Node000021"><a xlink:href="_closed_loop_heart_pulmonary_8h.html" target="_top" xlink:title="model::ClosedLoopHeartPulmonary source file">
<polygon fill="white" stroke="#666666" points="509.65,-240.25 364.65,-240.25 364.65,-221 509.65,-221 509.65,-240.25"/>
<text text-anchor="middle" x="437.15" y="-226.75" font-family="Helvetica,sans-Serif" font-size="10.00">ClosedLoopHeartPulmonary.h</text>
</a>
</g>
</g>
<!-- Node2&#45;&gt;Node21 -->
<g id="edge27_Node000002_Node000021" class="edge">
<title>Node2&#45;&gt;Node21</title>
<g id="a_edge27_Node000002_Node000021"><a xlink:title=" ">
<path fill="none" stroke="#63b8ff" d="M437.15,-276.08C437.15,-269.57 437.15,-260.42 437.15,-252.12"/>
<polygon fill="#63b8ff" stroke="#63b8ff" points="440.65,-252.12 437.15,-242.12 433.65,-252.12 440.65,-252.12"/>
</a>
</g>
</g>
<!-- Node4 -->
<g id="Node000004" class="node">
<title>Node4</title>
<g id="a_Node000004"><a xlink:title=" ">
<polygon fill="#e0e0e0" stroke="#999999" points="121.78,-74.5 58.53,-74.5 58.53,-55.25 121.78,-55.25 121.78,-74.5"/>
<text text-anchor="middle" x="90.15" y="-61" font-family="Helvetica,sans-Serif" font-size="10.00">Eigen/Core</text>
</a>
</g>
</g>
<!-- Node3&#45;&gt;Node4 -->
<g id="edge3_Node000003_Node000004" class="edge">
<title>Node3&#45;&gt;Node4</title>
<g id="a_edge3_Node000003_Node000004"><a xlink:title=" ">
<path fill="none" stroke="#63b8ff" d="M276.57,-170.81C245.9,-165.54 192.68,-153.58 153.15,-129.75 133.21,-117.73 115.07,-97.96 103.44,-83.6"/>
<polygon fill="#63b8ff" stroke="#63b8ff" points="106.32,-81.6 97.41,-75.87 100.8,-85.91 106.32,-81.6"/>
</a>
</g>
</g>
<!-- Node5 -->
<g id="Node000005" class="node">
<title>Node5</title>
<g id="a_Node000005"><a xlink:title=" ">
<polygon fill="#e0e0e0" stroke="#999999" points="382.55,-129.75 353.75,-129.75 353.75,-110.5 382.55,-110.5 382.55,-129.75"/>
<text text-anchor="middle" x="368.15" y="-116.25" font-family="Helvetica,sans-Serif" font-size="10.00">list</text>
</a>
</g>
</g>
<!-- Node3&#45;&gt;Node5 -->
<g id="edge4_Node000003_Node000005" class="edge">
<title>Node3&#45;&gt;Node5</title>
<g id="a_edge4_Node000003_Node000005"><a xlink:title=" ">
<path fill="none" stroke="#63b8ff" d="M312.52,-165.34C322.2,-157.65 336.35,-146.4 347.96,-137.18"/>
<polygon fill="#63b8ff" stroke="#63b8ff" points="350.12,-139.93 355.77,-130.97 345.76,-134.45 350.12,-139.93"/>
</a>
</g>
</g>
<!-- Node6 -->
<g id="Node000006" class="node">
<title>Node6</title>
<g id="a_Node000006"><a xlink:title=" ">
<polygon fill="#e0e0e0" stroke="#999999" points="42.53,-19.25 7.78,-19.25 7.78,0 42.53,0 42.53,-19.25"/>
<text text-anchor="middle" x="25.15" y="-5.75" font-family="Helvetica,sans-Serif" font-size="10.00">map</text>
</a>
</g>
</g>
<!-- Node3&#45;&gt;Node6 -->
<g id="edge5_Node000003_Node000006" class="edge">
<title>Node3&#45;&gt;Node6</title>
<g id="a_edge5_Node000003_Node000006"><a xlink:title=" ">
<path fill="none" stroke="#63b8ff" d="M276.83,-174.46C213.69,-174.13 47.15,-169.42 13.15,-129.75 -10.66,-101.97 3.95,-56.06 15.4,-30.1"/>
<polygon fill="#63b8ff" stroke="#63b8ff" points="18.56,-31.62 19.65,-21.08 12.22,-28.64 18.56,-31.62"/>
</a>
</g>
</g>
<!-- Node7 -->
<g id="Node000007" class="node">
<title>Node7</title>
<g id="a_Node000007"><a xlink:title=" ">
<polygon fill="#e0e0e0" stroke="#999999" points="266.65,-19.25 223.65,-19.25 223.65,0 266.65,0 266.65,-19.25"/>
<text text-anchor="middle" x="245.15" y="-5.75" font-family="Helvetica,sans-Serif" font-size="10.00">vector</text>
</a>
</g>
</g>
<!-- Node3&#45;&gt;Node7 -->
<g id="edge6_Node000003_Node000007" class="edge">
<title>Node3&#45;&gt;Node7</title>
<g id="a_edge6_Node000003_Node000007"><a xlink:title=" ">
<path fill="none" stroke="#63b8ff" d="M325.74,-171.58C398.37,-162.4 602.93,-129.44 539.15,-55.25 505.75,-16.39 347.36,-10.96 277.91,-10.49"/>
<polygon fill="#63b8ff" stroke="#63b8ff" points="278.32,-6.99 268.31,-10.45 278.3,-13.99 278.32,-6.99"/>
</a>
</g>
</g>
<!-- Node8 -->
<g id="Node000008" class="node">
<title>Node8</title>
<g id="a_Node000008"><a xlink:href="_block_type_8h.html" target="_top" xlink:title="Specifies the types of blocks and their parameters.">
<polygon fill="white" stroke="#666666" points="91.78,-129.75 22.53,-129.75 22.53,-110.5 91.78,-110.5 91.78,-129.75"/>
<text text-anchor="middle" x="57.15" y="-116.25" font-family="Helvetica,sans-Serif" font-size="10.00">BlockType.h</text>
</a>
</g>
</g>
<!-- Node3&#45;&gt;Node8 -->
<g id="edge7_Node000003_Node000008" class="edge">
<title>Node3&#45;&gt;Node8</title>
<g id="a_edge7_Node000003_Node000008"><a xlink:title=" ">
<path fill="none" stroke="#63b8ff" d="M276.86,-169.07C236.52,-160.27 155.04,-142.49 103.44,-131.23"/>
<polygon fill="#63b8ff" stroke="#63b8ff" points="104.27,-127.83 93.75,-129.11 102.78,-134.66 104.27,-127.83"/>
</a>
</g>
</g>
<!-- Node10 -->
<g id="Node000010" class="node">
<title>Node10</title>
<g id="a_Node000010"><a xlink:href="_d_o_f_handler_8h.html" target="_top" xlink:title="model::DOFHandler source file">
<polygon fill="white" stroke="#666666" points="216.9,-74.5 139.4,-74.5 139.4,-55.25 216.9,-55.25 216.9,-74.5"/>
<text text-anchor="middle" x="178.15" y="-61" font-family="Helvetica,sans-Serif" font-size="10.00">DOFHandler.h</text>
</a>
</g>
</g>
<!-- Node3&#45;&gt;Node10 -->
<g id="edge9_Node000003_Node000010" class="edge">
<title>Node3&#45;&gt;Node10</title>
<g id="a_edge9_Node000003_Node000010"><a xlink:title=" ">
<path fill="none" stroke="#63b8ff" d="M291.09,-165.5C270.45,-147.3 223.09,-105.52 196.73,-82.26"/>
<polygon fill="#63b8ff" stroke="#63b8ff" points="199.31,-79.87 189.49,-75.88 194.68,-85.12 199.31,-79.87"/>
</a>
</g>
</g>
<!-- Node11 -->
<g id="Node000011" class="node">
<title>Node11</title>
<g id="a_Node000011"><a xlink:href="_parameter_8h.html" target="_top" xlink:title="model::Parameter source file">
<polygon fill="white" stroke="#666666" points="335.4,-129.75 266.9,-129.75 266.9,-110.5 335.4,-110.5 335.4,-129.75"/>
<text text-anchor="middle" x="301.15" y="-116.25" font-family="Helvetica,sans-Serif" font-size="10.00">Parameter.h</text>
</a>
</g>
</g>
<!-- Node3&#45;&gt;Node11 -->
<g id="edge13_Node000003_Node000011" class="edge">
<title>Node3&#45;&gt;Node11</title>
<g id="a_edge13_Node000003_Node000011"><a xlink:title=" ">
<path fill="none" stroke="#63b8ff" d="M301.15,-165.58C301.15,-159.07 301.15,-149.92 301.15,-141.62"/>
<polygon fill="#63b8ff" stroke="#63b8ff" points="304.65,-141.62 301.15,-131.62 297.65,-141.62 304.65,-141.62"/>
</a>
</g>
</g>
<!-- Node3&#45;&gt;Node16 -->
<g id="edge20_Node000003_Node000016" class="edge">
<title>Node3&#45;&gt;Node16</title>
<g id="a_edge20_Node000003_Node000016"><a xlink:title=" ">
<path fill="none" stroke="#63b8ff" d="M325.61,-170.42C378.05,-161.93 502.43,-141.8 574.97,-130.06"/>
<polygon fill="#63b8ff" stroke="#63b8ff" points="575.35,-133.54 584.66,-128.49 574.23,-126.63 575.35,-133.54"/>
</a>
</g>
</g>
<!-- Node20 -->
<g id="Node000020" class="node">
<title>Node20</title>
<g id="a_Node000020"><a xlink:href="_state_8h.html" target="_top" xlink:title="State source file.">
<polygon fill="white" stroke="#666666" points="208.53,-129.75 161.78,-129.75 161.78,-110.5 208.53,-110.5 208.53,-129.75"/>
<text text-anchor="middle" x="185.15" y="-116.25" font-family="Helvetica,sans-Serif" font-size="10.00">State.h</text>
</a>
</g>
</g>
<!-- Node3&#45;&gt;Node20 -->
<g id="edge25_Node000003_Node000020" class="edge">
<title>Node3&#45;&gt;Node20</title>
<g id="a_edge25_Node000003_Node000020"><a xlink:title=" ">
<path fill="none" stroke="#63b8ff" d="M281.47,-165.34C263.31,-157 236.07,-144.5 215.18,-134.91"/>
<polygon fill="#63b8ff" stroke="#63b8ff" points="216.85,-131.83 206.3,-130.83 213.93,-138.19 216.85,-131.83"/>
</a>
</g>
</g>
<!-- Node9 -->
<g id="Node000009" class="node">
<title>Node9</title>
<g id="a_Node000009"><a xlink:title=" ">
<polygon fill="#e0e0e0" stroke="#999999" points="165.15,-19.25 125.15,-19.25 125.15,0 165.15,0 165.15,-19.25"/>
<text text-anchor="middle" x="145.15" y="-5.75" font-family="Helvetica,sans-Serif" font-size="10.00">string</text>
</a>
</g>
</g>
<!-- Node8&#45;&gt;Node9 -->
<g id="edge8_Node000008_Node000009" class="edge">
<title>Node8&#45;&gt;Node9</title>
<g id="a_edge8_Node000008_Node000009"><a xlink:title=" ">
<path fill="none" stroke="#63b8ff" d="M52.59,-110.06C46.68,-96.9 38.33,-72.21 49.15,-55.25 63.29,-33.08 91.61,-21.75 113.84,-16.07"/>
<polygon fill="#63b8ff" stroke="#63b8ff" points="114.35,-19.55 123.33,-13.93 112.8,-12.72 114.35,-19.55"/>
</a>
</g>
</g>
<!-- Node10&#45;&gt;Node6 -->
<g id="edge10_Node000010_Node000006" class="edge">
<title>Node10&#45;&gt;Node6</title>
<g id="a_edge10_Node000010_Node000006"><a xlink:title=" ">
<path fill="none" stroke="#63b8ff" d="M152.2,-54.84C124.77,-45.3 81.66,-30.29 53.4,-20.46"/>
<polygon fill="#63b8ff" stroke="#63b8ff" points="54.66,-17.19 44.07,-17.21 52.36,-23.8 54.66,-17.19"/>
</a>
</g>
</g>
<!-- Node10&#45;&gt;Node7 -->
<g id="edge12_Node000010_Node000007" class="edge">
<title>Node10&#45;&gt;Node7</title>
<g id="a_edge12_Node000010_Node000007"><a xlink:title=" ">
<path fill="none" stroke="#63b8ff" d="M189.52,-54.84C199.2,-47.15 213.35,-35.9 224.96,-26.68"/>
<polygon fill="#63b8ff" stroke="#63b8ff" points="227.12,-29.43 232.77,-20.47 222.76,-23.95 227.12,-29.43"/>
</a>
</g>
</g>
<!-- Node10&#45;&gt;Node9 -->
<g id="edge11_Node000010_Node000009" class="edge">
<title>Node10&#45;&gt;Node9</title>
<g id="a_edge11_Node000010_Node000009"><a xlink:title=" ">
<path fill="none" stroke="#63b8ff" d="M172.7,-55.08C168.38,-48.11 162.19,-38.12 156.77,-29.37"/>
<polygon fill="#63b8ff" stroke="#63b8ff" points="159.76,-27.55 151.52,-20.9 153.81,-31.24 159.76,-27.55"/>
</a>
</g>
</g>
<!-- Node11&#45;&gt;Node7 -->
<g id="edge18_Node000011_Node000007" class="edge">
<title>Node11&#45;&gt;Node7</title>
<g id="a_edge18_Node000011_Node000007"><a xlink:title=" ">
<path fill="none" stroke="#63b8ff" d="M291.69,-110.03C283.36,-101.54 271.46,-88.17 264.15,-74.5 256.8,-60.74 251.92,-43.74 248.95,-30.74"/>
<polygon fill="#63b8ff" stroke="#63b8ff" points="252.43,-30.3 246.97,-21.22 245.58,-31.73 252.43,-30.3"/>
</a>
</g>
</g>
<!-- Node11&#45;&gt;Node10 -->
<g id="edge19_Node000011_Node000010" class="edge">
<title>Node11&#45;&gt;Node10</title>
<g id="a_edge19_Node000011_Node000010"><a xlink:title=" ">
<path fill="none" stroke="#63b8ff" d="M280.29,-110.09C260.85,-101.68 231.61,-89.02 209.39,-79.4"/>
<polygon fill="#63b8ff" stroke="#63b8ff" points="211.08,-76.31 200.51,-75.55 208.29,-82.74 211.08,-76.31"/>
</a>
</g>
</g>
<!-- Node12 -->
<g id="Node000012" class="node">
<title>Node12</title>
<g id="a_Node000012"><a xlink:title=" ">
<polygon fill="#e0e0e0" stroke="#999999" points="329.03,-74.5 273.28,-74.5 273.28,-55.25 329.03,-55.25 329.03,-74.5"/>
<text text-anchor="middle" x="301.15" y="-61" font-family="Helvetica,sans-Serif" font-size="10.00">algorithm</text>
</a>
</g>
</g>
<!-- Node11&#45;&gt;Node12 -->
<g id="edge14_Node000011_Node000012" class="edge">
<title>Node11&#45;&gt;Node12</title>
<g id="a_edge14_Node000011_Node000012"><a xlink:title=" ">
<path fill="none" stroke="#63b8ff" d="M301.15,-110.33C301.15,-103.82 301.15,-94.67 301.15,-86.37"/>
<polygon fill="#63b8ff" stroke="#63b8ff" points="304.65,-86.37 301.15,-76.37 297.65,-86.37 304.65,-86.37"/>
</a>
</g>
</g>
<!-- Node13 -->
<g id="Node000013" class="node">
<title>Node13</title>
<g id="a_Node000013"><a xlink:title=" ">
<polygon fill="#e0e0e0" stroke="#999999" points="458.65,-74.5 415.65,-74.5 415.65,-55.25 458.65,-55.25 458.65,-74.5"/>
<text text-anchor="middle" x="437.15" y="-61" font-family="Helvetica,sans-Serif" font-size="10.00">cmath</text>
</a>
</g>
</g>
<!-- Node11&#45;&gt;Node13 -->
<g id="edge15_Node000011_Node000013" class="edge">
<title>Node11&#45;&gt;Node13</title>
<g id="a_edge15_Node000011_Node000013"><a xlink:title=" ">
<path fill="none" stroke="#63b8ff" d="M324.22,-110.09C346.3,-101.45 379.83,-88.32 404.62,-78.61"/>
<polygon fill="#63b8ff" stroke="#63b8ff" points="405.87,-81.88 413.91,-74.97 403.32,-75.36 405.87,-81.88"/>
</a>
</g>
</g>
<!-- Node14 -->
<g id="Node000014" class="node">
<title>Node14</title>
<g id="a_Node000014"><a xlink:title=" ">
<polygon fill="#e0e0e0" stroke="#999999" points="529.9,-74.5 476.4,-74.5 476.4,-55.25 529.9,-55.25 529.9,-74.5"/>
<text text-anchor="middle" x="503.15" y="-61" font-family="Helvetica,sans-Serif" font-size="10.00">iostream</text>
</a>
</g>
</g>
<!-- Node11&#45;&gt;Node14 -->
<g id="edge16_Node000011_Node000014" class="edge">
<title>Node11&#45;&gt;Node14</title>
<g id="a_edge16_Node000011_Node000014"><a xlink:title=" ">
<path fill="none" stroke="#63b8ff" d="M335.42,-110.09C371.43,-100.6 427.92,-85.71 465.24,-75.87"/>
<polygon fill="#63b8ff" stroke="#63b8ff" points="465.93,-79.31 474.7,-73.37 464.14,-72.54 465.93,-79.31"/>
</a>
</g>
</g>
<!-- Node15 -->
<g id="Node000015" class="node">
<title>Node15</title>
<g id="a_Node000015"><a xlink:title=" ">
<polygon fill="#e0e0e0" stroke="#999999" points="397.4,-74.5 346.9,-74.5 346.9,-55.25 397.4,-55.25 397.4,-74.5"/>
<text text-anchor="middle" x="372.15" y="-61" font-family="Helvetica,sans-Serif" font-size="10.00">numeric</text>
</a>
</g>
</g>
<!-- Node11&#45;&gt;Node15 -->
<g id="edge17_Node000011_Node000015" class="edge">
<title>Node11&#45;&gt;Node15</title>
<g id="a_edge17_Node000011_Node000015"><a xlink:title=" ">
<path fill="none" stroke="#63b8ff" d="M313.2,-110.09C323.56,-102.32 338.75,-90.92 351.12,-81.65"/>
<polygon fill="#63b8ff" stroke="#63b8ff" points="353.17,-84.48 359.07,-75.68 348.97,-78.88 353.17,-84.48"/>
</a>
</g>
</g>
<!-- Node16&#45;&gt;Node14 -->
<g id="edge23_Node000016_Node000014" class="edge">
<title>Node16&#45;&gt;Node14</title>
<g id="a_edge23_Node000016_Node000014"><a xlink:title=" ">
<path fill="none" stroke="#63b8ff" d="M608.61,-110.09C588.54,-101.68 558.35,-89.02 535.41,-79.4"/>
<polygon fill="#63b8ff" stroke="#63b8ff" points="536.77,-76.18 526.2,-75.54 534.07,-82.63 536.77,-76.18"/>
</a>
</g>
</g>
<!-- Node17 -->
<g id="Node000017" class="node">
<title>Node17</title>
<g id="a_Node000017"><a xlink:title=" ">
<polygon fill="#e0e0e0" stroke="#999999" points="834.03,-74.5 760.28,-74.5 760.28,-55.25 834.03,-55.25 834.03,-74.5"/>
<text text-anchor="middle" x="797.15" y="-61" font-family="Helvetica,sans-Serif" font-size="10.00">Eigen/Sparse</text>
</a>
</g>
</g>
<!-- Node16&#45;&gt;Node17 -->
<g id="edge21_Node000016_Node000017" class="edge">
<title>Node16&#45;&gt;Node17</title>
<g id="a_edge21_Node000016_Node000017"><a xlink:title=" ">
<path fill="none" stroke="#63b8ff" d="M658.48,-110.09C685.83,-101.37 727.48,-88.09 757.99,-78.36"/>
<polygon fill="#63b8ff" stroke="#63b8ff" points="758.78,-81.78 767.24,-75.41 756.65,-75.12 758.78,-81.78"/>
</a>
</g>
</g>
<!-- Node18 -->
<g id="Node000018" class="node">
<title>Node18</title>
<g id="a_Node000018"><a xlink:title=" ">
<polygon fill="#e0e0e0" stroke="#999999" points="673.78,-74.5 586.53,-74.5 586.53,-55.25 673.78,-55.25 673.78,-74.5"/>
<text text-anchor="middle" x="630.15" y="-61" font-family="Helvetica,sans-Serif" font-size="10.00">Eigen/SparseLU</text>
</a>
</g>
</g>
<!-- Node16&#45;&gt;Node18 -->
<g id="edge22_Node000016_Node000018" class="edge">
<title>Node16&#45;&gt;Node18</title>
<g id="a_edge22_Node000016_Node000018"><a xlink:title=" ">
<path fill="none" stroke="#63b8ff" d="M630.15,-110.33C630.15,-103.82 630.15,-94.67 630.15,-86.37"/>
<polygon fill="#63b8ff" stroke="#63b8ff" points="633.65,-86.37 630.15,-76.37 626.65,-86.37 633.65,-86.37"/>
</a>
</g>
</g>
<!-- Node19 -->
<g id="Node000019" class="node">
<title>Node19</title>
<g id="a_Node000019"><a xlink:title=" ">
<polygon fill="#e0e0e0" stroke="#999999" points="742.4,-74.5 691.9,-74.5 691.9,-55.25 742.4,-55.25 742.4,-74.5"/>
<text text-anchor="middle" x="717.15" y="-61" font-family="Helvetica,sans-Serif" font-size="10.00">memory</text>
</a>
</g>
</g>
<!-- Node16&#45;&gt;Node19 -->
<g id="edge24_Node000016_Node000019" class="edge">
<title>Node16&#45;&gt;Node19</title>
<g id="a_edge24_Node000016_Node000019"><a xlink:title=" ">
<path fill="none" stroke="#63b8ff" d="M644.91,-110.09C658.03,-102.06 677.47,-90.16 692.88,-80.73"/>
<polygon fill="#63b8ff" stroke="#63b8ff" points="694.33,-83.95 701.03,-75.74 690.67,-77.98 694.33,-83.95"/>
</a>
</g>
</g>
<!-- Node20&#45;&gt;Node4 -->
<g id="edge26_Node000020_Node000004" class="edge">
<title>Node20&#45;&gt;Node4</title>
<g id="a_edge26_Node000020_Node000004"><a xlink:title=" ">
<path fill="none" stroke="#63b8ff" d="M169.04,-110.09C154.57,-101.98 133.07,-89.93 116.17,-80.46"/>
<polygon fill="#63b8ff" stroke="#63b8ff" points="118.1,-77.53 107.67,-75.69 114.68,-83.64 118.1,-77.53"/>
</a>
</g>
</g>
<!-- Node21&#45;&gt;Node3 -->
<g id="edge28_Node000021_Node000003" class="edge">
<title>Node21&#45;&gt;Node3</title>
<g id="a_edge28_Node000021_Node000003"><a xlink:title=" ">
<path fill="none" stroke="#63b8ff" d="M414.08,-220.59C392.39,-212.1 359.67,-199.29 335.02,-189.64"/>
<polygon fill="#63b8ff" stroke="#63b8ff" points="336.33,-186.39 325.74,-186 333.78,-192.91 336.33,-186.39"/>
</a>
</g>
</g>
<!-- Node21&#45;&gt;Node13 -->
<g id="edge30_Node000021_Node000013" class="edge">
<title>Node21&#45;&gt;Node13</title>
<g id="a_edge30_Node000021_Node000013"><a xlink:title=" ">
<path fill="none" stroke="#63b8ff" d="M437.15,-220.82C437.15,-195.5 437.15,-122 437.15,-86.09"/>
<polygon fill="#63b8ff" stroke="#63b8ff" points="440.65,-86.24 437.15,-76.24 433.65,-86.24 440.65,-86.24"/>
</a>
</g>
</g>
<!-- Node21&#45;&gt;Node16 -->
<g id="edge29_Node000021_Node000016" class="edge">
<title>Node21&#45;&gt;Node16</title>
<g id="a_edge29_Node000021_Node000016"><a xlink:title=" ">
<path fill="none" stroke="#63b8ff" d="M453.27,-220.56C486.62,-201.81 563.45,-158.62 603.99,-135.83"/>
<polygon fill="#63b8ff" stroke="#63b8ff" points="605.62,-138.93 612.62,-130.98 602.19,-132.83 605.62,-138.93"/>
</a>
</g>
</g>
</g>
</svg>
