<?xml version="1.0" encoding="UTF-8" standalone="no"?>
<!DOCTYPE svg PUBLIC "-//W3C//DTD SVG 1.1//EN"
 "http://www.w3.org/Graphics/SVG/1.1/DTD/svg11.dtd">
<!-- Generated by graphviz version 12.2.1 (20241206.2353)
 -->
<!-- Title: model/DOFHandler.h Pages: 1 -->
<svg width="1658pt" height="492pt"
 viewBox="0.00 0.00 1658.00 491.75" xmlns="http://www.w3.org/2000/svg" xmlns:xlink="http://www.w3.org/1999/xlink">
<g id="graph0" class="graph" transform="scale(1 1) rotate(0) translate(4 487.75)">
<title>model/DOFHandler.h</title>
<!-- Node1 -->
<g id="Node000001" class="node">
<title>Node1</title>
<g id="a_Node000001"><a xlink:title="model::DOFHandler source file">
<polygon fill="#999999" stroke="#666666" points="1229.38,-483.75 1122.62,-483.75 1122.62,-464.5 1229.38,-464.5 1229.38,-483.75"/>
<text text-anchor="middle" x="1176" y="-470.25" font-family="Helvetica,sans-Serif" font-size="10.00">model/DOFHandler.h</text>
</a>
</g>
</g>
<!-- Node2 -->
<g id="Node000002" class="node">
<title>Node2</title>
<g id="a_Node000002"><a xlink:href="_block_8h.html" target="_top" xlink:title="model::Block source file">
<polygon fill="white" stroke="#666666" points="842.75,-373.25 765.25,-373.25 765.25,-354 842.75,-354 842.75,-373.25"/>
<text text-anchor="middle" x="804" y="-359.75" font-family="Helvetica,sans-Serif" font-size="10.00">model/Block.h</text>
</a>
</g>
</g>
<!-- Node1&#45;&gt;Node2 -->
<g id="edge1_Node000001_Node000002" class="edge">
<title>Node1&#45;&gt;Node2</title>
<g id="a_edge1_Node000001_Node000002"><a xlink:title=" ">
<path fill="none" stroke="#63b8ff" d="M1133.98,-460.87C1058.59,-438.88 902.01,-393.21 835.25,-373.74"/>
<polygon fill="#63b8ff" stroke="#63b8ff" points="1132.89,-464.2 1143.47,-463.64 1134.85,-457.48 1132.89,-464.2"/>
</a>
</g>
</g>
<!-- Node4 -->
<g id="Node000004" class="node">
<title>Node4</title>
<g id="a_Node000004"><a xlink:href="_model_8h.html" target="_top" xlink:title="model::Model source file">
<polygon fill="white" stroke="#666666" points="878.5,-141 799.5,-141 799.5,-121.75 878.5,-121.75 878.5,-141"/>
<text text-anchor="middle" x="839" y="-127.5" font-family="Helvetica,sans-Serif" font-size="10.00">model/Model.h</text>
</a>
</g>
</g>
<!-- Node1&#45;&gt;Node4 -->
<g id="edge52_Node000001_Node000004" class="edge">
<title>Node1&#45;&gt;Node4</title>
<g id="a_edge52_Node000001_Node000004"><a xlink:title=" ">
<path fill="none" stroke="#63b8ff" d="M1240.78,-471.71C1370.54,-467.12 1650,-447.6 1650,-364.62 1650,-364.62 1650,-364.62 1650,-252.12 1650,-166.26 1555.51,-196.98 1472,-177 1358.43,-149.82 998.85,-137.05 878.61,-133.47"/>
<polygon fill="#63b8ff" stroke="#63b8ff" points="1240.84,-468.21 1230.97,-472.04 1241.08,-475.2 1240.84,-468.21"/>
</a>
</g>
</g>
<!-- Node29 -->
<g id="Node000029" class="node">
<title>Node29</title>
<g id="a_Node000029"><a xlink:href="_node_8h.html" target="_top" xlink:title="model::Node source file">
<polygon fill="white" stroke="#666666" points="1162,-373.25 1086,-373.25 1086,-354 1162,-354 1162,-373.25"/>
<text text-anchor="middle" x="1124" y="-359.75" font-family="Helvetica,sans-Serif" font-size="10.00">model/Node.h</text>
</a>
</g>
</g>
<!-- Node1&#45;&gt;Node29 -->
<g id="edge53_Node000001_Node000029" class="edge">
<title>Node1&#45;&gt;Node29</title>
<g id="a_edge53_Node000001_Node000029"><a xlink:title=" ">
<path fill="none" stroke="#63b8ff" d="M1166.87,-454.08C1155.56,-430.47 1136.74,-391.21 1128.31,-373.63"/>
<polygon fill="#63b8ff" stroke="#63b8ff" points="1163.61,-455.38 1171.09,-462.88 1169.92,-452.35 1163.61,-455.38"/>
</a>
</g>
</g>
<!-- Node30 -->
<g id="Node000030" class="node">
<title>Node30</title>
<g id="a_Node000030"><a xlink:href="_parameter_8h.html" target="_top" xlink:title="model::Parameter source file">
<polygon fill="white" stroke="#666666" points="1276.88,-428.5 1179.12,-428.5 1179.12,-409.25 1276.88,-409.25 1276.88,-428.5"/>
<text text-anchor="middle" x="1228" y="-415" font-family="Helvetica,sans-Serif" font-size="10.00">model/Parameter.h</text>
</a>
</g>
</g>
<!-- Node1&#45;&gt;Node30 -->
<g id="edge55_Node000001_Node000030" class="edge">
<title>Node1&#45;&gt;Node30</title>
<g id="a_edge55_Node000001_Node000030"><a xlink:title=" ">
<path fill="none" stroke="#63b8ff" d="M1192.41,-456.32C1201.29,-447.23 1211.91,-436.35 1219.23,-428.86"/>
<polygon fill="#63b8ff" stroke="#63b8ff" points="1190.13,-453.65 1185.64,-463.25 1195.13,-458.54 1190.13,-453.65"/>
</a>
</g>
</g>
<!-- Node3 -->
<g id="Node000003" class="node">
<title>Node3</title>
<g id="a_Node000003"><a xlink:href="_block_factory_8h.html" target="_top" xlink:title="Define the block factory functional.">
<polygon fill="white" stroke="#666666" points="1135.88,-262.75 1026.12,-262.75 1026.12,-243.5 1135.88,-243.5 1135.88,-262.75"/>
<text text-anchor="middle" x="1081" y="-249.25" font-family="Helvetica,sans-Serif" font-size="10.00">model/BlockFactory.h</text>
</a>
</g>
</g>
<!-- Node2&#45;&gt;Node3 -->
<g id="edge2_Node000002_Node000003" class="edge">
<title>Node2&#45;&gt;Node3</title>
<g id="a_edge2_Node000002_Node000003"><a xlink:title=" ">
<path fill="none" stroke="#63b8ff" d="M830.88,-348.27C857.39,-334.46 899.28,-313.56 937,-298.75 973.79,-284.31 1017.28,-271.38 1046.76,-263.2"/>
<polygon fill="#63b8ff" stroke="#63b8ff" points="829.42,-345.08 822.2,-352.83 832.68,-351.28 829.42,-345.08"/>
</a>
</g>
</g>
<!-- Node2&#45;&gt;Node4 -->
<g id="edge39_Node000002_Node000004" class="edge">
<title>Node2&#45;&gt;Node4</title>
<g id="a_edge39_Node000002_Node000004"><a xlink:title=" ">
<path fill="none" stroke="#63b8ff" d="M753.64,-362.55C615.51,-361.83 238.34,-356.35 199,-318 153.99,-274.13 145.1,-222.94 188,-177 229.75,-132.29 664.5,-131.26 799.34,-132.03"/>
<polygon fill="#63b8ff" stroke="#63b8ff" points="753.56,-366.05 763.58,-362.59 753.59,-359.05 753.56,-366.05"/>
</a>
</g>
</g>
<!-- Node8 -->
<g id="Node000008" class="node">
<title>Node8</title>
<g id="a_Node000008"><a xlink:href="_chamber_elastance_inductor_8h.html" target="_top" xlink:title="model::ChamberElastanceInductor source file">
<polygon fill="white" stroke="#666666" points="416.88,-80.12 247.12,-80.12 247.12,-60.88 416.88,-60.88 416.88,-80.12"/>
<text text-anchor="middle" x="332" y="-66.62" font-family="Helvetica,sans-Serif" font-size="10.00">model/ChamberElastanceInductor.h</text>
</a>
</g>
</g>
<!-- Node2&#45;&gt;Node8 -->
<g id="edge22_Node000002_Node000008" class="edge">
<title>Node2&#45;&gt;Node8</title>
<g id="a_edge22_Node000002_Node000008"><a xlink:title=" ">
<path fill="none" stroke="#63b8ff" d="M753.82,-362.59C614.35,-361.98 224.32,-356.77 103,-318 51.69,-301.6 0,-307.99 0,-254.12 0,-254.12 0,-254.12 0,-191.25 0,-134.19 175.73,-96.77 271.49,-80.62"/>
<polygon fill="#63b8ff" stroke="#63b8ff" points="753.45,-366.09 763.47,-362.62 753.48,-359.09 753.45,-366.09"/>
</a>
</g>
</g>
<!-- Node13 -->
<g id="Node000013" class="node">
<title>Node13</title>
<g id="a_Node000013"><a xlink:href="_blood_vessel_8h.html" target="_top" xlink:title="model::BloodVessel source file">
<polygon fill="white" stroke="#666666" points="737.75,-318 630.25,-318 630.25,-298.75 737.75,-298.75 737.75,-318"/>
<text text-anchor="middle" x="684" y="-304.5" font-family="Helvetica,sans-Serif" font-size="10.00">model/BloodVessel.h</text>
</a>
</g>
</g>
<!-- Node2&#45;&gt;Node13 -->
<g id="edge17_Node000002_Node000013" class="edge">
<title>Node2&#45;&gt;Node13</title>
<g id="a_edge17_Node000002_Node000013"><a xlink:title=" ">
<path fill="none" stroke="#63b8ff" d="M773.34,-349.02C751.73,-339.43 723.37,-326.84 704.46,-318.45"/>
<polygon fill="#63b8ff" stroke="#63b8ff" points="771.7,-352.12 782.26,-352.98 774.54,-345.72 771.7,-352.12"/>
</a>
</g>
</g>
<!-- Node14 -->
<g id="Node000014" class="node">
<title>Node14</title>
<g id="a_Node000014"><a xlink:href="_blood_vessel_junction_8h.html" target="_top" xlink:title="model::BloodVesselJunction source file">
<polygon fill="white" stroke="#666666" points="776.12,-262.75 631.88,-262.75 631.88,-243.5 776.12,-243.5 776.12,-262.75"/>
<text text-anchor="middle" x="704" y="-249.25" font-family="Helvetica,sans-Serif" font-size="10.00">model/BloodVesselJunction.h</text>
</a>
</g>
</g>
<!-- Node2&#45;&gt;Node14 -->
<g id="edge21_Node000002_Node000014" class="edge">
<title>Node2&#45;&gt;Node14</title>
<g id="a_edge21_Node000002_Node000014"><a xlink:title=" ">
<path fill="none" stroke="#63b8ff" d="M788.99,-345.45C777.6,-332.5 761.48,-314.36 747,-298.75 735.29,-286.13 721.42,-271.85 712.67,-262.92"/>
<polygon fill="#63b8ff" stroke="#63b8ff" points="786.14,-347.5 795.36,-352.71 791.4,-342.89 786.14,-347.5"/>
</a>
</g>
</g>
<!-- Node15 -->
<g id="Node000015" class="node">
<title>Node15</title>
<g id="a_Node000015"><a xlink:href="_chamber_sphere_8h.html" target="_top" xlink:title="model::ChamberSphere source file">
<polygon fill="white" stroke="#666666" points="1038.25,-201.88 915.75,-201.88 915.75,-182.62 1038.25,-182.62 1038.25,-201.88"/>
<text text-anchor="middle" x="977" y="-188.38" font-family="Helvetica,sans-Serif" font-size="10.00">model/ChamberSphere.h</text>
</a>
</g>
</g>
<!-- Node2&#45;&gt;Node15 -->
<g id="edge23_Node000002_Node000015" class="edge">
<title>Node2&#45;&gt;Node15</title>
<g id="a_edge23_Node000002_Node000015"><a xlink:title=" ">
<path fill="none" stroke="#63b8ff" d="M814.67,-343.55C818.95,-335.7 823.85,-326.48 828,-318 843.92,-285.47 835.29,-269 861,-243.5 882.04,-222.64 913.14,-209.8 937.85,-202.33"/>
<polygon fill="#63b8ff" stroke="#63b8ff" points="811.68,-341.73 809.9,-352.18 817.81,-345.12 811.68,-341.73"/>
</a>
</g>
</g>
<!-- Node16 -->
<g id="Node000016" class="node">
<title>Node16</title>
<g id="a_Node000016"><a xlink:href="_closed_loop_coronary_b_c_8h.html" target="_top" xlink:title="model::ClosedLoopCoronaryBC source file">
<polygon fill="white" stroke="#666666" points="397.12,-262.75 240.88,-262.75 240.88,-243.5 397.12,-243.5 397.12,-262.75"/>
<text text-anchor="middle" x="319" y="-249.25" font-family="Helvetica,sans-Serif" font-size="10.00">model/ClosedLoopCoronaryBC.h</text>
</a>
</g>
</g>
<!-- Node2&#45;&gt;Node16 -->
<g id="edge25_Node000002_Node000016" class="edge">
<title>Node2&#45;&gt;Node16</title>
<g id="a_edge25_Node000002_Node000016"><a xlink:title=" ">
<path fill="none" stroke="#63b8ff" d="M753.37,-362.63C680.86,-361.29 544.05,-353.68 434,-318 413.25,-311.27 359.45,-279.03 333.46,-263.09"/>
<polygon fill="#63b8ff" stroke="#63b8ff" points="753.3,-366.13 763.35,-362.78 753.41,-359.13 753.3,-366.13"/>
</a>
</g>
</g>
<!-- Node19 -->
<g id="Node000019" class="node">
<title>Node19</title>
<g id="a_Node000019"><a xlink:href="_closed_loop_heart_pulmonary_8h.html" target="_top" xlink:title="model::ClosedLoopHeartPulmonary source file">
<polygon fill="white" stroke="#666666" points="382.12,-318 207.88,-318 207.88,-298.75 382.12,-298.75 382.12,-318"/>
<text text-anchor="middle" x="295" y="-304.5" font-family="Helvetica,sans-Serif" font-size="10.00">model/ClosedLoopHeartPulmonary.h</text>
</a>
</g>
</g>
<!-- Node2&#45;&gt;Node19 -->
<g id="edge30_Node000002_Node000019" class="edge">
<title>Node2&#45;&gt;Node19</title>
<g id="a_edge30_Node000002_Node000019"><a xlink:title=" ">
<path fill="none" stroke="#63b8ff" d="M753.55,-357.35C666.91,-348.28 488.84,-329.65 381.89,-318.47"/>
<polygon fill="#63b8ff" stroke="#63b8ff" points="753.09,-360.82 763.4,-358.38 753.82,-353.86 753.09,-360.82"/>
</a>
</g>
</g>
<!-- Node20 -->
<g id="Node000020" class="node">
<title>Node20</title>
<g id="a_Node000020"><a xlink:href="_closed_loop_r_c_r_b_c_8h.html" target="_top" xlink:title="model::ClosedLoopRCRBC source file">
<polygon fill="white" stroke="#666666" points="1008.12,-262.75 869.88,-262.75 869.88,-243.5 1008.12,-243.5 1008.12,-262.75"/>
<text text-anchor="middle" x="939" y="-249.25" font-family="Helvetica,sans-Serif" font-size="10.00">model/ClosedLoopRCRBC.h</text>
</a>
</g>
</g>
<!-- Node2&#45;&gt;Node20 -->
<g id="edge33_Node000002_Node000020" class="edge">
<title>Node2&#45;&gt;Node20</title>
<g id="a_edge33_Node000002_Node000020"><a xlink:title=" ">
<path fill="none" stroke="#63b8ff" d="M823.82,-346.7C852.57,-323.59 904.92,-281.51 927.8,-263.13"/>
<polygon fill="#63b8ff" stroke="#63b8ff" points="821.83,-343.81 816.23,-352.8 826.21,-349.26 821.83,-343.81"/>
</a>
</g>
</g>
<!-- Node21 -->
<g id="Node000021" class="node">
<title>Node21</title>
<g id="a_Node000021"><a xlink:href="_flow_reference_b_c_8h.html" target="_top" xlink:title="model::FlowReferenceBC source file">
<polygon fill="white" stroke="#666666" points="1583.75,-318 1452.25,-318 1452.25,-298.75 1583.75,-298.75 1583.75,-318"/>
<text text-anchor="middle" x="1518" y="-304.5" font-family="Helvetica,sans-Serif" font-size="10.00">model/FlowReferenceBC.h</text>
</a>
</g>
</g>
<!-- Node2&#45;&gt;Node21 -->
<g id="edge35_Node000002_Node000021" class="edge">
<title>Node2&#45;&gt;Node21</title>
<g id="a_edge35_Node000002_Node000021"><a xlink:title=" ">
<path fill="none" stroke="#63b8ff" d="M854.19,-359.92C962.2,-353.92 1224.64,-338.42 1444,-318 1446.58,-317.76 1449.2,-317.51 1451.85,-317.24"/>
<polygon fill="#63b8ff" stroke="#63b8ff" points="854.31,-356.41 844.52,-360.45 854.7,-363.4 854.31,-356.41"/>
</a>
</g>
</g>
<!-- Node22 -->
<g id="Node000022" class="node">
<title>Node22</title>
<g id="a_Node000022"><a xlink:href="_junction_8h.html" target="_top" xlink:title="model::Junction source file">
<polygon fill="white" stroke="#666666" points="117.75,-262.75 28.25,-262.75 28.25,-243.5 117.75,-243.5 117.75,-262.75"/>
<text text-anchor="middle" x="73" y="-249.25" font-family="Helvetica,sans-Serif" font-size="10.00">model/Junction.h</text>
</a>
</g>
</g>
<!-- Node2&#45;&gt;Node22 -->
<g id="edge37_Node000002_Node000022" class="edge">
<title>Node2&#45;&gt;Node22</title>
<g id="a_edge37_Node000002_Node000022"><a xlink:title=" ">
<path fill="none" stroke="#63b8ff" d="M753.73,-361.43C607.25,-357.64 187.6,-344.56 132,-318 106.66,-305.9 87,-277.66 78.14,-263.13"/>
<polygon fill="#63b8ff" stroke="#63b8ff" points="753.42,-364.92 763.51,-361.68 753.6,-357.92 753.42,-364.92"/>
</a>
</g>
</g>
<!-- Node23 -->
<g id="Node000023" class="node">
<title>Node23</title>
<g id="a_Node000023"><a xlink:href="_open_loop_coronary_b_c_8h.html" target="_top" xlink:title="model::OpenLoopCoronaryBC source file">
<polygon fill="white" stroke="#666666" points="1095.75,-318 946.25,-318 946.25,-298.75 1095.75,-298.75 1095.75,-318"/>
<text text-anchor="middle" x="1021" y="-304.5" font-family="Helvetica,sans-Serif" font-size="10.00">model/OpenLoopCoronaryBC.h</text>
</a>
</g>
</g>
<!-- Node2&#45;&gt;Node23 -->
<g id="edge40_Node000002_Node000023" class="edge">
<title>Node2&#45;&gt;Node23</title>
<g id="a_edge40_Node000002_Node000023"><a xlink:title=" ">
<path fill="none" stroke="#63b8ff" d="M851.84,-350.88C891.66,-341.11 947.55,-327.4 984.01,-318.45"/>
<polygon fill="#63b8ff" stroke="#63b8ff" points="851.16,-347.45 842.28,-353.23 852.83,-354.25 851.16,-347.45"/>
</a>
</g>
</g>
<!-- Node24 -->
<g id="Node000024" class="node">
<title>Node24</title>
<g id="a_Node000024"><a xlink:href="_pressure_reference_b_c_8h.html" target="_top" xlink:title="model::PressureReferenceBC source file">
<polygon fill="white" stroke="#666666" points="1301.75,-318 1152.25,-318 1152.25,-298.75 1301.75,-298.75 1301.75,-318"/>
<text text-anchor="middle" x="1227" y="-304.5" font-family="Helvetica,sans-Serif" font-size="10.00">model/PressureReferenceBC.h</text>
</a>
</g>
</g>
<!-- Node2&#45;&gt;Node24 -->
<g id="edge42_Node000002_Node000024" class="edge">
<title>Node2&#45;&gt;Node24</title>
<g id="a_edge42_Node000002_Node000024"><a xlink:title=" ">
<path fill="none" stroke="#63b8ff" d="M854.43,-356.28C929.06,-346.88 1069.28,-329.23 1154.79,-318.46"/>
<polygon fill="#63b8ff" stroke="#63b8ff" points="854.02,-352.8 844.54,-357.52 854.9,-359.75 854.02,-352.8"/>
</a>
</g>
</g>
<!-- Node25 -->
<g id="Node000025" class="node">
<title>Node25</title>
<g id="a_Node000025"><a xlink:href="_resistance_b_c_8h.html" target="_top" xlink:title="model::ResistanceBC source file">
<polygon fill="white" stroke="#666666" points="1434.5,-318 1319.5,-318 1319.5,-298.75 1434.5,-298.75 1434.5,-318"/>
<text text-anchor="middle" x="1377" y="-304.5" font-family="Helvetica,sans-Serif" font-size="10.00">model/ResistanceBC.h</text>
</a>
</g>
</g>
<!-- Node2&#45;&gt;Node25 -->
<g id="edge44_Node000002_Node000025" class="edge">
<title>Node2&#45;&gt;Node25</title>
<g id="a_edge44_Node000002_Node000025"><a xlink:title=" ">
<path fill="none" stroke="#63b8ff" d="M854.55,-358.89C945.83,-351.97 1144.17,-336.23 1311,-318 1313.64,-317.71 1316.34,-317.4 1319.07,-317.09"/>
<polygon fill="#63b8ff" stroke="#63b8ff" points="854.39,-355.39 844.69,-359.63 854.92,-362.37 854.39,-355.39"/>
</a>
</g>
</g>
<!-- Node26 -->
<g id="Node000026" class="node">
<title>Node26</title>
<g id="a_Node000026"><a xlink:href="_resistive_junction_8h.html" target="_top" xlink:title="model::ResistiveJunction source file">
<polygon fill="white" stroke="#666666" points="649,-201.88 519,-201.88 519,-182.62 649,-182.62 649,-201.88"/>
<text text-anchor="middle" x="584" y="-188.38" font-family="Helvetica,sans-Serif" font-size="10.00">model/ResistiveJunction.h</text>
</a>
</g>
</g>
<!-- Node2&#45;&gt;Node26 -->
<g id="edge46_Node000002_Node000026" class="edge">
<title>Node2&#45;&gt;Node26</title>
<g id="a_edge46_Node000002_Node000026"><a xlink:title=" ">
<path fill="none" stroke="#63b8ff" d="M753.58,-355.75C667.38,-342.78 497.91,-311.54 467,-262.75 447.15,-231.42 495.65,-212.38 536.13,-202.34"/>
<polygon fill="#63b8ff" stroke="#63b8ff" points="753.02,-359.21 763.43,-357.21 754.04,-352.28 753.02,-359.21"/>
</a>
</g>
</g>
<!-- Node27 -->
<g id="Node000027" class="node">
<title>Node27</title>
<g id="a_Node000027"><a xlink:href="_valve_tanh_8h.html" target="_top" xlink:title="model::ValveTanh source file">
<polygon fill="white" stroke="#666666" points="575.62,-262.75 476.38,-262.75 476.38,-243.5 575.62,-243.5 575.62,-262.75"/>
<text text-anchor="middle" x="526" y="-249.25" font-family="Helvetica,sans-Serif" font-size="10.00">model/ValveTanh.h</text>
</a>
</g>
</g>
<!-- Node2&#45;&gt;Node27 -->
<g id="edge48_Node000002_Node000027" class="edge">
<title>Node2&#45;&gt;Node27</title>
<g id="a_edge48_Node000002_Node000027"><a xlink:title=" ">
<path fill="none" stroke="#63b8ff" d="M753.67,-355.28C716.01,-348.62 663.84,-336.9 621,-318 587.73,-303.32 553.48,-276.99 536.65,-263.16"/>
<polygon fill="#63b8ff" stroke="#63b8ff" points="752.92,-358.7 763.37,-356.93 754.1,-351.8 752.92,-358.7"/>
</a>
</g>
</g>
<!-- Node28 -->
<g id="Node000028" class="node">
<title>Node28</title>
<g id="a_Node000028"><a xlink:href="_windkessel_b_c_8h.html" target="_top" xlink:title="model::WindkesselBC source file">
<polygon fill="white" stroke="#666666" points="897.25,-201.88 780.75,-201.88 780.75,-182.62 897.25,-182.62 897.25,-201.88"/>
<text text-anchor="middle" x="839" y="-188.38" font-family="Helvetica,sans-Serif" font-size="10.00">model/WindkesselBC.h</text>
</a>
</g>
</g>
<!-- Node2&#45;&gt;Node28 -->
<g id="edge50_Node000002_Node000028" class="edge">
<title>Node2&#45;&gt;Node28</title>
<g id="a_edge50_Node000002_Node000028"><a xlink:title=" ">
<path fill="none" stroke="#63b8ff" d="M807.92,-342.66C812.59,-318.98 820.68,-278.33 828,-243.5 831.05,-228.99 834.77,-212.17 837.01,-202.14"/>
<polygon fill="#63b8ff" stroke="#63b8ff" points="804.54,-341.68 806.05,-352.16 811.41,-343.03 804.54,-341.68"/>
</a>
</g>
</g>
<!-- Node3&#45;&gt;Node4 -->
<g id="edge3_Node000003_Node000004" class="edge">
<title>Node3&#45;&gt;Node4</title>
<g id="a_edge3_Node000003_Node000004"><a xlink:title=" ">
<path fill="none" stroke="#63b8ff" d="M1082.07,-231.55C1081.77,-214.57 1078.43,-191.05 1064,-177 1038.18,-151.86 936.39,-139.96 878.97,-135.15"/>
<polygon fill="#63b8ff" stroke="#63b8ff" points="1078.57,-231.42 1081.87,-241.49 1085.57,-231.56 1078.57,-231.42"/>
</a>
</g>
</g>
<!-- Node5 -->
<g id="Node000005" class="node">
<title>Node5</title>
<g id="a_Node000005"><a xlink:href="_integrator_8h.html" target="_top" xlink:title="Integrator source file.">
<polygon fill="white" stroke="#666666" points="1016.62,-80.12 917.38,-80.12 917.38,-60.88 1016.62,-60.88 1016.62,-80.12"/>
<text text-anchor="middle" x="967" y="-66.62" font-family="Helvetica,sans-Serif" font-size="10.00">algebra/Integrator.h</text>
</a>
</g>
</g>
<!-- Node4&#45;&gt;Node5 -->
<g id="edge4_Node000004_Node000005" class="edge">
<title>Node4&#45;&gt;Node5</title>
<g id="a_edge4_Node000004_Node000005"><a xlink:title=" ">
<path fill="none" stroke="#63b8ff" d="M869.13,-116.52C893.33,-105.38 926.62,-90.07 947.47,-80.48"/>
<polygon fill="#63b8ff" stroke="#63b8ff" points="867.72,-113.31 860.09,-120.67 870.64,-119.67 867.72,-113.31"/>
</a>
</g>
</g>
<!-- Node6 -->
<g id="Node000006" class="node">
<title>Node6</title>
<g id="a_Node000006"><a xlink:href="interface_8h.html" target="_top" xlink:title="svZeroDSolver callable interface.">
<polygon fill="white" stroke="#666666" points="1132.75,-19.25 1031.25,-19.25 1031.25,0 1132.75,0 1132.75,-19.25"/>
<text text-anchor="middle" x="1082" y="-5.75" font-family="Helvetica,sans-Serif" font-size="10.00">interface/interface.h</text>
</a>
</g>
</g>
<!-- Node4&#45;&gt;Node6 -->
<g id="edge7_Node000004_Node000006" class="edge">
<title>Node4&#45;&gt;Node6</title>
<g id="a_edge7_Node000004_Node000006"><a xlink:title=" ">
<path fill="none" stroke="#63b8ff" d="M890.3,-130.43C967.18,-129.31 1106.63,-122.15 1138,-85.75 1146.85,-75.48 1143.88,-67.46 1138,-55.25 1130.28,-39.23 1113.71,-27.19 1100.59,-19.67"/>
<polygon fill="#63b8ff" stroke="#63b8ff" points="890.45,-126.93 880.49,-130.55 890.53,-133.93 890.45,-126.93"/>
</a>
</g>
</g>
<!-- Node7 -->
<g id="Node000007" class="node">
<title>Node7</title>
<g id="a_Node000007"><a xlink:href="_solver_8h.html" target="_top" xlink:title="Solver source file.">
<polygon fill="white" stroke="#666666" points="927.75,-19.25 850.25,-19.25 850.25,0 927.75,0 927.75,-19.25"/>
<text text-anchor="middle" x="889" y="-5.75" font-family="Helvetica,sans-Serif" font-size="10.00">solve/Solver.h</text>
</a>
</g>
</g>
<!-- Node4&#45;&gt;Node7 -->
<g id="edge14_Node000004_Node000007" class="edge">
<title>Node4&#45;&gt;Node7</title>
<g id="a_edge14_Node000004_Node000007"><a xlink:title=" ">
<path fill="none" stroke="#63b8ff" d="M853.6,-112.53C859.41,-104.71 865.71,-95.17 870,-85.75 880.37,-62.98 885.7,-33.64 887.84,-19.3"/>
<polygon fill="#63b8ff" stroke="#63b8ff" points="851.01,-110.16 847.63,-120.2 856.54,-114.46 851.01,-110.16"/>
</a>
</g>
</g>
<!-- Node4&#45;&gt;Node8 -->
<g id="edge8_Node000004_Node000008" class="edge">
<title>Node4&#45;&gt;Node8</title>
<g id="a_edge8_Node000004_Node000008"><a xlink:title=" ">
<path fill="none" stroke="#63b8ff" d="M787.97,-126.1C708.34,-118.8 550.27,-103.04 417,-85.75 405.05,-84.2 392.27,-82.37 380.32,-80.56"/>
<polygon fill="#63b8ff" stroke="#63b8ff" points="787.36,-129.56 797.63,-126.98 787.99,-122.59 787.36,-129.56"/>
</a>
</g>
</g>
<!-- Node9 -->
<g id="Node000009" class="node">
<title>Node9</title>
<g id="a_Node000009"><a xlink:href="_levenberg_marquardt_optimizer_8h.html" target="_top" xlink:title="opt::LevenbergMarquardtOptimizer source file">
<polygon fill="white" stroke="#666666" points="579.12,-85.75 434.88,-85.75 434.88,-55.25 579.12,-55.25 579.12,-85.75"/>
<text text-anchor="start" x="442.88" y="-72.25" font-family="Helvetica,sans-Serif" font-size="10.00">optimize/LevenbergMarquardt</text>
<text text-anchor="middle" x="507" y="-61" font-family="Helvetica,sans-Serif" font-size="10.00">Optimizer.h</text>
</a>
</g>
</g>
<!-- Node4&#45;&gt;Node9 -->
<g id="edge10_Node000004_Node000009" class="edge">
<title>Node4&#45;&gt;Node9</title>
<g id="a_edge10_Node000004_Node000009"><a xlink:title=" ">
<path fill="none" stroke="#63b8ff" d="M788.27,-121.38C732.54,-111.5 642.58,-95.54 579.43,-84.35"/>
<polygon fill="#63b8ff" stroke="#63b8ff" points="787.33,-124.77 797.79,-123.07 788.56,-117.88 787.33,-124.77"/>
</a>
</g>
</g>
<!-- Node10 -->
<g id="Node000010" class="node">
<title>Node10</title>
<g id="a_Node000010"><a xlink:href="calibrate_8h.html" target="_top" xlink:title="opt::calibrate source file">
<polygon fill="white" stroke="#666666" points="696.62,-80.12 597.38,-80.12 597.38,-60.88 696.62,-60.88 696.62,-80.12"/>
<text text-anchor="middle" x="647" y="-66.62" font-family="Helvetica,sans-Serif" font-size="10.00">optimize/calibrate.h</text>
</a>
</g>
</g>
<!-- Node4&#45;&gt;Node10 -->
<g id="edge11_Node000004_Node000010" class="edge">
<title>Node4&#45;&gt;Node10</title>
<g id="a_edge11_Node000004_Node000010"><a xlink:title=" ">
<path fill="none" stroke="#63b8ff" d="M798.67,-118.01C762.19,-106.82 709.32,-90.61 676.61,-80.58"/>
<polygon fill="#63b8ff" stroke="#63b8ff" points="797.39,-121.28 807.97,-120.86 799.44,-114.58 797.39,-121.28"/>
</a>
</g>
</g>
<!-- Node11 -->
<g id="Node000011" class="node">
<title>Node11</title>
<g id="a_Node000011"><a xlink:href="_simulation_parameters_8h.html" target="_top" xlink:title="Source file to read simulation configuration.">
<polygon fill="white" stroke="#666666" points="860.88,-80.12 715.12,-80.12 715.12,-60.88 860.88,-60.88 860.88,-80.12"/>
<text text-anchor="middle" x="788" y="-66.62" font-family="Helvetica,sans-Serif" font-size="10.00">solve/SimulationParameters.h</text>
</a>
</g>
</g>
<!-- Node4&#45;&gt;Node11 -->
<g id="edge12_Node000004_Node000011" class="edge">
<title>Node4&#45;&gt;Node11</title>
<g id="a_edge12_Node000004_Node000011"><a xlink:title=" ">
<path fill="none" stroke="#63b8ff" d="M823.87,-112.91C814.65,-102.27 803.26,-89.11 795.82,-80.53"/>
<polygon fill="#63b8ff" stroke="#63b8ff" points="821.07,-115.02 830.26,-120.29 826.36,-110.44 821.07,-115.02"/>
</a>
</g>
</g>
<!-- Node12 -->
<g id="Node000012" class="node">
<title>Node12</title>
<g id="a_Node000012"><a xlink:href="csv__writer_8h.html" target="_top" xlink:title="csv_writer source file">
<polygon fill="white" stroke="#666666" points="1129.38,-80.12 1034.62,-80.12 1034.62,-60.88 1129.38,-60.88 1129.38,-80.12"/>
<text text-anchor="middle" x="1082" y="-66.62" font-family="Helvetica,sans-Serif" font-size="10.00">solve/csv_writer.h</text>
</a>
</g>
</g>
<!-- Node4&#45;&gt;Node12 -->
<g id="edge15_Node000004_Node000012" class="edge">
<title>Node4&#45;&gt;Node12</title>
<g id="a_edge15_Node000004_Node000012"><a xlink:title=" ">
<path fill="none" stroke="#63b8ff" d="M888.9,-118.68C926.6,-109.79 979.6,-97.19 1026,-85.75 1032.72,-84.09 1039.89,-82.29 1046.77,-80.55"/>
<polygon fill="#63b8ff" stroke="#63b8ff" points="888.13,-115.27 879.19,-120.97 889.73,-122.08 888.13,-115.27"/>
</a>
</g>
</g>
<!-- Node5&#45;&gt;Node6 -->
<g id="edge5_Node000005_Node000006" class="edge">
<title>Node5&#45;&gt;Node6</title>
<g id="a_edge5_Node000005_Node000006"><a xlink:title=" ">
<path fill="none" stroke="#63b8ff" d="M994.69,-55.33C1016.35,-44.24 1045.81,-29.15 1064.37,-19.65"/>
<polygon fill="#63b8ff" stroke="#63b8ff" points="993.12,-52.2 985.81,-59.87 996.31,-58.43 993.12,-52.2"/>
</a>
</g>
</g>
<!-- Node5&#45;&gt;Node7 -->
<g id="edge6_Node000005_Node000007" class="edge">
<title>Node5&#45;&gt;Node7</title>
<g id="a_edge6_Node000005_Node000007"><a xlink:title=" ">
<path fill="none" stroke="#63b8ff" d="M945.97,-53.63C931.54,-42.73 912.91,-28.67 900.96,-19.65"/>
<polygon fill="#63b8ff" stroke="#63b8ff" points="943.86,-56.42 953.95,-59.65 948.07,-50.83 943.86,-56.42"/>
</a>
</g>
</g>
<!-- Node8&#45;&gt;Node4 -->
<g id="edge9_Node000008_Node000004" class="edge">
<title>Node8&#45;&gt;Node4</title>
<g id="a_edge9_Node000008_Node000004"><a xlink:title=" ">
<path fill="none" stroke="#63b8ff" d="M409.47,-82.24C418.1,-83.48 426.75,-84.68 435,-85.75 568.38,-103.06 726.62,-118.83 799.22,-126.12"/>
<polygon fill="#63b8ff" stroke="#63b8ff" points="410.05,-78.79 399.65,-80.81 409.05,-85.71 410.05,-78.79"/>
</a>
</g>
</g>
<!-- Node11&#45;&gt;Node7 -->
<g id="edge13_Node000011_Node000007" class="edge">
<title>Node11&#45;&gt;Node7</title>
<g id="a_edge13_Node000011_Node000007"><a xlink:title=" ">
<path fill="none" stroke="#63b8ff" d="M813.1,-54.87C832.05,-43.82 857.44,-29.02 873.52,-19.65"/>
<polygon fill="#63b8ff" stroke="#63b8ff" points="811.52,-51.74 804.65,-59.8 815.05,-57.78 811.52,-51.74"/>
</a>
</g>
</g>
<!-- Node12&#45;&gt;Node6 -->
<g id="edge16_Node000012_Node000006" class="edge">
<title>Node12&#45;&gt;Node6</title>
<g id="a_edge16_Node000012_Node000006"><a xlink:title=" ">
<path fill="none" stroke="#63b8ff" d="M1082,-49.07C1082,-39.04 1082,-27.46 1082,-19.65"/>
<polygon fill="#63b8ff" stroke="#63b8ff" points="1078.5,-49.04 1082,-59.04 1085.5,-49.04 1078.5,-49.04"/>
</a>
</g>
</g>
<!-- Node13&#45;&gt;Node4 -->
<g id="edge20_Node000013_Node000004" class="edge">
<title>Node13&#45;&gt;Node4</title>
<g id="a_edge20_Node000013_Node000004"><a xlink:title=" ">
<path fill="none" stroke="#63b8ff" d="M653.84,-292.95C633.1,-280.93 611.26,-262.74 623,-243.5 641.22,-213.64 662.91,-225.35 693,-207.5 713.78,-195.17 716.86,-188.71 738,-177 763.49,-162.88 794.32,-149.8 815.16,-141.5"/>
<polygon fill="#63b8ff" stroke="#63b8ff" points="651.98,-295.93 662.44,-297.61 655.31,-289.77 651.98,-295.93"/>
</a>
</g>
</g>
<!-- Node13&#45;&gt;Node14 -->
<g id="edge18_Node000013_Node000014" class="edge">
<title>Node13&#45;&gt;Node14</title>
<g id="a_edge18_Node000013_Node000014"><a xlink:title=" ">
<path fill="none" stroke="#63b8ff" d="M691.28,-288C694.47,-279.49 698.07,-269.9 700.63,-263.11"/>
<polygon fill="#63b8ff" stroke="#63b8ff" points="688.07,-286.57 687.83,-297.16 694.63,-289.03 688.07,-286.57"/>
</a>
</g>
</g>
<!-- Node14&#45;&gt;Node4 -->
<g id="edge19_Node000014_Node000004" class="edge">
<title>Node14&#45;&gt;Node4</title>
<g id="a_edge19_Node000014_Node000004"><a xlink:title=" ">
<path fill="none" stroke="#63b8ff" d="M718,-234.28C731.03,-218.29 751.47,-194.69 772,-177 788.2,-163.04 808.97,-149.83 823.06,-141.45"/>
<polygon fill="#63b8ff" stroke="#63b8ff" points="715.38,-231.96 711.86,-241.96 720.84,-236.34 715.38,-231.96"/>
</a>
</g>
</g>
<!-- Node15&#45;&gt;Node4 -->
<g id="edge24_Node000015_Node000004" class="edge">
<title>Node15&#45;&gt;Node4</title>
<g id="a_edge24_Node000015_Node000004"><a xlink:title=" ">
<path fill="none" stroke="#63b8ff" d="M945.22,-177.69C919.07,-166.54 882.73,-151.03 860.06,-141.36"/>
<polygon fill="#63b8ff" stroke="#63b8ff" points="943.78,-180.88 954.35,-181.59 946.52,-174.44 943.78,-180.88"/>
</a>
</g>
</g>
<!-- Node17 -->
<g id="Node000017" class="node">
<title>Node17</title>
<g id="a_Node000017"><a xlink:href="_closed_loop_coronary_left_b_c_8h.html" target="_top" xlink:title="Left side of ClosedLoopCoronaryBC.">
<polygon fill="white" stroke="#666666" points="347.62,-207.5 212.38,-207.5 212.38,-177 347.62,-177 347.62,-207.5"/>
<text text-anchor="start" x="220.38" y="-194" font-family="Helvetica,sans-Serif" font-size="10.00">model/ClosedLoopCoronary</text>
<text text-anchor="middle" x="280" y="-182.75" font-family="Helvetica,sans-Serif" font-size="10.00">LeftBC.h</text>
</a>
</g>
</g>
<!-- Node16&#45;&gt;Node17 -->
<g id="edge26_Node000016_Node000017" class="edge">
<title>Node16&#45;&gt;Node17</title>
<g id="a_edge26_Node000016_Node000017"><a xlink:title=" ">
<path fill="none" stroke="#63b8ff" d="M306.73,-233.6C301.21,-225.27 294.79,-215.58 289.63,-207.78"/>
<polygon fill="#63b8ff" stroke="#63b8ff" points="303.8,-235.52 312.24,-241.92 309.64,-231.65 303.8,-235.52"/>
</a>
</g>
</g>
<!-- Node18 -->
<g id="Node000018" class="node">
<title>Node18</title>
<g id="a_Node000018"><a xlink:href="_closed_loop_coronary_right_b_c_8h.html" target="_top" xlink:title="Right side of ClosedLoopCoronaryBC.">
<polygon fill="white" stroke="#666666" points="500.62,-207.5 365.38,-207.5 365.38,-177 500.62,-177 500.62,-207.5"/>
<text text-anchor="start" x="373.38" y="-194" font-family="Helvetica,sans-Serif" font-size="10.00">model/ClosedLoopCoronary</text>
<text text-anchor="middle" x="433" y="-182.75" font-family="Helvetica,sans-Serif" font-size="10.00">RightBC.h</text>
</a>
</g>
</g>
<!-- Node16&#45;&gt;Node18 -->
<g id="edge28_Node000016_Node000018" class="edge">
<title>Node16&#45;&gt;Node18</title>
<g id="a_edge28_Node000016_Node000018"><a xlink:title=" ">
<path fill="none" stroke="#63b8ff" d="M346.05,-238.16C363.78,-229 386.91,-217.05 404.86,-207.78"/>
<polygon fill="#63b8ff" stroke="#63b8ff" points="344.94,-234.79 337.66,-242.49 348.15,-241.01 344.94,-234.79"/>
</a>
</g>
</g>
<!-- Node17&#45;&gt;Node4 -->
<g id="edge27_Node000017_Node000004" class="edge">
<title>Node17&#45;&gt;Node4</title>
<g id="a_edge27_Node000017_Node000004"><a xlink:title=" ">
<path fill="none" stroke="#63b8ff" d="M359.26,-176.62C528.26,-153.53 718.07,-139.99 799.1,-134.8"/>
<polygon fill="#63b8ff" stroke="#63b8ff" points="358.83,-173.15 349.4,-177.99 359.79,-180.08 358.83,-173.15"/>
</a>
</g>
</g>
<!-- Node18&#45;&gt;Node4 -->
<g id="edge29_Node000018_Node000004" class="edge">
<title>Node18&#45;&gt;Node4</title>
<g id="a_edge29_Node000018_Node000004"><a xlink:title=" ">
<path fill="none" stroke="#63b8ff" d="M512.28,-176.68C622.12,-159.3 739.24,-144.47 799.15,-137.15"/>
<polygon fill="#63b8ff" stroke="#63b8ff" points="511.81,-173.22 502.48,-178.25 512.91,-180.13 511.81,-173.22"/>
</a>
</g>
</g>
<!-- Node19&#45;&gt;Node4 -->
<g id="edge32_Node000019_Node000004" class="edge">
<title>Node19&#45;&gt;Node4</title>
<g id="a_edge32_Node000019_Node000004"><a xlink:title=" ">
<path fill="none" stroke="#63b8ff" d="M268.4,-292.51C256.23,-284.78 242.28,-274.49 232,-262.75 205.5,-232.48 175.57,-206.43 203,-177 243.66,-133.38 666.55,-131.58 799.34,-132.1"/>
<polygon fill="#63b8ff" stroke="#63b8ff" points="266.42,-295.4 276.78,-297.6 270.05,-289.42 266.42,-295.4"/>
</a>
</g>
</g>
<!-- Node19&#45;&gt;Node16 -->
<g id="edge31_Node000019_Node000016" class="edge">
<title>Node19&#45;&gt;Node16</title>
<g id="a_edge31_Node000019_Node000016"><a xlink:title=" ">
<path fill="none" stroke="#63b8ff" d="M303.6,-288.29C307.47,-279.71 311.85,-269.98 314.95,-263.11"/>
<polygon fill="#63b8ff" stroke="#63b8ff" points="300.5,-286.65 299.59,-297.2 306.88,-289.52 300.5,-286.65"/>
</a>
</g>
</g>
<!-- Node20&#45;&gt;Node4 -->
<g id="edge34_Node000020_Node000004" class="edge">
<title>Node20&#45;&gt;Node4</title>
<g id="a_edge34_Node000020_Node000004"><a xlink:title=" ">
<path fill="none" stroke="#63b8ff" d="M1003.39,-239.37C1020.39,-232.76 1036.82,-222.72 1047,-207.5 1054.54,-196.23 1055.52,-187.54 1047,-177 1026.28,-151.36 933.33,-139.78 878.95,-135.12"/>
<polygon fill="#63b8ff" stroke="#63b8ff" points="1002.5,-235.97 994.2,-242.57 1004.8,-242.59 1002.5,-235.97"/>
</a>
</g>
</g>
<!-- Node21&#45;&gt;Node4 -->
<g id="edge36_Node000021_Node000004" class="edge">
<title>Node21&#45;&gt;Node4</title>
<g id="a_edge36_Node000021_Node000004"><a xlink:title=" ">
<path fill="none" stroke="#63b8ff" d="M1496.35,-291.94C1455.39,-263.64 1362.78,-203.89 1275,-177 1201.43,-154.47 971.97,-139.68 878.86,-134.47"/>
<polygon fill="#63b8ff" stroke="#63b8ff" points="1494.18,-294.69 1504.38,-297.55 1498.19,-288.95 1494.18,-294.69"/>
</a>
</g>
</g>
<!-- Node22&#45;&gt;Node4 -->
<g id="edge38_Node000022_Node000004" class="edge">
<title>Node22&#45;&gt;Node4</title>
<g id="a_edge38_Node000022_Node000004"><a xlink:title=" ">
<path fill="none" stroke="#63b8ff" d="M82.08,-232.97C91.72,-215.03 108.77,-189.21 132,-177 191.12,-145.92 659.06,-135.45 799.37,-133"/>
<polygon fill="#63b8ff" stroke="#63b8ff" points="79,-231.31 77.62,-241.81 85.25,-234.46 79,-231.31"/>
</a>
</g>
</g>
<!-- Node23&#45;&gt;Node4 -->
<g id="edge41_Node000023_Node000004" class="edge">
<title>Node23&#45;&gt;Node4</title>
<g id="a_edge41_Node000023_Node000004"><a xlink:title=" ">
<path fill="none" stroke="#63b8ff" d="M1097.33,-295.5C1128.66,-286.46 1155.46,-270.71 1145,-243.5 1130.72,-206.34 1119.78,-196.37 1085,-177 1019.21,-140.36 929.6,-132.89 878.68,-131.88"/>
<polygon fill="#63b8ff" stroke="#63b8ff" points="1096.83,-292.01 1088.04,-297.93 1098.6,-298.79 1096.83,-292.01"/>
</a>
</g>
</g>
<!-- Node24&#45;&gt;Node4 -->
<g id="edge43_Node000024_Node000004" class="edge">
<title>Node24&#45;&gt;Node4</title>
<g id="a_edge43_Node000024_Node000004"><a xlink:title=" ">
<path fill="none" stroke="#63b8ff" d="M1232.15,-287.65C1238.29,-259.09 1244.47,-206.45 1216,-177 1192.84,-153.04 970.96,-139.09 878.82,-134.28"/>
<polygon fill="#63b8ff" stroke="#63b8ff" points="1228.81,-286.58 1229.89,-297.12 1235.62,-288.2 1228.81,-286.58"/>
</a>
</g>
</g>
<!-- Node25&#45;&gt;Node4 -->
<g id="edge45_Node000025_Node000004" class="edge">
<title>Node25&#45;&gt;Node4</title>
<g id="a_edge45_Node000025_Node000004"><a xlink:title=" ">
<path fill="none" stroke="#63b8ff" d="M1364.06,-289.28C1341.97,-259.96 1293.89,-202.8 1238,-177 1174.71,-147.79 966.78,-136.98 878.84,-133.65"/>
<polygon fill="#63b8ff" stroke="#63b8ff" points="1361.12,-291.19 1369.87,-297.17 1366.76,-287.04 1361.12,-291.19"/>
</a>
</g>
</g>
<!-- Node26&#45;&gt;Node4 -->
<g id="edge47_Node000026_Node000004" class="edge">
<title>Node26&#45;&gt;Node4</title>
<g id="a_edge47_Node000026_Node000004"><a xlink:title=" ">
<path fill="none" stroke="#63b8ff" d="M634.47,-179.6C682.98,-168.4 755.29,-151.7 799.67,-141.46"/>
<polygon fill="#63b8ff" stroke="#63b8ff" points="633.72,-176.18 624.76,-181.84 635.29,-183 633.72,-176.18"/>
</a>
</g>
</g>
<!-- Node27&#45;&gt;Node4 -->
<g id="edge49_Node000027_Node000004" class="edge">
<title>Node27&#45;&gt;Node4</title>
<g id="a_edge49_Node000027_Node000004"><a xlink:title=" ">
<path fill="none" stroke="#63b8ff" d="M572.89,-239.9C598.73,-232.27 630.97,-221.28 658,-207.5 678.87,-196.86 680.06,-187.5 701,-177 733.07,-160.91 772.2,-148.91 800.59,-141.43"/>
<polygon fill="#63b8ff" stroke="#63b8ff" points="571.97,-236.52 563.32,-242.64 573.9,-243.25 571.97,-236.52"/>
</a>
</g>
</g>
<!-- Node28&#45;&gt;Node4 -->
<g id="edge51_Node000028_Node000004" class="edge">
<title>Node28&#45;&gt;Node4</title>
<g id="a_edge51_Node000028_Node000004"><a xlink:title=" ">
<path fill="none" stroke="#63b8ff" d="M839,-170.82C839,-160.79 839,-149.21 839,-141.4"/>
<polygon fill="#63b8ff" stroke="#63b8ff" points="835.5,-170.79 839,-180.79 842.5,-170.79 835.5,-170.79"/>
</a>
</g>
</g>
<!-- Node29&#45;&gt;Node4 -->
<g id="edge54_Node000029_Node000004" class="edge">
<title>Node29&#45;&gt;Node4</title>
<g id="a_edge54_Node000029_Node000004"><a xlink:title=" ">
<path fill="none" stroke="#63b8ff" d="M1128.99,-343.05C1132.45,-330.28 1137.43,-313.33 1143,-298.75 1149.32,-282.22 1156.13,-280.02 1160,-262.75 1169.24,-221.53 1154.14,-200.44 1119,-177 1080.35,-151.22 946.48,-139.2 878.81,-134.66"/>
<polygon fill="#63b8ff" stroke="#63b8ff" points="1125.71,-341.78 1126.55,-352.34 1132.48,-343.56 1125.71,-341.78"/>
</a>
</g>
</g>
<!-- Node30&#45;&gt;Node2 -->
<g id="edge56_Node000030_Node000002" class="edge">
<title>Node30&#45;&gt;Node2</title>
<g id="a_edge56_Node000030_Node000002"><a xlink:title=" ">
<path fill="none" stroke="#63b8ff" d="M1167.79,-410.31C1079.57,-399.23 917.62,-378.89 843.24,-369.55"/>
<polygon fill="#63b8ff" stroke="#63b8ff" points="1167.09,-413.75 1177.45,-411.53 1167.96,-406.81 1167.09,-413.75"/>
</a>
</g>
</g>
<!-- Node30&#45;&gt;Node4 -->
<g id="edge58_Node000030_Node000004" class="edge">
<title>Node30&#45;&gt;Node4</title>
<g id="a_edge58_Node000030_Node000004"><a xlink:title=" ">
<path fill="none" stroke="#63b8ff" d="M1288.4,-413.36C1396.53,-403.59 1612,-375.8 1612,-309.38 1612,-309.38 1612,-309.38 1612,-252.12 1612,-177.18 1037.22,-142.44 878.93,-134.3"/>
<polygon fill="#63b8ff" stroke="#63b8ff" points="1288.19,-409.86 1278.53,-414.22 1288.8,-416.83 1288.19,-409.86"/>
</a>
</g>
</g>
<!-- Node30&#45;&gt;Node21 -->
<g id="edge57_Node000030_Node000021" class="edge">
<title>Node30&#45;&gt;Node21</title>
<g id="a_edge57_Node000030_Node000021"><a xlink:title=" ">
<path fill="none" stroke="#63b8ff" d="M1262.96,-404.8C1322.53,-382.51 1442.24,-337.72 1493.64,-318.49"/>
<polygon fill="#63b8ff" stroke="#63b8ff" points="1261.78,-401.5 1253.64,-408.28 1264.24,-408.05 1261.78,-401.5"/>
</a>
</g>
</g>
<!-- Node30&#45;&gt;Node23 -->
<g id="edge59_Node000030_Node000023" class="edge">
<title>Node30&#45;&gt;Node23</title>
<g id="a_edge59_Node000030_Node000023"><a xlink:title=" ">
<path fill="none" stroke="#63b8ff" d="M1216.05,-399.68C1205.73,-385.31 1189.58,-365.8 1171,-354 1142.79,-336.09 1107.06,-325.09 1077.55,-318.49"/>
<polygon fill="#63b8ff" stroke="#63b8ff" points="1213.08,-401.53 1221.63,-407.79 1218.85,-397.57 1213.08,-401.53"/>
</a>
</g>
</g>
<!-- Node30&#45;&gt;Node24 -->
<g id="edge60_Node000030_Node000024" class="edge">
<title>Node30&#45;&gt;Node24</title>
<g id="a_edge60_Node000030_Node000024"><a xlink:title=" ">
<path fill="none" stroke="#63b8ff" d="M1227.81,-397.53C1227.59,-373.8 1227.24,-335.64 1227.08,-318.38"/>
<polygon fill="#63b8ff" stroke="#63b8ff" points="1224.31,-397.52 1227.9,-407.48 1231.31,-397.45 1224.31,-397.52"/>
</a>
</g>
</g>
<!-- Node30&#45;&gt;Node25 -->
<g id="edge61_Node000030_Node000025" class="edge">
<title>Node30&#45;&gt;Node25</title>
<g id="a_edge61_Node000030_Node000025"><a xlink:title=" ">
<path fill="none" stroke="#63b8ff" d="M1249.34,-402.33C1280.99,-379.29 1339.33,-336.8 1364.69,-318.34"/>
<polygon fill="#63b8ff" stroke="#63b8ff" points="1247.69,-399.2 1241.67,-407.92 1251.82,-404.86 1247.69,-399.2"/>
</a>
</g>
</g>
</g>
</svg>
