<?xml version="1.0" encoding="UTF-8" standalone="no"?>
<!DOCTYPE svg PUBLIC "-//W3C//DTD SVG 1.1//EN"
 "http://www.w3.org/Graphics/SVG/1.1/DTD/svg11.dtd">
<!-- Generated by graphviz version 9.0.0 (20230911.1827)
 -->
<!-- Title: model/DOFHandler.h Pages: 1 -->
<svg width="1534pt" height="370pt"
 viewBox="0.00 0.00 1534.20 370.00" xmlns="http://www.w3.org/2000/svg" xmlns:xlink="http://www.w3.org/1999/xlink">
<g id="graph0" class="graph" transform="scale(1 1) rotate(0) translate(4 366)">
<title>model/DOFHandler.h</title>
<!-- Node1 -->
<g id="Node000001" class="node">
<title>Node1</title>
<g id="a_Node000001"><a xlink:title="model::DOFHandler source file">
<polygon fill="#999999" stroke="#666666" points="925.57,-362 818.82,-362 818.82,-342.75 925.57,-342.75 925.57,-362"/>
<text text-anchor="middle" x="872.2" y="-348.5" font-family="Helvetica,sans-Serif" font-size="10.00">model/DOFHandler.h</text>
</a>
</g>
</g>
<!-- Node2 -->
<g id="Node000002" class="node">
<title>Node2</title>
<g id="a_Node000002"><a xlink:href="_block_8h.html" target="_top" xlink:title="model::Block source file">
<polygon fill="white" stroke="#666666" points="724.95,-306.75 647.45,-306.75 647.45,-287.5 724.95,-287.5 724.95,-306.75"/>
<text text-anchor="middle" x="686.2" y="-293.25" font-family="Helvetica,sans-Serif" font-size="10.00">model/Block.h</text>
</a>
</g>
</g>
<!-- Node1&#45;&gt;Node2 -->
<g id="edge1_Node000001_Node000002" class="edge">
<title>Node1&#45;&gt;Node2</title>
<g id="a_edge1_Node000001_Node000002"><a xlink:title=" ">
<path fill="none" stroke="#63b8ff" d="M829.64,-339.19C795.62,-329.45 748.69,-316.02 717.9,-307.2"/>
<polygon fill="#63b8ff" stroke="#63b8ff" points="828.61,-342.54 839.19,-341.93 830.54,-335.81 828.61,-342.54"/>
</a>
</g>
</g>
<!-- Node5 -->
<g id="Node000005" class="node">
<title>Node5</title>
<g id="a_Node000005"><a xlink:href="_model_8h.html" target="_top" xlink:title="model::Model source file">
<polygon fill="white" stroke="#666666" points="760.7,-141 681.7,-141 681.7,-121.75 760.7,-121.75 760.7,-141"/>
<text text-anchor="middle" x="721.2" y="-127.5" font-family="Helvetica,sans-Serif" font-size="10.00">model/Model.h</text>
</a>
</g>
</g>
<!-- Node1&#45;&gt;Node5 -->
<g id="edge40_Node000001_Node000005" class="edge">
<title>Node1&#45;&gt;Node5</title>
<g id="a_edge40_Node000001_Node000005"><a xlink:title=" ">
<path fill="none" stroke="#63b8ff" d="M807.07,-350.69C621.84,-347.17 99.26,-325.74 4.2,-196.25 -0.87,-189.35 -1.66,-183.23 4.2,-177 27.54,-152.16 533.93,-137.2 681.3,-133.36"/>
<polygon fill="#63b8ff" stroke="#63b8ff" points="806.94,-354.19 817,-350.87 807.07,-347.19 806.94,-354.19"/>
</a>
</g>
</g>
<!-- Node23 -->
<g id="Node000023" class="node">
<title>Node23</title>
<g id="a_Node000023"><a xlink:href="_node_8h.html" target="_top" xlink:title="model::Node source file">
<polygon fill="white" stroke="#666666" points="1526.2,-196.25 1450.2,-196.25 1450.2,-177 1526.2,-177 1526.2,-196.25"/>
<text text-anchor="middle" x="1488.2" y="-182.75" font-family="Helvetica,sans-Serif" font-size="10.00">model/Node.h</text>
</a>
</g>
</g>
<!-- Node1&#45;&gt;Node23 -->
<g id="edge41_Node000001_Node000023" class="edge">
<title>Node1&#45;&gt;Node23</title>
<g id="a_edge41_Node000001_Node000023"><a xlink:title=" ">
<path fill="none" stroke="#63b8ff" d="M937.23,-351.59C1043.9,-349.39 1260.04,-334.06 1419.2,-251.5 1445.86,-237.67 1469.84,-210.72 1481.22,-196.66"/>
<polygon fill="#63b8ff" stroke="#63b8ff" points="937.47,-348.09 927.53,-351.76 937.59,-355.09 937.47,-348.09"/>
</a>
</g>
</g>
<!-- Node24 -->
<g id="Node000024" class="node">
<title>Node24</title>
<g id="a_Node000024"><a xlink:href="_parameter_8h.html" target="_top" xlink:title="model::Parameter source file">
<polygon fill="white" stroke="#666666" points="1151.07,-306.75 1053.32,-306.75 1053.32,-287.5 1151.07,-287.5 1151.07,-306.75"/>
<text text-anchor="middle" x="1102.2" y="-293.25" font-family="Helvetica,sans-Serif" font-size="10.00">model/Parameter.h</text>
</a>
</g>
</g>
<!-- Node1&#45;&gt;Node24 -->
<g id="edge43_Node000001_Node000024" class="edge">
<title>Node1&#45;&gt;Node24</title>
<g id="a_edge43_Node000001_Node000024"><a xlink:title=" ">
<path fill="none" stroke="#63b8ff" d="M922.63,-339.7C964.89,-329.91 1024.35,-316.15 1063.08,-307.18"/>
<polygon fill="#63b8ff" stroke="#63b8ff" points="921.9,-336.27 912.95,-341.94 923.48,-343.09 921.9,-336.27"/>
</a>
</g>
</g>
<!-- Node3 -->
<g id="Node000003" class="node">
<title>Node3</title>
<g id="a_Node000003"><a xlink:href="_blood_vessel_8h.html" target="_top" xlink:title="model::BloodVessel source file">
<polygon fill="white" stroke="#666666" points="698.95,-251.5 591.45,-251.5 591.45,-232.25 698.95,-232.25 698.95,-251.5"/>
<text text-anchor="middle" x="645.2" y="-238" font-family="Helvetica,sans-Serif" font-size="10.00">model/BloodVessel.h</text>
</a>
</g>
</g>
<!-- Node2&#45;&gt;Node3 -->
<g id="edge2_Node000002_Node000003" class="edge">
<title>Node2&#45;&gt;Node3</title>
<g id="a_edge2_Node000002_Node000003"><a xlink:title=" ">
<path fill="none" stroke="#63b8ff" d="M672.61,-278.47C665.74,-269.56 657.7,-259.12 652.11,-251.86"/>
<polygon fill="#63b8ff" stroke="#63b8ff" points="669.63,-280.34 678.5,-286.13 675.17,-276.07 669.63,-280.34"/>
</a>
</g>
</g>
<!-- Node4 -->
<g id="Node000004" class="node">
<title>Node4</title>
<g id="a_Node000004"><a xlink:href="_blood_vessel_junction_8h.html" target="_top" xlink:title="model::BloodVesselJunction source file">
<polygon fill="white" stroke="#666666" points="843.32,-196.25 699.07,-196.25 699.07,-177 843.32,-177 843.32,-196.25"/>
<text text-anchor="middle" x="771.2" y="-182.75" font-family="Helvetica,sans-Serif" font-size="10.00">model/BloodVesselJunction.h</text>
</a>
</g>
</g>
<!-- Node2&#45;&gt;Node4 -->
<g id="edge17_Node000002_Node000004" class="edge">
<title>Node2&#45;&gt;Node4</title>
<g id="a_edge17_Node000002_Node000004"><a xlink:title=" ">
<path fill="none" stroke="#63b8ff" d="M700.12,-278.35C718.49,-254.91 750.12,-214.53 764.14,-196.63"/>
<polygon fill="#63b8ff" stroke="#63b8ff" points="697.5,-276.02 694.08,-286.05 703.01,-280.34 697.5,-276.02"/>
</a>
</g>
</g>
<!-- Node2&#45;&gt;Node5 -->
<g id="edge29_Node000002_Node000005" class="edge">
<title>Node2&#45;&gt;Node5</title>
<g id="a_edge29_Node000002_Node000005"><a xlink:title=" ">
<path fill="none" stroke="#63b8ff" d="M636.31,-284.79C614.95,-277.96 590.9,-267.4 573.2,-251.5 546.76,-227.76 522.36,-205.03 544.2,-177 560.9,-155.56 634.66,-142.82 681.53,-136.74"/>
<polygon fill="#63b8ff" stroke="#63b8ff" points="635.16,-288.09 645.74,-287.59 637.16,-281.38 635.16,-288.09"/>
</a>
</g>
</g>
<!-- Node13 -->
<g id="Node000013" class="node">
<title>Node13</title>
<g id="a_Node000013"><a xlink:href="_closed_loop_coronary_b_c_8h.html" target="_top" xlink:title="model::ClosedLoopCoronaryBC source file">
<polygon fill="white" stroke="#666666" points="497.32,-196.25 341.07,-196.25 341.07,-177 497.32,-177 497.32,-196.25"/>
<text text-anchor="middle" x="419.2" y="-182.75" font-family="Helvetica,sans-Serif" font-size="10.00">model/ClosedLoopCoronaryBC.h</text>
</a>
</g>
</g>
<!-- Node2&#45;&gt;Node13 -->
<g id="edge18_Node000002_Node000013" class="edge">
<title>Node2&#45;&gt;Node13</title>
<g id="a_edge18_Node000002_Node000013"><a xlink:title=" ">
<path fill="none" stroke="#63b8ff" d="M635.8,-288.22C599.94,-281.42 551.22,-269.77 511.2,-251.5 478.83,-236.72 445.72,-210.43 429.48,-196.64"/>
<polygon fill="#63b8ff" stroke="#63b8ff" points="635.01,-291.63 645.48,-289.98 636.27,-284.74 635.01,-291.63"/>
</a>
</g>
</g>
<!-- Node14 -->
<g id="Node000014" class="node">
<title>Node14</title>
<g id="a_Node000014"><a xlink:href="_closed_loop_heart_pulmonary_8h.html" target="_top" xlink:title="model::ClosedLoopHeartPulmonary source file">
<polygon fill="white" stroke="#666666" points="459.32,-251.5 285.07,-251.5 285.07,-232.25 459.32,-232.25 459.32,-251.5"/>
<text text-anchor="middle" x="372.2" y="-238" font-family="Helvetica,sans-Serif" font-size="10.00">model/ClosedLoopHeartPulmonary.h</text>
</a>
</g>
</g>
<!-- Node2&#45;&gt;Node14 -->
<g id="edge20_Node000002_Node000014" class="edge">
<title>Node2&#45;&gt;Node14</title>
<g id="a_edge20_Node000002_Node000014"><a xlink:title=" ">
<path fill="none" stroke="#63b8ff" d="M636.07,-287.62C578.57,-277.87 484.67,-261.95 425.77,-251.96"/>
<polygon fill="#63b8ff" stroke="#63b8ff" points="635.13,-291.01 645.57,-289.24 636.3,-284.11 635.13,-291.01"/>
</a>
</g>
</g>
<!-- Node15 -->
<g id="Node000015" class="node">
<title>Node15</title>
<g id="a_Node000015"><a xlink:href="_closed_loop_r_c_r_b_c_8h.html" target="_top" xlink:title="model::ClosedLoopRCRBC source file">
<polygon fill="white" stroke="#666666" points="285.32,-196.25 147.07,-196.25 147.07,-177 285.32,-177 285.32,-196.25"/>
<text text-anchor="middle" x="216.2" y="-182.75" font-family="Helvetica,sans-Serif" font-size="10.00">model/ClosedLoopRCRBC.h</text>
</a>
</g>
</g>
<!-- Node2&#45;&gt;Node15 -->
<g id="edge23_Node000002_Node000015" class="edge">
<title>Node2&#45;&gt;Node15</title>
<g id="a_edge23_Node000002_Node000015"><a xlink:title=" ">
<path fill="none" stroke="#63b8ff" d="M635.8,-294.97C540.57,-292.08 338.17,-282.4 276.2,-251.5 250.87,-238.87 230.67,-210.88 221.52,-196.51"/>
<polygon fill="#63b8ff" stroke="#63b8ff" points="635.53,-298.46 645.63,-295.25 635.73,-291.47 635.53,-298.46"/>
</a>
</g>
</g>
<!-- Node16 -->
<g id="Node000016" class="node">
<title>Node16</title>
<g id="a_Node000016"><a xlink:href="_flow_reference_b_c_8h.html" target="_top" xlink:title="model::FlowReferenceBC source file">
<polygon fill="white" stroke="#666666" points="924.95,-251.5 793.45,-251.5 793.45,-232.25 924.95,-232.25 924.95,-251.5"/>
<text text-anchor="middle" x="859.2" y="-238" font-family="Helvetica,sans-Serif" font-size="10.00">model/FlowReferenceBC.h</text>
</a>
</g>
</g>
<!-- Node2&#45;&gt;Node16 -->
<g id="edge25_Node000002_Node000016" class="edge">
<title>Node2&#45;&gt;Node16</title>
<g id="a_edge25_Node000002_Node000016"><a xlink:title=" ">
<path fill="none" stroke="#63b8ff" d="M726.19,-283.82C757.8,-274.09 801.2,-260.73 829.7,-251.95"/>
<polygon fill="#63b8ff" stroke="#63b8ff" points="725.52,-280.36 716.99,-286.65 727.58,-287.05 725.52,-280.36"/>
</a>
</g>
</g>
<!-- Node17 -->
<g id="Node000017" class="node">
<title>Node17</title>
<g id="a_Node000017"><a xlink:href="_junction_8h.html" target="_top" xlink:title="model::Junction source file">
<polygon fill="white" stroke="#666666" points="642.95,-196.25 553.45,-196.25 553.45,-177 642.95,-177 642.95,-196.25"/>
<text text-anchor="middle" x="598.2" y="-182.75" font-family="Helvetica,sans-Serif" font-size="10.00">model/Junction.h</text>
</a>
</g>
</g>
<!-- Node2&#45;&gt;Node17 -->
<g id="edge27_Node000002_Node000017" class="edge">
<title>Node2&#45;&gt;Node17</title>
<g id="a_edge27_Node000002_Node000017"><a xlink:title=" ">
<path fill="none" stroke="#63b8ff" d="M636.39,-287.22C616.01,-280.85 594.38,-269.99 582.2,-251.5 570.87,-234.32 583.38,-209.72 591.81,-196.63"/>
<polygon fill="#63b8ff" stroke="#63b8ff" points="635.17,-290.51 645.74,-289.82 637.05,-283.77 635.17,-290.51"/>
</a>
</g>
</g>
<!-- Node18 -->
<g id="Node000018" class="node">
<title>Node18</title>
<g id="a_Node000018"><a xlink:href="_open_loop_coronary_b_c_8h.html" target="_top" xlink:title="model::OpenLoopCoronaryBC source file">
<polygon fill="white" stroke="#666666" points="1092.95,-251.5 943.45,-251.5 943.45,-232.25 1092.95,-232.25 1092.95,-251.5"/>
<text text-anchor="middle" x="1018.2" y="-238" font-family="Helvetica,sans-Serif" font-size="10.00">model/OpenLoopCoronaryBC.h</text>
</a>
</g>
</g>
<!-- Node2&#45;&gt;Node18 -->
<g id="edge30_Node000002_Node000018" class="edge">
<title>Node2&#45;&gt;Node18</title>
<g id="a_edge30_Node000002_Node000018"><a xlink:title=" ">
<path fill="none" stroke="#63b8ff" d="M736.42,-288.07C796.93,-278.36 898.32,-262.1 961.55,-251.96"/>
<polygon fill="#63b8ff" stroke="#63b8ff" points="736.07,-284.58 726.75,-289.62 737.18,-291.49 736.07,-284.58"/>
</a>
</g>
</g>
<!-- Node19 -->
<g id="Node000019" class="node">
<title>Node19</title>
<g id="a_Node000019"><a xlink:href="_pressure_reference_b_c_8h.html" target="_top" xlink:title="model::PressureReferenceBC source file">
<polygon fill="white" stroke="#666666" points="1260.95,-251.5 1111.45,-251.5 1111.45,-232.25 1260.95,-232.25 1260.95,-251.5"/>
<text text-anchor="middle" x="1186.2" y="-238" font-family="Helvetica,sans-Serif" font-size="10.00">model/PressureReferenceBC.h</text>
</a>
</g>
</g>
<!-- Node2&#45;&gt;Node19 -->
<g id="edge32_Node000002_Node000019" class="edge">
<title>Node2&#45;&gt;Node19</title>
<g id="a_edge32_Node000002_Node000019"><a xlink:title=" ">
<path fill="none" stroke="#63b8ff" d="M736.75,-290.74C825.13,-281.33 1008.14,-261.84 1111.29,-250.85"/>
<polygon fill="#63b8ff" stroke="#63b8ff" points="736.51,-287.25 726.93,-291.79 737.25,-294.21 736.51,-287.25"/>
</a>
</g>
</g>
<!-- Node20 -->
<g id="Node000020" class="node">
<title>Node20</title>
<g id="a_Node000020"><a xlink:href="_resistance_b_c_8h.html" target="_top" xlink:title="model::ResistanceBC source file">
<polygon fill="white" stroke="#666666" points="1393.7,-251.5 1278.7,-251.5 1278.7,-232.25 1393.7,-232.25 1393.7,-251.5"/>
<text text-anchor="middle" x="1336.2" y="-238" font-family="Helvetica,sans-Serif" font-size="10.00">model/ResistanceBC.h</text>
</a>
</g>
</g>
<!-- Node2&#45;&gt;Node20 -->
<g id="edge34_Node000002_Node000020" class="edge">
<title>Node2&#45;&gt;Node20</title>
<g id="a_edge34_Node000002_Node000020"><a xlink:title=" ">
<path fill="none" stroke="#63b8ff" d="M736.6,-293.19C837.87,-287.08 1073.18,-271.89 1270.2,-251.5 1272.84,-251.23 1275.54,-250.93 1278.27,-250.62"/>
<polygon fill="#63b8ff" stroke="#63b8ff" points="736.5,-289.69 726.73,-293.78 736.92,-296.67 736.5,-289.69"/>
</a>
</g>
</g>
<!-- Node21 -->
<g id="Node000021" class="node">
<title>Node21</title>
<g id="a_Node000021"><a xlink:href="_resistive_junction_8h.html" target="_top" xlink:title="model::ResistiveJunction source file">
<polygon fill="white" stroke="#666666" points="991.2,-196.25 861.2,-196.25 861.2,-177 991.2,-177 991.2,-196.25"/>
<text text-anchor="middle" x="926.2" y="-182.75" font-family="Helvetica,sans-Serif" font-size="10.00">model/ResistiveJunction.h</text>
</a>
</g>
</g>
<!-- Node2&#45;&gt;Node21 -->
<g id="edge36_Node000002_Node000021" class="edge">
<title>Node2&#45;&gt;Node21</title>
<g id="a_edge36_Node000002_Node000021"><a xlink:title=" ">
<path fill="none" stroke="#63b8ff" d="M706.63,-280.41C725.81,-266.27 755.73,-245.69 784.2,-232.25 817.73,-216.42 858.29,-204.31 887.46,-196.73"/>
<polygon fill="#63b8ff" stroke="#63b8ff" points="704.76,-277.45 698.86,-286.25 708.96,-283.05 704.76,-277.45"/>
</a>
</g>
</g>
<!-- Node22 -->
<g id="Node000022" class="node">
<title>Node22</title>
<g id="a_Node000022"><a xlink:href="_windkessel_b_c_8h.html" target="_top" xlink:title="model::WindkesselBC source file">
<polygon fill="white" stroke="#666666" points="129.45,-196.25 12.95,-196.25 12.95,-177 129.45,-177 129.45,-196.25"/>
<text text-anchor="middle" x="71.2" y="-182.75" font-family="Helvetica,sans-Serif" font-size="10.00">model/WindkesselBC.h</text>
</a>
</g>
</g>
<!-- Node2&#45;&gt;Node22 -->
<g id="edge38_Node000002_Node000022" class="edge">
<title>Node2&#45;&gt;Node22</title>
<g id="a_edge38_Node000002_Node000022"><a xlink:title=" ">
<path fill="none" stroke="#63b8ff" d="M635.5,-294.97C553.24,-292.21 386,-282.89 248.2,-251.5 189.43,-238.12 123.43,-210.85 91.15,-196.66"/>
<polygon fill="#63b8ff" stroke="#63b8ff" points="635.39,-298.47 645.5,-295.29 635.61,-291.47 635.39,-298.47"/>
</a>
</g>
</g>
<!-- Node3&#45;&gt;Node4 -->
<g id="edge3_Node000003_Node000004" class="edge">
<title>Node3&#45;&gt;Node4</title>
<g id="a_edge3_Node000003_Node000004"><a xlink:title=" ">
<path fill="none" stroke="#63b8ff" d="M677.08,-227.4C699.81,-217.79 729.77,-205.13 749.72,-196.7"/>
<polygon fill="#63b8ff" stroke="#63b8ff" points="675.81,-224.14 667.96,-231.25 678.54,-230.58 675.81,-224.14"/>
</a>
</g>
</g>
<!-- Node3&#45;&gt;Node5 -->
<g id="edge16_Node000003_Node000005" class="edge">
<title>Node3&#45;&gt;Node5</title>
<g id="a_edge16_Node000003_Node000005"><a xlink:title=" ">
<path fill="none" stroke="#63b8ff" d="M657.87,-222.79C674.32,-199.3 702.4,-159.2 714.89,-141.38"/>
<polygon fill="#63b8ff" stroke="#63b8ff" points="655.15,-220.56 652.28,-230.76 660.89,-224.57 655.15,-220.56"/>
</a>
</g>
</g>
<!-- Node4&#45;&gt;Node5 -->
<g id="edge4_Node000004_Node000005" class="edge">
<title>Node4&#45;&gt;Node5</title>
<g id="a_edge4_Node000004_Node000005"><a xlink:title=" ">
<path fill="none" stroke="#63b8ff" d="M755.15,-168.54C746.67,-159.5 736.59,-148.77 729.63,-141.36"/>
<polygon fill="#63b8ff" stroke="#63b8ff" points="752.51,-170.83 761.9,-175.73 757.61,-166.04 752.51,-170.83"/>
</a>
</g>
</g>
<!-- Node6 -->
<g id="Node000006" class="node">
<title>Node6</title>
<g id="a_Node000006"><a xlink:href="_integrator_8h.html" target="_top" xlink:title="Integrator source file.">
<polygon fill="white" stroke="#666666" points="629.82,-80.12 530.57,-80.12 530.57,-60.88 629.82,-60.88 629.82,-80.12"/>
<text text-anchor="middle" x="580.2" y="-66.62" font-family="Helvetica,sans-Serif" font-size="10.00">algebra/Integrator.h</text>
</a>
</g>
</g>
<!-- Node5&#45;&gt;Node6 -->
<g id="edge5_Node000005_Node000006" class="edge">
<title>Node5&#45;&gt;Node6</title>
<g id="a_edge5_Node000005_Node000006"><a xlink:title=" ">
<path fill="none" stroke="#63b8ff" d="M689.09,-116.97C662.34,-105.8 624.98,-90.2 601.71,-80.48"/>
<polygon fill="#63b8ff" stroke="#63b8ff" points="687.5,-120.1 698.08,-120.72 690.2,-113.64 687.5,-120.1"/>
</a>
</g>
</g>
<!-- Node7 -->
<g id="Node000007" class="node">
<title>Node7</title>
<g id="a_Node000007"><a xlink:href="interface_8h.html" target="_top" xlink:title="svZeroDSolver callable interface.">
<polygon fill="white" stroke="#666666" points="552.95,-19.25 451.45,-19.25 451.45,0 552.95,0 552.95,-19.25"/>
<text text-anchor="middle" x="502.2" y="-5.75" font-family="Helvetica,sans-Serif" font-size="10.00">interface/interface.h</text>
</a>
</g>
</g>
<!-- Node5&#45;&gt;Node7 -->
<g id="edge8_Node000005_Node000007" class="edge">
<title>Node5&#45;&gt;Node7</title>
<g id="a_edge8_Node000005_Node000007"><a xlink:title=" ">
<path fill="none" stroke="#63b8ff" d="M670.02,-125.06C617.96,-118.62 542.06,-106.04 521.2,-85.75 502.96,-68.03 501.3,-35.52 501.67,-19.73"/>
<polygon fill="#63b8ff" stroke="#63b8ff" points="669.54,-128.53 679.88,-126.24 670.37,-121.58 669.54,-128.53"/>
</a>
</g>
</g>
<!-- Node8 -->
<g id="Node000008" class="node">
<title>Node8</title>
<g id="a_Node000008"><a xlink:href="_solver_8h.html" target="_top" xlink:title="Solver source file.">
<polygon fill="white" stroke="#666666" points="759.95,-19.25 682.45,-19.25 682.45,0 759.95,0 759.95,-19.25"/>
<text text-anchor="middle" x="721.2" y="-5.75" font-family="Helvetica,sans-Serif" font-size="10.00">solve/Solver.h</text>
</a>
</g>
</g>
<!-- Node5&#45;&gt;Node8 -->
<g id="edge13_Node000005_Node000008" class="edge">
<title>Node5&#45;&gt;Node8</title>
<g id="a_edge13_Node000005_Node000008"><a xlink:title=" ">
<path fill="none" stroke="#63b8ff" d="M765.26,-116.83C779.96,-109.97 794.73,-99.99 803.2,-85.75 810.12,-74.1 810.12,-66.9 803.2,-55.25 792.68,-37.56 772.42,-26.43 754.67,-19.72"/>
<polygon fill="#63b8ff" stroke="#63b8ff" points="763.92,-113.59 756.06,-120.69 766.64,-120.05 763.92,-113.59"/>
</a>
</g>
</g>
<!-- Node9 -->
<g id="Node000009" class="node">
<title>Node9</title>
<g id="a_Node000009"><a xlink:href="_levenberg_marquardt_optimizer_8h.html" target="_top" xlink:title="opt::LevenbergMarquardtOptimizer source file">
<polygon fill="white" stroke="#666666" points="994.32,-85.75 850.07,-85.75 850.07,-55.25 994.32,-55.25 994.32,-85.75"/>
<text text-anchor="start" x="858.07" y="-72.25" font-family="Helvetica,sans-Serif" font-size="10.00">optimize/LevenbergMarquardt</text>
<text text-anchor="middle" x="922.2" y="-61" font-family="Helvetica,sans-Serif" font-size="10.00">Optimizer.h</text>
</a>
</g>
</g>
<!-- Node5&#45;&gt;Node9 -->
<g id="edge9_Node000005_Node000009" class="edge">
<title>Node5&#45;&gt;Node9</title>
<g id="a_edge9_Node000005_Node000009"><a xlink:title=" ">
<path fill="none" stroke="#63b8ff" d="M762.84,-118.18C794.57,-108.88 838.37,-96.05 872.03,-86.19"/>
<polygon fill="#63b8ff" stroke="#63b8ff" points="762.23,-114.71 753.61,-120.88 764.19,-121.43 762.23,-114.71"/>
</a>
</g>
</g>
<!-- Node10 -->
<g id="Node000010" class="node">
<title>Node10</title>
<g id="a_Node000010"><a xlink:href="calibrate_8h.html" target="_top" xlink:title="opt::calibrate source file">
<polygon fill="white" stroke="#666666" points="1111.82,-80.12 1012.57,-80.12 1012.57,-60.88 1111.82,-60.88 1111.82,-80.12"/>
<text text-anchor="middle" x="1062.2" y="-66.62" font-family="Helvetica,sans-Serif" font-size="10.00">optimize/calibrate.h</text>
</a>
</g>
</g>
<!-- Node5&#45;&gt;Node10 -->
<g id="edge10_Node000005_Node000010" class="edge">
<title>Node5&#45;&gt;Node10</title>
<g id="a_edge10_Node000005_Node000010"><a xlink:title=" ">
<path fill="none" stroke="#63b8ff" d="M772.23,-123.55C828.88,-115.69 922.93,-101.77 1003.2,-85.75 1010.84,-84.22 1019,-82.39 1026.73,-80.55"/>
<polygon fill="#63b8ff" stroke="#63b8ff" points="772,-120.05 762.57,-124.88 772.95,-126.99 772,-120.05"/>
</a>
</g>
</g>
<!-- Node11 -->
<g id="Node000011" class="node">
<title>Node11</title>
<g id="a_Node000011"><a xlink:href="_simulation_parameters_8h_source.html" target="_top" xlink:title=" ">
<polygon fill="white" stroke="#666666" points="794.07,-80.12 648.32,-80.12 648.32,-60.88 794.07,-60.88 794.07,-80.12"/>
<text text-anchor="middle" x="721.2" y="-66.62" font-family="Helvetica,sans-Serif" font-size="10.00">solve/SimulationParameters.h</text>
</a>
</g>
</g>
<!-- Node5&#45;&gt;Node11 -->
<g id="edge11_Node000005_Node000011" class="edge">
<title>Node5&#45;&gt;Node11</title>
<g id="a_edge11_Node000005_Node000011"><a xlink:title=" ">
<path fill="none" stroke="#63b8ff" d="M721.2,-109.95C721.2,-99.92 721.2,-88.33 721.2,-80.53"/>
<polygon fill="#63b8ff" stroke="#63b8ff" points="717.7,-109.92 721.2,-119.92 724.7,-109.92 717.7,-109.92"/>
</a>
</g>
</g>
<!-- Node12 -->
<g id="Node000012" class="node">
<title>Node12</title>
<g id="a_Node000012"><a xlink:href="csv__writer_8h.html" target="_top" xlink:title="csv_writer source file">
<polygon fill="white" stroke="#666666" points="474.57,-80.12 379.82,-80.12 379.82,-60.88 474.57,-60.88 474.57,-80.12"/>
<text text-anchor="middle" x="427.2" y="-66.62" font-family="Helvetica,sans-Serif" font-size="10.00">solve/csv_writer.h</text>
</a>
</g>
</g>
<!-- Node5&#45;&gt;Node12 -->
<g id="edge14_Node000005_Node000012" class="edge">
<title>Node5&#45;&gt;Node12</title>
<g id="a_edge14_Node000005_Node000012"><a xlink:title=" ">
<path fill="none" stroke="#63b8ff" d="M670.36,-121.25C623.07,-112.61 550.72,-99.04 488.2,-85.75 480.64,-84.15 472.59,-82.33 464.89,-80.56"/>
<polygon fill="#63b8ff" stroke="#63b8ff" points="669.57,-124.66 680.03,-123.01 670.82,-117.77 669.57,-124.66"/>
</a>
</g>
</g>
<!-- Node6&#45;&gt;Node7 -->
<g id="edge6_Node000006_Node000007" class="edge">
<title>Node6&#45;&gt;Node7</title>
<g id="a_edge6_Node000006_Node000007"><a xlink:title=" ">
<path fill="none" stroke="#63b8ff" d="M559.16,-53.63C544.73,-42.73 526.11,-28.67 514.15,-19.65"/>
<polygon fill="#63b8ff" stroke="#63b8ff" points="557.05,-56.42 567.14,-59.65 561.27,-50.83 557.05,-56.42"/>
</a>
</g>
</g>
<!-- Node6&#45;&gt;Node8 -->
<g id="edge7_Node000006_Node000008" class="edge">
<title>Node6&#45;&gt;Node8</title>
<g id="a_edge7_Node000006_Node000008"><a xlink:title=" ">
<path fill="none" stroke="#63b8ff" d="M612.3,-56.09C639.05,-44.92 676.41,-29.33 699.68,-19.61"/>
<polygon fill="#63b8ff" stroke="#63b8ff" points="611.19,-52.76 603.31,-59.85 613.89,-59.22 611.19,-52.76"/>
</a>
</g>
</g>
<!-- Node11&#45;&gt;Node8 -->
<g id="edge12_Node000011_Node000008" class="edge">
<title>Node11&#45;&gt;Node8</title>
<g id="a_edge12_Node000011_Node000008"><a xlink:title=" ">
<path fill="none" stroke="#63b8ff" d="M721.2,-49.07C721.2,-39.04 721.2,-27.46 721.2,-19.65"/>
<polygon fill="#63b8ff" stroke="#63b8ff" points="717.7,-49.04 721.2,-59.04 724.7,-49.04 717.7,-49.04"/>
</a>
</g>
</g>
<!-- Node12&#45;&gt;Node7 -->
<g id="edge15_Node000012_Node000007" class="edge">
<title>Node12&#45;&gt;Node7</title>
<g id="a_edge15_Node000012_Node000007"><a xlink:title=" ">
<path fill="none" stroke="#63b8ff" d="M447.42,-53.63C461.29,-42.73 479.2,-28.67 490.7,-19.65"/>
<polygon fill="#63b8ff" stroke="#63b8ff" points="445.48,-50.7 439.78,-59.62 449.8,-56.2 445.48,-50.7"/>
</a>
</g>
</g>
<!-- Node13&#45;&gt;Node5 -->
<g id="edge19_Node000013_Node000005" class="edge">
<title>Node13&#45;&gt;Node5</title>
<g id="a_edge19_Node000013_Node000005"><a xlink:title=" ">
<path fill="none" stroke="#63b8ff" d="M481.99,-174.55C541.98,-163.97 630.57,-148.36 681.41,-139.39"/>
<polygon fill="#63b8ff" stroke="#63b8ff" points="481.5,-171.09 472.26,-176.27 482.71,-177.98 481.5,-171.09"/>
</a>
</g>
</g>
<!-- Node14&#45;&gt;Node5 -->
<g id="edge22_Node000014_Node000005" class="edge">
<title>Node14&#45;&gt;Node5</title>
<g id="a_edge22_Node000014_Node000005"><a xlink:title=" ">
<path fill="none" stroke="#63b8ff" d="M350.47,-224.52C335.03,-210.96 319.16,-191.61 332.2,-177 355.19,-151.22 586.88,-138.25 681.38,-133.99"/>
<polygon fill="#63b8ff" stroke="#63b8ff" points="348.16,-227.16 358.11,-230.8 352.6,-221.75 348.16,-227.16"/>
</a>
</g>
</g>
<!-- Node14&#45;&gt;Node13 -->
<g id="edge21_Node000014_Node000013" class="edge">
<title>Node14&#45;&gt;Node13</title>
<g id="a_edge21_Node000014_Node000013"><a xlink:title=" ">
<path fill="none" stroke="#63b8ff" d="M387.52,-223.51C395.45,-214.53 404.79,-203.95 411.27,-196.61"/>
<polygon fill="#63b8ff" stroke="#63b8ff" points="384.95,-221.13 380.96,-230.95 390.2,-225.77 384.95,-221.13"/>
</a>
</g>
</g>
<!-- Node15&#45;&gt;Node5 -->
<g id="edge24_Node000015_Node000005" class="edge">
<title>Node15&#45;&gt;Node5</title>
<g id="a_edge24_Node000015_Node000005"><a xlink:title=" ">
<path fill="none" stroke="#63b8ff" d="M296.95,-177.11C406.67,-165.54 598.64,-145.3 681.39,-136.57"/>
<polygon fill="#63b8ff" stroke="#63b8ff" points="296.7,-173.62 287.12,-178.15 297.44,-180.58 296.7,-173.62"/>
</a>
</g>
</g>
<!-- Node16&#45;&gt;Node5 -->
<g id="edge26_Node000016_Node000005" class="edge">
<title>Node16&#45;&gt;Node5</title>
<g id="a_edge26_Node000016_Node000005"><a xlink:title=" ">
<path fill="none" stroke="#63b8ff" d="M936.23,-230.77C981.05,-221.71 1024.36,-205.34 1000.2,-177 969.92,-141.49 830.55,-134.12 760.96,-132.67"/>
<polygon fill="#63b8ff" stroke="#63b8ff" points="935.81,-227.29 926.64,-232.59 937.12,-234.17 935.81,-227.29"/>
</a>
</g>
</g>
<!-- Node17&#45;&gt;Node5 -->
<g id="edge28_Node000017_Node000005" class="edge">
<title>Node17&#45;&gt;Node5</title>
<g id="a_edge28_Node000017_Node000005"><a xlink:title=" ">
<path fill="none" stroke="#63b8ff" d="M629.62,-172.02C651.78,-162.43 680.84,-149.84 700.23,-141.45"/>
<polygon fill="#63b8ff" stroke="#63b8ff" points="628.24,-168.81 620.45,-175.99 631.02,-175.23 628.24,-168.81"/>
</a>
</g>
</g>
<!-- Node18&#45;&gt;Node5 -->
<g id="edge31_Node000018_Node000005" class="edge">
<title>Node18&#45;&gt;Node5</title>
<g id="a_edge31_Node000018_Node000005"><a xlink:title=" ">
<path fill="none" stroke="#63b8ff" d="M1024.02,-220.84C1026.75,-206.89 1027.47,-188.75 1017.2,-177 984.31,-139.39 833.89,-133.1 761,-132.3"/>
<polygon fill="#63b8ff" stroke="#63b8ff" points="1020.68,-219.74 1021.69,-230.29 1027.48,-221.42 1020.68,-219.74"/>
</a>
</g>
</g>
<!-- Node19&#45;&gt;Node5 -->
<g id="edge33_Node000019_Node000005" class="edge">
<title>Node19&#45;&gt;Node5</title>
<g id="a_edge33_Node000019_Node000005"><a xlink:title=" ">
<path fill="none" stroke="#63b8ff" d="M1158.87,-226.87C1129.02,-212.17 1079.41,-189.5 1034.2,-177 938.17,-150.45 820.97,-139.12 760.89,-134.77"/>
<polygon fill="#63b8ff" stroke="#63b8ff" points="1157.07,-229.88 1167.58,-231.21 1160.2,-223.62 1157.07,-229.88"/>
</a>
</g>
</g>
<!-- Node20&#45;&gt;Node5 -->
<g id="edge35_Node000020_Node000005" class="edge">
<title>Node20&#45;&gt;Node5</title>
<g id="a_edge35_Node000020_Node000005"><a xlink:title=" ">
<path fill="none" stroke="#63b8ff" d="M1293.3,-228.77C1241.85,-214.63 1152.81,-191.34 1075.2,-177 962.05,-156.09 826.72,-142.03 760.98,-135.89"/>
<polygon fill="#63b8ff" stroke="#63b8ff" points="1292.28,-232.12 1302.85,-231.41 1294.14,-225.37 1292.28,-232.12"/>
</a>
</g>
</g>
<!-- Node21&#45;&gt;Node5 -->
<g id="edge37_Node000021_Node000005" class="edge">
<title>Node21&#45;&gt;Node5</title>
<g id="a_edge37_Node000021_Node000005"><a xlink:title=" ">
<path fill="none" stroke="#63b8ff" d="M880.76,-173.82C843.15,-164.05 790.51,-150.38 756.14,-141.45"/>
<polygon fill="#63b8ff" stroke="#63b8ff" points="879.4,-177.08 889.95,-176.21 881.16,-170.31 879.4,-177.08"/>
</a>
</g>
</g>
<!-- Node22&#45;&gt;Node5 -->
<g id="edge39_Node000022_Node000005" class="edge">
<title>Node22&#45;&gt;Node5</title>
<g id="a_edge39_Node000022_Node000005"><a xlink:title=" ">
<path fill="none" stroke="#63b8ff" d="M140.86,-176.78C350.48,-155.56 588.29,-140.33 681.2,-134.72"/>
<polygon fill="#63b8ff" stroke="#63b8ff" points="140.74,-173.27 131.15,-177.77 141.45,-180.23 140.74,-173.27"/>
</a>
</g>
</g>
<!-- Node23&#45;&gt;Node5 -->
<g id="edge42_Node000023_Node000005" class="edge">
<title>Node23&#45;&gt;Node5</title>
<g id="a_edge42_Node000023_Node000005"><a xlink:title=" ">
<path fill="none" stroke="#63b8ff" d="M1438.72,-177.3C1437.87,-177.19 1437.03,-177.1 1436.2,-177 1179.78,-147.81 869.29,-136.62 760.85,-133.43"/>
<polygon fill="#63b8ff" stroke="#63b8ff" points="1438.04,-180.74 1448.42,-178.62 1438.98,-173.8 1438.04,-180.74"/>
</a>
</g>
</g>
<!-- Node24&#45;&gt;Node5 -->
<g id="edge45_Node000024_Node000005" class="edge">
<title>Node24&#45;&gt;Node5</title>
<g id="a_edge45_Node000024_Node000005"><a xlink:title=" ">
<path fill="none" stroke="#63b8ff" d="M1162.67,-296.1C1241.46,-294.62 1372.77,-286.77 1403.2,-251.5 1408.78,-245.02 1408.61,-238.88 1403.2,-232.25 1362.13,-181.97 900.65,-145.17 761,-135.12"/>
<polygon fill="#63b8ff" stroke="#63b8ff" points="1162.9,-292.59 1152.96,-296.25 1163.01,-299.59 1162.9,-292.59"/>
</a>
</g>
</g>
<!-- Node24&#45;&gt;Node16 -->
<g id="edge44_Node000024_Node000016" class="edge">
<title>Node24&#45;&gt;Node16</title>
<g id="a_edge44_Node000024_Node000016"><a xlink:title=" ">
<path fill="none" stroke="#63b8ff" d="M1049.48,-284.57C1004.8,-274.78 941.61,-260.94 900.52,-251.93"/>
<polygon fill="#63b8ff" stroke="#63b8ff" points="1048.7,-287.99 1059.22,-286.71 1050.2,-281.15 1048.7,-287.99"/>
</a>
</g>
</g>
<!-- Node24&#45;&gt;Node18 -->
<g id="edge46_Node000024_Node000018" class="edge">
<title>Node24&#45;&gt;Node18</title>
<g id="a_edge46_Node000024_Node000018"><a xlink:title=" ">
<path fill="none" stroke="#63b8ff" d="M1078.42,-281.05C1063.63,-271.67 1045.09,-259.92 1032.51,-251.95"/>
<polygon fill="#63b8ff" stroke="#63b8ff" points="1076.35,-283.88 1086.67,-286.28 1080.1,-277.97 1076.35,-283.88"/>
</a>
</g>
</g>
<!-- Node24&#45;&gt;Node19 -->
<g id="edge47_Node000024_Node000019" class="edge">
<title>Node24&#45;&gt;Node19</title>
<g id="a_edge47_Node000024_Node000019"><a xlink:title=" ">
<path fill="none" stroke="#63b8ff" d="M1125.97,-281.05C1140.77,-271.67 1159.3,-259.92 1171.88,-251.95"/>
<polygon fill="#63b8ff" stroke="#63b8ff" points="1124.29,-277.97 1117.72,-286.28 1128.04,-283.88 1124.29,-277.97"/>
</a>
</g>
</g>
<!-- Node24&#45;&gt;Node20 -->
<g id="edge48_Node000024_Node000020" class="edge">
<title>Node24&#45;&gt;Node20</title>
<g id="a_edge48_Node000024_Node000020"><a xlink:title=" ">
<path fill="none" stroke="#63b8ff" d="M1153.23,-284.51C1196.24,-274.72 1256.92,-260.92 1296.4,-251.93"/>
<polygon fill="#63b8ff" stroke="#63b8ff" points="1152.61,-281.06 1143.63,-286.7 1154.16,-287.89 1152.61,-281.06"/>
</a>
</g>
</g>
</g>
</svg>
