<?xml version="1.0" encoding="UTF-8" standalone="no"?>
<!DOCTYPE svg PUBLIC "-//W3C//DTD SVG 1.1//EN"
 "http://www.w3.org/Graphics/SVG/1.1/DTD/svg11.dtd">
<!-- Generated by graphviz version 9.0.0 (20230911.1827)
 -->
<!-- Title: model/DOFHandler.h Pages: 1 -->
<svg width="1654pt" height="492pt"
 viewBox="0.00 0.00 1654.00 491.75" xmlns="http://www.w3.org/2000/svg" xmlns:xlink="http://www.w3.org/1999/xlink">
<g id="graph0" class="graph" transform="scale(1 1) rotate(0) translate(4 487.75)">
<title>model/DOFHandler.h</title>
<!-- Node1 -->
<g id="Node000001" class="node">
<title>Node1</title>
<g id="a_Node000001"><a xlink:title="model::DOFHandler source file">
<polygon fill="#999999" stroke="#666666" points="1123.38,-483.75 1016.62,-483.75 1016.62,-464.5 1123.38,-464.5 1123.38,-483.75"/>
<text text-anchor="middle" x="1070" y="-470.25" font-family="Helvetica,sans-Serif" font-size="10.00">model/DOFHandler.h</text>
</a>
</g>
</g>
<!-- Node2 -->
<g id="Node000002" class="node">
<title>Node2</title>
<g id="a_Node000002"><a xlink:href="_block_8h.html" target="_top" xlink:title="model::Block source file">
<polygon fill="white" stroke="#666666" points="848.75,-373.25 771.25,-373.25 771.25,-354 848.75,-354 848.75,-373.25"/>
<text text-anchor="middle" x="810" y="-359.75" font-family="Helvetica,sans-Serif" font-size="10.00">model/Block.h</text>
</a>
</g>
</g>
<!-- Node1&#45;&gt;Node2 -->
<g id="edge1_Node000001_Node000002" class="edge">
<title>Node1&#45;&gt;Node2</title>
<g id="a_edge1_Node000001_Node000002"><a xlink:title=" ">
<path fill="none" stroke="#63b8ff" d="M1037.99,-459.77C984.36,-437.39 877.73,-392.89 831.84,-373.74"/>
<polygon fill="#63b8ff" stroke="#63b8ff" points="1036.31,-462.86 1046.88,-463.48 1039,-456.4 1036.31,-462.86"/>
</a>
</g>
</g>
<!-- Node4 -->
<g id="Node000004" class="node">
<title>Node4</title>
<g id="a_Node000004"><a xlink:href="_model_8h.html" target="_top" xlink:title="model::Model source file">
<polygon fill="white" stroke="#666666" points="852.5,-141 773.5,-141 773.5,-121.75 852.5,-121.75 852.5,-141"/>
<text text-anchor="middle" x="813" y="-127.5" font-family="Helvetica,sans-Serif" font-size="10.00">model/Model.h</text>
</a>
</g>
</g>
<!-- Node1&#45;&gt;Node4 -->
<g id="edge47_Node000001_Node000004" class="edge">
<title>Node1&#45;&gt;Node4</title>
<g id="a_edge47_Node000001_Node000004"><a xlink:title=" ">
<path fill="none" stroke="#63b8ff" d="M1004.92,-473.39C772.91,-473.49 0,-466.19 0,-364.62 0,-364.62 0,-364.62 0,-252.12 0,-201.71 38.42,-196.29 85,-177 148.69,-150.63 630.74,-136.83 773.37,-133.3"/>
<polygon fill="#63b8ff" stroke="#63b8ff" points="1004.7,-476.89 1014.69,-473.38 1004.69,-469.89 1004.7,-476.89"/>
</a>
</g>
</g>
<!-- Node27 -->
<g id="Node000027" class="node">
<title>Node27</title>
<g id="a_Node000027"><a xlink:href="_node_8h.html" target="_top" xlink:title="model::Node source file">
<polygon fill="white" stroke="#666666" points="1646,-373.25 1570,-373.25 1570,-354 1646,-354 1646,-373.25"/>
<text text-anchor="middle" x="1608" y="-359.75" font-family="Helvetica,sans-Serif" font-size="10.00">model/Node.h</text>
</a>
</g>
</g>
<!-- Node1&#45;&gt;Node27 -->
<g id="edge48_Node000001_Node000027" class="edge">
<title>Node1&#45;&gt;Node27</title>
<g id="a_edge48_Node000001_Node000027"><a xlink:title=" ">
<path fill="none" stroke="#63b8ff" d="M1126.09,-461.81C1235.82,-439.68 1476.3,-391.19 1569.77,-372.33"/>
<polygon fill="#63b8ff" stroke="#63b8ff" points="1125.54,-458.35 1116.43,-463.76 1126.92,-465.22 1125.54,-458.35"/>
</a>
</g>
</g>
<!-- Node28 -->
<g id="Node000028" class="node">
<title>Node28</title>
<g id="a_Node000028"><a xlink:href="_parameter_8h.html" target="_top" xlink:title="model::Parameter source file">
<polygon fill="white" stroke="#666666" points="1205.88,-428.5 1108.12,-428.5 1108.12,-409.25 1205.88,-409.25 1205.88,-428.5"/>
<text text-anchor="middle" x="1157" y="-415" font-family="Helvetica,sans-Serif" font-size="10.00">model/Parameter.h</text>
</a>
</g>
</g>
<!-- Node1&#45;&gt;Node28 -->
<g id="edge50_Node000001_Node000028" class="edge">
<title>Node1&#45;&gt;Node28</title>
<g id="a_edge50_Node000001_Node000028"><a xlink:title=" ">
<path fill="none" stroke="#63b8ff" d="M1094.18,-458.32C1109.58,-448.9 1129.02,-437 1142.17,-428.95"/>
<polygon fill="#63b8ff" stroke="#63b8ff" points="1092.75,-455.1 1086.05,-463.3 1096.41,-461.07 1092.75,-455.1"/>
</a>
</g>
</g>
<!-- Node3 -->
<g id="Node000003" class="node">
<title>Node3</title>
<g id="a_Node000003"><a xlink:href="_block_factory_8h.html" target="_top" xlink:title="Define the block factory functional.">
<polygon fill="white" stroke="#666666" points="1085.88,-201.88 976.12,-201.88 976.12,-182.62 1085.88,-182.62 1085.88,-201.88"/>
<text text-anchor="middle" x="1031" y="-188.38" font-family="Helvetica,sans-Serif" font-size="10.00">model/BlockFactory.h</text>
</a>
</g>
</g>
<!-- Node2&#45;&gt;Node3 -->
<g id="edge2_Node000002_Node000003" class="edge">
<title>Node2&#45;&gt;Node3</title>
<g id="a_edge2_Node000002_Node000003"><a xlink:title=" ">
<path fill="none" stroke="#63b8ff" d="M830.87,-346.63C876.48,-311.68 983.77,-229.44 1019.33,-202.2"/>
<polygon fill="#63b8ff" stroke="#63b8ff" points="828.89,-343.74 823.08,-352.6 833.15,-349.29 828.89,-343.74"/>
</a>
</g>
</g>
<!-- Node2&#45;&gt;Node4 -->
<g id="edge34_Node000002_Node000004" class="edge">
<title>Node2&#45;&gt;Node4</title>
<g id="a_edge34_Node000002_Node000004"><a xlink:title=" ">
<path fill="none" stroke="#63b8ff" d="M808.21,-342.16C807.05,-316.77 808.62,-273.2 829,-243.5 847.03,-217.23 875.1,-235.11 891,-207.5 897.76,-195.75 897.8,-188.73 891,-177 880.82,-159.46 860.87,-148.22 843.69,-141.41"/>
<polygon fill="#63b8ff" stroke="#63b8ff" points="804.72,-342.36 808.88,-352.11 811.7,-341.89 804.72,-342.36"/>
</a>
</g>
</g>
<!-- Node12 -->
<g id="Node000012" class="node">
<title>Node12</title>
<g id="a_Node000012"><a xlink:href="_blood_vessel_8h.html" target="_top" xlink:title="model::BloodVessel source file">
<polygon fill="white" stroke="#666666" points="191.75,-318 84.25,-318 84.25,-298.75 191.75,-298.75 191.75,-318"/>
<text text-anchor="middle" x="138" y="-304.5" font-family="Helvetica,sans-Serif" font-size="10.00">model/BloodVessel.h</text>
</a>
</g>
</g>
<!-- Node2&#45;&gt;Node12 -->
<g id="edge15_Node000002_Node000012" class="edge">
<title>Node2&#45;&gt;Node12</title>
<g id="a_edge15_Node000002_Node000012"><a xlink:title=" ">
<path fill="none" stroke="#63b8ff" d="M759.53,-359.05C658.69,-351.85 425.09,-334.82 229,-318 216.98,-316.97 204.08,-315.79 191.88,-314.64"/>
<polygon fill="#63b8ff" stroke="#63b8ff" points="759.14,-362.53 769.37,-359.75 759.64,-355.55 759.14,-362.53"/>
</a>
</g>
</g>
<!-- Node13 -->
<g id="Node000013" class="node">
<title>Node13</title>
<g id="a_Node000013"><a xlink:href="_blood_vessel_junction_8h.html" target="_top" xlink:title="model::BloodVesselJunction source file">
<polygon fill="white" stroke="#666666" points="210.12,-262.75 65.88,-262.75 65.88,-243.5 210.12,-243.5 210.12,-262.75"/>
<text text-anchor="middle" x="138" y="-249.25" font-family="Helvetica,sans-Serif" font-size="10.00">model/BloodVesselJunction.h</text>
</a>
</g>
</g>
<!-- Node2&#45;&gt;Node13 -->
<g id="edge19_Node000002_Node000013" class="edge">
<title>Node2&#45;&gt;Node13</title>
<g id="a_edge19_Node000002_Node000013"><a xlink:title=" ">
<path fill="none" stroke="#63b8ff" d="M759.5,-359.39C681.21,-353.89 526,-340.99 396,-318 312.85,-303.29 216.74,-276.97 168.69,-263.16"/>
<polygon fill="#63b8ff" stroke="#63b8ff" points="759.21,-362.88 769.43,-360.08 759.69,-355.9 759.21,-362.88"/>
</a>
</g>
</g>
<!-- Node14 -->
<g id="Node000014" class="node">
<title>Node14</title>
<g id="a_Node000014"><a xlink:href="_closed_loop_coronary_b_c_8h.html" target="_top" xlink:title="model::ClosedLoopCoronaryBC source file">
<polygon fill="white" stroke="#666666" points="688.12,-262.75 531.88,-262.75 531.88,-243.5 688.12,-243.5 688.12,-262.75"/>
<text text-anchor="middle" x="610" y="-249.25" font-family="Helvetica,sans-Serif" font-size="10.00">model/ClosedLoopCoronaryBC.h</text>
</a>
</g>
</g>
<!-- Node2&#45;&gt;Node14 -->
<g id="edge20_Node000002_Node000014" class="edge">
<title>Node2&#45;&gt;Node14</title>
<g id="a_edge20_Node000002_Node000014"><a xlink:title=" ">
<path fill="none" stroke="#63b8ff" d="M759.71,-360.97C694.4,-357.64 585.83,-347.67 561,-318 545.12,-299.03 574.63,-275.76 594.35,-263.2"/>
<polygon fill="#63b8ff" stroke="#63b8ff" points="759.31,-364.45 769.46,-361.43 759.64,-357.46 759.31,-364.45"/>
</a>
</g>
</g>
<!-- Node17 -->
<g id="Node000017" class="node">
<title>Node17</title>
<g id="a_Node000017"><a xlink:href="_closed_loop_heart_pulmonary_8h.html" target="_top" xlink:title="model::ClosedLoopHeartPulmonary source file">
<polygon fill="white" stroke="#666666" points="744.12,-318 569.88,-318 569.88,-298.75 744.12,-298.75 744.12,-318"/>
<text text-anchor="middle" x="657" y="-304.5" font-family="Helvetica,sans-Serif" font-size="10.00">model/ClosedLoopHeartPulmonary.h</text>
</a>
</g>
</g>
<!-- Node2&#45;&gt;Node17 -->
<g id="edge25_Node000002_Node000017" class="edge">
<title>Node2&#45;&gt;Node17</title>
<g id="a_edge25_Node000002_Node000017"><a xlink:title=" ">
<path fill="none" stroke="#63b8ff" d="M773.53,-349.93C745.67,-340.24 707.96,-327.11 683.08,-318.45"/>
<polygon fill="#63b8ff" stroke="#63b8ff" points="772.02,-353.11 782.62,-353.09 774.32,-346.5 772.02,-353.11"/>
</a>
</g>
</g>
<!-- Node18 -->
<g id="Node000018" class="node">
<title>Node18</title>
<g id="a_Node000018"><a xlink:href="_closed_loop_r_c_r_b_c_8h.html" target="_top" xlink:title="model::ClosedLoopRCRBC source file">
<polygon fill="white" stroke="#666666" points="882.12,-201.88 743.88,-201.88 743.88,-182.62 882.12,-182.62 882.12,-201.88"/>
<text text-anchor="middle" x="813" y="-188.38" font-family="Helvetica,sans-Serif" font-size="10.00">model/ClosedLoopRCRBC.h</text>
</a>
</g>
</g>
<!-- Node2&#45;&gt;Node18 -->
<g id="edge28_Node000002_Node000018" class="edge">
<title>Node2&#45;&gt;Node18</title>
<g id="a_edge28_Node000002_Node000018"><a xlink:title=" ">
<path fill="none" stroke="#63b8ff" d="M802.38,-342.87C799.81,-335.22 797.27,-326.32 796,-318 790.99,-285.27 790.62,-276.17 796,-243.5 798.45,-228.6 804.74,-212.17 808.94,-202.28"/>
<polygon fill="#63b8ff" stroke="#63b8ff" points="799.05,-343.96 805.75,-352.17 805.64,-341.57 799.05,-343.96"/>
</a>
</g>
</g>
<!-- Node19 -->
<g id="Node000019" class="node">
<title>Node19</title>
<g id="a_Node000019"><a xlink:href="_flow_reference_b_c_8h.html" target="_top" xlink:title="model::FlowReferenceBC source file">
<polygon fill="white" stroke="#666666" points="1513.75,-318 1382.25,-318 1382.25,-298.75 1513.75,-298.75 1513.75,-318"/>
<text text-anchor="middle" x="1448" y="-304.5" font-family="Helvetica,sans-Serif" font-size="10.00">model/FlowReferenceBC.h</text>
</a>
</g>
</g>
<!-- Node2&#45;&gt;Node19 -->
<g id="edge30_Node000002_Node000019" class="edge">
<title>Node2&#45;&gt;Node19</title>
<g id="a_edge30_Node000002_Node000019"><a xlink:title=" ">
<path fill="none" stroke="#63b8ff" d="M860.32,-359.24C958.84,-352.47 1184.04,-336.35 1373,-318 1375.87,-317.72 1378.8,-317.43 1381.76,-317.12"/>
<polygon fill="#63b8ff" stroke="#63b8ff" points="860.2,-355.74 850.46,-359.91 860.67,-362.72 860.2,-355.74"/>
</a>
</g>
</g>
<!-- Node20 -->
<g id="Node000020" class="node">
<title>Node20</title>
<g id="a_Node000020"><a xlink:href="_junction_8h.html" target="_top" xlink:title="model::Junction source file">
<polygon fill="white" stroke="#666666" points="927.75,-262.75 838.25,-262.75 838.25,-243.5 927.75,-243.5 927.75,-262.75"/>
<text text-anchor="middle" x="883" y="-249.25" font-family="Helvetica,sans-Serif" font-size="10.00">model/Junction.h</text>
</a>
</g>
</g>
<!-- Node2&#45;&gt;Node20 -->
<g id="edge32_Node000002_Node000020" class="edge">
<title>Node2&#45;&gt;Node20</title>
<g id="a_edge32_Node000002_Node000020"><a xlink:title=" ">
<path fill="none" stroke="#63b8ff" d="M822.38,-344.22C838.22,-320.69 865,-280.87 876.94,-263.13"/>
<polygon fill="#63b8ff" stroke="#63b8ff" points="819.5,-342.24 816.82,-352.49 825.31,-346.15 819.5,-342.24"/>
</a>
</g>
</g>
<!-- Node21 -->
<g id="Node000021" class="node">
<title>Node21</title>
<g id="a_Node000021"><a xlink:href="_open_loop_coronary_b_c_8h.html" target="_top" xlink:title="model::OpenLoopCoronaryBC source file">
<polygon fill="white" stroke="#666666" points="1063.75,-318 914.25,-318 914.25,-298.75 1063.75,-298.75 1063.75,-318"/>
<text text-anchor="middle" x="989" y="-304.5" font-family="Helvetica,sans-Serif" font-size="10.00">model/OpenLoopCoronaryBC.h</text>
</a>
</g>
</g>
<!-- Node2&#45;&gt;Node21 -->
<g id="edge35_Node000002_Node000021" class="edge">
<title>Node2&#45;&gt;Node21</title>
<g id="a_edge35_Node000002_Node000021"><a xlink:title=" ">
<path fill="none" stroke="#63b8ff" d="M851.38,-350.32C884.08,-340.59 928.99,-327.23 958.49,-318.45"/>
<polygon fill="#63b8ff" stroke="#63b8ff" points="850.4,-346.95 841.82,-353.16 852.4,-353.66 850.4,-346.95"/>
</a>
</g>
</g>
<!-- Node22 -->
<g id="Node000022" class="node">
<title>Node22</title>
<g id="a_Node000022"><a xlink:href="_pressure_reference_b_c_8h.html" target="_top" xlink:title="model::PressureReferenceBC source file">
<polygon fill="white" stroke="#666666" points="1231.75,-318 1082.25,-318 1082.25,-298.75 1231.75,-298.75 1231.75,-318"/>
<text text-anchor="middle" x="1157" y="-304.5" font-family="Helvetica,sans-Serif" font-size="10.00">model/PressureReferenceBC.h</text>
</a>
</g>
</g>
<!-- Node2&#45;&gt;Node22 -->
<g id="edge37_Node000002_Node000022" class="edge">
<title>Node2&#45;&gt;Node22</title>
<g id="a_edge37_Node000002_Node000022"><a xlink:title=" ">
<path fill="none" stroke="#63b8ff" d="M860.35,-354.9C923.3,-345.24 1030.91,-328.72 1097.76,-318.47"/>
<polygon fill="#63b8ff" stroke="#63b8ff" points="859.98,-351.41 850.63,-356.39 861.04,-358.33 859.98,-351.41"/>
</a>
</g>
</g>
<!-- Node23 -->
<g id="Node000023" class="node">
<title>Node23</title>
<g id="a_Node000023"><a xlink:href="_resistance_b_c_8h.html" target="_top" xlink:title="model::ResistanceBC source file">
<polygon fill="white" stroke="#666666" points="1364.5,-318 1249.5,-318 1249.5,-298.75 1364.5,-298.75 1364.5,-318"/>
<text text-anchor="middle" x="1307" y="-304.5" font-family="Helvetica,sans-Serif" font-size="10.00">model/ResistanceBC.h</text>
</a>
</g>
</g>
<!-- Node2&#45;&gt;Node23 -->
<g id="edge39_Node000002_Node000023" class="edge">
<title>Node2&#45;&gt;Node23</title>
<g id="a_edge39_Node000002_Node000023"><a xlink:title=" ">
<path fill="none" stroke="#63b8ff" d="M860.23,-357.86C940.68,-350.14 1103.38,-334.11 1241,-318 1243.64,-317.69 1246.34,-317.37 1249.06,-317.04"/>
<polygon fill="#63b8ff" stroke="#63b8ff" points="860.09,-354.36 850.47,-358.8 860.76,-361.33 860.09,-354.36"/>
</a>
</g>
</g>
<!-- Node24 -->
<g id="Node000024" class="node">
<title>Node24</title>
<g id="a_Node000024"><a xlink:href="_resistive_junction_8h.html" target="_top" xlink:title="model::ResistiveJunction source file">
<polygon fill="white" stroke="#666666" points="358,-262.75 228,-262.75 228,-243.5 358,-243.5 358,-262.75"/>
<text text-anchor="middle" x="293" y="-249.25" font-family="Helvetica,sans-Serif" font-size="10.00">model/ResistiveJunction.h</text>
</a>
</g>
</g>
<!-- Node2&#45;&gt;Node24 -->
<g id="edge41_Node000002_Node000024" class="edge">
<title>Node2&#45;&gt;Node24</title>
<g id="a_edge41_Node000002_Node000024"><a xlink:title=" ">
<path fill="none" stroke="#63b8ff" d="M759.53,-359.97C690.87,-355.51 564.6,-344.27 460,-318 404.6,-304.09 342.57,-277.18 312.05,-263.14"/>
<polygon fill="#63b8ff" stroke="#63b8ff" points="759.14,-363.46 769.34,-360.59 759.58,-356.47 759.14,-363.46"/>
</a>
</g>
</g>
<!-- Node25 -->
<g id="Node000025" class="node">
<title>Node25</title>
<g id="a_Node000025"><a xlink:href="_valve_tanh_8h.html" target="_top" xlink:title="model::ValveTanh source file">
<polygon fill="white" stroke="#666666" points="475.62,-262.75 376.38,-262.75 376.38,-243.5 475.62,-243.5 475.62,-262.75"/>
<text text-anchor="middle" x="426" y="-249.25" font-family="Helvetica,sans-Serif" font-size="10.00">model/ValveTanh.h</text>
</a>
</g>
</g>
<!-- Node2&#45;&gt;Node25 -->
<g id="edge43_Node000002_Node000025" class="edge">
<title>Node2&#45;&gt;Node25</title>
<g id="a_edge43_Node000002_Node000025"><a xlink:title=" ">
<path fill="none" stroke="#63b8ff" d="M759.33,-359.48C681.39,-353.99 536.22,-340.99 490,-318 463.86,-305 441.92,-277.17 431.87,-262.92"/>
<polygon fill="#63b8ff" stroke="#63b8ff" points="759.06,-362.97 769.27,-360.16 759.54,-355.98 759.06,-362.97"/>
</a>
</g>
</g>
<!-- Node26 -->
<g id="Node000026" class="node">
<title>Node26</title>
<g id="a_Node000026"><a xlink:href="_windkessel_b_c_8h.html" target="_top" xlink:title="model::WindkesselBC source file">
<polygon fill="white" stroke="#666666" points="381.25,-201.88 264.75,-201.88 264.75,-182.62 381.25,-182.62 381.25,-201.88"/>
<text text-anchor="middle" x="323" y="-188.38" font-family="Helvetica,sans-Serif" font-size="10.00">model/WindkesselBC.h</text>
</a>
</g>
</g>
<!-- Node2&#45;&gt;Node26 -->
<g id="edge45_Node000002_Node000026" class="edge">
<title>Node2&#45;&gt;Node26</title>
<g id="a_edge45_Node000002_Node000026"><a xlink:title=" ">
<path fill="none" stroke="#63b8ff" d="M759.48,-363.31C705.25,-361.97 618.11,-353.69 553,-318 513.69,-296.45 522.84,-267.54 485,-243.5 464.18,-230.28 401.25,-212.85 360.23,-202.37"/>
<polygon fill="#63b8ff" stroke="#63b8ff" points="759.3,-366.81 769.36,-363.47 759.42,-359.81 759.3,-366.81"/>
</a>
</g>
</g>
<!-- Node3&#45;&gt;Node4 -->
<g id="edge3_Node000003_Node000004" class="edge">
<title>Node3&#45;&gt;Node4</title>
<g id="a_edge3_Node000003_Node000004"><a xlink:title=" ">
<path fill="none" stroke="#63b8ff" d="M986.54,-179.24C945.08,-168.05 884.16,-151.59 846.62,-141.46"/>
<polygon fill="#63b8ff" stroke="#63b8ff" points="985.39,-182.56 995.95,-181.79 987.21,-175.8 985.39,-182.56"/>
</a>
</g>
</g>
<!-- Node5 -->
<g id="Node000005" class="node">
<title>Node5</title>
<g id="a_Node000005"><a xlink:href="_integrator_8h.html" target="_top" xlink:title="Integrator source file.">
<polygon fill="white" stroke="#666666" points="721.62,-80.12 622.38,-80.12 622.38,-60.88 721.62,-60.88 721.62,-80.12"/>
<text text-anchor="middle" x="672" y="-66.62" font-family="Helvetica,sans-Serif" font-size="10.00">algebra/Integrator.h</text>
</a>
</g>
</g>
<!-- Node4&#45;&gt;Node5 -->
<g id="edge4_Node000004_Node000005" class="edge">
<title>Node4&#45;&gt;Node5</title>
<g id="a_edge4_Node000004_Node000005"><a xlink:title=" ">
<path fill="none" stroke="#63b8ff" d="M780.89,-116.97C754.14,-105.8 716.79,-90.2 693.52,-80.48"/>
<polygon fill="#63b8ff" stroke="#63b8ff" points="779.3,-120.1 789.88,-120.72 782,-113.64 779.3,-120.1"/>
</a>
</g>
</g>
<!-- Node6 -->
<g id="Node000006" class="node">
<title>Node6</title>
<g id="a_Node000006"><a xlink:href="interface_8h.html" target="_top" xlink:title="svZeroDSolver callable interface.">
<polygon fill="white" stroke="#666666" points="644.75,-19.25 543.25,-19.25 543.25,0 644.75,0 644.75,-19.25"/>
<text text-anchor="middle" x="594" y="-5.75" font-family="Helvetica,sans-Serif" font-size="10.00">interface/interface.h</text>
</a>
</g>
</g>
<!-- Node4&#45;&gt;Node6 -->
<g id="edge7_Node000004_Node000006" class="edge">
<title>Node4&#45;&gt;Node6</title>
<g id="a_edge7_Node000004_Node000006"><a xlink:title=" ">
<path fill="none" stroke="#63b8ff" d="M761.82,-125.06C709.77,-118.62 633.87,-106.04 613,-85.75 594.77,-68.03 593.1,-35.52 593.48,-19.73"/>
<polygon fill="#63b8ff" stroke="#63b8ff" points="761.34,-128.53 771.69,-126.24 762.17,-121.58 761.34,-128.53"/>
</a>
</g>
</g>
<!-- Node7 -->
<g id="Node000007" class="node">
<title>Node7</title>
<g id="a_Node000007"><a xlink:href="_solver_8h.html" target="_top" xlink:title="Solver source file.">
<polygon fill="white" stroke="#666666" points="851.75,-19.25 774.25,-19.25 774.25,0 851.75,0 851.75,-19.25"/>
<text text-anchor="middle" x="813" y="-5.75" font-family="Helvetica,sans-Serif" font-size="10.00">solve/Solver.h</text>
</a>
</g>
</g>
<!-- Node4&#45;&gt;Node7 -->
<g id="edge12_Node000004_Node000007" class="edge">
<title>Node4&#45;&gt;Node7</title>
<g id="a_edge12_Node000004_Node000007"><a xlink:title=" ">
<path fill="none" stroke="#63b8ff" d="M857.07,-116.83C871.76,-109.97 886.54,-99.99 895,-85.75 901.93,-74.1 901.93,-66.9 895,-55.25 884.48,-37.56 864.22,-26.43 846.47,-19.72"/>
<polygon fill="#63b8ff" stroke="#63b8ff" points="855.73,-113.59 847.87,-120.69 858.44,-120.05 855.73,-113.59"/>
</a>
</g>
</g>
<!-- Node8 -->
<g id="Node000008" class="node">
<title>Node8</title>
<g id="a_Node000008"><a xlink:href="_levenberg_marquardt_optimizer_8h.html" target="_top" xlink:title="opt::LevenbergMarquardtOptimizer source file">
<polygon fill="white" stroke="#666666" points="1086.12,-85.75 941.88,-85.75 941.88,-55.25 1086.12,-55.25 1086.12,-85.75"/>
<text text-anchor="start" x="949.88" y="-72.25" font-family="Helvetica,sans-Serif" font-size="10.00">optimize/LevenbergMarquardt</text>
<text text-anchor="middle" x="1014" y="-61" font-family="Helvetica,sans-Serif" font-size="10.00">Optimizer.h</text>
</a>
</g>
</g>
<!-- Node4&#45;&gt;Node8 -->
<g id="edge8_Node000004_Node000008" class="edge">
<title>Node4&#45;&gt;Node8</title>
<g id="a_edge8_Node000004_Node000008"><a xlink:title=" ">
<path fill="none" stroke="#63b8ff" d="M854.65,-118.18C886.37,-108.88 930.18,-96.05 963.83,-86.19"/>
<polygon fill="#63b8ff" stroke="#63b8ff" points="854.03,-114.71 845.42,-120.88 856,-121.43 854.03,-114.71"/>
</a>
</g>
</g>
<!-- Node9 -->
<g id="Node000009" class="node">
<title>Node9</title>
<g id="a_Node000009"><a xlink:href="calibrate_8h.html" target="_top" xlink:title="opt::calibrate source file">
<polygon fill="white" stroke="#666666" points="1203.62,-80.12 1104.38,-80.12 1104.38,-60.88 1203.62,-60.88 1203.62,-80.12"/>
<text text-anchor="middle" x="1154" y="-66.62" font-family="Helvetica,sans-Serif" font-size="10.00">optimize/calibrate.h</text>
</a>
</g>
</g>
<!-- Node4&#45;&gt;Node9 -->
<g id="edge9_Node000004_Node000009" class="edge">
<title>Node4&#45;&gt;Node9</title>
<g id="a_edge9_Node000004_Node000009"><a xlink:title=" ">
<path fill="none" stroke="#63b8ff" d="M864.03,-123.55C920.69,-115.69 1014.73,-101.77 1095,-85.75 1102.65,-84.22 1110.8,-82.39 1118.53,-80.55"/>
<polygon fill="#63b8ff" stroke="#63b8ff" points="863.8,-120.05 854.37,-124.88 864.76,-126.99 863.8,-120.05"/>
</a>
</g>
</g>
<!-- Node10 -->
<g id="Node000010" class="node">
<title>Node10</title>
<g id="a_Node000010"><a xlink:href="_simulation_parameters_8h.html" target="_top" xlink:title="Source file to read simulation configuration.">
<polygon fill="white" stroke="#666666" points="885.88,-80.12 740.12,-80.12 740.12,-60.88 885.88,-60.88 885.88,-80.12"/>
<text text-anchor="middle" x="813" y="-66.62" font-family="Helvetica,sans-Serif" font-size="10.00">solve/SimulationParameters.h</text>
</a>
</g>
</g>
<!-- Node4&#45;&gt;Node10 -->
<g id="edge10_Node000004_Node000010" class="edge">
<title>Node4&#45;&gt;Node10</title>
<g id="a_edge10_Node000004_Node000010"><a xlink:title=" ">
<path fill="none" stroke="#63b8ff" d="M813,-109.95C813,-99.92 813,-88.33 813,-80.53"/>
<polygon fill="#63b8ff" stroke="#63b8ff" points="809.5,-109.92 813,-119.92 816.5,-109.92 809.5,-109.92"/>
</a>
</g>
</g>
<!-- Node11 -->
<g id="Node000011" class="node">
<title>Node11</title>
<g id="a_Node000011"><a xlink:href="csv__writer_8h.html" target="_top" xlink:title="csv_writer source file">
<polygon fill="white" stroke="#666666" points="566.38,-80.12 471.62,-80.12 471.62,-60.88 566.38,-60.88 566.38,-80.12"/>
<text text-anchor="middle" x="519" y="-66.62" font-family="Helvetica,sans-Serif" font-size="10.00">solve/csv_writer.h</text>
</a>
</g>
</g>
<!-- Node4&#45;&gt;Node11 -->
<g id="edge13_Node000004_Node000011" class="edge">
<title>Node4&#45;&gt;Node11</title>
<g id="a_edge13_Node000004_Node000011"><a xlink:title=" ">
<path fill="none" stroke="#63b8ff" d="M762.16,-121.25C714.88,-112.61 642.53,-99.04 580,-85.75 572.45,-84.15 564.39,-82.33 556.69,-80.56"/>
<polygon fill="#63b8ff" stroke="#63b8ff" points="761.37,-124.66 771.84,-123.01 762.62,-117.77 761.37,-124.66"/>
</a>
</g>
</g>
<!-- Node5&#45;&gt;Node6 -->
<g id="edge5_Node000005_Node000006" class="edge">
<title>Node5&#45;&gt;Node6</title>
<g id="a_edge5_Node000005_Node000006"><a xlink:title=" ">
<path fill="none" stroke="#63b8ff" d="M650.97,-53.63C636.54,-42.73 617.91,-28.67 605.96,-19.65"/>
<polygon fill="#63b8ff" stroke="#63b8ff" points="648.86,-56.42 658.95,-59.65 653.07,-50.83 648.86,-56.42"/>
</a>
</g>
</g>
<!-- Node5&#45;&gt;Node7 -->
<g id="edge6_Node000005_Node000007" class="edge">
<title>Node5&#45;&gt;Node7</title>
<g id="a_edge6_Node000005_Node000007"><a xlink:title=" ">
<path fill="none" stroke="#63b8ff" d="M704.11,-56.09C730.86,-44.92 768.21,-29.33 791.48,-19.61"/>
<polygon fill="#63b8ff" stroke="#63b8ff" points="703,-52.76 695.12,-59.85 705.7,-59.22 703,-52.76"/>
</a>
</g>
</g>
<!-- Node10&#45;&gt;Node7 -->
<g id="edge11_Node000010_Node000007" class="edge">
<title>Node10&#45;&gt;Node7</title>
<g id="a_edge11_Node000010_Node000007"><a xlink:title=" ">
<path fill="none" stroke="#63b8ff" d="M813,-49.07C813,-39.04 813,-27.46 813,-19.65"/>
<polygon fill="#63b8ff" stroke="#63b8ff" points="809.5,-49.04 813,-59.04 816.5,-49.04 809.5,-49.04"/>
</a>
</g>
</g>
<!-- Node11&#45;&gt;Node6 -->
<g id="edge14_Node000011_Node000006" class="edge">
<title>Node11&#45;&gt;Node6</title>
<g id="a_edge14_Node000011_Node000006"><a xlink:title=" ">
<path fill="none" stroke="#63b8ff" d="M539.22,-53.63C553.1,-42.73 571.01,-28.67 582.5,-19.65"/>
<polygon fill="#63b8ff" stroke="#63b8ff" points="537.29,-50.7 531.58,-59.62 541.61,-56.2 537.29,-50.7"/>
</a>
</g>
</g>
<!-- Node12&#45;&gt;Node4 -->
<g id="edge18_Node000012_Node000004" class="edge">
<title>Node12&#45;&gt;Node4</title>
<g id="a_edge18_Node000012_Node000004"><a xlink:title=" ">
<path fill="none" stroke="#63b8ff" d="M97.82,-294.24C71.24,-283.2 43.58,-265.68 57,-243.5 89.99,-188.99 122.71,-194.4 184,-177 295.5,-145.35 652.89,-135.53 773.11,-133.08"/>
<polygon fill="#63b8ff" stroke="#63b8ff" points="96.24,-297.39 106.83,-297.74 98.78,-290.86 96.24,-297.39"/>
</a>
</g>
</g>
<!-- Node12&#45;&gt;Node13 -->
<g id="edge16_Node000012_Node000013" class="edge">
<title>Node12&#45;&gt;Node13</title>
<g id="a_edge16_Node000012_Node000013"><a xlink:title=" ">
<path fill="none" stroke="#63b8ff" d="M138,-287.13C138,-278.84 138,-269.67 138,-263.11"/>
<polygon fill="#63b8ff" stroke="#63b8ff" points="134.5,-287.07 138,-297.07 141.5,-287.07 134.5,-287.07"/>
</a>
</g>
</g>
<!-- Node13&#45;&gt;Node4 -->
<g id="edge17_Node000013_Node000004" class="edge">
<title>Node13&#45;&gt;Node4</title>
<g id="a_edge17_Node000013_Node000004"><a xlink:title=" ">
<path fill="none" stroke="#63b8ff" d="M154.02,-235.19C172.22,-217.2 203.72,-189.65 237,-177 335.33,-139.63 659.2,-133.54 773.02,-132.56"/>
<polygon fill="#63b8ff" stroke="#63b8ff" points="151.78,-232.48 147.27,-242.07 156.77,-237.38 151.78,-232.48"/>
</a>
</g>
</g>
<!-- Node15 -->
<g id="Node000015" class="node">
<title>Node15</title>
<g id="a_Node000015"><a xlink:href="_closed_loop_coronary_left_b_c_8h.html" target="_top" xlink:title="Left side of ClosedLoopCoronaryBC.">
<polygon fill="white" stroke="#666666" points="534.62,-207.5 399.38,-207.5 399.38,-177 534.62,-177 534.62,-207.5"/>
<text text-anchor="start" x="407.38" y="-194" font-family="Helvetica,sans-Serif" font-size="10.00">model/ClosedLoopCoronary</text>
<text text-anchor="middle" x="467" y="-182.75" font-family="Helvetica,sans-Serif" font-size="10.00">LeftBC.h</text>
</a>
</g>
</g>
<!-- Node14&#45;&gt;Node15 -->
<g id="edge21_Node000014_Node000015" class="edge">
<title>Node14&#45;&gt;Node15</title>
<g id="a_edge21_Node000014_Node000015"><a xlink:title=" ">
<path fill="none" stroke="#63b8ff" d="M577.37,-238.69C555.09,-229.52 525.59,-217.37 502.69,-207.94"/>
<polygon fill="#63b8ff" stroke="#63b8ff" points="575.99,-241.91 586.57,-242.48 578.66,-235.44 575.99,-241.91"/>
</a>
</g>
</g>
<!-- Node16 -->
<g id="Node000016" class="node">
<title>Node16</title>
<g id="a_Node000016"><a xlink:href="_closed_loop_coronary_right_b_c_8h.html" target="_top" xlink:title="Right side of ClosedLoopCoronaryBC.">
<polygon fill="white" stroke="#666666" points="687.62,-207.5 552.38,-207.5 552.38,-177 687.62,-177 687.62,-207.5"/>
<text text-anchor="start" x="560.38" y="-194" font-family="Helvetica,sans-Serif" font-size="10.00">model/ClosedLoopCoronary</text>
<text text-anchor="middle" x="620" y="-182.75" font-family="Helvetica,sans-Serif" font-size="10.00">RightBC.h</text>
</a>
</g>
</g>
<!-- Node14&#45;&gt;Node16 -->
<g id="edge23_Node000014_Node000016" class="edge">
<title>Node14&#45;&gt;Node16</title>
<g id="a_edge23_Node000014_Node000016"><a xlink:title=" ">
<path fill="none" stroke="#63b8ff" d="M613.43,-231.92C614.78,-223.99 616.3,-215.06 617.53,-207.78"/>
<polygon fill="#63b8ff" stroke="#63b8ff" points="610,-231.25 611.77,-241.69 616.9,-232.42 610,-231.25"/>
</a>
</g>
</g>
<!-- Node15&#45;&gt;Node4 -->
<g id="edge22_Node000015_Node000004" class="edge">
<title>Node15&#45;&gt;Node4</title>
<g id="a_edge22_Node000015_Node000004"><a xlink:title=" ">
<path fill="none" stroke="#63b8ff" d="M546.27,-176.44C632.62,-161.31 722.65,-146.74 773.15,-138.69"/>
<polygon fill="#63b8ff" stroke="#63b8ff" points="545.67,-172.99 536.43,-178.17 546.89,-179.89 545.67,-172.99"/>
</a>
</g>
</g>
<!-- Node16&#45;&gt;Node4 -->
<g id="edge24_Node000016_Node000004" class="edge">
<title>Node16&#45;&gt;Node4</title>
<g id="a_edge24_Node000016_Node000004"><a xlink:title=" ">
<path fill="none" stroke="#63b8ff" d="M679.09,-173.22C713.51,-162.72 755.45,-149.93 783.12,-141.49"/>
<polygon fill="#63b8ff" stroke="#63b8ff" points="678.2,-169.84 669.65,-176.1 680.24,-176.53 678.2,-169.84"/>
</a>
</g>
</g>
<!-- Node17&#45;&gt;Node4 -->
<g id="edge27_Node000017_Node000004" class="edge">
<title>Node17&#45;&gt;Node4</title>
<g id="a_edge27_Node000017_Node000004"><a xlink:title=" ">
<path fill="none" stroke="#63b8ff" d="M674.46,-290.47C682.02,-282.53 690.6,-272.65 697,-262.75 719.63,-227.74 707.07,-207.95 735,-177 749.74,-160.67 771.9,-148.79 788.84,-141.41"/>
<polygon fill="#63b8ff" stroke="#63b8ff" points="672.12,-287.86 667.57,-297.43 677.09,-292.78 672.12,-287.86"/>
</a>
</g>
</g>
<!-- Node17&#45;&gt;Node14 -->
<g id="edge26_Node000017_Node000014" class="edge">
<title>Node17&#45;&gt;Node14</title>
<g id="a_edge26_Node000017_Node000014"><a xlink:title=" ">
<path fill="none" stroke="#63b8ff" d="M641.67,-290.01C633.75,-281.03 624.4,-270.45 617.93,-263.11"/>
<polygon fill="#63b8ff" stroke="#63b8ff" points="639,-292.27 648.24,-297.45 644.24,-287.63 639,-292.27"/>
</a>
</g>
</g>
<!-- Node18&#45;&gt;Node4 -->
<g id="edge29_Node000018_Node000004" class="edge">
<title>Node18&#45;&gt;Node4</title>
<g id="a_edge29_Node000018_Node000004"><a xlink:title=" ">
<path fill="none" stroke="#63b8ff" d="M813,-170.82C813,-160.79 813,-149.21 813,-141.4"/>
<polygon fill="#63b8ff" stroke="#63b8ff" points="809.5,-170.79 813,-180.79 816.5,-170.79 809.5,-170.79"/>
</a>
</g>
</g>
<!-- Node19&#45;&gt;Node4 -->
<g id="edge31_Node000019_Node000004" class="edge">
<title>Node19&#45;&gt;Node4</title>
<g id="a_edge31_Node000019_Node000004"><a xlink:title=" ">
<path fill="none" stroke="#63b8ff" d="M1424.26,-292.31C1379.07,-264.42 1276.73,-205.06 1182,-177 1065.84,-142.58 921.59,-134.65 852.93,-132.86"/>
<polygon fill="#63b8ff" stroke="#63b8ff" points="1422.37,-295.25 1432.71,-297.57 1426.07,-289.31 1422.37,-295.25"/>
</a>
</g>
</g>
<!-- Node20&#45;&gt;Node4 -->
<g id="edge33_Node000020_Node000004" class="edge">
<title>Node20&#45;&gt;Node4</title>
<g id="a_edge33_Node000020_Node000004"><a xlink:title=" ">
<path fill="none" stroke="#63b8ff" d="M902.61,-235.69C918.75,-220.11 937.04,-196.29 924,-177 908.18,-153.6 877.85,-142.46 852.88,-137.17"/>
<polygon fill="#63b8ff" stroke="#63b8ff" points="900.71,-232.69 895.66,-242 905.41,-237.87 900.71,-232.69"/>
</a>
</g>
</g>
<!-- Node21&#45;&gt;Node4 -->
<g id="edge36_Node000021_Node000004" class="edge">
<title>Node21&#45;&gt;Node4</title>
<g id="a_edge36_Node000021_Node000004"><a xlink:title=" ">
<path fill="none" stroke="#63b8ff" d="M1016.2,-292.8C1058.15,-268.5 1130.28,-218.31 1095,-177 1064.34,-141.1 923.15,-133.92 852.91,-132.59"/>
<polygon fill="#63b8ff" stroke="#63b8ff" points="1014.58,-289.7 1007.59,-297.66 1018.02,-295.79 1014.58,-289.7"/>
</a>
</g>
</g>
<!-- Node22&#45;&gt;Node4 -->
<g id="edge38_Node000022_Node000004" class="edge">
<title>Node22&#45;&gt;Node4</title>
<g id="a_edge38_Node000022_Node000004"><a xlink:title=" ">
<path fill="none" stroke="#63b8ff" d="M1156.57,-287.18C1154.77,-258.05 1146.88,-204.68 1114,-177 1075.2,-144.34 925.29,-135.57 852.76,-133.22"/>
<polygon fill="#63b8ff" stroke="#63b8ff" points="1153.06,-287.01 1156.96,-296.85 1160.05,-286.72 1153.06,-287.01"/>
</a>
</g>
</g>
<!-- Node23&#45;&gt;Node4 -->
<g id="edge40_Node000023_Node000004" class="edge">
<title>Node23&#45;&gt;Node4</title>
<g id="a_edge40_Node000023_Node000004"><a xlink:title=" ">
<path fill="none" stroke="#63b8ff" d="M1291.26,-290.21C1263.71,-261.4 1203.61,-203.84 1140,-177 1088.92,-155.45 928.24,-140.98 852.82,-135.2"/>
<polygon fill="#63b8ff" stroke="#63b8ff" points="1288.59,-292.48 1297.99,-297.38 1293.69,-287.69 1288.59,-292.48"/>
</a>
</g>
</g>
<!-- Node24&#45;&gt;Node4 -->
<g id="edge42_Node000024_Node000004" class="edge">
<title>Node24&#45;&gt;Node4</title>
<g id="a_edge42_Node000024_Node000004"><a xlink:title=" ">
<path fill="none" stroke="#63b8ff" d="M271.02,-235.93C251.78,-219.85 229.31,-195.06 246,-177 281.69,-138.39 650.51,-133.14 773.4,-132.46"/>
<polygon fill="#63b8ff" stroke="#63b8ff" points="268.82,-238.66 278.84,-242.12 273.17,-233.17 268.82,-238.66"/>
</a>
</g>
</g>
<!-- Node25&#45;&gt;Node4 -->
<g id="edge44_Node000025_Node000004" class="edge">
<title>Node25&#45;&gt;Node4</title>
<g id="a_edge44_Node000025_Node000004"><a xlink:title=" ">
<path fill="none" stroke="#63b8ff" d="M368.95,-240.73C322.38,-230.86 263.12,-216.74 256,-207.5 247.72,-196.77 246.81,-186.96 256,-177 290.96,-139.13 651.67,-133.38 773.25,-132.52"/>
<polygon fill="#63b8ff" stroke="#63b8ff" points="368.19,-244.15 378.69,-242.77 369.62,-237.3 368.19,-244.15"/>
</a>
</g>
</g>
<!-- Node26&#45;&gt;Node4 -->
<g id="edge46_Node000026_Node000004" class="edge">
<title>Node26&#45;&gt;Node4</title>
<g id="a_edge46_Node000026_Node000004"><a xlink:title=" ">
<path fill="none" stroke="#63b8ff" d="M373.48,-179.93C379.04,-178.85 384.63,-177.85 390,-177 530.03,-154.78 697.95,-140.79 773.16,-135.18"/>
<polygon fill="#63b8ff" stroke="#63b8ff" points="372.79,-176.49 363.68,-181.9 374.17,-183.36 372.79,-176.49"/>
</a>
</g>
</g>
<!-- Node27&#45;&gt;Node4 -->
<g id="edge49_Node000027_Node000004" class="edge">
<title>Node27&#45;&gt;Node4</title>
<g id="a_edge49_Node000027_Node000004"><a xlink:title=" ">
<path fill="none" stroke="#63b8ff" d="M1609.22,-342.45C1610.34,-303.4 1606.55,-217.78 1556,-177 1501.09,-132.7 999.21,-131.51 852.87,-132.11"/>
<polygon fill="#63b8ff" stroke="#63b8ff" points="1605.73,-342.11 1608.78,-352.26 1612.72,-342.43 1605.73,-342.11"/>
</a>
</g>
</g>
<!-- Node28&#45;&gt;Node2 -->
<g id="edge51_Node000028_Node000002" class="edge">
<title>Node28&#45;&gt;Node2</title>
<g id="a_edge51_Node000028_Node000002"><a xlink:title=" ">
<path fill="none" stroke="#63b8ff" d="M1096.65,-408.61C1025.57,-397.71 909.57,-379.9 849.24,-370.65"/>
<polygon fill="#63b8ff" stroke="#63b8ff" points="1095.74,-412.02 1106.16,-410.07 1096.8,-405.1 1095.74,-412.02"/>
</a>
</g>
</g>
<!-- Node28&#45;&gt;Node4 -->
<g id="edge53_Node000028_Node000004" class="edge">
<title>Node28&#45;&gt;Node4</title>
<g id="a_edge53_Node000028_Node000004"><a xlink:title=" ">
<path fill="none" stroke="#63b8ff" d="M1217.56,-413.39C1325.97,-403.67 1542,-375.96 1542,-309.38 1542,-309.38 1542,-309.38 1542,-252.12 1542,-181.7 1005.45,-143.98 852.97,-134.68"/>
<polygon fill="#63b8ff" stroke="#63b8ff" points="1217.32,-409.89 1207.66,-414.25 1217.92,-416.87 1217.32,-409.89"/>
</a>
</g>
</g>
<!-- Node28&#45;&gt;Node19 -->
<g id="edge52_Node000028_Node000019" class="edge">
<title>Node28&#45;&gt;Node19</title>
<g id="a_edge52_Node000028_Node000019"><a xlink:title=" ">
<path fill="none" stroke="#63b8ff" d="M1192.08,-404.8C1251.85,-382.51 1371.97,-337.72 1423.55,-318.49"/>
<polygon fill="#63b8ff" stroke="#63b8ff" points="1190.88,-401.51 1182.73,-408.28 1193.32,-408.07 1190.88,-401.51"/>
</a>
</g>
</g>
<!-- Node28&#45;&gt;Node21 -->
<g id="edge54_Node000028_Node000021" class="edge">
<title>Node28&#45;&gt;Node21</title>
<g id="a_edge54_Node000028_Node000021"><a xlink:title=" ">
<path fill="none" stroke="#63b8ff" d="M1133.39,-402.63C1097.82,-379.66 1031.59,-336.88 1002.88,-318.34"/>
<polygon fill="#63b8ff" stroke="#63b8ff" points="1131.39,-405.5 1141.69,-407.99 1135.19,-399.62 1131.39,-405.5"/>
</a>
</g>
</g>
<!-- Node28&#45;&gt;Node22 -->
<g id="edge55_Node000028_Node000022" class="edge">
<title>Node28&#45;&gt;Node22</title>
<g id="a_edge55_Node000028_Node000022"><a xlink:title=" ">
<path fill="none" stroke="#63b8ff" d="M1157,-397.53C1157,-373.8 1157,-335.64 1157,-318.38"/>
<polygon fill="#63b8ff" stroke="#63b8ff" points="1153.5,-397.48 1157,-407.48 1160.5,-397.48 1153.5,-397.48"/>
</a>
</g>
</g>
<!-- Node28&#45;&gt;Node23 -->
<g id="edge56_Node000028_Node000023" class="edge">
<title>Node28&#45;&gt;Node23</title>
<g id="a_edge56_Node000028_Node000023"><a xlink:title=" ">
<path fill="none" stroke="#63b8ff" d="M1178.49,-402.33C1210.34,-379.29 1269.08,-336.8 1294.61,-318.34"/>
<polygon fill="#63b8ff" stroke="#63b8ff" points="1176.81,-399.23 1170.76,-407.92 1180.91,-404.9 1176.81,-399.23"/>
</a>
</g>
</g>
</g>
</svg>
