<?xml version="1.0" encoding="UTF-8" standalone="no"?>
<!DOCTYPE svg PUBLIC "-//W3C//DTD SVG 1.1//EN"
 "http://www.w3.org/Graphics/SVG/1.1/DTD/svg11.dtd">
<!-- Generated by graphviz version 9.0.0 (20230911.1827)
 -->
<!-- Title: optimize/LevenbergMarquardtOptimizer.h Pages: 1 -->
<svg width="1904pt" height="370pt"
 viewBox="0.00 0.00 1904.44 370.00" xmlns="http://www.w3.org/2000/svg" xmlns:xlink="http://www.w3.org/1999/xlink">
<g id="graph0" class="graph" transform="scale(1 1) rotate(0) translate(4 366)">
<title>optimize/LevenbergMarquardtOptimizer.h</title>
<!-- Node1 -->
<g id="Node000001" class="node">
<title>Node1</title>
<g id="a_Node000001"><a xlink:title="opt::LevenbergMarquardtOptimizer source file">
<polygon fill="#999999" stroke="#666666" points="170.5,-362 26.25,-362 26.25,-331.5 170.5,-331.5 170.5,-362"/>
<text text-anchor="start" x="34.25" y="-348.5" font-family="Helvetica,sans-Serif" font-size="10.00">optimize/LevenbergMarquardt</text>
<text text-anchor="middle" x="98.38" y="-337.25" font-family="Helvetica,sans-Serif" font-size="10.00">Optimizer.h</text>
</a>
</g>
</g>
<!-- Node2 -->
<g id="Node000002" class="node">
<title>Node2</title>
<g id="a_Node000002"><a xlink:title=" ">
<polygon fill="#e0e0e0" stroke="#999999" points="70.75,-295.5 0,-295.5 0,-276.25 70.75,-276.25 70.75,-295.5"/>
<text text-anchor="middle" x="35.38" y="-282" font-family="Helvetica,sans-Serif" font-size="10.00">Eigen/Dense</text>
</a>
</g>
</g>
<!-- Node1&#45;&gt;Node2 -->
<g id="edge1_Node000001_Node000002" class="edge">
<title>Node1&#45;&gt;Node2</title>
<g id="a_edge1_Node000001_Node000002"><a xlink:title=" ">
<path fill="none" stroke="#63b8ff" d="M82.8,-331.2C73.86,-322.84 62.58,-312.3 53.27,-303.6"/>
<polygon fill="#63b8ff" stroke="#63b8ff" points="55.89,-301.26 46.19,-296.98 51.11,-306.37 55.89,-301.26"/>
</a>
</g>
</g>
<!-- Node3 -->
<g id="Node000003" class="node">
<title>Node3</title>
<g id="a_Node000003"><a xlink:title=" ">
<polygon fill="#e0e0e0" stroke="#999999" points="429.25,-19.25 355.5,-19.25 355.5,0 429.25,0 429.25,-19.25"/>
<text text-anchor="middle" x="392.38" y="-5.75" font-family="Helvetica,sans-Serif" font-size="10.00">Eigen/Sparse</text>
</a>
</g>
</g>
<!-- Node1&#45;&gt;Node3 -->
<g id="edge2_Node000001_Node000003" class="edge">
<title>Node1&#45;&gt;Node3</title>
<g id="a_edge2_Node000001_Node000003"><a xlink:title=" ">
<path fill="none" stroke="#63b8ff" d="M98.38,-331.34C98.38,-309.69 98.38,-267.49 98.38,-231.62 98.38,-231.62 98.38,-231.62 98.38,-119.12 98.38,-67.42 260.43,-32.69 343.91,-18.22"/>
<polygon fill="#63b8ff" stroke="#63b8ff" points="344.37,-21.69 353.65,-16.57 343.2,-14.79 344.37,-21.69"/>
</a>
</g>
</g>
<!-- Node4 -->
<g id="Node000004" class="node">
<title>Node4</title>
<g id="a_Node000004"><a xlink:href="_model_8h.html" target="_top" xlink:title="model::Model source file">
<polygon fill="white" stroke="#666666" points="1075.25,-295.5 1025.5,-295.5 1025.5,-276.25 1075.25,-276.25 1075.25,-295.5"/>
<text text-anchor="middle" x="1050.38" y="-282" font-family="Helvetica,sans-Serif" font-size="10.00">Model.h</text>
</a>
</g>
</g>
<!-- Node1&#45;&gt;Node4 -->
<g id="edge3_Node000001_Node000004" class="edge">
<title>Node1&#45;&gt;Node4</title>
<g id="a_edge3_Node000001_Node000004"><a xlink:title=" ">
<path fill="none" stroke="#63b8ff" d="M170.71,-341.28C361.29,-329.49 872.2,-297.89 1013.64,-289.15"/>
<polygon fill="#63b8ff" stroke="#63b8ff" points="1013.77,-292.65 1023.53,-288.53 1013.34,-285.66 1013.77,-292.65"/>
</a>
</g>
</g>
<!-- Node5 -->
<g id="Node000005" class="node">
<title>Node5</title>
<g id="a_Node000005"><a xlink:title=" ">
<polygon fill="#e0e0e0" stroke="#999999" points="1867.25,-240.25 1811.5,-240.25 1811.5,-221 1867.25,-221 1867.25,-240.25"/>
<text text-anchor="middle" x="1839.38" y="-226.75" font-family="Helvetica,sans-Serif" font-size="10.00">algorithm</text>
</a>
</g>
</g>
<!-- Node4&#45;&gt;Node5 -->
<g id="edge4_Node000004_Node000005" class="edge">
<title>Node4&#45;&gt;Node5</title>
<g id="a_edge4_Node000004_Node000005"><a xlink:title=" ">
<path fill="none" stroke="#63b8ff" d="M1075.65,-284.67C1170.74,-283.63 1515.94,-277.36 1797.38,-240.25 1798.21,-240.14 1799.04,-240.02 1799.89,-239.9"/>
<polygon fill="#63b8ff" stroke="#63b8ff" points="1800.23,-243.39 1809.51,-238.28 1799.07,-236.49 1800.23,-243.39"/>
</a>
</g>
</g>
<!-- Node6 -->
<g id="Node000006" class="node">
<title>Node6</title>
<g id="a_Node000006"><a xlink:title=" ">
<polygon fill="#e0e0e0" stroke="#999999" points="908.77,-74.5 879.98,-74.5 879.98,-55.25 908.77,-55.25 908.77,-74.5"/>
<text text-anchor="middle" x="894.38" y="-61" font-family="Helvetica,sans-Serif" font-size="10.00">list</text>
</a>
</g>
</g>
<!-- Node4&#45;&gt;Node6 -->
<g id="edge5_Node000004_Node000006" class="edge">
<title>Node4&#45;&gt;Node6</title>
<g id="a_edge5_Node000004_Node000006"><a xlink:title=" ">
<path fill="none" stroke="#63b8ff" d="M1025.42,-278.97C1003.8,-272.68 972.98,-260.75 953.38,-240.25 911.47,-196.44 899.27,-121.8 895.76,-86.09"/>
<polygon fill="#63b8ff" stroke="#63b8ff" points="899.27,-86 894.95,-76.33 892.29,-86.58 899.27,-86"/>
</a>
</g>
</g>
<!-- Node7 -->
<g id="Node000007" class="node">
<title>Node7</title>
<g id="a_Node000007"><a xlink:title=" ">
<polygon fill="#e0e0e0" stroke="#999999" points="956.75,-19.25 922,-19.25 922,0 956.75,0 956.75,-19.25"/>
<text text-anchor="middle" x="939.38" y="-5.75" font-family="Helvetica,sans-Serif" font-size="10.00">map</text>
</a>
</g>
</g>
<!-- Node4&#45;&gt;Node7 -->
<g id="edge6_Node000004_Node000007" class="edge">
<title>Node4&#45;&gt;Node7</title>
<g id="a_edge6_Node000004_Node000007"><a xlink:title=" ">
<path fill="none" stroke="#63b8ff" d="M1025.45,-284.61C878.97,-282.71 136.38,-268.56 136.38,-176.38 136.38,-176.38 136.38,-176.38 136.38,-119.12 136.38,-34.62 806.85,-32.13 890.38,-19.25 896.88,-18.25 903.86,-17.08 910.45,-15.93"/>
<polygon fill="#63b8ff" stroke="#63b8ff" points="910.99,-19.39 920.22,-14.19 909.77,-12.49 910.99,-19.39"/>
</a>
</g>
</g>
<!-- Node8 -->
<g id="Node000008" class="node">
<title>Node8</title>
<g id="a_Node000008"><a xlink:title=" ">
<polygon fill="#e0e0e0" stroke="#999999" points="1249.62,-19.25 1199.12,-19.25 1199.12,0 1249.62,0 1249.62,-19.25"/>
<text text-anchor="middle" x="1224.38" y="-5.75" font-family="Helvetica,sans-Serif" font-size="10.00">memory</text>
</a>
</g>
</g>
<!-- Node4&#45;&gt;Node8 -->
<g id="edge7_Node000004_Node000008" class="edge">
<title>Node4&#45;&gt;Node8</title>
<g id="a_edge7_Node000004_Node000008"><a xlink:title=" ">
<path fill="none" stroke="#63b8ff" d="M1075.62,-283.93C1158.75,-280.57 1423.15,-267.91 1503.38,-240.25 1546.68,-225.32 1568.31,-225.14 1590.38,-185 1640.39,-93.99 1712.85,-179.41 1417.38,-55.25 1365.4,-33.41 1300.85,-21.24 1261.14,-15.31"/>
<polygon fill="#63b8ff" stroke="#63b8ff" points="1261.79,-11.87 1251.4,-13.92 1260.8,-18.8 1261.79,-11.87"/>
</a>
</g>
</g>
<!-- Node9 -->
<g id="Node000009" class="node">
<title>Node9</title>
<g id="a_Node000009"><a xlink:title=" ">
<polygon fill="#e0e0e0" stroke="#999999" points="1765.38,-19.25 1725.38,-19.25 1725.38,0 1765.38,0 1765.38,-19.25"/>
<text text-anchor="middle" x="1745.38" y="-5.75" font-family="Helvetica,sans-Serif" font-size="10.00">string</text>
</a>
</g>
</g>
<!-- Node4&#45;&gt;Node9 -->
<g id="edge8_Node000004_Node000009" class="edge">
<title>Node4&#45;&gt;Node9</title>
<g id="a_edge8_Node000004_Node000009"><a xlink:title=" ">
<path fill="none" stroke="#63b8ff" d="M1075.36,-284.33C1210,-281.29 1844.13,-265.68 1876.38,-240.25 1899.63,-221.91 1895.38,-205.99 1895.38,-176.38 1895.38,-176.38 1895.38,-176.38 1895.38,-119.12 1895.38,-61 1820.52,-30.85 1776.57,-18.16"/>
<polygon fill="#63b8ff" stroke="#63b8ff" points="1777.63,-14.82 1767.06,-15.57 1775.79,-21.58 1777.63,-14.82"/>
</a>
</g>
</g>
<!-- Node10 -->
<g id="Node000010" class="node">
<title>Node10</title>
<g id="a_Node000010"><a xlink:title=" ">
<polygon fill="#e0e0e0" stroke="#999999" points="1574.88,-19.25 1531.88,-19.25 1531.88,0 1574.88,0 1574.88,-19.25"/>
<text text-anchor="middle" x="1553.38" y="-5.75" font-family="Helvetica,sans-Serif" font-size="10.00">vector</text>
</a>
</g>
</g>
<!-- Node4&#45;&gt;Node10 -->
<g id="edge9_Node000004_Node000010" class="edge">
<title>Node4&#45;&gt;Node10</title>
<g id="a_edge9_Node000004_Node000010"><a xlink:title=" ">
<path fill="none" stroke="#63b8ff" d="M1075.7,-284.55C1193.19,-282.87 1681.83,-273.89 1740.38,-240.25 1770.05,-223.2 1783.38,-210.6 1783.38,-176.38 1783.38,-176.38 1783.38,-176.38 1783.38,-119.12 1783.38,-33.06 1650.01,-15.15 1586.39,-11.51"/>
<polygon fill="#63b8ff" stroke="#63b8ff" points="1586.68,-8.02 1576.52,-11.04 1586.35,-15.01 1586.68,-8.02"/>
</a>
</g>
</g>
<!-- Node11 -->
<g id="Node000011" class="node">
<title>Node11</title>
<g id="a_Node000011"><a xlink:href="_block_8h.html" target="_top" xlink:title="model::Block source file">
<polygon fill="white" stroke="#666666" points="965.5,-129.75 917.25,-129.75 917.25,-110.5 965.5,-110.5 965.5,-129.75"/>
<text text-anchor="middle" x="941.38" y="-116.25" font-family="Helvetica,sans-Serif" font-size="10.00">Block.h</text>
</a>
</g>
</g>
<!-- Node4&#45;&gt;Node11 -->
<g id="edge10_Node000004_Node000011" class="edge">
<title>Node4&#45;&gt;Node11</title>
<g id="a_edge10_Node000004_Node000011"><a xlink:title=" ">
<path fill="none" stroke="#63b8ff" d="M1029.52,-275.78C1013.4,-268.02 991.23,-255.67 975.38,-240.25 954.54,-219.98 948.47,-212.92 940.38,-185 936.25,-170.78 936.7,-154.02 938.07,-141.24"/>
<polygon fill="#63b8ff" stroke="#63b8ff" points="941.51,-141.9 939.41,-131.52 934.58,-140.95 941.51,-141.9"/>
</a>
</g>
</g>
<!-- Node13 -->
<g id="Node000013" class="node">
<title>Node13</title>
<g id="a_Node000013"><a xlink:href="_d_o_f_handler_8h.html" target="_top" xlink:title="model::DOFHandler source file">
<polygon fill="white" stroke="#666666" points="1592.12,-74.5 1514.62,-74.5 1514.62,-55.25 1592.12,-55.25 1592.12,-74.5"/>
<text text-anchor="middle" x="1553.38" y="-61" font-family="Helvetica,sans-Serif" font-size="10.00">DOFHandler.h</text>
</a>
</g>
</g>
<!-- Node4&#45;&gt;Node13 -->
<g id="edge44_Node000004_Node000013" class="edge">
<title>Node4&#45;&gt;Node13</title>
<g id="a_edge44_Node000004_Node000013"><a xlink:title=" ">
<path fill="none" stroke="#63b8ff" d="M1075.6,-285.07C1188.22,-285.7 1641.31,-285.38 1683.38,-240.25 1705.95,-216.03 1698.01,-195.45 1683.38,-165.75 1663.03,-124.46 1616.51,-95.48 1585.01,-79.74"/>
<polygon fill="#63b8ff" stroke="#63b8ff" points="1586.85,-76.74 1576.32,-75.56 1583.82,-83.05 1586.85,-76.74"/>
</a>
</g>
</g>
<!-- Node17 -->
<g id="Node000017" class="node">
<title>Node17</title>
<g id="a_Node000017"><a xlink:href="_blood_vessel_8h.html" target="_top" xlink:title="model::BloodVessel source file">
<polygon fill="white" stroke="#666666" points="1027.5,-185 949.25,-185 949.25,-165.75 1027.5,-165.75 1027.5,-185"/>
<text text-anchor="middle" x="988.38" y="-171.5" font-family="Helvetica,sans-Serif" font-size="10.00">BloodVessel.h</text>
</a>
</g>
</g>
<!-- Node4&#45;&gt;Node17 -->
<g id="edge24_Node000004_Node000017" class="edge">
<title>Node4&#45;&gt;Node17</title>
<g id="a_edge24_Node000004_Node000017"><a xlink:title=" ">
<path fill="none" stroke="#63b8ff" d="M1026.61,-275.76C1011.54,-268.59 993.26,-256.99 984.38,-240.25 977.19,-226.73 978.9,-209.25 982.01,-196"/>
<polygon fill="#63b8ff" stroke="#63b8ff" points="985.29,-197.28 984.64,-186.71 978.55,-195.38 985.29,-197.28"/>
</a>
</g>
</g>
<!-- Node19 -->
<g id="Node000019" class="node">
<title>Node19</title>
<g id="a_Node000019"><a xlink:href="_blood_vessel_junction_8h.html" target="_top" xlink:title="model::BloodVesselJunction source file">
<polygon fill="white" stroke="#666666" points="1107.88,-240.25 992.88,-240.25 992.88,-221 1107.88,-221 1107.88,-240.25"/>
<text text-anchor="middle" x="1050.38" y="-226.75" font-family="Helvetica,sans-Serif" font-size="10.00">BloodVesselJunction.h</text>
</a>
</g>
</g>
<!-- Node4&#45;&gt;Node19 -->
<g id="edge28_Node000004_Node000019" class="edge">
<title>Node4&#45;&gt;Node19</title>
<g id="a_edge28_Node000004_Node000019"><a xlink:title=" ">
<path fill="none" stroke="#63b8ff" d="M1050.38,-276.08C1050.38,-269.57 1050.38,-260.42 1050.38,-252.12"/>
<polygon fill="#63b8ff" stroke="#63b8ff" points="1053.88,-252.12 1050.38,-242.12 1046.88,-252.12 1053.88,-252.12"/>
</a>
</g>
</g>
<!-- Node21 -->
<g id="Node000021" class="node">
<title>Node21</title>
<g id="a_Node000021"><a xlink:href="_closed_loop_coronary_b_c_8h.html" target="_top" xlink:title="model::ClosedLoopCoronaryBC source file">
<polygon fill="white" stroke="#666666" points="552.88,-240.25 425.88,-240.25 425.88,-221 552.88,-221 552.88,-240.25"/>
<text text-anchor="middle" x="489.38" y="-226.75" font-family="Helvetica,sans-Serif" font-size="10.00">ClosedLoopCoronaryBC.h</text>
</a>
</g>
</g>
<!-- Node4&#45;&gt;Node21 -->
<g id="edge33_Node000004_Node000021" class="edge">
<title>Node4&#45;&gt;Node21</title>
<g id="a_edge33_Node000004_Node000021"><a xlink:title=" ">
<path fill="none" stroke="#63b8ff" d="M1025.18,-282.48C944.67,-274.84 691.48,-250.81 564.11,-238.72"/>
<polygon fill="#63b8ff" stroke="#63b8ff" points="564.72,-235.26 554.43,-237.8 564.06,-242.23 564.72,-235.26"/>
</a>
</g>
</g>
<!-- Node22 -->
<g id="Node000022" class="node">
<title>Node22</title>
<g id="a_Node000022"><a xlink:href="_closed_loop_heart_pulmonary_8h.html" target="_top" xlink:title="model::ClosedLoopHeartPulmonary source file">
<polygon fill="white" stroke="#666666" points="309.88,-185 164.88,-185 164.88,-165.75 309.88,-165.75 309.88,-185"/>
<text text-anchor="middle" x="237.38" y="-171.5" font-family="Helvetica,sans-Serif" font-size="10.00">ClosedLoopHeartPulmonary.h</text>
</a>
</g>
</g>
<!-- Node4&#45;&gt;Node22 -->
<g id="edge40_Node000004_Node000022" class="edge">
<title>Node4&#45;&gt;Node22</title>
<g id="a_edge40_Node000004_Node000022"><a xlink:title=" ">
<path fill="none" stroke="#63b8ff" d="M1025.1,-284.02C922.37,-280.38 535.85,-265.28 416.38,-240.25 362.32,-228.93 302.43,-205.1 267.44,-189.97"/>
<polygon fill="#63b8ff" stroke="#63b8ff" points="268.94,-186.8 258.38,-185.99 266.13,-193.21 268.94,-186.8"/>
</a>
</g>
</g>
<!-- Node24 -->
<g id="Node000024" class="node">
<title>Node24</title>
<g id="a_Node000024"><a xlink:href="_closed_loop_r_c_r_b_c_8h.html" target="_top" xlink:title="model::ClosedLoopRCRBC source file">
<polygon fill="white" stroke="#666666" points="475.88,-185 366.88,-185 366.88,-165.75 475.88,-165.75 475.88,-185"/>
<text text-anchor="middle" x="421.38" y="-171.5" font-family="Helvetica,sans-Serif" font-size="10.00">ClosedLoopRCRBC.h</text>
</a>
</g>
</g>
<!-- Node4&#45;&gt;Node24 -->
<g id="edge41_Node000004_Node000024" class="edge">
<title>Node4&#45;&gt;Node24</title>
<g id="a_edge41_Node000004_Node000024"><a xlink:title=" ">
<path fill="none" stroke="#63b8ff" d="M1025.06,-283.03C964.12,-278.33 804.61,-264.54 673.38,-240.25 598.24,-226.34 512.26,-202.89 462.65,-188.6"/>
<polygon fill="#63b8ff" stroke="#63b8ff" points="463.77,-185.28 453.19,-185.86 461.82,-192.01 463.77,-185.28"/>
</a>
</g>
</g>
<!-- Node25 -->
<g id="Node000025" class="node">
<title>Node25</title>
<g id="a_Node000025"><a xlink:href="_flow_reference_b_c_8h.html" target="_top" xlink:title="model::FlowReferenceBC source file">
<polygon fill="white" stroke="#666666" points="1289.5,-185 1187.25,-185 1187.25,-165.75 1289.5,-165.75 1289.5,-185"/>
<text text-anchor="middle" x="1238.38" y="-171.5" font-family="Helvetica,sans-Serif" font-size="10.00">FlowReferenceBC.h</text>
</a>
</g>
</g>
<!-- Node4&#45;&gt;Node25 -->
<g id="edge45_Node000004_Node000025" class="edge">
<title>Node4&#45;&gt;Node25</title>
<g id="a_edge45_Node000004_Node000025"><a xlink:title=" ">
<path fill="none" stroke="#63b8ff" d="M1068.25,-275.79C1085.38,-266.99 1111.87,-253.12 1134.38,-240.25 1162.38,-224.23 1193.87,-204.67 1214.78,-191.45"/>
<polygon fill="#63b8ff" stroke="#63b8ff" points="1216.57,-194.46 1223.13,-186.15 1212.82,-188.55 1216.57,-194.46"/>
</a>
</g>
</g>
<!-- Node26 -->
<g id="Node000026" class="node">
<title>Node26</title>
<g id="a_Node000026"><a xlink:href="_parameter_8h.html" target="_top" xlink:title="model::Parameter source file">
<polygon fill="white" stroke="#666666" points="1417.62,-129.75 1349.12,-129.75 1349.12,-110.5 1417.62,-110.5 1417.62,-129.75"/>
<text text-anchor="middle" x="1383.38" y="-116.25" font-family="Helvetica,sans-Serif" font-size="10.00">Parameter.h</text>
</a>
</g>
</g>
<!-- Node4&#45;&gt;Node26 -->
<g id="edge65_Node000004_Node000026" class="edge">
<title>Node4&#45;&gt;Node26</title>
<g id="a_edge65_Node000004_Node000026"><a xlink:title=" ">
<path fill="none" stroke="#63b8ff" d="M1075.68,-284.14C1171.49,-280.76 1509.83,-263.36 1574.38,-185 1579.81,-178.4 1579.69,-172.45 1574.38,-165.75 1556.61,-143.35 1479.97,-131.14 1429.34,-125.38"/>
<polygon fill="#63b8ff" stroke="#63b8ff" points="1429.84,-121.92 1419.52,-124.32 1429.09,-128.88 1429.84,-121.92"/>
</a>
</g>
</g>
<!-- Node28 -->
<g id="Node000028" class="node">
<title>Node28</title>
<g id="a_Node000028"><a xlink:href="_junction_8h.html" target="_top" xlink:title="model::Junction source file">
<polygon fill="white" stroke="#666666" points="554.5,-185 494.25,-185 494.25,-165.75 554.5,-165.75 554.5,-185"/>
<text text-anchor="middle" x="524.38" y="-171.5" font-family="Helvetica,sans-Serif" font-size="10.00">Junction.h</text>
</a>
</g>
</g>
<!-- Node4&#45;&gt;Node28 -->
<g id="edge53_Node000004_Node000028" class="edge">
<title>Node4&#45;&gt;Node28</title>
<g id="a_edge53_Node000004_Node000028"><a xlink:title=" ">
<path fill="none" stroke="#63b8ff" d="M1025.2,-282.26C973.27,-276.62 850.6,-262.03 749.38,-240.25 714.19,-232.68 619.83,-204.96 565.13,-188.63"/>
<polygon fill="#63b8ff" stroke="#63b8ff" points="566.45,-185.37 555.87,-185.86 564.45,-192.08 566.45,-185.37"/>
</a>
</g>
</g>
<!-- Node29 -->
<g id="Node000029" class="node">
<title>Node29</title>
<g id="a_Node000029"><a xlink:href="_node_8h.html" target="_top" xlink:title="model::Node source file">
<polygon fill="white" stroke="#666666" points="1730.75,-129.75 1684,-129.75 1684,-110.5 1730.75,-110.5 1730.75,-129.75"/>
<text text-anchor="middle" x="1707.38" y="-116.25" font-family="Helvetica,sans-Serif" font-size="10.00">Node.h</text>
</a>
</g>
</g>
<!-- Node4&#45;&gt;Node29 -->
<g id="edge56_Node000004_Node000029" class="edge">
<title>Node4&#45;&gt;Node29</title>
<g id="a_edge56_Node000004_Node000029"><a xlink:title=" ">
<path fill="none" stroke="#63b8ff" d="M1075.54,-285.18C1192.18,-286.34 1676.51,-288.2 1721.38,-240.25 1746.66,-213.23 1730.09,-166.32 1717.6,-140.16"/>
<polygon fill="#63b8ff" stroke="#63b8ff" points="1720.79,-138.72 1713.15,-131.38 1714.55,-141.89 1720.79,-138.72"/>
</a>
</g>
</g>
<!-- Node30 -->
<g id="Node000030" class="node">
<title>Node30</title>
<g id="a_Node000030"><a xlink:href="_open_loop_coronary_b_c_8h.html" target="_top" xlink:title="model::OpenLoopCoronaryBC source file">
<polygon fill="white" stroke="#666666" points="1427.5,-185 1307.25,-185 1307.25,-165.75 1427.5,-165.75 1427.5,-185"/>
<text text-anchor="middle" x="1367.38" y="-171.5" font-family="Helvetica,sans-Serif" font-size="10.00">OpenLoopCoronaryBC.h</text>
</a>
</g>
</g>
<!-- Node4&#45;&gt;Node30 -->
<g id="edge61_Node000004_Node000030" class="edge">
<title>Node4&#45;&gt;Node30</title>
<g id="a_edge61_Node000004_Node000030"><a xlink:title=" ">
<path fill="none" stroke="#63b8ff" d="M1075.51,-276.27C1131.16,-257.22 1264.99,-211.42 1330.28,-189.07"/>
<polygon fill="#63b8ff" stroke="#63b8ff" points="1331.14,-192.48 1339.47,-185.93 1328.87,-185.85 1331.14,-192.48"/>
</a>
</g>
</g>
<!-- Node31 -->
<g id="Node000031" class="node">
<title>Node31</title>
<g id="a_Node000031"><a xlink:href="_pressure_reference_b_c_8h.html" target="_top" xlink:title="model::PressureReferenceBC source file">
<polygon fill="white" stroke="#666666" points="1565.5,-185 1445.25,-185 1445.25,-165.75 1565.5,-165.75 1565.5,-185"/>
<text text-anchor="middle" x="1505.38" y="-171.5" font-family="Helvetica,sans-Serif" font-size="10.00">PressureReferenceBC.h</text>
</a>
</g>
</g>
<!-- Node4&#45;&gt;Node31 -->
<g id="edge66_Node000004_Node000031" class="edge">
<title>Node4&#45;&gt;Node31</title>
<g id="a_edge66_Node000004_Node000031"><a xlink:title=" ">
<path fill="none" stroke="#63b8ff" d="M1075.49,-278.89C1148.15,-261.56 1359.6,-211.14 1456.2,-188.1"/>
<polygon fill="#63b8ff" stroke="#63b8ff" points="1456.73,-191.57 1465.65,-185.85 1455.11,-184.76 1456.73,-191.57"/>
</a>
</g>
</g>
<!-- Node32 -->
<g id="Node000032" class="node">
<title>Node32</title>
<g id="a_Node000032"><a xlink:href="_resistance_b_c_8h.html" target="_top" xlink:title="model::ResistanceBC source file">
<polygon fill="white" stroke="#666666" points="1169.25,-185 1083.5,-185 1083.5,-165.75 1169.25,-165.75 1169.25,-185"/>
<text text-anchor="middle" x="1126.38" y="-171.5" font-family="Helvetica,sans-Serif" font-size="10.00">ResistanceBC.h</text>
</a>
</g>
</g>
<!-- Node4&#45;&gt;Node32 -->
<g id="edge70_Node000004_Node000032" class="edge">
<title>Node4&#45;&gt;Node32</title>
<g id="a_edge70_Node000004_Node000032"><a xlink:title=" ">
<path fill="none" stroke="#63b8ff" d="M1072.76,-275.89C1087.89,-268.6 1106.96,-256.81 1117.38,-240.25 1125.51,-227.32 1127.53,-210.03 1127.64,-196.71"/>
<polygon fill="#63b8ff" stroke="#63b8ff" points="1131.15,-196.81 1127.35,-186.92 1124.15,-197.02 1131.15,-196.81"/>
</a>
</g>
</g>
<!-- Node33 -->
<g id="Node000033" class="node">
<title>Node33</title>
<g id="a_Node000033"><a xlink:href="_resistive_junction_8h.html" target="_top" xlink:title="model::ResistiveJunction source file">
<polygon fill="white" stroke="#666666" points="673.75,-185 573,-185 573,-165.75 673.75,-165.75 673.75,-185"/>
<text text-anchor="middle" x="623.38" y="-171.5" font-family="Helvetica,sans-Serif" font-size="10.00">ResistiveJunction.h</text>
</a>
</g>
</g>
<!-- Node4&#45;&gt;Node33 -->
<g id="edge74_Node000004_Node000033" class="edge">
<title>Node4&#45;&gt;Node33</title>
<g id="a_edge74_Node000004_Node000033"><a xlink:title=" ">
<path fill="none" stroke="#63b8ff" d="M1025.19,-281.06C982.5,-274.36 893.33,-259.36 819.38,-240.25 762.29,-225.5 697.51,-203.28 658.58,-189.31"/>
<polygon fill="#63b8ff" stroke="#63b8ff" points="659.86,-186.05 649.26,-185.95 657.48,-192.64 659.86,-186.05"/>
</a>
</g>
</g>
<!-- Node34 -->
<g id="Node000034" class="node">
<title>Node34</title>
<g id="a_Node000034"><a xlink:href="_windkessel_b_c_8h.html" target="_top" xlink:title="model::WindkesselBC source file">
<polygon fill="white" stroke="#666666" points="779,-185 691.75,-185 691.75,-165.75 779,-165.75 779,-185"/>
<text text-anchor="middle" x="735.38" y="-171.5" font-family="Helvetica,sans-Serif" font-size="10.00">WindkesselBC.h</text>
</a>
</g>
</g>
<!-- Node4&#45;&gt;Node34 -->
<g id="edge77_Node000004_Node000034" class="edge">
<title>Node4&#45;&gt;Node34</title>
<g id="a_edge77_Node000004_Node000034"><a xlink:title=" ">
<path fill="none" stroke="#63b8ff" d="M1025.01,-280.31C989.57,-273.56 923.47,-259.58 869.38,-240.25 830.56,-226.37 787.93,-204.9 761.41,-190.74"/>
<polygon fill="#63b8ff" stroke="#63b8ff" points="763.21,-187.74 752.75,-186.06 759.89,-193.9 763.21,-187.74"/>
</a>
</g>
</g>
<!-- Node11&#45;&gt;Node6 -->
<g id="edge12_Node000011_Node000006" class="edge">
<title>Node11&#45;&gt;Node6</title>
<g id="a_edge12_Node000011_Node000006"><a xlink:title=" ">
<path fill="none" stroke="#63b8ff" d="M933.61,-110.33C927.19,-103.05 917.86,-92.48 909.91,-83.48"/>
<polygon fill="#63b8ff" stroke="#63b8ff" points="912.55,-81.18 903.31,-75.99 907.3,-85.81 912.55,-81.18"/>
</a>
</g>
</g>
<!-- Node11&#45;&gt;Node7 -->
<g id="edge13_Node000011_Node000007" class="edge">
<title>Node11&#45;&gt;Node7</title>
<g id="a_edge13_Node000011_Node000007"><a xlink:title=" ">
<path fill="none" stroke="#63b8ff" d="M941.21,-110.25C940.89,-93 940.19,-54.58 939.75,-30.81"/>
<polygon fill="#63b8ff" stroke="#63b8ff" points="943.25,-31.07 939.57,-21.14 936.25,-31.2 943.25,-31.07"/>
</a>
</g>
</g>
<!-- Node11&#45;&gt;Node10 -->
<g id="edge14_Node000011_Node000010" class="edge">
<title>Node11&#45;&gt;Node10</title>
<g id="a_edge14_Node000011_Node000010"><a xlink:title=" ">
<path fill="none" stroke="#63b8ff" d="M965.89,-112.98C1015.43,-100.72 1131.08,-72.89 1229.38,-55.25 1335.25,-36.25 1461.86,-20.93 1520.54,-14.25"/>
<polygon fill="#63b8ff" stroke="#63b8ff" points="1520.62,-17.77 1530.16,-13.17 1519.83,-10.81 1520.62,-17.77"/>
</a>
</g>
</g>
<!-- Node12 -->
<g id="Node000012" class="node">
<title>Node12</title>
<g id="a_Node000012"><a xlink:title=" ">
<polygon fill="#e0e0e0" stroke="#999999" points="1031,-74.5 967.75,-74.5 967.75,-55.25 1031,-55.25 1031,-74.5"/>
<text text-anchor="middle" x="999.38" y="-61" font-family="Helvetica,sans-Serif" font-size="10.00">Eigen/Core</text>
</a>
</g>
</g>
<!-- Node11&#45;&gt;Node12 -->
<g id="edge11_Node000011_Node000012" class="edge">
<title>Node11&#45;&gt;Node12</title>
<g id="a_edge11_Node000011_Node000012"><a xlink:title=" ">
<path fill="none" stroke="#63b8ff" d="M951.21,-110.09C959.43,-102.55 971.36,-91.6 981.29,-82.48"/>
<polygon fill="#63b8ff" stroke="#63b8ff" points="983.57,-85.14 988.57,-75.8 978.83,-79.98 983.57,-85.14"/>
</a>
</g>
</g>
<!-- Node11&#45;&gt;Node13 -->
<g id="edge15_Node000011_Node000013" class="edge">
<title>Node11&#45;&gt;Node13</title>
<g id="a_edge15_Node000011_Node000013"><a xlink:title=" ">
<path fill="none" stroke="#63b8ff" d="M965.74,-117C1056.83,-109.08 1378.42,-81.1 1503.29,-70.23"/>
<polygon fill="#63b8ff" stroke="#63b8ff" points="1503.23,-73.75 1512.89,-69.4 1502.62,-66.78 1503.23,-73.75"/>
</a>
</g>
</g>
<!-- Node14 -->
<g id="Node000014" class="node">
<title>Node14</title>
<g id="a_Node000014"><a xlink:href="_sparse_system_8h.html" target="_top" xlink:title="SparseSystem source file.">
<polygon fill="white" stroke="#666666" points="857,-74.5 769.75,-74.5 769.75,-55.25 857,-55.25 857,-74.5"/>
<text text-anchor="middle" x="813.38" y="-61" font-family="Helvetica,sans-Serif" font-size="10.00">SparseSystem.h</text>
</a>
</g>
</g>
<!-- Node11&#45;&gt;Node14 -->
<g id="edge19_Node000011_Node000014" class="edge">
<title>Node11&#45;&gt;Node14</title>
<g id="a_edge19_Node000011_Node000014"><a xlink:title=" ">
<path fill="none" stroke="#63b8ff" d="M919.66,-110.09C899.34,-101.64 868.73,-88.9 845.57,-79.27"/>
<polygon fill="#63b8ff" stroke="#63b8ff" points="847.17,-76.14 836.59,-75.53 844.48,-82.61 847.17,-76.14"/>
</a>
</g>
</g>
<!-- Node13&#45;&gt;Node7 -->
<g id="edge16_Node000013_Node000007" class="edge">
<title>Node13&#45;&gt;Node7</title>
<g id="a_edge16_Node000013_Node000007"><a xlink:title=" ">
<path fill="none" stroke="#63b8ff" d="M1514.5,-60.5C1400.5,-50.62 1068.76,-21.85 968.45,-13.15"/>
<polygon fill="#63b8ff" stroke="#63b8ff" points="968.91,-9.67 958.64,-12.3 968.3,-16.65 968.91,-9.67"/>
</a>
</g>
</g>
<!-- Node13&#45;&gt;Node9 -->
<g id="edge17_Node000013_Node000009" class="edge">
<title>Node13&#45;&gt;Node9</title>
<g id="a_edge17_Node000013_Node000009"><a xlink:title=" ">
<path fill="none" stroke="#63b8ff" d="M1585.95,-54.84C1621.7,-44.92 1678.71,-29.11 1713.99,-19.33"/>
<polygon fill="#63b8ff" stroke="#63b8ff" points="1714.9,-22.71 1723.6,-16.66 1713.03,-15.96 1714.9,-22.71"/>
</a>
</g>
</g>
<!-- Node13&#45;&gt;Node10 -->
<g id="edge18_Node000013_Node000010" class="edge">
<title>Node13&#45;&gt;Node10</title>
<g id="a_edge18_Node000013_Node000010"><a xlink:title=" ">
<path fill="none" stroke="#63b8ff" d="M1553.38,-55.08C1553.38,-48.57 1553.38,-39.42 1553.38,-31.12"/>
<polygon fill="#63b8ff" stroke="#63b8ff" points="1556.88,-31.12 1553.38,-21.12 1549.88,-31.12 1556.88,-31.12"/>
</a>
</g>
</g>
<!-- Node14&#45;&gt;Node3 -->
<g id="edge20_Node000014_Node000003" class="edge">
<title>Node14&#45;&gt;Node3</title>
<g id="a_edge20_Node000014_Node000003"><a xlink:title=" ">
<path fill="none" stroke="#63b8ff" d="M769.51,-58.33C690.24,-48.3 523.7,-27.24 441.05,-16.78"/>
<polygon fill="#63b8ff" stroke="#63b8ff" points="441.58,-13.32 431.22,-15.54 440.7,-20.27 441.58,-13.32"/>
</a>
</g>
</g>
<!-- Node14&#45;&gt;Node8 -->
<g id="edge23_Node000014_Node000008" class="edge">
<title>Node14&#45;&gt;Node8</title>
<g id="a_edge23_Node000014_Node000008"><a xlink:title=" ">
<path fill="none" stroke="#63b8ff" d="M857.38,-57.23C862.1,-56.55 866.84,-55.87 871.38,-55.25 986.6,-39.4 1123.28,-22.73 1187.53,-15.01"/>
<polygon fill="#63b8ff" stroke="#63b8ff" points="1187.64,-18.53 1197.16,-13.86 1186.81,-11.57 1187.64,-18.53"/>
</a>
</g>
</g>
<!-- Node15 -->
<g id="Node000015" class="node">
<title>Node15</title>
<g id="a_Node000015"><a xlink:title=" ">
<polygon fill="#e0e0e0" stroke="#999999" points="881,-19.25 793.75,-19.25 793.75,0 881,0 881,-19.25"/>
<text text-anchor="middle" x="837.38" y="-5.75" font-family="Helvetica,sans-Serif" font-size="10.00">Eigen/SparseLU</text>
</a>
</g>
</g>
<!-- Node14&#45;&gt;Node15 -->
<g id="edge21_Node000014_Node000015" class="edge">
<title>Node14&#45;&gt;Node15</title>
<g id="a_edge21_Node000014_Node000015"><a xlink:title=" ">
<path fill="none" stroke="#63b8ff" d="M817.34,-55.08C820.41,-48.26 824.79,-38.56 828.66,-29.95"/>
<polygon fill="#63b8ff" stroke="#63b8ff" points="831.79,-31.54 832.7,-20.99 825.4,-28.67 831.79,-31.54"/>
</a>
</g>
</g>
<!-- Node16 -->
<g id="Node000016" class="node">
<title>Node16</title>
<g id="a_Node000016"><a xlink:title=" ">
<polygon fill="#e0e0e0" stroke="#999999" points="776.12,-19.25 722.62,-19.25 722.62,0 776.12,0 776.12,-19.25"/>
<text text-anchor="middle" x="749.38" y="-5.75" font-family="Helvetica,sans-Serif" font-size="10.00">iostream</text>
</a>
</g>
</g>
<!-- Node14&#45;&gt;Node16 -->
<g id="edge22_Node000014_Node000016" class="edge">
<title>Node14&#45;&gt;Node16</title>
<g id="a_edge22_Node000014_Node000016"><a xlink:title=" ">
<path fill="none" stroke="#63b8ff" d="M802.52,-54.84C793.27,-47.15 779.75,-35.9 768.67,-26.68"/>
<polygon fill="#63b8ff" stroke="#63b8ff" points="771.16,-24.2 761.23,-20.49 766.68,-29.58 771.16,-24.2"/>
</a>
</g>
</g>
<!-- Node17&#45;&gt;Node11 -->
<g id="edge26_Node000017_Node000011" class="edge">
<title>Node17&#45;&gt;Node11</title>
<g id="a_edge26_Node000017_Node000011"><a xlink:title=" ">
<path fill="none" stroke="#63b8ff" d="M980.61,-165.58C974.19,-158.3 964.86,-147.73 956.91,-138.73"/>
<polygon fill="#63b8ff" stroke="#63b8ff" points="959.55,-136.43 950.31,-131.24 954.3,-141.06 959.55,-136.43"/>
</a>
</g>
</g>
<!-- Node17&#45;&gt;Node14 -->
<g id="edge27_Node000017_Node000014" class="edge">
<title>Node17&#45;&gt;Node14</title>
<g id="a_edge27_Node000017_Node000014"><a xlink:title=" ">
<path fill="none" stroke="#63b8ff" d="M971.28,-165.37C954.92,-156.63 929.66,-142.81 908.38,-129.75 882.82,-114.07 854.38,-94.68 835.35,-81.41"/>
<polygon fill="#63b8ff" stroke="#63b8ff" points="837.5,-78.64 827.3,-75.77 833.48,-84.37 837.5,-78.64"/>
</a>
</g>
</g>
<!-- Node18 -->
<g id="Node000018" class="node">
<title>Node18</title>
<g id="a_Node000018"><a xlink:title=" ">
<polygon fill="#e0e0e0" stroke="#999999" points="1284,-74.5 1238.75,-74.5 1238.75,-55.25 1284,-55.25 1284,-74.5"/>
<text text-anchor="middle" x="1261.38" y="-61" font-family="Helvetica,sans-Serif" font-size="10.00">math.h</text>
</a>
</g>
</g>
<!-- Node17&#45;&gt;Node18 -->
<g id="edge25_Node000017_Node000018" class="edge">
<title>Node17&#45;&gt;Node18</title>
<g id="a_edge25_Node000017_Node000018"><a xlink:title=" ">
<path fill="none" stroke="#63b8ff" d="M1011.18,-165.31C1059.36,-146.16 1171.67,-101.53 1227.97,-79.15"/>
<polygon fill="#63b8ff" stroke="#63b8ff" points="1229.03,-82.49 1237.04,-75.55 1226.45,-75.99 1229.03,-82.49"/>
</a>
</g>
</g>
<!-- Node19&#45;&gt;Node11 -->
<g id="edge29_Node000019_Node000011" class="edge">
<title>Node19&#45;&gt;Node11</title>
<g id="a_edge29_Node000019_Node000011"><a xlink:title=" ">
<path fill="none" stroke="#63b8ff" d="M1050.77,-220.75C1050.9,-207.37 1049.27,-181.9 1036.38,-165.75 1021.51,-147.13 997.04,-135.88 976.66,-129.34"/>
<polygon fill="#63b8ff" stroke="#63b8ff" points="977.87,-126.05 967.29,-126.6 975.91,-132.77 977.87,-126.05"/>
</a>
</g>
</g>
<!-- Node19&#45;&gt;Node14 -->
<g id="edge32_Node000019_Node000014" class="edge">
<title>Node19&#45;&gt;Node14</title>
<g id="a_edge32_Node000019_Node000014"><a xlink:title=" ">
<path fill="none" stroke="#63b8ff" d="M1021.18,-220.57C998.32,-212.84 966.16,-200.5 940.38,-185 907.59,-165.29 902.3,-155.9 874.38,-129.75 858.19,-114.59 840.82,-96.17 828.78,-83.02"/>
<polygon fill="#63b8ff" stroke="#63b8ff" points="831.7,-81.03 822.38,-75.98 826.51,-85.73 831.7,-81.03"/>
</a>
</g>
</g>
<!-- Node19&#45;&gt;Node17 -->
<g id="edge31_Node000019_Node000017" class="edge">
<title>Node19&#45;&gt;Node17</title>
<g id="a_edge31_Node000019_Node000017"><a xlink:title=" ">
<path fill="none" stroke="#63b8ff" d="M1039.86,-220.59C1030.99,-212.97 1018.06,-201.87 1007.39,-192.7"/>
<polygon fill="#63b8ff" stroke="#63b8ff" points="1009.75,-190.12 999.89,-186.26 1005.19,-195.43 1009.75,-190.12"/>
</a>
</g>
</g>
<!-- Node20 -->
<g id="Node000020" class="node">
<title>Node20</title>
<g id="a_Node000020"><a xlink:href="_block_type_8h_source.html" target="_top" xlink:title=" ">
<polygon fill="white" stroke="#666666" points="1679,-74.5 1609.75,-74.5 1609.75,-55.25 1679,-55.25 1679,-74.5"/>
<text text-anchor="middle" x="1644.38" y="-61" font-family="Helvetica,sans-Serif" font-size="10.00">BlockType.h</text>
</a>
</g>
</g>
<!-- Node19&#45;&gt;Node20 -->
<g id="edge30_Node000019_Node000020" class="edge">
<title>Node19&#45;&gt;Node20</title>
<g id="a_edge30_Node000019_Node000020"><a xlink:title=" ">
<path fill="none" stroke="#63b8ff" d="M1108.12,-227.68C1236.16,-222.95 1535.66,-209.4 1574.38,-185 1610.63,-162.16 1630.37,-113.19 1638.99,-85.68"/>
<polygon fill="#63b8ff" stroke="#63b8ff" points="1642.33,-86.75 1641.77,-76.17 1635.61,-84.79 1642.33,-86.75"/>
</a>
</g>
</g>
<!-- Node21&#45;&gt;Node11 -->
<g id="edge34_Node000021_Node000011" class="edge">
<title>Node21&#45;&gt;Node11</title>
<g id="a_edge34_Node000021_Node000011"><a xlink:title=" ">
<path fill="none" stroke="#63b8ff" d="M553.33,-224.69C614.52,-218.9 709,-207.12 788.38,-185 833.81,-172.34 883.77,-149.71 913.85,-135.07"/>
<polygon fill="#63b8ff" stroke="#63b8ff" points="915.21,-138.3 922.62,-130.74 912.11,-132.02 915.21,-138.3"/>
</a>
</g>
</g>
<!-- Node21&#45;&gt;Node14 -->
<g id="edge39_Node000021_Node000014" class="edge">
<title>Node21&#45;&gt;Node14</title>
<g id="a_edge39_Node000021_Node000014"><a xlink:title=" ">
<path fill="none" stroke="#63b8ff" d="M425.47,-220.82C381.34,-211.97 334.41,-195.3 357.38,-165.75 406.13,-103.02 647.67,-77.8 758.11,-69.42"/>
<polygon fill="#63b8ff" stroke="#63b8ff" points="758.1,-72.93 767.81,-68.71 757.58,-65.95 758.1,-72.93"/>
</a>
</g>
</g>
<!-- Node21&#45;&gt;Node22 -->
<g id="edge35_Node000021_Node000022" class="edge">
<title>Node21&#45;&gt;Node22</title>
<g id="a_edge35_Node000021_Node000022"><a xlink:title=" ">
<path fill="none" stroke="#63b8ff" d="M446.34,-220.53C403.48,-211.48 337.58,-197.55 291.26,-187.76"/>
<polygon fill="#63b8ff" stroke="#63b8ff" points="292.22,-184.39 281.71,-185.74 290.77,-191.24 292.22,-184.39"/>
</a>
</g>
</g>
<!-- Node22&#45;&gt;Node11 -->
<g id="edge36_Node000022_Node000011" class="edge">
<title>Node22&#45;&gt;Node11</title>
<g id="a_edge36_Node000022_Node000011"><a xlink:title=" ">
<path fill="none" stroke="#63b8ff" d="M310.06,-168.88C459.22,-157.59 795.14,-132.19 905.49,-123.84"/>
<polygon fill="#63b8ff" stroke="#63b8ff" points="905.72,-127.33 915.42,-123.09 905.19,-120.35 905.72,-127.33"/>
</a>
</g>
</g>
<!-- Node22&#45;&gt;Node14 -->
<g id="edge37_Node000022_Node000014" class="edge">
<title>Node22&#45;&gt;Node14</title>
<g id="a_edge37_Node000022_Node000014"><a xlink:title=" ">
<path fill="none" stroke="#63b8ff" d="M246.02,-165.43C260.62,-150.97 291.78,-122.85 324.38,-110.5 402.52,-80.89 647.79,-70.46 758.36,-67.2"/>
<polygon fill="#63b8ff" stroke="#63b8ff" points="758.17,-70.71 768.07,-66.92 757.97,-63.71 758.17,-70.71"/>
</a>
</g>
</g>
<!-- Node23 -->
<g id="Node000023" class="node">
<title>Node23</title>
<g id="a_Node000023"><a xlink:title=" ">
<polygon fill="#e0e0e0" stroke="#999999" points="258.88,-129.75 215.88,-129.75 215.88,-110.5 258.88,-110.5 258.88,-129.75"/>
<text text-anchor="middle" x="237.38" y="-116.25" font-family="Helvetica,sans-Serif" font-size="10.00">cmath</text>
</a>
</g>
</g>
<!-- Node22&#45;&gt;Node23 -->
<g id="edge38_Node000022_Node000023" class="edge">
<title>Node22&#45;&gt;Node23</title>
<g id="a_edge38_Node000022_Node000023"><a xlink:title=" ">
<path fill="none" stroke="#63b8ff" d="M237.38,-165.58C237.38,-159.07 237.38,-149.92 237.38,-141.62"/>
<polygon fill="#63b8ff" stroke="#63b8ff" points="240.88,-141.62 237.38,-131.62 233.88,-141.62 240.88,-141.62"/>
</a>
</g>
</g>
<!-- Node24&#45;&gt;Node11 -->
<g id="edge42_Node000024_Node000011" class="edge">
<title>Node24&#45;&gt;Node11</title>
<g id="a_edge42_Node000024_Node000011"><a xlink:title=" ">
<path fill="none" stroke="#63b8ff" d="M476.17,-166.86C479.28,-166.47 482.37,-166.1 485.38,-165.75 641.75,-147.57 828.88,-130.83 905.75,-124.17"/>
<polygon fill="#63b8ff" stroke="#63b8ff" points="905.95,-127.66 915.61,-123.32 905.35,-120.69 905.95,-127.66"/>
</a>
</g>
</g>
<!-- Node24&#45;&gt;Node14 -->
<g id="edge43_Node000024_Node000014" class="edge">
<title>Node24&#45;&gt;Node14</title>
<g id="a_edge43_Node000024_Node000014"><a xlink:title=" ">
<path fill="none" stroke="#63b8ff" d="M453.15,-165.25C496.86,-152.74 578,-129.63 647.38,-110.5 688.21,-99.24 734.8,-86.75 768.21,-77.85"/>
<polygon fill="#63b8ff" stroke="#63b8ff" points="768.78,-81.32 777.54,-75.37 766.98,-74.56 768.78,-81.32"/>
</a>
</g>
</g>
<!-- Node25&#45;&gt;Node11 -->
<g id="edge46_Node000025_Node000011" class="edge">
<title>Node25&#45;&gt;Node11</title>
<g id="a_edge46_Node000025_Node000011"><a xlink:title=" ">
<path fill="none" stroke="#63b8ff" d="M1187.66,-165.28C1127.59,-154.51 1029.09,-136.85 976.71,-127.46"/>
<polygon fill="#63b8ff" stroke="#63b8ff" points="977.61,-124.07 967.14,-125.75 976.37,-130.96 977.61,-124.07"/>
</a>
</g>
</g>
<!-- Node25&#45;&gt;Node14 -->
<g id="edge52_Node000025_Node000014" class="edge">
<title>Node25&#45;&gt;Node14</title>
<g id="a_edge52_Node000025_Node000014"><a xlink:title=" ">
<path fill="none" stroke="#63b8ff" d="M1207.9,-165.31C1164.29,-152.46 1081.51,-128.51 1010.38,-110.5 962.16,-98.29 906.9,-85.91 867.2,-77.3"/>
<polygon fill="#63b8ff" stroke="#63b8ff" points="868.17,-73.93 857.66,-75.24 866.69,-80.77 868.17,-73.93"/>
</a>
</g>
</g>
<!-- Node25&#45;&gt;Node26 -->
<g id="edge47_Node000025_Node000026" class="edge">
<title>Node25&#45;&gt;Node26</title>
<g id="a_edge47_Node000025_Node000026"><a xlink:title=" ">
<path fill="none" stroke="#63b8ff" d="M1262.97,-165.34C1286.3,-156.77 1321.61,-143.81 1347.97,-134.13"/>
<polygon fill="#63b8ff" stroke="#63b8ff" points="1349.06,-137.46 1357.24,-130.72 1346.64,-130.89 1349.06,-137.46"/>
</a>
</g>
</g>
<!-- Node26&#45;&gt;Node10 -->
<g id="edge50_Node000026_Node000010" class="edge">
<title>Node26&#45;&gt;Node10</title>
<g id="a_edge50_Node000026_Node000010"><a xlink:title=" ">
<path fill="none" stroke="#63b8ff" d="M1397.58,-110.06C1426.77,-91.43 1493.8,-48.65 1529.68,-25.75"/>
<polygon fill="#63b8ff" stroke="#63b8ff" points="1531.51,-28.73 1538.06,-20.4 1527.74,-22.83 1531.51,-28.73"/>
</a>
</g>
</g>
<!-- Node26&#45;&gt;Node13 -->
<g id="edge51_Node000026_Node000013" class="edge">
<title>Node26&#45;&gt;Node13</title>
<g id="a_edge51_Node000026_Node000013"><a xlink:title=" ">
<path fill="none" stroke="#63b8ff" d="M1412.21,-110.09C1440.05,-101.37 1482.45,-88.09 1513.51,-78.36"/>
<polygon fill="#63b8ff" stroke="#63b8ff" points="1514.45,-81.73 1522.95,-75.4 1512.36,-75.05 1514.45,-81.73"/>
</a>
</g>
</g>
<!-- Node26&#45;&gt;Node18 -->
<g id="edge48_Node000026_Node000018" class="edge">
<title>Node26&#45;&gt;Node18</title>
<g id="a_edge48_Node000026_Node000018"><a xlink:title=" ">
<path fill="none" stroke="#63b8ff" d="M1362.68,-110.09C1343.49,-101.72 1314.66,-89.13 1292.66,-79.53"/>
<polygon fill="#63b8ff" stroke="#63b8ff" points="1294.12,-76.35 1283.56,-75.56 1291.32,-82.77 1294.12,-76.35"/>
</a>
</g>
</g>
<!-- Node27 -->
<g id="Node000027" class="node">
<title>Node27</title>
<g id="a_Node000027"><a xlink:title=" ">
<polygon fill="#e0e0e0" stroke="#999999" points="1408.62,-74.5 1358.12,-74.5 1358.12,-55.25 1408.62,-55.25 1408.62,-74.5"/>
<text text-anchor="middle" x="1383.38" y="-61" font-family="Helvetica,sans-Serif" font-size="10.00">numeric</text>
</a>
</g>
</g>
<!-- Node26&#45;&gt;Node27 -->
<g id="edge49_Node000026_Node000027" class="edge">
<title>Node26&#45;&gt;Node27</title>
<g id="a_edge49_Node000026_Node000027"><a xlink:title=" ">
<path fill="none" stroke="#63b8ff" d="M1383.38,-110.33C1383.38,-103.82 1383.38,-94.67 1383.38,-86.37"/>
<polygon fill="#63b8ff" stroke="#63b8ff" points="1386.88,-86.37 1383.38,-76.37 1379.88,-86.37 1386.88,-86.37"/>
</a>
</g>
</g>
<!-- Node28&#45;&gt;Node11 -->
<g id="edge54_Node000028_Node000011" class="edge">
<title>Node28&#45;&gt;Node11</title>
<g id="a_edge54_Node000028_Node000011"><a xlink:title=" ">
<path fill="none" stroke="#63b8ff" d="M554.89,-167.48C558.09,-166.86 561.29,-166.26 564.38,-165.75 689.18,-144.96 838.81,-130.25 905.85,-124.2"/>
<polygon fill="#63b8ff" stroke="#63b8ff" points="905.85,-127.71 915.5,-123.34 905.22,-120.74 905.85,-127.71"/>
</a>
</g>
</g>
<!-- Node28&#45;&gt;Node14 -->
<g id="edge55_Node000028_Node000014" class="edge">
<title>Node28&#45;&gt;Node14</title>
<g id="a_edge55_Node000028_Node000014"><a xlink:title=" ">
<path fill="none" stroke="#63b8ff" d="M548.52,-165.31C599.62,-146.12 718.91,-101.34 778.38,-79.01"/>
<polygon fill="#63b8ff" stroke="#63b8ff" points="779.55,-82.31 787.68,-75.52 777.09,-75.76 779.55,-82.31"/>
</a>
</g>
</g>
<!-- Node29&#45;&gt;Node9 -->
<g id="edge57_Node000029_Node000009" class="edge">
<title>Node29&#45;&gt;Node9</title>
<g id="a_edge57_Node000029_Node000009"><a xlink:title=" ">
<path fill="none" stroke="#63b8ff" d="M1710.48,-110.25C1716.55,-92.92 1730.1,-54.23 1738.42,-30.49"/>
<polygon fill="#63b8ff" stroke="#63b8ff" points="1741.72,-31.65 1741.72,-21.06 1735.11,-29.34 1741.72,-31.65"/>
</a>
</g>
</g>
<!-- Node29&#45;&gt;Node10 -->
<g id="edge58_Node000029_Node000010" class="edge">
<title>Node29&#45;&gt;Node10</title>
<g id="a_edge58_Node000029_Node000010"><a xlink:title=" ">
<path fill="none" stroke="#63b8ff" d="M1707.23,-110.43C1706.53,-96.84 1703.2,-70.53 1688.38,-55.25 1661.51,-27.57 1617.15,-17.05 1586.65,-13.06"/>
<polygon fill="#63b8ff" stroke="#63b8ff" points="1587.15,-9.6 1576.82,-11.96 1586.37,-16.55 1587.15,-9.6"/>
</a>
</g>
</g>
<!-- Node29&#45;&gt;Node13 -->
<g id="edge60_Node000029_Node000013" class="edge">
<title>Node29&#45;&gt;Node13</title>
<g id="a_edge60_Node000029_Node000013"><a xlink:title=" ">
<path fill="none" stroke="#63b8ff" d="M1683.65,-110.92C1658.74,-102.31 1619.23,-88.65 1590.25,-78.63"/>
<polygon fill="#63b8ff" stroke="#63b8ff" points="1591.73,-75.44 1581.14,-75.48 1589.45,-82.05 1591.73,-75.44"/>
</a>
</g>
</g>
<!-- Node29&#45;&gt;Node20 -->
<g id="edge59_Node000029_Node000020" class="edge">
<title>Node29&#45;&gt;Node20</title>
<g id="a_edge59_Node000029_Node000020"><a xlink:title=" ">
<path fill="none" stroke="#63b8ff" d="M1696.69,-110.09C1687.67,-102.47 1674.54,-91.37 1663.69,-82.2"/>
<polygon fill="#63b8ff" stroke="#63b8ff" points="1665.96,-79.53 1656.06,-75.75 1661.44,-84.88 1665.96,-79.53"/>
</a>
</g>
</g>
<!-- Node30&#45;&gt;Node11 -->
<g id="edge62_Node000030_Node000011" class="edge">
<title>Node30&#45;&gt;Node11</title>
<g id="a_edge62_Node000030_Node000011"><a xlink:title=" ">
<path fill="none" stroke="#63b8ff" d="M1306.79,-166.8C1216.71,-155.54 1050.24,-134.73 977.25,-125.61"/>
<polygon fill="#63b8ff" stroke="#63b8ff" points="977.82,-122.15 967.46,-124.39 976.95,-129.1 977.82,-122.15"/>
</a>
</g>
</g>
<!-- Node30&#45;&gt;Node14 -->
<g id="edge64_Node000030_Node000014" class="edge">
<title>Node30&#45;&gt;Node14</title>
<g id="a_edge64_Node000030_Node000014"><a xlink:title=" ">
<path fill="none" stroke="#63b8ff" d="M1324.95,-165.27C1265.46,-152.59 1153.82,-129.06 1058.38,-110.5 993.21,-97.83 918.08,-84.31 868.38,-75.51"/>
<polygon fill="#63b8ff" stroke="#63b8ff" points="869.2,-72.1 858.74,-73.81 867.98,-78.99 869.2,-72.1"/>
</a>
</g>
</g>
<!-- Node30&#45;&gt;Node26 -->
<g id="edge63_Node000030_Node000026" class="edge">
<title>Node30&#45;&gt;Node26</title>
<g id="a_edge63_Node000030_Node000026"><a xlink:title=" ">
<path fill="none" stroke="#63b8ff" d="M1370.02,-165.58C1372.02,-158.92 1374.85,-149.49 1377.39,-141.03"/>
<polygon fill="#63b8ff" stroke="#63b8ff" points="1380.71,-142.14 1380.24,-131.56 1374.01,-140.13 1380.71,-142.14"/>
</a>
</g>
</g>
<!-- Node31&#45;&gt;Node11 -->
<g id="edge67_Node000031_Node000011" class="edge">
<title>Node31&#45;&gt;Node11</title>
<g id="a_edge67_Node000031_Node000011"><a xlink:title=" ">
<path fill="none" stroke="#63b8ff" d="M1444.81,-166.68C1441.96,-166.36 1439.14,-166.05 1436.38,-165.75 1264.63,-147.28 1058.79,-130.41 977.21,-123.93"/>
<polygon fill="#63b8ff" stroke="#63b8ff" points="977.62,-120.45 967.38,-123.15 977.07,-127.43 977.62,-120.45"/>
</a>
</g>
</g>
<!-- Node31&#45;&gt;Node14 -->
<g id="edge69_Node000031_Node000014" class="edge">
<title>Node31&#45;&gt;Node14</title>
<g id="a_edge69_Node000031_Node000014"><a xlink:title=" ">
<path fill="none" stroke="#63b8ff" d="M1452.22,-165.28C1377.67,-152.59 1237.81,-129.06 1118.38,-110.5 1008.75,-93.47 981.13,-90.66 871.38,-74.5 870.38,-74.35 869.38,-74.21 868.37,-74.06"/>
<polygon fill="#63b8ff" stroke="#63b8ff" points="869.29,-70.66 858.89,-72.66 868.27,-77.58 869.29,-70.66"/>
</a>
</g>
</g>
<!-- Node31&#45;&gt;Node26 -->
<g id="edge68_Node000031_Node000026" class="edge">
<title>Node31&#45;&gt;Node26</title>
<g id="a_edge68_Node000031_Node000026"><a xlink:title=" ">
<path fill="none" stroke="#63b8ff" d="M1484.68,-165.34C1465.49,-156.97 1436.66,-144.38 1414.66,-134.78"/>
<polygon fill="#63b8ff" stroke="#63b8ff" points="1416.12,-131.6 1405.56,-130.81 1413.32,-138.02 1416.12,-131.6"/>
</a>
</g>
</g>
<!-- Node32&#45;&gt;Node11 -->
<g id="edge71_Node000032_Node000011" class="edge">
<title>Node32&#45;&gt;Node11</title>
<g id="a_edge71_Node000032_Node000011"><a xlink:title=" ">
<path fill="none" stroke="#63b8ff" d="M1094.99,-165.34C1062.21,-155.9 1010.88,-141.13 976.69,-131.29"/>
<polygon fill="#63b8ff" stroke="#63b8ff" points="977.84,-127.98 967.26,-128.58 975.9,-134.71 977.84,-127.98"/>
</a>
</g>
</g>
<!-- Node32&#45;&gt;Node14 -->
<g id="edge73_Node000032_Node000014" class="edge">
<title>Node32&#45;&gt;Node14</title>
<g id="a_edge73_Node000032_Node000014"><a xlink:title=" ">
<path fill="none" stroke="#63b8ff" d="M1105.1,-165.35C1064.84,-148.28 980.93,-112.78 974.38,-110.5 937.36,-97.65 894.59,-85.94 862.43,-77.74"/>
<polygon fill="#63b8ff" stroke="#63b8ff" points="863.55,-74.41 853,-75.36 861.84,-81.2 863.55,-74.41"/>
</a>
</g>
</g>
<!-- Node32&#45;&gt;Node26 -->
<g id="edge72_Node000032_Node000026" class="edge">
<title>Node32&#45;&gt;Node26</title>
<g id="a_edge72_Node000032_Node000026"><a xlink:title=" ">
<path fill="none" stroke="#63b8ff" d="M1169.68,-165.4C1216.33,-155.74 1290.25,-140.42 1337.77,-130.57"/>
<polygon fill="#63b8ff" stroke="#63b8ff" points="1338.4,-134.02 1347.48,-128.56 1336.97,-127.16 1338.4,-134.02"/>
</a>
</g>
</g>
<!-- Node33&#45;&gt;Node11 -->
<g id="edge75_Node000033_Node000011" class="edge">
<title>Node33&#45;&gt;Node11</title>
<g id="a_edge75_Node000033_Node000011"><a xlink:title=" ">
<path fill="none" stroke="#63b8ff" d="M674.11,-165.88C738.94,-155.02 849.5,-136.51 905.94,-127.06"/>
<polygon fill="#63b8ff" stroke="#63b8ff" points="906.35,-130.54 915.64,-125.44 905.19,-123.63 906.35,-130.54"/>
</a>
</g>
</g>
<!-- Node33&#45;&gt;Node14 -->
<g id="edge76_Node000033_Node000014" class="edge">
<title>Node33&#45;&gt;Node14</title>
<g id="a_edge76_Node000033_Node000014"><a xlink:title=" ">
<path fill="none" stroke="#63b8ff" d="M639.25,-165.31C672.08,-146.56 747.71,-103.37 787.62,-80.58"/>
<polygon fill="#63b8ff" stroke="#63b8ff" points="789.15,-83.74 796.1,-75.74 785.68,-77.66 789.15,-83.74"/>
</a>
</g>
</g>
<!-- Node34&#45;&gt;Node11 -->
<g id="edge78_Node000034_Node000011" class="edge">
<title>Node34&#45;&gt;Node11</title>
<g id="a_edge78_Node000034_Node000011"><a xlink:title=" ">
<path fill="none" stroke="#63b8ff" d="M770.32,-165.34C808.08,-155.58 867.94,-140.11 905.9,-130.29"/>
<polygon fill="#63b8ff" stroke="#63b8ff" points="906.66,-133.71 915.47,-127.82 904.91,-126.94 906.66,-133.71"/>
</a>
</g>
</g>
<!-- Node34&#45;&gt;Node14 -->
<g id="edge79_Node000034_Node000014" class="edge">
<title>Node34&#45;&gt;Node14</title>
<g id="a_edge79_Node000034_Node000014"><a xlink:title=" ">
<path fill="none" stroke="#63b8ff" d="M741.76,-165.5C754.5,-147.77 783.31,-107.69 800.25,-84.13"/>
<polygon fill="#63b8ff" stroke="#63b8ff" points="803.02,-86.27 806.02,-76.11 797.34,-82.18 803.02,-86.27"/>
</a>
</g>
</g>
</g>
</svg>
