<?xml version="1.0" encoding="UTF-8" standalone="no"?>
<!DOCTYPE svg PUBLIC "-//W3C//DTD SVG 1.1//EN"
 "http://www.w3.org/Graphics/SVG/1.1/DTD/svg11.dtd">
<!-- Generated by graphviz version 9.0.0 (20230911.1827)
 -->
<!-- Title: model/Model.h Pages: 1 -->
<svg width="1826pt" height="304pt"
 viewBox="0.00 0.00 1825.88 303.50" xmlns="http://www.w3.org/2000/svg" xmlns:xlink="http://www.w3.org/1999/xlink">
<g id="graph0" class="graph" transform="scale(1 1) rotate(0) translate(4 299.5)">
<title>model/Model.h</title>
<!-- Node1 -->
<g id="Node000001" class="node">
<title>Node1</title>
<g id="a_Node000001"><a xlink:title="model::Model source file">
<polygon fill="#999999" stroke="#666666" points="1069.38,-295.5 990.38,-295.5 990.38,-276.25 1069.38,-276.25 1069.38,-295.5"/>
<text text-anchor="middle" x="1029.88" y="-282" font-family="Helvetica,sans-Serif" font-size="10.00">model/Model.h</text>
</a>
</g>
</g>
<!-- Node2 -->
<g id="Node000002" class="node">
<title>Node2</title>
<g id="a_Node000002"><a xlink:title=" ">
<polygon fill="#e0e0e0" stroke="#999999" points="55.75,-240.25 0,-240.25 0,-221 55.75,-221 55.75,-240.25"/>
<text text-anchor="middle" x="27.88" y="-226.75" font-family="Helvetica,sans-Serif" font-size="10.00">algorithm</text>
</a>
</g>
</g>
<!-- Node1&#45;&gt;Node2 -->
<g id="edge1_Node000001_Node000002" class="edge">
<title>Node1&#45;&gt;Node2</title>
<g id="a_edge1_Node000001_Node000002"><a xlink:title=" ">
<path fill="none" stroke="#63b8ff" d="M989.91,-285.24C857.98,-285.98 424.58,-284.64 69.88,-240.25 69.04,-240.15 68.21,-240.03 67.36,-239.92"/>
<polygon fill="#63b8ff" stroke="#63b8ff" points="68.17,-236.5 57.73,-238.32 67.03,-243.41 68.17,-236.5"/>
</a>
</g>
</g>
<!-- Node3 -->
<g id="Node000003" class="node">
<title>Node3</title>
<g id="a_Node000003"><a xlink:title=" ">
<polygon fill="#e0e0e0" stroke="#999999" points="459.27,-74.5 430.48,-74.5 430.48,-55.25 459.27,-55.25 459.27,-74.5"/>
<text text-anchor="middle" x="444.88" y="-61" font-family="Helvetica,sans-Serif" font-size="10.00">list</text>
</a>
</g>
</g>
<!-- Node1&#45;&gt;Node3 -->
<g id="edge2_Node000001_Node000003" class="edge">
<title>Node1&#45;&gt;Node3</title>
<g id="a_edge2_Node000001_Node000003"><a xlink:title=" ">
<path fill="none" stroke="#63b8ff" d="M989.94,-283.88C857.4,-280.37 432.87,-267.23 298.88,-240.25 225.95,-225.57 183.93,-245.67 140.88,-185 70.28,-85.53 333.16,-69.11 418.77,-66.41"/>
<polygon fill="#63b8ff" stroke="#63b8ff" points="418.86,-69.91 428.76,-66.14 418.67,-62.91 418.86,-69.91"/>
</a>
</g>
</g>
<!-- Node4 -->
<g id="Node000004" class="node">
<title>Node4</title>
<g id="a_Node000004"><a xlink:title=" ">
<polygon fill="#e0e0e0" stroke="#999999" points="1500.25,-19.25 1465.5,-19.25 1465.5,0 1500.25,0 1500.25,-19.25"/>
<text text-anchor="middle" x="1482.88" y="-5.75" font-family="Helvetica,sans-Serif" font-size="10.00">map</text>
</a>
</g>
</g>
<!-- Node1&#45;&gt;Node4 -->
<g id="edge3_Node000001_Node000004" class="edge">
<title>Node1&#45;&gt;Node4</title>
<g id="a_edge3_Node000001_Node000004"><a xlink:title=" ">
<path fill="none" stroke="#63b8ff" d="M1069.76,-282.85C1160.05,-277.91 1377.62,-263.86 1446.88,-240.25 1491.3,-225.1 1513.96,-225.96 1536.88,-185 1552.18,-157.64 1529.85,-156.8 1501.88,-74.5 1496.85,-59.72 1491.85,-42.79 1488.24,-30.07"/>
<polygon fill="#63b8ff" stroke="#63b8ff" points="1491.72,-29.52 1485.65,-20.83 1484.98,-31.4 1491.72,-29.52"/>
</a>
</g>
</g>
<!-- Node5 -->
<g id="Node000005" class="node">
<title>Node5</title>
<g id="a_Node000005"><a xlink:title=" ">
<polygon fill="#e0e0e0" stroke="#999999" points="399.12,-19.25 348.62,-19.25 348.62,0 399.12,0 399.12,-19.25"/>
<text text-anchor="middle" x="373.88" y="-5.75" font-family="Helvetica,sans-Serif" font-size="10.00">memory</text>
</a>
</g>
</g>
<!-- Node1&#45;&gt;Node5 -->
<g id="edge4_Node000001_Node000005" class="edge">
<title>Node1&#45;&gt;Node5</title>
<g id="a_edge4_Node000001_Node000005"><a xlink:title=" ">
<path fill="none" stroke="#63b8ff" d="M990,-284.05C832.08,-280.59 255.31,-266.3 177.88,-240.25 130,-224.14 83.88,-226.89 83.88,-176.38 83.88,-176.38 83.88,-176.38 83.88,-119.12 83.88,-65.69 258.75,-29.82 336.9,-16.45"/>
<polygon fill="#63b8ff" stroke="#63b8ff" points="337.36,-19.93 346.65,-14.82 336.21,-13.02 337.36,-19.93"/>
</a>
</g>
</g>
<!-- Node6 -->
<g id="Node000006" class="node">
<title>Node6</title>
<g id="a_Node000006"><a xlink:title=" ">
<polygon fill="#e0e0e0" stroke="#999999" points="1799.88,-19.25 1759.88,-19.25 1759.88,0 1799.88,0 1799.88,-19.25"/>
<text text-anchor="middle" x="1779.88" y="-5.75" font-family="Helvetica,sans-Serif" font-size="10.00">string</text>
</a>
</g>
</g>
<!-- Node1&#45;&gt;Node6 -->
<g id="edge5_Node000001_Node000006" class="edge">
<title>Node1&#45;&gt;Node6</title>
<g id="a_edge5_Node000001_Node000006"><a xlink:title=" ">
<path fill="none" stroke="#63b8ff" d="M1069.53,-284.89C1197.17,-284.52 1596.17,-280.12 1717.88,-240.25 1767.99,-223.83 1817.88,-229.11 1817.88,-176.38 1817.88,-176.38 1817.88,-176.38 1817.88,-119.12 1817.88,-86.13 1802.03,-50.51 1790.81,-29.41"/>
<polygon fill="#63b8ff" stroke="#63b8ff" points="1793.97,-27.9 1786.05,-20.86 1787.85,-31.3 1793.97,-27.9"/>
</a>
</g>
</g>
<!-- Node7 -->
<g id="Node000007" class="node">
<title>Node7</title>
<g id="a_Node000007"><a xlink:title=" ">
<polygon fill="#e0e0e0" stroke="#999999" points="1571.38,-19.25 1528.38,-19.25 1528.38,0 1571.38,0 1571.38,-19.25"/>
<text text-anchor="middle" x="1549.88" y="-5.75" font-family="Helvetica,sans-Serif" font-size="10.00">vector</text>
</a>
</g>
</g>
<!-- Node1&#45;&gt;Node7 -->
<g id="edge6_Node000001_Node000007" class="edge">
<title>Node1&#45;&gt;Node7</title>
<g id="a_edge6_Node000001_Node000007"><a xlink:title=" ">
<path fill="none" stroke="#63b8ff" d="M1069.47,-283.98C1203.19,-280.71 1632.77,-268.13 1687.88,-240.25 1721.05,-223.47 1741.88,-213.55 1741.88,-176.38 1741.88,-176.38 1741.88,-176.38 1741.88,-119.12 1741.88,-46.89 1637.6,-22.2 1582.74,-14.2"/>
<polygon fill="#63b8ff" stroke="#63b8ff" points="1583.4,-10.76 1573.03,-12.9 1582.47,-17.7 1583.4,-10.76"/>
</a>
</g>
</g>
<!-- Node8 -->
<g id="Node000008" class="node">
<title>Node8</title>
<g id="a_Node000008"><a xlink:href="_block_8h.html" target="_top" xlink:title="model::Block source file">
<polygon fill="white" stroke="#666666" points="959,-129.75 910.75,-129.75 910.75,-110.5 959,-110.5 959,-129.75"/>
<text text-anchor="middle" x="934.88" y="-116.25" font-family="Helvetica,sans-Serif" font-size="10.00">Block.h</text>
</a>
</g>
</g>
<!-- Node1&#45;&gt;Node8 -->
<g id="edge7_Node000001_Node000008" class="edge">
<title>Node1&#45;&gt;Node8</title>
<g id="a_edge7_Node000001_Node000008"><a xlink:title=" ">
<path fill="none" stroke="#63b8ff" d="M1025.3,-275.99C1011.52,-249.25 971.15,-170.99 967.88,-165.75 962.2,-156.67 955.24,-147.07 949.17,-139.11"/>
<polygon fill="#63b8ff" stroke="#63b8ff" points="951.97,-137 943.06,-131.25 946.44,-141.3 951.97,-137"/>
</a>
</g>
</g>
<!-- Node10 -->
<g id="Node000010" class="node">
<title>Node10</title>
<g id="a_Node000010"><a xlink:href="_d_o_f_handler_8h.html" target="_top" xlink:title="model::DOFHandler source file">
<polygon fill="white" stroke="#666666" points="1588.62,-74.5 1511.12,-74.5 1511.12,-55.25 1588.62,-55.25 1588.62,-74.5"/>
<text text-anchor="middle" x="1549.88" y="-61" font-family="Helvetica,sans-Serif" font-size="10.00">DOFHandler.h</text>
</a>
</g>
</g>
<!-- Node1&#45;&gt;Node10 -->
<g id="edge41_Node000001_Node000010" class="edge">
<title>Node1&#45;&gt;Node10</title>
<g id="a_edge41_Node000001_Node000010"><a xlink:title=" ">
<path fill="none" stroke="#63b8ff" d="M1069.44,-284.97C1196.93,-284.86 1590.87,-281.19 1628.88,-240.25 1673.07,-192.64 1603.74,-116.1 1568.47,-82.54"/>
<polygon fill="#63b8ff" stroke="#63b8ff" points="1571.14,-80.25 1561.43,-76.01 1566.38,-85.38 1571.14,-80.25"/>
</a>
</g>
</g>
<!-- Node15 -->
<g id="Node000015" class="node">
<title>Node15</title>
<g id="a_Node000015"><a xlink:href="_blood_vessel_8h.html" target="_top" xlink:title="model::BloodVessel source file">
<polygon fill="white" stroke="#666666" points="1131,-185 1052.75,-185 1052.75,-165.75 1131,-165.75 1131,-185"/>
<text text-anchor="middle" x="1091.88" y="-171.5" font-family="Helvetica,sans-Serif" font-size="10.00">BloodVessel.h</text>
</a>
</g>
</g>
<!-- Node1&#45;&gt;Node15 -->
<g id="edge21_Node000001_Node000015" class="edge">
<title>Node1&#45;&gt;Node15</title>
<g id="a_edge21_Node000001_Node000015"><a xlink:title=" ">
<path fill="none" stroke="#63b8ff" d="M1069.68,-279.92C1094.37,-274.56 1124.28,-263.41 1139.88,-240.25 1151.32,-223.26 1133.59,-204.62 1116.54,-191.88"/>
<polygon fill="#63b8ff" stroke="#63b8ff" points="1118.77,-189.17 1108.56,-186.33 1114.77,-194.92 1118.77,-189.17"/>
</a>
</g>
</g>
<!-- Node17 -->
<g id="Node000017" class="node">
<title>Node17</title>
<g id="a_Node000017"><a xlink:href="_blood_vessel_junction_8h.html" target="_top" xlink:title="model::BloodVesselJunction source file">
<polygon fill="white" stroke="#666666" points="1130.38,-240.25 1015.38,-240.25 1015.38,-221 1130.38,-221 1130.38,-240.25"/>
<text text-anchor="middle" x="1072.88" y="-226.75" font-family="Helvetica,sans-Serif" font-size="10.00">BloodVesselJunction.h</text>
</a>
</g>
</g>
<!-- Node1&#45;&gt;Node17 -->
<g id="edge25_Node000001_Node000017" class="edge">
<title>Node1&#45;&gt;Node17</title>
<g id="a_edge25_Node000001_Node000017"><a xlink:title=" ">
<path fill="none" stroke="#63b8ff" d="M1036.98,-276.08C1042.79,-268.88 1051.21,-258.46 1058.43,-249.51"/>
<polygon fill="#63b8ff" stroke="#63b8ff" points="1061.11,-251.77 1064.67,-241.79 1055.66,-247.37 1061.11,-251.77"/>
</a>
</g>
</g>
<!-- Node19 -->
<g id="Node000019" class="node">
<title>Node19</title>
<g id="a_Node000019"><a xlink:href="_closed_loop_coronary_b_c_8h.html" target="_top" xlink:title="model::ClosedLoopCoronaryBC source file">
<polygon fill="white" stroke="#666666" points="485.38,-240.25 358.38,-240.25 358.38,-221 485.38,-221 485.38,-240.25"/>
<text text-anchor="middle" x="421.88" y="-226.75" font-family="Helvetica,sans-Serif" font-size="10.00">ClosedLoopCoronaryBC.h</text>
</a>
</g>
</g>
<!-- Node1&#45;&gt;Node19 -->
<g id="edge30_Node000001_Node000019" class="edge">
<title>Node1&#45;&gt;Node19</title>
<g id="a_edge30_Node000001_Node000019"><a xlink:title=" ">
<path fill="none" stroke="#63b8ff" d="M989.96,-281.45C903.65,-274.05 693.19,-255.92 516.88,-240.25 510.43,-239.68 503.74,-239.08 497.02,-238.47"/>
<polygon fill="#63b8ff" stroke="#63b8ff" points="497.53,-235.01 487.26,-237.59 496.9,-241.98 497.53,-235.01"/>
</a>
</g>
</g>
<!-- Node20 -->
<g id="Node000020" class="node">
<title>Node20</title>
<g id="a_Node000020"><a xlink:href="_closed_loop_heart_pulmonary_8h.html" target="_top" xlink:title="model::ClosedLoopHeartPulmonary source file">
<polygon fill="white" stroke="#666666" points="295.38,-185 150.38,-185 150.38,-165.75 295.38,-165.75 295.38,-185"/>
<text text-anchor="middle" x="222.88" y="-171.5" font-family="Helvetica,sans-Serif" font-size="10.00">ClosedLoopHeartPulmonary.h</text>
</a>
</g>
</g>
<!-- Node1&#45;&gt;Node20 -->
<g id="edge37_Node000001_Node000020" class="edge">
<title>Node1&#45;&gt;Node20</title>
<g id="a_edge37_Node000001_Node000020"><a xlink:title=" ">
<path fill="none" stroke="#63b8ff" d="M989.89,-284.36C863.03,-282.38 470.86,-273.66 348.88,-240.25 310.38,-229.71 269.9,-206.75 245.53,-191.43"/>
<polygon fill="#63b8ff" stroke="#63b8ff" points="247.7,-188.66 237.39,-186.21 243.91,-194.55 247.7,-188.66"/>
</a>
</g>
</g>
<!-- Node22 -->
<g id="Node000022" class="node">
<title>Node22</title>
<g id="a_Node000022"><a xlink:href="_closed_loop_r_c_r_b_c_8h.html" target="_top" xlink:title="model::ClosedLoopRCRBC source file">
<polygon fill="white" stroke="#666666" points="684.38,-185 575.38,-185 575.38,-165.75 684.38,-165.75 684.38,-185"/>
<text text-anchor="middle" x="629.88" y="-171.5" font-family="Helvetica,sans-Serif" font-size="10.00">ClosedLoopRCRBC.h</text>
</a>
</g>
</g>
<!-- Node1&#45;&gt;Node22 -->
<g id="edge38_Node000001_Node000022" class="edge">
<title>Node1&#45;&gt;Node22</title>
<g id="a_edge38_Node000001_Node000022"><a xlink:title=" ">
<path fill="none" stroke="#63b8ff" d="M996.46,-275.81C924.55,-256.3 755.1,-210.34 674.27,-188.42"/>
<polygon fill="#63b8ff" stroke="#63b8ff" points="675.51,-185.13 664.94,-185.89 673.67,-191.88 675.51,-185.13"/>
</a>
</g>
</g>
<!-- Node23 -->
<g id="Node000023" class="node">
<title>Node23</title>
<g id="a_Node000023"><a xlink:href="_flow_reference_b_c_8h.html" target="_top" xlink:title="model::FlowReferenceBC source file">
<polygon fill="white" stroke="#666666" points="959,-185 856.75,-185 856.75,-165.75 959,-165.75 959,-185"/>
<text text-anchor="middle" x="907.88" y="-171.5" font-family="Helvetica,sans-Serif" font-size="10.00">FlowReferenceBC.h</text>
</a>
</g>
</g>
<!-- Node1&#45;&gt;Node23 -->
<g id="edge42_Node000001_Node000023" class="edge">
<title>Node1&#45;&gt;Node23</title>
<g id="a_edge42_Node000001_Node000023"><a xlink:title=" ">
<path fill="none" stroke="#63b8ff" d="M1017.77,-276.02C1006.01,-267.28 987.8,-253.35 972.88,-240.25 955.68,-225.15 937.17,-206.73 924.31,-193.55"/>
<polygon fill="#63b8ff" stroke="#63b8ff" points="926.93,-191.22 917.46,-186.46 921.89,-196.09 926.93,-191.22"/>
</a>
</g>
</g>
<!-- Node24 -->
<g id="Node000024" class="node">
<title>Node24</title>
<g id="a_Node000024"><a xlink:href="_parameter_8h.html" target="_top" xlink:title="model::Parameter source file">
<polygon fill="white" stroke="#666666" points="1393.12,-129.75 1324.62,-129.75 1324.62,-110.5 1393.12,-110.5 1393.12,-129.75"/>
<text text-anchor="middle" x="1358.88" y="-116.25" font-family="Helvetica,sans-Serif" font-size="10.00">Parameter.h</text>
</a>
</g>
</g>
<!-- Node1&#45;&gt;Node24 -->
<g id="edge62_Node000001_Node000024" class="edge">
<title>Node1&#45;&gt;Node24</title>
<g id="a_edge62_Node000001_Node000024"><a xlink:title=" ">
<path fill="none" stroke="#63b8ff" d="M1069.51,-283.06C1175.88,-277.27 1463.37,-255.29 1519.88,-185 1553.26,-143.47 1463.3,-128.83 1404.75,-123.75"/>
<polygon fill="#63b8ff" stroke="#63b8ff" points="1405.26,-120.28 1395.01,-122.98 1404.7,-127.26 1405.26,-120.28"/>
</a>
</g>
</g>
<!-- Node26 -->
<g id="Node000026" class="node">
<title>Node26</title>
<g id="a_Node000026"><a xlink:href="_junction_8h.html" target="_top" xlink:title="model::Junction source file">
<polygon fill="white" stroke="#666666" points="801,-185 740.75,-185 740.75,-165.75 801,-165.75 801,-185"/>
<text text-anchor="middle" x="770.88" y="-171.5" font-family="Helvetica,sans-Serif" font-size="10.00">Junction.h</text>
</a>
</g>
</g>
<!-- Node1&#45;&gt;Node26 -->
<g id="edge50_Node000001_Node000026" class="edge">
<title>Node1&#45;&gt;Node26</title>
<g id="a_edge50_Node000001_Node000026"><a xlink:title=" ">
<path fill="none" stroke="#63b8ff" d="M1008.24,-275.81C962.72,-256.74 856.86,-212.4 803.24,-189.93"/>
<polygon fill="#63b8ff" stroke="#63b8ff" points="804.6,-186.71 794.03,-186.07 801.9,-193.17 804.6,-186.71"/>
</a>
</g>
</g>
<!-- Node27 -->
<g id="Node000027" class="node">
<title>Node27</title>
<g id="a_Node000027"><a xlink:href="_node_8h.html" target="_top" xlink:title="model::Node source file">
<polygon fill="white" stroke="#666666" points="1714.25,-129.75 1667.5,-129.75 1667.5,-110.5 1714.25,-110.5 1714.25,-129.75"/>
<text text-anchor="middle" x="1690.88" y="-116.25" font-family="Helvetica,sans-Serif" font-size="10.00">Node.h</text>
</a>
</g>
</g>
<!-- Node1&#45;&gt;Node27 -->
<g id="edge53_Node000001_Node000027" class="edge">
<title>Node1&#45;&gt;Node27</title>
<g id="a_edge53_Node000001_Node000027"><a xlink:title=" ">
<path fill="none" stroke="#63b8ff" d="M1069.75,-284.84C1202.26,-284.34 1622.06,-279.63 1666.88,-240.25 1694.92,-215.6 1695.66,-168.1 1693.44,-141.13"/>
<polygon fill="#63b8ff" stroke="#63b8ff" points="1696.96,-141.11 1692.42,-131.53 1690,-141.84 1696.96,-141.11"/>
</a>
</g>
</g>
<!-- Node28 -->
<g id="Node000028" class="node">
<title>Node28</title>
<g id="a_Node000028"><a xlink:href="_open_loop_coronary_b_c_8h.html" target="_top" xlink:title="model::OpenLoopCoronaryBC source file">
<polygon fill="white" stroke="#666666" points="1269,-185 1148.75,-185 1148.75,-165.75 1269,-165.75 1269,-185"/>
<text text-anchor="middle" x="1208.88" y="-171.5" font-family="Helvetica,sans-Serif" font-size="10.00">OpenLoopCoronaryBC.h</text>
</a>
</g>
</g>
<!-- Node1&#45;&gt;Node28 -->
<g id="edge58_Node000001_Node000028" class="edge">
<title>Node1&#45;&gt;Node28</title>
<g id="a_edge58_Node000001_Node000028"><a xlink:title=" ">
<path fill="none" stroke="#63b8ff" d="M1069.83,-276.34C1095.7,-269.49 1129.21,-258.03 1154.88,-240.25 1172.55,-228 1187.84,-208.56 1197.6,-194.33"/>
<polygon fill="#63b8ff" stroke="#63b8ff" points="1200.28,-196.62 1202.84,-186.34 1194.43,-192.78 1200.28,-196.62"/>
</a>
</g>
</g>
<!-- Node29 -->
<g id="Node000029" class="node">
<title>Node29</title>
<g id="a_Node000029"><a xlink:href="_pressure_reference_b_c_8h.html" target="_top" xlink:title="model::PressureReferenceBC source file">
<polygon fill="white" stroke="#666666" points="1407,-185 1286.75,-185 1286.75,-165.75 1407,-165.75 1407,-185"/>
<text text-anchor="middle" x="1346.88" y="-171.5" font-family="Helvetica,sans-Serif" font-size="10.00">PressureReferenceBC.h</text>
</a>
</g>
</g>
<!-- Node1&#45;&gt;Node29 -->
<g id="edge63_Node000001_Node000029" class="edge">
<title>Node1&#45;&gt;Node29</title>
<g id="a_edge63_Node000001_Node000029"><a xlink:title=" ">
<path fill="none" stroke="#63b8ff" d="M1062.64,-275.8C1092.98,-267.22 1139.24,-253.7 1178.88,-240.25 1226.26,-224.17 1280.21,-203.17 1313.9,-189.72"/>
<polygon fill="#63b8ff" stroke="#63b8ff" points="1315.12,-193 1323.1,-186.03 1312.52,-186.51 1315.12,-193"/>
</a>
</g>
</g>
<!-- Node30 -->
<g id="Node000030" class="node">
<title>Node30</title>
<g id="a_Node000030"><a xlink:href="_resistance_b_c_8h.html" target="_top" xlink:title="model::ResistanceBC source file">
<polygon fill="white" stroke="#666666" points="1510.75,-185 1425,-185 1425,-165.75 1510.75,-165.75 1510.75,-185"/>
<text text-anchor="middle" x="1467.88" y="-171.5" font-family="Helvetica,sans-Serif" font-size="10.00">ResistanceBC.h</text>
</a>
</g>
</g>
<!-- Node1&#45;&gt;Node30 -->
<g id="edge67_Node000001_Node000030" class="edge">
<title>Node1&#45;&gt;Node30</title>
<g id="a_edge67_Node000001_Node000030"><a xlink:title=" ">
<path fill="none" stroke="#63b8ff" d="M1069.17,-275.75C1107.24,-266.87 1166.57,-252.89 1217.88,-240.25 1289.3,-222.65 1371.96,-201.35 1422.05,-188.33"/>
<polygon fill="#63b8ff" stroke="#63b8ff" points="1422.88,-191.73 1431.68,-185.83 1421.12,-184.96 1422.88,-191.73"/>
</a>
</g>
</g>
<!-- Node31 -->
<g id="Node000031" class="node">
<title>Node31</title>
<g id="a_Node000031"><a xlink:href="_resistive_junction_8h.html" target="_top" xlink:title="model::ResistiveJunction source file">
<polygon fill="white" stroke="#666666" points="452.25,-185 351.5,-185 351.5,-165.75 452.25,-165.75 452.25,-185"/>
<text text-anchor="middle" x="401.88" y="-171.5" font-family="Helvetica,sans-Serif" font-size="10.00">ResistiveJunction.h</text>
</a>
</g>
</g>
<!-- Node1&#45;&gt;Node31 -->
<g id="edge71_Node000001_Node000031" class="edge">
<title>Node1&#45;&gt;Node31</title>
<g id="a_edge71_Node000001_Node000031"><a xlink:title=" ">
<path fill="none" stroke="#63b8ff" d="M990.09,-280.12C929.75,-272.72 811.58,-257.5 711.88,-240.25 620.12,-224.38 514.01,-201.53 452.75,-187.9"/>
<polygon fill="#63b8ff" stroke="#63b8ff" points="453.85,-184.56 443.33,-185.79 452.32,-191.39 453.85,-184.56"/>
</a>
</g>
</g>
<!-- Node32 -->
<g id="Node000032" class="node">
<title>Node32</title>
<g id="a_Node000032"><a xlink:href="_windkessel_b_c_8h.html" target="_top" xlink:title="model::WindkesselBC source file">
<polygon fill="white" stroke="#666666" points="557.5,-185 470.25,-185 470.25,-165.75 557.5,-165.75 557.5,-185"/>
<text text-anchor="middle" x="513.88" y="-171.5" font-family="Helvetica,sans-Serif" font-size="10.00">WindkesselBC.h</text>
</a>
</g>
</g>
<!-- Node1&#45;&gt;Node32 -->
<g id="edge74_Node000001_Node000032" class="edge">
<title>Node1&#45;&gt;Node32</title>
<g id="a_edge74_Node000001_Node000032"><a xlink:title=" ">
<path fill="none" stroke="#63b8ff" d="M990.04,-277.34C944.67,-268.68 868.34,-253.92 802.88,-240.25 719.17,-222.78 622.18,-201.03 564.53,-187.95"/>
<polygon fill="#63b8ff" stroke="#63b8ff" points="565.55,-184.59 555.02,-185.79 564,-191.42 565.55,-184.59"/>
</a>
</g>
</g>
<!-- Node8&#45;&gt;Node3 -->
<g id="edge9_Node000008_Node000003" class="edge">
<title>Node8&#45;&gt;Node3</title>
<g id="a_edge9_Node000008_Node000003"><a xlink:title=" ">
<path fill="none" stroke="#63b8ff" d="M910.58,-116.48C827.65,-107.47 556.24,-77.98 470.84,-68.7"/>
<polygon fill="#63b8ff" stroke="#63b8ff" points="471.25,-65.22 460.93,-67.62 470.49,-72.18 471.25,-65.22"/>
</a>
</g>
</g>
<!-- Node8&#45;&gt;Node4 -->
<g id="edge10_Node000008_Node000004" class="edge">
<title>Node8&#45;&gt;Node4</title>
<g id="a_edge10_Node000008_Node000004"><a xlink:title=" ">
<path fill="none" stroke="#63b8ff" d="M934.62,-110.46C934.72,-96.4 937.18,-68.83 953.88,-55.25 992.82,-23.57 1348.64,-13.49 1453.76,-11.19"/>
<polygon fill="#63b8ff" stroke="#63b8ff" points="1453.6,-14.7 1463.52,-10.99 1453.45,-7.7 1453.6,-14.7"/>
</a>
</g>
</g>
<!-- Node8&#45;&gt;Node7 -->
<g id="edge11_Node000008_Node000007" class="edge">
<title>Node8&#45;&gt;Node7</title>
<g id="a_edge11_Node000008_Node000007"><a xlink:title=" ">
<path fill="none" stroke="#63b8ff" d="M959.33,-112.25C1006.09,-99.33 1111.54,-71.29 1201.88,-55.25 1337.14,-31.23 1373.3,-41.41 1508.88,-19.25 1511.54,-18.81 1514.29,-18.32 1517.06,-17.8"/>
<polygon fill="#63b8ff" stroke="#63b8ff" points="1517.64,-21.26 1526.76,-15.86 1516.26,-14.39 1517.64,-21.26"/>
</a>
</g>
</g>
<!-- Node9 -->
<g id="Node000009" class="node">
<title>Node9</title>
<g id="a_Node000009"><a xlink:title=" ">
<polygon fill="#e0e0e0" stroke="#999999" points="1026.5,-74.5 963.25,-74.5 963.25,-55.25 1026.5,-55.25 1026.5,-74.5"/>
<text text-anchor="middle" x="994.88" y="-61" font-family="Helvetica,sans-Serif" font-size="10.00">Eigen/Core</text>
</a>
</g>
</g>
<!-- Node8&#45;&gt;Node9 -->
<g id="edge8_Node000008_Node000009" class="edge">
<title>Node8&#45;&gt;Node9</title>
<g id="a_edge8_Node000008_Node000009"><a xlink:title=" ">
<path fill="none" stroke="#63b8ff" d="M945.05,-110.09C953.64,-102.47 966.14,-91.37 976.48,-82.2"/>
<polygon fill="#63b8ff" stroke="#63b8ff" points="978.56,-85.04 983.72,-75.78 973.91,-79.8 978.56,-85.04"/>
</a>
</g>
</g>
<!-- Node8&#45;&gt;Node10 -->
<g id="edge12_Node000008_Node000010" class="edge">
<title>Node8&#45;&gt;Node10</title>
<g id="a_edge12_Node000008_Node000010"><a xlink:title=" ">
<path fill="none" stroke="#63b8ff" d="M959.36,-117C1050.89,-109.08 1374.07,-81.1 1499.54,-70.23"/>
<polygon fill="#63b8ff" stroke="#63b8ff" points="1499.54,-73.75 1509.2,-69.4 1498.93,-66.77 1499.54,-73.75"/>
</a>
</g>
</g>
<!-- Node11 -->
<g id="Node000011" class="node">
<title>Node11</title>
<g id="a_Node000011"><a xlink:href="_sparse_system_8h.html" target="_top" xlink:title="SparseSystem source file.">
<polygon fill="white" stroke="#666666" points="848.5,-74.5 761.25,-74.5 761.25,-55.25 848.5,-55.25 848.5,-74.5"/>
<text text-anchor="middle" x="804.88" y="-61" font-family="Helvetica,sans-Serif" font-size="10.00">SparseSystem.h</text>
</a>
</g>
</g>
<!-- Node8&#45;&gt;Node11 -->
<g id="edge16_Node000008_Node000011" class="edge">
<title>Node8&#45;&gt;Node11</title>
<g id="a_edge16_Node000008_Node000011"><a xlink:title=" ">
<path fill="none" stroke="#63b8ff" d="M912.82,-110.09C892.19,-101.64 861.09,-88.9 837.57,-79.27"/>
<polygon fill="#63b8ff" stroke="#63b8ff" points="839.02,-76.08 828.44,-75.53 836.36,-82.56 839.02,-76.08"/>
</a>
</g>
</g>
<!-- Node10&#45;&gt;Node4 -->
<g id="edge13_Node000010_Node000004" class="edge">
<title>Node10&#45;&gt;Node4</title>
<g id="a_edge13_Node000010_Node000004"><a xlink:title=" ">
<path fill="none" stroke="#63b8ff" d="M1538.51,-54.84C1528.83,-47.15 1514.68,-35.9 1503.07,-26.68"/>
<polygon fill="#63b8ff" stroke="#63b8ff" points="1505.26,-23.95 1495.26,-20.47 1500.91,-29.43 1505.26,-23.95"/>
</a>
</g>
</g>
<!-- Node10&#45;&gt;Node6 -->
<g id="edge14_Node000010_Node000006" class="edge">
<title>Node10&#45;&gt;Node6</title>
<g id="a_edge14_Node000010_Node000006"><a xlink:title=" ">
<path fill="none" stroke="#63b8ff" d="M1588.89,-54.84C1633.9,-44.42 1707.01,-27.5 1748.5,-17.89"/>
<polygon fill="#63b8ff" stroke="#63b8ff" points="1749.13,-21.34 1758.09,-15.67 1747.55,-14.52 1749.13,-21.34"/>
</a>
</g>
</g>
<!-- Node10&#45;&gt;Node7 -->
<g id="edge15_Node000010_Node000007" class="edge">
<title>Node10&#45;&gt;Node7</title>
<g id="a_edge15_Node000010_Node000007"><a xlink:title=" ">
<path fill="none" stroke="#63b8ff" d="M1549.88,-55.08C1549.88,-48.57 1549.88,-39.42 1549.88,-31.12"/>
<polygon fill="#63b8ff" stroke="#63b8ff" points="1553.38,-31.12 1549.88,-21.12 1546.38,-31.12 1553.38,-31.12"/>
</a>
</g>
</g>
<!-- Node11&#45;&gt;Node5 -->
<g id="edge20_Node000011_Node000005" class="edge">
<title>Node11&#45;&gt;Node5</title>
<g id="a_edge20_Node000011_Node000005"><a xlink:title=" ">
<path fill="none" stroke="#63b8ff" d="M760.78,-58.43C675.58,-47.9 489.79,-24.95 410.7,-15.18"/>
<polygon fill="#63b8ff" stroke="#63b8ff" points="411.25,-11.72 400.9,-13.96 410.39,-18.66 411.25,-11.72"/>
</a>
</g>
</g>
<!-- Node12 -->
<g id="Node000012" class="node">
<title>Node12</title>
<g id="a_Node000012"><a xlink:title=" ">
<polygon fill="#e0e0e0" stroke="#999999" points="923.75,-19.25 850,-19.25 850,0 923.75,0 923.75,-19.25"/>
<text text-anchor="middle" x="886.88" y="-5.75" font-family="Helvetica,sans-Serif" font-size="10.00">Eigen/Sparse</text>
</a>
</g>
</g>
<!-- Node11&#45;&gt;Node12 -->
<g id="edge17_Node000011_Node000012" class="edge">
<title>Node11&#45;&gt;Node12</title>
<g id="a_edge17_Node000011_Node000012"><a xlink:title=" ">
<path fill="none" stroke="#63b8ff" d="M818.79,-54.84C831.04,-46.89 849.13,-35.14 863.59,-25.75"/>
<polygon fill="#63b8ff" stroke="#63b8ff" points="865.15,-28.91 871.63,-20.53 861.33,-23.04 865.15,-28.91"/>
</a>
</g>
</g>
<!-- Node13 -->
<g id="Node000013" class="node">
<title>Node13</title>
<g id="a_Node000013"><a xlink:title=" ">
<polygon fill="#e0e0e0" stroke="#999999" points="760.5,-19.25 673.25,-19.25 673.25,0 760.5,0 760.5,-19.25"/>
<text text-anchor="middle" x="716.88" y="-5.75" font-family="Helvetica,sans-Serif" font-size="10.00">Eigen/SparseLU</text>
</a>
</g>
</g>
<!-- Node11&#45;&gt;Node13 -->
<g id="edge18_Node000011_Node000013" class="edge">
<title>Node11&#45;&gt;Node13</title>
<g id="a_edge18_Node000011_Node000013"><a xlink:title=" ">
<path fill="none" stroke="#63b8ff" d="M789.95,-54.84C776.67,-46.81 757.01,-34.91 741.42,-25.48"/>
<polygon fill="#63b8ff" stroke="#63b8ff" points="743.54,-22.67 733.17,-20.49 739.91,-28.66 743.54,-22.67"/>
</a>
</g>
</g>
<!-- Node14 -->
<g id="Node000014" class="node">
<title>Node14</title>
<g id="a_Node000014"><a xlink:title=" ">
<polygon fill="#e0e0e0" stroke="#999999" points="831.62,-19.25 778.12,-19.25 778.12,0 831.62,0 831.62,-19.25"/>
<text text-anchor="middle" x="804.88" y="-5.75" font-family="Helvetica,sans-Serif" font-size="10.00">iostream</text>
</a>
</g>
</g>
<!-- Node11&#45;&gt;Node14 -->
<g id="edge19_Node000011_Node000014" class="edge">
<title>Node11&#45;&gt;Node14</title>
<g id="a_edge19_Node000011_Node000014"><a xlink:title=" ">
<path fill="none" stroke="#63b8ff" d="M804.88,-55.08C804.88,-48.57 804.88,-39.42 804.88,-31.12"/>
<polygon fill="#63b8ff" stroke="#63b8ff" points="808.38,-31.12 804.88,-21.12 801.38,-31.12 808.38,-31.12"/>
</a>
</g>
</g>
<!-- Node15&#45;&gt;Node8 -->
<g id="edge23_Node000015_Node000008" class="edge">
<title>Node15&#45;&gt;Node8</title>
<g id="a_edge23_Node000015_Node000008"><a xlink:title=" ">
<path fill="none" stroke="#63b8ff" d="M1065.24,-165.34C1039.06,-156.46 998.94,-142.86 970.13,-133.08"/>
<polygon fill="#63b8ff" stroke="#63b8ff" points="971.34,-129.8 960.74,-129.9 969.09,-136.43 971.34,-129.8"/>
</a>
</g>
</g>
<!-- Node15&#45;&gt;Node11 -->
<g id="edge24_Node000015_Node000011" class="edge">
<title>Node15&#45;&gt;Node11</title>
<g id="a_edge24_Node000015_Node000011"><a xlink:title=" ">
<path fill="none" stroke="#63b8ff" d="M1077.08,-165.46C1054.29,-152.03 1008.94,-126.5 967.88,-110.5 932.29,-96.64 890.76,-85.34 858.52,-77.58"/>
<polygon fill="#63b8ff" stroke="#63b8ff" points="859.54,-74.22 849,-75.33 857.93,-81.03 859.54,-74.22"/>
</a>
</g>
</g>
<!-- Node16 -->
<g id="Node000016" class="node">
<title>Node16</title>
<g id="a_Node000016"><a xlink:title=" ">
<polygon fill="#e0e0e0" stroke="#999999" points="1256.5,-74.5 1211.25,-74.5 1211.25,-55.25 1256.5,-55.25 1256.5,-74.5"/>
<text text-anchor="middle" x="1233.88" y="-61" font-family="Helvetica,sans-Serif" font-size="10.00">math.h</text>
</a>
</g>
</g>
<!-- Node15&#45;&gt;Node16 -->
<g id="edge22_Node000015_Node000016" class="edge">
<title>Node15&#45;&gt;Node16</title>
<g id="a_edge22_Node000015_Node000016"><a xlink:title=" ">
<path fill="none" stroke="#63b8ff" d="M1103.5,-165.5C1127.52,-147.14 1182.95,-104.79 1213.22,-81.66"/>
<polygon fill="#63b8ff" stroke="#63b8ff" points="1215.07,-84.65 1220.89,-75.8 1210.82,-79.09 1215.07,-84.65"/>
</a>
</g>
</g>
<!-- Node17&#45;&gt;Node8 -->
<g id="edge26_Node000017_Node000008" class="edge">
<title>Node17&#45;&gt;Node8</title>
<g id="a_edge26_Node000017_Node000008"><a xlink:title=" ">
<path fill="none" stroke="#63b8ff" d="M1063.44,-220.53C1050,-207.75 1024.37,-183.99 1000.88,-165.75 987.43,-155.31 971.65,-144.59 958.9,-136.28"/>
<polygon fill="#63b8ff" stroke="#63b8ff" points="960.99,-133.46 950.69,-131 957.2,-139.35 960.99,-133.46"/>
</a>
</g>
</g>
<!-- Node17&#45;&gt;Node11 -->
<g id="edge29_Node000017_Node000011" class="edge">
<title>Node17&#45;&gt;Node11</title>
<g id="a_edge29_Node000017_Node000011"><a xlink:title=" ">
<path fill="none" stroke="#63b8ff" d="M1015.11,-224.61C956.97,-218.46 872.49,-206.16 847.88,-185 818.5,-159.75 809.19,-112.84 806.24,-86.03"/>
<polygon fill="#63b8ff" stroke="#63b8ff" points="809.74,-85.84 805.38,-76.18 802.77,-86.45 809.74,-85.84"/>
</a>
</g>
</g>
<!-- Node17&#45;&gt;Node15 -->
<g id="edge28_Node000017_Node000015" class="edge">
<title>Node17&#45;&gt;Node15</title>
<g id="a_edge28_Node000017_Node000015"><a xlink:title=" ">
<path fill="none" stroke="#63b8ff" d="M1076.01,-220.83C1078.42,-214.09 1081.83,-204.52 1084.88,-195.99"/>
<polygon fill="#63b8ff" stroke="#63b8ff" points="1088.1,-197.38 1088.16,-186.78 1081.5,-195.03 1088.1,-197.38"/>
</a>
</g>
</g>
<!-- Node18 -->
<g id="Node000018" class="node">
<title>Node18</title>
<g id="a_Node000018"><a xlink:href="_block_type_8h_source.html" target="_top" xlink:title=" ">
<polygon fill="white" stroke="#666666" points="1675.5,-74.5 1606.25,-74.5 1606.25,-55.25 1675.5,-55.25 1675.5,-74.5"/>
<text text-anchor="middle" x="1640.88" y="-61" font-family="Helvetica,sans-Serif" font-size="10.00">BlockType.h</text>
</a>
</g>
</g>
<!-- Node17&#45;&gt;Node18 -->
<g id="edge27_Node000017_Node000018" class="edge">
<title>Node17&#45;&gt;Node18</title>
<g id="a_edge27_Node000017_Node000018"><a xlink:title=" ">
<path fill="none" stroke="#63b8ff" d="M1130.83,-228.59C1235.68,-225.95 1452.27,-216.71 1519.88,-185 1568.63,-162.14 1609.41,-111.25 1628.78,-83.97"/>
<polygon fill="#63b8ff" stroke="#63b8ff" points="1631.46,-86.25 1634.26,-76.03 1625.7,-82.27 1631.46,-86.25"/>
</a>
</g>
</g>
<!-- Node19&#45;&gt;Node8 -->
<g id="edge31_Node000019_Node000008" class="edge">
<title>Node19&#45;&gt;Node8</title>
<g id="a_edge31_Node000019_Node000008"><a xlink:title=" ">
<path fill="none" stroke="#63b8ff" d="M485.82,-224.46C541.54,-218.71 623.99,-207.13 692.88,-185 711.28,-179.09 713.64,-172.15 731.88,-165.75 788.74,-145.8 857.81,-132.89 898.96,-126.32"/>
<polygon fill="#63b8ff" stroke="#63b8ff" points="899.45,-129.79 908.79,-124.79 898.37,-122.87 899.45,-129.79"/>
</a>
</g>
</g>
<!-- Node19&#45;&gt;Node11 -->
<g id="edge36_Node000019_Node000011" class="edge">
<title>Node19&#45;&gt;Node11</title>
<g id="a_edge36_Node000019_Node000011"><a xlink:title=" ">
<path fill="none" stroke="#63b8ff" d="M394.06,-220.53C364.55,-209.4 324.51,-189.12 342.88,-165.75 392.7,-102.34 638.34,-77.43 749.75,-69.27"/>
<polygon fill="#63b8ff" stroke="#63b8ff" points="749.83,-72.78 759.55,-68.58 749.33,-65.79 749.83,-72.78"/>
</a>
</g>
</g>
<!-- Node19&#45;&gt;Node20 -->
<g id="edge32_Node000019_Node000020" class="edge">
<title>Node19&#45;&gt;Node20</title>
<g id="a_edge32_Node000019_Node000020"><a xlink:title=" ">
<path fill="none" stroke="#63b8ff" d="M388.12,-220.59C354.95,-211.72 304.16,-198.12 267.64,-188.35"/>
<polygon fill="#63b8ff" stroke="#63b8ff" points="268.83,-185.05 258.26,-185.84 267.02,-191.81 268.83,-185.05"/>
</a>
</g>
</g>
<!-- Node20&#45;&gt;Node8 -->
<g id="edge33_Node000020_Node000008" class="edge">
<title>Node20&#45;&gt;Node8</title>
<g id="a_edge33_Node000020_Node000008"><a xlink:title=" ">
<path fill="none" stroke="#63b8ff" d="M295.73,-168.93C446.53,-157.65 788.11,-132.1 899.22,-123.79"/>
<polygon fill="#63b8ff" stroke="#63b8ff" points="899.21,-127.3 908.92,-123.07 898.69,-120.32 899.21,-127.3"/>
</a>
</g>
</g>
<!-- Node20&#45;&gt;Node11 -->
<g id="edge34_Node000020_Node000011" class="edge">
<title>Node20&#45;&gt;Node11</title>
<g id="a_edge34_Node000020_Node000011"><a xlink:title=" ">
<path fill="none" stroke="#63b8ff" d="M231.52,-165.43C246.12,-150.96 277.28,-122.83 309.88,-110.5 389.09,-80.54 637.88,-70.29 749.6,-67.14"/>
<polygon fill="#63b8ff" stroke="#63b8ff" points="749.52,-70.64 759.42,-66.87 749.33,-63.64 749.52,-70.64"/>
</a>
</g>
</g>
<!-- Node21 -->
<g id="Node000021" class="node">
<title>Node21</title>
<g id="a_Node000021"><a xlink:title=" ">
<polygon fill="#e0e0e0" stroke="#999999" points="244.38,-129.75 201.38,-129.75 201.38,-110.5 244.38,-110.5 244.38,-129.75"/>
<text text-anchor="middle" x="222.88" y="-116.25" font-family="Helvetica,sans-Serif" font-size="10.00">cmath</text>
</a>
</g>
</g>
<!-- Node20&#45;&gt;Node21 -->
<g id="edge35_Node000020_Node000021" class="edge">
<title>Node20&#45;&gt;Node21</title>
<g id="a_edge35_Node000020_Node000021"><a xlink:title=" ">
<path fill="none" stroke="#63b8ff" d="M222.88,-165.58C222.88,-159.07 222.88,-149.92 222.88,-141.62"/>
<polygon fill="#63b8ff" stroke="#63b8ff" points="226.38,-141.62 222.88,-131.62 219.38,-141.62 226.38,-141.62"/>
</a>
</g>
</g>
<!-- Node22&#45;&gt;Node8 -->
<g id="edge39_Node000022_Node000008" class="edge">
<title>Node22&#45;&gt;Node8</title>
<g id="a_edge39_Node000022_Node000008"><a xlink:title=" ">
<path fill="none" stroke="#63b8ff" d="M681.96,-165.28C743.81,-154.48 845.32,-136.76 899,-127.39"/>
<polygon fill="#63b8ff" stroke="#63b8ff" points="899.58,-130.84 908.83,-125.67 898.38,-123.94 899.58,-130.84"/>
</a>
</g>
</g>
<!-- Node22&#45;&gt;Node11 -->
<g id="edge40_Node000022_Node000011" class="edge">
<title>Node22&#45;&gt;Node11</title>
<g id="a_edge40_Node000022_Node000011"><a xlink:title=" ">
<path fill="none" stroke="#63b8ff" d="M644.49,-165.31C674.68,-146.6 744.14,-103.53 780.96,-80.7"/>
<polygon fill="#63b8ff" stroke="#63b8ff" points="782.48,-83.88 789.13,-75.63 778.79,-77.93 782.48,-83.88"/>
</a>
</g>
</g>
<!-- Node23&#45;&gt;Node8 -->
<g id="edge43_Node000023_Node000008" class="edge">
<title>Node23&#45;&gt;Node8</title>
<g id="a_edge43_Node000023_Node000008"><a xlink:title=" ">
<path fill="none" stroke="#63b8ff" d="M912.33,-165.58C915.83,-158.69 920.82,-148.84 925.22,-140.16"/>
<polygon fill="#63b8ff" stroke="#63b8ff" points="928.23,-141.96 929.64,-131.46 921.99,-138.8 928.23,-141.96"/>
</a>
</g>
</g>
<!-- Node23&#45;&gt;Node11 -->
<g id="edge49_Node000023_Node000011" class="edge">
<title>Node23&#45;&gt;Node11</title>
<g id="a_edge49_Node000023_Node000011"><a xlink:title=" ">
<path fill="none" stroke="#63b8ff" d="M899.45,-165.5C882.4,-147.53 843.54,-106.61 821.31,-83.19"/>
<polygon fill="#63b8ff" stroke="#63b8ff" points="823.89,-80.82 814.46,-75.97 818.81,-85.64 823.89,-80.82"/>
</a>
</g>
</g>
<!-- Node23&#45;&gt;Node24 -->
<g id="edge44_Node000023_Node000024" class="edge">
<title>Node23&#45;&gt;Node24</title>
<g id="a_edge44_Node000023_Node000024"><a xlink:title=" ">
<path fill="none" stroke="#63b8ff" d="M959.17,-168.32C1047.81,-157.85 1228.28,-136.54 1313.01,-126.54"/>
<polygon fill="#63b8ff" stroke="#63b8ff" points="1313.28,-130.03 1322.8,-125.38 1312.46,-123.08 1313.28,-130.03"/>
</a>
</g>
</g>
<!-- Node24&#45;&gt;Node7 -->
<g id="edge47_Node000024_Node000007" class="edge">
<title>Node24&#45;&gt;Node7</title>
<g id="a_edge47_Node000024_Node000007"><a xlink:title=" ">
<path fill="none" stroke="#63b8ff" d="M1374.83,-110.06C1407.83,-91.31 1483.86,-48.12 1523.99,-25.33"/>
<polygon fill="#63b8ff" stroke="#63b8ff" points="1525.55,-28.47 1532.51,-20.49 1522.09,-22.38 1525.55,-28.47"/>
</a>
</g>
</g>
<!-- Node24&#45;&gt;Node10 -->
<g id="edge48_Node000024_Node000010" class="edge">
<title>Node24&#45;&gt;Node10</title>
<g id="a_edge48_Node000024_Node000010"><a xlink:title=" ">
<path fill="none" stroke="#63b8ff" d="M1391.28,-110.09C1422.97,-101.26 1471.44,-87.74 1506.46,-77.98"/>
<polygon fill="#63b8ff" stroke="#63b8ff" points="1507.16,-81.42 1515.86,-75.36 1505.28,-74.67 1507.16,-81.42"/>
</a>
</g>
</g>
<!-- Node24&#45;&gt;Node16 -->
<g id="edge45_Node000024_Node000016" class="edge">
<title>Node24&#45;&gt;Node16</title>
<g id="a_edge45_Node000024_Node000016"><a xlink:title=" ">
<path fill="none" stroke="#63b8ff" d="M1337.67,-110.09C1317.92,-101.68 1288.2,-89.02 1265.62,-79.4"/>
<polygon fill="#63b8ff" stroke="#63b8ff" points="1267.15,-76.24 1256.58,-75.55 1264.4,-82.68 1267.15,-76.24"/>
</a>
</g>
</g>
<!-- Node25 -->
<g id="Node000025" class="node">
<title>Node25</title>
<g id="a_Node000025"><a xlink:title=" ">
<polygon fill="#e0e0e0" stroke="#999999" points="1384.12,-74.5 1333.62,-74.5 1333.62,-55.25 1384.12,-55.25 1384.12,-74.5"/>
<text text-anchor="middle" x="1358.88" y="-61" font-family="Helvetica,sans-Serif" font-size="10.00">numeric</text>
</a>
</g>
</g>
<!-- Node24&#45;&gt;Node25 -->
<g id="edge46_Node000024_Node000025" class="edge">
<title>Node24&#45;&gt;Node25</title>
<g id="a_edge46_Node000024_Node000025"><a xlink:title=" ">
<path fill="none" stroke="#63b8ff" d="M1358.88,-110.33C1358.88,-103.82 1358.88,-94.67 1358.88,-86.37"/>
<polygon fill="#63b8ff" stroke="#63b8ff" points="1362.38,-86.37 1358.88,-76.37 1355.38,-86.37 1362.38,-86.37"/>
</a>
</g>
</g>
<!-- Node26&#45;&gt;Node8 -->
<g id="edge51_Node000026_Node000008" class="edge">
<title>Node26&#45;&gt;Node8</title>
<g id="a_edge51_Node000026_Node000008"><a xlink:title=" ">
<path fill="none" stroke="#63b8ff" d="M798.7,-165.34C826.49,-156.32 869.32,-142.41 899.51,-132.61"/>
<polygon fill="#63b8ff" stroke="#63b8ff" points="900.53,-135.96 908.96,-129.54 898.37,-129.3 900.53,-135.96"/>
</a>
</g>
</g>
<!-- Node26&#45;&gt;Node11 -->
<g id="edge52_Node000026_Node000011" class="edge">
<title>Node26&#45;&gt;Node11</title>
<g id="a_edge52_Node000026_Node000011"><a xlink:title=" ">
<path fill="none" stroke="#63b8ff" d="M773.66,-165.5C779.09,-148.17 791.21,-109.48 798.65,-85.74"/>
<polygon fill="#63b8ff" stroke="#63b8ff" points="801.95,-86.91 801.6,-76.32 795.27,-84.82 801.95,-86.91"/>
</a>
</g>
</g>
<!-- Node27&#45;&gt;Node6 -->
<g id="edge54_Node000027_Node000006" class="edge">
<title>Node27&#45;&gt;Node6</title>
<g id="a_edge54_Node000027_Node000006"><a xlink:title=" ">
<path fill="none" stroke="#63b8ff" d="M1698.16,-110.25C1712.83,-92.36 1746.16,-51.72 1765.42,-28.25"/>
<polygon fill="#63b8ff" stroke="#63b8ff" points="1767.9,-30.75 1771.53,-20.8 1762.48,-26.31 1767.9,-30.75"/>
</a>
</g>
</g>
<!-- Node27&#45;&gt;Node7 -->
<g id="edge55_Node000027_Node000007" class="edge">
<title>Node27&#45;&gt;Node7</title>
<g id="a_edge55_Node000027_Node000007"><a xlink:title=" ">
<path fill="none" stroke="#63b8ff" d="M1692.83,-110.17C1695.21,-96.7 1697.5,-71.11 1684.88,-55.25 1660.46,-24.6 1614.43,-14.8 1582.97,-11.78"/>
<polygon fill="#63b8ff" stroke="#63b8ff" points="1583.44,-8.31 1573.21,-11.04 1582.91,-15.29 1583.44,-8.31"/>
</a>
</g>
</g>
<!-- Node27&#45;&gt;Node10 -->
<g id="edge57_Node000027_Node000010" class="edge">
<title>Node27&#45;&gt;Node10</title>
<g id="a_edge57_Node000027_Node000010"><a xlink:title=" ">
<path fill="none" stroke="#63b8ff" d="M1667.27,-110.21C1644.64,-101.66 1610.19,-88.65 1584.46,-78.94"/>
<polygon fill="#63b8ff" stroke="#63b8ff" points="1586.03,-75.79 1575.44,-75.53 1583.56,-82.34 1586.03,-75.79"/>
</a>
</g>
</g>
<!-- Node27&#45;&gt;Node18 -->
<g id="edge56_Node000027_Node000018" class="edge">
<title>Node27&#45;&gt;Node18</title>
<g id="a_edge56_Node000027_Node000018"><a xlink:title=" ">
<path fill="none" stroke="#63b8ff" d="M1682.62,-110.33C1675.71,-102.98 1665.65,-92.26 1657.14,-83.19"/>
<polygon fill="#63b8ff" stroke="#63b8ff" points="1659.74,-80.86 1650.35,-75.96 1654.64,-85.65 1659.74,-80.86"/>
</a>
</g>
</g>
<!-- Node28&#45;&gt;Node8 -->
<g id="edge59_Node000028_Node000008" class="edge">
<title>Node28&#45;&gt;Node8</title>
<g id="a_edge59_Node000028_Node000008"><a xlink:title=" ">
<path fill="none" stroke="#63b8ff" d="M1162.08,-165.28C1107.86,-154.74 1019.7,-137.61 970.66,-128.08"/>
<polygon fill="#63b8ff" stroke="#63b8ff" points="971.34,-124.65 960.86,-126.17 970.01,-131.52 971.34,-124.65"/>
</a>
</g>
</g>
<!-- Node28&#45;&gt;Node11 -->
<g id="edge61_Node000028_Node000011" class="edge">
<title>Node28&#45;&gt;Node11</title>
<g id="a_edge61_Node000028_Node000011"><a xlink:title=" ">
<path fill="none" stroke="#63b8ff" d="M1182.21,-165.3C1143.3,-152.24 1068.52,-127.79 1003.88,-110.5 955.67,-97.61 900.24,-85.39 860.14,-77.01"/>
<polygon fill="#63b8ff" stroke="#63b8ff" points="860.98,-73.61 850.48,-75 859.56,-80.46 860.98,-73.61"/>
</a>
</g>
</g>
<!-- Node28&#45;&gt;Node24 -->
<g id="edge60_Node000028_Node000024" class="edge">
<title>Node28&#45;&gt;Node24</title>
<g id="a_edge60_Node000028_Node000024"><a xlink:title=" ">
<path fill="none" stroke="#63b8ff" d="M1234.32,-165.34C1258.56,-156.74 1295.31,-143.69 1322.61,-134"/>
<polygon fill="#63b8ff" stroke="#63b8ff" points="1323.63,-137.35 1331.88,-130.71 1321.28,-130.76 1323.63,-137.35"/>
</a>
</g>
</g>
<!-- Node29&#45;&gt;Node8 -->
<g id="edge64_Node000029_Node000008" class="edge">
<title>Node29&#45;&gt;Node8</title>
<g id="a_edge64_Node000029_Node000008"><a xlink:title=" ">
<path fill="none" stroke="#63b8ff" d="M1286.53,-166.57C1199.48,-155.32 1041.38,-134.89 970.7,-125.76"/>
<polygon fill="#63b8ff" stroke="#63b8ff" points="971.21,-122.29 960.84,-124.48 970.31,-129.23 971.21,-122.29"/>
</a>
</g>
</g>
<!-- Node29&#45;&gt;Node11 -->
<g id="edge66_Node000029_Node000011" class="edge">
<title>Node29&#45;&gt;Node11</title>
<g id="a_edge66_Node000029_Node000011"><a xlink:title=" ">
<path fill="none" stroke="#63b8ff" d="M1306.47,-165.31C1249.24,-152.56 1141.25,-128.84 1048.88,-110.5 984.02,-97.62 909.19,-84.14 859.68,-75.41"/>
<polygon fill="#63b8ff" stroke="#63b8ff" points="860.53,-72.01 850.08,-73.72 859.32,-78.9 860.53,-72.01"/>
</a>
</g>
</g>
<!-- Node29&#45;&gt;Node24 -->
<g id="edge65_Node000029_Node000024" class="edge">
<title>Node29&#45;&gt;Node24</title>
<g id="a_edge65_Node000029_Node000024"><a xlink:title=" ">
<path fill="none" stroke="#63b8ff" d="M1348.86,-165.58C1350.34,-158.99 1352.43,-149.71 1354.32,-141.32"/>
<polygon fill="#63b8ff" stroke="#63b8ff" points="1357.73,-142.11 1356.52,-131.59 1350.9,-140.57 1357.73,-142.11"/>
</a>
</g>
</g>
<!-- Node30&#45;&gt;Node8 -->
<g id="edge68_Node000030_Node000008" class="edge">
<title>Node30&#45;&gt;Node8</title>
<g id="a_edge68_Node000030_Node000008"><a xlink:title=" ">
<path fill="none" stroke="#63b8ff" d="M1424.78,-166.98C1421.77,-166.54 1418.78,-166.13 1415.88,-165.75 1250.13,-144.34 1050.98,-129.22 970.85,-123.57"/>
<polygon fill="#63b8ff" stroke="#63b8ff" points="971.2,-120.09 960.98,-122.89 970.71,-127.07 971.2,-120.09"/>
</a>
</g>
</g>
<!-- Node30&#45;&gt;Node11 -->
<g id="edge70_Node000030_Node000011" class="edge">
<title>Node30&#45;&gt;Node11</title>
<g id="a_edge70_Node000030_Node000011"><a xlink:title=" ">
<path fill="none" stroke="#63b8ff" d="M1424.72,-166.3C1357.23,-153.75 1222.54,-129.11 1107.88,-110.5 1021.46,-96.47 920.88,-82.03 860.09,-73.51"/>
<polygon fill="#63b8ff" stroke="#63b8ff" points="860.73,-70.07 850.34,-72.15 859.76,-77 860.73,-70.07"/>
</a>
</g>
</g>
<!-- Node30&#45;&gt;Node24 -->
<g id="edge69_Node000030_Node000024" class="edge">
<title>Node30&#45;&gt;Node24</title>
<g id="a_edge69_Node000030_Node000024"><a xlink:title=" ">
<path fill="none" stroke="#63b8ff" d="M1449.38,-165.34C1432.47,-157.08 1407.19,-144.73 1387.64,-135.18"/>
<polygon fill="#63b8ff" stroke="#63b8ff" points="1389.34,-132.11 1378.82,-130.87 1386.26,-138.4 1389.34,-132.11"/>
</a>
</g>
</g>
<!-- Node31&#45;&gt;Node8 -->
<g id="edge72_Node000031_Node000008" class="edge">
<title>Node31&#45;&gt;Node8</title>
<g id="a_edge72_Node000031_Node000008"><a xlink:title=" ">
<path fill="none" stroke="#63b8ff" d="M452.7,-166.78C455.46,-166.42 458.2,-166.07 460.88,-165.75 624.21,-146.14 820.08,-130.05 899.17,-123.86"/>
<polygon fill="#63b8ff" stroke="#63b8ff" points="899.2,-127.37 908.9,-123.1 898.66,-120.39 899.2,-127.37"/>
</a>
</g>
</g>
<!-- Node31&#45;&gt;Node11 -->
<g id="edge73_Node000031_Node000011" class="edge">
<title>Node31&#45;&gt;Node11</title>
<g id="a_edge73_Node000031_Node000011"><a xlink:title=" ">
<path fill="none" stroke="#63b8ff" d="M435.63,-165.27C481.59,-152.87 566.45,-129.99 638.88,-110.5 680.04,-99.42 726.95,-86.81 760.38,-77.83"/>
<polygon fill="#63b8ff" stroke="#63b8ff" points="760.96,-81.3 769.71,-75.32 759.15,-74.54 760.96,-81.3"/>
</a>
</g>
</g>
<!-- Node32&#45;&gt;Node8 -->
<g id="edge75_Node000032_Node000008" class="edge">
<title>Node32&#45;&gt;Node8</title>
<g id="a_edge75_Node000032_Node000008"><a xlink:title=" ">
<path fill="none" stroke="#63b8ff" d="M557.83,-166.95C560.55,-166.53 563.25,-166.13 565.88,-165.75 687.95,-148.25 833.4,-132.01 899.29,-124.9"/>
<polygon fill="#63b8ff" stroke="#63b8ff" points="899.58,-128.39 909.14,-123.84 898.83,-121.43 899.58,-128.39"/>
</a>
</g>
</g>
<!-- Node32&#45;&gt;Node11 -->
<g id="edge76_Node000032_Node000011" class="edge">
<title>Node32&#45;&gt;Node11</title>
<g id="a_edge76_Node000032_Node000011"><a xlink:title=" ">
<path fill="none" stroke="#63b8ff" d="M538.18,-165.31C589.75,-146.08 710.26,-101.15 770.01,-78.87"/>
<polygon fill="#63b8ff" stroke="#63b8ff" points="770.86,-82.29 779.01,-75.52 768.42,-75.73 770.86,-82.29"/>
</a>
</g>
</g>
</g>
</svg>
