<?xml version="1.0" encoding="UTF-8" standalone="no"?>
<!DOCTYPE svg PUBLIC "-//W3C//DTD SVG 1.1//EN"
 "http://www.w3.org/Graphics/SVG/1.1/DTD/svg11.dtd">
<!-- Generated by graphviz version 9.0.0 (20230911.1827)
 -->
<!-- Title: model/Model.h Pages: 1 -->
<svg width="1800pt" height="304pt"
 viewBox="0.00 0.00 1799.88 303.50" xmlns="http://www.w3.org/2000/svg" xmlns:xlink="http://www.w3.org/1999/xlink">
<g id="graph0" class="graph" transform="scale(1 1) rotate(0) translate(4 299.5)">
<title>model/Model.h</title>
<!-- Node1 -->
<g id="Node000001" class="node">
<title>Node1</title>
<g id="a_Node000001"><a xlink:title="model::Model source file">
<polygon fill="#999999" stroke="#666666" points="927.38,-295.5 848.38,-295.5 848.38,-276.25 927.38,-276.25 927.38,-295.5"/>
<text text-anchor="middle" x="887.88" y="-282" font-family="Helvetica,sans-Serif" font-size="10.00">model/Model.h</text>
</a>
</g>
</g>
<!-- Node2 -->
<g id="Node000002" class="node">
<title>Node2</title>
<g id="a_Node000002"><a xlink:title=" ">
<polygon fill="#e0e0e0" stroke="#999999" points="55.75,-240.25 0,-240.25 0,-221 55.75,-221 55.75,-240.25"/>
<text text-anchor="middle" x="27.88" y="-226.75" font-family="Helvetica,sans-Serif" font-size="10.00">algorithm</text>
</a>
</g>
</g>
<!-- Node1&#45;&gt;Node2 -->
<g id="edge1_Node000001_Node000002" class="edge">
<title>Node1&#45;&gt;Node2</title>
<g id="a_edge1_Node000001_Node000002"><a xlink:title=" ">
<path fill="none" stroke="#63b8ff" d="M848.1,-284.79C729.34,-284.07 367.14,-278.67 69.88,-240.25 69.04,-240.14 68.21,-240.03 67.36,-239.91"/>
<polygon fill="#63b8ff" stroke="#63b8ff" points="68.18,-236.5 57.74,-238.29 67.02,-243.4 68.18,-236.5"/>
</a>
</g>
</g>
<!-- Node3 -->
<g id="Node000003" class="node">
<title>Node3</title>
<g id="a_Node000003"><a xlink:title=" ">
<polygon fill="#e0e0e0" stroke="#999999" points="441.27,-74.5 412.48,-74.5 412.48,-55.25 441.27,-55.25 441.27,-74.5"/>
<text text-anchor="middle" x="426.88" y="-61" font-family="Helvetica,sans-Serif" font-size="10.00">list</text>
</a>
</g>
</g>
<!-- Node1&#45;&gt;Node3 -->
<g id="edge2_Node000001_Node000003" class="edge">
<title>Node1&#45;&gt;Node3</title>
<g id="a_edge2_Node000001_Node000003"><a xlink:title=" ">
<path fill="none" stroke="#63b8ff" d="M848.19,-283.88C761.96,-281.17 551.26,-271.63 377.88,-240.25 287.55,-223.9 234.42,-258.07 178.88,-185 117.81,-104.68 326.38,-75.8 401.18,-68.16"/>
<polygon fill="#63b8ff" stroke="#63b8ff" points="401.24,-71.67 410.85,-67.22 400.56,-64.7 401.24,-71.67"/>
</a>
</g>
</g>
<!-- Node4 -->
<g id="Node000004" class="node">
<title>Node4</title>
<g id="a_Node000004"><a xlink:title=" ">
<polygon fill="#e0e0e0" stroke="#999999" points="924.25,-19.25 889.5,-19.25 889.5,0 924.25,0 924.25,-19.25"/>
<text text-anchor="middle" x="906.88" y="-5.75" font-family="Helvetica,sans-Serif" font-size="10.00">map</text>
</a>
</g>
</g>
<!-- Node1&#45;&gt;Node4 -->
<g id="edge3_Node000001_Node000004" class="edge">
<title>Node1&#45;&gt;Node4</title>
<g id="a_edge3_Node000001_Node000004"><a xlink:title=" ">
<path fill="none" stroke="#63b8ff" d="M848.22,-284.95C722.46,-284.78 333.89,-280.88 215.88,-240.25 168.12,-223.81 121.88,-226.89 121.88,-176.38 121.88,-176.38 121.88,-176.38 121.88,-119.12 121.88,9.38 276.79,-74.33 403.88,-55.25 610.43,-24.24 670.32,-59.74 877.84,-19.39"/>
<polygon fill="#63b8ff" stroke="#63b8ff" points="878.52,-22.82 887.64,-17.44 877.15,-15.96 878.52,-22.82"/>
</a>
</g>
</g>
<!-- Node5 -->
<g id="Node000005" class="node">
<title>Node5</title>
<g id="a_Node000005"><a xlink:title=" ">
<polygon fill="#e0e0e0" stroke="#999999" points="352.12,-19.25 301.62,-19.25 301.62,0 352.12,0 352.12,-19.25"/>
<text text-anchor="middle" x="326.88" y="-5.75" font-family="Helvetica,sans-Serif" font-size="10.00">memory</text>
</a>
</g>
</g>
<!-- Node1&#45;&gt;Node5 -->
<g id="edge4_Node000001_Node000005" class="edge">
<title>Node1&#45;&gt;Node5</title>
<g id="a_edge4_Node000001_Node000005"><a xlink:title=" ">
<path fill="none" stroke="#63b8ff" d="M848.03,-284.12C703.49,-281.15 211.86,-269 147.88,-240.25 111.22,-223.78 83.88,-216.56 83.88,-176.38 83.88,-176.38 83.88,-176.38 83.88,-119.12 83.88,-29.99 221.87,-13.58 289.88,-10.91"/>
<polygon fill="#63b8ff" stroke="#63b8ff" points="289.93,-14.41 299.82,-10.61 289.71,-7.41 289.93,-14.41"/>
</a>
</g>
</g>
<!-- Node6 -->
<g id="Node000006" class="node">
<title>Node6</title>
<g id="a_Node000006"><a xlink:title=" ">
<polygon fill="#e0e0e0" stroke="#999999" points="1773.88,-19.25 1733.88,-19.25 1733.88,0 1773.88,0 1773.88,-19.25"/>
<text text-anchor="middle" x="1753.88" y="-5.75" font-family="Helvetica,sans-Serif" font-size="10.00">string</text>
</a>
</g>
</g>
<!-- Node1&#45;&gt;Node6 -->
<g id="edge5_Node000001_Node000006" class="edge">
<title>Node1&#45;&gt;Node6</title>
<g id="a_edge5_Node000001_Node000006"><a xlink:title=" ">
<path fill="none" stroke="#63b8ff" d="M927.77,-284.39C1084.4,-282.25 1652.3,-272.33 1725.88,-240.25 1763.29,-223.94 1791.88,-217.2 1791.88,-176.38 1791.88,-176.38 1791.88,-176.38 1791.88,-119.12 1791.88,-86.13 1776.03,-50.51 1764.81,-29.41"/>
<polygon fill="#63b8ff" stroke="#63b8ff" points="1767.97,-27.9 1760.05,-20.86 1761.85,-31.3 1767.97,-27.9"/>
</a>
</g>
</g>
<!-- Node7 -->
<g id="Node000007" class="node">
<title>Node7</title>
<g id="a_Node000007"><a xlink:title=" ">
<polygon fill="#e0e0e0" stroke="#999999" points="1538.38,-19.25 1495.38,-19.25 1495.38,0 1538.38,0 1538.38,-19.25"/>
<text text-anchor="middle" x="1516.88" y="-5.75" font-family="Helvetica,sans-Serif" font-size="10.00">vector</text>
</a>
</g>
</g>
<!-- Node1&#45;&gt;Node7 -->
<g id="edge6_Node000001_Node000007" class="edge">
<title>Node1&#45;&gt;Node7</title>
<g id="a_edge6_Node000001_Node000007"><a xlink:title=" ">
<path fill="none" stroke="#63b8ff" d="M927.63,-285.4C1050.02,-286.49 1419.46,-285.83 1528.88,-240.25 1621.64,-201.6 1718.34,-136.26 1658.88,-55.25 1633.98,-21.33 1583.32,-12.51 1549.73,-10.58"/>
<polygon fill="#63b8ff" stroke="#63b8ff" points="1550.27,-7.09 1540.15,-10.21 1550.01,-14.09 1550.27,-7.09"/>
</a>
</g>
</g>
<!-- Node8 -->
<g id="Node000008" class="node">
<title>Node8</title>
<g id="a_Node000008"><a xlink:href="_block_8h.html" target="_top" xlink:title="model::Block source file">
<polygon fill="white" stroke="#666666" points="907,-129.75 858.75,-129.75 858.75,-110.5 907,-110.5 907,-129.75"/>
<text text-anchor="middle" x="882.88" y="-116.25" font-family="Helvetica,sans-Serif" font-size="10.00">Block.h</text>
</a>
</g>
</g>
<!-- Node1&#45;&gt;Node8 -->
<g id="edge7_Node000001_Node000008" class="edge">
<title>Node1&#45;&gt;Node8</title>
<g id="a_edge7_Node000001_Node000008"><a xlink:title=" ">
<path fill="none" stroke="#63b8ff" d="M887.61,-276.07C886.83,-250.75 884.59,-177.25 883.49,-141.34"/>
<polygon fill="#63b8ff" stroke="#63b8ff" points="887,-141.37 883.19,-131.49 880,-141.59 887,-141.37"/>
</a>
</g>
</g>
<!-- Node10 -->
<g id="Node000010" class="node">
<title>Node10</title>
<g id="a_Node000010"><a xlink:href="_d_o_f_handler_8h.html" target="_top" xlink:title="model::DOFHandler source file">
<polygon fill="white" stroke="#666666" points="1555.62,-74.5 1478.12,-74.5 1478.12,-55.25 1555.62,-55.25 1555.62,-74.5"/>
<text text-anchor="middle" x="1516.88" y="-61" font-family="Helvetica,sans-Serif" font-size="10.00">DOFHandler.h</text>
</a>
</g>
</g>
<!-- Node1&#45;&gt;Node10 -->
<g id="edge41_Node000001_Node000010" class="edge">
<title>Node1&#45;&gt;Node10</title>
<g id="a_edge41_Node000001_Node000010"><a xlink:title=" ">
<path fill="none" stroke="#63b8ff" d="M927.76,-284.44C1044.56,-282.75 1384.22,-274.93 1488.88,-240.25 1532.36,-225.84 1553.81,-225.14 1575.88,-185 1595.58,-149.15 1559.72,-105.84 1535.79,-82.59"/>
<polygon fill="#63b8ff" stroke="#63b8ff" points="1538.44,-80.27 1528.74,-76.01 1533.66,-85.39 1538.44,-80.27"/>
</a>
</g>
</g>
<!-- Node15 -->
<g id="Node000015" class="node">
<title>Node15</title>
<g id="a_Node000015"><a xlink:href="_blood_vessel_8h.html" target="_top" xlink:title="model::BloodVessel source file">
<polygon fill="white" stroke="#666666" points="973,-185 894.75,-185 894.75,-165.75 973,-165.75 973,-185"/>
<text text-anchor="middle" x="933.88" y="-171.5" font-family="Helvetica,sans-Serif" font-size="10.00">BloodVessel.h</text>
</a>
</g>
</g>
<!-- Node1&#45;&gt;Node15 -->
<g id="edge21_Node000001_Node000015" class="edge">
<title>Node1&#45;&gt;Node15</title>
<g id="a_edge21_Node000001_Node000015"><a xlink:title=" ">
<path fill="none" stroke="#63b8ff" d="M891.64,-276C899.02,-258.59 915.54,-219.62 925.59,-195.91"/>
<polygon fill="#63b8ff" stroke="#63b8ff" points="928.79,-197.34 929.47,-186.77 922.34,-194.61 928.79,-197.34"/>
</a>
</g>
</g>
<!-- Node17 -->
<g id="Node000017" class="node">
<title>Node17</title>
<g id="a_Node000017"><a xlink:href="_blood_vessel_junction_8h.html" target="_top" xlink:title="model::BloodVesselJunction source file">
<polygon fill="white" stroke="#666666" points="1058.38,-240.25 943.38,-240.25 943.38,-221 1058.38,-221 1058.38,-240.25"/>
<text text-anchor="middle" x="1000.88" y="-226.75" font-family="Helvetica,sans-Serif" font-size="10.00">BloodVesselJunction.h</text>
</a>
</g>
</g>
<!-- Node1&#45;&gt;Node17 -->
<g id="edge25_Node000001_Node000017" class="edge">
<title>Node1&#45;&gt;Node17</title>
<g id="a_edge25_Node000001_Node000017"><a xlink:title=" ">
<path fill="none" stroke="#63b8ff" d="M907.04,-275.84C924.66,-267.54 951.03,-255.11 971.34,-245.54"/>
<polygon fill="#63b8ff" stroke="#63b8ff" points="972.69,-248.78 980.24,-241.35 969.7,-242.44 972.69,-248.78"/>
</a>
</g>
</g>
<!-- Node19 -->
<g id="Node000019" class="node">
<title>Node19</title>
<g id="a_Node000019"><a xlink:href="_closed_loop_coronary_b_c_8h.html" target="_top" xlink:title="model::ClosedLoopCoronaryBC source file">
<polygon fill="white" stroke="#666666" points="732.38,-240.25 605.38,-240.25 605.38,-221 732.38,-221 732.38,-240.25"/>
<text text-anchor="middle" x="668.88" y="-226.75" font-family="Helvetica,sans-Serif" font-size="10.00">ClosedLoopCoronaryBC.h</text>
</a>
</g>
</g>
<!-- Node1&#45;&gt;Node19 -->
<g id="edge30_Node000001_Node000019" class="edge">
<title>Node1&#45;&gt;Node19</title>
<g id="a_edge30_Node000001_Node000019"><a xlink:title=" ">
<path fill="none" stroke="#63b8ff" d="M850.72,-275.84C813.99,-266.91 757.6,-253.2 717.36,-243.41"/>
<polygon fill="#63b8ff" stroke="#63b8ff" points="718.22,-240.02 707.68,-241.06 716.57,-246.82 718.22,-240.02"/>
</a>
</g>
</g>
<!-- Node20 -->
<g id="Node000020" class="node">
<title>Node20</title>
<g id="a_Node000020"><a xlink:href="_closed_loop_heart_pulmonary_8h.html" target="_top" xlink:title="model::ClosedLoopHeartPulmonary source file">
<polygon fill="white" stroke="#666666" points="838.38,-185 693.38,-185 693.38,-165.75 838.38,-165.75 838.38,-185"/>
<text text-anchor="middle" x="765.88" y="-171.5" font-family="Helvetica,sans-Serif" font-size="10.00">ClosedLoopHeartPulmonary.h</text>
</a>
</g>
</g>
<!-- Node1&#45;&gt;Node20 -->
<g id="edge37_Node000001_Node000020" class="edge">
<title>Node1&#45;&gt;Node20</title>
<g id="a_edge37_Node000001_Node000020"><a xlink:title=" ">
<path fill="none" stroke="#63b8ff" d="M877.89,-276C857.43,-257.8 810.45,-216.02 784.3,-192.76"/>
<polygon fill="#63b8ff" stroke="#63b8ff" points="786.93,-190.41 777.13,-186.38 782.27,-195.64 786.93,-190.41"/>
</a>
</g>
</g>
<!-- Node21 -->
<g id="Node000021" class="node">
<title>Node21</title>
<g id="a_Node000021"><a xlink:href="_closed_loop_r_c_r_b_c_8h.html" target="_top" xlink:title="model::ClosedLoopRCRBC source file">
<polygon fill="white" stroke="#666666" points="520.38,-185 411.38,-185 411.38,-165.75 520.38,-165.75 520.38,-185"/>
<text text-anchor="middle" x="465.88" y="-171.5" font-family="Helvetica,sans-Serif" font-size="10.00">ClosedLoopRCRBC.h</text>
</a>
</g>
</g>
<!-- Node1&#45;&gt;Node21 -->
<g id="edge38_Node000001_Node000021" class="edge">
<title>Node1&#45;&gt;Node21</title>
<g id="a_edge38_Node000001_Node000021"><a xlink:title=" ">
<path fill="none" stroke="#63b8ff" d="M848.11,-283.88C788.03,-281.33 671.22,-272.29 577.88,-240.25 544.06,-228.64 508.85,-206.66 487.14,-191.76"/>
<polygon fill="#63b8ff" stroke="#63b8ff" points="489.34,-189.03 479.14,-186.16 485.32,-194.76 489.34,-189.03"/>
</a>
</g>
</g>
<!-- Node22 -->
<g id="Node000022" class="node">
<title>Node22</title>
<g id="a_Node000022"><a xlink:href="_flow_reference_b_c_8h.html" target="_top" xlink:title="model::FlowReferenceBC source file">
<polygon fill="white" stroke="#666666" points="1411,-185 1308.75,-185 1308.75,-165.75 1411,-165.75 1411,-185"/>
<text text-anchor="middle" x="1359.88" y="-171.5" font-family="Helvetica,sans-Serif" font-size="10.00">FlowReferenceBC.h</text>
</a>
</g>
</g>
<!-- Node1&#45;&gt;Node22 -->
<g id="edge42_Node000001_Node000022" class="edge">
<title>Node1&#45;&gt;Node22</title>
<g id="a_edge42_Node000001_Node000022"><a xlink:title=" ">
<path fill="none" stroke="#63b8ff" d="M927.57,-278.82C976.23,-271.14 1061.06,-256.86 1132.88,-240.25 1199.25,-224.9 1275.24,-202.52 1320.31,-188.73"/>
<polygon fill="#63b8ff" stroke="#63b8ff" points="1321.1,-192.15 1329.63,-185.87 1319.04,-185.46 1321.1,-192.15"/>
</a>
</g>
</g>
<!-- Node23 -->
<g id="Node000023" class="node">
<title>Node23</title>
<g id="a_Node000023"><a xlink:href="_parameter_8h.html" target="_top" xlink:title="model::Parameter source file">
<polygon fill="white" stroke="#666666" points="1402.12,-129.75 1333.62,-129.75 1333.62,-110.5 1402.12,-110.5 1402.12,-129.75"/>
<text text-anchor="middle" x="1367.88" y="-116.25" font-family="Helvetica,sans-Serif" font-size="10.00">Parameter.h</text>
</a>
</g>
</g>
<!-- Node1&#45;&gt;Node23 -->
<g id="edge62_Node000001_Node000023" class="edge">
<title>Node1&#45;&gt;Node23</title>
<g id="a_edge62_Node000001_Node000023"><a xlink:title=" ">
<path fill="none" stroke="#63b8ff" d="M927.67,-285.46C1059.26,-286.46 1476.59,-281.83 1557.88,-185 1599.12,-135.87 1482.45,-124.37 1413.9,-121.79"/>
<polygon fill="#63b8ff" stroke="#63b8ff" points="1414.15,-118.29 1404.04,-121.47 1413.92,-125.29 1414.15,-118.29"/>
</a>
</g>
</g>
<!-- Node25 -->
<g id="Node000025" class="node">
<title>Node25</title>
<g id="a_Node000025"><a xlink:href="_junction_8h.html" target="_top" xlink:title="model::Junction source file">
<polygon fill="white" stroke="#666666" points="599,-185 538.75,-185 538.75,-165.75 599,-165.75 599,-185"/>
<text text-anchor="middle" x="568.88" y="-171.5" font-family="Helvetica,sans-Serif" font-size="10.00">Junction.h</text>
</a>
</g>
</g>
<!-- Node1&#45;&gt;Node25 -->
<g id="edge50_Node000001_Node000025" class="edge">
<title>Node1&#45;&gt;Node25</title>
<g id="a_edge50_Node000001_Node000025"><a xlink:title=" ">
<path fill="none" stroke="#63b8ff" d="M847.88,-283.5C777.3,-280.31 634.43,-270.25 595.88,-240.25 582.35,-229.73 575.52,-211.16 572.12,-196.75"/>
<polygon fill="#63b8ff" stroke="#63b8ff" points="575.56,-196.1 570.22,-186.95 568.69,-197.43 575.56,-196.1"/>
</a>
</g>
</g>
<!-- Node26 -->
<g id="Node000026" class="node">
<title>Node26</title>
<g id="a_Node000026"><a xlink:href="_node_8h.html" target="_top" xlink:title="model::Node source file">
<polygon fill="white" stroke="#666666" points="1752.25,-129.75 1705.5,-129.75 1705.5,-110.5 1752.25,-110.5 1752.25,-129.75"/>
<text text-anchor="middle" x="1728.88" y="-116.25" font-family="Helvetica,sans-Serif" font-size="10.00">Node.h</text>
</a>
</g>
</g>
<!-- Node1&#45;&gt;Node26 -->
<g id="edge53_Node000001_Node000026" class="edge">
<title>Node1&#45;&gt;Node26</title>
<g id="a_edge53_Node000001_Node000026"><a xlink:title=" ">
<path fill="none" stroke="#63b8ff" d="M927.85,-284.04C1087.89,-280.53 1675.2,-265.93 1704.88,-240.25 1733.11,-215.82 1733.78,-168.24 1731.5,-141.19"/>
<polygon fill="#63b8ff" stroke="#63b8ff" points="1735.01,-141.12 1730.45,-131.56 1728.05,-141.88 1735.01,-141.12"/>
</a>
</g>
</g>
<!-- Node27 -->
<g id="Node000027" class="node">
<title>Node27</title>
<g id="a_Node000027"><a xlink:href="_open_loop_coronary_b_c_8h.html" target="_top" xlink:title="model::OpenLoopCoronaryBC source file">
<polygon fill="white" stroke="#666666" points="1549,-185 1428.75,-185 1428.75,-165.75 1549,-165.75 1549,-185"/>
<text text-anchor="middle" x="1488.88" y="-171.5" font-family="Helvetica,sans-Serif" font-size="10.00">OpenLoopCoronaryBC.h</text>
</a>
</g>
</g>
<!-- Node1&#45;&gt;Node27 -->
<g id="edge58_Node000001_Node000027" class="edge">
<title>Node1&#45;&gt;Node27</title>
<g id="a_edge58_Node000001_Node000027"><a xlink:title=" ">
<path fill="none" stroke="#63b8ff" d="M927.73,-279.6C984.69,-271.89 1092.58,-256.68 1183.88,-240.25 1273.66,-224.09 1377.5,-201.51 1437.92,-187.97"/>
<polygon fill="#63b8ff" stroke="#63b8ff" points="1438.58,-191.41 1447.57,-185.8 1437.05,-184.58 1438.58,-191.41"/>
</a>
</g>
</g>
<!-- Node28 -->
<g id="Node000028" class="node">
<title>Node28</title>
<g id="a_Node000028"><a xlink:href="_pressure_reference_b_c_8h.html" target="_top" xlink:title="model::PressureReferenceBC source file">
<polygon fill="white" stroke="#666666" points="1187,-185 1066.75,-185 1066.75,-165.75 1187,-165.75 1187,-185"/>
<text text-anchor="middle" x="1126.88" y="-171.5" font-family="Helvetica,sans-Serif" font-size="10.00">PressureReferenceBC.h</text>
</a>
</g>
</g>
<!-- Node1&#45;&gt;Node28 -->
<g id="edge63_Node000001_Node000028" class="edge">
<title>Node1&#45;&gt;Node28</title>
<g id="a_edge63_Node000001_Node000028"><a xlink:title=" ">
<path fill="none" stroke="#63b8ff" d="M927.56,-281.65C965.79,-277.07 1024.09,-266.14 1067.88,-240.25 1087.3,-228.76 1104.16,-208.91 1114.82,-194.38"/>
<polygon fill="#63b8ff" stroke="#63b8ff" points="1117.42,-196.77 1120.3,-186.57 1111.69,-192.75 1117.42,-196.77"/>
</a>
</g>
</g>
<!-- Node29 -->
<g id="Node000029" class="node">
<title>Node29</title>
<g id="a_Node000029"><a xlink:href="_resistance_b_c_8h.html" target="_top" xlink:title="model::ResistanceBC source file">
<polygon fill="white" stroke="#666666" points="1290.75,-185 1205,-185 1205,-165.75 1290.75,-165.75 1290.75,-185"/>
<text text-anchor="middle" x="1247.88" y="-171.5" font-family="Helvetica,sans-Serif" font-size="10.00">ResistanceBC.h</text>
</a>
</g>
</g>
<!-- Node1&#45;&gt;Node29 -->
<g id="edge67_Node000001_Node000029" class="edge">
<title>Node1&#45;&gt;Node29</title>
<g id="a_edge67_Node000001_Node000029"><a xlink:title=" ">
<path fill="none" stroke="#63b8ff" d="M927.53,-278.47C969.42,-271.2 1037.12,-258.01 1093.88,-240.25 1138.65,-226.24 1188.47,-204.36 1218.99,-190.2"/>
<polygon fill="#63b8ff" stroke="#63b8ff" points="1220.37,-193.41 1227.94,-186 1217.4,-187.08 1220.37,-193.41"/>
</a>
</g>
</g>
<!-- Node30 -->
<g id="Node000030" class="node">
<title>Node30</title>
<g id="a_Node000030"><a xlink:href="_resistive_junction_8h.html" target="_top" xlink:title="model::ResistiveJunction source file">
<polygon fill="white" stroke="#666666" points="288.25,-185 187.5,-185 187.5,-165.75 288.25,-165.75 288.25,-185"/>
<text text-anchor="middle" x="237.88" y="-171.5" font-family="Helvetica,sans-Serif" font-size="10.00">ResistiveJunction.h</text>
</a>
</g>
</g>
<!-- Node1&#45;&gt;Node30 -->
<g id="edge71_Node000001_Node000030" class="edge">
<title>Node1&#45;&gt;Node30</title>
<g id="a_edge71_Node000001_Node000030"><a xlink:title=" ">
<path fill="none" stroke="#63b8ff" d="M847.99,-282.98C772.31,-278.88 602.92,-267.27 462.88,-240.25 395.57,-227.26 319.2,-203.63 274.98,-189.04"/>
<polygon fill="#63b8ff" stroke="#63b8ff" points="276.22,-185.76 265.62,-185.92 274.01,-192.4 276.22,-185.76"/>
</a>
</g>
</g>
<!-- Node31 -->
<g id="Node000031" class="node">
<title>Node31</title>
<g id="a_Node000031"><a xlink:href="_windkessel_b_c_8h.html" target="_top" xlink:title="model::WindkesselBC source file">
<polygon fill="white" stroke="#666666" points="393.5,-185 306.25,-185 306.25,-165.75 393.5,-165.75 393.5,-185"/>
<text text-anchor="middle" x="349.88" y="-171.5" font-family="Helvetica,sans-Serif" font-size="10.00">WindkesselBC.h</text>
</a>
</g>
</g>
<!-- Node1&#45;&gt;Node31 -->
<g id="edge74_Node000001_Node000031" class="edge">
<title>Node1&#45;&gt;Node31</title>
<g id="a_edge74_Node000001_Node000031"><a xlink:title=" ">
<path fill="none" stroke="#63b8ff" d="M847.99,-282.61C781.79,-278.24 645.36,-266.64 532.88,-240.25 478.39,-227.47 417.47,-204.34 381.47,-189.7"/>
<polygon fill="#63b8ff" stroke="#63b8ff" points="383.11,-186.59 372.53,-186.02 380.45,-193.06 383.11,-186.59"/>
</a>
</g>
</g>
<!-- Node8&#45;&gt;Node3 -->
<g id="edge9_Node000008_Node000003" class="edge">
<title>Node8&#45;&gt;Node3</title>
<g id="a_edge9_Node000008_Node000003"><a xlink:title=" ">
<path fill="none" stroke="#63b8ff" d="M858.36,-116.26C779.53,-107.06 533.03,-78.27 452.57,-68.88"/>
<polygon fill="#63b8ff" stroke="#63b8ff" points="453.37,-65.45 443.03,-67.76 452.56,-72.4 453.37,-65.45"/>
</a>
</g>
</g>
<!-- Node8&#45;&gt;Node4 -->
<g id="edge10_Node000008_Node000004" class="edge">
<title>Node8&#45;&gt;Node4</title>
<g id="a_edge10_Node000008_Node000004"><a xlink:title=" ">
<path fill="none" stroke="#63b8ff" d="M884.84,-110.25C888.65,-93 897.15,-54.58 902.41,-30.81"/>
<polygon fill="#63b8ff" stroke="#63b8ff" points="905.81,-31.62 904.56,-21.1 898.98,-30.11 905.81,-31.62"/>
</a>
</g>
</g>
<!-- Node8&#45;&gt;Node7 -->
<g id="edge11_Node000008_Node000007" class="edge">
<title>Node8&#45;&gt;Node7</title>
<g id="a_edge11_Node000008_Node000007"><a xlink:title=" ">
<path fill="none" stroke="#63b8ff" d="M907.44,-112.54C955.44,-99.87 1065.17,-71.89 1158.88,-55.25 1277.64,-34.16 1420.32,-19.55 1483.72,-13.6"/>
<polygon fill="#63b8ff" stroke="#63b8ff" points="1483.82,-17.11 1493.46,-12.7 1483.18,-10.14 1483.82,-17.11"/>
</a>
</g>
</g>
<!-- Node9 -->
<g id="Node000009" class="node">
<title>Node9</title>
<g id="a_Node000009"><a xlink:title=" ">
<polygon fill="#e0e0e0" stroke="#999999" points="974.5,-74.5 911.25,-74.5 911.25,-55.25 974.5,-55.25 974.5,-74.5"/>
<text text-anchor="middle" x="942.88" y="-61" font-family="Helvetica,sans-Serif" font-size="10.00">Eigen/Core</text>
</a>
</g>
</g>
<!-- Node8&#45;&gt;Node9 -->
<g id="edge8_Node000008_Node000009" class="edge">
<title>Node8&#45;&gt;Node9</title>
<g id="a_edge8_Node000008_Node000009"><a xlink:title=" ">
<path fill="none" stroke="#63b8ff" d="M893.05,-110.09C901.64,-102.47 914.14,-91.37 924.48,-82.2"/>
<polygon fill="#63b8ff" stroke="#63b8ff" points="926.56,-85.04 931.72,-75.78 921.91,-79.8 926.56,-85.04"/>
</a>
</g>
</g>
<!-- Node8&#45;&gt;Node10 -->
<g id="edge12_Node000008_Node000010" class="edge">
<title>Node8&#45;&gt;Node10</title>
<g id="a_edge12_Node000008_Node000010"><a xlink:title=" ">
<path fill="none" stroke="#63b8ff" d="M907.45,-117.74C986.83,-113.15 1243.45,-97.43 1454.88,-74.5 1458.72,-74.08 1462.69,-73.62 1466.68,-73.12"/>
<polygon fill="#63b8ff" stroke="#63b8ff" points="1466.93,-76.62 1476.39,-71.86 1466.02,-69.68 1466.93,-76.62"/>
</a>
</g>
</g>
<!-- Node11 -->
<g id="Node000011" class="node">
<title>Node11</title>
<g id="a_Node000011"><a xlink:href="_sparse_system_8h.html" target="_top" xlink:title="SparseSystem source file.">
<polygon fill="white" stroke="#666666" points="809.5,-74.5 722.25,-74.5 722.25,-55.25 809.5,-55.25 809.5,-74.5"/>
<text text-anchor="middle" x="765.88" y="-61" font-family="Helvetica,sans-Serif" font-size="10.00">SparseSystem.h</text>
</a>
</g>
</g>
<!-- Node8&#45;&gt;Node11 -->
<g id="edge16_Node000008_Node000011" class="edge">
<title>Node8&#45;&gt;Node11</title>
<g id="a_edge16_Node000008_Node000011"><a xlink:title=" ">
<path fill="none" stroke="#63b8ff" d="M863.03,-110.09C844.71,-101.75 817.23,-89.25 796.17,-79.66"/>
<polygon fill="#63b8ff" stroke="#63b8ff" points="797.75,-76.54 787.2,-75.58 794.85,-82.91 797.75,-76.54"/>
</a>
</g>
</g>
<!-- Node10&#45;&gt;Node4 -->
<g id="edge13_Node000010_Node000004" class="edge">
<title>Node10&#45;&gt;Node4</title>
<g id="a_edge13_Node000010_Node000004"><a xlink:title=" ">
<path fill="none" stroke="#63b8ff" d="M1477.89,-58.11C1470.27,-57.08 1462.33,-56.07 1454.88,-55.25 1256.78,-33.42 1017.31,-17.52 935.71,-12.39"/>
<polygon fill="#63b8ff" stroke="#63b8ff" points="936.13,-8.91 925.93,-11.78 935.69,-15.9 936.13,-8.91"/>
</a>
</g>
</g>
<!-- Node10&#45;&gt;Node6 -->
<g id="edge14_Node000010_Node000006" class="edge">
<title>Node10&#45;&gt;Node6</title>
<g id="a_edge14_Node000010_Node000006"><a xlink:title=" ">
<path fill="none" stroke="#63b8ff" d="M1556.01,-55.08C1602.64,-44.61 1679.61,-27.31 1722.51,-17.67"/>
<polygon fill="#63b8ff" stroke="#63b8ff" points="1723.19,-21.11 1732.18,-15.5 1721.65,-14.28 1723.19,-21.11"/>
</a>
</g>
</g>
<!-- Node10&#45;&gt;Node7 -->
<g id="edge15_Node000010_Node000007" class="edge">
<title>Node10&#45;&gt;Node7</title>
<g id="a_edge15_Node000010_Node000007"><a xlink:title=" ">
<path fill="none" stroke="#63b8ff" d="M1516.88,-55.08C1516.88,-48.57 1516.88,-39.42 1516.88,-31.12"/>
<polygon fill="#63b8ff" stroke="#63b8ff" points="1520.38,-31.12 1516.88,-21.12 1513.38,-31.12 1520.38,-31.12"/>
</a>
</g>
</g>
<!-- Node11&#45;&gt;Node5 -->
<g id="edge20_Node000011_Node000005" class="edge">
<title>Node11&#45;&gt;Node5</title>
<g id="a_edge20_Node000011_Node000005"><a xlink:title=" ">
<path fill="none" stroke="#63b8ff" d="M721.77,-58.53C635.04,-48.01 443.77,-24.8 363.48,-15.07"/>
<polygon fill="#63b8ff" stroke="#63b8ff" points="364.32,-11.64 353.97,-13.91 363.48,-18.59 364.32,-11.64"/>
</a>
</g>
</g>
<!-- Node12 -->
<g id="Node000012" class="node">
<title>Node12</title>
<g id="a_Node000012"><a xlink:title=" ">
<polygon fill="#e0e0e0" stroke="#999999" points="694.75,-19.25 621,-19.25 621,0 694.75,0 694.75,-19.25"/>
<text text-anchor="middle" x="657.88" y="-5.75" font-family="Helvetica,sans-Serif" font-size="10.00">Eigen/Sparse</text>
</a>
</g>
</g>
<!-- Node11&#45;&gt;Node12 -->
<g id="edge17_Node000011_Node000012" class="edge">
<title>Node11&#45;&gt;Node12</title>
<g id="a_edge17_Node000011_Node000012"><a xlink:title=" ">
<path fill="none" stroke="#63b8ff" d="M747.55,-54.84C730.8,-46.58 705.74,-34.23 686.37,-24.68"/>
<polygon fill="#63b8ff" stroke="#63b8ff" points="688.16,-21.65 677.64,-20.37 685.06,-27.93 688.16,-21.65"/>
</a>
</g>
</g>
<!-- Node13 -->
<g id="Node000013" class="node">
<title>Node13</title>
<g id="a_Node000013"><a xlink:title=" ">
<polygon fill="#e0e0e0" stroke="#999999" points="800.5,-19.25 713.25,-19.25 713.25,0 800.5,0 800.5,-19.25"/>
<text text-anchor="middle" x="756.88" y="-5.75" font-family="Helvetica,sans-Serif" font-size="10.00">Eigen/SparseLU</text>
</a>
</g>
</g>
<!-- Node11&#45;&gt;Node13 -->
<g id="edge18_Node000011_Node000013" class="edge">
<title>Node11&#45;&gt;Node13</title>
<g id="a_edge18_Node000011_Node000013"><a xlink:title=" ">
<path fill="none" stroke="#63b8ff" d="M764.39,-55.08C763.28,-48.49 761.71,-39.21 760.29,-30.82"/>
<polygon fill="#63b8ff" stroke="#63b8ff" points="763.76,-30.38 758.65,-21.1 756.86,-31.55 763.76,-30.38"/>
</a>
</g>
</g>
<!-- Node14 -->
<g id="Node000014" class="node">
<title>Node14</title>
<g id="a_Node000014"><a xlink:title=" ">
<polygon fill="#e0e0e0" stroke="#999999" points="871.62,-19.25 818.12,-19.25 818.12,0 871.62,0 871.62,-19.25"/>
<text text-anchor="middle" x="844.88" y="-5.75" font-family="Helvetica,sans-Serif" font-size="10.00">iostream</text>
</a>
</g>
</g>
<!-- Node11&#45;&gt;Node14 -->
<g id="edge19_Node000011_Node000014" class="edge">
<title>Node11&#45;&gt;Node14</title>
<g id="a_edge19_Node000011_Node000014"><a xlink:title=" ">
<path fill="none" stroke="#63b8ff" d="M779.28,-54.84C790.97,-46.96 808.18,-35.36 822.04,-26.02"/>
<polygon fill="#63b8ff" stroke="#63b8ff" points="823.82,-29.04 830.15,-20.55 819.9,-23.24 823.82,-29.04"/>
</a>
</g>
</g>
<!-- Node15&#45;&gt;Node8 -->
<g id="edge23_Node000015_Node000008" class="edge">
<title>Node15&#45;&gt;Node8</title>
<g id="a_edge23_Node000015_Node000008"><a xlink:title=" ">
<path fill="none" stroke="#63b8ff" d="M925.45,-165.58C918.34,-158.15 907.93,-147.29 899.19,-138.16"/>
<polygon fill="#63b8ff" stroke="#63b8ff" points="901.97,-136 892.53,-131.2 896.92,-140.85 901.97,-136"/>
</a>
</g>
</g>
<!-- Node15&#45;&gt;Node11 -->
<g id="edge24_Node000015_Node000011" class="edge">
<title>Node15&#45;&gt;Node11</title>
<g id="a_edge24_Node000015_Node000011"><a xlink:title=" ">
<path fill="none" stroke="#63b8ff" d="M914.7,-165.3C897.34,-156.82 871.3,-143.46 849.88,-129.75 826.78,-114.97 801.99,-95.65 785.37,-82.14"/>
<polygon fill="#63b8ff" stroke="#63b8ff" points="787.72,-79.54 777.77,-75.9 783.28,-84.95 787.72,-79.54"/>
</a>
</g>
</g>
<!-- Node16 -->
<g id="Node000016" class="node">
<title>Node16</title>
<g id="a_Node000016"><a xlink:title=" ">
<polygon fill="#e0e0e0" stroke="#999999" points="1213.5,-74.5 1168.25,-74.5 1168.25,-55.25 1213.5,-55.25 1213.5,-74.5"/>
<text text-anchor="middle" x="1190.88" y="-61" font-family="Helvetica,sans-Serif" font-size="10.00">math.h</text>
</a>
</g>
</g>
<!-- Node15&#45;&gt;Node16 -->
<g id="edge22_Node000015_Node000016" class="edge">
<title>Node15&#45;&gt;Node16</title>
<g id="a_edge22_Node000015_Node000016"><a xlink:title=" ">
<path fill="none" stroke="#63b8ff" d="M973.23,-171.94C1014.38,-167.95 1079.69,-157.43 1128.88,-129.75 1149.01,-118.42 1166.77,-98.54 1178.07,-83.96"/>
<polygon fill="#63b8ff" stroke="#63b8ff" points="1180.75,-86.21 1183.9,-76.1 1175.13,-82.04 1180.75,-86.21"/>
</a>
</g>
</g>
<!-- Node17&#45;&gt;Node8 -->
<g id="edge26_Node000017_Node000008" class="edge">
<title>Node17&#45;&gt;Node8</title>
<g id="a_edge26_Node000017_Node000008"><a xlink:title=" ">
<path fill="none" stroke="#63b8ff" d="M1000.5,-220.67C999.49,-207.2 995.73,-181.61 981.88,-165.75 965.36,-146.86 939.27,-135.55 918.01,-129.04"/>
<polygon fill="#63b8ff" stroke="#63b8ff" points="919.13,-125.72 908.56,-126.39 917.24,-132.46 919.13,-125.72"/>
</a>
</g>
</g>
<!-- Node17&#45;&gt;Node11 -->
<g id="edge29_Node000017_Node000011" class="edge">
<title>Node17&#45;&gt;Node11</title>
<g id="a_edge29_Node000017_Node000011"><a xlink:title=" ">
<path fill="none" stroke="#63b8ff" d="M1003.39,-220.72C1006.53,-207.75 1010.4,-183.29 1000.88,-165.75 966.09,-101.64 878.94,-78.69 821.11,-70.46"/>
<polygon fill="#63b8ff" stroke="#63b8ff" points="821.83,-67.03 811.46,-69.2 820.93,-73.97 821.83,-67.03"/>
</a>
</g>
</g>
<!-- Node17&#45;&gt;Node15 -->
<g id="edge28_Node000017_Node000015" class="edge">
<title>Node17&#45;&gt;Node15</title>
<g id="a_edge28_Node000017_Node000015"><a xlink:title=" ">
<path fill="none" stroke="#63b8ff" d="M989.51,-220.59C979.83,-212.9 965.68,-201.65 954.07,-192.43"/>
<polygon fill="#63b8ff" stroke="#63b8ff" points="956.26,-189.7 946.26,-186.22 951.91,-195.18 956.26,-189.7"/>
</a>
</g>
</g>
<!-- Node18 -->
<g id="Node000018" class="node">
<title>Node18</title>
<g id="a_Node000018"><a xlink:href="_block_type_8h_source.html" target="_top" xlink:title=" ">
<polygon fill="white" stroke="#666666" points="1649.5,-74.5 1580.25,-74.5 1580.25,-55.25 1649.5,-55.25 1649.5,-74.5"/>
<text text-anchor="middle" x="1614.88" y="-61" font-family="Helvetica,sans-Serif" font-size="10.00">BlockType.h</text>
</a>
</g>
</g>
<!-- Node17&#45;&gt;Node18 -->
<g id="edge27_Node000017_Node000018" class="edge">
<title>Node17&#45;&gt;Node18</title>
<g id="a_edge27_Node000017_Node000018"><a xlink:title=" ">
<path fill="none" stroke="#63b8ff" d="M1058.38,-228.24C1192.44,-224.55 1517.4,-212.82 1557.88,-185 1591.47,-161.9 1605.9,-113.41 1611.58,-85.95"/>
<polygon fill="#63b8ff" stroke="#63b8ff" points="1615.01,-86.63 1613.38,-76.16 1608.13,-85.36 1615.01,-86.63"/>
</a>
</g>
</g>
<!-- Node19&#45;&gt;Node8 -->
<g id="edge31_Node000019_Node000008" class="edge">
<title>Node19&#45;&gt;Node8</title>
<g id="a_edge31_Node000019_Node000008"><a xlink:title=" ">
<path fill="none" stroke="#63b8ff" d="M668.23,-220.81C667.75,-207.04 668.98,-180.5 683.88,-165.75 706.59,-143.27 796.23,-130.3 847.11,-124.61"/>
<polygon fill="#63b8ff" stroke="#63b8ff" points="847.47,-128.09 857.04,-123.54 846.72,-121.13 847.47,-128.09"/>
</a>
</g>
</g>
<!-- Node19&#45;&gt;Node11 -->
<g id="edge36_Node000019_Node000011" class="edge">
<title>Node19&#45;&gt;Node11</title>
<g id="a_edge36_Node000019_Node000011"><a xlink:title=" ">
<path fill="none" stroke="#63b8ff" d="M667,-220.53C664.81,-207.75 662.36,-184 669.88,-165.75 684.78,-129.56 719.53,-99.02 742.87,-81.57"/>
<polygon fill="#63b8ff" stroke="#63b8ff" points="744.8,-84.49 750.86,-75.8 740.7,-78.82 744.8,-84.49"/>
</a>
</g>
</g>
<!-- Node19&#45;&gt;Node20 -->
<g id="edge32_Node000019_Node000020" class="edge">
<title>Node19&#45;&gt;Node20</title>
<g id="a_edge32_Node000019_Node000020"><a xlink:title=" ">
<path fill="none" stroke="#63b8ff" d="M685.33,-220.59C700.1,-212.48 722.05,-200.43 739.31,-190.96"/>
<polygon fill="#63b8ff" stroke="#63b8ff" points="740.93,-194.06 748.01,-186.18 737.56,-187.93 740.93,-194.06"/>
</a>
</g>
</g>
<!-- Node20&#45;&gt;Node8 -->
<g id="edge33_Node000020_Node000008" class="edge">
<title>Node20&#45;&gt;Node8</title>
<g id="a_edge33_Node000020_Node000008"><a xlink:title=" ">
<path fill="none" stroke="#63b8ff" d="M785.72,-165.34C804.04,-157 831.52,-144.5 852.58,-134.91"/>
<polygon fill="#63b8ff" stroke="#63b8ff" points="853.9,-138.16 861.55,-130.83 851,-131.79 853.9,-138.16"/>
</a>
</g>
</g>
<!-- Node20&#45;&gt;Node11 -->
<g id="edge34_Node000020_Node000011" class="edge">
<title>Node20&#45;&gt;Node11</title>
<g id="a_edge34_Node000020_Node000011"><a xlink:title=" ">
<path fill="none" stroke="#63b8ff" d="M765.88,-165.5C765.88,-148.25 765.88,-109.83 765.88,-86.06"/>
<polygon fill="#63b8ff" stroke="#63b8ff" points="769.38,-86.39 765.88,-76.39 762.38,-86.39 769.38,-86.39"/>
</a>
</g>
</g>
<!-- Node20&#45;&gt;Node16 -->
<g id="edge35_Node000020_Node000016" class="edge">
<title>Node20&#45;&gt;Node16</title>
<g id="a_edge35_Node000020_Node000016"><a xlink:title=" ">
<path fill="none" stroke="#63b8ff" d="M801.38,-165.31C882,-144.73 1078.01,-94.69 1157.03,-74.52"/>
<polygon fill="#63b8ff" stroke="#63b8ff" points="1157.52,-78 1166.34,-72.14 1155.79,-71.22 1157.52,-78"/>
</a>
</g>
</g>
<!-- Node21&#45;&gt;Node8 -->
<g id="edge39_Node000021_Node000008" class="edge">
<title>Node21&#45;&gt;Node8</title>
<g id="a_edge39_Node000021_Node000008"><a xlink:title=" ">
<path fill="none" stroke="#63b8ff" d="M520.68,-166.96C523.79,-166.55 526.87,-166.14 529.88,-165.75 645.83,-150.61 783.31,-133.46 847.09,-125.55"/>
<polygon fill="#63b8ff" stroke="#63b8ff" points="847.48,-129.03 856.97,-124.33 846.62,-122.08 847.48,-129.03"/>
</a>
</g>
</g>
<!-- Node21&#45;&gt;Node11 -->
<g id="edge40_Node000021_Node000011" class="edge">
<title>Node21&#45;&gt;Node11</title>
<g id="a_edge40_Node000021_Node000011"><a xlink:title=" ">
<path fill="none" stroke="#63b8ff" d="M480.77,-165.38C503.71,-151.84 549.38,-126.17 590.88,-110.5 630.05,-95.71 675.97,-84.21 710.95,-76.59"/>
<polygon fill="#63b8ff" stroke="#63b8ff" points="711.37,-80.07 720.42,-74.56 709.9,-73.23 711.37,-80.07"/>
</a>
</g>
</g>
<!-- Node22&#45;&gt;Node8 -->
<g id="edge43_Node000022_Node000008" class="edge">
<title>Node22&#45;&gt;Node8</title>
<g id="a_edge43_Node000022_Node000008"><a xlink:title=" ">
<path fill="none" stroke="#63b8ff" d="M1308.5,-166.87C1305.59,-166.48 1302.69,-166.1 1299.88,-165.75 1158.9,-148.08 990.55,-131.42 918.47,-124.5"/>
<polygon fill="#63b8ff" stroke="#63b8ff" points="919.15,-121.04 908.86,-123.58 918.48,-128.01 919.15,-121.04"/>
</a>
</g>
</g>
<!-- Node22&#45;&gt;Node11 -->
<g id="edge49_Node000022_Node000011" class="edge">
<title>Node22&#45;&gt;Node11</title>
<g id="a_edge49_Node000022_Node000011"><a xlink:title=" ">
<path fill="none" stroke="#63b8ff" d="M1331.61,-165.29C1287.78,-151.53 1200.58,-125.42 1124.88,-110.5 1018.35,-89.51 891.98,-76.52 821.15,-70.3"/>
<polygon fill="#63b8ff" stroke="#63b8ff" points="821.62,-66.82 811.36,-69.45 821.02,-73.8 821.62,-66.82"/>
</a>
</g>
</g>
<!-- Node22&#45;&gt;Node23 -->
<g id="edge44_Node000022_Node000023" class="edge">
<title>Node22&#45;&gt;Node23</title>
<g id="a_edge44_Node000022_Node000023"><a xlink:title=" ">
<path fill="none" stroke="#63b8ff" d="M1361.2,-165.58C1362.19,-158.99 1363.58,-149.71 1364.84,-141.32"/>
<polygon fill="#63b8ff" stroke="#63b8ff" points="1368.28,-142.01 1366.3,-131.61 1361.35,-140.97 1368.28,-142.01"/>
</a>
</g>
</g>
<!-- Node23&#45;&gt;Node7 -->
<g id="edge47_Node000023_Node000007" class="edge">
<title>Node23&#45;&gt;Node7</title>
<g id="a_edge47_Node000023_Node000007"><a xlink:title=" ">
<path fill="none" stroke="#63b8ff" d="M1368.07,-110.01C1368.84,-96.32 1372.3,-70.45 1386.88,-55.25 1412.43,-28.61 1454.57,-17.87 1483.92,-13.54"/>
<polygon fill="#63b8ff" stroke="#63b8ff" points="1484.26,-17.03 1493.74,-12.29 1483.38,-10.09 1484.26,-17.03"/>
</a>
</g>
</g>
<!-- Node23&#45;&gt;Node10 -->
<g id="edge48_Node000023_Node000010" class="edge">
<title>Node23&#45;&gt;Node10</title>
<g id="a_edge48_Node000023_Node000010"><a xlink:title=" ">
<path fill="none" stroke="#63b8ff" d="M1393.15,-110.09C1417.23,-101.49 1453.73,-88.44 1480.86,-78.75"/>
<polygon fill="#63b8ff" stroke="#63b8ff" points="1481.81,-82.12 1490.05,-75.46 1479.46,-75.53 1481.81,-82.12"/>
</a>
</g>
</g>
<!-- Node23&#45;&gt;Node16 -->
<g id="edge45_Node000023_Node000016" class="edge">
<title>Node23&#45;&gt;Node16</title>
<g id="a_edge45_Node000023_Node000016"><a xlink:title=" ">
<path fill="none" stroke="#63b8ff" d="M1337.85,-110.09C1306.53,-100.67 1257.52,-85.93 1224.81,-76.09"/>
<polygon fill="#63b8ff" stroke="#63b8ff" points="1226.02,-72.79 1215.43,-73.26 1224,-79.5 1226.02,-72.79"/>
</a>
</g>
</g>
<!-- Node24 -->
<g id="Node000024" class="node">
<title>Node24</title>
<g id="a_Node000024"><a xlink:title=" ">
<polygon fill="#e0e0e0" stroke="#999999" points="1446.12,-74.5 1395.62,-74.5 1395.62,-55.25 1446.12,-55.25 1446.12,-74.5"/>
<text text-anchor="middle" x="1420.88" y="-61" font-family="Helvetica,sans-Serif" font-size="10.00">numeric</text>
</a>
</g>
</g>
<!-- Node23&#45;&gt;Node24 -->
<g id="edge46_Node000023_Node000024" class="edge">
<title>Node23&#45;&gt;Node24</title>
<g id="a_edge46_Node000023_Node000024"><a xlink:title=" ">
<path fill="none" stroke="#63b8ff" d="M1376.63,-110.33C1384.02,-102.9 1394.84,-92.04 1403.92,-82.91"/>
<polygon fill="#63b8ff" stroke="#63b8ff" points="1406.29,-85.49 1410.87,-75.93 1401.33,-80.55 1406.29,-85.49"/>
</a>
</g>
</g>
<!-- Node25&#45;&gt;Node8 -->
<g id="edge51_Node000025_Node000008" class="edge">
<title>Node25&#45;&gt;Node8</title>
<g id="a_edge51_Node000025_Node000008"><a xlink:title=" ">
<path fill="none" stroke="#63b8ff" d="M599.27,-169.22C657.68,-159.31 785.34,-137.67 847.48,-127.13"/>
<polygon fill="#63b8ff" stroke="#63b8ff" points="847.88,-130.61 857.15,-125.49 846.7,-123.71 847.88,-130.61"/>
</a>
</g>
</g>
<!-- Node25&#45;&gt;Node11 -->
<g id="edge52_Node000025_Node000011" class="edge">
<title>Node25&#45;&gt;Node11</title>
<g id="a_edge52_Node000025_Node000011"><a xlink:title=" ">
<path fill="none" stroke="#63b8ff" d="M572.59,-165.5C578.85,-151.66 592.79,-125.01 612.88,-110.5 641.54,-89.79 679.72,-78.64 710.76,-72.66"/>
<polygon fill="#63b8ff" stroke="#63b8ff" points="711.13,-76.15 720.36,-70.95 709.9,-69.26 711.13,-76.15"/>
</a>
</g>
</g>
<!-- Node26&#45;&gt;Node6 -->
<g id="edge54_Node000026_Node000006" class="edge">
<title>Node26&#45;&gt;Node6</title>
<g id="a_edge54_Node000026_Node000006"><a xlink:title=" ">
<path fill="none" stroke="#63b8ff" d="M1730.92,-110.25C1734.89,-93 1743.75,-54.58 1749.22,-30.81"/>
<polygon fill="#63b8ff" stroke="#63b8ff" points="1752.63,-31.63 1751.46,-21.1 1745.81,-30.06 1752.63,-31.63"/>
</a>
</g>
</g>
<!-- Node26&#45;&gt;Node7 -->
<g id="edge55_Node000026_Node000007" class="edge">
<title>Node26&#45;&gt;Node7</title>
<g id="a_edge55_Node000026_Node000007"><a xlink:title=" ">
<path fill="none" stroke="#63b8ff" d="M1726.2,-110.19C1721.57,-96.25 1710.68,-69.48 1691.88,-55.25 1650.02,-23.58 1588.09,-14.25 1550.22,-11.58"/>
<polygon fill="#63b8ff" stroke="#63b8ff" points="1550.52,-8.09 1540.34,-11.02 1550.12,-15.08 1550.52,-8.09"/>
</a>
</g>
</g>
<!-- Node26&#45;&gt;Node10 -->
<g id="edge57_Node000026_Node000010" class="edge">
<title>Node26&#45;&gt;Node10</title>
<g id="a_edge57_Node000026_Node000010"><a xlink:title=" ">
<path fill="none" stroke="#63b8ff" d="M1705.38,-113.22C1671.36,-104.68 1607.68,-88.68 1563.82,-77.67"/>
<polygon fill="#63b8ff" stroke="#63b8ff" points="1564.86,-74.32 1554.31,-75.28 1563.16,-81.11 1564.86,-74.32"/>
</a>
</g>
</g>
<!-- Node26&#45;&gt;Node18 -->
<g id="edge56_Node000026_Node000018" class="edge">
<title>Node26&#45;&gt;Node18</title>
<g id="a_edge56_Node000026_Node000018"><a xlink:title=" ">
<path fill="none" stroke="#63b8ff" d="M1709.54,-110.09C1691.77,-101.79 1665.16,-89.36 1644.67,-79.79"/>
<polygon fill="#63b8ff" stroke="#63b8ff" points="1646.22,-76.65 1635.68,-75.59 1643.26,-83 1646.22,-76.65"/>
</a>
</g>
</g>
<!-- Node27&#45;&gt;Node8 -->
<g id="edge59_Node000027_Node000008" class="edge">
<title>Node27&#45;&gt;Node8</title>
<g id="a_edge59_Node000027_Node000008"><a xlink:title=" ">
<path fill="none" stroke="#63b8ff" d="M1428.31,-166.66C1425.46,-166.34 1422.64,-166.04 1419.88,-165.75 1231.44,-146.15 1005.1,-129.64 918.73,-123.59"/>
<polygon fill="#63b8ff" stroke="#63b8ff" points="918.99,-120.1 908.77,-122.89 918.5,-127.08 918.99,-120.1"/>
</a>
</g>
</g>
<!-- Node27&#45;&gt;Node11 -->
<g id="edge61_Node000027_Node000011" class="edge">
<title>Node27&#45;&gt;Node11</title>
<g id="a_edge61_Node000027_Node000011"><a xlink:title=" ">
<path fill="none" stroke="#63b8ff" d="M1450.78,-165.34C1392.36,-151.75 1276.99,-126.01 1177.88,-110.5 1050.85,-90.62 900.39,-76.75 821.12,-70.19"/>
<polygon fill="#63b8ff" stroke="#63b8ff" points="821.72,-66.72 811.47,-69.39 821.15,-73.7 821.72,-66.72"/>
</a>
</g>
</g>
<!-- Node27&#45;&gt;Node23 -->
<g id="edge60_Node000027_Node000023" class="edge">
<title>Node27&#45;&gt;Node23</title>
<g id="a_edge60_Node000027_Node000023"><a xlink:title=" ">
<path fill="none" stroke="#63b8ff" d="M1468.35,-165.34C1449.31,-156.97 1420.72,-144.38 1398.9,-134.78"/>
<polygon fill="#63b8ff" stroke="#63b8ff" points="1400.45,-131.64 1389.89,-130.81 1397.63,-138.04 1400.45,-131.64"/>
</a>
</g>
</g>
<!-- Node28&#45;&gt;Node8 -->
<g id="edge64_Node000028_Node000008" class="edge">
<title>Node28&#45;&gt;Node8</title>
<g id="a_edge64_Node000028_Node000008"><a xlink:title=" ">
<path fill="none" stroke="#63b8ff" d="M1085.21,-165.28C1038.23,-155.03 962.64,-138.53 918.36,-128.87"/>
<polygon fill="#63b8ff" stroke="#63b8ff" points="919.28,-125.49 908.76,-126.78 917.79,-132.33 919.28,-125.49"/>
</a>
</g>
</g>
<!-- Node28&#45;&gt;Node11 -->
<g id="edge66_Node000028_Node000011" class="edge">
<title>Node28&#45;&gt;Node11</title>
<g id="a_edge66_Node000028_Node000011"><a xlink:title=" ">
<path fill="none" stroke="#63b8ff" d="M1119.73,-165.63C1107.61,-151.47 1081.53,-123.75 1052.88,-110.5 1012.64,-91.89 892.27,-77.79 820.83,-70.79"/>
<polygon fill="#63b8ff" stroke="#63b8ff" points="821.6,-67.35 811.31,-69.87 820.93,-74.31 821.6,-67.35"/>
</a>
</g>
</g>
<!-- Node28&#45;&gt;Node23 -->
<g id="edge65_Node000028_Node000023" class="edge">
<title>Node28&#45;&gt;Node23</title>
<g id="a_edge65_Node000028_Node000023"><a xlink:title=" ">
<path fill="none" stroke="#63b8ff" d="M1168.03,-165.28C1210.82,-155.83 1277.64,-141.06 1322.08,-131.24"/>
<polygon fill="#63b8ff" stroke="#63b8ff" points="1322.66,-134.7 1331.67,-129.13 1321.15,-127.87 1322.66,-134.7"/>
</a>
</g>
</g>
<!-- Node29&#45;&gt;Node8 -->
<g id="edge68_Node000029_Node000008" class="edge">
<title>Node29&#45;&gt;Node8</title>
<g id="a_edge68_Node000029_Node000008"><a xlink:title=" ">
<path fill="none" stroke="#63b8ff" d="M1204.76,-167.15C1201.75,-166.67 1198.77,-166.2 1195.88,-165.75 1095.39,-150.25 976.44,-133.82 918.36,-125.92"/>
<polygon fill="#63b8ff" stroke="#63b8ff" points="919.13,-122.49 908.75,-124.61 918.19,-129.43 919.13,-122.49"/>
</a>
</g>
</g>
<!-- Node29&#45;&gt;Node11 -->
<g id="edge70_Node000029_Node000011" class="edge">
<title>Node29&#45;&gt;Node11</title>
<g id="a_edge70_Node000029_Node000011"><a xlink:title=" ">
<path fill="none" stroke="#63b8ff" d="M1228.55,-165.34C1197.92,-151.4 1136.02,-124.76 1080.88,-110.5 991.52,-87.4 884.6,-75.44 821.13,-69.92"/>
<polygon fill="#63b8ff" stroke="#63b8ff" points="821.56,-66.45 811.3,-69.09 820.97,-73.42 821.56,-66.45"/>
</a>
</g>
</g>
<!-- Node29&#45;&gt;Node23 -->
<g id="edge69_Node000029_Node000023" class="edge">
<title>Node29&#45;&gt;Node23</title>
<g id="a_edge69_Node000029_Node000023"><a xlink:title=" ">
<path fill="none" stroke="#63b8ff" d="M1268.23,-165.34C1287.11,-156.97 1315.46,-144.38 1337.1,-134.78"/>
<polygon fill="#63b8ff" stroke="#63b8ff" points="1338.31,-138.07 1346.04,-130.82 1335.48,-131.67 1338.31,-138.07"/>
</a>
</g>
</g>
<!-- Node30&#45;&gt;Node8 -->
<g id="edge72_Node000030_Node000008" class="edge">
<title>Node30&#45;&gt;Node8</title>
<g id="a_edge72_Node000030_Node000008"><a xlink:title=" ">
<path fill="none" stroke="#63b8ff" d="M288.7,-166.72C291.46,-166.37 294.2,-166.05 296.88,-165.75 504.56,-142.69 755,-127.97 846.86,-123"/>
<polygon fill="#63b8ff" stroke="#63b8ff" points="846.94,-126.5 856.74,-122.47 846.57,-119.51 846.94,-126.5"/>
</a>
</g>
</g>
<!-- Node30&#45;&gt;Node11 -->
<g id="edge73_Node000030_Node000011" class="edge">
<title>Node30&#45;&gt;Node11</title>
<g id="a_edge73_Node000030_Node000011"><a xlink:title=" ">
<path fill="none" stroke="#63b8ff" d="M267.81,-165.26C312.82,-151.8 400.8,-126.49 476.88,-110.5 557.69,-93.51 652.48,-80.1 710.86,-72.57"/>
<polygon fill="#63b8ff" stroke="#63b8ff" points="711.06,-76.08 720.53,-71.34 710.17,-69.13 711.06,-76.08"/>
</a>
</g>
</g>
<!-- Node31&#45;&gt;Node8 -->
<g id="edge75_Node000031_Node000008" class="edge">
<title>Node31&#45;&gt;Node8</title>
<g id="a_edge75_Node000031_Node000008"><a xlink:title=" ">
<path fill="none" stroke="#63b8ff" d="M393.82,-166.86C396.54,-166.46 399.24,-166.09 401.88,-165.75 567.62,-144.34 766.77,-129.22 846.9,-123.57"/>
<polygon fill="#63b8ff" stroke="#63b8ff" points="847.04,-127.07 856.77,-122.89 846.55,-120.09 847.04,-127.07"/>
</a>
</g>
</g>
<!-- Node31&#45;&gt;Node11 -->
<g id="edge76_Node000031_Node000011" class="edge">
<title>Node31&#45;&gt;Node11</title>
<g id="a_edge76_Node000031_Node000011"><a xlink:title=" ">
<path fill="none" stroke="#63b8ff" d="M374.53,-165.26C411.26,-151.93 482.7,-126.9 544.88,-110.5 600.76,-95.76 665.69,-83.18 710.65,-75.17"/>
<polygon fill="#63b8ff" stroke="#63b8ff" points="711.19,-78.63 720.43,-73.45 709.97,-71.73 711.19,-78.63"/>
</a>
</g>
</g>
</g>
</svg>
