<?xml version="1.0" encoding="UTF-8" standalone="no"?>
<!DOCTYPE svg PUBLIC "-//W3C//DTD SVG 1.1//EN"
 "http://www.w3.org/Graphics/SVG/1.1/DTD/svg11.dtd">
<!-- Generated by graphviz version 12.2.1 (20241206.2353)
 -->
<!-- Title: model/OpenLoopCoronaryVarResBC.h Pages: 1 -->
<svg width="971pt" height="370pt"
 viewBox="0.00 0.00 970.88 370.00" xmlns="http://www.w3.org/2000/svg" xmlns:xlink="http://www.w3.org/1999/xlink">
<g id="graph0" class="graph" transform="scale(1 1) rotate(0) translate(4 366)">
<title>model/OpenLoopCoronaryVarResBC.h</title>
<!-- Node1 -->
<g id="Node000001" class="node">
<title>Node1</title>
<g id="a_Node000001"><a xlink:title="model::OpenLoopCoronaryVarResBC source file">
<polygon fill="#999999" stroke="#666666" points="644.38,-362 500.88,-362 500.88,-331.5 644.38,-331.5 644.38,-362"/>
<text text-anchor="start" x="508.88" y="-348.5" font-family="Helvetica,sans-Serif" font-size="10.00">model/OpenLoopCoronaryVar</text>
<text text-anchor="middle" x="572.62" y="-337.25" font-family="Helvetica,sans-Serif" font-size="10.00">ResBC.h</text>
</a>
</g>
</g>
<!-- Node2 -->
<g id="Node000002" class="node">
<title>Node2</title>
<g id="a_Node000002"><a xlink:href="_block_8h.html" target="_top" xlink:title="model::Block source file">
<polygon fill="white" stroke="#666666" points="347.75,-240.25 299.5,-240.25 299.5,-221 347.75,-221 347.75,-240.25"/>
<text text-anchor="middle" x="323.62" y="-226.75" font-family="Helvetica,sans-Serif" font-size="10.00">Block.h</text>
</a>
</g>
</g>
<!-- Node1&#45;&gt;Node2 -->
<g id="edge1_Node000001_Node000002" class="edge">
<title>Node1&#45;&gt;Node2</title>
<g id="a_edge1_Node000001_Node000002"><a xlink:title=" ">
<path fill="none" stroke="#63b8ff" d="M540.58,-331.06C492.08,-308.83 400.7,-266.95 353.51,-245.32"/>
<polygon fill="#63b8ff" stroke="#63b8ff" points="355.25,-242.27 344.7,-241.29 352.34,-248.63 355.25,-242.27"/>
</a>
</g>
</g>
<!-- Node10 -->
<g id="Node000010" class="node">
<title>Node10</title>
<g id="a_Node000010"><a xlink:href="_parameter_8h.html" target="_top" xlink:title="model::Parameter source file">
<polygon fill="white" stroke="#666666" points="839.88,-129.75 771.38,-129.75 771.38,-110.5 839.88,-110.5 839.88,-129.75"/>
<text text-anchor="middle" x="805.62" y="-116.25" font-family="Helvetica,sans-Serif" font-size="10.00">Parameter.h</text>
</a>
</g>
</g>
<!-- Node1&#45;&gt;Node10 -->
<g id="edge36_Node000001_Node000010" class="edge">
<title>Node1&#45;&gt;Node10</title>
<g id="a_edge36_Node000001_Node000010"><a xlink:title=" ">
<path fill="none" stroke="#63b8ff" d="M594.87,-331.13C608.8,-321.59 626.84,-308.54 641.62,-295.5 701.48,-242.71 763.83,-170.99 791.24,-138.45"/>
<polygon fill="#63b8ff" stroke="#63b8ff" points="793.59,-141.09 797.33,-131.18 788.23,-136.6 793.59,-141.09"/>
</a>
</g>
</g>
<!-- Node21 -->
<g id="Node000021" class="node">
<title>Node21</title>
<g id="a_Node000021"><a xlink:href="_open_loop_coronary_b_c_8h.html" target="_top" xlink:title="model::OpenLoopCoronaryBC source file">
<polygon fill="white" stroke="#666666" points="632.75,-295.5 512.5,-295.5 512.5,-276.25 632.75,-276.25 632.75,-295.5"/>
<text text-anchor="middle" x="572.62" y="-282" font-family="Helvetica,sans-Serif" font-size="10.00">OpenLoopCoronaryBC.h</text>
</a>
</g>
</g>
<!-- Node1&#45;&gt;Node21 -->
<g id="edge32_Node000001_Node000021" class="edge">
<title>Node1&#45;&gt;Node21</title>
<g id="a_edge32_Node000001_Node000021"><a xlink:title=" ">
<path fill="none" stroke="#63b8ff" d="M572.62,-331.2C572.62,-323.96 572.62,-315.09 572.62,-307.19"/>
<polygon fill="#63b8ff" stroke="#63b8ff" points="576.13,-307.46 572.63,-297.46 569.13,-307.46 576.13,-307.46"/>
</a>
</g>
</g>
<!-- Node3 -->
<g id="Node000003" class="node">
<title>Node3</title>
<g id="a_Node000003"><a xlink:title=" ">
<polygon fill="#e0e0e0" stroke="#999999" points="152.25,-129.75 89,-129.75 89,-110.5 152.25,-110.5 152.25,-129.75"/>
<text text-anchor="middle" x="120.62" y="-116.25" font-family="Helvetica,sans-Serif" font-size="10.00">Eigen/Core</text>
</a>
</g>
</g>
<!-- Node2&#45;&gt;Node3 -->
<g id="edge2_Node000002_Node000003" class="edge">
<title>Node2&#45;&gt;Node3</title>
<g id="a_edge2_Node000002_Node000003"><a xlink:title=" ">
<path fill="none" stroke="#63b8ff" d="M299,-225.89C269.16,-220.52 218.2,-208.54 180.62,-185 161.35,-172.93 144.12,-153.17 133.13,-138.82"/>
<polygon fill="#63b8ff" stroke="#63b8ff" points="136.21,-137.11 127.46,-131.13 130.58,-141.26 136.21,-137.11"/>
</a>
</g>
</g>
<!-- Node4 -->
<g id="Node000004" class="node">
<title>Node4</title>
<g id="a_Node000004"><a xlink:title=" ">
<polygon fill="#e0e0e0" stroke="#999999" points="218.03,-185 189.22,-185 189.22,-165.75 218.03,-165.75 218.03,-185"/>
<text text-anchor="middle" x="203.62" y="-171.5" font-family="Helvetica,sans-Serif" font-size="10.00">list</text>
</a>
</g>
</g>
<!-- Node2&#45;&gt;Node4 -->
<g id="edge3_Node000002_Node000004" class="edge">
<title>Node2&#45;&gt;Node4</title>
<g id="a_edge3_Node000002_Node000004"><a xlink:title=" ">
<path fill="none" stroke="#63b8ff" d="M303.27,-220.59C282.68,-211.45 250.8,-197.31 228.67,-187.49"/>
<polygon fill="#63b8ff" stroke="#63b8ff" points="230.34,-184.4 219.78,-183.54 227.5,-190.8 230.34,-184.4"/>
</a>
</g>
</g>
<!-- Node5 -->
<g id="Node000005" class="node">
<title>Node5</title>
<g id="a_Node000005"><a xlink:title=" ">
<polygon fill="#e0e0e0" stroke="#999999" points="314,-19.25 279.25,-19.25 279.25,0 314,0 314,-19.25"/>
<text text-anchor="middle" x="296.62" y="-5.75" font-family="Helvetica,sans-Serif" font-size="10.00">map</text>
</a>
</g>
</g>
<!-- Node2&#45;&gt;Node5 -->
<g id="edge4_Node000002_Node000005" class="edge">
<title>Node2&#45;&gt;Node5</title>
<g id="a_edge4_Node000002_Node000005"><a xlink:title=" ">
<path fill="none" stroke="#63b8ff" d="M317.31,-220.77C301.51,-197.93 260.64,-134.63 248.62,-74.5 246.95,-66.11 245.21,-63.09 248.62,-55.25 253.67,-43.67 263.36,-33.74 272.73,-26.21"/>
<polygon fill="#63b8ff" stroke="#63b8ff" points="274.62,-29.17 280.58,-20.41 270.46,-23.54 274.62,-29.17"/>
</a>
</g>
</g>
<!-- Node6 -->
<g id="Node000006" class="node">
<title>Node6</title>
<g id="a_Node000006"><a xlink:title=" ">
<polygon fill="#e0e0e0" stroke="#999999" points="442.12,-19.25 399.12,-19.25 399.12,0 442.12,0 442.12,-19.25"/>
<text text-anchor="middle" x="420.62" y="-5.75" font-family="Helvetica,sans-Serif" font-size="10.00">vector</text>
</a>
</g>
</g>
<!-- Node2&#45;&gt;Node6 -->
<g id="edge5_Node000002_Node000006" class="edge">
<title>Node2&#45;&gt;Node6</title>
<g id="a_edge5_Node000002_Node000006"><a xlink:title=" ">
<path fill="none" stroke="#63b8ff" d="M348.07,-226.43C372.17,-221.84 407.78,-210.86 424.62,-185 455.97,-136.88 438.68,-64.36 427.61,-30"/>
<polygon fill="#63b8ff" stroke="#63b8ff" points="431.07,-29.31 424.53,-20.97 424.45,-31.57 431.07,-29.31"/>
</a>
</g>
</g>
<!-- Node7 -->
<g id="Node000007" class="node">
<title>Node7</title>
<g id="a_Node000007"><a xlink:href="_activation_function_8h.html" target="_top" xlink:title="Activation function classes for cardiac chamber models.">
<polygon fill="white" stroke="#666666" points="415.88,-185 311.38,-185 311.38,-165.75 415.88,-165.75 415.88,-185"/>
<text text-anchor="middle" x="363.62" y="-171.5" font-family="Helvetica,sans-Serif" font-size="10.00">ActivationFunction.h</text>
</a>
</g>
</g>
<!-- Node2&#45;&gt;Node7 -->
<g id="edge6_Node000002_Node000007" class="edge">
<title>Node2&#45;&gt;Node7</title>
<g id="a_edge6_Node000002_Node000007"><a xlink:title=" ">
<path fill="none" stroke="#63b8ff" d="M330.23,-220.83C335.58,-213.71 343.3,-203.43 349.97,-194.55"/>
<polygon fill="#63b8ff" stroke="#63b8ff" points="352.76,-196.67 355.97,-186.57 347.16,-192.46 352.76,-196.67"/>
</a>
</g>
</g>
<!-- Node2&#45;&gt;Node10 -->
<g id="edge24_Node000002_Node000010" class="edge">
<title>Node2&#45;&gt;Node10</title>
<g id="a_edge24_Node000002_Node000010"><a xlink:title=" ">
<path fill="none" stroke="#63b8ff" d="M348.21,-227.62C400.08,-223.05 524.3,-210.21 625.62,-185 678.99,-171.72 738.76,-148.84 774.23,-134.37"/>
<polygon fill="#63b8ff" stroke="#63b8ff" points="775.12,-137.79 783.03,-130.75 772.45,-131.32 775.12,-137.79"/>
</a>
</g>
</g>
<!-- Node15 -->
<g id="Node000015" class="node">
<title>Node15</title>
<g id="a_Node000015"><a xlink:href="_d_o_f_handler_8h.html" target="_top" xlink:title="model::DOFHandler source file">
<polygon fill="white" stroke="#666666" points="335.38,-74.5 257.88,-74.5 257.88,-55.25 335.38,-55.25 335.38,-74.5"/>
<text text-anchor="middle" x="296.62" y="-61" font-family="Helvetica,sans-Serif" font-size="10.00">DOFHandler.h</text>
</a>
</g>
</g>
<!-- Node2&#45;&gt;Node15 -->
<g id="edge23_Node000002_Node000015" class="edge">
<title>Node2&#45;&gt;Node15</title>
<g id="a_edge23_Node000002_Node000015"><a xlink:title=" ">
<path fill="none" stroke="#63b8ff" d="M318.19,-220.78C313.14,-212.05 305.91,-198.12 302.62,-185 294.15,-151.1 294.24,-110.13 295.29,-86.14"/>
<polygon fill="#63b8ff" stroke="#63b8ff" points="298.78,-86.4 295.83,-76.23 291.79,-86.02 298.78,-86.4"/>
</a>
</g>
</g>
<!-- Node16 -->
<g id="Node000016" class="node">
<title>Node16</title>
<g id="a_Node000016"><a xlink:href="_block_type_8h.html" target="_top" xlink:title="Specifies the types of blocks and their parameters.">
<polygon fill="white" stroke="#666666" points="69.25,-185 0,-185 0,-165.75 69.25,-165.75 69.25,-185"/>
<text text-anchor="middle" x="34.62" y="-171.5" font-family="Helvetica,sans-Serif" font-size="10.00">BlockType.h</text>
</a>
</g>
</g>
<!-- Node2&#45;&gt;Node16 -->
<g id="edge21_Node000002_Node000016" class="edge">
<title>Node2&#45;&gt;Node16</title>
<g id="a_edge21_Node000002_Node000016"><a xlink:title=" ">
<path fill="none" stroke="#63b8ff" d="M299.26,-225.3C257.01,-217.77 167.12,-201.66 80.74,-185.38"/>
<polygon fill="#63b8ff" stroke="#63b8ff" points="81.64,-181.99 71.17,-183.57 80.35,-188.87 81.64,-181.99"/>
</a>
</g>
</g>
<!-- Node17 -->
<g id="Node000017" class="node">
<title>Node17</title>
<g id="a_Node000017"><a xlink:href="_sparse_system_8h.html" target="_top" xlink:title="SparseSystem source file.">
<polygon fill="white" stroke="#666666" points="616.25,-185 529,-185 529,-165.75 616.25,-165.75 616.25,-185"/>
<text text-anchor="middle" x="572.62" y="-171.5" font-family="Helvetica,sans-Serif" font-size="10.00">SparseSystem.h</text>
</a>
</g>
</g>
<!-- Node2&#45;&gt;Node17 -->
<g id="edge25_Node000002_Node000017" class="edge">
<title>Node2&#45;&gt;Node17</title>
<g id="a_edge25_Node000002_Node000017"><a xlink:title=" ">
<path fill="none" stroke="#63b8ff" d="M347.95,-224.42C387.29,-216.01 465.78,-199.23 518.76,-187.89"/>
<polygon fill="#63b8ff" stroke="#63b8ff" points="519.46,-191.32 528.51,-185.81 517.99,-184.48 519.46,-191.32"/>
</a>
</g>
</g>
<!-- Node20 -->
<g id="Node000020" class="node">
<title>Node20</title>
<g id="a_Node000020"><a xlink:href="_state_8h.html" target="_top" xlink:title="State source file.">
<polygon fill="white" stroke="#666666" points="134,-185 87.25,-185 87.25,-165.75 134,-165.75 134,-185"/>
<text text-anchor="middle" x="110.62" y="-171.5" font-family="Helvetica,sans-Serif" font-size="10.00">State.h</text>
</a>
</g>
</g>
<!-- Node2&#45;&gt;Node20 -->
<g id="edge30_Node000002_Node000020" class="edge">
<title>Node2&#45;&gt;Node20</title>
<g id="a_edge30_Node000002_Node000020"><a xlink:title=" ">
<path fill="none" stroke="#63b8ff" d="M299.19,-223.52C261.45,-214.08 188.84,-195.93 145.56,-185.11"/>
<polygon fill="#63b8ff" stroke="#63b8ff" points="146.47,-181.73 135.92,-182.7 144.77,-188.52 146.47,-181.73"/>
</a>
</g>
</g>
<!-- Node7&#45;&gt;Node5 -->
<g id="edge7_Node000007_Node000005" class="edge">
<title>Node7&#45;&gt;Node5</title>
<g id="a_edge7_Node000007_Node000005"><a xlink:title=" ">
<path fill="none" stroke="#63b8ff" d="M364.11,-165.39C364.85,-144.65 364.44,-92.39 344.62,-55.25 338.6,-43.96 328.6,-33.97 319.28,-26.32"/>
<polygon fill="#63b8ff" stroke="#63b8ff" points="321.64,-23.72 311.57,-20.42 317.38,-29.27 321.64,-23.72"/>
</a>
</g>
</g>
<!-- Node7&#45;&gt;Node6 -->
<g id="edge10_Node000007_Node000006" class="edge">
<title>Node7&#45;&gt;Node6</title>
<g id="a_edge10_Node000007_Node000006"><a xlink:title=" ">
<path fill="none" stroke="#63b8ff" d="M366.69,-165.57C375.58,-140.03 401.54,-65.45 413.91,-29.9"/>
<polygon fill="#63b8ff" stroke="#63b8ff" points="417.07,-31.5 417.05,-20.9 410.45,-29.2 417.07,-31.5"/>
</a>
</g>
</g>
<!-- Node8 -->
<g id="Node000008" class="node">
<title>Node8</title>
<g id="a_Node000008"><a xlink:title=" ">
<polygon fill="#e0e0e0" stroke="#999999" points="517.88,-129.75 467.38,-129.75 467.38,-110.5 517.88,-110.5 517.88,-129.75"/>
<text text-anchor="middle" x="492.62" y="-116.25" font-family="Helvetica,sans-Serif" font-size="10.00">memory</text>
</a>
</g>
</g>
<!-- Node7&#45;&gt;Node8 -->
<g id="edge8_Node000007_Node000008" class="edge">
<title>Node7&#45;&gt;Node8</title>
<g id="a_edge8_Node000007_Node000008"><a xlink:title=" ">
<path fill="none" stroke="#63b8ff" d="M385.51,-165.34C405.99,-156.89 436.84,-144.15 460.18,-134.52"/>
<polygon fill="#63b8ff" stroke="#63b8ff" points="461.33,-137.83 469.24,-130.78 458.66,-131.36 461.33,-137.83"/>
</a>
</g>
</g>
<!-- Node9 -->
<g id="Node000009" class="node">
<title>Node9</title>
<g id="a_Node000009"><a xlink:title=" ">
<polygon fill="#e0e0e0" stroke="#999999" points="249.62,-19.25 209.62,-19.25 209.62,0 249.62,0 249.62,-19.25"/>
<text text-anchor="middle" x="229.62" y="-5.75" font-family="Helvetica,sans-Serif" font-size="10.00">string</text>
</a>
</g>
</g>
<!-- Node7&#45;&gt;Node9 -->
<g id="edge9_Node000007_Node000009" class="edge">
<title>Node7&#45;&gt;Node9</title>
<g id="a_edge9_Node000007_Node000009"><a xlink:title=" ">
<path fill="none" stroke="#63b8ff" d="M348.51,-165.33C323.9,-149.83 275.27,-115.85 248.62,-74.5 240.08,-61.23 235.24,-43.97 232.59,-30.74"/>
<polygon fill="#63b8ff" stroke="#63b8ff" points="236.07,-30.3 230.93,-21.03 229.17,-31.48 236.07,-30.3"/>
</a>
</g>
</g>
<!-- Node7&#45;&gt;Node10 -->
<g id="edge11_Node000007_Node000010" class="edge">
<title>Node7&#45;&gt;Node10</title>
<g id="a_edge11_Node000007_Node000010"><a xlink:title=" ">
<path fill="none" stroke="#63b8ff" d="M416.06,-168.06C503.34,-157.54 676.95,-136.63 759.7,-126.66"/>
<polygon fill="#63b8ff" stroke="#63b8ff" points="759.98,-130.15 769.49,-125.48 759.14,-123.2 759.98,-130.15"/>
</a>
</g>
</g>
<!-- Node10&#45;&gt;Node6 -->
<g id="edge16_Node000010_Node000006" class="edge">
<title>Node10&#45;&gt;Node6</title>
<g id="a_edge16_Node000010_Node000006"><a xlink:title=" ">
<path fill="none" stroke="#63b8ff" d="M798.37,-110.35C786.07,-96.13 759.62,-68.34 730.62,-55.25 681.56,-33.09 522.88,-18.51 453.55,-13.04"/>
<polygon fill="#63b8ff" stroke="#63b8ff" points="454.2,-9.58 443.96,-12.3 453.67,-16.56 454.2,-9.58"/>
</a>
</g>
</g>
<!-- Node11 -->
<g id="Node000011" class="node">
<title>Node11</title>
<g id="a_Node000011"><a xlink:title=" ">
<polygon fill="#e0e0e0" stroke="#999999" points="833.5,-74.5 777.75,-74.5 777.75,-55.25 833.5,-55.25 833.5,-74.5"/>
<text text-anchor="middle" x="805.62" y="-61" font-family="Helvetica,sans-Serif" font-size="10.00">algorithm</text>
</a>
</g>
</g>
<!-- Node10&#45;&gt;Node11 -->
<g id="edge12_Node000010_Node000011" class="edge">
<title>Node10&#45;&gt;Node11</title>
<g id="a_edge12_Node000010_Node000011"><a xlink:title=" ">
<path fill="none" stroke="#63b8ff" d="M805.62,-110.33C805.62,-103.82 805.62,-94.67 805.62,-86.37"/>
<polygon fill="#63b8ff" stroke="#63b8ff" points="809.13,-86.37 805.63,-76.37 802.13,-86.37 809.13,-86.37"/>
</a>
</g>
</g>
<!-- Node12 -->
<g id="Node000012" class="node">
<title>Node12</title>
<g id="a_Node000012"><a xlink:title=" ">
<polygon fill="#e0e0e0" stroke="#999999" points="894.12,-74.5 851.12,-74.5 851.12,-55.25 894.12,-55.25 894.12,-74.5"/>
<text text-anchor="middle" x="872.62" y="-61" font-family="Helvetica,sans-Serif" font-size="10.00">cmath</text>
</a>
</g>
</g>
<!-- Node10&#45;&gt;Node12 -->
<g id="edge13_Node000010_Node000012" class="edge">
<title>Node10&#45;&gt;Node12</title>
<g id="a_edge13_Node000010_Node000012"><a xlink:title=" ">
<path fill="none" stroke="#63b8ff" d="M816.99,-110.09C826.67,-102.4 840.82,-91.15 852.43,-81.93"/>
<polygon fill="#63b8ff" stroke="#63b8ff" points="854.59,-84.68 860.24,-75.72 850.24,-79.2 854.59,-84.68"/>
</a>
</g>
</g>
<!-- Node13 -->
<g id="Node000013" class="node">
<title>Node13</title>
<g id="a_Node000013"><a xlink:title=" ">
<polygon fill="#e0e0e0" stroke="#999999" points="721.38,-74.5 667.88,-74.5 667.88,-55.25 721.38,-55.25 721.38,-74.5"/>
<text text-anchor="middle" x="694.62" y="-61" font-family="Helvetica,sans-Serif" font-size="10.00">iostream</text>
</a>
</g>
</g>
<!-- Node10&#45;&gt;Node13 -->
<g id="edge14_Node000010_Node000013" class="edge">
<title>Node10&#45;&gt;Node13</title>
<g id="a_edge14_Node000010_Node000013"><a xlink:title=" ">
<path fill="none" stroke="#63b8ff" d="M786.8,-110.09C769.57,-101.83 743.82,-89.48 723.92,-79.93"/>
<polygon fill="#63b8ff" stroke="#63b8ff" points="725.44,-76.78 714.91,-75.61 722.41,-83.09 725.44,-76.78"/>
</a>
</g>
</g>
<!-- Node14 -->
<g id="Node000014" class="node">
<title>Node14</title>
<g id="a_Node000014"><a xlink:title=" ">
<polygon fill="#e0e0e0" stroke="#999999" points="962.88,-74.5 912.38,-74.5 912.38,-55.25 962.88,-55.25 962.88,-74.5"/>
<text text-anchor="middle" x="937.62" y="-61" font-family="Helvetica,sans-Serif" font-size="10.00">numeric</text>
</a>
</g>
</g>
<!-- Node10&#45;&gt;Node14 -->
<g id="edge15_Node000010_Node000014" class="edge">
<title>Node10&#45;&gt;Node14</title>
<g id="a_edge15_Node000010_Node000014"><a xlink:title=" ">
<path fill="none" stroke="#63b8ff" d="M828.02,-110.09C849.07,-101.6 880.83,-88.79 904.75,-79.14"/>
<polygon fill="#63b8ff" stroke="#63b8ff" points="905.76,-82.51 913.72,-75.52 903.14,-76.01 905.76,-82.51"/>
</a>
</g>
</g>
<!-- Node10&#45;&gt;Node15 -->
<g id="edge17_Node000010_Node000015" class="edge">
<title>Node10&#45;&gt;Node15</title>
<g id="a_edge17_Node000010_Node000015"><a xlink:title=" ">
<path fill="none" stroke="#63b8ff" d="M770.94,-115.41C756.6,-113.89 739.81,-112.1 724.62,-110.5 588.13,-96.12 427.12,-79.4 347.08,-71.1"/>
<polygon fill="#63b8ff" stroke="#63b8ff" points="347.68,-67.64 337.37,-70.09 346.96,-74.61 347.68,-67.64"/>
</a>
</g>
</g>
<!-- Node15&#45;&gt;Node5 -->
<g id="edge18_Node000015_Node000005" class="edge">
<title>Node15&#45;&gt;Node5</title>
<g id="a_edge18_Node000015_Node000005"><a xlink:title=" ">
<path fill="none" stroke="#63b8ff" d="M296.62,-55.08C296.62,-48.57 296.62,-39.42 296.62,-31.12"/>
<polygon fill="#63b8ff" stroke="#63b8ff" points="300.13,-31.12 296.63,-21.12 293.13,-31.12 300.13,-31.12"/>
</a>
</g>
</g>
<!-- Node15&#45;&gt;Node6 -->
<g id="edge20_Node000015_Node000006" class="edge">
<title>Node15&#45;&gt;Node6</title>
<g id="a_edge20_Node000015_Node000006"><a xlink:title=" ">
<path fill="none" stroke="#63b8ff" d="M317.66,-54.84C337.26,-46.43 366.73,-33.77 389.13,-24.15"/>
<polygon fill="#63b8ff" stroke="#63b8ff" points="390.29,-27.46 398.1,-20.3 387.53,-21.03 390.29,-27.46"/>
</a>
</g>
</g>
<!-- Node15&#45;&gt;Node9 -->
<g id="edge19_Node000015_Node000009" class="edge">
<title>Node15&#45;&gt;Node9</title>
<g id="a_edge19_Node000015_Node000009"><a xlink:title=" ">
<path fill="none" stroke="#63b8ff" d="M285.26,-54.84C275.58,-47.15 261.43,-35.9 249.82,-26.68"/>
<polygon fill="#63b8ff" stroke="#63b8ff" points="252.01,-23.95 242.01,-20.47 247.66,-29.43 252.01,-23.95"/>
</a>
</g>
</g>
<!-- Node16&#45;&gt;Node9 -->
<g id="edge22_Node000016_Node000009" class="edge">
<title>Node16&#45;&gt;Node9</title>
<g id="a_edge22_Node000016_Node000009"><a xlink:title=" ">
<path fill="none" stroke="#63b8ff" d="M39.54,-165.33C46.99,-152.19 62.13,-127.54 79.62,-110.5 117.28,-73.82 170.12,-42.27 201.99,-24.91"/>
<polygon fill="#63b8ff" stroke="#63b8ff" points="203.44,-28.1 210.61,-20.3 200.14,-21.93 203.44,-28.1"/>
</a>
</g>
</g>
<!-- Node17&#45;&gt;Node8 -->
<g id="edge29_Node000017_Node000008" class="edge">
<title>Node17&#45;&gt;Node8</title>
<g id="a_edge29_Node000017_Node000008"><a xlink:title=" ">
<path fill="none" stroke="#63b8ff" d="M559.05,-165.34C547.22,-157.46 529.79,-145.86 515.75,-136.52"/>
<polygon fill="#63b8ff" stroke="#63b8ff" points="517.79,-133.67 507.52,-131.04 513.91,-139.5 517.79,-133.67"/>
</a>
</g>
</g>
<!-- Node17&#45;&gt;Node13 -->
<g id="edge28_Node000017_Node000013" class="edge">
<title>Node17&#45;&gt;Node13</title>
<g id="a_edge28_Node000017_Node000013"><a xlink:title=" ">
<path fill="none" stroke="#63b8ff" d="M616.67,-167.41C656.76,-160.07 711.6,-147.14 724.62,-129.75 735.36,-115.41 724.04,-96.6 712.36,-83.12"/>
<polygon fill="#63b8ff" stroke="#63b8ff" points="714.92,-80.74 705.52,-75.86 709.83,-85.54 714.92,-80.74"/>
</a>
</g>
</g>
<!-- Node18 -->
<g id="Node000018" class="node">
<title>Node18</title>
<g id="a_Node000018"><a xlink:title=" ">
<polygon fill="#e0e0e0" stroke="#999999" points="609.5,-129.75 535.75,-129.75 535.75,-110.5 609.5,-110.5 609.5,-129.75"/>
<text text-anchor="middle" x="572.62" y="-116.25" font-family="Helvetica,sans-Serif" font-size="10.00">Eigen/Sparse</text>
</a>
</g>
</g>
<!-- Node17&#45;&gt;Node18 -->
<g id="edge26_Node000017_Node000018" class="edge">
<title>Node17&#45;&gt;Node18</title>
<g id="a_edge26_Node000017_Node000018"><a xlink:title=" ">
<path fill="none" stroke="#63b8ff" d="M572.62,-165.58C572.62,-159.07 572.62,-149.92 572.62,-141.62"/>
<polygon fill="#63b8ff" stroke="#63b8ff" points="576.13,-141.62 572.63,-131.62 569.13,-141.62 576.13,-141.62"/>
</a>
</g>
</g>
<!-- Node19 -->
<g id="Node000019" class="node">
<title>Node19</title>
<g id="a_Node000019"><a xlink:title=" ">
<polygon fill="#e0e0e0" stroke="#999999" points="715.25,-129.75 628,-129.75 628,-110.5 715.25,-110.5 715.25,-129.75"/>
<text text-anchor="middle" x="671.62" y="-116.25" font-family="Helvetica,sans-Serif" font-size="10.00">Eigen/SparseLU</text>
</a>
</g>
</g>
<!-- Node17&#45;&gt;Node19 -->
<g id="edge27_Node000017_Node000019" class="edge">
<title>Node17&#45;&gt;Node19</title>
<g id="a_edge27_Node000017_Node000019"><a xlink:title=" ">
<path fill="none" stroke="#63b8ff" d="M589.42,-165.34C604.64,-157.16 627.32,-144.96 645.01,-135.44"/>
<polygon fill="#63b8ff" stroke="#63b8ff" points="646.27,-138.74 653.42,-130.92 642.95,-132.57 646.27,-138.74"/>
</a>
</g>
</g>
<!-- Node20&#45;&gt;Node3 -->
<g id="edge31_Node000020_Node000003" class="edge">
<title>Node20&#45;&gt;Node3</title>
<g id="a_edge31_Node000020_Node000003"><a xlink:title=" ">
<path fill="none" stroke="#63b8ff" d="M112.28,-165.58C113.51,-158.99 115.26,-149.71 116.83,-141.32"/>
<polygon fill="#63b8ff" stroke="#63b8ff" points="120.25,-142.07 118.66,-131.6 113.37,-140.78 120.25,-142.07"/>
</a>
</g>
</g>
<!-- Node21&#45;&gt;Node2 -->
<g id="edge33_Node000021_Node000002" class="edge">
<title>Node21&#45;&gt;Node2</title>
<g id="a_edge33_Node000021_Node000002"><a xlink:title=" ">
<path fill="none" stroke="#63b8ff" d="M530.1,-275.78C481.93,-265.48 404.28,-248.87 359.19,-239.23"/>
<polygon fill="#63b8ff" stroke="#63b8ff" points="360.19,-235.87 349.68,-237.2 358.73,-242.71 360.19,-235.87"/>
</a>
</g>
</g>
<!-- Node21&#45;&gt;Node10 -->
<g id="edge34_Node000021_Node000010" class="edge">
<title>Node21&#45;&gt;Node10</title>
<g id="a_edge34_Node000021_Node000010"><a xlink:title=" ">
<path fill="none" stroke="#63b8ff" d="M585.48,-275.84C623.52,-249.11 735.78,-170.21 783.62,-136.59"/>
<polygon fill="#63b8ff" stroke="#63b8ff" points="785.4,-139.62 791.57,-131 781.37,-133.89 785.4,-139.62"/>
</a>
</g>
</g>
<!-- Node21&#45;&gt;Node17 -->
<g id="edge35_Node000021_Node000017" class="edge">
<title>Node21&#45;&gt;Node17</title>
<g id="a_edge35_Node000021_Node000017"><a xlink:title=" ">
<path fill="none" stroke="#63b8ff" d="M572.62,-276C572.62,-258.75 572.62,-220.33 572.62,-196.56"/>
<polygon fill="#63b8ff" stroke="#63b8ff" points="576.13,-196.89 572.63,-186.89 569.13,-196.89 576.13,-196.89"/>
</a>
</g>
</g>
</g>
</svg>
