<?xml version="1.0" encoding="UTF-8" standalone="no"?>
<!DOCTYPE svg PUBLIC "-//W3C//DTD SVG 1.1//EN"
 "http://www.w3.org/Graphics/SVG/1.1/DTD/svg11.dtd">
<!-- Generated by graphviz version 12.2.1 (20241206.2353)
 -->
<!-- Title: model/OpenLoopCoronaryBC.h Pages: 1 -->
<svg width="1091pt" height="204pt"
 viewBox="0.00 0.00 1090.56 204.25" xmlns="http://www.w3.org/2000/svg" xmlns:xlink="http://www.w3.org/1999/xlink">
<g id="graph0" class="graph" transform="scale(1 1) rotate(0) translate(4 200.25)">
<title>model/OpenLoopCoronaryBC.h</title>
<!-- Node1 -->
<g id="Node000001" class="node">
<title>Node1</title>
<g id="a_Node000001"><a xlink:title="model::OpenLoopCoronaryBC source file">
<polygon fill="#999999" stroke="#666666" points="614.12,-196.25 464.62,-196.25 464.62,-177 614.12,-177 614.12,-196.25"/>
<text text-anchor="middle" x="539.38" y="-182.75" font-family="Helvetica,sans-Serif" font-size="10.00">model/OpenLoopCoronaryBC.h</text>
</a>
</g>
</g>
<!-- Node2 -->
<g id="Node000002" class="node">
<title>Node2</title>
<g id="a_Node000002"><a xlink:href="_model_8h.html" target="_top" xlink:title="model::Model source file">
<polygon fill="white" stroke="#666666" points="578.88,-141 499.88,-141 499.88,-121.75 578.88,-121.75 578.88,-141"/>
<text text-anchor="middle" x="539.38" y="-127.5" font-family="Helvetica,sans-Serif" font-size="10.00">model/Model.h</text>
</a>
</g>
</g>
<!-- Node1&#45;&gt;Node2 -->
<g id="edge1_Node000001_Node000002" class="edge">
<title>Node1&#45;&gt;Node2</title>
<g id="a_edge1_Node000001_Node000002"><a xlink:title=" ">
<path fill="none" stroke="#63b8ff" d="M539.38,-165.38C539.38,-157.09 539.38,-147.92 539.38,-141.36"/>
<polygon fill="#63b8ff" stroke="#63b8ff" points="535.88,-165.32 539.38,-175.32 542.88,-165.32 535.88,-165.32"/>
</a>
</g>
</g>
<!-- Node3 -->
<g id="Node000003" class="node">
<title>Node3</title>
<g id="a_Node000003"><a xlink:href="_integrator_8h.html" target="_top" xlink:title="Integrator source file.">
<polygon fill="white" stroke="#666666" points="250,-80.12 150.75,-80.12 150.75,-60.88 250,-60.88 250,-80.12"/>
<text text-anchor="middle" x="200.38" y="-66.62" font-family="Helvetica,sans-Serif" font-size="10.00">algebra/Integrator.h</text>
</a>
</g>
</g>
<!-- Node2&#45;&gt;Node3 -->
<g id="edge2_Node000002_Node000003" class="edge">
<title>Node2&#45;&gt;Node3</title>
<g id="a_edge2_Node000002_Node000003"><a xlink:title=" ">
<path fill="none" stroke="#63b8ff" d="M488.7,-123.53C432.45,-115.64 339.08,-101.7 259.38,-85.75 251.83,-84.24 243.79,-82.43 236.16,-80.62"/>
<polygon fill="#63b8ff" stroke="#63b8ff" points="487.9,-126.95 498.29,-124.86 488.86,-120.02 487.9,-126.95"/>
</a>
</g>
</g>
<!-- Node4 -->
<g id="Node000004" class="node">
<title>Node4</title>
<g id="a_Node000004"><a xlink:href="interface_8h.html" target="_top" xlink:title="svZeroDSolver callable interface.">
<polygon fill="white" stroke="#666666" points="173.12,-19.25 71.62,-19.25 71.62,0 173.12,0 173.12,-19.25"/>
<text text-anchor="middle" x="122.38" y="-5.75" font-family="Helvetica,sans-Serif" font-size="10.00">interface/interface.h</text>
</a>
</g>
</g>
<!-- Node2&#45;&gt;Node4 -->
<g id="edge5_Node000002_Node000004" class="edge">
<title>Node2&#45;&gt;Node4</title>
<g id="a_edge5_Node000002_Node000004"><a xlink:title=" ">
<path fill="none" stroke="#63b8ff" d="M488.19,-127.86C386.59,-122.4 167.04,-108.14 141.38,-85.75 122.11,-68.95 120.98,-35.7 121.67,-19.68"/>
<polygon fill="#63b8ff" stroke="#63b8ff" points="487.71,-131.34 497.88,-128.37 488.07,-124.35 487.71,-131.34"/>
</a>
</g>
</g>
<!-- Node5 -->
<g id="Node000005" class="node">
<title>Node5</title>
<g id="a_Node000005"><a xlink:href="_solver_8h.html" target="_top" xlink:title="Solver source file.">
<polygon fill="white" stroke="#666666" points="1033.12,-19.25 955.62,-19.25 955.62,0 1033.12,0 1033.12,-19.25"/>
<text text-anchor="middle" x="994.38" y="-5.75" font-family="Helvetica,sans-Serif" font-size="10.00">solve/Solver.h</text>
</a>
</g>
</g>
<!-- Node2&#45;&gt;Node5 -->
<g id="edge14_Node000002_Node000005" class="edge">
<title>Node2&#45;&gt;Node5</title>
<g id="a_edge14_Node000002_Node000005"><a xlink:title=" ">
<path fill="none" stroke="#63b8ff" d="M590.32,-129.98C718.01,-128.45 1043.85,-121.09 1076.38,-85.75 1085.55,-75.78 1083.3,-66.9 1076.38,-55.25 1065.86,-37.56 1045.6,-26.43 1027.84,-19.72"/>
<polygon fill="#63b8ff" stroke="#63b8ff" points="590.43,-126.47 580.47,-130.09 590.51,-133.47 590.43,-126.47"/>
</a>
</g>
</g>
<!-- Node6 -->
<g id="Node000006" class="node">
<title>Node6</title>
<g id="a_Node000006"><a xlink:href="_chamber_elastance_inductor_8h.html" target="_top" xlink:title="model::ChamberElastanceInductor source file">
<polygon fill="white" stroke="#666666" points="438.25,-80.12 268.5,-80.12 268.5,-60.88 438.25,-60.88 438.25,-80.12"/>
<text text-anchor="middle" x="353.38" y="-66.62" font-family="Helvetica,sans-Serif" font-size="10.00">model/ChamberElastanceInductor.h</text>
</a>
</g>
</g>
<!-- Node2&#45;&gt;Node6 -->
<g id="edge6_Node000002_Node000006" class="edge">
<title>Node2&#45;&gt;Node6</title>
<g id="a_edge6_Node000002_Node000006"><a xlink:title=" ">
<path fill="none" stroke="#63b8ff" d="M494.68,-118.01C457.66,-106.82 406.64,-90.61 377.02,-80.58"/>
<polygon fill="#63b8ff" stroke="#63b8ff" points="493.65,-121.35 504.23,-120.87 495.66,-114.65 493.65,-121.35"/>
</a>
</g>
</g>
<!-- Node7 -->
<g id="Node000007" class="node">
<title>Node7</title>
<g id="a_Node000007"><a xlink:href="_piecewise_cosine_chamber_8h.html" target="_top" xlink:title="model::PiecewiseCosineChamber source file">
<polygon fill="white" stroke="#666666" points="622.75,-80.12 456,-80.12 456,-60.88 622.75,-60.88 622.75,-80.12"/>
<text text-anchor="middle" x="539.38" y="-66.62" font-family="Helvetica,sans-Serif" font-size="10.00">model/PiecewiseCosineChamber.h</text>
</a>
</g>
</g>
<!-- Node2&#45;&gt;Node7 -->
<g id="edge8_Node000002_Node000007" class="edge">
<title>Node2&#45;&gt;Node7</title>
<g id="a_edge8_Node000002_Node000007"><a xlink:title=" ">
<path fill="none" stroke="#63b8ff" d="M532.94,-110.28C532.24,-100.17 532.71,-88.42 534.35,-80.53"/>
<polygon fill="#63b8ff" stroke="#63b8ff" points="529.43,-110.46 534.17,-119.93 536.37,-109.57 529.43,-110.46"/>
</a>
</g>
</g>
<!-- Node8 -->
<g id="Node000008" class="node">
<title>Node8</title>
<g id="a_Node000008"><a xlink:href="_levenberg_marquardt_optimizer_8h.html" target="_top" xlink:title="opt::LevenbergMarquardtOptimizer source file">
<polygon fill="white" stroke="#666666" points="785.5,-85.75 641.25,-85.75 641.25,-55.25 785.5,-55.25 785.5,-85.75"/>
<text text-anchor="start" x="649.25" y="-72.25" font-family="Helvetica,sans-Serif" font-size="10.00">optimize/LevenbergMarquardt</text>
<text text-anchor="middle" x="713.38" y="-61" font-family="Helvetica,sans-Serif" font-size="10.00">Optimizer.h</text>
</a>
</g>
</g>
<!-- Node2&#45;&gt;Node8 -->
<g id="edge10_Node000002_Node000008" class="edge">
<title>Node2&#45;&gt;Node8</title>
<g id="a_edge10_Node000002_Node000008"><a xlink:title=" ">
<path fill="none" stroke="#63b8ff" d="M576.88,-117.69C604.21,-108.44 641.32,-95.88 669.95,-86.19"/>
<polygon fill="#63b8ff" stroke="#63b8ff" points="575.97,-114.3 567.61,-120.82 578.21,-120.93 575.97,-114.3"/>
</a>
</g>
</g>
<!-- Node9 -->
<g id="Node000009" class="node">
<title>Node9</title>
<g id="a_Node000009"><a xlink:href="calibrate_8h.html" target="_top" xlink:title="opt::calibrate source file">
<polygon fill="white" stroke="#666666" points="903,-80.12 803.75,-80.12 803.75,-60.88 903,-60.88 903,-80.12"/>
<text text-anchor="middle" x="853.38" y="-66.62" font-family="Helvetica,sans-Serif" font-size="10.00">optimize/calibrate.h</text>
</a>
</g>
</g>
<!-- Node2&#45;&gt;Node9 -->
<g id="edge11_Node000002_Node000009" class="edge">
<title>Node2&#45;&gt;Node9</title>
<g id="a_edge11_Node000002_Node000009"><a xlink:title=" ">
<path fill="none" stroke="#63b8ff" d="M590.45,-122.42C642.06,-114.15 724.01,-100.39 794.38,-85.75 801.8,-84.2 809.72,-82.4 817.26,-80.61"/>
<polygon fill="#63b8ff" stroke="#63b8ff" points="590.1,-118.93 580.77,-123.96 591.2,-125.84 590.1,-118.93"/>
</a>
</g>
</g>
<!-- Node10 -->
<g id="Node000010" class="node">
<title>Node10</title>
<g id="a_Node000010"><a xlink:href="_simulation_parameters_8h.html" target="_top" xlink:title="Source file to read simulation configuration.">
<polygon fill="white" stroke="#666666" points="1067.25,-80.12 921.5,-80.12 921.5,-60.88 1067.25,-60.88 1067.25,-80.12"/>
<text text-anchor="middle" x="994.38" y="-66.62" font-family="Helvetica,sans-Serif" font-size="10.00">solve/SimulationParameters.h</text>
</a>
</g>
</g>
<!-- Node2&#45;&gt;Node10 -->
<g id="edge12_Node000002_Node000010" class="edge">
<title>Node2&#45;&gt;Node10</title>
<g id="a_edge12_Node000002_Node000010"><a xlink:title=" ">
<path fill="none" stroke="#63b8ff" d="M590.64,-125.11C662.64,-117.52 797.76,-102.55 912.38,-85.75 922.81,-84.22 933.96,-82.4 944.57,-80.59"/>
<polygon fill="#63b8ff" stroke="#63b8ff" points="590.3,-121.63 580.72,-126.15 591.03,-128.59 590.3,-121.63"/>
</a>
</g>
</g>
<!-- Node11 -->
<g id="Node000011" class="node">
<title>Node11</title>
<g id="a_Node000011"><a xlink:href="csv__writer_8h.html" target="_top" xlink:title="csv_writer source file">
<polygon fill="white" stroke="#666666" points="94.75,-80.12 0,-80.12 0,-60.88 94.75,-60.88 94.75,-80.12"/>
<text text-anchor="middle" x="47.38" y="-66.62" font-family="Helvetica,sans-Serif" font-size="10.00">solve/csv_writer.h</text>
</a>
</g>
</g>
<!-- Node2&#45;&gt;Node11 -->
<g id="edge15_Node000002_Node000011" class="edge">
<title>Node2&#45;&gt;Node11</title>
<g id="a_edge15_Node000002_Node000011"><a xlink:title=" ">
<path fill="none" stroke="#63b8ff" d="M488.29,-127.18C407.31,-121.65 244.67,-108.63 108.38,-85.75 100.12,-84.36 91.31,-82.52 83.03,-80.62"/>
<polygon fill="#63b8ff" stroke="#63b8ff" points="487.91,-130.67 498.12,-127.84 488.38,-123.68 487.91,-130.67"/>
</a>
</g>
</g>
<!-- Node3&#45;&gt;Node4 -->
<g id="edge3_Node000003_Node000004" class="edge">
<title>Node3&#45;&gt;Node4</title>
<g id="a_edge3_Node000003_Node000004"><a xlink:title=" ">
<path fill="none" stroke="#63b8ff" d="M179.34,-53.63C164.91,-42.73 146.29,-28.67 134.33,-19.65"/>
<polygon fill="#63b8ff" stroke="#63b8ff" points="177.23,-56.42 187.32,-59.65 181.45,-50.83 177.23,-56.42"/>
</a>
</g>
</g>
<!-- Node3&#45;&gt;Node5 -->
<g id="edge4_Node000003_Node000005" class="edge">
<title>Node3&#45;&gt;Node5</title>
<g id="a_edge4_Node000003_Node000005"><a xlink:title=" ">
<path fill="none" stroke="#63b8ff" d="M244.4,-57.97C249.43,-56.92 254.49,-55.98 259.38,-55.25 523.29,-15.68 845.52,-10.97 955.47,-10.58"/>
<polygon fill="#63b8ff" stroke="#63b8ff" points="244.03,-54.47 235.04,-60.07 245.56,-61.3 244.03,-54.47"/>
</a>
</g>
</g>
<!-- Node6&#45;&gt;Node2 -->
<g id="edge7_Node000006_Node000002" class="edge">
<title>Node6&#45;&gt;Node2</title>
<g id="a_edge7_Node000006_Node000002"><a xlink:title=" ">
<path fill="none" stroke="#63b8ff" d="M398.1,-83.88C435.14,-95.07 486.15,-111.28 515.76,-121.3"/>
<polygon fill="#63b8ff" stroke="#63b8ff" points="399.13,-80.53 388.55,-81.02 397.12,-87.24 399.13,-80.53"/>
</a>
</g>
</g>
<!-- Node7&#45;&gt;Node2 -->
<g id="edge9_Node000007_Node000002" class="edge">
<title>Node7&#45;&gt;Node2</title>
<g id="a_edge9_Node000007_Node000002"><a xlink:title=" ">
<path fill="none" stroke="#63b8ff" d="M545.82,-91.7C546.51,-101.82 546.03,-113.57 544.38,-121.43"/>
<polygon fill="#63b8ff" stroke="#63b8ff" points="549.32,-91.51 544.59,-82.03 542.38,-92.39 549.32,-91.51"/>
</a>
</g>
</g>
<!-- Node10&#45;&gt;Node5 -->
<g id="edge13_Node000010_Node000005" class="edge">
<title>Node10&#45;&gt;Node5</title>
<g id="a_edge13_Node000010_Node000005"><a xlink:title=" ">
<path fill="none" stroke="#63b8ff" d="M994.38,-49.07C994.38,-39.04 994.38,-27.46 994.38,-19.65"/>
<polygon fill="#63b8ff" stroke="#63b8ff" points="990.88,-49.04 994.38,-59.04 997.88,-49.04 990.88,-49.04"/>
</a>
</g>
</g>
<!-- Node11&#45;&gt;Node4 -->
<g id="edge16_Node000011_Node000004" class="edge">
<title>Node11&#45;&gt;Node4</title>
<g id="a_edge16_Node000011_Node000004"><a xlink:title=" ">
<path fill="none" stroke="#63b8ff" d="M67.6,-53.63C81.47,-42.73 99.38,-28.67 110.88,-19.65"/>
<polygon fill="#63b8ff" stroke="#63b8ff" points="65.66,-50.7 59.96,-59.62 69.98,-56.2 65.66,-50.7"/>
</a>
</g>
</g>
</g>
</svg>
