<?xml version="1.0" encoding="UTF-8" standalone="no"?>
<!DOCTYPE svg PUBLIC "-//W3C//DTD SVG 1.1//EN"
 "http://www.w3.org/Graphics/SVG/1.1/DTD/svg11.dtd">
<!-- Generated by graphviz version 12.2.1 (20241206.2353)
 -->
<!-- Title: model/Parameter.h Pages: 1 -->
<svg width="1904pt" height="437pt"
 viewBox="0.00 0.00 1904.25 436.50" xmlns="http://www.w3.org/2000/svg" xmlns:xlink="http://www.w3.org/1999/xlink">
<g id="graph0" class="graph" transform="scale(1 1) rotate(0) translate(4 432.5)">
<title>model/Parameter.h</title>
<!-- Node1 -->
<g id="Node000001" class="node">
<title>Node1</title>
<g id="a_Node000001"><a xlink:title="model::Parameter source file">
<polygon fill="#999999" stroke="#666666" points="1570.12,-428.5 1472.38,-428.5 1472.38,-409.25 1570.12,-409.25 1570.12,-428.5"/>
<text text-anchor="middle" x="1521.25" y="-415" font-family="Helvetica,sans-Serif" font-size="10.00">model/Parameter.h</text>
</a>
</g>
</g>
<!-- Node2 -->
<g id="Node000002" class="node">
<title>Node2</title>
<g id="a_Node000002"><a xlink:href="_block_8h.html" target="_top" xlink:title="model::Block source file">
<polygon fill="white" stroke="#666666" points="1044,-373.25 966.5,-373.25 966.5,-354 1044,-354 1044,-373.25"/>
<text text-anchor="middle" x="1005.25" y="-359.75" font-family="Helvetica,sans-Serif" font-size="10.00">model/Block.h</text>
</a>
</g>
</g>
<!-- Node1&#45;&gt;Node2 -->
<g id="edge1_Node000001_Node000002" class="edge">
<title>Node1&#45;&gt;Node2</title>
<g id="a_edge1_Node000001_Node000002"><a xlink:title=" ">
<path fill="none" stroke="#63b8ff" d="M1461.01,-411.66C1354,-400.61 1133.62,-377.87 1044.22,-368.65"/>
<polygon fill="#63b8ff" stroke="#63b8ff" points="1460.43,-415.12 1470.74,-412.66 1461.15,-408.15 1460.43,-415.12"/>
</a>
</g>
</g>
<!-- Node4 -->
<g id="Node000004" class="node">
<title>Node4</title>
<g id="a_Node000004"><a xlink:href="_model_8h.html" target="_top" xlink:title="model::Model source file">
<polygon fill="white" stroke="#666666" points="1028.75,-141 949.75,-141 949.75,-121.75 1028.75,-121.75 1028.75,-141"/>
<text text-anchor="middle" x="989.25" y="-127.5" font-family="Helvetica,sans-Serif" font-size="10.00">model/Model.h</text>
</a>
</g>
</g>
<!-- Node1&#45;&gt;Node4 -->
<g id="edge61_Node000001_Node000004" class="edge">
<title>Node1&#45;&gt;Node4</title>
<g id="a_edge61_Node000001_Node000004"><a xlink:title=" ">
<path fill="none" stroke="#63b8ff" d="M1581.73,-408.52C1669.09,-393.27 1820.25,-359.63 1820.25,-309.38 1820.25,-309.38 1820.25,-309.38 1820.25,-252.12 1820.25,-171.18 1194.62,-140.55 1029.05,-133.86"/>
<polygon fill="#63b8ff" stroke="#63b8ff" points="1581.38,-405.03 1572.12,-410.16 1582.56,-411.93 1581.38,-405.03"/>
</a>
</g>
</g>
<!-- Node23 -->
<g id="Node000023" class="node">
<title>Node23</title>
<g id="a_Node000023"><a xlink:href="_flow_reference_b_c_8h.html" target="_top" xlink:title="model::FlowReferenceBC source file">
<polygon fill="white" stroke="#666666" points="1323,-318 1191.5,-318 1191.5,-298.75 1323,-298.75 1323,-318"/>
<text text-anchor="middle" x="1257.25" y="-304.5" font-family="Helvetica,sans-Serif" font-size="10.00">model/FlowReferenceBC.h</text>
</a>
</g>
</g>
<!-- Node1&#45;&gt;Node23 -->
<g id="edge60_Node000001_Node000023" class="edge">
<title>Node1&#45;&gt;Node23</title>
<g id="a_edge60_Node000001_Node000023"><a xlink:title=" ">
<path fill="none" stroke="#63b8ff" d="M1488.75,-404.52C1434.29,-382.14 1326.03,-337.64 1279.43,-318.49"/>
<polygon fill="#63b8ff" stroke="#63b8ff" points="1487.22,-407.67 1497.8,-408.24 1489.88,-401.2 1487.22,-407.67"/>
</a>
</g>
</g>
<!-- Node25 -->
<g id="Node000025" class="node">
<title>Node25</title>
<g id="a_Node000025"><a xlink:href="_open_loop_coronary_b_c_8h.html" target="_top" xlink:title="model::OpenLoopCoronaryBC source file">
<polygon fill="white" stroke="#666666" points="1491,-318 1341.5,-318 1341.5,-298.75 1491,-298.75 1491,-318"/>
<text text-anchor="middle" x="1416.25" y="-304.5" font-family="Helvetica,sans-Serif" font-size="10.00">model/OpenLoopCoronaryBC.h</text>
</a>
</g>
</g>
<!-- Node1&#45;&gt;Node25 -->
<g id="edge62_Node000001_Node000025" class="edge">
<title>Node1&#45;&gt;Node25</title>
<g id="a_edge62_Node000001_Node000025"><a xlink:title=" ">
<path fill="none" stroke="#63b8ff" d="M1504.65,-400.72C1482.06,-377.38 1442.44,-336.44 1424.96,-318.38"/>
<polygon fill="#63b8ff" stroke="#63b8ff" points="1502.14,-403.16 1511.6,-407.91 1507.17,-398.29 1502.14,-403.16"/>
</a>
</g>
</g>
<!-- Node27 -->
<g id="Node000027" class="node">
<title>Node27</title>
<g id="a_Node000027"><a xlink:href="_pressure_reference_b_c_8h.html" target="_top" xlink:title="model::PressureReferenceBC source file">
<polygon fill="white" stroke="#666666" points="1659,-318 1509.5,-318 1509.5,-298.75 1659,-298.75 1659,-318"/>
<text text-anchor="middle" x="1584.25" y="-304.5" font-family="Helvetica,sans-Serif" font-size="10.00">model/PressureReferenceBC.h</text>
</a>
</g>
</g>
<!-- Node1&#45;&gt;Node27 -->
<g id="edge63_Node000001_Node000027" class="edge">
<title>Node1&#45;&gt;Node27</title>
<g id="a_edge63_Node000001_Node000027"><a xlink:title=" ">
<path fill="none" stroke="#63b8ff" d="M1532.12,-399.15C1545.81,-375.58 1568.77,-336.04 1579.02,-318.38"/>
<polygon fill="#63b8ff" stroke="#63b8ff" points="1529.16,-397.28 1527.17,-407.69 1535.21,-400.8 1529.16,-397.28"/>
</a>
</g>
</g>
<!-- Node28 -->
<g id="Node000028" class="node">
<title>Node28</title>
<g id="a_Node000028"><a xlink:href="_resistance_b_c_8h.html" target="_top" xlink:title="model::ResistanceBC source file">
<polygon fill="white" stroke="#666666" points="1791.75,-318 1676.75,-318 1676.75,-298.75 1791.75,-298.75 1791.75,-318"/>
<text text-anchor="middle" x="1734.25" y="-304.5" font-family="Helvetica,sans-Serif" font-size="10.00">model/ResistanceBC.h</text>
</a>
</g>
</g>
<!-- Node1&#45;&gt;Node28 -->
<g id="edge64_Node000001_Node000028" class="edge">
<title>Node1&#45;&gt;Node28</title>
<g id="a_edge64_Node000001_Node000028"><a xlink:title=" ">
<path fill="none" stroke="#63b8ff" d="M1549.15,-403.66C1593.59,-381.03 1679.23,-337.4 1716.36,-318.49"/>
<polygon fill="#63b8ff" stroke="#63b8ff" points="1547.71,-400.47 1540.39,-408.12 1550.89,-406.7 1547.71,-400.47"/>
</a>
</g>
</g>
<!-- Node3 -->
<g id="Node000003" class="node">
<title>Node3</title>
<g id="a_Node000003"><a xlink:href="_block_factory_8h.html" target="_top" xlink:title="Define the block factory functional.">
<polygon fill="white" stroke="#666666" points="675.12,-262.75 565.38,-262.75 565.38,-243.5 675.12,-243.5 675.12,-262.75"/>
<text text-anchor="middle" x="620.25" y="-249.25" font-family="Helvetica,sans-Serif" font-size="10.00">model/BlockFactory.h</text>
</a>
</g>
</g>
<!-- Node2&#45;&gt;Node3 -->
<g id="edge2_Node000002_Node000003" class="edge">
<title>Node2&#45;&gt;Node3</title>
<g id="a_edge2_Node000002_Node000003"><a xlink:title=" ">
<path fill="none" stroke="#63b8ff" d="M955.06,-361.5C895.84,-358.71 795.32,-349.27 715.25,-318 681,-304.63 646.64,-277.22 630.22,-263.05"/>
<polygon fill="#63b8ff" stroke="#63b8ff" points="954.68,-364.99 964.82,-361.92 954.98,-358 954.68,-364.99"/>
</a>
</g>
</g>
<!-- Node2&#45;&gt;Node4 -->
<g id="edge44_Node000002_Node000004" class="edge">
<title>Node2&#45;&gt;Node4</title>
<g id="a_edge44_Node000002_Node000004"><a xlink:title=" ">
<path fill="none" stroke="#63b8ff" d="M955.13,-359.96C847.2,-352.98 599.05,-329.81 556.25,-262.75 525.72,-214.92 607.95,-222.29 632.25,-207.5 651.35,-195.87 651.62,-185.62 672.25,-177 765.97,-137.85 887.43,-131.86 949.26,-131.63"/>
<polygon fill="#63b8ff" stroke="#63b8ff" points="954.65,-363.44 964.85,-360.57 955.08,-356.45 954.65,-363.44"/>
</a>
</g>
</g>
<!-- Node8 -->
<g id="Node000008" class="node">
<title>Node8</title>
<g id="a_Node000008"><a xlink:href="_chamber_elastance_inductor_8h.html" target="_top" xlink:title="model::ChamberElastanceInductor source file">
<polygon fill="white" stroke="#666666" points="1429.12,-80.12 1259.38,-80.12 1259.38,-60.88 1429.12,-60.88 1429.12,-80.12"/>
<text text-anchor="middle" x="1344.25" y="-66.62" font-family="Helvetica,sans-Serif" font-size="10.00">model/ChamberElastanceInductor.h</text>
</a>
</g>
</g>
<!-- Node2&#45;&gt;Node8 -->
<g id="edge27_Node000002_Node000008" class="edge">
<title>Node2&#45;&gt;Node8</title>
<g id="a_edge27_Node000002_Node000008"><a xlink:title=" ">
<path fill="none" stroke="#63b8ff" d="M1055.72,-362.03C1220.25,-359.79 1734.36,-350.24 1801.25,-318 1835.53,-301.48 1858.25,-292.17 1858.25,-254.12 1858.25,-254.12 1858.25,-254.12 1858.25,-191.25 1858.25,-167.6 1523.81,-104.19 1394.47,-80.55"/>
<polygon fill="#63b8ff" stroke="#63b8ff" points="1055.96,-358.53 1046,-362.16 1056.05,-365.53 1055.96,-358.53"/>
</a>
</g>
</g>
<!-- Node9 -->
<g id="Node000009" class="node">
<title>Node9</title>
<g id="a_Node000009"><a xlink:href="_piecewise_cosine_chamber_8h.html" target="_top" xlink:title="model::PiecewiseCosineChamber source file">
<polygon fill="white" stroke="#666666" points="1613.62,-80.12 1446.88,-80.12 1446.88,-60.88 1613.62,-60.88 1613.62,-80.12"/>
<text text-anchor="middle" x="1530.25" y="-66.62" font-family="Helvetica,sans-Serif" font-size="10.00">model/PiecewiseCosineChamber.h</text>
</a>
</g>
</g>
<!-- Node2&#45;&gt;Node9 -->
<g id="edge47_Node000002_Node000009" class="edge">
<title>Node2&#45;&gt;Node9</title>
<g id="a_edge47_Node000002_Node000009"><a xlink:title=" ">
<path fill="none" stroke="#63b8ff" d="M1055.88,-361.99C1224.67,-359.58 1761.55,-349.5 1832.25,-318 1868.96,-301.64 1896.25,-294.31 1896.25,-254.12 1896.25,-254.12 1896.25,-254.12 1896.25,-191.25 1896.25,-130.58 1712.28,-95.74 1605.2,-80.61"/>
<polygon fill="#63b8ff" stroke="#63b8ff" points="1055.84,-358.49 1045.89,-362.13 1055.93,-365.49 1055.84,-358.49"/>
</a>
</g>
</g>
<!-- Node14 -->
<g id="Node000014" class="node">
<title>Node14</title>
<g id="a_Node000014"><a xlink:href="_blood_vessel_8h.html" target="_top" xlink:title="model::BloodVessel source file">
<polygon fill="white" stroke="#666666" points="1059,-318 951.5,-318 951.5,-298.75 1059,-298.75 1059,-318"/>
<text text-anchor="middle" x="1005.25" y="-304.5" font-family="Helvetica,sans-Serif" font-size="10.00">model/BloodVessel.h</text>
</a>
</g>
</g>
<!-- Node2&#45;&gt;Node14 -->
<g id="edge19_Node000002_Node000014" class="edge">
<title>Node2&#45;&gt;Node14</title>
<g id="a_edge19_Node000002_Node000014"><a xlink:title=" ">
<path fill="none" stroke="#63b8ff" d="M1005.25,-342.38C1005.25,-334.09 1005.25,-324.92 1005.25,-318.36"/>
<polygon fill="#63b8ff" stroke="#63b8ff" points="1001.75,-342.32 1005.25,-352.32 1008.75,-342.32 1001.75,-342.32"/>
</a>
</g>
</g>
<!-- Node15 -->
<g id="Node000015" class="node">
<title>Node15</title>
<g id="a_Node000015"><a xlink:href="_blood_vessel_junction_8h.html" target="_top" xlink:title="model::BloodVesselJunction source file">
<polygon fill="white" stroke="#666666" points="1021.38,-262.75 877.12,-262.75 877.12,-243.5 1021.38,-243.5 1021.38,-262.75"/>
<text text-anchor="middle" x="949.25" y="-249.25" font-family="Helvetica,sans-Serif" font-size="10.00">model/BloodVesselJunction.h</text>
</a>
</g>
</g>
<!-- Node2&#45;&gt;Node15 -->
<g id="edge26_Node000002_Node000015" class="edge">
<title>Node2&#45;&gt;Node15</title>
<g id="a_edge26_Node000002_Node000015"><a xlink:title=" ">
<path fill="none" stroke="#63b8ff" d="M973.29,-348.14C961.29,-340.92 948.94,-330.93 942.25,-318 933.03,-300.16 940.23,-275.83 945.33,-262.96"/>
<polygon fill="#63b8ff" stroke="#63b8ff" points="971.39,-351.08 981.84,-352.82 974.75,-344.95 971.39,-351.08"/>
</a>
</g>
</g>
<!-- Node16 -->
<g id="Node000016" class="node">
<title>Node16</title>
<g id="a_Node000016"><a xlink:href="_blood_vessel_c_r_l_8h.html" target="_top" xlink:title="model::BloodVesselCRL source file">
<polygon fill="white" stroke="#666666" points="894.75,-318 767.75,-318 767.75,-298.75 894.75,-298.75 894.75,-318"/>
<text text-anchor="middle" x="831.25" y="-304.5" font-family="Helvetica,sans-Serif" font-size="10.00">model/BloodVesselCRL.h</text>
</a>
</g>
</g>
<!-- Node2&#45;&gt;Node16 -->
<g id="edge23_Node000002_Node000016" class="edge">
<title>Node2&#45;&gt;Node16</title>
<g id="a_edge23_Node000002_Node000016"><a xlink:title=" ">
<path fill="none" stroke="#63b8ff" d="M965.03,-350.32C933.24,-340.59 889.58,-327.23 860.91,-318.45"/>
<polygon fill="#63b8ff" stroke="#63b8ff" points="963.7,-353.57 974.29,-353.15 965.75,-346.88 963.7,-353.57"/>
</a>
</g>
</g>
<!-- Node17 -->
<g id="Node000017" class="node">
<title>Node17</title>
<g id="a_Node000017"><a xlink:href="_chamber_sphere_8h.html" target="_top" xlink:title="model::ChamberSphere source file">
<polygon fill="white" stroke="#666666" points="122.5,-201.88 0,-201.88 0,-182.62 122.5,-182.62 122.5,-201.88"/>
<text text-anchor="middle" x="61.25" y="-188.38" font-family="Helvetica,sans-Serif" font-size="10.00">model/ChamberSphere.h</text>
</a>
</g>
</g>
<!-- Node2&#45;&gt;Node17 -->
<g id="edge28_Node000002_Node000017" class="edge">
<title>Node2&#45;&gt;Node17</title>
<g id="a_edge28_Node000002_Node000017"><a xlink:title=" ">
<path fill="none" stroke="#63b8ff" d="M954.78,-362.51C811.64,-361.72 405.19,-356.09 278.25,-318 192.09,-292.15 103.39,-226.54 72.59,-202.37"/>
<polygon fill="#63b8ff" stroke="#63b8ff" points="954.69,-366.01 964.71,-362.56 954.72,-359.01 954.69,-366.01"/>
</a>
</g>
</g>
<!-- Node18 -->
<g id="Node000018" class="node">
<title>Node18</title>
<g id="a_Node000018"><a xlink:href="_closed_loop_coronary_b_c_8h.html" target="_top" xlink:title="model::ClosedLoopCoronaryBC source file">
<polygon fill="white" stroke="#666666" points="386.38,-262.75 230.12,-262.75 230.12,-243.5 386.38,-243.5 386.38,-262.75"/>
<text text-anchor="middle" x="308.25" y="-249.25" font-family="Helvetica,sans-Serif" font-size="10.00">model/ClosedLoopCoronaryBC.h</text>
</a>
</g>
</g>
<!-- Node2&#45;&gt;Node18 -->
<g id="edge30_Node000002_Node000018" class="edge">
<title>Node2&#45;&gt;Node18</title>
<g id="a_edge30_Node000002_Node000018"><a xlink:title=" ">
<path fill="none" stroke="#63b8ff" d="M954.76,-361.36C795.21,-357.11 311.06,-342.27 288.25,-318 273.77,-302.59 289.99,-276.81 300.57,-263.19"/>
<polygon fill="#63b8ff" stroke="#63b8ff" points="954.51,-364.85 964.6,-361.62 954.69,-357.86 954.51,-364.85"/>
</a>
</g>
</g>
<!-- Node21 -->
<g id="Node000021" class="node">
<title>Node21</title>
<g id="a_Node000021"><a xlink:href="_closed_loop_heart_pulmonary_8h.html" target="_top" xlink:title="model::ClosedLoopHeartPulmonary source file">
<polygon fill="white" stroke="#666666" points="471.38,-318 297.12,-318 297.12,-298.75 471.38,-298.75 471.38,-318"/>
<text text-anchor="middle" x="384.25" y="-304.5" font-family="Helvetica,sans-Serif" font-size="10.00">model/ClosedLoopHeartPulmonary.h</text>
</a>
</g>
</g>
<!-- Node2&#45;&gt;Node21 -->
<g id="edge35_Node000002_Node000021" class="edge">
<title>Node2&#45;&gt;Node21</title>
<g id="a_edge35_Node000002_Node000021"><a xlink:title=" ">
<path fill="none" stroke="#63b8ff" d="M955.15,-358.33C849.68,-349.29 603.64,-328.19 471.63,-316.87"/>
<polygon fill="#63b8ff" stroke="#63b8ff" points="954.63,-361.8 964.9,-359.16 955.23,-354.82 954.63,-361.8"/>
</a>
</g>
</g>
<!-- Node22 -->
<g id="Node000022" class="node">
<title>Node22</title>
<g id="a_Node000022"><a xlink:href="_closed_loop_r_c_r_b_c_8h.html" target="_top" xlink:title="model::ClosedLoopRCRBC source file">
<polygon fill="white" stroke="#666666" points="623.38,-201.88 485.12,-201.88 485.12,-182.62 623.38,-182.62 623.38,-201.88"/>
<text text-anchor="middle" x="554.25" y="-188.38" font-family="Helvetica,sans-Serif" font-size="10.00">model/ClosedLoopRCRBC.h</text>
</a>
</g>
</g>
<!-- Node2&#45;&gt;Node22 -->
<g id="edge38_Node000002_Node000022" class="edge">
<title>Node2&#45;&gt;Node22</title>
<g id="a_edge38_Node000002_Node000022"><a xlink:title=" ">
<path fill="none" stroke="#63b8ff" d="M955.08,-361.72C837.52,-359.09 551.95,-349.48 523.25,-318 492.43,-284.19 530.85,-224.53 547.38,-202.11"/>
<polygon fill="#63b8ff" stroke="#63b8ff" points="954.67,-365.21 964.74,-361.93 954.82,-358.22 954.67,-365.21"/>
</a>
</g>
</g>
<!-- Node2&#45;&gt;Node23 -->
<g id="edge40_Node000002_Node000023" class="edge">
<title>Node2&#45;&gt;Node23</title>
<g id="a_edge40_Node000002_Node000023"><a xlink:title=" ">
<path fill="none" stroke="#63b8ff" d="M1055.37,-352.03C1101.83,-342.22 1170.23,-327.76 1214.26,-318.46"/>
<polygon fill="#63b8ff" stroke="#63b8ff" points="1054.89,-348.56 1045.83,-354.05 1056.34,-355.41 1054.89,-348.56"/>
</a>
</g>
</g>
<!-- Node24 -->
<g id="Node000024" class="node">
<title>Node24</title>
<g id="a_Node000024"><a xlink:href="_junction_8h.html" target="_top" xlink:title="model::Junction source file">
<polygon fill="white" stroke="#666666" points="783,-262.75 693.5,-262.75 693.5,-243.5 783,-243.5 783,-262.75"/>
<text text-anchor="middle" x="738.25" y="-249.25" font-family="Helvetica,sans-Serif" font-size="10.00">model/Junction.h</text>
</a>
</g>
</g>
<!-- Node2&#45;&gt;Node24 -->
<g id="edge42_Node000002_Node000024" class="edge">
<title>Node2&#45;&gt;Node24</title>
<g id="a_edge42_Node000002_Node000024"><a xlink:title=" ">
<path fill="none" stroke="#63b8ff" d="M955.04,-362.11C882.59,-360.19 754.21,-351.95 725.25,-318 711.88,-302.33 724.09,-276.66 732.27,-263.12"/>
<polygon fill="#63b8ff" stroke="#63b8ff" points="954.57,-365.6 964.65,-362.34 954.73,-358.61 954.57,-365.6"/>
</a>
</g>
</g>
<!-- Node2&#45;&gt;Node25 -->
<g id="edge45_Node000002_Node000025" class="edge">
<title>Node2&#45;&gt;Node25</title>
<g id="a_edge45_Node000002_Node000025"><a xlink:title=" ">
<path fill="none" stroke="#63b8ff" d="M1055.42,-356.12C1128.24,-346.69 1263.53,-329.16 1346.17,-318.46"/>
<polygon fill="#63b8ff" stroke="#63b8ff" points="1055.25,-352.62 1045.79,-357.37 1056.15,-359.56 1055.25,-352.62"/>
</a>
</g>
</g>
<!-- Node26 -->
<g id="Node000026" class="node">
<title>Node26</title>
<g id="a_Node000026"><a xlink:href="_piecewise_valve_8h.html" target="_top" xlink:title="model::PiecewiseValve source file">
<polygon fill="white" stroke="#666666" points="877.5,-201.88 755,-201.88 755,-182.62 877.5,-182.62 877.5,-201.88"/>
<text text-anchor="middle" x="816.25" y="-188.38" font-family="Helvetica,sans-Serif" font-size="10.00">model/PiecewiseValve.h</text>
</a>
</g>
</g>
<!-- Node2&#45;&gt;Node26 -->
<g id="edge48_Node000002_Node000026" class="edge">
<title>Node2&#45;&gt;Node26</title>
<g id="a_edge48_Node000002_Node000026"><a xlink:title=" ">
<path fill="none" stroke="#63b8ff" d="M955.04,-360.85C890.46,-357.38 783.69,-347.27 759.25,-318 738.77,-293.47 790.08,-266.4 792.25,-262.75 804.14,-242.79 811.25,-216.08 814.37,-202.31"/>
<polygon fill="#63b8ff" stroke="#63b8ff" points="954.51,-364.33 964.67,-361.33 954.86,-357.33 954.51,-364.33"/>
</a>
</g>
</g>
<!-- Node2&#45;&gt;Node27 -->
<g id="edge50_Node000002_Node000027" class="edge">
<title>Node2&#45;&gt;Node27</title>
<g id="a_edge50_Node000002_Node000027"><a xlink:title=" ">
<path fill="none" stroke="#63b8ff" d="M1055.84,-358.27C1145.45,-350.52 1337.91,-333.65 1500.25,-318 1503.17,-317.72 1506.14,-317.43 1509.15,-317.13"/>
<polygon fill="#63b8ff" stroke="#63b8ff" points="1055.58,-354.78 1045.92,-359.13 1056.18,-361.76 1055.58,-354.78"/>
</a>
</g>
</g>
<!-- Node2&#45;&gt;Node28 -->
<g id="edge52_Node000002_Node000028" class="edge">
<title>Node2&#45;&gt;Node28</title>
<g id="a_edge52_Node000002_Node000028"><a xlink:title=" ">
<path fill="none" stroke="#63b8ff" d="M1055.65,-360.31C1166.55,-354.99 1440.07,-340.57 1668.25,-318 1670.89,-317.74 1673.6,-317.45 1676.33,-317.15"/>
<polygon fill="#63b8ff" stroke="#63b8ff" points="1055.51,-356.82 1045.69,-360.79 1055.85,-363.81 1055.51,-356.82"/>
</a>
</g>
</g>
<!-- Node29 -->
<g id="Node000029" class="node">
<title>Node29</title>
<g id="a_Node000029"><a xlink:href="_resistive_junction_8h.html" target="_top" xlink:title="model::ResistiveJunction source file">
<polygon fill="white" stroke="#666666" points="1245.25,-262.75 1115.25,-262.75 1115.25,-243.5 1245.25,-243.5 1245.25,-262.75"/>
<text text-anchor="middle" x="1180.25" y="-249.25" font-family="Helvetica,sans-Serif" font-size="10.00">model/ResistiveJunction.h</text>
</a>
</g>
</g>
<!-- Node2&#45;&gt;Node29 -->
<g id="edge54_Node000002_Node000029" class="edge">
<title>Node2&#45;&gt;Node29</title>
<g id="a_edge54_Node000002_Node000029"><a xlink:title=" ">
<path fill="none" stroke="#63b8ff" d="M1039.45,-349.15C1058.26,-341.15 1081.69,-330.19 1101.25,-318 1128.19,-301.2 1156.3,-276.45 1170.62,-263.23"/>
<polygon fill="#63b8ff" stroke="#63b8ff" points="1038.25,-345.86 1030.36,-352.93 1040.94,-352.32 1038.25,-345.86"/>
</a>
</g>
</g>
<!-- Node30 -->
<g id="Node000030" class="node">
<title>Node30</title>
<g id="a_Node000030"><a xlink:href="_valve_tanh_8h.html" target="_top" xlink:title="model::ValveTanh source file">
<polygon fill="white" stroke="#666666" points="1362.88,-262.75 1263.62,-262.75 1263.62,-243.5 1362.88,-243.5 1362.88,-262.75"/>
<text text-anchor="middle" x="1313.25" y="-249.25" font-family="Helvetica,sans-Serif" font-size="10.00">model/ValveTanh.h</text>
</a>
</g>
</g>
<!-- Node2&#45;&gt;Node30 -->
<g id="edge56_Node000002_Node000030" class="edge">
<title>Node2&#45;&gt;Node30</title>
<g id="a_edge56_Node000002_Node000030"><a xlink:title=" ">
<path fill="none" stroke="#63b8ff" d="M1041.14,-349.74C1065.9,-340.84 1099.58,-328.73 1129.25,-318 1152.82,-309.48 1158.61,-307.07 1182.25,-298.75 1218.06,-286.15 1259.57,-272.1 1286.1,-263.2"/>
<polygon fill="#63b8ff" stroke="#63b8ff" points="1040.08,-346.4 1031.86,-353.08 1042.45,-352.99 1040.08,-346.4"/>
</a>
</g>
</g>
<!-- Node31 -->
<g id="Node000031" class="node">
<title>Node31</title>
<g id="a_Node000031"><a xlink:href="_windkessel_b_c_8h.html" target="_top" xlink:title="model::WindkesselBC source file">
<polygon fill="white" stroke="#666666" points="1152.5,-201.88 1036,-201.88 1036,-182.62 1152.5,-182.62 1152.5,-201.88"/>
<text text-anchor="middle" x="1094.25" y="-188.38" font-family="Helvetica,sans-Serif" font-size="10.00">model/WindkesselBC.h</text>
</a>
</g>
</g>
<!-- Node2&#45;&gt;Node31 -->
<g id="edge58_Node000002_Node000031" class="edge">
<title>Node2&#45;&gt;Node31</title>
<g id="a_edge58_Node000002_Node000031"><a xlink:title=" ">
<path fill="none" stroke="#63b8ff" d="M1034.91,-348.01C1047,-340.62 1060.04,-330.53 1068.25,-318 1092.86,-280.43 1094.79,-224 1094.53,-202.25"/>
<polygon fill="#63b8ff" stroke="#63b8ff" points="1033.38,-344.86 1026.41,-352.84 1036.84,-350.94 1033.38,-344.86"/>
</a>
</g>
</g>
<!-- Node3&#45;&gt;Node4 -->
<g id="edge3_Node000003_Node000004" class="edge">
<title>Node3&#45;&gt;Node4</title>
<g id="a_edge3_Node000003_Node000004"><a xlink:title=" ">
<path fill="none" stroke="#63b8ff" d="M639.03,-235.52C659.83,-218.07 695.09,-191.24 730.25,-177 804.04,-147.1 897.58,-137.23 949.65,-133.97"/>
<polygon fill="#63b8ff" stroke="#63b8ff" points="636.75,-232.86 631.44,-242.02 641.31,-238.17 636.75,-232.86"/>
</a>
</g>
</g>
<!-- Node5 -->
<g id="Node000005" class="node">
<title>Node5</title>
<g id="a_Node000005"><a xlink:href="_integrator_8h.html" target="_top" xlink:title="Integrator source file.">
<polygon fill="white" stroke="#666666" points="1038.88,-80.12 939.62,-80.12 939.62,-60.88 1038.88,-60.88 1038.88,-80.12"/>
<text text-anchor="middle" x="989.25" y="-66.62" font-family="Helvetica,sans-Serif" font-size="10.00">algebra/Integrator.h</text>
</a>
</g>
</g>
<!-- Node4&#45;&gt;Node5 -->
<g id="edge4_Node000004_Node000005" class="edge">
<title>Node4&#45;&gt;Node5</title>
<g id="a_edge4_Node000004_Node000005"><a xlink:title=" ">
<path fill="none" stroke="#63b8ff" d="M989.25,-109.95C989.25,-99.92 989.25,-88.33 989.25,-80.53"/>
<polygon fill="#63b8ff" stroke="#63b8ff" points="985.75,-109.92 989.25,-119.92 992.75,-109.92 985.75,-109.92"/>
</a>
</g>
</g>
<!-- Node6 -->
<g id="Node000006" class="node">
<title>Node6</title>
<g id="a_Node000006"><a xlink:href="interface_8h.html" target="_top" xlink:title="svZeroDSolver callable interface.">
<polygon fill="white" stroke="#666666" points="645,-19.25 543.5,-19.25 543.5,0 645,0 645,-19.25"/>
<text text-anchor="middle" x="594.25" y="-5.75" font-family="Helvetica,sans-Serif" font-size="10.00">interface/interface.h</text>
</a>
</g>
</g>
<!-- Node4&#45;&gt;Node6 -->
<g id="edge7_Node000004_Node000006" class="edge">
<title>Node4&#45;&gt;Node6</title>
<g id="a_edge7_Node000004_Node000006"><a xlink:title=" ">
<path fill="none" stroke="#63b8ff" d="M938.02,-129.1C825.51,-125.76 564.68,-114.93 538.25,-85.75 529.15,-75.7 532.37,-67.46 538.25,-55.25 545.97,-39.23 562.54,-27.19 575.66,-19.67"/>
<polygon fill="#63b8ff" stroke="#63b8ff" points="937.78,-132.59 947.88,-129.38 937.98,-125.59 937.78,-132.59"/>
</a>
</g>
</g>
<!-- Node7 -->
<g id="Node000007" class="node">
<title>Node7</title>
<g id="a_Node000007"><a xlink:href="_solver_8h.html" target="_top" xlink:title="Solver source file.">
<polygon fill="white" stroke="#666666" points="1169,-19.25 1091.5,-19.25 1091.5,0 1169,0 1169,-19.25"/>
<text text-anchor="middle" x="1130.25" y="-5.75" font-family="Helvetica,sans-Serif" font-size="10.00">solve/Solver.h</text>
</a>
</g>
</g>
<!-- Node4&#45;&gt;Node7 -->
<g id="edge16_Node000004_Node000007" class="edge">
<title>Node4&#45;&gt;Node7</title>
<g id="a_edge16_Node000004_Node000007"><a xlink:title=" ">
<path fill="none" stroke="#63b8ff" d="M1040.47,-127.45C1099.45,-122.89 1190.95,-111.73 1212.25,-85.75 1220.84,-75.27 1219.18,-66.9 1212.25,-55.25 1201.73,-37.56 1181.47,-26.43 1163.72,-19.72"/>
<polygon fill="#63b8ff" stroke="#63b8ff" points="1040.37,-123.95 1030.65,-128.17 1040.88,-130.93 1040.37,-123.95"/>
</a>
</g>
</g>
<!-- Node4&#45;&gt;Node8 -->
<g id="edge8_Node000004_Node000008" class="edge">
<title>Node4&#45;&gt;Node8</title>
<g id="a_edge8_Node000004_Node000008"><a xlink:title=" ">
<path fill="none" stroke="#63b8ff" d="M1040.31,-121.06C1104.9,-109.98 1215.78,-91.59 1284.32,-80.6"/>
<polygon fill="#63b8ff" stroke="#63b8ff" points="1039.95,-117.57 1030.68,-122.72 1041.13,-124.47 1039.95,-117.57"/>
</a>
</g>
</g>
<!-- Node4&#45;&gt;Node9 -->
<g id="edge10_Node000004_Node000009" class="edge">
<title>Node4&#45;&gt;Node9</title>
<g id="a_edge10_Node000004_Node000009"><a xlink:title=" ">
<path fill="none" stroke="#63b8ff" d="M1040.52,-125.71C1122.75,-118.5 1288.75,-103.6 1429.25,-85.75 1441.12,-84.24 1453.81,-82.42 1466.08,-80.58"/>
<polygon fill="#63b8ff" stroke="#63b8ff" points="1040.41,-122.2 1030.75,-126.56 1041.02,-129.18 1040.41,-122.2"/>
</a>
</g>
</g>
<!-- Node10 -->
<g id="Node000010" class="node">
<title>Node10</title>
<g id="a_Node000010"><a xlink:href="_levenberg_marquardt_optimizer_8h.html" target="_top" xlink:title="opt::LevenbergMarquardtOptimizer source file">
<polygon fill="white" stroke="#666666" points="804.38,-85.75 660.12,-85.75 660.12,-55.25 804.38,-55.25 804.38,-85.75"/>
<text text-anchor="start" x="668.12" y="-72.25" font-family="Helvetica,sans-Serif" font-size="10.00">optimize/LevenbergMarquardt</text>
<text text-anchor="middle" x="732.25" y="-61" font-family="Helvetica,sans-Serif" font-size="10.00">Optimizer.h</text>
</a>
</g>
</g>
<!-- Node4&#45;&gt;Node10 -->
<g id="edge12_Node000004_Node000010" class="edge">
<title>Node4&#45;&gt;Node10</title>
<g id="a_edge12_Node000004_Node000010"><a xlink:title=" ">
<path fill="none" stroke="#63b8ff" d="M938.63,-118.78C897.89,-109.45 840.37,-96.27 796.4,-86.19"/>
<polygon fill="#63b8ff" stroke="#63b8ff" points="937.65,-122.15 948.18,-120.97 939.22,-115.32 937.65,-122.15"/>
</a>
</g>
</g>
<!-- Node11 -->
<g id="Node000011" class="node">
<title>Node11</title>
<g id="a_Node000011"><a xlink:href="calibrate_8h.html" target="_top" xlink:title="opt::calibrate source file">
<polygon fill="white" stroke="#666666" points="921.88,-80.12 822.62,-80.12 822.62,-60.88 921.88,-60.88 921.88,-80.12"/>
<text text-anchor="middle" x="872.25" y="-66.62" font-family="Helvetica,sans-Serif" font-size="10.00">optimize/calibrate.h</text>
</a>
</g>
</g>
<!-- Node4&#45;&gt;Node11 -->
<g id="edge13_Node000004_Node000011" class="edge">
<title>Node4&#45;&gt;Node11</title>
<g id="a_edge13_Node000004_Node000011"><a xlink:title=" ">
<path fill="none" stroke="#63b8ff" d="M961.11,-116.22C939.04,-105.11 908.99,-89.99 890.1,-80.48"/>
<polygon fill="#63b8ff" stroke="#63b8ff" points="959.37,-119.26 969.87,-120.62 962.51,-113 959.37,-119.26"/>
</a>
</g>
</g>
<!-- Node12 -->
<g id="Node000012" class="node">
<title>Node12</title>
<g id="a_Node000012"><a xlink:href="_simulation_parameters_8h.html" target="_top" xlink:title="Source file to read simulation configuration.">
<polygon fill="white" stroke="#666666" points="1203.12,-80.12 1057.38,-80.12 1057.38,-60.88 1203.12,-60.88 1203.12,-80.12"/>
<text text-anchor="middle" x="1130.25" y="-66.62" font-family="Helvetica,sans-Serif" font-size="10.00">solve/SimulationParameters.h</text>
</a>
</g>
</g>
<!-- Node4&#45;&gt;Node12 -->
<g id="edge14_Node000004_Node000012" class="edge">
<title>Node4&#45;&gt;Node12</title>
<g id="a_edge14_Node000004_Node000012"><a xlink:title=" ">
<path fill="none" stroke="#63b8ff" d="M1021.36,-116.97C1048.11,-105.8 1085.46,-90.2 1108.73,-80.48"/>
<polygon fill="#63b8ff" stroke="#63b8ff" points="1020.25,-113.64 1012.37,-120.72 1022.95,-120.1 1020.25,-113.64"/>
</a>
</g>
</g>
<!-- Node13 -->
<g id="Node000013" class="node">
<title>Node13</title>
<g id="a_Node000013"><a xlink:href="csv__writer_8h.html" target="_top" xlink:title="csv_writer source file">
<polygon fill="white" stroke="#666666" points="641.62,-80.12 546.88,-80.12 546.88,-60.88 641.62,-60.88 641.62,-80.12"/>
<text text-anchor="middle" x="594.25" y="-66.62" font-family="Helvetica,sans-Serif" font-size="10.00">solve/csv_writer.h</text>
</a>
</g>
</g>
<!-- Node4&#45;&gt;Node13 -->
<g id="edge17_Node000004_Node000013" class="edge">
<title>Node4&#45;&gt;Node13</title>
<g id="a_edge17_Node000004_Node000013"><a xlink:title=" ">
<path fill="none" stroke="#63b8ff" d="M938.09,-125.45C871.63,-118.64 752.18,-104.96 651.25,-85.75 643.63,-84.3 635.52,-82.46 627.87,-80.58"/>
<polygon fill="#63b8ff" stroke="#63b8ff" points="937.66,-128.93 947.96,-126.45 938.37,-121.96 937.66,-128.93"/>
</a>
</g>
</g>
<!-- Node5&#45;&gt;Node6 -->
<g id="edge5_Node000005_Node000006" class="edge">
<title>Node5&#45;&gt;Node6</title>
<g id="a_edge5_Node000005_Node000006"><a xlink:title=" ">
<path fill="none" stroke="#63b8ff" d="M943.88,-57.85C939.62,-56.91 935.36,-56.03 931.25,-55.25 830.63,-36.29 711.6,-22.53 645.34,-15.63"/>
<polygon fill="#63b8ff" stroke="#63b8ff" points="943.03,-61.25 953.56,-60.1 944.61,-54.43 943.03,-61.25"/>
</a>
</g>
</g>
<!-- Node5&#45;&gt;Node7 -->
<g id="edge6_Node000005_Node000007" class="edge">
<title>Node5&#45;&gt;Node7</title>
<g id="a_edge6_Node000005_Node000007"><a xlink:title=" ">
<path fill="none" stroke="#63b8ff" d="M1021.36,-56.09C1048.11,-44.92 1085.46,-29.33 1108.73,-19.61"/>
<polygon fill="#63b8ff" stroke="#63b8ff" points="1020.25,-52.76 1012.37,-59.85 1022.95,-59.22 1020.25,-52.76"/>
</a>
</g>
</g>
<!-- Node8&#45;&gt;Node4 -->
<g id="edge9_Node000008_Node000004" class="edge">
<title>Node8&#45;&gt;Node4</title>
<g id="a_edge9_Node000008_Node000004"><a xlink:title=" ">
<path fill="none" stroke="#63b8ff" d="M1283.04,-82.55C1210.26,-94.97 1091.05,-114.68 1029.17,-124.46"/>
<polygon fill="#63b8ff" stroke="#63b8ff" points="1283.55,-86.01 1292.81,-80.88 1282.37,-79.11 1283.55,-86.01"/>
</a>
</g>
</g>
<!-- Node9&#45;&gt;Node4 -->
<g id="edge11_Node000009_Node000004" class="edge">
<title>Node9&#45;&gt;Node4</title>
<g id="a_edge11_Node000009_Node000004"><a xlink:title=" ">
<path fill="none" stroke="#63b8ff" d="M1472.35,-82.29C1463.96,-83.53 1455.41,-84.71 1447.25,-85.75 1293.38,-105.3 1108.93,-121.3 1029.09,-127.55"/>
<polygon fill="#63b8ff" stroke="#63b8ff" points="1472.78,-85.76 1482.14,-80.81 1471.73,-78.84 1472.78,-85.76"/>
</a>
</g>
</g>
<!-- Node12&#45;&gt;Node7 -->
<g id="edge15_Node000012_Node000007" class="edge">
<title>Node12&#45;&gt;Node7</title>
<g id="a_edge15_Node000012_Node000007"><a xlink:title=" ">
<path fill="none" stroke="#63b8ff" d="M1130.25,-49.07C1130.25,-39.04 1130.25,-27.46 1130.25,-19.65"/>
<polygon fill="#63b8ff" stroke="#63b8ff" points="1126.75,-49.04 1130.25,-59.04 1133.75,-49.04 1126.75,-49.04"/>
</a>
</g>
</g>
<!-- Node13&#45;&gt;Node6 -->
<g id="edge18_Node000013_Node000006" class="edge">
<title>Node13&#45;&gt;Node6</title>
<g id="a_edge18_Node000013_Node000006"><a xlink:title=" ">
<path fill="none" stroke="#63b8ff" d="M594.25,-49.07C594.25,-39.04 594.25,-27.46 594.25,-19.65"/>
<polygon fill="#63b8ff" stroke="#63b8ff" points="590.75,-49.04 594.25,-59.04 597.75,-49.04 590.75,-49.04"/>
</a>
</g>
</g>
<!-- Node14&#45;&gt;Node4 -->
<g id="edge22_Node000014_Node000004" class="edge">
<title>Node14&#45;&gt;Node4</title>
<g id="a_edge22_Node000014_Node000004"><a xlink:title=" ">
<path fill="none" stroke="#63b8ff" d="M1018.33,-289.02C1023.07,-281.29 1027.84,-271.97 1030.25,-262.75 1032.41,-254.47 1031.75,-251.92 1030.25,-243.5 1023.16,-203.82 1002.89,-159.76 993.78,-141.29"/>
<polygon fill="#63b8ff" stroke="#63b8ff" points="1015.55,-286.87 1012.95,-297.14 1021.39,-290.74 1015.55,-286.87"/>
</a>
</g>
</g>
<!-- Node14&#45;&gt;Node15 -->
<g id="edge20_Node000014_Node000015" class="edge">
<title>Node14&#45;&gt;Node15</title>
<g id="a_edge20_Node000014_Node000015"><a xlink:title=" ">
<path fill="none" stroke="#63b8ff" d="M987.62,-290.61C978.01,-281.47 966.5,-270.53 958.61,-263.02"/>
<polygon fill="#63b8ff" stroke="#63b8ff" points="984.99,-292.94 994.65,-297.3 989.82,-287.87 984.99,-292.94"/>
</a>
</g>
</g>
<!-- Node15&#45;&gt;Node4 -->
<g id="edge21_Node000015_Node000004" class="edge">
<title>Node15&#45;&gt;Node4</title>
<g id="a_edge21_Node000015_Node000004"><a xlink:title=" ">
<path fill="none" stroke="#63b8ff" d="M955.89,-232.24C964.67,-205.96 979.78,-160.73 986.21,-141.48"/>
<polygon fill="#63b8ff" stroke="#63b8ff" points="952.58,-231.09 952.74,-241.69 959.22,-233.31 952.58,-231.09"/>
</a>
</g>
</g>
<!-- Node16&#45;&gt;Node4 -->
<g id="edge25_Node000016_Node000004" class="edge">
<title>Node16&#45;&gt;Node4</title>
<g id="a_edge25_Node000016_Node000004"><a xlink:title=" ">
<path fill="none" stroke="#63b8ff" d="M840.35,-288.31C847.12,-275.08 857.08,-257.41 868.25,-243.5 902.71,-200.57 953.99,-159.21 977.13,-141.45"/>
<polygon fill="#63b8ff" stroke="#63b8ff" points="837.24,-286.71 835.95,-297.23 843.51,-289.81 837.24,-286.71"/>
</a>
</g>
</g>
<!-- Node16&#45;&gt;Node15 -->
<g id="edge24_Node000016_Node000015" class="edge">
<title>Node16&#45;&gt;Node15</title>
<g id="a_edge24_Node000016_Node000015"><a xlink:title=" ">
<path fill="none" stroke="#63b8ff" d="M861.69,-293.64C882.91,-284.06 910.62,-271.56 929.13,-263.2"/>
<polygon fill="#63b8ff" stroke="#63b8ff" points="860.32,-290.42 852.65,-297.72 863.2,-296.8 860.32,-290.42"/>
</a>
</g>
</g>
<!-- Node17&#45;&gt;Node4 -->
<g id="edge29_Node000017_Node000004" class="edge">
<title>Node17&#45;&gt;Node4</title>
<g id="a_edge29_Node000017_Node000004"><a xlink:title=" ">
<path fill="none" stroke="#63b8ff" d="M111.61,-180.07C118.19,-178.88 124.87,-177.81 131.25,-177 444.58,-137.18 826.59,-132.7 949.29,-132.35"/>
<polygon fill="#63b8ff" stroke="#63b8ff" points="111.34,-176.55 102.18,-181.87 112.66,-183.43 111.34,-176.55"/>
</a>
</g>
</g>
<!-- Node19 -->
<g id="Node000019" class="node">
<title>Node19</title>
<g id="a_Node000019"><a xlink:href="_closed_loop_coronary_left_b_c_8h.html" target="_top" xlink:title="Left side of ClosedLoopCoronaryBC.">
<polygon fill="white" stroke="#666666" points="428.88,-207.5 293.62,-207.5 293.62,-177 428.88,-177 428.88,-207.5"/>
<text text-anchor="start" x="301.62" y="-194" font-family="Helvetica,sans-Serif" font-size="10.00">model/ClosedLoopCoronary</text>
<text text-anchor="middle" x="361.25" y="-182.75" font-family="Helvetica,sans-Serif" font-size="10.00">LeftBC.h</text>
</a>
</g>
</g>
<!-- Node18&#45;&gt;Node19 -->
<g id="edge31_Node000018_Node000019" class="edge">
<title>Node18&#45;&gt;Node19</title>
<g id="a_edge31_Node000018_Node000019"><a xlink:title=" ">
<path fill="none" stroke="#63b8ff" d="M323.93,-234.7C331.65,-226.13 340.84,-215.92 348.17,-207.78"/>
<polygon fill="#63b8ff" stroke="#63b8ff" points="321.4,-232.28 317.31,-242.06 326.6,-236.97 321.4,-232.28"/>
</a>
</g>
</g>
<!-- Node20 -->
<g id="Node000020" class="node">
<title>Node20</title>
<g id="a_Node000020"><a xlink:href="_closed_loop_coronary_right_b_c_8h.html" target="_top" xlink:title="Right side of ClosedLoopCoronaryBC.">
<polygon fill="white" stroke="#666666" points="275.88,-207.5 140.62,-207.5 140.62,-177 275.88,-177 275.88,-207.5"/>
<text text-anchor="start" x="148.62" y="-194" font-family="Helvetica,sans-Serif" font-size="10.00">model/ClosedLoopCoronary</text>
<text text-anchor="middle" x="208.25" y="-182.75" font-family="Helvetica,sans-Serif" font-size="10.00">RightBC.h</text>
</a>
</g>
</g>
<!-- Node18&#45;&gt;Node20 -->
<g id="edge33_Node000018_Node000020" class="edge">
<title>Node18&#45;&gt;Node20</title>
<g id="a_edge33_Node000018_Node000020"><a xlink:title=" ">
<path fill="none" stroke="#63b8ff" d="M283.2,-237.38C267.83,-228.33 248.23,-216.79 232.93,-207.78"/>
<polygon fill="#63b8ff" stroke="#63b8ff" points="281.36,-240.36 291.76,-242.42 284.92,-234.33 281.36,-240.36"/>
</a>
</g>
</g>
<!-- Node19&#45;&gt;Node4 -->
<g id="edge32_Node000019_Node000004" class="edge">
<title>Node19&#45;&gt;Node4</title>
<g id="a_edge32_Node000019_Node000004"><a xlink:title=" ">
<path fill="none" stroke="#63b8ff" d="M440.22,-177.39C441.24,-177.26 442.25,-177.13 443.25,-177 631.94,-152.94 859.05,-139.24 949.39,-134.39"/>
<polygon fill="#63b8ff" stroke="#63b8ff" points="440.1,-173.88 430.69,-178.74 441.08,-180.81 440.1,-173.88"/>
</a>
</g>
</g>
<!-- Node20&#45;&gt;Node4 -->
<g id="edge34_Node000020_Node000004" class="edge">
<title>Node20&#45;&gt;Node4</title>
<g id="a_edge34_Node000020_Node000004"><a xlink:title=" ">
<path fill="none" stroke="#63b8ff" d="M287.21,-176.73C544.77,-145.26 843.15,-135.74 949.34,-133.2"/>
<polygon fill="#63b8ff" stroke="#63b8ff" points="287.14,-173.21 277.64,-177.91 287.99,-180.16 287.14,-173.21"/>
</a>
</g>
</g>
<!-- Node21&#45;&gt;Node4 -->
<g id="edge37_Node000021_Node000004" class="edge">
<title>Node21&#45;&gt;Node4</title>
<g id="a_edge37_Node000021_Node000004"><a xlink:title=" ">
<path fill="none" stroke="#63b8ff" d="M391.74,-287.69C404.23,-257.91 432.34,-202.23 476.25,-177 516.94,-153.62 836.08,-138.57 949.45,-133.91"/>
<polygon fill="#63b8ff" stroke="#63b8ff" points="388.49,-286.38 388.03,-296.97 394.99,-288.98 388.49,-286.38"/>
</a>
</g>
</g>
<!-- Node21&#45;&gt;Node18 -->
<g id="edge36_Node000021_Node000018" class="edge">
<title>Node21&#45;&gt;Node18</title>
<g id="a_edge36_Node000021_Node000018"><a xlink:title=" ">
<path fill="none" stroke="#63b8ff" d="M361.96,-291.76C348.71,-282.47 332.36,-271.02 321.21,-263.2"/>
<polygon fill="#63b8ff" stroke="#63b8ff" points="359.92,-294.6 370.12,-297.47 363.94,-288.87 359.92,-294.6"/>
</a>
</g>
</g>
<!-- Node22&#45;&gt;Node4 -->
<g id="edge39_Node000022_Node000004" class="edge">
<title>Node22&#45;&gt;Node4</title>
<g id="a_edge39_Node000022_Node000004"><a xlink:title=" ">
<path fill="none" stroke="#63b8ff" d="M616.44,-180.27C623.45,-179.12 630.5,-178.01 637.25,-177 750.12,-160.17 883.96,-144.33 949.32,-136.86"/>
<polygon fill="#63b8ff" stroke="#63b8ff" points="615.89,-176.81 606.6,-181.91 617.04,-183.72 615.89,-176.81"/>
</a>
</g>
</g>
<!-- Node23&#45;&gt;Node4 -->
<g id="edge41_Node000023_Node000004" class="edge">
<title>Node23&#45;&gt;Node4</title>
<g id="a_edge41_Node000023_Node000004"><a xlink:title=" ">
<path fill="none" stroke="#63b8ff" d="M1320.84,-295.54C1355.8,-285.89 1388.99,-269.52 1372.25,-243.5 1334.56,-184.91 1119.43,-149.76 1029.14,-137.41"/>
<polygon fill="#63b8ff" stroke="#63b8ff" points="1320.28,-292.07 1311.46,-297.94 1322.01,-298.85 1320.28,-292.07"/>
</a>
</g>
</g>
<!-- Node24&#45;&gt;Node4 -->
<g id="edge43_Node000024_Node000004" class="edge">
<title>Node24&#45;&gt;Node4</title>
<g id="a_edge43_Node000024_Node000004"><a xlink:title=" ">
<path fill="none" stroke="#63b8ff" d="M734.4,-232.04C732.42,-215.18 732.75,-191.56 746.25,-177 773.15,-147.98 887.5,-137.61 949.27,-134.08"/>
<polygon fill="#63b8ff" stroke="#63b8ff" points="730.94,-232.54 735.96,-241.87 737.85,-231.44 730.94,-232.54"/>
</a>
</g>
</g>
<!-- Node25&#45;&gt;Node4 -->
<g id="edge46_Node000025_Node000004" class="edge">
<title>Node25&#45;&gt;Node4</title>
<g id="a_edge46_Node000025_Node000004"><a xlink:title=" ">
<path fill="none" stroke="#63b8ff" d="M1410.62,-287.35C1406.13,-273.93 1398.83,-256.41 1388.25,-243.5 1355.58,-203.64 1341.15,-196.03 1293.25,-177 1203.52,-141.35 1088.71,-133.8 1029.14,-132.44"/>
<polygon fill="#63b8ff" stroke="#63b8ff" points="1407.25,-288.3 1413.52,-296.84 1413.94,-286.25 1407.25,-288.3"/>
</a>
</g>
</g>
<!-- Node26&#45;&gt;Node4 -->
<g id="edge49_Node000026_Node000004" class="edge">
<title>Node26&#45;&gt;Node4</title>
<g id="a_edge49_Node000026_Node000004"><a xlink:title=" ">
<path fill="none" stroke="#63b8ff" d="M853.45,-178.59C886.28,-167.42 933.35,-151.4 962.57,-141.46"/>
<polygon fill="#63b8ff" stroke="#63b8ff" points="852.67,-175.16 844.33,-181.69 854.93,-181.78 852.67,-175.16"/>
</a>
</g>
</g>
<!-- Node27&#45;&gt;Node4 -->
<g id="edge51_Node000027_Node000004" class="edge">
<title>Node27&#45;&gt;Node4</title>
<g id="a_edge51_Node000027_Node000004"><a xlink:title=" ">
<path fill="none" stroke="#63b8ff" d="M1561.83,-291.96C1519.87,-263.95 1425.68,-205 1337.25,-177 1229.38,-142.85 1094.84,-134.76 1029.12,-132.9"/>
<polygon fill="#63b8ff" stroke="#63b8ff" points="1559.84,-294.84 1570.09,-297.53 1563.76,-289.04 1559.84,-294.84"/>
</a>
</g>
</g>
<!-- Node28&#45;&gt;Node4 -->
<g id="edge53_Node000028_Node000004" class="edge">
<title>Node28&#45;&gt;Node4</title>
<g id="a_edge53_Node000028_Node000004"><a xlink:title=" ">
<path fill="none" stroke="#63b8ff" d="M1705.02,-293.45C1646.53,-266.24 1510.31,-206.14 1389.25,-177 1259.83,-145.85 1101.53,-136.35 1028.99,-133.53"/>
<polygon fill="#63b8ff" stroke="#63b8ff" points="1703.42,-296.57 1713.96,-297.64 1706.39,-290.23 1703.42,-296.57"/>
</a>
</g>
</g>
<!-- Node29&#45;&gt;Node4 -->
<g id="edge55_Node000029_Node000004" class="edge">
<title>Node29&#45;&gt;Node4</title>
<g id="a_edge55_Node000029_Node000004"><a xlink:title=" ">
<path fill="none" stroke="#63b8ff" d="M1180.52,-231.99C1179.63,-215.08 1175.61,-191.45 1161.25,-177 1126.45,-141.99 1067.97,-133.31 1028.99,-131.73"/>
<polygon fill="#63b8ff" stroke="#63b8ff" points="1177.02,-231.88 1180.68,-241.82 1184.01,-231.76 1177.02,-231.88"/>
</a>
</g>
</g>
<!-- Node30&#45;&gt;Node4 -->
<g id="edge57_Node000030_Node000004" class="edge">
<title>Node30&#45;&gt;Node4</title>
<g id="a_edge57_Node000030_Node000004"><a xlink:title=" ">
<path fill="none" stroke="#63b8ff" d="M1291.33,-236.71C1266.28,-219.77 1223.54,-192.86 1183.25,-177 1131.8,-156.74 1068.88,-144.38 1028.93,-137.95"/>
<polygon fill="#63b8ff" stroke="#63b8ff" points="1289.14,-239.46 1299.37,-242.23 1293.11,-233.69 1289.14,-239.46"/>
</a>
</g>
</g>
<!-- Node31&#45;&gt;Node4 -->
<g id="edge59_Node000031_Node000004" class="edge">
<title>Node31&#45;&gt;Node4</title>
<g id="a_edge59_Node000031_Node000004"><a xlink:title=" ">
<path fill="none" stroke="#63b8ff" d="M1068.43,-176.77C1048.7,-165.71 1022.13,-150.81 1005.35,-141.4"/>
<polygon fill="#63b8ff" stroke="#63b8ff" points="1066.55,-179.73 1076.98,-181.57 1069.97,-173.62 1066.55,-179.73"/>
</a>
</g>
</g>
</g>
</svg>
