<?xml version="1.0" encoding="UTF-8" standalone="no"?>
<!DOCTYPE svg PUBLIC "-//W3C//DTD SVG 1.1//EN"
 "http://www.w3.org/Graphics/SVG/1.1/DTD/svg11.dtd">
<!-- Generated by graphviz version 7.0.5 (20221223.1930)
 -->
<!-- Title: model/Parameter.h Pages: 1 -->
<svg width="293pt" height="137pt"
 viewBox="0.00 0.00 292.50 137.00" xmlns="http://www.w3.org/2000/svg" xmlns:xlink="http://www.w3.org/1999/xlink">
<g id="graph0" class="graph" transform="scale(1 1) rotate(0) translate(4 133)">
<title>model/Parameter.h</title>
<!-- Node1 -->
<g id="node1" class="node">
<title>Node1</title>
<g id="a_node1"><a xlink:title="model::Parameter source file">
<polygon fill="#999999" stroke="#666666" points="166,-129 68,-129 68,-110 166,-110 166,-129"/>
<text text-anchor="middle" x="117" y="-117" font-family="Helvetica,sans-Serif" font-size="10.00">model/Parameter.h</text>
</a>
</g>
</g>
<!-- Node2 -->
<g id="node2" class="node">
<title>Node2</title>
<g id="a_node2"><a xlink:title=" ">
<polygon fill="#e0e0e0" stroke="#999999" points="46,-74 0,-74 0,-55 46,-55 46,-74"/>
<text text-anchor="middle" x="23" y="-62" font-family="Helvetica,sans-Serif" font-size="10.00">math.h</text>
</a>
</g>
</g>
<!-- Node1&#45;&gt;Node2 -->
<g id="edge1" class="edge">
<title>Node1&#45;&gt;Node2</title>
<path fill="none" stroke="#63b8ff" d="M101.05,-109.51C86.65,-101.39 65.21,-89.3 48.44,-79.85"/>
<polygon fill="#63b8ff" stroke="#63b8ff" points="50.46,-76.96 40.03,-75.1 47.02,-83.06 50.46,-76.96"/>
</g>
<!-- Node3 -->
<g id="node3" class="node">
<title>Node3</title>
<g id="a_node3"><a xlink:title=" ">
<polygon fill="#e0e0e0" stroke="#999999" points="115.5,-74 64.5,-74 64.5,-55 115.5,-55 115.5,-74"/>
<text text-anchor="middle" x="90" y="-62" font-family="Helvetica,sans-Serif" font-size="10.00">numeric</text>
</a>
</g>
</g>
<!-- Node1&#45;&gt;Node3 -->
<g id="edge2" class="edge">
<title>Node1&#45;&gt;Node3</title>
<path fill="none" stroke="#63b8ff" d="M112.54,-109.75C109.05,-102.88 104.05,-93.08 99.65,-84.45"/>
<polygon fill="#63b8ff" stroke="#63b8ff" points="102.9,-83.11 95.24,-75.79 96.66,-86.29 102.9,-83.11"/>
</g>
<!-- Node4 -->
<g id="node4" class="node">
<title>Node4</title>
<g id="a_node4"><a xlink:title=" ">
<polygon fill="#e0e0e0" stroke="#999999" points="170,-19 126,-19 126,0 170,0 170,-19"/>
<text text-anchor="middle" x="148" y="-7" font-family="Helvetica,sans-Serif" font-size="10.00">vector</text>
</a>
</g>
</g>
<!-- Node1&#45;&gt;Node4 -->
<g id="edge3" class="edge">
<title>Node1&#45;&gt;Node4</title>
<path fill="none" stroke="#63b8ff" d="M119.54,-109.66C124.49,-92.42 135.54,-53.9 142.33,-30.27"/>
<polygon fill="#63b8ff" stroke="#63b8ff" points="145.62,-31.49 145.01,-20.92 138.89,-29.56 145.62,-31.49"/>
</g>
<!-- Node5 -->
<g id="node5" class="node">
<title>Node5</title>
<g id="a_node5"><a xlink:href="_d_o_f_handler_8h.html" target="_top" xlink:title="model::DOFHandler source file">
<polygon fill="white" stroke="#666666" points="250,-74 172,-74 172,-55 250,-55 250,-74"/>
<text text-anchor="middle" x="211" y="-62" font-family="Helvetica,sans-Serif" font-size="10.00">DOFHandler.h</text>
</a>
</g>
</g>
<!-- Node1&#45;&gt;Node5 -->
<g id="edge4" class="edge">
<title>Node1&#45;&gt;Node5</title>
<path fill="none" stroke="#63b8ff" d="M132.95,-109.51C147.35,-101.39 168.79,-89.3 185.56,-79.85"/>
<polygon fill="#63b8ff" stroke="#63b8ff" points="186.98,-83.06 193.97,-75.1 183.54,-76.96 186.98,-83.06"/>
</g>
<!-- Node5&#45;&gt;Node4 -->
<g id="edge7" class="edge">
<title>Node5&#45;&gt;Node4</title>
<path fill="none" stroke="#63b8ff" d="M200.31,-54.51C191.3,-46.93 178.17,-35.88 167.32,-26.75"/>
<polygon fill="#63b8ff" stroke="#63b8ff" points="169.59,-24.09 159.69,-20.33 165.09,-29.45 169.59,-24.09"/>
</g>
<!-- Node6 -->
<g id="node6" class="node">
<title>Node6</title>
<g id="a_node6"><a xlink:title=" ">
<polygon fill="#e0e0e0" stroke="#999999" points="225.5,-19 190.5,-19 190.5,0 225.5,0 225.5,-19"/>
<text text-anchor="middle" x="208" y="-7" font-family="Helvetica,sans-Serif" font-size="10.00">map</text>
</a>
</g>
</g>
<!-- Node5&#45;&gt;Node6 -->
<g id="edge5" class="edge">
<title>Node5&#45;&gt;Node6</title>
<path fill="none" stroke="#63b8ff" d="M210.5,-54.75C210.14,-48.27 209.62,-39.16 209.15,-30.9"/>
<polygon fill="#63b8ff" stroke="#63b8ff" points="212.65,-30.74 208.59,-20.95 205.66,-31.13 212.65,-30.74"/>
</g>
<!-- Node7 -->
<g id="node7" class="node">
<title>Node7</title>
<g id="a_node7"><a xlink:title=" ">
<polygon fill="#e0e0e0" stroke="#999999" points="284.5,-19 243.5,-19 243.5,0 284.5,0 284.5,-19"/>
<text text-anchor="middle" x="264" y="-7" font-family="Helvetica,sans-Serif" font-size="10.00">string</text>
</a>
</g>
</g>
<!-- Node5&#45;&gt;Node7 -->
<g id="edge6" class="edge">
<title>Node5&#45;&gt;Node7</title>
<path fill="none" stroke="#63b8ff" d="M219.75,-54.75C227.15,-47.35 237.96,-36.54 247.05,-27.45"/>
<polygon fill="#63b8ff" stroke="#63b8ff" points="249.39,-30.06 253.99,-20.51 244.44,-25.11 249.39,-30.06"/>
</g>
</g>
</svg>
