<?xml version="1.0" encoding="UTF-8" standalone="no"?>
<!DOCTYPE svg PUBLIC "-//W3C//DTD SVG 1.1//EN"
 "http://www.w3.org/Graphics/SVG/1.1/DTD/svg11.dtd">
<!-- Generated by graphviz version 9.0.0 (20230911.1827)
 -->
<!-- Title: model/Parameter.h Pages: 1 -->
<svg width="1540pt" height="437pt"
 viewBox="0.00 0.00 1540.38 436.50" xmlns="http://www.w3.org/2000/svg" xmlns:xlink="http://www.w3.org/1999/xlink">
<g id="graph0" class="graph" transform="scale(1 1) rotate(0) translate(4 432.5)">
<title>model/Parameter.h</title>
<!-- Node1 -->
<g id="Node000001" class="node">
<title>Node1</title>
<g id="a_Node000001"><a xlink:title="model::Parameter source file">
<polygon fill="#999999" stroke="#666666" points="1095.75,-428.5 998,-428.5 998,-409.25 1095.75,-409.25 1095.75,-428.5"/>
<text text-anchor="middle" x="1046.88" y="-415" font-family="Helvetica,sans-Serif" font-size="10.00">model/Parameter.h</text>
</a>
</g>
</g>
<!-- Node2 -->
<g id="Node000002" class="node">
<title>Node2</title>
<g id="a_Node000002"><a xlink:href="_block_8h.html" target="_top" xlink:title="model::Block source file">
<polygon fill="white" stroke="#666666" points="825.63,-373.25 748.13,-373.25 748.13,-354 825.63,-354 825.63,-373.25"/>
<text text-anchor="middle" x="786.88" y="-359.75" font-family="Helvetica,sans-Serif" font-size="10.00">model/Block.h</text>
</a>
</g>
</g>
<!-- Node1&#45;&gt;Node2 -->
<g id="edge1_Node000001_Node000002" class="edge">
<title>Node1&#45;&gt;Node2</title>
<g id="a_edge1_Node000001_Node000002"><a xlink:title=" ">
<path fill="none" stroke="#63b8ff" d="M991.28,-406.49C941.55,-396.3 869.92,-381.63 826,-372.64"/>
<polygon fill="#63b8ff" stroke="#63b8ff" points="990.5,-409.9 1001,-408.48 991.9,-403.04 990.5,-409.9"/>
</a>
</g>
</g>
<!-- Node4 -->
<g id="Node000004" class="node">
<title>Node4</title>
<g id="a_Node000004"><a xlink:href="_model_8h.html" target="_top" xlink:title="model::Model source file">
<polygon fill="white" stroke="#666666" points="790.38,-141 711.38,-141 711.38,-121.75 790.38,-121.75 790.38,-141"/>
<text text-anchor="middle" x="750.88" y="-127.5" font-family="Helvetica,sans-Serif" font-size="10.00">model/Model.h</text>
</a>
</g>
</g>
<!-- Node1&#45;&gt;Node4 -->
<g id="edge48_Node000001_Node000004" class="edge">
<title>Node1&#45;&gt;Node4</title>
<g id="a_edge48_Node000001_Node000004"><a xlink:title=" ">
<path fill="none" stroke="#63b8ff" d="M986.07,-417.99C762.91,-417.6 1.88,-408.99 1.88,-309.38 1.88,-309.38 1.88,-309.38 1.88,-252.12 1.88,-217.68 -5.64,-198.98 20.88,-177 74.16,-132.84 566.06,-131.53 710.92,-132.11"/>
<polygon fill="#63b8ff" stroke="#63b8ff" points="986.01,-421.49 996.02,-418 986.02,-414.49 986.01,-421.49"/>
</a>
</g>
</g>
<!-- Node19 -->
<g id="Node000019" class="node">
<title>Node19</title>
<g id="a_Node000019"><a xlink:href="_flow_reference_b_c_8h.html" target="_top" xlink:title="model::FlowReferenceBC source file">
<polygon fill="white" stroke="#666666" points="1063.63,-318 932.13,-318 932.13,-298.75 1063.63,-298.75 1063.63,-318"/>
<text text-anchor="middle" x="997.88" y="-304.5" font-family="Helvetica,sans-Serif" font-size="10.00">model/FlowReferenceBC.h</text>
</a>
</g>
</g>
<!-- Node1&#45;&gt;Node19 -->
<g id="edge47_Node000001_Node000019" class="edge">
<title>Node1&#45;&gt;Node19</title>
<g id="a_edge47_Node000001_Node000019"><a xlink:title=" ">
<path fill="none" stroke="#63b8ff" d="M1038.13,-398.51C1027.46,-374.87 1009.85,-335.88 1001.94,-318.38"/>
<polygon fill="#63b8ff" stroke="#63b8ff" points="1034.94,-399.94 1042.25,-407.62 1041.32,-397.06 1034.94,-399.94"/>
</a>
</g>
</g>
<!-- Node21 -->
<g id="Node000021" class="node">
<title>Node21</title>
<g id="a_Node000021"><a xlink:href="_open_loop_coronary_b_c_8h.html" target="_top" xlink:title="model::OpenLoopCoronaryBC source file">
<polygon fill="white" stroke="#666666" points="1231.63,-318 1082.13,-318 1082.13,-298.75 1231.63,-298.75 1231.63,-318"/>
<text text-anchor="middle" x="1156.88" y="-304.5" font-family="Helvetica,sans-Serif" font-size="10.00">model/OpenLoopCoronaryBC.h</text>
</a>
</g>
</g>
<!-- Node1&#45;&gt;Node21 -->
<g id="edge49_Node000001_Node000021" class="edge">
<title>Node1&#45;&gt;Node21</title>
<g id="a_edge49_Node000001_Node000021"><a xlink:title=" ">
<path fill="none" stroke="#63b8ff" d="M1063.95,-401.03C1087.57,-377.74 1129.36,-336.52 1147.75,-318.38"/>
<polygon fill="#63b8ff" stroke="#63b8ff" points="1061.62,-398.42 1056.96,-407.93 1066.54,-403.4 1061.62,-398.42"/>
</a>
</g>
</g>
<!-- Node22 -->
<g id="Node000022" class="node">
<title>Node22</title>
<g id="a_Node000022"><a xlink:href="_pressure_reference_b_c_8h.html" target="_top" xlink:title="model::PressureReferenceBC source file">
<polygon fill="white" stroke="#666666" points="1399.63,-318 1250.13,-318 1250.13,-298.75 1399.63,-298.75 1399.63,-318"/>
<text text-anchor="middle" x="1324.88" y="-304.5" font-family="Helvetica,sans-Serif" font-size="10.00">model/PressureReferenceBC.h</text>
</a>
</g>
</g>
<!-- Node1&#45;&gt;Node22 -->
<g id="edge50_Node000001_Node000022" class="edge">
<title>Node1&#45;&gt;Node22</title>
<g id="a_edge50_Node000001_Node000022"><a xlink:title=" ">
<path fill="none" stroke="#63b8ff" d="M1080.75,-404.66C1137.97,-382.32 1252.35,-337.68 1301.53,-318.49"/>
<polygon fill="#63b8ff" stroke="#63b8ff" points="1079.56,-401.36 1071.51,-408.26 1082.1,-407.89 1079.56,-401.36"/>
</a>
</g>
</g>
<!-- Node23 -->
<g id="Node000023" class="node">
<title>Node23</title>
<g id="a_Node000023"><a xlink:href="_resistance_b_c_8h.html" target="_top" xlink:title="model::ResistanceBC source file">
<polygon fill="white" stroke="#666666" points="1532.38,-318 1417.38,-318 1417.38,-298.75 1532.38,-298.75 1532.38,-318"/>
<text text-anchor="middle" x="1474.88" y="-304.5" font-family="Helvetica,sans-Serif" font-size="10.00">model/ResistanceBC.h</text>
</a>
</g>
</g>
<!-- Node1&#45;&gt;Node23 -->
<g id="edge51_Node000001_Node000023" class="edge">
<title>Node1&#45;&gt;Node23</title>
<g id="a_edge51_Node000001_Node000023"><a xlink:title=" ">
<path fill="none" stroke="#63b8ff" d="M1093.63,-406.02C1179.74,-384.19 1361.64,-338.08 1438.93,-318.49"/>
<polygon fill="#63b8ff" stroke="#63b8ff" points="1092.93,-402.59 1084.1,-408.44 1094.65,-409.37 1092.93,-402.59"/>
</a>
</g>
</g>
<!-- Node3 -->
<g id="Node000003" class="node">
<title>Node3</title>
<g id="a_Node000003"><a xlink:href="_block_factory_8h.html" target="_top" xlink:title="Define the block factory functional.">
<polygon fill="white" stroke="#666666" points="717.75,-262.75 608,-262.75 608,-243.5 717.75,-243.5 717.75,-262.75"/>
<text text-anchor="middle" x="662.88" y="-249.25" font-family="Helvetica,sans-Serif" font-size="10.00">model/BlockFactory.h</text>
</a>
</g>
</g>
<!-- Node2&#45;&gt;Node3 -->
<g id="edge2_Node000002_Node000003" class="edge">
<title>Node2&#45;&gt;Node3</title>
<g id="a_edge2_Node000002_Node000003"><a xlink:title=" ">
<path fill="none" stroke="#63b8ff" d="M737.01,-350.9C717.8,-344.14 697.09,-333.74 682.88,-318 668.71,-302.3 664.58,-276.64 663.37,-263.12"/>
<polygon fill="#63b8ff" stroke="#63b8ff" points="735.74,-354.17 746.34,-353.92 737.9,-347.51 735.74,-354.17"/>
</a>
</g>
</g>
<!-- Node2&#45;&gt;Node4 -->
<g id="edge34_Node000002_Node000004" class="edge">
<title>Node2&#45;&gt;Node4</title>
<g id="a_edge34_Node000002_Node000004"><a xlink:title=" ">
<path fill="none" stroke="#63b8ff" d="M736.52,-361.66C617.48,-358.08 325.23,-341.32 278.88,-262.75 274.53,-255.38 275.34,-251.29 278.88,-243.5 288.15,-223.06 334.35,-186.06 354.88,-177 418.1,-149.11 623.76,-137.57 711.08,-133.85"/>
<polygon fill="#63b8ff" stroke="#63b8ff" points="736.21,-365.15 746.3,-361.93 736.41,-358.15 736.21,-365.15"/>
</a>
</g>
</g>
<!-- Node12 -->
<g id="Node000012" class="node">
<title>Node12</title>
<g id="a_Node000012"><a xlink:href="_blood_vessel_8h.html" target="_top" xlink:title="model::BloodVessel source file">
<polygon fill="white" stroke="#666666" points="799.63,-318 692.13,-318 692.13,-298.75 799.63,-298.75 799.63,-318"/>
<text text-anchor="middle" x="745.88" y="-304.5" font-family="Helvetica,sans-Serif" font-size="10.00">model/BloodVessel.h</text>
</a>
</g>
</g>
<!-- Node2&#45;&gt;Node12 -->
<g id="edge15_Node000002_Node000012" class="edge">
<title>Node2&#45;&gt;Node12</title>
<g id="a_edge15_Node000002_Node000012"><a xlink:title=" ">
<path fill="none" stroke="#63b8ff" d="M773.29,-344.97C766.42,-336.06 758.39,-325.62 752.8,-318.36"/>
<polygon fill="#63b8ff" stroke="#63b8ff" points="770.31,-346.84 779.19,-352.63 775.86,-342.57 770.31,-346.84"/>
</a>
</g>
</g>
<!-- Node13 -->
<g id="Node000013" class="node">
<title>Node13</title>
<g id="a_Node000013"><a xlink:href="_blood_vessel_junction_8h.html" target="_top" xlink:title="model::BloodVesselJunction source file">
<polygon fill="white" stroke="#666666" points="918,-262.75 773.75,-262.75 773.75,-243.5 918,-243.5 918,-262.75"/>
<text text-anchor="middle" x="845.88" y="-249.25" font-family="Helvetica,sans-Serif" font-size="10.00">model/BloodVesselJunction.h</text>
</a>
</g>
</g>
<!-- Node2&#45;&gt;Node13 -->
<g id="edge19_Node000002_Node000013" class="edge">
<title>Node2&#45;&gt;Node13</title>
<g id="a_edge19_Node000002_Node000013"><a xlink:title=" ">
<path fill="none" stroke="#63b8ff" d="M797.06,-343.9C809.88,-320.33 831.38,-280.79 840.98,-263.13"/>
<polygon fill="#63b8ff" stroke="#63b8ff" points="794.13,-341.96 792.43,-352.42 800.28,-345.3 794.13,-341.96"/>
</a>
</g>
</g>
<!-- Node14 -->
<g id="Node000014" class="node">
<title>Node14</title>
<g id="a_Node000014"><a xlink:href="_closed_loop_coronary_b_c_8h.html" target="_top" xlink:title="model::ClosedLoopCoronaryBC source file">
<polygon fill="white" stroke="#666666" points="590,-262.75 433.75,-262.75 433.75,-243.5 590,-243.5 590,-262.75"/>
<text text-anchor="middle" x="511.88" y="-249.25" font-family="Helvetica,sans-Serif" font-size="10.00">model/ClosedLoopCoronaryBC.h</text>
</a>
</g>
</g>
<!-- Node2&#45;&gt;Node14 -->
<g id="edge20_Node000002_Node000014" class="edge">
<title>Node2&#45;&gt;Node14</title>
<g id="a_edge20_Node000002_Node000014"><a xlink:title=" ">
<path fill="none" stroke="#63b8ff" d="M751.26,-349.75C727.32,-341 695.11,-329.06 666.88,-318 618.91,-299.2 563.18,-275.86 533.35,-263.25"/>
<polygon fill="#63b8ff" stroke="#63b8ff" points="749.95,-352.99 760.54,-353.13 752.34,-346.42 749.95,-352.99"/>
</a>
</g>
</g>
<!-- Node17 -->
<g id="Node000017" class="node">
<title>Node17</title>
<g id="a_Node000017"><a xlink:href="_closed_loop_heart_pulmonary_8h.html" target="_top" xlink:title="model::ClosedLoopHeartPulmonary source file">
<polygon fill="white" stroke="#666666" points="598,-318 423.75,-318 423.75,-298.75 598,-298.75 598,-318"/>
<text text-anchor="middle" x="510.88" y="-304.5" font-family="Helvetica,sans-Serif" font-size="10.00">model/ClosedLoopHeartPulmonary.h</text>
</a>
</g>
</g>
<!-- Node2&#45;&gt;Node17 -->
<g id="edge25_Node000002_Node000017" class="edge">
<title>Node2&#45;&gt;Node17</title>
<g id="a_edge25_Node000002_Node000017"><a xlink:title=" ">
<path fill="none" stroke="#63b8ff" d="M736.87,-352.98C685.99,-343.16 607.74,-328.06 557.95,-318.46"/>
<polygon fill="#63b8ff" stroke="#63b8ff" points="735.95,-356.36 746.43,-354.82 737.28,-349.49 735.95,-356.36"/>
</a>
</g>
</g>
<!-- Node18 -->
<g id="Node000018" class="node">
<title>Node18</title>
<g id="a_Node000018"><a xlink:href="_closed_loop_r_c_r_b_c_8h.html" target="_top" xlink:title="model::ClosedLoopRCRBC source file">
<polygon fill="white" stroke="#666666" points="302,-201.88 163.75,-201.88 163.75,-182.62 302,-182.62 302,-201.88"/>
<text text-anchor="middle" x="232.88" y="-188.38" font-family="Helvetica,sans-Serif" font-size="10.00">model/ClosedLoopRCRBC.h</text>
</a>
</g>
</g>
<!-- Node2&#45;&gt;Node18 -->
<g id="edge28_Node000002_Node000018" class="edge">
<title>Node2&#45;&gt;Node18</title>
<g id="a_edge28_Node000002_Node000018"><a xlink:title=" ">
<path fill="none" stroke="#63b8ff" d="M736.67,-362.06C609.18,-360.14 280.54,-351.92 245.88,-318 213.82,-286.62 224.94,-224.97 230.5,-202.08"/>
<polygon fill="#63b8ff" stroke="#63b8ff" points="736.45,-365.56 746.5,-362.2 736.55,-358.56 736.45,-365.56"/>
</a>
</g>
</g>
<!-- Node2&#45;&gt;Node19 -->
<g id="edge30_Node000002_Node000019" class="edge">
<title>Node2&#45;&gt;Node19</title>
<g id="a_edge30_Node000002_Node000019"><a xlink:title=" ">
<path fill="none" stroke="#63b8ff" d="M833.65,-350.82C872.35,-341.05 926.53,-327.38 961.91,-318.45"/>
<polygon fill="#63b8ff" stroke="#63b8ff" points="832.98,-347.38 824.14,-353.22 834.69,-354.17 832.98,-347.38"/>
</a>
</g>
</g>
<!-- Node20 -->
<g id="Node000020" class="node">
<title>Node20</title>
<g id="a_Node000020"><a xlink:href="_junction_8h.html" target="_top" xlink:title="model::Junction source file">
<polygon fill="white" stroke="#666666" points="377.63,-262.75 288.13,-262.75 288.13,-243.5 377.63,-243.5 377.63,-262.75"/>
<text text-anchor="middle" x="332.88" y="-249.25" font-family="Helvetica,sans-Serif" font-size="10.00">model/Junction.h</text>
</a>
</g>
</g>
<!-- Node2&#45;&gt;Node20 -->
<g id="edge32_Node000002_Node000020" class="edge">
<title>Node2&#45;&gt;Node20</title>
<g id="a_edge32_Node000002_Node000020"><a xlink:title=" ">
<path fill="none" stroke="#63b8ff" d="M736.47,-359.93C648.75,-354.68 471.94,-341.49 414.88,-318 383.84,-305.22 354.62,-277.29 340.96,-262.97"/>
<polygon fill="#63b8ff" stroke="#63b8ff" points="736.03,-363.41 746.22,-360.5 736.44,-356.42 736.03,-363.41"/>
</a>
</g>
</g>
<!-- Node2&#45;&gt;Node21 -->
<g id="edge35_Node000002_Node000021" class="edge">
<title>Node2&#45;&gt;Node21</title>
<g id="a_edge35_Node000002_Node000021"><a xlink:title=" ">
<path fill="none" stroke="#63b8ff" d="M837.15,-355.39C903.76,-345.8 1021.24,-328.9 1093.75,-318.46"/>
<polygon fill="#63b8ff" stroke="#63b8ff" points="837.02,-351.87 827.62,-356.76 838.02,-358.8 837.02,-351.87"/>
</a>
</g>
</g>
<!-- Node2&#45;&gt;Node22 -->
<g id="edge37_Node000002_Node000022" class="edge">
<title>Node2&#45;&gt;Node22</title>
<g id="a_edge37_Node000002_Node000022"><a xlink:title=" ">
<path fill="none" stroke="#63b8ff" d="M837.27,-357.74C921.06,-349.61 1094.31,-332.73 1240.88,-318 1243.8,-317.71 1246.77,-317.41 1249.77,-317.1"/>
<polygon fill="#63b8ff" stroke="#63b8ff" points="837.18,-354.24 827.56,-358.69 837.85,-361.2 837.18,-354.24"/>
</a>
</g>
</g>
<!-- Node2&#45;&gt;Node23 -->
<g id="edge39_Node000002_Node000023" class="edge">
<title>Node2&#45;&gt;Node23</title>
<g id="a_edge39_Node000002_Node000023"><a xlink:title=" ">
<path fill="none" stroke="#63b8ff" d="M837.16,-360.01C943.07,-354.3 1196.82,-339.44 1408.88,-318 1411.52,-317.73 1414.23,-317.44 1416.95,-317.14"/>
<polygon fill="#63b8ff" stroke="#63b8ff" points="837.19,-356.51 827.4,-360.54 837.57,-363.5 837.19,-356.51"/>
</a>
</g>
</g>
<!-- Node24 -->
<g id="Node000024" class="node">
<title>Node24</title>
<g id="a_Node000024"><a xlink:href="_resistive_junction_8h.html" target="_top" xlink:title="model::ResistiveJunction source file">
<polygon fill="white" stroke="#666666" points="1065.88,-262.75 935.88,-262.75 935.88,-243.5 1065.88,-243.5 1065.88,-262.75"/>
<text text-anchor="middle" x="1000.88" y="-249.25" font-family="Helvetica,sans-Serif" font-size="10.00">model/ResistiveJunction.h</text>
</a>
</g>
</g>
<!-- Node2&#45;&gt;Node24 -->
<g id="edge41_Node000002_Node000024" class="edge">
<title>Node2&#45;&gt;Node24</title>
<g id="a_edge41_Node000002_Node000024"><a xlink:title=" ">
<path fill="none" stroke="#63b8ff" d="M809.14,-347.25C829.57,-333.52 860.97,-313.39 889.88,-298.75 918.04,-284.49 951.9,-271.43 974.75,-263.18"/>
<polygon fill="#63b8ff" stroke="#63b8ff" points="807.35,-344.24 801.04,-352.75 811.28,-350.03 807.35,-344.24"/>
</a>
</g>
</g>
<!-- Node25 -->
<g id="Node000025" class="node">
<title>Node25</title>
<g id="a_Node000025"><a xlink:href="_valve_tanh_8h.html" target="_top" xlink:title="model::ValveTanh source file">
<polygon fill="white" stroke="#666666" points="1080.5,-201.88 981.25,-201.88 981.25,-182.62 1080.5,-182.62 1080.5,-201.88"/>
<text text-anchor="middle" x="1030.88" y="-188.38" font-family="Helvetica,sans-Serif" font-size="10.00">model/ValveTanh.h</text>
</a>
</g>
</g>
<!-- Node2&#45;&gt;Node25 -->
<g id="edge43_Node000002_Node000025" class="edge">
<title>Node2&#45;&gt;Node25</title>
<g id="a_edge43_Node000002_Node000025"><a xlink:title=" ">
<path fill="none" stroke="#63b8ff" d="M818.46,-349.22C838.28,-340.64 864.26,-329.08 886.88,-318 903.17,-310.02 905.91,-305.17 922.88,-298.75 987.81,-274.18 1031.82,-317.2 1074.88,-262.75 1091,-242.36 1061.96,-215.84 1043.82,-202.2"/>
<polygon fill="#63b8ff" stroke="#63b8ff" points="817.34,-345.89 809.54,-353.06 820.11,-352.32 817.34,-345.89"/>
</a>
</g>
</g>
<!-- Node26 -->
<g id="Node000026" class="node">
<title>Node26</title>
<g id="a_Node000026"><a xlink:href="_windkessel_b_c_8h.html" target="_top" xlink:title="model::WindkesselBC source file">
<polygon fill="white" stroke="#666666" points="146.13,-201.88 29.63,-201.88 29.63,-182.62 146.13,-182.62 146.13,-201.88"/>
<text text-anchor="middle" x="87.88" y="-188.38" font-family="Helvetica,sans-Serif" font-size="10.00">model/WindkesselBC.h</text>
</a>
</g>
</g>
<!-- Node2&#45;&gt;Node26 -->
<g id="edge45_Node000002_Node000026" class="edge">
<title>Node2&#45;&gt;Node26</title>
<g id="a_edge45_Node000002_Node000026"><a xlink:title=" ">
<path fill="none" stroke="#63b8ff" d="M736.59,-362.67C616.98,-362.14 318.75,-356.82 227.88,-318 165.91,-291.52 112.62,-226.3 94.49,-202.3"/>
<polygon fill="#63b8ff" stroke="#63b8ff" points="736.4,-366.17 746.42,-362.7 736.43,-359.17 736.4,-366.17"/>
</a>
</g>
</g>
<!-- Node3&#45;&gt;Node4 -->
<g id="edge3_Node000003_Node000004" class="edge">
<title>Node3&#45;&gt;Node4</title>
<g id="a_edge3_Node000003_Node000004"><a xlink:title=" ">
<path fill="none" stroke="#63b8ff" d="M695.24,-237.83C708.39,-230.51 722.63,-220.4 731.88,-207.5 746.62,-186.95 749.96,-156.07 750.69,-141.11"/>
<polygon fill="#63b8ff" stroke="#63b8ff" points="693.67,-234.7 686.39,-242.4 696.88,-240.92 693.67,-234.7"/>
</a>
</g>
</g>
<!-- Node5 -->
<g id="Node000005" class="node">
<title>Node5</title>
<g id="a_Node000005"><a xlink:href="_integrator_8h.html" target="_top" xlink:title="Integrator source file.">
<polygon fill="white" stroke="#666666" points="659.5,-80.12 560.25,-80.12 560.25,-60.88 659.5,-60.88 659.5,-80.12"/>
<text text-anchor="middle" x="609.88" y="-66.62" font-family="Helvetica,sans-Serif" font-size="10.00">algebra/Integrator.h</text>
</a>
</g>
</g>
<!-- Node4&#45;&gt;Node5 -->
<g id="edge4_Node000004_Node000005" class="edge">
<title>Node4&#45;&gt;Node5</title>
<g id="a_edge4_Node000004_Node000005"><a xlink:title=" ">
<path fill="none" stroke="#63b8ff" d="M718.77,-116.97C692.02,-105.8 654.67,-90.2 631.39,-80.48"/>
<polygon fill="#63b8ff" stroke="#63b8ff" points="717.18,-120.1 727.76,-120.72 719.88,-113.64 717.18,-120.1"/>
</a>
</g>
</g>
<!-- Node6 -->
<g id="Node000006" class="node">
<title>Node6</title>
<g id="a_Node000006"><a xlink:href="interface_8h.html" target="_top" xlink:title="svZeroDSolver callable interface.">
<polygon fill="white" stroke="#666666" points="582.63,-19.25 481.13,-19.25 481.13,0 582.63,0 582.63,-19.25"/>
<text text-anchor="middle" x="531.88" y="-5.75" font-family="Helvetica,sans-Serif" font-size="10.00">interface/interface.h</text>
</a>
</g>
</g>
<!-- Node4&#45;&gt;Node6 -->
<g id="edge7_Node000004_Node000006" class="edge">
<title>Node4&#45;&gt;Node6</title>
<g id="a_edge7_Node000004_Node000006"><a xlink:title=" ">
<path fill="none" stroke="#63b8ff" d="M699.7,-125.06C647.64,-118.62 571.75,-106.04 550.88,-85.75 532.65,-68.03 530.98,-35.52 531.36,-19.73"/>
<polygon fill="#63b8ff" stroke="#63b8ff" points="699.22,-128.53 709.57,-126.24 700.05,-121.58 699.22,-128.53"/>
</a>
</g>
</g>
<!-- Node7 -->
<g id="Node000007" class="node">
<title>Node7</title>
<g id="a_Node000007"><a xlink:href="_solver_8h.html" target="_top" xlink:title="Solver source file.">
<polygon fill="white" stroke="#666666" points="789.63,-19.25 712.13,-19.25 712.13,0 789.63,0 789.63,-19.25"/>
<text text-anchor="middle" x="750.88" y="-5.75" font-family="Helvetica,sans-Serif" font-size="10.00">solve/Solver.h</text>
</a>
</g>
</g>
<!-- Node4&#45;&gt;Node7 -->
<g id="edge12_Node000004_Node000007" class="edge">
<title>Node4&#45;&gt;Node7</title>
<g id="a_edge12_Node000004_Node000007"><a xlink:title=" ">
<path fill="none" stroke="#63b8ff" d="M794.95,-116.83C809.64,-109.97 824.42,-99.99 832.88,-85.75 839.8,-74.1 839.8,-66.9 832.88,-55.25 822.36,-37.56 802.1,-26.43 784.35,-19.72"/>
<polygon fill="#63b8ff" stroke="#63b8ff" points="793.61,-113.59 785.74,-120.69 796.32,-120.05 793.61,-113.59"/>
</a>
</g>
</g>
<!-- Node8 -->
<g id="Node000008" class="node">
<title>Node8</title>
<g id="a_Node000008"><a xlink:href="_levenberg_marquardt_optimizer_8h.html" target="_top" xlink:title="opt::LevenbergMarquardtOptimizer source file">
<polygon fill="white" stroke="#666666" points="1024,-85.75 879.75,-85.75 879.75,-55.25 1024,-55.25 1024,-85.75"/>
<text text-anchor="start" x="887.75" y="-72.25" font-family="Helvetica,sans-Serif" font-size="10.00">optimize/LevenbergMarquardt</text>
<text text-anchor="middle" x="951.88" y="-61" font-family="Helvetica,sans-Serif" font-size="10.00">Optimizer.h</text>
</a>
</g>
</g>
<!-- Node4&#45;&gt;Node8 -->
<g id="edge8_Node000004_Node000008" class="edge">
<title>Node4&#45;&gt;Node8</title>
<g id="a_edge8_Node000004_Node000008"><a xlink:title=" ">
<path fill="none" stroke="#63b8ff" d="M792.53,-118.18C824.25,-108.88 868.06,-96.05 901.71,-86.19"/>
<polygon fill="#63b8ff" stroke="#63b8ff" points="791.91,-114.71 783.3,-120.88 793.88,-121.43 791.91,-114.71"/>
</a>
</g>
</g>
<!-- Node9 -->
<g id="Node000009" class="node">
<title>Node9</title>
<g id="a_Node000009"><a xlink:href="calibrate_8h.html" target="_top" xlink:title="opt::calibrate source file">
<polygon fill="white" stroke="#666666" points="1141.5,-80.12 1042.25,-80.12 1042.25,-60.88 1141.5,-60.88 1141.5,-80.12"/>
<text text-anchor="middle" x="1091.88" y="-66.62" font-family="Helvetica,sans-Serif" font-size="10.00">optimize/calibrate.h</text>
</a>
</g>
</g>
<!-- Node4&#45;&gt;Node9 -->
<g id="edge9_Node000004_Node000009" class="edge">
<title>Node4&#45;&gt;Node9</title>
<g id="a_edge9_Node000004_Node000009"><a xlink:title=" ">
<path fill="none" stroke="#63b8ff" d="M801.91,-123.55C858.57,-115.69 952.61,-101.77 1032.88,-85.75 1040.53,-84.22 1048.68,-82.39 1056.41,-80.55"/>
<polygon fill="#63b8ff" stroke="#63b8ff" points="801.68,-120.05 792.25,-124.88 802.64,-126.99 801.68,-120.05"/>
</a>
</g>
</g>
<!-- Node10 -->
<g id="Node000010" class="node">
<title>Node10</title>
<g id="a_Node000010"><a xlink:href="_simulation_parameters_8h.html" target="_top" xlink:title="Source file to read simulation configuration.">
<polygon fill="white" stroke="#666666" points="823.75,-80.12 678,-80.12 678,-60.88 823.75,-60.88 823.75,-80.12"/>
<text text-anchor="middle" x="750.88" y="-66.62" font-family="Helvetica,sans-Serif" font-size="10.00">solve/SimulationParameters.h</text>
</a>
</g>
</g>
<!-- Node4&#45;&gt;Node10 -->
<g id="edge10_Node000004_Node000010" class="edge">
<title>Node4&#45;&gt;Node10</title>
<g id="a_edge10_Node000004_Node000010"><a xlink:title=" ">
<path fill="none" stroke="#63b8ff" d="M750.88,-109.95C750.88,-99.92 750.88,-88.33 750.88,-80.53"/>
<polygon fill="#63b8ff" stroke="#63b8ff" points="747.38,-109.92 750.88,-119.92 754.38,-109.92 747.38,-109.92"/>
</a>
</g>
</g>
<!-- Node11 -->
<g id="Node000011" class="node">
<title>Node11</title>
<g id="a_Node000011"><a xlink:href="csv__writer_8h.html" target="_top" xlink:title="csv_writer source file">
<polygon fill="white" stroke="#666666" points="504.25,-80.12 409.5,-80.12 409.5,-60.88 504.25,-60.88 504.25,-80.12"/>
<text text-anchor="middle" x="456.88" y="-66.62" font-family="Helvetica,sans-Serif" font-size="10.00">solve/csv_writer.h</text>
</a>
</g>
</g>
<!-- Node4&#45;&gt;Node11 -->
<g id="edge13_Node000004_Node000011" class="edge">
<title>Node4&#45;&gt;Node11</title>
<g id="a_edge13_Node000004_Node000011"><a xlink:title=" ">
<path fill="none" stroke="#63b8ff" d="M700.04,-121.25C652.76,-112.61 580.41,-99.04 517.88,-85.75 510.33,-84.15 502.27,-82.33 494.57,-80.56"/>
<polygon fill="#63b8ff" stroke="#63b8ff" points="699.25,-124.66 709.71,-123.01 700.5,-117.77 699.25,-124.66"/>
</a>
</g>
</g>
<!-- Node5&#45;&gt;Node6 -->
<g id="edge5_Node000005_Node000006" class="edge">
<title>Node5&#45;&gt;Node6</title>
<g id="a_edge5_Node000005_Node000006"><a xlink:title=" ">
<path fill="none" stroke="#63b8ff" d="M588.85,-53.63C574.42,-42.73 555.79,-28.67 543.84,-19.65"/>
<polygon fill="#63b8ff" stroke="#63b8ff" points="586.73,-56.42 596.82,-59.65 590.95,-50.83 586.73,-56.42"/>
</a>
</g>
</g>
<!-- Node5&#45;&gt;Node7 -->
<g id="edge6_Node000005_Node000007" class="edge">
<title>Node5&#45;&gt;Node7</title>
<g id="a_edge6_Node000005_Node000007"><a xlink:title=" ">
<path fill="none" stroke="#63b8ff" d="M641.99,-56.09C668.74,-44.92 706.09,-29.33 729.36,-19.61"/>
<polygon fill="#63b8ff" stroke="#63b8ff" points="640.88,-52.76 633,-59.85 643.57,-59.22 640.88,-52.76"/>
</a>
</g>
</g>
<!-- Node10&#45;&gt;Node7 -->
<g id="edge11_Node000010_Node000007" class="edge">
<title>Node10&#45;&gt;Node7</title>
<g id="a_edge11_Node000010_Node000007"><a xlink:title=" ">
<path fill="none" stroke="#63b8ff" d="M750.88,-49.07C750.88,-39.04 750.88,-27.46 750.88,-19.65"/>
<polygon fill="#63b8ff" stroke="#63b8ff" points="747.38,-49.04 750.88,-59.04 754.38,-49.04 747.38,-49.04"/>
</a>
</g>
</g>
<!-- Node11&#45;&gt;Node6 -->
<g id="edge14_Node000011_Node000006" class="edge">
<title>Node11&#45;&gt;Node6</title>
<g id="a_edge14_Node000011_Node000006"><a xlink:title=" ">
<path fill="none" stroke="#63b8ff" d="M477.1,-53.63C490.98,-42.73 508.89,-28.67 520.38,-19.65"/>
<polygon fill="#63b8ff" stroke="#63b8ff" points="475.17,-50.7 469.46,-59.62 479.49,-56.2 475.17,-50.7"/>
</a>
</g>
</g>
<!-- Node12&#45;&gt;Node4 -->
<g id="edge18_Node000012_Node000004" class="edge">
<title>Node12&#45;&gt;Node4</title>
<g id="a_edge18_Node000012_Node000004"><a xlink:title=" ">
<path fill="none" stroke="#63b8ff" d="M747.47,-286.86C748.95,-266.68 751.05,-234.99 751.88,-207.5 752.29,-193.95 752.03,-190.55 751.88,-177 751.74,-164.6 751.38,-150.27 751.14,-141.26"/>
<polygon fill="#63b8ff" stroke="#63b8ff" points="743.99,-286.55 746.72,-296.79 750.97,-287.08 743.99,-286.55"/>
</a>
</g>
</g>
<!-- Node12&#45;&gt;Node13 -->
<g id="edge16_Node000012_Node000013" class="edge">
<title>Node12&#45;&gt;Node13</title>
<g id="a_edge16_Node000012_Node000013"><a xlink:title=" ">
<path fill="none" stroke="#63b8ff" d="M772.92,-292.98C790.73,-283.49 813.51,-271.36 828.83,-263.2"/>
<polygon fill="#63b8ff" stroke="#63b8ff" points="771.36,-289.84 764.18,-297.63 774.65,-296.02 771.36,-289.84"/>
</a>
</g>
</g>
<!-- Node13&#45;&gt;Node4 -->
<g id="edge17_Node000013_Node000004" class="edge">
<title>Node13&#45;&gt;Node4</title>
<g id="a_edge17_Node000013_Node000004"><a xlink:title=" ">
<path fill="none" stroke="#63b8ff" d="M837.2,-232.98C829.48,-217.08 817.21,-194.34 802.88,-177 791.21,-162.88 774.76,-149.6 763.51,-141.26"/>
<polygon fill="#63b8ff" stroke="#63b8ff" points="833.93,-234.24 841.34,-241.81 840.26,-231.27 833.93,-234.24"/>
</a>
</g>
</g>
<!-- Node15 -->
<g id="Node000015" class="node">
<title>Node15</title>
<g id="a_Node000015"><a xlink:href="_closed_loop_coronary_left_b_c_8h.html" target="_top" xlink:title="Left side of ClosedLoopCoronaryBC.">
<polygon fill="white" stroke="#666666" points="569.5,-207.5 434.25,-207.5 434.25,-177 569.5,-177 569.5,-207.5"/>
<text text-anchor="start" x="442.25" y="-194" font-family="Helvetica,sans-Serif" font-size="10.00">model/ClosedLoopCoronary</text>
<text text-anchor="middle" x="501.88" y="-182.75" font-family="Helvetica,sans-Serif" font-size="10.00">LeftBC.h</text>
</a>
</g>
</g>
<!-- Node14&#45;&gt;Node15 -->
<g id="edge21_Node000014_Node000015" class="edge">
<title>Node14&#45;&gt;Node15</title>
<g id="a_edge21_Node000014_Node000015"><a xlink:title=" ">
<path fill="none" stroke="#63b8ff" d="M508.45,-231.92C507.1,-223.99 505.58,-215.06 504.35,-207.78"/>
<polygon fill="#63b8ff" stroke="#63b8ff" points="504.98,-232.42 510.11,-241.69 511.88,-231.25 504.98,-232.42"/>
</a>
</g>
</g>
<!-- Node16 -->
<g id="Node000016" class="node">
<title>Node16</title>
<g id="a_Node000016"><a xlink:href="_closed_loop_coronary_right_b_c_8h.html" target="_top" xlink:title="Right side of ClosedLoopCoronaryBC.">
<polygon fill="white" stroke="#666666" points="722.5,-207.5 587.25,-207.5 587.25,-177 722.5,-177 722.5,-207.5"/>
<text text-anchor="start" x="595.25" y="-194" font-family="Helvetica,sans-Serif" font-size="10.00">model/ClosedLoopCoronary</text>
<text text-anchor="middle" x="654.88" y="-182.75" font-family="Helvetica,sans-Serif" font-size="10.00">RightBC.h</text>
</a>
</g>
</g>
<!-- Node14&#45;&gt;Node16 -->
<g id="edge23_Node000014_Node000016" class="edge">
<title>Node14&#45;&gt;Node16</title>
<g id="a_edge23_Node000014_Node000016"><a xlink:title=" ">
<path fill="none" stroke="#63b8ff" d="M544.51,-238.69C566.79,-229.52 596.29,-217.37 619.19,-207.94"/>
<polygon fill="#63b8ff" stroke="#63b8ff" points="543.22,-235.44 535.31,-242.48 545.89,-241.91 543.22,-235.44"/>
</a>
</g>
</g>
<!-- Node15&#45;&gt;Node4 -->
<g id="edge22_Node000015_Node000004" class="edge">
<title>Node15&#45;&gt;Node4</title>
<g id="a_edge22_Node000015_Node000004"><a xlink:title=" ">
<path fill="none" stroke="#63b8ff" d="M575.24,-173.9C620.17,-163.28 675.86,-150.11 712.33,-141.49"/>
<polygon fill="#63b8ff" stroke="#63b8ff" points="574.47,-170.49 565.54,-176.2 576.08,-177.3 574.47,-170.49"/>
</a>
</g>
</g>
<!-- Node16&#45;&gt;Node4 -->
<g id="edge24_Node000016_Node000004" class="edge">
<title>Node16&#45;&gt;Node4</title>
<g id="a_edge24_Node000016_Node000004"><a xlink:title=" ">
<path fill="none" stroke="#63b8ff" d="M688.36,-170.72C704.64,-160.73 723.39,-149.23 736.08,-141.45"/>
<polygon fill="#63b8ff" stroke="#63b8ff" points="686.59,-167.69 679.9,-175.91 690.25,-173.66 686.59,-167.69"/>
</a>
</g>
</g>
<!-- Node17&#45;&gt;Node4 -->
<g id="edge27_Node000017_Node000004" class="edge">
<title>Node17&#45;&gt;Node4</title>
<g id="a_edge27_Node000017_Node000004"><a xlink:title=" ">
<path fill="none" stroke="#63b8ff" d="M464.43,-294.19C449.12,-287.39 433.75,-277.35 424.88,-262.75 405.09,-230.18 399.82,-205.72 424.88,-177 461.59,-134.92 632.35,-131.09 711.01,-131.62"/>
<polygon fill="#63b8ff" stroke="#63b8ff" points="462.96,-297.37 473.54,-297.83 465.56,-290.87 462.96,-297.37"/>
</a>
</g>
</g>
<!-- Node17&#45;&gt;Node14 -->
<g id="edge26_Node000017_Node000014" class="edge">
<title>Node17&#45;&gt;Node14</title>
<g id="a_edge26_Node000017_Node000014"><a xlink:title=" ">
<path fill="none" stroke="#63b8ff" d="M511.26,-287.13C511.42,-278.84 511.59,-269.67 511.71,-263.11"/>
<polygon fill="#63b8ff" stroke="#63b8ff" points="507.76,-287 511.07,-297.07 514.76,-287.14 507.76,-287"/>
</a>
</g>
</g>
<!-- Node18&#45;&gt;Node4 -->
<g id="edge29_Node000018_Node000004" class="edge">
<title>Node18&#45;&gt;Node4</title>
<g id="a_edge29_Node000018_Node000004"><a xlink:title=" ">
<path fill="none" stroke="#63b8ff" d="M293.64,-180.33C301.12,-179.13 308.66,-177.99 315.88,-177 460.86,-157.14 634.12,-141.89 710.89,-135.56"/>
<polygon fill="#63b8ff" stroke="#63b8ff" points="293.18,-176.86 283.88,-181.94 294.32,-183.77 293.18,-176.86"/>
</a>
</g>
</g>
<!-- Node19&#45;&gt;Node4 -->
<g id="edge31_Node000019_Node000004" class="edge">
<title>Node19&#45;&gt;Node4</title>
<g id="a_edge31_Node000019_Node000004"><a xlink:title=" ">
<path fill="none" stroke="#63b8ff" d="M1049.53,-294.43C1065.57,-287.71 1081.49,-277.67 1090.88,-262.75 1101.04,-246.6 1123.53,-214.79 1089.88,-177 1070.22,-154.92 875.8,-140.18 790.57,-134.73"/>
<polygon fill="#63b8ff" stroke="#63b8ff" points="1048.58,-291.04 1040.46,-297.84 1051.05,-297.59 1048.58,-291.04"/>
</a>
</g>
</g>
<!-- Node20&#45;&gt;Node4 -->
<g id="edge33_Node000020_Node000004" class="edge">
<title>Node20&#45;&gt;Node4</title>
<g id="a_edge33_Node000020_Node000004"><a xlink:title=" ">
<path fill="none" stroke="#63b8ff" d="M342.28,-233C352.06,-215.3 369.15,-189.84 391.88,-177 445.74,-146.56 629.3,-136.55 711.05,-133.54"/>
<polygon fill="#63b8ff" stroke="#63b8ff" points="339.25,-231.24 337.72,-241.73 345.45,-234.48 339.25,-231.24"/>
</a>
</g>
</g>
<!-- Node21&#45;&gt;Node4 -->
<g id="edge36_Node000021_Node000004" class="edge">
<title>Node21&#45;&gt;Node4</title>
<g id="a_edge36_Node000021_Node000004"><a xlink:title=" ">
<path fill="none" stroke="#63b8ff" d="M1156.2,-287.05C1154.04,-257.75 1145.43,-204.17 1111.88,-177 1063.29,-137.65 873.91,-132.48 790.59,-132.15"/>
<polygon fill="#63b8ff" stroke="#63b8ff" points="1152.7,-286.99 1156.72,-296.79 1159.69,-286.62 1152.7,-286.99"/>
</a>
</g>
</g>
<!-- Node22&#45;&gt;Node4 -->
<g id="edge38_Node000022_Node000004" class="edge">
<title>Node22&#45;&gt;Node4</title>
<g id="a_edge38_Node000022_Node000004"><a xlink:title=" ">
<path fill="none" stroke="#63b8ff" d="M1307.58,-290.85C1276.34,-262.12 1207.23,-203.54 1136.88,-177 1074.15,-153.34 876.16,-139.52 790.75,-134.52"/>
<polygon fill="#63b8ff" stroke="#63b8ff" points="1304.88,-293.12 1314.58,-297.39 1309.66,-288 1304.88,-293.12"/>
</a>
</g>
</g>
<!-- Node23&#45;&gt;Node4 -->
<g id="edge40_Node000023_Node000004" class="edge">
<title>Node23&#45;&gt;Node4</title>
<g id="a_edge40_Node000023_Node000004"><a xlink:title=" ">
<path fill="none" stroke="#63b8ff" d="M1449.3,-292.76C1399.33,-264.97 1284.49,-204.82 1179.88,-177 1040.21,-139.86 867.3,-133.36 790.66,-132.41"/>
<polygon fill="#63b8ff" stroke="#63b8ff" points="1447.46,-295.74 1457.9,-297.58 1450.89,-289.64 1447.46,-295.74"/>
</a>
</g>
</g>
<!-- Node24&#45;&gt;Node4 -->
<g id="edge42_Node000024_Node000004" class="edge">
<title>Node24&#45;&gt;Node4</title>
<g id="a_edge42_Node000024_Node000004"><a xlink:title=" ">
<path fill="none" stroke="#63b8ff" d="M971.94,-238.26C920.23,-213.5 813.35,-162.3 769.89,-141.48"/>
<polygon fill="#63b8ff" stroke="#63b8ff" points="970.19,-241.31 980.72,-242.47 973.22,-234.99 970.19,-241.31"/>
</a>
</g>
</g>
<!-- Node25&#45;&gt;Node4 -->
<g id="edge44_Node000025_Node000004" class="edge">
<title>Node25&#45;&gt;Node4</title>
<g id="a_edge44_Node000025_Node000004"><a xlink:title=" ">
<path fill="none" stroke="#63b8ff" d="M976.54,-179.82C921.94,-168.34 839.1,-150.92 790.44,-140.69"/>
<polygon fill="#63b8ff" stroke="#63b8ff" points="975.76,-183.24 986.26,-181.87 977.2,-176.39 975.76,-183.24"/>
</a>
</g>
</g>
<!-- Node26&#45;&gt;Node4 -->
<g id="edge46_Node000026_Node000004" class="edge">
<title>Node26&#45;&gt;Node4</title>
<g id="a_edge46_Node000026_Node000004"><a xlink:title=" ">
<path fill="none" stroke="#63b8ff" d="M137.45,-179.93C143.31,-178.82 149.21,-177.81 154.88,-177 362.88,-147.23 614.74,-136.64 710.92,-133.51"/>
<polygon fill="#63b8ff" stroke="#63b8ff" points="136.95,-176.46 127.82,-181.85 138.31,-183.32 136.95,-176.46"/>
</a>
</g>
</g>
</g>
</svg>
