<?xml version="1.0" encoding="UTF-8" standalone="no"?>
<!DOCTYPE svg PUBLIC "-//W3C//DTD SVG 1.1//EN"
 "http://www.w3.org/Graphics/SVG/1.1/DTD/svg11.dtd">
<!-- Generated by graphviz version 9.0.0 (20230911.1827)
 -->
<!-- Title: model/Parameter.h Pages: 1 -->
<svg width="289pt" height="138pt"
 viewBox="0.00 0.00 288.62 137.75" xmlns="http://www.w3.org/2000/svg" xmlns:xlink="http://www.w3.org/1999/xlink">
<g id="graph0" class="graph" transform="scale(1 1) rotate(0) translate(4 133.75)">
<title>model/Parameter.h</title>
<!-- Node1 -->
<g id="Node000001" class="node">
<title>Node1</title>
<g id="a_Node000001"><a xlink:title="model::Parameter source file">
<polygon fill="#999999" stroke="#666666" points="163.5,-129.75 65.75,-129.75 65.75,-110.5 163.5,-110.5 163.5,-129.75"/>
<text text-anchor="middle" x="114.62" y="-116.25" font-family="Helvetica,sans-Serif" font-size="10.00">model/Parameter.h</text>
</a>
</g>
</g>
<!-- Node2 -->
<g id="Node000002" class="node">
<title>Node2</title>
<g id="a_Node000002"><a xlink:title=" ">
<polygon fill="#e0e0e0" stroke="#999999" points="45.25,-74.5 0,-74.5 0,-55.25 45.25,-55.25 45.25,-74.5"/>
<text text-anchor="middle" x="22.62" y="-61" font-family="Helvetica,sans-Serif" font-size="10.00">math.h</text>
</a>
</g>
</g>
<!-- Node1&#45;&gt;Node2 -->
<g id="edge1_Node000001_Node000002" class="edge">
<title>Node1&#45;&gt;Node2</title>
<g id="a_edge1_Node000001_Node000002"><a xlink:title=" ">
<path fill="none" stroke="#63b8ff" d="M99.02,-110.09C85.01,-101.98 64.19,-89.93 47.82,-80.46"/>
<polygon fill="#63b8ff" stroke="#63b8ff" points="50.03,-77.69 39.62,-75.71 46.52,-83.75 50.03,-77.69"/>
</a>
</g>
</g>
<!-- Node3 -->
<g id="Node000003" class="node">
<title>Node3</title>
<g id="a_Node000003"><a xlink:title=" ">
<polygon fill="#e0e0e0" stroke="#999999" points="113.88,-74.5 63.38,-74.5 63.38,-55.25 113.88,-55.25 113.88,-74.5"/>
<text text-anchor="middle" x="88.62" y="-61" font-family="Helvetica,sans-Serif" font-size="10.00">numeric</text>
</a>
</g>
</g>
<!-- Node1&#45;&gt;Node3 -->
<g id="edge2_Node000001_Node000003" class="edge">
<title>Node1&#45;&gt;Node3</title>
<g id="a_edge2_Node000001_Node000003"><a xlink:title=" ">
<path fill="none" stroke="#63b8ff" d="M110.33,-110.33C107,-103.51 102.26,-93.81 98.06,-85.2"/>
<polygon fill="#63b8ff" stroke="#63b8ff" points="101.21,-83.67 93.68,-76.22 94.92,-86.74 101.21,-83.67"/>
</a>
</g>
</g>
<!-- Node4 -->
<g id="Node000004" class="node">
<title>Node4</title>
<g id="a_Node000004"><a xlink:title=" ">
<polygon fill="#e0e0e0" stroke="#999999" points="168.12,-19.25 125.12,-19.25 125.12,0 168.12,0 168.12,-19.25"/>
<text text-anchor="middle" x="146.62" y="-5.75" font-family="Helvetica,sans-Serif" font-size="10.00">vector</text>
</a>
</g>
</g>
<!-- Node1&#45;&gt;Node4 -->
<g id="edge3_Node000001_Node000004" class="edge">
<title>Node1&#45;&gt;Node4</title>
<g id="a_edge3_Node000001_Node000004"><a xlink:title=" ">
<path fill="none" stroke="#63b8ff" d="M117.24,-110.25C122.35,-92.92 133.77,-54.23 140.77,-30.49"/>
<polygon fill="#63b8ff" stroke="#63b8ff" points="144.07,-31.66 143.54,-21.08 137.36,-29.68 144.07,-31.66"/>
</a>
</g>
</g>
<!-- Node5 -->
<g id="Node000005" class="node">
<title>Node5</title>
<g id="a_Node000005"><a xlink:href="_d_o_f_handler_8h.html" target="_top" xlink:title="model::DOFHandler source file">
<polygon fill="white" stroke="#666666" points="247.38,-74.5 169.88,-74.5 169.88,-55.25 247.38,-55.25 247.38,-74.5"/>
<text text-anchor="middle" x="208.62" y="-61" font-family="Helvetica,sans-Serif" font-size="10.00">DOFHandler.h</text>
</a>
</g>
</g>
<!-- Node1&#45;&gt;Node5 -->
<g id="edge4_Node000001_Node000005" class="edge">
<title>Node1&#45;&gt;Node5</title>
<g id="a_edge4_Node000001_Node000005"><a xlink:title=" ">
<path fill="none" stroke="#63b8ff" d="M130.57,-110.09C144.89,-101.98 166.16,-89.93 182.88,-80.46"/>
<polygon fill="#63b8ff" stroke="#63b8ff" points="184.31,-83.67 191.28,-75.7 180.86,-77.58 184.31,-83.67"/>
</a>
</g>
</g>
<!-- Node5&#45;&gt;Node4 -->
<g id="edge7_Node000005_Node000004" class="edge">
<title>Node5&#45;&gt;Node4</title>
<g id="a_edge7_Node000005_Node000004"><a xlink:title=" ">
<path fill="none" stroke="#63b8ff" d="M198.11,-54.84C189.24,-47.22 176.31,-36.12 165.64,-26.95"/>
<polygon fill="#63b8ff" stroke="#63b8ff" points="168,-24.37 158.14,-20.51 163.44,-29.68 168,-24.37"/>
</a>
</g>
</g>
<!-- Node6 -->
<g id="Node000006" class="node">
<title>Node6</title>
<g id="a_Node000006"><a xlink:title=" ">
<polygon fill="#e0e0e0" stroke="#999999" points="223,-19.25 188.25,-19.25 188.25,0 223,0 223,-19.25"/>
<text text-anchor="middle" x="205.62" y="-5.75" font-family="Helvetica,sans-Serif" font-size="10.00">map</text>
</a>
</g>
</g>
<!-- Node5&#45;&gt;Node6 -->
<g id="edge5_Node000005_Node000006" class="edge">
<title>Node5&#45;&gt;Node6</title>
<g id="a_edge5_Node000005_Node000006"><a xlink:title=" ">
<path fill="none" stroke="#63b8ff" d="M208.13,-55.08C207.76,-48.49 207.24,-39.21 206.76,-30.82"/>
<polygon fill="#63b8ff" stroke="#63b8ff" points="210.27,-30.91 206.22,-21.12 203.28,-31.3 210.27,-30.91"/>
</a>
</g>
</g>
<!-- Node7 -->
<g id="Node000007" class="node">
<title>Node7</title>
<g id="a_Node000007"><a xlink:title=" ">
<polygon fill="#e0e0e0" stroke="#999999" points="280.62,-19.25 240.62,-19.25 240.62,0 280.62,0 280.62,-19.25"/>
<text text-anchor="middle" x="260.62" y="-5.75" font-family="Helvetica,sans-Serif" font-size="10.00">string</text>
</a>
</g>
</g>
<!-- Node5&#45;&gt;Node7 -->
<g id="edge6_Node000005_Node000007" class="edge">
<title>Node5&#45;&gt;Node7</title>
<g id="a_edge6_Node000005_Node000007"><a xlink:title=" ">
<path fill="none" stroke="#63b8ff" d="M217.21,-55.08C224.47,-47.65 235.08,-36.79 243.99,-27.66"/>
<polygon fill="#63b8ff" stroke="#63b8ff" points="246.31,-30.29 250.79,-20.69 241.3,-25.4 246.31,-30.29"/>
</a>
</g>
</g>
</g>
</svg>
