<?xml version="1.0" encoding="UTF-8" standalone="no"?>
<!DOCTYPE svg PUBLIC "-//W3C//DTD SVG 1.1//EN"
 "http://www.w3.org/Graphics/SVG/1.1/DTD/svg11.dtd">
<!-- Generated by graphviz version 12.2.1 (20241206.2353)
 -->
<!-- Title: model/Parameter.h Pages: 1 -->
<svg width="1983pt" height="503pt"
 viewBox="0.00 0.00 1983.00 503.00" xmlns="http://www.w3.org/2000/svg" xmlns:xlink="http://www.w3.org/1999/xlink">
<g id="graph0" class="graph" transform="scale(1 1) rotate(0) translate(4 499)">
<title>model/Parameter.h</title>
<!-- Node1 -->
<g id="Node000001" class="node">
<title>Node1</title>
<g id="a_Node000001"><a xlink:title="model::Parameter source file">
<polygon fill="#999999" stroke="#666666" points="1535.88,-495 1438.12,-495 1438.12,-475.75 1535.88,-475.75 1535.88,-495"/>
<text text-anchor="middle" x="1487" y="-481.5" font-family="Helvetica,sans-Serif" font-size="10.00">model/Parameter.h</text>
</a>
</g>
</g>
<!-- Node2 -->
<g id="Node000002" class="node">
<title>Node2</title>
<g id="a_Node000002"><a xlink:href="_activation_function_8h.html" target="_top" xlink:title="Activation function classes for cardiac chamber models.">
<polygon fill="white" stroke="#666666" points="142.88,-439.75 9.12,-439.75 9.12,-420.5 142.88,-420.5 142.88,-439.75"/>
<text text-anchor="middle" x="76" y="-426.25" font-family="Helvetica,sans-Serif" font-size="10.00">model/ActivationFunction.h</text>
</a>
</g>
</g>
<!-- Node1&#45;&gt;Node2 -->
<g id="edge1_Node000001_Node000002" class="edge">
<title>Node1&#45;&gt;Node2</title>
<g id="a_edge1_Node000001_Node000002"><a xlink:title=" ">
<path fill="none" stroke="#63b8ff" d="M1426.61,-482.1C1197.55,-473.45 383.23,-442.72 143.11,-433.66"/>
<polygon fill="#63b8ff" stroke="#63b8ff" points="1426.38,-485.59 1436.51,-482.47 1426.65,-478.59 1426.38,-485.59"/>
</a>
</g>
</g>
<!-- Node3 -->
<g id="Node000003" class="node">
<title>Node3</title>
<g id="a_Node000003"><a xlink:href="_block_8h.html" target="_top" xlink:title="model::Block source file">
<polygon fill="white" stroke="#666666" points="894.75,-384.5 817.25,-384.5 817.25,-365.25 894.75,-365.25 894.75,-384.5"/>
<text text-anchor="middle" x="856" y="-371" font-family="Helvetica,sans-Serif" font-size="10.00">model/Block.h</text>
</a>
</g>
</g>
<!-- Node1&#45;&gt;Node3 -->
<g id="edge67_Node000001_Node000003" class="edge">
<title>Node1&#45;&gt;Node3</title>
<g id="a_edge67_Node000001_Node000003"><a xlink:title=" ">
<path fill="none" stroke="#63b8ff" d="M1426.6,-473.99C1298.28,-451.92 1001.52,-400.9 894.97,-382.58"/>
<polygon fill="#63b8ff" stroke="#63b8ff" points="1425.81,-477.4 1436.26,-475.65 1427,-470.51 1425.81,-477.4"/>
</a>
</g>
</g>
<!-- Node5 -->
<g id="Node000005" class="node">
<title>Node5</title>
<g id="a_Node000005"><a xlink:href="_model_8h.html" target="_top" xlink:title="model::Model source file">
<polygon fill="white" stroke="#666666" points="932.5,-141 853.5,-141 853.5,-121.75 932.5,-121.75 932.5,-141"/>
<text text-anchor="middle" x="893" y="-127.5" font-family="Helvetica,sans-Serif" font-size="10.00">model/Model.h</text>
</a>
</g>
</g>
<!-- Node1&#45;&gt;Node5 -->
<g id="edge69_Node000001_Node000005" class="edge">
<title>Node1&#45;&gt;Node5</title>
<g id="a_edge69_Node000001_Node000005"><a xlink:title=" ">
<path fill="none" stroke="#63b8ff" d="M1547.38,-483.52C1677.98,-480.02 1975,-462.55 1975,-375.88 1975,-375.88 1975,-375.88 1975,-257.75 1975,-150.67 1128,-134.93 932.79,-132.72"/>
<polygon fill="#63b8ff" stroke="#63b8ff" points="1547.45,-480.01 1537.54,-483.76 1547.62,-487.01 1547.45,-480.01"/>
</a>
</g>
</g>
<!-- Node24 -->
<g id="Node000024" class="node">
<title>Node24</title>
<g id="a_Node000024"><a xlink:href="_flow_reference_b_c_8h.html" target="_top" xlink:title="model::FlowReferenceBC source file">
<polygon fill="white" stroke="#666666" points="1439.75,-329.25 1308.25,-329.25 1308.25,-310 1439.75,-310 1439.75,-329.25"/>
<text text-anchor="middle" x="1374" y="-315.75" font-family="Helvetica,sans-Serif" font-size="10.00">model/FlowReferenceBC.h</text>
</a>
</g>
</g>
<!-- Node1&#45;&gt;Node24 -->
<g id="edge68_Node000001_Node000024" class="edge">
<title>Node1&#45;&gt;Node24</title>
<g id="a_edge68_Node000001_Node000024"><a xlink:title=" ">
<path fill="none" stroke="#63b8ff" d="M1473.41,-466.38C1467.38,-458.3 1460.25,-448.61 1454,-439.75 1425.43,-399.23 1392.94,-349.72 1379.88,-329.69"/>
<polygon fill="#63b8ff" stroke="#63b8ff" points="1470.59,-468.47 1479.4,-474.36 1476.19,-464.26 1470.59,-468.47"/>
</a>
</g>
</g>
<!-- Node26 -->
<g id="Node000026" class="node">
<title>Node26</title>
<g id="a_Node000026"><a xlink:href="_open_loop_coronary_b_c_8h.html" target="_top" xlink:title="model::OpenLoopCoronaryBC source file">
<polygon fill="white" stroke="#666666" points="1645.75,-329.25 1496.25,-329.25 1496.25,-310 1645.75,-310 1645.75,-329.25"/>
<text text-anchor="middle" x="1571" y="-315.75" font-family="Helvetica,sans-Serif" font-size="10.00">model/OpenLoopCoronaryBC.h</text>
</a>
</g>
</g>
<!-- Node1&#45;&gt;Node26 -->
<g id="edge70_Node000001_Node000026" class="edge">
<title>Node1&#45;&gt;Node26</title>
<g id="a_edge70_Node000001_Node000026"><a xlink:title=" ">
<path fill="none" stroke="#63b8ff" d="M1496.62,-465.62C1514.74,-430.3 1553.27,-355.18 1566.46,-329.47"/>
<polygon fill="#63b8ff" stroke="#63b8ff" points="1493.66,-463.73 1492.21,-474.22 1499.89,-466.92 1493.66,-463.73"/>
</a>
</g>
</g>
<!-- Node27 -->
<g id="Node000027" class="node">
<title>Node27</title>
<g id="a_Node000027"><a xlink:href="_open_loop_coronary_var_res_b_c_8h.html" target="_top" xlink:title="model::OpenLoopCoronaryVarResBC source file">
<polygon fill="white" stroke="#666666" points="1555.75,-274 1412.25,-274 1412.25,-243.5 1555.75,-243.5 1555.75,-274"/>
<text text-anchor="start" x="1420.25" y="-260.5" font-family="Helvetica,sans-Serif" font-size="10.00">model/OpenLoopCoronaryVar</text>
<text text-anchor="middle" x="1484" y="-249.25" font-family="Helvetica,sans-Serif" font-size="10.00">ResBC.h</text>
</a>
</g>
</g>
<!-- Node1&#45;&gt;Node27 -->
<g id="edge71_Node000001_Node000027" class="edge">
<title>Node1&#45;&gt;Node27</title>
<g id="a_edge71_Node000001_Node000027"><a xlink:title=" ">
<path fill="none" stroke="#63b8ff" d="M1486.73,-463.95C1486.13,-419.2 1484.72,-313.43 1484.2,-274.48"/>
<polygon fill="#63b8ff" stroke="#63b8ff" points="1483.23,-463.83 1486.86,-473.78 1490.22,-463.73 1483.23,-463.83"/>
</a>
</g>
</g>
<!-- Node29 -->
<g id="Node000029" class="node">
<title>Node29</title>
<g id="a_Node000029"><a xlink:href="_pressure_reference_b_c_8h.html" target="_top" xlink:title="model::PressureReferenceBC source file">
<polygon fill="white" stroke="#666666" points="1813.75,-329.25 1664.25,-329.25 1664.25,-310 1813.75,-310 1813.75,-329.25"/>
<text text-anchor="middle" x="1739" y="-315.75" font-family="Helvetica,sans-Serif" font-size="10.00">model/PressureReferenceBC.h</text>
</a>
</g>
</g>
<!-- Node1&#45;&gt;Node29 -->
<g id="edge72_Node000001_Node000029" class="edge">
<title>Node1&#45;&gt;Node29</title>
<g id="a_edge72_Node000001_Node000029"><a xlink:title=" ">
<path fill="none" stroke="#63b8ff" d="M1510.53,-469.09C1562.14,-435.55 1683.97,-356.38 1725.14,-329.63"/>
<polygon fill="#63b8ff" stroke="#63b8ff" points="1508.65,-466.13 1502.18,-474.51 1512.47,-472 1508.65,-466.13"/>
</a>
</g>
</g>
<!-- Node30 -->
<g id="Node000030" class="node">
<title>Node30</title>
<g id="a_Node000030"><a xlink:href="_resistance_b_c_8h.html" target="_top" xlink:title="model::ResistanceBC source file">
<polygon fill="white" stroke="#666666" points="1946.5,-329.25 1831.5,-329.25 1831.5,-310 1946.5,-310 1946.5,-329.25"/>
<text text-anchor="middle" x="1889" y="-315.75" font-family="Helvetica,sans-Serif" font-size="10.00">model/ResistanceBC.h</text>
</a>
</g>
</g>
<!-- Node1&#45;&gt;Node30 -->
<g id="edge73_Node000001_Node000030" class="edge">
<title>Node1&#45;&gt;Node30</title>
<g id="a_edge73_Node000001_Node000030"><a xlink:title=" ">
<path fill="none" stroke="#63b8ff" d="M1519.52,-471.13C1598.69,-438.88 1799.85,-356.94 1866.88,-329.63"/>
<polygon fill="#63b8ff" stroke="#63b8ff" points="1518.53,-467.75 1510.59,-474.77 1521.17,-474.24 1518.53,-467.75"/>
</a>
</g>
</g>
<!-- Node2&#45;&gt;Node3 -->
<g id="edge2_Node000002_Node000003" class="edge">
<title>Node2&#45;&gt;Node3</title>
<g id="a_edge2_Node000002_Node000003"><a xlink:title=" ">
<path fill="none" stroke="#63b8ff" d="M154.66,-423.75C319.34,-412.51 695.2,-386.85 817.07,-378.53"/>
<polygon fill="#63b8ff" stroke="#63b8ff" points="154.43,-420.26 144.69,-424.44 154.9,-427.25 154.43,-420.26"/>
</a>
</g>
</g>
<!-- Node9 -->
<g id="Node000009" class="node">
<title>Node9</title>
<g id="a_Node000009"><a xlink:href="_chamber_elastance_inductor_8h.html" target="_top" xlink:title="model::ChamberElastanceInductor source file">
<polygon fill="white" stroke="#666666" points="386.88,-80.12 217.12,-80.12 217.12,-60.88 386.88,-60.88 386.88,-80.12"/>
<text text-anchor="middle" x="302" y="-66.62" font-family="Helvetica,sans-Serif" font-size="10.00">model/ChamberElastanceInductor.h</text>
</a>
</g>
</g>
<!-- Node2&#45;&gt;Node9 -->
<g id="edge64_Node000002_Node000009" class="edge">
<title>Node2&#45;&gt;Node9</title>
<g id="a_edge64_Node000002_Node000009"><a xlink:title=" ">
<path fill="none" stroke="#63b8ff" d="M65.07,-410.34C53.84,-389.24 38,-353.62 38,-320.62 38,-320.62 38,-320.62 38,-191.25 38,-158.57 37.48,-143.36 62,-121.75 75.59,-109.77 177.25,-91.5 243.83,-80.6"/>
<polygon fill="#63b8ff" stroke="#63b8ff" points="61.9,-411.85 69.82,-418.89 68.02,-408.45 61.9,-411.85"/>
</a>
</g>
</g>
<!-- Node10 -->
<g id="Node000010" class="node">
<title>Node10</title>
<g id="a_Node000010"><a xlink:href="_linear_elastance_chamber_8h.html" target="_top" xlink:title="model::LinearElastanceChamber source file">
<polygon fill="white" stroke="#666666" points="566.75,-80.12 405.25,-80.12 405.25,-60.88 566.75,-60.88 566.75,-80.12"/>
<text text-anchor="middle" x="486" y="-66.62" font-family="Helvetica,sans-Serif" font-size="10.00">model/LinearElastanceChamber.h</text>
</a>
</g>
</g>
<!-- Node2&#45;&gt;Node10 -->
<g id="edge65_Node000002_Node000010" class="edge">
<title>Node2&#45;&gt;Node10</title>
<g id="a_edge65_Node000002_Node000010"><a xlink:title=" ">
<path fill="none" stroke="#63b8ff" d="M76,-408.76C76,-386.95 76,-351.34 76,-320.62 76,-320.62 76,-320.62 76,-191.25 76,-109.21 168.55,-145.73 247,-121.75 308.03,-103.1 379.9,-89.01 428.78,-80.56"/>
<polygon fill="#63b8ff" stroke="#63b8ff" points="72.5,-408.61 76,-418.61 79.5,-408.61 72.5,-408.61"/>
</a>
</g>
</g>
<!-- Node13 -->
<g id="Node000013" class="node">
<title>Node13</title>
<g id="a_Node000013"><a xlink:href="_simulation_parameters_8h.html" target="_top" xlink:title="Source file to read simulation configuration.">
<polygon fill="white" stroke="#666666" points="198.88,-80.12 53.12,-80.12 53.12,-60.88 198.88,-60.88 198.88,-80.12"/>
<text text-anchor="middle" x="126" y="-66.62" font-family="Helvetica,sans-Serif" font-size="10.00">solve/SimulationParameters.h</text>
</a>
</g>
</g>
<!-- Node2&#45;&gt;Node13 -->
<g id="edge66_Node000002_Node000013" class="edge">
<title>Node2&#45;&gt;Node13</title>
<g id="a_edge66_Node000002_Node000013"><a xlink:title=" ">
<path fill="none" stroke="#63b8ff" d="M52.84,-413.36C42.87,-405.62 31.75,-395.58 24,-384.5 6.61,-359.65 0,-350.95 0,-320.62 0,-320.62 0,-320.62 0,-191.25 0,-158.57 2.38,-146.26 24,-121.75 42.15,-101.17 70.66,-88.13 92.93,-80.5"/>
<polygon fill="#63b8ff" stroke="#63b8ff" points="50.55,-416.02 60.68,-419.13 54.7,-410.38 50.55,-416.02"/>
</a>
</g>
</g>
<!-- Node4 -->
<g id="Node000004" class="node">
<title>Node4</title>
<g id="a_Node000004"><a xlink:href="_block_factory_8h.html" target="_top" xlink:title="Define the block factory functional.">
<polygon fill="white" stroke="#666666" points="327.88,-201.88 218.12,-201.88 218.12,-182.62 327.88,-182.62 327.88,-201.88"/>
<text text-anchor="middle" x="273" y="-188.38" font-family="Helvetica,sans-Serif" font-size="10.00">model/BlockFactory.h</text>
</a>
</g>
</g>
<!-- Node3&#45;&gt;Node4 -->
<g id="edge3_Node000003_Node000004" class="edge">
<title>Node3&#45;&gt;Node4</title>
<g id="a_edge3_Node000003_Node000004"><a xlink:title=" ">
<path fill="none" stroke="#63b8ff" d="M805.6,-373.96C701.21,-373.35 465.28,-367.62 396,-329.25 353.93,-305.95 362.86,-278.62 330,-243.5 315.4,-227.89 296.45,-211.92 284.51,-202.29"/>
<polygon fill="#63b8ff" stroke="#63b8ff" points="805.54,-377.46 815.56,-374 805.57,-370.46 805.54,-377.46"/>
</a>
</g>
</g>
<!-- Node3&#45;&gt;Node5 -->
<g id="edge46_Node000003_Node000005" class="edge">
<title>Node3&#45;&gt;Node5</title>
<g id="a_edge46_Node000003_Node000005"><a xlink:title=" ">
<path fill="none" stroke="#63b8ff" d="M805.72,-370.63C746.74,-365.81 646.54,-354.46 564,-329.25 502.34,-310.42 424.37,-303.87 447,-243.5 460.76,-206.78 470.29,-195.25 505,-177 564.79,-145.56 766.55,-136.03 853.07,-133.35"/>
<polygon fill="#63b8ff" stroke="#63b8ff" points="805.19,-374.1 815.43,-371.39 805.74,-367.12 805.19,-374.1"/>
</a>
</g>
</g>
<!-- Node3&#45;&gt;Node9 -->
<g id="edge28_Node000003_Node000009" class="edge">
<title>Node3&#45;&gt;Node9</title>
<g id="a_edge28_Node000003_Node000009"><a xlink:title=" ">
<path fill="none" stroke="#63b8ff" d="M805.45,-372.65C658.14,-368.8 236.12,-355.57 180,-329.25 141.43,-311.16 114,-302.35 114,-259.75 114,-259.75 114,-259.75 114,-191.25 114,-125.27 197.39,-94.06 253.1,-80.57"/>
<polygon fill="#63b8ff" stroke="#63b8ff" points="805.2,-376.15 815.29,-372.91 805.38,-369.15 805.2,-376.15"/>
</a>
</g>
</g>
<!-- Node3&#45;&gt;Node10 -->
<g id="edge45_Node000003_Node000010" class="edge">
<title>Node3&#45;&gt;Node10</title>
<g id="a_edge45_Node000003_Node000010"><a xlink:title=" ">
<path fill="none" stroke="#63b8ff" d="M805.96,-371.93C688.29,-367.04 396.81,-352.85 302,-329.25 230.7,-311.5 152,-333.22 152,-259.75 152,-259.75 152,-259.75 152,-191.25 152,-159.91 363.05,-102.73 449.62,-80.59"/>
<polygon fill="#63b8ff" stroke="#63b8ff" points="805.48,-375.42 815.61,-372.33 805.76,-368.42 805.48,-375.42"/>
</a>
</g>
</g>
<!-- Node15 -->
<g id="Node000015" class="node">
<title>Node15</title>
<g id="a_Node000015"><a xlink:href="_blood_vessel_8h.html" target="_top" xlink:title="model::BloodVessel source file">
<polygon fill="white" stroke="#666666" points="1029.75,-329.25 922.25,-329.25 922.25,-310 1029.75,-310 1029.75,-329.25"/>
<text text-anchor="middle" x="976" y="-315.75" font-family="Helvetica,sans-Serif" font-size="10.00">model/BloodVessel.h</text>
</a>
</g>
</g>
<!-- Node3&#45;&gt;Node15 -->
<g id="edge20_Node000003_Node000015" class="edge">
<title>Node3&#45;&gt;Node15</title>
<g id="a_edge20_Node000003_Node000015"><a xlink:title=" ">
<path fill="none" stroke="#63b8ff" d="M886.66,-360.27C908.27,-350.68 936.63,-338.09 955.54,-329.7"/>
<polygon fill="#63b8ff" stroke="#63b8ff" points="885.46,-356.97 877.74,-364.23 888.3,-363.37 885.46,-356.97"/>
</a>
</g>
</g>
<!-- Node16 -->
<g id="Node000016" class="node">
<title>Node16</title>
<g id="a_Node000016"><a xlink:href="_blood_vessel_junction_8h.html" target="_top" xlink:title="model::BloodVesselJunction source file">
<polygon fill="white" stroke="#666666" points="1280.12,-268.38 1135.88,-268.38 1135.88,-249.12 1280.12,-249.12 1280.12,-268.38"/>
<text text-anchor="middle" x="1208" y="-254.88" font-family="Helvetica,sans-Serif" font-size="10.00">model/BloodVesselJunction.h</text>
</a>
</g>
</g>
<!-- Node3&#45;&gt;Node16 -->
<g id="edge27_Node000003_Node000016" class="edge">
<title>Node3&#45;&gt;Node16</title>
<g id="a_edge27_Node000003_Node000016"><a xlink:title=" ">
<path fill="none" stroke="#63b8ff" d="M906.01,-364.77C943.3,-357.24 995.13,-345.2 1039,-329.25 1057.17,-322.64 1060.3,-317.77 1078,-310 1113.89,-294.24 1156.42,-278.31 1182.81,-268.73"/>
<polygon fill="#63b8ff" stroke="#63b8ff" points="905.55,-361.29 896.42,-366.66 906.9,-368.16 905.55,-361.29"/>
</a>
</g>
</g>
<!-- Node17 -->
<g id="Node000017" class="node">
<title>Node17</title>
<g id="a_Node000017"><a xlink:href="_blood_vessel_c_r_l_8h.html" target="_top" xlink:title="model::BloodVesselCRL source file">
<polygon fill="white" stroke="#666666" points="1213.5,-329.25 1086.5,-329.25 1086.5,-310 1213.5,-310 1213.5,-329.25"/>
<text text-anchor="middle" x="1150" y="-315.75" font-family="Helvetica,sans-Serif" font-size="10.00">model/BloodVesselCRL.h</text>
</a>
</g>
</g>
<!-- Node3&#45;&gt;Node17 -->
<g id="edge24_Node000003_Node000017" class="edge">
<title>Node3&#45;&gt;Node17</title>
<g id="a_edge24_Node000003_Node000017"><a xlink:title=" ">
<path fill="none" stroke="#63b8ff" d="M906.07,-364.81C960.08,-355.02 1045.61,-339.53 1099.71,-329.73"/>
<polygon fill="#63b8ff" stroke="#63b8ff" points="905.75,-361.31 896.53,-366.53 906.99,-368.2 905.75,-361.31"/>
</a>
</g>
</g>
<!-- Node18 -->
<g id="Node000018" class="node">
<title>Node18</title>
<g id="a_Node000018"><a xlink:href="_chamber_sphere_8h.html" target="_top" xlink:title="model::ChamberSphere source file">
<polygon fill="white" stroke="#666666" points="1356.25,-201.88 1233.75,-201.88 1233.75,-182.62 1356.25,-182.62 1356.25,-201.88"/>
<text text-anchor="middle" x="1295" y="-188.38" font-family="Helvetica,sans-Serif" font-size="10.00">model/ChamberSphere.h</text>
</a>
</g>
</g>
<!-- Node3&#45;&gt;Node18 -->
<g id="edge29_Node000003_Node000018" class="edge">
<title>Node3&#45;&gt;Node18</title>
<g id="a_edge29_Node000003_Node000018"><a xlink:title=" ">
<path fill="none" stroke="#63b8ff" d="M906.48,-370.63C993.08,-364.59 1166.09,-350.29 1223,-329.25 1228.2,-327.33 1303.38,-278.88 1306,-274 1318.56,-250.55 1306.74,-217.99 1299.57,-202.35"/>
<polygon fill="#63b8ff" stroke="#63b8ff" points="906.36,-367.13 896.62,-371.31 906.84,-374.12 906.36,-367.13"/>
</a>
</g>
</g>
<!-- Node19 -->
<g id="Node000019" class="node">
<title>Node19</title>
<g id="a_Node000019"><a xlink:href="_closed_loop_coronary_b_c_8h.html" target="_top" xlink:title="model::ClosedLoopCoronaryBC source file">
<polygon fill="white" stroke="#666666" points="752.12,-268.38 595.88,-268.38 595.88,-249.12 752.12,-249.12 752.12,-268.38"/>
<text text-anchor="middle" x="674" y="-254.88" font-family="Helvetica,sans-Serif" font-size="10.00">model/ClosedLoopCoronaryBC.h</text>
</a>
</g>
</g>
<!-- Node3&#45;&gt;Node19 -->
<g id="edge31_Node000003_Node000019" class="edge">
<title>Node3&#45;&gt;Node19</title>
<g id="a_edge31_Node000003_Node000019"><a xlink:title=" ">
<path fill="none" stroke="#63b8ff" d="M805.71,-372.22C740.4,-368.89 631.83,-358.92 607,-329.25 587.86,-306.37 627.73,-281.71 653.8,-268.8"/>
<polygon fill="#63b8ff" stroke="#63b8ff" points="805.31,-375.7 815.46,-372.68 805.64,-368.71 805.31,-375.7"/>
</a>
</g>
</g>
<!-- Node22 -->
<g id="Node000022" class="node">
<title>Node22</title>
<g id="a_Node000022"><a xlink:href="_closed_loop_heart_pulmonary_8h.html" target="_top" xlink:title="model::ClosedLoopHeartPulmonary source file">
<polygon fill="white" stroke="#666666" points="790.12,-329.25 615.88,-329.25 615.88,-310 790.12,-310 790.12,-329.25"/>
<text text-anchor="middle" x="703" y="-315.75" font-family="Helvetica,sans-Serif" font-size="10.00">model/ClosedLoopHeartPulmonary.h</text>
</a>
</g>
</g>
<!-- Node3&#45;&gt;Node22 -->
<g id="edge36_Node000003_Node000022" class="edge">
<title>Node3&#45;&gt;Node22</title>
<g id="a_edge36_Node000003_Node000022"><a xlink:title=" ">
<path fill="none" stroke="#63b8ff" d="M819.53,-361.18C791.67,-351.49 753.96,-338.36 729.08,-329.7"/>
<polygon fill="#63b8ff" stroke="#63b8ff" points="818.02,-364.36 828.62,-364.34 820.32,-357.75 818.02,-364.36"/>
</a>
</g>
</g>
<!-- Node23 -->
<g id="Node000023" class="node">
<title>Node23</title>
<g id="a_Node000023"><a xlink:href="_closed_loop_r_c_r_b_c_8h.html" target="_top" xlink:title="model::ClosedLoopRCRBC source file">
<polygon fill="white" stroke="#666666" points="321.12,-268.38 182.88,-268.38 182.88,-249.12 321.12,-249.12 321.12,-268.38"/>
<text text-anchor="middle" x="252" y="-254.88" font-family="Helvetica,sans-Serif" font-size="10.00">model/ClosedLoopRCRBC.h</text>
</a>
</g>
</g>
<!-- Node3&#45;&gt;Node23 -->
<g id="edge39_Node000003_Node000023" class="edge">
<title>Node3&#45;&gt;Node23</title>
<g id="a_edge39_Node000003_Node000023"><a xlink:title=" ">
<path fill="none" stroke="#63b8ff" d="M805.49,-373.3C692.19,-371.42 421.07,-363.37 337,-329.25 303.44,-315.63 272.87,-283.94 259.34,-268.51"/>
<polygon fill="#63b8ff" stroke="#63b8ff" points="805.35,-376.8 815.4,-373.46 805.46,-369.8 805.35,-376.8"/>
</a>
</g>
</g>
<!-- Node3&#45;&gt;Node24 -->
<g id="edge41_Node000003_Node000024" class="edge">
<title>Node3&#45;&gt;Node24</title>
<g id="a_edge41_Node000003_Node000024"><a xlink:title=" ">
<path fill="none" stroke="#63b8ff" d="M906.37,-368.84C987.85,-360.67 1153.62,-343.97 1294,-329.25 1298.58,-328.77 1303.32,-328.27 1308.08,-327.76"/>
<polygon fill="#63b8ff" stroke="#63b8ff" points="906.08,-365.35 896.48,-369.83 906.78,-372.32 906.08,-365.35"/>
</a>
</g>
</g>
<!-- Node25 -->
<g id="Node000025" class="node">
<title>Node25</title>
<g id="a_Node000025"><a xlink:href="_junction_8h.html" target="_top" xlink:title="model::Junction source file">
<polygon fill="white" stroke="#666666" points="435.75,-201.88 346.25,-201.88 346.25,-182.62 435.75,-182.62 435.75,-201.88"/>
<text text-anchor="middle" x="391" y="-188.38" font-family="Helvetica,sans-Serif" font-size="10.00">model/Junction.h</text>
</a>
</g>
</g>
<!-- Node3&#45;&gt;Node25 -->
<g id="edge43_Node000003_Node000025" class="edge">
<title>Node3&#45;&gt;Node25</title>
<g id="a_edge43_Node000003_Node000025"><a xlink:title=" ">
<path fill="none" stroke="#63b8ff" d="M805.39,-372.17C695.39,-367.98 442.13,-355.55 414,-329.25 377.62,-295.23 385.17,-226.71 389.29,-202.21"/>
<polygon fill="#63b8ff" stroke="#63b8ff" points="805.19,-375.66 815.31,-372.54 805.45,-368.67 805.19,-375.66"/>
</a>
</g>
</g>
<!-- Node3&#45;&gt;Node26 -->
<g id="edge47_Node000003_Node000026" class="edge">
<title>Node3&#45;&gt;Node26</title>
<g id="a_edge47_Node000003_Node000026"><a xlink:title=" ">
<path fill="none" stroke="#63b8ff" d="M906.57,-370.11C1030.48,-360.88 1349.73,-337.1 1495.9,-326.22"/>
<polygon fill="#63b8ff" stroke="#63b8ff" points="906.43,-366.61 896.71,-370.84 906.95,-373.59 906.43,-366.61"/>
</a>
</g>
</g>
<!-- Node3&#45;&gt;Node27 -->
<g id="edge51_Node000003_Node000027" class="edge">
<title>Node3&#45;&gt;Node27</title>
<g id="a_edge51_Node000003_Node000027"><a xlink:title=" ">
<path fill="none" stroke="#63b8ff" d="M906.3,-373.22C983.04,-371.12 1133.36,-362.67 1256,-329.25 1276.2,-323.75 1279.28,-317.04 1299,-310 1338.65,-295.84 1384.29,-283.4 1420.31,-274.44"/>
<polygon fill="#63b8ff" stroke="#63b8ff" points="906.5,-369.72 896.59,-373.46 906.67,-376.71 906.5,-369.72"/>
</a>
</g>
</g>
<!-- Node28 -->
<g id="Node000028" class="node">
<title>Node28</title>
<g id="a_Node000028"><a xlink:href="_piecewise_valve_8h.html" target="_top" xlink:title="model::PiecewiseValve source file">
<polygon fill="white" stroke="#666666" points="578.25,-268.38 455.75,-268.38 455.75,-249.12 578.25,-249.12 578.25,-268.38"/>
<text text-anchor="middle" x="517" y="-254.88" font-family="Helvetica,sans-Serif" font-size="10.00">model/PiecewiseValve.h</text>
</a>
</g>
</g>
<!-- Node3&#45;&gt;Node28 -->
<g id="edge52_Node000003_Node000028" class="edge">
<title>Node3&#45;&gt;Node28</title>
<g id="a_edge52_Node000003_Node000028"><a xlink:title=" ">
<path fill="none" stroke="#63b8ff" d="M805.63,-373.01C751.83,-370.34 665.24,-360.92 598,-329.25 566.49,-314.41 537.57,-283.88 524.44,-268.71"/>
<polygon fill="#63b8ff" stroke="#63b8ff" points="805.27,-376.5 815.41,-373.43 805.57,-369.51 805.27,-376.5"/>
</a>
</g>
</g>
<!-- Node3&#45;&gt;Node29 -->
<g id="edge54_Node000003_Node000029" class="edge">
<title>Node3&#45;&gt;Node29</title>
<g id="a_edge54_Node000003_Node000029"><a xlink:title=" ">
<path fill="none" stroke="#63b8ff" d="M906.3,-371.88C1032.42,-366.7 1372.29,-351.65 1655,-329.25 1657.92,-329.02 1660.9,-328.77 1663.91,-328.51"/>
<polygon fill="#63b8ff" stroke="#63b8ff" points="906.48,-368.37 896.63,-372.27 906.77,-375.36 906.48,-368.37"/>
</a>
</g>
</g>
<!-- Node3&#45;&gt;Node30 -->
<g id="edge56_Node000003_Node000030" class="edge">
<title>Node3&#45;&gt;Node30</title>
<g id="a_edge56_Node000003_Node000030"><a xlink:title=" ">
<path fill="none" stroke="#63b8ff" d="M906.69,-373.03C1050.5,-370.32 1473.32,-360.11 1823,-329.25 1825.65,-329.02 1828.35,-328.76 1831.08,-328.47"/>
<polygon fill="#63b8ff" stroke="#63b8ff" points="906.67,-369.53 896.74,-373.22 906.8,-376.53 906.67,-369.53"/>
</a>
</g>
</g>
<!-- Node31 -->
<g id="Node000031" class="node">
<title>Node31</title>
<g id="a_Node000031"><a xlink:href="_resistive_junction_8h.html" target="_top" xlink:title="model::ResistiveJunction source file">
<polygon fill="white" stroke="#666666" points="1005,-201.88 875,-201.88 875,-182.62 1005,-182.62 1005,-201.88"/>
<text text-anchor="middle" x="940" y="-188.38" font-family="Helvetica,sans-Serif" font-size="10.00">model/ResistiveJunction.h</text>
</a>
</g>
</g>
<!-- Node3&#45;&gt;Node31 -->
<g id="edge58_Node000003_Node000031" class="edge">
<title>Node3&#45;&gt;Node31</title>
<g id="a_edge58_Node000003_Node000031"><a xlink:title=" ">
<path fill="none" stroke="#63b8ff" d="M845.88,-354.78C833.14,-327.85 815.37,-278.13 837,-243.5 850.39,-222.07 875.84,-209.54 898.1,-202.35"/>
<polygon fill="#63b8ff" stroke="#63b8ff" points="842.62,-356.09 850.23,-363.47 848.88,-352.96 842.62,-356.09"/>
</a>
</g>
</g>
<!-- Node32 -->
<g id="Node000032" class="node">
<title>Node32</title>
<g id="a_Node000032"><a xlink:href="_valve_tanh_8h.html" target="_top" xlink:title="model::ValveTanh source file">
<polygon fill="white" stroke="#666666" points="945.62,-268.38 846.38,-268.38 846.38,-249.12 945.62,-249.12 945.62,-268.38"/>
<text text-anchor="middle" x="896" y="-254.88" font-family="Helvetica,sans-Serif" font-size="10.00">model/ValveTanh.h</text>
</a>
</g>
</g>
<!-- Node3&#45;&gt;Node32 -->
<g id="edge60_Node000003_Node000032" class="edge">
<title>Node3&#45;&gt;Node32</title>
<g id="a_edge60_Node000003_Node000032"><a xlink:title=" ">
<path fill="none" stroke="#63b8ff" d="M862.9,-354.18C871.68,-329.14 886.46,-286.96 892.88,-268.66"/>
<polygon fill="#63b8ff" stroke="#63b8ff" points="859.64,-352.9 859.64,-363.49 866.25,-355.21 859.64,-352.9"/>
</a>
</g>
</g>
<!-- Node33 -->
<g id="Node000033" class="node">
<title>Node33</title>
<g id="a_Node000033"><a xlink:href="_windkessel_b_c_8h.html" target="_top" xlink:title="model::WindkesselBC source file">
<polygon fill="white" stroke="#666666" points="1080.25,-268.38 963.75,-268.38 963.75,-249.12 1080.25,-249.12 1080.25,-268.38"/>
<text text-anchor="middle" x="1022" y="-254.88" font-family="Helvetica,sans-Serif" font-size="10.00">model/WindkesselBC.h</text>
</a>
</g>
</g>
<!-- Node3&#45;&gt;Node33 -->
<g id="edge62_Node000003_Node000033" class="edge">
<title>Node3&#45;&gt;Node33</title>
<g id="a_edge62_Node000003_Node000033"><a xlink:title=" ">
<path fill="none" stroke="#63b8ff" d="M868.77,-355.91C879.37,-341.99 895.5,-322.95 913,-310 938.29,-291.28 971.67,-277.16 994.8,-268.73"/>
<polygon fill="#63b8ff" stroke="#63b8ff" points="866.09,-353.64 862.98,-363.76 871.73,-357.79 866.09,-353.64"/>
</a>
</g>
</g>
<!-- Node4&#45;&gt;Node5 -->
<g id="edge4_Node000004_Node000005" class="edge">
<title>Node4&#45;&gt;Node5</title>
<g id="a_edge4_Node000004_Node000005"><a xlink:title=" ">
<path fill="none" stroke="#63b8ff" d="M320.77,-179.85C326.23,-178.78 331.72,-177.8 337,-177 528.99,-148.06 761.3,-137.08 853,-133.68"/>
<polygon fill="#63b8ff" stroke="#63b8ff" points="320.28,-176.38 311.21,-181.85 321.71,-183.23 320.28,-176.38"/>
</a>
</g>
</g>
<!-- Node6 -->
<g id="Node000006" class="node">
<title>Node6</title>
<g id="a_Node000006"><a xlink:href="_integrator_8h.html" target="_top" xlink:title="Integrator source file.">
<polygon fill="white" stroke="#666666" points="1001.62,-80.12 902.38,-80.12 902.38,-60.88 1001.62,-60.88 1001.62,-80.12"/>
<text text-anchor="middle" x="952" y="-66.62" font-family="Helvetica,sans-Serif" font-size="10.00">algebra/Integrator.h</text>
</a>
</g>
</g>
<!-- Node5&#45;&gt;Node6 -->
<g id="edge5_Node000005_Node000006" class="edge">
<title>Node5&#45;&gt;Node6</title>
<g id="a_edge5_Node000005_Node000006"><a xlink:title=" ">
<path fill="none" stroke="#63b8ff" d="M909.86,-113.55C920.63,-102.8 934.17,-89.29 942.95,-80.53"/>
<polygon fill="#63b8ff" stroke="#63b8ff" points="907.64,-110.82 903.03,-120.36 912.58,-115.78 907.64,-110.82"/>
</a>
</g>
</g>
<!-- Node7 -->
<g id="Node000007" class="node">
<title>Node7</title>
<g id="a_Node000007"><a xlink:href="interface_8h.html" target="_top" xlink:title="svZeroDSolver callable interface.">
<polygon fill="white" stroke="#666666" points="1117.75,-19.25 1016.25,-19.25 1016.25,0 1117.75,0 1117.75,-19.25"/>
<text text-anchor="middle" x="1067" y="-5.75" font-family="Helvetica,sans-Serif" font-size="10.00">interface/interface.h</text>
</a>
</g>
</g>
<!-- Node5&#45;&gt;Node7 -->
<g id="edge8_Node000005_Node000007" class="edge">
<title>Node5&#45;&gt;Node7</title>
<g id="a_edge8_Node000005_Node000007"><a xlink:title=" ">
<path fill="none" stroke="#63b8ff" d="M943.94,-127.83C1004.66,-123.6 1100.76,-112.73 1123,-85.75 1131.62,-75.29 1128.88,-67.46 1123,-55.25 1115.28,-39.23 1098.71,-27.19 1085.59,-19.67"/>
<polygon fill="#63b8ff" stroke="#63b8ff" points="943.92,-124.32 934.17,-128.46 944.38,-131.3 943.92,-124.32"/>
</a>
</g>
</g>
<!-- Node8 -->
<g id="Node000008" class="node">
<title>Node8</title>
<g id="a_Node000008"><a xlink:href="_solver_8h.html" target="_top" xlink:title="Solver source file.">
<polygon fill="white" stroke="#666666" points="633.75,-19.25 556.25,-19.25 556.25,0 633.75,0 633.75,-19.25"/>
<text text-anchor="middle" x="595" y="-5.75" font-family="Helvetica,sans-Serif" font-size="10.00">solve/Solver.h</text>
</a>
</g>
</g>
<!-- Node5&#45;&gt;Node8 -->
<g id="edge17_Node000005_Node000008" class="edge">
<title>Node5&#45;&gt;Node8</title>
<g id="a_edge17_Node000005_Node000008"><a xlink:title=" ">
<path fill="none" stroke="#63b8ff" d="M841.86,-128.76C770.59,-125.45 646.49,-115.46 614,-85.75 595.14,-68.5 593.81,-35.47 594.38,-19.59"/>
<polygon fill="#63b8ff" stroke="#63b8ff" points="841.59,-132.25 851.73,-129.19 841.89,-125.26 841.59,-132.25"/>
</a>
</g>
</g>
<!-- Node5&#45;&gt;Node9 -->
<g id="edge9_Node000005_Node000009" class="edge">
<title>Node5&#45;&gt;Node9</title>
<g id="a_edge9_Node000005_Node000009"><a xlink:title=" ">
<path fill="none" stroke="#63b8ff" d="M841.56,-127.17C749.79,-120.86 552.41,-105.7 387,-85.75 374.71,-84.27 361.55,-82.43 349.32,-80.57"/>
<polygon fill="#63b8ff" stroke="#63b8ff" points="841.29,-130.66 851.5,-127.84 841.76,-123.67 841.29,-130.66"/>
</a>
</g>
</g>
<!-- Node5&#45;&gt;Node10 -->
<g id="edge11_Node000005_Node000010" class="edge">
<title>Node5&#45;&gt;Node10</title>
<g id="a_edge11_Node000005_Node000010"><a xlink:title=" ">
<path fill="none" stroke="#63b8ff" d="M842.01,-124.05C778.48,-115.49 667.05,-99.68 572,-85.75 560.78,-84.11 548.82,-82.33 537.47,-80.61"/>
<polygon fill="#63b8ff" stroke="#63b8ff" points="841.43,-127.51 851.8,-125.36 842.36,-120.57 841.43,-127.51"/>
</a>
</g>
</g>
<!-- Node11 -->
<g id="Node000011" class="node">
<title>Node11</title>
<g id="a_Node000011"><a xlink:href="_levenberg_marquardt_optimizer_8h.html" target="_top" xlink:title="opt::LevenbergMarquardtOptimizer source file">
<polygon fill="white" stroke="#666666" points="767.12,-85.75 622.88,-85.75 622.88,-55.25 767.12,-55.25 767.12,-85.75"/>
<text text-anchor="start" x="630.88" y="-72.25" font-family="Helvetica,sans-Serif" font-size="10.00">optimize/LevenbergMarquardt</text>
<text text-anchor="middle" x="695" y="-61" font-family="Helvetica,sans-Serif" font-size="10.00">Optimizer.h</text>
</a>
</g>
</g>
<!-- Node5&#45;&gt;Node11 -->
<g id="edge13_Node000005_Node000011" class="edge">
<title>Node5&#45;&gt;Node11</title>
<g id="a_edge13_Node000005_Node000011"><a xlink:title=" ">
<path fill="none" stroke="#63b8ff" d="M851.56,-118.05C820.35,-108.77 777.43,-96.01 744.42,-86.19"/>
<polygon fill="#63b8ff" stroke="#63b8ff" points="850.46,-121.38 861.05,-120.87 852.46,-114.67 850.46,-121.38"/>
</a>
</g>
</g>
<!-- Node12 -->
<g id="Node000012" class="node">
<title>Node12</title>
<g id="a_Node000012"><a xlink:href="calibrate_8h.html" target="_top" xlink:title="opt::calibrate source file">
<polygon fill="white" stroke="#666666" points="884.62,-80.12 785.38,-80.12 785.38,-60.88 884.62,-60.88 884.62,-80.12"/>
<text text-anchor="middle" x="835" y="-66.62" font-family="Helvetica,sans-Serif" font-size="10.00">optimize/calibrate.h</text>
</a>
</g>
</g>
<!-- Node5&#45;&gt;Node12 -->
<g id="edge14_Node000005_Node000012" class="edge">
<title>Node5&#45;&gt;Node12</title>
<g id="a_edge14_Node000005_Node000012"><a xlink:title=" ">
<path fill="none" stroke="#63b8ff" d="M876.43,-113.55C865.84,-102.8 852.52,-89.29 843.89,-80.53"/>
<polygon fill="#63b8ff" stroke="#63b8ff" points="873.62,-115.69 883.13,-120.35 878.6,-110.77 873.62,-115.69"/>
</a>
</g>
</g>
<!-- Node5&#45;&gt;Node13 -->
<g id="edge15_Node000005_Node000013" class="edge">
<title>Node5&#45;&gt;Node13</title>
<g id="a_edge15_Node000005_Node000013"><a xlink:title=" ">
<path fill="none" stroke="#63b8ff" d="M841.61,-128.91C727.36,-125.23 443.73,-113.83 208,-85.75 196.67,-84.4 184.52,-82.53 173.14,-80.58"/>
<polygon fill="#63b8ff" stroke="#63b8ff" points="841.48,-132.4 851.59,-129.22 841.7,-125.41 841.48,-132.4"/>
</a>
</g>
</g>
<!-- Node14 -->
<g id="Node000014" class="node">
<title>Node14</title>
<g id="a_Node000014"><a xlink:href="csv__writer_8h.html" target="_top" xlink:title="csv_writer source file">
<polygon fill="white" stroke="#666666" points="1114.38,-80.12 1019.62,-80.12 1019.62,-60.88 1114.38,-60.88 1114.38,-80.12"/>
<text text-anchor="middle" x="1067" y="-66.62" font-family="Helvetica,sans-Serif" font-size="10.00">solve/csv_writer.h</text>
</a>
</g>
</g>
<!-- Node5&#45;&gt;Node14 -->
<g id="edge18_Node000005_Node000014" class="edge">
<title>Node5&#45;&gt;Node14</title>
<g id="a_edge18_Node000005_Node000014"><a xlink:title=" ">
<path fill="none" stroke="#63b8ff" d="M930.41,-117.72C963.44,-106.54 1010.77,-90.52 1040.16,-80.58"/>
<polygon fill="#63b8ff" stroke="#63b8ff" points="929.59,-114.3 921.24,-120.82 931.83,-120.93 929.59,-114.3"/>
</a>
</g>
</g>
<!-- Node6&#45;&gt;Node7 -->
<g id="edge6_Node000006_Node000007" class="edge">
<title>Node6&#45;&gt;Node7</title>
<g id="a_edge6_Node000006_Node000007"><a xlink:title=" ">
<path fill="none" stroke="#63b8ff" d="M979.69,-55.33C1001.35,-44.24 1030.81,-29.15 1049.37,-19.65"/>
<polygon fill="#63b8ff" stroke="#63b8ff" points="978.12,-52.2 970.81,-59.87 981.31,-58.43 978.12,-52.2"/>
</a>
</g>
</g>
<!-- Node6&#45;&gt;Node8 -->
<g id="edge7_Node000006_Node000008" class="edge">
<title>Node6&#45;&gt;Node8</title>
<g id="a_edge7_Node000006_Node000008"><a xlink:title=" ">
<path fill="none" stroke="#63b8ff" d="M906.28,-57.85C902.14,-56.92 898,-56.04 894,-55.25 801.31,-36.99 691.14,-22.34 633.9,-15.26"/>
<polygon fill="#63b8ff" stroke="#63b8ff" points="905.14,-61.18 915.68,-60.04 906.73,-54.36 905.14,-61.18"/>
</a>
</g>
</g>
<!-- Node9&#45;&gt;Node5 -->
<g id="edge10_Node000009_Node000005" class="edge">
<title>Node9&#45;&gt;Node5</title>
<g id="a_edge10_Node000009_Node000005"><a xlink:title=" ">
<path fill="none" stroke="#63b8ff" d="M378.43,-82.24C387.41,-83.51 396.42,-84.71 405,-85.75 571.21,-105.79 769.7,-121 853.14,-127.26"/>
<polygon fill="#63b8ff" stroke="#63b8ff" points="379.01,-78.79 368.62,-80.83 378.02,-85.72 379.01,-78.79"/>
</a>
</g>
</g>
<!-- Node10&#45;&gt;Node5 -->
<g id="edge12_Node000010_Node000005" class="edge">
<title>Node10&#45;&gt;Node5</title>
<g id="a_edge12_Node000010_Node000005"><a xlink:title=" ">
<path fill="none" stroke="#63b8ff" d="M566.41,-82.27C574.4,-83.45 582.37,-84.63 590,-85.75 684.47,-99.59 795.12,-115.3 853.14,-123.89"/>
<polygon fill="#63b8ff" stroke="#63b8ff" points="567.03,-78.83 556.63,-80.83 566.01,-85.75 567.03,-78.83"/>
</a>
</g>
</g>
<!-- Node13&#45;&gt;Node8 -->
<g id="edge16_Node000013_Node000008" class="edge">
<title>Node13&#45;&gt;Node8</title>
<g id="a_edge16_Node000013_Node000008"><a xlink:title=" ">
<path fill="none" stroke="#63b8ff" d="M187.13,-58.48C194.16,-57.33 201.23,-56.23 208,-55.25 334.85,-36.93 485.96,-21.28 555.9,-14.39"/>
<polygon fill="#63b8ff" stroke="#63b8ff" points="186.57,-55.03 177.29,-60.13 187.73,-61.93 186.57,-55.03"/>
</a>
</g>
</g>
<!-- Node14&#45;&gt;Node7 -->
<g id="edge19_Node000014_Node000007" class="edge">
<title>Node14&#45;&gt;Node7</title>
<g id="a_edge19_Node000014_Node000007"><a xlink:title=" ">
<path fill="none" stroke="#63b8ff" d="M1067,-49.07C1067,-39.04 1067,-27.46 1067,-19.65"/>
<polygon fill="#63b8ff" stroke="#63b8ff" points="1063.5,-49.04 1067,-59.04 1070.5,-49.04 1063.5,-49.04"/>
</a>
</g>
</g>
<!-- Node15&#45;&gt;Node5 -->
<g id="edge23_Node000015_Node000005" class="edge">
<title>Node15&#45;&gt;Node5</title>
<g id="a_edge23_Node000015_Node000005"><a xlink:title=" ">
<path fill="none" stroke="#63b8ff" d="M1041.06,-307.33C1059.63,-300.77 1077.84,-290.4 1089,-274 1096.62,-262.79 1092.63,-256.56 1089,-243.5 1079.78,-210.27 1076.37,-197.98 1049,-177 1015.13,-151.04 966.71,-140.18 932.83,-135.63"/>
<polygon fill="#63b8ff" stroke="#63b8ff" points="1040.06,-303.98 1031.58,-310.32 1042.17,-310.66 1040.06,-303.98"/>
</a>
</g>
</g>
<!-- Node15&#45;&gt;Node16 -->
<g id="edge21_Node000015_Node000016" class="edge">
<title>Node15&#45;&gt;Node16</title>
<g id="a_edge21_Node000015_Node000016"><a xlink:title=" ">
<path fill="none" stroke="#63b8ff" d="M1022.76,-306.76C1066.88,-295.56 1132.09,-279.01 1172.22,-268.83"/>
<polygon fill="#63b8ff" stroke="#63b8ff" points="1022.04,-303.33 1013.21,-309.18 1023.76,-310.12 1022.04,-303.33"/>
</a>
</g>
</g>
<!-- Node16&#45;&gt;Node5 -->
<g id="edge22_Node000016_Node000005" class="edge">
<title>Node16&#45;&gt;Node5</title>
<g id="a_edge22_Node000016_Node000005"><a xlink:title=" ">
<path fill="none" stroke="#63b8ff" d="M1194.34,-239.74C1179.08,-220.99 1152.6,-192.25 1123,-177 1061.53,-145.33 980.27,-136.04 932.62,-133.38"/>
<polygon fill="#63b8ff" stroke="#63b8ff" points="1191.56,-241.87 1200.5,-247.57 1197.06,-237.54 1191.56,-241.87"/>
</a>
</g>
</g>
<!-- Node17&#45;&gt;Node5 -->
<g id="edge26_Node000017_Node000005" class="edge">
<title>Node17&#45;&gt;Node5</title>
<g id="a_edge26_Node000017_Node000005"><a xlink:title=" ">
<path fill="none" stroke="#63b8ff" d="M1208.91,-306.96C1242.21,-299.05 1279.11,-287.57 1289,-274 1296.99,-263.05 1296.09,-255.05 1289,-243.5 1284.73,-236.54 1165.75,-179.55 1158,-177 1080.68,-151.52 985.64,-140.04 932.96,-135.32"/>
<polygon fill="#63b8ff" stroke="#63b8ff" points="1208.25,-303.53 1199.28,-309.17 1209.81,-310.35 1208.25,-303.53"/>
</a>
</g>
</g>
<!-- Node17&#45;&gt;Node16 -->
<g id="edge25_Node000017_Node000016" class="edge">
<title>Node17&#45;&gt;Node16</title>
<g id="a_edge25_Node000017_Node000016"><a xlink:title=" ">
<path fill="none" stroke="#63b8ff" d="M1166.57,-301.8C1177.16,-291.05 1190.48,-277.54 1199.11,-268.78"/>
<polygon fill="#63b8ff" stroke="#63b8ff" points="1164.4,-299.02 1159.87,-308.6 1169.38,-303.94 1164.4,-299.02"/>
</a>
</g>
</g>
<!-- Node18&#45;&gt;Node5 -->
<g id="edge30_Node000018_Node000005" class="edge">
<title>Node18&#45;&gt;Node5</title>
<g id="a_edge30_Node000018_Node000005"><a xlink:title=" ">
<path fill="none" stroke="#63b8ff" d="M1238.13,-180.12C1232.02,-179.02 1225.89,-177.96 1220,-177 1116.8,-160.17 994.55,-144.65 932.87,-137.14"/>
<polygon fill="#63b8ff" stroke="#63b8ff" points="1237.1,-183.49 1247.57,-181.86 1238.36,-176.61 1237.1,-183.49"/>
</a>
</g>
</g>
<!-- Node20 -->
<g id="Node000020" class="node">
<title>Node20</title>
<g id="a_Node000020"><a xlink:href="_closed_loop_coronary_left_b_c_8h.html" target="_top" xlink:title="Left side of ClosedLoopCoronaryBC.">
<polygon fill="white" stroke="#666666" points="665.62,-207.5 530.38,-207.5 530.38,-177 665.62,-177 665.62,-207.5"/>
<text text-anchor="start" x="538.38" y="-194" font-family="Helvetica,sans-Serif" font-size="10.00">model/ClosedLoopCoronary</text>
<text text-anchor="middle" x="598" y="-182.75" font-family="Helvetica,sans-Serif" font-size="10.00">LeftBC.h</text>
</a>
</g>
</g>
<!-- Node19&#45;&gt;Node20 -->
<g id="edge32_Node000019_Node000020" class="edge">
<title>Node19&#45;&gt;Node20</title>
<g id="a_edge32_Node000019_Node000020"><a xlink:title=" ">
<path fill="none" stroke="#63b8ff" d="M654.9,-241.54C642.7,-231.19 627.01,-217.87 615.19,-207.84"/>
<polygon fill="#63b8ff" stroke="#63b8ff" points="652.39,-244 662.28,-247.8 656.92,-238.66 652.39,-244"/>
</a>
</g>
</g>
<!-- Node21 -->
<g id="Node000021" class="node">
<title>Node21</title>
<g id="a_Node000021"><a xlink:href="_closed_loop_coronary_right_b_c_8h.html" target="_top" xlink:title="Right side of ClosedLoopCoronaryBC.">
<polygon fill="white" stroke="#666666" points="818.62,-207.5 683.38,-207.5 683.38,-177 818.62,-177 818.62,-207.5"/>
<text text-anchor="start" x="691.38" y="-194" font-family="Helvetica,sans-Serif" font-size="10.00">model/ClosedLoopCoronary</text>
<text text-anchor="middle" x="751" y="-182.75" font-family="Helvetica,sans-Serif" font-size="10.00">RightBC.h</text>
</a>
</g>
</g>
<!-- Node19&#45;&gt;Node21 -->
<g id="edge34_Node000019_Node000021" class="edge">
<title>Node19&#45;&gt;Node21</title>
<g id="a_edge34_Node000019_Node000021"><a xlink:title=" ">
<path fill="none" stroke="#63b8ff" d="M693.35,-241.54C705.71,-231.19 721.61,-217.87 733.58,-207.84"/>
<polygon fill="#63b8ff" stroke="#63b8ff" points="691.29,-238.71 685.87,-247.81 695.78,-244.07 691.29,-238.71"/>
</a>
</g>
</g>
<!-- Node20&#45;&gt;Node5 -->
<g id="edge33_Node000020_Node000005" class="edge">
<title>Node20&#45;&gt;Node5</title>
<g id="a_edge33_Node000020_Node000005"><a xlink:title=" ">
<path fill="none" stroke="#63b8ff" d="M677.19,-175.45C734.12,-164.08 808.47,-149.24 853.38,-140.28"/>
<polygon fill="#63b8ff" stroke="#63b8ff" points="676.66,-171.98 667.53,-177.37 678.03,-178.85 676.66,-171.98"/>
</a>
</g>
</g>
<!-- Node21&#45;&gt;Node5 -->
<g id="edge35_Node000021_Node000005" class="edge">
<title>Node21&#45;&gt;Node5</title>
<g id="a_edge35_Node000021_Node000005"><a xlink:title=" ">
<path fill="none" stroke="#63b8ff" d="M796.82,-172.25C821.78,-161.91 851.49,-149.58 871.22,-141.4"/>
<polygon fill="#63b8ff" stroke="#63b8ff" points="795.76,-168.9 787.86,-175.97 798.44,-175.37 795.76,-168.9"/>
</a>
</g>
</g>
<!-- Node22&#45;&gt;Node5 -->
<g id="edge38_Node000022_Node000005" class="edge">
<title>Node22&#45;&gt;Node5</title>
<g id="a_edge38_Node000022_Node000005"><a xlink:title=" ">
<path fill="none" stroke="#63b8ff" d="M724.39,-303.17C735.57,-294.85 749.31,-284.22 761,-274 813.11,-228.41 866.83,-164.49 885.82,-141.26"/>
<polygon fill="#63b8ff" stroke="#63b8ff" points="722.55,-300.18 716.57,-308.93 726.7,-305.82 722.55,-300.18"/>
</a>
</g>
</g>
<!-- Node22&#45;&gt;Node19 -->
<g id="edge37_Node000022_Node000019" class="edge">
<title>Node22&#45;&gt;Node19</title>
<g id="a_edge37_Node000022_Node000019"><a xlink:title=" ">
<path fill="none" stroke="#63b8ff" d="M693.59,-299.53C688.51,-289.2 682.46,-276.93 678.45,-268.78"/>
<polygon fill="#63b8ff" stroke="#63b8ff" points="690.37,-300.9 697.93,-308.33 696.65,-297.81 690.37,-300.9"/>
</a>
</g>
</g>
<!-- Node23&#45;&gt;Node5 -->
<g id="edge40_Node000023_Node000005" class="edge">
<title>Node23&#45;&gt;Node5</title>
<g id="a_edge40_Node000023_Node000005"><a xlink:title=" ">
<path fill="none" stroke="#63b8ff" d="M232.44,-241.33C213.85,-223.81 191.19,-196.01 209,-177 253.14,-129.89 713.92,-130.58 853.29,-131.89"/>
<polygon fill="#63b8ff" stroke="#63b8ff" points="229.87,-243.73 239.66,-247.8 234.54,-238.52 229.87,-243.73"/>
</a>
</g>
</g>
<!-- Node24&#45;&gt;Node5 -->
<g id="edge42_Node000024_Node000005" class="edge">
<title>Node24&#45;&gt;Node5</title>
<g id="a_edge42_Node000024_Node000005"><a xlink:title=" ">
<path fill="none" stroke="#63b8ff" d="M1379.79,-298.89C1387.43,-268.27 1396.5,-209.49 1365,-177 1335.13,-146.2 1040.82,-135.97 932.63,-133.23"/>
<polygon fill="#63b8ff" stroke="#63b8ff" points="1376.47,-297.77 1377.22,-308.33 1383.22,-299.6 1376.47,-297.77"/>
</a>
</g>
</g>
<!-- Node25&#45;&gt;Node5 -->
<g id="edge44_Node000025_Node000005" class="edge">
<title>Node25&#45;&gt;Node5</title>
<g id="a_edge44_Node000025_Node000005"><a xlink:title=" ">
<path fill="none" stroke="#63b8ff" d="M436.01,-179.71C440.71,-178.7 445.44,-177.78 450,-177 597.45,-151.89 775.09,-139.24 853.04,-134.57"/>
<polygon fill="#63b8ff" stroke="#63b8ff" points="435.61,-176.21 426.63,-181.83 437.16,-183.04 435.61,-176.21"/>
</a>
</g>
</g>
<!-- Node26&#45;&gt;Node5 -->
<g id="edge48_Node000026_Node000005" class="edge">
<title>Node26&#45;&gt;Node5</title>
<g id="a_edge48_Node000026_Node000005"><a xlink:title=" ">
<path fill="none" stroke="#63b8ff" d="M1574.45,-298.49C1576.12,-282.27 1575.83,-259.61 1565,-243.5 1528.35,-188.98 1496.23,-194.81 1433,-177 1338.83,-150.48 1041.2,-137.59 932.9,-133.7"/>
<polygon fill="#63b8ff" stroke="#63b8ff" points="1570.99,-297.97 1573.07,-308.36 1577.92,-298.94 1570.99,-297.97"/>
</a>
</g>
</g>
<!-- Node26&#45;&gt;Node27 -->
<g id="edge49_Node000026_Node000027" class="edge">
<title>Node26&#45;&gt;Node27</title>
<g id="a_edge49_Node000026_Node000027"><a xlink:title=" ">
<path fill="none" stroke="#63b8ff" d="M1548.43,-303.35C1535.18,-294.39 1518.53,-283.12 1505.47,-274.28"/>
<polygon fill="#63b8ff" stroke="#63b8ff" points="1546.29,-306.13 1556.53,-308.83 1550.21,-300.33 1546.29,-306.13"/>
</a>
</g>
</g>
<!-- Node27&#45;&gt;Node5 -->
<g id="edge50_Node000027_Node000005" class="edge">
<title>Node27&#45;&gt;Node5</title>
<g id="a_edge50_Node000027_Node000005"><a xlink:title=" ">
<path fill="none" stroke="#63b8ff" d="M1466.31,-234.03C1450.65,-215.02 1425.98,-189.53 1398,-177 1314.96,-139.81 1036.67,-133.59 932.66,-132.57"/>
<polygon fill="#63b8ff" stroke="#63b8ff" points="1463.54,-236.17 1472.5,-241.83 1469.02,-231.82 1463.54,-236.17"/>
</a>
</g>
</g>
<!-- Node28&#45;&gt;Node5 -->
<g id="edge53_Node000028_Node000005" class="edge">
<title>Node28&#45;&gt;Node5</title>
<g id="a_edge53_Node000028_Node000005"><a xlink:title=" ">
<path fill="none" stroke="#63b8ff" d="M511.52,-237.74C507.85,-219.5 506.07,-193.01 521,-177 543.4,-152.98 762.07,-139.08 853.32,-134.29"/>
<polygon fill="#63b8ff" stroke="#63b8ff" points="508.09,-238.45 513.83,-247.36 514.9,-236.82 508.09,-238.45"/>
</a>
</g>
</g>
<!-- Node29&#45;&gt;Node5 -->
<g id="edge55_Node000029_Node000005" class="edge">
<title>Node29&#45;&gt;Node5</title>
<g id="a_edge55_Node000029_Node000005"><a xlink:title=" ">
<path fill="none" stroke="#63b8ff" d="M1719.38,-302.91C1679.87,-272.28 1586.72,-205.14 1496,-177 1390.35,-144.23 1049.98,-135.17 932.96,-132.99"/>
<polygon fill="#63b8ff" stroke="#63b8ff" points="1717.02,-305.51 1727.05,-308.93 1721.34,-300 1717.02,-305.51"/>
</a>
</g>
</g>
<!-- Node30&#45;&gt;Node5 -->
<g id="edge57_Node000030_Node000005" class="edge">
<title>Node30&#45;&gt;Node5</title>
<g id="a_edge57_Node000030_Node000005"><a xlink:title=" ">
<path fill="none" stroke="#63b8ff" d="M1862.68,-304.26C1806.47,-274.4 1669.76,-205.96 1546,-177 1428.44,-149.49 1056.11,-136.9 932.97,-133.42"/>
<polygon fill="#63b8ff" stroke="#63b8ff" points="1860.71,-307.18 1871.18,-308.82 1864.02,-301.01 1860.71,-307.18"/>
</a>
</g>
</g>
<!-- Node31&#45;&gt;Node5 -->
<g id="edge59_Node000031_Node000005" class="edge">
<title>Node31&#45;&gt;Node5</title>
<g id="a_edge59_Node000031_Node000005"><a xlink:title=" ">
<path fill="none" stroke="#63b8ff" d="M925.8,-173.46C917.35,-162.88 906.99,-149.9 900.21,-141.4"/>
<polygon fill="#63b8ff" stroke="#63b8ff" points="922.94,-175.49 931.92,-181.13 928.41,-171.13 922.94,-175.49"/>
</a>
</g>
</g>
<!-- Node32&#45;&gt;Node5 -->
<g id="edge61_Node000032_Node000005" class="edge">
<title>Node32&#45;&gt;Node5</title>
<g id="a_edge61_Node000032_Node000005"><a xlink:title=" ">
<path fill="none" stroke="#63b8ff" d="M944.58,-245.43C986.29,-232.36 1036.41,-209.15 1014,-177 995.82,-150.92 960.58,-140.04 932.8,-135.52"/>
<polygon fill="#63b8ff" stroke="#63b8ff" points="943.69,-242.04 935.11,-248.25 945.7,-248.75 943.69,-242.04"/>
</a>
</g>
</g>
<!-- Node33&#45;&gt;Node5 -->
<g id="edge63_Node000033_Node000005" class="edge">
<title>Node33&#45;&gt;Node5</title>
<g id="a_edge63_Node000033_Node000005"><a xlink:title=" ">
<path fill="none" stroke="#63b8ff" d="M1031.09,-238.26C1037.84,-220.59 1043.87,-194.69 1031,-177 1008.78,-146.46 965.22,-136.39 932.96,-133.28"/>
<polygon fill="#63b8ff" stroke="#63b8ff" points="1027.92,-236.77 1027.22,-247.34 1034.36,-239.51 1027.92,-236.77"/>
</a>
</g>
</g>
</g>
</svg>
