<?xml version="1.0" encoding="UTF-8" standalone="no"?>
<!DOCTYPE svg PUBLIC "-//W3C//DTD SVG 1.1//EN"
 "http://www.w3.org/Graphics/SVG/1.1/DTD/svg11.dtd">
<!-- Generated by graphviz version 12.2.1 (20241206.2353)
 -->
<!-- Title: model/Parameter.h Pages: 1 -->
<svg width="1533pt" height="437pt"
 viewBox="0.00 0.00 1533.00 436.50" xmlns="http://www.w3.org/2000/svg" xmlns:xlink="http://www.w3.org/1999/xlink">
<g id="graph0" class="graph" transform="scale(1 1) rotate(0) translate(4 432.5)">
<title>model/Parameter.h</title>
<!-- Node1 -->
<g id="Node000001" class="node">
<title>Node1</title>
<g id="a_Node000001"><a xlink:title="model::Parameter source file">
<polygon fill="#999999" stroke="#666666" points="1224.88,-428.5 1127.12,-428.5 1127.12,-409.25 1224.88,-409.25 1224.88,-428.5"/>
<text text-anchor="middle" x="1176" y="-415" font-family="Helvetica,sans-Serif" font-size="10.00">model/Parameter.h</text>
</a>
</g>
</g>
<!-- Node2 -->
<g id="Node000002" class="node">
<title>Node2</title>
<g id="a_Node000002"><a xlink:href="_block_8h.html" target="_top" xlink:title="model::Block source file">
<polygon fill="white" stroke="#666666" points="715.75,-373.25 638.25,-373.25 638.25,-354 715.75,-354 715.75,-373.25"/>
<text text-anchor="middle" x="677" y="-359.75" font-family="Helvetica,sans-Serif" font-size="10.00">model/Block.h</text>
</a>
</g>
</g>
<!-- Node1&#45;&gt;Node2 -->
<g id="edge1_Node000001_Node000002" class="edge">
<title>Node1&#45;&gt;Node2</title>
<g id="a_edge1_Node000001_Node000002"><a xlink:title=" ">
<path fill="none" stroke="#63b8ff" d="M1115.58,-411.43C1011.85,-400.36 802.69,-378.04 716,-368.79"/>
<polygon fill="#63b8ff" stroke="#63b8ff" points="1114.97,-414.88 1125.28,-412.46 1115.71,-407.92 1114.97,-414.88"/>
</a>
</g>
</g>
<!-- Node4 -->
<g id="Node000004" class="node">
<title>Node4</title>
<g id="a_Node000004"><a xlink:href="_model_8h.html" target="_top" xlink:title="model::Model source file">
<polygon fill="white" stroke="#666666" points="723.5,-141 644.5,-141 644.5,-121.75 723.5,-121.75 723.5,-141"/>
<text text-anchor="middle" x="684" y="-127.5" font-family="Helvetica,sans-Serif" font-size="10.00">model/Model.h</text>
</a>
</g>
</g>
<!-- Node1&#45;&gt;Node4 -->
<g id="edge51_Node000001_Node000004" class="edge">
<title>Node1&#45;&gt;Node4</title>
<g id="a_edge51_Node000001_Node000004"><a xlink:title=" ">
<path fill="none" stroke="#63b8ff" d="M1236.4,-411.65C1336.29,-399.66 1525,-369.1 1525,-309.38 1525,-309.38 1525,-309.38 1525,-252.12 1525,-170.18 891.13,-140.26 724,-133.8"/>
<polygon fill="#63b8ff" stroke="#63b8ff" points="1236.29,-408.14 1226.77,-412.78 1237.11,-415.09 1236.29,-408.14"/>
</a>
</g>
</g>
<!-- Node20 -->
<g id="Node000020" class="node">
<title>Node20</title>
<g id="a_Node000020"><a xlink:href="_flow_reference_b_c_8h.html" target="_top" xlink:title="model::FlowReferenceBC source file">
<polygon fill="white" stroke="#666666" points="1027.75,-318 896.25,-318 896.25,-298.75 1027.75,-298.75 1027.75,-318"/>
<text text-anchor="middle" x="962" y="-304.5" font-family="Helvetica,sans-Serif" font-size="10.00">model/FlowReferenceBC.h</text>
</a>
</g>
</g>
<!-- Node1&#45;&gt;Node20 -->
<g id="edge50_Node000001_Node000020" class="edge">
<title>Node1&#45;&gt;Node20</title>
<g id="a_edge50_Node000001_Node000020"><a xlink:title=" ">
<path fill="none" stroke="#63b8ff" d="M1147.97,-403.66C1103.32,-381.03 1017.28,-337.4 979.98,-318.49"/>
<polygon fill="#63b8ff" stroke="#63b8ff" points="1146.27,-406.73 1156.77,-408.13 1149.44,-400.48 1146.27,-406.73"/>
</a>
</g>
</g>
<!-- Node22 -->
<g id="Node000022" class="node">
<title>Node22</title>
<g id="a_Node000022"><a xlink:href="_open_loop_coronary_b_c_8h.html" target="_top" xlink:title="model::OpenLoopCoronaryBC source file">
<polygon fill="white" stroke="#666666" points="1195.75,-318 1046.25,-318 1046.25,-298.75 1195.75,-298.75 1195.75,-318"/>
<text text-anchor="middle" x="1121" y="-304.5" font-family="Helvetica,sans-Serif" font-size="10.00">model/OpenLoopCoronaryBC.h</text>
</a>
</g>
</g>
<!-- Node1&#45;&gt;Node22 -->
<g id="edge52_Node000001_Node000022" class="edge">
<title>Node1&#45;&gt;Node22</title>
<g id="a_edge52_Node000001_Node000022"><a xlink:title=" ">
<path fill="none" stroke="#63b8ff" d="M1166.34,-398.83C1154.38,-375.22 1134.48,-335.96 1125.56,-318.38"/>
<polygon fill="#63b8ff" stroke="#63b8ff" points="1163.17,-400.31 1170.81,-407.65 1169.42,-397.14 1163.17,-400.31"/>
</a>
</g>
</g>
<!-- Node23 -->
<g id="Node000023" class="node">
<title>Node23</title>
<g id="a_Node000023"><a xlink:href="_pressure_reference_b_c_8h.html" target="_top" xlink:title="model::PressureReferenceBC source file">
<polygon fill="white" stroke="#666666" points="1363.75,-318 1214.25,-318 1214.25,-298.75 1363.75,-298.75 1363.75,-318"/>
<text text-anchor="middle" x="1289" y="-304.5" font-family="Helvetica,sans-Serif" font-size="10.00">model/PressureReferenceBC.h</text>
</a>
</g>
</g>
<!-- Node1&#45;&gt;Node23 -->
<g id="edge53_Node000001_Node000023" class="edge">
<title>Node1&#45;&gt;Node23</title>
<g id="a_edge53_Node000001_Node000023"><a xlink:title=" ">
<path fill="none" stroke="#63b8ff" d="M1193.54,-401.03C1217.8,-377.74 1260.73,-336.52 1279.62,-318.38"/>
<polygon fill="#63b8ff" stroke="#63b8ff" points="1191.13,-398.5 1186.34,-407.95 1195.98,-403.55 1191.13,-398.5"/>
</a>
</g>
</g>
<!-- Node24 -->
<g id="Node000024" class="node">
<title>Node24</title>
<g id="a_Node000024"><a xlink:href="_resistance_b_c_8h.html" target="_top" xlink:title="model::ResistanceBC source file">
<polygon fill="white" stroke="#666666" points="1496.5,-318 1381.5,-318 1381.5,-298.75 1496.5,-298.75 1496.5,-318"/>
<text text-anchor="middle" x="1439" y="-304.5" font-family="Helvetica,sans-Serif" font-size="10.00">model/ResistanceBC.h</text>
</a>
</g>
</g>
<!-- Node1&#45;&gt;Node24 -->
<g id="edge54_Node000001_Node000024" class="edge">
<title>Node1&#45;&gt;Node24</title>
<g id="a_edge54_Node000001_Node000024"><a xlink:title=" ">
<path fill="none" stroke="#63b8ff" d="M1208.38,-404.52C1262.63,-382.14 1370.48,-337.64 1416.91,-318.49"/>
<polygon fill="#63b8ff" stroke="#63b8ff" points="1207.28,-401.18 1199.37,-408.23 1209.95,-407.66 1207.28,-401.18"/>
</a>
</g>
</g>
<!-- Node3 -->
<g id="Node000003" class="node">
<title>Node3</title>
<g id="a_Node000003"><a xlink:href="_block_factory_8h.html" target="_top" xlink:title="Define the block factory functional.">
<polygon fill="white" stroke="#666666" points="293.88,-262.75 184.12,-262.75 184.12,-243.5 293.88,-243.5 293.88,-262.75"/>
<text text-anchor="middle" x="239" y="-249.25" font-family="Helvetica,sans-Serif" font-size="10.00">model/BlockFactory.h</text>
</a>
</g>
</g>
<!-- Node2&#45;&gt;Node3 -->
<g id="edge2_Node000002_Node000003" class="edge">
<title>Node2&#45;&gt;Node3</title>
<g id="a_edge2_Node000002_Node000003"><a xlink:title=" ">
<path fill="none" stroke="#63b8ff" d="M626.52,-360.36C539.09,-355.8 363.49,-343.69 308,-318 280.45,-305.24 256.51,-277.3 245.48,-262.98"/>
<polygon fill="#63b8ff" stroke="#63b8ff" points="626.32,-363.85 636.49,-360.86 626.68,-356.86 626.32,-363.85"/>
</a>
</g>
</g>
<!-- Node2&#45;&gt;Node4 -->
<g id="edge37_Node000002_Node000004" class="edge">
<title>Node2&#45;&gt;Node4</title>
<g id="a_edge37_Node000002_Node000004"><a xlink:title=" ">
<path fill="none" stroke="#63b8ff" d="M626.61,-360.21C560.71,-356.01 450.18,-345.05 421,-318 374.15,-274.56 351.39,-225.48 393,-177 424.92,-139.82 572.28,-133.3 644.24,-132.37"/>
<polygon fill="#63b8ff" stroke="#63b8ff" points="626.27,-363.7 636.46,-360.81 626.69,-356.71 626.27,-363.7"/>
</a>
</g>
</g>
<!-- Node8 -->
<g id="Node000008" class="node">
<title>Node8</title>
<g id="a_Node000008"><a xlink:href="_chamber_elastance_inductor_8h.html" target="_top" xlink:title="model::ChamberElastanceInductor source file">
<polygon fill="white" stroke="#666666" points="261.88,-80.12 92.12,-80.12 92.12,-60.88 261.88,-60.88 261.88,-80.12"/>
<text text-anchor="middle" x="177" y="-66.62" font-family="Helvetica,sans-Serif" font-size="10.00">model/ChamberElastanceInductor.h</text>
</a>
</g>
</g>
<!-- Node2&#45;&gt;Node8 -->
<g id="edge22_Node000002_Node000008" class="edge">
<title>Node2&#45;&gt;Node8</title>
<g id="a_edge22_Node000002_Node000008"><a xlink:title=" ">
<path fill="none" stroke="#63b8ff" d="M627.02,-359.89C470.47,-350.66 0,-317.63 0,-254.12 0,-254.12 0,-254.12 0,-191.25 0,-126.69 81.77,-94.57 134.15,-80.62"/>
<polygon fill="#63b8ff" stroke="#63b8ff" points="626.47,-363.36 636.66,-360.45 626.88,-356.37 626.47,-363.36"/>
</a>
</g>
</g>
<!-- Node13 -->
<g id="Node000013" class="node">
<title>Node13</title>
<g id="a_Node000013"><a xlink:href="_blood_vessel_8h.html" target="_top" xlink:title="model::BloodVessel source file">
<polygon fill="white" stroke="#666666" points="571.75,-318 464.25,-318 464.25,-298.75 571.75,-298.75 571.75,-318"/>
<text text-anchor="middle" x="518" y="-304.5" font-family="Helvetica,sans-Serif" font-size="10.00">model/BloodVessel.h</text>
</a>
</g>
</g>
<!-- Node2&#45;&gt;Node13 -->
<g id="edge17_Node000002_Node000013" class="edge">
<title>Node2&#45;&gt;Node13</title>
<g id="a_edge17_Node000002_Node000013"><a xlink:title=" ">
<path fill="none" stroke="#63b8ff" d="M639.48,-350.06C610.5,-340.35 571.08,-327.15 545.1,-318.45"/>
<polygon fill="#63b8ff" stroke="#63b8ff" points="638,-353.25 648.59,-353.11 640.22,-346.62 638,-353.25"/>
</a>
</g>
</g>
<!-- Node14 -->
<g id="Node000014" class="node">
<title>Node14</title>
<g id="a_Node000014"><a xlink:href="_blood_vessel_junction_8h.html" target="_top" xlink:title="model::BloodVesselJunction source file">
<polygon fill="white" stroke="#666666" points="570.12,-262.75 425.88,-262.75 425.88,-243.5 570.12,-243.5 570.12,-262.75"/>
<text text-anchor="middle" x="498" y="-249.25" font-family="Helvetica,sans-Serif" font-size="10.00">model/BloodVesselJunction.h</text>
</a>
</g>
</g>
<!-- Node2&#45;&gt;Node14 -->
<g id="edge21_Node000002_Node000014" class="edge">
<title>Node2&#45;&gt;Node14</title>
<g id="a_edge21_Node000002_Node000014"><a xlink:title=" ">
<path fill="none" stroke="#63b8ff" d="M626.49,-359.7C567.79,-355.13 476.25,-343.95 455,-318 439.92,-299.59 466.6,-275.9 484.26,-263.17"/>
<polygon fill="#63b8ff" stroke="#63b8ff" points="626.02,-363.18 636.25,-360.42 626.53,-356.2 626.02,-363.18"/>
</a>
</g>
</g>
<!-- Node15 -->
<g id="Node000015" class="node">
<title>Node15</title>
<g id="a_Node000015"><a xlink:href="_closed_loop_coronary_b_c_8h.html" target="_top" xlink:title="model::ClosedLoopCoronaryBC source file">
<polygon fill="white" stroke="#666666" points="820.12,-262.75 663.88,-262.75 663.88,-243.5 820.12,-243.5 820.12,-262.75"/>
<text text-anchor="middle" x="742" y="-249.25" font-family="Helvetica,sans-Serif" font-size="10.00">model/ClosedLoopCoronaryBC.h</text>
</a>
</g>
</g>
<!-- Node2&#45;&gt;Node15 -->
<g id="edge23_Node000002_Node000015" class="edge">
<title>Node2&#45;&gt;Node15</title>
<g id="a_edge23_Node000002_Node000015"><a xlink:title=" ">
<path fill="none" stroke="#63b8ff" d="M726.88,-351.38C744.55,-344.73 762.6,-334.3 773,-318 784.8,-299.5 765.2,-275.85 752.17,-263.15"/>
<polygon fill="#63b8ff" stroke="#63b8ff" points="725.79,-348.05 717.43,-354.56 728.03,-354.68 725.79,-348.05"/>
</a>
</g>
</g>
<!-- Node18 -->
<g id="Node000018" class="node">
<title>Node18</title>
<g id="a_Node000018"><a xlink:href="_closed_loop_heart_pulmonary_8h.html" target="_top" xlink:title="model::ClosedLoopHeartPulmonary source file">
<polygon fill="white" stroke="#666666" points="764.12,-318 589.88,-318 589.88,-298.75 764.12,-298.75 764.12,-318"/>
<text text-anchor="middle" x="677" y="-304.5" font-family="Helvetica,sans-Serif" font-size="10.00">model/ClosedLoopHeartPulmonary.h</text>
</a>
</g>
</g>
<!-- Node2&#45;&gt;Node18 -->
<g id="edge28_Node000002_Node000018" class="edge">
<title>Node2&#45;&gt;Node18</title>
<g id="a_edge28_Node000002_Node000018"><a xlink:title=" ">
<path fill="none" stroke="#63b8ff" d="M677,-342.38C677,-334.09 677,-324.92 677,-318.36"/>
<polygon fill="#63b8ff" stroke="#63b8ff" points="673.5,-342.32 677,-352.32 680.5,-342.32 673.5,-342.32"/>
</a>
</g>
</g>
<!-- Node19 -->
<g id="Node000019" class="node">
<title>Node19</title>
<g id="a_Node000019"><a xlink:href="_closed_loop_r_c_r_b_c_8h.html" target="_top" xlink:title="model::ClosedLoopRCRBC source file">
<polygon fill="white" stroke="#666666" points="166.12,-262.75 27.88,-262.75 27.88,-243.5 166.12,-243.5 166.12,-262.75"/>
<text text-anchor="middle" x="97" y="-249.25" font-family="Helvetica,sans-Serif" font-size="10.00">model/ClosedLoopRCRBC.h</text>
</a>
</g>
</g>
<!-- Node2&#45;&gt;Node19 -->
<g id="edge31_Node000002_Node000019" class="edge">
<title>Node2&#45;&gt;Node19</title>
<g id="a_edge31_Node000002_Node000019"><a xlink:title=" ">
<path fill="none" stroke="#63b8ff" d="M626.58,-360.76C549.96,-357.09 400,-346.61 276,-318 216.84,-304.35 150.25,-277.32 117.47,-263.2"/>
<polygon fill="#63b8ff" stroke="#63b8ff" points="626.12,-364.24 636.27,-361.2 626.44,-357.25 626.12,-364.24"/>
</a>
</g>
</g>
<!-- Node2&#45;&gt;Node20 -->
<g id="edge33_Node000002_Node000020" class="edge">
<title>Node2&#45;&gt;Node20</title>
<g id="a_edge33_Node000002_Node000020"><a xlink:title=" ">
<path fill="none" stroke="#63b8ff" d="M727.09,-353.27C779.59,-343.46 861.52,-328.15 913.44,-318.45"/>
<polygon fill="#63b8ff" stroke="#63b8ff" points="726.71,-349.78 717.52,-355.05 727.99,-356.66 726.71,-349.78"/>
</a>
</g>
</g>
<!-- Node21 -->
<g id="Node000021" class="node">
<title>Node21</title>
<g id="a_Node000021"><a xlink:href="_junction_8h.html" target="_top" xlink:title="model::Junction source file">
<polygon fill="white" stroke="#666666" points="345.75,-201.88 256.25,-201.88 256.25,-182.62 345.75,-182.62 345.75,-201.88"/>
<text text-anchor="middle" x="301" y="-188.38" font-family="Helvetica,sans-Serif" font-size="10.00">model/Junction.h</text>
</a>
</g>
</g>
<!-- Node2&#45;&gt;Node21 -->
<g id="edge35_Node000002_Node000021" class="edge">
<title>Node2&#45;&gt;Node21</title>
<g id="a_edge35_Node000002_Node000021"><a xlink:title=" ">
<path fill="none" stroke="#63b8ff" d="M626.46,-362.06C544.64,-360.14 388.08,-351.98 346,-318 309.1,-288.2 302.45,-225.58 301.26,-202.26"/>
<polygon fill="#63b8ff" stroke="#63b8ff" points="626.38,-365.56 636.45,-362.27 626.53,-358.56 626.38,-365.56"/>
</a>
</g>
</g>
<!-- Node2&#45;&gt;Node22 -->
<g id="edge38_Node000002_Node000022" class="edge">
<title>Node2&#45;&gt;Node22</title>
<g id="a_edge38_Node000002_Node000022"><a xlink:title=" ">
<path fill="none" stroke="#63b8ff" d="M727.42,-356.58C805.32,-347.23 955.4,-329.24 1046.04,-318.37"/>
<polygon fill="#63b8ff" stroke="#63b8ff" points="727.03,-353.1 717.52,-357.77 727.86,-360.05 727.03,-353.1"/>
</a>
</g>
</g>
<!-- Node2&#45;&gt;Node23 -->
<g id="edge40_Node000002_Node000023" class="edge">
<title>Node2&#45;&gt;Node23</title>
<g id="a_edge40_Node000002_Node000023"><a xlink:title=" ">
<path fill="none" stroke="#63b8ff" d="M727.53,-358.66C821.56,-351.21 1029.77,-334.4 1205,-318 1207.92,-317.73 1210.9,-317.44 1213.9,-317.15"/>
<polygon fill="#63b8ff" stroke="#63b8ff" points="727.3,-355.17 717.61,-359.44 727.86,-362.14 727.3,-355.17"/>
</a>
</g>
</g>
<!-- Node2&#45;&gt;Node24 -->
<g id="edge42_Node000002_Node000024" class="edge">
<title>Node2&#45;&gt;Node24</title>
<g id="a_edge42_Node000002_Node000024"><a xlink:title=" ">
<path fill="none" stroke="#63b8ff" d="M727.11,-360.55C841.68,-355.55 1131.53,-341.49 1373,-318 1375.65,-317.74 1378.35,-317.46 1381.08,-317.16"/>
<polygon fill="#63b8ff" stroke="#63b8ff" points="727.29,-357.04 717.45,-360.96 727.59,-364.03 727.29,-357.04"/>
</a>
</g>
</g>
<!-- Node25 -->
<g id="Node000025" class="node">
<title>Node25</title>
<g id="a_Node000025"><a xlink:href="_resistive_junction_8h.html" target="_top" xlink:title="model::ResistiveJunction source file">
<polygon fill="white" stroke="#666666" points="532,-201.88 402,-201.88 402,-182.62 532,-182.62 532,-201.88"/>
<text text-anchor="middle" x="467" y="-188.38" font-family="Helvetica,sans-Serif" font-size="10.00">model/ResistiveJunction.h</text>
</a>
</g>
</g>
<!-- Node2&#45;&gt;Node25 -->
<g id="edge44_Node000002_Node000025" class="edge">
<title>Node2&#45;&gt;Node25</title>
<g id="a_edge44_Node000002_Node000025"><a xlink:title=" ">
<path fill="none" stroke="#63b8ff" d="M626.66,-357.89C567.84,-351.51 474.99,-338.51 447,-318 418.21,-296.9 403.38,-276.49 417,-243.5 424.32,-225.75 441.29,-210.98 453.43,-202.14"/>
<polygon fill="#63b8ff" stroke="#63b8ff" points="626.12,-361.35 636.43,-358.92 626.86,-354.39 626.12,-361.35"/>
</a>
</g>
</g>
<!-- Node26 -->
<g id="Node000026" class="node">
<title>Node26</title>
<g id="a_Node000026"><a xlink:href="_valve_tanh_8h.html" target="_top" xlink:title="model::ValveTanh source file">
<polygon fill="white" stroke="#666666" points="1069.62,-201.88 970.38,-201.88 970.38,-182.62 1069.62,-182.62 1069.62,-201.88"/>
<text text-anchor="middle" x="1020" y="-188.38" font-family="Helvetica,sans-Serif" font-size="10.00">model/ValveTanh.h</text>
</a>
</g>
</g>
<!-- Node2&#45;&gt;Node26 -->
<g id="edge46_Node000002_Node000026" class="edge">
<title>Node2&#45;&gt;Node26</title>
<g id="a_edge46_Node000002_Node000026"><a xlink:title=" ">
<path fill="none" stroke="#63b8ff" d="M712.91,-349.59C735.12,-341.22 764.05,-329.75 789,-318 851.35,-288.63 864.32,-276.17 925,-243.5 952.11,-228.91 983.74,-212.25 1002.8,-202.25"/>
<polygon fill="#63b8ff" stroke="#63b8ff" points="711.85,-346.26 703.7,-353.03 714.29,-352.81 711.85,-346.26"/>
</a>
</g>
</g>
<!-- Node27 -->
<g id="Node000027" class="node">
<title>Node27</title>
<g id="a_Node000027"><a xlink:href="_windkessel_b_c_8h.html" target="_top" xlink:title="model::WindkesselBC source file">
<polygon fill="white" stroke="#666666" points="1050.25,-262.75 933.75,-262.75 933.75,-243.5 1050.25,-243.5 1050.25,-262.75"/>
<text text-anchor="middle" x="992" y="-249.25" font-family="Helvetica,sans-Serif" font-size="10.00">model/WindkesselBC.h</text>
</a>
</g>
</g>
<!-- Node2&#45;&gt;Node27 -->
<g id="edge48_Node000002_Node000027" class="edge">
<title>Node2&#45;&gt;Node27</title>
<g id="a_edge48_Node000002_Node000027"><a xlink:title=" ">
<path fill="none" stroke="#63b8ff" d="M726.91,-351.5C760.44,-343.49 805.38,-331.71 844,-318 863.73,-311 867.81,-307.12 887,-298.75 915.68,-286.24 948.96,-272.17 970.23,-263.24"/>
<polygon fill="#63b8ff" stroke="#63b8ff" points="726.41,-348.02 717.48,-353.72 728.02,-354.83 726.41,-348.02"/>
</a>
</g>
</g>
<!-- Node3&#45;&gt;Node4 -->
<g id="edge3_Node000003_Node000004" class="edge">
<title>Node3&#45;&gt;Node4</title>
<g id="a_edge3_Node000003_Node000004"><a xlink:title=" ">
<path fill="none" stroke="#63b8ff" d="M234.93,-232.27C232.7,-215.19 232.79,-191.15 247,-177 274.87,-149.25 541.48,-137.25 644.06,-133.63"/>
<polygon fill="#63b8ff" stroke="#63b8ff" points="231.42,-232.46 236.55,-241.73 238.32,-231.29 231.42,-232.46"/>
</a>
</g>
</g>
<!-- Node5 -->
<g id="Node000005" class="node">
<title>Node5</title>
<g id="a_Node000005"><a xlink:href="_integrator_8h.html" target="_top" xlink:title="Integrator source file.">
<polygon fill="white" stroke="#666666" points="861.62,-80.12 762.38,-80.12 762.38,-60.88 861.62,-60.88 861.62,-80.12"/>
<text text-anchor="middle" x="812" y="-66.62" font-family="Helvetica,sans-Serif" font-size="10.00">algebra/Integrator.h</text>
</a>
</g>
</g>
<!-- Node4&#45;&gt;Node5 -->
<g id="edge4_Node000004_Node000005" class="edge">
<title>Node4&#45;&gt;Node5</title>
<g id="a_edge4_Node000004_Node000005"><a xlink:title=" ">
<path fill="none" stroke="#63b8ff" d="M714.13,-116.52C738.33,-105.38 771.62,-90.07 792.47,-80.48"/>
<polygon fill="#63b8ff" stroke="#63b8ff" points="712.72,-113.31 705.09,-120.67 715.64,-119.67 712.72,-113.31"/>
</a>
</g>
</g>
<!-- Node6 -->
<g id="Node000006" class="node">
<title>Node6</title>
<g id="a_Node000006"><a xlink:href="interface_8h.html" target="_top" xlink:title="svZeroDSolver callable interface.">
<polygon fill="white" stroke="#666666" points="977.75,-19.25 876.25,-19.25 876.25,0 977.75,0 977.75,-19.25"/>
<text text-anchor="middle" x="927" y="-5.75" font-family="Helvetica,sans-Serif" font-size="10.00">interface/interface.h</text>
</a>
</g>
</g>
<!-- Node4&#45;&gt;Node6 -->
<g id="edge7_Node000004_Node000006" class="edge">
<title>Node4&#45;&gt;Node6</title>
<g id="a_edge7_Node000004_Node000006"><a xlink:title=" ">
<path fill="none" stroke="#63b8ff" d="M735.3,-130.43C812.18,-129.31 951.63,-122.15 983,-85.75 991.85,-75.48 988.88,-67.46 983,-55.25 975.28,-39.23 958.71,-27.19 945.59,-19.67"/>
<polygon fill="#63b8ff" stroke="#63b8ff" points="735.45,-126.93 725.49,-130.55 735.53,-133.93 735.45,-126.93"/>
</a>
</g>
</g>
<!-- Node7 -->
<g id="Node000007" class="node">
<title>Node7</title>
<g id="a_Node000007"><a xlink:href="_solver_8h.html" target="_top" xlink:title="Solver source file.">
<polygon fill="white" stroke="#666666" points="772.75,-19.25 695.25,-19.25 695.25,0 772.75,0 772.75,-19.25"/>
<text text-anchor="middle" x="734" y="-5.75" font-family="Helvetica,sans-Serif" font-size="10.00">solve/Solver.h</text>
</a>
</g>
</g>
<!-- Node4&#45;&gt;Node7 -->
<g id="edge14_Node000004_Node000007" class="edge">
<title>Node4&#45;&gt;Node7</title>
<g id="a_edge14_Node000004_Node000007"><a xlink:title=" ">
<path fill="none" stroke="#63b8ff" d="M698.6,-112.53C704.41,-104.71 710.71,-95.17 715,-85.75 725.37,-62.98 730.7,-33.64 732.84,-19.3"/>
<polygon fill="#63b8ff" stroke="#63b8ff" points="696.01,-110.16 692.63,-120.2 701.54,-114.46 696.01,-110.16"/>
</a>
</g>
</g>
<!-- Node4&#45;&gt;Node8 -->
<g id="edge8_Node000004_Node000008" class="edge">
<title>Node4&#45;&gt;Node8</title>
<g id="a_edge8_Node000004_Node000008"><a xlink:title=" ">
<path fill="none" stroke="#63b8ff" d="M632.97,-126.1C553.34,-118.8 395.27,-103.04 262,-85.75 250.05,-84.2 237.27,-82.37 225.32,-80.56"/>
<polygon fill="#63b8ff" stroke="#63b8ff" points="632.36,-129.56 642.63,-126.98 632.99,-122.59 632.36,-129.56"/>
</a>
</g>
</g>
<!-- Node9 -->
<g id="Node000009" class="node">
<title>Node9</title>
<g id="a_Node000009"><a xlink:href="_levenberg_marquardt_optimizer_8h.html" target="_top" xlink:title="opt::LevenbergMarquardtOptimizer source file">
<polygon fill="white" stroke="#666666" points="424.12,-85.75 279.88,-85.75 279.88,-55.25 424.12,-55.25 424.12,-85.75"/>
<text text-anchor="start" x="287.88" y="-72.25" font-family="Helvetica,sans-Serif" font-size="10.00">optimize/LevenbergMarquardt</text>
<text text-anchor="middle" x="352" y="-61" font-family="Helvetica,sans-Serif" font-size="10.00">Optimizer.h</text>
</a>
</g>
</g>
<!-- Node4&#45;&gt;Node9 -->
<g id="edge10_Node000004_Node000009" class="edge">
<title>Node4&#45;&gt;Node9</title>
<g id="a_edge10_Node000004_Node000009"><a xlink:title=" ">
<path fill="none" stroke="#63b8ff" d="M633.27,-121.38C577.54,-111.5 487.58,-95.54 424.43,-84.35"/>
<polygon fill="#63b8ff" stroke="#63b8ff" points="632.33,-124.77 642.79,-123.07 633.56,-117.88 632.33,-124.77"/>
</a>
</g>
</g>
<!-- Node10 -->
<g id="Node000010" class="node">
<title>Node10</title>
<g id="a_Node000010"><a xlink:href="calibrate_8h.html" target="_top" xlink:title="opt::calibrate source file">
<polygon fill="white" stroke="#666666" points="541.62,-80.12 442.38,-80.12 442.38,-60.88 541.62,-60.88 541.62,-80.12"/>
<text text-anchor="middle" x="492" y="-66.62" font-family="Helvetica,sans-Serif" font-size="10.00">optimize/calibrate.h</text>
</a>
</g>
</g>
<!-- Node4&#45;&gt;Node10 -->
<g id="edge11_Node000004_Node000010" class="edge">
<title>Node4&#45;&gt;Node10</title>
<g id="a_edge11_Node000004_Node000010"><a xlink:title=" ">
<path fill="none" stroke="#63b8ff" d="M643.67,-118.01C607.19,-106.82 554.32,-90.61 521.61,-80.58"/>
<polygon fill="#63b8ff" stroke="#63b8ff" points="642.39,-121.28 652.97,-120.86 644.44,-114.58 642.39,-121.28"/>
</a>
</g>
</g>
<!-- Node11 -->
<g id="Node000011" class="node">
<title>Node11</title>
<g id="a_Node000011"><a xlink:href="_simulation_parameters_8h.html" target="_top" xlink:title="Source file to read simulation configuration.">
<polygon fill="white" stroke="#666666" points="705.88,-80.12 560.12,-80.12 560.12,-60.88 705.88,-60.88 705.88,-80.12"/>
<text text-anchor="middle" x="633" y="-66.62" font-family="Helvetica,sans-Serif" font-size="10.00">solve/SimulationParameters.h</text>
</a>
</g>
</g>
<!-- Node4&#45;&gt;Node11 -->
<g id="edge12_Node000004_Node000011" class="edge">
<title>Node4&#45;&gt;Node11</title>
<g id="a_edge12_Node000004_Node000011"><a xlink:title=" ">
<path fill="none" stroke="#63b8ff" d="M668.87,-112.91C659.65,-102.27 648.26,-89.11 640.82,-80.53"/>
<polygon fill="#63b8ff" stroke="#63b8ff" points="666.07,-115.02 675.26,-120.29 671.36,-110.44 666.07,-115.02"/>
</a>
</g>
</g>
<!-- Node12 -->
<g id="Node000012" class="node">
<title>Node12</title>
<g id="a_Node000012"><a xlink:href="csv__writer_8h.html" target="_top" xlink:title="csv_writer source file">
<polygon fill="white" stroke="#666666" points="974.38,-80.12 879.62,-80.12 879.62,-60.88 974.38,-60.88 974.38,-80.12"/>
<text text-anchor="middle" x="927" y="-66.62" font-family="Helvetica,sans-Serif" font-size="10.00">solve/csv_writer.h</text>
</a>
</g>
</g>
<!-- Node4&#45;&gt;Node12 -->
<g id="edge15_Node000004_Node000012" class="edge">
<title>Node4&#45;&gt;Node12</title>
<g id="a_edge15_Node000004_Node000012"><a xlink:title=" ">
<path fill="none" stroke="#63b8ff" d="M733.9,-118.68C771.6,-109.79 824.6,-97.19 871,-85.75 877.72,-84.09 884.89,-82.29 891.77,-80.55"/>
<polygon fill="#63b8ff" stroke="#63b8ff" points="733.13,-115.27 724.19,-120.97 734.73,-122.08 733.13,-115.27"/>
</a>
</g>
</g>
<!-- Node5&#45;&gt;Node6 -->
<g id="edge5_Node000005_Node000006" class="edge">
<title>Node5&#45;&gt;Node6</title>
<g id="a_edge5_Node000005_Node000006"><a xlink:title=" ">
<path fill="none" stroke="#63b8ff" d="M839.69,-55.33C861.35,-44.24 890.81,-29.15 909.37,-19.65"/>
<polygon fill="#63b8ff" stroke="#63b8ff" points="838.12,-52.2 830.81,-59.87 841.31,-58.43 838.12,-52.2"/>
</a>
</g>
</g>
<!-- Node5&#45;&gt;Node7 -->
<g id="edge6_Node000005_Node000007" class="edge">
<title>Node5&#45;&gt;Node7</title>
<g id="a_edge6_Node000005_Node000007"><a xlink:title=" ">
<path fill="none" stroke="#63b8ff" d="M790.97,-53.63C776.54,-42.73 757.91,-28.67 745.96,-19.65"/>
<polygon fill="#63b8ff" stroke="#63b8ff" points="788.86,-56.42 798.95,-59.65 793.07,-50.83 788.86,-56.42"/>
</a>
</g>
</g>
<!-- Node8&#45;&gt;Node4 -->
<g id="edge9_Node000008_Node000004" class="edge">
<title>Node8&#45;&gt;Node4</title>
<g id="a_edge9_Node000008_Node000004"><a xlink:title=" ">
<path fill="none" stroke="#63b8ff" d="M254.47,-82.24C263.1,-83.48 271.75,-84.68 280,-85.75 413.38,-103.06 571.62,-118.83 644.22,-126.12"/>
<polygon fill="#63b8ff" stroke="#63b8ff" points="255.05,-78.79 244.65,-80.81 254.05,-85.71 255.05,-78.79"/>
</a>
</g>
</g>
<!-- Node11&#45;&gt;Node7 -->
<g id="edge13_Node000011_Node000007" class="edge">
<title>Node11&#45;&gt;Node7</title>
<g id="a_edge13_Node000011_Node000007"><a xlink:title=" ">
<path fill="none" stroke="#63b8ff" d="M658.1,-54.87C677.05,-43.82 702.44,-29.02 718.52,-19.65"/>
<polygon fill="#63b8ff" stroke="#63b8ff" points="656.52,-51.74 649.65,-59.8 660.05,-57.78 656.52,-51.74"/>
</a>
</g>
</g>
<!-- Node12&#45;&gt;Node6 -->
<g id="edge16_Node000012_Node000006" class="edge">
<title>Node12&#45;&gt;Node6</title>
<g id="a_edge16_Node000012_Node000006"><a xlink:title=" ">
<path fill="none" stroke="#63b8ff" d="M927,-49.07C927,-39.04 927,-27.46 927,-19.65"/>
<polygon fill="#63b8ff" stroke="#63b8ff" points="923.5,-49.04 927,-59.04 930.5,-49.04 923.5,-49.04"/>
</a>
</g>
</g>
<!-- Node13&#45;&gt;Node4 -->
<g id="edge20_Node000013_Node000004" class="edge">
<title>Node13&#45;&gt;Node4</title>
<g id="a_edge20_Node000013_Node000004"><a xlink:title=" ">
<path fill="none" stroke="#63b8ff" d="M541.99,-292.23C553.78,-284.2 567.82,-273.75 579,-262.75 613.1,-229.22 613.57,-213.89 644,-177 654.46,-164.32 667.25,-150.29 675.5,-141.41"/>
<polygon fill="#63b8ff" stroke="#63b8ff" points="540.4,-289.08 533.99,-297.52 544.26,-294.92 540.4,-289.08"/>
</a>
</g>
</g>
<!-- Node13&#45;&gt;Node14 -->
<g id="edge18_Node000013_Node000014" class="edge">
<title>Node13&#45;&gt;Node14</title>
<g id="a_edge18_Node000013_Node000014"><a xlink:title=" ">
<path fill="none" stroke="#63b8ff" d="M510.72,-288C507.53,-279.49 503.93,-269.9 501.37,-263.11"/>
<polygon fill="#63b8ff" stroke="#63b8ff" points="507.37,-289.03 514.17,-297.16 513.93,-286.57 507.37,-289.03"/>
</a>
</g>
</g>
<!-- Node14&#45;&gt;Node4 -->
<g id="edge19_Node000014_Node000004" class="edge">
<title>Node14&#45;&gt;Node4</title>
<g id="a_edge19_Node000014_Node000004"><a xlink:title=" ">
<path fill="none" stroke="#63b8ff" d="M514.36,-235.14C530.83,-218.73 557.51,-193.94 584,-177 607.71,-161.84 637.42,-149.3 658.28,-141.41"/>
<polygon fill="#63b8ff" stroke="#63b8ff" points="511.92,-232.63 507.4,-242.21 516.91,-237.54 511.92,-232.63"/>
</a>
</g>
</g>
<!-- Node16 -->
<g id="Node000016" class="node">
<title>Node16</title>
<g id="a_Node000016"><a xlink:href="_closed_loop_coronary_left_b_c_8h.html" target="_top" xlink:title="Left side of ClosedLoopCoronaryBC.">
<polygon fill="white" stroke="#666666" points="952.62,-207.5 817.38,-207.5 817.38,-177 952.62,-177 952.62,-207.5"/>
<text text-anchor="start" x="825.38" y="-194" font-family="Helvetica,sans-Serif" font-size="10.00">model/ClosedLoopCoronary</text>
<text text-anchor="middle" x="885" y="-182.75" font-family="Helvetica,sans-Serif" font-size="10.00">LeftBC.h</text>
</a>
</g>
</g>
<!-- Node15&#45;&gt;Node16 -->
<g id="edge24_Node000015_Node000016" class="edge">
<title>Node15&#45;&gt;Node16</title>
<g id="a_edge24_Node000015_Node000016"><a xlink:title=" ">
<path fill="none" stroke="#63b8ff" d="M774.63,-238.69C796.91,-229.52 826.41,-217.37 849.31,-207.94"/>
<polygon fill="#63b8ff" stroke="#63b8ff" points="773.34,-235.44 765.43,-242.48 776.01,-241.91 773.34,-235.44"/>
</a>
</g>
</g>
<!-- Node17 -->
<g id="Node000017" class="node">
<title>Node17</title>
<g id="a_Node000017"><a xlink:href="_closed_loop_coronary_right_b_c_8h.html" target="_top" xlink:title="Right side of ClosedLoopCoronaryBC.">
<polygon fill="white" stroke="#666666" points="799.62,-207.5 664.38,-207.5 664.38,-177 799.62,-177 799.62,-207.5"/>
<text text-anchor="start" x="672.38" y="-194" font-family="Helvetica,sans-Serif" font-size="10.00">model/ClosedLoopCoronary</text>
<text text-anchor="middle" x="732" y="-182.75" font-family="Helvetica,sans-Serif" font-size="10.00">RightBC.h</text>
</a>
</g>
</g>
<!-- Node15&#45;&gt;Node17 -->
<g id="edge26_Node000015_Node000017" class="edge">
<title>Node15&#45;&gt;Node17</title>
<g id="a_edge26_Node000015_Node000017"><a xlink:title=" ">
<path fill="none" stroke="#63b8ff" d="M738.57,-231.92C737.22,-223.99 735.7,-215.06 734.47,-207.78"/>
<polygon fill="#63b8ff" stroke="#63b8ff" points="735.1,-232.42 740.23,-241.69 742,-231.25 735.1,-232.42"/>
</a>
</g>
</g>
<!-- Node16&#45;&gt;Node4 -->
<g id="edge25_Node000016_Node000004" class="edge">
<title>Node16&#45;&gt;Node4</title>
<g id="a_edge25_Node000016_Node000004"><a xlink:title=" ">
<path fill="none" stroke="#63b8ff" d="M823.93,-173.36C787.99,-162.83 744.06,-149.97 715.12,-141.49"/>
<polygon fill="#63b8ff" stroke="#63b8ff" points="822.76,-176.67 833.35,-176.12 824.73,-169.95 822.76,-176.67"/>
</a>
</g>
</g>
<!-- Node17&#45;&gt;Node4 -->
<g id="edge27_Node000017_Node000004" class="edge">
<title>Node17&#45;&gt;Node4</title>
<g id="a_edge27_Node000017_Node000004"><a xlink:title=" ">
<path fill="none" stroke="#63b8ff" d="M712.93,-167.86C705.38,-158.59 697.14,-148.5 691.4,-141.45"/>
<polygon fill="#63b8ff" stroke="#63b8ff" points="710.15,-169.98 719.18,-175.52 715.57,-165.56 710.15,-169.98"/>
</a>
</g>
</g>
<!-- Node18&#45;&gt;Node4 -->
<g id="edge30_Node000018_Node000004" class="edge">
<title>Node18&#45;&gt;Node4</title>
<g id="a_edge30_Node000018_Node000004"><a xlink:title=" ">
<path fill="none" stroke="#63b8ff" d="M665.34,-288.56C661.21,-280.86 657.08,-271.67 655,-262.75 646.35,-225.63 644.17,-213.54 655,-177 659.04,-163.36 668.72,-149.98 675.78,-141.49"/>
<polygon fill="#63b8ff" stroke="#63b8ff" points="662.16,-290.06 670.19,-296.96 668.22,-286.55 662.16,-290.06"/>
</a>
</g>
</g>
<!-- Node18&#45;&gt;Node15 -->
<g id="edge29_Node000018_Node000015" class="edge">
<title>Node18&#45;&gt;Node15</title>
<g id="a_edge29_Node000018_Node000015"><a xlink:title=" ">
<path fill="none" stroke="#63b8ff" d="M696.79,-291.16C708.08,-281.92 721.79,-270.68 731.14,-263.02"/>
<polygon fill="#63b8ff" stroke="#63b8ff" points="694.71,-288.34 689.2,-297.38 699.15,-293.75 694.71,-288.34"/>
</a>
</g>
</g>
<!-- Node19&#45;&gt;Node4 -->
<g id="edge32_Node000019_Node000004" class="edge">
<title>Node19&#45;&gt;Node4</title>
<g id="a_edge32_Node000019_Node000004"><a xlink:title=" ">
<path fill="none" stroke="#63b8ff" d="M118.18,-236.56C143.58,-218.8 188.1,-190.49 231,-177 307.71,-152.89 548.71,-138.91 644.34,-134.19"/>
<polygon fill="#63b8ff" stroke="#63b8ff" points="116.47,-233.48 110.36,-242.13 120.54,-239.18 116.47,-233.48"/>
</a>
</g>
</g>
<!-- Node20&#45;&gt;Node4 -->
<g id="edge34_Node000020_Node000004" class="edge">
<title>Node20&#45;&gt;Node4</title>
<g id="a_edge34_Node000020_Node000004"><a xlink:title=" ">
<path fill="none" stroke="#63b8ff" d="M1002.52,-294.49C1021.11,-287.21 1042.61,-276.72 1059,-262.75 1090.59,-235.82 1123.73,-207.89 1096,-177 1071.4,-149.59 822.6,-137.48 723.97,-133.73"/>
<polygon fill="#63b8ff" stroke="#63b8ff" points="1001.55,-291.12 993.4,-297.88 1003.99,-297.68 1001.55,-291.12"/>
</a>
</g>
</g>
<!-- Node21&#45;&gt;Node4 -->
<g id="edge36_Node000021_Node000004" class="edge">
<title>Node21&#45;&gt;Node4</title>
<g id="a_edge36_Node000021_Node000004"><a xlink:title=" ">
<path fill="none" stroke="#63b8ff" d="M347.33,-179.6C351.6,-178.66 355.87,-177.78 360,-177 461.68,-157.77 582.8,-143.3 644.14,-136.56"/>
<polygon fill="#63b8ff" stroke="#63b8ff" points="346.57,-176.18 337.6,-181.82 348.13,-183 346.57,-176.18"/>
</a>
</g>
</g>
<!-- Node22&#45;&gt;Node4 -->
<g id="edge39_Node000022_Node000004" class="edge">
<title>Node22&#45;&gt;Node4</title>
<g id="a_edge39_Node000022_Node000004"><a xlink:title=" ">
<path fill="none" stroke="#63b8ff" d="M1127.2,-287.3C1134.64,-258.74 1142.92,-206.56 1115,-177 1088.4,-148.83 825.53,-137.1 723.86,-133.59"/>
<polygon fill="#63b8ff" stroke="#63b8ff" points="1123.86,-286.25 1124.49,-296.83 1130.59,-288.17 1123.86,-286.25"/>
</a>
</g>
</g>
<!-- Node23&#45;&gt;Node4 -->
<g id="edge41_Node000023_Node000004" class="edge">
<title>Node23&#45;&gt;Node4</title>
<g id="a_edge41_Node000023_Node000004"><a xlink:title=" ">
<path fill="none" stroke="#63b8ff" d="M1274.81,-289.57C1250.26,-260.25 1196.75,-202.51 1137,-177 1062.96,-145.38 819.82,-135.83 723.66,-133.24"/>
<polygon fill="#63b8ff" stroke="#63b8ff" points="1271.98,-291.65 1281.03,-297.17 1277.4,-287.21 1271.98,-291.65"/>
</a>
</g>
</g>
<!-- Node24&#45;&gt;Node4 -->
<g id="edge43_Node000024_Node000004" class="edge">
<title>Node24&#45;&gt;Node4</title>
<g id="a_edge43_Node000024_Node000004"><a xlink:title=" ">
<path fill="none" stroke="#63b8ff" d="M1415.95,-292.24C1371.61,-263.99 1270.44,-203.68 1176,-177 1091.19,-153.04 825.5,-138.79 723.98,-134.1"/>
<polygon fill="#63b8ff" stroke="#63b8ff" points="1413.91,-295.09 1424.22,-297.56 1417.7,-289.21 1413.91,-295.09"/>
</a>
</g>
</g>
<!-- Node25&#45;&gt;Node4 -->
<g id="edge45_Node000025_Node000004" class="edge">
<title>Node25&#45;&gt;Node4</title>
<g id="a_edge45_Node000025_Node000004"><a xlink:title=" ">
<path fill="none" stroke="#63b8ff" d="M511.52,-179.17C552.78,-167.98 613.24,-151.57 650.53,-141.46"/>
<polygon fill="#63b8ff" stroke="#63b8ff" points="510.63,-175.79 501.89,-181.78 512.46,-182.54 510.63,-175.79"/>
</a>
</g>
</g>
<!-- Node26&#45;&gt;Node4 -->
<g id="edge47_Node000026_Node000004" class="edge">
<title>Node26&#45;&gt;Node4</title>
<g id="a_edge47_Node000026_Node000004"><a xlink:title=" ">
<path fill="none" stroke="#63b8ff" d="M974.27,-179.65C970.13,-178.71 965.99,-177.81 962,-177 877.68,-159.9 777.9,-145.22 723.78,-137.72"/>
<polygon fill="#63b8ff" stroke="#63b8ff" points="973.13,-182.97 983.67,-181.85 974.73,-176.16 973.13,-182.97"/>
</a>
</g>
</g>
<!-- Node27&#45;&gt;Node4 -->
<g id="edge49_Node000027_Node000004" class="edge">
<title>Node27&#45;&gt;Node4</title>
<g id="a_edge49_Node000027_Node000004"><a xlink:title=" ">
<path fill="none" stroke="#63b8ff" d="M1039.34,-238.9C1054.71,-232.11 1070.08,-222.09 1079,-207.5 1086.07,-195.93 1088.03,-187.11 1079,-177 1055.58,-150.78 819.23,-138.03 723.72,-133.92"/>
<polygon fill="#63b8ff" stroke="#63b8ff" points="1038.19,-235.59 1030.19,-242.53 1040.78,-242.09 1038.19,-235.59"/>
</a>
</g>
</g>
</g>
</svg>
