<?xml version="1.0" encoding="UTF-8" standalone="no"?>
<!DOCTYPE svg PUBLIC "-//W3C//DTD SVG 1.1//EN"
 "http://www.w3.org/Graphics/SVG/1.1/DTD/svg11.dtd">
<!-- Generated by graphviz version 12.2.1 (20241206.2353)
 -->
<!-- Title: algebra/SparseSystem.h Pages: 1 -->
<svg width="2415pt" height="437pt"
 viewBox="0.00 0.00 2415.00 436.50" xmlns="http://www.w3.org/2000/svg" xmlns:xlink="http://www.w3.org/1999/xlink">
<g id="graph0" class="graph" transform="scale(1 1) rotate(0) translate(4 432.5)">
<title>algebra/SparseSystem.h</title>
<!-- Node1 -->
<g id="Node000001" class="node">
<title>Node1</title>
<g id="a_Node000001"><a xlink:title="SparseSystem source file.">
<polygon fill="#999999" stroke="#666666" points="1239.88,-428.5 1118.12,-428.5 1118.12,-409.25 1239.88,-409.25 1239.88,-428.5"/>
<text text-anchor="middle" x="1179" y="-415" font-family="Helvetica,sans-Serif" font-size="10.00">algebra/SparseSystem.h</text>
</a>
</g>
</g>
<!-- Node2 -->
<g id="Node000002" class="node">
<title>Node2</title>
<g id="a_Node000002"><a xlink:href="interface_8h.html" target="_top" xlink:title="svZeroDSolver callable interface.">
<polygon fill="white" stroke="#666666" points="1319.75,-19.25 1218.25,-19.25 1218.25,0 1319.75,0 1319.75,-19.25"/>
<text text-anchor="middle" x="1269" y="-5.75" font-family="Helvetica,sans-Serif" font-size="10.00">interface/interface.h</text>
</a>
</g>
</g>
<!-- Node1&#45;&gt;Node2 -->
<g id="edge1_Node000001_Node000002" class="edge">
<title>Node1&#45;&gt;Node2</title>
<g id="a_edge1_Node000001_Node000002"><a xlink:title=" ">
<path fill="none" stroke="#63b8ff" d="M1251.66,-415.29C1515.42,-405.41 2407,-367.73 2407,-309.38 2407,-309.38 2407,-309.38 2407,-130.38 2407,-19.5 1541.54,-10.94 1320.11,-10.56"/>
<polygon fill="#63b8ff" stroke="#63b8ff" points="1251.69,-411.78 1241.83,-415.65 1251.95,-418.78 1251.69,-411.78"/>
</a>
</g>
</g>
<!-- Node3 -->
<g id="Node000003" class="node">
<title>Node3</title>
<g id="a_Node000003"><a xlink:href="_block_8h.html" target="_top" xlink:title="model::Block source file">
<polygon fill="white" stroke="#666666" points="1065.75,-373.25 988.25,-373.25 988.25,-354 1065.75,-354 1065.75,-373.25"/>
<text text-anchor="middle" x="1027" y="-359.75" font-family="Helvetica,sans-Serif" font-size="10.00">model/Block.h</text>
</a>
</g>
</g>
<!-- Node1&#45;&gt;Node3 -->
<g id="edge2_Node000001_Node000003" class="edge">
<title>Node1&#45;&gt;Node3</title>
<g id="a_edge2_Node000001_Node000003"><a xlink:title=" ">
<path fill="none" stroke="#63b8ff" d="M1142.4,-405.05C1114.76,-395.37 1077.52,-382.32 1052.91,-373.7"/>
<polygon fill="#63b8ff" stroke="#63b8ff" points="1141.19,-408.34 1151.79,-408.34 1143.51,-401.73 1141.19,-408.34"/>
</a>
</g>
</g>
<!-- Node8 -->
<g id="Node000008" class="node">
<title>Node8</title>
<g id="a_Node000008"><a xlink:href="_chamber_elastance_inductor_8h.html" target="_top" xlink:title="model::ChamberElastanceInductor source file">
<polygon fill="white" stroke="#666666" points="366.88,-80.12 197.12,-80.12 197.12,-60.88 366.88,-60.88 366.88,-80.12"/>
<text text-anchor="middle" x="282" y="-66.62" font-family="Helvetica,sans-Serif" font-size="10.00">model/ChamberElastanceInductor.h</text>
</a>
</g>
</g>
<!-- Node1&#45;&gt;Node8 -->
<g id="edge64_Node000001_Node000008" class="edge">
<title>Node1&#45;&gt;Node8</title>
<g id="a_edge64_Node000001_Node000008"><a xlink:title=" ">
<path fill="none" stroke="#63b8ff" d="M1106.53,-417.17C879.33,-414.66 190.45,-404.51 95,-373.25 46.65,-357.41 0,-360.25 0,-309.38 0,-309.38 0,-309.38 0,-191.25 0,-104.82 113.63,-79.86 196.63,-73.16"/>
<polygon fill="#63b8ff" stroke="#63b8ff" points="1106.4,-420.67 1116.44,-417.28 1106.48,-413.67 1106.4,-420.67"/>
</a>
</g>
</g>
<!-- Node9 -->
<g id="Node000009" class="node">
<title>Node9</title>
<g id="a_Node000009"><a xlink:href="_piecewise_cosine_chamber_8h.html" target="_top" xlink:title="model::PiecewiseCosineChamber source file">
<polygon fill="white" stroke="#666666" points="667.38,-80.12 500.62,-80.12 500.62,-60.88 667.38,-60.88 667.38,-80.12"/>
<text text-anchor="middle" x="584" y="-66.62" font-family="Helvetica,sans-Serif" font-size="10.00">model/PiecewiseCosineChamber.h</text>
</a>
</g>
</g>
<!-- Node1&#45;&gt;Node9 -->
<g id="edge72_Node000001_Node000009" class="edge">
<title>Node1&#45;&gt;Node9</title>
<g id="a_edge72_Node000001_Node000009"><a xlink:title=" ">
<path fill="none" stroke="#63b8ff" d="M1106.48,-418.61C855.34,-420.22 38,-417.16 38,-309.38 38,-309.38 38,-309.38 38,-191.25 38,-143.94 354.8,-99.22 505.77,-80.6"/>
<polygon fill="#63b8ff" stroke="#63b8ff" points="1106.17,-422.11 1116.14,-418.54 1106.12,-415.11 1106.17,-422.11"/>
</a>
</g>
</g>
<!-- Node14 -->
<g id="Node000014" class="node">
<title>Node14</title>
<g id="a_Node000014"><a xlink:href="_blood_vessel_8h.html" target="_top" xlink:title="model::BloodVessel source file">
<polygon fill="white" stroke="#666666" points="649.75,-318 542.25,-318 542.25,-298.75 649.75,-298.75 649.75,-318"/>
<text text-anchor="middle" x="596" y="-304.5" font-family="Helvetica,sans-Serif" font-size="10.00">model/BloodVessel.h</text>
</a>
</g>
</g>
<!-- Node1&#45;&gt;Node14 -->
<g id="edge61_Node000001_Node000014" class="edge">
<title>Node1&#45;&gt;Node14</title>
<g id="a_edge61_Node000001_Node000014"><a xlink:title=" ">
<path fill="none" stroke="#63b8ff" d="M1106.42,-417.4C983.74,-415.64 741.19,-407.75 664,-373.25 636.5,-360.96 613.06,-332.81 602.3,-318.33"/>
<polygon fill="#63b8ff" stroke="#63b8ff" points="1106.35,-420.9 1116.4,-417.53 1106.44,-413.9 1106.35,-420.9"/>
</a>
</g>
</g>
<!-- Node15 -->
<g id="Node000015" class="node">
<title>Node15</title>
<g id="a_Node000015"><a xlink:href="_blood_vessel_junction_8h.html" target="_top" xlink:title="model::BloodVesselJunction source file">
<polygon fill="white" stroke="#666666" points="831.12,-262.75 686.88,-262.75 686.88,-243.5 831.12,-243.5 831.12,-262.75"/>
<text text-anchor="middle" x="759" y="-249.25" font-family="Helvetica,sans-Serif" font-size="10.00">model/BloodVesselJunction.h</text>
</a>
</g>
</g>
<!-- Node1&#45;&gt;Node15 -->
<g id="edge63_Node000001_Node000015" class="edge">
<title>Node1&#45;&gt;Node15</title>
<g id="a_edge63_Node000001_Node000015"><a xlink:title=" ">
<path fill="none" stroke="#63b8ff" d="M1106.28,-413.98C984.14,-405.71 746.3,-381.65 697,-318 680.63,-296.86 714.7,-275.12 738.51,-263.25"/>
<polygon fill="#63b8ff" stroke="#63b8ff" points="1106.01,-417.47 1116.21,-414.63 1106.47,-410.48 1106.01,-417.47"/>
</a>
</g>
</g>
<!-- Node16 -->
<g id="Node000016" class="node">
<title>Node16</title>
<g id="a_Node000016"><a xlink:href="_blood_vessel_c_r_l_8h.html" target="_top" xlink:title="model::BloodVesselCRL source file">
<polygon fill="white" stroke="#666666" points="833.5,-318 706.5,-318 706.5,-298.75 833.5,-298.75 833.5,-318"/>
<text text-anchor="middle" x="770" y="-304.5" font-family="Helvetica,sans-Serif" font-size="10.00">model/BloodVesselCRL.h</text>
</a>
</g>
</g>
<!-- Node1&#45;&gt;Node16 -->
<g id="edge62_Node000001_Node000016" class="edge">
<title>Node1&#45;&gt;Node16</title>
<g id="a_edge62_Node000001_Node000016"><a xlink:title=" ">
<path fill="none" stroke="#63b8ff" d="M1122.3,-406.44C1082.1,-398.04 1027,-385.92 979,-373.25 913.15,-355.87 836.89,-331.46 797.19,-318.42"/>
<polygon fill="#63b8ff" stroke="#63b8ff" points="1121.5,-409.85 1132,-408.45 1122.92,-402.99 1121.5,-409.85"/>
</a>
</g>
</g>
<!-- Node17 -->
<g id="Node000017" class="node">
<title>Node17</title>
<g id="a_Node000017"><a xlink:href="_chamber_sphere_8h.html" target="_top" xlink:title="model::ChamberSphere source file">
<polygon fill="white" stroke="#666666" points="1088.25,-318 965.75,-318 965.75,-298.75 1088.25,-298.75 1088.25,-318"/>
<text text-anchor="middle" x="1027" y="-304.5" font-family="Helvetica,sans-Serif" font-size="10.00">model/ChamberSphere.h</text>
</a>
</g>
</g>
<!-- Node1&#45;&gt;Node17 -->
<g id="edge65_Node000001_Node000017" class="edge">
<title>Node1&#45;&gt;Node17</title>
<g id="a_edge65_Node000001_Node000017"><a xlink:title=" ">
<path fill="none" stroke="#63b8ff" d="M1157.23,-402.33C1124.94,-379.29 1065.43,-336.8 1039.55,-318.34"/>
<polygon fill="#63b8ff" stroke="#63b8ff" points="1154.9,-404.97 1165.07,-407.93 1158.96,-399.27 1154.9,-404.97"/>
</a>
</g>
</g>
<!-- Node18 -->
<g id="Node000018" class="node">
<title>Node18</title>
<g id="a_Node000018"><a xlink:href="_closed_loop_coronary_b_c_8h.html" target="_top" xlink:title="model::ClosedLoopCoronaryBC source file">
<polygon fill="white" stroke="#666666" points="1309.12,-262.75 1152.88,-262.75 1152.88,-243.5 1309.12,-243.5 1309.12,-262.75"/>
<text text-anchor="middle" x="1231" y="-249.25" font-family="Helvetica,sans-Serif" font-size="10.00">model/ClosedLoopCoronaryBC.h</text>
</a>
</g>
</g>
<!-- Node1&#45;&gt;Node18 -->
<g id="edge66_Node000001_Node000018" class="edge">
<title>Node1&#45;&gt;Node18</title>
<g id="a_edge66_Node000001_Node000018"><a xlink:title=" ">
<path fill="none" stroke="#63b8ff" d="M1216.34,-404.61C1252.05,-389.68 1303.79,-361.66 1327,-318 1341.61,-290.51 1303.05,-272.85 1270.52,-263.22"/>
<polygon fill="#63b8ff" stroke="#63b8ff" points="1215.21,-401.29 1207.23,-408.26 1217.81,-407.79 1215.21,-401.29"/>
</a>
</g>
</g>
<!-- Node21 -->
<g id="Node000021" class="node">
<title>Node21</title>
<g id="a_Node000021"><a xlink:href="_closed_loop_heart_pulmonary_8h.html" target="_top" xlink:title="model::ClosedLoopHeartPulmonary source file">
<polygon fill="white" stroke="#666666" points="1318.12,-318 1143.88,-318 1143.88,-298.75 1318.12,-298.75 1318.12,-318"/>
<text text-anchor="middle" x="1231" y="-304.5" font-family="Helvetica,sans-Serif" font-size="10.00">model/ClosedLoopHeartPulmonary.h</text>
</a>
</g>
</g>
<!-- Node1&#45;&gt;Node21 -->
<g id="edge67_Node000001_Node000021" class="edge">
<title>Node1&#45;&gt;Node21</title>
<g id="a_edge67_Node000001_Node000021"><a xlink:title=" ">
<path fill="none" stroke="#63b8ff" d="M1188.13,-398.83C1199.44,-375.22 1218.26,-335.96 1226.69,-318.38"/>
<polygon fill="#63b8ff" stroke="#63b8ff" points="1185.08,-397.1 1183.91,-407.63 1191.39,-400.13 1185.08,-397.1"/>
</a>
</g>
</g>
<!-- Node22 -->
<g id="Node000022" class="node">
<title>Node22</title>
<g id="a_Node000022"><a xlink:href="_closed_loop_r_c_r_b_c_8h.html" target="_top" xlink:title="model::ClosedLoopRCRBC source file">
<polygon fill="white" stroke="#666666" points="1512.12,-318 1373.88,-318 1373.88,-298.75 1512.12,-298.75 1512.12,-318"/>
<text text-anchor="middle" x="1443" y="-304.5" font-family="Helvetica,sans-Serif" font-size="10.00">model/ClosedLoopRCRBC.h</text>
</a>
</g>
</g>
<!-- Node1&#45;&gt;Node22 -->
<g id="edge68_Node000001_Node000022" class="edge">
<title>Node1&#45;&gt;Node22</title>
<g id="a_edge68_Node000001_Node000022"><a xlink:title=" ">
<path fill="none" stroke="#63b8ff" d="M1251.54,-407.11C1285.6,-400.29 1326.07,-389.59 1360,-373.25 1390.14,-358.73 1419.83,-332.09 1434.15,-318.25"/>
<polygon fill="#63b8ff" stroke="#63b8ff" points="1250.9,-403.67 1241.73,-408.99 1252.22,-410.54 1250.9,-403.67"/>
</a>
</g>
</g>
<!-- Node23 -->
<g id="Node000023" class="node">
<title>Node23</title>
<g id="a_Node000023"><a xlink:href="_flow_reference_b_c_8h.html" target="_top" xlink:title="model::FlowReferenceBC source file">
<polygon fill="white" stroke="#666666" points="1661.75,-318 1530.25,-318 1530.25,-298.75 1661.75,-298.75 1661.75,-318"/>
<text text-anchor="middle" x="1596" y="-304.5" font-family="Helvetica,sans-Serif" font-size="10.00">model/FlowReferenceBC.h</text>
</a>
</g>
</g>
<!-- Node1&#45;&gt;Node23 -->
<g id="edge69_Node000001_Node000023" class="edge">
<title>Node1&#45;&gt;Node23</title>
<g id="a_edge69_Node000001_Node000023"><a xlink:title=" ">
<path fill="none" stroke="#63b8ff" d="M1238.86,-406.64C1281.06,-398.36 1338.77,-386.31 1389,-373.25 1454.52,-356.22 1530.24,-331.56 1569.42,-318.42"/>
<polygon fill="#63b8ff" stroke="#63b8ff" points="1238.3,-403.19 1229.15,-408.53 1239.64,-410.06 1238.3,-403.19"/>
</a>
</g>
</g>
<!-- Node24 -->
<g id="Node000024" class="node">
<title>Node24</title>
<g id="a_Node000024"><a xlink:href="_junction_8h.html" target="_top" xlink:title="model::Junction source file">
<polygon fill="white" stroke="#666666" points="1769.75,-318 1680.25,-318 1680.25,-298.75 1769.75,-298.75 1769.75,-318"/>
<text text-anchor="middle" x="1725" y="-304.5" font-family="Helvetica,sans-Serif" font-size="10.00">model/Junction.h</text>
</a>
</g>
</g>
<!-- Node1&#45;&gt;Node24 -->
<g id="edge70_Node000001_Node000024" class="edge">
<title>Node1&#45;&gt;Node24</title>
<g id="a_edge70_Node000001_Node000024"><a xlink:title=" ">
<path fill="none" stroke="#63b8ff" d="M1246.92,-406.88C1298.6,-398.3 1371.42,-385.79 1435,-373.25 1525.29,-355.45 1630.66,-331.42 1686.18,-318.5"/>
<polygon fill="#63b8ff" stroke="#63b8ff" points="1246.36,-403.42 1237.06,-408.51 1247.5,-410.33 1246.36,-403.42"/>
</a>
</g>
</g>
<!-- Node25 -->
<g id="Node000025" class="node">
<title>Node25</title>
<g id="a_Node000025"><a xlink:href="_open_loop_coronary_b_c_8h.html" target="_top" xlink:title="model::OpenLoopCoronaryBC source file">
<polygon fill="white" stroke="#666666" points="1937.75,-318 1788.25,-318 1788.25,-298.75 1937.75,-298.75 1937.75,-318"/>
<text text-anchor="middle" x="1863" y="-304.5" font-family="Helvetica,sans-Serif" font-size="10.00">model/OpenLoopCoronaryBC.h</text>
</a>
</g>
</g>
<!-- Node1&#45;&gt;Node25 -->
<g id="edge71_Node000001_Node000025" class="edge">
<title>Node1&#45;&gt;Node25</title>
<g id="a_edge71_Node000001_Node000025"><a xlink:title=" ">
<path fill="none" stroke="#63b8ff" d="M1251.28,-408.22C1314.98,-399.57 1410.26,-386.27 1493,-373.25 1607.78,-355.19 1742.1,-331.31 1813.11,-318.47"/>
<polygon fill="#63b8ff" stroke="#63b8ff" points="1251.1,-404.72 1241.66,-409.53 1252.04,-411.65 1251.1,-404.72"/>
</a>
</g>
</g>
<!-- Node26 -->
<g id="Node000026" class="node">
<title>Node26</title>
<g id="a_Node000026"><a xlink:href="_piecewise_valve_8h.html" target="_top" xlink:title="model::PiecewiseValve source file">
<polygon fill="white" stroke="#666666" points="2078.25,-318 1955.75,-318 1955.75,-298.75 2078.25,-298.75 2078.25,-318"/>
<text text-anchor="middle" x="2017" y="-304.5" font-family="Helvetica,sans-Serif" font-size="10.00">model/PiecewiseValve.h</text>
</a>
</g>
</g>
<!-- Node1&#45;&gt;Node26 -->
<g id="edge73_Node000001_Node000026" class="edge">
<title>Node1&#45;&gt;Node26</title>
<g id="a_edge73_Node000001_Node000026"><a xlink:title=" ">
<path fill="none" stroke="#63b8ff" d="M1251.27,-410C1328.51,-401.46 1454.5,-387.18 1563,-373.25 1703.72,-355.18 1868.59,-331.3 1955.75,-318.47"/>
<polygon fill="#63b8ff" stroke="#63b8ff" points="1251.3,-406.48 1241.75,-411.05 1252.07,-413.43 1251.3,-406.48"/>
</a>
</g>
</g>
<!-- Node27 -->
<g id="Node000027" class="node">
<title>Node27</title>
<g id="a_Node000027"><a xlink:href="_pressure_reference_b_c_8h.html" target="_top" xlink:title="model::PressureReferenceBC source file">
<polygon fill="white" stroke="#666666" points="2245.75,-318 2096.25,-318 2096.25,-298.75 2245.75,-298.75 2245.75,-318"/>
<text text-anchor="middle" x="2171" y="-304.5" font-family="Helvetica,sans-Serif" font-size="10.00">model/PressureReferenceBC.h</text>
</a>
</g>
</g>
<!-- Node1&#45;&gt;Node27 -->
<g id="edge74_Node000001_Node000027" class="edge">
<title>Node1&#45;&gt;Node27</title>
<g id="a_edge74_Node000001_Node000027"><a xlink:title=" ">
<path fill="none" stroke="#63b8ff" d="M1251.64,-411.52C1343.53,-403.34 1506.62,-388.39 1646,-373.25 1809.17,-355.53 2000.43,-331.41 2101.01,-318.47"/>
<polygon fill="#63b8ff" stroke="#63b8ff" points="1251.41,-408.03 1241.75,-412.4 1252.03,-415 1251.41,-408.03"/>
</a>
</g>
</g>
<!-- Node28 -->
<g id="Node000028" class="node">
<title>Node28</title>
<g id="a_Node000028"><a xlink:href="_resistance_b_c_8h.html" target="_top" xlink:title="model::ResistanceBC source file">
<polygon fill="white" stroke="#666666" points="2378.5,-318 2263.5,-318 2263.5,-298.75 2378.5,-298.75 2378.5,-318"/>
<text text-anchor="middle" x="2321" y="-304.5" font-family="Helvetica,sans-Serif" font-size="10.00">model/ResistanceBC.h</text>
</a>
</g>
</g>
<!-- Node1&#45;&gt;Node28 -->
<g id="edge75_Node000001_Node000028" class="edge">
<title>Node1&#45;&gt;Node28</title>
<g id="a_edge75_Node000001_Node000028"><a xlink:title=" ">
<path fill="none" stroke="#63b8ff" d="M1251.65,-412.72C1358.49,-404.99 1564.26,-389.56 1739,-373.25 1968.65,-351.81 2025.97,-345.22 2255,-318 2257.64,-317.69 2260.34,-317.36 2263.06,-317.02"/>
<polygon fill="#63b8ff" stroke="#63b8ff" points="1251.6,-409.21 1241.88,-413.42 1252.1,-416.19 1251.6,-409.21"/>
</a>
</g>
</g>
<!-- Node29 -->
<g id="Node000029" class="node">
<title>Node29</title>
<g id="a_Node000029"><a xlink:href="_resistive_junction_8h.html" target="_top" xlink:title="model::ResistiveJunction source file">
<polygon fill="white" stroke="#666666" points="234,-318 104,-318 104,-298.75 234,-298.75 234,-318"/>
<text text-anchor="middle" x="169" y="-304.5" font-family="Helvetica,sans-Serif" font-size="10.00">model/ResistiveJunction.h</text>
</a>
</g>
</g>
<!-- Node1&#45;&gt;Node29 -->
<g id="edge76_Node000001_Node000029" class="edge">
<title>Node1&#45;&gt;Node29</title>
<g id="a_edge76_Node000001_Node000029"><a xlink:title=" ">
<path fill="none" stroke="#63b8ff" d="M1106.63,-417.09C976.44,-414.85 694.37,-406.26 459,-373.25 364.8,-360.04 255.75,-332.69 202.19,-318.45"/>
<polygon fill="#63b8ff" stroke="#63b8ff" points="1106.43,-420.59 1116.48,-417.25 1106.54,-413.59 1106.43,-420.59"/>
</a>
</g>
</g>
<!-- Node30 -->
<g id="Node000030" class="node">
<title>Node30</title>
<g id="a_Node000030"><a xlink:href="_valve_tanh_8h.html" target="_top" xlink:title="model::ValveTanh source file">
<polygon fill="white" stroke="#666666" points="351.62,-318 252.38,-318 252.38,-298.75 351.62,-298.75 351.62,-318"/>
<text text-anchor="middle" x="302" y="-304.5" font-family="Helvetica,sans-Serif" font-size="10.00">model/ValveTanh.h</text>
</a>
</g>
</g>
<!-- Node1&#45;&gt;Node30 -->
<g id="edge77_Node000001_Node000030" class="edge">
<title>Node1&#45;&gt;Node30</title>
<g id="a_edge77_Node000001_Node000030"><a xlink:title=" ">
<path fill="none" stroke="#63b8ff" d="M1106.54,-416.85C989.58,-414.27 752.26,-405.2 554,-373.25 471.79,-360 377.19,-332.67 330.75,-318.44"/>
<polygon fill="#63b8ff" stroke="#63b8ff" points="1106.23,-420.35 1116.3,-417.06 1106.38,-413.35 1106.23,-420.35"/>
</a>
</g>
</g>
<!-- Node31 -->
<g id="Node000031" class="node">
<title>Node31</title>
<g id="a_Node000031"><a xlink:href="_windkessel_b_c_8h.html" target="_top" xlink:title="model::WindkesselBC source file">
<polygon fill="white" stroke="#666666" points="486.25,-318 369.75,-318 369.75,-298.75 486.25,-298.75 486.25,-318"/>
<text text-anchor="middle" x="428" y="-304.5" font-family="Helvetica,sans-Serif" font-size="10.00">model/WindkesselBC.h</text>
</a>
</g>
</g>
<!-- Node1&#45;&gt;Node31 -->
<g id="edge78_Node000001_Node000031" class="edge">
<title>Node1&#45;&gt;Node31</title>
<g id="a_edge78_Node000001_Node000031"><a xlink:title=" ">
<path fill="none" stroke="#63b8ff" d="M1106.24,-417.06C1000.76,-414.72 799.67,-405.92 632,-373.25 564.79,-360.16 488.5,-332.76 451.12,-318.48"/>
<polygon fill="#63b8ff" stroke="#63b8ff" points="1106.11,-420.55 1116.18,-417.26 1106.25,-413.55 1106.11,-420.55"/>
</a>
</g>
</g>
<!-- Node4 -->
<g id="Node000004" class="node">
<title>Node4</title>
<g id="a_Node000004"><a xlink:href="_block_factory_8h.html" target="_top" xlink:title="Define the block factory functional.">
<polygon fill="white" stroke="#666666" points="1034.88,-262.75 925.12,-262.75 925.12,-243.5 1034.88,-243.5 1034.88,-262.75"/>
<text text-anchor="middle" x="980" y="-249.25" font-family="Helvetica,sans-Serif" font-size="10.00">model/BlockFactory.h</text>
</a>
</g>
</g>
<!-- Node3&#45;&gt;Node4 -->
<g id="edge3_Node000003_Node000004" class="edge">
<title>Node3&#45;&gt;Node4</title>
<g id="a_edge3_Node000003_Node000004"><a xlink:title=" ">
<path fill="none" stroke="#63b8ff" d="M990.82,-348.52C977.74,-341.45 964.38,-331.46 957,-318 946.91,-299.6 961.97,-275.91 972.09,-263.18"/>
<polygon fill="#63b8ff" stroke="#63b8ff" points="989.26,-351.65 999.78,-352.91 992.34,-345.36 989.26,-351.65"/>
</a>
</g>
</g>
<!-- Node5 -->
<g id="Node000005" class="node">
<title>Node5</title>
<g id="a_Node000005"><a xlink:href="_model_8h.html" target="_top" xlink:title="model::Model source file">
<polygon fill="white" stroke="#666666" points="1072.5,-141 993.5,-141 993.5,-121.75 1072.5,-121.75 1072.5,-141"/>
<text text-anchor="middle" x="1033" y="-127.5" font-family="Helvetica,sans-Serif" font-size="10.00">model/Model.h</text>
</a>
</g>
</g>
<!-- Node3&#45;&gt;Node5 -->
<g id="edge45_Node000003_Node000005" class="edge">
<title>Node3&#45;&gt;Node5</title>
<g id="a_edge45_Node000003_Node000005"><a xlink:title=" ">
<path fill="none" stroke="#63b8ff" d="M995.73,-348.5C956.42,-328.53 896.33,-289.3 916,-243.5 936.78,-195.11 990.14,-157.86 1017.02,-141.49"/>
<polygon fill="#63b8ff" stroke="#63b8ff" points="994.06,-351.58 1004.58,-352.84 997.14,-345.3 994.06,-351.58"/>
</a>
</g>
</g>
<!-- Node3&#45;&gt;Node8 -->
<g id="edge28_Node000003_Node000008" class="edge">
<title>Node3&#45;&gt;Node8</title>
<g id="a_edge28_Node000003_Node000008"><a xlink:title=" ">
<path fill="none" stroke="#63b8ff" d="M976.51,-361.81C787.39,-358.57 129.91,-345.36 95,-318 71.69,-299.73 76,-283.74 76,-254.12 76,-254.12 76,-254.12 76,-191.25 76,-123.61 160.03,-93.53 220.75,-80.61"/>
<polygon fill="#63b8ff" stroke="#63b8ff" points="976.19,-365.31 986.25,-361.98 976.31,-358.31 976.19,-365.31"/>
</a>
</g>
</g>
<!-- Node3&#45;&gt;Node9 -->
<g id="edge48_Node000003_Node000009" class="edge">
<title>Node3&#45;&gt;Node9</title>
<g id="a_edge48_Node000003_Node000009"><a xlink:title=" ">
<path fill="none" stroke="#63b8ff" d="M976.58,-361.24C857.6,-357.52 566.82,-345.68 533,-318 510.08,-299.24 514,-283.74 514,-254.12 514,-254.12 514,-254.12 514,-191.25 514,-144.05 555.03,-98.93 574.27,-80.37"/>
<polygon fill="#63b8ff" stroke="#63b8ff" points="976.26,-364.73 986.36,-361.54 976.47,-357.73 976.26,-364.73"/>
</a>
</g>
</g>
<!-- Node3&#45;&gt;Node14 -->
<g id="edge20_Node000003_Node000014" class="edge">
<title>Node3&#45;&gt;Node14</title>
<g id="a_edge20_Node000003_Node000014"><a xlink:title=" ">
<path fill="none" stroke="#63b8ff" d="M977.01,-356.45C895.35,-346.36 734.02,-326.43 649.9,-316.03"/>
<polygon fill="#63b8ff" stroke="#63b8ff" points="976.14,-359.87 986.49,-357.62 976.99,-352.92 976.14,-359.87"/>
</a>
</g>
</g>
<!-- Node3&#45;&gt;Node15 -->
<g id="edge27_Node000003_Node000015" class="edge">
<title>Node3&#45;&gt;Node15</title>
<g id="a_edge27_Node000003_Node000015"><a xlink:title=" ">
<path fill="none" stroke="#63b8ff" d="M982.08,-350.4C954.05,-342.28 917.46,-330.79 886,-318 844.85,-301.26 798.78,-276.48 775.05,-263.25"/>
<polygon fill="#63b8ff" stroke="#63b8ff" points="981.1,-353.76 991.68,-353.14 983.02,-347.03 981.1,-353.76"/>
</a>
</g>
</g>
<!-- Node3&#45;&gt;Node16 -->
<g id="edge24_Node000003_Node000016" class="edge">
<title>Node3&#45;&gt;Node16</title>
<g id="a_edge24_Node000003_Node000016"><a xlink:title=" ">
<path fill="none" stroke="#63b8ff" d="M976.73,-352.21C929.28,-342.38 858.88,-327.79 813.71,-318.43"/>
<polygon fill="#63b8ff" stroke="#63b8ff" points="975.98,-355.63 986.49,-354.23 977.4,-348.77 975.98,-355.63"/>
</a>
</g>
</g>
<!-- Node3&#45;&gt;Node17 -->
<g id="edge29_Node000003_Node000017" class="edge">
<title>Node3&#45;&gt;Node17</title>
<g id="a_edge29_Node000003_Node000017"><a xlink:title=" ">
<path fill="none" stroke="#63b8ff" d="M1027,-342.38C1027,-334.09 1027,-324.92 1027,-318.36"/>
<polygon fill="#63b8ff" stroke="#63b8ff" points="1023.5,-342.32 1027,-352.32 1030.5,-342.32 1023.5,-342.32"/>
</a>
</g>
</g>
<!-- Node3&#45;&gt;Node18 -->
<g id="edge31_Node000003_Node000018" class="edge">
<title>Node3&#45;&gt;Node18</title>
<g id="a_edge31_Node000003_Node000018"><a xlink:title=" ">
<path fill="none" stroke="#63b8ff" d="M1050.71,-347.68C1072.34,-334.27 1105.35,-314.36 1135,-298.75 1160.37,-285.39 1190.47,-271.74 1210.11,-263.12"/>
<polygon fill="#63b8ff" stroke="#63b8ff" points="1048.99,-344.63 1042.35,-352.89 1052.69,-350.57 1048.99,-344.63"/>
</a>
</g>
</g>
<!-- Node3&#45;&gt;Node21 -->
<g id="edge36_Node000003_Node000021" class="edge">
<title>Node3&#45;&gt;Node21</title>
<g id="a_edge36_Node000003_Node000021"><a xlink:title=" ">
<path fill="none" stroke="#63b8ff" d="M1072.7,-350.7C1110.09,-340.94 1162.17,-327.34 1196.22,-318.45"/>
<polygon fill="#63b8ff" stroke="#63b8ff" points="1071.86,-347.3 1063.07,-353.21 1073.63,-354.07 1071.86,-347.3"/>
</a>
</g>
</g>
<!-- Node3&#45;&gt;Node22 -->
<g id="edge39_Node000003_Node000022" class="edge">
<title>Node3&#45;&gt;Node22</title>
<g id="a_edge39_Node000003_Node000022"><a xlink:title=" ">
<path fill="none" stroke="#63b8ff" d="M1077.45,-356.17C1151.48,-346.69 1289.8,-328.98 1373.44,-318.28"/>
<polygon fill="#63b8ff" stroke="#63b8ff" points="1077.11,-352.68 1067.64,-357.42 1078,-359.63 1077.11,-352.68"/>
</a>
</g>
</g>
<!-- Node3&#45;&gt;Node23 -->
<g id="edge41_Node000003_Node000023" class="edge">
<title>Node3&#45;&gt;Node23</title>
<g id="a_edge41_Node000003_Node000023"><a xlink:title=" ">
<path fill="none" stroke="#63b8ff" d="M1077.51,-358.47C1166.97,-351.02 1359.09,-334.62 1521,-318 1523.87,-317.71 1526.8,-317.4 1529.76,-317.08"/>
<polygon fill="#63b8ff" stroke="#63b8ff" points="1077.28,-354.98 1067.6,-359.29 1077.86,-361.95 1077.28,-354.98"/>
</a>
</g>
</g>
<!-- Node3&#45;&gt;Node24 -->
<g id="edge43_Node000003_Node000024" class="edge">
<title>Node3&#45;&gt;Node24</title>
<g id="a_edge43_Node000003_Node000024"><a xlink:title=" ">
<path fill="none" stroke="#63b8ff" d="M1077.18,-360.67C1185.76,-356.12 1450.49,-343.2 1671,-318 1673.92,-317.67 1676.93,-317.29 1679.96,-316.88"/>
<polygon fill="#63b8ff" stroke="#63b8ff" points="1077.31,-357.17 1067.46,-361.08 1077.6,-364.16 1077.31,-357.17"/>
</a>
</g>
</g>
<!-- Node3&#45;&gt;Node25 -->
<g id="edge46_Node000003_Node000025" class="edge">
<title>Node3&#45;&gt;Node25</title>
<g id="a_edge46_Node000003_Node000025"><a xlink:title=" ">
<path fill="none" stroke="#63b8ff" d="M1077.64,-360.37C1198.87,-354.82 1515.33,-339.35 1779,-318 1781.92,-317.76 1784.9,-317.51 1787.91,-317.25"/>
<polygon fill="#63b8ff" stroke="#63b8ff" points="1077.53,-356.88 1067.7,-360.83 1077.85,-363.87 1077.53,-356.88"/>
</a>
</g>
</g>
<!-- Node3&#45;&gt;Node26 -->
<g id="edge49_Node000003_Node000026" class="edge">
<title>Node3&#45;&gt;Node26</title>
<g id="a_edge49_Node000003_Node000026"><a xlink:title=" ">
<path fill="none" stroke="#63b8ff" d="M1077.56,-361.49C1216.55,-358.08 1616.09,-346.37 1947,-318 1949.81,-317.76 1952.67,-317.49 1955.57,-317.21"/>
<polygon fill="#63b8ff" stroke="#63b8ff" points="1077.5,-357.99 1067.59,-361.73 1077.67,-364.99 1077.5,-357.99"/>
</a>
</g>
</g>
<!-- Node3&#45;&gt;Node27 -->
<g id="edge51_Node000003_Node000027" class="edge">
<title>Node3&#45;&gt;Node27</title>
<g id="a_edge51_Node000003_Node000027"><a xlink:title=" ">
<path fill="none" stroke="#63b8ff" d="M1077.28,-361.58C1229.53,-358.2 1698.92,-346.07 2087,-318 2089.92,-317.79 2092.9,-317.56 2095.91,-317.31"/>
<polygon fill="#63b8ff" stroke="#63b8ff" points="1077.46,-358.08 1067.54,-361.8 1077.62,-365.08 1077.46,-358.08"/>
</a>
</g>
</g>
<!-- Node3&#45;&gt;Node28 -->
<g id="edge53_Node000003_Node000028" class="edge">
<title>Node3&#45;&gt;Node28</title>
<g id="a_edge53_Node000003_Node000028"><a xlink:title=" ">
<path fill="none" stroke="#63b8ff" d="M1077.45,-362.48C1245.13,-361.65 1799.02,-355.99 2255,-318 2257.65,-317.78 2260.35,-317.53 2263.08,-317.26"/>
<polygon fill="#63b8ff" stroke="#63b8ff" points="1077.55,-358.98 1067.57,-362.53 1077.58,-365.98 1077.55,-358.98"/>
</a>
</g>
</g>
<!-- Node3&#45;&gt;Node29 -->
<g id="edge55_Node000003_Node000029" class="edge">
<title>Node3&#45;&gt;Node29</title>
<g id="a_edge55_Node000003_Node000029"><a xlink:title=" ">
<path fill="none" stroke="#63b8ff" d="M976.36,-360.78C851.57,-356.01 519.31,-341.95 243,-318 240.17,-317.75 237.27,-317.49 234.35,-317.2"/>
<polygon fill="#63b8ff" stroke="#63b8ff" points="976.15,-364.28 986.27,-361.16 976.41,-357.28 976.15,-364.28"/>
</a>
</g>
</g>
<!-- Node3&#45;&gt;Node30 -->
<g id="edge57_Node000003_Node000030" class="edge">
<title>Node3&#45;&gt;Node30</title>
<g id="a_edge57_Node000003_Node000030"><a xlink:title=" ">
<path fill="none" stroke="#63b8ff" d="M976.69,-360.6C865.44,-355.83 590.27,-342.4 361,-318 358.01,-317.68 354.95,-317.33 351.86,-316.94"/>
<polygon fill="#63b8ff" stroke="#63b8ff" points="976.22,-364.08 986.36,-361.01 976.52,-357.09 976.22,-364.08"/>
</a>
</g>
</g>
<!-- Node3&#45;&gt;Node31 -->
<g id="edge59_Node000003_Node000031" class="edge">
<title>Node3&#45;&gt;Node31</title>
<g id="a_edge59_Node000003_Node000031"><a xlink:title=" ">
<path fill="none" stroke="#63b8ff" d="M976.54,-358.94C882.64,-351.95 674.76,-335.86 500,-318 495.62,-317.55 491.09,-317.07 486.53,-316.56"/>
<polygon fill="#63b8ff" stroke="#63b8ff" points="976.21,-362.42 986.44,-359.67 976.73,-355.44 976.21,-362.42"/>
</a>
</g>
</g>
<!-- Node4&#45;&gt;Node5 -->
<g id="edge4_Node000004_Node000005" class="edge">
<title>Node4&#45;&gt;Node5</title>
<g id="a_edge4_Node000004_Node000005"><a xlink:title=" ">
<path fill="none" stroke="#63b8ff" d="M988.49,-232.95C1000.07,-206.78 1020.37,-160.91 1028.97,-141.48"/>
<polygon fill="#63b8ff" stroke="#63b8ff" points="985.44,-231.18 984.6,-241.74 991.84,-234.01 985.44,-231.18"/>
</a>
</g>
</g>
<!-- Node5&#45;&gt;Node2 -->
<g id="edge8_Node000005_Node000002" class="edge">
<title>Node5&#45;&gt;Node2</title>
<g id="a_edge8_Node000005_Node000002"><a xlink:title=" ">
<path fill="none" stroke="#63b8ff" d="M1083.92,-128.34C1185.47,-123.75 1405.45,-110.99 1428,-85.75 1463.04,-46.53 1378.94,-26.08 1320.17,-16.89"/>
<polygon fill="#63b8ff" stroke="#63b8ff" points="1084.07,-124.83 1074.23,-128.77 1084.38,-131.82 1084.07,-124.83"/>
</a>
</g>
</g>
<!-- Node6 -->
<g id="Node000006" class="node">
<title>Node6</title>
<g id="a_Node000006"><a xlink:href="_integrator_8h.html" target="_top" xlink:title="Integrator source file.">
<polygon fill="white" stroke="#666666" points="1025.62,-80.12 926.38,-80.12 926.38,-60.88 1025.62,-60.88 1025.62,-80.12"/>
<text text-anchor="middle" x="976" y="-66.62" font-family="Helvetica,sans-Serif" font-size="10.00">algebra/Integrator.h</text>
</a>
</g>
</g>
<!-- Node5&#45;&gt;Node6 -->
<g id="edge5_Node000005_Node000006" class="edge">
<title>Node5&#45;&gt;Node6</title>
<g id="a_edge5_Node000005_Node000006"><a xlink:title=" ">
<path fill="none" stroke="#63b8ff" d="M1016.4,-113.23C1006.05,-102.54 993.14,-89.2 984.74,-80.53"/>
<polygon fill="#63b8ff" stroke="#63b8ff" points="1013.82,-115.6 1023.29,-120.35 1018.85,-110.73 1013.82,-115.6"/>
</a>
</g>
</g>
<!-- Node7 -->
<g id="Node000007" class="node">
<title>Node7</title>
<g id="a_Node000007"><a xlink:href="_solver_8h.html" target="_top" xlink:title="Solver source file.">
<polygon fill="white" stroke="#666666" points="873.75,-19.25 796.25,-19.25 796.25,0 873.75,0 873.75,-19.25"/>
<text text-anchor="middle" x="835" y="-5.75" font-family="Helvetica,sans-Serif" font-size="10.00">solve/Solver.h</text>
</a>
</g>
</g>
<!-- Node5&#45;&gt;Node7 -->
<g id="edge17_Node000005_Node000007" class="edge">
<title>Node5&#45;&gt;Node7</title>
<g id="a_edge17_Node000005_Node000007"><a xlink:title=" ">
<path fill="none" stroke="#63b8ff" d="M981.93,-129.84C909.33,-127.88 781.85,-119.56 753,-85.75 744.2,-75.44 746.07,-66.9 753,-55.25 763.52,-37.56 783.78,-26.43 801.53,-19.72"/>
<polygon fill="#63b8ff" stroke="#63b8ff" points="981.5,-133.33 991.58,-130.07 981.66,-126.33 981.5,-133.33"/>
</a>
</g>
</g>
<!-- Node5&#45;&gt;Node8 -->
<g id="edge9_Node000005_Node000008" class="edge">
<title>Node5&#45;&gt;Node8</title>
<g id="a_edge9_Node000005_Node000008"><a xlink:title=" ">
<path fill="none" stroke="#63b8ff" d="M981.85,-126.64C854.81,-116.99 524.25,-91.1 367.19,-78.54"/>
<polygon fill="#63b8ff" stroke="#63b8ff" points="981.4,-130.12 991.63,-127.38 981.92,-123.14 981.4,-130.12"/>
</a>
</g>
</g>
<!-- Node5&#45;&gt;Node9 -->
<g id="edge11_Node000005_Node000009" class="edge">
<title>Node5&#45;&gt;Node9</title>
<g id="a_edge11_Node000005_Node000009"><a xlink:title=" ">
<path fill="none" stroke="#63b8ff" d="M981.83,-124.23C899.57,-113.84 738.29,-92.72 648.36,-80.6"/>
<polygon fill="#63b8ff" stroke="#63b8ff" points="981.28,-127.69 991.64,-125.47 982.15,-120.75 981.28,-127.69"/>
</a>
</g>
</g>
<!-- Node10 -->
<g id="Node000010" class="node">
<title>Node10</title>
<g id="a_Node000010"><a xlink:href="_levenberg_marquardt_optimizer_8h.html" target="_top" xlink:title="opt::LevenbergMarquardtOptimizer source file">
<polygon fill="white" stroke="#666666" points="1301.12,-85.75 1156.88,-85.75 1156.88,-55.25 1301.12,-55.25 1301.12,-85.75"/>
<text text-anchor="start" x="1164.88" y="-72.25" font-family="Helvetica,sans-Serif" font-size="10.00">optimize/LevenbergMarquardt</text>
<text text-anchor="middle" x="1229" y="-61" font-family="Helvetica,sans-Serif" font-size="10.00">Optimizer.h</text>
</a>
</g>
</g>
<!-- Node5&#45;&gt;Node10 -->
<g id="edge13_Node000005_Node000010" class="edge">
<title>Node5&#45;&gt;Node10</title>
<g id="a_edge13_Node000005_Node000010"><a xlink:title=" ">
<path fill="none" stroke="#63b8ff" d="M1074.02,-118.05C1104.92,-108.77 1147.41,-96.01 1180.08,-86.19"/>
<polygon fill="#63b8ff" stroke="#63b8ff" points="1073.22,-114.64 1064.65,-120.87 1075.23,-121.34 1073.22,-114.64"/>
</a>
</g>
</g>
<!-- Node11 -->
<g id="Node000011" class="node">
<title>Node11</title>
<g id="a_Node000011"><a xlink:href="calibrate_8h.html" target="_top" xlink:title="opt::calibrate source file">
<polygon fill="white" stroke="#666666" points="1418.62,-80.12 1319.38,-80.12 1319.38,-60.88 1418.62,-60.88 1418.62,-80.12"/>
<text text-anchor="middle" x="1369" y="-66.62" font-family="Helvetica,sans-Serif" font-size="10.00">optimize/calibrate.h</text>
</a>
</g>
</g>
<!-- Node5&#45;&gt;Node11 -->
<g id="edge14_Node000005_Node000011" class="edge">
<title>Node5&#45;&gt;Node11</title>
<g id="a_edge14_Node000005_Node000011"><a xlink:title=" ">
<path fill="none" stroke="#63b8ff" d="M1083.95,-123.37C1139.68,-115.43 1231.53,-101.52 1310,-85.75 1317.54,-84.23 1325.58,-82.42 1333.22,-80.61"/>
<polygon fill="#63b8ff" stroke="#63b8ff" points="1083.53,-119.9 1074.12,-124.76 1084.51,-126.83 1083.53,-119.9"/>
</a>
</g>
</g>
<!-- Node12 -->
<g id="Node000012" class="node">
<title>Node12</title>
<g id="a_Node000012"><a xlink:href="_simulation_parameters_8h.html" target="_top" xlink:title="Source file to read simulation configuration.">
<polygon fill="white" stroke="#666666" points="907.88,-80.12 762.12,-80.12 762.12,-60.88 907.88,-60.88 907.88,-80.12"/>
<text text-anchor="middle" x="835" y="-66.62" font-family="Helvetica,sans-Serif" font-size="10.00">solve/SimulationParameters.h</text>
</a>
</g>
</g>
<!-- Node5&#45;&gt;Node12 -->
<g id="edge15_Node000005_Node000012" class="edge">
<title>Node5&#45;&gt;Node12</title>
<g id="a_edge15_Node000005_Node000012"><a xlink:title=" ">
<path fill="none" stroke="#63b8ff" d="M991.89,-118.15C954.26,-106.96 899.42,-90.65 865.54,-80.58"/>
<polygon fill="#63b8ff" stroke="#63b8ff" points="990.46,-121.38 1001.05,-120.87 992.46,-114.67 990.46,-121.38"/>
</a>
</g>
</g>
<!-- Node13 -->
<g id="Node000013" class="node">
<title>Node13</title>
<g id="a_Node000013"><a xlink:href="csv__writer_8h.html" target="_top" xlink:title="csv_writer source file">
<polygon fill="white" stroke="#666666" points="1138.38,-80.12 1043.62,-80.12 1043.62,-60.88 1138.38,-60.88 1138.38,-80.12"/>
<text text-anchor="middle" x="1091" y="-66.62" font-family="Helvetica,sans-Serif" font-size="10.00">solve/csv_writer.h</text>
</a>
</g>
</g>
<!-- Node5&#45;&gt;Node13 -->
<g id="edge18_Node000005_Node000013" class="edge">
<title>Node5&#45;&gt;Node13</title>
<g id="a_edge18_Node000005_Node000013"><a xlink:title=" ">
<path fill="none" stroke="#63b8ff" d="M1049.57,-113.55C1060.16,-102.8 1073.48,-89.29 1082.11,-80.53"/>
<polygon fill="#63b8ff" stroke="#63b8ff" points="1047.4,-110.77 1042.87,-120.35 1052.38,-115.69 1047.4,-110.77"/>
</a>
</g>
</g>
<!-- Node6&#45;&gt;Node2 -->
<g id="edge6_Node000006_Node000002" class="edge">
<title>Node6&#45;&gt;Node2</title>
<g id="a_edge6_Node000006_Node000002"><a xlink:title=" ">
<path fill="none" stroke="#63b8ff" d="M1023.42,-57.84C1027.33,-56.94 1031.23,-56.06 1035,-55.25 1097.86,-41.67 1170.69,-28.13 1218.19,-19.58"/>
<polygon fill="#63b8ff" stroke="#63b8ff" points="1022.86,-54.37 1013.92,-60.06 1024.45,-61.19 1022.86,-54.37"/>
</a>
</g>
</g>
<!-- Node6&#45;&gt;Node7 -->
<g id="edge7_Node000006_Node000007" class="edge">
<title>Node6&#45;&gt;Node7</title>
<g id="a_edge7_Node000006_Node000007"><a xlink:title=" ">
<path fill="none" stroke="#63b8ff" d="M943.89,-56.09C917.14,-44.92 879.79,-29.33 856.52,-19.61"/>
<polygon fill="#63b8ff" stroke="#63b8ff" points="942.3,-59.22 952.88,-59.85 945,-52.76 942.3,-59.22"/>
</a>
</g>
</g>
<!-- Node8&#45;&gt;Node5 -->
<g id="edge10_Node000008_Node000005" class="edge">
<title>Node8&#45;&gt;Node5</title>
<g id="a_edge10_Node000008_Node000005"><a xlink:title=" ">
<path fill="none" stroke="#63b8ff" d="M378.51,-78.7C544.73,-91.48 878.06,-117.65 993.02,-126.98"/>
<polygon fill="#63b8ff" stroke="#63b8ff" points="379.07,-75.24 368.84,-77.96 378.54,-82.22 379.07,-75.24"/>
</a>
</g>
</g>
<!-- Node9&#45;&gt;Node5 -->
<g id="edge12_Node000009_Node000005" class="edge">
<title>Node9&#45;&gt;Node5</title>
<g id="a_edge12_Node000009_Node000005"><a xlink:title=" ">
<path fill="none" stroke="#63b8ff" d="M669.52,-82.02C766.71,-94.47 921.06,-114.76 993.34,-124.62"/>
<polygon fill="#63b8ff" stroke="#63b8ff" points="670.12,-78.57 659.76,-80.77 669.23,-85.51 670.12,-78.57"/>
</a>
</g>
</g>
<!-- Node12&#45;&gt;Node7 -->
<g id="edge16_Node000012_Node000007" class="edge">
<title>Node12&#45;&gt;Node7</title>
<g id="a_edge16_Node000012_Node000007"><a xlink:title=" ">
<path fill="none" stroke="#63b8ff" d="M835,-49.07C835,-39.04 835,-27.46 835,-19.65"/>
<polygon fill="#63b8ff" stroke="#63b8ff" points="831.5,-49.04 835,-59.04 838.5,-49.04 831.5,-49.04"/>
</a>
</g>
</g>
<!-- Node13&#45;&gt;Node2 -->
<g id="edge19_Node000013_Node000002" class="edge">
<title>Node13&#45;&gt;Node2</title>
<g id="a_edge19_Node000013_Node000002"><a xlink:title=" ">
<path fill="none" stroke="#63b8ff" d="M1129.27,-56.84C1163.06,-45.67 1211.48,-29.65 1241.55,-19.71"/>
<polygon fill="#63b8ff" stroke="#63b8ff" points="1128.25,-53.49 1119.86,-59.95 1130.45,-60.14 1128.25,-53.49"/>
</a>
</g>
</g>
<!-- Node14&#45;&gt;Node5 -->
<g id="edge23_Node000014_Node000005" class="edge">
<title>Node14&#45;&gt;Node5</title>
<g id="a_edge23_Node000014_Node000005"><a xlink:title=" ">
<path fill="none" stroke="#63b8ff" d="M615.04,-291.17C631.26,-277.69 655.47,-258.39 678,-243.5 728.87,-209.89 740.66,-197.73 798,-177 864.2,-153.07 945.76,-141.27 993.31,-136.02"/>
<polygon fill="#63b8ff" stroke="#63b8ff" points="613.05,-288.27 607.64,-297.38 617.55,-293.63 613.05,-288.27"/>
</a>
</g>
</g>
<!-- Node14&#45;&gt;Node15 -->
<g id="edge21_Node000014_Node000015" class="edge">
<title>Node14&#45;&gt;Node15</title>
<g id="a_edge21_Node000014_Node000015"><a xlink:title=" ">
<path fill="none" stroke="#63b8ff" d="M634.46,-294.81C664.18,-285.1 704.59,-271.9 731.21,-263.2"/>
<polygon fill="#63b8ff" stroke="#63b8ff" points="633.51,-291.44 625.09,-297.87 635.68,-298.09 633.51,-291.44"/>
</a>
</g>
</g>
<!-- Node15&#45;&gt;Node5 -->
<g id="edge22_Node000015_Node000005" class="edge">
<title>Node15&#45;&gt;Node5</title>
<g id="a_edge22_Node000015_Node000005"><a xlink:title=" ">
<path fill="none" stroke="#63b8ff" d="M773.78,-235.06C789.66,-217.82 816.48,-191.68 845,-177 892.57,-152.5 953.84,-141.21 993.28,-136.18"/>
<polygon fill="#63b8ff" stroke="#63b8ff" points="771.6,-232.25 767.53,-242.03 776.81,-236.92 771.6,-232.25"/>
</a>
</g>
</g>
<!-- Node16&#45;&gt;Node5 -->
<g id="edge26_Node000016_Node000005" class="edge">
<title>Node16&#45;&gt;Node5</title>
<g id="a_edge26_Node000016_Node000005"><a xlink:title=" ">
<path fill="none" stroke="#63b8ff" d="M799.74,-293.14C813.29,-285.55 828.77,-275.2 840,-262.75 868.56,-231.09 850.32,-204.39 883,-177 914.23,-150.82 960.36,-140 993.21,-135.53"/>
<polygon fill="#63b8ff" stroke="#63b8ff" points="798.38,-289.9 791.19,-297.68 801.67,-296.08 798.38,-289.9"/>
</a>
</g>
</g>
<!-- Node16&#45;&gt;Node15 -->
<g id="edge25_Node000016_Node000015" class="edge">
<title>Node16&#45;&gt;Node15</title>
<g id="a_edge25_Node000016_Node000015"><a xlink:title=" ">
<path fill="none" stroke="#63b8ff" d="M765.88,-287.42C764.15,-279.05 762.23,-269.75 760.86,-263.11"/>
<polygon fill="#63b8ff" stroke="#63b8ff" points="762.43,-288.01 767.88,-297.1 769.28,-286.6 762.43,-288.01"/>
</a>
</g>
</g>
<!-- Node17&#45;&gt;Node5 -->
<g id="edge30_Node000017_Node000005" class="edge">
<title>Node17&#45;&gt;Node5</title>
<g id="a_edge30_Node000017_Node000005"><a xlink:title=" ">
<path fill="none" stroke="#63b8ff" d="M1036.13,-288.03C1039.29,-280.34 1042.43,-271.3 1044,-262.75 1052.3,-217.62 1040.65,-162.54 1035.37,-141.31"/>
<polygon fill="#63b8ff" stroke="#63b8ff" points="1032.99,-286.48 1032.14,-297.04 1039.39,-289.32 1032.99,-286.48"/>
</a>
</g>
</g>
<!-- Node19 -->
<g id="Node000019" class="node">
<title>Node19</title>
<g id="a_Node000019"><a xlink:href="_closed_loop_coronary_left_b_c_8h.html" target="_top" xlink:title="Left side of ClosedLoopCoronaryBC.">
<polygon fill="white" stroke="#666666" points="1264.62,-207.5 1129.38,-207.5 1129.38,-177 1264.62,-177 1264.62,-207.5"/>
<text text-anchor="start" x="1137.38" y="-194" font-family="Helvetica,sans-Serif" font-size="10.00">model/ClosedLoopCoronary</text>
<text text-anchor="middle" x="1197" y="-182.75" font-family="Helvetica,sans-Serif" font-size="10.00">LeftBC.h</text>
</a>
</g>
</g>
<!-- Node18&#45;&gt;Node19 -->
<g id="edge32_Node000018_Node000019" class="edge">
<title>Node18&#45;&gt;Node19</title>
<g id="a_edge32_Node000018_Node000019"><a xlink:title=" ">
<path fill="none" stroke="#63b8ff" d="M1220.14,-233.32C1215.37,-225.05 1209.84,-215.49 1205.39,-207.78"/>
<polygon fill="#63b8ff" stroke="#63b8ff" points="1217.05,-234.96 1225.08,-241.87 1223.11,-231.46 1217.05,-234.96"/>
</a>
</g>
</g>
<!-- Node20 -->
<g id="Node000020" class="node">
<title>Node20</title>
<g id="a_Node000020"><a xlink:href="_closed_loop_coronary_right_b_c_8h.html" target="_top" xlink:title="Right side of ClosedLoopCoronaryBC.">
<polygon fill="white" stroke="#666666" points="1417.62,-207.5 1282.38,-207.5 1282.38,-177 1417.62,-177 1417.62,-207.5"/>
<text text-anchor="start" x="1290.38" y="-194" font-family="Helvetica,sans-Serif" font-size="10.00">model/ClosedLoopCoronary</text>
<text text-anchor="middle" x="1350" y="-182.75" font-family="Helvetica,sans-Serif" font-size="10.00">RightBC.h</text>
</a>
</g>
</g>
<!-- Node18&#45;&gt;Node20 -->
<g id="edge34_Node000018_Node000020" class="edge">
<title>Node18&#45;&gt;Node20</title>
<g id="a_edge34_Node000018_Node000020"><a xlink:title=" ">
<path fill="none" stroke="#63b8ff" d="M1259.44,-238.06C1277.81,-228.97 1301.68,-217.16 1320.3,-207.94"/>
<polygon fill="#63b8ff" stroke="#63b8ff" points="1258.1,-234.81 1250.69,-242.38 1261.2,-241.09 1258.1,-234.81"/>
</a>
</g>
</g>
<!-- Node19&#45;&gt;Node5 -->
<g id="edge33_Node000019_Node000005" class="edge">
<title>Node19&#45;&gt;Node5</title>
<g id="a_edge33_Node000019_Node000005"><a xlink:title=" ">
<path fill="none" stroke="#63b8ff" d="M1145.23,-172.66C1116.18,-162.24 1081.24,-149.69 1058.15,-141.4"/>
<polygon fill="#63b8ff" stroke="#63b8ff" points="1144.02,-175.95 1154.61,-176.03 1146.39,-169.36 1144.02,-175.95"/>
</a>
</g>
</g>
<!-- Node20&#45;&gt;Node5 -->
<g id="edge35_Node000020_Node000005" class="edge">
<title>Node20&#45;&gt;Node5</title>
<g id="a_edge35_Node000020_Node000005"><a xlink:title=" ">
<path fill="none" stroke="#63b8ff" d="M1270.93,-176.43C1195.42,-162.37 1118.19,-148.1 1072.67,-139.69"/>
<polygon fill="#63b8ff" stroke="#63b8ff" points="1270.09,-179.83 1280.56,-178.22 1271.37,-172.95 1270.09,-179.83"/>
</a>
</g>
</g>
<!-- Node21&#45;&gt;Node5 -->
<g id="edge38_Node000021_Node000005" class="edge">
<title>Node21&#45;&gt;Node5</title>
<g id="a_edge38_Node000021_Node000005"><a xlink:title=" ">
<path fill="none" stroke="#63b8ff" d="M1196.85,-293.63C1180.01,-285.95 1159.94,-275.37 1144,-262.75 1096.22,-224.92 1053.79,-164.07 1038.77,-141.33"/>
<polygon fill="#63b8ff" stroke="#63b8ff" points="1195.43,-296.83 1205.99,-297.65 1198.24,-290.42 1195.43,-296.83"/>
</a>
</g>
</g>
<!-- Node21&#45;&gt;Node18 -->
<g id="edge37_Node000021_Node000018" class="edge">
<title>Node21&#45;&gt;Node18</title>
<g id="a_edge37_Node000021_Node000018"><a xlink:title=" ">
<path fill="none" stroke="#63b8ff" d="M1231,-287.13C1231,-278.84 1231,-269.67 1231,-263.11"/>
<polygon fill="#63b8ff" stroke="#63b8ff" points="1227.5,-287.07 1231,-297.07 1234.5,-287.07 1227.5,-287.07"/>
</a>
</g>
</g>
<!-- Node22&#45;&gt;Node5 -->
<g id="edge40_Node000022_Node000005" class="edge">
<title>Node22&#45;&gt;Node5</title>
<g id="a_edge40_Node000022_Node000005"><a xlink:title=" ">
<path fill="none" stroke="#63b8ff" d="M1447.29,-287.52C1452.21,-258.79 1456.21,-205.94 1427,-177 1402.12,-152.35 1167.83,-138.69 1072.78,-134.13"/>
<polygon fill="#63b8ff" stroke="#63b8ff" points="1443.91,-286.56 1445.44,-297.04 1450.78,-287.89 1443.91,-286.56"/>
</a>
</g>
</g>
<!-- Node23&#45;&gt;Node5 -->
<g id="edge42_Node000023_Node000005" class="edge">
<title>Node23&#45;&gt;Node5</title>
<g id="a_edge42_Node000023_Node000005"><a xlink:title=" ">
<path fill="none" stroke="#63b8ff" d="M1582.51,-289.63C1559.14,-260.39 1508.04,-202.77 1450,-177 1383.04,-147.28 1163.65,-136.71 1072.87,-133.55"/>
<polygon fill="#63b8ff" stroke="#63b8ff" points="1579.49,-291.45 1588.41,-297.18 1585.01,-287.14 1579.49,-291.45"/>
</a>
</g>
</g>
<!-- Node24&#45;&gt;Node5 -->
<g id="edge44_Node000024_Node000005" class="edge">
<title>Node24&#45;&gt;Node5</title>
<g id="a_edge44_Node000024_Node000005"><a xlink:title=" ">
<path fill="none" stroke="#63b8ff" d="M1703.71,-291.71C1663.76,-263.26 1573.83,-203.58 1488,-177 1410.85,-153.11 1168.84,-139 1072.83,-134.22"/>
<polygon fill="#63b8ff" stroke="#63b8ff" points="1701.58,-294.5 1711.74,-297.51 1705.68,-288.82 1701.58,-294.5"/>
</a>
</g>
</g>
<!-- Node25&#45;&gt;Node5 -->
<g id="edge47_Node000025_Node000005" class="edge">
<title>Node25&#45;&gt;Node5</title>
<g id="a_edge47_Node000025_Node000005"><a xlink:title=" ">
<path fill="none" stroke="#63b8ff" d="M1835.77,-293.19C1781.17,-265.49 1653.7,-204.49 1539,-177 1368.98,-136.25 1158.84,-131.85 1072.68,-131.94"/>
<polygon fill="#63b8ff" stroke="#63b8ff" points="1833.85,-296.14 1844.35,-297.58 1837.04,-289.91 1833.85,-296.14"/>
</a>
</g>
</g>
<!-- Node26&#45;&gt;Node5 -->
<g id="edge50_Node000026_Node000005" class="edge">
<title>Node26&#45;&gt;Node5</title>
<g id="a_edge50_Node000026_Node000005"><a xlink:title=" ">
<path fill="none" stroke="#63b8ff" d="M1983.84,-294.12C1914.33,-266.97 1747.73,-205.23 1602,-177 1405.98,-139.03 1166.02,-133.19 1072.73,-132.42"/>
<polygon fill="#63b8ff" stroke="#63b8ff" points="1982.53,-297.36 1993.11,-297.76 1985.09,-290.85 1982.53,-297.36"/>
</a>
</g>
</g>
<!-- Node27&#45;&gt;Node5 -->
<g id="edge52_Node000027_Node000005" class="edge">
<title>Node27&#45;&gt;Node5</title>
<g id="a_edge52_Node000027_Node000005"><a xlink:title=" ">
<path fill="none" stroke="#63b8ff" d="M2133.4,-294.81C2051.64,-268.06 1851.1,-205.61 1678,-177 1451.25,-139.52 1174.61,-133.45 1072.94,-132.52"/>
<polygon fill="#63b8ff" stroke="#63b8ff" points="2132.11,-298.06 2142.7,-297.86 2134.29,-291.41 2132.11,-298.06"/>
</a>
</g>
</g>
<!-- Node28&#45;&gt;Node5 -->
<g id="edge54_Node000028_Node000005" class="edge">
<title>Node28&#45;&gt;Node5</title>
<g id="a_edge54_Node000028_Node000005"><a xlink:title=" ">
<path fill="none" stroke="#63b8ff" d="M2279.6,-295.12C2187.88,-268.52 1960.2,-205.63 1765,-177 1502.98,-138.58 1183.51,-133.13 1072.92,-132.44"/>
<polygon fill="#63b8ff" stroke="#63b8ff" points="2278.58,-298.46 2289.16,-297.9 2280.54,-291.74 2278.58,-298.46"/>
</a>
</g>
</g>
<!-- Node29&#45;&gt;Node5 -->
<g id="edge56_Node000029_Node000005" class="edge">
<title>Node29&#45;&gt;Node5</title>
<g id="a_edge56_Node000029_Node000005"><a xlink:title=" ">
<path fill="none" stroke="#63b8ff" d="M199.37,-293.83C261.88,-266.6 410.09,-205.42 541,-177 706.33,-141.11 908.97,-134.03 993.28,-132.68"/>
<polygon fill="#63b8ff" stroke="#63b8ff" points="198.19,-290.52 190.44,-297.75 201,-296.93 198.19,-290.52"/>
</a>
</g>
</g>
<!-- Node30&#45;&gt;Node5 -->
<g id="edge58_Node000030_Node000005" class="edge">
<title>Node30&#45;&gt;Node5</title>
<g id="a_edge58_Node000030_Node000005"><a xlink:title=" ">
<path fill="none" stroke="#63b8ff" d="M330.61,-293.45C387.85,-266.24 521.21,-206.14 640,-177 766.54,-145.95 921.41,-136.41 993.09,-133.56"/>
<polygon fill="#63b8ff" stroke="#63b8ff" points="329.39,-290.16 321.88,-297.63 332.41,-296.47 329.39,-290.16"/>
</a>
</g>
</g>
<!-- Node31&#45;&gt;Node5 -->
<g id="edge60_Node000031_Node000005" class="edge">
<title>Node31&#45;&gt;Node5</title>
<g id="a_edge60_Node000031_Node000005"><a xlink:title=" ">
<path fill="none" stroke="#63b8ff" d="M454.31,-293.15C505.58,-266.06 623.15,-207.12 729,-177 821.61,-150.65 934.75,-139.27 993.44,-134.85"/>
<polygon fill="#63b8ff" stroke="#63b8ff" points="452.92,-289.92 445.74,-297.71 456.21,-296.1 452.92,-289.92"/>
</a>
</g>
</g>
</g>
</svg>
