<?xml version="1.0" encoding="UTF-8" standalone="no"?>
<!DOCTYPE svg PUBLIC "-//W3C//DTD SVG 1.1//EN"
 "http://www.w3.org/Graphics/SVG/1.1/DTD/svg11.dtd">
<!-- Generated by graphviz version 12.2.1 (20241206.2353)
 -->
<!-- Title: algebra/State.h Pages: 1 -->
<svg width="2088pt" height="448pt"
 viewBox="0.00 0.00 2088.00 447.75" xmlns="http://www.w3.org/2000/svg" xmlns:xlink="http://www.w3.org/1999/xlink">
<g id="graph0" class="graph" transform="scale(1 1) rotate(0) translate(4 443.75)">
<title>algebra/State.h</title>
<!-- Node1 -->
<g id="Node000001" class="node">
<title>Node1</title>
<g id="a_Node000001"><a xlink:title="State source file.">
<polygon fill="#999999" stroke="#666666" points="1017.62,-439.75 936.38,-439.75 936.38,-420.5 1017.62,-420.5 1017.62,-439.75"/>
<text text-anchor="middle" x="977" y="-426.25" font-family="Helvetica,sans-Serif" font-size="10.00">algebra/State.h</text>
</a>
</g>
</g>
<!-- Node2 -->
<g id="Node000002" class="node">
<title>Node2</title>
<g id="a_Node000002"><a xlink:href="_integrator_8h.html" target="_top" xlink:title="Integrator source file.">
<polygon fill="white" stroke="#666666" points="816.62,-80.12 717.38,-80.12 717.38,-60.88 816.62,-60.88 816.62,-80.12"/>
<text text-anchor="middle" x="767" y="-66.62" font-family="Helvetica,sans-Serif" font-size="10.00">algebra/Integrator.h</text>
</a>
</g>
</g>
<!-- Node1&#45;&gt;Node2 -->
<g id="edge1_Node000001_Node000002" class="edge">
<title>Node1&#45;&gt;Node2</title>
<g id="a_edge1_Node000001_Node000002"><a xlink:title=" ">
<path fill="none" stroke="#63b8ff" d="M924.47,-428.36C731.93,-424.87 76,-406.66 76,-320.62 76,-320.62 76,-320.62 76,-191.25 76,-48.86 568.24,-112.97 708,-85.75 715.65,-84.26 723.81,-82.44 731.55,-80.61"/>
<polygon fill="#63b8ff" stroke="#63b8ff" points="924.37,-431.86 934.43,-428.53 924.49,-424.86 924.37,-431.86"/>
</a>
</g>
</g>
<!-- Node3 -->
<g id="Node000003" class="node">
<title>Node3</title>
<g id="a_Node000003"><a xlink:href="interface_8h.html" target="_top" xlink:title="svZeroDSolver callable interface.">
<polygon fill="white" stroke="#666666" points="1340.75,-19.25 1239.25,-19.25 1239.25,0 1340.75,0 1340.75,-19.25"/>
<text text-anchor="middle" x="1290" y="-5.75" font-family="Helvetica,sans-Serif" font-size="10.00">interface/interface.h</text>
</a>
</g>
</g>
<!-- Node1&#45;&gt;Node3 -->
<g id="edge4_Node000001_Node000003" class="edge">
<title>Node1&#45;&gt;Node3</title>
<g id="a_edge4_Node000001_Node000003"><a xlink:title=" ">
<path fill="none" stroke="#63b8ff" d="M1029.39,-428.32C1222.12,-425.15 1885.37,-412.31 1976,-384.5 2027.86,-368.59 2080,-374.87 2080,-320.62 2080,-320.62 2080,-320.62 2080,-130.38 2080,-55.38 1516.29,-21.64 1341.23,-12.97"/>
<polygon fill="#63b8ff" stroke="#63b8ff" points="1029.36,-424.82 1019.42,-428.48 1029.48,-431.82 1029.36,-424.82"/>
</a>
</g>
</g>
<!-- Node4 -->
<g id="Node000004" class="node">
<title>Node4</title>
<g id="a_Node000004"><a xlink:href="_solver_8h.html" target="_top" xlink:title="Solver source file.">
<polygon fill="white" stroke="#666666" points="735.75,-19.25 658.25,-19.25 658.25,0 735.75,0 735.75,-19.25"/>
<text text-anchor="middle" x="697" y="-5.75" font-family="Helvetica,sans-Serif" font-size="10.00">solve/Solver.h</text>
</a>
</g>
</g>
<!-- Node1&#45;&gt;Node4 -->
<g id="edge70_Node000001_Node000004" class="edge">
<title>Node1&#45;&gt;Node4</title>
<g id="a_edge70_Node000001_Node000004"><a xlink:title=" ">
<path fill="none" stroke="#63b8ff" d="M924.72,-428.75C742.56,-427.16 142.63,-419.3 64,-384.5 27.25,-368.24 0,-360.81 0,-320.62 0,-320.62 0,-320.62 0,-130.38 0,-63.11 510.67,-23.26 657.78,-13.18"/>
<polygon fill="#63b8ff" stroke="#63b8ff" points="924.56,-432.25 934.59,-428.84 924.62,-425.25 924.56,-432.25"/>
</a>
</g>
</g>
<!-- Node5 -->
<g id="Node000005" class="node">
<title>Node5</title>
<g id="a_Node000005"><a xlink:href="_block_8h.html" target="_top" xlink:title="model::Block source file">
<polygon fill="white" stroke="#666666" points="1015.75,-384.5 938.25,-384.5 938.25,-365.25 1015.75,-365.25 1015.75,-384.5"/>
<text text-anchor="middle" x="977" y="-371" font-family="Helvetica,sans-Serif" font-size="10.00">model/Block.h</text>
</a>
</g>
</g>
<!-- Node1&#45;&gt;Node5 -->
<g id="edge5_Node000001_Node000005" class="edge">
<title>Node1&#45;&gt;Node5</title>
<g id="a_edge5_Node000001_Node000005"><a xlink:title=" ">
<path fill="none" stroke="#63b8ff" d="M977,-408.88C977,-400.59 977,-391.42 977,-384.86"/>
<polygon fill="#63b8ff" stroke="#63b8ff" points="973.5,-408.82 977,-418.82 980.5,-408.82 973.5,-408.82"/>
</a>
</g>
</g>
<!-- Node7 -->
<g id="Node000007" class="node">
<title>Node7</title>
<g id="a_Node000007"><a xlink:href="_model_8h.html" target="_top" xlink:title="model::Model source file">
<polygon fill="white" stroke="#666666" points="1102.5,-141 1023.5,-141 1023.5,-121.75 1102.5,-121.75 1102.5,-141"/>
<text text-anchor="middle" x="1063" y="-127.5" font-family="Helvetica,sans-Serif" font-size="10.00">model/Model.h</text>
</a>
</g>
</g>
<!-- Node1&#45;&gt;Node7 -->
<g id="edge68_Node000001_Node000007" class="edge">
<title>Node1&#45;&gt;Node7</title>
<g id="a_edge68_Node000001_Node000007"><a xlink:title=" ">
<path fill="none" stroke="#63b8ff" d="M1029.14,-429.15C1238.13,-428.58 2004,-419.71 2004,-320.62 2004,-320.62 2004,-320.62 2004,-257.75 2004,-190.86 1940.69,-197.44 1877,-177 1730.45,-129.97 1245.35,-130.64 1102.75,-131.91"/>
<polygon fill="#63b8ff" stroke="#63b8ff" points="1029.4,-425.65 1019.41,-429.17 1029.41,-432.65 1029.4,-425.65"/>
</a>
</g>
</g>
<!-- Node11 -->
<g id="Node000011" class="node">
<title>Node11</title>
<g id="a_Node000011"><a xlink:href="_simulation_parameters_8h.html" target="_top" xlink:title="Source file to read simulation configuration.">
<polygon fill="white" stroke="#666666" points="698.88,-80.12 553.12,-80.12 553.12,-60.88 698.88,-60.88 698.88,-80.12"/>
<text text-anchor="middle" x="626" y="-66.62" font-family="Helvetica,sans-Serif" font-size="10.00">solve/SimulationParameters.h</text>
</a>
</g>
</g>
<!-- Node1&#45;&gt;Node11 -->
<g id="edge69_Node000001_Node000011" class="edge">
<title>Node1&#45;&gt;Node11</title>
<g id="a_edge69_Node000001_Node000011"><a xlink:title=" ">
<path fill="none" stroke="#63b8ff" d="M924.6,-429.47C766.35,-430 295.19,-427.81 149,-384.5 94.43,-368.33 38,-377.54 38,-320.62 38,-320.62 38,-320.62 38,-191.25 38,-148.04 67.02,-140.4 106,-121.75 183.11,-84.85 428.6,-75.05 552.69,-72.44"/>
<polygon fill="#63b8ff" stroke="#63b8ff" points="924.38,-432.97 934.37,-429.43 924.36,-425.97 924.38,-432.97"/>
</a>
</g>
</g>
<!-- Node12 -->
<g id="Node000012" class="node">
<title>Node12</title>
<g id="a_Node000012"><a xlink:href="csv__writer_8h.html" target="_top" xlink:title="csv_writer source file">
<polygon fill="white" stroke="#666666" points="1465.38,-80.12 1370.62,-80.12 1370.62,-60.88 1465.38,-60.88 1465.38,-80.12"/>
<text text-anchor="middle" x="1418" y="-66.62" font-family="Helvetica,sans-Serif" font-size="10.00">solve/csv_writer.h</text>
</a>
</g>
</g>
<!-- Node1&#45;&gt;Node12 -->
<g id="edge71_Node000001_Node000012" class="edge">
<title>Node1&#45;&gt;Node12</title>
<g id="a_edge71_Node000001_Node000012"><a xlink:title=" ">
<path fill="none" stroke="#63b8ff" d="M1029.29,-429.32C1200,-429.55 1739.72,-426.82 1908,-384.5 1971.98,-368.41 2042,-386.6 2042,-320.62 2042,-320.62 2042,-320.62 2042,-191.25 2042,-132.61 1611.54,-88.77 1465.67,-75.6"/>
<polygon fill="#63b8ff" stroke="#63b8ff" points="1029.4,-425.82 1019.39,-429.31 1029.38,-432.82 1029.4,-425.82"/>
</a>
</g>
</g>
<!-- Node2&#45;&gt;Node3 -->
<g id="edge2_Node000002_Node000003" class="edge">
<title>Node2&#45;&gt;Node3</title>
<g id="a_edge2_Node000002_Node000003"><a xlink:title=" ">
<path fill="none" stroke="#63b8ff" d="M828.03,-60.14C839.94,-58.42 852.35,-56.71 864,-55.25 999.02,-38.27 1158.69,-22.76 1238.77,-15.3"/>
<polygon fill="#63b8ff" stroke="#63b8ff" points="827.68,-56.65 818.29,-61.56 828.69,-63.58 827.68,-56.65"/>
</a>
</g>
</g>
<!-- Node2&#45;&gt;Node4 -->
<g id="edge3_Node000002_Node000004" class="edge">
<title>Node2&#45;&gt;Node4</title>
<g id="a_edge3_Node000002_Node000004"><a xlink:title=" ">
<path fill="none" stroke="#63b8ff" d="M747.75,-53.31C734.86,-42.46 718.36,-28.59 707.73,-19.65"/>
<polygon fill="#63b8ff" stroke="#63b8ff" points="745.3,-55.83 755.21,-59.58 749.81,-50.47 745.3,-55.83"/>
</a>
</g>
</g>
<!-- Node6 -->
<g id="Node000006" class="node">
<title>Node6</title>
<g id="a_Node000006"><a xlink:href="_block_factory_8h.html" target="_top" xlink:title="Define the block factory functional.">
<polygon fill="white" stroke="#666666" points="369.88,-201.88 260.12,-201.88 260.12,-182.62 369.88,-182.62 369.88,-201.88"/>
<text text-anchor="middle" x="315" y="-188.38" font-family="Helvetica,sans-Serif" font-size="10.00">model/BlockFactory.h</text>
</a>
</g>
</g>
<!-- Node5&#45;&gt;Node6 -->
<g id="edge6_Node000005_Node000006" class="edge">
<title>Node5&#45;&gt;Node6</title>
<g id="a_edge6_Node000005_Node000006"><a xlink:title=" ">
<path fill="none" stroke="#63b8ff" d="M926.49,-372.97C790.63,-370.14 424.6,-359.75 380,-329.25 356.99,-313.52 327.27,-229.82 317.94,-202.14"/>
<polygon fill="#63b8ff" stroke="#63b8ff" points="926.19,-376.47 936.26,-373.17 926.33,-369.47 926.19,-376.47"/>
</a>
</g>
</g>
<!-- Node5&#45;&gt;Node7 -->
<g id="edge50_Node000005_Node000007" class="edge">
<title>Node5&#45;&gt;Node7</title>
<g id="a_edge50_Node000005_Node000007"><a xlink:title=" ">
<path fill="none" stroke="#63b8ff" d="M926.55,-373.18C799.24,-370.94 472.53,-362.04 437,-329.25 386.84,-282.97 370.43,-226.89 417,-177 458.37,-132.67 888.84,-131.36 1023.18,-132.05"/>
<polygon fill="#63b8ff" stroke="#63b8ff" points="926.3,-376.68 936.36,-373.34 926.42,-369.68 926.3,-376.68"/>
</a>
</g>
</g>
<!-- Node8 -->
<g id="Node000008" class="node">
<title>Node8</title>
<g id="a_Node000008"><a xlink:href="_linear_elastance_chamber_8h.html" target="_top" xlink:title="model::LinearElastanceChamber source file">
<polygon fill="white" stroke="#666666" points="1352.75,-80.12 1191.25,-80.12 1191.25,-60.88 1352.75,-60.88 1352.75,-80.12"/>
<text text-anchor="middle" x="1272" y="-66.62" font-family="Helvetica,sans-Serif" font-size="10.00">model/LinearElastanceChamber.h</text>
</a>
</g>
</g>
<!-- Node5&#45;&gt;Node8 -->
<g id="edge49_Node000005_Node000008" class="edge">
<title>Node5&#45;&gt;Node8</title>
<g id="a_edge49_Node000005_Node000008"><a xlink:title=" ">
<path fill="none" stroke="#63b8ff" d="M1027.17,-373.39C1183.62,-371.52 1661.2,-363.12 1812,-329.25 1885.27,-312.79 1966,-334.84 1966,-259.75 1966,-259.75 1966,-259.75 1966,-191.25 1966,-183.19 1495.1,-107.16 1329.09,-80.6"/>
<polygon fill="#63b8ff" stroke="#63b8ff" points="1027.5,-369.88 1017.55,-373.5 1027.59,-376.88 1027.5,-369.88"/>
</a>
</g>
</g>
<!-- Node13 -->
<g id="Node000013" class="node">
<title>Node13</title>
<g id="a_Node000013"><a xlink:href="_blood_vessel_8h.html" target="_top" xlink:title="model::BloodVessel source file">
<polygon fill="white" stroke="#666666" points="567.75,-329.25 460.25,-329.25 460.25,-310 567.75,-310 567.75,-329.25"/>
<text text-anchor="middle" x="514" y="-315.75" font-family="Helvetica,sans-Serif" font-size="10.00">model/BloodVessel.h</text>
</a>
</g>
</g>
<!-- Node5&#45;&gt;Node13 -->
<g id="edge19_Node000005_Node000013" class="edge">
<title>Node5&#45;&gt;Node13</title>
<g id="a_edge19_Node000005_Node000013"><a xlink:title=" ">
<path fill="none" stroke="#63b8ff" d="M926.58,-368.4C851.46,-360.2 705.74,-344.09 582,-329.25 577.51,-328.71 572.85,-328.14 568.18,-327.57"/>
<polygon fill="#63b8ff" stroke="#63b8ff" points="926.19,-371.88 936.51,-369.49 926.95,-364.92 926.19,-371.88"/>
</a>
</g>
</g>
<!-- Node14 -->
<g id="Node000014" class="node">
<title>Node14</title>
<g id="a_Node000014"><a xlink:href="_blood_vessel_junction_8h.html" target="_top" xlink:title="model::BloodVesselJunction source file">
<polygon fill="white" stroke="#666666" points="654.12,-268.38 509.88,-268.38 509.88,-249.12 654.12,-249.12 654.12,-268.38"/>
<text text-anchor="middle" x="582" y="-254.88" font-family="Helvetica,sans-Serif" font-size="10.00">model/BloodVesselJunction.h</text>
</a>
</g>
</g>
<!-- Node5&#45;&gt;Node14 -->
<g id="edge26_Node000005_Node000014" class="edge">
<title>Node5&#45;&gt;Node14</title>
<g id="a_edge26_Node000005_Node000014"><a xlink:title=" ">
<path fill="none" stroke="#63b8ff" d="M926.31,-373.51C838.7,-371.95 663.66,-364.37 615,-329.25 594.64,-314.56 586.38,-283.96 583.44,-268.75"/>
<polygon fill="#63b8ff" stroke="#63b8ff" points="926.25,-377.01 936.3,-373.67 926.36,-370.01 926.25,-377.01"/>
</a>
</g>
</g>
<!-- Node15 -->
<g id="Node000015" class="node">
<title>Node15</title>
<g id="a_Node000015"><a xlink:href="_blood_vessel_c_r_l_8h.html" target="_top" xlink:title="model::BloodVesselCRL source file">
<polygon fill="white" stroke="#666666" points="751.5,-329.25 624.5,-329.25 624.5,-310 751.5,-310 751.5,-329.25"/>
<text text-anchor="middle" x="688" y="-315.75" font-family="Helvetica,sans-Serif" font-size="10.00">model/BloodVesselCRL.h</text>
</a>
</g>
</g>
<!-- Node5&#45;&gt;Node15 -->
<g id="edge23_Node000005_Node000015" class="edge">
<title>Node5&#45;&gt;Node15</title>
<g id="a_edge23_Node000005_Node000015"><a xlink:title=" ">
<path fill="none" stroke="#63b8ff" d="M926.84,-364.63C873.7,-354.84 790.33,-339.48 737.46,-329.74"/>
<polygon fill="#63b8ff" stroke="#63b8ff" points="926.07,-368.05 936.54,-366.42 927.34,-361.17 926.07,-368.05"/>
</a>
</g>
</g>
<!-- Node16 -->
<g id="Node000016" class="node">
<title>Node16</title>
<g id="a_Node000016"><a xlink:href="_blood_vessel_r_c_8h_source.html" target="_top" xlink:title=" ">
<polygon fill="white" stroke="#666666" points="547.5,-201.88 426.5,-201.88 426.5,-182.62 547.5,-182.62 547.5,-201.88"/>
<text text-anchor="middle" x="487" y="-188.38" font-family="Helvetica,sans-Serif" font-size="10.00">model/BloodVesselRC.h</text>
</a>
</g>
</g>
<!-- Node5&#45;&gt;Node16 -->
<g id="edge27_Node000005_Node000016" class="edge">
<title>Node5&#45;&gt;Node16</title>
<g id="a_edge27_Node000005_Node000016"><a xlink:title=" ">
<path fill="none" stroke="#63b8ff" d="M926.65,-373.39C801.26,-371.65 482.79,-363.85 451,-329.25 416.79,-292.02 461.44,-226.08 479.79,-202.2"/>
<polygon fill="#63b8ff" stroke="#63b8ff" points="926.26,-376.88 936.3,-373.51 926.35,-369.88 926.26,-376.88"/>
</a>
</g>
</g>
<!-- Node17 -->
<g id="Node000017" class="node">
<title>Node17</title>
<g id="a_Node000017"><a xlink:href="_chamber_elastance_inductor_8h.html" target="_top" xlink:title="model::ChamberElastanceInductor source file">
<polygon fill="white" stroke="#666666" points="879.88,-268.38 710.12,-268.38 710.12,-249.12 879.88,-249.12 879.88,-268.38"/>
<text text-anchor="middle" x="795" y="-254.88" font-family="Helvetica,sans-Serif" font-size="10.00">model/ChamberElastanceInductor.h</text>
</a>
</g>
</g>
<!-- Node5&#45;&gt;Node17 -->
<g id="edge29_Node000005_Node000017" class="edge">
<title>Node5&#45;&gt;Node17</title>
<g id="a_edge29_Node000005_Node000017"><a xlink:title=" ">
<path fill="none" stroke="#63b8ff" d="M926.97,-367.96C880.2,-361.31 815.18,-348.81 799,-329.25 784.67,-311.93 789.05,-283.09 792.52,-268.61"/>
<polygon fill="#63b8ff" stroke="#63b8ff" points="926.25,-371.39 936.63,-369.28 927.2,-364.46 926.25,-371.39"/>
</a>
</g>
</g>
<!-- Node19 -->
<g id="Node000019" class="node">
<title>Node19</title>
<g id="a_Node000019"><a xlink:href="_chamber_sphere_8h.html" target="_top" xlink:title="model::ChamberSphere source file">
<polygon fill="white" stroke="#666666" points="930.25,-329.25 807.75,-329.25 807.75,-310 930.25,-310 930.25,-329.25"/>
<text text-anchor="middle" x="869" y="-315.75" font-family="Helvetica,sans-Serif" font-size="10.00">model/ChamberSphere.h</text>
</a>
</g>
</g>
<!-- Node5&#45;&gt;Node19 -->
<g id="edge33_Node000005_Node000019" class="edge">
<title>Node5&#45;&gt;Node19</title>
<g id="a_edge33_Node000005_Node000019"><a xlink:title=" ">
<path fill="none" stroke="#63b8ff" d="M948.61,-359.87C929.25,-350.33 904.2,-337.98 887.41,-329.7"/>
<polygon fill="#63b8ff" stroke="#63b8ff" points="946.8,-362.89 957.32,-364.17 949.9,-356.61 946.8,-362.89"/>
</a>
</g>
</g>
<!-- Node20 -->
<g id="Node000020" class="node">
<title>Node20</title>
<g id="a_Node000020"><a xlink:href="_closed_loop_coronary_b_c_8h.html" target="_top" xlink:title="model::ClosedLoopCoronaryBC source file">
<polygon fill="white" stroke="#666666" points="1790.12,-268.38 1633.88,-268.38 1633.88,-249.12 1790.12,-249.12 1790.12,-268.38"/>
<text text-anchor="middle" x="1712" y="-254.88" font-family="Helvetica,sans-Serif" font-size="10.00">model/ClosedLoopCoronaryBC.h</text>
</a>
</g>
</g>
<!-- Node5&#45;&gt;Node20 -->
<g id="edge35_Node000005_Node000020" class="edge">
<title>Node5&#45;&gt;Node20</title>
<g id="a_edge35_Node000005_Node000020"><a xlink:title=" ">
<path fill="none" stroke="#63b8ff" d="M1027.46,-372.9C1197.1,-369.36 1737.69,-356.03 1763,-329.25 1781.71,-309.45 1748.04,-282.68 1727.01,-268.85"/>
<polygon fill="#63b8ff" stroke="#63b8ff" points="1027.57,-369.39 1017.64,-373.1 1027.71,-376.39 1027.57,-369.39"/>
</a>
</g>
</g>
<!-- Node23 -->
<g id="Node000023" class="node">
<title>Node23</title>
<g id="a_Node000023"><a xlink:href="_closed_loop_heart_pulmonary_8h.html" target="_top" xlink:title="model::ClosedLoopHeartPulmonary source file">
<polygon fill="white" stroke="#666666" points="1754.12,-329.25 1579.88,-329.25 1579.88,-310 1754.12,-310 1754.12,-329.25"/>
<text text-anchor="middle" x="1667" y="-315.75" font-family="Helvetica,sans-Serif" font-size="10.00">model/ClosedLoopHeartPulmonary.h</text>
</a>
</g>
</g>
<!-- Node5&#45;&gt;Node23 -->
<g id="edge40_Node000005_Node000023" class="edge">
<title>Node5&#45;&gt;Node23</title>
<g id="a_edge40_Node000005_Node000023"><a xlink:title=" ">
<path fill="none" stroke="#63b8ff" d="M1027.39,-370.22C1129.19,-362.8 1366.64,-345.31 1566,-329.25 1570.39,-328.9 1574.88,-328.53 1579.41,-328.16"/>
<polygon fill="#63b8ff" stroke="#63b8ff" points="1027.18,-366.73 1017.46,-370.94 1027.69,-373.71 1027.18,-366.73"/>
</a>
</g>
</g>
<!-- Node24 -->
<g id="Node000024" class="node">
<title>Node24</title>
<g id="a_Node000024"><a xlink:href="_closed_loop_r_c_r_b_c_8h.html" target="_top" xlink:title="model::ClosedLoopRCRBC source file">
<polygon fill="white" stroke="#666666" points="1124.12,-268.38 985.88,-268.38 985.88,-249.12 1124.12,-249.12 1124.12,-268.38"/>
<text text-anchor="middle" x="1055" y="-254.88" font-family="Helvetica,sans-Serif" font-size="10.00">model/ClosedLoopRCRBC.h</text>
</a>
</g>
</g>
<!-- Node5&#45;&gt;Node24 -->
<g id="edge43_Node000005_Node000024" class="edge">
<title>Node5&#45;&gt;Node24</title>
<g id="a_edge43_Node000005_Node000024"><a xlink:title=" ">
<path fill="none" stroke="#63b8ff" d="M987.38,-354.92C994.68,-341.99 1004.9,-324.62 1015,-310 1025.39,-294.95 1038.89,-278.56 1047.24,-268.73"/>
<polygon fill="#63b8ff" stroke="#63b8ff" points="984.33,-353.2 982.53,-363.64 990.45,-356.6 984.33,-353.2"/>
</a>
</g>
</g>
<!-- Node25 -->
<g id="Node000025" class="node">
<title>Node25</title>
<g id="a_Node000025"><a xlink:href="_flow_reference_b_c_8h.html" target="_top" xlink:title="model::FlowReferenceBC source file">
<polygon fill="white" stroke="#666666" points="1155.75,-329.25 1024.25,-329.25 1024.25,-310 1155.75,-310 1155.75,-329.25"/>
<text text-anchor="middle" x="1090" y="-315.75" font-family="Helvetica,sans-Serif" font-size="10.00">model/FlowReferenceBC.h</text>
</a>
</g>
</g>
<!-- Node5&#45;&gt;Node25 -->
<g id="edge45_Node000005_Node000025" class="edge">
<title>Node5&#45;&gt;Node25</title>
<g id="a_edge45_Node000005_Node000025"><a xlink:title=" ">
<path fill="none" stroke="#63b8ff" d="M1006.43,-360.01C1026.71,-350.45 1053.09,-338.02 1070.74,-329.7"/>
<polygon fill="#63b8ff" stroke="#63b8ff" points="1005.09,-356.77 997.54,-364.2 1008.08,-363.1 1005.09,-356.77"/>
</a>
</g>
</g>
<!-- Node26 -->
<g id="Node000026" class="node">
<title>Node26</title>
<g id="a_Node000026"><a xlink:href="_junction_8h.html" target="_top" xlink:title="model::Junction source file">
<polygon fill="white" stroke="#666666" points="1263.75,-329.25 1174.25,-329.25 1174.25,-310 1263.75,-310 1263.75,-329.25"/>
<text text-anchor="middle" x="1219" y="-315.75" font-family="Helvetica,sans-Serif" font-size="10.00">model/Junction.h</text>
</a>
</g>
</g>
<!-- Node5&#45;&gt;Node26 -->
<g id="edge47_Node000005_Node000026" class="edge">
<title>Node5&#45;&gt;Node26</title>
<g id="a_edge47_Node000005_Node000026"><a xlink:title=" ">
<path fill="none" stroke="#63b8ff" d="M1027.32,-362.8C1071.94,-352.98 1136.29,-338.82 1177.88,-329.67"/>
<polygon fill="#63b8ff" stroke="#63b8ff" points="1026.64,-359.37 1017.63,-364.94 1028.15,-366.2 1026.64,-359.37"/>
</a>
</g>
</g>
<!-- Node27 -->
<g id="Node000027" class="node">
<title>Node27</title>
<g id="a_Node000027"><a xlink:href="_open_loop_coronary_b_c_8h.html" target="_top" xlink:title="model::OpenLoopCoronaryBC source file">
<polygon fill="white" stroke="#666666" points="1431.75,-329.25 1282.25,-329.25 1282.25,-310 1431.75,-310 1431.75,-329.25"/>
<text text-anchor="middle" x="1357" y="-315.75" font-family="Helvetica,sans-Serif" font-size="10.00">model/OpenLoopCoronaryBC.h</text>
</a>
</g>
</g>
<!-- Node5&#45;&gt;Node27 -->
<g id="edge51_Node000005_Node000027" class="edge">
<title>Node5&#45;&gt;Node27</title>
<g id="a_edge51_Node000005_Node000027"><a xlink:title=" ">
<path fill="none" stroke="#63b8ff" d="M1027.51,-366.8C1095.68,-357.24 1217.2,-340.22 1292.08,-329.72"/>
<polygon fill="#63b8ff" stroke="#63b8ff" points="1027.15,-363.31 1017.73,-368.17 1028.12,-370.25 1027.15,-363.31"/>
</a>
</g>
</g>
<!-- Node28 -->
<g id="Node000028" class="node">
<title>Node28</title>
<g id="a_Node000028"><a xlink:href="_open_loop_coronary_var_res_b_c_8h.html" target="_top" xlink:title="model::OpenLoopCoronaryVarResBC source file">
<polygon fill="white" stroke="#666666" points="1399.75,-274 1256.25,-274 1256.25,-243.5 1399.75,-243.5 1399.75,-274"/>
<text text-anchor="start" x="1264.25" y="-260.5" font-family="Helvetica,sans-Serif" font-size="10.00">model/OpenLoopCoronaryVar</text>
<text text-anchor="middle" x="1328" y="-249.25" font-family="Helvetica,sans-Serif" font-size="10.00">ResBC.h</text>
</a>
</g>
</g>
<!-- Node5&#45;&gt;Node28 -->
<g id="edge55_Node000005_Node000028" class="edge">
<title>Node5&#45;&gt;Node28</title>
<g id="a_edge55_Node000005_Node000028"><a xlink:title=" ">
<path fill="none" stroke="#63b8ff" d="M1027.28,-372.77C1141.65,-369.75 1413.58,-359.44 1441,-329.25 1462.99,-305.04 1425.82,-286.31 1388.35,-274.42"/>
<polygon fill="#63b8ff" stroke="#63b8ff" points="1027.49,-369.27 1017.58,-373.02 1027.66,-376.27 1027.49,-369.27"/>
</a>
</g>
</g>
<!-- Node29 -->
<g id="Node000029" class="node">
<title>Node29</title>
<g id="a_Node000029"><a xlink:href="_piecewise_valve_8h.html" target="_top" xlink:title="model::PiecewiseValve source file">
<polygon fill="white" stroke="#666666" points="1540.25,-268.38 1417.75,-268.38 1417.75,-249.12 1540.25,-249.12 1540.25,-268.38"/>
<text text-anchor="middle" x="1479" y="-254.88" font-family="Helvetica,sans-Serif" font-size="10.00">model/PiecewiseValve.h</text>
</a>
</g>
</g>
<!-- Node5&#45;&gt;Node29 -->
<g id="edge56_Node000005_Node000029" class="edge">
<title>Node5&#45;&gt;Node29</title>
<g id="a_edge56_Node000005_Node000029"><a xlink:title=" ">
<path fill="none" stroke="#63b8ff" d="M1027.27,-372.35C1143.84,-368.37 1425.15,-356.08 1458,-329.25 1476.35,-314.26 1479.08,-283.8 1479.23,-268.68"/>
<polygon fill="#63b8ff" stroke="#63b8ff" points="1027.26,-368.85 1017.38,-372.68 1027.49,-375.84 1027.26,-368.85"/>
</a>
</g>
</g>
<!-- Node30 -->
<g id="Node000030" class="node">
<title>Node30</title>
<g id="a_Node000030"><a xlink:href="_pressure_reference_b_c_8h.html" target="_top" xlink:title="model::PressureReferenceBC source file">
<polygon fill="white" stroke="#666666" points="1085.75,-201.88 936.25,-201.88 936.25,-182.62 1085.75,-182.62 1085.75,-201.88"/>
<text text-anchor="middle" x="1011" y="-188.38" font-family="Helvetica,sans-Serif" font-size="10.00">model/PressureReferenceBC.h</text>
</a>
</g>
</g>
<!-- Node5&#45;&gt;Node30 -->
<g id="edge58_Node000005_Node000030" class="edge">
<title>Node5&#45;&gt;Node30</title>
<g id="a_edge58_Node000005_Node000030"><a xlink:title=" ">
<path fill="none" stroke="#63b8ff" d="M973.42,-353.72C969.59,-327.63 965.48,-281.07 977,-243.5 981.94,-227.39 993.99,-211.79 1002.33,-202.35"/>
<polygon fill="#63b8ff" stroke="#63b8ff" points="969.91,-353.95 974.97,-363.26 976.82,-352.83 969.91,-353.95"/>
</a>
</g>
</g>
<!-- Node31 -->
<g id="Node000031" class="node">
<title>Node31</title>
<g id="a_Node000031"><a xlink:href="_resistance_b_c_8h.html" target="_top" xlink:title="model::ResistanceBC source file">
<polygon fill="white" stroke="#666666" points="1493.5,-201.88 1378.5,-201.88 1378.5,-182.62 1493.5,-182.62 1493.5,-201.88"/>
<text text-anchor="middle" x="1436" y="-188.38" font-family="Helvetica,sans-Serif" font-size="10.00">model/ResistanceBC.h</text>
</a>
</g>
</g>
<!-- Node5&#45;&gt;Node31 -->
<g id="edge60_Node000005_Node000031" class="edge">
<title>Node5&#45;&gt;Node31</title>
<g id="a_edge60_Node000005_Node000031"><a xlink:title=" ">
<path fill="none" stroke="#63b8ff" d="M1027.34,-373.03C1137.75,-370.6 1397.81,-361.53 1479,-329.25 1524.72,-311.07 1575.8,-284.75 1549,-243.5 1534.9,-221.81 1509.04,-209.4 1485.61,-202.35"/>
<polygon fill="#63b8ff" stroke="#63b8ff" points="1027.32,-369.53 1017.4,-373.24 1027.47,-376.53 1027.32,-369.53"/>
</a>
</g>
</g>
<!-- Node32 -->
<g id="Node000032" class="node">
<title>Node32</title>
<g id="a_Node000032"><a xlink:href="_resistive_junction_8h.html" target="_top" xlink:title="model::ResistiveJunction source file">
<polygon fill="white" stroke="#666666" points="1938,-268.38 1808,-268.38 1808,-249.12 1938,-249.12 1938,-268.38"/>
<text text-anchor="middle" x="1873" y="-254.88" font-family="Helvetica,sans-Serif" font-size="10.00">model/ResistiveJunction.h</text>
</a>
</g>
</g>
<!-- Node5&#45;&gt;Node32 -->
<g id="edge62_Node000005_Node000032" class="edge">
<title>Node5&#45;&gt;Node32</title>
<g id="a_edge62_Node000005_Node000032"><a xlink:title=" ">
<path fill="none" stroke="#63b8ff" d="M1027.41,-372.77C1192.36,-368.9 1709.56,-354.86 1780,-329.25 1815.99,-316.17 1849.79,-284.22 1864.82,-268.62"/>
<polygon fill="#63b8ff" stroke="#63b8ff" points="1027.58,-369.26 1017.66,-372.99 1027.74,-376.26 1027.58,-369.26"/>
</a>
</g>
</g>
<!-- Node33 -->
<g id="Node000033" class="node">
<title>Node33</title>
<g id="a_Node000033"><a xlink:href="_valve_tanh_8h.html" target="_top" xlink:title="model::ValveTanh source file">
<polygon fill="white" stroke="#666666" points="203.62,-201.88 104.38,-201.88 104.38,-182.62 203.62,-182.62 203.62,-201.88"/>
<text text-anchor="middle" x="154" y="-188.38" font-family="Helvetica,sans-Serif" font-size="10.00">model/ValveTanh.h</text>
</a>
</g>
</g>
<!-- Node5&#45;&gt;Node33 -->
<g id="edge64_Node000005_Node000033" class="edge">
<title>Node5&#45;&gt;Node33</title>
<g id="a_edge64_Node000005_Node000033"><a xlink:title=" ">
<path fill="none" stroke="#63b8ff" d="M926.54,-373.13C790.72,-370.71 419.68,-361.28 302,-329.25 249.21,-314.88 230.19,-313.18 192,-274 171.34,-252.81 160.36,-218.29 156.11,-202.13"/>
<polygon fill="#63b8ff" stroke="#63b8ff" points="926.24,-376.62 936.3,-373.3 926.36,-369.63 926.24,-376.62"/>
</a>
</g>
</g>
<!-- Node34 -->
<g id="Node000034" class="node">
<title>Node34</title>
<g id="a_Node000034"><a xlink:href="_windkessel_b_c_8h.html" target="_top" xlink:title="model::WindkesselBC source file">
<polygon fill="white" stroke="#666666" points="317.25,-268.38 200.75,-268.38 200.75,-249.12 317.25,-249.12 317.25,-268.38"/>
<text text-anchor="middle" x="259" y="-254.88" font-family="Helvetica,sans-Serif" font-size="10.00">model/WindkesselBC.h</text>
</a>
</g>
</g>
<!-- Node5&#45;&gt;Node34 -->
<g id="edge66_Node000005_Node000034" class="edge">
<title>Node5&#45;&gt;Node34</title>
<g id="a_edge66_Node000005_Node000034"><a xlink:title=" ">
<path fill="none" stroke="#63b8ff" d="M926.69,-372.28C784.9,-367.53 388.81,-352.32 335,-329.25 303.78,-315.86 277.04,-284.06 265.32,-268.56"/>
<polygon fill="#63b8ff" stroke="#63b8ff" points="926.41,-375.78 936.52,-372.61 926.64,-368.78 926.41,-375.78"/>
</a>
</g>
</g>
<!-- Node6&#45;&gt;Node7 -->
<g id="edge7_Node000006_Node000007" class="edge">
<title>Node6&#45;&gt;Node7</title>
<g id="a_edge7_Node000006_Node000007"><a xlink:title=" ">
<path fill="none" stroke="#63b8ff" d="M365.36,-180.01C371.61,-178.86 377.94,-177.82 384,-177 625.16,-144.33 917.87,-135.34 1023.01,-133.08"/>
<polygon fill="#63b8ff" stroke="#63b8ff" points="364.88,-176.54 355.73,-181.88 366.22,-183.41 364.88,-176.54"/>
</a>
</g>
</g>
<!-- Node7&#45;&gt;Node2 -->
<g id="edge8_Node000007_Node000002" class="edge">
<title>Node7&#45;&gt;Node2</title>
<g id="a_edge8_Node000007_Node000002"><a xlink:title=" ">
<path fill="none" stroke="#63b8ff" d="M1011.99,-121C964.93,-112.25 893.15,-98.64 831,-85.75 823.2,-84.13 814.88,-82.33 806.91,-80.57"/>
<polygon fill="#63b8ff" stroke="#63b8ff" points="1011.15,-124.41 1021.62,-122.79 1012.43,-117.53 1011.15,-124.41"/>
</a>
</g>
</g>
<!-- Node7&#45;&gt;Node3 -->
<g id="edge9_Node000007_Node000003" class="edge">
<title>Node7&#45;&gt;Node3</title>
<g id="a_edge9_Node000007_Node000003"><a xlink:title=" ">
<path fill="none" stroke="#63b8ff" d="M1091.78,-116.07C1107.58,-107.84 1127.31,-96.93 1144,-85.75 1162,-73.7 1163.36,-66.27 1182,-55.25 1207.67,-40.07 1239.47,-27.61 1261.9,-19.75"/>
<polygon fill="#63b8ff" stroke="#63b8ff" points="1090.19,-112.95 1082.89,-120.63 1093.39,-119.18 1090.19,-112.95"/>
</a>
</g>
</g>
<!-- Node7&#45;&gt;Node4 -->
<g id="edge16_Node000007_Node000004" class="edge">
<title>Node7&#45;&gt;Node4</title>
<g id="a_edge16_Node000007_Node000004"><a xlink:title=" ">
<path fill="none" stroke="#63b8ff" d="M1011.91,-125.39C970.42,-119.85 911.24,-108.48 864,-85.75 844.49,-76.36 844.96,-65.72 826,-55.25 796.65,-39.04 760.33,-27.11 733.72,-19.69"/>
<polygon fill="#63b8ff" stroke="#63b8ff" points="1011.26,-128.84 1021.62,-126.61 1012.13,-121.89 1011.26,-128.84"/>
</a>
</g>
</g>
<!-- Node7&#45;&gt;Node8 -->
<g id="edge10_Node000007_Node000008" class="edge">
<title>Node7&#45;&gt;Node8</title>
<g id="a_edge10_Node000007_Node000008"><a xlink:title=" ">
<path fill="none" stroke="#63b8ff" d="M1100.8,-118.15C1138.81,-106.96 1196.89,-90.65 1234.73,-80.58"/>
<polygon fill="#63b8ff" stroke="#63b8ff" points="1100.21,-114.68 1091.61,-120.87 1102.2,-121.39 1100.21,-114.68"/>
</a>
</g>
</g>
<!-- Node9 -->
<g id="Node000009" class="node">
<title>Node9</title>
<g id="a_Node000009"><a xlink:href="_levenberg_marquardt_optimizer_8h.html" target="_top" xlink:title="opt::LevenbergMarquardtOptimizer source file">
<polygon fill="white" stroke="#666666" points="1135.12,-85.75 990.88,-85.75 990.88,-55.25 1135.12,-55.25 1135.12,-85.75"/>
<text text-anchor="start" x="998.88" y="-72.25" font-family="Helvetica,sans-Serif" font-size="10.00">optimize/LevenbergMarquardt</text>
<text text-anchor="middle" x="1063" y="-61" font-family="Helvetica,sans-Serif" font-size="10.00">Optimizer.h</text>
</a>
</g>
</g>
<!-- Node7&#45;&gt;Node9 -->
<g id="edge12_Node000007_Node000009" class="edge">
<title>Node7&#45;&gt;Node9</title>
<g id="a_edge12_Node000007_Node000009"><a xlink:title=" ">
<path fill="none" stroke="#63b8ff" d="M1063,-110.17C1063,-102.24 1063,-93.31 1063,-86.03"/>
<polygon fill="#63b8ff" stroke="#63b8ff" points="1059.5,-109.92 1063,-119.92 1066.5,-109.92 1059.5,-109.92"/>
</a>
</g>
</g>
<!-- Node10 -->
<g id="Node000010" class="node">
<title>Node10</title>
<g id="a_Node000010"><a xlink:href="calibrate_8h.html" target="_top" xlink:title="opt::calibrate source file">
<polygon fill="white" stroke="#666666" points="972.62,-80.12 873.38,-80.12 873.38,-60.88 972.62,-60.88 972.62,-80.12"/>
<text text-anchor="middle" x="923" y="-66.62" font-family="Helvetica,sans-Serif" font-size="10.00">optimize/calibrate.h</text>
</a>
</g>
</g>
<!-- Node7&#45;&gt;Node10 -->
<g id="edge13_Node000007_Node000010" class="edge">
<title>Node7&#45;&gt;Node10</title>
<g id="a_edge13_Node000007_Node000010"><a xlink:title=" ">
<path fill="none" stroke="#63b8ff" d="M1031.12,-116.97C1004.56,-105.8 967.47,-90.2 944.36,-80.48"/>
<polygon fill="#63b8ff" stroke="#63b8ff" points="1029.46,-120.07 1040.04,-120.72 1032.18,-113.62 1029.46,-120.07"/>
</a>
</g>
</g>
<!-- Node7&#45;&gt;Node11 -->
<g id="edge14_Node000007_Node000011" class="edge">
<title>Node7&#45;&gt;Node11</title>
<g id="a_edge14_Node000007_Node000011"><a xlink:title=" ">
<path fill="none" stroke="#63b8ff" d="M1011.86,-124.71C942.78,-116.89 815.87,-101.89 708,-85.75 697.71,-84.21 686.72,-82.41 676.24,-80.62"/>
<polygon fill="#63b8ff" stroke="#63b8ff" points="1011.42,-128.18 1021.75,-125.83 1012.2,-121.23 1011.42,-128.18"/>
</a>
</g>
</g>
<!-- Node7&#45;&gt;Node12 -->
<g id="edge17_Node000007_Node000012" class="edge">
<title>Node7&#45;&gt;Node12</title>
<g id="a_edge17_Node000007_Node000012"><a xlink:title=" ">
<path fill="none" stroke="#63b8ff" d="M1114.26,-124.33C1174.03,-116.9 1275.66,-103.13 1362,-85.75 1369.38,-84.27 1377.24,-82.43 1384.66,-80.57"/>
<polygon fill="#63b8ff" stroke="#63b8ff" points="1113.88,-120.85 1104.38,-125.54 1114.74,-127.79 1113.88,-120.85"/>
</a>
</g>
</g>
<!-- Node8&#45;&gt;Node7 -->
<g id="edge11_Node000008_Node000007" class="edge">
<title>Node8&#45;&gt;Node7</title>
<g id="a_edge11_Node000008_Node000007"><a xlink:title=" ">
<path fill="none" stroke="#63b8ff" d="M1234.17,-83.74C1196.13,-94.93 1138.06,-111.24 1100.23,-121.3"/>
<polygon fill="#63b8ff" stroke="#63b8ff" points="1234.76,-87.21 1243.35,-81.01 1232.77,-80.5 1234.76,-87.21"/>
</a>
</g>
</g>
<!-- Node11&#45;&gt;Node4 -->
<g id="edge15_Node000011_Node000004" class="edge">
<title>Node11&#45;&gt;Node4</title>
<g id="a_edge15_Node000011_Node000004"><a xlink:title=" ">
<path fill="none" stroke="#63b8ff" d="M645.52,-53.31C658.6,-42.46 675.34,-28.59 686.12,-19.65"/>
<polygon fill="#63b8ff" stroke="#63b8ff" points="643.41,-50.51 637.95,-59.59 647.88,-55.9 643.41,-50.51"/>
</a>
</g>
</g>
<!-- Node12&#45;&gt;Node3 -->
<g id="edge18_Node000012_Node000003" class="edge">
<title>Node12&#45;&gt;Node3</title>
<g id="a_edge18_Node000012_Node000003"><a xlink:title=" ">
<path fill="none" stroke="#63b8ff" d="M1387.87,-55.64C1363.67,-44.51 1330.38,-29.2 1309.53,-19.61"/>
<polygon fill="#63b8ff" stroke="#63b8ff" points="1386.36,-58.8 1396.91,-59.8 1389.28,-52.44 1386.36,-58.8"/>
</a>
</g>
</g>
<!-- Node13&#45;&gt;Node7 -->
<g id="edge22_Node000013_Node000007" class="edge">
<title>Node13&#45;&gt;Node7</title>
<g id="a_edge22_Node000013_Node000007"><a xlink:title=" ">
<path fill="none" stroke="#63b8ff" d="M504.23,-299.51C497.57,-283.63 491.52,-260.9 501,-243.5 501.41,-242.75 603.2,-177.28 604,-177 681.03,-150.18 926.2,-137.78 1023.07,-133.84"/>
<polygon fill="#63b8ff" stroke="#63b8ff" points="500.94,-300.74 508.33,-308.32 507.28,-297.78 500.94,-300.74"/>
</a>
</g>
</g>
<!-- Node13&#45;&gt;Node14 -->
<g id="edge20_Node000013_Node000014" class="edge">
<title>Node13&#45;&gt;Node14</title>
<g id="a_edge20_Node000013_Node000014"><a xlink:title=" ">
<path fill="none" stroke="#63b8ff" d="M532.7,-302.44C545.23,-291.59 561.25,-277.71 571.58,-268.78"/>
<polygon fill="#63b8ff" stroke="#63b8ff" points="530.74,-299.5 525.47,-308.69 535.32,-304.79 530.74,-299.5"/>
</a>
</g>
</g>
<!-- Node14&#45;&gt;Node7 -->
<g id="edge21_Node000014_Node000007" class="edge">
<title>Node14&#45;&gt;Node7</title>
<g id="a_edge21_Node000014_Node000007"><a xlink:title=" ">
<path fill="none" stroke="#63b8ff" d="M589.7,-238.3C598.38,-219.2 614.41,-190.96 638,-177 702.56,-138.78 930.38,-133.1 1023.2,-132.4"/>
<polygon fill="#63b8ff" stroke="#63b8ff" points="586.52,-236.84 585.84,-247.41 592.97,-239.57 586.52,-236.84"/>
</a>
</g>
</g>
<!-- Node15&#45;&gt;Node7 -->
<g id="edge25_Node000015_Node000007" class="edge">
<title>Node15&#45;&gt;Node7</title>
<g id="a_edge25_Node000015_Node000007"><a xlink:title=" ">
<path fill="none" stroke="#63b8ff" d="M682.64,-298.95C675.65,-268.41 667.69,-209.74 699,-177 721.14,-153.85 933.42,-139.52 1023.21,-134.45"/>
<polygon fill="#63b8ff" stroke="#63b8ff" points="679.17,-299.51 685,-308.36 685.96,-297.8 679.17,-299.51"/>
</a>
</g>
</g>
<!-- Node15&#45;&gt;Node14 -->
<g id="edge24_Node000015_Node000014" class="edge">
<title>Node15&#45;&gt;Node14</title>
<g id="a_edge24_Node000015_Node000014"><a xlink:title=" ">
<path fill="none" stroke="#63b8ff" d="M661.93,-304.15C642.02,-293.09 615.2,-278.19 598.25,-268.78"/>
<polygon fill="#63b8ff" stroke="#63b8ff" points="660.14,-307.15 670.58,-308.95 663.54,-301.03 660.14,-307.15"/>
</a>
</g>
</g>
<!-- Node16&#45;&gt;Node7 -->
<g id="edge28_Node000016_Node000007" class="edge">
<title>Node16&#45;&gt;Node7</title>
<g id="a_edge28_Node000016_Node000007"><a xlink:title=" ">
<path fill="none" stroke="#63b8ff" d="M542.06,-180.15C548.76,-178.98 555.52,-177.9 562,-177 732.82,-153.22 938.26,-139.57 1023.23,-134.58"/>
<polygon fill="#63b8ff" stroke="#63b8ff" points="541.61,-176.67 532.39,-181.89 542.85,-183.56 541.61,-176.67"/>
</a>
</g>
</g>
<!-- Node17&#45;&gt;Node7 -->
<g id="edge32_Node000017_Node000007" class="edge">
<title>Node17&#45;&gt;Node7</title>
<g id="a_edge32_Node000017_Node000007"><a xlink:title=" ">
<path fill="none" stroke="#63b8ff" d="M761.73,-244.04C728.9,-228.61 686.63,-202.37 709,-177 729.54,-153.71 935.05,-139.53 1023.2,-134.47"/>
<polygon fill="#63b8ff" stroke="#63b8ff" points="760.03,-247.11 770.58,-248.03 762.91,-240.73 760.03,-247.11"/>
</a>
</g>
</g>
<!-- Node18 -->
<g id="Node000018" class="node">
<title>Node18</title>
<g id="a_Node000018"><a xlink:href="_chamber_elastance_inductor_exponential_8h.html" target="_top" xlink:title="model::ChamberElastanceInductorExponential source file">
<polygon fill="white" stroke="#666666" points="880.12,-207.5 717.88,-207.5 717.88,-177 880.12,-177 880.12,-207.5"/>
<text text-anchor="start" x="725.88" y="-194" font-family="Helvetica,sans-Serif" font-size="10.00">model/ChamberElastanceInductor</text>
<text text-anchor="middle" x="799" y="-182.75" font-family="Helvetica,sans-Serif" font-size="10.00">Exponential.h</text>
</a>
</g>
</g>
<!-- Node17&#45;&gt;Node18 -->
<g id="edge30_Node000017_Node000018" class="edge">
<title>Node17&#45;&gt;Node18</title>
<g id="a_edge30_Node000017_Node000018"><a xlink:title=" ">
<path fill="none" stroke="#63b8ff" d="M796.26,-237.37C796.86,-227.69 797.57,-216.35 798.11,-207.59"/>
<polygon fill="#63b8ff" stroke="#63b8ff" points="792.78,-237.07 795.65,-247.27 799.76,-237.51 792.78,-237.07"/>
</a>
</g>
</g>
<!-- Node18&#45;&gt;Node7 -->
<g id="edge31_Node000018_Node000007" class="edge">
<title>Node18&#45;&gt;Node7</title>
<g id="a_edge31_Node000018_Node000007"><a xlink:title=" ">
<path fill="none" stroke="#63b8ff" d="M875.98,-174.08C924.23,-163.32 984.43,-149.9 1023.29,-141.23"/>
<polygon fill="#63b8ff" stroke="#63b8ff" points="875.41,-170.62 866.41,-176.22 876.94,-177.46 875.41,-170.62"/>
</a>
</g>
</g>
<!-- Node19&#45;&gt;Node7 -->
<g id="edge34_Node000019_Node000007" class="edge">
<title>Node19&#45;&gt;Node7</title>
<g id="a_edge34_Node000019_Node000007"><a xlink:title=" ">
<path fill="none" stroke="#63b8ff" d="M877.82,-299.49C881.38,-291.63 885.47,-282.42 889,-274 906.92,-231.31 893.35,-208.81 927,-177 953.19,-152.25 993.34,-141.22 1023.24,-136.31"/>
<polygon fill="#63b8ff" stroke="#63b8ff" points="874.71,-297.86 873.74,-308.41 881.08,-300.77 874.71,-297.86"/>
</a>
</g>
</g>
<!-- Node21 -->
<g id="Node000021" class="node">
<title>Node21</title>
<g id="a_Node000021"><a xlink:href="_closed_loop_coronary_left_b_c_8h.html" target="_top" xlink:title="Left side of ClosedLoopCoronaryBC.">
<polygon fill="white" stroke="#666666" points="1844.62,-207.5 1709.38,-207.5 1709.38,-177 1844.62,-177 1844.62,-207.5"/>
<text text-anchor="start" x="1717.38" y="-194" font-family="Helvetica,sans-Serif" font-size="10.00">model/ClosedLoopCoronary</text>
<text text-anchor="middle" x="1777" y="-182.75" font-family="Helvetica,sans-Serif" font-size="10.00">LeftBC.h</text>
</a>
</g>
</g>
<!-- Node20&#45;&gt;Node21 -->
<g id="edge36_Node000020_Node000021" class="edge">
<title>Node20&#45;&gt;Node21</title>
<g id="a_edge36_Node000020_Node000021"><a xlink:title=" ">
<path fill="none" stroke="#63b8ff" d="M1729.01,-240.87C1739.43,-230.53 1752.63,-217.43 1762.54,-207.59"/>
<polygon fill="#63b8ff" stroke="#63b8ff" points="1726.75,-238.19 1722.11,-247.72 1731.68,-243.16 1726.75,-238.19"/>
</a>
</g>
</g>
<!-- Node22 -->
<g id="Node000022" class="node">
<title>Node22</title>
<g id="a_Node000022"><a xlink:href="_closed_loop_coronary_right_b_c_8h.html" target="_top" xlink:title="Right side of ClosedLoopCoronaryBC.">
<polygon fill="white" stroke="#666666" points="1691.62,-207.5 1556.38,-207.5 1556.38,-177 1691.62,-177 1691.62,-207.5"/>
<text text-anchor="start" x="1564.38" y="-194" font-family="Helvetica,sans-Serif" font-size="10.00">model/ClosedLoopCoronary</text>
<text text-anchor="middle" x="1624" y="-182.75" font-family="Helvetica,sans-Serif" font-size="10.00">RightBC.h</text>
</a>
</g>
</g>
<!-- Node20&#45;&gt;Node22 -->
<g id="edge38_Node000020_Node000022" class="edge">
<title>Node20&#45;&gt;Node22</title>
<g id="a_edge38_Node000020_Node000022"><a xlink:title=" ">
<path fill="none" stroke="#63b8ff" d="M1690.71,-242.15C1676.47,-231.71 1657.85,-218.06 1643.91,-207.84"/>
<polygon fill="#63b8ff" stroke="#63b8ff" points="1688.41,-244.8 1698.54,-247.89 1692.55,-239.15 1688.41,-244.8"/>
</a>
</g>
</g>
<!-- Node21&#45;&gt;Node7 -->
<g id="edge37_Node000021_Node000007" class="edge">
<title>Node21&#45;&gt;Node7</title>
<g id="a_edge37_Node000021_Node000007"><a xlink:title=" ">
<path fill="none" stroke="#63b8ff" d="M1697.8,-176.68C1467.04,-147.75 1201.64,-136.84 1102.73,-133.56"/>
<polygon fill="#63b8ff" stroke="#63b8ff" points="1697.25,-180.14 1707.61,-177.93 1698.13,-173.2 1697.25,-180.14"/>
</a>
</g>
</g>
<!-- Node22&#45;&gt;Node7 -->
<g id="edge39_Node000022_Node000007" class="edge">
<title>Node22&#45;&gt;Node7</title>
<g id="a_edge39_Node000022_Node000007"><a xlink:title=" ">
<path fill="none" stroke="#63b8ff" d="M1545.03,-177.41C1544.01,-177.27 1543,-177.13 1542,-177 1379.74,-155.38 1185.16,-140.71 1102.86,-135.02"/>
<polygon fill="#63b8ff" stroke="#63b8ff" points="1544.15,-180.82 1554.55,-178.8 1545.16,-173.89 1544.15,-180.82"/>
</a>
</g>
</g>
<!-- Node23&#45;&gt;Node7 -->
<g id="edge42_Node000023_Node000007" class="edge">
<title>Node23&#45;&gt;Node7</title>
<g id="a_edge42_Node000023_Node000007"><a xlink:title=" ">
<path fill="none" stroke="#63b8ff" d="M1650.34,-302.01C1615.69,-267.84 1536.22,-191.68 1502,-177 1430.63,-146.38 1196.95,-136.27 1102.82,-133.39"/>
<polygon fill="#63b8ff" stroke="#63b8ff" points="1647.49,-304.11 1657.06,-308.66 1652.42,-299.14 1647.49,-304.11"/>
</a>
</g>
</g>
<!-- Node23&#45;&gt;Node20 -->
<g id="edge41_Node000023_Node000020" class="edge">
<title>Node23&#45;&gt;Node20</title>
<g id="a_edge41_Node000023_Node000020"><a xlink:title=" ">
<path fill="none" stroke="#63b8ff" d="M1680.6,-300.84C1688.69,-290.25 1698.6,-277.28 1705.1,-268.78"/>
<polygon fill="#63b8ff" stroke="#63b8ff" points="1678.05,-298.41 1674.75,-308.48 1683.61,-302.66 1678.05,-298.41"/>
</a>
</g>
</g>
<!-- Node24&#45;&gt;Node7 -->
<g id="edge44_Node000024_Node000007" class="edge">
<title>Node24&#45;&gt;Node7</title>
<g id="a_edge44_Node000024_Node000007"><a xlink:title=" ">
<path fill="none" stroke="#63b8ff" d="M1073.14,-240.97C1081.52,-231.96 1090.59,-220.13 1095,-207.5 1099.47,-194.7 1099.15,-189.91 1095,-177 1090.51,-163.02 1079.84,-149.71 1072.05,-141.33"/>
<polygon fill="#63b8ff" stroke="#63b8ff" points="1070.82,-238.33 1066.24,-247.88 1075.78,-243.27 1070.82,-238.33"/>
</a>
</g>
</g>
<!-- Node25&#45;&gt;Node7 -->
<g id="edge46_Node000025_Node000007" class="edge">
<title>Node25&#45;&gt;Node7</title>
<g id="a_edge46_Node000025_Node000007"><a xlink:title=" ">
<path fill="none" stroke="#63b8ff" d="M1111.65,-302.38C1119.99,-294.79 1128.57,-284.99 1133,-274 1138.07,-261.43 1135.16,-256.88 1133,-243.5 1128.05,-212.77 1127.82,-203.2 1111,-177 1101.66,-162.45 1086.49,-149.44 1075.7,-141.28"/>
<polygon fill="#63b8ff" stroke="#63b8ff" points="1109.48,-299.63 1104.07,-308.73 1113.98,-304.99 1109.48,-299.63"/>
</a>
</g>
</g>
<!-- Node26&#45;&gt;Node7 -->
<g id="edge48_Node000026_Node000007" class="edge">
<title>Node26&#45;&gt;Node7</title>
<g id="a_edge48_Node000026_Node000007"><a xlink:title=" ">
<path fill="none" stroke="#63b8ff" d="M1210.58,-299.35C1197.17,-270.26 1168.69,-214.55 1132,-177 1117.24,-161.9 1096.49,-149.34 1081.6,-141.44"/>
<polygon fill="#63b8ff" stroke="#63b8ff" points="1207.34,-300.67 1214.63,-308.36 1213.72,-297.8 1207.34,-300.67"/>
</a>
</g>
</g>
<!-- Node27&#45;&gt;Node7 -->
<g id="edge52_Node000027_Node000007" class="edge">
<title>Node27&#45;&gt;Node7</title>
<g id="a_edge52_Node000027_Node000007"><a xlink:title=" ">
<path fill="none" stroke="#63b8ff" d="M1313.6,-306.07C1292.38,-298.71 1267.14,-288.07 1247,-274 1199.28,-240.67 1205.88,-211.51 1159,-177 1137.54,-161.2 1109.59,-148.98 1089.39,-141.36"/>
<polygon fill="#63b8ff" stroke="#63b8ff" points="1312.25,-309.31 1322.85,-309.14 1314.46,-302.67 1312.25,-309.31"/>
</a>
</g>
</g>
<!-- Node27&#45;&gt;Node28 -->
<g id="edge53_Node000027_Node000028" class="edge">
<title>Node27&#45;&gt;Node28</title>
<g id="a_edge53_Node000027_Node000028"><a xlink:title=" ">
<path fill="none" stroke="#63b8ff" d="M1347.6,-299.54C1343.56,-291.34 1338.91,-281.9 1335.16,-274.28"/>
<polygon fill="#63b8ff" stroke="#63b8ff" points="1344.37,-300.9 1351.93,-308.33 1350.65,-297.81 1344.37,-300.9"/>
</a>
</g>
</g>
<!-- Node28&#45;&gt;Node7 -->
<g id="edge54_Node000028_Node000007" class="edge">
<title>Node28&#45;&gt;Node7</title>
<g id="a_edge54_Node000028_Node000007"><a xlink:title=" ">
<path fill="none" stroke="#63b8ff" d="M1309.2,-234.51C1293.2,-216.23 1268.61,-191.51 1242,-177 1197.85,-152.93 1140.53,-141.6 1102.8,-136.44"/>
<polygon fill="#63b8ff" stroke="#63b8ff" points="1306.42,-236.64 1315.57,-241.99 1311.75,-232.1 1306.42,-236.64"/>
</a>
</g>
</g>
<!-- Node29&#45;&gt;Node7 -->
<g id="edge57_Node000029_Node000007" class="edge">
<title>Node29&#45;&gt;Node7</title>
<g id="a_edge57_Node000029_Node000007"><a xlink:title=" ">
<path fill="none" stroke="#63b8ff" d="M1448.99,-244.01C1409.7,-226.45 1338.38,-196.06 1275,-177 1216.11,-159.29 1145.97,-146 1102.97,-138.71"/>
<polygon fill="#63b8ff" stroke="#63b8ff" points="1447.48,-247.17 1458.04,-248.08 1450.36,-240.78 1447.48,-247.17"/>
</a>
</g>
</g>
<!-- Node30&#45;&gt;Node7 -->
<g id="edge59_Node000030_Node000007" class="edge">
<title>Node30&#45;&gt;Node7</title>
<g id="a_edge59_Node000030_Node000007"><a xlink:title=" ">
<path fill="none" stroke="#63b8ff" d="M1026.43,-173.78C1035.82,-163.14 1047.44,-149.99 1055.03,-141.4"/>
<polygon fill="#63b8ff" stroke="#63b8ff" points="1023.9,-171.36 1019.9,-181.17 1029.14,-176 1023.9,-171.36"/>
</a>
</g>
</g>
<!-- Node31&#45;&gt;Node7 -->
<g id="edge61_Node000031_Node000007" class="edge">
<title>Node31&#45;&gt;Node7</title>
<g id="a_edge61_Node000031_Node000007"><a xlink:title=" ">
<path fill="none" stroke="#63b8ff" d="M1371.63,-180.37C1364.67,-179.22 1357.69,-178.08 1351,-177 1262.34,-162.7 1158.17,-146.78 1102.62,-138.36"/>
<polygon fill="#63b8ff" stroke="#63b8ff" points="1370.58,-183.75 1381.02,-181.93 1371.73,-176.84 1370.58,-183.75"/>
</a>
</g>
</g>
<!-- Node32&#45;&gt;Node7 -->
<g id="edge63_Node000032_Node000007" class="edge">
<title>Node32&#45;&gt;Node7</title>
<g id="a_edge63_Node000032_Node000007"><a xlink:title=" ">
<path fill="none" stroke="#63b8ff" d="M1874.45,-237.31C1874.54,-218.55 1871.3,-191.52 1854,-177 1824.96,-152.63 1259.11,-137.14 1102.74,-133.31"/>
<polygon fill="#63b8ff" stroke="#63b8ff" points="1870.95,-237.09 1874.04,-247.22 1877.95,-237.37 1870.95,-237.09"/>
</a>
</g>
</g>
<!-- Node33&#45;&gt;Node7 -->
<g id="edge65_Node000033_Node000007" class="edge">
<title>Node33&#45;&gt;Node7</title>
<g id="a_edge65_Node000033_Node000007"><a xlink:title=" ">
<path fill="none" stroke="#63b8ff" d="M200.9,-179.87C206.63,-178.76 212.43,-177.76 218,-177 525.84,-134.9 901.79,-131.9 1023.18,-132.13"/>
<polygon fill="#63b8ff" stroke="#63b8ff" points="200.59,-176.36 191.51,-181.82 202.01,-183.22 200.59,-176.36"/>
</a>
</g>
</g>
<!-- Node34&#45;&gt;Node7 -->
<g id="edge67_Node000034_Node000007" class="edge">
<title>Node34&#45;&gt;Node7</title>
<g id="a_edge67_Node000034_Node000007"><a xlink:title=" ">
<path fill="none" stroke="#63b8ff" d="M249.69,-238.5C242.35,-220.22 235.67,-193.19 251,-177 277.81,-148.67 863.48,-136 1023.12,-133.06"/>
<polygon fill="#63b8ff" stroke="#63b8ff" points="246.4,-239.71 253.65,-247.43 252.79,-236.87 246.4,-239.71"/>
</a>
</g>
</g>
</g>
</svg>
