<?xml version="1.0" encoding="UTF-8" standalone="no"?>
<!DOCTYPE svg PUBLIC "-//W3C//DTD SVG 1.1//EN"
 "http://www.w3.org/Graphics/SVG/1.1/DTD/svg11.dtd">
<!-- Generated by graphviz version 9.0.0 (20230911.1827)
 -->
<!-- Title: algebra/State.h Pages: 1 -->
<svg width="435pt" height="138pt"
 viewBox="0.00 0.00 435.26 137.75" xmlns="http://www.w3.org/2000/svg" xmlns:xlink="http://www.w3.org/1999/xlink">
<g id="graph0" class="graph" transform="scale(1 1) rotate(0) translate(4 133.75)">
<title>algebra/State.h</title>
<!-- Node1 -->
<g id="Node000001" class="node">
<title>Node1</title>
<g id="a_Node000001"><a xlink:title="State source file.">
<polygon fill="#999999" stroke="#666666" points="216.01,-129.75 134.76,-129.75 134.76,-110.5 216.01,-110.5 216.01,-129.75"/>
<text text-anchor="middle" x="175.39" y="-116.25" font-family="Helvetica,sans-Serif" font-size="10.00">algebra/State.h</text>
</a>
</g>
</g>
<!-- Node2 -->
<g id="Node000002" class="node">
<title>Node2</title>
<g id="a_Node000002"><a xlink:href="_integrator_8h.html" target="_top" xlink:title="Integrator source file.">
<polygon fill="white" stroke="#666666" points="225.01,-74.5 125.76,-74.5 125.76,-55.25 225.01,-55.25 225.01,-74.5"/>
<text text-anchor="middle" x="175.39" y="-61" font-family="Helvetica,sans-Serif" font-size="10.00">algebra/Integrator.h</text>
</a>
</g>
</g>
<!-- Node1&#45;&gt;Node2 -->
<g id="edge1_Node000001_Node000002" class="edge">
<title>Node1&#45;&gt;Node2</title>
<g id="a_edge1_Node000001_Node000002"><a xlink:title=" ">
<path fill="none" stroke="#63b8ff" d="M175.39,-98.88C175.39,-90.59 175.39,-81.42 175.39,-74.86"/>
<polygon fill="#63b8ff" stroke="#63b8ff" points="171.89,-98.82 175.39,-108.82 178.89,-98.82 171.89,-98.82"/>
</a>
</g>
</g>
<!-- Node3 -->
<g id="Node000003" class="node">
<title>Node3</title>
<g id="a_Node000003"><a xlink:href="interface_8h.html" target="_top" xlink:title="svZeroDSolver callable interface.">
<polygon fill="white" stroke="#666666" points="111.14,-19.25 9.64,-19.25 9.64,0 111.14,0 111.14,-19.25"/>
<text text-anchor="middle" x="60.39" y="-5.75" font-family="Helvetica,sans-Serif" font-size="10.00">interface/interface.h</text>
</a>
</g>
</g>
<!-- Node1&#45;&gt;Node3 -->
<g id="edge4_Node000001_Node000003" class="edge">
<title>Node1&#45;&gt;Node3</title>
<g id="a_edge4_Node000001_Node000003"><a xlink:title=" ">
<path fill="none" stroke="#63b8ff" d="M123.33,-112.56C78.55,-105.71 18.92,-93.32 4.39,-74.5 -11.39,-54.08 20.57,-31.73 42.38,-19.63"/>
<polygon fill="#63b8ff" stroke="#63b8ff" points="122.75,-116.01 133.15,-114 123.77,-109.08 122.75,-116.01"/>
</a>
</g>
</g>
<!-- Node4 -->
<g id="Node000004" class="node">
<title>Node4</title>
<g id="a_Node000004"><a xlink:href="_solver_8h.html" target="_top" xlink:title="Solver source file.">
<polygon fill="white" stroke="#666666" points="292.14,-19.25 214.64,-19.25 214.64,0 292.14,0 292.14,-19.25"/>
<text text-anchor="middle" x="253.39" y="-5.75" font-family="Helvetica,sans-Serif" font-size="10.00">solve/Solver.h</text>
</a>
</g>
</g>
<!-- Node1&#45;&gt;Node4 -->
<g id="edge7_Node000001_Node000004" class="edge">
<title>Node1&#45;&gt;Node4</title>
<g id="a_edge7_Node000001_Node000004"><a xlink:title=" ">
<path fill="none" stroke="#63b8ff" d="M202.33,-104.06C213.67,-96.51 226.12,-86.42 234.39,-74.5 246.25,-57.39 250.82,-32.76 252.49,-19.65"/>
<polygon fill="#63b8ff" stroke="#63b8ff" points="200.69,-100.95 194.07,-109.22 204.4,-106.89 200.69,-100.95"/>
</a>
</g>
</g>
<!-- Node5 -->
<g id="Node000005" class="node">
<title>Node5</title>
<g id="a_Node000005"><a xlink:href="_simulation_parameters_8h.html" target="_top" xlink:title="Source file to read simulation configuration.">
<polygon fill="white" stroke="#666666" points="427.26,-74.5 281.51,-74.5 281.51,-55.25 427.26,-55.25 427.26,-74.5"/>
<text text-anchor="middle" x="354.39" y="-61" font-family="Helvetica,sans-Serif" font-size="10.00">solve/SimulationParameters.h</text>
</a>
</g>
</g>
<!-- Node1&#45;&gt;Node5 -->
<g id="edge5_Node000001_Node000005" class="edge">
<title>Node1&#45;&gt;Node5</title>
<g id="a_edge5_Node000001_Node000005"><a xlink:title=" ">
<path fill="none" stroke="#63b8ff" d="M216.76,-106.82C249.47,-97.09 294.38,-83.73 323.87,-74.95"/>
<polygon fill="#63b8ff" stroke="#63b8ff" points="215.79,-103.45 207.2,-109.66 217.78,-110.16 215.79,-103.45"/>
</a>
</g>
</g>
<!-- Node6 -->
<g id="Node000006" class="node">
<title>Node6</title>
<g id="a_Node000006"><a xlink:href="csv__writer_8h.html" target="_top" xlink:title="csv_writer source file">
<polygon fill="white" stroke="#666666" points="107.76,-74.5 13.01,-74.5 13.01,-55.25 107.76,-55.25 107.76,-74.5"/>
<text text-anchor="middle" x="60.39" y="-61" font-family="Helvetica,sans-Serif" font-size="10.00">solve/csv_writer.h</text>
</a>
</g>
</g>
<!-- Node1&#45;&gt;Node6 -->
<g id="edge8_Node000001_Node000006" class="edge">
<title>Node1&#45;&gt;Node6</title>
<g id="a_edge8_Node000001_Node000006"><a xlink:title=" ">
<path fill="none" stroke="#63b8ff" d="M145.44,-105.26C124.79,-95.7 97.95,-83.27 79.99,-74.95"/>
<polygon fill="#63b8ff" stroke="#63b8ff" points="143.96,-108.43 154.5,-109.46 146.9,-102.08 143.96,-108.43"/>
</a>
</g>
</g>
<!-- Node2&#45;&gt;Node3 -->
<g id="edge2_Node000002_Node000003" class="edge">
<title>Node2&#45;&gt;Node3</title>
<g id="a_edge2_Node000002_Node000003"><a xlink:title=" ">
<path fill="none" stroke="#63b8ff" d="M145.44,-50.01C124.79,-40.45 97.95,-28.02 79.99,-19.7"/>
<polygon fill="#63b8ff" stroke="#63b8ff" points="143.96,-53.18 154.5,-54.21 146.9,-46.83 143.96,-53.18"/>
</a>
</g>
</g>
<!-- Node2&#45;&gt;Node4 -->
<g id="edge3_Node000002_Node000004" class="edge">
<title>Node2&#45;&gt;Node4</title>
<g id="a_edge3_Node000002_Node000004"><a xlink:title=" ">
<path fill="none" stroke="#63b8ff" d="M197.86,-48.53C211.53,-39.2 228.53,-27.6 240.09,-19.7"/>
<polygon fill="#63b8ff" stroke="#63b8ff" points="196.15,-45.46 189.87,-53.99 200.1,-51.24 196.15,-45.46"/>
</a>
</g>
</g>
<!-- Node5&#45;&gt;Node4 -->
<g id="edge6_Node000005_Node000004" class="edge">
<title>Node5&#45;&gt;Node4</title>
<g id="a_edge6_Node000005_Node000004"><a xlink:title=" ">
<path fill="none" stroke="#63b8ff" d="M327.07,-49.48C309.09,-39.99 286.08,-27.86 270.6,-19.7"/>
<polygon fill="#63b8ff" stroke="#63b8ff" points="325.44,-52.57 335.91,-54.14 328.7,-46.38 325.44,-52.57"/>
</a>
</g>
</g>
<!-- Node6&#45;&gt;Node3 -->
<g id="edge9_Node000006_Node000003" class="edge">
<title>Node6&#45;&gt;Node3</title>
<g id="a_edge9_Node000006_Node000003"><a xlink:title=" ">
<path fill="none" stroke="#63b8ff" d="M60.39,-43.63C60.39,-35.34 60.39,-26.17 60.39,-19.61"/>
<polygon fill="#63b8ff" stroke="#63b8ff" points="56.89,-43.57 60.39,-53.57 63.89,-43.57 56.89,-43.57"/>
</a>
</g>
</g>
</g>
</svg>
