<?xml version="1.0" encoding="UTF-8" standalone="no"?>
<!DOCTYPE svg PUBLIC "-//W3C//DTD SVG 1.1//EN"
 "http://www.w3.org/Graphics/SVG/1.1/DTD/svg11.dtd">
<!-- Generated by graphviz version 12.2.1 (20241206.2353)
 -->
<!-- Title: algebra/State.h Pages: 1 -->
<svg width="1594pt" height="437pt"
 viewBox="0.00 0.00 1594.00 436.50" xmlns="http://www.w3.org/2000/svg" xmlns:xlink="http://www.w3.org/1999/xlink">
<g id="graph0" class="graph" transform="scale(1 1) rotate(0) translate(4 432.5)">
<title>algebra/State.h</title>
<!-- Node1 -->
<g id="Node000001" class="node">
<title>Node1</title>
<g id="a_Node000001"><a xlink:title="State source file.">
<polygon fill="#999999" stroke="#666666" points="827.62,-428.5 746.38,-428.5 746.38,-409.25 827.62,-409.25 827.62,-428.5"/>
<text text-anchor="middle" x="787" y="-415" font-family="Helvetica,sans-Serif" font-size="10.00">algebra/State.h</text>
</a>
</g>
</g>
<!-- Node2 -->
<g id="Node000002" class="node">
<title>Node2</title>
<g id="a_Node000002"><a xlink:href="_integrator_8h.html" target="_top" xlink:title="Integrator source file.">
<polygon fill="white" stroke="#666666" points="454.62,-80.12 355.38,-80.12 355.38,-60.88 454.62,-60.88 454.62,-80.12"/>
<text text-anchor="middle" x="405" y="-66.62" font-family="Helvetica,sans-Serif" font-size="10.00">algebra/Integrator.h</text>
</a>
</g>
</g>
<!-- Node1&#45;&gt;Node2 -->
<g id="edge1_Node000001_Node000002" class="edge">
<title>Node1&#45;&gt;Node2</title>
<g id="a_edge1_Node000001_Node000002"><a xlink:title=" ">
<path fill="none" stroke="#63b8ff" d="M734.72,-415.41C570.53,-406.97 76,-376.02 76,-309.38 76,-309.38 76,-309.38 76,-191.25 76,-160.29 284.41,-102.76 369.48,-80.56"/>
<polygon fill="#63b8ff" stroke="#63b8ff" points="734.28,-418.89 744.45,-415.9 734.64,-411.9 734.28,-418.89"/>
</a>
</g>
</g>
<!-- Node3 -->
<g id="Node000003" class="node">
<title>Node3</title>
<g id="a_Node000003"><a xlink:href="interface_8h.html" target="_top" xlink:title="svZeroDSolver callable interface.">
<polygon fill="white" stroke="#666666" points="982.75,-19.25 881.25,-19.25 881.25,0 982.75,0 982.75,-19.25"/>
<text text-anchor="middle" x="932" y="-5.75" font-family="Helvetica,sans-Serif" font-size="10.00">interface/interface.h</text>
</a>
</g>
</g>
<!-- Node1&#45;&gt;Node3 -->
<g id="edge4_Node000001_Node000003" class="edge">
<title>Node1&#45;&gt;Node3</title>
<g id="a_edge4_Node000001_Node000003"><a xlink:title=" ">
<path fill="none" stroke="#63b8ff" d="M838.92,-417.48C977.64,-415.97 1354.38,-408.61 1473,-373.25 1528.29,-356.77 1586,-367.07 1586,-309.38 1586,-309.38 1586,-309.38 1586,-130.38 1586,-69.16 1136.96,-27.17 983.05,-14.58"/>
<polygon fill="#63b8ff" stroke="#63b8ff" points="839.28,-413.98 829.31,-417.58 839.35,-420.98 839.28,-413.98"/>
</a>
</g>
</g>
<!-- Node4 -->
<g id="Node000004" class="node">
<title>Node4</title>
<g id="a_Node000004"><a xlink:href="_solver_8h.html" target="_top" xlink:title="Solver source file.">
<polygon fill="white" stroke="#666666" points="372.75,-19.25 295.25,-19.25 295.25,0 372.75,0 372.75,-19.25"/>
<text text-anchor="middle" x="334" y="-5.75" font-family="Helvetica,sans-Serif" font-size="10.00">solve/Solver.h</text>
</a>
</g>
</g>
<!-- Node1&#45;&gt;Node4 -->
<g id="edge54_Node000001_Node000004" class="edge">
<title>Node1&#45;&gt;Node4</title>
<g id="a_edge54_Node000001_Node000004"><a xlink:title=" ">
<path fill="none" stroke="#63b8ff" d="M734.84,-416.83C578.79,-413.41 122.64,-401.13 62,-373.25 26.05,-356.73 0,-348.94 0,-309.38 0,-309.38 0,-309.38 0,-130.38 0,-68.31 206.93,-29.76 295.03,-16.16"/>
<polygon fill="#63b8ff" stroke="#63b8ff" points="734.39,-420.32 744.46,-417.04 734.54,-413.33 734.39,-420.32"/>
</a>
</g>
</g>
<!-- Node5 -->
<g id="Node000005" class="node">
<title>Node5</title>
<g id="a_Node000005"><a xlink:href="_block_8h.html" target="_top" xlink:title="model::Block source file">
<polygon fill="white" stroke="#666666" points="825.75,-373.25 748.25,-373.25 748.25,-354 825.75,-354 825.75,-373.25"/>
<text text-anchor="middle" x="787" y="-359.75" font-family="Helvetica,sans-Serif" font-size="10.00">model/Block.h</text>
</a>
</g>
</g>
<!-- Node1&#45;&gt;Node5 -->
<g id="edge5_Node000001_Node000005" class="edge">
<title>Node1&#45;&gt;Node5</title>
<g id="a_edge5_Node000001_Node000005"><a xlink:title=" ">
<path fill="none" stroke="#63b8ff" d="M787,-397.63C787,-389.34 787,-380.17 787,-373.61"/>
<polygon fill="#63b8ff" stroke="#63b8ff" points="783.5,-397.57 787,-407.57 790.5,-397.57 783.5,-397.57"/>
</a>
</g>
</g>
<!-- Node7 -->
<g id="Node000007" class="node">
<title>Node7</title>
<g id="a_Node000007"><a xlink:href="_model_8h.html" target="_top" xlink:title="model::Model source file">
<polygon fill="white" stroke="#666666" points="762.5,-141 683.5,-141 683.5,-121.75 762.5,-121.75 762.5,-141"/>
<text text-anchor="middle" x="723" y="-127.5" font-family="Helvetica,sans-Serif" font-size="10.00">model/Model.h</text>
</a>
</g>
</g>
<!-- Node1&#45;&gt;Node7 -->
<g id="edge52_Node000001_Node000007" class="edge">
<title>Node1&#45;&gt;Node7</title>
<g id="a_edge52_Node000001_Node000007"><a xlink:title=" ">
<path fill="none" stroke="#63b8ff" d="M839.31,-415.54C1005.4,-407.44 1510,-377.24 1510,-309.38 1510,-309.38 1510,-309.38 1510,-252.12 1510,-191.45 1453.51,-196.34 1396,-177 1277.52,-137.15 888.57,-132.73 762.69,-132.36"/>
<polygon fill="#63b8ff" stroke="#63b8ff" points="839.28,-412.04 829.45,-416.01 839.61,-419.03 839.28,-412.04"/>
</a>
</g>
</g>
<!-- Node11 -->
<g id="Node000011" class="node">
<title>Node11</title>
<g id="a_Node000011"><a xlink:href="_simulation_parameters_8h.html" target="_top" xlink:title="Source file to read simulation configuration.">
<polygon fill="white" stroke="#666666" points="336.88,-80.12 191.12,-80.12 191.12,-60.88 336.88,-60.88 336.88,-80.12"/>
<text text-anchor="middle" x="264" y="-66.62" font-family="Helvetica,sans-Serif" font-size="10.00">solve/SimulationParameters.h</text>
</a>
</g>
</g>
<!-- Node1&#45;&gt;Node11 -->
<g id="edge53_Node000001_Node000011" class="edge">
<title>Node1&#45;&gt;Node11</title>
<g id="a_edge53_Node000001_Node000011"><a xlink:title=" ">
<path fill="none" stroke="#63b8ff" d="M734.73,-416.9C604.34,-414.02 267.51,-403.78 160,-373.25 101.12,-356.53 38,-370.58 38,-309.38 38,-309.38 38,-309.38 38,-191.25 38,-120.76 124.91,-91.64 190.94,-79.7"/>
<polygon fill="#63b8ff" stroke="#63b8ff" points="734.37,-420.39 744.44,-417.11 734.52,-413.39 734.37,-420.39"/>
</a>
</g>
</g>
<!-- Node12 -->
<g id="Node000012" class="node">
<title>Node12</title>
<g id="a_Node000012"><a xlink:href="csv__writer_8h.html" target="_top" xlink:title="csv_writer source file">
<polygon fill="white" stroke="#666666" points="1111.38,-80.12 1016.62,-80.12 1016.62,-60.88 1111.38,-60.88 1111.38,-80.12"/>
<text text-anchor="middle" x="1064" y="-66.62" font-family="Helvetica,sans-Serif" font-size="10.00">solve/csv_writer.h</text>
</a>
</g>
</g>
<!-- Node1&#45;&gt;Node12 -->
<g id="edge55_Node000001_Node000012" class="edge">
<title>Node1&#45;&gt;Node12</title>
<g id="a_edge55_Node000001_Node000012"><a xlink:title=" ">
<path fill="none" stroke="#63b8ff" d="M839.02,-416.14C965.7,-411.57 1287.49,-397.85 1392,-373.25 1464.93,-356.09 1548,-384.3 1548,-309.38 1548,-309.38 1548,-309.38 1548,-191.25 1548,-101.98 1233.84,-78.83 1111.73,-73.2"/>
<polygon fill="#63b8ff" stroke="#63b8ff" points="839.12,-412.63 829.25,-416.49 839.37,-419.63 839.12,-412.63"/>
</a>
</g>
</g>
<!-- Node2&#45;&gt;Node3 -->
<g id="edge2_Node000002_Node000003" class="edge">
<title>Node2&#45;&gt;Node3</title>
<g id="a_edge2_Node000002_Node000003"><a xlink:title=" ">
<path fill="none" stroke="#63b8ff" d="M466.02,-60.13C477.94,-58.42 490.35,-56.71 502,-55.25 638.66,-38.13 800.34,-22.62 880.95,-15.22"/>
<polygon fill="#63b8ff" stroke="#63b8ff" points="465.68,-56.65 456.29,-61.55 466.69,-63.57 465.68,-56.65"/>
</a>
</g>
</g>
<!-- Node2&#45;&gt;Node4 -->
<g id="edge3_Node000002_Node000004" class="edge">
<title>Node2&#45;&gt;Node4</title>
<g id="a_edge3_Node000002_Node000004"><a xlink:title=" ">
<path fill="none" stroke="#63b8ff" d="M385.48,-53.31C372.4,-42.46 355.66,-28.59 344.88,-19.65"/>
<polygon fill="#63b8ff" stroke="#63b8ff" points="383.12,-55.9 393.05,-59.59 387.59,-50.51 383.12,-55.9"/>
</a>
</g>
</g>
<!-- Node6 -->
<g id="Node000006" class="node">
<title>Node6</title>
<g id="a_Node000006"><a xlink:href="_block_factory_8h.html" target="_top" xlink:title="Define the block factory functional.">
<polygon fill="white" stroke="#666666" points="1443.88,-262.75 1334.12,-262.75 1334.12,-243.5 1443.88,-243.5 1443.88,-262.75"/>
<text text-anchor="middle" x="1389" y="-249.25" font-family="Helvetica,sans-Serif" font-size="10.00">model/BlockFactory.h</text>
</a>
</g>
</g>
<!-- Node5&#45;&gt;Node6 -->
<g id="edge6_Node000005_Node000006" class="edge">
<title>Node5&#45;&gt;Node6</title>
<g id="a_edge6_Node000005_Node000006"><a xlink:title=" ">
<path fill="none" stroke="#63b8ff" d="M837.15,-361.46C948.37,-358.37 1212.44,-348 1296,-318 1330.29,-305.69 1363.85,-277.55 1379.63,-263.08"/>
<polygon fill="#63b8ff" stroke="#63b8ff" points="837.35,-357.96 827.45,-361.72 837.54,-364.95 837.35,-357.96"/>
</a>
</g>
</g>
<!-- Node5&#45;&gt;Node7 -->
<g id="edge39_Node000005_Node000007" class="edge">
<title>Node5&#45;&gt;Node7</title>
<g id="a_edge39_Node000005_Node000007"><a xlink:title=" ">
<path fill="none" stroke="#63b8ff" d="M736.85,-363.04C590.87,-363.73 173.94,-361.83 133,-318 -28.72,-144.87 526.52,-132.28 683.05,-132.11"/>
<polygon fill="#63b8ff" stroke="#63b8ff" points="736.6,-366.54 746.58,-362.99 736.57,-359.54 736.6,-366.54"/>
</a>
</g>
</g>
<!-- Node8 -->
<g id="Node000008" class="node">
<title>Node8</title>
<g id="a_Node000008"><a xlink:href="_chamber_elastance_inductor_8h.html" target="_top" xlink:title="model::ChamberElastanceInductor source file">
<polygon fill="white" stroke="#666666" points="998.88,-80.12 829.12,-80.12 829.12,-60.88 998.88,-60.88 998.88,-80.12"/>
<text text-anchor="middle" x="914" y="-66.62" font-family="Helvetica,sans-Serif" font-size="10.00">model/ChamberElastanceInductor.h</text>
</a>
</g>
</g>
<!-- Node5&#45;&gt;Node8 -->
<g id="edge24_Node000005_Node000008" class="edge">
<title>Node5&#45;&gt;Node8</title>
<g id="a_edge24_Node000005_Node000008"><a xlink:title=" ">
<path fill="none" stroke="#63b8ff" d="M837.47,-360.61C953.43,-355.63 1235.95,-341.43 1328,-318 1395.85,-300.73 1472,-324.14 1472,-254.12 1472,-254.12 1472,-254.12 1472,-191.25 1472,-165.77 1111.56,-103.89 970.06,-80.58"/>
<polygon fill="#63b8ff" stroke="#63b8ff" points="837.49,-357.11 827.64,-361.03 837.78,-364.1 837.49,-357.11"/>
</a>
</g>
</g>
<!-- Node13 -->
<g id="Node000013" class="node">
<title>Node13</title>
<g id="a_Node000013"><a xlink:href="_blood_vessel_8h.html" target="_top" xlink:title="model::BloodVessel source file">
<polygon fill="white" stroke="#666666" points="249.75,-318 142.25,-318 142.25,-298.75 249.75,-298.75 249.75,-318"/>
<text text-anchor="middle" x="196" y="-304.5" font-family="Helvetica,sans-Serif" font-size="10.00">model/BloodVessel.h</text>
</a>
</g>
</g>
<!-- Node5&#45;&gt;Node13 -->
<g id="edge19_Node000005_Node000013" class="edge">
<title>Node5&#45;&gt;Node13</title>
<g id="a_edge19_Node000005_Node000013"><a xlink:title=" ">
<path fill="none" stroke="#63b8ff" d="M736.56,-359.01C643.19,-352.17 437.16,-336.36 264,-318 259.5,-317.52 254.84,-317 250.17,-316.45"/>
<polygon fill="#63b8ff" stroke="#63b8ff" points="736.17,-362.49 746.4,-359.73 736.68,-355.51 736.17,-362.49"/>
</a>
</g>
</g>
<!-- Node14 -->
<g id="Node000014" class="node">
<title>Node14</title>
<g id="a_Node000014"><a xlink:href="_blood_vessel_junction_8h.html" target="_top" xlink:title="model::BloodVesselJunction source file">
<polygon fill="white" stroke="#666666" points="347.12,-262.75 202.88,-262.75 202.88,-243.5 347.12,-243.5 347.12,-262.75"/>
<text text-anchor="middle" x="275" y="-249.25" font-family="Helvetica,sans-Serif" font-size="10.00">model/BloodVesselJunction.h</text>
</a>
</g>
</g>
<!-- Node5&#45;&gt;Node14 -->
<g id="edge23_Node000005_Node000014" class="edge">
<title>Node5&#45;&gt;Node14</title>
<g id="a_edge23_Node000005_Node000014"><a xlink:title=" ">
<path fill="none" stroke="#63b8ff" d="M736.64,-361.1C618.52,-357.11 331.07,-344.72 297,-318 279.83,-304.54 276,-276.92 275.18,-262.82"/>
<polygon fill="#63b8ff" stroke="#63b8ff" points="736.23,-364.59 746.35,-361.43 736.47,-357.6 736.23,-364.59"/>
</a>
</g>
</g>
<!-- Node15 -->
<g id="Node000015" class="node">
<title>Node15</title>
<g id="a_Node000015"><a xlink:href="_closed_loop_coronary_b_c_8h.html" target="_top" xlink:title="model::ClosedLoopCoronaryBC source file">
<polygon fill="white" stroke="#666666" points="1278.12,-262.75 1121.88,-262.75 1121.88,-243.5 1278.12,-243.5 1278.12,-262.75"/>
<text text-anchor="middle" x="1200" y="-249.25" font-family="Helvetica,sans-Serif" font-size="10.00">model/ClosedLoopCoronaryBC.h</text>
</a>
</g>
</g>
<!-- Node5&#45;&gt;Node15 -->
<g id="edge25_Node000005_Node000015" class="edge">
<title>Node5&#45;&gt;Node15</title>
<g id="a_edge25_Node000005_Node000015"><a xlink:title=" ">
<path fill="none" stroke="#63b8ff" d="M832.63,-350.64C915.92,-328.76 1090.88,-282.79 1165.31,-263.24"/>
<polygon fill="#63b8ff" stroke="#63b8ff" points="831.75,-347.25 822.97,-353.18 833.53,-354.02 831.75,-347.25"/>
</a>
</g>
</g>
<!-- Node18 -->
<g id="Node000018" class="node">
<title>Node18</title>
<g id="a_Node000018"><a xlink:href="_closed_loop_heart_pulmonary_8h.html" target="_top" xlink:title="model::ClosedLoopHeartPulmonary source file">
<polygon fill="white" stroke="#666666" points="1287.12,-318 1112.88,-318 1112.88,-298.75 1287.12,-298.75 1287.12,-318"/>
<text text-anchor="middle" x="1200" y="-304.5" font-family="Helvetica,sans-Serif" font-size="10.00">model/ClosedLoopHeartPulmonary.h</text>
</a>
</g>
</g>
<!-- Node5&#45;&gt;Node18 -->
<g id="edge30_Node000005_Node000018" class="edge">
<title>Node5&#45;&gt;Node18</title>
<g id="a_edge30_Node000005_Node000018"><a xlink:title=" ">
<path fill="none" stroke="#63b8ff" d="M837.41,-356.12C910.59,-346.69 1046.54,-329.16 1129.58,-318.46"/>
<polygon fill="#63b8ff" stroke="#63b8ff" points="837.2,-352.62 827.73,-357.37 838.09,-359.57 837.2,-352.62"/>
</a>
</g>
</g>
<!-- Node19 -->
<g id="Node000019" class="node">
<title>Node19</title>
<g id="a_Node000019"><a xlink:href="_closed_loop_r_c_r_b_c_8h.html" target="_top" xlink:title="model::ClosedLoopRCRBC source file">
<polygon fill="white" stroke="#666666" points="444.12,-318 305.88,-318 305.88,-298.75 444.12,-298.75 444.12,-318"/>
<text text-anchor="middle" x="375" y="-304.5" font-family="Helvetica,sans-Serif" font-size="10.00">model/ClosedLoopRCRBC.h</text>
</a>
</g>
</g>
<!-- Node5&#45;&gt;Node19 -->
<g id="edge33_Node000005_Node000019" class="edge">
<title>Node5&#45;&gt;Node19</title>
<g id="a_edge33_Node000005_Node000019"><a xlink:title=" ">
<path fill="none" stroke="#63b8ff" d="M736.67,-356.12C663.44,-346.66 527.25,-329.05 444.5,-318.36"/>
<polygon fill="#63b8ff" stroke="#63b8ff" points="736,-359.56 746.37,-357.37 736.9,-352.62 736,-359.56"/>
</a>
</g>
</g>
<!-- Node20 -->
<g id="Node000020" class="node">
<title>Node20</title>
<g id="a_Node000020"><a xlink:href="_flow_reference_b_c_8h.html" target="_top" xlink:title="model::FlowReferenceBC source file">
<polygon fill="white" stroke="#666666" points="631.75,-318 500.25,-318 500.25,-298.75 631.75,-298.75 631.75,-318"/>
<text text-anchor="middle" x="566" y="-304.5" font-family="Helvetica,sans-Serif" font-size="10.00">model/FlowReferenceBC.h</text>
</a>
</g>
</g>
<!-- Node5&#45;&gt;Node20 -->
<g id="edge35_Node000005_Node000020" class="edge">
<title>Node5&#45;&gt;Node20</title>
<g id="a_edge35_Node000005_Node000020"><a xlink:title=" ">
<path fill="none" stroke="#63b8ff" d="M738.28,-350.89C697.69,-341.11 640.72,-327.38 603.58,-318.43"/>
<polygon fill="#63b8ff" stroke="#63b8ff" points="737.25,-354.24 747.79,-353.18 738.89,-347.43 737.25,-354.24"/>
</a>
</g>
</g>
<!-- Node21 -->
<g id="Node000021" class="node">
<title>Node21</title>
<g id="a_Node000021"><a xlink:href="_junction_8h.html" target="_top" xlink:title="model::Junction source file">
<polygon fill="white" stroke="#666666" points="739.75,-318 650.25,-318 650.25,-298.75 739.75,-298.75 739.75,-318"/>
<text text-anchor="middle" x="695" y="-304.5" font-family="Helvetica,sans-Serif" font-size="10.00">model/Junction.h</text>
</a>
</g>
</g>
<!-- Node5&#45;&gt;Node21 -->
<g id="edge37_Node000005_Node000021" class="edge">
<title>Node5&#45;&gt;Node21</title>
<g id="a_edge37_Node000005_Node000021"><a xlink:title=" ">
<path fill="none" stroke="#63b8ff" d="M761.89,-348.09C745.54,-338.63 724.72,-326.58 710.68,-318.45"/>
<polygon fill="#63b8ff" stroke="#63b8ff" points="759.68,-350.85 770.08,-352.83 763.18,-344.79 759.68,-350.85"/>
</a>
</g>
</g>
<!-- Node22 -->
<g id="Node000022" class="node">
<title>Node22</title>
<g id="a_Node000022"><a xlink:href="_open_loop_coronary_b_c_8h.html" target="_top" xlink:title="model::OpenLoopCoronaryBC source file">
<polygon fill="white" stroke="#666666" points="776.75,-262.75 627.25,-262.75 627.25,-243.5 776.75,-243.5 776.75,-262.75"/>
<text text-anchor="middle" x="702" y="-249.25" font-family="Helvetica,sans-Serif" font-size="10.00">model/OpenLoopCoronaryBC.h</text>
</a>
</g>
</g>
<!-- Node5&#45;&gt;Node22 -->
<g id="edge40_Node000005_Node000022" class="edge">
<title>Node5&#45;&gt;Node22</title>
<g id="a_edge40_Node000005_Node000022"><a xlink:title=" ">
<path fill="none" stroke="#63b8ff" d="M777.7,-344.04C770.67,-330.8 760.32,-312.93 749,-298.75 738.05,-285.04 722.99,-271.46 712.9,-262.95"/>
<polygon fill="#63b8ff" stroke="#63b8ff" points="774.39,-345.25 782.08,-352.53 780.61,-342.04 774.39,-345.25"/>
</a>
</g>
</g>
<!-- Node23 -->
<g id="Node000023" class="node">
<title>Node23</title>
<g id="a_Node000023"><a xlink:href="_pressure_reference_b_c_8h.html" target="_top" xlink:title="model::PressureReferenceBC source file">
<polygon fill="white" stroke="#666666" points="948.75,-201.88 799.25,-201.88 799.25,-182.62 948.75,-182.62 948.75,-201.88"/>
<text text-anchor="middle" x="874" y="-188.38" font-family="Helvetica,sans-Serif" font-size="10.00">model/PressureReferenceBC.h</text>
</a>
</g>
</g>
<!-- Node5&#45;&gt;Node23 -->
<g id="edge42_Node000005_Node000023" class="edge">
<title>Node5&#45;&gt;Node23</title>
<g id="a_edge42_Node000005_Node000023"><a xlink:title=" ">
<path fill="none" stroke="#63b8ff" d="M796.77,-343.68C800.86,-335.75 805.67,-326.43 810,-318 832.26,-274.7 858.8,-222.92 869.35,-202.33"/>
<polygon fill="#63b8ff" stroke="#63b8ff" points="793.75,-341.9 792.28,-352.39 799.98,-345.11 793.75,-341.9"/>
</a>
</g>
</g>
<!-- Node24 -->
<g id="Node000024" class="node">
<title>Node24</title>
<g id="a_Node000024"><a xlink:href="_resistance_b_c_8h.html" target="_top" xlink:title="model::ResistanceBC source file">
<polygon fill="white" stroke="#666666" points="986.5,-262.75 871.5,-262.75 871.5,-243.5 986.5,-243.5 986.5,-262.75"/>
<text text-anchor="middle" x="929" y="-249.25" font-family="Helvetica,sans-Serif" font-size="10.00">model/ResistanceBC.h</text>
</a>
</g>
</g>
<!-- Node5&#45;&gt;Node24 -->
<g id="edge44_Node000005_Node000024" class="edge">
<title>Node5&#45;&gt;Node24</title>
<g id="a_edge44_Node000005_Node000024"><a xlink:title=" ">
<path fill="none" stroke="#63b8ff" d="M812.84,-347.85C826.62,-339.61 843.65,-328.84 858,-318 881.82,-300.01 907.24,-275.74 920.24,-262.92"/>
<polygon fill="#63b8ff" stroke="#63b8ff" points="811.18,-344.76 804.33,-352.85 814.72,-350.8 811.18,-344.76"/>
</a>
</g>
</g>
<!-- Node25 -->
<g id="Node000025" class="node">
<title>Node25</title>
<g id="a_Node000025"><a xlink:href="_resistive_junction_8h.html" target="_top" xlink:title="model::ResistiveJunction source file">
<polygon fill="white" stroke="#666666" points="533,-201.88 403,-201.88 403,-182.62 533,-182.62 533,-201.88"/>
<text text-anchor="middle" x="468" y="-188.38" font-family="Helvetica,sans-Serif" font-size="10.00">model/ResistiveJunction.h</text>
</a>
</g>
</g>
<!-- Node5&#45;&gt;Node25 -->
<g id="edge46_Node000005_Node000025" class="edge">
<title>Node5&#45;&gt;Node25</title>
<g id="a_edge46_Node000005_Node000025"><a xlink:title=" ">
<path fill="none" stroke="#63b8ff" d="M736.69,-361.87C661.54,-359.65 525.14,-351.05 491,-318 458.4,-286.45 463.37,-224.9 466.56,-202.06"/>
<polygon fill="#63b8ff" stroke="#63b8ff" points="736.15,-365.36 746.24,-362.12 736.34,-358.36 736.15,-365.36"/>
</a>
</g>
</g>
<!-- Node26 -->
<g id="Node000026" class="node">
<title>Node26</title>
<g id="a_Node000026"><a xlink:href="_valve_tanh_8h.html" target="_top" xlink:title="model::ValveTanh source file">
<polygon fill="white" stroke="#666666" points="1103.62,-262.75 1004.38,-262.75 1004.38,-243.5 1103.62,-243.5 1103.62,-262.75"/>
<text text-anchor="middle" x="1054" y="-249.25" font-family="Helvetica,sans-Serif" font-size="10.00">model/ValveTanh.h</text>
</a>
</g>
</g>
<!-- Node5&#45;&gt;Node26 -->
<g id="edge48_Node000005_Node000026" class="edge">
<title>Node5&#45;&gt;Node26</title>
<g id="a_edge48_Node000005_Node000026"><a xlink:title=" ">
<path fill="none" stroke="#63b8ff" d="M819.87,-349.27C874.95,-326.89 984.44,-282.39 1031.57,-263.24"/>
<polygon fill="#63b8ff" stroke="#63b8ff" points="818.65,-345.98 810.71,-352.99 821.29,-352.47 818.65,-345.98"/>
</a>
</g>
</g>
<!-- Node27 -->
<g id="Node000027" class="node">
<title>Node27</title>
<g id="a_Node000027"><a xlink:href="_windkessel_b_c_8h.html" target="_top" xlink:title="model::WindkesselBC source file">
<polygon fill="white" stroke="#666666" points="781.25,-201.88 664.75,-201.88 664.75,-182.62 781.25,-182.62 781.25,-201.88"/>
<text text-anchor="middle" x="723" y="-188.38" font-family="Helvetica,sans-Serif" font-size="10.00">model/WindkesselBC.h</text>
</a>
</g>
</g>
<!-- Node5&#45;&gt;Node27 -->
<g id="edge50_Node000005_Node000027" class="edge">
<title>Node5&#45;&gt;Node27</title>
<g id="a_edge50_Node000005_Node000027"><a xlink:title=" ">
<path fill="none" stroke="#63b8ff" d="M791.85,-342.54C796.71,-317.85 801.49,-275.33 786,-243.5 776.82,-224.63 756.77,-210.62 741.74,-202.26"/>
<polygon fill="#63b8ff" stroke="#63b8ff" points="788.45,-341.67 789.73,-352.19 795.29,-343.17 788.45,-341.67"/>
</a>
</g>
</g>
<!-- Node6&#45;&gt;Node7 -->
<g id="edge7_Node000006_Node000007" class="edge">
<title>Node6&#45;&gt;Node7</title>
<g id="a_edge7_Node000006_Node000007"><a xlink:title=" ">
<path fill="none" stroke="#63b8ff" d="M1391.1,-231.66C1391.63,-214.38 1389.2,-190.36 1374,-177 1328.11,-136.66 897.18,-132.62 762.81,-132.35"/>
<polygon fill="#63b8ff" stroke="#63b8ff" points="1387.62,-231.32 1390.41,-241.54 1394.6,-231.8 1387.62,-231.32"/>
</a>
</g>
</g>
<!-- Node7&#45;&gt;Node2 -->
<g id="edge8_Node000007_Node000002" class="edge">
<title>Node7&#45;&gt;Node2</title>
<g id="a_edge8_Node000007_Node000002"><a xlink:title=" ">
<path fill="none" stroke="#63b8ff" d="M672.18,-122.14C620.82,-113.65 539.22,-99.73 469,-85.75 461.07,-84.17 452.62,-82.37 444.54,-80.6"/>
<polygon fill="#63b8ff" stroke="#63b8ff" points="671.37,-125.55 681.81,-123.72 672.51,-118.65 671.37,-125.55"/>
</a>
</g>
</g>
<!-- Node7&#45;&gt;Node3 -->
<g id="edge9_Node000007_Node000003" class="edge">
<title>Node7&#45;&gt;Node3</title>
<g id="a_edge9_Node000007_Node000003"><a xlink:title=" ">
<path fill="none" stroke="#63b8ff" d="M743.93,-114.77C755.26,-106.27 769.46,-95.52 782,-85.75 799.08,-72.44 801.29,-66.16 820,-55.25 846.4,-39.86 879.12,-27.51 902.36,-19.74"/>
<polygon fill="#63b8ff" stroke="#63b8ff" points="741.95,-111.88 736.04,-120.68 746.15,-117.49 741.95,-111.88"/>
</a>
</g>
</g>
<!-- Node7&#45;&gt;Node4 -->
<g id="edge16_Node000007_Node000004" class="edge">
<title>Node7&#45;&gt;Node4</title>
<g id="a_edge16_Node000007_Node000004"><a xlink:title=" ">
<path fill="none" stroke="#63b8ff" d="M672.08,-126.98C625.85,-122.32 556.74,-111.37 502,-85.75 482.39,-76.57 482.97,-65.7 464,-55.25 434.53,-39.02 398.09,-27.13 371.29,-19.72"/>
<polygon fill="#63b8ff" stroke="#63b8ff" points="671.53,-130.44 681.81,-127.89 672.18,-123.47 671.53,-130.44"/>
</a>
</g>
</g>
<!-- Node7&#45;&gt;Node8 -->
<g id="edge10_Node000007_Node000008" class="edge">
<title>Node7&#45;&gt;Node8</title>
<g id="a_edge10_Node000007_Node000008"><a xlink:title=" ">
<path fill="none" stroke="#63b8ff" d="M757.95,-117.86C792.57,-106.68 845.04,-90.57 879.5,-80.58"/>
<polygon fill="#63b8ff" stroke="#63b8ff" points="757.25,-114.41 748.83,-120.84 759.42,-121.07 757.25,-114.41"/>
</a>
</g>
</g>
<!-- Node9 -->
<g id="Node000009" class="node">
<title>Node9</title>
<g id="a_Node000009"><a xlink:href="_levenberg_marquardt_optimizer_8h.html" target="_top" xlink:title="opt::LevenbergMarquardtOptimizer source file">
<polygon fill="white" stroke="#666666" points="655.12,-85.75 510.88,-85.75 510.88,-55.25 655.12,-55.25 655.12,-85.75"/>
<text text-anchor="start" x="518.88" y="-72.25" font-family="Helvetica,sans-Serif" font-size="10.00">optimize/LevenbergMarquardt</text>
<text text-anchor="middle" x="583" y="-61" font-family="Helvetica,sans-Serif" font-size="10.00">Optimizer.h</text>
</a>
</g>
</g>
<!-- Node7&#45;&gt;Node9 -->
<g id="edge12_Node000007_Node000009" class="edge">
<title>Node7&#45;&gt;Node9</title>
<g id="a_edge12_Node000007_Node000009"><a xlink:title=" ">
<path fill="none" stroke="#63b8ff" d="M691.05,-116.94C669.24,-107.77 640.36,-95.62 617.94,-86.19"/>
<polygon fill="#63b8ff" stroke="#63b8ff" points="689.46,-120.07 700.04,-120.72 692.18,-113.62 689.46,-120.07"/>
</a>
</g>
</g>
<!-- Node10 -->
<g id="Node000010" class="node">
<title>Node10</title>
<g id="a_Node000010"><a xlink:href="calibrate_8h.html" target="_top" xlink:title="opt::calibrate source file">
<polygon fill="white" stroke="#666666" points="772.62,-80.12 673.38,-80.12 673.38,-60.88 772.62,-60.88 772.62,-80.12"/>
<text text-anchor="middle" x="723" y="-66.62" font-family="Helvetica,sans-Serif" font-size="10.00">optimize/calibrate.h</text>
</a>
</g>
</g>
<!-- Node7&#45;&gt;Node10 -->
<g id="edge13_Node000007_Node000010" class="edge">
<title>Node7&#45;&gt;Node10</title>
<g id="a_edge13_Node000007_Node000010"><a xlink:title=" ">
<path fill="none" stroke="#63b8ff" d="M723,-109.95C723,-99.92 723,-88.33 723,-80.53"/>
<polygon fill="#63b8ff" stroke="#63b8ff" points="719.5,-109.92 723,-119.92 726.5,-109.92 719.5,-109.92"/>
</a>
</g>
</g>
<!-- Node7&#45;&gt;Node11 -->
<g id="edge14_Node000007_Node000011" class="edge">
<title>Node7&#45;&gt;Node11</title>
<g id="a_edge14_Node000007_Node000011"><a xlink:title=" ">
<path fill="none" stroke="#63b8ff" d="M671.93,-125.22C599.34,-117.69 462.23,-102.72 346,-85.75 335.56,-84.23 324.41,-82.41 313.8,-80.6"/>
<polygon fill="#63b8ff" stroke="#63b8ff" points="671.2,-128.66 681.5,-126.21 671.92,-121.7 671.2,-128.66"/>
</a>
</g>
</g>
<!-- Node7&#45;&gt;Node12 -->
<g id="edge17_Node000007_Node000012" class="edge">
<title>Node7&#45;&gt;Node12</title>
<g id="a_edge17_Node000007_Node000012"><a xlink:title=" ">
<path fill="none" stroke="#63b8ff" d="M774.13,-123.84C831.37,-116.19 926.76,-102.41 1008,-85.75 1015.27,-84.26 1023.02,-82.44 1030.36,-80.61"/>
<polygon fill="#63b8ff" stroke="#63b8ff" points="773.82,-120.35 764.36,-125.14 774.74,-127.29 773.82,-120.35"/>
</a>
</g>
</g>
<!-- Node8&#45;&gt;Node7 -->
<g id="edge11_Node000008_Node000007" class="edge">
<title>Node8&#45;&gt;Node7</title>
<g id="a_edge11_Node000008_Node000007"><a xlink:title=" ">
<path fill="none" stroke="#63b8ff" d="M879.01,-84.02C844.39,-95.21 791.91,-111.32 757.46,-121.3"/>
<polygon fill="#63b8ff" stroke="#63b8ff" points="879.72,-87.48 888.14,-81.05 877.55,-80.82 879.72,-87.48"/>
</a>
</g>
</g>
<!-- Node11&#45;&gt;Node4 -->
<g id="edge15_Node000011_Node000004" class="edge">
<title>Node11&#45;&gt;Node4</title>
<g id="a_edge15_Node000011_Node000004"><a xlink:title=" ">
<path fill="none" stroke="#63b8ff" d="M283.25,-53.31C296.14,-42.46 312.64,-28.59 323.27,-19.65"/>
<polygon fill="#63b8ff" stroke="#63b8ff" points="281.19,-50.47 275.79,-59.58 285.7,-55.83 281.19,-50.47"/>
</a>
</g>
</g>
<!-- Node12&#45;&gt;Node3 -->
<g id="edge18_Node000012_Node000003" class="edge">
<title>Node12&#45;&gt;Node3</title>
<g id="a_edge18_Node000012_Node000003"><a xlink:title=" ">
<path fill="none" stroke="#63b8ff" d="M1033.27,-55.79C1008.28,-44.65 973.74,-29.24 952.14,-19.61"/>
<polygon fill="#63b8ff" stroke="#63b8ff" points="1031.72,-58.94 1042.28,-59.81 1034.57,-52.54 1031.72,-58.94"/>
</a>
</g>
</g>
<!-- Node13&#45;&gt;Node7 -->
<g id="edge22_Node000013_Node000007" class="edge">
<title>Node13&#45;&gt;Node7</title>
<g id="a_edge22_Node000013_Node000007"><a xlink:title=" ">
<path fill="none" stroke="#63b8ff" d="M190.17,-287.54C187.44,-274.19 186.26,-256.69 194,-243.5 224.66,-191.24 255.28,-195.43 313,-177 443.79,-135.25 608.68,-131.01 683.2,-131.51"/>
<polygon fill="#63b8ff" stroke="#63b8ff" points="186.69,-288.08 192.53,-296.92 193.48,-286.36 186.69,-288.08"/>
</a>
</g>
</g>
<!-- Node13&#45;&gt;Node14 -->
<g id="edge20_Node000013_Node000014" class="edge">
<title>Node13&#45;&gt;Node14</title>
<g id="a_edge20_Node000013_Node000014"><a xlink:title=" ">
<path fill="none" stroke="#63b8ff" d="M218.76,-292.03C232.61,-282.7 249.82,-271.1 261.53,-263.2"/>
<polygon fill="#63b8ff" stroke="#63b8ff" points="216.99,-289 210.66,-297.5 220.9,-294.81 216.99,-289"/>
</a>
</g>
</g>
<!-- Node14&#45;&gt;Node7 -->
<g id="edge21_Node000014_Node000007" class="edge">
<title>Node14&#45;&gt;Node7</title>
<g id="a_edge21_Node000014_Node000007"><a xlink:title=" ">
<path fill="none" stroke="#63b8ff" d="M289.22,-234.69C304.82,-216.92 331.56,-190.16 361,-177 417.94,-151.55 601.62,-138.84 683.25,-134.34"/>
<polygon fill="#63b8ff" stroke="#63b8ff" points="286.92,-232 283.11,-241.89 292.25,-236.53 286.92,-232"/>
</a>
</g>
</g>
<!-- Node16 -->
<g id="Node000016" class="node">
<title>Node16</title>
<g id="a_Node000016"><a xlink:href="_closed_loop_coronary_left_b_c_8h.html" target="_top" xlink:title="Left side of ClosedLoopCoronaryBC.">
<polygon fill="white" stroke="#666666" points="1178.62,-207.5 1043.38,-207.5 1043.38,-177 1178.62,-177 1178.62,-207.5"/>
<text text-anchor="start" x="1051.38" y="-194" font-family="Helvetica,sans-Serif" font-size="10.00">model/ClosedLoopCoronary</text>
<text text-anchor="middle" x="1111" y="-182.75" font-family="Helvetica,sans-Serif" font-size="10.00">LeftBC.h</text>
</a>
</g>
</g>
<!-- Node15&#45;&gt;Node16 -->
<g id="edge26_Node000015_Node000016" class="edge">
<title>Node15&#45;&gt;Node16</title>
<g id="a_edge26_Node000015_Node000016"><a xlink:title=" ">
<path fill="none" stroke="#63b8ff" d="M1176.91,-236.85C1163.36,-227.89 1146.32,-216.62 1132.97,-207.78"/>
<polygon fill="#63b8ff" stroke="#63b8ff" points="1174.95,-239.75 1185.22,-242.35 1178.81,-233.91 1174.95,-239.75"/>
</a>
</g>
</g>
<!-- Node17 -->
<g id="Node000017" class="node">
<title>Node17</title>
<g id="a_Node000017"><a xlink:href="_closed_loop_coronary_right_b_c_8h.html" target="_top" xlink:title="Right side of ClosedLoopCoronaryBC.">
<polygon fill="white" stroke="#666666" points="1331.62,-207.5 1196.38,-207.5 1196.38,-177 1331.62,-177 1331.62,-207.5"/>
<text text-anchor="start" x="1204.38" y="-194" font-family="Helvetica,sans-Serif" font-size="10.00">model/ClosedLoopCoronary</text>
<text text-anchor="middle" x="1264" y="-182.75" font-family="Helvetica,sans-Serif" font-size="10.00">RightBC.h</text>
</a>
</g>
</g>
<!-- Node15&#45;&gt;Node17 -->
<g id="edge28_Node000015_Node000017" class="edge">
<title>Node15&#45;&gt;Node17</title>
<g id="a_edge28_Node000015_Node000017"><a xlink:title=" ">
<path fill="none" stroke="#63b8ff" d="M1218.05,-235.52C1227.54,-226.79 1239.07,-216.18 1248.2,-207.78"/>
<polygon fill="#63b8ff" stroke="#63b8ff" points="1215.82,-232.81 1210.83,-242.16 1220.56,-237.96 1215.82,-232.81"/>
</a>
</g>
</g>
<!-- Node16&#45;&gt;Node7 -->
<g id="edge27_Node000016_Node000007" class="edge">
<title>Node16&#45;&gt;Node7</title>
<g id="a_edge27_Node000016_Node000007"><a xlink:title=" ">
<path fill="none" stroke="#63b8ff" d="M1032.02,-177.48C1031,-177.32 1030,-177.16 1029,-177 933.57,-161.75 821.06,-145.89 762.66,-137.81"/>
<polygon fill="#63b8ff" stroke="#63b8ff" points="1031.08,-180.88 1041.52,-179.04 1032.22,-173.97 1031.08,-180.88"/>
</a>
</g>
</g>
<!-- Node17&#45;&gt;Node7 -->
<g id="edge29_Node000017_Node000007" class="edge">
<title>Node17&#45;&gt;Node7</title>
<g id="a_edge29_Node000017_Node000007"><a xlink:title=" ">
<path fill="none" stroke="#63b8ff" d="M1184.97,-176.65C1023.03,-154.21 841.77,-140.43 762.95,-135"/>
<polygon fill="#63b8ff" stroke="#63b8ff" points="1184.21,-180.07 1194.6,-178 1185.18,-173.14 1184.21,-180.07"/>
</a>
</g>
</g>
<!-- Node18&#45;&gt;Node7 -->
<g id="edge32_Node000018_Node000007" class="edge">
<title>Node18&#45;&gt;Node7</title>
<g id="a_edge32_Node000018_Node000007"><a xlink:title=" ">
<path fill="none" stroke="#63b8ff" d="M1234.37,-294.05C1288.55,-271.23 1383.49,-222.67 1341,-177 1301.66,-134.72 893.44,-131.97 762.9,-132.18"/>
<polygon fill="#63b8ff" stroke="#63b8ff" points="1233.13,-290.78 1225.21,-297.82 1235.79,-297.25 1233.13,-290.78"/>
</a>
</g>
</g>
<!-- Node18&#45;&gt;Node15 -->
<g id="edge31_Node000018_Node000015" class="edge">
<title>Node18&#45;&gt;Node15</title>
<g id="a_edge31_Node000018_Node000015"><a xlink:title=" ">
<path fill="none" stroke="#63b8ff" d="M1200,-287.13C1200,-278.84 1200,-269.67 1200,-263.11"/>
<polygon fill="#63b8ff" stroke="#63b8ff" points="1196.5,-287.07 1200,-297.07 1203.5,-287.07 1196.5,-287.07"/>
</a>
</g>
</g>
<!-- Node19&#45;&gt;Node7 -->
<g id="edge34_Node000019_Node000007" class="edge">
<title>Node19&#45;&gt;Node7</title>
<g id="a_edge34_Node000019_Node000007"><a xlink:title=" ">
<path fill="none" stroke="#63b8ff" d="M371.32,-287.54C367.24,-258.84 364.69,-206.02 394,-177 434.04,-137.36 604.8,-132.24 683.27,-132.03"/>
<polygon fill="#63b8ff" stroke="#63b8ff" points="367.8,-287.74 372.88,-297.04 374.71,-286.61 367.8,-287.74"/>
</a>
</g>
</g>
<!-- Node20&#45;&gt;Node7 -->
<g id="edge36_Node000020_Node000007" class="edge">
<title>Node20&#45;&gt;Node7</title>
<g id="a_edge36_Node000020_Node000007"><a xlink:title=" ">
<path fill="none" stroke="#63b8ff" d="M569.95,-287.44C576.46,-259.42 591.91,-208.32 623,-177 640.41,-159.46 665.92,-148.22 686.82,-141.42"/>
<polygon fill="#63b8ff" stroke="#63b8ff" points="566.57,-286.54 567.89,-297.05 573.41,-288.01 566.57,-286.54"/>
</a>
</g>
</g>
<!-- Node21&#45;&gt;Node7 -->
<g id="edge38_Node000021_Node000007" class="edge">
<title>Node21&#45;&gt;Node7</title>
<g id="a_edge38_Node000021_Node000007"><a xlink:title=" ">
<path fill="none" stroke="#63b8ff" d="M654.86,-293.87C640.62,-286.92 626.13,-276.86 618,-262.75 613.73,-255.34 616.2,-251.86 618,-243.5 624.82,-211.8 626.4,-201.18 648,-177 662.33,-160.95 683.84,-148.98 700.15,-141.49"/>
<polygon fill="#63b8ff" stroke="#63b8ff" points="653.14,-296.93 663.7,-297.78 655.97,-290.53 653.14,-296.93"/>
</a>
</g>
</g>
<!-- Node22&#45;&gt;Node7 -->
<g id="edge41_Node000022_Node000007" class="edge">
<title>Node22&#45;&gt;Node7</title>
<g id="a_edge41_Node000022_Node000007"><a xlink:title=" ">
<path fill="none" stroke="#63b8ff" d="M678.8,-236.1C669.91,-228.57 660.76,-218.76 656,-207.5 650.72,-195.02 649.6,-188.95 656,-177 665.04,-160.12 683.59,-148.53 698.89,-141.4"/>
<polygon fill="#63b8ff" stroke="#63b8ff" points="676.54,-238.78 686.58,-242.17 680.84,-233.26 676.54,-238.78"/>
</a>
</g>
</g>
<!-- Node23&#45;&gt;Node7 -->
<g id="edge43_Node000023_Node000007" class="edge">
<title>Node23&#45;&gt;Node7</title>
<g id="a_edge43_Node000023_Node000007"><a xlink:title=" ">
<path fill="none" stroke="#63b8ff" d="M840.03,-178C811.45,-166.86 771.35,-151.23 746.29,-141.46"/>
<polygon fill="#63b8ff" stroke="#63b8ff" points="838.74,-181.26 849.33,-181.63 841.28,-174.74 838.74,-181.26"/>
</a>
</g>
</g>
<!-- Node24&#45;&gt;Node7 -->
<g id="edge45_Node000024_Node000007" class="edge">
<title>Node24&#45;&gt;Node7</title>
<g id="a_edge45_Node000024_Node000007"><a xlink:title=" ">
<path fill="none" stroke="#63b8ff" d="M944.9,-234.74C957.89,-218.38 972.01,-193.92 958,-177 933.63,-147.57 822.89,-137.39 762.53,-134"/>
<polygon fill="#63b8ff" stroke="#63b8ff" points="942.39,-232.29 938.58,-242.17 947.73,-236.82 942.39,-232.29"/>
</a>
</g>
</g>
<!-- Node25&#45;&gt;Node7 -->
<g id="edge47_Node000025_Node000007" class="edge">
<title>Node25&#45;&gt;Node7</title>
<g id="a_edge47_Node000025_Node000007"><a xlink:title=" ">
<path fill="none" stroke="#63b8ff" d="M518.47,-179.6C566.98,-168.4 639.29,-151.7 683.67,-141.46"/>
<polygon fill="#63b8ff" stroke="#63b8ff" points="517.72,-176.18 508.76,-181.84 519.29,-183 517.72,-176.18"/>
</a>
</g>
</g>
<!-- Node26&#45;&gt;Node7 -->
<g id="edge49_Node000026_Node000007" class="edge">
<title>Node26&#45;&gt;Node7</title>
<g id="a_edge49_Node000026_Node000007"><a xlink:title=" ">
<path fill="none" stroke="#63b8ff" d="M1040.71,-234.49C1026.48,-216.96 1002.22,-190.75 975,-177 906,-142.14 814.38,-134.05 762.76,-132.45"/>
<polygon fill="#63b8ff" stroke="#63b8ff" points="1037.69,-236.31 1046.61,-242.02 1043.2,-231.99 1037.69,-236.31"/>
</a>
</g>
</g>
<!-- Node27&#45;&gt;Node7 -->
<g id="edge51_Node000027_Node000007" class="edge">
<title>Node27&#45;&gt;Node7</title>
<g id="a_edge51_Node000027_Node000007"><a xlink:title=" ">
<path fill="none" stroke="#63b8ff" d="M723,-170.82C723,-160.79 723,-149.21 723,-141.4"/>
<polygon fill="#63b8ff" stroke="#63b8ff" points="719.5,-170.79 723,-180.79 726.5,-170.79 719.5,-170.79"/>
</a>
</g>
</g>
</g>
</svg>
