<?xml version="1.0" encoding="UTF-8" standalone="no"?>
<!DOCTYPE svg PUBLIC "-//W3C//DTD SVG 1.1//EN"
 "http://www.w3.org/Graphics/SVG/1.1/DTD/svg11.dtd">
<!-- Generated by graphviz version 12.2.1 (20241206.2353)
 -->
<!-- Title: model/ValveTanh.h Pages: 1 -->
<svg width="833pt" height="248pt"
 viewBox="0.00 0.00 833.25 248.25" xmlns="http://www.w3.org/2000/svg" xmlns:xlink="http://www.w3.org/1999/xlink">
<g id="graph0" class="graph" transform="scale(1 1) rotate(0) translate(4 244.25)">
<title>model/ValveTanh.h</title>
<!-- Node1 -->
<g id="Node000001" class="node">
<title>Node1</title>
<g id="a_Node000001"><a xlink:title="model::ValveTanh source file">
<polygon fill="#999999" stroke="#666666" points="447,-240.25 347.75,-240.25 347.75,-221 447,-221 447,-240.25"/>
<text text-anchor="middle" x="397.38" y="-226.75" font-family="Helvetica,sans-Serif" font-size="10.00">model/ValveTanh.h</text>
</a>
</g>
</g>
<!-- Node2 -->
<g id="Node000002" class="node">
<title>Node2</title>
<g id="a_Node000002"><a xlink:title=" ">
<polygon fill="#e0e0e0" stroke="#999999" points="279,-185 233.75,-185 233.75,-165.75 279,-165.75 279,-185"/>
<text text-anchor="middle" x="256.38" y="-171.5" font-family="Helvetica,sans-Serif" font-size="10.00">math.h</text>
</a>
</g>
</g>
<!-- Node1&#45;&gt;Node2 -->
<g id="edge1_Node000001_Node000002" class="edge">
<title>Node1&#45;&gt;Node2</title>
<g id="a_edge1_Node000001_Node000002"><a xlink:title=" ">
<path fill="none" stroke="#63b8ff" d="M373.46,-220.59C350.6,-211.96 315.91,-198.86 290.22,-189.16"/>
<polygon fill="#63b8ff" stroke="#63b8ff" points="291.48,-185.89 280.89,-185.63 289.01,-192.44 291.48,-185.89"/>
</a>
</g>
</g>
<!-- Node3 -->
<g id="Node000003" class="node">
<title>Node3</title>
<g id="a_Node000003"><a xlink:href="_block_8h.html" target="_top" xlink:title="model::Block source file">
<polygon fill="white" stroke="#666666" points="345.5,-185 297.25,-185 297.25,-165.75 345.5,-165.75 345.5,-185"/>
<text text-anchor="middle" x="321.38" y="-171.5" font-family="Helvetica,sans-Serif" font-size="10.00">Block.h</text>
</a>
</g>
</g>
<!-- Node1&#45;&gt;Node3 -->
<g id="edge2_Node000001_Node000003" class="edge">
<title>Node1&#45;&gt;Node3</title>
<g id="a_edge2_Node000001_Node000003"><a xlink:title=" ">
<path fill="none" stroke="#63b8ff" d="M384.48,-220.59C373.35,-212.79 357,-201.34 343.74,-192.04"/>
<polygon fill="#63b8ff" stroke="#63b8ff" points="345.77,-189.19 335.57,-186.32 341.75,-194.93 345.77,-189.19"/>
</a>
</g>
</g>
<!-- Node16 -->
<g id="Node000016" class="node">
<title>Node16</title>
<g id="a_Node000016"><a xlink:href="_sparse_system_8h.html" target="_top" xlink:title="SparseSystem source file.">
<polygon fill="white" stroke="#666666" points="661,-129.75 573.75,-129.75 573.75,-110.5 661,-110.5 661,-129.75"/>
<text text-anchor="middle" x="617.38" y="-116.25" font-family="Helvetica,sans-Serif" font-size="10.00">SparseSystem.h</text>
</a>
</g>
</g>
<!-- Node1&#45;&gt;Node16 -->
<g id="edge27_Node000001_Node000016" class="edge">
<title>Node1&#45;&gt;Node16</title>
<g id="a_edge27_Node000001_Node000016"><a xlink:title=" ">
<path fill="none" stroke="#63b8ff" d="M422.97,-220.56C445.77,-212.2 479.85,-199 508.38,-185 538.83,-170.05 572.28,-149.85 593.98,-136.2"/>
<polygon fill="#63b8ff" stroke="#63b8ff" points="595.79,-139.2 602.35,-130.88 592.03,-133.29 595.79,-139.2"/>
</a>
</g>
</g>
<!-- Node21 -->
<g id="Node000021" class="node">
<title>Node21</title>
<g id="a_Node000021"><a xlink:href="debug_8h.html" target="_top" xlink:title="DEBUG_MSG source file.">
<polygon fill="white" stroke="#666666" points="499.25,-185 449.5,-185 449.5,-165.75 499.25,-165.75 499.25,-185"/>
<text text-anchor="middle" x="474.38" y="-171.5" font-family="Helvetica,sans-Serif" font-size="10.00">debug.h</text>
</a>
</g>
</g>
<!-- Node1&#45;&gt;Node21 -->
<g id="edge28_Node000001_Node000021" class="edge">
<title>Node1&#45;&gt;Node21</title>
<g id="a_edge28_Node000001_Node000021"><a xlink:title=" ">
<path fill="none" stroke="#63b8ff" d="M410.44,-220.59C421.83,-212.71 438.6,-201.11 452.11,-191.77"/>
<polygon fill="#63b8ff" stroke="#63b8ff" points="453.77,-194.88 460,-186.31 449.79,-189.12 453.77,-194.88"/>
</a>
</g>
</g>
<!-- Node4 -->
<g id="Node000004" class="node">
<title>Node4</title>
<g id="a_Node000004"><a xlink:title=" ">
<polygon fill="#e0e0e0" stroke="#999999" points="114,-74.5 50.75,-74.5 50.75,-55.25 114,-55.25 114,-74.5"/>
<text text-anchor="middle" x="82.38" y="-61" font-family="Helvetica,sans-Serif" font-size="10.00">Eigen/Core</text>
</a>
</g>
</g>
<!-- Node3&#45;&gt;Node4 -->
<g id="edge3_Node000003_Node000004" class="edge">
<title>Node3&#45;&gt;Node4</title>
<g id="a_edge3_Node000003_Node000004"><a xlink:title=" ">
<path fill="none" stroke="#63b8ff" d="M296.93,-168.02C260.88,-158.48 195.34,-140.43 173.38,-129.75 146.72,-116.79 119.3,-96.4 101.62,-82.15"/>
<polygon fill="#63b8ff" stroke="#63b8ff" points="103.99,-79.56 94.04,-75.91 99.54,-84.97 103.99,-79.56"/>
</a>
</g>
</g>
<!-- Node5 -->
<g id="Node000005" class="node">
<title>Node5</title>
<g id="a_Node000005"><a xlink:title=" ">
<polygon fill="#e0e0e0" stroke="#999999" points="509.77,-129.75 480.98,-129.75 480.98,-110.5 509.77,-110.5 509.77,-129.75"/>
<text text-anchor="middle" x="495.38" y="-116.25" font-family="Helvetica,sans-Serif" font-size="10.00">list</text>
</a>
</g>
</g>
<!-- Node3&#45;&gt;Node5 -->
<g id="edge4_Node000003_Node000005" class="edge">
<title>Node3&#45;&gt;Node5</title>
<g id="a_edge4_Node000003_Node000005"><a xlink:title=" ">
<path fill="none" stroke="#63b8ff" d="M345.92,-166.89C374.94,-158.04 424.68,-142.85 467.38,-129.75 468.18,-129.5 468.99,-129.25 469.82,-129"/>
<polygon fill="#63b8ff" stroke="#63b8ff" points="470.58,-132.43 479.11,-126.14 468.52,-125.74 470.58,-132.43"/>
</a>
</g>
</g>
<!-- Node6 -->
<g id="Node000006" class="node">
<title>Node6</title>
<g id="a_Node000006"><a xlink:title=" ">
<polygon fill="#e0e0e0" stroke="#999999" points="34.75,-19.25 0,-19.25 0,0 34.75,0 34.75,-19.25"/>
<text text-anchor="middle" x="17.38" y="-5.75" font-family="Helvetica,sans-Serif" font-size="10.00">map</text>
</a>
</g>
</g>
<!-- Node3&#45;&gt;Node6 -->
<g id="edge5_Node000003_Node000006" class="edge">
<title>Node3&#45;&gt;Node6</title>
<g id="a_edge5_Node000003_Node000006"><a xlink:title=" ">
<path fill="none" stroke="#63b8ff" d="M296.94,-167.65C294.06,-166.96 291.16,-166.31 288.38,-165.75 232.26,-154.5 73.71,-170.35 33.38,-129.75 7.59,-103.8 9.62,-57.52 13.46,-30.93"/>
<polygon fill="#63b8ff" stroke="#63b8ff" points="16.9,-31.57 15.12,-21.13 10,-30.4 16.9,-31.57"/>
</a>
</g>
</g>
<!-- Node7 -->
<g id="Node000007" class="node">
<title>Node7</title>
<g id="a_Node000007"><a xlink:title=" ">
<polygon fill="#e0e0e0" stroke="#999999" points="258.88,-19.25 215.88,-19.25 215.88,0 258.88,0 258.88,-19.25"/>
<text text-anchor="middle" x="237.38" y="-5.75" font-family="Helvetica,sans-Serif" font-size="10.00">vector</text>
</a>
</g>
</g>
<!-- Node3&#45;&gt;Node7 -->
<g id="edge6_Node000003_Node000007" class="edge">
<title>Node3&#45;&gt;Node7</title>
<g id="a_edge6_Node000003_Node000007"><a xlink:title=" ">
<path fill="none" stroke="#63b8ff" d="M345.9,-166.13C395.34,-148.25 498.98,-103.61 459.38,-55.25 435.88,-26.56 326.45,-15.92 270.5,-12.31"/>
<polygon fill="#63b8ff" stroke="#63b8ff" points="270.81,-8.82 260.62,-11.71 270.39,-15.81 270.81,-8.82"/>
</a>
</g>
</g>
<!-- Node8 -->
<g id="Node000008" class="node">
<title>Node8</title>
<g id="a_Node000008"><a xlink:href="_block_type_8h.html" target="_top" xlink:title="Specifies the types of blocks and their parameters.">
<polygon fill="white" stroke="#666666" points="112,-129.75 42.75,-129.75 42.75,-110.5 112,-110.5 112,-129.75"/>
<text text-anchor="middle" x="77.38" y="-116.25" font-family="Helvetica,sans-Serif" font-size="10.00">BlockType.h</text>
</a>
</g>
</g>
<!-- Node3&#45;&gt;Node8 -->
<g id="edge7_Node000003_Node000008" class="edge">
<title>Node3&#45;&gt;Node8</title>
<g id="a_edge7_Node000003_Node000008"><a xlink:title=" ">
<path fill="none" stroke="#63b8ff" d="M296.9,-167.84C294.03,-167.12 291.14,-166.4 288.38,-165.75 231.8,-152.38 166.23,-138.81 123.4,-130.21"/>
<polygon fill="#63b8ff" stroke="#63b8ff" points="124.19,-126.8 113.69,-128.26 122.81,-133.66 124.19,-126.8"/>
</a>
</g>
</g>
<!-- Node10 -->
<g id="Node000010" class="node">
<title>Node10</title>
<g id="a_Node000010"><a xlink:href="_d_o_f_handler_8h.html" target="_top" xlink:title="model::DOFHandler source file">
<polygon fill="white" stroke="#666666" points="209.12,-74.5 131.62,-74.5 131.62,-55.25 209.12,-55.25 209.12,-74.5"/>
<text text-anchor="middle" x="170.38" y="-61" font-family="Helvetica,sans-Serif" font-size="10.00">DOFHandler.h</text>
</a>
</g>
</g>
<!-- Node3&#45;&gt;Node10 -->
<g id="edge9_Node000003_Node000010" class="edge">
<title>Node3&#45;&gt;Node10</title>
<g id="a_edge9_Node000003_Node000010"><a xlink:title=" ">
<path fill="none" stroke="#63b8ff" d="M309.86,-165.25C293.83,-152.65 263.79,-129.31 237.38,-110.5 223.18,-100.39 206.92,-89.55 193.98,-81.08"/>
<polygon fill="#63b8ff" stroke="#63b8ff" points="195.97,-78.2 185.67,-75.68 192.15,-84.07 195.97,-78.2"/>
</a>
</g>
</g>
<!-- Node11 -->
<g id="Node000011" class="node">
<title>Node11</title>
<g id="a_Node000011"><a xlink:href="_parameter_8h.html" target="_top" xlink:title="model::Parameter source file">
<polygon fill="white" stroke="#666666" points="355.62,-129.75 287.12,-129.75 287.12,-110.5 355.62,-110.5 355.62,-129.75"/>
<text text-anchor="middle" x="321.38" y="-116.25" font-family="Helvetica,sans-Serif" font-size="10.00">Parameter.h</text>
</a>
</g>
</g>
<!-- Node3&#45;&gt;Node11 -->
<g id="edge13_Node000003_Node000011" class="edge">
<title>Node3&#45;&gt;Node11</title>
<g id="a_edge13_Node000003_Node000011"><a xlink:title=" ">
<path fill="none" stroke="#63b8ff" d="M321.38,-165.58C321.38,-159.07 321.38,-149.92 321.38,-141.62"/>
<polygon fill="#63b8ff" stroke="#63b8ff" points="324.88,-141.62 321.38,-131.62 317.88,-141.62 324.88,-141.62"/>
</a>
</g>
</g>
<!-- Node3&#45;&gt;Node16 -->
<g id="edge20_Node000003_Node000016" class="edge">
<title>Node3&#45;&gt;Node16</title>
<g id="a_edge20_Node000003_Node000016"><a xlink:title=" ">
<path fill="none" stroke="#63b8ff" d="M345.85,-169.97C393.02,-161.49 497.57,-142.68 562.29,-131.03"/>
<polygon fill="#63b8ff" stroke="#63b8ff" points="562.79,-134.5 572.01,-129.29 561.55,-127.61 562.79,-134.5"/>
</a>
</g>
</g>
<!-- Node20 -->
<g id="Node000020" class="node">
<title>Node20</title>
<g id="a_Node000020"><a xlink:href="_state_8h.html" target="_top" xlink:title="State source file.">
<polygon fill="white" stroke="#666666" points="228.75,-129.75 182,-129.75 182,-110.5 228.75,-110.5 228.75,-129.75"/>
<text text-anchor="middle" x="205.38" y="-116.25" font-family="Helvetica,sans-Serif" font-size="10.00">State.h</text>
</a>
</g>
</g>
<!-- Node3&#45;&gt;Node20 -->
<g id="edge25_Node000003_Node000020" class="edge">
<title>Node3&#45;&gt;Node20</title>
<g id="a_edge25_Node000003_Node000020"><a xlink:title=" ">
<path fill="none" stroke="#63b8ff" d="M301.7,-165.34C283.53,-157 256.29,-144.5 235.41,-134.91"/>
<polygon fill="#63b8ff" stroke="#63b8ff" points="237.07,-131.83 226.52,-130.83 234.15,-138.19 237.07,-131.83"/>
</a>
</g>
</g>
<!-- Node9 -->
<g id="Node000009" class="node">
<title>Node9</title>
<g id="a_Node000009"><a xlink:title=" ">
<polygon fill="#e0e0e0" stroke="#999999" points="157.38,-19.25 117.38,-19.25 117.38,0 157.38,0 157.38,-19.25"/>
<text text-anchor="middle" x="137.38" y="-5.75" font-family="Helvetica,sans-Serif" font-size="10.00">string</text>
</a>
</g>
</g>
<!-- Node8&#45;&gt;Node9 -->
<g id="edge8_Node000008_Node000009" class="edge">
<title>Node8&#45;&gt;Node9</title>
<g id="a_edge8_Node000008_Node000009"><a xlink:title=" ">
<path fill="none" stroke="#63b8ff" d="M65.99,-110.27C51.35,-97.77 29.19,-74.35 41.38,-55.25 55.52,-33.08 83.83,-21.75 106.07,-16.07"/>
<polygon fill="#63b8ff" stroke="#63b8ff" points="106.57,-19.55 115.55,-13.93 105.03,-12.72 106.57,-19.55"/>
</a>
</g>
</g>
<!-- Node10&#45;&gt;Node6 -->
<g id="edge10_Node000010_Node000006" class="edge">
<title>Node10&#45;&gt;Node6</title>
<g id="a_edge10_Node000010_Node000006"><a xlink:title=" ">
<path fill="none" stroke="#63b8ff" d="M144.42,-54.84C117,-45.3 73.88,-30.29 45.62,-20.46"/>
<polygon fill="#63b8ff" stroke="#63b8ff" points="46.89,-17.19 36.29,-17.21 44.59,-23.8 46.89,-17.19"/>
</a>
</g>
</g>
<!-- Node10&#45;&gt;Node7 -->
<g id="edge12_Node000010_Node000007" class="edge">
<title>Node10&#45;&gt;Node7</title>
<g id="a_edge12_Node000010_Node000007"><a xlink:title=" ">
<path fill="none" stroke="#63b8ff" d="M181.74,-54.84C191.42,-47.15 205.57,-35.9 217.18,-26.68"/>
<polygon fill="#63b8ff" stroke="#63b8ff" points="219.34,-29.43 224.99,-20.47 214.99,-23.95 219.34,-29.43"/>
</a>
</g>
</g>
<!-- Node10&#45;&gt;Node9 -->
<g id="edge11_Node000010_Node000009" class="edge">
<title>Node10&#45;&gt;Node9</title>
<g id="a_edge11_Node000010_Node000009"><a xlink:title=" ">
<path fill="none" stroke="#63b8ff" d="M164.93,-55.08C160.6,-48.11 154.41,-38.12 148.99,-29.37"/>
<polygon fill="#63b8ff" stroke="#63b8ff" points="151.98,-27.55 143.74,-20.9 146.03,-31.24 151.98,-27.55"/>
</a>
</g>
</g>
<!-- Node11&#45;&gt;Node7 -->
<g id="edge18_Node000011_Node000007" class="edge">
<title>Node11&#45;&gt;Node7</title>
<g id="a_edge18_Node000011_Node000007"><a xlink:title=" ">
<path fill="none" stroke="#63b8ff" d="M301.6,-110.13C287.09,-102.56 267.97,-90.44 256.38,-74.5 247.09,-61.74 242.3,-44.44 239.86,-31.07"/>
<polygon fill="#63b8ff" stroke="#63b8ff" points="243.33,-30.59 238.39,-21.22 236.4,-31.62 243.33,-30.59"/>
</a>
</g>
</g>
<!-- Node11&#45;&gt;Node10 -->
<g id="edge19_Node000011_Node000010" class="edge">
<title>Node11&#45;&gt;Node10</title>
<g id="a_edge19_Node000011_Node000010"><a xlink:title=" ">
<path fill="none" stroke="#63b8ff" d="M295.76,-110.09C271.36,-101.49 234.36,-88.44 206.88,-78.75"/>
<polygon fill="#63b8ff" stroke="#63b8ff" points="208.14,-75.48 197.54,-75.46 205.81,-82.08 208.14,-75.48"/>
</a>
</g>
</g>
<!-- Node12 -->
<g id="Node000012" class="node">
<title>Node12</title>
<g id="a_Node000012"><a xlink:title=" ">
<polygon fill="#e0e0e0" stroke="#999999" points="321.25,-74.5 265.5,-74.5 265.5,-55.25 321.25,-55.25 321.25,-74.5"/>
<text text-anchor="middle" x="293.38" y="-61" font-family="Helvetica,sans-Serif" font-size="10.00">algorithm</text>
</a>
</g>
</g>
<!-- Node11&#45;&gt;Node12 -->
<g id="edge14_Node000011_Node000012" class="edge">
<title>Node11&#45;&gt;Node12</title>
<g id="a_edge14_Node000011_Node000012"><a xlink:title=" ">
<path fill="none" stroke="#63b8ff" d="M316.75,-110.33C313.13,-103.44 307.95,-93.59 303.38,-84.91"/>
<polygon fill="#63b8ff" stroke="#63b8ff" points="306.56,-83.42 298.8,-76.2 300.36,-86.68 306.56,-83.42"/>
</a>
</g>
</g>
<!-- Node13 -->
<g id="Node000013" class="node">
<title>Node13</title>
<g id="a_Node000013"><a xlink:title=" ">
<polygon fill="#e0e0e0" stroke="#999999" points="381.88,-74.5 338.88,-74.5 338.88,-55.25 381.88,-55.25 381.88,-74.5"/>
<text text-anchor="middle" x="360.38" y="-61" font-family="Helvetica,sans-Serif" font-size="10.00">cmath</text>
</a>
</g>
</g>
<!-- Node11&#45;&gt;Node13 -->
<g id="edge15_Node000011_Node000013" class="edge">
<title>Node11&#45;&gt;Node13</title>
<g id="a_edge15_Node000011_Node000013"><a xlink:title=" ">
<path fill="none" stroke="#63b8ff" d="M327.82,-110.33C333.03,-103.21 340.56,-92.93 347.07,-84.05"/>
<polygon fill="#63b8ff" stroke="#63b8ff" points="349.82,-86.22 352.9,-76.08 344.17,-82.08 349.82,-86.22"/>
</a>
</g>
</g>
<!-- Node14 -->
<g id="Node000014" class="node">
<title>Node14</title>
<g id="a_Node000014"><a xlink:title=" ">
<polygon fill="#e0e0e0" stroke="#999999" points="560.12,-74.5 506.62,-74.5 506.62,-55.25 560.12,-55.25 560.12,-74.5"/>
<text text-anchor="middle" x="533.38" y="-61" font-family="Helvetica,sans-Serif" font-size="10.00">iostream</text>
</a>
</g>
</g>
<!-- Node11&#45;&gt;Node14 -->
<g id="edge16_Node000011_Node000014" class="edge">
<title>Node11&#45;&gt;Node14</title>
<g id="a_edge16_Node000011_Node000014"><a xlink:title=" ">
<path fill="none" stroke="#63b8ff" d="M355.91,-110.45C394.14,-100.85 455.58,-85.41 495.21,-75.46"/>
<polygon fill="#63b8ff" stroke="#63b8ff" points="495.95,-78.88 504.8,-73.05 494.25,-72.09 495.95,-78.88"/>
</a>
</g>
</g>
<!-- Node15 -->
<g id="Node000015" class="node">
<title>Node15</title>
<g id="a_Node000015"><a xlink:title=" ">
<polygon fill="#e0e0e0" stroke="#999999" points="450.62,-74.5 400.12,-74.5 400.12,-55.25 450.62,-55.25 450.62,-74.5"/>
<text text-anchor="middle" x="425.38" y="-61" font-family="Helvetica,sans-Serif" font-size="10.00">numeric</text>
</a>
</g>
</g>
<!-- Node11&#45;&gt;Node15 -->
<g id="edge17_Node000011_Node000015" class="edge">
<title>Node11&#45;&gt;Node15</title>
<g id="a_edge17_Node000011_Node000015"><a xlink:title=" ">
<path fill="none" stroke="#63b8ff" d="M339.02,-110.09C355,-101.91 378.83,-89.71 397.41,-80.19"/>
<polygon fill="#63b8ff" stroke="#63b8ff" points="398.99,-83.32 406.3,-75.64 395.8,-77.08 398.99,-83.32"/>
</a>
</g>
</g>
<!-- Node16&#45;&gt;Node14 -->
<g id="edge23_Node000016_Node000014" class="edge">
<title>Node16&#45;&gt;Node14</title>
<g id="a_edge23_Node000016_Node000014"><a xlink:title=" ">
<path fill="none" stroke="#63b8ff" d="M603.13,-110.09C590.58,-102.14 572.04,-90.39 557.23,-81"/>
<polygon fill="#63b8ff" stroke="#63b8ff" points="559.29,-78.16 548.97,-75.76 555.54,-84.07 559.29,-78.16"/>
</a>
</g>
</g>
<!-- Node17 -->
<g id="Node000017" class="node">
<title>Node17</title>
<g id="a_Node000017"><a xlink:title=" ">
<polygon fill="#e0e0e0" stroke="#999999" points="825.25,-74.5 751.5,-74.5 751.5,-55.25 825.25,-55.25 825.25,-74.5"/>
<text text-anchor="middle" x="788.38" y="-61" font-family="Helvetica,sans-Serif" font-size="10.00">Eigen/Sparse</text>
</a>
</g>
</g>
<!-- Node16&#45;&gt;Node17 -->
<g id="edge21_Node000016_Node000017" class="edge">
<title>Node16&#45;&gt;Node17</title>
<g id="a_edge21_Node000016_Node000017"><a xlink:title=" ">
<path fill="none" stroke="#63b8ff" d="M646.38,-110.09C674.39,-101.37 717.03,-88.09 748.28,-78.36"/>
<polygon fill="#63b8ff" stroke="#63b8ff" points="749.27,-81.72 757.78,-75.4 747.19,-75.03 749.27,-81.72"/>
</a>
</g>
</g>
<!-- Node18 -->
<g id="Node000018" class="node">
<title>Node18</title>
<g id="a_Node000018"><a xlink:title=" ">
<polygon fill="#e0e0e0" stroke="#999999" points="665,-74.5 577.75,-74.5 577.75,-55.25 665,-55.25 665,-74.5"/>
<text text-anchor="middle" x="621.38" y="-61" font-family="Helvetica,sans-Serif" font-size="10.00">Eigen/SparseLU</text>
</a>
</g>
</g>
<!-- Node16&#45;&gt;Node18 -->
<g id="edge22_Node000016_Node000018" class="edge">
<title>Node16&#45;&gt;Node18</title>
<g id="a_edge22_Node000016_Node000018"><a xlink:title=" ">
<path fill="none" stroke="#63b8ff" d="M618.04,-110.33C618.53,-103.74 619.23,-94.46 619.86,-86.07"/>
<polygon fill="#63b8ff" stroke="#63b8ff" points="623.33,-86.6 620.59,-76.37 616.35,-86.08 623.33,-86.6"/>
</a>
</g>
</g>
<!-- Node19 -->
<g id="Node000019" class="node">
<title>Node19</title>
<g id="a_Node000019"><a xlink:title=" ">
<polygon fill="#e0e0e0" stroke="#999999" points="733.62,-74.5 683.12,-74.5 683.12,-55.25 733.62,-55.25 733.62,-74.5"/>
<text text-anchor="middle" x="708.38" y="-61" font-family="Helvetica,sans-Serif" font-size="10.00">memory</text>
</a>
</g>
</g>
<!-- Node16&#45;&gt;Node19 -->
<g id="edge24_Node000016_Node000019" class="edge">
<title>Node16&#45;&gt;Node19</title>
<g id="a_edge24_Node000016_Node000019"><a xlink:title=" ">
<path fill="none" stroke="#63b8ff" d="M632.81,-110.09C646.54,-102.06 666.87,-90.16 682.99,-80.73"/>
<polygon fill="#63b8ff" stroke="#63b8ff" points="684.69,-83.79 691.56,-75.72 681.16,-77.75 684.69,-83.79"/>
</a>
</g>
</g>
<!-- Node20&#45;&gt;Node4 -->
<g id="edge26_Node000020_Node000004" class="edge">
<title>Node20&#45;&gt;Node4</title>
<g id="a_edge26_Node000020_Node000004"><a xlink:title=" ">
<path fill="none" stroke="#63b8ff" d="M184.51,-110.09C165.07,-101.68 135.83,-89.02 113.61,-79.4"/>
<polygon fill="#63b8ff" stroke="#63b8ff" points="115.3,-76.31 104.73,-75.55 112.52,-82.74 115.3,-76.31"/>
</a>
</g>
</g>
<!-- Node21&#45;&gt;Node14 -->
<g id="edge29_Node000021_Node000014" class="edge">
<title>Node21&#45;&gt;Node14</title>
<g id="a_edge29_Node000021_Node000014"><a xlink:title=" ">
<path fill="none" stroke="#63b8ff" d="M486.3,-165.43C496.37,-157.24 510.38,-144.23 518.38,-129.75 525.89,-116.15 529.65,-98.91 531.53,-85.77"/>
<polygon fill="#63b8ff" stroke="#63b8ff" points="534.97,-86.52 532.64,-76.18 528.01,-85.71 534.97,-86.52"/>
</a>
</g>
</g>
</g>
</svg>
