<?xml version="1.0" encoding="UTF-8" standalone="no"?>
<!DOCTYPE svg PUBLIC "-//W3C//DTD SVG 1.1//EN"
 "http://www.w3.org/Graphics/SVG/1.1/DTD/svg11.dtd">
<!-- Generated by graphviz version 7.0.5 (20221223.1930)
 -->
<!-- Title: model/blocktype.hpp Pages: 1 -->
<svg width="1870pt" height="357pt"
 viewBox="0.00 0.00 1869.57 357.00" xmlns="http://www.w3.org/2000/svg" xmlns:xlink="http://www.w3.org/1999/xlink">
<g id="graph0" class="graph" transform="scale(1 1) rotate(0) translate(4 353)">
<title>model/blocktype.hpp</title>
<!-- Node1 -->
<g id="node1" class="node">
<title>Node1</title>
<g id="a_node1"><a xlink:title="MODEL::BlockType source file.">
<polygon fill="#999999" stroke="#666666" points="1062.07,-349 957.07,-349 957.07,-330 1062.07,-330 1062.07,-349"/>
<text text-anchor="middle" x="1009.57" y="-337" font-family="Helvetica,sans-Serif" font-size="10.00">model/blocktype.hpp</text>
</a>
</g>
</g>
<!-- Node2 -->
<g id="node2" class="node">
<title>Node2</title>
<g id="a_node2"><a xlink:href="bloodvesseljunction_8hpp.html" target="_top" xlink:title="MODEL::BloodVesselJunction source file.">
<polygon fill="white" stroke="#666666" points="1150.07,-294 1001.07,-294 1001.07,-275 1150.07,-275 1150.07,-294"/>
<text text-anchor="middle" x="1075.57" y="-282" font-family="Helvetica,sans-Serif" font-size="10.00">model/bloodvesseljunction.hpp</text>
</a>
</g>
</g>
<!-- Node1&#45;&gt;Node2 -->
<g id="edge1" class="edge">
<title>Node1&#45;&gt;Node2</title>
<path fill="none" stroke="#63b8ff" d="M1029.66,-322.37C1041.12,-313.16 1055.05,-301.98 1064.54,-294.36"/>
<polygon fill="#63b8ff" stroke="#63b8ff" points="1027.55,-319.57 1021.94,-328.56 1031.93,-325.03 1027.55,-319.57"/>
</g>
<!-- Node3 -->
<g id="node3" class="node">
<title>Node3</title>
<g id="a_node3"><a xlink:href="model_8hpp.html" target="_top" xlink:title="MODEL::Model source file.">
<polygon fill="white" stroke="#666666" points="932.57,-239 842.57,-239 842.57,-220 932.57,-220 932.57,-239"/>
<text text-anchor="middle" x="887.57" y="-227" font-family="Helvetica,sans-Serif" font-size="10.00">model/model.hpp</text>
</a>
</g>
</g>
<!-- Node1&#45;&gt;Node3 -->
<g id="edge54" class="edge">
<title>Node1&#45;&gt;Node3</title>
<path fill="none" stroke="#63b8ff" d="M990.97,-322.04C964.85,-298.91 918.18,-257.6 897.69,-239.46"/>
<polygon fill="#63b8ff" stroke="#63b8ff" points="988.64,-324.65 998.45,-328.66 993.28,-319.41 988.64,-324.65"/>
</g>
<!-- Node2&#45;&gt;Node3 -->
<g id="edge2" class="edge">
<title>Node2&#45;&gt;Node3</title>
<path fill="none" stroke="#63b8ff" d="M1032.97,-271.49C998.44,-261.76 950.53,-248.25 919.3,-239.45"/>
<polygon fill="#63b8ff" stroke="#63b8ff" points="1031.64,-274.75 1042.22,-274.1 1033.54,-268.02 1031.64,-274.75"/>
</g>
<!-- Node4 -->
<g id="node4" class="node">
<title>Node4</title>
<g id="a_node4"><a xlink:href="integrator_8hpp.html" target="_top" xlink:title="ALGEBRA::Integrator source file.">
<polygon fill="white" stroke="#666666" points="612.57,-184 502.57,-184 502.57,-165 612.57,-165 612.57,-184"/>
<text text-anchor="middle" x="557.57" y="-172" font-family="Helvetica,sans-Serif" font-size="10.00">algebra/integrator.hpp</text>
</a>
</g>
</g>
<!-- Node3&#45;&gt;Node4 -->
<g id="edge3" class="edge">
<title>Node3&#45;&gt;Node4</title>
<path fill="none" stroke="#63b8ff" d="M831.04,-219.42C770.03,-209.62 673.49,-194.12 612.93,-184.39"/>
<polygon fill="#63b8ff" stroke="#63b8ff" points="830.45,-222.87 840.88,-221 831.56,-215.96 830.45,-222.87"/>
</g>
<!-- Node5 -->
<g id="node5" class="node">
<title>Node5</title>
<g id="a_node5"><a xlink:href="solver_8hpp.html" target="_top" xlink:title="SOLVE::Solver source file.">
<polygon fill="white" stroke="#666666" points="543.07,-129 456.07,-129 456.07,-110 543.07,-110 543.07,-129"/>
<text text-anchor="middle" x="499.57" y="-117" font-family="Helvetica,sans-Serif" font-size="10.00">solve/solver.hpp</text>
</a>
</g>
</g>
<!-- Node3&#45;&gt;Node5 -->
<g id="edge53" class="edge">
<title>Node3&#45;&gt;Node5</title>
<path fill="none" stroke="#63b8ff" d="M831.27,-220.76C785.66,-213.67 720.08,-201.57 664.57,-184 644.65,-177.7 640.95,-172.81 621.57,-165 588.73,-151.78 550.29,-138.03 525.46,-129.38"/>
<polygon fill="#63b8ff" stroke="#63b8ff" points="830.5,-224.19 840.92,-222.23 831.56,-217.27 830.5,-224.19"/>
</g>
<!-- Node6 -->
<g id="node6" class="node">
<title>Node6</title>
<g id="a_node6"><a xlink:href="sparsesystem_8hpp.html" target="_top" xlink:title="ALGEBRA::SparseSystem source file.">
<polygon fill="white" stroke="#666666" points="1140.57,-184 1010.57,-184 1010.57,-165 1140.57,-165 1140.57,-184"/>
<text text-anchor="middle" x="1075.57" y="-172" font-family="Helvetica,sans-Serif" font-size="10.00">algebra/sparsesystem.hpp</text>
</a>
</g>
</g>
<!-- Node3&#45;&gt;Node6 -->
<g id="edge5" class="edge">
<title>Node3&#45;&gt;Node6</title>
<path fill="none" stroke="#63b8ff" d="M925.27,-216.24C958.28,-206.52 1005.82,-193.18 1038.62,-184.45"/>
<polygon fill="#63b8ff" stroke="#63b8ff" points="924.28,-212.88 915.69,-219.08 926.27,-219.59 924.28,-212.88"/>
</g>
<!-- Node19 -->
<g id="node19" class="node">
<title>Node19</title>
<g id="a_node19"><a xlink:href="configreader_8hpp.html" target="_top" xlink:title="Helper functions for reading configurations.">
<polygon fill="white" stroke="#666666" points="380.57,-184 282.57,-184 282.57,-165 380.57,-165 380.57,-184"/>
<text text-anchor="middle" x="331.57" y="-172" font-family="Helvetica,sans-Serif" font-size="10.00">io/configreader.hpp</text>
</a>
</g>
</g>
<!-- Node3&#45;&gt;Node19 -->
<g id="edge46" class="edge">
<title>Node3&#45;&gt;Node19</title>
<path fill="none" stroke="#63b8ff" d="M830.82,-224.48C738.27,-217.68 549.12,-202.8 389.57,-184 386.74,-183.67 383.83,-183.3 380.9,-182.92"/>
<polygon fill="#63b8ff" stroke="#63b8ff" points="830.42,-227.96 840.65,-225.19 830.93,-220.97 830.42,-227.96"/>
</g>
<!-- Node20 -->
<g id="node20" class="node">
<title>Node20</title>
<g id="a_node20"><a xlink:href="csvwriter_8hpp.html" target="_top" xlink:title="IO::write_csv source file.">
<polygon fill="white" stroke="#666666" points="484.07,-184 399.07,-184 399.07,-165 484.07,-165 484.07,-184"/>
<text text-anchor="middle" x="441.57" y="-172" font-family="Helvetica,sans-Serif" font-size="10.00">io/csvwriter.hpp</text>
</a>
</g>
</g>
<!-- Node3&#45;&gt;Node20 -->
<g id="edge48" class="edge">
<title>Node3&#45;&gt;Node20</title>
<path fill="none" stroke="#63b8ff" d="M830.99,-223C754.37,-215.35 613.4,-200.55 493.57,-184 490.58,-183.59 487.49,-183.14 484.39,-182.67"/>
<polygon fill="#63b8ff" stroke="#63b8ff" points="830.47,-226.47 840.76,-223.97 831.16,-219.5 830.47,-226.47"/>
</g>
<!-- Node21 -->
<g id="node21" class="node">
<title>Node21</title>
<g id="a_node21"><a xlink:href="calibrate_8hpp.html" target="_top" xlink:title="OPT::calibrate source file.">
<polygon fill="white" stroke="#666666" points="179.57,-129 69.57,-129 69.57,-110 179.57,-110 179.57,-129"/>
<text text-anchor="middle" x="124.57" y="-117" font-family="Helvetica,sans-Serif" font-size="10.00">optimize/calibrate.hpp</text>
</a>
</g>
</g>
<!-- Node3&#45;&gt;Node21 -->
<g id="edge50" class="edge">
<title>Node3&#45;&gt;Node21</title>
<path fill="none" stroke="#63b8ff" d="M830.78,-227.58C647.83,-224.32 84.16,-212.06 57.57,-184 38.27,-163.64 76.67,-141.45 102.89,-129.44"/>
<polygon fill="#63b8ff" stroke="#63b8ff" points="830.69,-231.07 840.75,-227.75 830.82,-224.08 830.69,-231.07"/>
</g>
<!-- Node22 -->
<g id="node22" class="node">
<title>Node22</title>
<g id="a_node22"><a xlink:href="levenbergmarquardtoptimizer_8hpp.html" target="_top" xlink:title="OPT::LevenbergMarquardtOptimizer source file.">
<polygon fill="white" stroke="#666666" points="264.57,-184 66.57,-184 66.57,-165 264.57,-165 264.57,-184"/>
<text text-anchor="middle" x="165.57" y="-172" font-family="Helvetica,sans-Serif" font-size="10.00">optimize/levenbergmarquardtoptimizer.hpp</text>
</a>
</g>
</g>
<!-- Node3&#45;&gt;Node22 -->
<g id="edge51" class="edge">
<title>Node3&#45;&gt;Node22</title>
<path fill="none" stroke="#63b8ff" d="M830.82,-224.51C722.48,-216.85 478.7,-199.51 273.57,-184 270.75,-183.79 267.9,-183.57 265.02,-183.35"/>
<polygon fill="#63b8ff" stroke="#63b8ff" points="830.38,-227.98 840.6,-225.2 830.87,-221 830.38,-227.98"/>
</g>
<!-- Node4&#45;&gt;Node5 -->
<g id="edge4" class="edge">
<title>Node4&#45;&gt;Node5</title>
<path fill="none" stroke="#63b8ff" d="M539.3,-156.81C529.35,-147.72 517.43,-136.82 509.26,-129.36"/>
<polygon fill="#63b8ff" stroke="#63b8ff" points="536.87,-159.33 546.61,-163.49 541.59,-154.16 536.87,-159.33"/>
</g>
<!-- Node6&#45;&gt;Node2 -->
<g id="edge34" class="edge">
<title>Node6&#45;&gt;Node2</title>
<path fill="none" stroke="#63b8ff" d="M1075.57,-195.92C1075.57,-219.61 1075.57,-257.57 1075.57,-274.66"/>
<polygon fill="#63b8ff" stroke="#63b8ff" points="1079.07,-195.97 1075.57,-185.97 1072.07,-195.97 1079.07,-195.97"/>
</g>
<!-- Node6&#45;&gt;Node3 -->
<g id="edge40" class="edge">
<title>Node6&#45;&gt;Node3</title>
<path fill="none" stroke="#63b8ff" d="M1038.03,-187.71C1005.07,-197.42 957.52,-210.76 924.67,-219.51"/>
<polygon fill="#63b8ff" stroke="#63b8ff" points="1039,-191.08 1047.59,-184.88 1037.01,-184.37 1039,-191.08"/>
</g>
<!-- Node7 -->
<g id="node7" class="node">
<title>Node7</title>
<g id="a_node7"><a xlink:href="block_8hpp.html" target="_top" xlink:title="MODEL::Block source file.">
<polygon fill="white" stroke="#666666" points="1212.07,-129 1125.07,-129 1125.07,-110 1212.07,-110 1212.07,-129"/>
<text text-anchor="middle" x="1168.57" y="-117" font-family="Helvetica,sans-Serif" font-size="10.00">model/block.hpp</text>
</a>
</g>
</g>
<!-- Node6&#45;&gt;Node7 -->
<g id="edge6" class="edge">
<title>Node6&#45;&gt;Node7</title>
<path fill="none" stroke="#63b8ff" d="M1101.01,-159C1117.65,-149.52 1138.85,-137.43 1153.02,-129.36"/>
<polygon fill="#63b8ff" stroke="#63b8ff" points="1099.61,-155.77 1092.66,-163.76 1103.08,-161.85 1099.61,-155.77"/>
</g>
<!-- Node8 -->
<g id="node8" class="node">
<title>Node8</title>
<g id="a_node8"><a xlink:href="bloodvessel_8hpp.html" target="_top" xlink:title="MODEL::BloodVessel source file.">
<polygon fill="white" stroke="#666666" points="1861.57,-74 1745.57,-74 1745.57,-55 1861.57,-55 1861.57,-74"/>
<text text-anchor="middle" x="1803.57" y="-62" font-family="Helvetica,sans-Serif" font-size="10.00">model/bloodvessel.hpp</text>
</a>
</g>
</g>
<!-- Node6&#45;&gt;Node8 -->
<g id="edge33" class="edge">
<title>Node6&#45;&gt;Node8</title>
<path fill="none" stroke="#63b8ff" d="M1149.75,-162.94C1210.92,-154.14 1299.93,-141.13 1377.57,-129 1428.75,-121 1441.37,-117.89 1492.57,-110 1580.57,-96.44 1682.8,-82.08 1745.33,-73.45"/>
<polygon fill="#63b8ff" stroke="#63b8ff" points="1149.56,-159.43 1140.16,-164.31 1150.56,-166.36 1149.56,-159.43"/>
</g>
<!-- Node9 -->
<g id="node9" class="node">
<title>Node9</title>
<g id="a_node9"><a xlink:href="closedloop_r_c_rbc_8hpp.html" target="_top" xlink:title="MODEL::ClosedLoopRCRBC source file.">
<polygon fill="white" stroke="#666666" points="563.07,-74 422.07,-74 422.07,-55 563.07,-55 563.07,-74"/>
<text text-anchor="middle" x="492.57" y="-62" font-family="Helvetica,sans-Serif" font-size="10.00">model/closedloopRCRbc.hpp</text>
</a>
</g>
</g>
<!-- Node6&#45;&gt;Node9 -->
<g id="edge35" class="edge">
<title>Node6&#45;&gt;Node9</title>
<path fill="none" stroke="#63b8ff" d="M1015.15,-162.5C965.97,-153.53 894.78,-140.51 832.57,-129 804.22,-123.76 627.14,-90.66 540.38,-74.44"/>
<polygon fill="#63b8ff" stroke="#63b8ff" points="1014.27,-165.89 1024.73,-164.24 1015.52,-159.01 1014.27,-165.89"/>
</g>
<!-- Node10 -->
<g id="node10" class="node">
<title>Node10</title>
<g id="a_node10"><a xlink:href="closedloopcoronarybc_8hpp.html" target="_top" xlink:title="MODEL::ClosedLoopCoronaryBC source file.">
<polygon fill="white" stroke="#666666" points="956.57,-19 798.57,-19 798.57,0 956.57,0 956.57,-19"/>
<text text-anchor="middle" x="877.57" y="-7" font-family="Helvetica,sans-Serif" font-size="10.00">model/closedloopcoronarybc.hpp</text>
</a>
</g>
</g>
<!-- Node6&#45;&gt;Node10 -->
<g id="edge36" class="edge">
<title>Node6&#45;&gt;Node10</title>
<path fill="none" stroke="#63b8ff" d="M1056.07,-157.48C1032.15,-137.83 990.36,-103.48 954.57,-74 930.76,-54.39 902.83,-31.35 888.02,-19.13"/>
<polygon fill="#63b8ff" stroke="#63b8ff" points="1053.76,-160.12 1063.71,-163.76 1058.21,-154.71 1053.76,-160.12"/>
</g>
<!-- Node11 -->
<g id="node11" class="node">
<title>Node11</title>
<g id="a_node11"><a xlink:href="closedloopheartpulmonary_8hpp.html" target="_top" xlink:title="MODEL::ClosedLoopHeartPulmonary source file.">
<polygon fill="white" stroke="#666666" points="907.57,-74 731.57,-74 731.57,-55 907.57,-55 907.57,-74"/>
<text text-anchor="middle" x="819.57" y="-62" font-family="Helvetica,sans-Serif" font-size="10.00">model/closedloopheartpulmonary.hpp</text>
</a>
</g>
</g>
<!-- Node6&#45;&gt;Node11 -->
<g id="edge37" class="edge">
<title>Node6&#45;&gt;Node11</title>
<path fill="none" stroke="#63b8ff" d="M1043.42,-160.21C1022.15,-151.41 993.67,-139.57 968.57,-129 922.69,-109.69 869.03,-86.72 840.27,-74.39"/>
<polygon fill="#63b8ff" stroke="#63b8ff" points="1041.84,-163.35 1052.42,-163.94 1044.52,-156.88 1041.84,-163.35"/>
</g>
<!-- Node12 -->
<g id="node12" class="node">
<title>Node12</title>
<g id="a_node12"><a xlink:href="flowreferencebc_8hpp.html" target="_top" xlink:title="MODEL::FlowReferenceBC source file.">
<polygon fill="white" stroke="#666666" points="713.57,-74 581.57,-74 581.57,-55 713.57,-55 713.57,-74"/>
<text text-anchor="middle" x="647.57" y="-62" font-family="Helvetica,sans-Serif" font-size="10.00">model/flowreferencebc.hpp</text>
</a>
</g>
</g>
<!-- Node6&#45;&gt;Node12 -->
<g id="edge38" class="edge">
<title>Node6&#45;&gt;Node12</title>
<path fill="none" stroke="#63b8ff" d="M1029.18,-161.79C943.02,-140.05 760.09,-93.89 683,-74.44"/>
<polygon fill="#63b8ff" stroke="#63b8ff" points="1028.16,-165.15 1038.71,-164.2 1029.87,-158.36 1028.16,-165.15"/>
</g>
<!-- Node13 -->
<g id="node13" class="node">
<title>Node13</title>
<g id="a_node13"><a xlink:href="junction_8hpp.html" target="_top" xlink:title="MODEL::Junction source file.">
<polygon fill="white" stroke="#666666" points="1389.57,-74 1291.57,-74 1291.57,-55 1389.57,-55 1389.57,-74"/>
<text text-anchor="middle" x="1340.57" y="-62" font-family="Helvetica,sans-Serif" font-size="10.00">model/junction.hpp</text>
</a>
</g>
</g>
<!-- Node6&#45;&gt;Node13 -->
<g id="edge39" class="edge">
<title>Node6&#45;&gt;Node13</title>
<path fill="none" stroke="#63b8ff" d="M1123,-161.56C1151.96,-153.65 1189.48,-142.3 1221.57,-129 1260.72,-112.77 1303.99,-87.75 1325.99,-74.48"/>
<polygon fill="#63b8ff" stroke="#63b8ff" points="1122.16,-158.16 1113.41,-164.13 1123.98,-164.92 1122.16,-158.16"/>
</g>
<!-- Node14 -->
<g id="node14" class="node">
<title>Node14</title>
<g id="a_node14"><a xlink:href="openloopcoronarybc_8hpp.html" target="_top" xlink:title="MODEL::OpenLoopCoronaryBC source file.">
<polygon fill="white" stroke="#666666" points="1557.57,-74 1407.57,-74 1407.57,-55 1557.57,-55 1557.57,-74"/>
<text text-anchor="middle" x="1482.57" y="-62" font-family="Helvetica,sans-Serif" font-size="10.00">model/openloopcoronarybc.hpp</text>
</a>
</g>
</g>
<!-- Node6&#45;&gt;Node14 -->
<g id="edge41" class="edge">
<title>Node6&#45;&gt;Node14</title>
<path fill="none" stroke="#63b8ff" d="M1124,-161.95C1160.29,-153.19 1211.13,-140.7 1255.57,-129 1326.01,-110.45 1408.24,-86.99 1451.81,-74.43"/>
<polygon fill="#63b8ff" stroke="#63b8ff" points="1123.6,-158.44 1114.7,-164.19 1125.24,-165.25 1123.6,-158.44"/>
</g>
<!-- Node15 -->
<g id="node15" class="node">
<title>Node15</title>
<g id="a_node15"><a xlink:href="pressurereferencebc_8hpp.html" target="_top" xlink:title="MODEL::PressureReferenceBC source file.">
<polygon fill="white" stroke="#666666" points="1727.57,-74 1575.57,-74 1575.57,-55 1727.57,-55 1727.57,-74"/>
<text text-anchor="middle" x="1651.57" y="-62" font-family="Helvetica,sans-Serif" font-size="10.00">model/pressurereferencebc.hpp</text>
</a>
</g>
</g>
<!-- Node6&#45;&gt;Node15 -->
<g id="edge42" class="edge">
<title>Node6&#45;&gt;Node15</title>
<path fill="none" stroke="#63b8ff" d="M1134.49,-162.45C1248.9,-141 1499.08,-94.09 1603.88,-74.44"/>
<polygon fill="#63b8ff" stroke="#63b8ff" points="1133.86,-159.01 1124.68,-164.29 1135.15,-165.89 1133.86,-159.01"/>
</g>
<!-- Node16 -->
<g id="node16" class="node">
<title>Node16</title>
<g id="a_node16"><a xlink:href="resistancebc_8hpp.html" target="_top" xlink:title="MODEL::ResistanceBC source file.">
<polygon fill="white" stroke="#666666" points="1083.07,-74 964.07,-74 964.07,-55 1083.07,-55 1083.07,-74"/>
<text text-anchor="middle" x="1023.57" y="-62" font-family="Helvetica,sans-Serif" font-size="10.00">model/resistancebc.hpp</text>
</a>
</g>
</g>
<!-- Node6&#45;&gt;Node16 -->
<g id="edge43" class="edge">
<title>Node6&#45;&gt;Node16</title>
<path fill="none" stroke="#63b8ff" d="M1066.44,-154.54C1055.12,-131.04 1036.31,-91.97 1027.88,-74.46"/>
<polygon fill="#63b8ff" stroke="#63b8ff" points="1063.16,-155.81 1070.65,-163.3 1069.47,-152.77 1063.16,-155.81"/>
</g>
<!-- Node17 -->
<g id="node17" class="node">
<title>Node17</title>
<g id="a_node17"><a xlink:href="resistivejunction_8hpp.html" target="_top" xlink:title="MODEL::ResistiveJunction source file.">
<polygon fill="white" stroke="#666666" points="1235.57,-74 1101.57,-74 1101.57,-55 1235.57,-55 1235.57,-74"/>
<text text-anchor="middle" x="1168.57" y="-62" font-family="Helvetica,sans-Serif" font-size="10.00">model/resistivejunction.hpp</text>
</a>
</g>
</g>
<!-- Node6&#45;&gt;Node17 -->
<g id="edge44" class="edge">
<title>Node6&#45;&gt;Node17</title>
<path fill="none" stroke="#63b8ff" d="M1085.64,-154.9C1093.25,-141.69 1104.42,-123.9 1116.57,-110 1128.76,-96.04 1145.4,-82.57 1156.54,-74.18"/>
<polygon fill="#63b8ff" stroke="#63b8ff" points="1082.71,-152.98 1080.89,-163.41 1088.82,-156.39 1082.71,-152.98"/>
</g>
<!-- Node18 -->
<g id="node18" class="node">
<title>Node18</title>
<g id="a_node18"><a xlink:href="windkesselbc_8hpp.html" target="_top" xlink:title="MODEL::WindkesselBC source file.">
<polygon fill="white" stroke="#666666" points="404.07,-74 281.07,-74 281.07,-55 404.07,-55 404.07,-74"/>
<text text-anchor="middle" x="342.57" y="-62" font-family="Helvetica,sans-Serif" font-size="10.00">model/windkesselbc.hpp</text>
</a>
</g>
</g>
<!-- Node6&#45;&gt;Node18 -->
<g id="edge45" class="edge">
<title>Node6&#45;&gt;Node18</title>
<path fill="none" stroke="#63b8ff" d="M998.98,-166.21C928.8,-158.92 822.19,-146.3 730.57,-129 696.35,-122.54 688.73,-116.69 654.57,-110 607.99,-100.88 481.23,-83.68 404.38,-73.54"/>
<polygon fill="#63b8ff" stroke="#63b8ff" points="998.54,-169.69 1008.85,-167.23 999.26,-162.72 998.54,-169.69"/>
</g>
<!-- Node7&#45;&gt;Node2 -->
<g id="edge10" class="edge">
<title>Node7&#45;&gt;Node2</title>
<path fill="none" stroke="#63b8ff" d="M1172.71,-140.38C1174.49,-153.27 1175.07,-170.17 1169.57,-184 1153.15,-225.29 1110.56,-259.35 1088.79,-274.71"/>
<polygon fill="#63b8ff" stroke="#63b8ff" points="1176.17,-139.82 1170.98,-130.58 1169.27,-141.04 1176.17,-139.82"/>
</g>
<!-- Node7&#45;&gt;Node3 -->
<g id="edge22" class="edge">
<title>Node7&#45;&gt;Node3</title>
<path fill="none" stroke="#63b8ff" d="M1167.91,-140.53C1166.33,-154.74 1161.83,-173.15 1149.57,-184 1118.16,-211.78 999.29,-222.54 932.98,-226.45"/>
<polygon fill="#63b8ff" stroke="#63b8ff" points="1171.38,-141.14 1168.56,-130.92 1164.39,-140.66 1171.38,-141.14"/>
</g>
<!-- Node7&#45;&gt;Node8 -->
<g id="edge7" class="edge">
<title>Node7&#45;&gt;Node8</title>
<path fill="none" stroke="#63b8ff" d="M1223.65,-115.07C1325.2,-108.54 1548.73,-93.26 1736.57,-74 1739.37,-73.71 1742.23,-73.4 1745.12,-73.08"/>
<polygon fill="#63b8ff" stroke="#63b8ff" points="1223.73,-111.55 1213.97,-115.69 1224.17,-118.54 1223.73,-111.55"/>
</g>
<!-- Node7&#45;&gt;Node9 -->
<g id="edge11" class="edge">
<title>Node7&#45;&gt;Node9</title>
<path fill="none" stroke="#63b8ff" d="M1113.52,-114.97C1008.33,-108.09 771.53,-91.99 572.57,-74 569.51,-73.72 566.38,-73.43 563.22,-73.13"/>
<polygon fill="#63b8ff" stroke="#63b8ff" points="1113.07,-118.45 1123.27,-115.6 1113.52,-111.46 1113.07,-118.45"/>
</g>
<!-- Node7&#45;&gt;Node10 -->
<g id="edge13" class="edge">
<title>Node7&#45;&gt;Node10</title>
<path fill="none" stroke="#63b8ff" d="M1204.91,-105.12C1232.09,-93.13 1261.83,-74.48 1244.57,-55 1225.81,-33.83 1058.92,-20.72 956.76,-14.6"/>
<polygon fill="#63b8ff" stroke="#63b8ff" points="1203.61,-101.87 1195.73,-108.94 1206.31,-108.33 1203.61,-101.87"/>
</g>
<!-- Node7&#45;&gt;Node11 -->
<g id="edge15" class="edge">
<title>Node7&#45;&gt;Node11</title>
<path fill="none" stroke="#63b8ff" d="M1113.66,-110.16C1049.69,-100.45 944.39,-84.46 878.67,-74.48"/>
<polygon fill="#63b8ff" stroke="#63b8ff" points="1112.81,-113.57 1123.22,-111.61 1113.86,-106.65 1112.81,-113.57"/>
</g>
<!-- Node7&#45;&gt;Node12 -->
<g id="edge18" class="edge">
<title>Node7&#45;&gt;Node12</title>
<path fill="none" stroke="#63b8ff" d="M1113.53,-113.25C1029.3,-105.16 863.35,-89 722.57,-74 719.7,-73.69 716.77,-73.38 713.81,-73.06"/>
<polygon fill="#63b8ff" stroke="#63b8ff" points="1113.07,-116.72 1123.36,-114.19 1113.74,-109.75 1113.07,-116.72"/>
</g>
<!-- Node7&#45;&gt;Node13 -->
<g id="edge20" class="edge">
<title>Node7&#45;&gt;Node13</title>
<path fill="none" stroke="#63b8ff" d="M1208.36,-106.24C1239.89,-96.52 1283.21,-83.18 1311.53,-74.45"/>
<polygon fill="#63b8ff" stroke="#63b8ff" points="1207.72,-102.77 1199.19,-109.06 1209.78,-109.46 1207.72,-102.77"/>
</g>
<!-- Node7&#45;&gt;Node14 -->
<g id="edge23" class="edge">
<title>Node7&#45;&gt;Node14</title>
<path fill="none" stroke="#63b8ff" d="M1223.7,-109.19C1281.66,-99.41 1372.23,-84.12 1429.43,-74.47"/>
<polygon fill="#63b8ff" stroke="#63b8ff" points="1223.33,-105.71 1214.05,-110.82 1224.49,-112.61 1223.33,-105.71"/>
</g>
<!-- Node7&#45;&gt;Node15 -->
<g id="edge25" class="edge">
<title>Node7&#45;&gt;Node15</title>
<path fill="none" stroke="#63b8ff" d="M1223.66,-112.45C1310.03,-102.98 1477.51,-84.6 1575.37,-73.86"/>
<polygon fill="#63b8ff" stroke="#63b8ff" points="1223.34,-108.97 1213.79,-113.54 1224.11,-115.93 1223.34,-108.97"/>
</g>
<!-- Node7&#45;&gt;Node16 -->
<g id="edge27" class="edge">
<title>Node7&#45;&gt;Node16</title>
<path fill="none" stroke="#63b8ff" d="M1133.23,-105.58C1106.73,-95.9 1071.15,-82.89 1047.8,-74.36"/>
<polygon fill="#63b8ff" stroke="#63b8ff" points="1131.95,-108.84 1142.55,-108.99 1134.36,-102.27 1131.95,-108.84"/>
</g>
<!-- Node7&#45;&gt;Node17 -->
<g id="edge29" class="edge">
<title>Node7&#45;&gt;Node17</title>
<path fill="none" stroke="#63b8ff" d="M1168.57,-98.35C1168.57,-90.1 1168.57,-80.97 1168.57,-74.44"/>
<polygon fill="#63b8ff" stroke="#63b8ff" points="1165.07,-98.23 1168.57,-108.23 1172.07,-98.23 1165.07,-98.23"/>
</g>
<!-- Node7&#45;&gt;Node18 -->
<g id="edge31" class="edge">
<title>Node7&#45;&gt;Node18</title>
<path fill="none" stroke="#63b8ff" d="M1113.47,-116.43C988.59,-111.48 674.47,-97.59 412.57,-74 409.88,-73.76 407.15,-73.5 404.38,-73.22"/>
<polygon fill="#63b8ff" stroke="#63b8ff" points="1112.97,-119.91 1123.1,-116.81 1113.24,-112.92 1112.97,-119.91"/>
</g>
<!-- Node8&#45;&gt;Node2 -->
<g id="edge8" class="edge">
<title>Node8&#45;&gt;Node2</title>
<path fill="none" stroke="#63b8ff" d="M1767.3,-78.14C1729.17,-91.3 1667.38,-112.29 1613.57,-129 1423.31,-188.08 1192.77,-251.61 1108.46,-274.58"/>
<polygon fill="#63b8ff" stroke="#63b8ff" points="1768.13,-81.55 1776.43,-74.97 1765.84,-74.94 1768.13,-81.55"/>
</g>
<!-- Node8&#45;&gt;Node3 -->
<g id="edge9" class="edge">
<title>Node8&#45;&gt;Node3</title>
<path fill="none" stroke="#63b8ff" d="M1760.52,-77.43C1673.53,-101.12 1470.32,-154.35 1296.57,-184 1165.43,-206.37 1008.62,-219.75 932.9,-225.37"/>
<polygon fill="#63b8ff" stroke="#63b8ff" points="1761.33,-80.84 1770.06,-74.82 1759.49,-74.08 1761.33,-80.84"/>
</g>
<!-- Node9&#45;&gt;Node3 -->
<g id="edge12" class="edge">
<title>Node9&#45;&gt;Node3</title>
<path fill="none" stroke="#63b8ff" d="M545.93,-77.05C577.99,-84.75 619.27,-96.02 654.57,-110 720,-135.92 731.7,-152.36 794.57,-184 819.83,-196.71 849.33,-210.68 868.22,-219.52"/>
<polygon fill="#63b8ff" stroke="#63b8ff" points="547.01,-73.71 536.48,-74.83 545.41,-80.53 547.01,-73.71"/>
</g>
<!-- Node10&#45;&gt;Node3 -->
<g id="edge14" class="edge">
<title>Node10&#45;&gt;Node3</title>
<path fill="none" stroke="#63b8ff" d="M786.88,-12.03C667.86,-15.21 452.79,-24.98 271.57,-55 85.92,-85.75 -87.24,-40.8 48.57,-184 76.06,-212.99 671.19,-224.95 842.07,-227.8"/>
<polygon fill="#63b8ff" stroke="#63b8ff" points="786.68,-15.54 796.58,-11.78 786.5,-8.54 786.68,-15.54"/>
</g>
<!-- Node11&#45;&gt;Node3 -->
<g id="edge17" class="edge">
<title>Node11&#45;&gt;Node3</title>
<path fill="none" stroke="#63b8ff" d="M827.57,-84.69C842.33,-120.08 873.3,-194.31 883.91,-219.74"/>
<polygon fill="#63b8ff" stroke="#63b8ff" points="830.9,-83.59 823.82,-75.7 824.44,-86.28 830.9,-83.59"/>
</g>
<!-- Node11&#45;&gt;Node10 -->
<g id="edge16" class="edge">
<title>Node11&#45;&gt;Node10</title>
<path fill="none" stroke="#63b8ff" d="M837.83,-46.81C847.78,-37.72 859.7,-26.82 867.87,-19.36"/>
<polygon fill="#63b8ff" stroke="#63b8ff" points="835.54,-44.16 830.52,-53.49 840.27,-49.33 835.54,-44.16"/>
</g>
<!-- Node12&#45;&gt;Node3 -->
<g id="edge19" class="edge">
<title>Node12&#45;&gt;Node3</title>
<path fill="none" stroke="#63b8ff" d="M670.23,-80.89C719.51,-114.36 835.15,-192.9 874.32,-219.5"/>
<polygon fill="#63b8ff" stroke="#63b8ff" points="672.26,-78.04 662.02,-75.32 668.33,-83.83 672.26,-78.04"/>
</g>
<!-- Node13&#45;&gt;Node3 -->
<g id="edge21" class="edge">
<title>Node13&#45;&gt;Node3</title>
<path fill="none" stroke="#63b8ff" d="M1323.24,-81.94C1294.11,-108.47 1232.34,-160.18 1169.57,-184 1089.86,-214.25 989.96,-223.94 932.98,-227.04"/>
<polygon fill="#63b8ff" stroke="#63b8ff" points="1325.44,-84.67 1330.4,-75.3 1320.68,-79.53 1325.44,-84.67"/>
</g>
<!-- Node14&#45;&gt;Node3 -->
<g id="edge24" class="edge">
<title>Node14&#45;&gt;Node3</title>
<path fill="none" stroke="#63b8ff" d="M1455.8,-79.69C1407.07,-104.87 1299.97,-157.24 1203.57,-184 1109.34,-210.16 994.84,-221.4 932.8,-225.86"/>
<polygon fill="#63b8ff" stroke="#63b8ff" points="1457.23,-82.89 1464.48,-75.16 1454,-76.68 1457.23,-82.89"/>
</g>
<!-- Node15&#45;&gt;Node3 -->
<g id="edge26" class="edge">
<title>Node15&#45;&gt;Node3</title>
<path fill="none" stroke="#63b8ff" d="M1608.17,-77.42C1576.17,-86.26 1531.6,-98.69 1492.57,-110 1382.49,-141.89 1357.71,-160.4 1245.57,-184 1134.48,-207.37 1001.24,-219.96 932.9,-225.31"/>
<polygon fill="#63b8ff" stroke="#63b8ff" points="1608.77,-80.88 1617.47,-74.85 1606.9,-74.13 1608.77,-80.88"/>
</g>
<!-- Node16&#45;&gt;Node3 -->
<g id="edge28" class="edge">
<title>Node16&#45;&gt;Node3</title>
<path fill="none" stroke="#63b8ff" d="M1009.06,-82.88C980.2,-117.48 916.46,-193.87 894.88,-219.74"/>
<polygon fill="#63b8ff" stroke="#63b8ff" points="1011.53,-85.39 1015.25,-75.47 1006.15,-80.91 1011.53,-85.39"/>
</g>
<!-- Node17&#45;&gt;Node3 -->
<g id="edge30" class="edge">
<title>Node17&#45;&gt;Node3</title>
<path fill="none" stroke="#63b8ff" d="M1143.46,-80.06C1086.6,-113.04 949.32,-192.68 903.07,-219.5"/>
<polygon fill="#63b8ff" stroke="#63b8ff" points="1144.9,-83.27 1151.8,-75.23 1141.39,-77.22 1144.9,-83.27"/>
</g>
<!-- Node18&#45;&gt;Node3 -->
<g id="edge32" class="edge">
<title>Node18&#45;&gt;Node3</title>
<path fill="none" stroke="#63b8ff" d="M405.28,-76.53C447.07,-84.45 503.04,-96.15 551.57,-110 644.71,-136.59 665.15,-151.98 756.57,-184 792.5,-196.59 834.15,-210.65 860.67,-219.53"/>
<polygon fill="#63b8ff" stroke="#63b8ff" points="406.11,-73.13 395.64,-74.73 404.83,-80.01 406.11,-73.13"/>
</g>
<!-- Node19&#45;&gt;Node5 -->
<g id="edge47" class="edge">
<title>Node19&#45;&gt;Node5</title>
<path fill="none" stroke="#63b8ff" d="M370.84,-161.11C401.6,-151.41 443.66,-138.14 471.21,-129.45"/>
<polygon fill="#63b8ff" stroke="#63b8ff" points="369.99,-157.71 361.51,-164.05 372.1,-164.38 369.99,-157.71"/>
</g>
<!-- Node20&#45;&gt;Node5 -->
<g id="edge49" class="edge">
<title>Node20&#45;&gt;Node5</title>
<path fill="none" stroke="#63b8ff" d="M459.83,-156.81C469.78,-147.72 481.7,-136.82 489.87,-129.36"/>
<polygon fill="#63b8ff" stroke="#63b8ff" points="457.54,-154.16 452.52,-163.49 462.27,-159.33 457.54,-154.16"/>
</g>
<!-- Node22&#45;&gt;Node21 -->
<g id="edge52" class="edge">
<title>Node22&#45;&gt;Node21</title>
<path fill="none" stroke="#63b8ff" d="M151.76,-155.65C144.94,-146.84 137.01,-136.59 131.48,-129.44"/>
<polygon fill="#63b8ff" stroke="#63b8ff" points="148.98,-157.78 157.87,-163.55 154.52,-153.5 148.98,-157.78"/>
</g>
</g>
</svg>
