<?xml version="1.0" encoding="UTF-8" standalone="no"?>
<!DOCTYPE svg PUBLIC "-//W3C//DTD SVG 1.1//EN"
 "http://www.w3.org/Graphics/SVG/1.1/DTD/svg11.dtd">
<!-- Generated by graphviz version 7.0.5 (20221223.1930)
 -->
<!-- Title: optimize/calibrate.hpp Pages: 1 -->
<svg width="2433pt" height="467pt"
 viewBox="0.00 0.00 2432.50 467.00" xmlns="http://www.w3.org/2000/svg" xmlns:xlink="http://www.w3.org/1999/xlink">
<g id="graph0" class="graph" transform="scale(1 1) rotate(0) translate(4 463)">
<title>optimize/calibrate.hpp</title>
<!-- Node1 -->
<g id="node1" class="node">
<title>Node1</title>
<g id="a_node1"><a xlink:title="OPT::calibrate source file.">
<polygon fill="#999999" stroke="#666666" points="238,-459 128,-459 128,-440 238,-440 238,-459"/>
<text text-anchor="middle" x="183" y="-447" font-family="Helvetica,sans-Serif" font-size="10.00">optimize/calibrate.hpp</text>
</a>
</g>
</g>
<!-- Node2 -->
<g id="node2" class="node">
<title>Node2</title>
<g id="a_node2"><a xlink:title=" ">
<polygon fill="#e0e0e0" stroke="#999999" points="99.5,-349 28.5,-349 28.5,-330 99.5,-330 99.5,-349"/>
<text text-anchor="middle" x="64" y="-337" font-family="Helvetica,sans-Serif" font-size="10.00">Eigen/Dense</text>
</a>
</g>
</g>
<!-- Node1&#45;&gt;Node2 -->
<g id="edge1" class="edge">
<title>Node1&#45;&gt;Node2</title>
<path fill="none" stroke="#63b8ff" d="M127.71,-443.41C101.77,-437.93 73.08,-426.73 57,-404 47.98,-391.25 51,-373.33 55.54,-359.77"/>
<polygon fill="#63b8ff" stroke="#63b8ff" points="58.73,-361.22 59.11,-350.63 52.21,-358.67 58.73,-361.22"/>
</g>
<!-- Node3 -->
<g id="node3" class="node">
<title>Node3</title>
<g id="a_node3"><a xlink:title=" ">
<polygon fill="#e0e0e0" stroke="#999999" points="165,-74 91,-74 91,-55 165,-55 165,-74"/>
<text text-anchor="middle" x="128" y="-62" font-family="Helvetica,sans-Serif" font-size="10.00">Eigen/Sparse</text>
</a>
</g>
</g>
<!-- Node1&#45;&gt;Node3 -->
<g id="edge2" class="edge">
<title>Node1&#45;&gt;Node3</title>
<path fill="none" stroke="#63b8ff" d="M127.6,-439.79C73.74,-427.81 0,-400.45 0,-340.5 0,-340.5 0,-340.5 0,-173.5 0,-125.53 53.17,-94.53 90.97,-78.56"/>
<polygon fill="#63b8ff" stroke="#63b8ff" points="91.8,-82 99.76,-75.01 89.18,-75.5 91.8,-82"/>
</g>
<!-- Node4 -->
<g id="node4" class="node">
<title>Node4</title>
<g id="a_node4"><a xlink:title=" ">
<polygon fill="#e0e0e0" stroke="#999999" points="116,-404 66,-404 66,-385 116,-385 116,-404"/>
<text text-anchor="middle" x="91" y="-392" font-family="Helvetica,sans-Serif" font-size="10.00">fstream</text>
</a>
</g>
</g>
<!-- Node1&#45;&gt;Node4 -->
<g id="edge3" class="edge">
<title>Node1&#45;&gt;Node4</title>
<path fill="none" stroke="#63b8ff" d="M167.39,-439.51C153.3,-431.39 132.31,-419.3 115.9,-409.85"/>
<polygon fill="#63b8ff" stroke="#63b8ff" points="118.1,-407.07 107.69,-405.11 114.61,-413.14 118.1,-407.07"/>
</g>
<!-- Node5 -->
<g id="node5" class="node">
<title>Node5</title>
<g id="a_node5"><a xlink:title=" ">
<polygon fill="#e0e0e0" stroke="#999999" points="232,-404 134,-404 134,-385 232,-385 232,-404"/>
<text text-anchor="middle" x="183" y="-392" font-family="Helvetica,sans-Serif" font-size="10.00">nlohmann/json.hpp</text>
</a>
</g>
</g>
<!-- Node1&#45;&gt;Node5 -->
<g id="edge4" class="edge">
<title>Node1&#45;&gt;Node5</title>
<path fill="none" stroke="#63b8ff" d="M183,-439.75C183,-433.27 183,-424.16 183,-415.9"/>
<polygon fill="#63b8ff" stroke="#63b8ff" points="186.5,-415.96 183,-405.96 179.5,-415.96 186.5,-415.96"/>
</g>
<!-- Node6 -->
<g id="node6" class="node">
<title>Node6</title>
<g id="a_node6"><a xlink:href="debug_8hpp.html" target="_top" xlink:title="DEBUG_MSG source file.">
<polygon fill="white" stroke="#666666" points="368.5,-349 273.5,-349 273.5,-330 368.5,-330 368.5,-349"/>
<text text-anchor="middle" x="321" y="-337" font-family="Helvetica,sans-Serif" font-size="10.00">helpers/debug.hpp</text>
</a>
</g>
</g>
<!-- Node1&#45;&gt;Node6 -->
<g id="edge5" class="edge">
<title>Node1&#45;&gt;Node6</title>
<path fill="none" stroke="#63b8ff" d="M238.5,-445.92C300.65,-441.73 395.65,-430.98 418,-404 436.94,-381.13 401.84,-363.53 368.69,-352.72"/>
<polygon fill="#63b8ff" stroke="#63b8ff" points="370.1,-349.5 359.51,-349.9 368.04,-356.19 370.1,-349.5"/>
</g>
<!-- Node8 -->
<g id="node8" class="node">
<title>Node8</title>
<g id="a_node8"><a xlink:href="levenbergmarquardtoptimizer_8hpp.html" target="_top" xlink:title="OPT::LevenbergMarquardtOptimizer source file.">
<polygon fill="white" stroke="#666666" points="409.5,-404 250.5,-404 250.5,-385 409.5,-385 409.5,-404"/>
<text text-anchor="middle" x="330" y="-392" font-family="Helvetica,sans-Serif" font-size="10.00">levenbergmarquardtoptimizer.hpp</text>
</a>
</g>
</g>
<!-- Node1&#45;&gt;Node8 -->
<g id="edge7" class="edge">
<title>Node1&#45;&gt;Node8</title>
<path fill="none" stroke="#63b8ff" d="M207.94,-439.51C231.84,-430.89 268.14,-417.8 294.95,-408.14"/>
<polygon fill="#63b8ff" stroke="#63b8ff" points="295.79,-411.56 304.01,-404.87 293.41,-404.97 295.79,-411.56"/>
</g>
<!-- Node9 -->
<g id="node9" class="node">
<title>Node9</title>
<g id="a_node9"><a xlink:href="model_8hpp.html" target="_top" xlink:title="MODEL::Model source file.">
<polygon fill="white" stroke="#666666" points="1294,-349 1204,-349 1204,-330 1294,-330 1294,-349"/>
<text text-anchor="middle" x="1249" y="-337" font-family="Helvetica,sans-Serif" font-size="10.00">model/model.hpp</text>
</a>
</g>
</g>
<!-- Node1&#45;&gt;Node9 -->
<g id="edge86" class="edge">
<title>Node1&#45;&gt;Node9</title>
<path fill="none" stroke="#63b8ff" d="M238.44,-442.88C421.7,-424.32 1006.82,-365.04 1192.14,-346.26"/>
<polygon fill="#63b8ff" stroke="#63b8ff" points="1192.4,-349.75 1202,-345.26 1191.7,-342.79 1192.4,-349.75"/>
</g>
<!-- Node7 -->
<g id="node7" class="node">
<title>Node7</title>
<g id="a_node7"><a xlink:title=" ">
<polygon fill="#e0e0e0" stroke="#999999" points="490,-74 436,-74 436,-55 490,-55 490,-74"/>
<text text-anchor="middle" x="463" y="-62" font-family="Helvetica,sans-Serif" font-size="10.00">iostream</text>
</a>
</g>
</g>
<!-- Node6&#45;&gt;Node7 -->
<g id="edge6" class="edge">
<title>Node6&#45;&gt;Node7</title>
<path fill="none" stroke="#63b8ff" d="M282.29,-329.58C236.38,-316.44 166,-287.08 166,-230.5 166,-230.5 166,-230.5 166,-173.5 166,-119.11 344.12,-84.19 424.48,-71.21"/>
<polygon fill="#63b8ff" stroke="#63b8ff" points="424.77,-74.7 434.1,-69.69 423.67,-67.79 424.77,-74.7"/>
</g>
<!-- Node8&#45;&gt;Node2 -->
<g id="edge8" class="edge">
<title>Node8&#45;&gt;Node2</title>
<path fill="none" stroke="#63b8ff" d="M284.88,-384.51C236.57,-374.89 160.28,-359.68 111.2,-349.9"/>
<polygon fill="#63b8ff" stroke="#63b8ff" points="111.92,-346.48 101.43,-347.96 110.55,-353.34 111.92,-346.48"/>
</g>
<!-- Node8&#45;&gt;Node3 -->
<g id="edge9" class="edge">
<title>Node8&#45;&gt;Node3</title>
<path fill="none" stroke="#63b8ff" d="M257.64,-384.55C199.68,-372.86 128,-346.14 128,-285.5 128,-285.5 128,-285.5 128,-173.5 128,-142.92 128,-107.48 128,-85.77"/>
<polygon fill="#63b8ff" stroke="#63b8ff" points="131.5,-85.97 128,-75.97 124.5,-85.97 131.5,-85.97"/>
</g>
<!-- Node8&#45;&gt;Node9 -->
<g id="edge10" class="edge">
<title>Node8&#45;&gt;Node9</title>
<path fill="none" stroke="#63b8ff" d="M409.95,-388.89C592.29,-378.37 1035.26,-352.83 1192.49,-343.76"/>
<polygon fill="#63b8ff" stroke="#63b8ff" points="1192.46,-347.27 1202.24,-343.2 1192.05,-340.28 1192.46,-347.27"/>
</g>
<!-- Node10 -->
<g id="node10" class="node">
<title>Node10</title>
<g id="a_node10"><a xlink:title=" ">
<polygon fill="#e0e0e0" stroke="#999999" points="2308,-294 2252,-294 2252,-275 2308,-275 2308,-294"/>
<text text-anchor="middle" x="2280" y="-282" font-family="Helvetica,sans-Serif" font-size="10.00">algorithm</text>
</a>
</g>
</g>
<!-- Node9&#45;&gt;Node10 -->
<g id="edge11" class="edge">
<title>Node9&#45;&gt;Node10</title>
<path fill="none" stroke="#63b8ff" d="M1294.06,-338.95C1434.39,-339.8 1875.92,-338.51 2238,-294 2238.83,-293.9 2239.67,-293.79 2240.51,-293.67"/>
<polygon fill="#63b8ff" stroke="#63b8ff" points="2240.83,-297.17 2250.14,-292.1 2239.7,-290.26 2240.83,-297.17"/>
</g>
<!-- Node11 -->
<g id="node11" class="node">
<title>Node11</title>
<g id="a_node11"><a xlink:title=" ">
<polygon fill="#e0e0e0" stroke="#999999" points="2355.5,-294 2326.5,-294 2326.5,-275 2355.5,-275 2355.5,-294"/>
<text text-anchor="middle" x="2341" y="-282" font-family="Helvetica,sans-Serif" font-size="10.00">list</text>
</a>
</g>
</g>
<!-- Node9&#45;&gt;Node11 -->
<g id="edge12" class="edge">
<title>Node9&#45;&gt;Node11</title>
<path fill="none" stroke="#63b8ff" d="M1294.23,-338.41C1468.13,-337.78 2094.54,-332.95 2315.08,-293.59"/>
<polygon fill="#63b8ff" stroke="#63b8ff" points="2315.54,-297.07 2324.73,-291.79 2314.25,-290.19 2315.54,-297.07"/>
</g>
<!-- Node12 -->
<g id="node12" class="node">
<title>Node12</title>
<g id="a_node12"><a xlink:title=" ">
<polygon fill="#e0e0e0" stroke="#999999" points="2424.5,-294 2373.5,-294 2373.5,-275 2424.5,-275 2424.5,-294"/>
<text text-anchor="middle" x="2399" y="-282" font-family="Helvetica,sans-Serif" font-size="10.00">memory</text>
</a>
</g>
</g>
<!-- Node9&#45;&gt;Node12 -->
<g id="edge13" class="edge">
<title>Node9&#45;&gt;Node12</title>
<path fill="none" stroke="#63b8ff" d="M1294.29,-337.93C1473.05,-335.51 2130.68,-324.76 2361.78,-294.12"/>
<polygon fill="#63b8ff" stroke="#63b8ff" points="2362.2,-297.6 2371.62,-292.76 2361.24,-290.66 2362.2,-297.6"/>
</g>
<!-- Node13 -->
<g id="node13" class="node">
<title>Node13</title>
<g id="a_node13"><a xlink:title=" ">
<polygon fill="#e0e0e0" stroke="#999999" points="1642,-19 1598,-19 1598,0 1642,0 1642,-19"/>
<text text-anchor="middle" x="1620" y="-7" font-family="Helvetica,sans-Serif" font-size="10.00">vector</text>
</a>
</g>
</g>
<!-- Node9&#45;&gt;Node13 -->
<g id="edge14" class="edge">
<title>Node9&#45;&gt;Node13</title>
<path fill="none" stroke="#63b8ff" d="M1294.29,-338.24C1445.16,-337.03 1929.71,-330.33 2081,-294 2148.62,-277.76 2224,-300.04 2224,-230.5 2224,-230.5 2224,-230.5 2224,-118.5 2224,-60.07 1780.27,-22.46 1653.47,-12.91"/>
<polygon fill="#63b8ff" stroke="#63b8ff" points="1653.95,-9.43 1643.72,-12.18 1653.44,-16.41 1653.95,-9.43"/>
</g>
<!-- Node14 -->
<g id="node14" class="node">
<title>Node14</title>
<g id="a_node14"><a xlink:href="sparsesystem_8hpp.html" target="_top" xlink:title="ALGEBRA::SparseSystem source file.">
<polygon fill="white" stroke="#666666" points="873.5,-129 736.5,-129 736.5,-110 873.5,-110 873.5,-129"/>
<text text-anchor="middle" x="805" y="-117" font-family="Helvetica,sans-Serif" font-size="10.00">../algebra/sparsesystem.hpp</text>
</a>
</g>
</g>
<!-- Node9&#45;&gt;Node14 -->
<g id="edge15" class="edge">
<title>Node9&#45;&gt;Node14</title>
<path fill="none" stroke="#63b8ff" d="M1203.77,-337.74C1014.62,-334 294.65,-314.55 232,-239 167.78,-161.55 552.52,-132.66 724.83,-123.83"/>
<polygon fill="#63b8ff" stroke="#63b8ff" points="724.79,-127.33 734.6,-123.34 724.44,-120.34 724.79,-127.33"/>
</g>
<!-- Node16 -->
<g id="node16" class="node">
<title>Node16</title>
<g id="a_node16"><a xlink:href="bloodvessel_8hpp.html" target="_top" xlink:title="MODEL::BloodVessel source file.">
<polygon fill="white" stroke="#666666" points="1182.5,-239 1059.5,-239 1059.5,-220 1182.5,-220 1182.5,-239"/>
<text text-anchor="middle" x="1121" y="-227" font-family="Helvetica,sans-Serif" font-size="10.00">../model/bloodvessel.hpp</text>
</a>
</g>
</g>
<!-- Node9&#45;&gt;Node16 -->
<g id="edge20" class="edge">
<title>Node9&#45;&gt;Node16</title>
<path fill="none" stroke="#63b8ff" d="M1220.57,-329.54C1201.19,-322.33 1175.9,-310.65 1158,-294 1144.71,-281.65 1134.77,-263.43 1128.56,-249.67"/>
<polygon fill="#63b8ff" stroke="#63b8ff" points="1131.92,-248.64 1124.81,-240.78 1125.47,-251.36 1131.92,-248.64"/>
</g>
<!-- Node18 -->
<g id="node18" class="node">
<title>Node18</title>
<g id="a_node18"><a xlink:href="block_8hpp.html" target="_top" xlink:title="MODEL::Block source file.">
<polygon fill="white" stroke="#666666" points="1316,-184 1258,-184 1258,-165 1316,-165 1316,-184"/>
<text text-anchor="middle" x="1287" y="-172" font-family="Helvetica,sans-Serif" font-size="10.00">block.hpp</text>
</a>
</g>
</g>
<!-- Node9&#45;&gt;Node18 -->
<g id="edge81" class="edge">
<title>Node9&#45;&gt;Node18</title>
<path fill="none" stroke="#63b8ff" d="M1289.25,-329.6C1308.42,-323.12 1329.59,-312.19 1341,-294 1356.39,-269.45 1320.67,-263.98 1306,-239 1298.05,-225.47 1293.18,-208.33 1290.36,-195.27"/>
<polygon fill="#63b8ff" stroke="#63b8ff" points="1293.85,-194.9 1288.54,-185.73 1286.98,-196.21 1293.85,-194.9"/>
</g>
<!-- Node21 -->
<g id="node21" class="node">
<title>Node21</title>
<g id="a_node21"><a xlink:href="dofhandler_8hpp.html" target="_top" xlink:title="MODEL::DOFHandler source file.">
<polygon fill="white" stroke="#666666" points="1429,-74 1349,-74 1349,-55 1429,-55 1429,-74"/>
<text text-anchor="middle" x="1389" y="-62" font-family="Helvetica,sans-Serif" font-size="10.00">dofhandler.hpp</text>
</a>
</g>
</g>
<!-- Node9&#45;&gt;Node21 -->
<g id="edge83" class="edge">
<title>Node9&#45;&gt;Node21</title>
<path fill="none" stroke="#63b8ff" d="M1294.19,-338.1C1481.36,-335.86 2186,-321.38 2186,-230.5 2186,-230.5 2186,-230.5 2186,-173.5 2186,-98.01 1617.2,-72.99 1440.64,-67.04"/>
<polygon fill="#63b8ff" stroke="#63b8ff" points="1440.97,-63.55 1430.86,-66.72 1440.74,-70.55 1440.97,-63.55"/>
</g>
<!-- Node23 -->
<g id="node23" class="node">
<title>Node23</title>
<g id="a_node23"><a xlink:href="node_8hpp.html" target="_top" xlink:title="MODEL::Node source file.">
<polygon fill="white" stroke="#666666" points="1293,-129 1237,-129 1237,-110 1293,-110 1293,-129"/>
<text text-anchor="middle" x="1265" y="-117" font-family="Helvetica,sans-Serif" font-size="10.00">node.hpp</text>
</a>
</g>
</g>
<!-- Node9&#45;&gt;Node23 -->
<g id="edge84" class="edge">
<title>Node9&#45;&gt;Node23</title>
<path fill="none" stroke="#63b8ff" d="M1203.67,-337.97C1126.34,-336.15 973.44,-328.18 934,-294 908.57,-271.96 897.75,-246.87 918,-220 955.33,-170.46 1142.45,-138.03 1225.36,-125.88"/>
<polygon fill="#63b8ff" stroke="#63b8ff" points="1225.67,-129.37 1235.07,-124.48 1224.67,-122.44 1225.67,-129.37"/>
</g>
<!-- Node24 -->
<g id="node24" class="node">
<title>Node24</title>
<g id="a_node24"><a xlink:href="bloodvesseljunction_8hpp.html" target="_top" xlink:title="MODEL::BloodVesselJunction source file.">
<polygon fill="white" stroke="#666666" points="1109.5,-294 952.5,-294 952.5,-275 1109.5,-275 1109.5,-294"/>
<text text-anchor="middle" x="1031" y="-282" font-family="Helvetica,sans-Serif" font-size="10.00">../model/bloodvesseljunction.hpp</text>
</a>
</g>
</g>
<!-- Node9&#45;&gt;Node24 -->
<g id="edge35" class="edge">
<title>Node9&#45;&gt;Node24</title>
<path fill="none" stroke="#63b8ff" d="M1212.02,-329.51C1175.34,-320.59 1118.98,-306.89 1078.9,-297.15"/>
<polygon fill="#63b8ff" stroke="#63b8ff" points="1079.81,-293.77 1069.27,-294.8 1078.16,-300.57 1079.81,-293.77"/>
</g>
<!-- Node25 -->
<g id="node25" class="node">
<title>Node25</title>
<g id="a_node25"><a xlink:href="blocktype_8hpp.html" target="_top" xlink:title="MODEL::BlockType source file.">
<polygon fill="white" stroke="#666666" points="1003,-239 927,-239 927,-220 1003,-220 1003,-239"/>
<text text-anchor="middle" x="965" y="-227" font-family="Helvetica,sans-Serif" font-size="10.00">blocktype.hpp</text>
</a>
</g>
</g>
<!-- Node9&#45;&gt;Node25 -->
<g id="edge82" class="edge">
<title>Node9&#45;&gt;Node25</title>
<path fill="none" stroke="#63b8ff" d="M1203.75,-338.81C1127.16,-338.26 977.03,-332.2 944,-294 932.88,-281.14 941.35,-262.21 950.64,-248.37"/>
<polygon fill="#63b8ff" stroke="#63b8ff" points="953.28,-250.69 956.39,-240.56 947.64,-246.54 953.28,-250.69"/>
</g>
<!-- Node26 -->
<g id="node26" class="node">
<title>Node26</title>
<g id="a_node26"><a xlink:href="closedloop_r_c_rbc_8hpp.html" target="_top" xlink:title="MODEL::ClosedLoopRCRBC source file.">
<polygon fill="white" stroke="#666666" points="522.5,-239 373.5,-239 373.5,-220 522.5,-220 522.5,-239"/>
<text text-anchor="middle" x="448" y="-227" font-family="Helvetica,sans-Serif" font-size="10.00">../model/closedloopRCRbc.hpp</text>
</a>
</g>
</g>
<!-- Node9&#45;&gt;Node26 -->
<g id="edge40" class="edge">
<title>Node9&#45;&gt;Node26</title>
<path fill="none" stroke="#63b8ff" d="M1203.63,-336.04C1117.04,-330.99 922.36,-317.84 760,-294 665.98,-280.2 557.53,-256.29 496.43,-242.08"/>
<polygon fill="#63b8ff" stroke="#63b8ff" points="497.23,-238.68 486.7,-239.81 495.64,-245.49 497.23,-238.68"/>
</g>
<!-- Node27 -->
<g id="node27" class="node">
<title>Node27</title>
<g id="a_node27"><a xlink:href="closedloopcoronarybc_8hpp.html" target="_top" xlink:title="MODEL::ClosedLoopCoronaryBC source file.">
<polygon fill="white" stroke="#666666" points="1331.5,-294 1166.5,-294 1166.5,-275 1331.5,-275 1331.5,-294"/>
<text text-anchor="middle" x="1249" y="-282" font-family="Helvetica,sans-Serif" font-size="10.00">../model/closedloopcoronarybc.hpp</text>
</a>
</g>
</g>
<!-- Node9&#45;&gt;Node27 -->
<g id="edge43" class="edge">
<title>Node9&#45;&gt;Node27</title>
<path fill="none" stroke="#63b8ff" d="M1249,-329.75C1249,-323.27 1249,-314.16 1249,-305.9"/>
<polygon fill="#63b8ff" stroke="#63b8ff" points="1252.5,-305.96 1249,-295.96 1245.5,-305.96 1252.5,-305.96"/>
</g>
<!-- Node28 -->
<g id="node28" class="node">
<title>Node28</title>
<g id="a_node28"><a xlink:href="closedloopheartpulmonary_8hpp.html" target="_top" xlink:title="MODEL::ClosedLoopHeartPulmonary source file.">
<polygon fill="white" stroke="#666666" points="1974.5,-239 1827.5,-239 1827.5,-220 1974.5,-220 1974.5,-239"/>
<text text-anchor="middle" x="1901" y="-227" font-family="Helvetica,sans-Serif" font-size="10.00">closedloopheartpulmonary.hpp</text>
</a>
</g>
</g>
<!-- Node9&#45;&gt;Node28 -->
<g id="edge51" class="edge">
<title>Node9&#45;&gt;Node28</title>
<path fill="none" stroke="#63b8ff" d="M1294.33,-330.99C1407.7,-312.21 1703.86,-263.16 1835.87,-241.29"/>
<polygon fill="#63b8ff" stroke="#63b8ff" points="1836.19,-244.78 1845.49,-239.7 1835.05,-237.88 1836.19,-244.78"/>
</g>
<!-- Node29 -->
<g id="node29" class="node">
<title>Node29</title>
<g id="a_node29"><a xlink:href="flowreferencebc_8hpp.html" target="_top" xlink:title="MODEL::FlowReferenceBC source file.">
<polygon fill="white" stroke="#666666" points="1455,-239 1315,-239 1315,-220 1455,-220 1455,-239"/>
<text text-anchor="middle" x="1385" y="-227" font-family="Helvetica,sans-Serif" font-size="10.00">../model/flowreferencebc.hpp</text>
</a>
</g>
</g>
<!-- Node9&#45;&gt;Node29 -->
<g id="edge52" class="edge">
<title>Node9&#45;&gt;Node29</title>
<path fill="none" stroke="#63b8ff" d="M1294.47,-333.72C1321.54,-328.44 1354.33,-317.34 1374,-294 1384.05,-282.08 1386.41,-264.32 1386.49,-250.61"/>
<polygon fill="#63b8ff" stroke="#63b8ff" points="1390,-250.82 1386.12,-240.96 1383,-251.08 1390,-250.82"/>
</g>
<!-- Node30 -->
<g id="node30" class="node">
<title>Node30</title>
<g id="a_node30"><a xlink:href="parameter_8hpp.html" target="_top" xlink:title="MODEL::Parameter source file.">
<polygon fill="white" stroke="#666666" points="1768,-184 1690,-184 1690,-165 1768,-165 1768,-184"/>
<text text-anchor="middle" x="1729" y="-172" font-family="Helvetica,sans-Serif" font-size="10.00">parameter.hpp</text>
</a>
</g>
</g>
<!-- Node9&#45;&gt;Node30 -->
<g id="edge85" class="edge">
<title>Node9&#45;&gt;Node30</title>
<path fill="none" stroke="#63b8ff" d="M1294.45,-336.85C1466.78,-330.12 2073.06,-302.09 2129,-239 2176.35,-185.6 1897.11,-176.96 1779.44,-175.67"/>
<polygon fill="#63b8ff" stroke="#63b8ff" points="1779.79,-172.17 1769.75,-175.58 1779.72,-179.17 1779.79,-172.17"/>
</g>
<!-- Node32 -->
<g id="node32" class="node">
<title>Node32</title>
<g id="a_node32"><a xlink:href="junction_8hpp.html" target="_top" xlink:title="MODEL::Junction source file.">
<polygon fill="white" stroke="#666666" points="355.5,-239 250.5,-239 250.5,-220 355.5,-220 355.5,-239"/>
<text text-anchor="middle" x="303" y="-227" font-family="Helvetica,sans-Serif" font-size="10.00">../model/junction.hpp</text>
</a>
</g>
</g>
<!-- Node9&#45;&gt;Node32 -->
<g id="edge60" class="edge">
<title>Node9&#45;&gt;Node32</title>
<path fill="none" stroke="#63b8ff" d="M1203.6,-336.74C1103.73,-332.5 857.56,-320.12 653,-294 546.66,-280.42 423.61,-256.06 355.4,-241.78"/>
<polygon fill="#63b8ff" stroke="#63b8ff" points="356.52,-238.44 346.02,-239.81 355.08,-245.29 356.52,-238.44"/>
</g>
<!-- Node33 -->
<g id="node33" class="node">
<title>Node33</title>
<g id="a_node33"><a xlink:href="openloopcoronarybc_8hpp.html" target="_top" xlink:title="MODEL::OpenLoopCoronaryBC source file.">
<polygon fill="white" stroke="#666666" points="1631,-239 1473,-239 1473,-220 1631,-220 1631,-239"/>
<text text-anchor="middle" x="1552" y="-227" font-family="Helvetica,sans-Serif" font-size="10.00">../model/openloopcoronarybc.hpp</text>
</a>
</g>
</g>
<!-- Node9&#45;&gt;Node33 -->
<g id="edge63" class="edge">
<title>Node9&#45;&gt;Node33</title>
<path fill="none" stroke="#63b8ff" d="M1280.19,-329.54C1309.31,-321 1353.88,-307.47 1392,-294 1437.12,-278.05 1488.39,-257.21 1520.47,-243.84"/>
<polygon fill="#63b8ff" stroke="#63b8ff" points="1521.7,-247.12 1529.58,-240.02 1519,-240.66 1521.7,-247.12"/>
</g>
<!-- Node34 -->
<g id="node34" class="node">
<title>Node34</title>
<g id="a_node34"><a xlink:href="pressurereferencebc_8hpp.html" target="_top" xlink:title="MODEL::PressureReferenceBC source file.">
<polygon fill="white" stroke="#666666" points="1809,-239 1649,-239 1649,-220 1809,-220 1809,-239"/>
<text text-anchor="middle" x="1729" y="-227" font-family="Helvetica,sans-Serif" font-size="10.00">../model/pressurereferencebc.hpp</text>
</a>
</g>
</g>
<!-- Node9&#45;&gt;Node34 -->
<g id="edge67" class="edge">
<title>Node9&#45;&gt;Node34</title>
<path fill="none" stroke="#63b8ff" d="M1288.69,-329.57C1375.46,-310.05 1581.94,-263.59 1678.1,-241.95"/>
<polygon fill="#63b8ff" stroke="#63b8ff" points="1678.8,-245.38 1687.79,-239.77 1677.26,-238.55 1678.8,-245.38"/>
</g>
<!-- Node35 -->
<g id="node35" class="node">
<title>Node35</title>
<g id="a_node35"><a xlink:href="resistancebc_8hpp.html" target="_top" xlink:title="MODEL::ResistanceBC source file.">
<polygon fill="white" stroke="#666666" points="2119.5,-239 1992.5,-239 1992.5,-220 2119.5,-220 2119.5,-239"/>
<text text-anchor="middle" x="2056" y="-227" font-family="Helvetica,sans-Serif" font-size="10.00">../model/resistancebc.hpp</text>
</a>
</g>
</g>
<!-- Node9&#45;&gt;Node35 -->
<g id="edge71" class="edge">
<title>Node9&#45;&gt;Node35</title>
<path fill="none" stroke="#63b8ff" d="M1294.38,-332.63C1359.58,-324.19 1483.52,-308.07 1589,-294 1727.39,-275.54 1888.77,-253.47 1981.01,-240.81"/>
<polygon fill="#63b8ff" stroke="#63b8ff" points="1981.25,-244.31 1990.69,-239.49 1980.3,-237.38 1981.25,-244.31"/>
</g>
<!-- Node36 -->
<g id="node36" class="node">
<title>Node36</title>
<g id="a_node36"><a xlink:href="resistivejunction_8hpp.html" target="_top" xlink:title="MODEL::ResistiveJunction source file.">
<polygon fill="white" stroke="#666666" points="683,-239 541,-239 541,-220 683,-220 683,-239"/>
<text text-anchor="middle" x="612" y="-227" font-family="Helvetica,sans-Serif" font-size="10.00">../model/resistivejunction.hpp</text>
</a>
</g>
</g>
<!-- Node9&#45;&gt;Node36 -->
<g id="edge75" class="edge">
<title>Node9&#45;&gt;Node36</title>
<path fill="none" stroke="#63b8ff" d="M1203.55,-335.99C1127.68,-331.25 970.64,-319.12 840,-294 771.89,-280.9 694.47,-257.47 649.63,-243.02"/>
<polygon fill="#63b8ff" stroke="#63b8ff" points="650.72,-239.7 640.13,-239.94 648.55,-246.35 650.72,-239.7"/>
</g>
<!-- Node37 -->
<g id="node37" class="node">
<title>Node37</title>
<g id="a_node37"><a xlink:href="windkesselbc_8hpp.html" target="_top" xlink:title="MODEL::WindkesselBC source file.">
<polygon fill="white" stroke="#666666" points="870.5,-239 739.5,-239 739.5,-220 870.5,-220 870.5,-239"/>
<text text-anchor="middle" x="805" y="-227" font-family="Helvetica,sans-Serif" font-size="10.00">../model/windkesselbc.hpp</text>
</a>
</g>
</g>
<!-- Node9&#45;&gt;Node37 -->
<g id="edge78" class="edge">
<title>Node9&#45;&gt;Node37</title>
<path fill="none" stroke="#63b8ff" d="M1203.56,-336.71C1116.55,-332.69 929.89,-321.12 872,-294 849.86,-283.63 830.31,-263.06 818.13,-248.14"/>
<polygon fill="#63b8ff" stroke="#63b8ff" points="821.08,-246.23 812.17,-240.5 815.56,-250.54 821.08,-246.23"/>
</g>
<!-- Node14&#45;&gt;Node3 -->
<g id="edge16" class="edge">
<title>Node14&#45;&gt;Node3</title>
<path fill="none" stroke="#63b8ff" d="M736.05,-113.1C598.91,-102.37 294.99,-78.57 176.57,-69.3"/>
<polygon fill="#63b8ff" stroke="#63b8ff" points="177.12,-65.83 166.88,-68.54 176.57,-72.81 177.12,-65.83"/>
</g>
<!-- Node14&#45;&gt;Node7 -->
<g id="edge18" class="edge">
<title>Node14&#45;&gt;Node7</title>
<path fill="none" stroke="#63b8ff" d="M746.98,-109.51C676.95,-98.66 561.14,-80.71 501.36,-71.44"/>
<polygon fill="#63b8ff" stroke="#63b8ff" points="502.09,-68.02 491.67,-69.94 501.02,-74.93 502.09,-68.02"/>
</g>
<!-- Node14&#45;&gt;Node9 -->
<g id="edge19" class="edge">
<title>Node14&#45;&gt;Node9</title>
<path fill="none" stroke="#63b8ff" d="M736.27,-123.71C573.94,-132.4 185.49,-161.21 250,-239 310.77,-312.28 989.97,-332.78 1192.44,-337.36"/>
<polygon fill="#63b8ff" stroke="#63b8ff" points="1192.09,-340.85 1202.17,-337.58 1192.25,-333.86 1192.09,-340.85"/>
</g>
<!-- Node15 -->
<g id="node15" class="node">
<title>Node15</title>
<g id="a_node15"><a xlink:title=" ">
<polygon fill="#e0e0e0" stroke="#999999" points="849,-74 761,-74 761,-55 849,-55 849,-74"/>
<text text-anchor="middle" x="805" y="-62" font-family="Helvetica,sans-Serif" font-size="10.00">Eigen/SparseLU</text>
</a>
</g>
</g>
<!-- Node14&#45;&gt;Node15 -->
<g id="edge17" class="edge">
<title>Node14&#45;&gt;Node15</title>
<path fill="none" stroke="#63b8ff" d="M805,-109.75C805,-103.27 805,-94.16 805,-85.9"/>
<polygon fill="#63b8ff" stroke="#63b8ff" points="808.5,-85.96 805,-75.96 801.5,-85.96 808.5,-85.96"/>
</g>
<!-- Node16&#45;&gt;Node14 -->
<g id="edge22" class="edge">
<title>Node16&#45;&gt;Node14</title>
<path fill="none" stroke="#63b8ff" d="M1094.87,-219.57C1038.68,-200.36 906.21,-155.09 841.65,-133.03"/>
<polygon fill="#63b8ff" stroke="#63b8ff" points="843.19,-129.85 832.59,-129.93 840.92,-136.48 843.19,-129.85"/>
</g>
<!-- Node17 -->
<g id="node17" class="node">
<title>Node17</title>
<g id="a_node17"><a xlink:title=" ">
<polygon fill="#e0e0e0" stroke="#999999" points="1647,-129 1601,-129 1601,-110 1647,-110 1647,-129"/>
<text text-anchor="middle" x="1624" y="-117" font-family="Helvetica,sans-Serif" font-size="10.00">math.h</text>
</a>
</g>
</g>
<!-- Node16&#45;&gt;Node17 -->
<g id="edge21" class="edge">
<title>Node16&#45;&gt;Node17</title>
<path fill="none" stroke="#63b8ff" d="M1167.31,-219.54C1250.03,-203.35 1428.86,-167.56 1589.57,-129.49"/>
<polygon fill="#63b8ff" stroke="#63b8ff" points="1590.23,-132.93 1599.14,-127.21 1588.61,-126.12 1590.23,-132.93"/>
</g>
<!-- Node16&#45;&gt;Node18 -->
<g id="edge23" class="edge">
<title>Node16&#45;&gt;Node18</title>
<path fill="none" stroke="#63b8ff" d="M1149.16,-219.51C1176.43,-210.8 1217.99,-197.53 1248.35,-187.84"/>
<polygon fill="#63b8ff" stroke="#63b8ff" points="1249.08,-191.28 1257.54,-184.91 1246.95,-184.61 1249.08,-191.28"/>
</g>
<!-- Node18&#45;&gt;Node13 -->
<g id="edge25" class="edge">
<title>Node18&#45;&gt;Node13</title>
<path fill="none" stroke="#63b8ff" d="M1305.38,-164.5C1360.53,-137.51 1524.9,-57.05 1591.5,-24.45"/>
<polygon fill="#63b8ff" stroke="#63b8ff" points="1592.88,-27.67 1600.32,-20.13 1589.8,-21.39 1592.88,-27.67"/>
</g>
<!-- Node18&#45;&gt;Node14 -->
<g id="edge26" class="edge">
<title>Node18&#45;&gt;Node14</title>
<path fill="none" stroke="#63b8ff" d="M1257.75,-170.27C1243.37,-168.68 1225.77,-166.74 1210,-165 1097.18,-152.58 966.69,-138.24 884.99,-129.28"/>
<polygon fill="#63b8ff" stroke="#63b8ff" points="885.62,-125.83 875.3,-128.21 884.86,-132.78 885.62,-125.83"/>
</g>
<!-- Node19 -->
<g id="node19" class="node">
<title>Node19</title>
<g id="a_node19"><a xlink:title=" ">
<polygon fill="#e0e0e0" stroke="#999999" points="1381.5,-19 1346.5,-19 1346.5,0 1381.5,0 1381.5,-19"/>
<text text-anchor="middle" x="1364" y="-7" font-family="Helvetica,sans-Serif" font-size="10.00">map</text>
</a>
</g>
</g>
<!-- Node18&#45;&gt;Node19 -->
<g id="edge24" class="edge">
<title>Node18&#45;&gt;Node19</title>
<path fill="none" stroke="#63b8ff" d="M1290.64,-164.77C1298.94,-145.02 1320.09,-95.44 1340,-55 1344.22,-46.44 1349.18,-37.12 1353.5,-29.23"/>
<polygon fill="#63b8ff" stroke="#63b8ff" points="1356.5,-31.03 1358.29,-20.59 1350.38,-27.64 1356.5,-31.03"/>
</g>
<!-- Node20 -->
<g id="node20" class="node">
<title>Node20</title>
<g id="a_node20"><a xlink:href="state_8hpp.html" target="_top" xlink:title="ALGEBRA::State source file.">
<polygon fill="white" stroke="#666666" points="1583,-129 1485,-129 1485,-110 1583,-110 1583,-129"/>
<text text-anchor="middle" x="1534" y="-117" font-family="Helvetica,sans-Serif" font-size="10.00">../algebra/state.hpp</text>
</a>
</g>
</g>
<!-- Node18&#45;&gt;Node20 -->
<g id="edge27" class="edge">
<title>Node18&#45;&gt;Node20</title>
<path fill="none" stroke="#63b8ff" d="M1316.3,-167.21C1356.93,-158.49 1431.06,-142.59 1481.4,-131.79"/>
<polygon fill="#63b8ff" stroke="#63b8ff" points="1481.87,-135.27 1490.91,-129.75 1480.4,-128.42 1481.87,-135.27"/>
</g>
<!-- Node18&#45;&gt;Node21 -->
<g id="edge28" class="edge">
<title>Node18&#45;&gt;Node21</title>
<path fill="none" stroke="#63b8ff" d="M1297.26,-164.63C1307.21,-155.88 1322.58,-141.96 1335,-129 1349.2,-114.18 1364.24,-96.29 1374.83,-83.28"/>
<polygon fill="#63b8ff" stroke="#63b8ff" points="1377.48,-85.57 1381.03,-75.59 1372.03,-81.18 1377.48,-85.57"/>
</g>
<!-- Node18&#45;&gt;Node23 -->
<g id="edge32" class="edge">
<title>Node18&#45;&gt;Node23</title>
<path fill="none" stroke="#63b8ff" d="M1283.37,-164.75C1280.58,-158.04 1276.63,-148.52 1273.1,-140.02"/>
<polygon fill="#63b8ff" stroke="#63b8ff" points="1276.36,-138.73 1269.29,-130.84 1269.89,-141.42 1276.36,-138.73"/>
</g>
<!-- Node21&#45;&gt;Node13 -->
<g id="edge31" class="edge">
<title>Node21&#45;&gt;Node13</title>
<path fill="none" stroke="#63b8ff" d="M1428.19,-54.51C1472.78,-44.28 1544.84,-27.74 1586.79,-18.12"/>
<polygon fill="#63b8ff" stroke="#63b8ff" points="1587.33,-21.59 1596.3,-15.94 1585.77,-14.76 1587.33,-21.59"/>
</g>
<!-- Node21&#45;&gt;Node19 -->
<g id="edge29" class="edge">
<title>Node21&#45;&gt;Node19</title>
<path fill="none" stroke="#63b8ff" d="M1384.87,-54.75C1381.67,-47.96 1377.11,-38.3 1373.07,-29.73"/>
<polygon fill="#63b8ff" stroke="#63b8ff" points="1376.3,-28.36 1368.86,-20.81 1369.96,-31.35 1376.3,-28.36"/>
</g>
<!-- Node22 -->
<g id="node22" class="node">
<title>Node22</title>
<g id="a_node22"><a xlink:title=" ">
<polygon fill="#e0e0e0" stroke="#999999" points="1316.5,-19 1275.5,-19 1275.5,0 1316.5,0 1316.5,-19"/>
<text text-anchor="middle" x="1296" y="-7" font-family="Helvetica,sans-Serif" font-size="10.00">string</text>
</a>
</g>
</g>
<!-- Node21&#45;&gt;Node22 -->
<g id="edge30" class="edge">
<title>Node21&#45;&gt;Node22</title>
<path fill="none" stroke="#63b8ff" d="M1373.22,-54.51C1358.98,-46.39 1337.76,-34.3 1321.17,-24.85"/>
<polygon fill="#63b8ff" stroke="#63b8ff" points="1323.28,-22.02 1312.86,-20.11 1319.81,-28.1 1323.28,-22.02"/>
</g>
<!-- Node23&#45;&gt;Node21 -->
<g id="edge34" class="edge">
<title>Node23&#45;&gt;Node21</title>
<path fill="none" stroke="#63b8ff" d="M1286.03,-109.51C1305.75,-101.08 1335.47,-88.38 1357.91,-78.79"/>
<polygon fill="#63b8ff" stroke="#63b8ff" points="1359.06,-82.1 1366.88,-74.95 1356.31,-75.66 1359.06,-82.1"/>
</g>
<!-- Node23&#45;&gt;Node22 -->
<g id="edge33" class="edge">
<title>Node23&#45;&gt;Node22</title>
<path fill="none" stroke="#63b8ff" d="M1267.54,-109.66C1272.49,-92.42 1283.54,-53.9 1290.33,-30.27"/>
<polygon fill="#63b8ff" stroke="#63b8ff" points="1293.62,-31.49 1293.01,-20.92 1286.89,-29.56 1293.62,-31.49"/>
</g>
<!-- Node24&#45;&gt;Node14 -->
<g id="edge36" class="edge">
<title>Node24&#45;&gt;Node14</title>
<path fill="none" stroke="#63b8ff" d="M952.19,-283.06C872.82,-280.75 758.17,-271.64 730,-239 701.02,-205.42 751.26,-159.63 782.65,-136.01"/>
<polygon fill="#63b8ff" stroke="#63b8ff" points="784.43,-139.04 790.45,-130.32 780.31,-133.38 784.43,-139.04"/>
</g>
<!-- Node24&#45;&gt;Node16 -->
<g id="edge39" class="edge">
<title>Node24&#45;&gt;Node16</title>
<path fill="none" stroke="#63b8ff" d="M1046.27,-274.51C1059.93,-266.47 1080.2,-254.53 1096.18,-245.11"/>
<polygon fill="#63b8ff" stroke="#63b8ff" points="1097.81,-248.22 1104.65,-240.13 1094.26,-242.18 1097.81,-248.22"/>
</g>
<!-- Node24&#45;&gt;Node18 -->
<g id="edge37" class="edge">
<title>Node24&#45;&gt;Node18</title>
<path fill="none" stroke="#63b8ff" d="M1031.08,-274.61C1031.72,-260.75 1035.1,-234.12 1051,-220 1079.43,-194.76 1187.09,-182.9 1246.69,-178.16"/>
<polygon fill="#63b8ff" stroke="#63b8ff" points="1246.72,-181.67 1256.42,-177.42 1246.19,-174.69 1246.72,-181.67"/>
</g>
<!-- Node24&#45;&gt;Node25 -->
<g id="edge38" class="edge">
<title>Node24&#45;&gt;Node25</title>
<path fill="none" stroke="#63b8ff" d="M1019.8,-274.51C1010.26,-266.85 996.33,-255.66 984.89,-246.47"/>
<polygon fill="#63b8ff" stroke="#63b8ff" points="987.2,-243.84 977.21,-240.31 982.82,-249.3 987.2,-243.84"/>
</g>
<!-- Node26&#45;&gt;Node14 -->
<g id="edge41" class="edge">
<title>Node26&#45;&gt;Node14</title>
<path fill="none" stroke="#63b8ff" d="M477.52,-219.57C541.26,-200.29 691.89,-154.72 764.49,-132.75"/>
<polygon fill="#63b8ff" stroke="#63b8ff" points="765.44,-136.12 774,-129.88 763.41,-129.42 765.44,-136.12"/>
</g>
<!-- Node26&#45;&gt;Node18 -->
<g id="edge42" class="edge">
<title>Node26&#45;&gt;Node18</title>
<path fill="none" stroke="#63b8ff" d="M522.64,-220.78C525.8,-220.51 528.93,-220.25 532,-220 804.73,-198.17 1133.69,-182.4 1246.65,-177.28"/>
<polygon fill="#63b8ff" stroke="#63b8ff" points="1246.48,-180.79 1256.31,-176.85 1246.16,-173.8 1246.48,-180.79"/>
</g>
<!-- Node27&#45;&gt;Node14 -->
<g id="edge44" class="edge">
<title>Node27&#45;&gt;Node14</title>
<path fill="none" stroke="#63b8ff" d="M1243.54,-274.61C1234.55,-260.76 1215.3,-234.14 1192,-220 1137.15,-186.71 959.5,-149.58 865.16,-131.54"/>
<polygon fill="#63b8ff" stroke="#63b8ff" points="866.05,-128.14 855.57,-129.72 864.74,-135.02 866.05,-128.14"/>
</g>
<!-- Node27&#45;&gt;Node18 -->
<g id="edge45" class="edge">
<title>Node27&#45;&gt;Node18</title>
<path fill="none" stroke="#63b8ff" d="M1252.11,-274.66C1258.18,-257.42 1271.73,-218.9 1280.04,-195.27"/>
<polygon fill="#63b8ff" stroke="#63b8ff" points="1283.33,-196.48 1283.34,-185.89 1276.72,-194.16 1283.33,-196.48"/>
</g>
<!-- Node27&#45;&gt;Node28 -->
<g id="edge46" class="edge">
<title>Node27&#45;&gt;Node28</title>
<path fill="none" stroke="#63b8ff" d="M1331.98,-277.64C1440.55,-269.83 1637.04,-255.21 1816.02,-239.16"/>
<polygon fill="#63b8ff" stroke="#63b8ff" points="1816.09,-242.66 1825.74,-238.28 1815.46,-235.69 1816.09,-242.66"/>
</g>
<!-- Node28&#45;&gt;Node14 -->
<g id="edge48" class="edge">
<title>Node28&#45;&gt;Node14</title>
<path fill="none" stroke="#63b8ff" d="M1846.43,-219.52C1761.93,-205.89 1594.21,-180.02 1451,-165 1247.92,-143.7 1007.8,-130.23 885.44,-124.19"/>
<polygon fill="#63b8ff" stroke="#63b8ff" points="885.65,-120.7 875.49,-123.71 885.31,-127.69 885.65,-120.7"/>
</g>
<!-- Node28&#45;&gt;Node17 -->
<g id="edge47" class="edge">
<title>Node28&#45;&gt;Node17</title>
<path fill="none" stroke="#63b8ff" d="M1832.95,-219.51C1778.25,-211.42 1706.5,-198.58 1681,-184 1661.75,-172.99 1645.53,-153.15 1635.37,-138.57"/>
<polygon fill="#63b8ff" stroke="#63b8ff" points="1638.36,-136.75 1629.92,-130.34 1632.53,-140.61 1638.36,-136.75"/>
</g>
<!-- Node28&#45;&gt;Node18 -->
<g id="edge50" class="edge">
<title>Node28&#45;&gt;Node18</title>
<path fill="none" stroke="#63b8ff" d="M1827.24,-220.88C1824.12,-220.57 1821.03,-220.28 1818,-220 1635.27,-202.99 1416.87,-185.62 1327.82,-178.66"/>
<polygon fill="#63b8ff" stroke="#63b8ff" points="1328.13,-175.18 1317.88,-177.89 1327.58,-182.15 1328.13,-175.18"/>
</g>
<!-- Node28&#45;&gt;Node20 -->
<g id="edge49" class="edge">
<title>Node28&#45;&gt;Node20</title>
<path fill="none" stroke="#63b8ff" d="M1838.21,-219.52C1776.34,-210.26 1686.37,-195.57 1653,-184 1617.7,-171.76 1580.17,-150.11 1556.91,-135.53"/>
<polygon fill="#63b8ff" stroke="#63b8ff" points="1558.87,-132.63 1548.56,-130.21 1555.11,-138.53 1558.87,-132.63"/>
</g>
<!-- Node29&#45;&gt;Node14 -->
<g id="edge53" class="edge">
<title>Node29&#45;&gt;Node14</title>
<path fill="none" stroke="#63b8ff" d="M1348.59,-219.58C1294.41,-206.49 1189.25,-181.83 1099,-165 1026.65,-151.51 943.71,-139.24 884.41,-131.02"/>
<polygon fill="#63b8ff" stroke="#63b8ff" points="885.13,-127.59 874.74,-129.69 884.17,-134.52 885.13,-127.59"/>
</g>
<!-- Node29&#45;&gt;Node18 -->
<g id="edge54" class="edge">
<title>Node29&#45;&gt;Node18</title>
<path fill="none" stroke="#63b8ff" d="M1368.38,-219.51C1353.22,-211.31 1330.58,-199.07 1313.03,-189.58"/>
<polygon fill="#63b8ff" stroke="#63b8ff" points="1315.17,-186.76 1304.71,-185.08 1311.84,-192.91 1315.17,-186.76"/>
</g>
<!-- Node29&#45;&gt;Node30 -->
<g id="edge55" class="edge">
<title>Node29&#45;&gt;Node30</title>
<path fill="none" stroke="#63b8ff" d="M1443.35,-219.51C1509.4,-209.33 1615.92,-192.92 1678.52,-183.28"/>
<polygon fill="#63b8ff" stroke="#63b8ff" points="1678.83,-186.77 1688.18,-181.79 1677.77,-179.85 1678.83,-186.77"/>
</g>
<!-- Node30&#45;&gt;Node13 -->
<g id="edge58" class="edge">
<title>Node30&#45;&gt;Node13</title>
<path fill="none" stroke="#63b8ff" d="M1740.13,-164.52C1753.89,-152.28 1774.29,-129.62 1764,-110 1740.76,-65.68 1687.83,-37.21 1653.03,-22.53"/>
<polygon fill="#63b8ff" stroke="#63b8ff" points="1654.41,-19.32 1643.83,-18.82 1651.79,-25.81 1654.41,-19.32"/>
</g>
<!-- Node30&#45;&gt;Node17 -->
<g id="edge56" class="edge">
<title>Node30&#45;&gt;Node17</title>
<path fill="none" stroke="#63b8ff" d="M1711.19,-164.51C1694.87,-156.27 1670.47,-143.96 1651.63,-134.45"/>
<polygon fill="#63b8ff" stroke="#63b8ff" points="1653.4,-131.42 1642.9,-130.04 1650.25,-137.67 1653.4,-131.42"/>
</g>
<!-- Node30&#45;&gt;Node21 -->
<g id="edge59" class="edge">
<title>Node30&#45;&gt;Node21</title>
<path fill="none" stroke="#63b8ff" d="M1721.95,-164.84C1709.99,-150.81 1684.26,-123.32 1656,-110 1586.35,-77.17 1496.49,-68.13 1440.81,-65.88"/>
<polygon fill="#63b8ff" stroke="#63b8ff" points="1441.1,-62.39 1430.98,-65.55 1440.86,-69.39 1441.1,-62.39"/>
</g>
<!-- Node31 -->
<g id="node31" class="node">
<title>Node31</title>
<g id="a_node31"><a xlink:title=" ">
<polygon fill="#e0e0e0" stroke="#999999" points="1754.5,-129 1703.5,-129 1703.5,-110 1754.5,-110 1754.5,-129"/>
<text text-anchor="middle" x="1729" y="-117" font-family="Helvetica,sans-Serif" font-size="10.00">numeric</text>
</a>
</g>
</g>
<!-- Node30&#45;&gt;Node31 -->
<g id="edge57" class="edge">
<title>Node30&#45;&gt;Node31</title>
<path fill="none" stroke="#63b8ff" d="M1729,-164.75C1729,-158.27 1729,-149.16 1729,-140.9"/>
<polygon fill="#63b8ff" stroke="#63b8ff" points="1732.5,-140.96 1729,-130.96 1725.5,-140.96 1732.5,-140.96"/>
</g>
<!-- Node32&#45;&gt;Node14 -->
<g id="edge61" class="edge">
<title>Node32&#45;&gt;Node14</title>
<path fill="none" stroke="#63b8ff" d="M344.51,-219.57C435.44,-200.01 652.08,-153.4 752.38,-131.82"/>
<polygon fill="#63b8ff" stroke="#63b8ff" points="752.92,-135.28 761.96,-129.76 751.45,-128.44 752.92,-135.28"/>
</g>
<!-- Node32&#45;&gt;Node18 -->
<g id="edge62" class="edge">
<title>Node32&#45;&gt;Node18</title>
<path fill="none" stroke="#63b8ff" d="M355.87,-220.84C358.62,-220.53 361.34,-220.25 364,-220 704.38,-188.15 1117.64,-178.49 1246.6,-176.15"/>
<polygon fill="#63b8ff" stroke="#63b8ff" points="1246.38,-179.65 1256.32,-175.97 1246.26,-172.65 1246.38,-179.65"/>
</g>
<!-- Node33&#45;&gt;Node14 -->
<g id="edge64" class="edge">
<title>Node33&#45;&gt;Node14</title>
<path fill="none" stroke="#63b8ff" d="M1526.16,-219.55C1484.41,-205.49 1399.3,-178.45 1325,-165 1170.9,-137.11 987.85,-126.59 885.18,-122.71"/>
<polygon fill="#63b8ff" stroke="#63b8ff" points="885.31,-119.21 875.19,-122.34 885.06,-126.2 885.31,-119.21"/>
</g>
<!-- Node33&#45;&gt;Node18 -->
<g id="edge65" class="edge">
<title>Node33&#45;&gt;Node18</title>
<path fill="none" stroke="#63b8ff" d="M1507.05,-219.51C1456.71,-209.44 1375.85,-193.27 1327.44,-183.59"/>
<polygon fill="#63b8ff" stroke="#63b8ff" points="1328.13,-180.16 1317.64,-181.63 1326.76,-187.02 1328.13,-180.16"/>
</g>
<!-- Node33&#45;&gt;Node30 -->
<g id="edge66" class="edge">
<title>Node33&#45;&gt;Node30</title>
<path fill="none" stroke="#63b8ff" d="M1582.03,-219.51C1611.23,-210.76 1655.81,-197.42 1688.21,-187.71"/>
<polygon fill="#63b8ff" stroke="#63b8ff" points="1689.1,-191.1 1697.67,-184.88 1687.09,-184.4 1689.1,-191.1"/>
</g>
<!-- Node34&#45;&gt;Node14 -->
<g id="edge68" class="edge">
<title>Node34&#45;&gt;Node14</title>
<path fill="none" stroke="#63b8ff" d="M1687.58,-219.54C1622.44,-205.76 1491.92,-179.47 1380,-165 1204.26,-142.27 996.68,-129.7 885.29,-124.11"/>
<polygon fill="#63b8ff" stroke="#63b8ff" points="885.5,-120.61 875.34,-123.61 885.16,-127.6 885.5,-120.61"/>
</g>
<!-- Node34&#45;&gt;Node18 -->
<g id="edge69" class="edge">
<title>Node34&#45;&gt;Node18</title>
<path fill="none" stroke="#63b8ff" d="M1654.02,-219.51C1559.8,-208.21 1401.5,-189.23 1327.46,-180.35"/>
<polygon fill="#63b8ff" stroke="#63b8ff" points="1328.17,-176.91 1317.83,-179.2 1327.34,-183.86 1328.17,-176.91"/>
</g>
<!-- Node34&#45;&gt;Node30 -->
<g id="edge70" class="edge">
<title>Node34&#45;&gt;Node30</title>
<path fill="none" stroke="#63b8ff" d="M1729,-219.75C1729,-213.27 1729,-204.16 1729,-195.9"/>
<polygon fill="#63b8ff" stroke="#63b8ff" points="1732.5,-195.96 1729,-185.96 1725.5,-195.96 1732.5,-195.96"/>
</g>
<!-- Node35&#45;&gt;Node14 -->
<g id="edge72" class="edge">
<title>Node35&#45;&gt;Node14</title>
<path fill="none" stroke="#63b8ff" d="M1992.27,-220.96C1889.29,-208.78 1696.2,-185.92 1681,-184 1617.83,-176.03 1602.38,-171.15 1539,-165 1301.94,-141.98 1020.58,-128.88 885.39,-123.47"/>
<polygon fill="#63b8ff" stroke="#63b8ff" points="885.59,-119.97 875.46,-123.07 885.31,-126.97 885.59,-119.97"/>
</g>
<!-- Node35&#45;&gt;Node18 -->
<g id="edge73" class="edge">
<title>Node35&#45;&gt;Node18</title>
<path fill="none" stroke="#63b8ff" d="M1992.03,-220.77C1989.32,-220.5 1986.63,-220.24 1984,-220 1734.92,-197.36 1434.73,-182.31 1327.49,-177.32"/>
<polygon fill="#63b8ff" stroke="#63b8ff" points="1327.92,-173.84 1317.77,-176.87 1327.6,-180.83 1327.92,-173.84"/>
</g>
<!-- Node35&#45;&gt;Node30 -->
<g id="edge74" class="edge">
<title>Node35&#45;&gt;Node30</title>
<path fill="none" stroke="#63b8ff" d="M2000.53,-219.51C1938.56,-209.47 1839.12,-193.35 1779.32,-183.66"/>
<polygon fill="#63b8ff" stroke="#63b8ff" points="1780.2,-180.25 1769.77,-182.11 1779.08,-187.16 1780.2,-180.25"/>
</g>
<!-- Node36&#45;&gt;Node14 -->
<g id="edge76" class="edge">
<title>Node36&#45;&gt;Node14</title>
<path fill="none" stroke="#63b8ff" d="M622.15,-219.58C637.52,-206.39 668,-181.46 697,-165 719.53,-152.21 746.46,-141.11 767.8,-133.19"/>
<polygon fill="#63b8ff" stroke="#63b8ff" points="768.76,-136.56 776.97,-129.86 766.37,-129.98 768.76,-136.56"/>
</g>
<!-- Node36&#45;&gt;Node18 -->
<g id="edge77" class="edge">
<title>Node36&#45;&gt;Node18</title>
<path fill="none" stroke="#63b8ff" d="M683.28,-222.9C824.37,-211.83 1135.19,-187.42 1246.42,-178.69"/>
<polygon fill="#63b8ff" stroke="#63b8ff" points="1246.56,-182.19 1256.26,-177.91 1246.01,-175.21 1246.56,-182.19"/>
</g>
<!-- Node37&#45;&gt;Node14 -->
<g id="edge79" class="edge">
<title>Node37&#45;&gt;Node14</title>
<path fill="none" stroke="#63b8ff" d="M805,-219.66C805,-202.57 805,-164.61 805,-140.92"/>
<polygon fill="#63b8ff" stroke="#63b8ff" points="808.5,-140.97 805,-130.97 801.5,-140.97 808.5,-140.97"/>
</g>
<!-- Node37&#45;&gt;Node18 -->
<g id="edge80" class="edge">
<title>Node37&#45;&gt;Node18</title>
<path fill="none" stroke="#63b8ff" d="M870.76,-221.27C972.02,-210.13 1163.15,-189.12 1246.46,-179.96"/>
<polygon fill="#63b8ff" stroke="#63b8ff" points="1246.65,-183.46 1256.21,-178.89 1245.89,-176.5 1246.65,-183.46"/>
</g>
</g>
</svg>
