<?xml version="1.0" encoding="UTF-8" standalone="no"?>
<!DOCTYPE svg PUBLIC "-//W3C//DTD SVG 1.1//EN"
 "http://www.w3.org/Graphics/SVG/1.1/DTD/svg11.dtd">
<!-- Generated by graphviz version 7.0.5 (20221223.1930)
 -->
<!-- Title: optimize/calibrate.hpp Pages: 1 -->
<svg width="2372pt" height="467pt"
 viewBox="0.00 0.00 2372.00 467.00" xmlns="http://www.w3.org/2000/svg" xmlns:xlink="http://www.w3.org/1999/xlink">
<g id="graph0" class="graph" transform="scale(1 1) rotate(0) translate(4 463)">
<title>optimize/calibrate.hpp</title>
<!-- Node1 -->
<g id="node1" class="node">
<title>Node1</title>
<g id="a_node1"><a xlink:title="OPT::calibrate source file.">
<polygon fill="#999999" stroke="#666666" points="1767,-459 1657,-459 1657,-440 1767,-440 1767,-459"/>
<text text-anchor="middle" x="1712" y="-447" font-family="Helvetica,sans-Serif" font-size="10.00">optimize/calibrate.hpp</text>
</a>
</g>
</g>
<!-- Node2 -->
<g id="node2" class="node">
<title>Node2</title>
<g id="a_node2"><a xlink:title=" ">
<polygon fill="#e0e0e0" stroke="#999999" points="99.5,-349 28.5,-349 28.5,-330 99.5,-330 99.5,-349"/>
<text text-anchor="middle" x="64" y="-337" font-family="Helvetica,sans-Serif" font-size="10.00">Eigen/Dense</text>
</a>
</g>
</g>
<!-- Node1&#45;&gt;Node2 -->
<g id="edge1" class="edge">
<title>Node1&#45;&gt;Node2</title>
<path fill="none" stroke="#63b8ff" d="M1656.62,-446.46C1513.3,-441.06 1118.44,-425.28 790,-404 489.19,-384.51 413.09,-386.52 114,-349 113.01,-348.88 112,-348.74 110.99,-348.61"/>
<polygon fill="#63b8ff" stroke="#63b8ff" points="111.89,-345.2 101.49,-347.22 110.88,-352.13 111.89,-345.2"/>
</g>
<!-- Node3 -->
<g id="node3" class="node">
<title>Node3</title>
<g id="a_node3"><a xlink:title=" ">
<polygon fill="#e0e0e0" stroke="#999999" points="75,-74 1,-74 1,-55 75,-55 75,-74"/>
<text text-anchor="middle" x="38" y="-62" font-family="Helvetica,sans-Serif" font-size="10.00">Eigen/Sparse</text>
</a>
</g>
</g>
<!-- Node1&#45;&gt;Node3 -->
<g id="edge2" class="edge">
<title>Node1&#45;&gt;Node3</title>
<path fill="none" stroke="#63b8ff" d="M1656.98,-447.97C1363.94,-444.82 0,-425.56 0,-340.5 0,-340.5 0,-340.5 0,-173.5 0,-140.65 15.84,-105.19 27.07,-84.19"/>
<polygon fill="#63b8ff" stroke="#63b8ff" points="30,-86.13 31.82,-75.69 23.88,-82.72 30,-86.13"/>
</g>
<!-- Node4 -->
<g id="node4" class="node">
<title>Node4</title>
<g id="a_node4"><a xlink:title=" ">
<polygon fill="#e0e0e0" stroke="#999999" points="2248,-404 2198,-404 2198,-385 2248,-385 2248,-404"/>
<text text-anchor="middle" x="2223" y="-392" font-family="Helvetica,sans-Serif" font-size="10.00">fstream</text>
</a>
</g>
</g>
<!-- Node1&#45;&gt;Node4 -->
<g id="edge3" class="edge">
<title>Node1&#45;&gt;Node4</title>
<path fill="none" stroke="#63b8ff" d="M1767.49,-445.44C1855.99,-440.08 2034.35,-427.28 2184,-404 2184.99,-403.85 2185.99,-403.68 2187,-403.51"/>
<polygon fill="#63b8ff" stroke="#63b8ff" points="2187.25,-407.03 2196.42,-401.72 2185.94,-400.15 2187.25,-407.03"/>
</g>
<!-- Node5 -->
<g id="node5" class="node">
<title>Node5</title>
<g id="a_node5"><a xlink:title=" ">
<polygon fill="#e0e0e0" stroke="#999999" points="2364,-404 2266,-404 2266,-385 2364,-385 2364,-404"/>
<text text-anchor="middle" x="2315" y="-392" font-family="Helvetica,sans-Serif" font-size="10.00">nlohmann/json.hpp</text>
</a>
</g>
</g>
<!-- Node1&#45;&gt;Node5 -->
<g id="edge4" class="edge">
<title>Node1&#45;&gt;Node5</title>
<path fill="none" stroke="#63b8ff" d="M1767.43,-445.15C1864.09,-439.05 2070.04,-424.93 2254.4,-404.23"/>
<polygon fill="#63b8ff" stroke="#63b8ff" points="2254.62,-407.72 2264.16,-403.12 2253.83,-400.77 2254.62,-407.72"/>
</g>
<!-- Node6 -->
<g id="node6" class="node">
<title>Node6</title>
<g id="a_node6"><a xlink:href="debug_8hpp.html" target="_top" xlink:title="DEBUG_MSG source file.">
<polygon fill="white" stroke="#666666" points="2185.5,-184 2090.5,-184 2090.5,-165 2185.5,-165 2185.5,-184"/>
<text text-anchor="middle" x="2138" y="-172" font-family="Helvetica,sans-Serif" font-size="10.00">helpers/debug.hpp</text>
</a>
</g>
</g>
<!-- Node1&#45;&gt;Node6 -->
<g id="edge5" class="edge">
<title>Node1&#45;&gt;Node6</title>
<path fill="none" stroke="#63b8ff" d="M1767.37,-443.3C1854.15,-432.08 2021.51,-397.55 2111,-294 2134.96,-266.28 2138.84,-221.64 2138.85,-195.79"/>
<polygon fill="#63b8ff" stroke="#63b8ff" points="2142.36,-195.9 2138.64,-185.98 2135.36,-196.05 2142.36,-195.9"/>
</g>
<!-- Node8 -->
<g id="node8" class="node">
<title>Node8</title>
<g id="a_node8"><a xlink:href="endswith_8hpp.html" target="_top" xlink:title="HELPERS::endswith source file.">
<polygon fill="white" stroke="#666666" points="2268,-349 2160,-349 2160,-330 2268,-330 2268,-349"/>
<text text-anchor="middle" x="2214" y="-337" font-family="Helvetica,sans-Serif" font-size="10.00">helpers/endswith.hpp</text>
</a>
</g>
</g>
<!-- Node1&#45;&gt;Node8 -->
<g id="edge7" class="edge">
<title>Node1&#45;&gt;Node8</title>
<path fill="none" stroke="#63b8ff" d="M1767.4,-447.19C1868.78,-444.08 2079.81,-434.09 2146,-404 2168.44,-393.8 2188.28,-373.2 2200.66,-358.22"/>
<polygon fill="#63b8ff" stroke="#63b8ff" points="2203.27,-360.56 2206.72,-350.55 2197.78,-356.22 2203.27,-360.56"/>
</g>
<!-- Node10 -->
<g id="node10" class="node">
<title>Node10</title>
<g id="a_node10"><a xlink:href="levenbergmarquardtoptimizer_8hpp.html" target="_top" xlink:title="OPT::LevenbergMarquardtOptimizer source file.">
<polygon fill="white" stroke="#666666" points="958.5,-404 799.5,-404 799.5,-385 958.5,-385 958.5,-404"/>
<text text-anchor="middle" x="879" y="-392" font-family="Helvetica,sans-Serif" font-size="10.00">levenbergmarquardtoptimizer.hpp</text>
</a>
</g>
</g>
<!-- Node1&#45;&gt;Node10 -->
<g id="edge9" class="edge">
<title>Node1&#45;&gt;Node10</title>
<path fill="none" stroke="#63b8ff" d="M1656.7,-444.98C1516.05,-436.03 1143.61,-412.34 970.21,-401.3"/>
<polygon fill="#63b8ff" stroke="#63b8ff" points="970.54,-397.82 960.34,-400.68 970.1,-404.8 970.54,-397.82"/>
</g>
<!-- Node11 -->
<g id="node11" class="node">
<title>Node11</title>
<g id="a_node11"><a xlink:href="model_8hpp.html" target="_top" xlink:title="MODEL::Model source file.">
<polygon fill="white" stroke="#666666" points="1232,-349 1142,-349 1142,-330 1232,-330 1232,-349"/>
<text text-anchor="middle" x="1187" y="-337" font-family="Helvetica,sans-Serif" font-size="10.00">model/model.hpp</text>
</a>
</g>
</g>
<!-- Node1&#45;&gt;Node11 -->
<g id="edge88" class="edge">
<title>Node1&#45;&gt;Node11</title>
<path fill="none" stroke="#63b8ff" d="M1668.59,-439.57C1573.4,-419.99 1346.47,-373.3 1241.71,-351.76"/>
<polygon fill="#63b8ff" stroke="#63b8ff" points="1242.44,-348.33 1231.94,-349.75 1241.03,-355.19 1242.44,-348.33"/>
</g>
<!-- Node7 -->
<g id="node7" class="node">
<title>Node7</title>
<g id="a_node7"><a xlink:title=" ">
<polygon fill="#e0e0e0" stroke="#999999" points="1827,-74 1773,-74 1773,-55 1827,-55 1827,-74"/>
<text text-anchor="middle" x="1800" y="-62" font-family="Helvetica,sans-Serif" font-size="10.00">iostream</text>
</a>
</g>
</g>
<!-- Node6&#45;&gt;Node7 -->
<g id="edge6" class="edge">
<title>Node6&#45;&gt;Node7</title>
<path fill="none" stroke="#63b8ff" d="M2126.57,-164.58C2108.16,-150.68 2070.32,-124 2034,-110 1968.02,-84.56 1885.77,-73.25 1838.43,-68.54"/>
<polygon fill="#63b8ff" stroke="#63b8ff" points="1838.97,-65.08 1828.69,-67.63 1838.32,-72.05 1838.97,-65.08"/>
</g>
<!-- Node9 -->
<g id="node9" class="node">
<title>Node9</title>
<g id="a_node9"><a xlink:title=" ">
<polygon fill="#e0e0e0" stroke="#999999" points="1938.5,-19 1897.5,-19 1897.5,0 1938.5,0 1938.5,-19"/>
<text text-anchor="middle" x="1918" y="-7" font-family="Helvetica,sans-Serif" font-size="10.00">string</text>
</a>
</g>
</g>
<!-- Node8&#45;&gt;Node9 -->
<g id="edge8" class="edge">
<title>Node8&#45;&gt;Node9</title>
<path fill="none" stroke="#63b8ff" d="M2214,-329.54C2214,-311.03 2214,-267.25 2214,-230.5 2214,-230.5 2214,-230.5 2214,-118.5 2214,-62.81 2026.76,-27.39 1950.12,-15.22"/>
<polygon fill="#63b8ff" stroke="#63b8ff" points="1950.73,-11.77 1940.31,-13.7 1949.66,-18.69 1950.73,-11.77"/>
</g>
<!-- Node10&#45;&gt;Node2 -->
<g id="edge10" class="edge">
<title>Node10&#45;&gt;Node2</title>
<path fill="none" stroke="#63b8ff" d="M799.18,-391.75C659.77,-388.06 363,-377.32 114,-349 113,-348.89 112,-348.77 110.99,-348.64"/>
<polygon fill="#63b8ff" stroke="#63b8ff" points="111.87,-345.23 101.48,-347.31 110.9,-352.16 111.87,-345.23"/>
</g>
<!-- Node10&#45;&gt;Node3 -->
<g id="edge11" class="edge">
<title>Node10&#45;&gt;Node3</title>
<path fill="none" stroke="#63b8ff" d="M799.29,-390.21C625.52,-381.95 218.44,-356.35 97,-294 62.73,-276.4 38,-269.02 38,-230.5 38,-230.5 38,-230.5 38,-173.5 38,-142.92 38,-107.48 38,-85.77"/>
<polygon fill="#63b8ff" stroke="#63b8ff" points="41.5,-85.97 38,-75.97 34.5,-85.97 41.5,-85.97"/>
</g>
<!-- Node10&#45;&gt;Node11 -->
<g id="edge12" class="edge">
<title>Node10&#45;&gt;Node11</title>
<path fill="none" stroke="#63b8ff" d="M931.25,-384.51C986.48,-375 1073.33,-360.06 1130.22,-350.27"/>
<polygon fill="#63b8ff" stroke="#63b8ff" points="1130.78,-353.73 1140.04,-348.58 1129.59,-346.83 1130.78,-353.73"/>
</g>
<!-- Node12 -->
<g id="node12" class="node">
<title>Node12</title>
<g id="a_node12"><a xlink:title=" ">
<polygon fill="#e0e0e0" stroke="#999999" points="1215,-294 1159,-294 1159,-275 1215,-275 1215,-294"/>
<text text-anchor="middle" x="1187" y="-282" font-family="Helvetica,sans-Serif" font-size="10.00">algorithm</text>
</a>
</g>
</g>
<!-- Node11&#45;&gt;Node12 -->
<g id="edge13" class="edge">
<title>Node11&#45;&gt;Node12</title>
<path fill="none" stroke="#63b8ff" d="M1187,-329.75C1187,-323.27 1187,-314.16 1187,-305.9"/>
<polygon fill="#63b8ff" stroke="#63b8ff" points="1190.5,-305.96 1187,-295.96 1183.5,-305.96 1190.5,-305.96"/>
</g>
<!-- Node13 -->
<g id="node13" class="node">
<title>Node13</title>
<g id="a_node13"><a xlink:title=" ">
<polygon fill="#e0e0e0" stroke="#999999" points="1262.5,-294 1233.5,-294 1233.5,-275 1262.5,-275 1262.5,-294"/>
<text text-anchor="middle" x="1248" y="-282" font-family="Helvetica,sans-Serif" font-size="10.00">list</text>
</a>
</g>
</g>
<!-- Node11&#45;&gt;Node13 -->
<g id="edge14" class="edge">
<title>Node11&#45;&gt;Node13</title>
<path fill="none" stroke="#63b8ff" d="M1197.35,-329.51C1206.08,-321.93 1218.79,-310.88 1229.3,-301.75"/>
<polygon fill="#63b8ff" stroke="#63b8ff" points="1231.41,-304.55 1236.66,-295.35 1226.82,-299.27 1231.41,-304.55"/>
</g>
<!-- Node14 -->
<g id="node14" class="node">
<title>Node14</title>
<g id="a_node14"><a xlink:title=" ">
<polygon fill="#e0e0e0" stroke="#999999" points="1331.5,-294 1280.5,-294 1280.5,-275 1331.5,-275 1331.5,-294"/>
<text text-anchor="middle" x="1306" y="-282" font-family="Helvetica,sans-Serif" font-size="10.00">memory</text>
</a>
</g>
</g>
<!-- Node11&#45;&gt;Node14 -->
<g id="edge15" class="edge">
<title>Node11&#45;&gt;Node14</title>
<path fill="none" stroke="#63b8ff" d="M1207.19,-329.51C1226.02,-321.12 1254.37,-308.5 1275.87,-298.92"/>
<polygon fill="#63b8ff" stroke="#63b8ff" points="1277.02,-302.24 1284.73,-294.97 1274.17,-295.85 1277.02,-302.24"/>
</g>
<!-- Node15 -->
<g id="node15" class="node">
<title>Node15</title>
<g id="a_node15"><a xlink:title=" ">
<polygon fill="#e0e0e0" stroke="#999999" points="1385,-19 1341,-19 1341,0 1385,0 1385,-19"/>
<text text-anchor="middle" x="1363" y="-7" font-family="Helvetica,sans-Serif" font-size="10.00">vector</text>
</a>
</g>
</g>
<!-- Node11&#45;&gt;Node15 -->
<g id="edge16" class="edge">
<title>Node11&#45;&gt;Node15</title>
<path fill="none" stroke="#63b8ff" d="M1232.47,-338.09C1374.08,-336.44 1805.8,-328.65 1941,-294 1996.27,-279.84 2026.5,-287.22 2057,-239 2096.07,-177.23 2022.68,-137.61 1955,-110 1928.71,-99.27 1517.93,-34.67 1396.54,-15.72"/>
<polygon fill="#63b8ff" stroke="#63b8ff" points="1397.31,-12.3 1386.89,-14.22 1396.23,-19.21 1397.31,-12.3"/>
</g>
<!-- Node16 -->
<g id="node16" class="node">
<title>Node16</title>
<g id="a_node16"><a xlink:href="sparsesystem_8hpp.html" target="_top" xlink:title="ALGEBRA::SparseSystem source file.">
<polygon fill="white" stroke="#666666" points="1223.5,-129 1086.5,-129 1086.5,-110 1223.5,-110 1223.5,-129"/>
<text text-anchor="middle" x="1155" y="-117" font-family="Helvetica,sans-Serif" font-size="10.00">../algebra/sparsesystem.hpp</text>
</a>
</g>
</g>
<!-- Node11&#45;&gt;Node16 -->
<g id="edge17" class="edge">
<title>Node11&#45;&gt;Node16</title>
<path fill="none" stroke="#63b8ff" d="M1141.77,-338.74C981.85,-339.27 444.7,-337.86 280,-294 227.95,-280.14 200.15,-284.93 172,-239 121.55,-156.69 -169.86,-243.93 510,-165 712.37,-141.5 952.52,-128.79 1074.85,-123.5"/>
<polygon fill="#63b8ff" stroke="#63b8ff" points="1074.96,-127 1084.8,-123.08 1074.66,-120.01 1074.96,-127"/>
</g>
<!-- Node18 -->
<g id="node18" class="node">
<title>Node18</title>
<g id="a_node18"><a xlink:href="bloodvessel_8hpp.html" target="_top" xlink:title="MODEL::BloodVessel source file.">
<polygon fill="white" stroke="#666666" points="1770.5,-239 1647.5,-239 1647.5,-220 1770.5,-220 1770.5,-239"/>
<text text-anchor="middle" x="1709" y="-227" font-family="Helvetica,sans-Serif" font-size="10.00">../model/bloodvessel.hpp</text>
</a>
</g>
</g>
<!-- Node11&#45;&gt;Node18 -->
<g id="edge22" class="edge">
<title>Node11&#45;&gt;Node18</title>
<path fill="none" stroke="#63b8ff" d="M1232.26,-338.53C1363.83,-338.16 1739.26,-333.62 1776,-294 1792.69,-276.01 1765.44,-256.82 1740.85,-244.3"/>
<polygon fill="#63b8ff" stroke="#63b8ff" points="1742.5,-241.21 1731.97,-240.03 1739.46,-247.52 1742.5,-241.21"/>
</g>
<!-- Node20 -->
<g id="node20" class="node">
<title>Node20</title>
<g id="a_node20"><a xlink:href="block_8hpp.html" target="_top" xlink:title="MODEL::Block source file.">
<polygon fill="white" stroke="#666666" points="1402,-184 1344,-184 1344,-165 1402,-165 1402,-184"/>
<text text-anchor="middle" x="1373" y="-172" font-family="Helvetica,sans-Serif" font-size="10.00">block.hpp</text>
</a>
</g>
</g>
<!-- Node11&#45;&gt;Node20 -->
<g id="edge83" class="edge">
<title>Node11&#45;&gt;Node20</title>
<path fill="none" stroke="#63b8ff" d="M1232.48,-330.46C1267.64,-323.35 1317.06,-311.39 1358,-294 1401.15,-275.68 1425.07,-279.89 1448,-239 1460.12,-217.39 1434.34,-199.86 1409.77,-188.73"/>
<polygon fill="#63b8ff" stroke="#63b8ff" points="1411.4,-185.62 1400.82,-184.96 1408.67,-192.07 1411.4,-185.62"/>
</g>
<!-- Node23 -->
<g id="node23" class="node">
<title>Node23</title>
<g id="a_node23"><a xlink:href="dofhandler_8hpp.html" target="_top" xlink:title="MODEL::DOFHandler source file.">
<polygon fill="white" stroke="#666666" points="1316,-74 1236,-74 1236,-55 1316,-55 1316,-74"/>
<text text-anchor="middle" x="1276" y="-62" font-family="Helvetica,sans-Serif" font-size="10.00">dofhandler.hpp</text>
</a>
</g>
</g>
<!-- Node11&#45;&gt;Node23 -->
<g id="edge85" class="edge">
<title>Node11&#45;&gt;Node23</title>
<path fill="none" stroke="#63b8ff" d="M1141.51,-338.71C974.32,-339.12 394.18,-337.31 215,-294 148.98,-278.04 76,-298.42 76,-230.5 76,-230.5 76,-230.5 76,-173.5 76,-114.94 994.59,-76.18 1224.38,-67.4"/>
<polygon fill="#63b8ff" stroke="#63b8ff" points="1224.36,-70.9 1234.22,-67.02 1224.09,-63.91 1224.36,-70.9"/>
</g>
<!-- Node24 -->
<g id="node24" class="node">
<title>Node24</title>
<g id="a_node24"><a xlink:href="node_8hpp.html" target="_top" xlink:title="MODEL::Node source file.">
<polygon fill="white" stroke="#666666" points="1946,-129 1890,-129 1890,-110 1946,-110 1946,-129"/>
<text text-anchor="middle" x="1918" y="-117" font-family="Helvetica,sans-Serif" font-size="10.00">node.hpp</text>
</a>
</g>
</g>
<!-- Node11&#45;&gt;Node24 -->
<g id="edge86" class="edge">
<title>Node11&#45;&gt;Node24</title>
<path fill="none" stroke="#63b8ff" d="M1232.31,-338.91C1340.66,-339.14 1622.95,-335.34 1854,-294 1938.86,-278.82 1988.41,-308.06 2040,-239 2071.99,-196.19 1997.76,-154.68 1951.52,-134.03"/>
<polygon fill="#63b8ff" stroke="#63b8ff" points="1952.97,-130.84 1942.4,-130.08 1950.18,-137.27 1952.97,-130.84"/>
</g>
<!-- Node25 -->
<g id="node25" class="node">
<title>Node25</title>
<g id="a_node25"><a xlink:href="bloodvesseljunction_8hpp.html" target="_top" xlink:title="MODEL::BloodVesselJunction source file.">
<polygon fill="white" stroke="#666666" points="1583.5,-294 1426.5,-294 1426.5,-275 1583.5,-275 1583.5,-294"/>
<text text-anchor="middle" x="1505" y="-282" font-family="Helvetica,sans-Serif" font-size="10.00">../model/bloodvesseljunction.hpp</text>
</a>
</g>
</g>
<!-- Node11&#45;&gt;Node25 -->
<g id="edge37" class="edge">
<title>Node11&#45;&gt;Node25</title>
<path fill="none" stroke="#63b8ff" d="M1232.22,-330.96C1286.54,-321.91 1378.07,-306.66 1439.96,-296.34"/>
<polygon fill="#63b8ff" stroke="#63b8ff" points="1440.38,-299.82 1449.67,-294.72 1439.23,-292.91 1440.38,-299.82"/>
</g>
<!-- Node26 -->
<g id="node26" class="node">
<title>Node26</title>
<g id="a_node26"><a xlink:href="blocktype_8hpp.html" target="_top" xlink:title="MODEL::BlockType source file.">
<polygon fill="white" stroke="#666666" points="1865,-239 1789,-239 1789,-220 1865,-220 1865,-239"/>
<text text-anchor="middle" x="1827" y="-227" font-family="Helvetica,sans-Serif" font-size="10.00">blocktype.hpp</text>
</a>
</g>
</g>
<!-- Node11&#45;&gt;Node26 -->
<g id="edge84" class="edge">
<title>Node11&#45;&gt;Node26</title>
<path fill="none" stroke="#63b8ff" d="M1232.17,-337.64C1364.56,-334.77 1745.23,-323.99 1792,-294 1807.4,-284.13 1816.59,-265 1821.66,-250.31"/>
<polygon fill="#63b8ff" stroke="#63b8ff" points="1825.01,-251.35 1824.56,-240.76 1818.31,-249.31 1825.01,-251.35"/>
</g>
<!-- Node27 -->
<g id="node27" class="node">
<title>Node27</title>
<g id="a_node27"><a xlink:href="closedloop_r_c_rbc_8hpp.html" target="_top" xlink:title="MODEL::ClosedLoopRCRBC source file.">
<polygon fill="white" stroke="#666666" points="1128.5,-239 979.5,-239 979.5,-220 1128.5,-220 1128.5,-239"/>
<text text-anchor="middle" x="1054" y="-227" font-family="Helvetica,sans-Serif" font-size="10.00">../model/closedloopRCRbc.hpp</text>
</a>
</g>
</g>
<!-- Node11&#45;&gt;Node27 -->
<g id="edge42" class="edge">
<title>Node11&#45;&gt;Node27</title>
<path fill="none" stroke="#63b8ff" d="M1167.87,-329.64C1151.59,-321.6 1128.04,-308.77 1110,-294 1093.34,-280.36 1077.42,-261.55 1066.84,-247.94"/>
<polygon fill="#63b8ff" stroke="#63b8ff" points="1069.88,-246.17 1061.06,-240.31 1064.3,-250.39 1069.88,-246.17"/>
</g>
<!-- Node28 -->
<g id="node28" class="node">
<title>Node28</title>
<g id="a_node28"><a xlink:href="closedloopcoronarybc_8hpp.html" target="_top" xlink:title="MODEL::ClosedLoopCoronaryBC source file.">
<polygon fill="white" stroke="#666666" points="1766.5,-294 1601.5,-294 1601.5,-275 1766.5,-275 1766.5,-294"/>
<text text-anchor="middle" x="1684" y="-282" font-family="Helvetica,sans-Serif" font-size="10.00">../model/closedloopcoronarybc.hpp</text>
</a>
</g>
</g>
<!-- Node11&#45;&gt;Node28 -->
<g id="edge45" class="edge">
<title>Node11&#45;&gt;Node28</title>
<path fill="none" stroke="#63b8ff" d="M1232.42,-333.66C1313.11,-325.05 1482.99,-306.94 1589.84,-295.54"/>
<polygon fill="#63b8ff" stroke="#63b8ff" points="1590.19,-299.02 1599.76,-294.48 1589.44,-292.06 1590.19,-299.02"/>
</g>
<!-- Node29 -->
<g id="node29" class="node">
<title>Node29</title>
<g id="a_node29"><a xlink:href="closedloopheartpulmonary_8hpp.html" target="_top" xlink:title="MODEL::ClosedLoopHeartPulmonary source file.">
<polygon fill="white" stroke="#666666" points="2030.5,-239 1883.5,-239 1883.5,-220 2030.5,-220 2030.5,-239"/>
<text text-anchor="middle" x="1957" y="-227" font-family="Helvetica,sans-Serif" font-size="10.00">closedloopheartpulmonary.hpp</text>
</a>
</g>
</g>
<!-- Node11&#45;&gt;Node29 -->
<g id="edge53" class="edge">
<title>Node11&#45;&gt;Node29</title>
<path fill="none" stroke="#63b8ff" d="M1232.35,-337.32C1357.13,-333.73 1703.61,-321.53 1814,-294 1857.28,-283.21 1903.87,-260.14 1931.72,-244.98"/>
<polygon fill="#63b8ff" stroke="#63b8ff" points="1933.4,-248.05 1940.44,-240.14 1930,-241.93 1933.4,-248.05"/>
</g>
<!-- Node30 -->
<g id="node30" class="node">
<title>Node30</title>
<g id="a_node30"><a xlink:href="flowreferencebc_8hpp.html" target="_top" xlink:title="MODEL::FlowReferenceBC source file.">
<polygon fill="white" stroke="#666666" points="838,-239 698,-239 698,-220 838,-220 838,-239"/>
<text text-anchor="middle" x="768" y="-227" font-family="Helvetica,sans-Serif" font-size="10.00">../model/flowreferencebc.hpp</text>
</a>
</g>
</g>
<!-- Node11&#45;&gt;Node30 -->
<g id="edge54" class="edge">
<title>Node11&#45;&gt;Node30</title>
<path fill="none" stroke="#63b8ff" d="M1232.1,-334.69C1288.74,-328.27 1374.56,-312.18 1340,-275 1304.39,-236.7 939.24,-243.17 849.56,-238.91"/>
<polygon fill="#63b8ff" stroke="#63b8ff" points="849.91,-235.43 839.71,-238.28 849.46,-242.41 849.91,-235.43"/>
</g>
<!-- Node31 -->
<g id="node31" class="node">
<title>Node31</title>
<g id="a_node31"><a xlink:href="parameter_8hpp.html" target="_top" xlink:title="MODEL::Parameter source file.">
<polygon fill="white" stroke="#666666" points="731,-184 653,-184 653,-165 731,-165 731,-184"/>
<text text-anchor="middle" x="692" y="-172" font-family="Helvetica,sans-Serif" font-size="10.00">parameter.hpp</text>
</a>
</g>
</g>
<!-- Node11&#45;&gt;Node31 -->
<g id="edge87" class="edge">
<title>Node11&#45;&gt;Node31</title>
<path fill="none" stroke="#63b8ff" d="M1141.6,-337.54C954.81,-333.11 252.5,-311.7 189,-239 183.45,-232.64 183.3,-226.23 189,-220 219.14,-187.07 519.73,-178.37 641.33,-176.19"/>
<polygon fill="#63b8ff" stroke="#63b8ff" points="641.08,-179.7 651.02,-176.02 640.96,-172.7 641.08,-179.7"/>
</g>
<!-- Node33 -->
<g id="node33" class="node">
<title>Node33</title>
<g id="a_node33"><a xlink:href="junction_8hpp.html" target="_top" xlink:title="MODEL::Junction source file.">
<polygon fill="white" stroke="#666666" points="961.5,-239 856.5,-239 856.5,-220 961.5,-220 961.5,-239"/>
<text text-anchor="middle" x="909" y="-227" font-family="Helvetica,sans-Serif" font-size="10.00">../model/junction.hpp</text>
</a>
</g>
</g>
<!-- Node11&#45;&gt;Node33 -->
<g id="edge62" class="edge">
<title>Node11&#45;&gt;Node33</title>
<path fill="none" stroke="#63b8ff" d="M1164.25,-329.66C1115.38,-310.68 1000.15,-265.91 942.74,-243.61"/>
<polygon fill="#63b8ff" stroke="#63b8ff" points="944.06,-240.37 933.48,-240.01 941.53,-246.89 944.06,-240.37"/>
</g>
<!-- Node34 -->
<g id="node34" class="node">
<title>Node34</title>
<g id="a_node34"><a xlink:href="openloopcoronarybc_8hpp.html" target="_top" xlink:title="MODEL::OpenLoopCoronaryBC source file.">
<polygon fill="white" stroke="#666666" points="356,-239 198,-239 198,-220 356,-220 356,-239"/>
<text text-anchor="middle" x="277" y="-227" font-family="Helvetica,sans-Serif" font-size="10.00">../model/openloopcoronarybc.hpp</text>
</a>
</g>
</g>
<!-- Node11&#45;&gt;Node34 -->
<g id="edge65" class="edge">
<title>Node11&#45;&gt;Node34</title>
<path fill="none" stroke="#63b8ff" d="M1141.81,-334.63C1060.51,-327.54 884.26,-311.56 736,-294 598.1,-277.66 437.48,-254.49 347.47,-241.12"/>
<polygon fill="#63b8ff" stroke="#63b8ff" points="348.22,-237.7 337.82,-239.69 347.19,-244.62 348.22,-237.7"/>
</g>
<!-- Node35 -->
<g id="node35" class="node">
<title>Node35</title>
<g id="a_node35"><a xlink:href="pressurereferencebc_8hpp.html" target="_top" xlink:title="MODEL::PressureReferenceBC source file.">
<polygon fill="white" stroke="#666666" points="534,-239 374,-239 374,-220 534,-220 534,-239"/>
<text text-anchor="middle" x="454" y="-227" font-family="Helvetica,sans-Serif" font-size="10.00">../model/pressurereferencebc.hpp</text>
</a>
</g>
</g>
<!-- Node11&#45;&gt;Node35 -->
<g id="edge69" class="edge">
<title>Node11&#45;&gt;Node35</title>
<path fill="none" stroke="#63b8ff" d="M1141.76,-332.51C1079.27,-324.18 963,-308.48 864,-294 743.01,-276.3 602.18,-254.15 521.04,-241.24"/>
<polygon fill="#63b8ff" stroke="#63b8ff" points="521.91,-237.83 511.49,-239.71 520.81,-244.74 521.91,-237.83"/>
</g>
<!-- Node36 -->
<g id="node36" class="node">
<title>Node36</title>
<g id="a_node36"><a xlink:href="resistancebc_8hpp.html" target="_top" xlink:title="MODEL::ResistanceBC source file.">
<polygon fill="white" stroke="#666666" points="679.5,-239 552.5,-239 552.5,-220 679.5,-220 679.5,-239"/>
<text text-anchor="middle" x="616" y="-227" font-family="Helvetica,sans-Serif" font-size="10.00">../model/resistancebc.hpp</text>
</a>
</g>
</g>
<!-- Node11&#45;&gt;Node36 -->
<g id="edge73" class="edge">
<title>Node11&#45;&gt;Node36</title>
<path fill="none" stroke="#63b8ff" d="M1141.72,-329.94C1039.07,-310.52 788.78,-263.18 674.56,-241.58"/>
<polygon fill="#63b8ff" stroke="#63b8ff" points="675.25,-238.14 664.77,-239.72 673.95,-245.02 675.25,-238.14"/>
</g>
<!-- Node37 -->
<g id="node37" class="node">
<title>Node37</title>
<g id="a_node37"><a xlink:href="resistivejunction_8hpp.html" target="_top" xlink:title="MODEL::ResistiveJunction source file.">
<polygon fill="white" stroke="#666666" points="1289,-239 1147,-239 1147,-220 1289,-220 1289,-239"/>
<text text-anchor="middle" x="1218" y="-227" font-family="Helvetica,sans-Serif" font-size="10.00">../model/resistivejunction.hpp</text>
</a>
</g>
</g>
<!-- Node11&#45;&gt;Node37 -->
<g id="edge77" class="edge">
<title>Node11&#45;&gt;Node37</title>
<path fill="none" stroke="#63b8ff" d="M1162.99,-329.53C1137.21,-318.46 1101.85,-298.23 1117,-275 1126.88,-259.85 1143.21,-249.82 1159.89,-243.2"/>
<polygon fill="#63b8ff" stroke="#63b8ff" points="1160.59,-246.66 1168.84,-240.01 1158.24,-240.07 1160.59,-246.66"/>
</g>
<!-- Node38 -->
<g id="node38" class="node">
<title>Node38</title>
<g id="a_node38"><a xlink:href="windkesselbc_8hpp.html" target="_top" xlink:title="MODEL::WindkesselBC source file.">
<polygon fill="white" stroke="#666666" points="1438.5,-239 1307.5,-239 1307.5,-220 1438.5,-220 1438.5,-239"/>
<text text-anchor="middle" x="1373" y="-227" font-family="Helvetica,sans-Serif" font-size="10.00">../model/windkesselbc.hpp</text>
</a>
</g>
</g>
<!-- Node11&#45;&gt;Node38 -->
<g id="edge80" class="edge">
<title>Node11&#45;&gt;Node38</title>
<path fill="none" stroke="#63b8ff" d="M1175.04,-329.51C1159.38,-316.67 1135.52,-292.66 1150,-275 1159.46,-263.47 1235.43,-250.05 1296.11,-240.98"/>
<polygon fill="#63b8ff" stroke="#63b8ff" points="1296.37,-244.49 1305.75,-239.57 1295.35,-237.56 1296.37,-244.49"/>
</g>
<!-- Node16&#45;&gt;Node3 -->
<g id="edge18" class="edge">
<title>Node16&#45;&gt;Node3</title>
<path fill="none" stroke="#63b8ff" d="M1086.39,-115.24C879.46,-105.43 264.83,-76.26 86.82,-67.82"/>
<polygon fill="#63b8ff" stroke="#63b8ff" points="87.16,-64.33 77,-67.35 86.82,-71.32 87.16,-64.33"/>
</g>
<!-- Node16&#45;&gt;Node7 -->
<g id="edge20" class="edge">
<title>Node16&#45;&gt;Node7</title>
<path fill="none" stroke="#63b8ff" d="M1223.72,-112.85C1358.9,-101.75 1655.43,-77.38 1761.4,-68.67"/>
<polygon fill="#63b8ff" stroke="#63b8ff" points="1761.6,-72.17 1771.28,-67.86 1761.03,-65.19 1761.6,-72.17"/>
</g>
<!-- Node16&#45;&gt;Node11 -->
<g id="edge21" class="edge">
<title>Node16&#45;&gt;Node11</title>
<path fill="none" stroke="#63b8ff" d="M1086.04,-123.51C970.35,-128.8 730.3,-141.51 528,-165 -151.86,-243.93 139.55,-156.69 190,-239 218.15,-284.93 245.95,-280.14 298,-294 456.52,-336.22 960.09,-339.11 1130.27,-338.79"/>
<polygon fill="#63b8ff" stroke="#63b8ff" points="1130.19,-342.29 1140.18,-338.77 1130.18,-335.29 1130.19,-342.29"/>
</g>
<!-- Node17 -->
<g id="node17" class="node">
<title>Node17</title>
<g id="a_node17"><a xlink:title=" ">
<polygon fill="#e0e0e0" stroke="#999999" points="1422,-74 1334,-74 1334,-55 1422,-55 1422,-74"/>
<text text-anchor="middle" x="1378" y="-62" font-family="Helvetica,sans-Serif" font-size="10.00">Eigen/SparseLU</text>
</a>
</g>
</g>
<!-- Node16&#45;&gt;Node17 -->
<g id="edge19" class="edge">
<title>Node16&#45;&gt;Node17</title>
<path fill="none" stroke="#63b8ff" d="M1192.83,-109.51C1230.43,-100.57 1288.25,-86.83 1329.27,-77.08"/>
<polygon fill="#63b8ff" stroke="#63b8ff" points="1329.97,-80.51 1338.89,-74.8 1328.35,-73.7 1329.97,-80.51"/>
</g>
<!-- Node18&#45;&gt;Node16 -->
<g id="edge24" class="edge">
<title>Node18&#45;&gt;Node16</title>
<path fill="none" stroke="#63b8ff" d="M1701.68,-219.61C1689.27,-205.24 1662.52,-177.29 1633,-165 1563.19,-135.94 1352.19,-125.72 1235.22,-122.23"/>
<polygon fill="#63b8ff" stroke="#63b8ff" points="1235.47,-118.74 1225.37,-121.95 1235.27,-125.73 1235.47,-118.74"/>
</g>
<!-- Node19 -->
<g id="node19" class="node">
<title>Node19</title>
<g id="a_node19"><a xlink:title=" ">
<polygon fill="#e0e0e0" stroke="#999999" points="1756,-129 1710,-129 1710,-110 1756,-110 1756,-129"/>
<text text-anchor="middle" x="1733" y="-117" font-family="Helvetica,sans-Serif" font-size="10.00">math.h</text>
</a>
</g>
</g>
<!-- Node18&#45;&gt;Node19 -->
<g id="edge23" class="edge">
<title>Node18&#45;&gt;Node19</title>
<path fill="none" stroke="#63b8ff" d="M1710.96,-219.66C1714.78,-202.5 1723.28,-164.26 1728.53,-140.6"/>
<polygon fill="#63b8ff" stroke="#63b8ff" points="1731.93,-141.46 1730.68,-130.94 1725.09,-139.94 1731.93,-141.46"/>
</g>
<!-- Node18&#45;&gt;Node20 -->
<g id="edge25" class="edge">
<title>Node18&#45;&gt;Node20</title>
<path fill="none" stroke="#63b8ff" d="M1652,-219.51C1584.25,-208.82 1472.89,-191.26 1413.42,-181.88"/>
<polygon fill="#63b8ff" stroke="#63b8ff" points="1414.16,-178.45 1403.74,-180.35 1413.07,-185.36 1414.16,-178.45"/>
</g>
<!-- Node20&#45;&gt;Node15 -->
<g id="edge27" class="edge">
<title>Node20&#45;&gt;Node15</title>
<path fill="none" stroke="#63b8ff" d="M1383.24,-164.75C1405.13,-144.96 1452.79,-95.3 1431,-55 1423.35,-40.86 1409.04,-30.49 1395.51,-23.34"/>
<polygon fill="#63b8ff" stroke="#63b8ff" points="1397.33,-20.33 1386.81,-19.14 1394.29,-26.63 1397.33,-20.33"/>
</g>
<!-- Node20&#45;&gt;Node16 -->
<g id="edge28" class="edge">
<title>Node20&#45;&gt;Node16</title>
<path fill="none" stroke="#63b8ff" d="M1343.6,-166.35C1307.54,-157.59 1245.92,-142.61 1202.97,-132.16"/>
<polygon fill="#63b8ff" stroke="#63b8ff" points="1203.95,-128.8 1193.4,-129.84 1202.29,-135.6 1203.95,-128.8"/>
</g>
<!-- Node21 -->
<g id="node21" class="node">
<title>Node21</title>
<g id="a_node21"><a xlink:title=" ">
<polygon fill="#e0e0e0" stroke="#999999" points="1617.5,-19 1582.5,-19 1582.5,0 1617.5,0 1617.5,-19"/>
<text text-anchor="middle" x="1600" y="-7" font-family="Helvetica,sans-Serif" font-size="10.00">map</text>
</a>
</g>
</g>
<!-- Node20&#45;&gt;Node21 -->
<g id="edge26" class="edge">
<title>Node20&#45;&gt;Node21</title>
<path fill="none" stroke="#63b8ff" d="M1385.58,-164.67C1398.32,-155.72 1418.57,-141.45 1436,-129 1487.32,-92.33 1547.34,-48.8 1578.6,-26.08"/>
<polygon fill="#63b8ff" stroke="#63b8ff" points="1580.44,-29.07 1586.46,-20.35 1576.32,-23.41 1580.44,-29.07"/>
</g>
<!-- Node22 -->
<g id="node22" class="node">
<title>Node22</title>
<g id="a_node22"><a xlink:href="state_8hpp.html" target="_top" xlink:title="ALGEBRA::State source file.">
<polygon fill="white" stroke="#666666" points="1872,-129 1774,-129 1774,-110 1872,-110 1872,-129"/>
<text text-anchor="middle" x="1823" y="-117" font-family="Helvetica,sans-Serif" font-size="10.00">../algebra/state.hpp</text>
</a>
</g>
</g>
<!-- Node20&#45;&gt;Node22 -->
<g id="edge29" class="edge">
<title>Node20&#45;&gt;Node22</title>
<path fill="none" stroke="#63b8ff" d="M1402.05,-170.53C1465.47,-163.97 1621.31,-147.48 1762.64,-129.27"/>
<polygon fill="#63b8ff" stroke="#63b8ff" points="1762.69,-132.79 1772.15,-128.04 1761.79,-125.85 1762.69,-132.79"/>
</g>
<!-- Node20&#45;&gt;Node23 -->
<g id="edge30" class="edge">
<title>Node20&#45;&gt;Node23</title>
<path fill="none" stroke="#63b8ff" d="M1365.06,-164.66C1349,-146.78 1312.42,-106.05 1291.48,-82.73"/>
<polygon fill="#63b8ff" stroke="#63b8ff" points="1294.34,-80.69 1285.06,-75.59 1289.14,-85.36 1294.34,-80.69"/>
</g>
<!-- Node20&#45;&gt;Node24 -->
<g id="edge34" class="edge">
<title>Node20&#45;&gt;Node24</title>
<path fill="none" stroke="#63b8ff" d="M1402.38,-172.35C1479.1,-169.05 1691.89,-157.96 1878.67,-129.15"/>
<polygon fill="#63b8ff" stroke="#63b8ff" points="1878.96,-132.64 1888.3,-127.64 1877.88,-125.73 1878.96,-132.64"/>
</g>
<!-- Node23&#45;&gt;Node9 -->
<g id="edge32" class="edge">
<title>Node23&#45;&gt;Node9</title>
<path fill="none" stroke="#63b8ff" d="M1316.33,-56.19C1319.26,-55.75 1322.17,-55.35 1325,-55 1538.08,-28.59 1796.31,-15.72 1885.71,-11.82"/>
<polygon fill="#63b8ff" stroke="#63b8ff" points="1885.83,-15.32 1895.67,-11.4 1885.53,-8.33 1885.83,-15.32"/>
</g>
<!-- Node23&#45;&gt;Node15 -->
<g id="edge33" class="edge">
<title>Node23&#45;&gt;Node15</title>
<path fill="none" stroke="#63b8ff" d="M1290.76,-54.51C1303.96,-46.47 1323.56,-34.53 1339.01,-25.11"/>
<polygon fill="#63b8ff" stroke="#63b8ff" points="1340.45,-28.34 1347.17,-20.15 1336.81,-22.36 1340.45,-28.34"/>
</g>
<!-- Node23&#45;&gt;Node21 -->
<g id="edge31" class="edge">
<title>Node23&#45;&gt;Node21</title>
<path fill="none" stroke="#63b8ff" d="M1316.37,-56.46C1319.29,-55.96 1322.19,-55.47 1325,-55 1414.67,-39.97 1520.95,-23.01 1571.08,-15.07"/>
<polygon fill="#63b8ff" stroke="#63b8ff" points="1571.47,-18.55 1580.8,-13.53 1570.37,-11.64 1571.47,-18.55"/>
</g>
<!-- Node24&#45;&gt;Node9 -->
<g id="edge35" class="edge">
<title>Node24&#45;&gt;Node9</title>
<path fill="none" stroke="#63b8ff" d="M1918,-109.66C1918,-92.57 1918,-54.61 1918,-30.92"/>
<polygon fill="#63b8ff" stroke="#63b8ff" points="1921.5,-30.97 1918,-20.97 1914.5,-30.97 1921.5,-30.97"/>
</g>
<!-- Node24&#45;&gt;Node23 -->
<g id="edge36" class="edge">
<title>Node24&#45;&gt;Node23</title>
<path fill="none" stroke="#63b8ff" d="M1889.81,-111.53C1886.85,-110.95 1883.87,-110.42 1881,-110 1639.69,-74.7 1572.91,-102.34 1327.76,-74.19"/>
<polygon fill="#63b8ff" stroke="#63b8ff" points="1328.17,-70.71 1317.83,-73.02 1327.36,-77.66 1328.17,-70.71"/>
</g>
<!-- Node25&#45;&gt;Node16 -->
<g id="edge38" class="edge">
<title>Node25&#45;&gt;Node16</title>
<path fill="none" stroke="#63b8ff" d="M1506.87,-274.54C1509.07,-261.5 1511.27,-237.03 1501,-220 1476.79,-179.85 1454.87,-181.53 1411,-165 1354.39,-143.67 1286.84,-132.48 1235.34,-126.65"/>
<polygon fill="#63b8ff" stroke="#63b8ff" points="1235.77,-123.18 1225.45,-125.58 1235.02,-130.14 1235.77,-123.18"/>
</g>
<!-- Node25&#45;&gt;Node18 -->
<g id="edge41" class="edge">
<title>Node25&#45;&gt;Node18</title>
<path fill="none" stroke="#63b8ff" d="M1539.61,-274.51C1573.71,-265.65 1625.99,-252.07 1663.45,-242.33"/>
<polygon fill="#63b8ff" stroke="#63b8ff" points="1664.3,-245.73 1673.1,-239.83 1662.54,-238.95 1664.3,-245.73"/>
</g>
<!-- Node25&#45;&gt;Node20 -->
<g id="edge39" class="edge">
<title>Node25&#45;&gt;Node20</title>
<path fill="none" stroke="#63b8ff" d="M1503.89,-274.51C1501.77,-260.99 1495.94,-235.39 1481,-220 1462.87,-201.33 1435.78,-190.2 1413.27,-183.73"/>
<polygon fill="#63b8ff" stroke="#63b8ff" points="1414.34,-180.4 1403.78,-181.23 1412.56,-187.17 1414.34,-180.4"/>
</g>
<!-- Node25&#45;&gt;Node26 -->
<g id="edge40" class="edge">
<title>Node25&#45;&gt;Node26</title>
<path fill="none" stroke="#63b8ff" d="M1562.46,-274.52C1615.63,-266.14 1697.19,-253.1 1777.25,-239.45"/>
<polygon fill="#63b8ff" stroke="#63b8ff" points="1777.78,-242.91 1787.04,-237.77 1776.6,-236.01 1777.78,-242.91"/>
</g>
<!-- Node27&#45;&gt;Node16 -->
<g id="edge43" class="edge">
<title>Node27&#45;&gt;Node16</title>
<path fill="none" stroke="#63b8ff" d="M1062.64,-219.71C1071.38,-210.78 1085.23,-196.53 1097,-184 1111.64,-168.41 1128.06,-150.39 1139.68,-137.54"/>
<polygon fill="#63b8ff" stroke="#63b8ff" points="1142.08,-140.09 1146.18,-130.32 1136.89,-135.4 1142.08,-140.09"/>
</g>
<!-- Node27&#45;&gt;Node20 -->
<g id="edge44" class="edge">
<title>Node27&#45;&gt;Node20</title>
<path fill="none" stroke="#63b8ff" d="M1108.11,-219.51C1171.64,-208.95 1275.54,-191.69 1332.5,-182.23"/>
<polygon fill="#63b8ff" stroke="#63b8ff" points="1332.79,-185.73 1342.08,-180.64 1331.64,-178.82 1332.79,-185.73"/>
</g>
<!-- Node28&#45;&gt;Node16 -->
<g id="edge46" class="edge">
<title>Node28&#45;&gt;Node16</title>
<path fill="none" stroke="#63b8ff" d="M1670.49,-274.64C1635.71,-252.29 1539.6,-193.37 1451,-165 1379.98,-142.26 1295.57,-131.03 1235.1,-125.55"/>
<polygon fill="#63b8ff" stroke="#63b8ff" points="1235.49,-122.08 1225.22,-124.7 1234.88,-129.05 1235.49,-122.08"/>
</g>
<!-- Node28&#45;&gt;Node20 -->
<g id="edge47" class="edge">
<title>Node28&#45;&gt;Node20</title>
<path fill="none" stroke="#63b8ff" d="M1658.28,-274.57C1603.1,-255.4 1473.15,-210.28 1409.47,-188.16"/>
<polygon fill="#63b8ff" stroke="#63b8ff" points="1410.77,-184.91 1400.17,-184.94 1408.47,-191.52 1410.77,-184.91"/>
</g>
<!-- Node28&#45;&gt;Node29 -->
<g id="edge48" class="edge">
<title>Node28&#45;&gt;Node29</title>
<path fill="none" stroke="#63b8ff" d="M1730.31,-274.51C1777.12,-265.42 1849.55,-251.36 1899.9,-241.59"/>
<polygon fill="#63b8ff" stroke="#63b8ff" points="1900.28,-245.08 1909.43,-239.73 1898.95,-238.2 1900.28,-245.08"/>
</g>
<!-- Node29&#45;&gt;Node16 -->
<g id="edge50" class="edge">
<title>Node29&#45;&gt;Node16</title>
<path fill="none" stroke="#63b8ff" d="M1922.29,-219.56C1867.41,-205.75 1757.06,-179.35 1662,-165 1512.04,-142.37 1335.26,-130.08 1235.04,-124.44"/>
<polygon fill="#63b8ff" stroke="#63b8ff" points="1235.48,-120.96 1225.31,-123.9 1235.1,-127.95 1235.48,-120.96"/>
</g>
<!-- Node29&#45;&gt;Node19 -->
<g id="edge49" class="edge">
<title>Node29&#45;&gt;Node19</title>
<path fill="none" stroke="#63b8ff" d="M1938.67,-219.66C1899.78,-200.91 1808.76,-157.03 1761.94,-134.45"/>
<polygon fill="#63b8ff" stroke="#63b8ff" points="1763.48,-131.31 1752.95,-130.12 1760.44,-137.61 1763.48,-131.31"/>
</g>
<!-- Node29&#45;&gt;Node20 -->
<g id="edge52" class="edge">
<title>Node29&#45;&gt;Node20</title>
<path fill="none" stroke="#63b8ff" d="M1883.24,-220.89C1880.12,-220.59 1877.03,-220.29 1874,-220 1702.98,-203.65 1498.91,-186.15 1413.61,-178.92"/>
<polygon fill="#63b8ff" stroke="#63b8ff" points="1414.14,-175.45 1403.89,-178.1 1413.55,-182.43 1414.14,-175.45"/>
</g>
<!-- Node29&#45;&gt;Node22 -->
<g id="edge51" class="edge">
<title>Node29&#45;&gt;Node22</title>
<path fill="none" stroke="#63b8ff" d="M1946.03,-219.66C1923.46,-201.47 1871.51,-159.6 1842.86,-136.51"/>
<polygon fill="#63b8ff" stroke="#63b8ff" points="1845.28,-133.96 1835.3,-130.41 1840.89,-139.41 1845.28,-133.96"/>
</g>
<!-- Node30&#45;&gt;Node16 -->
<g id="edge55" class="edge">
<title>Node30&#45;&gt;Node16</title>
<path fill="none" stroke="#63b8ff" d="M807.36,-219.52C844.14,-210.96 900.5,-197.42 949,-184 1008.01,-167.66 1075.74,-146.27 1116.94,-132.96"/>
<polygon fill="#63b8ff" stroke="#63b8ff" points="1117.95,-136.31 1126.38,-129.9 1115.79,-129.65 1117.95,-136.31"/>
</g>
<!-- Node30&#45;&gt;Node20 -->
<g id="edge56" class="edge">
<title>Node30&#45;&gt;Node20</title>
<path fill="none" stroke="#63b8ff" d="M838.2,-220.86C841.17,-220.57 844.12,-220.28 847,-220 1027.76,-202.63 1243.81,-185.49 1332.24,-178.63"/>
<polygon fill="#63b8ff" stroke="#63b8ff" points="1332.4,-182.13 1342.1,-177.87 1331.86,-175.15 1332.4,-182.13"/>
</g>
<!-- Node30&#45;&gt;Node31 -->
<g id="edge57" class="edge">
<title>Node30&#45;&gt;Node31</title>
<path fill="none" stroke="#63b8ff" d="M755.11,-219.51C743.9,-211.7 727.43,-200.21 714.12,-190.93"/>
<polygon fill="#63b8ff" stroke="#63b8ff" points="716.15,-188.07 705.94,-185.22 712.14,-193.81 716.15,-188.07"/>
</g>
<!-- Node31&#45;&gt;Node15 -->
<g id="edge60" class="edge">
<title>Node31&#45;&gt;Node15</title>
<path fill="none" stroke="#63b8ff" d="M727.31,-164.55C776.34,-152.14 867.84,-129.09 946,-110 1088.8,-75.11 1259.46,-34.83 1330,-18.25"/>
<polygon fill="#63b8ff" stroke="#63b8ff" points="1330.42,-21.74 1339.36,-16.05 1328.82,-14.93 1330.42,-21.74"/>
</g>
<!-- Node31&#45;&gt;Node19 -->
<g id="edge58" class="edge">
<title>Node31&#45;&gt;Node19</title>
<path fill="none" stroke="#63b8ff" d="M731.22,-171.5C897.39,-163.04 1541.99,-130.22 1698.58,-122.25"/>
<polygon fill="#63b8ff" stroke="#63b8ff" points="1698.49,-125.76 1708.3,-121.76 1698.13,-118.77 1698.49,-125.76"/>
</g>
<!-- Node31&#45;&gt;Node23 -->
<g id="edge61" class="edge">
<title>Node31&#45;&gt;Node23</title>
<path fill="none" stroke="#63b8ff" d="M731.22,-166.25C833.71,-147.29 1109.5,-96.29 1224.52,-75.02"/>
<polygon fill="#63b8ff" stroke="#63b8ff" points="1225.1,-78.47 1234.3,-73.21 1223.83,-71.59 1225.1,-78.47"/>
</g>
<!-- Node32 -->
<g id="node32" class="node">
<title>Node32</title>
<g id="a_node32"><a xlink:title=" ">
<polygon fill="#e0e0e0" stroke="#999999" points="717.5,-129 666.5,-129 666.5,-110 717.5,-110 717.5,-129"/>
<text text-anchor="middle" x="692" y="-117" font-family="Helvetica,sans-Serif" font-size="10.00">numeric</text>
</a>
</g>
</g>
<!-- Node31&#45;&gt;Node32 -->
<g id="edge59" class="edge">
<title>Node31&#45;&gt;Node32</title>
<path fill="none" stroke="#63b8ff" d="M692,-164.75C692,-158.27 692,-149.16 692,-140.9"/>
<polygon fill="#63b8ff" stroke="#63b8ff" points="695.5,-140.96 692,-130.96 688.5,-140.96 695.5,-140.96"/>
</g>
<!-- Node33&#45;&gt;Node16 -->
<g id="edge63" class="edge">
<title>Node33&#45;&gt;Node16</title>
<path fill="none" stroke="#63b8ff" d="M938.24,-219.52C964.09,-211.28 1002.6,-198.2 1035,-184 1068.85,-169.16 1106.25,-148.68 1130.15,-135.03"/>
<polygon fill="#63b8ff" stroke="#63b8ff" points="1131.59,-138.24 1138.51,-130.22 1128.1,-132.18 1131.59,-138.24"/>
</g>
<!-- Node33&#45;&gt;Node20 -->
<g id="edge64" class="edge">
<title>Node33&#45;&gt;Node20</title>
<path fill="none" stroke="#63b8ff" d="M961.89,-221.04C964.63,-220.68 967.35,-220.33 970,-220 1102.33,-203.48 1259.51,-187.04 1332.29,-179.61"/>
<polygon fill="#63b8ff" stroke="#63b8ff" points="1332.54,-183.1 1342.13,-178.61 1331.83,-176.14 1332.54,-183.1"/>
</g>
<!-- Node34&#45;&gt;Node16 -->
<g id="edge66" class="edge">
<title>Node34&#45;&gt;Node16</title>
<path fill="none" stroke="#63b8ff" d="M321.73,-219.5C390.66,-205.92 527.13,-180.17 644,-165 795.78,-145.3 974.1,-131.99 1074.9,-125.37"/>
<polygon fill="#63b8ff" stroke="#63b8ff" points="1074.94,-128.88 1084.69,-124.74 1074.48,-121.89 1074.94,-128.88"/>
</g>
<!-- Node34&#45;&gt;Node20 -->
<g id="edge67" class="edge">
<title>Node34&#45;&gt;Node20</title>
<path fill="none" stroke="#63b8ff" d="M356.14,-220.66C359.13,-220.43 362.09,-220.2 365,-220 740.66,-193.58 1196.25,-180.15 1332.6,-176.53"/>
<polygon fill="#63b8ff" stroke="#63b8ff" points="1332.28,-180.04 1342.18,-176.27 1332.09,-173.04 1332.28,-180.04"/>
</g>
<!-- Node34&#45;&gt;Node31 -->
<g id="edge68" class="edge">
<title>Node34&#45;&gt;Node31</title>
<path fill="none" stroke="#63b8ff" d="M347.4,-219.51C430.81,-208.86 567.73,-191.37 641.36,-181.97"/>
<polygon fill="#63b8ff" stroke="#63b8ff" points="641.64,-185.46 651.12,-180.72 640.75,-178.52 641.64,-185.46"/>
</g>
<!-- Node35&#45;&gt;Node16 -->
<g id="edge70" class="edge">
<title>Node35&#45;&gt;Node16</title>
<path fill="none" stroke="#63b8ff" d="M513.48,-219.54C571.36,-210.75 661.78,-196.84 740,-184 788.96,-175.96 801,-172.8 850,-165 927.86,-152.6 1017.12,-139.73 1078.87,-131.04"/>
<polygon fill="#63b8ff" stroke="#63b8ff" points="1079.16,-134.54 1088.57,-129.68 1078.18,-127.61 1079.16,-134.54"/>
</g>
<!-- Node35&#45;&gt;Node20 -->
<g id="edge71" class="edge">
<title>Node35&#45;&gt;Node20</title>
<path fill="none" stroke="#63b8ff" d="M534.04,-220.7C537.06,-220.45 540.06,-220.22 543,-220 845.91,-197.43 1211.83,-181.89 1332.35,-177.08"/>
<polygon fill="#63b8ff" stroke="#63b8ff" points="1332.2,-180.59 1342.05,-176.69 1331.92,-173.59 1332.2,-180.59"/>
</g>
<!-- Node35&#45;&gt;Node31 -->
<g id="edge72" class="edge">
<title>Node35&#45;&gt;Node31</title>
<path fill="none" stroke="#63b8ff" d="M494.37,-219.51C535,-210.46 597.76,-196.49 641.62,-186.72"/>
<polygon fill="#63b8ff" stroke="#63b8ff" points="642.14,-190.19 651.14,-184.6 640.62,-183.36 642.14,-190.19"/>
</g>
<!-- Node36&#45;&gt;Node16 -->
<g id="edge74" class="edge">
<title>Node36&#45;&gt;Node16</title>
<path fill="none" stroke="#63b8ff" d="M660.57,-219.57C758.4,-199.97 991.75,-153.21 1099.15,-131.69"/>
<polygon fill="#63b8ff" stroke="#63b8ff" points="1099.78,-135.13 1108.9,-129.74 1098.4,-128.27 1099.78,-135.13"/>
</g>
<!-- Node36&#45;&gt;Node20 -->
<g id="edge75" class="edge">
<title>Node36&#45;&gt;Node20</title>
<path fill="none" stroke="#63b8ff" d="M679.68,-220.89C682.83,-220.58 685.95,-220.28 689,-220 932.64,-197.9 1226.07,-182.6 1332.2,-177.43"/>
<polygon fill="#63b8ff" stroke="#63b8ff" points="1332.29,-180.93 1342.11,-176.95 1331.96,-173.94 1332.29,-180.93"/>
</g>
<!-- Node36&#45;&gt;Node31 -->
<g id="edge76" class="edge">
<title>Node36&#45;&gt;Node31</title>
<path fill="none" stroke="#63b8ff" d="M628.89,-219.51C640.1,-211.7 656.57,-200.21 669.88,-190.93"/>
<polygon fill="#63b8ff" stroke="#63b8ff" points="671.86,-193.81 678.06,-185.22 667.85,-188.07 671.86,-193.81"/>
</g>
<!-- Node37&#45;&gt;Node16 -->
<g id="edge78" class="edge">
<title>Node37&#45;&gt;Node16</title>
<path fill="none" stroke="#63b8ff" d="M1212.84,-219.66C1202.65,-202.18 1179.7,-162.84 1165.97,-139.3"/>
<polygon fill="#63b8ff" stroke="#63b8ff" points="1169.05,-137.64 1160.99,-130.77 1163,-141.17 1169.05,-137.64"/>
</g>
<!-- Node37&#45;&gt;Node20 -->
<g id="edge79" class="edge">
<title>Node37&#45;&gt;Node20</title>
<path fill="none" stroke="#63b8ff" d="M1244.29,-219.51C1269.53,-210.88 1307.89,-197.76 1336.16,-188.1"/>
<polygon fill="#63b8ff" stroke="#63b8ff" points="1337.07,-191.48 1345.4,-184.94 1334.81,-184.86 1337.07,-191.48"/>
</g>
<!-- Node38&#45;&gt;Node16 -->
<g id="edge81" class="edge">
<title>Node38&#45;&gt;Node16</title>
<path fill="none" stroke="#63b8ff" d="M1355.16,-219.66C1317.32,-200.91 1228.73,-157.03 1183.17,-134.45"/>
<polygon fill="#63b8ff" stroke="#63b8ff" points="1184.96,-131.44 1174.44,-130.13 1181.85,-137.71 1184.96,-131.44"/>
</g>
<!-- Node38&#45;&gt;Node20 -->
<g id="edge82" class="edge">
<title>Node38&#45;&gt;Node20</title>
<path fill="none" stroke="#63b8ff" d="M1373,-219.75C1373,-213.27 1373,-204.16 1373,-195.9"/>
<polygon fill="#63b8ff" stroke="#63b8ff" points="1376.5,-195.96 1373,-185.96 1369.5,-195.96 1376.5,-195.96"/>
</g>
</g>
</svg>
