<?xml version="1.0" encoding="UTF-8" standalone="no"?>
<!DOCTYPE svg PUBLIC "-//W3C//DTD SVG 1.1//EN"
 "http://www.w3.org/Graphics/SVG/1.1/DTD/svg11.dtd">
<!-- Generated by graphviz version 7.0.5 (20221223.1930)
 -->
<!-- Title: optimize/calibrate.h Pages: 1 -->
<svg width="2010pt" height="357pt"
 viewBox="0.00 0.00 2009.50 357.00" xmlns="http://www.w3.org/2000/svg" xmlns:xlink="http://www.w3.org/1999/xlink">
<g id="graph0" class="graph" transform="scale(1 1) rotate(0) translate(4 353)">
<title>optimize/calibrate.h</title>
<!-- Node1 -->
<g id="node1" class="node">
<title>Node1</title>
<g id="a_node1"><a xlink:title="opt::calibrate source file">
<polygon fill="#999999" stroke="#666666" points="888.5,-349 788.5,-349 788.5,-330 888.5,-330 888.5,-349"/>
<text text-anchor="middle" x="838.5" y="-337" font-family="Helvetica,sans-Serif" font-size="10.00">optimize/calibrate.h</text>
</a>
</g>
</g>
<!-- Node2 -->
<g id="node2" class="node">
<title>Node2</title>
<g id="a_node2"><a xlink:title=" ">
<polygon fill="#e0e0e0" stroke="#999999" points="71,-294 0,-294 0,-275 71,-275 71,-294"/>
<text text-anchor="middle" x="35.5" y="-282" font-family="Helvetica,sans-Serif" font-size="10.00">Eigen/Dense</text>
</a>
</g>
</g>
<!-- Node1&#45;&gt;Node2 -->
<g id="edge1" class="edge">
<title>Node1&#45;&gt;Node2</title>
<path fill="none" stroke="#63b8ff" d="M788.11,-337.42C666.78,-334.42 348.98,-324.09 85.5,-294 84.5,-293.89 83.5,-293.77 82.49,-293.64"/>
<polygon fill="#63b8ff" stroke="#63b8ff" points="83.37,-290.23 72.98,-292.31 82.4,-297.16 83.37,-290.23"/>
</g>
<!-- Node3 -->
<g id="node3" class="node">
<title>Node3</title>
<g id="a_node3"><a xlink:title=" ">
<polygon fill="#e0e0e0" stroke="#999999" points="195.5,-19 121.5,-19 121.5,0 195.5,0 195.5,-19"/>
<text text-anchor="middle" x="158.5" y="-7" font-family="Helvetica,sans-Serif" font-size="10.00">Eigen/Sparse</text>
</a>
</g>
</g>
<!-- Node1&#45;&gt;Node3 -->
<g id="edge2" class="edge">
<title>Node1&#45;&gt;Node3</title>
<path fill="none" stroke="#63b8ff" d="M788.29,-336.47C621.96,-329.07 99.5,-300.27 99.5,-230.5 99.5,-230.5 99.5,-230.5 99.5,-118.5 99.5,-82.9 124.49,-47.89 141.94,-27.79"/>
<polygon fill="#63b8ff" stroke="#63b8ff" points="144.4,-30.29 148.52,-20.53 139.21,-25.59 144.4,-30.29"/>
</g>
<!-- Node4 -->
<g id="node4" class="node">
<title>Node4</title>
<g id="a_node4"><a xlink:title=" ">
<polygon fill="#e0e0e0" stroke="#999999" points="1173.5,-294 1123.5,-294 1123.5,-275 1173.5,-275 1173.5,-294"/>
<text text-anchor="middle" x="1148.5" y="-282" font-family="Helvetica,sans-Serif" font-size="10.00">fstream</text>
</a>
</g>
</g>
<!-- Node1&#45;&gt;Node4 -->
<g id="edge3" class="edge">
<title>Node1&#45;&gt;Node4</title>
<path fill="none" stroke="#63b8ff" d="M888.85,-331.7C941.97,-324.23 1028.35,-311.25 1112.05,-294.35"/>
<polygon fill="#63b8ff" stroke="#63b8ff" points="1112.72,-297.79 1121.82,-292.36 1111.32,-290.93 1112.72,-297.79"/>
</g>
<!-- Node5 -->
<g id="node5" class="node">
<title>Node5</title>
<g id="a_node5"><a xlink:title=" ">
<polygon fill="#e0e0e0" stroke="#999999" points="1289.5,-294 1191.5,-294 1191.5,-275 1289.5,-275 1289.5,-294"/>
<text text-anchor="middle" x="1240.5" y="-282" font-family="Helvetica,sans-Serif" font-size="10.00">nlohmann/json.hpp</text>
</a>
</g>
</g>
<!-- Node1&#45;&gt;Node5 -->
<g id="edge4" class="edge">
<title>Node1&#45;&gt;Node5</title>
<path fill="none" stroke="#63b8ff" d="M888.96,-332.24C953.81,-324.14 1070.2,-309.4 1179.87,-294.34"/>
<polygon fill="#63b8ff" stroke="#63b8ff" points="1180.22,-297.83 1189.65,-293 1179.26,-290.89 1180.22,-297.83"/>
</g>
<!-- Node6 -->
<g id="node6" class="node">
<title>Node6</title>
<g id="a_node6"><a xlink:href="_model_8h.html" target="_top" xlink:title="model::Model source file">
<polygon fill="white" stroke="#666666" points="1105.5,-294 1055.5,-294 1055.5,-275 1105.5,-275 1105.5,-294"/>
<text text-anchor="middle" x="1080.5" y="-282" font-family="Helvetica,sans-Serif" font-size="10.00">Model.h</text>
</a>
</g>
</g>
<!-- Node1&#45;&gt;Node6 -->
<g id="edge5" class="edge">
<title>Node1&#45;&gt;Node6</title>
<path fill="none" stroke="#63b8ff" d="M879.55,-329.51C925.73,-319.4 1000.01,-303.13 1044.16,-293.46"/>
<polygon fill="#63b8ff" stroke="#63b8ff" points="1044.73,-296.92 1053.75,-291.36 1043.24,-290.08 1044.73,-296.92"/>
</g>
<!-- Node36 -->
<g id="node36" class="node">
<title>Node36</title>
<g id="a_node36"><a xlink:href="debug_8h.html" target="_top" xlink:title="DEBUG_MSG source file.">
<polygon fill="white" stroke="#666666" points="177.5,-239 127.5,-239 127.5,-220 177.5,-220 177.5,-239"/>
<text text-anchor="middle" x="152.5" y="-227" font-family="Helvetica,sans-Serif" font-size="10.00">debug.h</text>
</a>
</g>
</g>
<!-- Node1&#45;&gt;Node36 -->
<g id="edge82" class="edge">
<title>Node1&#45;&gt;Node36</title>
<path fill="none" stroke="#63b8ff" d="M788.4,-331.87C679.46,-317.23 413.02,-280.13 191.5,-239 190.52,-238.82 189.52,-238.63 188.51,-238.43"/>
<polygon fill="#63b8ff" stroke="#63b8ff" points="189.61,-235.09 179.11,-236.52 188.21,-241.94 189.61,-235.09"/>
</g>
<!-- Node7 -->
<g id="node7" class="node">
<title>Node7</title>
<g id="a_node7"><a xlink:title=" ">
<polygon fill="#e0e0e0" stroke="#999999" points="1202.5,-239 1146.5,-239 1146.5,-220 1202.5,-220 1202.5,-239"/>
<text text-anchor="middle" x="1174.5" y="-227" font-family="Helvetica,sans-Serif" font-size="10.00">algorithm</text>
</a>
</g>
</g>
<!-- Node6&#45;&gt;Node7 -->
<g id="edge6" class="edge">
<title>Node6&#45;&gt;Node7</title>
<path fill="none" stroke="#63b8ff" d="M1096.45,-274.51C1110.85,-266.39 1132.29,-254.3 1149.06,-244.85"/>
<polygon fill="#63b8ff" stroke="#63b8ff" points="1150.48,-248.06 1157.47,-240.1 1147.04,-241.96 1150.48,-248.06"/>
</g>
<!-- Node8 -->
<g id="node8" class="node">
<title>Node8</title>
<g id="a_node8"><a xlink:title=" ">
<polygon fill="#e0e0e0" stroke="#999999" points="1338,-74 1309,-74 1309,-55 1338,-55 1338,-74"/>
<text text-anchor="middle" x="1323.5" y="-62" font-family="Helvetica,sans-Serif" font-size="10.00">list</text>
</a>
</g>
</g>
<!-- Node6&#45;&gt;Node8 -->
<g id="edge7" class="edge">
<title>Node6&#45;&gt;Node8</title>
<path fill="none" stroke="#63b8ff" d="M1105.66,-276.75C1108.63,-276.09 1111.62,-275.49 1114.5,-275 1290.5,-245.26 1344.75,-294.18 1514.5,-239 1559.81,-224.27 1583,-225.44 1606.5,-184 1662.49,-85.29 1429.25,-68.8 1349.44,-66.05"/>
<polygon fill="#63b8ff" stroke="#63b8ff" points="1350.03,-62.57 1339.93,-65.77 1349.83,-69.56 1350.03,-62.57"/>
</g>
<!-- Node9 -->
<g id="node9" class="node">
<title>Node9</title>
<g id="a_node9"><a xlink:title=" ">
<polygon fill="#e0e0e0" stroke="#999999" points="1645,-19 1610,-19 1610,0 1645,0 1645,-19"/>
<text text-anchor="middle" x="1627.5" y="-7" font-family="Helvetica,sans-Serif" font-size="10.00">map</text>
</a>
</g>
</g>
<!-- Node6&#45;&gt;Node9 -->
<g id="edge8" class="edge">
<title>Node6&#45;&gt;Node9</title>
<path fill="none" stroke="#63b8ff" d="M1105.66,-276.72C1108.62,-276.07 1111.62,-275.47 1114.5,-275 1308.98,-242.99 1373.78,-312.89 1556.5,-239 1592.22,-224.56 1606.63,-218.64 1623.5,-184 1648.18,-133.32 1638.92,-64.05 1632.15,-30.43"/>
<polygon fill="#63b8ff" stroke="#63b8ff" points="1635.62,-29.91 1630.07,-20.88 1628.78,-31.39 1635.62,-29.91"/>
</g>
<!-- Node10 -->
<g id="node10" class="node">
<title>Node10</title>
<g id="a_node10"><a xlink:title=" ">
<polygon fill="#e0e0e0" stroke="#999999" points="571,-19 520,-19 520,0 571,0 571,-19"/>
<text text-anchor="middle" x="545.5" y="-7" font-family="Helvetica,sans-Serif" font-size="10.00">memory</text>
</a>
</g>
</g>
<!-- Node6&#45;&gt;Node10 -->
<g id="edge9" class="edge">
<title>Node6&#45;&gt;Node10</title>
<path fill="none" stroke="#63b8ff" d="M1055.09,-283.54C966.03,-283.31 659.95,-279.42 411.5,-239 316.27,-223.51 260.45,-260.38 201.5,-184 115.52,-72.6 403.21,-27.12 508.45,-14.45"/>
<polygon fill="#63b8ff" stroke="#63b8ff" points="508.74,-17.94 518.27,-13.31 507.93,-10.99 508.74,-17.94"/>
</g>
<!-- Node11 -->
<g id="node11" class="node">
<title>Node11</title>
<g id="a_node11"><a xlink:title=" ">
<polygon fill="#e0e0e0" stroke="#999999" points="1984,-19 1943,-19 1943,0 1984,0 1984,-19"/>
<text text-anchor="middle" x="1963.5" y="-7" font-family="Helvetica,sans-Serif" font-size="10.00">string</text>
</a>
</g>
</g>
<!-- Node6&#45;&gt;Node11 -->
<g id="edge10" class="edge">
<title>Node6&#45;&gt;Node11</title>
<path fill="none" stroke="#63b8ff" d="M1105.64,-276.63C1108.61,-276 1111.61,-275.43 1114.5,-275 1433.19,-227.71 1523.44,-306.34 1838.5,-239 1914.53,-222.75 2001.5,-253.25 2001.5,-175.5 2001.5,-175.5 2001.5,-175.5 2001.5,-118.5 2001.5,-85.65 1985.66,-50.19 1974.43,-29.19"/>
<polygon fill="#63b8ff" stroke="#63b8ff" points="1977.62,-27.72 1969.68,-20.69 1971.5,-31.13 1977.62,-27.72"/>
</g>
<!-- Node12 -->
<g id="node12" class="node">
<title>Node12</title>
<g id="a_node12"><a xlink:title=" ">
<polygon fill="#e0e0e0" stroke="#999999" points="1754.5,-19 1710.5,-19 1710.5,0 1754.5,0 1754.5,-19"/>
<text text-anchor="middle" x="1732.5" y="-7" font-family="Helvetica,sans-Serif" font-size="10.00">vector</text>
</a>
</g>
</g>
<!-- Node6&#45;&gt;Node12 -->
<g id="edge11" class="edge">
<title>Node6&#45;&gt;Node12</title>
<path fill="none" stroke="#63b8ff" d="M1105.64,-276.65C1108.61,-276.01 1111.61,-275.44 1114.5,-275 1185.25,-264.27 1695.44,-274.63 1757.5,-239 1786.84,-222.15 1799.5,-209.34 1799.5,-175.5 1799.5,-175.5 1799.5,-175.5 1799.5,-118.5 1799.5,-89.04 1796.07,-80.01 1780.5,-55 1773.65,-44 1763.38,-33.98 1754.1,-26.24"/>
<polygon fill="#63b8ff" stroke="#63b8ff" points="1756.52,-23.68 1746.5,-20.24 1752.18,-29.18 1756.52,-23.68"/>
</g>
<!-- Node13 -->
<g id="node13" class="node">
<title>Node13</title>
<g id="a_node13"><a xlink:href="_block_8h.html" target="_top" xlink:title="model::Block source file">
<polygon fill="white" stroke="#666666" points="1073,-129 1024,-129 1024,-110 1073,-110 1073,-129"/>
<text text-anchor="middle" x="1048.5" y="-117" font-family="Helvetica,sans-Serif" font-size="10.00">Block.h</text>
</a>
</g>
</g>
<!-- Node6&#45;&gt;Node13 -->
<g id="edge12" class="edge">
<title>Node6&#45;&gt;Node13</title>
<path fill="none" stroke="#63b8ff" d="M1078.78,-274.74C1073.81,-249.42 1059.34,-175.72 1052.36,-140.16"/>
<polygon fill="#63b8ff" stroke="#63b8ff" points="1055.88,-139.93 1050.52,-130.79 1049.01,-141.28 1055.88,-139.93"/>
</g>
<!-- Node15 -->
<g id="node15" class="node">
<title>Node15</title>
<g id="a_node15"><a xlink:href="_d_o_f_handler_8h.html" target="_top" xlink:title="model::DOFHandler source file">
<polygon fill="white" stroke="#666666" points="1771.5,-74 1693.5,-74 1693.5,-55 1771.5,-55 1771.5,-74"/>
<text text-anchor="middle" x="1732.5" y="-62" font-family="Helvetica,sans-Serif" font-size="10.00">DOFHandler.h</text>
</a>
</g>
</g>
<!-- Node6&#45;&gt;Node15 -->
<g id="edge46" class="edge">
<title>Node6&#45;&gt;Node15</title>
<path fill="none" stroke="#63b8ff" d="M1105.64,-276.66C1108.61,-276.01 1111.61,-275.44 1114.5,-275 1183.05,-264.55 1689.91,-289.42 1737.5,-239 1777.27,-196.87 1754.48,-120.16 1740.67,-84.57"/>
<polygon fill="#63b8ff" stroke="#63b8ff" points="1744.02,-83.53 1737.01,-75.59 1737.54,-86.17 1744.02,-83.53"/>
</g>
<!-- Node19 -->
<g id="node19" class="node">
<title>Node19</title>
<g id="a_node19"><a xlink:href="_blood_vessel_8h.html" target="_top" xlink:title="model::BloodVessel source file">
<polygon fill="white" stroke="#666666" points="963,-184 884,-184 884,-165 963,-165 963,-184"/>
<text text-anchor="middle" x="923.5" y="-172" font-family="Helvetica,sans-Serif" font-size="10.00">BloodVessel.h</text>
</a>
</g>
</g>
<!-- Node6&#45;&gt;Node19 -->
<g id="edge26" class="edge">
<title>Node6&#45;&gt;Node19</title>
<path fill="none" stroke="#63b8ff" d="M1055.12,-284.33C1020.23,-283.93 958.28,-277.43 927.5,-239 917.88,-226.99 917.55,-209.24 919.24,-195.56"/>
<polygon fill="#63b8ff" stroke="#63b8ff" points="922.65,-196.36 920.9,-185.91 915.76,-195.17 922.65,-196.36"/>
</g>
<!-- Node21 -->
<g id="node21" class="node">
<title>Node21</title>
<g id="a_node21"><a xlink:href="_blood_vessel_junction_8h.html" target="_top" xlink:title="model::BloodVesselJunction source file">
<polygon fill="white" stroke="#666666" points="1052.5,-239 936.5,-239 936.5,-220 1052.5,-220 1052.5,-239"/>
<text text-anchor="middle" x="994.5" y="-227" font-family="Helvetica,sans-Serif" font-size="10.00">BloodVesselJunction.h</text>
</a>
</g>
</g>
<!-- Node6&#45;&gt;Node21 -->
<g id="edge30" class="edge">
<title>Node6&#45;&gt;Node21</title>
<path fill="none" stroke="#63b8ff" d="M1065.91,-274.51C1052.98,-266.54 1033.86,-254.75 1018.65,-245.38"/>
<polygon fill="#63b8ff" stroke="#63b8ff" points="1020.51,-242.42 1010.16,-240.15 1016.84,-248.38 1020.51,-242.42"/>
</g>
<!-- Node23 -->
<g id="node23" class="node">
<title>Node23</title>
<g id="a_node23"><a xlink:href="_closed_loop_coronary_b_c_8h.html" target="_top" xlink:title="model::ClosedLoopCoronaryBC source file">
<polygon fill="white" stroke="#666666" points="842.5,-239 714.5,-239 714.5,-220 842.5,-220 842.5,-239"/>
<text text-anchor="middle" x="778.5" y="-227" font-family="Helvetica,sans-Serif" font-size="10.00">ClosedLoopCoronaryBC.h</text>
</a>
</g>
</g>
<!-- Node6&#45;&gt;Node23 -->
<g id="edge35" class="edge">
<title>Node6&#45;&gt;Node23</title>
<path fill="none" stroke="#63b8ff" d="M1055.01,-279.03C1008.1,-270.79 906.83,-253.02 840.74,-241.42"/>
<polygon fill="#63b8ff" stroke="#63b8ff" points="841.59,-238.02 831.13,-239.74 840.38,-244.91 841.59,-238.02"/>
</g>
<!-- Node24 -->
<g id="node24" class="node">
<title>Node24</title>
<g id="a_node24"><a xlink:href="_closed_loop_heart_pulmonary_8h.html" target="_top" xlink:title="model::ClosedLoopHeartPulmonary source file">
<polygon fill="white" stroke="#666666" points="865.5,-184 719.5,-184 719.5,-165 865.5,-165 865.5,-184"/>
<text text-anchor="middle" x="792.5" y="-172" font-family="Helvetica,sans-Serif" font-size="10.00">ClosedLoopHeartPulmonary.h</text>
</a>
</g>
</g>
<!-- Node6&#45;&gt;Node24 -->
<g id="edge42" class="edge">
<title>Node6&#45;&gt;Node24</title>
<path fill="none" stroke="#63b8ff" d="M1055.09,-278.41C1022.22,-271.44 963.49,-257.61 915.5,-239 879.98,-225.22 841.28,-204.16 816.96,-190.11"/>
<polygon fill="#63b8ff" stroke="#63b8ff" points="818.87,-187.18 808.48,-185.15 815.34,-193.22 818.87,-187.18"/>
</g>
<!-- Node25 -->
<g id="node25" class="node">
<title>Node25</title>
<g id="a_node25"><a xlink:href="_closed_loop_r_c_r_b_c_8h.html" target="_top" xlink:title="model::ClosedLoopRCRBC source file">
<polygon fill="white" stroke="#666666" points="320.5,-184 210.5,-184 210.5,-165 320.5,-165 320.5,-184"/>
<text text-anchor="middle" x="265.5" y="-172" font-family="Helvetica,sans-Serif" font-size="10.00">ClosedLoopRCRBC.h</text>
</a>
</g>
</g>
<!-- Node6&#45;&gt;Node25 -->
<g id="edge43" class="edge">
<title>Node6&#45;&gt;Node25</title>
<path fill="none" stroke="#63b8ff" d="M1055.14,-283.24C973.85,-282.06 712.75,-275.49 500.5,-239 429.47,-226.79 348.78,-202.67 302.83,-187.92"/>
<polygon fill="#63b8ff" stroke="#63b8ff" points="303.95,-184.61 293.36,-184.85 301.8,-191.27 303.95,-184.61"/>
</g>
<!-- Node26 -->
<g id="node26" class="node">
<title>Node26</title>
<g id="a_node26"><a xlink:href="_flow_reference_b_c_8h.html" target="_top" xlink:title="model::FlowReferenceBC source file">
<polygon fill="white" stroke="#666666" points="1199,-184 1096,-184 1096,-165 1199,-165 1199,-184"/>
<text text-anchor="middle" x="1147.5" y="-172" font-family="Helvetica,sans-Serif" font-size="10.00">FlowReferenceBC.h</text>
</a>
</g>
</g>
<!-- Node6&#45;&gt;Node26 -->
<g id="edge47" class="edge">
<title>Node6&#45;&gt;Node26</title>
<path fill="none" stroke="#63b8ff" d="M1085.98,-274.66C1096.88,-257.1 1121.46,-217.48 1136.03,-193.98"/>
<polygon fill="#63b8ff" stroke="#63b8ff" points="1138.85,-196.09 1141.14,-185.75 1132.9,-192.4 1138.85,-196.09"/>
</g>
<!-- Node27 -->
<g id="node27" class="node">
<title>Node27</title>
<g id="a_node27"><a xlink:href="_parameter_8h.html" target="_top" xlink:title="model::Parameter source file">
<polygon fill="white" stroke="#666666" points="1568,-129 1499,-129 1499,-110 1568,-110 1568,-129"/>
<text text-anchor="middle" x="1533.5" y="-117" font-family="Helvetica,sans-Serif" font-size="10.00">Parameter.h</text>
</a>
</g>
</g>
<!-- Node6&#45;&gt;Node27 -->
<g id="edge67" class="edge">
<title>Node6&#45;&gt;Node27</title>
<path fill="none" stroke="#63b8ff" d="M1105.7,-276.96C1108.66,-276.26 1111.64,-275.59 1114.5,-275 1219.95,-253.11 1522.72,-267.69 1590.5,-184 1604.52,-166.69 1582.4,-147.8 1561.76,-135.16"/>
<polygon fill="#63b8ff" stroke="#63b8ff" points="1563.63,-132.21 1553.22,-130.25 1560.14,-138.27 1563.63,-132.21"/>
</g>
<!-- Node29 -->
<g id="node29" class="node">
<title>Node29</title>
<g id="a_node29"><a xlink:href="_junction_8h.html" target="_top" xlink:title="model::Junction source file">
<polygon fill="white" stroke="#666666" points="400,-184 339,-184 339,-165 400,-165 400,-184"/>
<text text-anchor="middle" x="369.5" y="-172" font-family="Helvetica,sans-Serif" font-size="10.00">Junction.h</text>
</a>
</g>
</g>
<!-- Node6&#45;&gt;Node29 -->
<g id="edge55" class="edge">
<title>Node6&#45;&gt;Node29</title>
<path fill="none" stroke="#63b8ff" d="M1055.12,-283.02C981.42,-281.26 761.31,-273.28 582.5,-239 518.45,-226.72 446.14,-202.98 404.39,-188.26"/>
<polygon fill="#63b8ff" stroke="#63b8ff" points="405.72,-185.02 395.13,-184.96 403.37,-191.62 405.72,-185.02"/>
</g>
<!-- Node30 -->
<g id="node30" class="node">
<title>Node30</title>
<g id="a_node30"><a xlink:href="_node_8h.html" target="_top" xlink:title="model::Node source file">
<polygon fill="white" stroke="#666666" points="1913,-129 1866,-129 1866,-110 1913,-110 1913,-129"/>
<text text-anchor="middle" x="1889.5" y="-117" font-family="Helvetica,sans-Serif" font-size="10.00">Node.h</text>
</a>
</g>
</g>
<!-- Node6&#45;&gt;Node30 -->
<g id="edge58" class="edge">
<title>Node6&#45;&gt;Node30</title>
<path fill="none" stroke="#63b8ff" d="M1105.64,-276.64C1108.61,-276 1111.61,-275.43 1114.5,-275 1191.42,-263.52 1746.24,-278.05 1813.5,-239 1851.43,-216.98 1873.53,-167.61 1883.35,-140.05"/>
<polygon fill="#63b8ff" stroke="#63b8ff" points="1886.58,-141.43 1886.44,-130.84 1879.94,-139.21 1886.58,-141.43"/>
</g>
<!-- Node31 -->
<g id="node31" class="node">
<title>Node31</title>
<g id="a_node31"><a xlink:href="_open_loop_coronary_b_c_8h.html" target="_top" xlink:title="model::OpenLoopCoronaryBC source file">
<polygon fill="white" stroke="#666666" points="1338,-184 1217,-184 1217,-165 1338,-165 1338,-184"/>
<text text-anchor="middle" x="1277.5" y="-172" font-family="Helvetica,sans-Serif" font-size="10.00">OpenLoopCoronaryBC.h</text>
</a>
</g>
</g>
<!-- Node6&#45;&gt;Node31 -->
<g id="edge63" class="edge">
<title>Node6&#45;&gt;Node31</title>
<path fill="none" stroke="#63b8ff" d="M1105.87,-276.32C1138.61,-266.81 1193.5,-249.96 1211.5,-239 1231.81,-226.64 1250.9,-207.06 1263.28,-192.91"/>
<polygon fill="#63b8ff" stroke="#63b8ff" points="1265.94,-195.18 1269.73,-185.29 1260.6,-190.66 1265.94,-195.18"/>
</g>
<!-- Node32 -->
<g id="node32" class="node">
<title>Node32</title>
<g id="a_node32"><a xlink:href="_pressure_reference_b_c_8h.html" target="_top" xlink:title="model::PressureReferenceBC source file">
<polygon fill="white" stroke="#666666" points="1477,-184 1356,-184 1356,-165 1477,-165 1477,-184"/>
<text text-anchor="middle" x="1416.5" y="-172" font-family="Helvetica,sans-Serif" font-size="10.00">PressureReferenceBC.h</text>
</a>
</g>
</g>
<!-- Node6&#45;&gt;Node32 -->
<g id="edge68" class="edge">
<title>Node6&#45;&gt;Node32</title>
<path fill="none" stroke="#63b8ff" d="M1105.94,-276.83C1137.12,-268.54 1191.48,-253.67 1237.5,-239 1288.46,-222.76 1346.71,-201.6 1382.55,-188.28"/>
<polygon fill="#63b8ff" stroke="#63b8ff" points="1383.36,-191.72 1391.5,-184.94 1380.91,-185.16 1383.36,-191.72"/>
</g>
<!-- Node33 -->
<g id="node33" class="node">
<title>Node33</title>
<g id="a_node33"><a xlink:href="_resistance_b_c_8h.html" target="_top" xlink:title="model::ResistanceBC source file">
<polygon fill="white" stroke="#666666" points="1581.5,-184 1495.5,-184 1495.5,-165 1581.5,-165 1581.5,-184"/>
<text text-anchor="middle" x="1538.5" y="-172" font-family="Helvetica,sans-Serif" font-size="10.00">ResistanceBC.h</text>
</a>
</g>
</g>
<!-- Node6&#45;&gt;Node33 -->
<g id="edge72" class="edge">
<title>Node6&#45;&gt;Node33</title>
<path fill="none" stroke="#63b8ff" d="M1105.73,-277.11C1108.68,-276.38 1111.66,-275.67 1114.5,-275 1187.15,-257.95 1205.8,-255.85 1278.5,-239 1353.35,-221.65 1439.99,-200.22 1491.96,-187.22"/>
<polygon fill="#63b8ff" stroke="#63b8ff" points="1492.5,-190.69 1501.35,-184.86 1490.8,-183.9 1492.5,-190.69"/>
</g>
<!-- Node34 -->
<g id="node34" class="node">
<title>Node34</title>
<g id="a_node34"><a xlink:href="_resistive_junction_8h.html" target="_top" xlink:title="model::ResistiveJunction source file">
<polygon fill="white" stroke="#666666" points="519,-184 418,-184 418,-165 519,-165 519,-184"/>
<text text-anchor="middle" x="468.5" y="-172" font-family="Helvetica,sans-Serif" font-size="10.00">ResistiveJunction.h</text>
</a>
</g>
</g>
<!-- Node6&#45;&gt;Node34 -->
<g id="edge76" class="edge">
<title>Node6&#45;&gt;Node34</title>
<path fill="none" stroke="#63b8ff" d="M1055.22,-282.84C988.78,-280.67 804.11,-271.91 654.5,-239 598.78,-226.74 536.5,-203.41 500,-188.7"/>
<polygon fill="#63b8ff" stroke="#63b8ff" points="501.52,-185.53 490.94,-185 498.87,-192.02 501.52,-185.53"/>
</g>
<!-- Node35 -->
<g id="node35" class="node">
<title>Node35</title>
<g id="a_node35"><a xlink:href="_windkessel_b_c_8h.html" target="_top" xlink:title="model::WindkesselBC source file">
<polygon fill="white" stroke="#666666" points="625.5,-184 537.5,-184 537.5,-165 625.5,-165 625.5,-184"/>
<text text-anchor="middle" x="581.5" y="-172" font-family="Helvetica,sans-Serif" font-size="10.00">WindkesselBC.h</text>
</a>
</g>
</g>
<!-- Node6&#45;&gt;Node35 -->
<g id="edge79" class="edge">
<title>Node6&#45;&gt;Node35</title>
<path fill="none" stroke="#63b8ff" d="M1055.31,-283.55C994.02,-283.04 832.81,-277.78 705.5,-239 668.21,-227.64 628.73,-205.42 604.6,-190.51"/>
<polygon fill="#63b8ff" stroke="#63b8ff" points="606.55,-187.61 596.23,-185.24 602.82,-193.53 606.55,-187.61"/>
</g>
<!-- Node13&#45;&gt;Node8 -->
<g id="edge14" class="edge">
<title>Node13&#45;&gt;Node8</title>
<path fill="none" stroke="#63b8ff" d="M1073.39,-113.7C1125.27,-103.7 1244.56,-80.71 1297.44,-70.52"/>
<polygon fill="#63b8ff" stroke="#63b8ff" points="1297.88,-74 1307.04,-68.67 1296.56,-67.13 1297.88,-74"/>
</g>
<!-- Node13&#45;&gt;Node9 -->
<g id="edge15" class="edge">
<title>Node13&#45;&gt;Node9</title>
<path fill="none" stroke="#63b8ff" d="M1064.07,-109.53C1089.57,-95.31 1142.23,-67.89 1190.5,-55 1340.24,-15.01 1527.66,-10.47 1598.55,-10.3"/>
<polygon fill="#63b8ff" stroke="#63b8ff" points="1598.14,-13.79 1608.14,-10.3 1598.14,-6.79 1598.14,-13.79"/>
</g>
<!-- Node13&#45;&gt;Node12 -->
<g id="edge16" class="edge">
<title>Node13&#45;&gt;Node12</title>
<path fill="none" stroke="#63b8ff" d="M1073.28,-110.98C1118.15,-97.63 1216.07,-69.85 1300.5,-55 1456.25,-27.61 1497.23,-35.57 1654.5,-19 1669.06,-17.47 1685.15,-15.72 1698.91,-14.21"/>
<polygon fill="#63b8ff" stroke="#63b8ff" points="1699.25,-17.7 1708.81,-13.13 1698.49,-10.74 1699.25,-17.7"/>
</g>
<!-- Node14 -->
<g id="node14" class="node">
<title>Node14</title>
<g id="a_node14"><a xlink:title=" ">
<polygon fill="#e0e0e0" stroke="#999999" points="1080.5,-74 1016.5,-74 1016.5,-55 1080.5,-55 1080.5,-74"/>
<text text-anchor="middle" x="1048.5" y="-62" font-family="Helvetica,sans-Serif" font-size="10.00">Eigen/Core</text>
</a>
</g>
</g>
<!-- Node13&#45;&gt;Node14 -->
<g id="edge13" class="edge">
<title>Node13&#45;&gt;Node14</title>
<path fill="none" stroke="#63b8ff" d="M1048.5,-109.75C1048.5,-103.27 1048.5,-94.16 1048.5,-85.9"/>
<polygon fill="#63b8ff" stroke="#63b8ff" points="1052,-85.96 1048.5,-75.96 1045,-85.96 1052,-85.96"/>
</g>
<!-- Node13&#45;&gt;Node15 -->
<g id="edge17" class="edge">
<title>Node13&#45;&gt;Node15</title>
<path fill="none" stroke="#63b8ff" d="M1073.25,-116.58C1172.85,-108.86 1545.6,-79.98 1682.05,-69.41"/>
<polygon fill="#63b8ff" stroke="#63b8ff" points="1682.16,-72.91 1691.86,-68.65 1681.62,-65.93 1682.16,-72.91"/>
</g>
<!-- Node16 -->
<g id="node16" class="node">
<title>Node16</title>
<g id="a_node16"><a xlink:href="_sparse_system_8h.html" target="_top" xlink:title="SparseSystem source file.">
<polygon fill="white" stroke="#666666" points="716.5,-74 628.5,-74 628.5,-55 716.5,-55 716.5,-74"/>
<text text-anchor="middle" x="672.5" y="-62" font-family="Helvetica,sans-Serif" font-size="10.00">SparseSystem.h</text>
</a>
</g>
</g>
<!-- Node13&#45;&gt;Node16 -->
<g id="edge21" class="edge">
<title>Node13&#45;&gt;Node16</title>
<path fill="none" stroke="#63b8ff" d="M1023.54,-114.98C963.7,-106.55 810.89,-85.01 728,-73.32"/>
<polygon fill="#63b8ff" stroke="#63b8ff" points="728.67,-69.88 718.28,-71.95 727.69,-76.81 728.67,-69.88"/>
</g>
<!-- Node15&#45;&gt;Node9 -->
<g id="edge18" class="edge">
<title>Node15&#45;&gt;Node9</title>
<path fill="none" stroke="#63b8ff" d="M1714.69,-54.51C1698.37,-46.27 1673.97,-33.96 1655.13,-24.45"/>
<polygon fill="#63b8ff" stroke="#63b8ff" points="1656.9,-21.42 1646.4,-20.04 1653.75,-27.67 1656.9,-21.42"/>
</g>
<!-- Node15&#45;&gt;Node11 -->
<g id="edge19" class="edge">
<title>Node15&#45;&gt;Node11</title>
<path fill="none" stroke="#63b8ff" d="M1771.69,-54.51C1816.77,-44.17 1889.93,-27.38 1931.66,-17.8"/>
<polygon fill="#63b8ff" stroke="#63b8ff" points="1932.36,-21.24 1941.32,-15.59 1930.79,-14.41 1932.36,-21.24"/>
</g>
<!-- Node15&#45;&gt;Node12 -->
<g id="edge20" class="edge">
<title>Node15&#45;&gt;Node12</title>
<path fill="none" stroke="#63b8ff" d="M1732.5,-54.75C1732.5,-48.27 1732.5,-39.16 1732.5,-30.9"/>
<polygon fill="#63b8ff" stroke="#63b8ff" points="1736,-30.96 1732.5,-20.96 1729,-30.96 1736,-30.96"/>
</g>
<!-- Node16&#45;&gt;Node3 -->
<g id="edge22" class="edge">
<title>Node16&#45;&gt;Node3</title>
<path fill="none" stroke="#63b8ff" d="M628.23,-58.94C532.43,-49.06 306.51,-25.76 207,-15.5"/>
<polygon fill="#63b8ff" stroke="#63b8ff" points="207.6,-12.04 197.3,-14.5 206.88,-19.01 207.6,-12.04"/>
</g>
<!-- Node16&#45;&gt;Node10 -->
<g id="edge25" class="edge">
<title>Node16&#45;&gt;Node10</title>
<path fill="none" stroke="#63b8ff" d="M650.96,-54.51C630.76,-46.08 600.33,-33.38 577.34,-23.79"/>
<polygon fill="#63b8ff" stroke="#63b8ff" points="578.7,-20.56 568.12,-19.94 576,-27.02 578.7,-20.56"/>
</g>
<!-- Node17 -->
<g id="node17" class="node">
<title>Node17</title>
<g id="a_node17"><a xlink:title=" ">
<polygon fill="#e0e0e0" stroke="#999999" points="716.5,-19 628.5,-19 628.5,0 716.5,0 716.5,-19"/>
<text text-anchor="middle" x="672.5" y="-7" font-family="Helvetica,sans-Serif" font-size="10.00">Eigen/SparseLU</text>
</a>
</g>
</g>
<!-- Node16&#45;&gt;Node17 -->
<g id="edge23" class="edge">
<title>Node16&#45;&gt;Node17</title>
<path fill="none" stroke="#63b8ff" d="M672.5,-54.75C672.5,-48.27 672.5,-39.16 672.5,-30.9"/>
<polygon fill="#63b8ff" stroke="#63b8ff" points="676,-30.96 672.5,-20.96 669,-30.96 676,-30.96"/>
</g>
<!-- Node18 -->
<g id="node18" class="node">
<title>Node18</title>
<g id="a_node18"><a xlink:title=" ">
<polygon fill="#e0e0e0" stroke="#999999" points="423.5,-19 369.5,-19 369.5,0 423.5,0 423.5,-19"/>
<text text-anchor="middle" x="396.5" y="-7" font-family="Helvetica,sans-Serif" font-size="10.00">iostream</text>
</a>
</g>
</g>
<!-- Node16&#45;&gt;Node18 -->
<g id="edge24" class="edge">
<title>Node16&#45;&gt;Node18</title>
<path fill="none" stroke="#63b8ff" d="M628.16,-54.98C574.72,-44.72 485.81,-27.65 435.08,-17.91"/>
<polygon fill="#63b8ff" stroke="#63b8ff" points="435.93,-14.51 425.45,-16.06 434.61,-21.38 435.93,-14.51"/>
</g>
<!-- Node19&#45;&gt;Node13 -->
<g id="edge28" class="edge">
<title>Node19&#45;&gt;Node13</title>
<path fill="none" stroke="#63b8ff" d="M944.7,-164.51C964.58,-156.08 994.53,-143.38 1017.16,-133.79"/>
<polygon fill="#63b8ff" stroke="#63b8ff" points="1018.37,-137.07 1026.22,-129.95 1015.64,-130.63 1018.37,-137.07"/>
</g>
<!-- Node19&#45;&gt;Node16 -->
<g id="edge29" class="edge">
<title>Node19&#45;&gt;Node16</title>
<path fill="none" stroke="#63b8ff" d="M902.96,-164.66C859.02,-145.75 755.67,-101.29 703.61,-78.89"/>
<polygon fill="#63b8ff" stroke="#63b8ff" points="705.28,-75.8 694.71,-75.06 702.52,-82.23 705.28,-75.8"/>
</g>
<!-- Node20 -->
<g id="node20" class="node">
<title>Node20</title>
<g id="a_node20"><a xlink:title=" ">
<polygon fill="#e0e0e0" stroke="#999999" points="946.5,-74 900.5,-74 900.5,-55 946.5,-55 946.5,-74"/>
<text text-anchor="middle" x="923.5" y="-62" font-family="Helvetica,sans-Serif" font-size="10.00">math.h</text>
</a>
</g>
</g>
<!-- Node19&#45;&gt;Node20 -->
<g id="edge27" class="edge">
<title>Node19&#45;&gt;Node20</title>
<path fill="none" stroke="#63b8ff" d="M923.5,-164.66C923.5,-147.57 923.5,-109.61 923.5,-85.92"/>
<polygon fill="#63b8ff" stroke="#63b8ff" points="927,-85.97 923.5,-75.97 920,-85.97 927,-85.97"/>
</g>
<!-- Node21&#45;&gt;Node13 -->
<g id="edge31" class="edge">
<title>Node21&#45;&gt;Node13</title>
<path fill="none" stroke="#63b8ff" d="M998.92,-219.66C1007.62,-202.26 1027.15,-163.19 1038.94,-139.62"/>
<polygon fill="#63b8ff" stroke="#63b8ff" points="1042,-141.32 1043.34,-130.81 1035.74,-138.19 1042,-141.32"/>
</g>
<!-- Node21&#45;&gt;Node16 -->
<g id="edge34" class="edge">
<title>Node21&#45;&gt;Node16</title>
<path fill="none" stroke="#63b8ff" d="M936.22,-226.43C863.18,-222.68 743.53,-212.28 710.5,-184 695.42,-171.09 682.41,-115.66 676.27,-85.4"/>
<polygon fill="#63b8ff" stroke="#63b8ff" points="679.72,-84.8 674.36,-75.66 672.85,-86.15 679.72,-84.8"/>
</g>
<!-- Node21&#45;&gt;Node19 -->
<g id="edge33" class="edge">
<title>Node21&#45;&gt;Node19</title>
<path fill="none" stroke="#63b8ff" d="M982.46,-219.51C972.09,-211.77 956.9,-200.43 944.53,-191.2"/>
<polygon fill="#63b8ff" stroke="#63b8ff" points="946.69,-188.44 936.58,-185.26 942.5,-194.05 946.69,-188.44"/>
</g>
<!-- Node22 -->
<g id="node22" class="node">
<title>Node22</title>
<g id="a_node22"><a xlink:href="_block_type_8h_source.html" target="_top" xlink:title=" ">
<polygon fill="white" stroke="#666666" points="1897.5,-74 1827.5,-74 1827.5,-55 1897.5,-55 1897.5,-74"/>
<text text-anchor="middle" x="1862.5" y="-62" font-family="Helvetica,sans-Serif" font-size="10.00">BlockType.h</text>
</a>
</g>
</g>
<!-- Node21&#45;&gt;Node22 -->
<g id="edge32" class="edge">
<title>Node21&#45;&gt;Node22</title>
<path fill="none" stroke="#63b8ff" d="M1052.96,-224.67C1198.03,-215.08 1564.69,-190.39 1590.5,-184 1686.06,-160.34 1790.53,-105.97 1837.35,-79.92"/>
<polygon fill="#63b8ff" stroke="#63b8ff" points="1838.89,-83.07 1845.89,-75.12 1835.46,-76.97 1838.89,-83.07"/>
</g>
<!-- Node23&#45;&gt;Node13 -->
<g id="edge36" class="edge">
<title>Node23&#45;&gt;Node13</title>
<path fill="none" stroke="#63b8ff" d="M842.64,-221.5C881.72,-215.39 931.8,-204.2 972.5,-184 995.97,-172.35 1018.42,-152.07 1032.76,-137.56"/>
<polygon fill="#63b8ff" stroke="#63b8ff" points="1035.14,-140.14 1039.52,-130.5 1030.08,-135.3 1035.14,-140.14"/>
</g>
<!-- Node23&#45;&gt;Node16 -->
<g id="edge41" class="edge">
<title>Node23&#45;&gt;Node16</title>
<path fill="none" stroke="#63b8ff" d="M731.9,-219.52C711.76,-213.12 689.98,-202.28 677.5,-184 657.34,-154.47 662.23,-110.47 667.46,-85.23"/>
<polygon fill="#63b8ff" stroke="#63b8ff" points="670.83,-86.2 669.68,-75.67 664.01,-84.62 670.83,-86.2"/>
</g>
<!-- Node23&#45;&gt;Node24 -->
<g id="edge37" class="edge">
<title>Node23&#45;&gt;Node24</title>
<path fill="none" stroke="#63b8ff" d="M780.81,-219.75C782.56,-213.11 785.04,-203.73 787.27,-195.31"/>
<polygon fill="#63b8ff" stroke="#63b8ff" points="790.58,-196.47 789.75,-185.91 783.81,-194.68 790.58,-196.47"/>
</g>
<!-- Node24&#45;&gt;Node13 -->
<g id="edge38" class="edge">
<title>Node24&#45;&gt;Node13</title>
<path fill="none" stroke="#63b8ff" d="M835.93,-164.51C885.64,-154.22 966.15,-137.55 1012.51,-127.95"/>
<polygon fill="#63b8ff" stroke="#63b8ff" points="1012.96,-131.43 1022.04,-125.98 1011.54,-124.58 1012.96,-131.43"/>
</g>
<!-- Node24&#45;&gt;Node16 -->
<g id="edge39" class="edge">
<title>Node24&#45;&gt;Node16</title>
<path fill="none" stroke="#63b8ff" d="M782.68,-164.66C762.64,-146.62 716.75,-105.32 690.96,-82.12"/>
<polygon fill="#63b8ff" stroke="#63b8ff" points="693.36,-79.56 683.58,-75.47 688.67,-84.76 693.36,-79.56"/>
</g>
<!-- Node24&#45;&gt;Node20 -->
<g id="edge40" class="edge">
<title>Node24&#45;&gt;Node20</title>
<path fill="none" stroke="#63b8ff" d="M803.22,-164.66C825.29,-146.47 876.08,-104.6 904.08,-81.51"/>
<polygon fill="#63b8ff" stroke="#63b8ff" points="905.97,-84.48 911.46,-75.42 901.52,-79.08 905.97,-84.48"/>
</g>
<!-- Node25&#45;&gt;Node13 -->
<g id="edge44" class="edge">
<title>Node25&#45;&gt;Node13</title>
<path fill="none" stroke="#63b8ff" d="M320.79,-166.01C324.07,-165.65 327.33,-165.31 330.5,-165 591.45,-139.88 907.2,-126.04 1012.44,-121.87"/>
<polygon fill="#63b8ff" stroke="#63b8ff" points="1012.28,-125.37 1022.14,-121.49 1012.01,-118.38 1012.28,-125.37"/>
</g>
<!-- Node25&#45;&gt;Node16 -->
<g id="edge45" class="edge">
<title>Node25&#45;&gt;Node16</title>
<path fill="none" stroke="#63b8ff" d="M297.87,-164.5C342.83,-152.05 426.75,-128.95 498.5,-110 541.62,-98.61 590.87,-86.06 625.94,-77.2"/>
<polygon fill="#63b8ff" stroke="#63b8ff" points="626.49,-80.67 635.33,-74.83 624.78,-73.88 626.49,-80.67"/>
</g>
<!-- Node26&#45;&gt;Node13 -->
<g id="edge48" class="edge">
<title>Node26&#45;&gt;Node13</title>
<path fill="none" stroke="#63b8ff" d="M1130.71,-164.51C1115.4,-156.31 1092.53,-144.07 1074.8,-134.58"/>
<polygon fill="#63b8ff" stroke="#63b8ff" points="1076.85,-131.71 1066.38,-130.07 1073.54,-137.88 1076.85,-131.71"/>
</g>
<!-- Node26&#45;&gt;Node16 -->
<g id="edge54" class="edge">
<title>Node26&#45;&gt;Node16</title>
<path fill="none" stroke="#63b8ff" d="M1141.53,-164.66C1131.33,-150.37 1109.04,-122.52 1082.5,-110 1021.06,-81 825.38,-70.54 728.27,-67.07"/>
<polygon fill="#63b8ff" stroke="#63b8ff" points="728.55,-63.58 718.44,-66.73 728.31,-70.58 728.55,-63.58"/>
</g>
<!-- Node26&#45;&gt;Node27 -->
<g id="edge49" class="edge">
<title>Node26&#45;&gt;Node27</title>
<path fill="none" stroke="#63b8ff" d="M1199.41,-166.26C1202.49,-165.83 1205.53,-165.41 1208.5,-165 1308.08,-151.24 1424.85,-135.3 1487.76,-126.73"/>
<polygon fill="#63b8ff" stroke="#63b8ff" points="1487.93,-130.24 1497.37,-125.42 1486.98,-123.3 1487.93,-130.24"/>
</g>
<!-- Node27&#45;&gt;Node12 -->
<g id="edge52" class="edge">
<title>Node27&#45;&gt;Node12</title>
<path fill="none" stroke="#63b8ff" d="M1549.79,-109.66C1584.11,-91.03 1664.17,-47.58 1705.99,-24.89"/>
<polygon fill="#63b8ff" stroke="#63b8ff" points="1707.54,-28.03 1714.66,-20.18 1704.2,-21.88 1707.54,-28.03"/>
</g>
<!-- Node27&#45;&gt;Node15 -->
<g id="edge53" class="edge">
<title>Node27&#45;&gt;Node15</title>
<path fill="none" stroke="#63b8ff" d="M1567.26,-109.51C1600.52,-100.65 1651.53,-87.07 1688.07,-77.33"/>
<polygon fill="#63b8ff" stroke="#63b8ff" points="1688.68,-80.79 1697.45,-74.84 1686.88,-74.03 1688.68,-80.79"/>
</g>
<!-- Node27&#45;&gt;Node20 -->
<g id="edge50" class="edge">
<title>Node27&#45;&gt;Node20</title>
<path fill="none" stroke="#63b8ff" d="M1498.61,-113.08C1490.69,-111.96 1482.32,-110.86 1474.5,-110 1267.59,-87.15 1214.85,-92.48 1007.5,-74 991.1,-72.54 972.91,-70.72 957.67,-69.14"/>
<polygon fill="#63b8ff" stroke="#63b8ff" points="958.48,-65.71 948.17,-68.15 957.75,-72.67 958.48,-65.71"/>
</g>
<!-- Node28 -->
<g id="node28" class="node">
<title>Node28</title>
<g id="a_node28"><a xlink:title=" ">
<polygon fill="#e0e0e0" stroke="#999999" points="1559,-74 1508,-74 1508,-55 1559,-55 1559,-74"/>
<text text-anchor="middle" x="1533.5" y="-62" font-family="Helvetica,sans-Serif" font-size="10.00">numeric</text>
</a>
</g>
</g>
<!-- Node27&#45;&gt;Node28 -->
<g id="edge51" class="edge">
<title>Node27&#45;&gt;Node28</title>
<path fill="none" stroke="#63b8ff" d="M1533.5,-109.75C1533.5,-103.27 1533.5,-94.16 1533.5,-85.9"/>
<polygon fill="#63b8ff" stroke="#63b8ff" points="1537,-85.96 1533.5,-75.96 1530,-85.96 1537,-85.96"/>
</g>
<!-- Node29&#45;&gt;Node13 -->
<g id="edge56" class="edge">
<title>Node29&#45;&gt;Node13</title>
<path fill="none" stroke="#63b8ff" d="M400.43,-166.48C403.49,-165.92 406.55,-165.41 409.5,-165 637.58,-132.98 914.86,-123.65 1012.44,-121.25"/>
<polygon fill="#63b8ff" stroke="#63b8ff" points="1012.27,-124.75 1022.19,-121.02 1012.11,-117.75 1012.27,-124.75"/>
</g>
<!-- Node29&#45;&gt;Node16 -->
<g id="edge57" class="edge">
<title>Node29&#45;&gt;Node16</title>
<path fill="none" stroke="#63b8ff" d="M394.55,-164.57C448.21,-145.44 574.4,-100.47 636.58,-78.3"/>
<polygon fill="#63b8ff" stroke="#63b8ff" points="637.75,-81.6 645.99,-74.95 635.4,-75.01 637.75,-81.6"/>
</g>
<!-- Node30&#45;&gt;Node11 -->
<g id="edge59" class="edge">
<title>Node30&#45;&gt;Node11</title>
<path fill="none" stroke="#63b8ff" d="M1902.6,-109.64C1913.74,-101.51 1929.49,-88.55 1939.5,-74 1948.61,-60.75 1954.83,-43.6 1958.64,-30.45"/>
<polygon fill="#63b8ff" stroke="#63b8ff" points="1962.02,-31.37 1961.2,-20.81 1955.26,-29.58 1962.02,-31.37"/>
</g>
<!-- Node30&#45;&gt;Node12 -->
<g id="edge60" class="edge">
<title>Node30&#45;&gt;Node12</title>
<path fill="none" stroke="#63b8ff" d="M1896.13,-109.76C1905.27,-96.58 1919.24,-71.41 1906.5,-55 1889.47,-33.07 1811.93,-20.12 1766.31,-14.26"/>
<polygon fill="#63b8ff" stroke="#63b8ff" points="1766.76,-10.79 1756.41,-13.05 1765.91,-17.74 1766.76,-10.79"/>
</g>
<!-- Node30&#45;&gt;Node15 -->
<g id="edge62" class="edge">
<title>Node30&#45;&gt;Node15</title>
<path fill="none" stroke="#63b8ff" d="M1865.66,-110.45C1840.17,-101.85 1799.44,-88.1 1769.73,-78.07"/>
<polygon fill="#63b8ff" stroke="#63b8ff" points="1770.96,-74.79 1760.37,-74.91 1768.72,-81.42 1770.96,-74.79"/>
</g>
<!-- Node30&#45;&gt;Node22 -->
<g id="edge61" class="edge">
<title>Node30&#45;&gt;Node22</title>
<path fill="none" stroke="#63b8ff" d="M1885.04,-109.75C1881.55,-102.88 1876.55,-93.08 1872.15,-84.45"/>
<polygon fill="#63b8ff" stroke="#63b8ff" points="1875.4,-83.11 1867.74,-75.79 1869.16,-86.29 1875.4,-83.11"/>
</g>
<!-- Node31&#45;&gt;Node13 -->
<g id="edge64" class="edge">
<title>Node31&#45;&gt;Node13</title>
<path fill="none" stroke="#63b8ff" d="M1238.65,-164.51C1195.5,-154.52 1126.38,-138.53 1084.44,-128.82"/>
<polygon fill="#63b8ff" stroke="#63b8ff" points="1085.38,-125.44 1074.85,-126.6 1083.8,-132.26 1085.38,-125.44"/>
</g>
<!-- Node31&#45;&gt;Node16 -->
<g id="edge66" class="edge">
<title>Node31&#45;&gt;Node16</title>
<path fill="none" stroke="#63b8ff" d="M1258.86,-164.61C1228.38,-150.5 1165.65,-123.23 1109.5,-110 974.98,-78.3 811.92,-69.18 728.14,-66.56"/>
<polygon fill="#63b8ff" stroke="#63b8ff" points="728.46,-63.07 718.37,-66.27 728.26,-70.06 728.46,-63.07"/>
</g>
<!-- Node31&#45;&gt;Node27 -->
<g id="edge65" class="edge">
<title>Node31&#45;&gt;Node27</title>
<path fill="none" stroke="#63b8ff" d="M1320.93,-164.51C1367.18,-154.93 1440.11,-139.83 1487.38,-130.05"/>
<polygon fill="#63b8ff" stroke="#63b8ff" points="1487.95,-133.5 1497.03,-128.05 1486.53,-126.65 1487.95,-133.5"/>
</g>
<!-- Node32&#45;&gt;Node13 -->
<g id="edge69" class="edge">
<title>Node32&#45;&gt;Node13</title>
<path fill="none" stroke="#63b8ff" d="M1355.73,-164.75C1278.44,-153.62 1147.47,-134.75 1084.46,-125.68"/>
<polygon fill="#63b8ff" stroke="#63b8ff" points="1085.05,-122.23 1074.66,-124.27 1084.06,-129.16 1085.05,-122.23"/>
</g>
<!-- Node32&#45;&gt;Node16 -->
<g id="edge71" class="edge">
<title>Node32&#45;&gt;Node16</title>
<path fill="none" stroke="#63b8ff" d="M1385.63,-164.5C1336.79,-150.62 1238.53,-124.12 1153.5,-110 1000.73,-84.63 818.09,-72.71 728.16,-68.03"/>
<polygon fill="#63b8ff" stroke="#63b8ff" points="728.55,-64.55 718.39,-67.53 728.2,-71.54 728.55,-64.55"/>
</g>
<!-- Node32&#45;&gt;Node27 -->
<g id="edge70" class="edge">
<title>Node32&#45;&gt;Node27</title>
<path fill="none" stroke="#63b8ff" d="M1436.35,-164.51C1454.78,-156.16 1482.48,-143.61 1503.59,-134.05"/>
<polygon fill="#63b8ff" stroke="#63b8ff" points="1504.9,-137.3 1512.57,-129.98 1502.01,-130.92 1504.9,-137.3"/>
</g>
<!-- Node33&#45;&gt;Node13 -->
<g id="edge73" class="edge">
<title>Node33&#45;&gt;Node13</title>
<path fill="none" stroke="#63b8ff" d="M1495.12,-166.21C1492.2,-165.78 1489.31,-165.37 1486.5,-165 1337.62,-145.29 1159.25,-129.62 1084.37,-123.4"/>
<polygon fill="#63b8ff" stroke="#63b8ff" points="1085.02,-119.94 1074.77,-122.61 1084.45,-126.92 1085.02,-119.94"/>
</g>
<!-- Node33&#45;&gt;Node16 -->
<g id="edge75" class="edge">
<title>Node33&#45;&gt;Node16</title>
<path fill="none" stroke="#63b8ff" d="M1499.6,-164.54C1438.41,-150.78 1315.79,-124.5 1210.5,-110 1035.41,-85.88 826.33,-73.15 728.35,-68.12"/>
<polygon fill="#63b8ff" stroke="#63b8ff" points="728.64,-64.63 718.48,-67.62 728.29,-71.62 728.64,-64.63"/>
</g>
<!-- Node33&#45;&gt;Node27 -->
<g id="edge74" class="edge">
<title>Node33&#45;&gt;Node27</title>
<path fill="none" stroke="#63b8ff" d="M1537.67,-164.75C1537.06,-158.27 1536.2,-149.16 1535.42,-140.9"/>
<polygon fill="#63b8ff" stroke="#63b8ff" points="1538.91,-140.58 1534.49,-130.95 1531.94,-141.23 1538.91,-140.58"/>
</g>
<!-- Node34&#45;&gt;Node13 -->
<g id="edge77" class="edge">
<title>Node34&#45;&gt;Node13</title>
<path fill="none" stroke="#63b8ff" d="M519.21,-166.11C522.35,-165.72 525.47,-165.34 528.5,-165 709.74,-144.42 927.5,-128.69 1012.26,-122.91"/>
<polygon fill="#63b8ff" stroke="#63b8ff" points="1012.3,-126.41 1022.05,-122.24 1011.83,-119.43 1012.3,-126.41"/>
</g>
<!-- Node34&#45;&gt;Node16 -->
<g id="edge78" class="edge">
<title>Node34&#45;&gt;Node16</title>
<path fill="none" stroke="#63b8ff" d="M485.19,-164.66C520.46,-145.99 602.8,-102.4 645.6,-79.74"/>
<polygon fill="#63b8ff" stroke="#63b8ff" points="647.04,-82.94 654.24,-75.17 643.76,-76.75 647.04,-82.94"/>
</g>
<!-- Node35&#45;&gt;Node13 -->
<g id="edge80" class="edge">
<title>Node35&#45;&gt;Node13</title>
<path fill="none" stroke="#63b8ff" d="M625.86,-168.47C717.85,-158.03 927.87,-134.19 1012.33,-124.6"/>
<polygon fill="#63b8ff" stroke="#63b8ff" points="1012.58,-128.1 1022.12,-123.49 1011.79,-121.14 1012.58,-128.1"/>
</g>
<!-- Node35&#45;&gt;Node16 -->
<g id="edge81" class="edge">
<title>Node35&#45;&gt;Node16</title>
<path fill="none" stroke="#63b8ff" d="M588.95,-164.66C603.94,-146.86 638.03,-106.41 657.72,-83.04"/>
<polygon fill="#63b8ff" stroke="#63b8ff" points="660.21,-85.52 663.97,-75.62 654.85,-81.01 660.21,-85.52"/>
</g>
<!-- Node36&#45;&gt;Node18 -->
<g id="edge83" class="edge">
<title>Node36&#45;&gt;Node18</title>
<path fill="none" stroke="#63b8ff" d="M150.05,-219.5C142.91,-191.17 125.29,-102.8 168.5,-55 193.3,-27.57 299.55,-16.6 357.84,-12.59"/>
<polygon fill="#63b8ff" stroke="#63b8ff" points="357.9,-16.09 367.65,-11.95 357.45,-9.11 357.9,-16.09"/>
</g>
</g>
</svg>
