<?xml version="1.0" encoding="UTF-8" standalone="no"?>
<!DOCTYPE svg PUBLIC "-//W3C//DTD SVG 1.1//EN"
 "http://www.w3.org/Graphics/SVG/1.1/DTD/svg11.dtd">
<!-- Generated by graphviz version 12.2.1 (20241206.2353)
 -->
<!-- Title: ChamberElastanceInductorExponential Pages: 1 -->
<svg width="141pt" height="149pt"
 viewBox="0.00 0.00 141.00 149.00" xmlns="http://www.w3.org/2000/svg" xmlns:xlink="http://www.w3.org/1999/xlink">
<g id="graph0" class="graph" transform="scale(1 1) rotate(0) translate(4 145)">
<title>ChamberElastanceInductorExponential</title>
<!-- Node1 -->
<g id="Node000001" class="node">
<title>Node1</title>
<g id="a_Node000001"><a xlink:title="Cardiac chamber with exponential passive pressure&#45;volume relation.">
<polygon fill="#999999" stroke="#666666" points="133,-30.5 0,-30.5 0,0 133,0 133,-30.5"/>
<text text-anchor="start" x="8" y="-17" font-family="Helvetica,sans-Serif" font-size="10.00">ChamberElastanceInductor</text>
<text text-anchor="middle" x="66.5" y="-5.75" font-family="Helvetica,sans-Serif" font-size="10.00">Exponential</text>
</a>
</g>
</g>
<!-- Node2 -->
<g id="Node000002" class="node">
<title>Node2</title>
<g id="a_Node000002"><a xlink:href="class_chamber_elastance_inductor.html" target="_top" xlink:title="Cardiac chamber with linear elastance and inductor.">
<polygon fill="white" stroke="#666666" points="133,-85.75 0,-85.75 0,-66.5 133,-66.5 133,-85.75"/>
<text text-anchor="middle" x="66.5" y="-72.25" font-family="Helvetica,sans-Serif" font-size="10.00">ChamberElastanceInductor</text>
</a>
</g>
</g>
<!-- Node2&#45;&gt;Node1 -->
<g id="edge1_Node000001_Node000002" class="edge">
<title>Node2&#45;&gt;Node1</title>
<g id="a_edge1_Node000001_Node000002"><a xlink:title=" ">
<path fill="none" stroke="#63b8ff" d="M66.5,-54.92C66.5,-46.99 66.5,-38.06 66.5,-30.78"/>
<polygon fill="#63b8ff" stroke="#63b8ff" points="63,-54.67 66.5,-64.67 70,-54.67 63,-54.67"/>
</a>
</g>
</g>
<!-- Node3 -->
<g id="Node000003" class="node">
<title>Node3</title>
<g id="a_Node000003"><a xlink:href="class_block.html" target="_top" xlink:title="Base class for 0D model components.">
<polygon fill="white" stroke="#666666" points="86.88,-141 46.12,-141 46.12,-121.75 86.88,-121.75 86.88,-141"/>
<text text-anchor="middle" x="66.5" y="-127.5" font-family="Helvetica,sans-Serif" font-size="10.00">Block</text>
</a>
</g>
</g>
<!-- Node3&#45;&gt;Node2 -->
<g id="edge2_Node000002_Node000003" class="edge">
<title>Node3&#45;&gt;Node2</title>
<g id="a_edge2_Node000002_Node000003"><a xlink:title=" ">
<path fill="none" stroke="#63b8ff" d="M66.5,-110.13C66.5,-101.84 66.5,-92.67 66.5,-86.11"/>
<polygon fill="#63b8ff" stroke="#63b8ff" points="63,-110.07 66.5,-120.07 70,-110.07 63,-110.07"/>
</a>
</g>
</g>
</g>
</svg>
