<?xml version="1.0" encoding="UTF-8" standalone="no"?>
<!DOCTYPE svg PUBLIC "-//W3C//DTD SVG 1.1//EN"
 "http://www.w3.org/Graphics/SVG/1.1/DTD/svg11.dtd">
<!-- Generated by graphviz version 12.0.0 (20240704.0754)
 -->
<!-- Title: ClosedLoopCoronaryBC Pages: 1 -->
<svg width="304pt" height="138pt"
 viewBox="0.00 0.00 304.38 137.75" xmlns="http://www.w3.org/2000/svg" xmlns:xlink="http://www.w3.org/1999/xlink">
<g id="graph0" class="graph" transform="scale(1 1) rotate(0) translate(4 133.75)">
<title>ClosedLoopCoronaryBC</title>
<!-- Node1 -->
<g id="Node000001" class="node">
<title>Node1</title>
<g id="a_Node000001"><a xlink:title="Closed loop coronary boundary condition which is connected to other blocks on both sides and the intr...">
<polygon fill="#999999" stroke="#666666" points="206.12,-74.5 86.62,-74.5 86.62,-55.25 206.12,-55.25 206.12,-74.5"/>
<text text-anchor="middle" x="146.38" y="-61" font-family="Helvetica,sans-Serif" font-size="10.00">ClosedLoopCoronaryBC</text>
</a>
</g>
</g>
<!-- Node3 -->
<g id="Node000003" class="node">
<title>Node3</title>
<g id="a_Node000003"><a xlink:href="class_closed_loop_coronary_left_b_c.html" target="_top" xlink:title="Left side of closed loop coronary boundary condition ClosedLoopCoronaryBC.">
<polygon fill="white" stroke="#666666" points="136.75,-19.25 0,-19.25 0,0 136.75,0 136.75,-19.25"/>
<text text-anchor="middle" x="68.38" y="-5.75" font-family="Helvetica,sans-Serif" font-size="10.00">ClosedLoopCoronaryLeftBC</text>
</a>
</g>
</g>
<!-- Node1&#45;&gt;Node3 -->
<g id="edge2_Node000001_Node000003" class="edge">
<title>Node1&#45;&gt;Node3</title>
<g id="a_edge2_Node000001_Node000003"><a xlink:title=" ">
<path fill="none" stroke="#63b8ff" d="M123.9,-48.53C110.23,-39.2 93.23,-27.6 81.67,-19.7"/>
<polygon fill="#63b8ff" stroke="#63b8ff" points="121.66,-51.24 131.89,-53.99 125.61,-45.46 121.66,-51.24"/>
</a>
</g>
</g>
<!-- Node4 -->
<g id="Node000004" class="node">
<title>Node4</title>
<g id="a_Node000004"><a xlink:href="class_closed_loop_coronary_right_b_c.html" target="_top" xlink:title="Right side of closed loop coronary boundary condition ClosedLoopCoronaryBC.">
<polygon fill="white" stroke="#666666" points="296.38,-19.25 154.38,-19.25 154.38,0 296.38,0 296.38,-19.25"/>
<text text-anchor="middle" x="225.38" y="-5.75" font-family="Helvetica,sans-Serif" font-size="10.00">ClosedLoopCoronaryRightBC</text>
</a>
</g>
</g>
<!-- Node1&#45;&gt;Node4 -->
<g id="edge3_Node000001_Node000004" class="edge">
<title>Node1&#45;&gt;Node4</title>
<g id="a_edge3_Node000001_Node000004"><a xlink:title=" ">
<path fill="none" stroke="#63b8ff" d="M169.14,-48.53C182.98,-39.2 200.2,-27.6 211.91,-19.7"/>
<polygon fill="#63b8ff" stroke="#63b8ff" points="167.37,-45.5 161.03,-54 171.28,-51.31 167.37,-45.5"/>
</a>
</g>
</g>
<!-- Node2 -->
<g id="Node000002" class="node">
<title>Node2</title>
<g id="a_Node000002"><a xlink:href="class_block.html" target="_top" xlink:title="Base class for 0D model components.">
<polygon fill="white" stroke="#666666" points="166.75,-129.75 126,-129.75 126,-110.5 166.75,-110.5 166.75,-129.75"/>
<text text-anchor="middle" x="146.38" y="-116.25" font-family="Helvetica,sans-Serif" font-size="10.00">Block</text>
</a>
</g>
</g>
<!-- Node2&#45;&gt;Node1 -->
<g id="edge1_Node000001_Node000002" class="edge">
<title>Node2&#45;&gt;Node1</title>
<g id="a_edge1_Node000001_Node000002"><a xlink:title=" ">
<path fill="none" stroke="#63b8ff" d="M146.38,-98.88C146.38,-90.59 146.38,-81.42 146.38,-74.86"/>
<polygon fill="#63b8ff" stroke="#63b8ff" points="142.88,-98.82 146.38,-108.82 149.88,-98.82 142.88,-98.82"/>
</a>
</g>
</g>
</g>
</svg>
