<?xml version="1.0" encoding="UTF-8" standalone="no"?>
<!DOCTYPE svg PUBLIC "-//W3C//DTD SVG 1.1//EN"
 "http://www.w3.org/Graphics/SVG/1.1/DTD/svg11.dtd">
<!-- Generated by graphviz version 12.2.1 (20241206.2353)
 -->
<!-- Title: ActivationFunction Pages: 1 -->
<svg width="379pt" height="83pt"
 viewBox="0.00 0.00 379.00 82.50" xmlns="http://www.w3.org/2000/svg" xmlns:xlink="http://www.w3.org/1999/xlink">
<g id="graph0" class="graph" transform="scale(1 1) rotate(0) translate(4 78.5)">
<title>ActivationFunction</title>
<!-- Node1 -->
<g id="Node000001" class="node">
<title>Node1</title>
<g id="a_Node000001"><a xlink:title="Base class for activation functions.">
<polygon fill="#999999" stroke="#666666" points="241.25,-74.5 144.25,-74.5 144.25,-55.25 241.25,-55.25 241.25,-74.5"/>
<text text-anchor="middle" x="192.75" y="-61" font-family="Helvetica,sans-Serif" font-size="10.00">ActivationFunction</text>
</a>
</g>
</g>
<!-- Node2 -->
<g id="Node000002" class="node">
<title>Node2</title>
<g id="a_Node000002"><a xlink:href="class_half_cosine_activation.html" target="_top" xlink:title="Half cosine activation function.">
<polygon fill="white" stroke="#666666" points="107.5,-19.25 0,-19.25 0,0 107.5,0 107.5,-19.25"/>
<text text-anchor="middle" x="53.75" y="-5.75" font-family="Helvetica,sans-Serif" font-size="10.00">HalfCosineActivation</text>
</a>
</g>
</g>
<!-- Node1&#45;&gt;Node2 -->
<g id="edge1_Node000001_Node000002" class="edge">
<title>Node1&#45;&gt;Node2</title>
<g id="a_edge1_Node000001_Node000002"><a xlink:title=" ">
<path fill="none" stroke="#63b8ff" d="M158.6,-50.79C133.4,-41.14 99.75,-28.25 77.45,-19.7"/>
<polygon fill="#63b8ff" stroke="#63b8ff" points="157.17,-53.99 167.76,-54.3 159.67,-47.45 157.17,-53.99"/>
</a>
</g>
</g>
<!-- Node3 -->
<g id="Node000003" class="node">
<title>Node3</title>
<g id="a_Node000003"><a xlink:href="class_piecewise_cosine_activation.html" target="_top" xlink:title="Piecewise cosine activation function.">
<polygon fill="white" stroke="#666666" points="260,-19.25 125.5,-19.25 125.5,0 260,0 260,-19.25"/>
<text text-anchor="middle" x="192.75" y="-5.75" font-family="Helvetica,sans-Serif" font-size="10.00">PiecewiseCosineActivation</text>
</a>
</g>
</g>
<!-- Node1&#45;&gt;Node3 -->
<g id="edge2_Node000001_Node000003" class="edge">
<title>Node1&#45;&gt;Node3</title>
<g id="a_edge2_Node000001_Node000003"><a xlink:title=" ">
<path fill="none" stroke="#63b8ff" d="M192.75,-43.63C192.75,-35.34 192.75,-26.17 192.75,-19.61"/>
<polygon fill="#63b8ff" stroke="#63b8ff" points="189.25,-43.57 192.75,-53.57 196.25,-43.57 189.25,-43.57"/>
</a>
</g>
</g>
<!-- Node4 -->
<g id="Node000004" class="node">
<title>Node4</title>
<g id="a_Node000004"><a xlink:href="class_two_hill_activation.html" target="_top" xlink:title="Two hill activation function.">
<polygon fill="white" stroke="#666666" points="371,-19.25 278.5,-19.25 278.5,0 371,0 371,-19.25"/>
<text text-anchor="middle" x="324.75" y="-5.75" font-family="Helvetica,sans-Serif" font-size="10.00">TwoHillActivation</text>
</a>
</g>
</g>
<!-- Node1&#45;&gt;Node4 -->
<g id="edge3_Node000001_Node000004" class="edge">
<title>Node1&#45;&gt;Node4</title>
<g id="a_edge3_Node000001_Node000004"><a xlink:title=" ">
<path fill="none" stroke="#63b8ff" d="M225.5,-50.66C249.4,-41.02 281.16,-28.21 302.25,-19.7"/>
<polygon fill="#63b8ff" stroke="#63b8ff" points="224.51,-47.29 216.55,-54.28 227.13,-53.78 224.51,-47.29"/>
</a>
</g>
</g>
</g>
</svg>
