<?xml version="1.0" encoding="UTF-8" standalone="no"?>
<!DOCTYPE svg PUBLIC "-//W3C//DTD SVG 1.1//EN"
 "http://www.w3.org/Graphics/SVG/1.1/DTD/svg11.dtd">
<!-- Generated by graphviz version 12.2.1 (20241206.2353)
 -->
<!-- Title: ActivationFunction Pages: 1 -->
<svg width="276pt" height="212pt"
 viewBox="0.00 0.00 275.50 212.25" xmlns="http://www.w3.org/2000/svg" xmlns:xlink="http://www.w3.org/1999/xlink">
<g id="graph0" class="graph" transform="scale(1 1) rotate(0) translate(4 208.25)">
<title>ActivationFunction</title>
<!-- Node1 -->
<g id="Node000001" class="node">
<title>Node1</title>
<g id="a_Node000001"><a xlink:title="Base class for activation functions.">
<polygon fill="#999999" stroke="#666666" points="97,-111.25 0,-111.25 0,-92 97,-92 97,-111.25"/>
<text text-anchor="middle" x="48.5" y="-97.75" font-family="Helvetica,sans-Serif" font-size="10.00">ActivationFunction</text>
</a>
</g>
</g>
<!-- Node2 -->
<g id="Node000002" class="node">
<title>Node2</title>
<g id="a_Node000002"><a xlink:href="class_double_tanh_activation.html" target="_top" xlink:title="Double tanh (systole/diastole sigmoid product) activation function.">
<polygon fill="white" stroke="#666666" points="255.88,-204.25 144.62,-204.25 144.62,-185 255.88,-185 255.88,-204.25"/>
<text text-anchor="middle" x="200.25" y="-190.75" font-family="Helvetica,sans-Serif" font-size="10.00">DoubleTanhActivation</text>
</a>
</g>
</g>
<!-- Node1&#45;&gt;Node2 -->
<g id="edge1_Node000001_Node000002" class="edge">
<title>Node1&#45;&gt;Node2</title>
<g id="a_edge1_Node000001_Node000002"><a xlink:title=" ">
<path fill="none" stroke="#63b8ff" d="M65.27,-120.06C80.83,-137.12 106.14,-162 133,-176.62 138.76,-179.76 145.1,-182.38 151.51,-184.56"/>
<polygon fill="#63b8ff" stroke="#63b8ff" points="67.93,-117.79 58.68,-112.63 62.7,-122.43 67.93,-117.79"/>
</a>
</g>
</g>
<!-- Node3 -->
<g id="Node000003" class="node">
<title>Node3</title>
<g id="a_Node000003"><a xlink:href="class_fourier_activation.html" target="_top" xlink:title="Fourier series activation function.">
<polygon fill="white" stroke="#666666" points="245,-167.25 155.5,-167.25 155.5,-148 245,-148 245,-167.25"/>
<text text-anchor="middle" x="200.25" y="-153.75" font-family="Helvetica,sans-Serif" font-size="10.00">FourierActivation</text>
</a>
</g>
</g>
<!-- Node1&#45;&gt;Node3 -->
<g id="edge2_Node000001_Node000003" class="edge">
<title>Node1&#45;&gt;Node3</title>
<g id="a_edge2_Node000001_Node000003"><a xlink:title=" ">
<path fill="none" stroke="#63b8ff" d="M79.21,-116.56C94.94,-124.11 114.74,-133.04 133,-139.62 140.96,-142.5 149.6,-145.16 157.93,-147.51"/>
<polygon fill="#63b8ff" stroke="#63b8ff" points="80.92,-113.5 70.39,-112.27 77.85,-119.8 80.92,-113.5"/>
</a>
</g>
</g>
<!-- Node4 -->
<g id="Node000004" class="node">
<title>Node4</title>
<g id="a_Node000004"><a xlink:href="class_half_cosine_activation.html" target="_top" xlink:title="Half cosine activation function.">
<polygon fill="white" stroke="#666666" points="254,-130.25 146.5,-130.25 146.5,-111 254,-111 254,-130.25"/>
<text text-anchor="middle" x="200.25" y="-116.75" font-family="Helvetica,sans-Serif" font-size="10.00">HalfCosineActivation</text>
</a>
</g>
</g>
<!-- Node1&#45;&gt;Node4 -->
<g id="edge3_Node000001_Node000004" class="edge">
<title>Node1&#45;&gt;Node4</title>
<g id="a_edge3_Node000001_Node000004"><a xlink:title=" ">
<path fill="none" stroke="#63b8ff" d="M108.5,-109.11C120.94,-110.69 133.99,-112.35 146.2,-113.89"/>
<polygon fill="#63b8ff" stroke="#63b8ff" points="109.16,-105.67 98.8,-107.88 108.27,-112.61 109.16,-105.67"/>
</a>
</g>
</g>
<!-- Node5 -->
<g id="Node000005" class="node">
<title>Node5</title>
<g id="a_Node000005"><a xlink:href="class_piecewise_cosine_activation.html" target="_top" xlink:title="Piecewise cosine activation function.">
<polygon fill="white" stroke="#666666" points="267.5,-93.25 133,-93.25 133,-74 267.5,-74 267.5,-93.25"/>
<text text-anchor="middle" x="200.25" y="-79.75" font-family="Helvetica,sans-Serif" font-size="10.00">PiecewiseCosineActivation</text>
</a>
</g>
</g>
<!-- Node1&#45;&gt;Node5 -->
<g id="edge4_Node000001_Node000005" class="edge">
<title>Node1&#45;&gt;Node5</title>
<g id="a_edge4_Node000001_Node000005"><a xlink:title=" ">
<path fill="none" stroke="#63b8ff" d="M108.59,-94.52C116.45,-93.58 124.55,-92.6 132.53,-91.64"/>
<polygon fill="#63b8ff" stroke="#63b8ff" points="108.31,-91.03 98.8,-95.7 109.14,-97.98 108.31,-91.03"/>
</a>
</g>
</g>
<!-- Node6 -->
<g id="Node000006" class="node">
<title>Node6</title>
<g id="a_Node000006"><a xlink:href="class_two_hill_activation.html" target="_top" xlink:title="Two hill activation function.">
<polygon fill="white" stroke="#666666" points="246.5,-56.25 154,-56.25 154,-37 246.5,-37 246.5,-56.25"/>
<text text-anchor="middle" x="200.25" y="-42.75" font-family="Helvetica,sans-Serif" font-size="10.00">TwoHillActivation</text>
</a>
</g>
</g>
<!-- Node1&#45;&gt;Node6 -->
<g id="edge5_Node000001_Node000006" class="edge">
<title>Node1&#45;&gt;Node6</title>
<g id="a_edge5_Node000001_Node000006"><a xlink:title=" ">
<path fill="none" stroke="#63b8ff" d="M79.88,-86.83C95.52,-79.56 115.03,-71.01 133,-64.62 141.09,-61.75 149.87,-59.07 158.31,-56.7"/>
<polygon fill="#63b8ff" stroke="#63b8ff" points="78.65,-83.54 71.11,-90.97 81.64,-89.87 78.65,-83.54"/>
</a>
</g>
</g>
<!-- Node7 -->
<g id="Node000007" class="node">
<title>Node7</title>
<g id="a_Node000007"><a xlink:href="class_wrapping_cosine_activation.html" target="_top" xlink:title="Wrapping cosine activation function.">
<polygon fill="white" stroke="#666666" points="265.25,-19.25 135.25,-19.25 135.25,0 265.25,0 265.25,-19.25"/>
<text text-anchor="middle" x="200.25" y="-5.75" font-family="Helvetica,sans-Serif" font-size="10.00">WrappingCosineActivation</text>
</a>
</g>
</g>
<!-- Node1&#45;&gt;Node7 -->
<g id="edge6_Node000001_Node000007" class="edge">
<title>Node1&#45;&gt;Node7</title>
<g id="a_edge6_Node000001_Node000007"><a xlink:title=" ">
<path fill="none" stroke="#63b8ff" d="M65.57,-83.18C81.19,-66.35 106.4,-41.99 133,-27.62 138.77,-24.51 145.12,-21.9 151.53,-19.73"/>
<polygon fill="#63b8ff" stroke="#63b8ff" points="63.05,-80.75 58.94,-90.51 68.24,-85.44 63.05,-80.75"/>
</a>
</g>
</g>
</g>
</svg>
