<?xml version="1.0" encoding="UTF-8" standalone="no"?>
<!DOCTYPE svg PUBLIC "-//W3C//DTD SVG 1.1//EN"
 "http://www.w3.org/Graphics/SVG/1.1/DTD/svg11.dtd">
<!-- Generated by graphviz version 12.0.0 (20240704.0754)
 -->
<!-- Title: ClosedLoopCoronaryLeftBC Pages: 1 -->
<svg width="145pt" height="138pt"
 viewBox="0.00 0.00 144.75 137.75" xmlns="http://www.w3.org/2000/svg" xmlns:xlink="http://www.w3.org/1999/xlink">
<g id="graph0" class="graph" transform="scale(1 1) rotate(0) translate(4 133.75)">
<title>ClosedLoopCoronaryLeftBC</title>
<!-- Node1 -->
<g id="Node000001" class="node">
<title>Node1</title>
<g id="a_Node000001"><a xlink:title="Left side of closed loop coronary boundary condition ClosedLoopCoronaryBC.">
<polygon fill="#999999" stroke="#666666" points="136.75,-19.25 0,-19.25 0,0 136.75,0 136.75,-19.25"/>
<text text-anchor="middle" x="68.38" y="-5.75" font-family="Helvetica,sans-Serif" font-size="10.00">ClosedLoopCoronaryLeftBC</text>
</a>
</g>
</g>
<!-- Node2 -->
<g id="Node000002" class="node">
<title>Node2</title>
<g id="a_Node000002"><a xlink:href="class_closed_loop_coronary_b_c.html" target="_top" xlink:title="Closed loop coronary boundary condition which is connected to other blocks on both sides and the intr...">
<polygon fill="white" stroke="#666666" points="128.12,-74.5 8.63,-74.5 8.63,-55.25 128.12,-55.25 128.12,-74.5"/>
<text text-anchor="middle" x="68.38" y="-61" font-family="Helvetica,sans-Serif" font-size="10.00">ClosedLoopCoronaryBC</text>
</a>
</g>
</g>
<!-- Node2&#45;&gt;Node1 -->
<g id="edge1_Node000001_Node000002" class="edge">
<title>Node2&#45;&gt;Node1</title>
<g id="a_edge1_Node000001_Node000002"><a xlink:title=" ">
<path fill="none" stroke="#63b8ff" d="M68.38,-43.63C68.38,-35.34 68.38,-26.17 68.38,-19.61"/>
<polygon fill="#63b8ff" stroke="#63b8ff" points="64.88,-43.57 68.38,-53.57 71.88,-43.57 64.88,-43.57"/>
</a>
</g>
</g>
<!-- Node3 -->
<g id="Node000003" class="node">
<title>Node3</title>
<g id="a_Node000003"><a xlink:href="class_block.html" target="_top" xlink:title="Base class for 0D model components.">
<polygon fill="white" stroke="#666666" points="88.75,-129.75 48,-129.75 48,-110.5 88.75,-110.5 88.75,-129.75"/>
<text text-anchor="middle" x="68.38" y="-116.25" font-family="Helvetica,sans-Serif" font-size="10.00">Block</text>
</a>
</g>
</g>
<!-- Node3&#45;&gt;Node2 -->
<g id="edge2_Node000002_Node000003" class="edge">
<title>Node3&#45;&gt;Node2</title>
<g id="a_edge2_Node000002_Node000003"><a xlink:title=" ">
<path fill="none" stroke="#63b8ff" d="M68.38,-98.88C68.38,-90.59 68.38,-81.42 68.38,-74.86"/>
<polygon fill="#63b8ff" stroke="#63b8ff" points="64.88,-98.82 68.38,-108.82 71.88,-98.82 64.88,-98.82"/>
</a>
</g>
</g>
</g>
</svg>
