<?xml version="1.0" encoding="UTF-8" standalone="no"?>
<!DOCTYPE svg PUBLIC "-//W3C//DTD SVG 1.1//EN"
 "http://www.w3.org/Graphics/SVG/1.1/DTD/svg11.dtd">
<!-- Generated by graphviz version 7.0.5 (20221223.1930)
 -->
<!-- Title: model/closedloopheartpulmonary.hpp Pages: 1 -->
<svg width="2197pt" height="467pt"
 viewBox="0.00 0.00 2197.00 467.00" xmlns="http://www.w3.org/2000/svg" xmlns:xlink="http://www.w3.org/1999/xlink">
<g id="graph0" class="graph" transform="scale(1 1) rotate(0) translate(4 463)">
<title>model/closedloopheartpulmonary.hpp</title>
<!-- Node1 -->
<g id="node1" class="node">
<title>Node1</title>
<g id="a_node1"><a xlink:title="MODEL::ClosedLoopHeartPulmonary source file.">
<polygon fill="#999999" stroke="#666666" points="1708,-459 1532,-459 1532,-440 1708,-440 1708,-459"/>
<text text-anchor="middle" x="1620" y="-447" font-family="Helvetica,sans-Serif" font-size="10.00">model/closedloopheartpulmonary.hpp</text>
</a>
</g>
</g>
<!-- Node2 -->
<g id="node2" class="node">
<title>Node2</title>
<g id="a_node2"><a xlink:title=" ">
<polygon fill="#e0e0e0" stroke="#999999" points="561,-184 515,-184 515,-165 561,-165 561,-184"/>
<text text-anchor="middle" x="538" y="-172" font-family="Helvetica,sans-Serif" font-size="10.00">math.h</text>
</a>
</g>
</g>
<!-- Node1&#45;&gt;Node2 -->
<g id="edge1" class="edge">
<title>Node1&#45;&gt;Node2</title>
<path fill="none" stroke="#63b8ff" d="M1531.71,-446.46C1220.66,-438.36 189.35,-403.37 95,-294 39.06,-229.16 390,-189.61 503.47,-178.64"/>
<polygon fill="#63b8ff" stroke="#63b8ff" points="503.46,-182.15 513.08,-177.72 502.8,-175.19 503.46,-182.15"/>
</g>
<!-- Node3 -->
<g id="node3" class="node">
<title>Node3</title>
<g id="a_node3"><a xlink:href="sparsesystem_8hpp.html" target="_top" xlink:title="ALGEBRA::SparseSystem source file.">
<polygon fill="white" stroke="#666666" points="1233.5,-404 1096.5,-404 1096.5,-385 1233.5,-385 1233.5,-404"/>
<text text-anchor="middle" x="1165" y="-392" font-family="Helvetica,sans-Serif" font-size="10.00">../algebra/sparsesystem.hpp</text>
</a>
</g>
</g>
<!-- Node1&#45;&gt;Node3 -->
<g id="edge2" class="edge">
<title>Node1&#45;&gt;Node3</title>
<path fill="none" stroke="#63b8ff" d="M1542.82,-439.51C1460.04,-429.87 1329.2,-414.63 1245.25,-404.85"/>
<polygon fill="#63b8ff" stroke="#63b8ff" points="1245.82,-401.39 1235.49,-403.71 1245.01,-408.34 1245.82,-401.39"/>
</g>
<!-- Node13 -->
<g id="node13" class="node">
<title>Node13</title>
<g id="a_node13"><a xlink:href="block_8hpp.html" target="_top" xlink:title="MODEL::Block source file.">
<polygon fill="white" stroke="#666666" points="1073,-184 1015,-184 1015,-165 1073,-165 1073,-184"/>
<text text-anchor="middle" x="1044" y="-172" font-family="Helvetica,sans-Serif" font-size="10.00">block.hpp</text>
</a>
</g>
</g>
<!-- Node1&#45;&gt;Node13 -->
<g id="edge75" class="edge">
<title>Node1&#45;&gt;Node13</title>
<path fill="none" stroke="#63b8ff" d="M1708.28,-448.48C1859.27,-446.03 2151,-429.75 2151,-340.5 2151,-340.5 2151,-340.5 2151,-283.5 2151,-174.16 1284.44,-173.76 1084.72,-175.12"/>
<polygon fill="#63b8ff" stroke="#63b8ff" points="1084.81,-171.62 1074.84,-175.19 1084.86,-178.61 1084.81,-171.62"/>
</g>
<!-- Node15 -->
<g id="node15" class="node">
<title>Node15</title>
<g id="a_node15"><a xlink:href="state_8hpp.html" target="_top" xlink:title="ALGEBRA::State source file.">
<polygon fill="white" stroke="#666666" points="1665,-129 1567,-129 1567,-110 1665,-110 1665,-129"/>
<text text-anchor="middle" x="1616" y="-117" font-family="Helvetica,sans-Serif" font-size="10.00">../algebra/state.hpp</text>
</a>
</g>
</g>
<!-- Node1&#45;&gt;Node15 -->
<g id="edge74" class="edge">
<title>Node1&#45;&gt;Node15</title>
<path fill="none" stroke="#63b8ff" d="M1708.4,-446.9C1830.3,-443.62 2043,-433.7 2114,-404 2154.29,-387.14 2189,-384.18 2189,-340.5 2189,-340.5 2189,-340.5 2189,-228.5 2189,-176.76 1823.62,-138.79 1676.4,-125.58"/>
<polygon fill="#63b8ff" stroke="#63b8ff" points="1677.13,-122.14 1666.86,-124.74 1676.51,-129.11 1677.13,-122.14"/>
</g>
<!-- Node4 -->
<g id="node4" class="node">
<title>Node4</title>
<g id="a_node4"><a xlink:title=" ">
<polygon fill="#e0e0e0" stroke="#999999" points="987,-349 913,-349 913,-330 987,-330 987,-349"/>
<text text-anchor="middle" x="950" y="-337" font-family="Helvetica,sans-Serif" font-size="10.00">Eigen/Sparse</text>
</a>
</g>
</g>
<!-- Node3&#45;&gt;Node4 -->
<g id="edge3" class="edge">
<title>Node3&#45;&gt;Node4</title>
<path fill="none" stroke="#63b8ff" d="M1128.53,-384.51C1092.36,-375.59 1036.77,-361.89 997.24,-352.15"/>
<polygon fill="#63b8ff" stroke="#63b8ff" points="998.31,-348.8 987.76,-349.81 996.63,-355.6 998.31,-348.8"/>
</g>
<!-- Node5 -->
<g id="node5" class="node">
<title>Node5</title>
<g id="a_node5"><a xlink:title=" ">
<polygon fill="#e0e0e0" stroke="#999999" points="1093,-349 1005,-349 1005,-330 1093,-330 1093,-349"/>
<text text-anchor="middle" x="1049" y="-337" font-family="Helvetica,sans-Serif" font-size="10.00">Eigen/SparseLU</text>
</a>
</g>
</g>
<!-- Node3&#45;&gt;Node5 -->
<g id="edge4" class="edge">
<title>Node3&#45;&gt;Node5</title>
<path fill="none" stroke="#63b8ff" d="M1145.32,-384.51C1127.05,-376.16 1099.59,-363.61 1078.65,-354.05"/>
<polygon fill="#63b8ff" stroke="#63b8ff" points="1080.31,-350.96 1069.76,-349.99 1077.4,-357.33 1080.31,-350.96"/>
</g>
<!-- Node6 -->
<g id="node6" class="node">
<title>Node6</title>
<g id="a_node6"><a xlink:title=" ">
<polygon fill="#e0e0e0" stroke="#999999" points="1165,-349 1111,-349 1111,-330 1165,-330 1165,-349"/>
<text text-anchor="middle" x="1138" y="-337" font-family="Helvetica,sans-Serif" font-size="10.00">iostream</text>
</a>
</g>
</g>
<!-- Node3&#45;&gt;Node6 -->
<g id="edge5" class="edge">
<title>Node3&#45;&gt;Node6</title>
<path fill="none" stroke="#63b8ff" d="M1160.54,-384.75C1157.05,-377.88 1152.05,-368.08 1147.65,-359.45"/>
<polygon fill="#63b8ff" stroke="#63b8ff" points="1150.9,-358.11 1143.24,-350.79 1144.66,-361.29 1150.9,-358.11"/>
</g>
<!-- Node7 -->
<g id="node7" class="node">
<title>Node7</title>
<g id="a_node7"><a xlink:href="model_8hpp.html" target="_top" xlink:title="MODEL::Model source file.">
<polygon fill="white" stroke="#666666" points="819,-349 721,-349 721,-330 819,-330 819,-349"/>
<text text-anchor="middle" x="770" y="-337" font-family="Helvetica,sans-Serif" font-size="10.00">../model/model.hpp</text>
</a>
</g>
</g>
<!-- Node3&#45;&gt;Node7 -->
<g id="edge6" class="edge">
<title>Node3&#45;&gt;Node7</title>
<path fill="none" stroke="#63b8ff" d="M1096.22,-385.19C1029.82,-376.6 926.34,-362.76 830.68,-349.9"/>
<polygon fill="#63b8ff" stroke="#63b8ff" points="831.23,-346.44 820.85,-348.58 830.3,-353.38 831.23,-346.44"/>
</g>
<!-- Node7&#45;&gt;Node1 -->
<g id="edge39" class="edge">
<title>Node7&#45;&gt;Node1</title>
<path fill="none" stroke="#63b8ff" d="M807.34,-349.42C866.36,-363.2 985.02,-389.58 1087,-404 1237.36,-425.27 1413.13,-437.52 1520.48,-443.6"/>
<polygon fill="#63b8ff" stroke="#63b8ff" points="1520.25,-447.09 1530.43,-444.16 1520.64,-440.1 1520.25,-447.09"/>
</g>
<!-- Node7&#45;&gt;Node3 -->
<g id="edge11" class="edge">
<title>Node7&#45;&gt;Node3</title>
<path fill="none" stroke="#63b8ff" d="M819.17,-345.95C826.86,-346.96 834.67,-348.01 842,-349 928.77,-360.67 1028.29,-374 1093.74,-383.01"/>
<polygon fill="#63b8ff" stroke="#63b8ff" points="1092.86,-386.42 1103.25,-384.32 1093.82,-379.48 1092.86,-386.42"/>
</g>
<!-- Node8 -->
<g id="node8" class="node">
<title>Node8</title>
<g id="a_node8"><a xlink:title=" ">
<polygon fill="#e0e0e0" stroke="#999999" points="160,-294 104,-294 104,-275 160,-275 160,-294"/>
<text text-anchor="middle" x="132" y="-282" font-family="Helvetica,sans-Serif" font-size="10.00">algorithm</text>
</a>
</g>
</g>
<!-- Node7&#45;&gt;Node8 -->
<g id="edge7" class="edge">
<title>Node7&#45;&gt;Node8</title>
<path fill="none" stroke="#63b8ff" d="M720.64,-337.38C619.4,-334.54 380.87,-325.04 171.41,-294.12"/>
<polygon fill="#63b8ff" stroke="#63b8ff" points="172.1,-290.69 161.69,-292.67 171.07,-297.61 172.1,-290.69"/>
</g>
<!-- Node9 -->
<g id="node9" class="node">
<title>Node9</title>
<g id="a_node9"><a xlink:title=" ">
<polygon fill="#e0e0e0" stroke="#999999" points="207.5,-294 178.5,-294 178.5,-275 207.5,-275 207.5,-294"/>
<text text-anchor="middle" x="193" y="-282" font-family="Helvetica,sans-Serif" font-size="10.00">list</text>
</a>
</g>
</g>
<!-- Node7&#45;&gt;Node9 -->
<g id="edge8" class="edge">
<title>Node7&#45;&gt;Node9</title>
<path fill="none" stroke="#63b8ff" d="M720.8,-339.03C625.18,-339.09 407.74,-334.55 219.15,-294.14"/>
<polygon fill="#63b8ff" stroke="#63b8ff" points="219.91,-290.72 209.4,-292.01 218.42,-297.56 219.91,-290.72"/>
</g>
<!-- Node10 -->
<g id="node10" class="node">
<title>Node10</title>
<g id="a_node10"><a xlink:title=" ">
<polygon fill="#e0e0e0" stroke="#999999" points="276.5,-294 225.5,-294 225.5,-275 276.5,-275 276.5,-294"/>
<text text-anchor="middle" x="251" y="-282" font-family="Helvetica,sans-Serif" font-size="10.00">memory</text>
</a>
</g>
</g>
<!-- Node7&#45;&gt;Node10 -->
<g id="edge9" class="edge">
<title>Node7&#45;&gt;Node10</title>
<path fill="none" stroke="#63b8ff" d="M720.81,-335.83C633.77,-330.68 447.05,-317.75 291,-294 289.99,-293.85 288.96,-293.68 287.93,-293.51"/>
<polygon fill="#63b8ff" stroke="#63b8ff" points="288.7,-290.09 278.23,-291.71 287.42,-296.98 288.7,-290.09"/>
</g>
<!-- Node11 -->
<g id="node11" class="node">
<title>Node11</title>
<g id="a_node11"><a xlink:title=" ">
<polygon fill="#e0e0e0" stroke="#999999" points="722,-19 678,-19 678,0 722,0 722,-19"/>
<text text-anchor="middle" x="700" y="-7" font-family="Helvetica,sans-Serif" font-size="10.00">vector</text>
</a>
</g>
</g>
<!-- Node7&#45;&gt;Node11 -->
<g id="edge10" class="edge">
<title>Node7&#45;&gt;Node11</title>
<path fill="none" stroke="#63b8ff" d="M720.67,-337.66C568.52,-334.75 113.24,-323.65 54,-294 20.87,-277.42 0,-267.55 0,-230.5 0,-230.5 0,-230.5 0,-118.5 0,-50.25 526.55,-19.15 666.29,-12.09"/>
<polygon fill="#63b8ff" stroke="#63b8ff" points="666.18,-15.61 675.99,-11.61 665.83,-8.61 666.18,-15.61"/>
</g>
<!-- Node12 -->
<g id="node12" class="node">
<title>Node12</title>
<g id="a_node12"><a xlink:href="bloodvessel_8hpp.html" target="_top" xlink:title="MODEL::BloodVessel source file.">
<polygon fill="white" stroke="#666666" points="599.5,-239 476.5,-239 476.5,-220 599.5,-220 599.5,-239"/>
<text text-anchor="middle" x="538" y="-227" font-family="Helvetica,sans-Serif" font-size="10.00">../model/bloodvessel.hpp</text>
</a>
</g>
</g>
<!-- Node7&#45;&gt;Node12 -->
<g id="edge12" class="edge">
<title>Node7&#45;&gt;Node12</title>
<path fill="none" stroke="#63b8ff" d="M720.63,-331.54C686.77,-325.27 641.7,-313.88 606,-294 584.7,-282.14 564.88,-262.19 552.2,-247.81"/>
<polygon fill="#63b8ff" stroke="#63b8ff" points="555.08,-245.8 545.93,-240.46 549.75,-250.35 555.08,-245.8"/>
</g>
<!-- Node7&#45;&gt;Node13 -->
<g id="edge69" class="edge">
<title>Node7&#45;&gt;Node13</title>
<path fill="none" stroke="#63b8ff" d="M771.62,-329.92C774.58,-316.48 782.08,-290.43 798,-275 856.09,-218.68 950.24,-192.81 1003.65,-182.11"/>
<polygon fill="#63b8ff" stroke="#63b8ff" points="1004.06,-185.6 1013.23,-180.28 1002.75,-178.72 1004.06,-185.6"/>
</g>
<!-- Node16 -->
<g id="node16" class="node">
<title>Node16</title>
<g id="a_node16"><a xlink:href="dofhandler_8hpp.html" target="_top" xlink:title="MODEL::DOFHandler source file.">
<polygon fill="white" stroke="#666666" points="846,-74 766,-74 766,-55 846,-55 846,-74"/>
<text text-anchor="middle" x="806" y="-62" font-family="Helvetica,sans-Serif" font-size="10.00">dofhandler.hpp</text>
</a>
</g>
</g>
<!-- Node7&#45;&gt;Node16 -->
<g id="edge71" class="edge">
<title>Node7&#45;&gt;Node16</title>
<path fill="none" stroke="#63b8ff" d="M720.55,-337.62C572.98,-334.65 142.49,-323.55 87,-294 55.54,-277.24 38,-266.15 38,-230.5 38,-230.5 38,-230.5 38,-173.5 38,-100.99 581.84,-74.04 754.24,-67.31"/>
<polygon fill="#63b8ff" stroke="#63b8ff" points="754.15,-70.82 764.01,-66.94 753.88,-63.83 754.15,-70.82"/>
</g>
<!-- Node18 -->
<g id="node18" class="node">
<title>Node18</title>
<g id="a_node18"><a xlink:href="node_8hpp.html" target="_top" xlink:title="MODEL::Node source file.">
<polygon fill="white" stroke="#666666" points="869,-129 813,-129 813,-110 869,-110 869,-129"/>
<text text-anchor="middle" x="841" y="-117" font-family="Helvetica,sans-Serif" font-size="10.00">node.hpp</text>
</a>
</g>
</g>
<!-- Node7&#45;&gt;Node18 -->
<g id="edge72" class="edge">
<title>Node7&#45;&gt;Node18</title>
<path fill="none" stroke="#63b8ff" d="M720.54,-339.04C572.02,-340.14 137.52,-339.41 95,-294 89.23,-287.84 89.87,-281.71 95,-275 182.38,-160.64 660.34,-129.06 801.64,-122.16"/>
<polygon fill="#63b8ff" stroke="#63b8ff" points="801.41,-125.68 811.23,-121.71 801.08,-118.69 801.41,-125.68"/>
</g>
<!-- Node19 -->
<g id="node19" class="node">
<title>Node19</title>
<g id="a_node19"><a xlink:href="bloodvesseljunction_8hpp.html" target="_top" xlink:title="MODEL::BloodVesselJunction source file.">
<polygon fill="white" stroke="#666666" points="490.5,-294 333.5,-294 333.5,-275 490.5,-275 490.5,-294"/>
<text text-anchor="middle" x="412" y="-282" font-family="Helvetica,sans-Serif" font-size="10.00">../model/bloodvesseljunction.hpp</text>
</a>
</g>
</g>
<!-- Node7&#45;&gt;Node19 -->
<g id="edge27" class="edge">
<title>Node7&#45;&gt;Node19</title>
<path fill="none" stroke="#63b8ff" d="M720.6,-331.19C659.15,-322.09 553.78,-306.49 483.51,-296.09"/>
<polygon fill="#63b8ff" stroke="#63b8ff" points="484.45,-292.69 474.04,-294.69 483.42,-299.61 484.45,-292.69"/>
</g>
<!-- Node20 -->
<g id="node20" class="node">
<title>Node20</title>
<g id="a_node20"><a xlink:href="blocktype_8hpp.html" target="_top" xlink:title="MODEL::BlockType source file.">
<polygon fill="white" stroke="#666666" points="382,-239 306,-239 306,-220 382,-220 382,-239"/>
<text text-anchor="middle" x="344" y="-227" font-family="Helvetica,sans-Serif" font-size="10.00">blocktype.hpp</text>
</a>
</g>
</g>
<!-- Node7&#45;&gt;Node20 -->
<g id="edge70" class="edge">
<title>Node7&#45;&gt;Node20</title>
<path fill="none" stroke="#63b8ff" d="M720.72,-337.23C610.22,-333.89 350.24,-322.99 324,-294 312.64,-281.45 320.82,-262.48 329.91,-248.54"/>
<polygon fill="#63b8ff" stroke="#63b8ff" points="332.56,-250.84 335.53,-240.67 326.87,-246.77 332.56,-250.84"/>
</g>
<!-- Node21 -->
<g id="node21" class="node">
<title>Node21</title>
<g id="a_node21"><a xlink:href="closedloop_r_c_rbc_8hpp.html" target="_top" xlink:title="MODEL::ClosedLoopRCRBC source file.">
<polygon fill="white" stroke="#666666" points="1777.5,-294 1628.5,-294 1628.5,-275 1777.5,-275 1777.5,-294"/>
<text text-anchor="middle" x="1703" y="-282" font-family="Helvetica,sans-Serif" font-size="10.00">../model/closedloopRCRbc.hpp</text>
</a>
</g>
</g>
<!-- Node7&#45;&gt;Node21 -->
<g id="edge32" class="edge">
<title>Node7&#45;&gt;Node21</title>
<path fill="none" stroke="#63b8ff" d="M819.31,-335.22C844.62,-333.57 875.96,-331.6 904,-330 1217.94,-312.14 1299.82,-317.88 1616.98,-294.11"/>
<polygon fill="#63b8ff" stroke="#63b8ff" points="1617.14,-297.61 1626.85,-293.36 1616.62,-290.63 1617.14,-297.61"/>
</g>
<!-- Node22 -->
<g id="node22" class="node">
<title>Node22</title>
<g id="a_node22"><a xlink:href="closedloopcoronarybc_8hpp.html" target="_top" xlink:title="MODEL::ClosedLoopCoronaryBC source file.">
<polygon fill="white" stroke="#666666" points="2122.5,-294 1957.5,-294 1957.5,-275 2122.5,-275 2122.5,-294"/>
<text text-anchor="middle" x="2040" y="-282" font-family="Helvetica,sans-Serif" font-size="10.00">../model/closedloopcoronarybc.hpp</text>
</a>
</g>
</g>
<!-- Node7&#45;&gt;Node22 -->
<g id="edge35" class="edge">
<title>Node7&#45;&gt;Node22</title>
<path fill="none" stroke="#63b8ff" d="M819.3,-335.05C844.61,-333.36 875.95,-331.39 904,-330 1350.4,-307.85 1462.61,-316.47 1909,-294 1920.94,-293.4 1933.48,-292.69 1945.88,-291.94"/>
<polygon fill="#63b8ff" stroke="#63b8ff" points="1945.94,-295.44 1955.7,-291.33 1945.5,-288.45 1945.94,-295.44"/>
</g>
<!-- Node23 -->
<g id="node23" class="node">
<title>Node23</title>
<g id="a_node23"><a xlink:href="flowreferencebc_8hpp.html" target="_top" xlink:title="MODEL::FlowReferenceBC source file.">
<polygon fill="white" stroke="#666666" points="947,-294 807,-294 807,-275 947,-275 947,-294"/>
<text text-anchor="middle" x="877" y="-282" font-family="Helvetica,sans-Serif" font-size="10.00">../model/flowreferencebc.hpp</text>
</a>
</g>
</g>
<!-- Node7&#45;&gt;Node23 -->
<g id="edge40" class="edge">
<title>Node7&#45;&gt;Node23</title>
<path fill="none" stroke="#63b8ff" d="M788.15,-329.51C804.78,-321.27 829.64,-308.96 848.85,-299.45"/>
<polygon fill="#63b8ff" stroke="#63b8ff" points="850.35,-302.6 857.76,-295.03 847.25,-296.33 850.35,-302.6"/>
</g>
<!-- Node24 -->
<g id="node24" class="node">
<title>Node24</title>
<g id="a_node24"><a xlink:href="parameter_8hpp.html" target="_top" xlink:title="MODEL::Parameter source file.">
<polygon fill="white" stroke="#666666" points="720,-239 642,-239 642,-220 720,-220 720,-239"/>
<text text-anchor="middle" x="681" y="-227" font-family="Helvetica,sans-Serif" font-size="10.00">parameter.hpp</text>
</a>
</g>
</g>
<!-- Node7&#45;&gt;Node24 -->
<g id="edge73" class="edge">
<title>Node7&#45;&gt;Node24</title>
<path fill="none" stroke="#63b8ff" d="M720.86,-331.04C680.17,-323.73 626.98,-311.2 614,-294 599.54,-274.83 624.95,-256.35 648.52,-244.32"/>
<polygon fill="#63b8ff" stroke="#63b8ff" points="649.87,-247.55 657.37,-240.07 646.84,-241.24 649.87,-247.55"/>
</g>
<!-- Node26 -->
<g id="node26" class="node">
<title>Node26</title>
<g id="a_node26"><a xlink:href="junction_8hpp.html" target="_top" xlink:title="MODEL::Junction source file.">
<polygon fill="white" stroke="#666666" points="1900.5,-294 1795.5,-294 1795.5,-275 1900.5,-275 1900.5,-294"/>
<text text-anchor="middle" x="1848" y="-282" font-family="Helvetica,sans-Serif" font-size="10.00">../model/junction.hpp</text>
</a>
</g>
</g>
<!-- Node7&#45;&gt;Node26 -->
<g id="edge48" class="edge">
<title>Node7&#45;&gt;Node26</title>
<path fill="none" stroke="#63b8ff" d="M819.31,-335.11C844.62,-333.43 875.95,-331.46 904,-330 1292.06,-309.77 1393.29,-328.32 1783.93,-294.08"/>
<polygon fill="#63b8ff" stroke="#63b8ff" points="1784.11,-297.58 1793.77,-293.21 1783.5,-290.6 1784.11,-297.58"/>
</g>
<!-- Node27 -->
<g id="node27" class="node">
<title>Node27</title>
<g id="a_node27"><a xlink:href="openloopcoronarybc_8hpp.html" target="_top" xlink:title="MODEL::OpenLoopCoronaryBC source file.">
<polygon fill="white" stroke="#666666" points="1123,-294 965,-294 965,-275 1123,-275 1123,-294"/>
<text text-anchor="middle" x="1044" y="-282" font-family="Helvetica,sans-Serif" font-size="10.00">../model/openloopcoronarybc.hpp</text>
</a>
</g>
</g>
<!-- Node7&#45;&gt;Node27 -->
<g id="edge51" class="edge">
<title>Node7&#45;&gt;Node27</title>
<path fill="none" stroke="#63b8ff" d="M816.48,-329.51C863.46,-320.42 936.16,-306.36 986.69,-296.59"/>
<polygon fill="#63b8ff" stroke="#63b8ff" points="987.11,-300.07 996.26,-294.73 985.78,-293.2 987.11,-300.07"/>
</g>
<!-- Node28 -->
<g id="node28" class="node">
<title>Node28</title>
<g id="a_node28"><a xlink:href="pressurereferencebc_8hpp.html" target="_top" xlink:title="MODEL::PressureReferenceBC source file.">
<polygon fill="white" stroke="#666666" points="1301,-294 1141,-294 1141,-275 1301,-275 1301,-294"/>
<text text-anchor="middle" x="1221" y="-282" font-family="Helvetica,sans-Serif" font-size="10.00">../model/pressurereferencebc.hpp</text>
</a>
</g>
</g>
<!-- Node7&#45;&gt;Node28 -->
<g id="edge55" class="edge">
<title>Node7&#45;&gt;Node28</title>
<path fill="none" stroke="#63b8ff" d="M819.12,-332.73C894.48,-323.87 1039.7,-306.81 1133.39,-295.8"/>
<polygon fill="#63b8ff" stroke="#63b8ff" points="1133.52,-299.3 1143.05,-294.66 1132.71,-292.35 1133.52,-299.3"/>
</g>
<!-- Node29 -->
<g id="node29" class="node">
<title>Node29</title>
<g id="a_node29"><a xlink:href="resistancebc_8hpp.html" target="_top" xlink:title="MODEL::ResistanceBC source file.">
<polygon fill="white" stroke="#666666" points="750.5,-294 623.5,-294 623.5,-275 750.5,-275 750.5,-294"/>
<text text-anchor="middle" x="687" y="-282" font-family="Helvetica,sans-Serif" font-size="10.00">../model/resistancebc.hpp</text>
</a>
</g>
</g>
<!-- Node7&#45;&gt;Node29 -->
<g id="edge59" class="edge">
<title>Node7&#45;&gt;Node29</title>
<path fill="none" stroke="#63b8ff" d="M755.92,-329.51C743.44,-321.54 724.98,-309.75 710.31,-300.38"/>
<polygon fill="#63b8ff" stroke="#63b8ff" points="712.46,-297.6 702.15,-295.17 708.69,-303.5 712.46,-297.6"/>
</g>
<!-- Node30 -->
<g id="node30" class="node">
<title>Node30</title>
<g id="a_node30"><a xlink:href="resistivejunction_8hpp.html" target="_top" xlink:title="MODEL::ResistiveJunction source file.">
<polygon fill="white" stroke="#666666" points="1461,-294 1319,-294 1319,-275 1461,-275 1461,-294"/>
<text text-anchor="middle" x="1390" y="-282" font-family="Helvetica,sans-Serif" font-size="10.00">../model/resistivejunction.hpp</text>
</a>
</g>
</g>
<!-- Node7&#45;&gt;Node30 -->
<g id="edge63" class="edge">
<title>Node7&#45;&gt;Node30</title>
<path fill="none" stroke="#63b8ff" d="M819.17,-334.84C912.21,-327.83 1120.69,-311.71 1307.49,-294.22"/>
<polygon fill="#63b8ff" stroke="#63b8ff" points="1307.77,-297.7 1317.4,-293.28 1307.12,-290.73 1307.77,-297.7"/>
</g>
<!-- Node31 -->
<g id="node31" class="node">
<title>Node31</title>
<g id="a_node31"><a xlink:href="windkesselbc_8hpp.html" target="_top" xlink:title="MODEL::WindkesselBC source file.">
<polygon fill="white" stroke="#666666" points="1610.5,-294 1479.5,-294 1479.5,-275 1610.5,-275 1610.5,-294"/>
<text text-anchor="middle" x="1545" y="-282" font-family="Helvetica,sans-Serif" font-size="10.00">../model/windkesselbc.hpp</text>
</a>
</g>
</g>
<!-- Node7&#45;&gt;Node31 -->
<g id="edge66" class="edge">
<title>Node7&#45;&gt;Node31</title>
<path fill="none" stroke="#63b8ff" d="M819.46,-335.36C965.96,-326.07 1391.76,-299.06 1467.77,-293.95"/>
<polygon fill="#63b8ff" stroke="#63b8ff" points="1467.93,-297.45 1477.66,-293.25 1467.44,-290.47 1467.93,-297.45"/>
</g>
<!-- Node12&#45;&gt;Node2 -->
<g id="edge13" class="edge">
<title>Node12&#45;&gt;Node2</title>
<path fill="none" stroke="#63b8ff" d="M538,-219.75C538,-213.27 538,-204.16 538,-195.9"/>
<polygon fill="#63b8ff" stroke="#63b8ff" points="541.5,-195.96 538,-185.96 534.5,-195.96 541.5,-195.96"/>
</g>
<!-- Node12&#45;&gt;Node3 -->
<g id="edge14" class="edge">
<title>Node12&#45;&gt;Node3</title>
<path fill="none" stroke="#63b8ff" d="M541.36,-239.08C547.01,-252.52 559.65,-278.57 578,-294 627.28,-335.43 649.53,-333.47 712,-349 839.78,-380.77 993.13,-390.04 1084.63,-392.63"/>
<polygon fill="#63b8ff" stroke="#63b8ff" points="1084.43,-396.13 1094.51,-392.89 1084.61,-389.13 1084.43,-396.13"/>
</g>
<!-- Node12&#45;&gt;Node13 -->
<g id="edge15" class="edge">
<title>Node12&#45;&gt;Node13</title>
<path fill="none" stroke="#63b8ff" d="M599.79,-222.03C704.65,-211.04 914.64,-189.05 1003.16,-179.78"/>
<polygon fill="#63b8ff" stroke="#63b8ff" points="1003.49,-183.26 1013.07,-178.74 1002.76,-176.3 1003.49,-183.26"/>
</g>
<!-- Node13&#45;&gt;Node3 -->
<g id="edge18" class="edge">
<title>Node13&#45;&gt;Node3</title>
<path fill="none" stroke="#63b8ff" d="M1073.08,-176.58C1217.42,-182.25 1852.32,-210.74 1909,-275 1998.68,-376.68 1455.21,-391.39 1245.23,-393.3"/>
<polygon fill="#63b8ff" stroke="#63b8ff" points="1245.47,-389.8 1235.5,-393.39 1245.53,-396.8 1245.47,-389.8"/>
</g>
<!-- Node13&#45;&gt;Node11 -->
<g id="edge17" class="edge">
<title>Node13&#45;&gt;Node11</title>
<path fill="none" stroke="#63b8ff" d="M1014.59,-174.07C967.14,-173.73 872.15,-167.74 804,-129 761.12,-104.63 727.09,-55.86 710.68,-29.11"/>
<polygon fill="#63b8ff" stroke="#63b8ff" points="713.82,-27.54 705.7,-20.73 707.8,-31.12 713.82,-27.54"/>
</g>
<!-- Node14 -->
<g id="node14" class="node">
<title>Node14</title>
<g id="a_node14"><a xlink:title=" ">
<polygon fill="#e0e0e0" stroke="#999999" points="940.5,-19 905.5,-19 905.5,0 940.5,0 940.5,-19"/>
<text text-anchor="middle" x="923" y="-7" font-family="Helvetica,sans-Serif" font-size="10.00">map</text>
</a>
</g>
</g>
<!-- Node13&#45;&gt;Node14 -->
<g id="edge16" class="edge">
<title>Node13&#45;&gt;Node14</title>
<path fill="none" stroke="#63b8ff" d="M1037.49,-164.74C1018.37,-138.98 962.07,-63.13 936.23,-28.33"/>
<polygon fill="#63b8ff" stroke="#63b8ff" points="939.21,-26.47 930.44,-20.52 933.59,-30.64 939.21,-26.47"/>
</g>
<!-- Node13&#45;&gt;Node15 -->
<g id="edge19" class="edge">
<title>Node13&#45;&gt;Node15</title>
<path fill="none" stroke="#63b8ff" d="M1073.15,-170.8C1162.47,-162.52 1433.67,-137.39 1555.55,-126.1"/>
<polygon fill="#63b8ff" stroke="#63b8ff" points="1555.72,-129.6 1565.36,-125.19 1555.08,-122.63 1555.72,-129.6"/>
</g>
<!-- Node13&#45;&gt;Node16 -->
<g id="edge20" class="edge">
<title>Node13&#45;&gt;Node16</title>
<path fill="none" stroke="#63b8ff" d="M1019.24,-164.66C995.95,-156.15 960.23,-142.6 930,-129 895.61,-113.53 857.11,-93.35 832.26,-79.93"/>
<polygon fill="#63b8ff" stroke="#63b8ff" points="833.98,-76.88 823.52,-75.18 830.64,-83.03 833.98,-76.88"/>
</g>
<!-- Node13&#45;&gt;Node18 -->
<g id="edge24" class="edge">
<title>Node13&#45;&gt;Node18</title>
<path fill="none" stroke="#63b8ff" d="M1014.92,-165.91C979.59,-156.68 919.86,-141.09 880.42,-130.79"/>
<polygon fill="#63b8ff" stroke="#63b8ff" points="881.4,-127.43 870.84,-128.29 879.63,-134.2 881.4,-127.43"/>
</g>
<!-- Node16&#45;&gt;Node11 -->
<g id="edge23" class="edge">
<title>Node16&#45;&gt;Node11</title>
<path fill="none" stroke="#63b8ff" d="M788.02,-54.51C771.55,-46.27 746.91,-33.96 727.89,-24.45"/>
<polygon fill="#63b8ff" stroke="#63b8ff" points="729.58,-21.38 719.07,-20.03 726.45,-27.64 729.58,-21.38"/>
</g>
<!-- Node16&#45;&gt;Node14 -->
<g id="edge21" class="edge">
<title>Node16&#45;&gt;Node14</title>
<path fill="none" stroke="#63b8ff" d="M825.85,-54.51C844.83,-45.91 873.66,-32.85 894.98,-23.19"/>
<polygon fill="#63b8ff" stroke="#63b8ff" points="896.31,-26.43 903.98,-19.12 893.42,-20.06 896.31,-26.43"/>
</g>
<!-- Node17 -->
<g id="node17" class="node">
<title>Node17</title>
<g id="a_node17"><a xlink:title=" ">
<polygon fill="#e0e0e0" stroke="#999999" points="846.5,-19 805.5,-19 805.5,0 846.5,0 846.5,-19"/>
<text text-anchor="middle" x="826" y="-7" font-family="Helvetica,sans-Serif" font-size="10.00">string</text>
</a>
</g>
</g>
<!-- Node16&#45;&gt;Node17 -->
<g id="edge22" class="edge">
<title>Node16&#45;&gt;Node17</title>
<path fill="none" stroke="#63b8ff" d="M809.3,-54.75C811.83,-48.04 815.43,-38.52 818.63,-30.02"/>
<polygon fill="#63b8ff" stroke="#63b8ff" points="821.84,-31.45 822.09,-20.86 815.29,-28.98 821.84,-31.45"/>
</g>
<!-- Node18&#45;&gt;Node16 -->
<g id="edge26" class="edge">
<title>Node18&#45;&gt;Node16</title>
<path fill="none" stroke="#63b8ff" d="M835.22,-109.75C830.59,-102.73 823.93,-92.64 818.13,-83.87"/>
<polygon fill="#63b8ff" stroke="#63b8ff" points="821.17,-82.12 812.74,-75.71 815.33,-85.98 821.17,-82.12"/>
</g>
<!-- Node18&#45;&gt;Node17 -->
<g id="edge25" class="edge">
<title>Node18&#45;&gt;Node17</title>
<path fill="none" stroke="#63b8ff" d="M845.7,-109.77C851.72,-97.44 860.72,-74.26 855,-55 852.15,-45.41 846.51,-35.96 840.95,-28.25"/>
<polygon fill="#63b8ff" stroke="#63b8ff" points="843.78,-26.18 834.87,-20.45 838.26,-30.49 843.78,-26.18"/>
</g>
<!-- Node19&#45;&gt;Node3 -->
<g id="edge28" class="edge">
<title>Node19&#45;&gt;Node3</title>
<path fill="none" stroke="#63b8ff" d="M421.35,-294.48C437.11,-308.97 470.64,-337.11 505,-349 609.91,-385.31 932.8,-392.16 1084.59,-393.33"/>
<polygon fill="#63b8ff" stroke="#63b8ff" points="1084.56,-396.83 1094.58,-393.4 1084.6,-389.83 1084.56,-396.83"/>
</g>
<!-- Node19&#45;&gt;Node12 -->
<g id="edge31" class="edge">
<title>Node19&#45;&gt;Node12</title>
<path fill="none" stroke="#63b8ff" d="M433.37,-274.51C453.41,-266.08 483.6,-253.38 506.41,-243.79"/>
<polygon fill="#63b8ff" stroke="#63b8ff" points="507.69,-247.05 515.55,-239.94 504.97,-240.6 507.69,-247.05"/>
</g>
<!-- Node19&#45;&gt;Node13 -->
<g id="edge29" class="edge">
<title>Node19&#45;&gt;Node13</title>
<path fill="none" stroke="#63b8ff" d="M416.65,-274.59C424.72,-260.2 442.78,-232.21 467,-220 514.64,-195.98 880.42,-181.19 1003.63,-176.84"/>
<polygon fill="#63b8ff" stroke="#63b8ff" points="1003.4,-180.35 1013.27,-176.51 1003.15,-173.36 1003.4,-180.35"/>
</g>
<!-- Node19&#45;&gt;Node20 -->
<g id="edge30" class="edge">
<title>Node19&#45;&gt;Node20</title>
<path fill="none" stroke="#63b8ff" d="M400.46,-274.51C390.54,-266.77 375.99,-255.43 364.14,-246.2"/>
<polygon fill="#63b8ff" stroke="#63b8ff" points="366.6,-243.68 356.56,-240.29 362.29,-249.2 366.6,-243.68"/>
</g>
<!-- Node21&#45;&gt;Node3 -->
<g id="edge33" class="edge">
<title>Node21&#45;&gt;Node3</title>
<path fill="none" stroke="#63b8ff" d="M1658.46,-294.44C1560.77,-314.05 1327.84,-360.81 1220.68,-382.32"/>
<polygon fill="#63b8ff" stroke="#63b8ff" points="1220.08,-378.87 1210.97,-384.27 1221.46,-385.74 1220.08,-378.87"/>
</g>
<!-- Node21&#45;&gt;Node13 -->
<g id="edge34" class="edge">
<title>Node21&#45;&gt;Node13</title>
<path fill="none" stroke="#63b8ff" d="M1648.23,-274.52C1519.06,-253.36 1197.79,-200.7 1084.4,-182.12"/>
<polygon fill="#63b8ff" stroke="#63b8ff" points="1085.09,-178.69 1074.66,-180.52 1083.96,-185.6 1085.09,-178.69"/>
</g>
<!-- Node22&#45;&gt;Node1 -->
<g id="edge38" class="edge">
<title>Node22&#45;&gt;Node1</title>
<path fill="none" stroke="#63b8ff" d="M2033.57,-294.31C2023.06,-308.05 2000.89,-334.52 1976,-349 1889.87,-399.12 1777.25,-425.04 1701.96,-437.69"/>
<polygon fill="#63b8ff" stroke="#63b8ff" points="1701.47,-434.22 1692.17,-439.29 1702.6,-441.13 1701.47,-434.22"/>
</g>
<!-- Node22&#45;&gt;Node3 -->
<g id="edge36" class="edge">
<title>Node22&#45;&gt;Node3</title>
<path fill="none" stroke="#63b8ff" d="M2030.45,-294.28C2014.03,-308.77 1978.75,-337.22 1943,-349 1815.35,-391.07 1417.21,-394.64 1245.34,-394.13"/>
<polygon fill="#63b8ff" stroke="#63b8ff" points="1245.38,-390.63 1235.37,-394.1 1245.35,-397.63 1245.38,-390.63"/>
</g>
<!-- Node22&#45;&gt;Node13 -->
<g id="edge37" class="edge">
<title>Node22&#45;&gt;Node13</title>
<path fill="none" stroke="#63b8ff" d="M2030.46,-274.69C2014.05,-260.16 1978.79,-231.64 1943,-220 1860.82,-193.26 1249.38,-179.51 1084.73,-176.26"/>
<polygon fill="#63b8ff" stroke="#63b8ff" points="1084.81,-172.76 1074.74,-176.07 1084.67,-179.76 1084.81,-172.76"/>
</g>
<!-- Node23&#45;&gt;Node3 -->
<g id="edge41" class="edge">
<title>Node23&#45;&gt;Node3</title>
<path fill="none" stroke="#63b8ff" d="M878.03,-294.05C880.19,-307.92 886.52,-335.18 904,-349 931.49,-370.72 1018.78,-382.35 1084.91,-388.21"/>
<polygon fill="#63b8ff" stroke="#63b8ff" points="1084.39,-391.68 1094.65,-389.04 1084.98,-384.7 1084.39,-391.68"/>
</g>
<!-- Node23&#45;&gt;Node13 -->
<g id="edge42" class="edge">
<title>Node23&#45;&gt;Node13</title>
<path fill="none" stroke="#63b8ff" d="M890.67,-274.66C919.17,-256.23 985.24,-213.5 1020.63,-190.62"/>
<polygon fill="#63b8ff" stroke="#63b8ff" points="1022.38,-193.65 1028.87,-185.28 1018.58,-187.77 1022.38,-193.65"/>
</g>
<!-- Node23&#45;&gt;Node24 -->
<g id="edge43" class="edge">
<title>Node23&#45;&gt;Node24</title>
<path fill="none" stroke="#63b8ff" d="M843.75,-274.51C810.99,-265.65 760.75,-252.07 724.76,-242.33"/>
<polygon fill="#63b8ff" stroke="#63b8ff" points="726.11,-239.07 715.55,-239.84 724.28,-245.83 726.11,-239.07"/>
</g>
<!-- Node24&#45;&gt;Node2 -->
<g id="edge44" class="edge">
<title>Node24&#45;&gt;Node2</title>
<path fill="none" stroke="#63b8ff" d="M656.74,-219.51C633.45,-210.88 598.06,-197.76 571.98,-188.09"/>
<polygon fill="#63b8ff" stroke="#63b8ff" points="573.44,-184.9 562.85,-184.71 571.01,-191.47 573.44,-184.9"/>
</g>
<!-- Node24&#45;&gt;Node11 -->
<g id="edge46" class="edge">
<title>Node24&#45;&gt;Node11</title>
<path fill="none" stroke="#63b8ff" d="M681.77,-219.68C684.57,-187.57 694.26,-76.33 698.26,-30.49"/>
<polygon fill="#63b8ff" stroke="#63b8ff" points="701.73,-30.96 699.11,-20.69 694.76,-30.35 701.73,-30.96"/>
</g>
<!-- Node24&#45;&gt;Node16 -->
<g id="edge47" class="edge">
<title>Node24&#45;&gt;Node16</title>
<path fill="none" stroke="#63b8ff" d="M685.69,-219.56C692.43,-206.97 705.55,-183.49 719,-165 741.37,-134.24 771.25,-101.6 789.53,-82.41"/>
<polygon fill="#63b8ff" stroke="#63b8ff" points="791.81,-85.09 796.22,-75.46 786.76,-80.24 791.81,-85.09"/>
</g>
<!-- Node25 -->
<g id="node25" class="node">
<title>Node25</title>
<g id="a_node25"><a xlink:title=" ">
<polygon fill="#e0e0e0" stroke="#999999" points="779.5,-184 728.5,-184 728.5,-165 779.5,-165 779.5,-184"/>
<text text-anchor="middle" x="754" y="-172" font-family="Helvetica,sans-Serif" font-size="10.00">numeric</text>
</a>
</g>
</g>
<!-- Node24&#45;&gt;Node25 -->
<g id="edge45" class="edge">
<title>Node24&#45;&gt;Node25</title>
<path fill="none" stroke="#63b8ff" d="M693.38,-219.51C704.15,-211.7 719.97,-200.21 732.75,-190.93"/>
<polygon fill="#63b8ff" stroke="#63b8ff" points="734.54,-193.95 740.57,-185.25 730.43,-188.29 734.54,-193.95"/>
</g>
<!-- Node26&#45;&gt;Node3 -->
<g id="edge49" class="edge">
<title>Node26&#45;&gt;Node3</title>
<path fill="none" stroke="#63b8ff" d="M1795.27,-293.9C1718.76,-306.07 1572.49,-329.33 1448,-349 1374.66,-360.59 1290.61,-373.8 1233.29,-382.79"/>
<polygon fill="#63b8ff" stroke="#63b8ff" points="1233.02,-379.29 1223.68,-384.3 1234.11,-386.21 1233.02,-379.29"/>
</g>
<!-- Node26&#45;&gt;Node13 -->
<g id="edge50" class="edge">
<title>Node26&#45;&gt;Node13</title>
<path fill="none" stroke="#63b8ff" d="M1795.24,-276.07C1709.75,-264.06 1535.63,-239.74 1388,-220 1278.43,-205.35 1149.11,-188.83 1084.71,-180.65"/>
<polygon fill="#63b8ff" stroke="#63b8ff" points="1085.32,-177.2 1074.96,-179.42 1084.44,-184.15 1085.32,-177.2"/>
</g>
<!-- Node27&#45;&gt;Node3 -->
<g id="edge52" class="edge">
<title>Node27&#45;&gt;Node3</title>
<path fill="none" stroke="#63b8ff" d="M1118.63,-294.49C1139.97,-300.91 1160.96,-311.76 1174,-330 1183.11,-342.75 1179.48,-360.68 1174.37,-374.24"/>
<polygon fill="#63b8ff" stroke="#63b8ff" points="1171.16,-372.83 1170.38,-383.4 1177.58,-375.62 1171.16,-372.83"/>
</g>
<!-- Node27&#45;&gt;Node13 -->
<g id="edge53" class="edge">
<title>Node27&#45;&gt;Node13</title>
<path fill="none" stroke="#63b8ff" d="M1044,-274.66C1044,-257.57 1044,-219.61 1044,-195.92"/>
<polygon fill="#63b8ff" stroke="#63b8ff" points="1047.5,-195.97 1044,-185.97 1040.5,-195.97 1047.5,-195.97"/>
</g>
<!-- Node27&#45;&gt;Node24 -->
<g id="edge54" class="edge">
<title>Node27&#45;&gt;Node24</title>
<path fill="none" stroke="#63b8ff" d="M982.42,-274.51C911.82,-264.2 797.39,-247.49 731.71,-237.9"/>
<polygon fill="#63b8ff" stroke="#63b8ff" points="732.32,-234.46 721.92,-236.47 731.31,-241.38 732.32,-234.46"/>
</g>
<!-- Node28&#45;&gt;Node3 -->
<g id="edge56" class="edge">
<title>Node28&#45;&gt;Node3</title>
<path fill="none" stroke="#63b8ff" d="M1220.54,-294.22C1219.56,-306.94 1216.5,-331.04 1207,-349 1201.45,-359.48 1192.76,-369.28 1184.72,-377"/>
<polygon fill="#63b8ff" stroke="#63b8ff" points="1182.62,-374.18 1177.55,-383.49 1187.31,-379.38 1182.62,-374.18"/>
</g>
<!-- Node28&#45;&gt;Node13 -->
<g id="edge57" class="edge">
<title>Node28&#45;&gt;Node13</title>
<path fill="none" stroke="#63b8ff" d="M1206.52,-274.66C1176.18,-256.15 1105.68,-213.13 1068.29,-190.32"/>
<polygon fill="#63b8ff" stroke="#63b8ff" points="1070.34,-187.47 1059.98,-185.25 1066.69,-193.44 1070.34,-187.47"/>
</g>
<!-- Node28&#45;&gt;Node24 -->
<g id="edge58" class="edge">
<title>Node28&#45;&gt;Node24</title>
<path fill="none" stroke="#63b8ff" d="M1140.74,-275.62C1027.9,-264.55 825.65,-244.7 731.63,-235.47"/>
<polygon fill="#63b8ff" stroke="#63b8ff" points="731.97,-231.99 721.68,-234.49 731.29,-238.95 731.97,-231.99"/>
</g>
<!-- Node29&#45;&gt;Node3 -->
<g id="edge60" class="edge">
<title>Node29&#45;&gt;Node3</title>
<path fill="none" stroke="#63b8ff" d="M715.65,-294.44C744.16,-303.36 789.15,-317.5 828,-330 853.82,-338.3 859.63,-342.62 886,-349 952.23,-365.02 1028.75,-376.76 1084.88,-384.15"/>
<polygon fill="#63b8ff" stroke="#63b8ff" points="1084.31,-387.6 1094.68,-385.42 1085.21,-380.66 1084.31,-387.6"/>
</g>
<!-- Node29&#45;&gt;Node13 -->
<g id="edge61" class="edge">
<title>Node29&#45;&gt;Node13</title>
<path fill="none" stroke="#63b8ff" d="M695.52,-274.86C709.89,-260.85 740.47,-233.4 772,-220 849.34,-187.13 948.57,-178.42 1003.26,-176.18"/>
<polygon fill="#63b8ff" stroke="#63b8ff" points="1003.17,-179.69 1013.04,-175.84 1002.93,-172.69 1003.17,-179.69"/>
</g>
<!-- Node29&#45;&gt;Node24 -->
<g id="edge62" class="edge">
<title>Node29&#45;&gt;Node24</title>
<path fill="none" stroke="#63b8ff" d="M686.01,-274.75C685.27,-268.19 684.22,-258.95 683.28,-250.6"/>
<polygon fill="#63b8ff" stroke="#63b8ff" points="686.79,-250.49 682.18,-240.95 679.83,-251.28 686.79,-250.49"/>
</g>
<!-- Node30&#45;&gt;Node3 -->
<g id="edge64" class="edge">
<title>Node30&#45;&gt;Node3</title>
<path fill="none" stroke="#63b8ff" d="M1371.33,-294.46C1332.05,-313.32 1240.6,-357.21 1193.77,-379.69"/>
<polygon fill="#63b8ff" stroke="#63b8ff" points="1192.28,-376.52 1184.78,-384.01 1195.31,-382.83 1192.28,-376.52"/>
</g>
<!-- Node30&#45;&gt;Node13 -->
<g id="edge65" class="edge">
<title>Node30&#45;&gt;Node13</title>
<path fill="none" stroke="#63b8ff" d="M1361.39,-274.57C1299.61,-255.29 1153.62,-209.72 1083.26,-187.75"/>
<polygon fill="#63b8ff" stroke="#63b8ff" points="1084.68,-184.53 1074.09,-184.89 1082.59,-191.21 1084.68,-184.53"/>
</g>
<!-- Node31&#45;&gt;Node3 -->
<g id="edge67" class="edge">
<title>Node31&#45;&gt;Node3</title>
<path fill="none" stroke="#63b8ff" d="M1513.54,-294.44C1445.38,-313.81 1284,-359.68 1207.13,-381.53"/>
<polygon fill="#63b8ff" stroke="#63b8ff" points="1206.54,-378.06 1197.88,-384.16 1208.45,-384.79 1206.54,-378.06"/>
</g>
<!-- Node31&#45;&gt;Node13 -->
<g id="edge68" class="edge">
<title>Node31&#45;&gt;Node13</title>
<path fill="none" stroke="#63b8ff" d="M1503.57,-274.57C1409.04,-254.19 1178.33,-204.46 1084.6,-184.25"/>
<polygon fill="#63b8ff" stroke="#63b8ff" points="1085.33,-180.83 1074.82,-182.14 1083.86,-187.67 1085.33,-180.83"/>
</g>
</g>
</svg>
