<?xml version="1.0" encoding="UTF-8" standalone="no"?>
<!DOCTYPE svg PUBLIC "-//W3C//DTD SVG 1.1//EN"
 "http://www.w3.org/Graphics/SVG/1.1/DTD/svg11.dtd">
<!-- Generated by graphviz version 7.0.5 (20221223.1930)
 -->
<!-- Title: model/closedloopRCRbc.hpp Pages: 1 -->
<svg width="1690pt" height="302pt"
 viewBox="0.00 0.00 1689.55 302.00" xmlns="http://www.w3.org/2000/svg" xmlns:xlink="http://www.w3.org/1999/xlink">
<g id="graph0" class="graph" transform="scale(1 1) rotate(0) translate(4 298)">
<title>model/closedloopRCRbc.hpp</title>
<!-- Node1 -->
<g id="node1" class="node">
<title>Node1</title>
<g id="a_node1"><a xlink:title="MODEL::ClosedLoopRCRBC source file.">
<polygon fill="#999999" stroke="#666666" points="768,-294 627,-294 627,-275 768,-275 768,-294"/>
<text text-anchor="middle" x="697.5" y="-282" font-family="Helvetica,sans-Serif" font-size="10.00">model/closedloopRCRbc.hpp</text>
</a>
</g>
</g>
<!-- Node2 -->
<g id="node2" class="node">
<title>Node2</title>
<g id="a_node2"><a xlink:href="model_8hpp.html" target="_top" xlink:title="MODEL::Model source file.">
<polygon fill="white" stroke="#666666" points="943.5,-239 853.5,-239 853.5,-220 943.5,-220 943.5,-239"/>
<text text-anchor="middle" x="898.5" y="-227" font-family="Helvetica,sans-Serif" font-size="10.00">model/model.hpp</text>
</a>
</g>
</g>
<!-- Node1&#45;&gt;Node2 -->
<g id="edge1" class="edge">
<title>Node1&#45;&gt;Node2</title>
<path fill="none" stroke="#63b8ff" d="M742.56,-271.62C779.52,-261.87 831.03,-248.29 864.57,-239.45"/>
<polygon fill="#63b8ff" stroke="#63b8ff" points="741.84,-268.19 733.06,-274.12 743.62,-274.96 741.84,-268.19"/>
</g>
<!-- Node3 -->
<g id="node3" class="node">
<title>Node3</title>
<g id="a_node3"><a xlink:href="integrator_8hpp.html" target="_top" xlink:title="ALGEBRA::Integrator source file.">
<polygon fill="white" stroke="#666666" points="1366.5,-184 1256.5,-184 1256.5,-165 1366.5,-165 1366.5,-184"/>
<text text-anchor="middle" x="1311.5" y="-172" font-family="Helvetica,sans-Serif" font-size="10.00">algebra/integrator.hpp</text>
</a>
</g>
</g>
<!-- Node2&#45;&gt;Node3 -->
<g id="edge2" class="edge">
<title>Node2&#45;&gt;Node3</title>
<path fill="none" stroke="#63b8ff" d="M955.1,-221.24C1034.4,-211.06 1177.65,-192.68 1256.23,-182.59"/>
<polygon fill="#63b8ff" stroke="#63b8ff" points="954.85,-217.74 945.38,-222.48 955.75,-224.68 954.85,-217.74"/>
</g>
<!-- Node4 -->
<g id="node4" class="node">
<title>Node4</title>
<g id="a_node4"><a xlink:href="solver_8hpp.html" target="_top" xlink:title="SOLVE::Solver source file.">
<polygon fill="white" stroke="#666666" points="1477,-129 1390,-129 1390,-110 1477,-110 1477,-129"/>
<text text-anchor="middle" x="1433.5" y="-117" font-family="Helvetica,sans-Serif" font-size="10.00">solve/solver.hpp</text>
</a>
</g>
</g>
<!-- Node2&#45;&gt;Node4 -->
<g id="edge52" class="edge">
<title>Node2&#45;&gt;Node4</title>
<path fill="none" stroke="#63b8ff" d="M955.13,-228.27C1065.09,-227.01 1303.05,-220.06 1375.5,-184 1400.36,-171.63 1419.71,-143.71 1428.44,-129.37"/>
<polygon fill="#63b8ff" stroke="#63b8ff" points="955.43,-224.77 945.47,-228.37 955.5,-231.77 955.43,-224.77"/>
</g>
<!-- Node5 -->
<g id="node5" class="node">
<title>Node5</title>
<g id="a_node5"><a xlink:href="sparsesystem_8hpp.html" target="_top" xlink:title="ALGEBRA::SparseSystem source file.">
<polygon fill="white" stroke="#666666" points="762.5,-184 632.5,-184 632.5,-165 762.5,-165 762.5,-184"/>
<text text-anchor="middle" x="697.5" y="-172" font-family="Helvetica,sans-Serif" font-size="10.00">algebra/sparsesystem.hpp</text>
</a>
</g>
</g>
<!-- Node2&#45;&gt;Node5 -->
<g id="edge4" class="edge">
<title>Node2&#45;&gt;Node5</title>
<path fill="none" stroke="#63b8ff" d="M848.19,-216.74C809.68,-206.99 758.03,-193.33 726.22,-184.45"/>
<polygon fill="#63b8ff" stroke="#63b8ff" points="847.17,-220.09 857.72,-219.14 848.87,-213.31 847.17,-220.09"/>
</g>
<!-- Node18 -->
<g id="node18" class="node">
<title>Node18</title>
<g id="a_node18"><a xlink:href="configreader_8hpp.html" target="_top" xlink:title="Helper functions for reading configurations.">
<polygon fill="white" stroke="#666666" points="1520.5,-184 1422.5,-184 1422.5,-165 1520.5,-165 1520.5,-184"/>
<text text-anchor="middle" x="1471.5" y="-172" font-family="Helvetica,sans-Serif" font-size="10.00">io/configreader.hpp</text>
</a>
</g>
</g>
<!-- Node2&#45;&gt;Node18 -->
<g id="edge45" class="edge">
<title>Node2&#45;&gt;Node18</title>
<path fill="none" stroke="#63b8ff" d="M955.2,-224.43C1049.44,-217.47 1244.2,-202.24 1408.5,-184 1412.89,-183.51 1417.44,-182.97 1422,-182.4"/>
<polygon fill="#63b8ff" stroke="#63b8ff" points="955.17,-220.92 945.45,-225.15 955.68,-227.9 955.17,-220.92"/>
</g>
<!-- Node19 -->
<g id="node19" class="node">
<title>Node19</title>
<g id="a_node19"><a xlink:href="csvwriter_8hpp.html" target="_top" xlink:title="IO::write_csv source file.">
<polygon fill="white" stroke="#666666" points="1624,-184 1539,-184 1539,-165 1624,-165 1624,-184"/>
<text text-anchor="middle" x="1581.5" y="-172" font-family="Helvetica,sans-Serif" font-size="10.00">io/csvwriter.hpp</text>
</a>
</g>
</g>
<!-- Node2&#45;&gt;Node19 -->
<g id="edge47" class="edge">
<title>Node2&#45;&gt;Node19</title>
<path fill="none" stroke="#63b8ff" d="M954.97,-226.25C1065.55,-221.48 1318.27,-208.66 1529.5,-184 1532.5,-183.65 1535.59,-183.25 1538.69,-182.82"/>
<polygon fill="#63b8ff" stroke="#63b8ff" points="955.13,-222.75 945.29,-226.67 955.43,-229.74 955.13,-222.75"/>
</g>
<!-- Node20 -->
<g id="node20" class="node">
<title>Node20</title>
<g id="a_node20"><a xlink:href="calibrate_8hpp.html" target="_top" xlink:title="OPT::calibrate source file.">
<polygon fill="white" stroke="#666666" points="1245.5,-129 1135.5,-129 1135.5,-110 1245.5,-110 1245.5,-129"/>
<text text-anchor="middle" x="1190.5" y="-117" font-family="Helvetica,sans-Serif" font-size="10.00">optimize/calibrate.hpp</text>
</a>
</g>
</g>
<!-- Node2&#45;&gt;Node20 -->
<g id="edge49" class="edge">
<title>Node2&#45;&gt;Node20</title>
<path fill="none" stroke="#63b8ff" d="M955.12,-228.88C1035.69,-228.07 1177.23,-221.22 1209.5,-184 1223.22,-168.18 1207.83,-142.76 1197.78,-129.38"/>
<polygon fill="#63b8ff" stroke="#63b8ff" points="955.19,-225.38 945.21,-228.95 955.24,-232.38 955.19,-225.38"/>
</g>
<!-- Node21 -->
<g id="node21" class="node">
<title>Node21</title>
<g id="a_node21"><a xlink:href="levenbergmarquardtoptimizer_8hpp.html" target="_top" xlink:title="OPT::LevenbergMarquardtOptimizer source file.">
<polygon fill="white" stroke="#666666" points="1200.5,-184 1002.5,-184 1002.5,-165 1200.5,-165 1200.5,-184"/>
<text text-anchor="middle" x="1101.5" y="-172" font-family="Helvetica,sans-Serif" font-size="10.00">optimize/levenbergmarquardtoptimizer.hpp</text>
</a>
</g>
</g>
<!-- Node2&#45;&gt;Node21 -->
<g id="edge50" class="edge">
<title>Node2&#45;&gt;Node21</title>
<path fill="none" stroke="#63b8ff" d="M944.01,-216.62C981.34,-206.87 1033.36,-193.29 1067.23,-184.45"/>
<polygon fill="#63b8ff" stroke="#63b8ff" points="943.19,-213.21 934.4,-219.13 944.96,-219.99 943.19,-213.21"/>
</g>
<!-- Node3&#45;&gt;Node4 -->
<g id="edge3" class="edge">
<title>Node3&#45;&gt;Node4</title>
<path fill="none" stroke="#63b8ff" d="M1342.74,-159.93C1364.86,-150.32 1393.91,-137.7 1413.11,-129.36"/>
<polygon fill="#63b8ff" stroke="#63b8ff" points="1341.36,-156.71 1333.58,-163.91 1344.15,-163.13 1341.36,-156.71"/>
</g>
<!-- Node5&#45;&gt;Node1 -->
<g id="edge34" class="edge">
<title>Node5&#45;&gt;Node1</title>
<path fill="none" stroke="#63b8ff" d="M697.5,-195.92C697.5,-219.61 697.5,-257.57 697.5,-274.66"/>
<polygon fill="#63b8ff" stroke="#63b8ff" points="701,-195.97 697.5,-185.97 694,-195.97 701,-195.97"/>
</g>
<!-- Node5&#45;&gt;Node2 -->
<g id="edge39" class="edge">
<title>Node5&#45;&gt;Node2</title>
<path fill="none" stroke="#63b8ff" d="M747.61,-187.21C786.09,-196.95 837.74,-210.61 869.62,-219.51"/>
<polygon fill="#63b8ff" stroke="#63b8ff" points="748.66,-183.86 738.1,-184.82 746.95,-190.65 748.66,-183.86"/>
</g>
<!-- Node6 -->
<g id="node6" class="node">
<title>Node6</title>
<g id="a_node6"><a xlink:href="block_8hpp.html" target="_top" xlink:title="MODEL::Block source file.">
<polygon fill="white" stroke="#666666" points="737,-129 650,-129 650,-110 737,-110 737,-129"/>
<text text-anchor="middle" x="693.5" y="-117" font-family="Helvetica,sans-Serif" font-size="10.00">model/block.hpp</text>
</a>
</g>
</g>
<!-- Node5&#45;&gt;Node6 -->
<g id="edge5" class="edge">
<title>Node5&#45;&gt;Node6</title>
<path fill="none" stroke="#63b8ff" d="M695.98,-153.35C695.36,-145.1 694.67,-135.97 694.17,-129.44"/>
<polygon fill="#63b8ff" stroke="#63b8ff" points="692.48,-153.53 696.73,-163.24 699.46,-153 692.48,-153.53"/>
</g>
<!-- Node7 -->
<g id="node7" class="node">
<title>Node7</title>
<g id="a_node7"><a xlink:href="bloodvessel_8hpp.html" target="_top" xlink:title="MODEL::BloodVessel source file.">
<polygon fill="white" stroke="#666666" points="175.5,-74 59.5,-74 59.5,-55 175.5,-55 175.5,-74"/>
<text text-anchor="middle" x="117.5" y="-62" font-family="Helvetica,sans-Serif" font-size="10.00">model/bloodvessel.hpp</text>
</a>
</g>
</g>
<!-- Node5&#45;&gt;Node7 -->
<g id="edge32" class="edge">
<title>Node5&#45;&gt;Node7</title>
<path fill="none" stroke="#63b8ff" d="M635.34,-162.55C585.16,-153.66 512.75,-140.72 449.5,-129 347.23,-110.04 227.42,-86.9 163.39,-74.45"/>
<polygon fill="#63b8ff" stroke="#63b8ff" points="634.7,-165.99 645.16,-164.29 635.92,-159.1 634.7,-165.99"/>
</g>
<!-- Node8 -->
<g id="node8" class="node">
<title>Node8</title>
<g id="a_node8"><a xlink:href="bloodvesseljunction_8hpp.html" target="_top" xlink:title="MODEL::BloodVesselJunction source file.">
<polygon fill="white" stroke="#666666" points="149,-19 0,-19 0,0 149,0 149,-19"/>
<text text-anchor="middle" x="74.5" y="-7" font-family="Helvetica,sans-Serif" font-size="10.00">model/bloodvesseljunction.hpp</text>
</a>
</g>
</g>
<!-- Node5&#45;&gt;Node8 -->
<g id="edge33" class="edge">
<title>Node5&#45;&gt;Node8</title>
<path fill="none" stroke="#63b8ff" d="M620.94,-173.8C465.57,-172.57 121.93,-159.97 50.5,-74 36.79,-57.5 54.71,-32.37 66.21,-19.21"/>
<polygon fill="#63b8ff" stroke="#63b8ff" points="620.71,-177.29 630.73,-173.86 620.75,-170.29 620.71,-177.29"/>
</g>
<!-- Node9 -->
<g id="node9" class="node">
<title>Node9</title>
<g id="a_node9"><a xlink:href="closedloopcoronarybc_8hpp.html" target="_top" xlink:title="MODEL::ClosedLoopCoronaryBC source file.">
<polygon fill="white" stroke="#666666" points="1156.5,-19 998.5,-19 998.5,0 1156.5,0 1156.5,-19"/>
<text text-anchor="middle" x="1077.5" y="-7" font-family="Helvetica,sans-Serif" font-size="10.00">model/closedloopcoronarybc.hpp</text>
</a>
</g>
</g>
<!-- Node5&#45;&gt;Node9 -->
<g id="edge35" class="edge">
<title>Node5&#45;&gt;Node9</title>
<path fill="none" stroke="#63b8ff" d="M669.08,-158.8C650.25,-146.92 630.67,-129.09 640.5,-110 659.74,-72.61 678.31,-70.27 717.5,-55 767.08,-35.68 908.09,-22.47 998.21,-15.73"/>
<polygon fill="#63b8ff" stroke="#63b8ff" points="667.28,-161.8 677.68,-163.83 670.82,-155.76 667.28,-161.8"/>
</g>
<!-- Node10 -->
<g id="node10" class="node">
<title>Node10</title>
<g id="a_node10"><a xlink:href="closedloopheartpulmonary_8hpp.html" target="_top" xlink:title="MODEL::ClosedLoopHeartPulmonary source file.">
<polygon fill="white" stroke="#666666" points="1519.5,-74 1343.5,-74 1343.5,-55 1519.5,-55 1519.5,-74"/>
<text text-anchor="middle" x="1431.5" y="-62" font-family="Helvetica,sans-Serif" font-size="10.00">model/closedloopheartpulmonary.hpp</text>
</a>
</g>
</g>
<!-- Node5&#45;&gt;Node10 -->
<g id="edge36" class="edge">
<title>Node5&#45;&gt;Node10</title>
<path fill="none" stroke="#63b8ff" d="M769.23,-162.84C854.42,-150.18 1000.8,-128.47 1126.5,-110 1210.68,-97.63 1307.95,-83.46 1369.57,-74.5"/>
<polygon fill="#63b8ff" stroke="#63b8ff" points="768.76,-159.37 759.38,-164.3 769.79,-166.29 768.76,-159.37"/>
</g>
<!-- Node11 -->
<g id="node11" class="node">
<title>Node11</title>
<g id="a_node11"><a xlink:href="flowreferencebc_8hpp.html" target="_top" xlink:title="MODEL::FlowReferenceBC source file.">
<polygon fill="white" stroke="#666666" points="619.5,-74 487.5,-74 487.5,-55 619.5,-55 619.5,-74"/>
<text text-anchor="middle" x="553.5" y="-62" font-family="Helvetica,sans-Serif" font-size="10.00">model/flowreferencebc.hpp</text>
</a>
</g>
</g>
<!-- Node5&#45;&gt;Node11 -->
<g id="edge37" class="edge">
<title>Node5&#45;&gt;Node11</title>
<path fill="none" stroke="#63b8ff" d="M662.64,-160.23C645.11,-152.61 624.11,-141.97 607.5,-129 586.74,-112.8 568.2,-87.54 559.22,-74.29"/>
<polygon fill="#63b8ff" stroke="#63b8ff" points="661.07,-163.37 671.65,-164 663.77,-156.91 661.07,-163.37"/>
</g>
<!-- Node12 -->
<g id="node12" class="node">
<title>Node12</title>
<g id="a_node12"><a xlink:href="junction_8hpp.html" target="_top" xlink:title="MODEL::Junction source file.">
<polygon fill="white" stroke="#666666" points="849.5,-74 751.5,-74 751.5,-55 849.5,-55 849.5,-74"/>
<text text-anchor="middle" x="800.5" y="-62" font-family="Helvetica,sans-Serif" font-size="10.00">model/junction.hpp</text>
</a>
</g>
</g>
<!-- Node5&#45;&gt;Node12 -->
<g id="edge38" class="edge">
<title>Node5&#45;&gt;Node12</title>
<path fill="none" stroke="#63b8ff" d="M716.07,-157.16C725.16,-148.93 736.14,-138.68 745.5,-129 763.54,-110.34 783.09,-86.93 793.32,-74.39"/>
<polygon fill="#63b8ff" stroke="#63b8ff" points="713.98,-154.32 708.86,-163.6 718.65,-159.54 713.98,-154.32"/>
</g>
<!-- Node13 -->
<g id="node13" class="node">
<title>Node13</title>
<g id="a_node13"><a xlink:href="openloopcoronarybc_8hpp.html" target="_top" xlink:title="MODEL::OpenLoopCoronaryBC source file.">
<polygon fill="white" stroke="#666666" points="1017.5,-74 867.5,-74 867.5,-55 1017.5,-55 1017.5,-74"/>
<text text-anchor="middle" x="942.5" y="-62" font-family="Helvetica,sans-Serif" font-size="10.00">model/openloopcoronarybc.hpp</text>
</a>
</g>
</g>
<!-- Node5&#45;&gt;Node13 -->
<g id="edge40" class="edge">
<title>Node5&#45;&gt;Node13</title>
<path fill="none" stroke="#63b8ff" d="M727.86,-160.12C778.56,-137.77 879.12,-93.44 922.17,-74.46"/>
<polygon fill="#63b8ff" stroke="#63b8ff" points="726.67,-156.82 718.93,-164.05 729.5,-163.22 726.67,-156.82"/>
</g>
<!-- Node14 -->
<g id="node14" class="node">
<title>Node14</title>
<g id="a_node14"><a xlink:href="pressurereferencebc_8hpp.html" target="_top" xlink:title="MODEL::PressureReferenceBC source file.">
<polygon fill="white" stroke="#666666" points="1187.5,-74 1035.5,-74 1035.5,-55 1187.5,-55 1187.5,-74"/>
<text text-anchor="middle" x="1111.5" y="-62" font-family="Helvetica,sans-Serif" font-size="10.00">model/pressurereferencebc.hpp</text>
</a>
</g>
</g>
<!-- Node5&#45;&gt;Node14 -->
<g id="edge41" class="edge">
<title>Node5&#45;&gt;Node14</title>
<path fill="none" stroke="#63b8ff" d="M742.63,-161.73C826.07,-139.96 1002.74,-93.87 1077.23,-74.44"/>
<polygon fill="#63b8ff" stroke="#63b8ff" points="741.99,-158.28 733.2,-164.19 743.76,-165.05 741.99,-158.28"/>
</g>
<!-- Node15 -->
<g id="node15" class="node">
<title>Node15</title>
<g id="a_node15"><a xlink:href="resistancebc_8hpp.html" target="_top" xlink:title="MODEL::ResistanceBC source file.">
<polygon fill="white" stroke="#666666" points="1325,-74 1206,-74 1206,-55 1325,-55 1325,-74"/>
<text text-anchor="middle" x="1265.5" y="-62" font-family="Helvetica,sans-Serif" font-size="10.00">model/resistancebc.hpp</text>
</a>
</g>
</g>
<!-- Node5&#45;&gt;Node15 -->
<g id="edge42" class="edge">
<title>Node5&#45;&gt;Node15</title>
<path fill="none" stroke="#63b8ff" d="M752.43,-162.28C816.12,-149.35 924.31,-127.61 1017.5,-110 1085.41,-97.17 1163.96,-83.23 1214.15,-74.43"/>
<polygon fill="#63b8ff" stroke="#63b8ff" points="752.03,-158.79 742.93,-164.21 753.43,-165.65 752.03,-158.79"/>
</g>
<!-- Node16 -->
<g id="node16" class="node">
<title>Node16</title>
<g id="a_node16"><a xlink:href="resistivejunction_8hpp.html" target="_top" xlink:title="MODEL::ResistiveJunction source file.">
<polygon fill="white" stroke="#666666" points="327.5,-74 193.5,-74 193.5,-55 327.5,-55 327.5,-74"/>
<text text-anchor="middle" x="260.5" y="-62" font-family="Helvetica,sans-Serif" font-size="10.00">model/resistivejunction.hpp</text>
</a>
</g>
</g>
<!-- Node5&#45;&gt;Node16 -->
<g id="edge43" class="edge">
<title>Node5&#45;&gt;Node16</title>
<path fill="none" stroke="#63b8ff" d="M650.4,-161.86C562.55,-140.15 375.47,-93.91 296.68,-74.44"/>
<polygon fill="#63b8ff" stroke="#63b8ff" points="649.35,-165.21 659.9,-164.21 651.03,-158.41 649.35,-165.21"/>
</g>
<!-- Node17 -->
<g id="node17" class="node">
<title>Node17</title>
<g id="a_node17"><a xlink:href="windkesselbc_8hpp.html" target="_top" xlink:title="MODEL::WindkesselBC source file.">
<polygon fill="white" stroke="#666666" points="469,-74 346,-74 346,-55 469,-55 469,-74"/>
<text text-anchor="middle" x="407.5" y="-62" font-family="Helvetica,sans-Serif" font-size="10.00">model/windkesselbc.hpp</text>
</a>
</g>
</g>
<!-- Node5&#45;&gt;Node17 -->
<g id="edge44" class="edge">
<title>Node5&#45;&gt;Node17</title>
<path fill="none" stroke="#63b8ff" d="M663.06,-160.67C603.55,-138.51 482.94,-93.6 431.56,-74.46"/>
<polygon fill="#63b8ff" stroke="#63b8ff" points="661.76,-163.92 672.35,-164.13 664.2,-157.36 661.76,-163.92"/>
</g>
<!-- Node6&#45;&gt;Node1 -->
<g id="edge11" class="edge">
<title>Node6&#45;&gt;Node1</title>
<path fill="none" stroke="#63b8ff" d="M658.01,-134.18C644.71,-141.25 631.01,-151.32 623.5,-165 619.43,-172.4 620.85,-175.98 623.5,-184 636.29,-222.63 670.53,-258.45 687.57,-274.56"/>
<polygon fill="#63b8ff" stroke="#63b8ff" points="659.15,-137.52 666.63,-130.01 656.1,-131.21 659.15,-137.52"/>
</g>
<!-- Node6&#45;&gt;Node2 -->
<g id="edge21" class="edge">
<title>Node6&#45;&gt;Node2</title>
<path fill="none" stroke="#63b8ff" d="M720.53,-134.74C763.54,-157.4 846.29,-200.99 881.72,-219.66"/>
<polygon fill="#63b8ff" stroke="#63b8ff" points="722.33,-131.73 711.85,-130.17 719.06,-137.92 722.33,-131.73"/>
</g>
<!-- Node6&#45;&gt;Node7 -->
<g id="edge6" class="edge">
<title>Node6&#45;&gt;Node7</title>
<path fill="none" stroke="#63b8ff" d="M638.09,-114.37C544.51,-107.23 349.23,-91.64 184.5,-74 181.7,-73.7 178.84,-73.38 175.95,-73.05"/>
<polygon fill="#63b8ff" stroke="#63b8ff" points="637.78,-117.85 648.02,-115.12 638.31,-110.87 637.78,-117.85"/>
</g>
<!-- Node6&#45;&gt;Node8 -->
<g id="edge10" class="edge">
<title>Node6&#45;&gt;Node8</title>
<path fill="none" stroke="#63b8ff" d="M680.97,-100.66C669.29,-85.61 650.41,-64.97 628.5,-55 545.06,-17.04 280.31,-10.92 149.34,-10.28"/>
<polygon fill="#63b8ff" stroke="#63b8ff" points="677.91,-102.4 686.67,-108.36 683.54,-98.24 677.91,-102.4"/>
</g>
<!-- Node6&#45;&gt;Node9 -->
<g id="edge12" class="edge">
<title>Node6&#45;&gt;Node9</title>
<path fill="none" stroke="#63b8ff" d="M702.73,-99.69C711.02,-84.96 724.62,-65.31 742.5,-55 784.69,-30.68 913.02,-19.19 998.04,-14.12"/>
<polygon fill="#63b8ff" stroke="#63b8ff" points="699.7,-97.93 698.16,-108.41 705.9,-101.18 699.7,-97.93"/>
</g>
<!-- Node6&#45;&gt;Node10 -->
<g id="edge14" class="edge">
<title>Node6&#45;&gt;Node10</title>
<path fill="none" stroke="#63b8ff" d="M748.65,-115.01C859.62,-107.91 1117.8,-91.01 1334.5,-74 1337.36,-73.78 1340.28,-73.54 1343.22,-73.3"/>
<polygon fill="#63b8ff" stroke="#63b8ff" points="748.7,-111.5 738.94,-115.63 749.14,-118.48 748.7,-111.5"/>
</g>
<!-- Node6&#45;&gt;Node11 -->
<g id="edge17" class="edge">
<title>Node6&#45;&gt;Node11</title>
<path fill="none" stroke="#63b8ff" d="M659.04,-105.45C633.49,-95.78 599.34,-82.85 576.9,-74.36"/>
<polygon fill="#63b8ff" stroke="#63b8ff" points="657.74,-108.71 668.34,-108.97 660.22,-102.16 657.74,-108.71"/>
</g>
<!-- Node6&#45;&gt;Node12 -->
<g id="edge19" class="edge">
<title>Node6&#45;&gt;Node12</title>
<path fill="none" stroke="#63b8ff" d="M721.96,-104.4C741.23,-94.86 766.08,-82.55 782.62,-74.36"/>
<polygon fill="#63b8ff" stroke="#63b8ff" points="720.41,-101.26 713.01,-108.84 723.52,-107.54 720.41,-101.26"/>
</g>
<!-- Node6&#45;&gt;Node13 -->
<g id="edge22" class="edge">
<title>Node6&#45;&gt;Node13</title>
<path fill="none" stroke="#63b8ff" d="M746.97,-107.12C792.9,-97.34 858.21,-83.44 900.47,-74.45"/>
<polygon fill="#63b8ff" stroke="#63b8ff" points="746.27,-103.69 737.22,-109.19 747.73,-110.54 746.27,-103.69"/>
</g>
<!-- Node6&#45;&gt;Node14 -->
<g id="edge24" class="edge">
<title>Node6&#45;&gt;Node14</title>
<path fill="none" stroke="#63b8ff" d="M748.52,-111.52C823.62,-102 958.27,-84.93 1040.78,-74.47"/>
<polygon fill="#63b8ff" stroke="#63b8ff" points="748.43,-108.01 738.94,-112.74 749.31,-114.95 748.43,-108.01"/>
</g>
<!-- Node6&#45;&gt;Node15 -->
<g id="edge26" class="edge">
<title>Node6&#45;&gt;Node15</title>
<path fill="none" stroke="#63b8ff" d="M748.61,-114.25C841.21,-106.96 1033.89,-91.2 1196.5,-74 1199.5,-73.68 1202.57,-73.35 1205.68,-73"/>
<polygon fill="#63b8ff" stroke="#63b8ff" points="748.49,-110.75 738.79,-115.02 749.03,-117.72 748.49,-110.75"/>
</g>
<!-- Node6&#45;&gt;Node16 -->
<g id="edge28" class="edge">
<title>Node6&#45;&gt;Node16</title>
<path fill="none" stroke="#63b8ff" d="M638.41,-111.76C559.21,-102.06 413.3,-84.2 327.81,-73.74"/>
<polygon fill="#63b8ff" stroke="#63b8ff" points="637.75,-115.2 648.1,-112.94 638.6,-108.25 637.75,-115.2"/>
</g>
<!-- Node6&#45;&gt;Node17 -->
<g id="edge30" class="edge">
<title>Node6&#45;&gt;Node17</title>
<path fill="none" stroke="#63b8ff" d="M638.57,-108.32C585.72,-98.53 506.61,-83.87 456.03,-74.49"/>
<polygon fill="#63b8ff" stroke="#63b8ff" points="637.79,-111.74 648.26,-110.12 639.07,-104.85 637.79,-111.74"/>
</g>
<!-- Node7&#45;&gt;Node2 -->
<g id="edge9" class="edge">
<title>Node7&#45;&gt;Node2</title>
<path fill="none" stroke="#63b8ff" d="M151.02,-78.6C215.75,-103.34 362.93,-156.88 491.5,-184 621.04,-211.32 777.52,-222.44 853.17,-226.47"/>
<polygon fill="#63b8ff" stroke="#63b8ff" points="152.27,-75.33 141.68,-75.01 149.76,-81.87 152.27,-75.33"/>
</g>
<!-- Node7&#45;&gt;Node8 -->
<g id="edge7" class="edge">
<title>Node7&#45;&gt;Node8</title>
<path fill="none" stroke="#63b8ff" d="M103.25,-45.93C96.05,-37.06 87.62,-26.67 81.75,-19.44"/>
<polygon fill="#63b8ff" stroke="#63b8ff" points="100.43,-48.01 109.45,-53.57 105.86,-43.6 100.43,-48.01"/>
</g>
<!-- Node8&#45;&gt;Node2 -->
<g id="edge8" class="edge">
<title>Node8&#45;&gt;Node2</title>
<path fill="none" stroke="#63b8ff" d="M56.3,-27.15C43.92,-40.51 31.6,-59.39 42.5,-74 145.38,-211.82 244.61,-151.54 413.5,-184 573.34,-214.72 767.03,-224.4 853.29,-227.31"/>
<polygon fill="#63b8ff" stroke="#63b8ff" points="58.52,-29.87 63.13,-20.33 53.58,-24.91 58.52,-29.87"/>
</g>
<!-- Node9&#45;&gt;Node2 -->
<g id="edge13" class="edge">
<title>Node9&#45;&gt;Node2</title>
<path fill="none" stroke="#63b8ff" d="M1168.14,-9.99C1363.54,-11.69 1795.65,-32.15 1652.5,-184 1628.1,-209.88 1103.3,-223.86 943.97,-227.52"/>
<polygon fill="#63b8ff" stroke="#63b8ff" points="1168.29,-6.49 1158.26,-9.92 1168.24,-13.49 1168.29,-6.49"/>
</g>
<!-- Node10&#45;&gt;Node2 -->
<g id="edge16" class="edge">
<title>Node10&#45;&gt;Node2</title>
<path fill="none" stroke="#63b8ff" d="M1489.24,-76.91C1565.13,-94.3 1683.3,-131.09 1633.5,-184 1609.79,-209.19 1100.5,-223.6 943.9,-227.45"/>
<polygon fill="#63b8ff" stroke="#63b8ff" points="1490.37,-73.58 1479.85,-74.82 1488.85,-80.41 1490.37,-73.58"/>
</g>
<!-- Node10&#45;&gt;Node9 -->
<g id="edge15" class="edge">
<title>Node10&#45;&gt;Node9</title>
<path fill="none" stroke="#63b8ff" d="M1360.42,-52.86C1295.05,-43.07 1199.18,-28.72 1137.55,-19.49"/>
<polygon fill="#63b8ff" stroke="#63b8ff" points="1359.54,-56.27 1369.95,-54.29 1360.58,-49.34 1359.54,-56.27"/>
</g>
<!-- Node11&#45;&gt;Node2 -->
<g id="edge18" class="edge">
<title>Node11&#45;&gt;Node2</title>
<path fill="none" stroke="#63b8ff" d="M558.89,-85.24C567.52,-112.65 587.27,-161.43 623.5,-184 661.01,-207.37 785.11,-220.05 853.05,-225.4"/>
<polygon fill="#63b8ff" stroke="#63b8ff" points="562.28,-84.38 556.11,-75.77 555.57,-86.35 562.28,-84.38"/>
</g>
<!-- Node12&#45;&gt;Node2 -->
<g id="edge20" class="edge">
<title>Node12&#45;&gt;Node2</title>
<path fill="none" stroke="#63b8ff" d="M811.49,-83.78C832.53,-118.78 877.81,-194.09 893.23,-219.74"/>
<polygon fill="#63b8ff" stroke="#63b8ff" points="814.73,-82.37 806.57,-75.6 808.73,-85.98 814.73,-82.37"/>
</g>
<!-- Node13&#45;&gt;Node2 -->
<g id="edge23" class="edge">
<title>Node13&#45;&gt;Node2</title>
<path fill="none" stroke="#63b8ff" d="M937.19,-85.16C927.59,-120.72 907.7,-194.42 900.87,-219.74"/>
<polygon fill="#63b8ff" stroke="#63b8ff" points="940.5,-86.33 939.73,-75.77 933.74,-84.51 940.5,-86.33"/>
</g>
<!-- Node14&#45;&gt;Node2 -->
<g id="edge25" class="edge">
<title>Node14&#45;&gt;Node2</title>
<path fill="none" stroke="#63b8ff" d="M1086.15,-79.92C1055.18,-98.03 1001.83,-130.89 960.5,-165 939.11,-182.65 917.15,-206.88 905.99,-219.7"/>
<polygon fill="#63b8ff" stroke="#63b8ff" points="1087.53,-83.16 1094.43,-75.12 1084.02,-77.1 1087.53,-83.16"/>
</g>
<!-- Node15&#45;&gt;Node2 -->
<g id="edge27" class="edge">
<title>Node15&#45;&gt;Node2</title>
<path fill="none" stroke="#63b8ff" d="M1221.19,-77.54C1165.98,-93.46 1069.64,-124.32 993.5,-165 961.83,-181.92 927.45,-206.66 910.03,-219.7"/>
<polygon fill="#63b8ff" stroke="#63b8ff" points="1221.88,-80.98 1230.54,-74.87 1219.96,-74.25 1221.88,-80.98"/>
</g>
<!-- Node16&#45;&gt;Node2 -->
<g id="edge29" class="edge">
<title>Node16&#45;&gt;Node2</title>
<path fill="none" stroke="#63b8ff" d="M288.46,-79.58C339.78,-104.79 453.07,-157.46 554.5,-184 659.37,-211.44 786.83,-222.29 853.27,-226.32"/>
<polygon fill="#63b8ff" stroke="#63b8ff" points="290.06,-76.47 279.55,-75.17 286.95,-82.75 290.06,-76.47"/>
</g>
<!-- Node17&#45;&gt;Node2 -->
<g id="edge31" class="edge">
<title>Node17&#45;&gt;Node2</title>
<path fill="none" stroke="#63b8ff" d="M426.82,-81.39C459.65,-107.48 529.42,-158.98 597.5,-184 684.27,-215.89 793.07,-224.98 853.23,-227.53"/>
<polygon fill="#63b8ff" stroke="#63b8ff" points="429.37,-78.96 419.39,-75.41 424.98,-84.41 429.37,-78.96"/>
</g>
<!-- Node18&#45;&gt;Node4 -->
<g id="edge46" class="edge">
<title>Node18&#45;&gt;Node4</title>
<path fill="none" stroke="#63b8ff" d="M1458.7,-155.65C1452.38,-146.84 1445.04,-136.59 1439.91,-129.44"/>
<polygon fill="#63b8ff" stroke="#63b8ff" points="1455.67,-157.43 1464.34,-163.52 1461.36,-153.35 1455.67,-157.43"/>
</g>
<!-- Node19&#45;&gt;Node4 -->
<g id="edge48" class="edge">
<title>Node19&#45;&gt;Node4</title>
<path fill="none" stroke="#63b8ff" d="M1545.79,-160.71C1518.71,-151.01 1482.17,-137.93 1458.24,-129.36"/>
<polygon fill="#63b8ff" stroke="#63b8ff" points="1544.37,-163.92 1554.97,-164 1546.73,-157.33 1544.37,-163.92"/>
</g>
<!-- Node21&#45;&gt;Node20 -->
<g id="edge51" class="edge">
<title>Node21&#45;&gt;Node20</title>
<path fill="none" stroke="#63b8ff" d="M1126.3,-158.73C1142.16,-149.29 1162.19,-137.36 1175.63,-129.36"/>
<polygon fill="#63b8ff" stroke="#63b8ff" points="1124.7,-155.61 1117.9,-163.73 1128.28,-161.63 1124.7,-155.61"/>
</g>
</g>
</svg>
