<?xml version="1.0" encoding="UTF-8" standalone="no"?>
<!DOCTYPE svg PUBLIC "-//W3C//DTD SVG 1.1//EN"
 "http://www.w3.org/Graphics/SVG/1.1/DTD/svg11.dtd">
<!-- Generated by graphviz version 7.0.5 (20221223.1930)
 -->
<!-- Title: model/closedloopheartpulmonary.hpp Pages: 1 -->
<svg width="1675pt" height="357pt"
 viewBox="0.00 0.00 1674.58 357.00" xmlns="http://www.w3.org/2000/svg" xmlns:xlink="http://www.w3.org/1999/xlink">
<g id="graph0" class="graph" transform="scale(1 1) rotate(0) translate(4 353)">
<title>model/closedloopheartpulmonary.hpp</title>
<!-- Node1 -->
<g id="node1" class="node">
<title>Node1</title>
<g id="a_node1"><a xlink:title="MODEL::ClosedLoopHeartPulmonary source file.">
<polygon fill="#999999" stroke="#666666" points="525.5,-349 349.5,-349 349.5,-330 525.5,-330 525.5,-349"/>
<text text-anchor="middle" x="437.5" y="-337" font-family="Helvetica,sans-Serif" font-size="10.00">model/closedloopheartpulmonary.hpp</text>
</a>
</g>
</g>
<!-- Node2 -->
<g id="node2" class="node">
<title>Node2</title>
<g id="a_node2"><a xlink:href="closedloopcoronarybc_8hpp.html" target="_top" xlink:title="MODEL::ClosedLoopCoronaryBC source file.">
<polygon fill="white" stroke="#666666" points="656.5,-294 498.5,-294 498.5,-275 656.5,-275 656.5,-294"/>
<text text-anchor="middle" x="577.5" y="-282" font-family="Helvetica,sans-Serif" font-size="10.00">model/closedloopcoronarybc.hpp</text>
</a>
</g>
</g>
<!-- Node1&#45;&gt;Node2 -->
<g id="edge1" class="edge">
<title>Node1&#45;&gt;Node2</title>
<path fill="none" stroke="#63b8ff" d="M471.96,-325.45C497.51,-315.78 531.66,-302.85 554.1,-294.36"/>
<polygon fill="#63b8ff" stroke="#63b8ff" points="470.78,-322.16 462.66,-328.97 473.26,-328.71 470.78,-322.16"/>
</g>
<!-- Node3 -->
<g id="node3" class="node">
<title>Node3</title>
<g id="a_node3"><a xlink:href="model_8hpp.html" target="_top" xlink:title="MODEL::Model source file.">
<polygon fill="white" stroke="#666666" points="932.5,-239 842.5,-239 842.5,-220 932.5,-220 932.5,-239"/>
<text text-anchor="middle" x="887.5" y="-227" font-family="Helvetica,sans-Serif" font-size="10.00">model/model.hpp</text>
</a>
</g>
</g>
<!-- Node1&#45;&gt;Node3 -->
<g id="edge52" class="edge">
<title>Node1&#45;&gt;Node3</title>
<path fill="none" stroke="#63b8ff" d="M501.58,-327.51C547.44,-319.28 610.55,-307.2 665.5,-294 735.86,-277.1 817.36,-252.47 859.32,-239.4"/>
<polygon fill="#63b8ff" stroke="#63b8ff" points="501.02,-324.06 491.79,-329.26 502.25,-330.95 501.02,-324.06"/>
</g>
<!-- Node2&#45;&gt;Node3 -->
<g id="edge2" class="edge">
<title>Node2&#45;&gt;Node3</title>
<path fill="none" stroke="#63b8ff" d="M641.3,-272.59C701.18,-262.35 789.26,-247.3 842.23,-238.24"/>
<polygon fill="#63b8ff" stroke="#63b8ff" points="640.85,-269.12 631.58,-274.25 642.03,-276.02 640.85,-269.12"/>
</g>
<!-- Node4 -->
<g id="node4" class="node">
<title>Node4</title>
<g id="a_node4"><a xlink:href="integrator_8hpp.html" target="_top" xlink:title="ALGEBRA::Integrator source file.">
<polygon fill="white" stroke="#666666" points="1355.5,-184 1245.5,-184 1245.5,-165 1355.5,-165 1355.5,-184"/>
<text text-anchor="middle" x="1300.5" y="-172" font-family="Helvetica,sans-Serif" font-size="10.00">algebra/integrator.hpp</text>
</a>
</g>
</g>
<!-- Node3&#45;&gt;Node4 -->
<g id="edge3" class="edge">
<title>Node3&#45;&gt;Node4</title>
<path fill="none" stroke="#63b8ff" d="M944,-221.39C1013.03,-212.68 1133.37,-197.42 1236.5,-184 1239.39,-183.62 1242.35,-183.24 1245.34,-182.84"/>
<polygon fill="#63b8ff" stroke="#63b8ff" points="943.95,-217.87 934.47,-222.59 944.83,-224.81 943.95,-217.87"/>
</g>
<!-- Node5 -->
<g id="node5" class="node">
<title>Node5</title>
<g id="a_node5"><a xlink:href="solver_8hpp.html" target="_top" xlink:title="SOLVE::Solver source file.">
<polygon fill="white" stroke="#666666" points="1521,-129 1434,-129 1434,-110 1521,-110 1521,-129"/>
<text text-anchor="middle" x="1477.5" y="-117" font-family="Helvetica,sans-Serif" font-size="10.00">solve/solver.hpp</text>
</a>
</g>
</g>
<!-- Node3&#45;&gt;Node5 -->
<g id="edge51" class="edge">
<title>Node3&#45;&gt;Node5</title>
<path fill="none" stroke="#63b8ff" d="M944.06,-226.98C1106.23,-222.33 1562.69,-207.25 1584.5,-184 1608.52,-158.4 1558.93,-139.71 1519.51,-129.48"/>
<polygon fill="#63b8ff" stroke="#63b8ff" points="944.31,-223.47 934.41,-227.25 944.51,-230.46 944.31,-223.47"/>
</g>
<!-- Node6 -->
<g id="node6" class="node">
<title>Node6</title>
<g id="a_node6"><a xlink:href="sparsesystem_8hpp.html" target="_top" xlink:title="ALGEBRA::SparseSystem source file.">
<polygon fill="white" stroke="#666666" points="709.5,-184 579.5,-184 579.5,-165 709.5,-165 709.5,-184"/>
<text text-anchor="middle" x="644.5" y="-172" font-family="Helvetica,sans-Serif" font-size="10.00">algebra/sparsesystem.hpp</text>
</a>
</g>
</g>
<!-- Node3&#45;&gt;Node6 -->
<g id="edge5" class="edge">
<title>Node3&#45;&gt;Node6</title>
<path fill="none" stroke="#63b8ff" d="M831.09,-217.42C784.55,-207.63 720.05,-193.53 680.29,-184.44"/>
<polygon fill="#63b8ff" stroke="#63b8ff" points="830.22,-220.81 840.73,-219.44 831.66,-213.96 830.22,-220.81"/>
</g>
<!-- Node18 -->
<g id="node18" class="node">
<title>Node18</title>
<g id="a_node18"><a xlink:href="configreader_8hpp.html" target="_top" xlink:title="Helper functions for reading configurations.">
<polygon fill="white" stroke="#666666" points="1471.5,-184 1373.5,-184 1373.5,-165 1471.5,-165 1471.5,-184"/>
<text text-anchor="middle" x="1422.5" y="-172" font-family="Helvetica,sans-Serif" font-size="10.00">io/configreader.hpp</text>
</a>
</g>
</g>
<!-- Node3&#45;&gt;Node18 -->
<g id="edge44" class="edge">
<title>Node3&#45;&gt;Node18</title>
<path fill="none" stroke="#63b8ff" d="M944.2,-224.18C1033.67,-217.14 1213,-202.16 1364.5,-184 1367.33,-183.66 1370.23,-183.29 1373.16,-182.91"/>
<polygon fill="#63b8ff" stroke="#63b8ff" points="944.17,-220.67 934.47,-224.94 944.72,-227.65 944.17,-220.67"/>
</g>
<!-- Node19 -->
<g id="node19" class="node">
<title>Node19</title>
<g id="a_node19"><a xlink:href="csvwriter_8hpp.html" target="_top" xlink:title="IO::write_csv source file.">
<polygon fill="white" stroke="#666666" points="1575,-184 1490,-184 1490,-165 1575,-165 1575,-184"/>
<text text-anchor="middle" x="1532.5" y="-172" font-family="Helvetica,sans-Serif" font-size="10.00">io/csvwriter.hpp</text>
</a>
</g>
</g>
<!-- Node3&#45;&gt;Node19 -->
<g id="edge46" class="edge">
<title>Node3&#45;&gt;Node19</title>
<path fill="none" stroke="#63b8ff" d="M943.96,-225.9C1049.58,-220.69 1284.11,-207.37 1480.5,-184 1483.5,-183.64 1486.59,-183.24 1489.69,-182.8"/>
<polygon fill="#63b8ff" stroke="#63b8ff" points="943.97,-222.4 934.15,-226.38 944.31,-229.39 943.97,-222.4"/>
</g>
<!-- Node20 -->
<g id="node20" class="node">
<title>Node20</title>
<g id="a_node20"><a xlink:href="calibrate_8hpp.html" target="_top" xlink:title="OPT::calibrate source file.">
<polygon fill="white" stroke="#666666" points="1182.5,-129 1072.5,-129 1072.5,-110 1182.5,-110 1182.5,-129"/>
<text text-anchor="middle" x="1127.5" y="-117" font-family="Helvetica,sans-Serif" font-size="10.00">optimize/calibrate.hpp</text>
</a>
</g>
</g>
<!-- Node3&#45;&gt;Node20 -->
<g id="edge48" class="edge">
<title>Node3&#45;&gt;Node20</title>
<path fill="none" stroke="#63b8ff" d="M915.61,-214.56C942.4,-201.4 983.95,-181.31 1020.5,-165 1049.53,-152.04 1083.48,-138.13 1105.23,-129.38"/>
<polygon fill="#63b8ff" stroke="#63b8ff" points="914.21,-211.35 906.79,-218.91 917.31,-217.63 914.21,-211.35"/>
</g>
<!-- Node21 -->
<g id="node21" class="node">
<title>Node21</title>
<g id="a_node21"><a xlink:href="levenbergmarquardtoptimizer_8hpp.html" target="_top" xlink:title="OPT::LevenbergMarquardtOptimizer source file.">
<polygon fill="white" stroke="#666666" points="1227.5,-184 1029.5,-184 1029.5,-165 1227.5,-165 1227.5,-184"/>
<text text-anchor="middle" x="1128.5" y="-172" font-family="Helvetica,sans-Serif" font-size="10.00">optimize/levenbergmarquardtoptimizer.hpp</text>
</a>
</g>
</g>
<!-- Node3&#45;&gt;Node21 -->
<g id="edge49" class="edge">
<title>Node3&#45;&gt;Node21</title>
<path fill="none" stroke="#63b8ff" d="M939.54,-217.06C983.97,-207.28 1047,-193.42 1087.82,-184.45"/>
<polygon fill="#63b8ff" stroke="#63b8ff" points="938.88,-213.62 929.86,-219.18 940.38,-220.45 938.88,-213.62"/>
</g>
<!-- Node4&#45;&gt;Node5 -->
<g id="edge4" class="edge">
<title>Node4&#45;&gt;Node5</title>
<path fill="none" stroke="#63b8ff" d="M1341.45,-161.24C1373.9,-151.52 1418.47,-138.18 1447.62,-129.45"/>
<polygon fill="#63b8ff" stroke="#63b8ff" points="1340.55,-157.85 1331.98,-164.08 1342.56,-164.56 1340.55,-157.85"/>
</g>
<!-- Node6&#45;&gt;Node1 -->
<g id="edge35" class="edge">
<title>Node6&#45;&gt;Node1</title>
<path fill="none" stroke="#63b8ff" d="M616.89,-189.74C584.42,-207.24 529.83,-239.08 489.5,-275 470.35,-292.06 452.42,-316.52 443.46,-329.54"/>
<polygon fill="#63b8ff" stroke="#63b8ff" points="618.48,-192.86 625.67,-185.08 615.19,-186.68 618.48,-192.86"/>
</g>
<!-- Node6&#45;&gt;Node2 -->
<g id="edge34" class="edge">
<title>Node6&#45;&gt;Node2</title>
<path fill="none" stroke="#63b8ff" d="M633.03,-193.98C618.46,-217.48 593.88,-257.1 582.98,-274.66"/>
<polygon fill="#63b8ff" stroke="#63b8ff" points="635.85,-196.09 638.14,-185.75 629.9,-192.4 635.85,-196.09"/>
</g>
<!-- Node6&#45;&gt;Node3 -->
<g id="edge38" class="edge">
<title>Node6&#45;&gt;Node3</title>
<path fill="none" stroke="#63b8ff" d="M701.82,-186.77C748.2,-196.54 811.98,-210.48 851.5,-219.51"/>
<polygon fill="#63b8ff" stroke="#63b8ff" points="702.71,-183.38 692.21,-184.76 701.28,-190.23 702.71,-183.38"/>
</g>
<!-- Node7 -->
<g id="node7" class="node">
<title>Node7</title>
<g id="a_node7"><a xlink:href="block_8hpp.html" target="_top" xlink:title="MODEL::Block source file.">
<polygon fill="white" stroke="#666666" points="671,-129 584,-129 584,-110 671,-110 671,-129"/>
<text text-anchor="middle" x="627.5" y="-117" font-family="Helvetica,sans-Serif" font-size="10.00">model/block.hpp</text>
</a>
</g>
</g>
<!-- Node6&#45;&gt;Node7 -->
<g id="edge6" class="edge">
<title>Node6&#45;&gt;Node7</title>
<path fill="none" stroke="#63b8ff" d="M638.22,-153.93C635.53,-145.53 632.51,-136.13 630.37,-129.44"/>
<polygon fill="#63b8ff" stroke="#63b8ff" points="634.84,-154.85 641.23,-163.31 641.51,-152.72 634.84,-154.85"/>
</g>
<!-- Node8 -->
<g id="node8" class="node">
<title>Node8</title>
<g id="a_node8"><a xlink:href="bloodvessel_8hpp.html" target="_top" xlink:title="MODEL::BloodVessel source file.">
<polygon fill="white" stroke="#666666" points="575.5,-74 459.5,-74 459.5,-55 575.5,-55 575.5,-74"/>
<text text-anchor="middle" x="517.5" y="-62" font-family="Helvetica,sans-Serif" font-size="10.00">model/bloodvessel.hpp</text>
</a>
</g>
</g>
<!-- Node6&#45;&gt;Node8 -->
<g id="edge31" class="edge">
<title>Node6&#45;&gt;Node8</title>
<path fill="none" stroke="#63b8ff" d="M618.03,-159C604.41,-150.98 587.9,-140.35 574.5,-129 554.15,-111.76 534.24,-87.37 524.21,-74.41"/>
<polygon fill="#63b8ff" stroke="#63b8ff" points="616.06,-161.91 626.48,-163.85 619.54,-155.84 616.06,-161.91"/>
</g>
<!-- Node9 -->
<g id="node9" class="node">
<title>Node9</title>
<g id="a_node9"><a xlink:href="bloodvesseljunction_8hpp.html" target="_top" xlink:title="MODEL::BloodVesselJunction source file.">
<polygon fill="white" stroke="#666666" points="938,-19 789,-19 789,0 938,0 938,-19"/>
<text text-anchor="middle" x="863.5" y="-7" font-family="Helvetica,sans-Serif" font-size="10.00">model/bloodvesseljunction.hpp</text>
</a>
</g>
</g>
<!-- Node6&#45;&gt;Node9 -->
<g id="edge32" class="edge">
<title>Node6&#45;&gt;Node9</title>
<path fill="none" stroke="#63b8ff" d="M693.61,-161.89C729.45,-153.26 779.13,-140.95 822.5,-129 850.69,-121.23 857.01,-116.62 885.5,-110 933.33,-98.89 1071.73,-111.44 1103.5,-74 1108.96,-67.56 1108.9,-61.49 1103.5,-55 1082.74,-30.03 1000.83,-19.01 938.42,-14.19"/>
<polygon fill="#63b8ff" stroke="#63b8ff" points="692.87,-158.47 683.96,-164.21 694.5,-165.28 692.87,-158.47"/>
</g>
<!-- Node10 -->
<g id="node10" class="node">
<title>Node10</title>
<g id="a_node10"><a xlink:href="closedloop_r_c_rbc_8hpp.html" target="_top" xlink:title="MODEL::ClosedLoopRCRBC source file.">
<polygon fill="white" stroke="#666666" points="1095,-74 954,-74 954,-55 1095,-55 1095,-74"/>
<text text-anchor="middle" x="1024.5" y="-62" font-family="Helvetica,sans-Serif" font-size="10.00">model/closedloopRCRbc.hpp</text>
</a>
</g>
</g>
<!-- Node6&#45;&gt;Node10 -->
<g id="edge33" class="edge">
<title>Node6&#45;&gt;Node10</title>
<path fill="none" stroke="#63b8ff" d="M679.92,-160.85C718.42,-147.34 781.89,-125.73 837.5,-110 886.79,-96.05 944.2,-82.83 982.28,-74.48"/>
<polygon fill="#63b8ff" stroke="#63b8ff" points="678.97,-157.47 670.7,-164.1 681.3,-164.07 678.97,-157.47"/>
</g>
<!-- Node11 -->
<g id="node11" class="node">
<title>Node11</title>
<g id="a_node11"><a xlink:href="flowreferencebc_8hpp.html" target="_top" xlink:title="MODEL::FlowReferenceBC source file.">
<polygon fill="white" stroke="#666666" points="441.5,-74 309.5,-74 309.5,-55 441.5,-55 441.5,-74"/>
<text text-anchor="middle" x="375.5" y="-62" font-family="Helvetica,sans-Serif" font-size="10.00">model/flowreferencebc.hpp</text>
</a>
</g>
</g>
<!-- Node6&#45;&gt;Node11 -->
<g id="edge36" class="edge">
<title>Node6&#45;&gt;Node11</title>
<path fill="none" stroke="#63b8ff" d="M611.86,-160.4C556.43,-138.14 445.28,-93.52 397.82,-74.46"/>
<polygon fill="#63b8ff" stroke="#63b8ff" points="610.5,-163.62 621.08,-164.1 613.11,-157.12 610.5,-163.62"/>
</g>
<!-- Node12 -->
<g id="node12" class="node">
<title>Node12</title>
<g id="a_node12"><a xlink:href="junction_8hpp.html" target="_top" xlink:title="MODEL::Junction source file.">
<polygon fill="white" stroke="#666666" points="1249.5,-74 1151.5,-74 1151.5,-55 1249.5,-55 1249.5,-74"/>
<text text-anchor="middle" x="1200.5" y="-62" font-family="Helvetica,sans-Serif" font-size="10.00">model/junction.hpp</text>
</a>
</g>
</g>
<!-- Node6&#45;&gt;Node12 -->
<g id="edge37" class="edge">
<title>Node6&#45;&gt;Node12</title>
<path fill="none" stroke="#63b8ff" d="M701.71,-162.39C812.3,-140.9 1053.41,-94.07 1154.47,-74.44"/>
<polygon fill="#63b8ff" stroke="#63b8ff" points="701.11,-158.94 691.96,-164.28 702.44,-165.81 701.11,-158.94"/>
</g>
<!-- Node13 -->
<g id="node13" class="node">
<title>Node13</title>
<g id="a_node13"><a xlink:href="openloopcoronarybc_8hpp.html" target="_top" xlink:title="MODEL::OpenLoopCoronaryBC source file.">
<polygon fill="white" stroke="#666666" points="291.5,-74 141.5,-74 141.5,-55 291.5,-55 291.5,-74"/>
<text text-anchor="middle" x="216.5" y="-62" font-family="Helvetica,sans-Serif" font-size="10.00">model/openloopcoronarybc.hpp</text>
</a>
</g>
</g>
<!-- Node6&#45;&gt;Node13 -->
<g id="edge39" class="edge">
<title>Node6&#45;&gt;Node13</title>
<path fill="none" stroke="#63b8ff" d="M598.11,-161.79C511.96,-140.05 329.02,-93.89 251.93,-74.44"/>
<polygon fill="#63b8ff" stroke="#63b8ff" points="597.09,-165.15 607.64,-164.2 598.8,-158.36 597.09,-165.15"/>
</g>
<!-- Node14 -->
<g id="node14" class="node">
<title>Node14</title>
<g id="a_node14"><a xlink:href="pressurereferencebc_8hpp.html" target="_top" xlink:title="MODEL::PressureReferenceBC source file.">
<polygon fill="white" stroke="#666666" points="783.5,-74 631.5,-74 631.5,-55 783.5,-55 783.5,-74"/>
<text text-anchor="middle" x="707.5" y="-62" font-family="Helvetica,sans-Serif" font-size="10.00">model/pressurereferencebc.hpp</text>
</a>
</g>
</g>
<!-- Node6&#45;&gt;Node14 -->
<g id="edge40" class="edge">
<title>Node6&#45;&gt;Node14</title>
<path fill="none" stroke="#63b8ff" d="M659.83,-156.13C666.38,-148.19 673.82,-138.46 679.5,-129 690.54,-110.62 699.77,-87.1 704.36,-74.47"/>
<polygon fill="#63b8ff" stroke="#63b8ff" points="657.25,-153.75 653.43,-163.63 662.58,-158.29 657.25,-153.75"/>
</g>
<!-- Node15 -->
<g id="node15" class="node">
<title>Node15</title>
<g id="a_node15"><a xlink:href="resistancebc_8hpp.html" target="_top" xlink:title="MODEL::ResistanceBC source file.">
<polygon fill="white" stroke="#666666" points="1387,-74 1268,-74 1268,-55 1387,-55 1387,-74"/>
<text text-anchor="middle" x="1327.5" y="-62" font-family="Helvetica,sans-Serif" font-size="10.00">model/resistancebc.hpp</text>
</a>
</g>
</g>
<!-- Node6&#45;&gt;Node15 -->
<g id="edge41" class="edge">
<title>Node6&#45;&gt;Node15</title>
<path fill="none" stroke="#63b8ff" d="M715.73,-162.84C774.87,-153.95 861.19,-140.85 936.5,-129 1056.91,-110.05 1198.03,-86.9 1273.45,-74.45"/>
<polygon fill="#63b8ff" stroke="#63b8ff" points="715.51,-159.34 706.14,-164.28 716.55,-166.26 715.51,-159.34"/>
</g>
<!-- Node16 -->
<g id="node16" class="node">
<title>Node16</title>
<g id="a_node16"><a xlink:href="resistivejunction_8hpp.html" target="_top" xlink:title="MODEL::ResistiveJunction source file.">
<polygon fill="white" stroke="#666666" points="935.5,-74 801.5,-74 801.5,-55 935.5,-55 935.5,-74"/>
<text text-anchor="middle" x="868.5" y="-62" font-family="Helvetica,sans-Serif" font-size="10.00">model/resistivejunction.hpp</text>
</a>
</g>
</g>
<!-- Node6&#45;&gt;Node16 -->
<g id="edge42" class="edge">
<title>Node6&#45;&gt;Node16</title>
<path fill="none" stroke="#63b8ff" d="M673.14,-159.69C719.77,-137.21 810.8,-93.32 849.92,-74.46"/>
<polygon fill="#63b8ff" stroke="#63b8ff" points="671.68,-156.51 664.19,-164 674.72,-162.81 671.68,-156.51"/>
</g>
<!-- Node17 -->
<g id="node17" class="node">
<title>Node17</title>
<g id="a_node17"><a xlink:href="windkesselbc_8hpp.html" target="_top" xlink:title="MODEL::WindkesselBC source file.">
<polygon fill="white" stroke="#666666" points="123,-74 0,-74 0,-55 123,-55 123,-74"/>
<text text-anchor="middle" x="61.5" y="-62" font-family="Helvetica,sans-Serif" font-size="10.00">model/windkesselbc.hpp</text>
</a>
</g>
</g>
<!-- Node6&#45;&gt;Node17 -->
<g id="edge43" class="edge">
<title>Node6&#45;&gt;Node17</title>
<path fill="none" stroke="#63b8ff" d="M584.08,-162.5C534.91,-153.53 463.71,-140.51 401.5,-129 297.28,-109.73 175.15,-86.84 109.35,-74.49"/>
<polygon fill="#63b8ff" stroke="#63b8ff" points="583.2,-165.89 593.67,-164.24 584.46,-159.01 583.2,-165.89"/>
</g>
<!-- Node7&#45;&gt;Node1 -->
<g id="edge15" class="edge">
<title>Node7&#45;&gt;Node1</title>
<path fill="none" stroke="#63b8ff" d="M602.12,-135.34C589.34,-143.37 573.95,-153.89 561.5,-165 513.51,-207.81 502.43,-221.01 467.5,-275 455.58,-293.43 445.59,-317.33 440.71,-329.91"/>
<polygon fill="#63b8ff" stroke="#63b8ff" points="603.71,-138.47 610.42,-130.27 600.06,-132.5 603.71,-138.47"/>
</g>
<!-- Node7&#45;&gt;Node2 -->
<g id="edge14" class="edge">
<title>Node7&#45;&gt;Node2</title>
<path fill="none" stroke="#63b8ff" d="M598.78,-135.41C587.83,-142.72 576.53,-152.65 570.5,-165 552.33,-202.23 567.01,-254.05 574.15,-274.6"/>
<polygon fill="#63b8ff" stroke="#63b8ff" points="600.58,-138.41 607.3,-130.21 596.94,-132.43 600.58,-138.41"/>
</g>
<!-- Node7&#45;&gt;Node3 -->
<g id="edge20" class="edge">
<title>Node7&#45;&gt;Node3</title>
<path fill="none" stroke="#63b8ff" d="M655.54,-134.21C688.48,-150.23 741.2,-175.63 761.5,-184 794.74,-197.7 833.92,-211.13 859.66,-219.59"/>
<polygon fill="#63b8ff" stroke="#63b8ff" points="657.49,-131.26 646.97,-130.03 654.43,-137.56 657.49,-131.26"/>
</g>
<!-- Node7&#45;&gt;Node8 -->
<g id="edge7" class="edge">
<title>Node7&#45;&gt;Node8</title>
<path fill="none" stroke="#63b8ff" d="M598.51,-104.53C578.67,-94.97 552.96,-82.59 535.88,-74.36"/>
<polygon fill="#63b8ff" stroke="#63b8ff" points="596.95,-107.66 607.48,-108.85 599.99,-101.36 596.95,-107.66"/>
</g>
<!-- Node7&#45;&gt;Node9 -->
<g id="edge11" class="edge">
<title>Node7&#45;&gt;Node9</title>
<path fill="none" stroke="#63b8ff" d="M619.32,-98.76C615.05,-84.97 612.54,-66.96 622.5,-55 643.39,-29.9 725.87,-18.9 788.58,-14.12"/>
<polygon fill="#63b8ff" stroke="#63b8ff" points="616.02,-99.92 622.74,-108.11 622.59,-97.51 616.02,-99.92"/>
</g>
<!-- Node7&#45;&gt;Node10 -->
<g id="edge12" class="edge">
<title>Node7&#45;&gt;Node10</title>
<path fill="none" stroke="#63b8ff" d="M682.16,-111.2C753.92,-101.62 879.87,-84.81 957.35,-74.46"/>
<polygon fill="#63b8ff" stroke="#63b8ff" points="682.07,-107.68 672.62,-112.48 683,-114.62 682.07,-107.68"/>
</g>
<!-- Node7&#45;&gt;Node11 -->
<g id="edge16" class="edge">
<title>Node7&#45;&gt;Node11</title>
<path fill="none" stroke="#63b8ff" d="M573.68,-107.18C527.18,-97.4 460.9,-83.46 418.04,-74.45"/>
<polygon fill="#63b8ff" stroke="#63b8ff" points="572.76,-110.56 583.27,-109.2 574.2,-103.71 572.76,-110.56"/>
</g>
<!-- Node7&#45;&gt;Node12 -->
<g id="edge18" class="edge">
<title>Node7&#45;&gt;Node12</title>
<path fill="none" stroke="#63b8ff" d="M682.33,-113.43C793.73,-103.12 1044.99,-79.88 1151.4,-70.04"/>
<polygon fill="#63b8ff" stroke="#63b8ff" points="682.18,-109.93 672.55,-114.33 682.83,-116.9 682.18,-109.93"/>
</g>
<!-- Node7&#45;&gt;Node13 -->
<g id="edge21" class="edge">
<title>Node7&#45;&gt;Node13</title>
<path fill="none" stroke="#63b8ff" d="M572.14,-111.36C498.08,-101.81 366.77,-84.88 286.1,-74.48"/>
<polygon fill="#63b8ff" stroke="#63b8ff" points="571.65,-114.83 582.01,-112.63 572.54,-107.88 571.65,-114.83"/>
</g>
<!-- Node7&#45;&gt;Node14 -->
<g id="edge23" class="edge">
<title>Node7&#45;&gt;Node14</title>
<path fill="none" stroke="#63b8ff" d="M650.61,-103.19C664.73,-93.84 682.28,-82.21 694.13,-74.36"/>
<polygon fill="#63b8ff" stroke="#63b8ff" points="648.74,-100.23 642.33,-108.67 652.6,-106.07 648.74,-100.23"/>
</g>
<!-- Node7&#45;&gt;Node15 -->
<g id="edge25" class="edge">
<title>Node7&#45;&gt;Node15</title>
<path fill="none" stroke="#63b8ff" d="M682.58,-115.58C792.33,-109.56 1045.98,-94.57 1258.5,-74 1261.5,-73.71 1264.58,-73.39 1267.68,-73.06"/>
<polygon fill="#63b8ff" stroke="#63b8ff" points="682.48,-112.08 672.68,-116.12 682.86,-119.07 682.48,-112.08"/>
</g>
<!-- Node7&#45;&gt;Node16 -->
<g id="edge27" class="edge">
<title>Node7&#45;&gt;Node16</title>
<path fill="none" stroke="#63b8ff" d="M679.54,-107.06C723.97,-97.28 787,-83.42 827.82,-74.45"/>
<polygon fill="#63b8ff" stroke="#63b8ff" points="678.88,-103.62 669.86,-109.18 680.38,-110.45 678.88,-103.62"/>
</g>
<!-- Node7&#45;&gt;Node17 -->
<g id="edge29" class="edge">
<title>Node7&#45;&gt;Node17</title>
<path fill="none" stroke="#63b8ff" d="M572.3,-114.07C480.8,-106.61 291.99,-90.71 132.5,-74 129.54,-73.69 126.51,-73.36 123.44,-73.02"/>
<polygon fill="#63b8ff" stroke="#63b8ff" points="572,-117.56 582.25,-114.88 572.56,-110.58 572,-117.56"/>
</g>
<!-- Node8&#45;&gt;Node3 -->
<g id="edge10" class="edge">
<title>Node8&#45;&gt;Node3</title>
<path fill="none" stroke="#63b8ff" d="M520.42,-85.55C525.49,-112.57 538.62,-160.03 570.5,-184 612.42,-215.53 764.85,-224.75 842.04,-227.43"/>
<polygon fill="#63b8ff" stroke="#63b8ff" points="523.91,-85.21 518.82,-75.92 517.01,-86.36 523.91,-85.21"/>
</g>
<!-- Node8&#45;&gt;Node9 -->
<g id="edge8" class="edge">
<title>Node8&#45;&gt;Node9</title>
<path fill="none" stroke="#63b8ff" d="M586.99,-52.86C650.94,-43.06 744.73,-28.69 804.96,-19.47"/>
<polygon fill="#63b8ff" stroke="#63b8ff" points="586.65,-49.37 577.3,-54.34 587.71,-56.29 586.65,-49.37"/>
</g>
<!-- Node9&#45;&gt;Node3 -->
<g id="edge9" class="edge">
<title>Node9&#45;&gt;Node3</title>
<path fill="none" stroke="#63b8ff" d="M949.45,-12.92C1055.3,-16.99 1240.3,-27.65 1396.5,-55 1590.15,-88.9 1748.08,-48.44 1620.5,-184 1596.85,-209.13 1088.95,-223.58 932.78,-227.44"/>
<polygon fill="#63b8ff" stroke="#63b8ff" points="949.83,-9.43 939.71,-12.56 949.57,-16.43 949.83,-9.43"/>
</g>
<!-- Node10&#45;&gt;Node3 -->
<g id="edge13" class="edge">
<title>Node10&#45;&gt;Node3</title>
<path fill="none" stroke="#63b8ff" d="M1009.89,-82.88C980.81,-117.48 916.61,-193.87 894.87,-219.74"/>
<polygon fill="#63b8ff" stroke="#63b8ff" points="1012.37,-85.37 1016.12,-75.47 1007.01,-80.87 1012.37,-85.37"/>
</g>
<!-- Node11&#45;&gt;Node3 -->
<g id="edge17" class="edge">
<title>Node11&#45;&gt;Node3</title>
<path fill="none" stroke="#63b8ff" d="M393.22,-81.85C422.99,-108.26 486.02,-159.79 549.5,-184 649.04,-221.97 775.7,-228.54 842.14,-229.1"/>
<polygon fill="#63b8ff" stroke="#63b8ff" points="395.66,-79.34 385.89,-75.24 390.97,-84.54 395.66,-79.34"/>
</g>
<!-- Node12&#45;&gt;Node3 -->
<g id="edge19" class="edge">
<title>Node12&#45;&gt;Node3</title>
<path fill="none" stroke="#63b8ff" d="M1153.91,-77.43C1126.86,-85.14 1092.51,-96.29 1063.5,-110 1022.48,-129.39 1015.16,-139.69 977.5,-165 949.25,-183.99 916.77,-207.27 899.61,-219.69"/>
<polygon fill="#63b8ff" stroke="#63b8ff" points="1154.49,-80.91 1163.18,-74.85 1152.61,-74.16 1154.49,-80.91"/>
</g>
<!-- Node13&#45;&gt;Node3 -->
<g id="edge22" class="edge">
<title>Node13&#45;&gt;Node3</title>
<path fill="none" stroke="#63b8ff" d="M243.85,-79.52C294.57,-104.85 407.29,-158.03 508.5,-184 626.41,-214.26 770.32,-224.01 842.15,-227.1"/>
<polygon fill="#63b8ff" stroke="#63b8ff" points="245.57,-76.47 235.07,-75.1 242.42,-82.72 245.57,-76.47"/>
</g>
<!-- Node14&#45;&gt;Node3 -->
<g id="edge24" class="edge">
<title>Node14&#45;&gt;Node3</title>
<path fill="none" stroke="#63b8ff" d="M725.65,-81.93C763.23,-115.97 848.49,-193.17 877.57,-219.5"/>
<polygon fill="#63b8ff" stroke="#63b8ff" points="728.07,-79.4 718.31,-75.28 723.37,-84.59 728.07,-79.4"/>
</g>
<!-- Node15&#45;&gt;Node3 -->
<g id="edge26" class="edge">
<title>Node15&#45;&gt;Node3</title>
<path fill="none" stroke="#63b8ff" d="M1398.76,-72.2C1499.94,-84.29 1666.17,-115.17 1601.5,-184 1578.55,-208.42 1086.59,-223.3 932.93,-227.36"/>
<polygon fill="#63b8ff" stroke="#63b8ff" points="1399.21,-68.73 1388.87,-71.06 1398.41,-75.69 1399.21,-68.73"/>
</g>
<!-- Node16&#45;&gt;Node3 -->
<g id="edge28" class="edge">
<title>Node16&#45;&gt;Node3</title>
<path fill="none" stroke="#63b8ff" d="M870.85,-85.62C875.01,-121.36 883.54,-194.53 886.48,-219.74"/>
<polygon fill="#63b8ff" stroke="#63b8ff" points="874.34,-85.34 869.7,-75.81 867.38,-86.15 874.34,-85.34"/>
</g>
<!-- Node17&#45;&gt;Node3 -->
<g id="edge30" class="edge">
<title>Node17&#45;&gt;Node3</title>
<path fill="none" stroke="#63b8ff" d="M95.12,-78.33C161.32,-103.04 313.66,-157.13 446.5,-184 589.24,-212.87 761.94,-223.38 842.3,-226.89"/>
<polygon fill="#63b8ff" stroke="#63b8ff" points="96.53,-75.12 85.94,-74.88 94.07,-81.68 96.53,-75.12"/>
</g>
<!-- Node18&#45;&gt;Node5 -->
<g id="edge45" class="edge">
<title>Node18&#45;&gt;Node5</title>
<path fill="none" stroke="#63b8ff" d="M1439.85,-156.78C1449.25,-147.72 1460.48,-136.9 1468.22,-129.44"/>
<polygon fill="#63b8ff" stroke="#63b8ff" points="1437.44,-154.24 1432.67,-163.7 1442.3,-159.28 1437.44,-154.24"/>
</g>
<!-- Node19&#45;&gt;Node5 -->
<g id="edge47" class="edge">
<title>Node19&#45;&gt;Node5</title>
<path fill="none" stroke="#63b8ff" d="M1515.15,-156.78C1505.75,-147.72 1494.52,-136.9 1486.78,-129.44"/>
<polygon fill="#63b8ff" stroke="#63b8ff" points="1512.7,-159.28 1522.33,-163.7 1517.56,-154.24 1512.7,-159.28"/>
</g>
<!-- Node21&#45;&gt;Node20 -->
<g id="edge50" class="edge">
<title>Node21&#45;&gt;Node20</title>
<path fill="none" stroke="#63b8ff" d="M1128.12,-153.35C1127.96,-145.1 1127.79,-135.97 1127.67,-129.44"/>
<polygon fill="#63b8ff" stroke="#63b8ff" points="1124.62,-153.3 1128.31,-163.23 1131.62,-153.17 1124.62,-153.3"/>
</g>
</g>
</svg>
