<?xml version="1.0" encoding="UTF-8" standalone="no"?>
<!DOCTYPE svg PUBLIC "-//W3C//DTD SVG 1.1//EN"
 "http://www.w3.org/Graphics/SVG/1.1/DTD/svg11.dtd">
<!-- Generated by graphviz version 7.0.5 (20221223.1930)
 -->
<!-- Title: solve/csv_writer.h Pages: 1 -->
<svg width="1853pt" height="357pt"
 viewBox="0.00 0.00 1853.00 357.00" xmlns="http://www.w3.org/2000/svg" xmlns:xlink="http://www.w3.org/1999/xlink">
<g id="graph0" class="graph" transform="scale(1 1) rotate(0) translate(4 353)">
<title>solve/csv_writer.h</title>
<!-- Node1 -->
<g id="node1" class="node">
<title>Node1</title>
<g id="a_node1"><a xlink:title="io::csv_writer source file">
<polygon fill="#999999" stroke="#666666" points="1740.5,-349 1645.5,-349 1645.5,-330 1740.5,-330 1740.5,-349"/>
<text text-anchor="middle" x="1693" y="-337" font-family="Helvetica,sans-Serif" font-size="10.00">solve/csv_writer.h</text>
</a>
</g>
</g>
<!-- Node2 -->
<g id="node2" class="node">
<title>Node2</title>
<g id="a_node2"><a xlink:title=" ">
<polygon fill="#e0e0e0" stroke="#999999" points="1069,-294 1019,-294 1019,-275 1069,-275 1069,-294"/>
<text text-anchor="middle" x="1044" y="-282" font-family="Helvetica,sans-Serif" font-size="10.00">fstream</text>
</a>
</g>
</g>
<!-- Node1&#45;&gt;Node2 -->
<g id="edge1" class="edge">
<title>Node1&#45;&gt;Node2</title>
<path fill="none" stroke="#63b8ff" d="M1645.22,-337.85C1543.15,-335.85 1296.19,-327.8 1080.38,-294.08"/>
<polygon fill="#63b8ff" stroke="#63b8ff" points="1081.07,-290.65 1070.65,-292.54 1079.97,-297.56 1081.07,-290.65"/>
</g>
<!-- Node3 -->
<g id="node3" class="node">
<title>Node3</title>
<g id="a_node3"><a xlink:title=" ">
<polygon fill="#e0e0e0" stroke="#999999" points="1808.5,-19 1767.5,-19 1767.5,0 1808.5,0 1808.5,-19"/>
<text text-anchor="middle" x="1788" y="-7" font-family="Helvetica,sans-Serif" font-size="10.00">string</text>
</a>
</g>
</g>
<!-- Node1&#45;&gt;Node3 -->
<g id="edge2" class="edge">
<title>Node1&#45;&gt;Node3</title>
<path fill="none" stroke="#63b8ff" d="M1730.18,-329.58C1775.18,-316.31 1845,-286.67 1845,-230.5 1845,-230.5 1845,-230.5 1845,-118.5 1845,-83.18 1820.86,-48.09 1803.99,-27.89"/>
<polygon fill="#63b8ff" stroke="#63b8ff" points="1806.86,-25.85 1797.65,-20.61 1801.58,-30.45 1806.86,-25.85"/>
</g>
<!-- Node4 -->
<g id="node4" class="node">
<title>Node4</title>
<g id="a_node4"><a xlink:title=" ">
<polygon fill="#e0e0e0" stroke="#999999" points="1556,-19 1512,-19 1512,0 1556,0 1556,-19"/>
<text text-anchor="middle" x="1534" y="-7" font-family="Helvetica,sans-Serif" font-size="10.00">vector</text>
</a>
</g>
</g>
<!-- Node1&#45;&gt;Node4 -->
<g id="edge3" class="edge">
<title>Node1&#45;&gt;Node4</title>
<path fill="none" stroke="#63b8ff" d="M1705.21,-329.62C1726.69,-312.86 1769,-274.29 1769,-230.5 1769,-230.5 1769,-230.5 1769,-173.5 1769,-110.69 1742.58,-92.23 1692,-55 1654.94,-27.72 1601.78,-17.15 1567.57,-13.06"/>
<polygon fill="#63b8ff" stroke="#63b8ff" points="1568.13,-9.6 1557.82,-12.03 1567.39,-16.57 1568.13,-9.6"/>
</g>
<!-- Node5 -->
<g id="node5" class="node">
<title>Node5</title>
<g id="a_node5"><a xlink:href="_model_8h.html" target="_top" xlink:title="model::Model source file">
<polygon fill="white" stroke="#666666" points="1137,-294 1087,-294 1087,-275 1137,-275 1137,-294"/>
<text text-anchor="middle" x="1112" y="-282" font-family="Helvetica,sans-Serif" font-size="10.00">Model.h</text>
</a>
</g>
</g>
<!-- Node1&#45;&gt;Node5 -->
<g id="edge4" class="edge">
<title>Node1&#45;&gt;Node5</title>
<path fill="none" stroke="#63b8ff" d="M1645.45,-334.16C1532.56,-323.86 1250.25,-298.11 1148.92,-288.87"/>
<polygon fill="#63b8ff" stroke="#63b8ff" points="1149.27,-285.39 1139,-287.96 1148.64,-292.36 1149.27,-285.39"/>
</g>
<!-- Node34 -->
<g id="node34" class="node">
<title>Node34</title>
<g id="a_node34"><a xlink:href="_state_8h.html" target="_top" xlink:title="algebra::State source file">
<polygon fill="white" stroke="#666666" points="1716.5,-294 1669.5,-294 1669.5,-275 1716.5,-275 1716.5,-294"/>
<text text-anchor="middle" x="1693" y="-282" font-family="Helvetica,sans-Serif" font-size="10.00">State.h</text>
</a>
</g>
</g>
<!-- Node1&#45;&gt;Node34 -->
<g id="edge81" class="edge">
<title>Node1&#45;&gt;Node34</title>
<path fill="none" stroke="#63b8ff" d="M1693,-329.75C1693,-323.27 1693,-314.16 1693,-305.9"/>
<polygon fill="#63b8ff" stroke="#63b8ff" points="1696.5,-305.96 1693,-295.96 1689.5,-305.96 1696.5,-305.96"/>
</g>
<!-- Node5&#45;&gt;Node3 -->
<g id="edge9" class="edge">
<title>Node5&#45;&gt;Node3</title>
<path fill="none" stroke="#63b8ff" d="M1137.44,-282.77C1238.59,-279.69 1608.92,-266.61 1653,-239 1731.88,-189.59 1770.33,-75.88 1783.04,-30.11"/>
<polygon fill="#63b8ff" stroke="#63b8ff" points="1786.39,-31.14 1785.57,-20.58 1779.63,-29.35 1786.39,-31.14"/>
</g>
<!-- Node5&#45;&gt;Node4 -->
<g id="edge10" class="edge">
<title>Node5&#45;&gt;Node4</title>
<path fill="none" stroke="#63b8ff" d="M1137.42,-282.94C1230.33,-280.63 1547.65,-270.49 1579,-239 1636.86,-180.89 1574.8,-71.44 1546.51,-28.47"/>
<polygon fill="#63b8ff" stroke="#63b8ff" points="1549.49,-26.62 1540.99,-20.3 1543.69,-30.54 1549.49,-26.62"/>
</g>
<!-- Node6 -->
<g id="node6" class="node">
<title>Node6</title>
<g id="a_node6"><a xlink:title=" ">
<polygon fill="#e0e0e0" stroke="#999999" points="1551,-239 1495,-239 1495,-220 1551,-220 1551,-239"/>
<text text-anchor="middle" x="1523" y="-227" font-family="Helvetica,sans-Serif" font-size="10.00">algorithm</text>
</a>
</g>
</g>
<!-- Node5&#45;&gt;Node6 -->
<g id="edge5" class="edge">
<title>Node5&#45;&gt;Node6</title>
<path fill="none" stroke="#63b8ff" d="M1137.15,-281.16C1196.97,-275.46 1352.32,-259.75 1481,-239 1481.83,-238.87 1482.66,-238.73 1483.5,-238.59"/>
<polygon fill="#63b8ff" stroke="#63b8ff" points="1483.89,-242.07 1493.1,-236.84 1482.64,-235.19 1483.89,-242.07"/>
</g>
<!-- Node7 -->
<g id="node7" class="node">
<title>Node7</title>
<g id="a_node7"><a xlink:title=" ">
<polygon fill="#e0e0e0" stroke="#999999" points="1322.5,-74 1293.5,-74 1293.5,-55 1322.5,-55 1322.5,-74"/>
<text text-anchor="middle" x="1308" y="-62" font-family="Helvetica,sans-Serif" font-size="10.00">list</text>
</a>
</g>
</g>
<!-- Node5&#45;&gt;Node7 -->
<g id="edge6" class="edge">
<title>Node5&#45;&gt;Node7</title>
<path fill="none" stroke="#63b8ff" d="M1137.15,-282.53C1184.99,-279.98 1291.75,-270.88 1375,-239 1417.72,-222.64 1439.93,-224.07 1462,-184 1466.07,-176.6 1466.04,-172.42 1462,-165 1447.84,-139 1372.95,-98.25 1333.06,-77.91"/>
<polygon fill="#63b8ff" stroke="#63b8ff" points="1334.68,-74.81 1324.17,-73.43 1331.52,-81.06 1334.68,-74.81"/>
</g>
<!-- Node8 -->
<g id="node8" class="node">
<title>Node8</title>
<g id="a_node8"><a xlink:title=" ">
<polygon fill="#e0e0e0" stroke="#999999" points="949.5,-19 914.5,-19 914.5,0 949.5,0 949.5,-19"/>
<text text-anchor="middle" x="932" y="-7" font-family="Helvetica,sans-Serif" font-size="10.00">map</text>
</a>
</g>
</g>
<!-- Node5&#45;&gt;Node8 -->
<g id="edge7" class="edge">
<title>Node5&#45;&gt;Node8</title>
<path fill="none" stroke="#63b8ff" d="M1086.86,-276.62C1083.89,-275.98 1080.89,-275.42 1078,-275 717.88,-222.61 619.58,-294.92 260,-239 158.6,-223.23 38,-278.12 38,-175.5 38,-175.5 38,-175.5 38,-118.5 38,-24.62 783.99,-31.7 877,-19 885.46,-17.85 894.63,-16.47 903.02,-15.18"/>
<polygon fill="#63b8ff" stroke="#63b8ff" points="903.36,-18.66 912.69,-13.65 902.27,-11.75 903.36,-18.66"/>
</g>
<!-- Node9 -->
<g id="node9" class="node">
<title>Node9</title>
<g id="a_node9"><a xlink:title=" ">
<polygon fill="#e0e0e0" stroke="#999999" points="322.5,-19 271.5,-19 271.5,0 322.5,0 322.5,-19"/>
<text text-anchor="middle" x="297" y="-7" font-family="Helvetica,sans-Serif" font-size="10.00">memory</text>
</a>
</g>
</g>
<!-- Node5&#45;&gt;Node9 -->
<g id="edge8" class="edge">
<title>Node5&#45;&gt;Node9</title>
<path fill="none" stroke="#63b8ff" d="M1086.87,-276.59C1083.89,-275.96 1080.89,-275.41 1078,-275 964.94,-259.07 153.08,-290.16 51,-239 18.64,-222.78 0,-211.7 0,-175.5 0,-175.5 0,-175.5 0,-118.5 0,-63.72 180.69,-28.69 260.2,-15.93"/>
<polygon fill="#63b8ff" stroke="#63b8ff" points="260.33,-19.45 269.67,-14.44 259.25,-12.53 260.33,-19.45"/>
</g>
<!-- Node10 -->
<g id="node10" class="node">
<title>Node10</title>
<g id="a_node10"><a xlink:href="_block_8h.html" target="_top" xlink:title="model::Block source file">
<polygon fill="white" stroke="#666666" points="956.5,-129 907.5,-129 907.5,-110 956.5,-110 956.5,-129"/>
<text text-anchor="middle" x="932" y="-117" font-family="Helvetica,sans-Serif" font-size="10.00">Block.h</text>
</a>
</g>
</g>
<!-- Node5&#45;&gt;Node10 -->
<g id="edge11" class="edge">
<title>Node5&#45;&gt;Node10</title>
<path fill="none" stroke="#63b8ff" d="M1107.08,-274.71C1102.13,-265.78 1094.34,-251.53 1088,-239 1071.58,-206.53 1079.85,-189.55 1053,-165 1029.26,-143.29 994.03,-131.93 967.7,-126.14"/>
<polygon fill="#63b8ff" stroke="#63b8ff" points="968.64,-122.76 958.15,-124.22 967.26,-129.62 968.64,-122.76"/>
</g>
<!-- Node12 -->
<g id="node12" class="node">
<title>Node12</title>
<g id="a_node12"><a xlink:href="_d_o_f_handler_8h.html" target="_top" xlink:title="model::DOFHandler source file">
<polygon fill="white" stroke="#666666" points="1539,-74 1461,-74 1461,-55 1539,-55 1539,-74"/>
<text text-anchor="middle" x="1500" y="-62" font-family="Helvetica,sans-Serif" font-size="10.00">DOFHandler.h</text>
</a>
</g>
</g>
<!-- Node5&#45;&gt;Node12 -->
<g id="edge45" class="edge">
<title>Node5&#45;&gt;Node12</title>
<path fill="none" stroke="#63b8ff" d="M1137.41,-282.92C1228.04,-280.6 1531.47,-270.5 1560,-239 1601.65,-193 1545.25,-116.62 1515.84,-82.67"/>
<polygon fill="#63b8ff" stroke="#63b8ff" points="1518.64,-80.55 1509.37,-75.41 1513.41,-85.21 1518.64,-80.55"/>
</g>
<!-- Node17 -->
<g id="node17" class="node">
<title>Node17</title>
<g id="a_node17"><a xlink:href="_blood_vessel_8h.html" target="_top" xlink:title="model::BloodVessel source file">
<polygon fill="white" stroke="#666666" points="922.5,-184 843.5,-184 843.5,-165 922.5,-165 922.5,-184"/>
<text text-anchor="middle" x="883" y="-172" font-family="Helvetica,sans-Serif" font-size="10.00">BloodVessel.h</text>
</a>
</g>
</g>
<!-- Node5&#45;&gt;Node17 -->
<g id="edge25" class="edge">
<title>Node5&#45;&gt;Node17</title>
<path fill="none" stroke="#63b8ff" d="M1093.26,-274.66C1053.42,-255.87 960.06,-211.84 912.29,-189.31"/>
<polygon fill="#63b8ff" stroke="#63b8ff" points="913.91,-186.21 903.37,-185.11 910.92,-192.54 913.91,-186.21"/>
</g>
<!-- Node19 -->
<g id="node19" class="node">
<title>Node19</title>
<g id="a_node19"><a xlink:href="_blood_vessel_junction_8h.html" target="_top" xlink:title="model::BloodVesselJunction source file">
<polygon fill="white" stroke="#666666" points="1213,-239 1097,-239 1097,-220 1213,-220 1213,-239"/>
<text text-anchor="middle" x="1155" y="-227" font-family="Helvetica,sans-Serif" font-size="10.00">BloodVesselJunction.h</text>
</a>
</g>
</g>
<!-- Node5&#45;&gt;Node19 -->
<g id="edge29" class="edge">
<title>Node5&#45;&gt;Node19</title>
<path fill="none" stroke="#63b8ff" d="M1119.1,-274.75C1124.92,-267.58 1133.33,-257.2 1140.56,-248.3"/>
<polygon fill="#63b8ff" stroke="#63b8ff" points="1143.21,-250.59 1146.79,-240.62 1137.77,-246.18 1143.21,-250.59"/>
</g>
<!-- Node21 -->
<g id="node21" class="node">
<title>Node21</title>
<g id="a_node21"><a xlink:href="_closed_loop_coronary_b_c_8h.html" target="_top" xlink:title="model::ClosedLoopCoronaryBC source file">
<polygon fill="white" stroke="#666666" points="771,-239 643,-239 643,-220 771,-220 771,-239"/>
<text text-anchor="middle" x="707" y="-227" font-family="Helvetica,sans-Serif" font-size="10.00">ClosedLoopCoronaryBC.h</text>
</a>
</g>
</g>
<!-- Node5&#45;&gt;Node21 -->
<g id="edge34" class="edge">
<title>Node5&#45;&gt;Node21</title>
<path fill="none" stroke="#63b8ff" d="M1086.83,-276.83C1083.86,-276.16 1080.87,-275.53 1078,-275 976.51,-256.3 857.89,-243.66 782.62,-236.77"/>
<polygon fill="#63b8ff" stroke="#63b8ff" points="783.16,-233.3 772.89,-235.89 782.53,-240.27 783.16,-233.3"/>
</g>
<!-- Node22 -->
<g id="node22" class="node">
<title>Node22</title>
<g id="a_node22"><a xlink:href="_closed_loop_heart_pulmonary_8h.html" target="_top" xlink:title="model::ClosedLoopHeartPulmonary source file">
<polygon fill="white" stroke="#666666" points="683,-184 537,-184 537,-165 683,-165 683,-184"/>
<text text-anchor="middle" x="610" y="-172" font-family="Helvetica,sans-Serif" font-size="10.00">ClosedLoopHeartPulmonary.h</text>
</a>
</g>
</g>
<!-- Node5&#45;&gt;Node22 -->
<g id="edge41" class="edge">
<title>Node5&#45;&gt;Node22</title>
<path fill="none" stroke="#63b8ff" d="M1086.85,-276.72C1083.88,-276.07 1080.88,-275.47 1078,-275 980.32,-258.94 713.09,-298.53 634,-239 620.45,-228.8 614.55,-210.02 611.98,-195.51"/>
<polygon fill="#63b8ff" stroke="#63b8ff" points="615.46,-195.14 610.67,-185.69 608.53,-196.07 615.46,-195.14"/>
</g>
<!-- Node23 -->
<g id="node23" class="node">
<title>Node23</title>
<g id="a_node23"><a xlink:href="_closed_loop_r_c_r_b_c_8h.html" target="_top" xlink:title="model::ClosedLoopRCRBC source file">
<polygon fill="white" stroke="#666666" points="481,-184 371,-184 371,-165 481,-165 481,-184"/>
<text text-anchor="middle" x="426" y="-172" font-family="Helvetica,sans-Serif" font-size="10.00">ClosedLoopRCRBC.h</text>
</a>
</g>
</g>
<!-- Node5&#45;&gt;Node23 -->
<g id="edge42" class="edge">
<title>Node5&#45;&gt;Node23</title>
<path fill="none" stroke="#63b8ff" d="M1086.85,-276.71C1083.88,-276.06 1080.88,-275.47 1078,-275 874.72,-241.91 817.84,-279.95 616,-239 558.85,-227.41 495.07,-203.76 457.85,-188.83"/>
<polygon fill="#63b8ff" stroke="#63b8ff" points="459.17,-185.59 448.59,-185.06 456.53,-192.07 459.17,-185.59"/>
</g>
<!-- Node24 -->
<g id="node24" class="node">
<title>Node24</title>
<g id="a_node24"><a xlink:href="_flow_reference_b_c_8h.html" target="_top" xlink:title="model::FlowReferenceBC source file">
<polygon fill="white" stroke="#666666" points="1043.5,-184 940.5,-184 940.5,-165 1043.5,-165 1043.5,-184"/>
<text text-anchor="middle" x="992" y="-172" font-family="Helvetica,sans-Serif" font-size="10.00">FlowReferenceBC.h</text>
</a>
</g>
</g>
<!-- Node5&#45;&gt;Node24 -->
<g id="edge46" class="edge">
<title>Node5&#45;&gt;Node24</title>
<path fill="none" stroke="#63b8ff" d="M1099.86,-274.72C1088.07,-266.03 1069.83,-252.17 1055,-239 1038.21,-224.09 1020.28,-205.76 1007.86,-192.63"/>
<polygon fill="#63b8ff" stroke="#63b8ff" points="1010.65,-190.49 1001.26,-185.59 1005.54,-195.28 1010.65,-190.49"/>
</g>
<!-- Node25 -->
<g id="node25" class="node">
<title>Node25</title>
<g id="a_node25"><a xlink:href="_parameter_8h.html" target="_top" xlink:title="model::Parameter source file">
<polygon fill="white" stroke="#666666" points="1345.5,-129 1276.5,-129 1276.5,-110 1345.5,-110 1345.5,-129"/>
<text text-anchor="middle" x="1311" y="-117" font-family="Helvetica,sans-Serif" font-size="10.00">Parameter.h</text>
</a>
</g>
</g>
<!-- Node5&#45;&gt;Node25 -->
<g id="edge66" class="edge">
<title>Node5&#45;&gt;Node25</title>
<path fill="none" stroke="#63b8ff" d="M1137.36,-279.91C1208.76,-269.24 1408.67,-235.22 1446,-184 1471.63,-148.83 1405.46,-132.47 1356.95,-125.38"/>
<polygon fill="#63b8ff" stroke="#63b8ff" points="1357.56,-121.93 1347.18,-124.05 1356.62,-128.87 1357.56,-121.93"/>
</g>
<!-- Node27 -->
<g id="node27" class="node">
<title>Node27</title>
<g id="a_node27"><a xlink:href="_junction_8h.html" target="_top" xlink:title="model::Junction source file">
<polygon fill="white" stroke="#666666" points="127.5,-184 66.5,-184 66.5,-165 127.5,-165 127.5,-184"/>
<text text-anchor="middle" x="97" y="-172" font-family="Helvetica,sans-Serif" font-size="10.00">Junction.h</text>
</a>
</g>
</g>
<!-- Node5&#45;&gt;Node27 -->
<g id="edge54" class="edge">
<title>Node5&#45;&gt;Node27</title>
<path fill="none" stroke="#63b8ff" d="M1086.86,-276.63C1083.89,-276 1080.89,-275.43 1078,-275 761.08,-227.92 675.07,-285.08 358,-239 278.41,-227.43 187.61,-202.63 136.82,-187.68"/>
<polygon fill="#63b8ff" stroke="#63b8ff" points="138.04,-184.39 127.45,-184.9 136.04,-191.1 138.04,-184.39"/>
</g>
<!-- Node28 -->
<g id="node28" class="node">
<title>Node28</title>
<g id="a_node28"><a xlink:href="_node_8h.html" target="_top" xlink:title="model::Node source file">
<polygon fill="white" stroke="#666666" points="1702.5,-129 1655.5,-129 1655.5,-110 1702.5,-110 1702.5,-129"/>
<text text-anchor="middle" x="1679" y="-117" font-family="Helvetica,sans-Serif" font-size="10.00">Node.h</text>
</a>
</g>
</g>
<!-- Node5&#45;&gt;Node28 -->
<g id="edge57" class="edge">
<title>Node5&#45;&gt;Node28</title>
<path fill="none" stroke="#63b8ff" d="M1137.19,-282.87C1235.64,-280.2 1590.93,-268.57 1631,-239 1662.76,-215.56 1673.56,-167.5 1677.19,-140.34"/>
<polygon fill="#63b8ff" stroke="#63b8ff" points="1680.64,-141.02 1678.27,-130.69 1673.68,-140.24 1680.64,-141.02"/>
</g>
<!-- Node29 -->
<g id="node29" class="node">
<title>Node29</title>
<g id="a_node29"><a xlink:href="_open_loop_coronary_b_c_8h.html" target="_top" xlink:title="model::OpenLoopCoronaryBC source file">
<polygon fill="white" stroke="#666666" points="1297.5,-184 1176.5,-184 1176.5,-165 1297.5,-165 1297.5,-184"/>
<text text-anchor="middle" x="1237" y="-172" font-family="Helvetica,sans-Serif" font-size="10.00">OpenLoopCoronaryBC.h</text>
</a>
</g>
</g>
<!-- Node5&#45;&gt;Node29 -->
<g id="edge62" class="edge">
<title>Node5&#45;&gt;Node29</title>
<path fill="none" stroke="#63b8ff" d="M1137.28,-280.06C1162.46,-275.28 1200.4,-264.17 1222,-239 1232.28,-227.02 1235.81,-209.27 1236.9,-195.58"/>
<polygon fill="#63b8ff" stroke="#63b8ff" points="1240.38,-196.07 1237.27,-185.94 1233.39,-195.8 1240.38,-196.07"/>
</g>
<!-- Node30 -->
<g id="node30" class="node">
<title>Node30</title>
<g id="a_node30"><a xlink:href="_pressure_reference_b_c_8h.html" target="_top" xlink:title="model::PressureReferenceBC source file">
<polygon fill="white" stroke="#666666" points="1436.5,-184 1315.5,-184 1315.5,-165 1436.5,-165 1436.5,-184"/>
<text text-anchor="middle" x="1376" y="-172" font-family="Helvetica,sans-Serif" font-size="10.00">PressureReferenceBC.h</text>
</a>
</g>
</g>
<!-- Node5&#45;&gt;Node30 -->
<g id="edge67" class="edge">
<title>Node5&#45;&gt;Node30</title>
<path fill="none" stroke="#63b8ff" d="M1137.02,-275.75C1163.23,-267.43 1205.44,-253.45 1241,-239 1278.96,-223.58 1321.56,-202.96 1348.57,-189.47"/>
<polygon fill="#63b8ff" stroke="#63b8ff" points="1350.08,-192.63 1357.44,-185.01 1346.93,-186.37 1350.08,-192.63"/>
</g>
<!-- Node31 -->
<g id="node31" class="node">
<title>Node31</title>
<g id="a_node31"><a xlink:href="_resistance_b_c_8h.html" target="_top" xlink:title="model::ResistanceBC source file">
<polygon fill="white" stroke="#666666" points="825,-184 739,-184 739,-165 825,-165 825,-184"/>
<text text-anchor="middle" x="782" y="-172" font-family="Helvetica,sans-Serif" font-size="10.00">ResistanceBC.h</text>
</a>
</g>
</g>
<!-- Node5&#45;&gt;Node31 -->
<g id="edge71" class="edge">
<title>Node5&#45;&gt;Node31</title>
<path fill="none" stroke="#63b8ff" d="M1086.65,-275.2C1029.04,-256.35 887.98,-210.18 819.93,-187.91"/>
<polygon fill="#63b8ff" stroke="#63b8ff" points="821.31,-184.68 810.71,-184.9 819.13,-191.33 821.31,-184.68"/>
</g>
<!-- Node32 -->
<g id="node32" class="node">
<title>Node32</title>
<g id="a_node32"><a xlink:href="_resistive_junction_8h.html" target="_top" xlink:title="model::ResistiveJunction source file">
<polygon fill="white" stroke="#666666" points="246.5,-184 145.5,-184 145.5,-165 246.5,-165 246.5,-184"/>
<text text-anchor="middle" x="196" y="-172" font-family="Helvetica,sans-Serif" font-size="10.00">ResistiveJunction.h</text>
</a>
</g>
</g>
<!-- Node5&#45;&gt;Node32 -->
<g id="edge75" class="edge">
<title>Node5&#45;&gt;Node32</title>
<path fill="none" stroke="#63b8ff" d="M1086.86,-276.66C1083.89,-276.01 1080.89,-275.44 1078,-275 803.82,-233.18 729.27,-280.19 455,-239 376.04,-227.14 285.93,-202.44 235.52,-187.59"/>
<polygon fill="#63b8ff" stroke="#63b8ff" points="236.82,-184.32 226.24,-184.82 234.82,-191.03 236.82,-184.32"/>
</g>
<!-- Node33 -->
<g id="node33" class="node">
<title>Node33</title>
<g id="a_node33"><a xlink:href="_windkessel_b_c_8h.html" target="_top" xlink:title="model::WindkesselBC source file">
<polygon fill="white" stroke="#666666" points="353,-184 265,-184 265,-165 353,-165 353,-184"/>
<text text-anchor="middle" x="309" y="-172" font-family="Helvetica,sans-Serif" font-size="10.00">WindkesselBC.h</text>
</a>
</g>
</g>
<!-- Node5&#45;&gt;Node33 -->
<g id="edge78" class="edge">
<title>Node5&#45;&gt;Node33</title>
<path fill="none" stroke="#63b8ff" d="M1086.85,-276.68C1083.88,-276.04 1080.89,-275.45 1078,-275 842.58,-237.95 778.04,-278.4 543,-239 472.2,-227.13 391.88,-202.89 346.15,-188.04"/>
<polygon fill="#63b8ff" stroke="#63b8ff" points="347.32,-184.74 336.73,-184.94 345.14,-191.39 347.32,-184.74"/>
</g>
<!-- Node10&#45;&gt;Node4 -->
<g id="edge15" class="edge">
<title>Node10&#45;&gt;Node4</title>
<path fill="none" stroke="#63b8ff" d="M956.95,-109.78C997.25,-96.05 1079.4,-69.43 1151,-55 1278.57,-29.28 1433.25,-16.96 1500.3,-12.52"/>
<polygon fill="#63b8ff" stroke="#63b8ff" points="1500.51,-16.02 1510.27,-11.88 1500.06,-9.03 1500.51,-16.02"/>
</g>
<!-- Node10&#45;&gt;Node7 -->
<g id="edge13" class="edge">
<title>Node10&#45;&gt;Node7</title>
<path fill="none" stroke="#63b8ff" d="M956.74,-117.33C1013.18,-114.24 1155.71,-104.14 1282.06,-74.25"/>
<polygon fill="#63b8ff" stroke="#63b8ff" points="1282.69,-77.69 1291.59,-71.94 1281.05,-70.89 1282.69,-77.69"/>
</g>
<!-- Node10&#45;&gt;Node8 -->
<g id="edge14" class="edge">
<title>Node10&#45;&gt;Node8</title>
<path fill="none" stroke="#63b8ff" d="M932,-109.66C932,-92.57 932,-54.61 932,-30.92"/>
<polygon fill="#63b8ff" stroke="#63b8ff" points="935.5,-30.97 932,-20.97 928.5,-30.97 935.5,-30.97"/>
</g>
<!-- Node11 -->
<g id="node11" class="node">
<title>Node11</title>
<g id="a_node11"><a xlink:title=" ">
<polygon fill="#e0e0e0" stroke="#999999" points="1405,-74 1341,-74 1341,-55 1405,-55 1405,-74"/>
<text text-anchor="middle" x="1373" y="-62" font-family="Helvetica,sans-Serif" font-size="10.00">Eigen/Core</text>
</a>
</g>
</g>
<!-- Node10&#45;&gt;Node11 -->
<g id="edge12" class="edge">
<title>Node10&#45;&gt;Node11</title>
<path fill="none" stroke="#63b8ff" d="M956.92,-116.54C1018.43,-111.55 1182.6,-97.15 1329.81,-74.21"/>
<polygon fill="#63b8ff" stroke="#63b8ff" points="1330,-77.72 1339.33,-72.7 1328.9,-70.81 1330,-77.72"/>
</g>
<!-- Node10&#45;&gt;Node12 -->
<g id="edge16" class="edge">
<title>Node10&#45;&gt;Node12</title>
<path fill="none" stroke="#63b8ff" d="M956.84,-116.26C1028.04,-109.84 1238.95,-90.73 1414,-74 1425.43,-72.91 1437.7,-71.71 1449.3,-70.57"/>
<polygon fill="#63b8ff" stroke="#63b8ff" points="1449.5,-74.06 1459.11,-69.6 1448.81,-67.1 1449.5,-74.06"/>
</g>
<!-- Node13 -->
<g id="node13" class="node">
<title>Node13</title>
<g id="a_node13"><a xlink:href="_sparse_system_8h.html" target="_top" xlink:title="algebra::SparseSystem source file">
<polygon fill="white" stroke="#666666" points="769,-74 681,-74 681,-55 769,-55 769,-74"/>
<text text-anchor="middle" x="725" y="-62" font-family="Helvetica,sans-Serif" font-size="10.00">SparseSystem.h</text>
</a>
</g>
</g>
<!-- Node10&#45;&gt;Node13 -->
<g id="edge20" class="edge">
<title>Node10&#45;&gt;Node13</title>
<path fill="none" stroke="#63b8ff" d="M907.03,-112.11C873.44,-103.51 813.09,-88.05 771.12,-77.31"/>
<polygon fill="#63b8ff" stroke="#63b8ff" points="772.1,-73.95 761.55,-74.86 770.37,-80.73 772.1,-73.95"/>
</g>
<!-- Node12&#45;&gt;Node3 -->
<g id="edge18" class="edge">
<title>Node12&#45;&gt;Node3</title>
<path fill="none" stroke="#63b8ff" d="M1539.44,-56.24C1597.02,-45.65 1702.98,-26.15 1756.01,-16.39"/>
<polygon fill="#63b8ff" stroke="#63b8ff" points="1756.4,-19.87 1765.6,-14.62 1755.13,-12.99 1756.4,-19.87"/>
</g>
<!-- Node12&#45;&gt;Node4 -->
<g id="edge19" class="edge">
<title>Node12&#45;&gt;Node4</title>
<path fill="none" stroke="#63b8ff" d="M1505.61,-54.75C1510.12,-47.73 1516.59,-37.64 1522.21,-28.87"/>
<polygon fill="#63b8ff" stroke="#63b8ff" points="1524.99,-31.02 1527.45,-20.72 1519.1,-27.24 1524.99,-31.02"/>
</g>
<!-- Node12&#45;&gt;Node8 -->
<g id="edge17" class="edge">
<title>Node12&#45;&gt;Node8</title>
<path fill="none" stroke="#63b8ff" d="M1460.62,-59.55C1445.98,-58.1 1429.23,-56.46 1414,-55 1242.44,-38.6 1036.42,-19.92 961.26,-13.13"/>
<polygon fill="#63b8ff" stroke="#63b8ff" points="961.73,-9.66 951.46,-12.25 961.1,-16.64 961.73,-9.66"/>
</g>
<!-- Node13&#45;&gt;Node9 -->
<g id="edge24" class="edge">
<title>Node13&#45;&gt;Node9</title>
<path fill="none" stroke="#63b8ff" d="M680.81,-58.03C596.2,-47.55 412.74,-24.83 334.05,-15.09"/>
<polygon fill="#63b8ff" stroke="#63b8ff" points="334.65,-11.64 324.3,-13.88 333.79,-18.58 334.65,-11.64"/>
</g>
<!-- Node14 -->
<g id="node14" class="node">
<title>Node14</title>
<g id="a_node14"><a xlink:title=" ">
<polygon fill="#e0e0e0" stroke="#999999" points="762,-19 688,-19 688,0 762,0 762,-19"/>
<text text-anchor="middle" x="725" y="-7" font-family="Helvetica,sans-Serif" font-size="10.00">Eigen/Sparse</text>
</a>
</g>
</g>
<!-- Node13&#45;&gt;Node14 -->
<g id="edge21" class="edge">
<title>Node13&#45;&gt;Node14</title>
<path fill="none" stroke="#63b8ff" d="M725,-54.75C725,-48.27 725,-39.16 725,-30.9"/>
<polygon fill="#63b8ff" stroke="#63b8ff" points="728.5,-30.96 725,-20.96 721.5,-30.96 728.5,-30.96"/>
</g>
<!-- Node15 -->
<g id="node15" class="node">
<title>Node15</title>
<g id="a_node15"><a xlink:title=" ">
<polygon fill="#e0e0e0" stroke="#999999" points="868,-19 780,-19 780,0 868,0 868,-19"/>
<text text-anchor="middle" x="824" y="-7" font-family="Helvetica,sans-Serif" font-size="10.00">Eigen/SparseLU</text>
</a>
</g>
</g>
<!-- Node13&#45;&gt;Node15 -->
<g id="edge22" class="edge">
<title>Node13&#45;&gt;Node15</title>
<path fill="none" stroke="#63b8ff" d="M741.79,-54.51C757.1,-46.31 779.97,-34.07 797.7,-24.58"/>
<polygon fill="#63b8ff" stroke="#63b8ff" points="798.96,-27.88 806.12,-20.07 795.65,-21.71 798.96,-27.88"/>
</g>
<!-- Node16 -->
<g id="node16" class="node">
<title>Node16</title>
<g id="a_node16"><a xlink:title=" ">
<polygon fill="#e0e0e0" stroke="#999999" points="670,-19 616,-19 616,0 670,0 670,-19"/>
<text text-anchor="middle" x="643" y="-7" font-family="Helvetica,sans-Serif" font-size="10.00">iostream</text>
</a>
</g>
</g>
<!-- Node13&#45;&gt;Node16 -->
<g id="edge23" class="edge">
<title>Node13&#45;&gt;Node16</title>
<path fill="none" stroke="#63b8ff" d="M711.09,-54.51C698.76,-46.54 680.53,-34.75 666.03,-25.38"/>
<polygon fill="#63b8ff" stroke="#63b8ff" points="668.27,-22.67 657.98,-20.18 664.47,-28.55 668.27,-22.67"/>
</g>
<!-- Node17&#45;&gt;Node10 -->
<g id="edge27" class="edge">
<title>Node17&#45;&gt;Node10</title>
<path fill="none" stroke="#63b8ff" d="M891.09,-164.75C897.86,-157.43 907.72,-146.76 916.06,-137.74"/>
<polygon fill="#63b8ff" stroke="#63b8ff" points="918.49,-140.27 922.71,-130.55 913.35,-135.52 918.49,-140.27"/>
</g>
<!-- Node17&#45;&gt;Node13 -->
<g id="edge28" class="edge">
<title>Node17&#45;&gt;Node13</title>
<path fill="none" stroke="#63b8ff" d="M870.07,-164.66C843.22,-146.31 781.13,-103.87 747.55,-80.91"/>
<polygon fill="#63b8ff" stroke="#63b8ff" points="749.59,-78.07 739.36,-75.31 745.64,-83.85 749.59,-78.07"/>
</g>
<!-- Node18 -->
<g id="node18" class="node">
<title>Node18</title>
<g id="a_node18"><a xlink:title=" ">
<polygon fill="#e0e0e0" stroke="#999999" points="1206,-74 1160,-74 1160,-55 1206,-55 1206,-74"/>
<text text-anchor="middle" x="1183" y="-62" font-family="Helvetica,sans-Serif" font-size="10.00">math.h</text>
</a>
</g>
</g>
<!-- Node17&#45;&gt;Node18 -->
<g id="edge26" class="edge">
<title>Node17&#45;&gt;Node18</title>
<path fill="none" stroke="#63b8ff" d="M907.81,-164.57C961.46,-145.25 1088.37,-99.57 1149.26,-77.65"/>
<polygon fill="#63b8ff" stroke="#63b8ff" points="1150.18,-81.04 1158.4,-74.36 1147.81,-74.45 1150.18,-81.04"/>
</g>
<!-- Node19&#45;&gt;Node10 -->
<g id="edge30" class="edge">
<title>Node19&#45;&gt;Node10</title>
<path fill="none" stroke="#63b8ff" d="M1147.89,-219.74C1136.33,-206.07 1112.1,-179.69 1086,-165 1048.63,-143.97 1000.46,-132.13 968.02,-126.04"/>
<polygon fill="#63b8ff" stroke="#63b8ff" points="968.78,-122.62 958.33,-124.32 967.56,-129.52 968.78,-122.62"/>
</g>
<!-- Node19&#45;&gt;Node13 -->
<g id="edge33" class="edge">
<title>Node19&#45;&gt;Node13</title>
<path fill="none" stroke="#63b8ff" d="M1151.28,-219.85C1145.04,-206.33 1131.25,-180.15 1112,-165 1013.8,-87.71 862.17,-69.93 780.94,-66.17"/>
<polygon fill="#63b8ff" stroke="#63b8ff" points="781.12,-62.68 770.99,-65.78 780.84,-69.67 781.12,-62.68"/>
</g>
<!-- Node19&#45;&gt;Node17 -->
<g id="edge32" class="edge">
<title>Node19&#45;&gt;Node17</title>
<path fill="none" stroke="#63b8ff" d="M1108.86,-219.51C1060.35,-210.06 984.22,-195.22 933.97,-185.43"/>
<polygon fill="#63b8ff" stroke="#63b8ff" points="934.69,-182.01 924.21,-183.53 933.35,-188.88 934.69,-182.01"/>
</g>
<!-- Node20 -->
<g id="node20" class="node">
<title>Node20</title>
<g id="a_node20"><a xlink:href="_block_type_8h_source.html" target="_top" xlink:title=" ">
<polygon fill="white" stroke="#666666" points="1665,-74 1595,-74 1595,-55 1665,-55 1665,-74"/>
<text text-anchor="middle" x="1630" y="-62" font-family="Helvetica,sans-Serif" font-size="10.00">BlockType.h</text>
</a>
</g>
</g>
<!-- Node19&#45;&gt;Node20 -->
<g id="edge31" class="edge">
<title>Node19&#45;&gt;Node20</title>
<path fill="none" stroke="#63b8ff" d="M1213.41,-226.72C1273.49,-223.26 1368.93,-213.18 1446,-184 1512.02,-159 1579.12,-107.88 1610.96,-81.71"/>
<polygon fill="#63b8ff" stroke="#63b8ff" points="1613.07,-84.51 1618.51,-75.42 1608.59,-79.14 1613.07,-84.51"/>
</g>
<!-- Node21&#45;&gt;Node10 -->
<g id="edge35" class="edge">
<title>Node21&#45;&gt;Node10</title>
<path fill="none" stroke="#63b8ff" d="M707.59,-219.63C709,-205.81 713.78,-179.23 730,-165 754.36,-143.64 844.74,-130.28 895.96,-124.26"/>
<polygon fill="#63b8ff" stroke="#63b8ff" points="896.13,-127.76 905.67,-123.15 895.34,-120.81 896.13,-127.76"/>
</g>
<!-- Node21&#45;&gt;Node13 -->
<g id="edge40" class="edge">
<title>Node21&#45;&gt;Node13</title>
<path fill="none" stroke="#63b8ff" d="M642.82,-220.9C597.44,-214.06 542.25,-202.23 528,-184 522.8,-177.35 523.58,-172.19 528,-165 558.67,-115.15 622.88,-89.36 669.68,-76.67"/>
<polygon fill="#63b8ff" stroke="#63b8ff" points="670.3,-80.13 679.11,-74.24 668.56,-73.35 670.3,-80.13"/>
</g>
<!-- Node21&#45;&gt;Node22 -->
<g id="edge36" class="edge">
<title>Node21&#45;&gt;Node22</title>
<path fill="none" stroke="#63b8ff" d="M690.55,-219.51C675.68,-211.39 653.56,-199.3 636.25,-189.85"/>
<polygon fill="#63b8ff" stroke="#63b8ff" points="637.99,-186.81 627.54,-185.08 634.64,-192.95 637.99,-186.81"/>
</g>
<!-- Node22&#45;&gt;Node10 -->
<g id="edge37" class="edge">
<title>Node22&#45;&gt;Node10</title>
<path fill="none" stroke="#63b8ff" d="M664.62,-164.51C730.62,-153.65 839.79,-135.68 896.04,-126.42"/>
<polygon fill="#63b8ff" stroke="#63b8ff" points="896.41,-129.9 905.71,-124.83 895.28,-123 896.41,-129.9"/>
</g>
<!-- Node22&#45;&gt;Node13 -->
<g id="edge38" class="edge">
<title>Node22&#45;&gt;Node13</title>
<path fill="none" stroke="#63b8ff" d="M619.41,-164.66C638.62,-146.62 682.59,-105.32 707.31,-82.12"/>
<polygon fill="#63b8ff" stroke="#63b8ff" points="709.46,-84.89 714.36,-75.5 704.67,-79.79 709.46,-84.89"/>
</g>
<!-- Node22&#45;&gt;Node18 -->
<g id="edge39" class="edge">
<title>Node22&#45;&gt;Node18</title>
<path fill="none" stroke="#63b8ff" d="M647.13,-164.54C701.84,-151.51 807.43,-127.04 898,-110 987.91,-93.09 1094.63,-77.65 1148.38,-70.2"/>
<polygon fill="#63b8ff" stroke="#63b8ff" points="1148.71,-73.69 1158.14,-68.85 1147.76,-66.75 1148.71,-73.69"/>
</g>
<!-- Node23&#45;&gt;Node10 -->
<g id="edge43" class="edge">
<title>Node23&#45;&gt;Node10</title>
<path fill="none" stroke="#63b8ff" d="M481.11,-167.73C585.21,-156.82 808.11,-133.48 895.65,-124.31"/>
<polygon fill="#63b8ff" stroke="#63b8ff" points="895.99,-127.79 905.57,-123.27 895.26,-120.83 895.99,-127.79"/>
</g>
<!-- Node23&#45;&gt;Node13 -->
<g id="edge44" class="edge">
<title>Node23&#45;&gt;Node13</title>
<path fill="none" stroke="#63b8ff" d="M432.59,-164.91C443.79,-150.98 467.97,-123.65 495,-110 550.29,-82.09 621.19,-71.64 669.57,-67.75"/>
<polygon fill="#63b8ff" stroke="#63b8ff" points="669.52,-71.26 679.24,-67.05 669.01,-64.28 669.52,-71.26"/>
</g>
<!-- Node24&#45;&gt;Node10 -->
<g id="edge47" class="edge">
<title>Node24&#45;&gt;Node10</title>
<path fill="none" stroke="#63b8ff" d="M981.82,-164.51C973.24,-156.93 960.73,-145.88 950.4,-136.75"/>
<polygon fill="#63b8ff" stroke="#63b8ff" points="952.97,-134.36 943.16,-130.36 948.34,-139.6 952.97,-134.36"/>
</g>
<!-- Node24&#45;&gt;Node13 -->
<g id="edge53" class="edge">
<title>Node24&#45;&gt;Node13</title>
<path fill="none" stroke="#63b8ff" d="M970.15,-164.66C923.31,-145.72 813.01,-101.1 757.75,-78.75"/>
<polygon fill="#63b8ff" stroke="#63b8ff" points="759.14,-75.53 748.55,-75.03 756.51,-82.02 759.14,-75.53"/>
</g>
<!-- Node24&#45;&gt;Node25 -->
<g id="edge48" class="edge">
<title>Node24&#45;&gt;Node25</title>
<path fill="none" stroke="#63b8ff" d="M1043.96,-164.87C1105.37,-154.66 1206.58,-137.85 1265.17,-128.11"/>
<polygon fill="#63b8ff" stroke="#63b8ff" points="1265.52,-131.6 1274.81,-126.51 1264.37,-124.7 1265.52,-131.6"/>
</g>
<!-- Node25&#45;&gt;Node4 -->
<g id="edge51" class="edge">
<title>Node25&#45;&gt;Node4</title>
<path fill="none" stroke="#63b8ff" d="M1332.93,-109.62C1353.93,-100.97 1386.43,-87.23 1414,-74 1447.14,-58.1 1484.43,-38.02 1508.52,-24.74"/>
<polygon fill="#63b8ff" stroke="#63b8ff" points="1509.91,-27.97 1516.96,-20.06 1506.52,-21.84 1509.91,-27.97"/>
</g>
<!-- Node25&#45;&gt;Node12 -->
<g id="edge52" class="edge">
<title>Node25&#45;&gt;Node12</title>
<path fill="none" stroke="#63b8ff" d="M1343.06,-109.51C1374.52,-100.69 1422.68,-87.18 1457.35,-77.46"/>
<polygon fill="#63b8ff" stroke="#63b8ff" points="1457.96,-80.93 1466.64,-74.85 1456.07,-74.19 1457.96,-80.93"/>
</g>
<!-- Node25&#45;&gt;Node18 -->
<g id="edge49" class="edge">
<title>Node25&#45;&gt;Node18</title>
<path fill="none" stroke="#63b8ff" d="M1289.29,-109.51C1268.84,-101.04 1237.98,-88.27 1214.77,-78.66"/>
<polygon fill="#63b8ff" stroke="#63b8ff" points="1216.37,-75.53 1205.79,-74.94 1213.69,-82 1216.37,-75.53"/>
</g>
<!-- Node26 -->
<g id="node26" class="node">
<title>Node26</title>
<g id="a_node26"><a xlink:title=" ">
<polygon fill="#e0e0e0" stroke="#999999" points="1275.5,-74 1224.5,-74 1224.5,-55 1275.5,-55 1275.5,-74"/>
<text text-anchor="middle" x="1250" y="-62" font-family="Helvetica,sans-Serif" font-size="10.00">numeric</text>
</a>
</g>
</g>
<!-- Node25&#45;&gt;Node26 -->
<g id="edge50" class="edge">
<title>Node25&#45;&gt;Node26</title>
<path fill="none" stroke="#63b8ff" d="M1300.65,-109.51C1291.92,-101.93 1279.21,-90.88 1268.7,-81.75"/>
<polygon fill="#63b8ff" stroke="#63b8ff" points="1271.18,-79.27 1261.34,-75.35 1266.59,-84.55 1271.18,-79.27"/>
</g>
<!-- Node27&#45;&gt;Node10 -->
<g id="edge55" class="edge">
<title>Node27&#45;&gt;Node10</title>
<path fill="none" stroke="#63b8ff" d="M127.58,-166.36C130.41,-165.84 133.25,-165.37 136,-165 427.12,-125.39 782.73,-120.87 895.73,-120.48"/>
<polygon fill="#63b8ff" stroke="#63b8ff" points="895.6,-123.99 905.59,-120.46 895.58,-116.99 895.6,-123.99"/>
</g>
<!-- Node27&#45;&gt;Node13 -->
<g id="edge56" class="edge">
<title>Node27&#45;&gt;Node13</title>
<path fill="none" stroke="#63b8ff" d="M125.14,-164.5C169.21,-150.74 257.41,-124.53 334,-110 452.43,-87.52 593.35,-74.89 669.5,-69.21"/>
<polygon fill="#63b8ff" stroke="#63b8ff" points="669.47,-72.72 679.19,-68.5 668.96,-65.74 669.47,-72.72"/>
</g>
<!-- Node28&#45;&gt;Node3 -->
<g id="edge58" class="edge">
<title>Node28&#45;&gt;Node3</title>
<path fill="none" stroke="#63b8ff" d="M1687.92,-109.66C1706.04,-91.7 1747.44,-50.69 1770.92,-27.42"/>
<polygon fill="#63b8ff" stroke="#63b8ff" points="1773.24,-30.05 1777.88,-20.53 1768.31,-25.08 1773.24,-30.05"/>
</g>
<!-- Node28&#45;&gt;Node4 -->
<g id="edge59" class="edge">
<title>Node28&#45;&gt;Node4</title>
<path fill="none" stroke="#63b8ff" d="M1681.12,-109.6C1683.76,-96.21 1686.51,-70.77 1674,-55 1648.66,-23.06 1600.37,-13.66 1567.68,-11.1"/>
<polygon fill="#63b8ff" stroke="#63b8ff" points="1568.11,-7.62 1557.92,-10.53 1567.7,-14.61 1568.11,-7.62"/>
</g>
<!-- Node28&#45;&gt;Node12 -->
<g id="edge61" class="edge">
<title>Node28&#45;&gt;Node12</title>
<path fill="none" stroke="#63b8ff" d="M1655.23,-111.46C1626.14,-102.85 1576.4,-88.12 1541.07,-77.66"/>
<polygon fill="#63b8ff" stroke="#63b8ff" points="1542.18,-74.34 1531.6,-74.86 1540.2,-81.05 1542.18,-74.34"/>
</g>
<!-- Node28&#45;&gt;Node20 -->
<g id="edge60" class="edge">
<title>Node28&#45;&gt;Node20</title>
<path fill="none" stroke="#63b8ff" d="M1670.91,-109.75C1664.14,-102.43 1654.28,-91.76 1645.94,-82.74"/>
<polygon fill="#63b8ff" stroke="#63b8ff" points="1648.65,-80.52 1639.29,-75.55 1643.51,-85.27 1648.65,-80.52"/>
</g>
<!-- Node29&#45;&gt;Node10 -->
<g id="edge63" class="edge">
<title>Node29&#45;&gt;Node10</title>
<path fill="none" stroke="#63b8ff" d="M1185.26,-164.51C1123.51,-153.78 1021.86,-136.11 968.04,-126.76"/>
<polygon fill="#63b8ff" stroke="#63b8ff" points="968.94,-123.37 958.49,-125.1 967.74,-130.26 968.94,-123.37"/>
</g>
<!-- Node29&#45;&gt;Node13 -->
<g id="edge65" class="edge">
<title>Node29&#45;&gt;Node13</title>
<path fill="none" stroke="#63b8ff" d="M1228.08,-164.66C1213.04,-150.36 1181.01,-122.51 1148,-110 1082.16,-85.05 879.69,-72.58 780.68,-67.84"/>
<polygon fill="#63b8ff" stroke="#63b8ff" points="781.08,-64.35 770.93,-67.38 780.75,-71.35 781.08,-64.35"/>
</g>
<!-- Node29&#45;&gt;Node25 -->
<g id="edge64" class="edge">
<title>Node29&#45;&gt;Node25</title>
<path fill="none" stroke="#63b8ff" d="M1249.55,-164.51C1260.46,-156.7 1276.5,-145.21 1289.46,-135.93"/>
<polygon fill="#63b8ff" stroke="#63b8ff" points="1291.31,-138.91 1297.4,-130.24 1287.23,-133.22 1291.31,-138.91"/>
</g>
<!-- Node30&#45;&gt;Node10 -->
<g id="edge68" class="edge">
<title>Node30&#45;&gt;Node10</title>
<path fill="none" stroke="#63b8ff" d="M1315.05,-165.98C1312.33,-165.65 1309.64,-165.32 1307,-165 1182.36,-149.93 1034.35,-132.5 967.68,-124.68"/>
<polygon fill="#63b8ff" stroke="#63b8ff" points="968.42,-121.24 958.08,-123.55 967.6,-128.2 968.42,-121.24"/>
</g>
<!-- Node30&#45;&gt;Node13 -->
<g id="edge70" class="edge">
<title>Node30&#45;&gt;Node13</title>
<path fill="none" stroke="#63b8ff" d="M1353.67,-164.56C1317.58,-150.51 1243.91,-123.48 1179,-110 1037.4,-80.59 866.81,-70.5 780.64,-67.12"/>
<polygon fill="#63b8ff" stroke="#63b8ff" points="780.93,-63.63 770.81,-66.76 780.67,-70.63 780.93,-63.63"/>
</g>
<!-- Node30&#45;&gt;Node25 -->
<g id="edge69" class="edge">
<title>Node30&#45;&gt;Node25</title>
<path fill="none" stroke="#63b8ff" d="M1364.97,-164.51C1355.58,-156.85 1341.85,-145.66 1330.59,-136.47"/>
<polygon fill="#63b8ff" stroke="#63b8ff" points="1333,-133.92 1323.04,-130.31 1328.57,-139.35 1333,-133.92"/>
</g>
<!-- Node31&#45;&gt;Node10 -->
<g id="edge72" class="edge">
<title>Node31&#45;&gt;Node10</title>
<path fill="none" stroke="#63b8ff" d="M807.45,-164.51C831.98,-155.84 869.33,-142.64 896.73,-132.96"/>
<polygon fill="#63b8ff" stroke="#63b8ff" points="897.74,-136.32 906,-129.69 895.41,-129.72 897.74,-136.32"/>
</g>
<!-- Node31&#45;&gt;Node13 -->
<g id="edge74" class="edge">
<title>Node31&#45;&gt;Node13</title>
<path fill="none" stroke="#63b8ff" d="M777.34,-164.66C768.15,-147.26 747.53,-108.19 735.09,-84.62"/>
<polygon fill="#63b8ff" stroke="#63b8ff" points="738.2,-83.01 730.44,-75.8 732.01,-86.28 738.2,-83.01"/>
</g>
<!-- Node31&#45;&gt;Node25 -->
<g id="edge73" class="edge">
<title>Node31&#45;&gt;Node25</title>
<path fill="none" stroke="#63b8ff" d="M825.38,-166.18C828.29,-165.76 831.19,-165.36 834,-165 991.58,-144.79 1179.57,-129.97 1264.86,-123.74"/>
<polygon fill="#63b8ff" stroke="#63b8ff" points="1264.97,-127.24 1274.69,-123.03 1264.46,-120.26 1264.97,-127.24"/>
</g>
<!-- Node32&#45;&gt;Node10 -->
<g id="edge76" class="edge">
<title>Node32&#45;&gt;Node10</title>
<path fill="none" stroke="#63b8ff" d="M246.71,-166.04C249.85,-165.67 252.97,-165.31 256,-165 499.67,-139.76 794.32,-126.13 895.69,-121.93"/>
<polygon fill="#63b8ff" stroke="#63b8ff" points="895.72,-125.43 905.57,-121.53 895.44,-118.44 895.72,-125.43"/>
</g>
<!-- Node32&#45;&gt;Node13 -->
<g id="edge77" class="edge">
<title>Node32&#45;&gt;Node13</title>
<path fill="none" stroke="#63b8ff" d="M221.45,-164.51C260.92,-150.87 339.5,-124.98 408,-110 498.47,-90.22 605.47,-77.34 669.15,-70.75"/>
<polygon fill="#63b8ff" stroke="#63b8ff" points="669.42,-74.24 679.02,-69.75 668.71,-67.28 669.42,-74.24"/>
</g>
<!-- Node33&#45;&gt;Node10 -->
<g id="edge79" class="edge">
<title>Node33&#45;&gt;Node10</title>
<path fill="none" stroke="#63b8ff" d="M353.5,-166.1C356.37,-165.7 359.22,-165.33 362,-165 562.95,-141.08 805.35,-127.04 895.73,-122.31"/>
<polygon fill="#63b8ff" stroke="#63b8ff" points="895.89,-125.8 905.7,-121.79 895.53,-118.81 895.89,-125.8"/>
</g>
<!-- Node33&#45;&gt;Node13 -->
<g id="edge80" class="edge">
<title>Node33&#45;&gt;Node13</title>
<path fill="none" stroke="#63b8ff" d="M327.14,-164.53C355.62,-150.8 412.84,-124.65 464,-110 533.58,-90.08 616.3,-77.83 669.67,-71.35"/>
<polygon fill="#63b8ff" stroke="#63b8ff" points="669.91,-74.85 679.43,-70.19 669.09,-67.9 669.91,-74.85"/>
</g>
<!-- Node34&#45;&gt;Node11 -->
<g id="edge82" class="edge">
<title>Node34&#45;&gt;Node11</title>
<path fill="none" stroke="#63b8ff" d="M1680.06,-274.68C1631.21,-241.41 1457.66,-123.18 1395.42,-80.77"/>
<polygon fill="#63b8ff" stroke="#63b8ff" points="1397.59,-78.02 1387.35,-75.28 1393.65,-83.8 1397.59,-78.02"/>
</g>
</g>
</svg>
