<?xml version="1.0" encoding="UTF-8" standalone="no"?>
<!DOCTYPE svg PUBLIC "-//W3C//DTD SVG 1.1//EN"
 "http://www.w3.org/Graphics/SVG/1.1/DTD/svg11.dtd">
<!-- Generated by graphviz version 12.0.0 (20240704.0754)
 -->
<!-- Title: solve/debug.h Pages: 1 -->
<svg width="767pt" height="260pt"
 viewBox="0.00 0.00 767.25 259.50" xmlns="http://www.w3.org/2000/svg" xmlns:xlink="http://www.w3.org/1999/xlink">
<g id="graph0" class="graph" transform="scale(1 1) rotate(0) translate(4 255.5)">
<title>solve/debug.h</title>
<!-- Node1 -->
<g id="Node000001" class="node">
<title>Node1</title>
<g id="a_Node000001"><a xlink:title="DEBUG_MSG source file.">
<polygon fill="#999999" stroke="#666666" points="556.75,-251.5 480.75,-251.5 480.75,-232.25 556.75,-232.25 556.75,-251.5"/>
<text text-anchor="middle" x="518.75" y="-238" font-family="Helvetica,sans-Serif" font-size="10.00">solve/debug.h</text>
</a>
</g>
</g>
<!-- Node2 -->
<g id="Node000002" class="node">
<title>Node2</title>
<g id="a_Node000002"><a xlink:href="interface_8h.html" target="_top" xlink:title="svZeroDSolver callable interface.">
<polygon fill="white" stroke="#666666" points="101.5,-19.25 0,-19.25 0,0 101.5,0 101.5,-19.25"/>
<text text-anchor="middle" x="50.75" y="-5.75" font-family="Helvetica,sans-Serif" font-size="10.00">interface/interface.h</text>
</a>
</g>
</g>
<!-- Node1&#45;&gt;Node2 -->
<g id="edge1_Node000001_Node000002" class="edge">
<title>Node1&#45;&gt;Node2</title>
<g id="a_edge1_Node000001_Node000002"><a xlink:title=" ">
<path fill="none" stroke="#63b8ff" d="M469,-236.04C416.76,-230.08 332.64,-217.97 262.75,-196.25 150.22,-161.29 85.38,-184.93 21.75,-85.75 7.71,-63.86 29.38,-34.12 42.28,-19.49"/>
<polygon fill="#63b8ff" stroke="#63b8ff" points="468.46,-239.5 478.79,-237.12 469.23,-232.54 468.46,-239.5"/>
</a>
</g>
</g>
<!-- Node3 -->
<g id="Node000003" class="node">
<title>Node3</title>
<g id="a_Node000003"><a xlink:href="_chamber_elastance_inductor_8h.html" target="_top" xlink:title="model::ChamberElastanceInductor source file">
<polygon fill="white" stroke="#666666" points="450.62,-196.25 280.88,-196.25 280.88,-177 450.62,-177 450.62,-196.25"/>
<text text-anchor="middle" x="365.75" y="-182.75" font-family="Helvetica,sans-Serif" font-size="10.00">model/ChamberElastanceInductor.h</text>
</a>
</g>
</g>
<!-- Node1&#45;&gt;Node3 -->
<g id="edge2_Node000001_Node000003" class="edge">
<title>Node1&#45;&gt;Node3</title>
<g id="a_edge2_Node000001_Node000003"><a xlink:title=" ">
<path fill="none" stroke="#63b8ff" d="M482.28,-228.18C454.42,-218.49 416.71,-205.36 391.83,-196.7"/>
<polygon fill="#63b8ff" stroke="#63b8ff" points="480.77,-231.36 491.37,-231.34 483.07,-224.75 480.77,-231.36"/>
</a>
</g>
</g>
<!-- Node4 -->
<g id="Node000004" class="node">
<title>Node4</title>
<g id="a_Node000004"><a xlink:href="_model_8h.html" target="_top" xlink:title="model::Model source file">
<polygon fill="white" stroke="#666666" points="405.25,-141 326.25,-141 326.25,-121.75 405.25,-121.75 405.25,-141"/>
<text text-anchor="middle" x="365.75" y="-127.5" font-family="Helvetica,sans-Serif" font-size="10.00">model/Model.h</text>
</a>
</g>
</g>
<!-- Node1&#45;&gt;Node4 -->
<g id="edge16_Node000001_Node000004" class="edge">
<title>Node1&#45;&gt;Node4</title>
<g id="a_edge16_Node000001_Node000004"><a xlink:title=" ">
<path fill="none" stroke="#63b8ff" d="M469.12,-239.17C404.36,-235.78 296.39,-225.75 271.75,-196.25 250.94,-171.34 295.69,-152.07 330.33,-141.48"/>
<polygon fill="#63b8ff" stroke="#63b8ff" points="468.62,-242.65 478.77,-239.64 468.95,-235.66 468.62,-242.65"/>
</a>
</g>
</g>
<!-- Node6 -->
<g id="Node000006" class="node">
<title>Node6</title>
<g id="a_Node000006"><a xlink:href="_solver_8h.html" target="_top" xlink:title="Solver source file.">
<polygon fill="white" stroke="#666666" points="532.5,-19.25 455,-19.25 455,0 532.5,0 532.5,-19.25"/>
<text text-anchor="middle" x="493.75" y="-5.75" font-family="Helvetica,sans-Serif" font-size="10.00">solve/Solver.h</text>
</a>
</g>
</g>
<!-- Node1&#45;&gt;Node6 -->
<g id="edge21_Node000001_Node000006" class="edge">
<title>Node1&#45;&gt;Node6</title>
<g id="a_edge21_Node000001_Node000006"><a xlink:title=" ">
<path fill="none" stroke="#63b8ff" d="M559.19,-228.15C640.15,-200.67 809.06,-132.01 744.75,-55.25 718.17,-23.53 596.49,-14.34 532.83,-11.69"/>
<polygon fill="#63b8ff" stroke="#63b8ff" points="558.2,-224.79 549.82,-231.27 560.41,-231.43 558.2,-224.79"/>
</a>
</g>
</g>
<!-- Node8 -->
<g id="Node000008" class="node">
<title>Node8</title>
<g id="a_Node000008"><a xlink:href="calibrate_8h.html" target="_top" xlink:title="opt::calibrate source file">
<polygon fill="white" stroke="#666666" points="735.38,-80.12 636.12,-80.12 636.12,-60.88 735.38,-60.88 735.38,-80.12"/>
<text text-anchor="middle" x="685.75" y="-66.62" font-family="Helvetica,sans-Serif" font-size="10.00">optimize/calibrate.h</text>
</a>
</g>
</g>
<!-- Node1&#45;&gt;Node8 -->
<g id="edge19_Node000001_Node000008" class="edge">
<title>Node1&#45;&gt;Node8</title>
<g id="a_edge19_Node000001_Node000008"><a xlink:title=" ">
<path fill="none" stroke="#63b8ff" d="M548.68,-226.63C563.21,-218.86 580.38,-208.36 593.75,-196.25 634.24,-159.57 668.36,-102.62 680.76,-80.61"/>
<polygon fill="#63b8ff" stroke="#63b8ff" points="547.3,-223.41 540,-231.1 550.5,-229.63 547.3,-223.41"/>
</a>
</g>
</g>
<!-- Node9 -->
<g id="Node000009" class="node">
<title>Node9</title>
<g id="a_Node000009"><a xlink:href="_simulation_parameters_8h.html" target="_top" xlink:title="Source file to read simulation configuration.">
<polygon fill="white" stroke="#666666" points="617.62,-80.12 471.88,-80.12 471.88,-60.88 617.62,-60.88 617.62,-80.12"/>
<text text-anchor="middle" x="544.75" y="-66.62" font-family="Helvetica,sans-Serif" font-size="10.00">solve/SimulationParameters.h</text>
</a>
</g>
</g>
<!-- Node1&#45;&gt;Node9 -->
<g id="edge20_Node000001_Node000009" class="edge">
<title>Node1&#45;&gt;Node9</title>
<g id="a_edge20_Node000001_Node000009"><a xlink:title=" ">
<path fill="none" stroke="#63b8ff" d="M548.59,-226.04C559.88,-218.74 571.51,-208.79 577.75,-196.25 597.91,-155.73 565.71,-101.48 551.23,-80.4"/>
<polygon fill="#63b8ff" stroke="#63b8ff" points="547.02,-222.9 540.19,-231 550.58,-228.93 547.02,-222.9"/>
</a>
</g>
</g>
<!-- Node11 -->
<g id="Node000011" class="node">
<title>Node11</title>
<g id="a_Node000011"><a xlink:href="_valve_tanh_8h.html" target="_top" xlink:title="model::ValveTanh source file">
<polygon fill="white" stroke="#666666" points="568.38,-196.25 469.12,-196.25 469.12,-177 568.38,-177 568.38,-196.25"/>
<text text-anchor="middle" x="518.75" y="-182.75" font-family="Helvetica,sans-Serif" font-size="10.00">model/ValveTanh.h</text>
</a>
</g>
</g>
<!-- Node1&#45;&gt;Node11 -->
<g id="edge17_Node000001_Node000011" class="edge">
<title>Node1&#45;&gt;Node11</title>
<g id="a_edge17_Node000001_Node000011"><a xlink:title=" ">
<path fill="none" stroke="#63b8ff" d="M518.75,-220.63C518.75,-212.34 518.75,-203.17 518.75,-196.61"/>
<polygon fill="#63b8ff" stroke="#63b8ff" points="515.25,-220.57 518.75,-230.57 522.25,-220.57 515.25,-220.57"/>
</a>
</g>
</g>
<!-- Node3&#45;&gt;Node4 -->
<g id="edge3_Node000003_Node000004" class="edge">
<title>Node3&#45;&gt;Node4</title>
<g id="a_edge3_Node000003_Node000004"><a xlink:title=" ">
<path fill="none" stroke="#63b8ff" d="M359.19,-165.67C358.7,-157.3 359.15,-148 360.54,-141.36"/>
<polygon fill="#63b8ff" stroke="#63b8ff" points="355.69,-165.84 360.4,-175.33 362.63,-164.97 355.69,-165.84"/>
</a>
</g>
</g>
<!-- Node4&#45;&gt;Node2 -->
<g id="edge7_Node000004_Node000002" class="edge">
<title>Node4&#45;&gt;Node2</title>
<g id="a_edge7_Node000004_Node000002"><a xlink:title=" ">
<path fill="none" stroke="#63b8ff" d="M314.54,-127.2C225.56,-121.14 50.07,-106.68 31.75,-85.75 15.09,-66.72 33.15,-35.12 43.91,-19.68"/>
<polygon fill="#63b8ff" stroke="#63b8ff" points="314.26,-130.68 324.47,-127.86 314.73,-123.7 314.26,-130.68"/>
</a>
</g>
</g>
<!-- Node4&#45;&gt;Node3 -->
<g id="edge8_Node000004_Node000003" class="edge">
<title>Node4&#45;&gt;Node3</title>
<g id="a_edge8_Node000004_Node000003"><a xlink:title=" ">
<path fill="none" stroke="#63b8ff" d="M372.32,-152.57C372.79,-160.96 372.33,-170.24 370.92,-176.83"/>
<polygon fill="#63b8ff" stroke="#63b8ff" points="375.82,-152.37 371.14,-142.86 368.87,-153.21 375.82,-152.37"/>
</a>
</g>
</g>
<!-- Node5 -->
<g id="Node000005" class="node">
<title>Node5</title>
<g id="a_Node000005"><a xlink:href="_integrator_8h.html" target="_top" xlink:title="Integrator source file.">
<polygon fill="white" stroke="#666666" points="415.38,-80.12 316.12,-80.12 316.12,-60.88 415.38,-60.88 415.38,-80.12"/>
<text text-anchor="middle" x="365.75" y="-66.62" font-family="Helvetica,sans-Serif" font-size="10.00">algebra/Integrator.h</text>
</a>
</g>
</g>
<!-- Node4&#45;&gt;Node5 -->
<g id="edge4_Node000004_Node000005" class="edge">
<title>Node4&#45;&gt;Node5</title>
<g id="a_edge4_Node000004_Node000005"><a xlink:title=" ">
<path fill="none" stroke="#63b8ff" d="M365.75,-109.95C365.75,-99.92 365.75,-88.33 365.75,-80.53"/>
<polygon fill="#63b8ff" stroke="#63b8ff" points="362.25,-109.92 365.75,-119.92 369.25,-109.92 362.25,-109.92"/>
</a>
</g>
</g>
<!-- Node4&#45;&gt;Node6 -->
<g id="edge13_Node000004_Node000006" class="edge">
<title>Node4&#45;&gt;Node6</title>
<g id="a_edge13_Node000004_Node000006"><a xlink:title=" ">
<path fill="none" stroke="#63b8ff" d="M388.17,-114.88C399.52,-106.68 413.28,-96.17 424.75,-85.75 449.12,-63.6 474.5,-33.98 486.56,-19.43"/>
<polygon fill="#63b8ff" stroke="#63b8ff" points="386.3,-111.92 380.17,-120.56 390.35,-117.63 386.3,-111.92"/>
</a>
</g>
</g>
<!-- Node7 -->
<g id="Node000007" class="node">
<title>Node7</title>
<g id="a_Node000007"><a xlink:href="_levenberg_marquardt_optimizer_8h.html" target="_top" xlink:title="opt::LevenbergMarquardtOptimizer source file">
<polygon fill="white" stroke="#666666" points="297.88,-85.75 153.62,-85.75 153.62,-55.25 297.88,-55.25 297.88,-85.75"/>
<text text-anchor="start" x="161.62" y="-72.25" font-family="Helvetica,sans-Serif" font-size="10.00">optimize/LevenbergMarquardt</text>
<text text-anchor="middle" x="225.75" y="-61" font-family="Helvetica,sans-Serif" font-size="10.00">Optimizer.h</text>
</a>
</g>
</g>
<!-- Node4&#45;&gt;Node7 -->
<g id="edge9_Node000004_Node000007" class="edge">
<title>Node4&#45;&gt;Node7</title>
<g id="a_edge9_Node000004_Node000007"><a xlink:title=" ">
<path fill="none" stroke="#63b8ff" d="M333.8,-116.94C311.99,-107.77 283.11,-95.62 260.69,-86.19"/>
<polygon fill="#63b8ff" stroke="#63b8ff" points="332.21,-120.07 342.79,-120.72 334.93,-113.62 332.21,-120.07"/>
</a>
</g>
</g>
<!-- Node4&#45;&gt;Node8 -->
<g id="edge10_Node000004_Node000008" class="edge">
<title>Node4&#45;&gt;Node8</title>
<g id="a_edge10_Node000004_Node000008"><a xlink:title=" ">
<path fill="none" stroke="#63b8ff" d="M416.78,-122.7C469.54,-114.51 554.18,-100.7 626.75,-85.75 634.28,-84.2 642.32,-82.37 649.96,-80.56"/>
<polygon fill="#63b8ff" stroke="#63b8ff" points="416.55,-119.19 407.2,-124.17 417.62,-126.11 416.55,-119.19"/>
</a>
</g>
</g>
<!-- Node4&#45;&gt;Node9 -->
<g id="edge11_Node000004_Node000009" class="edge">
<title>Node4&#45;&gt;Node9</title>
<g id="a_edge11_Node000004_Node000009"><a xlink:title=" ">
<path fill="none" stroke="#63b8ff" d="M404.24,-117.72C438.21,-106.54 486.91,-90.52 517.14,-80.58"/>
<polygon fill="#63b8ff" stroke="#63b8ff" points="403.17,-114.38 394.76,-120.83 405.36,-121.03 403.17,-114.38"/>
</a>
</g>
</g>
<!-- Node10 -->
<g id="Node000010" class="node">
<title>Node10</title>
<g id="a_Node000010"><a xlink:href="csv__writer_8h.html" target="_top" xlink:title="csv_writer source file">
<polygon fill="white" stroke="#666666" points="135.12,-80.12 40.38,-80.12 40.38,-60.88 135.12,-60.88 135.12,-80.12"/>
<text text-anchor="middle" x="87.75" y="-66.62" font-family="Helvetica,sans-Serif" font-size="10.00">solve/csv_writer.h</text>
</a>
</g>
</g>
<!-- Node4&#45;&gt;Node10 -->
<g id="edge14_Node000004_Node000010" class="edge">
<title>Node4&#45;&gt;Node10</title>
<g id="a_edge14_Node000004_Node000010"><a xlink:title=" ">
<path fill="none" stroke="#63b8ff" d="M314.92,-120.8C270.03,-112.17 202.88,-98.88 144.75,-85.75 137.69,-84.15 130.16,-82.35 122.96,-80.57"/>
<polygon fill="#63b8ff" stroke="#63b8ff" points="314.15,-124.21 324.62,-122.65 315.46,-117.34 314.15,-124.21"/>
</a>
</g>
</g>
<!-- Node5&#45;&gt;Node2 -->
<g id="edge5_Node000005_Node000002" class="edge">
<title>Node5&#45;&gt;Node2</title>
<g id="a_edge5_Node000005_Node000002"><a xlink:title=" ">
<path fill="none" stroke="#63b8ff" d="M318.51,-57.81C314.54,-56.91 310.58,-56.05 306.75,-55.25 236.07,-40.57 153.74,-26.81 101.93,-18.55"/>
<polygon fill="#63b8ff" stroke="#63b8ff" points="317.63,-61.2 328.16,-60.05 319.21,-54.38 317.63,-61.2"/>
</a>
</g>
</g>
<!-- Node5&#45;&gt;Node6 -->
<g id="edge6_Node000005_Node000006" class="edge">
<title>Node5&#45;&gt;Node6</title>
<g id="a_edge6_Node000005_Node000006"><a xlink:title=" ">
<path fill="none" stroke="#63b8ff" d="M395.88,-55.64C420.08,-44.51 453.37,-29.2 474.22,-19.61"/>
<polygon fill="#63b8ff" stroke="#63b8ff" points="394.47,-52.44 386.84,-59.8 397.39,-58.8 394.47,-52.44"/>
</a>
</g>
</g>
<!-- Node9&#45;&gt;Node6 -->
<g id="edge12_Node000009_Node000006" class="edge">
<title>Node9&#45;&gt;Node6</title>
<g id="a_edge12_Node000009_Node000006"><a xlink:title=" ">
<path fill="none" stroke="#63b8ff" d="M529.62,-52.03C520.4,-41.39 509.01,-28.24 501.57,-19.65"/>
<polygon fill="#63b8ff" stroke="#63b8ff" points="526.82,-54.15 536.01,-59.41 532.11,-49.56 526.82,-54.15"/>
</a>
</g>
</g>
<!-- Node10&#45;&gt;Node2 -->
<g id="edge15_Node000010_Node000002" class="edge">
<title>Node10&#45;&gt;Node2</title>
<g id="a_edge15_Node000010_Node000002"><a xlink:title=" ">
<path fill="none" stroke="#63b8ff" d="M76.16,-51.06C69.59,-40.6 61.66,-27.98 56.42,-19.65"/>
<polygon fill="#63b8ff" stroke="#63b8ff" points="73.04,-52.67 81.33,-59.28 78.97,-48.95 73.04,-52.67"/>
</a>
</g>
</g>
<!-- Node11&#45;&gt;Node4 -->
<g id="edge18_Node000011_Node000004" class="edge">
<title>Node11&#45;&gt;Node4</title>
<g id="a_edge18_Node000011_Node000004"><a xlink:title=" ">
<path fill="none" stroke="#63b8ff" d="M482.28,-172.93C454.42,-163.24 416.71,-150.11 391.83,-141.45"/>
<polygon fill="#63b8ff" stroke="#63b8ff" points="480.77,-176.11 491.37,-176.09 483.07,-169.5 480.77,-176.11"/>
</a>
</g>
</g>
</g>
</svg>
