<?xml version="1.0" encoding="UTF-8" standalone="no"?>
<!DOCTYPE svg PUBLIC "-//W3C//DTD SVG 1.1//EN"
 "http://www.w3.org/Graphics/SVG/1.1/DTD/svg11.dtd">
<!-- Generated by graphviz version 12.2.1 (20241206.2353)
 -->
<!-- Title: solve/debug.h Pages: 1 -->
<svg width="943pt" height="260pt"
 viewBox="0.00 0.00 942.98 259.50" xmlns="http://www.w3.org/2000/svg" xmlns:xlink="http://www.w3.org/1999/xlink">
<g id="graph0" class="graph" transform="scale(1 1) rotate(0) translate(4 255.5)">
<title>solve/debug.h</title>
<!-- Node1 -->
<g id="Node000001" class="node">
<title>Node1</title>
<g id="a_Node000001"><a xlink:title="DEBUG_MSG source file.">
<polygon fill="#999999" stroke="#666666" points="554.75,-251.5 478.75,-251.5 478.75,-232.25 554.75,-232.25 554.75,-251.5"/>
<text text-anchor="middle" x="516.75" y="-238" font-family="Helvetica,sans-Serif" font-size="10.00">solve/debug.h</text>
</a>
</g>
</g>
<!-- Node2 -->
<g id="Node000002" class="node">
<title>Node2</title>
<g id="a_Node000002"><a xlink:href="interface_8h.html" target="_top" xlink:title="svZeroDSolver callable interface.">
<polygon fill="white" stroke="#666666" points="101.5,-19.25 0,-19.25 0,0 101.5,0 101.5,-19.25"/>
<text text-anchor="middle" x="50.75" y="-5.75" font-family="Helvetica,sans-Serif" font-size="10.00">interface/interface.h</text>
</a>
</g>
</g>
<!-- Node1&#45;&gt;Node2 -->
<g id="edge1_Node000001_Node000002" class="edge">
<title>Node1&#45;&gt;Node2</title>
<g id="a_edge1_Node000001_Node000002"><a xlink:title=" ">
<path fill="none" stroke="#63b8ff" d="M466.92,-239.35C375.6,-235.88 185.4,-225.31 126.75,-196.25 65.77,-166.03 46.14,-148.89 20.75,-85.75 15.69,-73.17 16.8,-68.22 20.75,-55.25 24.94,-41.5 34.95,-28.14 42.25,-19.68"/>
<polygon fill="#63b8ff" stroke="#63b8ff" points="466.71,-242.85 476.83,-239.71 466.96,-235.85 466.71,-242.85"/>
</a>
</g>
</g>
<!-- Node3 -->
<g id="Node000003" class="node">
<title>Node3</title>
<g id="a_Node000003"><a xlink:href="_chamber_elastance_inductor_8h.html" target="_top" xlink:title="model::ChamberElastanceInductor source file">
<polygon fill="white" stroke="#666666" points="601.62,-196.25 431.88,-196.25 431.88,-177 601.62,-177 601.62,-196.25"/>
<text text-anchor="middle" x="516.75" y="-182.75" font-family="Helvetica,sans-Serif" font-size="10.00">model/ChamberElastanceInductor.h</text>
</a>
</g>
</g>
<!-- Node1&#45;&gt;Node3 -->
<g id="edge2_Node000001_Node000003" class="edge">
<title>Node1&#45;&gt;Node3</title>
<g id="a_edge2_Node000001_Node000003"><a xlink:title=" ">
<path fill="none" stroke="#63b8ff" d="M516.75,-220.63C516.75,-212.34 516.75,-203.17 516.75,-196.61"/>
<polygon fill="#63b8ff" stroke="#63b8ff" points="513.25,-220.57 516.75,-230.57 520.25,-220.57 513.25,-220.57"/>
</a>
</g>
</g>
<!-- Node4 -->
<g id="Node000004" class="node">
<title>Node4</title>
<g id="a_Node000004"><a xlink:href="_model_8h.html" target="_top" xlink:title="model::Model source file">
<polygon fill="white" stroke="#666666" points="428.25,-141 349.25,-141 349.25,-121.75 428.25,-121.75 428.25,-141"/>
<text text-anchor="middle" x="388.75" y="-127.5" font-family="Helvetica,sans-Serif" font-size="10.00">model/Model.h</text>
</a>
</g>
</g>
<!-- Node1&#45;&gt;Node4 -->
<g id="edge18_Node000001_Node000004" class="edge">
<title>Node1&#45;&gt;Node4</title>
<g id="a_edge18_Node000001_Node000004"><a xlink:title=" ">
<path fill="none" stroke="#63b8ff" d="M475.17,-227.79C457.42,-220.63 437.46,-210.3 422.75,-196.25 406.22,-180.46 396.01,-154.84 391.49,-141.34"/>
<polygon fill="#63b8ff" stroke="#63b8ff" points="473.86,-231.03 484.45,-231.3 476.34,-224.48 473.86,-231.03"/>
</a>
</g>
</g>
<!-- Node6 -->
<g id="Node000006" class="node">
<title>Node6</title>
<g id="a_Node000006"><a xlink:href="_solver_8h.html" target="_top" xlink:title="Solver source file.">
<polygon fill="white" stroke="#666666" points="602.5,-19.25 525,-19.25 525,0 602.5,0 602.5,-19.25"/>
<text text-anchor="middle" x="563.75" y="-5.75" font-family="Helvetica,sans-Serif" font-size="10.00">solve/Solver.h</text>
</a>
</g>
</g>
<!-- Node1&#45;&gt;Node6 -->
<g id="edge26_Node000001_Node000006" class="edge">
<title>Node1&#45;&gt;Node6</title>
<g id="a_edge26_Node000001_Node000006"><a xlink:title=" ">
<path fill="none" stroke="#63b8ff" d="M566.4,-239.72C657.46,-234.57 849.1,-208.85 928.75,-85.75 936.11,-74.37 937.73,-65.4 928.75,-55.25 907.38,-31.11 692.48,-17.28 602.77,-12.52"/>
<polygon fill="#63b8ff" stroke="#63b8ff" points="566.35,-236.22 556.54,-240.22 566.7,-243.21 566.35,-236.22"/>
</a>
</g>
</g>
<!-- Node7 -->
<g id="Node000007" class="node">
<title>Node7</title>
<g id="a_Node000007"><a xlink:href="_piecewise_cosine_chamber_8h.html" target="_top" xlink:title="model::PiecewiseCosineChamber source file">
<polygon fill="white" stroke="#666666" points="638.12,-80.12 471.38,-80.12 471.38,-60.88 638.12,-60.88 638.12,-80.12"/>
<text text-anchor="middle" x="554.75" y="-66.62" font-family="Helvetica,sans-Serif" font-size="10.00">model/PiecewiseCosineChamber.h</text>
</a>
</g>
</g>
<!-- Node1&#45;&gt;Node7 -->
<g id="edge19_Node000001_Node000007" class="edge">
<title>Node1&#45;&gt;Node7</title>
<g id="a_edge19_Node000001_Node000007"><a xlink:title=" ">
<path fill="none" stroke="#63b8ff" d="M565.62,-229.38C582.92,-222.7 600.6,-212.31 610.75,-196.25 636.38,-155.72 586.69,-101.48 564.59,-80.4"/>
<polygon fill="#63b8ff" stroke="#63b8ff" points="564.69,-226 556.39,-232.58 566.99,-232.61 564.69,-226"/>
</a>
</g>
</g>
<!-- Node9 -->
<g id="Node000009" class="node">
<title>Node9</title>
<g id="a_Node000009"><a xlink:href="calibrate_8h.html" target="_top" xlink:title="opt::calibrate source file">
<polygon fill="white" stroke="#666666" points="755.38,-80.12 656.12,-80.12 656.12,-60.88 755.38,-60.88 755.38,-80.12"/>
<text text-anchor="middle" x="705.75" y="-66.62" font-family="Helvetica,sans-Serif" font-size="10.00">optimize/calibrate.h</text>
</a>
</g>
</g>
<!-- Node1&#45;&gt;Node9 -->
<g id="edge24_Node000001_Node000009" class="edge">
<title>Node1&#45;&gt;Node9</title>
<g id="a_edge24_Node000001_Node000009"><a xlink:title=" ">
<path fill="none" stroke="#63b8ff" d="M565.97,-228.48C586.66,-221.49 610,-211.11 627.75,-196.25 667.9,-162.63 693.76,-102.86 702.48,-80.38"/>
<polygon fill="#63b8ff" stroke="#63b8ff" points="565.03,-225.1 556.56,-231.46 567.15,-231.77 565.03,-225.1"/>
</a>
</g>
</g>
<!-- Node10 -->
<g id="Node000010" class="node">
<title>Node10</title>
<g id="a_Node000010"><a xlink:href="_simulation_parameters_8h.html" target="_top" xlink:title="Source file to read simulation configuration.">
<polygon fill="white" stroke="#666666" points="919.62,-80.12 773.88,-80.12 773.88,-60.88 919.62,-60.88 919.62,-80.12"/>
<text text-anchor="middle" x="846.75" y="-66.62" font-family="Helvetica,sans-Serif" font-size="10.00">solve/SimulationParameters.h</text>
</a>
</g>
</g>
<!-- Node1&#45;&gt;Node10 -->
<g id="edge25_Node000001_Node000010" class="edge">
<title>Node1&#45;&gt;Node10</title>
<g id="a_edge25_Node000001_Node000010"><a xlink:title=" ">
<path fill="none" stroke="#63b8ff" d="M562.65,-228.63C589.04,-220.85 622.46,-209.71 650.75,-196.25 725.05,-160.89 805.4,-102.67 834.97,-80.47"/>
<polygon fill="#63b8ff" stroke="#63b8ff" points="561.9,-225.21 553.26,-231.34 563.84,-231.93 561.9,-225.21"/>
</a>
</g>
</g>
<!-- Node12 -->
<g id="Node000012" class="node">
<title>Node12</title>
<g id="a_Node000012"><a xlink:href="_piecewise_valve_8h.html" target="_top" xlink:title="model::PiecewiseValve source file">
<polygon fill="white" stroke="#666666" points="258,-196.25 135.5,-196.25 135.5,-177 258,-177 258,-196.25"/>
<text text-anchor="middle" x="196.75" y="-182.75" font-family="Helvetica,sans-Serif" font-size="10.00">model/PiecewiseValve.h</text>
</a>
</g>
</g>
<!-- Node1&#45;&gt;Node12 -->
<g id="edge20_Node000001_Node000012" class="edge">
<title>Node1&#45;&gt;Node12</title>
<g id="a_edge20_Node000001_Node000012"><a xlink:title=" ">
<path fill="none" stroke="#63b8ff" d="M467.32,-232.65C408.9,-222.93 311.99,-206.8 251.39,-196.72"/>
<polygon fill="#63b8ff" stroke="#63b8ff" points="466.54,-236.07 476.98,-234.26 467.69,-229.16 466.54,-236.07"/>
</a>
</g>
</g>
<!-- Node13 -->
<g id="Node000013" class="node">
<title>Node13</title>
<g id="a_Node000013"><a xlink:href="_valve_tanh_8h.html" target="_top" xlink:title="model::ValveTanh source file">
<polygon fill="white" stroke="#666666" points="375.38,-196.25 276.12,-196.25 276.12,-177 375.38,-177 375.38,-196.25"/>
<text text-anchor="middle" x="325.75" y="-182.75" font-family="Helvetica,sans-Serif" font-size="10.00">model/ValveTanh.h</text>
</a>
</g>
</g>
<!-- Node1&#45;&gt;Node13 -->
<g id="edge22_Node000001_Node000013" class="edge">
<title>Node1&#45;&gt;Node13</title>
<g id="a_edge22_Node000001_Node000013"><a xlink:title=" ">
<path fill="none" stroke="#63b8ff" d="M473.51,-228.82C438.54,-219.07 390.06,-205.55 358.31,-196.7"/>
<polygon fill="#63b8ff" stroke="#63b8ff" points="472.32,-232.12 482.89,-231.44 474.2,-225.38 472.32,-232.12"/>
</a>
</g>
</g>
<!-- Node3&#45;&gt;Node4 -->
<g id="edge3_Node000003_Node000004" class="edge">
<title>Node3&#45;&gt;Node4</title>
<g id="a_edge3_Node000003_Node000004"><a xlink:title=" ">
<path fill="none" stroke="#63b8ff" d="M479.4,-172.54C454.87,-162.89 424.11,-150 405.34,-141.45"/>
<polygon fill="#63b8ff" stroke="#63b8ff" points="477.82,-175.68 488.41,-176.04 480.36,-169.16 477.82,-175.68"/>
</a>
</g>
</g>
<!-- Node4&#45;&gt;Node2 -->
<g id="edge7_Node000004_Node000002" class="edge">
<title>Node4&#45;&gt;Node2</title>
<g id="a_edge7_Node000004_Node000002"><a xlink:title=" ">
<path fill="none" stroke="#63b8ff" d="M337.45,-127.66C243.51,-122.16 51.65,-108.29 31.75,-85.75 15.01,-66.79 33.1,-35.16 43.9,-19.7"/>
<polygon fill="#63b8ff" stroke="#63b8ff" points="337.25,-131.16 347.43,-128.23 337.65,-124.17 337.25,-131.16"/>
</a>
</g>
</g>
<!-- Node4&#45;&gt;Node3 -->
<g id="edge8_Node000004_Node000003" class="edge">
<title>Node4&#45;&gt;Node3</title>
<g id="a_edge8_Node000004_Node000003"><a xlink:title=" ">
<path fill="none" stroke="#63b8ff" d="M426.23,-145.51C450.78,-155.17 481.53,-168.06 500.25,-176.59"/>
<polygon fill="#63b8ff" stroke="#63b8ff" points="427.8,-142.36 417.21,-142 425.26,-148.89 427.8,-142.36"/>
</a>
</g>
</g>
<!-- Node5 -->
<g id="Node000005" class="node">
<title>Node5</title>
<g id="a_Node000005"><a xlink:href="_integrator_8h.html" target="_top" xlink:title="Integrator source file.">
<polygon fill="white" stroke="#666666" points="252.38,-80.12 153.12,-80.12 153.12,-60.88 252.38,-60.88 252.38,-80.12"/>
<text text-anchor="middle" x="202.75" y="-66.62" font-family="Helvetica,sans-Serif" font-size="10.00">algebra/Integrator.h</text>
</a>
</g>
</g>
<!-- Node4&#45;&gt;Node5 -->
<g id="edge4_Node000004_Node000005" class="edge">
<title>Node4&#45;&gt;Node5</title>
<g id="a_edge4_Node000004_Node000005"><a xlink:title=" ">
<path fill="none" stroke="#63b8ff" d="M349.22,-117.86C313.9,-106.68 262.99,-90.57 231.44,-80.58"/>
<polygon fill="#63b8ff" stroke="#63b8ff" points="348.06,-121.17 358.65,-120.85 350.17,-114.49 348.06,-121.17"/>
</a>
</g>
</g>
<!-- Node4&#45;&gt;Node6 -->
<g id="edge15_Node000004_Node000006" class="edge">
<title>Node4&#45;&gt;Node6</title>
<g id="a_edge15_Node000004_Node000006"><a xlink:title=" ">
<path fill="none" stroke="#63b8ff" d="M339.97,-117.23C324.38,-110.47 308.82,-100.45 299.75,-85.75 292.63,-74.21 291,-65.6 299.75,-55.25 328.07,-21.74 458.14,-13.39 524.53,-11.31"/>
<polygon fill="#63b8ff" stroke="#63b8ff" points="338.69,-120.49 349.28,-120.86 341.23,-113.97 338.69,-120.49"/>
</a>
</g>
</g>
<!-- Node4&#45;&gt;Node7 -->
<g id="edge9_Node000004_Node000007" class="edge">
<title>Node4&#45;&gt;Node7</title>
<g id="a_edge9_Node000004_Node000007"><a xlink:title=" ">
<path fill="none" stroke="#63b8ff" d="M419.96,-117.28C449.83,-106.13 494.41,-90.4 524.11,-80.58"/>
<polygon fill="#63b8ff" stroke="#63b8ff" points="418.82,-113.96 410.7,-120.77 421.3,-120.51 418.82,-113.96"/>
</a>
</g>
</g>
<!-- Node8 -->
<g id="Node000008" class="node">
<title>Node8</title>
<g id="a_Node000008"><a xlink:href="_levenberg_marquardt_optimizer_8h.html" target="_top" xlink:title="opt::LevenbergMarquardtOptimizer source file">
<polygon fill="white" stroke="#666666" points="452.88,-85.75 308.62,-85.75 308.62,-55.25 452.88,-55.25 452.88,-85.75"/>
<text text-anchor="start" x="316.62" y="-72.25" font-family="Helvetica,sans-Serif" font-size="10.00">optimize/LevenbergMarquardt</text>
<text text-anchor="middle" x="380.75" y="-61" font-family="Helvetica,sans-Serif" font-size="10.00">Optimizer.h</text>
</a>
</g>
</g>
<!-- Node4&#45;&gt;Node8 -->
<g id="edge11_Node000004_Node000008" class="edge">
<title>Node4&#45;&gt;Node8</title>
<g id="a_edge11_Node000004_Node000008"><a xlink:title=" ">
<path fill="none" stroke="#63b8ff" d="M386,-110.17C384.93,-102.24 383.71,-93.31 382.72,-86.03"/>
<polygon fill="#63b8ff" stroke="#63b8ff" points="382.52,-110.5 387.33,-119.93 389.45,-109.55 382.52,-110.5"/>
</a>
</g>
</g>
<!-- Node4&#45;&gt;Node9 -->
<g id="edge12_Node000004_Node000009" class="edge">
<title>Node4&#45;&gt;Node9</title>
<g id="a_edge12_Node000004_Node000009"><a xlink:title=" ">
<path fill="none" stroke="#63b8ff" d="M439.97,-122.53C492.17,-114.3 575.36,-100.53 646.75,-85.75 654.18,-84.21 662.1,-82.41 669.64,-80.62"/>
<polygon fill="#63b8ff" stroke="#63b8ff" points="439.51,-119.06 430.18,-124.07 440.6,-125.98 439.51,-119.06"/>
</a>
</g>
</g>
<!-- Node4&#45;&gt;Node10 -->
<g id="edge13_Node000004_Node000010" class="edge">
<title>Node4&#45;&gt;Node10</title>
<g id="a_edge13_Node000004_Node000010"><a xlink:title=" ">
<path fill="none" stroke="#63b8ff" d="M439.69,-125.21C512.08,-117.67 648.83,-102.69 764.75,-85.75 775.19,-84.22 786.34,-82.41 796.95,-80.6"/>
<polygon fill="#63b8ff" stroke="#63b8ff" points="439.73,-121.69 430.14,-126.2 440.45,-128.65 439.73,-121.69"/>
</a>
</g>
</g>
<!-- Node11 -->
<g id="Node000011" class="node">
<title>Node11</title>
<g id="a_Node000011"><a xlink:href="csv__writer_8h.html" target="_top" xlink:title="csv_writer source file">
<polygon fill="white" stroke="#666666" points="135.12,-80.12 40.38,-80.12 40.38,-60.88 135.12,-60.88 135.12,-80.12"/>
<text text-anchor="middle" x="87.75" y="-66.62" font-family="Helvetica,sans-Serif" font-size="10.00">solve/csv_writer.h</text>
</a>
</g>
</g>
<!-- Node4&#45;&gt;Node11 -->
<g id="edge16_Node000004_Node000011" class="edge">
<title>Node4&#45;&gt;Node11</title>
<g id="a_edge16_Node000004_Node000011"><a xlink:title=" ">
<path fill="none" stroke="#63b8ff" d="M338.04,-122.19C288.35,-113.92 210.57,-100.32 143.75,-85.75 136.69,-84.21 129.18,-82.41 122.02,-80.62"/>
<polygon fill="#63b8ff" stroke="#63b8ff" points="337.19,-125.6 347.63,-123.77 338.33,-118.69 337.19,-125.6"/>
</a>
</g>
</g>
<!-- Node5&#45;&gt;Node2 -->
<g id="edge5_Node000005_Node000002" class="edge">
<title>Node5&#45;&gt;Node2</title>
<g id="a_edge5_Node000005_Node000002"><a xlink:title=" ">
<path fill="none" stroke="#63b8ff" d="M168.93,-56.4C140.14,-45.25 99.53,-29.52 74.19,-19.71"/>
<polygon fill="#63b8ff" stroke="#63b8ff" points="167.33,-59.53 177.92,-59.88 169.86,-53.01 167.33,-59.53"/>
</a>
</g>
</g>
<!-- Node5&#45;&gt;Node6 -->
<g id="edge6_Node000005_Node000006" class="edge">
<title>Node5&#45;&gt;Node6</title>
<g id="a_edge6_Node000005_Node000006"><a xlink:title=" ">
<path fill="none" stroke="#63b8ff" d="M252.62,-58.04C257.39,-57.05 262.15,-56.11 266.75,-55.25 358.76,-38.12 467.76,-23.07 524.69,-15.61"/>
<polygon fill="#63b8ff" stroke="#63b8ff" points="252.11,-54.57 243.06,-60.08 253.57,-61.42 252.11,-54.57"/>
</a>
</g>
</g>
<!-- Node7&#45;&gt;Node4 -->
<g id="edge10_Node000007_Node000004" class="edge">
<title>Node7&#45;&gt;Node4</title>
<g id="a_edge10_Node000007_Node000004"><a xlink:title=" ">
<path fill="none" stroke="#63b8ff" d="M523.51,-84.61C493.63,-95.76 449.05,-111.49 419.36,-121.3"/>
<polygon fill="#63b8ff" stroke="#63b8ff" points="524.65,-87.92 532.77,-81.12 522.18,-81.37 524.65,-87.92"/>
</a>
</g>
</g>
<!-- Node10&#45;&gt;Node6 -->
<g id="edge14_Node000010_Node000006" class="edge">
<title>Node10&#45;&gt;Node6</title>
<g id="a_edge14_Node000010_Node000006"><a xlink:title=" ">
<path fill="none" stroke="#63b8ff" d="M792.11,-58.13C736.59,-46.58 651.97,-28.98 602.84,-18.76"/>
<polygon fill="#63b8ff" stroke="#63b8ff" points="791.17,-61.51 801.67,-60.12 792.59,-54.66 791.17,-61.51"/>
</a>
</g>
</g>
<!-- Node11&#45;&gt;Node2 -->
<g id="edge17_Node000011_Node000002" class="edge">
<title>Node11&#45;&gt;Node2</title>
<g id="a_edge17_Node000011_Node000002"><a xlink:title=" ">
<path fill="none" stroke="#63b8ff" d="M76.16,-51.06C69.59,-40.6 61.66,-27.98 56.42,-19.65"/>
<polygon fill="#63b8ff" stroke="#63b8ff" points="73.04,-52.67 81.33,-59.28 78.97,-48.95 73.04,-52.67"/>
</a>
</g>
</g>
<!-- Node12&#45;&gt;Node4 -->
<g id="edge21_Node000012_Node000004" class="edge">
<title>Node12&#45;&gt;Node4</title>
<g id="a_edge21_Node000012_Node000004"><a xlink:title=" ">
<path fill="none" stroke="#63b8ff" d="M240.22,-173.57C275.37,-163.82 324.11,-150.3 356.02,-141.45"/>
<polygon fill="#63b8ff" stroke="#63b8ff" points="239.48,-170.14 230.78,-176.19 241.35,-176.89 239.48,-170.14"/>
</a>
</g>
</g>
<!-- Node13&#45;&gt;Node4 -->
<g id="edge23_Node000013_Node000004" class="edge">
<title>Node13&#45;&gt;Node4</title>
<g id="a_edge23_Node000013_Node000004"><a xlink:title=" ">
<path fill="none" stroke="#63b8ff" d="M344.93,-169.41C355.87,-160.17 369.16,-148.93 378.22,-141.27"/>
<polygon fill="#63b8ff" stroke="#63b8ff" points="342.97,-166.49 337.59,-175.61 347.49,-171.83 342.97,-166.49"/>
</a>
</g>
</g>
</g>
</svg>
