<?xml version="1.0" encoding="UTF-8" standalone="no"?>
<!DOCTYPE svg PUBLIC "-//W3C//DTD SVG 1.1//EN"
 "http://www.w3.org/Graphics/SVG/1.1/DTD/svg11.dtd">
<!-- Generated by graphviz version 7.0.5 (20221223.1930)
 -->
<!-- Title: io Pages: 1 -->
<svg width="184pt" height="82pt"
 viewBox="0.00 0.00 183.50 82.00" xmlns="http://www.w3.org/2000/svg" xmlns:xlink="http://www.w3.org/1999/xlink">
<g id="graph0" class="graph" transform="scale(1 1) rotate(0) translate(4 78)">
<title>io</title>
<!-- dir_bc161955dc3a3d2485839eba21420d01 -->
<g id="node1" class="node">
<title>dir_bc161955dc3a3d2485839eba21420d01</title>
<g id="a_node1"><a xlink:href="dir_bc161955dc3a3d2485839eba21420d01.html" target="_top" xlink:title="io">
<polygon fill="#edf0f7" stroke="#404040" stroke-width="2" points="100,-74 71,-74 71,-55 100,-55 100,-74"/>
<text text-anchor="middle" x="85.5" y="-62" font-family="Helvetica,sans-Serif" font-size="10.00">io</text>
</a>
</g>
</g>
<!-- dir_3f14f6767c31cb4a1d22c13c18cc6fc3 -->
<g id="node2" class="node">
<title>dir_3f14f6767c31cb4a1d22c13c18cc6fc3</title>
<g id="a_node2"><a xlink:href="dir_3f14f6767c31cb4a1d22c13c18cc6fc3.html" target="_top" xlink:title="model">
<polygon fill="#edf0f7" stroke="#404040" points="43,-19 0,-19 0,0 43,0 43,-19"/>
<text text-anchor="middle" x="21.5" y="-7" font-family="Helvetica,sans-Serif" font-size="10.00">model</text>
</a>
</g>
</g>
<!-- dir_bc161955dc3a3d2485839eba21420d01&#45;&gt;dir_3f14f6767c31cb4a1d22c13c18cc6fc3 -->
<g id="edge1" class="edge">
<title>dir_bc161955dc3a3d2485839eba21420d01&#45;&gt;dir_3f14f6767c31cb4a1d22c13c18cc6fc3</title>
<path fill="none" stroke="#63b8ff" d="M74.64,-54.51C65.39,-46.85 51.88,-35.66 40.79,-26.47"/>
<polygon fill="#63b8ff" stroke="#63b8ff" points="43.3,-24.01 33.36,-20.32 38.83,-29.4 43.3,-24.01"/>
<g id="a_edge1&#45;headlabel"><a xlink:href="dir_000003_000004.html" target="_top" xlink:title="2">
<text text-anchor="middle" x="46.71" y="-20.65" font-family="Helvetica,sans-Serif" font-size="10.00" fill="#63b8ff">2</text>
</a>
</g>
</g>
<!-- dir_861f50189fda057e6c57d1c1130602b3 -->
<g id="node3" class="node">
<title>dir_861f50189fda057e6c57d1c1130602b3</title>
<g id="a_node3"><a xlink:href="dir_861f50189fda057e6c57d1c1130602b3.html" target="_top" xlink:title="helpers">
<polygon fill="#edf0f7" stroke="#404040" points="109.5,-19 61.5,-19 61.5,0 109.5,0 109.5,-19"/>
<text text-anchor="middle" x="85.5" y="-7" font-family="Helvetica,sans-Serif" font-size="10.00">helpers</text>
</a>
</g>
</g>
<!-- dir_bc161955dc3a3d2485839eba21420d01&#45;&gt;dir_861f50189fda057e6c57d1c1130602b3 -->
<g id="edge2" class="edge">
<title>dir_bc161955dc3a3d2485839eba21420d01&#45;&gt;dir_861f50189fda057e6c57d1c1130602b3</title>
<path fill="none" stroke="#63b8ff" d="M85.5,-54.75C85.5,-48.27 85.5,-39.16 85.5,-30.9"/>
<polygon fill="#63b8ff" stroke="#63b8ff" points="89,-30.96 85.5,-20.96 82,-30.96 89,-30.96"/>
<g id="a_edge2&#45;headlabel"><a xlink:href="dir_000003_000001.html" target="_top" xlink:title="3">
<text text-anchor="middle" x="91.84" y="-30.54" font-family="Helvetica,sans-Serif" font-size="10.00" fill="#63b8ff">3</text>
</a>
</g>
</g>
<!-- dir_e53b58e09df6ccf29305fb05aac16e30 -->
<g id="node4" class="node">
<title>dir_e53b58e09df6ccf29305fb05aac16e30</title>
<g id="a_node4"><a xlink:href="dir_e53b58e09df6ccf29305fb05aac16e30.html" target="_top" xlink:title="algebra">
<polygon fill="#edf0f7" stroke="#404040" points="175.5,-19 127.5,-19 127.5,0 175.5,0 175.5,-19"/>
<text text-anchor="middle" x="151.5" y="-7" font-family="Helvetica,sans-Serif" font-size="10.00">algebra</text>
</a>
</g>
</g>
<!-- dir_bc161955dc3a3d2485839eba21420d01&#45;&gt;dir_e53b58e09df6ccf29305fb05aac16e30 -->
<g id="edge3" class="edge">
<title>dir_bc161955dc3a3d2485839eba21420d01&#45;&gt;dir_e53b58e09df6ccf29305fb05aac16e30</title>
<path fill="none" stroke="#63b8ff" d="M96.7,-54.51C106.24,-46.85 120.17,-35.66 131.61,-26.47"/>
<polygon fill="#63b8ff" stroke="#63b8ff" points="133.68,-29.3 139.29,-20.31 129.3,-23.84 133.68,-29.3"/>
<g id="a_edge3&#45;headlabel"><a xlink:href="dir_000003_000000.html" target="_top" xlink:title="1">
<text text-anchor="middle" x="133.84" y="-30.31" font-family="Helvetica,sans-Serif" font-size="10.00" fill="#63b8ff">1</text>
</a>
</g>
</g>
</g>
</svg>
