<?xml version="1.0" encoding="UTF-8" standalone="no"?>
<!DOCTYPE svg PUBLIC "-//W3C//DTD SVG 1.1//EN"
 "http://www.w3.org/Graphics/SVG/1.1/DTD/svg11.dtd">
<!-- Generated by graphviz version 7.0.5 (20221223.1930)
 -->
<!-- Title: interface Pages: 1 -->
<svg width="176pt" height="82pt"
 viewBox="0.00 0.00 176.00 82.00" xmlns="http://www.w3.org/2000/svg" xmlns:xlink="http://www.w3.org/1999/xlink">
<g id="graph0" class="graph" transform="scale(1 1) rotate(0) translate(4 78)">
<title>interface</title>
<!-- dir_b31d54d5631803016a26f28213a41162 -->
<g id="node1" class="node">
<title>dir_b31d54d5631803016a26f28213a41162</title>
<g id="a_node1"><a xlink:href="dir_b31d54d5631803016a26f28213a41162.html" target="_top" xlink:title="interface">
<polygon fill="#edf0f7" stroke="#404040" stroke-width="2" points="107,-74 53,-74 53,-55 107,-55 107,-74"/>
<text text-anchor="middle" x="80" y="-62" font-family="Helvetica,sans-Serif" font-size="10.00">interface</text>
</a>
</g>
</g>
<!-- dir_0e32d39947da5daa82ce35156b95c638 -->
<g id="node2" class="node">
<title>dir_0e32d39947da5daa82ce35156b95c638</title>
<g id="a_node2"><a xlink:href="dir_0e32d39947da5daa82ce35156b95c638.html" target="_top" xlink:title="solve">
<polygon fill="#edf0f7" stroke="#404040" points="40,-19 0,-19 0,0 40,0 40,-19"/>
<text text-anchor="middle" x="20" y="-7" font-family="Helvetica,sans-Serif" font-size="10.00">solve</text>
</a>
</g>
</g>
<!-- dir_b31d54d5631803016a26f28213a41162&#45;&gt;dir_0e32d39947da5daa82ce35156b95c638 -->
<g id="edge1" class="edge">
<title>dir_b31d54d5631803016a26f28213a41162&#45;&gt;dir_0e32d39947da5daa82ce35156b95c638</title>
<path fill="none" stroke="#63b8ff" d="M69.82,-54.51C61.24,-46.93 48.73,-35.88 38.4,-26.75"/>
<polygon fill="#63b8ff" stroke="#63b8ff" points="40.97,-24.36 31.16,-20.36 36.34,-29.6 40.97,-24.36"/>
<g id="a_edge1&#45;headlabel"><a xlink:href="dir_000001_000004.html" target="_top" xlink:title="2">
<text text-anchor="middle" x="44.41" y="-21.11" font-family="Helvetica,sans-Serif" font-size="10.00" fill="#63b8ff">2</text>
</a>
</g>
</g>
<!-- dir_3f14f6767c31cb4a1d22c13c18cc6fc3 -->
<g id="node3" class="node">
<title>dir_3f14f6767c31cb4a1d22c13c18cc6fc3</title>
<g id="a_node3"><a xlink:href="dir_3f14f6767c31cb4a1d22c13c18cc6fc3.html" target="_top" xlink:title="model">
<polygon fill="#edf0f7" stroke="#404040" points="101.5,-19 58.5,-19 58.5,0 101.5,0 101.5,-19"/>
<text text-anchor="middle" x="80" y="-7" font-family="Helvetica,sans-Serif" font-size="10.00">model</text>
</a>
</g>
</g>
<!-- dir_b31d54d5631803016a26f28213a41162&#45;&gt;dir_3f14f6767c31cb4a1d22c13c18cc6fc3 -->
<g id="edge2" class="edge">
<title>dir_b31d54d5631803016a26f28213a41162&#45;&gt;dir_3f14f6767c31cb4a1d22c13c18cc6fc3</title>
<path fill="none" stroke="#63b8ff" d="M80,-54.75C80,-48.27 80,-39.16 80,-30.9"/>
<polygon fill="#63b8ff" stroke="#63b8ff" points="83.5,-30.96 80,-20.96 76.5,-30.96 83.5,-30.96"/>
<g id="a_edge2&#45;headlabel"><a xlink:href="dir_000001_000002.html" target="_top" xlink:title="1">
<text text-anchor="middle" x="86.34" y="-30.54" font-family="Helvetica,sans-Serif" font-size="10.00" fill="#63b8ff">1</text>
</a>
</g>
</g>
<!-- dir_e53b58e09df6ccf29305fb05aac16e30 -->
<g id="node4" class="node">
<title>dir_e53b58e09df6ccf29305fb05aac16e30</title>
<g id="a_node4"><a xlink:href="dir_e53b58e09df6ccf29305fb05aac16e30.html" target="_top" xlink:title="algebra">
<polygon fill="#edf0f7" stroke="#404040" points="168,-19 120,-19 120,0 168,0 168,-19"/>
<text text-anchor="middle" x="144" y="-7" font-family="Helvetica,sans-Serif" font-size="10.00">algebra</text>
</a>
</g>
</g>
<!-- dir_b31d54d5631803016a26f28213a41162&#45;&gt;dir_e53b58e09df6ccf29305fb05aac16e30 -->
<g id="edge3" class="edge">
<title>dir_b31d54d5631803016a26f28213a41162&#45;&gt;dir_e53b58e09df6ccf29305fb05aac16e30</title>
<path fill="none" stroke="#63b8ff" d="M90.86,-54.51C100.11,-46.85 113.62,-35.66 124.71,-26.47"/>
<polygon fill="#63b8ff" stroke="#63b8ff" points="126.67,-29.4 132.14,-20.32 122.2,-24.01 126.67,-29.4"/>
<g id="a_edge3&#45;headlabel"><a xlink:href="dir_000001_000000.html" target="_top" xlink:title="3">
<text text-anchor="middle" x="126.88" y="-30.41" font-family="Helvetica,sans-Serif" font-size="10.00" fill="#63b8ff">3</text>
</a>
</g>
</g>
</g>
</svg>
