<?xml version="1.0" encoding="UTF-8" standalone="no"?>
<!DOCTYPE svg PUBLIC "-//W3C//DTD SVG 1.1//EN"
 "http://www.w3.org/Graphics/SVG/1.1/DTD/svg11.dtd">
<!-- Generated by graphviz version 7.0.5 (20221223.1930)
 -->
<!-- Title: model/flowreferencebc.hpp Pages: 1 -->
<svg width="2078pt" height="467pt"
 viewBox="0.00 0.00 2078.00 467.00" xmlns="http://www.w3.org/2000/svg" xmlns:xlink="http://www.w3.org/1999/xlink">
<g id="graph0" class="graph" transform="scale(1 1) rotate(0) translate(4 463)">
<title>model/flowreferencebc.hpp</title>
<!-- Node1 -->
<g id="node1" class="node">
<title>Node1</title>
<g id="a_node1"><a xlink:title="MODEL::FlowReferenceBC source file.">
<polygon fill="#999999" stroke="#666666" points="974,-459 842,-459 842,-440 974,-440 974,-459"/>
<text text-anchor="middle" x="908" y="-447" font-family="Helvetica,sans-Serif" font-size="10.00">model/flowreferencebc.hpp</text>
</a>
</g>
</g>
<!-- Node2 -->
<g id="node2" class="node">
<title>Node2</title>
<g id="a_node2"><a xlink:href="sparsesystem_8hpp.html" target="_top" xlink:title="ALGEBRA::SparseSystem source file.">
<polygon fill="white" stroke="#666666" points="1051.5,-404 914.5,-404 914.5,-385 1051.5,-385 1051.5,-404"/>
<text text-anchor="middle" x="983" y="-392" font-family="Helvetica,sans-Serif" font-size="10.00">../algebra/sparsesystem.hpp</text>
</a>
</g>
</g>
<!-- Node1&#45;&gt;Node2 -->
<g id="edge1" class="edge">
<title>Node1&#45;&gt;Node2</title>
<path fill="none" stroke="#63b8ff" d="M920.72,-439.51C931.78,-431.7 948.04,-420.21 961.17,-410.93"/>
<polygon fill="#63b8ff" stroke="#63b8ff" points="963.08,-413.86 969.23,-405.23 959.04,-408.14 963.08,-413.86"/>
</g>
<!-- Node13 -->
<g id="node13" class="node">
<title>Node13</title>
<g id="a_node13"><a xlink:href="block_8hpp.html" target="_top" xlink:title="MODEL::Block source file.">
<polygon fill="white" stroke="#666666" points="1024,-184 966,-184 966,-165 1024,-165 1024,-184"/>
<text text-anchor="middle" x="995" y="-172" font-family="Helvetica,sans-Serif" font-size="10.00">block.hpp</text>
</a>
</g>
</g>
<!-- Node1&#45;&gt;Node13 -->
<g id="edge74" class="edge">
<title>Node1&#45;&gt;Node13</title>
<path fill="none" stroke="#63b8ff" d="M974.23,-445.84C1220.59,-435.52 2070,-395.93 2070,-340.5 2070,-340.5 2070,-340.5 2070,-283.5 2070,-177.51 1232.06,-174.49 1035.78,-175.24"/>
<polygon fill="#63b8ff" stroke="#63b8ff" points="1035.81,-171.74 1025.82,-175.28 1035.84,-178.74 1035.81,-171.74"/>
</g>
<!-- Node26 -->
<g id="node26" class="node">
<title>Node26</title>
<g id="a_node26"><a xlink:href="parameter_8hpp.html" target="_top" xlink:title="MODEL::Parameter source file.">
<polygon fill="white" stroke="#666666" points="379,-239 301,-239 301,-220 379,-220 379,-239"/>
<text text-anchor="middle" x="340" y="-227" font-family="Helvetica,sans-Serif" font-size="10.00">parameter.hpp</text>
</a>
</g>
</g>
<!-- Node1&#45;&gt;Node26 -->
<g id="edge75" class="edge">
<title>Node1&#45;&gt;Node26</title>
<path fill="none" stroke="#63b8ff" d="M841.69,-447C666.93,-441.39 201.91,-415.14 125,-294 120.47,-286.87 119.67,-281.55 125,-275 145.32,-250.04 232.38,-238.65 289.3,-233.78"/>
<polygon fill="#63b8ff" stroke="#63b8ff" points="289.4,-237.29 299.09,-232.99 288.84,-230.31 289.4,-237.29"/>
</g>
<!-- Node3 -->
<g id="node3" class="node">
<title>Node3</title>
<g id="a_node3"><a xlink:title=" ">
<polygon fill="#e0e0e0" stroke="#999999" points="1104,-349 1030,-349 1030,-330 1104,-330 1104,-349"/>
<text text-anchor="middle" x="1067" y="-337" font-family="Helvetica,sans-Serif" font-size="10.00">Eigen/Sparse</text>
</a>
</g>
</g>
<!-- Node2&#45;&gt;Node3 -->
<g id="edge2" class="edge">
<title>Node2&#45;&gt;Node3</title>
<path fill="none" stroke="#63b8ff" d="M997.25,-384.51C1009.88,-376.54 1028.56,-364.75 1043.41,-355.38"/>
<polygon fill="#63b8ff" stroke="#63b8ff" points="1045.09,-358.46 1051.68,-350.17 1041.36,-352.54 1045.09,-358.46"/>
</g>
<!-- Node4 -->
<g id="node4" class="node">
<title>Node4</title>
<g id="a_node4"><a xlink:title=" ">
<polygon fill="#e0e0e0" stroke="#999999" points="1210,-349 1122,-349 1122,-330 1210,-330 1210,-349"/>
<text text-anchor="middle" x="1166" y="-337" font-family="Helvetica,sans-Serif" font-size="10.00">Eigen/SparseLU</text>
</a>
</g>
</g>
<!-- Node2&#45;&gt;Node4 -->
<g id="edge3" class="edge">
<title>Node2&#45;&gt;Node4</title>
<path fill="none" stroke="#63b8ff" d="M1014.04,-384.51C1044.37,-375.73 1090.73,-362.3 1124.27,-352.59"/>
<polygon fill="#63b8ff" stroke="#63b8ff" points="1125.02,-356.01 1133.66,-349.87 1123.08,-349.29 1125.02,-356.01"/>
</g>
<!-- Node5 -->
<g id="node5" class="node">
<title>Node5</title>
<g id="a_node5"><a xlink:title=" ">
<polygon fill="#e0e0e0" stroke="#999999" points="1282,-349 1228,-349 1228,-330 1282,-330 1282,-349"/>
<text text-anchor="middle" x="1255" y="-337" font-family="Helvetica,sans-Serif" font-size="10.00">iostream</text>
</a>
</g>
</g>
<!-- Node2&#45;&gt;Node5 -->
<g id="edge4" class="edge">
<title>Node2&#45;&gt;Node5</title>
<path fill="none" stroke="#63b8ff" d="M1034.23,-384.53C1079.7,-376.42 1148.18,-363.82 1216.54,-349.45"/>
<polygon fill="#63b8ff" stroke="#63b8ff" points="1216.97,-352.93 1226.03,-347.44 1215.52,-346.09 1216.97,-352.93"/>
</g>
<!-- Node6 -->
<g id="node6" class="node">
<title>Node6</title>
<g id="a_node6"><a xlink:href="model_8hpp.html" target="_top" xlink:title="MODEL::Model source file.">
<polygon fill="white" stroke="#666666" points="791,-349 693,-349 693,-330 791,-330 791,-349"/>
<text text-anchor="middle" x="742" y="-337" font-family="Helvetica,sans-Serif" font-size="10.00">../model/model.hpp</text>
</a>
</g>
</g>
<!-- Node2&#45;&gt;Node6 -->
<g id="edge5" class="edge">
<title>Node2&#45;&gt;Node6</title>
<path fill="none" stroke="#63b8ff" d="M936.9,-384.51C894.22,-375.54 831.21,-361.71 788.43,-351.96"/>
<polygon fill="#63b8ff" stroke="#63b8ff" points="789.48,-348.61 778.95,-349.78 787.91,-355.43 789.48,-348.61"/>
</g>
<!-- Node6&#45;&gt;Node1 -->
<g id="edge43" class="edge">
<title>Node6&#45;&gt;Node1</title>
<path fill="none" stroke="#63b8ff" d="M755.77,-349.46C784.27,-368 849.96,-410.74 885,-433.54"/>
<polygon fill="#63b8ff" stroke="#63b8ff" points="882.86,-436.32 893.15,-438.84 886.67,-430.45 882.86,-436.32"/>
</g>
<!-- Node6&#45;&gt;Node2 -->
<g id="edge10" class="edge">
<title>Node6&#45;&gt;Node2</title>
<path fill="none" stroke="#63b8ff" d="M787.89,-349.45C830.5,-358.4 893.51,-372.22 936.36,-381.99"/>
<polygon fill="#63b8ff" stroke="#63b8ff" points="935.33,-385.35 945.86,-384.17 936.89,-378.53 935.33,-385.35"/>
</g>
<!-- Node7 -->
<g id="node7" class="node">
<title>Node7</title>
<g id="a_node7"><a xlink:title=" ">
<polygon fill="#e0e0e0" stroke="#999999" points="522,-294 466,-294 466,-275 522,-275 522,-294"/>
<text text-anchor="middle" x="494" y="-282" font-family="Helvetica,sans-Serif" font-size="10.00">algorithm</text>
</a>
</g>
</g>
<!-- Node6&#45;&gt;Node7 -->
<g id="edge6" class="edge">
<title>Node6&#45;&gt;Node7</title>
<path fill="none" stroke="#63b8ff" d="M698.31,-329.52C657.94,-321.18 596,-308.24 533.18,-294.45"/>
<polygon fill="#63b8ff" stroke="#63b8ff" points="534.27,-291.11 523.75,-292.37 532.76,-297.94 534.27,-291.11"/>
</g>
<!-- Node8 -->
<g id="node8" class="node">
<title>Node8</title>
<g id="a_node8"><a xlink:title=" ">
<polygon fill="#e0e0e0" stroke="#999999" points="569.5,-294 540.5,-294 540.5,-275 569.5,-275 569.5,-294"/>
<text text-anchor="middle" x="555" y="-282" font-family="Helvetica,sans-Serif" font-size="10.00">list</text>
</a>
</g>
</g>
<!-- Node6&#45;&gt;Node8 -->
<g id="edge7" class="edge">
<title>Node6&#45;&gt;Node8</title>
<path fill="none" stroke="#63b8ff" d="M705.25,-329.53C674.18,-321.72 628.3,-309.68 580.42,-294.57"/>
<polygon fill="#63b8ff" stroke="#63b8ff" points="581.57,-291.26 570.97,-291.55 579.43,-297.93 581.57,-291.26"/>
</g>
<!-- Node9 -->
<g id="node9" class="node">
<title>Node9</title>
<g id="a_node9"><a xlink:title=" ">
<polygon fill="#e0e0e0" stroke="#999999" points="638.5,-294 587.5,-294 587.5,-275 638.5,-275 638.5,-294"/>
<text text-anchor="middle" x="613" y="-282" font-family="Helvetica,sans-Serif" font-size="10.00">memory</text>
</a>
</g>
</g>
<!-- Node6&#45;&gt;Node9 -->
<g id="edge8" class="edge">
<title>Node6&#45;&gt;Node9</title>
<path fill="none" stroke="#63b8ff" d="M720.12,-329.51C699.51,-321.04 668.41,-308.27 645.02,-298.66"/>
<polygon fill="#63b8ff" stroke="#63b8ff" points="646.54,-295.5 635.96,-294.93 643.88,-301.97 646.54,-295.5"/>
</g>
<!-- Node10 -->
<g id="node10" class="node">
<title>Node10</title>
<g id="a_node10"><a xlink:title=" ">
<polygon fill="#e0e0e0" stroke="#999999" points="87,-19 43,-19 43,0 87,0 87,-19"/>
<text text-anchor="middle" x="65" y="-7" font-family="Helvetica,sans-Serif" font-size="10.00">vector</text>
</a>
</g>
</g>
<!-- Node6&#45;&gt;Node10 -->
<g id="edge9" class="edge">
<title>Node6&#45;&gt;Node10</title>
<path fill="none" stroke="#63b8ff" d="M692.56,-338.79C559.34,-338.99 195.42,-335.61 84,-294 40.16,-277.63 0,-277.3 0,-230.5 0,-230.5 0,-230.5 0,-118.5 0,-82.06 27.5,-47.34 46.72,-27.51"/>
<polygon fill="#63b8ff" stroke="#63b8ff" points="49.11,-30.07 53.77,-20.56 44.19,-25.09 49.11,-30.07"/>
</g>
<!-- Node11 -->
<g id="node11" class="node">
<title>Node11</title>
<g id="a_node11"><a xlink:href="bloodvessel_8hpp.html" target="_top" xlink:title="MODEL::BloodVessel source file.">
<polygon fill="white" stroke="#666666" points="872.5,-239 749.5,-239 749.5,-220 872.5,-220 872.5,-239"/>
<text text-anchor="middle" x="811" y="-227" font-family="Helvetica,sans-Serif" font-size="10.00">../model/bloodvessel.hpp</text>
</a>
</g>
</g>
<!-- Node6&#45;&gt;Node11 -->
<g id="edge11" class="edge">
<title>Node6&#45;&gt;Node11</title>
<path fill="none" stroke="#63b8ff" d="M744.22,-329.76C747.73,-317 755.36,-292.87 767,-275 773.71,-264.7 783.08,-254.82 791.44,-246.99"/>
<polygon fill="#63b8ff" stroke="#63b8ff" points="793.71,-249.67 798.83,-240.4 789.04,-244.45 793.71,-249.67"/>
</g>
<!-- Node6&#45;&gt;Node13 -->
<g id="edge69" class="edge">
<title>Node6&#45;&gt;Node13</title>
<path fill="none" stroke="#63b8ff" d="M791.25,-337.74C861.51,-335.49 985.11,-326.84 1013,-294 1036.82,-265.95 1019.14,-220.11 1005.93,-194.44"/>
<polygon fill="#63b8ff" stroke="#63b8ff" points="1009.09,-192.93 1001.24,-185.82 1002.95,-196.28 1009.09,-192.93"/>
</g>
<!-- Node16 -->
<g id="node16" class="node">
<title>Node16</title>
<g id="a_node16"><a xlink:href="dofhandler_8hpp.html" target="_top" xlink:title="MODEL::DOFHandler source file.">
<polygon fill="white" stroke="#666666" points="240,-74 160,-74 160,-55 240,-55 240,-74"/>
<text text-anchor="middle" x="200" y="-62" font-family="Helvetica,sans-Serif" font-size="10.00">dofhandler.hpp</text>
</a>
</g>
</g>
<!-- Node6&#45;&gt;Node16 -->
<g id="edge71" class="edge">
<title>Node6&#45;&gt;Node16</title>
<path fill="none" stroke="#63b8ff" d="M692.76,-338.65C554.59,-338.58 170.8,-334.67 133,-294 118.34,-278.23 171.88,-136.88 192.35,-84.72"/>
<polygon fill="#63b8ff" stroke="#63b8ff" points="195.51,-86.25 195.93,-75.66 189,-83.68 195.51,-86.25"/>
</g>
<!-- Node18 -->
<g id="node18" class="node">
<title>Node18</title>
<g id="a_node18"><a xlink:href="node_8hpp.html" target="_top" xlink:title="MODEL::Node source file.">
<polygon fill="white" stroke="#666666" points="160,-129 104,-129 104,-110 160,-110 160,-129"/>
<text text-anchor="middle" x="132" y="-117" font-family="Helvetica,sans-Serif" font-size="10.00">node.hpp</text>
</a>
</g>
</g>
<!-- Node6&#45;&gt;Node18 -->
<g id="edge72" class="edge">
<title>Node6&#45;&gt;Node18</title>
<path fill="none" stroke="#63b8ff" d="M692.68,-338.85C549.3,-339.37 140.16,-337.04 100,-294 59.47,-250.57 98.72,-173.37 120.12,-138.49"/>
<polygon fill="#63b8ff" stroke="#63b8ff" points="122.86,-140.7 125.28,-130.39 116.96,-136.95 122.86,-140.7"/>
</g>
<!-- Node19 -->
<g id="node19" class="node">
<title>Node19</title>
<g id="a_node19"><a xlink:href="bloodvesseljunction_8hpp.html" target="_top" xlink:title="MODEL::BloodVesselJunction source file.">
<polygon fill="white" stroke="#666666" points="1004.5,-294 847.5,-294 847.5,-275 1004.5,-275 1004.5,-294"/>
<text text-anchor="middle" x="926" y="-282" font-family="Helvetica,sans-Serif" font-size="10.00">../model/bloodvesseljunction.hpp</text>
</a>
</g>
</g>
<!-- Node6&#45;&gt;Node19 -->
<g id="edge26" class="edge">
<title>Node6&#45;&gt;Node19</title>
<path fill="none" stroke="#63b8ff" d="M773.21,-329.51C803.7,-320.73 850.32,-307.3 884.04,-297.59"/>
<polygon fill="#63b8ff" stroke="#63b8ff" points="884.85,-301 893.49,-294.87 882.91,-294.27 884.85,-301"/>
</g>
<!-- Node20 -->
<g id="node20" class="node">
<title>Node20</title>
<g id="a_node20"><a xlink:href="blocktype_8hpp.html" target="_top" xlink:title="MODEL::BlockType source file.">
<polygon fill="white" stroke="#666666" points="967,-239 891,-239 891,-220 967,-220 967,-239"/>
<text text-anchor="middle" x="929" y="-227" font-family="Helvetica,sans-Serif" font-size="10.00">blocktype.hpp</text>
</a>
</g>
</g>
<!-- Node6&#45;&gt;Node20 -->
<g id="edge70" class="edge">
<title>Node6&#45;&gt;Node20</title>
<path fill="none" stroke="#63b8ff" d="M754.4,-329.54C772.39,-316.73 806.95,-292.76 838,-275 857.59,-263.79 880.42,-252.64 898.31,-244.3"/>
<polygon fill="#63b8ff" stroke="#63b8ff" points="899.74,-247.49 907.36,-240.13 896.81,-241.13 899.74,-247.49"/>
</g>
<!-- Node21 -->
<g id="node21" class="node">
<title>Node21</title>
<g id="a_node21"><a xlink:href="closedloop_r_c_rbc_8hpp.html" target="_top" xlink:title="MODEL::ClosedLoopRCRBC source file.">
<polygon fill="white" stroke="#666666" points="2003.5,-294 1854.5,-294 1854.5,-275 2003.5,-275 2003.5,-294"/>
<text text-anchor="middle" x="1929" y="-282" font-family="Helvetica,sans-Serif" font-size="10.00">../model/closedloopRCRbc.hpp</text>
</a>
</g>
</g>
<!-- Node6&#45;&gt;Node21 -->
<g id="edge31" class="edge">
<title>Node6&#45;&gt;Node21</title>
<path fill="none" stroke="#63b8ff" d="M791.39,-336.92C974.41,-330.98 1614.74,-309.66 1843.15,-294.14"/>
<polygon fill="#63b8ff" stroke="#63b8ff" points="1843.12,-297.65 1852.85,-293.47 1842.63,-290.67 1843.12,-297.65"/>
</g>
<!-- Node22 -->
<g id="node22" class="node">
<title>Node22</title>
<g id="a_node22"><a xlink:href="closedloopcoronarybc_8hpp.html" target="_top" xlink:title="MODEL::ClosedLoopCoronaryBC source file.">
<polygon fill="white" stroke="#666666" points="1226.5,-294 1061.5,-294 1061.5,-275 1226.5,-275 1226.5,-294"/>
<text text-anchor="middle" x="1144" y="-282" font-family="Helvetica,sans-Serif" font-size="10.00">../model/closedloopcoronarybc.hpp</text>
</a>
</g>
</g>
<!-- Node6&#45;&gt;Node22 -->
<g id="edge34" class="edge">
<title>Node6&#45;&gt;Node22</title>
<path fill="none" stroke="#63b8ff" d="M791.29,-332C859.48,-323.01 983.34,-306.68 1064.64,-295.96"/>
<polygon fill="#63b8ff" stroke="#63b8ff" points="1064.86,-299.46 1074.32,-294.69 1063.95,-292.52 1064.86,-299.46"/>
</g>
<!-- Node23 -->
<g id="node23" class="node">
<title>Node23</title>
<g id="a_node23"><a xlink:href="closedloopheartpulmonary_8hpp.html" target="_top" xlink:title="MODEL::ClosedLoopHeartPulmonary source file.">
<polygon fill="white" stroke="#666666" points="654.5,-239 507.5,-239 507.5,-220 654.5,-220 654.5,-239"/>
<text text-anchor="middle" x="581" y="-227" font-family="Helvetica,sans-Serif" font-size="10.00">closedloopheartpulmonary.hpp</text>
</a>
</g>
</g>
<!-- Node6&#45;&gt;Node23 -->
<g id="edge42" class="edge">
<title>Node6&#45;&gt;Node23</title>
<path fill="none" stroke="#63b8ff" d="M735.36,-329.66C725,-316.34 703.77,-290.99 681,-275 662.06,-261.7 638.51,-250.99 619.02,-243.41"/>
<polygon fill="#63b8ff" stroke="#63b8ff" points="620.39,-240.18 609.8,-239.95 617.93,-246.73 620.39,-240.18"/>
</g>
<!-- Node24 -->
<g id="node24" class="node">
<title>Node24</title>
<g id="a_node24"><a xlink:href="junction_8hpp.html" target="_top" xlink:title="MODEL::Junction source file.">
<polygon fill="white" stroke="#666666" points="1526.5,-294 1421.5,-294 1421.5,-275 1526.5,-275 1526.5,-294"/>
<text text-anchor="middle" x="1474" y="-282" font-family="Helvetica,sans-Serif" font-size="10.00">../model/junction.hpp</text>
</a>
</g>
</g>
<!-- Node6&#45;&gt;Node24 -->
<g id="edge44" class="edge">
<title>Node6&#45;&gt;Node24</title>
<path fill="none" stroke="#63b8ff" d="M791.27,-336.41C900.55,-331.52 1171.68,-317.98 1409.94,-294.13"/>
<polygon fill="#63b8ff" stroke="#63b8ff" points="1410.16,-297.62 1419.76,-293.14 1409.46,-290.66 1410.16,-297.62"/>
</g>
<!-- Node25 -->
<g id="node25" class="node">
<title>Node25</title>
<g id="a_node25"><a xlink:href="openloopcoronarybc_8hpp.html" target="_top" xlink:title="MODEL::OpenLoopCoronaryBC source file.">
<polygon fill="white" stroke="#666666" points="1403,-294 1245,-294 1245,-275 1403,-275 1403,-294"/>
<text text-anchor="middle" x="1324" y="-282" font-family="Helvetica,sans-Serif" font-size="10.00">../model/openloopcoronarybc.hpp</text>
</a>
</g>
</g>
<!-- Node6&#45;&gt;Node25 -->
<g id="edge47" class="edge">
<title>Node6&#45;&gt;Node25</title>
<path fill="none" stroke="#63b8ff" d="M791.34,-334.13C878.16,-326.43 1064.22,-309.83 1233.52,-294.13"/>
<polygon fill="#63b8ff" stroke="#63b8ff" points="1233.76,-297.62 1243.4,-293.22 1233.12,-290.65 1233.76,-297.62"/>
</g>
<!-- Node6&#45;&gt;Node26 -->
<g id="edge73" class="edge">
<title>Node6&#45;&gt;Node26</title>
<path fill="none" stroke="#63b8ff" d="M730.16,-329.61C708.86,-313.8 664.69,-281.79 647,-275 561.04,-242 452.95,-233.23 390.65,-231.04"/>
<polygon fill="#63b8ff" stroke="#63b8ff" points="390.8,-227.55 380.7,-230.74 390.59,-234.54 390.8,-227.55"/>
</g>
<!-- Node28 -->
<g id="node28" class="node">
<title>Node28</title>
<g id="a_node28"><a xlink:href="pressurereferencebc_8hpp.html" target="_top" xlink:title="MODEL::PressureReferenceBC source file.">
<polygon fill="white" stroke="#666666" points="302,-294 142,-294 142,-275 302,-275 302,-294"/>
<text text-anchor="middle" x="222" y="-282" font-family="Helvetica,sans-Serif" font-size="10.00">../model/pressurereferencebc.hpp</text>
</a>
</g>
</g>
<!-- Node6&#45;&gt;Node28 -->
<g id="edge55" class="edge">
<title>Node6&#45;&gt;Node28</title>
<path fill="none" stroke="#63b8ff" d="M692.61,-333.47C605.69,-324.61 424.14,-306.1 313.68,-294.84"/>
<polygon fill="#63b8ff" stroke="#63b8ff" points="314.04,-291.36 303.73,-293.83 313.33,-298.33 314.04,-291.36"/>
</g>
<!-- Node29 -->
<g id="node29" class="node">
<title>Node29</title>
<g id="a_node29"><a xlink:href="resistancebc_8hpp.html" target="_top" xlink:title="MODEL::ResistanceBC source file.">
<polygon fill="white" stroke="#666666" points="447.5,-294 320.5,-294 320.5,-275 447.5,-275 447.5,-294"/>
<text text-anchor="middle" x="384" y="-282" font-family="Helvetica,sans-Serif" font-size="10.00">../model/resistancebc.hpp</text>
</a>
</g>
</g>
<!-- Node6&#45;&gt;Node29 -->
<g id="edge59" class="edge">
<title>Node6&#45;&gt;Node29</title>
<path fill="none" stroke="#63b8ff" d="M692.6,-331.19C631.15,-322.09 525.78,-306.49 455.51,-296.09"/>
<polygon fill="#63b8ff" stroke="#63b8ff" points="456.45,-292.69 446.04,-294.69 455.42,-299.61 456.45,-292.69"/>
</g>
<!-- Node30 -->
<g id="node30" class="node">
<title>Node30</title>
<g id="a_node30"><a xlink:href="resistivejunction_8hpp.html" target="_top" xlink:title="MODEL::ResistiveJunction source file.">
<polygon fill="white" stroke="#666666" points="1687,-294 1545,-294 1545,-275 1687,-275 1687,-294"/>
<text text-anchor="middle" x="1616" y="-282" font-family="Helvetica,sans-Serif" font-size="10.00">../model/resistivejunction.hpp</text>
</a>
</g>
</g>
<!-- Node6&#45;&gt;Node30 -->
<g id="edge63" class="edge">
<title>Node6&#45;&gt;Node30</title>
<path fill="none" stroke="#63b8ff" d="M791.3,-336.59C914.52,-331.64 1246.02,-317.2 1533.84,-294.13"/>
<polygon fill="#63b8ff" stroke="#63b8ff" points="1533.72,-297.65 1543.41,-293.36 1533.16,-290.68 1533.72,-297.65"/>
</g>
<!-- Node31 -->
<g id="node31" class="node">
<title>Node31</title>
<g id="a_node31"><a xlink:href="windkesselbc_8hpp.html" target="_top" xlink:title="MODEL::WindkesselBC source file.">
<polygon fill="white" stroke="#666666" points="1836.5,-294 1705.5,-294 1705.5,-275 1836.5,-275 1836.5,-294"/>
<text text-anchor="middle" x="1771" y="-282" font-family="Helvetica,sans-Serif" font-size="10.00">../model/windkesselbc.hpp</text>
</a>
</g>
</g>
<!-- Node6&#45;&gt;Node31 -->
<g id="edge66" class="edge">
<title>Node6&#45;&gt;Node31</title>
<path fill="none" stroke="#63b8ff" d="M791.23,-336.64C957.1,-330.29 1495.79,-309.12 1693.75,-294.1"/>
<polygon fill="#63b8ff" stroke="#63b8ff" points="1693.97,-297.59 1703.66,-293.33 1693.42,-290.62 1693.97,-297.59"/>
</g>
<!-- Node11&#45;&gt;Node2 -->
<g id="edge13" class="edge">
<title>Node11&#45;&gt;Node2</title>
<path fill="none" stroke="#63b8ff" d="M813,-239.12C816.37,-252.15 824.19,-277.13 838,-294 869.87,-332.96 920.83,-363 953.07,-379.46"/>
<polygon fill="#63b8ff" stroke="#63b8ff" points="951.37,-382.52 961.88,-383.84 954.48,-376.25 951.37,-382.52"/>
</g>
<!-- Node12 -->
<g id="node12" class="node">
<title>Node12</title>
<g id="a_node12"><a xlink:title=" ">
<polygon fill="#e0e0e0" stroke="#999999" points="604,-184 558,-184 558,-165 604,-165 604,-184"/>
<text text-anchor="middle" x="581" y="-172" font-family="Helvetica,sans-Serif" font-size="10.00">math.h</text>
</a>
</g>
</g>
<!-- Node11&#45;&gt;Node12 -->
<g id="edge12" class="edge">
<title>Node11&#45;&gt;Node12</title>
<path fill="none" stroke="#63b8ff" d="M771.98,-219.51C728.05,-209.39 657.34,-193.09 615.4,-183.43"/>
<polygon fill="#63b8ff" stroke="#63b8ff" points="616.39,-180.06 605.86,-181.23 614.81,-186.88 616.39,-180.06"/>
</g>
<!-- Node11&#45;&gt;Node13 -->
<g id="edge14" class="edge">
<title>Node11&#45;&gt;Node13</title>
<path fill="none" stroke="#63b8ff" d="M842.21,-219.51C873.26,-210.57 921.01,-196.81 954.86,-187.06"/>
<polygon fill="#63b8ff" stroke="#63b8ff" points="955.67,-190.47 964.31,-184.34 953.73,-183.74 955.67,-190.47"/>
</g>
<!-- Node13&#45;&gt;Node2 -->
<g id="edge17" class="edge">
<title>Node13&#45;&gt;Node2</title>
<path fill="none" stroke="#63b8ff" d="M1024.31,-177.98C1100.89,-184.49 1313.31,-202.77 1490,-220 1723.65,-242.79 2168.63,-118.24 2013,-294 1950.34,-364.76 1294.65,-386.42 1063.28,-391.89"/>
<polygon fill="#63b8ff" stroke="#63b8ff" points="1063.36,-388.39 1053.44,-392.12 1063.52,-395.39 1063.36,-388.39"/>
</g>
<!-- Node13&#45;&gt;Node10 -->
<g id="edge16" class="edge">
<title>Node13&#45;&gt;Node10</title>
<path fill="none" stroke="#63b8ff" d="M965.8,-173.02C814.93,-170.45 129.46,-157.22 95,-129 65.94,-105.21 62.72,-57.68 63.5,-30.6"/>
<polygon fill="#63b8ff" stroke="#63b8ff" points="66.98,-31.13 64.01,-20.97 59.99,-30.77 66.98,-31.13"/>
</g>
<!-- Node14 -->
<g id="node14" class="node">
<title>Node14</title>
<g id="a_node14"><a xlink:title=" ">
<polygon fill="#e0e0e0" stroke="#999999" points="599.5,-19 564.5,-19 564.5,0 599.5,0 599.5,-19"/>
<text text-anchor="middle" x="582" y="-7" font-family="Helvetica,sans-Serif" font-size="10.00">map</text>
</a>
</g>
</g>
<!-- Node13&#45;&gt;Node14 -->
<g id="edge15" class="edge">
<title>Node13&#45;&gt;Node14</title>
<path fill="none" stroke="#63b8ff" d="M980.09,-164.71C957.6,-151.68 913.45,-126.95 874,-110 779.99,-69.6 663.67,-34.09 610.7,-18.66"/>
<polygon fill="#63b8ff" stroke="#63b8ff" points="611.83,-15.35 601.25,-15.94 609.89,-22.07 611.83,-15.35"/>
</g>
<!-- Node15 -->
<g id="node15" class="node">
<title>Node15</title>
<g id="a_node15"><a xlink:href="state_8hpp.html" target="_top" xlink:title="ALGEBRA::State source file.">
<polygon fill="white" stroke="#666666" points="820,-129 722,-129 722,-110 820,-110 820,-129"/>
<text text-anchor="middle" x="771" y="-117" font-family="Helvetica,sans-Serif" font-size="10.00">../algebra/state.hpp</text>
</a>
</g>
</g>
<!-- Node13&#45;&gt;Node15 -->
<g id="edge18" class="edge">
<title>Node13&#45;&gt;Node15</title>
<path fill="none" stroke="#63b8ff" d="M965.72,-166.57C928.73,-157.82 864.56,-142.64 820.05,-132.1"/>
<polygon fill="#63b8ff" stroke="#63b8ff" points="820.91,-128.71 810.37,-129.82 819.3,-135.52 820.91,-128.71"/>
</g>
<!-- Node13&#45;&gt;Node16 -->
<g id="edge19" class="edge">
<title>Node13&#45;&gt;Node16</title>
<path fill="none" stroke="#63b8ff" d="M977.12,-164.64C947.27,-150.31 885.03,-122.41 829,-110 719.28,-85.7 381,-71.75 251.32,-67.18"/>
<polygon fill="#63b8ff" stroke="#63b8ff" points="251.79,-63.7 241.68,-66.85 251.55,-70.69 251.79,-63.7"/>
</g>
<!-- Node13&#45;&gt;Node18 -->
<g id="edge23" class="edge">
<title>Node13&#45;&gt;Node18</title>
<path fill="none" stroke="#63b8ff" d="M965.79,-171.71C836.93,-163.79 319.16,-131.99 171.49,-122.93"/>
<polygon fill="#63b8ff" stroke="#63b8ff" points="172.03,-119.45 161.83,-122.33 171.6,-126.44 172.03,-119.45"/>
</g>
<!-- Node16&#45;&gt;Node10 -->
<g id="edge22" class="edge">
<title>Node16&#45;&gt;Node10</title>
<path fill="none" stroke="#63b8ff" d="M177.1,-54.51C155.31,-45.96 122.3,-33 97.74,-23.35"/>
<polygon fill="#63b8ff" stroke="#63b8ff" points="99.11,-20.13 88.52,-19.74 96.55,-26.65 99.11,-20.13"/>
</g>
<!-- Node16&#45;&gt;Node14 -->
<g id="edge20" class="edge">
<title>Node16&#45;&gt;Node14</title>
<path fill="none" stroke="#63b8ff" d="M240.16,-57.93C317.5,-47.2 485.44,-23.9 553,-14.52"/>
<polygon fill="#63b8ff" stroke="#63b8ff" points="553.11,-18.04 562.54,-13.2 552.15,-11.11 553.11,-18.04"/>
</g>
<!-- Node17 -->
<g id="node17" class="node">
<title>Node17</title>
<g id="a_node17"><a xlink:title=" ">
<polygon fill="#e0e0e0" stroke="#999999" points="162.5,-19 121.5,-19 121.5,0 162.5,0 162.5,-19"/>
<text text-anchor="middle" x="142" y="-7" font-family="Helvetica,sans-Serif" font-size="10.00">string</text>
</a>
</g>
</g>
<!-- Node16&#45;&gt;Node17 -->
<g id="edge21" class="edge">
<title>Node16&#45;&gt;Node17</title>
<path fill="none" stroke="#63b8ff" d="M190.16,-54.51C181.95,-47 170.02,-36.1 160.09,-27.03"/>
<polygon fill="#63b8ff" stroke="#63b8ff" points="162.55,-24.54 152.81,-20.38 157.83,-29.71 162.55,-24.54"/>
</g>
<!-- Node18&#45;&gt;Node16 -->
<g id="edge25" class="edge">
<title>Node18&#45;&gt;Node16</title>
<path fill="none" stroke="#63b8ff" d="M143.54,-109.51C153.46,-101.77 168.01,-90.43 179.86,-81.2"/>
<polygon fill="#63b8ff" stroke="#63b8ff" points="181.71,-84.2 187.44,-75.29 177.4,-78.68 181.71,-84.2"/>
</g>
<!-- Node18&#45;&gt;Node17 -->
<g id="edge24" class="edge">
<title>Node18&#45;&gt;Node17</title>
<path fill="none" stroke="#63b8ff" d="M132.82,-109.66C134.4,-92.57 137.92,-54.61 140.11,-30.92"/>
<polygon fill="#63b8ff" stroke="#63b8ff" points="143.59,-31.25 141.03,-20.97 136.62,-30.6 143.59,-31.25"/>
</g>
<!-- Node19&#45;&gt;Node2 -->
<g id="edge27" class="edge">
<title>Node19&#45;&gt;Node2</title>
<path fill="none" stroke="#63b8ff" d="M928.53,-294.46C932.27,-307.08 939.95,-330.59 950,-349 955.12,-358.38 962.01,-368 968.17,-375.88"/>
<polygon fill="#63b8ff" stroke="#63b8ff" points="965.43,-378.05 974.44,-383.62 970.86,-373.65 965.43,-378.05"/>
</g>
<!-- Node19&#45;&gt;Node11 -->
<g id="edge30" class="edge">
<title>Node19&#45;&gt;Node11</title>
<path fill="none" stroke="#63b8ff" d="M906.49,-274.51C888.37,-266.16 861.15,-253.61 840.4,-244.05"/>
<polygon fill="#63b8ff" stroke="#63b8ff" points="842.14,-241 831.59,-239.99 839.21,-247.36 842.14,-241"/>
</g>
<!-- Node19&#45;&gt;Node13 -->
<g id="edge28" class="edge">
<title>Node19&#45;&gt;Node13</title>
<path fill="none" stroke="#63b8ff" d="M939.35,-274.81C950.66,-266.79 966.51,-253.9 976,-239 984.43,-225.76 989.27,-208.6 991.96,-195.46"/>
<polygon fill="#63b8ff" stroke="#63b8ff" points="995.36,-196.29 993.65,-185.84 988.47,-195.08 995.36,-196.29"/>
</g>
<!-- Node19&#45;&gt;Node20 -->
<g id="edge29" class="edge">
<title>Node19&#45;&gt;Node20</title>
<path fill="none" stroke="#63b8ff" d="M926.5,-274.75C926.86,-268.27 927.38,-259.16 927.85,-250.9"/>
<polygon fill="#63b8ff" stroke="#63b8ff" points="931.34,-251.13 928.41,-240.95 924.35,-250.74 931.34,-251.13"/>
</g>
<!-- Node21&#45;&gt;Node2 -->
<g id="edge32" class="edge">
<title>Node21&#45;&gt;Node2</title>
<path fill="none" stroke="#63b8ff" d="M1871.17,-294.46C1784.7,-307.64 1616.53,-332.5 1473,-349 1328.72,-365.59 1159.96,-379.77 1062.87,-387.43"/>
<polygon fill="#63b8ff" stroke="#63b8ff" points="1062.88,-383.91 1053.19,-388.19 1063.43,-390.89 1062.88,-383.91"/>
</g>
<!-- Node21&#45;&gt;Node13 -->
<g id="edge33" class="edge">
<title>Node21&#45;&gt;Node13</title>
<path fill="none" stroke="#63b8ff" d="M1855.3,-274.53C1752.47,-262.06 1560.1,-238.88 1396,-220 1264.33,-204.85 1108.23,-187.79 1035.75,-179.91"/>
<polygon fill="#63b8ff" stroke="#63b8ff" points="1036.26,-176.45 1025.94,-178.85 1035.51,-183.41 1036.26,-176.45"/>
</g>
<!-- Node22&#45;&gt;Node2 -->
<g id="edge35" class="edge">
<title>Node22&#45;&gt;Node2</title>
<path fill="none" stroke="#63b8ff" d="M1061.09,-290.56C1033.82,-296.53 1005.92,-308.09 988,-330 978.24,-341.93 977.63,-359.68 979.09,-373.39"/>
<polygon fill="#63b8ff" stroke="#63b8ff" points="975.6,-373.71 980.59,-383.06 982.52,-372.64 975.6,-373.71"/>
</g>
<!-- Node22&#45;&gt;Node13 -->
<g id="edge36" class="edge">
<title>Node22&#45;&gt;Node13</title>
<path fill="none" stroke="#63b8ff" d="M1131.81,-274.66C1106.6,-256.39 1048.44,-214.23 1016.67,-191.21"/>
<polygon fill="#63b8ff" stroke="#63b8ff" points="1018.74,-188.38 1008.59,-185.35 1014.63,-194.05 1018.74,-188.38"/>
</g>
<!-- Node22&#45;&gt;Node23 -->
<g id="edge37" class="edge">
<title>Node22&#45;&gt;Node23</title>
<path fill="none" stroke="#63b8ff" d="M1061.23,-275.71C955.36,-265.74 772.94,-248.57 666.01,-238.5"/>
<polygon fill="#63b8ff" stroke="#63b8ff" points="666.42,-235.03 656.13,-237.57 665.76,-241.99 666.42,-235.03"/>
</g>
<!-- Node23&#45;&gt;Node2 -->
<g id="edge39" class="edge">
<title>Node23&#45;&gt;Node2</title>
<path fill="none" stroke="#63b8ff" d="M507.06,-235.27C383.04,-243.63 145.38,-261.33 133,-275 127.33,-281.26 127.54,-287.56 133,-294 182.36,-352.23 700.25,-381.09 902.61,-390.21"/>
<polygon fill="#63b8ff" stroke="#63b8ff" points="902.38,-393.7 912.52,-390.65 902.69,-386.71 902.38,-393.7"/>
</g>
<!-- Node23&#45;&gt;Node12 -->
<g id="edge38" class="edge">
<title>Node23&#45;&gt;Node12</title>
<path fill="none" stroke="#63b8ff" d="M581,-219.75C581,-213.27 581,-204.16 581,-195.9"/>
<polygon fill="#63b8ff" stroke="#63b8ff" points="584.5,-195.96 581,-185.96 577.5,-195.96 584.5,-195.96"/>
</g>
<!-- Node23&#45;&gt;Node13 -->
<g id="edge41" class="edge">
<title>Node23&#45;&gt;Node13</title>
<path fill="none" stroke="#63b8ff" d="M651.23,-219.51C738.42,-208.35 884.22,-189.68 954.58,-180.67"/>
<polygon fill="#63b8ff" stroke="#63b8ff" points="954.63,-184.2 964.11,-179.46 953.74,-177.25 954.63,-184.2"/>
</g>
<!-- Node23&#45;&gt;Node15 -->
<g id="edge40" class="edge">
<title>Node23&#45;&gt;Node15</title>
<path fill="none" stroke="#63b8ff" d="M596.55,-219.66C629.25,-201.07 705.44,-157.77 745.44,-135.03"/>
<polygon fill="#63b8ff" stroke="#63b8ff" points="746.96,-138.19 753.92,-130.21 743.5,-132.11 746.96,-138.19"/>
</g>
<!-- Node24&#45;&gt;Node2 -->
<g id="edge45" class="edge">
<title>Node24&#45;&gt;Node2</title>
<path fill="none" stroke="#63b8ff" d="M1452.43,-294.5C1418.62,-308.25 1350.8,-334.45 1291,-349 1214.77,-367.55 1125.92,-379.38 1063.3,-386.13"/>
<polygon fill="#63b8ff" stroke="#63b8ff" points="1063,-382.65 1053.42,-387.18 1063.73,-389.61 1063,-382.65"/>
</g>
<!-- Node24&#45;&gt;Node13 -->
<g id="edge46" class="edge">
<title>Node24&#45;&gt;Node13</title>
<path fill="none" stroke="#63b8ff" d="M1434.39,-274.57C1344.53,-254.31 1125.97,-205.03 1035.38,-184.6"/>
<polygon fill="#63b8ff" stroke="#63b8ff" points="1036.22,-181.21 1025.7,-182.42 1034.69,-188.04 1036.22,-181.21"/>
</g>
<!-- Node25&#45;&gt;Node2 -->
<g id="edge48" class="edge">
<title>Node25&#45;&gt;Node2</title>
<path fill="none" stroke="#63b8ff" d="M1244.79,-293.59C1161.31,-302.67 1039.35,-317.75 1021,-330 1005.32,-340.47 995.13,-359.81 989.29,-374.4"/>
<polygon fill="#63b8ff" stroke="#63b8ff" points="986.14,-372.81 986.03,-383.41 992.72,-375.19 986.14,-372.81"/>
</g>
<!-- Node25&#45;&gt;Node13 -->
<g id="edge49" class="edge">
<title>Node25&#45;&gt;Node13</title>
<path fill="none" stroke="#63b8ff" d="M1296.8,-274.57C1238.29,-255.36 1100.38,-210.09 1033.16,-188.03"/>
<polygon fill="#63b8ff" stroke="#63b8ff" points="1034.27,-184.71 1023.67,-184.91 1032.08,-191.36 1034.27,-184.71"/>
</g>
<!-- Node25&#45;&gt;Node26 -->
<g id="edge50" class="edge">
<title>Node25&#45;&gt;Node26</title>
<path fill="none" stroke="#63b8ff" d="M1244.92,-275.76C1241.57,-275.49 1238.25,-275.23 1235,-275 907.9,-251.4 825.52,-255.81 498,-239 462.12,-237.16 421.66,-234.98 390.67,-233.29"/>
<polygon fill="#63b8ff" stroke="#63b8ff" points="390.97,-229.8 380.79,-232.75 390.59,-236.79 390.97,-229.8"/>
</g>
<!-- Node26&#45;&gt;Node10 -->
<g id="edge53" class="edge">
<title>Node26&#45;&gt;Node10</title>
<path fill="none" stroke="#63b8ff" d="M300.95,-224.59C243.62,-216.76 136.98,-193.89 77,-129 52.39,-102.38 55.86,-56.65 60.49,-30.46"/>
<polygon fill="#63b8ff" stroke="#63b8ff" points="63.89,-31.33 62.44,-20.83 57.03,-29.94 63.89,-31.33"/>
</g>
<!-- Node26&#45;&gt;Node12 -->
<g id="edge51" class="edge">
<title>Node26&#45;&gt;Node12</title>
<path fill="none" stroke="#63b8ff" d="M379.26,-219.87C425.78,-209.63 502.56,-192.75 546.77,-183.03"/>
<polygon fill="#63b8ff" stroke="#63b8ff" points="547.3,-186.49 556.31,-180.93 545.8,-179.66 547.3,-186.49"/>
</g>
<!-- Node26&#45;&gt;Node16 -->
<g id="edge54" class="edge">
<title>Node26&#45;&gt;Node16</title>
<path fill="none" stroke="#63b8ff" d="M338.83,-219.6C336.78,-206.65 331.61,-182.27 320,-165 295.1,-127.96 252.48,-97.34 225.3,-80.25"/>
<polygon fill="#63b8ff" stroke="#63b8ff" points="227.36,-77.41 217,-75.17 223.7,-83.38 227.36,-77.41"/>
</g>
<!-- Node27 -->
<g id="node27" class="node">
<title>Node27</title>
<g id="a_node27"><a xlink:title=" ">
<polygon fill="#e0e0e0" stroke="#999999" points="311.5,-184 260.5,-184 260.5,-165 311.5,-165 311.5,-184"/>
<text text-anchor="middle" x="286" y="-172" font-family="Helvetica,sans-Serif" font-size="10.00">numeric</text>
</a>
</g>
</g>
<!-- Node26&#45;&gt;Node27 -->
<g id="edge52" class="edge">
<title>Node26&#45;&gt;Node27</title>
<path fill="none" stroke="#63b8ff" d="M331.08,-219.75C323.55,-212.35 312.53,-201.54 303.27,-192.45"/>
<polygon fill="#63b8ff" stroke="#63b8ff" points="305.78,-190.01 296.19,-185.5 300.88,-195 305.78,-190.01"/>
</g>
<!-- Node28&#45;&gt;Node2 -->
<g id="edge56" class="edge">
<title>Node28&#45;&gt;Node2</title>
<path fill="none" stroke="#63b8ff" d="M268.5,-294.45C338.03,-307.63 473.3,-332.47 589,-349 697.31,-364.47 822.99,-377.89 902.74,-385.83"/>
<polygon fill="#63b8ff" stroke="#63b8ff" points="902.36,-389.31 912.65,-386.82 903.05,-382.35 902.36,-389.31"/>
</g>
<!-- Node28&#45;&gt;Node13 -->
<g id="edge57" class="edge">
<title>Node28&#45;&gt;Node13</title>
<path fill="none" stroke="#63b8ff" d="M302.48,-275.8C427.38,-263.78 654.5,-241.68 663,-239 679.51,-233.8 680.62,-225.59 697,-220 785.69,-189.73 896.2,-180.03 954.54,-176.94"/>
<polygon fill="#63b8ff" stroke="#63b8ff" points="954.51,-180.44 964.32,-176.46 954.17,-173.45 954.51,-180.44"/>
</g>
<!-- Node28&#45;&gt;Node26 -->
<g id="edge58" class="edge">
<title>Node28&#45;&gt;Node26</title>
<path fill="none" stroke="#63b8ff" d="M242.02,-274.51C260.61,-266.16 288.54,-253.61 309.83,-244.05"/>
<polygon fill="#63b8ff" stroke="#63b8ff" points="311.21,-247.27 318.9,-239.98 308.34,-240.88 311.21,-247.27"/>
</g>
<!-- Node29&#45;&gt;Node2 -->
<g id="edge60" class="edge">
<title>Node29&#45;&gt;Node2</title>
<path fill="none" stroke="#63b8ff" d="M422.69,-294.48C479.69,-307.52 589.69,-332.02 684,-349 758,-362.33 842.82,-374.67 903.17,-382.96"/>
<polygon fill="#63b8ff" stroke="#63b8ff" points="902.64,-386.42 913.02,-384.31 903.59,-379.49 902.64,-386.42"/>
</g>
<!-- Node29&#45;&gt;Node13 -->
<g id="edge61" class="edge">
<title>Node29&#45;&gt;Node13</title>
<path fill="none" stroke="#63b8ff" d="M448,-275.36C532.56,-264.45 673.62,-245.69 697,-239 717.09,-233.25 720.01,-226.06 740,-220 814.01,-197.56 903.75,-185.18 954.63,-179.47"/>
<polygon fill="#63b8ff" stroke="#63b8ff" points="954.72,-182.99 964.28,-178.43 953.96,-176.03 954.72,-182.99"/>
</g>
<!-- Node29&#45;&gt;Node26 -->
<g id="edge62" class="edge">
<title>Node29&#45;&gt;Node26</title>
<path fill="none" stroke="#63b8ff" d="M376.73,-274.75C370.72,-267.5 361.99,-256.98 354.54,-248.02"/>
<polygon fill="#63b8ff" stroke="#63b8ff" points="357.47,-246.07 348.39,-240.61 352.08,-250.54 357.47,-246.07"/>
</g>
<!-- Node30&#45;&gt;Node2 -->
<g id="edge64" class="edge">
<title>Node30&#45;&gt;Node2</title>
<path fill="none" stroke="#63b8ff" d="M1581.73,-294.41C1529.17,-307.81 1425.35,-333.28 1336,-349 1242.89,-365.39 1134.93,-378.09 1063.16,-385.65"/>
<polygon fill="#63b8ff" stroke="#63b8ff" points="1063.05,-382.14 1053.47,-386.66 1063.78,-389.1 1063.05,-382.14"/>
</g>
<!-- Node30&#45;&gt;Node13 -->
<g id="edge65" class="edge">
<title>Node30&#45;&gt;Node13</title>
<path fill="none" stroke="#63b8ff" d="M1564.39,-274.52C1443.5,-253.5 1144.01,-201.42 1035.27,-182.5"/>
<polygon fill="#63b8ff" stroke="#63b8ff" points="1036.11,-179.1 1025.66,-180.83 1034.91,-185.99 1036.11,-179.1"/>
</g>
<!-- Node31&#45;&gt;Node2 -->
<g id="edge67" class="edge">
<title>Node31&#45;&gt;Node2</title>
<path fill="none" stroke="#63b8ff" d="M1723.91,-294.45C1653.15,-307.67 1515.08,-332.65 1397,-349 1281.25,-365.03 1146.61,-378.56 1063.09,-386.35"/>
<polygon fill="#63b8ff" stroke="#63b8ff" points="1062.79,-382.87 1053.16,-387.28 1063.44,-389.84 1062.79,-382.87"/>
</g>
<!-- Node31&#45;&gt;Node13 -->
<g id="edge68" class="edge">
<title>Node31&#45;&gt;Node13</title>
<path fill="none" stroke="#63b8ff" d="M1707.9,-274.54C1620.7,-262.17 1458.43,-239.22 1320,-220 1217.46,-205.76 1096.67,-189.31 1035.25,-180.96"/>
<polygon fill="#63b8ff" stroke="#63b8ff" points="1036.02,-177.53 1025.64,-179.66 1035.08,-184.47 1036.02,-177.53"/>
</g>
</g>
</svg>
