<?xml version="1.0" encoding="UTF-8" standalone="no"?>
<!DOCTYPE svg PUBLIC "-//W3C//DTD SVG 1.1//EN"
 "http://www.w3.org/Graphics/SVG/1.1/DTD/svg11.dtd">
<!-- Generated by graphviz version 7.0.5 (20221223.1930)
 -->
<!-- Title: model/pressurereferencebc.hpp Pages: 1 -->
<svg width="2058pt" height="467pt"
 viewBox="0.00 0.00 2058.00 467.00" xmlns="http://www.w3.org/2000/svg" xmlns:xlink="http://www.w3.org/1999/xlink">
<g id="graph0" class="graph" transform="scale(1 1) rotate(0) translate(4 463)">
<title>model/pressurereferencebc.hpp</title>
<!-- Node1 -->
<g id="node1" class="node">
<title>Node1</title>
<g id="a_node1"><a xlink:title="MODEL::PressureReferenceBC source file.">
<polygon fill="#999999" stroke="#666666" points="982,-459 830,-459 830,-440 982,-440 982,-459"/>
<text text-anchor="middle" x="906" y="-447" font-family="Helvetica,sans-Serif" font-size="10.00">model/pressurereferencebc.hpp</text>
</a>
</g>
</g>
<!-- Node2 -->
<g id="node2" class="node">
<title>Node2</title>
<g id="a_node2"><a xlink:href="sparsesystem_8hpp.html" target="_top" xlink:title="ALGEBRA::SparseSystem source file.">
<polygon fill="white" stroke="#666666" points="1049.5,-404 912.5,-404 912.5,-385 1049.5,-385 1049.5,-404"/>
<text text-anchor="middle" x="981" y="-392" font-family="Helvetica,sans-Serif" font-size="10.00">../algebra/sparsesystem.hpp</text>
</a>
</g>
</g>
<!-- Node1&#45;&gt;Node2 -->
<g id="edge1" class="edge">
<title>Node1&#45;&gt;Node2</title>
<path fill="none" stroke="#63b8ff" d="M918.72,-439.51C929.78,-431.7 946.04,-420.21 959.17,-410.93"/>
<polygon fill="#63b8ff" stroke="#63b8ff" points="961.08,-413.86 967.23,-405.23 957.04,-408.14 961.08,-413.86"/>
</g>
<!-- Node13 -->
<g id="node13" class="node">
<title>Node13</title>
<g id="a_node13"><a xlink:href="block_8hpp.html" target="_top" xlink:title="MODEL::Block source file.">
<polygon fill="white" stroke="#666666" points="1022,-184 964,-184 964,-165 1022,-165 1022,-184"/>
<text text-anchor="middle" x="993" y="-172" font-family="Helvetica,sans-Serif" font-size="10.00">block.hpp</text>
</a>
</g>
</g>
<!-- Node1&#45;&gt;Node13 -->
<g id="edge74" class="edge">
<title>Node1&#45;&gt;Node13</title>
<path fill="none" stroke="#63b8ff" d="M982.39,-445.3C1238.4,-434.08 2050,-394.27 2050,-340.5 2050,-340.5 2050,-340.5 2050,-283.5 2050,-179.38 1227.87,-174.91 1033.73,-175.31"/>
<polygon fill="#63b8ff" stroke="#63b8ff" points="1033.88,-171.81 1023.89,-175.33 1033.9,-178.81 1033.88,-171.81"/>
</g>
<!-- Node25 -->
<g id="node25" class="node">
<title>Node25</title>
<g id="a_node25"><a xlink:href="parameter_8hpp.html" target="_top" xlink:title="MODEL::Parameter source file.">
<polygon fill="white" stroke="#666666" points="378,-239 300,-239 300,-220 378,-220 378,-239"/>
<text text-anchor="middle" x="339" y="-227" font-family="Helvetica,sans-Serif" font-size="10.00">parameter.hpp</text>
</a>
</g>
</g>
<!-- Node1&#45;&gt;Node25 -->
<g id="edge75" class="edge">
<title>Node1&#45;&gt;Node25</title>
<path fill="none" stroke="#63b8ff" d="M829.75,-446.64C648.25,-440.31 200.09,-412.71 125,-294 120.49,-286.86 119.67,-281.55 125,-275 145.22,-250.14 231.88,-238.72 288.53,-233.82"/>
<polygon fill="#63b8ff" stroke="#63b8ff" points="288.59,-237.32 298.27,-233.02 288.02,-230.35 288.59,-237.32"/>
</g>
<!-- Node3 -->
<g id="node3" class="node">
<title>Node3</title>
<g id="a_node3"><a xlink:title=" ">
<polygon fill="#e0e0e0" stroke="#999999" points="1102,-349 1028,-349 1028,-330 1102,-330 1102,-349"/>
<text text-anchor="middle" x="1065" y="-337" font-family="Helvetica,sans-Serif" font-size="10.00">Eigen/Sparse</text>
</a>
</g>
</g>
<!-- Node2&#45;&gt;Node3 -->
<g id="edge2" class="edge">
<title>Node2&#45;&gt;Node3</title>
<path fill="none" stroke="#63b8ff" d="M995.25,-384.51C1007.88,-376.54 1026.56,-364.75 1041.41,-355.38"/>
<polygon fill="#63b8ff" stroke="#63b8ff" points="1043.09,-358.46 1049.68,-350.17 1039.36,-352.54 1043.09,-358.46"/>
</g>
<!-- Node4 -->
<g id="node4" class="node">
<title>Node4</title>
<g id="a_node4"><a xlink:title=" ">
<polygon fill="#e0e0e0" stroke="#999999" points="1208,-349 1120,-349 1120,-330 1208,-330 1208,-349"/>
<text text-anchor="middle" x="1164" y="-337" font-family="Helvetica,sans-Serif" font-size="10.00">Eigen/SparseLU</text>
</a>
</g>
</g>
<!-- Node2&#45;&gt;Node4 -->
<g id="edge3" class="edge">
<title>Node2&#45;&gt;Node4</title>
<path fill="none" stroke="#63b8ff" d="M1012.04,-384.51C1042.37,-375.73 1088.73,-362.3 1122.27,-352.59"/>
<polygon fill="#63b8ff" stroke="#63b8ff" points="1123.02,-356.01 1131.66,-349.87 1121.08,-349.29 1123.02,-356.01"/>
</g>
<!-- Node5 -->
<g id="node5" class="node">
<title>Node5</title>
<g id="a_node5"><a xlink:title=" ">
<polygon fill="#e0e0e0" stroke="#999999" points="1280,-349 1226,-349 1226,-330 1280,-330 1280,-349"/>
<text text-anchor="middle" x="1253" y="-337" font-family="Helvetica,sans-Serif" font-size="10.00">iostream</text>
</a>
</g>
</g>
<!-- Node2&#45;&gt;Node5 -->
<g id="edge4" class="edge">
<title>Node2&#45;&gt;Node5</title>
<path fill="none" stroke="#63b8ff" d="M1032.23,-384.53C1077.7,-376.42 1146.18,-363.82 1214.54,-349.45"/>
<polygon fill="#63b8ff" stroke="#63b8ff" points="1214.97,-352.93 1224.03,-347.44 1213.52,-346.09 1214.97,-352.93"/>
</g>
<!-- Node6 -->
<g id="node6" class="node">
<title>Node6</title>
<g id="a_node6"><a xlink:href="model_8hpp.html" target="_top" xlink:title="MODEL::Model source file.">
<polygon fill="white" stroke="#666666" points="789,-349 691,-349 691,-330 789,-330 789,-349"/>
<text text-anchor="middle" x="740" y="-337" font-family="Helvetica,sans-Serif" font-size="10.00">../model/model.hpp</text>
</a>
</g>
</g>
<!-- Node2&#45;&gt;Node6 -->
<g id="edge5" class="edge">
<title>Node2&#45;&gt;Node6</title>
<path fill="none" stroke="#63b8ff" d="M934.9,-384.51C892.22,-375.54 829.21,-361.71 786.43,-351.96"/>
<polygon fill="#63b8ff" stroke="#63b8ff" points="787.48,-348.61 776.95,-349.78 785.91,-355.43 787.48,-348.61"/>
</g>
<!-- Node6&#45;&gt;Node1 -->
<g id="edge58" class="edge">
<title>Node6&#45;&gt;Node1</title>
<path fill="none" stroke="#63b8ff" d="M753.77,-349.46C782.27,-368 847.96,-410.74 883,-433.54"/>
<polygon fill="#63b8ff" stroke="#63b8ff" points="880.86,-436.32 891.15,-438.84 884.67,-430.45 880.86,-436.32"/>
</g>
<!-- Node6&#45;&gt;Node2 -->
<g id="edge10" class="edge">
<title>Node6&#45;&gt;Node2</title>
<path fill="none" stroke="#63b8ff" d="M785.89,-349.45C828.5,-358.4 891.51,-372.22 934.36,-381.99"/>
<polygon fill="#63b8ff" stroke="#63b8ff" points="933.33,-385.35 943.86,-384.17 934.89,-378.53 933.33,-385.35"/>
</g>
<!-- Node7 -->
<g id="node7" class="node">
<title>Node7</title>
<g id="a_node7"><a xlink:title=" ">
<polygon fill="#e0e0e0" stroke="#999999" points="520,-294 464,-294 464,-275 520,-275 520,-294"/>
<text text-anchor="middle" x="492" y="-282" font-family="Helvetica,sans-Serif" font-size="10.00">algorithm</text>
</a>
</g>
</g>
<!-- Node6&#45;&gt;Node7 -->
<g id="edge6" class="edge">
<title>Node6&#45;&gt;Node7</title>
<path fill="none" stroke="#63b8ff" d="M696.31,-329.52C655.94,-321.18 594,-308.24 531.18,-294.45"/>
<polygon fill="#63b8ff" stroke="#63b8ff" points="532.27,-291.11 521.75,-292.37 530.76,-297.94 532.27,-291.11"/>
</g>
<!-- Node8 -->
<g id="node8" class="node">
<title>Node8</title>
<g id="a_node8"><a xlink:title=" ">
<polygon fill="#e0e0e0" stroke="#999999" points="567.5,-294 538.5,-294 538.5,-275 567.5,-275 567.5,-294"/>
<text text-anchor="middle" x="553" y="-282" font-family="Helvetica,sans-Serif" font-size="10.00">list</text>
</a>
</g>
</g>
<!-- Node6&#45;&gt;Node8 -->
<g id="edge7" class="edge">
<title>Node6&#45;&gt;Node8</title>
<path fill="none" stroke="#63b8ff" d="M703.25,-329.53C672.18,-321.72 626.3,-309.68 578.42,-294.57"/>
<polygon fill="#63b8ff" stroke="#63b8ff" points="579.57,-291.26 568.97,-291.55 577.43,-297.93 579.57,-291.26"/>
</g>
<!-- Node9 -->
<g id="node9" class="node">
<title>Node9</title>
<g id="a_node9"><a xlink:title=" ">
<polygon fill="#e0e0e0" stroke="#999999" points="636.5,-294 585.5,-294 585.5,-275 636.5,-275 636.5,-294"/>
<text text-anchor="middle" x="611" y="-282" font-family="Helvetica,sans-Serif" font-size="10.00">memory</text>
</a>
</g>
</g>
<!-- Node6&#45;&gt;Node9 -->
<g id="edge8" class="edge">
<title>Node6&#45;&gt;Node9</title>
<path fill="none" stroke="#63b8ff" d="M718.12,-329.51C697.51,-321.04 666.41,-308.27 643.02,-298.66"/>
<polygon fill="#63b8ff" stroke="#63b8ff" points="644.54,-295.5 633.96,-294.93 641.88,-301.97 644.54,-295.5"/>
</g>
<!-- Node10 -->
<g id="node10" class="node">
<title>Node10</title>
<g id="a_node10"><a xlink:title=" ">
<polygon fill="#e0e0e0" stroke="#999999" points="87,-19 43,-19 43,0 87,0 87,-19"/>
<text text-anchor="middle" x="65" y="-7" font-family="Helvetica,sans-Serif" font-size="10.00">vector</text>
</a>
</g>
</g>
<!-- Node6&#45;&gt;Node10 -->
<g id="edge9" class="edge">
<title>Node6&#45;&gt;Node10</title>
<path fill="none" stroke="#63b8ff" d="M690.71,-338.78C557.89,-338.95 195.08,-335.49 84,-294 40.16,-277.62 0,-277.3 0,-230.5 0,-230.5 0,-230.5 0,-118.5 0,-82.06 27.5,-47.34 46.72,-27.51"/>
<polygon fill="#63b8ff" stroke="#63b8ff" points="49.11,-30.07 53.77,-20.56 44.19,-25.09 49.11,-30.07"/>
</g>
<!-- Node11 -->
<g id="node11" class="node">
<title>Node11</title>
<g id="a_node11"><a xlink:href="bloodvessel_8hpp.html" target="_top" xlink:title="MODEL::BloodVessel source file.">
<polygon fill="white" stroke="#666666" points="870.5,-239 747.5,-239 747.5,-220 870.5,-220 870.5,-239"/>
<text text-anchor="middle" x="809" y="-227" font-family="Helvetica,sans-Serif" font-size="10.00">../model/bloodvessel.hpp</text>
</a>
</g>
</g>
<!-- Node6&#45;&gt;Node11 -->
<g id="edge11" class="edge">
<title>Node6&#45;&gt;Node11</title>
<path fill="none" stroke="#63b8ff" d="M742.22,-329.76C745.73,-317 753.36,-292.87 765,-275 771.71,-264.7 781.08,-254.82 789.44,-246.99"/>
<polygon fill="#63b8ff" stroke="#63b8ff" points="791.71,-249.67 796.83,-240.4 787.04,-244.45 791.71,-249.67"/>
</g>
<!-- Node6&#45;&gt;Node13 -->
<g id="edge69" class="edge">
<title>Node6&#45;&gt;Node13</title>
<path fill="none" stroke="#63b8ff" d="M789.25,-337.74C859.51,-335.49 983.11,-326.84 1011,-294 1034.82,-265.95 1017.14,-220.11 1003.93,-194.44"/>
<polygon fill="#63b8ff" stroke="#63b8ff" points="1007.09,-192.93 999.24,-185.82 1000.95,-196.28 1007.09,-192.93"/>
</g>
<!-- Node16 -->
<g id="node16" class="node">
<title>Node16</title>
<g id="a_node16"><a xlink:href="dofhandler_8hpp.html" target="_top" xlink:title="MODEL::DOFHandler source file.">
<polygon fill="white" stroke="#666666" points="240,-74 160,-74 160,-55 240,-55 240,-74"/>
<text text-anchor="middle" x="200" y="-62" font-family="Helvetica,sans-Serif" font-size="10.00">dofhandler.hpp</text>
</a>
</g>
</g>
<!-- Node6&#45;&gt;Node16 -->
<g id="edge71" class="edge">
<title>Node6&#45;&gt;Node16</title>
<path fill="none" stroke="#63b8ff" d="M690.92,-338.64C553.2,-338.53 170.67,-334.54 133,-294 118.35,-278.23 171.88,-136.87 192.36,-84.72"/>
<polygon fill="#63b8ff" stroke="#63b8ff" points="195.51,-86.25 195.93,-75.66 189,-83.68 195.51,-86.25"/>
</g>
<!-- Node18 -->
<g id="node18" class="node">
<title>Node18</title>
<g id="a_node18"><a xlink:href="node_8hpp.html" target="_top" xlink:title="MODEL::Node source file.">
<polygon fill="white" stroke="#666666" points="160,-129 104,-129 104,-110 160,-110 160,-129"/>
<text text-anchor="middle" x="132" y="-117" font-family="Helvetica,sans-Serif" font-size="10.00">node.hpp</text>
</a>
</g>
</g>
<!-- Node6&#45;&gt;Node18 -->
<g id="edge72" class="edge">
<title>Node6&#45;&gt;Node18</title>
<path fill="none" stroke="#63b8ff" d="M690.58,-338.84C547.41,-339.33 140.01,-336.88 100,-294 59.48,-250.56 98.72,-173.37 120.13,-138.49"/>
<polygon fill="#63b8ff" stroke="#63b8ff" points="122.87,-140.7 125.28,-130.38 116.96,-136.95 122.87,-140.7"/>
</g>
<!-- Node19 -->
<g id="node19" class="node">
<title>Node19</title>
<g id="a_node19"><a xlink:href="bloodvesseljunction_8hpp.html" target="_top" xlink:title="MODEL::BloodVesselJunction source file.">
<polygon fill="white" stroke="#666666" points="1002.5,-294 845.5,-294 845.5,-275 1002.5,-275 1002.5,-294"/>
<text text-anchor="middle" x="924" y="-282" font-family="Helvetica,sans-Serif" font-size="10.00">../model/bloodvesseljunction.hpp</text>
</a>
</g>
</g>
<!-- Node6&#45;&gt;Node19 -->
<g id="edge26" class="edge">
<title>Node6&#45;&gt;Node19</title>
<path fill="none" stroke="#63b8ff" d="M771.21,-329.51C801.7,-320.73 848.32,-307.3 882.04,-297.59"/>
<polygon fill="#63b8ff" stroke="#63b8ff" points="882.85,-301 891.49,-294.87 880.91,-294.27 882.85,-301"/>
</g>
<!-- Node20 -->
<g id="node20" class="node">
<title>Node20</title>
<g id="a_node20"><a xlink:href="blocktype_8hpp.html" target="_top" xlink:title="MODEL::BlockType source file.">
<polygon fill="white" stroke="#666666" points="965,-239 889,-239 889,-220 965,-220 965,-239"/>
<text text-anchor="middle" x="927" y="-227" font-family="Helvetica,sans-Serif" font-size="10.00">blocktype.hpp</text>
</a>
</g>
</g>
<!-- Node6&#45;&gt;Node20 -->
<g id="edge70" class="edge">
<title>Node6&#45;&gt;Node20</title>
<path fill="none" stroke="#63b8ff" d="M752.4,-329.54C770.39,-316.73 804.95,-292.76 836,-275 855.59,-263.79 878.42,-252.64 896.31,-244.3"/>
<polygon fill="#63b8ff" stroke="#63b8ff" points="897.74,-247.49 905.36,-240.13 894.81,-241.13 897.74,-247.49"/>
</g>
<!-- Node21 -->
<g id="node21" class="node">
<title>Node21</title>
<g id="a_node21"><a xlink:href="closedloop_r_c_rbc_8hpp.html" target="_top" xlink:title="MODEL::ClosedLoopRCRBC source file.">
<polygon fill="white" stroke="#666666" points="1983.5,-294 1834.5,-294 1834.5,-275 1983.5,-275 1983.5,-294"/>
<text text-anchor="middle" x="1909" y="-282" font-family="Helvetica,sans-Serif" font-size="10.00">../model/closedloopRCRbc.hpp</text>
</a>
</g>
</g>
<!-- Node6&#45;&gt;Node21 -->
<g id="edge31" class="edge">
<title>Node6&#45;&gt;Node21</title>
<path fill="none" stroke="#63b8ff" d="M789.21,-336.88C970,-330.89 1598.16,-309.49 1823,-294.16"/>
<polygon fill="#63b8ff" stroke="#63b8ff" points="1823.12,-297.66 1832.85,-293.47 1822.63,-290.67 1823.12,-297.66"/>
</g>
<!-- Node22 -->
<g id="node22" class="node">
<title>Node22</title>
<g id="a_node22"><a xlink:href="closedloopcoronarybc_8hpp.html" target="_top" xlink:title="MODEL::ClosedLoopCoronaryBC source file.">
<polygon fill="white" stroke="#666666" points="1224.5,-294 1059.5,-294 1059.5,-275 1224.5,-275 1224.5,-294"/>
<text text-anchor="middle" x="1142" y="-282" font-family="Helvetica,sans-Serif" font-size="10.00">../model/closedloopcoronarybc.hpp</text>
</a>
</g>
</g>
<!-- Node6&#45;&gt;Node22 -->
<g id="edge34" class="edge">
<title>Node6&#45;&gt;Node22</title>
<path fill="none" stroke="#63b8ff" d="M789.29,-332C857.48,-323.01 981.34,-306.68 1062.64,-295.96"/>
<polygon fill="#63b8ff" stroke="#63b8ff" points="1062.86,-299.46 1072.32,-294.69 1061.95,-292.52 1062.86,-299.46"/>
</g>
<!-- Node23 -->
<g id="node23" class="node">
<title>Node23</title>
<g id="a_node23"><a xlink:href="closedloopheartpulmonary_8hpp.html" target="_top" xlink:title="MODEL::ClosedLoopHeartPulmonary source file.">
<polygon fill="white" stroke="#666666" points="652.5,-239 505.5,-239 505.5,-220 652.5,-220 652.5,-239"/>
<text text-anchor="middle" x="579" y="-227" font-family="Helvetica,sans-Serif" font-size="10.00">closedloopheartpulmonary.hpp</text>
</a>
</g>
</g>
<!-- Node6&#45;&gt;Node23 -->
<g id="edge42" class="edge">
<title>Node6&#45;&gt;Node23</title>
<path fill="none" stroke="#63b8ff" d="M733.36,-329.66C723,-316.34 701.77,-290.99 679,-275 660.06,-261.7 636.51,-250.99 617.02,-243.41"/>
<polygon fill="#63b8ff" stroke="#63b8ff" points="618.39,-240.18 607.8,-239.95 615.93,-246.73 618.39,-240.18"/>
</g>
<!-- Node24 -->
<g id="node24" class="node">
<title>Node24</title>
<g id="a_node24"><a xlink:href="flowreferencebc_8hpp.html" target="_top" xlink:title="MODEL::FlowReferenceBC source file.">
<polygon fill="white" stroke="#666666" points="1383,-294 1243,-294 1243,-275 1383,-275 1383,-294"/>
<text text-anchor="middle" x="1313" y="-282" font-family="Helvetica,sans-Serif" font-size="10.00">../model/flowreferencebc.hpp</text>
</a>
</g>
</g>
<!-- Node6&#45;&gt;Node24 -->
<g id="edge43" class="edge">
<title>Node6&#45;&gt;Node24</title>
<path fill="none" stroke="#63b8ff" d="M789.36,-334.31C876.2,-326.87 1062.3,-310.68 1231.4,-294.14"/>
<polygon fill="#63b8ff" stroke="#63b8ff" points="1231.65,-297.63 1241.26,-293.17 1230.97,-290.67 1231.65,-297.63"/>
</g>
<!-- Node6&#45;&gt;Node25 -->
<g id="edge73" class="edge">
<title>Node6&#45;&gt;Node25</title>
<path fill="none" stroke="#63b8ff" d="M728.16,-329.61C706.86,-313.8 662.69,-281.79 645,-275 559.32,-242.08 451.59,-233.28 389.48,-231.07"/>
<polygon fill="#63b8ff" stroke="#63b8ff" points="389.68,-227.58 379.57,-230.77 389.46,-234.57 389.68,-227.58"/>
</g>
<!-- Node27 -->
<g id="node27" class="node">
<title>Node27</title>
<g id="a_node27"><a xlink:href="junction_8hpp.html" target="_top" xlink:title="MODEL::Junction source file.">
<polygon fill="white" stroke="#666666" points="1506.5,-294 1401.5,-294 1401.5,-275 1506.5,-275 1506.5,-294"/>
<text text-anchor="middle" x="1454" y="-282" font-family="Helvetica,sans-Serif" font-size="10.00">../model/junction.hpp</text>
</a>
</g>
</g>
<!-- Node6&#45;&gt;Node27 -->
<g id="edge51" class="edge">
<title>Node6&#45;&gt;Node27</title>
<path fill="none" stroke="#63b8ff" d="M789.17,-336.29C896.25,-331.23 1158.76,-317.49 1389.93,-294.13"/>
<polygon fill="#63b8ff" stroke="#63b8ff" points="1390.16,-297.63 1399.76,-293.13 1389.45,-290.66 1390.16,-297.63"/>
</g>
<!-- Node28 -->
<g id="node28" class="node">
<title>Node28</title>
<g id="a_node28"><a xlink:href="openloopcoronarybc_8hpp.html" target="_top" xlink:title="MODEL::OpenLoopCoronaryBC source file.">
<polygon fill="white" stroke="#666666" points="300,-294 142,-294 142,-275 300,-275 300,-294"/>
<text text-anchor="middle" x="221" y="-282" font-family="Helvetica,sans-Serif" font-size="10.00">../model/openloopcoronarybc.hpp</text>
</a>
</g>
</g>
<!-- Node6&#45;&gt;Node28 -->
<g id="edge54" class="edge">
<title>Node6&#45;&gt;Node28</title>
<path fill="none" stroke="#63b8ff" d="M690.71,-333.47C603.71,-324.58 421.73,-306 311.57,-294.75"/>
<polygon fill="#63b8ff" stroke="#63b8ff" points="311.97,-291.27 301.66,-293.74 311.25,-298.24 311.97,-291.27"/>
</g>
<!-- Node29 -->
<g id="node29" class="node">
<title>Node29</title>
<g id="a_node29"><a xlink:href="resistancebc_8hpp.html" target="_top" xlink:title="MODEL::ResistanceBC source file.">
<polygon fill="white" stroke="#666666" points="445.5,-294 318.5,-294 318.5,-275 445.5,-275 445.5,-294"/>
<text text-anchor="middle" x="382" y="-282" font-family="Helvetica,sans-Serif" font-size="10.00">../model/resistancebc.hpp</text>
</a>
</g>
</g>
<!-- Node6&#45;&gt;Node29 -->
<g id="edge59" class="edge">
<title>Node6&#45;&gt;Node29</title>
<path fill="none" stroke="#63b8ff" d="M690.6,-331.19C629.15,-322.09 523.78,-306.49 453.51,-296.09"/>
<polygon fill="#63b8ff" stroke="#63b8ff" points="454.45,-292.69 444.04,-294.69 453.42,-299.61 454.45,-292.69"/>
</g>
<!-- Node30 -->
<g id="node30" class="node">
<title>Node30</title>
<g id="a_node30"><a xlink:href="resistivejunction_8hpp.html" target="_top" xlink:title="MODEL::ResistiveJunction source file.">
<polygon fill="white" stroke="#666666" points="1667,-294 1525,-294 1525,-275 1667,-275 1667,-294"/>
<text text-anchor="middle" x="1596" y="-282" font-family="Helvetica,sans-Serif" font-size="10.00">../model/resistivejunction.hpp</text>
</a>
</g>
</g>
<!-- Node6&#45;&gt;Node30 -->
<g id="edge63" class="edge">
<title>Node6&#45;&gt;Node30</title>
<path fill="none" stroke="#63b8ff" d="M789.08,-336.51C910.15,-331.44 1232.97,-316.82 1513.69,-294.15"/>
<polygon fill="#63b8ff" stroke="#63b8ff" points="1513.72,-297.66 1523.41,-293.36 1513.16,-290.68 1513.72,-297.66"/>
</g>
<!-- Node31 -->
<g id="node31" class="node">
<title>Node31</title>
<g id="a_node31"><a xlink:href="windkesselbc_8hpp.html" target="_top" xlink:title="MODEL::WindkesselBC source file.">
<polygon fill="white" stroke="#666666" points="1816.5,-294 1685.5,-294 1685.5,-275 1816.5,-275 1816.5,-294"/>
<text text-anchor="middle" x="1751" y="-282" font-family="Helvetica,sans-Serif" font-size="10.00">../model/windkesselbc.hpp</text>
</a>
</g>
</g>
<!-- Node6&#45;&gt;Node31 -->
<g id="edge66" class="edge">
<title>Node6&#45;&gt;Node31</title>
<path fill="none" stroke="#63b8ff" d="M789.46,-336.58C953.46,-330.13 1479.53,-308.92 1673.7,-294.11"/>
<polygon fill="#63b8ff" stroke="#63b8ff" points="1673.97,-297.6 1683.66,-293.32 1673.42,-290.62 1673.97,-297.6"/>
</g>
<!-- Node11&#45;&gt;Node2 -->
<g id="edge13" class="edge">
<title>Node11&#45;&gt;Node2</title>
<path fill="none" stroke="#63b8ff" d="M811,-239.12C814.37,-252.15 822.19,-277.13 836,-294 867.87,-332.96 918.83,-363 951.07,-379.46"/>
<polygon fill="#63b8ff" stroke="#63b8ff" points="949.37,-382.52 959.88,-383.84 952.48,-376.25 949.37,-382.52"/>
</g>
<!-- Node12 -->
<g id="node12" class="node">
<title>Node12</title>
<g id="a_node12"><a xlink:title=" ">
<polygon fill="#e0e0e0" stroke="#999999" points="602,-184 556,-184 556,-165 602,-165 602,-184"/>
<text text-anchor="middle" x="579" y="-172" font-family="Helvetica,sans-Serif" font-size="10.00">math.h</text>
</a>
</g>
</g>
<!-- Node11&#45;&gt;Node12 -->
<g id="edge12" class="edge">
<title>Node11&#45;&gt;Node12</title>
<path fill="none" stroke="#63b8ff" d="M769.98,-219.51C726.05,-209.39 655.34,-193.09 613.4,-183.43"/>
<polygon fill="#63b8ff" stroke="#63b8ff" points="614.39,-180.06 603.86,-181.23 612.81,-186.88 614.39,-180.06"/>
</g>
<!-- Node11&#45;&gt;Node13 -->
<g id="edge14" class="edge">
<title>Node11&#45;&gt;Node13</title>
<path fill="none" stroke="#63b8ff" d="M840.21,-219.51C871.26,-210.57 919.01,-196.81 952.86,-187.06"/>
<polygon fill="#63b8ff" stroke="#63b8ff" points="953.67,-190.47 962.31,-184.34 951.73,-183.74 953.67,-190.47"/>
</g>
<!-- Node13&#45;&gt;Node2 -->
<g id="edge17" class="edge">
<title>Node13&#45;&gt;Node2</title>
<path fill="none" stroke="#63b8ff" d="M1022.26,-178.03C1097.76,-184.6 1305.3,-202.86 1478,-220 1708.11,-242.84 2146.08,-120.69 1993,-294 1931.62,-363.49 1289.48,-385.94 1061.08,-391.75"/>
<polygon fill="#63b8ff" stroke="#63b8ff" points="1061.3,-388.25 1051.39,-391.99 1061.47,-395.24 1061.3,-388.25"/>
</g>
<!-- Node13&#45;&gt;Node10 -->
<g id="edge16" class="edge">
<title>Node13&#45;&gt;Node10</title>
<path fill="none" stroke="#63b8ff" d="M963.86,-173.02C813.33,-170.43 129.38,-157.16 95,-129 65.94,-105.2 62.72,-57.68 63.5,-30.6"/>
<polygon fill="#63b8ff" stroke="#63b8ff" points="66.98,-31.13 64.01,-20.96 59.99,-30.77 66.98,-31.13"/>
</g>
<!-- Node14 -->
<g id="node14" class="node">
<title>Node14</title>
<g id="a_node14"><a xlink:title=" ">
<polygon fill="#e0e0e0" stroke="#999999" points="598.5,-19 563.5,-19 563.5,0 598.5,0 598.5,-19"/>
<text text-anchor="middle" x="581" y="-7" font-family="Helvetica,sans-Serif" font-size="10.00">map</text>
</a>
</g>
</g>
<!-- Node13&#45;&gt;Node14 -->
<g id="edge15" class="edge">
<title>Node13&#45;&gt;Node14</title>
<path fill="none" stroke="#63b8ff" d="M978.09,-164.71C955.6,-151.69 911.44,-126.97 872,-110 778.3,-69.68 662.38,-34.12 609.59,-18.68"/>
<polygon fill="#63b8ff" stroke="#63b8ff" points="610.77,-15.37 600.19,-15.95 608.82,-22.1 610.77,-15.37"/>
</g>
<!-- Node15 -->
<g id="node15" class="node">
<title>Node15</title>
<g id="a_node15"><a xlink:href="state_8hpp.html" target="_top" xlink:title="ALGEBRA::State source file.">
<polygon fill="white" stroke="#666666" points="818,-129 720,-129 720,-110 818,-110 818,-129"/>
<text text-anchor="middle" x="769" y="-117" font-family="Helvetica,sans-Serif" font-size="10.00">../algebra/state.hpp</text>
</a>
</g>
</g>
<!-- Node13&#45;&gt;Node15 -->
<g id="edge18" class="edge">
<title>Node13&#45;&gt;Node15</title>
<path fill="none" stroke="#63b8ff" d="M963.72,-166.57C926.73,-157.82 862.56,-142.64 818.05,-132.1"/>
<polygon fill="#63b8ff" stroke="#63b8ff" points="818.91,-128.71 808.37,-129.82 817.3,-135.52 818.91,-128.71"/>
</g>
<!-- Node13&#45;&gt;Node16 -->
<g id="edge19" class="edge">
<title>Node13&#45;&gt;Node16</title>
<path fill="none" stroke="#63b8ff" d="M975.12,-164.64C945.27,-150.31 883.03,-122.42 827,-110 717.76,-85.79 381.22,-71.81 251.62,-67.21"/>
<polygon fill="#63b8ff" stroke="#63b8ff" points="252.09,-63.72 241.98,-66.87 251.85,-70.72 252.09,-63.72"/>
</g>
<!-- Node13&#45;&gt;Node18 -->
<g id="edge23" class="edge">
<title>Node13&#45;&gt;Node18</title>
<path fill="none" stroke="#63b8ff" d="M963.86,-171.71C835.3,-163.79 318.72,-131.99 171.4,-122.93"/>
<polygon fill="#63b8ff" stroke="#63b8ff" points="171.96,-119.45 161.77,-122.33 171.53,-126.44 171.96,-119.45"/>
</g>
<!-- Node16&#45;&gt;Node10 -->
<g id="edge22" class="edge">
<title>Node16&#45;&gt;Node10</title>
<path fill="none" stroke="#63b8ff" d="M177.1,-54.51C155.31,-45.96 122.3,-33 97.74,-23.35"/>
<polygon fill="#63b8ff" stroke="#63b8ff" points="99.11,-20.13 88.52,-19.74 96.55,-26.65 99.11,-20.13"/>
</g>
<!-- Node16&#45;&gt;Node14 -->
<g id="edge20" class="edge">
<title>Node16&#45;&gt;Node14</title>
<path fill="none" stroke="#63b8ff" d="M240.41,-57.88C317.74,-47.12 484.91,-23.87 552.14,-14.52"/>
<polygon fill="#63b8ff" stroke="#63b8ff" points="552.2,-18.04 561.63,-13.2 551.24,-11.11 552.2,-18.04"/>
</g>
<!-- Node17 -->
<g id="node17" class="node">
<title>Node17</title>
<g id="a_node17"><a xlink:title=" ">
<polygon fill="#e0e0e0" stroke="#999999" points="162.5,-19 121.5,-19 121.5,0 162.5,0 162.5,-19"/>
<text text-anchor="middle" x="142" y="-7" font-family="Helvetica,sans-Serif" font-size="10.00">string</text>
</a>
</g>
</g>
<!-- Node16&#45;&gt;Node17 -->
<g id="edge21" class="edge">
<title>Node16&#45;&gt;Node17</title>
<path fill="none" stroke="#63b8ff" d="M190.16,-54.51C181.95,-47 170.02,-36.1 160.09,-27.03"/>
<polygon fill="#63b8ff" stroke="#63b8ff" points="162.55,-24.54 152.81,-20.38 157.83,-29.71 162.55,-24.54"/>
</g>
<!-- Node18&#45;&gt;Node16 -->
<g id="edge25" class="edge">
<title>Node18&#45;&gt;Node16</title>
<path fill="none" stroke="#63b8ff" d="M143.54,-109.51C153.46,-101.77 168.01,-90.43 179.86,-81.2"/>
<polygon fill="#63b8ff" stroke="#63b8ff" points="181.71,-84.2 187.44,-75.29 177.4,-78.68 181.71,-84.2"/>
</g>
<!-- Node18&#45;&gt;Node17 -->
<g id="edge24" class="edge">
<title>Node18&#45;&gt;Node17</title>
<path fill="none" stroke="#63b8ff" d="M132.82,-109.66C134.4,-92.57 137.92,-54.61 140.11,-30.92"/>
<polygon fill="#63b8ff" stroke="#63b8ff" points="143.59,-31.25 141.03,-20.97 136.62,-30.6 143.59,-31.25"/>
</g>
<!-- Node19&#45;&gt;Node2 -->
<g id="edge27" class="edge">
<title>Node19&#45;&gt;Node2</title>
<path fill="none" stroke="#63b8ff" d="M926.53,-294.46C930.27,-307.08 937.95,-330.59 948,-349 953.12,-358.38 960.01,-368 966.17,-375.88"/>
<polygon fill="#63b8ff" stroke="#63b8ff" points="963.43,-378.05 972.44,-383.62 968.86,-373.65 963.43,-378.05"/>
</g>
<!-- Node19&#45;&gt;Node11 -->
<g id="edge30" class="edge">
<title>Node19&#45;&gt;Node11</title>
<path fill="none" stroke="#63b8ff" d="M904.49,-274.51C886.37,-266.16 859.15,-253.61 838.4,-244.05"/>
<polygon fill="#63b8ff" stroke="#63b8ff" points="840.14,-241 829.59,-239.99 837.21,-247.36 840.14,-241"/>
</g>
<!-- Node19&#45;&gt;Node13 -->
<g id="edge28" class="edge">
<title>Node19&#45;&gt;Node13</title>
<path fill="none" stroke="#63b8ff" d="M937.35,-274.81C948.66,-266.79 964.51,-253.9 974,-239 982.43,-225.76 987.27,-208.6 989.96,-195.46"/>
<polygon fill="#63b8ff" stroke="#63b8ff" points="993.36,-196.29 991.65,-185.84 986.47,-195.08 993.36,-196.29"/>
</g>
<!-- Node19&#45;&gt;Node20 -->
<g id="edge29" class="edge">
<title>Node19&#45;&gt;Node20</title>
<path fill="none" stroke="#63b8ff" d="M924.5,-274.75C924.86,-268.27 925.38,-259.16 925.85,-250.9"/>
<polygon fill="#63b8ff" stroke="#63b8ff" points="929.34,-251.13 926.41,-240.95 922.35,-250.74 929.34,-251.13"/>
</g>
<!-- Node21&#45;&gt;Node2 -->
<g id="edge32" class="edge">
<title>Node21&#45;&gt;Node2</title>
<path fill="none" stroke="#63b8ff" d="M1852.57,-294.47C1768.2,-307.68 1604.1,-332.56 1464,-349 1322.55,-365.6 1157.19,-379.69 1061.25,-387.34"/>
<polygon fill="#63b8ff" stroke="#63b8ff" points="1061.1,-383.84 1051.41,-388.12 1061.65,-390.82 1061.1,-383.84"/>
</g>
<!-- Node21&#45;&gt;Node13 -->
<g id="edge33" class="edge">
<title>Node21&#45;&gt;Node13</title>
<path fill="none" stroke="#63b8ff" d="M1835.98,-274.5C1734.58,-262.05 1545.4,-238.94 1384,-220 1256.09,-204.99 1104.55,-187.95 1033.53,-180.02"/>
<polygon fill="#63b8ff" stroke="#63b8ff" points="1034.27,-176.58 1023.94,-178.95 1033.49,-183.54 1034.27,-176.58"/>
</g>
<!-- Node22&#45;&gt;Node2 -->
<g id="edge35" class="edge">
<title>Node22&#45;&gt;Node2</title>
<path fill="none" stroke="#63b8ff" d="M1059.09,-290.56C1031.82,-296.53 1003.92,-308.09 986,-330 976.24,-341.93 975.63,-359.68 977.09,-373.39"/>
<polygon fill="#63b8ff" stroke="#63b8ff" points="973.6,-373.71 978.59,-383.06 980.52,-372.64 973.6,-373.71"/>
</g>
<!-- Node22&#45;&gt;Node13 -->
<g id="edge36" class="edge">
<title>Node22&#45;&gt;Node13</title>
<path fill="none" stroke="#63b8ff" d="M1129.81,-274.66C1104.6,-256.39 1046.44,-214.23 1014.67,-191.21"/>
<polygon fill="#63b8ff" stroke="#63b8ff" points="1016.74,-188.38 1006.59,-185.35 1012.63,-194.05 1016.74,-188.38"/>
</g>
<!-- Node22&#45;&gt;Node23 -->
<g id="edge37" class="edge">
<title>Node22&#45;&gt;Node23</title>
<path fill="none" stroke="#63b8ff" d="M1059.23,-275.71C953.36,-265.74 770.94,-248.57 664.01,-238.5"/>
<polygon fill="#63b8ff" stroke="#63b8ff" points="664.42,-235.03 654.13,-237.57 663.76,-241.99 664.42,-235.03"/>
</g>
<!-- Node23&#45;&gt;Node2 -->
<g id="edge39" class="edge">
<title>Node23&#45;&gt;Node2</title>
<path fill="none" stroke="#63b8ff" d="M505.39,-235.28C381.93,-243.66 145.32,-261.39 133,-275 127.33,-281.26 127.54,-287.56 133,-294 182.21,-352.12 698.9,-381.05 900.8,-390.2"/>
<polygon fill="#63b8ff" stroke="#63b8ff" points="900.54,-393.69 910.68,-390.64 900.85,-386.7 900.54,-393.69"/>
</g>
<!-- Node23&#45;&gt;Node12 -->
<g id="edge38" class="edge">
<title>Node23&#45;&gt;Node12</title>
<path fill="none" stroke="#63b8ff" d="M579,-219.75C579,-213.27 579,-204.16 579,-195.9"/>
<polygon fill="#63b8ff" stroke="#63b8ff" points="582.5,-195.96 579,-185.96 575.5,-195.96 582.5,-195.96"/>
</g>
<!-- Node23&#45;&gt;Node13 -->
<g id="edge41" class="edge">
<title>Node23&#45;&gt;Node13</title>
<path fill="none" stroke="#63b8ff" d="M649.23,-219.51C736.42,-208.35 882.22,-189.68 952.58,-180.67"/>
<polygon fill="#63b8ff" stroke="#63b8ff" points="952.63,-184.2 962.11,-179.46 951.74,-177.25 952.63,-184.2"/>
</g>
<!-- Node23&#45;&gt;Node15 -->
<g id="edge40" class="edge">
<title>Node23&#45;&gt;Node15</title>
<path fill="none" stroke="#63b8ff" d="M594.55,-219.66C627.25,-201.07 703.44,-157.77 743.44,-135.03"/>
<polygon fill="#63b8ff" stroke="#63b8ff" points="744.96,-138.19 751.92,-130.21 741.5,-132.11 744.96,-138.19"/>
</g>
<!-- Node24&#45;&gt;Node2 -->
<g id="edge44" class="edge">
<title>Node24&#45;&gt;Node2</title>
<path fill="none" stroke="#63b8ff" d="M1242.64,-292.97C1161.62,-302.07 1037.27,-317.74 1019,-330 1003.34,-340.5 993.15,-359.84 987.3,-374.42"/>
<polygon fill="#63b8ff" stroke="#63b8ff" points="984.16,-372.82 984.03,-383.42 990.74,-375.21 984.16,-372.82"/>
</g>
<!-- Node24&#45;&gt;Node13 -->
<g id="edge45" class="edge">
<title>Node24&#45;&gt;Node13</title>
<path fill="none" stroke="#63b8ff" d="M1286.54,-274.57C1229.64,-255.36 1095.49,-210.09 1030.12,-188.03"/>
<polygon fill="#63b8ff" stroke="#63b8ff" points="1031.52,-184.81 1020.92,-184.92 1029.28,-191.44 1031.52,-184.81"/>
</g>
<!-- Node24&#45;&gt;Node25 -->
<g id="edge46" class="edge">
<title>Node24&#45;&gt;Node25</title>
<path fill="none" stroke="#63b8ff" d="M1242.78,-275.81C1239.48,-275.52 1236.2,-275.25 1233,-275 906.03,-249.67 823.51,-255.86 496,-239 460.47,-237.17 420.42,-235 389.66,-233.31"/>
<polygon fill="#63b8ff" stroke="#63b8ff" points="390.04,-229.83 379.87,-232.77 389.66,-236.82 390.04,-229.83"/>
</g>
<!-- Node25&#45;&gt;Node10 -->
<g id="edge49" class="edge">
<title>Node25&#45;&gt;Node10</title>
<path fill="none" stroke="#63b8ff" d="M299.62,-224.48C242.39,-216.53 136.57,-193.53 77,-129 52.41,-102.36 55.87,-56.64 60.5,-30.46"/>
<polygon fill="#63b8ff" stroke="#63b8ff" points="63.89,-31.32 62.44,-20.83 57.03,-29.94 63.89,-31.32"/>
</g>
<!-- Node25&#45;&gt;Node12 -->
<g id="edge47" class="edge">
<title>Node25&#45;&gt;Node12</title>
<path fill="none" stroke="#63b8ff" d="M378.36,-219.81C424.63,-209.59 500.66,-192.8 544.64,-183.09"/>
<polygon fill="#63b8ff" stroke="#63b8ff" points="545.13,-186.56 554.14,-180.99 543.62,-179.73 545.13,-186.56"/>
</g>
<!-- Node25&#45;&gt;Node16 -->
<g id="edge50" class="edge">
<title>Node25&#45;&gt;Node16</title>
<path fill="none" stroke="#63b8ff" d="M337.82,-219.6C335.76,-206.66 330.57,-182.29 319,-165 294.3,-128.09 252.03,-97.44 225.09,-80.3"/>
<polygon fill="#63b8ff" stroke="#63b8ff" points="227.21,-77.5 216.86,-75.21 223.52,-83.45 227.21,-77.5"/>
</g>
<!-- Node26 -->
<g id="node26" class="node">
<title>Node26</title>
<g id="a_node26"><a xlink:title=" ">
<polygon fill="#e0e0e0" stroke="#999999" points="310.5,-184 259.5,-184 259.5,-165 310.5,-165 310.5,-184"/>
<text text-anchor="middle" x="285" y="-172" font-family="Helvetica,sans-Serif" font-size="10.00">numeric</text>
</a>
</g>
</g>
<!-- Node25&#45;&gt;Node26 -->
<g id="edge48" class="edge">
<title>Node25&#45;&gt;Node26</title>
<path fill="none" stroke="#63b8ff" d="M330.08,-219.75C322.55,-212.35 311.53,-201.54 302.27,-192.45"/>
<polygon fill="#63b8ff" stroke="#63b8ff" points="304.78,-190.01 295.19,-185.5 299.88,-195 304.78,-190.01"/>
</g>
<!-- Node27&#45;&gt;Node2 -->
<g id="edge52" class="edge">
<title>Node27&#45;&gt;Node2</title>
<path fill="none" stroke="#63b8ff" d="M1434.91,-294.47C1404.64,-308.31 1343.5,-334.77 1289,-349 1212.97,-368.85 1123.91,-380.51 1061.17,-386.88"/>
<polygon fill="#63b8ff" stroke="#63b8ff" points="1060.88,-383.39 1051.28,-387.86 1061.57,-390.36 1060.88,-383.39"/>
</g>
<!-- Node27&#45;&gt;Node13 -->
<g id="edge53" class="edge">
<title>Node27&#45;&gt;Node13</title>
<path fill="none" stroke="#63b8ff" d="M1415.88,-274.57C1329.89,-254.43 1121.49,-205.6 1033.39,-184.96"/>
<polygon fill="#63b8ff" stroke="#63b8ff" points="1034.28,-181.58 1023.74,-182.7 1032.68,-188.39 1034.28,-181.58"/>
</g>
<!-- Node28&#45;&gt;Node2 -->
<g id="edge55" class="edge">
<title>Node28&#45;&gt;Node2</title>
<path fill="none" stroke="#63b8ff" d="M267.37,-294.45C336.71,-307.64 471.61,-332.49 587,-349 695.3,-364.5 820.99,-377.9 900.73,-385.84"/>
<polygon fill="#63b8ff" stroke="#63b8ff" points="900.36,-389.32 910.65,-386.82 901.05,-382.36 900.36,-389.32"/>
</g>
<!-- Node28&#45;&gt;Node13 -->
<g id="edge56" class="edge">
<title>Node28&#45;&gt;Node13</title>
<path fill="none" stroke="#63b8ff" d="M300.49,-275.66C426.09,-263.26 656.74,-240.34 661,-239 677.51,-233.8 678.62,-225.59 695,-220 783.69,-189.73 894.2,-180.03 952.54,-176.94"/>
<polygon fill="#63b8ff" stroke="#63b8ff" points="952.51,-180.44 962.32,-176.46 952.17,-173.45 952.51,-180.44"/>
</g>
<!-- Node28&#45;&gt;Node25 -->
<g id="edge57" class="edge">
<title>Node28&#45;&gt;Node25</title>
<path fill="none" stroke="#63b8ff" d="M241.02,-274.51C259.61,-266.16 287.54,-253.61 308.83,-244.05"/>
<polygon fill="#63b8ff" stroke="#63b8ff" points="310.21,-247.27 317.9,-239.98 307.34,-240.88 310.21,-247.27"/>
</g>
<!-- Node29&#45;&gt;Node2 -->
<g id="edge60" class="edge">
<title>Node29&#45;&gt;Node2</title>
<path fill="none" stroke="#63b8ff" d="M420.69,-294.48C477.69,-307.52 587.69,-332.02 682,-349 756,-362.33 840.82,-374.67 901.17,-382.96"/>
<polygon fill="#63b8ff" stroke="#63b8ff" points="900.64,-386.42 911.02,-384.31 901.59,-379.49 900.64,-386.42"/>
</g>
<!-- Node29&#45;&gt;Node13 -->
<g id="edge61" class="edge">
<title>Node29&#45;&gt;Node13</title>
<path fill="none" stroke="#63b8ff" d="M446,-275.36C530.56,-264.45 671.62,-245.69 695,-239 715.09,-233.25 718.01,-226.06 738,-220 812.01,-197.56 901.75,-185.18 952.63,-179.47"/>
<polygon fill="#63b8ff" stroke="#63b8ff" points="952.72,-182.99 962.28,-178.43 951.96,-176.03 952.72,-182.99"/>
</g>
<!-- Node29&#45;&gt;Node25 -->
<g id="edge62" class="edge">
<title>Node29&#45;&gt;Node25</title>
<path fill="none" stroke="#63b8ff" d="M374.9,-274.75C369.08,-267.58 360.67,-257.2 353.44,-248.3"/>
<polygon fill="#63b8ff" stroke="#63b8ff" points="356.23,-246.18 347.21,-240.62 350.79,-250.59 356.23,-246.18"/>
</g>
<!-- Node30&#45;&gt;Node2 -->
<g id="edge64" class="edge">
<title>Node30&#45;&gt;Node2</title>
<path fill="none" stroke="#63b8ff" d="M1563.6,-294.47C1513.91,-307.95 1415.7,-333.52 1331,-349 1238.92,-365.83 1132.04,-378.43 1060.86,-385.85"/>
<polygon fill="#63b8ff" stroke="#63b8ff" points="1060.84,-382.33 1051.25,-386.84 1061.56,-389.29 1060.84,-382.33"/>
</g>
<!-- Node30&#45;&gt;Node13 -->
<g id="edge65" class="edge">
<title>Node30&#45;&gt;Node13</title>
<path fill="none" stroke="#63b8ff" d="M1545.88,-274.52C1429.02,-253.59 1140.31,-201.88 1033.54,-182.76"/>
<polygon fill="#63b8ff" stroke="#63b8ff" points="1034.27,-179.34 1023.81,-181.02 1033.04,-186.23 1034.27,-179.34"/>
</g>
<!-- Node31&#45;&gt;Node2 -->
<g id="edge67" class="edge">
<title>Node31&#45;&gt;Node2</title>
<path fill="none" stroke="#63b8ff" d="M1705.56,-294.48C1637.28,-307.76 1504.03,-332.79 1390,-349 1276.2,-365.18 1143.85,-378.6 1061.24,-386.34"/>
<polygon fill="#63b8ff" stroke="#63b8ff" points="1061.06,-382.84 1051.43,-387.26 1061.71,-389.81 1061.06,-382.84"/>
</g>
<!-- Node31&#45;&gt;Node13 -->
<g id="edge68" class="edge">
<title>Node31&#45;&gt;Node13</title>
<path fill="none" stroke="#63b8ff" d="M1688.79,-274.51C1603.24,-262.15 1444.47,-239.27 1309,-220 1210.01,-205.92 1093.55,-189.58 1033.44,-181.16"/>
<polygon fill="#63b8ff" stroke="#63b8ff" points="1034.08,-177.71 1023.69,-179.79 1033.11,-184.65 1034.08,-177.71"/>
</g>
</g>
</svg>
