<?xml version="1.0" encoding="UTF-8" standalone="no"?>
<!DOCTYPE svg PUBLIC "-//W3C//DTD SVG 1.1//EN"
 "http://www.w3.org/Graphics/SVG/1.1/DTD/svg11.dtd">
<!-- Generated by graphviz version 3.0.0 (20220413.0242)
 -->
<!-- Title: model/block.hpp Pages: 1 -->
<svg width="1931pt" height="364pt"
 viewBox="0.00 0.00 1930.50 364.00" xmlns="http://www.w3.org/2000/svg" xmlns:xlink="http://www.w3.org/1999/xlink">
<g id="graph0" class="graph" transform="scale(1 1) rotate(0) translate(4 360)">
<title>model/block.hpp</title>
<!-- Node1 -->
<g id="node1" class="node">
<title>Node1</title>
<g id="a_node1"><a xlink:title="MODEL::Block source file.">
<polygon fill="#bfbfbf" stroke="black" points="904,-336.5 904,-355.5 991,-355.5 991,-336.5 904,-336.5"/>
<text text-anchor="middle" x="947.5" y="-343.5" font-family="Helvetica,sans-Serif" font-size="10.00">model/block.hpp</text>
</a>
</g>
</g>
<!-- Node2 -->
<g id="node2" class="node">
<title>Node2</title>
<g id="a_node2"><a xlink:href="bloodvessel_8hpp.html" target="_top" xlink:title="MODEL::BloodVessel source file.">
<polygon fill="none" stroke="black" points="1226.5,-168.5 1226.5,-187.5 1342.5,-187.5 1342.5,-168.5 1226.5,-168.5"/>
<text text-anchor="middle" x="1284.5" y="-175.5" font-family="Helvetica,sans-Serif" font-size="10.00">model/bloodvessel.hpp</text>
</a>
</g>
</g>
<!-- Node1&#45;&gt;Node2 -->
<g id="edge1" class="edge">
<title>Node1&#45;&gt;Node2</title>
<path fill="none" stroke="midnightblue" d="M974.15,-331.87C1040.51,-299.19 1211.77,-214.83 1267.03,-187.61"/>
<polygon fill="midnightblue" stroke="midnightblue" points="972.57,-328.75 965.14,-336.31 975.66,-335.03 972.57,-328.75"/>
</g>
<!-- Node7 -->
<g id="node7" class="node">
<title>Node7</title>
<g id="a_node7"><a xlink:href="closedloop_r_c_rbc_8hpp.html" target="_top" xlink:title="MODEL::ClosedLoopRCRBC source file.">
<polygon fill="none" stroke="black" points="431,-168.5 431,-187.5 572,-187.5 572,-168.5 431,-168.5"/>
<text text-anchor="middle" x="501.5" y="-175.5" font-family="Helvetica,sans-Serif" font-size="10.00">model/closedloopRCRbc.hpp</text>
</a>
</g>
</g>
<!-- Node1&#45;&gt;Node7 -->
<g id="edge6" class="edge">
<title>Node1&#45;&gt;Node7</title>
<path fill="none" stroke="midnightblue" d="M914.97,-332.89C829.13,-300.94 598.07,-214.94 524.4,-187.52"/>
<polygon fill="midnightblue" stroke="midnightblue" points="913.87,-336.22 924.46,-336.42 916.31,-329.66 913.87,-336.22"/>
</g>
<!-- Node8 -->
<g id="node8" class="node">
<title>Node8</title>
<g id="a_node8"><a xlink:href="closedloopcoronarybc_8hpp_source.html" target="_top" xlink:title=" ">
<polygon fill="none" stroke="black" points="590.5,-168.5 590.5,-187.5 748.5,-187.5 748.5,-168.5 590.5,-168.5"/>
<text text-anchor="middle" x="669.5" y="-175.5" font-family="Helvetica,sans-Serif" font-size="10.00">model/closedloopcoronarybc.hpp</text>
</a>
</g>
</g>
<!-- Node1&#45;&gt;Node8 -->
<g id="edge8" class="edge">
<title>Node1&#45;&gt;Node8</title>
<path fill="none" stroke="midnightblue" d="M924.15,-331.06C868.47,-297.81 729.12,-214.6 683.91,-187.61"/>
<polygon fill="midnightblue" stroke="midnightblue" points="922.56,-334.19 932.94,-336.31 926.15,-328.18 922.56,-334.19"/>
</g>
<!-- Node9 -->
<g id="node9" class="node">
<title>Node9</title>
<g id="a_node9"><a xlink:href="closedloopheartpulmonary_8hpp.html" target="_top" xlink:title="MODEL::ClosedLoopHeartPulmonary source file.">
<polygon fill="none" stroke="black" points="766.5,-168.5 766.5,-187.5 942.5,-187.5 942.5,-168.5 766.5,-168.5"/>
<text text-anchor="middle" x="854.5" y="-175.5" font-family="Helvetica,sans-Serif" font-size="10.00">model/closedloopheartpulmonary.hpp</text>
</a>
</g>
</g>
<!-- Node1&#45;&gt;Node9 -->
<g id="edge10" class="edge">
<title>Node1&#45;&gt;Node9</title>
<path fill="none" stroke="midnightblue" d="M932.82,-328.8C916.28,-309.76 889.6,-276.63 873.5,-244 864.14,-225.02 858.55,-200.6 856.05,-187.77"/>
<polygon fill="midnightblue" stroke="midnightblue" points="930.39,-331.33 939.63,-336.5 935.63,-326.69 930.39,-331.33"/>
</g>
<!-- Node10 -->
<g id="node10" class="node">
<title>Node10</title>
<g id="a_node10"><a xlink:href="flowreferencebc_8hpp.html" target="_top" xlink:title="MODEL::FlowReferenceBC source file.">
<polygon fill="none" stroke="black" points="960.5,-168.5 960.5,-187.5 1092.5,-187.5 1092.5,-168.5 960.5,-168.5"/>
<text text-anchor="middle" x="1026.5" y="-175.5" font-family="Helvetica,sans-Serif" font-size="10.00">model/flowreferencebc.hpp</text>
</a>
</g>
</g>
<!-- Node1&#45;&gt;Node10 -->
<g id="edge12" class="edge">
<title>Node1&#45;&gt;Node10</title>
<path fill="none" stroke="midnightblue" d="M963.74,-329C981.45,-310.41 1008.94,-277.92 1021.5,-244 1028.57,-224.89 1028.17,-200.52 1027.31,-187.73"/>
<polygon fill="midnightblue" stroke="midnightblue" points="961.09,-326.71 956.6,-336.3 966.1,-331.6 961.09,-326.71"/>
</g>
<!-- Node11 -->
<g id="node11" class="node">
<title>Node11</title>
<g id="a_node11"><a xlink:href="junction_8hpp.html" target="_top" xlink:title="MODEL::Junction source file.">
<polygon fill="none" stroke="black" points="1110.5,-168.5 1110.5,-187.5 1208.5,-187.5 1208.5,-168.5 1110.5,-168.5"/>
<text text-anchor="middle" x="1159.5" y="-175.5" font-family="Helvetica,sans-Serif" font-size="10.00">model/junction.hpp</text>
</a>
</g>
</g>
<!-- Node1&#45;&gt;Node11 -->
<g id="edge14" class="edge">
<title>Node1&#45;&gt;Node11</title>
<path fill="none" stroke="midnightblue" d="M968.52,-330.47C980.88,-321.81 996.74,-310.49 1010.5,-300 1063.77,-259.4 1125.25,-207.96 1149.2,-187.73"/>
<polygon fill="midnightblue" stroke="midnightblue" points="966.42,-327.67 960.22,-336.26 970.42,-333.41 966.42,-327.67"/>
</g>
<!-- Node12 -->
<g id="node12" class="node">
<title>Node12</title>
<g id="a_node12"><a xlink:href="model_8hpp.html" target="_top" xlink:title="MODEL::Model source file.">
<polygon fill="none" stroke="black" points="1663.5,-280.5 1663.5,-299.5 1753.5,-299.5 1753.5,-280.5 1663.5,-280.5"/>
<text text-anchor="middle" x="1708.5" y="-287.5" font-family="Helvetica,sans-Serif" font-size="10.00">model/model.hpp</text>
</a>
</g>
</g>
<!-- Node1&#45;&gt;Node12 -->
<g id="edge16" class="edge">
<title>Node1&#45;&gt;Node12</title>
<path fill="none" stroke="midnightblue" d="M1001.41,-341.17C1144.24,-331.04 1530.55,-303.63 1663.12,-294.22"/>
<polygon fill="midnightblue" stroke="midnightblue" points="1000.88,-337.7 991.15,-341.9 1001.37,-344.69 1000.88,-337.7"/>
</g>
<!-- Node15 -->
<g id="node15" class="node">
<title>Node15</title>
<g id="a_node15"><a xlink:href="openloopcoronarybc_8hpp.html" target="_top" xlink:title="MODEL::ClosedLoopCoronaryBC source file.">
<polygon fill="none" stroke="black" points="1360.5,-168.5 1360.5,-187.5 1510.5,-187.5 1510.5,-168.5 1360.5,-168.5"/>
<text text-anchor="middle" x="1435.5" y="-175.5" font-family="Helvetica,sans-Serif" font-size="10.00">model/openloopcoronarybc.hpp</text>
</a>
</g>
</g>
<!-- Node1&#45;&gt;Node15 -->
<g id="edge42" class="edge">
<title>Node1&#45;&gt;Node15</title>
<path fill="none" stroke="midnightblue" d="M982.24,-333.18C1075.48,-301.47 1329.59,-215.03 1410.44,-187.52"/>
<polygon fill="midnightblue" stroke="midnightblue" points="981.05,-329.89 972.71,-336.42 983.3,-336.52 981.05,-329.89"/>
</g>
<!-- Node16 -->
<g id="node16" class="node">
<title>Node16</title>
<g id="a_node16"><a xlink:href="pressurereferencebc_8hpp.html" target="_top" xlink:title="MODEL::PressureReferenceBC source file.">
<polygon fill="none" stroke="black" points="1528.5,-168.5 1528.5,-187.5 1680.5,-187.5 1680.5,-168.5 1528.5,-168.5"/>
<text text-anchor="middle" x="1604.5" y="-175.5" font-family="Helvetica,sans-Serif" font-size="10.00">model/pressurereferencebc.hpp</text>
</a>
</g>
</g>
<!-- Node1&#45;&gt;Node16 -->
<g id="edge43" class="edge">
<title>Node1&#45;&gt;Node16</title>
<path fill="none" stroke="midnightblue" d="M991.27,-333.94C1114.24,-302.87 1461.03,-215.25 1570.76,-187.52"/>
<polygon fill="midnightblue" stroke="midnightblue" points="990.28,-330.58 981.44,-336.42 991.99,-337.37 990.28,-330.58"/>
</g>
<!-- Node17 -->
<g id="node17" class="node">
<title>Node17</title>
<g id="a_node17"><a xlink:href="resistancebc_8hpp.html" target="_top" xlink:title="MODEL::ResistanceBC source file.">
<polygon fill="none" stroke="black" points="0,-168.5 0,-187.5 119,-187.5 119,-168.5 0,-168.5"/>
<text text-anchor="middle" x="59.5" y="-175.5" font-family="Helvetica,sans-Serif" font-size="10.00">model/resistancebc.hpp</text>
</a>
</g>
</g>
<!-- Node1&#45;&gt;Node17 -->
<g id="edge44" class="edge">
<title>Node1&#45;&gt;Node17</title>
<path fill="none" stroke="midnightblue" d="M893.69,-339.04C827.85,-331.44 713.1,-317.21 615.5,-300 416.79,-264.97 181.23,-208.81 94.12,-187.54"/>
<polygon fill="midnightblue" stroke="midnightblue" points="893.49,-342.54 903.82,-340.2 894.29,-335.59 893.49,-342.54"/>
</g>
<!-- Node18 -->
<g id="node18" class="node">
<title>Node18</title>
<g id="a_node18"><a xlink:href="resistivejunction_8hpp.html" target="_top" xlink:title="MODEL::ResistiveJunction source file.">
<polygon fill="none" stroke="black" points="137.5,-168.5 137.5,-187.5 271.5,-187.5 271.5,-168.5 137.5,-168.5"/>
<text text-anchor="middle" x="204.5" y="-175.5" font-family="Helvetica,sans-Serif" font-size="10.00">model/resistivejunction.hpp</text>
</a>
</g>
</g>
<!-- Node1&#45;&gt;Node18 -->
<g id="edge45" class="edge">
<title>Node1&#45;&gt;Node18</title>
<path fill="none" stroke="midnightblue" d="M893.56,-335.69C844.82,-327.09 771.17,-313.62 707.5,-300 529.2,-261.87 317.39,-208.13 237.33,-187.51"/>
<polygon fill="midnightblue" stroke="midnightblue" points="893.12,-339.17 903.57,-337.45 894.33,-332.27 893.12,-339.17"/>
</g>
<!-- Node19 -->
<g id="node19" class="node">
<title>Node19</title>
<g id="a_node19"><a xlink:href="windkesselbc_8hpp.html" target="_top" xlink:title="MODEL::WindkesselBC source file.">
<polygon fill="none" stroke="black" points="290,-168.5 290,-187.5 413,-187.5 413,-168.5 290,-168.5"/>
<text text-anchor="middle" x="351.5" y="-175.5" font-family="Helvetica,sans-Serif" font-size="10.00">model/windkesselbc.hpp</text>
</a>
</g>
</g>
<!-- Node1&#45;&gt;Node19 -->
<g id="edge46" class="edge">
<title>Node1&#45;&gt;Node19</title>
<path fill="none" stroke="midnightblue" d="M904.82,-333.93C870.4,-324.95 820.78,-311.87 777.5,-300 628.1,-259.01 449.96,-207.58 380.89,-187.54"/>
<polygon fill="midnightblue" stroke="midnightblue" points="903.99,-337.33 914.55,-336.46 905.75,-330.56 903.99,-337.33"/>
</g>
<!-- Node3 -->
<g id="node3" class="node">
<title>Node3</title>
<g id="a_node3"><a xlink:href="configreader_8hpp.html" target="_top" xlink:title="IO::ConfigReader source file.">
<polygon fill="none" stroke="black" points="977.5,-112.5 977.5,-131.5 1075.5,-131.5 1075.5,-112.5 977.5,-112.5"/>
<text text-anchor="middle" x="1026.5" y="-119.5" font-family="Helvetica,sans-Serif" font-size="10.00">io/configreader.hpp</text>
</a>
</g>
</g>
<!-- Node2&#45;&gt;Node3 -->
<g id="edge2" class="edge">
<title>Node2&#45;&gt;Node3</title>
<path fill="none" stroke="midnightblue" d="M1233.6,-166.35C1184.84,-156.14 1112.21,-140.94 1067.19,-131.52"/>
<polygon fill="midnightblue" stroke="midnightblue" points="1233.11,-169.82 1243.62,-168.44 1234.55,-162.97 1233.11,-169.82"/>
</g>
<!-- Node4 -->
<g id="node4" class="node">
<title>Node4</title>
<g id="a_node4"><a xlink:href="main_8hpp.html" target="_top" xlink:title="Main page documentation.">
<polygon fill="none" stroke="black" points="1720.5,-56.5 1720.5,-75.5 1776.5,-75.5 1776.5,-56.5 1720.5,-56.5"/>
<text text-anchor="middle" x="1748.5" y="-63.5" font-family="Helvetica,sans-Serif" font-size="10.00">main.hpp</text>
</a>
</g>
</g>
<!-- Node3&#45;&gt;Node4 -->
<g id="edge3" class="edge">
<title>Node3&#45;&gt;Node4</title>
<path fill="none" stroke="midnightblue" d="M1085.78,-116.57C1233.45,-105.52 1613.48,-77.1 1720.23,-69.11"/>
<polygon fill="midnightblue" stroke="midnightblue" points="1085.27,-113.09 1075.56,-117.33 1085.79,-120.08 1085.27,-113.09"/>
</g>
<!-- Node5 -->
<g id="node5" class="node">
<title>Node5</title>
<g id="a_node5"><a xlink:href="main_8cpp.html" target="_top" xlink:title="Main routine of svZeroDSolver.">
<polygon fill="none" stroke="black" points="1681.5,-0.5 1681.5,-19.5 1737.5,-19.5 1737.5,-0.5 1681.5,-0.5"/>
<text text-anchor="middle" x="1709.5" y="-7.5" font-family="Helvetica,sans-Serif" font-size="10.00">main.cpp</text>
</a>
</g>
</g>
<!-- Node4&#45;&gt;Node5 -->
<g id="edge4" class="edge">
<title>Node4&#45;&gt;Node5</title>
<path fill="none" stroke="midnightblue" d="M1736.12,-47.86C1729.36,-38.5 1721.29,-27.33 1715.82,-19.75"/>
<polygon fill="midnightblue" stroke="midnightblue" points="1733.37,-50.03 1742.06,-56.08 1739.04,-45.93 1733.37,-50.03"/>
</g>
<!-- Node6 -->
<g id="node6" class="node">
<title>Node6</title>
<g id="a_node6"><a xlink:href="python_8cpp.html" target="_top" xlink:title="Python binding for svZeroDSolver.">
<polygon fill="none" stroke="black" points="1756,-0.5 1756,-19.5 1819,-19.5 1819,-0.5 1756,-0.5"/>
<text text-anchor="middle" x="1787.5" y="-7.5" font-family="Helvetica,sans-Serif" font-size="10.00">python.cpp</text>
</a>
</g>
</g>
<!-- Node4&#45;&gt;Node6 -->
<g id="edge5" class="edge">
<title>Node4&#45;&gt;Node6</title>
<path fill="none" stroke="midnightblue" d="M1760.88,-47.86C1767.64,-38.5 1775.71,-27.33 1781.18,-19.75"/>
<polygon fill="midnightblue" stroke="midnightblue" points="1757.96,-45.93 1754.94,-56.08 1763.63,-50.03 1757.96,-45.93"/>
</g>
<!-- Node7&#45;&gt;Node3 -->
<g id="edge7" class="edge">
<title>Node7&#45;&gt;Node3</title>
<path fill="none" stroke="midnightblue" d="M582.51,-167.9C732.9,-151.89 897.25,-135.63 977.42,-127.78"/>
<polygon fill="midnightblue" stroke="midnightblue" points="581.74,-164.47 572.17,-169.01 582.48,-171.43 581.74,-164.47"/>
</g>
<!-- Node8&#45;&gt;Node3 -->
<g id="edge9" class="edge">
<title>Node8&#45;&gt;Node3</title>
<path fill="none" stroke="midnightblue" d="M736.11,-166.92C806.16,-156.33 914.73,-139.91 977.38,-130.43"/>
<polygon fill="midnightblue" stroke="midnightblue" points="735.43,-163.49 726.07,-168.44 736.48,-170.41 735.43,-163.49"/>
</g>
<!-- Node9&#45;&gt;Node3 -->
<g id="edge11" class="edge">
<title>Node9&#45;&gt;Node3</title>
<path fill="none" stroke="midnightblue" d="M891.33,-165.44C923.76,-155.26 970.24,-140.66 999.37,-131.52"/>
<polygon fill="midnightblue" stroke="midnightblue" points="890.25,-162.11 881.75,-168.44 892.34,-168.79 890.25,-162.11"/>
</g>
<!-- Node10&#45;&gt;Node3 -->
<g id="edge13" class="edge">
<title>Node10&#45;&gt;Node3</title>
<path fill="none" stroke="midnightblue" d="M1026.5,-157.8C1026.5,-148.91 1026.5,-138.78 1026.5,-131.75"/>
<polygon fill="midnightblue" stroke="midnightblue" points="1023,-158.08 1026.5,-168.08 1030,-158.08 1023,-158.08"/>
</g>
<!-- Node11&#45;&gt;Node3 -->
<g id="edge15" class="edge">
<title>Node11&#45;&gt;Node3</title>
<path fill="none" stroke="midnightblue" d="M1129.05,-164.64C1104.09,-154.5 1069.42,-140.43 1047.48,-131.52"/>
<polygon fill="midnightblue" stroke="midnightblue" points="1127.84,-167.92 1138.43,-168.44 1130.48,-161.44 1127.84,-167.92"/>
</g>
<!-- Node12&#45;&gt;Node3 -->
<g id="edge38" class="edge">
<title>Node12&#45;&gt;Node3</title>
<path fill="none" stroke="midnightblue" d="M1711.92,-270.29C1715.65,-243.31 1717.77,-193.88 1689.5,-168 1644.51,-126.8 1221.32,-122.96 1075.56,-122.87"/>
<polygon fill="midnightblue" stroke="midnightblue" points="1708.43,-269.91 1710.31,-280.34 1715.35,-271.02 1708.43,-269.91"/>
</g>
<!-- Node12&#45;&gt;Node4 -->
<g id="edge41" class="edge">
<title>Node12&#45;&gt;Node4</title>
<path fill="none" stroke="midnightblue" d="M1721.91,-272.06C1727.75,-263.96 1734.22,-253.89 1738.5,-244 1758.78,-197.09 1758.68,-182.77 1764.5,-132 1765.51,-123.17 1766.01,-120.76 1764.5,-112 1762.24,-98.93 1756.56,-84.62 1752.61,-75.72"/>
<polygon fill="midnightblue" stroke="midnightblue" points="1718.96,-270.16 1715.73,-280.25 1724.55,-274.37 1718.96,-270.16"/>
</g>
<!-- Node13 -->
<g id="node13" class="node">
<title>Node13</title>
<g id="a_node13"><a xlink:href="integrator_8hpp.html" target="_top" xlink:title="ALGEBRA::Integrator source file.">
<polygon fill="none" stroke="black" points="1812.5,-224.5 1812.5,-243.5 1922.5,-243.5 1922.5,-224.5 1812.5,-224.5"/>
<text text-anchor="middle" x="1867.5" y="-231.5" font-family="Helvetica,sans-Serif" font-size="10.00">algebra/integrator.hpp</text>
</a>
</g>
</g>
<!-- Node12&#45;&gt;Node13 -->
<g id="edge17" class="edge">
<title>Node12&#45;&gt;Node13</title>
<path fill="none" stroke="midnightblue" d="M1743.33,-277.17C1773.27,-267 1815.72,-252.59 1842.42,-243.52"/>
<polygon fill="midnightblue" stroke="midnightblue" points="1742.04,-273.91 1733.69,-280.44 1744.29,-280.54 1742.04,-273.91"/>
</g>
<!-- Node14 -->
<g id="node14" class="node">
<title>Node14</title>
<g id="a_node14"><a xlink:href="sparsesystem_8hpp.html" target="_top" xlink:title="ALGEBRA::SparseSystem source file.">
<polygon fill="none" stroke="black" points="882.5,-224.5 882.5,-243.5 1012.5,-243.5 1012.5,-224.5 882.5,-224.5"/>
<text text-anchor="middle" x="947.5" y="-231.5" font-family="Helvetica,sans-Serif" font-size="10.00">algebra/sparsesystem.hpp</text>
</a>
</g>
</g>
<!-- Node12&#45;&gt;Node14 -->
<g id="edge19" class="edge">
<title>Node12&#45;&gt;Node14</title>
<path fill="none" stroke="midnightblue" d="M1653.2,-285.33C1515.8,-275.87 1159.79,-250.62 1012.6,-239.91"/>
<polygon fill="midnightblue" stroke="midnightblue" points="1653.27,-288.85 1663.48,-286.04 1653.75,-281.86 1653.27,-288.85"/>
</g>
<!-- Node20 -->
<g id="node20" class="node">
<title>Node20</title>
<g id="a_node20"><a xlink:href="csvwriter_8hpp.html" target="_top" xlink:title="IO::write_csv source file.">
<polygon fill="none" stroke="black" points="1671,-112.5 1671,-131.5 1756,-131.5 1756,-112.5 1671,-112.5"/>
<text text-anchor="middle" x="1713.5" y="-119.5" font-family="Helvetica,sans-Serif" font-size="10.00">io/csvwriter.hpp</text>
</a>
</g>
</g>
<!-- Node12&#45;&gt;Node20 -->
<g id="edge39" class="edge">
<title>Node12&#45;&gt;Node20</title>
<path fill="none" stroke="midnightblue" d="M1715.55,-270.74C1718.31,-262.67 1721.13,-253 1722.5,-244 1727.57,-210.61 1725.83,-201.61 1722.5,-168 1721.23,-155.16 1717.96,-140.55 1715.73,-131.55"/>
<polygon fill="midnightblue" stroke="midnightblue" points="1712.23,-269.63 1712.1,-280.22 1718.81,-272.02 1712.23,-269.63"/>
</g>
<!-- Node13&#45;&gt;Node4 -->
<g id="edge18" class="edge">
<title>Node13&#45;&gt;Node4</title>
<path fill="none" stroke="midnightblue" d="M1859.47,-214.96C1847.99,-190.29 1825.31,-145.29 1798.5,-112 1787.07,-97.81 1771,-84.21 1760.2,-75.74"/>
<polygon fill="midnightblue" stroke="midnightblue" points="1856.34,-216.55 1863.68,-224.2 1862.71,-213.65 1856.34,-216.55"/>
</g>
<!-- Node14&#45;&gt;Node1 -->
<g id="edge20" class="edge">
<title>Node14&#45;&gt;Node1</title>
<path fill="none" stroke="midnightblue" d="M947.5,-253.6C947.5,-277.67 947.5,-318.62 947.5,-336.37"/>
<polygon fill="midnightblue" stroke="midnightblue" points="951,-253.59 947.5,-243.59 944,-253.59 951,-253.59"/>
</g>
<!-- Node14&#45;&gt;Node2 -->
<g id="edge21" class="edge">
<title>Node14&#45;&gt;Node2</title>
<path fill="none" stroke="midnightblue" d="M1010.82,-222.85C1074.49,-212.65 1171.56,-197.1 1231.35,-187.52"/>
<polygon fill="midnightblue" stroke="midnightblue" points="1010.22,-219.41 1000.9,-224.44 1011.33,-226.32 1010.22,-219.41"/>
</g>
<!-- Node14&#45;&gt;Node7 -->
<g id="edge22" class="edge">
<title>Node14&#45;&gt;Node7</title>
<path fill="none" stroke="midnightblue" d="M872.19,-223.88C788.27,-213.72 653.63,-197.42 571.79,-187.51"/>
<polygon fill="midnightblue" stroke="midnightblue" points="871.82,-227.36 882.17,-225.09 872.66,-220.41 871.82,-227.36"/>
</g>
<!-- Node14&#45;&gt;Node8 -->
<g id="edge23" class="edge">
<title>Node14&#45;&gt;Node8</title>
<path fill="none" stroke="midnightblue" d="M893.31,-222.47C840.77,-212.27 762.06,-196.98 713.34,-187.52"/>
<polygon fill="midnightblue" stroke="midnightblue" points="892.97,-225.97 903.45,-224.44 894.3,-219.1 892.97,-225.97"/>
</g>
<!-- Node14&#45;&gt;Node9 -->
<g id="edge24" class="edge">
<title>Node14&#45;&gt;Node9</title>
<path fill="none" stroke="midnightblue" d="M923.69,-219.18C906.58,-209.24 884.03,-196.15 869.4,-187.65"/>
<polygon fill="midnightblue" stroke="midnightblue" points="922.15,-222.33 932.56,-224.32 925.67,-216.28 922.15,-222.33"/>
</g>
<!-- Node14&#45;&gt;Node10 -->
<g id="edge25" class="edge">
<title>Node14&#45;&gt;Node10</title>
<path fill="none" stroke="midnightblue" d="M968.53,-218.62C982.97,-208.76 1001.64,-195.99 1013.84,-187.65"/>
<polygon fill="midnightblue" stroke="midnightblue" points="966.47,-215.79 960.19,-224.32 970.42,-221.57 966.47,-215.79"/>
</g>
<!-- Node14&#45;&gt;Node11 -->
<g id="edge26" class="edge">
<title>Node14&#45;&gt;Node11</title>
<path fill="none" stroke="midnightblue" d="M990.85,-221.96C1030.89,-211.76 1089.53,-196.82 1126.07,-187.52"/>
<polygon fill="midnightblue" stroke="midnightblue" points="989.92,-218.58 981.09,-224.44 991.65,-225.37 989.92,-218.58"/>
</g>
<!-- Node14&#45;&gt;Node12 -->
<g id="edge27" class="edge">
<title>Node14&#45;&gt;Node12</title>
<path fill="none" stroke="midnightblue" d="M1022.69,-240.04C1179.45,-250.9 1536.86,-276.28 1663.26,-285.54"/>
<polygon fill="midnightblue" stroke="midnightblue" points="1022.88,-236.55 1012.66,-239.35 1022.39,-243.53 1022.88,-236.55"/>
</g>
<!-- Node14&#45;&gt;Node15 -->
<g id="edge28" class="edge">
<title>Node14&#45;&gt;Node15</title>
<path fill="none" stroke="midnightblue" d="M1022.59,-224.69C1114.24,-214.55 1268.3,-197.5 1360.09,-187.34"/>
<polygon fill="midnightblue" stroke="midnightblue" points="1022.11,-221.22 1012.55,-225.8 1022.88,-228.18 1022.11,-221.22"/>
</g>
<!-- Node14&#45;&gt;Node16 -->
<g id="edge30" class="edge">
<title>Node14&#45;&gt;Node16</title>
<path fill="none" stroke="midnightblue" d="M1023.02,-227.71C1132.53,-219.89 1341.73,-204.4 1519.5,-188 1522.31,-187.74 1525.17,-187.47 1528.05,-187.19"/>
<polygon fill="midnightblue" stroke="midnightblue" points="1022.47,-224.24 1012.74,-228.44 1022.97,-231.22 1022.47,-224.24"/>
</g>
<!-- Node14&#45;&gt;Node17 -->
<g id="edge32" class="edge">
<title>Node14&#45;&gt;Node17</title>
<path fill="none" stroke="midnightblue" d="M872.27,-230.75C727.84,-226.01 401.81,-213.3 128.5,-188 125.49,-187.72 122.41,-187.41 119.31,-187.08"/>
<polygon fill="midnightblue" stroke="midnightblue" points="872.24,-234.25 882.35,-231.08 872.47,-227.25 872.24,-234.25"/>
</g>
<!-- Node14&#45;&gt;Node18 -->
<g id="edge34" class="edge">
<title>Node14&#45;&gt;Node18</title>
<path fill="none" stroke="midnightblue" d="M871.96,-229.15C748.21,-222.56 494.63,-207.89 280.5,-188 277.59,-187.73 274.62,-187.44 271.62,-187.13"/>
<polygon fill="midnightblue" stroke="midnightblue" points="871.92,-232.65 882.09,-229.69 872.29,-225.66 871.92,-232.65"/>
</g>
<!-- Node14&#45;&gt;Node19 -->
<g id="edge36" class="edge">
<title>Node14&#45;&gt;Node19</title>
<path fill="none" stroke="midnightblue" d="M872,-227.55C769.75,-219.95 581.63,-205.14 421.5,-188 418.82,-187.71 416.08,-187.41 413.32,-187.09"/>
<polygon fill="midnightblue" stroke="midnightblue" points="871.99,-231.06 882.22,-228.31 872.51,-224.08 871.99,-231.06"/>
</g>
<!-- Node15&#45;&gt;Node3 -->
<g id="edge29" class="edge">
<title>Node15&#45;&gt;Node3</title>
<path fill="none" stroke="midnightblue" d="M1360.58,-167.11C1277.65,-156.16 1146.37,-138.83 1075.6,-129.48"/>
<polygon fill="midnightblue" stroke="midnightblue" points="1360.32,-170.6 1370.69,-168.44 1361.24,-163.66 1360.32,-170.6"/>
</g>
<!-- Node16&#45;&gt;Node3 -->
<g id="edge31" class="edge">
<title>Node16&#45;&gt;Node3</title>
<path fill="none" stroke="midnightblue" d="M1518,-167.86C1349.5,-151.32 1162.41,-134.8 1075.5,-127.24"/>
<polygon fill="midnightblue" stroke="midnightblue" points="1517.75,-171.36 1528.05,-168.85 1518.44,-164.39 1517.75,-171.36"/>
</g>
<!-- Node17&#45;&gt;Node3 -->
<g id="edge33" class="edge">
<title>Node17&#45;&gt;Node3</title>
<path fill="none" stroke="midnightblue" d="M129.54,-167.99C459.46,-138.65 843.04,-127.36 977.25,-124.09"/>
<polygon fill="midnightblue" stroke="midnightblue" points="128.95,-164.52 119.31,-168.9 129.58,-171.5 128.95,-164.52"/>
</g>
<!-- Node18&#45;&gt;Node3 -->
<g id="edge35" class="edge">
<title>Node18&#45;&gt;Node3</title>
<path fill="none" stroke="midnightblue" d="M281.95,-167.92C550.49,-144.23 858.96,-129.98 977.11,-124.99"/>
<polygon fill="midnightblue" stroke="midnightblue" points="281.27,-164.47 271.61,-168.84 281.89,-171.44 281.27,-164.47"/>
</g>
<!-- Node19&#45;&gt;Node3 -->
<g id="edge37" class="edge">
<title>Node19&#45;&gt;Node3</title>
<path fill="none" stroke="midnightblue" d="M423.39,-167.85C635.34,-146.62 875.9,-131.65 977.41,-125.76"/>
<polygon fill="midnightblue" stroke="midnightblue" points="422.91,-164.38 413.32,-168.87 423.62,-171.35 422.91,-164.38"/>
</g>
<!-- Node20&#45;&gt;Node4 -->
<g id="edge40" class="edge">
<title>Node20&#45;&gt;Node4</title>
<path fill="none" stroke="midnightblue" d="M1724.8,-103.57C1730.82,-94.27 1737.97,-83.25 1742.83,-75.75"/>
<polygon fill="midnightblue" stroke="midnightblue" points="1721.78,-101.79 1719.28,-112.08 1727.66,-105.6 1721.78,-101.79"/>
</g>
</g>
</svg>
