<?xml version="1.0" encoding="UTF-8" standalone="no"?>
<!DOCTYPE svg PUBLIC "-//W3C//DTD SVG 1.1//EN"
 "http://www.w3.org/Graphics/SVG/1.1/DTD/svg11.dtd">
<!-- Generated by graphviz version 3.0.0 (20220413.0242)
 -->
<!-- Title: model/block.hpp Pages: 1 -->
<svg width="1261pt" height="364pt"
 viewBox="0.00 0.00 1261.00 364.00" xmlns="http://www.w3.org/2000/svg" xmlns:xlink="http://www.w3.org/1999/xlink">
<g id="graph0" class="graph" transform="scale(1 1) rotate(0) translate(4 360)">
<title>model/block.hpp</title>
<!-- Node1 -->
<g id="node1" class="node">
<title>Node1</title>
<g id="a_node1"><a xlink:title="MODEL::Block source file.">
<polygon fill="#bfbfbf" stroke="black" points="590.5,-336.5 590.5,-355.5 677.5,-355.5 677.5,-336.5 590.5,-336.5"/>
<text text-anchor="middle" x="634" y="-343.5" font-family="Helvetica,sans-Serif" font-size="10.00">model/block.hpp</text>
</a>
</g>
</g>
<!-- Node2 -->
<g id="node2" class="node">
<title>Node2</title>
<g id="a_node2"><a xlink:title=" ">
<polygon fill="none" stroke="#bfbfbf" points="281,-0.5 281,-19.5 325,-19.5 325,-0.5 281,-0.5"/>
<text text-anchor="middle" x="303" y="-7.5" font-family="Helvetica,sans-Serif" font-size="10.00">vector</text>
</a>
</g>
</g>
<!-- Node1&#45;&gt;Node2 -->
<g id="edge1" class="edge">
<title>Node1&#45;&gt;Node2</title>
<path fill="none" stroke="midnightblue" d="M590.42,-342.06C447.18,-331.82 0,-295.05 0,-235 0,-235 0,-235 0,-121 0,-63.94 192.24,-27.99 270.47,-15.72"/>
<polygon fill="midnightblue" stroke="midnightblue" points="271.37,-19.13 280.72,-14.15 270.3,-12.21 271.37,-19.13"/>
</g>
<!-- Node3 -->
<g id="node3" class="node">
<title>Node3</title>
<g id="a_node3"><a xlink:title=" ">
<polygon fill="none" stroke="#bfbfbf" points="1085.5,-168.5 1085.5,-187.5 1120.5,-187.5 1120.5,-168.5 1085.5,-168.5"/>
<text text-anchor="middle" x="1103" y="-175.5" font-family="Helvetica,sans-Serif" font-size="10.00">map</text>
</a>
</g>
</g>
<!-- Node1&#45;&gt;Node3 -->
<g id="edge2" class="edge">
<title>Node1&#45;&gt;Node3</title>
<path fill="none" stroke="midnightblue" d="M671.31,-336.46C705.82,-328.24 758.35,-314.88 803,-300 905.86,-265.71 1024.19,-214.32 1076.16,-191.13"/>
<polygon fill="midnightblue" stroke="midnightblue" points="1077.67,-194.29 1085.36,-187.01 1074.81,-187.9 1077.67,-194.29"/>
</g>
<!-- Node4 -->
<g id="node4" class="node">
<title>Node4</title>
<g id="a_node4"><a xlink:href="node_8hpp.html" target="_top" xlink:title="MODEL::Node source file.">
<polygon fill="none" stroke="black" points="1197,-112.5 1197,-131.5 1253,-131.5 1253,-112.5 1197,-112.5"/>
<text text-anchor="middle" x="1225" y="-119.5" font-family="Helvetica,sans-Serif" font-size="10.00">node.hpp</text>
</a>
</g>
</g>
<!-- Node1&#45;&gt;Node4 -->
<g id="edge3" class="edge">
<title>Node1&#45;&gt;Node4</title>
<path fill="none" stroke="midnightblue" d="M677.79,-344.62C804.22,-343.12 1163.25,-335.71 1201,-300 1244.71,-258.66 1235.95,-178.32 1229.15,-141.84"/>
<polygon fill="midnightblue" stroke="midnightblue" points="1232.5,-140.74 1227.08,-131.64 1225.64,-142.14 1232.5,-140.74"/>
</g>
<!-- Node6 -->
<g id="node6" class="node">
<title>Node6</title>
<g id="a_node6"><a xlink:href="dofhandler_8hpp.html" target="_top" xlink:title="MODEL::DOFHandler source file.">
<polygon fill="none" stroke="black" points="831,-56.5 831,-75.5 911,-75.5 911,-56.5 831,-56.5"/>
<text text-anchor="middle" x="871" y="-63.5" font-family="Helvetica,sans-Serif" font-size="10.00">dofhandler.hpp</text>
</a>
</g>
</g>
<!-- Node1&#45;&gt;Node6 -->
<g id="edge8" class="edge">
<title>Node1&#45;&gt;Node6</title>
<path fill="none" stroke="midnightblue" d="M677.51,-343.45C775.38,-339.5 1010.11,-327.41 1084,-300 1124.69,-284.91 1143.96,-282.5 1164,-244 1217.68,-140.91 1018.32,-92.03 921.23,-74.7"/>
<polygon fill="midnightblue" stroke="midnightblue" points="921.77,-71.24 911.32,-72.97 920.58,-78.14 921.77,-71.24"/>
</g>
<!-- Node7 -->
<g id="node7" class="node">
<title>Node7</title>
<g id="a_node7"><a xlink:href="densesystem_8hpp.html" target="_top" xlink:title="ALGEBRA::DenseSystem source file.">
<polygon fill="none" stroke="black" points="567,-280.5 567,-299.5 701,-299.5 701,-280.5 567,-280.5"/>
<text text-anchor="middle" x="634" y="-287.5" font-family="Helvetica,sans-Serif" font-size="10.00">../algebra/densesystem.hpp</text>
</a>
</g>
</g>
<!-- Node1&#45;&gt;Node7 -->
<g id="edge9" class="edge">
<title>Node1&#45;&gt;Node7</title>
<path fill="none" stroke="midnightblue" d="M634,-336.08C634,-329.01 634,-318.86 634,-309.99"/>
<polygon fill="midnightblue" stroke="midnightblue" points="637.5,-309.75 634,-299.75 630.5,-309.75 637.5,-309.75"/>
</g>
<!-- Node12 -->
<g id="node12" class="node">
<title>Node12</title>
<g id="a_node12"><a xlink:href="sparsesystem_8hpp.html" target="_top" xlink:title="ALGEBRA::SparseSystem source file.">
<polygon fill="none" stroke="black" points="545.5,-112.5 545.5,-131.5 682.5,-131.5 682.5,-112.5 545.5,-112.5"/>
<text text-anchor="middle" x="614" y="-119.5" font-family="Helvetica,sans-Serif" font-size="10.00">../algebra/sparsesystem.hpp</text>
</a>
</g>
</g>
<!-- Node1&#45;&gt;Node12 -->
<g id="edge60" class="edge">
<title>Node1&#45;&gt;Node12</title>
<path fill="none" stroke="midnightblue" d="M677.72,-343.98C821.3,-339.24 1261.73,-312.83 1129,-168 1100.16,-136.53 829.78,-126.98 692.78,-124.15"/>
<polygon fill="midnightblue" stroke="midnightblue" points="692.82,-120.65 682.75,-123.95 692.68,-127.65 692.82,-120.65"/>
</g>
<!-- Node5 -->
<g id="node5" class="node">
<title>Node5</title>
<g id="a_node5"><a xlink:title=" ">
<polygon fill="none" stroke="#bfbfbf" points="1052.5,-0.5 1052.5,-19.5 1093.5,-19.5 1093.5,-0.5 1052.5,-0.5"/>
<text text-anchor="middle" x="1073" y="-7.5" font-family="Helvetica,sans-Serif" font-size="10.00">string</text>
</a>
</g>
</g>
<!-- Node4&#45;&gt;Node5 -->
<g id="edge4" class="edge">
<title>Node4&#45;&gt;Node5</title>
<path fill="none" stroke="midnightblue" d="M1213.07,-112.37C1187.1,-93.57 1125.19,-48.77 1093.08,-25.53"/>
<polygon fill="midnightblue" stroke="midnightblue" points="1095.02,-22.62 1084.87,-19.59 1090.92,-28.29 1095.02,-22.62"/>
</g>
<!-- Node4&#45;&gt;Node6 -->
<g id="edge5" class="edge">
<title>Node4&#45;&gt;Node6</title>
<path fill="none" stroke="midnightblue" d="M1196.59,-114.64C1192.05,-113.7 1187.4,-112.79 1183,-112 1091.08,-95.54 983.09,-81.03 921.28,-73.18"/>
<polygon fill="midnightblue" stroke="midnightblue" points="921.39,-69.67 911.03,-71.89 920.52,-76.62 921.39,-69.67"/>
</g>
<!-- Node6&#45;&gt;Node2 -->
<g id="edge6" class="edge">
<title>Node6&#45;&gt;Node2</title>
<path fill="none" stroke="midnightblue" d="M830.61,-61.16C723.24,-50.95 432.36,-23.3 335.14,-14.06"/>
<polygon fill="midnightblue" stroke="midnightblue" points="335.33,-10.56 325.04,-13.1 334.66,-17.53 335.33,-10.56"/>
</g>
<!-- Node6&#45;&gt;Node5 -->
<g id="edge7" class="edge">
<title>Node6&#45;&gt;Node5</title>
<path fill="none" stroke="midnightblue" d="M903.01,-56.44C941.24,-46.22 1004.74,-29.25 1042.36,-19.19"/>
<polygon fill="midnightblue" stroke="midnightblue" points="1043.49,-22.51 1052.24,-16.55 1041.68,-15.75 1043.49,-22.51"/>
</g>
<!-- Node8 -->
<g id="node8" class="node">
<title>Node8</title>
<g id="a_node8"><a xlink:title=" ">
<polygon fill="none" stroke="#bfbfbf" points="602.5,-224.5 602.5,-243.5 673.5,-243.5 673.5,-224.5 602.5,-224.5"/>
<text text-anchor="middle" x="638" y="-231.5" font-family="Helvetica,sans-Serif" font-size="10.00">Eigen/Dense</text>
</a>
</g>
</g>
<!-- Node7&#45;&gt;Node8 -->
<g id="edge10" class="edge">
<title>Node7&#45;&gt;Node8</title>
<path fill="none" stroke="midnightblue" d="M634.66,-280.08C635.18,-273.01 635.94,-262.86 636.59,-253.99"/>
<polygon fill="midnightblue" stroke="midnightblue" points="640.1,-253.98 637.35,-243.75 633.12,-253.47 640.1,-253.98"/>
</g>
<!-- Node9 -->
<g id="node9" class="node">
<title>Node9</title>
<g id="a_node9"><a xlink:href="model_8hpp.html" target="_top" xlink:title="MODEL::Model source file.">
<polygon fill="none" stroke="black" points="692,-224.5 692,-243.5 790,-243.5 790,-224.5 692,-224.5"/>
<text text-anchor="middle" x="741" y="-231.5" font-family="Helvetica,sans-Serif" font-size="10.00">../model/model.hpp</text>
</a>
</g>
</g>
<!-- Node7&#45;&gt;Node9 -->
<g id="edge11" class="edge">
<title>Node7&#45;&gt;Node9</title>
<path fill="none" stroke="midnightblue" d="M646.08,-280.32C661.5,-271.59 688.17,-258 709.42,-247.98"/>
<polygon fill="midnightblue" stroke="midnightblue" points="711.14,-251.04 718.74,-243.65 708.2,-244.69 711.14,-251.04"/>
</g>
<!-- Node9&#45;&gt;Node3 -->
<g id="edge12" class="edge">
<title>Node9&#45;&gt;Node3</title>
<path fill="none" stroke="midnightblue" d="M790.06,-229.32C853.81,-223.9 968.6,-211.96 1075.44,-187.7"/>
<polygon fill="midnightblue" stroke="midnightblue" points="1076.46,-191.05 1085.42,-185.39 1074.89,-184.23 1076.46,-191.05"/>
</g>
<!-- Node9&#45;&gt;Node4 -->
<g id="edge31" class="edge">
<title>Node9&#45;&gt;Node4</title>
<path fill="none" stroke="midnightblue" d="M758.98,-224.38C795.44,-206.91 874.89,-168.91 878,-168 987.03,-135.94 1122.03,-126.71 1186.8,-124.06"/>
<polygon fill="midnightblue" stroke="midnightblue" points="1187.09,-127.55 1196.95,-123.67 1186.83,-120.55 1187.09,-127.55"/>
</g>
<!-- Node9&#45;&gt;Node6 -->
<g id="edge30" class="edge">
<title>Node9&#45;&gt;Node6</title>
<path fill="none" stroke="midnightblue" d="M755.65,-224.4C768.68,-216.24 787.69,-203 801,-188 829.61,-155.76 852.22,-110.01 863.38,-85.01"/>
<polygon fill="midnightblue" stroke="midnightblue" points="866.66,-86.24 867.45,-75.67 860.25,-83.45 866.66,-86.24"/>
</g>
<!-- Node9&#45;&gt;Node7 -->
<g id="edge15" class="edge">
<title>Node9&#45;&gt;Node7</title>
<path fill="none" stroke="midnightblue" d="M729.2,-243.52C713.72,-252.31 686.58,-266.13 665.14,-276.23"/>
<polygon fill="midnightblue" stroke="midnightblue" points="663.65,-273.06 656.04,-280.44 666.59,-279.42 663.65,-273.06"/>
</g>
<!-- Node10 -->
<g id="node10" class="node">
<title>Node10</title>
<g id="a_node10"><a xlink:title=" ">
<polygon fill="none" stroke="#bfbfbf" points="763.5,-168.5 763.5,-187.5 792.5,-187.5 792.5,-168.5 763.5,-168.5"/>
<text text-anchor="middle" x="778" y="-175.5" font-family="Helvetica,sans-Serif" font-size="10.00">list</text>
</a>
</g>
</g>
<!-- Node9&#45;&gt;Node10 -->
<g id="edge13" class="edge">
<title>Node9&#45;&gt;Node10</title>
<path fill="none" stroke="midnightblue" d="M747.11,-224.08C752.28,-216.53 759.85,-205.49 766.19,-196.23"/>
<polygon fill="midnightblue" stroke="midnightblue" points="769.24,-197.98 772,-187.75 763.46,-194.02 769.24,-197.98"/>
</g>
<!-- Node11 -->
<g id="node11" class="node">
<title>Node11</title>
<g id="a_node11"><a xlink:title=" ">
<polygon fill="none" stroke="#bfbfbf" points="643,-168.5 643,-187.5 689,-187.5 689,-168.5 643,-168.5"/>
<text text-anchor="middle" x="666" y="-175.5" font-family="Helvetica,sans-Serif" font-size="10.00">variant</text>
</a>
</g>
</g>
<!-- Node9&#45;&gt;Node11 -->
<g id="edge14" class="edge">
<title>Node9&#45;&gt;Node11</title>
<path fill="none" stroke="midnightblue" d="M728.95,-224.32C717.54,-216.11 700.17,-203.6 686.57,-193.81"/>
<polygon fill="midnightblue" stroke="midnightblue" points="688.43,-190.84 678.27,-187.83 684.34,-196.52 688.43,-190.84"/>
</g>
<!-- Node9&#45;&gt;Node12 -->
<g id="edge16" class="edge">
<title>Node9&#45;&gt;Node12</title>
<path fill="none" stroke="midnightblue" d="M731.42,-224.45C721.56,-211.01 707.4,-184.77 689,-168 674.11,-154.43 654.39,-143.59 638.77,-135.96"/>
<polygon fill="midnightblue" stroke="midnightblue" points="640.18,-132.75 629.65,-131.62 637.17,-139.07 640.18,-132.75"/>
</g>
<!-- Node16 -->
<g id="node16" class="node">
<title>Node16</title>
<g id="a_node16"><a xlink:href="junction_8hpp.html" target="_top" xlink:title="MODEL::Junction source file.">
<polygon fill="none" stroke="black" points="887,-168.5 887,-187.5 955,-187.5 955,-168.5 887,-168.5"/>
<text text-anchor="middle" x="921" y="-175.5" font-family="Helvetica,sans-Serif" font-size="10.00">junction.hpp</text>
</a>
</g>
</g>
<!-- Node9&#45;&gt;Node16 -->
<g id="edge21" class="edge">
<title>Node9&#45;&gt;Node16</title>
<path fill="none" stroke="midnightblue" d="M769.52,-224.44C800.07,-215.28 848.71,-200.69 882.6,-190.52"/>
<polygon fill="midnightblue" stroke="midnightblue" points="884.04,-193.74 892.61,-187.52 882.03,-187.04 884.04,-193.74"/>
</g>
<!-- Node17 -->
<g id="node17" class="node">
<title>Node17</title>
<g id="a_node17"><a xlink:href="bloodvessel_8hpp.html" target="_top" xlink:title="MODEL::BloodVessel source file.">
<polygon fill="none" stroke="black" points="539,-168.5 539,-187.5 625,-187.5 625,-168.5 539,-168.5"/>
<text text-anchor="middle" x="582" y="-175.5" font-family="Helvetica,sans-Serif" font-size="10.00">bloodvessel.hpp</text>
</a>
</g>
</g>
<!-- Node9&#45;&gt;Node17 -->
<g id="edge25" class="edge">
<title>Node9&#45;&gt;Node17</title>
<path fill="none" stroke="midnightblue" d="M715.81,-224.44C689.06,-215.36 646.6,-200.94 616.69,-190.78"/>
<polygon fill="midnightblue" stroke="midnightblue" points="617.67,-187.42 607.08,-187.52 615.42,-194.05 617.67,-187.42"/>
</g>
<!-- Node19 -->
<g id="node19" class="node">
<title>Node19</title>
<g id="a_node19"><a xlink:href="flowreferencebc_8hpp.html" target="_top" xlink:title="MODEL::FlowReferenceBC source file.">
<polygon fill="none" stroke="black" points="278.5,-168.5 278.5,-187.5 381.5,-187.5 381.5,-168.5 278.5,-168.5"/>
<text text-anchor="middle" x="330" y="-175.5" font-family="Helvetica,sans-Serif" font-size="10.00">flowreferencebc.hpp</text>
</a>
</g>
</g>
<!-- Node9&#45;&gt;Node19 -->
<g id="edge32" class="edge">
<title>Node9&#45;&gt;Node19</title>
<path fill="none" stroke="midnightblue" d="M691.76,-225.38C688.46,-224.9 685.18,-224.44 682,-224 555.63,-206.58 521.22,-205.73 391.61,-188.19"/>
<polygon fill="midnightblue" stroke="midnightblue" points="392.08,-184.72 381.7,-186.84 391.14,-191.66 392.08,-184.72"/>
</g>
<!-- Node22 -->
<g id="node22" class="node">
<title>Node22</title>
<g id="a_node22"><a xlink:href="pressurereferencebc_8hpp.html" target="_top" xlink:title="MODEL::PressureReferenceBC source file.">
<polygon fill="none" stroke="black" points="28.5,-168.5 28.5,-187.5 151.5,-187.5 151.5,-168.5 28.5,-168.5"/>
<text text-anchor="middle" x="90" y="-175.5" font-family="Helvetica,sans-Serif" font-size="10.00">pressurereferencebc.hpp</text>
</a>
</g>
</g>
<!-- Node9&#45;&gt;Node22 -->
<g id="edge41" class="edge">
<title>Node9&#45;&gt;Node22</title>
<path fill="none" stroke="midnightblue" d="M691.78,-225.18C688.48,-224.75 685.19,-224.35 682,-224 454.57,-198.84 393.72,-210.27 161.66,-188"/>
<polygon fill="midnightblue" stroke="midnightblue" points="161.84,-184.5 151.55,-187.02 161.16,-191.47 161.84,-184.5"/>
</g>
<!-- Node23 -->
<g id="node23" class="node">
<title>Node23</title>
<g id="a_node23"><a xlink:href="windkesselbc_8hpp.html" target="_top" xlink:title="MODEL::WindkesselBC source file.">
<polygon fill="none" stroke="black" points="973,-168.5 973,-187.5 1067,-187.5 1067,-168.5 973,-168.5"/>
<text text-anchor="middle" x="1020" y="-175.5" font-family="Helvetica,sans-Serif" font-size="10.00">windkesselbc.hpp</text>
</a>
</g>
</g>
<!-- Node9&#45;&gt;Node23 -->
<g id="edge46" class="edge">
<title>Node9&#45;&gt;Node23</title>
<path fill="none" stroke="midnightblue" d="M785.21,-224.44C834.29,-214.94 913.51,-199.61 966.16,-189.42"/>
<polygon fill="midnightblue" stroke="midnightblue" points="966.85,-192.85 976,-187.52 965.52,-185.98 966.85,-192.85"/>
</g>
<!-- Node24 -->
<g id="node24" class="node">
<title>Node24</title>
<g id="a_node24"><a xlink:href="resistancebc_8hpp.html" target="_top" xlink:title="MODEL::ResistanceBC source file.">
<polygon fill="none" stroke="black" points="170,-168.5 170,-187.5 260,-187.5 260,-168.5 170,-168.5"/>
<text text-anchor="middle" x="215" y="-175.5" font-family="Helvetica,sans-Serif" font-size="10.00">resistancebc.hpp</text>
</a>
</g>
</g>
<!-- Node9&#45;&gt;Node24 -->
<g id="edge50" class="edge">
<title>Node9&#45;&gt;Node24</title>
<path fill="none" stroke="midnightblue" d="M691.78,-225.25C688.47,-224.8 685.19,-224.38 682,-224 502.27,-202.48 453.49,-210.85 270.02,-188.03"/>
<polygon fill="midnightblue" stroke="midnightblue" points="270.4,-184.55 260.04,-186.78 269.53,-191.5 270.4,-184.55"/>
</g>
<!-- Node25 -->
<g id="node25" class="node">
<title>Node25</title>
<g id="a_node25"><a xlink:href="openloopcoronarybc_8hpp.html" target="_top" xlink:title="MODEL::OpenLoopCoronaryBC source file.">
<polygon fill="none" stroke="black" points="399.5,-168.5 399.5,-187.5 520.5,-187.5 520.5,-168.5 399.5,-168.5"/>
<text text-anchor="middle" x="460" y="-175.5" font-family="Helvetica,sans-Serif" font-size="10.00">openloopcoronarybc.hpp</text>
</a>
</g>
</g>
<!-- Node9&#45;&gt;Node25 -->
<g id="edge55" class="edge">
<title>Node9&#45;&gt;Node25</title>
<path fill="none" stroke="midnightblue" d="M696.47,-224.44C647.04,-214.94 567.25,-199.61 514.22,-189.42"/>
<polygon fill="midnightblue" stroke="midnightblue" points="514.8,-185.97 504.32,-187.52 513.48,-192.84 514.8,-185.97"/>
</g>
<!-- Node12&#45;&gt;Node9 -->
<g id="edge20" class="edge">
<title>Node12&#45;&gt;Node9</title>
<path fill="none" stroke="midnightblue" d="M644.24,-131.62C664,-139.21 689.03,-151.62 707,-168 721.66,-181.36 733.64,-200.74 739.5,-214.86"/>
<polygon fill="midnightblue" stroke="midnightblue" points="736.22,-216.09 742.73,-224.45 742.85,-213.85 736.22,-216.09"/>
</g>
<!-- Node13 -->
<g id="node13" class="node">
<title>Node13</title>
<g id="a_node13"><a xlink:title=" ">
<polygon fill="none" stroke="#bfbfbf" points="478,-56.5 478,-75.5 552,-75.5 552,-56.5 478,-56.5"/>
<text text-anchor="middle" x="515" y="-63.5" font-family="Helvetica,sans-Serif" font-size="10.00">Eigen/Sparse</text>
</a>
</g>
</g>
<!-- Node12&#45;&gt;Node13 -->
<g id="edge17" class="edge">
<title>Node12&#45;&gt;Node13</title>
<path fill="none" stroke="midnightblue" d="M598.09,-112.32C582.36,-103.74 558.06,-90.49 539.79,-80.52"/>
<polygon fill="midnightblue" stroke="midnightblue" points="541.32,-77.37 530.87,-75.65 537.97,-83.52 541.32,-77.37"/>
</g>
<!-- Node14 -->
<g id="node14" class="node">
<title>Node14</title>
<g id="a_node14"><a xlink:title=" ">
<polygon fill="none" stroke="#bfbfbf" points="570,-56.5 570,-75.5 658,-75.5 658,-56.5 570,-56.5"/>
<text text-anchor="middle" x="614" y="-63.5" font-family="Helvetica,sans-Serif" font-size="10.00">Eigen/SparseLU</text>
</a>
</g>
</g>
<!-- Node12&#45;&gt;Node14 -->
<g id="edge18" class="edge">
<title>Node12&#45;&gt;Node14</title>
<path fill="none" stroke="midnightblue" d="M614,-112.08C614,-105.01 614,-94.86 614,-85.99"/>
<polygon fill="midnightblue" stroke="midnightblue" points="617.5,-85.75 614,-75.75 610.5,-85.75 617.5,-85.75"/>
</g>
<!-- Node15 -->
<g id="node15" class="node">
<title>Node15</title>
<g id="a_node15"><a xlink:title=" ">
<polygon fill="none" stroke="#bfbfbf" points="676,-56.5 676,-75.5 730,-75.5 730,-56.5 676,-56.5"/>
<text text-anchor="middle" x="703" y="-63.5" font-family="Helvetica,sans-Serif" font-size="10.00">iostream</text>
</a>
</g>
</g>
<!-- Node12&#45;&gt;Node15 -->
<g id="edge19" class="edge">
<title>Node12&#45;&gt;Node15</title>
<path fill="none" stroke="midnightblue" d="M628.3,-112.32C642.18,-103.9 663.49,-90.97 679.8,-81.07"/>
<polygon fill="midnightblue" stroke="midnightblue" points="682,-83.83 688.74,-75.65 678.37,-77.85 682,-83.83"/>
</g>
<!-- Node16&#45;&gt;Node1 -->
<g id="edge24" class="edge">
<title>Node16&#45;&gt;Node1</title>
<path fill="none" stroke="midnightblue" d="M910.71,-187.62C894.84,-200.7 863.17,-225.93 834,-244 775.62,-280.17 702.65,-314.48 662.97,-332.3"/>
<polygon fill="midnightblue" stroke="midnightblue" points="661.34,-329.2 653.63,-336.47 664.19,-335.59 661.34,-329.2"/>
</g>
<!-- Node16&#45;&gt;Node7 -->
<g id="edge22" class="edge">
<title>Node16&#45;&gt;Node7</title>
<path fill="none" stroke="midnightblue" d="M907.22,-187.67C885.11,-201.26 840.04,-227.71 799,-244 761.86,-258.74 718.17,-270.42 685.08,-278.18"/>
<polygon fill="midnightblue" stroke="midnightblue" points="684.13,-274.81 675.17,-280.47 685.7,-281.63 684.13,-274.81"/>
</g>
<!-- Node16&#45;&gt;Node12 -->
<g id="edge23" class="edge">
<title>Node16&#45;&gt;Node12</title>
<path fill="none" stroke="midnightblue" d="M886.97,-171.01C835.18,-161.9 735.9,-144.44 672.42,-133.28"/>
<polygon fill="midnightblue" stroke="midnightblue" points="673,-129.82 662.55,-131.54 671.79,-136.72 673,-129.82"/>
</g>
<!-- Node17&#45;&gt;Node1 -->
<g id="edge27" class="edge">
<title>Node17&#45;&gt;Node1</title>
<path fill="none" stroke="midnightblue" d="M576.57,-187.55C564.18,-208.28 536.47,-262.23 558,-300 566.41,-314.75 581.77,-325.16 596.48,-332.23"/>
<polygon fill="midnightblue" stroke="midnightblue" points="595.42,-335.58 605.98,-336.4 598.24,-329.17 595.42,-335.58"/>
</g>
<!-- Node17&#45;&gt;Node7 -->
<g id="edge28" class="edge">
<title>Node17&#45;&gt;Node7</title>
<path fill="none" stroke="midnightblue" d="M581.95,-187.89C582.21,-200.87 583.98,-225.48 593,-244 598.4,-255.09 607.4,-265.42 615.59,-273.38"/>
<polygon fill="midnightblue" stroke="midnightblue" points="613.32,-276.05 623.05,-280.23 618.05,-270.89 613.32,-276.05"/>
</g>
<!-- Node17&#45;&gt;Node12 -->
<g id="edge29" class="edge">
<title>Node17&#45;&gt;Node12</title>
<path fill="none" stroke="midnightblue" d="M587.28,-168.08C591.71,-160.61 598.16,-149.72 603.62,-140.52"/>
<polygon fill="midnightblue" stroke="midnightblue" points="606.73,-142.14 608.81,-131.75 600.71,-138.57 606.73,-142.14"/>
</g>
<!-- Node18 -->
<g id="node18" class="node">
<title>Node18</title>
<g id="a_node18"><a xlink:title=" ">
<polygon fill="none" stroke="#bfbfbf" points="410,-56.5 410,-75.5 456,-75.5 456,-56.5 410,-56.5"/>
<text text-anchor="middle" x="433" y="-63.5" font-family="Helvetica,sans-Serif" font-size="10.00">math.h</text>
</a>
</g>
</g>
<!-- Node17&#45;&gt;Node18 -->
<g id="edge26" class="edge">
<title>Node17&#45;&gt;Node18</title>
<path fill="none" stroke="midnightblue" d="M570.31,-168.37C544.85,-149.57 484.16,-104.77 452.69,-81.53"/>
<polygon fill="midnightblue" stroke="midnightblue" points="454.76,-78.72 444.64,-75.59 450.6,-84.35 454.76,-78.72"/>
</g>
<!-- Node19&#45;&gt;Node1 -->
<g id="edge35" class="edge">
<title>Node19&#45;&gt;Node1</title>
<path fill="none" stroke="midnightblue" d="M342.44,-187.65C372.85,-208.57 453.77,-262.95 526,-300 550.45,-312.54 579.22,-324.39 600.91,-332.78"/>
<polygon fill="midnightblue" stroke="midnightblue" points="599.75,-336.09 610.34,-336.39 602.25,-329.55 599.75,-336.09"/>
</g>
<!-- Node19&#45;&gt;Node7 -->
<g id="edge33" class="edge">
<title>Node19&#45;&gt;Node7</title>
<path fill="none" stroke="midnightblue" d="M353.8,-187.61C407.63,-207.09 538.9,-254.59 600.74,-276.97"/>
<polygon fill="midnightblue" stroke="midnightblue" points="599.8,-280.35 610.4,-280.46 602.19,-273.77 599.8,-280.35"/>
</g>
<!-- Node19&#45;&gt;Node12 -->
<g id="edge34" class="edge">
<title>Node19&#45;&gt;Node12</title>
<path fill="none" stroke="midnightblue" d="M375,-168.44C424.96,-158.94 505.6,-143.61 559.2,-133.42"/>
<polygon fill="midnightblue" stroke="midnightblue" points="560.04,-136.82 569.21,-131.52 558.73,-129.95 560.04,-136.82"/>
</g>
<!-- Node20 -->
<g id="node20" class="node">
<title>Node20</title>
<g id="a_node20"><a xlink:href="timedependentparameter_8hpp.html" target="_top" xlink:title="MODEL::TimeDependentParameter source file.">
<polygon fill="none" stroke="black" points="268,-112.5 268,-131.5 410,-131.5 410,-112.5 268,-112.5"/>
<text text-anchor="middle" x="339" y="-119.5" font-family="Helvetica,sans-Serif" font-size="10.00">timedependentparameter.hpp</text>
</a>
</g>
</g>
<!-- Node19&#45;&gt;Node20 -->
<g id="edge36" class="edge">
<title>Node19&#45;&gt;Node20</title>
<path fill="none" stroke="midnightblue" d="M331.49,-168.08C332.68,-160.93 334.39,-150.64 335.88,-141.69"/>
<polygon fill="midnightblue" stroke="midnightblue" points="339.35,-142.19 337.54,-131.75 332.45,-141.04 339.35,-142.19"/>
</g>
<!-- Node20&#45;&gt;Node2 -->
<g id="edge38" class="edge">
<title>Node20&#45;&gt;Node2</title>
<path fill="none" stroke="midnightblue" d="M335.54,-112.44C331.96,-103.44 326.29,-88.83 322,-76 316.81,-60.49 311.66,-42.65 308.03,-29.59"/>
<polygon fill="midnightblue" stroke="midnightblue" points="311.39,-28.62 305.37,-19.9 304.64,-30.47 311.39,-28.62"/>
</g>
<!-- Node20&#45;&gt;Node6 -->
<g id="edge40" class="edge">
<title>Node20&#45;&gt;Node6</title>
<path fill="none" stroke="midnightblue" d="M410.2,-113.77C519.36,-102.69 725.41,-81.78 820.54,-72.12"/>
<polygon fill="midnightblue" stroke="midnightblue" points="821.16,-75.58 830.75,-71.09 820.45,-68.61 821.16,-75.58"/>
</g>
<!-- Node20&#45;&gt;Node18 -->
<g id="edge37" class="edge">
<title>Node20&#45;&gt;Node18</title>
<path fill="none" stroke="midnightblue" d="M354.1,-112.32C368.9,-103.82 391.69,-90.73 408.98,-80.8"/>
<polygon fill="midnightblue" stroke="midnightblue" points="411.01,-83.67 417.93,-75.65 407.52,-77.6 411.01,-83.67"/>
</g>
<!-- Node21 -->
<g id="node21" class="node">
<title>Node21</title>
<g id="a_node21"><a xlink:title=" ">
<polygon fill="none" stroke="#bfbfbf" points="331.5,-56.5 331.5,-75.5 382.5,-75.5 382.5,-56.5 331.5,-56.5"/>
<text text-anchor="middle" x="357" y="-63.5" font-family="Helvetica,sans-Serif" font-size="10.00">numeric</text>
</a>
</g>
</g>
<!-- Node20&#45;&gt;Node21 -->
<g id="edge39" class="edge">
<title>Node20&#45;&gt;Node21</title>
<path fill="none" stroke="midnightblue" d="M341.97,-112.08C344.38,-104.85 347.86,-94.41 350.87,-85.4"/>
<polygon fill="midnightblue" stroke="midnightblue" points="354.24,-86.34 354.08,-75.75 347.6,-84.13 354.24,-86.34"/>
</g>
<!-- Node22&#45;&gt;Node1 -->
<g id="edge44" class="edge">
<title>Node22&#45;&gt;Node1</title>
<path fill="none" stroke="midnightblue" d="M111.52,-187.52C165.37,-208.63 310.55,-264.23 435,-300 483.64,-313.98 539.98,-326.37 580.27,-334.6"/>
<polygon fill="midnightblue" stroke="midnightblue" points="579.66,-338.04 590.16,-336.6 581.05,-331.18 579.66,-338.04"/>
</g>
<!-- Node22&#45;&gt;Node7 -->
<g id="edge42" class="edge">
<title>Node22&#45;&gt;Node7</title>
<path fill="none" stroke="midnightblue" d="M125.1,-187.58C178.92,-200.6 285.14,-225.76 376,-244 442.03,-257.25 518.03,-270.24 570.35,-278.82"/>
<polygon fill="midnightblue" stroke="midnightblue" points="570.05,-282.32 580.49,-280.48 571.18,-275.41 570.05,-282.32"/>
</g>
<!-- Node22&#45;&gt;Node12 -->
<g id="edge43" class="edge">
<title>Node22&#45;&gt;Node12</title>
<path fill="none" stroke="midnightblue" d="M151.56,-169.09C154.75,-168.72 157.91,-168.35 161,-168 292.01,-153.19 444.64,-138.57 535.08,-130.19"/>
<polygon fill="midnightblue" stroke="midnightblue" points="535.62,-133.65 545.25,-129.25 534.97,-126.68 535.62,-133.65"/>
</g>
<!-- Node22&#45;&gt;Node20 -->
<g id="edge45" class="edge">
<title>Node22&#45;&gt;Node20</title>
<path fill="none" stroke="midnightblue" d="M129.45,-168.44C172.89,-159.02 242.79,-143.87 289.78,-133.68"/>
<polygon fill="midnightblue" stroke="midnightblue" points="290.7,-137.06 299.73,-131.52 289.22,-130.22 290.7,-137.06"/>
</g>
<!-- Node23&#45;&gt;Node1 -->
<g id="edge49" class="edge">
<title>Node23&#45;&gt;Node1</title>
<path fill="none" stroke="midnightblue" d="M1003.66,-187.6C963.74,-208.44 857.84,-262.62 766,-300 734.78,-312.71 698.48,-324.9 671.86,-333.38"/>
<polygon fill="midnightblue" stroke="midnightblue" points="670.64,-330.1 662.16,-336.45 672.75,-336.77 670.64,-330.1"/>
</g>
<!-- Node23&#45;&gt;Node7 -->
<g id="edge47" class="edge">
<title>Node23&#45;&gt;Node7</title>
<path fill="none" stroke="midnightblue" d="M998.22,-187.53C963.75,-200.82 894.35,-226.73 834,-244 785.42,-257.9 729.22,-270.23 688.78,-278.44"/>
<polygon fill="midnightblue" stroke="midnightblue" points="687.97,-275.04 678.85,-280.44 689.35,-281.9 687.97,-275.04"/>
</g>
<!-- Node23&#45;&gt;Node12 -->
<g id="edge48" class="edge">
<title>Node23&#45;&gt;Node12</title>
<path fill="none" stroke="midnightblue" d="M972.96,-169.33C969.93,-168.87 966.92,-168.42 964,-168 871.1,-154.57 764.03,-141.09 693.03,-132.44"/>
<polygon fill="midnightblue" stroke="midnightblue" points="693.17,-128.93 682.82,-131.2 692.33,-135.88 693.17,-128.93"/>
</g>
<!-- Node24&#45;&gt;Node1 -->
<g id="edge53" class="edge">
<title>Node24&#45;&gt;Node1</title>
<path fill="none" stroke="midnightblue" d="M232.2,-187.53C274.72,-208.43 388.48,-263.16 487,-300 521.89,-313.04 562.42,-325.24 592.08,-333.63"/>
<polygon fill="midnightblue" stroke="midnightblue" points="591.51,-337.11 602.08,-336.44 593.4,-330.37 591.51,-337.11"/>
</g>
<!-- Node24&#45;&gt;Node7 -->
<g id="edge51" class="edge">
<title>Node24&#45;&gt;Node7</title>
<path fill="none" stroke="midnightblue" d="M245.1,-187.58C289.89,-200.28 376.77,-224.66 451,-244 497.59,-256.14 551.09,-269.2 588.16,-278.1"/>
<polygon fill="midnightblue" stroke="midnightblue" points="587.62,-281.57 598.16,-280.5 589.25,-274.76 587.62,-281.57"/>
</g>
<!-- Node24&#45;&gt;Node12 -->
<g id="edge52" class="edge">
<title>Node24&#45;&gt;Node12</title>
<path fill="none" stroke="midnightblue" d="M260.06,-169.37C263.09,-168.89 266.09,-168.43 269,-168 360.26,-154.45 465.43,-141.05 535.43,-132.44"/>
<polygon fill="midnightblue" stroke="midnightblue" points="536,-135.9 545.5,-131.21 535.14,-128.95 536,-135.9"/>
</g>
<!-- Node24&#45;&gt;Node20 -->
<g id="edge54" class="edge">
<title>Node24&#45;&gt;Node20</title>
<path fill="none" stroke="midnightblue" d="M234.65,-168.44C254.96,-159.6 286.9,-145.69 310.1,-135.59"/>
<polygon fill="midnightblue" stroke="midnightblue" points="311.67,-138.72 319.44,-131.52 308.88,-132.3 311.67,-138.72"/>
</g>
<!-- Node25&#45;&gt;Node1 -->
<g id="edge58" class="edge">
<title>Node25&#45;&gt;Node1</title>
<path fill="none" stroke="midnightblue" d="M464.45,-187.66C475.82,-209.1 507.89,-265.38 548,-300 563.78,-313.62 584.4,-324.59 601.49,-332.28"/>
<polygon fill="midnightblue" stroke="midnightblue" points="600.51,-335.67 611.08,-336.43 603.29,-329.25 600.51,-335.67"/>
</g>
<!-- Node25&#45;&gt;Node7 -->
<g id="edge56" class="edge">
<title>Node25&#45;&gt;Node7</title>
<path fill="none" stroke="midnightblue" d="M473.59,-187.59C503.52,-206.51 575.34,-251.92 611.87,-275.01"/>
<polygon fill="midnightblue" stroke="midnightblue" points="610.02,-277.98 620.35,-280.37 613.76,-272.07 610.02,-277.98"/>
</g>
<!-- Node25&#45;&gt;Node12 -->
<g id="edge57" class="edge">
<title>Node25&#45;&gt;Node12</title>
<path fill="none" stroke="midnightblue" d="M484.4,-168.44C510.2,-159.4 551.08,-145.06 580.02,-134.92"/>
<polygon fill="midnightblue" stroke="midnightblue" points="581.43,-138.13 589.71,-131.52 579.12,-131.52 581.43,-138.13"/>
</g>
<!-- Node25&#45;&gt;Node20 -->
<g id="edge59" class="edge">
<title>Node25&#45;&gt;Node20</title>
<path fill="none" stroke="midnightblue" d="M440.83,-168.44C421.09,-159.64 390.11,-145.81 367.51,-135.72"/>
<polygon fill="midnightblue" stroke="midnightblue" points="368.64,-132.4 358.08,-131.52 365.79,-138.79 368.64,-132.4"/>
</g>
</g>
</svg>
