<?xml version="1.0" encoding="UTF-8" standalone="no"?>
<!DOCTYPE svg PUBLIC "-//W3C//DTD SVG 1.1//EN"
 "http://www.w3.org/Graphics/SVG/1.1/DTD/svg11.dtd">
<!-- Generated by graphviz version 3.0.0 (20220413.0242)
 -->
<!-- Title: model/block.hpp Pages: 1 -->
<svg width="580pt" height="308pt"
 viewBox="0.00 0.00 579.50 308.00" xmlns="http://www.w3.org/2000/svg" xmlns:xlink="http://www.w3.org/1999/xlink">
<g id="graph0" class="graph" transform="scale(1 1) rotate(0) translate(4 304)">
<title>model/block.hpp</title>
<!-- Node1 -->
<g id="node1" class="node">
<title>Node1</title>
<g id="a_node1"><a xlink:title="MODEL::Block source file.">
<polygon fill="#bfbfbf" stroke="black" points="319,-280.5 319,-299.5 406,-299.5 406,-280.5 319,-280.5"/>
<text text-anchor="middle" x="362.5" y="-287.5" font-family="Helvetica,sans-Serif" font-size="10.00">model/block.hpp</text>
</a>
</g>
</g>
<!-- Node2 -->
<g id="node2" class="node">
<title>Node2</title>
<g id="a_node2"><a xlink:title=" ">
<polygon fill="none" stroke="#bfbfbf" points="0,-224.5 0,-243.5 35,-243.5 35,-224.5 0,-224.5"/>
<text text-anchor="middle" x="17.5" y="-231.5" font-family="Helvetica,sans-Serif" font-size="10.00">map</text>
</a>
</g>
</g>
<!-- Node1&#45;&gt;Node2 -->
<g id="edge1" class="edge">
<title>Node1&#45;&gt;Node2</title>
<path fill="none" stroke="midnightblue" d="M318.89,-284.56C258.12,-277.96 144.7,-264.14 49.5,-244 48.02,-243.69 46.5,-243.34 44.98,-242.98"/>
<polygon fill="midnightblue" stroke="midnightblue" points="45.56,-239.51 35,-240.37 43.79,-246.29 45.56,-239.51"/>
</g>
<!-- Node3 -->
<g id="node3" class="node">
<title>Node3</title>
<g id="a_node3"><a xlink:title=" ">
<polygon fill="none" stroke="#bfbfbf" points="268.5,-0.5 268.5,-19.5 312.5,-19.5 312.5,-0.5 268.5,-0.5"/>
<text text-anchor="middle" x="290.5" y="-7.5" font-family="Helvetica,sans-Serif" font-size="10.00">vector</text>
</a>
</g>
</g>
<!-- Node1&#45;&gt;Node3 -->
<g id="edge2" class="edge">
<title>Node1&#45;&gt;Node3</title>
<path fill="none" stroke="midnightblue" d="M318.7,-282.26C235.65,-268.25 63.5,-232.72 63.5,-179 63.5,-179 63.5,-179 63.5,-121 63.5,-35.51 195.49,-16.44 258.18,-12.2"/>
<polygon fill="midnightblue" stroke="midnightblue" points="258.54,-15.69 268.32,-11.6 258.13,-8.7 258.54,-15.69"/>
</g>
<!-- Node4 -->
<g id="node4" class="node">
<title>Node4</title>
<g id="a_node4"><a xlink:href="sparsesystem_8hpp.html" target="_top" xlink:title="ALGEBRA::SparseSystem source file.">
<polygon fill="none" stroke="black" points="246,-224.5 246,-243.5 383,-243.5 383,-224.5 246,-224.5"/>
<text text-anchor="middle" x="314.5" y="-231.5" font-family="Helvetica,sans-Serif" font-size="10.00">../algebra/sparsesystem.hpp</text>
</a>
</g>
</g>
<!-- Node1&#45;&gt;Node4 -->
<g id="edge3" class="edge">
<title>Node1&#45;&gt;Node4</title>
<path fill="none" stroke="midnightblue" d="M354.57,-280.08C347.65,-272.3 337.43,-260.8 329.05,-251.37"/>
<polygon fill="midnightblue" stroke="midnightblue" points="331.54,-248.9 322.28,-243.75 326.31,-253.55 331.54,-248.9"/>
</g>
<!-- Node11 -->
<g id="node11" class="node">
<title>Node11</title>
<g id="a_node11"><a xlink:href="dofhandler_8hpp.html" target="_top" xlink:title="MODEL::DOFHandler source file.">
<polygon fill="none" stroke="black" points="435.5,-56.5 435.5,-75.5 515.5,-75.5 515.5,-56.5 435.5,-56.5"/>
<text text-anchor="middle" x="475.5" y="-63.5" font-family="Helvetica,sans-Serif" font-size="10.00">dofhandler.hpp</text>
</a>
</g>
</g>
<!-- Node1&#45;&gt;Node11 -->
<g id="edge19" class="edge">
<title>Node1&#45;&gt;Node11</title>
<path fill="none" stroke="midnightblue" d="M377.1,-280.34C401.17,-265.14 448.53,-231.13 468.5,-188 483.92,-154.7 481.58,-110.62 478.52,-85.9"/>
<polygon fill="midnightblue" stroke="midnightblue" points="481.95,-85.14 477.08,-75.73 475.02,-86.12 481.95,-85.14"/>
</g>
<!-- Node13 -->
<g id="node13" class="node">
<title>Node13</title>
<g id="a_node13"><a xlink:href="node_8hpp.html" target="_top" xlink:title="MODEL::Node source file.">
<polygon fill="none" stroke="black" points="515.5,-112.5 515.5,-131.5 571.5,-131.5 571.5,-112.5 515.5,-112.5"/>
<text text-anchor="middle" x="543.5" y="-119.5" font-family="Helvetica,sans-Serif" font-size="10.00">node.hpp</text>
</a>
</g>
</g>
<!-- Node1&#45;&gt;Node13 -->
<g id="edge20" class="edge">
<title>Node1&#45;&gt;Node13</title>
<path fill="none" stroke="midnightblue" d="M406.3,-285.01C436.66,-280.05 476.04,-268.93 501.5,-244 529.87,-216.22 539.1,-168.32 542.08,-141.89"/>
<polygon fill="midnightblue" stroke="midnightblue" points="545.59,-141.98 543.04,-131.7 538.62,-141.32 545.59,-141.98"/>
</g>
<!-- Node5 -->
<g id="node5" class="node">
<title>Node5</title>
<g id="a_node5"><a xlink:title=" ">
<polygon fill="none" stroke="#bfbfbf" points="91.5,-168.5 91.5,-187.5 165.5,-187.5 165.5,-168.5 91.5,-168.5"/>
<text text-anchor="middle" x="128.5" y="-175.5" font-family="Helvetica,sans-Serif" font-size="10.00">Eigen/Sparse</text>
</a>
</g>
</g>
<!-- Node4&#45;&gt;Node5 -->
<g id="edge4" class="edge">
<title>Node4&#45;&gt;Node5</title>
<path fill="none" stroke="midnightblue" d="M285.03,-224.44C253.33,-215.24 202.77,-200.56 167.73,-190.39"/>
<polygon fill="midnightblue" stroke="midnightblue" points="168.41,-186.94 157.83,-187.52 166.46,-193.67 168.41,-186.94"/>
</g>
<!-- Node6 -->
<g id="node6" class="node">
<title>Node6</title>
<g id="a_node6"><a xlink:title=" ">
<polygon fill="none" stroke="#bfbfbf" points="183.5,-168.5 183.5,-187.5 271.5,-187.5 271.5,-168.5 183.5,-168.5"/>
<text text-anchor="middle" x="227.5" y="-175.5" font-family="Helvetica,sans-Serif" font-size="10.00">Eigen/SparseLU</text>
</a>
</g>
</g>
<!-- Node4&#45;&gt;Node6 -->
<g id="edge5" class="edge">
<title>Node4&#45;&gt;Node6</title>
<path fill="none" stroke="midnightblue" d="M300.52,-224.32C286.95,-215.9 266.12,-202.97 250.18,-193.07"/>
<polygon fill="midnightblue" stroke="midnightblue" points="251.79,-189.95 241.44,-187.65 248.09,-195.9 251.79,-189.95"/>
</g>
<!-- Node7 -->
<g id="node7" class="node">
<title>Node7</title>
<g id="a_node7"><a xlink:title=" ">
<polygon fill="none" stroke="#bfbfbf" points="289.5,-168.5 289.5,-187.5 343.5,-187.5 343.5,-168.5 289.5,-168.5"/>
<text text-anchor="middle" x="316.5" y="-175.5" font-family="Helvetica,sans-Serif" font-size="10.00">iostream</text>
</a>
</g>
</g>
<!-- Node4&#45;&gt;Node7 -->
<g id="edge6" class="edge">
<title>Node4&#45;&gt;Node7</title>
<path fill="none" stroke="midnightblue" d="M314.83,-224.08C315.09,-217.01 315.47,-206.86 315.8,-197.99"/>
<polygon fill="midnightblue" stroke="midnightblue" points="319.3,-197.87 316.18,-187.75 312.31,-197.61 319.3,-197.87"/>
</g>
<!-- Node8 -->
<g id="node8" class="node">
<title>Node8</title>
<g id="a_node8"><a xlink:href="model_8hpp.html" target="_top" xlink:title="MODEL::Model source file.">
<polygon fill="none" stroke="black" points="361.5,-168.5 361.5,-187.5 459.5,-187.5 459.5,-168.5 361.5,-168.5"/>
<text text-anchor="middle" x="410.5" y="-175.5" font-family="Helvetica,sans-Serif" font-size="10.00">../model/model.hpp</text>
</a>
</g>
</g>
<!-- Node4&#45;&gt;Node8 -->
<g id="edge7" class="edge">
<title>Node4&#45;&gt;Node8</title>
<path fill="none" stroke="midnightblue" d="M324.81,-224.32C338.33,-215.66 361.93,-202.24 381.04,-192.25"/>
<polygon fill="midnightblue" stroke="midnightblue" points="382.7,-195.33 390,-187.65 379.51,-189.1 382.7,-195.33"/>
</g>
<!-- Node8&#45;&gt;Node1 -->
<g id="edge12" class="edge">
<title>Node8&#45;&gt;Node1</title>
<path fill="none" stroke="midnightblue" d="M409,-187.72C406.61,-200.48 401.27,-224.83 392.5,-244 388.02,-253.8 381.52,-263.86 375.72,-271.98"/>
<polygon fill="midnightblue" stroke="midnightblue" points="372.77,-270.08 369.61,-280.2 378.38,-274.26 372.77,-270.08"/>
</g>
<!-- Node8&#45;&gt;Node3 -->
<g id="edge10" class="edge">
<title>Node8&#45;&gt;Node3</title>
<path fill="none" stroke="midnightblue" d="M390.95,-168.49C375.46,-160.89 354.2,-148.41 340.5,-132 314.61,-100.99 300.57,-54.73 294.41,-29.33"/>
<polygon fill="midnightblue" stroke="midnightblue" points="297.81,-28.51 292.17,-19.54 290.98,-30.07 297.81,-28.51"/>
</g>
<!-- Node8&#45;&gt;Node4 -->
<g id="edge11" class="edge">
<title>Node8&#45;&gt;Node4</title>
<path fill="none" stroke="midnightblue" d="M400.22,-187.65C386.72,-196.31 363.13,-209.73 344,-219.73"/>
<polygon fill="midnightblue" stroke="midnightblue" points="342.34,-216.65 335.04,-224.32 345.53,-222.87 342.34,-216.65"/>
</g>
<!-- Node9 -->
<g id="node9" class="node">
<title>Node9</title>
<g id="a_node9"><a xlink:title=" ">
<polygon fill="none" stroke="#bfbfbf" points="403.5,-112.5 403.5,-131.5 459.5,-131.5 459.5,-112.5 403.5,-112.5"/>
<text text-anchor="middle" x="431.5" y="-119.5" font-family="Helvetica,sans-Serif" font-size="10.00">algorithm</text>
</a>
</g>
</g>
<!-- Node8&#45;&gt;Node9 -->
<g id="edge8" class="edge">
<title>Node8&#45;&gt;Node9</title>
<path fill="none" stroke="midnightblue" d="M413.97,-168.08C416.81,-160.77 420.93,-150.18 424.46,-141.1"/>
<polygon fill="midnightblue" stroke="midnightblue" points="427.73,-142.34 428.1,-131.75 421.21,-139.8 427.73,-142.34"/>
</g>
<!-- Node10 -->
<g id="node10" class="node">
<title>Node10</title>
<g id="a_node10"><a xlink:title=" ">
<polygon fill="none" stroke="#bfbfbf" points="357,-112.5 357,-131.5 386,-131.5 386,-112.5 357,-112.5"/>
<text text-anchor="middle" x="371.5" y="-119.5" font-family="Helvetica,sans-Serif" font-size="10.00">list</text>
</a>
</g>
</g>
<!-- Node8&#45;&gt;Node10 -->
<g id="edge9" class="edge">
<title>Node8&#45;&gt;Node10</title>
<path fill="none" stroke="midnightblue" d="M404.06,-168.08C398.55,-160.46 390.47,-149.26 383.74,-139.94"/>
<polygon fill="midnightblue" stroke="midnightblue" points="386.51,-137.81 377.82,-131.75 380.84,-141.91 386.51,-137.81"/>
</g>
<!-- Node8&#45;&gt;Node11 -->
<g id="edge13" class="edge">
<title>Node8&#45;&gt;Node11</title>
<path fill="none" stroke="midnightblue" d="M391.48,-168.49C367.91,-156.73 332.66,-134.42 348.5,-112 365.87,-87.41 397.87,-76.18 425.41,-71.08"/>
<polygon fill="midnightblue" stroke="midnightblue" points="426,-74.53 435.31,-69.46 424.88,-67.62 426,-74.53"/>
</g>
<!-- Node8&#45;&gt;Node13 -->
<g id="edge16" class="edge">
<title>Node8&#45;&gt;Node13</title>
<path fill="none" stroke="midnightblue" d="M431.57,-168.44C453.56,-159.52 488.23,-145.44 513.16,-135.32"/>
<polygon fill="midnightblue" stroke="midnightblue" points="514.58,-138.52 522.52,-131.52 511.94,-132.04 514.58,-138.52"/>
</g>
<!-- Node11&#45;&gt;Node3 -->
<g id="edge15" class="edge">
<title>Node11&#45;&gt;Node3</title>
<path fill="none" stroke="midnightblue" d="M446.19,-56.44C412.43,-46.59 357.18,-30.46 322.38,-20.3"/>
<polygon fill="midnightblue" stroke="midnightblue" points="323.29,-16.92 312.71,-17.48 321.33,-23.64 323.29,-16.92"/>
</g>
<!-- Node12 -->
<g id="node12" class="node">
<title>Node12</title>
<g id="a_node12"><a xlink:title=" ">
<polygon fill="none" stroke="#bfbfbf" points="489,-0.5 489,-19.5 530,-19.5 530,-0.5 489,-0.5"/>
<text text-anchor="middle" x="509.5" y="-7.5" font-family="Helvetica,sans-Serif" font-size="10.00">string</text>
</a>
</g>
</g>
<!-- Node11&#45;&gt;Node12 -->
<g id="edge14" class="edge">
<title>Node11&#45;&gt;Node12</title>
<path fill="none" stroke="midnightblue" d="M481.11,-56.08C485.87,-48.53 492.82,-37.49 498.65,-28.23"/>
<polygon fill="midnightblue" stroke="midnightblue" points="501.62,-30.08 503.99,-19.75 495.7,-26.35 501.62,-30.08"/>
</g>
<!-- Node13&#45;&gt;Node11 -->
<g id="edge18" class="edge">
<title>Node13&#45;&gt;Node11</title>
<path fill="none" stroke="midnightblue" d="M532.57,-112.32C522.33,-104.18 506.78,-91.84 494.5,-82.09"/>
<polygon fill="midnightblue" stroke="midnightblue" points="496.63,-79.31 486.62,-75.83 492.28,-84.79 496.63,-79.31"/>
</g>
<!-- Node13&#45;&gt;Node12 -->
<g id="edge17" class="edge">
<title>Node13&#45;&gt;Node12</title>
<path fill="none" stroke="midnightblue" d="M541.02,-112.14C537.49,-99.6 530.75,-75.97 524.5,-56 521.73,-47.15 518.5,-37.37 515.74,-29.2"/>
<polygon fill="midnightblue" stroke="midnightblue" points="519.01,-27.94 512.47,-19.6 512.38,-30.19 519.01,-27.94"/>
</g>
</g>
</svg>
