<?xml version="1.0" encoding="UTF-8" standalone="no"?>
<!DOCTYPE svg PUBLIC "-//W3C//DTD SVG 1.1//EN"
 "http://www.w3.org/Graphics/SVG/1.1/DTD/svg11.dtd">
<!-- Generated by graphviz version 3.0.0 (20220413.0242)
 -->
<!-- Title: model/block.hpp Pages: 1 -->
<svg width="1255pt" height="364pt"
 viewBox="0.00 0.00 1254.50 364.00" xmlns="http://www.w3.org/2000/svg" xmlns:xlink="http://www.w3.org/1999/xlink">
<g id="graph0" class="graph" transform="scale(1 1) rotate(0) translate(4 360)">
<title>model/block.hpp</title>
<!-- Node1 -->
<g id="node1" class="node">
<title>Node1</title>
<g id="a_node1"><a xlink:title="MODEL::Block source file.">
<polygon fill="#bfbfbf" stroke="black" points="563.5,-336.5 563.5,-355.5 650.5,-355.5 650.5,-336.5 563.5,-336.5"/>
<text text-anchor="middle" x="607" y="-343.5" font-family="Helvetica,sans-Serif" font-size="10.00">model/block.hpp</text>
</a>
</g>
</g>
<!-- Node2 -->
<g id="node2" class="node">
<title>Node2</title>
<g id="a_node2"><a xlink:href="bloodvessel_8hpp.html" target="_top" xlink:title="MODEL::BloodVessel source file.">
<polygon fill="none" stroke="black" points="733,-168.5 733,-187.5 849,-187.5 849,-168.5 733,-168.5"/>
<text text-anchor="middle" x="791" y="-175.5" font-family="Helvetica,sans-Serif" font-size="10.00">model/bloodvessel.hpp</text>
</a>
</g>
</g>
<!-- Node1&#45;&gt;Node2 -->
<g id="edge1" class="edge">
<title>Node1&#45;&gt;Node2</title>
<path fill="none" stroke="midnightblue" d="M629.29,-330.74C641.93,-322.32 657.8,-311.14 671,-300 716.66,-261.45 764.98,-208.4 783.33,-187.73"/>
<polygon fill="midnightblue" stroke="midnightblue" points="627.19,-327.94 620.75,-336.35 631.03,-333.79 627.19,-327.94"/>
</g>
<!-- Node7 -->
<g id="node7" class="node">
<title>Node7</title>
<g id="a_node7"><a xlink:href="flowreferencebc_8hpp.html" target="_top" xlink:title="MODEL::FlowReferenceBC source file.">
<polygon fill="none" stroke="black" points="867,-168.5 867,-187.5 999,-187.5 999,-168.5 867,-168.5"/>
<text text-anchor="middle" x="933" y="-175.5" font-family="Helvetica,sans-Serif" font-size="10.00">model/flowreferencebc.hpp</text>
</a>
</g>
</g>
<!-- Node1&#45;&gt;Node7 -->
<g id="edge6" class="edge">
<title>Node1&#45;&gt;Node7</title>
<path fill="none" stroke="midnightblue" d="M633.54,-331.82C651.48,-322.88 675.7,-310.79 697,-300 779.57,-258.19 877.96,-207.44 916.43,-187.57"/>
<polygon fill="midnightblue" stroke="midnightblue" points="631.67,-328.84 624.28,-336.42 634.79,-335.1 631.67,-328.84"/>
</g>
<!-- Node8 -->
<g id="node8" class="node">
<title>Node8</title>
<g id="a_node8"><a xlink:href="junction_8hpp.html" target="_top" xlink:title="MODEL::Junction source file.">
<polygon fill="none" stroke="black" points="0,-168.5 0,-187.5 98,-187.5 98,-168.5 0,-168.5"/>
<text text-anchor="middle" x="49" y="-175.5" font-family="Helvetica,sans-Serif" font-size="10.00">model/junction.hpp</text>
</a>
</g>
</g>
<!-- Node1&#45;&gt;Node8 -->
<g id="edge8" class="edge">
<title>Node1&#45;&gt;Node8</title>
<path fill="none" stroke="midnightblue" d="M566.24,-333.69C534.09,-324.71 488.12,-311.76 448,-300 308.03,-258.97 141.21,-207.57 76.52,-187.54"/>
<polygon fill="midnightblue" stroke="midnightblue" points="565.6,-337.14 576.17,-336.46 567.48,-330.4 565.6,-337.14"/>
</g>
<!-- Node9 -->
<g id="node9" class="node">
<title>Node9</title>
<g id="a_node9"><a xlink:href="model_8hpp.html" target="_top" xlink:title="MODEL::Model source file.">
<polygon fill="none" stroke="black" points="982,-280.5 982,-299.5 1072,-299.5 1072,-280.5 982,-280.5"/>
<text text-anchor="middle" x="1027" y="-287.5" font-family="Helvetica,sans-Serif" font-size="10.00">model/model.hpp</text>
</a>
</g>
</g>
<!-- Node1&#45;&gt;Node9 -->
<g id="edge10" class="edge">
<title>Node1&#45;&gt;Node9</title>
<path fill="none" stroke="midnightblue" d="M660.81,-338.08C744.35,-327.34 903.76,-306.85 981.75,-296.82"/>
<polygon fill="midnightblue" stroke="midnightblue" points="660.23,-334.63 650.76,-339.37 661.12,-341.57 660.23,-334.63"/>
</g>
<!-- Node12 -->
<g id="node12" class="node">
<title>Node12</title>
<g id="a_node12"><a xlink:href="openloopcoronarybc_8hpp.html" target="_top" xlink:title="MODEL::OpenLoopCoronaryBC source file.">
<polygon fill="none" stroke="black" points="116,-168.5 116,-187.5 266,-187.5 266,-168.5 116,-168.5"/>
<text text-anchor="middle" x="191" y="-175.5" font-family="Helvetica,sans-Serif" font-size="10.00">model/openloopcoronarybc.hpp</text>
</a>
</g>
</g>
<!-- Node1&#45;&gt;Node12 -->
<g id="edge31" class="edge">
<title>Node1&#45;&gt;Node12</title>
<path fill="none" stroke="midnightblue" d="M575.93,-332.6C495.4,-300.47 281.39,-215.07 212.61,-187.62"/>
<polygon fill="midnightblue" stroke="midnightblue" points="574.92,-335.97 585.51,-336.42 577.52,-329.47 574.92,-335.97"/>
</g>
<!-- Node13 -->
<g id="node13" class="node">
<title>Node13</title>
<g id="a_node13"><a xlink:href="pressurereferencebc_8hpp.html" target="_top" xlink:title="MODEL::PressureReferenceBC source file.">
<polygon fill="none" stroke="black" points="284,-168.5 284,-187.5 436,-187.5 436,-168.5 284,-168.5"/>
<text text-anchor="middle" x="360" y="-175.5" font-family="Helvetica,sans-Serif" font-size="10.00">model/pressurereferencebc.hpp</text>
</a>
</g>
</g>
<!-- Node1&#45;&gt;Node13 -->
<g id="edge32" class="edge">
<title>Node1&#45;&gt;Node13</title>
<path fill="none" stroke="midnightblue" d="M585.64,-330.65C535.76,-297.12 412.81,-214.49 372.8,-187.61"/>
<polygon fill="midnightblue" stroke="midnightblue" points="583.82,-333.64 594.07,-336.31 587.72,-327.83 583.82,-333.64"/>
</g>
<!-- Node14 -->
<g id="node14" class="node">
<title>Node14</title>
<g id="a_node14"><a xlink:href="resistancebc_8hpp.html" target="_top" xlink:title="MODEL::ResistanceBC source file.">
<polygon fill="none" stroke="black" points="454.5,-168.5 454.5,-187.5 573.5,-187.5 573.5,-168.5 454.5,-168.5"/>
<text text-anchor="middle" x="514" y="-175.5" font-family="Helvetica,sans-Serif" font-size="10.00">model/resistancebc.hpp</text>
</a>
</g>
</g>
<!-- Node1&#45;&gt;Node14 -->
<g id="edge33" class="edge">
<title>Node1&#45;&gt;Node14</title>
<path fill="none" stroke="midnightblue" d="M592.32,-328.8C575.78,-309.76 549.1,-276.63 533,-244 523.64,-225.02 518.05,-200.6 515.55,-187.77"/>
<polygon fill="midnightblue" stroke="midnightblue" points="589.89,-331.33 599.13,-336.5 595.13,-326.69 589.89,-331.33"/>
</g>
<!-- Node15 -->
<g id="node15" class="node">
<title>Node15</title>
<g id="a_node15"><a xlink:href="windkesselbc_8hpp.html" target="_top" xlink:title="MODEL::WindkesselBC source file.">
<polygon fill="none" stroke="black" points="591.5,-168.5 591.5,-187.5 714.5,-187.5 714.5,-168.5 591.5,-168.5"/>
<text text-anchor="middle" x="653" y="-175.5" font-family="Helvetica,sans-Serif" font-size="10.00">model/windkesselbc.hpp</text>
</a>
</g>
</g>
<!-- Node1&#45;&gt;Node15 -->
<g id="edge34" class="edge">
<title>Node1&#45;&gt;Node15</title>
<path fill="none" stroke="midnightblue" d="M623.72,-329.17C641.87,-310.73 669.76,-278.37 681,-244 687.8,-223.21 671.61,-199.91 661.11,-187.64"/>
<polygon fill="midnightblue" stroke="midnightblue" points="621.05,-326.89 616.39,-336.4 625.97,-331.87 621.05,-326.89"/>
</g>
<!-- Node3 -->
<g id="node3" class="node">
<title>Node3</title>
<g id="a_node3"><a xlink:href="configreader_8hpp.html" target="_top" xlink:title="IO::ConfigReader source file.">
<polygon fill="none" stroke="black" points="604,-112.5 604,-131.5 702,-131.5 702,-112.5 604,-112.5"/>
<text text-anchor="middle" x="653" y="-119.5" font-family="Helvetica,sans-Serif" font-size="10.00">io/configreader.hpp</text>
</a>
</g>
</g>
<!-- Node2&#45;&gt;Node3 -->
<g id="edge2" class="edge">
<title>Node2&#45;&gt;Node3</title>
<path fill="none" stroke="midnightblue" d="M759.75,-164.77C733.83,-154.63 697.64,-140.47 674.76,-131.52"/>
<polygon fill="midnightblue" stroke="midnightblue" points="758.55,-168.06 769.13,-168.44 761.1,-161.54 758.55,-168.06"/>
</g>
<!-- Node4 -->
<g id="node4" class="node">
<title>Node4</title>
<g id="a_node4"><a xlink:href="main_8hpp.html" target="_top" xlink:title="Main page documentation.">
<polygon fill="none" stroke="black" points="1078,-56.5 1078,-75.5 1134,-75.5 1134,-56.5 1078,-56.5"/>
<text text-anchor="middle" x="1106" y="-63.5" font-family="Helvetica,sans-Serif" font-size="10.00">main.hpp</text>
</a>
</g>
</g>
<!-- Node3&#45;&gt;Node4 -->
<g id="edge3" class="edge">
<title>Node3&#45;&gt;Node4</title>
<path fill="none" stroke="midnightblue" d="M712.45,-113.91C811.16,-102.15 1005.17,-79.02 1077.73,-70.37"/>
<polygon fill="midnightblue" stroke="midnightblue" points="711.86,-110.46 702.34,-115.12 712.69,-117.41 711.86,-110.46"/>
</g>
<!-- Node5 -->
<g id="node5" class="node">
<title>Node5</title>
<g id="a_node5"><a xlink:href="main_8cpp.html" target="_top" xlink:title="Main routine of svZeroDSolver.">
<polygon fill="none" stroke="black" points="1039,-0.5 1039,-19.5 1095,-19.5 1095,-0.5 1039,-0.5"/>
<text text-anchor="middle" x="1067" y="-7.5" font-family="Helvetica,sans-Serif" font-size="10.00">main.cpp</text>
</a>
</g>
</g>
<!-- Node4&#45;&gt;Node5 -->
<g id="edge4" class="edge">
<title>Node4&#45;&gt;Node5</title>
<path fill="none" stroke="midnightblue" d="M1093.62,-47.86C1086.86,-38.5 1078.79,-27.33 1073.32,-19.75"/>
<polygon fill="midnightblue" stroke="midnightblue" points="1090.87,-50.03 1099.56,-56.08 1096.54,-45.93 1090.87,-50.03"/>
</g>
<!-- Node6 -->
<g id="node6" class="node">
<title>Node6</title>
<g id="a_node6"><a xlink:href="python_8cpp.html" target="_top" xlink:title="Python binding for svZeroDSolver.">
<polygon fill="none" stroke="black" points="1113.5,-0.5 1113.5,-19.5 1176.5,-19.5 1176.5,-0.5 1113.5,-0.5"/>
<text text-anchor="middle" x="1145" y="-7.5" font-family="Helvetica,sans-Serif" font-size="10.00">python.cpp</text>
</a>
</g>
</g>
<!-- Node4&#45;&gt;Node6 -->
<g id="edge5" class="edge">
<title>Node4&#45;&gt;Node6</title>
<path fill="none" stroke="midnightblue" d="M1118.38,-47.86C1125.14,-38.5 1133.21,-27.33 1138.68,-19.75"/>
<polygon fill="midnightblue" stroke="midnightblue" points="1115.46,-45.93 1112.44,-56.08 1121.13,-50.03 1115.46,-45.93"/>
</g>
<!-- Node7&#45;&gt;Node3 -->
<g id="edge7" class="edge">
<title>Node7&#45;&gt;Node3</title>
<path fill="none" stroke="midnightblue" d="M878.75,-166.54C825.83,-156.33 746.33,-141 697.16,-131.52"/>
<polygon fill="midnightblue" stroke="midnightblue" points="878.15,-169.99 888.63,-168.44 879.48,-163.11 878.15,-169.99"/>
</g>
<!-- Node8&#45;&gt;Node3 -->
<g id="edge9" class="edge">
<title>Node8&#45;&gt;Node3</title>
<path fill="none" stroke="midnightblue" d="M108.15,-167.95C297.4,-145.81 509.87,-131.6 603.94,-125.86"/>
<polygon fill="midnightblue" stroke="midnightblue" points="107.53,-164.49 98.01,-169.14 108.36,-171.45 107.53,-164.49"/>
</g>
<!-- Node9&#45;&gt;Node3 -->
<g id="edge27" class="edge">
<title>Node9&#45;&gt;Node3</title>
<path fill="none" stroke="midnightblue" d="M1030.22,-270.5C1033.69,-243.79 1035.5,-194.7 1008,-168 965.49,-126.73 789.23,-121.98 702.15,-122.24"/>
<polygon fill="midnightblue" stroke="midnightblue" points="1026.75,-270.04 1028.71,-280.45 1033.67,-271.09 1026.75,-270.04"/>
</g>
<!-- Node9&#45;&gt;Node4 -->
<g id="edge30" class="edge">
<title>Node9&#45;&gt;Node4</title>
<path fill="none" stroke="midnightblue" d="M1034.89,-271.14C1038.43,-262.93 1042.57,-253.03 1046,-244 1070.32,-180 1095.31,-101.26 1103.34,-75.55"/>
<polygon fill="midnightblue" stroke="midnightblue" points="1031.62,-269.88 1030.83,-280.45 1038.04,-272.68 1031.62,-269.88"/>
</g>
<!-- Node10 -->
<g id="node10" class="node">
<title>Node10</title>
<g id="a_node10"><a xlink:href="integrator_8hpp.html" target="_top" xlink:title="ALGEBRA::Integrator source file.">
<polygon fill="none" stroke="black" points="1093,-224.5 1093,-243.5 1203,-243.5 1203,-224.5 1093,-224.5"/>
<text text-anchor="middle" x="1148" y="-231.5" font-family="Helvetica,sans-Serif" font-size="10.00">algebra/integrator.hpp</text>
</a>
</g>
</g>
<!-- Node9&#45;&gt;Node10 -->
<g id="edge11" class="edge">
<title>Node9&#45;&gt;Node10</title>
<path fill="none" stroke="midnightblue" d="M1055.31,-276.37C1077.97,-266.26 1109.13,-252.35 1128.92,-243.52"/>
<polygon fill="midnightblue" stroke="midnightblue" points="1053.88,-273.17 1046.17,-280.44 1056.73,-279.56 1053.88,-273.17"/>
</g>
<!-- Node11 -->
<g id="node11" class="node">
<title>Node11</title>
<g id="a_node11"><a xlink:href="sparsesystem_8hpp.html" target="_top" xlink:title="ALGEBRA::SparseSystem source file.">
<polygon fill="none" stroke="black" points="542,-224.5 542,-243.5 672,-243.5 672,-224.5 542,-224.5"/>
<text text-anchor="middle" x="607" y="-231.5" font-family="Helvetica,sans-Serif" font-size="10.00">algebra/sparsesystem.hpp</text>
</a>
</g>
</g>
<!-- Node9&#45;&gt;Node11 -->
<g id="edge13" class="edge">
<title>Node9&#45;&gt;Node11</title>
<path fill="none" stroke="midnightblue" d="M971.57,-282.46C892.95,-272.7 749.77,-254.32 668.15,-243.52"/>
<polygon fill="midnightblue" stroke="midnightblue" points="971.4,-285.97 981.75,-283.72 972.26,-279.02 971.4,-285.97"/>
</g>
<!-- Node16 -->
<g id="node16" class="node">
<title>Node16</title>
<g id="a_node16"><a xlink:href="csvwriter_8hpp.html" target="_top" xlink:title="IO::write_csv source file.">
<polygon fill="none" stroke="black" points="1161.5,-112.5 1161.5,-131.5 1246.5,-131.5 1246.5,-112.5 1161.5,-112.5"/>
<text text-anchor="middle" x="1204" y="-119.5" font-family="Helvetica,sans-Serif" font-size="10.00">io/csvwriter.hpp</text>
</a>
</g>
</g>
<!-- Node9&#45;&gt;Node16 -->
<g id="edge28" class="edge">
<title>Node9&#45;&gt;Node16</title>
<path fill="none" stroke="midnightblue" d="M1082.42,-283.03C1130.93,-276.53 1196.08,-264.26 1212,-244 1238.54,-210.23 1217.7,-153.45 1208.14,-131.77"/>
<polygon fill="midnightblue" stroke="midnightblue" points="1081.82,-279.58 1072.35,-284.33 1082.71,-286.52 1081.82,-279.58"/>
</g>
<!-- Node10&#45;&gt;Node4 -->
<g id="edge12" class="edge">
<title>Node10&#45;&gt;Node4</title>
<path fill="none" stroke="midnightblue" d="M1143.17,-213.93C1134.06,-177.92 1114.66,-101.23 1108.17,-75.57"/>
<polygon fill="midnightblue" stroke="midnightblue" points="1139.9,-215.24 1145.74,-224.08 1146.68,-213.52 1139.9,-215.24"/>
</g>
<!-- Node11&#45;&gt;Node1 -->
<g id="edge14" class="edge">
<title>Node11&#45;&gt;Node1</title>
<path fill="none" stroke="midnightblue" d="M607,-253.6C607,-277.67 607,-318.62 607,-336.37"/>
<polygon fill="midnightblue" stroke="midnightblue" points="610.5,-253.59 607,-243.59 603.5,-253.59 610.5,-253.59"/>
</g>
<!-- Node11&#45;&gt;Node2 -->
<g id="edge15" class="edge">
<title>Node11&#45;&gt;Node2</title>
<path fill="none" stroke="midnightblue" d="M645.95,-221.57C680.66,-211.38 730.68,-196.7 761.98,-187.52"/>
<polygon fill="midnightblue" stroke="midnightblue" points="644.77,-218.27 636.16,-224.44 646.74,-224.99 644.77,-218.27"/>
</g>
<!-- Node11&#45;&gt;Node7 -->
<g id="edge16" class="edge">
<title>Node11&#45;&gt;Node7</title>
<path fill="none" stroke="midnightblue" d="M668.63,-222.79C730.23,-212.59 823.86,-197.08 881.59,-187.52"/>
<polygon fill="midnightblue" stroke="midnightblue" points="667.95,-219.36 658.66,-224.44 669.09,-226.26 667.95,-219.36"/>
</g>
<!-- Node11&#45;&gt;Node8 -->
<g id="edge17" class="edge">
<title>Node11&#45;&gt;Node8</title>
<path fill="none" stroke="midnightblue" d="M531.63,-227.73C433.62,-220.53 257.19,-206.39 107,-188 104.07,-187.64 101.05,-187.25 98.02,-186.83"/>
<polygon fill="midnightblue" stroke="midnightblue" points="531.51,-231.23 541.74,-228.47 532.02,-224.25 531.51,-231.23"/>
</g>
<!-- Node11&#45;&gt;Node9 -->
<g id="edge18" class="edge">
<title>Node11&#45;&gt;Node9</title>
<path fill="none" stroke="midnightblue" d="M682.25,-244.01C769.37,-254.92 909.91,-273.01 981.73,-282.59"/>
<polygon fill="midnightblue" stroke="midnightblue" points="682.52,-240.51 672.16,-242.75 681.65,-247.46 682.52,-240.51"/>
</g>
<!-- Node11&#45;&gt;Node12 -->
<g id="edge19" class="edge">
<title>Node11&#45;&gt;Node12</title>
<path fill="none" stroke="midnightblue" d="M531.24,-223.17C452.75,-212.98 331.34,-197.22 256.76,-187.54"/>
<polygon fill="midnightblue" stroke="midnightblue" points="531.17,-226.69 541.54,-224.5 532.08,-219.74 531.17,-226.69"/>
</g>
<!-- Node11&#45;&gt;Node13 -->
<g id="edge21" class="edge">
<title>Node11&#45;&gt;Node13</title>
<path fill="none" stroke="midnightblue" d="M557.97,-222.28C511.3,-212.08 441.97,-196.92 398.95,-187.52"/>
<polygon fill="midnightblue" stroke="midnightblue" points="557.35,-225.73 567.86,-224.44 558.84,-218.89 557.35,-225.73"/>
</g>
<!-- Node11&#45;&gt;Node14 -->
<g id="edge23" class="edge">
<title>Node11&#45;&gt;Node14</title>
<path fill="none" stroke="midnightblue" d="M583.19,-219.18C566.08,-209.24 543.53,-196.15 528.9,-187.65"/>
<polygon fill="midnightblue" stroke="midnightblue" points="581.65,-222.33 592.06,-224.32 585.17,-216.28 581.65,-222.33"/>
</g>
<!-- Node11&#45;&gt;Node15 -->
<g id="edge25" class="edge">
<title>Node11&#45;&gt;Node15</title>
<path fill="none" stroke="midnightblue" d="M621.11,-216.43C629.18,-206.97 638.96,-195.48 645.55,-187.75"/>
<polygon fill="midnightblue" stroke="midnightblue" points="618.42,-214.2 614.6,-224.08 623.75,-218.74 618.42,-214.2"/>
</g>
<!-- Node12&#45;&gt;Node3 -->
<g id="edge20" class="edge">
<title>Node12&#45;&gt;Node3</title>
<path fill="none" stroke="midnightblue" d="M273.92,-167.31C370,-156.08 525.15,-137.94 603.84,-128.75"/>
<polygon fill="midnightblue" stroke="midnightblue" points="273.48,-163.84 263.95,-168.47 274.29,-170.79 273.48,-163.84"/>
</g>
<!-- Node13&#45;&gt;Node3 -->
<g id="edge22" class="edge">
<title>Node13&#45;&gt;Node3</title>
<path fill="none" stroke="midnightblue" d="M416.43,-166.6C471.8,-156.4 555.23,-141.02 606.79,-131.52"/>
<polygon fill="midnightblue" stroke="midnightblue" points="415.63,-163.19 406.43,-168.44 416.9,-170.07 415.63,-163.19"/>
</g>
<!-- Node14&#45;&gt;Node3 -->
<g id="edge24" class="edge">
<title>Node14&#45;&gt;Node3</title>
<path fill="none" stroke="midnightblue" d="M545.48,-164.77C571.59,-154.63 608.04,-140.47 631.08,-131.52"/>
<polygon fill="midnightblue" stroke="midnightblue" points="544.08,-161.56 536.02,-168.44 546.61,-168.08 544.08,-161.56"/>
</g>
<!-- Node15&#45;&gt;Node3 -->
<g id="edge26" class="edge">
<title>Node15&#45;&gt;Node3</title>
<path fill="none" stroke="midnightblue" d="M653,-157.8C653,-148.91 653,-138.78 653,-131.75"/>
<polygon fill="midnightblue" stroke="midnightblue" points="649.5,-158.08 653,-168.08 656.5,-158.08 649.5,-158.08"/>
</g>
<!-- Node16&#45;&gt;Node4 -->
<g id="edge29" class="edge">
<title>Node16&#45;&gt;Node4</title>
<path fill="none" stroke="midnightblue" d="M1179.41,-107.45C1161.32,-97.48 1137.27,-84.23 1121.71,-75.65"/>
<polygon fill="midnightblue" stroke="midnightblue" points="1177.81,-110.56 1188.25,-112.32 1181.19,-104.43 1177.81,-110.56"/>
</g>
</g>
</svg>
