<?xml version="1.0" encoding="UTF-8" standalone="no"?>
<!DOCTYPE svg PUBLIC "-//W3C//DTD SVG 1.1//EN"
 "http://www.w3.org/Graphics/SVG/1.1/DTD/svg11.dtd">
<!-- Generated by graphviz version 3.0.0 (20220413.0242)
 -->
<!-- Title: model/block.hpp Pages: 1 -->
<svg width="1384pt" height="364pt"
 viewBox="0.00 0.00 1384.00 364.00" xmlns="http://www.w3.org/2000/svg" xmlns:xlink="http://www.w3.org/1999/xlink">
<g id="graph0" class="graph" transform="scale(1 1) rotate(0) translate(4 360)">
<title>model/block.hpp</title>
<!-- Node1 -->
<g id="node1" class="node">
<title>Node1</title>
<g id="a_node1"><a xlink:title="MODEL::Block source file.">
<polygon fill="#bfbfbf" stroke="black" points="663.5,-336.5 663.5,-355.5 750.5,-355.5 750.5,-336.5 663.5,-336.5"/>
<text text-anchor="middle" x="707" y="-343.5" font-family="Helvetica,sans-Serif" font-size="10.00">model/block.hpp</text>
</a>
</g>
</g>
<!-- Node2 -->
<g id="node2" class="node">
<title>Node2</title>
<g id="a_node2"><a xlink:title=" ">
<polygon fill="none" stroke="#bfbfbf" points="445,-0.5 445,-19.5 489,-19.5 489,-0.5 445,-0.5"/>
<text text-anchor="middle" x="467" y="-7.5" font-family="Helvetica,sans-Serif" font-size="10.00">vector</text>
</a>
</g>
</g>
<!-- Node1&#45;&gt;Node2 -->
<g id="edge1" class="edge">
<title>Node1&#45;&gt;Node2</title>
<path fill="none" stroke="midnightblue" d="M750.64,-342.45C899.18,-333.21 1376,-298.6 1376,-235 1376,-235 1376,-235 1376,-121 1376,-30.77 661.07,-14.07 499.28,-11.44"/>
<polygon fill="midnightblue" stroke="midnightblue" points="499.07,-7.94 489.02,-11.28 498.96,-14.94 499.07,-7.94"/>
</g>
<!-- Node3 -->
<g id="node3" class="node">
<title>Node3</title>
<g id="a_node3"><a xlink:title=" ">
<polygon fill="none" stroke="#bfbfbf" points="66.5,-168.5 66.5,-187.5 101.5,-187.5 101.5,-168.5 66.5,-168.5"/>
<text text-anchor="middle" x="84" y="-175.5" font-family="Helvetica,sans-Serif" font-size="10.00">map</text>
</a>
</g>
</g>
<!-- Node1&#45;&gt;Node3 -->
<g id="edge2" class="edge">
<title>Node1&#45;&gt;Node3</title>
<path fill="none" stroke="midnightblue" d="M663.35,-343.35C596.64,-339.94 465.81,-329.74 359,-300 261.92,-272.97 154.75,-217.83 108.01,-192.4"/>
<polygon fill="midnightblue" stroke="midnightblue" points="109.68,-189.32 99.23,-187.58 106.32,-195.46 109.68,-189.32"/>
</g>
<!-- Node4 -->
<g id="node4" class="node">
<title>Node4</title>
<g id="a_node4"><a xlink:href="node_8hpp.html" target="_top" xlink:title="MODEL::Node source file.">
<polygon fill="none" stroke="black" points="146,-112.5 146,-131.5 202,-131.5 202,-112.5 146,-112.5"/>
<text text-anchor="middle" x="174" y="-119.5" font-family="Helvetica,sans-Serif" font-size="10.00">node.hpp</text>
</a>
</g>
</g>
<!-- Node1&#45;&gt;Node4 -->
<g id="edge3" class="edge">
<title>Node1&#45;&gt;Node4</title>
<path fill="none" stroke="midnightblue" d="M663.46,-344.39C588.14,-342.41 429.21,-334.16 300,-300 239.18,-283.92 227.09,-270.42 170,-244 119.13,-220.46 86.55,-235.63 57,-188 36.23,-154.53 94.27,-136.88 135.86,-128.78"/>
<polygon fill="midnightblue" stroke="midnightblue" points="136.55,-132.21 145.75,-126.97 135.29,-125.33 136.55,-132.21"/>
</g>
<!-- Node6 -->
<g id="node6" class="node">
<title>Node6</title>
<g id="a_node6"><a xlink:href="dofhandler_8hpp.html" target="_top" xlink:title="MODEL::DOFHandler source file.">
<polygon fill="none" stroke="black" points="317,-56.5 317,-75.5 397,-75.5 397,-56.5 317,-56.5"/>
<text text-anchor="middle" x="357" y="-63.5" font-family="Helvetica,sans-Serif" font-size="10.00">dofhandler.hpp</text>
</a>
</g>
</g>
<!-- Node1&#45;&gt;Node6 -->
<g id="edge8" class="edge">
<title>Node1&#45;&gt;Node6</title>
<path fill="none" stroke="midnightblue" d="M663.31,-342.84C509.17,-334.64 0,-302.47 0,-235 0,-235 0,-235 0,-177 0,-113.58 208.37,-82.86 306.73,-71.89"/>
<polygon fill="midnightblue" stroke="midnightblue" points="307.18,-75.36 316.74,-70.8 306.42,-68.4 307.18,-75.36"/>
</g>
<!-- Node7 -->
<g id="node7" class="node">
<title>Node7</title>
<g id="a_node7"><a xlink:href="densesystem_8hpp.html" target="_top" xlink:title="ALGEBRA::DenseSystem source file.">
<polygon fill="none" stroke="black" points="808,-112.5 808,-131.5 942,-131.5 942,-112.5 808,-112.5"/>
<text text-anchor="middle" x="875" y="-119.5" font-family="Helvetica,sans-Serif" font-size="10.00">../algebra/densesystem.hpp</text>
</a>
</g>
</g>
<!-- Node1&#45;&gt;Node7 -->
<g id="edge9" class="edge">
<title>Node1&#45;&gt;Node7</title>
<path fill="none" stroke="midnightblue" d="M750.88,-340.9C879.72,-327.85 1252.08,-282.41 1319,-188 1324.14,-180.75 1324.96,-174.59 1319,-168 1294.93,-141.36 1072.97,-129.71 952.29,-125.3"/>
<polygon fill="midnightblue" stroke="midnightblue" points="952.12,-121.8 942,-124.94 951.87,-128.79 952.12,-121.8"/>
</g>
<!-- Node9 -->
<g id="node9" class="node">
<title>Node9</title>
<g id="a_node9"><a xlink:href="sparsesystem_8hpp.html" target="_top" xlink:title="ALGEBRA::SparseSystem source file.">
<polygon fill="none" stroke="black" points="638.5,-280.5 638.5,-299.5 775.5,-299.5 775.5,-280.5 638.5,-280.5"/>
<text text-anchor="middle" x="707" y="-287.5" font-family="Helvetica,sans-Serif" font-size="10.00">../algebra/sparsesystem.hpp</text>
</a>
</g>
</g>
<!-- Node1&#45;&gt;Node9 -->
<g id="edge11" class="edge">
<title>Node1&#45;&gt;Node9</title>
<path fill="none" stroke="midnightblue" d="M707,-336.08C707,-329.01 707,-318.86 707,-309.99"/>
<polygon fill="midnightblue" stroke="midnightblue" points="710.5,-309.75 707,-299.75 703.5,-309.75 710.5,-309.75"/>
</g>
<!-- Node5 -->
<g id="node5" class="node">
<title>Node5</title>
<g id="a_node5"><a xlink:title=" ">
<polygon fill="none" stroke="#bfbfbf" points="258.5,-0.5 258.5,-19.5 299.5,-19.5 299.5,-0.5 258.5,-0.5"/>
<text text-anchor="middle" x="279" y="-7.5" font-family="Helvetica,sans-Serif" font-size="10.00">string</text>
</a>
</g>
</g>
<!-- Node4&#45;&gt;Node5 -->
<g id="edge4" class="edge">
<title>Node4&#45;&gt;Node5</title>
<path fill="none" stroke="midnightblue" d="M182.24,-112.37C199.8,-93.97 241.13,-50.67 263.68,-27.05"/>
<polygon fill="midnightblue" stroke="midnightblue" points="266.43,-29.24 270.8,-19.59 261.36,-24.41 266.43,-29.24"/>
</g>
<!-- Node4&#45;&gt;Node6 -->
<g id="edge5" class="edge">
<title>Node4&#45;&gt;Node6</title>
<path fill="none" stroke="midnightblue" d="M202.19,-112.68C233.31,-103.5 283.59,-88.66 318.36,-78.4"/>
<polygon fill="midnightblue" stroke="midnightblue" points="319.57,-81.69 328.17,-75.51 317.59,-74.98 319.57,-81.69"/>
</g>
<!-- Node6&#45;&gt;Node2 -->
<g id="edge6" class="edge">
<title>Node6&#45;&gt;Node2</title>
<path fill="none" stroke="midnightblue" d="M374.67,-56.32C392.39,-47.62 419.9,-34.12 440.29,-24.11"/>
<polygon fill="midnightblue" stroke="midnightblue" points="441.94,-27.2 449.37,-19.65 438.85,-20.92 441.94,-27.2"/>
</g>
<!-- Node6&#45;&gt;Node5 -->
<g id="edge7" class="edge">
<title>Node6&#45;&gt;Node5</title>
<path fill="none" stroke="midnightblue" d="M344.47,-56.32C332.41,-47.98 313.97,-35.21 299.73,-25.35"/>
<polygon fill="midnightblue" stroke="midnightblue" points="301.72,-22.47 291.5,-19.65 297.73,-28.22 301.72,-22.47"/>
</g>
<!-- Node8 -->
<g id="node8" class="node">
<title>Node8</title>
<g id="a_node8"><a xlink:title=" ">
<polygon fill="none" stroke="#bfbfbf" points="839.5,-56.5 839.5,-75.5 910.5,-75.5 910.5,-56.5 839.5,-56.5"/>
<text text-anchor="middle" x="875" y="-63.5" font-family="Helvetica,sans-Serif" font-size="10.00">Eigen/Dense</text>
</a>
</g>
</g>
<!-- Node7&#45;&gt;Node8 -->
<g id="edge10" class="edge">
<title>Node7&#45;&gt;Node8</title>
<path fill="none" stroke="midnightblue" d="M875,-112.08C875,-105.01 875,-94.86 875,-85.99"/>
<polygon fill="midnightblue" stroke="midnightblue" points="878.5,-85.75 875,-75.75 871.5,-85.75 878.5,-85.75"/>
</g>
<!-- Node10 -->
<g id="node10" class="node">
<title>Node10</title>
<g id="a_node10"><a xlink:title=" ">
<polygon fill="none" stroke="#bfbfbf" points="850,-224.5 850,-243.5 924,-243.5 924,-224.5 850,-224.5"/>
<text text-anchor="middle" x="887" y="-231.5" font-family="Helvetica,sans-Serif" font-size="10.00">Eigen/Sparse</text>
</a>
</g>
</g>
<!-- Node9&#45;&gt;Node10 -->
<g id="edge12" class="edge">
<title>Node9&#45;&gt;Node10</title>
<path fill="none" stroke="midnightblue" d="M735.52,-280.44C766.07,-271.28 814.71,-256.69 848.6,-246.52"/>
<polygon fill="midnightblue" stroke="midnightblue" points="850.04,-249.74 858.61,-243.52 848.03,-243.04 850.04,-249.74"/>
</g>
<!-- Node11 -->
<g id="node11" class="node">
<title>Node11</title>
<g id="a_node11"><a xlink:title=" ">
<polygon fill="none" stroke="#bfbfbf" points="404,-224.5 404,-243.5 492,-243.5 492,-224.5 404,-224.5"/>
<text text-anchor="middle" x="448" y="-231.5" font-family="Helvetica,sans-Serif" font-size="10.00">Eigen/SparseLU</text>
</a>
</g>
</g>
<!-- Node9&#45;&gt;Node11 -->
<g id="edge13" class="edge">
<title>Node9&#45;&gt;Node11</title>
<path fill="none" stroke="midnightblue" d="M665.96,-280.44C620.68,-271 547.77,-255.8 498.89,-245.61"/>
<polygon fill="midnightblue" stroke="midnightblue" points="499.35,-242.13 488.85,-243.52 497.92,-248.98 499.35,-242.13"/>
</g>
<!-- Node12 -->
<g id="node12" class="node">
<title>Node12</title>
<g id="a_node12"><a xlink:title=" ">
<polygon fill="none" stroke="#bfbfbf" points="510,-224.5 510,-243.5 564,-243.5 564,-224.5 510,-224.5"/>
<text text-anchor="middle" x="537" y="-231.5" font-family="Helvetica,sans-Serif" font-size="10.00">iostream</text>
</a>
</g>
</g>
<!-- Node9&#45;&gt;Node12 -->
<g id="edge14" class="edge">
<title>Node9&#45;&gt;Node12</title>
<path fill="none" stroke="midnightblue" d="M680.06,-280.44C651.34,-271.32 605.67,-256.81 573.68,-246.65"/>
<polygon fill="midnightblue" stroke="midnightblue" points="574.4,-243.21 563.81,-243.52 572.28,-249.88 574.4,-243.21"/>
</g>
<!-- Node13 -->
<g id="node13" class="node">
<title>Node13</title>
<g id="a_node13"><a xlink:href="model_8hpp.html" target="_top" xlink:title="MODEL::Model source file.">
<polygon fill="none" stroke="black" points="658,-224.5 658,-243.5 756,-243.5 756,-224.5 658,-224.5"/>
<text text-anchor="middle" x="707" y="-231.5" font-family="Helvetica,sans-Serif" font-size="10.00">../model/model.hpp</text>
</a>
</g>
</g>
<!-- Node9&#45;&gt;Node13 -->
<g id="edge15" class="edge">
<title>Node9&#45;&gt;Node13</title>
<path fill="none" stroke="midnightblue" d="M701.83,-280.08C700.32,-272.93 699.89,-262.64 700.54,-253.69"/>
<polygon fill="midnightblue" stroke="midnightblue" points="704.02,-254.13 701.87,-243.75 697.08,-253.2 704.02,-254.13"/>
</g>
<!-- Node13&#45;&gt;Node3 -->
<g id="edge16" class="edge">
<title>Node13&#45;&gt;Node3</title>
<path fill="none" stroke="midnightblue" d="M657.72,-229.52C520.54,-219.78 142.5,-192.69 116,-188 114.54,-187.74 113.06,-187.45 111.56,-187.12"/>
<polygon fill="midnightblue" stroke="midnightblue" points="112.35,-183.71 101.8,-184.68 110.65,-190.5 112.35,-183.71"/>
</g>
<!-- Node13&#45;&gt;Node4 -->
<g id="edge31" class="edge">
<title>Node13&#45;&gt;Node4</title>
<path fill="none" stroke="midnightblue" d="M657.92,-229.48C522.5,-219.71 153.3,-192.67 149,-188 136.51,-174.46 147.74,-154.01 158.89,-139.67"/>
<polygon fill="midnightblue" stroke="midnightblue" points="161.87,-141.57 165.6,-131.65 156.5,-137.07 161.87,-141.57"/>
</g>
<!-- Node13&#45;&gt;Node6 -->
<g id="edge30" class="edge">
<title>Node13&#45;&gt;Node6</title>
<path fill="none" stroke="midnightblue" d="M657.79,-228.78C574.94,-221.25 414.67,-204.73 395,-188 364.77,-162.28 358.27,-112.79 357.07,-85.76"/>
<polygon fill="midnightblue" stroke="midnightblue" points="360.57,-85.59 356.83,-75.68 353.57,-85.76 360.57,-85.59"/>
</g>
<!-- Node13&#45;&gt;Node7 -->
<g id="edge19" class="edge">
<title>Node13&#45;&gt;Node7</title>
<path fill="none" stroke="midnightblue" d="M716.35,-224.3C730.79,-211.13 759.71,-185.78 787,-168 805.92,-155.67 828.65,-144.12 846.27,-135.81"/>
<polygon fill="midnightblue" stroke="midnightblue" points="847.87,-138.93 855.47,-131.55 844.93,-132.58 847.87,-138.93"/>
</g>
<!-- Node13&#45;&gt;Node9 -->
<g id="edge20" class="edge">
<title>Node13&#45;&gt;Node9</title>
<path fill="none" stroke="midnightblue" d="M712.13,-243.75C713.66,-250.86 714.1,-261.14 713.47,-270.1"/>
<polygon fill="midnightblue" stroke="midnightblue" points="709.99,-269.71 712.17,-280.08 716.93,-270.62 709.99,-269.71"/>
</g>
<!-- Node14 -->
<g id="node14" class="node">
<title>Node14</title>
<g id="a_node14"><a xlink:title=" ">
<polygon fill="none" stroke="#bfbfbf" points="646.5,-168.5 646.5,-187.5 675.5,-187.5 675.5,-168.5 646.5,-168.5"/>
<text text-anchor="middle" x="661" y="-175.5" font-family="Helvetica,sans-Serif" font-size="10.00">list</text>
</a>
</g>
</g>
<!-- Node13&#45;&gt;Node14 -->
<g id="edge17" class="edge">
<title>Node13&#45;&gt;Node14</title>
<path fill="none" stroke="midnightblue" d="M699.4,-224.08C692.77,-216.3 682.98,-204.8 674.94,-195.37"/>
<polygon fill="midnightblue" stroke="midnightblue" points="677.6,-193.09 668.45,-187.75 672.27,-197.63 677.6,-193.09"/>
</g>
<!-- Node15 -->
<g id="node15" class="node">
<title>Node15</title>
<g id="a_node15"><a xlink:title=" ">
<polygon fill="none" stroke="#bfbfbf" points="694,-168.5 694,-187.5 740,-187.5 740,-168.5 694,-168.5"/>
<text text-anchor="middle" x="717" y="-175.5" font-family="Helvetica,sans-Serif" font-size="10.00">variant</text>
</a>
</g>
</g>
<!-- Node13&#45;&gt;Node15 -->
<g id="edge18" class="edge">
<title>Node13&#45;&gt;Node15</title>
<path fill="none" stroke="midnightblue" d="M708.65,-224.08C709.98,-216.93 711.88,-206.64 713.54,-197.69"/>
<polygon fill="midnightblue" stroke="midnightblue" points="717,-198.22 715.38,-187.75 710.12,-196.95 717,-198.22"/>
</g>
<!-- Node16 -->
<g id="node16" class="node">
<title>Node16</title>
<g id="a_node16"><a xlink:href="junction_8hpp.html" target="_top" xlink:title="MODEL::Junction source file.">
<polygon fill="none" stroke="black" points="1076,-168.5 1076,-187.5 1144,-187.5 1144,-168.5 1076,-168.5"/>
<text text-anchor="middle" x="1110" y="-175.5" font-family="Helvetica,sans-Serif" font-size="10.00">junction.hpp</text>
</a>
</g>
</g>
<!-- Node13&#45;&gt;Node16 -->
<g id="edge21" class="edge">
<title>Node13&#45;&gt;Node16</title>
<path fill="none" stroke="midnightblue" d="M756.1,-228.15C823.6,-221.2 949.05,-207.27 1065.61,-188.11"/>
<polygon fill="midnightblue" stroke="midnightblue" points="1066.49,-191.52 1075.78,-186.43 1065.34,-184.61 1066.49,-191.52"/>
</g>
<!-- Node17 -->
<g id="node17" class="node">
<title>Node17</title>
<g id="a_node17"><a xlink:href="bloodvessel_8hpp.html" target="_top" xlink:title="MODEL::BloodVessel source file.">
<polygon fill="none" stroke="black" points="972,-168.5 972,-187.5 1058,-187.5 1058,-168.5 972,-168.5"/>
<text text-anchor="middle" x="1015" y="-175.5" font-family="Helvetica,sans-Serif" font-size="10.00">bloodvessel.hpp</text>
</a>
</g>
</g>
<!-- Node13&#45;&gt;Node17 -->
<g id="edge25" class="edge">
<title>Node13&#45;&gt;Node17</title>
<path fill="none" stroke="midnightblue" d="M755.8,-224.44C811.97,-214.6 903.9,-198.48 961.84,-188.32"/>
<polygon fill="midnightblue" stroke="midnightblue" points="962.65,-191.73 971.89,-186.56 961.44,-184.84 962.65,-191.73"/>
</g>
<!-- Node19 -->
<g id="node19" class="node">
<title>Node19</title>
<g id="a_node19"><a xlink:href="flowreference_8hpp.html" target="_top" xlink:title="MODEL::FlowReference source file.">
<polygon fill="none" stroke="black" points="536,-168.5 536,-187.5 628,-187.5 628,-168.5 536,-168.5"/>
<text text-anchor="middle" x="582" y="-175.5" font-family="Helvetica,sans-Serif" font-size="10.00">flowreference.hpp</text>
</a>
</g>
</g>
<!-- Node13&#45;&gt;Node19 -->
<g id="edge32" class="edge">
<title>Node13&#45;&gt;Node19</title>
<path fill="none" stroke="midnightblue" d="M687.19,-224.44C666.71,-215.6 634.52,-201.69 611.14,-191.59"/>
<polygon fill="midnightblue" stroke="midnightblue" points="612.28,-188.27 601.71,-187.52 609.51,-194.7 612.28,-188.27"/>
</g>
<!-- Node22 -->
<g id="node22" class="node">
<title>Node22</title>
<g id="a_node22"><a xlink:href="pressurereference_8hpp.html" target="_top" xlink:title="MODEL::PressureReference source file.">
<polygon fill="none" stroke="black" points="404.5,-168.5 404.5,-187.5 517.5,-187.5 517.5,-168.5 404.5,-168.5"/>
<text text-anchor="middle" x="461" y="-175.5" font-family="Helvetica,sans-Serif" font-size="10.00">pressurereference.hpp</text>
</a>
</g>
</g>
<!-- Node13&#45;&gt;Node22 -->
<g id="edge41" class="edge">
<title>Node13&#45;&gt;Node22</title>
<path fill="none" stroke="midnightblue" d="M668.02,-224.44C625.11,-215.02 556.05,-199.87 509.63,-189.68"/>
<polygon fill="midnightblue" stroke="midnightblue" points="510.31,-186.24 499.8,-187.52 508.81,-193.08 510.31,-186.24"/>
</g>
<!-- Node23 -->
<g id="node23" class="node">
<title>Node23</title>
<g id="a_node23"><a xlink:href="rcrblockwithdistalpressure_8hpp.html" target="_top" xlink:title="MODEL::RCRBlockWithDistalPressure source file.">
<polygon fill="none" stroke="black" points="1162,-168.5 1162,-187.5 1310,-187.5 1310,-168.5 1162,-168.5"/>
<text text-anchor="middle" x="1236" y="-175.5" font-family="Helvetica,sans-Serif" font-size="10.00">rcrblockwithdistalpressure.hpp</text>
</a>
</g>
</g>
<!-- Node13&#45;&gt;Node23 -->
<g id="edge46" class="edge">
<title>Node13&#45;&gt;Node23</title>
<path fill="none" stroke="midnightblue" d="M756.18,-228.16C836.52,-220.22 1001.23,-203.85 1151.46,-188.15"/>
<polygon fill="midnightblue" stroke="midnightblue" points="1152.21,-191.6 1161.79,-187.07 1151.48,-184.63 1152.21,-191.6"/>
</g>
<!-- Node24 -->
<g id="node24" class="node">
<title>Node24</title>
<g id="a_node24"><a xlink:href="resistancewithdistalpressure_8hpp.html" target="_top" xlink:title="MODEL::ResistanceWithDistalPressure source file.">
<polygon fill="none" stroke="black" points="796,-168.5 796,-187.5 954,-187.5 954,-168.5 796,-168.5"/>
<text text-anchor="middle" x="875" y="-175.5" font-family="Helvetica,sans-Serif" font-size="10.00">resistancewithdistalpressure.hpp</text>
</a>
</g>
</g>
<!-- Node13&#45;&gt;Node24 -->
<g id="edge50" class="edge">
<title>Node13&#45;&gt;Node24</title>
<path fill="none" stroke="midnightblue" d="M733.62,-224.44C762.01,-215.32 807.14,-200.81 838.75,-190.65"/>
<polygon fill="midnightblue" stroke="midnightblue" points="840.06,-193.91 848.5,-187.52 837.91,-187.24 840.06,-193.91"/>
</g>
<!-- Node25 -->
<g id="node25" class="node">
<title>Node25</title>
<g id="a_node25"><a xlink:href="openloopcoronarywithdistalpressure_8hpp.html" target="_top" xlink:title="MODEL::OpenLoopCoronaryWithDistalPressure source file.">
<polygon fill="none" stroke="black" points="158.5,-168.5 158.5,-187.5 347.5,-187.5 347.5,-168.5 158.5,-168.5"/>
<text text-anchor="middle" x="253" y="-175.5" font-family="Helvetica,sans-Serif" font-size="10.00">openloopcoronarywithdistalpressure.hpp</text>
</a>
</g>
</g>
<!-- Node13&#45;&gt;Node25 -->
<g id="edge55" class="edge">
<title>Node13&#45;&gt;Node25</title>
<path fill="none" stroke="midnightblue" d="M657.98,-227.17C580.44,-217.95 428.65,-199.89 334.53,-188.7"/>
<polygon fill="midnightblue" stroke="midnightblue" points="334.82,-185.21 324.47,-187.5 333.99,-192.16 334.82,-185.21"/>
</g>
<!-- Node16&#45;&gt;Node1 -->
<g id="edge24" class="edge">
<title>Node16&#45;&gt;Node1</title>
<path fill="none" stroke="midnightblue" d="M1099.95,-187.59C1073.34,-209.87 998.08,-269.84 925,-300 871.48,-322.09 805.93,-333.74 760.77,-339.6"/>
<polygon fill="midnightblue" stroke="midnightblue" points="760.09,-336.15 750.6,-340.86 760.96,-343.1 760.09,-336.15"/>
</g>
<!-- Node16&#45;&gt;Node7 -->
<g id="edge22" class="edge">
<title>Node16&#45;&gt;Node7</title>
<path fill="none" stroke="midnightblue" d="M1075.83,-169.15C1035.35,-159.85 967.7,-144.3 922.23,-133.85"/>
<polygon fill="midnightblue" stroke="midnightblue" points="922.85,-130.4 912.32,-131.58 921.28,-137.23 922.85,-130.4"/>
</g>
<!-- Node16&#45;&gt;Node9 -->
<g id="edge23" class="edge">
<title>Node16&#45;&gt;Node9</title>
<path fill="none" stroke="midnightblue" d="M1089.9,-187.55C1057.41,-201.1 991.14,-227.64 933,-244 879.65,-259.01 817.87,-270.95 772.39,-278.75"/>
<polygon fill="midnightblue" stroke="midnightblue" points="771.64,-275.33 762.37,-280.45 772.81,-282.23 771.64,-275.33"/>
</g>
<!-- Node17&#45;&gt;Node1 -->
<g id="edge27" class="edge">
<title>Node17&#45;&gt;Node1</title>
<path fill="none" stroke="midnightblue" d="M1009.34,-187.64C994.2,-210.03 950.33,-270.26 898,-300 855.49,-324.16 800.62,-335.37 760.61,-340.56"/>
<polygon fill="midnightblue" stroke="midnightblue" points="760.02,-337.11 750.51,-341.79 760.86,-344.06 760.02,-337.11"/>
</g>
<!-- Node17&#45;&gt;Node7 -->
<g id="edge28" class="edge">
<title>Node17&#45;&gt;Node7</title>
<path fill="none" stroke="midnightblue" d="M992.82,-168.44C969.57,-159.48 932.85,-145.31 906.58,-135.18"/>
<polygon fill="midnightblue" stroke="midnightblue" points="907.67,-131.85 897.08,-131.52 905.15,-138.38 907.67,-131.85"/>
</g>
<!-- Node17&#45;&gt;Node9 -->
<g id="edge29" class="edge">
<title>Node17&#45;&gt;Node9</title>
<path fill="none" stroke="midnightblue" d="M971.84,-186.97C936.03,-194.34 884.17,-206.75 841,-224 824,-230.79 821.33,-235.73 805,-244 782.14,-255.58 755.71,-267.64 736.06,-276.36"/>
<polygon fill="midnightblue" stroke="midnightblue" points="734.47,-273.23 726.73,-280.47 737.3,-279.64 734.47,-273.23"/>
</g>
<!-- Node18 -->
<g id="node18" class="node">
<title>Node18</title>
<g id="a_node18"><a xlink:title=" ">
<polygon fill="none" stroke="#bfbfbf" points="680,-56.5 680,-75.5 726,-75.5 726,-56.5 680,-56.5"/>
<text text-anchor="middle" x="703" y="-63.5" font-family="Helvetica,sans-Serif" font-size="10.00">math.h</text>
</a>
</g>
</g>
<!-- Node17&#45;&gt;Node18 -->
<g id="edge26" class="edge">
<title>Node17&#45;&gt;Node18</title>
<path fill="none" stroke="midnightblue" d="M1009.1,-168.17C999.03,-153.84 977.04,-125.77 951,-112 914.22,-92.55 795.24,-77.17 736.47,-70.54"/>
<polygon fill="midnightblue" stroke="midnightblue" points="736.56,-67.03 726.23,-69.4 735.79,-73.99 736.56,-67.03"/>
</g>
<!-- Node19&#45;&gt;Node1 -->
<g id="edge35" class="edge">
<title>Node19&#45;&gt;Node1</title>
<path fill="none" stroke="midnightblue" d="M535.84,-187.05C483.36,-196.67 403.78,-212.85 395,-224 389.5,-230.98 389.77,-236.81 395,-244 454.29,-325.51 580.8,-342.59 653.19,-345.37"/>
<polygon fill="midnightblue" stroke="midnightblue" points="653.36,-348.87 663.46,-345.68 653.58,-341.88 653.36,-348.87"/>
</g>
<!-- Node19&#45;&gt;Node7 -->
<g id="edge33" class="edge">
<title>Node19&#45;&gt;Node7</title>
<path fill="none" stroke="midnightblue" d="M628.1,-168.5C679.69,-159 763.27,-143.59 818.68,-133.38"/>
<polygon fill="midnightblue" stroke="midnightblue" points="819.48,-136.79 828.68,-131.54 818.21,-129.91 819.48,-136.79"/>
</g>
<!-- Node19&#45;&gt;Node9 -->
<g id="edge34" class="edge">
<title>Node19&#45;&gt;Node9</title>
<path fill="none" stroke="midnightblue" d="M590.39,-187.73C602.8,-200.51 626.97,-224.87 649,-244 661.27,-254.65 675.7,-265.86 687.1,-274.42"/>
<polygon fill="midnightblue" stroke="midnightblue" points="685.03,-277.24 695.14,-280.4 689.21,-271.63 685.03,-277.24"/>
</g>
<!-- Node20 -->
<g id="node20" class="node">
<title>Node20</title>
<g id="a_node20"><a xlink:href="timedependentparameter_8hpp.html" target="_top" xlink:title="MODEL::TimeDependentParameter source file.">
<polygon fill="none" stroke="black" points="423,-112.5 423,-131.5 565,-131.5 565,-112.5 423,-112.5"/>
<text text-anchor="middle" x="494" y="-119.5" font-family="Helvetica,sans-Serif" font-size="10.00">timedependentparameter.hpp</text>
</a>
</g>
</g>
<!-- Node19&#45;&gt;Node20 -->
<g id="edge36" class="edge">
<title>Node19&#45;&gt;Node20</title>
<path fill="none" stroke="midnightblue" d="M567.86,-168.32C554.13,-159.9 533.06,-146.97 516.94,-137.07"/>
<polygon fill="midnightblue" stroke="midnightblue" points="518.46,-133.9 508.1,-131.65 514.8,-139.87 518.46,-133.9"/>
</g>
<!-- Node20&#45;&gt;Node2 -->
<g id="edge38" class="edge">
<title>Node20&#45;&gt;Node2</title>
<path fill="none" stroke="midnightblue" d="M491.88,-112.37C487.52,-94.62 477.47,-53.67 471.56,-29.6"/>
<polygon fill="midnightblue" stroke="midnightblue" points="474.89,-28.47 469.11,-19.59 468.09,-30.14 474.89,-28.47"/>
</g>
<!-- Node20&#45;&gt;Node6 -->
<g id="edge40" class="edge">
<title>Node20&#45;&gt;Node6</title>
<path fill="none" stroke="midnightblue" d="M472.29,-112.44C449.65,-103.52 413.93,-89.44 388.25,-79.32"/>
<polygon fill="midnightblue" stroke="midnightblue" points="389.19,-75.93 378.61,-75.52 386.63,-82.44 389.19,-75.93"/>
</g>
<!-- Node20&#45;&gt;Node18 -->
<g id="edge37" class="edge">
<title>Node20&#45;&gt;Node18</title>
<path fill="none" stroke="midnightblue" d="M527.12,-112.44C566.21,-102.34 630.84,-85.64 669.92,-75.55"/>
<polygon fill="midnightblue" stroke="midnightblue" points="670.94,-78.9 679.75,-73.01 669.19,-72.12 670.94,-78.9"/>
</g>
<!-- Node21 -->
<g id="node21" class="node">
<title>Node21</title>
<g id="a_node21"><a xlink:title=" ">
<polygon fill="none" stroke="#bfbfbf" points="495.5,-56.5 495.5,-75.5 546.5,-75.5 546.5,-56.5 495.5,-56.5"/>
<text text-anchor="middle" x="521" y="-63.5" font-family="Helvetica,sans-Serif" font-size="10.00">numeric</text>
</a>
</g>
</g>
<!-- Node20&#45;&gt;Node21 -->
<g id="edge39" class="edge">
<title>Node20&#45;&gt;Node21</title>
<path fill="none" stroke="midnightblue" d="M498.46,-112.08C502.15,-104.69 507.52,-93.95 512.09,-84.81"/>
<polygon fill="midnightblue" stroke="midnightblue" points="515.28,-86.26 516.62,-75.75 509.02,-83.13 515.28,-86.26"/>
</g>
<!-- Node22&#45;&gt;Node1 -->
<g id="edge44" class="edge">
<title>Node22&#45;&gt;Node1</title>
<path fill="none" stroke="midnightblue" d="M434.07,-187.64C417.28,-194.59 397.02,-206.18 387,-224 367.87,-258.02 397.39,-280.16 431,-300 467.69,-321.65 583.77,-334.77 653.16,-340.87"/>
<polygon fill="midnightblue" stroke="midnightblue" points="653.2,-344.39 663.46,-341.76 653.8,-337.41 653.2,-344.39"/>
</g>
<!-- Node22&#45;&gt;Node7 -->
<g id="edge42" class="edge">
<title>Node22&#45;&gt;Node7</title>
<path fill="none" stroke="midnightblue" d="M517.52,-169.27C520.73,-168.84 523.9,-168.41 527,-168 620.1,-155.63 727.28,-141.84 797.81,-132.83"/>
<polygon fill="midnightblue" stroke="midnightblue" points="798.47,-136.27 807.94,-131.53 797.58,-129.33 798.47,-136.27"/>
</g>
<!-- Node22&#45;&gt;Node9 -->
<g id="edge43" class="edge">
<title>Node22&#45;&gt;Node9</title>
<path fill="none" stroke="midnightblue" d="M483.5,-187.51C506.26,-196.24 542.34,-210.43 573,-224 611.11,-240.88 654.36,-262.27 681.16,-275.8"/>
<polygon fill="midnightblue" stroke="midnightblue" points="679.75,-279.01 690.25,-280.41 682.92,-272.77 679.75,-279.01"/>
</g>
<!-- Node22&#45;&gt;Node20 -->
<g id="edge45" class="edge">
<title>Node22&#45;&gt;Node20</title>
<path fill="none" stroke="midnightblue" d="M466.45,-168.08C471.01,-160.61 477.67,-149.72 483.29,-140.52"/>
<polygon fill="midnightblue" stroke="midnightblue" points="486.42,-142.11 488.65,-131.75 480.45,-138.46 486.42,-142.11"/>
</g>
<!-- Node23&#45;&gt;Node1 -->
<g id="edge49" class="edge">
<title>Node23&#45;&gt;Node1</title>
<path fill="none" stroke="midnightblue" d="M1219.9,-187.61C1177.98,-209.66 1061.53,-268.66 958,-300 891.6,-320.1 812.44,-332.45 761.02,-339.01"/>
<polygon fill="midnightblue" stroke="midnightblue" points="760.3,-335.58 750.81,-340.29 761.16,-342.52 760.3,-335.58"/>
</g>
<!-- Node23&#45;&gt;Node7 -->
<g id="edge47" class="edge">
<title>Node23&#45;&gt;Node7</title>
<path fill="none" stroke="midnightblue" d="M1178.8,-168.44C1114.5,-158.83 1010.22,-143.23 942.13,-133.04"/>
<polygon fill="midnightblue" stroke="midnightblue" points="942.34,-129.53 931.93,-131.52 941.31,-136.46 942.34,-129.53"/>
</g>
<!-- Node23&#45;&gt;Node9 -->
<g id="edge48" class="edge">
<title>Node23&#45;&gt;Node9</title>
<path fill="none" stroke="midnightblue" d="M1204.97,-187.61C1156.4,-200.88 1059.36,-226.64 976,-244 908.47,-258.07 830.68,-270.7 776.18,-278.97"/>
<polygon fill="midnightblue" stroke="midnightblue" points="775.65,-275.51 766.29,-280.46 776.7,-282.43 775.65,-275.51"/>
</g>
<!-- Node24&#45;&gt;Node1 -->
<g id="edge53" class="edge">
<title>Node24&#45;&gt;Node1</title>
<path fill="none" stroke="midnightblue" d="M892.69,-187.53C914.64,-199.32 947.48,-221.67 933,-244 895.11,-302.44 814.63,-327.36 760.66,-337.79"/>
<polygon fill="midnightblue" stroke="midnightblue" points="759.78,-334.39 750.57,-339.63 761.04,-341.27 759.78,-334.39"/>
</g>
<!-- Node24&#45;&gt;Node7 -->
<g id="edge51" class="edge">
<title>Node24&#45;&gt;Node7</title>
<path fill="none" stroke="midnightblue" d="M875,-168.08C875,-161.01 875,-150.86 875,-141.99"/>
<polygon fill="midnightblue" stroke="midnightblue" points="878.5,-141.75 875,-131.75 871.5,-141.75 878.5,-141.75"/>
</g>
<!-- Node24&#45;&gt;Node9 -->
<g id="edge52" class="edge">
<title>Node24&#45;&gt;Node9</title>
<path fill="none" stroke="midnightblue" d="M861.88,-187.59C833.11,-206.43 764.22,-251.53 728.82,-274.71"/>
<polygon fill="midnightblue" stroke="midnightblue" points="726.63,-271.96 720.18,-280.37 730.47,-277.82 726.63,-271.96"/>
</g>
<!-- Node24&#45;&gt;Node20 -->
<g id="edge54" class="edge">
<title>Node24&#45;&gt;Node20</title>
<path fill="none" stroke="midnightblue" d="M814.63,-168.44C746.63,-158.81 636.26,-143.16 564.4,-132.98"/>
<polygon fill="midnightblue" stroke="midnightblue" points="564.48,-129.45 554.09,-131.52 563.5,-136.39 564.48,-129.45"/>
</g>
<!-- Node25&#45;&gt;Node1 -->
<g id="edge58" class="edge">
<title>Node25&#45;&gt;Node1</title>
<path fill="none" stroke="midnightblue" d="M260.09,-187.56C279.47,-210.29 336.03,-272.32 398,-300 481.7,-337.38 589.63,-345.01 653.28,-345.89"/>
<polygon fill="midnightblue" stroke="midnightblue" points="653.45,-349.39 663.48,-345.97 653.51,-342.39 653.45,-349.39"/>
</g>
<!-- Node25&#45;&gt;Node7 -->
<g id="edge56" class="edge">
<title>Node25&#45;&gt;Node7</title>
<path fill="none" stroke="midnightblue" d="M347.81,-168.77C470.94,-158.08 683.57,-139.62 797.53,-129.73"/>
<polygon fill="midnightblue" stroke="midnightblue" points="797.92,-133.21 807.58,-128.85 797.31,-126.23 797.92,-133.21"/>
</g>
<!-- Node25&#45;&gt;Node9 -->
<g id="edge57" class="edge">
<title>Node25&#45;&gt;Node9</title>
<path fill="none" stroke="midnightblue" d="M267.79,-187.5C293.01,-201.6 346.36,-229.68 395,-244 472.49,-266.81 564.35,-278.28 628.24,-283.9"/>
<polygon fill="midnightblue" stroke="midnightblue" points="627.98,-287.39 638.25,-284.75 628.58,-280.41 627.98,-287.39"/>
</g>
<!-- Node25&#45;&gt;Node20 -->
<g id="edge59" class="edge">
<title>Node25&#45;&gt;Node20</title>
<path fill="none" stroke="midnightblue" d="M291.19,-168.44C333.14,-159.04 400.59,-143.93 446.07,-133.74"/>
<polygon fill="midnightblue" stroke="midnightblue" points="447,-137.12 455.99,-131.52 445.47,-130.29 447,-137.12"/>
</g>
</g>
</svg>
