<?xml version="1.0" encoding="UTF-8" standalone="no"?>
<!DOCTYPE svg PUBLIC "-//W3C//DTD SVG 1.1//EN"
 "http://www.w3.org/Graphics/SVG/1.1/DTD/svg11.dtd">
<!-- Generated by graphviz version 3.0.0 (20220413.0242)
 -->
<!-- Title: model/block.hpp Pages: 1 -->
<svg width="1166pt" height="252pt"
 viewBox="0.00 0.00 1166.00 252.00" xmlns="http://www.w3.org/2000/svg" xmlns:xlink="http://www.w3.org/1999/xlink">
<g id="graph0" class="graph" transform="scale(1 1) rotate(0) translate(4 248)">
<title>model/block.hpp</title>
<!-- Node1 -->
<g id="node1" class="node">
<title>Node1</title>
<g id="a_node1"><a xlink:title="MODEL::Block source file.">
<polygon fill="#bfbfbf" stroke="black" points="761.5,-224.5 761.5,-243.5 848.5,-243.5 848.5,-224.5 761.5,-224.5"/>
<text text-anchor="middle" x="805" y="-231.5" font-family="Helvetica,sans-Serif" font-size="10.00">model/block.hpp</text>
</a>
</g>
</g>
<!-- Node2 -->
<g id="node2" class="node">
<title>Node2</title>
<g id="a_node2"><a xlink:href="bloodvessel_8hpp.html" target="_top" xlink:title="MODEL::BloodVessel source file.">
<polygon fill="none" stroke="black" points="661,-168.5 661,-187.5 777,-187.5 777,-168.5 661,-168.5"/>
<text text-anchor="middle" x="719" y="-175.5" font-family="Helvetica,sans-Serif" font-size="10.00">model/bloodvessel.hpp</text>
</a>
</g>
</g>
<!-- Node1&#45;&gt;Node2 -->
<g id="edge1" class="edge">
<title>Node1&#45;&gt;Node2</title>
<path fill="none" stroke="midnightblue" d="M782.55,-218.9C766.78,-209 746.19,-196.07 732.78,-187.65"/>
<polygon fill="midnightblue" stroke="midnightblue" points="780.85,-221.97 791.18,-224.32 784.57,-216.04 780.85,-221.97"/>
</g>
<!-- Node7 -->
<g id="node7" class="node">
<title>Node7</title>
<g id="a_node7"><a xlink:href="flowreference_8hpp.html" target="_top" xlink:title="MODEL::FlowReference source file.">
<polygon fill="none" stroke="black" points="0,-0.5 0,-19.5 122,-19.5 122,-0.5 0,-0.5"/>
<text text-anchor="middle" x="61" y="-7.5" font-family="Helvetica,sans-Serif" font-size="10.00">model/flowreference.hpp</text>
</a>
</g>
</g>
<!-- Node1&#45;&gt;Node7 -->
<g id="edge27" class="edge">
<title>Node1&#45;&gt;Node7</title>
<path fill="none" stroke="midnightblue" d="M751.22,-231.1C671.93,-227.4 519.37,-216.88 393,-188 320.37,-171.4 302.65,-163.2 235,-132 189.8,-111.15 178.74,-104.61 138,-76 111.95,-57.7 84.02,-32.57 70.05,-19.57"/>
<polygon fill="midnightblue" stroke="midnightblue" points="751.3,-234.6 761.45,-231.55 751.62,-227.61 751.3,-234.6"/>
</g>
<!-- Node8 -->
<g id="node8" class="node">
<title>Node8</title>
<g id="a_node8"><a xlink:href="junction_8hpp.html" target="_top" xlink:title="MODEL::Junction source file.">
<polygon fill="none" stroke="black" points="140,-0.5 140,-19.5 238,-19.5 238,-0.5 140,-0.5"/>
<text text-anchor="middle" x="189" y="-7.5" font-family="Helvetica,sans-Serif" font-size="10.00">model/junction.hpp</text>
</a>
</g>
</g>
<!-- Node1&#45;&gt;Node8 -->
<g id="edge28" class="edge">
<title>Node1&#45;&gt;Node8</title>
<path fill="none" stroke="midnightblue" d="M750.95,-227.57C613.88,-212.56 258.63,-165.6 189,-76 176.26,-59.6 181.83,-33.2 185.98,-19.64"/>
<polygon fill="midnightblue" stroke="midnightblue" points="750.89,-231.08 761.21,-228.67 751.65,-224.12 750.89,-231.08"/>
</g>
<!-- Node9 -->
<g id="node9" class="node">
<title>Node9</title>
<g id="a_node9"><a xlink:href="pressurereference_8hpp.html" target="_top" xlink:title="MODEL::PressureReference source file.">
<polygon fill="none" stroke="black" points="614,-0.5 614,-19.5 756,-19.5 756,-0.5 614,-0.5"/>
<text text-anchor="middle" x="685" y="-7.5" font-family="Helvetica,sans-Serif" font-size="10.00">model/pressurereference.hpp</text>
</a>
</g>
</g>
<!-- Node1&#45;&gt;Node9 -->
<g id="edge29" class="edge">
<title>Node1&#45;&gt;Node9</title>
<path fill="none" stroke="midnightblue" d="M818.27,-215.86C842.85,-181.91 889.65,-105.14 852,-56 838.9,-38.9 788.01,-26.83 745.82,-19.53"/>
<polygon fill="midnightblue" stroke="midnightblue" points="815.19,-214.14 812.02,-224.25 820.8,-218.32 815.19,-214.14"/>
</g>
<!-- Node10 -->
<g id="node10" class="node">
<title>Node10</title>
<g id="a_node10"><a xlink:href="rcrblockwithdistalpressure_8hpp.html" target="_top" xlink:title="MODEL::RCRBlockWithDistalPressure source file.">
<polygon fill="none" stroke="black" points="774.5,-0.5 774.5,-19.5 951.5,-19.5 951.5,-0.5 774.5,-0.5"/>
<text text-anchor="middle" x="863" y="-7.5" font-family="Helvetica,sans-Serif" font-size="10.00">model/rcrblockwithdistalpressure.hpp</text>
</a>
</g>
</g>
<!-- Node1&#45;&gt;Node10 -->
<g id="edge30" class="edge">
<title>Node1&#45;&gt;Node10</title>
<path fill="none" stroke="midnightblue" d="M844.69,-220.58C860.09,-213.59 876.14,-203.15 885,-188 918.14,-131.33 881.31,-47.14 867.66,-19.87"/>
<polygon fill="midnightblue" stroke="midnightblue" points="843.15,-217.43 835.25,-224.49 845.83,-223.89 843.15,-217.43"/>
</g>
<!-- Node11 -->
<g id="node11" class="node">
<title>Node11</title>
<g id="a_node11"><a xlink:href="resistancewithdistalpressure_8hpp.html" target="_top" xlink:title="MODEL::ResistanceWithDistalPressure source file.">
<polygon fill="none" stroke="black" points="970,-0.5 970,-19.5 1158,-19.5 1158,-0.5 970,-0.5"/>
<text text-anchor="middle" x="1064" y="-7.5" font-family="Helvetica,sans-Serif" font-size="10.00">model/resistancewithdistalpressure.hpp</text>
</a>
</g>
</g>
<!-- Node1&#45;&gt;Node11 -->
<g id="edge31" class="edge">
<title>Node1&#45;&gt;Node11</title>
<path fill="none" stroke="midnightblue" d="M840.14,-220.86C859.69,-213.15 883.87,-202 903,-188 974.41,-135.76 1038.45,-47.92 1057.94,-19.88"/>
<polygon fill="midnightblue" stroke="midnightblue" points="838.77,-217.64 830.67,-224.47 841.26,-224.18 838.77,-217.64"/>
</g>
<!-- Node3 -->
<g id="node3" class="node">
<title>Node3</title>
<g id="a_node3"><a xlink:href="model_8hpp.html" target="_top" xlink:title="MODEL::Model source file.">
<polygon fill="none" stroke="black" points="568,-112.5 568,-131.5 658,-131.5 658,-112.5 568,-112.5"/>
<text text-anchor="middle" x="613" y="-119.5" font-family="Helvetica,sans-Serif" font-size="10.00">model/model.hpp</text>
</a>
</g>
</g>
<!-- Node2&#45;&gt;Node3 -->
<g id="edge2" class="edge">
<title>Node2&#45;&gt;Node3</title>
<path fill="none" stroke="midnightblue" d="M692.94,-163.73C673.32,-153.73 646.97,-140.31 629.99,-131.65"/>
<polygon fill="midnightblue" stroke="midnightblue" points="691.47,-166.9 701.97,-168.32 694.65,-160.67 691.47,-166.9"/>
</g>
<!-- Node4 -->
<g id="node4" class="node">
<title>Node4</title>
<g id="a_node4"><a xlink:href="integrator_8hpp.html" target="_top" xlink:title="ALGEBRA::Integrator source file.">
<polygon fill="none" stroke="black" points="222,-56.5 222,-75.5 332,-75.5 332,-56.5 222,-56.5"/>
<text text-anchor="middle" x="277" y="-63.5" font-family="Helvetica,sans-Serif" font-size="10.00">algebra/integrator.hpp</text>
</a>
</g>
</g>
<!-- Node3&#45;&gt;Node4 -->
<g id="edge3" class="edge">
<title>Node3&#45;&gt;Node4</title>
<path fill="none" stroke="midnightblue" d="M557.53,-112.09C494.47,-101.95 392.25,-85.52 330.16,-75.54"/>
<polygon fill="midnightblue" stroke="midnightblue" points="557.26,-115.59 567.69,-113.72 558.37,-108.67 557.26,-115.59"/>
</g>
<!-- Node5 -->
<g id="node5" class="node">
<title>Node5</title>
<g id="a_node5"><a xlink:href="main_8cpp.html" target="_top" xlink:title="Main routine of svZeroDSolver.">
<polygon fill="none" stroke="black" points="426,-0.5 426,-19.5 482,-19.5 482,-0.5 426,-0.5"/>
<text text-anchor="middle" x="454" y="-7.5" font-family="Helvetica,sans-Serif" font-size="10.00">main.cpp</text>
</a>
</g>
</g>
<!-- Node3&#45;&gt;Node5 -->
<g id="edge26" class="edge">
<title>Node3&#45;&gt;Node5</title>
<path fill="none" stroke="midnightblue" d="M557.62,-118.79C453.2,-114.06 235.56,-101.24 213,-76 207.08,-69.37 207.32,-62.84 213,-56 239.79,-23.75 368.06,-14.49 425.77,-11.93"/>
<polygon fill="midnightblue" stroke="midnightblue" points="557.52,-122.29 567.67,-119.24 557.83,-115.3 557.52,-122.29"/>
</g>
<!-- Node6 -->
<g id="node6" class="node">
<title>Node6</title>
<g id="a_node6"><a xlink:href="sparsesystem_8hpp.html" target="_top" xlink:title="ALGEBRA::SparseSystem source file.">
<polygon fill="none" stroke="black" points="713,-56.5 713,-75.5 843,-75.5 843,-56.5 713,-56.5"/>
<text text-anchor="middle" x="778" y="-63.5" font-family="Helvetica,sans-Serif" font-size="10.00">algebra/sparsesystem.hpp</text>
</a>
</g>
</g>
<!-- Node3&#45;&gt;Node6 -->
<g id="edge5" class="edge">
<title>Node3&#45;&gt;Node6</title>
<path fill="none" stroke="midnightblue" d="M643.83,-109.04C673.31,-98.88 717.32,-84.55 746.9,-75.52"/>
<polygon fill="midnightblue" stroke="midnightblue" points="642.35,-105.85 634.06,-112.44 644.65,-112.46 642.35,-105.85"/>
</g>
<!-- Node12 -->
<g id="node12" class="node">
<title>Node12</title>
<g id="a_node12"><a xlink:href="configreader_8hpp.html" target="_top" xlink:title="IO::ConfigReader source file.">
<polygon fill="none" stroke="black" points="350,-56.5 350,-75.5 448,-75.5 448,-56.5 350,-56.5"/>
<text text-anchor="middle" x="399" y="-63.5" font-family="Helvetica,sans-Serif" font-size="10.00">io/configreader.hpp</text>
</a>
</g>
</g>
<!-- Node3&#45;&gt;Node12 -->
<g id="edge20" class="edge">
<title>Node3&#45;&gt;Node12</title>
<path fill="none" stroke="midnightblue" d="M569.24,-109.96C528.83,-99.76 469.63,-84.82 432.75,-75.52"/>
<polygon fill="midnightblue" stroke="midnightblue" points="568.54,-113.39 579.09,-112.44 570.25,-106.6 568.54,-113.39"/>
</g>
<!-- Node13 -->
<g id="node13" class="node">
<title>Node13</title>
<g id="a_node13"><a xlink:href="csvwriter_8hpp.html" target="_top" xlink:title="IO::write_csv source file.">
<polygon fill="none" stroke="black" points="466.5,-56.5 466.5,-75.5 551.5,-75.5 551.5,-56.5 466.5,-56.5"/>
<text text-anchor="middle" x="509" y="-63.5" font-family="Helvetica,sans-Serif" font-size="10.00">io/csvwriter.hpp</text>
</a>
</g>
</g>
<!-- Node3&#45;&gt;Node13 -->
<g id="edge22" class="edge">
<title>Node3&#45;&gt;Node13</title>
<path fill="none" stroke="midnightblue" d="M587.17,-107.59C567.94,-97.61 542.26,-84.27 525.67,-75.65"/>
<polygon fill="midnightblue" stroke="midnightblue" points="585.8,-110.82 596.29,-112.32 589.03,-104.61 585.8,-110.82"/>
</g>
<!-- Node14 -->
<g id="node14" class="node">
<title>Node14</title>
<g id="a_node14"><a xlink:href="jsonwriter_8hpp.html" target="_top" xlink:title="IO::write_json source file.">
<polygon fill="none" stroke="black" points="569.5,-56.5 569.5,-75.5 656.5,-75.5 656.5,-56.5 569.5,-56.5"/>
<text text-anchor="middle" x="613" y="-63.5" font-family="Helvetica,sans-Serif" font-size="10.00">io/jsonwriter.hpp</text>
</a>
</g>
</g>
<!-- Node3&#45;&gt;Node14 -->
<g id="edge24" class="edge">
<title>Node3&#45;&gt;Node14</title>
<path fill="none" stroke="midnightblue" d="M613,-101.8C613,-92.91 613,-82.78 613,-75.75"/>
<polygon fill="midnightblue" stroke="midnightblue" points="609.5,-102.08 613,-112.08 616.5,-102.08 609.5,-102.08"/>
</g>
<!-- Node4&#45;&gt;Node5 -->
<g id="edge4" class="edge">
<title>Node4&#45;&gt;Node5</title>
<path fill="none" stroke="midnightblue" d="M314.9,-53.44C348.28,-43.26 396.1,-28.66 426.09,-19.52"/>
<polygon fill="midnightblue" stroke="midnightblue" points="313.59,-50.18 305.05,-56.44 315.63,-56.87 313.59,-50.18"/>
</g>
<!-- Node6&#45;&gt;Node1 -->
<g id="edge7" class="edge">
<title>Node6&#45;&gt;Node1</title>
<path fill="none" stroke="midnightblue" d="M781.02,-85.58C786.82,-121.21 799.3,-197.95 803.55,-224.08"/>
<polygon fill="midnightblue" stroke="midnightblue" points="784.45,-84.88 779.39,-75.57 777.54,-86 784.45,-84.88"/>
</g>
<!-- Node6&#45;&gt;Node2 -->
<g id="edge8" class="edge">
<title>Node6&#45;&gt;Node2</title>
<path fill="none" stroke="midnightblue" d="M768.55,-84.63C755.71,-108.55 733.28,-150.38 723.63,-168.37"/>
<polygon fill="midnightblue" stroke="midnightblue" points="771.75,-86.06 773.39,-75.59 765.58,-82.75 771.75,-86.06"/>
</g>
<!-- Node6&#45;&gt;Node3 -->
<g id="edge13" class="edge">
<title>Node6&#45;&gt;Node3</title>
<path fill="none" stroke="midnightblue" d="M747.3,-78.92C717.86,-89.06 673.85,-103.4 644.23,-112.44"/>
<polygon fill="midnightblue" stroke="midnightblue" points="748.77,-82.11 757.06,-75.52 746.46,-75.5 748.77,-82.11"/>
</g>
<!-- Node6&#45;&gt;Node5 -->
<g id="edge6" class="edge">
<title>Node6&#45;&gt;Node5</title>
<path fill="none" stroke="midnightblue" d="M716.6,-54.77C646.24,-43.04 533.99,-24.33 482.05,-15.67"/>
<polygon fill="midnightblue" stroke="midnightblue" points="716.22,-58.25 726.66,-56.44 717.37,-51.35 716.22,-58.25"/>
</g>
<!-- Node6&#45;&gt;Node7 -->
<g id="edge9" class="edge">
<title>Node6&#45;&gt;Node7</title>
<path fill="none" stroke="midnightblue" d="M702.67,-58.81C690.41,-57.84 677.85,-56.88 666,-56 428.33,-38.46 368.18,-43.21 131,-20 128.07,-19.71 125.08,-19.4 122.06,-19.07"/>
<polygon fill="midnightblue" stroke="midnightblue" points="702.62,-62.32 712.86,-59.62 703.17,-55.34 702.62,-62.32"/>
</g>
<!-- Node6&#45;&gt;Node8 -->
<g id="edge11" class="edge">
<title>Node6&#45;&gt;Node8</title>
<path fill="none" stroke="midnightblue" d="M702.96,-58.12C580.51,-46.89 341.07,-24.94 238.05,-15.5"/>
<polygon fill="midnightblue" stroke="midnightblue" points="702.72,-61.61 713,-59.04 703.36,-54.64 702.72,-61.61"/>
</g>
<!-- Node6&#45;&gt;Node9 -->
<g id="edge14" class="edge">
<title>Node6&#45;&gt;Node9</title>
<path fill="none" stroke="midnightblue" d="M754.19,-51.18C737.08,-41.24 714.53,-28.15 699.9,-19.65"/>
<polygon fill="midnightblue" stroke="midnightblue" points="752.65,-54.33 763.06,-56.32 756.17,-48.28 752.65,-54.33"/>
</g>
<!-- Node6&#45;&gt;Node10 -->
<g id="edge16" class="edge">
<title>Node6&#45;&gt;Node10</title>
<path fill="none" stroke="midnightblue" d="M800.19,-50.9C815.78,-41 836.13,-28.07 849.38,-19.65"/>
<polygon fill="midnightblue" stroke="midnightblue" points="798.22,-48.01 791.66,-56.32 801.97,-53.92 798.22,-48.01"/>
</g>
<!-- Node6&#45;&gt;Node11 -->
<g id="edge18" class="edge">
<title>Node6&#45;&gt;Node11</title>
<path fill="none" stroke="midnightblue" d="M833.41,-54.54C887.47,-44.33 968.67,-29 1018.89,-19.52"/>
<polygon fill="midnightblue" stroke="midnightblue" points="832.49,-51.15 823.32,-56.44 833.79,-58.03 832.49,-51.15"/>
</g>
<!-- Node7&#45;&gt;Node3 -->
<g id="edge10" class="edge">
<title>Node7&#45;&gt;Node3</title>
<path fill="none" stroke="midnightblue" d="M82.32,-24.9C106.93,-40.21 149.16,-64.21 189,-76 322.62,-115.55 489,-121.27 567.7,-121.52"/>
<polygon fill="midnightblue" stroke="midnightblue" points="84.11,-21.9 73.79,-19.51 80.36,-27.81 84.11,-21.9"/>
</g>
<!-- Node8&#45;&gt;Node3 -->
<g id="edge12" class="edge">
<title>Node8&#45;&gt;Node3</title>
<path fill="none" stroke="midnightblue" d="M188.23,-29.83C188.73,-44.65 192.05,-64.65 205,-76 231.9,-99.57 467.5,-113.85 567.95,-118.91"/>
<polygon fill="midnightblue" stroke="midnightblue" points="191.73,-29.75 188.29,-19.73 184.73,-29.71 191.73,-29.75"/>
</g>
<!-- Node9&#45;&gt;Node3 -->
<g id="edge15" class="edge">
<title>Node9&#45;&gt;Node3</title>
<path fill="none" stroke="midnightblue" d="M682.47,-29.8C679.95,-43.48 675.1,-61.98 666,-76 656.01,-91.39 639.2,-104.37 627.19,-112.37"/>
<polygon fill="midnightblue" stroke="midnightblue" points="685.97,-30.08 684.07,-19.65 679.05,-28.98 685.97,-30.08"/>
</g>
<!-- Node10&#45;&gt;Node3 -->
<g id="edge17" class="edge">
<title>Node10&#45;&gt;Node3</title>
<path fill="none" stroke="midnightblue" d="M865.13,-29.86C865.66,-44.41 863.77,-64.01 852,-76 825.6,-102.89 719.82,-114.16 658.19,-118.52"/>
<polygon fill="midnightblue" stroke="midnightblue" points="868.59,-29.21 864.33,-19.51 861.61,-29.75 868.59,-29.21"/>
</g>
<!-- Node11&#45;&gt;Node3 -->
<g id="edge19" class="edge">
<title>Node11&#45;&gt;Node3</title>
<path fill="none" stroke="midnightblue" d="M1032.9,-23.11C995.11,-37.44 929.2,-61.22 871,-76 797.41,-94.7 710.04,-108.15 658.18,-115.24"/>
<polygon fill="midnightblue" stroke="midnightblue" points="1034.23,-26.35 1042.33,-19.51 1031.74,-19.81 1034.23,-26.35"/>
</g>
<!-- Node12&#45;&gt;Node5 -->
<g id="edge21" class="edge">
<title>Node12&#45;&gt;Node5</title>
<path fill="none" stroke="midnightblue" d="M415.29,-49C425.04,-39.43 437.05,-27.64 445.09,-19.75"/>
<polygon fill="midnightblue" stroke="midnightblue" points="412.77,-46.58 408.08,-56.08 417.67,-51.57 412.77,-46.58"/>
</g>
<!-- Node13&#45;&gt;Node5 -->
<g id="edge23" class="edge">
<title>Node13&#45;&gt;Node5</title>
<path fill="none" stroke="midnightblue" d="M492.71,-49C482.96,-39.43 470.95,-27.64 462.91,-19.75"/>
<polygon fill="midnightblue" stroke="midnightblue" points="490.33,-51.57 499.92,-56.08 495.23,-46.58 490.33,-51.57"/>
</g>
<!-- Node14&#45;&gt;Node5 -->
<g id="edge25" class="edge">
<title>Node14&#45;&gt;Node5</title>
<path fill="none" stroke="midnightblue" d="M578.17,-53.17C548.23,-43 505.78,-28.59 479.08,-19.52"/>
<polygon fill="midnightblue" stroke="midnightblue" points="577.21,-56.54 587.81,-56.44 579.46,-49.91 577.21,-56.54"/>
</g>
</g>
</svg>
