<?xml version="1.0" encoding="UTF-8" standalone="no"?>
<!DOCTYPE svg PUBLIC "-//W3C//DTD SVG 1.1//EN"
 "http://www.w3.org/Graphics/SVG/1.1/DTD/svg11.dtd">
<!-- Generated by graphviz version 3.0.0 (20220413.0242)
 -->
<!-- Title: model/block.hpp Pages: 1 -->
<svg width="1397pt" height="252pt"
 viewBox="0.00 0.00 1396.50 252.00" xmlns="http://www.w3.org/2000/svg" xmlns:xlink="http://www.w3.org/1999/xlink">
<g id="graph0" class="graph" transform="scale(1 1) rotate(0) translate(4 248)">
<title>model/block.hpp</title>
<!-- Node1 -->
<g id="node1" class="node">
<title>Node1</title>
<g id="a_node1"><a xlink:title="MODEL::Block source file.">
<polygon fill="#bfbfbf" stroke="black" points="899.5,-224.5 899.5,-243.5 986.5,-243.5 986.5,-224.5 899.5,-224.5"/>
<text text-anchor="middle" x="943" y="-231.5" font-family="Helvetica,sans-Serif" font-size="10.00">model/block.hpp</text>
</a>
</g>
</g>
<!-- Node2 -->
<g id="node2" class="node">
<title>Node2</title>
<g id="a_node2"><a xlink:href="bloodvessel_8hpp.html" target="_top" xlink:title="MODEL::BloodVessel source file.">
<polygon fill="none" stroke="black" points="769,-168.5 769,-187.5 885,-187.5 885,-168.5 769,-168.5"/>
<text text-anchor="middle" x="827" y="-175.5" font-family="Helvetica,sans-Serif" font-size="10.00">model/bloodvessel.hpp</text>
</a>
</g>
</g>
<!-- Node1&#45;&gt;Node2 -->
<g id="edge1" class="edge">
<title>Node1&#45;&gt;Node2</title>
<path fill="none" stroke="midnightblue" d="M915.28,-220.1C893.61,-210.01 864.1,-196.27 845.29,-187.52"/>
<polygon fill="midnightblue" stroke="midnightblue" points="914.08,-223.4 924.62,-224.44 917.03,-217.05 914.08,-223.4"/>
</g>
<!-- Node6 -->
<g id="node6" class="node">
<title>Node6</title>
<g id="a_node6"><a xlink:href="closedloopheartpulmonary_8hpp.html" target="_top" xlink:title="MODEL::ClosedLoopHeartPulmonary source file.">
<polygon fill="none" stroke="black" points="925,-0.5 925,-19.5 1101,-19.5 1101,-0.5 925,-0.5"/>
<text text-anchor="middle" x="1013" y="-7.5" font-family="Helvetica,sans-Serif" font-size="10.00">model/closedloopheartpulmonary.hpp</text>
</a>
</g>
</g>
<!-- Node1&#45;&gt;Node6 -->
<g id="edge42" class="edge">
<title>Node1&#45;&gt;Node6</title>
<path fill="none" stroke="midnightblue" d="M996.52,-229.4C1025.07,-224.43 1057.95,-213.16 1076,-188 1110.2,-140.33 1102.84,-108.16 1076,-56 1067.2,-38.91 1048.58,-26.87 1033.85,-19.57"/>
<polygon fill="midnightblue" stroke="midnightblue" points="995.99,-225.94 986.63,-230.91 997.04,-232.86 995.99,-225.94"/>
</g>
<!-- Node7 -->
<g id="node7" class="node">
<title>Node7</title>
<g id="a_node7"><a xlink:href="flowreferencebc_8hpp.html" target="_top" xlink:title="MODEL::FlowReferenceBC source file.">
<polygon fill="none" stroke="black" points="1119,-0.5 1119,-19.5 1251,-19.5 1251,-0.5 1119,-0.5"/>
<text text-anchor="middle" x="1185" y="-7.5" font-family="Helvetica,sans-Serif" font-size="10.00">model/flowreferencebc.hpp</text>
</a>
</g>
</g>
<!-- Node1&#45;&gt;Node7 -->
<g id="edge43" class="edge">
<title>Node1&#45;&gt;Node7</title>
<path fill="none" stroke="midnightblue" d="M996.68,-227.95C1028.57,-222.53 1068.09,-211.29 1096,-188 1152.77,-140.62 1176.96,-47.98 1183.25,-19.52"/>
<polygon fill="midnightblue" stroke="midnightblue" points="995.97,-224.52 986.62,-229.51 997.04,-231.44 995.97,-224.52"/>
</g>
<!-- Node8 -->
<g id="node8" class="node">
<title>Node8</title>
<g id="a_node8"><a xlink:href="junction_8hpp.html" target="_top" xlink:title="MODEL::Junction source file.">
<polygon fill="none" stroke="black" points="329,-0.5 329,-19.5 427,-19.5 427,-0.5 329,-0.5"/>
<text text-anchor="middle" x="378" y="-7.5" font-family="Helvetica,sans-Serif" font-size="10.00">model/junction.hpp</text>
</a>
</g>
</g>
<!-- Node1&#45;&gt;Node8 -->
<g id="edge44" class="edge">
<title>Node1&#45;&gt;Node8</title>
<path fill="none" stroke="midnightblue" d="M888.95,-229.7C738.99,-219.26 323.84,-181.17 249,-76 243.85,-68.76 243.85,-63.25 249,-56 259.61,-41.06 304.4,-27.76 338.25,-19.57"/>
<polygon fill="midnightblue" stroke="midnightblue" points="889.06,-233.22 899.28,-230.4 889.54,-226.23 889.06,-233.22"/>
</g>
<!-- Node9 -->
<g id="node9" class="node">
<title>Node9</title>
<g id="a_node9"><a xlink:href="openloopcoronarybc_8hpp.html" target="_top" xlink:title="MODEL::OpenLoopCoronaryBC source file.">
<polygon fill="none" stroke="black" points="445,-0.5 445,-19.5 595,-19.5 595,-0.5 445,-0.5"/>
<text text-anchor="middle" x="520" y="-7.5" font-family="Helvetica,sans-Serif" font-size="10.00">model/openloopcoronarybc.hpp</text>
</a>
</g>
</g>
<!-- Node1&#45;&gt;Node9 -->
<g id="edge45" class="edge">
<title>Node1&#45;&gt;Node9</title>
<path fill="none" stroke="midnightblue" d="M889.11,-232.84C802.08,-230.04 628.58,-213.69 512,-132 478.89,-108.8 444.21,-92.31 462,-56 470.19,-39.29 487.9,-27 501.61,-19.53"/>
<polygon fill="midnightblue" stroke="midnightblue" points="889.2,-236.34 899.29,-233.12 889.39,-229.35 889.2,-236.34"/>
</g>
<!-- Node10 -->
<g id="node10" class="node">
<title>Node10</title>
<g id="a_node10"><a xlink:href="pressurereferencebc_8hpp.html" target="_top" xlink:title="MODEL::PressureReferenceBC source file.">
<polygon fill="none" stroke="black" points="613,-0.5 613,-19.5 765,-19.5 765,-0.5 613,-0.5"/>
<text text-anchor="middle" x="689" y="-7.5" font-family="Helvetica,sans-Serif" font-size="10.00">model/pressurereferencebc.hpp</text>
</a>
</g>
</g>
<!-- Node1&#45;&gt;Node10 -->
<g id="edge46" class="edge">
<title>Node1&#45;&gt;Node10</title>
<path fill="none" stroke="midnightblue" d="M889.39,-223.53C775.88,-202.26 517.7,-146.93 469,-76 463.97,-68.67 463.38,-62.89 469,-56 479.09,-43.64 566.29,-28.68 627.82,-19.5"/>
<polygon fill="midnightblue" stroke="midnightblue" points="888.79,-226.98 899.26,-225.37 890.07,-220.1 888.79,-226.98"/>
</g>
<!-- Node11 -->
<g id="node11" class="node">
<title>Node11</title>
<g id="a_node11"><a xlink:href="resistancebc_8hpp.html" target="_top" xlink:title="MODEL::ResistanceBC source file.">
<polygon fill="none" stroke="black" points="1269.5,-0.5 1269.5,-19.5 1388.5,-19.5 1388.5,-0.5 1269.5,-0.5"/>
<text text-anchor="middle" x="1329" y="-7.5" font-family="Helvetica,sans-Serif" font-size="10.00">model/resistancebc.hpp</text>
</a>
</g>
</g>
<!-- Node1&#45;&gt;Node11 -->
<g id="edge47" class="edge">
<title>Node1&#45;&gt;Node11</title>
<path fill="none" stroke="midnightblue" d="M996.85,-225.68C1032.89,-219.27 1080.59,-207.77 1119,-188 1210.15,-141.09 1296.32,-48.13 1321.58,-19.56"/>
<polygon fill="midnightblue" stroke="midnightblue" points="995.8,-222.31 986.53,-227.44 996.98,-229.21 995.8,-222.31"/>
</g>
<!-- Node12 -->
<g id="node12" class="node">
<title>Node12</title>
<g id="a_node12"><a xlink:href="windkesselbc_8hpp.html" target="_top" xlink:title="MODEL::WindkesselBC source file.">
<polygon fill="none" stroke="black" points="783.5,-0.5 783.5,-19.5 906.5,-19.5 906.5,-0.5 783.5,-0.5"/>
<text text-anchor="middle" x="845" y="-7.5" font-family="Helvetica,sans-Serif" font-size="10.00">model/windkesselbc.hpp</text>
</a>
</g>
</g>
<!-- Node1&#45;&gt;Node12 -->
<g id="edge48" class="edge">
<title>Node1&#45;&gt;Node12</title>
<path fill="none" stroke="midnightblue" d="M963.09,-218.03C1003.35,-186.25 1086.49,-110.48 1043,-56 1033.87,-44.57 953.33,-29.04 897.83,-19.54"/>
<polygon fill="midnightblue" stroke="midnightblue" points="960.76,-215.41 954.98,-224.29 965.04,-220.95 960.76,-215.41"/>
</g>
<!-- Node3 -->
<g id="node3" class="node">
<title>Node3</title>
<g id="a_node3"><a xlink:href="model_8hpp.html" target="_top" xlink:title="MODEL::Model source file.">
<polygon fill="none" stroke="black" points="666,-112.5 666,-131.5 756,-131.5 756,-112.5 666,-112.5"/>
<text text-anchor="middle" x="711" y="-119.5" font-family="Helvetica,sans-Serif" font-size="10.00">model/model.hpp</text>
</a>
</g>
</g>
<!-- Node2&#45;&gt;Node3 -->
<g id="edge2" class="edge">
<title>Node2&#45;&gt;Node3</title>
<path fill="none" stroke="midnightblue" d="M799.28,-164.1C777.61,-154.01 748.1,-140.27 729.29,-131.52"/>
<polygon fill="midnightblue" stroke="midnightblue" points="798.08,-167.4 808.62,-168.44 801.03,-161.05 798.08,-167.4"/>
</g>
<!-- Node4 -->
<g id="node4" class="node">
<title>Node4</title>
<g id="a_node4"><a xlink:href="densesystem_8hpp.html" target="_top" xlink:title="ALGEBRA::DenseSystem source file.">
<polygon fill="none" stroke="black" points="906.5,-56.5 906.5,-75.5 1033.5,-75.5 1033.5,-56.5 906.5,-56.5"/>
<text text-anchor="middle" x="970" y="-63.5" font-family="Helvetica,sans-Serif" font-size="10.00">algebra/densesystem.hpp</text>
</a>
</g>
</g>
<!-- Node3&#45;&gt;Node4 -->
<g id="edge3" class="edge">
<title>Node3&#45;&gt;Node4</title>
<path fill="none" stroke="midnightblue" d="M756.9,-110.28C804.06,-100.08 876.9,-84.92 924.07,-75.52"/>
<polygon fill="midnightblue" stroke="midnightblue" points="755.98,-106.9 746.95,-112.44 757.47,-113.74 755.98,-106.9"/>
</g>
<!-- Node5 -->
<g id="node5" class="node">
<title>Node5</title>
<g id="a_node5"><a xlink:href="main_8cpp.html" target="_top" xlink:title="Main routine of svZeroDSolver.">
<polygon fill="none" stroke="black" points="255,-0.5 255,-19.5 311,-19.5 311,-0.5 255,-0.5"/>
<text text-anchor="middle" x="283" y="-7.5" font-family="Helvetica,sans-Serif" font-size="10.00">main.cpp</text>
</a>
</g>
</g>
<!-- Node3&#45;&gt;Node5 -->
<g id="edge41" class="edge">
<title>Node3&#45;&gt;Node5</title>
<path fill="none" stroke="midnightblue" d="M655.79,-113.19C606.39,-105.62 532.23,-92.82 469,-76 408.01,-59.77 338.32,-33.17 304.15,-19.58"/>
<polygon fill="midnightblue" stroke="midnightblue" points="655.53,-116.69 665.94,-114.72 656.58,-109.77 655.53,-116.69"/>
</g>
<!-- Node13 -->
<g id="node13" class="node">
<title>Node13</title>
<g id="a_node13"><a xlink:href="integrator_8hpp.html" target="_top" xlink:title="ALGEBRA::Integrator source file.">
<polygon fill="none" stroke="black" points="478,-56.5 478,-75.5 588,-75.5 588,-56.5 478,-56.5"/>
<text text-anchor="middle" x="533" y="-63.5" font-family="Helvetica,sans-Serif" font-size="10.00">algebra/integrator.hpp</text>
</a>
</g>
</g>
<!-- Node3&#45;&gt;Node13 -->
<g id="edge21" class="edge">
<title>Node3&#45;&gt;Node13</title>
<path fill="none" stroke="midnightblue" d="M672.88,-109.44C639.32,-99.26 591.23,-84.66 561.07,-75.52"/>
<polygon fill="midnightblue" stroke="midnightblue" points="672.21,-112.89 682.8,-112.44 674.24,-106.19 672.21,-112.89"/>
</g>
<!-- Node14 -->
<g id="node14" class="node">
<title>Node14</title>
<g id="a_node14"><a xlink:href="sparsesystem_8hpp.html" target="_top" xlink:title="ALGEBRA::SparseSystem source file.">
<polygon fill="none" stroke="black" points="758,-56.5 758,-75.5 888,-75.5 888,-56.5 758,-56.5"/>
<text text-anchor="middle" x="823" y="-63.5" font-family="Helvetica,sans-Serif" font-size="10.00">algebra/sparsesystem.hpp</text>
</a>
</g>
</g>
<!-- Node3&#45;&gt;Node14 -->
<g id="edge23" class="edge">
<title>Node3&#45;&gt;Node14</title>
<path fill="none" stroke="midnightblue" d="M732.89,-107.59C752.27,-97.61 780.21,-84.27 799.94,-75.65"/>
<polygon fill="midnightblue" stroke="midnightblue" points="731.1,-104.57 723.88,-112.32 734.36,-110.77 731.1,-104.57"/>
</g>
<!-- Node15 -->
<g id="node15" class="node">
<title>Node15</title>
<g id="a_node15"><a xlink:href="configreader_8hpp.html" target="_top" xlink:title="IO::ConfigReader source file.">
<polygon fill="none" stroke="black" points="0,-56.5 0,-75.5 98,-75.5 98,-56.5 0,-56.5"/>
<text text-anchor="middle" x="49" y="-63.5" font-family="Helvetica,sans-Serif" font-size="10.00">io/configreader.hpp</text>
</a>
</g>
</g>
<!-- Node3&#45;&gt;Node15 -->
<g id="edge35" class="edge">
<title>Node3&#45;&gt;Node15</title>
<path fill="none" stroke="midnightblue" d="M655.61,-118.35C549.11,-112.93 308.44,-99.1 107,-76 104.06,-75.66 101.05,-75.29 98.01,-74.89"/>
<polygon fill="midnightblue" stroke="midnightblue" points="655.64,-121.86 665.8,-118.86 655.99,-114.87 655.64,-121.86"/>
</g>
<!-- Node16 -->
<g id="node16" class="node">
<title>Node16</title>
<g id="a_node16"><a xlink:href="csvwriter_8hpp.html" target="_top" xlink:title="IO::write_csv source file.">
<polygon fill="none" stroke="black" points="116.5,-56.5 116.5,-75.5 201.5,-75.5 201.5,-56.5 116.5,-56.5"/>
<text text-anchor="middle" x="159" y="-63.5" font-family="Helvetica,sans-Serif" font-size="10.00">io/csvwriter.hpp</text>
</a>
</g>
</g>
<!-- Node3&#45;&gt;Node16 -->
<g id="edge37" class="edge">
<title>Node3&#45;&gt;Node16</title>
<path fill="none" stroke="midnightblue" d="M655.61,-115.65C568.89,-107.27 395.81,-90.49 249,-76 233.53,-74.47 216.56,-72.78 201.58,-71.28"/>
<polygon fill="midnightblue" stroke="midnightblue" points="655.46,-119.15 665.75,-116.63 656.13,-112.19 655.46,-119.15"/>
</g>
<!-- Node17 -->
<g id="node17" class="node">
<title>Node17</title>
<g id="a_node17"><a xlink:href="jsonwriter_8hpp.html" target="_top" xlink:title="IO::write_json source file.">
<polygon fill="none" stroke="black" points="258.5,-56.5 258.5,-75.5 345.5,-75.5 345.5,-56.5 258.5,-56.5"/>
<text text-anchor="middle" x="302" y="-63.5" font-family="Helvetica,sans-Serif" font-size="10.00">io/jsonwriter.hpp</text>
</a>
</g>
</g>
<!-- Node3&#45;&gt;Node17 -->
<g id="edge39" class="edge">
<title>Node3&#45;&gt;Node17</title>
<path fill="none" stroke="midnightblue" d="M655.51,-113.67C573.22,-102.81 420.54,-82.65 345.68,-72.77"/>
<polygon fill="midnightblue" stroke="midnightblue" points="655.3,-117.18 665.67,-115.01 656.21,-110.24 655.3,-117.18"/>
</g>
<!-- Node4&#45;&gt;Node1 -->
<g id="edge5" class="edge">
<title>Node4&#45;&gt;Node1</title>
<path fill="none" stroke="midnightblue" d="M966.98,-85.58C961.18,-121.21 948.7,-197.95 944.45,-224.08"/>
<polygon fill="midnightblue" stroke="midnightblue" points="970.46,-86 968.61,-75.57 963.55,-84.88 970.46,-86"/>
</g>
<!-- Node4&#45;&gt;Node2 -->
<g id="edge6" class="edge">
<title>Node4&#45;&gt;Node2</title>
<path fill="none" stroke="midnightblue" d="M950.72,-81.83C920.4,-105.15 862.55,-149.65 838.22,-168.37"/>
<polygon fill="midnightblue" stroke="midnightblue" points="953.04,-84.46 958.83,-75.59 948.77,-78.91 953.04,-84.46"/>
</g>
<!-- Node4&#45;&gt;Node3 -->
<g id="edge12" class="edge">
<title>Node4&#45;&gt;Node3</title>
<path fill="none" stroke="midnightblue" d="M923.96,-77.75C876.57,-88 803.34,-103.24 756.23,-112.62"/>
<polygon fill="midnightblue" stroke="midnightblue" points="924.93,-81.12 933.96,-75.58 923.44,-74.28 924.93,-81.12"/>
</g>
<!-- Node4&#45;&gt;Node5 -->
<g id="edge4" class="edge">
<title>Node4&#45;&gt;Node5</title>
<path fill="none" stroke="midnightblue" d="M896.32,-56.01C639.42,-32.93 570.82,-58.03 320,-20 317.12,-19.56 314.14,-19.01 311.18,-18.4"/>
<polygon fill="midnightblue" stroke="midnightblue" points="896.05,-59.49 906.32,-56.92 896.68,-52.52 896.05,-59.49"/>
</g>
<!-- Node4&#45;&gt;Node6 -->
<g id="edge7" class="edge">
<title>Node4&#45;&gt;Node6</title>
<path fill="none" stroke="midnightblue" d="M983.42,-48.14C990.91,-38.74 999.94,-27.4 1006.03,-19.75"/>
<polygon fill="midnightblue" stroke="midnightblue" points="980.59,-46.08 977.1,-56.08 986.07,-50.44 980.59,-46.08"/>
</g>
<!-- Node4&#45;&gt;Node7 -->
<g id="edge8" class="edge">
<title>Node4&#45;&gt;Node7</title>
<path fill="none" stroke="midnightblue" d="M1013.96,-53.96C1054.57,-43.76 1114.04,-28.82 1151.09,-19.52"/>
<polygon fill="midnightblue" stroke="midnightblue" points="1012.91,-50.61 1004.07,-56.44 1014.62,-57.4 1012.91,-50.61"/>
</g>
<!-- Node4&#45;&gt;Node8 -->
<g id="edge10" class="edge">
<title>Node4&#45;&gt;Node8</title>
<path fill="none" stroke="midnightblue" d="M896.11,-55.96C690.79,-35.68 636.84,-43.39 436,-20 433.06,-19.66 430.05,-19.28 427.01,-18.87"/>
<polygon fill="midnightblue" stroke="midnightblue" points="896.02,-59.47 906.32,-56.98 896.71,-52.5 896.02,-59.47"/>
</g>
<!-- Node4&#45;&gt;Node9 -->
<g id="edge13" class="edge">
<title>Node4&#45;&gt;Node9</title>
<path fill="none" stroke="midnightblue" d="M896.13,-55.9C783.66,-42.27 665.58,-28.23 591.93,-19.5"/>
<polygon fill="midnightblue" stroke="midnightblue" points="895.95,-59.4 906.3,-57.13 896.79,-52.45 895.95,-59.4"/>
</g>
<!-- Node4&#45;&gt;Node10 -->
<g id="edge15" class="edge">
<title>Node4&#45;&gt;Node10</title>
<path fill="none" stroke="midnightblue" d="M915.55,-54.54C862.45,-44.33 782.66,-29 733.32,-19.52"/>
<polygon fill="midnightblue" stroke="midnightblue" points="914.99,-57.99 925.47,-56.44 916.31,-51.12 914.99,-57.99"/>
</g>
<!-- Node4&#45;&gt;Node11 -->
<g id="edge17" class="edge">
<title>Node4&#45;&gt;Node11</title>
<path fill="none" stroke="midnightblue" d="M1037.04,-54.92C1104.86,-44.71 1208.55,-29.12 1272.38,-19.52"/>
<polygon fill="midnightblue" stroke="midnightblue" points="1036.25,-51.49 1026.88,-56.44 1037.29,-58.42 1036.25,-51.49"/>
</g>
<!-- Node4&#45;&gt;Node12 -->
<g id="edge19" class="edge">
<title>Node4&#45;&gt;Node12</title>
<path fill="none" stroke="midnightblue" d="M940.76,-52.37C917.35,-42.26 885.16,-28.35 864.71,-19.52"/>
<polygon fill="midnightblue" stroke="midnightblue" points="939.63,-55.69 950.19,-56.44 942.4,-49.26 939.63,-55.69"/>
</g>
<!-- Node7&#45;&gt;Node3 -->
<g id="edge9" class="edge">
<title>Node7&#45;&gt;Node3</title>
<path fill="none" stroke="midnightblue" d="M1161.35,-24.46C1133.82,-39.5 1086.56,-63.38 1043,-76 943.14,-104.93 820.87,-115.4 756.17,-119.08"/>
<polygon fill="midnightblue" stroke="midnightblue" points="1163.18,-27.45 1170.23,-19.55 1159.78,-21.33 1163.18,-27.45"/>
</g>
<!-- Node8&#45;&gt;Node3 -->
<g id="edge11" class="edge">
<title>Node8&#45;&gt;Node3</title>
<path fill="none" stroke="midnightblue" d="M437,-20.78C491.57,-30.26 568.42,-44.79 597,-56 612.97,-62.26 615.17,-67.39 630,-76 652.4,-89 678.66,-103.45 695.07,-112.38"/>
<polygon fill="midnightblue" stroke="midnightblue" points="437.53,-17.33 427.08,-19.08 436.34,-24.22 437.53,-17.33"/>
</g>
<!-- Node9&#45;&gt;Node3 -->
<g id="edge14" class="edge">
<title>Node9&#45;&gt;Node3</title>
<path fill="none" stroke="midnightblue" d="M556.44,-22.91C578.48,-30.83 606.72,-42.29 630,-56 658.59,-72.84 687.92,-99.05 702.17,-112.46"/>
<polygon fill="midnightblue" stroke="midnightblue" points="557.38,-19.53 546.79,-19.52 555.06,-26.14 557.38,-19.53"/>
</g>
<!-- Node10&#45;&gt;Node3 -->
<g id="edge16" class="edge">
<title>Node10&#45;&gt;Node3</title>
<path fill="none" stroke="midnightblue" d="M692.72,-29.6C697.53,-53.67 705.72,-94.62 709.27,-112.37"/>
<polygon fill="midnightblue" stroke="midnightblue" points="696.11,-28.71 690.72,-19.59 689.25,-30.08 696.11,-28.71"/>
</g>
<!-- Node11&#45;&gt;Node3 -->
<g id="edge18" class="edge">
<title>Node11&#45;&gt;Node3</title>
<path fill="none" stroke="midnightblue" d="M1292.01,-22.49C1244.19,-36.94 1158.13,-61.6 1083,-76 966.24,-98.38 826.61,-111.74 756.26,-117.55"/>
<polygon fill="midnightblue" stroke="midnightblue" points="1293.07,-25.82 1301.62,-19.56 1291.03,-19.13 1293.07,-25.82"/>
</g>
<!-- Node12&#45;&gt;Node3 -->
<g id="edge20" class="edge">
<title>Node12&#45;&gt;Node3</title>
<path fill="none" stroke="midnightblue" d="M805.95,-23.14C787.14,-30.43 765.2,-41.2 749,-56 731.24,-72.22 719.38,-98.7 714.11,-112.32"/>
<polygon fill="midnightblue" stroke="midnightblue" points="807.28,-26.38 815.45,-19.64 804.86,-19.81 807.28,-26.38"/>
</g>
<!-- Node13&#45;&gt;Node5 -->
<g id="edge22" class="edge">
<title>Node13&#45;&gt;Node5</title>
<path fill="none" stroke="midnightblue" d="M480.9,-54.45C437.71,-45.6 374.76,-32.44 320,-20 317.16,-19.36 314.21,-18.67 311.26,-17.97"/>
<polygon fill="midnightblue" stroke="midnightblue" points="480.39,-57.92 490.89,-56.5 481.79,-51.06 480.39,-57.92"/>
</g>
<!-- Node14&#45;&gt;Node1 -->
<g id="edge25" class="edge">
<title>Node14&#45;&gt;Node1</title>
<path fill="none" stroke="midnightblue" d="M835.12,-83.76C860.26,-118.54 917.33,-197.49 936.55,-224.08"/>
<polygon fill="midnightblue" stroke="midnightblue" points="837.89,-81.62 829.19,-75.57 832.22,-85.72 837.89,-81.62"/>
</g>
<!-- Node14&#45;&gt;Node2 -->
<g id="edge26" class="edge">
<title>Node14&#45;&gt;Node2</title>
<path fill="none" stroke="midnightblue" d="M823.68,-85.6C824.55,-109.67 826.04,-150.62 826.69,-168.37"/>
<polygon fill="midnightblue" stroke="midnightblue" points="827.17,-85.46 823.31,-75.59 820.18,-85.71 827.17,-85.46"/>
</g>
<!-- Node14&#45;&gt;Node3 -->
<g id="edge30" class="edge">
<title>Node14&#45;&gt;Node3</title>
<path fill="none" stroke="midnightblue" d="M801.39,-80.27C781.92,-90.31 753.67,-103.79 733.84,-112.44"/>
<polygon fill="midnightblue" stroke="midnightblue" points="803.2,-83.27 810.42,-75.52 799.94,-77.08 803.2,-83.27"/>
</g>
<!-- Node14&#45;&gt;Node5 -->
<g id="edge24" class="edge">
<title>Node14&#45;&gt;Node5</title>
<path fill="none" stroke="midnightblue" d="M747.72,-61.78C648.98,-56.75 470.59,-44.91 320,-20 317.13,-19.53 314.15,-18.95 311.19,-18.32"/>
<polygon fill="midnightblue" stroke="midnightblue" points="747.73,-65.28 757.9,-62.29 748.08,-58.29 747.73,-65.28"/>
</g>
<!-- Node14&#45;&gt;Node6 -->
<g id="edge27" class="edge">
<title>Node14&#45;&gt;Node6</title>
<path fill="none" stroke="midnightblue" d="M862.76,-53.7C898.62,-43.51 950.57,-28.74 983.03,-19.52"/>
<polygon fill="midnightblue" stroke="midnightblue" points="861.77,-50.34 853.11,-56.44 863.68,-57.08 861.77,-50.34"/>
</g>
<!-- Node14&#45;&gt;Node7 -->
<g id="edge28" class="edge">
<title>Node14&#45;&gt;Node7</title>
<path fill="none" stroke="midnightblue" d="M890.6,-54.92C958.98,-44.71 1063.55,-29.12 1127.91,-19.52"/>
<polygon fill="midnightblue" stroke="midnightblue" points="889.73,-51.51 880.36,-56.44 890.77,-58.43 889.73,-51.51"/>
</g>
<!-- Node14&#45;&gt;Node8 -->
<g id="edge29" class="edge">
<title>Node14&#45;&gt;Node8</title>
<path fill="none" stroke="midnightblue" d="M747.63,-57.1C669.56,-48.71 544.09,-34.66 436,-20 433.07,-19.6 430.06,-19.18 427.03,-18.74"/>
<polygon fill="midnightblue" stroke="midnightblue" points="747.54,-60.61 757.85,-58.19 748.28,-53.65 747.54,-60.61"/>
</g>
<!-- Node14&#45;&gt;Node9 -->
<g id="edge31" class="edge">
<title>Node14&#45;&gt;Node9</title>
<path fill="none" stroke="midnightblue" d="M765,-54.66C707.74,-44.46 621.22,-29.04 567.79,-19.52"/>
<polygon fill="midnightblue" stroke="midnightblue" points="764.53,-58.13 774.99,-56.44 765.76,-51.24 764.53,-58.13"/>
</g>
<!-- Node14&#45;&gt;Node10 -->
<g id="edge32" class="edge">
<title>Node14&#45;&gt;Node10</title>
<path fill="none" stroke="midnightblue" d="M792.32,-52.64C767.18,-42.5 732.25,-28.43 710.13,-19.52"/>
<polygon fill="midnightblue" stroke="midnightblue" points="791.18,-55.95 801.77,-56.44 793.8,-49.46 791.18,-55.95"/>
</g>
<!-- Node14&#45;&gt;Node11 -->
<g id="edge33" class="edge">
<title>Node14&#45;&gt;Node11</title>
<path fill="none" stroke="midnightblue" d="M898.65,-55.84C1059.87,-38.22 1102.24,-38.11 1260,-20 1263,-19.66 1266.07,-19.29 1269.17,-18.92"/>
<polygon fill="midnightblue" stroke="midnightblue" points="897.92,-52.4 888.36,-56.97 898.68,-59.36 897.92,-52.4"/>
</g>
<!-- Node14&#45;&gt;Node12 -->
<g id="edge34" class="edge">
<title>Node14&#45;&gt;Node12</title>
<path fill="none" stroke="midnightblue" d="M830.46,-46.69C834.17,-37.59 838.48,-27.01 841.43,-19.75"/>
<polygon fill="midnightblue" stroke="midnightblue" points="827.16,-45.5 826.63,-56.08 833.65,-48.14 827.16,-45.5"/>
</g>
<!-- Node15&#45;&gt;Node5 -->
<g id="edge36" class="edge">
<title>Node15&#45;&gt;Node5</title>
<path fill="none" stroke="midnightblue" d="M95.84,-54.19C143.41,-43.21 215.53,-26.57 254.91,-17.48"/>
<polygon fill="midnightblue" stroke="midnightblue" points="95.03,-50.78 86.08,-56.44 96.61,-57.61 95.03,-50.78"/>
</g>
<!-- Node16&#45;&gt;Node5 -->
<g id="edge38" class="edge">
<title>Node16&#45;&gt;Node5</title>
<path fill="none" stroke="midnightblue" d="M188.01,-52.37C211.23,-42.26 243.16,-28.35 263.44,-19.52"/>
<polygon fill="midnightblue" stroke="midnightblue" points="186.42,-49.24 178.65,-56.44 189.21,-55.66 186.42,-49.24"/>
</g>
<!-- Node17&#45;&gt;Node5 -->
<g id="edge40" class="edge">
<title>Node17&#45;&gt;Node5</title>
<path fill="none" stroke="midnightblue" d="M295.45,-46.4C292.28,-37.36 288.61,-26.94 286.08,-19.75"/>
<polygon fill="midnightblue" stroke="midnightblue" points="292.24,-47.81 298.86,-56.08 298.85,-45.49 292.24,-47.81"/>
</g>
</g>
</svg>
