<?xml version="1.0" encoding="UTF-8" standalone="no"?>
<!DOCTYPE svg PUBLIC "-//W3C//DTD SVG 1.1//EN"
 "http://www.w3.org/Graphics/SVG/1.1/DTD/svg11.dtd">
<!-- Generated by graphviz version 7.0.5 (20221223.1930)
 -->
<!-- Title: model/block.hpp Pages: 1 -->
<svg width="2422pt" height="357pt"
 viewBox="0.00 0.00 2422.00 357.00" xmlns="http://www.w3.org/2000/svg" xmlns:xlink="http://www.w3.org/1999/xlink">
<g id="graph0" class="graph" transform="scale(1 1) rotate(0) translate(4 353)">
<title>model/block.hpp</title>
<!-- Node1 -->
<g id="node1" class="node">
<title>Node1</title>
<g id="a_node1"><a xlink:title="MODEL::Block source file.">
<polygon fill="#999999" stroke="#666666" points="1176.5,-349 1089.5,-349 1089.5,-330 1176.5,-330 1176.5,-349"/>
<text text-anchor="middle" x="1133" y="-337" font-family="Helvetica,sans-Serif" font-size="10.00">model/block.hpp</text>
</a>
</g>
</g>
<!-- Node2 -->
<g id="node2" class="node">
<title>Node2</title>
<g id="a_node2"><a xlink:title=" ">
<polygon fill="#e0e0e0" stroke="#999999" points="42.5,-19 7.5,-19 7.5,0 42.5,0 42.5,-19"/>
<text text-anchor="middle" x="25" y="-7" font-family="Helvetica,sans-Serif" font-size="10.00">map</text>
</a>
</g>
</g>
<!-- Node1&#45;&gt;Node2 -->
<g id="edge1" class="edge">
<title>Node1&#45;&gt;Node2</title>
<path fill="none" stroke="#63b8ff" d="M1089.06,-338.28C901.54,-337.1 173.45,-330.22 78,-294 36.21,-278.14 0,-275.2 0,-230.5 0,-230.5 0,-230.5 0,-118.5 0,-86.82 10.34,-51.23 17.72,-29.85"/>
<polygon fill="#63b8ff" stroke="#63b8ff" points="20.91,-31.32 21.01,-20.72 14.32,-28.94 20.91,-31.32"/>
</g>
<!-- Node3 -->
<g id="node3" class="node">
<title>Node3</title>
<g id="a_node3"><a xlink:title=" ">
<polygon fill="#e0e0e0" stroke="#999999" points="294,-19 250,-19 250,0 294,0 294,-19"/>
<text text-anchor="middle" x="272" y="-7" font-family="Helvetica,sans-Serif" font-size="10.00">vector</text>
</a>
</g>
</g>
<!-- Node1&#45;&gt;Node3 -->
<g id="edge2" class="edge">
<title>Node1&#45;&gt;Node3</title>
<path fill="none" stroke="#63b8ff" d="M1089.07,-338.75C916.34,-338.68 287.46,-328.39 169,-184 125.6,-131.1 208.4,-57.91 250.08,-26.2"/>
<polygon fill="#63b8ff" stroke="#63b8ff" points="252.07,-29.08 258.01,-20.3 247.9,-23.46 252.07,-29.08"/>
</g>
<!-- Node4 -->
<g id="node4" class="node">
<title>Node4</title>
<g id="a_node4"><a xlink:href="sparsesystem_8hpp.html" target="_top" xlink:title="ALGEBRA::SparseSystem source file.">
<polygon fill="white" stroke="#666666" points="1354.5,-294 1217.5,-294 1217.5,-275 1354.5,-275 1354.5,-294"/>
<text text-anchor="middle" x="1286" y="-282" font-family="Helvetica,sans-Serif" font-size="10.00">../algebra/sparsesystem.hpp</text>
</a>
</g>
</g>
<!-- Node1&#45;&gt;Node4 -->
<g id="edge3" class="edge">
<title>Node1&#45;&gt;Node4</title>
<path fill="none" stroke="#63b8ff" d="M1158.95,-329.51C1183.87,-320.88 1221.73,-307.76 1249.64,-298.1"/>
<polygon fill="#63b8ff" stroke="#63b8ff" points="1250.44,-301.52 1258.74,-294.94 1248.15,-294.91 1250.44,-301.52"/>
</g>
<!-- Node19 -->
<g id="node19" class="node">
<title>Node19</title>
<g id="a_node19"><a xlink:href="state_8hpp.html" target="_top" xlink:title="ALGEBRA::State source file.">
<polygon fill="white" stroke="#666666" points="2257,-74 2159,-74 2159,-55 2257,-55 2257,-74"/>
<text text-anchor="middle" x="2208" y="-62" font-family="Helvetica,sans-Serif" font-size="10.00">../algebra/state.hpp</text>
</a>
</g>
</g>
<!-- Node1&#45;&gt;Node19 -->
<g id="edge73" class="edge">
<title>Node1&#45;&gt;Node19</title>
<path fill="none" stroke="#63b8ff" d="M1176.72,-337.15C1401.23,-329.96 2414,-294 2414,-230.5 2414,-230.5 2414,-230.5 2414,-173.5 2414,-107.16 2329.17,-81.49 2268.39,-71.61"/>
<polygon fill="#63b8ff" stroke="#63b8ff" points="2269.25,-68.2 2258.84,-70.17 2268.2,-75.12 2269.25,-68.2"/>
</g>
<!-- Node23 -->
<g id="node23" class="node">
<title>Node23</title>
<g id="a_node23"><a xlink:href="dofhandler_8hpp.html" target="_top" xlink:title="MODEL::DOFHandler source file.">
<polygon fill="white" stroke="#666666" points="149,-74 69,-74 69,-55 149,-55 149,-74"/>
<text text-anchor="middle" x="109" y="-62" font-family="Helvetica,sans-Serif" font-size="10.00">dofhandler.hpp</text>
</a>
</g>
</g>
<!-- Node1&#45;&gt;Node23 -->
<g id="edge74" class="edge">
<title>Node1&#45;&gt;Node23</title>
<path fill="none" stroke="#63b8ff" d="M1089.21,-337.88C901.8,-335.06 175.09,-322.32 136,-294 111.57,-276.3 112,-260.67 112,-230.5 112,-230.5 112,-230.5 112,-173.5 112,-142.91 110.78,-107.47 109.9,-85.77"/>
<polygon fill="#63b8ff" stroke="#63b8ff" points="113.4,-85.81 109.48,-75.97 106.41,-86.11 113.4,-85.81"/>
</g>
<!-- Node31 -->
<g id="node31" class="node">
<title>Node31</title>
<g id="a_node31"><a xlink:href="node_8hpp.html" target="_top" xlink:title="MODEL::Node source file.">
<polygon fill="white" stroke="#666666" points="84,-129 28,-129 28,-110 84,-110 84,-129"/>
<text text-anchor="middle" x="56" y="-117" font-family="Helvetica,sans-Serif" font-size="10.00">node.hpp</text>
</a>
</g>
</g>
<!-- Node1&#45;&gt;Node31 -->
<g id="edge75" class="edge">
<title>Node1&#45;&gt;Node31</title>
<path fill="none" stroke="#63b8ff" d="M1089.07,-338.07C896.74,-336.02 136.81,-325.91 98,-294 51.96,-256.15 51.39,-177.25 53.96,-140.34"/>
<polygon fill="#63b8ff" stroke="#63b8ff" points="57.42,-140.94 54.8,-130.68 50.44,-140.34 57.42,-140.94"/>
</g>
<!-- Node5 -->
<g id="node5" class="node">
<title>Node5</title>
<g id="a_node5"><a xlink:title=" ">
<polygon fill="#e0e0e0" stroke="#999999" points="1273,-239 1199,-239 1199,-220 1273,-220 1273,-239"/>
<text text-anchor="middle" x="1236" y="-227" font-family="Helvetica,sans-Serif" font-size="10.00">Eigen/Sparse</text>
</a>
</g>
</g>
<!-- Node4&#45;&gt;Node5 -->
<g id="edge4" class="edge">
<title>Node4&#45;&gt;Node5</title>
<path fill="none" stroke="#63b8ff" d="M1277.74,-274.75C1270.84,-267.43 1260.78,-256.76 1252.26,-247.74"/>
<polygon fill="#63b8ff" stroke="#63b8ff" points="1254.88,-245.42 1245.47,-240.54 1249.79,-250.22 1254.88,-245.42"/>
</g>
<!-- Node6 -->
<g id="node6" class="node">
<title>Node6</title>
<g id="a_node6"><a xlink:title=" ">
<polygon fill="#e0e0e0" stroke="#999999" points="1379,-239 1291,-239 1291,-220 1379,-220 1379,-239"/>
<text text-anchor="middle" x="1335" y="-227" font-family="Helvetica,sans-Serif" font-size="10.00">Eigen/SparseLU</text>
</a>
</g>
</g>
<!-- Node4&#45;&gt;Node6 -->
<g id="edge5" class="edge">
<title>Node4&#45;&gt;Node6</title>
<path fill="none" stroke="#63b8ff" d="M1294.09,-274.75C1300.86,-267.43 1310.72,-256.76 1319.06,-247.74"/>
<polygon fill="#63b8ff" stroke="#63b8ff" points="1321.49,-250.27 1325.71,-240.55 1316.35,-245.52 1321.49,-250.27"/>
</g>
<!-- Node7 -->
<g id="node7" class="node">
<title>Node7</title>
<g id="a_node7"><a xlink:title=" ">
<polygon fill="#e0e0e0" stroke="#999999" points="1451,-239 1397,-239 1397,-220 1451,-220 1451,-239"/>
<text text-anchor="middle" x="1424" y="-227" font-family="Helvetica,sans-Serif" font-size="10.00">iostream</text>
</a>
</g>
</g>
<!-- Node4&#45;&gt;Node7 -->
<g id="edge6" class="edge">
<title>Node4&#45;&gt;Node7</title>
<path fill="none" stroke="#63b8ff" d="M1309.41,-274.51C1331.65,-265.97 1365.33,-253.03 1390.42,-243.4"/>
<polygon fill="#63b8ff" stroke="#63b8ff" points="1391.44,-246.75 1399.52,-239.9 1388.93,-240.22 1391.44,-246.75"/>
</g>
<!-- Node8 -->
<g id="node8" class="node">
<title>Node8</title>
<g id="a_node8"><a xlink:href="model_8hpp.html" target="_top" xlink:title="MODEL::Model source file.">
<polygon fill="white" stroke="#666666" points="1105,-239 1007,-239 1007,-220 1105,-220 1105,-239"/>
<text text-anchor="middle" x="1056" y="-227" font-family="Helvetica,sans-Serif" font-size="10.00">../model/model.hpp</text>
</a>
</g>
</g>
<!-- Node4&#45;&gt;Node8 -->
<g id="edge7" class="edge">
<title>Node4&#45;&gt;Node8</title>
<path fill="none" stroke="#63b8ff" d="M1241.77,-274.51C1201.12,-265.57 1141.32,-251.83 1100.57,-242.08"/>
<polygon fill="#63b8ff" stroke="#63b8ff" points="1101.63,-238.74 1091.09,-239.8 1099.99,-245.54 1101.63,-238.74"/>
</g>
<!-- Node8&#45;&gt;Node1 -->
<g id="edge66" class="edge">
<title>Node8&#45;&gt;Node1</title>
<path fill="none" stroke="#63b8ff" d="M1062.39,-239.46C1075.04,-257.2 1103.49,-297.11 1120.16,-320.49"/>
<polygon fill="#63b8ff" stroke="#63b8ff" points="1117.16,-322.32 1125.82,-328.43 1122.86,-318.26 1117.16,-322.32"/>
</g>
<!-- Node8&#45;&gt;Node3 -->
<g id="edge11" class="edge">
<title>Node8&#45;&gt;Node3</title>
<path fill="none" stroke="#63b8ff" d="M1041.04,-219.5C1018.48,-206.21 974.09,-181.15 934,-165 773.29,-100.25 729.1,-92.76 560,-55 468.88,-34.65 359.47,-20.52 305.49,-14.21"/>
<polygon fill="#63b8ff" stroke="#63b8ff" points="306.07,-10.75 295.73,-13.09 305.27,-17.71 306.07,-10.75"/>
</g>
<!-- Node8&#45;&gt;Node4 -->
<g id="edge12" class="edge">
<title>Node8&#45;&gt;Node4</title>
<path fill="none" stroke="#63b8ff" d="M1100.03,-239.45C1140.62,-248.37 1200.41,-262.11 1241.22,-271.87"/>
<polygon fill="#63b8ff" stroke="#63b8ff" points="1240.19,-275.22 1250.73,-274.16 1241.83,-268.41 1240.19,-275.22"/>
</g>
<!-- Node9 -->
<g id="node9" class="node">
<title>Node9</title>
<g id="a_node9"><a xlink:title=" ">
<polygon fill="#e0e0e0" stroke="#999999" points="1082,-184 1026,-184 1026,-165 1082,-165 1082,-184"/>
<text text-anchor="middle" x="1054" y="-172" font-family="Helvetica,sans-Serif" font-size="10.00">algorithm</text>
</a>
</g>
</g>
<!-- Node8&#45;&gt;Node9 -->
<g id="edge8" class="edge">
<title>Node8&#45;&gt;Node9</title>
<path fill="none" stroke="#63b8ff" d="M1055.67,-219.75C1055.43,-213.27 1055.08,-204.16 1054.77,-195.9"/>
<polygon fill="#63b8ff" stroke="#63b8ff" points="1058.27,-195.82 1054.39,-185.95 1051.27,-196.08 1058.27,-195.82"/>
</g>
<!-- Node10 -->
<g id="node10" class="node">
<title>Node10</title>
<g id="a_node10"><a xlink:title=" ">
<polygon fill="#e0e0e0" stroke="#999999" points="1129.5,-184 1100.5,-184 1100.5,-165 1129.5,-165 1129.5,-184"/>
<text text-anchor="middle" x="1115" y="-172" font-family="Helvetica,sans-Serif" font-size="10.00">list</text>
</a>
</g>
</g>
<!-- Node8&#45;&gt;Node10 -->
<g id="edge9" class="edge">
<title>Node8&#45;&gt;Node10</title>
<path fill="none" stroke="#63b8ff" d="M1066.01,-219.51C1074.37,-212 1086.5,-201.1 1096.6,-192.03"/>
<polygon fill="#63b8ff" stroke="#63b8ff" points="1098.91,-194.66 1104.01,-185.37 1094.24,-189.45 1098.91,-194.66"/>
</g>
<!-- Node11 -->
<g id="node11" class="node">
<title>Node11</title>
<g id="a_node11"><a xlink:title=" ">
<polygon fill="#e0e0e0" stroke="#999999" points="1198.5,-184 1147.5,-184 1147.5,-165 1198.5,-165 1198.5,-184"/>
<text text-anchor="middle" x="1173" y="-172" font-family="Helvetica,sans-Serif" font-size="10.00">memory</text>
</a>
</g>
</g>
<!-- Node8&#45;&gt;Node11 -->
<g id="edge10" class="edge">
<title>Node8&#45;&gt;Node11</title>
<path fill="none" stroke="#63b8ff" d="M1075.85,-219.51C1094.28,-211.16 1121.98,-198.61 1143.09,-189.05"/>
<polygon fill="#63b8ff" stroke="#63b8ff" points="1144.4,-192.3 1152.07,-184.98 1141.51,-185.92 1144.4,-192.3"/>
</g>
<!-- Node12 -->
<g id="node12" class="node">
<title>Node12</title>
<g id="a_node12"><a xlink:href="bloodvessel_8hpp.html" target="_top" xlink:title="MODEL::BloodVessel source file.">
<polygon fill="white" stroke="#666666" points="1486.5,-129 1363.5,-129 1363.5,-110 1486.5,-110 1486.5,-129"/>
<text text-anchor="middle" x="1425" y="-117" font-family="Helvetica,sans-Serif" font-size="10.00">../model/bloodvessel.hpp</text>
</a>
</g>
</g>
<!-- Node8&#45;&gt;Node12 -->
<g id="edge13" class="edge">
<title>Node8&#45;&gt;Node12</title>
<path fill="none" stroke="#63b8ff" d="M1091.44,-219.54C1122.52,-211.35 1168.75,-198.35 1208,-184 1227.62,-176.83 1231.26,-171.83 1251,-165 1290.48,-151.33 1336.31,-139.78 1371.01,-131.88"/>
<polygon fill="#63b8ff" stroke="#63b8ff" points="1371.4,-135.38 1380.39,-129.77 1369.87,-128.55 1371.4,-135.38"/>
</g>
<!-- Node14 -->
<g id="node14" class="node">
<title>Node14</title>
<g id="a_node14"><a xlink:href="bloodvesseljunction_8hpp.html" target="_top" xlink:title="MODEL::BloodVesselJunction source file.">
<polygon fill="white" stroke="#666666" points="1450.5,-184 1293.5,-184 1293.5,-165 1450.5,-165 1450.5,-184"/>
<text text-anchor="middle" x="1372" y="-172" font-family="Helvetica,sans-Serif" font-size="10.00">../model/bloodvesseljunction.hpp</text>
</a>
</g>
</g>
<!-- Node8&#45;&gt;Node14 -->
<g id="edge17" class="edge">
<title>Node8&#45;&gt;Node14</title>
<path fill="none" stroke="#63b8ff" d="M1105.38,-220.22C1159.76,-211.1 1247.43,-196.39 1307.28,-186.36"/>
<polygon fill="#63b8ff" stroke="#63b8ff" points="1307.71,-189.83 1316.99,-184.73 1306.55,-182.93 1307.71,-189.83"/>
</g>
<!-- Node15 -->
<g id="node15" class="node">
<title>Node15</title>
<g id="a_node15"><a xlink:href="blocktype_8hpp.html" target="_top" xlink:title="MODEL::BlockType source file.">
<polygon fill="white" stroke="#666666" points="1231,-129 1155,-129 1155,-110 1231,-110 1231,-129"/>
<text text-anchor="middle" x="1193" y="-117" font-family="Helvetica,sans-Serif" font-size="10.00">blocktype.hpp</text>
</a>
</g>
</g>
<!-- Node8&#45;&gt;Node15 -->
<g id="edge67" class="edge">
<title>Node8&#45;&gt;Node15</title>
<path fill="none" stroke="#63b8ff" d="M1043.68,-219.68C1027.51,-207.04 1002.77,-183.27 1017,-165 1032.44,-145.17 1096.95,-132.78 1143.4,-126.25"/>
<polygon fill="#63b8ff" stroke="#63b8ff" points="1143.83,-129.72 1153.28,-124.92 1142.9,-122.79 1143.83,-129.72"/>
</g>
<!-- Node16 -->
<g id="node16" class="node">
<title>Node16</title>
<g id="a_node16"><a xlink:href="closedloop_r_c_rbc_8hpp.html" target="_top" xlink:title="MODEL::ClosedLoopRCRBC source file.">
<polygon fill="white" stroke="#666666" points="1988.5,-184 1839.5,-184 1839.5,-165 1988.5,-165 1988.5,-184"/>
<text text-anchor="middle" x="1914" y="-172" font-family="Helvetica,sans-Serif" font-size="10.00">../model/closedloopRCRbc.hpp</text>
</a>
</g>
</g>
<!-- Node8&#45;&gt;Node16 -->
<g id="edge22" class="edge">
<title>Node8&#45;&gt;Node16</title>
<path fill="none" stroke="#63b8ff" d="M1105.32,-225.29C1130.63,-223.66 1161.96,-221.68 1190,-220 1471.07,-203.19 1544.63,-206.45 1827.89,-184.21"/>
<polygon fill="#63b8ff" stroke="#63b8ff" points="1828.16,-187.7 1837.85,-183.43 1827.6,-180.72 1828.16,-187.7"/>
</g>
<!-- Node17 -->
<g id="node17" class="node">
<title>Node17</title>
<g id="a_node17"><a xlink:href="closedloopcoronarybc_8hpp.html" target="_top" xlink:title="MODEL::ClosedLoopCoronaryBC source file.">
<polygon fill="white" stroke="#666666" points="1672.5,-184 1507.5,-184 1507.5,-165 1672.5,-165 1672.5,-184"/>
<text text-anchor="middle" x="1590" y="-172" font-family="Helvetica,sans-Serif" font-size="10.00">../model/closedloopcoronarybc.hpp</text>
</a>
</g>
</g>
<!-- Node8&#45;&gt;Node17 -->
<g id="edge25" class="edge">
<title>Node8&#45;&gt;Node17</title>
<path fill="none" stroke="#63b8ff" d="M1105.28,-223.61C1193.99,-214.8 1381.9,-196.15 1495.94,-184.84"/>
<polygon fill="#63b8ff" stroke="#63b8ff" points="1495.96,-188.35 1505.57,-183.88 1495.27,-181.38 1495.96,-188.35"/>
</g>
<!-- Node18 -->
<g id="node18" class="node">
<title>Node18</title>
<g id="a_node18"><a xlink:href="closedloopheartpulmonary_8hpp.html" target="_top" xlink:title="MODEL::ClosedLoopHeartPulmonary source file.">
<polygon fill="white" stroke="#666666" points="1869.5,-129 1722.5,-129 1722.5,-110 1869.5,-110 1869.5,-129"/>
<text text-anchor="middle" x="1796" y="-117" font-family="Helvetica,sans-Serif" font-size="10.00">closedloopheartpulmonary.hpp</text>
</a>
</g>
</g>
<!-- Node8&#45;&gt;Node18 -->
<g id="edge33" class="edge">
<title>Node8&#45;&gt;Node18</title>
<path fill="none" stroke="#63b8ff" d="M1104.76,-219.56C1142.93,-211.93 1197.05,-199.7 1243,-184 1262.39,-177.38 1265.18,-170.18 1285,-165 1363.11,-144.57 1586.97,-130.75 1710.89,-124.43"/>
<polygon fill="#63b8ff" stroke="#63b8ff" points="1710.88,-127.94 1720.69,-123.94 1710.52,-120.95 1710.88,-127.94"/>
</g>
<!-- Node20 -->
<g id="node20" class="node">
<title>Node20</title>
<g id="a_node20"><a xlink:href="flowreferencebc_8hpp.html" target="_top" xlink:title="MODEL::FlowReferenceBC source file.">
<polygon fill="white" stroke="#666666" points="642,-184 502,-184 502,-165 642,-165 642,-184"/>
<text text-anchor="middle" x="572" y="-172" font-family="Helvetica,sans-Serif" font-size="10.00">../model/flowreferencebc.hpp</text>
</a>
</g>
</g>
<!-- Node8&#45;&gt;Node20 -->
<g id="edge34" class="edge">
<title>Node8&#45;&gt;Node20</title>
<path fill="none" stroke="#63b8ff" d="M1006.93,-223.13C923.85,-214.03 754.7,-195.51 653.57,-184.43"/>
<polygon fill="#63b8ff" stroke="#63b8ff" points="654.02,-180.96 643.69,-183.35 653.25,-187.92 654.02,-180.96"/>
</g>
<!-- Node21 -->
<g id="node21" class="node">
<title>Node21</title>
<g id="a_node21"><a xlink:href="parameter_8hpp.html" target="_top" xlink:title="MODEL::Parameter source file.">
<polygon fill="white" stroke="#666666" points="564,-129 486,-129 486,-110 564,-110 564,-129"/>
<text text-anchor="middle" x="525" y="-117" font-family="Helvetica,sans-Serif" font-size="10.00">parameter.hpp</text>
</a>
</g>
</g>
<!-- Node8&#45;&gt;Node21 -->
<g id="edge72" class="edge">
<title>Node8&#45;&gt;Node21</title>
<path fill="none" stroke="#63b8ff" d="M1023.41,-219.56C993.25,-211.09 947.28,-197.65 908,-184 886.33,-176.47 882.2,-170.78 860,-165 761.17,-139.29 641.88,-127.97 575.63,-123.36"/>
<polygon fill="#63b8ff" stroke="#63b8ff" points="576.01,-119.88 565.79,-122.7 575.54,-126.86 576.01,-119.88"/>
</g>
<!-- Node8&#45;&gt;Node23 -->
<g id="edge68" class="edge">
<title>Node8&#45;&gt;Node23</title>
<path fill="none" stroke="#63b8ff" d="M1033.95,-219.57C991.33,-202.31 901.47,-165.98 898,-165 627.4,-88.68 288.04,-70.82 160.55,-66.71"/>
<polygon fill="#63b8ff" stroke="#63b8ff" points="160.86,-63.21 150.75,-66.41 160.64,-70.21 160.86,-63.21"/>
</g>
<!-- Node25 -->
<g id="node25" class="node">
<title>Node25</title>
<g id="a_node25"><a xlink:href="junction_8hpp.html" target="_top" xlink:title="MODEL::Junction source file.">
<polygon fill="white" stroke="#666666" points="2111.5,-184 2006.5,-184 2006.5,-165 2111.5,-165 2111.5,-184"/>
<text text-anchor="middle" x="2059" y="-172" font-family="Helvetica,sans-Serif" font-size="10.00">../model/junction.hpp</text>
</a>
</g>
</g>
<!-- Node8&#45;&gt;Node25 -->
<g id="edge45" class="edge">
<title>Node8&#45;&gt;Node25</title>
<path fill="none" stroke="#63b8ff" d="M1105.31,-225.15C1130.62,-223.49 1161.95,-221.51 1190,-220 1545.18,-200.82 1638.09,-216.5 1994.69,-184.22"/>
<polygon fill="#63b8ff" stroke="#63b8ff" points="1994.99,-187.71 2004.63,-183.31 1994.35,-180.74 1994.99,-187.71"/>
</g>
<!-- Node26 -->
<g id="node26" class="node">
<title>Node26</title>
<g id="a_node26"><a xlink:href="openloopcoronarybc_8hpp.html" target="_top" xlink:title="MODEL::OpenLoopCoronaryBC source file.">
<polygon fill="white" stroke="#666666" points="818,-184 660,-184 660,-165 818,-165 818,-184"/>
<text text-anchor="middle" x="739" y="-172" font-family="Helvetica,sans-Serif" font-size="10.00">../model/openloopcoronarybc.hpp</text>
</a>
</g>
</g>
<!-- Node8&#45;&gt;Node26 -->
<g id="edge48" class="edge">
<title>Node8&#45;&gt;Node26</title>
<path fill="none" stroke="#63b8ff" d="M1006.82,-220.28C952.33,-211.17 864.24,-196.44 804.08,-186.38"/>
<polygon fill="#63b8ff" stroke="#63b8ff" points="804.74,-182.94 794.3,-184.75 803.59,-189.85 804.74,-182.94"/>
</g>
<!-- Node27 -->
<g id="node27" class="node">
<title>Node27</title>
<g id="a_node27"><a xlink:href="pressurereferencebc_8hpp.html" target="_top" xlink:title="MODEL::PressureReferenceBC source file.">
<polygon fill="white" stroke="#666666" points="338,-184 178,-184 178,-165 338,-165 338,-184"/>
<text text-anchor="middle" x="258" y="-172" font-family="Helvetica,sans-Serif" font-size="10.00">../model/pressurereferencebc.hpp</text>
</a>
</g>
</g>
<!-- Node8&#45;&gt;Node27 -->
<g id="edge52" class="edge">
<title>Node8&#45;&gt;Node27</title>
<path fill="none" stroke="#63b8ff" d="M1006.61,-225.93C892.93,-219.9 603.73,-203.91 349.76,-184.11"/>
<polygon fill="#63b8ff" stroke="#63b8ff" points="350.21,-180.64 339.97,-183.34 349.66,-187.61 350.21,-180.64"/>
</g>
<!-- Node28 -->
<g id="node28" class="node">
<title>Node28</title>
<g id="a_node28"><a xlink:href="resistancebc_8hpp.html" target="_top" xlink:title="MODEL::ResistanceBC source file.">
<polygon fill="white" stroke="#666666" points="483.5,-184 356.5,-184 356.5,-165 483.5,-165 483.5,-184"/>
<text text-anchor="middle" x="420" y="-172" font-family="Helvetica,sans-Serif" font-size="10.00">../model/resistancebc.hpp</text>
</a>
</g>
</g>
<!-- Node8&#45;&gt;Node28 -->
<g id="edge56" class="edge">
<title>Node8&#45;&gt;Node28</title>
<path fill="none" stroke="#63b8ff" d="M1006.62,-225.21C910.47,-218.68 691.12,-203.13 495.08,-184.16"/>
<polygon fill="#63b8ff" stroke="#63b8ff" points="495.48,-180.69 485.19,-183.2 494.81,-187.65 495.48,-180.69"/>
</g>
<!-- Node29 -->
<g id="node29" class="node">
<title>Node29</title>
<g id="a_node29"><a xlink:href="resistivejunction_8hpp.html" target="_top" xlink:title="MODEL::ResistiveJunction source file.">
<polygon fill="white" stroke="#666666" points="2272,-184 2130,-184 2130,-165 2272,-165 2272,-184"/>
<text text-anchor="middle" x="2201" y="-172" font-family="Helvetica,sans-Serif" font-size="10.00">../model/resistivejunction.hpp</text>
</a>
</g>
</g>
<!-- Node8&#45;&gt;Node29 -->
<g id="edge60" class="edge">
<title>Node8&#45;&gt;Node29</title>
<path fill="none" stroke="#63b8ff" d="M1105.3,-225.08C1130.61,-223.4 1161.95,-221.43 1190,-220 1599.81,-199.08 1706.08,-213.62 2118.57,-184.12"/>
<polygon fill="#63b8ff" stroke="#63b8ff" points="2118.69,-187.62 2128.41,-183.41 2118.19,-180.64 2118.69,-187.62"/>
</g>
<!-- Node30 -->
<g id="node30" class="node">
<title>Node30</title>
<g id="a_node30"><a xlink:href="windkesselbc_8hpp.html" target="_top" xlink:title="MODEL::WindkesselBC source file.">
<polygon fill="white" stroke="#666666" points="1821.5,-184 1690.5,-184 1690.5,-165 1821.5,-165 1821.5,-184"/>
<text text-anchor="middle" x="1756" y="-172" font-family="Helvetica,sans-Serif" font-size="10.00">../model/windkesselbc.hpp</text>
</a>
</g>
</g>
<!-- Node8&#45;&gt;Node30 -->
<g id="edge63" class="edge">
<title>Node8&#45;&gt;Node30</title>
<path fill="none" stroke="#63b8ff" d="M1105.06,-225.29C1228.46,-217.17 1550.5,-195.7 1679.14,-184.21"/>
<polygon fill="#63b8ff" stroke="#63b8ff" points="1679.1,-187.73 1688.74,-183.34 1678.46,-180.76 1679.1,-187.73"/>
</g>
<!-- Node8&#45;&gt;Node31 -->
<g id="edge69" class="edge">
<title>Node8&#45;&gt;Node31</title>
<path fill="none" stroke="#63b8ff" d="M1006.87,-221.53C966.48,-214.83 908.26,-202.87 860,-184 844.24,-177.84 843.22,-169.84 827,-165 756.72,-144.02 243.25,-126.39 95.61,-121.72"/>
<polygon fill="#63b8ff" stroke="#63b8ff" points="96.05,-118.23 85.95,-121.41 95.83,-125.22 96.05,-118.23"/>
</g>
<!-- Node12&#45;&gt;Node1 -->
<g id="edge16" class="edge">
<title>Node12&#45;&gt;Node1</title>
<path fill="none" stroke="#63b8ff" d="M1486.81,-122.58C1681.09,-129.27 2267.33,-150.6 2281,-165 2286.81,-171.12 2286.41,-177.52 2281,-184 2209.86,-269.22 1407.44,-322.37 1188.11,-335.37"/>
<polygon fill="#63b8ff" stroke="#63b8ff" points="1188.19,-331.86 1178.42,-335.94 1188.61,-338.85 1188.19,-331.86"/>
</g>
<!-- Node12&#45;&gt;Node4 -->
<g id="edge15" class="edge">
<title>Node12&#45;&gt;Node4</title>
<path fill="none" stroke="#63b8ff" d="M1434.88,-129.25C1443.39,-137.5 1455.05,-150.7 1460,-165 1470.76,-196.08 1480.17,-213.02 1460,-239 1447.98,-254.48 1405.83,-265.48 1366.02,-272.68"/>
<polygon fill="#63b8ff" stroke="#63b8ff" points="1365.63,-269.19 1356.37,-274.35 1366.82,-276.09 1365.63,-269.19"/>
</g>
<!-- Node13 -->
<g id="node13" class="node">
<title>Node13</title>
<g id="a_node13"><a xlink:title=" ">
<polygon fill="#e0e0e0" stroke="#999999" points="1448,-74 1402,-74 1402,-55 1448,-55 1448,-74"/>
<text text-anchor="middle" x="1425" y="-62" font-family="Helvetica,sans-Serif" font-size="10.00">math.h</text>
</a>
</g>
</g>
<!-- Node12&#45;&gt;Node13 -->
<g id="edge14" class="edge">
<title>Node12&#45;&gt;Node13</title>
<path fill="none" stroke="#63b8ff" d="M1425,-109.75C1425,-103.27 1425,-94.16 1425,-85.9"/>
<polygon fill="#63b8ff" stroke="#63b8ff" points="1428.5,-85.96 1425,-75.96 1421.5,-85.96 1428.5,-85.96"/>
</g>
<!-- Node14&#45;&gt;Node1 -->
<g id="edge19" class="edge">
<title>Node14&#45;&gt;Node1</title>
<path fill="none" stroke="#63b8ff" d="M1305.01,-184.45C1257.74,-191.98 1199.63,-204.07 1181,-220 1151.28,-245.41 1139.73,-291.97 1135.42,-318.53"/>
<polygon fill="#63b8ff" stroke="#63b8ff" points="1131.98,-317.9 1134.05,-328.29 1138.91,-318.87 1131.98,-317.9"/>
</g>
<!-- Node14&#45;&gt;Node4 -->
<g id="edge18" class="edge">
<title>Node14&#45;&gt;Node4</title>
<path fill="none" stroke="#63b8ff" d="M1297.05,-184.43C1253.06,-191.38 1203.51,-202.79 1190,-220 1171.93,-243.02 1205.95,-260.48 1238.38,-271.21"/>
<polygon fill="#63b8ff" stroke="#63b8ff" points="1237.2,-274.51 1247.79,-274.14 1239.28,-267.83 1237.2,-274.51"/>
</g>
<!-- Node14&#45;&gt;Node12 -->
<g id="edge21" class="edge">
<title>Node14&#45;&gt;Node12</title>
<path fill="none" stroke="#63b8ff" d="M1380.75,-164.75C1388.15,-157.35 1398.96,-146.54 1408.05,-137.45"/>
<polygon fill="#63b8ff" stroke="#63b8ff" points="1410.39,-140.06 1414.99,-130.51 1405.44,-135.11 1410.39,-140.06"/>
</g>
<!-- Node14&#45;&gt;Node15 -->
<g id="edge20" class="edge">
<title>Node14&#45;&gt;Node15</title>
<path fill="none" stroke="#63b8ff" d="M1341.64,-164.51C1312.1,-155.76 1267.02,-142.42 1234.25,-132.71"/>
<polygon fill="#63b8ff" stroke="#63b8ff" points="1235.25,-129.36 1224.67,-129.88 1233.26,-136.07 1235.25,-129.36"/>
</g>
<!-- Node16&#45;&gt;Node1 -->
<g id="edge24" class="edge">
<title>Node16&#45;&gt;Node1</title>
<path fill="none" stroke="#63b8ff" d="M1886.53,-184.49C1818.63,-206.4 1637.19,-262.98 1482,-294 1379.23,-314.54 1257.45,-327.54 1188.31,-333.87"/>
<polygon fill="#63b8ff" stroke="#63b8ff" points="1188,-330.39 1178.35,-334.77 1188.63,-337.36 1188,-330.39"/>
</g>
<!-- Node16&#45;&gt;Node4 -->
<g id="edge23" class="edge">
<title>Node16&#45;&gt;Node4</title>
<path fill="none" stroke="#63b8ff" d="M1868.16,-184.45C1802.61,-197.15 1678.26,-220.87 1572,-239 1499.44,-251.38 1416.28,-264.16 1358.4,-272.83"/>
<polygon fill="#63b8ff" stroke="#63b8ff" points="1358.04,-269.35 1348.67,-274.29 1359.08,-276.27 1358.04,-269.35"/>
</g>
<!-- Node17&#45;&gt;Node1 -->
<g id="edge27" class="edge">
<title>Node17&#45;&gt;Node1</title>
<path fill="none" stroke="#63b8ff" d="M1583.06,-184.11C1571.79,-197.59 1548.2,-223.69 1523,-239 1415.84,-304.08 1267.31,-326.81 1188.04,-334.59"/>
<polygon fill="#63b8ff" stroke="#63b8ff" points="1188,-331.08 1178.37,-335.49 1188.65,-338.05 1188,-331.08"/>
</g>
<!-- Node17&#45;&gt;Node4 -->
<g id="edge26" class="edge">
<title>Node17&#45;&gt;Node4</title>
<path fill="none" stroke="#63b8ff" d="M1579.41,-184.36C1562.33,-198.17 1527.17,-224.72 1493,-239 1452.63,-255.86 1405.05,-266.67 1365.69,-273.4"/>
<polygon fill="#63b8ff" stroke="#63b8ff" points="1365.35,-269.91 1356.05,-274.99 1366.48,-276.81 1365.35,-269.91"/>
</g>
<!-- Node17&#45;&gt;Node18 -->
<g id="edge28" class="edge">
<title>Node17&#45;&gt;Node18</title>
<path fill="none" stroke="#63b8ff" d="M1624.95,-164.51C1659.53,-155.61 1712.63,-141.95 1750.49,-132.21"/>
<polygon fill="#63b8ff" stroke="#63b8ff" points="1750.95,-135.7 1759.76,-129.82 1749.21,-128.93 1750.95,-135.7"/>
</g>
<!-- Node18&#45;&gt;Node1 -->
<g id="edge32" class="edge">
<title>Node18&#45;&gt;Node1</title>
<path fill="none" stroke="#63b8ff" d="M1869.75,-121.67C2002.08,-124.55 2268.76,-134.14 2297,-165 2302.7,-171.23 2301.54,-176.88 2297,-184 2265.91,-232.8 2234.38,-222.25 2179,-239 2023.65,-285.98 1979.35,-276.5 1818,-294 1584.61,-319.31 1304.82,-332.02 1188.22,-336.53"/>
<polygon fill="#63b8ff" stroke="#63b8ff" points="1188.16,-333.03 1178.3,-336.91 1188.43,-340.03 1188.16,-333.03"/>
</g>
<!-- Node18&#45;&gt;Node4 -->
<g id="edge30" class="edge">
<title>Node18&#45;&gt;Node4</title>
<path fill="none" stroke="#63b8ff" d="M1869.93,-121.91C1998.88,-125.15 2253.88,-135.27 2281,-165 2286.69,-171.24 2286.62,-177.7 2281,-184 2220.45,-251.89 1592.02,-275.31 1366.23,-281.57"/>
<polygon fill="#63b8ff" stroke="#63b8ff" points="1366.23,-278.07 1356.33,-281.84 1366.42,-285.07 1366.23,-278.07"/>
</g>
<!-- Node18&#45;&gt;Node13 -->
<g id="edge29" class="edge">
<title>Node18&#45;&gt;Node13</title>
<path fill="none" stroke="#63b8ff" d="M1733.06,-109.51C1654.21,-98.24 1521.88,-79.34 1459.51,-70.43"/>
<polygon fill="#63b8ff" stroke="#63b8ff" points="1460.25,-67 1449.85,-69.05 1459.26,-73.93 1460.25,-67"/>
</g>
<!-- Node18&#45;&gt;Node19 -->
<g id="edge31" class="edge">
<title>Node18&#45;&gt;Node19</title>
<path fill="none" stroke="#63b8ff" d="M1865.89,-109.51C1944.94,-99.34 2072.39,-82.94 2147.39,-73.3"/>
<polygon fill="#63b8ff" stroke="#63b8ff" points="2147.54,-76.81 2157.01,-72.06 2146.65,-69.86 2147.54,-76.81"/>
</g>
<!-- Node20&#45;&gt;Node1 -->
<g id="edge36" class="edge">
<title>Node20&#45;&gt;Node1</title>
<path fill="none" stroke="#63b8ff" d="M602.87,-184.47C697.47,-211.95 983.47,-295.05 1091.28,-326.38"/>
<polygon fill="#63b8ff" stroke="#63b8ff" points="1090.01,-329.65 1100.59,-329.08 1091.96,-322.93 1090.01,-329.65"/>
</g>
<!-- Node20&#45;&gt;Node4 -->
<g id="edge35" class="edge">
<title>Node20&#45;&gt;Node4</title>
<path fill="none" stroke="#63b8ff" d="M618.22,-184.48C686.3,-197.53 817.65,-222.03 930,-239 1024.56,-253.29 1133.75,-266.44 1206.01,-274.69"/>
<polygon fill="#63b8ff" stroke="#63b8ff" points="1205.44,-278.14 1215.77,-275.8 1206.23,-271.19 1205.44,-278.14"/>
</g>
<!-- Node20&#45;&gt;Node21 -->
<g id="edge37" class="edge">
<title>Node20&#45;&gt;Node21</title>
<path fill="none" stroke="#63b8ff" d="M564.24,-164.75C557.81,-157.5 548.49,-146.98 540.54,-138.02"/>
<polygon fill="#63b8ff" stroke="#63b8ff" points="543.19,-135.73 533.93,-130.57 537.95,-140.38 543.19,-135.73"/>
</g>
<!-- Node21&#45;&gt;Node3 -->
<g id="edge40" class="edge">
<title>Node21&#45;&gt;Node3</title>
<path fill="none" stroke="#63b8ff" d="M504.3,-109.66C460,-90.75 355.83,-46.29 303.36,-23.89"/>
<polygon fill="#63b8ff" stroke="#63b8ff" points="304.95,-20.76 294.38,-20.05 302.21,-27.2 304.95,-20.76"/>
</g>
<!-- Node21&#45;&gt;Node13 -->
<g id="edge38" class="edge">
<title>Node21&#45;&gt;Node13</title>
<path fill="none" stroke="#63b8ff" d="M564.25,-116.19C714.16,-107.36 1249.24,-75.85 1390.56,-67.53"/>
<polygon fill="#63b8ff" stroke="#63b8ff" points="1390.61,-71.03 1400.39,-66.95 1390.2,-64.04 1390.61,-71.03"/>
</g>
<!-- Node22 -->
<g id="node22" class="node">
<title>Node22</title>
<g id="a_node22"><a xlink:title=" ">
<polygon fill="#e0e0e0" stroke="#999999" points="550.5,-74 499.5,-74 499.5,-55 550.5,-55 550.5,-74"/>
<text text-anchor="middle" x="525" y="-62" font-family="Helvetica,sans-Serif" font-size="10.00">numeric</text>
</a>
</g>
</g>
<!-- Node21&#45;&gt;Node22 -->
<g id="edge39" class="edge">
<title>Node21&#45;&gt;Node22</title>
<path fill="none" stroke="#63b8ff" d="M525,-109.75C525,-103.27 525,-94.16 525,-85.9"/>
<polygon fill="#63b8ff" stroke="#63b8ff" points="528.5,-85.96 525,-75.96 521.5,-85.96 528.5,-85.96"/>
</g>
<!-- Node21&#45;&gt;Node23 -->
<g id="edge41" class="edge">
<title>Node21&#45;&gt;Node23</title>
<path fill="none" stroke="#63b8ff" d="M485.86,-113.51C410.43,-103.9 244.92,-82.82 160.59,-72.07"/>
<polygon fill="#63b8ff" stroke="#63b8ff" points="161.12,-68.61 150.75,-70.82 160.23,-75.56 161.12,-68.61"/>
</g>
<!-- Node23&#45;&gt;Node2 -->
<g id="edge42" class="edge">
<title>Node23&#45;&gt;Node2</title>
<path fill="none" stroke="#63b8ff" d="M94.75,-54.51C82.12,-46.54 63.44,-34.75 48.59,-25.38"/>
<polygon fill="#63b8ff" stroke="#63b8ff" points="50.64,-22.54 40.32,-20.17 46.91,-28.46 50.64,-22.54"/>
</g>
<!-- Node23&#45;&gt;Node3 -->
<g id="edge44" class="edge">
<title>Node23&#45;&gt;Node3</title>
<path fill="none" stroke="#63b8ff" d="M136.65,-54.51C164.92,-45.32 208.84,-31.04 238.93,-21.25"/>
<polygon fill="#63b8ff" stroke="#63b8ff" points="239.86,-24.63 248.28,-18.21 237.69,-17.97 239.86,-24.63"/>
</g>
<!-- Node24 -->
<g id="node24" class="node">
<title>Node24</title>
<g id="a_node24"><a xlink:title=" ">
<polygon fill="#e0e0e0" stroke="#999999" points="115.5,-19 74.5,-19 74.5,0 115.5,0 115.5,-19"/>
<text text-anchor="middle" x="95" y="-7" font-family="Helvetica,sans-Serif" font-size="10.00">string</text>
</a>
</g>
</g>
<!-- Node23&#45;&gt;Node24 -->
<g id="edge43" class="edge">
<title>Node23&#45;&gt;Node24</title>
<path fill="none" stroke="#63b8ff" d="M106.69,-54.75C104.94,-48.11 102.46,-38.73 100.23,-30.31"/>
<polygon fill="#63b8ff" stroke="#63b8ff" points="103.69,-29.68 97.75,-20.91 96.92,-31.47 103.69,-29.68"/>
</g>
<!-- Node25&#45;&gt;Node1 -->
<g id="edge47" class="edge">
<title>Node25&#45;&gt;Node1</title>
<path fill="none" stroke="#63b8ff" d="M2025.74,-184.46C1943.57,-206.28 1724.16,-262.71 1538,-294 1413.67,-314.9 1266.15,-328.27 1187.99,-334.46"/>
<polygon fill="#63b8ff" stroke="#63b8ff" points="1188.18,-330.94 1178.49,-335.21 1188.73,-337.91 1188.18,-330.94"/>
</g>
<!-- Node25&#45;&gt;Node4 -->
<g id="edge46" class="edge">
<title>Node25&#45;&gt;Node4</title>
<path fill="none" stroke="#63b8ff" d="M2006.1,-183.86C1926.22,-196.4 1770.01,-220.56 1637,-239 1544.16,-251.87 1437.3,-265.21 1366.11,-273.88"/>
<polygon fill="#63b8ff" stroke="#63b8ff" points="1366,-270.37 1356.5,-275.05 1366.85,-277.32 1366,-270.37"/>
</g>
<!-- Node26&#45;&gt;Node1 -->
<g id="edge50" class="edge">
<title>Node26&#45;&gt;Node1</title>
<path fill="none" stroke="#63b8ff" d="M760.68,-184.47C826.24,-211.59 1022.73,-292.88 1100.65,-325.12"/>
<polygon fill="#63b8ff" stroke="#63b8ff" points="1099.28,-328.34 1109.86,-328.93 1101.95,-321.87 1099.28,-328.34"/>
</g>
<!-- Node26&#45;&gt;Node4 -->
<g id="edge49" class="edge">
<title>Node26&#45;&gt;Node4</title>
<path fill="none" stroke="#63b8ff" d="M781.8,-184.44C821.43,-192.91 881.94,-206.35 934,-220 962.7,-227.53 969.05,-232.5 998,-239 1067.53,-254.62 1147.74,-266.52 1205.82,-274.07"/>
<polygon fill="#63b8ff" stroke="#63b8ff" points="1205.27,-277.53 1215.64,-275.33 1206.16,-270.58 1205.27,-277.53"/>
</g>
<!-- Node26&#45;&gt;Node21 -->
<g id="edge51" class="edge">
<title>Node26&#45;&gt;Node21</title>
<path fill="none" stroke="#63b8ff" d="M702.7,-164.51C666.77,-155.61 611.6,-141.95 572.27,-132.21"/>
<polygon fill="#63b8ff" stroke="#63b8ff" points="573.14,-128.82 562.59,-129.81 571.46,-135.61 573.14,-128.82"/>
</g>
<!-- Node27&#45;&gt;Node1 -->
<g id="edge54" class="edge">
<title>Node27&#45;&gt;Node1</title>
<path fill="none" stroke="#63b8ff" d="M294.9,-184.42C348.2,-197.19 449.9,-221.11 537,-239 669.78,-266.27 703.29,-271.7 837,-294 920.86,-307.99 1018.41,-322.27 1077.92,-330.76"/>
<polygon fill="#63b8ff" stroke="#63b8ff" points="1077.41,-334.22 1087.8,-332.16 1078.39,-327.29 1077.41,-334.22"/>
</g>
<!-- Node27&#45;&gt;Node4 -->
<g id="edge53" class="edge">
<title>Node27&#45;&gt;Node4</title>
<path fill="none" stroke="#63b8ff" d="M309.28,-184.48C388.69,-198.09 546.31,-223.96 681,-239 868.65,-259.96 1090.19,-273.38 1206.12,-279.55"/>
<polygon fill="#63b8ff" stroke="#63b8ff" points="1205.66,-283.03 1215.83,-280.06 1206.03,-276.04 1205.66,-283.03"/>
</g>
<!-- Node27&#45;&gt;Node21 -->
<g id="edge55" class="edge">
<title>Node27&#45;&gt;Node21</title>
<path fill="none" stroke="#63b8ff" d="M303.29,-164.51C350.78,-155.08 425.2,-140.31 474.54,-130.52"/>
<polygon fill="#63b8ff" stroke="#63b8ff" points="474.97,-134 484.1,-128.62 473.61,-127.13 474.97,-134"/>
</g>
<!-- Node28&#45;&gt;Node1 -->
<g id="edge58" class="edge">
<title>Node28&#45;&gt;Node1</title>
<path fill="none" stroke="#63b8ff" d="M455.91,-184.47C537.82,-204.84 744.84,-255.77 919,-294 972.93,-305.84 1034.68,-318.59 1077.95,-327.4"/>
<polygon fill="#63b8ff" stroke="#63b8ff" points="1077.11,-330.8 1087.6,-329.36 1078.5,-323.94 1077.11,-330.8"/>
</g>
<!-- Node28&#45;&gt;Node4 -->
<g id="edge57" class="edge">
<title>Node28&#45;&gt;Node4</title>
<path fill="none" stroke="#63b8ff" d="M469.68,-184.49C544.7,-197.84 691.5,-223.03 817,-239 953.11,-256.32 1112.22,-270.05 1205.75,-277.46"/>
<polygon fill="#63b8ff" stroke="#63b8ff" points="1205.35,-280.94 1215.6,-278.23 1205.9,-273.96 1205.35,-280.94"/>
</g>
<!-- Node28&#45;&gt;Node21 -->
<g id="edge59" class="edge">
<title>Node28&#45;&gt;Node21</title>
<path fill="none" stroke="#63b8ff" d="M437.81,-164.51C454.13,-156.27 478.53,-143.96 497.37,-134.45"/>
<polygon fill="#63b8ff" stroke="#63b8ff" points="498.75,-137.67 506.1,-130.04 495.6,-131.42 498.75,-137.67"/>
</g>
<!-- Node29&#45;&gt;Node1 -->
<g id="edge62" class="edge">
<title>Node29&#45;&gt;Node1</title>
<path fill="none" stroke="#63b8ff" d="M2162.75,-184.48C2068.29,-206.35 1816.12,-262.88 1603,-294 1453.78,-315.79 1276.28,-329.25 1188.22,-335.09"/>
<polygon fill="#63b8ff" stroke="#63b8ff" points="1188.17,-331.59 1178.43,-335.73 1188.63,-338.57 1188.17,-331.59"/>
</g>
<!-- Node29&#45;&gt;Node4 -->
<g id="edge61" class="edge">
<title>Node29&#45;&gt;Node4</title>
<path fill="none" stroke="#63b8ff" d="M2136.47,-184.46C2043.29,-197.27 1865.59,-221.24 1714,-239 1592.75,-253.21 1451.9,-267.41 1365.88,-275.82"/>
<polygon fill="#63b8ff" stroke="#63b8ff" points="1365.75,-272.32 1356.13,-276.77 1366.43,-279.29 1365.75,-272.32"/>
</g>
<!-- Node30&#45;&gt;Node1 -->
<g id="edge65" class="edge">
<title>Node30&#45;&gt;Node1</title>
<path fill="none" stroke="#63b8ff" d="M1736.31,-184.48C1687,-206.61 1553.76,-264.12 1437,-294 1351.56,-315.86 1249.67,-328.05 1188.22,-333.94"/>
<polygon fill="#63b8ff" stroke="#63b8ff" points="1188,-330.44 1178.37,-334.86 1188.65,-337.41 1188,-330.44"/>
</g>
<!-- Node30&#45;&gt;Node4 -->
<g id="edge64" class="edge">
<title>Node30&#45;&gt;Node4</title>
<path fill="none" stroke="#63b8ff" d="M1726.03,-184.5C1681.86,-197.57 1596.55,-222.1 1523,-239 1465.4,-252.24 1399.25,-264.41 1351.5,-272.66"/>
<polygon fill="#63b8ff" stroke="#63b8ff" points="1351.14,-269.17 1341.87,-274.31 1352.32,-276.07 1351.14,-269.17"/>
</g>
<!-- Node31&#45;&gt;Node23 -->
<g id="edge71" class="edge">
<title>Node31&#45;&gt;Node23</title>
<path fill="none" stroke="#63b8ff" d="M64.75,-109.75C72.15,-102.35 82.96,-91.54 92.05,-82.45"/>
<polygon fill="#63b8ff" stroke="#63b8ff" points="94.39,-85.06 98.99,-75.51 89.44,-80.11 94.39,-85.06"/>
</g>
<!-- Node31&#45;&gt;Node24 -->
<g id="edge70" class="edge">
<title>Node31&#45;&gt;Node24</title>
<path fill="none" stroke="#63b8ff" d="M54.93,-109.52C53.79,-96.89 52.99,-73.37 60,-55 63.84,-44.95 70.79,-35.35 77.5,-27.66"/>
<polygon fill="#63b8ff" stroke="#63b8ff" points="80,-30.12 84.29,-20.43 74.9,-25.33 80,-30.12"/>
</g>
</g>
</svg>
