<?xml version="1.0" encoding="UTF-8" standalone="no"?>
<!DOCTYPE svg PUBLIC "-//W3C//DTD SVG 1.1//EN"
 "http://www.w3.org/Graphics/SVG/1.1/DTD/svg11.dtd">
<!-- Generated by graphviz version 3.0.0 (20220413.0242)
 -->
<!-- Title: model/block.hpp Pages: 1 -->
<svg width="1259pt" height="364pt"
 viewBox="0.00 0.00 1259.00 364.00" xmlns="http://www.w3.org/2000/svg" xmlns:xlink="http://www.w3.org/1999/xlink">
<g id="graph0" class="graph" transform="scale(1 1) rotate(0) translate(4 360)">
<title>model/block.hpp</title>
<!-- Node1 -->
<g id="node1" class="node">
<title>Node1</title>
<g id="a_node1"><a xlink:title="MODEL::Block source file.">
<polygon fill="#bfbfbf" stroke="black" points="595.5,-336.5 595.5,-355.5 682.5,-355.5 682.5,-336.5 595.5,-336.5"/>
<text text-anchor="middle" x="639" y="-343.5" font-family="Helvetica,sans-Serif" font-size="10.00">model/block.hpp</text>
</a>
</g>
</g>
<!-- Node2 -->
<g id="node2" class="node">
<title>Node2</title>
<g id="a_node2"><a xlink:title=" ">
<polygon fill="none" stroke="#bfbfbf" points="149.5,-168.5 149.5,-187.5 184.5,-187.5 184.5,-168.5 149.5,-168.5"/>
<text text-anchor="middle" x="167" y="-175.5" font-family="Helvetica,sans-Serif" font-size="10.00">map</text>
</a>
</g>
</g>
<!-- Node1&#45;&gt;Node2 -->
<g id="edge1" class="edge">
<title>Node1&#45;&gt;Node2</title>
<path fill="none" stroke="midnightblue" d="M595.38,-337.33C555.44,-329.75 494.97,-316.85 444,-300 348.67,-268.48 241.12,-216.49 192.86,-192.23"/>
<polygon fill="midnightblue" stroke="midnightblue" points="194.25,-189.02 183.75,-187.63 191.1,-195.26 194.25,-189.02"/>
</g>
<!-- Node3 -->
<g id="node3" class="node">
<title>Node3</title>
<g id="a_node3"><a xlink:title=" ">
<polygon fill="none" stroke="#bfbfbf" points="327,-0.5 327,-19.5 371,-19.5 371,-0.5 327,-0.5"/>
<text text-anchor="middle" x="349" y="-7.5" font-family="Helvetica,sans-Serif" font-size="10.00">vector</text>
</a>
</g>
</g>
<!-- Node1&#45;&gt;Node3 -->
<g id="edge2" class="edge">
<title>Node1&#45;&gt;Node3</title>
<path fill="none" stroke="midnightblue" d="M595.08,-342.1C450.71,-331.97 0,-295.51 0,-235 0,-235 0,-235 0,-121 0,-54.91 230.55,-23.59 316.88,-14.17"/>
<polygon fill="midnightblue" stroke="midnightblue" points="317.33,-17.65 326.9,-13.11 316.59,-10.68 317.33,-17.65"/>
</g>
<!-- Node4 -->
<g id="node4" class="node">
<title>Node4</title>
<g id="a_node4"><a xlink:href="densesystem_8hpp.html" target="_top" xlink:title="ALGEBRA::DenseSystem source file.">
<polygon fill="none" stroke="black" points="572,-280.5 572,-299.5 706,-299.5 706,-280.5 572,-280.5"/>
<text text-anchor="middle" x="639" y="-287.5" font-family="Helvetica,sans-Serif" font-size="10.00">../algebra/densesystem.hpp</text>
</a>
</g>
</g>
<!-- Node1&#45;&gt;Node4 -->
<g id="edge3" class="edge">
<title>Node1&#45;&gt;Node4</title>
<path fill="none" stroke="midnightblue" d="M639,-336.08C639,-329.01 639,-318.86 639,-309.99"/>
<polygon fill="midnightblue" stroke="midnightblue" points="642.5,-309.75 639,-299.75 635.5,-309.75 642.5,-309.75"/>
</g>
<!-- Node9 -->
<g id="node9" class="node">
<title>Node9</title>
<g id="a_node9"><a xlink:href="sparsesystem_8hpp.html" target="_top" xlink:title="ALGEBRA::SparseSystem source file.">
<polygon fill="none" stroke="black" points="541.5,-112.5 541.5,-131.5 678.5,-131.5 678.5,-112.5 541.5,-112.5"/>
<text text-anchor="middle" x="610" y="-119.5" font-family="Helvetica,sans-Serif" font-size="10.00">../algebra/sparsesystem.hpp</text>
</a>
</g>
</g>
<!-- Node1&#45;&gt;Node9 -->
<g id="edge58" class="edge">
<title>Node1&#45;&gt;Node9</title>
<path fill="none" stroke="midnightblue" d="M682.71,-343.84C825.11,-338.67 1259.19,-311.08 1128,-168 1098.95,-136.32 826.34,-126.87 688.71,-124.11"/>
<polygon fill="midnightblue" stroke="midnightblue" points="688.7,-120.61 678.64,-123.91 688.57,-127.61 688.7,-120.61"/>
</g>
<!-- Node15 -->
<g id="node15" class="node">
<title>Node15</title>
<g id="a_node15"><a xlink:href="dofhandler_8hpp.html" target="_top" xlink:title="MODEL::DOFHandler source file.">
<polygon fill="none" stroke="black" points="948,-56.5 948,-75.5 1028,-75.5 1028,-56.5 948,-56.5"/>
<text text-anchor="middle" x="988" y="-63.5" font-family="Helvetica,sans-Serif" font-size="10.00">dofhandler.hpp</text>
</a>
</g>
</g>
<!-- Node1&#45;&gt;Node15 -->
<g id="edge59" class="edge">
<title>Node1&#45;&gt;Node15</title>
<path fill="none" stroke="midnightblue" d="M682.69,-343.25C779.18,-338.94 1007.64,-326.22 1080,-300 1121.84,-284.84 1142.11,-283.29 1163,-244 1202.58,-169.54 1080.14,-105.75 1019.68,-79.63"/>
<polygon fill="midnightblue" stroke="midnightblue" points="1020.78,-76.29 1010.2,-75.62 1018.05,-82.74 1020.78,-76.29"/>
</g>
<!-- Node21 -->
<g id="node21" class="node">
<title>Node21</title>
<g id="a_node21"><a xlink:href="node_8hpp.html" target="_top" xlink:title="MODEL::Node source file.">
<polygon fill="none" stroke="black" points="1195,-112.5 1195,-131.5 1251,-131.5 1251,-112.5 1195,-112.5"/>
<text text-anchor="middle" x="1223" y="-119.5" font-family="Helvetica,sans-Serif" font-size="10.00">node.hpp</text>
</a>
</g>
</g>
<!-- Node1&#45;&gt;Node21 -->
<g id="edge60" class="edge">
<title>Node1&#45;&gt;Node21</title>
<path fill="none" stroke="midnightblue" d="M682.7,-344.58C807.97,-342.95 1161.77,-335.25 1199,-300 1242.69,-258.64 1233.94,-178.31 1227.15,-141.84"/>
<polygon fill="midnightblue" stroke="midnightblue" points="1230.49,-140.74 1225.08,-131.64 1223.63,-142.13 1230.49,-140.74"/>
</g>
<!-- Node5 -->
<g id="node5" class="node">
<title>Node5</title>
<g id="a_node5"><a xlink:title=" ">
<polygon fill="none" stroke="#bfbfbf" points="501.5,-224.5 501.5,-243.5 572.5,-243.5 572.5,-224.5 501.5,-224.5"/>
<text text-anchor="middle" x="537" y="-231.5" font-family="Helvetica,sans-Serif" font-size="10.00">Eigen/Dense</text>
</a>
</g>
</g>
<!-- Node4&#45;&gt;Node5 -->
<g id="edge4" class="edge">
<title>Node4&#45;&gt;Node5</title>
<path fill="none" stroke="midnightblue" d="M622.61,-280.32C606.33,-271.7 581.13,-258.36 562.28,-248.39"/>
<polygon fill="midnightblue" stroke="midnightblue" points="563.82,-245.24 553.35,-243.65 560.55,-251.43 563.82,-245.24"/>
</g>
<!-- Node6 -->
<g id="node6" class="node">
<title>Node6</title>
<g id="a_node6"><a xlink:href="model_8hpp.html" target="_top" xlink:title="MODEL::Model source file.">
<polygon fill="none" stroke="black" points="629,-224.5 629,-243.5 727,-243.5 727,-224.5 629,-224.5"/>
<text text-anchor="middle" x="678" y="-231.5" font-family="Helvetica,sans-Serif" font-size="10.00">../model/model.hpp</text>
</a>
</g>
</g>
<!-- Node4&#45;&gt;Node6 -->
<g id="edge5" class="edge">
<title>Node4&#45;&gt;Node6</title>
<path fill="none" stroke="midnightblue" d="M640.27,-280.08C644.25,-272.3 652.19,-260.8 659.92,-251.37"/>
<polygon fill="midnightblue" stroke="midnightblue" points="662.62,-253.59 666.55,-243.75 657.34,-248.99 662.62,-253.59"/>
</g>
<!-- Node6&#45;&gt;Node2 -->
<g id="edge7" class="edge">
<title>Node6&#45;&gt;Node2</title>
<path fill="none" stroke="midnightblue" d="M628.83,-228.44C517.08,-218.07 249.94,-193.28 194.68,-187.07"/>
<polygon fill="midnightblue" stroke="midnightblue" points="195.11,-183.6 184.74,-185.77 194.2,-190.54 195.11,-183.6"/>
</g>
<!-- Node6&#45;&gt;Node4 -->
<g id="edge9" class="edge">
<title>Node6&#45;&gt;Node4</title>
<path fill="none" stroke="midnightblue" d="M676.81,-243.75C672.89,-251.48 664.98,-262.97 657.25,-272.43"/>
<polygon fill="midnightblue" stroke="midnightblue" points="654.52,-270.24 650.61,-280.08 659.8,-274.82 654.52,-270.24"/>
</g>
<!-- Node7 -->
<g id="node7" class="node">
<title>Node7</title>
<g id="a_node7"><a xlink:title=" ">
<polygon fill="none" stroke="#bfbfbf" points="647.5,-168.5 647.5,-187.5 676.5,-187.5 676.5,-168.5 647.5,-168.5"/>
<text text-anchor="middle" x="662" y="-175.5" font-family="Helvetica,sans-Serif" font-size="10.00">list</text>
</a>
</g>
</g>
<!-- Node6&#45;&gt;Node7 -->
<g id="edge6" class="edge">
<title>Node6&#45;&gt;Node7</title>
<path fill="none" stroke="midnightblue" d="M675.36,-224.08C673.21,-216.85 670.12,-206.41 667.45,-197.4"/>
<polygon fill="midnightblue" stroke="midnightblue" points="670.79,-196.34 664.59,-187.75 664.08,-198.33 670.79,-196.34"/>
</g>
<!-- Node8 -->
<g id="node8" class="node">
<title>Node8</title>
<g id="a_node8"><a xlink:title=" ">
<polygon fill="none" stroke="#bfbfbf" points="695,-168.5 695,-187.5 741,-187.5 741,-168.5 695,-168.5"/>
<text text-anchor="middle" x="718" y="-175.5" font-family="Helvetica,sans-Serif" font-size="10.00">variant</text>
</a>
</g>
</g>
<!-- Node6&#45;&gt;Node8 -->
<g id="edge8" class="edge">
<title>Node6&#45;&gt;Node8</title>
<path fill="none" stroke="midnightblue" d="M684.61,-224.08C690.26,-216.46 698.54,-205.26 705.45,-195.94"/>
<polygon fill="midnightblue" stroke="midnightblue" points="708.38,-197.87 711.52,-187.75 702.75,-193.7 708.38,-197.87"/>
</g>
<!-- Node6&#45;&gt;Node9 -->
<g id="edge10" class="edge">
<title>Node6&#45;&gt;Node9</title>
<path fill="none" stroke="midnightblue" d="M661.92,-224.39C651.03,-215.81 637.87,-201.93 629,-188 619.72,-173.42 612.19,-155.25 608.77,-141.82"/>
<polygon fill="midnightblue" stroke="midnightblue" points="612.19,-141.05 606.93,-131.85 605.31,-142.32 612.19,-141.05"/>
</g>
<!-- Node13 -->
<g id="node13" class="node">
<title>Node13</title>
<g id="a_node13"><a xlink:href="bloodvessel_8hpp.html" target="_top" xlink:title="MODEL::BloodVessel source file.">
<polygon fill="none" stroke="black" points="1033,-168.5 1033,-187.5 1119,-187.5 1119,-168.5 1033,-168.5"/>
<text text-anchor="middle" x="1076" y="-175.5" font-family="Helvetica,sans-Serif" font-size="10.00">bloodvessel.hpp</text>
</a>
</g>
</g>
<!-- Node6&#45;&gt;Node13 -->
<g id="edge15" class="edge">
<title>Node6&#45;&gt;Node13</title>
<path fill="none" stroke="midnightblue" d="M727.08,-227.28C792.26,-219.53 911.21,-204.88 1022.81,-188.13"/>
<polygon fill="midnightblue" stroke="midnightblue" points="1023.53,-191.56 1032.89,-186.6 1022.48,-184.64 1023.53,-191.56"/>
</g>
<!-- Node6&#45;&gt;Node15 -->
<g id="edge20" class="edge">
<title>Node6&#45;&gt;Node15</title>
<path fill="none" stroke="midnightblue" d="M691.89,-224.3C718.3,-207.77 773.91,-173.04 783,-168 844.87,-133.71 920,-98.19 959.91,-79.79"/>
<polygon fill="midnightblue" stroke="midnightblue" points="961.41,-82.95 969.03,-75.6 958.49,-76.59 961.41,-82.95"/>
</g>
<!-- Node17 -->
<g id="node17" class="node">
<title>Node17</title>
<g id="a_node17"><a xlink:href="flowreferencebc_8hpp.html" target="_top" xlink:title="MODEL::FlowReferenceBC source file.">
<polygon fill="none" stroke="black" points="28.5,-168.5 28.5,-187.5 131.5,-187.5 131.5,-168.5 28.5,-168.5"/>
<text text-anchor="middle" x="80" y="-175.5" font-family="Helvetica,sans-Serif" font-size="10.00">flowreferencebc.hpp</text>
</a>
</g>
</g>
<!-- Node6&#45;&gt;Node17 -->
<g id="edge23" class="edge">
<title>Node6&#45;&gt;Node17</title>
<path fill="none" stroke="midnightblue" d="M628.66,-228.32C613.39,-226.89 596.5,-225.35 581,-224 388.34,-207.2 337.04,-210.48 141.7,-188.13"/>
<polygon fill="midnightblue" stroke="midnightblue" points="142.02,-184.65 131.68,-186.98 141.21,-191.6 142.02,-184.65"/>
</g>
<!-- Node20 -->
<g id="node20" class="node">
<title>Node20</title>
<g id="a_node20"><a xlink:href="junction_8hpp.html" target="_top" xlink:title="MODEL::Junction source file.">
<polygon fill="none" stroke="black" points="835,-168.5 835,-187.5 903,-187.5 903,-168.5 835,-168.5"/>
<text text-anchor="middle" x="869" y="-175.5" font-family="Helvetica,sans-Serif" font-size="10.00">junction.hpp</text>
</a>
</g>
</g>
<!-- Node6&#45;&gt;Node20 -->
<g id="edge32" class="edge">
<title>Node6&#45;&gt;Node20</title>
<path fill="none" stroke="midnightblue" d="M708.26,-224.44C740.96,-215.2 793.18,-200.44 829.18,-190.26"/>
<polygon fill="midnightblue" stroke="midnightblue" points="830.21,-193.61 838.88,-187.52 828.3,-186.87 830.21,-193.61"/>
</g>
<!-- Node6&#45;&gt;Node21 -->
<g id="edge36" class="edge">
<title>Node6&#45;&gt;Node21</title>
<path fill="none" stroke="midnightblue" d="M698.6,-224.39C719.83,-215.46 753.85,-201.02 783,-188 802.24,-179.4 805.71,-173.71 826,-168 953.98,-132.01 1112.85,-124.69 1184.63,-123.28"/>
<polygon fill="midnightblue" stroke="midnightblue" points="1185.04,-126.77 1194.98,-123.11 1184.92,-119.77 1185.04,-126.77"/>
</g>
<!-- Node22 -->
<g id="node22" class="node">
<title>Node22</title>
<g id="a_node22"><a xlink:href="openloopcoronarybc_8hpp.html" target="_top" xlink:title="MODEL::ClosedLoopCoronaryBC source file.">
<polygon fill="none" stroke="black" points="202.5,-168.5 202.5,-187.5 323.5,-187.5 323.5,-168.5 202.5,-168.5"/>
<text text-anchor="middle" x="263" y="-175.5" font-family="Helvetica,sans-Serif" font-size="10.00">openloopcoronarybc.hpp</text>
</a>
</g>
</g>
<!-- Node6&#45;&gt;Node22 -->
<g id="edge39" class="edge">
<title>Node6&#45;&gt;Node22</title>
<path fill="none" stroke="midnightblue" d="M628.72,-226.6C563.58,-218.13 444.93,-202.71 333.64,-188.21"/>
<polygon fill="midnightblue" stroke="midnightblue" points="333.95,-184.72 323.58,-186.9 333.05,-191.67 333.95,-184.72"/>
</g>
<!-- Node23 -->
<g id="node23" class="node">
<title>Node23</title>
<g id="a_node23"><a xlink:href="pressurereferencebc_8hpp.html" target="_top" xlink:title="MODEL::PressureReferenceBC source file.">
<polygon fill="none" stroke="black" points="341.5,-168.5 341.5,-187.5 464.5,-187.5 464.5,-168.5 341.5,-168.5"/>
<text text-anchor="middle" x="403" y="-175.5" font-family="Helvetica,sans-Serif" font-size="10.00">pressurereferencebc.hpp</text>
</a>
</g>
</g>
<!-- Node6&#45;&gt;Node23 -->
<g id="edge44" class="edge">
<title>Node6&#45;&gt;Node23</title>
<path fill="none" stroke="midnightblue" d="M634.43,-224.44C586.15,-214.96 508.29,-199.67 456.39,-189.48"/>
<polygon fill="midnightblue" stroke="midnightblue" points="456.86,-186.01 446.37,-187.52 455.51,-192.88 456.86,-186.01"/>
</g>
<!-- Node24 -->
<g id="node24" class="node">
<title>Node24</title>
<g id="a_node24"><a xlink:href="resistancebc_8hpp.html" target="_top" xlink:title="MODEL::ResistanceBC source file.">
<polygon fill="none" stroke="black" points="483,-168.5 483,-187.5 573,-187.5 573,-168.5 483,-168.5"/>
<text text-anchor="middle" x="528" y="-175.5" font-family="Helvetica,sans-Serif" font-size="10.00">resistancebc.hpp</text>
</a>
</g>
</g>
<!-- Node6&#45;&gt;Node24 -->
<g id="edge49" class="edge">
<title>Node6&#45;&gt;Node24</title>
<path fill="none" stroke="midnightblue" d="M654.23,-224.44C629.11,-215.4 589.29,-201.06 561.1,-190.92"/>
<polygon fill="midnightblue" stroke="midnightblue" points="562.25,-187.61 551.66,-187.52 559.88,-194.2 562.25,-187.61"/>
</g>
<!-- Node25 -->
<g id="node25" class="node">
<title>Node25</title>
<g id="a_node25"><a xlink:href="windkesselbc_8hpp.html" target="_top" xlink:title="MODEL::WindkesselBC source file.">
<polygon fill="none" stroke="black" points="921,-168.5 921,-187.5 1015,-187.5 1015,-168.5 921,-168.5"/>
<text text-anchor="middle" x="968" y="-175.5" font-family="Helvetica,sans-Serif" font-size="10.00">windkesselbc.hpp</text>
</a>
</g>
</g>
<!-- Node6&#45;&gt;Node25 -->
<g id="edge54" class="edge">
<title>Node6&#45;&gt;Node25</title>
<path fill="none" stroke="midnightblue" d="M723.95,-224.44C775.07,-214.92 857.65,-199.55 912.38,-189.36"/>
<polygon fill="midnightblue" stroke="midnightblue" points="913.07,-192.79 922.26,-187.52 911.79,-185.91 913.07,-192.79"/>
</g>
<!-- Node9&#45;&gt;Node6 -->
<g id="edge14" class="edge">
<title>Node9&#45;&gt;Node6</title>
<path fill="none" stroke="midnightblue" d="M618.67,-131.85C626.11,-144.79 635.13,-169.34 647,-188 653.51,-198.23 662.34,-208.43 669.2,-216.53"/>
<polygon fill="midnightblue" stroke="midnightblue" points="666.62,-218.9 675.68,-224.39 672.02,-214.45 666.62,-218.9"/>
</g>
<!-- Node10 -->
<g id="node10" class="node">
<title>Node10</title>
<g id="a_node10"><a xlink:title=" ">
<polygon fill="none" stroke="#bfbfbf" points="511,-56.5 511,-75.5 585,-75.5 585,-56.5 511,-56.5"/>
<text text-anchor="middle" x="548" y="-63.5" font-family="Helvetica,sans-Serif" font-size="10.00">Eigen/Sparse</text>
</a>
</g>
</g>
<!-- Node9&#45;&gt;Node10 -->
<g id="edge11" class="edge">
<title>Node9&#45;&gt;Node10</title>
<path fill="none" stroke="midnightblue" d="M600.04,-112.32C590.87,-104.34 577.06,-92.31 565.97,-82.65"/>
<polygon fill="midnightblue" stroke="midnightblue" points="567.98,-79.76 558.14,-75.83 563.38,-85.04 567.98,-79.76"/>
</g>
<!-- Node11 -->
<g id="node11" class="node">
<title>Node11</title>
<g id="a_node11"><a xlink:title=" ">
<polygon fill="none" stroke="#bfbfbf" points="603,-56.5 603,-75.5 691,-75.5 691,-56.5 603,-56.5"/>
<text text-anchor="middle" x="647" y="-63.5" font-family="Helvetica,sans-Serif" font-size="10.00">Eigen/SparseLU</text>
</a>
</g>
</g>
<!-- Node9&#45;&gt;Node11 -->
<g id="edge12" class="edge">
<title>Node9&#45;&gt;Node11</title>
<path fill="none" stroke="midnightblue" d="M616.11,-112.08C621.28,-104.53 628.85,-93.49 635.19,-84.23"/>
<polygon fill="midnightblue" stroke="midnightblue" points="638.24,-85.98 641,-75.75 632.46,-82.02 638.24,-85.98"/>
</g>
<!-- Node12 -->
<g id="node12" class="node">
<title>Node12</title>
<g id="a_node12"><a xlink:title=" ">
<polygon fill="none" stroke="#bfbfbf" points="709,-56.5 709,-75.5 763,-75.5 763,-56.5 709,-56.5"/>
<text text-anchor="middle" x="736" y="-63.5" font-family="Helvetica,sans-Serif" font-size="10.00">iostream</text>
</a>
</g>
</g>
<!-- Node9&#45;&gt;Node12 -->
<g id="edge13" class="edge">
<title>Node9&#45;&gt;Node12</title>
<path fill="none" stroke="midnightblue" d="M629.97,-112.44C650.61,-103.6 683.06,-89.69 706.63,-79.59"/>
<polygon fill="midnightblue" stroke="midnightblue" points="708.32,-82.67 716.13,-75.52 705.56,-76.24 708.32,-82.67"/>
</g>
<!-- Node13&#45;&gt;Node1 -->
<g id="edge19" class="edge">
<title>Node13&#45;&gt;Node1</title>
<path fill="none" stroke="midnightblue" d="M1056.31,-187.57C1008.87,-208.11 884.24,-261.29 778,-300 744.25,-312.3 705.31,-324.76 677.24,-333.44"/>
<polygon fill="midnightblue" stroke="midnightblue" points="675.95,-330.17 667.42,-336.46 678.01,-336.87 675.95,-330.17"/>
</g>
<!-- Node13&#45;&gt;Node4 -->
<g id="edge17" class="edge">
<title>Node13&#45;&gt;Node4</title>
<path fill="none" stroke="midnightblue" d="M1042.09,-187.53C963.7,-207.27 769.97,-256.03 682.77,-277.98"/>
<polygon fill="midnightblue" stroke="midnightblue" points="681.77,-274.62 672.93,-280.46 683.48,-281.41 681.77,-274.62"/>
</g>
<!-- Node13&#45;&gt;Node9 -->
<g id="edge18" class="edge">
<title>Node13&#45;&gt;Node9</title>
<path fill="none" stroke="midnightblue" d="M1032.9,-169.33C1029.89,-168.86 1026.9,-168.41 1024,-168 907.68,-151.63 772.25,-137.91 688.82,-130.07"/>
<polygon fill="midnightblue" stroke="midnightblue" points="688.94,-126.57 678.66,-129.13 688.29,-133.54 688.94,-126.57"/>
</g>
<!-- Node14 -->
<g id="node14" class="node">
<title>Node14</title>
<g id="a_node14"><a xlink:title=" ">
<polygon fill="none" stroke="#bfbfbf" points="447,-56.5 447,-75.5 493,-75.5 493,-56.5 447,-56.5"/>
<text text-anchor="middle" x="470" y="-63.5" font-family="Helvetica,sans-Serif" font-size="10.00">math.h</text>
</a>
</g>
</g>
<!-- Node13&#45;&gt;Node14 -->
<g id="edge16" class="edge">
<title>Node13&#45;&gt;Node14</title>
<path fill="none" stroke="midnightblue" d="M1032.82,-169.52C911.56,-148.51 572.69,-89.69 502.99,-75.86"/>
<polygon fill="midnightblue" stroke="midnightblue" points="503.51,-72.39 493,-73.77 502.07,-79.24 503.51,-72.39"/>
</g>
<!-- Node15&#45;&gt;Node3 -->
<g id="edge22" class="edge">
<title>Node15&#45;&gt;Node3</title>
<path fill="none" stroke="midnightblue" d="M947.54,-61.58C829.65,-51.62 487.99,-22.75 381.26,-13.73"/>
<polygon fill="midnightblue" stroke="midnightblue" points="381.37,-10.22 371.11,-12.87 380.78,-17.2 381.37,-10.22"/>
</g>
<!-- Node16 -->
<g id="node16" class="node">
<title>Node16</title>
<g id="a_node16"><a xlink:title=" ">
<polygon fill="none" stroke="#bfbfbf" points="1084.5,-0.5 1084.5,-19.5 1125.5,-19.5 1125.5,-0.5 1084.5,-0.5"/>
<text text-anchor="middle" x="1105" y="-7.5" font-family="Helvetica,sans-Serif" font-size="10.00">string</text>
</a>
</g>
</g>
<!-- Node15&#45;&gt;Node16 -->
<g id="edge21" class="edge">
<title>Node15&#45;&gt;Node16</title>
<path fill="none" stroke="midnightblue" d="M1006.54,-56.44C1025.62,-47.64 1055.57,-33.81 1077.44,-23.72"/>
<polygon fill="midnightblue" stroke="midnightblue" points="1078.93,-26.88 1086.55,-19.52 1076,-20.53 1078.93,-26.88"/>
</g>
<!-- Node17&#45;&gt;Node1 -->
<g id="edge26" class="edge">
<title>Node17&#45;&gt;Node1</title>
<path fill="none" stroke="midnightblue" d="M97.78,-187.54C144.03,-209.42 272.38,-268.04 385,-300 452.86,-319.26 533.36,-331.85 585.26,-338.69"/>
<polygon fill="midnightblue" stroke="midnightblue" points="584.88,-342.17 595.25,-339.98 585.78,-335.23 584.88,-342.17"/>
</g>
<!-- Node17&#45;&gt;Node4 -->
<g id="edge24" class="edge">
<title>Node17&#45;&gt;Node4</title>
<path fill="none" stroke="midnightblue" d="M118.95,-187.57C177.47,-200.37 291.61,-225 389,-244 453.79,-256.64 528.29,-269.89 578.99,-278.7"/>
<polygon fill="midnightblue" stroke="midnightblue" points="578.66,-282.2 589.12,-280.46 579.86,-275.3 578.66,-282.2"/>
</g>
<!-- Node17&#45;&gt;Node9 -->
<g id="edge25" class="edge">
<title>Node17&#45;&gt;Node9</title>
<path fill="none" stroke="midnightblue" d="M131.69,-169.07C134.5,-168.69 137.28,-168.33 140,-168 277.23,-151.15 437.67,-136.97 531.15,-129.25"/>
<polygon fill="midnightblue" stroke="midnightblue" points="531.7,-132.72 541.38,-128.41 531.13,-125.74 531.7,-132.72"/>
</g>
<!-- Node18 -->
<g id="node18" class="node">
<title>Node18</title>
<g id="a_node18"><a xlink:href="timedependentparameter_8hpp.html" target="_top" xlink:title="MODEL::TimeDependentParameter source file.">
<polygon fill="none" stroke="black" points="332,-112.5 332,-131.5 474,-131.5 474,-112.5 332,-112.5"/>
<text text-anchor="middle" x="403" y="-119.5" font-family="Helvetica,sans-Serif" font-size="10.00">timedependentparameter.hpp</text>
</a>
</g>
</g>
<!-- Node17&#45;&gt;Node18 -->
<g id="edge27" class="edge">
<title>Node17&#45;&gt;Node18</title>
<path fill="none" stroke="midnightblue" d="M131.18,-168.44C188.47,-158.87 281.24,-143.36 342.19,-133.17"/>
<polygon fill="midnightblue" stroke="midnightblue" points="342.77,-136.62 352.06,-131.52 341.62,-129.71 342.77,-136.62"/>
</g>
<!-- Node18&#45;&gt;Node3 -->
<g id="edge30" class="edge">
<title>Node18&#45;&gt;Node3</title>
<path fill="none" stroke="midnightblue" d="M394.67,-112.39C386.78,-103.8 375.12,-89.92 368,-76 360.47,-61.28 355.48,-43.12 352.51,-29.74"/>
<polygon fill="midnightblue" stroke="midnightblue" points="355.91,-28.9 350.48,-19.8 349.06,-30.3 355.91,-28.9"/>
</g>
<!-- Node18&#45;&gt;Node14 -->
<g id="edge28" class="edge">
<title>Node18&#45;&gt;Node14</title>
<path fill="none" stroke="midnightblue" d="M413.76,-112.32C423.77,-104.26 438.89,-92.08 450.93,-82.37"/>
<polygon fill="midnightblue" stroke="midnightblue" points="453.45,-84.83 459.04,-75.83 449.06,-79.38 453.45,-84.83"/>
</g>
<!-- Node18&#45;&gt;Node15 -->
<g id="edge31" class="edge">
<title>Node18&#45;&gt;Node15</title>
<path fill="none" stroke="midnightblue" d="M474.15,-114.43C593.96,-103.37 833.12,-81.3 937.41,-71.67"/>
<polygon fill="midnightblue" stroke="midnightblue" points="938.03,-75.13 947.67,-70.72 937.39,-68.16 938.03,-75.13"/>
</g>
<!-- Node19 -->
<g id="node19" class="node">
<title>Node19</title>
<g id="a_node19"><a xlink:title=" ">
<polygon fill="none" stroke="#bfbfbf" points="377.5,-56.5 377.5,-75.5 428.5,-75.5 428.5,-56.5 377.5,-56.5"/>
<text text-anchor="middle" x="403" y="-63.5" font-family="Helvetica,sans-Serif" font-size="10.00">numeric</text>
</a>
</g>
</g>
<!-- Node18&#45;&gt;Node19 -->
<g id="edge29" class="edge">
<title>Node18&#45;&gt;Node19</title>
<path fill="none" stroke="midnightblue" d="M403,-112.08C403,-105.01 403,-94.86 403,-85.99"/>
<polygon fill="midnightblue" stroke="midnightblue" points="406.5,-85.75 403,-75.75 399.5,-85.75 406.5,-85.75"/>
</g>
<!-- Node20&#45;&gt;Node1 -->
<g id="edge35" class="edge">
<title>Node20&#45;&gt;Node1</title>
<path fill="none" stroke="midnightblue" d="M858.9,-187.7C834.79,-208.3 771.68,-261.2 715,-300 698.34,-311.41 678.71,-322.98 663.58,-331.54"/>
<polygon fill="midnightblue" stroke="midnightblue" points="661.82,-328.51 654.8,-336.45 665.24,-334.62 661.82,-328.51"/>
</g>
<!-- Node20&#45;&gt;Node4 -->
<g id="edge33" class="edge">
<title>Node20&#45;&gt;Node4</title>
<path fill="none" stroke="midnightblue" d="M851.84,-187.53C826.55,-200.05 777.77,-224.11 736,-244 712.77,-255.06 686.27,-267.34 666.84,-276.27"/>
<polygon fill="midnightblue" stroke="midnightblue" points="665.28,-273.13 657.65,-280.48 668.2,-279.49 665.28,-273.13"/>
</g>
<!-- Node20&#45;&gt;Node9 -->
<g id="edge34" class="edge">
<title>Node20&#45;&gt;Node9</title>
<path fill="none" stroke="midnightblue" d="M834.87,-169.88C790.45,-160.62 712.41,-144.35 660.96,-133.62"/>
<polygon fill="midnightblue" stroke="midnightblue" points="661.54,-130.17 651.04,-131.56 660.11,-137.02 661.54,-130.17"/>
</g>
<!-- Node21&#45;&gt;Node15 -->
<g id="edge38" class="edge">
<title>Node21&#45;&gt;Node15</title>
<path fill="none" stroke="midnightblue" d="M1194.65,-114.49C1155.11,-105.4 1082.87,-88.8 1035.15,-77.83"/>
<polygon fill="midnightblue" stroke="midnightblue" points="1035.88,-74.41 1025.36,-75.58 1034.32,-81.23 1035.88,-74.41"/>
</g>
<!-- Node21&#45;&gt;Node16 -->
<g id="edge37" class="edge">
<title>Node21&#45;&gt;Node16</title>
<path fill="none" stroke="midnightblue" d="M1213.74,-112.37C1193.84,-93.81 1146.74,-49.91 1121.56,-26.44"/>
<polygon fill="midnightblue" stroke="midnightblue" points="1123.92,-23.85 1114.22,-19.59 1119.14,-28.97 1123.92,-23.85"/>
</g>
<!-- Node22&#45;&gt;Node1 -->
<g id="edge42" class="edge">
<title>Node22&#45;&gt;Node1</title>
<path fill="none" stroke="midnightblue" d="M276.73,-187.68C311.15,-209.14 404.37,-265.47 488,-300 522.3,-314.16 562.65,-325.95 593.01,-333.91"/>
<polygon fill="midnightblue" stroke="midnightblue" points="592.34,-337.35 602.9,-336.45 594.09,-330.57 592.34,-337.35"/>
</g>
<!-- Node22&#45;&gt;Node4 -->
<g id="edge40" class="edge">
<title>Node22&#45;&gt;Node4</title>
<path fill="none" stroke="midnightblue" d="M286.4,-187.52C322.66,-200.58 394.75,-225.91 457,-244 502,-257.08 553.94,-269.68 590.79,-278.2"/>
<polygon fill="midnightblue" stroke="midnightblue" points="590.24,-281.67 600.77,-280.49 591.8,-274.84 590.24,-281.67"/>
</g>
<!-- Node22&#45;&gt;Node9 -->
<g id="edge41" class="edge">
<title>Node22&#45;&gt;Node9</title>
<path fill="none" stroke="midnightblue" d="M317.98,-168.44C379.66,-158.85 479.61,-143.29 545.07,-133.1"/>
<polygon fill="midnightblue" stroke="midnightblue" points="545.93,-136.51 555.27,-131.52 544.85,-129.6 545.93,-136.51"/>
</g>
<!-- Node22&#45;&gt;Node18 -->
<g id="edge43" class="edge">
<title>Node22&#45;&gt;Node18</title>
<path fill="none" stroke="midnightblue" d="M285.18,-168.44C308.43,-159.48 345.15,-145.31 371.42,-135.18"/>
<polygon fill="midnightblue" stroke="midnightblue" points="372.85,-138.38 380.92,-131.52 370.33,-131.85 372.85,-138.38"/>
</g>
<!-- Node23&#45;&gt;Node1 -->
<g id="edge47" class="edge">
<title>Node23&#45;&gt;Node1</title>
<path fill="none" stroke="midnightblue" d="M408.89,-187.61C424.23,-209.41 467.65,-267.36 517,-300 540.15,-315.31 569.2,-326.29 593.15,-333.57"/>
<polygon fill="midnightblue" stroke="midnightblue" points="592.48,-337.03 603.06,-336.47 594.45,-330.31 592.48,-337.03"/>
</g>
<!-- Node23&#45;&gt;Node4 -->
<g id="edge45" class="edge">
<title>Node23&#45;&gt;Node4</title>
<path fill="none" stroke="midnightblue" d="M412.69,-187.79C428.31,-201.56 460.52,-228.25 492,-244 522.64,-259.33 559.51,-270.6 588.66,-278.03"/>
<polygon fill="midnightblue" stroke="midnightblue" points="588.08,-281.49 598.63,-280.5 589.76,-274.7 588.08,-281.49"/>
</g>
<!-- Node23&#45;&gt;Node9 -->
<g id="edge46" class="edge">
<title>Node23&#45;&gt;Node9</title>
<path fill="none" stroke="midnightblue" d="M435.8,-168.44C471.38,-159.16 528.31,-144.31 567.35,-134.13"/>
<polygon fill="midnightblue" stroke="midnightblue" points="568.56,-137.43 577.35,-131.52 566.79,-130.65 568.56,-137.43"/>
</g>
<!-- Node23&#45;&gt;Node18 -->
<g id="edge48" class="edge">
<title>Node23&#45;&gt;Node18</title>
<path fill="none" stroke="midnightblue" d="M403,-168.08C403,-161.01 403,-150.86 403,-141.99"/>
<polygon fill="midnightblue" stroke="midnightblue" points="406.5,-141.75 403,-131.75 399.5,-141.75 406.5,-141.75"/>
</g>
<!-- Node24&#45;&gt;Node1 -->
<g id="edge52" class="edge">
<title>Node24&#45;&gt;Node1</title>
<path fill="none" stroke="midnightblue" d="M517.22,-187.67C503.3,-199.98 481.98,-223.34 492,-244 513.98,-289.33 567.4,-317.84 603.42,-332.6"/>
<polygon fill="midnightblue" stroke="midnightblue" points="602.49,-335.99 613.07,-336.4 605.05,-329.48 602.49,-335.99"/>
</g>
<!-- Node24&#45;&gt;Node4 -->
<g id="edge50" class="edge">
<title>Node24&#45;&gt;Node4</title>
<path fill="none" stroke="midnightblue" d="M538.94,-187.55C549.93,-196.31 567.18,-210.51 581,-224 596.98,-239.6 613.82,-258.82 625.22,-272.31"/>
<polygon fill="midnightblue" stroke="midnightblue" points="622.75,-274.82 631.85,-280.24 628.12,-270.33 622.75,-274.82"/>
</g>
<!-- Node24&#45;&gt;Node9 -->
<g id="edge51" class="edge">
<title>Node24&#45;&gt;Node9</title>
<path fill="none" stroke="midnightblue" d="M541.17,-168.32C553.85,-159.98 573.23,-147.21 588.21,-137.35"/>
<polygon fill="midnightblue" stroke="midnightblue" points="590.43,-140.08 596.86,-131.65 586.58,-134.23 590.43,-140.08"/>
</g>
<!-- Node24&#45;&gt;Node18 -->
<g id="edge53" class="edge">
<title>Node24&#45;&gt;Node18</title>
<path fill="none" stroke="midnightblue" d="M508.19,-168.44C487.71,-159.6 455.52,-145.69 432.14,-135.59"/>
<polygon fill="midnightblue" stroke="midnightblue" points="433.28,-132.27 422.71,-131.52 430.51,-138.7 433.28,-132.27"/>
</g>
<!-- Node25&#45;&gt;Node1 -->
<g id="edge57" class="edge">
<title>Node25&#45;&gt;Node1</title>
<path fill="none" stroke="midnightblue" d="M953.3,-187.54C917.84,-208.01 824.59,-261.06 744,-300 719.49,-311.84 691.08,-323.92 669.99,-332.58"/>
<polygon fill="midnightblue" stroke="midnightblue" points="668.51,-329.41 660.57,-336.42 671.15,-335.89 668.51,-329.41"/>
</g>
<!-- Node25&#45;&gt;Node4 -->
<g id="edge55" class="edge">
<title>Node25&#45;&gt;Node4</title>
<path fill="none" stroke="midnightblue" d="M935.23,-187.54C904.39,-195.86 857.09,-209.37 817,-224 796.06,-231.64 791.79,-235.95 771,-244 739.17,-256.32 702.36,-268.72 675.71,-277.37"/>
<polygon fill="midnightblue" stroke="midnightblue" points="674.47,-274.1 666.03,-280.5 676.62,-280.76 674.47,-274.1"/>
</g>
<!-- Node25&#45;&gt;Node9 -->
<g id="edge56" class="edge">
<title>Node25&#45;&gt;Node9</title>
<path fill="none" stroke="midnightblue" d="M920.95,-169.4C917.92,-168.92 914.92,-168.45 912,-168 831.86,-155.59 739.65,-141.94 678.42,-132.97"/>
<polygon fill="midnightblue" stroke="midnightblue" points="678.89,-129.5 668.49,-131.51 677.88,-136.43 678.89,-129.5"/>
</g>
</g>
</svg>
