<?xml version="1.0" encoding="UTF-8" standalone="no"?>
<!DOCTYPE svg PUBLIC "-//W3C//DTD SVG 1.1//EN"
 "http://www.w3.org/Graphics/SVG/1.1/DTD/svg11.dtd">
<!-- Generated by graphviz version 3.0.0 (20220413.0242)
 -->
<!-- Title: model/block.hpp Pages: 1 -->
<svg width="825pt" height="364pt"
 viewBox="0.00 0.00 824.50 364.00" xmlns="http://www.w3.org/2000/svg" xmlns:xlink="http://www.w3.org/1999/xlink">
<g id="graph0" class="graph" transform="scale(1 1) rotate(0) translate(4 360)">
<title>model/block.hpp</title>
<!-- Node1 -->
<g id="node1" class="node">
<title>Node1</title>
<g id="a_node1"><a xlink:title="MODEL::Block source file.">
<polygon fill="#bfbfbf" stroke="black" points="539.5,-336.5 539.5,-355.5 626.5,-355.5 626.5,-336.5 539.5,-336.5"/>
<text text-anchor="middle" x="583" y="-343.5" font-family="Helvetica,sans-Serif" font-size="10.00">model/block.hpp</text>
</a>
</g>
</g>
<!-- Node2 -->
<g id="node2" class="node">
<title>Node2</title>
<g id="a_node2"><a xlink:href="bloodvessel_8hpp.html" target="_top" xlink:title="MODEL::BloodVessel source file.">
<polygon fill="none" stroke="black" points="439,-280.5 439,-299.5 555,-299.5 555,-280.5 439,-280.5"/>
<text text-anchor="middle" x="497" y="-287.5" font-family="Helvetica,sans-Serif" font-size="10.00">model/bloodvessel.hpp</text>
</a>
</g>
</g>
<!-- Node1&#45;&gt;Node2 -->
<g id="edge1" class="edge">
<title>Node1&#45;&gt;Node2</title>
<path fill="none" stroke="midnightblue" d="M560.55,-330.9C544.78,-321 524.19,-308.07 510.78,-299.65"/>
<polygon fill="midnightblue" stroke="midnightblue" points="558.85,-333.97 569.18,-336.32 562.57,-328.04 558.85,-333.97"/>
</g>
<!-- Node7 -->
<g id="node7" class="node">
<title>Node7</title>
<g id="a_node7"><a xlink:href="flowreference_8hpp.html" target="_top" xlink:title="MODEL::FlowReference source file.">
<polygon fill="none" stroke="black" points="346,-112.5 346,-131.5 468,-131.5 468,-112.5 346,-112.5"/>
<text text-anchor="middle" x="407" y="-119.5" font-family="Helvetica,sans-Serif" font-size="10.00">model/flowreference.hpp</text>
</a>
</g>
</g>
<!-- Node1&#45;&gt;Node7 -->
<g id="edge24" class="edge">
<title>Node1&#45;&gt;Node7</title>
<path fill="none" stroke="midnightblue" d="M529.06,-343.39C495.52,-339.38 454.28,-328.43 430,-300 386.93,-249.58 399.79,-159.77 405.18,-131.66"/>
<polygon fill="midnightblue" stroke="midnightblue" points="528.9,-346.89 539.2,-344.43 529.61,-339.93 528.9,-346.89"/>
</g>
<!-- Node8 -->
<g id="node8" class="node">
<title>Node8</title>
<g id="a_node8"><a xlink:href="junction_8hpp.html" target="_top" xlink:title="MODEL::Junction source file.">
<polygon fill="none" stroke="black" points="486,-112.5 486,-131.5 584,-131.5 584,-112.5 486,-112.5"/>
<text text-anchor="middle" x="535" y="-119.5" font-family="Helvetica,sans-Serif" font-size="10.00">model/junction.hpp</text>
</a>
</g>
</g>
<!-- Node1&#45;&gt;Node8 -->
<g id="edge25" class="edge">
<title>Node1&#45;&gt;Node8</title>
<path fill="none" stroke="midnightblue" d="M592.51,-327.16C608.95,-293.65 638.25,-220.01 609,-168 598.98,-150.18 578.72,-138.59 561.93,-131.64"/>
<polygon fill="midnightblue" stroke="midnightblue" points="589.32,-325.7 587.9,-336.2 595.56,-328.88 589.32,-325.7"/>
</g>
<!-- Node10 -->
<g id="node10" class="node">
<title>Node10</title>
<g id="a_node10"><a xlink:href="rcrblockwithdistalpressure_8hpp.html" target="_top" xlink:title="MODEL::RCRBlockWithDistalPressure source file.">
<polygon fill="none" stroke="black" points="639.5,-112.5 639.5,-131.5 816.5,-131.5 816.5,-112.5 639.5,-112.5"/>
<text text-anchor="middle" x="728" y="-119.5" font-family="Helvetica,sans-Serif" font-size="10.00">model/rcrblockwithdistalpressure.hpp</text>
</a>
</g>
</g>
<!-- Node1&#45;&gt;Node10 -->
<g id="edge26" class="edge">
<title>Node1&#45;&gt;Node10</title>
<path fill="none" stroke="midnightblue" d="M598.16,-328.9C605.7,-320.56 614.72,-310.05 622,-300 666.33,-238.79 709.6,-158.24 723.44,-131.81"/>
<polygon fill="midnightblue" stroke="midnightblue" points="595.45,-326.69 591.25,-336.41 600.59,-331.43 595.45,-326.69"/>
</g>
<!-- Node3 -->
<g id="node3" class="node">
<title>Node3</title>
<g id="a_node3"><a xlink:href="model_8hpp.html" target="_top" xlink:title="MODEL::Model source file.">
<polygon fill="none" stroke="black" points="286,-224.5 286,-243.5 376,-243.5 376,-224.5 286,-224.5"/>
<text text-anchor="middle" x="331" y="-231.5" font-family="Helvetica,sans-Serif" font-size="10.00">model/model.hpp</text>
</a>
</g>
</g>
<!-- Node2&#45;&gt;Node3 -->
<g id="edge2" class="edge">
<title>Node2&#45;&gt;Node3</title>
<path fill="none" stroke="midnightblue" d="M461.05,-277.3C429.77,-267.13 385.18,-252.62 357.18,-243.52"/>
<polygon fill="midnightblue" stroke="midnightblue" points="460.1,-280.68 470.7,-280.44 462.27,-274.02 460.1,-280.68"/>
</g>
<!-- Node4 -->
<g id="node4" class="node">
<title>Node4</title>
<g id="a_node4"><a xlink:href="integrator_8hpp.html" target="_top" xlink:title="ALGEBRA::Integrator source file.">
<polygon fill="none" stroke="black" points="0,-56.5 0,-75.5 110,-75.5 110,-56.5 0,-56.5"/>
<text text-anchor="middle" x="55" y="-63.5" font-family="Helvetica,sans-Serif" font-size="10.00">algebra/integrator.hpp</text>
</a>
</g>
</g>
<!-- Node3&#45;&gt;Node4 -->
<g id="edge3" class="edge">
<title>Node3&#45;&gt;Node4</title>
<path fill="none" stroke="midnightblue" d="M275.8,-232.98C230.96,-230.34 168.14,-220.41 124,-188 83.84,-158.52 63.64,-98.13 57.27,-75.67"/>
<polygon fill="midnightblue" stroke="midnightblue" points="275.78,-236.48 285.94,-233.47 276.12,-229.49 275.78,-236.48"/>
</g>
<!-- Node5 -->
<g id="node5" class="node">
<title>Node5</title>
<g id="a_node5"><a xlink:href="main_8cpp.html" target="_top" xlink:title="Main routine of svZeroDSolver.">
<polygon fill="none" stroke="black" points="216,-0.5 216,-19.5 272,-19.5 272,-0.5 216,-0.5"/>
<text text-anchor="middle" x="244" y="-7.5" font-family="Helvetica,sans-Serif" font-size="10.00">main.cpp</text>
</a>
</g>
</g>
<!-- Node3&#45;&gt;Node5 -->
<g id="edge23" class="edge">
<title>Node3&#45;&gt;Node5</title>
<path fill="none" stroke="midnightblue" d="M275.79,-226.1C230.5,-219.17 171.56,-206.81 157,-188 112.56,-130.6 201.39,-46.89 233.23,-19.8"/>
<polygon fill="midnightblue" stroke="midnightblue" points="275.4,-229.58 285.8,-227.58 276.42,-222.66 275.4,-229.58"/>
</g>
<!-- Node6 -->
<g id="node6" class="node">
<title>Node6</title>
<g id="a_node6"><a xlink:href="sparsesystem_8hpp.html" target="_top" xlink:title="ALGEBRA::SparseSystem source file.">
<polygon fill="none" stroke="black" points="470,-168.5 470,-187.5 600,-187.5 600,-168.5 470,-168.5"/>
<text text-anchor="middle" x="535" y="-175.5" font-family="Helvetica,sans-Serif" font-size="10.00">algebra/sparsesystem.hpp</text>
</a>
</g>
</g>
<!-- Node3&#45;&gt;Node6 -->
<g id="edge5" class="edge">
<title>Node3&#45;&gt;Node6</title>
<path fill="none" stroke="midnightblue" d="M368.08,-221.7C404.91,-211.51 460.86,-196.74 497.75,-187.52"/>
<polygon fill="midnightblue" stroke="midnightblue" points="366.93,-218.39 358.24,-224.44 368.81,-225.13 366.93,-218.39"/>
</g>
<!-- Node9 -->
<g id="node9" class="node">
<title>Node9</title>
<g id="a_node9"><a xlink:href="configreader_8hpp.html" target="_top" xlink:title="IO::ConfigReader source file.">
<polygon fill="none" stroke="black" points="342,-56.5 342,-75.5 440,-75.5 440,-56.5 342,-56.5"/>
<text text-anchor="middle" x="391" y="-63.5" font-family="Helvetica,sans-Serif" font-size="10.00">io/configreader.hpp</text>
</a>
</g>
</g>
<!-- Node3&#45;&gt;Node9 -->
<g id="edge18" class="edge">
<title>Node3&#45;&gt;Node9</title>
<path fill="none" stroke="midnightblue" d="M327.5,-214.29C323.8,-189.47 320.55,-144.97 337,-112 345.06,-95.84 361.85,-83.32 374.58,-75.64"/>
<polygon fill="midnightblue" stroke="midnightblue" points="324.05,-214.91 329.16,-224.19 330.96,-213.75 324.05,-214.91"/>
</g>
<!-- Node11 -->
<g id="node11" class="node">
<title>Node11</title>
<g id="a_node11"><a xlink:href="csvwriter_8hpp.html" target="_top" xlink:title="IO::write_csv source file.">
<polygon fill="none" stroke="black" points="166.5,-168.5 166.5,-187.5 251.5,-187.5 251.5,-168.5 166.5,-168.5"/>
<text text-anchor="middle" x="209" y="-175.5" font-family="Helvetica,sans-Serif" font-size="10.00">io/csvwriter.hpp</text>
</a>
</g>
</g>
<!-- Node3&#45;&gt;Node11 -->
<g id="edge19" class="edge">
<title>Node3&#45;&gt;Node11</title>
<path fill="none" stroke="midnightblue" d="M302.46,-220.37C279.61,-210.26 248.19,-196.35 228.24,-187.52"/>
<polygon fill="midnightblue" stroke="midnightblue" points="301.11,-223.6 311.67,-224.44 303.94,-217.2 301.11,-223.6"/>
</g>
<!-- Node12 -->
<g id="node12" class="node">
<title>Node12</title>
<g id="a_node12"><a xlink:href="jsonwriter_8hpp.html" target="_top" xlink:title="IO::write_json source file.">
<polygon fill="none" stroke="black" points="236.5,-56.5 236.5,-75.5 323.5,-75.5 323.5,-56.5 236.5,-56.5"/>
<text text-anchor="middle" x="280" y="-63.5" font-family="Helvetica,sans-Serif" font-size="10.00">io/jsonwriter.hpp</text>
</a>
</g>
</g>
<!-- Node3&#45;&gt;Node12 -->
<g id="edge21" class="edge">
<title>Node3&#45;&gt;Node12</title>
<path fill="none" stroke="midnightblue" d="M318.88,-215.98C313.6,-207.85 307.77,-197.78 304,-188 288.51,-147.84 282.55,-96.15 280.7,-75.79"/>
<polygon fill="midnightblue" stroke="midnightblue" points="316.16,-218.2 324.67,-224.5 321.94,-214.26 316.16,-218.2"/>
</g>
<!-- Node4&#45;&gt;Node5 -->
<g id="edge4" class="edge">
<title>Node4&#45;&gt;Node5</title>
<path fill="none" stroke="midnightblue" d="M94.7,-53.66C130.94,-43.3 183.61,-28.25 215.74,-19.08"/>
<polygon fill="midnightblue" stroke="midnightblue" points="93.6,-50.33 84.95,-56.44 95.52,-57.06 93.6,-50.33"/>
</g>
<!-- Node6&#45;&gt;Node1 -->
<g id="edge7" class="edge">
<title>Node6&#45;&gt;Node1</title>
<path fill="none" stroke="midnightblue" d="M540.37,-197.58C550.68,-233.21 572.86,-309.95 580.42,-336.08"/>
<polygon fill="midnightblue" stroke="midnightblue" points="543.62,-196.2 537.48,-187.57 536.89,-198.15 543.62,-196.2"/>
</g>
<!-- Node6&#45;&gt;Node2 -->
<g id="edge8" class="edge">
<title>Node6&#45;&gt;Node2</title>
<path fill="none" stroke="midnightblue" d="M528.69,-197.27C520.39,-221.3 506.14,-262.54 499.98,-280.37"/>
<polygon fill="midnightblue" stroke="midnightblue" points="532.07,-198.19 532.03,-187.59 525.46,-195.9 532.07,-198.19"/>
</g>
<!-- Node6&#45;&gt;Node3 -->
<g id="edge15" class="edge">
<title>Node6&#45;&gt;Node3</title>
<path fill="none" stroke="midnightblue" d="M498.08,-190.26C461.31,-200.44 405.36,-215.2 368.41,-224.44"/>
<polygon fill="midnightblue" stroke="midnightblue" points="499.21,-193.57 507.91,-187.52 497.33,-186.83 499.21,-193.57"/>
</g>
<!-- Node6&#45;&gt;Node5 -->
<g id="edge6" class="edge">
<title>Node6&#45;&gt;Node5</title>
<path fill="none" stroke="midnightblue" d="M561.83,-163.25C582.7,-150.67 606.09,-131.14 593,-112 555.92,-57.79 348.22,-24.94 272.03,-14.57"/>
<polygon fill="midnightblue" stroke="midnightblue" points="559.81,-160.37 552.86,-168.36 563.28,-166.46 559.81,-160.37"/>
</g>
<!-- Node6&#45;&gt;Node7 -->
<g id="edge9" class="edge">
<title>Node6&#45;&gt;Node7</title>
<path fill="none" stroke="midnightblue" d="M505.38,-164.5C481.38,-154.38 448.22,-140.39 427.19,-131.52"/>
<polygon fill="midnightblue" stroke="midnightblue" points="504.14,-167.78 514.72,-168.44 506.86,-161.33 504.14,-167.78"/>
</g>
<!-- Node6&#45;&gt;Node8 -->
<g id="edge11" class="edge">
<title>Node6&#45;&gt;Node8</title>
<path fill="none" stroke="midnightblue" d="M535,-157.8C535,-148.91 535,-138.78 535,-131.75"/>
<polygon fill="midnightblue" stroke="midnightblue" points="531.5,-158.08 535,-168.08 538.5,-158.08 531.5,-158.08"/>
</g>
<!-- Node6&#45;&gt;Node10 -->
<g id="edge16" class="edge">
<title>Node6&#45;&gt;Node10</title>
<path fill="none" stroke="midnightblue" d="M575.39,-165.7C611.82,-155.51 664.59,-140.74 697.56,-131.52"/>
<polygon fill="midnightblue" stroke="midnightblue" points="574.27,-162.38 565.58,-168.44 576.15,-169.12 574.27,-162.38"/>
</g>
<!-- Node7&#45;&gt;Node3 -->
<g id="edge10" class="edge">
<title>Node7&#45;&gt;Node3</title>
<path fill="none" stroke="midnightblue" d="M395.26,-139.99C378.81,-163.8 349.51,-206.22 336.96,-224.37"/>
<polygon fill="midnightblue" stroke="midnightblue" points="398.26,-141.81 401.06,-131.59 392.5,-137.83 398.26,-141.81"/>
</g>
<!-- Node8&#45;&gt;Node3 -->
<g id="edge14" class="edge">
<title>Node8&#45;&gt;Node3</title>
<path fill="none" stroke="midnightblue" d="M510.22,-136.36C467.81,-159.23 382.46,-205.25 347.01,-224.37"/>
<polygon fill="midnightblue" stroke="midnightblue" points="511.93,-139.42 519.07,-131.59 508.6,-133.26 511.93,-139.42"/>
</g>
<!-- Node8&#45;&gt;Node9 -->
<g id="edge12" class="edge">
<title>Node8&#45;&gt;Node9</title>
<path fill="none" stroke="midnightblue" d="M502.75,-108.91C475.68,-98.75 437.68,-84.51 413.71,-75.52"/>
<polygon fill="midnightblue" stroke="midnightblue" points="501.59,-112.21 512.18,-112.44 504.05,-105.66 501.59,-112.21"/>
</g>
<!-- Node9&#45;&gt;Node5 -->
<g id="edge13" class="edge">
<title>Node9&#45;&gt;Node5</title>
<path fill="none" stroke="midnightblue" d="M358.08,-52.91C330.44,-42.75 291.66,-28.51 267.18,-19.52"/>
<polygon fill="midnightblue" stroke="midnightblue" points="357.11,-56.28 367.71,-56.44 359.53,-49.71 357.11,-56.28"/>
</g>
<!-- Node10&#45;&gt;Node3 -->
<g id="edge17" class="edge">
<title>Node10&#45;&gt;Node3</title>
<path fill="none" stroke="midnightblue" d="M707.24,-137.2C684.25,-152.23 645.6,-175.46 609,-188 529.91,-215.11 432.44,-226.08 376.43,-230.38"/>
<polygon fill="midnightblue" stroke="midnightblue" points="709.41,-139.96 715.8,-131.51 705.54,-134.13 709.41,-139.96"/>
</g>
<!-- Node11&#45;&gt;Node5 -->
<g id="edge20" class="edge">
<title>Node11&#45;&gt;Node5</title>
<path fill="none" stroke="midnightblue" d="M210.54,-158.19C212.8,-134.18 217.77,-91.5 227,-56 230.36,-43.07 236.16,-28.72 240.04,-19.78"/>
<polygon fill="midnightblue" stroke="midnightblue" points="207.04,-158.1 209.65,-168.37 214.01,-158.71 207.04,-158.1"/>
</g>
<!-- Node12&#45;&gt;Node5 -->
<g id="edge22" class="edge">
<title>Node12&#45;&gt;Node5</title>
<path fill="none" stroke="midnightblue" d="M268.38,-47.57C262.18,-38.27 254.83,-27.25 249.83,-19.75"/>
<polygon fill="midnightblue" stroke="midnightblue" points="265.6,-49.7 274.06,-56.08 271.42,-45.82 265.6,-49.7"/>
</g>
</g>
</svg>
