<?xml version="1.0" encoding="UTF-8" standalone="no"?>
<!DOCTYPE svg PUBLIC "-//W3C//DTD SVG 1.1//EN"
 "http://www.w3.org/Graphics/SVG/1.1/DTD/svg11.dtd">
<!-- Generated by graphviz version 3.0.0 (20220413.0242)
 -->
<!-- Title: model/block.hpp Pages: 1 -->
<svg width="896pt" height="364pt"
 viewBox="0.00 0.00 896.00 364.00" xmlns="http://www.w3.org/2000/svg" xmlns:xlink="http://www.w3.org/1999/xlink">
<g id="graph0" class="graph" transform="scale(1 1) rotate(0) translate(4 360)">
<title>model/block.hpp</title>
<!-- Node1 -->
<g id="node1" class="node">
<title>Node1</title>
<g id="a_node1"><a xlink:title="MODEL::Block source file.">
<polygon fill="#bfbfbf" stroke="black" points="532.5,-336.5 532.5,-355.5 619.5,-355.5 619.5,-336.5 532.5,-336.5"/>
<text text-anchor="middle" x="576" y="-343.5" font-family="Helvetica,sans-Serif" font-size="10.00">model/block.hpp</text>
</a>
</g>
</g>
<!-- Node2 -->
<g id="node2" class="node">
<title>Node2</title>
<g id="a_node2"><a xlink:title=" ">
<polygon fill="none" stroke="#bfbfbf" points="334,-0.5 334,-19.5 378,-19.5 378,-0.5 334,-0.5"/>
<text text-anchor="middle" x="356" y="-7.5" font-family="Helvetica,sans-Serif" font-size="10.00">vector</text>
</a>
</g>
</g>
<!-- Node1&#45;&gt;Node2 -->
<g id="edge1" class="edge">
<title>Node1&#45;&gt;Node2</title>
<path fill="none" stroke="midnightblue" d="M619.71,-338.93C705.58,-325.78 888,-291.21 888,-235 888,-235 888,-235 888,-121 888,-18.44 504.04,-10.75 388.5,-10.76"/>
<polygon fill="midnightblue" stroke="midnightblue" points="388.17,-7.26 378.18,-10.78 388.19,-14.26 388.17,-7.26"/>
</g>
<!-- Node3 -->
<g id="node3" class="node">
<title>Node3</title>
<g id="a_node3"><a xlink:title=" ">
<polygon fill="none" stroke="#bfbfbf" points="94.5,-168.5 94.5,-187.5 129.5,-187.5 129.5,-168.5 94.5,-168.5"/>
<text text-anchor="middle" x="112" y="-175.5" font-family="Helvetica,sans-Serif" font-size="10.00">map</text>
</a>
</g>
</g>
<!-- Node1&#45;&gt;Node3 -->
<g id="edge2" class="edge">
<title>Node1&#45;&gt;Node3</title>
<path fill="none" stroke="midnightblue" d="M532.37,-342.08C454.29,-336.37 294.06,-322.29 243,-300 190.23,-276.96 145,-223.54 124.2,-196.04"/>
<polygon fill="midnightblue" stroke="midnightblue" points="126.86,-193.75 118.11,-187.78 121.23,-197.91 126.86,-193.75"/>
</g>
<!-- Node4 -->
<g id="node4" class="node">
<title>Node4</title>
<g id="a_node4"><a xlink:href="node_8hpp.html" target="_top" xlink:title="MODEL::Node source file.">
<polygon fill="none" stroke="black" points="0,-112.5 0,-131.5 56,-131.5 56,-112.5 0,-112.5"/>
<text text-anchor="middle" x="28" y="-119.5" font-family="Helvetica,sans-Serif" font-size="10.00">node.hpp</text>
</a>
</g>
</g>
<!-- Node1&#45;&gt;Node4 -->
<g id="edge3" class="edge">
<title>Node1&#45;&gt;Node4</title>
<path fill="none" stroke="midnightblue" d="M532.13,-344.32C412.38,-342.03 86.47,-332.82 52,-300 8.43,-258.52 17.11,-178.26 23.87,-141.82"/>
<polygon fill="midnightblue" stroke="midnightblue" points="27.38,-142.12 25.93,-131.63 20.52,-140.74 27.38,-142.12"/>
</g>
<!-- Node6 -->
<g id="node6" class="node">
<title>Node6</title>
<g id="a_node6"><a xlink:href="dofhandler_8hpp.html" target="_top" xlink:title="MODEL::DOFHandler source file.">
<polygon fill="none" stroke="black" points="201,-56.5 201,-75.5 281,-75.5 281,-56.5 201,-56.5"/>
<text text-anchor="middle" x="241" y="-63.5" font-family="Helvetica,sans-Serif" font-size="10.00">dofhandler.hpp</text>
</a>
</g>
</g>
<!-- Node1&#45;&gt;Node6 -->
<g id="edge8" class="edge">
<title>Node1&#45;&gt;Node6</title>
<path fill="none" stroke="midnightblue" d="M532.3,-343.04C447.17,-338.69 262.38,-326.43 205,-300 139.03,-269.61 114.38,-254.85 86,-188 62.39,-132.38 145.51,-95.84 199.07,-78.57"/>
<polygon fill="midnightblue" stroke="midnightblue" points="200.19,-81.89 208.69,-75.57 198.1,-75.21 200.19,-81.89"/>
</g>
<!-- Node7 -->
<g id="node7" class="node">
<title>Node7</title>
<g id="a_node7"><a xlink:href="densesystem_8hpp.html" target="_top" xlink:title="ALGEBRA::DenseSystem source file.">
<polygon fill="none" stroke="black" points="544,-112.5 544,-131.5 678,-131.5 678,-112.5 544,-112.5"/>
<text text-anchor="middle" x="611" y="-119.5" font-family="Helvetica,sans-Serif" font-size="10.00">../algebra/densesystem.hpp</text>
</a>
</g>
</g>
<!-- Node1&#45;&gt;Node7 -->
<g id="edge9" class="edge">
<title>Node1&#45;&gt;Node7</title>
<path fill="none" stroke="midnightblue" d="M611.62,-336.38C671.4,-319.67 789.45,-276.47 831,-188 834.78,-179.95 836.62,-174.89 831,-168 813.04,-146 744.28,-134.47 688.35,-128.61"/>
<polygon fill="midnightblue" stroke="midnightblue" points="688.37,-125.1 678.07,-127.58 687.67,-132.06 688.37,-125.1"/>
</g>
<!-- Node9 -->
<g id="node9" class="node">
<title>Node9</title>
<g id="a_node9"><a xlink:href="sparsesystem_8hpp.html" target="_top" xlink:title="ALGEBRA::SparseSystem source file.">
<polygon fill="none" stroke="black" points="404.5,-280.5 404.5,-299.5 541.5,-299.5 541.5,-280.5 404.5,-280.5"/>
<text text-anchor="middle" x="473" y="-287.5" font-family="Helvetica,sans-Serif" font-size="10.00">../algebra/sparsesystem.hpp</text>
</a>
</g>
</g>
<!-- Node1&#45;&gt;Node9 -->
<g id="edge11" class="edge">
<title>Node1&#45;&gt;Node9</title>
<path fill="none" stroke="midnightblue" d="M559.45,-336.32C543.01,-327.7 517.57,-314.36 498.53,-304.39"/>
<polygon fill="midnightblue" stroke="midnightblue" points="499.99,-301.2 489.51,-299.65 496.74,-307.4 499.99,-301.2"/>
</g>
<!-- Node5 -->
<g id="node5" class="node">
<title>Node5</title>
<g id="a_node5"><a xlink:title=" ">
<polygon fill="none" stroke="#bfbfbf" points="140.5,-0.5 140.5,-19.5 181.5,-19.5 181.5,-0.5 140.5,-0.5"/>
<text text-anchor="middle" x="161" y="-7.5" font-family="Helvetica,sans-Serif" font-size="10.00">string</text>
</a>
</g>
</g>
<!-- Node4&#45;&gt;Node5 -->
<g id="edge4" class="edge">
<title>Node4&#45;&gt;Node5</title>
<path fill="none" stroke="midnightblue" d="M38.44,-112.37C60.97,-93.73 114.41,-49.53 142.7,-26.13"/>
<polygon fill="midnightblue" stroke="midnightblue" points="145.14,-28.66 150.61,-19.59 140.68,-23.27 145.14,-28.66"/>
</g>
<!-- Node4&#45;&gt;Node6 -->
<g id="edge5" class="edge">
<title>Node4&#45;&gt;Node6</title>
<path fill="none" stroke="midnightblue" d="M56.28,-113.83C92.43,-104.67 155.36,-88.71 197.59,-78"/>
<polygon fill="midnightblue" stroke="midnightblue" points="198.49,-81.39 207.33,-75.54 196.77,-74.6 198.49,-81.39"/>
</g>
<!-- Node6&#45;&gt;Node2 -->
<g id="edge6" class="edge">
<title>Node6&#45;&gt;Node2</title>
<path fill="none" stroke="midnightblue" d="M259.22,-56.44C277.9,-47.68 307.16,-33.94 328.62,-23.86"/>
<polygon fill="midnightblue" stroke="midnightblue" points="330.3,-26.93 337.86,-19.52 327.32,-20.6 330.3,-26.93"/>
</g>
<!-- Node6&#45;&gt;Node5 -->
<g id="edge7" class="edge">
<title>Node6&#45;&gt;Node5</title>
<path fill="none" stroke="midnightblue" d="M228.15,-56.32C215.78,-47.98 196.87,-35.21 182.26,-25.35"/>
<polygon fill="midnightblue" stroke="midnightblue" points="184.07,-22.35 173.82,-19.65 180.15,-28.15 184.07,-22.35"/>
</g>
<!-- Node8 -->
<g id="node8" class="node">
<title>Node8</title>
<g id="a_node8"><a xlink:title=" ">
<polygon fill="none" stroke="#bfbfbf" points="575.5,-56.5 575.5,-75.5 646.5,-75.5 646.5,-56.5 575.5,-56.5"/>
<text text-anchor="middle" x="611" y="-63.5" font-family="Helvetica,sans-Serif" font-size="10.00">Eigen/Dense</text>
</a>
</g>
</g>
<!-- Node7&#45;&gt;Node8 -->
<g id="edge10" class="edge">
<title>Node7&#45;&gt;Node8</title>
<path fill="none" stroke="midnightblue" d="M611,-112.08C611,-105.01 611,-94.86 611,-85.99"/>
<polygon fill="midnightblue" stroke="midnightblue" points="614.5,-85.75 611,-75.75 607.5,-85.75 614.5,-85.75"/>
</g>
<!-- Node10 -->
<g id="node10" class="node">
<title>Node10</title>
<g id="a_node10"><a xlink:title=" ">
<polygon fill="none" stroke="#bfbfbf" points="540,-224.5 540,-243.5 614,-243.5 614,-224.5 540,-224.5"/>
<text text-anchor="middle" x="577" y="-231.5" font-family="Helvetica,sans-Serif" font-size="10.00">Eigen/Sparse</text>
</a>
</g>
</g>
<!-- Node9&#45;&gt;Node10 -->
<g id="edge12" class="edge">
<title>Node9&#45;&gt;Node10</title>
<path fill="none" stroke="midnightblue" d="M489.71,-280.32C506.31,-271.7 532,-258.36 551.22,-248.39"/>
<polygon fill="midnightblue" stroke="midnightblue" points="553.07,-251.37 560.33,-243.65 549.84,-245.16 553.07,-251.37"/>
</g>
<!-- Node11 -->
<g id="node11" class="node">
<title>Node11</title>
<g id="a_node11"><a xlink:title=" ">
<polygon fill="none" stroke="#bfbfbf" points="208,-224.5 208,-243.5 296,-243.5 296,-224.5 208,-224.5"/>
<text text-anchor="middle" x="252" y="-231.5" font-family="Helvetica,sans-Serif" font-size="10.00">Eigen/SparseLU</text>
</a>
</g>
</g>
<!-- Node9&#45;&gt;Node11 -->
<g id="edge13" class="edge">
<title>Node9&#45;&gt;Node11</title>
<path fill="none" stroke="midnightblue" d="M437.98,-280.44C399.75,-271.1 338.43,-256.12 296.74,-245.93"/>
<polygon fill="midnightblue" stroke="midnightblue" points="297.4,-242.49 286.85,-243.52 295.74,-249.29 297.4,-242.49"/>
</g>
<!-- Node12 -->
<g id="node12" class="node">
<title>Node12</title>
<g id="a_node12"><a xlink:title=" ">
<polygon fill="none" stroke="#bfbfbf" points="314,-224.5 314,-243.5 368,-243.5 368,-224.5 314,-224.5"/>
<text text-anchor="middle" x="341" y="-231.5" font-family="Helvetica,sans-Serif" font-size="10.00">iostream</text>
</a>
</g>
</g>
<!-- Node9&#45;&gt;Node12 -->
<g id="edge14" class="edge">
<title>Node9&#45;&gt;Node12</title>
<path fill="none" stroke="midnightblue" d="M452.08,-280.44C430.26,-271.52 395.85,-257.44 371.11,-247.32"/>
<polygon fill="midnightblue" stroke="midnightblue" points="372.4,-244.06 361.82,-243.52 369.75,-250.54 372.4,-244.06"/>
</g>
<!-- Node13 -->
<g id="node13" class="node">
<title>Node13</title>
<g id="a_node13"><a xlink:href="model_8hpp.html" target="_top" xlink:title="MODEL::Model source file.">
<polygon fill="none" stroke="black" points="386,-224.5 386,-243.5 484,-243.5 484,-224.5 386,-224.5"/>
<text text-anchor="middle" x="435" y="-231.5" font-family="Helvetica,sans-Serif" font-size="10.00">../model/model.hpp</text>
</a>
</g>
</g>
<!-- Node9&#45;&gt;Node13 -->
<g id="edge15" class="edge">
<title>Node9&#45;&gt;Node13</title>
<path fill="none" stroke="midnightblue" d="M461.56,-280.08C454.73,-272.61 446.66,-261.72 440.96,-252.52"/>
<polygon fill="midnightblue" stroke="midnightblue" points="443.98,-250.75 436.03,-243.75 437.88,-254.18 443.98,-250.75"/>
</g>
<!-- Node13&#45;&gt;Node3 -->
<g id="edge16" class="edge">
<title>Node13&#45;&gt;Node3</title>
<path fill="none" stroke="midnightblue" d="M385.95,-225.38C382.92,-224.91 379.92,-224.45 377,-224 274.35,-208.27 244.74,-212.72 139.35,-187.69"/>
<polygon fill="midnightblue" stroke="midnightblue" points="140.13,-184.28 129.59,-185.35 138.5,-191.09 140.13,-184.28"/>
</g>
<!-- Node13&#45;&gt;Node4 -->
<g id="edge44" class="edge">
<title>Node13&#45;&gt;Node4</title>
<path fill="none" stroke="midnightblue" d="M403.91,-224.49C374.67,-216.18 329.85,-202.69 292,-188 272.35,-180.38 269.02,-174.59 249,-168 186.51,-147.42 110.84,-134.47 66.22,-128"/>
<polygon fill="midnightblue" stroke="midnightblue" points="66.5,-124.5 56.11,-126.57 65.52,-131.44 66.5,-124.5"/>
</g>
<!-- Node13&#45;&gt;Node6 -->
<g id="edge43" class="edge">
<title>Node13&#45;&gt;Node6</title>
<path fill="none" stroke="midnightblue" d="M400.59,-224.49C377.44,-217.5 347.21,-205.82 325,-188 288.9,-159.04 261.86,-110.55 249.11,-84.62"/>
<polygon fill="midnightblue" stroke="midnightblue" points="252.27,-83.11 244.8,-75.59 245.95,-86.12 252.27,-83.11"/>
</g>
<!-- Node13&#45;&gt;Node7 -->
<g id="edge19" class="edge">
<title>Node13&#45;&gt;Node7</title>
<path fill="none" stroke="midnightblue" d="M438.18,-224.06C443.58,-210.09 455.88,-183.13 475,-168 496.09,-151.31 523.63,-140.69 548.41,-133.99"/>
<polygon fill="midnightblue" stroke="midnightblue" points="549.28,-137.38 558.11,-131.53 547.56,-130.6 549.28,-137.38"/>
</g>
<!-- Node13&#45;&gt;Node9 -->
<g id="edge20" class="edge">
<title>Node13&#45;&gt;Node9</title>
<path fill="none" stroke="midnightblue" d="M446.29,-243.75C453.1,-251.17 461.17,-262.05 466.91,-271.27"/>
<polygon fill="midnightblue" stroke="midnightblue" points="463.92,-273.1 471.89,-280.08 470.01,-269.66 463.92,-273.1"/>
</g>
<!-- Node14 -->
<g id="node14" class="node">
<title>Node14</title>
<g id="a_node14"><a xlink:title=" ">
<polygon fill="none" stroke="#bfbfbf" points="398.5,-168.5 398.5,-187.5 427.5,-187.5 427.5,-168.5 398.5,-168.5"/>
<text text-anchor="middle" x="413" y="-175.5" font-family="Helvetica,sans-Serif" font-size="10.00">list</text>
</a>
</g>
</g>
<!-- Node13&#45;&gt;Node14 -->
<g id="edge17" class="edge">
<title>Node13&#45;&gt;Node14</title>
<path fill="none" stroke="midnightblue" d="M431.37,-224.08C428.39,-216.77 424.07,-206.18 420.38,-197.1"/>
<polygon fill="midnightblue" stroke="midnightblue" points="423.58,-195.69 416.57,-187.75 417.1,-198.33 423.58,-195.69"/>
</g>
<!-- Node15 -->
<g id="node15" class="node">
<title>Node15</title>
<g id="a_node15"><a xlink:title=" ">
<polygon fill="none" stroke="#bfbfbf" points="334,-168.5 334,-187.5 380,-187.5 380,-168.5 334,-168.5"/>
<text text-anchor="middle" x="357" y="-175.5" font-family="Helvetica,sans-Serif" font-size="10.00">variant</text>
</a>
</g>
</g>
<!-- Node13&#45;&gt;Node15 -->
<g id="edge18" class="edge">
<title>Node13&#45;&gt;Node15</title>
<path fill="none" stroke="midnightblue" d="M422.47,-224.32C410.41,-215.98 391.97,-203.21 377.73,-193.35"/>
<polygon fill="midnightblue" stroke="midnightblue" points="379.72,-190.47 369.5,-187.65 375.73,-196.22 379.72,-190.47"/>
</g>
<!-- Node16 -->
<g id="node16" class="node">
<title>Node16</title>
<g id="a_node16"><a xlink:href="junction_8hpp.html" target="_top" xlink:title="MODEL::Junction source file.">
<polygon fill="none" stroke="black" points="588,-168.5 588,-187.5 656,-187.5 656,-168.5 588,-168.5"/>
<text text-anchor="middle" x="622" y="-175.5" font-family="Helvetica,sans-Serif" font-size="10.00">junction.hpp</text>
</a>
</g>
</g>
<!-- Node13&#45;&gt;Node16 -->
<g id="edge21" class="edge">
<title>Node13&#45;&gt;Node16</title>
<path fill="none" stroke="midnightblue" d="M464.63,-224.44C496.5,-215.24 547.33,-200.56 582.56,-190.39"/>
<polygon fill="midnightblue" stroke="midnightblue" points="583.87,-193.65 592.51,-187.52 581.93,-186.93 583.87,-193.65"/>
</g>
<!-- Node17 -->
<g id="node17" class="node">
<title>Node17</title>
<g id="a_node17"><a xlink:href="bloodvessel_8hpp.html" target="_top" xlink:title="MODEL::BloodVessel source file.">
<polygon fill="none" stroke="black" points="484,-168.5 484,-187.5 570,-187.5 570,-168.5 484,-168.5"/>
<text text-anchor="middle" x="527" y="-175.5" font-family="Helvetica,sans-Serif" font-size="10.00">bloodvessel.hpp</text>
</a>
</g>
</g>
<!-- Node13&#45;&gt;Node17 -->
<g id="edge25" class="edge">
<title>Node13&#45;&gt;Node17</title>
<path fill="none" stroke="midnightblue" d="M449.78,-224.32C464.27,-215.82 486.57,-202.73 503.49,-192.8"/>
<polygon fill="midnightblue" stroke="midnightblue" points="505.4,-195.74 512.26,-187.65 501.86,-189.7 505.4,-195.74"/>
</g>
<!-- Node19 -->
<g id="node19" class="node">
<title>Node19</title>
<g id="a_node19"><a xlink:href="rcrblockwithdistalpressure_8hpp.html" target="_top" xlink:title="MODEL::RCRBlockWithDistalPressure source file.">
<polygon fill="none" stroke="black" points="674,-168.5 674,-187.5 822,-187.5 822,-168.5 674,-168.5"/>
<text text-anchor="middle" x="748" y="-175.5" font-family="Helvetica,sans-Serif" font-size="10.00">rcrblockwithdistalpressure.hpp</text>
</a>
</g>
</g>
<!-- Node13&#45;&gt;Node19 -->
<g id="edge30" class="edge">
<title>Node13&#45;&gt;Node19</title>
<path fill="none" stroke="midnightblue" d="M484.25,-224.5C539.58,-214.96 629.38,-199.46 688.57,-189.25"/>
<polygon fill="midnightblue" stroke="midnightblue" points="689.26,-192.69 698.52,-187.54 688.07,-185.79 689.26,-192.69"/>
</g>
<!-- Node20 -->
<g id="node20" class="node">
<title>Node20</title>
<g id="a_node20"><a xlink:href="flowreference_8hpp.html" target="_top" xlink:title="MODEL::FlowReference source file.">
<polygon fill="none" stroke="black" points="148,-168.5 148,-187.5 240,-187.5 240,-168.5 148,-168.5"/>
<text text-anchor="middle" x="194" y="-175.5" font-family="Helvetica,sans-Serif" font-size="10.00">flowreference.hpp</text>
</a>
</g>
</g>
<!-- Node13&#45;&gt;Node20 -->
<g id="edge34" class="edge">
<title>Node13&#45;&gt;Node20</title>
<path fill="none" stroke="midnightblue" d="M396.81,-224.44C354.86,-215.04 287.41,-199.93 241.93,-189.74"/>
<polygon fill="midnightblue" stroke="midnightblue" points="242.53,-186.29 232.01,-187.52 241,-193.12 242.53,-186.29"/>
</g>
<!-- Node16&#45;&gt;Node1 -->
<g id="edge24" class="edge">
<title>Node16&#45;&gt;Node1</title>
<path fill="none" stroke="midnightblue" d="M628.87,-187.8C644.22,-208.61 678.25,-261.95 656,-300 647.14,-315.15 631.09,-325.59 615.69,-332.58"/>
<polygon fill="midnightblue" stroke="midnightblue" points="614.15,-329.43 606.25,-336.49 616.83,-335.89 614.15,-329.43"/>
</g>
<!-- Node16&#45;&gt;Node7 -->
<g id="edge22" class="edge">
<title>Node16&#45;&gt;Node7</title>
<path fill="none" stroke="midnightblue" d="M620.18,-168.08C618.73,-160.93 616.63,-150.64 614.81,-141.69"/>
<polygon fill="midnightblue" stroke="midnightblue" points="618.21,-140.85 612.78,-131.75 611.35,-142.25 618.21,-140.85"/>
</g>
<!-- Node16&#45;&gt;Node9 -->
<g id="edge23" class="edge">
<title>Node16&#45;&gt;Node9</title>
<path fill="none" stroke="midnightblue" d="M625.13,-187.58C629.46,-201.05 635.4,-227.34 623,-244 606.23,-266.54 578.57,-278.21 551.53,-284.12"/>
<polygon fill="midnightblue" stroke="midnightblue" points="550.77,-280.7 541.62,-286.05 552.11,-287.58 550.77,-280.7"/>
</g>
<!-- Node17&#45;&gt;Node1 -->
<g id="edge27" class="edge">
<title>Node17&#45;&gt;Node1</title>
<path fill="none" stroke="midnightblue" d="M568.47,-187.5C588.59,-193.94 610.95,-205.05 623,-224 644.85,-258.37 612.44,-304.5 591.48,-328.67"/>
<polygon fill="midnightblue" stroke="midnightblue" points="588.75,-326.48 584.65,-336.25 593.95,-331.16 588.75,-326.48"/>
</g>
<!-- Node17&#45;&gt;Node7 -->
<g id="edge28" class="edge">
<title>Node17&#45;&gt;Node7</title>
<path fill="none" stroke="midnightblue" d="M540.5,-168.32C553.6,-159.9 573.71,-146.97 589.11,-137.07"/>
<polygon fill="midnightblue" stroke="midnightblue" points="591.02,-140.01 597.54,-131.65 587.23,-134.12 591.02,-140.01"/>
</g>
<!-- Node17&#45;&gt;Node9 -->
<g id="edge29" class="edge">
<title>Node17&#45;&gt;Node9</title>
<path fill="none" stroke="midnightblue" d="M522.78,-187.59C513.97,-205.55 493.44,-247.37 481.68,-271.32"/>
<polygon fill="midnightblue" stroke="midnightblue" points="478.5,-269.85 477.24,-280.37 484.79,-272.93 478.5,-269.85"/>
</g>
<!-- Node18 -->
<g id="node18" class="node">
<title>Node18</title>
<g id="a_node18"><a xlink:title=" ">
<polygon fill="none" stroke="#bfbfbf" points="460,-56.5 460,-75.5 506,-75.5 506,-56.5 460,-56.5"/>
<text text-anchor="middle" x="483" y="-63.5" font-family="Helvetica,sans-Serif" font-size="10.00">math.h</text>
</a>
</g>
</g>
<!-- Node17&#45;&gt;Node18 -->
<g id="edge26" class="edge">
<title>Node17&#45;&gt;Node18</title>
<path fill="none" stroke="midnightblue" d="M523.55,-168.37C516.38,-150.46 499.77,-108.92 490.18,-84.95"/>
<polygon fill="midnightblue" stroke="midnightblue" points="493.4,-83.58 486.44,-75.59 486.9,-86.18 493.4,-83.58"/>
</g>
<!-- Node19&#45;&gt;Node1 -->
<g id="edge33" class="edge">
<title>Node19&#45;&gt;Node1</title>
<path fill="none" stroke="midnightblue" d="M744.64,-187.81C735.95,-209.58 710.73,-266.56 673,-300 656.32,-314.78 633.95,-325.6 614.89,-332.92"/>
<polygon fill="midnightblue" stroke="midnightblue" points="613.47,-329.71 605.28,-336.43 615.87,-336.28 613.47,-329.71"/>
</g>
<!-- Node19&#45;&gt;Node7 -->
<g id="edge31" class="edge">
<title>Node19&#45;&gt;Node7</title>
<path fill="none" stroke="midnightblue" d="M726.29,-168.44C703.65,-159.52 667.93,-145.44 642.25,-135.32"/>
<polygon fill="midnightblue" stroke="midnightblue" points="643.19,-131.93 632.61,-131.52 640.63,-138.44 643.19,-131.93"/>
</g>
<!-- Node19&#45;&gt;Node9 -->
<g id="edge32" class="edge">
<title>Node19&#45;&gt;Node9</title>
<path fill="none" stroke="midnightblue" d="M736.28,-187.57C717.06,-201.26 677.25,-228.14 640,-244 603.82,-259.4 560.96,-270.82 527.71,-278.3"/>
<polygon fill="midnightblue" stroke="midnightblue" points="526.74,-274.93 517.72,-280.5 528.24,-281.77 526.74,-274.93"/>
</g>
<!-- Node20&#45;&gt;Node1 -->
<g id="edge37" class="edge">
<title>Node20&#45;&gt;Node1</title>
<path fill="none" stroke="midnightblue" d="M189.43,-187.6C182.96,-201.09 173.25,-227.41 186,-244 226.8,-297.11 424.84,-327.28 522.01,-339.11"/>
<polygon fill="midnightblue" stroke="midnightblue" points="521.87,-342.62 532.21,-340.33 522.7,-335.67 521.87,-342.62"/>
</g>
<!-- Node20&#45;&gt;Node7 -->
<g id="edge35" class="edge">
<title>Node20&#45;&gt;Node7</title>
<path fill="none" stroke="midnightblue" d="M240.22,-171.01C311.51,-161.78 449.04,-143.97 535.09,-132.83"/>
<polygon fill="midnightblue" stroke="midnightblue" points="535.59,-136.29 545.06,-131.54 534.69,-129.35 535.59,-136.29"/>
</g>
<!-- Node20&#45;&gt;Node9 -->
<g id="edge36" class="edge">
<title>Node20&#45;&gt;Node9</title>
<path fill="none" stroke="midnightblue" d="M191.62,-187.89C188.5,-201.79 184.92,-228.65 199,-244 224.67,-271.97 322.47,-282.56 393.93,-286.56"/>
<polygon fill="midnightblue" stroke="midnightblue" points="394.1,-290.08 404.27,-287.11 394.46,-283.09 394.1,-290.08"/>
</g>
<!-- Node21 -->
<g id="node21" class="node">
<title>Node21</title>
<g id="a_node21"><a xlink:href="timedependentparameter_8hpp.html" target="_top" xlink:title="MODEL::TimeDependentParameter source file.">
<polygon fill="none" stroke="black" points="334,-112.5 334,-131.5 476,-131.5 476,-112.5 334,-112.5"/>
<text text-anchor="middle" x="405" y="-119.5" font-family="Helvetica,sans-Serif" font-size="10.00">timedependentparameter.hpp</text>
</a>
</g>
</g>
<!-- Node20&#45;&gt;Node21 -->
<g id="edge38" class="edge">
<title>Node20&#45;&gt;Node21</title>
<path fill="none" stroke="midnightblue" d="M227.43,-168.44C263.86,-159.12 322.23,-144.18 362.03,-134"/>
<polygon fill="midnightblue" stroke="midnightblue" points="362.9,-137.39 371.72,-131.52 361.17,-130.61 362.9,-137.39"/>
</g>
<!-- Node21&#45;&gt;Node2 -->
<g id="edge40" class="edge">
<title>Node21&#45;&gt;Node2</title>
<path fill="none" stroke="midnightblue" d="M398.47,-112.45C392.03,-103.69 382.27,-89.48 376,-76 369,-60.95 363.65,-42.82 360.26,-29.53"/>
<polygon fill="midnightblue" stroke="midnightblue" points="363.63,-28.58 357.87,-19.69 356.83,-30.23 363.63,-28.58"/>
</g>
<!-- Node21&#45;&gt;Node6 -->
<g id="edge42" class="edge">
<title>Node21&#45;&gt;Node6</title>
<path fill="none" stroke="midnightblue" d="M379.01,-112.44C351.3,-103.32 307.25,-88.81 276.38,-78.65"/>
<polygon fill="midnightblue" stroke="midnightblue" points="277.46,-75.32 266.86,-75.52 275.27,-81.97 277.46,-75.32"/>
</g>
<!-- Node21&#45;&gt;Node18 -->
<g id="edge39" class="edge">
<title>Node21&#45;&gt;Node18</title>
<path fill="none" stroke="midnightblue" d="M417.53,-112.32C429.59,-103.98 448.03,-91.21 462.27,-81.35"/>
<polygon fill="midnightblue" stroke="midnightblue" points="464.27,-84.22 470.5,-75.65 460.28,-78.47 464.27,-84.22"/>
</g>
<!-- Node22 -->
<g id="node22" class="node">
<title>Node22</title>
<g id="a_node22"><a xlink:title=" ">
<polygon fill="none" stroke="#bfbfbf" points="384.5,-56.5 384.5,-75.5 435.5,-75.5 435.5,-56.5 384.5,-56.5"/>
<text text-anchor="middle" x="410" y="-63.5" font-family="Helvetica,sans-Serif" font-size="10.00">numeric</text>
</a>
</g>
</g>
<!-- Node21&#45;&gt;Node22 -->
<g id="edge41" class="edge">
<title>Node21&#45;&gt;Node22</title>
<path fill="none" stroke="midnightblue" d="M405.83,-112.08C406.48,-105.01 407.42,-94.86 408.24,-85.99"/>
<polygon fill="midnightblue" stroke="midnightblue" points="411.75,-86.03 409.19,-75.75 404.78,-85.39 411.75,-86.03"/>
</g>
</g>
</svg>
