<?xml version="1.0" encoding="UTF-8" standalone="no"?>
<!DOCTYPE svg PUBLIC "-//W3C//DTD SVG 1.1//EN"
 "http://www.w3.org/Graphics/SVG/1.1/DTD/svg11.dtd">
<!-- Generated by graphviz version 3.0.0 (20220413.0242)
 -->
<!-- Title: model/block.hpp Pages: 1 -->
<svg width="575pt" height="196pt"
 viewBox="0.00 0.00 575.00 196.00" xmlns="http://www.w3.org/2000/svg" xmlns:xlink="http://www.w3.org/1999/xlink">
<g id="graph0" class="graph" transform="scale(1 1) rotate(0) translate(4 192)">
<title>model/block.hpp</title>
<!-- Node1 -->
<g id="node1" class="node">
<title>Node1</title>
<g id="a_node1"><a xlink:title="MODEL::Block source file.">
<polygon fill="#bfbfbf" stroke="black" points="235.5,-168.5 235.5,-187.5 322.5,-187.5 322.5,-168.5 235.5,-168.5"/>
<text text-anchor="middle" x="279" y="-175.5" font-family="Helvetica,sans-Serif" font-size="10.00">model/block.hpp</text>
</a>
</g>
</g>
<!-- Node2 -->
<g id="node2" class="node">
<title>Node2</title>
<g id="a_node2"><a xlink:href="bloodvessel_8hpp.html" target="_top" xlink:title="MODEL::BloodVessel source file.">
<polygon fill="none" stroke="black" points="0,-112.5 0,-131.5 116,-131.5 116,-112.5 0,-112.5"/>
<text text-anchor="middle" x="58" y="-119.5" font-family="Helvetica,sans-Serif" font-size="10.00">model/bloodvessel.hpp</text>
</a>
</g>
</g>
<!-- Node1&#45;&gt;Node2 -->
<g id="edge1" class="edge">
<title>Node1&#45;&gt;Node2</title>
<path fill="none" stroke="midnightblue" d="M234.08,-166.02C192.33,-155.82 131.02,-140.84 92.85,-131.52"/>
<polygon fill="midnightblue" stroke="midnightblue" points="233.44,-169.47 243.98,-168.44 235.1,-162.67 233.44,-169.47"/>
</g>
<!-- Node8 -->
<g id="node8" class="node">
<title>Node8</title>
<g id="a_node8"><a xlink:href="flowreference_8hpp.html" target="_top" xlink:title="MODEL::FlowReference source file.">
<polygon fill="none" stroke="black" points="134,-112.5 134,-131.5 256,-131.5 256,-112.5 134,-112.5"/>
<text text-anchor="middle" x="195" y="-119.5" font-family="Helvetica,sans-Serif" font-size="10.00">model/flowreference.hpp</text>
</a>
</g>
</g>
<!-- Node1&#45;&gt;Node8 -->
<g id="edge7" class="edge">
<title>Node1&#45;&gt;Node8</title>
<path fill="none" stroke="midnightblue" d="M257.07,-162.9C241.66,-153 221.55,-140.07 208.46,-131.65"/>
<polygon fill="midnightblue" stroke="midnightblue" points="255.2,-165.86 265.5,-168.32 258.98,-159.97 255.2,-165.86"/>
</g>
<!-- Node9 -->
<g id="node9" class="node">
<title>Node9</title>
<g id="a_node9"><a xlink:href="junction_8hpp.html" target="_top" xlink:title="MODEL::Junction source file.">
<polygon fill="none" stroke="black" points="469,-112.5 469,-131.5 567,-131.5 567,-112.5 469,-112.5"/>
<text text-anchor="middle" x="518" y="-119.5" font-family="Helvetica,sans-Serif" font-size="10.00">model/junction.hpp</text>
</a>
</g>
</g>
<!-- Node1&#45;&gt;Node9 -->
<g id="edge9" class="edge">
<title>Node1&#45;&gt;Node9</title>
<path fill="none" stroke="midnightblue" d="M326.72,-166.22C371.89,-156.01 438.77,-140.9 480.31,-131.52"/>
<polygon fill="midnightblue" stroke="midnightblue" points="325.85,-162.83 316.87,-168.44 327.4,-169.65 325.85,-162.83"/>
</g>
<!-- Node10 -->
<g id="node10" class="node">
<title>Node10</title>
<g id="a_node10"><a xlink:href="rcrblockwithdistalpressure_8hpp.html" target="_top" xlink:title="MODEL::RCRBlockWithDistalPressure source file.">
<polygon fill="none" stroke="black" points="274.5,-112.5 274.5,-131.5 451.5,-131.5 451.5,-112.5 274.5,-112.5"/>
<text text-anchor="middle" x="363" y="-119.5" font-family="Helvetica,sans-Serif" font-size="10.00">model/rcrblockwithdistalpressure.hpp</text>
</a>
</g>
</g>
<!-- Node1&#45;&gt;Node10 -->
<g id="edge12" class="edge">
<title>Node1&#45;&gt;Node10</title>
<path fill="none" stroke="midnightblue" d="M300.93,-162.9C316.34,-153 336.45,-140.07 349.54,-131.65"/>
<polygon fill="midnightblue" stroke="midnightblue" points="299.02,-159.97 292.5,-168.32 302.8,-165.86 299.02,-159.97"/>
</g>
<!-- Node3 -->
<g id="node3" class="node">
<title>Node3</title>
<g id="a_node3"><a xlink:href="model_8hpp.html" target="_top" xlink:title="MODEL::Model source file.">
<polygon fill="none" stroke="black" points="288,-56.5 288,-75.5 378,-75.5 378,-56.5 288,-56.5"/>
<text text-anchor="middle" x="333" y="-63.5" font-family="Helvetica,sans-Serif" font-size="10.00">model/model.hpp</text>
</a>
</g>
</g>
<!-- Node2&#45;&gt;Node3 -->
<g id="edge2" class="edge">
<title>Node2&#45;&gt;Node3</title>
<path fill="none" stroke="midnightblue" d="M111.61,-110.47C163.58,-100.27 241.44,-84.98 289.63,-75.52"/>
<polygon fill="midnightblue" stroke="midnightblue" points="110.71,-107.08 101.57,-112.44 112.06,-113.95 110.71,-107.08"/>
</g>
<!-- Node4 -->
<g id="node4" class="node">
<title>Node4</title>
<g id="a_node4"><a xlink:href="integrator_8hpp.html" target="_top" xlink:title="ALGEBRA::Integrator source file.">
<polygon fill="none" stroke="black" points="132,-0.5 132,-19.5 242,-19.5 242,-0.5 132,-0.5"/>
<text text-anchor="middle" x="187" y="-7.5" font-family="Helvetica,sans-Serif" font-size="10.00">algebra/integrator.hpp</text>
</a>
</g>
</g>
<!-- Node3&#45;&gt;Node4 -->
<g id="edge3" class="edge">
<title>Node3&#45;&gt;Node4</title>
<path fill="none" stroke="midnightblue" d="M300.3,-52.91C272.85,-42.75 234.33,-28.51 210.03,-19.52"/>
<polygon fill="midnightblue" stroke="midnightblue" points="299.27,-56.26 309.87,-56.44 301.7,-49.69 299.27,-56.26"/>
</g>
<!-- Node5 -->
<g id="node5" class="node">
<title>Node5</title>
<g id="a_node5"><a xlink:href="configreader_8hpp.html" target="_top" xlink:title="IO::ConfigReader source file.">
<polygon fill="none" stroke="black" points="469,-0.5 469,-19.5 567,-19.5 567,-0.5 469,-0.5"/>
<text text-anchor="middle" x="518" y="-7.5" font-family="Helvetica,sans-Serif" font-size="10.00">io/configreader.hpp</text>
</a>
</g>
</g>
<!-- Node3&#45;&gt;Node5 -->
<g id="edge4" class="edge">
<title>Node3&#45;&gt;Node5</title>
<path fill="none" stroke="midnightblue" d="M372.17,-53.57C407.07,-43.38 457.35,-28.7 488.82,-19.52"/>
<polygon fill="midnightblue" stroke="midnightblue" points="370.93,-50.28 362.31,-56.44 372.89,-57 370.93,-50.28"/>
</g>
<!-- Node6 -->
<g id="node6" class="node">
<title>Node6</title>
<g id="a_node6"><a xlink:href="csvwriter_8hpp.html" target="_top" xlink:title="IO::write_csv source file.">
<polygon fill="none" stroke="black" points="260.5,-0.5 260.5,-19.5 345.5,-19.5 345.5,-0.5 260.5,-0.5"/>
<text text-anchor="middle" x="303" y="-7.5" font-family="Helvetica,sans-Serif" font-size="10.00">io/csvwriter.hpp</text>
</a>
</g>
</g>
<!-- Node3&#45;&gt;Node6 -->
<g id="edge5" class="edge">
<title>Node3&#45;&gt;Node6</title>
<path fill="none" stroke="midnightblue" d="M323.15,-47.27C318.03,-38.05 311.98,-27.17 307.86,-19.75"/>
<polygon fill="midnightblue" stroke="midnightblue" points="320.13,-49.04 328.05,-56.08 326.25,-45.64 320.13,-49.04"/>
</g>
<!-- Node7 -->
<g id="node7" class="node">
<title>Node7</title>
<g id="a_node7"><a xlink:href="jsonwriter_8hpp.html" target="_top" xlink:title="IO::write_json source file.">
<polygon fill="none" stroke="black" points="363.5,-0.5 363.5,-19.5 450.5,-19.5 450.5,-0.5 363.5,-0.5"/>
<text text-anchor="middle" x="407" y="-7.5" font-family="Helvetica,sans-Serif" font-size="10.00">io/jsonwriter.hpp</text>
</a>
</g>
</g>
<!-- Node3&#45;&gt;Node7 -->
<g id="edge6" class="edge">
<title>Node3&#45;&gt;Node7</title>
<path fill="none" stroke="midnightblue" d="M353.03,-50.38C366.41,-40.62 383.56,-28.11 394.89,-19.83"/>
<polygon fill="midnightblue" stroke="midnightblue" points="350.9,-47.6 344.89,-56.32 355.03,-53.26 350.9,-47.6"/>
</g>
<!-- Node8&#45;&gt;Node3 -->
<g id="edge8" class="edge">
<title>Node8&#45;&gt;Node3</title>
<path fill="none" stroke="midnightblue" d="M226.25,-108.77C252.17,-98.63 288.36,-84.47 311.24,-75.52"/>
<polygon fill="midnightblue" stroke="midnightblue" points="224.9,-105.54 216.87,-112.44 227.45,-112.06 224.9,-105.54"/>
</g>
<!-- Node9&#45;&gt;Node3 -->
<g id="edge11" class="edge">
<title>Node9&#45;&gt;Node3</title>
<path fill="none" stroke="midnightblue" d="M478.83,-109.57C443.93,-99.38 393.65,-84.7 362.18,-75.52"/>
<polygon fill="midnightblue" stroke="midnightblue" points="478.11,-113 488.69,-112.44 480.07,-106.28 478.11,-113"/>
</g>
<!-- Node9&#45;&gt;Node5 -->
<g id="edge10" class="edge">
<title>Node9&#45;&gt;Node5</title>
<path fill="none" stroke="midnightblue" d="M518,-102.35C518,-78.25 518,-37.31 518,-19.59"/>
<polygon fill="midnightblue" stroke="midnightblue" points="514.5,-102.37 518,-112.37 521.5,-102.37 514.5,-102.37"/>
</g>
<!-- Node10&#45;&gt;Node3 -->
<g id="edge13" class="edge">
<title>Node10&#45;&gt;Node3</title>
<path fill="none" stroke="midnightblue" d="M353.15,-103.27C348.03,-94.05 341.98,-83.17 337.86,-75.75"/>
<polygon fill="midnightblue" stroke="midnightblue" points="350.13,-105.04 358.05,-112.08 356.25,-101.64 350.13,-105.04"/>
</g>
</g>
</svg>
