<?xml version="1.0" encoding="UTF-8" standalone="no"?>
<!DOCTYPE svg PUBLIC "-//W3C//DTD SVG 1.1//EN"
 "http://www.w3.org/Graphics/SVG/1.1/DTD/svg11.dtd">
<!-- Generated by graphviz version 3.0.0 (20220413.0242)
 -->
<!-- Title: model/bloodvessel.hpp Pages: 1 -->
<svg width="1204pt" height="420pt"
 viewBox="0.00 0.00 1204.00 420.00" xmlns="http://www.w3.org/2000/svg" xmlns:xlink="http://www.w3.org/1999/xlink">
<g id="graph0" class="graph" transform="scale(1 1) rotate(0) translate(4 416)">
<title>model/bloodvessel.hpp</title>
<!-- Node1 -->
<g id="node1" class="node">
<title>Node1</title>
<g id="a_node1"><a xlink:title="MODEL::BloodVessel source file.">
<polygon fill="#bfbfbf" stroke="black" points="494,-392.5 494,-411.5 610,-411.5 610,-392.5 494,-392.5"/>
<text text-anchor="middle" x="552" y="-399.5" font-family="Helvetica,sans-Serif" font-size="10.00">model/bloodvessel.hpp</text>
</a>
</g>
</g>
<!-- Node2 -->
<g id="node2" class="node">
<title>Node2</title>
<g id="a_node2"><a xlink:title=" ">
<polygon fill="none" stroke="#bfbfbf" points="124,-56.5 124,-75.5 170,-75.5 170,-56.5 124,-56.5"/>
<text text-anchor="middle" x="147" y="-63.5" font-family="Helvetica,sans-Serif" font-size="10.00">math.h</text>
</a>
</g>
</g>
<!-- Node1&#45;&gt;Node2 -->
<g id="edge1" class="edge">
<title>Node1&#45;&gt;Node2</title>
<path fill="none" stroke="midnightblue" d="M493.97,-401.57C352.25,-401.39 0,-390.92 0,-291 0,-291 0,-291 0,-177 0,-120.37 70.8,-89.36 114.13,-75.69"/>
<polygon fill="midnightblue" stroke="midnightblue" points="115.14,-79.04 123.71,-72.81 113.12,-72.34 115.14,-79.04"/>
</g>
<!-- Node3 -->
<g id="node3" class="node">
<title>Node3</title>
<g id="a_node3"><a xlink:href="block_8hpp.html" target="_top" xlink:title="MODEL::Block source file.">
<polygon fill="none" stroke="black" points="713,-336.5 713,-355.5 771,-355.5 771,-336.5 713,-336.5"/>
<text text-anchor="middle" x="742" y="-343.5" font-family="Helvetica,sans-Serif" font-size="10.00">block.hpp</text>
</a>
</g>
</g>
<!-- Node1&#45;&gt;Node3 -->
<g id="edge2" class="edge">
<title>Node1&#45;&gt;Node3</title>
<path fill="none" stroke="midnightblue" d="M582.11,-392.44C614.91,-383.12 667.5,-368.17 703.34,-357.99"/>
<polygon fill="midnightblue" stroke="midnightblue" points="704.31,-361.35 712.97,-355.25 702.39,-354.62 704.31,-361.35"/>
</g>
<!-- Node9 -->
<g id="node9" class="node">
<title>Node9</title>
<g id="a_node9"><a xlink:href="densesystem_8hpp.html" target="_top" xlink:title="ALGEBRA::DenseSystem source file.">
<polygon fill="none" stroke="black" points="485,-280.5 485,-299.5 619,-299.5 619,-280.5 485,-280.5"/>
<text text-anchor="middle" x="552" y="-287.5" font-family="Helvetica,sans-Serif" font-size="10.00">../algebra/densesystem.hpp</text>
</a>
</g>
</g>
<!-- Node1&#45;&gt;Node9 -->
<g id="edge59" class="edge">
<title>Node1&#45;&gt;Node9</title>
<path fill="none" stroke="midnightblue" d="M552,-392.37C552,-374.62 552,-333.67 552,-309.6"/>
<polygon fill="midnightblue" stroke="midnightblue" points="555.5,-309.59 552,-299.59 548.5,-309.59 555.5,-309.59"/>
</g>
<!-- Node14 -->
<g id="node14" class="node">
<title>Node14</title>
<g id="a_node14"><a xlink:href="sparsesystem_8hpp.html" target="_top" xlink:title="ALGEBRA::SparseSystem source file.">
<polygon fill="none" stroke="black" points="538.5,-112.5 538.5,-131.5 675.5,-131.5 675.5,-112.5 538.5,-112.5"/>
<text text-anchor="middle" x="607" y="-119.5" font-family="Helvetica,sans-Serif" font-size="10.00">../algebra/sparsesystem.hpp</text>
</a>
</g>
</g>
<!-- Node1&#45;&gt;Node14 -->
<g id="edge60" class="edge">
<title>Node1&#45;&gt;Node14</title>
<path fill="none" stroke="midnightblue" d="M493.63,-399.69C366.53,-395.25 76,-375.82 76,-291 76,-291 76,-291 76,-233 76,-202.9 71.73,-187.09 95,-168 111.48,-154.48 388.64,-136.07 528.13,-127.6"/>
<polygon fill="midnightblue" stroke="midnightblue" points="528.56,-131.08 538.33,-126.99 528.14,-124.1 528.56,-131.08"/>
</g>
<!-- Node4 -->
<g id="node4" class="node">
<title>Node4</title>
<g id="a_node4"><a xlink:title=" ">
<polygon fill="none" stroke="#bfbfbf" points="354,-0.5 354,-19.5 398,-19.5 398,-0.5 354,-0.5"/>
<text text-anchor="middle" x="376" y="-7.5" font-family="Helvetica,sans-Serif" font-size="10.00">vector</text>
</a>
</g>
</g>
<!-- Node3&#45;&gt;Node4 -->
<g id="edge3" class="edge">
<title>Node3&#45;&gt;Node4</title>
<path fill="none" stroke="midnightblue" d="M712.65,-344.48C579.41,-341.35 38,-319.96 38,-179 38,-179 38,-179 38,-121 38,-76.21 74.4,-74.91 115,-56 191.66,-20.29 292.88,-12.67 343.81,-11.2"/>
<polygon fill="midnightblue" stroke="midnightblue" points="343.97,-14.7 353.88,-10.97 343.81,-7.7 343.97,-14.7"/>
</g>
<!-- Node5 -->
<g id="node5" class="node">
<title>Node5</title>
<g id="a_node5"><a xlink:title=" ">
<polygon fill="none" stroke="#bfbfbf" points="1056.5,-168.5 1056.5,-187.5 1091.5,-187.5 1091.5,-168.5 1056.5,-168.5"/>
<text text-anchor="middle" x="1074" y="-175.5" font-family="Helvetica,sans-Serif" font-size="10.00">map</text>
</a>
</g>
</g>
<!-- Node3&#45;&gt;Node5 -->
<g id="edge4" class="edge">
<title>Node3&#45;&gt;Node5</title>
<path fill="none" stroke="midnightblue" d="M760.65,-336.37C779.86,-327.43 810.64,-312.97 837,-300 914.65,-261.8 1005.57,-214.71 1048.75,-192.2"/>
<polygon fill="midnightblue" stroke="midnightblue" points="1050.46,-195.26 1057.71,-187.53 1047.22,-189.05 1050.46,-195.26"/>
</g>
<!-- Node6 -->
<g id="node6" class="node">
<title>Node6</title>
<g id="a_node6"><a xlink:href="node_8hpp.html" target="_top" xlink:title="MODEL::Node source file.">
<polygon fill="none" stroke="black" points="826,-112.5 826,-131.5 882,-131.5 882,-112.5 826,-112.5"/>
<text text-anchor="middle" x="854" y="-119.5" font-family="Helvetica,sans-Serif" font-size="10.00">node.hpp</text>
</a>
</g>
</g>
<!-- Node3&#45;&gt;Node6 -->
<g id="edge5" class="edge">
<title>Node3&#45;&gt;Node6</title>
<path fill="none" stroke="midnightblue" d="M771.23,-343.84C858.06,-340.11 1109.89,-327.03 1134,-300 1173.05,-256.21 1172.05,-212.65 1134,-168 1103.4,-132.09 961.67,-124.73 892.37,-123.29"/>
<polygon fill="midnightblue" stroke="midnightblue" points="892.35,-119.79 882.29,-123.12 892.23,-126.79 892.35,-119.79"/>
</g>
<!-- Node8 -->
<g id="node8" class="node">
<title>Node8</title>
<g id="a_node8"><a xlink:href="dofhandler_8hpp.html" target="_top" xlink:title="MODEL::DOFHandler source file.">
<polygon fill="none" stroke="black" points="749,-56.5 749,-75.5 829,-75.5 829,-56.5 749,-56.5"/>
<text text-anchor="middle" x="789" y="-63.5" font-family="Helvetica,sans-Serif" font-size="10.00">dofhandler.hpp</text>
</a>
</g>
</g>
<!-- Node3&#45;&gt;Node8 -->
<g id="edge10" class="edge">
<title>Node3&#45;&gt;Node8</title>
<path fill="none" stroke="midnightblue" d="M771.29,-345.05C854.57,-344.69 1090.84,-340.07 1155,-300 1183.97,-281.91 1196,-269.16 1196,-235 1196,-235 1196,-235 1196,-177 1196,-103.88 948.07,-77.89 839.22,-70"/>
<polygon fill="midnightblue" stroke="midnightblue" points="839.36,-66.5 829.14,-69.3 838.87,-73.49 839.36,-66.5"/>
</g>
<!-- Node3&#45;&gt;Node9 -->
<g id="edge11" class="edge">
<title>Node3&#45;&gt;Node9</title>
<path fill="none" stroke="midnightblue" d="M712.73,-336.68C680.28,-327.46 627.77,-312.54 591.65,-302.27"/>
<polygon fill="midnightblue" stroke="midnightblue" points="592.51,-298.87 581.93,-299.51 590.59,-305.61 592.51,-298.87"/>
</g>
<!-- Node3&#45;&gt;Node14 -->
<g id="edge58" class="edge">
<title>Node3&#45;&gt;Node14</title>
<path fill="none" stroke="midnightblue" d="M771.18,-341.72C873.27,-329.22 1202.79,-279.49 1101,-168 1087.21,-152.9 821.98,-135.44 685.98,-127.43"/>
<polygon fill="midnightblue" stroke="midnightblue" points="685.81,-123.91 675.62,-126.82 685.4,-130.9 685.81,-123.91"/>
</g>
<!-- Node7 -->
<g id="node7" class="node">
<title>Node7</title>
<g id="a_node7"><a xlink:title=" ">
<polygon fill="none" stroke="#bfbfbf" points="802.5,-0.5 802.5,-19.5 843.5,-19.5 843.5,-0.5 802.5,-0.5"/>
<text text-anchor="middle" x="823" y="-7.5" font-family="Helvetica,sans-Serif" font-size="10.00">string</text>
</a>
</g>
</g>
<!-- Node6&#45;&gt;Node7 -->
<g id="edge6" class="edge">
<title>Node6&#45;&gt;Node7</title>
<path fill="none" stroke="midnightblue" d="M852.05,-112.11C849.24,-99.53 843.75,-75.87 838,-56 835.42,-47.09 832.21,-37.31 829.42,-29.15"/>
<polygon fill="midnightblue" stroke="midnightblue" points="832.68,-27.86 826.08,-19.56 826.06,-30.16 832.68,-27.86"/>
</g>
<!-- Node6&#45;&gt;Node8 -->
<g id="edge7" class="edge">
<title>Node6&#45;&gt;Node8</title>
<path fill="none" stroke="midnightblue" d="M843.56,-112.32C833.85,-104.26 819.18,-92.08 807.5,-82.37"/>
<polygon fill="midnightblue" stroke="midnightblue" points="809.56,-79.53 799.63,-75.83 805.09,-84.92 809.56,-79.53"/>
</g>
<!-- Node8&#45;&gt;Node4 -->
<g id="edge8" class="edge">
<title>Node8&#45;&gt;Node4</title>
<path fill="none" stroke="midnightblue" d="M748.85,-58.5C743.2,-57.63 737.46,-56.78 732,-56 612.77,-39.06 470.6,-22.04 408.13,-14.72"/>
<polygon fill="midnightblue" stroke="midnightblue" points="408.45,-11.24 398.11,-13.55 407.64,-18.19 408.45,-11.24"/>
</g>
<!-- Node8&#45;&gt;Node7 -->
<g id="edge9" class="edge">
<title>Node8&#45;&gt;Node7</title>
<path fill="none" stroke="midnightblue" d="M794.61,-56.08C799.37,-48.53 806.32,-37.49 812.15,-28.23"/>
<polygon fill="midnightblue" stroke="midnightblue" points="815.12,-30.08 817.49,-19.75 809.2,-26.35 815.12,-30.08"/>
</g>
<!-- Node10 -->
<g id="node10" class="node">
<title>Node10</title>
<g id="a_node10"><a xlink:title=" ">
<polygon fill="none" stroke="#bfbfbf" points="452.5,-224.5 452.5,-243.5 523.5,-243.5 523.5,-224.5 452.5,-224.5"/>
<text text-anchor="middle" x="488" y="-231.5" font-family="Helvetica,sans-Serif" font-size="10.00">Eigen/Dense</text>
</a>
</g>
</g>
<!-- Node9&#45;&gt;Node10 -->
<g id="edge12" class="edge">
<title>Node9&#45;&gt;Node10</title>
<path fill="none" stroke="midnightblue" d="M541.72,-280.32C532.16,-272.26 517.72,-260.08 506.22,-250.37"/>
<polygon fill="midnightblue" stroke="midnightblue" points="508.37,-247.61 498.47,-243.83 503.86,-252.96 508.37,-247.61"/>
</g>
<!-- Node11 -->
<g id="node11" class="node">
<title>Node11</title>
<g id="a_node11"><a xlink:href="model_8hpp.html" target="_top" xlink:title="MODEL::Model source file.">
<polygon fill="none" stroke="black" points="675,-224.5 675,-243.5 773,-243.5 773,-224.5 675,-224.5"/>
<text text-anchor="middle" x="724" y="-231.5" font-family="Helvetica,sans-Serif" font-size="10.00">../model/model.hpp</text>
</a>
</g>
</g>
<!-- Node9&#45;&gt;Node11 -->
<g id="edge13" class="edge">
<title>Node9&#45;&gt;Node11</title>
<path fill="none" stroke="midnightblue" d="M574.17,-280.44C601.46,-271.24 648.04,-256.56 682.1,-246.39"/>
<polygon fill="midnightblue" stroke="midnightblue" points="683.2,-249.71 691.79,-243.52 681.21,-243 683.2,-249.71"/>
</g>
<!-- Node11&#45;&gt;Node1 -->
<g id="edge27" class="edge">
<title>Node11&#45;&gt;Node1</title>
<path fill="none" stroke="midnightblue" d="M715.12,-243.57C687.73,-270.01 604.21,-350.62 568.49,-385.09"/>
<polygon fill="midnightblue" stroke="midnightblue" points="566.01,-382.61 561.25,-392.08 570.87,-387.65 566.01,-382.61"/>
</g>
<!-- Node11&#45;&gt;Node5 -->
<g id="edge14" class="edge">
<title>Node11&#45;&gt;Node5</title>
<path fill="none" stroke="midnightblue" d="M773.22,-228.97C835,-223.29 944.26,-211.19 1046.54,-187.69"/>
<polygon fill="midnightblue" stroke="midnightblue" points="1047.47,-191.06 1056.41,-185.38 1045.88,-184.25 1047.47,-191.06"/>
</g>
<!-- Node11&#45;&gt;Node6 -->
<g id="edge29" class="edge">
<title>Node11&#45;&gt;Node6</title>
<path fill="none" stroke="midnightblue" d="M745.1,-224.49C762.66,-216.72 787.66,-204.03 806,-188 821.79,-174.2 835.51,-154.35 844.19,-140.22"/>
<polygon fill="midnightblue" stroke="midnightblue" points="847.27,-141.89 849.36,-131.5 841.25,-138.32 847.27,-141.89"/>
</g>
<!-- Node11&#45;&gt;Node8 -->
<g id="edge28" class="edge">
<title>Node11&#45;&gt;Node8</title>
<path fill="none" stroke="midnightblue" d="M728.25,-224.47C732.67,-215.5 739.66,-200.9 745,-188 759.91,-152 774.91,-108.93 782.97,-85.11"/>
<polygon fill="midnightblue" stroke="midnightblue" points="786.3,-86.2 786.16,-75.61 779.66,-83.97 786.3,-86.2"/>
</g>
<!-- Node11&#45;&gt;Node9 -->
<g id="edge17" class="edge">
<title>Node11&#45;&gt;Node9</title>
<path fill="none" stroke="midnightblue" d="M701.95,-243.52C674.72,-252.7 628.15,-267.38 594.05,-277.57"/>
<polygon fill="midnightblue" stroke="midnightblue" points="592.94,-274.25 584.34,-280.44 594.93,-280.96 592.94,-274.25"/>
</g>
<!-- Node12 -->
<g id="node12" class="node">
<title>Node12</title>
<g id="a_node12"><a xlink:title=" ">
<polygon fill="none" stroke="#bfbfbf" points="614.5,-168.5 614.5,-187.5 643.5,-187.5 643.5,-168.5 614.5,-168.5"/>
<text text-anchor="middle" x="629" y="-175.5" font-family="Helvetica,sans-Serif" font-size="10.00">list</text>
</a>
</g>
</g>
<!-- Node11&#45;&gt;Node12 -->
<g id="edge15" class="edge">
<title>Node11&#45;&gt;Node12</title>
<path fill="none" stroke="midnightblue" d="M708.74,-224.32C693.6,-215.72 670.2,-202.42 652.66,-192.45"/>
<polygon fill="midnightblue" stroke="midnightblue" points="654.02,-189.2 643.6,-187.3 650.57,-195.28 654.02,-189.2"/>
</g>
<!-- Node13 -->
<g id="node13" class="node">
<title>Node13</title>
<g id="a_node13"><a xlink:title=" ">
<polygon fill="none" stroke="#bfbfbf" points="662,-168.5 662,-187.5 708,-187.5 708,-168.5 662,-168.5"/>
<text text-anchor="middle" x="685" y="-175.5" font-family="Helvetica,sans-Serif" font-size="10.00">variant</text>
</a>
</g>
</g>
<!-- Node11&#45;&gt;Node13 -->
<g id="edge16" class="edge">
<title>Node11&#45;&gt;Node13</title>
<path fill="none" stroke="midnightblue" d="M717.56,-224.08C712.05,-216.46 703.97,-205.26 697.24,-195.94"/>
<polygon fill="midnightblue" stroke="midnightblue" points="700.01,-193.81 691.32,-187.75 694.34,-197.91 700.01,-193.81"/>
</g>
<!-- Node11&#45;&gt;Node14 -->
<g id="edge18" class="edge">
<title>Node11&#45;&gt;Node14</title>
<path fill="none" stroke="midnightblue" d="M719.97,-224.43C718.68,-210.97 720.55,-184.69 708,-168 695.86,-151.86 676.91,-141.48 658.65,-134.82"/>
<polygon fill="midnightblue" stroke="midnightblue" points="659.51,-131.41 648.91,-131.58 657.29,-138.06 659.51,-131.41"/>
</g>
<!-- Node18 -->
<g id="node18" class="node">
<title>Node18</title>
<g id="a_node18"><a xlink:href="junction_8hpp.html" target="_top" xlink:title="MODEL::Junction source file.">
<polygon fill="none" stroke="black" points="858,-168.5 858,-187.5 926,-187.5 926,-168.5 858,-168.5"/>
<text text-anchor="middle" x="892" y="-175.5" font-family="Helvetica,sans-Serif" font-size="10.00">junction.hpp</text>
</a>
</g>
</g>
<!-- Node11&#45;&gt;Node18 -->
<g id="edge23" class="edge">
<title>Node11&#45;&gt;Node18</title>
<path fill="none" stroke="midnightblue" d="M750.62,-224.44C779.01,-215.32 824.14,-200.81 855.75,-190.65"/>
<polygon fill="midnightblue" stroke="midnightblue" points="857.06,-193.91 865.5,-187.52 854.91,-187.24 857.06,-193.91"/>
</g>
<!-- Node19 -->
<g id="node19" class="node">
<title>Node19</title>
<g id="a_node19"><a xlink:href="flowreferencebc_8hpp.html" target="_top" xlink:title="MODEL::FlowReferenceBC source file.">
<polygon fill="none" stroke="black" points="243.5,-168.5 243.5,-187.5 346.5,-187.5 346.5,-168.5 243.5,-168.5"/>
<text text-anchor="middle" x="295" y="-175.5" font-family="Helvetica,sans-Serif" font-size="10.00">flowreferencebc.hpp</text>
</a>
</g>
</g>
<!-- Node11&#45;&gt;Node19 -->
<g id="edge30" class="edge">
<title>Node11&#45;&gt;Node19</title>
<path fill="none" stroke="midnightblue" d="M674.7,-227.43C605.83,-219.54 476.62,-204.4 356.78,-188.21"/>
<polygon fill="midnightblue" stroke="midnightblue" points="357.08,-184.72 346.7,-186.85 356.14,-191.66 357.08,-184.72"/>
</g>
<!-- Node22 -->
<g id="node22" class="node">
<title>Node22</title>
<g id="a_node22"><a xlink:href="pressurereferencebc_8hpp.html" target="_top" xlink:title="MODEL::PressureReferenceBC source file.">
<polygon fill="none" stroke="black" points="364.5,-168.5 364.5,-187.5 487.5,-187.5 487.5,-168.5 364.5,-168.5"/>
<text text-anchor="middle" x="426" y="-175.5" font-family="Helvetica,sans-Serif" font-size="10.00">pressurereferencebc.hpp</text>
</a>
</g>
</g>
<!-- Node11&#45;&gt;Node22 -->
<g id="edge39" class="edge">
<title>Node11&#45;&gt;Node22</title>
<path fill="none" stroke="midnightblue" d="M676.78,-224.44C624.25,-214.92 539.39,-199.55 483.15,-189.36"/>
<polygon fill="midnightblue" stroke="midnightblue" points="483.46,-185.86 473,-187.52 482.21,-192.74 483.46,-185.86"/>
</g>
<!-- Node23 -->
<g id="node23" class="node">
<title>Node23</title>
<g id="a_node23"><a xlink:href="windkesselbc_8hpp.html" target="_top" xlink:title="MODEL::WindkesselBC source file.">
<polygon fill="none" stroke="black" points="944,-168.5 944,-187.5 1038,-187.5 1038,-168.5 944,-168.5"/>
<text text-anchor="middle" x="991" y="-175.5" font-family="Helvetica,sans-Serif" font-size="10.00">windkesselbc.hpp</text>
</a>
</g>
</g>
<!-- Node11&#45;&gt;Node23 -->
<g id="edge44" class="edge">
<title>Node11&#45;&gt;Node23</title>
<path fill="none" stroke="midnightblue" d="M766.31,-224.44C813.08,-214.98 888.46,-199.74 938.85,-189.55"/>
<polygon fill="midnightblue" stroke="midnightblue" points="939.78,-192.93 948.89,-187.52 938.4,-186.07 939.78,-192.93"/>
</g>
<!-- Node24 -->
<g id="node24" class="node">
<title>Node24</title>
<g id="a_node24"><a xlink:href="resistancebc_8hpp.html" target="_top" xlink:title="MODEL::ResistanceBC source file.">
<polygon fill="none" stroke="black" points="506,-168.5 506,-187.5 596,-187.5 596,-168.5 506,-168.5"/>
<text text-anchor="middle" x="551" y="-175.5" font-family="Helvetica,sans-Serif" font-size="10.00">resistancebc.hpp</text>
</a>
</g>
</g>
<!-- Node11&#45;&gt;Node24 -->
<g id="edge48" class="edge">
<title>Node11&#45;&gt;Node24</title>
<path fill="none" stroke="midnightblue" d="M696.59,-224.44C667.23,-215.28 620.48,-200.69 587.9,-190.52"/>
<polygon fill="midnightblue" stroke="midnightblue" points="588.87,-187.16 578.28,-187.52 586.79,-193.84 588.87,-187.16"/>
</g>
<!-- Node25 -->
<g id="node25" class="node">
<title>Node25</title>
<g id="a_node25"><a xlink:href="openloopcoronarybc_8hpp.html" target="_top" xlink:title="MODEL::OpenLoopCoronaryBC source file.">
<polygon fill="none" stroke="black" points="104.5,-168.5 104.5,-187.5 225.5,-187.5 225.5,-168.5 104.5,-168.5"/>
<text text-anchor="middle" x="165" y="-175.5" font-family="Helvetica,sans-Serif" font-size="10.00">openloopcoronarybc.hpp</text>
</a>
</g>
</g>
<!-- Node11&#45;&gt;Node25 -->
<g id="edge53" class="edge">
<title>Node11&#45;&gt;Node25</title>
<path fill="none" stroke="midnightblue" d="M674.91,-229.11C588.31,-222.13 402.55,-206.52 235.52,-188.13"/>
<polygon fill="midnightblue" stroke="midnightblue" points="235.89,-184.65 225.57,-187.03 235.12,-191.61 235.89,-184.65"/>
</g>
<!-- Node14&#45;&gt;Node11 -->
<g id="edge22" class="edge">
<title>Node14&#45;&gt;Node11</title>
<path fill="none" stroke="midnightblue" d="M665.26,-131.58C687.88,-137.93 711.67,-148.95 726,-168 735.91,-181.17 736.83,-200.31 734.13,-214.41"/>
<polygon fill="midnightblue" stroke="midnightblue" points="730.65,-213.85 731.29,-224.43 737.38,-215.76 730.65,-213.85"/>
</g>
<!-- Node15 -->
<g id="node15" class="node">
<title>Node15</title>
<g id="a_node15"><a xlink:title=" ">
<polygon fill="none" stroke="#bfbfbf" points="471,-56.5 471,-75.5 545,-75.5 545,-56.5 471,-56.5"/>
<text text-anchor="middle" x="508" y="-63.5" font-family="Helvetica,sans-Serif" font-size="10.00">Eigen/Sparse</text>
</a>
</g>
</g>
<!-- Node14&#45;&gt;Node15 -->
<g id="edge19" class="edge">
<title>Node14&#45;&gt;Node15</title>
<path fill="none" stroke="midnightblue" d="M591.09,-112.32C575.36,-103.74 551.06,-90.49 532.79,-80.52"/>
<polygon fill="midnightblue" stroke="midnightblue" points="534.32,-77.37 523.87,-75.65 530.97,-83.52 534.32,-77.37"/>
</g>
<!-- Node16 -->
<g id="node16" class="node">
<title>Node16</title>
<g id="a_node16"><a xlink:title=" ">
<polygon fill="none" stroke="#bfbfbf" points="563,-56.5 563,-75.5 651,-75.5 651,-56.5 563,-56.5"/>
<text text-anchor="middle" x="607" y="-63.5" font-family="Helvetica,sans-Serif" font-size="10.00">Eigen/SparseLU</text>
</a>
</g>
</g>
<!-- Node14&#45;&gt;Node16 -->
<g id="edge20" class="edge">
<title>Node14&#45;&gt;Node16</title>
<path fill="none" stroke="midnightblue" d="M607,-112.08C607,-105.01 607,-94.86 607,-85.99"/>
<polygon fill="midnightblue" stroke="midnightblue" points="610.5,-85.75 607,-75.75 603.5,-85.75 610.5,-85.75"/>
</g>
<!-- Node17 -->
<g id="node17" class="node">
<title>Node17</title>
<g id="a_node17"><a xlink:title=" ">
<polygon fill="none" stroke="#bfbfbf" points="669,-56.5 669,-75.5 723,-75.5 723,-56.5 669,-56.5"/>
<text text-anchor="middle" x="696" y="-63.5" font-family="Helvetica,sans-Serif" font-size="10.00">iostream</text>
</a>
</g>
</g>
<!-- Node14&#45;&gt;Node17 -->
<g id="edge21" class="edge">
<title>Node14&#45;&gt;Node17</title>
<path fill="none" stroke="midnightblue" d="M621.3,-112.32C635.18,-103.9 656.49,-90.97 672.8,-81.07"/>
<polygon fill="midnightblue" stroke="midnightblue" points="675,-83.83 681.74,-75.65 671.37,-77.85 675,-83.83"/>
</g>
<!-- Node18&#45;&gt;Node3 -->
<g id="edge26" class="edge">
<title>Node18&#45;&gt;Node3</title>
<path fill="none" stroke="midnightblue" d="M884.26,-187.57C860.47,-213.9 788.14,-293.94 756.77,-328.65"/>
<polygon fill="midnightblue" stroke="midnightblue" points="754.17,-326.31 750.06,-336.08 759.37,-331 754.17,-326.31"/>
</g>
<!-- Node18&#45;&gt;Node9 -->
<g id="edge24" class="edge">
<title>Node18&#45;&gt;Node9</title>
<path fill="none" stroke="midnightblue" d="M880.47,-187.63C861.16,-201.67 820.56,-229.33 782,-244 732.86,-262.69 674.72,-273.98 629.19,-280.58"/>
<polygon fill="midnightblue" stroke="midnightblue" points="628.5,-277.14 619.09,-281.99 629.48,-284.07 628.5,-277.14"/>
</g>
<!-- Node18&#45;&gt;Node14 -->
<g id="edge25" class="edge">
<title>Node18&#45;&gt;Node14</title>
<path fill="none" stroke="midnightblue" d="M857.91,-170.54C809.4,-161.35 719.94,-144.4 661.99,-133.42"/>
<polygon fill="midnightblue" stroke="midnightblue" points="662.39,-129.93 651.91,-131.51 661.08,-136.81 662.39,-129.93"/>
</g>
<!-- Node19&#45;&gt;Node3 -->
<g id="edge33" class="edge">
<title>Node19&#45;&gt;Node3</title>
<path fill="none" stroke="midnightblue" d="M302.92,-187.51C324.52,-210.12 387.24,-271.89 453,-300 536.95,-335.89 645.55,-343.56 702.75,-344.95"/>
<polygon fill="midnightblue" stroke="midnightblue" points="702.75,-348.45 712.81,-345.14 702.88,-341.45 702.75,-348.45"/>
</g>
<!-- Node19&#45;&gt;Node9 -->
<g id="edge31" class="edge">
<title>Node19&#45;&gt;Node9</title>
<path fill="none" stroke="midnightblue" d="M314.1,-187.55C342.24,-200.11 396.53,-224.2 443,-244 469.3,-255.2 499.33,-267.57 521.2,-276.5"/>
<polygon fill="midnightblue" stroke="midnightblue" points="520.06,-279.81 530.64,-280.34 522.7,-273.33 520.06,-279.81"/>
</g>
<!-- Node19&#45;&gt;Node14 -->
<g id="edge32" class="edge">
<title>Node19&#45;&gt;Node14</title>
<path fill="none" stroke="midnightblue" d="M344.44,-168.44C399.66,-158.89 489.02,-143.42 547.89,-133.23"/>
<polygon fill="midnightblue" stroke="midnightblue" points="548.54,-136.67 557.79,-131.52 547.34,-129.77 548.54,-136.67"/>
</g>
<!-- Node20 -->
<g id="node20" class="node">
<title>Node20</title>
<g id="a_node20"><a xlink:href="timedependentparameter_8hpp.html" target="_top" xlink:title="MODEL::TimeDependentParameter source file.">
<polygon fill="none" stroke="black" points="298,-112.5 298,-131.5 440,-131.5 440,-112.5 298,-112.5"/>
<text text-anchor="middle" x="369" y="-119.5" font-family="Helvetica,sans-Serif" font-size="10.00">timedependentparameter.hpp</text>
</a>
</g>
</g>
<!-- Node19&#45;&gt;Node20 -->
<g id="edge34" class="edge">
<title>Node19&#45;&gt;Node20</title>
<path fill="none" stroke="midnightblue" d="M306.89,-168.32C318.15,-160.11 335.29,-147.6 348.71,-137.81"/>
<polygon fill="midnightblue" stroke="midnightblue" points="350.88,-140.56 356.89,-131.83 346.75,-134.9 350.88,-140.56"/>
</g>
<!-- Node20&#45;&gt;Node2 -->
<g id="edge35" class="edge">
<title>Node20&#45;&gt;Node2</title>
<path fill="none" stroke="midnightblue" d="M333.82,-112.44C291.56,-102.16 221.2,-85.05 179.95,-75.01"/>
<polygon fill="midnightblue" stroke="midnightblue" points="180.67,-71.59 170.12,-72.62 179.01,-78.39 180.67,-71.59"/>
</g>
<!-- Node20&#45;&gt;Node4 -->
<g id="edge36" class="edge">
<title>Node20&#45;&gt;Node4</title>
<path fill="none" stroke="midnightblue" d="M369.55,-112.37C370.68,-94.62 373.28,-53.67 374.82,-29.6"/>
<polygon fill="midnightblue" stroke="midnightblue" points="378.31,-29.79 375.45,-19.59 371.33,-29.35 378.31,-29.79"/>
</g>
<!-- Node20&#45;&gt;Node8 -->
<g id="edge38" class="edge">
<title>Node20&#45;&gt;Node8</title>
<path fill="none" stroke="midnightblue" d="M440.04,-112.9C513.29,-104.38 630.76,-90.26 732,-76 734.22,-75.69 736.48,-75.36 738.77,-75.03"/>
<polygon fill="midnightblue" stroke="midnightblue" points="739.48,-78.46 748.85,-73.51 738.44,-71.54 739.48,-78.46"/>
</g>
<!-- Node21 -->
<g id="node21" class="node">
<title>Node21</title>
<g id="a_node21"><a xlink:title=" ">
<polygon fill="none" stroke="#bfbfbf" points="296.5,-56.5 296.5,-75.5 347.5,-75.5 347.5,-56.5 296.5,-56.5"/>
<text text-anchor="middle" x="322" y="-63.5" font-family="Helvetica,sans-Serif" font-size="10.00">numeric</text>
</a>
</g>
</g>
<!-- Node20&#45;&gt;Node21 -->
<g id="edge37" class="edge">
<title>Node20&#45;&gt;Node21</title>
<path fill="none" stroke="midnightblue" d="M361.24,-112.08C354.46,-104.3 344.46,-92.8 336.24,-83.37"/>
<polygon fill="midnightblue" stroke="midnightblue" points="338.82,-81 329.62,-75.75 333.54,-85.59 338.82,-81"/>
</g>
<!-- Node22&#45;&gt;Node3 -->
<g id="edge42" class="edge">
<title>Node22&#45;&gt;Node3</title>
<path fill="none" stroke="midnightblue" d="M426.53,-187.67C428.47,-210.67 437.25,-273.32 476,-300 512.09,-324.84 637.49,-337.41 702.39,-342.37"/>
<polygon fill="midnightblue" stroke="midnightblue" points="702.41,-345.88 712.65,-343.13 702.93,-338.9 702.41,-345.88"/>
</g>
<!-- Node22&#45;&gt;Node9 -->
<g id="edge40" class="edge">
<title>Node22&#45;&gt;Node9</title>
<path fill="none" stroke="midnightblue" d="M467.19,-187.56C489.19,-194.1 515.13,-205.29 532,-224 543.48,-236.73 548.37,-255.93 550.46,-270.16"/>
<polygon fill="midnightblue" stroke="midnightblue" points="547,-270.75 551.6,-280.3 553.96,-269.97 547,-270.75"/>
</g>
<!-- Node22&#45;&gt;Node14 -->
<g id="edge41" class="edge">
<title>Node22&#45;&gt;Node14</title>
<path fill="none" stroke="midnightblue" d="M454.68,-168.44C485.53,-159.24 534.73,-144.56 568.83,-134.39"/>
<polygon fill="midnightblue" stroke="midnightblue" points="569.87,-137.73 578.45,-131.52 567.87,-131.02 569.87,-137.73"/>
</g>
<!-- Node22&#45;&gt;Node20 -->
<g id="edge43" class="edge">
<title>Node22&#45;&gt;Node20</title>
<path fill="none" stroke="midnightblue" d="M416.84,-168.32C408.5,-160.42 395.97,-148.55 385.82,-138.94"/>
<polygon fill="midnightblue" stroke="midnightblue" points="387.99,-136.17 378.32,-131.83 383.18,-141.25 387.99,-136.17"/>
</g>
<!-- Node23&#45;&gt;Node3 -->
<g id="edge47" class="edge">
<title>Node23&#45;&gt;Node3</title>
<path fill="none" stroke="midnightblue" d="M978.09,-187.61C937.76,-214.49 813.82,-297.12 763.53,-330.65"/>
<polygon fill="midnightblue" stroke="midnightblue" points="761.42,-327.85 755.04,-336.31 765.3,-333.67 761.42,-327.85"/>
</g>
<!-- Node23&#45;&gt;Node9 -->
<g id="edge45" class="edge">
<title>Node23&#45;&gt;Node9</title>
<path fill="none" stroke="midnightblue" d="M971.82,-187.54C940.18,-201.31 874.76,-228.46 817,-244 754.77,-260.75 682.56,-272.52 629.25,-279.81"/>
<polygon fill="midnightblue" stroke="midnightblue" points="628.63,-276.36 619.19,-281.17 629.57,-283.3 628.63,-276.36"/>
</g>
<!-- Node23&#45;&gt;Node14 -->
<g id="edge46" class="edge">
<title>Node23&#45;&gt;Node14</title>
<path fill="none" stroke="midnightblue" d="M943.96,-169.36C940.93,-168.89 937.92,-168.44 935,-168 848.48,-155.11 748.91,-141.65 682.38,-132.84"/>
<polygon fill="midnightblue" stroke="midnightblue" points="682.78,-129.36 672.41,-131.52 681.86,-136.3 682.78,-129.36"/>
</g>
<!-- Node24&#45;&gt;Node3 -->
<g id="edge51" class="edge">
<title>Node24&#45;&gt;Node3</title>
<path fill="none" stroke="midnightblue" d="M560.9,-187.61C591.45,-214.16 684.55,-295.07 724.02,-329.37"/>
<polygon fill="midnightblue" stroke="midnightblue" points="722.16,-332.39 732,-336.31 726.75,-327.11 722.16,-332.39"/>
</g>
<!-- Node24&#45;&gt;Node9 -->
<g id="edge49" class="edge">
<title>Node24&#45;&gt;Node9</title>
<path fill="none" stroke="midnightblue" d="M554.86,-187.75C558.56,-196.67 563.89,-210.99 566,-224 568.57,-239.85 564.22,-257.66 559.7,-270.62"/>
<polygon fill="midnightblue" stroke="midnightblue" points="556.34,-269.63 556.02,-280.22 562.87,-272.14 556.34,-269.63"/>
</g>
<!-- Node24&#45;&gt;Node14 -->
<g id="edge50" class="edge">
<title>Node24&#45;&gt;Node14</title>
<path fill="none" stroke="midnightblue" d="M560,-168.32C568.19,-160.42 580.51,-148.55 590.47,-138.94"/>
<polygon fill="midnightblue" stroke="midnightblue" points="593.07,-141.29 597.84,-131.83 588.21,-136.26 593.07,-141.29"/>
</g>
<!-- Node24&#45;&gt;Node20 -->
<g id="edge52" class="edge">
<title>Node24&#45;&gt;Node20</title>
<path fill="none" stroke="midnightblue" d="M522.16,-168.44C491.14,-159.24 441.67,-144.56 407.38,-134.39"/>
<polygon fill="midnightblue" stroke="midnightblue" points="408.29,-131.01 397.7,-131.52 406.29,-137.72 408.29,-131.01"/>
</g>
<!-- Node25&#45;&gt;Node3 -->
<g id="edge56" class="edge">
<title>Node25&#45;&gt;Node3</title>
<path fill="none" stroke="midnightblue" d="M178.55,-187.6C214.81,-210.16 317.67,-271.28 412,-300 513.7,-330.96 639.54,-340.66 702.39,-343.67"/>
<polygon fill="midnightblue" stroke="midnightblue" points="702.5,-347.18 712.64,-344.13 702.81,-340.19 702.5,-347.18"/>
</g>
<!-- Node25&#45;&gt;Node9 -->
<g id="edge54" class="edge">
<title>Node25&#45;&gt;Node9</title>
<path fill="none" stroke="midnightblue" d="M195.03,-187.53C264.1,-207.17 434.28,-255.54 512.06,-277.65"/>
<polygon fill="midnightblue" stroke="midnightblue" points="511.38,-281.09 521.95,-280.46 513.29,-274.36 511.38,-281.09"/>
</g>
<!-- Node25&#45;&gt;Node14 -->
<g id="edge55" class="edge">
<title>Node25&#45;&gt;Node14</title>
<path fill="none" stroke="midnightblue" d="M225.58,-169.06C228.42,-168.7 231.24,-168.35 234,-168 335.37,-155.27 452.33,-141.27 527.85,-132.32"/>
<polygon fill="midnightblue" stroke="midnightblue" points="528.71,-135.75 538.23,-131.1 527.89,-128.8 528.71,-135.75"/>
</g>
<!-- Node25&#45;&gt;Node20 -->
<g id="edge57" class="edge">
<title>Node25&#45;&gt;Node20</title>
<path fill="none" stroke="midnightblue" d="M197.32,-168.44C232.39,-159.16 288.5,-144.31 326.96,-134.13"/>
<polygon fill="midnightblue" stroke="midnightblue" points="328.06,-137.46 336.83,-131.52 326.26,-130.69 328.06,-137.46"/>
</g>
</g>
</svg>
