<?xml version="1.0" encoding="UTF-8" standalone="no"?>
<!DOCTYPE svg PUBLIC "-//W3C//DTD SVG 1.1//EN"
 "http://www.w3.org/Graphics/SVG/1.1/DTD/svg11.dtd">
<!-- Generated by graphviz version 3.0.0 (20220413.0242)
 -->
<!-- Title: model/bloodvessel.hpp Pages: 1 -->
<svg width="904pt" height="420pt"
 viewBox="0.00 0.00 903.50 420.00" xmlns="http://www.w3.org/2000/svg" xmlns:xlink="http://www.w3.org/1999/xlink">
<g id="graph0" class="graph" transform="scale(1 1) rotate(0) translate(4 416)">
<title>model/bloodvessel.hpp</title>
<!-- Node1 -->
<g id="node1" class="node">
<title>Node1</title>
<g id="a_node1"><a xlink:title="MODEL::BloodVessel source file.">
<polygon fill="#bfbfbf" stroke="black" points="453.5,-392.5 453.5,-411.5 569.5,-411.5 569.5,-392.5 453.5,-392.5"/>
<text text-anchor="middle" x="511.5" y="-399.5" font-family="Helvetica,sans-Serif" font-size="10.00">model/bloodvessel.hpp</text>
</a>
</g>
</g>
<!-- Node2 -->
<g id="node2" class="node">
<title>Node2</title>
<g id="a_node2"><a xlink:title=" ">
<polygon fill="none" stroke="#bfbfbf" points="31.5,-56.5 31.5,-75.5 77.5,-75.5 77.5,-56.5 31.5,-56.5"/>
<text text-anchor="middle" x="54.5" y="-63.5" font-family="Helvetica,sans-Serif" font-size="10.00">math.h</text>
</a>
</g>
</g>
<!-- Node1&#45;&gt;Node2 -->
<g id="edge1" class="edge">
<title>Node1&#45;&gt;Node2</title>
<path fill="none" stroke="midnightblue" d="M453.24,-396.37C394.19,-390.66 300.63,-378.76 222.5,-356 162.88,-338.63 136.5,-345.74 94.5,-300 38.44,-238.94 45.94,-129.22 51.6,-85.61"/>
<polygon fill="midnightblue" stroke="midnightblue" points="55.08,-85.97 53.03,-75.58 48.15,-84.99 55.08,-85.97"/>
</g>
<!-- Node3 -->
<g id="node3" class="node">
<title>Node3</title>
<g id="a_node3"><a xlink:href="block_8hpp.html" target="_top" xlink:title="MODEL::Block source file.">
<polygon fill="none" stroke="black" points="231.5,-336.5 231.5,-355.5 289.5,-355.5 289.5,-336.5 231.5,-336.5"/>
<text text-anchor="middle" x="260.5" y="-343.5" font-family="Helvetica,sans-Serif" font-size="10.00">block.hpp</text>
</a>
</g>
</g>
<!-- Node1&#45;&gt;Node3 -->
<g id="edge2" class="edge">
<title>Node1&#45;&gt;Node3</title>
<path fill="none" stroke="midnightblue" d="M471.73,-392.44C424.56,-382.3 346.46,-365.49 299.59,-355.41"/>
<polygon fill="midnightblue" stroke="midnightblue" points="300.03,-351.93 289.52,-353.24 298.56,-358.77 300.03,-351.93"/>
</g>
<!-- Node9 -->
<g id="node9" class="node">
<title>Node9</title>
<g id="a_node9"><a xlink:href="densesystem_8hpp.html" target="_top" xlink:title="ALGEBRA::DenseSystem source file.">
<polygon fill="none" stroke="black" points="514.5,-112.5 514.5,-131.5 648.5,-131.5 648.5,-112.5 514.5,-112.5"/>
<text text-anchor="middle" x="581.5" y="-119.5" font-family="Helvetica,sans-Serif" font-size="10.00">../algebra/densesystem.hpp</text>
</a>
</g>
</g>
<!-- Node1&#45;&gt;Node9 -->
<g id="edge43" class="edge">
<title>Node1&#45;&gt;Node9</title>
<path fill="none" stroke="midnightblue" d="M569.82,-396.45C677.24,-386.46 895.5,-357.92 895.5,-291 895.5,-291 895.5,-291 895.5,-233 895.5,-187.53 857.66,-187.32 816.5,-168 766.93,-144.73 706.09,-133.5 658.74,-128.07"/>
<polygon fill="midnightblue" stroke="midnightblue" points="658.87,-124.56 648.55,-126.97 658.11,-131.52 658.87,-124.56"/>
</g>
<!-- Node11 -->
<g id="node11" class="node">
<title>Node11</title>
<g id="a_node11"><a xlink:href="sparsesystem_8hpp.html" target="_top" xlink:title="ALGEBRA::SparseSystem source file.">
<polygon fill="none" stroke="black" points="578,-280.5 578,-299.5 715,-299.5 715,-280.5 578,-280.5"/>
<text text-anchor="middle" x="646.5" y="-287.5" font-family="Helvetica,sans-Serif" font-size="10.00">../algebra/sparsesystem.hpp</text>
</a>
</g>
</g>
<!-- Node1&#45;&gt;Node11 -->
<g id="edge44" class="edge">
<title>Node1&#45;&gt;Node11</title>
<path fill="none" stroke="midnightblue" d="M522.09,-392.37C544.96,-373.73 599.21,-329.53 627.93,-306.13"/>
<polygon fill="midnightblue" stroke="midnightblue" points="630.41,-308.62 635.96,-299.59 625.99,-303.19 630.41,-308.62"/>
</g>
<!-- Node4 -->
<g id="node4" class="node">
<title>Node4</title>
<g id="a_node4"><a xlink:title=" ">
<polygon fill="none" stroke="#bfbfbf" points="113.5,-0.5 113.5,-19.5 157.5,-19.5 157.5,-0.5 113.5,-0.5"/>
<text text-anchor="middle" x="135.5" y="-7.5" font-family="Helvetica,sans-Serif" font-size="10.00">vector</text>
</a>
</g>
</g>
<!-- Node3&#45;&gt;Node4 -->
<g id="edge3" class="edge">
<title>Node3&#45;&gt;Node4</title>
<path fill="none" stroke="midnightblue" d="M231.42,-342.85C196.29,-339.03 136.65,-328.55 94.5,-300 38.79,-262.26 3.5,-246.29 3.5,-179 3.5,-179 3.5,-179 3.5,-121 3.5,-90.9 2.25,-78.26 22.5,-56 43.48,-32.93 77.85,-21.51 103.19,-15.96"/>
<polygon fill="midnightblue" stroke="midnightblue" points="103.96,-19.38 113.08,-13.99 102.59,-12.51 103.96,-19.38"/>
</g>
<!-- Node5 -->
<g id="node5" class="node">
<title>Node5</title>
<g id="a_node5"><a xlink:title=" ">
<polygon fill="none" stroke="#bfbfbf" points="184,-168.5 184,-187.5 219,-187.5 219,-168.5 184,-168.5"/>
<text text-anchor="middle" x="201.5" y="-175.5" font-family="Helvetica,sans-Serif" font-size="10.00">map</text>
</a>
</g>
</g>
<!-- Node3&#45;&gt;Node5 -->
<g id="edge4" class="edge">
<title>Node3&#45;&gt;Node5</title>
<path fill="none" stroke="midnightblue" d="M257.33,-336.08C248,-309.83 220.53,-232.55 207.94,-197.12"/>
<polygon fill="midnightblue" stroke="midnightblue" points="211.19,-195.82 204.55,-187.57 204.6,-198.16 211.19,-195.82"/>
</g>
<!-- Node6 -->
<g id="node6" class="node">
<title>Node6</title>
<g id="a_node6"><a xlink:href="node_8hpp.html" target="_top" xlink:title="MODEL::Node source file.">
<polygon fill="none" stroke="black" points="107.5,-112.5 107.5,-131.5 163.5,-131.5 163.5,-112.5 107.5,-112.5"/>
<text text-anchor="middle" x="135.5" y="-119.5" font-family="Helvetica,sans-Serif" font-size="10.00">node.hpp</text>
</a>
</g>
</g>
<!-- Node3&#45;&gt;Node6 -->
<g id="edge5" class="edge">
<title>Node3&#45;&gt;Node6</title>
<path fill="none" stroke="midnightblue" d="M231.27,-342.85C203.16,-339.06 162.01,-328.64 141.5,-300 107.09,-251.96 120.97,-176.28 130.02,-141.55"/>
<polygon fill="midnightblue" stroke="midnightblue" points="133.42,-142.37 132.72,-131.8 126.68,-140.5 133.42,-142.37"/>
</g>
<!-- Node8 -->
<g id="node8" class="node">
<title>Node8</title>
<g id="a_node8"><a xlink:href="dofhandler_8hpp.html" target="_top" xlink:title="MODEL::DOFHandler source file.">
<polygon fill="none" stroke="black" points="95.5,-56.5 95.5,-75.5 175.5,-75.5 175.5,-56.5 95.5,-56.5"/>
<text text-anchor="middle" x="135.5" y="-63.5" font-family="Helvetica,sans-Serif" font-size="10.00">dofhandler.hpp</text>
</a>
</g>
</g>
<!-- Node3&#45;&gt;Node8 -->
<g id="edge10" class="edge">
<title>Node3&#45;&gt;Node8</title>
<path fill="none" stroke="midnightblue" d="M231.42,-340.91C180.25,-331.9 79.5,-305.23 79.5,-235 79.5,-235 79.5,-235 79.5,-177 79.5,-146.9 84.43,-138.61 98.5,-112 104.1,-101.4 112.44,-90.98 119.79,-82.83"/>
<polygon fill="midnightblue" stroke="midnightblue" points="122.36,-85.2 126.67,-75.52 117.27,-80.41 122.36,-85.2"/>
</g>
<!-- Node3&#45;&gt;Node9 -->
<g id="edge11" class="edge">
<title>Node3&#45;&gt;Node9</title>
<path fill="none" stroke="midnightblue" d="M249.93,-336.28C217.73,-308.74 125.95,-222.21 174.5,-168 185.36,-155.87 389.15,-138.05 504.15,-128.9"/>
<polygon fill="midnightblue" stroke="midnightblue" points="504.62,-132.38 514.31,-128.1 504.07,-125.4 504.62,-132.38"/>
</g>
<!-- Node3&#45;&gt;Node11 -->
<g id="edge13" class="edge">
<title>Node3&#45;&gt;Node11</title>
<path fill="none" stroke="midnightblue" d="M289.51,-340.94C349.81,-332.51 490.15,-312.87 575.81,-300.89"/>
<polygon fill="midnightblue" stroke="midnightblue" points="576.3,-304.35 585.72,-299.5 575.33,-297.42 576.3,-304.35"/>
</g>
<!-- Node7 -->
<g id="node7" class="node">
<title>Node7</title>
<g id="a_node7"><a xlink:title=" ">
<polygon fill="none" stroke="#bfbfbf" points="0,-0.5 0,-19.5 41,-19.5 41,-0.5 0,-0.5"/>
<text text-anchor="middle" x="20.5" y="-7.5" font-family="Helvetica,sans-Serif" font-size="10.00">string</text>
</a>
</g>
</g>
<!-- Node6&#45;&gt;Node7 -->
<g id="edge6" class="edge">
<title>Node6&#45;&gt;Node7</title>
<path fill="none" stroke="midnightblue" d="M107.42,-118.36C80.69,-114.2 41.77,-103.49 22.5,-76 13.19,-62.72 13.7,-43.89 15.94,-29.91"/>
<polygon fill="midnightblue" stroke="midnightblue" points="19.4,-30.43 17.95,-19.94 12.54,-29.05 19.4,-30.43"/>
</g>
<!-- Node6&#45;&gt;Node8 -->
<g id="edge7" class="edge">
<title>Node6&#45;&gt;Node8</title>
<path fill="none" stroke="midnightblue" d="M135.5,-112.08C135.5,-105.01 135.5,-94.86 135.5,-85.99"/>
<polygon fill="midnightblue" stroke="midnightblue" points="139,-85.75 135.5,-75.75 132,-85.75 139,-85.75"/>
</g>
<!-- Node8&#45;&gt;Node4 -->
<g id="edge8" class="edge">
<title>Node8&#45;&gt;Node4</title>
<path fill="none" stroke="midnightblue" d="M135.5,-56.08C135.5,-49.01 135.5,-38.86 135.5,-29.99"/>
<polygon fill="midnightblue" stroke="midnightblue" points="139,-29.75 135.5,-19.75 132,-29.75 139,-29.75"/>
</g>
<!-- Node8&#45;&gt;Node7 -->
<g id="edge9" class="edge">
<title>Node8&#45;&gt;Node7</title>
<path fill="none" stroke="midnightblue" d="M117.28,-56.44C98.6,-47.68 69.34,-33.94 47.88,-23.86"/>
<polygon fill="midnightblue" stroke="midnightblue" points="49.18,-20.6 38.64,-19.52 46.2,-26.93 49.18,-20.6"/>
</g>
<!-- Node10 -->
<g id="node10" class="node">
<title>Node10</title>
<g id="a_node10"><a xlink:title=" ">
<polygon fill="none" stroke="#bfbfbf" points="546,-56.5 546,-75.5 617,-75.5 617,-56.5 546,-56.5"/>
<text text-anchor="middle" x="581.5" y="-63.5" font-family="Helvetica,sans-Serif" font-size="10.00">Eigen/Dense</text>
</a>
</g>
</g>
<!-- Node9&#45;&gt;Node10 -->
<g id="edge12" class="edge">
<title>Node9&#45;&gt;Node10</title>
<path fill="none" stroke="midnightblue" d="M581.5,-112.08C581.5,-105.01 581.5,-94.86 581.5,-85.99"/>
<polygon fill="midnightblue" stroke="midnightblue" points="585,-85.75 581.5,-75.75 578,-85.75 585,-85.75"/>
</g>
<!-- Node12 -->
<g id="node12" class="node">
<title>Node12</title>
<g id="a_node12"><a xlink:title=" ">
<polygon fill="none" stroke="#bfbfbf" points="577.5,-224.5 577.5,-243.5 651.5,-243.5 651.5,-224.5 577.5,-224.5"/>
<text text-anchor="middle" x="614.5" y="-231.5" font-family="Helvetica,sans-Serif" font-size="10.00">Eigen/Sparse</text>
</a>
</g>
</g>
<!-- Node11&#45;&gt;Node12 -->
<g id="edge14" class="edge">
<title>Node11&#45;&gt;Node12</title>
<path fill="none" stroke="midnightblue" d="M641.22,-280.08C636.79,-272.61 630.34,-261.72 624.88,-252.52"/>
<polygon fill="midnightblue" stroke="midnightblue" points="627.79,-250.57 619.69,-243.75 621.77,-254.14 627.79,-250.57"/>
</g>
<!-- Node13 -->
<g id="node13" class="node">
<title>Node13</title>
<g id="a_node13"><a xlink:title=" ">
<polygon fill="none" stroke="#bfbfbf" points="707.5,-224.5 707.5,-243.5 795.5,-243.5 795.5,-224.5 707.5,-224.5"/>
<text text-anchor="middle" x="751.5" y="-231.5" font-family="Helvetica,sans-Serif" font-size="10.00">Eigen/SparseLU</text>
</a>
</g>
</g>
<!-- Node11&#45;&gt;Node13 -->
<g id="edge15" class="edge">
<title>Node11&#45;&gt;Node13</title>
<path fill="none" stroke="midnightblue" d="M663.37,-280.32C680.21,-271.66 706.31,-258.24 725.74,-248.25"/>
<polygon fill="midnightblue" stroke="midnightblue" points="727.38,-251.34 734.67,-243.65 724.18,-245.12 727.38,-251.34"/>
</g>
<!-- Node14 -->
<g id="node14" class="node">
<title>Node14</title>
<g id="a_node14"><a xlink:title=" ">
<polygon fill="none" stroke="#bfbfbf" points="813.5,-224.5 813.5,-243.5 867.5,-243.5 867.5,-224.5 813.5,-224.5"/>
<text text-anchor="middle" x="840.5" y="-231.5" font-family="Helvetica,sans-Serif" font-size="10.00">iostream</text>
</a>
</g>
</g>
<!-- Node11&#45;&gt;Node14 -->
<g id="edge16" class="edge">
<title>Node11&#45;&gt;Node14</title>
<path fill="none" stroke="midnightblue" d="M677.24,-280.44C711.52,-270.9 766.94,-255.47 803.55,-245.28"/>
<polygon fill="midnightblue" stroke="midnightblue" points="804.65,-248.61 813.35,-242.56 802.77,-241.87 804.65,-248.61"/>
</g>
<!-- Node15 -->
<g id="node15" class="node">
<title>Node15</title>
<g id="a_node15"><a xlink:href="model_8hpp.html" target="_top" xlink:title="MODEL::Model source file.">
<polygon fill="none" stroke="black" points="347.5,-224.5 347.5,-243.5 445.5,-243.5 445.5,-224.5 347.5,-224.5"/>
<text text-anchor="middle" x="396.5" y="-231.5" font-family="Helvetica,sans-Serif" font-size="10.00">../model/model.hpp</text>
</a>
</g>
</g>
<!-- Node11&#45;&gt;Node15 -->
<g id="edge17" class="edge">
<title>Node11&#45;&gt;Node15</title>
<path fill="none" stroke="midnightblue" d="M601.8,-280.44C556.22,-271.04 486.1,-255.93 440.7,-245.74"/>
<polygon fill="midnightblue" stroke="midnightblue" points="441.37,-242.3 430.85,-243.52 439.83,-249.13 441.37,-242.3"/>
</g>
<!-- Node15&#45;&gt;Node1 -->
<g id="edge27" class="edge">
<title>Node15&#45;&gt;Node1</title>
<path fill="none" stroke="midnightblue" d="M402.44,-243.57C420.52,-269.68 475.19,-348.59 499.56,-383.76"/>
<polygon fill="midnightblue" stroke="midnightblue" points="496.75,-385.85 505.32,-392.08 502.5,-381.86 496.75,-385.85"/>
</g>
<!-- Node15&#45;&gt;Node5 -->
<g id="edge18" class="edge">
<title>Node15&#45;&gt;Node5</title>
<path fill="none" stroke="midnightblue" d="M365.24,-224.42C332.42,-215.4 279.31,-200.77 233.5,-188 232.04,-187.59 230.54,-187.18 229.03,-186.75"/>
<polygon fill="midnightblue" stroke="midnightblue" points="229.67,-183.3 219.1,-183.97 227.78,-190.04 229.67,-183.3"/>
</g>
<!-- Node15&#45;&gt;Node6 -->
<g id="edge42" class="edge">
<title>Node15&#45;&gt;Node6</title>
<path fill="none" stroke="midnightblue" d="M370.35,-224.44C344.86,-215.9 305.13,-202.05 271.5,-188 250.51,-179.23 195.31,-152.4 162.05,-136.08"/>
<polygon fill="midnightblue" stroke="midnightblue" points="163.41,-132.85 152.89,-131.58 160.32,-139.13 163.41,-132.85"/>
</g>
<!-- Node15&#45;&gt;Node8 -->
<g id="edge41" class="edge">
<title>Node15&#45;&gt;Node8</title>
<path fill="none" stroke="midnightblue" d="M376.62,-224.43C357.64,-215.99 328.47,-202.31 304.5,-188 247.25,-153.83 184.61,-105.95 154.18,-81.96"/>
<polygon fill="midnightblue" stroke="midnightblue" points="156.15,-79.06 146.14,-75.58 151.8,-84.54 156.15,-79.06"/>
</g>
<!-- Node15&#45;&gt;Node9 -->
<g id="edge21" class="edge">
<title>Node15&#45;&gt;Node9</title>
<path fill="none" stroke="midnightblue" d="M401.92,-224.13C410.83,-210.25 429.84,-183.42 452.5,-168 475.96,-152.03 505.66,-141.16 530.65,-134.11"/>
<polygon fill="midnightblue" stroke="midnightblue" points="531.58,-137.49 540.32,-131.5 529.76,-130.73 531.58,-137.49"/>
</g>
<!-- Node15&#45;&gt;Node11 -->
<g id="edge22" class="edge">
<title>Node15&#45;&gt;Node11</title>
<path fill="none" stroke="midnightblue" d="M441.01,-243.52C486.52,-252.9 556.64,-268.01 602.1,-278.22"/>
<polygon fill="midnightblue" stroke="midnightblue" points="601.45,-281.66 611.98,-280.44 602.99,-274.83 601.45,-281.66"/>
</g>
<!-- Node16 -->
<g id="node16" class="node">
<title>Node16</title>
<g id="a_node16"><a xlink:title=" ">
<polygon fill="none" stroke="#bfbfbf" points="462,-168.5 462,-187.5 491,-187.5 491,-168.5 462,-168.5"/>
<text text-anchor="middle" x="476.5" y="-175.5" font-family="Helvetica,sans-Serif" font-size="10.00">list</text>
</a>
</g>
</g>
<!-- Node15&#45;&gt;Node16 -->
<g id="edge19" class="edge">
<title>Node15&#45;&gt;Node16</title>
<path fill="none" stroke="midnightblue" d="M409.35,-224.32C421.72,-215.98 440.63,-203.21 455.24,-193.35"/>
<polygon fill="midnightblue" stroke="midnightblue" points="457.35,-196.15 463.68,-187.65 453.43,-190.35 457.35,-196.15"/>
</g>
<!-- Node17 -->
<g id="node17" class="node">
<title>Node17</title>
<g id="a_node17"><a xlink:title=" ">
<polygon fill="none" stroke="#bfbfbf" points="509.5,-168.5 509.5,-187.5 555.5,-187.5 555.5,-168.5 509.5,-168.5"/>
<text text-anchor="middle" x="532.5" y="-175.5" font-family="Helvetica,sans-Serif" font-size="10.00">variant</text>
</a>
</g>
</g>
<!-- Node15&#45;&gt;Node17 -->
<g id="edge20" class="edge">
<title>Node15&#45;&gt;Node17</title>
<path fill="none" stroke="midnightblue" d="M418.05,-224.44C440.53,-215.52 475.99,-201.44 501.48,-191.32"/>
<polygon fill="midnightblue" stroke="midnightblue" points="503.05,-194.46 511.05,-187.52 500.47,-187.95 503.05,-194.46"/>
</g>
<!-- Node18 -->
<g id="node18" class="node">
<title>Node18</title>
<g id="a_node18"><a xlink:href="junction_8hpp.html" target="_top" xlink:title="MODEL::Junction source file.">
<polygon fill="none" stroke="black" points="739.5,-168.5 739.5,-187.5 807.5,-187.5 807.5,-168.5 739.5,-168.5"/>
<text text-anchor="middle" x="773.5" y="-175.5" font-family="Helvetica,sans-Serif" font-size="10.00">junction.hpp</text>
</a>
</g>
</g>
<!-- Node15&#45;&gt;Node18 -->
<g id="edge23" class="edge">
<title>Node15&#45;&gt;Node18</title>
<path fill="none" stroke="midnightblue" d="M445.62,-227.51C508.93,-220.19 622.58,-206.19 729.3,-188.1"/>
<polygon fill="midnightblue" stroke="midnightblue" points="730.01,-191.53 739.28,-186.4 728.83,-184.63 730.01,-191.53"/>
</g>
<!-- Node19 -->
<g id="node19" class="node">
<title>Node19</title>
<g id="a_node19"><a xlink:href="rcrblockwithdistalpressure_8hpp.html" target="_top" xlink:title="MODEL::RCRBlockWithDistalPressure source file.">
<polygon fill="none" stroke="black" points="573.5,-168.5 573.5,-187.5 721.5,-187.5 721.5,-168.5 573.5,-168.5"/>
<text text-anchor="middle" x="647.5" y="-175.5" font-family="Helvetica,sans-Serif" font-size="10.00">rcrblockwithdistalpressure.hpp</text>
</a>
</g>
</g>
<!-- Node15&#45;&gt;Node19 -->
<g id="edge28" class="edge">
<title>Node15&#45;&gt;Node19</title>
<path fill="none" stroke="midnightblue" d="M436.27,-224.44C480.06,-215.02 550.51,-199.87 597.88,-189.68"/>
<polygon fill="midnightblue" stroke="midnightblue" points="598.87,-193.04 607.91,-187.52 597.4,-186.2 598.87,-193.04"/>
</g>
<!-- Node20 -->
<g id="node20" class="node">
<title>Node20</title>
<g id="a_node20"><a xlink:href="flowreference_8hpp.html" target="_top" xlink:title="MODEL::FlowReference source file.">
<polygon fill="none" stroke="black" points="313.5,-168.5 313.5,-187.5 405.5,-187.5 405.5,-168.5 313.5,-168.5"/>
<text text-anchor="middle" x="359.5" y="-175.5" font-family="Helvetica,sans-Serif" font-size="10.00">flowreference.hpp</text>
</a>
</g>
</g>
<!-- Node15&#45;&gt;Node20 -->
<g id="edge32" class="edge">
<title>Node15&#45;&gt;Node20</title>
<path fill="none" stroke="midnightblue" d="M390.39,-224.08C385.22,-216.53 377.65,-205.49 371.31,-196.23"/>
<polygon fill="midnightblue" stroke="midnightblue" points="374.04,-194.02 365.5,-187.75 368.26,-197.98 374.04,-194.02"/>
</g>
<!-- Node18&#45;&gt;Node3 -->
<g id="edge26" class="edge">
<title>Node18&#45;&gt;Node3</title>
<path fill="none" stroke="midnightblue" d="M739.47,-186.17C683.28,-198.04 576.45,-220.82 568.5,-224 552.58,-230.37 550.81,-236.27 535.5,-244 477.15,-273.47 460.86,-277.47 399.5,-300 365.89,-312.34 327.08,-324.75 299.03,-333.41"/>
<polygon fill="midnightblue" stroke="midnightblue" points="297.74,-330.14 289.21,-336.42 299.79,-336.83 297.74,-330.14"/>
</g>
<!-- Node18&#45;&gt;Node9 -->
<g id="edge24" class="edge">
<title>Node18&#45;&gt;Node9</title>
<path fill="none" stroke="midnightblue" d="M743.08,-168.44C710.22,-159.2 657.72,-144.44 621.53,-134.26"/>
<polygon fill="midnightblue" stroke="midnightblue" points="622.35,-130.85 611.78,-131.52 620.46,-137.59 622.35,-130.85"/>
</g>
<!-- Node18&#45;&gt;Node11 -->
<g id="edge25" class="edge">
<title>Node18&#45;&gt;Node11</title>
<path fill="none" stroke="midnightblue" d="M755.34,-187.57C739.37,-195.62 715.99,-208.71 698.5,-224 682.41,-238.06 667.56,-257.57 657.88,-271.53"/>
<polygon fill="midnightblue" stroke="midnightblue" points="654.74,-269.93 652.06,-280.18 660.55,-273.84 654.74,-269.93"/>
</g>
<!-- Node19&#45;&gt;Node3 -->
<g id="edge31" class="edge">
<title>Node19&#45;&gt;Node3</title>
<path fill="none" stroke="midnightblue" d="M627.4,-187.62C563.54,-215.01 365.13,-300.12 289.86,-332.41"/>
<polygon fill="midnightblue" stroke="midnightblue" points="288.3,-329.27 280.49,-336.42 291.06,-335.7 288.3,-329.27"/>
</g>
<!-- Node19&#45;&gt;Node9 -->
<g id="edge29" class="edge">
<title>Node19&#45;&gt;Node9</title>
<path fill="none" stroke="midnightblue" d="M636.9,-168.32C627.04,-160.26 612.15,-148.08 600.28,-138.37"/>
<polygon fill="midnightblue" stroke="midnightblue" points="602.25,-135.46 592.3,-131.83 597.82,-140.88 602.25,-135.46"/>
</g>
<!-- Node19&#45;&gt;Node11 -->
<g id="edge30" class="edge">
<title>Node19&#45;&gt;Node11</title>
<path fill="none" stroke="midnightblue" d="M617.62,-187.61C599.96,-194.41 579.05,-205.85 568.5,-224 555.25,-246.8 584.13,-265.15 610.42,-276.47"/>
<polygon fill="midnightblue" stroke="midnightblue" points="609.33,-279.8 619.91,-280.31 611.96,-273.31 609.33,-279.8"/>
</g>
<!-- Node20&#45;&gt;Node3 -->
<g id="edge35" class="edge">
<title>Node20&#45;&gt;Node3</title>
<path fill="none" stroke="midnightblue" d="M353.57,-187.51C347.38,-196.47 337.49,-211.06 329.5,-224 307.16,-260.19 282.95,-303.76 269.98,-327.5"/>
<polygon fill="midnightblue" stroke="midnightblue" points="266.86,-325.91 265.15,-336.37 273,-329.26 266.86,-325.91"/>
</g>
<!-- Node20&#45;&gt;Node9 -->
<g id="edge33" class="edge">
<title>Node20&#45;&gt;Node9</title>
<path fill="none" stroke="midnightblue" d="M394.68,-168.44C433.08,-159.1 494.68,-144.12 536.56,-133.93"/>
<polygon fill="midnightblue" stroke="midnightblue" points="537.6,-137.28 546.49,-131.52 535.94,-130.48 537.6,-137.28"/>
</g>
<!-- Node20&#45;&gt;Node11 -->
<g id="edge34" class="edge">
<title>Node20&#45;&gt;Node11</title>
<path fill="none" stroke="midnightblue" d="M352.06,-187.62C341.32,-201.14 324.23,-227.49 338.5,-244 367.56,-277.62 486.41,-286.61 567.68,-288.75"/>
<polygon fill="midnightblue" stroke="midnightblue" points="567.81,-292.25 577.89,-288.99 567.97,-285.25 567.81,-292.25"/>
</g>
<!-- Node21 -->
<g id="node21" class="node">
<title>Node21</title>
<g id="a_node21"><a xlink:href="timedependentparameter_8hpp.html" target="_top" xlink:title="MODEL::TimeDependentParameter source file.">
<polygon fill="none" stroke="black" points="288.5,-112.5 288.5,-131.5 430.5,-131.5 430.5,-112.5 288.5,-112.5"/>
<text text-anchor="middle" x="359.5" y="-119.5" font-family="Helvetica,sans-Serif" font-size="10.00">timedependentparameter.hpp</text>
</a>
</g>
</g>
<!-- Node20&#45;&gt;Node21 -->
<g id="edge36" class="edge">
<title>Node20&#45;&gt;Node21</title>
<path fill="none" stroke="midnightblue" d="M359.5,-168.08C359.5,-161.01 359.5,-150.86 359.5,-141.99"/>
<polygon fill="midnightblue" stroke="midnightblue" points="363,-141.75 359.5,-131.75 356,-141.75 363,-141.75"/>
</g>
<!-- Node21&#45;&gt;Node2 -->
<g id="edge37" class="edge">
<title>Node21&#45;&gt;Node2</title>
<path fill="none" stroke="midnightblue" d="M295.4,-112.48C242.11,-104.93 164.14,-92.81 87.65,-76.06"/>
<polygon fill="midnightblue" stroke="midnightblue" points="88.36,-72.64 77.84,-73.89 86.85,-79.47 88.36,-72.64"/>
</g>
<!-- Node21&#45;&gt;Node4 -->
<g id="edge38" class="edge">
<title>Node21&#45;&gt;Node4</title>
<path fill="none" stroke="midnightblue" d="M341.92,-112.37C302.83,-93.17 208.49,-46.84 162.12,-24.07"/>
<polygon fill="midnightblue" stroke="midnightblue" points="163.51,-20.86 153,-19.59 160.43,-27.14 163.51,-20.86"/>
</g>
<!-- Node21&#45;&gt;Node8 -->
<g id="edge40" class="edge">
<title>Node21&#45;&gt;Node8</title>
<path fill="none" stroke="midnightblue" d="M324.01,-112.44C285.18,-103.08 222.84,-88.06 180.58,-77.87"/>
<polygon fill="midnightblue" stroke="midnightblue" points="181.37,-74.46 170.83,-75.52 179.73,-81.26 181.37,-74.46"/>
</g>
<!-- Node22 -->
<g id="node22" class="node">
<title>Node22</title>
<g id="a_node22"><a xlink:title=" ">
<polygon fill="none" stroke="#bfbfbf" points="334,-56.5 334,-75.5 385,-75.5 385,-56.5 334,-56.5"/>
<text text-anchor="middle" x="359.5" y="-63.5" font-family="Helvetica,sans-Serif" font-size="10.00">numeric</text>
</a>
</g>
</g>
<!-- Node21&#45;&gt;Node22 -->
<g id="edge39" class="edge">
<title>Node21&#45;&gt;Node22</title>
<path fill="none" stroke="midnightblue" d="M359.5,-112.08C359.5,-105.01 359.5,-94.86 359.5,-85.99"/>
<polygon fill="midnightblue" stroke="midnightblue" points="363,-85.75 359.5,-75.75 356,-85.75 363,-85.75"/>
</g>
</g>
</svg>
