<?xml version="1.0" encoding="UTF-8" standalone="no"?>
<!DOCTYPE svg PUBLIC "-//W3C//DTD SVG 1.1//EN"
 "http://www.w3.org/Graphics/SVG/1.1/DTD/svg11.dtd">
<!-- Generated by graphviz version 3.0.0 (20220413.0242)
 -->
<!-- Title: model/bloodvessel.hpp Pages: 1 -->
<svg width="1082pt" height="420pt"
 viewBox="0.00 0.00 1081.99 420.00" xmlns="http://www.w3.org/2000/svg" xmlns:xlink="http://www.w3.org/1999/xlink">
<g id="graph0" class="graph" transform="scale(1 1) rotate(0) translate(4 416)">
<title>model/bloodvessel.hpp</title>
<!-- Node1 -->
<g id="node1" class="node">
<title>Node1</title>
<g id="a_node1"><a xlink:title="MODEL::BloodVessel source file.">
<polygon fill="#bfbfbf" stroke="black" points="507.09,-392.5 507.09,-411.5 623.09,-411.5 623.09,-392.5 507.09,-392.5"/>
<text text-anchor="middle" x="565.09" y="-399.5" font-family="Helvetica,sans-Serif" font-size="10.00">model/bloodvessel.hpp</text>
</a>
</g>
</g>
<!-- Node2 -->
<g id="node2" class="node">
<title>Node2</title>
<g id="a_node2"><a xlink:title=" ">
<polygon fill="none" stroke="#bfbfbf" points="87.09,-56.5 87.09,-75.5 133.09,-75.5 133.09,-56.5 87.09,-56.5"/>
<text text-anchor="middle" x="110.09" y="-63.5" font-family="Helvetica,sans-Serif" font-size="10.00">math.h</text>
</a>
</g>
</g>
<!-- Node1&#45;&gt;Node2 -->
<g id="edge1" class="edge">
<title>Node1&#45;&gt;Node2</title>
<path fill="none" stroke="midnightblue" d="M507.01,-401.84C362.83,-402.36 0.09,-393.49 0.09,-291 0.09,-291 0.09,-291 0.09,-177 0.09,-146.9 -0.26,-135.06 19.09,-112 34.04,-94.18 57.76,-82.77 77.24,-75.9"/>
<polygon fill="midnightblue" stroke="midnightblue" points="78.55,-79.15 86.97,-72.71 76.37,-72.5 78.55,-79.15"/>
</g>
<!-- Node3 -->
<g id="node3" class="node">
<title>Node3</title>
<g id="a_node3"><a xlink:href="block_8hpp.html" target="_top" xlink:title="MODEL::Block source file.">
<polygon fill="none" stroke="black" points="536.09,-336.5 536.09,-355.5 594.09,-355.5 594.09,-336.5 536.09,-336.5"/>
<text text-anchor="middle" x="565.09" y="-343.5" font-family="Helvetica,sans-Serif" font-size="10.00">block.hpp</text>
</a>
</g>
</g>
<!-- Node1&#45;&gt;Node3 -->
<g id="edge2" class="edge">
<title>Node1&#45;&gt;Node3</title>
<path fill="none" stroke="midnightblue" d="M565.09,-392.08C565.09,-385.01 565.09,-374.86 565.09,-365.99"/>
<polygon fill="midnightblue" stroke="midnightblue" points="568.59,-365.75 565.09,-355.75 561.59,-365.75 568.59,-365.75"/>
</g>
<!-- Node9 -->
<g id="node9" class="node">
<title>Node9</title>
<g id="a_node9"><a xlink:href="densesystem_8hpp.html" target="_top" xlink:title="ALGEBRA::DenseSystem source file.">
<polygon fill="none" stroke="black" points="713.09,-112.5 713.09,-131.5 847.09,-131.5 847.09,-112.5 713.09,-112.5"/>
<text text-anchor="middle" x="780.09" y="-119.5" font-family="Helvetica,sans-Serif" font-size="10.00">../algebra/densesystem.hpp</text>
</a>
</g>
</g>
<!-- Node1&#45;&gt;Node9 -->
<g id="edge53" class="edge">
<title>Node1&#45;&gt;Node9</title>
<path fill="none" stroke="midnightblue" d="M623.39,-393.81C704.19,-382.23 853.32,-354.95 969.09,-300 1006.67,-282.16 1019.91,-277.85 1044.09,-244 1064.26,-215.75 1084.61,-194.41 1062.09,-168 1036.23,-137.7 931.73,-127.7 857.49,-124.47"/>
<polygon fill="midnightblue" stroke="midnightblue" points="857.36,-120.96 847.23,-124.05 857.08,-127.95 857.36,-120.96"/>
</g>
<!-- Node11 -->
<g id="node11" class="node">
<title>Node11</title>
<g id="a_node11"><a xlink:href="sparsesystem_8hpp.html" target="_top" xlink:title="ALGEBRA::SparseSystem source file.">
<polygon fill="none" stroke="black" points="631.59,-280.5 631.59,-299.5 768.59,-299.5 768.59,-280.5 631.59,-280.5"/>
<text text-anchor="middle" x="700.09" y="-287.5" font-family="Helvetica,sans-Serif" font-size="10.00">../algebra/sparsesystem.hpp</text>
</a>
</g>
</g>
<!-- Node1&#45;&gt;Node11 -->
<g id="edge54" class="edge">
<title>Node1&#45;&gt;Node11</title>
<path fill="none" stroke="midnightblue" d="M575.68,-392.37C598.55,-373.73 652.8,-329.53 681.51,-306.13"/>
<polygon fill="midnightblue" stroke="midnightblue" points="684,-308.62 689.54,-299.59 679.58,-303.19 684,-308.62"/>
</g>
<!-- Node4 -->
<g id="node4" class="node">
<title>Node4</title>
<g id="a_node4"><a xlink:title=" ">
<polygon fill="none" stroke="#bfbfbf" points="479.09,-0.5 479.09,-19.5 523.09,-19.5 523.09,-0.5 479.09,-0.5"/>
<text text-anchor="middle" x="501.09" y="-7.5" font-family="Helvetica,sans-Serif" font-size="10.00">vector</text>
</a>
</g>
</g>
<!-- Node3&#45;&gt;Node4 -->
<g id="edge3" class="edge">
<title>Node3&#45;&gt;Node4</title>
<path fill="none" stroke="midnightblue" d="M594.29,-343.73C675.17,-339.91 900.58,-327.06 969.09,-300 1035.83,-273.64 1100.49,-228.62 1062.09,-168 999.74,-69.58 936.73,-89.28 825.09,-56 721.34,-25.07 592.44,-15.25 533.38,-12.25"/>
<polygon fill="midnightblue" stroke="midnightblue" points="533.34,-8.75 523.18,-11.77 533.01,-15.74 533.34,-8.75"/>
</g>
<!-- Node5 -->
<g id="node5" class="node">
<title>Node5</title>
<g id="a_node5"><a xlink:title=" ">
<polygon fill="none" stroke="#bfbfbf" points="104.59,-168.5 104.59,-187.5 139.59,-187.5 139.59,-168.5 104.59,-168.5"/>
<text text-anchor="middle" x="122.09" y="-175.5" font-family="Helvetica,sans-Serif" font-size="10.00">map</text>
</a>
</g>
</g>
<!-- Node3&#45;&gt;Node5 -->
<g id="edge4" class="edge">
<title>Node3&#45;&gt;Node5</title>
<path fill="none" stroke="midnightblue" d="M535.84,-338.6C502,-330.86 444.8,-316.78 397.09,-300 303.17,-266.98 196.44,-215.94 148.2,-192.1"/>
<polygon fill="midnightblue" stroke="midnightblue" points="149.6,-188.89 139.09,-187.58 146.49,-195.16 149.6,-188.89"/>
</g>
<!-- Node6 -->
<g id="node6" class="node">
<title>Node6</title>
<g id="a_node6"><a xlink:href="node_8hpp.html" target="_top" xlink:title="MODEL::Node source file.">
<polygon fill="none" stroke="black" points="28.09,-112.5 28.09,-131.5 84.09,-131.5 84.09,-112.5 28.09,-112.5"/>
<text text-anchor="middle" x="56.09" y="-119.5" font-family="Helvetica,sans-Serif" font-size="10.00">node.hpp</text>
</a>
</g>
</g>
<!-- Node3&#45;&gt;Node6 -->
<g id="edge5" class="edge">
<title>Node3&#45;&gt;Node6</title>
<path fill="none" stroke="midnightblue" d="M535.9,-344.59C433.46,-342.86 94.77,-334.55 62.09,-300 21.1,-256.69 38.77,-177.42 49.75,-141.53"/>
<polygon fill="midnightblue" stroke="midnightblue" points="53.12,-142.46 52.87,-131.87 46.46,-140.31 53.12,-142.46"/>
</g>
<!-- Node8 -->
<g id="node8" class="node">
<title>Node8</title>
<g id="a_node8"><a xlink:href="dofhandler_8hpp.html" target="_top" xlink:title="MODEL::DOFHandler source file.">
<polygon fill="none" stroke="black" points="364.09,-56.5 364.09,-75.5 444.09,-75.5 444.09,-56.5 364.09,-56.5"/>
<text text-anchor="middle" x="404.09" y="-63.5" font-family="Helvetica,sans-Serif" font-size="10.00">dofhandler.hpp</text>
</a>
</g>
</g>
<!-- Node3&#45;&gt;Node8 -->
<g id="edge10" class="edge">
<title>Node3&#45;&gt;Node8</title>
<path fill="none" stroke="midnightblue" d="M536.01,-341.01C493.29,-334.71 411.37,-320.99 344.09,-300 228.25,-263.86 159.94,-290.56 95.09,-188 34.21,-91.73 251.67,-71.99 353.85,-67.99"/>
<polygon fill="midnightblue" stroke="midnightblue" points="354.09,-71.48 363.96,-67.63 353.84,-64.49 354.09,-71.48"/>
</g>
<!-- Node3&#45;&gt;Node9 -->
<g id="edge11" class="edge">
<title>Node3&#45;&gt;Node9</title>
<path fill="none" stroke="midnightblue" d="M594.51,-345.57C657.94,-345.91 811.46,-341.91 931.09,-300 975.9,-284.3 991.61,-280.42 1022.09,-244 1044.65,-217.03 1066.77,-194.87 1044.09,-168 1020.54,-140.1 926.55,-129.5 857.4,-125.47"/>
<polygon fill="midnightblue" stroke="midnightblue" points="857.56,-121.97 847.38,-124.92 857.18,-128.96 857.56,-121.97"/>
</g>
<!-- Node3&#45;&gt;Node11 -->
<g id="edge13" class="edge">
<title>Node3&#45;&gt;Node11</title>
<path fill="none" stroke="midnightblue" d="M586.48,-336.44C608.79,-327.52 643.99,-313.44 669.29,-303.32"/>
<polygon fill="midnightblue" stroke="midnightblue" points="670.81,-306.48 678.79,-299.52 668.21,-299.98 670.81,-306.48"/>
</g>
<!-- Node7 -->
<g id="node7" class="node">
<title>Node7</title>
<g id="a_node7"><a xlink:title=" ">
<polygon fill="none" stroke="#bfbfbf" points="320.59,-0.5 320.59,-19.5 361.59,-19.5 361.59,-0.5 320.59,-0.5"/>
<text text-anchor="middle" x="341.09" y="-7.5" font-family="Helvetica,sans-Serif" font-size="10.00">string</text>
</a>
</g>
</g>
<!-- Node6&#45;&gt;Node7 -->
<g id="edge6" class="edge">
<title>Node6&#45;&gt;Node7</title>
<path fill="none" stroke="midnightblue" d="M78.45,-112.37C129.2,-92.78 253.15,-44.94 310.75,-22.71"/>
<polygon fill="midnightblue" stroke="midnightblue" points="312.31,-25.86 320.37,-18.99 309.78,-19.33 312.31,-25.86"/>
</g>
<!-- Node6&#45;&gt;Node8 -->
<g id="edge7" class="edge">
<title>Node6&#45;&gt;Node8</title>
<path fill="none" stroke="midnightblue" d="M84.5,-114.65C89.04,-113.71 93.68,-112.79 98.09,-112 187.75,-95.82 292.99,-81.32 353.76,-73.38"/>
<polygon fill="midnightblue" stroke="midnightblue" points="354.39,-76.83 363.85,-72.07 353.48,-69.89 354.39,-76.83"/>
</g>
<!-- Node8&#45;&gt;Node4 -->
<g id="edge8" class="edge">
<title>Node8&#45;&gt;Node4</title>
<path fill="none" stroke="midnightblue" d="M419.67,-56.32C435.08,-47.74 458.9,-34.49 476.8,-24.52"/>
<polygon fill="midnightblue" stroke="midnightblue" points="478.5,-27.58 485.54,-19.65 475.1,-21.46 478.5,-27.58"/>
</g>
<!-- Node8&#45;&gt;Node7 -->
<g id="edge9" class="edge">
<title>Node8&#45;&gt;Node7</title>
<path fill="none" stroke="midnightblue" d="M393.96,-56.32C384.56,-48.26 370.34,-36.08 359.02,-26.37"/>
<polygon fill="midnightblue" stroke="midnightblue" points="361.26,-23.68 351.39,-19.83 356.71,-29 361.26,-23.68"/>
</g>
<!-- Node10 -->
<g id="node10" class="node">
<title>Node10</title>
<g id="a_node10"><a xlink:title=" ">
<polygon fill="none" stroke="#bfbfbf" points="744.59,-56.5 744.59,-75.5 815.59,-75.5 815.59,-56.5 744.59,-56.5"/>
<text text-anchor="middle" x="780.09" y="-63.5" font-family="Helvetica,sans-Serif" font-size="10.00">Eigen/Dense</text>
</a>
</g>
</g>
<!-- Node9&#45;&gt;Node10 -->
<g id="edge12" class="edge">
<title>Node9&#45;&gt;Node10</title>
<path fill="none" stroke="midnightblue" d="M780.09,-112.08C780.09,-105.01 780.09,-94.86 780.09,-85.99"/>
<polygon fill="midnightblue" stroke="midnightblue" points="783.59,-85.75 780.09,-75.75 776.59,-85.75 783.59,-85.75"/>
</g>
<!-- Node12 -->
<g id="node12" class="node">
<title>Node12</title>
<g id="a_node12"><a xlink:title=" ">
<polygon fill="none" stroke="#bfbfbf" points="817.09,-224.5 817.09,-243.5 891.09,-243.5 891.09,-224.5 817.09,-224.5"/>
<text text-anchor="middle" x="854.09" y="-231.5" font-family="Helvetica,sans-Serif" font-size="10.00">Eigen/Sparse</text>
</a>
</g>
</g>
<!-- Node11&#45;&gt;Node12 -->
<g id="edge14" class="edge">
<title>Node11&#45;&gt;Node12</title>
<path fill="none" stroke="midnightblue" d="M724.49,-280.44C750.28,-271.4 791.16,-257.06 820.1,-246.92"/>
<polygon fill="midnightblue" stroke="midnightblue" points="821.52,-250.13 829.8,-243.52 819.2,-243.52 821.52,-250.13"/>
</g>
<!-- Node13 -->
<g id="node13" class="node">
<title>Node13</title>
<g id="a_node13"><a xlink:title=" ">
<polygon fill="none" stroke="#bfbfbf" points="909.09,-224.5 909.09,-243.5 997.09,-243.5 997.09,-224.5 909.09,-224.5"/>
<text text-anchor="middle" x="953.09" y="-231.5" font-family="Helvetica,sans-Serif" font-size="10.00">Eigen/SparseLU</text>
</a>
</g>
</g>
<!-- Node11&#45;&gt;Node13 -->
<g id="edge15" class="edge">
<title>Node11&#45;&gt;Node13</title>
<path fill="none" stroke="midnightblue" d="M740.17,-280.44C784.4,-271 855.62,-255.8 903.37,-245.61"/>
<polygon fill="midnightblue" stroke="midnightblue" points="904.14,-249.03 913.18,-243.52 902.67,-242.18 904.14,-249.03"/>
</g>
<!-- Node14 -->
<g id="node14" class="node">
<title>Node14</title>
<g id="a_node14"><a xlink:title=" ">
<polygon fill="none" stroke="#bfbfbf" points="745.09,-224.5 745.09,-243.5 799.09,-243.5 799.09,-224.5 745.09,-224.5"/>
<text text-anchor="middle" x="772.09" y="-231.5" font-family="Helvetica,sans-Serif" font-size="10.00">iostream</text>
</a>
</g>
</g>
<!-- Node11&#45;&gt;Node14 -->
<g id="edge16" class="edge">
<title>Node11&#45;&gt;Node14</title>
<path fill="none" stroke="midnightblue" d="M711.65,-280.32C722.51,-272.18 738.97,-259.84 751.97,-250.09"/>
<polygon fill="midnightblue" stroke="midnightblue" points="754.41,-252.63 760.31,-243.83 750.21,-247.03 754.41,-252.63"/>
</g>
<!-- Node15 -->
<g id="node15" class="node">
<title>Node15</title>
<g id="a_node15"><a xlink:href="model_8hpp.html" target="_top" xlink:title="MODEL::Model source file.">
<polygon fill="none" stroke="black" points="439.09,-224.5 439.09,-243.5 537.09,-243.5 537.09,-224.5 439.09,-224.5"/>
<text text-anchor="middle" x="488.09" y="-231.5" font-family="Helvetica,sans-Serif" font-size="10.00">../model/model.hpp</text>
</a>
</g>
</g>
<!-- Node11&#45;&gt;Node15 -->
<g id="edge17" class="edge">
<title>Node11&#45;&gt;Node15</title>
<path fill="none" stroke="midnightblue" d="M661.4,-280.44C622.93,-271.16 564.45,-256.31 526.19,-246.13"/>
<polygon fill="midnightblue" stroke="midnightblue" points="527.01,-242.72 516.44,-243.52 525.19,-249.48 527.01,-242.72"/>
</g>
<!-- Node15&#45;&gt;Node1 -->
<g id="edge27" class="edge">
<title>Node15&#45;&gt;Node1</title>
<path fill="none" stroke="midnightblue" d="M489.67,-243.68C493.68,-264.22 505.46,-317.01 527.09,-356 532.96,-366.6 541.54,-377.02 549.06,-385.17"/>
<polygon fill="midnightblue" stroke="midnightblue" points="546.63,-387.69 556.09,-392.48 551.68,-382.84 546.63,-387.69"/>
</g>
<!-- Node15&#45;&gt;Node5 -->
<g id="edge18" class="edge">
<title>Node15&#45;&gt;Node5</title>
<path fill="none" stroke="midnightblue" d="M438.82,-229.61C374.19,-224.48 257.27,-212.84 149.88,-188.04"/>
<polygon fill="midnightblue" stroke="midnightblue" points="150.38,-184.56 139.85,-185.68 148.78,-191.38 150.38,-184.56"/>
</g>
<!-- Node15&#45;&gt;Node6 -->
<g id="edge29" class="edge">
<title>Node15&#45;&gt;Node6</title>
<path fill="none" stroke="midnightblue" d="M483.81,-224.47C476.08,-210.05 458.32,-181.18 434.09,-168 376.11,-136.48 178.55,-126.75 94.47,-124"/>
<polygon fill="midnightblue" stroke="midnightblue" points="94.43,-120.49 84.32,-123.68 94.21,-127.49 94.43,-120.49"/>
</g>
<!-- Node15&#45;&gt;Node8 -->
<g id="edge28" class="edge">
<title>Node15&#45;&gt;Node8</title>
<path fill="none" stroke="midnightblue" d="M484.73,-224.46C479.72,-211.92 469.84,-187.85 460.09,-168 445.42,-138.13 426.23,-104.54 414.55,-84.61"/>
<polygon fill="midnightblue" stroke="midnightblue" points="417.43,-82.59 409.33,-75.76 411.4,-86.15 417.43,-82.59"/>
</g>
<!-- Node15&#45;&gt;Node9 -->
<g id="edge21" class="edge">
<title>Node15&#45;&gt;Node9</title>
<path fill="none" stroke="midnightblue" d="M517.34,-224.46C544.6,-216.19 586.17,-202.76 621.09,-188 639.03,-180.41 642.27,-175.88 660.09,-168 688.17,-155.58 720.84,-143.48 745,-134.96"/>
<polygon fill="midnightblue" stroke="midnightblue" points="746.18,-138.25 754.46,-131.65 743.87,-131.64 746.18,-138.25"/>
</g>
<!-- Node15&#45;&gt;Node11 -->
<g id="edge22" class="edge">
<title>Node15&#45;&gt;Node11</title>
<path fill="none" stroke="midnightblue" d="M526.6,-243.52C565.02,-252.78 623.49,-267.63 661.82,-277.83"/>
<polygon fill="midnightblue" stroke="midnightblue" points="661.02,-281.24 671.58,-280.44 662.83,-274.48 661.02,-281.24"/>
</g>
<!-- Node16 -->
<g id="node16" class="node">
<title>Node16</title>
<g id="a_node16"><a xlink:title=" ">
<polygon fill="none" stroke="#bfbfbf" points="583.59,-168.5 583.59,-187.5 612.59,-187.5 612.59,-168.5 583.59,-168.5"/>
<text text-anchor="middle" x="598.09" y="-175.5" font-family="Helvetica,sans-Serif" font-size="10.00">list</text>
</a>
</g>
</g>
<!-- Node15&#45;&gt;Node16 -->
<g id="edge19" class="edge">
<title>Node15&#45;&gt;Node16</title>
<path fill="none" stroke="midnightblue" d="M505.76,-224.32C524.32,-215.21 553.62,-200.83 574.22,-190.72"/>
<polygon fill="midnightblue" stroke="midnightblue" points="575.84,-193.82 583.28,-186.27 572.76,-187.53 575.84,-193.82"/>
</g>
<!-- Node17 -->
<g id="node17" class="node">
<title>Node17</title>
<g id="a_node17"><a xlink:title=" ">
<polygon fill="none" stroke="#bfbfbf" points="519.09,-168.5 519.09,-187.5 565.09,-187.5 565.09,-168.5 519.09,-168.5"/>
<text text-anchor="middle" x="542.09" y="-175.5" font-family="Helvetica,sans-Serif" font-size="10.00">variant</text>
</a>
</g>
</g>
<!-- Node15&#45;&gt;Node17 -->
<g id="edge20" class="edge">
<title>Node15&#45;&gt;Node17</title>
<path fill="none" stroke="midnightblue" d="M497,-224.08C504.87,-216.22 516.52,-204.57 526,-195.08"/>
<polygon fill="midnightblue" stroke="midnightblue" points="528.74,-197.3 533.33,-187.75 523.79,-192.35 528.74,-197.3"/>
</g>
<!-- Node18 -->
<g id="node18" class="node">
<title>Node18</title>
<g id="a_node18"><a xlink:href="junction_8hpp.html" target="_top" xlink:title="MODEL::Junction source file.">
<polygon fill="none" stroke="black" points="801.09,-168.5 801.09,-187.5 869.09,-187.5 869.09,-168.5 801.09,-168.5"/>
<text text-anchor="middle" x="835.09" y="-175.5" font-family="Helvetica,sans-Serif" font-size="10.00">junction.hpp</text>
</a>
</g>
</g>
<!-- Node15&#45;&gt;Node18 -->
<g id="edge23" class="edge">
<title>Node15&#45;&gt;Node18</title>
<path fill="none" stroke="midnightblue" d="M537.2,-226.64C595.36,-218.91 695.4,-204.98 790.75,-188.15"/>
<polygon fill="midnightblue" stroke="midnightblue" points="791.62,-191.55 800.85,-186.36 790.4,-184.66 791.62,-191.55"/>
</g>
<!-- Node19 -->
<g id="node19" class="node">
<title>Node19</title>
<g id="a_node19"><a xlink:href="flowreference_8hpp.html" target="_top" xlink:title="MODEL::FlowReference source file.">
<polygon fill="none" stroke="black" points="333.09,-168.5 333.09,-187.5 425.09,-187.5 425.09,-168.5 333.09,-168.5"/>
<text text-anchor="middle" x="379.09" y="-175.5" font-family="Helvetica,sans-Serif" font-size="10.00">flowreference.hpp</text>
</a>
</g>
</g>
<!-- Node15&#45;&gt;Node19 -->
<g id="edge30" class="edge">
<title>Node15&#45;&gt;Node19</title>
<path fill="none" stroke="midnightblue" d="M470.57,-224.32C453.01,-215.62 425.75,-202.12 405.55,-192.11"/>
<polygon fill="midnightblue" stroke="midnightblue" points="407.07,-188.96 396.55,-187.65 403.96,-195.23 407.07,-188.96"/>
</g>
<!-- Node22 -->
<g id="node22" class="node">
<title>Node22</title>
<g id="a_node22"><a xlink:href="pressurereference_8hpp.html" target="_top" xlink:title="MODEL::PressureReference source file.">
<polygon fill="none" stroke="black" points="669.59,-168.5 669.59,-187.5 782.59,-187.5 782.59,-168.5 669.59,-168.5"/>
<text text-anchor="middle" x="726.09" y="-175.5" font-family="Helvetica,sans-Serif" font-size="10.00">pressurereference.hpp</text>
</a>
</g>
</g>
<!-- Node15&#45;&gt;Node22 -->
<g id="edge39" class="edge">
<title>Node15&#45;&gt;Node22</title>
<path fill="none" stroke="midnightblue" d="M525.8,-224.44C567.23,-215.04 633.84,-199.93 678.75,-189.74"/>
<polygon fill="midnightblue" stroke="midnightblue" points="679.57,-193.14 688.55,-187.52 678.02,-186.32 679.57,-193.14"/>
</g>
<!-- Node23 -->
<g id="node23" class="node">
<title>Node23</title>
<g id="a_node23"><a xlink:href="rcrblockwithdistalpressure_8hpp.html" target="_top" xlink:title="MODEL::RCRBlockWithDistalPressure source file.">
<polygon fill="none" stroke="black" points="887.09,-168.5 887.09,-187.5 1035.09,-187.5 1035.09,-168.5 887.09,-168.5"/>
<text text-anchor="middle" x="961.09" y="-175.5" font-family="Helvetica,sans-Serif" font-size="10.00">rcrblockwithdistalpressure.hpp</text>
</a>
</g>
</g>
<!-- Node15&#45;&gt;Node23 -->
<g id="edge44" class="edge">
<title>Node15&#45;&gt;Node23</title>
<path fill="none" stroke="midnightblue" d="M537.37,-227.37C617.78,-218.19 778.11,-199.89 876.85,-188.62"/>
<polygon fill="midnightblue" stroke="midnightblue" points="877.26,-192.09 886.8,-187.48 876.46,-185.14 877.26,-192.09"/>
</g>
<!-- Node24 -->
<g id="node24" class="node">
<title>Node24</title>
<g id="a_node24"><a xlink:href="resistancewithdistalpressure_8hpp.html" target="_top" xlink:title="MODEL::ResistanceWithDistalPressure source file.">
<polygon fill="none" stroke="black" points="157.09,-168.5 157.09,-187.5 315.09,-187.5 315.09,-168.5 157.09,-168.5"/>
<text text-anchor="middle" x="236.09" y="-175.5" font-family="Helvetica,sans-Serif" font-size="10.00">resistancewithdistalpressure.hpp</text>
</a>
</g>
</g>
<!-- Node15&#45;&gt;Node24 -->
<g id="edge48" class="edge">
<title>Node15&#45;&gt;Node24</title>
<path fill="none" stroke="midnightblue" d="M448.16,-224.44C404.19,-215.02 333.46,-199.87 285.9,-189.68"/>
<polygon fill="midnightblue" stroke="midnightblue" points="286.34,-186.19 275.83,-187.52 284.87,-193.03 286.34,-186.19"/>
</g>
<!-- Node18&#45;&gt;Node3 -->
<g id="edge26" class="edge">
<title>Node18&#45;&gt;Node3</title>
<path fill="none" stroke="midnightblue" d="M802.93,-187.52C766.76,-197.37 710.53,-213.57 691.09,-224 656.28,-242.67 650.54,-252.61 622.09,-280 606.12,-295.37 589.61,-314.63 578.49,-328.19"/>
<polygon fill="midnightblue" stroke="midnightblue" points="575.6,-326.2 572.03,-336.17 581.04,-330.6 575.6,-326.2"/>
</g>
<!-- Node18&#45;&gt;Node9 -->
<g id="edge24" class="edge">
<title>Node18&#45;&gt;Node9</title>
<path fill="none" stroke="midnightblue" d="M826,-168.08C817.91,-160.14 805.89,-148.34 796.18,-138.8"/>
<polygon fill="midnightblue" stroke="midnightblue" points="798.59,-136.26 789,-131.75 793.68,-141.25 798.59,-136.26"/>
</g>
<!-- Node18&#45;&gt;Node11 -->
<g id="edge25" class="edge">
<title>Node18&#45;&gt;Node11</title>
<path fill="none" stroke="midnightblue" d="M800.81,-186.11C765.83,-194.12 715.01,-208.13 703.09,-224 693.24,-237.11 693.59,-256.26 695.75,-270.38"/>
<polygon fill="midnightblue" stroke="midnightblue" points="692.36,-271.26 697.7,-280.41 699.23,-269.93 692.36,-271.26"/>
</g>
<!-- Node19&#45;&gt;Node3 -->
<g id="edge33" class="edge">
<title>Node19&#45;&gt;Node3</title>
<path fill="none" stroke="midnightblue" d="M380.64,-187.9C383.36,-201.33 390.1,-227.01 404.09,-244 439.17,-286.61 497.14,-316.66 533.12,-332.37"/>
<polygon fill="midnightblue" stroke="midnightblue" points="532.07,-335.73 542.64,-336.42 534.81,-329.28 532.07,-335.73"/>
</g>
<!-- Node19&#45;&gt;Node9 -->
<g id="edge31" class="edge">
<title>Node19&#45;&gt;Node9</title>
<path fill="none" stroke="midnightblue" d="M425.48,-170.75C494.45,-161.46 624.69,-143.93 706.68,-132.89"/>
<polygon fill="midnightblue" stroke="midnightblue" points="707.23,-136.34 716.68,-131.54 706.3,-129.4 707.23,-136.34"/>
</g>
<!-- Node19&#45;&gt;Node11 -->
<g id="edge32" class="edge">
<title>Node19&#45;&gt;Node11</title>
<path fill="none" stroke="midnightblue" d="M383.29,-187.87C390.61,-202.24 407.14,-230.39 430.09,-244 461.63,-262.71 553.26,-275.21 621.07,-282.2"/>
<polygon fill="midnightblue" stroke="midnightblue" points="621.02,-285.71 631.32,-283.23 621.72,-278.74 621.02,-285.71"/>
</g>
<!-- Node20 -->
<g id="node20" class="node">
<title>Node20</title>
<g id="a_node20"><a xlink:href="timedependentparameter_8hpp.html" target="_top" xlink:title="MODEL::TimeDependentParameter source file.">
<polygon fill="none" stroke="black" points="458.09,-112.5 458.09,-131.5 600.09,-131.5 600.09,-112.5 458.09,-112.5"/>
<text text-anchor="middle" x="529.09" y="-119.5" font-family="Helvetica,sans-Serif" font-size="10.00">timedependentparameter.hpp</text>
</a>
</g>
</g>
<!-- Node19&#45;&gt;Node20 -->
<g id="edge34" class="edge">
<title>Node19&#45;&gt;Node20</title>
<path fill="none" stroke="midnightblue" d="M402.85,-168.44C427.98,-159.4 467.8,-145.06 495.99,-134.92"/>
<polygon fill="midnightblue" stroke="midnightblue" points="497.21,-138.2 505.43,-131.52 494.83,-131.61 497.21,-138.2"/>
</g>
<!-- Node20&#45;&gt;Node2 -->
<g id="edge35" class="edge">
<title>Node20&#45;&gt;Node2</title>
<path fill="none" stroke="midnightblue" d="M462.69,-112.44C372.01,-100.76 212.81,-80.24 143.69,-71.33"/>
<polygon fill="midnightblue" stroke="midnightblue" points="143.76,-67.81 133.4,-70 142.87,-74.75 143.76,-67.81"/>
</g>
<!-- Node20&#45;&gt;Node4 -->
<g id="edge36" class="edge">
<title>Node20&#45;&gt;Node4</title>
<path fill="none" stroke="midnightblue" d="M526.89,-112.37C522.37,-94.62 511.95,-53.67 505.82,-29.6"/>
<polygon fill="midnightblue" stroke="midnightblue" points="509.13,-28.42 503.27,-19.59 502.35,-30.15 509.13,-28.42"/>
</g>
<!-- Node20&#45;&gt;Node8 -->
<g id="edge38" class="edge">
<title>Node20&#45;&gt;Node8</title>
<path fill="none" stroke="midnightblue" d="M509.28,-112.44C488.8,-103.6 456.6,-89.69 433.22,-79.59"/>
<polygon fill="midnightblue" stroke="midnightblue" points="434.37,-76.27 423.8,-75.52 431.59,-82.7 434.37,-76.27"/>
</g>
<!-- Node21 -->
<g id="node21" class="node">
<title>Node21</title>
<g id="a_node21"><a xlink:title=" ">
<polygon fill="none" stroke="#bfbfbf" points="529.59,-56.5 529.59,-75.5 580.59,-75.5 580.59,-56.5 529.59,-56.5"/>
<text text-anchor="middle" x="555.09" y="-63.5" font-family="Helvetica,sans-Serif" font-size="10.00">numeric</text>
</a>
</g>
</g>
<!-- Node20&#45;&gt;Node21 -->
<g id="edge37" class="edge">
<title>Node20&#45;&gt;Node21</title>
<path fill="none" stroke="midnightblue" d="M533.38,-112.08C536.94,-104.69 542.11,-93.95 546.51,-84.81"/>
<polygon fill="midnightblue" stroke="midnightblue" points="549.69,-86.28 550.87,-75.75 543.38,-83.24 549.69,-86.28"/>
</g>
<!-- Node22&#45;&gt;Node3 -->
<g id="edge42" class="edge">
<title>Node22&#45;&gt;Node3</title>
<path fill="none" stroke="midnightblue" d="M708.17,-187.53C678.99,-202.31 621.24,-235.42 589.09,-280 578.98,-294.01 572.66,-312.76 569.06,-326.52"/>
<polygon fill="midnightblue" stroke="midnightblue" points="565.64,-325.76 566.73,-336.3 572.45,-327.38 565.64,-325.76"/>
</g>
<!-- Node22&#45;&gt;Node9 -->
<g id="edge40" class="edge">
<title>Node22&#45;&gt;Node9</title>
<path fill="none" stroke="midnightblue" d="M735,-168.08C742.87,-160.22 754.52,-148.57 764,-139.08"/>
<polygon fill="midnightblue" stroke="midnightblue" points="766.74,-141.3 771.33,-131.75 761.79,-136.35 766.74,-141.3"/>
</g>
<!-- Node22&#45;&gt;Node11 -->
<g id="edge41" class="edge">
<title>Node22&#45;&gt;Node11</title>
<path fill="none" stroke="midnightblue" d="M706.18,-187.59C691.86,-194.96 673.63,-207.08 665.09,-224 656.57,-240.86 669.47,-259.86 681.94,-272.94"/>
<polygon fill="midnightblue" stroke="midnightblue" points="679.84,-275.78 689.45,-280.25 684.72,-270.77 679.84,-275.78"/>
</g>
<!-- Node22&#45;&gt;Node20 -->
<g id="edge43" class="edge">
<title>Node22&#45;&gt;Node20</title>
<path fill="none" stroke="midnightblue" d="M694.87,-168.44C661.15,-159.2 607.29,-144.44 570.15,-134.26"/>
<polygon fill="midnightblue" stroke="midnightblue" points="570.72,-130.78 560.15,-131.52 568.87,-137.54 570.72,-130.78"/>
</g>
<!-- Node23&#45;&gt;Node3 -->
<g id="edge47" class="edge">
<title>Node23&#45;&gt;Node3</title>
<path fill="none" stroke="midnightblue" d="M974.66,-187.64C992.89,-200.32 1021.33,-224.56 1006.09,-244 956.34,-307.44 702.83,-334.08 604.31,-342.15"/>
<polygon fill="midnightblue" stroke="midnightblue" points="603.87,-338.67 594.18,-342.96 604.43,-345.65 603.87,-338.67"/>
</g>
<!-- Node23&#45;&gt;Node9 -->
<g id="edge45" class="edge">
<title>Node23&#45;&gt;Node9</title>
<path fill="none" stroke="midnightblue" d="M932.41,-168.44C901.56,-159.24 852.36,-144.56 818.26,-134.39"/>
<polygon fill="midnightblue" stroke="midnightblue" points="819.21,-131.02 808.63,-131.52 817.21,-137.73 819.21,-131.02"/>
</g>
<!-- Node23&#45;&gt;Node11 -->
<g id="edge46" class="edge">
<title>Node23&#45;&gt;Node11</title>
<path fill="none" stroke="midnightblue" d="M886.88,-187.06C830.88,-194.37 759.8,-206.66 736.09,-224 720.5,-235.39 710.83,-255.68 705.49,-270.57"/>
<polygon fill="midnightblue" stroke="midnightblue" points="702.11,-269.66 702.34,-280.25 708.76,-271.83 702.11,-269.66"/>
</g>
<!-- Node24&#45;&gt;Node3 -->
<g id="edge51" class="edge">
<title>Node24&#45;&gt;Node3</title>
<path fill="none" stroke="midnightblue" d="M249.26,-187.68C268.69,-200.39 306.3,-224.68 339.09,-244 383.64,-270.26 393.97,-278.67 441.09,-300 469.51,-312.87 502.79,-324.78 527.72,-333.12"/>
<polygon fill="midnightblue" stroke="midnightblue" points="526.92,-336.54 537.51,-336.35 529.11,-329.89 526.92,-336.54"/>
</g>
<!-- Node24&#45;&gt;Node9 -->
<g id="edge49" class="edge">
<title>Node24&#45;&gt;Node9</title>
<path fill="none" stroke="midnightblue" d="M315.24,-168.89C318.23,-168.59 321.18,-168.29 324.09,-168 457.08,-154.64 611.93,-139.43 702.66,-130.56"/>
<polygon fill="midnightblue" stroke="midnightblue" points="703.25,-134.02 712.86,-129.56 702.57,-127.05 703.25,-134.02"/>
</g>
<!-- Node24&#45;&gt;Node11 -->
<g id="edge50" class="edge">
<title>Node24&#45;&gt;Node11</title>
<path fill="none" stroke="midnightblue" d="M254.29,-187.57C284.66,-201.51 347.87,-229.04 404.09,-244 476.38,-263.23 560.94,-275.06 621.13,-281.74"/>
<polygon fill="midnightblue" stroke="midnightblue" points="621.01,-285.24 631.32,-282.84 621.76,-278.28 621.01,-285.24"/>
</g>
<!-- Node24&#45;&gt;Node20 -->
<g id="edge52" class="edge">
<title>Node24&#45;&gt;Node20</title>
<path fill="none" stroke="midnightblue" d="M282.51,-168.44C334.16,-158.92 417.6,-143.55 472.89,-133.36"/>
<polygon fill="midnightblue" stroke="midnightblue" points="473.68,-136.77 482.88,-131.52 472.41,-129.89 473.68,-136.77"/>
</g>
</g>
</svg>
