<?xml version="1.0" encoding="UTF-8" standalone="no"?>
<!DOCTYPE svg PUBLIC "-//W3C//DTD SVG 1.1//EN"
 "http://www.w3.org/Graphics/SVG/1.1/DTD/svg11.dtd">
<!-- Generated by graphviz version 3.0.0 (20221109.1736)
 -->
<!-- Title: model/bloodvesseljunction.hpp Pages: 1 -->
<svg width="157pt" height="196pt"
 viewBox="0.00 0.00 157.00 196.00" xmlns="http://www.w3.org/2000/svg" xmlns:xlink="http://www.w3.org/1999/xlink">
<g id="graph0" class="graph" transform="scale(1 1) rotate(0) translate(4 192)">
<title>model/bloodvesseljunction.hpp</title>
<!-- Node1 -->
<g id="node1" class="node">
<title>Node1</title>
<g id="a_node1"><a xlink:title="MODEL::BloodVesselJunction source file.">
<polygon fill="#bfbfbf" stroke="black" points="0,-168.5 0,-187.5 149,-187.5 149,-168.5 0,-168.5"/>
<text text-anchor="middle" x="74.5" y="-175.5" font-family="Helvetica,sans-Serif" font-size="10.00">model/bloodvesseljunction.hpp</text>
</a>
</g>
</g>
<!-- Node2 -->
<g id="node2" class="node">
<title>Node2</title>
<g id="a_node2"><a xlink:href="configreader_8hpp.html" target="_top" xlink:title="IO::ConfigReader source file.">
<polygon fill="none" stroke="black" points="25.5,-112.5 25.5,-131.5 123.5,-131.5 123.5,-112.5 25.5,-112.5"/>
<text text-anchor="middle" x="74.5" y="-119.5" font-family="Helvetica,sans-Serif" font-size="10.00">io/configreader.hpp</text>
</a>
</g>
</g>
<!-- Node1&#45;&gt;Node2 -->
<g id="edge1" class="edge">
<title>Node1&#45;&gt;Node2</title>
<path fill="none" stroke="midnightblue" d="M74.5,-157.8C74.5,-148.91 74.5,-138.78 74.5,-131.75"/>
<polygon fill="midnightblue" stroke="midnightblue" points="71,-158.08 74.5,-168.08 78,-158.08 71,-158.08"/>
</g>
<!-- Node3 -->
<g id="node3" class="node">
<title>Node3</title>
<g id="a_node3"><a xlink:href="main_8hpp.html" target="_top" xlink:title="Main page documentation.">
<polygon fill="none" stroke="black" points="46.5,-56.5 46.5,-75.5 102.5,-75.5 102.5,-56.5 46.5,-56.5"/>
<text text-anchor="middle" x="74.5" y="-63.5" font-family="Helvetica,sans-Serif" font-size="10.00">main.hpp</text>
</a>
</g>
</g>
<!-- Node2&#45;&gt;Node3 -->
<g id="edge2" class="edge">
<title>Node2&#45;&gt;Node3</title>
<path fill="none" stroke="midnightblue" d="M74.5,-101.8C74.5,-92.91 74.5,-82.78 74.5,-75.75"/>
<polygon fill="midnightblue" stroke="midnightblue" points="71,-102.08 74.5,-112.08 78,-102.08 71,-102.08"/>
</g>
<!-- Node4 -->
<g id="node4" class="node">
<title>Node4</title>
<g id="a_node4"><a xlink:href="main_8cpp.html" target="_top" xlink:title="Main routine of svZeroDSolver.">
<polygon fill="none" stroke="black" points="7.5,-0.5 7.5,-19.5 63.5,-19.5 63.5,-0.5 7.5,-0.5"/>
<text text-anchor="middle" x="35.5" y="-7.5" font-family="Helvetica,sans-Serif" font-size="10.00">main.cpp</text>
</a>
</g>
</g>
<!-- Node3&#45;&gt;Node4 -->
<g id="edge3" class="edge">
<title>Node3&#45;&gt;Node4</title>
<path fill="none" stroke="midnightblue" d="M62.12,-47.86C55.36,-38.5 47.29,-27.33 41.82,-19.75"/>
<polygon fill="midnightblue" stroke="midnightblue" points="59.37,-50.03 68.06,-56.08 65.04,-45.93 59.37,-50.03"/>
</g>
<!-- Node5 -->
<g id="node5" class="node">
<title>Node5</title>
<g id="a_node5"><a xlink:href="python_8cpp.html" target="_top" xlink:title="Python binding for svZeroDSolver.">
<polygon fill="none" stroke="black" points="82,-0.5 82,-19.5 145,-19.5 145,-0.5 82,-0.5"/>
<text text-anchor="middle" x="113.5" y="-7.5" font-family="Helvetica,sans-Serif" font-size="10.00">python.cpp</text>
</a>
</g>
</g>
<!-- Node3&#45;&gt;Node5 -->
<g id="edge4" class="edge">
<title>Node3&#45;&gt;Node5</title>
<path fill="none" stroke="midnightblue" d="M86.88,-47.86C93.64,-38.5 101.71,-27.33 107.18,-19.75"/>
<polygon fill="midnightblue" stroke="midnightblue" points="83.96,-45.93 80.94,-56.08 89.63,-50.03 83.96,-45.93"/>
</g>
</g>
</svg>
