<?xml version="1.0" encoding="UTF-8" standalone="no"?>
<!DOCTYPE svg PUBLIC "-//W3C//DTD SVG 1.1//EN"
 "http://www.w3.org/Graphics/SVG/1.1/DTD/svg11.dtd">
<!-- Generated by graphviz version 3.0.0 (20220413.0242)
 -->
<!-- Title: MODEL::Block&lt; T &gt; Pages: 1 -->
<svg width="347pt" height="306pt"
 viewBox="0.00 0.00 347.00 306.00" xmlns="http://www.w3.org/2000/svg" xmlns:xlink="http://www.w3.org/1999/xlink">
<g id="graph0" class="graph" transform="scale(1 1) rotate(0) translate(4 302)">
<title>MODEL::Block&lt; T &gt;</title>
<!-- Node1 -->
<g id="node1" class="node">
<title>Node1</title>
<g id="a_node1"><a xlink:title="Base class for 0D model components.">
<polygon fill="#bfbfbf" stroke="black" points="0,-145.5 0,-164.5 103,-164.5 103,-145.5 0,-145.5"/>
<text text-anchor="middle" x="51.5" y="-152.5" font-family="Helvetica,sans-Serif" font-size="10.00">MODEL::Block&lt; T &gt;</text>
</a>
</g>
</g>
<!-- Node2 -->
<g id="node2" class="node">
<title>Node2</title>
<g id="a_node2"><a xlink:href="class_m_o_d_e_l_1_1_blood_vessel.html" target="_top" xlink:title="Resistor&#45;capacitor&#45;inductor blood vessel with optional stenosis.">
<polygon fill="none" stroke="black" points="172.5,-278.5 172.5,-297.5 305.5,-297.5 305.5,-278.5 172.5,-278.5"/>
<text text-anchor="middle" x="239" y="-285.5" font-family="Helvetica,sans-Serif" font-size="10.00">MODEL::BloodVessel&lt; T &gt;</text>
</a>
</g>
</g>
<!-- Node1&#45;&gt;Node2 -->
<g id="edge1" class="edge">
<title>Node1&#45;&gt;Node2</title>
<path fill="none" stroke="midnightblue" d="M61.16,-173.66C74.19,-199.5 101.36,-245.63 139,-269 149.04,-275.23 160.66,-279.5 172.34,-282.4"/>
<polygon fill="midnightblue" stroke="midnightblue" points="64.25,-172.01 56.73,-164.54 57.95,-175.07 64.25,-172.01"/>
</g>
<!-- Node3 -->
<g id="node3" class="node">
<title>Node3</title>
<g id="a_node3"><a xlink:href="class_m_o_d_e_l_1_1_closed_loop_heart_pulmonary.html" target="_top" xlink:title="RCR boundary condition element.">
<polygon fill="none" stroke="black" points="139,-240.5 139,-259.5 339,-259.5 339,-240.5 139,-240.5"/>
<text text-anchor="middle" x="239" y="-247.5" font-family="Helvetica,sans-Serif" font-size="10.00">MODEL::ClosedLoopHeartPulmonary&lt; T &gt;</text>
</a>
</g>
</g>
<!-- Node1&#45;&gt;Node3 -->
<g id="edge2" class="edge">
<title>Node1&#45;&gt;Node3</title>
<path fill="none" stroke="midnightblue" d="M67.29,-172.6C83.15,-190.25 109.99,-216.8 139,-231 146.94,-234.89 155.6,-237.98 164.38,-240.44"/>
<polygon fill="midnightblue" stroke="midnightblue" points="69.64,-169.97 60.42,-164.74 64.36,-174.57 69.64,-169.97"/>
</g>
<!-- Node4 -->
<g id="node4" class="node">
<title>Node4</title>
<g id="a_node4"><a xlink:href="class_m_o_d_e_l_1_1_flow_reference_b_c.html" target="_top" xlink:title="Flow reference boundary condition.">
<polygon fill="none" stroke="black" points="160.5,-202.5 160.5,-221.5 317.5,-221.5 317.5,-202.5 160.5,-202.5"/>
<text text-anchor="middle" x="239" y="-209.5" font-family="Helvetica,sans-Serif" font-size="10.00">MODEL::FlowReferenceBC&lt; T &gt;</text>
</a>
</g>
</g>
<!-- Node1&#45;&gt;Node4 -->
<g id="edge3" class="edge">
<title>Node1&#45;&gt;Node4</title>
<path fill="none" stroke="midnightblue" d="M80.11,-169.03C96.8,-177.03 118.71,-186.68 139,-193 151.03,-196.75 164.13,-199.89 176.73,-202.47"/>
<polygon fill="midnightblue" stroke="midnightblue" points="81.45,-165.79 70.93,-164.55 78.38,-172.08 81.45,-165.79"/>
</g>
<!-- Node5 -->
<g id="node5" class="node">
<title>Node5</title>
<g id="a_node5"><a xlink:href="class_m_o_d_e_l_1_1_junction.html" target="_top" xlink:title="Junction.">
<polygon fill="none" stroke="black" points="181.5,-164.5 181.5,-183.5 296.5,-183.5 296.5,-164.5 181.5,-164.5"/>
<text text-anchor="middle" x="239" y="-171.5" font-family="Helvetica,sans-Serif" font-size="10.00">MODEL::Junction&lt; T &gt;</text>
</a>
</g>
</g>
<!-- Node1&#45;&gt;Node5 -->
<g id="edge4" class="edge">
<title>Node1&#45;&gt;Node5</title>
<path fill="none" stroke="midnightblue" d="M113.38,-161.24C135.31,-163.48 159.95,-166.01 181.49,-168.21"/>
<polygon fill="midnightblue" stroke="midnightblue" points="113.49,-157.73 103.19,-160.19 112.78,-164.69 113.49,-157.73"/>
</g>
<!-- Node6 -->
<g id="node6" class="node">
<title>Node6</title>
<g id="a_node6"><a xlink:href="class_m_o_d_e_l_1_1_open_loop_coronary_b_c.html" target="_top" xlink:title="Open loop coronary boundary condition based on .">
<polygon fill="none" stroke="black" points="151.5,-126.5 151.5,-145.5 326.5,-145.5 326.5,-126.5 151.5,-126.5"/>
<text text-anchor="middle" x="239" y="-133.5" font-family="Helvetica,sans-Serif" font-size="10.00">MODEL::OpenLoopCoronaryBC&lt; T &gt;</text>
</a>
</g>
</g>
<!-- Node1&#45;&gt;Node6 -->
<g id="edge5" class="edge">
<title>Node1&#45;&gt;Node6</title>
<path fill="none" stroke="midnightblue" d="M113.22,-148.78C125.42,-147.53 138.46,-146.2 151.34,-144.88"/>
<polygon fill="midnightblue" stroke="midnightblue" points="112.78,-145.31 103.19,-149.81 113.49,-152.27 112.78,-145.31"/>
</g>
<!-- Node7 -->
<g id="node7" class="node">
<title>Node7</title>
<g id="a_node7"><a xlink:href="class_m_o_d_e_l_1_1_pressure_reference_b_c.html" target="_top" xlink:title="Pressure reference boundary condition.">
<polygon fill="none" stroke="black" points="169.5,-77 169.5,-107 308.5,-107 308.5,-77 169.5,-77"/>
<text text-anchor="start" x="177.5" y="-95" font-family="Helvetica,sans-Serif" font-size="10.00">MODEL::PressureReference</text>
<text text-anchor="middle" x="239" y="-84" font-family="Helvetica,sans-Serif" font-size="10.00">BC&lt; T &gt;</text>
</a>
</g>
</g>
<!-- Node1&#45;&gt;Node7 -->
<g id="edge6" class="edge">
<title>Node1&#45;&gt;Node7</title>
<path fill="none" stroke="midnightblue" d="M80.9,-141.09C97.55,-133.3 119.16,-123.81 139,-117 149.56,-113.37 160.92,-110.02 172.05,-107.02"/>
<polygon fill="midnightblue" stroke="midnightblue" points="79.25,-138 71.71,-145.45 82.25,-144.33 79.25,-138"/>
</g>
<!-- Node8 -->
<g id="node8" class="node">
<title>Node8</title>
<g id="a_node8"><a xlink:href="class_m_o_d_e_l_1_1_resistance_b_c.html" target="_top" xlink:title="Resistance boundary condition.">
<polygon fill="none" stroke="black" points="169,-38.5 169,-57.5 309,-57.5 309,-38.5 169,-38.5"/>
<text text-anchor="middle" x="239" y="-45.5" font-family="Helvetica,sans-Serif" font-size="10.00">MODEL::ResistanceBC&lt; T &gt;</text>
</a>
</g>
</g>
<!-- Node1&#45;&gt;Node8 -->
<g id="edge7" class="edge">
<title>Node1&#45;&gt;Node8</title>
<path fill="none" stroke="midnightblue" d="M65.14,-137.01C80.29,-116.89 107.61,-84.9 139,-68 148.19,-63.05 158.45,-59.33 168.8,-56.52"/>
<polygon fill="midnightblue" stroke="midnightblue" points="62.14,-135.19 59.06,-145.33 67.79,-139.32 62.14,-135.19"/>
</g>
<!-- Node9 -->
<g id="node9" class="node">
<title>Node9</title>
<g id="a_node9"><a xlink:href="class_m_o_d_e_l_1_1_windkessel_b_c.html" target="_top" xlink:title="Windkessel RCR boundary condition.">
<polygon fill="none" stroke="black" points="168,-0.5 168,-19.5 310,-19.5 310,-0.5 168,-0.5"/>
<text text-anchor="middle" x="239" y="-7.5" font-family="Helvetica,sans-Serif" font-size="10.00">MODEL::WindkesselBC&lt; T &gt;</text>
</a>
</g>
</g>
<!-- Node1&#45;&gt;Node9 -->
<g id="edge8" class="edge">
<title>Node1&#45;&gt;Node9</title>
<path fill="none" stroke="midnightblue" d="M60.1,-135.61C72.24,-107.33 98.84,-55.28 139,-29 147.71,-23.3 157.72,-19.22 167.96,-16.32"/>
<polygon fill="midnightblue" stroke="midnightblue" points="56.73,-134.61 56.15,-145.18 63.2,-137.27 56.73,-134.61"/>
</g>
</g>
</svg>
