<?xml version="1.0" encoding="UTF-8" standalone="no"?>
<!DOCTYPE svg PUBLIC "-//W3C//DTD SVG 1.1//EN"
 "http://www.w3.org/Graphics/SVG/1.1/DTD/svg11.dtd">
<!-- Generated by graphviz version 3.0.0 (20220413.0242)
 -->
<!-- Title: MODEL::Block&lt; T &gt; Pages: 1 -->
<svg width="292pt" height="154pt"
 viewBox="0.00 0.00 292.00 153.50" xmlns="http://www.w3.org/2000/svg" xmlns:xlink="http://www.w3.org/1999/xlink">
<g id="graph0" class="graph" transform="scale(1 1) rotate(0) translate(4 149.5)">
<title>MODEL::Block&lt; T &gt;</title>
<!-- Node1 -->
<g id="node1" class="node">
<title>Node1</title>
<g id="a_node1"><a xlink:title="Base class for 0D model components.">
<polygon fill="#bfbfbf" stroke="black" points="0,-69 0,-88 103,-88 103,-69 0,-69"/>
<text text-anchor="middle" x="51.5" y="-76" font-family="Helvetica,sans-Serif" font-size="10.00">MODEL::Block&lt; T &gt;</text>
</a>
</g>
</g>
<!-- Node2 -->
<g id="node2" class="node">
<title>Node2</title>
<g id="a_node2"><a xlink:href="class_m_o_d_e_l_1_1_blood_vessel.html" target="_top" xlink:title="Resistor&#45;capacitor&#45;inductor blood vessel with optional stenosis.">
<polygon fill="none" stroke="black" points="145,-126 145,-145 278,-145 278,-126 145,-126"/>
<text text-anchor="middle" x="211.5" y="-133" font-family="Helvetica,sans-Serif" font-size="10.00">MODEL::BloodVessel&lt; T &gt;</text>
</a>
</g>
</g>
<!-- Node1&#45;&gt;Node2 -->
<g id="edge1" class="edge">
<title>Node1&#45;&gt;Node2</title>
<path fill="none" stroke="midnightblue" d="M81.26,-92.47C97.88,-100.2 119.33,-109.61 139,-116.5 148.94,-119.98 159.85,-123.18 170.08,-125.92"/>
<polygon fill="midnightblue" stroke="midnightblue" points="82.62,-89.24 72.08,-88.14 79.63,-95.57 82.62,-89.24"/>
</g>
<!-- Node3 -->
<g id="node3" class="node">
<title>Node3</title>
<g id="a_node3"><a xlink:href="class_m_o_d_e_l_1_1_flow_reference.html" target="_top" xlink:title="Flow reference boundary condition element.">
<polygon fill="none" stroke="black" points="140,-88 140,-107 283,-107 283,-88 140,-88"/>
<text text-anchor="middle" x="211.5" y="-95" font-family="Helvetica,sans-Serif" font-size="10.00">MODEL::FlowReference&lt; T &gt;</text>
</a>
</g>
</g>
<!-- Node1&#45;&gt;Node3 -->
<g id="edge2" class="edge">
<title>Node1&#45;&gt;Node3</title>
<path fill="none" stroke="midnightblue" d="M113.38,-85.82C122.05,-86.86 131.03,-87.94 139.87,-89.01"/>
<polygon fill="midnightblue" stroke="midnightblue" points="113.71,-82.34 103.36,-84.62 112.87,-89.29 113.71,-82.34"/>
</g>
<!-- Node4 -->
<g id="node4" class="node">
<title>Node4</title>
<g id="a_node4"><a xlink:href="class_m_o_d_e_l_1_1_junction.html" target="_top" xlink:title="Junction.">
<polygon fill="none" stroke="black" points="154,-50 154,-69 269,-69 269,-50 154,-50"/>
<text text-anchor="middle" x="211.5" y="-57" font-family="Helvetica,sans-Serif" font-size="10.00">MODEL::Junction&lt; T &gt;</text>
</a>
</g>
</g>
<!-- Node1&#45;&gt;Node4 -->
<g id="edge3" class="edge">
<title>Node1&#45;&gt;Node4</title>
<path fill="none" stroke="midnightblue" d="M113.4,-71.18C126.74,-69.57 140.82,-67.88 153.98,-66.3"/>
<polygon fill="midnightblue" stroke="midnightblue" points="112.87,-67.71 103.36,-72.38 113.71,-74.66 112.87,-67.71"/>
</g>
<!-- Node5 -->
<g id="node5" class="node">
<title>Node5</title>
<g id="a_node5"><a xlink:href="class_m_o_d_e_l_1_1_r_c_r_block_with_distal_pressure.html" target="_top" xlink:title="RCR boundary condition element.">
<polygon fill="none" stroke="black" points="139,-0.5 139,-30.5 284,-30.5 284,-0.5 139,-0.5"/>
<text text-anchor="start" x="147" y="-18.5" font-family="Helvetica,sans-Serif" font-size="10.00">MODEL::RCRBlockWithDistal</text>
<text text-anchor="middle" x="211.5" y="-7.5" font-family="Helvetica,sans-Serif" font-size="10.00">Pressure&lt; T &gt;</text>
</a>
</g>
</g>
<!-- Node1&#45;&gt;Node5 -->
<g id="edge4" class="edge">
<title>Node1&#45;&gt;Node5</title>
<path fill="none" stroke="midnightblue" d="M82.13,-64.8C98.72,-57.31 119.86,-48.04 139,-40.5 147.56,-37.13 156.79,-33.73 165.68,-30.57"/>
<polygon fill="midnightblue" stroke="midnightblue" points="80.59,-61.66 72.93,-68.99 83.49,-68.03 80.59,-61.66"/>
</g>
</g>
</svg>
