<?xml version="1.0" encoding="UTF-8" standalone="no"?>
<!DOCTYPE svg PUBLIC "-//W3C//DTD SVG 1.1//EN"
 "http://www.w3.org/Graphics/SVG/1.1/DTD/svg11.dtd">
<!-- Generated by graphviz version 3.0.0 (20220413.0242)
 -->
<!-- Title: MODEL::Block&lt; T &gt; Pages: 1 -->
<svg width="322pt" height="306pt"
 viewBox="0.00 0.00 322.00 306.00" xmlns="http://www.w3.org/2000/svg" xmlns:xlink="http://www.w3.org/1999/xlink">
<g id="graph0" class="graph" transform="scale(1 1) rotate(0) translate(4 302)">
<title>MODEL::Block&lt; T &gt;</title>
<!-- Node1 -->
<g id="node1" class="node">
<title>Node1</title>
<g id="a_node1"><a xlink:title="Base class for 0D model components.">
<polygon fill="#bfbfbf" stroke="black" points="0,-142.5 0,-161.5 103,-161.5 103,-142.5 0,-142.5"/>
<text text-anchor="middle" x="51.5" y="-149.5" font-family="Helvetica,sans-Serif" font-size="10.00">MODEL::Block&lt; T &gt;</text>
</a>
</g>
</g>
<!-- Node2 -->
<g id="node2" class="node">
<title>Node2</title>
<g id="a_node2"><a xlink:href="class_m_o_d_e_l_1_1_blood_vessel.html" target="_top" xlink:title="Resistor&#45;capacitor&#45;inductor blood vessel with optional stenosis.">
<polygon fill="none" stroke="black" points="160,-278.5 160,-297.5 293,-297.5 293,-278.5 160,-278.5"/>
<text text-anchor="middle" x="226.5" y="-285.5" font-family="Helvetica,sans-Serif" font-size="10.00">MODEL::BloodVessel&lt; T &gt;</text>
</a>
</g>
</g>
<!-- Node1&#45;&gt;Node2 -->
<g id="edge1" class="edge">
<title>Node1&#45;&gt;Node2</title>
<path fill="none" stroke="midnightblue" d="M61.12,-171.01C74.09,-197.36 101.2,-244.49 139,-269 145.32,-273.1 152.39,-276.32 159.69,-278.86"/>
<polygon fill="midnightblue" stroke="midnightblue" points="64.16,-169.25 56.71,-161.72 57.83,-172.25 64.16,-169.25"/>
</g>
<!-- Node3 -->
<g id="node3" class="node">
<title>Node3</title>
<g id="a_node3"><a xlink:href="class_m_o_d_e_l_1_1_flow_reference_b_c.html" target="_top" xlink:title="Flow reference boundary condition.">
<polygon fill="none" stroke="black" points="148,-240.5 148,-259.5 305,-259.5 305,-240.5 148,-240.5"/>
<text text-anchor="middle" x="226.5" y="-247.5" font-family="Helvetica,sans-Serif" font-size="10.00">MODEL::FlowReferenceBC&lt; T &gt;</text>
</a>
</g>
</g>
<!-- Node1&#45;&gt;Node3 -->
<g id="edge2" class="edge">
<title>Node1&#45;&gt;Node3</title>
<path fill="none" stroke="midnightblue" d="M66.97,-169.86C82.74,-188.09 109.67,-215.8 139,-231 146.51,-234.89 154.78,-237.99 163.15,-240.45"/>
<polygon fill="midnightblue" stroke="midnightblue" points="69.28,-167.17 60.16,-161.77 63.92,-171.67 69.28,-167.17"/>
</g>
<!-- Node4 -->
<g id="node4" class="node">
<title>Node4</title>
<g id="a_node4"><a xlink:href="class_m_o_d_e_l_1_1_junction.html" target="_top" xlink:title="Junction.">
<polygon fill="none" stroke="black" points="169,-202.5 169,-221.5 284,-221.5 284,-202.5 169,-202.5"/>
<text text-anchor="middle" x="226.5" y="-209.5" font-family="Helvetica,sans-Serif" font-size="10.00">MODEL::Junction&lt; T &gt;</text>
</a>
</g>
</g>
<!-- Node1&#45;&gt;Node4 -->
<g id="edge3" class="edge">
<title>Node1&#45;&gt;Node4</title>
<path fill="none" stroke="midnightblue" d="M78.77,-166.36C95.58,-175.08 118.1,-185.85 139,-193 149.77,-196.68 161.54,-199.82 172.83,-202.43"/>
<polygon fill="midnightblue" stroke="midnightblue" points="80.05,-163.09 69.58,-161.52 76.79,-169.28 80.05,-163.09"/>
</g>
<!-- Node5 -->
<g id="node5" class="node">
<title>Node5</title>
<g id="a_node5"><a xlink:href="class_m_o_d_e_l_1_1_open_loop_coronary_b_c.html" target="_top" xlink:title="Open loop coronary boundary condition based on .">
<polygon fill="none" stroke="black" points="139,-164.5 139,-183.5 314,-183.5 314,-164.5 139,-164.5"/>
<text text-anchor="middle" x="226.5" y="-171.5" font-family="Helvetica,sans-Serif" font-size="10.00">MODEL::OpenLoopCoronaryBC&lt; T &gt;</text>
</a>
</g>
</g>
<!-- Node1&#45;&gt;Node5 -->
<g id="edge4" class="edge">
<title>Node1&#45;&gt;Node5</title>
<path fill="none" stroke="midnightblue" d="M112.98,-159.69C125.09,-161.23 137.96,-162.87 150.5,-164.46"/>
<polygon fill="midnightblue" stroke="midnightblue" points="113.37,-156.21 103,-158.42 112.48,-163.16 113.37,-156.21"/>
</g>
<!-- Node6 -->
<g id="node6" class="node">
<title>Node6</title>
<g id="a_node6"><a xlink:href="class_m_o_d_e_l_1_1_pressure_reference_b_c.html" target="_top" xlink:title="Pressure reference boundary condition.">
<polygon fill="none" stroke="black" points="157,-115 157,-145 296,-145 296,-115 157,-115"/>
<text text-anchor="start" x="165" y="-133" font-family="Helvetica,sans-Serif" font-size="10.00">MODEL::PressureReference</text>
<text text-anchor="middle" x="226.5" y="-122" font-family="Helvetica,sans-Serif" font-size="10.00">BC&lt; T &gt;</text>
</a>
</g>
</g>
<!-- Node1&#45;&gt;Node6 -->
<g id="edge5" class="edge">
<title>Node1&#45;&gt;Node6</title>
<path fill="none" stroke="midnightblue" d="M113.11,-144.29C127.27,-142.49 142.45,-140.56 156.92,-138.72"/>
<polygon fill="midnightblue" stroke="midnightblue" points="112.48,-140.84 103,-145.58 113.37,-147.79 112.48,-140.84"/>
</g>
<!-- Node7 -->
<g id="node7" class="node">
<title>Node7</title>
<g id="a_node7"><a xlink:href="class_m_o_d_e_l_1_1_resistance_b_c.html" target="_top" xlink:title="Resistance boundary condition.">
<polygon fill="none" stroke="black" points="156.5,-76.5 156.5,-95.5 296.5,-95.5 296.5,-76.5 156.5,-76.5"/>
<text text-anchor="middle" x="226.5" y="-83.5" font-family="Helvetica,sans-Serif" font-size="10.00">MODEL::ResistanceBC&lt; T &gt;</text>
</a>
</g>
</g>
<!-- Node1&#45;&gt;Node7 -->
<g id="edge6" class="edge">
<title>Node1&#45;&gt;Node7</title>
<path fill="none" stroke="midnightblue" d="M76.23,-137.2C93.18,-127.17 116.82,-114.3 139,-106 150.12,-101.84 162.37,-98.38 174.07,-95.56"/>
<polygon fill="midnightblue" stroke="midnightblue" points="74.32,-134.26 67.56,-142.42 77.93,-140.26 74.32,-134.26"/>
</g>
<!-- Node8 -->
<g id="node8" class="node">
<title>Node8</title>
<g id="a_node8"><a xlink:href="class_m_o_d_e_l_1_1_resistive_junction.html" target="_top" xlink:title="ResistiveJunction.">
<polygon fill="none" stroke="black" points="149,-38.5 149,-57.5 304,-57.5 304,-38.5 149,-38.5"/>
<text text-anchor="middle" x="226.5" y="-45.5" font-family="Helvetica,sans-Serif" font-size="10.00">MODEL::ResistiveJunction&lt; T &gt;</text>
</a>
</g>
</g>
<!-- Node1&#45;&gt;Node8 -->
<g id="edge7" class="edge">
<title>Node1&#45;&gt;Node8</title>
<path fill="none" stroke="midnightblue" d="M65.52,-134.22C80.86,-114.63 108.18,-83.7 139,-67 146.17,-63.12 154.07,-60.03 162.1,-57.57"/>
<polygon fill="midnightblue" stroke="midnightblue" points="62.62,-132.25 59.35,-142.33 68.19,-136.49 62.62,-132.25"/>
</g>
<!-- Node9 -->
<g id="node9" class="node">
<title>Node9</title>
<g id="a_node9"><a xlink:href="class_m_o_d_e_l_1_1_windkessel_b_c.html" target="_top" xlink:title="Windkessel RCR boundary condition.">
<polygon fill="none" stroke="black" points="155.5,-0.5 155.5,-19.5 297.5,-19.5 297.5,-0.5 155.5,-0.5"/>
<text text-anchor="middle" x="226.5" y="-7.5" font-family="Helvetica,sans-Serif" font-size="10.00">MODEL::WindkesselBC&lt; T &gt;</text>
</a>
</g>
</g>
<!-- Node1&#45;&gt;Node9 -->
<g id="edge8" class="edge">
<title>Node1&#45;&gt;Node9</title>
<path fill="none" stroke="midnightblue" d="M60.32,-133.2C72.74,-105.76 99.68,-55.16 139,-29 144.76,-25.17 151.17,-22.1 157.82,-19.63"/>
<polygon fill="midnightblue" stroke="midnightblue" points="57.06,-131.92 56.27,-142.49 63.47,-134.72 57.06,-131.92"/>
</g>
</g>
</svg>
