<?xml version="1.0" encoding="UTF-8" standalone="no"?>
<!DOCTYPE svg PUBLIC "-//W3C//DTD SVG 1.1//EN"
 "http://www.w3.org/Graphics/SVG/1.1/DTD/svg11.dtd">
<!-- Generated by graphviz version 3.0.0 (20220413.0242)
 -->
<!-- Title: io/configreader.hpp Pages: 1 -->
<svg width="1602pt" height="420pt"
 viewBox="0.00 0.00 1601.51 420.00" xmlns="http://www.w3.org/2000/svg" xmlns:xlink="http://www.w3.org/1999/xlink">
<g id="graph0" class="graph" transform="scale(1 1) rotate(0) translate(4 416)">
<title>io/configreader.hpp</title>
<!-- Node1 -->
<g id="node1" class="node">
<title>Node1</title>
<g id="a_node1"><a xlink:title="IO::ConfigReader source file.">
<polygon fill="#bfbfbf" stroke="black" points="372.01,-392.5 372.01,-411.5 470.01,-411.5 470.01,-392.5 372.01,-392.5"/>
<text text-anchor="middle" x="421.01" y="-399.5" font-family="Helvetica,sans-Serif" font-size="10.00">io/configreader.hpp</text>
</a>
</g>
</g>
<!-- Node2 -->
<g id="node2" class="node">
<title>Node2</title>
<g id="a_node2"><a xlink:title=" ">
<polygon fill="none" stroke="#bfbfbf" points="234.51,-168.5 234.51,-187.5 263.51,-187.5 263.51,-168.5 234.51,-168.5"/>
<text text-anchor="middle" x="249.01" y="-175.5" font-family="Helvetica,sans-Serif" font-size="10.00">list</text>
</a>
</g>
</g>
<!-- Node1&#45;&gt;Node2 -->
<g id="edge1" class="edge">
<title>Node1&#45;&gt;Node2</title>
<path fill="none" stroke="midnightblue" d="M372,-399.96C337.83,-396.44 294.03,-385.84 269.01,-356 230.64,-310.24 238.78,-232.81 245.09,-197.52"/>
<polygon fill="midnightblue" stroke="midnightblue" points="248.54,-198.12 247.01,-187.63 241.67,-196.78 248.54,-198.12"/>
</g>
<!-- Node3 -->
<g id="node3" class="node">
<title>Node3</title>
<g id="a_node3"><a xlink:title=" ">
<polygon fill="none" stroke="#bfbfbf" points="29.51,-336.5 29.51,-355.5 88.51,-355.5 88.51,-336.5 29.51,-336.5"/>
<text text-anchor="middle" x="59.01" y="-343.5" font-family="Helvetica,sans-Serif" font-size="10.00">stdexcept</text>
</a>
</g>
</g>
<!-- Node1&#45;&gt;Node3 -->
<g id="edge2" class="edge">
<title>Node1&#45;&gt;Node3</title>
<path fill="none" stroke="midnightblue" d="M371.83,-394.99C309.22,-387.12 197.79,-372.38 103.01,-356 101.57,-355.75 100.1,-355.49 98.62,-355.22"/>
<polygon fill="midnightblue" stroke="midnightblue" points="99.26,-351.78 88.78,-353.35 97.95,-358.66 99.26,-351.78"/>
</g>
<!-- Node4 -->
<g id="node4" class="node">
<title>Node4</title>
<g id="a_node4"><a xlink:title=" ">
<polygon fill="none" stroke="#bfbfbf" points="267.51,-0.5 267.51,-19.5 308.51,-19.5 308.51,-0.5 267.51,-0.5"/>
<text text-anchor="middle" x="288.01" y="-7.5" font-family="Helvetica,sans-Serif" font-size="10.00">string</text>
</a>
</g>
</g>
<!-- Node1&#45;&gt;Node4 -->
<g id="edge3" class="edge">
<title>Node1&#45;&gt;Node4</title>
<path fill="none" stroke="midnightblue" d="M371.91,-398.51C270.78,-392.96 46.49,-378.26 20.01,-356 -3.03,-336.63 1.01,-321.1 1.01,-291 1.01,-291 1.01,-291 1.01,-121 1.01,-66.58 183.2,-29.05 257.26,-16.04"/>
<polygon fill="midnightblue" stroke="midnightblue" points="258.11,-19.45 267.37,-14.3 256.92,-12.55 258.11,-19.45"/>
</g>
<!-- Node5 -->
<g id="node5" class="node">
<title>Node5</title>
<g id="a_node5"><a xlink:href="debug_8hpp.html" target="_top" xlink:title="HELPERS::DEBUG source file.">
<polygon fill="none" stroke="black" points="293.51,-280.5 293.51,-299.5 396.51,-299.5 396.51,-280.5 293.51,-280.5"/>
<text text-anchor="middle" x="345.01" y="-287.5" font-family="Helvetica,sans-Serif" font-size="10.00">../helpers/debug.hpp</text>
</a>
</g>
</g>
<!-- Node1&#45;&gt;Node5 -->
<g id="edge4" class="edge">
<title>Node1&#45;&gt;Node5</title>
<path fill="none" stroke="midnightblue" d="M371.85,-397.95C342.65,-393.31 307.75,-382.19 289.01,-356 275.64,-337.32 298.69,-317.57 319.14,-304.8"/>
<polygon fill="midnightblue" stroke="midnightblue" points="321.08,-307.72 327.92,-299.62 317.53,-301.69 321.08,-307.72"/>
</g>
<!-- Node7 -->
<g id="node7" class="node">
<title>Node7</title>
<g id="a_node7"><a xlink:href="startswith_8hpp.html" target="_top" xlink:title="HELPERS::startswith source file.">
<polygon fill="none" stroke="black" points="126.51,-56.5 126.51,-75.5 245.51,-75.5 245.51,-56.5 126.51,-56.5"/>
<text text-anchor="middle" x="186.01" y="-63.5" font-family="Helvetica,sans-Serif" font-size="10.00">../helpers/startswith.hpp</text>
</a>
</g>
</g>
<!-- Node1&#45;&gt;Node7 -->
<g id="edge6" class="edge">
<title>Node1&#45;&gt;Node7</title>
<path fill="none" stroke="midnightblue" d="M371.75,-396.62C307.62,-390.19 199.74,-376.67 166.01,-356 135.16,-337.1 117.01,-327.18 117.01,-291 117.01,-291 117.01,-291 117.01,-177 117.01,-138.39 147.89,-102.21 168.34,-82.49"/>
<polygon fill="midnightblue" stroke="midnightblue" points="170.88,-84.9 175.83,-75.54 166.12,-79.77 170.88,-84.9"/>
</g>
<!-- Node8 -->
<g id="node8" class="node">
<title>Node8</title>
<g id="a_node8"><a xlink:href="bloodvessel_8hpp.html" target="_top" xlink:title="MODEL::BloodVessel source file.">
<polygon fill="none" stroke="black" points="907.51,-336.5 907.51,-355.5 1030.51,-355.5 1030.51,-336.5 907.51,-336.5"/>
<text text-anchor="middle" x="969.01" y="-343.5" font-family="Helvetica,sans-Serif" font-size="10.00">../model/bloodvessel.hpp</text>
</a>
</g>
</g>
<!-- Node1&#45;&gt;Node8 -->
<g id="edge8" class="edge">
<title>Node1&#45;&gt;Node8</title>
<path fill="none" stroke="midnightblue" d="M470.16,-396.89C554.94,-389.68 734.4,-373.91 897.24,-356.05"/>
<polygon fill="midnightblue" stroke="midnightblue" points="897.89,-359.5 907.45,-354.93 897.13,-352.54 897.89,-359.5"/>
</g>
<!-- Node13 -->
<g id="node13" class="node">
<title>Node13</title>
<g id="a_node13"><a xlink:href="model_8hpp.html" target="_top" xlink:title="MODEL::Model source file.">
<polygon fill="none" stroke="black" points="332.01,-224.5 332.01,-243.5 430.01,-243.5 430.01,-224.5 332.01,-224.5"/>
<text text-anchor="middle" x="381.01" y="-231.5" font-family="Helvetica,sans-Serif" font-size="10.00">../model/model.hpp</text>
</a>
</g>
</g>
<!-- Node1&#45;&gt;Node13 -->
<g id="edge43" class="edge">
<title>Node1&#45;&gt;Node13</title>
<path fill="none" stroke="midnightblue" d="M371.74,-399.19C340.26,-395.16 301.61,-384.26 281.01,-356 272.18,-343.89 266.2,-307.38 285.01,-280 295.91,-264.13 313.94,-253.71 331.44,-246.94"/>
<polygon fill="midnightblue" stroke="midnightblue" points="332.8,-250.18 341.07,-243.55 330.47,-243.58 332.8,-250.18"/>
</g>
<!-- Node19 -->
<g id="node19" class="node">
<title>Node19</title>
<g id="a_node19"><a xlink:href="node_8hpp.html" target="_top" xlink:title="MODEL::Node source file.">
<polygon fill="none" stroke="black" points="371.01,-112.5 371.01,-131.5 427.01,-131.5 427.01,-112.5 371.01,-112.5"/>
<text text-anchor="middle" x="399.01" y="-119.5" font-family="Helvetica,sans-Serif" font-size="10.00">node.hpp</text>
</a>
</g>
</g>
<!-- Node1&#45;&gt;Node19 -->
<g id="edge44" class="edge">
<title>Node1&#45;&gt;Node19</title>
<path fill="none" stroke="midnightblue" d="M371.91,-401.67C295.05,-399.86 155.01,-383.83 155.01,-291 155.01,-291 155.01,-291 155.01,-233 155.01,-143.94 291.78,-126.58 360.52,-123.48"/>
<polygon fill="midnightblue" stroke="midnightblue" points="360.68,-126.97 370.54,-123.1 360.42,-119.98 360.68,-126.97"/>
</g>
<!-- Node20 -->
<g id="node20" class="node">
<title>Node20</title>
<g id="a_node20"><a xlink:href="flowreferencebc_8hpp.html" target="_top" xlink:title="MODEL::FlowReferenceBC source file.">
<polygon fill="none" stroke="black" points="1049.01,-336.5 1049.01,-355.5 1189.01,-355.5 1189.01,-336.5 1049.01,-336.5"/>
<text text-anchor="middle" x="1119.01" y="-343.5" font-family="Helvetica,sans-Serif" font-size="10.00">../model/flowreferencebc.hpp</text>
</a>
</g>
</g>
<!-- Node1&#45;&gt;Node20 -->
<g id="edge32" class="edge">
<title>Node1&#45;&gt;Node20</title>
<path fill="none" stroke="midnightblue" d="M470.01,-398.12C573.16,-391.91 820.49,-376.25 1038.77,-356.08"/>
<polygon fill="midnightblue" stroke="midnightblue" points="1039.18,-359.56 1048.81,-355.15 1038.53,-352.59 1039.18,-359.56"/>
</g>
<!-- Node23 -->
<g id="node23" class="node">
<title>Node23</title>
<g id="a_node23"><a xlink:href="junction_8hpp.html" target="_top" xlink:title="MODEL::Junction source file.">
<polygon fill="none" stroke="black" points="297.51,-336.5 297.51,-355.5 402.51,-355.5 402.51,-336.5 297.51,-336.5"/>
<text text-anchor="middle" x="350.01" y="-343.5" font-family="Helvetica,sans-Serif" font-size="10.00">../model/junction.hpp</text>
</a>
</g>
</g>
<!-- Node1&#45;&gt;Node23 -->
<g id="edge40" class="edge">
<title>Node1&#45;&gt;Node23</title>
<path fill="none" stroke="midnightblue" d="M409.6,-392.32C398.9,-384.18 382.67,-371.84 369.85,-362.09"/>
<polygon fill="midnightblue" stroke="midnightblue" points="371.7,-359.1 361.62,-355.83 367.47,-364.67 371.7,-359.1"/>
</g>
<!-- Node24 -->
<g id="node24" class="node">
<title>Node24</title>
<g id="a_node24"><a xlink:href="openloopcoronarybc_8hpp.html" target="_top" xlink:title="MODEL::OpenLoopCoronaryBC source file.">
<polygon fill="none" stroke="black" points="731.01,-336.5 731.01,-355.5 889.01,-355.5 889.01,-336.5 731.01,-336.5"/>
<text text-anchor="middle" x="810.01" y="-343.5" font-family="Helvetica,sans-Serif" font-size="10.00">../model/openloopcoronarybc.hpp</text>
</a>
</g>
</g>
<!-- Node1&#45;&gt;Node24 -->
<g id="edge45" class="edge">
<title>Node1&#45;&gt;Node24</title>
<path fill="none" stroke="midnightblue" d="M470.28,-394.16C538.07,-384.75 660.56,-367.75 738.46,-356.93"/>
<polygon fill="midnightblue" stroke="midnightblue" points="739.25,-360.36 748.67,-355.51 738.29,-353.42 739.25,-360.36"/>
</g>
<!-- Node25 -->
<g id="node25" class="node">
<title>Node25</title>
<g id="a_node25"><a xlink:href="pressurereferencebc_8hpp.html" target="_top" xlink:title="MODEL::PressureReferenceBC source file.">
<polygon fill="none" stroke="black" points="1207.01,-336.5 1207.01,-355.5 1367.01,-355.5 1367.01,-336.5 1207.01,-336.5"/>
<text text-anchor="middle" x="1287.01" y="-343.5" font-family="Helvetica,sans-Serif" font-size="10.00">../model/pressurereferencebc.hpp</text>
</a>
</g>
</g>
<!-- Node1&#45;&gt;Node25 -->
<g id="edge49" class="edge">
<title>Node1&#45;&gt;Node25</title>
<path fill="none" stroke="midnightblue" d="M470.15,-398.89C591.54,-393.51 915.52,-378.2 1196.98,-356.05"/>
<polygon fill="midnightblue" stroke="midnightblue" points="1197.28,-359.54 1206.97,-355.26 1196.73,-352.56 1197.28,-359.54"/>
</g>
<!-- Node26 -->
<g id="node26" class="node">
<title>Node26</title>
<g id="a_node26"><a xlink:href="resistancebc_8hpp.html" target="_top" xlink:title="MODEL::ResistanceBC source file.">
<polygon fill="none" stroke="black" points="1385.51,-336.5 1385.51,-355.5 1512.51,-355.5 1512.51,-336.5 1385.51,-336.5"/>
<text text-anchor="middle" x="1449.01" y="-343.5" font-family="Helvetica,sans-Serif" font-size="10.00">../model/resistancebc.hpp</text>
</a>
</g>
</g>
<!-- Node1&#45;&gt;Node26 -->
<g id="edge53" class="edge">
<title>Node1&#45;&gt;Node26</title>
<path fill="none" stroke="midnightblue" d="M470.05,-400C609.72,-396.86 1021.79,-385.68 1375.16,-356"/>
<polygon fill="midnightblue" stroke="midnightblue" points="1375.67,-359.47 1385.34,-355.14 1375.08,-352.49 1375.67,-359.47"/>
</g>
<!-- Node27 -->
<g id="node27" class="node">
<title>Node27</title>
<g id="a_node27"><a xlink:href="resistivejunction_8hpp.html" target="_top" xlink:title="MODEL::ResistiveJunction source file.">
<polygon fill="none" stroke="black" points="421.01,-336.5 421.01,-355.5 563.01,-355.5 563.01,-336.5 421.01,-336.5"/>
<text text-anchor="middle" x="492.01" y="-343.5" font-family="Helvetica,sans-Serif" font-size="10.00">../model/resistivejunction.hpp</text>
</a>
</g>
</g>
<!-- Node1&#45;&gt;Node27 -->
<g id="edge57" class="edge">
<title>Node1&#45;&gt;Node27</title>
<path fill="none" stroke="midnightblue" d="M432.42,-392.32C443.12,-384.18 459.35,-371.84 472.17,-362.09"/>
<polygon fill="midnightblue" stroke="midnightblue" points="474.55,-364.67 480.39,-355.83 470.32,-359.1 474.55,-364.67"/>
</g>
<!-- Node28 -->
<g id="node28" class="node">
<title>Node28</title>
<g id="a_node28"><a xlink:href="windkesselbc_8hpp.html" target="_top" xlink:title="MODEL::WindkesselBC source file.">
<polygon fill="none" stroke="black" points="581.51,-336.5 581.51,-355.5 712.51,-355.5 712.51,-336.5 581.51,-336.5"/>
<text text-anchor="middle" x="647.01" y="-343.5" font-family="Helvetica,sans-Serif" font-size="10.00">../model/windkesselbc.hpp</text>
</a>
</g>
</g>
<!-- Node1&#45;&gt;Node28 -->
<g id="edge60" class="edge">
<title>Node1&#45;&gt;Node28</title>
<path fill="none" stroke="midnightblue" d="M456.82,-392.44C496,-383.08 558.89,-368.06 601.52,-357.87"/>
<polygon fill="midnightblue" stroke="midnightblue" points="602.45,-361.24 611.37,-355.52 600.83,-354.44 602.45,-361.24"/>
</g>
<!-- Node29 -->
<g id="node29" class="node">
<title>Node29</title>
<g id="a_node29"><a xlink:title=" ">
<polygon fill="none" stroke="#bfbfbf" points="1530.51,-336.5 1530.51,-355.5 1593.51,-355.5 1593.51,-336.5 1530.51,-336.5"/>
<text text-anchor="middle" x="1562.01" y="-343.5" font-family="Helvetica,sans-Serif" font-size="10.00">simdjson.h</text>
</a>
</g>
</g>
<!-- Node1&#45;&gt;Node29 -->
<g id="edge63" class="edge">
<title>Node1&#45;&gt;Node29</title>
<path fill="none" stroke="midnightblue" d="M470.03,-400.17C652.68,-396.91 1294.38,-383.8 1520.12,-355.99"/>
<polygon fill="midnightblue" stroke="midnightblue" points="1520.75,-359.44 1530.23,-354.69 1519.86,-352.49 1520.75,-359.44"/>
</g>
<!-- Node6 -->
<g id="node6" class="node">
<title>Node6</title>
<g id="a_node6"><a xlink:title=" ">
<polygon fill="none" stroke="#bfbfbf" points="524.01,-224.5 524.01,-243.5 578.01,-243.5 578.01,-224.5 524.01,-224.5"/>
<text text-anchor="middle" x="551.01" y="-231.5" font-family="Helvetica,sans-Serif" font-size="10.00">iostream</text>
</a>
</g>
</g>
<!-- Node5&#45;&gt;Node6 -->
<g id="edge5" class="edge">
<title>Node5&#45;&gt;Node6</title>
<path fill="none" stroke="midnightblue" d="M377.65,-280.44C414.73,-270.72 475.1,-254.9 513.92,-244.72"/>
<polygon fill="midnightblue" stroke="midnightblue" points="515,-248.06 523.78,-242.14 513.22,-241.29 515,-248.06"/>
</g>
<!-- Node7&#45;&gt;Node4 -->
<g id="edge7" class="edge">
<title>Node7&#45;&gt;Node4</title>
<path fill="none" stroke="midnightblue" d="M202.4,-56.32C218.68,-47.7 243.88,-34.36 262.73,-24.39"/>
<polygon fill="midnightblue" stroke="midnightblue" points="264.46,-27.43 271.66,-19.65 261.19,-21.24 264.46,-27.43"/>
</g>
<!-- Node9 -->
<g id="node9" class="node">
<title>Node9</title>
<g id="a_node9"><a xlink:title=" ">
<polygon fill="none" stroke="#bfbfbf" points="946.01,-224.5 946.01,-243.5 992.01,-243.5 992.01,-224.5 946.01,-224.5"/>
<text text-anchor="middle" x="969.01" y="-231.5" font-family="Helvetica,sans-Serif" font-size="10.00">math.h</text>
</a>
</g>
</g>
<!-- Node8&#45;&gt;Node9 -->
<g id="edge9" class="edge">
<title>Node8&#45;&gt;Node9</title>
<path fill="none" stroke="midnightblue" d="M969.01,-336.37C969.01,-318.62 969.01,-277.67 969.01,-253.6"/>
<polygon fill="midnightblue" stroke="midnightblue" points="972.51,-253.59 969.01,-243.59 965.51,-253.59 972.51,-253.59"/>
</g>
<!-- Node10 -->
<g id="node10" class="node">
<title>Node10</title>
<g id="a_node10"><a xlink:href="sparsesystem_8hpp.html" target="_top" xlink:title="ALGEBRA::SparseSystem source file.">
<polygon fill="none" stroke="black" points="675.51,-280.5 675.51,-299.5 812.51,-299.5 812.51,-280.5 675.51,-280.5"/>
<text text-anchor="middle" x="744.01" y="-287.5" font-family="Helvetica,sans-Serif" font-size="10.00">../algebra/sparsesystem.hpp</text>
</a>
</g>
</g>
<!-- Node8&#45;&gt;Node10 -->
<g id="edge10" class="edge">
<title>Node8&#45;&gt;Node10</title>
<path fill="none" stroke="midnightblue" d="M933.36,-336.44C894.35,-327.08 831.74,-312.06 789.29,-301.87"/>
<polygon fill="midnightblue" stroke="midnightblue" points="790.04,-298.45 779.49,-299.52 788.4,-305.25 790.04,-298.45"/>
</g>
<!-- Node16 -->
<g id="node16" class="node">
<title>Node16</title>
<g id="a_node16"><a xlink:href="block_8hpp.html" target="_top" xlink:title="MODEL::Block source file.">
<polygon fill="none" stroke="black" points="586.01,-168.5 586.01,-187.5 644.01,-187.5 644.01,-168.5 586.01,-168.5"/>
<text text-anchor="middle" x="615.01" y="-175.5" font-family="Helvetica,sans-Serif" font-size="10.00">block.hpp</text>
</a>
</g>
</g>
<!-- Node8&#45;&gt;Node16 -->
<g id="edge31" class="edge">
<title>Node8&#45;&gt;Node16</title>
<path fill="none" stroke="midnightblue" d="M966.76,-336.19C960.43,-313.4 940.22,-252.3 899.01,-224 860.04,-197.24 723.32,-185.45 654.79,-181.12"/>
<polygon fill="midnightblue" stroke="midnightblue" points="654.6,-177.6 644.41,-180.49 654.17,-184.59 654.6,-177.6"/>
</g>
<!-- Node10&#45;&gt;Node6 -->
<g id="edge13" class="edge">
<title>Node10&#45;&gt;Node6</title>
<path fill="none" stroke="midnightblue" d="M713.43,-280.44C679.33,-270.9 624.19,-255.47 587.77,-245.28"/>
<polygon fill="midnightblue" stroke="midnightblue" points="588.6,-241.88 578.02,-242.56 586.71,-248.62 588.6,-241.88"/>
</g>
<!-- Node11 -->
<g id="node11" class="node">
<title>Node11</title>
<g id="a_node11"><a xlink:title=" ">
<polygon fill="none" stroke="#bfbfbf" points="710.01,-224.5 710.01,-243.5 784.01,-243.5 784.01,-224.5 710.01,-224.5"/>
<text text-anchor="middle" x="747.01" y="-231.5" font-family="Helvetica,sans-Serif" font-size="10.00">Eigen/Sparse</text>
</a>
</g>
</g>
<!-- Node10&#45;&gt;Node11 -->
<g id="edge11" class="edge">
<title>Node10&#45;&gt;Node11</title>
<path fill="none" stroke="midnightblue" d="M744.5,-280.08C744.9,-273.01 745.46,-262.86 745.95,-253.99"/>
<polygon fill="midnightblue" stroke="midnightblue" points="749.46,-253.93 746.52,-243.75 742.47,-253.54 749.46,-253.93"/>
</g>
<!-- Node12 -->
<g id="node12" class="node">
<title>Node12</title>
<g id="a_node12"><a xlink:title=" ">
<polygon fill="none" stroke="#bfbfbf" points="802.01,-224.5 802.01,-243.5 890.01,-243.5 890.01,-224.5 802.01,-224.5"/>
<text text-anchor="middle" x="846.01" y="-231.5" font-family="Helvetica,sans-Serif" font-size="10.00">Eigen/SparseLU</text>
</a>
</g>
</g>
<!-- Node10&#45;&gt;Node12 -->
<g id="edge12" class="edge">
<title>Node10&#45;&gt;Node12</title>
<path fill="none" stroke="midnightblue" d="M760.4,-280.32C776.68,-271.7 801.88,-258.36 820.73,-248.39"/>
<polygon fill="midnightblue" stroke="midnightblue" points="822.46,-251.43 829.66,-243.65 819.19,-245.24 822.46,-251.43"/>
</g>
<!-- Node10&#45;&gt;Node13 -->
<g id="edge14" class="edge">
<title>Node10&#45;&gt;Node13</title>
<path fill="none" stroke="midnightblue" d="M681.4,-280.44C613.56,-270.67 506.28,-254.72 439.92,-244.55"/>
<polygon fill="midnightblue" stroke="midnightblue" points="440.45,-241.09 430.03,-243.03 439.38,-248.01 440.45,-241.09"/>
</g>
<!-- Node13&#45;&gt;Node2 -->
<g id="edge16" class="edge">
<title>Node13&#45;&gt;Node2</title>
<path fill="none" stroke="midnightblue" d="M360.09,-224.44C336.45,-214.77 298.03,-199.05 273.14,-188.87"/>
<polygon fill="midnightblue" stroke="midnightblue" points="274.28,-185.56 263.7,-185.01 271.63,-192.03 274.28,-185.56"/>
</g>
<!-- Node13&#45;&gt;Node10 -->
<g id="edge18" class="edge">
<title>Node13&#45;&gt;Node10</title>
<path fill="none" stroke="midnightblue" d="M430.29,-241.64C495.47,-250.96 610.17,-267.98 681.4,-278.88"/>
<polygon fill="midnightblue" stroke="midnightblue" points="681.16,-282.39 691.58,-280.44 682.23,-275.47 681.16,-282.39"/>
</g>
<!-- Node14 -->
<g id="node14" class="node">
<title>Node14</title>
<g id="a_node14"><a xlink:title=" ">
<polygon fill="none" stroke="#bfbfbf" points="409.01,-168.5 409.01,-187.5 465.01,-187.5 465.01,-168.5 409.01,-168.5"/>
<text text-anchor="middle" x="437.01" y="-175.5" font-family="Helvetica,sans-Serif" font-size="10.00">algorithm</text>
</a>
</g>
</g>
<!-- Node13&#45;&gt;Node14 -->
<g id="edge15" class="edge">
<title>Node13&#45;&gt;Node14</title>
<path fill="none" stroke="midnightblue" d="M390.01,-224.32C398.2,-216.42 410.52,-204.55 420.48,-194.94"/>
<polygon fill="midnightblue" stroke="midnightblue" points="423.08,-197.29 427.85,-187.83 418.22,-192.26 423.08,-197.29"/>
</g>
<!-- Node15 -->
<g id="node15" class="node">
<title>Node15</title>
<g id="a_node15"><a xlink:title=" ">
<polygon fill="none" stroke="#bfbfbf" points="551.01,-0.5 551.01,-19.5 595.01,-19.5 595.01,-0.5 551.01,-0.5"/>
<text text-anchor="middle" x="573.01" y="-7.5" font-family="Helvetica,sans-Serif" font-size="10.00">vector</text>
</a>
</g>
</g>
<!-- Node13&#45;&gt;Node15 -->
<g id="edge17" class="edge">
<title>Node13&#45;&gt;Node15</title>
<path fill="none" stroke="midnightblue" d="M375.98,-224.31C364.53,-203.27 339.25,-148.68 362.01,-112 401.21,-48.83 492.25,-24.35 540.94,-15.54"/>
<polygon fill="midnightblue" stroke="midnightblue" points="541.66,-18.97 550.93,-13.84 540.49,-12.07 541.66,-18.97"/>
</g>
<!-- Node13&#45;&gt;Node16 -->
<g id="edge19" class="edge">
<title>Node13&#45;&gt;Node16</title>
<path fill="none" stroke="midnightblue" d="M418.09,-224.44C461.25,-214.48 532.2,-198.11 576.12,-187.97"/>
<polygon fill="midnightblue" stroke="midnightblue" points="576.91,-191.38 585.87,-185.73 575.34,-184.56 576.91,-191.38"/>
</g>
<!-- Node18 -->
<g id="node18" class="node">
<title>Node18</title>
<g id="a_node18"><a xlink:href="dofhandler_8hpp.html" target="_top" xlink:title="MODEL::DOFHandler source file.">
<polygon fill="none" stroke="black" points="484.01,-56.5 484.01,-75.5 564.01,-75.5 564.01,-56.5 484.01,-56.5"/>
<text text-anchor="middle" x="524.01" y="-63.5" font-family="Helvetica,sans-Serif" font-size="10.00">dofhandler.hpp</text>
</a>
</g>
</g>
<!-- Node13&#45;&gt;Node18 -->
<g id="edge29" class="edge">
<title>Node13&#45;&gt;Node18</title>
<path fill="none" stroke="midnightblue" d="M411.69,-224.46C431.7,-217.51 457.15,-205.88 474.01,-188 488.59,-172.53 508.55,-115.08 518.25,-85.25"/>
<polygon fill="midnightblue" stroke="midnightblue" points="521.61,-86.23 521.33,-75.63 514.95,-84.09 521.61,-86.23"/>
</g>
<!-- Node13&#45;&gt;Node19 -->
<g id="edge30" class="edge">
<title>Node13&#45;&gt;Node19</title>
<path fill="none" stroke="midnightblue" d="M382.42,-224.37C385.33,-206.62 392.03,-165.67 395.97,-141.6"/>
<polygon fill="midnightblue" stroke="midnightblue" points="399.44,-142.03 397.6,-131.59 392.53,-140.89 399.44,-142.03"/>
</g>
<!-- Node16&#45;&gt;Node10 -->
<g id="edge22" class="edge">
<title>Node16&#45;&gt;Node10</title>
<path fill="none" stroke="midnightblue" d="M625.08,-187.59C646.9,-206.19 698.73,-250.39 726.2,-273.82"/>
<polygon fill="midnightblue" stroke="midnightblue" points="724.01,-276.54 733.89,-280.37 728.55,-271.22 724.01,-276.54"/>
</g>
<!-- Node16&#45;&gt;Node15 -->
<g id="edge21" class="edge">
<title>Node16&#45;&gt;Node15</title>
<path fill="none" stroke="midnightblue" d="M612.75,-168.08C606.14,-141.95 586.73,-65.21 577.71,-29.58"/>
<polygon fill="midnightblue" stroke="midnightblue" points="581.02,-28.4 575.18,-19.57 574.24,-30.12 581.02,-28.4"/>
</g>
<!-- Node17 -->
<g id="node17" class="node">
<title>Node17</title>
<g id="a_node17"><a xlink:title=" ">
<polygon fill="none" stroke="#bfbfbf" points="521.51,-112.5 521.51,-131.5 556.51,-131.5 556.51,-112.5 521.51,-112.5"/>
<text text-anchor="middle" x="539.01" y="-119.5" font-family="Helvetica,sans-Serif" font-size="10.00">map</text>
</a>
</g>
</g>
<!-- Node16&#45;&gt;Node17 -->
<g id="edge20" class="edge">
<title>Node16&#45;&gt;Node17</title>
<path fill="none" stroke="midnightblue" d="M602.8,-168.32C591.23,-160.11 573.63,-147.6 559.85,-137.81"/>
<polygon fill="midnightblue" stroke="midnightblue" points="561.62,-134.77 551.44,-131.83 557.57,-140.48 561.62,-134.77"/>
</g>
<!-- Node16&#45;&gt;Node18 -->
<g id="edge23" class="edge">
<title>Node16&#45;&gt;Node18</title>
<path fill="none" stroke="midnightblue" d="M608.94,-168.37C599.95,-155.7 582.37,-131.48 566.01,-112 557.68,-102.08 547.82,-91.46 539.74,-83.03"/>
<polygon fill="midnightblue" stroke="midnightblue" points="542.13,-80.46 532.66,-75.71 537.1,-85.33 542.13,-80.46"/>
</g>
<!-- Node16&#45;&gt;Node19 -->
<g id="edge26" class="edge">
<title>Node16&#45;&gt;Node19</title>
<path fill="none" stroke="midnightblue" d="M585.88,-169.72C547.39,-160.1 479.53,-143.13 437.04,-132.51"/>
<polygon fill="midnightblue" stroke="midnightblue" points="437.89,-129.11 427.34,-130.08 436.19,-135.9 437.89,-129.11"/>
</g>
<!-- Node18&#45;&gt;Node4 -->
<g id="edge24" class="edge">
<title>Node18&#45;&gt;Node4</title>
<path fill="none" stroke="midnightblue" d="M486.61,-56.44C440.15,-45.81 361.73,-27.87 318.65,-18.01"/>
<polygon fill="midnightblue" stroke="midnightblue" points="319.28,-14.56 308.75,-15.75 317.72,-21.39 319.28,-14.56"/>
</g>
<!-- Node18&#45;&gt;Node15 -->
<g id="edge25" class="edge">
<title>Node18&#45;&gt;Node15</title>
<path fill="none" stroke="midnightblue" d="M532.1,-56.08C539.16,-48.3 549.6,-36.8 558.16,-27.37"/>
<polygon fill="midnightblue" stroke="midnightblue" points="560.94,-29.51 565.07,-19.75 555.76,-24.8 560.94,-29.51"/>
</g>
<!-- Node19&#45;&gt;Node4 -->
<g id="edge27" class="edge">
<title>Node19&#45;&gt;Node4</title>
<path fill="none" stroke="midnightblue" d="M390.3,-112.37C371.66,-93.89 327.66,-50.29 303.9,-26.74"/>
<polygon fill="midnightblue" stroke="midnightblue" points="306.25,-24.14 296.68,-19.59 301.32,-29.12 306.25,-24.14"/>
</g>
<!-- Node19&#45;&gt;Node18 -->
<g id="edge28" class="edge">
<title>Node19&#45;&gt;Node18</title>
<path fill="none" stroke="midnightblue" d="M418.82,-112.44C439.3,-103.6 471.49,-89.69 494.87,-79.59"/>
<polygon fill="midnightblue" stroke="midnightblue" points="496.5,-82.7 504.3,-75.52 493.73,-76.27 496.5,-82.7"/>
</g>
<!-- Node20&#45;&gt;Node10 -->
<g id="edge33" class="edge">
<title>Node20&#45;&gt;Node10</title>
<path fill="none" stroke="midnightblue" d="M1059.59,-336.44C992.66,-326.81 884.03,-311.16 813.3,-300.98"/>
<polygon fill="midnightblue" stroke="midnightblue" points="813.55,-297.48 803.15,-299.52 812.55,-304.41 813.55,-297.48"/>
</g>
<!-- Node20&#45;&gt;Node16 -->
<g id="edge34" class="edge">
<title>Node20&#45;&gt;Node16</title>
<path fill="none" stroke="midnightblue" d="M1095.92,-336.39C1078.49,-328.95 1054.95,-316.73 1039.01,-300 1012.96,-272.65 1031.93,-245.68 1001.01,-224 945.8,-185.28 741.43,-179.59 654.53,-178.96"/>
<polygon fill="midnightblue" stroke="midnightblue" points="654.3,-175.46 644.28,-178.9 654.27,-182.46 654.3,-175.46"/>
</g>
<!-- Node21 -->
<g id="node21" class="node">
<title>Node21</title>
<g id="a_node21"><a xlink:href="timedependentparameter_8hpp.html" target="_top" xlink:title="MODEL::TimeDependentParameter source file.">
<polygon fill="none" stroke="black" points="1048.01,-280.5 1048.01,-299.5 1190.01,-299.5 1190.01,-280.5 1048.01,-280.5"/>
<text text-anchor="middle" x="1119.01" y="-287.5" font-family="Helvetica,sans-Serif" font-size="10.00">timedependentparameter.hpp</text>
</a>
</g>
</g>
<!-- Node20&#45;&gt;Node21 -->
<g id="edge35" class="edge">
<title>Node20&#45;&gt;Node21</title>
<path fill="none" stroke="midnightblue" d="M1119.01,-336.08C1119.01,-329.01 1119.01,-318.86 1119.01,-309.99"/>
<polygon fill="midnightblue" stroke="midnightblue" points="1122.51,-309.75 1119.01,-299.75 1115.51,-309.75 1122.51,-309.75"/>
</g>
<!-- Node21&#45;&gt;Node9 -->
<g id="edge36" class="edge">
<title>Node21&#45;&gt;Node9</title>
<path fill="none" stroke="midnightblue" d="M1095.24,-280.44C1069.97,-271.35 1029.83,-256.9 1001.61,-246.74"/>
<polygon fill="midnightblue" stroke="midnightblue" points="1002.77,-243.43 992.17,-243.34 1000.4,-250.02 1002.77,-243.43"/>
</g>
<!-- Node21&#45;&gt;Node15 -->
<g id="edge38" class="edge">
<title>Node21&#45;&gt;Node15</title>
<path fill="none" stroke="midnightblue" d="M1115.91,-280.29C1109.63,-261.86 1096.01,-217.44 1096.01,-179 1096.01,-179 1096.01,-179 1096.01,-121 1096.01,-20.22 719.38,-11.27 605.34,-10.87"/>
<polygon fill="midnightblue" stroke="midnightblue" points="605.15,-7.37 595.15,-10.86 605.14,-14.37 605.15,-7.37"/>
</g>
<!-- Node21&#45;&gt;Node18 -->
<g id="edge39" class="edge">
<title>Node21&#45;&gt;Node18</title>
<path fill="none" stroke="midnightblue" d="M1108.41,-280.29C1091.36,-266.64 1056.36,-240.11 1023.01,-224 866.94,-148.61 666.25,-98.37 574.2,-77.68"/>
<polygon fill="midnightblue" stroke="midnightblue" points="574.83,-74.24 564.31,-75.48 573.31,-81.07 574.83,-74.24"/>
</g>
<!-- Node22 -->
<g id="node22" class="node">
<title>Node22</title>
<g id="a_node22"><a xlink:title=" ">
<polygon fill="none" stroke="#bfbfbf" points="1124.51,-224.5 1124.51,-243.5 1175.51,-243.5 1175.51,-224.5 1124.51,-224.5"/>
<text text-anchor="middle" x="1150.01" y="-231.5" font-family="Helvetica,sans-Serif" font-size="10.00">numeric</text>
</a>
</g>
</g>
<!-- Node21&#45;&gt;Node22 -->
<g id="edge37" class="edge">
<title>Node21&#45;&gt;Node22</title>
<path fill="none" stroke="midnightblue" d="M1124.13,-280.08C1128.42,-272.61 1134.67,-261.72 1139.95,-252.52"/>
<polygon fill="midnightblue" stroke="midnightblue" points="1143.04,-254.17 1144.99,-243.75 1136.97,-250.68 1143.04,-254.17"/>
</g>
<!-- Node23&#45;&gt;Node10 -->
<g id="edge41" class="edge">
<title>Node23&#45;&gt;Node10</title>
<path fill="none" stroke="midnightblue" d="M402.77,-337.31C405.9,-336.86 408.99,-336.42 412.01,-336 500.49,-323.58 602.33,-309.86 669.63,-300.88"/>
<polygon fill="midnightblue" stroke="midnightblue" points="670.27,-304.32 679.72,-299.53 669.34,-297.38 670.27,-304.32"/>
</g>
<!-- Node23&#45;&gt;Node16 -->
<g id="edge42" class="edge">
<title>Node23&#45;&gt;Node16</title>
<path fill="none" stroke="midnightblue" d="M360.75,-336.38C372.03,-327.33 390.28,-312.68 406.01,-300 447.84,-266.28 453.56,-250.99 500.01,-224 524.07,-210.02 553.29,-198.65 576.26,-190.83"/>
<polygon fill="midnightblue" stroke="midnightblue" points="577.62,-194.07 586.01,-187.6 575.41,-187.43 577.62,-194.07"/>
</g>
<!-- Node24&#45;&gt;Node10 -->
<g id="edge46" class="edge">
<title>Node24&#45;&gt;Node10</title>
<path fill="none" stroke="midnightblue" d="M799.41,-336.32C789.55,-328.26 774.66,-316.08 762.79,-306.37"/>
<polygon fill="midnightblue" stroke="midnightblue" points="764.76,-303.46 754.81,-299.83 760.33,-308.88 764.76,-303.46"/>
</g>
<!-- Node24&#45;&gt;Node16 -->
<g id="edge47" class="edge">
<title>Node24&#45;&gt;Node16</title>
<path fill="none" stroke="midnightblue" d="M743.89,-336.43C717.37,-330.1 688.15,-319.11 667.01,-300 658.93,-292.7 634.09,-229.28 621.9,-197.29"/>
<polygon fill="midnightblue" stroke="midnightblue" points="625.11,-195.89 618.29,-187.77 618.56,-198.37 625.11,-195.89"/>
</g>
<!-- Node24&#45;&gt;Node21 -->
<g id="edge48" class="edge">
<title>Node24&#45;&gt;Node21</title>
<path fill="none" stroke="midnightblue" d="M858.97,-336.44C913.55,-326.9 1001.8,-311.48 1060.11,-301.29"/>
<polygon fill="midnightblue" stroke="midnightblue" points="1061.03,-304.69 1070.28,-299.52 1059.82,-297.79 1061.03,-304.69"/>
</g>
<!-- Node25&#45;&gt;Node10 -->
<g id="edge50" class="edge">
<title>Node25&#45;&gt;Node10</title>
<path fill="none" stroke="midnightblue" d="M1206.96,-336.9C1203.94,-336.59 1200.95,-336.29 1198.01,-336 1066.54,-322.84 913.62,-307.72 823.04,-298.79"/>
<polygon fill="midnightblue" stroke="midnightblue" points="823.15,-295.28 812.85,-297.78 822.46,-302.25 823.15,-295.28"/>
</g>
<!-- Node25&#45;&gt;Node16 -->
<g id="edge51" class="edge">
<title>Node25&#45;&gt;Node16</title>
<path fill="none" stroke="midnightblue" d="M1282.79,-336.25C1271.07,-313.06 1235.6,-249.99 1185.01,-224 1138.08,-199.89 776.04,-184.79 654.58,-180.36"/>
<polygon fill="midnightblue" stroke="midnightblue" points="654.38,-176.85 644.26,-179.99 654.13,-183.85 654.38,-176.85"/>
</g>
<!-- Node25&#45;&gt;Node21 -->
<g id="edge52" class="edge">
<title>Node25&#45;&gt;Node21</title>
<path fill="none" stroke="midnightblue" d="M1260.39,-336.44C1232,-327.32 1186.87,-312.81 1155.26,-302.65"/>
<polygon fill="midnightblue" stroke="midnightblue" points="1156.1,-299.24 1145.51,-299.52 1153.95,-305.91 1156.1,-299.24"/>
</g>
<!-- Node26&#45;&gt;Node10 -->
<g id="edge54" class="edge">
<title>Node26&#45;&gt;Node10</title>
<path fill="none" stroke="midnightblue" d="M1385.33,-336.95C1382.18,-336.62 1379.06,-336.3 1376.01,-336 1177.34,-316.69 942.77,-302.15 823.02,-295.31"/>
<polygon fill="midnightblue" stroke="midnightblue" points="823.03,-291.81 812.84,-294.74 822.63,-298.8 823.03,-291.81"/>
</g>
<!-- Node26&#45;&gt;Node16 -->
<g id="edge55" class="edge">
<title>Node26&#45;&gt;Node16</title>
<path fill="none" stroke="midnightblue" d="M1436.65,-336.41C1402.69,-313.31 1304.3,-249.91 1212.01,-224 1106.48,-194.38 769.6,-183.02 654.22,-179.94"/>
<polygon fill="midnightblue" stroke="midnightblue" points="654.16,-176.44 644.07,-179.67 653.98,-183.43 654.16,-176.44"/>
</g>
<!-- Node26&#45;&gt;Node21 -->
<g id="edge56" class="edge">
<title>Node26&#45;&gt;Node21</title>
<path fill="none" stroke="midnightblue" d="M1396.72,-336.44C1338.19,-326.87 1243.4,-311.36 1181.14,-301.17"/>
<polygon fill="midnightblue" stroke="midnightblue" points="1181.49,-297.68 1171.05,-299.52 1180.36,-304.59 1181.49,-297.68"/>
</g>
<!-- Node27&#45;&gt;Node10 -->
<g id="edge58" class="edge">
<title>Node27&#45;&gt;Node10</title>
<path fill="none" stroke="midnightblue" d="M531.94,-336.44C575.9,-327.02 646.64,-311.87 694.19,-301.68"/>
<polygon fill="midnightblue" stroke="midnightblue" points="695.22,-305.03 704.27,-299.52 693.75,-298.19 695.22,-305.03"/>
</g>
<!-- Node27&#45;&gt;Node16 -->
<g id="edge59" class="edge">
<title>Node27&#45;&gt;Node16</title>
<path fill="none" stroke="midnightblue" d="M491.13,-336.29C489.43,-314.75 487.99,-258.25 515.01,-224 530.07,-204.9 555.01,-193.66 576.21,-187.19"/>
<polygon fill="midnightblue" stroke="midnightblue" points="577.27,-190.53 585.95,-184.46 575.38,-183.79 577.27,-190.53"/>
</g>
<!-- Node28&#45;&gt;Node10 -->
<g id="edge61" class="edge">
<title>Node28&#45;&gt;Node10</title>
<path fill="none" stroke="midnightblue" d="M662.59,-336.32C678.01,-327.74 701.82,-314.49 719.72,-304.52"/>
<polygon fill="midnightblue" stroke="midnightblue" points="721.43,-307.58 728.46,-299.65 718.02,-301.46 721.43,-307.58"/>
</g>
<!-- Node28&#45;&gt;Node16 -->
<g id="edge62" class="edge">
<title>Node28&#45;&gt;Node16</title>
<path fill="none" stroke="midnightblue" d="M642.98,-336.23C639.05,-327.31 633.22,-312.97 630.01,-300 621.24,-264.5 617.47,-221.82 615.95,-197.81"/>
<polygon fill="midnightblue" stroke="midnightblue" points="619.44,-197.42 615.38,-187.64 612.45,-197.82 619.44,-197.42"/>
</g>
</g>
</svg>
