<?xml version="1.0" encoding="UTF-8" standalone="no"?>
<!DOCTYPE svg PUBLIC "-//W3C//DTD SVG 1.1//EN"
 "http://www.w3.org/Graphics/SVG/1.1/DTD/svg11.dtd">
<!-- Generated by graphviz version 3.0.0 (20220413.0242)
 -->
<!-- Title: io/configreader.hpp Pages: 1 -->
<svg width="1485pt" height="420pt"
 viewBox="0.00 0.00 1485.00 420.00" xmlns="http://www.w3.org/2000/svg" xmlns:xlink="http://www.w3.org/1999/xlink">
<g id="graph0" class="graph" transform="scale(1 1) rotate(0) translate(4 416)">
<title>io/configreader.hpp</title>
<!-- Node1 -->
<g id="node1" class="node">
<title>Node1</title>
<g id="a_node1"><a xlink:title="IO::ConfigReader source file.">
<polygon fill="#bfbfbf" stroke="black" points="358.5,-392.5 358.5,-411.5 456.5,-411.5 456.5,-392.5 358.5,-392.5"/>
<text text-anchor="middle" x="407.5" y="-399.5" font-family="Helvetica,sans-Serif" font-size="10.00">io/configreader.hpp</text>
</a>
</g>
</g>
<!-- Node2 -->
<g id="node2" class="node">
<title>Node2</title>
<g id="a_node2"><a xlink:title=" ">
<polygon fill="none" stroke="#bfbfbf" points="270,-168.5 270,-187.5 299,-187.5 299,-168.5 270,-168.5"/>
<text text-anchor="middle" x="284.5" y="-175.5" font-family="Helvetica,sans-Serif" font-size="10.00">list</text>
</a>
</g>
</g>
<!-- Node1&#45;&gt;Node2 -->
<g id="edge1" class="edge">
<title>Node1&#45;&gt;Node2</title>
<path fill="none" stroke="midnightblue" d="M368.23,-392.5C344.08,-385.74 313.64,-374.31 291.5,-356 268.88,-337.29 264.59,-328.21 256.5,-300 246.09,-263.71 263.02,-220.46 274.76,-196.75"/>
<polygon fill="midnightblue" stroke="midnightblue" points="278.01,-198.07 279.52,-187.59 271.8,-194.84 278.01,-198.07"/>
</g>
<!-- Node3 -->
<g id="node3" class="node">
<title>Node3</title>
<g id="a_node3"><a xlink:title=" ">
<polygon fill="none" stroke="#bfbfbf" points="74,-336.5 74,-355.5 133,-355.5 133,-336.5 74,-336.5"/>
<text text-anchor="middle" x="103.5" y="-343.5" font-family="Helvetica,sans-Serif" font-size="10.00">stdexcept</text>
</a>
</g>
</g>
<!-- Node1&#45;&gt;Node3 -->
<g id="edge2" class="edge">
<title>Node1&#45;&gt;Node3</title>
<path fill="none" stroke="midnightblue" d="M358.06,-392.9C305.69,-384.22 220.65,-369.81 147.5,-356 146.06,-355.73 144.6,-355.45 143.12,-355.16"/>
<polygon fill="midnightblue" stroke="midnightblue" points="143.79,-351.73 133.3,-353.22 142.43,-358.59 143.79,-351.73"/>
</g>
<!-- Node4 -->
<g id="node4" class="node">
<title>Node4</title>
<g id="a_node4"><a xlink:title=" ">
<polygon fill="none" stroke="#bfbfbf" points="210,-0.5 210,-19.5 251,-19.5 251,-0.5 210,-0.5"/>
<text text-anchor="middle" x="230.5" y="-7.5" font-family="Helvetica,sans-Serif" font-size="10.00">string</text>
</a>
</g>
</g>
<!-- Node1&#45;&gt;Node4 -->
<g id="edge3" class="edge">
<title>Node1&#45;&gt;Node4</title>
<path fill="none" stroke="midnightblue" d="M358.31,-400.12C286.52,-395.93 161.5,-376.38 161.5,-291 161.5,-291 161.5,-291 161.5,-121 161.5,-82.39 192.38,-46.21 212.83,-26.49"/>
<polygon fill="midnightblue" stroke="midnightblue" points="215.37,-28.9 220.32,-19.54 210.61,-23.77 215.37,-28.9"/>
</g>
<!-- Node5 -->
<g id="node5" class="node">
<title>Node5</title>
<g id="a_node5"><a xlink:href="debug_8hpp.html" target="_top" xlink:title="HELPERS::DEBUG source file.">
<polygon fill="none" stroke="black" points="266,-280.5 266,-299.5 369,-299.5 369,-280.5 266,-280.5"/>
<text text-anchor="middle" x="317.5" y="-287.5" font-family="Helvetica,sans-Serif" font-size="10.00">../helpers/debug.hpp</text>
</a>
</g>
</g>
<!-- Node1&#45;&gt;Node5 -->
<g id="edge4" class="edge">
<title>Node1&#45;&gt;Node5</title>
<path fill="none" stroke="midnightblue" d="M358.5,-393.18C336.58,-386.97 312.74,-375.86 299.5,-356 289.9,-341.59 297.39,-322.14 305.44,-308.28"/>
<polygon fill="midnightblue" stroke="midnightblue" points="308.48,-310.02 310.89,-299.71 302.57,-306.27 308.48,-310.02"/>
</g>
<!-- Node7 -->
<g id="node7" class="node">
<title>Node7</title>
<g id="a_node7"><a xlink:href="startswith_8hpp.html" target="_top" xlink:title="HELPERS::startswith source file.">
<polygon fill="none" stroke="black" points="0,-56.5 0,-75.5 119,-75.5 119,-56.5 0,-56.5"/>
<text text-anchor="middle" x="59.5" y="-63.5" font-family="Helvetica,sans-Serif" font-size="10.00">../helpers/startswith.hpp</text>
</a>
</g>
</g>
<!-- Node1&#45;&gt;Node7 -->
<g id="edge6" class="edge">
<title>Node1&#45;&gt;Node7</title>
<path fill="none" stroke="midnightblue" d="M358.17,-400.95C274.02,-399.86 107.6,-392.93 64.5,-356 41.64,-336.42 45.5,-321.1 45.5,-291 45.5,-291 45.5,-291 45.5,-177 45.5,-144.54 51.57,-107.12 55.72,-85.36"/>
<polygon fill="midnightblue" stroke="midnightblue" points="59.16,-86 57.67,-75.51 52.29,-84.64 59.16,-86"/>
</g>
<!-- Node8 -->
<g id="node8" class="node">
<title>Node8</title>
<g id="a_node8"><a xlink:href="bloodvessel_8hpp.html" target="_top" xlink:title="MODEL::BloodVessel source file.">
<polygon fill="none" stroke="black" points="614,-336.5 614,-355.5 737,-355.5 737,-336.5 614,-336.5"/>
<text text-anchor="middle" x="675.5" y="-343.5" font-family="Helvetica,sans-Serif" font-size="10.00">../model/bloodvessel.hpp</text>
</a>
</g>
</g>
<!-- Node1&#45;&gt;Node8 -->
<g id="edge8" class="edge">
<title>Node1&#45;&gt;Node8</title>
<path fill="none" stroke="midnightblue" d="M449.97,-392.44C496.91,-382.98 572.58,-367.74 623.15,-357.55"/>
<polygon fill="midnightblue" stroke="midnightblue" points="624.12,-360.92 633.23,-355.52 622.74,-354.06 624.12,-360.92"/>
</g>
<!-- Node13 -->
<g id="node13" class="node">
<title>Node13</title>
<g id="a_node13"><a xlink:href="model_8hpp.html" target="_top" xlink:title="MODEL::Model source file.">
<polygon fill="none" stroke="black" points="362.5,-224.5 362.5,-243.5 460.5,-243.5 460.5,-224.5 362.5,-224.5"/>
<text text-anchor="middle" x="411.5" y="-231.5" font-family="Helvetica,sans-Serif" font-size="10.00">../model/model.hpp</text>
</a>
</g>
</g>
<!-- Node1&#45;&gt;Node13 -->
<g id="edge43" class="edge">
<title>Node1&#45;&gt;Node13</title>
<path fill="none" stroke="midnightblue" d="M382.87,-392.42C356.81,-381.79 321.06,-361.89 333.5,-336 344.6,-312.92 362.34,-319.87 378.5,-300 390.08,-285.76 399.13,-266.79 404.8,-253.03"/>
<polygon fill="midnightblue" stroke="midnightblue" points="408.08,-254.26 408.47,-243.67 401.56,-251.71 408.08,-254.26"/>
</g>
<!-- Node19 -->
<g id="node19" class="node">
<title>Node19</title>
<g id="a_node19"><a xlink:href="node_8hpp.html" target="_top" xlink:title="MODEL::Node source file.">
<polygon fill="none" stroke="black" points="306.5,-112.5 306.5,-131.5 362.5,-131.5 362.5,-112.5 306.5,-112.5"/>
<text text-anchor="middle" x="334.5" y="-119.5" font-family="Helvetica,sans-Serif" font-size="10.00">node.hpp</text>
</a>
</g>
</g>
<!-- Node1&#45;&gt;Node19 -->
<g id="edge44" class="edge">
<title>Node1&#45;&gt;Node19</title>
<path fill="none" stroke="midnightblue" d="M358.47,-396.44C296.98,-387.71 199.5,-362.59 199.5,-291 199.5,-291 199.5,-291 199.5,-233 199.5,-182.31 257.41,-150.83 297.38,-135.14"/>
<polygon fill="midnightblue" stroke="midnightblue" points="298.72,-138.38 306.85,-131.58 296.26,-131.82 298.72,-138.38"/>
</g>
<!-- Node20 -->
<g id="node20" class="node">
<title>Node20</title>
<g id="a_node20"><a xlink:href="flowreferencebc_8hpp.html" target="_top" xlink:title="MODEL::FlowReferenceBC source file.">
<polygon fill="none" stroke="black" points="755.5,-336.5 755.5,-355.5 895.5,-355.5 895.5,-336.5 755.5,-336.5"/>
<text text-anchor="middle" x="825.5" y="-343.5" font-family="Helvetica,sans-Serif" font-size="10.00">../model/flowreferencebc.hpp</text>
</a>
</g>
</g>
<!-- Node1&#45;&gt;Node20 -->
<g id="edge32" class="edge">
<title>Node1&#45;&gt;Node20</title>
<path fill="none" stroke="midnightblue" d="M456.68,-394.65C528.95,-385.31 664.47,-367.8 749.58,-356.81"/>
<polygon fill="midnightblue" stroke="midnightblue" points="750.23,-360.25 759.7,-355.5 749.33,-353.31 750.23,-360.25"/>
</g>
<!-- Node23 -->
<g id="node23" class="node">
<title>Node23</title>
<g id="a_node23"><a xlink:href="junction_8hpp.html" target="_top" xlink:title="MODEL::Junction source file.">
<polygon fill="none" stroke="black" points="491,-336.5 491,-355.5 596,-355.5 596,-336.5 491,-336.5"/>
<text text-anchor="middle" x="543.5" y="-343.5" font-family="Helvetica,sans-Serif" font-size="10.00">../model/junction.hpp</text>
</a>
</g>
</g>
<!-- Node1&#45;&gt;Node23 -->
<g id="edge40" class="edge">
<title>Node1&#45;&gt;Node23</title>
<path fill="none" stroke="midnightblue" d="M429.05,-392.44C451.53,-383.52 486.99,-369.44 512.48,-359.32"/>
<polygon fill="midnightblue" stroke="midnightblue" points="514.05,-362.46 522.05,-355.52 511.47,-355.95 514.05,-362.46"/>
</g>
<!-- Node24 -->
<g id="node24" class="node">
<title>Node24</title>
<g id="a_node24"><a xlink:href="openloopcoronarybc_8hpp.html" target="_top" xlink:title="MODEL::OpenLoopCoronaryBC source file.">
<polygon fill="none" stroke="black" points="1237.5,-336.5 1237.5,-355.5 1395.5,-355.5 1395.5,-336.5 1237.5,-336.5"/>
<text text-anchor="middle" x="1316.5" y="-343.5" font-family="Helvetica,sans-Serif" font-size="10.00">../model/openloopcoronarybc.hpp</text>
</a>
</g>
</g>
<!-- Node1&#45;&gt;Node24 -->
<g id="edge45" class="edge">
<title>Node1&#45;&gt;Node24</title>
<path fill="none" stroke="midnightblue" d="M456.6,-399.12C582.65,-394.11 928.17,-379.29 1227.19,-356.07"/>
<polygon fill="midnightblue" stroke="midnightblue" points="1227.66,-359.54 1237.36,-355.27 1227.12,-352.56 1227.66,-359.54"/>
</g>
<!-- Node25 -->
<g id="node25" class="node">
<title>Node25</title>
<g id="a_node25"><a xlink:href="pressurereferencebc_8hpp.html" target="_top" xlink:title="MODEL::PressureReferenceBC source file.">
<polygon fill="none" stroke="black" points="913.5,-336.5 913.5,-355.5 1073.5,-355.5 1073.5,-336.5 913.5,-336.5"/>
<text text-anchor="middle" x="993.5" y="-343.5" font-family="Helvetica,sans-Serif" font-size="10.00">../model/pressurereferencebc.hpp</text>
</a>
</g>
</g>
<!-- Node1&#45;&gt;Node25 -->
<g id="edge49" class="edge">
<title>Node1&#45;&gt;Node25</title>
<path fill="none" stroke="midnightblue" d="M456.54,-396.73C543.99,-389.08 732.86,-372.39 903.29,-356.11"/>
<polygon fill="midnightblue" stroke="midnightblue" points="903.83,-359.57 913.45,-355.13 903.16,-352.6 903.83,-359.57"/>
</g>
<!-- Node26 -->
<g id="node26" class="node">
<title>Node26</title>
<g id="a_node26"><a xlink:href="resistancebc_8hpp.html" target="_top" xlink:title="MODEL::ResistanceBC source file.">
<polygon fill="none" stroke="black" points="1092,-336.5 1092,-355.5 1219,-355.5 1219,-336.5 1092,-336.5"/>
<text text-anchor="middle" x="1155.5" y="-343.5" font-family="Helvetica,sans-Serif" font-size="10.00">../model/resistancebc.hpp</text>
</a>
</g>
</g>
<!-- Node1&#45;&gt;Node26 -->
<g id="edge53" class="edge">
<title>Node1&#45;&gt;Node26</title>
<path fill="none" stroke="midnightblue" d="M456.7,-398.67C566.68,-393.25 841.02,-378.6 1081.83,-356.01"/>
<polygon fill="midnightblue" stroke="midnightblue" points="1082.2,-359.49 1091.82,-355.06 1081.54,-352.52 1082.2,-359.49"/>
</g>
<!-- Node27 -->
<g id="node27" class="node">
<title>Node27</title>
<g id="a_node27"><a xlink:href="windkesselbc_8hpp.html" target="_top" xlink:title="MODEL::WindkesselBC source file.">
<polygon fill="none" stroke="black" points="342,-336.5 342,-355.5 473,-355.5 473,-336.5 342,-336.5"/>
<text text-anchor="middle" x="407.5" y="-343.5" font-family="Helvetica,sans-Serif" font-size="10.00">../model/windkesselbc.hpp</text>
</a>
</g>
</g>
<!-- Node1&#45;&gt;Node27 -->
<g id="edge57" class="edge">
<title>Node1&#45;&gt;Node27</title>
<path fill="none" stroke="midnightblue" d="M407.5,-392.08C407.5,-385.01 407.5,-374.86 407.5,-365.99"/>
<polygon fill="midnightblue" stroke="midnightblue" points="411,-365.75 407.5,-355.75 404,-365.75 411,-365.75"/>
</g>
<!-- Node28 -->
<g id="node28" class="node">
<title>Node28</title>
<g id="a_node28"><a xlink:title=" ">
<polygon fill="none" stroke="#bfbfbf" points="1414,-336.5 1414,-355.5 1477,-355.5 1477,-336.5 1414,-336.5"/>
<text text-anchor="middle" x="1445.5" y="-343.5" font-family="Helvetica,sans-Serif" font-size="10.00">simdjson.h</text>
</a>
</g>
</g>
<!-- Node1&#45;&gt;Node28 -->
<g id="edge60" class="edge">
<title>Node1&#45;&gt;Node28</title>
<path fill="none" stroke="midnightblue" d="M456.59,-399.9C627.78,-395.88 1198.61,-381 1403.74,-355.8"/>
<polygon fill="midnightblue" stroke="midnightblue" points="1404.33,-359.25 1413.81,-354.52 1403.45,-352.31 1404.33,-359.25"/>
</g>
<!-- Node6 -->
<g id="node6" class="node">
<title>Node6</title>
<g id="a_node6"><a xlink:title=" ">
<polygon fill="none" stroke="#bfbfbf" points="290.5,-224.5 290.5,-243.5 344.5,-243.5 344.5,-224.5 290.5,-224.5"/>
<text text-anchor="middle" x="317.5" y="-231.5" font-family="Helvetica,sans-Serif" font-size="10.00">iostream</text>
</a>
</g>
</g>
<!-- Node5&#45;&gt;Node6 -->
<g id="edge5" class="edge">
<title>Node5&#45;&gt;Node6</title>
<path fill="none" stroke="midnightblue" d="M317.5,-280.08C317.5,-273.01 317.5,-262.86 317.5,-253.99"/>
<polygon fill="midnightblue" stroke="midnightblue" points="321,-253.75 317.5,-243.75 314,-253.75 321,-253.75"/>
</g>
<!-- Node7&#45;&gt;Node4 -->
<g id="edge7" class="edge">
<title>Node7&#45;&gt;Node4</title>
<path fill="none" stroke="midnightblue" d="M86.6,-56.44C117.53,-46.68 167.99,-30.74 200.2,-20.57"/>
<polygon fill="midnightblue" stroke="midnightblue" points="201.49,-23.83 209.97,-17.48 199.38,-17.16 201.49,-23.83"/>
</g>
<!-- Node9 -->
<g id="node9" class="node">
<title>Node9</title>
<g id="a_node9"><a xlink:title=" ">
<polygon fill="none" stroke="#bfbfbf" points="904.5,-224.5 904.5,-243.5 950.5,-243.5 950.5,-224.5 904.5,-224.5"/>
<text text-anchor="middle" x="927.5" y="-231.5" font-family="Helvetica,sans-Serif" font-size="10.00">math.h</text>
</a>
</g>
</g>
<!-- Node8&#45;&gt;Node9 -->
<g id="edge9" class="edge">
<title>Node8&#45;&gt;Node9</title>
<path fill="none" stroke="midnightblue" d="M695.27,-336.37C739.53,-317.05 846.72,-270.26 898.52,-247.65"/>
<polygon fill="midnightblue" stroke="midnightblue" points="900.05,-250.8 907.82,-243.59 897.25,-244.38 900.05,-250.8"/>
</g>
<!-- Node10 -->
<g id="node10" class="node">
<title>Node10</title>
<g id="a_node10"><a xlink:href="sparsesystem_8hpp.html" target="_top" xlink:title="ALGEBRA::SparseSystem source file.">
<polygon fill="none" stroke="black" points="599,-280.5 599,-299.5 736,-299.5 736,-280.5 599,-280.5"/>
<text text-anchor="middle" x="667.5" y="-287.5" font-family="Helvetica,sans-Serif" font-size="10.00">../algebra/sparsesystem.hpp</text>
</a>
</g>
</g>
<!-- Node8&#45;&gt;Node10 -->
<g id="edge10" class="edge">
<title>Node8&#45;&gt;Node10</title>
<path fill="none" stroke="midnightblue" d="M674.18,-336.08C673.12,-328.93 671.59,-318.64 670.27,-309.69"/>
<polygon fill="midnightblue" stroke="midnightblue" points="673.72,-309.13 668.8,-299.75 666.8,-310.16 673.72,-309.13"/>
</g>
<!-- Node16 -->
<g id="node16" class="node">
<title>Node16</title>
<g id="a_node16"><a xlink:href="block_8hpp.html" target="_top" xlink:title="MODEL::Block source file.">
<polygon fill="none" stroke="black" points="554.5,-168.5 554.5,-187.5 612.5,-187.5 612.5,-168.5 554.5,-168.5"/>
<text text-anchor="middle" x="583.5" y="-175.5" font-family="Helvetica,sans-Serif" font-size="10.00">block.hpp</text>
</a>
</g>
</g>
<!-- Node8&#45;&gt;Node16 -->
<g id="edge31" class="edge">
<title>Node8&#45;&gt;Node16</title>
<path fill="none" stroke="midnightblue" d="M642.95,-336.46C624.3,-329.76 602.32,-318.41 590.5,-300 570.48,-268.83 574.69,-223.31 579.26,-197.92"/>
<polygon fill="midnightblue" stroke="midnightblue" points="582.76,-198.28 581.31,-187.79 575.9,-196.9 582.76,-198.28"/>
</g>
<!-- Node10&#45;&gt;Node6 -->
<g id="edge13" class="edge">
<title>Node10&#45;&gt;Node6</title>
<path fill="none" stroke="midnightblue" d="M598.86,-281.22C537.33,-273.78 444.41,-261.39 354.64,-244.05"/>
<polygon fill="midnightblue" stroke="midnightblue" points="355.05,-240.57 344.56,-242.08 353.7,-247.44 355.05,-240.57"/>
</g>
<!-- Node11 -->
<g id="node11" class="node">
<title>Node11</title>
<g id="a_node11"><a xlink:title=" ">
<polygon fill="none" stroke="#bfbfbf" points="630.5,-224.5 630.5,-243.5 704.5,-243.5 704.5,-224.5 630.5,-224.5"/>
<text text-anchor="middle" x="667.5" y="-231.5" font-family="Helvetica,sans-Serif" font-size="10.00">Eigen/Sparse</text>
</a>
</g>
</g>
<!-- Node10&#45;&gt;Node11 -->
<g id="edge11" class="edge">
<title>Node10&#45;&gt;Node11</title>
<path fill="none" stroke="midnightblue" d="M667.5,-280.08C667.5,-273.01 667.5,-262.86 667.5,-253.99"/>
<polygon fill="midnightblue" stroke="midnightblue" points="671,-253.75 667.5,-243.75 664,-253.75 671,-253.75"/>
</g>
<!-- Node12 -->
<g id="node12" class="node">
<title>Node12</title>
<g id="a_node12"><a xlink:title=" ">
<polygon fill="none" stroke="#bfbfbf" points="722.5,-224.5 722.5,-243.5 810.5,-243.5 810.5,-224.5 722.5,-224.5"/>
<text text-anchor="middle" x="766.5" y="-231.5" font-family="Helvetica,sans-Serif" font-size="10.00">Eigen/SparseLU</text>
</a>
</g>
</g>
<!-- Node10&#45;&gt;Node12 -->
<g id="edge12" class="edge">
<title>Node10&#45;&gt;Node12</title>
<path fill="none" stroke="midnightblue" d="M683.41,-280.32C699.14,-271.74 723.44,-258.49 741.71,-248.52"/>
<polygon fill="midnightblue" stroke="midnightblue" points="743.53,-251.52 750.63,-243.65 740.18,-245.37 743.53,-251.52"/>
</g>
<!-- Node10&#45;&gt;Node13 -->
<g id="edge14" class="edge">
<title>Node10&#45;&gt;Node13</title>
<path fill="none" stroke="midnightblue" d="M621.85,-280.44C575.12,-271.02 503.12,-255.87 456.6,-245.68"/>
<polygon fill="midnightblue" stroke="midnightblue" points="457.31,-242.25 446.79,-243.52 455.81,-249.08 457.31,-242.25"/>
</g>
<!-- Node13&#45;&gt;Node2 -->
<g id="edge16" class="edge">
<title>Node13&#45;&gt;Node2</title>
<path fill="none" stroke="midnightblue" d="M391.38,-224.44C368.98,-214.92 332.79,-199.53 308.82,-189.34"/>
<polygon fill="midnightblue" stroke="midnightblue" points="309.94,-186.02 299.37,-185.32 307.2,-192.46 309.94,-186.02"/>
</g>
<!-- Node13&#45;&gt;Node10 -->
<g id="edge18" class="edge">
<title>Node13&#45;&gt;Node10</title>
<path fill="none" stroke="midnightblue" d="M456.95,-243.52C503.61,-252.92 575.61,-268.08 622.2,-278.28"/>
<polygon fill="midnightblue" stroke="midnightblue" points="621.51,-281.71 632.02,-280.44 623.01,-274.88 621.51,-281.71"/>
</g>
<!-- Node14 -->
<g id="node14" class="node">
<title>Node14</title>
<g id="a_node14"><a xlink:title=" ">
<polygon fill="none" stroke="#bfbfbf" points="362.5,-168.5 362.5,-187.5 418.5,-187.5 418.5,-168.5 362.5,-168.5"/>
<text text-anchor="middle" x="390.5" y="-175.5" font-family="Helvetica,sans-Serif" font-size="10.00">algorithm</text>
</a>
</g>
</g>
<!-- Node13&#45;&gt;Node14 -->
<g id="edge15" class="edge">
<title>Node13&#45;&gt;Node14</title>
<path fill="none" stroke="midnightblue" d="M408.03,-224.08C405.19,-216.77 401.07,-206.18 397.54,-197.1"/>
<polygon fill="midnightblue" stroke="midnightblue" points="400.79,-195.8 393.9,-187.75 394.27,-198.34 400.79,-195.8"/>
</g>
<!-- Node15 -->
<g id="node15" class="node">
<title>Node15</title>
<g id="a_node15"><a xlink:title=" ">
<polygon fill="none" stroke="#bfbfbf" points="542.5,-0.5 542.5,-19.5 586.5,-19.5 586.5,-0.5 542.5,-0.5"/>
<text text-anchor="middle" x="564.5" y="-7.5" font-family="Helvetica,sans-Serif" font-size="10.00">vector</text>
</a>
</g>
</g>
<!-- Node13&#45;&gt;Node15 -->
<g id="edge17" class="edge">
<title>Node13&#45;&gt;Node15</title>
<path fill="none" stroke="midnightblue" d="M417.5,-224.3C440.3,-191.22 521.83,-72.91 552.62,-28.24"/>
<polygon fill="midnightblue" stroke="midnightblue" points="555.58,-30.1 558.38,-19.88 549.82,-26.13 555.58,-30.1"/>
</g>
<!-- Node13&#45;&gt;Node16 -->
<g id="edge19" class="edge">
<title>Node13&#45;&gt;Node16</title>
<path fill="none" stroke="midnightblue" d="M438.75,-224.44C467.94,-215.28 514.42,-200.69 546.81,-190.52"/>
<polygon fill="midnightblue" stroke="midnightblue" points="547.88,-193.85 556.37,-187.52 545.78,-187.17 547.88,-193.85"/>
</g>
<!-- Node18 -->
<g id="node18" class="node">
<title>Node18</title>
<g id="a_node18"><a xlink:href="dofhandler_8hpp.html" target="_top" xlink:title="MODEL::DOFHandler source file.">
<polygon fill="none" stroke="black" points="391.5,-56.5 391.5,-75.5 471.5,-75.5 471.5,-56.5 391.5,-56.5"/>
<text text-anchor="middle" x="431.5" y="-63.5" font-family="Helvetica,sans-Serif" font-size="10.00">dofhandler.hpp</text>
</a>
</g>
</g>
<!-- Node13&#45;&gt;Node18 -->
<g id="edge29" class="edge">
<title>Node13&#45;&gt;Node18</title>
<path fill="none" stroke="midnightblue" d="M415.52,-224.26C419.4,-215.35 425.03,-201.03 427.5,-188 434.26,-152.33 433.72,-109.71 432.65,-85.75"/>
<polygon fill="midnightblue" stroke="midnightblue" points="436.14,-85.41 432.11,-75.61 429.15,-85.78 436.14,-85.41"/>
</g>
<!-- Node13&#45;&gt;Node19 -->
<g id="edge30" class="edge">
<title>Node13&#45;&gt;Node19</title>
<path fill="none" stroke="midnightblue" d="M395.44,-224.37C382.32,-216.54 364.26,-203.8 353.5,-188 344.09,-174.18 339.27,-155.66 336.85,-141.92"/>
<polygon fill="midnightblue" stroke="midnightblue" points="340.26,-141.09 335.33,-131.72 333.34,-142.13 340.26,-141.09"/>
</g>
<!-- Node16&#45;&gt;Node10 -->
<g id="edge22" class="edge">
<title>Node16&#45;&gt;Node10</title>
<path fill="none" stroke="midnightblue" d="M587.73,-187.88C594.12,-200.85 607.02,-225.45 621.5,-244 629.81,-254.65 640.54,-265.29 649.55,-273.54"/>
<polygon fill="midnightblue" stroke="midnightblue" points="647.42,-276.33 657.21,-280.38 652.08,-271.11 647.42,-276.33"/>
</g>
<!-- Node16&#45;&gt;Node15 -->
<g id="edge21" class="edge">
<title>Node16&#45;&gt;Node15</title>
<path fill="none" stroke="midnightblue" d="M590.65,-168.36C597.27,-159.76 606.66,-145.87 610.5,-132 612.87,-123.43 612.39,-120.69 610.5,-112 603.75,-80.91 586.58,-47.91 575.23,-28.4"/>
<polygon fill="midnightblue" stroke="midnightblue" points="578.19,-26.53 570.05,-19.74 572.18,-30.12 578.19,-26.53"/>
</g>
<!-- Node17 -->
<g id="node17" class="node">
<title>Node17</title>
<g id="a_node17"><a xlink:title=" ">
<polygon fill="none" stroke="#bfbfbf" points="566,-112.5 566,-131.5 601,-131.5 601,-112.5 566,-112.5"/>
<text text-anchor="middle" x="583.5" y="-119.5" font-family="Helvetica,sans-Serif" font-size="10.00">map</text>
</a>
</g>
</g>
<!-- Node16&#45;&gt;Node17 -->
<g id="edge20" class="edge">
<title>Node16&#45;&gt;Node17</title>
<path fill="none" stroke="midnightblue" d="M583.5,-168.08C583.5,-161.01 583.5,-150.86 583.5,-141.99"/>
<polygon fill="midnightblue" stroke="midnightblue" points="587,-141.75 583.5,-131.75 580,-141.75 587,-141.75"/>
</g>
<!-- Node16&#45;&gt;Node18 -->
<g id="edge23" class="edge">
<title>Node16&#45;&gt;Node18</title>
<path fill="none" stroke="midnightblue" d="M571.57,-168.37C545.6,-149.57 483.69,-104.77 451.58,-81.53"/>
<polygon fill="midnightblue" stroke="midnightblue" points="453.52,-78.62 443.37,-75.59 449.42,-84.29 453.52,-78.62"/>
</g>
<!-- Node16&#45;&gt;Node19 -->
<g id="edge26" class="edge">
<title>Node16&#45;&gt;Node19</title>
<path fill="none" stroke="midnightblue" d="M554.45,-170.7C509.32,-160.91 422.38,-142.06 372.38,-131.22"/>
<polygon fill="midnightblue" stroke="midnightblue" points="373.12,-127.79 362.6,-129.09 371.63,-134.63 373.12,-127.79"/>
</g>
<!-- Node18&#45;&gt;Node4 -->
<g id="edge24" class="edge">
<title>Node18&#45;&gt;Node4</title>
<path fill="none" stroke="midnightblue" d="M399.65,-56.44C361.61,-46.22 298.42,-29.25 260.99,-19.19"/>
<polygon fill="midnightblue" stroke="midnightblue" points="261.72,-15.76 251.15,-16.55 259.9,-22.52 261.72,-15.76"/>
</g>
<!-- Node18&#45;&gt;Node15 -->
<g id="edge25" class="edge">
<title>Node18&#45;&gt;Node15</title>
<path fill="none" stroke="midnightblue" d="M452.57,-56.44C474.56,-47.52 509.23,-33.44 534.16,-23.32"/>
<polygon fill="midnightblue" stroke="midnightblue" points="535.58,-26.52 543.52,-19.52 532.94,-20.04 535.58,-26.52"/>
</g>
<!-- Node19&#45;&gt;Node4 -->
<g id="edge27" class="edge">
<title>Node19&#45;&gt;Node4</title>
<path fill="none" stroke="midnightblue" d="M326.34,-112.37C308.95,-93.97 268.01,-50.67 245.68,-27.05"/>
<polygon fill="midnightblue" stroke="midnightblue" points="248.04,-24.45 238.62,-19.59 242.95,-29.26 248.04,-24.45"/>
</g>
<!-- Node19&#45;&gt;Node18 -->
<g id="edge28" class="edge">
<title>Node19&#45;&gt;Node18</title>
<path fill="none" stroke="midnightblue" d="M350.08,-112.32C365.5,-103.74 389.31,-90.49 407.21,-80.52"/>
<polygon fill="midnightblue" stroke="midnightblue" points="408.92,-83.58 415.95,-75.65 405.51,-77.46 408.92,-83.58"/>
</g>
<!-- Node20&#45;&gt;Node10 -->
<g id="edge33" class="edge">
<title>Node20&#45;&gt;Node10</title>
<path fill="none" stroke="midnightblue" d="M800.46,-336.44C773.88,-327.36 731.69,-312.94 701.98,-302.78"/>
<polygon fill="midnightblue" stroke="midnightblue" points="703.01,-299.44 692.42,-299.52 700.75,-306.06 703.01,-299.44"/>
</g>
<!-- Node20&#45;&gt;Node16 -->
<g id="edge34" class="edge">
<title>Node20&#45;&gt;Node16</title>
<path fill="none" stroke="midnightblue" d="M828.25,-336.38C834.62,-314.55 847.8,-256.53 819.5,-224 794.32,-195.06 683.47,-184.47 623.07,-180.81"/>
<polygon fill="midnightblue" stroke="midnightblue" points="622.95,-177.3 612.77,-180.22 622.55,-184.28 622.95,-177.3"/>
</g>
<!-- Node21 -->
<g id="node21" class="node">
<title>Node21</title>
<g id="a_node21"><a xlink:href="timedependentparameter_8hpp.html" target="_top" xlink:title="MODEL::TimeDependentParameter source file.">
<polygon fill="none" stroke="black" points="922.5,-280.5 922.5,-299.5 1064.5,-299.5 1064.5,-280.5 922.5,-280.5"/>
<text text-anchor="middle" x="993.5" y="-287.5" font-family="Helvetica,sans-Serif" font-size="10.00">timedependentparameter.hpp</text>
</a>
</g>
</g>
<!-- Node20&#45;&gt;Node21 -->
<g id="edge35" class="edge">
<title>Node20&#45;&gt;Node21</title>
<path fill="none" stroke="midnightblue" d="M852.12,-336.44C880.51,-327.32 925.64,-312.81 957.25,-302.65"/>
<polygon fill="midnightblue" stroke="midnightblue" points="958.56,-305.91 967,-299.52 956.41,-299.24 958.56,-305.91"/>
</g>
<!-- Node21&#45;&gt;Node9 -->
<g id="edge36" class="edge">
<title>Node21&#45;&gt;Node9</title>
<path fill="none" stroke="midnightblue" d="M982.9,-280.32C973.04,-272.26 958.15,-260.08 946.28,-250.37"/>
<polygon fill="midnightblue" stroke="midnightblue" points="948.25,-247.46 938.3,-243.83 943.82,-252.88 948.25,-247.46"/>
</g>
<!-- Node21&#45;&gt;Node15 -->
<g id="edge38" class="edge">
<title>Node21&#45;&gt;Node15</title>
<path fill="none" stroke="midnightblue" d="M1040.86,-280.42C1092.68,-267.99 1168.5,-239.47 1168.5,-179 1168.5,-179 1168.5,-179 1168.5,-121 1168.5,-62.35 722.08,-23.24 596.83,-13.42"/>
<polygon fill="midnightblue" stroke="midnightblue" points="596.95,-9.92 586.71,-12.64 596.41,-16.9 596.95,-9.92"/>
</g>
<!-- Node21&#45;&gt;Node18 -->
<g id="edge39" class="edge">
<title>Node21&#45;&gt;Node18</title>
<path fill="none" stroke="midnightblue" d="M1004.62,-280.3C1019.84,-267.34 1043.72,-242.52 1029.5,-224 912.11,-71.11 797.09,-160.39 610.5,-112 564.71,-100.13 512.21,-86.98 475.96,-77.98"/>
<polygon fill="midnightblue" stroke="midnightblue" points="476.74,-74.57 466.19,-75.56 475.05,-81.36 476.74,-74.57"/>
</g>
<!-- Node22 -->
<g id="node22" class="node">
<title>Node22</title>
<g id="a_node22"><a xlink:title=" ">
<polygon fill="none" stroke="#bfbfbf" points="969,-224.5 969,-243.5 1020,-243.5 1020,-224.5 969,-224.5"/>
<text text-anchor="middle" x="994.5" y="-231.5" font-family="Helvetica,sans-Serif" font-size="10.00">numeric</text>
</a>
</g>
</g>
<!-- Node21&#45;&gt;Node22 -->
<g id="edge37" class="edge">
<title>Node21&#45;&gt;Node22</title>
<path fill="none" stroke="midnightblue" d="M993.67,-280.08C993.8,-273.01 993.98,-262.86 994.15,-253.99"/>
<polygon fill="midnightblue" stroke="midnightblue" points="997.65,-253.81 994.34,-243.75 990.65,-253.68 997.65,-253.81"/>
</g>
<!-- Node23&#45;&gt;Node10 -->
<g id="edge41" class="edge">
<title>Node23&#45;&gt;Node10</title>
<path fill="none" stroke="midnightblue" d="M563.15,-336.44C583.46,-327.6 615.4,-313.69 638.6,-303.59"/>
<polygon fill="midnightblue" stroke="midnightblue" points="640.17,-306.72 647.94,-299.52 637.38,-300.3 640.17,-306.72"/>
</g>
<!-- Node23&#45;&gt;Node16 -->
<g id="edge42" class="edge">
<title>Node23&#45;&gt;Node16</title>
<path fill="none" stroke="midnightblue" d="M542.38,-336.46C540.07,-316.21 536.11,-264 550.5,-224 554.26,-213.56 561.26,-203.45 567.85,-195.47"/>
<polygon fill="midnightblue" stroke="midnightblue" points="570.69,-197.54 574.67,-187.72 565.43,-192.92 570.69,-197.54"/>
</g>
<!-- Node24&#45;&gt;Node10 -->
<g id="edge46" class="edge">
<title>Node24&#45;&gt;Node10</title>
<path fill="none" stroke="midnightblue" d="M1237.35,-336.82C1234.37,-336.54 1231.41,-336.27 1228.5,-336 1056.7,-320.33 855.04,-304.87 746.42,-296.78"/>
<polygon fill="midnightblue" stroke="midnightblue" points="746.43,-293.27 736.2,-296.02 745.91,-300.26 746.43,-293.27"/>
</g>
<!-- Node24&#45;&gt;Node16 -->
<g id="edge47" class="edge">
<title>Node24&#45;&gt;Node16</title>
<path fill="none" stroke="midnightblue" d="M1302.5,-336.37C1264.57,-313.45 1155.96,-251.01 1056.5,-224 899.97,-181.49 704.85,-177.73 622.76,-178.28"/>
<polygon fill="midnightblue" stroke="midnightblue" points="622.6,-174.78 612.63,-178.37 622.66,-181.78 622.6,-174.78"/>
</g>
<!-- Node24&#45;&gt;Node21 -->
<g id="edge48" class="edge">
<title>Node24&#45;&gt;Node21</title>
<path fill="none" stroke="midnightblue" d="M1265.32,-336.44C1208.03,-326.87 1115.26,-311.36 1054.31,-301.17"/>
<polygon fill="midnightblue" stroke="midnightblue" points="1054.88,-297.71 1044.44,-299.52 1053.73,-304.62 1054.88,-297.71"/>
</g>
<!-- Node25&#45;&gt;Node10 -->
<g id="edge50" class="edge">
<title>Node25&#45;&gt;Node10</title>
<path fill="none" stroke="midnightblue" d="M941.84,-336.44C884.02,-326.87 790.39,-311.36 728.88,-301.17"/>
<polygon fill="midnightblue" stroke="midnightblue" points="729.35,-297.7 718.91,-299.52 728.21,-304.6 729.35,-297.7"/>
</g>
<!-- Node25&#45;&gt;Node16 -->
<g id="edge51" class="edge">
<title>Node25&#45;&gt;Node16</title>
<path fill="none" stroke="midnightblue" d="M974.81,-336.35C957.99,-328.15 933,-314.89 913.5,-300 875.78,-271.2 880.52,-246.05 838.5,-224 768.86,-187.45 675.31,-179.84 623.06,-178.68"/>
<polygon fill="midnightblue" stroke="midnightblue" points="622.92,-175.18 612.87,-178.53 622.81,-182.18 622.92,-175.18"/>
</g>
<!-- Node25&#45;&gt;Node21 -->
<g id="edge52" class="edge">
<title>Node25&#45;&gt;Node21</title>
<path fill="none" stroke="midnightblue" d="M993.5,-336.08C993.5,-329.01 993.5,-318.86 993.5,-309.99"/>
<polygon fill="midnightblue" stroke="midnightblue" points="997,-309.75 993.5,-299.75 990,-309.75 997,-309.75"/>
</g>
<!-- Node26&#45;&gt;Node10 -->
<g id="edge54" class="edge">
<title>Node26&#45;&gt;Node10</title>
<path fill="none" stroke="midnightblue" d="M1091.81,-337.09C1088.66,-336.72 1085.54,-336.35 1082.5,-336 965.54,-322.45 829.88,-307.97 746.37,-299.2"/>
<polygon fill="midnightblue" stroke="midnightblue" points="746.5,-295.7 736.19,-298.14 745.77,-302.66 746.5,-295.7"/>
</g>
<!-- Node26&#45;&gt;Node16 -->
<g id="edge55" class="edge">
<title>Node26&#45;&gt;Node16</title>
<path fill="none" stroke="midnightblue" d="M1147.88,-336.34C1125.31,-310.92 1058.55,-237.42 1029.5,-224 957.58,-190.77 717.91,-181.93 622.85,-179.71"/>
<polygon fill="midnightblue" stroke="midnightblue" points="622.86,-176.21 612.78,-179.48 622.7,-183.2 622.86,-176.21"/>
</g>
<!-- Node26&#45;&gt;Node21 -->
<g id="edge56" class="edge">
<title>Node26&#45;&gt;Node21</title>
<path fill="none" stroke="midnightblue" d="M1129.83,-336.44C1102.58,-327.36 1059.32,-312.94 1028.85,-302.78"/>
<polygon fill="midnightblue" stroke="midnightblue" points="1029.64,-299.36 1019.05,-299.52 1027.43,-306 1029.64,-299.36"/>
</g>
<!-- Node27&#45;&gt;Node10 -->
<g id="edge58" class="edge">
<title>Node27&#45;&gt;Node10</title>
<path fill="none" stroke="midnightblue" d="M448.7,-336.44C494.15,-327 567.34,-311.8 616.41,-301.61"/>
<polygon fill="midnightblue" stroke="midnightblue" points="617.42,-304.98 626.49,-299.52 615.99,-298.12 617.42,-304.98"/>
</g>
<!-- Node27&#45;&gt;Node16 -->
<g id="edge59" class="edge">
<title>Node27&#45;&gt;Node16</title>
<path fill="none" stroke="midnightblue" d="M416.96,-336.08C445.51,-309.15 531,-228.51 567.12,-194.45"/>
<polygon fill="midnightblue" stroke="midnightblue" points="569.54,-196.98 574.42,-187.57 564.74,-191.88 569.54,-196.98"/>
</g>
</g>
</svg>
