<?xml version="1.0" encoding="UTF-8" standalone="no"?>
<!DOCTYPE svg PUBLIC "-//W3C//DTD SVG 1.1//EN"
 "http://www.w3.org/Graphics/SVG/1.1/DTD/svg11.dtd">
<!-- Generated by graphviz version 3.0.0 (20220413.0242)
 -->
<!-- Title: io/configreader.hpp Pages: 1 -->
<svg width="1291pt" height="364pt"
 viewBox="0.00 0.00 1290.50 364.00" xmlns="http://www.w3.org/2000/svg" xmlns:xlink="http://www.w3.org/1999/xlink">
<g id="graph0" class="graph" transform="scale(1 1) rotate(0) translate(4 360)">
<title>io/configreader.hpp</title>
<!-- Node1 -->
<g id="node1" class="node">
<title>Node1</title>
<g id="a_node1"><a xlink:title="IO::ConfigReader source file.">
<polygon fill="#bfbfbf" stroke="black" points="606,-336.5 606,-355.5 704,-355.5 704,-336.5 606,-336.5"/>
<text text-anchor="middle" x="655" y="-343.5" font-family="Helvetica,sans-Serif" font-size="10.00">io/configreader.hpp</text>
</a>
</g>
</g>
<!-- Node2 -->
<g id="node2" class="node">
<title>Node2</title>
<g id="a_node2"><a xlink:title=" ">
<polygon fill="none" stroke="#bfbfbf" points="259.5,-0.5 259.5,-19.5 300.5,-19.5 300.5,-0.5 259.5,-0.5"/>
<text text-anchor="middle" x="280" y="-7.5" font-family="Helvetica,sans-Serif" font-size="10.00">string</text>
</a>
</g>
</g>
<!-- Node1&#45;&gt;Node2 -->
<g id="edge1" class="edge">
<title>Node1&#45;&gt;Node2</title>
<path fill="none" stroke="midnightblue" d="M605.77,-341.93C453.44,-331.78 0,-296.4 0,-235 0,-235 0,-235 0,-121 0,-67.86 176.92,-29.7 249.49,-16.28"/>
<polygon fill="midnightblue" stroke="midnightblue" points="250.2,-19.71 259.41,-14.48 248.95,-12.82 250.2,-19.71"/>
</g>
<!-- Node3 -->
<g id="node3" class="node">
<title>Node3</title>
<g id="a_node3"><a xlink:title=" ">
<polygon fill="none" stroke="#bfbfbf" points="528.5,-280.5 528.5,-299.5 587.5,-299.5 587.5,-280.5 528.5,-280.5"/>
<text text-anchor="middle" x="558" y="-287.5" font-family="Helvetica,sans-Serif" font-size="10.00">stdexcept</text>
</a>
</g>
</g>
<!-- Node1&#45;&gt;Node3 -->
<g id="edge2" class="edge">
<title>Node1&#45;&gt;Node3</title>
<path fill="none" stroke="midnightblue" d="M639.42,-336.32C624,-327.74 600.19,-314.49 582.29,-304.52"/>
<polygon fill="midnightblue" stroke="midnightblue" points="583.99,-301.46 573.55,-299.65 580.58,-307.58 583.99,-301.46"/>
</g>
<!-- Node4 -->
<g id="node4" class="node">
<title>Node4</title>
<g id="a_node4"><a xlink:href="model_8hpp.html" target="_top" xlink:title="MODEL::Model source file.">
<polygon fill="none" stroke="black" points="606,-280.5 606,-299.5 704,-299.5 704,-280.5 606,-280.5"/>
<text text-anchor="middle" x="655" y="-287.5" font-family="Helvetica,sans-Serif" font-size="10.00">../model/model.hpp</text>
</a>
</g>
</g>
<!-- Node1&#45;&gt;Node4 -->
<g id="edge3" class="edge">
<title>Node1&#45;&gt;Node4</title>
<path fill="none" stroke="midnightblue" d="M655,-336.08C655,-329.01 655,-318.86 655,-309.99"/>
<polygon fill="midnightblue" stroke="midnightblue" points="658.5,-309.75 655,-299.75 651.5,-309.75 658.5,-309.75"/>
</g>
<!-- Node28 -->
<g id="node28" class="node">
<title>Node28</title>
<g id="a_node28"><a xlink:href="debug_8hpp.html" target="_top" xlink:title="HELPERS::DEBUG source file.">
<polygon fill="none" stroke="black" points="1179.5,-168.5 1179.5,-187.5 1282.5,-187.5 1282.5,-168.5 1179.5,-168.5"/>
<text text-anchor="middle" x="1231" y="-175.5" font-family="Helvetica,sans-Serif" font-size="10.00">../helpers/debug.hpp</text>
</a>
</g>
</g>
<!-- Node1&#45;&gt;Node28 -->
<g id="edge64" class="edge">
<title>Node1&#45;&gt;Node28</title>
<path fill="none" stroke="midnightblue" d="M704.26,-342.72C796.26,-336.81 998.66,-316.02 1151,-244 1176.39,-232 1200.72,-210.28 1215.74,-195.27"/>
<polygon fill="midnightblue" stroke="midnightblue" points="1218.61,-197.34 1223.08,-187.73 1213.6,-192.46 1218.61,-197.34"/>
</g>
<!-- Node29 -->
<g id="node29" class="node">
<title>Node29</title>
<g id="a_node29"><a xlink:title=" ">
<polygon fill="none" stroke="#bfbfbf" points="1217.5,-280.5 1217.5,-299.5 1280.5,-299.5 1280.5,-280.5 1217.5,-280.5"/>
<text text-anchor="middle" x="1249" y="-287.5" font-family="Helvetica,sans-Serif" font-size="10.00">simdjson.h</text>
</a>
</g>
</g>
<!-- Node1&#45;&gt;Node29 -->
<g id="edge66" class="edge">
<title>Node1&#45;&gt;Node29</title>
<path fill="none" stroke="midnightblue" d="M704.32,-342.79C800.57,-338.08 1020.03,-325.33 1203,-300 1204.46,-299.8 1205.95,-299.58 1207.44,-299.35"/>
<polygon fill="midnightblue" stroke="midnightblue" points="1208.13,-302.78 1217.4,-297.66 1206.96,-295.88 1208.13,-302.78"/>
</g>
<!-- Node5 -->
<g id="node5" class="node">
<title>Node5</title>
<g id="a_node5"><a xlink:title=" ">
<polygon fill="none" stroke="#bfbfbf" points="1113.5,-112.5 1113.5,-131.5 1148.5,-131.5 1148.5,-112.5 1113.5,-112.5"/>
<text text-anchor="middle" x="1131" y="-119.5" font-family="Helvetica,sans-Serif" font-size="10.00">map</text>
</a>
</g>
</g>
<!-- Node4&#45;&gt;Node5 -->
<g id="edge4" class="edge">
<title>Node4&#45;&gt;Node5</title>
<path fill="none" stroke="midnightblue" d="M704.22,-288.03C820.3,-285.22 1103.59,-275.22 1132,-244 1157.48,-216.01 1146.6,-167.48 1137.92,-141.19"/>
<polygon fill="midnightblue" stroke="midnightblue" points="1141.19,-139.96 1134.55,-131.7 1134.6,-142.3 1141.19,-139.96"/>
</g>
<!-- Node6 -->
<g id="node6" class="node">
<title>Node6</title>
<g id="a_node6"><a xlink:title=" ">
<polygon fill="none" stroke="#bfbfbf" points="1093.5,-224.5 1093.5,-243.5 1122.5,-243.5 1122.5,-224.5 1093.5,-224.5"/>
<text text-anchor="middle" x="1108" y="-231.5" font-family="Helvetica,sans-Serif" font-size="10.00">list</text>
</a>
</g>
</g>
<!-- Node4&#45;&gt;Node6 -->
<g id="edge5" class="edge">
<title>Node4&#45;&gt;Node6</title>
<path fill="none" stroke="midnightblue" d="M704.12,-286.9C783.61,-282.81 945.06,-271.62 1079,-244 1080.48,-243.69 1082,-243.34 1083.52,-242.96"/>
<polygon fill="midnightblue" stroke="midnightblue" points="1084.74,-246.25 1093.39,-240.14 1082.82,-239.52 1084.74,-246.25"/>
</g>
<!-- Node7 -->
<g id="node7" class="node">
<title>Node7</title>
<g id="a_node7"><a xlink:title=" ">
<polygon fill="none" stroke="#bfbfbf" points="28,-224.5 28,-243.5 74,-243.5 74,-224.5 28,-224.5"/>
<text text-anchor="middle" x="51" y="-231.5" font-family="Helvetica,sans-Serif" font-size="10.00">variant</text>
</a>
</g>
</g>
<!-- Node4&#45;&gt;Node7 -->
<g id="edge6" class="edge">
<title>Node4&#45;&gt;Node7</title>
<path fill="none" stroke="midnightblue" d="M605.78,-281.19C602.48,-280.76 599.19,-280.36 596,-280 371.05,-254.91 311.64,-278.87 88,-244 86.75,-243.81 85.48,-243.59 84.2,-243.36"/>
<polygon fill="midnightblue" stroke="midnightblue" points="84.87,-239.92 74.37,-241.31 83.45,-246.77 84.87,-239.92"/>
</g>
<!-- Node8 -->
<g id="node8" class="node">
<title>Node8</title>
<g id="a_node8"><a xlink:href="densesystem_8hpp.html" target="_top" xlink:title="ALGEBRA::DenseSystem source file.">
<polygon fill="none" stroke="black" points="655,-112.5 655,-131.5 789,-131.5 789,-112.5 655,-112.5"/>
<text text-anchor="middle" x="722" y="-119.5" font-family="Helvetica,sans-Serif" font-size="10.00">../algebra/densesystem.hpp</text>
</a>
</g>
</g>
<!-- Node4&#45;&gt;Node8 -->
<g id="edge7" class="edge">
<title>Node4&#45;&gt;Node8</title>
<path fill="none" stroke="midnightblue" d="M704.16,-289.96C786.23,-290.16 945.26,-284.86 981,-244 998.67,-223.79 979.58,-184.94 959,-168 934.64,-147.95 858.65,-136.16 799.15,-129.72"/>
<polygon fill="midnightblue" stroke="midnightblue" points="799.31,-126.21 789,-128.65 798.58,-133.18 799.31,-126.21"/>
</g>
<!-- Node10 -->
<g id="node10" class="node">
<title>Node10</title>
<g id="a_node10"><a xlink:href="sparsesystem_8hpp.html" target="_top" xlink:title="ALGEBRA::SparseSystem source file.">
<polygon fill="none" stroke="black" points="326.5,-112.5 326.5,-131.5 463.5,-131.5 463.5,-112.5 326.5,-112.5"/>
<text text-anchor="middle" x="395" y="-119.5" font-family="Helvetica,sans-Serif" font-size="10.00">../algebra/sparsesystem.hpp</text>
</a>
</g>
</g>
<!-- Node4&#45;&gt;Node10 -->
<g id="edge10" class="edge">
<title>Node4&#45;&gt;Node10</title>
<path fill="none" stroke="midnightblue" d="M605.85,-282.5C599.48,-281.59 593.07,-280.72 587,-280 540.6,-274.47 199.6,-278.43 168,-244 142.99,-216.75 178.73,-187.52 207,-168 226.28,-154.68 281.97,-141.89 327.84,-133.38"/>
<polygon fill="midnightblue" stroke="midnightblue" points="328.55,-136.8 337.76,-131.57 327.29,-129.92 328.55,-136.8"/>
</g>
<!-- Node14 -->
<g id="node14" class="node">
<title>Node14</title>
<g id="a_node14"><a xlink:href="junction_8hpp.html" target="_top" xlink:title="MODEL::Junction source file.">
<polygon fill="none" stroke="black" points="290,-224.5 290,-243.5 358,-243.5 358,-224.5 290,-224.5"/>
<text text-anchor="middle" x="324" y="-231.5" font-family="Helvetica,sans-Serif" font-size="10.00">junction.hpp</text>
</a>
</g>
</g>
<!-- Node4&#45;&gt;Node14 -->
<g id="edge15" class="edge">
<title>Node4&#45;&gt;Node14</title>
<path fill="none" stroke="midnightblue" d="M605.83,-281.46C536.03,-270.73 412.5,-251.67 368.14,-244.08"/>
<polygon fill="midnightblue" stroke="midnightblue" points="368.69,-240.62 358.24,-242.33 367.48,-247.52 368.69,-240.62"/>
</g>
<!-- Node17 -->
<g id="node17" class="node">
<title>Node17</title>
<g id="a_node17"><a xlink:href="node_8hpp.html" target="_top" xlink:title="MODEL::Node source file.">
<polygon fill="none" stroke="black" points="252,-112.5 252,-131.5 308,-131.5 308,-112.5 252,-112.5"/>
<text text-anchor="middle" x="280" y="-119.5" font-family="Helvetica,sans-Serif" font-size="10.00">node.hpp</text>
</a>
</g>
</g>
<!-- Node4&#45;&gt;Node17 -->
<g id="edge35" class="edge">
<title>Node4&#45;&gt;Node17</title>
<path fill="none" stroke="midnightblue" d="M605.78,-281.24C602.47,-280.79 599.19,-280.38 596,-280 548.27,-274.37 197.54,-279.37 165,-244 147.68,-225.17 167.47,-189.08 187,-168 201.84,-151.98 223.61,-141.02 242.35,-133.93"/>
<polygon fill="midnightblue" stroke="midnightblue" points="243.57,-137.21 251.83,-130.56 241.23,-130.61 243.57,-137.21"/>
</g>
<!-- Node18 -->
<g id="node18" class="node">
<title>Node18</title>
<g id="a_node18"><a xlink:href="dofhandler_8hpp.html" target="_top" xlink:title="MODEL::DOFHandler source file.">
<polygon fill="none" stroke="black" points="587,-56.5 587,-75.5 667,-75.5 667,-56.5 587,-56.5"/>
<text text-anchor="middle" x="627" y="-63.5" font-family="Helvetica,sans-Serif" font-size="10.00">dofhandler.hpp</text>
</a>
</g>
</g>
<!-- Node4&#45;&gt;Node18 -->
<g id="edge34" class="edge">
<title>Node4&#45;&gt;Node18</title>
<path fill="none" stroke="midnightblue" d="M704.34,-286.42C798.36,-281 995.7,-266.99 1016,-244 1060.23,-193.91 1003.75,-141.93 944,-112 837.34,-58.56 795.88,-94.37 678,-76 677.67,-75.95 677.33,-75.9 677,-75.84"/>
<polygon fill="midnightblue" stroke="midnightblue" points="677.5,-72.38 667.06,-74.23 676.37,-79.29 677.5,-72.38"/>
</g>
<!-- Node19 -->
<g id="node19" class="node">
<title>Node19</title>
<g id="a_node19"><a xlink:href="bloodvessel_8hpp.html" target="_top" xlink:title="MODEL::BloodVessel source file.">
<polygon fill="none" stroke="black" points="186,-224.5 186,-243.5 272,-243.5 272,-224.5 186,-224.5"/>
<text text-anchor="middle" x="229" y="-231.5" font-family="Helvetica,sans-Serif" font-size="10.00">bloodvessel.hpp</text>
</a>
</g>
</g>
<!-- Node4&#45;&gt;Node19 -->
<g id="edge29" class="edge">
<title>Node4&#45;&gt;Node19</title>
<path fill="none" stroke="midnightblue" d="M605.76,-281.35C602.46,-280.88 599.18,-280.42 596,-280 459.6,-261.81 422.22,-263.91 282.35,-244.12"/>
<polygon fill="midnightblue" stroke="midnightblue" points="282.49,-240.6 272.1,-242.66 281.5,-247.53 282.49,-240.6"/>
</g>
<!-- Node21 -->
<g id="node21" class="node">
<title>Node21</title>
<g id="a_node21"><a xlink:href="flowreferencebc_8hpp.html" target="_top" xlink:title="MODEL::FlowReferenceBC source file.">
<polygon fill="none" stroke="black" points="488.5,-224.5 488.5,-243.5 591.5,-243.5 591.5,-224.5 488.5,-224.5"/>
<text text-anchor="middle" x="540" y="-231.5" font-family="Helvetica,sans-Serif" font-size="10.00">flowreferencebc.hpp</text>
</a>
</g>
</g>
<!-- Node4&#45;&gt;Node21 -->
<g id="edge36" class="edge">
<title>Node4&#45;&gt;Node21</title>
<path fill="none" stroke="midnightblue" d="M636.78,-280.44C618.1,-271.68 588.84,-257.94 567.38,-247.86"/>
<polygon fill="midnightblue" stroke="midnightblue" points="568.68,-244.6 558.14,-243.52 565.7,-250.93 568.68,-244.6"/>
</g>
<!-- Node24 -->
<g id="node24" class="node">
<title>Node24</title>
<g id="a_node24"><a xlink:href="pressurereferencebc_8hpp.html" target="_top" xlink:title="MODEL::PressureReferenceBC source file.">
<polygon fill="none" stroke="black" points="857.5,-224.5 857.5,-243.5 980.5,-243.5 980.5,-224.5 857.5,-224.5"/>
<text text-anchor="middle" x="919" y="-231.5" font-family="Helvetica,sans-Serif" font-size="10.00">pressurereferencebc.hpp</text>
</a>
</g>
</g>
<!-- Node4&#45;&gt;Node24 -->
<g id="edge45" class="edge">
<title>Node4&#45;&gt;Node24</title>
<path fill="none" stroke="midnightblue" d="M696.83,-280.44C743.08,-270.98 817.61,-255.74 867.44,-245.55"/>
<polygon fill="midnightblue" stroke="midnightblue" points="868.27,-248.95 877.36,-243.52 866.87,-242.09 868.27,-248.95"/>
</g>
<!-- Node25 -->
<g id="node25" class="node">
<title>Node25</title>
<g id="a_node25"><a xlink:href="windkesselbc_8hpp.html" target="_top" xlink:title="MODEL::WindkesselBC source file.">
<polygon fill="none" stroke="black" points="376,-224.5 376,-243.5 470,-243.5 470,-224.5 376,-224.5"/>
<text text-anchor="middle" x="423" y="-231.5" font-family="Helvetica,sans-Serif" font-size="10.00">windkesselbc.hpp</text>
</a>
</g>
</g>
<!-- Node4&#45;&gt;Node25 -->
<g id="edge50" class="edge">
<title>Node4&#45;&gt;Node25</title>
<path fill="none" stroke="midnightblue" d="M618.24,-280.44C577.94,-271.06 513.19,-255.99 469.42,-245.8"/>
<polygon fill="midnightblue" stroke="midnightblue" points="470.12,-242.37 459.59,-243.52 468.54,-249.19 470.12,-242.37"/>
</g>
<!-- Node26 -->
<g id="node26" class="node">
<title>Node26</title>
<g id="a_node26"><a xlink:href="resistancebc_8hpp.html" target="_top" xlink:title="MODEL::ResistanceBC source file.">
<polygon fill="none" stroke="black" points="610,-224.5 610,-243.5 700,-243.5 700,-224.5 610,-224.5"/>
<text text-anchor="middle" x="655" y="-231.5" font-family="Helvetica,sans-Serif" font-size="10.00">resistancebc.hpp</text>
</a>
</g>
</g>
<!-- Node4&#45;&gt;Node26 -->
<g id="edge54" class="edge">
<title>Node4&#45;&gt;Node26</title>
<path fill="none" stroke="midnightblue" d="M655,-280.08C655,-273.01 655,-262.86 655,-253.99"/>
<polygon fill="midnightblue" stroke="midnightblue" points="658.5,-253.75 655,-243.75 651.5,-253.75 658.5,-253.75"/>
</g>
<!-- Node27 -->
<g id="node27" class="node">
<title>Node27</title>
<g id="a_node27"><a xlink:href="openloopcoronarybc_8hpp.html" target="_top" xlink:title="MODEL::OpenLoopCoronaryBC source file.">
<polygon fill="none" stroke="black" points="718.5,-224.5 718.5,-243.5 839.5,-243.5 839.5,-224.5 718.5,-224.5"/>
<text text-anchor="middle" x="779" y="-231.5" font-family="Helvetica,sans-Serif" font-size="10.00">openloopcoronarybc.hpp</text>
</a>
</g>
</g>
<!-- Node4&#45;&gt;Node27 -->
<g id="edge59" class="edge">
<title>Node4&#45;&gt;Node27</title>
<path fill="none" stroke="midnightblue" d="M674.65,-280.44C694.96,-271.6 726.9,-257.69 750.1,-247.59"/>
<polygon fill="midnightblue" stroke="midnightblue" points="751.67,-250.72 759.44,-243.52 748.88,-244.3 751.67,-250.72"/>
</g>
<!-- Node8&#45;&gt;Node4 -->
<g id="edge9" class="edge">
<title>Node8&#45;&gt;Node4</title>
<path fill="none" stroke="midnightblue" d="M789.26,-127.39C855.15,-133.12 949.34,-145.24 977,-168 997.58,-184.94 1016.67,-223.79 999,-244 963.14,-285 803.11,-290.2 714.43,-289.96"/>
<polygon fill="midnightblue" stroke="midnightblue" points="714.27,-286.46 704.25,-289.91 714.23,-293.46 714.27,-286.46"/>
</g>
<!-- Node9 -->
<g id="node9" class="node">
<title>Node9</title>
<g id="a_node9"><a xlink:title=" ">
<polygon fill="none" stroke="#bfbfbf" points="686.5,-56.5 686.5,-75.5 757.5,-75.5 757.5,-56.5 686.5,-56.5"/>
<text text-anchor="middle" x="722" y="-63.5" font-family="Helvetica,sans-Serif" font-size="10.00">Eigen/Dense</text>
</a>
</g>
</g>
<!-- Node8&#45;&gt;Node9 -->
<g id="edge8" class="edge">
<title>Node8&#45;&gt;Node9</title>
<path fill="none" stroke="midnightblue" d="M722,-112.08C722,-105.01 722,-94.86 722,-85.99"/>
<polygon fill="midnightblue" stroke="midnightblue" points="725.5,-85.75 722,-75.75 718.5,-85.75 725.5,-85.75"/>
</g>
<!-- Node10&#45;&gt;Node4 -->
<g id="edge14" class="edge">
<title>Node10&#45;&gt;Node4</title>
<path fill="none" stroke="midnightblue" d="M351.61,-131.57C308.33,-140.02 245.7,-153.71 225,-168 196.73,-187.52 160.99,-216.75 186,-244 215.93,-276.61 523.5,-274.78 598.74,-279.62"/>
<polygon fill="midnightblue" stroke="midnightblue" points="598.79,-283.14 609.06,-280.5 599.39,-276.16 598.79,-283.14"/>
</g>
<!-- Node11 -->
<g id="node11" class="node">
<title>Node11</title>
<g id="a_node11"><a xlink:title=" ">
<polygon fill="none" stroke="#bfbfbf" points="314,-56.5 314,-75.5 388,-75.5 388,-56.5 314,-56.5"/>
<text text-anchor="middle" x="351" y="-63.5" font-family="Helvetica,sans-Serif" font-size="10.00">Eigen/Sparse</text>
</a>
</g>
</g>
<!-- Node10&#45;&gt;Node11 -->
<g id="edge11" class="edge">
<title>Node10&#45;&gt;Node11</title>
<path fill="none" stroke="midnightblue" d="M387.73,-112.08C381.46,-104.38 372.21,-93.03 364.57,-83.65"/>
<polygon fill="midnightblue" stroke="midnightblue" points="367.16,-81.29 358.13,-75.75 361.73,-85.71 367.16,-81.29"/>
</g>
<!-- Node12 -->
<g id="node12" class="node">
<title>Node12</title>
<g id="a_node12"><a xlink:title=" ">
<polygon fill="none" stroke="#bfbfbf" points="406,-56.5 406,-75.5 494,-75.5 494,-56.5 406,-56.5"/>
<text text-anchor="middle" x="450" y="-63.5" font-family="Helvetica,sans-Serif" font-size="10.00">Eigen/SparseLU</text>
</a>
</g>
</g>
<!-- Node10&#45;&gt;Node12 -->
<g id="edge12" class="edge">
<title>Node10&#45;&gt;Node12</title>
<path fill="none" stroke="midnightblue" d="M404.08,-112.08C412.17,-104.14 424.2,-92.34 433.91,-82.8"/>
<polygon fill="midnightblue" stroke="midnightblue" points="436.4,-85.25 441.09,-75.75 431.5,-80.26 436.4,-85.25"/>
</g>
<!-- Node13 -->
<g id="node13" class="node">
<title>Node13</title>
<g id="a_node13"><a xlink:title=" ">
<polygon fill="none" stroke="#bfbfbf" points="1029,-56.5 1029,-75.5 1083,-75.5 1083,-56.5 1029,-56.5"/>
<text text-anchor="middle" x="1056" y="-63.5" font-family="Helvetica,sans-Serif" font-size="10.00">iostream</text>
</a>
</g>
</g>
<!-- Node10&#45;&gt;Node13 -->
<g id="edge13" class="edge">
<title>Node10&#45;&gt;Node13</title>
<path fill="none" stroke="midnightblue" d="M463.56,-115.4C602.27,-104.07 912.09,-78.76 1018.93,-70.03"/>
<polygon fill="midnightblue" stroke="midnightblue" points="1019.24,-73.52 1028.92,-69.21 1018.67,-66.54 1019.24,-73.52"/>
</g>
<!-- Node14&#45;&gt;Node8 -->
<g id="edge16" class="edge">
<title>Node14&#45;&gt;Node8</title>
<path fill="none" stroke="midnightblue" d="M342.29,-224.43C372.18,-210.74 433.6,-183.86 488,-168 541.65,-152.36 603.84,-140.69 650.61,-133.17"/>
<polygon fill="midnightblue" stroke="midnightblue" points="651.32,-136.6 660.65,-131.57 650.23,-129.68 651.32,-136.6"/>
</g>
<!-- Node14&#45;&gt;Node10 -->
<g id="edge17" class="edge">
<title>Node14&#45;&gt;Node10</title>
<path fill="none" stroke="midnightblue" d="M329.57,-224.37C341.24,-206.3 368.42,-164.18 383.83,-140.31"/>
<polygon fill="midnightblue" stroke="midnightblue" points="386.97,-141.89 389.45,-131.59 381.09,-138.1 386.97,-141.89"/>
</g>
<!-- Node15 -->
<g id="node15" class="node">
<title>Node15</title>
<g id="a_node15"><a xlink:href="block_8hpp.html" target="_top" xlink:title="MODEL::Block source file.">
<polygon fill="none" stroke="black" points="497,-168.5 497,-187.5 555,-187.5 555,-168.5 497,-168.5"/>
<text text-anchor="middle" x="526" y="-175.5" font-family="Helvetica,sans-Serif" font-size="10.00">block.hpp</text>
</a>
</g>
</g>
<!-- Node14&#45;&gt;Node15 -->
<g id="edge18" class="edge">
<title>Node14&#45;&gt;Node15</title>
<path fill="none" stroke="midnightblue" d="M356.01,-224.44C391.55,-214.94 448.91,-199.61 487.04,-189.42"/>
<polygon fill="midnightblue" stroke="midnightblue" points="488.01,-192.78 496.77,-186.82 486.2,-186.02 488.01,-192.78"/>
</g>
<!-- Node15&#45;&gt;Node5 -->
<g id="edge20" class="edge">
<title>Node15&#45;&gt;Node5</title>
<path fill="none" stroke="midnightblue" d="M555.18,-174.4C658,-165.22 1002.7,-134.45 1103.25,-125.48"/>
<polygon fill="midnightblue" stroke="midnightblue" points="1103.59,-128.96 1113.24,-124.58 1102.97,-121.99 1103.59,-128.96"/>
</g>
<!-- Node15&#45;&gt;Node8 -->
<g id="edge27" class="edge">
<title>Node15&#45;&gt;Node8</title>
<path fill="none" stroke="midnightblue" d="M555.34,-168.92C588.63,-159.74 643.15,-144.72 680.72,-134.37"/>
<polygon fill="midnightblue" stroke="midnightblue" points="682.12,-137.62 690.83,-131.59 680.26,-130.87 682.12,-137.62"/>
</g>
<!-- Node15&#45;&gt;Node10 -->
<g id="edge28" class="edge">
<title>Node15&#45;&gt;Node10</title>
<path fill="none" stroke="midnightblue" d="M505.24,-168.44C483.68,-159.56 449.74,-145.56 425.21,-135.45"/>
<polygon fill="midnightblue" stroke="midnightblue" points="426.24,-132.09 415.66,-131.52 423.57,-138.56 426.24,-132.09"/>
</g>
<!-- Node16 -->
<g id="node16" class="node">
<title>Node16</title>
<g id="a_node16"><a xlink:title=" ">
<polygon fill="none" stroke="#bfbfbf" points="605,-0.5 605,-19.5 649,-19.5 649,-0.5 605,-0.5"/>
<text text-anchor="middle" x="627" y="-7.5" font-family="Helvetica,sans-Serif" font-size="10.00">vector</text>
</a>
</g>
</g>
<!-- Node15&#45;&gt;Node16 -->
<g id="edge19" class="edge">
<title>Node15&#45;&gt;Node16</title>
<path fill="none" stroke="midnightblue" d="M527.61,-168.33C530.14,-155.62 535.64,-131.35 544,-112 555.55,-85.27 559.54,-78.52 578,-56 586.95,-45.09 598.52,-34.34 608.17,-26.08"/>
<polygon fill="midnightblue" stroke="midnightblue" points="610.6,-28.62 616.04,-19.53 606.12,-23.24 610.6,-28.62"/>
</g>
<!-- Node15&#45;&gt;Node17 -->
<g id="edge21" class="edge">
<title>Node15&#45;&gt;Node17</title>
<path fill="none" stroke="midnightblue" d="M496.87,-170.98C458.25,-162.95 387.74,-148.09 318.08,-132.2"/>
<polygon fill="midnightblue" stroke="midnightblue" points="318.79,-128.78 308.26,-129.96 317.23,-135.6 318.79,-128.78"/>
</g>
<!-- Node15&#45;&gt;Node18 -->
<g id="edge26" class="edge">
<title>Node15&#45;&gt;Node18</title>
<path fill="none" stroke="midnightblue" d="M552.87,-168.42C570.91,-161.35 593.87,-149.6 608,-132 618.69,-118.69 623.36,-99.57 625.41,-85.51"/>
<polygon fill="midnightblue" stroke="midnightblue" points="628.89,-85.86 626.55,-75.53 621.94,-85.07 628.89,-85.86"/>
</g>
<!-- Node17&#45;&gt;Node2 -->
<g id="edge22" class="edge">
<title>Node17&#45;&gt;Node2</title>
<path fill="none" stroke="midnightblue" d="M280,-112.37C280,-94.62 280,-53.67 280,-29.6"/>
<polygon fill="midnightblue" stroke="midnightblue" points="283.5,-29.59 280,-19.59 276.5,-29.59 283.5,-29.59"/>
</g>
<!-- Node17&#45;&gt;Node18 -->
<g id="edge23" class="edge">
<title>Node17&#45;&gt;Node18</title>
<path fill="none" stroke="midnightblue" d="M308.22,-113.84C311.18,-113.18 314.14,-112.55 317,-112 407.85,-94.4 514.88,-80.31 576.45,-72.85"/>
<polygon fill="midnightblue" stroke="midnightblue" points="577.16,-76.29 586.67,-71.62 576.32,-69.34 577.16,-76.29"/>
</g>
<!-- Node18&#45;&gt;Node2 -->
<g id="edge25" class="edge">
<title>Node18&#45;&gt;Node2</title>
<path fill="none" stroke="midnightblue" d="M586.86,-58.75C516.87,-47.86 373.98,-25.63 311,-15.82"/>
<polygon fill="midnightblue" stroke="midnightblue" points="311.32,-12.33 300.9,-14.25 310.24,-19.25 311.32,-12.33"/>
</g>
<!-- Node18&#45;&gt;Node16 -->
<g id="edge24" class="edge">
<title>Node18&#45;&gt;Node16</title>
<path fill="none" stroke="midnightblue" d="M627,-56.08C627,-49.01 627,-38.86 627,-29.99"/>
<polygon fill="midnightblue" stroke="midnightblue" points="630.5,-29.75 627,-19.75 623.5,-29.75 630.5,-29.75"/>
</g>
<!-- Node19&#45;&gt;Node8 -->
<g id="edge32" class="edge">
<title>Node19&#45;&gt;Node8</title>
<path fill="none" stroke="midnightblue" d="M251.16,-224.49C287.7,-210.75 363.11,-183.66 429,-168 501.3,-150.82 585.26,-138.7 644.72,-131.4"/>
<polygon fill="midnightblue" stroke="midnightblue" points="645.28,-134.86 654.78,-130.19 644.44,-127.91 645.28,-134.86"/>
</g>
<!-- Node19&#45;&gt;Node10 -->
<g id="edge33" class="edge">
<title>Node19&#45;&gt;Node10</title>
<path fill="none" stroke="midnightblue" d="M225.61,-224.38C220.92,-210.85 214.35,-184.48 227,-168 239.12,-152.21 283.3,-140.75 323.32,-133.35"/>
<polygon fill="midnightblue" stroke="midnightblue" points="324.15,-136.75 333.38,-131.55 322.92,-129.86 324.15,-136.75"/>
</g>
<!-- Node19&#45;&gt;Node15 -->
<g id="edge31" class="edge">
<title>Node19&#45;&gt;Node15</title>
<path fill="none" stroke="midnightblue" d="M272.19,-225.15C329.77,-214.68 430.89,-196.29 486.53,-186.18"/>
<polygon fill="midnightblue" stroke="midnightblue" points="487.48,-189.56 496.69,-184.33 486.23,-182.67 487.48,-189.56"/>
</g>
<!-- Node20 -->
<g id="node20" class="node">
<title>Node20</title>
<g id="a_node20"><a xlink:title=" ">
<polygon fill="none" stroke="#bfbfbf" points="553,-112.5 553,-131.5 599,-131.5 599,-112.5 553,-112.5"/>
<text text-anchor="middle" x="576" y="-119.5" font-family="Helvetica,sans-Serif" font-size="10.00">math.h</text>
</a>
</g>
</g>
<!-- Node19&#45;&gt;Node20 -->
<g id="edge30" class="edge">
<title>Node19&#45;&gt;Node20</title>
<path fill="none" stroke="midnightblue" d="M236.12,-224.13C248.21,-209.75 274.25,-181.61 303,-168 344.97,-148.14 479.23,-132.61 542.46,-126.2"/>
<polygon fill="midnightblue" stroke="midnightblue" points="543.09,-129.66 552.69,-125.18 542.39,-122.69 543.09,-129.66"/>
</g>
<!-- Node21&#45;&gt;Node8 -->
<g id="edge37" class="edge">
<title>Node21&#45;&gt;Node8</title>
<path fill="none" stroke="midnightblue" d="M561,-224.49C580.67,-216.18 610.61,-202.69 635,-188 660.03,-172.93 686.64,-152.28 703.74,-138.33"/>
<polygon fill="midnightblue" stroke="midnightblue" points="706.28,-140.78 711.76,-131.72 701.82,-135.38 706.28,-140.78"/>
</g>
<!-- Node21&#45;&gt;Node10 -->
<g id="edge38" class="edge">
<title>Node21&#45;&gt;Node10</title>
<path fill="none" stroke="midnightblue" d="M519.27,-224.42C501.31,-216.44 475.11,-203.48 455,-188 436.66,-173.88 419.12,-153.86 407.79,-139.77"/>
<polygon fill="midnightblue" stroke="midnightblue" points="410.52,-137.58 401.59,-131.88 405.02,-141.91 410.52,-137.58"/>
</g>
<!-- Node21&#45;&gt;Node15 -->
<g id="edge39" class="edge">
<title>Node21&#45;&gt;Node15</title>
<path fill="none" stroke="midnightblue" d="M537.69,-224.08C535.83,-216.93 533.16,-206.64 530.85,-197.69"/>
<polygon fill="midnightblue" stroke="midnightblue" points="534.17,-196.55 528.27,-187.75 527.39,-198.31 534.17,-196.55"/>
</g>
<!-- Node22 -->
<g id="node22" class="node">
<title>Node22</title>
<g id="a_node22"><a xlink:href="timedependentparameter_8hpp.html" target="_top" xlink:title="MODEL::TimeDependentParameter source file.">
<polygon fill="none" stroke="black" points="801,-168.5 801,-187.5 943,-187.5 943,-168.5 801,-168.5"/>
<text text-anchor="middle" x="872" y="-175.5" font-family="Helvetica,sans-Serif" font-size="10.00">timedependentparameter.hpp</text>
</a>
</g>
</g>
<!-- Node21&#45;&gt;Node22 -->
<g id="edge40" class="edge">
<title>Node21&#45;&gt;Node22</title>
<path fill="none" stroke="midnightblue" d="M591.51,-224.62C650.26,-215.07 746.3,-199.44 809.34,-189.19"/>
<polygon fill="midnightblue" stroke="midnightblue" points="810.24,-192.59 819.55,-187.53 809.11,-185.68 810.24,-192.59"/>
</g>
<!-- Node22&#45;&gt;Node16 -->
<g id="edge42" class="edge">
<title>Node22&#45;&gt;Node16</title>
<path fill="none" stroke="midnightblue" d="M867.19,-168.3C854.24,-145.76 816.29,-85.22 767,-56 732.82,-35.73 688.45,-23.48 658.92,-16.98"/>
<polygon fill="midnightblue" stroke="midnightblue" points="659.64,-13.56 649.13,-14.92 658.19,-20.41 659.64,-13.56"/>
</g>
<!-- Node22&#45;&gt;Node18 -->
<g id="edge44" class="edge">
<title>Node22&#45;&gt;Node18</title>
<path fill="none" stroke="midnightblue" d="M864.73,-168.43C852.42,-154.48 826.08,-126.94 798,-112 777.18,-100.92 719.73,-86.93 677.14,-77.51"/>
<polygon fill="midnightblue" stroke="midnightblue" points="677.72,-74.05 667.2,-75.34 676.23,-80.89 677.72,-74.05"/>
</g>
<!-- Node22&#45;&gt;Node20 -->
<g id="edge41" class="edge">
<title>Node22&#45;&gt;Node20</title>
<path fill="none" stroke="midnightblue" d="M825.1,-168.44C764.88,-157.46 661.9,-138.67 609.2,-129.06"/>
<polygon fill="midnightblue" stroke="midnightblue" points="609.83,-125.61 599.36,-127.26 608.57,-132.5 609.83,-125.61"/>
</g>
<!-- Node23 -->
<g id="node23" class="node">
<title>Node23</title>
<g id="a_node23"><a xlink:title=" ">
<polygon fill="none" stroke="#bfbfbf" points="883.5,-112.5 883.5,-131.5 934.5,-131.5 934.5,-112.5 883.5,-112.5"/>
<text text-anchor="middle" x="909" y="-119.5" font-family="Helvetica,sans-Serif" font-size="10.00">numeric</text>
</a>
</g>
</g>
<!-- Node22&#45;&gt;Node23 -->
<g id="edge43" class="edge">
<title>Node22&#45;&gt;Node23</title>
<path fill="none" stroke="midnightblue" d="M878.11,-168.08C883.28,-160.53 890.85,-149.49 897.19,-140.23"/>
<polygon fill="midnightblue" stroke="midnightblue" points="900.24,-141.98 903,-131.75 894.46,-138.02 900.24,-141.98"/>
</g>
<!-- Node24&#45;&gt;Node8 -->
<g id="edge46" class="edge">
<title>Node24&#45;&gt;Node8</title>
<path fill="none" stroke="midnightblue" d="M929.35,-224.3C943.78,-211.13 966.64,-185.78 952,-168 932.78,-144.65 858.33,-133.25 799.27,-127.79"/>
<polygon fill="midnightblue" stroke="midnightblue" points="799.46,-124.29 789.19,-126.9 798.84,-131.26 799.46,-124.29"/>
</g>
<!-- Node24&#45;&gt;Node10 -->
<g id="edge47" class="edge">
<title>Node24&#45;&gt;Node10</title>
<path fill="none" stroke="midnightblue" d="M878.65,-224.45C819.81,-211.99 707.01,-188.13 611,-168 554.48,-156.15 489.62,-142.65 445.85,-133.55"/>
<polygon fill="midnightblue" stroke="midnightblue" points="446.52,-130.12 436.01,-131.51 445.09,-136.97 446.52,-130.12"/>
</g>
<!-- Node24&#45;&gt;Node15 -->
<g id="edge48" class="edge">
<title>Node24&#45;&gt;Node15</title>
<path fill="none" stroke="midnightblue" d="M857.16,-224.5C775.33,-213.26 633.47,-193.77 565.08,-184.37"/>
<polygon fill="midnightblue" stroke="midnightblue" points="565.53,-180.9 555.15,-183 564.58,-187.83 565.53,-180.9"/>
</g>
<!-- Node24&#45;&gt;Node22 -->
<g id="edge49" class="edge">
<title>Node24&#45;&gt;Node22</title>
<path fill="none" stroke="midnightblue" d="M911.24,-224.08C904.46,-216.3 894.46,-204.8 886.24,-195.37"/>
<polygon fill="midnightblue" stroke="midnightblue" points="888.82,-193 879.62,-187.75 883.54,-197.59 888.82,-193"/>
</g>
<!-- Node25&#45;&gt;Node8 -->
<g id="edge51" class="edge">
<title>Node25&#45;&gt;Node8</title>
<path fill="none" stroke="midnightblue" d="M452.13,-224.46C480.8,-215.88 525.74,-201.95 564,-188 609.76,-171.31 661.83,-149.29 693.29,-135.64"/>
<polygon fill="midnightblue" stroke="midnightblue" points="694.97,-138.72 702.74,-131.52 692.17,-132.31 694.97,-138.72"/>
</g>
<!-- Node25&#45;&gt;Node10 -->
<g id="edge52" class="edge">
<title>Node25&#45;&gt;Node10</title>
<path fill="none" stroke="midnightblue" d="M410.22,-224.37C399.61,-216.36 385.27,-203.38 379,-188 372.71,-172.56 378.49,-154.02 384.79,-140.7"/>
<polygon fill="midnightblue" stroke="midnightblue" points="387.98,-142.15 389.52,-131.66 381.78,-138.9 387.98,-142.15"/>
</g>
<!-- Node25&#45;&gt;Node15 -->
<g id="edge53" class="edge">
<title>Node25&#45;&gt;Node15</title>
<path fill="none" stroke="midnightblue" d="M439.55,-224.32C455.99,-215.7 481.43,-202.36 500.47,-192.39"/>
<polygon fill="midnightblue" stroke="midnightblue" points="502.26,-195.4 509.49,-187.65 499.01,-189.2 502.26,-195.4"/>
</g>
<!-- Node26&#45;&gt;Node8 -->
<g id="edge55" class="edge">
<title>Node26&#45;&gt;Node8</title>
<path fill="none" stroke="midnightblue" d="M671.24,-224.39C684.17,-216.64 701.59,-204.03 711,-188 719.24,-173.97 721.72,-155.47 722.3,-141.8"/>
<polygon fill="midnightblue" stroke="midnightblue" points="725.8,-141.69 722.42,-131.65 718.8,-141.61 725.8,-141.69"/>
</g>
<!-- Node26&#45;&gt;Node10 -->
<g id="edge56" class="edge">
<title>Node26&#45;&gt;Node10</title>
<path fill="none" stroke="midnightblue" d="M609.93,-225.27C575.46,-218.32 527.32,-206.35 488,-188 472.87,-180.94 437.01,-154.73 414.5,-137.83"/>
<polygon fill="midnightblue" stroke="midnightblue" points="416.41,-134.89 406.32,-131.66 412.19,-140.48 416.41,-134.89"/>
</g>
<!-- Node26&#45;&gt;Node15 -->
<g id="edge57" class="edge">
<title>Node26&#45;&gt;Node15</title>
<path fill="none" stroke="midnightblue" d="M634.56,-224.44C613.33,-215.56 579.9,-201.56 555.75,-191.45"/>
<polygon fill="midnightblue" stroke="midnightblue" points="556.92,-188.15 546.34,-187.52 554.22,-194.61 556.92,-188.15"/>
</g>
<!-- Node26&#45;&gt;Node22 -->
<g id="edge58" class="edge">
<title>Node26&#45;&gt;Node22</title>
<path fill="none" stroke="midnightblue" d="M689.38,-224.44C726.92,-215.1 787.13,-200.12 828.07,-189.93"/>
<polygon fill="midnightblue" stroke="midnightblue" points="828.92,-193.33 837.78,-187.52 827.23,-186.53 828.92,-193.33"/>
</g>
<!-- Node27&#45;&gt;Node8 -->
<g id="edge60" class="edge">
<title>Node27&#45;&gt;Node8</title>
<path fill="none" stroke="midnightblue" d="M775.4,-224.44C770.04,-211.88 759.46,-187.78 749,-168 744.1,-158.74 738.16,-148.72 733.09,-140.49"/>
<polygon fill="midnightblue" stroke="midnightblue" points="735.93,-138.43 727.67,-131.8 730,-142.14 735.93,-138.43"/>
</g>
<!-- Node27&#45;&gt;Node10 -->
<g id="edge61" class="edge">
<title>Node27&#45;&gt;Node10</title>
<path fill="none" stroke="midnightblue" d="M751.6,-224.39C710.82,-211.66 631.7,-187.24 564,-168 521.52,-155.93 472.75,-143.05 438.56,-134.17"/>
<polygon fill="midnightblue" stroke="midnightblue" points="439,-130.67 428.44,-131.55 437.24,-137.45 439,-130.67"/>
</g>
<!-- Node27&#45;&gt;Node15 -->
<g id="edge62" class="edge">
<title>Node27&#45;&gt;Node15</title>
<path fill="none" stroke="midnightblue" d="M738.91,-224.44C691.27,-214.28 612.31,-197.42 565.11,-187.35"/>
<polygon fill="midnightblue" stroke="midnightblue" points="565.76,-183.91 555.25,-185.24 564.3,-190.75 565.76,-183.91"/>
</g>
<!-- Node27&#45;&gt;Node22 -->
<g id="edge63" class="edge">
<title>Node27&#45;&gt;Node22</title>
<path fill="none" stroke="midnightblue" d="M793.94,-224.32C808.59,-215.82 831.13,-202.73 848.24,-192.8"/>
<polygon fill="midnightblue" stroke="midnightblue" points="850.2,-195.7 857.1,-187.65 846.69,-189.65 850.2,-195.7"/>
</g>
<!-- Node28&#45;&gt;Node13 -->
<g id="edge65" class="edge">
<title>Node28&#45;&gt;Node13</title>
<path fill="none" stroke="midnightblue" d="M1223.16,-168.48C1210.48,-155.08 1184.26,-128.89 1158,-112 1136.87,-98.41 1110.96,-87.04 1090.54,-79.12"/>
<polygon fill="midnightblue" stroke="midnightblue" points="1091.59,-75.78 1081,-75.52 1089.11,-82.33 1091.59,-75.78"/>
</g>
</g>
</svg>
