<?xml version="1.0" encoding="UTF-8" standalone="no"?>
<!DOCTYPE svg PUBLIC "-//W3C//DTD SVG 1.1//EN"
 "http://www.w3.org/Graphics/SVG/1.1/DTD/svg11.dtd">
<!-- Generated by graphviz version 3.0.0 (20221109.1736)
 -->
<!-- Title: io/configreader.hpp Pages: 1 -->
<svg width="2190pt" height="476pt"
 viewBox="0.00 0.00 2189.90 476.00" xmlns="http://www.w3.org/2000/svg" xmlns:xlink="http://www.w3.org/1999/xlink">
<g id="graph0" class="graph" transform="scale(1 1) rotate(0) translate(4 472)">
<title>io/configreader.hpp</title>
<!-- Node1 -->
<g id="node1" class="node">
<title>Node1</title>
<g id="a_node1"><a xlink:title="IO::ConfigReader source file.">
<polygon fill="#bfbfbf" stroke="black" points="1175.4,-448.5 1175.4,-467.5 1273.4,-467.5 1273.4,-448.5 1175.4,-448.5"/>
<text text-anchor="middle" x="1224.4" y="-455.5" font-family="Helvetica,sans-Serif" font-size="10.00">io/configreader.hpp</text>
</a>
</g>
</g>
<!-- Node2 -->
<g id="node2" class="node">
<title>Node2</title>
<g id="a_node2"><a xlink:title=" ">
<polygon fill="none" stroke="#bfbfbf" points="269.9,-168.5 269.9,-187.5 298.9,-187.5 298.9,-168.5 269.9,-168.5"/>
<text text-anchor="middle" x="284.4" y="-175.5" font-family="Helvetica,sans-Serif" font-size="10.00">list</text>
</a>
</g>
</g>
<!-- Node1&#45;&gt;Node2 -->
<g id="edge1" class="edge">
<title>Node1&#45;&gt;Node2</title>
<path fill="none" stroke="midnightblue" d="M1175.12,-456.36C973.03,-453.56 213.61,-441.17 110.4,-412 61.38,-398.15 36.16,-399.95 10.4,-356 -50.86,-251.48 181.63,-198.04 259.68,-183.3"/>
<polygon fill="midnightblue" stroke="midnightblue" points="260.42,-186.72 269.62,-181.48 259.16,-179.84 260.42,-186.72"/>
</g>
<!-- Node3 -->
<g id="node3" class="node">
<title>Node3</title>
<g id="a_node3"><a xlink:title=" ">
<polygon fill="none" stroke="#bfbfbf" points="2041.9,-392.5 2041.9,-411.5 2100.9,-411.5 2100.9,-392.5 2041.9,-392.5"/>
<text text-anchor="middle" x="2071.4" y="-399.5" font-family="Helvetica,sans-Serif" font-size="10.00">stdexcept</text>
</a>
</g>
</g>
<!-- Node1&#45;&gt;Node3 -->
<g id="edge2" class="edge">
<title>Node1&#45;&gt;Node3</title>
<path fill="none" stroke="midnightblue" d="M1273.52,-456.73C1399.38,-455.51 1743.54,-448.79 2027.4,-412 2028.85,-411.81 2030.33,-411.6 2031.81,-411.38"/>
<polygon fill="midnightblue" stroke="midnightblue" points="2032.41,-414.83 2041.68,-409.69 2031.23,-407.93 2032.41,-414.83"/>
</g>
<!-- Node4 -->
<g id="node4" class="node">
<title>Node4</title>
<g id="a_node4"><a xlink:title=" ">
<polygon fill="none" stroke="#bfbfbf" points="1569.9,-0.5 1569.9,-19.5 1610.9,-19.5 1610.9,-0.5 1569.9,-0.5"/>
<text text-anchor="middle" x="1590.4" y="-7.5" font-family="Helvetica,sans-Serif" font-size="10.00">string</text>
</a>
</g>
</g>
<!-- Node1&#45;&gt;Node4 -->
<g id="edge3" class="edge">
<title>Node1&#45;&gt;Node4</title>
<path fill="none" stroke="midnightblue" d="M1273.59,-456.09C1401.82,-453.29 1743.9,-443.06 1852.4,-412 1911.85,-394.98 1975.4,-408.83 1975.4,-347 1975.4,-347 1975.4,-347 1975.4,-121 1975.4,-47.45 1712.32,-20.33 1621.1,-13.14"/>
<polygon fill="midnightblue" stroke="midnightblue" points="1621.34,-9.65 1611.1,-12.38 1620.81,-16.63 1621.34,-9.65"/>
</g>
<!-- Node5 -->
<g id="node5" class="node">
<title>Node5</title>
<g id="a_node5"><a xlink:href="debug_8hpp.html" target="_top" xlink:title="HELPERS::DEBUG source file.">
<polygon fill="none" stroke="black" points="1450.9,-280.5 1450.9,-299.5 1553.9,-299.5 1553.9,-280.5 1450.9,-280.5"/>
<text text-anchor="middle" x="1502.4" y="-287.5" font-family="Helvetica,sans-Serif" font-size="10.00">../helpers/debug.hpp</text>
</a>
</g>
</g>
<!-- Node1&#45;&gt;Node5 -->
<g id="edge4" class="edge">
<title>Node1&#45;&gt;Node5</title>
<path fill="none" stroke="midnightblue" d="M1273.69,-457.28C1412.52,-456.92 1801.81,-447.61 1880.4,-356 1922.59,-306.82 1682.15,-294.85 1564.44,-291.94"/>
<polygon fill="midnightblue" stroke="midnightblue" points="1564.21,-288.43 1554.13,-291.7 1564.04,-295.43 1564.21,-288.43"/>
</g>
<!-- Node7 -->
<g id="node7" class="node">
<title>Node7</title>
<g id="a_node7"><a xlink:href="startswith_8hpp.html" target="_top" xlink:title="HELPERS::startswith source file.">
<polygon fill="none" stroke="black" points="2003.9,-56.5 2003.9,-75.5 2122.9,-75.5 2122.9,-56.5 2003.9,-56.5"/>
<text text-anchor="middle" x="2063.4" y="-63.5" font-family="Helvetica,sans-Serif" font-size="10.00">../helpers/startswith.hpp</text>
</a>
</g>
</g>
<!-- Node1&#45;&gt;Node7 -->
<g id="edge6" class="edge">
<title>Node1&#45;&gt;Node7</title>
<path fill="none" stroke="midnightblue" d="M1273.68,-457.19C1433.74,-457.37 1932.09,-454.49 1989.4,-412 2014.14,-393.66 2013.4,-377.8 2013.4,-347 2013.4,-347 2013.4,-347 2013.4,-177 2013.4,-141.18 2035.64,-104.21 2050.46,-83.56"/>
<polygon fill="midnightblue" stroke="midnightblue" points="2053.28,-85.63 2056.45,-75.52 2047.67,-81.45 2053.28,-85.63"/>
</g>
<!-- Node8 -->
<g id="node8" class="node">
<title>Node8</title>
<g id="a_node8"><a xlink:href="bloodvessel_8hpp.html" target="_top" xlink:title="MODEL::BloodVessel source file.">
<polygon fill="none" stroke="black" points="945.9,-336.5 945.9,-355.5 1068.9,-355.5 1068.9,-336.5 945.9,-336.5"/>
<text text-anchor="middle" x="1007.4" y="-343.5" font-family="Helvetica,sans-Serif" font-size="10.00">../model/bloodvessel.hpp</text>
</a>
</g>
</g>
<!-- Node1&#45;&gt;Node8 -->
<g id="edge8" class="edge">
<title>Node1&#45;&gt;Node8</title>
<path fill="none" stroke="midnightblue" d="M1207.38,-448.37C1169.58,-429.21 1078.49,-383.04 1033.48,-360.22"/>
<polygon fill="midnightblue" stroke="midnightblue" points="1034.85,-356.99 1024.35,-355.59 1031.69,-363.23 1034.85,-356.99"/>
</g>
<!-- Node13 -->
<g id="node13" class="node">
<title>Node13</title>
<g id="a_node13"><a xlink:href="model_8hpp.html" target="_top" xlink:title="MODEL::Model source file.">
<polygon fill="none" stroke="black" points="307.4,-224.5 307.4,-243.5 405.4,-243.5 405.4,-224.5 307.4,-224.5"/>
<text text-anchor="middle" x="356.4" y="-231.5" font-family="Helvetica,sans-Serif" font-size="10.00">../model/model.hpp</text>
</a>
</g>
</g>
<!-- Node1&#45;&gt;Node13 -->
<g id="edge59" class="edge">
<title>Node1&#45;&gt;Node13</title>
<path fill="none" stroke="midnightblue" d="M1175.1,-456.86C958.08,-455.72 95.27,-445.55 19.4,-356 -19.28,-310.34 190.85,-264.92 297.41,-245.2"/>
<polygon fill="midnightblue" stroke="midnightblue" points="298.18,-248.62 307.39,-243.38 296.92,-241.73 298.18,-248.62"/>
</g>
<!-- Node20 -->
<g id="node20" class="node">
<title>Node20</title>
<g id="a_node20"><a xlink:href="node_8hpp.html" target="_top" xlink:title="MODEL::Node source file.">
<polygon fill="none" stroke="black" points="757.4,-112.5 757.4,-131.5 813.4,-131.5 813.4,-112.5 757.4,-112.5"/>
<text text-anchor="middle" x="785.4" y="-119.5" font-family="Helvetica,sans-Serif" font-size="10.00">node.hpp</text>
</a>
</g>
</g>
<!-- Node1&#45;&gt;Node20 -->
<g id="edge60" class="edge">
<title>Node1&#45;&gt;Node20</title>
<path fill="none" stroke="midnightblue" d="M1273.75,-456.42C1396.59,-454.47 1713.32,-446.18 1812.4,-412 1860,-395.58 1926.65,-376.25 1896.4,-336 1794.19,-200.02 949.8,-155.38 823.4,-132 823.3,-131.98 823.2,-131.96 823.1,-131.94"/>
<polygon fill="midnightblue" stroke="midnightblue" points="824.06,-128.57 813.56,-130 822.66,-135.43 824.06,-128.57"/>
</g>
<!-- Node21 -->
<g id="node21" class="node">
<title>Node21</title>
<g id="a_node21"><a xlink:href="bloodvesseljunction_8hpp.html" target="_top" xlink:title="MODEL::BloodVesselJunction source file.">
<polygon fill="none" stroke="black" points="914.9,-392.5 914.9,-411.5 1071.9,-411.5 1071.9,-392.5 914.9,-392.5"/>
<text text-anchor="middle" x="993.4" y="-399.5" font-family="Helvetica,sans-Serif" font-size="10.00">../model/bloodvesseljunction.hpp</text>
</a>
</g>
</g>
<!-- Node1&#45;&gt;Node21 -->
<g id="edge33" class="edge">
<title>Node1&#45;&gt;Node21</title>
<path fill="none" stroke="midnightblue" d="M1187.8,-448.44C1147.67,-439.06 1083.2,-423.99 1039.62,-413.8"/>
<polygon fill="midnightblue" stroke="midnightblue" points="1040.37,-410.38 1029.83,-411.52 1038.78,-417.2 1040.37,-410.38"/>
</g>
<!-- Node22 -->
<g id="node22" class="node">
<title>Node22</title>
<g id="a_node22"><a xlink:href="closedloop_r_c_rbc_8hpp.html" target="_top" xlink:title="MODEL::ClosedLoopRCRBC source file.">
<polygon fill="none" stroke="black" points="1519.9,-336.5 1519.9,-355.5 1668.9,-355.5 1668.9,-336.5 1519.9,-336.5"/>
<text text-anchor="middle" x="1594.4" y="-343.5" font-family="Helvetica,sans-Serif" font-size="10.00">../model/closedloopRCRbc.hpp</text>
</a>
</g>
</g>
<!-- Node1&#45;&gt;Node22 -->
<g id="edge37" class="edge">
<title>Node1&#45;&gt;Node22</title>
<path fill="none" stroke="midnightblue" d="M1253.13,-448.46C1319.05,-428.86 1481.23,-380.65 1555.78,-358.48"/>
<polygon fill="midnightblue" stroke="midnightblue" points="1557.11,-361.74 1565.7,-355.53 1555.11,-355.03 1557.11,-361.74"/>
</g>
<!-- Node23 -->
<g id="node23" class="node">
<title>Node23</title>
<g id="a_node23"><a xlink:href="closedloopcoronarybc_8hpp.html" target="_top" xlink:title="MODEL::ClosedLoopCoronaryBC source file.">
<polygon fill="none" stroke="black" points="685.9,-336.5 685.9,-355.5 850.9,-355.5 850.9,-336.5 685.9,-336.5"/>
<text text-anchor="middle" x="768.4" y="-343.5" font-family="Helvetica,sans-Serif" font-size="10.00">../model/closedloopcoronarybc.hpp</text>
</a>
</g>
</g>
<!-- Node1&#45;&gt;Node23 -->
<g id="edge40" class="edge">
<title>Node1&#45;&gt;Node23</title>
<path fill="none" stroke="midnightblue" d="M1175.22,-454.6C1111.88,-450.49 998.96,-439.66 906.4,-412 864.14,-399.37 818.46,-375.66 791.7,-360.64"/>
<polygon fill="midnightblue" stroke="midnightblue" points="793.15,-357.44 782.73,-355.53 789.69,-363.52 793.15,-357.44"/>
</g>
<!-- Node24 -->
<g id="node24" class="node">
<title>Node24</title>
<g id="a_node24"><a xlink:href="closedloopheartpulmonary_8hpp.html" target="_top" xlink:title="MODEL::ClosedLoopHeartPulmonary source file.">
<polygon fill="none" stroke="black" points="1687.4,-336.5 1687.4,-355.5 1871.4,-355.5 1871.4,-336.5 1687.4,-336.5"/>
<text text-anchor="middle" x="1779.4" y="-343.5" font-family="Helvetica,sans-Serif" font-size="10.00">../model/closedloopheartpulmonary.hpp</text>
</a>
</g>
</g>
<!-- Node1&#45;&gt;Node24 -->
<g id="edge43" class="edge">
<title>Node1&#45;&gt;Node24</title>
<path fill="none" stroke="midnightblue" d="M1267.49,-448.46C1367.89,-428.56 1617.13,-379.16 1726.52,-357.48"/>
<polygon fill="midnightblue" stroke="midnightblue" points="1727.21,-360.91 1736.34,-355.53 1725.85,-354.05 1727.21,-360.91"/>
</g>
<!-- Node25 -->
<g id="node25" class="node">
<title>Node25</title>
<g id="a_node25"><a xlink:href="flowreferencebc_8hpp.html" target="_top" xlink:title="MODEL::FlowReferenceBC source file.">
<polygon fill="none" stroke="black" points="28.4,-336.5 28.4,-355.5 168.4,-355.5 168.4,-336.5 28.4,-336.5"/>
<text text-anchor="middle" x="98.4" y="-343.5" font-family="Helvetica,sans-Serif" font-size="10.00">../model/flowreferencebc.hpp</text>
</a>
</g>
</g>
<!-- Node1&#45;&gt;Node25 -->
<g id="edge48" class="edge">
<title>Node1&#45;&gt;Node25</title>
<path fill="none" stroke="midnightblue" d="M1175.08,-455.53C1058.49,-451.7 756.85,-439.73 506.4,-412 379.16,-397.91 231.02,-371.87 152.97,-357.39"/>
<polygon fill="midnightblue" stroke="midnightblue" points="153.36,-353.91 142.89,-355.52 152.08,-360.79 153.36,-353.91"/>
</g>
<!-- Node28 -->
<g id="node28" class="node">
<title>Node28</title>
<g id="a_node28"><a xlink:href="junction_8hpp.html" target="_top" xlink:title="MODEL::Junction source file.">
<polygon fill="none" stroke="black" points="1086.9,-336.5 1086.9,-355.5 1191.9,-355.5 1191.9,-336.5 1086.9,-336.5"/>
<text text-anchor="middle" x="1139.4" y="-343.5" font-family="Helvetica,sans-Serif" font-size="10.00">../model/junction.hpp</text>
</a>
</g>
</g>
<!-- Node1&#45;&gt;Node28 -->
<g id="edge56" class="edge">
<title>Node1&#45;&gt;Node28</title>
<path fill="none" stroke="midnightblue" d="M1217.73,-448.37C1203.64,-430.14 1170.64,-387.43 1152.29,-363.68"/>
<polygon fill="midnightblue" stroke="midnightblue" points="1154.93,-361.36 1146.04,-355.59 1149.39,-365.64 1154.93,-361.36"/>
</g>
<!-- Node29 -->
<g id="node29" class="node">
<title>Node29</title>
<g id="a_node29"><a xlink:href="openloopcoronarybc_8hpp.html" target="_top" xlink:title="MODEL::OpenLoopCoronaryBC source file.">
<polygon fill="none" stroke="black" points="186.4,-336.5 186.4,-355.5 344.4,-355.5 344.4,-336.5 186.4,-336.5"/>
<text text-anchor="middle" x="265.4" y="-343.5" font-family="Helvetica,sans-Serif" font-size="10.00">../model/openloopcoronarybc.hpp</text>
</a>
</g>
</g>
<!-- Node1&#45;&gt;Node29 -->
<g id="edge61" class="edge">
<title>Node1&#45;&gt;Node29</title>
<path fill="none" stroke="midnightblue" d="M1175.32,-454.66C1075.71,-449.58 842.77,-436.04 648.4,-412 529.66,-397.32 391.56,-371.77 317.96,-357.47"/>
<polygon fill="midnightblue" stroke="midnightblue" points="318.5,-354 308.01,-355.52 317.15,-360.87 318.5,-354"/>
</g>
<!-- Node30 -->
<g id="node30" class="node">
<title>Node30</title>
<g id="a_node30"><a xlink:href="pressurereferencebc_8hpp.html" target="_top" xlink:title="MODEL::PressureReferenceBC source file.">
<polygon fill="none" stroke="black" points="362.4,-336.5 362.4,-355.5 522.4,-355.5 522.4,-336.5 362.4,-336.5"/>
<text text-anchor="middle" x="442.4" y="-343.5" font-family="Helvetica,sans-Serif" font-size="10.00">../model/pressurereferencebc.hpp</text>
</a>
</g>
</g>
<!-- Node1&#45;&gt;Node30 -->
<g id="edge65" class="edge">
<title>Node1&#45;&gt;Node30</title>
<path fill="none" stroke="midnightblue" d="M1175.11,-454C1089.7,-448.41 908.82,-434.85 757.4,-412 660.58,-397.39 548.6,-372.3 487.66,-357.94"/>
<polygon fill="midnightblue" stroke="midnightblue" points="488.15,-354.46 477.61,-355.56 486.54,-361.27 488.15,-354.46"/>
</g>
<!-- Node31 -->
<g id="node31" class="node">
<title>Node31</title>
<g id="a_node31"><a xlink:href="resistancebc_8hpp.html" target="_top" xlink:title="MODEL::ResistanceBC source file.">
<polygon fill="none" stroke="black" points="540.9,-336.5 540.9,-355.5 667.9,-355.5 667.9,-336.5 540.9,-336.5"/>
<text text-anchor="middle" x="604.4" y="-343.5" font-family="Helvetica,sans-Serif" font-size="10.00">../model/resistancebc.hpp</text>
</a>
</g>
</g>
<!-- Node1&#45;&gt;Node31 -->
<g id="edge69" class="edge">
<title>Node1&#45;&gt;Node31</title>
<path fill="none" stroke="midnightblue" d="M1175.19,-453.23C1103.52,-447.25 966.41,-433.96 851.4,-412 775.97,-397.6 689.56,-372.93 641.55,-358.48"/>
<polygon fill="midnightblue" stroke="midnightblue" points="642.49,-355.11 631.9,-355.56 640.46,-361.81 642.49,-355.11"/>
</g>
<!-- Node32 -->
<g id="node32" class="node">
<title>Node32</title>
<g id="a_node32"><a xlink:href="resistivejunction_8hpp.html" target="_top" xlink:title="MODEL::ResistiveJunction source file.">
<polygon fill="none" stroke="black" points="1210.4,-336.5 1210.4,-355.5 1352.4,-355.5 1352.4,-336.5 1210.4,-336.5"/>
<text text-anchor="middle" x="1281.4" y="-343.5" font-family="Helvetica,sans-Serif" font-size="10.00">../model/resistivejunction.hpp</text>
</a>
</g>
</g>
<!-- Node1&#45;&gt;Node32 -->
<g id="edge73" class="edge">
<title>Node1&#45;&gt;Node32</title>
<path fill="none" stroke="midnightblue" d="M1228.88,-448.37C1238.2,-430.38 1259.87,-388.55 1272.27,-364.63"/>
<polygon fill="midnightblue" stroke="midnightblue" points="1275.46,-366.08 1276.95,-355.59 1269.24,-362.86 1275.46,-366.08"/>
</g>
<!-- Node33 -->
<g id="node33" class="node">
<title>Node33</title>
<g id="a_node33"><a xlink:href="windkesselbc_8hpp.html" target="_top" xlink:title="MODEL::WindkesselBC source file.">
<polygon fill="none" stroke="black" points="1370.9,-336.5 1370.9,-355.5 1501.9,-355.5 1501.9,-336.5 1370.9,-336.5"/>
<text text-anchor="middle" x="1436.4" y="-343.5" font-family="Helvetica,sans-Serif" font-size="10.00">../model/windkesselbc.hpp</text>
</a>
</g>
</g>
<!-- Node1&#45;&gt;Node33 -->
<g id="edge76" class="edge">
<title>Node1&#45;&gt;Node33</title>
<path fill="none" stroke="midnightblue" d="M1241.04,-448.37C1277.96,-429.21 1366.95,-383.04 1410.93,-360.22"/>
<polygon fill="midnightblue" stroke="midnightblue" points="1412.58,-363.3 1419.85,-355.59 1409.36,-357.09 1412.58,-363.3"/>
</g>
<!-- Node34 -->
<g id="node34" class="node">
<title>Node34</title>
<g id="a_node34"><a xlink:title=" ">
<polygon fill="none" stroke="#bfbfbf" points="2118.9,-392.5 2118.9,-411.5 2181.9,-411.5 2181.9,-392.5 2118.9,-392.5"/>
<text text-anchor="middle" x="2150.4" y="-399.5" font-family="Helvetica,sans-Serif" font-size="10.00">simdjson.h</text>
</a>
</g>
</g>
<!-- Node1&#45;&gt;Node34 -->
<g id="edge79" class="edge">
<title>Node1&#45;&gt;Node34</title>
<path fill="none" stroke="midnightblue" d="M1273.66,-457.43C1406.96,-457.98 1785.89,-455.39 2108.6,-412.03"/>
<polygon fill="midnightblue" stroke="midnightblue" points="2109.18,-415.48 2118.62,-410.67 2108.24,-408.55 2109.18,-415.48"/>
</g>
<!-- Node6 -->
<g id="node6" class="node">
<title>Node6</title>
<g id="a_node6"><a xlink:title=" ">
<polygon fill="none" stroke="#bfbfbf" points="1165.4,-224.5 1165.4,-243.5 1219.4,-243.5 1219.4,-224.5 1165.4,-224.5"/>
<text text-anchor="middle" x="1192.4" y="-231.5" font-family="Helvetica,sans-Serif" font-size="10.00">iostream</text>
</a>
</g>
</g>
<!-- Node5&#45;&gt;Node6 -->
<g id="edge5" class="edge">
<title>Node5&#45;&gt;Node6</title>
<path fill="none" stroke="midnightblue" d="M1453.28,-280.44C1391.21,-269.63 1285.75,-251.26 1229.82,-241.52"/>
<polygon fill="midnightblue" stroke="midnightblue" points="1230.1,-238.01 1219.64,-239.75 1228.9,-244.91 1230.1,-238.01"/>
</g>
<!-- Node7&#45;&gt;Node4 -->
<g id="edge7" class="edge">
<title>Node7&#45;&gt;Node4</title>
<path fill="none" stroke="midnightblue" d="M2003.63,-57.69C1998.82,-57.11 1994.03,-56.54 1989.4,-56 1852.33,-39.94 1688.64,-21.8 1621.48,-14.41"/>
<polygon fill="midnightblue" stroke="midnightblue" points="1621.5,-10.89 1611.18,-13.28 1620.74,-17.85 1621.5,-10.89"/>
</g>
<!-- Node9 -->
<g id="node9" class="node">
<title>Node9</title>
<g id="a_node9"><a xlink:title=" ">
<polygon fill="none" stroke="#bfbfbf" points="995.4,-224.5 995.4,-243.5 1041.4,-243.5 1041.4,-224.5 995.4,-224.5"/>
<text text-anchor="middle" x="1018.4" y="-231.5" font-family="Helvetica,sans-Serif" font-size="10.00">math.h</text>
</a>
</g>
</g>
<!-- Node8&#45;&gt;Node9 -->
<g id="edge9" class="edge">
<title>Node8&#45;&gt;Node9</title>
<path fill="none" stroke="midnightblue" d="M1008.27,-336.37C1010.04,-318.62 1014.14,-277.67 1016.54,-253.6"/>
<polygon fill="midnightblue" stroke="midnightblue" points="1020.03,-253.89 1017.54,-243.59 1013.07,-253.19 1020.03,-253.89"/>
</g>
<!-- Node10 -->
<g id="node10" class="node">
<title>Node10</title>
<g id="a_node10"><a xlink:href="sparsesystem_8hpp.html" target="_top" xlink:title="ALGEBRA::SparseSystem source file.">
<polygon fill="none" stroke="black" points="736.9,-280.5 736.9,-299.5 873.9,-299.5 873.9,-280.5 736.9,-280.5"/>
<text text-anchor="middle" x="805.4" y="-287.5" font-family="Helvetica,sans-Serif" font-size="10.00">../algebra/sparsesystem.hpp</text>
</a>
</g>
</g>
<!-- Node8&#45;&gt;Node10 -->
<g id="edge10" class="edge">
<title>Node8&#45;&gt;Node10</title>
<path fill="none" stroke="midnightblue" d="M975.4,-336.44C940.67,-327.16 885.12,-312.31 847.03,-302.13"/>
<polygon fill="midnightblue" stroke="midnightblue" points="847.83,-298.72 837.26,-299.52 846.02,-305.48 847.83,-298.72"/>
</g>
<!-- Node16 -->
<g id="node16" class="node">
<title>Node16</title>
<g id="a_node16"><a xlink:href="block_8hpp.html" target="_top" xlink:title="MODEL::Block source file.">
<polygon fill="none" stroke="black" points="756.4,-168.5 756.4,-187.5 814.4,-187.5 814.4,-168.5 756.4,-168.5"/>
<text text-anchor="middle" x="785.4" y="-175.5" font-family="Helvetica,sans-Serif" font-size="10.00">block.hpp</text>
</a>
</g>
</g>
<!-- Node8&#45;&gt;Node16 -->
<g id="edge32" class="edge">
<title>Node8&#45;&gt;Node16</title>
<path fill="none" stroke="midnightblue" d="M1005.39,-336.48C999.7,-314.39 981.44,-254.82 943.4,-224 909.36,-196.42 859.28,-185.74 824.67,-181.6"/>
<polygon fill="midnightblue" stroke="midnightblue" points="824.78,-178.09 814.46,-180.52 824.04,-185.05 824.78,-178.09"/>
</g>
<!-- Node10&#45;&gt;Node6 -->
<g id="edge13" class="edge">
<title>Node10&#45;&gt;Node6</title>
<path fill="none" stroke="midnightblue" d="M866.72,-280.44C947.85,-269.12 1088.35,-249.52 1155.11,-240.2"/>
<polygon fill="midnightblue" stroke="midnightblue" points="1155.75,-243.65 1165.17,-238.8 1154.78,-236.72 1155.75,-243.65"/>
</g>
<!-- Node11 -->
<g id="node11" class="node">
<title>Node11</title>
<g id="a_node11"><a xlink:title=" ">
<polygon fill="none" stroke="#bfbfbf" points="683.4,-224.5 683.4,-243.5 757.4,-243.5 757.4,-224.5 683.4,-224.5"/>
<text text-anchor="middle" x="720.4" y="-231.5" font-family="Helvetica,sans-Serif" font-size="10.00">Eigen/Sparse</text>
</a>
</g>
</g>
<!-- Node10&#45;&gt;Node11 -->
<g id="edge11" class="edge">
<title>Node10&#45;&gt;Node11</title>
<path fill="none" stroke="midnightblue" d="M791.75,-280.32C778.49,-271.9 758.14,-258.97 742.56,-249.07"/>
<polygon fill="midnightblue" stroke="midnightblue" points="744.34,-246.06 734.03,-243.65 740.59,-251.97 744.34,-246.06"/>
</g>
<!-- Node12 -->
<g id="node12" class="node">
<title>Node12</title>
<g id="a_node12"><a xlink:title=" ">
<polygon fill="none" stroke="#bfbfbf" points="813.4,-224.5 813.4,-243.5 901.4,-243.5 901.4,-224.5 813.4,-224.5"/>
<text text-anchor="middle" x="857.4" y="-231.5" font-family="Helvetica,sans-Serif" font-size="10.00">Eigen/SparseLU</text>
</a>
</g>
</g>
<!-- Node10&#45;&gt;Node12 -->
<g id="edge12" class="edge">
<title>Node10&#45;&gt;Node12</title>
<path fill="none" stroke="midnightblue" d="M813.99,-280.08C821.56,-272.22 832.78,-260.57 841.92,-251.08"/>
<polygon fill="midnightblue" stroke="midnightblue" points="844.56,-253.38 848.98,-243.75 839.52,-248.53 844.56,-253.38"/>
</g>
<!-- Node10&#45;&gt;Node13 -->
<g id="edge14" class="edge">
<title>Node10&#45;&gt;Node13</title>
<path fill="none" stroke="midnightblue" d="M736.66,-281.32C648.88,-271.06 498.61,-252.99 415.65,-242.71"/>
<polygon fill="midnightblue" stroke="midnightblue" points="415.98,-239.23 405.63,-241.47 415.12,-246.18 415.98,-239.23"/>
</g>
<!-- Node13&#45;&gt;Node2 -->
<g id="edge16" class="edge">
<title>Node13&#45;&gt;Node2</title>
<path fill="none" stroke="midnightblue" d="M344.84,-224.32C333.98,-216.18 317.52,-203.84 304.52,-194.09"/>
<polygon fill="midnightblue" stroke="midnightblue" points="306.28,-191.03 296.18,-187.83 302.08,-196.63 306.28,-191.03"/>
</g>
<!-- Node13&#45;&gt;Node10 -->
<g id="edge18" class="edge">
<title>Node13&#45;&gt;Node10</title>
<path fill="none" stroke="midnightblue" d="M405.54,-240.4C483.72,-249.45 636.76,-267.81 729.21,-279.19"/>
<polygon fill="midnightblue" stroke="midnightblue" points="728.99,-282.69 739.35,-280.44 729.85,-275.75 728.99,-282.69"/>
</g>
<!-- Node14 -->
<g id="node14" class="node">
<title>Node14</title>
<g id="a_node14"><a xlink:title=" ">
<polygon fill="none" stroke="#bfbfbf" points="355.4,-168.5 355.4,-187.5 411.4,-187.5 411.4,-168.5 355.4,-168.5"/>
<text text-anchor="middle" x="383.4" y="-175.5" font-family="Helvetica,sans-Serif" font-size="10.00">algorithm</text>
</a>
</g>
</g>
<!-- Node13&#45;&gt;Node14 -->
<g id="edge15" class="edge">
<title>Node13&#45;&gt;Node14</title>
<path fill="none" stroke="midnightblue" d="M360.86,-224.08C364.56,-216.69 369.93,-205.95 374.5,-196.81"/>
<polygon fill="midnightblue" stroke="midnightblue" points="377.69,-198.26 379.03,-187.75 371.42,-195.13 377.69,-198.26"/>
</g>
<!-- Node15 -->
<g id="node15" class="node">
<title>Node15</title>
<g id="a_node15"><a xlink:title=" ">
<polygon fill="none" stroke="#bfbfbf" points="324.4,-0.5 324.4,-19.5 368.4,-19.5 368.4,-0.5 324.4,-0.5"/>
<text text-anchor="middle" x="346.4" y="-7.5" font-family="Helvetica,sans-Serif" font-size="10.00">vector</text>
</a>
</g>
</g>
<!-- Node13&#45;&gt;Node15 -->
<g id="edge17" class="edge">
<title>Node13&#45;&gt;Node15</title>
<path fill="none" stroke="midnightblue" d="M353.92,-224.47C351.45,-215.48 347.82,-200.89 346.4,-188 340.1,-130.6 343.05,-62.09 345.07,-29.72"/>
<polygon fill="midnightblue" stroke="midnightblue" points="348.57,-29.72 345.75,-19.51 341.59,-29.25 348.57,-29.72"/>
</g>
<!-- Node13&#45;&gt;Node16 -->
<g id="edge19" class="edge">
<title>Node13&#45;&gt;Node16</title>
<path fill="none" stroke="midnightblue" d="M405.57,-225.88C410.24,-225.23 414.91,-224.6 419.4,-224 538.07,-208.23 678.66,-191.49 745.83,-183.61"/>
<polygon fill="midnightblue" stroke="midnightblue" points="746.44,-187.06 755.96,-182.42 745.63,-180.11 746.44,-187.06"/>
</g>
<!-- Node19 -->
<g id="node19" class="node">
<title>Node19</title>
<g id="a_node19"><a xlink:href="dofhandler_8hpp.html" target="_top" xlink:title="MODEL::DOFHandler source file.">
<polygon fill="none" stroke="black" points="608.4,-56.5 608.4,-75.5 688.4,-75.5 688.4,-56.5 608.4,-56.5"/>
<text text-anchor="middle" x="648.4" y="-63.5" font-family="Helvetica,sans-Serif" font-size="10.00">dofhandler.hpp</text>
</a>
</g>
</g>
<!-- Node13&#45;&gt;Node19 -->
<g id="edge30" class="edge">
<title>Node13&#45;&gt;Node19</title>
<path fill="none" stroke="midnightblue" d="M371.69,-224.31C419.49,-197.14 566.37,-113.64 624.43,-80.63"/>
<polygon fill="midnightblue" stroke="midnightblue" points="626.3,-83.59 633.27,-75.61 622.84,-77.5 626.3,-83.59"/>
</g>
<!-- Node13&#45;&gt;Node20 -->
<g id="edge31" class="edge">
<title>Node13&#45;&gt;Node20</title>
<path fill="none" stroke="midnightblue" d="M389.71,-224.46C468.23,-204.33 664.55,-153.99 747.48,-132.72"/>
<polygon fill="midnightblue" stroke="midnightblue" points="748.43,-136.09 757.25,-130.22 746.69,-129.31 748.43,-136.09"/>
</g>
<!-- Node16&#45;&gt;Node10 -->
<g id="edge22" class="edge">
<title>Node16&#45;&gt;Node10</title>
<path fill="none" stroke="midnightblue" d="M786.97,-187.59C790.19,-205.31 797.63,-246.25 802.01,-270.35"/>
<polygon fill="midnightblue" stroke="midnightblue" points="798.6,-271.16 803.83,-280.37 805.49,-269.9 798.6,-271.16"/>
</g>
<!-- Node16&#45;&gt;Node15 -->
<g id="edge21" class="edge">
<title>Node16&#45;&gt;Node15</title>
<path fill="none" stroke="midnightblue" d="M762.72,-168.42C689.92,-140.9 461.99,-54.71 377.94,-22.92"/>
<polygon fill="midnightblue" stroke="midnightblue" points="379.01,-19.59 368.42,-19.33 376.54,-26.14 379.01,-19.59"/>
</g>
<!-- Node17 -->
<g id="node17" class="node">
<title>Node17</title>
<g id="a_node17"><a xlink:title=" ">
<polygon fill="none" stroke="#bfbfbf" points="831.9,-112.5 831.9,-131.5 866.9,-131.5 866.9,-112.5 831.9,-112.5"/>
<text text-anchor="middle" x="849.4" y="-119.5" font-family="Helvetica,sans-Serif" font-size="10.00">map</text>
</a>
</g>
</g>
<!-- Node16&#45;&gt;Node17 -->
<g id="edge20" class="edge">
<title>Node16&#45;&gt;Node17</title>
<path fill="none" stroke="midnightblue" d="M795.69,-168.32C805.24,-160.26 819.68,-148.08 831.19,-138.37"/>
<polygon fill="midnightblue" stroke="midnightblue" points="833.55,-140.96 838.93,-131.83 829.03,-135.61 833.55,-140.96"/>
</g>
<!-- Node18 -->
<g id="node18" class="node">
<title>Node18</title>
<g id="a_node18"><a xlink:href="state_8hpp.html" target="_top" xlink:title="ALGEBRA::State source file.">
<polygon fill="none" stroke="black" points="1367.4,-112.5 1367.4,-131.5 1465.4,-131.5 1465.4,-112.5 1367.4,-112.5"/>
<text text-anchor="middle" x="1416.4" y="-119.5" font-family="Helvetica,sans-Serif" font-size="10.00">../algebra/state.hpp</text>
</a>
</g>
</g>
<!-- Node16&#45;&gt;Node18 -->
<g id="edge23" class="edge">
<title>Node16&#45;&gt;Node18</title>
<path fill="none" stroke="midnightblue" d="M814.57,-174.5C911.56,-166.2 1224.57,-139.42 1356.69,-128.11"/>
<polygon fill="midnightblue" stroke="midnightblue" points="1357.35,-131.57 1367.01,-127.23 1356.75,-124.59 1357.35,-131.57"/>
</g>
<!-- Node16&#45;&gt;Node19 -->
<g id="edge24" class="edge">
<title>Node16&#45;&gt;Node19</title>
<path fill="none" stroke="midnightblue" d="M774.65,-168.37C751.44,-149.73 696.39,-105.53 667.25,-82.13"/>
<polygon fill="midnightblue" stroke="midnightblue" points="669.09,-79.12 659.1,-75.59 664.71,-84.58 669.09,-79.12"/>
</g>
<!-- Node16&#45;&gt;Node20 -->
<g id="edge27" class="edge">
<title>Node16&#45;&gt;Node20</title>
<path fill="none" stroke="midnightblue" d="M785.4,-168.08C785.4,-161.01 785.4,-150.86 785.4,-141.99"/>
<polygon fill="midnightblue" stroke="midnightblue" points="788.9,-141.75 785.4,-131.75 781.9,-141.75 788.9,-141.75"/>
</g>
<!-- Node19&#45;&gt;Node4 -->
<g id="edge25" class="edge">
<title>Node19&#45;&gt;Node4</title>
<path fill="none" stroke="midnightblue" d="M688.58,-62.7C846.19,-53.66 1420.43,-20.74 1559.78,-12.76"/>
<polygon fill="midnightblue" stroke="midnightblue" points="1559.99,-16.25 1569.77,-12.18 1559.59,-9.26 1559.99,-16.25"/>
</g>
<!-- Node19&#45;&gt;Node15 -->
<g id="edge26" class="edge">
<title>Node19&#45;&gt;Node15</title>
<path fill="none" stroke="midnightblue" d="M608.3,-57.83C547.7,-46.99 434.01,-26.66 378.52,-16.74"/>
<polygon fill="midnightblue" stroke="midnightblue" points="379,-13.27 368.54,-14.96 377.77,-20.16 379,-13.27"/>
</g>
<!-- Node20&#45;&gt;Node4 -->
<g id="edge28" class="edge">
<title>Node20&#45;&gt;Node4</title>
<path fill="none" stroke="midnightblue" d="M813.56,-114C816.87,-113.27 820.2,-112.59 823.4,-112 1107.59,-59.77 1455.81,-24 1559.74,-13.91"/>
<polygon fill="midnightblue" stroke="midnightblue" points="1560.22,-17.38 1569.84,-12.93 1559.55,-10.41 1560.22,-17.38"/>
</g>
<!-- Node20&#45;&gt;Node19 -->
<g id="edge29" class="edge">
<title>Node20&#45;&gt;Node19</title>
<path fill="none" stroke="midnightblue" d="M763.69,-112.44C741.05,-103.52 705.33,-89.44 679.65,-79.32"/>
<polygon fill="midnightblue" stroke="midnightblue" points="680.6,-75.93 670.01,-75.52 678.03,-82.44 680.6,-75.93"/>
</g>
<!-- Node21&#45;&gt;Node8 -->
<g id="edge36" class="edge">
<title>Node21&#45;&gt;Node8</title>
<path fill="none" stroke="midnightblue" d="M995.71,-392.08C997.57,-384.93 1000.24,-374.64 1002.56,-365.69"/>
<polygon fill="midnightblue" stroke="midnightblue" points="1006.01,-366.31 1005.13,-355.75 999.24,-364.55 1006.01,-366.31"/>
</g>
<!-- Node21&#45;&gt;Node10 -->
<g id="edge34" class="edge">
<title>Node21&#45;&gt;Node10</title>
<path fill="none" stroke="midnightblue" d="M974.44,-392.34C955.98,-383.73 927.29,-369.83 903.4,-356 875.79,-340.02 845.38,-319.33 825.87,-305.64"/>
<polygon fill="midnightblue" stroke="midnightblue" points="827.66,-302.62 817.47,-299.7 823.62,-308.33 827.66,-302.62"/>
</g>
<!-- Node21&#45;&gt;Node16 -->
<g id="edge35" class="edge">
<title>Node21&#45;&gt;Node16</title>
<path fill="none" stroke="midnightblue" d="M977.56,-392.46C964.7,-384.68 947.15,-371.97 937.4,-356 906.22,-304.88 949.59,-269.27 910.4,-224 888.82,-199.07 852.37,-187.95 824.38,-182.99"/>
<polygon fill="midnightblue" stroke="midnightblue" points="824.92,-179.53 814.5,-181.43 823.83,-186.45 824.92,-179.53"/>
</g>
<!-- Node22&#45;&gt;Node10 -->
<g id="edge38" class="edge">
<title>Node22&#45;&gt;Node10</title>
<path fill="none" stroke="midnightblue" d="M1519.76,-336.75C1516.94,-336.49 1514.15,-336.24 1511.4,-336 1284.14,-316.45 1015.05,-301.58 884.43,-294.89"/>
<polygon fill="midnightblue" stroke="midnightblue" points="884.29,-291.38 874.13,-294.37 883.94,-298.37 884.29,-291.38"/>
</g>
<!-- Node22&#45;&gt;Node16 -->
<g id="edge39" class="edge">
<title>Node22&#45;&gt;Node16</title>
<path fill="none" stroke="midnightblue" d="M1592.83,-336.29C1589.79,-322.14 1581.74,-294.31 1563.4,-280 1446.58,-188.84 966.33,-179.68 824.82,-178.98"/>
<polygon fill="midnightblue" stroke="midnightblue" points="824.47,-175.48 814.46,-178.94 824.45,-182.48 824.47,-175.48"/>
</g>
<!-- Node23&#45;&gt;Node10 -->
<g id="edge41" class="edge">
<title>Node23&#45;&gt;Node10</title>
<path fill="none" stroke="midnightblue" d="M774.51,-336.08C779.69,-328.53 787.25,-317.49 793.6,-308.23"/>
<polygon fill="midnightblue" stroke="midnightblue" points="796.64,-309.98 799.41,-299.75 790.87,-306.02 796.64,-309.98"/>
</g>
<!-- Node23&#45;&gt;Node16 -->
<g id="edge42" class="edge">
<title>Node23&#45;&gt;Node16</title>
<path fill="none" stroke="midnightblue" d="M752.61,-336.5C718.77,-317.16 644.68,-268.12 674.4,-224 690.38,-200.28 721.24,-189.06 746.37,-183.75"/>
<polygon fill="midnightblue" stroke="midnightblue" points="747.19,-187.16 756.37,-181.88 745.9,-180.28 747.19,-187.16"/>
</g>
<!-- Node24&#45;&gt;Node9 -->
<g id="edge44" class="edge">
<title>Node24&#45;&gt;Node9</title>
<path fill="none" stroke="midnightblue" d="M1712.85,-336.5C1644.83,-327.72 1536.18,-313.45 1442.4,-300 1296.91,-279.14 1123.74,-251.81 1052.04,-240.38"/>
<polygon fill="midnightblue" stroke="midnightblue" points="1052.25,-236.87 1041.82,-238.75 1051.15,-243.78 1052.25,-236.87"/>
</g>
<!-- Node24&#45;&gt;Node10 -->
<g id="edge45" class="edge">
<title>Node24&#45;&gt;Node10</title>
<path fill="none" stroke="midnightblue" d="M1687.22,-336.64C1684.24,-336.42 1681.3,-336.2 1678.4,-336 1385.75,-315.43 1037.29,-300.26 884.17,-294.07"/>
<polygon fill="midnightblue" stroke="midnightblue" points="884.06,-290.57 873.93,-293.66 883.78,-297.56 884.06,-290.57"/>
</g>
<!-- Node24&#45;&gt;Node16 -->
<g id="edge47" class="edge">
<title>Node24&#45;&gt;Node16</title>
<path fill="none" stroke="midnightblue" d="M1762.32,-336.43C1715.48,-313.41 1580.49,-250.17 1460.4,-224 1337.89,-197.3 950.15,-183.83 824.86,-180.1"/>
<polygon fill="midnightblue" stroke="midnightblue" points="824.69,-176.59 814.59,-179.8 824.48,-183.59 824.69,-176.59"/>
</g>
<!-- Node24&#45;&gt;Node18 -->
<g id="edge46" class="edge">
<title>Node24&#45;&gt;Node18</title>
<path fill="none" stroke="midnightblue" d="M1765.17,-336.3C1709.71,-302.38 1507.74,-178.86 1439.28,-136.99"/>
<polygon fill="midnightblue" stroke="midnightblue" points="1440.89,-133.87 1430.53,-131.64 1437.24,-139.85 1440.89,-133.87"/>
</g>
<!-- Node25&#45;&gt;Node10 -->
<g id="edge49" class="edge">
<title>Node25&#45;&gt;Node10</title>
<path fill="none" stroke="midnightblue" d="M168.6,-336.85C171.57,-336.55 174.52,-336.27 177.4,-336 374.64,-317.71 607.33,-302.76 726.44,-295.59"/>
<polygon fill="midnightblue" stroke="midnightblue" points="726.79,-299.08 736.56,-294.99 726.37,-292.09 726.79,-299.08"/>
</g>
<!-- Node25&#45;&gt;Node16 -->
<g id="edge50" class="edge">
<title>Node25&#45;&gt;Node16</title>
<path fill="none" stroke="midnightblue" d="M131.33,-336.4C189.5,-320.8 313.79,-285.55 414.4,-244 432.41,-236.57 434.82,-229.84 453.4,-224 555.7,-191.88 682.81,-182.68 745.97,-180.05"/>
<polygon fill="midnightblue" stroke="midnightblue" points="746.41,-183.54 756.27,-179.66 746.14,-176.54 746.41,-183.54"/>
</g>
<!-- Node26 -->
<g id="node26" class="node">
<title>Node26</title>
<g id="a_node26"><a xlink:href="timedependentparameter_8hpp.html" target="_top" xlink:title="MODEL::TimeDependentParameter source file.">
<polygon fill="none" stroke="black" points="371.4,-280.5 371.4,-299.5 513.4,-299.5 513.4,-280.5 371.4,-280.5"/>
<text text-anchor="middle" x="442.4" y="-287.5" font-family="Helvetica,sans-Serif" font-size="10.00">timedependentparameter.hpp</text>
</a>
</g>
</g>
<!-- Node25&#45;&gt;Node26 -->
<g id="edge51" class="edge">
<title>Node25&#45;&gt;Node26</title>
<path fill="none" stroke="midnightblue" d="M152.91,-336.44C214.05,-326.85 313.14,-311.29 378.04,-301.1"/>
<polygon fill="midnightblue" stroke="midnightblue" points="378.81,-304.52 388.15,-299.52 377.73,-297.61 378.81,-304.52"/>
</g>
<!-- Node26&#45;&gt;Node9 -->
<g id="edge52" class="edge">
<title>Node26&#45;&gt;Node9</title>
<path fill="none" stroke="midnightblue" d="M513.61,-282.32C638.98,-270.57 894.43,-246.62 985.36,-238.1"/>
<polygon fill="midnightblue" stroke="midnightblue" points="985.74,-241.58 995.37,-237.16 985.08,-234.61 985.74,-241.58"/>
</g>
<!-- Node26&#45;&gt;Node15 -->
<g id="edge54" class="edge">
<title>Node26&#45;&gt;Node15</title>
<path fill="none" stroke="midnightblue" d="M371.34,-285.55C300.89,-277.84 203.4,-253.68 203.4,-179 203.4,-179 203.4,-179 203.4,-121 203.4,-65.18 272.7,-33.77 314.82,-19.84"/>
<polygon fill="midnightblue" stroke="midnightblue" points="315.89,-23.17 324.37,-16.82 313.78,-16.49 315.89,-23.17"/>
</g>
<!-- Node26&#45;&gt;Node19 -->
<g id="edge55" class="edge">
<title>Node26&#45;&gt;Node19</title>
<path fill="none" stroke="midnightblue" d="M385.28,-280.47C357.01,-274.05 323.63,-262.97 298.4,-244 268.38,-221.42 238.44,-197.73 261.4,-168 302.57,-114.72 503.46,-84.2 598.45,-72.54"/>
<polygon fill="midnightblue" stroke="midnightblue" points="598.89,-76.01 608.4,-71.34 598.05,-69.06 598.89,-76.01"/>
</g>
<!-- Node27 -->
<g id="node27" class="node">
<title>Node27</title>
<g id="a_node27"><a xlink:title=" ">
<polygon fill="none" stroke="#bfbfbf" points="461.9,-224.5 461.9,-243.5 512.9,-243.5 512.9,-224.5 461.9,-224.5"/>
<text text-anchor="middle" x="487.4" y="-231.5" font-family="Helvetica,sans-Serif" font-size="10.00">numeric</text>
</a>
</g>
</g>
<!-- Node26&#45;&gt;Node27 -->
<g id="edge53" class="edge">
<title>Node26&#45;&gt;Node27</title>
<path fill="none" stroke="midnightblue" d="M449.83,-280.08C456.26,-272.38 465.71,-261.03 473.53,-251.65"/>
<polygon fill="midnightblue" stroke="midnightblue" points="476.4,-253.67 480.11,-243.75 471.02,-249.19 476.4,-253.67"/>
</g>
<!-- Node28&#45;&gt;Node10 -->
<g id="edge57" class="edge">
<title>Node28&#45;&gt;Node10</title>
<path fill="none" stroke="midnightblue" d="M1086.85,-336.5C1027.68,-326.94 931.58,-311.4 868.43,-301.19"/>
<polygon fill="midnightblue" stroke="midnightblue" points="868.63,-297.68 858.2,-299.54 867.52,-304.59 868.63,-297.68"/>
</g>
<!-- Node28&#45;&gt;Node16 -->
<g id="edge58" class="edge">
<title>Node28&#45;&gt;Node16</title>
<path fill="none" stroke="midnightblue" d="M1135.78,-336.18C1125.9,-313.36 1096.13,-252.19 1050.4,-224 1013.24,-201.09 888.87,-187.63 824.6,-182.05"/>
<polygon fill="midnightblue" stroke="midnightblue" points="824.71,-178.54 814.45,-181.19 824.12,-185.52 824.71,-178.54"/>
</g>
<!-- Node29&#45;&gt;Node10 -->
<g id="edge62" class="edge">
<title>Node29&#45;&gt;Node10</title>
<path fill="none" stroke="midnightblue" d="M344.56,-336.89C347.54,-336.59 350.5,-336.29 353.4,-336 484.29,-322.79 636.53,-307.69 726.72,-298.77"/>
<polygon fill="midnightblue" stroke="midnightblue" points="727.26,-302.23 736.86,-297.77 726.57,-295.27 727.26,-302.23"/>
</g>
<!-- Node29&#45;&gt;Node16 -->
<g id="edge63" class="edge">
<title>Node29&#45;&gt;Node16</title>
<path fill="none" stroke="midnightblue" d="M339.35,-336.5C403.44,-328.32 490.74,-315.02 522.4,-300 569.1,-277.86 564.61,-247.96 610.4,-224 653.79,-201.3 709.33,-189.55 746.07,-183.84"/>
<polygon fill="midnightblue" stroke="midnightblue" points="746.99,-187.24 756.37,-182.32 745.97,-180.32 746.99,-187.24"/>
</g>
<!-- Node29&#45;&gt;Node26 -->
<g id="edge64" class="edge">
<title>Node29&#45;&gt;Node26</title>
<path fill="none" stroke="midnightblue" d="M293.45,-336.44C323.48,-327.28 371.32,-312.69 404.65,-302.52"/>
<polygon fill="midnightblue" stroke="midnightblue" points="405.94,-305.78 414.49,-299.52 403.9,-299.09 405.94,-305.78"/>
</g>
<!-- Node30&#45;&gt;Node10 -->
<g id="edge66" class="edge">
<title>Node30&#45;&gt;Node10</title>
<path fill="none" stroke="midnightblue" d="M499.92,-336.44C564.57,-326.83 669.43,-311.23 737.91,-301.04"/>
<polygon fill="midnightblue" stroke="midnightblue" points="738.78,-304.45 748.15,-299.52 737.75,-297.53 738.78,-304.45"/>
</g>
<!-- Node30&#45;&gt;Node16 -->
<g id="edge67" class="edge">
<title>Node30&#45;&gt;Node16</title>
<path fill="none" stroke="midnightblue" d="M471.55,-336.47C495.17,-328.85 528.78,-316.37 555.4,-300 598.85,-273.28 596.97,-249.05 641.4,-224 674.47,-205.36 716.24,-193.4 746.27,-186.54"/>
<polygon fill="midnightblue" stroke="midnightblue" points="747.35,-189.88 756.37,-184.32 745.85,-183.05 747.35,-189.88"/>
</g>
<!-- Node30&#45;&gt;Node26 -->
<g id="edge68" class="edge">
<title>Node30&#45;&gt;Node26</title>
<path fill="none" stroke="midnightblue" d="M442.4,-336.08C442.4,-329.01 442.4,-318.86 442.4,-309.99"/>
<polygon fill="midnightblue" stroke="midnightblue" points="445.9,-309.75 442.4,-299.75 438.9,-309.75 445.9,-309.75"/>
</g>
<!-- Node31&#45;&gt;Node10 -->
<g id="edge70" class="edge">
<title>Node31&#45;&gt;Node10</title>
<path fill="none" stroke="midnightblue" d="M636.25,-336.44C670.8,-327.16 726.09,-312.31 763.99,-302.13"/>
<polygon fill="midnightblue" stroke="midnightblue" points="764.95,-305.49 773.7,-299.52 763.14,-298.73 764.95,-305.49"/>
</g>
<!-- Node31&#45;&gt;Node16 -->
<g id="edge71" class="edge">
<title>Node31&#45;&gt;Node16</title>
<path fill="none" stroke="midnightblue" d="M606.26,-336.33C611.41,-314.4 627.87,-256.14 663.4,-224 686.54,-203.08 720.23,-191.63 746.36,-185.53"/>
<polygon fill="midnightblue" stroke="midnightblue" points="747.28,-188.91 756.31,-183.37 745.8,-182.07 747.28,-188.91"/>
</g>
<!-- Node31&#45;&gt;Node26 -->
<g id="edge72" class="edge">
<title>Node31&#45;&gt;Node26</title>
<path fill="none" stroke="midnightblue" d="M578.73,-336.44C551.48,-327.36 508.22,-312.94 477.75,-302.78"/>
<polygon fill="midnightblue" stroke="midnightblue" points="478.55,-299.36 467.95,-299.52 476.33,-306 478.55,-299.36"/>
</g>
<!-- Node32&#45;&gt;Node10 -->
<g id="edge74" class="edge">
<title>Node32&#45;&gt;Node10</title>
<path fill="none" stroke="midnightblue" d="M1210.4,-336.94C1122.97,-327.03 974.93,-310.23 884.1,-299.93"/>
<polygon fill="midnightblue" stroke="midnightblue" points="884.47,-296.45 874.14,-298.8 883.68,-303.4 884.47,-296.45"/>
</g>
<!-- Node32&#45;&gt;Node16 -->
<g id="edge75" class="edge">
<title>Node32&#45;&gt;Node16</title>
<path fill="none" stroke="midnightblue" d="M1280.54,-336.47C1277.74,-313.81 1266.77,-251.95 1228.4,-224 1196.12,-200.48 927.2,-185.61 824.79,-180.75"/>
<polygon fill="midnightblue" stroke="midnightblue" points="824.72,-177.24 814.56,-180.27 824.39,-184.23 824.72,-177.24"/>
</g>
<!-- Node33&#45;&gt;Node10 -->
<g id="edge77" class="edge">
<title>Node33&#45;&gt;Node10</title>
<path fill="none" stroke="midnightblue" d="M1370.57,-336.95C1367.47,-336.62 1364.4,-336.3 1361.4,-336 1191.51,-318.94 991.9,-304.03 884.1,-296.41"/>
<polygon fill="midnightblue" stroke="midnightblue" points="884.18,-292.9 873.96,-295.69 883.69,-299.89 884.18,-292.9"/>
</g>
<!-- Node33&#45;&gt;Node16 -->
<g id="edge78" class="edge">
<title>Node33&#45;&gt;Node16</title>
<path fill="none" stroke="midnightblue" d="M1426.9,-336.29C1401.05,-313.19 1326.36,-250.32 1251.4,-224 1172.88,-196.42 921.78,-184.17 824.46,-180.37"/>
<polygon fill="midnightblue" stroke="midnightblue" points="824.58,-176.87 814.45,-179.99 824.31,-183.87 824.58,-176.87"/>
</g>
</g>
</svg>
