<?xml version="1.0" encoding="UTF-8" standalone="no"?>
<!DOCTYPE svg PUBLIC "-//W3C//DTD SVG 1.1//EN"
 "http://www.w3.org/Graphics/SVG/1.1/DTD/svg11.dtd">
<!-- Generated by graphviz version 3.0.0 (20220413.0242)
 -->
<!-- Title: io/configreader.hpp Pages: 1 -->
<svg width="1533pt" height="364pt"
 viewBox="0.00 0.00 1533.00 364.00" xmlns="http://www.w3.org/2000/svg" xmlns:xlink="http://www.w3.org/1999/xlink">
<g id="graph0" class="graph" transform="scale(1 1) rotate(0) translate(4 360)">
<title>io/configreader.hpp</title>
<!-- Node1 -->
<g id="node1" class="node">
<title>Node1</title>
<g id="a_node1"><a xlink:title="IO::ConfigReader source file.">
<polygon fill="#bfbfbf" stroke="black" points="636.5,-336.5 636.5,-355.5 734.5,-355.5 734.5,-336.5 636.5,-336.5"/>
<text text-anchor="middle" x="685.5" y="-343.5" font-family="Helvetica,sans-Serif" font-size="10.00">io/configreader.hpp</text>
</a>
</g>
</g>
<!-- Node2 -->
<g id="node2" class="node">
<title>Node2</title>
<g id="a_node2"><a xlink:title=" ">
<polygon fill="none" stroke="#bfbfbf" points="1357,-0.5 1357,-19.5 1398,-19.5 1398,-0.5 1357,-0.5"/>
<text text-anchor="middle" x="1377.5" y="-7.5" font-family="Helvetica,sans-Serif" font-size="10.00">string</text>
</a>
</g>
</g>
<!-- Node1&#45;&gt;Node2 -->
<g id="edge1" class="edge">
<title>Node1&#45;&gt;Node2</title>
<path fill="none" stroke="midnightblue" d="M734.58,-342.97C900.99,-335.46 1433.5,-305.88 1433.5,-235 1433.5,-235 1433.5,-235 1433.5,-121 1433.5,-84.44 1408.62,-47.75 1392.03,-27.34"/>
<polygon fill="midnightblue" stroke="midnightblue" points="1394.65,-25.02 1385.52,-19.64 1389.3,-29.54 1394.65,-25.02"/>
</g>
<!-- Node3 -->
<g id="node3" class="node">
<title>Node3</title>
<g id="a_node3"><a xlink:title=" ">
<polygon fill="none" stroke="#bfbfbf" points="559,-280.5 559,-299.5 618,-299.5 618,-280.5 559,-280.5"/>
<text text-anchor="middle" x="588.5" y="-287.5" font-family="Helvetica,sans-Serif" font-size="10.00">stdexcept</text>
</a>
</g>
</g>
<!-- Node1&#45;&gt;Node3 -->
<g id="edge2" class="edge">
<title>Node1&#45;&gt;Node3</title>
<path fill="none" stroke="midnightblue" d="M669.92,-336.32C654.5,-327.74 630.69,-314.49 612.79,-304.52"/>
<polygon fill="midnightblue" stroke="midnightblue" points="614.49,-301.46 604.05,-299.65 611.08,-307.58 614.49,-301.46"/>
</g>
<!-- Node4 -->
<g id="node4" class="node">
<title>Node4</title>
<g id="a_node4"><a xlink:href="model_8hpp.html" target="_top" xlink:title="MODEL::Model source file.">
<polygon fill="none" stroke="black" points="636.5,-280.5 636.5,-299.5 734.5,-299.5 734.5,-280.5 636.5,-280.5"/>
<text text-anchor="middle" x="685.5" y="-287.5" font-family="Helvetica,sans-Serif" font-size="10.00">../model/model.hpp</text>
</a>
</g>
</g>
<!-- Node1&#45;&gt;Node4 -->
<g id="edge3" class="edge">
<title>Node1&#45;&gt;Node4</title>
<path fill="none" stroke="midnightblue" d="M685.5,-336.08C685.5,-329.01 685.5,-318.86 685.5,-309.99"/>
<polygon fill="midnightblue" stroke="midnightblue" points="689,-309.75 685.5,-299.75 682,-309.75 689,-309.75"/>
</g>
<!-- Node28 -->
<g id="node28" class="node">
<title>Node28</title>
<g id="a_node28"><a xlink:href="debug_8hpp.html" target="_top" xlink:title="HELPERS::DEBUG source file.">
<polygon fill="none" stroke="black" points="0,-168.5 0,-187.5 103,-187.5 103,-168.5 0,-168.5"/>
<text text-anchor="middle" x="51.5" y="-175.5" font-family="Helvetica,sans-Serif" font-size="10.00">../helpers/debug.hpp</text>
</a>
</g>
</g>
<!-- Node1&#45;&gt;Node28 -->
<g id="edge63" class="edge">
<title>Node1&#45;&gt;Node28</title>
<path fill="none" stroke="midnightblue" d="M636.21,-341.79C540.36,-334.22 323.43,-310.59 154.5,-244 122.77,-231.49 90.13,-208.94 70.33,-193.97"/>
<polygon fill="midnightblue" stroke="midnightblue" points="72.24,-191.02 62.18,-187.69 67.97,-196.57 72.24,-191.02"/>
</g>
<!-- Node29 -->
<g id="node29" class="node">
<title>Node29</title>
<g id="a_node29"><a xlink:title=" ">
<polygon fill="none" stroke="#bfbfbf" points="1462,-280.5 1462,-299.5 1525,-299.5 1525,-280.5 1462,-280.5"/>
<text text-anchor="middle" x="1493.5" y="-287.5" font-family="Helvetica,sans-Serif" font-size="10.00">simdjson.h</text>
</a>
</g>
</g>
<!-- Node1&#45;&gt;Node29 -->
<g id="edge65" class="edge">
<title>Node1&#45;&gt;Node29</title>
<path fill="none" stroke="midnightblue" d="M734.74,-344.38C856.26,-342.35 1179.96,-333.92 1447.5,-300 1448.96,-299.81 1450.45,-299.61 1451.95,-299.39"/>
<polygon fill="midnightblue" stroke="midnightblue" points="1452.61,-302.83 1461.92,-297.76 1451.48,-295.92 1452.61,-302.83"/>
</g>
<!-- Node5 -->
<g id="node5" class="node">
<title>Node5</title>
<g id="a_node5"><a xlink:title=" ">
<polygon fill="none" stroke="#bfbfbf" points="1105,-112.5 1105,-131.5 1140,-131.5 1140,-112.5 1105,-112.5"/>
<text text-anchor="middle" x="1122.5" y="-119.5" font-family="Helvetica,sans-Serif" font-size="10.00">map</text>
</a>
</g>
</g>
<!-- Node4&#45;&gt;Node5 -->
<g id="edge4" class="edge">
<title>Node4&#45;&gt;Node5</title>
<path fill="none" stroke="midnightblue" d="M734.72,-289.15C873.83,-289.07 1262.28,-285.12 1300.5,-244 1306.55,-237.49 1304.97,-231.68 1300.5,-224 1283.63,-195.04 1194.96,-153.91 1149.47,-134.28"/>
<polygon fill="midnightblue" stroke="midnightblue" points="1150.77,-131.03 1140.2,-130.32 1148.02,-137.46 1150.77,-131.03"/>
</g>
<!-- Node6 -->
<g id="node6" class="node">
<title>Node6</title>
<g id="a_node6"><a xlink:title=" ">
<polygon fill="none" stroke="#bfbfbf" points="468,-224.5 468,-243.5 497,-243.5 497,-224.5 468,-224.5"/>
<text text-anchor="middle" x="482.5" y="-231.5" font-family="Helvetica,sans-Serif" font-size="10.00">list</text>
</a>
</g>
</g>
<!-- Node4&#45;&gt;Node6 -->
<g id="edge5" class="edge">
<title>Node4&#45;&gt;Node6</title>
<path fill="none" stroke="midnightblue" d="M646.04,-280.42C611.6,-272.64 560.15,-260.3 506.77,-243.8"/>
<polygon fill="midnightblue" stroke="midnightblue" points="507.72,-240.43 497.13,-240.79 505.63,-247.11 507.72,-240.43"/>
</g>
<!-- Node7 -->
<g id="node7" class="node">
<title>Node7</title>
<g id="a_node7"><a xlink:title=" ">
<polygon fill="none" stroke="#bfbfbf" points="619.5,-224.5 619.5,-243.5 665.5,-243.5 665.5,-224.5 619.5,-224.5"/>
<text text-anchor="middle" x="642.5" y="-231.5" font-family="Helvetica,sans-Serif" font-size="10.00">variant</text>
</a>
</g>
</g>
<!-- Node4&#45;&gt;Node7 -->
<g id="edge6" class="edge">
<title>Node4&#45;&gt;Node7</title>
<path fill="none" stroke="midnightblue" d="M678.4,-280.08C672.26,-272.38 663.23,-261.03 655.76,-251.65"/>
<polygon fill="midnightblue" stroke="midnightblue" points="658.44,-249.39 649.47,-243.75 652.96,-253.75 658.44,-249.39"/>
</g>
<!-- Node8 -->
<g id="node8" class="node">
<title>Node8</title>
<g id="a_node8"><a xlink:href="densesystem_8hpp.html" target="_top" xlink:title="ALGEBRA::DenseSystem source file.">
<polygon fill="none" stroke="black" points="533.5,-112.5 533.5,-131.5 667.5,-131.5 667.5,-112.5 533.5,-112.5"/>
<text text-anchor="middle" x="600.5" y="-119.5" font-family="Helvetica,sans-Serif" font-size="10.00">../algebra/densesystem.hpp</text>
</a>
</g>
</g>
<!-- Node4&#45;&gt;Node8 -->
<g id="edge7" class="edge">
<title>Node4&#45;&gt;Node8</title>
<path fill="none" stroke="midnightblue" d="M636.27,-281.32C632.96,-280.86 629.69,-280.41 626.5,-280 552.47,-270.37 342.38,-299.54 292.5,-244 286.56,-237.39 287.13,-231.09 292.5,-224 328.18,-176.89 364.68,-207.4 420.5,-188 442.33,-180.41 446.88,-176.18 468.5,-168 500.53,-155.88 537.46,-143.42 564.09,-134.69"/>
<polygon fill="midnightblue" stroke="midnightblue" points="565.35,-137.96 573.77,-131.54 563.18,-131.31 565.35,-137.96"/>
</g>
<!-- Node10 -->
<g id="node10" class="node">
<title>Node10</title>
<g id="a_node10"><a xlink:href="sparsesystem_8hpp.html" target="_top" xlink:title="ALGEBRA::SparseSystem source file.">
<polygon fill="none" stroke="black" points="272,-112.5 272,-131.5 409,-131.5 409,-112.5 272,-112.5"/>
<text text-anchor="middle" x="340.5" y="-119.5" font-family="Helvetica,sans-Serif" font-size="10.00">../algebra/sparsesystem.hpp</text>
</a>
</g>
</g>
<!-- Node4&#45;&gt;Node10 -->
<g id="edge9" class="edge">
<title>Node4&#45;&gt;Node10</title>
<path fill="none" stroke="midnightblue" d="M636.36,-282.46C629.98,-281.56 623.57,-280.7 617.5,-280 566.79,-274.15 194.15,-281.48 159.5,-244 113.55,-194.3 224.35,-153.13 292.39,-134.2"/>
<polygon fill="midnightblue" stroke="midnightblue" points="293.35,-137.56 302.09,-131.57 291.52,-130.8 293.35,-137.56"/>
</g>
<!-- Node14 -->
<g id="node14" class="node">
<title>Node14</title>
<g id="a_node14"><a xlink:href="junction_8hpp.html" target="_top" xlink:title="MODEL::Junction source file.">
<polygon fill="none" stroke="black" points="177.5,-224.5 177.5,-243.5 245.5,-243.5 245.5,-224.5 177.5,-224.5"/>
<text text-anchor="middle" x="211.5" y="-231.5" font-family="Helvetica,sans-Serif" font-size="10.00">junction.hpp</text>
</a>
</g>
</g>
<!-- Node4&#45;&gt;Node14 -->
<g id="edge14" class="edge">
<title>Node4&#45;&gt;Node14</title>
<path fill="none" stroke="midnightblue" d="M636.27,-281.29C632.97,-280.83 629.69,-280.4 626.5,-280 463.88,-259.64 421.75,-267.12 259.5,-244 258.23,-243.82 256.93,-243.63 255.63,-243.43"/>
<polygon fill="midnightblue" stroke="midnightblue" points="255.96,-239.93 245.53,-241.76 254.82,-246.84 255.96,-239.93"/>
</g>
<!-- Node17 -->
<g id="node17" class="node">
<title>Node17</title>
<g id="a_node17"><a xlink:href="node_8hpp.html" target="_top" xlink:title="MODEL::Node source file.">
<polygon fill="none" stroke="black" points="1349.5,-112.5 1349.5,-131.5 1405.5,-131.5 1405.5,-112.5 1349.5,-112.5"/>
<text text-anchor="middle" x="1377.5" y="-119.5" font-family="Helvetica,sans-Serif" font-size="10.00">node.hpp</text>
</a>
</g>
</g>
<!-- Node4&#45;&gt;Node17 -->
<g id="edge34" class="edge">
<title>Node4&#45;&gt;Node17</title>
<path fill="none" stroke="midnightblue" d="M734.6,-289.46C884.23,-290.36 1327.05,-289.16 1371.5,-244 1398.09,-216.98 1390.21,-168.02 1383.22,-141.42"/>
<polygon fill="midnightblue" stroke="midnightblue" points="1386.5,-140.16 1380.38,-131.51 1379.77,-142.09 1386.5,-140.16"/>
</g>
<!-- Node18 -->
<g id="node18" class="node">
<title>Node18</title>
<g id="a_node18"><a xlink:href="dofhandler_8hpp.html" target="_top" xlink:title="MODEL::DOFHandler source file.">
<polygon fill="none" stroke="black" points="1171.5,-56.5 1171.5,-75.5 1251.5,-75.5 1251.5,-56.5 1171.5,-56.5"/>
<text text-anchor="middle" x="1211.5" y="-63.5" font-family="Helvetica,sans-Serif" font-size="10.00">dofhandler.hpp</text>
</a>
</g>
</g>
<!-- Node4&#45;&gt;Node18 -->
<g id="edge33" class="edge">
<title>Node4&#45;&gt;Node18</title>
<path fill="none" stroke="midnightblue" d="M734.65,-289.24C876.04,-289.43 1276.2,-286.21 1315.5,-244 1363.8,-192.13 1274.31,-114.04 1231.95,-81.77"/>
<polygon fill="midnightblue" stroke="midnightblue" points="1233.8,-78.78 1223.7,-75.6 1229.61,-84.39 1233.8,-78.78"/>
</g>
<!-- Node19 -->
<g id="node19" class="node">
<title>Node19</title>
<g id="a_node19"><a xlink:href="bloodvessel_8hpp.html" target="_top" xlink:title="MODEL::BloodVessel source file.">
<polygon fill="none" stroke="black" points="515.5,-224.5 515.5,-243.5 601.5,-243.5 601.5,-224.5 515.5,-224.5"/>
<text text-anchor="middle" x="558.5" y="-231.5" font-family="Helvetica,sans-Serif" font-size="10.00">bloodvessel.hpp</text>
</a>
</g>
</g>
<!-- Node4&#45;&gt;Node19 -->
<g id="edge28" class="edge">
<title>Node4&#45;&gt;Node19</title>
<path fill="none" stroke="midnightblue" d="M665.38,-280.44C644.48,-271.56 611.57,-257.56 587.78,-247.45"/>
<polygon fill="midnightblue" stroke="midnightblue" points="589.1,-244.21 578.53,-243.52 586.36,-250.65 589.1,-244.21"/>
</g>
<!-- Node21 -->
<g id="node21" class="node">
<title>Node21</title>
<g id="a_node21"><a xlink:href="flowreference_8hpp.html" target="_top" xlink:title="MODEL::FlowReference source file.">
<polygon fill="none" stroke="black" points="683.5,-224.5 683.5,-243.5 775.5,-243.5 775.5,-224.5 683.5,-224.5"/>
<text text-anchor="middle" x="729.5" y="-231.5" font-family="Helvetica,sans-Serif" font-size="10.00">flowreference.hpp</text>
</a>
</g>
</g>
<!-- Node4&#45;&gt;Node21 -->
<g id="edge35" class="edge">
<title>Node4&#45;&gt;Node21</title>
<path fill="none" stroke="midnightblue" d="M692.77,-280.08C699.04,-272.38 708.29,-261.03 715.93,-251.65"/>
<polygon fill="midnightblue" stroke="midnightblue" points="718.77,-253.71 722.37,-243.75 713.34,-249.29 718.77,-253.71"/>
</g>
<!-- Node24 -->
<g id="node24" class="node">
<title>Node24</title>
<g id="a_node24"><a xlink:href="pressurereference_8hpp.html" target="_top" xlink:title="MODEL::PressureReference source file.">
<polygon fill="none" stroke="black" points="794,-224.5 794,-243.5 907,-243.5 907,-224.5 794,-224.5"/>
<text text-anchor="middle" x="850.5" y="-231.5" font-family="Helvetica,sans-Serif" font-size="10.00">pressurereference.hpp</text>
</a>
</g>
</g>
<!-- Node4&#45;&gt;Node24 -->
<g id="edge44" class="edge">
<title>Node4&#45;&gt;Node24</title>
<path fill="none" stroke="midnightblue" d="M711.64,-280.44C739.52,-271.32 783.85,-256.81 814.9,-246.65"/>
<polygon fill="midnightblue" stroke="midnightblue" points="816.06,-249.95 824.48,-243.52 813.88,-243.3 816.06,-249.95"/>
</g>
<!-- Node25 -->
<g id="node25" class="node">
<title>Node25</title>
<g id="a_node25"><a xlink:href="rcrblockwithdistalpressure_8hpp.html" target="_top" xlink:title="MODEL::RCRBlockWithDistalPressure source file.">
<polygon fill="none" stroke="black" points="301.5,-224.5 301.5,-243.5 449.5,-243.5 449.5,-224.5 301.5,-224.5"/>
<text text-anchor="middle" x="375.5" y="-231.5" font-family="Helvetica,sans-Serif" font-size="10.00">rcrblockwithdistalpressure.hpp</text>
</a>
</g>
</g>
<!-- Node4&#45;&gt;Node25 -->
<g id="edge49" class="edge">
<title>Node4&#45;&gt;Node25</title>
<path fill="none" stroke="midnightblue" d="M636.38,-280.44C581.62,-270.9 493.09,-255.48 434.59,-245.29"/>
<polygon fill="midnightblue" stroke="midnightblue" points="434.84,-241.78 424.39,-243.52 433.64,-248.68 434.84,-241.78"/>
</g>
<!-- Node26 -->
<g id="node26" class="node">
<title>Node26</title>
<g id="a_node26"><a xlink:href="resistancewithdistalpressure_8hpp.html" target="_top" xlink:title="MODEL::ResistanceWithDistalPressure source file.">
<polygon fill="none" stroke="black" points="925.5,-224.5 925.5,-243.5 1083.5,-243.5 1083.5,-224.5 925.5,-224.5"/>
<text text-anchor="middle" x="1004.5" y="-231.5" font-family="Helvetica,sans-Serif" font-size="10.00">resistancewithdistalpressure.hpp</text>
</a>
</g>
</g>
<!-- Node4&#45;&gt;Node26 -->
<g id="edge53" class="edge">
<title>Node4&#45;&gt;Node26</title>
<path fill="none" stroke="midnightblue" d="M734.64,-280.68C790.98,-271.14 883.35,-255.51 944.04,-245.23"/>
<polygon fill="midnightblue" stroke="midnightblue" points="944.97,-248.63 954.25,-243.51 943.8,-241.73 944.97,-248.63"/>
</g>
<!-- Node27 -->
<g id="node27" class="node">
<title>Node27</title>
<g id="a_node27"><a xlink:href="openloopcoronarywithdistalpressure_8hpp.html" target="_top" xlink:title="MODEL::OpenLoopCoronaryWithDistalPressure source file.">
<polygon fill="none" stroke="black" points="1102,-224.5 1102,-243.5 1291,-243.5 1291,-224.5 1102,-224.5"/>
<text text-anchor="middle" x="1196.5" y="-231.5" font-family="Helvetica,sans-Serif" font-size="10.00">openloopcoronarywithdistalpressure.hpp</text>
</a>
</g>
</g>
<!-- Node4&#45;&gt;Node27 -->
<g id="edge58" class="edge">
<title>Node4&#45;&gt;Node27</title>
<path fill="none" stroke="midnightblue" d="M734.96,-283.77C820.49,-274.73 997.24,-256.06 1105.48,-244.62"/>
<polygon fill="midnightblue" stroke="midnightblue" points="1106.16,-248.07 1115.74,-243.53 1105.43,-241.1 1106.16,-248.07"/>
</g>
<!-- Node9 -->
<g id="node9" class="node">
<title>Node9</title>
<g id="a_node9"><a xlink:title=" ">
<polygon fill="none" stroke="#bfbfbf" points="565,-56.5 565,-75.5 636,-75.5 636,-56.5 565,-56.5"/>
<text text-anchor="middle" x="600.5" y="-63.5" font-family="Helvetica,sans-Serif" font-size="10.00">Eigen/Dense</text>
</a>
</g>
</g>
<!-- Node8&#45;&gt;Node9 -->
<g id="edge8" class="edge">
<title>Node8&#45;&gt;Node9</title>
<path fill="none" stroke="midnightblue" d="M600.5,-112.08C600.5,-105.01 600.5,-94.86 600.5,-85.99"/>
<polygon fill="midnightblue" stroke="midnightblue" points="604,-85.75 600.5,-75.75 597,-85.75 604,-85.75"/>
</g>
<!-- Node10&#45;&gt;Node4 -->
<g id="edge13" class="edge">
<title>Node10&#45;&gt;Node4</title>
<path fill="none" stroke="midnightblue" d="M312.2,-131.57C253.62,-149.1 129.29,-191.86 177.5,-244 210.46,-279.65 549.21,-274.76 629.34,-279.65"/>
<polygon fill="midnightblue" stroke="midnightblue" points="629.3,-283.16 639.56,-280.48 629.88,-276.18 629.3,-283.16"/>
</g>
<!-- Node11 -->
<g id="node11" class="node">
<title>Node11</title>
<g id="a_node11"><a xlink:title=" ">
<polygon fill="none" stroke="#bfbfbf" points="398.5,-56.5 398.5,-75.5 472.5,-75.5 472.5,-56.5 398.5,-56.5"/>
<text text-anchor="middle" x="435.5" y="-63.5" font-family="Helvetica,sans-Serif" font-size="10.00">Eigen/Sparse</text>
</a>
</g>
</g>
<!-- Node10&#45;&gt;Node11 -->
<g id="edge10" class="edge">
<title>Node10&#45;&gt;Node11</title>
<path fill="none" stroke="midnightblue" d="M355.76,-112.32C370.72,-103.82 393.75,-90.73 411.23,-80.8"/>
<polygon fill="midnightblue" stroke="midnightblue" points="413.31,-83.64 420.27,-75.65 409.85,-77.55 413.31,-83.64"/>
</g>
<!-- Node12 -->
<g id="node12" class="node">
<title>Node12</title>
<g id="a_node12"><a xlink:title=" ">
<polygon fill="none" stroke="#bfbfbf" points="292.5,-56.5 292.5,-75.5 380.5,-75.5 380.5,-56.5 292.5,-56.5"/>
<text text-anchor="middle" x="336.5" y="-63.5" font-family="Helvetica,sans-Serif" font-size="10.00">Eigen/SparseLU</text>
</a>
</g>
</g>
<!-- Node10&#45;&gt;Node12 -->
<g id="edge11" class="edge">
<title>Node10&#45;&gt;Node12</title>
<path fill="none" stroke="midnightblue" d="M339.84,-112.08C339.32,-105.01 338.56,-94.86 337.91,-85.99"/>
<polygon fill="midnightblue" stroke="midnightblue" points="341.38,-85.47 337.15,-75.75 334.4,-85.98 341.38,-85.47"/>
</g>
<!-- Node13 -->
<g id="node13" class="node">
<title>Node13</title>
<g id="a_node13"><a xlink:title=" ">
<polygon fill="none" stroke="#bfbfbf" points="218.5,-56.5 218.5,-75.5 272.5,-75.5 272.5,-56.5 218.5,-56.5"/>
<text text-anchor="middle" x="245.5" y="-63.5" font-family="Helvetica,sans-Serif" font-size="10.00">iostream</text>
</a>
</g>
</g>
<!-- Node10&#45;&gt;Node13 -->
<g id="edge12" class="edge">
<title>Node10&#45;&gt;Node13</title>
<path fill="none" stroke="midnightblue" d="M325.24,-112.32C310.28,-103.82 287.25,-90.73 269.77,-80.8"/>
<polygon fill="midnightblue" stroke="midnightblue" points="271.15,-77.55 260.73,-75.65 267.69,-83.64 271.15,-77.55"/>
</g>
<!-- Node14&#45;&gt;Node8 -->
<g id="edge15" class="edge">
<title>Node14&#45;&gt;Node8</title>
<path fill="none" stroke="midnightblue" d="M241.5,-224.46C285.25,-212.01 369.11,-188.17 440.5,-168 481.22,-156.5 527.78,-143.41 560.14,-134.32"/>
<polygon fill="midnightblue" stroke="midnightblue" points="561.44,-137.59 570.12,-131.52 559.54,-130.85 561.44,-137.59"/>
</g>
<!-- Node14&#45;&gt;Node10 -->
<g id="edge16" class="edge">
<title>Node14&#45;&gt;Node10</title>
<path fill="none" stroke="midnightblue" d="M221.62,-224.37C243.48,-205.73 295.31,-161.53 322.75,-138.13"/>
<polygon fill="midnightblue" stroke="midnightblue" points="325.09,-140.74 330.42,-131.59 320.54,-135.42 325.09,-140.74"/>
</g>
<!-- Node15 -->
<g id="node15" class="node">
<title>Node15</title>
<g id="a_node15"><a xlink:href="block_8hpp.html" target="_top" xlink:title="MODEL::Block source file.">
<polygon fill="none" stroke="black" points="818.5,-168.5 818.5,-187.5 876.5,-187.5 876.5,-168.5 818.5,-168.5"/>
<text text-anchor="middle" x="847.5" y="-175.5" font-family="Helvetica,sans-Serif" font-size="10.00">block.hpp</text>
</a>
</g>
</g>
<!-- Node14&#45;&gt;Node15 -->
<g id="edge17" class="edge">
<title>Node14&#45;&gt;Node15</title>
<path fill="none" stroke="midnightblue" d="M245.77,-228.96C260.18,-227.33 277.15,-225.47 292.5,-224 485.72,-205.44 717.29,-188.31 808.17,-181.79"/>
<polygon fill="midnightblue" stroke="midnightblue" points="808.56,-185.27 818.29,-181.06 808.06,-178.28 808.56,-185.27"/>
</g>
<!-- Node15&#45;&gt;Node5 -->
<g id="edge19" class="edge">
<title>Node15&#45;&gt;Node5</title>
<path fill="none" stroke="midnightblue" d="M876.67,-171.27C930.08,-160.78 1042.88,-138.63 1095.01,-128.4"/>
<polygon fill="midnightblue" stroke="midnightblue" points="1095.75,-131.82 1104.88,-126.46 1094.4,-124.95 1095.75,-131.82"/>
</g>
<!-- Node15&#45;&gt;Node8 -->
<g id="edge26" class="edge">
<title>Node15&#45;&gt;Node8</title>
<path fill="none" stroke="midnightblue" d="M818.2,-170.59C776.59,-161.5 699.87,-144.73 649.52,-133.72"/>
<polygon fill="midnightblue" stroke="midnightblue" points="650.03,-130.25 639.51,-131.53 648.53,-137.08 650.03,-130.25"/>
</g>
<!-- Node15&#45;&gt;Node10 -->
<g id="edge27" class="edge">
<title>Node15&#45;&gt;Node10</title>
<path fill="none" stroke="midnightblue" d="M818.42,-173.9C742.13,-165.78 534.24,-143.64 419.38,-131.4"/>
<polygon fill="midnightblue" stroke="midnightblue" points="419.56,-127.9 409.24,-130.32 418.82,-134.86 419.56,-127.9"/>
</g>
<!-- Node16 -->
<g id="node16" class="node">
<title>Node16</title>
<g id="a_node16"><a xlink:title=" ">
<polygon fill="none" stroke="#bfbfbf" points="1016.5,-0.5 1016.5,-19.5 1060.5,-19.5 1060.5,-0.5 1016.5,-0.5"/>
<text text-anchor="middle" x="1038.5" y="-7.5" font-family="Helvetica,sans-Serif" font-size="10.00">vector</text>
</a>
</g>
</g>
<!-- Node15&#45;&gt;Node16 -->
<g id="edge18" class="edge">
<title>Node15&#45;&gt;Node16</title>
<path fill="none" stroke="midnightblue" d="M854.67,-168.12C865.34,-155.16 886.31,-130.57 906.5,-112 943.14,-78.31 990.34,-44.16 1017.23,-25.47"/>
<polygon fill="midnightblue" stroke="midnightblue" points="1019.28,-28.31 1025.52,-19.75 1015.3,-22.55 1019.28,-28.31"/>
</g>
<!-- Node15&#45;&gt;Node17 -->
<g id="edge20" class="edge">
<title>Node15&#45;&gt;Node17</title>
<path fill="none" stroke="midnightblue" d="M876.75,-174.02C966.56,-164.87 1238.35,-137.18 1339.25,-126.9"/>
<polygon fill="midnightblue" stroke="midnightblue" points="1339.71,-130.37 1349.31,-125.87 1339.01,-123.4 1339.71,-130.37"/>
</g>
<!-- Node15&#45;&gt;Node18 -->
<g id="edge25" class="edge">
<title>Node15&#45;&gt;Node18</title>
<path fill="none" stroke="midnightblue" d="M857.64,-168.46C875.02,-154.3 912.15,-126.12 948.5,-112 1019.28,-84.49 1107.26,-73.76 1161.38,-69.6"/>
<polygon fill="midnightblue" stroke="midnightblue" points="1161.69,-73.09 1171.41,-68.88 1161.19,-66.11 1161.69,-73.09"/>
</g>
<!-- Node17&#45;&gt;Node2 -->
<g id="edge21" class="edge">
<title>Node17&#45;&gt;Node2</title>
<path fill="none" stroke="midnightblue" d="M1377.5,-112.37C1377.5,-94.62 1377.5,-53.67 1377.5,-29.6"/>
<polygon fill="midnightblue" stroke="midnightblue" points="1381,-29.59 1377.5,-19.59 1374,-29.59 1381,-29.59"/>
</g>
<!-- Node17&#45;&gt;Node18 -->
<g id="edge22" class="edge">
<title>Node17&#45;&gt;Node18</title>
<path fill="none" stroke="midnightblue" d="M1351.2,-112.44C1323.15,-103.32 1278.56,-88.81 1247.32,-78.65"/>
<polygon fill="midnightblue" stroke="midnightblue" points="1248.27,-75.28 1237.68,-75.52 1246.11,-81.94 1248.27,-75.28"/>
</g>
<!-- Node18&#45;&gt;Node2 -->
<g id="edge24" class="edge">
<title>Node18&#45;&gt;Node2</title>
<path fill="none" stroke="midnightblue" d="M1237.8,-56.44C1267.5,-46.78 1315.75,-31.09 1347.05,-20.9"/>
<polygon fill="midnightblue" stroke="midnightblue" points="1348.15,-24.23 1356.58,-17.81 1345.98,-17.57 1348.15,-24.23"/>
</g>
<!-- Node18&#45;&gt;Node16 -->
<g id="edge23" class="edge">
<title>Node18&#45;&gt;Node16</title>
<path fill="none" stroke="midnightblue" d="M1184.09,-56.44C1153.22,-46.81 1103.14,-31.18 1070.5,-20.99"/>
<polygon fill="midnightblue" stroke="midnightblue" points="1071.16,-17.53 1060.57,-17.89 1069.07,-24.21 1071.16,-17.53"/>
</g>
<!-- Node19&#45;&gt;Node8 -->
<g id="edge31" class="edge">
<title>Node19&#45;&gt;Node8</title>
<path fill="none" stroke="midnightblue" d="M561.8,-224.37C568.63,-206.46 584.49,-164.92 593.65,-140.95"/>
<polygon fill="midnightblue" stroke="midnightblue" points="596.92,-142.18 597.22,-131.59 590.38,-139.69 596.92,-142.18"/>
</g>
<!-- Node19&#45;&gt;Node10 -->
<g id="edge32" class="edge">
<title>Node19&#45;&gt;Node10</title>
<path fill="none" stroke="midnightblue" d="M515.47,-225.25C461.84,-215.26 375.81,-197.97 364.5,-188 351.13,-176.21 345.19,-156.28 342.57,-141.59"/>
<polygon fill="midnightblue" stroke="midnightblue" points="346.02,-141.01 341.14,-131.6 339.09,-142 346.02,-141.01"/>
</g>
<!-- Node19&#45;&gt;Node15 -->
<g id="edge30" class="edge">
<title>Node19&#45;&gt;Node15</title>
<path fill="none" stroke="midnightblue" d="M601.77,-224.92C657.83,-214.44 754.76,-196.33 808.6,-186.27"/>
<polygon fill="midnightblue" stroke="midnightblue" points="809.26,-189.71 818.45,-184.43 807.98,-182.82 809.26,-189.71"/>
</g>
<!-- Node20 -->
<g id="node20" class="node">
<title>Node20</title>
<g id="a_node20"><a xlink:title=" ">
<polygon fill="none" stroke="#bfbfbf" points="957.5,-112.5 957.5,-131.5 1003.5,-131.5 1003.5,-112.5 957.5,-112.5"/>
<text text-anchor="middle" x="980.5" y="-119.5" font-family="Helvetica,sans-Serif" font-size="10.00">math.h</text>
</a>
</g>
</g>
<!-- Node19&#45;&gt;Node20 -->
<g id="edge29" class="edge">
<title>Node19&#45;&gt;Node20</title>
<path fill="none" stroke="midnightblue" d="M591.26,-224.46C669.84,-203.98 868.36,-152.23 947.34,-131.64"/>
<polygon fill="midnightblue" stroke="midnightblue" points="948.44,-134.97 957.23,-129.06 946.67,-128.2 948.44,-134.97"/>
</g>
<!-- Node21&#45;&gt;Node8 -->
<g id="edge36" class="edge">
<title>Node21&#45;&gt;Node8</title>
<path fill="none" stroke="midnightblue" d="M719.38,-224.37C697.52,-205.73 645.69,-161.53 618.25,-138.13"/>
<polygon fill="midnightblue" stroke="midnightblue" points="620.46,-135.42 610.58,-131.59 615.91,-140.74 620.46,-135.42"/>
</g>
<!-- Node21&#45;&gt;Node10 -->
<g id="edge37" class="edge">
<title>Node21&#45;&gt;Node10</title>
<path fill="none" stroke="midnightblue" d="M699.3,-224.46C629.85,-204.82 458.79,-156.45 380.63,-134.35"/>
<polygon fill="midnightblue" stroke="midnightblue" points="381.26,-130.89 370.68,-131.53 379.35,-137.62 381.26,-130.89"/>
</g>
<!-- Node21&#45;&gt;Node15 -->
<g id="edge38" class="edge">
<title>Node21&#45;&gt;Node15</title>
<path fill="none" stroke="midnightblue" d="M748.2,-224.44C767.44,-215.64 797.65,-201.81 819.7,-191.72"/>
<polygon fill="midnightblue" stroke="midnightblue" points="821.25,-194.86 828.89,-187.52 818.34,-188.5 821.25,-194.86"/>
</g>
<!-- Node22 -->
<g id="node22" class="node">
<title>Node22</title>
<g id="a_node22"><a xlink:href="timedependentparameter_8hpp.html" target="_top" xlink:title="MODEL::TimeDependentParameter source file.">
<polygon fill="none" stroke="black" points="970.5,-168.5 970.5,-187.5 1112.5,-187.5 1112.5,-168.5 970.5,-168.5"/>
<text text-anchor="middle" x="1041.5" y="-175.5" font-family="Helvetica,sans-Serif" font-size="10.00">timedependentparameter.hpp</text>
</a>
</g>
</g>
<!-- Node21&#45;&gt;Node22 -->
<g id="edge39" class="edge">
<title>Node21&#45;&gt;Node22</title>
<path fill="none" stroke="midnightblue" d="M775.54,-225.03C830.34,-215.55 921.98,-199.69 982.08,-189.28"/>
<polygon fill="midnightblue" stroke="midnightblue" points="982.92,-192.69 992.18,-187.54 981.73,-185.79 982.92,-192.69"/>
</g>
<!-- Node22&#45;&gt;Node16 -->
<g id="edge41" class="edge">
<title>Node22&#45;&gt;Node16</title>
<path fill="none" stroke="midnightblue" d="M1041.34,-168.08C1040.87,-141.95 1039.48,-65.21 1038.84,-29.58"/>
<polygon fill="midnightblue" stroke="midnightblue" points="1042.34,-29.5 1038.65,-19.57 1035.34,-29.63 1042.34,-29.5"/>
</g>
<!-- Node22&#45;&gt;Node18 -->
<g id="edge43" class="edge">
<title>Node22&#45;&gt;Node18</title>
<path fill="none" stroke="midnightblue" d="M1046.85,-168.22C1055.64,-154.48 1074.37,-127.82 1096.5,-112 1117.84,-96.74 1145.06,-85.78 1167.66,-78.51"/>
<polygon fill="midnightblue" stroke="midnightblue" points="1168.84,-81.81 1177.36,-75.52 1166.77,-75.12 1168.84,-81.81"/>
</g>
<!-- Node22&#45;&gt;Node20 -->
<g id="edge40" class="edge">
<title>Node22&#45;&gt;Node20</title>
<path fill="none" stroke="midnightblue" d="M1031.7,-168.32C1022.68,-160.34 1009.09,-148.31 998.18,-138.65"/>
<polygon fill="midnightblue" stroke="midnightblue" points="1000.29,-135.84 990.48,-131.83 995.65,-141.08 1000.29,-135.84"/>
</g>
<!-- Node23 -->
<g id="node23" class="node">
<title>Node23</title>
<g id="a_node23"><a xlink:title=" ">
<polygon fill="none" stroke="#bfbfbf" points="1158,-112.5 1158,-131.5 1209,-131.5 1209,-112.5 1158,-112.5"/>
<text text-anchor="middle" x="1183.5" y="-119.5" font-family="Helvetica,sans-Serif" font-size="10.00">numeric</text>
</a>
</g>
</g>
<!-- Node22&#45;&gt;Node23 -->
<g id="edge42" class="edge">
<title>Node22&#45;&gt;Node23</title>
<path fill="none" stroke="midnightblue" d="M1064,-168.44C1087.58,-159.48 1124.82,-145.31 1151.46,-135.18"/>
<polygon fill="midnightblue" stroke="midnightblue" points="1153,-138.34 1161.1,-131.52 1150.51,-131.8 1153,-138.34"/>
</g>
<!-- Node24&#45;&gt;Node8 -->
<g id="edge45" class="edge">
<title>Node24&#45;&gt;Node8</title>
<path fill="none" stroke="midnightblue" d="M830.88,-224.37C786.98,-205.05 680.63,-158.26 629.25,-135.65"/>
<polygon fill="midnightblue" stroke="midnightblue" points="630.59,-132.42 620.03,-131.59 627.77,-138.82 630.59,-132.42"/>
</g>
<!-- Node24&#45;&gt;Node10 -->
<g id="edge46" class="edge">
<title>Node24&#45;&gt;Node10</title>
<path fill="none" stroke="midnightblue" d="M811.06,-224.47C753.55,-212.05 643.31,-188.23 549.5,-168 494.92,-156.23 432.31,-142.75 389.96,-133.64"/>
<polygon fill="midnightblue" stroke="midnightblue" points="390.69,-130.22 380.18,-131.54 389.22,-137.06 390.69,-130.22"/>
</g>
<!-- Node24&#45;&gt;Node15 -->
<g id="edge47" class="edge">
<title>Node24&#45;&gt;Node15</title>
<path fill="none" stroke="midnightblue" d="M850,-224.08C849.61,-217.01 849.05,-206.86 848.55,-197.99"/>
<polygon fill="midnightblue" stroke="midnightblue" points="852.04,-197.54 847.99,-187.75 845.05,-197.93 852.04,-197.54"/>
</g>
<!-- Node24&#45;&gt;Node22 -->
<g id="edge48" class="edge">
<title>Node24&#45;&gt;Node22</title>
<path fill="none" stroke="midnightblue" d="M880.76,-224.44C913.46,-215.2 965.68,-200.44 1001.68,-190.26"/>
<polygon fill="midnightblue" stroke="midnightblue" points="1002.71,-193.61 1011.38,-187.52 1000.8,-186.87 1002.71,-193.61"/>
</g>
<!-- Node25&#45;&gt;Node8 -->
<g id="edge50" class="edge">
<title>Node25&#45;&gt;Node8</title>
<path fill="none" stroke="midnightblue" d="M393.35,-224.41C412.08,-215.38 442.39,-200.75 468.5,-188 505.1,-170.14 547.3,-149.31 573.94,-136.15"/>
<polygon fill="midnightblue" stroke="midnightblue" points="575.6,-139.23 583.01,-131.66 572.49,-132.96 575.6,-139.23"/>
</g>
<!-- Node25&#45;&gt;Node10 -->
<g id="edge51" class="edge">
<title>Node25&#45;&gt;Node10</title>
<path fill="none" stroke="midnightblue" d="M360.84,-224.4C349.09,-216.58 333.47,-203.86 326.5,-188 319.84,-172.84 325.04,-154.26 330.9,-140.86"/>
<polygon fill="midnightblue" stroke="midnightblue" points="334.1,-142.28 335.32,-131.75 327.8,-139.22 334.1,-142.28"/>
</g>
<!-- Node25&#45;&gt;Node15 -->
<g id="edge52" class="edge">
<title>Node25&#45;&gt;Node15</title>
<path fill="none" stroke="midnightblue" d="M449.51,-224.53C550.94,-212.93 729.52,-192.5 808.29,-183.49"/>
<polygon fill="midnightblue" stroke="midnightblue" points="808.74,-186.96 818.28,-182.34 807.94,-180 808.74,-186.96"/>
</g>
<!-- Node26&#45;&gt;Node8 -->
<g id="edge54" class="edge">
<title>Node26&#45;&gt;Node8</title>
<path fill="none" stroke="midnightblue" d="M990.33,-224.46C963.72,-208.55 907,-175.32 885.5,-168 817.51,-144.84 736.27,-133.51 677.95,-128.02"/>
<polygon fill="midnightblue" stroke="midnightblue" points="677.98,-124.51 667.71,-127.09 677.35,-131.48 677.98,-124.51"/>
</g>
<!-- Node26&#45;&gt;Node10 -->
<g id="edge55" class="edge">
<title>Node26&#45;&gt;Node10</title>
<path fill="none" stroke="midnightblue" d="M937.86,-224.49C876.12,-216.28 781.84,-202.94 700.5,-188 659.77,-180.52 650.16,-175.86 609.5,-168 540.46,-154.65 461,-141.64 406.44,-133.08"/>
<polygon fill="midnightblue" stroke="midnightblue" points="406.97,-129.62 396.55,-131.53 405.89,-136.53 406.97,-129.62"/>
</g>
<!-- Node26&#45;&gt;Node15 -->
<g id="edge56" class="edge">
<title>Node26&#45;&gt;Node15</title>
<path fill="none" stroke="midnightblue" d="M979.62,-224.44C953.21,-215.36 911.28,-200.94 881.76,-190.78"/>
<polygon fill="midnightblue" stroke="midnightblue" points="882.86,-187.46 872.26,-187.52 880.58,-194.08 882.86,-187.46"/>
</g>
<!-- Node26&#45;&gt;Node22 -->
<g id="edge57" class="edge">
<title>Node26&#45;&gt;Node22</title>
<path fill="none" stroke="midnightblue" d="M1010.61,-224.08C1015.78,-216.53 1023.35,-205.49 1029.69,-196.23"/>
<polygon fill="midnightblue" stroke="midnightblue" points="1032.74,-197.98 1035.5,-187.75 1026.96,-194.02 1032.74,-197.98"/>
</g>
<!-- Node27&#45;&gt;Node8 -->
<g id="edge59" class="edge">
<title>Node27&#45;&gt;Node8</title>
<path fill="none" stroke="midnightblue" d="M1127.2,-224.48C1079.77,-217.5 1015.87,-205.83 961.5,-188 941.85,-181.56 939.3,-173.96 919.5,-168 839.18,-143.83 743.48,-132.54 677.99,-127.33"/>
<polygon fill="midnightblue" stroke="midnightblue" points="677.99,-123.81 667.75,-126.54 677.45,-130.79 677.99,-123.81"/>
</g>
<!-- Node27&#45;&gt;Node10 -->
<g id="edge60" class="edge">
<title>Node27&#45;&gt;Node10</title>
<path fill="none" stroke="midnightblue" d="M1117.86,-224.47C1039.61,-215.83 916.16,-201.82 809.5,-188 747.17,-179.93 731.75,-176.7 669.5,-168 581.52,-155.7 480.26,-141.9 413.58,-132.87"/>
<polygon fill="midnightblue" stroke="midnightblue" points="413.97,-129.39 403.59,-131.52 413.03,-136.33 413.97,-129.39"/>
</g>
<!-- Node27&#45;&gt;Node15 -->
<g id="edge61" class="edge">
<title>Node27&#45;&gt;Node15</title>
<path fill="none" stroke="midnightblue" d="M1141.2,-224.44C1070.34,-213.48 949.25,-194.74 887,-185.11"/>
<polygon fill="midnightblue" stroke="midnightblue" points="887.23,-181.61 876.81,-183.54 886.16,-188.52 887.23,-181.61"/>
</g>
<!-- Node27&#45;&gt;Node22 -->
<g id="edge62" class="edge">
<title>Node27&#45;&gt;Node22</title>
<path fill="none" stroke="midnightblue" d="M1171.94,-224.44C1145.98,-215.4 1104.83,-201.06 1075.7,-190.92"/>
<polygon fill="midnightblue" stroke="midnightblue" points="1076.54,-187.5 1065.95,-187.52 1074.24,-194.11 1076.54,-187.5"/>
</g>
<!-- Node28&#45;&gt;Node13 -->
<g id="edge64" class="edge">
<title>Node28&#45;&gt;Node13</title>
<path fill="none" stroke="midnightblue" d="M66.72,-168.37C100.3,-149.33 180.92,-103.62 221.43,-80.65"/>
<polygon fill="midnightblue" stroke="midnightblue" points="223.38,-83.57 230.35,-75.59 219.92,-77.48 223.38,-83.57"/>
</g>
</g>
</svg>
