<?xml version="1.0" encoding="UTF-8" standalone="no"?>
<!DOCTYPE svg PUBLIC "-//W3C//DTD SVG 1.1//EN"
 "http://www.w3.org/Graphics/SVG/1.1/DTD/svg11.dtd">
<!-- Generated by graphviz version 3.0.0 (20221109.1736)
 -->
<!-- Title: io/csvwriter.hpp Pages: 1 -->
<svg width="841pt" height="308pt"
 viewBox="0.00 0.00 841.00 308.00" xmlns="http://www.w3.org/2000/svg" xmlns:xlink="http://www.w3.org/1999/xlink">
<g id="graph0" class="graph" transform="scale(1 1) rotate(0) translate(4 304)">
<title>io/csvwriter.hpp</title>
<!-- Node1 -->
<g id="node1" class="node">
<title>Node1</title>
<g id="a_node1"><a xlink:title="IO::write_csv source file.">
<polygon fill="#bfbfbf" stroke="black" points="167.5,-280.5 167.5,-299.5 252.5,-299.5 252.5,-280.5 167.5,-280.5"/>
<text text-anchor="middle" x="210" y="-287.5" font-family="Helvetica,sans-Serif" font-size="10.00">io/csvwriter.hpp</text>
</a>
</g>
</g>
<!-- Node2 -->
<g id="node2" class="node">
<title>Node2</title>
<g id="a_node2"><a xlink:title=" ">
<polygon fill="none" stroke="#bfbfbf" points="0,-224.5 0,-243.5 50,-243.5 50,-224.5 0,-224.5"/>
<text text-anchor="middle" x="25" y="-231.5" font-family="Helvetica,sans-Serif" font-size="10.00">fstream</text>
</a>
</g>
</g>
<!-- Node1&#45;&gt;Node2 -->
<g id="edge1" class="edge">
<title>Node1&#45;&gt;Node2</title>
<path fill="none" stroke="midnightblue" d="M180.69,-280.44C147.86,-270.86 94.7,-255.34 59.79,-245.15"/>
<polygon fill="midnightblue" stroke="midnightblue" points="60.6,-241.75 50.02,-242.3 58.64,-248.47 60.6,-241.75"/>
</g>
<!-- Node3 -->
<g id="node3" class="node">
<title>Node3</title>
<g id="a_node3"><a xlink:title=" ">
<polygon fill="none" stroke="#bfbfbf" points="195.5,-0.5 195.5,-19.5 236.5,-19.5 236.5,-0.5 195.5,-0.5"/>
<text text-anchor="middle" x="216" y="-7.5" font-family="Helvetica,sans-Serif" font-size="10.00">string</text>
</a>
</g>
</g>
<!-- Node1&#45;&gt;Node3 -->
<g id="edge2" class="edge">
<title>Node1&#45;&gt;Node3</title>
<path fill="none" stroke="midnightblue" d="M167.42,-281.57C143.66,-275.33 115.26,-264.07 97,-244 76.75,-221.74 78,-209.1 78,-179 78,-179 78,-179 78,-121 78,-66.35 145,-34.45 185.64,-20.13"/>
<polygon fill="midnightblue" stroke="midnightblue" points="186.98,-23.37 195.34,-16.87 184.75,-16.74 186.98,-23.37"/>
</g>
<!-- Node4 -->
<g id="node4" class="node">
<title>Node4</title>
<g id="a_node4"><a xlink:title=" ">
<polygon fill="none" stroke="#bfbfbf" points="619,-0.5 619,-19.5 663,-19.5 663,-0.5 619,-0.5"/>
<text text-anchor="middle" x="641" y="-7.5" font-family="Helvetica,sans-Serif" font-size="10.00">vector</text>
</a>
</g>
</g>
<!-- Node1&#45;&gt;Node4 -->
<g id="edge3" class="edge">
<title>Node1&#45;&gt;Node4</title>
<path fill="none" stroke="midnightblue" d="M252.82,-285.98C393.57,-275.5 833,-238.04 833,-179 833,-179 833,-179 833,-121 833,-48.25 727.93,-22.94 673.24,-14.69"/>
<polygon fill="midnightblue" stroke="midnightblue" points="673.41,-11.18 663.02,-13.26 672.44,-18.11 673.41,-11.18"/>
</g>
<!-- Node5 -->
<g id="node5" class="node">
<title>Node5</title>
<g id="a_node5"><a xlink:href="state_8hpp.html" target="_top" xlink:title="ALGEBRA::State source file.">
<polygon fill="none" stroke="black" points="196,-112.5 196,-131.5 294,-131.5 294,-112.5 196,-112.5"/>
<text text-anchor="middle" x="245" y="-119.5" font-family="Helvetica,sans-Serif" font-size="10.00">../algebra/state.hpp</text>
</a>
</g>
</g>
<!-- Node1&#45;&gt;Node5 -->
<g id="edge4" class="edge">
<title>Node1&#45;&gt;Node5</title>
<path fill="none" stroke="midnightblue" d="M215.88,-280.49C221.58,-271.76 229.94,-257.57 234,-244 244.43,-209.09 245.79,-166.2 245.58,-142"/>
<polygon fill="midnightblue" stroke="midnightblue" points="249.07,-141.66 245.38,-131.73 242.07,-141.8 249.07,-141.66"/>
</g>
<!-- Node6 -->
<g id="node6" class="node">
<title>Node6</title>
<g id="a_node6"><a xlink:href="startswith_8hpp.html" target="_top" xlink:title="HELPERS::startswith source file.">
<polygon fill="none" stroke="black" points="106.5,-224.5 106.5,-243.5 225.5,-243.5 225.5,-224.5 106.5,-224.5"/>
<text text-anchor="middle" x="166" y="-231.5" font-family="Helvetica,sans-Serif" font-size="10.00">../helpers/startswith.hpp</text>
</a>
</g>
</g>
<!-- Node1&#45;&gt;Node6 -->
<g id="edge5" class="edge">
<title>Node1&#45;&gt;Node6</title>
<path fill="none" stroke="midnightblue" d="M202.73,-280.08C196.46,-272.38 187.21,-261.03 179.57,-251.65"/>
<polygon fill="midnightblue" stroke="midnightblue" points="182.16,-249.29 173.13,-243.75 176.73,-253.71 182.16,-249.29"/>
</g>
<!-- Node7 -->
<g id="node7" class="node">
<title>Node7</title>
<g id="a_node7"><a xlink:href="model_8hpp.html" target="_top" xlink:title="MODEL::Model source file.">
<polygon fill="none" stroke="black" points="420,-224.5 420,-243.5 518,-243.5 518,-224.5 420,-224.5"/>
<text text-anchor="middle" x="469" y="-231.5" font-family="Helvetica,sans-Serif" font-size="10.00">../model/model.hpp</text>
</a>
</g>
</g>
<!-- Node1&#45;&gt;Node7 -->
<g id="edge7" class="edge">
<title>Node1&#45;&gt;Node7</title>
<path fill="none" stroke="midnightblue" d="M251.04,-280.44C296.32,-271 369.23,-255.8 418.11,-245.61"/>
<polygon fill="midnightblue" stroke="midnightblue" points="419.08,-248.98 428.15,-243.52 417.65,-242.13 419.08,-248.98"/>
</g>
<!-- Node6&#45;&gt;Node3 -->
<g id="edge6" class="edge">
<title>Node6&#45;&gt;Node3</title>
<path fill="none" stroke="midnightblue" d="M167.16,-224.43C169.93,-204.54 177.41,-153.77 187,-112 193.72,-82.75 203.78,-49.38 210.11,-29.26"/>
<polygon fill="midnightblue" stroke="midnightblue" points="213.5,-30.16 213.2,-19.57 206.83,-28.03 213.5,-30.16"/>
</g>
<!-- Node7&#45;&gt;Node4 -->
<g id="edge10" class="edge">
<title>Node7&#45;&gt;Node4</title>
<path fill="none" stroke="midnightblue" d="M518.28,-225.76C591.86,-211.87 727.04,-173.67 776,-76 797.25,-33.61 719.78,-18.63 673.41,-13.52"/>
<polygon fill="midnightblue" stroke="midnightblue" points="673.5,-10.01 663.2,-12.5 672.8,-16.98 673.5,-10.01"/>
</g>
<!-- Node8 -->
<g id="node8" class="node">
<title>Node8</title>
<g id="a_node8"><a xlink:title=" ">
<polygon fill="none" stroke="#bfbfbf" points="281,-168.5 281,-187.5 337,-187.5 337,-168.5 281,-168.5"/>
<text text-anchor="middle" x="309" y="-175.5" font-family="Helvetica,sans-Serif" font-size="10.00">algorithm</text>
</a>
</g>
</g>
<!-- Node7&#45;&gt;Node8 -->
<g id="edge8" class="edge">
<title>Node7&#45;&gt;Node8</title>
<path fill="none" stroke="midnightblue" d="M443.65,-224.44C416.73,-215.36 374,-200.94 343.91,-190.78"/>
<polygon fill="midnightblue" stroke="midnightblue" points="344.83,-187.4 334.23,-187.52 342.59,-194.03 344.83,-187.4"/>
</g>
<!-- Node9 -->
<g id="node9" class="node">
<title>Node9</title>
<g id="a_node9"><a xlink:title=" ">
<polygon fill="none" stroke="#bfbfbf" points="354.5,-168.5 354.5,-187.5 383.5,-187.5 383.5,-168.5 354.5,-168.5"/>
<text text-anchor="middle" x="369" y="-175.5" font-family="Helvetica,sans-Serif" font-size="10.00">list</text>
</a>
</g>
</g>
<!-- Node7&#45;&gt;Node9 -->
<g id="edge9" class="edge">
<title>Node7&#45;&gt;Node9</title>
<path fill="none" stroke="midnightblue" d="M452.93,-224.32C436.67,-215.54 411.33,-201.86 392.74,-191.82"/>
<polygon fill="midnightblue" stroke="midnightblue" points="394.19,-188.62 383.72,-186.95 390.86,-194.78 394.19,-188.62"/>
</g>
<!-- Node10 -->
<g id="node10" class="node">
<title>Node10</title>
<g id="a_node10"><a xlink:href="sparsesystem_8hpp.html" target="_top" xlink:title="ALGEBRA::SparseSystem source file.">
<polygon fill="none" stroke="black" points="554.5,-112.5 554.5,-131.5 691.5,-131.5 691.5,-112.5 554.5,-112.5"/>
<text text-anchor="middle" x="623" y="-119.5" font-family="Helvetica,sans-Serif" font-size="10.00">../algebra/sparsesystem.hpp</text>
</a>
</g>
</g>
<!-- Node7&#45;&gt;Node10 -->
<g id="edge11" class="edge">
<title>Node7&#45;&gt;Node10</title>
<path fill="none" stroke="midnightblue" d="M476.61,-224.44C488.96,-215.68 511.92,-201.46 531,-188 554.36,-171.51 580.13,-150.93 598.71,-137.4"/>
<polygon fill="midnightblue" stroke="midnightblue" points="600.82,-140.19 606.95,-131.55 596.77,-134.48 600.82,-140.19"/>
</g>
<!-- Node14 -->
<g id="node14" class="node">
<title>Node14</title>
<g id="a_node14"><a xlink:href="block_8hpp.html" target="_top" xlink:title="MODEL::Block source file.">
<polygon fill="none" stroke="black" points="440,-168.5 440,-187.5 498,-187.5 498,-168.5 440,-168.5"/>
<text text-anchor="middle" x="469" y="-175.5" font-family="Helvetica,sans-Serif" font-size="10.00">block.hpp</text>
</a>
</g>
</g>
<!-- Node7&#45;&gt;Node14 -->
<g id="edge16" class="edge">
<title>Node7&#45;&gt;Node14</title>
<path fill="none" stroke="midnightblue" d="M469,-224.08C469,-217.01 469,-206.86 469,-197.99"/>
<polygon fill="midnightblue" stroke="midnightblue" points="472.5,-197.75 469,-187.75 465.5,-197.75 472.5,-197.75"/>
</g>
<!-- Node16 -->
<g id="node16" class="node">
<title>Node16</title>
<g id="a_node16"><a xlink:href="dofhandler_8hpp.html" target="_top" xlink:title="MODEL::DOFHandler source file.">
<polygon fill="none" stroke="black" points="356,-56.5 356,-75.5 436,-75.5 436,-56.5 356,-56.5"/>
<text text-anchor="middle" x="396" y="-63.5" font-family="Helvetica,sans-Serif" font-size="10.00">dofhandler.hpp</text>
</a>
</g>
</g>
<!-- Node7&#45;&gt;Node16 -->
<g id="edge27" class="edge">
<title>Node7&#45;&gt;Node16</title>
<path fill="none" stroke="midnightblue" d="M479.71,-224.3C488.94,-216.07 501.59,-202.79 507,-188 510.05,-179.65 509.66,-176.48 507,-168 497.92,-139.06 489.97,-132.91 468,-112 454.68,-99.33 437.26,-88.33 422.89,-80.37"/>
<polygon fill="midnightblue" stroke="midnightblue" points="424.43,-77.23 413.96,-75.6 421.13,-83.4 424.43,-77.23"/>
</g>
<!-- Node17 -->
<g id="node17" class="node">
<title>Node17</title>
<g id="a_node17"><a xlink:href="node_8hpp.html" target="_top" xlink:title="MODEL::Node source file.">
<polygon fill="none" stroke="black" points="312,-112.5 312,-131.5 368,-131.5 368,-112.5 312,-112.5"/>
<text text-anchor="middle" x="340" y="-119.5" font-family="Helvetica,sans-Serif" font-size="10.00">node.hpp</text>
</a>
</g>
</g>
<!-- Node7&#45;&gt;Node17 -->
<g id="edge28" class="edge">
<title>Node7&#45;&gt;Node17</title>
<path fill="none" stroke="midnightblue" d="M458.88,-224.37C437.02,-205.73 385.19,-161.53 357.75,-138.13"/>
<polygon fill="midnightblue" stroke="midnightblue" points="359.96,-135.42 350.08,-131.59 355.41,-140.74 359.96,-135.42"/>
</g>
<!-- Node10&#45;&gt;Node7 -->
<g id="edge15" class="edge">
<title>Node10&#45;&gt;Node7</title>
<path fill="none" stroke="midnightblue" d="M618.39,-131.76C606.01,-144.58 575.92,-169 549,-188 533.2,-199.15 514.74,-210.81 499.35,-219.47"/>
<polygon fill="midnightblue" stroke="midnightblue" points="497.33,-216.59 490.22,-224.44 500.68,-222.73 497.33,-216.59"/>
</g>
<!-- Node11 -->
<g id="node11" class="node">
<title>Node11</title>
<g id="a_node11"><a xlink:title=" ">
<polygon fill="none" stroke="#bfbfbf" points="587,-56.5 587,-75.5 661,-75.5 661,-56.5 587,-56.5"/>
<text text-anchor="middle" x="624" y="-63.5" font-family="Helvetica,sans-Serif" font-size="10.00">Eigen/Sparse</text>
</a>
</g>
</g>
<!-- Node10&#45;&gt;Node11 -->
<g id="edge12" class="edge">
<title>Node10&#45;&gt;Node11</title>
<path fill="none" stroke="midnightblue" d="M623.17,-112.08C623.3,-105.01 623.48,-94.86 623.65,-85.99"/>
<polygon fill="midnightblue" stroke="midnightblue" points="627.15,-85.81 623.84,-75.75 620.15,-85.68 627.15,-85.81"/>
</g>
<!-- Node12 -->
<g id="node12" class="node">
<title>Node12</title>
<g id="a_node12"><a xlink:title=" ">
<polygon fill="none" stroke="#bfbfbf" points="679,-56.5 679,-75.5 767,-75.5 767,-56.5 679,-56.5"/>
<text text-anchor="middle" x="723" y="-63.5" font-family="Helvetica,sans-Serif" font-size="10.00">Eigen/SparseLU</text>
</a>
</g>
</g>
<!-- Node10&#45;&gt;Node12 -->
<g id="edge13" class="edge">
<title>Node10&#45;&gt;Node12</title>
<path fill="none" stroke="midnightblue" d="M639.07,-112.32C654.96,-103.74 679.51,-90.49 697.96,-80.52"/>
<polygon fill="midnightblue" stroke="midnightblue" points="699.84,-83.49 706.97,-75.65 696.51,-77.33 699.84,-83.49"/>
</g>
<!-- Node13 -->
<g id="node13" class="node">
<title>Node13</title>
<g id="a_node13"><a xlink:title=" ">
<polygon fill="none" stroke="#bfbfbf" points="515,-56.5 515,-75.5 569,-75.5 569,-56.5 515,-56.5"/>
<text text-anchor="middle" x="542" y="-63.5" font-family="Helvetica,sans-Serif" font-size="10.00">iostream</text>
</a>
</g>
</g>
<!-- Node10&#45;&gt;Node13 -->
<g id="edge14" class="edge">
<title>Node10&#45;&gt;Node13</title>
<path fill="none" stroke="midnightblue" d="M609.99,-112.32C597.47,-103.98 578.32,-91.21 563.53,-81.35"/>
<polygon fill="midnightblue" stroke="midnightblue" points="565.24,-78.29 554.98,-75.65 561.36,-84.11 565.24,-78.29"/>
</g>
<!-- Node14&#45;&gt;Node4 -->
<g id="edge18" class="edge">
<title>Node14&#45;&gt;Node4</title>
<path fill="none" stroke="midnightblue" d="M469.08,-168.35C469.75,-146.44 474.56,-88.24 506,-56 533.23,-28.08 578.23,-17.48 608.71,-13.46"/>
<polygon fill="midnightblue" stroke="midnightblue" points="609.3,-16.91 618.84,-12.29 608.5,-9.96 609.3,-16.91"/>
</g>
<!-- Node14&#45;&gt;Node5 -->
<g id="edge20" class="edge">
<title>Node14&#45;&gt;Node5</title>
<path fill="none" stroke="midnightblue" d="M439.72,-169.94C401.76,-160.79 335.17,-144.74 290.57,-133.99"/>
<polygon fill="midnightblue" stroke="midnightblue" points="291.12,-130.52 280.57,-131.58 289.48,-137.32 291.12,-130.52"/>
</g>
<!-- Node14&#45;&gt;Node10 -->
<g id="edge19" class="edge">
<title>Node14&#45;&gt;Node10</title>
<path fill="none" stroke="midnightblue" d="M493.4,-168.44C519.2,-159.4 560.08,-145.06 589.02,-134.92"/>
<polygon fill="midnightblue" stroke="midnightblue" points="590.43,-138.13 598.71,-131.52 588.12,-131.52 590.43,-138.13"/>
</g>
<!-- Node15 -->
<g id="node15" class="node">
<title>Node15</title>
<g id="a_node15"><a xlink:title=" ">
<polygon fill="none" stroke="#bfbfbf" points="424.5,-112.5 424.5,-131.5 459.5,-131.5 459.5,-112.5 424.5,-112.5"/>
<text text-anchor="middle" x="442" y="-119.5" font-family="Helvetica,sans-Serif" font-size="10.00">map</text>
</a>
</g>
</g>
<!-- Node14&#45;&gt;Node15 -->
<g id="edge17" class="edge">
<title>Node14&#45;&gt;Node15</title>
<path fill="none" stroke="midnightblue" d="M464.54,-168.08C460.85,-160.69 455.48,-149.95 450.91,-140.81"/>
<polygon fill="midnightblue" stroke="midnightblue" points="453.98,-139.13 446.38,-131.75 447.72,-142.26 453.98,-139.13"/>
</g>
<!-- Node14&#45;&gt;Node16 -->
<g id="edge21" class="edge">
<title>Node14&#45;&gt;Node16</title>
<path fill="none" stroke="midnightblue" d="M454.54,-168.44C442.3,-160.47 425.17,-147.51 415,-132 405.84,-118.02 400.99,-99.52 398.49,-85.83"/>
<polygon fill="midnightblue" stroke="midnightblue" points="401.91,-85.01 396.9,-75.67 394.99,-86.09 401.91,-85.01"/>
</g>
<!-- Node14&#45;&gt;Node17 -->
<g id="edge24" class="edge">
<title>Node14&#45;&gt;Node17</title>
<path fill="none" stroke="midnightblue" d="M448.56,-168.44C427.33,-159.56 393.9,-145.56 369.75,-135.45"/>
<polygon fill="midnightblue" stroke="midnightblue" points="370.92,-132.15 360.34,-131.52 368.22,-138.61 370.92,-132.15"/>
</g>
<!-- Node16&#45;&gt;Node3 -->
<g id="edge22" class="edge">
<title>Node16&#45;&gt;Node3</title>
<path fill="none" stroke="midnightblue" d="M367.48,-56.44C334.42,-46.53 280.16,-30.25 246.34,-20.1"/>
<polygon fill="midnightblue" stroke="midnightblue" points="247.13,-16.69 236.55,-17.16 245.12,-23.39 247.13,-16.69"/>
</g>
<!-- Node16&#45;&gt;Node4 -->
<g id="edge23" class="edge">
<title>Node16&#45;&gt;Node4</title>
<path fill="none" stroke="midnightblue" d="M434.82,-56.44C482.91,-45.84 563.96,-27.98 608.78,-18.1"/>
<polygon fill="midnightblue" stroke="midnightblue" points="609.81,-21.46 618.82,-15.89 608.31,-14.62 609.81,-21.46"/>
</g>
<!-- Node17&#45;&gt;Node3 -->
<g id="edge25" class="edge">
<title>Node17&#45;&gt;Node3</title>
<path fill="none" stroke="midnightblue" d="M330.27,-112.37C309.35,-93.81 259.87,-49.91 233.4,-26.44"/>
<polygon fill="midnightblue" stroke="midnightblue" points="235.49,-23.61 225.68,-19.59 230.84,-28.85 235.49,-23.61"/>
</g>
<!-- Node17&#45;&gt;Node16 -->
<g id="edge26" class="edge">
<title>Node17&#45;&gt;Node16</title>
<path fill="none" stroke="midnightblue" d="M349,-112.32C357.19,-104.42 369.51,-92.55 379.47,-82.94"/>
<polygon fill="midnightblue" stroke="midnightblue" points="382.07,-85.29 386.84,-75.83 377.21,-80.26 382.07,-85.29"/>
</g>
</g>
</svg>
