<?xml version="1.0" encoding="UTF-8" standalone="no"?>
<!DOCTYPE svg PUBLIC "-//W3C//DTD SVG 1.1//EN"
 "http://www.w3.org/Graphics/SVG/1.1/DTD/svg11.dtd">
<!-- Generated by graphviz version 3.0.0 (20220413.0242)
 -->
<!-- Title: io/csvwriter.hpp Pages: 1 -->
<svg width="1010pt" height="364pt"
 viewBox="0.00 0.00 1010.00 364.00" xmlns="http://www.w3.org/2000/svg" xmlns:xlink="http://www.w3.org/1999/xlink">
<g id="graph0" class="graph" transform="scale(1 1) rotate(0) translate(4 360)">
<title>io/csvwriter.hpp</title>
<!-- Node1 -->
<g id="node1" class="node">
<title>Node1</title>
<g id="a_node1"><a xlink:title="IO::write_csv source file.">
<polygon fill="#bfbfbf" stroke="black" points="214.5,-336.5 214.5,-355.5 299.5,-355.5 299.5,-336.5 214.5,-336.5"/>
<text text-anchor="middle" x="257" y="-343.5" font-family="Helvetica,sans-Serif" font-size="10.00">io/csvwriter.hpp</text>
</a>
</g>
</g>
<!-- Node2 -->
<g id="node2" class="node">
<title>Node2</title>
<g id="a_node2"><a xlink:title=" ">
<polygon fill="none" stroke="#bfbfbf" points="268.5,-0.5 268.5,-19.5 309.5,-19.5 309.5,-0.5 268.5,-0.5"/>
<text text-anchor="middle" x="289" y="-7.5" font-family="Helvetica,sans-Serif" font-size="10.00">string</text>
</a>
</g>
</g>
<!-- Node1&#45;&gt;Node2 -->
<g id="edge1" class="edge">
<title>Node1&#45;&gt;Node2</title>
<path fill="none" stroke="midnightblue" d="M214.27,-345.21C141.19,-343.1 0,-327.09 0,-235 0,-235 0,-235 0,-121 0,-66.25 183.46,-28.91 258.04,-16"/>
<polygon fill="midnightblue" stroke="midnightblue" points="258.94,-19.4 268.22,-14.27 257.77,-12.5 258.94,-19.4"/>
</g>
<!-- Node3 -->
<g id="node3" class="node">
<title>Node3</title>
<g id="a_node3"><a xlink:title=" ">
<polygon fill="none" stroke="#bfbfbf" points="734,-0.5 734,-19.5 778,-19.5 778,-0.5 734,-0.5"/>
<text text-anchor="middle" x="756" y="-7.5" font-family="Helvetica,sans-Serif" font-size="10.00">vector</text>
</a>
</g>
</g>
<!-- Node1&#45;&gt;Node3 -->
<g id="edge2" class="edge">
<title>Node1&#45;&gt;Node3</title>
<path fill="none" stroke="midnightblue" d="M299.73,-343.23C458.03,-336.12 1002,-306.5 1002,-235 1002,-235 1002,-235 1002,-121 1002,-28.6 855.58,-13.3 788.66,-11.13"/>
<polygon fill="midnightblue" stroke="midnightblue" points="788.35,-7.62 778.26,-10.88 788.18,-14.62 788.35,-7.62"/>
</g>
<!-- Node4 -->
<g id="node4" class="node">
<title>Node4</title>
<g id="a_node4"><a xlink:title=" ">
<polygon fill="none" stroke="#bfbfbf" points="186,-280.5 186,-299.5 236,-299.5 236,-280.5 186,-280.5"/>
<text text-anchor="middle" x="211" y="-287.5" font-family="Helvetica,sans-Serif" font-size="10.00">fstream</text>
</a>
</g>
</g>
<!-- Node1&#45;&gt;Node4 -->
<g id="edge3" class="edge">
<title>Node1&#45;&gt;Node4</title>
<path fill="none" stroke="midnightblue" d="M249.4,-336.08C242.77,-328.3 232.98,-316.8 224.94,-307.37"/>
<polygon fill="midnightblue" stroke="midnightblue" points="227.6,-305.09 218.45,-299.75 222.27,-309.63 227.6,-305.09"/>
</g>
<!-- Node5 -->
<g id="node5" class="node">
<title>Node5</title>
<g id="a_node5"><a xlink:href="state_8hpp.html" target="_top" xlink:title="ALGEBRA::State source file.">
<polygon fill="none" stroke="black" points="254,-280.5 254,-299.5 352,-299.5 352,-280.5 254,-280.5"/>
<text text-anchor="middle" x="303" y="-287.5" font-family="Helvetica,sans-Serif" font-size="10.00">../algebra/state.hpp</text>
</a>
</g>
</g>
<!-- Node1&#45;&gt;Node5 -->
<g id="edge4" class="edge">
<title>Node1&#45;&gt;Node5</title>
<path fill="none" stroke="midnightblue" d="M264.6,-336.08C271.23,-328.3 281.02,-316.8 289.06,-307.37"/>
<polygon fill="midnightblue" stroke="midnightblue" points="291.73,-309.63 295.55,-299.75 286.4,-305.09 291.73,-309.63"/>
</g>
<!-- Node6 -->
<g id="node6" class="node">
<title>Node6</title>
<g id="a_node6"><a xlink:href="model_8hpp.html" target="_top" xlink:title="MODEL::Model source file.">
<polygon fill="none" stroke="black" points="441,-280.5 441,-299.5 539,-299.5 539,-280.5 441,-280.5"/>
<text text-anchor="middle" x="490" y="-287.5" font-family="Helvetica,sans-Serif" font-size="10.00">../model/model.hpp</text>
</a>
</g>
</g>
<!-- Node1&#45;&gt;Node6 -->
<g id="edge5" class="edge">
<title>Node1&#45;&gt;Node6</title>
<path fill="none" stroke="midnightblue" d="M293.92,-336.44C334.4,-327.06 399.42,-311.99 443.38,-301.8"/>
<polygon fill="midnightblue" stroke="midnightblue" points="444.3,-305.18 453.25,-299.52 442.72,-298.36 444.3,-305.18"/>
</g>
<!-- Node24 -->
<g id="node24" class="node">
<title>Node24</title>
<g id="a_node24"><a xlink:href="startswith_8hpp.html" target="_top" xlink:title="HELPERS::startswith source file.">
<polygon fill="none" stroke="black" points="28.5,-168.5 28.5,-187.5 147.5,-187.5 147.5,-168.5 28.5,-168.5"/>
<text text-anchor="middle" x="88" y="-175.5" font-family="Helvetica,sans-Serif" font-size="10.00">../helpers/startswith.hpp</text>
</a>
</g>
</g>
<!-- Node1&#45;&gt;Node24 -->
<g id="edge47" class="edge">
<title>Node1&#45;&gt;Node24</title>
<path fill="none" stroke="midnightblue" d="M236.42,-336.41C204.68,-322.09 144.1,-290.25 112,-244 102.15,-229.81 95.8,-211.08 92.12,-197.38"/>
<polygon fill="midnightblue" stroke="midnightblue" points="95.51,-196.52 89.73,-187.64 88.72,-198.19 95.51,-196.52"/>
</g>
<!-- Node7 -->
<g id="node7" class="node">
<title>Node7</title>
<g id="a_node7"><a xlink:title=" ">
<polygon fill="none" stroke="#bfbfbf" points="666.5,-112.5 666.5,-131.5 701.5,-131.5 701.5,-112.5 666.5,-112.5"/>
<text text-anchor="middle" x="684" y="-119.5" font-family="Helvetica,sans-Serif" font-size="10.00">map</text>
</a>
</g>
</g>
<!-- Node6&#45;&gt;Node7 -->
<g id="edge6" class="edge">
<title>Node6&#45;&gt;Node7</title>
<path fill="none" stroke="midnightblue" d="M539.3,-282.67C585.57,-275.66 650.12,-262.83 667,-244 692.28,-215.79 690.56,-168.06 687.21,-141.77"/>
<polygon fill="midnightblue" stroke="midnightblue" points="690.64,-141.01 685.7,-131.64 683.72,-142.04 690.64,-141.01"/>
</g>
<!-- Node8 -->
<g id="node8" class="node">
<title>Node8</title>
<g id="a_node8"><a xlink:title=" ">
<polygon fill="none" stroke="#bfbfbf" points="944.5,-224.5 944.5,-243.5 973.5,-243.5 973.5,-224.5 944.5,-224.5"/>
<text text-anchor="middle" x="959" y="-231.5" font-family="Helvetica,sans-Serif" font-size="10.00">list</text>
</a>
</g>
</g>
<!-- Node6&#45;&gt;Node8 -->
<g id="edge7" class="edge">
<title>Node6&#45;&gt;Node8</title>
<path fill="none" stroke="midnightblue" d="M539.31,-287.16C621.2,-283.38 790.06,-272.57 930,-244 931.48,-243.7 933,-243.35 934.53,-242.97"/>
<polygon fill="midnightblue" stroke="midnightblue" points="935.74,-246.26 944.39,-240.15 933.82,-239.53 935.74,-246.26"/>
</g>
<!-- Node9 -->
<g id="node9" class="node">
<title>Node9</title>
<g id="a_node9"><a xlink:href="densesystem_8hpp.html" target="_top" xlink:title="ALGEBRA::DenseSystem source file.">
<polygon fill="none" stroke="black" points="196,-112.5 196,-131.5 330,-131.5 330,-112.5 196,-112.5"/>
<text text-anchor="middle" x="263" y="-119.5" font-family="Helvetica,sans-Serif" font-size="10.00">../algebra/densesystem.hpp</text>
</a>
</g>
</g>
<!-- Node6&#45;&gt;Node9 -->
<g id="edge8" class="edge">
<title>Node6&#45;&gt;Node9</title>
<path fill="none" stroke="midnightblue" d="M440.79,-284.3C347.81,-275.17 154.66,-255.01 145,-244 139.14,-237.32 141.28,-232.07 145,-224 163.74,-183.29 207.89,-152.87 236.55,-136.53"/>
<polygon fill="midnightblue" stroke="midnightblue" points="238.55,-139.43 245.62,-131.54 235.17,-133.3 238.55,-139.43"/>
</g>
<!-- Node11 -->
<g id="node11" class="node">
<title>Node11</title>
<g id="a_node11"><a xlink:href="sparsesystem_8hpp.html" target="_top" xlink:title="ALGEBRA::SparseSystem source file.">
<polygon fill="none" stroke="black" points="350.5,-112.5 350.5,-131.5 487.5,-131.5 487.5,-112.5 350.5,-112.5"/>
<text text-anchor="middle" x="419" y="-119.5" font-family="Helvetica,sans-Serif" font-size="10.00">../algebra/sparsesystem.hpp</text>
</a>
</g>
</g>
<!-- Node6&#45;&gt;Node11 -->
<g id="edge10" class="edge">
<title>Node6&#45;&gt;Node11</title>
<path fill="none" stroke="midnightblue" d="M473.9,-280.4C461.11,-272.67 443.95,-260.06 435,-244 416.93,-211.56 416.1,-166.83 417.38,-141.84"/>
<polygon fill="midnightblue" stroke="midnightblue" points="420.89,-141.8 418.08,-131.58 413.9,-141.32 420.89,-141.8"/>
</g>
<!-- Node14 -->
<g id="node14" class="node">
<title>Node14</title>
<g id="a_node14"><a xlink:href="junction_8hpp.html" target="_top" xlink:title="MODEL::Junction source file.">
<polygon fill="none" stroke="black" points="154,-224.5 154,-243.5 222,-243.5 222,-224.5 154,-224.5"/>
<text text-anchor="middle" x="188" y="-231.5" font-family="Helvetica,sans-Serif" font-size="10.00">junction.hpp</text>
</a>
</g>
</g>
<!-- Node6&#45;&gt;Node14 -->
<g id="edge13" class="edge">
<title>Node6&#45;&gt;Node14</title>
<path fill="none" stroke="midnightblue" d="M440.74,-280.96C390.71,-272.67 310.74,-259.12 232.3,-244.2"/>
<polygon fill="midnightblue" stroke="midnightblue" points="232.73,-240.72 222.25,-242.28 231.41,-247.59 232.73,-240.72"/>
</g>
<!-- Node16 -->
<g id="node16" class="node">
<title>Node16</title>
<g id="a_node16"><a xlink:href="node_8hpp.html" target="_top" xlink:title="MODEL::Node source file.">
<polygon fill="none" stroke="black" points="592,-112.5 592,-131.5 648,-131.5 648,-112.5 592,-112.5"/>
<text text-anchor="middle" x="620" y="-119.5" font-family="Helvetica,sans-Serif" font-size="10.00">node.hpp</text>
</a>
</g>
</g>
<!-- Node6&#45;&gt;Node16 -->
<g id="edge46" class="edge">
<title>Node6&#45;&gt;Node16</title>
<path fill="none" stroke="midnightblue" d="M539.26,-281.65C580.84,-274.32 635.68,-261.62 649,-244 672.57,-212.83 648.35,-165.3 632.11,-140.09"/>
<polygon fill="midnightblue" stroke="midnightblue" points="634.88,-137.94 626.39,-131.6 629.08,-141.85 634.88,-137.94"/>
</g>
<!-- Node17 -->
<g id="node17" class="node">
<title>Node17</title>
<g id="a_node17"><a xlink:href="dofhandler_8hpp.html" target="_top" xlink:title="MODEL::DOFHandler source file.">
<polygon fill="none" stroke="black" points="635,-56.5 635,-75.5 715,-75.5 715,-56.5 635,-56.5"/>
<text text-anchor="middle" x="675" y="-63.5" font-family="Helvetica,sans-Serif" font-size="10.00">dofhandler.hpp</text>
</a>
</g>
</g>
<!-- Node6&#45;&gt;Node17 -->
<g id="edge45" class="edge">
<title>Node6&#45;&gt;Node17</title>
<path fill="none" stroke="midnightblue" d="M539.14,-282.87C636.28,-269.84 848.05,-236.53 901,-188 926.75,-164.4 943.37,-138.83 921,-112 896.61,-82.74 790.07,-72.45 725.46,-68.87"/>
<polygon fill="midnightblue" stroke="midnightblue" points="725.25,-65.36 715.08,-68.33 724.89,-72.35 725.25,-65.36"/>
</g>
<!-- Node18 -->
<g id="node18" class="node">
<title>Node18</title>
<g id="a_node18"><a xlink:href="bloodvessel_8hpp.html" target="_top" xlink:title="MODEL::BloodVessel source file.">
<polygon fill="none" stroke="black" points="554,-224.5 554,-243.5 640,-243.5 640,-224.5 554,-224.5"/>
<text text-anchor="middle" x="597" y="-231.5" font-family="Helvetica,sans-Serif" font-size="10.00">bloodvessel.hpp</text>
</a>
</g>
</g>
<!-- Node6&#45;&gt;Node18 -->
<g id="edge27" class="edge">
<title>Node6&#45;&gt;Node18</title>
<path fill="none" stroke="midnightblue" d="M507.19,-280.32C524.35,-271.66 550.95,-258.24 570.75,-248.25"/>
<polygon fill="midnightblue" stroke="midnightblue" points="572.5,-251.28 579.85,-243.65 569.35,-245.04 572.5,-251.28"/>
</g>
<!-- Node20 -->
<g id="node20" class="node">
<title>Node20</title>
<g id="a_node20"><a xlink:href="rcrblockwithdistalpressure_8hpp.html" target="_top" xlink:title="MODEL::RCRBlockWithDistalPressure source file.">
<polygon fill="none" stroke="black" points="240,-224.5 240,-243.5 388,-243.5 388,-224.5 240,-224.5"/>
<text text-anchor="middle" x="314" y="-231.5" font-family="Helvetica,sans-Serif" font-size="10.00">rcrblockwithdistalpressure.hpp</text>
</a>
</g>
</g>
<!-- Node6&#45;&gt;Node20 -->
<g id="edge32" class="edge">
<title>Node6&#45;&gt;Node20</title>
<path fill="none" stroke="midnightblue" d="M462.11,-280.44C432.25,-271.28 384.69,-256.69 351.54,-246.52"/>
<polygon fill="midnightblue" stroke="midnightblue" points="352.34,-243.1 341.76,-243.52 350.29,-249.8 352.34,-243.1"/>
</g>
<!-- Node21 -->
<g id="node21" class="node">
<title>Node21</title>
<g id="a_node21"><a xlink:href="flowreference_8hpp.html" target="_top" xlink:title="MODEL::FlowReference source file.">
<polygon fill="none" stroke="black" points="444,-224.5 444,-243.5 536,-243.5 536,-224.5 444,-224.5"/>
<text text-anchor="middle" x="490" y="-231.5" font-family="Helvetica,sans-Serif" font-size="10.00">flowreference.hpp</text>
</a>
</g>
</g>
<!-- Node6&#45;&gt;Node21 -->
<g id="edge36" class="edge">
<title>Node6&#45;&gt;Node21</title>
<path fill="none" stroke="midnightblue" d="M490,-280.08C490,-273.01 490,-262.86 490,-253.99"/>
<polygon fill="midnightblue" stroke="midnightblue" points="493.5,-253.75 490,-243.75 486.5,-253.75 493.5,-253.75"/>
</g>
<!-- Node10 -->
<g id="node10" class="node">
<title>Node10</title>
<g id="a_node10"><a xlink:title=" ">
<polygon fill="none" stroke="#bfbfbf" points="190.5,-56.5 190.5,-75.5 261.5,-75.5 261.5,-56.5 190.5,-56.5"/>
<text text-anchor="middle" x="226" y="-63.5" font-family="Helvetica,sans-Serif" font-size="10.00">Eigen/Dense</text>
</a>
</g>
</g>
<!-- Node9&#45;&gt;Node10 -->
<g id="edge9" class="edge">
<title>Node9&#45;&gt;Node10</title>
<path fill="none" stroke="midnightblue" d="M256.89,-112.08C251.72,-104.53 244.15,-93.49 237.81,-84.23"/>
<polygon fill="midnightblue" stroke="midnightblue" points="240.54,-82.02 232,-75.75 234.76,-85.98 240.54,-82.02"/>
</g>
<!-- Node12 -->
<g id="node12" class="node">
<title>Node12</title>
<g id="a_node12"><a xlink:title=" ">
<polygon fill="none" stroke="#bfbfbf" points="386,-56.5 386,-75.5 460,-75.5 460,-56.5 386,-56.5"/>
<text text-anchor="middle" x="423" y="-63.5" font-family="Helvetica,sans-Serif" font-size="10.00">Eigen/Sparse</text>
</a>
</g>
</g>
<!-- Node11&#45;&gt;Node12 -->
<g id="edge11" class="edge">
<title>Node11&#45;&gt;Node12</title>
<path fill="none" stroke="midnightblue" d="M419.66,-112.08C420.18,-105.01 420.94,-94.86 421.59,-85.99"/>
<polygon fill="midnightblue" stroke="midnightblue" points="425.1,-85.98 422.35,-75.75 418.12,-85.47 425.1,-85.98"/>
</g>
<!-- Node13 -->
<g id="node13" class="node">
<title>Node13</title>
<g id="a_node13"><a xlink:title=" ">
<polygon fill="none" stroke="#bfbfbf" points="280,-56.5 280,-75.5 368,-75.5 368,-56.5 280,-56.5"/>
<text text-anchor="middle" x="324" y="-63.5" font-family="Helvetica,sans-Serif" font-size="10.00">Eigen/SparseLU</text>
</a>
</g>
</g>
<!-- Node11&#45;&gt;Node13 -->
<g id="edge12" class="edge">
<title>Node11&#45;&gt;Node13</title>
<path fill="none" stroke="midnightblue" d="M403.74,-112.32C388.78,-103.82 365.75,-90.73 348.27,-80.8"/>
<polygon fill="midnightblue" stroke="midnightblue" points="349.65,-77.55 339.23,-75.65 346.19,-83.64 349.65,-77.55"/>
</g>
<!-- Node14&#45;&gt;Node9 -->
<g id="edge14" class="edge">
<title>Node14&#45;&gt;Node9</title>
<path fill="none" stroke="midnightblue" d="M193.89,-224.37C206.26,-206.22 235.18,-163.8 251.42,-139.99"/>
<polygon fill="midnightblue" stroke="midnightblue" points="254.4,-141.83 257.14,-131.59 248.62,-137.88 254.4,-141.83"/>
</g>
<!-- Node14&#45;&gt;Node11 -->
<g id="edge15" class="edge">
<title>Node14&#45;&gt;Node11</title>
<path fill="none" stroke="midnightblue" d="M206.13,-224.37C246.52,-205.13 344.14,-158.65 391.84,-135.93"/>
<polygon fill="midnightblue" stroke="midnightblue" points="393.43,-139.05 400.96,-131.59 390.42,-132.73 393.43,-139.05"/>
</g>
<!-- Node15 -->
<g id="node15" class="node">
<title>Node15</title>
<g id="a_node15"><a xlink:href="block_8hpp.html" target="_top" xlink:title="MODEL::Block source file.">
<polygon fill="none" stroke="black" points="519,-168.5 519,-187.5 577,-187.5 577,-168.5 519,-168.5"/>
<text text-anchor="middle" x="548" y="-175.5" font-family="Helvetica,sans-Serif" font-size="10.00">block.hpp</text>
</a>
</g>
</g>
<!-- Node14&#45;&gt;Node15 -->
<g id="edge16" class="edge">
<title>Node14&#45;&gt;Node15</title>
<path fill="none" stroke="midnightblue" d="M222.23,-225.63C225.19,-225.05 228.15,-224.5 231,-224 330.42,-206.56 448.31,-191.22 508.43,-183.77"/>
<polygon fill="midnightblue" stroke="midnightblue" points="509.12,-187.22 518.62,-182.52 508.26,-180.27 509.12,-187.22"/>
</g>
<!-- Node15&#45;&gt;Node3 -->
<g id="edge17" class="edge">
<title>Node15&#45;&gt;Node3</title>
<path fill="none" stroke="midnightblue" d="M548.52,-168.4C549.64,-155.35 553.15,-130.15 564,-112 583.05,-80.13 594.04,-74.9 626,-56 656.99,-37.68 696.56,-25.33 723.86,-18.27"/>
<polygon fill="midnightblue" stroke="midnightblue" points="724.82,-21.64 733.68,-15.83 723.13,-14.85 724.82,-21.64"/>
</g>
<!-- Node15&#45;&gt;Node7 -->
<g id="edge18" class="edge">
<title>Node15&#45;&gt;Node7</title>
<path fill="none" stroke="midnightblue" d="M569.55,-168.44C593.22,-159.04 631.28,-143.93 656.94,-133.74"/>
<polygon fill="midnightblue" stroke="midnightblue" points="658.44,-136.91 666.44,-129.97 655.86,-130.41 658.44,-136.91"/>
</g>
<!-- Node15&#45;&gt;Node9 -->
<g id="edge25" class="edge">
<title>Node15&#45;&gt;Node9</title>
<path fill="none" stroke="midnightblue" d="M518.84,-171.47C471.7,-162.54 377.99,-144.79 318.01,-133.42"/>
<polygon fill="midnightblue" stroke="midnightblue" points="318.44,-129.94 307.96,-131.52 317.13,-136.82 318.44,-129.94"/>
</g>
<!-- Node15&#45;&gt;Node11 -->
<g id="edge26" class="edge">
<title>Node15&#45;&gt;Node11</title>
<path fill="none" stroke="midnightblue" d="M527.56,-168.44C506.33,-159.56 472.9,-145.56 448.75,-135.45"/>
<polygon fill="midnightblue" stroke="midnightblue" points="449.92,-132.15 439.34,-131.52 447.22,-138.61 449.92,-132.15"/>
</g>
<!-- Node15&#45;&gt;Node16 -->
<g id="edge19" class="edge">
<title>Node15&#45;&gt;Node16</title>
<path fill="none" stroke="midnightblue" d="M559.57,-168.32C570.42,-160.18 586.88,-147.84 599.88,-138.09"/>
<polygon fill="midnightblue" stroke="midnightblue" points="602.32,-140.63 608.22,-131.83 598.12,-135.03 602.32,-140.63"/>
</g>
<!-- Node15&#45;&gt;Node17 -->
<g id="edge24" class="edge">
<title>Node15&#45;&gt;Node17</title>
<path fill="none" stroke="midnightblue" d="M550.71,-168.35C555.36,-154.77 566,-128.35 583,-112 598.25,-97.34 619.19,-86.58 637.25,-79.27"/>
<polygon fill="midnightblue" stroke="midnightblue" points="638.84,-82.41 646.92,-75.56 636.33,-75.87 638.84,-82.41"/>
</g>
<!-- Node16&#45;&gt;Node2 -->
<g id="edge20" class="edge">
<title>Node16&#45;&gt;Node2</title>
<path fill="none" stroke="midnightblue" d="M602.69,-112.46C574.99,-99.03 518.75,-72.81 469,-56 417.48,-38.6 355.62,-24.58 319.47,-17.05"/>
<polygon fill="midnightblue" stroke="midnightblue" points="320.05,-13.59 309.55,-15.01 318.65,-20.45 320.05,-13.59"/>
</g>
<!-- Node16&#45;&gt;Node17 -->
<g id="edge21" class="edge">
<title>Node16&#45;&gt;Node17</title>
<path fill="none" stroke="midnightblue" d="M629.08,-112.08C637.17,-104.14 649.2,-92.34 658.91,-82.8"/>
<polygon fill="midnightblue" stroke="midnightblue" points="661.4,-85.25 666.09,-75.75 656.5,-80.26 661.4,-85.25"/>
</g>
<!-- Node17&#45;&gt;Node2 -->
<g id="edge23" class="edge">
<title>Node17&#45;&gt;Node2</title>
<path fill="none" stroke="midnightblue" d="M634.78,-59.37C557.44,-48.55 389.46,-25.05 320.01,-15.34"/>
<polygon fill="midnightblue" stroke="midnightblue" points="320.13,-11.82 309.74,-13.9 319.16,-18.75 320.13,-11.82"/>
</g>
<!-- Node17&#45;&gt;Node3 -->
<g id="edge22" class="edge">
<title>Node17&#45;&gt;Node3</title>
<path fill="none" stroke="midnightblue" d="M688.01,-56.32C700.53,-47.98 719.68,-35.21 734.47,-25.35"/>
<polygon fill="midnightblue" stroke="midnightblue" points="736.64,-28.11 743.02,-19.65 732.76,-22.29 736.64,-28.11"/>
</g>
<!-- Node18&#45;&gt;Node9 -->
<g id="edge30" class="edge">
<title>Node18&#45;&gt;Node9</title>
<path fill="none" stroke="midnightblue" d="M571.07,-224.46C511.88,-204.97 366.72,-157.16 298.95,-134.84"/>
<polygon fill="midnightblue" stroke="midnightblue" points="299.74,-131.41 289.14,-131.61 297.55,-138.06 299.74,-131.41"/>
</g>
<!-- Node18&#45;&gt;Node11 -->
<g id="edge31" class="edge">
<title>Node18&#45;&gt;Node11</title>
<path fill="none" stroke="midnightblue" d="M598.24,-224.17C599.65,-210.35 600.16,-183.59 586,-168 572.24,-152.86 525.81,-141.09 485.39,-133.39"/>
<polygon fill="midnightblue" stroke="midnightblue" points="486.01,-129.94 475.54,-131.57 484.74,-136.83 486.01,-129.94"/>
</g>
<!-- Node18&#45;&gt;Node15 -->
<g id="edge29" class="edge">
<title>Node18&#45;&gt;Node15</title>
<path fill="none" stroke="midnightblue" d="M588.91,-224.08C581.84,-216.3 571.41,-204.8 562.85,-195.37"/>
<polygon fill="midnightblue" stroke="midnightblue" points="565.25,-192.8 555.94,-187.75 560.07,-197.51 565.25,-192.8"/>
</g>
<!-- Node19 -->
<g id="node19" class="node">
<title>Node19</title>
<g id="a_node19"><a xlink:title=" ">
<polygon fill="none" stroke="#bfbfbf" points="866,-112.5 866,-131.5 912,-131.5 912,-112.5 866,-112.5"/>
<text text-anchor="middle" x="889" y="-119.5" font-family="Helvetica,sans-Serif" font-size="10.00">math.h</text>
</a>
</g>
</g>
<!-- Node18&#45;&gt;Node19 -->
<g id="edge28" class="edge">
<title>Node18&#45;&gt;Node19</title>
<path fill="none" stroke="midnightblue" d="M640.26,-232.45C711.96,-230.55 850.72,-222.42 883,-188 894.37,-175.88 894.68,-156.32 892.88,-141.82"/>
<polygon fill="midnightblue" stroke="midnightblue" points="896.32,-141.21 891.23,-131.92 889.42,-142.36 896.32,-141.21"/>
</g>
<!-- Node20&#45;&gt;Node9 -->
<g id="edge33" class="edge">
<title>Node20&#45;&gt;Node9</title>
<path fill="none" stroke="midnightblue" d="M310,-224.37C301.69,-206.46 282.44,-164.92 271.32,-140.95"/>
<polygon fill="midnightblue" stroke="midnightblue" points="274.36,-139.19 266.98,-131.59 268.01,-142.14 274.36,-139.19"/>
</g>
<!-- Node20&#45;&gt;Node11 -->
<g id="edge34" class="edge">
<title>Node20&#45;&gt;Node11</title>
<path fill="none" stroke="midnightblue" d="M322.24,-224.37C339.8,-205.97 381.13,-162.67 403.68,-139.05"/>
<polygon fill="midnightblue" stroke="midnightblue" points="406.43,-141.24 410.8,-131.59 401.36,-136.41 406.43,-141.24"/>
</g>
<!-- Node20&#45;&gt;Node15 -->
<g id="edge35" class="edge">
<title>Node20&#45;&gt;Node15</title>
<path fill="none" stroke="midnightblue" d="M351.08,-224.44C394.24,-214.48 465.19,-198.11 509.11,-187.97"/>
<polygon fill="midnightblue" stroke="midnightblue" points="509.9,-191.38 518.86,-185.73 508.33,-184.56 509.9,-191.38"/>
</g>
<!-- Node21&#45;&gt;Node9 -->
<g id="edge37" class="edge">
<title>Node21&#45;&gt;Node9</title>
<path fill="none" stroke="midnightblue" d="M472.19,-224.37C432.57,-205.17 336.96,-158.84 289.98,-136.07"/>
<polygon fill="midnightblue" stroke="midnightblue" points="291.25,-132.8 280.73,-131.59 288.2,-139.1 291.25,-132.8"/>
</g>
<!-- Node21&#45;&gt;Node11 -->
<g id="edge38" class="edge">
<title>Node21&#45;&gt;Node11</title>
<path fill="none" stroke="midnightblue" d="M484.43,-224.37C472.76,-206.3 445.58,-164.18 430.17,-140.31"/>
<polygon fill="midnightblue" stroke="midnightblue" points="432.91,-138.1 424.55,-131.59 427.03,-141.89 432.91,-138.1"/>
</g>
<!-- Node21&#45;&gt;Node15 -->
<g id="edge39" class="edge">
<title>Node21&#45;&gt;Node15</title>
<path fill="none" stroke="midnightblue" d="M499.32,-224.32C507.89,-216.34 520.81,-204.31 531.19,-194.65"/>
<polygon fill="midnightblue" stroke="midnightblue" points="533.58,-197.21 538.51,-187.83 528.81,-192.09 533.58,-197.21"/>
</g>
<!-- Node22 -->
<g id="node22" class="node">
<title>Node22</title>
<g id="a_node22"><a xlink:href="timedependentparameter_8hpp.html" target="_top" xlink:title="MODEL::TimeDependentParameter source file.">
<polygon fill="none" stroke="black" points="732,-168.5 732,-187.5 874,-187.5 874,-168.5 732,-168.5"/>
<text text-anchor="middle" x="803" y="-175.5" font-family="Helvetica,sans-Serif" font-size="10.00">timedependentparameter.hpp</text>
</a>
</g>
</g>
<!-- Node21&#45;&gt;Node22 -->
<g id="edge40" class="edge">
<title>Node21&#45;&gt;Node22</title>
<path fill="none" stroke="midnightblue" d="M536.18,-225.03C591.16,-215.55 683.09,-199.69 743.39,-189.28"/>
<polygon fill="midnightblue" stroke="midnightblue" points="744.26,-192.69 753.52,-187.54 743.07,-185.79 744.26,-192.69"/>
</g>
<!-- Node22&#45;&gt;Node3 -->
<g id="edge42" class="edge">
<title>Node22&#45;&gt;Node3</title>
<path fill="none" stroke="midnightblue" d="M808.14,-168.11C814.73,-155.54 824.69,-131.89 819,-112 809.53,-78.92 785.73,-46.15 770.24,-27.27"/>
<polygon fill="midnightblue" stroke="midnightblue" points="772.92,-25.02 763.8,-19.63 767.57,-29.53 772.92,-25.02"/>
</g>
<!-- Node22&#45;&gt;Node17 -->
<g id="edge44" class="edge">
<title>Node22&#45;&gt;Node17</title>
<path fill="none" stroke="midnightblue" d="M792.81,-168.4C782.12,-159.37 764.84,-144.73 750,-132 730.36,-115.15 707.95,-95.7 692.78,-82.5"/>
<polygon fill="midnightblue" stroke="midnightblue" points="695,-79.79 685.16,-75.86 690.4,-85.07 695,-79.79"/>
</g>
<!-- Node22&#45;&gt;Node19 -->
<g id="edge41" class="edge">
<title>Node22&#45;&gt;Node19</title>
<path fill="none" stroke="midnightblue" d="M816.82,-168.32C830.23,-159.9 850.82,-146.97 866.59,-137.07"/>
<polygon fill="midnightblue" stroke="midnightblue" points="868.61,-139.94 875.22,-131.65 864.89,-134.01 868.61,-139.94"/>
</g>
<!-- Node23 -->
<g id="node23" class="node">
<title>Node23</title>
<g id="a_node23"><a xlink:title=" ">
<polygon fill="none" stroke="#bfbfbf" points="758.5,-112.5 758.5,-131.5 809.5,-131.5 809.5,-112.5 758.5,-112.5"/>
<text text-anchor="middle" x="784" y="-119.5" font-family="Helvetica,sans-Serif" font-size="10.00">numeric</text>
</a>
</g>
</g>
<!-- Node22&#45;&gt;Node23 -->
<g id="edge43" class="edge">
<title>Node22&#45;&gt;Node23</title>
<path fill="none" stroke="midnightblue" d="M799.86,-168.08C797.32,-160.85 793.64,-150.41 790.47,-141.4"/>
<polygon fill="midnightblue" stroke="midnightblue" points="793.7,-140.02 787.08,-131.75 787.1,-142.35 793.7,-140.02"/>
</g>
<!-- Node24&#45;&gt;Node2 -->
<g id="edge48" class="edge">
<title>Node24&#45;&gt;Node2</title>
<path fill="none" stroke="midnightblue" d="M92.55,-168.46C104.48,-146.81 138.73,-89.18 182,-56 205.02,-38.35 235.98,-26.32 258.68,-19.17"/>
<polygon fill="midnightblue" stroke="midnightblue" points="259.9,-22.46 268.47,-16.23 257.88,-15.75 259.9,-22.46"/>
</g>
</g>
</svg>
