<?xml version="1.0" encoding="UTF-8" standalone="no"?>
<!DOCTYPE svg PUBLIC "-//W3C//DTD SVG 1.1//EN"
 "http://www.w3.org/Graphics/SVG/1.1/DTD/svg11.dtd">
<!-- Generated by graphviz version 3.0.0 (20220413.0242)
 -->
<!-- Title: io/csvwriter.hpp Pages: 1 -->
<svg width="1680pt" height="364pt"
 viewBox="0.00 0.00 1680.00 364.00" xmlns="http://www.w3.org/2000/svg" xmlns:xlink="http://www.w3.org/1999/xlink">
<g id="graph0" class="graph" transform="scale(1 1) rotate(0) translate(4 360)">
<title>io/csvwriter.hpp</title>
<!-- Node1 -->
<g id="node1" class="node">
<title>Node1</title>
<g id="a_node1"><a xlink:title="IO::write_csv source file.">
<polygon fill="#bfbfbf" stroke="black" points="1391.5,-336.5 1391.5,-355.5 1476.5,-355.5 1476.5,-336.5 1391.5,-336.5"/>
<text text-anchor="middle" x="1434" y="-343.5" font-family="Helvetica,sans-Serif" font-size="10.00">io/csvwriter.hpp</text>
</a>
</g>
</g>
<!-- Node2 -->
<g id="node2" class="node">
<title>Node2</title>
<g id="a_node2"><a xlink:title=" ">
<polygon fill="none" stroke="#bfbfbf" points="1176.5,-0.5 1176.5,-19.5 1217.5,-19.5 1217.5,-0.5 1176.5,-0.5"/>
<text text-anchor="middle" x="1197" y="-7.5" font-family="Helvetica,sans-Serif" font-size="10.00">string</text>
</a>
</g>
</g>
<!-- Node1&#45;&gt;Node2 -->
<g id="edge1" class="edge">
<title>Node1&#45;&gt;Node2</title>
<path fill="none" stroke="midnightblue" d="M1440.12,-336.35C1452.21,-318.38 1478,-275.31 1478,-235 1478,-235 1478,-235 1478,-121 1478,-67.7 1300.45,-29.63 1227.62,-16.26"/>
<polygon fill="midnightblue" stroke="midnightblue" points="1228.12,-12.79 1217.66,-14.46 1226.88,-19.68 1228.12,-12.79"/>
</g>
<!-- Node3 -->
<g id="node3" class="node">
<title>Node3</title>
<g id="a_node3"><a xlink:title=" ">
<polygon fill="none" stroke="#bfbfbf" points="180,-0.5 180,-19.5 224,-19.5 224,-0.5 180,-0.5"/>
<text text-anchor="middle" x="202" y="-7.5" font-family="Helvetica,sans-Serif" font-size="10.00">vector</text>
</a>
</g>
</g>
<!-- Node1&#45;&gt;Node3 -->
<g id="edge2" class="edge">
<title>Node1&#45;&gt;Node3</title>
<path fill="none" stroke="midnightblue" d="M1391.47,-344.02C1153.74,-338.27 0,-306.67 0,-235 0,-235 0,-235 0,-121 0,-44.5 113.12,-20.89 170.06,-13.86"/>
<polygon fill="midnightblue" stroke="midnightblue" points="170.46,-17.34 180,-12.73 169.67,-10.38 170.46,-17.34"/>
</g>
<!-- Node4 -->
<g id="node4" class="node">
<title>Node4</title>
<g id="a_node4"><a xlink:title=" ">
<polygon fill="none" stroke="#bfbfbf" points="1506,-280.5 1506,-299.5 1556,-299.5 1556,-280.5 1506,-280.5"/>
<text text-anchor="middle" x="1531" y="-287.5" font-family="Helvetica,sans-Serif" font-size="10.00">fstream</text>
</a>
</g>
</g>
<!-- Node1&#45;&gt;Node4 -->
<g id="edge3" class="edge">
<title>Node1&#45;&gt;Node4</title>
<path fill="none" stroke="midnightblue" d="M1449.58,-336.32C1465,-327.74 1488.81,-314.49 1506.71,-304.52"/>
<polygon fill="midnightblue" stroke="midnightblue" points="1508.42,-307.58 1515.45,-299.65 1505.01,-301.46 1508.42,-307.58"/>
</g>
<!-- Node5 -->
<g id="node5" class="node">
<title>Node5</title>
<g id="a_node5"><a xlink:href="state_8hpp.html" target="_top" xlink:title="ALGEBRA::State source file.">
<polygon fill="none" stroke="black" points="1574,-280.5 1574,-299.5 1672,-299.5 1672,-280.5 1574,-280.5"/>
<text text-anchor="middle" x="1623" y="-287.5" font-family="Helvetica,sans-Serif" font-size="10.00">../algebra/state.hpp</text>
</a>
</g>
</g>
<!-- Node1&#45;&gt;Node5 -->
<g id="edge4" class="edge">
<title>Node1&#45;&gt;Node5</title>
<path fill="none" stroke="midnightblue" d="M1463.95,-336.44C1496.16,-327.24 1547.53,-312.56 1583.14,-302.39"/>
<polygon fill="midnightblue" stroke="midnightblue" points="1584.54,-305.63 1593.19,-299.52 1582.62,-298.9 1584.54,-305.63"/>
</g>
<!-- Node6 -->
<g id="node6" class="node">
<title>Node6</title>
<g id="a_node6"><a xlink:href="model_8hpp.html" target="_top" xlink:title="MODEL::Model source file.">
<polygon fill="none" stroke="black" points="882,-280.5 882,-299.5 980,-299.5 980,-280.5 882,-280.5"/>
<text text-anchor="middle" x="931" y="-287.5" font-family="Helvetica,sans-Serif" font-size="10.00">../model/model.hpp</text>
</a>
</g>
</g>
<!-- Node1&#45;&gt;Node6 -->
<g id="edge5" class="edge">
<title>Node1&#45;&gt;Node6</title>
<path fill="none" stroke="midnightblue" d="M1391.11,-340.4C1301.19,-330.74 1092.77,-308.37 990.19,-297.35"/>
<polygon fill="midnightblue" stroke="midnightblue" points="990.32,-293.85 980.01,-296.26 989.57,-300.81 990.32,-293.85"/>
</g>
<!-- Node29 -->
<g id="node29" class="node">
<title>Node29</title>
<g id="a_node29"><a xlink:href="startswith_8hpp.html" target="_top" xlink:title="HELPERS::startswith source file.">
<polygon fill="none" stroke="black" points="1330.5,-168.5 1330.5,-187.5 1449.5,-187.5 1449.5,-168.5 1330.5,-168.5"/>
<text text-anchor="middle" x="1390" y="-175.5" font-family="Helvetica,sans-Serif" font-size="10.00">../helpers/startswith.hpp</text>
</a>
</g>
</g>
<!-- Node1&#45;&gt;Node29 -->
<g id="edge65" class="edge">
<title>Node1&#45;&gt;Node29</title>
<path fill="none" stroke="midnightblue" d="M1431.63,-336.08C1424.71,-309.95 1404.37,-233.21 1394.92,-197.58"/>
<polygon fill="midnightblue" stroke="midnightblue" points="1398.22,-196.34 1392.27,-187.57 1391.45,-198.13 1398.22,-196.34"/>
</g>
<!-- Node7 -->
<g id="node7" class="node">
<title>Node7</title>
<g id="a_node7"><a xlink:title=" ">
<polygon fill="none" stroke="#bfbfbf" points="1011.5,-112.5 1011.5,-131.5 1046.5,-131.5 1046.5,-112.5 1011.5,-112.5"/>
<text text-anchor="middle" x="1029" y="-119.5" font-family="Helvetica,sans-Serif" font-size="10.00">map</text>
</a>
</g>
</g>
<!-- Node6&#45;&gt;Node7 -->
<g id="edge6" class="edge">
<title>Node6&#45;&gt;Node7</title>
<path fill="none" stroke="midnightblue" d="M980.17,-288.58C1053.32,-286.78 1185.38,-278.69 1215,-244 1220.77,-237.24 1219.19,-231.84 1215,-224 1198.49,-193.15 1103.6,-152.3 1056.09,-133.41"/>
<polygon fill="midnightblue" stroke="midnightblue" points="1057.3,-130.12 1046.72,-129.72 1054.74,-136.64 1057.3,-130.12"/>
</g>
<!-- Node8 -->
<g id="node8" class="node">
<title>Node8</title>
<g id="a_node8"><a xlink:title=" ">
<polygon fill="none" stroke="#bfbfbf" points="1086.5,-224.5 1086.5,-243.5 1115.5,-243.5 1115.5,-224.5 1086.5,-224.5"/>
<text text-anchor="middle" x="1101" y="-231.5" font-family="Helvetica,sans-Serif" font-size="10.00">list</text>
</a>
</g>
</g>
<!-- Node6&#45;&gt;Node8 -->
<g id="edge7" class="edge">
<title>Node6&#45;&gt;Node8</title>
<path fill="none" stroke="midnightblue" d="M960.53,-280.46C988.23,-272.33 1031,-259.46 1076.82,-243.91"/>
<polygon fill="midnightblue" stroke="midnightblue" points="1078,-247.21 1086.33,-240.66 1075.73,-240.58 1078,-247.21"/>
</g>
<!-- Node9 -->
<g id="node9" class="node">
<title>Node9</title>
<g id="a_node9"><a xlink:title=" ">
<polygon fill="none" stroke="#bfbfbf" points="1134,-224.5 1134,-243.5 1180,-243.5 1180,-224.5 1134,-224.5"/>
<text text-anchor="middle" x="1157" y="-231.5" font-family="Helvetica,sans-Serif" font-size="10.00">variant</text>
</a>
</g>
</g>
<!-- Node6&#45;&gt;Node9 -->
<g id="edge8" class="edge">
<title>Node6&#45;&gt;Node9</title>
<path fill="none" stroke="midnightblue" d="M969.55,-280.45C1008.58,-271.7 1070.63,-257.49 1124,-244 1124.1,-243.97 1124.2,-243.95 1124.3,-243.92"/>
<polygon fill="midnightblue" stroke="midnightblue" points="1125.16,-247.32 1133.95,-241.4 1123.39,-240.54 1125.16,-247.32"/>
</g>
<!-- Node10 -->
<g id="node10" class="node">
<title>Node10</title>
<g id="a_node10"><a xlink:href="densesystem_8hpp.html" target="_top" xlink:title="ALGEBRA::DenseSystem source file.">
<polygon fill="none" stroke="black" points="459,-112.5 459,-131.5 593,-131.5 593,-112.5 459,-112.5"/>
<text text-anchor="middle" x="526" y="-119.5" font-family="Helvetica,sans-Serif" font-size="10.00">../algebra/densesystem.hpp</text>
</a>
</g>
</g>
<!-- Node6&#45;&gt;Node10 -->
<g id="edge9" class="edge">
<title>Node6&#45;&gt;Node10</title>
<path fill="none" stroke="midnightblue" d="M881.81,-288.2C706.63,-285.11 122.18,-272.68 95,-244 43.15,-189.29 38.98,-220.19 195,-168 218.53,-160.13 358.55,-142.67 448.78,-131.96"/>
<polygon fill="midnightblue" stroke="midnightblue" points="449.46,-135.4 458.98,-130.75 448.64,-128.45 449.46,-135.4"/>
</g>
<!-- Node12 -->
<g id="node12" class="node">
<title>Node12</title>
<g id="a_node12"><a xlink:href="sparsesystem_8hpp.html" target="_top" xlink:title="ALGEBRA::SparseSystem source file.">
<polygon fill="none" stroke="black" points="818.5,-112.5 818.5,-131.5 955.5,-131.5 955.5,-112.5 818.5,-112.5"/>
<text text-anchor="middle" x="887" y="-119.5" font-family="Helvetica,sans-Serif" font-size="10.00">../algebra/sparsesystem.hpp</text>
</a>
</g>
</g>
<!-- Node6&#45;&gt;Node12 -->
<g id="edge11" class="edge">
<title>Node6&#45;&gt;Node12</title>
<path fill="none" stroke="midnightblue" d="M980.01,-287.4C1045.14,-284.13 1154.62,-274.19 1180,-244 1185.72,-237.2 1185.19,-231.21 1180,-224 1150.86,-183.53 1012.82,-149.94 936.98,-133.63"/>
<polygon fill="midnightblue" stroke="midnightblue" points="937.67,-130.2 927.16,-131.54 936.21,-137.05 937.67,-130.2"/>
</g>
<!-- Node16 -->
<g id="node16" class="node">
<title>Node16</title>
<g id="a_node16"><a xlink:href="junction_8hpp.html" target="_top" xlink:title="MODEL::Junction source file.">
<polygon fill="none" stroke="black" points="834,-224.5 834,-243.5 902,-243.5 902,-224.5 834,-224.5"/>
<text text-anchor="middle" x="868" y="-231.5" font-family="Helvetica,sans-Serif" font-size="10.00">junction.hpp</text>
</a>
</g>
</g>
<!-- Node6&#45;&gt;Node16 -->
<g id="edge16" class="edge">
<title>Node6&#45;&gt;Node16</title>
<path fill="none" stroke="midnightblue" d="M920.88,-280.32C911.47,-272.26 897.26,-260.08 885.93,-250.37"/>
<polygon fill="midnightblue" stroke="midnightblue" points="888.18,-247.68 878.31,-243.83 883.62,-253 888.18,-247.68"/>
</g>
<!-- Node18 -->
<g id="node18" class="node">
<title>Node18</title>
<g id="a_node18"><a xlink:href="node_8hpp.html" target="_top" xlink:title="MODEL::Node source file.">
<polygon fill="none" stroke="black" points="1066,-112.5 1066,-131.5 1122,-131.5 1122,-112.5 1066,-112.5"/>
<text text-anchor="middle" x="1094" y="-119.5" font-family="Helvetica,sans-Serif" font-size="10.00">node.hpp</text>
</a>
</g>
</g>
<!-- Node6&#45;&gt;Node18 -->
<g id="edge36" class="edge">
<title>Node6&#45;&gt;Node18</title>
<path fill="none" stroke="midnightblue" d="M980.09,-289.05C1056.7,-287.98 1199.21,-280.91 1231,-244 1269.42,-199.39 1180.18,-155.88 1128.15,-135.31"/>
<polygon fill="midnightblue" stroke="midnightblue" points="1129.19,-131.96 1118.6,-131.63 1126.67,-138.49 1129.19,-131.96"/>
</g>
<!-- Node19 -->
<g id="node19" class="node">
<title>Node19</title>
<g id="a_node19"><a xlink:href="dofhandler_8hpp.html" target="_top" xlink:title="MODEL::DOFHandler source file.">
<polygon fill="none" stroke="black" points="345,-56.5 345,-75.5 425,-75.5 425,-56.5 345,-56.5"/>
<text text-anchor="middle" x="385" y="-63.5" font-family="Helvetica,sans-Serif" font-size="10.00">dofhandler.hpp</text>
</a>
</g>
</g>
<!-- Node6&#45;&gt;Node19 -->
<g id="edge35" class="edge">
<title>Node6&#45;&gt;Node19</title>
<path fill="none" stroke="midnightblue" d="M881.75,-288.27C703.49,-285.39 100.98,-273.48 73,-244 -12.86,-153.52 226.61,-96.27 334.9,-75.64"/>
<polygon fill="midnightblue" stroke="midnightblue" points="335.77,-79.04 344.96,-73.76 334.49,-72.16 335.77,-79.04"/>
</g>
<!-- Node20 -->
<g id="node20" class="node">
<title>Node20</title>
<g id="a_node20"><a xlink:href="bloodvessel_8hpp.html" target="_top" xlink:title="MODEL::BloodVessel source file.">
<polygon fill="none" stroke="black" points="730,-224.5 730,-243.5 816,-243.5 816,-224.5 730,-224.5"/>
<text text-anchor="middle" x="773" y="-231.5" font-family="Helvetica,sans-Serif" font-size="10.00">bloodvessel.hpp</text>
</a>
</g>
</g>
<!-- Node6&#45;&gt;Node20 -->
<g id="edge30" class="edge">
<title>Node6&#45;&gt;Node20</title>
<path fill="none" stroke="midnightblue" d="M905.96,-280.44C879.38,-271.36 837.19,-256.94 807.48,-246.78"/>
<polygon fill="midnightblue" stroke="midnightblue" points="808.51,-243.44 797.92,-243.52 806.25,-250.06 808.51,-243.44"/>
</g>
<!-- Node22 -->
<g id="node22" class="node">
<title>Node22</title>
<g id="a_node22"><a xlink:href="flowreference_8hpp.html" target="_top" xlink:title="MODEL::FlowReference source file.">
<polygon fill="none" stroke="black" points="412,-224.5 412,-243.5 504,-243.5 504,-224.5 412,-224.5"/>
<text text-anchor="middle" x="458" y="-231.5" font-family="Helvetica,sans-Serif" font-size="10.00">flowreference.hpp</text>
</a>
</g>
</g>
<!-- Node6&#45;&gt;Node22 -->
<g id="edge37" class="edge">
<title>Node6&#45;&gt;Node22</title>
<path fill="none" stroke="midnightblue" d="M881.99,-284.6C805.63,-277.56 653.43,-262.75 514.19,-244.1"/>
<polygon fill="midnightblue" stroke="midnightblue" points="514.56,-240.62 504.19,-242.75 513.63,-247.55 514.56,-240.62"/>
</g>
<!-- Node25 -->
<g id="node25" class="node">
<title>Node25</title>
<g id="a_node25"><a xlink:href="pressurereference_8hpp.html" target="_top" xlink:title="MODEL::PressureReference source file.">
<polygon fill="none" stroke="black" points="104.5,-224.5 104.5,-243.5 217.5,-243.5 217.5,-224.5 104.5,-224.5"/>
<text text-anchor="middle" x="161" y="-231.5" font-family="Helvetica,sans-Serif" font-size="10.00">pressurereference.hpp</text>
</a>
</g>
</g>
<!-- Node6&#45;&gt;Node25 -->
<g id="edge46" class="edge">
<title>Node6&#45;&gt;Node25</title>
<path fill="none" stroke="midnightblue" d="M881.82,-287.07C768.49,-282.36 479.99,-268.89 227.93,-244.02"/>
<polygon fill="midnightblue" stroke="midnightblue" points="228.15,-240.52 217.85,-243.02 227.46,-247.49 228.15,-240.52"/>
</g>
<!-- Node26 -->
<g id="node26" class="node">
<title>Node26</title>
<g id="a_node26"><a xlink:href="rcrblockwithdistalpressure_8hpp.html" target="_top" xlink:title="MODEL::RCRBlockWithDistalPressure source file.">
<polygon fill="none" stroke="black" points="920,-224.5 920,-243.5 1068,-243.5 1068,-224.5 920,-224.5"/>
<text text-anchor="middle" x="994" y="-231.5" font-family="Helvetica,sans-Serif" font-size="10.00">rcrblockwithdistalpressure.hpp</text>
</a>
</g>
</g>
<!-- Node6&#45;&gt;Node26 -->
<g id="edge51" class="edge">
<title>Node6&#45;&gt;Node26</title>
<path fill="none" stroke="midnightblue" d="M941.12,-280.32C950.53,-272.26 964.74,-260.08 976.07,-250.37"/>
<polygon fill="midnightblue" stroke="midnightblue" points="978.38,-253 983.69,-243.83 973.82,-247.68 978.38,-253"/>
</g>
<!-- Node27 -->
<g id="node27" class="node">
<title>Node27</title>
<g id="a_node27"><a xlink:href="resistancewithdistalpressure_8hpp.html" target="_top" xlink:title="MODEL::ResistanceWithDistalPressure source file.">
<polygon fill="none" stroke="black" points="236,-224.5 236,-243.5 394,-243.5 394,-224.5 236,-224.5"/>
<text text-anchor="middle" x="315" y="-231.5" font-family="Helvetica,sans-Serif" font-size="10.00">resistancewithdistalpressure.hpp</text>
</a>
</g>
</g>
<!-- Node6&#45;&gt;Node27 -->
<g id="edge55" class="edge">
<title>Node6&#45;&gt;Node27</title>
<path fill="none" stroke="midnightblue" d="M881.84,-285.09C790.16,-277.74 586.62,-261.12 404.2,-244.1"/>
<polygon fill="midnightblue" stroke="midnightblue" points="404.43,-240.61 394.15,-243.16 403.78,-247.57 404.43,-240.61"/>
</g>
<!-- Node28 -->
<g id="node28" class="node">
<title>Node28</title>
<g id="a_node28"><a xlink:href="openloopcoronarywithdistalpressure_8hpp.html" target="_top" xlink:title="MODEL::OpenLoopCoronaryWithDistalPressure source file.">
<polygon fill="none" stroke="black" points="522.5,-224.5 522.5,-243.5 711.5,-243.5 711.5,-224.5 522.5,-224.5"/>
<text text-anchor="middle" x="617" y="-231.5" font-family="Helvetica,sans-Serif" font-size="10.00">openloopcoronarywithdistalpressure.hpp</text>
</a>
</g>
</g>
<!-- Node6&#45;&gt;Node28 -->
<g id="edge60" class="edge">
<title>Node6&#45;&gt;Node28</title>
<path fill="none" stroke="midnightblue" d="M881.94,-280.56C826.42,-271.01 736,-255.46 676.5,-245.23"/>
<polygon fill="midnightblue" stroke="midnightblue" points="676.94,-241.76 666.49,-243.51 675.76,-248.66 676.94,-241.76"/>
</g>
<!-- Node11 -->
<g id="node11" class="node">
<title>Node11</title>
<g id="a_node11"><a xlink:title=" ">
<polygon fill="none" stroke="#bfbfbf" points="490.5,-56.5 490.5,-75.5 561.5,-75.5 561.5,-56.5 490.5,-56.5"/>
<text text-anchor="middle" x="526" y="-63.5" font-family="Helvetica,sans-Serif" font-size="10.00">Eigen/Dense</text>
</a>
</g>
</g>
<!-- Node10&#45;&gt;Node11 -->
<g id="edge10" class="edge">
<title>Node10&#45;&gt;Node11</title>
<path fill="none" stroke="midnightblue" d="M526,-112.08C526,-105.01 526,-94.86 526,-85.99"/>
<polygon fill="midnightblue" stroke="midnightblue" points="529.5,-85.75 526,-75.75 522.5,-85.75 529.5,-85.75"/>
</g>
<!-- Node12&#45;&gt;Node6 -->
<g id="edge15" class="edge">
<title>Node12&#45;&gt;Node6</title>
<path fill="none" stroke="midnightblue" d="M937.97,-131.54C1018.21,-146.94 1167.55,-181.71 1198,-224 1203.19,-231.21 1203.72,-237.2 1198,-244 1172.34,-274.52 1060.76,-284.34 990.12,-287.5"/>
<polygon fill="midnightblue" stroke="midnightblue" points="989.86,-284.01 980.02,-287.92 990.15,-291 989.86,-284.01"/>
</g>
<!-- Node13 -->
<g id="node13" class="node">
<title>Node13</title>
<g id="a_node13"><a xlink:title=" ">
<polygon fill="none" stroke="#bfbfbf" points="850,-56.5 850,-75.5 924,-75.5 924,-56.5 850,-56.5"/>
<text text-anchor="middle" x="887" y="-63.5" font-family="Helvetica,sans-Serif" font-size="10.00">Eigen/Sparse</text>
</a>
</g>
</g>
<!-- Node12&#45;&gt;Node13 -->
<g id="edge12" class="edge">
<title>Node12&#45;&gt;Node13</title>
<path fill="none" stroke="midnightblue" d="M887,-112.08C887,-105.01 887,-94.86 887,-85.99"/>
<polygon fill="midnightblue" stroke="midnightblue" points="890.5,-85.75 887,-75.75 883.5,-85.75 890.5,-85.75"/>
</g>
<!-- Node14 -->
<g id="node14" class="node">
<title>Node14</title>
<g id="a_node14"><a xlink:title=" ">
<polygon fill="none" stroke="#bfbfbf" points="942,-56.5 942,-75.5 1030,-75.5 1030,-56.5 942,-56.5"/>
<text text-anchor="middle" x="986" y="-63.5" font-family="Helvetica,sans-Serif" font-size="10.00">Eigen/SparseLU</text>
</a>
</g>
</g>
<!-- Node12&#45;&gt;Node14 -->
<g id="edge13" class="edge">
<title>Node12&#45;&gt;Node14</title>
<path fill="none" stroke="midnightblue" d="M902.91,-112.32C918.64,-103.74 942.94,-90.49 961.21,-80.52"/>
<polygon fill="midnightblue" stroke="midnightblue" points="963.03,-83.52 970.13,-75.65 959.68,-77.37 963.03,-83.52"/>
</g>
<!-- Node15 -->
<g id="node15" class="node">
<title>Node15</title>
<g id="a_node15"><a xlink:title=" ">
<polygon fill="none" stroke="#bfbfbf" points="778,-56.5 778,-75.5 832,-75.5 832,-56.5 778,-56.5"/>
<text text-anchor="middle" x="805" y="-63.5" font-family="Helvetica,sans-Serif" font-size="10.00">iostream</text>
</a>
</g>
</g>
<!-- Node12&#45;&gt;Node15 -->
<g id="edge14" class="edge">
<title>Node12&#45;&gt;Node15</title>
<path fill="none" stroke="midnightblue" d="M873.83,-112.32C861.15,-103.98 841.77,-91.21 826.79,-81.35"/>
<polygon fill="midnightblue" stroke="midnightblue" points="828.42,-78.23 818.14,-75.65 824.57,-84.08 828.42,-78.23"/>
</g>
<!-- Node16&#45;&gt;Node10 -->
<g id="edge17" class="edge">
<title>Node16&#45;&gt;Node10</title>
<path fill="none" stroke="midnightblue" d="M841.45,-224.46C780.72,-204.93 631.59,-156.96 562.38,-134.7"/>
<polygon fill="midnightblue" stroke="midnightblue" points="563.36,-131.34 552.77,-131.61 561.22,-138 563.36,-131.34"/>
</g>
<!-- Node16&#45;&gt;Node12 -->
<g id="edge18" class="edge">
<title>Node16&#45;&gt;Node12</title>
<path fill="none" stroke="midnightblue" d="M883.78,-224.47C896.2,-216.77 912.61,-204.18 920,-188 927.76,-171.03 915.64,-152.05 903.96,-139.01"/>
<polygon fill="midnightblue" stroke="midnightblue" points="906.39,-136.49 896.93,-131.72 901.36,-141.35 906.39,-136.49"/>
</g>
<!-- Node17 -->
<g id="node17" class="node">
<title>Node17</title>
<g id="a_node17"><a xlink:href="block_8hpp.html" target="_top" xlink:title="MODEL::Block source file.">
<polygon fill="none" stroke="black" points="744,-168.5 744,-187.5 802,-187.5 802,-168.5 744,-168.5"/>
<text text-anchor="middle" x="773" y="-175.5" font-family="Helvetica,sans-Serif" font-size="10.00">block.hpp</text>
</a>
</g>
</g>
<!-- Node16&#45;&gt;Node17 -->
<g id="edge19" class="edge">
<title>Node16&#45;&gt;Node17</title>
<path fill="none" stroke="midnightblue" d="M852.74,-224.32C837.78,-215.82 814.75,-202.73 797.27,-192.8"/>
<polygon fill="midnightblue" stroke="midnightblue" points="798.65,-189.55 788.23,-187.65 795.19,-195.64 798.65,-189.55"/>
</g>
<!-- Node17&#45;&gt;Node3 -->
<g id="edge20" class="edge">
<title>Node17&#45;&gt;Node3</title>
<path fill="none" stroke="midnightblue" d="M762.37,-168.42C733.49,-145.64 650.36,-83.49 570,-56 451.16,-15.35 299.67,-10.52 234.36,-10.53"/>
<polygon fill="midnightblue" stroke="midnightblue" points="234.26,-7.03 224.27,-10.57 234.29,-14.03 234.26,-7.03"/>
</g>
<!-- Node17&#45;&gt;Node7 -->
<g id="edge21" class="edge">
<title>Node17&#45;&gt;Node7</title>
<path fill="none" stroke="midnightblue" d="M802.37,-170.81C852.29,-160.28 953,-139.03 1001.57,-128.79"/>
<polygon fill="midnightblue" stroke="midnightblue" points="1002.32,-132.21 1011.38,-126.72 1000.87,-125.36 1002.32,-132.21"/>
</g>
<!-- Node17&#45;&gt;Node10 -->
<g id="edge28" class="edge">
<title>Node17&#45;&gt;Node10</title>
<path fill="none" stroke="midnightblue" d="M743.7,-170.59C702.09,-161.5 625.37,-144.73 575.02,-133.72"/>
<polygon fill="midnightblue" stroke="midnightblue" points="575.53,-130.25 565.01,-131.53 574.03,-137.08 575.53,-130.25"/>
</g>
<!-- Node17&#45;&gt;Node12 -->
<g id="edge29" class="edge">
<title>Node17&#45;&gt;Node12</title>
<path fill="none" stroke="midnightblue" d="M791.06,-168.44C809.57,-159.68 838.58,-145.94 859.86,-135.86"/>
<polygon fill="midnightblue" stroke="midnightblue" points="861.48,-138.96 869.02,-131.52 858.49,-132.63 861.48,-138.96"/>
</g>
<!-- Node17&#45;&gt;Node18 -->
<g id="edge22" class="edge">
<title>Node17&#45;&gt;Node18</title>
<path fill="none" stroke="midnightblue" d="M802.35,-172.99C853.73,-165.83 963.27,-149.88 1055,-132 1055.33,-131.94 1055.67,-131.87 1056,-131.8"/>
<polygon fill="midnightblue" stroke="midnightblue" points="1056.86,-135.2 1065.93,-129.72 1055.42,-128.35 1056.86,-135.2"/>
</g>
<!-- Node17&#45;&gt;Node19 -->
<g id="edge27" class="edge">
<title>Node17&#45;&gt;Node19</title>
<path fill="none" stroke="midnightblue" d="M753.6,-168.46C722.24,-154.93 658.25,-128.41 602,-112 545.63,-95.56 479.35,-82.72 435.01,-75.04"/>
<polygon fill="midnightblue" stroke="midnightblue" points="435.51,-71.58 425.06,-73.34 434.33,-78.48 435.51,-71.58"/>
</g>
<!-- Node18&#45;&gt;Node2 -->
<g id="edge23" class="edge">
<title>Node18&#45;&gt;Node2</title>
<path fill="none" stroke="midnightblue" d="M1102.08,-112.37C1119.31,-93.97 1159.85,-50.67 1181.97,-27.05"/>
<polygon fill="midnightblue" stroke="midnightblue" points="1184.68,-29.28 1188.96,-19.59 1179.57,-24.5 1184.68,-29.28"/>
</g>
<!-- Node18&#45;&gt;Node19 -->
<g id="edge24" class="edge">
<title>Node18&#45;&gt;Node19</title>
<path fill="none" stroke="midnightblue" d="M1065.99,-113.96C1062.31,-113.2 1058.58,-112.52 1055,-112 802.06,-75.14 735.83,-95.93 481,-76 466.08,-74.83 449.88,-73.38 435.11,-71.99"/>
<polygon fill="midnightblue" stroke="midnightblue" points="435.43,-68.51 425.15,-71.04 434.77,-75.48 435.43,-68.51"/>
</g>
<!-- Node19&#45;&gt;Node2 -->
<g id="edge26" class="edge">
<title>Node19&#45;&gt;Node2</title>
<path fill="none" stroke="midnightblue" d="M425.15,-60.96C442.34,-59.3 462.64,-57.44 481,-56 746.1,-35.25 1067.01,-17.81 1166.27,-12.59"/>
<polygon fill="midnightblue" stroke="midnightblue" points="1166.68,-16.08 1176.48,-12.06 1166.31,-9.09 1166.68,-16.08"/>
</g>
<!-- Node19&#45;&gt;Node3 -->
<g id="edge25" class="edge">
<title>Node19&#45;&gt;Node3</title>
<path fill="none" stroke="midnightblue" d="M356,-56.44C322.85,-46.66 268.72,-30.69 234.26,-20.52"/>
<polygon fill="midnightblue" stroke="midnightblue" points="234.82,-17.04 224.24,-17.56 232.84,-23.75 234.82,-17.04"/>
</g>
<!-- Node20&#45;&gt;Node10 -->
<g id="edge33" class="edge">
<title>Node20&#45;&gt;Node10</title>
<path fill="none" stroke="midnightblue" d="M751.15,-224.34C729.05,-215.5 693.96,-201.23 664,-188 624.99,-170.77 580.46,-149.5 552.79,-136.09"/>
<polygon fill="midnightblue" stroke="midnightblue" points="554.26,-132.92 543.74,-131.69 551.2,-139.21 554.26,-132.92"/>
</g>
<!-- Node20&#45;&gt;Node12 -->
<g id="edge34" class="edge">
<title>Node20&#45;&gt;Node12</title>
<path fill="none" stroke="midnightblue" d="M816.23,-226.33C839.57,-220.37 866.66,-209.12 882,-188 891.65,-174.7 891.97,-155.58 890.43,-141.52"/>
<polygon fill="midnightblue" stroke="midnightblue" points="893.88,-140.91 888.94,-131.53 886.95,-141.94 893.88,-140.91"/>
</g>
<!-- Node20&#45;&gt;Node17 -->
<g id="edge32" class="edge">
<title>Node20&#45;&gt;Node17</title>
<path fill="none" stroke="midnightblue" d="M773,-224.08C773,-217.01 773,-206.86 773,-197.99"/>
<polygon fill="midnightblue" stroke="midnightblue" points="776.5,-197.75 773,-187.75 769.5,-197.75 776.5,-197.75"/>
</g>
<!-- Node21 -->
<g id="node21" class="node">
<title>Node21</title>
<g id="a_node21"><a xlink:title=" ">
<polygon fill="none" stroke="#bfbfbf" points="386,-112.5 386,-131.5 432,-131.5 432,-112.5 386,-112.5"/>
<text text-anchor="middle" x="409" y="-119.5" font-family="Helvetica,sans-Serif" font-size="10.00">math.h</text>
</a>
</g>
</g>
<!-- Node20&#45;&gt;Node21 -->
<g id="edge31" class="edge">
<title>Node20&#45;&gt;Node21</title>
<path fill="none" stroke="midnightblue" d="M742.95,-224.46C711.68,-215.53 661.34,-201.03 618,-188 555.6,-169.24 483.03,-146.45 441.9,-133.44"/>
<polygon fill="midnightblue" stroke="midnightblue" points="442.74,-130.04 432.15,-130.36 440.63,-136.71 442.74,-130.04"/>
</g>
<!-- Node22&#45;&gt;Node10 -->
<g id="edge38" class="edge">
<title>Node22&#45;&gt;Node10</title>
<path fill="none" stroke="midnightblue" d="M463.34,-224.37C474.51,-206.3 500.55,-164.18 515.3,-140.31"/>
<polygon fill="midnightblue" stroke="midnightblue" points="518.41,-141.94 520.69,-131.59 512.45,-138.26 518.41,-141.94"/>
</g>
<!-- Node22&#45;&gt;Node12 -->
<g id="edge39" class="edge">
<title>Node22&#45;&gt;Node12</title>
<path fill="none" stroke="midnightblue" d="M497.55,-224.48C537.23,-215.81 600.03,-201.72 654,-188 722.68,-170.55 802.05,-147.86 848.18,-134.42"/>
<polygon fill="midnightblue" stroke="midnightblue" points="849.44,-137.7 858.06,-131.54 847.48,-130.98 849.44,-137.7"/>
</g>
<!-- Node22&#45;&gt;Node17 -->
<g id="edge40" class="edge">
<title>Node22&#45;&gt;Node17</title>
<path fill="none" stroke="midnightblue" d="M504.23,-225.4C578.94,-213.12 719,-190.06 730,-188 731.27,-187.76 732.55,-187.52 733.85,-187.27"/>
<polygon fill="midnightblue" stroke="midnightblue" points="734.77,-190.65 743.89,-185.27 733.4,-183.79 734.77,-190.65"/>
</g>
<!-- Node23 -->
<g id="node23" class="node">
<title>Node23</title>
<g id="a_node23"><a xlink:href="timedependentparameter_8hpp.html" target="_top" xlink:title="MODEL::TimeDependentParameter source file.">
<polygon fill="none" stroke="black" points="204,-168.5 204,-187.5 346,-187.5 346,-168.5 204,-168.5"/>
<text text-anchor="middle" x="275" y="-175.5" font-family="Helvetica,sans-Serif" font-size="10.00">timedependentparameter.hpp</text>
</a>
</g>
</g>
<!-- Node22&#45;&gt;Node23 -->
<g id="edge41" class="edge">
<title>Node22&#45;&gt;Node23</title>
<path fill="none" stroke="midnightblue" d="M429,-224.44C397.82,-215.24 348.07,-200.56 313.59,-190.39"/>
<polygon fill="midnightblue" stroke="midnightblue" points="314.44,-186.99 303.86,-187.52 312.46,-193.7 314.44,-186.99"/>
</g>
<!-- Node23&#45;&gt;Node3 -->
<g id="edge43" class="edge">
<title>Node23&#45;&gt;Node3</title>
<path fill="none" stroke="midnightblue" d="M266.73,-168.35C258.89,-159.75 247.26,-145.85 240,-132 222.18,-97.99 211,-54.17 205.69,-29.68"/>
<polygon fill="midnightblue" stroke="midnightblue" points="209.06,-28.7 203.6,-19.62 202.21,-30.12 209.06,-28.7"/>
</g>
<!-- Node23&#45;&gt;Node19 -->
<g id="edge45" class="edge">
<title>Node23&#45;&gt;Node19</title>
<path fill="none" stroke="midnightblue" d="M283.63,-168.37C302.11,-149.89 345.71,-106.29 369.26,-82.74"/>
<polygon fill="midnightblue" stroke="midnightblue" points="371.81,-85.14 376.41,-75.59 366.86,-80.19 371.81,-85.14"/>
</g>
<!-- Node23&#45;&gt;Node21 -->
<g id="edge42" class="edge">
<title>Node23&#45;&gt;Node21</title>
<path fill="none" stroke="midnightblue" d="M296.23,-168.44C318.38,-159.52 353.32,-145.44 378.44,-135.32"/>
<polygon fill="midnightblue" stroke="midnightblue" points="379.9,-138.5 387.87,-131.52 377.28,-132.01 379.9,-138.5"/>
</g>
<!-- Node24 -->
<g id="node24" class="node">
<title>Node24</title>
<g id="a_node24"><a xlink:title=" ">
<polygon fill="none" stroke="#bfbfbf" points="249.5,-112.5 249.5,-131.5 300.5,-131.5 300.5,-112.5 249.5,-112.5"/>
<text text-anchor="middle" x="275" y="-119.5" font-family="Helvetica,sans-Serif" font-size="10.00">numeric</text>
</a>
</g>
</g>
<!-- Node23&#45;&gt;Node24 -->
<g id="edge44" class="edge">
<title>Node23&#45;&gt;Node24</title>
<path fill="none" stroke="midnightblue" d="M275,-168.08C275,-161.01 275,-150.86 275,-141.99"/>
<polygon fill="midnightblue" stroke="midnightblue" points="278.5,-141.75 275,-131.75 271.5,-141.75 278.5,-141.75"/>
</g>
<!-- Node25&#45;&gt;Node10 -->
<g id="edge47" class="edge">
<title>Node25&#45;&gt;Node10</title>
<path fill="none" stroke="midnightblue" d="M210.43,-224.47C250.11,-216.93 306.94,-204.55 355,-188 374.93,-181.14 378.48,-175.95 398,-168 428.43,-155.61 463.7,-143.36 489.5,-134.78"/>
<polygon fill="midnightblue" stroke="midnightblue" points="490.84,-138.02 499.24,-131.56 488.65,-131.37 490.84,-138.02"/>
</g>
<!-- Node25&#45;&gt;Node12 -->
<g id="edge48" class="edge">
<title>Node25&#45;&gt;Node12</title>
<path fill="none" stroke="midnightblue" d="M208.03,-224.5C280.48,-211.53 423.83,-186.37 546,-168 635.77,-154.5 739.18,-141.17 808.36,-132.56"/>
<polygon fill="midnightblue" stroke="midnightblue" points="808.82,-136.03 818.32,-131.33 807.96,-129.08 808.82,-136.03"/>
</g>
<!-- Node25&#45;&gt;Node17 -->
<g id="edge49" class="edge">
<title>Node25&#45;&gt;Node17</title>
<path fill="none" stroke="midnightblue" d="M217.5,-225.09C220.71,-224.71 223.9,-224.34 227,-224 416.63,-203.27 644.25,-187.4 733.95,-181.5"/>
<polygon fill="midnightblue" stroke="midnightblue" points="734.19,-184.99 743.94,-180.85 733.74,-178.01 734.19,-184.99"/>
</g>
<!-- Node25&#45;&gt;Node23 -->
<g id="edge50" class="edge">
<title>Node25&#45;&gt;Node23</title>
<path fill="none" stroke="midnightblue" d="M179.06,-224.44C197.57,-215.68 226.58,-201.94 247.86,-191.86"/>
<polygon fill="midnightblue" stroke="midnightblue" points="249.48,-194.96 257.02,-187.52 246.49,-188.63 249.48,-194.96"/>
</g>
<!-- Node26&#45;&gt;Node10 -->
<g id="edge52" class="edge">
<title>Node26&#45;&gt;Node10</title>
<path fill="none" stroke="midnightblue" d="M973.8,-224.43C940.47,-210.62 871.61,-183.41 811,-168 741.73,-150.39 661.14,-138.43 603.37,-131.29"/>
<polygon fill="midnightblue" stroke="midnightblue" points="603.57,-127.79 593.22,-130.06 602.72,-134.74 603.57,-127.79"/>
</g>
<!-- Node26&#45;&gt;Node12 -->
<g id="edge53" class="edge">
<title>Node26&#45;&gt;Node12</title>
<path fill="none" stroke="midnightblue" d="M986.75,-224.34C976.02,-211.65 955.11,-187.39 936,-168 925.97,-157.82 914.18,-146.97 904.69,-138.47"/>
<polygon fill="midnightblue" stroke="midnightblue" points="906.84,-135.7 897.03,-131.69 902.19,-140.94 906.84,-135.7"/>
</g>
<!-- Node26&#45;&gt;Node17 -->
<g id="edge54" class="edge">
<title>Node26&#45;&gt;Node17</title>
<path fill="none" stroke="midnightblue" d="M958.98,-224.44C918.95,-214.66 853.61,-198.7 811.99,-188.53"/>
<polygon fill="midnightblue" stroke="midnightblue" points="812.75,-185.11 802.21,-186.14 811.09,-191.91 812.75,-185.11"/>
</g>
<!-- Node27&#45;&gt;Node10 -->
<g id="edge56" class="edge">
<title>Node27&#45;&gt;Node10</title>
<path fill="none" stroke="midnightblue" d="M331.56,-224.37C368.3,-205.21 456.88,-159.04 500.65,-136.22"/>
<polygon fill="midnightblue" stroke="midnightblue" points="502.27,-139.32 509.52,-131.59 499.03,-133.11 502.27,-139.32"/>
</g>
<!-- Node27&#45;&gt;Node12 -->
<g id="edge57" class="edge">
<title>Node27&#45;&gt;Node12</title>
<path fill="none" stroke="midnightblue" d="M359.41,-224.46C462.88,-204.56 719.76,-155.16 832.49,-133.48"/>
<polygon fill="midnightblue" stroke="midnightblue" points="833.46,-136.86 842.62,-131.53 832.14,-129.99 833.46,-136.86"/>
</g>
<!-- Node27&#45;&gt;Node17 -->
<g id="edge58" class="edge">
<title>Node27&#45;&gt;Node17</title>
<path fill="none" stroke="midnightblue" d="M387.32,-224.47C485.3,-212.92 656.81,-192.7 733.73,-183.63"/>
<polygon fill="midnightblue" stroke="midnightblue" points="734.41,-187.07 743.94,-182.43 733.59,-180.12 734.41,-187.07"/>
</g>
<!-- Node27&#45;&gt;Node23 -->
<g id="edge59" class="edge">
<title>Node27&#45;&gt;Node23</title>
<path fill="none" stroke="midnightblue" d="M308.39,-224.08C302.74,-216.46 294.46,-205.26 287.55,-195.94"/>
<polygon fill="midnightblue" stroke="midnightblue" points="290.25,-193.7 281.48,-187.75 284.62,-197.87 290.25,-193.7"/>
</g>
<!-- Node28&#45;&gt;Node10 -->
<g id="edge61" class="edge">
<title>Node28&#45;&gt;Node10</title>
<path fill="none" stroke="midnightblue" d="M609.86,-224.37C594.71,-206.05 559.13,-163.05 539.54,-139.36"/>
<polygon fill="midnightblue" stroke="midnightblue" points="542.18,-137.07 533.11,-131.59 536.78,-141.53 542.18,-137.07"/>
</g>
<!-- Node28&#45;&gt;Node12 -->
<g id="edge62" class="edge">
<title>Node28&#45;&gt;Node12</title>
<path fill="none" stroke="midnightblue" d="M690.33,-224.47C727.9,-218.04 773.5,-206.94 811,-188 835.32,-175.72 858.38,-154.06 872.59,-139.15"/>
<polygon fill="midnightblue" stroke="midnightblue" points="875.3,-141.37 879.53,-131.66 870.16,-136.62 875.3,-141.37"/>
</g>
<!-- Node28&#45;&gt;Node17 -->
<g id="edge63" class="edge">
<title>Node28&#45;&gt;Node17</title>
<path fill="none" stroke="midnightblue" d="M641.72,-224.44C667.85,-215.4 709.26,-201.06 738.58,-190.92"/>
<polygon fill="midnightblue" stroke="midnightblue" points="740.09,-194.1 748.4,-187.52 737.8,-187.48 740.09,-194.1"/>
</g>
<!-- Node28&#45;&gt;Node23 -->
<g id="edge64" class="edge">
<title>Node28&#45;&gt;Node23</title>
<path fill="none" stroke="midnightblue" d="M562.81,-224.44C502.02,-214.85 403.51,-199.29 338.99,-189.1"/>
<polygon fill="midnightblue" stroke="midnightblue" points="339.36,-185.62 328.94,-187.52 338.27,-192.53 339.36,-185.62"/>
</g>
<!-- Node29&#45;&gt;Node2 -->
<g id="edge66" class="edge">
<title>Node29&#45;&gt;Node2</title>
<path fill="none" stroke="midnightblue" d="M1379.9,-168.31C1348.89,-141.64 1254.8,-60.72 1215.04,-26.52"/>
<polygon fill="midnightblue" stroke="midnightblue" points="1216.87,-23.47 1207,-19.61 1212.3,-28.78 1216.87,-23.47"/>
</g>
</g>
</svg>
