<?xml version="1.0" encoding="UTF-8" standalone="no"?>
<!DOCTYPE svg PUBLIC "-//W3C//DTD SVG 1.1//EN"
 "http://www.w3.org/Graphics/SVG/1.1/DTD/svg11.dtd">
<!-- Generated by graphviz version 7.0.5 (20221223.1930)
 -->
<!-- Title: io/csvwriter.hpp Pages: 1 -->
<svg width="2449pt" height="412pt"
 viewBox="0.00 0.00 2448.55 412.00" xmlns="http://www.w3.org/2000/svg" xmlns:xlink="http://www.w3.org/1999/xlink">
<g id="graph0" class="graph" transform="scale(1 1) rotate(0) translate(4 408)">
<title>io/csvwriter.hpp</title>
<!-- Node1 -->
<g id="node1" class="node">
<title>Node1</title>
<g id="a_node1"><a xlink:title="IO::write_csv source file.">
<polygon fill="#999999" stroke="#666666" points="852.5,-404 767.5,-404 767.5,-385 852.5,-385 852.5,-404"/>
<text text-anchor="middle" x="810" y="-392" font-family="Helvetica,sans-Serif" font-size="10.00">io/csvwriter.hpp</text>
</a>
</g>
</g>
<!-- Node2 -->
<g id="node2" class="node">
<title>Node2</title>
<g id="a_node2"><a xlink:title=" ">
<polygon fill="#e0e0e0" stroke="#999999" points="50,-349 0,-349 0,-330 50,-330 50,-349"/>
<text text-anchor="middle" x="25" y="-337" font-family="Helvetica,sans-Serif" font-size="10.00">fstream</text>
</a>
</g>
</g>
<!-- Node1&#45;&gt;Node2 -->
<g id="edge1" class="edge">
<title>Node1&#45;&gt;Node2</title>
<path fill="none" stroke="#63b8ff" d="M767.3,-393.26C652.82,-392.13 329.73,-385.66 64,-349 63.18,-348.89 62.34,-348.76 61.51,-348.64"/>
<polygon fill="#63b8ff" stroke="#63b8ff" points="62.44,-345.25 51.98,-346.92 61.2,-352.14 62.44,-345.25"/>
</g>
<!-- Node3 -->
<g id="node3" class="node">
<title>Node3</title>
<g id="a_node3"><a xlink:title=" ">
<polygon fill="#e0e0e0" stroke="#999999" points="217.5,-19 176.5,-19 176.5,0 217.5,0 217.5,-19"/>
<text text-anchor="middle" x="197" y="-7" font-family="Helvetica,sans-Serif" font-size="10.00">string</text>
</a>
</g>
</g>
<!-- Node1&#45;&gt;Node3 -->
<g id="edge2" class="edge">
<title>Node1&#45;&gt;Node3</title>
<path fill="none" stroke="#63b8ff" d="M767.21,-391.73C610.64,-384.7 78,-355.63 78,-285.5 78,-285.5 78,-285.5 78,-118.5 78,-70.97 130.71,-38.87 165.97,-22.71"/>
<polygon fill="#63b8ff" stroke="#63b8ff" points="167.12,-26.03 174.88,-18.82 164.32,-19.61 167.12,-26.03"/>
</g>
<!-- Node4 -->
<g id="node4" class="node">
<title>Node4</title>
<g id="a_node4"><a xlink:title=" ">
<polygon fill="#e0e0e0" stroke="#999999" points="1149,-19 1105,-19 1105,0 1149,0 1149,-19"/>
<text text-anchor="middle" x="1127" y="-7" font-family="Helvetica,sans-Serif" font-size="10.00">vector</text>
</a>
</g>
</g>
<!-- Node1&#45;&gt;Node4 -->
<g id="edge3" class="edge">
<title>Node1&#45;&gt;Node4</title>
<path fill="none" stroke="#63b8ff" d="M852.93,-392.81C1040.33,-389.64 1787.67,-375.58 2021,-349 2169.4,-332.1 2351,-434.86 2351,-285.5 2351,-285.5 2351,-285.5 2351,-118.5 2351,-102.56 2686.43,-133.26 2052,-55 1705.67,-12.28 1281.69,-10.01 1160.68,-10.31"/>
<polygon fill="#63b8ff" stroke="#63b8ff" points="1160.8,-6.81 1150.81,-10.34 1160.82,-13.81 1160.8,-6.81"/>
</g>
<!-- Node5 -->
<g id="node5" class="node">
<title>Node5</title>
<g id="a_node5"><a xlink:href="state_8hpp.html" target="_top" xlink:title="ALGEBRA::State source file.">
<polygon fill="white" stroke="#666666" points="2260,-129 2162,-129 2162,-110 2260,-110 2260,-129"/>
<text text-anchor="middle" x="2211" y="-117" font-family="Helvetica,sans-Serif" font-size="10.00">../algebra/state.hpp</text>
</a>
</g>
</g>
<!-- Node1&#45;&gt;Node5 -->
<g id="edge4" class="edge">
<title>Node1&#45;&gt;Node5</title>
<path fill="none" stroke="#63b8ff" d="M852.66,-392.64C1093.75,-387.54 2275,-358.78 2275,-285.5 2275,-285.5 2275,-285.5 2275,-228.5 2275,-192.02 2247.64,-157.08 2228.7,-137.26"/>
<polygon fill="#63b8ff" stroke="#63b8ff" points="2231.33,-134.94 2221.79,-130.33 2226.38,-139.88 2231.33,-134.94"/>
</g>
<!-- Node6 -->
<g id="node6" class="node">
<title>Node6</title>
<g id="a_node6"><a xlink:href="startswith_8hpp.html" target="_top" xlink:title="HELPERS::startswith source file.">
<polygon fill="white" stroke="#666666" points="225.5,-184 106.5,-184 106.5,-165 225.5,-165 225.5,-184"/>
<text text-anchor="middle" x="166" y="-172" font-family="Helvetica,sans-Serif" font-size="10.00">../helpers/startswith.hpp</text>
</a>
</g>
</g>
<!-- Node1&#45;&gt;Node6 -->
<g id="edge5" class="edge">
<title>Node1&#45;&gt;Node6</title>
<path fill="none" stroke="#63b8ff" d="M767.38,-390.54C650.33,-381.71 326.86,-352.5 240,-294 204.24,-269.91 182.46,-222.14 172.49,-195.19"/>
<polygon fill="#63b8ff" stroke="#63b8ff" points="175.83,-194.14 169.23,-185.86 169.22,-196.45 175.83,-194.14"/>
</g>
<!-- Node7 -->
<g id="node7" class="node">
<title>Node7</title>
<g id="a_node7"><a xlink:href="model_8hpp.html" target="_top" xlink:title="MODEL::Model source file.">
<polygon fill="white" stroke="#666666" points="1472,-349 1374,-349 1374,-330 1472,-330 1472,-349"/>
<text text-anchor="middle" x="1423" y="-337" font-family="Helvetica,sans-Serif" font-size="10.00">../model/model.hpp</text>
</a>
</g>
</g>
<!-- Node1&#45;&gt;Node7 -->
<g id="edge7" class="edge">
<title>Node1&#45;&gt;Node7</title>
<path fill="none" stroke="#63b8ff" d="M852.62,-389.82C959.38,-380.58 1238.59,-356.44 1362.39,-345.74"/>
<polygon fill="#63b8ff" stroke="#63b8ff" points="1362.35,-349.26 1372.01,-344.91 1361.75,-342.28 1362.35,-349.26"/>
</g>
<!-- Node6&#45;&gt;Node3 -->
<g id="edge6" class="edge">
<title>Node6&#45;&gt;Node3</title>
<path fill="none" stroke="#63b8ff" d="M167.67,-164.74C172.48,-139.42 186.5,-65.72 193.26,-30.16"/>
<polygon fill="#63b8ff" stroke="#63b8ff" points="196.61,-31.27 195.04,-20.79 189.74,-29.96 196.61,-31.27"/>
</g>
<!-- Node7&#45;&gt;Node4 -->
<g id="edge11" class="edge">
<title>Node7&#45;&gt;Node4</title>
<path fill="none" stroke="#63b8ff" d="M1472.3,-337.85C1616.71,-335.6 2036.98,-326.37 2170,-294 2237.57,-277.56 2313,-300.04 2313,-230.5 2313,-230.5 2313,-230.5 2313,-118.5 2313,-59.01 1354.1,-19.18 1160.74,-11.76"/>
<polygon fill="#63b8ff" stroke="#63b8ff" points="1161.01,-8.27 1150.88,-11.38 1160.74,-15.26 1161.01,-8.27"/>
</g>
<!-- Node8 -->
<g id="node8" class="node">
<title>Node8</title>
<g id="a_node8"><a xlink:title=" ">
<polygon fill="#e0e0e0" stroke="#999999" points="1620,-294 1564,-294 1564,-275 1620,-275 1620,-294"/>
<text text-anchor="middle" x="1592" y="-282" font-family="Helvetica,sans-Serif" font-size="10.00">algorithm</text>
</a>
</g>
</g>
<!-- Node7&#45;&gt;Node8 -->
<g id="edge8" class="edge">
<title>Node7&#45;&gt;Node8</title>
<path fill="none" stroke="#63b8ff" d="M1451.67,-329.51C1479.51,-320.78 1522,-307.45 1552.93,-297.75"/>
<polygon fill="#63b8ff" stroke="#63b8ff" points="1553.82,-301.14 1562.31,-294.81 1551.72,-294.46 1553.82,-301.14"/>
</g>
<!-- Node9 -->
<g id="node9" class="node">
<title>Node9</title>
<g id="a_node9"><a xlink:title=" ">
<polygon fill="#e0e0e0" stroke="#999999" points="1667.5,-294 1638.5,-294 1638.5,-275 1667.5,-275 1667.5,-294"/>
<text text-anchor="middle" x="1653" y="-282" font-family="Helvetica,sans-Serif" font-size="10.00">list</text>
</a>
</g>
</g>
<!-- Node7&#45;&gt;Node9 -->
<g id="edge9" class="edge">
<title>Node7&#45;&gt;Node9</title>
<path fill="none" stroke="#63b8ff" d="M1472.13,-329.72C1511.68,-322.24 1568.84,-310.51 1627.21,-294.2"/>
<polygon fill="#63b8ff" stroke="#63b8ff" points="1628,-297.62 1636.66,-291.52 1626.08,-290.88 1628,-297.62"/>
</g>
<!-- Node10 -->
<g id="node10" class="node">
<title>Node10</title>
<g id="a_node10"><a xlink:title=" ">
<polygon fill="#e0e0e0" stroke="#999999" points="1736.5,-294 1685.5,-294 1685.5,-275 1736.5,-275 1736.5,-294"/>
<text text-anchor="middle" x="1711" y="-282" font-family="Helvetica,sans-Serif" font-size="10.00">memory</text>
</a>
</g>
</g>
<!-- Node7&#45;&gt;Node10 -->
<g id="edge10" class="edge">
<title>Node7&#45;&gt;Node10</title>
<path fill="none" stroke="#63b8ff" d="M1472.37,-330.92C1521.29,-323.18 1598.6,-310.3 1673.96,-294.54"/>
<polygon fill="#63b8ff" stroke="#63b8ff" points="1674.51,-297.99 1683.57,-292.5 1673.07,-291.15 1674.51,-297.99"/>
</g>
<!-- Node11 -->
<g id="node11" class="node">
<title>Node11</title>
<g id="a_node11"><a xlink:href="sparsesystem_8hpp.html" target="_top" xlink:title="ALGEBRA::SparseSystem source file.">
<polygon fill="white" stroke="#666666" points="1472.5,-129 1335.5,-129 1335.5,-110 1472.5,-110 1472.5,-129"/>
<text text-anchor="middle" x="1404" y="-117" font-family="Helvetica,sans-Serif" font-size="10.00">../algebra/sparsesystem.hpp</text>
</a>
</g>
</g>
<!-- Node7&#45;&gt;Node11 -->
<g id="edge12" class="edge">
<title>Node7&#45;&gt;Node11</title>
<path fill="none" stroke="#63b8ff" d="M1427.01,-329.79C1439.26,-316.19 1471.42,-289.91 1503,-275 1561.22,-247.52 1672.84,-273.48 1637,-220 1602.71,-168.83 1536.84,-143.95 1483.81,-131.87"/>
<polygon fill="#63b8ff" stroke="#63b8ff" points="1484.7,-128.48 1474.19,-129.8 1483.23,-135.32 1484.7,-128.48"/>
</g>
<!-- Node15 -->
<g id="node15" class="node">
<title>Node15</title>
<g id="a_node15"><a xlink:href="bloodvessel_8hpp.html" target="_top" xlink:title="MODEL::BloodVessel source file.">
<polygon fill="white" stroke="#666666" points="2004.5,-239 1881.5,-239 1881.5,-220 2004.5,-220 2004.5,-239"/>
<text text-anchor="middle" x="1943" y="-227" font-family="Helvetica,sans-Serif" font-size="10.00">../model/bloodvessel.hpp</text>
</a>
</g>
</g>
<!-- Node7&#45;&gt;Node15 -->
<g id="edge17" class="edge">
<title>Node7&#45;&gt;Node15</title>
<path fill="none" stroke="#63b8ff" d="M1472.41,-337.1C1591.32,-333.3 1886.16,-321.22 1921,-294 1934.23,-283.67 1939.54,-264.89 1941.65,-250.43"/>
<polygon fill="#63b8ff" stroke="#63b8ff" points="1945.11,-250.96 1942.65,-240.66 1938.15,-250.25 1945.11,-250.96"/>
</g>
<!-- Node17 -->
<g id="node17" class="node">
<title>Node17</title>
<g id="a_node17"><a xlink:href="block_8hpp.html" target="_top" xlink:title="MODEL::Block source file.">
<polygon fill="white" stroke="#666666" points="1156,-184 1098,-184 1098,-165 1156,-165 1156,-184"/>
<text text-anchor="middle" x="1127" y="-172" font-family="Helvetica,sans-Serif" font-size="10.00">block.hpp</text>
</a>
</g>
</g>
<!-- Node7&#45;&gt;Node17 -->
<g id="edge78" class="edge">
<title>Node7&#45;&gt;Node17</title>
<path fill="none" stroke="#63b8ff" d="M1373.63,-332.94C1280.71,-321.33 1085.56,-291.19 1046,-239 1029.97,-217.85 1059.8,-199.87 1087.68,-188.5"/>
<polygon fill="#63b8ff" stroke="#63b8ff" points="1088.68,-191.86 1096.76,-185.01 1086.17,-185.33 1088.68,-191.86"/>
</g>
<!-- Node19 -->
<g id="node19" class="node">
<title>Node19</title>
<g id="a_node19"><a xlink:href="dofhandler_8hpp.html" target="_top" xlink:title="MODEL::DOFHandler source file.">
<polygon fill="white" stroke="#666666" points="838,-74 758,-74 758,-55 838,-55 838,-74"/>
<text text-anchor="middle" x="798" y="-62" font-family="Helvetica,sans-Serif" font-size="10.00">dofhandler.hpp</text>
</a>
</g>
</g>
<!-- Node7&#45;&gt;Node19 -->
<g id="edge80" class="edge">
<title>Node7&#45;&gt;Node19</title>
<path fill="none" stroke="#63b8ff" d="M1373.68,-339.04C1155.99,-340.8 292,-340.84 292,-230.5 292,-230.5 292,-230.5 292,-173.5 292,-81.28 617.55,-67.51 746.4,-65.68"/>
<polygon fill="#63b8ff" stroke="#63b8ff" points="746.4,-69.18 756.36,-65.56 746.32,-62.18 746.4,-69.18"/>
</g>
<!-- Node20 -->
<g id="node20" class="node">
<title>Node20</title>
<g id="a_node20"><a xlink:href="node_8hpp.html" target="_top" xlink:title="MODEL::Node source file.">
<polygon fill="white" stroke="#666666" points="264,-129 208,-129 208,-110 264,-110 264,-129"/>
<text text-anchor="middle" x="236" y="-117" font-family="Helvetica,sans-Serif" font-size="10.00">node.hpp</text>
</a>
</g>
</g>
<!-- Node7&#45;&gt;Node20 -->
<g id="edge81" class="edge">
<title>Node7&#45;&gt;Node20</title>
<path fill="none" stroke="#63b8ff" d="M1373.69,-338.23C1159.77,-336.84 320.95,-329.17 278,-294 254.36,-274.65 242.22,-182.21 237.89,-140.73"/>
<polygon fill="#63b8ff" stroke="#63b8ff" points="241.39,-140.53 236.92,-130.93 234.42,-141.22 241.39,-140.53"/>
</g>
<!-- Node21 -->
<g id="node21" class="node">
<title>Node21</title>
<g id="a_node21"><a xlink:href="bloodvesseljunction_8hpp.html" target="_top" xlink:title="MODEL::BloodVesselJunction source file.">
<polygon fill="white" stroke="#666666" points="1911.5,-294 1754.5,-294 1754.5,-275 1911.5,-275 1911.5,-294"/>
<text text-anchor="middle" x="1833" y="-282" font-family="Helvetica,sans-Serif" font-size="10.00">../model/bloodvesseljunction.hpp</text>
</a>
</g>
</g>
<!-- Node7&#45;&gt;Node21 -->
<g id="edge32" class="edge">
<title>Node7&#45;&gt;Node21</title>
<path fill="none" stroke="#63b8ff" d="M1472.46,-332.11C1541.89,-323.13 1669.08,-306.69 1752.33,-295.93"/>
<polygon fill="#63b8ff" stroke="#63b8ff" points="1752.55,-299.43 1762.02,-294.68 1751.65,-292.49 1752.55,-299.43"/>
</g>
<!-- Node22 -->
<g id="node22" class="node">
<title>Node22</title>
<g id="a_node22"><a xlink:href="blocktype_8hpp.html" target="_top" xlink:title="MODEL::BlockType source file.">
<polygon fill="white" stroke="#666666" points="1787,-239 1711,-239 1711,-220 1787,-220 1787,-239"/>
<text text-anchor="middle" x="1749" y="-227" font-family="Helvetica,sans-Serif" font-size="10.00">blocktype.hpp</text>
</a>
</g>
</g>
<!-- Node7&#45;&gt;Node22 -->
<g id="edge79" class="edge">
<title>Node7&#45;&gt;Node22</title>
<path fill="none" stroke="#63b8ff" d="M1440.94,-329.59C1474.27,-313.09 1543.42,-279.06 1555,-275 1602.94,-258.21 1659.78,-246.03 1699.5,-238.7"/>
<polygon fill="#63b8ff" stroke="#63b8ff" points="1700.03,-242.16 1709.25,-236.94 1698.79,-235.27 1700.03,-242.16"/>
</g>
<!-- Node23 -->
<g id="node23" class="node">
<title>Node23</title>
<g id="a_node23"><a xlink:href="closedloop_r_c_rbc_8hpp.html" target="_top" xlink:title="MODEL::ClosedLoopRCRBC source file.">
<polygon fill="white" stroke="#666666" points="1636.5,-239 1487.5,-239 1487.5,-220 1636.5,-220 1636.5,-239"/>
<text text-anchor="middle" x="1562" y="-227" font-family="Helvetica,sans-Serif" font-size="10.00">../model/closedloopRCRbc.hpp</text>
</a>
</g>
</g>
<!-- Node7&#45;&gt;Node23 -->
<g id="edge37" class="edge">
<title>Node7&#45;&gt;Node23</title>
<path fill="none" stroke="#63b8ff" d="M1427.07,-329.59C1433.6,-316.17 1447.54,-290.7 1466,-275 1482.3,-261.14 1503.64,-250.68 1522.06,-243.39"/>
<polygon fill="#63b8ff" stroke="#63b8ff" points="1523.25,-246.69 1531.38,-239.9 1520.79,-240.13 1523.25,-246.69"/>
</g>
<!-- Node24 -->
<g id="node24" class="node">
<title>Node24</title>
<g id="a_node24"><a xlink:href="closedloopcoronarybc_8hpp.html" target="_top" xlink:title="MODEL::ClosedLoopCoronaryBC source file.">
<polygon fill="white" stroke="#666666" points="2139.5,-294 1974.5,-294 1974.5,-275 2139.5,-275 2139.5,-294"/>
<text text-anchor="middle" x="2057" y="-282" font-family="Helvetica,sans-Serif" font-size="10.00">../model/closedloopcoronarybc.hpp</text>
</a>
</g>
</g>
<!-- Node7&#45;&gt;Node24 -->
<g id="edge40" class="edge">
<title>Node7&#45;&gt;Node24</title>
<path fill="none" stroke="#63b8ff" d="M1472.48,-334.36C1577.93,-325.55 1826.26,-304.79 1962.86,-293.37"/>
<polygon fill="#63b8ff" stroke="#63b8ff" points="1962.93,-296.88 1972.6,-292.56 1962.34,-289.9 1962.93,-296.88"/>
</g>
<!-- Node25 -->
<g id="node25" class="node">
<title>Node25</title>
<g id="a_node25"><a xlink:href="closedloopheartpulmonary_8hpp.html" target="_top" xlink:title="MODEL::ClosedLoopHeartPulmonary source file.">
<polygon fill="white" stroke="#666666" points="2246.5,-239 2099.5,-239 2099.5,-220 2246.5,-220 2246.5,-239"/>
<text text-anchor="middle" x="2173" y="-227" font-family="Helvetica,sans-Serif" font-size="10.00">closedloopheartpulmonary.hpp</text>
</a>
</g>
</g>
<!-- Node7&#45;&gt;Node25 -->
<g id="edge48" class="edge">
<title>Node7&#45;&gt;Node25</title>
<path fill="none" stroke="#63b8ff" d="M1472.44,-338.53C1627.13,-338.22 2094.81,-333.95 2149,-294 2162.65,-283.94 2168.53,-265.13 2171.07,-250.59"/>
<polygon fill="#63b8ff" stroke="#63b8ff" points="2174.54,-251.1 2172.36,-240.73 2167.6,-250.19 2174.54,-251.1"/>
</g>
<!-- Node26 -->
<g id="node26" class="node">
<title>Node26</title>
<g id="a_node26"><a xlink:href="flowreferencebc_8hpp.html" target="_top" xlink:title="MODEL::FlowReferenceBC source file.">
<polygon fill="white" stroke="#666666" points="998,-239 858,-239 858,-220 998,-220 998,-239"/>
<text text-anchor="middle" x="928" y="-227" font-family="Helvetica,sans-Serif" font-size="10.00">../model/flowreferencebc.hpp</text>
</a>
</g>
</g>
<!-- Node7&#45;&gt;Node26 -->
<g id="edge49" class="edge">
<title>Node7&#45;&gt;Node26</title>
<path fill="none" stroke="#63b8ff" d="M1373.74,-336.45C1279.37,-331.99 1076.71,-319.67 1012,-294 985.58,-283.52 960.26,-262.35 944.46,-247.33"/>
<polygon fill="#63b8ff" stroke="#63b8ff" points="946.98,-244.91 937.4,-240.4 942.08,-249.9 946.98,-244.91"/>
</g>
<!-- Node27 -->
<g id="node27" class="node">
<title>Node27</title>
<g id="a_node27"><a xlink:href="parameter_8hpp.html" target="_top" xlink:title="MODEL::Parameter source file.">
<polygon fill="white" stroke="#666666" points="815,-184 737,-184 737,-165 815,-165 815,-184"/>
<text text-anchor="middle" x="776" y="-172" font-family="Helvetica,sans-Serif" font-size="10.00">parameter.hpp</text>
</a>
</g>
</g>
<!-- Node7&#45;&gt;Node27 -->
<g id="edge82" class="edge">
<title>Node7&#45;&gt;Node27</title>
<path fill="none" stroke="#63b8ff" d="M1373.73,-337.89C1171.93,-334.85 415.98,-318.23 349,-239 299.49,-180.44 602.01,-174.92 725.37,-175.07"/>
<polygon fill="#63b8ff" stroke="#63b8ff" points="725.21,-178.57 735.22,-175.1 725.23,-171.57 725.21,-178.57"/>
</g>
<!-- Node29 -->
<g id="node29" class="node">
<title>Node29</title>
<g id="a_node29"><a xlink:href="junction_8hpp.html" target="_top" xlink:title="MODEL::Junction source file.">
<polygon fill="white" stroke="#666666" points="1159.5,-239 1054.5,-239 1054.5,-220 1159.5,-220 1159.5,-239"/>
<text text-anchor="middle" x="1107" y="-227" font-family="Helvetica,sans-Serif" font-size="10.00">../model/junction.hpp</text>
</a>
</g>
</g>
<!-- Node7&#45;&gt;Node29 -->
<g id="edge57" class="edge">
<title>Node7&#45;&gt;Node29</title>
<path fill="none" stroke="#63b8ff" d="M1396.87,-329.57C1340.68,-310.36 1208.21,-265.09 1143.65,-243.03"/>
<polygon fill="#63b8ff" stroke="#63b8ff" points="1145.19,-239.85 1134.59,-239.93 1142.92,-246.48 1145.19,-239.85"/>
</g>
<!-- Node30 -->
<g id="node30" class="node">
<title>Node30</title>
<g id="a_node30"><a xlink:href="openloopcoronarybc_8hpp.html" target="_top" xlink:title="MODEL::OpenLoopCoronaryBC source file.">
<polygon fill="white" stroke="#666666" points="516,-239 358,-239 358,-220 516,-220 516,-239"/>
<text text-anchor="middle" x="437" y="-227" font-family="Helvetica,sans-Serif" font-size="10.00">../model/openloopcoronarybc.hpp</text>
</a>
</g>
</g>
<!-- Node7&#45;&gt;Node30 -->
<g id="edge60" class="edge">
<title>Node7&#45;&gt;Node30</title>
<path fill="none" stroke="#63b8ff" d="M1373.89,-336.71C1268.35,-332.49 1012.17,-320.23 799,-294 688.92,-280.46 561.43,-256.03 490.93,-241.74"/>
<polygon fill="#63b8ff" stroke="#63b8ff" points="491.68,-238.32 481.18,-239.76 490.28,-245.18 491.68,-238.32"/>
</g>
<!-- Node31 -->
<g id="node31" class="node">
<title>Node31</title>
<g id="a_node31"><a xlink:href="pressurereferencebc_8hpp.html" target="_top" xlink:title="MODEL::PressureReferenceBC source file.">
<polygon fill="white" stroke="#666666" points="694,-239 534,-239 534,-220 694,-220 694,-239"/>
<text text-anchor="middle" x="614" y="-227" font-family="Helvetica,sans-Serif" font-size="10.00">../model/pressurereferencebc.hpp</text>
</a>
</g>
</g>
<!-- Node7&#45;&gt;Node31 -->
<g id="edge64" class="edge">
<title>Node7&#45;&gt;Node31</title>
<path fill="none" stroke="#63b8ff" d="M1373.52,-336.54C1280.11,-332.35 1071.6,-320.64 898,-294 812.04,-280.81 713.27,-256.65 657.79,-242.23"/>
<polygon fill="#63b8ff" stroke="#63b8ff" points="658.98,-238.93 648.42,-239.78 657.21,-245.7 658.98,-238.93"/>
</g>
<!-- Node32 -->
<g id="node32" class="node">
<title>Node32</title>
<g id="a_node32"><a xlink:href="resistancebc_8hpp.html" target="_top" xlink:title="MODEL::ResistanceBC source file.">
<polygon fill="white" stroke="#666666" points="839.5,-239 712.5,-239 712.5,-220 839.5,-220 839.5,-239"/>
<text text-anchor="middle" x="776" y="-227" font-family="Helvetica,sans-Serif" font-size="10.00">../model/resistancebc.hpp</text>
</a>
</g>
</g>
<!-- Node7&#45;&gt;Node32 -->
<g id="edge68" class="edge">
<title>Node7&#45;&gt;Node32</title>
<path fill="none" stroke="#63b8ff" d="M1373.77,-336.98C1290.74,-333.67 1117.94,-323.56 975,-294 915.36,-281.67 848.34,-258.19 809.28,-243.5"/>
<polygon fill="#63b8ff" stroke="#63b8ff" points="810.57,-240.24 799.98,-239.96 808.08,-246.79 810.57,-240.24"/>
</g>
<!-- Node33 -->
<g id="node33" class="node">
<title>Node33</title>
<g id="a_node33"><a xlink:href="resistivejunction_8hpp.html" target="_top" xlink:title="MODEL::ResistiveJunction source file.">
<polygon fill="white" stroke="#666666" points="1320,-239 1178,-239 1178,-220 1320,-220 1320,-239"/>
<text text-anchor="middle" x="1249" y="-227" font-family="Helvetica,sans-Serif" font-size="10.00">../model/resistivejunction.hpp</text>
</a>
</g>
</g>
<!-- Node7&#45;&gt;Node33 -->
<g id="edge72" class="edge">
<title>Node7&#45;&gt;Node33</title>
<path fill="none" stroke="#63b8ff" d="M1408.76,-329.66C1378.94,-311.15 1309.63,-268.13 1272.88,-245.32"/>
<polygon fill="#63b8ff" stroke="#63b8ff" points="1275.06,-242.56 1264.72,-240.26 1271.37,-248.51 1275.06,-242.56"/>
</g>
<!-- Node34 -->
<g id="node34" class="node">
<title>Node34</title>
<g id="a_node34"><a xlink:href="windkesselbc_8hpp.html" target="_top" xlink:title="MODEL::WindkesselBC source file.">
<polygon fill="white" stroke="#666666" points="1469.5,-239 1338.5,-239 1338.5,-220 1469.5,-220 1469.5,-239"/>
<text text-anchor="middle" x="1404" y="-227" font-family="Helvetica,sans-Serif" font-size="10.00">../model/windkesselbc.hpp</text>
</a>
</g>
</g>
<!-- Node7&#45;&gt;Node34 -->
<g id="edge75" class="edge">
<title>Node7&#45;&gt;Node34</title>
<path fill="none" stroke="#63b8ff" d="M1421.45,-329.66C1418.43,-312.5 1411.7,-274.26 1407.54,-250.6"/>
<polygon fill="#63b8ff" stroke="#63b8ff" points="1411.02,-250.19 1405.84,-240.95 1404.12,-251.41 1411.02,-250.19"/>
</g>
<!-- Node11&#45;&gt;Node7 -->
<g id="edge16" class="edge">
<title>Node11&#45;&gt;Node7</title>
<path fill="none" stroke="#63b8ff" d="M1472.84,-126.91C1532.49,-136.52 1615.11,-160.47 1655,-220 1690.84,-273.48 1579.22,-247.52 1521,-275 1494.25,-287.63 1467.09,-308.41 1447.9,-322.74"/>
<polygon fill="#63b8ff" stroke="#63b8ff" points="1445.82,-319.92 1439.85,-328.67 1449.98,-325.56 1445.82,-319.92"/>
</g>
<!-- Node12 -->
<g id="node12" class="node">
<title>Node12</title>
<g id="a_node12"><a xlink:title=" ">
<polygon fill="#e0e0e0" stroke="#999999" points="1342,-74 1268,-74 1268,-55 1342,-55 1342,-74"/>
<text text-anchor="middle" x="1305" y="-62" font-family="Helvetica,sans-Serif" font-size="10.00">Eigen/Sparse</text>
</a>
</g>
</g>
<!-- Node11&#45;&gt;Node12 -->
<g id="edge13" class="edge">
<title>Node11&#45;&gt;Node12</title>
<path fill="none" stroke="#63b8ff" d="M1387.21,-109.51C1371.9,-101.31 1349.03,-89.07 1331.3,-79.58"/>
<polygon fill="#63b8ff" stroke="#63b8ff" points="1333.35,-76.71 1322.88,-75.07 1330.04,-82.88 1333.35,-76.71"/>
</g>
<!-- Node13 -->
<g id="node13" class="node">
<title>Node13</title>
<g id="a_node13"><a xlink:title=" ">
<polygon fill="#e0e0e0" stroke="#999999" points="1448,-74 1360,-74 1360,-55 1448,-55 1448,-74"/>
<text text-anchor="middle" x="1404" y="-62" font-family="Helvetica,sans-Serif" font-size="10.00">Eigen/SparseLU</text>
</a>
</g>
</g>
<!-- Node11&#45;&gt;Node13 -->
<g id="edge14" class="edge">
<title>Node11&#45;&gt;Node13</title>
<path fill="none" stroke="#63b8ff" d="M1404,-109.75C1404,-103.27 1404,-94.16 1404,-85.9"/>
<polygon fill="#63b8ff" stroke="#63b8ff" points="1407.5,-85.96 1404,-75.96 1400.5,-85.96 1407.5,-85.96"/>
</g>
<!-- Node14 -->
<g id="node14" class="node">
<title>Node14</title>
<g id="a_node14"><a xlink:title=" ">
<polygon fill="#e0e0e0" stroke="#999999" points="1520,-74 1466,-74 1466,-55 1520,-55 1520,-74"/>
<text text-anchor="middle" x="1493" y="-62" font-family="Helvetica,sans-Serif" font-size="10.00">iostream</text>
</a>
</g>
</g>
<!-- Node11&#45;&gt;Node14 -->
<g id="edge15" class="edge">
<title>Node11&#45;&gt;Node14</title>
<path fill="none" stroke="#63b8ff" d="M1419.1,-109.51C1432.6,-101.47 1452.65,-89.53 1468.46,-80.11"/>
<polygon fill="#63b8ff" stroke="#63b8ff" points="1470.02,-83.26 1476.82,-75.13 1466.44,-77.24 1470.02,-83.26"/>
</g>
<!-- Node15&#45;&gt;Node11 -->
<g id="edge19" class="edge">
<title>Node15&#45;&gt;Node11</title>
<path fill="none" stroke="#63b8ff" d="M1935.68,-219.62C1923.26,-205.27 1896.51,-177.33 1867,-165 1799.92,-136.96 1598.14,-126.35 1484.34,-122.52"/>
<polygon fill="#63b8ff" stroke="#63b8ff" points="1484.55,-119.03 1474.44,-122.2 1484.32,-126.02 1484.55,-119.03"/>
</g>
<!-- Node16 -->
<g id="node16" class="node">
<title>Node16</title>
<g id="a_node16"><a xlink:title=" ">
<polygon fill="#e0e0e0" stroke="#999999" points="2120,-129 2074,-129 2074,-110 2120,-110 2120,-129"/>
<text text-anchor="middle" x="2097" y="-117" font-family="Helvetica,sans-Serif" font-size="10.00">math.h</text>
</a>
</g>
</g>
<!-- Node15&#45;&gt;Node16 -->
<g id="edge18" class="edge">
<title>Node15&#45;&gt;Node16</title>
<path fill="none" stroke="#63b8ff" d="M1955.6,-219.66C1981.77,-201.31 2042.29,-158.87 2075.02,-135.91"/>
<polygon fill="#63b8ff" stroke="#63b8ff" points="2076.81,-138.94 2082.98,-130.33 2072.79,-133.21 2076.81,-138.94"/>
</g>
<!-- Node15&#45;&gt;Node17 -->
<g id="edge20" class="edge">
<title>Node15&#45;&gt;Node17</title>
<path fill="none" stroke="#63b8ff" d="M1881.18,-223.76C1864.27,-222.5 1845.93,-221.17 1829,-220 1577.7,-202.67 1275.62,-184.38 1167.73,-177.92"/>
<polygon fill="#63b8ff" stroke="#63b8ff" points="1168.14,-174.44 1157.94,-177.34 1167.72,-181.43 1168.14,-174.44"/>
</g>
<!-- Node17&#45;&gt;Node4 -->
<g id="edge22" class="edge">
<title>Node17&#45;&gt;Node4</title>
<path fill="none" stroke="#63b8ff" d="M1127,-164.74C1127,-139.53 1127,-66.36 1127,-30.62"/>
<polygon fill="#63b8ff" stroke="#63b8ff" points="1130.5,-30.82 1127,-20.82 1123.5,-30.82 1130.5,-30.82"/>
</g>
<!-- Node17&#45;&gt;Node5 -->
<g id="edge24" class="edge">
<title>Node17&#45;&gt;Node5</title>
<path fill="none" stroke="#63b8ff" d="M1156.14,-172.83C1276.26,-169.95 1744.79,-157.42 2129,-129 2135.93,-128.49 2143.18,-127.86 2150.39,-127.19"/>
<polygon fill="#63b8ff" stroke="#63b8ff" points="2150.49,-130.7 2160.1,-126.24 2149.81,-123.73 2150.49,-130.7"/>
</g>
<!-- Node17&#45;&gt;Node11 -->
<g id="edge23" class="edge">
<title>Node17&#45;&gt;Node11</title>
<path fill="none" stroke="#63b8ff" d="M1156.38,-167.88C1201.29,-159.29 1287.86,-142.72 1345.8,-131.64"/>
<polygon fill="#63b8ff" stroke="#63b8ff" points="1346.34,-135.1 1355.5,-129.78 1345.02,-128.22 1346.34,-135.1"/>
</g>
<!-- Node18 -->
<g id="node18" class="node">
<title>Node18</title>
<g id="a_node18"><a xlink:title=" ">
<polygon fill="#e0e0e0" stroke="#999999" points="951.5,-19 916.5,-19 916.5,0 951.5,0 951.5,-19"/>
<text text-anchor="middle" x="934" y="-7" font-family="Helvetica,sans-Serif" font-size="10.00">map</text>
</a>
</g>
</g>
<!-- Node17&#45;&gt;Node18 -->
<g id="edge21" class="edge">
<title>Node17&#45;&gt;Node18</title>
<path fill="none" stroke="#63b8ff" d="M1116.35,-164.5C1085.04,-138.06 992.98,-60.31 952.95,-26.5"/>
<polygon fill="#63b8ff" stroke="#63b8ff" points="955.44,-24.02 945.54,-20.25 950.92,-29.37 955.44,-24.02"/>
</g>
<!-- Node17&#45;&gt;Node19 -->
<g id="edge25" class="edge">
<title>Node17&#45;&gt;Node19</title>
<path fill="none" stroke="#63b8ff" d="M1099.8,-164.57C1041.29,-145.36 903.38,-100.09 836.16,-78.03"/>
<polygon fill="#63b8ff" stroke="#63b8ff" points="837.27,-74.71 826.67,-74.91 835.08,-81.36 837.27,-74.71"/>
</g>
<!-- Node17&#45;&gt;Node20 -->
<g id="edge29" class="edge">
<title>Node17&#45;&gt;Node20</title>
<path fill="none" stroke="#63b8ff" d="M1097.61,-171.75C965.61,-163.9 427.43,-131.89 275.89,-122.87"/>
<polygon fill="#63b8ff" stroke="#63b8ff" points="276.14,-119.38 265.95,-122.28 275.72,-126.37 276.14,-119.38"/>
</g>
<!-- Node19&#45;&gt;Node3 -->
<g id="edge27" class="edge">
<title>Node19&#45;&gt;Node3</title>
<path fill="none" stroke="#63b8ff" d="M757.63,-59.94C645.34,-50.04 330.89,-22.31 229.18,-13.34"/>
<polygon fill="#63b8ff" stroke="#63b8ff" points="229.63,-9.86 219.36,-12.47 229.02,-16.84 229.63,-9.86"/>
</g>
<!-- Node19&#45;&gt;Node4 -->
<g id="edge28" class="edge">
<title>Node19&#45;&gt;Node4</title>
<path fill="none" stroke="#63b8ff" d="M838.34,-57C903.97,-46.43 1032.65,-25.7 1093.54,-15.89"/>
<polygon fill="#63b8ff" stroke="#63b8ff" points="1093.96,-19.37 1103.28,-14.32 1092.85,-12.46 1093.96,-19.37"/>
</g>
<!-- Node19&#45;&gt;Node18 -->
<g id="edge26" class="edge">
<title>Node19&#45;&gt;Node18</title>
<path fill="none" stroke="#63b8ff" d="M821.07,-54.51C844.34,-45.44 880.3,-31.43 905.37,-21.66"/>
<polygon fill="#63b8ff" stroke="#63b8ff" points="906.58,-24.94 914.63,-18.05 904.04,-18.42 906.58,-24.94"/>
</g>
<!-- Node20&#45;&gt;Node3 -->
<g id="edge30" class="edge">
<title>Node20&#45;&gt;Node3</title>
<path fill="none" stroke="#63b8ff" d="M232.81,-109.66C226.58,-92.42 212.67,-53.9 204.14,-30.27"/>
<polygon fill="#63b8ff" stroke="#63b8ff" points="207.44,-29.1 200.75,-20.88 200.85,-31.48 207.44,-29.1"/>
</g>
<!-- Node20&#45;&gt;Node19 -->
<g id="edge31" class="edge">
<title>Node20&#45;&gt;Node19</title>
<path fill="none" stroke="#63b8ff" d="M264.39,-112.3C268.93,-111.44 273.58,-110.63 278,-110 448.52,-85.53 652.56,-72.86 746.29,-67.96"/>
<polygon fill="#63b8ff" stroke="#63b8ff" points="746.38,-71.46 756.19,-67.45 746.02,-64.47 746.38,-71.46"/>
</g>
<!-- Node21&#45;&gt;Node11 -->
<g id="edge33" class="edge">
<title>Node21&#45;&gt;Node11</title>
<path fill="none" stroke="#63b8ff" d="M1833.41,-274.65C1833.56,-261.32 1831.95,-235.95 1819,-220 1781.5,-173.83 1754.04,-181.84 1697,-165 1626.65,-144.23 1543.79,-132.79 1484.17,-126.73"/>
<polygon fill="#63b8ff" stroke="#63b8ff" points="1484.74,-123.27 1474.45,-125.78 1484.06,-130.24 1484.74,-123.27"/>
</g>
<!-- Node21&#45;&gt;Node15 -->
<g id="edge36" class="edge">
<title>Node21&#45;&gt;Node15</title>
<path fill="none" stroke="#63b8ff" d="M1851.66,-274.51C1868.83,-266.24 1894.55,-253.84 1914.33,-244.31"/>
<polygon fill="#63b8ff" stroke="#63b8ff" points="1915.76,-247.51 1923.25,-240.01 1912.72,-241.2 1915.76,-247.51"/>
</g>
<!-- Node21&#45;&gt;Node17 -->
<g id="edge34" class="edge">
<title>Node21&#45;&gt;Node17</title>
<path fill="none" stroke="#63b8ff" d="M1830.74,-274.66C1826.56,-260.36 1816.17,-232.5 1796,-220 1742.64,-186.93 1304.2,-178 1167.53,-176"/>
<polygon fill="#63b8ff" stroke="#63b8ff" points="1167.92,-172.51 1157.87,-175.87 1167.82,-179.51 1167.92,-172.51"/>
</g>
<!-- Node21&#45;&gt;Node22 -->
<g id="edge35" class="edge">
<title>Node21&#45;&gt;Node22</title>
<path fill="none" stroke="#63b8ff" d="M1818.75,-274.51C1806.12,-266.54 1787.44,-254.75 1772.59,-245.38"/>
<polygon fill="#63b8ff" stroke="#63b8ff" points="1774.64,-242.54 1764.32,-240.17 1770.91,-248.46 1774.64,-242.54"/>
</g>
<!-- Node23&#45;&gt;Node11 -->
<g id="edge38" class="edge">
<title>Node23&#45;&gt;Node11</title>
<path fill="none" stroke="#63b8ff" d="M1549.07,-219.66C1522.22,-201.31 1460.13,-158.87 1426.55,-135.91"/>
<polygon fill="#63b8ff" stroke="#63b8ff" points="1428.59,-133.07 1418.36,-130.31 1424.64,-138.85 1428.59,-133.07"/>
</g>
<!-- Node23&#45;&gt;Node17 -->
<g id="edge39" class="edge">
<title>Node23&#45;&gt;Node17</title>
<path fill="none" stroke="#63b8ff" d="M1488.21,-219.51C1395.71,-208.24 1240.46,-189.32 1167.36,-180.42"/>
<polygon fill="#63b8ff" stroke="#63b8ff" points="1168.21,-177 1157.86,-179.26 1167.37,-183.94 1168.21,-177"/>
</g>
<!-- Node24&#45;&gt;Node11 -->
<g id="edge41" class="edge">
<title>Node24&#45;&gt;Node11</title>
<path fill="none" stroke="#63b8ff" d="M2056.55,-274.5C2055.42,-260.98 2051.37,-235.36 2037,-220 1991.05,-170.87 1961.48,-180.4 1896,-165 1753.46,-131.46 1582.2,-122.87 1483.94,-120.86"/>
<polygon fill="#63b8ff" stroke="#63b8ff" points="1484.19,-117.37 1474.13,-120.68 1484.06,-124.36 1484.19,-117.37"/>
</g>
<!-- Node24&#45;&gt;Node17 -->
<g id="edge42" class="edge">
<title>Node24&#45;&gt;Node17</title>
<path fill="none" stroke="#63b8ff" d="M2053.95,-274.58C2048.5,-260.17 2035.58,-232.15 2014,-220 1939.7,-178.16 1331.49,-175.4 1167.57,-175.42"/>
<polygon fill="#63b8ff" stroke="#63b8ff" points="1167.62,-171.92 1157.62,-175.43 1167.63,-178.92 1167.62,-171.92"/>
</g>
<!-- Node24&#45;&gt;Node25 -->
<g id="edge43" class="edge">
<title>Node24&#45;&gt;Node25</title>
<path fill="none" stroke="#63b8ff" d="M2076.68,-274.51C2094.95,-266.16 2122.41,-253.61 2143.35,-244.05"/>
<polygon fill="#63b8ff" stroke="#63b8ff" points="2144.6,-247.33 2152.24,-239.99 2141.69,-240.96 2144.6,-247.33"/>
</g>
<!-- Node25&#45;&gt;Node5 -->
<g id="edge46" class="edge">
<title>Node25&#45;&gt;Node5</title>
<path fill="none" stroke="#63b8ff" d="M2176.11,-219.66C2182.18,-202.42 2195.73,-163.9 2204.04,-140.27"/>
<polygon fill="#63b8ff" stroke="#63b8ff" points="2207.33,-141.48 2207.34,-130.89 2200.72,-139.16 2207.33,-141.48"/>
</g>
<!-- Node25&#45;&gt;Node11 -->
<g id="edge45" class="edge">
<title>Node25&#45;&gt;Node11</title>
<path fill="none" stroke="#63b8ff" d="M2162.81,-219.52C2145.67,-205.02 2109.36,-176.89 2073,-165 1965.74,-129.92 1637.17,-122.45 1484.07,-120.89"/>
<polygon fill="#63b8ff" stroke="#63b8ff" points="1484.46,-117.4 1474.43,-120.8 1484.39,-124.4 1484.46,-117.4"/>
</g>
<!-- Node25&#45;&gt;Node16 -->
<g id="edge44" class="edge">
<title>Node25&#45;&gt;Node16</title>
<path fill="none" stroke="#63b8ff" d="M2171.13,-219.62C2168.1,-206.7 2161.19,-182.36 2149,-165 2141.14,-153.8 2129.82,-143.67 2119.75,-135.91"/>
<polygon fill="#63b8ff" stroke="#63b8ff" points="2121.99,-133.22 2111.86,-130.14 2117.86,-138.87 2121.99,-133.22"/>
</g>
<!-- Node25&#45;&gt;Node17 -->
<g id="edge47" class="edge">
<title>Node25&#45;&gt;Node17</title>
<path fill="none" stroke="#63b8ff" d="M2099.06,-223.28C2081.97,-222.13 2063.85,-220.98 2047,-220 1707.2,-200.32 1296.43,-182.6 1167.63,-177.19"/>
<polygon fill="#63b8ff" stroke="#63b8ff" points="1168.05,-173.7 1157.92,-176.78 1167.76,-180.7 1168.05,-173.7"/>
</g>
<!-- Node26&#45;&gt;Node11 -->
<g id="edge50" class="edge">
<title>Node26&#45;&gt;Node11</title>
<path fill="none" stroke="#63b8ff" d="M946.36,-219.6C975.76,-205.74 1035.54,-179.11 1089,-165 1167.46,-144.29 1259.62,-132.7 1323.91,-126.57"/>
<polygon fill="#63b8ff" stroke="#63b8ff" points="1324.04,-130.08 1333.67,-125.67 1323.39,-123.11 1324.04,-130.08"/>
</g>
<!-- Node26&#45;&gt;Node17 -->
<g id="edge51" class="edge">
<title>Node26&#45;&gt;Node17</title>
<path fill="none" stroke="#63b8ff" d="M961.76,-219.51C996.33,-210.3 1050.06,-195.99 1086.81,-186.21"/>
<polygon fill="#63b8ff" stroke="#63b8ff" points="1087.4,-189.67 1096.16,-183.71 1085.6,-182.9 1087.4,-189.67"/>
</g>
<!-- Node26&#45;&gt;Node27 -->
<g id="edge52" class="edge">
<title>Node26&#45;&gt;Node27</title>
<path fill="none" stroke="#63b8ff" d="M902.22,-219.51C877.57,-210.92 840.19,-197.88 812.49,-188.22"/>
<polygon fill="#63b8ff" stroke="#63b8ff" points="813.68,-184.93 803.09,-184.94 811.38,-191.54 813.68,-184.93"/>
</g>
<!-- Node27&#45;&gt;Node4 -->
<g id="edge55" class="edge">
<title>Node27&#45;&gt;Node4</title>
<path fill="none" stroke="#63b8ff" d="M795.37,-164.5C853.62,-137.45 1027.47,-56.72 1097.39,-24.25"/>
<polygon fill="#63b8ff" stroke="#63b8ff" points="1098.72,-27.49 1106.32,-20.11 1095.77,-21.14 1098.72,-27.49"/>
</g>
<!-- Node27&#45;&gt;Node16 -->
<g id="edge53" class="edge">
<title>Node27&#45;&gt;Node16</title>
<path fill="none" stroke="#63b8ff" d="M815.18,-171.93C1010.54,-164.09 1877.4,-129.31 2062.25,-121.89"/>
<polygon fill="#63b8ff" stroke="#63b8ff" points="2062.3,-125.4 2072.15,-121.5 2062.02,-118.4 2062.3,-125.4"/>
</g>
<!-- Node27&#45;&gt;Node19 -->
<g id="edge56" class="edge">
<title>Node27&#45;&gt;Node19</title>
<path fill="none" stroke="#63b8ff" d="M777.8,-164.66C781.3,-147.5 789.09,-109.26 793.91,-85.6"/>
<polygon fill="#63b8ff" stroke="#63b8ff" points="797.31,-86.44 795.87,-75.94 790.45,-85.04 797.31,-86.44"/>
</g>
<!-- Node28 -->
<g id="node28" class="node">
<title>Node28</title>
<g id="a_node28"><a xlink:title=" ">
<polygon fill="#e0e0e0" stroke="#999999" points="769.5,-129 718.5,-129 718.5,-110 769.5,-110 769.5,-129"/>
<text text-anchor="middle" x="744" y="-117" font-family="Helvetica,sans-Serif" font-size="10.00">numeric</text>
</a>
</g>
</g>
<!-- Node27&#45;&gt;Node28 -->
<g id="edge54" class="edge">
<title>Node27&#45;&gt;Node28</title>
<path fill="none" stroke="#63b8ff" d="M770.72,-164.75C766.53,-157.81 760.52,-147.86 755.27,-139.16"/>
<polygon fill="#63b8ff" stroke="#63b8ff" points="758.35,-137.49 750.18,-130.74 752.35,-141.11 758.35,-137.49"/>
</g>
<!-- Node29&#45;&gt;Node11 -->
<g id="edge58" class="edge">
<title>Node29&#45;&gt;Node11</title>
<path fill="none" stroke="#63b8ff" d="M1131.56,-219.57C1184.15,-200.44 1307.84,-155.47 1368.79,-133.3"/>
<polygon fill="#63b8ff" stroke="#63b8ff" points="1369.79,-136.66 1377.99,-129.96 1367.4,-130.09 1369.79,-136.66"/>
</g>
<!-- Node29&#45;&gt;Node17 -->
<g id="edge59" class="edge">
<title>Node29&#45;&gt;Node17</title>
<path fill="none" stroke="#63b8ff" d="M1110.3,-219.75C1112.83,-213.04 1116.43,-203.52 1119.63,-195.02"/>
<polygon fill="#63b8ff" stroke="#63b8ff" points="1122.84,-196.45 1123.09,-185.86 1116.29,-193.98 1122.84,-196.45"/>
</g>
<!-- Node30&#45;&gt;Node11 -->
<g id="edge61" class="edge">
<title>Node30&#45;&gt;Node11</title>
<path fill="none" stroke="#63b8ff" d="M516.16,-220.55C611.72,-210.74 766.73,-194.14 824,-184 859.56,-177.7 867.36,-170.84 903,-165 1050.34,-140.87 1224.35,-129.12 1323.68,-123.98"/>
<polygon fill="#63b8ff" stroke="#63b8ff" points="1323.8,-127.48 1333.61,-123.48 1323.45,-120.49 1323.8,-127.48"/>
</g>
<!-- Node30&#45;&gt;Node17 -->
<g id="edge62" class="edge">
<title>Node30&#45;&gt;Node17</title>
<path fill="none" stroke="#63b8ff" d="M516.15,-220.77C519.14,-220.51 522.09,-220.25 525,-220 736,-202.01 988.98,-184.7 1086.2,-178.2"/>
<polygon fill="#63b8ff" stroke="#63b8ff" points="1086.28,-181.7 1096.03,-177.54 1085.82,-174.72 1086.28,-181.7"/>
</g>
<!-- Node30&#45;&gt;Node27 -->
<g id="edge63" class="edge">
<title>Node30&#45;&gt;Node27</title>
<path fill="none" stroke="#63b8ff" d="M494.51,-219.51C559.42,-209.36 663.99,-193.01 725.75,-183.36"/>
<polygon fill="#63b8ff" stroke="#63b8ff" points="725.93,-186.87 735.27,-181.87 724.85,-179.95 725.93,-186.87"/>
</g>
<!-- Node31&#45;&gt;Node11 -->
<g id="edge65" class="edge">
<title>Node31&#45;&gt;Node11</title>
<path fill="none" stroke="#63b8ff" d="M693.42,-219.51C751.82,-212.12 832.89,-200.22 903,-184 930.66,-177.6 936.18,-170.68 964,-165 1088.14,-139.66 1235.06,-128.5 1323.81,-123.76"/>
<polygon fill="#63b8ff" stroke="#63b8ff" points="1323.82,-127.27 1333.63,-123.26 1323.46,-120.28 1323.82,-127.27"/>
</g>
<!-- Node31&#45;&gt;Node17 -->
<g id="edge66" class="edge">
<title>Node31&#45;&gt;Node17</title>
<path fill="none" stroke="#63b8ff" d="M694.44,-220.19C805.42,-208.72 1001.37,-188.48 1086.09,-179.73"/>
<polygon fill="#63b8ff" stroke="#63b8ff" points="1086.43,-183.21 1096.01,-178.7 1085.71,-176.25 1086.43,-183.21"/>
</g>
<!-- Node31&#45;&gt;Node27 -->
<g id="edge67" class="edge">
<title>Node31&#45;&gt;Node27</title>
<path fill="none" stroke="#63b8ff" d="M641.48,-219.51C667.98,-210.84 708.3,-197.65 737.89,-187.97"/>
<polygon fill="#63b8ff" stroke="#63b8ff" points="738.8,-191.35 747.22,-184.92 736.62,-184.7 738.8,-191.35"/>
</g>
<!-- Node32&#45;&gt;Node11 -->
<g id="edge69" class="edge">
<title>Node32&#45;&gt;Node11</title>
<path fill="none" stroke="#63b8ff" d="M816.48,-219.51C854.65,-210.89 913.39,-197.27 964,-184 993.53,-176.26 1000.08,-171.05 1030,-165 1130.29,-144.74 1247.7,-132.62 1323.83,-126.26"/>
<polygon fill="#63b8ff" stroke="#63b8ff" points="1324.04,-129.76 1333.72,-125.45 1323.46,-122.78 1324.04,-129.76"/>
</g>
<!-- Node32&#45;&gt;Node17 -->
<g id="edge70" class="edge">
<title>Node32&#45;&gt;Node17</title>
<path fill="none" stroke="#63b8ff" d="M835.54,-219.51C907.02,-208.72 1024.95,-190.91 1086.6,-181.6"/>
<polygon fill="#63b8ff" stroke="#63b8ff" points="1086.93,-185.09 1096.3,-180.14 1085.89,-178.17 1086.93,-185.09"/>
</g>
<!-- Node32&#45;&gt;Node27 -->
<g id="edge71" class="edge">
<title>Node32&#45;&gt;Node27</title>
<path fill="none" stroke="#63b8ff" d="M776,-219.75C776,-213.27 776,-204.16 776,-195.9"/>
<polygon fill="#63b8ff" stroke="#63b8ff" points="779.5,-195.96 776,-185.96 772.5,-195.96 779.5,-195.96"/>
</g>
<!-- Node33&#45;&gt;Node11 -->
<g id="edge73" class="edge">
<title>Node33&#45;&gt;Node11</title>
<path fill="none" stroke="#63b8ff" d="M1261.68,-219.66C1288.02,-201.31 1348.93,-158.87 1381.88,-135.91"/>
<polygon fill="#63b8ff" stroke="#63b8ff" points="1383.69,-138.91 1389.9,-130.33 1379.69,-133.17 1383.69,-138.91"/>
</g>
<!-- Node33&#45;&gt;Node17 -->
<g id="edge74" class="edge">
<title>Node33&#45;&gt;Node17</title>
<path fill="none" stroke="#63b8ff" d="M1228.3,-219.51C1209,-211.12 1179.94,-198.5 1157.89,-188.92"/>
<polygon fill="#63b8ff" stroke="#63b8ff" points="1159.34,-185.74 1148.78,-184.96 1156.56,-192.16 1159.34,-185.74"/>
</g>
<!-- Node34&#45;&gt;Node11 -->
<g id="edge76" class="edge">
<title>Node34&#45;&gt;Node11</title>
<path fill="none" stroke="#63b8ff" d="M1404,-219.66C1404,-202.57 1404,-164.61 1404,-140.92"/>
<polygon fill="#63b8ff" stroke="#63b8ff" points="1407.5,-140.97 1404,-130.97 1400.5,-140.97 1407.5,-140.97"/>
</g>
<!-- Node34&#45;&gt;Node17 -->
<g id="edge77" class="edge">
<title>Node34&#45;&gt;Node17</title>
<path fill="none" stroke="#63b8ff" d="M1357.01,-219.51C1303.74,-209.32 1217.78,-192.87 1167.4,-183.23"/>
<polygon fill="#63b8ff" stroke="#63b8ff" points="1168.27,-179.83 1157.79,-181.39 1166.96,-186.71 1168.27,-179.83"/>
</g>
</g>
</svg>
