<?xml version="1.0" encoding="UTF-8" standalone="no"?>
<!DOCTYPE svg PUBLIC "-//W3C//DTD SVG 1.1//EN"
 "http://www.w3.org/Graphics/SVG/1.1/DTD/svg11.dtd">
<!-- Generated by graphviz version 3.0.0 (20220413.0242)
 -->
<!-- Title: helpers/debug.hpp Pages: 1 -->
<svg width="143pt" height="140pt"
 viewBox="0.00 0.00 142.50 140.00" xmlns="http://www.w3.org/2000/svg" xmlns:xlink="http://www.w3.org/1999/xlink">
<g id="graph0" class="graph" transform="scale(1 1) rotate(0) translate(4 136)">
<title>helpers/debug.hpp</title>
<!-- Node1 -->
<g id="node1" class="node">
<title>Node1</title>
<g id="a_node1"><a xlink:title="HELPERS::DEBUG source file.">
<polygon fill="#bfbfbf" stroke="black" points="39.5,-112.5 39.5,-131.5 134.5,-131.5 134.5,-112.5 39.5,-112.5"/>
<text text-anchor="middle" x="87" y="-119.5" font-family="Helvetica,sans-Serif" font-size="10.00">helpers/debug.hpp</text>
</a>
</g>
</g>
<!-- Node2 -->
<g id="node2" class="node">
<title>Node2</title>
<g id="a_node2"><a xlink:href="configreader_8hpp.html" target="_top" xlink:title="IO::ConfigReader source file.">
<polygon fill="none" stroke="black" points="0,-56.5 0,-75.5 98,-75.5 98,-56.5 0,-56.5"/>
<text text-anchor="middle" x="49" y="-63.5" font-family="Helvetica,sans-Serif" font-size="10.00">io/configreader.hpp</text>
</a>
</g>
</g>
<!-- Node1&#45;&gt;Node2 -->
<g id="edge1" class="edge">
<title>Node1&#45;&gt;Node2</title>
<path fill="none" stroke="midnightblue" d="M74.94,-103.86C68.36,-94.5 60.49,-83.33 55.16,-75.75"/>
<polygon fill="midnightblue" stroke="midnightblue" points="72.11,-105.92 80.73,-112.08 77.83,-101.89 72.11,-105.92"/>
</g>
<!-- Node3 -->
<g id="node3" class="node">
<title>Node3</title>
<g id="a_node3"><a xlink:href="main_8cpp.html" target="_top" xlink:title="Main routine of svZeroDSolver.">
<polygon fill="none" stroke="black" points="59,-0.5 59,-19.5 115,-19.5 115,-0.5 59,-0.5"/>
<text text-anchor="middle" x="87" y="-7.5" font-family="Helvetica,sans-Serif" font-size="10.00">main.cpp</text>
</a>
</g>
</g>
<!-- Node1&#45;&gt;Node3 -->
<g id="edge3" class="edge">
<title>Node1&#45;&gt;Node3</title>
<path fill="none" stroke="midnightblue" d="M96.93,-103.3C100.9,-95.24 105,-85.41 107,-76 111.36,-55.44 99.99,-32.05 92.65,-19.7"/>
<polygon fill="midnightblue" stroke="midnightblue" points="93.69,-101.93 92.13,-112.41 99.89,-105.19 93.69,-101.93"/>
</g>
<!-- Node2&#45;&gt;Node3 -->
<g id="edge2" class="edge">
<title>Node2&#45;&gt;Node3</title>
<path fill="none" stroke="midnightblue" d="M61.06,-47.86C67.64,-38.5 75.51,-27.33 80.84,-19.75"/>
<polygon fill="midnightblue" stroke="midnightblue" points="58.17,-45.89 55.27,-56.08 63.89,-49.92 58.17,-45.89"/>
</g>
</g>
</svg>
