<?xml version="1.0" encoding="UTF-8" standalone="no"?>
<!DOCTYPE svg PUBLIC "-//W3C//DTD SVG 1.1//EN"
 "http://www.w3.org/Graphics/SVG/1.1/DTD/svg11.dtd">
<!-- Generated by graphviz version 3.0.0 (20220413.0242)
 -->
<!-- Title: algebra/densesystem.hpp Pages: 1 -->
<svg width="1140pt" height="364pt"
 viewBox="0.00 0.00 1139.50 364.00" xmlns="http://www.w3.org/2000/svg" xmlns:xlink="http://www.w3.org/1999/xlink">
<g id="graph0" class="graph" transform="scale(1 1) rotate(0) translate(4 360)">
<title>algebra/densesystem.hpp</title>
<!-- Node1 -->
<g id="node1" class="node">
<title>Node1</title>
<g id="a_node1"><a xlink:title="ALGEBRA::DenseSystem source file.">
<polygon fill="#bfbfbf" stroke="black" points="496,-336.5 496,-355.5 623,-355.5 623,-336.5 496,-336.5"/>
<text text-anchor="middle" x="559.5" y="-343.5" font-family="Helvetica,sans-Serif" font-size="10.00">algebra/densesystem.hpp</text>
</a>
</g>
</g>
<!-- Node2 -->
<g id="node2" class="node">
<title>Node2</title>
<g id="a_node2"><a xlink:title=" ">
<polygon fill="none" stroke="#bfbfbf" points="308,-280.5 308,-299.5 379,-299.5 379,-280.5 308,-280.5"/>
<text text-anchor="middle" x="343.5" y="-287.5" font-family="Helvetica,sans-Serif" font-size="10.00">Eigen/Dense</text>
</a>
</g>
</g>
<!-- Node1&#45;&gt;Node2 -->
<g id="edge1" class="edge">
<title>Node1&#45;&gt;Node2</title>
<path fill="none" stroke="midnightblue" d="M525.27,-336.44C487.99,-327.12 428.23,-312.18 387.49,-302"/>
<polygon fill="midnightblue" stroke="midnightblue" points="388.12,-298.55 377.57,-299.52 386.42,-305.34 388.12,-298.55"/>
</g>
<!-- Node3 -->
<g id="node3" class="node">
<title>Node3</title>
<g id="a_node3"><a xlink:href="model_8hpp.html" target="_top" xlink:title="MODEL::Model source file.">
<polygon fill="none" stroke="black" points="591.5,-280.5 591.5,-299.5 689.5,-299.5 689.5,-280.5 591.5,-280.5"/>
<text text-anchor="middle" x="640.5" y="-287.5" font-family="Helvetica,sans-Serif" font-size="10.00">../model/model.hpp</text>
</a>
</g>
</g>
<!-- Node1&#45;&gt;Node3 -->
<g id="edge2" class="edge">
<title>Node1&#45;&gt;Node3</title>
<path fill="none" stroke="midnightblue" d="M567.4,-336.32C578.31,-327.82 597.66,-314.73 613.83,-304.8"/>
<polygon fill="midnightblue" stroke="midnightblue" points="615.63,-307.8 622.41,-299.65 612.03,-301.79 615.63,-307.8"/>
</g>
<!-- Node3&#45;&gt;Node1 -->
<g id="edge6" class="edge">
<title>Node3&#45;&gt;Node1</title>
<path fill="none" stroke="midnightblue" d="M632.4,-299.83C621.55,-308.26 602.58,-321.1 586.61,-330.94"/>
<polygon fill="midnightblue" stroke="midnightblue" points="584.4,-328.18 577.63,-336.32 588,-334.18 584.4,-328.18"/>
</g>
<!-- Node4 -->
<g id="node4" class="node">
<title>Node4</title>
<g id="a_node4"><a xlink:title=" ">
<polygon fill="none" stroke="#bfbfbf" points="678,-224.5 678,-243.5 707,-243.5 707,-224.5 678,-224.5"/>
<text text-anchor="middle" x="692.5" y="-231.5" font-family="Helvetica,sans-Serif" font-size="10.00">list</text>
</a>
</g>
</g>
<!-- Node3&#45;&gt;Node4 -->
<g id="edge3" class="edge">
<title>Node3&#45;&gt;Node4</title>
<path fill="none" stroke="midnightblue" d="M649.09,-280.08C656.66,-272.22 667.88,-260.57 677.01,-251.08"/>
<polygon fill="midnightblue" stroke="midnightblue" points="679.66,-253.38 684.07,-243.75 674.62,-248.53 679.66,-253.38"/>
</g>
<!-- Node5 -->
<g id="node5" class="node">
<title>Node5</title>
<g id="a_node5"><a xlink:title=" ">
<polygon fill="none" stroke="#bfbfbf" points="949,-112.5 949,-131.5 984,-131.5 984,-112.5 949,-112.5"/>
<text text-anchor="middle" x="966.5" y="-119.5" font-family="Helvetica,sans-Serif" font-size="10.00">map</text>
</a>
</g>
</g>
<!-- Node3&#45;&gt;Node5 -->
<g id="edge4" class="edge">
<title>Node3&#45;&gt;Node5</title>
<path fill="none" stroke="midnightblue" d="M689.75,-289.83C772.68,-290.05 934.66,-285.06 970.5,-244 995.4,-215.47 983.27,-167.16 973.9,-141.05"/>
<polygon fill="midnightblue" stroke="midnightblue" points="977.14,-139.71 970.29,-131.63 970.6,-142.22 977.14,-139.71"/>
</g>
<!-- Node6 -->
<g id="node6" class="node">
<title>Node6</title>
<g id="a_node6"><a xlink:title=" ">
<polygon fill="none" stroke="#bfbfbf" points="725.5,-224.5 725.5,-243.5 771.5,-243.5 771.5,-224.5 725.5,-224.5"/>
<text text-anchor="middle" x="748.5" y="-231.5" font-family="Helvetica,sans-Serif" font-size="10.00">variant</text>
</a>
</g>
</g>
<!-- Node3&#45;&gt;Node6 -->
<g id="edge5" class="edge">
<title>Node3&#45;&gt;Node6</title>
<path fill="none" stroke="midnightblue" d="M657.85,-280.32C675.17,-271.66 702.02,-258.24 722,-248.25"/>
<polygon fill="midnightblue" stroke="midnightblue" points="723.81,-251.26 731.19,-243.65 720.68,-245 723.81,-251.26"/>
</g>
<!-- Node7 -->
<g id="node7" class="node">
<title>Node7</title>
<g id="a_node7"><a xlink:href="sparsesystem_8hpp.html" target="_top" xlink:title="ALGEBRA::SparseSystem source file.">
<polygon fill="none" stroke="black" points="549,-112.5 549,-131.5 686,-131.5 686,-112.5 549,-112.5"/>
<text text-anchor="middle" x="617.5" y="-119.5" font-family="Helvetica,sans-Serif" font-size="10.00">../algebra/sparsesystem.hpp</text>
</a>
</g>
</g>
<!-- Node3&#45;&gt;Node7 -->
<g id="edge7" class="edge">
<title>Node3&#45;&gt;Node7</title>
<path fill="none" stroke="midnightblue" d="M636,-280.08C628.17,-253.95 617.14,-177.21 615.62,-141.58"/>
<polygon fill="midnightblue" stroke="midnightblue" points="619.12,-141.52 615.48,-131.57 612.12,-141.62 619.12,-141.52"/>
</g>
<!-- Node11 -->
<g id="node11" class="node">
<title>Node11</title>
<g id="a_node11"><a xlink:href="bloodvessel_8hpp.html" target="_top" xlink:title="MODEL::BloodVessel source file.">
<polygon fill="none" stroke="black" points="789.5,-224.5 789.5,-243.5 875.5,-243.5 875.5,-224.5 789.5,-224.5"/>
<text text-anchor="middle" x="832.5" y="-231.5" font-family="Helvetica,sans-Serif" font-size="10.00">bloodvessel.hpp</text>
</a>
</g>
</g>
<!-- Node3&#45;&gt;Node11 -->
<g id="edge12" class="edge">
<title>Node3&#45;&gt;Node11</title>
<path fill="none" stroke="midnightblue" d="M670.92,-280.44C703.78,-271.2 756.28,-256.44 792.47,-246.26"/>
<polygon fill="midnightblue" stroke="midnightblue" points="793.54,-249.59 802.22,-243.52 791.65,-242.85 793.54,-249.59"/>
</g>
<!-- Node15 -->
<g id="node15" class="node">
<title>Node15</title>
<g id="a_node15"><a xlink:href="dofhandler_8hpp.html" target="_top" xlink:title="MODEL::DOFHandler source file.">
<polygon fill="none" stroke="black" points="855.5,-56.5 855.5,-75.5 935.5,-75.5 935.5,-56.5 855.5,-56.5"/>
<text text-anchor="middle" x="895.5" y="-63.5" font-family="Helvetica,sans-Serif" font-size="10.00">dofhandler.hpp</text>
</a>
</g>
</g>
<!-- Node3&#45;&gt;Node15 -->
<g id="edge27" class="edge">
<title>Node3&#45;&gt;Node15</title>
<path fill="none" stroke="midnightblue" d="M689.76,-289.79C776.07,-290.06 949.36,-285.28 990.5,-244 1031.92,-202.44 1026.24,-160 992.5,-112 981.33,-96.11 963.09,-85.69 945.42,-78.93"/>
<polygon fill="midnightblue" stroke="midnightblue" points="946.31,-75.53 935.71,-75.53 944,-82.14 946.31,-75.53"/>
</g>
<!-- Node17 -->
<g id="node17" class="node">
<title>Node17</title>
<g id="a_node17"><a xlink:href="node_8hpp.html" target="_top" xlink:title="MODEL::Node source file.">
<polygon fill="none" stroke="black" points="1075.5,-112.5 1075.5,-131.5 1131.5,-131.5 1131.5,-112.5 1075.5,-112.5"/>
<text text-anchor="middle" x="1103.5" y="-119.5" font-family="Helvetica,sans-Serif" font-size="10.00">node.hpp</text>
</a>
</g>
</g>
<!-- Node3&#45;&gt;Node17 -->
<g id="edge41" class="edge">
<title>Node3&#45;&gt;Node17</title>
<path fill="none" stroke="midnightblue" d="M689.86,-287.2C798.53,-282.78 1051.14,-269.82 1079.5,-244 1108.04,-218.01 1108.29,-168.63 1105.94,-141.69"/>
<polygon fill="midnightblue" stroke="midnightblue" points="1109.41,-141.21 1104.84,-131.65 1102.45,-141.97 1109.41,-141.21"/>
</g>
<!-- Node18 -->
<g id="node18" class="node">
<title>Node18</title>
<g id="a_node18"><a xlink:href="flowreferencebc_8hpp.html" target="_top" xlink:title="MODEL::FlowReferenceBC source file.">
<polygon fill="none" stroke="black" points="0,-224.5 0,-243.5 103,-243.5 103,-224.5 0,-224.5"/>
<text text-anchor="middle" x="51.5" y="-231.5" font-family="Helvetica,sans-Serif" font-size="10.00">flowreferencebc.hpp</text>
</a>
</g>
</g>
<!-- Node3&#45;&gt;Node18 -->
<g id="edge28" class="edge">
<title>Node3&#45;&gt;Node18</title>
<path fill="none" stroke="midnightblue" d="M591.17,-285.86C499.18,-279.78 295.04,-265.2 113.2,-244.14"/>
<polygon fill="midnightblue" stroke="midnightblue" points="113.52,-240.65 103.18,-242.97 112.71,-247.6 113.52,-240.65"/>
</g>
<!-- Node21 -->
<g id="node21" class="node">
<title>Node21</title>
<g id="a_node21"><a xlink:href="junction_8hpp.html" target="_top" xlink:title="MODEL::Junction source file.">
<polygon fill="none" stroke="black" points="893.5,-224.5 893.5,-243.5 961.5,-243.5 961.5,-224.5 893.5,-224.5"/>
<text text-anchor="middle" x="927.5" y="-231.5" font-family="Helvetica,sans-Serif" font-size="10.00">junction.hpp</text>
</a>
</g>
</g>
<!-- Node3&#45;&gt;Node21 -->
<g id="edge37" class="edge">
<title>Node3&#45;&gt;Node21</title>
<path fill="none" stroke="midnightblue" d="M688.71,-280.46C735.86,-272.03 809.96,-258.57 883.37,-244.19"/>
<polygon fill="midnightblue" stroke="midnightblue" points="884.11,-247.61 893.25,-242.25 882.76,-240.74 884.11,-247.61"/>
</g>
<!-- Node22 -->
<g id="node22" class="node">
<title>Node22</title>
<g id="a_node22"><a xlink:href="openloopcoronarybc_8hpp.html" target="_top" xlink:title="MODEL::OpenLoopCoronaryBC source file.">
<polygon fill="none" stroke="black" points="121,-224.5 121,-243.5 242,-243.5 242,-224.5 121,-224.5"/>
<text text-anchor="middle" x="181.5" y="-231.5" font-family="Helvetica,sans-Serif" font-size="10.00">openloopcoronarybc.hpp</text>
</a>
</g>
</g>
<!-- Node3&#45;&gt;Node22 -->
<g id="edge42" class="edge">
<title>Node3&#45;&gt;Node22</title>
<path fill="none" stroke="midnightblue" d="M591.22,-283.55C519.08,-275.52 380.22,-259.87 252.07,-244.18"/>
<polygon fill="midnightblue" stroke="midnightblue" points="252.43,-240.7 242.08,-242.95 251.57,-247.64 252.43,-240.7"/>
</g>
<!-- Node23 -->
<g id="node23" class="node">
<title>Node23</title>
<g id="a_node23"><a xlink:href="pressurereferencebc_8hpp.html" target="_top" xlink:title="MODEL::PressureReferenceBC source file.">
<polygon fill="none" stroke="black" points="260,-224.5 260,-243.5 383,-243.5 383,-224.5 260,-224.5"/>
<text text-anchor="middle" x="321.5" y="-231.5" font-family="Helvetica,sans-Serif" font-size="10.00">pressurereferencebc.hpp</text>
</a>
</g>
</g>
<!-- Node3&#45;&gt;Node23 -->
<g id="edge47" class="edge">
<title>Node3&#45;&gt;Node23</title>
<path fill="none" stroke="midnightblue" d="M591.36,-280.68C535.02,-271.14 442.65,-255.51 381.96,-245.23"/>
<polygon fill="midnightblue" stroke="midnightblue" points="382.2,-241.73 371.75,-243.51 381.03,-248.63 382.2,-241.73"/>
</g>
<!-- Node24 -->
<g id="node24" class="node">
<title>Node24</title>
<g id="a_node24"><a xlink:href="resistancebc_8hpp.html" target="_top" xlink:title="MODEL::ResistanceBC source file.">
<polygon fill="none" stroke="black" points="401.5,-224.5 401.5,-243.5 491.5,-243.5 491.5,-224.5 401.5,-224.5"/>
<text text-anchor="middle" x="446.5" y="-231.5" font-family="Helvetica,sans-Serif" font-size="10.00">resistancebc.hpp</text>
</a>
</g>
</g>
<!-- Node3&#45;&gt;Node24 -->
<g id="edge52" class="edge">
<title>Node3&#45;&gt;Node24</title>
<path fill="none" stroke="midnightblue" d="M609.76,-280.44C576.56,-271.2 523.51,-256.44 486.94,-246.26"/>
<polygon fill="midnightblue" stroke="midnightblue" points="487.67,-242.83 477.1,-243.52 485.79,-249.57 487.67,-242.83"/>
</g>
<!-- Node25 -->
<g id="node25" class="node">
<title>Node25</title>
<g id="a_node25"><a xlink:href="windkesselbc_8hpp.html" target="_top" xlink:title="MODEL::WindkesselBC source file.">
<polygon fill="none" stroke="black" points="509.5,-224.5 509.5,-243.5 603.5,-243.5 603.5,-224.5 509.5,-224.5"/>
<text text-anchor="middle" x="556.5" y="-231.5" font-family="Helvetica,sans-Serif" font-size="10.00">windkesselbc.hpp</text>
</a>
</g>
</g>
<!-- Node3&#45;&gt;Node25 -->
<g id="edge57" class="edge">
<title>Node3&#45;&gt;Node25</title>
<path fill="none" stroke="midnightblue" d="M627,-280.32C613.9,-271.9 593.79,-258.97 578.39,-249.07"/>
<polygon fill="midnightblue" stroke="midnightblue" points="580.27,-246.12 569.96,-243.65 576.48,-252.01 580.27,-246.12"/>
</g>
<!-- Node7&#45;&gt;Node3 -->
<g id="edge11" class="edge">
<title>Node7&#45;&gt;Node3</title>
<path fill="none" stroke="midnightblue" d="M621.89,-131.57C629.7,-157.23 640.75,-233.92 642.35,-269.93"/>
<polygon fill="midnightblue" stroke="midnightblue" points="638.86,-270.14 642.53,-280.08 645.86,-270.02 638.86,-270.14"/>
</g>
<!-- Node8 -->
<g id="node8" class="node">
<title>Node8</title>
<g id="a_node8"><a xlink:title=" ">
<polygon fill="none" stroke="#bfbfbf" points="580.5,-56.5 580.5,-75.5 654.5,-75.5 654.5,-56.5 580.5,-56.5"/>
<text text-anchor="middle" x="617.5" y="-63.5" font-family="Helvetica,sans-Serif" font-size="10.00">Eigen/Sparse</text>
</a>
</g>
</g>
<!-- Node7&#45;&gt;Node8 -->
<g id="edge8" class="edge">
<title>Node7&#45;&gt;Node8</title>
<path fill="none" stroke="midnightblue" d="M617.5,-112.08C617.5,-105.01 617.5,-94.86 617.5,-85.99"/>
<polygon fill="midnightblue" stroke="midnightblue" points="621,-85.75 617.5,-75.75 614,-85.75 621,-85.75"/>
</g>
<!-- Node9 -->
<g id="node9" class="node">
<title>Node9</title>
<g id="a_node9"><a xlink:title=" ">
<polygon fill="none" stroke="#bfbfbf" points="672.5,-56.5 672.5,-75.5 760.5,-75.5 760.5,-56.5 672.5,-56.5"/>
<text text-anchor="middle" x="716.5" y="-63.5" font-family="Helvetica,sans-Serif" font-size="10.00">Eigen/SparseLU</text>
</a>
</g>
</g>
<!-- Node7&#45;&gt;Node9 -->
<g id="edge9" class="edge">
<title>Node7&#45;&gt;Node9</title>
<path fill="none" stroke="midnightblue" d="M633.41,-112.32C649.14,-103.74 673.44,-90.49 691.71,-80.52"/>
<polygon fill="midnightblue" stroke="midnightblue" points="693.53,-83.52 700.63,-75.65 690.18,-77.37 693.53,-83.52"/>
</g>
<!-- Node10 -->
<g id="node10" class="node">
<title>Node10</title>
<g id="a_node10"><a xlink:title=" ">
<polygon fill="none" stroke="#bfbfbf" points="508.5,-56.5 508.5,-75.5 562.5,-75.5 562.5,-56.5 508.5,-56.5"/>
<text text-anchor="middle" x="535.5" y="-63.5" font-family="Helvetica,sans-Serif" font-size="10.00">iostream</text>
</a>
</g>
</g>
<!-- Node7&#45;&gt;Node10 -->
<g id="edge10" class="edge">
<title>Node7&#45;&gt;Node10</title>
<path fill="none" stroke="midnightblue" d="M604.33,-112.32C591.65,-103.98 572.27,-91.21 557.29,-81.35"/>
<polygon fill="midnightblue" stroke="midnightblue" points="558.92,-78.23 548.64,-75.65 555.07,-84.08 558.92,-78.23"/>
</g>
<!-- Node11&#45;&gt;Node1 -->
<g id="edge14" class="edge">
<title>Node11&#45;&gt;Node1</title>
<path fill="none" stroke="midnightblue" d="M816.74,-243.54C792.01,-256.72 742.4,-282.35 698.5,-300 665.91,-313.11 627.9,-325.2 599.87,-333.55"/>
<polygon fill="midnightblue" stroke="midnightblue" points="598.63,-330.26 590.03,-336.44 600.61,-336.98 598.63,-330.26"/>
</g>
<!-- Node11&#45;&gt;Node7 -->
<g id="edge15" class="edge">
<title>Node11&#45;&gt;Node7</title>
<path fill="none" stroke="midnightblue" d="M815.63,-224.37C778.19,-205.21 687.93,-159.04 643.33,-136.22"/>
<polygon fill="midnightblue" stroke="midnightblue" points="644.79,-133.03 634.29,-131.59 641.6,-139.26 644.79,-133.03"/>
</g>
<!-- Node12 -->
<g id="node12" class="node">
<title>Node12</title>
<g id="a_node12"><a xlink:title=" ">
<polygon fill="none" stroke="#bfbfbf" points="469.5,-112.5 469.5,-131.5 515.5,-131.5 515.5,-112.5 469.5,-112.5"/>
<text text-anchor="middle" x="492.5" y="-119.5" font-family="Helvetica,sans-Serif" font-size="10.00">math.h</text>
</a>
</g>
</g>
<!-- Node11&#45;&gt;Node12 -->
<g id="edge13" class="edge">
<title>Node11&#45;&gt;Node12</title>
<path fill="none" stroke="midnightblue" d="M806.1,-224.46C744.81,-204.63 592.96,-155.5 525.6,-133.71"/>
<polygon fill="midnightblue" stroke="midnightblue" points="526.5,-130.32 515.91,-130.57 524.35,-136.98 526.5,-130.32"/>
</g>
<!-- Node13 -->
<g id="node13" class="node">
<title>Node13</title>
<g id="a_node13"><a xlink:href="block_8hpp.html" target="_top" xlink:title="MODEL::Block source file.">
<polygon fill="none" stroke="black" points="781.5,-168.5 781.5,-187.5 839.5,-187.5 839.5,-168.5 781.5,-168.5"/>
<text text-anchor="middle" x="810.5" y="-175.5" font-family="Helvetica,sans-Serif" font-size="10.00">block.hpp</text>
</a>
</g>
</g>
<!-- Node11&#45;&gt;Node13 -->
<g id="edge16" class="edge">
<title>Node11&#45;&gt;Node13</title>
<path fill="none" stroke="midnightblue" d="M828.87,-224.08C825.89,-216.77 821.57,-206.18 817.88,-197.1"/>
<polygon fill="midnightblue" stroke="midnightblue" points="821.08,-195.69 814.07,-187.75 814.6,-198.33 821.08,-195.69"/>
</g>
<!-- Node13&#45;&gt;Node1 -->
<g id="edge19" class="edge">
<title>Node13&#45;&gt;Node1</title>
<path fill="none" stroke="midnightblue" d="M839.82,-180.37C894.94,-184.05 1005.46,-197.32 970.5,-244 930.5,-297.41 740.35,-325.88 633.26,-337.91"/>
<polygon fill="midnightblue" stroke="midnightblue" points="632.72,-334.44 623.16,-339.02 633.49,-341.4 632.72,-334.44"/>
</g>
<!-- Node13&#45;&gt;Node5 -->
<g id="edge17" class="edge">
<title>Node13&#45;&gt;Node5</title>
<path fill="none" stroke="midnightblue" d="M835.22,-168.44C863.5,-158.65 909.68,-142.67 939.06,-132.5"/>
<polygon fill="midnightblue" stroke="midnightblue" points="940.39,-135.74 948.69,-129.16 938.1,-129.13 940.39,-135.74"/>
</g>
<!-- Node13&#45;&gt;Node7 -->
<g id="edge20" class="edge">
<title>Node13&#45;&gt;Node7</title>
<path fill="none" stroke="midnightblue" d="M781.19,-168.8C748.32,-159.6 694.8,-144.63 657.96,-134.32"/>
<polygon fill="midnightblue" stroke="midnightblue" points="658.62,-130.87 648.05,-131.55 656.73,-137.61 658.62,-130.87"/>
</g>
<!-- Node14 -->
<g id="node14" class="node">
<title>Node14</title>
<g id="a_node14"><a xlink:title=" ">
<polygon fill="none" stroke="#bfbfbf" points="788.5,-0.5 788.5,-19.5 832.5,-19.5 832.5,-0.5 788.5,-0.5"/>
<text text-anchor="middle" x="810.5" y="-7.5" font-family="Helvetica,sans-Serif" font-size="10.00">vector</text>
</a>
</g>
</g>
<!-- Node13&#45;&gt;Node14 -->
<g id="edge18" class="edge">
<title>Node13&#45;&gt;Node14</title>
<path fill="none" stroke="midnightblue" d="M810.5,-168.08C810.5,-141.95 810.5,-65.21 810.5,-29.58"/>
<polygon fill="midnightblue" stroke="midnightblue" points="814,-29.57 810.5,-19.57 807,-29.57 814,-29.57"/>
</g>
<!-- Node13&#45;&gt;Node15 -->
<g id="edge21" class="edge">
<title>Node13&#45;&gt;Node15</title>
<path fill="none" stroke="midnightblue" d="M817.17,-168.37C831.26,-150.14 864.26,-107.43 882.61,-83.68"/>
<polygon fill="midnightblue" stroke="midnightblue" points="885.52,-85.64 888.86,-75.59 879.98,-81.36 885.52,-85.64"/>
</g>
<!-- Node13&#45;&gt;Node17 -->
<g id="edge24" class="edge">
<title>Node13&#45;&gt;Node17</title>
<path fill="none" stroke="midnightblue" d="M839.67,-171.62C892.92,-161.81 1005.87,-140.99 1065.23,-130.05"/>
<polygon fill="midnightblue" stroke="midnightblue" points="1066.11,-133.45 1075.31,-128.19 1064.85,-126.57 1066.11,-133.45"/>
</g>
<!-- Node15&#45;&gt;Node14 -->
<g id="edge23" class="edge">
<title>Node15&#45;&gt;Node14</title>
<path fill="none" stroke="midnightblue" d="M881.84,-56.32C868.58,-47.9 848.23,-34.97 832.65,-25.07"/>
<polygon fill="midnightblue" stroke="midnightblue" points="834.44,-22.06 824.12,-19.65 830.69,-27.97 834.44,-22.06"/>
</g>
<!-- Node16 -->
<g id="node16" class="node">
<title>Node16</title>
<g id="a_node16"><a xlink:title=" ">
<polygon fill="none" stroke="#bfbfbf" points="938,-0.5 938,-19.5 979,-19.5 979,-0.5 938,-0.5"/>
<text text-anchor="middle" x="958.5" y="-7.5" font-family="Helvetica,sans-Serif" font-size="10.00">string</text>
</a>
</g>
</g>
<!-- Node15&#45;&gt;Node16 -->
<g id="edge22" class="edge">
<title>Node15&#45;&gt;Node16</title>
<path fill="none" stroke="midnightblue" d="M905.62,-56.32C915.03,-48.26 929.24,-36.08 940.57,-26.37"/>
<polygon fill="midnightblue" stroke="midnightblue" points="942.88,-29 948.19,-19.83 938.32,-23.68 942.88,-29"/>
</g>
<!-- Node17&#45;&gt;Node15 -->
<g id="edge26" class="edge">
<title>Node17&#45;&gt;Node15</title>
<path fill="none" stroke="midnightblue" d="M1075.45,-113.72C1040.21,-104.57 979.39,-88.78 938.32,-78.12"/>
<polygon fill="midnightblue" stroke="midnightblue" points="939.15,-74.72 928.59,-75.59 937.39,-81.49 939.15,-74.72"/>
</g>
<!-- Node17&#45;&gt;Node16 -->
<g id="edge25" class="edge">
<title>Node17&#45;&gt;Node16</title>
<path fill="none" stroke="midnightblue" d="M1092.12,-112.37C1067.45,-93.65 1008.79,-49.15 978.05,-25.83"/>
<polygon fill="midnightblue" stroke="midnightblue" points="979.91,-22.85 969.83,-19.59 975.68,-28.42 979.91,-22.85"/>
</g>
<!-- Node18&#45;&gt;Node1 -->
<g id="edge29" class="edge">
<title>Node18&#45;&gt;Node1</title>
<path fill="none" stroke="midnightblue" d="M103.2,-242.82C106.01,-243.22 108.79,-243.62 111.5,-244 234.01,-261.18 270.5,-239.83 387.5,-280 404.08,-285.69 405.52,-292.8 421.5,-300 452.5,-313.97 489.16,-325.72 516.9,-333.7"/>
<polygon fill="midnightblue" stroke="midnightblue" points="516.11,-337.12 526.69,-336.47 518.02,-330.38 516.11,-337.12"/>
</g>
<!-- Node18&#45;&gt;Node7 -->
<g id="edge30" class="edge">
<title>Node18&#45;&gt;Node7</title>
<path fill="none" stroke="midnightblue" d="M103.2,-225.19C106.01,-224.78 108.79,-224.38 111.5,-224 232.69,-206.92 269.04,-228.58 384.5,-188 400.68,-182.31 401.59,-174.41 417.5,-168 458.56,-151.45 506.94,-140.36 545.82,-133.33"/>
<polygon fill="midnightblue" stroke="midnightblue" points="546.77,-136.72 556.01,-131.54 545.56,-129.83 546.77,-136.72"/>
</g>
<!-- Node18&#45;&gt;Node13 -->
<g id="edge31" class="edge">
<title>Node18&#45;&gt;Node13</title>
<path fill="none" stroke="midnightblue" d="M103.17,-224.97C105.99,-224.62 108.78,-224.29 111.5,-224 361.96,-197.2 664.74,-184.31 771.2,-180.36"/>
<polygon fill="midnightblue" stroke="midnightblue" points="771.6,-183.85 781.46,-179.99 771.34,-176.86 771.6,-183.85"/>
</g>
<!-- Node19 -->
<g id="node19" class="node">
<title>Node19</title>
<g id="a_node19"><a xlink:href="timedependentparameter_8hpp.html" target="_top" xlink:title="MODEL::TimeDependentParameter source file.">
<polygon fill="none" stroke="black" points="233.5,-168.5 233.5,-187.5 375.5,-187.5 375.5,-168.5 233.5,-168.5"/>
<text text-anchor="middle" x="304.5" y="-175.5" font-family="Helvetica,sans-Serif" font-size="10.00">timedependentparameter.hpp</text>
</a>
</g>
</g>
<!-- Node18&#45;&gt;Node19 -->
<g id="edge32" class="edge">
<title>Node18&#45;&gt;Node19</title>
<path fill="none" stroke="midnightblue" d="M91.59,-224.44C135.82,-215 207.04,-199.8 254.78,-189.61"/>
<polygon fill="midnightblue" stroke="midnightblue" points="255.55,-193.03 264.6,-187.52 254.09,-186.18 255.55,-193.03"/>
</g>
<!-- Node19&#45;&gt;Node12 -->
<g id="edge33" class="edge">
<title>Node19&#45;&gt;Node12</title>
<path fill="none" stroke="midnightblue" d="M334.29,-168.44C368.4,-158.65 424.13,-142.64 459.52,-132.47"/>
<polygon fill="midnightblue" stroke="midnightblue" points="460.72,-135.77 469.37,-129.64 458.79,-129.04 460.72,-135.77"/>
</g>
<!-- Node19&#45;&gt;Node14 -->
<g id="edge35" class="edge">
<title>Node19&#45;&gt;Node14</title>
<path fill="none" stroke="midnightblue" d="M316.27,-168.44C334,-155.67 368.76,-131.07 399.5,-112 442.79,-85.15 451.26,-72.37 499.5,-56 597.3,-22.82 720.51,-14.1 778.08,-11.82"/>
<polygon fill="midnightblue" stroke="midnightblue" points="778.5,-15.3 788.37,-11.45 778.25,-8.31 778.5,-15.3"/>
</g>
<!-- Node19&#45;&gt;Node15 -->
<g id="edge36" class="edge">
<title>Node19&#45;&gt;Node15</title>
<path fill="none" stroke="midnightblue" d="M320.8,-168.33C348.6,-153.97 407.32,-125.52 460.5,-112 497.04,-102.71 738.77,-80.74 845.27,-71.37"/>
<polygon fill="midnightblue" stroke="midnightblue" points="845.79,-74.83 855.44,-70.47 845.18,-67.86 845.79,-74.83"/>
</g>
<!-- Node20 -->
<g id="node20" class="node">
<title>Node20</title>
<g id="a_node20"><a xlink:title=" ">
<polygon fill="none" stroke="#bfbfbf" points="279,-112.5 279,-131.5 330,-131.5 330,-112.5 279,-112.5"/>
<text text-anchor="middle" x="304.5" y="-119.5" font-family="Helvetica,sans-Serif" font-size="10.00">numeric</text>
</a>
</g>
</g>
<!-- Node19&#45;&gt;Node20 -->
<g id="edge34" class="edge">
<title>Node19&#45;&gt;Node20</title>
<path fill="none" stroke="midnightblue" d="M304.5,-168.08C304.5,-161.01 304.5,-150.86 304.5,-141.99"/>
<polygon fill="midnightblue" stroke="midnightblue" points="308,-141.75 304.5,-131.75 301,-141.75 308,-141.75"/>
</g>
<!-- Node21&#45;&gt;Node1 -->
<g id="edge38" class="edge">
<title>Node21&#45;&gt;Node1</title>
<path fill="none" stroke="midnightblue" d="M904.04,-243.59C868.04,-256.62 796.9,-281.78 735.5,-300 692.02,-312.9 641.85,-325.51 606.23,-334.08"/>
<polygon fill="midnightblue" stroke="midnightblue" points="605.04,-330.76 596.13,-336.5 606.67,-337.57 605.04,-330.76"/>
</g>
<!-- Node21&#45;&gt;Node7 -->
<g id="edge39" class="edge">
<title>Node21&#45;&gt;Node7</title>
<path fill="none" stroke="midnightblue" d="M919.71,-224.24C906.55,-210.02 878.38,-182.08 848.5,-168 800.73,-145.48 742.3,-134.23 696.16,-128.61"/>
<polygon fill="midnightblue" stroke="midnightblue" points="696.55,-125.13 686.21,-127.46 695.75,-132.09 696.55,-125.13"/>
</g>
<!-- Node21&#45;&gt;Node13 -->
<g id="edge40" class="edge">
<title>Node21&#45;&gt;Node13</title>
<path fill="none" stroke="midnightblue" d="M908.96,-224.44C889.88,-215.64 859.93,-201.81 838.06,-191.72"/>
<polygon fill="midnightblue" stroke="midnightblue" points="839.5,-188.53 828.95,-187.52 836.57,-194.88 839.5,-188.53"/>
</g>
<!-- Node22&#45;&gt;Node1 -->
<g id="edge43" class="edge">
<title>Node22&#45;&gt;Node1</title>
<path fill="none" stroke="midnightblue" d="M237.58,-243.53C297.5,-252.99 388.32,-268.45 421.5,-280 439.52,-286.27 442.35,-291.64 459.5,-300 483.03,-311.47 510.13,-323.6 530.18,-332.37"/>
<polygon fill="midnightblue" stroke="midnightblue" points="528.84,-335.61 539.41,-336.39 531.64,-329.19 528.84,-335.61"/>
</g>
<!-- Node22&#45;&gt;Node7 -->
<g id="edge44" class="edge">
<title>Node22&#45;&gt;Node7</title>
<path fill="none" stroke="midnightblue" d="M236.38,-224.46C295.29,-214.96 384.82,-199.43 417.5,-188 435.52,-181.7 437.76,-175.04 455.5,-168 492.26,-153.41 535.49,-141.66 568.04,-133.83"/>
<polygon fill="midnightblue" stroke="midnightblue" points="568.85,-137.24 577.78,-131.53 567.24,-130.42 568.85,-137.24"/>
</g>
<!-- Node22&#45;&gt;Node13 -->
<g id="edge45" class="edge">
<title>Node22&#45;&gt;Node13</title>
<path fill="none" stroke="midnightblue" d="M242.06,-224.93C244.91,-224.6 247.74,-224.29 250.5,-224 445.51,-203.46 679.59,-187.43 771.11,-181.49"/>
<polygon fill="midnightblue" stroke="midnightblue" points="771.55,-184.97 781.3,-180.83 771.1,-177.99 771.55,-184.97"/>
</g>
<!-- Node22&#45;&gt;Node19 -->
<g id="edge46" class="edge">
<title>Node22&#45;&gt;Node19</title>
<path fill="none" stroke="midnightblue" d="M200.99,-224.44C221.14,-215.6 252.82,-201.69 275.83,-191.59"/>
<polygon fill="midnightblue" stroke="midnightblue" points="277.35,-194.74 285.1,-187.52 274.54,-188.33 277.35,-194.74"/>
</g>
<!-- Node23&#45;&gt;Node1 -->
<g id="edge48" class="edge">
<title>Node23&#45;&gt;Node1</title>
<path fill="none" stroke="midnightblue" d="M355.92,-243.53C384.43,-251.22 425.62,-263.81 459.5,-280 489.31,-294.25 520.81,-315.99 540.31,-330.34"/>
<polygon fill="midnightblue" stroke="midnightblue" points="538.27,-333.19 548.38,-336.37 542.46,-327.58 538.27,-333.19"/>
</g>
<!-- Node23&#45;&gt;Node7 -->
<g id="edge49" class="edge">
<title>Node23&#45;&gt;Node7</title>
<path fill="none" stroke="midnightblue" d="M348.35,-224.49C375.52,-215.75 418.65,-201.57 455.5,-188 502.15,-170.83 555.53,-148.97 587.86,-135.49"/>
<polygon fill="midnightblue" stroke="midnightblue" points="589.31,-138.68 597.19,-131.59 586.61,-132.22 589.31,-138.68"/>
</g>
<!-- Node23&#45;&gt;Node13 -->
<g id="edge50" class="edge">
<title>Node23&#45;&gt;Node13</title>
<path fill="none" stroke="midnightblue" d="M383.06,-225.12C386.26,-224.74 389.41,-224.36 392.5,-224 531.55,-207.7 696.9,-190.56 771.07,-182.99"/>
<polygon fill="midnightblue" stroke="midnightblue" points="771.75,-186.44 781.34,-181.95 771.04,-179.48 771.75,-186.44"/>
</g>
<!-- Node23&#45;&gt;Node19 -->
<g id="edge51" class="edge">
<title>Node23&#45;&gt;Node19</title>
<path fill="none" stroke="midnightblue" d="M318.69,-224.08C316.42,-216.85 313.13,-206.41 310.29,-197.4"/>
<polygon fill="midnightblue" stroke="midnightblue" points="313.6,-196.24 307.25,-187.75 306.92,-198.34 313.6,-196.24"/>
</g>
<!-- Node24&#45;&gt;Node1 -->
<g id="edge53" class="edge">
<title>Node24&#45;&gt;Node1</title>
<path fill="none" stroke="midnightblue" d="M456.89,-243.71C467.37,-252.6 483.88,-266.9 497.5,-280 514.25,-296.12 532.52,-315.5 544.85,-328.89"/>
<polygon fill="midnightblue" stroke="midnightblue" points="542.36,-331.35 551.7,-336.36 547.53,-326.62 542.36,-331.35"/>
</g>
<!-- Node24&#45;&gt;Node7 -->
<g id="edge54" class="edge">
<title>Node24&#45;&gt;Node7</title>
<path fill="none" stroke="midnightblue" d="M459.92,-224.37C489.26,-205.49 559.38,-160.38 595.37,-137.24"/>
<polygon fill="midnightblue" stroke="midnightblue" points="597.63,-139.95 604.14,-131.59 593.84,-134.06 597.63,-139.95"/>
</g>
<!-- Node24&#45;&gt;Node13 -->
<g id="edge55" class="edge">
<title>Node24&#45;&gt;Node13</title>
<path fill="none" stroke="midnightblue" d="M491.57,-225.42C494.59,-224.93 497.59,-224.45 500.5,-224 597.83,-208.83 712.61,-192.6 771.43,-184.4"/>
<polygon fill="midnightblue" stroke="midnightblue" points="771.98,-187.86 781.41,-183.02 771.02,-180.93 771.98,-187.86"/>
</g>
<!-- Node24&#45;&gt;Node19 -->
<g id="edge56" class="edge">
<title>Node24&#45;&gt;Node19</title>
<path fill="none" stroke="midnightblue" d="M424,-224.44C400.42,-215.48 363.18,-201.31 336.54,-191.18"/>
<polygon fill="midnightblue" stroke="midnightblue" points="337.49,-187.8 326.9,-187.52 335,-194.34 337.49,-187.8"/>
</g>
<!-- Node25&#45;&gt;Node1 -->
<g id="edge58" class="edge">
<title>Node25&#45;&gt;Node1</title>
<path fill="none" stroke="midnightblue" d="M556.73,-243.59C557.22,-261.31 558.33,-302.25 558.99,-326.35"/>
<polygon fill="midnightblue" stroke="midnightblue" points="555.49,-326.47 559.26,-336.37 562.49,-326.28 555.49,-326.47"/>
</g>
<!-- Node25&#45;&gt;Node7 -->
<g id="edge59" class="edge">
<title>Node25&#45;&gt;Node7</title>
<path fill="none" stroke="midnightblue" d="M561.29,-224.37C571.26,-206.38 594.46,-164.55 607.73,-140.63"/>
<polygon fill="midnightblue" stroke="midnightblue" points="610.95,-142.03 612.74,-131.59 604.83,-138.64 610.95,-142.03"/>
</g>
<!-- Node25&#45;&gt;Node13 -->
<g id="edge60" class="edge">
<title>Node25&#45;&gt;Node13</title>
<path fill="none" stroke="midnightblue" d="M596.75,-224.44C644.58,-214.28 723.85,-197.42 771.24,-187.35"/>
<polygon fill="midnightblue" stroke="midnightblue" points="772.08,-190.75 781.13,-185.24 770.62,-183.9 772.08,-190.75"/>
</g>
</g>
</svg>
