<?xml version="1.0" encoding="UTF-8" standalone="no"?>
<!DOCTYPE svg PUBLIC "-//W3C//DTD SVG 1.1//EN"
 "http://www.w3.org/Graphics/SVG/1.1/DTD/svg11.dtd">
<!-- Generated by graphviz version 3.0.0 (20220413.0242)
 -->
<!-- Title: algebra/densesystem.hpp Pages: 1 -->
<svg width="589pt" height="252pt"
 viewBox="0.00 0.00 589.16 252.00" xmlns="http://www.w3.org/2000/svg" xmlns:xlink="http://www.w3.org/1999/xlink">
<g id="graph0" class="graph" transform="scale(1 1) rotate(0) translate(4 248)">
<title>algebra/densesystem.hpp</title>
<!-- Node1 -->
<g id="node1" class="node">
<title>Node1</title>
<g id="a_node1"><a xlink:title="ALGEBRA::DenseSystem source file.">
<polygon fill="#bfbfbf" stroke="black" points="218.5,-224.5 218.5,-243.5 345.5,-243.5 345.5,-224.5 218.5,-224.5"/>
<text text-anchor="middle" x="282" y="-231.5" font-family="Helvetica,sans-Serif" font-size="10.00">algebra/densesystem.hpp</text>
</a>
</g>
</g>
<!-- Node2 -->
<g id="node2" class="node">
<title>Node2</title>
<g id="a_node2"><a xlink:href="block_8hpp.html" target="_top" xlink:title="MODEL::Block source file.">
<polygon fill="none" stroke="black" points="202.5,-168.5 202.5,-187.5 289.5,-187.5 289.5,-168.5 202.5,-168.5"/>
<text text-anchor="middle" x="246" y="-175.5" font-family="Helvetica,sans-Serif" font-size="10.00">model/block.hpp</text>
</a>
</g>
</g>
<!-- Node1&#45;&gt;Node2 -->
<g id="edge1" class="edge">
<title>Node1&#45;&gt;Node2</title>
<path fill="none" stroke="midnightblue" d="M270.38,-215.57C264.18,-206.27 256.83,-195.25 251.83,-187.75"/>
<polygon fill="midnightblue" stroke="midnightblue" points="267.6,-217.7 276.06,-224.08 273.42,-213.82 267.6,-217.7"/>
</g>
<!-- Node3 -->
<g id="node3" class="node">
<title>Node3</title>
<g id="a_node3"><a xlink:href="bloodvessel_8hpp.html" target="_top" xlink:title="MODEL::BloodVessel source file.">
<polygon fill="none" stroke="black" points="116,-112.5 116,-131.5 232,-131.5 232,-112.5 116,-112.5"/>
<text text-anchor="middle" x="174" y="-119.5" font-family="Helvetica,sans-Serif" font-size="10.00">model/bloodvessel.hpp</text>
</a>
</g>
</g>
<!-- Node1&#45;&gt;Node3 -->
<g id="edge15" class="edge">
<title>Node1&#45;&gt;Node3</title>
<path fill="none" stroke="midnightblue" d="M241.35,-220.62C224.26,-213.55 205.49,-203.03 193,-188 179.17,-171.36 175.41,-145.06 174.38,-131.58"/>
<polygon fill="midnightblue" stroke="midnightblue" points="240.57,-224.07 251.16,-224.39 243.08,-217.53 240.57,-224.07"/>
</g>
<!-- Node4 -->
<g id="node4" class="node">
<title>Node4</title>
<g id="a_node4"><a xlink:href="model_8hpp.html" target="_top" xlink:title="MODEL::Model source file.">
<polygon fill="none" stroke="black" points="263,-56.5 263,-75.5 353,-75.5 353,-56.5 263,-56.5"/>
<text text-anchor="middle" x="308" y="-63.5" font-family="Helvetica,sans-Serif" font-size="10.00">model/model.hpp</text>
</a>
</g>
</g>
<!-- Node1&#45;&gt;Node4 -->
<g id="edge18" class="edge">
<title>Node1&#45;&gt;Node4</title>
<path fill="none" stroke="midnightblue" d="M355.81,-230.61C425.67,-223.95 527.05,-201.9 577,-132 582.17,-124.77 582.74,-118.78 577,-112 548.85,-78.75 422.2,-70.05 353.19,-67.79"/>
<polygon fill="midnightblue" stroke="midnightblue" points="355.4,-227.13 345.74,-231.49 356.01,-234.11 355.4,-227.13"/>
</g>
<!-- Node9 -->
<g id="node9" class="node">
<title>Node9</title>
<g id="a_node9"><a xlink:href="flowreference_8hpp.html" target="_top" xlink:title="MODEL::FlowReference source file.">
<polygon fill="none" stroke="black" points="250,-112.5 250,-131.5 372,-131.5 372,-112.5 250,-112.5"/>
<text text-anchor="middle" x="311" y="-119.5" font-family="Helvetica,sans-Serif" font-size="10.00">model/flowreference.hpp</text>
</a>
</g>
</g>
<!-- Node1&#45;&gt;Node9 -->
<g id="edge16" class="edge">
<title>Node1&#45;&gt;Node9</title>
<path fill="none" stroke="midnightblue" d="M289.09,-214.94C292.12,-206.79 295.51,-197 298,-188 303.52,-168.03 307.7,-144.01 309.7,-131.51"/>
<polygon fill="midnightblue" stroke="midnightblue" points="285.74,-213.9 285.44,-224.49 292.28,-216.4 285.74,-213.9"/>
</g>
<!-- Node10 -->
<g id="node10" class="node">
<title>Node10</title>
<g id="a_node10"><a xlink:href="junction_8hpp.html" target="_top" xlink:title="MODEL::Junction source file.">
<polygon fill="none" stroke="black" points="0,-112.5 0,-131.5 98,-131.5 98,-112.5 0,-112.5"/>
<text text-anchor="middle" x="49" y="-119.5" font-family="Helvetica,sans-Serif" font-size="10.00">model/junction.hpp</text>
</a>
</g>
</g>
<!-- Node1&#45;&gt;Node10 -->
<g id="edge17" class="edge">
<title>Node1&#45;&gt;Node10</title>
<path fill="none" stroke="midnightblue" d="M252.12,-220.43C231.47,-211.62 203.41,-199.43 179,-188 137.86,-168.75 90.3,-144.43 65.69,-131.69"/>
<polygon fill="midnightblue" stroke="midnightblue" points="250.77,-223.66 261.34,-224.35 253.5,-217.21 250.77,-223.66"/>
</g>
<!-- Node11 -->
<g id="node11" class="node">
<title>Node11</title>
<g id="a_node11"><a xlink:href="rcrblockwithdistalpressure_8hpp.html" target="_top" xlink:title="MODEL::RCRBlockWithDistalPressure source file.">
<polygon fill="none" stroke="black" points="390.5,-112.5 390.5,-131.5 567.5,-131.5 567.5,-112.5 390.5,-112.5"/>
<text text-anchor="middle" x="479" y="-119.5" font-family="Helvetica,sans-Serif" font-size="10.00">model/rcrblockwithdistalpressure.hpp</text>
</a>
</g>
</g>
<!-- Node1&#45;&gt;Node11 -->
<g id="edge19" class="edge">
<title>Node1&#45;&gt;Node11</title>
<path fill="none" stroke="midnightblue" d="M306.27,-219.45C347.37,-196.5 429.52,-150.63 463.61,-131.59"/>
<polygon fill="midnightblue" stroke="midnightblue" points="304.48,-216.44 297.46,-224.37 307.9,-222.55 304.48,-216.44"/>
</g>
<!-- Node2&#45;&gt;Node3 -->
<g id="edge2" class="edge">
<title>Node2&#45;&gt;Node3</title>
<path fill="none" stroke="midnightblue" d="M226.13,-162.1C213.18,-152.38 196.7,-140.03 185.78,-131.83"/>
<polygon fill="midnightblue" stroke="midnightblue" points="224.33,-165.12 234.43,-168.32 228.53,-159.52 224.33,-165.12"/>
</g>
<!-- Node2&#45;&gt;Node9 -->
<g id="edge8" class="edge">
<title>Node2&#45;&gt;Node9</title>
<path fill="none" stroke="midnightblue" d="M264.27,-161.82C275.92,-152.15 290.6,-139.95 300.37,-131.83"/>
<polygon fill="midnightblue" stroke="midnightblue" points="261.9,-159.24 256.44,-168.32 266.37,-164.63 261.9,-159.24"/>
</g>
<!-- Node2&#45;&gt;Node10 -->
<g id="edge10" class="edge">
<title>Node2&#45;&gt;Node10</title>
<path fill="none" stroke="midnightblue" d="M204.77,-165.7C167.59,-155.51 113.73,-140.74 80.07,-131.52"/>
<polygon fill="midnightblue" stroke="midnightblue" points="204.22,-169.18 214.78,-168.44 206.07,-162.42 204.22,-169.18"/>
</g>
<!-- Node2&#45;&gt;Node11 -->
<g id="edge13" class="edge">
<title>Node2&#45;&gt;Node11</title>
<path fill="none" stroke="midnightblue" d="M292.8,-166.15C336.83,-155.95 401.85,-140.88 442.25,-131.52"/>
<polygon fill="midnightblue" stroke="midnightblue" points="291.87,-162.78 282.92,-168.44 293.45,-169.6 291.87,-162.78"/>
</g>
<!-- Node3&#45;&gt;Node4 -->
<g id="edge3" class="edge">
<title>Node3&#45;&gt;Node4</title>
<path fill="none" stroke="midnightblue" d="M204.68,-108.64C229.82,-98.5 264.75,-84.43 286.87,-75.52"/>
<polygon fill="midnightblue" stroke="midnightblue" points="203.2,-105.46 195.23,-112.44 205.82,-111.95 203.2,-105.46"/>
</g>
<!-- Node5 -->
<g id="node5" class="node">
<title>Node5</title>
<g id="a_node5"><a xlink:href="integrator_8hpp.html" target="_top" xlink:title="ALGEBRA::Integrator source file.">
<polygon fill="none" stroke="black" points="137,-0.5 137,-19.5 247,-19.5 247,-0.5 137,-0.5"/>
<text text-anchor="middle" x="192" y="-7.5" font-family="Helvetica,sans-Serif" font-size="10.00">algebra/integrator.hpp</text>
</a>
</g>
</g>
<!-- Node4&#45;&gt;Node5 -->
<g id="edge4" class="edge">
<title>Node4&#45;&gt;Node5</title>
<path fill="none" stroke="midnightblue" d="M280.28,-52.1C258.61,-42.01 229.1,-28.27 210.29,-19.52"/>
<polygon fill="midnightblue" stroke="midnightblue" points="279.08,-55.4 289.62,-56.44 282.03,-49.05 279.08,-55.4"/>
</g>
<!-- Node6 -->
<g id="node6" class="node">
<title>Node6</title>
<g id="a_node6"><a xlink:href="configreader_8hpp.html" target="_top" xlink:title="IO::ConfigReader source file.">
<polygon fill="none" stroke="black" points="18,-0.5 18,-19.5 116,-19.5 116,-0.5 18,-0.5"/>
<text text-anchor="middle" x="67" y="-7.5" font-family="Helvetica,sans-Serif" font-size="10.00">io/configreader.hpp</text>
</a>
</g>
</g>
<!-- Node4&#45;&gt;Node6 -->
<g id="edge5" class="edge">
<title>Node4&#45;&gt;Node6</title>
<path fill="none" stroke="midnightblue" d="M259.88,-54.22C214.34,-44.01 146.89,-28.9 105.01,-19.52"/>
<polygon fill="midnightblue" stroke="midnightblue" points="259.29,-57.67 269.81,-56.44 260.82,-50.84 259.29,-57.67"/>
</g>
<!-- Node7 -->
<g id="node7" class="node">
<title>Node7</title>
<g id="a_node7"><a xlink:href="csvwriter_8hpp.html" target="_top" xlink:title="IO::write_csv source file.">
<polygon fill="none" stroke="black" points="265.5,-0.5 265.5,-19.5 350.5,-19.5 350.5,-0.5 265.5,-0.5"/>
<text text-anchor="middle" x="308" y="-7.5" font-family="Helvetica,sans-Serif" font-size="10.00">io/csvwriter.hpp</text>
</a>
</g>
</g>
<!-- Node4&#45;&gt;Node7 -->
<g id="edge6" class="edge">
<title>Node4&#45;&gt;Node7</title>
<path fill="none" stroke="midnightblue" d="M308,-45.8C308,-36.91 308,-26.78 308,-19.75"/>
<polygon fill="midnightblue" stroke="midnightblue" points="304.5,-46.08 308,-56.08 311.5,-46.08 304.5,-46.08"/>
</g>
<!-- Node8 -->
<g id="node8" class="node">
<title>Node8</title>
<g id="a_node8"><a xlink:href="jsonwriter_8hpp.html" target="_top" xlink:title="IO::write_json source file.">
<polygon fill="none" stroke="black" points="368.5,-0.5 368.5,-19.5 455.5,-19.5 455.5,-0.5 368.5,-0.5"/>
<text text-anchor="middle" x="412" y="-7.5" font-family="Helvetica,sans-Serif" font-size="10.00">io/jsonwriter.hpp</text>
</a>
</g>
</g>
<!-- Node4&#45;&gt;Node8 -->
<g id="edge7" class="edge">
<title>Node4&#45;&gt;Node8</title>
<path fill="none" stroke="midnightblue" d="M333.83,-51.59C353.06,-41.61 378.74,-28.27 395.33,-19.65"/>
<polygon fill="midnightblue" stroke="midnightblue" points="331.97,-48.61 324.71,-56.32 335.2,-54.82 331.97,-48.61"/>
</g>
<!-- Node9&#45;&gt;Node4 -->
<g id="edge9" class="edge">
<title>Node9&#45;&gt;Node4</title>
<path fill="none" stroke="midnightblue" d="M309.93,-101.8C309.44,-92.91 308.88,-82.78 308.49,-75.75"/>
<polygon fill="midnightblue" stroke="midnightblue" points="306.46,-102.29 310.5,-112.08 313.44,-101.9 306.46,-102.29"/>
</g>
<!-- Node10&#45;&gt;Node4 -->
<g id="edge12" class="edge">
<title>Node10&#45;&gt;Node4</title>
<path fill="none" stroke="midnightblue" d="M100.1,-110.35C149.05,-100.14 221.95,-84.94 267.15,-75.52"/>
<polygon fill="midnightblue" stroke="midnightblue" points="99.11,-106.98 90.04,-112.44 100.54,-113.83 99.11,-106.98"/>
</g>
<!-- Node10&#45;&gt;Node6 -->
<g id="edge11" class="edge">
<title>Node10&#45;&gt;Node6</title>
<path fill="none" stroke="midnightblue" d="M52.05,-102.35C55.99,-78.25 62.7,-37.31 65.59,-19.59"/>
<polygon fill="midnightblue" stroke="midnightblue" points="48.57,-101.93 50.41,-112.37 55.48,-103.06 48.57,-101.93"/>
</g>
<!-- Node11&#45;&gt;Node4 -->
<g id="edge14" class="edge">
<title>Node11&#45;&gt;Node4</title>
<path fill="none" stroke="midnightblue" d="M441.96,-109.3C409.74,-99.13 363.81,-84.62 334.97,-75.52"/>
<polygon fill="midnightblue" stroke="midnightblue" points="441.31,-112.77 451.9,-112.44 443.42,-106.09 441.31,-112.77"/>
</g>
</g>
</svg>
