<?xml version="1.0" encoding="UTF-8" standalone="no"?>
<!DOCTYPE svg PUBLIC "-//W3C//DTD SVG 1.1//EN"
 "http://www.w3.org/Graphics/SVG/1.1/DTD/svg11.dtd">
<!-- Generated by graphviz version 3.0.0 (20220413.0242)
 -->
<!-- Title: algebra/densesystem.hpp Pages: 1 -->
<svg width="1553pt" height="308pt"
 viewBox="0.00 0.00 1553.00 308.00" xmlns="http://www.w3.org/2000/svg" xmlns:xlink="http://www.w3.org/1999/xlink">
<g id="graph0" class="graph" transform="scale(1 1) rotate(0) translate(4 304)">
<title>algebra/densesystem.hpp</title>
<!-- Node1 -->
<g id="node1" class="node">
<title>Node1</title>
<g id="a_node1"><a xlink:title="ALGEBRA::DenseSystem source file.">
<polygon fill="#bfbfbf" stroke="black" points="712.5,-280.5 712.5,-299.5 839.5,-299.5 839.5,-280.5 712.5,-280.5"/>
<text text-anchor="middle" x="776" y="-287.5" font-family="Helvetica,sans-Serif" font-size="10.00">algebra/densesystem.hpp</text>
</a>
</g>
</g>
<!-- Node2 -->
<g id="node2" class="node">
<title>Node2</title>
<g id="a_node2"><a xlink:href="main_8cpp.html" target="_top" xlink:title="Main routine of svZeroDSolver.">
<polygon fill="none" stroke="black" points="301,-0.5 301,-19.5 357,-19.5 357,-0.5 301,-0.5"/>
<text text-anchor="middle" x="329" y="-7.5" font-family="Helvetica,sans-Serif" font-size="10.00">main.cpp</text>
</a>
</g>
</g>
<!-- Node1&#45;&gt;Node2 -->
<g id="edge1" class="edge">
<title>Node1&#45;&gt;Node2</title>
<path fill="none" stroke="midnightblue" d="M702.22,-287.64C555.6,-284.33 232.52,-273.79 126,-244 65.32,-227.03 0,-242.01 0,-179 0,-179 0,-179 0,-121 0,-87.54 10.34,-74.83 38,-56 80.58,-27.02 236.42,-15.78 300.84,-12.31"/>
<polygon fill="midnightblue" stroke="midnightblue" points="702.39,-291.15 712.47,-287.87 702.55,-284.15 702.39,-291.15"/>
</g>
<!-- Node3 -->
<g id="node3" class="node">
<title>Node3</title>
<g id="a_node3"><a xlink:href="block_8hpp.html" target="_top" xlink:title="MODEL::Block source file.">
<polygon fill="none" stroke="black" points="956.5,-224.5 956.5,-243.5 1043.5,-243.5 1043.5,-224.5 956.5,-224.5"/>
<text text-anchor="middle" x="1000" y="-231.5" font-family="Helvetica,sans-Serif" font-size="10.00">model/block.hpp</text>
</a>
</g>
</g>
<!-- Node1&#45;&gt;Node3 -->
<g id="edge2" class="edge">
<title>Node1&#45;&gt;Node3</title>
<path fill="none" stroke="midnightblue" d="M821.26,-278.09C863.58,-267.89 925.91,-252.86 964.67,-243.52"/>
<polygon fill="midnightblue" stroke="midnightblue" points="820.39,-274.7 811.49,-280.44 822.04,-281.5 820.39,-274.7"/>
</g>
<!-- Node4 -->
<g id="node4" class="node">
<title>Node4</title>
<g id="a_node4"><a xlink:href="bloodvessel_8hpp.html" target="_top" xlink:title="MODEL::BloodVessel source file.">
<polygon fill="none" stroke="black" points="761,-168.5 761,-187.5 877,-187.5 877,-168.5 761,-168.5"/>
<text text-anchor="middle" x="819" y="-175.5" font-family="Helvetica,sans-Serif" font-size="10.00">model/bloodvessel.hpp</text>
</a>
</g>
</g>
<!-- Node1&#45;&gt;Node4 -->
<g id="edge40" class="edge">
<title>Node1&#45;&gt;Node4</title>
<path fill="none" stroke="midnightblue" d="M783.04,-271C792.42,-247 808.65,-205.47 815.64,-187.59"/>
<polygon fill="midnightblue" stroke="midnightblue" points="779.76,-269.78 779.37,-280.37 786.27,-272.33 779.76,-269.78"/>
</g>
<!-- Node5 -->
<g id="node5" class="node">
<title>Node5</title>
<g id="a_node5"><a xlink:href="model_8hpp.html" target="_top" xlink:title="MODEL::Model source file.">
<polygon fill="none" stroke="black" points="601,-112.5 601,-131.5 691,-131.5 691,-112.5 601,-112.5"/>
<text text-anchor="middle" x="646" y="-119.5" font-family="Helvetica,sans-Serif" font-size="10.00">model/model.hpp</text>
</a>
</g>
</g>
<!-- Node1&#45;&gt;Node5 -->
<g id="edge44" class="edge">
<title>Node1&#45;&gt;Node5</title>
<path fill="none" stroke="midnightblue" d="M724.43,-277.25C705.41,-270.3 685.35,-259.7 672,-244 643.09,-210.02 638.03,-153.36 641.72,-131.74"/>
<polygon fill="midnightblue" stroke="midnightblue" points="723.35,-280.58 733.95,-280.47 725.6,-273.95 723.35,-280.58"/>
</g>
<!-- Node8 -->
<g id="node8" class="node">
<title>Node8</title>
<g id="a_node8"><a xlink:href="closedloopheartpulmonary_8hpp.html" target="_top" xlink:title="MODEL::ClosedLoopHeartPulmonary source file.">
<polygon fill="none" stroke="black" points="1369,-0.5 1369,-19.5 1545,-19.5 1545,-0.5 1369,-0.5"/>
<text text-anchor="middle" x="1457" y="-7.5" font-family="Helvetica,sans-Serif" font-size="10.00">model/closedloopheartpulmonary.hpp</text>
</a>
</g>
</g>
<!-- Node1&#45;&gt;Node8 -->
<g id="edge41" class="edge">
<title>Node1&#45;&gt;Node8</title>
<path fill="none" stroke="midnightblue" d="M850.06,-285.45C970.47,-279.18 1203.24,-264.79 1283,-244 1351.34,-226.19 1428,-249.62 1428,-179 1428,-179 1428,-179 1428,-121 1428,-82.09 1445.17,-37.93 1453.09,-19.64"/>
<polygon fill="midnightblue" stroke="midnightblue" points="849.63,-281.97 839.83,-285.98 849.99,-288.96 849.63,-281.97"/>
</g>
<!-- Node9 -->
<g id="node9" class="node">
<title>Node9</title>
<g id="a_node9"><a xlink:href="flowreferencebc_8hpp.html" target="_top" xlink:title="MODEL::FlowReferenceBC source file.">
<polygon fill="none" stroke="black" points="1219,-0.5 1219,-19.5 1351,-19.5 1351,-0.5 1219,-0.5"/>
<text text-anchor="middle" x="1285" y="-7.5" font-family="Helvetica,sans-Serif" font-size="10.00">model/flowreferencebc.hpp</text>
</a>
</g>
</g>
<!-- Node1&#45;&gt;Node9 -->
<g id="edge42" class="edge">
<title>Node1&#45;&gt;Node9</title>
<path fill="none" stroke="midnightblue" d="M849.76,-287.43C935.39,-284.19 1080.32,-274.26 1201,-244 1275.45,-225.33 1361,-255.76 1361,-179 1361,-179 1361,-179 1361,-121 1361,-76.2 1317.8,-36.43 1296.54,-19.57"/>
<polygon fill="midnightblue" stroke="midnightblue" points="849.48,-283.94 839.61,-287.8 849.73,-290.94 849.48,-283.94"/>
</g>
<!-- Node10 -->
<g id="node10" class="node">
<title>Node10</title>
<g id="a_node10"><a xlink:href="junction_8hpp.html" target="_top" xlink:title="MODEL::Junction source file.">
<polygon fill="none" stroke="black" points="486,-0.5 486,-19.5 584,-19.5 584,-0.5 486,-0.5"/>
<text text-anchor="middle" x="535" y="-7.5" font-family="Helvetica,sans-Serif" font-size="10.00">model/junction.hpp</text>
</a>
</g>
</g>
<!-- Node1&#45;&gt;Node10 -->
<g id="edge43" class="edge">
<title>Node1&#45;&gt;Node10</title>
<path fill="none" stroke="midnightblue" d="M702.43,-285.68C515.69,-276.28 38,-245.7 38,-179 38,-179 38,-179 38,-121 38,-90.9 33.79,-75.16 57,-56 73.39,-42.47 367.19,-21.93 485.87,-14.14"/>
<polygon fill="midnightblue" stroke="midnightblue" points="702.28,-289.18 712.44,-286.18 702.63,-282.19 702.28,-289.18"/>
</g>
<!-- Node11 -->
<g id="node11" class="node">
<title>Node11</title>
<g id="a_node11"><a xlink:href="openloopcoronarybc_8hpp.html" target="_top" xlink:title="MODEL::OpenLoopCoronaryBC source file.">
<polygon fill="none" stroke="black" points="602,-0.5 602,-19.5 752,-19.5 752,-0.5 602,-0.5"/>
<text text-anchor="middle" x="677" y="-7.5" font-family="Helvetica,sans-Serif" font-size="10.00">model/openloopcoronarybc.hpp</text>
</a>
</g>
</g>
<!-- Node1&#45;&gt;Node11 -->
<g id="edge45" class="edge">
<title>Node1&#45;&gt;Node11</title>
<path fill="none" stroke="midnightblue" d="M764.03,-272.12C758.6,-263.91 752.42,-253.74 748,-244 710.06,-160.44 685.43,-51.13 678.8,-19.76"/>
<polygon fill="midnightblue" stroke="midnightblue" points="761.17,-274.14 769.71,-280.42 766.95,-270.19 761.17,-274.14"/>
</g>
<!-- Node12 -->
<g id="node12" class="node">
<title>Node12</title>
<g id="a_node12"><a xlink:href="pressurereferencebc_8hpp.html" target="_top" xlink:title="MODEL::PressureReferenceBC source file.">
<polygon fill="none" stroke="black" points="770,-0.5 770,-19.5 922,-19.5 922,-0.5 770,-0.5"/>
<text text-anchor="middle" x="846" y="-7.5" font-family="Helvetica,sans-Serif" font-size="10.00">model/pressurereferencebc.hpp</text>
</a>
</g>
</g>
<!-- Node1&#45;&gt;Node12 -->
<g id="edge46" class="edge">
<title>Node1&#45;&gt;Node12</title>
<path fill="none" stroke="midnightblue" d="M767.33,-271.21C756.91,-247.45 742.01,-204.14 752,-168 769.35,-105.23 819.19,-42.31 838.36,-19.74"/>
<polygon fill="midnightblue" stroke="midnightblue" points="764.2,-272.78 771.56,-280.39 770.55,-269.84 764.2,-272.78"/>
</g>
<!-- Node13 -->
<g id="node13" class="node">
<title>Node13</title>
<g id="a_node13"><a xlink:href="resistancebc_8hpp.html" target="_top" xlink:title="MODEL::ResistanceBC source file.">
<polygon fill="none" stroke="black" points="940.5,-0.5 940.5,-19.5 1059.5,-19.5 1059.5,-0.5 940.5,-0.5"/>
<text text-anchor="middle" x="1000" y="-7.5" font-family="Helvetica,sans-Serif" font-size="10.00">model/resistancebc.hpp</text>
</a>
</g>
</g>
<!-- Node1&#45;&gt;Node13 -->
<g id="edge47" class="edge">
<title>Node1&#45;&gt;Node13</title>
<path fill="none" stroke="midnightblue" d="M849.73,-287.09C922.46,-283.51 1026.48,-273.27 1053,-244 1109.11,-182.06 1089.87,-128.9 1049,-56 1040.42,-40.69 1024.75,-27.69 1013.44,-19.66"/>
<polygon fill="midnightblue" stroke="midnightblue" points="849.52,-283.6 839.69,-287.55 849.84,-290.59 849.52,-283.6"/>
</g>
<!-- Node14 -->
<g id="node14" class="node">
<title>Node14</title>
<g id="a_node14"><a xlink:href="windkesselbc_8hpp.html" target="_top" xlink:title="MODEL::WindkesselBC source file.">
<polygon fill="none" stroke="black" points="1077.5,-0.5 1077.5,-19.5 1200.5,-19.5 1200.5,-0.5 1077.5,-0.5"/>
<text text-anchor="middle" x="1139" y="-7.5" font-family="Helvetica,sans-Serif" font-size="10.00">model/windkesselbc.hpp</text>
</a>
</g>
</g>
<!-- Node1&#45;&gt;Node14 -->
<g id="edge48" class="edge">
<title>Node1&#45;&gt;Node14</title>
<path fill="none" stroke="midnightblue" d="M849.6,-286.93C982.07,-281.18 1247,-259.61 1247,-179 1247,-179 1247,-179 1247,-121 1247,-70.69 1188.75,-34.95 1157.81,-19.51"/>
<polygon fill="midnightblue" stroke="midnightblue" points="849.37,-283.43 839.52,-287.34 849.66,-290.43 849.37,-283.43"/>
</g>
<!-- Node3&#45;&gt;Node4 -->
<g id="edge3" class="edge">
<title>Node3&#45;&gt;Node4</title>
<path fill="none" stroke="midnightblue" d="M961.68,-221.57C927.54,-211.38 878.34,-196.7 847.55,-187.52"/>
<polygon fill="midnightblue" stroke="midnightblue" points="960.74,-224.94 971.32,-224.44 962.74,-218.23 960.74,-224.94"/>
</g>
<!-- Node3&#45;&gt;Node8 -->
<g id="edge33" class="edge">
<title>Node3&#45;&gt;Node8</title>
<path fill="none" stroke="midnightblue" d="M1027.19,-220.05C1045.98,-211.08 1071.53,-198.86 1094,-188 1227.21,-123.64 1387.43,-45.13 1439.64,-19.52"/>
<polygon fill="midnightblue" stroke="midnightblue" points="1025.56,-216.95 1018.04,-224.41 1028.57,-223.27 1025.56,-216.95"/>
</g>
<!-- Node3&#45;&gt;Node9 -->
<g id="edge34" class="edge">
<title>Node3&#45;&gt;Node9</title>
<path fill="none" stroke="midnightblue" d="M1022.79,-219.01C1036.44,-210.42 1054,-198.99 1069,-188 1151.92,-127.26 1245.63,-45.74 1275.4,-19.51"/>
<polygon fill="midnightblue" stroke="midnightblue" points="1020.68,-216.2 1014.04,-224.47 1024.38,-222.14 1020.68,-216.2"/>
</g>
<!-- Node3&#45;&gt;Node10 -->
<g id="edge35" class="edge">
<title>Node3&#45;&gt;Node10</title>
<path fill="none" stroke="midnightblue" d="M976.08,-219.2C945.36,-201.49 894.93,-172.53 886,-168 763.36,-105.79 610.81,-42.04 555.9,-19.51"/>
<polygon fill="midnightblue" stroke="midnightblue" points="974.5,-222.33 984.91,-224.29 978,-216.26 974.5,-222.33"/>
</g>
<!-- Node3&#45;&gt;Node11 -->
<g id="edge36" class="edge">
<title>Node3&#45;&gt;Node11</title>
<path fill="none" stroke="midnightblue" d="M982.69,-217.43C945.75,-184.7 855.62,-107.55 771,-56 746.9,-41.32 717.26,-27.82 697.79,-19.51"/>
<polygon fill="midnightblue" stroke="midnightblue" points="980.73,-220.37 990.52,-224.41 985.39,-215.14 980.73,-220.37"/>
</g>
<!-- Node3&#45;&gt;Node12 -->
<g id="edge37" class="edge">
<title>Node3&#45;&gt;Node12</title>
<path fill="none" stroke="midnightblue" d="M1006.6,-214.3C1017.66,-179.32 1035.42,-103.26 1000,-56 987.68,-39.56 938.43,-27.13 898.9,-19.54"/>
<polygon fill="midnightblue" stroke="midnightblue" points="1003.17,-213.54 1003.32,-224.13 1009.81,-215.75 1003.17,-213.54"/>
</g>
<!-- Node3&#45;&gt;Node13 -->
<g id="edge38" class="edge">
<title>Node3&#45;&gt;Node13</title>
<path fill="none" stroke="midnightblue" d="M1015.71,-216.88C1022.43,-208.88 1029.51,-198.66 1033,-188 1051.25,-132.24 1051.25,-111.76 1033,-56 1028.3,-41.64 1017.07,-28.07 1009.02,-19.66"/>
<polygon fill="midnightblue" stroke="midnightblue" points="1013.1,-214.56 1009.02,-224.34 1018.3,-219.24 1013.1,-214.56"/>
</g>
<!-- Node3&#45;&gt;Node14 -->
<g id="edge39" class="edge">
<title>Node3&#45;&gt;Node14</title>
<path fill="none" stroke="midnightblue" d="M1019.54,-217.87C1029.21,-209.73 1040.58,-199.1 1049,-188 1093.18,-129.78 1125.91,-46.6 1135.85,-19.73"/>
<polygon fill="midnightblue" stroke="midnightblue" points="1017.15,-215.31 1011.6,-224.34 1021.57,-220.74 1017.15,-215.31"/>
</g>
<!-- Node4&#45;&gt;Node5 -->
<g id="edge4" class="edge">
<title>Node4&#45;&gt;Node5</title>
<path fill="none" stroke="midnightblue" d="M781.95,-165.44C749.34,-155.26 702.59,-140.66 673.28,-131.52"/>
<polygon fill="midnightblue" stroke="midnightblue" points="781,-168.8 791.59,-168.44 783.08,-162.12 781,-168.8"/>
</g>
<!-- Node5&#45;&gt;Node1 -->
<g id="edge5" class="edge">
<title>Node5&#45;&gt;Node1</title>
<path fill="none" stroke="midnightblue" d="M652.74,-141.73C657.73,-167.59 664.82,-214.4 690,-244 705.61,-262.35 730.38,-273.74 749.48,-280.47"/>
<polygon fill="midnightblue" stroke="midnightblue" points="656.12,-140.79 650.61,-131.74 649.28,-142.25 656.12,-140.79"/>
</g>
<!-- Node5&#45;&gt;Node2 -->
<g id="edge32" class="edge">
<title>Node5&#45;&gt;Node2</title>
<path fill="none" stroke="midnightblue" d="M590.6,-116.55C543.62,-111.25 475.24,-99.91 420,-76 386.86,-61.66 353.84,-33.84 338.26,-19.71"/>
<polygon fill="midnightblue" stroke="midnightblue" points="590.27,-120.03 600.59,-117.62 591.02,-113.07 590.27,-120.03"/>
</g>
<!-- Node6 -->
<g id="node6" class="node">
<title>Node6</title>
<g id="a_node6"><a xlink:href="integrator_8hpp.html" target="_top" xlink:title="ALGEBRA::Integrator source file.">
<polygon fill="none" stroke="black" points="429,-56.5 429,-75.5 539,-75.5 539,-56.5 429,-56.5"/>
<text text-anchor="middle" x="484" y="-63.5" font-family="Helvetica,sans-Serif" font-size="10.00">algebra/integrator.hpp</text>
</a>
</g>
</g>
<!-- Node5&#45;&gt;Node6 -->
<g id="edge6" class="edge">
<title>Node5&#45;&gt;Node6</title>
<path fill="none" stroke="midnightblue" d="M610.52,-109.17C580.01,-99 536.76,-84.59 509.55,-75.52"/>
<polygon fill="midnightblue" stroke="midnightblue" points="609.74,-112.6 620.33,-112.44 611.95,-105.96 609.74,-112.6"/>
</g>
<!-- Node7 -->
<g id="node7" class="node">
<title>Node7</title>
<g id="a_node7"><a xlink:href="sparsesystem_8hpp.html" target="_top" xlink:title="ALGEBRA::SparseSystem source file.">
<polygon fill="none" stroke="black" points="861,-56.5 861,-75.5 991,-75.5 991,-56.5 861,-56.5"/>
<text text-anchor="middle" x="926" y="-63.5" font-family="Helvetica,sans-Serif" font-size="10.00">algebra/sparsesystem.hpp</text>
</a>
</g>
</g>
<!-- Node5&#45;&gt;Node7 -->
<g id="edge8" class="edge">
<title>Node5&#45;&gt;Node7</title>
<path fill="none" stroke="midnightblue" d="M695.1,-110.47C746.2,-100.27 825.61,-84.98 876.76,-75.52"/>
<polygon fill="midnightblue" stroke="midnightblue" points="694.39,-107.05 685.28,-112.44 695.77,-113.91 694.39,-107.05"/>
</g>
<!-- Node15 -->
<g id="node15" class="node">
<title>Node15</title>
<g id="a_node15"><a xlink:href="configreader_8hpp.html" target="_top" xlink:title="IO::ConfigReader source file.">
<polygon fill="none" stroke="black" points="66,-56.5 66,-75.5 164,-75.5 164,-56.5 66,-56.5"/>
<text text-anchor="middle" x="115" y="-63.5" font-family="Helvetica,sans-Serif" font-size="10.00">io/configreader.hpp</text>
</a>
</g>
</g>
<!-- Node5&#45;&gt;Node15 -->
<g id="edge26" class="edge">
<title>Node5&#45;&gt;Node15</title>
<path fill="none" stroke="midnightblue" d="M590.84,-116.82C502.47,-109.87 323.78,-94.85 173,-76 170.07,-75.63 167.06,-75.23 164.02,-74.81"/>
<polygon fill="midnightblue" stroke="midnightblue" points="590.66,-120.31 600.9,-117.6 591.21,-113.33 590.66,-120.31"/>
</g>
<!-- Node16 -->
<g id="node16" class="node">
<title>Node16</title>
<g id="a_node16"><a xlink:href="csvwriter_8hpp.html" target="_top" xlink:title="IO::write_csv source file.">
<polygon fill="none" stroke="black" points="182.5,-56.5 182.5,-75.5 267.5,-75.5 267.5,-56.5 182.5,-56.5"/>
<text text-anchor="middle" x="225" y="-63.5" font-family="Helvetica,sans-Serif" font-size="10.00">io/csvwriter.hpp</text>
</a>
</g>
</g>
<!-- Node5&#45;&gt;Node16 -->
<g id="edge28" class="edge">
<title>Node5&#45;&gt;Node16</title>
<path fill="none" stroke="midnightblue" d="M590.64,-115.2C518.19,-107.41 387.33,-92.58 276,-76 273.24,-75.59 270.41,-75.15 267.55,-74.68"/>
<polygon fill="midnightblue" stroke="midnightblue" points="590.58,-118.72 600.9,-116.3 591.33,-111.76 590.58,-118.72"/>
</g>
<!-- Node17 -->
<g id="node17" class="node">
<title>Node17</title>
<g id="a_node17"><a xlink:href="jsonwriter_8hpp.html" target="_top" xlink:title="IO::write_json source file.">
<polygon fill="none" stroke="black" points="285.5,-56.5 285.5,-75.5 372.5,-75.5 372.5,-56.5 285.5,-56.5"/>
<text text-anchor="middle" x="329" y="-63.5" font-family="Helvetica,sans-Serif" font-size="10.00">io/jsonwriter.hpp</text>
</a>
</g>
</g>
<!-- Node5&#45;&gt;Node17 -->
<g id="edge30" class="edge">
<title>Node5&#45;&gt;Node17</title>
<path fill="none" stroke="midnightblue" d="M590.93,-111.62C528.95,-101.06 429.51,-84.12 372.65,-74.44"/>
<polygon fill="midnightblue" stroke="midnightblue" points="590.47,-115.09 600.92,-113.32 591.65,-108.19 590.47,-115.09"/>
</g>
<!-- Node6&#45;&gt;Node2 -->
<g id="edge7" class="edge">
<title>Node6&#45;&gt;Node2</title>
<path fill="none" stroke="midnightblue" d="M449.67,-53.04C420.5,-42.88 379.36,-28.55 353.45,-19.52"/>
<polygon fill="midnightblue" stroke="midnightblue" points="448.84,-56.46 459.44,-56.44 451.15,-49.85 448.84,-56.46"/>
</g>
<!-- Node7&#45;&gt;Node2 -->
<g id="edge9" class="edge">
<title>Node7&#45;&gt;Node2</title>
<path fill="none" stroke="midnightblue" d="M850.84,-58.2C717.47,-46.14 445.17,-21.51 357.13,-13.54"/>
<polygon fill="midnightblue" stroke="midnightblue" points="850.7,-61.7 860.97,-59.12 851.33,-54.73 850.7,-61.7"/>
</g>
<!-- Node7&#45;&gt;Node3 -->
<g id="edge10" class="edge">
<title>Node7&#45;&gt;Node3</title>
<path fill="none" stroke="midnightblue" d="M934.08,-85.12C949.87,-120.55 984.32,-197.83 996.02,-224.08"/>
<polygon fill="midnightblue" stroke="midnightblue" points="937.09,-83.28 929.82,-75.57 930.69,-86.13 937.09,-83.28"/>
</g>
<!-- Node7&#45;&gt;Node4 -->
<g id="edge11" class="edge">
<title>Node7&#45;&gt;Node4</title>
<path fill="none" stroke="midnightblue" d="M910.39,-83.05C887.41,-106.67 845.29,-149.97 827.4,-168.37"/>
<polygon fill="midnightblue" stroke="midnightblue" points="913.18,-85.2 917.64,-75.59 908.16,-80.32 913.18,-85.2"/>
</g>
<!-- Node7&#45;&gt;Node5 -->
<g id="edge17" class="edge">
<title>Node7&#45;&gt;Node5</title>
<path fill="none" stroke="midnightblue" d="M876.79,-77.55C824.26,-88.04 741.9,-103.89 691.02,-113.26"/>
<polygon fill="midnightblue" stroke="midnightblue" points="877.76,-80.92 886.88,-75.52 876.39,-74.06 877.76,-80.92"/>
</g>
<!-- Node7&#45;&gt;Node8 -->
<g id="edge12" class="edge">
<title>Node7&#45;&gt;Node8</title>
<path fill="none" stroke="midnightblue" d="M1001.25,-57.35C1099.42,-47.36 1270.66,-29.95 1372.97,-19.55"/>
<polygon fill="midnightblue" stroke="midnightblue" points="1000.71,-53.88 991.11,-58.38 1001.41,-60.85 1000.71,-53.88"/>
</g>
<!-- Node7&#45;&gt;Node9 -->
<g id="edge13" class="edge">
<title>Node7&#45;&gt;Node9</title>
<path fill="none" stroke="midnightblue" d="M993.04,-54.92C1060.86,-44.71 1164.55,-29.12 1228.38,-19.52"/>
<polygon fill="midnightblue" stroke="midnightblue" points="992.25,-51.49 982.88,-56.44 993.29,-58.42 992.25,-51.49"/>
</g>
<!-- Node7&#45;&gt;Node10 -->
<g id="edge15" class="edge">
<title>Node7&#45;&gt;Node10</title>
<path fill="none" stroke="midnightblue" d="M850.74,-55.26C783.21,-46.41 681.41,-32.83 593,-20 590.08,-19.58 587.07,-19.13 584.04,-18.68"/>
<polygon fill="midnightblue" stroke="midnightblue" points="850.49,-58.76 860.86,-56.58 851.4,-51.81 850.49,-58.76"/>
</g>
<!-- Node7&#45;&gt;Node11 -->
<g id="edge18" class="edge">
<title>Node7&#45;&gt;Node11</title>
<path fill="none" stroke="midnightblue" d="M876.58,-54.28C829.52,-44.08 759.63,-28.92 716.27,-19.52"/>
<polygon fill="midnightblue" stroke="midnightblue" points="876.03,-57.74 886.55,-56.44 877.51,-50.9 876.03,-57.74"/>
</g>
<!-- Node7&#45;&gt;Node12 -->
<g id="edge20" class="edge">
<title>Node7&#45;&gt;Node12</title>
<path fill="none" stroke="midnightblue" d="M904.7,-50.62C890.08,-40.76 871.17,-27.99 858.82,-19.65"/>
<polygon fill="midnightblue" stroke="midnightblue" points="902.9,-53.63 913.15,-56.32 906.82,-47.83 902.9,-53.63"/>
</g>
<!-- Node7&#45;&gt;Node13 -->
<g id="edge22" class="edge">
<title>Node7&#45;&gt;Node13</title>
<path fill="none" stroke="midnightblue" d="M946.03,-50.38C959.41,-40.62 976.56,-28.11 987.89,-19.83"/>
<polygon fill="midnightblue" stroke="midnightblue" points="943.9,-47.6 937.89,-56.32 948.03,-53.26 943.9,-47.6"/>
</g>
<!-- Node7&#45;&gt;Node14 -->
<g id="edge24" class="edge">
<title>Node7&#45;&gt;Node14</title>
<path fill="none" stroke="midnightblue" d="M969.55,-53.96C1009.78,-43.76 1068.7,-28.82 1105.41,-19.52"/>
<polygon fill="midnightblue" stroke="midnightblue" points="968.58,-50.59 959.75,-56.44 970.3,-57.38 968.58,-50.59"/>
</g>
<!-- Node9&#45;&gt;Node5 -->
<g id="edge14" class="edge">
<title>Node9&#45;&gt;Node5</title>
<path fill="none" stroke="midnightblue" d="M1248.41,-22.44C1200.69,-36.96 1114.38,-61.8 1039,-76 914.15,-99.52 764.51,-112.54 691.11,-117.96"/>
<polygon fill="midnightblue" stroke="midnightblue" points="1249.45,-25.78 1257.99,-19.51 1247.4,-19.09 1249.45,-25.78"/>
</g>
<!-- Node10&#45;&gt;Node5 -->
<g id="edge16" class="edge">
<title>Node10&#45;&gt;Node5</title>
<path fill="none" stroke="midnightblue" d="M548.14,-27.82C559.04,-41.38 575.25,-60.65 591,-76 604.96,-89.61 622.64,-103.56 634.13,-112.25"/>
<polygon fill="midnightblue" stroke="midnightblue" points="550.76,-25.49 541.8,-19.84 545.28,-29.84 550.76,-25.49"/>
</g>
<!-- Node11&#45;&gt;Node5 -->
<g id="edge19" class="edge">
<title>Node11&#45;&gt;Node5</title>
<path fill="none" stroke="midnightblue" d="M671.85,-29.27C665.08,-53.3 653.46,-94.54 648.43,-112.37"/>
<polygon fill="midnightblue" stroke="midnightblue" points="675.23,-30.17 674.58,-19.59 668.5,-28.27 675.23,-30.17"/>
</g>
<!-- Node12&#45;&gt;Node5 -->
<g id="edge21" class="edge">
<title>Node12&#45;&gt;Node5</title>
<path fill="none" stroke="midnightblue" d="M788.83,-22.01C761.94,-28.94 730.3,-39.74 705,-56 681.41,-71.16 661.25,-98.11 651.78,-112.07"/>
<polygon fill="midnightblue" stroke="midnightblue" points="790.01,-25.32 798.89,-19.54 788.34,-18.52 790.01,-25.32"/>
</g>
<!-- Node13&#45;&gt;Node5 -->
<g id="edge23" class="edge">
<title>Node13&#45;&gt;Node5</title>
<path fill="none" stroke="midnightblue" d="M961.97,-22.44C932.06,-31.47 889.34,-44.43 852,-56 787.52,-75.98 711.87,-100 672.64,-112.5"/>
<polygon fill="midnightblue" stroke="midnightblue" points="963.04,-25.78 971.6,-19.54 961.02,-19.08 963.04,-25.78"/>
</g>
<!-- Node14&#45;&gt;Node5 -->
<g id="edge25" class="edge">
<title>Node14&#45;&gt;Node5</title>
<path fill="none" stroke="midnightblue" d="M1115.56,-24.74C1088.61,-39.86 1042.62,-63.66 1000,-76 891.99,-107.28 759.2,-116.83 691.05,-119.73"/>
<polygon fill="midnightblue" stroke="midnightblue" points="1117.62,-27.59 1124.58,-19.6 1114.16,-21.51 1117.62,-27.59"/>
</g>
<!-- Node15&#45;&gt;Node2 -->
<g id="edge27" class="edge">
<title>Node15&#45;&gt;Node2</title>
<path fill="none" stroke="midnightblue" d="M158.7,-53.97C201.18,-43.25 264.45,-27.29 300.72,-18.14"/>
<polygon fill="midnightblue" stroke="midnightblue" points="157.75,-50.6 148.91,-56.44 159.46,-57.39 157.75,-50.6"/>
</g>
<!-- Node16&#45;&gt;Node2 -->
<g id="edge29" class="edge">
<title>Node16&#45;&gt;Node2</title>
<path fill="none" stroke="midnightblue" d="M250.83,-51.59C270.06,-41.61 295.74,-28.27 312.33,-19.65"/>
<polygon fill="midnightblue" stroke="midnightblue" points="248.97,-48.61 241.71,-56.32 252.2,-54.82 248.97,-48.61"/>
</g>
<!-- Node17&#45;&gt;Node2 -->
<g id="edge31" class="edge">
<title>Node17&#45;&gt;Node2</title>
<path fill="none" stroke="midnightblue" d="M329,-45.8C329,-36.91 329,-26.78 329,-19.75"/>
<polygon fill="midnightblue" stroke="midnightblue" points="325.5,-46.08 329,-56.08 332.5,-46.08 325.5,-46.08"/>
</g>
</g>
</svg>
