<?xml version="1.0" encoding="UTF-8" standalone="no"?>
<!DOCTYPE svg PUBLIC "-//W3C//DTD SVG 1.1//EN"
 "http://www.w3.org/Graphics/SVG/1.1/DTD/svg11.dtd">
<!-- Generated by graphviz version 3.0.0 (20220413.0242)
 -->
<!-- Title: algebra/densesystem.hpp Pages: 1 -->
<svg width="641pt" height="308pt"
 viewBox="0.00 0.00 641.00 308.00" xmlns="http://www.w3.org/2000/svg" xmlns:xlink="http://www.w3.org/1999/xlink">
<g id="graph0" class="graph" transform="scale(1 1) rotate(0) translate(4 304)">
<title>algebra/densesystem.hpp</title>
<!-- Node1 -->
<g id="node1" class="node">
<title>Node1</title>
<g id="a_node1"><a xlink:title="ALGEBRA::DenseSystem source file.">
<polygon fill="#bfbfbf" stroke="black" points="182.5,-280.5 182.5,-299.5 309.5,-299.5 309.5,-280.5 182.5,-280.5"/>
<text text-anchor="middle" x="246" y="-287.5" font-family="Helvetica,sans-Serif" font-size="10.00">algebra/densesystem.hpp</text>
</a>
</g>
</g>
<!-- Node2 -->
<g id="node2" class="node">
<title>Node2</title>
<g id="a_node2"><a xlink:href="main_8cpp.html" target="_top" xlink:title="Main routine of svZeroDSolver.">
<polygon fill="none" stroke="black" points="209,-0.5 209,-19.5 265,-19.5 265,-0.5 209,-0.5"/>
<text text-anchor="middle" x="237" y="-7.5" font-family="Helvetica,sans-Serif" font-size="10.00">main.cpp</text>
</a>
</g>
</g>
<!-- Node1&#45;&gt;Node2 -->
<g id="edge1" class="edge">
<title>Node1&#45;&gt;Node2</title>
<path fill="none" stroke="midnightblue" d="M172.3,-286.2C99.83,-279.02 0,-255.29 0,-179 0,-179 0,-179 0,-121 0,-29.82 146.1,-14.01 208.88,-11.42"/>
<polygon fill="midnightblue" stroke="midnightblue" points="172.05,-289.69 182.33,-287.1 172.68,-282.72 172.05,-289.69"/>
</g>
<!-- Node3 -->
<g id="node3" class="node">
<title>Node3</title>
<g id="a_node3"><a xlink:href="block_8hpp.html" target="_top" xlink:title="MODEL::Block source file.">
<polygon fill="none" stroke="black" points="274.5,-224.5 274.5,-243.5 361.5,-243.5 361.5,-224.5 274.5,-224.5"/>
<text text-anchor="middle" x="318" y="-231.5" font-family="Helvetica,sans-Serif" font-size="10.00">model/block.hpp</text>
</a>
</g>
</g>
<!-- Node1&#45;&gt;Node3 -->
<g id="edge2" class="edge">
<title>Node1&#45;&gt;Node3</title>
<path fill="none" stroke="midnightblue" d="M265.87,-274.1C278.82,-264.38 295.3,-252.03 306.22,-243.83"/>
<polygon fill="midnightblue" stroke="midnightblue" points="263.47,-271.52 257.57,-280.32 267.67,-277.12 263.47,-271.52"/>
</g>
<!-- Node4 -->
<g id="node4" class="node">
<title>Node4</title>
<g id="a_node4"><a xlink:href="bloodvessel_8hpp.html" target="_top" xlink:title="MODEL::BloodVessel source file.">
<polygon fill="none" stroke="black" points="401,-168.5 401,-187.5 517,-187.5 517,-168.5 401,-168.5"/>
<text text-anchor="middle" x="459" y="-175.5" font-family="Helvetica,sans-Serif" font-size="10.00">model/bloodvessel.hpp</text>
</a>
</g>
</g>
<!-- Node1&#45;&gt;Node4 -->
<g id="edge21" class="edge">
<title>Node1&#45;&gt;Node4</title>
<path fill="none" stroke="midnightblue" d="M287.27,-277.47C312.27,-269.69 344.36,-258.24 371,-244 401.82,-227.53 433.8,-201.15 449.35,-187.62"/>
<polygon fill="midnightblue" stroke="midnightblue" points="285.92,-274.22 277.37,-280.48 287.96,-280.92 285.92,-274.22"/>
</g>
<!-- Node5 -->
<g id="node5" class="node">
<title>Node5</title>
<g id="a_node5"><a xlink:href="model_8hpp.html" target="_top" xlink:title="MODEL::Model source file.">
<polygon fill="none" stroke="black" points="250,-112.5 250,-131.5 340,-131.5 340,-112.5 250,-112.5"/>
<text text-anchor="middle" x="295" y="-119.5" font-family="Helvetica,sans-Serif" font-size="10.00">model/model.hpp</text>
</a>
</g>
</g>
<!-- Node1&#45;&gt;Node5 -->
<g id="edge24" class="edge">
<title>Node1&#45;&gt;Node5</title>
<path fill="none" stroke="midnightblue" d="M195.64,-278.01C125.53,-260.44 11.92,-222.4 57,-168 81.01,-139.02 187.81,-128.57 249.88,-124.9"/>
<polygon fill="midnightblue" stroke="midnightblue" points="195.1,-281.48 205.64,-280.45 196.76,-274.68 195.1,-281.48"/>
</g>
<!-- Node10 -->
<g id="node10" class="node">
<title>Node10</title>
<g id="a_node10"><a xlink:href="flowreference_8hpp.html" target="_top" xlink:title="MODEL::FlowReference source file.">
<polygon fill="none" stroke="black" points="66,-168.5 66,-187.5 188,-187.5 188,-168.5 66,-168.5"/>
<text text-anchor="middle" x="127" y="-175.5" font-family="Helvetica,sans-Serif" font-size="10.00">model/flowreference.hpp</text>
</a>
</g>
</g>
<!-- Node1&#45;&gt;Node10 -->
<g id="edge22" class="edge">
<title>Node1&#45;&gt;Node10</title>
<path fill="none" stroke="midnightblue" d="M229.24,-273.51C203.82,-250.01 156.33,-206.11 136.29,-187.59"/>
<polygon fill="midnightblue" stroke="midnightblue" points="226.94,-276.15 236.66,-280.37 231.69,-271.01 226.94,-276.15"/>
</g>
<!-- Node11 -->
<g id="node11" class="node">
<title>Node11</title>
<g id="a_node11"><a xlink:href="junction_8hpp.html" target="_top" xlink:title="MODEL::Junction source file.">
<polygon fill="none" stroke="black" points="535,-168.5 535,-187.5 633,-187.5 633,-168.5 535,-168.5"/>
<text text-anchor="middle" x="584" y="-175.5" font-family="Helvetica,sans-Serif" font-size="10.00">model/junction.hpp</text>
</a>
</g>
</g>
<!-- Node1&#45;&gt;Node11 -->
<g id="edge23" class="edge">
<title>Node1&#45;&gt;Node11</title>
<path fill="none" stroke="midnightblue" d="M286.77,-277.75C317.92,-269 361.85,-256.3 400,-244 458.52,-225.13 526.55,-200.34 561.19,-187.52"/>
<polygon fill="midnightblue" stroke="midnightblue" points="285.81,-274.38 277.13,-280.45 287.7,-281.12 285.81,-274.38"/>
</g>
<!-- Node12 -->
<g id="node12" class="node">
<title>Node12</title>
<g id="a_node12"><a xlink:href="rcrblockwithdistalpressure_8hpp.html" target="_top" xlink:title="MODEL::RCRBlockWithDistalPressure source file.">
<polygon fill="none" stroke="black" points="206.5,-168.5 206.5,-187.5 383.5,-187.5 383.5,-168.5 206.5,-168.5"/>
<text text-anchor="middle" x="295" y="-175.5" font-family="Helvetica,sans-Serif" font-size="10.00">model/rcrblockwithdistalpressure.hpp</text>
</a>
</g>
</g>
<!-- Node1&#45;&gt;Node12 -->
<g id="edge25" class="edge">
<title>Node1&#45;&gt;Node12</title>
<path fill="none" stroke="midnightblue" d="M250.26,-270.47C253.65,-257.18 259,-239.05 266,-224 272.27,-210.52 282.03,-196.31 288.47,-187.55"/>
<polygon fill="midnightblue" stroke="midnightblue" points="246.83,-269.77 247.87,-280.31 253.63,-271.42 246.83,-269.77"/>
</g>
<!-- Node3&#45;&gt;Node4 -->
<g id="edge3" class="edge">
<title>Node3&#45;&gt;Node4</title>
<path fill="none" stroke="midnightblue" d="M349.93,-220.77C376.41,-210.63 413.39,-196.47 436.76,-187.52"/>
<polygon fill="midnightblue" stroke="midnightblue" points="348.43,-217.6 340.34,-224.44 350.93,-224.14 348.43,-217.6"/>
</g>
<!-- Node3&#45;&gt;Node10 -->
<g id="edge14" class="edge">
<title>Node3&#45;&gt;Node10</title>
<path fill="none" stroke="midnightblue" d="M278.03,-221.7C241.98,-211.51 189.76,-196.74 157.12,-187.52"/>
<polygon fill="midnightblue" stroke="midnightblue" points="277.16,-225.09 287.74,-224.44 279.06,-218.35 277.16,-225.09"/>
</g>
<!-- Node3&#45;&gt;Node11 -->
<g id="edge16" class="edge">
<title>Node3&#45;&gt;Node11</title>
<path fill="none" stroke="midnightblue" d="M370.17,-222.41C420.44,-212.2 495.53,-196.96 542.05,-187.52"/>
<polygon fill="midnightblue" stroke="midnightblue" points="369.25,-219.02 360.15,-224.44 370.64,-225.88 369.25,-219.02"/>
</g>
<!-- Node3&#45;&gt;Node12 -->
<g id="edge19" class="edge">
<title>Node3&#45;&gt;Node12</title>
<path fill="none" stroke="midnightblue" d="M310.2,-214.69C306.32,-205.59 301.82,-195.01 298.73,-187.75"/>
<polygon fill="midnightblue" stroke="midnightblue" points="307.06,-216.25 314.2,-224.08 313.5,-213.51 307.06,-216.25"/>
</g>
<!-- Node4&#45;&gt;Node5 -->
<g id="edge4" class="edge">
<title>Node4&#45;&gt;Node5</title>
<path fill="none" stroke="midnightblue" d="M423.48,-165.3C392.58,-155.13 348.53,-140.62 320.86,-131.52"/>
<polygon fill="midnightblue" stroke="midnightblue" points="422.42,-168.64 433.01,-168.44 424.61,-161.99 422.42,-168.64"/>
</g>
<!-- Node5&#45;&gt;Node2 -->
<g id="edge13" class="edge">
<title>Node5&#45;&gt;Node2</title>
<path fill="none" stroke="midnightblue" d="M239.49,-114.6C192.45,-107.89 130.28,-95.57 115,-76 87.46,-40.72 164.79,-22.35 208.82,-14.97"/>
<polygon fill="midnightblue" stroke="midnightblue" points="239.19,-118.09 249.57,-115.98 240.14,-111.15 239.19,-118.09"/>
</g>
<!-- Node6 -->
<g id="node6" class="node">
<title>Node6</title>
<g id="a_node6"><a xlink:href="integrator_8hpp.html" target="_top" xlink:title="ALGEBRA::Integrator source file.">
<polygon fill="none" stroke="black" points="124,-56.5 124,-75.5 234,-75.5 234,-56.5 124,-56.5"/>
<text text-anchor="middle" x="179" y="-63.5" font-family="Helvetica,sans-Serif" font-size="10.00">algebra/integrator.hpp</text>
</a>
</g>
</g>
<!-- Node5&#45;&gt;Node6 -->
<g id="edge5" class="edge">
<title>Node5&#45;&gt;Node6</title>
<path fill="none" stroke="midnightblue" d="M267.28,-108.1C245.61,-98.01 216.1,-84.27 197.29,-75.52"/>
<polygon fill="midnightblue" stroke="midnightblue" points="266.08,-111.4 276.62,-112.44 269.03,-105.05 266.08,-111.4"/>
</g>
<!-- Node7 -->
<g id="node7" class="node">
<title>Node7</title>
<g id="a_node7"><a xlink:href="configreader_8hpp.html" target="_top" xlink:title="IO::ConfigReader source file.">
<polygon fill="none" stroke="black" points="461,-56.5 461,-75.5 559,-75.5 559,-56.5 461,-56.5"/>
<text text-anchor="middle" x="510" y="-63.5" font-family="Helvetica,sans-Serif" font-size="10.00">io/configreader.hpp</text>
</a>
</g>
</g>
<!-- Node5&#45;&gt;Node7 -->
<g id="edge7" class="edge">
<title>Node5&#45;&gt;Node7</title>
<path fill="none" stroke="midnightblue" d="M338.96,-109.96C379.57,-99.76 439.04,-84.82 476.09,-75.52"/>
<polygon fill="midnightblue" stroke="midnightblue" points="337.91,-106.61 329.07,-112.44 339.62,-113.4 337.91,-106.61"/>
</g>
<!-- Node8 -->
<g id="node8" class="node">
<title>Node8</title>
<g id="a_node8"><a xlink:href="csvwriter_8hpp.html" target="_top" xlink:title="IO::write_csv source file.">
<polygon fill="none" stroke="black" points="252.5,-56.5 252.5,-75.5 337.5,-75.5 337.5,-56.5 252.5,-56.5"/>
<text text-anchor="middle" x="295" y="-63.5" font-family="Helvetica,sans-Serif" font-size="10.00">io/csvwriter.hpp</text>
</a>
</g>
</g>
<!-- Node5&#45;&gt;Node8 -->
<g id="edge9" class="edge">
<title>Node5&#45;&gt;Node8</title>
<path fill="none" stroke="midnightblue" d="M295,-101.8C295,-92.91 295,-82.78 295,-75.75"/>
<polygon fill="midnightblue" stroke="midnightblue" points="291.5,-102.08 295,-112.08 298.5,-102.08 291.5,-102.08"/>
</g>
<!-- Node9 -->
<g id="node9" class="node">
<title>Node9</title>
<g id="a_node9"><a xlink:href="jsonwriter_8hpp.html" target="_top" xlink:title="IO::write_json source file.">
<polygon fill="none" stroke="black" points="355.5,-56.5 355.5,-75.5 442.5,-75.5 442.5,-56.5 355.5,-56.5"/>
<text text-anchor="middle" x="399" y="-63.5" font-family="Helvetica,sans-Serif" font-size="10.00">io/jsonwriter.hpp</text>
</a>
</g>
</g>
<!-- Node5&#45;&gt;Node9 -->
<g id="edge11" class="edge">
<title>Node5&#45;&gt;Node9</title>
<path fill="none" stroke="midnightblue" d="M320.83,-107.59C340.06,-97.61 365.74,-84.27 382.33,-75.65"/>
<polygon fill="midnightblue" stroke="midnightblue" points="318.97,-104.61 311.71,-112.32 322.2,-110.82 318.97,-104.61"/>
</g>
<!-- Node6&#45;&gt;Node2 -->
<g id="edge6" class="edge">
<title>Node6&#45;&gt;Node2</title>
<path fill="none" stroke="midnightblue" d="M195.91,-49.25C206.2,-39.67 218.97,-27.79 227.51,-19.83"/>
<polygon fill="midnightblue" stroke="midnightblue" points="193.25,-46.95 188.32,-56.32 198.02,-52.07 193.25,-46.95"/>
</g>
<!-- Node7&#45;&gt;Node2 -->
<g id="edge8" class="edge">
<title>Node7&#45;&gt;Node2</title>
<path fill="none" stroke="midnightblue" d="M456.76,-54.47C399.34,-43.11 310.1,-25.46 265.05,-16.55"/>
<polygon fill="midnightblue" stroke="midnightblue" points="456.25,-57.94 466.74,-56.44 457.61,-51.07 456.25,-57.94"/>
</g>
<!-- Node8&#45;&gt;Node2 -->
<g id="edge10" class="edge">
<title>Node8&#45;&gt;Node2</title>
<path fill="none" stroke="midnightblue" d="M278.09,-49.25C267.8,-39.67 255.03,-27.79 246.49,-19.83"/>
<polygon fill="midnightblue" stroke="midnightblue" points="275.98,-52.07 285.68,-56.32 280.75,-46.95 275.98,-52.07"/>
</g>
<!-- Node9&#45;&gt;Node2 -->
<g id="edge12" class="edge">
<title>Node9&#45;&gt;Node2</title>
<path fill="none" stroke="midnightblue" d="M363.52,-53.17C333.01,-43 289.76,-28.59 262.55,-19.52"/>
<polygon fill="midnightblue" stroke="midnightblue" points="362.74,-56.6 373.33,-56.44 364.95,-49.96 362.74,-56.6"/>
</g>
<!-- Node10&#45;&gt;Node5 -->
<g id="edge15" class="edge">
<title>Node10&#45;&gt;Node5</title>
<path fill="none" stroke="midnightblue" d="M163.39,-165.3C195.04,-155.13 240.17,-140.62 268.5,-131.52"/>
<polygon fill="midnightblue" stroke="midnightblue" points="162.07,-162.05 153.62,-168.44 164.21,-168.72 162.07,-162.05"/>
</g>
<!-- Node11&#45;&gt;Node5 -->
<g id="edge18" class="edge">
<title>Node11&#45;&gt;Node5</title>
<path fill="none" stroke="midnightblue" d="M528.31,-166.6C473.53,-156.36 390.91,-140.92 340.1,-131.43"/>
<polygon fill="midnightblue" stroke="midnightblue" points="527.73,-170.05 538.21,-168.44 529.02,-163.17 527.73,-170.05"/>
</g>
<!-- Node11&#45;&gt;Node7 -->
<g id="edge17" class="edge">
<title>Node11&#45;&gt;Node7</title>
<path fill="none" stroke="midnightblue" d="M572.53,-159.96C556.5,-136.12 527.97,-93.71 515.78,-75.59"/>
<polygon fill="midnightblue" stroke="midnightblue" points="569.71,-162.02 578.19,-168.37 575.52,-158.12 569.71,-162.02"/>
</g>
<!-- Node12&#45;&gt;Node5 -->
<g id="edge20" class="edge">
<title>Node12&#45;&gt;Node5</title>
<path fill="none" stroke="midnightblue" d="M295,-157.8C295,-148.91 295,-138.78 295,-131.75"/>
<polygon fill="midnightblue" stroke="midnightblue" points="291.5,-158.08 295,-168.08 298.5,-158.08 291.5,-158.08"/>
</g>
</g>
</svg>
