<?xml version="1.0" encoding="UTF-8" standalone="no"?>
<!DOCTYPE svg PUBLIC "-//W3C//DTD SVG 1.1//EN"
 "http://www.w3.org/Graphics/SVG/1.1/DTD/svg11.dtd">
<!-- Generated by graphviz version 3.0.0 (20220413.0242)
 -->
<!-- Title: algebra/densesystem.hpp Pages: 1 -->
<svg width="1016pt" height="420pt"
 viewBox="0.00 0.00 1015.78 420.00" xmlns="http://www.w3.org/2000/svg" xmlns:xlink="http://www.w3.org/1999/xlink">
<g id="graph0" class="graph" transform="scale(1 1) rotate(0) translate(4 416)">
<title>algebra/densesystem.hpp</title>
<!-- Node1 -->
<g id="node1" class="node">
<title>Node1</title>
<g id="a_node1"><a xlink:title="ALGEBRA::DenseSystem source file.">
<polygon fill="#bfbfbf" stroke="black" points="518.28,-392.5 518.28,-411.5 645.28,-411.5 645.28,-392.5 518.28,-392.5"/>
<text text-anchor="middle" x="581.78" y="-399.5" font-family="Helvetica,sans-Serif" font-size="10.00">algebra/densesystem.hpp</text>
</a>
</g>
</g>
<!-- Node2 -->
<g id="node2" class="node">
<title>Node2</title>
<g id="a_node2"><a xlink:href="main_8cpp.html" target="_top" xlink:title="Main routine of svZeroDSolver.">
<polygon fill="none" stroke="black" points="210.78,-0.5 210.78,-19.5 266.78,-19.5 266.78,-0.5 210.78,-0.5"/>
<text text-anchor="middle" x="238.78" y="-7.5" font-family="Helvetica,sans-Serif" font-size="10.00">main.cpp</text>
</a>
</g>
</g>
<!-- Node1&#45;&gt;Node2 -->
<g id="edge1" class="edge">
<title>Node1&#45;&gt;Node2</title>
<path fill="none" stroke="midnightblue" d="M508.21,-394.67C351.88,-380.21 0.78,-342.07 0.78,-291 0.78,-291 0.78,-291 0.78,-121 0.78,-90.9 -2.35,-76.4 19.78,-56 47.33,-30.62 157.82,-17.93 210.53,-13.22"/>
<polygon fill="midnightblue" stroke="midnightblue" points="507.94,-398.16 518.22,-395.58 508.58,-391.18 507.94,-398.16"/>
</g>
<!-- Node3 -->
<g id="node3" class="node">
<title>Node3</title>
<g id="a_node3"><a xlink:href="block_8hpp.html" target="_top" xlink:title="MODEL::Block source file.">
<polygon fill="none" stroke="black" points="574.28,-336.5 574.28,-355.5 661.28,-355.5 661.28,-336.5 574.28,-336.5"/>
<text text-anchor="middle" x="617.78" y="-343.5" font-family="Helvetica,sans-Serif" font-size="10.00">model/block.hpp</text>
</a>
</g>
</g>
<!-- Node1&#45;&gt;Node3 -->
<g id="edge2" class="edge">
<title>Node1&#45;&gt;Node3</title>
<path fill="none" stroke="midnightblue" d="M593.41,-383.57C599.6,-374.27 606.95,-363.25 611.95,-355.75"/>
<polygon fill="midnightblue" stroke="midnightblue" points="590.36,-381.82 587.73,-392.08 596.19,-385.7 590.36,-381.82"/>
</g>
<!-- Node4 -->
<g id="node4" class="node">
<title>Node4</title>
<g id="a_node4"><a xlink:href="bloodvessel_8hpp.html" target="_top" xlink:title="MODEL::BloodVessel source file.">
<polygon fill="none" stroke="black" points="435.78,-280.5 435.78,-299.5 551.78,-299.5 551.78,-280.5 435.78,-280.5"/>
<text text-anchor="middle" x="493.78" y="-287.5" font-family="Helvetica,sans-Serif" font-size="10.00">model/bloodvessel.hpp</text>
</a>
</g>
</g>
<!-- Node1&#45;&gt;Node4 -->
<g id="edge31" class="edge">
<title>Node1&#45;&gt;Node4</title>
<path fill="none" stroke="midnightblue" d="M568.4,-384.27C549.38,-360.49 515.21,-317.79 500.66,-299.59"/>
<polygon fill="midnightblue" stroke="midnightblue" points="565.9,-386.75 574.88,-392.37 571.36,-382.37 565.9,-386.75"/>
</g>
<!-- Node5 -->
<g id="node5" class="node">
<title>Node5</title>
<g id="a_node5"><a xlink:href="model_8hpp.html" target="_top" xlink:title="MODEL::Model source file.">
<polygon fill="none" stroke="black" points="380.78,-224.5 380.78,-243.5 470.78,-243.5 470.78,-224.5 380.78,-224.5"/>
<text text-anchor="middle" x="425.78" y="-231.5" font-family="Helvetica,sans-Serif" font-size="10.00">model/model.hpp</text>
</a>
</g>
</g>
<!-- Node1&#45;&gt;Node5 -->
<g id="edge35" class="edge">
<title>Node1&#45;&gt;Node5</title>
<path fill="none" stroke="midnightblue" d="M545.25,-388.83C507.96,-374.23 452.07,-345.82 426.78,-300 416.86,-282.02 420.54,-256.75 423.5,-243.65"/>
<polygon fill="midnightblue" stroke="midnightblue" points="544.18,-392.16 554.77,-392.41 546.65,-385.61 544.18,-392.16"/>
</g>
<!-- Node8 -->
<g id="node8" class="node">
<title>Node8</title>
<g id="a_node8"><a xlink:href="closedloopheartpulmonary_8hpp.html" target="_top" xlink:title="MODEL::ClosedLoopHeartPulmonary source file.">
<polygon fill="none" stroke="black" points="831.78,-112.5 831.78,-131.5 1007.78,-131.5 1007.78,-112.5 831.78,-112.5"/>
<text text-anchor="middle" x="919.78" y="-119.5" font-family="Helvetica,sans-Serif" font-size="10.00">model/closedloopheartpulmonary.hpp</text>
</a>
</g>
</g>
<!-- Node1&#45;&gt;Node8 -->
<g id="edge32" class="edge">
<title>Node1&#45;&gt;Node8</title>
<path fill="none" stroke="midnightblue" d="M655.35,-398.69C706.86,-394.51 776,-383.64 830.78,-356 868.4,-337.03 899.78,-333.13 899.78,-291 899.78,-291 899.78,-291 899.78,-233 899.78,-194.76 911.63,-150.23 917.09,-131.74"/>
<polygon fill="midnightblue" stroke="midnightblue" points="655,-395.2 645.29,-399.44 655.52,-402.18 655,-395.2"/>
</g>
<!-- Node9 -->
<g id="node9" class="node">
<title>Node9</title>
<g id="a_node9"><a xlink:href="flowreference_8hpp.html" target="_top" xlink:title="MODEL::FlowReference source file.">
<polygon fill="none" stroke="black" points="496.78,-112.5 496.78,-131.5 618.78,-131.5 618.78,-112.5 496.78,-112.5"/>
<text text-anchor="middle" x="557.78" y="-119.5" font-family="Helvetica,sans-Serif" font-size="10.00">model/flowreference.hpp</text>
</a>
</g>
</g>
<!-- Node1&#45;&gt;Node9 -->
<g id="edge33" class="edge">
<title>Node1&#45;&gt;Node9</title>
<path fill="none" stroke="midnightblue" d="M620.78,-388.78C638.11,-381.64 657.54,-371.01 670.78,-356 726.34,-293.02 741.65,-234.05 689.78,-168 678.16,-153.19 631.95,-139.77 597.47,-131.52"/>
<polygon fill="midnightblue" stroke="midnightblue" points="619.49,-385.53 611.43,-392.4 622.02,-392.06 619.49,-385.53"/>
</g>
<!-- Node10 -->
<g id="node10" class="node">
<title>Node10</title>
<g id="a_node10"><a xlink:href="junction_8hpp.html" target="_top" xlink:title="MODEL::Junction source file.">
<polygon fill="none" stroke="black" points="342.78,-112.5 342.78,-131.5 440.78,-131.5 440.78,-112.5 342.78,-112.5"/>
<text text-anchor="middle" x="391.78" y="-119.5" font-family="Helvetica,sans-Serif" font-size="10.00">model/junction.hpp</text>
</a>
</g>
</g>
<!-- Node1&#45;&gt;Node10 -->
<g id="edge34" class="edge">
<title>Node1&#45;&gt;Node10</title>
<path fill="none" stroke="midnightblue" d="M507.87,-395.77C440.95,-386.53 352.78,-361.06 352.78,-291 352.78,-291 352.78,-291 352.78,-233 352.78,-193.29 375.64,-149.9 386.36,-131.75"/>
<polygon fill="midnightblue" stroke="midnightblue" points="507.63,-399.27 517.99,-397.07 508.52,-392.32 507.63,-399.27"/>
</g>
<!-- Node12 -->
<g id="node12" class="node">
<title>Node12</title>
<g id="a_node12"><a xlink:href="rcrblockwithdistalpressure_8hpp.html" target="_top" xlink:title="MODEL::RCRBlockWithDistalPressure source file.">
<polygon fill="none" stroke="black" points="637.28,-112.5 637.28,-131.5 814.28,-131.5 814.28,-112.5 637.28,-112.5"/>
<text text-anchor="middle" x="725.78" y="-119.5" font-family="Helvetica,sans-Serif" font-size="10.00">model/rcrblockwithdistalpressure.hpp</text>
</a>
</g>
</g>
<!-- Node1&#45;&gt;Node12 -->
<g id="edge36" class="edge">
<title>Node1&#45;&gt;Node12</title>
<path fill="none" stroke="midnightblue" d="M655.48,-400.07C732.66,-394.72 842.78,-372.77 842.78,-291 842.78,-291 842.78,-291 842.78,-233 842.78,-181.14 781.02,-146.57 747.24,-131.54"/>
<polygon fill="midnightblue" stroke="midnightblue" points="655.06,-396.59 645.3,-400.69 655.49,-403.57 655.06,-396.59"/>
</g>
<!-- Node3&#45;&gt;Node4 -->
<g id="edge3" class="edge">
<title>Node3&#45;&gt;Node4</title>
<path fill="none" stroke="midnightblue" d="M588.78,-332.37C565.55,-322.26 533.62,-308.35 513.34,-299.52"/>
<polygon fill="midnightblue" stroke="midnightblue" points="587.57,-335.66 598.14,-336.44 590.36,-329.24 587.57,-335.66"/>
</g>
<!-- Node3&#45;&gt;Node8 -->
<g id="edge27" class="edge">
<title>Node3&#45;&gt;Node8</title>
<path fill="none" stroke="midnightblue" d="M641.45,-331.28C655.93,-322.66 674.71,-311.12 690.78,-300 778.39,-239.39 877.94,-157.78 909.58,-131.52"/>
<polygon fill="midnightblue" stroke="midnightblue" points="639.46,-328.39 632.62,-336.48 643.01,-334.42 639.46,-328.39"/>
</g>
<!-- Node3&#45;&gt;Node9 -->
<g id="edge28" class="edge">
<title>Node3&#45;&gt;Node9</title>
<path fill="none" stroke="midnightblue" d="M631.64,-328.31C657.4,-295.15 706.97,-219.72 671.78,-168 658.74,-148.82 636.13,-137.82 614.48,-131.5"/>
<polygon fill="midnightblue" stroke="midnightblue" points="628.62,-326.49 625.1,-336.49 634.08,-330.86 628.62,-326.49"/>
</g>
<!-- Node3&#45;&gt;Node10 -->
<g id="edge29" class="edge">
<title>Node3&#45;&gt;Node10</title>
<path fill="none" stroke="midnightblue" d="M604.1,-328.47C592.82,-315.08 576.23,-295.89 560.78,-280 503.01,-220.55 428.17,-154.59 401.64,-131.52"/>
<polygon fill="midnightblue" stroke="midnightblue" points="601.57,-330.91 610.67,-336.34 606.95,-326.42 601.57,-330.91"/>
</g>
<!-- Node3&#45;&gt;Node12 -->
<g id="edge30" class="edge">
<title>Node3&#45;&gt;Node12</title>
<path fill="none" stroke="midnightblue" d="M639.4,-330.32C649.93,-322.33 662.16,-311.68 670.78,-300 711.49,-244.86 722.53,-158.94 725.09,-131.64"/>
<polygon fill="midnightblue" stroke="midnightblue" points="637.09,-327.67 631.06,-336.38 641.21,-333.33 637.09,-327.67"/>
</g>
<!-- Node4&#45;&gt;Node5 -->
<g id="edge4" class="edge">
<title>Node4&#45;&gt;Node5</title>
<path fill="none" stroke="midnightblue" d="M475.02,-274.1C462.78,-264.38 447.22,-252.03 436.91,-243.83"/>
<polygon fill="midnightblue" stroke="midnightblue" points="472.85,-276.85 482.86,-280.32 477.2,-271.36 472.85,-276.85"/>
</g>
<!-- Node5&#45;&gt;Node2 -->
<g id="edge26" class="edge">
<title>Node5&#45;&gt;Node2</title>
<path fill="none" stroke="midnightblue" d="M395.71,-219.9C380.98,-212.3 363.86,-201.53 351.78,-188 308.75,-139.78 329.65,-107.64 290.78,-56 279.73,-41.31 263.16,-28.01 251.71,-19.74"/>
<polygon fill="midnightblue" stroke="midnightblue" points="394.45,-223.18 404.97,-224.44 397.53,-216.9 394.45,-223.18"/>
</g>
<!-- Node6 -->
<g id="node6" class="node">
<title>Node6</title>
<g id="a_node6"><a xlink:href="integrator_8hpp.html" target="_top" xlink:title="ALGEBRA::Integrator source file.">
<polygon fill="none" stroke="black" points="28.78,-56.5 28.78,-75.5 138.78,-75.5 138.78,-56.5 28.78,-56.5"/>
<text text-anchor="middle" x="83.78" y="-63.5" font-family="Helvetica,sans-Serif" font-size="10.00">algebra/integrator.hpp</text>
</a>
</g>
</g>
<!-- Node5&#45;&gt;Node6 -->
<g id="edge5" class="edge">
<title>Node5&#45;&gt;Node6</title>
<path fill="none" stroke="midnightblue" d="M370.33,-232.16C291.21,-229.79 151.44,-220.93 114.78,-188 81.55,-158.15 81.73,-97.99 83.07,-75.63"/>
<polygon fill="midnightblue" stroke="midnightblue" points="370.51,-235.66 380.6,-232.44 370.7,-228.67 370.51,-235.66"/>
</g>
<!-- Node7 -->
<g id="node7" class="node">
<title>Node7</title>
<g id="a_node7"><a xlink:href="sparsesystem_8hpp.html" target="_top" xlink:title="ALGEBRA::SparseSystem source file.">
<polygon fill="none" stroke="black" points="532.78,-168.5 532.78,-187.5 662.78,-187.5 662.78,-168.5 532.78,-168.5"/>
<text text-anchor="middle" x="597.78" y="-175.5" font-family="Helvetica,sans-Serif" font-size="10.00">algebra/sparsesystem.hpp</text>
</a>
</g>
</g>
<!-- Node5&#45;&gt;Node7 -->
<g id="edge7" class="edge">
<title>Node5&#45;&gt;Node7</title>
<path fill="none" stroke="midnightblue" d="M457.76,-221.17C488.56,-211 534.69,-196.59 565.58,-187.52"/>
<polygon fill="midnightblue" stroke="midnightblue" points="456.33,-217.96 447.95,-224.44 458.54,-224.6 456.33,-217.96"/>
</g>
<!-- Node11 -->
<g id="node11" class="node">
<title>Node11</title>
<g id="a_node11"><a xlink:href="configreader_8hpp.html" target="_top" xlink:title="IO::ConfigReader source file.">
<polygon fill="none" stroke="black" points="338.78,-56.5 338.78,-75.5 436.78,-75.5 436.78,-56.5 338.78,-56.5"/>
<text text-anchor="middle" x="387.78" y="-63.5" font-family="Helvetica,sans-Serif" font-size="10.00">io/configreader.hpp</text>
</a>
</g>
</g>
<!-- Node5&#45;&gt;Node11 -->
<g id="edge21" class="edge">
<title>Node5&#45;&gt;Node11</title>
<path fill="none" stroke="midnightblue" d="M405.28,-218.21C382.82,-200.61 348.07,-168.91 333.78,-132 330.57,-123.71 330.01,-120.05 333.78,-112 341.44,-95.64 358.3,-83.16 371.15,-75.54"/>
<polygon fill="midnightblue" stroke="midnightblue" points="403.42,-221.2 413.5,-224.46 407.66,-215.62 403.42,-221.2"/>
</g>
<!-- Node13 -->
<g id="node13" class="node">
<title>Node13</title>
<g id="a_node13"><a xlink:href="csvwriter_8hpp.html" target="_top" xlink:title="IO::write_csv source file.">
<polygon fill="none" stroke="black" points="124.28,-168.5 124.28,-187.5 209.28,-187.5 209.28,-168.5 124.28,-168.5"/>
<text text-anchor="middle" x="166.78" y="-175.5" font-family="Helvetica,sans-Serif" font-size="10.00">io/csvwriter.hpp</text>
</a>
</g>
</g>
<!-- Node5&#45;&gt;Node13 -->
<g id="edge22" class="edge">
<title>Node5&#45;&gt;Node13</title>
<path fill="none" stroke="midnightblue" d="M374.68,-222.35C325.74,-212.14 252.83,-196.94 207.63,-187.52"/>
<polygon fill="midnightblue" stroke="midnightblue" points="374.24,-225.83 384.74,-224.44 375.67,-218.98 374.24,-225.83"/>
</g>
<!-- Node14 -->
<g id="node14" class="node">
<title>Node14</title>
<g id="a_node14"><a xlink:href="jsonwriter_8hpp.html" target="_top" xlink:title="IO::write_json source file.">
<polygon fill="none" stroke="black" points="195.28,-56.5 195.28,-75.5 282.28,-75.5 282.28,-56.5 195.28,-56.5"/>
<text text-anchor="middle" x="238.78" y="-63.5" font-family="Helvetica,sans-Serif" font-size="10.00">io/jsonwriter.hpp</text>
</a>
</g>
</g>
<!-- Node5&#45;&gt;Node14 -->
<g id="edge24" class="edge">
<title>Node5&#45;&gt;Node14</title>
<path fill="none" stroke="midnightblue" d="M370.24,-231.93C334.6,-228.21 290.06,-217.36 262.78,-188 232.9,-155.84 235.49,-97.59 237.7,-75.66"/>
<polygon fill="midnightblue" stroke="midnightblue" points="370.24,-235.44 380.5,-232.84 370.85,-228.47 370.24,-235.44"/>
</g>
<!-- Node6&#45;&gt;Node2 -->
<g id="edge6" class="edge">
<title>Node6&#45;&gt;Node2</title>
<path fill="none" stroke="midnightblue" d="M118.12,-53.04C147.28,-42.88 188.42,-28.55 214.34,-19.52"/>
<polygon fill="midnightblue" stroke="midnightblue" points="116.64,-49.85 108.34,-56.44 118.94,-56.46 116.64,-49.85"/>
</g>
<!-- Node7&#45;&gt;Node2 -->
<g id="edge8" class="edge">
<title>Node7&#45;&gt;Node2</title>
<path fill="none" stroke="midnightblue" d="M550.47,-165.41C529.43,-158.42 505.48,-147.75 487.78,-132 458.95,-106.35 476.74,-79.05 445.78,-56 391.95,-15.92 309.67,-10.11 266.86,-10.09"/>
<polygon fill="midnightblue" stroke="midnightblue" points="549.61,-168.81 560.2,-168.45 551.7,-162.13 549.61,-168.81"/>
</g>
<!-- Node7&#45;&gt;Node3 -->
<g id="edge9" class="edge">
<title>Node7&#45;&gt;Node3</title>
<path fill="none" stroke="midnightblue" d="M600.02,-197.58C604.31,-233.21 613.56,-309.95 616.71,-336.08"/>
<polygon fill="midnightblue" stroke="midnightblue" points="603.49,-197.08 598.82,-187.57 596.54,-197.92 603.49,-197.08"/>
</g>
<!-- Node7&#45;&gt;Node4 -->
<g id="edge10" class="edge">
<title>Node7&#45;&gt;Node4</title>
<path fill="none" stroke="midnightblue" d="M582.61,-195.05C560.28,-218.67 519.34,-261.97 501.94,-280.37"/>
<polygon fill="midnightblue" stroke="midnightblue" points="585.33,-197.26 589.66,-187.59 580.25,-192.45 585.33,-197.26"/>
</g>
<!-- Node7&#45;&gt;Node5 -->
<g id="edge18" class="edge">
<title>Node7&#45;&gt;Node5</title>
<path fill="none" stroke="midnightblue" d="M565.94,-190.78C535.19,-200.94 489.05,-215.36 458.13,-224.44"/>
<polygon fill="midnightblue" stroke="midnightblue" points="567.36,-194 575.74,-187.52 565.14,-187.36 567.36,-194"/>
</g>
<!-- Node7&#45;&gt;Node8 -->
<g id="edge11" class="edge">
<title>Node7&#45;&gt;Node8</title>
<path fill="none" stroke="midnightblue" d="M659.04,-166.73C719.89,-156.52 812.1,-141.06 869,-131.52"/>
<polygon fill="midnightblue" stroke="midnightblue" points="658.09,-163.34 648.81,-168.44 659.25,-170.24 658.09,-163.34"/>
</g>
<!-- Node7&#45;&gt;Node9 -->
<g id="edge12" class="edge">
<title>Node7&#45;&gt;Node9</title>
<path fill="none" stroke="midnightblue" d="M585.08,-159.86C578.16,-150.5 569.88,-139.33 564.27,-131.75"/>
<polygon fill="midnightblue" stroke="midnightblue" points="582.41,-162.13 591.18,-168.08 588.04,-157.96 582.41,-162.13"/>
</g>
<!-- Node7&#45;&gt;Node10 -->
<g id="edge14" class="edge">
<title>Node7&#45;&gt;Node10</title>
<path fill="none" stroke="midnightblue" d="M555.17,-165.83C516.27,-155.63 459.62,-140.78 424.27,-131.52"/>
<polygon fill="midnightblue" stroke="midnightblue" points="554.58,-169.29 565.14,-168.44 556.36,-162.52 554.58,-169.29"/>
</g>
<!-- Node7&#45;&gt;Node12 -->
<g id="edge19" class="edge">
<title>Node7&#45;&gt;Node12</title>
<path fill="none" stroke="midnightblue" d="M627.41,-164.5C651.4,-154.38 684.57,-140.39 705.6,-131.52"/>
<polygon fill="midnightblue" stroke="midnightblue" points="625.92,-161.33 618.07,-168.44 628.64,-167.78 625.92,-161.33"/>
</g>
<!-- Node9&#45;&gt;Node5 -->
<g id="edge13" class="edge">
<title>Node9&#45;&gt;Node5</title>
<path fill="none" stroke="midnightblue" d="M510.4,-134.68C490.51,-141.59 468.42,-152.18 452.78,-168 436.97,-183.99 429.94,-210.57 427.24,-224.26"/>
<polygon fill="midnightblue" stroke="midnightblue" points="511.51,-137.99 519.94,-131.57 509.35,-131.34 511.51,-137.99"/>
</g>
<!-- Node10&#45;&gt;Node5 -->
<g id="edge17" class="edge">
<title>Node10&#45;&gt;Node5</title>
<path fill="none" stroke="midnightblue" d="M397.43,-141.27C404.86,-165.3 417.6,-206.54 423.12,-224.37"/>
<polygon fill="midnightblue" stroke="midnightblue" points="400.74,-140.11 394.44,-131.59 394.05,-142.18 400.74,-140.11"/>
</g>
<!-- Node10&#45;&gt;Node11 -->
<g id="edge15" class="edge">
<title>Node10&#45;&gt;Node11</title>
<path fill="none" stroke="midnightblue" d="M390.38,-102.1C389.72,-93.14 388.96,-82.86 388.43,-75.75"/>
<polygon fill="midnightblue" stroke="midnightblue" points="386.89,-102.37 391.12,-112.08 393.87,-101.85 386.89,-102.37"/>
</g>
<!-- Node11&#45;&gt;Node2 -->
<g id="edge16" class="edge">
<title>Node11&#45;&gt;Node2</title>
<path fill="none" stroke="midnightblue" d="M354.41,-52.91C326.4,-42.75 287.09,-28.51 262.28,-19.52"/>
<polygon fill="midnightblue" stroke="midnightblue" points="353.58,-56.33 364.17,-56.44 355.96,-49.75 353.58,-56.33"/>
</g>
<!-- Node12&#45;&gt;Node5 -->
<g id="edge20" class="edge">
<title>Node12&#45;&gt;Node5</title>
<path fill="none" stroke="midnightblue" d="M649.16,-133.27C610.52,-140.12 563.54,-151.08 523.78,-168 488.84,-182.87 452.94,-210.45 435.92,-224.41"/>
<polygon fill="midnightblue" stroke="midnightblue" points="650.05,-136.67 659.31,-131.52 648.86,-129.77 650.05,-136.67"/>
</g>
<!-- Node13&#45;&gt;Node2 -->
<g id="edge23" class="edge">
<title>Node13&#45;&gt;Node2</title>
<path fill="none" stroke="midnightblue" d="M165.82,-158.18C165.38,-133.21 167.55,-88.5 185.78,-56 194.64,-40.21 211.32,-27.47 223.61,-19.63"/>
<polygon fill="midnightblue" stroke="midnightblue" points="162.33,-158.56 166.17,-168.43 169.33,-158.31 162.33,-158.56"/>
</g>
<!-- Node14&#45;&gt;Node2 -->
<g id="edge25" class="edge">
<title>Node14&#45;&gt;Node2</title>
<path fill="none" stroke="midnightblue" d="M238.78,-45.8C238.78,-36.91 238.78,-26.78 238.78,-19.75"/>
<polygon fill="midnightblue" stroke="midnightblue" points="235.28,-46.08 238.78,-56.08 242.28,-46.08 235.28,-46.08"/>
</g>
</g>
</svg>
