<?xml version="1.0" encoding="UTF-8" standalone="no"?>
<!DOCTYPE svg PUBLIC "-//W3C//DTD SVG 1.1//EN"
 "http://www.w3.org/Graphics/SVG/1.1/DTD/svg11.dtd">
<!-- Generated by graphviz version 3.0.0 (20221109.1736)
 -->
<!-- Title: io Pages: 1 -->
<svg width="206pt" height="116pt"
 viewBox="0.00 0.00 206.00 116.00" xmlns="http://www.w3.org/2000/svg" xmlns:xlink="http://www.w3.org/1999/xlink">
<g id="graph0" class="graph" transform="scale(1 1) rotate(0) translate(4 112)">
<title>io</title>
<!-- dir_bc161955dc3a3d2485839eba21420d01 -->
<g id="node1" class="node">
<title>dir_bc161955dc3a3d2485839eba21420d01</title>
<g id="a_node1"><a xlink:href="dir_bc161955dc3a3d2485839eba21420d01.html" target="_top" xlink:title="io">
<polygon fill="#edf0f7" stroke="#404040" stroke-width="2" points="126,-108 72,-108 72,-72 126,-72 126,-108"/>
<text text-anchor="middle" x="99" y="-87.5" font-family="Helvetica,sans-Serif" font-size="10.00">io</text>
</a>
</g>
</g>
<!-- dir_3f14f6767c31cb4a1d22c13c18cc6fc3 -->
<g id="node2" class="node">
<title>dir_3f14f6767c31cb4a1d22c13c18cc6fc3</title>
<g id="a_node2"><a xlink:href="dir_3f14f6767c31cb4a1d22c13c18cc6fc3.html" target="_top" xlink:title="model">
<polygon fill="none" stroke="#404040" points="54,-36 0,-36 0,0 54,0 54,-36"/>
<text text-anchor="middle" x="27" y="-15.5" font-family="Helvetica,sans-Serif" font-size="10.00">model</text>
</a>
</g>
</g>
<!-- dir_bc161955dc3a3d2485839eba21420d01&#45;&gt;dir_3f14f6767c31cb4a1d22c13c18cc6fc3 -->
<g id="edge1" class="edge">
<title>dir_bc161955dc3a3d2485839eba21420d01&#45;&gt;dir_3f14f6767c31cb4a1d22c13c18cc6fc3</title>
<path fill="none" stroke="black" d="M81.2,-71.7C72.4,-63.14 61.62,-52.66 52,-43.3"/>
<polygon fill="black" stroke="black" points="54.2,-40.57 44.59,-36.1 49.32,-45.58 54.2,-40.57"/>
<g id="a_edge1&#45;headlabel"><a xlink:href="dir_000002_000003.html" target="_top" xlink:title="15">
<text text-anchor="middle" x="58.76" y="-38.54" font-family="Helvetica,sans-Serif" font-size="10.00">15</text>
</a>
</g>
</g>
<!-- dir_861f50189fda057e6c57d1c1130602b3 -->
<g id="node3" class="node">
<title>dir_861f50189fda057e6c57d1c1130602b3</title>
<g id="a_node3"><a xlink:href="dir_861f50189fda057e6c57d1c1130602b3.html" target="_top" xlink:title="helpers">
<polygon fill="none" stroke="#404040" points="126,-36 72,-36 72,0 126,0 126,-36"/>
<text text-anchor="middle" x="99" y="-15.5" font-family="Helvetica,sans-Serif" font-size="10.00">helpers</text>
</a>
</g>
</g>
<!-- dir_bc161955dc3a3d2485839eba21420d01&#45;&gt;dir_861f50189fda057e6c57d1c1130602b3 -->
<g id="edge2" class="edge">
<title>dir_bc161955dc3a3d2485839eba21420d01&#45;&gt;dir_861f50189fda057e6c57d1c1130602b3</title>
<path fill="none" stroke="black" d="M99,-71.7C99,-63.98 99,-54.71 99,-46.11"/>
<polygon fill="black" stroke="black" points="102.5,-46.1 99,-36.1 95.5,-46.1 102.5,-46.1"/>
<g id="a_edge2&#45;headlabel"><a xlink:href="dir_000002_000001.html" target="_top" xlink:title="3">
<text text-anchor="middle" x="105.34" y="-47.2" font-family="Helvetica,sans-Serif" font-size="10.00">3</text>
</a>
</g>
</g>
<!-- dir_e53b58e09df6ccf29305fb05aac16e30 -->
<g id="node4" class="node">
<title>dir_e53b58e09df6ccf29305fb05aac16e30</title>
<g id="a_node4"><a xlink:href="dir_e53b58e09df6ccf29305fb05aac16e30.html" target="_top" xlink:title="algebra">
<polygon fill="none" stroke="#404040" points="198,-36 144,-36 144,0 198,0 198,-36"/>
<text text-anchor="middle" x="171" y="-15.5" font-family="Helvetica,sans-Serif" font-size="10.00">algebra</text>
</a>
</g>
</g>
<!-- dir_bc161955dc3a3d2485839eba21420d01&#45;&gt;dir_e53b58e09df6ccf29305fb05aac16e30 -->
<g id="edge3" class="edge">
<title>dir_bc161955dc3a3d2485839eba21420d01&#45;&gt;dir_e53b58e09df6ccf29305fb05aac16e30</title>
<path fill="none" stroke="black" d="M116.8,-71.7C125.6,-63.14 136.38,-52.66 146,-43.3"/>
<polygon fill="black" stroke="black" points="148.68,-45.58 153.41,-36.1 143.8,-40.57 148.68,-45.58"/>
<g id="a_edge3&#45;headlabel"><a xlink:href="dir_000002_000000.html" target="_top" xlink:title="1">
<text text-anchor="middle" x="148.08" y="-47.63" font-family="Helvetica,sans-Serif" font-size="10.00">1</text>
</a>
</g>
</g>
</g>
</svg>
