<?xml version="1.0" encoding="UTF-8" standalone="no"?>
<!DOCTYPE svg PUBLIC "-//W3C//DTD SVG 1.1//EN"
 "http://www.w3.org/Graphics/SVG/1.1/DTD/svg11.dtd">
<!-- Generated by graphviz version 3.0.0 (20220413.0242)
 -->
<!-- Title: model/dofhandler.hpp Pages: 1 -->
<svg width="777pt" height="364pt"
 viewBox="0.00 0.00 776.65 364.00" xmlns="http://www.w3.org/2000/svg" xmlns:xlink="http://www.w3.org/1999/xlink">
<g id="graph0" class="graph" transform="scale(1 1) rotate(0) translate(4 360)">
<title>model/dofhandler.hpp</title>
<!-- Node1 -->
<g id="node1" class="node">
<title>Node1</title>
<g id="a_node1"><a xlink:title="MODEL::DOFHandler source file.">
<polygon fill="#bfbfbf" stroke="black" points="553.5,-336.5 553.5,-355.5 662.5,-355.5 662.5,-336.5 553.5,-336.5"/>
<text text-anchor="middle" x="608" y="-343.5" font-family="Helvetica,sans-Serif" font-size="10.00">model/dofhandler.hpp</text>
</a>
</g>
</g>
<!-- Node2 -->
<g id="node2" class="node">
<title>Node2</title>
<g id="a_node2"><a xlink:href="block_8hpp.html" target="_top" xlink:title="MODEL::Block source file.">
<polygon fill="none" stroke="black" points="392.5,-224.5 392.5,-243.5 479.5,-243.5 479.5,-224.5 392.5,-224.5"/>
<text text-anchor="middle" x="436" y="-231.5" font-family="Helvetica,sans-Serif" font-size="10.00">model/block.hpp</text>
</a>
</g>
</g>
<!-- Node1&#45;&gt;Node2 -->
<g id="edge1" class="edge">
<title>Node1&#45;&gt;Node2</title>
<path fill="none" stroke="midnightblue" d="M569.45,-333.16C547.96,-325.56 521.31,-314.39 500,-300 475.85,-283.69 453.35,-257.25 442.61,-243.66"/>
<polygon fill="midnightblue" stroke="midnightblue" points="568.33,-336.48 578.93,-336.41 570.6,-329.86 568.33,-336.48"/>
</g>
<!-- Node4 -->
<g id="node4" class="node">
<title>Node4</title>
<g id="a_node4"><a xlink:href="model_8hpp.html" target="_top" xlink:title="MODEL::Model source file.">
<polygon fill="none" stroke="black" points="323,-112.5 323,-131.5 413,-131.5 413,-112.5 323,-112.5"/>
<text text-anchor="middle" x="368" y="-119.5" font-family="Helvetica,sans-Serif" font-size="10.00">model/model.hpp</text>
</a>
</g>
</g>
<!-- Node1&#45;&gt;Node4 -->
<g id="edge20" class="edge">
<title>Node1&#45;&gt;Node4</title>
<path fill="none" stroke="midnightblue" d="M646.86,-333.29C702.97,-314.34 796.23,-273.98 760,-224 719.22,-167.74 507.54,-138.13 413.32,-127.57"/>
<polygon fill="midnightblue" stroke="midnightblue" points="645.59,-330.02 637.19,-336.47 647.78,-336.67 645.59,-330.02"/>
</g>
<!-- Node13 -->
<g id="node13" class="node">
<title>Node13</title>
<g id="a_node13"><a xlink:href="node_8hpp.html" target="_top" xlink:title="MODEL::Node source file.">
<polygon fill="none" stroke="black" points="508.5,-280.5 508.5,-299.5 593.5,-299.5 593.5,-280.5 508.5,-280.5"/>
<text text-anchor="middle" x="551" y="-287.5" font-family="Helvetica,sans-Serif" font-size="10.00">model/node.hpp</text>
</a>
</g>
</g>
<!-- Node1&#45;&gt;Node13 -->
<g id="edge21" class="edge">
<title>Node1&#45;&gt;Node13</title>
<path fill="none" stroke="midnightblue" d="M591.38,-329.25C581.27,-319.67 568.72,-307.79 560.32,-299.83"/>
<polygon fill="midnightblue" stroke="midnightblue" points="589.18,-331.99 598.84,-336.32 593.99,-326.91 589.18,-331.99"/>
</g>
<!-- Node14 -->
<g id="node14" class="node">
<title>Node14</title>
<g id="a_node14"><a xlink:href="timedependentparameter_8hpp.html" target="_top" xlink:title="MODEL::TimeDependentParameter source file.">
<polygon fill="none" stroke="black" points="579.5,-224.5 579.5,-243.5 750.5,-243.5 750.5,-224.5 579.5,-224.5"/>
<text text-anchor="middle" x="665" y="-231.5" font-family="Helvetica,sans-Serif" font-size="10.00">model/timedependentparameter.hpp</text>
</a>
</g>
</g>
<!-- Node1&#45;&gt;Node14 -->
<g id="edge24" class="edge">
<title>Node1&#45;&gt;Node14</title>
<path fill="none" stroke="midnightblue" d="M617.16,-327.32C629.57,-303.37 651.24,-261.55 660.55,-243.59"/>
<polygon fill="midnightblue" stroke="midnightblue" points="613.97,-325.88 612.47,-336.37 620.18,-329.1 613.97,-325.88"/>
</g>
<!-- Node3 -->
<g id="node3" class="node">
<title>Node3</title>
<g id="a_node3"><a xlink:href="bloodvessel_8hpp.html" target="_top" xlink:title="MODEL::BloodVessel source file.">
<polygon fill="none" stroke="black" points="310,-168.5 310,-187.5 426,-187.5 426,-168.5 310,-168.5"/>
<text text-anchor="middle" x="368" y="-175.5" font-family="Helvetica,sans-Serif" font-size="10.00">model/bloodvessel.hpp</text>
</a>
</g>
</g>
<!-- Node2&#45;&gt;Node3 -->
<g id="edge2" class="edge">
<title>Node2&#45;&gt;Node3</title>
<path fill="none" stroke="midnightblue" d="M417.24,-218.1C405,-208.38 389.44,-196.03 379.12,-187.83"/>
<polygon fill="midnightblue" stroke="midnightblue" points="415.07,-220.85 425.07,-224.32 419.42,-215.36 415.07,-220.85"/>
</g>
<!-- Node10 -->
<g id="node10" class="node">
<title>Node10</title>
<g id="a_node10"><a xlink:href="flowreference_8hpp.html" target="_top" xlink:title="MODEL::FlowReference source file.">
<polygon fill="none" stroke="black" points="444,-168.5 444,-187.5 566,-187.5 566,-168.5 444,-168.5"/>
<text text-anchor="middle" x="505" y="-175.5" font-family="Helvetica,sans-Serif" font-size="10.00">model/flowreference.hpp</text>
</a>
</g>
</g>
<!-- Node2&#45;&gt;Node10 -->
<g id="edge13" class="edge">
<title>Node2&#45;&gt;Node10</title>
<path fill="none" stroke="midnightblue" d="M455.04,-218.1C467.46,-208.38 483.24,-196.03 493.71,-187.83"/>
<polygon fill="midnightblue" stroke="midnightblue" points="452.8,-215.4 447.09,-224.32 457.12,-220.92 452.8,-215.4"/>
</g>
<!-- Node11 -->
<g id="node11" class="node">
<title>Node11</title>
<g id="a_node11"><a xlink:href="junction_8hpp.html" target="_top" xlink:title="MODEL::Junction source file.">
<polygon fill="none" stroke="black" points="0,-168.5 0,-187.5 98,-187.5 98,-168.5 0,-168.5"/>
<text text-anchor="middle" x="49" y="-175.5" font-family="Helvetica,sans-Serif" font-size="10.00">model/junction.hpp</text>
</a>
</g>
</g>
<!-- Node2&#45;&gt;Node11 -->
<g id="edge15" class="edge">
<title>Node2&#45;&gt;Node11</title>
<path fill="none" stroke="midnightblue" d="M382.39,-226.04C317.06,-217.48 203.33,-202.32 106,-188 103.42,-187.62 100.78,-187.23 98.12,-186.82"/>
<polygon fill="midnightblue" stroke="midnightblue" points="382.08,-229.53 392.45,-227.36 382.99,-222.59 382.08,-229.53"/>
</g>
<!-- Node12 -->
<g id="node12" class="node">
<title>Node12</title>
<g id="a_node12"><a xlink:href="rcrblockwithdistalpressure_8hpp.html" target="_top" xlink:title="MODEL::RCRBlockWithDistalPressure source file.">
<polygon fill="none" stroke="black" points="115.5,-168.5 115.5,-187.5 292.5,-187.5 292.5,-168.5 115.5,-168.5"/>
<text text-anchor="middle" x="204" y="-175.5" font-family="Helvetica,sans-Serif" font-size="10.00">model/rcrblockwithdistalpressure.hpp</text>
</a>
</g>
</g>
<!-- Node2&#45;&gt;Node12 -->
<g id="edge18" class="edge">
<title>Node2&#45;&gt;Node12</title>
<path fill="none" stroke="midnightblue" d="M389.4,-222.15C345.56,-211.95 280.82,-196.88 240.59,-187.52"/>
<polygon fill="midnightblue" stroke="midnightblue" points="388.71,-225.59 399.24,-224.44 390.29,-218.77 388.71,-225.59"/>
</g>
<!-- Node3&#45;&gt;Node4 -->
<g id="edge3" class="edge">
<title>Node3&#45;&gt;Node4</title>
<path fill="none" stroke="midnightblue" d="M368,-157.8C368,-148.91 368,-138.78 368,-131.75"/>
<polygon fill="midnightblue" stroke="midnightblue" points="364.5,-158.08 368,-168.08 371.5,-158.08 364.5,-158.08"/>
</g>
<!-- Node5 -->
<g id="node5" class="node">
<title>Node5</title>
<g id="a_node5"><a xlink:href="integrator_8hpp.html" target="_top" xlink:title="ALGEBRA::Integrator source file.">
<polygon fill="none" stroke="black" points="362,-56.5 362,-75.5 472,-75.5 472,-56.5 362,-56.5"/>
<text text-anchor="middle" x="417" y="-63.5" font-family="Helvetica,sans-Serif" font-size="10.00">algebra/integrator.hpp</text>
</a>
</g>
</g>
<!-- Node4&#45;&gt;Node5 -->
<g id="edge4" class="edge">
<title>Node4&#45;&gt;Node5</title>
<path fill="none" stroke="midnightblue" d="M383.03,-104.43C391.62,-94.97 402.04,-83.48 409.06,-75.75"/>
<polygon fill="midnightblue" stroke="midnightblue" points="380.22,-102.33 376.09,-112.08 385.4,-107.03 380.22,-102.33"/>
</g>
<!-- Node6 -->
<g id="node6" class="node">
<title>Node6</title>
<g id="a_node6"><a xlink:href="main_8cpp.html" target="_top" xlink:title="Main routine of svZeroDSolver.">
<polygon fill="none" stroke="black" points="306,-0.5 306,-19.5 362,-19.5 362,-0.5 306,-0.5"/>
<text text-anchor="middle" x="334" y="-7.5" font-family="Helvetica,sans-Serif" font-size="10.00">main.cpp</text>
</a>
</g>
</g>
<!-- Node4&#45;&gt;Node6 -->
<g id="edge12" class="edge">
<title>Node4&#45;&gt;Node6</title>
<path fill="none" stroke="midnightblue" d="M361.76,-102.8C359,-94.63 355.77,-84.85 353,-76 346.75,-56.03 340.01,-32.4 336.48,-19.86"/>
<polygon fill="midnightblue" stroke="midnightblue" points="358.49,-104.06 365.03,-112.4 365.12,-101.81 358.49,-104.06"/>
</g>
<!-- Node7 -->
<g id="node7" class="node">
<title>Node7</title>
<g id="a_node7"><a xlink:href="configreader_8hpp.html" target="_top" xlink:title="IO::ConfigReader source file.">
<polygon fill="none" stroke="black" points="102,-56.5 102,-75.5 200,-75.5 200,-56.5 102,-56.5"/>
<text text-anchor="middle" x="151" y="-63.5" font-family="Helvetica,sans-Serif" font-size="10.00">io/configreader.hpp</text>
</a>
</g>
</g>
<!-- Node4&#45;&gt;Node7 -->
<g id="edge6" class="edge">
<title>Node4&#45;&gt;Node7</title>
<path fill="none" stroke="midnightblue" d="M323.89,-110.02C282.9,-99.82 222.7,-84.84 185.22,-75.52"/>
<polygon fill="midnightblue" stroke="midnightblue" points="323.07,-113.43 333.62,-112.44 324.76,-106.63 323.07,-113.43"/>
</g>
<!-- Node8 -->
<g id="node8" class="node">
<title>Node8</title>
<g id="a_node8"><a xlink:href="csvwriter_8hpp.html" target="_top" xlink:title="IO::write_csv source file.">
<polygon fill="none" stroke="black" points="490.5,-56.5 490.5,-75.5 575.5,-75.5 575.5,-56.5 490.5,-56.5"/>
<text text-anchor="middle" x="533" y="-63.5" font-family="Helvetica,sans-Serif" font-size="10.00">io/csvwriter.hpp</text>
</a>
</g>
</g>
<!-- Node4&#45;&gt;Node8 -->
<g id="edge8" class="edge">
<title>Node4&#45;&gt;Node8</title>
<path fill="none" stroke="midnightblue" d="M403.74,-109.3C434.83,-99.13 479.15,-84.62 506.98,-75.52"/>
<polygon fill="midnightblue" stroke="midnightblue" points="402.56,-106.01 394.14,-112.44 404.74,-112.66 402.56,-106.01"/>
</g>
<!-- Node9 -->
<g id="node9" class="node">
<title>Node9</title>
<g id="a_node9"><a xlink:href="jsonwriter_8hpp.html" target="_top" xlink:title="IO::write_json source file.">
<polygon fill="none" stroke="black" points="218.5,-56.5 218.5,-75.5 305.5,-75.5 305.5,-56.5 218.5,-56.5"/>
<text text-anchor="middle" x="262" y="-63.5" font-family="Helvetica,sans-Serif" font-size="10.00">io/jsonwriter.hpp</text>
</a>
</g>
</g>
<!-- Node4&#45;&gt;Node9 -->
<g id="edge10" class="edge">
<title>Node4&#45;&gt;Node9</title>
<path fill="none" stroke="midnightblue" d="M341.94,-107.73C322.32,-97.73 295.97,-84.31 278.99,-75.65"/>
<polygon fill="midnightblue" stroke="midnightblue" points="340.47,-110.9 350.97,-112.32 343.65,-104.67 340.47,-110.9"/>
</g>
<!-- Node5&#45;&gt;Node6 -->
<g id="edge5" class="edge">
<title>Node5&#45;&gt;Node6</title>
<path fill="none" stroke="midnightblue" d="M394.9,-50.62C379.74,-40.76 360.12,-27.99 347.3,-19.65"/>
<polygon fill="midnightblue" stroke="midnightblue" points="393.37,-53.8 403.66,-56.32 397.19,-47.94 393.37,-53.8"/>
</g>
<!-- Node7&#45;&gt;Node6 -->
<g id="edge7" class="edge">
<title>Node7&#45;&gt;Node6</title>
<path fill="none" stroke="midnightblue" d="M189.8,-53.55C224.55,-43.3 274.67,-28.51 305.74,-19.34"/>
<polygon fill="midnightblue" stroke="midnightblue" points="188.6,-50.26 180,-56.44 190.58,-56.97 188.6,-50.26"/>
</g>
<!-- Node8&#45;&gt;Node6 -->
<g id="edge9" class="edge">
<title>Node8&#45;&gt;Node6</title>
<path fill="none" stroke="midnightblue" d="M491.54,-53.75C452.77,-43.23 395.92,-27.8 362.17,-18.64"/>
<polygon fill="midnightblue" stroke="midnightblue" points="490.9,-57.2 501.47,-56.44 492.73,-50.45 490.9,-57.2"/>
</g>
<!-- Node9&#45;&gt;Node6 -->
<g id="edge11" class="edge">
<title>Node9&#45;&gt;Node6</title>
<path fill="none" stroke="midnightblue" d="M281.87,-50.1C294.82,-40.38 311.3,-28.03 322.22,-19.83"/>
<polygon fill="midnightblue" stroke="midnightblue" points="279.47,-47.52 273.57,-56.32 283.67,-53.12 279.47,-47.52"/>
</g>
<!-- Node10&#45;&gt;Node4 -->
<g id="edge14" class="edge">
<title>Node10&#45;&gt;Node4</title>
<path fill="none" stroke="midnightblue" d="M473.98,-164.77C448.24,-154.63 412.31,-140.47 389.61,-131.52"/>
<polygon fill="midnightblue" stroke="midnightblue" points="472.71,-168.03 483.29,-168.44 475.27,-161.52 472.71,-168.03"/>
</g>
<!-- Node11&#45;&gt;Node4 -->
<g id="edge17" class="edge">
<title>Node11&#45;&gt;Node4</title>
<path fill="none" stroke="midnightblue" d="M108.19,-166.98C170.34,-156.46 266.68,-140.15 322.93,-130.63"/>
<polygon fill="midnightblue" stroke="midnightblue" points="107.42,-163.56 98.14,-168.68 108.59,-170.46 107.42,-163.56"/>
</g>
<!-- Node11&#45;&gt;Node7 -->
<g id="edge16" class="edge">
<title>Node11&#45;&gt;Node7</title>
<path fill="none" stroke="midnightblue" d="M63.93,-160.9C85.86,-137.25 126.01,-93.95 143.03,-75.59"/>
<polygon fill="midnightblue" stroke="midnightblue" points="61.24,-158.66 57,-168.37 66.37,-163.42 61.24,-158.66"/>
</g>
<!-- Node12&#45;&gt;Node4 -->
<g id="edge19" class="edge">
<title>Node12&#45;&gt;Node4</title>
<path fill="none" stroke="midnightblue" d="M239.52,-165.3C270.42,-155.13 314.47,-140.62 342.14,-131.52"/>
<polygon fill="midnightblue" stroke="midnightblue" points="238.39,-161.99 229.99,-168.44 240.58,-168.64 238.39,-161.99"/>
</g>
<!-- Node13&#45;&gt;Node2 -->
<g id="edge22" class="edge">
<title>Node13&#45;&gt;Node2</title>
<path fill="none" stroke="midnightblue" d="M523.52,-276.1C502.03,-266.01 472.78,-252.27 454.14,-243.52"/>
<polygon fill="midnightblue" stroke="midnightblue" points="522.24,-279.36 532.78,-280.44 525.21,-273.02 522.24,-279.36"/>
</g>
<!-- Node13&#45;&gt;Node4 -->
<g id="edge23" class="edge">
<title>Node13&#45;&gt;Node4</title>
<path fill="none" stroke="midnightblue" d="M556.29,-270.42C565.13,-238.5 581.37,-175.91 575,-168 555.09,-143.3 468.03,-131.46 413.35,-126.36"/>
<polygon fill="midnightblue" stroke="midnightblue" points="552.85,-269.71 553.51,-280.29 559.59,-271.61 552.85,-269.71"/>
</g>
<!-- Node14&#45;&gt;Node10 -->
<g id="edge25" class="edge">
<title>Node14&#45;&gt;Node10</title>
<path fill="none" stroke="midnightblue" d="M629.95,-221.17C599.83,-211 557.1,-196.59 530.23,-187.52"/>
<polygon fill="midnightblue" stroke="midnightblue" points="629.05,-224.56 639.65,-224.44 631.29,-217.93 629.05,-224.56"/>
</g>
</g>
</svg>
