<?xml version="1.0" encoding="UTF-8" standalone="no"?>
<!DOCTYPE svg PUBLIC "-//W3C//DTD SVG 1.1//EN"
 "http://www.w3.org/Graphics/SVG/1.1/DTD/svg11.dtd">
<!-- Generated by graphviz version 3.0.0 (20221109.1736)
 -->
<!-- Title: model/dofhandler.hpp Pages: 1 -->
<svg width="2097pt" height="532pt"
 viewBox="0.00 0.00 2097.00 532.00" xmlns="http://www.w3.org/2000/svg" xmlns:xlink="http://www.w3.org/1999/xlink">
<g id="graph0" class="graph" transform="scale(1 1) rotate(0) translate(4 528)">
<title>model/dofhandler.hpp</title>
<!-- Node1 -->
<g id="node1" class="node">
<title>Node1</title>
<g id="a_node1"><a xlink:title="MODEL::DOFHandler source file.">
<polygon fill="#bfbfbf" stroke="black" points="1497,-504.5 1497,-523.5 1606,-523.5 1606,-504.5 1497,-504.5"/>
<text text-anchor="middle" x="1551.5" y="-511.5" font-family="Helvetica,sans-Serif" font-size="10.00">model/dofhandler.hpp</text>
</a>
</g>
</g>
<!-- Node2 -->
<g id="node2" class="node">
<title>Node2</title>
<g id="a_node2"><a xlink:href="block_8hpp.html" target="_top" xlink:title="MODEL::Block source file.">
<polygon fill="none" stroke="black" points="1116,-392.5 1116,-411.5 1203,-411.5 1203,-392.5 1116,-392.5"/>
<text text-anchor="middle" x="1159.5" y="-399.5" font-family="Helvetica,sans-Serif" font-size="10.00">model/block.hpp</text>
</a>
</g>
</g>
<!-- Node1&#45;&gt;Node2 -->
<g id="edge1" class="edge">
<title>Node1&#45;&gt;Node2</title>
<path fill="none" stroke="midnightblue" d="M1511.04,-501.65C1432.26,-479.54 1259.88,-431.17 1189.91,-411.53"/>
<polygon fill="midnightblue" stroke="midnightblue" points="1510.49,-505.13 1521.07,-504.46 1512.38,-498.39 1510.49,-505.13"/>
</g>
<!-- Node14 -->
<g id="node14" class="node">
<title>Node14</title>
<g id="a_node14"><a xlink:href="model_8hpp.html" target="_top" xlink:title="MODEL::Model source file.">
<polygon fill="none" stroke="black" points="1824.5,-336.5 1824.5,-355.5 1914.5,-355.5 1914.5,-336.5 1824.5,-336.5"/>
<text text-anchor="middle" x="1869.5" y="-343.5" font-family="Helvetica,sans-Serif" font-size="10.00">model/model.hpp</text>
</a>
</g>
</g>
<!-- Node1&#45;&gt;Node14 -->
<g id="edge53" class="edge">
<title>Node1&#45;&gt;Node14</title>
<path fill="none" stroke="midnightblue" d="M1616.06,-504.91C1679.41,-493.91 1775.32,-468.62 1837.5,-412 1854.61,-396.42 1863.66,-369.66 1867.39,-355.83"/>
<polygon fill="midnightblue" stroke="midnightblue" points="1615.47,-501.46 1606.18,-506.56 1616.62,-508.37 1615.47,-501.46"/>
</g>
<!-- Node23 -->
<g id="node23" class="node">
<title>Node23</title>
<g id="a_node23"><a xlink:href="node_8hpp.html" target="_top" xlink:title="MODEL::Node source file.">
<polygon fill="none" stroke="black" points="1597,-448.5 1597,-467.5 1682,-467.5 1682,-448.5 1597,-448.5"/>
<text text-anchor="middle" x="1639.5" y="-455.5" font-family="Helvetica,sans-Serif" font-size="10.00">model/node.hpp</text>
</a>
</g>
</g>
<!-- Node1&#45;&gt;Node23 -->
<g id="edge54" class="edge">
<title>Node1&#45;&gt;Node23</title>
<path fill="none" stroke="midnightblue" d="M1574.48,-498.9C1590.61,-489 1611.68,-476.07 1625.4,-467.65"/>
<polygon fill="midnightblue" stroke="midnightblue" points="1572.33,-496.11 1565.64,-504.32 1575.99,-502.08 1572.33,-496.11"/>
</g>
<!-- Node24 -->
<g id="node24" class="node">
<title>Node24</title>
<g id="a_node24"><a xlink:href="timedependentparameter_8hpp.html" target="_top" xlink:title="MODEL::TimeDependentParameter source file.">
<polygon fill="none" stroke="black" points="277,-280.5 277,-299.5 448,-299.5 448,-280.5 277,-280.5"/>
<text text-anchor="middle" x="362.5" y="-287.5" font-family="Helvetica,sans-Serif" font-size="10.00">model/timedependentparameter.hpp</text>
</a>
</g>
</g>
<!-- Node1&#45;&gt;Node24 -->
<g id="edge58" class="edge">
<title>Node1&#45;&gt;Node24</title>
<path fill="none" stroke="midnightblue" d="M1495.76,-502.59C1292.61,-464.66 594.13,-334.25 408.24,-299.54"/>
<polygon fill="midnightblue" stroke="midnightblue" points="1495.15,-506.04 1505.62,-504.43 1496.43,-499.16 1495.15,-506.04"/>
</g>
<!-- Node3 -->
<g id="node3" class="node">
<title>Node3</title>
<g id="a_node3"><a xlink:href="configreader_8hpp.html" target="_top" xlink:title="IO::ConfigReader source file.">
<polygon fill="none" stroke="black" points="1158.5,-112.5 1158.5,-131.5 1256.5,-131.5 1256.5,-112.5 1158.5,-112.5"/>
<text text-anchor="middle" x="1207.5" y="-119.5" font-family="Helvetica,sans-Serif" font-size="10.00">io/configreader.hpp</text>
</a>
</g>
</g>
<!-- Node2&#45;&gt;Node3 -->
<g id="edge2" class="edge">
<title>Node2&#45;&gt;Node3</title>
<path fill="none" stroke="midnightblue" d="M1213.17,-394.06C1305.25,-380.65 1483.5,-347.4 1483.5,-291 1483.5,-291 1483.5,-291 1483.5,-233 1483.5,-184.13 1332.27,-147.33 1253.7,-131.52"/>
<polygon fill="midnightblue" stroke="midnightblue" points="1212.6,-390.61 1203.2,-395.49 1213.59,-397.54 1212.6,-390.61"/>
</g>
<!-- Node7 -->
<g id="node7" class="node">
<title>Node7</title>
<g id="a_node7"><a xlink:href="bloodvessel_8hpp.html" target="_top" xlink:title="MODEL::BloodVessel source file.">
<polygon fill="none" stroke="black" points="1187.5,-224.5 1187.5,-243.5 1303.5,-243.5 1303.5,-224.5 1187.5,-224.5"/>
<text text-anchor="middle" x="1245.5" y="-231.5" font-family="Helvetica,sans-Serif" font-size="10.00">model/bloodvessel.hpp</text>
</a>
</g>
</g>
<!-- Node2&#45;&gt;Node7 -->
<g id="edge6" class="edge">
<title>Node2&#45;&gt;Node7</title>
<path fill="none" stroke="midnightblue" d="M1168.9,-382.86C1187.35,-347.25 1227.65,-269.45 1241.06,-243.57"/>
<polygon fill="midnightblue" stroke="midnightblue" points="1165.62,-381.59 1164.12,-392.08 1171.83,-384.81 1165.62,-381.59"/>
</g>
<!-- Node8 -->
<g id="node8" class="node">
<title>Node8</title>
<g id="a_node8"><a xlink:href="bloodvesseljunction_8hpp.html" target="_top" xlink:title="MODEL::BloodVesselJunction source file.">
<polygon fill="none" stroke="black" points="1082,-168.5 1082,-187.5 1231,-187.5 1231,-168.5 1082,-168.5"/>
<text text-anchor="middle" x="1156.5" y="-175.5" font-family="Helvetica,sans-Serif" font-size="10.00">model/bloodvesseljunction.hpp</text>
</a>
</g>
</g>
<!-- Node2&#45;&gt;Node8 -->
<g id="edge10" class="edge">
<title>Node2&#45;&gt;Node8</title>
<path fill="none" stroke="midnightblue" d="M1159.25,-382.3C1158.63,-336.64 1157.07,-220.85 1156.62,-187.88"/>
<polygon fill="midnightblue" stroke="midnightblue" points="1155.75,-382.35 1159.38,-392.3 1162.75,-382.25 1155.75,-382.35"/>
</g>
<!-- Node9 -->
<g id="node9" class="node">
<title>Node9</title>
<g id="a_node9"><a xlink:href="closedloop_r_c_rbc_8hpp.html" target="_top" xlink:title="MODEL::ClosedLoopRCRBC source file.">
<polygon fill="none" stroke="black" points="1653,-224.5 1653,-243.5 1794,-243.5 1794,-224.5 1653,-224.5"/>
<text text-anchor="middle" x="1723.5" y="-231.5" font-family="Helvetica,sans-Serif" font-size="10.00">model/closedloopRCRbc.hpp</text>
</a>
</g>
</g>
<!-- Node2&#45;&gt;Node9 -->
<g id="edge11" class="edge">
<title>Node2&#45;&gt;Node9</title>
<path fill="none" stroke="midnightblue" d="M1213.38,-401.3C1285.85,-400.17 1417.84,-392.61 1523.5,-356 1602.88,-328.5 1684.65,-266.36 1713.05,-243.58"/>
<polygon fill="midnightblue" stroke="midnightblue" points="1213.08,-397.81 1203.13,-401.43 1213.17,-404.81 1213.08,-397.81"/>
</g>
<!-- Node10 -->
<g id="node10" class="node">
<title>Node10</title>
<g id="a_node10"><a xlink:href="closedloopcoronarybc_8hpp.html" target="_top" xlink:title="MODEL::ClosedLoopCoronaryBC source file.">
<polygon fill="none" stroke="black" points="625.5,-224.5 625.5,-243.5 783.5,-243.5 783.5,-224.5 625.5,-224.5"/>
<text text-anchor="middle" x="704.5" y="-231.5" font-family="Helvetica,sans-Serif" font-size="10.00">model/closedloopcoronarybc.hpp</text>
</a>
</g>
</g>
<!-- Node2&#45;&gt;Node10 -->
<g id="edge13" class="edge">
<title>Node2&#45;&gt;Node10</title>
<path fill="none" stroke="midnightblue" d="M1110.18,-390.15C1075.48,-382.02 1028.16,-369.93 987.5,-356 884.37,-320.68 765.9,-264.82 722.02,-243.58"/>
<polygon fill="midnightblue" stroke="midnightblue" points="1109.54,-393.59 1120.07,-392.44 1111.12,-386.77 1109.54,-393.59"/>
</g>
<!-- Node11 -->
<g id="node11" class="node">
<title>Node11</title>
<g id="a_node11"><a xlink:href="closedloopheartpulmonary_8hpp.html" target="_top" xlink:title="MODEL::ClosedLoopHeartPulmonary source file.">
<polygon fill="none" stroke="black" points="801.5,-224.5 801.5,-243.5 977.5,-243.5 977.5,-224.5 801.5,-224.5"/>
<text text-anchor="middle" x="889.5" y="-231.5" font-family="Helvetica,sans-Serif" font-size="10.00">model/closedloopheartpulmonary.hpp</text>
</a>
</g>
</g>
<!-- Node2&#45;&gt;Node11 -->
<g id="edge15" class="edge">
<title>Node2&#45;&gt;Node11</title>
<path fill="none" stroke="midnightblue" d="M1107.27,-390.03C1079.92,-382.87 1046.57,-371.87 1019.5,-356 964.97,-324.03 914.41,-265.67 896.43,-243.69"/>
<polygon fill="midnightblue" stroke="midnightblue" points="1106.51,-393.44 1117.06,-392.49 1108.22,-386.65 1106.51,-393.44"/>
</g>
<!-- Node12 -->
<g id="node12" class="node">
<title>Node12</title>
<g id="a_node12"><a xlink:href="flowreferencebc_8hpp.html" target="_top" xlink:title="MODEL::FlowReferenceBC source file.">
<polygon fill="none" stroke="black" points="137.5,-224.5 137.5,-243.5 269.5,-243.5 269.5,-224.5 137.5,-224.5"/>
<text text-anchor="middle" x="203.5" y="-231.5" font-family="Helvetica,sans-Serif" font-size="10.00">model/flowreferencebc.hpp</text>
</a>
</g>
</g>
<!-- Node2&#45;&gt;Node12 -->
<g id="edge17" class="edge">
<title>Node2&#45;&gt;Node12</title>
<path fill="none" stroke="midnightblue" d="M1105.77,-399.58C936.53,-394.38 416.94,-372.73 267.5,-300 240.73,-286.97 218.76,-258.02 208.98,-243.56"/>
<polygon fill="midnightblue" stroke="midnightblue" points="1105.83,-403.08 1115.93,-399.88 1106.04,-396.08 1105.83,-403.08"/>
</g>
<!-- Node13 -->
<g id="node13" class="node">
<title>Node13</title>
<g id="a_node13"><a xlink:href="junction_8hpp.html" target="_top" xlink:title="MODEL::Junction source file.">
<polygon fill="none" stroke="black" points="995.5,-224.5 995.5,-243.5 1093.5,-243.5 1093.5,-224.5 995.5,-224.5"/>
<text text-anchor="middle" x="1044.5" y="-231.5" font-family="Helvetica,sans-Serif" font-size="10.00">model/junction.hpp</text>
</a>
</g>
</g>
<!-- Node2&#45;&gt;Node13 -->
<g id="edge19" class="edge">
<title>Node2&#45;&gt;Node13</title>
<path fill="none" stroke="midnightblue" d="M1118.8,-389.28C1078.59,-375.29 1019.33,-347.58 992.5,-300 980.01,-277.84 1009.27,-255.43 1028.78,-243.58"/>
<polygon fill="midnightblue" stroke="midnightblue" points="1117.74,-392.62 1128.33,-392.47 1119.96,-385.98 1117.74,-392.62"/>
</g>
<!-- Node2&#45;&gt;Node14 -->
<g id="edge21" class="edge">
<title>Node2&#45;&gt;Node14</title>
<path fill="none" stroke="midnightblue" d="M1213.2,-396.92C1347.95,-386.67 1698.59,-360 1824.04,-350.46"/>
<polygon fill="midnightblue" stroke="midnightblue" points="1212.82,-393.43 1203.11,-397.68 1213.35,-400.41 1212.82,-393.43"/>
</g>
<!-- Node17 -->
<g id="node17" class="node">
<title>Node17</title>
<g id="a_node17"><a xlink:href="openloopcoronarybc_8hpp.html" target="_top" xlink:title="MODEL::OpenLoopCoronaryBC source file.">
<polygon fill="none" stroke="black" points="287.5,-224.5 287.5,-243.5 437.5,-243.5 437.5,-224.5 287.5,-224.5"/>
<text text-anchor="middle" x="362.5" y="-231.5" font-family="Helvetica,sans-Serif" font-size="10.00">model/openloopcoronarybc.hpp</text>
</a>
</g>
</g>
<!-- Node2&#45;&gt;Node17 -->
<g id="edge48" class="edge">
<title>Node2&#45;&gt;Node17</title>
<path fill="none" stroke="midnightblue" d="M1105.86,-394.48C1045.46,-386.78 944.52,-372.89 858.5,-356 680.85,-321.13 470.94,-264.88 393.33,-243.56"/>
<polygon fill="midnightblue" stroke="midnightblue" points="1105.56,-397.97 1115.92,-395.75 1106.44,-391.02 1105.56,-397.97"/>
</g>
<!-- Node18 -->
<g id="node18" class="node">
<title>Node18</title>
<g id="a_node18"><a xlink:href="pressurereferencebc_8hpp.html" target="_top" xlink:title="MODEL::PressureReferenceBC source file.">
<polygon fill="none" stroke="black" points="455.5,-224.5 455.5,-243.5 607.5,-243.5 607.5,-224.5 455.5,-224.5"/>
<text text-anchor="middle" x="531.5" y="-231.5" font-family="Helvetica,sans-Serif" font-size="10.00">model/pressurereferencebc.hpp</text>
</a>
</g>
</g>
<!-- Node2&#45;&gt;Node18 -->
<g id="edge49" class="edge">
<title>Node2&#45;&gt;Node18</title>
<path fill="none" stroke="midnightblue" d="M1105.85,-391.81C1059.86,-383.58 991.96,-370.58 933.5,-356 789.59,-320.1 620.45,-264.82 557.13,-243.65"/>
<polygon fill="midnightblue" stroke="midnightblue" points="1105.44,-395.3 1115.9,-393.6 1106.67,-388.4 1105.44,-395.3"/>
</g>
<!-- Node19 -->
<g id="node19" class="node">
<title>Node19</title>
<g id="a_node19"><a xlink:href="resistancebc_8hpp.html" target="_top" xlink:title="MODEL::ResistanceBC source file.">
<polygon fill="none" stroke="black" points="0,-224.5 0,-243.5 119,-243.5 119,-224.5 0,-224.5"/>
<text text-anchor="middle" x="59.5" y="-231.5" font-family="Helvetica,sans-Serif" font-size="10.00">model/resistancebc.hpp</text>
</a>
</g>
</g>
<!-- Node2&#45;&gt;Node19 -->
<g id="edge50" class="edge">
<title>Node2&#45;&gt;Node19</title>
<path fill="none" stroke="midnightblue" d="M1105.5,-399.76C954.91,-396 532.45,-383.25 396.5,-356 270.02,-330.65 127.17,-266.9 77.59,-243.65"/>
<polygon fill="midnightblue" stroke="midnightblue" points="1105.79,-403.27 1115.87,-400.02 1105.96,-396.27 1105.79,-403.27"/>
</g>
<!-- Node20 -->
<g id="node20" class="node">
<title>Node20</title>
<g id="a_node20"><a xlink:href="resistivejunction_8hpp.html" target="_top" xlink:title="MODEL::ResistiveJunction source file.">
<polygon fill="none" stroke="black" points="1321.5,-224.5 1321.5,-243.5 1455.5,-243.5 1455.5,-224.5 1321.5,-224.5"/>
<text text-anchor="middle" x="1388.5" y="-231.5" font-family="Helvetica,sans-Serif" font-size="10.00">model/resistivejunction.hpp</text>
</a>
</g>
</g>
<!-- Node2&#45;&gt;Node20 -->
<g id="edge51" class="edge">
<title>Node2&#45;&gt;Node20</title>
<path fill="none" stroke="midnightblue" d="M1179.59,-386.44C1226.02,-352.78 1339.62,-270.44 1376.63,-243.61"/>
<polygon fill="midnightblue" stroke="midnightblue" points="1177.53,-383.61 1171.49,-392.31 1181.64,-389.27 1177.53,-383.61"/>
</g>
<!-- Node21 -->
<g id="node21" class="node">
<title>Node21</title>
<g id="a_node21"><a xlink:href="windkesselbc_8hpp.html" target="_top" xlink:title="MODEL::WindkesselBC source file.">
<polygon fill="none" stroke="black" points="1512,-224.5 1512,-243.5 1635,-243.5 1635,-224.5 1512,-224.5"/>
<text text-anchor="middle" x="1573.5" y="-231.5" font-family="Helvetica,sans-Serif" font-size="10.00">model/windkesselbc.hpp</text>
</a>
</g>
</g>
<!-- Node2&#45;&gt;Node21 -->
<g id="edge52" class="edge">
<title>Node2&#45;&gt;Node21</title>
<path fill="none" stroke="midnightblue" d="M1213.05,-399.34C1296.19,-395.87 1451.54,-385.53 1497.5,-356 1540.7,-328.24 1563.73,-266.26 1570.96,-243.55"/>
<polygon fill="midnightblue" stroke="midnightblue" points="1212.89,-395.85 1203.04,-399.74 1213.17,-402.84 1212.89,-395.85"/>
</g>
<!-- Node4 -->
<g id="node4" class="node">
<title>Node4</title>
<g id="a_node4"><a xlink:href="main_8hpp.html" target="_top" xlink:title="Main page documentation.">
<polygon fill="none" stroke="black" points="1889.5,-56.5 1889.5,-75.5 1945.5,-75.5 1945.5,-56.5 1889.5,-56.5"/>
<text text-anchor="middle" x="1917.5" y="-63.5" font-family="Helvetica,sans-Serif" font-size="10.00">main.hpp</text>
</a>
</g>
</g>
<!-- Node3&#45;&gt;Node4 -->
<g id="edge3" class="edge">
<title>Node3&#45;&gt;Node4</title>
<path fill="none" stroke="midnightblue" d="M1266.67,-116.5C1412.38,-105.42 1784.29,-77.13 1889.43,-69.14"/>
<polygon fill="midnightblue" stroke="midnightblue" points="1266.29,-113.02 1256.58,-117.27 1266.82,-120 1266.29,-113.02"/>
</g>
<!-- Node5 -->
<g id="node5" class="node">
<title>Node5</title>
<g id="a_node5"><a xlink:href="main_8cpp.html" target="_top" xlink:title="Main routine of svZeroDSolver.">
<polygon fill="none" stroke="black" points="1850.5,-0.5 1850.5,-19.5 1906.5,-19.5 1906.5,-0.5 1850.5,-0.5"/>
<text text-anchor="middle" x="1878.5" y="-7.5" font-family="Helvetica,sans-Serif" font-size="10.00">main.cpp</text>
</a>
</g>
</g>
<!-- Node4&#45;&gt;Node5 -->
<g id="edge4" class="edge">
<title>Node4&#45;&gt;Node5</title>
<path fill="none" stroke="midnightblue" d="M1905.12,-47.86C1898.36,-38.5 1890.29,-27.33 1884.82,-19.75"/>
<polygon fill="midnightblue" stroke="midnightblue" points="1902.37,-50.03 1911.06,-56.08 1908.04,-45.93 1902.37,-50.03"/>
</g>
<!-- Node6 -->
<g id="node6" class="node">
<title>Node6</title>
<g id="a_node6"><a xlink:href="python_8cpp.html" target="_top" xlink:title="Python binding for svZeroDSolver.">
<polygon fill="none" stroke="black" points="1925,-0.5 1925,-19.5 1988,-19.5 1988,-0.5 1925,-0.5"/>
<text text-anchor="middle" x="1956.5" y="-7.5" font-family="Helvetica,sans-Serif" font-size="10.00">python.cpp</text>
</a>
</g>
</g>
<!-- Node4&#45;&gt;Node6 -->
<g id="edge5" class="edge">
<title>Node4&#45;&gt;Node6</title>
<path fill="none" stroke="midnightblue" d="M1929.88,-47.86C1936.64,-38.5 1944.71,-27.33 1950.18,-19.75"/>
<polygon fill="midnightblue" stroke="midnightblue" points="1926.96,-45.93 1923.94,-56.08 1932.63,-50.03 1926.96,-45.93"/>
</g>
<!-- Node7&#45;&gt;Node3 -->
<g id="edge7" class="edge">
<title>Node7&#45;&gt;Node3</title>
<path fill="none" stroke="midnightblue" d="M1246.32,-214C1246.28,-200.72 1244.99,-182.79 1239.5,-168 1234.3,-153.98 1223.56,-140.34 1215.95,-131.82"/>
<polygon fill="midnightblue" stroke="midnightblue" points="1242.81,-214.2 1246.1,-224.27 1249.81,-214.35 1242.81,-214.2"/>
</g>
<!-- Node7&#45;&gt;Node8 -->
<g id="edge8" class="edge">
<title>Node7&#45;&gt;Node8</title>
<path fill="none" stroke="midnightblue" d="M1222.26,-218.9C1205.94,-209 1184.63,-196.07 1170.76,-187.65"/>
<polygon fill="midnightblue" stroke="midnightblue" points="1220.84,-222.13 1231.2,-224.32 1224.47,-216.14 1220.84,-222.13"/>
</g>
<!-- Node8&#45;&gt;Node3 -->
<g id="edge9" class="edge">
<title>Node8&#45;&gt;Node3</title>
<path fill="none" stroke="midnightblue" d="M1171.88,-160.72C1180.87,-151.2 1191.86,-139.56 1199.24,-131.75"/>
<polygon fill="midnightblue" stroke="midnightblue" points="1169.24,-158.41 1164.92,-168.08 1174.33,-163.22 1169.24,-158.41"/>
</g>
<!-- Node9&#45;&gt;Node3 -->
<g id="edge12" class="edge">
<title>Node9&#45;&gt;Node3</title>
<path fill="none" stroke="midnightblue" d="M1692.43,-220.83C1654.02,-206.23 1586.38,-181.98 1526.5,-168 1432.28,-146 1319.72,-133.18 1256.64,-127.18"/>
<polygon fill="midnightblue" stroke="midnightblue" points="1691.41,-224.18 1702,-224.5 1693.91,-217.65 1691.41,-224.18"/>
</g>
<!-- Node10&#45;&gt;Node3 -->
<g id="edge14" class="edge">
<title>Node10&#45;&gt;Node3</title>
<path fill="none" stroke="midnightblue" d="M753.38,-222.23C812.06,-209.32 913.46,-187.02 1000.5,-168 1058.89,-155.24 1126.55,-140.55 1168.2,-131.52"/>
<polygon fill="midnightblue" stroke="midnightblue" points="752.3,-218.89 743.28,-224.46 753.8,-225.72 752.3,-218.89"/>
</g>
<!-- Node11&#45;&gt;Node3 -->
<g id="edge16" class="edge">
<title>Node11&#45;&gt;Node3</title>
<path fill="none" stroke="midnightblue" d="M919.05,-220.44C951.84,-206.71 1006.47,-184.49 1054.5,-168 1095.75,-153.84 1144.15,-140.07 1175.3,-131.57"/>
<polygon fill="midnightblue" stroke="midnightblue" points="917.47,-217.3 909.6,-224.41 920.18,-223.76 917.47,-217.3"/>
</g>
<!-- Node12&#45;&gt;Node3 -->
<g id="edge18" class="edge">
<title>Node12&#45;&gt;Node3</title>
<path fill="none" stroke="midnightblue" d="M264.06,-222.8C349.06,-208.77 508.68,-183.52 645.5,-168 834.42,-146.57 1060.22,-131.75 1158.15,-125.85"/>
<polygon fill="midnightblue" stroke="midnightblue" points="263.36,-219.37 254.07,-224.45 264.51,-226.27 263.36,-219.37"/>
</g>
<!-- Node13&#45;&gt;Node3 -->
<g id="edge20" class="edge">
<title>Node13&#45;&gt;Node3</title>
<path fill="none" stroke="midnightblue" d="M1048.2,-214.22C1051.98,-199.74 1059.23,-180.19 1072.5,-168 1096.06,-146.36 1130.33,-135.1 1158.45,-129.25"/>
<polygon fill="midnightblue" stroke="midnightblue" points="1044.76,-213.57 1045.95,-224.1 1051.58,-215.12 1044.76,-213.57"/>
</g>
<!-- Node14&#45;&gt;Node3 -->
<g id="edge44" class="edge">
<title>Node14&#45;&gt;Node3</title>
<path fill="none" stroke="midnightblue" d="M1872.59,-325.99C1877.36,-289.22 1881.73,-208.39 1836.5,-168 1793.63,-129.72 1397.83,-123.96 1256.98,-123.13"/>
<polygon fill="midnightblue" stroke="midnightblue" points="1869.07,-325.88 1871.09,-336.28 1876,-326.89 1869.07,-325.88"/>
</g>
<!-- Node14&#45;&gt;Node4 -->
<g id="edge47" class="edge">
<title>Node14&#45;&gt;Node4</title>
<path fill="none" stroke="midnightblue" d="M1877.34,-326.91C1885.93,-305.42 1898.5,-268.28 1898.5,-235 1898.5,-235 1898.5,-235 1898.5,-177 1898.5,-138.82 1909.75,-94.26 1914.94,-75.75"/>
<polygon fill="midnightblue" stroke="midnightblue" points="1874.02,-325.79 1873.41,-336.36 1880.48,-328.47 1874.02,-325.79"/>
</g>
<!-- Node15 -->
<g id="node15" class="node">
<title>Node15</title>
<g id="a_node15"><a xlink:href="integrator_8hpp.html" target="_top" xlink:title="ALGEBRA::Integrator source file.">
<polygon fill="none" stroke="black" points="1926.5,-168.5 1926.5,-187.5 2036.5,-187.5 2036.5,-168.5 1926.5,-168.5"/>
<text text-anchor="middle" x="1981.5" y="-175.5" font-family="Helvetica,sans-Serif" font-size="10.00">algebra/integrator.hpp</text>
</a>
</g>
</g>
<!-- Node14&#45;&gt;Node15 -->
<g id="edge22" class="edge">
<title>Node14&#45;&gt;Node15</title>
<path fill="none" stroke="midnightblue" d="M1886.51,-329.14C1894.86,-320.89 1904.77,-310.37 1912.5,-300 1941.69,-260.83 1967.78,-208.14 1977.48,-187.65"/>
<polygon fill="midnightblue" stroke="midnightblue" points="1883.87,-326.83 1879.09,-336.28 1888.72,-331.87 1883.87,-326.83"/>
</g>
<!-- Node16 -->
<g id="node16" class="node">
<title>Node16</title>
<g id="a_node16"><a xlink:href="sparsesystem_8hpp.html" target="_top" xlink:title="ALGEBRA::SparseSystem source file.">
<polygon fill="none" stroke="black" points="1001.5,-280.5 1001.5,-299.5 1131.5,-299.5 1131.5,-280.5 1001.5,-280.5"/>
<text text-anchor="middle" x="1066.5" y="-287.5" font-family="Helvetica,sans-Serif" font-size="10.00">algebra/sparsesystem.hpp</text>
</a>
</g>
</g>
<!-- Node14&#45;&gt;Node16 -->
<g id="edge24" class="edge">
<title>Node14&#45;&gt;Node16</title>
<path fill="none" stroke="midnightblue" d="M1813.88,-341.5C1669.91,-332.09 1285.92,-306.28 1131.79,-295.66"/>
<polygon fill="midnightblue" stroke="midnightblue" points="1814.03,-345.01 1824.23,-342.17 1814.48,-338.03 1814.03,-345.01"/>
</g>
<!-- Node22 -->
<g id="node22" class="node">
<title>Node22</title>
<g id="a_node22"><a xlink:href="csvwriter_8hpp.html" target="_top" xlink:title="IO::write_csv source file.">
<polygon fill="none" stroke="black" points="2004,-112.5 2004,-131.5 2089,-131.5 2089,-112.5 2004,-112.5"/>
<text text-anchor="middle" x="2046.5" y="-119.5" font-family="Helvetica,sans-Serif" font-size="10.00">io/csvwriter.hpp</text>
</a>
</g>
</g>
<!-- Node14&#45;&gt;Node22 -->
<g id="edge45" class="edge">
<title>Node14&#45;&gt;Node22</title>
<path fill="none" stroke="midnightblue" d="M1895.7,-331.58C1937.05,-308.69 2015.81,-257.72 2045.5,-188 2053.46,-169.31 2050.72,-144.77 2048.39,-131.84"/>
<polygon fill="midnightblue" stroke="midnightblue" points="1893.89,-328.58 1886.76,-336.42 1897.22,-334.74 1893.89,-328.58"/>
</g>
<!-- Node15&#45;&gt;Node4 -->
<g id="edge23" class="edge">
<title>Node15&#45;&gt;Node4</title>
<path fill="none" stroke="midnightblue" d="M1971.4,-159.64C1957.5,-135.74 1932.99,-93.63 1922.5,-75.59"/>
<polygon fill="midnightblue" stroke="midnightblue" points="1968.42,-161.49 1976.48,-168.37 1974.47,-157.96 1968.42,-161.49"/>
</g>
<!-- Node16&#45;&gt;Node2 -->
<g id="edge25" class="edge">
<title>Node16&#45;&gt;Node2</title>
<path fill="none" stroke="midnightblue" d="M1080.33,-307.36C1100.36,-331.05 1136.72,-374.05 1152.2,-392.37"/>
<polygon fill="midnightblue" stroke="midnightblue" points="1082.89,-304.97 1073.76,-299.59 1077.55,-309.49 1082.89,-304.97"/>
</g>
<!-- Node16&#45;&gt;Node7 -->
<g id="edge26" class="edge">
<title>Node16&#45;&gt;Node7</title>
<path fill="none" stroke="midnightblue" d="M1104.83,-277.44C1138.58,-267.26 1186.95,-252.66 1217.27,-243.52"/>
<polygon fill="midnightblue" stroke="midnightblue" points="1103.43,-274.2 1094.86,-280.44 1105.45,-280.91 1103.43,-274.2"/>
</g>
<!-- Node16&#45;&gt;Node8 -->
<g id="edge27" class="edge">
<title>Node16&#45;&gt;Node8</title>
<path fill="none" stroke="midnightblue" d="M1079.93,-272.59C1099.33,-248.87 1134.52,-205.87 1149.47,-187.59"/>
<polygon fill="midnightblue" stroke="midnightblue" points="1077.19,-270.41 1073.56,-280.37 1082.6,-274.85 1077.19,-270.41"/>
</g>
<!-- Node16&#45;&gt;Node9 -->
<g id="edge28" class="edge">
<title>Node16&#45;&gt;Node9</title>
<path fill="none" stroke="midnightblue" d="M1141.92,-283.94C1252.18,-276.37 1463.81,-261.11 1643.5,-244 1646.56,-243.71 1649.69,-243.4 1652.84,-243.08"/>
<polygon fill="midnightblue" stroke="midnightblue" points="1141.63,-280.46 1131.89,-284.63 1142.11,-287.44 1141.63,-280.46"/>
</g>
<!-- Node16&#45;&gt;Node10 -->
<g id="edge29" class="edge">
<title>Node16&#45;&gt;Node10</title>
<path fill="none" stroke="midnightblue" d="M998.9,-278.92C930.52,-268.71 825.95,-253.12 761.59,-243.52"/>
<polygon fill="midnightblue" stroke="midnightblue" points="998.73,-282.43 1009.14,-280.44 999.77,-275.51 998.73,-282.43"/>
</g>
<!-- Node16&#45;&gt;Node11 -->
<g id="edge30" class="edge">
<title>Node16&#45;&gt;Node11</title>
<path fill="none" stroke="midnightblue" d="M1028.6,-277.44C995.22,-267.26 947.4,-252.66 917.41,-243.52"/>
<polygon fill="midnightblue" stroke="midnightblue" points="1027.87,-280.87 1038.45,-280.44 1029.91,-274.18 1027.87,-280.87"/>
</g>
<!-- Node16&#45;&gt;Node12 -->
<g id="edge31" class="edge">
<title>Node16&#45;&gt;Node12</title>
<path fill="none" stroke="midnightblue" d="M991.06,-286.26C850.63,-280.81 539.67,-267.1 278.5,-244 275.63,-243.75 272.69,-243.47 269.73,-243.17"/>
<polygon fill="midnightblue" stroke="midnightblue" points="991.15,-289.77 1001.28,-286.65 991.42,-282.77 991.15,-289.77"/>
</g>
<!-- Node16&#45;&gt;Node13 -->
<g id="edge32" class="edge">
<title>Node16&#45;&gt;Node13</title>
<path fill="none" stroke="midnightblue" d="M1059.04,-270.69C1055.33,-261.59 1051.02,-251.01 1048.07,-243.75"/>
<polygon fill="midnightblue" stroke="midnightblue" points="1055.85,-272.14 1062.87,-280.08 1062.34,-269.5 1055.85,-272.14"/>
</g>
<!-- Node16&#45;&gt;Node14 -->
<g id="edge33" class="edge">
<title>Node16&#45;&gt;Node14</title>
<path fill="none" stroke="midnightblue" d="M1141.6,-295.78C1305.72,-306.56 1691.96,-332.55 1824.22,-341.72"/>
<polygon fill="midnightblue" stroke="midnightblue" points="1141.8,-292.28 1131.59,-295.12 1141.34,-299.27 1141.8,-292.28"/>
</g>
<!-- Node16&#45;&gt;Node17 -->
<g id="edge34" class="edge">
<title>Node16&#45;&gt;Node17</title>
<path fill="none" stroke="midnightblue" d="M991.02,-284.36C874.22,-276.99 642.66,-261.62 446.5,-244 443.58,-243.74 440.6,-243.46 437.59,-243.17"/>
<polygon fill="midnightblue" stroke="midnightblue" points="991.08,-287.87 1001.28,-285 991.52,-280.88 991.08,-287.87"/>
</g>
<!-- Node16&#45;&gt;Node18 -->
<g id="edge36" class="edge">
<title>Node16&#45;&gt;Node18</title>
<path fill="none" stroke="midnightblue" d="M991.24,-281.61C901.87,-272.8 748.29,-257.57 616.5,-244 613.7,-243.71 610.84,-243.42 607.95,-243.12"/>
<polygon fill="midnightblue" stroke="midnightblue" points="990.99,-285.1 1001.28,-282.6 991.67,-278.13 990.99,-285.1"/>
</g>
<!-- Node16&#45;&gt;Node19 -->
<g id="edge38" class="edge">
<title>Node16&#45;&gt;Node19</title>
<path fill="none" stroke="midnightblue" d="M991.09,-287.47C831.61,-283.79 448.49,-272.5 128.5,-244 125.49,-243.73 122.41,-243.43 119.31,-243.1"/>
<polygon fill="midnightblue" stroke="midnightblue" points="991.19,-290.98 1001.27,-287.71 991.35,-283.98 991.19,-290.98"/>
</g>
<!-- Node16&#45;&gt;Node20 -->
<g id="edge40" class="edge">
<title>Node16&#45;&gt;Node20</title>
<path fill="none" stroke="midnightblue" d="M1127.75,-278.73C1188.6,-268.52 1280.82,-253.06 1337.72,-243.52"/>
<polygon fill="midnightblue" stroke="midnightblue" points="1126.81,-275.34 1117.52,-280.44 1127.96,-282.24 1126.81,-275.34"/>
</g>
<!-- Node16&#45;&gt;Node21 -->
<g id="edge42" class="edge">
<title>Node16&#45;&gt;Node21</title>
<path fill="none" stroke="midnightblue" d="M1141.83,-280.98C1242.36,-270.27 1418.52,-251.51 1511.68,-241.58"/>
<polygon fill="midnightblue" stroke="midnightblue" points="1141.32,-277.51 1131.74,-282.05 1142.06,-284.47 1141.32,-277.51"/>
</g>
<!-- Node17&#45;&gt;Node3 -->
<g id="edge35" class="edge">
<title>Node17&#45;&gt;Node3</title>
<path fill="none" stroke="midnightblue" d="M423.8,-222.84C506.79,-209.28 659.57,-185 790.5,-168 923.19,-150.77 1080.23,-135.09 1158.31,-127.61"/>
<polygon fill="midnightblue" stroke="midnightblue" points="423.09,-219.41 413.79,-224.48 424.22,-226.32 423.09,-219.41"/>
</g>
<!-- Node18&#45;&gt;Node3 -->
<g id="edge37" class="edge">
<title>Node18&#45;&gt;Node3</title>
<path fill="none" stroke="midnightblue" d="M588.93,-222.66C662.62,-209.49 794.44,-186.25 907.5,-168 995.76,-153.75 1098.88,-138.61 1158.34,-130.03"/>
<polygon fill="midnightblue" stroke="midnightblue" points="588.15,-219.25 578.93,-224.45 589.39,-226.14 588.15,-219.25"/>
</g>
<!-- Node19&#45;&gt;Node3 -->
<g id="edge39" class="edge">
<title>Node19&#45;&gt;Node3</title>
<path fill="none" stroke="midnightblue" d="M117.42,-222.76C200.75,-208.4 359.43,-182.42 495.5,-168 743.68,-141.71 1042.29,-128.92 1158.18,-124.67"/>
<polygon fill="midnightblue" stroke="midnightblue" points="116.65,-219.34 107.39,-224.5 117.85,-226.24 116.65,-219.34"/>
</g>
<!-- Node20&#45;&gt;Node3 -->
<g id="edge41" class="edge">
<title>Node20&#45;&gt;Node3</title>
<path fill="none" stroke="midnightblue" d="M1365.48,-219.01C1327.48,-195.92 1252.77,-150.51 1221.64,-131.59"/>
<polygon fill="midnightblue" stroke="midnightblue" points="1363.93,-222.17 1374.3,-224.37 1367.57,-216.18 1363.93,-222.17"/>
</g>
<!-- Node21&#45;&gt;Node3 -->
<g id="edge43" class="edge">
<title>Node21&#45;&gt;Node3</title>
<path fill="none" stroke="midnightblue" d="M1559.29,-216.44C1545.22,-201.23 1522.26,-179.38 1497.5,-168 1418.57,-131.73 1316.14,-123.81 1256.52,-122.57"/>
<polygon fill="midnightblue" stroke="midnightblue" points="1556.87,-218.98 1566.14,-224.1 1562.08,-214.32 1556.87,-218.98"/>
</g>
<!-- Node22&#45;&gt;Node4 -->
<g id="edge46" class="edge">
<title>Node22&#45;&gt;Node4</title>
<path fill="none" stroke="midnightblue" d="M2016.65,-108.5C1992.46,-98.38 1959.04,-84.39 1937.84,-75.52"/>
<polygon fill="midnightblue" stroke="midnightblue" points="2015.48,-111.81 2026.06,-112.44 2018.19,-105.35 2015.48,-111.81"/>
</g>
<!-- Node23&#45;&gt;Node2 -->
<g id="edge56" class="edge">
<title>Node23&#45;&gt;Node2</title>
<path fill="none" stroke="midnightblue" d="M1586.9,-451.08C1491.43,-440.34 1291.39,-417.84 1203.04,-407.9"/>
<polygon fill="midnightblue" stroke="midnightblue" points="1586.57,-454.57 1596.9,-452.21 1587.36,-447.61 1586.57,-454.57"/>
</g>
<!-- Node23&#45;&gt;Node3 -->
<g id="edge55" class="edge">
<title>Node23&#45;&gt;Node3</title>
<path fill="none" stroke="midnightblue" d="M1662.91,-442.96C1721.46,-406.14 1865.16,-304.08 1802.5,-224 1735.59,-138.49 1387.05,-125.24 1256.73,-123.29"/>
<polygon fill="midnightblue" stroke="midnightblue" points="1660.95,-440.06 1654.29,-448.3 1664.64,-446.01 1660.95,-440.06"/>
</g>
<!-- Node23&#45;&gt;Node14 -->
<g id="edge57" class="edge">
<title>Node23&#45;&gt;Node14</title>
<path fill="none" stroke="midnightblue" d="M1692.36,-451.07C1727.81,-445.25 1774.43,-433.89 1810.5,-412 1834.73,-397.29 1854.9,-369.64 1864.11,-355.62"/>
<polygon fill="midnightblue" stroke="midnightblue" points="1691.55,-447.65 1682.2,-452.64 1692.62,-454.57 1691.55,-447.65"/>
</g>
<!-- Node24&#45;&gt;Node12 -->
<g id="edge59" class="edge">
<title>Node24&#45;&gt;Node12</title>
<path fill="none" stroke="midnightblue" d="M327.67,-277.17C297.73,-267 255.28,-252.59 228.58,-243.52"/>
<polygon fill="midnightblue" stroke="midnightblue" points="326.71,-280.54 337.31,-280.44 328.96,-273.91 326.71,-280.54"/>
</g>
<!-- Node24&#45;&gt;Node17 -->
<g id="edge60" class="edge">
<title>Node24&#45;&gt;Node17</title>
<path fill="none" stroke="midnightblue" d="M362.5,-269.8C362.5,-260.91 362.5,-250.78 362.5,-243.75"/>
<polygon fill="midnightblue" stroke="midnightblue" points="359,-270.08 362.5,-280.08 366,-270.08 359,-270.08"/>
</g>
<!-- Node24&#45;&gt;Node18 -->
<g id="edge61" class="edge">
<title>Node24&#45;&gt;Node18</title>
<path fill="none" stroke="midnightblue" d="M399.1,-277.3C430.95,-267.13 476.34,-252.62 504.85,-243.52"/>
<polygon fill="midnightblue" stroke="midnightblue" points="397.74,-274.07 389.28,-280.44 399.87,-280.73 397.74,-274.07"/>
</g>
<!-- Node24&#45;&gt;Node19 -->
<g id="edge62" class="edge">
<title>Node24&#45;&gt;Node19</title>
<path fill="none" stroke="midnightblue" d="M304.5,-278.66C247.24,-268.46 160.72,-253.04 107.29,-243.52"/>
<polygon fill="midnightblue" stroke="midnightblue" points="304.03,-282.13 314.49,-280.44 305.26,-275.24 304.03,-282.13"/>
</g>
</g>
</svg>
