<?xml version="1.0" encoding="UTF-8" standalone="no"?>
<!DOCTYPE svg PUBLIC "-//W3C//DTD SVG 1.1//EN"
 "http://www.w3.org/Graphics/SVG/1.1/DTD/svg11.dtd">
<!-- Generated by graphviz version 3.0.0 (20220413.0242)
 -->
<!-- Title: model/dofhandler.hpp Pages: 1 -->
<svg width="817pt" height="476pt"
 viewBox="0.00 0.00 817.00 476.00" xmlns="http://www.w3.org/2000/svg" xmlns:xlink="http://www.w3.org/1999/xlink">
<g id="graph0" class="graph" transform="scale(1 1) rotate(0) translate(4 472)">
<title>model/dofhandler.hpp</title>
<!-- Node1 -->
<g id="node1" class="node">
<title>Node1</title>
<g id="a_node1"><a xlink:title="MODEL::DOFHandler source file.">
<polygon fill="#bfbfbf" stroke="black" points="421.5,-448.5 421.5,-467.5 530.5,-467.5 530.5,-448.5 421.5,-448.5"/>
<text text-anchor="middle" x="476" y="-455.5" font-family="Helvetica,sans-Serif" font-size="10.00">model/dofhandler.hpp</text>
</a>
</g>
</g>
<!-- Node2 -->
<g id="node2" class="node">
<title>Node2</title>
<g id="a_node2"><a xlink:href="block_8hpp.html" target="_top" xlink:title="MODEL::Block source file.">
<polygon fill="none" stroke="black" points="468.5,-336.5 468.5,-355.5 555.5,-355.5 555.5,-336.5 468.5,-336.5"/>
<text text-anchor="middle" x="512" y="-343.5" font-family="Helvetica,sans-Serif" font-size="10.00">model/block.hpp</text>
</a>
</g>
</g>
<!-- Node1&#45;&gt;Node2 -->
<g id="edge1" class="edge">
<title>Node1&#45;&gt;Node2</title>
<path fill="none" stroke="midnightblue" d="M483.22,-438.86C486.37,-430.7 490.02,-420.92 493,-412 499.64,-392.15 506.23,-368.48 509.63,-355.9"/>
<polygon fill="midnightblue" stroke="midnightblue" points="479.85,-437.86 479.46,-448.44 486.37,-440.41 479.85,-437.86"/>
</g>
<!-- Node4 -->
<g id="node4" class="node">
<title>Node4</title>
<g id="a_node4"><a xlink:href="model_8hpp.html" target="_top" xlink:title="MODEL::Model source file.">
<polygon fill="none" stroke="black" points="276,-224.5 276,-243.5 366,-243.5 366,-224.5 276,-224.5"/>
<text text-anchor="middle" x="321" y="-231.5" font-family="Helvetica,sans-Serif" font-size="10.00">model/model.hpp</text>
</a>
</g>
</g>
<!-- Node1&#45;&gt;Node4 -->
<g id="edge28" class="edge">
<title>Node1&#45;&gt;Node4</title>
<path fill="none" stroke="midnightblue" d="M441.38,-444.43C424.39,-436.97 404.51,-426.17 390,-412 349.3,-372.24 345.16,-354.25 328,-300 321.84,-280.52 320.88,-256.3 320.86,-243.63"/>
<polygon fill="midnightblue" stroke="midnightblue" points="440.41,-447.81 450.99,-448.43 443.11,-441.35 440.41,-447.81"/>
</g>
<!-- Node14 -->
<g id="node14" class="node">
<title>Node14</title>
<g id="a_node14"><a xlink:href="node_8hpp.html" target="_top" xlink:title="MODEL::Node source file.">
<polygon fill="none" stroke="black" points="398.5,-392.5 398.5,-411.5 483.5,-411.5 483.5,-392.5 398.5,-392.5"/>
<text text-anchor="middle" x="441" y="-399.5" font-family="Helvetica,sans-Serif" font-size="10.00">model/node.hpp</text>
</a>
</g>
</g>
<!-- Node1&#45;&gt;Node14 -->
<g id="edge29" class="edge">
<title>Node1&#45;&gt;Node14</title>
<path fill="none" stroke="midnightblue" d="M464.7,-439.57C458.68,-430.27 451.53,-419.25 446.67,-411.75"/>
<polygon fill="midnightblue" stroke="midnightblue" points="461.84,-441.6 470.22,-448.08 467.72,-437.79 461.84,-441.6"/>
</g>
<!-- Node15 -->
<g id="node15" class="node">
<title>Node15</title>
<g id="a_node15"><a xlink:href="timedependentparameter_8hpp.html" target="_top" xlink:title="MODEL::TimeDependentParameter source file.">
<polygon fill="none" stroke="black" points="627.5,-336.5 627.5,-355.5 798.5,-355.5 798.5,-336.5 627.5,-336.5"/>
<text text-anchor="middle" x="713" y="-343.5" font-family="Helvetica,sans-Serif" font-size="10.00">model/timedependentparameter.hpp</text>
</a>
</g>
</g>
<!-- Node1&#45;&gt;Node15 -->
<g id="edge32" class="edge">
<title>Node1&#45;&gt;Node15</title>
<path fill="none" stroke="midnightblue" d="M503.96,-444.02C552.98,-421.27 653.12,-374.79 694.49,-355.59"/>
<polygon fill="midnightblue" stroke="midnightblue" points="502.19,-440.98 494.6,-448.37 505.14,-447.33 502.19,-440.98"/>
</g>
<!-- Node3 -->
<g id="node3" class="node">
<title>Node3</title>
<g id="a_node3"><a xlink:href="bloodvessel_8hpp.html" target="_top" xlink:title="MODEL::BloodVessel source file.">
<polygon fill="none" stroke="black" points="349,-280.5 349,-299.5 465,-299.5 465,-280.5 349,-280.5"/>
<text text-anchor="middle" x="407" y="-287.5" font-family="Helvetica,sans-Serif" font-size="10.00">model/bloodvessel.hpp</text>
</a>
</g>
</g>
<!-- Node2&#45;&gt;Node3 -->
<g id="edge2" class="edge">
<title>Node2&#45;&gt;Node3</title>
<path fill="none" stroke="midnightblue" d="M486.19,-331.73C466.75,-321.73 440.65,-308.31 423.83,-299.65"/>
<polygon fill="midnightblue" stroke="midnightblue" points="484.64,-334.86 495.13,-336.32 487.84,-328.64 484.64,-334.86"/>
</g>
<!-- Node8 -->
<g id="node8" class="node">
<title>Node8</title>
<g id="a_node8"><a xlink:href="flowreference_8hpp.html" target="_top" xlink:title="MODEL::FlowReference source file.">
<polygon fill="none" stroke="black" points="687,-112.5 687,-131.5 809,-131.5 809,-112.5 687,-112.5"/>
<text text-anchor="middle" x="748" y="-119.5" font-family="Helvetica,sans-Serif" font-size="10.00">model/flowreference.hpp</text>
</a>
</g>
</g>
<!-- Node2&#45;&gt;Node8 -->
<g id="edge25" class="edge">
<title>Node2&#45;&gt;Node8</title>
<path fill="none" stroke="midnightblue" d="M531.12,-330.04C541.86,-321.47 555.39,-310.39 567,-300 636.11,-238.16 714.26,-158.02 739.59,-131.75"/>
<polygon fill="midnightblue" stroke="midnightblue" points="528.86,-327.36 523.2,-336.32 533.21,-332.85 528.86,-327.36"/>
</g>
<!-- Node9 -->
<g id="node9" class="node">
<title>Node9</title>
<g id="a_node9"><a xlink:href="junction_8hpp.html" target="_top" xlink:title="MODEL::Junction source file.">
<polygon fill="none" stroke="black" points="339,-112.5 339,-131.5 437,-131.5 437,-112.5 339,-112.5"/>
<text text-anchor="middle" x="388" y="-119.5" font-family="Helvetica,sans-Serif" font-size="10.00">model/junction.hpp</text>
</a>
</g>
</g>
<!-- Node2&#45;&gt;Node9 -->
<g id="edge26" class="edge">
<title>Node2&#45;&gt;Node9</title>
<path fill="none" stroke="midnightblue" d="M502.19,-327.44C477.15,-282.61 411.53,-165.13 392.96,-131.88"/>
<polygon fill="midnightblue" stroke="midnightblue" points="499.21,-329.27 507.14,-336.3 505.32,-325.86 499.21,-329.27"/>
</g>
<!-- Node11 -->
<g id="node11" class="node">
<title>Node11</title>
<g id="a_node11"><a xlink:href="rcrblockwithdistalpressure_8hpp.html" target="_top" xlink:title="MODEL::RCRBlockWithDistalPressure source file.">
<polygon fill="none" stroke="black" points="454.5,-112.5 454.5,-131.5 631.5,-131.5 631.5,-112.5 454.5,-112.5"/>
<text text-anchor="middle" x="543" y="-119.5" font-family="Helvetica,sans-Serif" font-size="10.00">model/rcrblockwithdistalpressure.hpp</text>
</a>
</g>
</g>
<!-- Node2&#45;&gt;Node11 -->
<g id="edge27" class="edge">
<title>Node2&#45;&gt;Node11</title>
<path fill="none" stroke="midnightblue" d="M525.93,-328.5C547.85,-301.33 589.52,-244.52 605,-188 607.35,-179.43 609.04,-175.92 605,-168 596.3,-150.94 577.77,-138.83 563.22,-131.51"/>
<polygon fill="midnightblue" stroke="midnightblue" points="523.21,-326.3 519.56,-336.25 528.61,-330.75 523.21,-326.3"/>
</g>
<!-- Node3&#45;&gt;Node4 -->
<g id="edge3" class="edge">
<title>Node3&#45;&gt;Node4</title>
<path fill="none" stroke="midnightblue" d="M384.55,-274.9C368.78,-265 348.19,-252.07 334.78,-243.65"/>
<polygon fill="midnightblue" stroke="midnightblue" points="382.85,-277.97 393.18,-280.32 386.57,-272.04 382.85,-277.97"/>
</g>
<!-- Node5 -->
<g id="node5" class="node">
<title>Node5</title>
<g id="a_node5"><a xlink:href="integrator_8hpp.html" target="_top" xlink:title="ALGEBRA::Integrator source file.">
<polygon fill="none" stroke="black" points="0,-56.5 0,-75.5 110,-75.5 110,-56.5 0,-56.5"/>
<text text-anchor="middle" x="55" y="-63.5" font-family="Helvetica,sans-Serif" font-size="10.00">algebra/integrator.hpp</text>
</a>
</g>
</g>
<!-- Node4&#45;&gt;Node5 -->
<g id="edge4" class="edge">
<title>Node4&#45;&gt;Node5</title>
<path fill="none" stroke="midnightblue" d="M265.57,-229.16C204.45,-223.78 111.39,-211.87 86,-188 53.45,-157.4 53.21,-97.7 54.36,-75.54"/>
<polygon fill="midnightblue" stroke="midnightblue" points="265.58,-232.67 275.84,-230.02 266.17,-225.69 265.58,-232.67"/>
</g>
<!-- Node6 -->
<g id="node6" class="node">
<title>Node6</title>
<g id="a_node6"><a xlink:href="main_8cpp.html" target="_top" xlink:title="Main routine of svZeroDSolver.">
<polygon fill="none" stroke="black" points="218,-0.5 218,-19.5 274,-19.5 274,-0.5 218,-0.5"/>
<text text-anchor="middle" x="246" y="-7.5" font-family="Helvetica,sans-Serif" font-size="10.00">main.cpp</text>
</a>
</g>
</g>
<!-- Node4&#45;&gt;Node6 -->
<g id="edge24" class="edge">
<title>Node4&#45;&gt;Node6</title>
<path fill="none" stroke="midnightblue" d="M314.9,-214.28C304.32,-181.94 281.81,-113.53 262,-56 257.63,-43.3 252.38,-28.65 249.12,-19.61"/>
<polygon fill="midnightblue" stroke="midnightblue" points="311.68,-215.72 318.12,-224.14 318.34,-213.55 311.68,-215.72"/>
</g>
<!-- Node7 -->
<g id="node7" class="node">
<title>Node7</title>
<g id="a_node7"><a xlink:href="sparsesystem_8hpp.html" target="_top" xlink:title="ALGEBRA::SparseSystem source file.">
<polygon fill="none" stroke="black" points="466,-168.5 466,-187.5 596,-187.5 596,-168.5 466,-168.5"/>
<text text-anchor="middle" x="531" y="-175.5" font-family="Helvetica,sans-Serif" font-size="10.00">algebra/sparsesystem.hpp</text>
</a>
</g>
</g>
<!-- Node4&#45;&gt;Node7 -->
<g id="edge6" class="edge">
<title>Node4&#45;&gt;Node7</title>
<path fill="none" stroke="midnightblue" d="M358.85,-221.83C396.8,-211.63 454.73,-196.78 492.8,-187.52"/>
<polygon fill="midnightblue" stroke="midnightblue" points="357.93,-218.45 349.19,-224.44 359.75,-225.21 357.93,-218.45"/>
</g>
<!-- Node10 -->
<g id="node10" class="node">
<title>Node10</title>
<g id="a_node10"><a xlink:href="configreader_8hpp.html" target="_top" xlink:title="IO::ConfigReader source file.">
<polygon fill="none" stroke="black" points="310,-56.5 310,-75.5 408,-75.5 408,-56.5 310,-56.5"/>
<text text-anchor="middle" x="359" y="-63.5" font-family="Helvetica,sans-Serif" font-size="10.00">io/configreader.hpp</text>
</a>
</g>
</g>
<!-- Node4&#45;&gt;Node10 -->
<g id="edge19" class="edge">
<title>Node4&#45;&gt;Node10</title>
<path fill="none" stroke="midnightblue" d="M319.58,-214.21C318.38,-189.92 318.39,-146.66 330,-112 334.67,-98.08 344.62,-84.2 351.56,-75.61"/>
<polygon fill="midnightblue" stroke="midnightblue" points="316.09,-214.44 320.2,-224.2 323.08,-214.01 316.09,-214.44"/>
</g>
<!-- Node12 -->
<g id="node12" class="node">
<title>Node12</title>
<g id="a_node12"><a xlink:href="csvwriter_8hpp.html" target="_top" xlink:title="IO::write_csv source file.">
<polygon fill="none" stroke="black" points="95.5,-168.5 95.5,-187.5 180.5,-187.5 180.5,-168.5 95.5,-168.5"/>
<text text-anchor="middle" x="138" y="-175.5" font-family="Helvetica,sans-Serif" font-size="10.00">io/csvwriter.hpp</text>
</a>
</g>
</g>
<!-- Node4&#45;&gt;Node12 -->
<g id="edge20" class="edge">
<title>Node4&#45;&gt;Node12</title>
<path fill="none" stroke="midnightblue" d="M282.26,-221.57C247.74,-211.38 197.99,-196.7 166.86,-187.52"/>
<polygon fill="midnightblue" stroke="midnightblue" points="281.42,-224.97 292,-224.44 283.4,-218.26 281.42,-224.97"/>
</g>
<!-- Node13 -->
<g id="node13" class="node">
<title>Node13</title>
<g id="a_node13"><a xlink:href="jsonwriter_8hpp.html" target="_top" xlink:title="IO::write_json source file.">
<polygon fill="none" stroke="black" points="166.5,-56.5 166.5,-75.5 253.5,-75.5 253.5,-56.5 166.5,-56.5"/>
<text text-anchor="middle" x="210" y="-63.5" font-family="Helvetica,sans-Serif" font-size="10.00">io/jsonwriter.hpp</text>
</a>
</g>
</g>
<!-- Node4&#45;&gt;Node13 -->
<g id="edge22" class="edge">
<title>Node4&#45;&gt;Node13</title>
<path fill="none" stroke="midnightblue" d="M295.89,-219.33C283.43,-211.51 268.96,-200.73 259,-188 230.65,-151.76 216.45,-96.91 211.79,-75.75"/>
<polygon fill="midnightblue" stroke="midnightblue" points="294.13,-222.36 304.51,-224.48 297.72,-216.35 294.13,-222.36"/>
</g>
<!-- Node5&#45;&gt;Node6 -->
<g id="edge5" class="edge">
<title>Node5&#45;&gt;Node6</title>
<path fill="none" stroke="midnightblue" d="M95.15,-53.65C131.89,-43.26 185.32,-28.16 217.75,-18.99"/>
<polygon fill="midnightblue" stroke="midnightblue" points="93.94,-50.35 85.26,-56.44 95.84,-57.09 93.94,-50.35"/>
</g>
<!-- Node7&#45;&gt;Node2 -->
<g id="edge8" class="edge">
<title>Node7&#45;&gt;Node2</title>
<path fill="none" stroke="midnightblue" d="M528.87,-197.58C524.8,-233.21 516.01,-309.95 513.02,-336.08"/>
<polygon fill="midnightblue" stroke="midnightblue" points="532.36,-197.9 530.02,-187.57 525.4,-197.11 532.36,-197.9"/>
</g>
<!-- Node7&#45;&gt;Node3 -->
<g id="edge9" class="edge">
<title>Node7&#45;&gt;Node3</title>
<path fill="none" stroke="midnightblue" d="M513.6,-194.44C487.13,-217.91 437.65,-261.81 416.73,-280.37"/>
<polygon fill="midnightblue" stroke="midnightblue" points="516.16,-196.85 521.32,-187.59 511.51,-191.61 516.16,-196.85"/>
</g>
<!-- Node7&#45;&gt;Node4 -->
<g id="edge16" class="edge">
<title>Node7&#45;&gt;Node4</title>
<path fill="none" stroke="midnightblue" d="M492.83,-190.26C454.93,-200.44 397.33,-215.2 359.36,-224.44"/>
<polygon fill="midnightblue" stroke="midnightblue" points="494.22,-193.51 502.96,-187.52 492.39,-186.75 494.22,-193.51"/>
</g>
<!-- Node7&#45;&gt;Node6 -->
<g id="edge7" class="edge">
<title>Node7&#45;&gt;Node6</title>
<path fill="none" stroke="midnightblue" d="M584.12,-165.86C621.33,-155.55 661.11,-137.89 641,-112 595.2,-53.02 356.56,-22.65 274.08,-13.8"/>
<polygon fill="midnightblue" stroke="midnightblue" points="583.04,-162.52 574.25,-168.44 584.81,-169.29 583.04,-162.52"/>
</g>
<!-- Node7&#45;&gt;Node8 -->
<g id="edge10" class="edge">
<title>Node7&#45;&gt;Node8</title>
<path fill="none" stroke="midnightblue" d="M575.11,-166.02C616.1,-155.82 676.3,-140.84 713.78,-131.52"/>
<polygon fill="midnightblue" stroke="midnightblue" points="574.24,-162.63 565.38,-168.44 575.93,-169.43 574.24,-162.63"/>
</g>
<!-- Node7&#45;&gt;Node9 -->
<g id="edge12" class="edge">
<title>Node7&#45;&gt;Node9</title>
<path fill="none" stroke="midnightblue" d="M498.97,-164.91C472.09,-154.75 434.36,-140.51 410.55,-131.52"/>
<polygon fill="midnightblue" stroke="midnightblue" points="497.75,-168.19 508.34,-168.44 500.22,-161.64 497.75,-168.19"/>
</g>
<!-- Node7&#45;&gt;Node11 -->
<g id="edge17" class="edge">
<title>Node7&#45;&gt;Node11</title>
<path fill="none" stroke="midnightblue" d="M535.2,-158.1C537.19,-149.14 539.48,-138.86 541.06,-131.75"/>
<polygon fill="midnightblue" stroke="midnightblue" points="531.73,-157.56 532.98,-168.08 538.57,-159.08 531.73,-157.56"/>
</g>
<!-- Node8&#45;&gt;Node4 -->
<g id="edge11" class="edge">
<title>Node8&#45;&gt;Node4</title>
<path fill="none" stroke="midnightblue" d="M723.67,-136.52C695.83,-151.4 648.45,-174.94 605,-188 522.77,-212.71 422.83,-224.53 366.1,-229.63"/>
<polygon fill="midnightblue" stroke="midnightblue" points="725.54,-139.49 732.67,-131.65 722.21,-133.33 725.54,-139.49"/>
</g>
<!-- Node9&#45;&gt;Node4 -->
<g id="edge15" class="edge">
<title>Node9&#45;&gt;Node4</title>
<path fill="none" stroke="midnightblue" d="M377.46,-140.31C362.92,-164.18 337.27,-206.3 326.26,-224.37"/>
<polygon fill="midnightblue" stroke="midnightblue" points="380.55,-141.95 382.77,-131.59 374.58,-138.31 380.55,-141.95"/>
</g>
<!-- Node9&#45;&gt;Node10 -->
<g id="edge13" class="edge">
<title>Node9&#45;&gt;Node10</title>
<path fill="none" stroke="midnightblue" d="M378.32,-102.98C373.4,-93.82 367.64,-83.09 363.7,-75.75"/>
<polygon fill="midnightblue" stroke="midnightblue" points="375.4,-104.93 383.21,-112.08 381.56,-101.62 375.4,-104.93"/>
</g>
<!-- Node10&#45;&gt;Node6 -->
<g id="edge14" class="edge">
<title>Node10&#45;&gt;Node6</title>
<path fill="none" stroke="midnightblue" d="M332,-52.1C310.89,-42.01 282.14,-28.27 263.82,-19.52"/>
<polygon fill="midnightblue" stroke="midnightblue" points="330.56,-55.29 341.09,-56.44 333.58,-48.97 330.56,-55.29"/>
</g>
<!-- Node11&#45;&gt;Node4 -->
<g id="edge18" class="edge">
<title>Node11&#45;&gt;Node4</title>
<path fill="none" stroke="midnightblue" d="M516.61,-136.07C470.66,-158.84 377.16,-205.17 338.42,-224.37"/>
<polygon fill="midnightblue" stroke="midnightblue" points="518.25,-139.17 525.66,-131.59 515.15,-132.9 518.25,-139.17"/>
</g>
<!-- Node12&#45;&gt;Node6 -->
<g id="edge21" class="edge">
<title>Node12&#45;&gt;Node6</title>
<path fill="none" stroke="midnightblue" d="M135.98,-158.2C134.25,-132.58 134.86,-86.41 157,-56 171.57,-35.98 197.63,-24.29 217.8,-17.86"/>
<polygon fill="midnightblue" stroke="midnightblue" points="132.51,-158.74 136.87,-168.39 139.49,-158.12 132.51,-158.74"/>
</g>
<!-- Node13&#45;&gt;Node6 -->
<g id="edge23" class="edge">
<title>Node13&#45;&gt;Node6</title>
<path fill="none" stroke="midnightblue" d="M221.62,-47.57C227.82,-38.27 235.17,-27.25 240.17,-19.75"/>
<polygon fill="midnightblue" stroke="midnightblue" points="218.58,-45.82 215.94,-56.08 224.4,-49.7 218.58,-45.82"/>
</g>
<!-- Node14&#45;&gt;Node2 -->
<g id="edge30" class="edge">
<title>Node14&#45;&gt;Node2</title>
<path fill="none" stroke="midnightblue" d="M460.59,-386.1C473.37,-376.38 489.61,-364.03 500.39,-355.83"/>
<polygon fill="midnightblue" stroke="midnightblue" points="458.25,-383.48 452.41,-392.32 462.49,-389.06 458.25,-383.48"/>
</g>
<!-- Node14&#45;&gt;Node4 -->
<g id="edge31" class="edge">
<title>Node14&#45;&gt;Node4</title>
<path fill="none" stroke="midnightblue" d="M421.12,-386.26C398.31,-368.32 361.3,-335.94 340,-300 329.09,-281.59 324.09,-256.5 322.11,-243.54"/>
<polygon fill="midnightblue" stroke="midnightblue" points="419.05,-389.08 429.11,-392.4 423.32,-383.53 419.05,-389.08"/>
</g>
<!-- Node15&#45;&gt;Node8 -->
<g id="edge33" class="edge">
<title>Node15&#45;&gt;Node8</title>
<path fill="none" stroke="midnightblue" d="M715.95,-326.3C723.15,-280.64 741.4,-164.85 746.6,-131.88"/>
<polygon fill="midnightblue" stroke="midnightblue" points="712.47,-325.87 714.37,-336.3 719.39,-326.96 712.47,-325.87"/>
</g>
</g>
</svg>
