<?xml version="1.0" encoding="UTF-8" standalone="no"?>
<!DOCTYPE svg PUBLIC "-//W3C//DTD SVG 1.1//EN"
 "http://www.w3.org/Graphics/SVG/1.1/DTD/svg11.dtd">
<!-- Generated by graphviz version 3.0.0 (20221109.1736)
 -->
<!-- Title: model/dofhandler.hpp Pages: 1 -->
<svg width="2051pt" height="532pt"
 viewBox="0.00 0.00 2051.43 532.00" xmlns="http://www.w3.org/2000/svg" xmlns:xlink="http://www.w3.org/1999/xlink">
<g id="graph0" class="graph" transform="scale(1 1) rotate(0) translate(4 528)">
<title>model/dofhandler.hpp</title>
<!-- Node1 -->
<g id="node1" class="node">
<title>Node1</title>
<g id="a_node1"><a xlink:title="MODEL::DOFHandler source file.">
<polygon fill="#bfbfbf" stroke="black" points="948,-504.5 948,-523.5 1057,-523.5 1057,-504.5 948,-504.5"/>
<text text-anchor="middle" x="1002.5" y="-511.5" font-family="Helvetica,sans-Serif" font-size="10.00">model/dofhandler.hpp</text>
</a>
</g>
</g>
<!-- Node2 -->
<g id="node2" class="node">
<title>Node2</title>
<g id="a_node2"><a xlink:href="block_8hpp.html" target="_top" xlink:title="MODEL::Block source file.">
<polygon fill="none" stroke="black" points="960,-392.5 960,-411.5 1047,-411.5 1047,-392.5 960,-392.5"/>
<text text-anchor="middle" x="1003.5" y="-399.5" font-family="Helvetica,sans-Serif" font-size="10.00">model/block.hpp</text>
</a>
</g>
</g>
<!-- Node1&#45;&gt;Node2 -->
<g id="edge1" class="edge">
<title>Node1&#45;&gt;Node2</title>
<path fill="none" stroke="midnightblue" d="M1010.56,-494.83C1013.71,-486.78 1016.93,-477.09 1018.5,-468 1022,-447.69 1013.38,-424.2 1007.8,-411.77"/>
<polygon fill="midnightblue" stroke="midnightblue" points="1007.24,-493.7 1006.61,-504.28 1013.69,-496.4 1007.24,-493.7"/>
</g>
<!-- Node14 -->
<g id="node14" class="node">
<title>Node14</title>
<g id="a_node14"><a xlink:href="model_8hpp.html" target="_top" xlink:title="MODEL::Model source file.">
<polygon fill="none" stroke="black" points="388.5,-336.5 388.5,-355.5 478.5,-355.5 478.5,-336.5 388.5,-336.5"/>
<text text-anchor="middle" x="433.5" y="-343.5" font-family="Helvetica,sans-Serif" font-size="10.00">model/model.hpp</text>
</a>
</g>
</g>
<!-- Node1&#45;&gt;Node14 -->
<g id="edge52" class="edge">
<title>Node1&#45;&gt;Node14</title>
<path fill="none" stroke="midnightblue" d="M963.3,-501.56C855.68,-470.17 557.37,-383.14 462.72,-355.52"/>
<polygon fill="midnightblue" stroke="midnightblue" points="962.53,-504.98 973.11,-504.42 964.49,-498.26 962.53,-504.98"/>
</g>
<!-- Node23 -->
<g id="node23" class="node">
<title>Node23</title>
<g id="a_node23"><a xlink:href="node_8hpp.html" target="_top" xlink:title="MODEL::Node source file.">
<polygon fill="none" stroke="black" points="925,-448.5 925,-467.5 1010,-467.5 1010,-448.5 925,-448.5"/>
<text text-anchor="middle" x="967.5" y="-455.5" font-family="Helvetica,sans-Serif" font-size="10.00">model/node.hpp</text>
</a>
</g>
</g>
<!-- Node1&#45;&gt;Node23 -->
<g id="edge53" class="edge">
<title>Node1&#45;&gt;Node23</title>
<path fill="none" stroke="midnightblue" d="M991.2,-495.57C985.18,-486.27 978.03,-475.25 973.17,-467.75"/>
<polygon fill="midnightblue" stroke="midnightblue" points="988.34,-497.6 996.72,-504.08 994.22,-493.79 988.34,-497.6"/>
</g>
<!-- Node24 -->
<g id="node24" class="node">
<title>Node24</title>
<g id="a_node24"><a xlink:href="timedependentparameter_8hpp.html" target="_top" xlink:title="MODEL::TimeDependentParameter source file.">
<polygon fill="none" stroke="black" points="1606,-280.5 1606,-299.5 1777,-299.5 1777,-280.5 1606,-280.5"/>
<text text-anchor="middle" x="1691.5" y="-287.5" font-family="Helvetica,sans-Serif" font-size="10.00">model/timedependentparameter.hpp</text>
</a>
</g>
</g>
<!-- Node1&#45;&gt;Node24 -->
<g id="edge57" class="edge">
<title>Node1&#45;&gt;Node24</title>
<path fill="none" stroke="midnightblue" d="M1038.76,-501.32C1161.33,-461.82 1558.45,-333.87 1664.99,-299.54"/>
<polygon fill="midnightblue" stroke="midnightblue" points="1037.53,-498.04 1029.09,-504.43 1039.68,-504.7 1037.53,-498.04"/>
</g>
<!-- Node3 -->
<g id="node3" class="node">
<title>Node3</title>
<g id="a_node3"><a xlink:href="bloodvessel_8hpp.html" target="_top" xlink:title="MODEL::BloodVessel source file.">
<polygon fill="none" stroke="black" points="648.5,-224.5 648.5,-243.5 764.5,-243.5 764.5,-224.5 648.5,-224.5"/>
<text text-anchor="middle" x="706.5" y="-231.5" font-family="Helvetica,sans-Serif" font-size="10.00">model/bloodvessel.hpp</text>
</a>
</g>
</g>
<!-- Node2&#45;&gt;Node3 -->
<g id="edge2" class="edge">
<title>Node2&#45;&gt;Node3</title>
<path fill="none" stroke="midnightblue" d="M970.71,-388.69C949.43,-380.31 921.34,-368.51 897.5,-356 826.93,-318.99 748.18,-264.59 718.6,-243.65"/>
<polygon fill="midnightblue" stroke="midnightblue" points="969.67,-392.04 980.26,-392.4 972.2,-385.51 969.67,-392.04"/>
</g>
<!-- Node8 -->
<g id="node8" class="node">
<title>Node8</title>
<g id="a_node8"><a xlink:href="bloodvesseljunction_8hpp.html" target="_top" xlink:title="MODEL::BloodVesselJunction source file.">
<polygon fill="none" stroke="black" points="607,-168.5 607,-187.5 756,-187.5 756,-168.5 607,-168.5"/>
<text text-anchor="middle" x="681.5" y="-175.5" font-family="Helvetica,sans-Serif" font-size="10.00">model/bloodvesseljunction.hpp</text>
</a>
</g>
</g>
<!-- Node2&#45;&gt;Node8 -->
<g id="edge9" class="edge">
<title>Node2&#45;&gt;Node8</title>
<path fill="none" stroke="midnightblue" d="M949.99,-396.94C864.62,-387.21 700.24,-354.35 631.5,-244 618.18,-222.61 647.18,-199.73 666.35,-187.64"/>
<polygon fill="midnightblue" stroke="midnightblue" points="949.68,-400.43 960,-398.02 950.43,-393.47 949.68,-400.43"/>
</g>
<!-- Node9 -->
<g id="node9" class="node">
<title>Node9</title>
<g id="a_node9"><a xlink:href="closedloop_r_c_rbc_8hpp.html" target="_top" xlink:title="MODEL::ClosedLoopRCRBC source file.">
<polygon fill="none" stroke="black" points="1076,-224.5 1076,-243.5 1217,-243.5 1217,-224.5 1076,-224.5"/>
<text text-anchor="middle" x="1146.5" y="-231.5" font-family="Helvetica,sans-Serif" font-size="10.00">model/closedloopRCRbc.hpp</text>
</a>
</g>
</g>
<!-- Node2&#45;&gt;Node9 -->
<g id="edge10" class="edge">
<title>Node2&#45;&gt;Node9</title>
<path fill="none" stroke="midnightblue" d="M1017.96,-384.21C1048.07,-349.26 1116.53,-269.79 1139.12,-243.57"/>
<polygon fill="midnightblue" stroke="midnightblue" points="1015.06,-382.21 1011.19,-392.08 1020.37,-386.78 1015.06,-382.21"/>
</g>
<!-- Node10 -->
<g id="node10" class="node">
<title>Node10</title>
<g id="a_node10"><a xlink:href="closedloopcoronarybc_8hpp.html" target="_top" xlink:title="MODEL::ClosedLoopCoronaryBC source file.">
<polygon fill="none" stroke="black" points="1235.5,-224.5 1235.5,-243.5 1393.5,-243.5 1393.5,-224.5 1235.5,-224.5"/>
<text text-anchor="middle" x="1314.5" y="-231.5" font-family="Helvetica,sans-Serif" font-size="10.00">model/closedloopcoronarybc.hpp</text>
</a>
</g>
</g>
<!-- Node2&#45;&gt;Node10 -->
<g id="edge12" class="edge">
<title>Node2&#45;&gt;Node10</title>
<path fill="none" stroke="midnightblue" d="M1028.85,-387.47C1090.62,-354.5 1247.59,-270.71 1298.38,-243.61"/>
<polygon fill="midnightblue" stroke="midnightblue" points="1026.96,-384.51 1019.78,-392.31 1030.25,-390.69 1026.96,-384.51"/>
</g>
<!-- Node11 -->
<g id="node11" class="node">
<title>Node11</title>
<g id="a_node11"><a xlink:href="closedloopheartpulmonary_8hpp.html" target="_top" xlink:title="MODEL::ClosedLoopHeartPulmonary source file.">
<polygon fill="none" stroke="black" points="262.5,-224.5 262.5,-243.5 438.5,-243.5 438.5,-224.5 262.5,-224.5"/>
<text text-anchor="middle" x="350.5" y="-231.5" font-family="Helvetica,sans-Serif" font-size="10.00">model/closedloopheartpulmonary.hpp</text>
</a>
</g>
</g>
<!-- Node2&#45;&gt;Node11 -->
<g id="edge14" class="edge">
<title>Node2&#45;&gt;Node11</title>
<path fill="none" stroke="midnightblue" d="M949.73,-398.69C845.91,-393.75 621.62,-380.52 548.5,-356 469.44,-329.49 388.78,-266.74 360.8,-243.69"/>
<polygon fill="midnightblue" stroke="midnightblue" points="949.84,-402.2 959.99,-399.17 950.17,-395.21 949.84,-402.2"/>
</g>
<!-- Node12 -->
<g id="node12" class="node">
<title>Node12</title>
<g id="a_node12"><a xlink:href="flowreferencebc_8hpp.html" target="_top" xlink:title="MODEL::FlowReferenceBC source file.">
<polygon fill="none" stroke="black" points="1411.5,-224.5 1411.5,-243.5 1543.5,-243.5 1543.5,-224.5 1411.5,-224.5"/>
<text text-anchor="middle" x="1477.5" y="-231.5" font-family="Helvetica,sans-Serif" font-size="10.00">model/flowreferencebc.hpp</text>
</a>
</g>
</g>
<!-- Node2&#45;&gt;Node12 -->
<g id="edge16" class="edge">
<title>Node2&#45;&gt;Node12</title>
<path fill="none" stroke="midnightblue" d="M1037.52,-389.08C1128.31,-357.29 1374.71,-271 1453.16,-243.52"/>
<polygon fill="midnightblue" stroke="midnightblue" points="1036.27,-385.82 1027.99,-392.42 1038.58,-392.42 1036.27,-385.82"/>
</g>
<!-- Node13 -->
<g id="node13" class="node">
<title>Node13</title>
<g id="a_node13"><a xlink:href="junction_8hpp.html" target="_top" xlink:title="MODEL::Junction source file.">
<polygon fill="none" stroke="black" points="456.5,-224.5 456.5,-243.5 554.5,-243.5 554.5,-224.5 456.5,-224.5"/>
<text text-anchor="middle" x="505.5" y="-231.5" font-family="Helvetica,sans-Serif" font-size="10.00">model/junction.hpp</text>
</a>
</g>
</g>
<!-- Node2&#45;&gt;Node13 -->
<g id="edge18" class="edge">
<title>Node2&#45;&gt;Node13</title>
<path fill="none" stroke="midnightblue" d="M949.59,-398.27C840.1,-392.32 599.41,-377.01 568.5,-356 547.83,-341.96 518.44,-268.86 508.74,-243.6"/>
<polygon fill="midnightblue" stroke="midnightblue" points="949.59,-401.78 959.77,-398.82 949.97,-394.79 949.59,-401.78"/>
</g>
<!-- Node2&#45;&gt;Node14 -->
<g id="edge20" class="edge">
<title>Node2&#45;&gt;Node14</title>
<path fill="none" stroke="midnightblue" d="M949.97,-397.41C856.81,-390.91 658.91,-376 492.5,-356 487.97,-355.46 483.26,-354.83 478.56,-354.17"/>
<polygon fill="midnightblue" stroke="midnightblue" points="949.78,-400.91 960,-398.11 950.26,-393.92 949.78,-400.91"/>
</g>
<!-- Node17 -->
<g id="node17" class="node">
<title>Node17</title>
<g id="a_node17"><a xlink:href="openloopcoronarybc_8hpp.html" target="_top" xlink:title="MODEL::OpenLoopCoronaryBC source file.">
<polygon fill="none" stroke="black" points="1561.5,-224.5 1561.5,-243.5 1711.5,-243.5 1711.5,-224.5 1561.5,-224.5"/>
<text text-anchor="middle" x="1636.5" y="-231.5" font-family="Helvetica,sans-Serif" font-size="10.00">model/openloopcoronarybc.hpp</text>
</a>
</g>
</g>
<!-- Node2&#45;&gt;Node17 -->
<g id="edge47" class="edge">
<title>Node2&#45;&gt;Node17</title>
<path fill="none" stroke="midnightblue" d="M1046.03,-389.85C1164.82,-358.69 1498.37,-271.22 1604,-243.52"/>
<polygon fill="midnightblue" stroke="midnightblue" points="1044.98,-386.5 1036.2,-392.42 1046.76,-393.27 1044.98,-386.5"/>
</g>
<!-- Node18 -->
<g id="node18" class="node">
<title>Node18</title>
<g id="a_node18"><a xlink:href="pressurereferencebc_8hpp.html" target="_top" xlink:title="MODEL::PressureReferenceBC source file.">
<polygon fill="none" stroke="black" points="1729.5,-224.5 1729.5,-243.5 1881.5,-243.5 1881.5,-224.5 1729.5,-224.5"/>
<text text-anchor="middle" x="1805.5" y="-231.5" font-family="Helvetica,sans-Serif" font-size="10.00">model/pressurereferencebc.hpp</text>
</a>
</g>
</g>
<!-- Node2&#45;&gt;Node18 -->
<g id="edge48" class="edge">
<title>Node2&#45;&gt;Node18</title>
<path fill="none" stroke="midnightblue" d="M1057.6,-401.45C1216.36,-401.64 1676.64,-393.92 1786.5,-300 1803.12,-285.79 1805.62,-257.92 1805.74,-243.73"/>
<polygon fill="midnightblue" stroke="midnightblue" points="1057.16,-397.94 1047.15,-401.42 1057.14,-404.94 1057.16,-397.94"/>
</g>
<!-- Node19 -->
<g id="node19" class="node">
<title>Node19</title>
<g id="a_node19"><a xlink:href="resistancebc_8hpp.html" target="_top" xlink:title="MODEL::ResistanceBC source file.">
<polygon fill="none" stroke="black" points="1900,-224.5 1900,-243.5 2019,-243.5 2019,-224.5 1900,-224.5"/>
<text text-anchor="middle" x="1959.5" y="-231.5" font-family="Helvetica,sans-Serif" font-size="10.00">model/resistancebc.hpp</text>
</a>
</g>
</g>
<!-- Node2&#45;&gt;Node19 -->
<g id="edge49" class="edge">
<title>Node2&#45;&gt;Node19</title>
<path fill="none" stroke="midnightblue" d="M1057.51,-400.03C1198.63,-397.11 1575.78,-386.57 1696.5,-356 1797.6,-330.4 1907.59,-266.8 1945.64,-243.63"/>
<polygon fill="midnightblue" stroke="midnightblue" points="1057.29,-396.54 1047.37,-400.24 1057.44,-403.54 1057.29,-396.54"/>
</g>
<!-- Node20 -->
<g id="node20" class="node">
<title>Node20</title>
<g id="a_node20"><a xlink:href="resistivejunction_8hpp.html" target="_top" xlink:title="MODEL::ResistiveJunction source file.">
<polygon fill="none" stroke="black" points="782.5,-224.5 782.5,-243.5 916.5,-243.5 916.5,-224.5 782.5,-224.5"/>
<text text-anchor="middle" x="849.5" y="-231.5" font-family="Helvetica,sans-Serif" font-size="10.00">model/resistivejunction.hpp</text>
</a>
</g>
</g>
<!-- Node2&#45;&gt;Node20 -->
<g id="edge50" class="edge">
<title>Node2&#45;&gt;Node20</title>
<path fill="none" stroke="midnightblue" d="M976.36,-387.62C945.71,-371.15 896.47,-340.32 868.5,-300 856.3,-282.42 851.85,-256.98 850.29,-243.75"/>
<polygon fill="midnightblue" stroke="midnightblue" points="974.75,-390.73 985.23,-392.27 977.99,-384.53 974.75,-390.73"/>
</g>
<!-- Node21 -->
<g id="node21" class="node">
<title>Node21</title>
<g id="a_node21"><a xlink:href="windkesselbc_8hpp.html" target="_top" xlink:title="MODEL::WindkesselBC source file.">
<polygon fill="none" stroke="black" points="935,-224.5 935,-243.5 1058,-243.5 1058,-224.5 935,-224.5"/>
<text text-anchor="middle" x="996.5" y="-231.5" font-family="Helvetica,sans-Serif" font-size="10.00">model/windkesselbc.hpp</text>
</a>
</g>
</g>
<!-- Node2&#45;&gt;Node21 -->
<g id="edge51" class="edge">
<title>Node2&#45;&gt;Node21</title>
<path fill="none" stroke="midnightblue" d="M1009.05,-382.58C1015.43,-358.7 1024.11,-315.86 1016.5,-280 1013.66,-266.62 1006.56,-252.39 1001.63,-243.59"/>
<polygon fill="midnightblue" stroke="midnightblue" points="1005.63,-381.82 1006.26,-392.4 1012.36,-383.73 1005.63,-381.82"/>
</g>
<!-- Node4 -->
<g id="node4" class="node">
<title>Node4</title>
<g id="a_node4"><a xlink:href="configreader_8hpp.html" target="_top" xlink:title="IO::ConfigReader source file.">
<polygon fill="none" stroke="black" points="947.5,-112.5 947.5,-131.5 1045.5,-131.5 1045.5,-112.5 947.5,-112.5"/>
<text text-anchor="middle" x="996.5" y="-119.5" font-family="Helvetica,sans-Serif" font-size="10.00">io/configreader.hpp</text>
</a>
</g>
</g>
<!-- Node3&#45;&gt;Node4 -->
<g id="edge3" class="edge">
<title>Node3&#45;&gt;Node4</title>
<path fill="none" stroke="midnightblue" d="M738.86,-220.73C798.13,-198.25 922.7,-150.99 973.85,-131.59"/>
<polygon fill="midnightblue" stroke="midnightblue" points="737.36,-217.55 729.26,-224.37 739.85,-224.09 737.36,-217.55"/>
</g>
<!-- Node3&#45;&gt;Node8 -->
<g id="edge7" class="edge">
<title>Node3&#45;&gt;Node8</title>
<path fill="none" stroke="midnightblue" d="M698.16,-214.98C693.92,-205.82 688.95,-195.09 685.55,-187.75"/>
<polygon fill="midnightblue" stroke="midnightblue" points="694.99,-216.48 702.37,-224.08 701.35,-213.54 694.99,-216.48"/>
</g>
<!-- Node5 -->
<g id="node5" class="node">
<title>Node5</title>
<g id="a_node5"><a xlink:href="main_8hpp.html" target="_top" xlink:title="Main page documentation.">
<polygon fill="none" stroke="black" points="126.5,-56.5 126.5,-75.5 182.5,-75.5 182.5,-56.5 126.5,-56.5"/>
<text text-anchor="middle" x="154.5" y="-63.5" font-family="Helvetica,sans-Serif" font-size="10.00">main.hpp</text>
</a>
</g>
</g>
<!-- Node4&#45;&gt;Node5 -->
<g id="edge4" class="edge">
<title>Node4&#45;&gt;Node5</title>
<path fill="none" stroke="midnightblue" d="M937.22,-117.2C770.66,-106.52 302.76,-76.51 182.8,-68.82"/>
<polygon fill="midnightblue" stroke="midnightblue" points="937.08,-120.7 947.28,-117.84 937.53,-113.71 937.08,-120.7"/>
</g>
<!-- Node6 -->
<g id="node6" class="node">
<title>Node6</title>
<g id="a_node6"><a xlink:href="main_8cpp.html" target="_top" xlink:title="Main routine of svZeroDSolver.">
<polygon fill="none" stroke="black" points="87.5,-0.5 87.5,-19.5 143.5,-19.5 143.5,-0.5 87.5,-0.5"/>
<text text-anchor="middle" x="115.5" y="-7.5" font-family="Helvetica,sans-Serif" font-size="10.00">main.cpp</text>
</a>
</g>
</g>
<!-- Node5&#45;&gt;Node6 -->
<g id="edge5" class="edge">
<title>Node5&#45;&gt;Node6</title>
<path fill="none" stroke="midnightblue" d="M142.12,-47.86C135.36,-38.5 127.29,-27.33 121.82,-19.75"/>
<polygon fill="midnightblue" stroke="midnightblue" points="139.37,-50.03 148.06,-56.08 145.04,-45.93 139.37,-50.03"/>
</g>
<!-- Node7 -->
<g id="node7" class="node">
<title>Node7</title>
<g id="a_node7"><a xlink:href="python_8cpp.html" target="_top" xlink:title="Python binding for svZeroDSolver.">
<polygon fill="none" stroke="black" points="162,-0.5 162,-19.5 225,-19.5 225,-0.5 162,-0.5"/>
<text text-anchor="middle" x="193.5" y="-7.5" font-family="Helvetica,sans-Serif" font-size="10.00">python.cpp</text>
</a>
</g>
</g>
<!-- Node5&#45;&gt;Node7 -->
<g id="edge6" class="edge">
<title>Node5&#45;&gt;Node7</title>
<path fill="none" stroke="midnightblue" d="M166.88,-47.86C173.64,-38.5 181.71,-27.33 187.18,-19.75"/>
<polygon fill="midnightblue" stroke="midnightblue" points="163.96,-45.93 160.94,-56.08 169.63,-50.03 163.96,-45.93"/>
</g>
<!-- Node8&#45;&gt;Node4 -->
<g id="edge8" class="edge">
<title>Node8&#45;&gt;Node4</title>
<path fill="none" stroke="midnightblue" d="M741.45,-166.72C801.16,-156.49 891.73,-140.96 947.34,-131.43"/>
<polygon fill="midnightblue" stroke="midnightblue" points="740.68,-163.3 731.41,-168.44 741.86,-170.2 740.68,-163.3"/>
</g>
<!-- Node9&#45;&gt;Node4 -->
<g id="edge11" class="edge">
<title>Node9&#45;&gt;Node4</title>
<path fill="none" stroke="midnightblue" d="M1126.61,-218.42C1094.89,-195.15 1033.8,-150.35 1008.22,-131.59"/>
<polygon fill="midnightblue" stroke="midnightblue" points="1124.6,-221.28 1134.73,-224.37 1128.74,-215.63 1124.6,-221.28"/>
</g>
<!-- Node10&#45;&gt;Node4 -->
<g id="edge13" class="edge">
<title>Node10&#45;&gt;Node4</title>
<path fill="none" stroke="midnightblue" d="M1280.11,-221.1C1215.59,-198.79 1077.83,-151.13 1021.39,-131.61"/>
<polygon fill="midnightblue" stroke="midnightblue" points="1279.22,-224.5 1289.81,-224.46 1281.51,-217.88 1279.22,-224.5"/>
</g>
<!-- Node11&#45;&gt;Node4 -->
<g id="edge15" class="edge">
<title>Node11&#45;&gt;Node4</title>
<path fill="none" stroke="midnightblue" d="M382.12,-220.93C422.45,-206.05 494.61,-181.13 558.5,-168 697.77,-139.39 865.88,-128.6 947.4,-124.84"/>
<polygon fill="midnightblue" stroke="midnightblue" points="380.73,-217.71 372.58,-224.48 383.18,-224.27 380.73,-217.71"/>
</g>
<!-- Node12&#45;&gt;Node4 -->
<g id="edge17" class="edge">
<title>Node12&#45;&gt;Node4</title>
<path fill="none" stroke="midnightblue" d="M1430.2,-222.18C1334.65,-200.33 1120.37,-151.33 1033.82,-131.53"/>
<polygon fill="midnightblue" stroke="midnightblue" points="1429.63,-225.64 1440.16,-224.46 1431.19,-218.82 1429.63,-225.64"/>
</g>
<!-- Node13&#45;&gt;Node4 -->
<g id="edge19" class="edge">
<title>Node13&#45;&gt;Node4</title>
<path fill="none" stroke="midnightblue" d="M521.77,-217.58C539.07,-202.18 567.97,-179.24 597.5,-168 660.37,-144.07 855.23,-130.64 947.32,-125.49"/>
<polygon fill="midnightblue" stroke="midnightblue" points="519.27,-215.12 514.25,-224.45 523.99,-220.28 519.27,-215.12"/>
</g>
<!-- Node14&#45;&gt;Node4 -->
<g id="edge43" class="edge">
<title>Node14&#45;&gt;Node4</title>
<path fill="none" stroke="midnightblue" d="M385.87,-333.88C319.39,-316.12 211.4,-277.81 253.5,-224 296.49,-169.05 788.5,-135.31 947.37,-125.78"/>
<polygon fill="midnightblue" stroke="midnightblue" points="385.19,-337.32 395.75,-336.45 386.96,-330.54 385.19,-337.32"/>
</g>
<!-- Node14&#45;&gt;Node5 -->
<g id="edge46" class="edge">
<title>Node14&#45;&gt;Node5</title>
<path fill="none" stroke="midnightblue" d="M377.98,-340.88C330.12,-335.77 260.01,-324.52 203.5,-300 158.24,-280.36 113.5,-284.34 113.5,-235 113.5,-235 113.5,-235 113.5,-177 113.5,-137.05 137.53,-93.8 148.8,-75.71"/>
<polygon fill="midnightblue" stroke="midnightblue" points="377.84,-344.38 388.14,-341.91 378.54,-337.42 377.84,-344.38"/>
</g>
<!-- Node15 -->
<g id="node15" class="node">
<title>Node15</title>
<g id="a_node15"><a xlink:href="integrator_8hpp.html" target="_top" xlink:title="ALGEBRA::Integrator source file.">
<polygon fill="none" stroke="black" points="141.5,-168.5 141.5,-187.5 251.5,-187.5 251.5,-168.5 141.5,-168.5"/>
<text text-anchor="middle" x="196.5" y="-175.5" font-family="Helvetica,sans-Serif" font-size="10.00">algebra/integrator.hpp</text>
</a>
</g>
</g>
<!-- Node14&#45;&gt;Node15 -->
<g id="edge21" class="edge">
<title>Node14&#45;&gt;Node15</title>
<path fill="none" stroke="midnightblue" d="M378.02,-340.16C322.44,-334.15 242.13,-321.9 220.5,-300 189.65,-268.76 192.82,-209.96 195.3,-187.77"/>
<polygon fill="midnightblue" stroke="midnightblue" points="377.78,-343.65 388.09,-341.21 378.51,-336.69 377.78,-343.65"/>
</g>
<!-- Node16 -->
<g id="node16" class="node">
<title>Node16</title>
<g id="a_node16"><a xlink:href="sparsesystem_8hpp.html" target="_top" xlink:title="ALGEBRA::SparseSystem source file.">
<polygon fill="none" stroke="black" points="877.5,-280.5 877.5,-299.5 1007.5,-299.5 1007.5,-280.5 877.5,-280.5"/>
<text text-anchor="middle" x="942.5" y="-287.5" font-family="Helvetica,sans-Serif" font-size="10.00">algebra/sparsesystem.hpp</text>
</a>
</g>
</g>
<!-- Node14&#45;&gt;Node16 -->
<g id="edge23" class="edge">
<title>Node14&#45;&gt;Node16</title>
<path fill="none" stroke="midnightblue" d="M488.52,-338.68C583.16,-328.33 776.09,-307.86 877.31,-297.43"/>
<polygon fill="midnightblue" stroke="midnightblue" points="488.13,-335.2 478.57,-339.77 488.89,-342.16 488.13,-335.2"/>
</g>
<!-- Node22 -->
<g id="node22" class="node">
<title>Node22</title>
<g id="a_node22"><a xlink:href="csvwriter_8hpp.html" target="_top" xlink:title="IO::write_csv source file.">
<polygon fill="none" stroke="black" points="0,-112.5 0,-131.5 85,-131.5 85,-112.5 0,-112.5"/>
<text text-anchor="middle" x="42.5" y="-119.5" font-family="Helvetica,sans-Serif" font-size="10.00">io/csvwriter.hpp</text>
</a>
</g>
</g>
<!-- Node14&#45;&gt;Node22 -->
<g id="edge44" class="edge">
<title>Node14&#45;&gt;Node22</title>
<path fill="none" stroke="midnightblue" d="M378.34,-344.51C294.59,-342.64 140.7,-334.46 99.5,-300 46.26,-255.47 42.24,-160.89 42.32,-131.74"/>
<polygon fill="midnightblue" stroke="midnightblue" points="378.38,-348.01 388.44,-344.71 378.52,-341.01 378.38,-348.01"/>
</g>
<!-- Node15&#45;&gt;Node5 -->
<g id="edge22" class="edge">
<title>Node15&#45;&gt;Node5</title>
<path fill="none" stroke="midnightblue" d="M189.63,-159C180.46,-135 164.61,-93.47 157.78,-75.59"/>
<polygon fill="midnightblue" stroke="midnightblue" points="186.37,-160.27 193.2,-168.37 192.91,-157.78 186.37,-160.27"/>
</g>
<!-- Node16&#45;&gt;Node2 -->
<g id="edge24" class="edge">
<title>Node16&#45;&gt;Node2</title>
<path fill="none" stroke="midnightblue" d="M952.27,-308.63C965.54,-332.55 988.74,-374.38 998.71,-392.37"/>
<polygon fill="midnightblue" stroke="midnightblue" points="955.17,-306.64 947.26,-299.59 949.05,-310.03 955.17,-306.64"/>
</g>
<!-- Node16&#45;&gt;Node3 -->
<g id="edge25" class="edge">
<title>Node16&#45;&gt;Node3</title>
<path fill="none" stroke="midnightblue" d="M895.09,-278.15C850.5,-267.95 784.65,-252.88 743.72,-243.52"/>
<polygon fill="midnightblue" stroke="midnightblue" points="894.58,-281.62 905.11,-280.44 896.14,-274.8 894.58,-281.62"/>
</g>
<!-- Node16&#45;&gt;Node8 -->
<g id="edge26" class="edge">
<title>Node16&#45;&gt;Node8</title>
<path fill="none" stroke="midnightblue" d="M867.38,-288.62C787.38,-286.44 668.35,-277.45 639.5,-244 623.53,-225.48 651.5,-200.44 669,-187.51"/>
<polygon fill="midnightblue" stroke="midnightblue" points="867.34,-292.12 877.42,-288.87 867.51,-285.13 867.34,-292.12"/>
</g>
<!-- Node16&#45;&gt;Node9 -->
<g id="edge27" class="edge">
<title>Node16&#45;&gt;Node9</title>
<path fill="none" stroke="midnightblue" d="M984.7,-277.83C1023.22,-267.63 1079.32,-252.78 1114.33,-243.52"/>
<polygon fill="midnightblue" stroke="midnightblue" points="983.6,-274.5 974.82,-280.44 985.39,-281.27 983.6,-274.5"/>
</g>
<!-- Node16&#45;&gt;Node10 -->
<g id="edge28" class="edge">
<title>Node16&#45;&gt;Node10</title>
<path fill="none" stroke="midnightblue" d="M1011.53,-278.98C1081.8,-268.78 1189.56,-253.14 1255.83,-243.52"/>
<polygon fill="midnightblue" stroke="midnightblue" points="1010.84,-275.54 1001.44,-280.44 1011.84,-282.47 1010.84,-275.54"/>
</g>
<!-- Node16&#45;&gt;Node11 -->
<g id="edge29" class="edge">
<title>Node16&#45;&gt;Node11</title>
<path fill="none" stroke="midnightblue" d="M867.23,-282.2C770.2,-273.43 596.27,-257.66 447.5,-244 444.55,-243.73 441.56,-243.45 438.53,-243.17"/>
<polygon fill="midnightblue" stroke="midnightblue" points="866.96,-285.69 877.24,-283.11 867.59,-278.72 866.96,-285.69"/>
</g>
<!-- Node16&#45;&gt;Node12 -->
<g id="edge30" class="edge">
<title>Node16&#45;&gt;Node12</title>
<path fill="none" stroke="midnightblue" d="M1017.64,-282.16C1108.76,-273.75 1266.98,-258.76 1402.5,-244 1405.37,-243.69 1408.3,-243.36 1411.26,-243.03"/>
<polygon fill="midnightblue" stroke="midnightblue" points="1017.31,-278.67 1007.68,-283.08 1017.96,-285.64 1017.31,-278.67"/>
</g>
<!-- Node16&#45;&gt;Node13 -->
<g id="edge31" class="edge">
<title>Node16&#45;&gt;Node13</title>
<path fill="none" stroke="midnightblue" d="M866.99,-279.67C777.45,-268.61 630.81,-250.48 554.74,-241.08"/>
<polygon fill="midnightblue" stroke="midnightblue" points="866.72,-283.16 877.08,-280.92 867.58,-276.22 866.72,-283.16"/>
</g>
<!-- Node16&#45;&gt;Node14 -->
<g id="edge32" class="edge">
<title>Node16&#45;&gt;Node14</title>
<path fill="none" stroke="midnightblue" d="M867.25,-299.52C759.88,-311.19 566.23,-331.69 478.62,-340.63"/>
<polygon fill="midnightblue" stroke="midnightblue" points="867.8,-302.98 877.36,-298.42 867.04,-296.02 867.8,-302.98"/>
</g>
<!-- Node16&#45;&gt;Node17 -->
<g id="edge33" class="edge">
<title>Node16&#45;&gt;Node17</title>
<path fill="none" stroke="midnightblue" d="M1017.68,-284.26C1132.89,-276.81 1360.01,-261.41 1552.5,-244 1555.42,-243.74 1558.4,-243.46 1561.41,-243.17"/>
<polygon fill="midnightblue" stroke="midnightblue" points="1017.31,-280.77 1007.56,-284.91 1017.76,-287.76 1017.31,-280.77"/>
</g>
<!-- Node16&#45;&gt;Node18 -->
<g id="edge35" class="edge">
<title>Node16&#45;&gt;Node18</title>
<path fill="none" stroke="midnightblue" d="M1017.75,-285.84C1156.73,-279.75 1462.99,-265.07 1720.5,-244 1723.31,-243.77 1726.17,-243.52 1729.06,-243.27"/>
<polygon fill="midnightblue" stroke="midnightblue" points="1017.47,-282.35 1007.63,-286.28 1017.78,-289.34 1017.47,-282.35"/>
</g>
<!-- Node16&#45;&gt;Node19 -->
<g id="edge37" class="edge">
<title>Node16&#45;&gt;Node19</title>
<path fill="none" stroke="midnightblue" d="M1017.81,-287.53C1178.45,-283.93 1566.5,-272.77 1890.5,-244 1893.51,-243.73 1896.59,-243.43 1899.69,-243.11"/>
<polygon fill="midnightblue" stroke="midnightblue" points="1017.48,-284.04 1007.56,-287.76 1017.64,-291.03 1017.48,-284.04"/>
</g>
<!-- Node16&#45;&gt;Node20 -->
<g id="edge39" class="edge">
<title>Node16&#45;&gt;Node20</title>
<path fill="none" stroke="midnightblue" d="M918.69,-275.18C901.58,-265.24 879.03,-252.15 864.4,-243.65"/>
<polygon fill="midnightblue" stroke="midnightblue" points="917.15,-278.33 927.56,-280.32 920.67,-272.28 917.15,-278.33"/>
</g>
<!-- Node16&#45;&gt;Node21 -->
<g id="edge41" class="edge">
<title>Node16&#45;&gt;Node21</title>
<path fill="none" stroke="midnightblue" d="M958.5,-273C968.07,-263.43 979.86,-251.64 987.75,-243.75"/>
<polygon fill="midnightblue" stroke="midnightblue" points="956.01,-270.54 951.42,-280.08 960.96,-275.49 956.01,-270.54"/>
</g>
<!-- Node17&#45;&gt;Node4 -->
<g id="edge34" class="edge">
<title>Node17&#45;&gt;Node4</title>
<path fill="none" stroke="midnightblue" d="M1576.6,-222.71C1450.87,-201.1 1161.51,-151.36 1045.72,-131.46"/>
<polygon fill="midnightblue" stroke="midnightblue" points="1576.36,-226.22 1586.81,-224.46 1577.55,-219.32 1576.36,-226.22"/>
</g>
<!-- Node18&#45;&gt;Node4 -->
<g id="edge36" class="edge">
<title>Node18&#45;&gt;Node4</title>
<path fill="none" stroke="midnightblue" d="M1733.49,-223.1C1640.44,-210.31 1473.4,-187.4 1330.5,-168 1229.33,-154.26 1110.89,-138.34 1045.74,-129.6"/>
<polygon fill="midnightblue" stroke="midnightblue" points="1733.26,-226.6 1743.64,-224.49 1734.21,-219.66 1733.26,-226.6"/>
</g>
<!-- Node19&#45;&gt;Node4 -->
<g id="edge38" class="edge">
<title>Node19&#45;&gt;Node4</title>
<path fill="none" stroke="midnightblue" d="M1889.49,-223.89C1678.3,-197.64 1624.01,-191.37 1416.5,-168 1282.41,-152.9 1124.1,-136.26 1045.66,-128.09"/>
<polygon fill="midnightblue" stroke="midnightblue" points="1889.31,-227.39 1899.67,-225.15 1890.17,-220.44 1889.31,-227.39"/>
</g>
<!-- Node20&#45;&gt;Node4 -->
<g id="edge40" class="edge">
<title>Node20&#45;&gt;Node4</title>
<path fill="none" stroke="midnightblue" d="M869.39,-218.12C900.59,-194.77 960.06,-150.27 985.02,-131.59"/>
<polygon fill="midnightblue" stroke="midnightblue" points="866.94,-215.57 861.03,-224.37 871.14,-221.18 866.94,-215.57"/>
</g>
<!-- Node21&#45;&gt;Node4 -->
<g id="edge42" class="edge">
<title>Node21&#45;&gt;Node4</title>
<path fill="none" stroke="midnightblue" d="M996.5,-214.35C996.5,-190.25 996.5,-149.31 996.5,-131.59"/>
<polygon fill="midnightblue" stroke="midnightblue" points="993,-214.37 996.5,-224.37 1000,-214.37 993,-214.37"/>
</g>
<!-- Node22&#45;&gt;Node5 -->
<g id="edge45" class="edge">
<title>Node22&#45;&gt;Node5</title>
<path fill="none" stroke="midnightblue" d="M69.75,-107.86C90.52,-97.85 118.52,-84.35 136.55,-75.65"/>
<polygon fill="midnightblue" stroke="midnightblue" points="67.98,-104.83 60.49,-112.32 71.02,-111.13 67.98,-104.83"/>
</g>
<!-- Node23&#45;&gt;Node2 -->
<g id="edge55" class="edge">
<title>Node23&#45;&gt;Node2</title>
<path fill="none" stroke="midnightblue" d="M979.12,-439.57C985.32,-430.27 992.67,-419.25 997.67,-411.75"/>
<polygon fill="midnightblue" stroke="midnightblue" points="976.08,-437.82 973.44,-448.08 981.9,-441.7 976.08,-437.82"/>
</g>
<!-- Node23&#45;&gt;Node4 -->
<g id="edge54" class="edge">
<title>Node23&#45;&gt;Node4</title>
<path fill="none" stroke="midnightblue" d="M1020.29,-454.33C1252.97,-441.61 2169.37,-381.15 2028.5,-224 1962.15,-149.98 1242.06,-128.5 1045.71,-124"/>
<polygon fill="midnightblue" stroke="midnightblue" points="1019.85,-450.85 1010.05,-454.88 1020.23,-457.84 1019.85,-450.85"/>
</g>
<!-- Node23&#45;&gt;Node14 -->
<g id="edge56" class="edge">
<title>Node23&#45;&gt;Node14</title>
<path fill="none" stroke="midnightblue" d="M921.77,-446.01C865.24,-432.57 766.03,-409.47 680.5,-392 610.25,-377.65 528.29,-363.16 478.68,-354.64"/>
<polygon fill="midnightblue" stroke="midnightblue" points="921.27,-449.49 931.81,-448.4 922.89,-442.68 921.27,-449.49"/>
</g>
<!-- Node24&#45;&gt;Node12 -->
<g id="edge58" class="edge">
<title>Node24&#45;&gt;Node12</title>
<path fill="none" stroke="midnightblue" d="M1647.74,-277.96C1607.33,-267.76 1548.13,-252.82 1511.25,-243.52"/>
<polygon fill="midnightblue" stroke="midnightblue" points="1647.04,-281.39 1657.59,-280.44 1648.75,-274.6 1647.04,-281.39"/>
</g>
<!-- Node24&#45;&gt;Node17 -->
<g id="edge59" class="edge">
<title>Node24&#45;&gt;Node17</title>
<path fill="none" stroke="midnightblue" d="M1675.21,-273C1665.46,-263.43 1653.45,-251.64 1645.41,-243.75"/>
<polygon fill="midnightblue" stroke="midnightblue" points="1672.83,-275.57 1682.42,-280.08 1677.73,-270.58 1672.83,-275.57"/>
</g>
<!-- Node24&#45;&gt;Node18 -->
<g id="edge60" class="edge">
<title>Node24&#45;&gt;Node18</title>
<path fill="none" stroke="midnightblue" d="M1718.74,-276.1C1740.04,-266.01 1769.04,-252.27 1787.52,-243.52"/>
<polygon fill="midnightblue" stroke="midnightblue" points="1717.1,-273 1709.56,-280.44 1720.1,-279.33 1717.1,-273"/>
</g>
<!-- Node24&#45;&gt;Node19 -->
<g id="edge61" class="edge">
<title>Node24&#45;&gt;Node19</title>
<path fill="none" stroke="midnightblue" d="M1744.06,-278.41C1794.71,-268.2 1870.37,-252.96 1917.23,-243.52"/>
<polygon fill="midnightblue" stroke="midnightblue" points="1743.08,-275.04 1733.97,-280.44 1744.46,-281.9 1743.08,-275.04"/>
</g>
</g>
</svg>
