<?xml version="1.0" encoding="UTF-8" standalone="no"?>
<!DOCTYPE svg PUBLIC "-//W3C//DTD SVG 1.1//EN"
 "http://www.w3.org/Graphics/SVG/1.1/DTD/svg11.dtd">
<!-- Generated by graphviz version 3.0.0 (20220413.0242)
 -->
<!-- Title: model/dofhandler.hpp Pages: 1 -->
<svg width="1255pt" height="476pt"
 viewBox="0.00 0.00 1254.60 476.00" xmlns="http://www.w3.org/2000/svg" xmlns:xlink="http://www.w3.org/1999/xlink">
<g id="graph0" class="graph" transform="scale(1 1) rotate(0) translate(4 472)">
<title>model/dofhandler.hpp</title>
<!-- Node1 -->
<g id="node1" class="node">
<title>Node1</title>
<g id="a_node1"><a xlink:title="MODEL::DOFHandler source file.">
<polygon fill="#bfbfbf" stroke="black" points="536,-448.5 536,-467.5 645,-467.5 645,-448.5 536,-448.5"/>
<text text-anchor="middle" x="590.5" y="-455.5" font-family="Helvetica,sans-Serif" font-size="10.00">model/dofhandler.hpp</text>
</a>
</g>
</g>
<!-- Node2 -->
<g id="node2" class="node">
<title>Node2</title>
<g id="a_node2"><a xlink:href="block_8hpp.html" target="_top" xlink:title="MODEL::Block source file.">
<polygon fill="none" stroke="black" points="570,-336.5 570,-355.5 657,-355.5 657,-336.5 570,-336.5"/>
<text text-anchor="middle" x="613.5" y="-343.5" font-family="Helvetica,sans-Serif" font-size="10.00">model/block.hpp</text>
</a>
</g>
</g>
<!-- Node1&#45;&gt;Node2 -->
<g id="edge1" class="edge">
<title>Node1&#45;&gt;Node2</title>
<path fill="none" stroke="midnightblue" d="M598.09,-438.73C601.16,-430.67 604.45,-420.99 606.5,-412 611.05,-392.08 612.66,-368.04 613.22,-355.52"/>
<polygon fill="midnightblue" stroke="midnightblue" points="594.76,-437.63 594.32,-448.22 601.27,-440.22 594.76,-437.63"/>
</g>
<!-- Node10 -->
<g id="node10" class="node">
<title>Node10</title>
<g id="a_node10"><a xlink:href="model_8hpp.html" target="_top" xlink:title="MODEL::Model source file.">
<polygon fill="none" stroke="black" points="326.5,-280.5 326.5,-299.5 416.5,-299.5 416.5,-280.5 326.5,-280.5"/>
<text text-anchor="middle" x="371.5" y="-287.5" font-family="Helvetica,sans-Serif" font-size="10.00">model/model.hpp</text>
</a>
</g>
</g>
<!-- Node1&#45;&gt;Node10 -->
<g id="edge36" class="edge">
<title>Node1&#45;&gt;Node10</title>
<path fill="none" stroke="midnightblue" d="M561.17,-444.21C543.75,-436.05 521.62,-424.65 503.5,-412 451.76,-375.87 399.08,-320.95 379.48,-299.77"/>
<polygon fill="midnightblue" stroke="midnightblue" points="559.75,-447.41 570.3,-448.4 562.67,-441.05 559.75,-447.41"/>
</g>
<!-- Node18 -->
<g id="node18" class="node">
<title>Node18</title>
<g id="a_node18"><a xlink:href="node_8hpp.html" target="_top" xlink:title="MODEL::Node source file.">
<polygon fill="none" stroke="black" points="513,-392.5 513,-411.5 598,-411.5 598,-392.5 513,-392.5"/>
<text text-anchor="middle" x="555.5" y="-399.5" font-family="Helvetica,sans-Serif" font-size="10.00">model/node.hpp</text>
</a>
</g>
</g>
<!-- Node1&#45;&gt;Node18 -->
<g id="edge37" class="edge">
<title>Node1&#45;&gt;Node18</title>
<path fill="none" stroke="midnightblue" d="M579.2,-439.57C573.18,-430.27 566.03,-419.25 561.17,-411.75"/>
<polygon fill="midnightblue" stroke="midnightblue" points="576.34,-441.6 584.72,-448.08 582.22,-437.79 576.34,-441.6"/>
</g>
<!-- Node19 -->
<g id="node19" class="node">
<title>Node19</title>
<g id="a_node19"><a xlink:href="timedependentparameter_8hpp.html" target="_top" xlink:title="MODEL::TimeDependentParameter source file.">
<polygon fill="none" stroke="black" points="898,-224.5 898,-243.5 1069,-243.5 1069,-224.5 898,-224.5"/>
<text text-anchor="middle" x="983.5" y="-231.5" font-family="Helvetica,sans-Serif" font-size="10.00">model/timedependentparameter.hpp</text>
</a>
</g>
</g>
<!-- Node1&#45;&gt;Node19 -->
<g id="edge41" class="edge">
<title>Node1&#45;&gt;Node19</title>
<path fill="none" stroke="midnightblue" d="M614.95,-443.19C688.8,-401.47 908.22,-277.52 968.2,-243.64"/>
<polygon fill="midnightblue" stroke="midnightblue" points="612.89,-440.33 605.91,-448.3 616.33,-446.43 612.89,-440.33"/>
</g>
<!-- Node3 -->
<g id="node3" class="node">
<title>Node3</title>
<g id="a_node3"><a xlink:href="bloodvessel_8hpp.html" target="_top" xlink:title="MODEL::BloodVessel source file.">
<polygon fill="none" stroke="black" points="359.5,-168.5 359.5,-187.5 475.5,-187.5 475.5,-168.5 359.5,-168.5"/>
<text text-anchor="middle" x="417.5" y="-175.5" font-family="Helvetica,sans-Serif" font-size="10.00">model/bloodvessel.hpp</text>
</a>
</g>
</g>
<!-- Node2&#45;&gt;Node3 -->
<g id="edge2" class="edge">
<title>Node2&#45;&gt;Node3</title>
<path fill="none" stroke="midnightblue" d="M593.42,-330.25C581.88,-321.63 567.19,-310.42 554.5,-300 505.21,-259.52 448.86,-208.01 426.93,-187.75"/>
<polygon fill="midnightblue" stroke="midnightblue" points="591.44,-333.13 601.55,-336.28 595.61,-327.51 591.44,-333.13"/>
</g>
<!-- Node8 -->
<g id="node8" class="node">
<title>Node8</title>
<g id="a_node8"><a xlink:href="flowreferencebc_8hpp.html" target="_top" xlink:title="MODEL::FlowReferenceBC source file.">
<polygon fill="none" stroke="black" points="917.5,-168.5 917.5,-187.5 1049.5,-187.5 1049.5,-168.5 917.5,-168.5"/>
<text text-anchor="middle" x="983.5" y="-175.5" font-family="Helvetica,sans-Serif" font-size="10.00">model/flowreferencebc.hpp</text>
</a>
</g>
</g>
<!-- Node2&#45;&gt;Node8 -->
<g id="edge7" class="edge">
<title>Node2&#45;&gt;Node8</title>
<path fill="none" stroke="midnightblue" d="M642.01,-332.21C714.31,-299.77 903.35,-214.96 964.28,-187.62"/>
<polygon fill="midnightblue" stroke="midnightblue" points="640.3,-329.14 632.61,-336.42 643.17,-335.52 640.3,-329.14"/>
</g>
<!-- Node9 -->
<g id="node9" class="node">
<title>Node9</title>
<g id="a_node9"><a xlink:href="junction_8hpp.html" target="_top" xlink:title="MODEL::Junction source file.">
<polygon fill="none" stroke="black" points="493.5,-168.5 493.5,-187.5 591.5,-187.5 591.5,-168.5 493.5,-168.5"/>
<text text-anchor="middle" x="542.5" y="-175.5" font-family="Helvetica,sans-Serif" font-size="10.00">model/junction.hpp</text>
</a>
</g>
</g>
<!-- Node2&#45;&gt;Node9 -->
<g id="edge9" class="edge">
<title>Node2&#45;&gt;Node9</title>
<path fill="none" stroke="midnightblue" d="M596.78,-329.17C578.63,-310.73 550.74,-278.37 539.5,-244 533.18,-224.67 537.23,-200.39 540.19,-187.67"/>
<polygon fill="midnightblue" stroke="midnightblue" points="594.53,-331.87 604.11,-336.4 599.45,-326.89 594.53,-331.87"/>
</g>
<!-- Node2&#45;&gt;Node10 -->
<g id="edge11" class="edge">
<title>Node2&#45;&gt;Node10</title>
<path fill="none" stroke="midnightblue" d="M565.18,-334.22C519.45,-324.01 451.72,-308.9 409.67,-299.52"/>
<polygon fill="midnightblue" stroke="midnightblue" points="564.63,-337.68 575.15,-336.44 566.16,-330.85 564.63,-337.68"/>
</g>
<!-- Node13 -->
<g id="node13" class="node">
<title>Node13</title>
<g id="a_node13"><a xlink:href="openloopcoronarybc_8hpp.html" target="_top" xlink:title="MODEL::OpenLoopCoronaryBC source file.">
<polygon fill="none" stroke="black" points="1067.5,-168.5 1067.5,-187.5 1217.5,-187.5 1217.5,-168.5 1067.5,-168.5"/>
<text text-anchor="middle" x="1142.5" y="-175.5" font-family="Helvetica,sans-Serif" font-size="10.00">model/openloopcoronarybc.hpp</text>
</a>
</g>
</g>
<!-- Node2&#45;&gt;Node13 -->
<g id="edge32" class="edge">
<title>Node2&#45;&gt;Node13</title>
<path fill="none" stroke="midnightblue" d="M667.25,-343.03C757.37,-337.68 942.34,-317.81 1077.5,-244 1103.55,-229.77 1126.06,-201.91 1136.42,-187.73"/>
<polygon fill="midnightblue" stroke="midnightblue" points="667.05,-339.54 657.26,-343.59 667.44,-346.53 667.05,-339.54"/>
</g>
<!-- Node14 -->
<g id="node14" class="node">
<title>Node14</title>
<g id="a_node14"><a xlink:href="pressurereferencebc_8hpp.html" target="_top" xlink:title="MODEL::PressureReferenceBC source file.">
<polygon fill="none" stroke="black" points="609.5,-168.5 609.5,-187.5 761.5,-187.5 761.5,-168.5 609.5,-168.5"/>
<text text-anchor="middle" x="685.5" y="-175.5" font-family="Helvetica,sans-Serif" font-size="10.00">model/pressurereferencebc.hpp</text>
</a>
</g>
</g>
<!-- Node2&#45;&gt;Node14 -->
<g id="edge33" class="edge">
<title>Node2&#45;&gt;Node14</title>
<path fill="none" stroke="midnightblue" d="M630.22,-329.17C648.37,-310.73 676.26,-278.37 687.5,-244 693.82,-224.69 690.26,-200.4 687.59,-187.68"/>
<polygon fill="midnightblue" stroke="midnightblue" points="627.55,-326.89 622.89,-336.4 632.47,-331.87 627.55,-326.89"/>
</g>
<!-- Node15 -->
<g id="node15" class="node">
<title>Node15</title>
<g id="a_node15"><a xlink:href="resistancebc_8hpp.html" target="_top" xlink:title="MODEL::ResistanceBC source file.">
<polygon fill="none" stroke="black" points="780,-168.5 780,-187.5 899,-187.5 899,-168.5 780,-168.5"/>
<text text-anchor="middle" x="839.5" y="-175.5" font-family="Helvetica,sans-Serif" font-size="10.00">model/resistancebc.hpp</text>
</a>
</g>
</g>
<!-- Node2&#45;&gt;Node15 -->
<g id="edge34" class="edge">
<title>Node2&#45;&gt;Node15</title>
<path fill="none" stroke="midnightblue" d="M634.26,-330.63C646.83,-321.87 663.16,-310.39 677.5,-300 734.63,-258.59 801.92,-207.61 828.19,-187.62"/>
<polygon fill="midnightblue" stroke="midnightblue" points="632.06,-327.9 625.84,-336.48 636.05,-333.64 632.06,-327.9"/>
</g>
<!-- Node16 -->
<g id="node16" class="node">
<title>Node16</title>
<g id="a_node16"><a xlink:href="windkesselbc_8hpp.html" target="_top" xlink:title="MODEL::WindkesselBC source file.">
<polygon fill="none" stroke="black" points="218,-168.5 218,-187.5 341,-187.5 341,-168.5 218,-168.5"/>
<text text-anchor="middle" x="279.5" y="-175.5" font-family="Helvetica,sans-Serif" font-size="10.00">model/windkesselbc.hpp</text>
</a>
</g>
</g>
<!-- Node2&#45;&gt;Node16 -->
<g id="edge35" class="edge">
<title>Node2&#45;&gt;Node16</title>
<path fill="none" stroke="midnightblue" d="M586.68,-331.67C520.63,-298.84 351.47,-214.77 296.81,-187.61"/>
<polygon fill="midnightblue" stroke="midnightblue" points="585.5,-334.99 596.01,-336.31 588.62,-328.72 585.5,-334.99"/>
</g>
<!-- Node4 -->
<g id="node4" class="node">
<title>Node4</title>
<g id="a_node4"><a xlink:href="configreader_8hpp.html" target="_top" xlink:title="IO::ConfigReader source file.">
<polygon fill="none" stroke="black" points="564.5,-112.5 564.5,-131.5 662.5,-131.5 662.5,-112.5 564.5,-112.5"/>
<text text-anchor="middle" x="613.5" y="-119.5" font-family="Helvetica,sans-Serif" font-size="10.00">io/configreader.hpp</text>
</a>
</g>
</g>
<!-- Node3&#45;&gt;Node4 -->
<g id="edge3" class="edge">
<title>Node3&#45;&gt;Node4</title>
<path fill="none" stroke="midnightblue" d="M458.52,-165.7C495.51,-155.51 549.1,-140.74 582.59,-131.52"/>
<polygon fill="midnightblue" stroke="midnightblue" points="457.27,-162.41 448.56,-168.44 459.13,-169.16 457.27,-162.41"/>
</g>
<!-- Node5 -->
<g id="node5" class="node">
<title>Node5</title>
<g id="a_node5"><a xlink:href="main_8hpp.html" target="_top" xlink:title="Main page documentation.">
<polygon fill="none" stroke="black" points="126.5,-56.5 126.5,-75.5 182.5,-75.5 182.5,-56.5 126.5,-56.5"/>
<text text-anchor="middle" x="154.5" y="-63.5" font-family="Helvetica,sans-Serif" font-size="10.00">main.hpp</text>
</a>
</g>
</g>
<!-- Node4&#45;&gt;Node5 -->
<g id="edge4" class="edge">
<title>Node4&#45;&gt;Node5</title>
<path fill="none" stroke="midnightblue" d="M554.15,-114.02C454.23,-102.26 256.13,-78.96 182.73,-70.32"/>
<polygon fill="midnightblue" stroke="midnightblue" points="554.04,-117.53 564.38,-115.22 554.86,-110.58 554.04,-117.53"/>
</g>
<!-- Node6 -->
<g id="node6" class="node">
<title>Node6</title>
<g id="a_node6"><a xlink:href="main_8cpp.html" target="_top" xlink:title="Main routine of svZeroDSolver.">
<polygon fill="none" stroke="black" points="87.5,-0.5 87.5,-19.5 143.5,-19.5 143.5,-0.5 87.5,-0.5"/>
<text text-anchor="middle" x="115.5" y="-7.5" font-family="Helvetica,sans-Serif" font-size="10.00">main.cpp</text>
</a>
</g>
</g>
<!-- Node5&#45;&gt;Node6 -->
<g id="edge5" class="edge">
<title>Node5&#45;&gt;Node6</title>
<path fill="none" stroke="midnightblue" d="M142.12,-47.86C135.36,-38.5 127.29,-27.33 121.82,-19.75"/>
<polygon fill="midnightblue" stroke="midnightblue" points="139.37,-50.03 148.06,-56.08 145.04,-45.93 139.37,-50.03"/>
</g>
<!-- Node7 -->
<g id="node7" class="node">
<title>Node7</title>
<g id="a_node7"><a xlink:href="python_8cpp.html" target="_top" xlink:title="Python binding for svZeroDSolver.">
<polygon fill="none" stroke="black" points="162,-0.5 162,-19.5 225,-19.5 225,-0.5 162,-0.5"/>
<text text-anchor="middle" x="193.5" y="-7.5" font-family="Helvetica,sans-Serif" font-size="10.00">python.cpp</text>
</a>
</g>
</g>
<!-- Node5&#45;&gt;Node7 -->
<g id="edge6" class="edge">
<title>Node5&#45;&gt;Node7</title>
<path fill="none" stroke="midnightblue" d="M166.88,-47.86C173.64,-38.5 181.71,-27.33 187.18,-19.75"/>
<polygon fill="midnightblue" stroke="midnightblue" points="163.96,-45.93 160.94,-56.08 169.63,-50.03 163.96,-45.93"/>
</g>
<!-- Node8&#45;&gt;Node4 -->
<g id="edge8" class="edge">
<title>Node8&#45;&gt;Node4</title>
<path fill="none" stroke="midnightblue" d="M914.82,-166.98C841.58,-156.29 727.43,-139.63 662.69,-130.18"/>
<polygon fill="midnightblue" stroke="midnightblue" points="914.47,-170.46 924.87,-168.44 915.48,-163.54 914.47,-170.46"/>
</g>
<!-- Node9&#45;&gt;Node4 -->
<g id="edge10" class="edge">
<title>Node9&#45;&gt;Node4</title>
<path fill="none" stroke="midnightblue" d="M562.09,-162.1C574.87,-152.38 591.11,-140.03 601.89,-131.83"/>
<polygon fill="midnightblue" stroke="midnightblue" points="559.75,-159.48 553.91,-168.32 563.99,-165.06 559.75,-159.48"/>
</g>
<!-- Node10&#45;&gt;Node4 -->
<g id="edge28" class="edge">
<title>Node10&#45;&gt;Node4</title>
<path fill="none" stroke="midnightblue" d="M330.52,-277.36C269.18,-258.01 165.08,-216.51 208.5,-168 231.85,-141.91 461.36,-129.26 564.15,-124.86"/>
<polygon fill="midnightblue" stroke="midnightblue" points="329.75,-280.79 340.34,-280.39 331.81,-274.1 329.75,-280.79"/>
</g>
<!-- Node10&#45;&gt;Node5 -->
<g id="edge31" class="edge">
<title>Node10&#45;&gt;Node5</title>
<path fill="none" stroke="midnightblue" d="M316.05,-283.59C261.79,-277.18 184.22,-264.67 162.5,-244 118.92,-202.53 118.94,-170.61 132.5,-112 135.64,-98.44 143.45,-84.26 148.86,-75.52"/>
<polygon fill="midnightblue" stroke="midnightblue" points="315.9,-287.09 326.23,-284.75 316.69,-280.14 315.9,-287.09"/>
</g>
<!-- Node11 -->
<g id="node11" class="node">
<title>Node11</title>
<g id="a_node11"><a xlink:href="integrator_8hpp.html" target="_top" xlink:title="ALGEBRA::Integrator source file.">
<polygon fill="none" stroke="black" points="141.5,-112.5 141.5,-131.5 251.5,-131.5 251.5,-112.5 141.5,-112.5"/>
<text text-anchor="middle" x="196.5" y="-119.5" font-family="Helvetica,sans-Serif" font-size="10.00">algebra/integrator.hpp</text>
</a>
</g>
</g>
<!-- Node10&#45;&gt;Node11 -->
<g id="edge12" class="edge">
<title>Node10&#45;&gt;Node11</title>
<path fill="none" stroke="midnightblue" d="M316.22,-283.91C264.55,-277.87 192.83,-265.76 175.5,-244 148.4,-209.98 177.83,-153.34 190.9,-131.74"/>
<polygon fill="midnightblue" stroke="midnightblue" points="315.93,-287.4 326.26,-285.04 316.72,-280.44 315.93,-287.4"/>
</g>
<!-- Node12 -->
<g id="node12" class="node">
<title>Node12</title>
<g id="a_node12"><a xlink:href="sparsesystem_8hpp.html" target="_top" xlink:title="ALGEBRA::SparseSystem source file.">
<polygon fill="none" stroke="black" points="548.5,-224.5 548.5,-243.5 678.5,-243.5 678.5,-224.5 548.5,-224.5"/>
<text text-anchor="middle" x="613.5" y="-231.5" font-family="Helvetica,sans-Serif" font-size="10.00">algebra/sparsesystem.hpp</text>
</a>
</g>
</g>
<!-- Node10&#45;&gt;Node12 -->
<g id="edge14" class="edge">
<title>Node10&#45;&gt;Node12</title>
<path fill="none" stroke="midnightblue" d="M414.58,-278.15C458.54,-267.95 526.22,-252.88 570.25,-243.52"/>
<polygon fill="midnightblue" stroke="midnightblue" points="413.7,-274.76 404.76,-280.44 415.29,-281.58 413.7,-274.76"/>
</g>
<!-- Node17 -->
<g id="node17" class="node">
<title>Node17</title>
<g id="a_node17"><a xlink:href="csvwriter_8hpp.html" target="_top" xlink:title="IO::write_csv source file.">
<polygon fill="none" stroke="black" points="0,-112.5 0,-131.5 85,-131.5 85,-112.5 0,-112.5"/>
<text text-anchor="middle" x="42.5" y="-119.5" font-family="Helvetica,sans-Serif" font-size="10.00">io/csvwriter.hpp</text>
</a>
</g>
</g>
<!-- Node10&#45;&gt;Node17 -->
<g id="edge29" class="edge">
<title>Node10&#45;&gt;Node17</title>
<path fill="none" stroke="midnightblue" d="M315.96,-285.84C246.52,-280.88 132.73,-269.12 99.5,-244 61.34,-215.16 47.68,-154.38 43.81,-131.74"/>
<polygon fill="midnightblue" stroke="midnightblue" points="316.07,-289.36 326.28,-286.55 316.55,-282.37 316.07,-289.36"/>
</g>
<!-- Node11&#45;&gt;Node5 -->
<g id="edge13" class="edge">
<title>Node11&#45;&gt;Node5</title>
<path fill="none" stroke="midnightblue" d="M183.39,-104.14C176.07,-94.74 167.26,-83.4 161.31,-75.75"/>
<polygon fill="midnightblue" stroke="midnightblue" points="180.66,-106.34 189.56,-112.08 186.19,-102.04 180.66,-106.34"/>
</g>
<!-- Node12&#45;&gt;Node2 -->
<g id="edge15" class="edge">
<title>Node12&#45;&gt;Node2</title>
<path fill="none" stroke="midnightblue" d="M613.5,-253.6C613.5,-277.67 613.5,-318.62 613.5,-336.37"/>
<polygon fill="midnightblue" stroke="midnightblue" points="617,-253.59 613.5,-243.59 610,-253.59 617,-253.59"/>
</g>
<!-- Node12&#45;&gt;Node3 -->
<g id="edge16" class="edge">
<title>Node12&#45;&gt;Node3</title>
<path fill="none" stroke="midnightblue" d="M572.48,-221.7C535.49,-211.51 481.9,-196.74 448.41,-187.52"/>
<polygon fill="midnightblue" stroke="midnightblue" points="571.87,-225.16 582.44,-224.44 573.73,-218.41 571.87,-225.16"/>
</g>
<!-- Node12&#45;&gt;Node8 -->
<g id="edge17" class="edge">
<title>Node12&#45;&gt;Node8</title>
<path fill="none" stroke="midnightblue" d="M682.16,-222.98C752.05,-212.78 859.23,-197.14 925.15,-187.52"/>
<polygon fill="midnightblue" stroke="midnightblue" points="681.52,-219.54 672.13,-224.44 682.53,-226.46 681.52,-219.54"/>
</g>
<!-- Node12&#45;&gt;Node9 -->
<g id="edge18" class="edge">
<title>Node12&#45;&gt;Node9</title>
<path fill="none" stroke="midnightblue" d="M593.91,-218.1C581.13,-208.38 564.89,-196.03 554.11,-187.83"/>
<polygon fill="midnightblue" stroke="midnightblue" points="592.01,-221.06 602.09,-224.32 596.25,-215.48 592.01,-221.06"/>
</g>
<!-- Node12&#45;&gt;Node10 -->
<g id="edge19" class="edge">
<title>Node12&#45;&gt;Node10</title>
<path fill="none" stroke="midnightblue" d="M570.61,-245.8C526.71,-255.99 459.03,-271.06 414.93,-280.44"/>
<polygon fill="midnightblue" stroke="midnightblue" points="571.47,-249.2 580.41,-243.52 569.88,-242.38 571.47,-249.2"/>
</g>
<!-- Node12&#45;&gt;Node13 -->
<g id="edge20" class="edge">
<title>Node12&#45;&gt;Node13</title>
<path fill="none" stroke="midnightblue" d="M688.95,-225.51C777.48,-216.69 928.68,-201.52 1058.5,-188 1061.42,-187.7 1064.39,-187.38 1067.4,-187.07"/>
<polygon fill="midnightblue" stroke="midnightblue" points="688.34,-222.05 678.74,-226.53 689.04,-229.02 688.34,-222.05"/>
</g>
<!-- Node12&#45;&gt;Node14 -->
<g id="edge22" class="edge">
<title>Node12&#45;&gt;Node14</title>
<path fill="none" stroke="midnightblue" d="M633.37,-218.1C646.32,-208.38 662.8,-196.03 673.72,-187.83"/>
<polygon fill="midnightblue" stroke="midnightblue" points="630.97,-215.52 625.07,-224.32 635.17,-221.12 630.97,-215.52"/>
</g>
<!-- Node12&#45;&gt;Node15 -->
<g id="edge24" class="edge">
<title>Node12&#45;&gt;Node15</title>
<path fill="none" stroke="midnightblue" d="M659.17,-222.09C701.86,-211.89 764.75,-196.86 803.86,-187.52"/>
<polygon fill="midnightblue" stroke="midnightblue" points="658.22,-218.72 649.31,-224.44 659.85,-225.52 658.22,-218.72"/>
</g>
<!-- Node12&#45;&gt;Node16 -->
<g id="edge26" class="edge">
<title>Node12&#45;&gt;Node16</title>
<path fill="none" stroke="midnightblue" d="M550.35,-222.79C487.24,-212.59 391.32,-197.08 332.18,-187.52"/>
<polygon fill="midnightblue" stroke="midnightblue" points="550.15,-226.3 560.58,-224.44 551.26,-219.39 550.15,-226.3"/>
</g>
<!-- Node13&#45;&gt;Node4 -->
<g id="edge21" class="edge">
<title>Node13&#45;&gt;Node4</title>
<path fill="none" stroke="midnightblue" d="M1057.08,-167.86C907.06,-152.26 742.73,-135.84 662.57,-127.87"/>
<polygon fill="midnightblue" stroke="midnightblue" points="1057.09,-171.38 1067.4,-168.93 1057.81,-164.41 1057.09,-171.38"/>
</g>
<!-- Node14&#45;&gt;Node4 -->
<g id="edge23" class="edge">
<title>Node14&#45;&gt;Node4</title>
<path fill="none" stroke="midnightblue" d="M665.63,-162.1C652.68,-152.38 636.2,-140.03 625.28,-131.83"/>
<polygon fill="midnightblue" stroke="midnightblue" points="663.83,-165.12 673.93,-168.32 668.03,-159.52 663.83,-165.12"/>
</g>
<!-- Node15&#45;&gt;Node4 -->
<g id="edge25" class="edge">
<title>Node15&#45;&gt;Node4</title>
<path fill="none" stroke="midnightblue" d="M793.83,-166.09C751.14,-155.89 688.25,-140.86 649.14,-131.52"/>
<polygon fill="midnightblue" stroke="midnightblue" points="793.15,-169.52 803.69,-168.44 794.78,-162.72 793.15,-169.52"/>
</g>
<!-- Node16&#45;&gt;Node4 -->
<g id="edge27" class="edge">
<title>Node16&#45;&gt;Node4</title>
<path fill="none" stroke="midnightblue" d="M342.45,-166.82C406.83,-156.41 505.51,-140.46 564.36,-130.94"/>
<polygon fill="midnightblue" stroke="midnightblue" points="341.74,-163.39 332.42,-168.44 342.85,-170.3 341.74,-163.39"/>
</g>
<!-- Node17&#45;&gt;Node5 -->
<g id="edge30" class="edge">
<title>Node17&#45;&gt;Node5</title>
<path fill="none" stroke="midnightblue" d="M69.75,-107.86C90.52,-97.85 118.52,-84.35 136.55,-75.65"/>
<polygon fill="midnightblue" stroke="midnightblue" points="67.98,-104.83 60.49,-112.32 71.02,-111.13 67.98,-104.83"/>
</g>
<!-- Node18&#45;&gt;Node2 -->
<g id="edge39" class="edge">
<title>Node18&#45;&gt;Node2</title>
<path fill="none" stroke="midnightblue" d="M572.41,-385.25C582.7,-375.67 595.47,-363.79 604.01,-355.83"/>
<polygon fill="midnightblue" stroke="midnightblue" points="569.75,-382.95 564.82,-392.32 574.52,-388.07 569.75,-382.95"/>
</g>
<!-- Node18&#45;&gt;Node4 -->
<g id="edge38" class="edge">
<title>Node18&#45;&gt;Node4</title>
<path fill="none" stroke="midnightblue" d="M608.31,-395.36C769.7,-377.79 1245.5,-323.23 1245.5,-291 1245.5,-291 1245.5,-291 1245.5,-233 1245.5,-202.9 1249.91,-186.92 1226.5,-168 1183.04,-132.86 800.18,-125.1 662.53,-123.44"/>
<polygon fill="midnightblue" stroke="midnightblue" points="607.71,-391.91 598.14,-396.47 608.46,-398.87 607.71,-391.91"/>
</g>
<!-- Node18&#45;&gt;Node10 -->
<g id="edge40" class="edge">
<title>Node18&#45;&gt;Node10</title>
<path fill="none" stroke="midnightblue" d="M540.12,-385.28C525.53,-371.02 502.46,-350.12 479.5,-336 453.54,-320.04 420.93,-307.34 398.36,-299.55"/>
<polygon fill="midnightblue" stroke="midnightblue" points="537.75,-387.86 547.3,-392.44 542.69,-382.9 537.75,-387.86"/>
</g>
<!-- Node19&#45;&gt;Node8 -->
<g id="edge42" class="edge">
<title>Node19&#45;&gt;Node8</title>
<path fill="none" stroke="midnightblue" d="M983.5,-213.8C983.5,-204.91 983.5,-194.78 983.5,-187.75"/>
<polygon fill="midnightblue" stroke="midnightblue" points="980,-214.08 983.5,-224.08 987,-214.08 980,-214.08"/>
</g>
<!-- Node19&#45;&gt;Node13 -->
<g id="edge43" class="edge">
<title>Node19&#45;&gt;Node13</title>
<path fill="none" stroke="midnightblue" d="M1018.33,-221.17C1048.27,-211 1090.72,-196.59 1117.42,-187.52"/>
<polygon fill="midnightblue" stroke="midnightblue" points="1017.04,-217.91 1008.69,-224.44 1019.29,-224.54 1017.04,-217.91"/>
</g>
<!-- Node19&#45;&gt;Node14 -->
<g id="edge44" class="edge">
<title>Node19&#45;&gt;Node14</title>
<path fill="none" stroke="midnightblue" d="M926.11,-222.6C869.79,-212.4 784.94,-197.02 732.5,-187.52"/>
<polygon fill="midnightblue" stroke="midnightblue" points="925.82,-226.1 936.28,-224.44 927.07,-219.22 925.82,-226.1"/>
</g>
<!-- Node19&#45;&gt;Node15 -->
<g id="edge45" class="edge">
<title>Node19&#45;&gt;Node15</title>
<path fill="none" stroke="midnightblue" d="M951.25,-220.91C924.18,-210.75 886.18,-196.51 862.21,-187.52"/>
<polygon fill="midnightblue" stroke="midnightblue" points="950.09,-224.21 960.68,-224.44 952.55,-217.66 950.09,-224.21"/>
</g>
</g>
</svg>
