<?xml version="1.0" encoding="UTF-8" standalone="no"?>
<!DOCTYPE svg PUBLIC "-//W3C//DTD SVG 1.1//EN"
 "http://www.w3.org/Graphics/SVG/1.1/DTD/svg11.dtd">
<!-- Generated by graphviz version 3.0.0 (20220413.0242)
 -->
<!-- Title: model/flowreferencebc.hpp Pages: 1 -->
<svg width="1222pt" height="252pt"
 viewBox="0.00 0.00 1221.96 252.00" xmlns="http://www.w3.org/2000/svg" xmlns:xlink="http://www.w3.org/1999/xlink">
<g id="graph0" class="graph" transform="scale(1 1) rotate(0) translate(4 248)">
<title>model/flowreferencebc.hpp</title>
<!-- Node1 -->
<g id="node1" class="node">
<title>Node1</title>
<g id="a_node1"><a xlink:title="MODEL::FlowReferenceBC source file.">
<polygon fill="#bfbfbf" stroke="black" points="687.46,-224.5 687.46,-243.5 819.46,-243.5 819.46,-224.5 687.46,-224.5"/>
<text text-anchor="middle" x="753.46" y="-231.5" font-family="Helvetica,sans-Serif" font-size="10.00">model/flowreferencebc.hpp</text>
</a>
</g>
</g>
<!-- Node2 -->
<g id="node2" class="node">
<title>Node2</title>
<g id="a_node2"><a xlink:href="model_8hpp.html" target="_top" xlink:title="MODEL::Model source file.">
<polygon fill="none" stroke="black" points="505.46,-168.5 505.46,-187.5 595.46,-187.5 595.46,-168.5 505.46,-168.5"/>
<text text-anchor="middle" x="550.46" y="-175.5" font-family="Helvetica,sans-Serif" font-size="10.00">model/model.hpp</text>
</a>
</g>
</g>
<!-- Node1&#45;&gt;Node2 -->
<g id="edge1" class="edge">
<title>Node1&#45;&gt;Node2</title>
<path fill="none" stroke="midnightblue" d="M711.46,-221.83C673.14,-211.63 617.31,-196.78 582.47,-187.52"/>
<polygon fill="midnightblue" stroke="midnightblue" points="710.73,-225.26 721.29,-224.44 712.53,-218.49 710.73,-225.26"/>
</g>
<!-- Node3 -->
<g id="node3" class="node">
<title>Node3</title>
<g id="a_node3"><a xlink:href="densesystem_8hpp.html" target="_top" xlink:title="ALGEBRA::DenseSystem source file.">
<polygon fill="none" stroke="black" points="745.96,-112.5 745.96,-131.5 872.96,-131.5 872.96,-112.5 745.96,-112.5"/>
<text text-anchor="middle" x="809.46" y="-119.5" font-family="Helvetica,sans-Serif" font-size="10.00">algebra/densesystem.hpp</text>
</a>
</g>
</g>
<!-- Node2&#45;&gt;Node3 -->
<g id="edge2" class="edge">
<title>Node2&#45;&gt;Node3</title>
<path fill="none" stroke="midnightblue" d="M596.36,-166.28C643.52,-156.08 716.36,-140.92 763.53,-131.52"/>
<polygon fill="midnightblue" stroke="midnightblue" points="595.44,-162.9 586.41,-168.44 596.92,-169.74 595.44,-162.9"/>
</g>
<!-- Node4 -->
<g id="node4" class="node">
<title>Node4</title>
<g id="a_node4"><a xlink:href="main_8cpp.html" target="_top" xlink:title="Main routine of svZeroDSolver.">
<polygon fill="none" stroke="black" points="246.46,-56.5 246.46,-75.5 302.46,-75.5 302.46,-56.5 246.46,-56.5"/>
<text text-anchor="middle" x="274.46" y="-63.5" font-family="Helvetica,sans-Serif" font-size="10.00">main.cpp</text>
</a>
</g>
</g>
<!-- Node2&#45;&gt;Node4 -->
<g id="edge48" class="edge">
<title>Node2&#45;&gt;Node4</title>
<path fill="none" stroke="midnightblue" d="M535.83,-160.83C521.42,-145.89 498.04,-124.23 473.46,-112 469.6,-110.08 356.73,-85.1 302.73,-73.21"/>
<polygon fill="midnightblue" stroke="midnightblue" points="533.48,-163.43 542.87,-168.33 538.58,-158.64 533.48,-163.43"/>
</g>
<!-- Node13 -->
<g id="node13" class="node">
<title>Node13</title>
<g id="a_node13"><a xlink:href="integrator_8hpp.html" target="_top" xlink:title="ALGEBRA::Integrator source file.">
<polygon fill="none" stroke="black" points="30.46,-112.5 30.46,-131.5 140.46,-131.5 140.46,-112.5 30.46,-112.5"/>
<text text-anchor="middle" x="85.46" y="-119.5" font-family="Helvetica,sans-Serif" font-size="10.00">algebra/integrator.hpp</text>
</a>
</g>
</g>
<!-- Node2&#45;&gt;Node13 -->
<g id="edge28" class="edge">
<title>Node2&#45;&gt;Node13</title>
<path fill="none" stroke="midnightblue" d="M495.3,-171.3C417.94,-163.2 272.85,-147.6 149.46,-132 146.56,-131.63 143.6,-131.25 140.6,-130.85"/>
<polygon fill="midnightblue" stroke="midnightblue" points="495,-174.79 505.31,-172.35 495.72,-167.83 495,-174.79"/>
</g>
<!-- Node14 -->
<g id="node14" class="node">
<title>Node14</title>
<g id="a_node14"><a xlink:href="sparsesystem_8hpp.html" target="_top" xlink:title="ALGEBRA::SparseSystem source file.">
<polygon fill="none" stroke="black" points="597.46,-112.5 597.46,-131.5 727.46,-131.5 727.46,-112.5 597.46,-112.5"/>
<text text-anchor="middle" x="662.46" y="-119.5" font-family="Helvetica,sans-Serif" font-size="10.00">algebra/sparsesystem.hpp</text>
</a>
</g>
</g>
<!-- Node2&#45;&gt;Node14 -->
<g id="edge30" class="edge">
<title>Node2&#45;&gt;Node14</title>
<path fill="none" stroke="midnightblue" d="M572.35,-163.59C591.73,-153.61 619.67,-140.27 639.4,-131.65"/>
<polygon fill="midnightblue" stroke="midnightblue" points="570.56,-160.57 563.34,-168.32 573.82,-166.77 570.56,-160.57"/>
</g>
<!-- Node15 -->
<g id="node15" class="node">
<title>Node15</title>
<g id="a_node15"><a xlink:href="configreader_8hpp.html" target="_top" xlink:title="IO::ConfigReader source file.">
<polygon fill="none" stroke="black" points="158.46,-112.5 158.46,-131.5 256.46,-131.5 256.46,-112.5 158.46,-112.5"/>
<text text-anchor="middle" x="207.46" y="-119.5" font-family="Helvetica,sans-Serif" font-size="10.00">io/configreader.hpp</text>
</a>
</g>
</g>
<!-- Node2&#45;&gt;Node15 -->
<g id="edge42" class="edge">
<title>Node2&#45;&gt;Node15</title>
<path fill="none" stroke="midnightblue" d="M495.06,-168.28C429.04,-157.89 319.78,-140.68 256.64,-130.74"/>
<polygon fill="midnightblue" stroke="midnightblue" points="494.84,-171.79 505.26,-169.88 495.93,-164.87 494.84,-171.79"/>
</g>
<!-- Node16 -->
<g id="node16" class="node">
<title>Node16</title>
<g id="a_node16"><a xlink:href="csvwriter_8hpp.html" target="_top" xlink:title="IO::write_csv source file.">
<polygon fill="none" stroke="black" points="274.96,-112.5 274.96,-131.5 359.96,-131.5 359.96,-112.5 274.96,-112.5"/>
<text text-anchor="middle" x="317.46" y="-119.5" font-family="Helvetica,sans-Serif" font-size="10.00">io/csvwriter.hpp</text>
</a>
</g>
</g>
<!-- Node2&#45;&gt;Node16 -->
<g id="edge44" class="edge">
<title>Node2&#45;&gt;Node16</title>
<path fill="none" stroke="midnightblue" d="M503.66,-166.15C459.63,-155.95 394.61,-140.88 354.21,-131.52"/>
<polygon fill="midnightblue" stroke="midnightblue" points="503.01,-169.6 513.54,-168.44 504.59,-162.78 503.01,-169.6"/>
</g>
<!-- Node17 -->
<g id="node17" class="node">
<title>Node17</title>
<g id="a_node17"><a xlink:href="jsonwriter_8hpp.html" target="_top" xlink:title="IO::write_json source file.">
<polygon fill="none" stroke="black" points="377.96,-112.5 377.96,-131.5 464.96,-131.5 464.96,-112.5 377.96,-112.5"/>
<text text-anchor="middle" x="421.46" y="-119.5" font-family="Helvetica,sans-Serif" font-size="10.00">io/jsonwriter.hpp</text>
</a>
</g>
</g>
<!-- Node2&#45;&gt;Node17 -->
<g id="edge46" class="edge">
<title>Node2&#45;&gt;Node17</title>
<path fill="none" stroke="midnightblue" d="M520.6,-164.5C496.42,-154.38 463,-140.39 441.8,-131.52"/>
<polygon fill="midnightblue" stroke="midnightblue" points="519.44,-167.81 530.02,-168.44 522.15,-161.35 519.44,-167.81"/>
</g>
<!-- Node3&#45;&gt;Node1 -->
<g id="edge21" class="edge">
<title>Node3&#45;&gt;Node1</title>
<path fill="none" stroke="midnightblue" d="M800.49,-140.63C788.31,-164.55 767.01,-206.38 757.85,-224.37"/>
<polygon fill="midnightblue" stroke="midnightblue" points="803.67,-142.09 805.08,-131.59 797.43,-138.92 803.67,-142.09"/>
</g>
<!-- Node3&#45;&gt;Node2 -->
<g id="edge23" class="edge">
<title>Node3&#45;&gt;Node2</title>
<path fill="none" stroke="midnightblue" d="M763.42,-133.75C716.02,-144 642.8,-159.24 595.69,-168.62"/>
<polygon fill="midnightblue" stroke="midnightblue" points="764.39,-137.12 773.42,-131.58 762.9,-130.28 764.39,-137.12"/>
</g>
<!-- Node3&#45;&gt;Node4 -->
<g id="edge3" class="edge">
<title>Node3&#45;&gt;Node4</title>
<path fill="none" stroke="midnightblue" d="M735.58,-111.93C564.58,-93.19 373.36,-75.8 302.61,-69.49"/>
<polygon fill="midnightblue" stroke="midnightblue" points="735.45,-115.44 745.77,-113.05 736.21,-108.48 735.45,-115.44"/>
</g>
<!-- Node5 -->
<g id="node5" class="node">
<title>Node5</title>
<g id="a_node5"><a xlink:href="block_8hpp.html" target="_top" xlink:title="MODEL::Block source file.">
<polygon fill="none" stroke="black" points="700.96,-56.5 700.96,-75.5 787.96,-75.5 787.96,-56.5 700.96,-56.5"/>
<text text-anchor="middle" x="744.46" y="-63.5" font-family="Helvetica,sans-Serif" font-size="10.00">model/block.hpp</text>
</a>
</g>
</g>
<!-- Node3&#45;&gt;Node5 -->
<g id="edge4" class="edge">
<title>Node3&#45;&gt;Node5</title>
<path fill="none" stroke="midnightblue" d="M791.19,-105.82C779.54,-96.15 764.86,-83.95 755.09,-75.83"/>
<polygon fill="midnightblue" stroke="midnightblue" points="789.09,-108.63 799.02,-112.32 793.56,-103.24 789.09,-108.63"/>
</g>
<!-- Node6 -->
<g id="node6" class="node">
<title>Node6</title>
<g id="a_node6"><a xlink:href="bloodvessel_8hpp.html" target="_top" xlink:title="MODEL::BloodVessel source file.">
<polygon fill="none" stroke="black" points="308.46,-0.5 308.46,-19.5 424.46,-19.5 424.46,-0.5 308.46,-0.5"/>
<text text-anchor="middle" x="366.46" y="-7.5" font-family="Helvetica,sans-Serif" font-size="10.00">model/bloodvessel.hpp</text>
</a>
</g>
</g>
<!-- Node3&#45;&gt;Node6 -->
<g id="edge19" class="edge">
<title>Node3&#45;&gt;Node6</title>
<path fill="none" stroke="midnightblue" d="M759.22,-110.28C718.7,-101.49 660.27,-88.51 609.46,-76 532.71,-57.11 443.01,-32.44 397.05,-19.6"/>
<polygon fill="midnightblue" stroke="midnightblue" points="758.61,-113.73 769.12,-112.42 760.09,-106.89 758.61,-113.73"/>
</g>
<!-- Node7 -->
<g id="node7" class="node">
<title>Node7</title>
<g id="a_node7"><a xlink:href="closedloopheartpulmonary_8hpp.html" target="_top" xlink:title="MODEL::ClosedLoopHeartPulmonary source file.">
<polygon fill="none" stroke="black" points="896.46,-0.5 896.46,-19.5 1072.46,-19.5 1072.46,-0.5 896.46,-0.5"/>
<text text-anchor="middle" x="984.46" y="-7.5" font-family="Helvetica,sans-Serif" font-size="10.00">model/closedloopheartpulmonary.hpp</text>
</a>
</g>
</g>
<!-- Node3&#45;&gt;Node7 -->
<g id="edge20" class="edge">
<title>Node3&#45;&gt;Node7</title>
<path fill="none" stroke="midnightblue" d="M841.61,-108.58C861.04,-100.47 885.93,-89 906.46,-76 933.56,-58.84 961.55,-33.22 975.47,-19.85"/>
<polygon fill="midnightblue" stroke="midnightblue" points="840.21,-105.37 832.28,-112.39 842.86,-111.85 840.21,-105.37"/>
</g>
<!-- Node8 -->
<g id="node8" class="node">
<title>Node8</title>
<g id="a_node8"><a xlink:href="junction_8hpp.html" target="_top" xlink:title="MODEL::Junction source file.">
<polygon fill="none" stroke="black" points="442.46,-0.5 442.46,-19.5 540.46,-19.5 540.46,-0.5 442.46,-0.5"/>
<text text-anchor="middle" x="491.46" y="-7.5" font-family="Helvetica,sans-Serif" font-size="10.00">model/junction.hpp</text>
</a>
</g>
</g>
<!-- Node3&#45;&gt;Node8 -->
<g id="edge22" class="edge">
<title>Node3&#45;&gt;Node8</title>
<path fill="none" stroke="midnightblue" d="M771.12,-109.51C742.23,-100.72 701.7,-88.08 666.46,-76 610.97,-56.98 546.46,-32.36 513.43,-19.57"/>
<polygon fill="midnightblue" stroke="midnightblue" points="770.25,-112.91 780.83,-112.46 772.28,-106.21 770.25,-112.91"/>
</g>
<!-- Node9 -->
<g id="node9" class="node">
<title>Node9</title>
<g id="a_node9"><a xlink:href="openloopcoronarybc_8hpp.html" target="_top" xlink:title="MODEL::OpenLoopCoronaryBC source file.">
<polygon fill="none" stroke="black" points="728.46,-0.5 728.46,-19.5 878.46,-19.5 878.46,-0.5 728.46,-0.5"/>
<text text-anchor="middle" x="803.46" y="-7.5" font-family="Helvetica,sans-Serif" font-size="10.00">model/openloopcoronarybc.hpp</text>
</a>
</g>
</g>
<!-- Node3&#45;&gt;Node9 -->
<g id="edge24" class="edge">
<title>Node3&#45;&gt;Node9</title>
<path fill="none" stroke="midnightblue" d="M820.94,-103.42C828.02,-90.41 834.95,-72.21 830.46,-56 826.62,-42.13 817.23,-28.24 810.61,-19.64"/>
<polygon fill="midnightblue" stroke="midnightblue" points="817.8,-101.86 815.69,-112.24 823.81,-105.44 817.8,-101.86"/>
</g>
<!-- Node10 -->
<g id="node10" class="node">
<title>Node10</title>
<g id="a_node10"><a xlink:href="pressurereferencebc_8hpp.html" target="_top" xlink:title="MODEL::PressureReferenceBC source file.">
<polygon fill="none" stroke="black" points="558.46,-0.5 558.46,-19.5 710.46,-19.5 710.46,-0.5 558.46,-0.5"/>
<text text-anchor="middle" x="634.46" y="-7.5" font-family="Helvetica,sans-Serif" font-size="10.00">model/pressurereferencebc.hpp</text>
</a>
</g>
</g>
<!-- Node3&#45;&gt;Node10 -->
<g id="edge25" class="edge">
<title>Node3&#45;&gt;Node10</title>
<path fill="none" stroke="midnightblue" d="M764.65,-109.56C741.48,-102.3 713.51,-91.33 691.46,-76 668.78,-60.23 649.26,-33.55 640.07,-19.79"/>
<polygon fill="midnightblue" stroke="midnightblue" points="763.67,-112.92 774.25,-112.45 765.69,-106.22 763.67,-112.92"/>
</g>
<!-- Node11 -->
<g id="node11" class="node">
<title>Node11</title>
<g id="a_node11"><a xlink:href="resistancebc_8hpp.html" target="_top" xlink:title="MODEL::ResistanceBC source file.">
<polygon fill="none" stroke="black" points="170.96,-0.5 170.96,-19.5 289.96,-19.5 289.96,-0.5 170.96,-0.5"/>
<text text-anchor="middle" x="230.46" y="-7.5" font-family="Helvetica,sans-Serif" font-size="10.00">model/resistancebc.hpp</text>
</a>
</g>
</g>
<!-- Node3&#45;&gt;Node11 -->
<g id="edge26" class="edge">
<title>Node3&#45;&gt;Node11</title>
<path fill="none" stroke="midnightblue" d="M739.07,-110.96C682.94,-102.61 602.41,-89.89 532.46,-76 494.39,-68.44 485.35,-64.39 447.46,-56 387.16,-42.66 317.18,-28.36 273.35,-19.54"/>
<polygon fill="midnightblue" stroke="midnightblue" points="738.86,-114.46 749.26,-112.46 739.88,-107.54 738.86,-114.46"/>
</g>
<!-- Node12 -->
<g id="node12" class="node">
<title>Node12</title>
<g id="a_node12"><a xlink:href="windkesselbc_8hpp.html" target="_top" xlink:title="MODEL::WindkesselBC source file.">
<polygon fill="none" stroke="black" points="1090.96,-0.5 1090.96,-19.5 1213.96,-19.5 1213.96,-0.5 1090.96,-0.5"/>
<text text-anchor="middle" x="1152.46" y="-7.5" font-family="Helvetica,sans-Serif" font-size="10.00">model/windkesselbc.hpp</text>
</a>
</g>
</g>
<!-- Node3&#45;&gt;Node12 -->
<g id="edge27" class="edge">
<title>Node3&#45;&gt;Node12</title>
<path fill="none" stroke="midnightblue" d="M857.2,-110.09C892.17,-101.73 940.63,-89.39 982.46,-76 1037.53,-58.37 1100.74,-32.73 1132.31,-19.54"/>
<polygon fill="midnightblue" stroke="midnightblue" points="856.19,-106.73 847.26,-112.44 857.8,-113.54 856.19,-106.73"/>
</g>
<!-- Node5&#45;&gt;Node1 -->
<g id="edge8" class="edge">
<title>Node5&#45;&gt;Node1</title>
<path fill="none" stroke="midnightblue" d="M797.98,-69.72C828.03,-74.33 863.24,-85.52 882.46,-112 917.99,-160.96 822.44,-206.22 776.52,-224.48"/>
<polygon fill="midnightblue" stroke="midnightblue" points="798.39,-66.25 788.02,-68.4 797.47,-73.19 798.39,-66.25"/>
</g>
<!-- Node5&#45;&gt;Node6 -->
<g id="edge5" class="edge">
<title>Node5&#45;&gt;Node6</title>
<path fill="none" stroke="midnightblue" d="M690.73,-57.32C620.28,-47.26 497.16,-29.67 424.6,-19.31"/>
<polygon fill="midnightblue" stroke="midnightblue" points="690.33,-60.8 700.73,-58.75 691.32,-53.87 690.33,-60.8"/>
</g>
<!-- Node5&#45;&gt;Node7 -->
<g id="edge7" class="edge">
<title>Node5&#45;&gt;Node7</title>
<path fill="none" stroke="midnightblue" d="M792.38,-54.22C837.73,-44.01 904.9,-28.9 946.61,-19.52"/>
<polygon fill="midnightblue" stroke="midnightblue" points="791.48,-50.83 782.49,-56.44 793.01,-57.66 791.48,-50.83"/>
</g>
<!-- Node5&#45;&gt;Node8 -->
<g id="edge9" class="edge">
<title>Node5&#45;&gt;Node8</title>
<path fill="none" stroke="midnightblue" d="M694.54,-54.35C646.73,-44.14 575.51,-28.94 531.36,-19.52"/>
<polygon fill="midnightblue" stroke="midnightblue" points="693.86,-57.78 704.37,-56.44 695.32,-50.93 693.86,-57.78"/>
</g>
<!-- Node5&#45;&gt;Node9 -->
<g id="edge11" class="edge">
<title>Node5&#45;&gt;Node9</title>
<path fill="none" stroke="midnightblue" d="M761.35,-49.54C771.87,-39.91 785.03,-27.87 793.81,-19.83"/>
<polygon fill="midnightblue" stroke="midnightblue" points="758.95,-46.99 753.94,-56.32 763.68,-52.15 758.95,-46.99"/>
</g>
<!-- Node5&#45;&gt;Node10 -->
<g id="edge13" class="edge">
<title>Node5&#45;&gt;Node10</title>
<path fill="none" stroke="midnightblue" d="M717.7,-51.86C697.3,-41.85 669.79,-28.35 652.09,-19.65"/>
<polygon fill="midnightblue" stroke="midnightblue" points="716.27,-55.06 726.79,-56.32 719.35,-48.78 716.27,-55.06"/>
</g>
<!-- Node5&#45;&gt;Node11 -->
<g id="edge15" class="edge">
<title>Node5&#45;&gt;Node11</title>
<path fill="none" stroke="midnightblue" d="M690.8,-60.08C607.13,-52.29 440.52,-36.33 299.46,-20 296.46,-19.65 293.39,-19.29 290.28,-18.91"/>
<polygon fill="midnightblue" stroke="midnightblue" points="690.55,-63.57 700.83,-61.01 691.2,-56.6 690.55,-63.57"/>
</g>
<!-- Node5&#45;&gt;Node12 -->
<g id="edge17" class="edge">
<title>Node5&#45;&gt;Node12</title>
<path fill="none" stroke="midnightblue" d="M798.38,-57.86C874.04,-47.85 1011.36,-29.67 1090.93,-19.14"/>
<polygon fill="midnightblue" stroke="midnightblue" points="797.58,-54.44 788.12,-59.22 798.49,-61.38 797.58,-54.44"/>
</g>
<!-- Node6&#45;&gt;Node2 -->
<g id="edge6" class="edge">
<title>Node6&#45;&gt;Node2</title>
<path fill="none" stroke="midnightblue" d="M305.66,-21.34C196.01,-41.27 -19.87,-87.01 21.46,-132 53.88,-167.3 382.84,-174.94 505.06,-176.57"/>
<polygon fill="midnightblue" stroke="midnightblue" points="306.39,-24.76 315.61,-19.55 305.15,-17.88 306.39,-24.76"/>
</g>
<!-- Node8&#45;&gt;Node2 -->
<g id="edge10" class="edge">
<title>Node8&#45;&gt;Node2</title>
<path fill="none" stroke="midnightblue" d="M497.9,-29.12C510.49,-64.55 537.96,-141.83 547.29,-168.08"/>
<polygon fill="midnightblue" stroke="midnightblue" points="501.15,-27.82 494.5,-19.57 494.56,-30.16 501.15,-27.82"/>
</g>
<!-- Node9&#45;&gt;Node2 -->
<g id="edge12" class="edge">
<title>Node9&#45;&gt;Node2</title>
<path fill="none" stroke="midnightblue" d="M825.56,-25.83C858.35,-49.61 912.93,-97.11 882.46,-132 845.77,-174 677.78,-178.33 595.77,-177.86"/>
<polygon fill="midnightblue" stroke="midnightblue" points="827.16,-22.68 816.97,-19.79 823.13,-28.41 827.16,-22.68"/>
</g>
<!-- Node10&#45;&gt;Node2 -->
<g id="edge14" class="edge">
<title>Node10&#45;&gt;Node2</title>
<path fill="none" stroke="midnightblue" d="M625.52,-28.66C607.7,-63.88 568.31,-141.72 554.97,-168.08"/>
<polygon fill="midnightblue" stroke="midnightblue" points="628.73,-30.07 630.12,-19.57 622.48,-26.91 628.73,-30.07"/>
</g>
<!-- Node11&#45;&gt;Node2 -->
<g id="edge16" class="edge">
<title>Node11&#45;&gt;Node2</title>
<path fill="none" stroke="midnightblue" d="M170.02,-21.55C88.64,-38.21 -40.23,-74.72 12.46,-132 45.53,-167.96 381.61,-175.19 505.18,-176.64"/>
<polygon fill="midnightblue" stroke="midnightblue" points="171.06,-24.91 180.18,-19.52 169.69,-18.05 171.06,-24.91"/>
</g>
<!-- Node12&#45;&gt;Node2 -->
<g id="edge18" class="edge">
<title>Node12&#45;&gt;Node2</title>
<path fill="none" stroke="midnightblue" d="M1126.94,-24.39C1101.23,-37.78 1060.33,-58.8 1024.46,-76 969.93,-102.14 958.64,-115.52 900.46,-132 793.77,-162.22 662.98,-172.2 595.51,-175.46"/>
<polygon fill="midnightblue" stroke="midnightblue" points="1128.76,-27.39 1136.01,-19.66 1125.52,-21.18 1128.76,-27.39"/>
</g>
<!-- Node13&#45;&gt;Node4 -->
<g id="edge29" class="edge">
<title>Node13&#45;&gt;Node4</title>
<path fill="none" stroke="midnightblue" d="M125.16,-109.66C161.4,-99.3 214.07,-84.25 246.19,-75.08"/>
<polygon fill="midnightblue" stroke="midnightblue" points="124.06,-106.33 115.41,-112.44 125.98,-113.06 124.06,-106.33"/>
</g>
<!-- Node14&#45;&gt;Node1 -->
<g id="edge35" class="edge">
<title>Node14&#45;&gt;Node1</title>
<path fill="none" stroke="midnightblue" d="M675.99,-139.36C695.59,-163.05 731.17,-206.05 746.32,-224.37"/>
<polygon fill="midnightblue" stroke="midnightblue" points="678.64,-137.07 669.57,-131.59 673.24,-141.53 678.64,-137.07"/>
</g>
<!-- Node14&#45;&gt;Node2 -->
<g id="edge37" class="edge">
<title>Node14&#45;&gt;Node2</title>
<path fill="none" stroke="midnightblue" d="M640.84,-136.27C621.38,-146.31 593.13,-159.79 573.29,-168.44"/>
<polygon fill="midnightblue" stroke="midnightblue" points="642.66,-139.27 649.87,-131.52 639.4,-133.08 642.66,-139.27"/>
</g>
<!-- Node14&#45;&gt;Node4 -->
<g id="edge31" class="edge">
<title>Node14&#45;&gt;Node4</title>
<path fill="none" stroke="midnightblue" d="M590.96,-111.05C504.37,-99 362.67,-79.28 302.69,-70.93"/>
<polygon fill="midnightblue" stroke="midnightblue" points="590.59,-114.53 600.98,-112.44 591.56,-107.6 590.59,-114.53"/>
</g>
<!-- Node14&#45;&gt;Node5 -->
<g id="edge32" class="edge">
<title>Node14&#45;&gt;Node5</title>
<path fill="none" stroke="midnightblue" d="M684.29,-106.62C699.27,-96.76 718.66,-83.99 731.32,-75.65"/>
<polygon fill="midnightblue" stroke="midnightblue" points="682.06,-103.9 675.63,-112.32 685.91,-109.75 682.06,-103.9"/>
</g>
<!-- Node14&#45;&gt;Node6 -->
<g id="edge33" class="edge">
<title>Node14&#45;&gt;Node6</title>
<path fill="none" stroke="midnightblue" d="M623.16,-109.61C594.46,-101.04 554.75,-88.64 520.46,-76 470.9,-57.73 413.97,-32.59 385.2,-19.57"/>
<polygon fill="midnightblue" stroke="midnightblue" points="622.24,-112.99 632.82,-112.48 624.23,-106.28 622.24,-112.99"/>
</g>
<!-- Node14&#45;&gt;Node7 -->
<g id="edge34" class="edge">
<title>Node14&#45;&gt;Node7</title>
<path fill="none" stroke="midnightblue" d="M704.34,-109.67C735.25,-101.07 778.23,-88.61 815.46,-76 869.65,-57.64 932.2,-32.53 963.84,-19.55"/>
<polygon fill="midnightblue" stroke="midnightblue" points="703.05,-106.4 694.34,-112.44 704.91,-113.14 703.05,-106.4"/>
</g>
<!-- Node14&#45;&gt;Node8 -->
<g id="edge36" class="edge">
<title>Node14&#45;&gt;Node8</title>
<path fill="none" stroke="midnightblue" d="M616.67,-109.65C593.59,-102.47 566,-91.56 544.46,-76 522.74,-60.31 504.86,-33.6 496.52,-19.81"/>
<polygon fill="midnightblue" stroke="midnightblue" points="615.68,-113 626.26,-112.5 617.67,-106.29 615.68,-113"/>
</g>
<!-- Node14&#45;&gt;Node9 -->
<g id="edge38" class="edge">
<title>Node14&#45;&gt;Node9</title>
<path fill="none" stroke="midnightblue" d="M713.43,-110.11C747,-101.85 786.66,-89.61 797.46,-76 810.42,-59.66 807.85,-33.23 805.38,-19.66"/>
<polygon fill="midnightblue" stroke="midnightblue" points="712.61,-106.71 703.7,-112.44 714.24,-113.51 712.61,-106.71"/>
</g>
<!-- Node14&#45;&gt;Node10 -->
<g id="edge39" class="edge">
<title>Node14&#45;&gt;Node10</title>
<path fill="none" stroke="midnightblue" d="M657.79,-102.67C651.67,-78.62 641.18,-37.39 636.65,-19.59"/>
<polygon fill="midnightblue" stroke="midnightblue" points="654.4,-103.54 660.26,-112.37 661.19,-101.81 654.4,-103.54"/>
</g>
<!-- Node14&#45;&gt;Node11 -->
<g id="edge40" class="edge">
<title>Node14&#45;&gt;Node11</title>
<path fill="none" stroke="midnightblue" d="M614.11,-110.24C575,-101.41 518.56,-88.4 469.46,-76 394,-56.95 305.77,-32.34 260.55,-19.56"/>
<polygon fill="midnightblue" stroke="midnightblue" points="613.38,-113.67 623.91,-112.45 614.92,-106.84 613.38,-113.67"/>
</g>
<!-- Node14&#45;&gt;Node12 -->
<g id="edge41" class="edge">
<title>Node14&#45;&gt;Node12</title>
<path fill="none" stroke="midnightblue" d="M710.35,-110.25C807.54,-88.43 1026.18,-39.35 1114.44,-19.53"/>
<polygon fill="midnightblue" stroke="midnightblue" points="709.49,-106.85 700.5,-112.46 711.02,-113.68 709.49,-106.85"/>
</g>
<!-- Node15&#45;&gt;Node4 -->
<g id="edge43" class="edge">
<title>Node15&#45;&gt;Node4</title>
<path fill="none" stroke="midnightblue" d="M226.29,-105.82C238.3,-96.15 253.43,-83.95 263.5,-75.83"/>
<polygon fill="midnightblue" stroke="midnightblue" points="223.81,-103.32 218.22,-112.32 228.21,-108.77 223.81,-103.32"/>
</g>
<!-- Node16&#45;&gt;Node4 -->
<g id="edge45" class="edge">
<title>Node16&#45;&gt;Node4</title>
<path fill="none" stroke="midnightblue" d="M304.04,-104.14C296.54,-94.74 287.52,-83.4 281.43,-75.75"/>
<polygon fill="midnightblue" stroke="midnightblue" points="301.39,-106.44 310.36,-112.08 306.87,-102.08 301.39,-106.44"/>
</g>
<!-- Node17&#45;&gt;Node4 -->
<g id="edge47" class="edge">
<title>Node17&#45;&gt;Node4</title>
<path fill="none" stroke="midnightblue" d="M388.54,-108.91C360.9,-98.75 322.11,-84.51 297.64,-75.52"/>
<polygon fill="midnightblue" stroke="midnightblue" points="387.57,-112.28 398.17,-112.44 389.99,-105.71 387.57,-112.28"/>
</g>
</g>
</svg>
