<?xml version="1.0" encoding="UTF-8" standalone="no"?>
<!DOCTYPE svg PUBLIC "-//W3C//DTD SVG 1.1//EN"
 "http://www.w3.org/Graphics/SVG/1.1/DTD/svg11.dtd">
<!-- Generated by graphviz version 3.0.0 (20220413.0242)
 -->
<!-- Title: model/flowreference.hpp Pages: 1 -->
<svg width="1008pt" height="364pt"
 viewBox="0.00 0.00 1008.00 364.00" xmlns="http://www.w3.org/2000/svg" xmlns:xlink="http://www.w3.org/1999/xlink">
<g id="graph0" class="graph" transform="scale(1 1) rotate(0) translate(4 360)">
<title>model/flowreference.hpp</title>
<!-- Node1 -->
<g id="node1" class="node">
<title>Node1</title>
<g id="a_node1"><a xlink:title="MODEL::FlowReference source file.">
<polygon fill="#bfbfbf" stroke="black" points="454,-336.5 454,-355.5 576,-355.5 576,-336.5 454,-336.5"/>
<text text-anchor="middle" x="515" y="-343.5" font-family="Helvetica,sans-Serif" font-size="10.00">model/flowreference.hpp</text>
</a>
</g>
</g>
<!-- Node2 -->
<g id="node2" class="node">
<title>Node2</title>
<g id="a_node2"><a xlink:href="model_8hpp.html" target="_top" xlink:title="MODEL::Model source file.">
<polygon fill="none" stroke="black" points="601,-280.5 601,-299.5 691,-299.5 691,-280.5 601,-280.5"/>
<text text-anchor="middle" x="646" y="-287.5" font-family="Helvetica,sans-Serif" font-size="10.00">model/model.hpp</text>
</a>
</g>
</g>
<!-- Node1&#45;&gt;Node2 -->
<g id="edge1" class="edge">
<title>Node1&#45;&gt;Node2</title>
<path fill="none" stroke="midnightblue" d="M545.32,-332.5C569.88,-322.38 603.82,-308.39 625.34,-299.52"/>
<polygon fill="midnightblue" stroke="midnightblue" points="543.67,-329.4 535.76,-336.44 546.34,-335.87 543.67,-329.4"/>
</g>
<!-- Node3 -->
<g id="node3" class="node">
<title>Node3</title>
<g id="a_node3"><a xlink:href="integrator_8hpp.html" target="_top" xlink:title="ALGEBRA::Integrator source file.">
<polygon fill="none" stroke="black" points="890,-168.5 890,-187.5 1000,-187.5 1000,-168.5 890,-168.5"/>
<text text-anchor="middle" x="945" y="-175.5" font-family="Helvetica,sans-Serif" font-size="10.00">algebra/integrator.hpp</text>
</a>
</g>
</g>
<!-- Node2&#45;&gt;Node3 -->
<g id="edge2" class="edge">
<title>Node2&#45;&gt;Node3</title>
<path fill="none" stroke="midnightblue" d="M701.1,-285.26C768.41,-279.75 877.36,-267.44 910,-244 929.36,-230.09 939.07,-202.08 942.92,-187.8"/>
<polygon fill="midnightblue" stroke="midnightblue" points="700.77,-281.78 691.08,-286.06 701.33,-288.76 700.77,-281.78"/>
</g>
<!-- Node4 -->
<g id="node4" class="node">
<title>Node4</title>
<g id="a_node4"><a xlink:href="main_8cpp.html" target="_top" xlink:title="Main routine of svZeroDSolver.">
<polygon fill="none" stroke="black" points="727,-0.5 727,-19.5 783,-19.5 783,-0.5 727,-0.5"/>
<text text-anchor="middle" x="755" y="-7.5" font-family="Helvetica,sans-Serif" font-size="10.00">main.cpp</text>
</a>
</g>
</g>
<!-- Node2&#45;&gt;Node4 -->
<g id="edge28" class="edge">
<title>Node2&#45;&gt;Node4</title>
<path fill="none" stroke="midnightblue" d="M659.05,-272.5C665.11,-264.28 672.04,-253.98 677,-244 716.13,-165.2 710.48,-139.23 739,-56 743.35,-43.29 748.6,-28.65 751.87,-19.61"/>
<polygon fill="midnightblue" stroke="midnightblue" points="656.24,-270.42 652.96,-280.5 661.8,-274.66 656.24,-270.42"/>
</g>
<!-- Node5 -->
<g id="node5" class="node">
<title>Node5</title>
<g id="a_node5"><a xlink:href="sparsesystem_8hpp.html" target="_top" xlink:title="ALGEBRA::SparseSystem source file.">
<polygon fill="none" stroke="black" points="450,-224.5 450,-243.5 580,-243.5 580,-224.5 450,-224.5"/>
<text text-anchor="middle" x="515" y="-231.5" font-family="Helvetica,sans-Serif" font-size="10.00">algebra/sparsesystem.hpp</text>
</a>
</g>
</g>
<!-- Node2&#45;&gt;Node5 -->
<g id="edge4" class="edge">
<title>Node2&#45;&gt;Node5</title>
<path fill="none" stroke="midnightblue" d="M610.58,-276.77C584.45,-266.63 550.32,-252.47 530.58,-243.52"/>
<polygon fill="midnightblue" stroke="midnightblue" points="609.56,-280.13 620.15,-280.44 612.07,-273.6 609.56,-280.13"/>
</g>
<!-- Node10 -->
<g id="node10" class="node">
<title>Node10</title>
<g id="a_node10"><a xlink:href="configreader_8hpp.html" target="_top" xlink:title="IO::ConfigReader source file.">
<polygon fill="none" stroke="black" points="594,-56.5 594,-75.5 692,-75.5 692,-56.5 594,-56.5"/>
<text text-anchor="middle" x="643" y="-63.5" font-family="Helvetica,sans-Serif" font-size="10.00">io/configreader.hpp</text>
</a>
</g>
</g>
<!-- Node2&#45;&gt;Node10 -->
<g id="edge23" class="edge">
<title>Node2&#45;&gt;Node10</title>
<path fill="none" stroke="midnightblue" d="M652.52,-270.5C663.03,-237.99 681.17,-168.66 667,-112 663.61,-98.43 655.26,-84.47 649.37,-75.77"/>
<polygon fill="midnightblue" stroke="midnightblue" points="649.07,-269.79 649.19,-280.39 655.7,-272.03 649.07,-269.79"/>
</g>
<!-- Node12 -->
<g id="node12" class="node">
<title>Node12</title>
<g id="a_node12"><a xlink:href="csvwriter_8hpp.html" target="_top" xlink:title="IO::write_csv source file.">
<polygon fill="none" stroke="black" points="748.5,-56.5 748.5,-75.5 833.5,-75.5 833.5,-56.5 748.5,-56.5"/>
<text text-anchor="middle" x="791" y="-63.5" font-family="Helvetica,sans-Serif" font-size="10.00">io/csvwriter.hpp</text>
</a>
</g>
</g>
<!-- Node2&#45;&gt;Node12 -->
<g id="edge24" class="edge">
<title>Node2&#45;&gt;Node12</title>
<path fill="none" stroke="midnightblue" d="M687.85,-276.92C705.53,-269.9 725,-259.33 738,-244 782.4,-191.65 789.61,-103.14 790.77,-75.5"/>
<polygon fill="midnightblue" stroke="midnightblue" points="686.43,-273.71 678.27,-280.46 688.86,-280.28 686.43,-273.71"/>
</g>
<!-- Node13 -->
<g id="node13" class="node">
<title>Node13</title>
<g id="a_node13"><a xlink:href="jsonwriter_8hpp.html" target="_top" xlink:title="IO::write_json source file.">
<polygon fill="none" stroke="black" points="814.5,-224.5 814.5,-243.5 901.5,-243.5 901.5,-224.5 814.5,-224.5"/>
<text text-anchor="middle" x="858" y="-231.5" font-family="Helvetica,sans-Serif" font-size="10.00">io/jsonwriter.hpp</text>
</a>
</g>
</g>
<!-- Node2&#45;&gt;Node13 -->
<g id="edge26" class="edge">
<title>Node2&#45;&gt;Node13</title>
<path fill="none" stroke="midnightblue" d="M689.35,-277.96C729.39,-267.76 788.03,-252.82 824.57,-243.52"/>
<polygon fill="midnightblue" stroke="midnightblue" points="688.42,-274.58 679.59,-280.44 690.15,-281.37 688.42,-274.58"/>
</g>
<!-- Node3&#45;&gt;Node4 -->
<g id="edge3" class="edge">
<title>Node3&#45;&gt;Node4</title>
<path fill="none" stroke="midnightblue" d="M939.04,-158.52C929.66,-132.22 909.06,-84.09 876,-56 849.1,-33.14 809.5,-21.38 783.01,-15.71"/>
<polygon fill="midnightblue" stroke="midnightblue" points="935.84,-159.99 942.37,-168.33 942.47,-157.73 935.84,-159.99"/>
</g>
<!-- Node5&#45;&gt;Node1 -->
<g id="edge19" class="edge">
<title>Node5&#45;&gt;Node1</title>
<path fill="none" stroke="midnightblue" d="M515,-253.6C515,-277.67 515,-318.62 515,-336.37"/>
<polygon fill="midnightblue" stroke="midnightblue" points="518.5,-253.59 515,-243.59 511.5,-253.59 518.5,-253.59"/>
</g>
<!-- Node5&#45;&gt;Node2 -->
<g id="edge21" class="edge">
<title>Node5&#45;&gt;Node2</title>
<path fill="none" stroke="midnightblue" d="M550.3,-247.18C576.41,-257.31 610.55,-271.48 630.33,-280.44"/>
<polygon fill="midnightblue" stroke="midnightblue" points="551.33,-243.83 540.74,-243.52 548.82,-250.36 551.33,-243.83"/>
</g>
<!-- Node5&#45;&gt;Node4 -->
<g id="edge5" class="edge">
<title>Node5&#45;&gt;Node4</title>
<path fill="none" stroke="midnightblue" d="M516.25,-214.12C519.81,-176.95 533.43,-94.55 585,-56 627.55,-24.19 690.79,-14.83 726.94,-12.1"/>
<polygon fill="midnightblue" stroke="midnightblue" points="512.76,-213.86 515.43,-224.11 519.73,-214.43 512.76,-213.86"/>
</g>
<!-- Node6 -->
<g id="node6" class="node">
<title>Node6</title>
<g id="a_node6"><a xlink:href="block_8hpp.html" target="_top" xlink:title="MODEL::Block source file.">
<polygon fill="none" stroke="black" points="374.5,-168.5 374.5,-187.5 461.5,-187.5 461.5,-168.5 374.5,-168.5"/>
<text text-anchor="middle" x="418" y="-175.5" font-family="Helvetica,sans-Serif" font-size="10.00">model/block.hpp</text>
</a>
</g>
</g>
<!-- Node5&#45;&gt;Node6 -->
<g id="edge6" class="edge">
<title>Node5&#45;&gt;Node6</title>
<path fill="none" stroke="midnightblue" d="M490.66,-219.45C472.76,-209.48 448.95,-196.23 433.55,-187.65"/>
<polygon fill="midnightblue" stroke="midnightblue" points="488.98,-222.52 499.42,-224.32 492.38,-216.4 488.98,-222.52"/>
</g>
<!-- Node7 -->
<g id="node7" class="node">
<title>Node7</title>
<g id="a_node7"><a xlink:href="bloodvessel_8hpp.html" target="_top" xlink:title="MODEL::BloodVessel source file.">
<polygon fill="none" stroke="black" points="0,-112.5 0,-131.5 116,-131.5 116,-112.5 0,-112.5"/>
<text text-anchor="middle" x="58" y="-119.5" font-family="Helvetica,sans-Serif" font-size="10.00">model/bloodvessel.hpp</text>
</a>
</g>
</g>
<!-- Node5&#45;&gt;Node7 -->
<g id="edge17" class="edge">
<title>Node5&#45;&gt;Node7</title>
<path fill="none" stroke="midnightblue" d="M465.32,-222.29C424.58,-213.41 365.46,-200.29 314,-188 233.27,-168.72 138.73,-144.21 90.26,-131.5"/>
<polygon fill="midnightblue" stroke="midnightblue" points="464.74,-225.75 475.26,-224.45 466.23,-218.91 464.74,-225.75"/>
</g>
<!-- Node8 -->
<g id="node8" class="node">
<title>Node8</title>
<g id="a_node8"><a xlink:href="closedloopheartpulmonary_8hpp.html" target="_top" xlink:title="MODEL::ClosedLoopHeartPulmonary source file.">
<polygon fill="none" stroke="black" points="134,-112.5 134,-131.5 310,-131.5 310,-112.5 134,-112.5"/>
<text text-anchor="middle" x="222" y="-119.5" font-family="Helvetica,sans-Serif" font-size="10.00">model/closedloopheartpulmonary.hpp</text>
</a>
</g>
</g>
<!-- Node5&#45;&gt;Node8 -->
<g id="edge18" class="edge">
<title>Node5&#45;&gt;Node8</title>
<path fill="none" stroke="midnightblue" d="M471.98,-221.76C441.72,-213.45 400.45,-201.3 365,-188 318.28,-170.46 265.28,-144.78 238.85,-131.56"/>
<polygon fill="midnightblue" stroke="midnightblue" points="471.23,-225.18 481.8,-224.43 473.07,-218.43 471.23,-225.18"/>
</g>
<!-- Node9 -->
<g id="node9" class="node">
<title>Node9</title>
<g id="a_node9"><a xlink:href="junction_8hpp.html" target="_top" xlink:title="MODEL::Junction source file.">
<polygon fill="none" stroke="black" points="560,-112.5 560,-131.5 658,-131.5 658,-112.5 560,-112.5"/>
<text text-anchor="middle" x="609" y="-119.5" font-family="Helvetica,sans-Serif" font-size="10.00">model/junction.hpp</text>
</a>
</g>
</g>
<!-- Node5&#45;&gt;Node9 -->
<g id="edge20" class="edge">
<title>Node5&#45;&gt;Node9</title>
<path fill="none" stroke="midnightblue" d="M529.03,-216.59C549.29,-192.87 586.04,-149.87 601.66,-131.59"/>
<polygon fill="midnightblue" stroke="midnightblue" points="526.21,-214.49 522.38,-224.37 531.53,-219.04 526.21,-214.49"/>
</g>
<!-- Node11 -->
<g id="node11" class="node">
<title>Node11</title>
<g id="a_node11"><a xlink:href="rcrblockwithdistalpressure_8hpp.html" target="_top" xlink:title="MODEL::RCRBlockWithDistalPressure source file.">
<polygon fill="none" stroke="black" points="327.5,-112.5 327.5,-131.5 504.5,-131.5 504.5,-112.5 327.5,-112.5"/>
<text text-anchor="middle" x="416" y="-119.5" font-family="Helvetica,sans-Serif" font-size="10.00">model/rcrblockwithdistalpressure.hpp</text>
</a>
</g>
</g>
<!-- Node5&#45;&gt;Node11 -->
<g id="edge22" class="edge">
<title>Node5&#45;&gt;Node11</title>
<path fill="none" stroke="midnightblue" d="M504.78,-215.63C496.34,-201.97 483.57,-182.83 470,-168 457.15,-153.95 439.91,-140.31 428.4,-131.8"/>
<polygon fill="midnightblue" stroke="midnightblue" points="501.96,-217.71 510.12,-224.47 507.95,-214.1 501.96,-217.71"/>
</g>
<!-- Node6&#45;&gt;Node1 -->
<g id="edge10" class="edge">
<title>Node6&#45;&gt;Node1</title>
<path fill="none" stroke="midnightblue" d="M423.01,-197.64C426.97,-210.97 433.13,-229.12 441,-244 460.6,-281.09 492.71,-319.66 507.32,-336.4"/>
<polygon fill="midnightblue" stroke="midnightblue" points="426.3,-196.42 420.22,-187.75 419.57,-198.32 426.3,-196.42"/>
</g>
<!-- Node6&#45;&gt;Node7 -->
<g id="edge7" class="edge">
<title>Node6&#45;&gt;Node7</title>
<path fill="none" stroke="midnightblue" d="M364.28,-168.94C297.27,-158.89 183.2,-141.78 114.79,-131.52"/>
<polygon fill="midnightblue" stroke="midnightblue" points="363.81,-172.41 374.22,-170.43 364.85,-165.49 363.81,-172.41"/>
</g>
<!-- Node6&#45;&gt;Node8 -->
<g id="edge9" class="edge">
<title>Node6&#45;&gt;Node8</title>
<path fill="none" stroke="midnightblue" d="M376.98,-165.7C339.99,-155.51 286.4,-140.74 252.91,-131.52"/>
<polygon fill="midnightblue" stroke="midnightblue" points="376.37,-169.16 386.94,-168.44 378.23,-162.41 376.37,-169.16"/>
</g>
<!-- Node6&#45;&gt;Node9 -->
<g id="edge11" class="edge">
<title>Node6&#45;&gt;Node9</title>
<path fill="none" stroke="midnightblue" d="M457.97,-165.7C494.02,-155.51 546.24,-140.74 578.88,-131.52"/>
<polygon fill="midnightblue" stroke="midnightblue" points="456.94,-162.35 448.26,-168.44 458.84,-169.09 456.94,-162.35"/>
</g>
<!-- Node6&#45;&gt;Node11 -->
<g id="edge15" class="edge">
<title>Node6&#45;&gt;Node11</title>
<path fill="none" stroke="midnightblue" d="M417.29,-157.8C416.96,-148.91 416.58,-138.78 416.32,-131.75"/>
<polygon fill="midnightblue" stroke="midnightblue" points="413.8,-158.22 417.67,-168.08 420.8,-157.96 413.8,-158.22"/>
</g>
<!-- Node7&#45;&gt;Node2 -->
<g id="edge8" class="edge">
<title>Node7&#45;&gt;Node2</title>
<path fill="none" stroke="midnightblue" d="M88.61,-135.35C123.31,-149.13 181.72,-171.61 233,-188 365.54,-230.36 526.81,-265.1 602.65,-280.47"/>
<polygon fill="midnightblue" stroke="midnightblue" points="89.65,-132 79.06,-131.54 87.05,-138.5 89.65,-132"/>
</g>
<!-- Node9&#45;&gt;Node2 -->
<g id="edge14" class="edge">
<title>Node9&#45;&gt;Node2</title>
<path fill="none" stroke="midnightblue" d="M614.63,-141.16C617.06,-149.32 619.84,-159.1 622,-168 632.17,-209.83 641.17,-260.57 644.56,-280.44"/>
<polygon fill="midnightblue" stroke="midnightblue" points="617.97,-140.12 611.71,-131.57 611.27,-142.15 617.97,-140.12"/>
</g>
<!-- Node9&#45;&gt;Node10 -->
<g id="edge12" class="edge">
<title>Node9&#45;&gt;Node10</title>
<path fill="none" stroke="midnightblue" d="M619.98,-103.57C625.83,-94.27 632.77,-83.25 637.49,-75.75"/>
<polygon fill="midnightblue" stroke="midnightblue" points="616.98,-101.76 614.61,-112.08 622.9,-105.49 616.98,-101.76"/>
</g>
<!-- Node10&#45;&gt;Node4 -->
<g id="edge13" class="edge">
<title>Node10&#45;&gt;Node4</title>
<path fill="none" stroke="midnightblue" d="M670.25,-51.86C691.02,-41.85 719.02,-28.35 737.05,-19.65"/>
<polygon fill="midnightblue" stroke="midnightblue" points="668.48,-48.83 660.99,-56.32 671.52,-55.13 668.48,-48.83"/>
</g>
<!-- Node11&#45;&gt;Node2 -->
<g id="edge16" class="edge">
<title>Node11&#45;&gt;Node2</title>
<path fill="none" stroke="midnightblue" d="M444.28,-135.97C480.07,-153.14 542.65,-185.77 589,-224 610.07,-241.38 629.99,-266.9 639.75,-280.2"/>
<polygon fill="midnightblue" stroke="midnightblue" points="445.46,-132.65 434.93,-131.54 442.47,-138.98 445.46,-132.65"/>
</g>
<!-- Node12&#45;&gt;Node4 -->
<g id="edge25" class="edge">
<title>Node12&#45;&gt;Node4</title>
<path fill="none" stroke="midnightblue" d="M779.38,-47.57C773.18,-38.27 765.83,-27.25 760.83,-19.75"/>
<polygon fill="midnightblue" stroke="midnightblue" points="776.6,-49.7 785.06,-56.08 782.42,-45.82 776.6,-49.7"/>
</g>
<!-- Node13&#45;&gt;Node4 -->
<g id="edge27" class="edge">
<title>Node13&#45;&gt;Node4</title>
<path fill="none" stroke="midnightblue" d="M861.75,-214.22C867.57,-179.65 874.94,-105 842,-56 828.53,-35.96 803.23,-24.31 783.38,-17.9"/>
<polygon fill="midnightblue" stroke="midnightblue" points="858.26,-213.85 859.9,-224.31 865.15,-215.11 858.26,-213.85"/>
</g>
</g>
</svg>
