<?xml version="1.0" encoding="UTF-8" standalone="no"?>
<!DOCTYPE svg PUBLIC "-//W3C//DTD SVG 1.1//EN"
 "http://www.w3.org/Graphics/SVG/1.1/DTD/svg11.dtd">
<!-- Generated by graphviz version 3.0.0 (20220413.0242)
 -->
<!-- Title: model/flowreference.hpp Pages: 1 -->
<svg width="681pt" height="252pt"
 viewBox="0.00 0.00 680.50 252.00" xmlns="http://www.w3.org/2000/svg" xmlns:xlink="http://www.w3.org/1999/xlink">
<g id="graph0" class="graph" transform="scale(1 1) rotate(0) translate(4 248)">
<title>model/flowreference.hpp</title>
<!-- Node1 -->
<g id="node1" class="node">
<title>Node1</title>
<g id="a_node1"><a xlink:title="MODEL::FlowReference source file.">
<polygon fill="#bfbfbf" stroke="black" points="246,-224.5 246,-243.5 368,-243.5 368,-224.5 246,-224.5"/>
<text text-anchor="middle" x="307" y="-231.5" font-family="Helvetica,sans-Serif" font-size="10.00">model/flowreference.hpp</text>
</a>
</g>
</g>
<!-- Node2 -->
<g id="node2" class="node">
<title>Node2</title>
<g id="a_node2"><a xlink:href="densesystem_8hpp.html" target="_top" xlink:title="ALGEBRA::DenseSystem source file.">
<polygon fill="none" stroke="black" points="0,-112.5 0,-131.5 134,-131.5 134,-112.5 0,-112.5"/>
<text text-anchor="middle" x="67" y="-119.5" font-family="Helvetica,sans-Serif" font-size="10.00">../algebra/densesystem.hpp</text>
</a>
</g>
</g>
<!-- Node1&#45;&gt;Node2 -->
<g id="edge1" class="edge">
<title>Node1&#45;&gt;Node2</title>
<path fill="none" stroke="midnightblue" d="M288.17,-224.37C246.11,-205.09 144.35,-158.45 94.9,-135.79"/>
<polygon fill="midnightblue" stroke="midnightblue" points="96.29,-132.58 85.74,-131.59 93.38,-138.94 96.29,-132.58"/>
</g>
<!-- Node4 -->
<g id="node4" class="node">
<title>Node4</title>
<g id="a_node4"><a xlink:href="sparsesystem_8hpp.html" target="_top" xlink:title="ALGEBRA::SparseSystem source file.">
<polygon fill="none" stroke="black" points="152.5,-112.5 152.5,-131.5 289.5,-131.5 289.5,-112.5 152.5,-112.5"/>
<text text-anchor="middle" x="221" y="-119.5" font-family="Helvetica,sans-Serif" font-size="10.00">../algebra/sparsesystem.hpp</text>
</a>
</g>
</g>
<!-- Node1&#45;&gt;Node4 -->
<g id="edge3" class="edge">
<title>Node1&#45;&gt;Node4</title>
<path fill="none" stroke="midnightblue" d="M300.25,-224.37C286,-206.14 252.61,-163.43 234.04,-139.68"/>
<polygon fill="midnightblue" stroke="midnightblue" points="236.63,-137.31 227.72,-131.59 231.12,-141.63 236.63,-137.31"/>
</g>
<!-- Node7 -->
<g id="node7" class="node">
<title>Node7</title>
<g id="a_node7"><a xlink:href="block_8hpp.html" target="_top" xlink:title="MODEL::Block source file.">
<polygon fill="none" stroke="black" points="307,-168.5 307,-187.5 365,-187.5 365,-168.5 307,-168.5"/>
<text text-anchor="middle" x="336" y="-175.5" font-family="Helvetica,sans-Serif" font-size="10.00">block.hpp</text>
</a>
</g>
</g>
<!-- Node1&#45;&gt;Node7 -->
<g id="edge6" class="edge">
<title>Node1&#45;&gt;Node7</title>
<path fill="none" stroke="midnightblue" d="M311.79,-224.08C315.76,-216.69 321.53,-205.95 326.43,-196.81"/>
<polygon fill="midnightblue" stroke="midnightblue" points="329.65,-198.22 331.3,-187.75 323.49,-194.91 329.65,-198.22"/>
</g>
<!-- Node13 -->
<g id="node13" class="node">
<title>Node13</title>
<g id="a_node13"><a xlink:href="timedependentparameter_8hpp.html" target="_top" xlink:title="MODEL::TimeDependentParameter source file.">
<polygon fill="none" stroke="black" points="512,-112.5 512,-131.5 654,-131.5 654,-112.5 512,-112.5"/>
<text text-anchor="middle" x="583" y="-119.5" font-family="Helvetica,sans-Serif" font-size="10.00">timedependentparameter.hpp</text>
</a>
</g>
</g>
<!-- Node1&#45;&gt;Node13 -->
<g id="edge17" class="edge">
<title>Node1&#45;&gt;Node13</title>
<path fill="none" stroke="midnightblue" d="M328.66,-224.37C377.33,-204.97 495.51,-157.87 551.97,-135.37"/>
<polygon fill="midnightblue" stroke="midnightblue" points="553.45,-138.55 561.44,-131.59 550.86,-132.04 553.45,-138.55"/>
</g>
<!-- Node3 -->
<g id="node3" class="node">
<title>Node3</title>
<g id="a_node3"><a xlink:title=" ">
<polygon fill="none" stroke="#bfbfbf" points="31.5,-56.5 31.5,-75.5 102.5,-75.5 102.5,-56.5 31.5,-56.5"/>
<text text-anchor="middle" x="67" y="-63.5" font-family="Helvetica,sans-Serif" font-size="10.00">Eigen/Dense</text>
</a>
</g>
</g>
<!-- Node2&#45;&gt;Node3 -->
<g id="edge2" class="edge">
<title>Node2&#45;&gt;Node3</title>
<path fill="none" stroke="midnightblue" d="M67,-112.08C67,-105.01 67,-94.86 67,-85.99"/>
<polygon fill="midnightblue" stroke="midnightblue" points="70.5,-85.75 67,-75.75 63.5,-85.75 70.5,-85.75"/>
</g>
<!-- Node5 -->
<g id="node5" class="node">
<title>Node5</title>
<g id="a_node5"><a xlink:title=" ">
<polygon fill="none" stroke="#bfbfbf" points="125,-56.5 125,-75.5 199,-75.5 199,-56.5 125,-56.5"/>
<text text-anchor="middle" x="162" y="-63.5" font-family="Helvetica,sans-Serif" font-size="10.00">Eigen/Sparse</text>
</a>
</g>
</g>
<!-- Node4&#45;&gt;Node5 -->
<g id="edge4" class="edge">
<title>Node4&#45;&gt;Node5</title>
<path fill="none" stroke="midnightblue" d="M211.52,-112.32C202.8,-104.34 189.66,-92.31 179.1,-82.65"/>
<polygon fill="midnightblue" stroke="midnightblue" points="181.39,-80 171.65,-75.83 176.67,-85.17 181.39,-80"/>
</g>
<!-- Node6 -->
<g id="node6" class="node">
<title>Node6</title>
<g id="a_node6"><a xlink:title=" ">
<polygon fill="none" stroke="#bfbfbf" points="217,-56.5 217,-75.5 305,-75.5 305,-56.5 217,-56.5"/>
<text text-anchor="middle" x="261" y="-63.5" font-family="Helvetica,sans-Serif" font-size="10.00">Eigen/SparseLU</text>
</a>
</g>
</g>
<!-- Node4&#45;&gt;Node6 -->
<g id="edge5" class="edge">
<title>Node4&#45;&gt;Node6</title>
<path fill="none" stroke="midnightblue" d="M227.61,-112.08C233.26,-104.46 241.54,-93.26 248.45,-83.94"/>
<polygon fill="midnightblue" stroke="midnightblue" points="251.38,-85.87 254.52,-75.75 245.75,-81.7 251.38,-85.87"/>
</g>
<!-- Node7&#45;&gt;Node2 -->
<g id="edge15" class="edge">
<title>Node7&#45;&gt;Node2</title>
<path fill="none" stroke="midnightblue" d="M306.96,-171.17C262.19,-162.18 175.67,-144.81 119.67,-133.57"/>
<polygon fill="midnightblue" stroke="midnightblue" points="120.08,-130.09 109.59,-131.55 118.7,-136.95 120.08,-130.09"/>
</g>
<!-- Node7&#45;&gt;Node4 -->
<g id="edge16" class="edge">
<title>Node7&#45;&gt;Node4</title>
<path fill="none" stroke="midnightblue" d="M317.78,-168.44C299.1,-159.68 269.84,-145.94 248.38,-135.86"/>
<polygon fill="midnightblue" stroke="midnightblue" points="249.68,-132.6 239.14,-131.52 246.7,-138.93 249.68,-132.6"/>
</g>
<!-- Node8 -->
<g id="node8" class="node">
<title>Node8</title>
<g id="a_node8"><a xlink:title=" ">
<polygon fill="none" stroke="#bfbfbf" points="462,-0.5 462,-19.5 506,-19.5 506,-0.5 462,-0.5"/>
<text text-anchor="middle" x="484" y="-7.5" font-family="Helvetica,sans-Serif" font-size="10.00">vector</text>
</a>
</g>
</g>
<!-- Node7&#45;&gt;Node8 -->
<g id="edge7" class="edge">
<title>Node7&#45;&gt;Node8</title>
<path fill="none" stroke="midnightblue" d="M365.18,-175.08C394.73,-171.49 439.47,-161.23 464,-132 488.44,-102.88 488.52,-55.51 486.33,-29.52"/>
<polygon fill="midnightblue" stroke="midnightblue" points="489.8,-29.09 485.28,-19.51 482.84,-29.82 489.8,-29.09"/>
</g>
<!-- Node9 -->
<g id="node9" class="node">
<title>Node9</title>
<g id="a_node9"><a xlink:title=" ">
<polygon fill="none" stroke="#bfbfbf" points="420.5,-112.5 420.5,-131.5 455.5,-131.5 455.5,-112.5 420.5,-112.5"/>
<text text-anchor="middle" x="438" y="-119.5" font-family="Helvetica,sans-Serif" font-size="10.00">map</text>
</a>
</g>
</g>
<!-- Node7&#45;&gt;Node9 -->
<g id="edge8" class="edge">
<title>Node7&#45;&gt;Node9</title>
<path fill="none" stroke="midnightblue" d="M352.39,-168.32C368.67,-159.7 393.87,-146.36 412.72,-136.39"/>
<polygon fill="midnightblue" stroke="midnightblue" points="414.45,-139.43 421.65,-131.65 411.18,-133.24 414.45,-139.43"/>
</g>
<!-- Node10 -->
<g id="node10" class="node">
<title>Node10</title>
<g id="a_node10"><a xlink:href="node_8hpp.html" target="_top" xlink:title="MODEL::Node source file.">
<polygon fill="none" stroke="black" points="308,-112.5 308,-131.5 364,-131.5 364,-112.5 308,-112.5"/>
<text text-anchor="middle" x="336" y="-119.5" font-family="Helvetica,sans-Serif" font-size="10.00">node.hpp</text>
</a>
</g>
</g>
<!-- Node7&#45;&gt;Node10 -->
<g id="edge9" class="edge">
<title>Node7&#45;&gt;Node10</title>
<path fill="none" stroke="midnightblue" d="M336,-168.08C336,-161.01 336,-150.86 336,-141.99"/>
<polygon fill="midnightblue" stroke="midnightblue" points="339.5,-141.75 336,-131.75 332.5,-141.75 339.5,-141.75"/>
</g>
<!-- Node12 -->
<g id="node12" class="node">
<title>Node12</title>
<g id="a_node12"><a xlink:href="dofhandler_8hpp.html" target="_top" xlink:title="MODEL::DOFHandler source file.">
<polygon fill="none" stroke="black" points="364,-56.5 364,-75.5 444,-75.5 444,-56.5 364,-56.5"/>
<text text-anchor="middle" x="404" y="-63.5" font-family="Helvetica,sans-Serif" font-size="10.00">dofhandler.hpp</text>
</a>
</g>
</g>
<!-- Node7&#45;&gt;Node12 -->
<g id="edge14" class="edge">
<title>Node7&#45;&gt;Node12</title>
<path fill="none" stroke="midnightblue" d="M344.34,-168.19C352.34,-159.46 364.42,-145.48 373,-132 382.53,-117.02 391.03,-98.65 396.71,-85.27"/>
<polygon fill="midnightblue" stroke="midnightblue" points="400.05,-86.34 400.62,-75.76 393.58,-83.68 400.05,-86.34"/>
</g>
<!-- Node11 -->
<g id="node11" class="node">
<title>Node11</title>
<g id="a_node11"><a xlink:title=" ">
<polygon fill="none" stroke="#bfbfbf" points="349.5,-0.5 349.5,-19.5 390.5,-19.5 390.5,-0.5 349.5,-0.5"/>
<text text-anchor="middle" x="370" y="-7.5" font-family="Helvetica,sans-Serif" font-size="10.00">string</text>
</a>
</g>
</g>
<!-- Node10&#45;&gt;Node11 -->
<g id="edge10" class="edge">
<title>Node10&#45;&gt;Node11</title>
<path fill="none" stroke="midnightblue" d="M338.48,-112.14C342.01,-99.6 348.75,-75.97 355,-56 357.77,-47.15 361,-37.37 363.76,-29.2"/>
<polygon fill="midnightblue" stroke="midnightblue" points="367.12,-30.19 367.03,-19.6 360.49,-27.94 367.12,-30.19"/>
</g>
<!-- Node10&#45;&gt;Node12 -->
<g id="edge11" class="edge">
<title>Node10&#45;&gt;Node12</title>
<path fill="none" stroke="midnightblue" d="M346.93,-112.32C357.17,-104.18 372.72,-91.84 385,-82.09"/>
<polygon fill="midnightblue" stroke="midnightblue" points="387.22,-84.79 392.88,-75.83 382.87,-79.31 387.22,-84.79"/>
</g>
<!-- Node12&#45;&gt;Node8 -->
<g id="edge12" class="edge">
<title>Node12&#45;&gt;Node8</title>
<path fill="none" stroke="midnightblue" d="M416.85,-56.32C429.22,-47.98 448.13,-35.21 462.74,-25.35"/>
<polygon fill="midnightblue" stroke="midnightblue" points="464.85,-28.15 471.18,-19.65 460.93,-22.35 464.85,-28.15"/>
</g>
<!-- Node12&#45;&gt;Node11 -->
<g id="edge13" class="edge">
<title>Node12&#45;&gt;Node11</title>
<path fill="none" stroke="midnightblue" d="M398.39,-56.08C393.63,-48.53 386.68,-37.49 380.85,-28.23"/>
<polygon fill="midnightblue" stroke="midnightblue" points="383.8,-26.35 375.51,-19.75 377.88,-30.08 383.8,-26.35"/>
</g>
<!-- Node13&#45;&gt;Node8 -->
<g id="edge19" class="edge">
<title>Node13&#45;&gt;Node8</title>
<path fill="none" stroke="midnightblue" d="M575.23,-112.37C558.68,-93.97 519.7,-50.67 498.45,-27.05"/>
<polygon fill="midnightblue" stroke="midnightblue" points="501.02,-24.68 491.73,-19.59 495.82,-29.37 501.02,-24.68"/>
</g>
<!-- Node13&#45;&gt;Node12 -->
<g id="edge21" class="edge">
<title>Node13&#45;&gt;Node12</title>
<path fill="none" stroke="midnightblue" d="M554.64,-112.44C524.26,-103.28 475.89,-88.69 442.18,-78.52"/>
<polygon fill="midnightblue" stroke="midnightblue" points="442.82,-75.05 432.23,-75.52 440.79,-81.76 442.82,-75.05"/>
</g>
<!-- Node14 -->
<g id="node14" class="node">
<title>Node14</title>
<g id="a_node14"><a xlink:title=" ">
<polygon fill="none" stroke="#bfbfbf" points="557,-56.5 557,-75.5 603,-75.5 603,-56.5 557,-56.5"/>
<text text-anchor="middle" x="580" y="-63.5" font-family="Helvetica,sans-Serif" font-size="10.00">math.h</text>
</a>
</g>
</g>
<!-- Node13&#45;&gt;Node14 -->
<g id="edge18" class="edge">
<title>Node13&#45;&gt;Node14</title>
<path fill="none" stroke="midnightblue" d="M582.5,-112.08C582.11,-105.01 581.55,-94.86 581.05,-85.99"/>
<polygon fill="midnightblue" stroke="midnightblue" points="584.54,-85.54 580.49,-75.75 577.55,-85.93 584.54,-85.54"/>
</g>
<!-- Node15 -->
<g id="node15" class="node">
<title>Node15</title>
<g id="a_node15"><a xlink:title=" ">
<polygon fill="none" stroke="#bfbfbf" points="621.5,-56.5 621.5,-75.5 672.5,-75.5 672.5,-56.5 621.5,-56.5"/>
<text text-anchor="middle" x="647" y="-63.5" font-family="Helvetica,sans-Serif" font-size="10.00">numeric</text>
</a>
</g>
</g>
<!-- Node13&#45;&gt;Node15 -->
<g id="edge20" class="edge">
<title>Node13&#45;&gt;Node15</title>
<path fill="none" stroke="midnightblue" d="M593.28,-112.32C602.84,-104.26 617.28,-92.08 628.78,-82.37"/>
<polygon fill="midnightblue" stroke="midnightblue" points="631.14,-84.96 636.53,-75.83 626.63,-79.61 631.14,-84.96"/>
</g>
</g>
</svg>
