<?xml version="1.0" encoding="UTF-8" standalone="no"?>
<!DOCTYPE svg PUBLIC "-//W3C//DTD SVG 1.1//EN"
 "http://www.w3.org/Graphics/SVG/1.1/DTD/svg11.dtd">
<!-- Generated by graphviz version 3.0.0 (20220413.0242)
 -->
<!-- Title: model/flowreference.hpp Pages: 1 -->
<svg width="1090pt" height="252pt"
 viewBox="0.00 0.00 1089.86 252.00" xmlns="http://www.w3.org/2000/svg" xmlns:xlink="http://www.w3.org/1999/xlink">
<g id="graph0" class="graph" transform="scale(1 1) rotate(0) translate(4 248)">
<title>model/flowreference.hpp</title>
<!-- Node1 -->
<g id="node1" class="node">
<title>Node1</title>
<g id="a_node1"><a xlink:title="MODEL::FlowReference source file.">
<polygon fill="#bfbfbf" stroke="black" points="564.86,-224.5 564.86,-243.5 686.86,-243.5 686.86,-224.5 564.86,-224.5"/>
<text text-anchor="middle" x="625.86" y="-231.5" font-family="Helvetica,sans-Serif" font-size="10.00">model/flowreference.hpp</text>
</a>
</g>
</g>
<!-- Node2 -->
<g id="node2" class="node">
<title>Node2</title>
<g id="a_node2"><a xlink:href="model_8hpp.html" target="_top" xlink:title="MODEL::Model source file.">
<polygon fill="none" stroke="black" points="452.86,-168.5 452.86,-187.5 542.86,-187.5 542.86,-168.5 452.86,-168.5"/>
<text text-anchor="middle" x="497.86" y="-175.5" font-family="Helvetica,sans-Serif" font-size="10.00">model/model.hpp</text>
</a>
</g>
</g>
<!-- Node1&#45;&gt;Node2 -->
<g id="edge1" class="edge">
<title>Node1&#45;&gt;Node2</title>
<path fill="none" stroke="midnightblue" d="M596.24,-220.5C572.25,-210.38 539.08,-196.39 518.05,-187.52"/>
<polygon fill="midnightblue" stroke="midnightblue" points="595.01,-223.78 605.58,-224.44 597.73,-217.33 595.01,-223.78"/>
</g>
<!-- Node3 -->
<g id="node3" class="node">
<title>Node3</title>
<g id="a_node3"><a xlink:href="integrator_8hpp.html" target="_top" xlink:title="ALGEBRA::Integrator source file.">
<polygon fill="none" stroke="black" points="136.86,-112.5 136.86,-131.5 246.86,-131.5 246.86,-112.5 136.86,-112.5"/>
<text text-anchor="middle" x="191.86" y="-119.5" font-family="Helvetica,sans-Serif" font-size="10.00">algebra/integrator.hpp</text>
</a>
</g>
</g>
<!-- Node2&#45;&gt;Node3 -->
<g id="edge2" class="edge">
<title>Node2&#45;&gt;Node3</title>
<path fill="none" stroke="midnightblue" d="M442.68,-167.26C384.96,-157.08 295.27,-141.25 240.23,-131.54"/>
<polygon fill="midnightblue" stroke="midnightblue" points="442.26,-170.74 452.71,-169.03 443.47,-163.85 442.26,-170.74"/>
</g>
<!-- Node4 -->
<g id="node4" class="node">
<title>Node4</title>
<g id="a_node4"><a xlink:href="main_8cpp.html" target="_top" xlink:title="Main routine of svZeroDSolver.">
<polygon fill="none" stroke="black" points="284.86,-56.5 284.86,-75.5 340.86,-75.5 340.86,-56.5 284.86,-56.5"/>
<text text-anchor="middle" x="312.86" y="-63.5" font-family="Helvetica,sans-Serif" font-size="10.00">main.cpp</text>
</a>
</g>
</g>
<!-- Node2&#45;&gt;Node4 -->
<g id="edge34" class="edge">
<title>Node2&#45;&gt;Node4</title>
<path fill="none" stroke="midnightblue" d="M442.58,-172.47C388.68,-166.78 312.22,-154.84 293.86,-132 280.31,-115.14 296.06,-88.93 305.99,-75.53"/>
<polygon fill="midnightblue" stroke="midnightblue" points="442.39,-175.97 452.7,-173.5 443.1,-169.01 442.39,-175.97"/>
</g>
<!-- Node5 -->
<g id="node5" class="node">
<title>Node5</title>
<g id="a_node5"><a xlink:href="sparsesystem_8hpp.html" target="_top" xlink:title="ALGEBRA::SparseSystem source file.">
<polygon fill="none" stroke="black" points="560.86,-112.5 560.86,-131.5 690.86,-131.5 690.86,-112.5 560.86,-112.5"/>
<text text-anchor="middle" x="625.86" y="-119.5" font-family="Helvetica,sans-Serif" font-size="10.00">algebra/sparsesystem.hpp</text>
</a>
</g>
</g>
<!-- Node2&#45;&gt;Node5 -->
<g id="edge4" class="edge">
<title>Node2&#45;&gt;Node5</title>
<path fill="none" stroke="midnightblue" d="M522.29,-164.23C544.8,-154.13 577.82,-140.31 600.6,-131.52"/>
<polygon fill="midnightblue" stroke="midnightblue" points="520.7,-161.11 513.06,-168.44 523.61,-167.48 520.7,-161.11"/>
</g>
<!-- Node13 -->
<g id="node13" class="node">
<title>Node13</title>
<g id="a_node13"><a xlink:href="configreader_8hpp.html" target="_top" xlink:title="IO::ConfigReader source file.">
<polygon fill="none" stroke="black" points="302.86,-112.5 302.86,-131.5 400.86,-131.5 400.86,-112.5 302.86,-112.5"/>
<text text-anchor="middle" x="351.86" y="-119.5" font-family="Helvetica,sans-Serif" font-size="10.00">io/configreader.hpp</text>
</a>
</g>
</g>
<!-- Node2&#45;&gt;Node13 -->
<g id="edge28" class="edge">
<title>Node2&#45;&gt;Node13</title>
<path fill="none" stroke="midnightblue" d="M465.17,-164.91C437.72,-154.75 399.2,-140.51 374.89,-131.52"/>
<polygon fill="midnightblue" stroke="midnightblue" points="464.14,-168.26 474.73,-168.44 466.57,-161.69 464.14,-168.26"/>
</g>
<!-- Node14 -->
<g id="node14" class="node">
<title>Node14</title>
<g id="a_node14"><a xlink:href="csvwriter_8hpp.html" target="_top" xlink:title="IO::write_csv source file.">
<polygon fill="none" stroke="black" points="419.36,-112.5 419.36,-131.5 504.36,-131.5 504.36,-112.5 419.36,-112.5"/>
<text text-anchor="middle" x="461.86" y="-119.5" font-family="Helvetica,sans-Serif" font-size="10.00">io/csvwriter.hpp</text>
</a>
</g>
</g>
<!-- Node2&#45;&gt;Node14 -->
<g id="edge30" class="edge">
<title>Node2&#45;&gt;Node14</title>
<path fill="none" stroke="midnightblue" d="M486.24,-159.57C480.05,-150.27 472.7,-139.25 467.7,-131.75"/>
<polygon fill="midnightblue" stroke="midnightblue" points="483.46,-161.7 491.92,-168.08 489.28,-157.82 483.46,-161.7"/>
</g>
<!-- Node15 -->
<g id="node15" class="node">
<title>Node15</title>
<g id="a_node15"><a xlink:href="jsonwriter_8hpp.html" target="_top" xlink:title="IO::write_json source file.">
<polygon fill="none" stroke="black" points="31.36,-112.5 31.36,-131.5 118.36,-131.5 118.36,-112.5 31.36,-112.5"/>
<text text-anchor="middle" x="74.86" y="-119.5" font-family="Helvetica,sans-Serif" font-size="10.00">io/jsonwriter.hpp</text>
</a>
</g>
</g>
<!-- Node2&#45;&gt;Node15 -->
<g id="edge32" class="edge">
<title>Node2&#45;&gt;Node15</title>
<path fill="none" stroke="midnightblue" d="M442.52,-171.09C370.09,-163.17 239.25,-148.22 127.86,-132 124.82,-131.56 121.67,-131.08 118.51,-130.58"/>
<polygon fill="midnightblue" stroke="midnightblue" points="442.46,-174.61 452.78,-172.21 443.22,-167.65 442.46,-174.61"/>
</g>
<!-- Node3&#45;&gt;Node4 -->
<g id="edge3" class="edge">
<title>Node3&#45;&gt;Node4</title>
<path fill="none" stroke="midnightblue" d="M220.17,-108.37C242.83,-98.26 273.99,-84.35 293.78,-75.52"/>
<polygon fill="midnightblue" stroke="midnightblue" points="218.74,-105.17 211.04,-112.44 221.6,-111.56 218.74,-105.17"/>
</g>
<!-- Node5&#45;&gt;Node1 -->
<g id="edge21" class="edge">
<title>Node5&#45;&gt;Node1</title>
<path fill="none" stroke="midnightblue" d="M625.86,-141.6C625.86,-165.67 625.86,-206.62 625.86,-224.37"/>
<polygon fill="midnightblue" stroke="midnightblue" points="629.36,-141.59 625.86,-131.59 622.36,-141.59 629.36,-141.59"/>
</g>
<!-- Node5&#45;&gt;Node2 -->
<g id="edge23" class="edge">
<title>Node5&#45;&gt;Node2</title>
<path fill="none" stroke="midnightblue" d="M601.54,-135.72C579.06,-145.81 546.04,-159.64 523.23,-168.44"/>
<polygon fill="midnightblue" stroke="midnightblue" points="603.11,-138.85 610.76,-131.52 600.21,-132.48 603.11,-138.85"/>
</g>
<!-- Node5&#45;&gt;Node4 -->
<g id="edge5" class="edge">
<title>Node5&#45;&gt;Node4</title>
<path fill="none" stroke="midnightblue" d="M566.21,-110.71C498.77,-99.07 391.81,-80.62 341.19,-71.89"/>
<polygon fill="midnightblue" stroke="midnightblue" points="565.82,-114.19 576.27,-112.44 567.01,-107.29 565.82,-114.19"/>
</g>
<!-- Node6 -->
<g id="node6" class="node">
<title>Node6</title>
<g id="a_node6"><a xlink:href="block_8hpp.html" target="_top" xlink:title="MODEL::Block source file.">
<polygon fill="none" stroke="black" points="603.36,-56.5 603.36,-75.5 690.36,-75.5 690.36,-56.5 603.36,-56.5"/>
<text text-anchor="middle" x="646.86" y="-63.5" font-family="Helvetica,sans-Serif" font-size="10.00">model/block.hpp</text>
</a>
</g>
</g>
<!-- Node5&#45;&gt;Node6 -->
<g id="edge6" class="edge">
<title>Node5&#45;&gt;Node6</title>
<path fill="none" stroke="midnightblue" d="M632.98,-102.69C636.52,-93.59 640.64,-83.01 643.46,-75.75"/>
<polygon fill="midnightblue" stroke="midnightblue" points="629.69,-101.49 629.33,-112.08 636.22,-104.03 629.69,-101.49"/>
</g>
<!-- Node7 -->
<g id="node7" class="node">
<title>Node7</title>
<g id="a_node7"><a xlink:href="bloodvessel_8hpp.html" target="_top" xlink:title="MODEL::BloodVessel source file.">
<polygon fill="none" stroke="black" points="52.86,-0.5 52.86,-19.5 168.86,-19.5 168.86,-0.5 52.86,-0.5"/>
<text text-anchor="middle" x="110.86" y="-7.5" font-family="Helvetica,sans-Serif" font-size="10.00">model/bloodvessel.hpp</text>
</a>
</g>
</g>
<!-- Node5&#45;&gt;Node7 -->
<g id="edge20" class="edge">
<title>Node5&#45;&gt;Node7</title>
<path fill="none" stroke="midnightblue" d="M582.01,-110.02C527.68,-96.58 432.21,-73.44 349.86,-56 284.39,-42.13 208.38,-28.19 159.97,-19.58"/>
<polygon fill="midnightblue" stroke="midnightblue" points="581.43,-113.49 591.98,-112.5 583.12,-106.69 581.43,-113.49"/>
</g>
<!-- Node8 -->
<g id="node8" class="node">
<title>Node8</title>
<g id="a_node8"><a xlink:href="junction_8hpp.html" target="_top" xlink:title="MODEL::Junction source file.">
<polygon fill="none" stroke="black" points="186.86,-0.5 186.86,-19.5 284.86,-19.5 284.86,-0.5 186.86,-0.5"/>
<text text-anchor="middle" x="235.86" y="-7.5" font-family="Helvetica,sans-Serif" font-size="10.00">model/junction.hpp</text>
</a>
</g>
</g>
<!-- Node5&#45;&gt;Node8 -->
<g id="edge22" class="edge">
<title>Node5&#45;&gt;Node8</title>
<path fill="none" stroke="midnightblue" d="M592.66,-108.83C569.94,-100.25 539.26,-88.16 512.86,-76 495.53,-68.01 492.89,-62.28 474.86,-56 457.22,-49.85 349.72,-30.69 285.06,-19.45"/>
<polygon fill="midnightblue" stroke="midnightblue" points="591.59,-112.17 602.19,-112.4 594.05,-105.62 591.59,-112.17"/>
</g>
<!-- Node9 -->
<g id="node9" class="node">
<title>Node9</title>
<g id="a_node9"><a xlink:href="openloopcoronarywithdistalpressure_8hpp.html" target="_top" xlink:title="MODEL::OpenLoopCoronaryWithDistalPressure source file.">
<polygon fill="none" stroke="black" points="497.86,-0.5 497.86,-19.5 715.86,-19.5 715.86,-0.5 497.86,-0.5"/>
<text text-anchor="middle" x="606.86" y="-7.5" font-family="Helvetica,sans-Serif" font-size="10.00">model/openloopcoronarywithdistalpressure.hpp</text>
</a>
</g>
</g>
<!-- Node5&#45;&gt;Node9 -->
<g id="edge24" class="edge">
<title>Node5&#45;&gt;Node9</title>
<path fill="none" stroke="midnightblue" d="M610.89,-104.47C604.64,-96.48 598.09,-86.38 594.86,-76 588.73,-56.28 597.15,-32.15 602.7,-19.57"/>
<polygon fill="midnightblue" stroke="midnightblue" points="608.28,-106.81 617.38,-112.23 613.65,-102.32 608.28,-106.81"/>
</g>
<!-- Node10 -->
<g id="node10" class="node">
<title>Node10</title>
<g id="a_node10"><a xlink:href="pressurereference_8hpp.html" target="_top" xlink:title="MODEL::PressureReference source file.">
<polygon fill="none" stroke="black" points="939.86,-0.5 939.86,-19.5 1081.86,-19.5 1081.86,-0.5 939.86,-0.5"/>
<text text-anchor="middle" x="1010.86" y="-7.5" font-family="Helvetica,sans-Serif" font-size="10.00">model/pressurereference.hpp</text>
</a>
</g>
</g>
<!-- Node5&#45;&gt;Node10 -->
<g id="edge25" class="edge">
<title>Node5&#45;&gt;Node10</title>
<path fill="none" stroke="midnightblue" d="M665.6,-109.65C742.98,-87.54 912.28,-39.17 980.99,-19.53"/>
<polygon fill="midnightblue" stroke="midnightblue" points="664.41,-106.35 655.75,-112.46 666.33,-113.08 664.41,-106.35"/>
</g>
<!-- Node11 -->
<g id="node11" class="node">
<title>Node11</title>
<g id="a_node11"><a xlink:href="rcrblockwithdistalpressure_8hpp.html" target="_top" xlink:title="MODEL::RCRBlockWithDistalPressure source file.">
<polygon fill="none" stroke="black" points="302.36,-0.5 302.36,-19.5 479.36,-19.5 479.36,-0.5 302.36,-0.5"/>
<text text-anchor="middle" x="390.86" y="-7.5" font-family="Helvetica,sans-Serif" font-size="10.00">model/rcrblockwithdistalpressure.hpp</text>
</a>
</g>
</g>
<!-- Node5&#45;&gt;Node11 -->
<g id="edge26" class="edge">
<title>Node5&#45;&gt;Node11</title>
<path fill="none" stroke="midnightblue" d="M604,-106.94C581.66,-92.94 545.69,-71.36 512.86,-56 481.17,-41.17 443.13,-27.8 418.05,-19.56"/>
<polygon fill="midnightblue" stroke="midnightblue" points="602.37,-110.05 612.69,-112.44 606.11,-104.14 602.37,-110.05"/>
</g>
<!-- Node12 -->
<g id="node12" class="node">
<title>Node12</title>
<g id="a_node12"><a xlink:href="resistancewithdistalpressure_8hpp.html" target="_top" xlink:title="MODEL::ResistanceWithDistalPressure source file.">
<polygon fill="none" stroke="black" points="733.86,-0.5 733.86,-19.5 921.86,-19.5 921.86,-0.5 733.86,-0.5"/>
<text text-anchor="middle" x="827.86" y="-7.5" font-family="Helvetica,sans-Serif" font-size="10.00">model/resistancewithdistalpressure.hpp</text>
</a>
</g>
</g>
<!-- Node5&#45;&gt;Node12 -->
<g id="edge27" class="edge">
<title>Node5&#45;&gt;Node12</title>
<path fill="none" stroke="midnightblue" d="M650.75,-107.45C692.9,-84.5 777.12,-38.63 812.09,-19.59"/>
<polygon fill="midnightblue" stroke="midnightblue" points="648.82,-104.51 641.71,-112.37 652.17,-110.66 648.82,-104.51"/>
</g>
<!-- Node6&#45;&gt;Node1 -->
<g id="edge9" class="edge">
<title>Node6&#45;&gt;Node1</title>
<path fill="none" stroke="midnightblue" d="M671.59,-81.1C682.4,-88.72 693.94,-99.21 699.86,-112 703.6,-120.07 702.63,-123.55 699.86,-132 686.96,-171.46 652.12,-208.26 635.26,-224.4"/>
<polygon fill="midnightblue" stroke="midnightblue" points="673.48,-78.16 663.2,-75.61 669.65,-84.02 673.48,-78.16"/>
</g>
<!-- Node6&#45;&gt;Node7 -->
<g id="edge7" class="edge">
<title>Node6&#45;&gt;Node7</title>
<path fill="none" stroke="midnightblue" d="M592.97,-60.5C505.68,-53.05 327.99,-37.28 177.86,-20 174.95,-19.66 171.96,-19.31 168.95,-18.94"/>
<polygon fill="midnightblue" stroke="midnightblue" points="592.9,-64 603.16,-61.36 593.49,-57.03 592.9,-64"/>
</g>
<!-- Node6&#45;&gt;Node8 -->
<g id="edge10" class="edge">
<title>Node6&#45;&gt;Node8</title>
<path fill="none" stroke="midnightblue" d="M593.12,-58.61C523.86,-50.27 399.76,-34.96 293.86,-20 290.94,-19.59 287.93,-19.15 284.9,-18.7"/>
<polygon fill="midnightblue" stroke="midnightblue" points="592.99,-62.12 603.34,-59.84 593.83,-55.17 592.99,-62.12"/>
</g>
<!-- Node6&#45;&gt;Node9 -->
<g id="edge12" class="edge">
<title>Node6&#45;&gt;Node9</title>
<path fill="none" stroke="midnightblue" d="M634.16,-47.86C627.24,-38.5 618.96,-27.33 613.35,-19.75"/>
<polygon fill="midnightblue" stroke="midnightblue" points="631.49,-50.13 640.26,-56.08 637.12,-45.96 631.49,-50.13"/>
</g>
<!-- Node6&#45;&gt;Node10 -->
<g id="edge14" class="edge">
<title>Node6&#45;&gt;Node10</title>
<path fill="none" stroke="midnightblue" d="M700.44,-57.05C768.11,-47.01 884.08,-29.81 953.5,-19.51"/>
<polygon fill="midnightblue" stroke="midnightblue" points="699.79,-53.61 690.41,-58.54 700.81,-60.53 699.79,-53.61"/>
</g>
<!-- Node6&#45;&gt;Node11 -->
<g id="edge16" class="edge">
<title>Node6&#45;&gt;Node11</title>
<path fill="none" stroke="midnightblue" d="M596.35,-54.35C547.97,-44.14 475.91,-28.94 431.24,-19.52"/>
<polygon fill="midnightblue" stroke="midnightblue" points="595.79,-57.8 606.3,-56.44 597.24,-50.95 595.79,-57.8"/>
</g>
<!-- Node6&#45;&gt;Node12 -->
<g id="edge18" class="edge">
<title>Node6&#45;&gt;Node12</title>
<path fill="none" stroke="midnightblue" d="M685.18,-53.57C719.33,-43.38 768.52,-28.7 799.32,-19.52"/>
<polygon fill="midnightblue" stroke="midnightblue" points="684.13,-50.23 675.54,-56.44 686.13,-56.94 684.13,-50.23"/>
</g>
<!-- Node7&#45;&gt;Node2 -->
<g id="edge8" class="edge">
<title>Node7&#45;&gt;Node2</title>
<path fill="none" stroke="midnightblue" d="M72.85,-23.36C56.08,-30.52 37.39,-41.13 24.86,-56 6.07,-78.32 -8.61,-115.04 6.86,-132 36.62,-164.6 337.13,-173.88 452.81,-176.26"/>
<polygon fill="midnightblue" stroke="midnightblue" points="74.45,-26.49 82.44,-19.53 71.85,-19.99 74.45,-26.49"/>
</g>
<!-- Node8&#45;&gt;Node2 -->
<g id="edge11" class="edge">
<title>Node8&#45;&gt;Node2</title>
<path fill="none" stroke="midnightblue" d="M177.19,-21.56C97.37,-38.32 -29.92,-75.09 21.86,-132 50.53,-163.5 339.21,-173.42 452.54,-176.11"/>
<polygon fill="midnightblue" stroke="midnightblue" points="178.06,-24.95 187.16,-19.51 176.66,-18.09 178.06,-24.95"/>
</g>
<!-- Node9&#45;&gt;Node2 -->
<g id="edge13" class="edge">
<title>Node9&#45;&gt;Node2</title>
<path fill="none" stroke="midnightblue" d="M655.98,-23.11C672.86,-29.87 689.99,-40.25 699.86,-56 717.81,-84.62 720.99,-105.65 699.86,-132 680.59,-156.04 596.48,-168.06 543.06,-173.38"/>
<polygon fill="midnightblue" stroke="midnightblue" points="656.71,-19.65 646.12,-19.52 654.32,-26.23 656.71,-19.65"/>
</g>
<!-- Node10&#45;&gt;Node2 -->
<g id="edge15" class="edge">
<title>Node10&#45;&gt;Node2</title>
<path fill="none" stroke="midnightblue" d="M986.63,-24.5C940.81,-49.46 837.75,-102.9 744.86,-132 676.23,-153.5 593.46,-165.98 543.29,-172.13"/>
<polygon fill="midnightblue" stroke="midnightblue" points="988.43,-27.51 995.51,-19.63 985.06,-21.37 988.43,-27.51"/>
</g>
<!-- Node11&#45;&gt;Node2 -->
<g id="edge17" class="edge">
<title>Node11&#45;&gt;Node2</title>
<path fill="none" stroke="midnightblue" d="M418.5,-24.29C448.34,-40.37 494.26,-70.53 513.86,-112 522.81,-130.91 511.26,-155.36 503.62,-168.22"/>
<polygon fill="midnightblue" stroke="midnightblue" points="419.91,-21.08 409.42,-19.57 416.68,-27.29 419.91,-21.08"/>
</g>
<!-- Node12&#45;&gt;Node2 -->
<g id="edge19" class="edge">
<title>Node12&#45;&gt;Node2</title>
<path fill="none" stroke="midnightblue" d="M817.42,-28.44C800.37,-55.27 763.9,-106.26 718.86,-132 663.79,-163.47 589.92,-173.13 543.1,-175.98"/>
<polygon fill="midnightblue" stroke="midnightblue" points="820.52,-30.08 822.8,-19.74 814.56,-26.4 820.52,-30.08"/>
</g>
<!-- Node13&#45;&gt;Node4 -->
<g id="edge29" class="edge">
<title>Node13&#45;&gt;Node4</title>
<path fill="none" stroke="midnightblue" d="M339.48,-103.86C332.73,-94.5 324.66,-83.33 319.18,-75.75"/>
<polygon fill="midnightblue" stroke="midnightblue" points="336.73,-106.03 345.42,-112.08 342.41,-101.93 336.73,-106.03"/>
</g>
<!-- Node14&#45;&gt;Node4 -->
<g id="edge31" class="edge">
<title>Node14&#45;&gt;Node4</title>
<path fill="none" stroke="midnightblue" d="M428.49,-108.91C400.48,-98.75 361.17,-84.51 336.36,-75.52"/>
<polygon fill="midnightblue" stroke="midnightblue" points="427.66,-112.33 438.25,-112.44 430.05,-105.75 427.66,-112.33"/>
</g>
<!-- Node15&#45;&gt;Node4 -->
<g id="edge33" class="edge">
<title>Node15&#45;&gt;Node4</title>
<path fill="none" stroke="midnightblue" d="M122.53,-110.19C171.06,-99.17 244.68,-82.47 284.65,-73.4"/>
<polygon fill="midnightblue" stroke="midnightblue" points="121.55,-106.82 112.58,-112.44 123.1,-113.64 121.55,-106.82"/>
</g>
</g>
</svg>
