<?xml version="1.0" encoding="UTF-8" standalone="no"?>
<!DOCTYPE svg PUBLIC "-//W3C//DTD SVG 1.1//EN"
 "http://www.w3.org/Graphics/SVG/1.1/DTD/svg11.dtd">
<!-- Generated by graphviz version 3.0.0 (20220413.0242)
 -->
<!-- Title: model/flowreferencebc.hpp Pages: 1 -->
<svg width="1036pt" height="420pt"
 viewBox="0.00 0.00 1035.89 420.00" xmlns="http://www.w3.org/2000/svg" xmlns:xlink="http://www.w3.org/1999/xlink">
<g id="graph0" class="graph" transform="scale(1 1) rotate(0) translate(4 416)">
<title>model/flowreferencebc.hpp</title>
<!-- Node1 -->
<g id="node1" class="node">
<title>Node1</title>
<g id="a_node1"><a xlink:title="MODEL::FlowReferenceBC source file.">
<polygon fill="#bfbfbf" stroke="black" points="378.89,-392.5 378.89,-411.5 510.89,-411.5 510.89,-392.5 378.89,-392.5"/>
<text text-anchor="middle" x="444.89" y="-399.5" font-family="Helvetica,sans-Serif" font-size="10.00">model/flowreferencebc.hpp</text>
</a>
</g>
</g>
<!-- Node2 -->
<g id="node2" class="node">
<title>Node2</title>
<g id="a_node2"><a xlink:href="densesystem_8hpp.html" target="_top" xlink:title="ALGEBRA::DenseSystem source file.">
<polygon fill="none" stroke="black" points="377.89,-336.5 377.89,-355.5 511.89,-355.5 511.89,-336.5 377.89,-336.5"/>
<text text-anchor="middle" x="444.89" y="-343.5" font-family="Helvetica,sans-Serif" font-size="10.00">../algebra/densesystem.hpp</text>
</a>
</g>
</g>
<!-- Node1&#45;&gt;Node2 -->
<g id="edge1" class="edge">
<title>Node1&#45;&gt;Node2</title>
<path fill="none" stroke="midnightblue" d="M444.89,-392.08C444.89,-385.01 444.89,-374.86 444.89,-365.99"/>
<polygon fill="midnightblue" stroke="midnightblue" points="448.39,-365.75 444.89,-355.75 441.39,-365.75 448.39,-365.75"/>
</g>
<!-- Node8 -->
<g id="node8" class="node">
<title>Node8</title>
<g id="a_node8"><a xlink:href="sparsesystem_8hpp.html" target="_top" xlink:title="ALGEBRA::SparseSystem source file.">
<polygon fill="none" stroke="black" points="696.39,-112.5 696.39,-131.5 833.39,-131.5 833.39,-112.5 696.39,-112.5"/>
<text text-anchor="middle" x="764.89" y="-119.5" font-family="Helvetica,sans-Serif" font-size="10.00">../algebra/sparsesystem.hpp</text>
</a>
</g>
</g>
<!-- Node1&#45;&gt;Node8 -->
<g id="edge58" class="edge">
<title>Node1&#45;&gt;Node8</title>
<path fill="none" stroke="midnightblue" d="M510.92,-395.4C663.56,-381.57 1027.89,-343.11 1027.89,-291 1027.89,-291 1027.89,-291 1027.89,-233 1027.89,-152.36 921.35,-129.81 843.89,-124.07"/>
<polygon fill="midnightblue" stroke="midnightblue" points="843.86,-120.56 833.65,-123.4 843.4,-127.55 843.86,-120.56"/>
</g>
<!-- Node14 -->
<g id="node14" class="node">
<title>Node14</title>
<g id="a_node14"><a xlink:href="block_8hpp.html" target="_top" xlink:title="MODEL::Block source file.">
<polygon fill="none" stroke="black" points="385.89,-168.5 385.89,-187.5 443.89,-187.5 443.89,-168.5 385.89,-168.5"/>
<text text-anchor="middle" x="414.89" y="-175.5" font-family="Helvetica,sans-Serif" font-size="10.00">block.hpp</text>
</a>
</g>
</g>
<!-- Node1&#45;&gt;Node14 -->
<g id="edge59" class="edge">
<title>Node1&#45;&gt;Node14</title>
<path fill="none" stroke="midnightblue" d="M378.74,-396.16C236.64,-383.43 -76.71,-341.47 27.89,-224 30.78,-220.76 277.85,-193.78 375.66,-183.22"/>
<polygon fill="midnightblue" stroke="midnightblue" points="376.18,-186.68 385.74,-182.13 375.42,-179.72 376.18,-186.68"/>
</g>
<!-- Node21 -->
<g id="node21" class="node">
<title>Node21</title>
<g id="a_node21"><a xlink:href="timedependentparameter_8hpp.html" target="_top" xlink:title="MODEL::TimeDependentParameter source file.">
<polygon fill="none" stroke="black" points="178.89,-168.5 178.89,-187.5 320.89,-187.5 320.89,-168.5 178.89,-168.5"/>
<text text-anchor="middle" x="249.89" y="-175.5" font-family="Helvetica,sans-Serif" font-size="10.00">timedependentparameter.hpp</text>
</a>
</g>
</g>
<!-- Node1&#45;&gt;Node21 -->
<g id="edge60" class="edge">
<title>Node1&#45;&gt;Node21</title>
<path fill="none" stroke="midnightblue" d="M378.68,-397.51C286.91,-391.91 126.33,-379.12 72.89,-356 37.27,-340.59 22.33,-335.16 5.89,-300 -1.78,-283.59 -3.22,-239.55 10.89,-224 31.82,-200.93 108.01,-189.51 168.81,-183.97"/>
<polygon fill="midnightblue" stroke="midnightblue" points="169.15,-187.45 178.81,-183.1 168.54,-180.48 169.15,-187.45"/>
</g>
<!-- Node3 -->
<g id="node3" class="node">
<title>Node3</title>
<g id="a_node3"><a xlink:title=" ">
<polygon fill="none" stroke="#bfbfbf" points="339.39,-280.5 339.39,-299.5 410.39,-299.5 410.39,-280.5 339.39,-280.5"/>
<text text-anchor="middle" x="374.89" y="-287.5" font-family="Helvetica,sans-Serif" font-size="10.00">Eigen/Dense</text>
</a>
</g>
</g>
<!-- Node2&#45;&gt;Node3 -->
<g id="edge2" class="edge">
<title>Node2&#45;&gt;Node3</title>
<path fill="none" stroke="midnightblue" d="M433.64,-336.32C423.09,-328.18 407.09,-315.84 394.45,-306.09"/>
<polygon fill="midnightblue" stroke="midnightblue" points="396.4,-303.17 386.34,-299.83 392.12,-308.71 396.4,-303.17"/>
</g>
<!-- Node4 -->
<g id="node4" class="node">
<title>Node4</title>
<g id="a_node4"><a xlink:href="model_8hpp.html" target="_top" xlink:title="MODEL::Model source file.">
<polygon fill="none" stroke="black" points="523.89,-280.5 523.89,-299.5 621.89,-299.5 621.89,-280.5 523.89,-280.5"/>
<text text-anchor="middle" x="572.89" y="-287.5" font-family="Helvetica,sans-Serif" font-size="10.00">../model/model.hpp</text>
</a>
</g>
</g>
<!-- Node2&#45;&gt;Node4 -->
<g id="edge3" class="edge">
<title>Node2&#45;&gt;Node4</title>
<path fill="none" stroke="midnightblue" d="M460.08,-336.44C479.37,-327.48 512.72,-313.31 538.26,-303.18"/>
<polygon fill="midnightblue" stroke="midnightblue" points="539.59,-306.42 547.62,-299.52 537.04,-299.9 539.59,-306.42"/>
</g>
<!-- Node4&#45;&gt;Node1 -->
<g id="edge29" class="edge">
<title>Node4&#45;&gt;Node1</title>
<path fill="none" stroke="midnightblue" d="M567.35,-299.83C558.65,-313.17 540.75,-338.75 520.89,-356 506.23,-368.74 487.46,-379.89 472.25,-387.91"/>
<polygon fill="midnightblue" stroke="midnightblue" points="470.61,-384.81 463.3,-392.48 473.8,-391.05 470.61,-384.81"/>
</g>
<!-- Node4&#45;&gt;Node2 -->
<g id="edge7" class="edge">
<title>Node4&#45;&gt;Node2</title>
<path fill="none" stroke="midnightblue" d="M557.78,-299.52C538.54,-308.47 505.2,-322.63 479.63,-332.77"/>
<polygon fill="midnightblue" stroke="midnightblue" points="478.3,-329.54 470.26,-336.44 480.85,-336.05 478.3,-329.54"/>
</g>
<!-- Node5 -->
<g id="node5" class="node">
<title>Node5</title>
<g id="a_node5"><a xlink:title=" ">
<polygon fill="none" stroke="#bfbfbf" points="614.39,-224.5 614.39,-243.5 643.39,-243.5 643.39,-224.5 614.39,-224.5"/>
<text text-anchor="middle" x="628.89" y="-231.5" font-family="Helvetica,sans-Serif" font-size="10.00">list</text>
</a>
</g>
</g>
<!-- Node4&#45;&gt;Node5 -->
<g id="edge4" class="edge">
<title>Node4&#45;&gt;Node5</title>
<path fill="none" stroke="midnightblue" d="M581.89,-280.32C590.09,-272.42 602.4,-260.55 612.36,-250.94"/>
<polygon fill="midnightblue" stroke="midnightblue" points="614.96,-253.29 619.73,-243.83 610.1,-248.26 614.96,-253.29"/>
</g>
<!-- Node6 -->
<g id="node6" class="node">
<title>Node6</title>
<g id="a_node6"><a xlink:title=" ">
<polygon fill="none" stroke="#bfbfbf" points="512.39,-112.5 512.39,-131.5 547.39,-131.5 547.39,-112.5 512.39,-112.5"/>
<text text-anchor="middle" x="529.89" y="-119.5" font-family="Helvetica,sans-Serif" font-size="10.00">map</text>
</a>
</g>
</g>
<!-- Node4&#45;&gt;Node6 -->
<g id="edge5" class="edge">
<title>Node4&#45;&gt;Node6</title>
<path fill="none" stroke="midnightblue" d="M570.58,-280.08C563.81,-253.95 543.93,-177.21 534.7,-141.58"/>
<polygon fill="midnightblue" stroke="midnightblue" points="538.01,-140.37 532.11,-131.57 531.23,-142.13 538.01,-140.37"/>
</g>
<!-- Node7 -->
<g id="node7" class="node">
<title>Node7</title>
<g id="a_node7"><a xlink:title=" ">
<polygon fill="none" stroke="#bfbfbf" points="699.89,-224.5 699.89,-243.5 745.89,-243.5 745.89,-224.5 699.89,-224.5"/>
<text text-anchor="middle" x="722.89" y="-231.5" font-family="Helvetica,sans-Serif" font-size="10.00">variant</text>
</a>
</g>
</g>
<!-- Node4&#45;&gt;Node7 -->
<g id="edge6" class="edge">
<title>Node4&#45;&gt;Node7</title>
<path fill="none" stroke="midnightblue" d="M596.66,-280.44C621.93,-271.35 662.07,-256.9 690.29,-246.74"/>
<polygon fill="midnightblue" stroke="midnightblue" points="691.5,-250.02 699.73,-243.34 689.13,-243.43 691.5,-250.02"/>
</g>
<!-- Node4&#45;&gt;Node8 -->
<g id="edge8" class="edge">
<title>Node4&#45;&gt;Node8</title>
<path fill="none" stroke="midnightblue" d="M621.97,-286.5C717.96,-281.34 922.63,-267.93 943.89,-244 990.91,-191.08 875.51,-152.15 808.5,-134.13"/>
<polygon fill="midnightblue" stroke="midnightblue" points="809.16,-130.69 798.6,-131.53 807.38,-137.46 809.16,-130.69"/>
</g>
<!-- Node12 -->
<g id="node12" class="node">
<title>Node12</title>
<g id="a_node12"><a xlink:href="bloodvessel_8hpp.html" target="_top" xlink:title="MODEL::BloodVessel source file.">
<polygon fill="none" stroke="black" points="433.89,-224.5 433.89,-243.5 519.89,-243.5 519.89,-224.5 433.89,-224.5"/>
<text text-anchor="middle" x="476.89" y="-231.5" font-family="Helvetica,sans-Serif" font-size="10.00">bloodvessel.hpp</text>
</a>
</g>
</g>
<!-- Node4&#45;&gt;Node12 -->
<g id="edge13" class="edge">
<title>Node4&#45;&gt;Node12</title>
<path fill="none" stroke="midnightblue" d="M557.47,-280.32C542.35,-271.82 519.08,-258.73 501.42,-248.8"/>
<polygon fill="midnightblue" stroke="midnightblue" points="502.71,-245.51 492.28,-243.65 499.28,-251.61 502.71,-245.51"/>
</g>
<!-- Node16 -->
<g id="node16" class="node">
<title>Node16</title>
<g id="a_node16"><a xlink:href="dofhandler_8hpp.html" target="_top" xlink:title="MODEL::DOFHandler source file.">
<polygon fill="none" stroke="black" points="462.89,-56.5 462.89,-75.5 542.89,-75.5 542.89,-56.5 462.89,-56.5"/>
<text text-anchor="middle" x="502.89" y="-63.5" font-family="Helvetica,sans-Serif" font-size="10.00">dofhandler.hpp</text>
</a>
</g>
</g>
<!-- Node4&#45;&gt;Node16 -->
<g id="edge28" class="edge">
<title>Node4&#45;&gt;Node16</title>
<path fill="none" stroke="midnightblue" d="M574.44,-280.19C578.73,-253.07 588.51,-169.26 556.89,-112 549.91,-99.36 537.84,-88.78 526.88,-81.07"/>
<polygon fill="midnightblue" stroke="midnightblue" points="528.72,-78.09 518.45,-75.51 524.87,-83.94 528.72,-78.09"/>
</g>
<!-- Node18 -->
<g id="node18" class="node">
<title>Node18</title>
<g id="a_node18"><a xlink:href="node_8hpp.html" target="_top" xlink:title="MODEL::Node source file.">
<polygon fill="none" stroke="black" points="613.89,-112.5 613.89,-131.5 669.89,-131.5 669.89,-112.5 613.89,-112.5"/>
<text text-anchor="middle" x="641.89" y="-119.5" font-family="Helvetica,sans-Serif" font-size="10.00">node.hpp</text>
</a>
</g>
</g>
<!-- Node4&#45;&gt;Node18 -->
<g id="edge34" class="edge">
<title>Node4&#45;&gt;Node18</title>
<path fill="none" stroke="midnightblue" d="M603.14,-280.49C621.02,-273.73 642.19,-262.29 652.89,-244 671.81,-211.66 659.18,-165.94 649.67,-140.99"/>
<polygon fill="midnightblue" stroke="midnightblue" points="652.89,-139.61 645.89,-131.66 646.4,-142.24 652.89,-139.61"/>
</g>
<!-- Node19 -->
<g id="node19" class="node">
<title>Node19</title>
<g id="a_node19"><a xlink:href="junction_8hpp.html" target="_top" xlink:title="MODEL::Junction source file.">
<polygon fill="none" stroke="black" points="875.89,-224.5 875.89,-243.5 943.89,-243.5 943.89,-224.5 875.89,-224.5"/>
<text text-anchor="middle" x="909.89" y="-231.5" font-family="Helvetica,sans-Serif" font-size="10.00">junction.hpp</text>
</a>
</g>
</g>
<!-- Node4&#45;&gt;Node19 -->
<g id="edge30" class="edge">
<title>Node4&#45;&gt;Node19</title>
<path fill="none" stroke="midnightblue" d="M621.93,-282.33C678.34,-274.46 774,-260.57 865.66,-244.15"/>
<polygon fill="midnightblue" stroke="midnightblue" points="866.44,-247.56 875.66,-242.34 865.19,-240.67 866.44,-247.56"/>
</g>
<!-- Node20 -->
<g id="node20" class="node">
<title>Node20</title>
<g id="a_node20"><a xlink:href="openloopcoronarybc_8hpp.html" target="_top" xlink:title="MODEL::OpenLoopCoronaryBC source file.">
<polygon fill="none" stroke="black" points="186.39,-224.5 186.39,-243.5 307.39,-243.5 307.39,-224.5 186.39,-224.5"/>
<text text-anchor="middle" x="246.89" y="-231.5" font-family="Helvetica,sans-Serif" font-size="10.00">openloopcoronarybc.hpp</text>
</a>
</g>
</g>
<!-- Node4&#45;&gt;Node20 -->
<g id="edge35" class="edge">
<title>Node4&#45;&gt;Node20</title>
<path fill="none" stroke="midnightblue" d="M523.73,-280.86C466.19,-271.33 370.85,-255.53 308.44,-245.2"/>
<polygon fill="midnightblue" stroke="midnightblue" points="308.77,-241.7 298.34,-243.52 307.63,-248.61 308.77,-241.7"/>
</g>
<!-- Node23 -->
<g id="node23" class="node">
<title>Node23</title>
<g id="a_node23"><a xlink:href="pressurereferencebc_8hpp.html" target="_top" xlink:title="MODEL::PressureReferenceBC source file.">
<polygon fill="none" stroke="black" points="45.39,-224.5 45.39,-243.5 168.39,-243.5 168.39,-224.5 45.39,-224.5"/>
<text text-anchor="middle" x="106.89" y="-231.5" font-family="Helvetica,sans-Serif" font-size="10.00">pressurereferencebc.hpp</text>
</a>
</g>
</g>
<!-- Node4&#45;&gt;Node23 -->
<g id="edge44" class="edge">
<title>Node4&#45;&gt;Node23</title>
<path fill="none" stroke="midnightblue" d="M523.78,-283.65C450.81,-275.66 309.16,-259.94 178.88,-244.23"/>
<polygon fill="midnightblue" stroke="midnightblue" points="179.07,-240.73 168.72,-243 178.23,-247.67 179.07,-240.73"/>
</g>
<!-- Node24 -->
<g id="node24" class="node">
<title>Node24</title>
<g id="a_node24"><a xlink:href="resistancebc_8hpp.html" target="_top" xlink:title="MODEL::ResistanceBC source file.">
<polygon fill="none" stroke="black" points="325.89,-224.5 325.89,-243.5 415.89,-243.5 415.89,-224.5 325.89,-224.5"/>
<text text-anchor="middle" x="370.89" y="-231.5" font-family="Helvetica,sans-Serif" font-size="10.00">resistancebc.hpp</text>
</a>
</g>
</g>
<!-- Node4&#45;&gt;Node24 -->
<g id="edge49" class="edge">
<title>Node4&#45;&gt;Node24</title>
<path fill="none" stroke="midnightblue" d="M540.88,-280.44C506.16,-271.16 450.6,-256.31 412.51,-246.13"/>
<polygon fill="midnightblue" stroke="midnightblue" points="413.31,-242.72 402.75,-243.52 411.51,-249.48 413.31,-242.72"/>
</g>
<!-- Node25 -->
<g id="node25" class="node">
<title>Node25</title>
<g id="a_node25"><a xlink:href="windkesselbc_8hpp.html" target="_top" xlink:title="MODEL::WindkesselBC source file.">
<polygon fill="none" stroke="black" points="763.89,-224.5 763.89,-243.5 857.89,-243.5 857.89,-224.5 763.89,-224.5"/>
<text text-anchor="middle" x="810.89" y="-231.5" font-family="Helvetica,sans-Serif" font-size="10.00">windkesselbc.hpp</text>
</a>
</g>
</g>
<!-- Node4&#45;&gt;Node25 -->
<g id="edge54" class="edge">
<title>Node4&#45;&gt;Node25</title>
<path fill="none" stroke="midnightblue" d="M610.6,-280.44C652.03,-271.04 718.65,-255.93 763.56,-245.74"/>
<polygon fill="midnightblue" stroke="midnightblue" points="764.38,-249.14 773.36,-243.52 762.83,-242.32 764.38,-249.14"/>
</g>
<!-- Node8&#45;&gt;Node4 -->
<g id="edge12" class="edge">
<title>Node8&#45;&gt;Node4</title>
<path fill="none" stroke="midnightblue" d="M809.03,-131.53C881.23,-148.19 1011.33,-188.36 961.89,-244 940.62,-267.94 735.79,-281.35 632.16,-286.51"/>
<polygon fill="midnightblue" stroke="midnightblue" points="631.97,-283.01 622.15,-286.99 632.31,-290 631.97,-283.01"/>
</g>
<!-- Node9 -->
<g id="node9" class="node">
<title>Node9</title>
<g id="a_node9"><a xlink:title=" ">
<polygon fill="none" stroke="#bfbfbf" points="809.89,-56.5 809.89,-75.5 883.89,-75.5 883.89,-56.5 809.89,-56.5"/>
<text text-anchor="middle" x="846.89" y="-63.5" font-family="Helvetica,sans-Serif" font-size="10.00">Eigen/Sparse</text>
</a>
</g>
</g>
<!-- Node8&#45;&gt;Node9 -->
<g id="edge9" class="edge">
<title>Node8&#45;&gt;Node9</title>
<path fill="none" stroke="midnightblue" d="M778.07,-112.32C790.74,-103.98 810.12,-91.21 825.1,-81.35"/>
<polygon fill="midnightblue" stroke="midnightblue" points="827.32,-84.08 833.75,-75.65 823.47,-78.23 827.32,-84.08"/>
</g>
<!-- Node10 -->
<g id="node10" class="node">
<title>Node10</title>
<g id="a_node10"><a xlink:title=" ">
<polygon fill="none" stroke="#bfbfbf" points="631.89,-56.5 631.89,-75.5 719.89,-75.5 719.89,-56.5 631.89,-56.5"/>
<text text-anchor="middle" x="675.89" y="-63.5" font-family="Helvetica,sans-Serif" font-size="10.00">Eigen/SparseLU</text>
</a>
</g>
</g>
<!-- Node8&#45;&gt;Node10 -->
<g id="edge10" class="edge">
<title>Node8&#45;&gt;Node10</title>
<path fill="none" stroke="midnightblue" d="M750.59,-112.32C736.71,-103.9 715.4,-90.97 699.09,-81.07"/>
<polygon fill="midnightblue" stroke="midnightblue" points="700.52,-77.85 690.16,-75.65 696.89,-83.83 700.52,-77.85"/>
</g>
<!-- Node11 -->
<g id="node11" class="node">
<title>Node11</title>
<g id="a_node11"><a xlink:title=" ">
<polygon fill="none" stroke="#bfbfbf" points="737.89,-56.5 737.89,-75.5 791.89,-75.5 791.89,-56.5 737.89,-56.5"/>
<text text-anchor="middle" x="764.89" y="-63.5" font-family="Helvetica,sans-Serif" font-size="10.00">iostream</text>
</a>
</g>
</g>
<!-- Node8&#45;&gt;Node11 -->
<g id="edge11" class="edge">
<title>Node8&#45;&gt;Node11</title>
<path fill="none" stroke="midnightblue" d="M764.89,-112.08C764.89,-105.01 764.89,-94.86 764.89,-85.99"/>
<polygon fill="midnightblue" stroke="midnightblue" points="768.39,-85.75 764.89,-75.75 761.39,-85.75 768.39,-85.75"/>
</g>
<!-- Node12&#45;&gt;Node2 -->
<g id="edge15" class="edge">
<title>Node12&#45;&gt;Node2</title>
<path fill="none" stroke="midnightblue" d="M474.39,-243.59C469.21,-261.39 457.22,-302.62 450.22,-326.67"/>
<polygon fill="midnightblue" stroke="midnightblue" points="446.83,-325.79 447.4,-336.37 453.56,-327.74 446.83,-325.79"/>
</g>
<!-- Node12&#45;&gt;Node8 -->
<g id="edge16" class="edge">
<title>Node12&#45;&gt;Node8</title>
<path fill="none" stroke="midnightblue" d="M519.9,-229.77C582.82,-224.31 696.04,-211.49 728.89,-188 744.6,-176.77 754.24,-156.45 759.55,-141.51"/>
<polygon fill="midnightblue" stroke="midnightblue" points="762.94,-142.38 762.67,-131.79 756.28,-140.24 762.94,-142.38"/>
</g>
<!-- Node13 -->
<g id="node13" class="node">
<title>Node13</title>
<g id="a_node13"><a xlink:title=" ">
<polygon fill="none" stroke="#bfbfbf" points="334.89,-112.5 334.89,-131.5 380.89,-131.5 380.89,-112.5 334.89,-112.5"/>
<text text-anchor="middle" x="357.89" y="-119.5" font-family="Helvetica,sans-Serif" font-size="10.00">math.h</text>
</a>
</g>
</g>
<!-- Node12&#45;&gt;Node13 -->
<g id="edge14" class="edge">
<title>Node12&#45;&gt;Node13</title>
<path fill="none" stroke="midnightblue" d="M439.38,-224.44C418.28,-217.81 393.01,-206.53 376.89,-188 365.69,-175.12 361.08,-155.95 359.19,-141.76"/>
<polygon fill="midnightblue" stroke="midnightblue" points="362.66,-141.26 358.18,-131.66 355.69,-141.96 362.66,-141.26"/>
</g>
<!-- Node12&#45;&gt;Node14 -->
<g id="edge17" class="edge">
<title>Node12&#45;&gt;Node14</title>
<path fill="none" stroke="midnightblue" d="M466.93,-224.32C457.76,-216.34 443.95,-204.31 432.86,-194.65"/>
<polygon fill="midnightblue" stroke="midnightblue" points="434.87,-191.76 425.03,-187.83 430.28,-197.04 434.87,-191.76"/>
</g>
<!-- Node14&#45;&gt;Node2 -->
<g id="edge20" class="edge">
<title>Node14&#45;&gt;Node2</title>
<path fill="none" stroke="midnightblue" d="M385.72,-182.21C297.42,-191.94 38.81,-220.71 35.89,-224 29.99,-230.65 30.52,-236.92 35.89,-244 75.58,-296.26 260.62,-324.89 367.72,-337.33"/>
<polygon fill="midnightblue" stroke="midnightblue" points="367.5,-340.83 377.83,-338.48 368.29,-333.87 367.5,-340.83"/>
</g>
<!-- Node14&#45;&gt;Node6 -->
<g id="edge18" class="edge">
<title>Node14&#45;&gt;Node6</title>
<path fill="none" stroke="midnightblue" d="M433.11,-168.44C451.9,-159.62 481.39,-145.77 502.89,-135.68"/>
<polygon fill="midnightblue" stroke="midnightblue" points="504.57,-138.76 512.13,-131.34 501.59,-132.42 504.57,-138.76"/>
</g>
<!-- Node14&#45;&gt;Node8 -->
<g id="edge21" class="edge">
<title>Node14&#45;&gt;Node8</title>
<path fill="none" stroke="midnightblue" d="M443.99,-170.66C448.63,-169.72 453.39,-168.8 457.89,-168 536.27,-154.07 626.45,-141.23 688.7,-132.86"/>
<polygon fill="midnightblue" stroke="midnightblue" points="689.38,-136.3 698.83,-131.5 688.45,-129.36 689.38,-136.3"/>
</g>
<!-- Node15 -->
<g id="node15" class="node">
<title>Node15</title>
<g id="a_node15"><a xlink:title=" ">
<polygon fill="none" stroke="#bfbfbf" points="392.89,-0.5 392.89,-19.5 436.89,-19.5 436.89,-0.5 392.89,-0.5"/>
<text text-anchor="middle" x="414.89" y="-7.5" font-family="Helvetica,sans-Serif" font-size="10.00">vector</text>
</a>
</g>
</g>
<!-- Node14&#45;&gt;Node15 -->
<g id="edge19" class="edge">
<title>Node14&#45;&gt;Node15</title>
<path fill="none" stroke="midnightblue" d="M414.89,-168.08C414.89,-141.95 414.89,-65.21 414.89,-29.58"/>
<polygon fill="midnightblue" stroke="midnightblue" points="418.39,-29.57 414.89,-19.57 411.39,-29.57 418.39,-29.57"/>
</g>
<!-- Node14&#45;&gt;Node16 -->
<g id="edge22" class="edge">
<title>Node14&#45;&gt;Node16</title>
<path fill="none" stroke="midnightblue" d="M421.8,-168.37C436.38,-150.14 470.55,-107.43 489.55,-83.68"/>
<polygon fill="midnightblue" stroke="midnightblue" points="492.5,-85.59 496.02,-75.59 487.04,-81.21 492.5,-85.59"/>
</g>
<!-- Node14&#45;&gt;Node18 -->
<g id="edge25" class="edge">
<title>Node14&#45;&gt;Node18</title>
<path fill="none" stroke="midnightblue" d="M444.1,-170.05C484.87,-160.35 558.89,-142.75 603.9,-132.04"/>
<polygon fill="midnightblue" stroke="midnightblue" points="604.94,-135.39 613.86,-129.67 603.32,-128.58 604.94,-135.39"/>
</g>
<!-- Node16&#45;&gt;Node15 -->
<g id="edge24" class="edge">
<title>Node16&#45;&gt;Node15</title>
<path fill="none" stroke="midnightblue" d="M488.75,-56.32C475.02,-47.9 453.95,-34.97 437.83,-25.07"/>
<polygon fill="midnightblue" stroke="midnightblue" points="439.35,-21.9 428.99,-19.65 435.69,-27.87 439.35,-21.9"/>
</g>
<!-- Node17 -->
<g id="node17" class="node">
<title>Node17</title>
<g id="a_node17"><a xlink:title=" ">
<polygon fill="none" stroke="#bfbfbf" points="527.39,-0.5 527.39,-19.5 568.39,-19.5 568.39,-0.5 527.39,-0.5"/>
<text text-anchor="middle" x="547.89" y="-7.5" font-family="Helvetica,sans-Serif" font-size="10.00">string</text>
</a>
</g>
</g>
<!-- Node16&#45;&gt;Node17 -->
<g id="edge23" class="edge">
<title>Node16&#45;&gt;Node17</title>
<path fill="none" stroke="midnightblue" d="M510.32,-56.08C516.74,-48.38 526.2,-37.03 534.01,-27.65"/>
<polygon fill="midnightblue" stroke="midnightblue" points="536.89,-29.67 540.6,-19.75 531.51,-25.19 536.89,-29.67"/>
</g>
<!-- Node18&#45;&gt;Node16 -->
<g id="edge27" class="edge">
<title>Node18&#45;&gt;Node16</title>
<path fill="none" stroke="midnightblue" d="M619.87,-112.44C596.79,-103.48 560.33,-89.31 534.25,-79.18"/>
<polygon fill="midnightblue" stroke="midnightblue" points="535.4,-75.88 524.81,-75.52 532.87,-82.4 535.4,-75.88"/>
</g>
<!-- Node18&#45;&gt;Node17 -->
<g id="edge26" class="edge">
<title>Node18&#45;&gt;Node17</title>
<path fill="none" stroke="midnightblue" d="M634.52,-112.37C618.87,-94.05 582.11,-51.05 561.87,-27.36"/>
<polygon fill="midnightblue" stroke="midnightblue" points="564.39,-24.92 555.23,-19.59 559.07,-29.47 564.39,-24.92"/>
</g>
<!-- Node19&#45;&gt;Node2 -->
<g id="edge31" class="edge">
<title>Node19&#45;&gt;Node2</title>
<path fill="none" stroke="midnightblue" d="M881.86,-243.51C837.98,-256.65 750.29,-282.22 674.89,-300 617.34,-313.57 551,-326.24 504.41,-334.65"/>
<polygon fill="midnightblue" stroke="midnightblue" points="503.7,-331.22 494.48,-336.43 504.94,-338.11 503.7,-331.22"/>
</g>
<!-- Node19&#45;&gt;Node8 -->
<g id="edge32" class="edge">
<title>Node19&#45;&gt;Node8</title>
<path fill="none" stroke="midnightblue" d="M898.51,-224.37C873.84,-205.65 815.18,-161.15 784.44,-137.83"/>
<polygon fill="midnightblue" stroke="midnightblue" points="786.3,-134.85 776.22,-131.59 782.07,-140.42 786.3,-134.85"/>
</g>
<!-- Node19&#45;&gt;Node14 -->
<g id="edge33" class="edge">
<title>Node19&#45;&gt;Node14</title>
<path fill="none" stroke="midnightblue" d="M875.68,-225.5C872.72,-224.95 869.76,-224.44 866.89,-224 715.41,-200.67 533.4,-186.83 454.54,-181.51"/>
<polygon fill="midnightblue" stroke="midnightblue" points="454.32,-177.99 444.11,-180.82 453.86,-184.98 454.32,-177.99"/>
</g>
<!-- Node20&#45;&gt;Node2 -->
<g id="edge36" class="edge">
<title>Node20&#45;&gt;Node2</title>
<path fill="none" stroke="midnightblue" d="M255.95,-243.57C270.56,-257.03 300.64,-283.31 329.89,-300 354.22,-313.89 383.67,-325.32 406.68,-333.19"/>
<polygon fill="midnightblue" stroke="midnightblue" points="405.84,-336.6 416.43,-336.44 408.06,-329.96 405.84,-336.6"/>
</g>
<!-- Node20&#45;&gt;Node8 -->
<g id="edge37" class="edge">
<title>Node20&#45;&gt;Node8</title>
<path fill="none" stroke="midnightblue" d="M301.05,-224.47C360.6,-214.8 452.32,-198.95 485.89,-188 505.55,-181.59 508.24,-174.43 527.89,-168 579.44,-151.14 639.48,-139.83 686.23,-132.76"/>
<polygon fill="midnightblue" stroke="midnightblue" points="686.92,-136.19 696.3,-131.27 685.9,-129.27 686.92,-136.19"/>
</g>
<!-- Node20&#45;&gt;Node14 -->
<g id="edge38" class="edge">
<title>Node20&#45;&gt;Node14</title>
<path fill="none" stroke="midnightblue" d="M273.51,-224.44C301.9,-215.32 347.03,-200.81 378.64,-190.65"/>
<polygon fill="midnightblue" stroke="midnightblue" points="379.95,-193.91 388.4,-187.52 377.8,-187.24 379.95,-193.91"/>
</g>
<!-- Node20&#45;&gt;Node21 -->
<g id="edge39" class="edge">
<title>Node20&#45;&gt;Node21</title>
<path fill="none" stroke="midnightblue" d="M247.39,-224.08C247.78,-217.01 248.34,-206.86 248.84,-197.99"/>
<polygon fill="midnightblue" stroke="midnightblue" points="252.34,-197.93 249.41,-187.75 245.36,-197.54 252.34,-197.93"/>
</g>
<!-- Node21&#45;&gt;Node13 -->
<g id="edge40" class="edge">
<title>Node21&#45;&gt;Node13</title>
<path fill="none" stroke="midnightblue" d="M267.24,-168.32C284.56,-159.66 311.41,-146.24 331.39,-136.25"/>
<polygon fill="midnightblue" stroke="midnightblue" points="333.2,-139.26 340.58,-131.65 330.07,-133 333.2,-139.26"/>
</g>
<!-- Node21&#45;&gt;Node15 -->
<g id="edge42" class="edge">
<title>Node21&#45;&gt;Node15</title>
<path fill="none" stroke="midnightblue" d="M239.98,-168.32C226.7,-155.61 206.09,-131.32 217.89,-112 253.96,-52.97 336.69,-27.02 382.64,-16.81"/>
<polygon fill="midnightblue" stroke="midnightblue" points="383.6,-20.19 392.66,-14.71 382.16,-13.34 383.6,-20.19"/>
</g>
<!-- Node21&#45;&gt;Node16 -->
<g id="edge43" class="edge">
<title>Node21&#45;&gt;Node16</title>
<path fill="none" stroke="midnightblue" d="M257.4,-168.41C270.09,-154.44 297.22,-126.86 325.89,-112 365.9,-91.26 416.05,-79.68 452.74,-73.48"/>
<polygon fill="midnightblue" stroke="midnightblue" points="453.4,-76.92 462.71,-71.87 452.28,-70.01 453.4,-76.92"/>
</g>
<!-- Node22 -->
<g id="node22" class="node">
<title>Node22</title>
<g id="a_node22"><a xlink:title=" ">
<polygon fill="none" stroke="#bfbfbf" points="227.39,-112.5 227.39,-131.5 278.39,-131.5 278.39,-112.5 227.39,-112.5"/>
<text text-anchor="middle" x="252.89" y="-119.5" font-family="Helvetica,sans-Serif" font-size="10.00">numeric</text>
</a>
</g>
</g>
<!-- Node21&#45;&gt;Node22 -->
<g id="edge41" class="edge">
<title>Node21&#45;&gt;Node22</title>
<path fill="none" stroke="midnightblue" d="M250.39,-168.08C250.78,-161.01 251.34,-150.86 251.84,-141.99"/>
<polygon fill="midnightblue" stroke="midnightblue" points="255.34,-141.93 252.41,-131.75 248.36,-141.54 255.34,-141.93"/>
</g>
<!-- Node23&#45;&gt;Node2 -->
<g id="edge45" class="edge">
<title>Node23&#45;&gt;Node2</title>
<path fill="none" stroke="midnightblue" d="M131.23,-243.55C167.45,-256.22 237.73,-280.56 297.89,-300 334.47,-311.82 376.41,-324.58 406.11,-333.49"/>
<polygon fill="midnightblue" stroke="midnightblue" points="405.49,-336.95 416.08,-336.47 407.5,-330.25 405.49,-336.95"/>
</g>
<!-- Node23&#45;&gt;Node8 -->
<g id="edge46" class="edge">
<title>Node23&#45;&gt;Node8</title>
<path fill="none" stroke="midnightblue" d="M168.78,-225.03C267.86,-212.26 451.22,-188.58 452.89,-188 469.08,-182.33 469.8,-173.92 485.89,-168 521.72,-154.83 617.06,-141.04 686.34,-132.26"/>
<polygon fill="midnightblue" stroke="midnightblue" points="686.88,-135.72 696.36,-131 686,-128.77 686.88,-135.72"/>
</g>
<!-- Node23&#45;&gt;Node14 -->
<g id="edge47" class="edge">
<title>Node23&#45;&gt;Node14</title>
<path fill="none" stroke="midnightblue" d="M155.69,-224.44C216.69,-213.75 319.88,-195.66 375.89,-185.84"/>
<polygon fill="midnightblue" stroke="midnightblue" points="376.53,-189.28 385.78,-184.1 375.32,-182.38 376.53,-189.28"/>
</g>
<!-- Node23&#45;&gt;Node21 -->
<g id="edge48" class="edge">
<title>Node23&#45;&gt;Node21</title>
<path fill="none" stroke="midnightblue" d="M129.55,-224.44C153.29,-215.48 190.8,-201.31 217.63,-191.18"/>
<polygon fill="midnightblue" stroke="midnightblue" points="219.22,-194.32 227.34,-187.52 216.75,-187.77 219.22,-194.32"/>
</g>
<!-- Node24&#45;&gt;Node2 -->
<g id="edge50" class="edge">
<title>Node24&#45;&gt;Node2</title>
<path fill="none" stroke="midnightblue" d="M383.26,-243.74C394.18,-252 409.88,-265.3 419.89,-280 429.66,-294.35 436.34,-313.06 440.32,-326.72"/>
<polygon fill="midnightblue" stroke="midnightblue" points="436.95,-327.67 442.94,-336.41 443.7,-325.84 436.95,-327.67"/>
</g>
<!-- Node24&#45;&gt;Node8 -->
<g id="edge51" class="edge">
<title>Node24&#45;&gt;Node8</title>
<path fill="none" stroke="midnightblue" d="M401.48,-224.46C471.82,-204.82 645.08,-156.45 724.25,-134.35"/>
<polygon fill="midnightblue" stroke="midnightblue" points="725.63,-137.59 734.32,-131.53 723.75,-130.85 725.63,-137.59"/>
</g>
<!-- Node24&#45;&gt;Node14 -->
<g id="edge52" class="edge">
<title>Node24&#45;&gt;Node14</title>
<path fill="none" stroke="midnightblue" d="M378.16,-224.08C384.44,-216.38 393.68,-205.03 401.32,-195.65"/>
<polygon fill="midnightblue" stroke="midnightblue" points="404.16,-197.71 407.76,-187.75 398.73,-193.29 404.16,-197.71"/>
</g>
<!-- Node24&#45;&gt;Node21 -->
<g id="edge53" class="edge">
<title>Node24&#45;&gt;Node21</title>
<path fill="none" stroke="midnightblue" d="M351.72,-224.44C331.98,-215.64 301.01,-201.81 278.4,-191.72"/>
<polygon fill="midnightblue" stroke="midnightblue" points="279.53,-188.4 268.97,-187.52 276.68,-194.79 279.53,-188.4"/>
</g>
<!-- Node25&#45;&gt;Node2 -->
<g id="edge55" class="edge">
<title>Node25&#45;&gt;Node2</title>
<path fill="none" stroke="midnightblue" d="M789.53,-243.57C756.08,-256.8 689.12,-282.5 630.89,-300 585.81,-313.55 533.66,-325.88 496.07,-334.2"/>
<polygon fill="midnightblue" stroke="midnightblue" points="494.89,-330.87 485.87,-336.43 496.39,-337.71 494.89,-330.87"/>
</g>
<!-- Node25&#45;&gt;Node8 -->
<g id="edge56" class="edge">
<title>Node25&#45;&gt;Node8</title>
<path fill="none" stroke="midnightblue" d="M807.28,-224.37C799.79,-206.46 782.42,-164.92 772.4,-140.95"/>
<polygon fill="midnightblue" stroke="midnightblue" points="775.57,-139.47 768.48,-131.59 769.11,-142.17 775.57,-139.47"/>
</g>
<!-- Node25&#45;&gt;Node14 -->
<g id="edge57" class="edge">
<title>Node25&#45;&gt;Node14</title>
<path fill="none" stroke="midnightblue" d="M763.85,-225.34C760.82,-224.88 757.81,-224.43 754.89,-224 646.07,-208.06 517.27,-191.69 453.98,-183.82"/>
<polygon fill="midnightblue" stroke="midnightblue" points="454.39,-180.34 444.04,-182.58 453.53,-187.29 454.39,-180.34"/>
</g>
</g>
</svg>
