<?xml version="1.0" encoding="UTF-8" standalone="no"?>
<!DOCTYPE svg PUBLIC "-//W3C//DTD SVG 1.1//EN"
 "http://www.w3.org/Graphics/SVG/1.1/DTD/svg11.dtd">
<!-- Generated by graphviz version 3.0.0 (20220413.0242)
 -->
<!-- Title: model/flowreferencebc.hpp Pages: 1 -->
<svg width="1474pt" height="252pt"
 viewBox="0.00 0.00 1474.34 252.00" xmlns="http://www.w3.org/2000/svg" xmlns:xlink="http://www.w3.org/1999/xlink">
<g id="graph0" class="graph" transform="scale(1 1) rotate(0) translate(4 248)">
<title>model/flowreferencebc.hpp</title>
<!-- Node1 -->
<g id="node1" class="node">
<title>Node1</title>
<g id="a_node1"><a xlink:title="MODEL::FlowReferenceBC source file.">
<polygon fill="#bfbfbf" stroke="black" points="721.84,-224.5 721.84,-243.5 853.84,-243.5 853.84,-224.5 721.84,-224.5"/>
<text text-anchor="middle" x="787.84" y="-231.5" font-family="Helvetica,sans-Serif" font-size="10.00">model/flowreferencebc.hpp</text>
</a>
</g>
</g>
<!-- Node2 -->
<g id="node2" class="node">
<title>Node2</title>
<g id="a_node2"><a xlink:href="model_8hpp.html" target="_top" xlink:title="MODEL::Model source file.">
<polygon fill="none" stroke="black" points="502.84,-168.5 502.84,-187.5 592.84,-187.5 592.84,-168.5 502.84,-168.5"/>
<text text-anchor="middle" x="547.84" y="-175.5" font-family="Helvetica,sans-Serif" font-size="10.00">model/model.hpp</text>
</a>
</g>
</g>
<!-- Node1&#45;&gt;Node2 -->
<g id="edge1" class="edge">
<title>Node1&#45;&gt;Node2</title>
<path fill="none" stroke="midnightblue" d="M739.91,-222.22C694.56,-212.01 627.39,-196.9 585.69,-187.52"/>
<polygon fill="midnightblue" stroke="midnightblue" points="739.28,-225.66 749.81,-224.44 740.82,-218.83 739.28,-225.66"/>
</g>
<!-- Node3 -->
<g id="node3" class="node">
<title>Node3</title>
<g id="a_node3"><a xlink:href="densesystem_8hpp.html" target="_top" xlink:title="ALGEBRA::DenseSystem source file.">
<polygon fill="none" stroke="black" points="633.34,-112.5 633.34,-131.5 760.34,-131.5 760.34,-112.5 633.34,-112.5"/>
<text text-anchor="middle" x="696.84" y="-119.5" font-family="Helvetica,sans-Serif" font-size="10.00">algebra/densesystem.hpp</text>
</a>
</g>
</g>
<!-- Node2&#45;&gt;Node3 -->
<g id="edge2" class="edge">
<title>Node2&#45;&gt;Node3</title>
<path fill="none" stroke="midnightblue" d="M575.82,-164.77C602.29,-154.63 641.59,-140.47 668.26,-131.52"/>
<polygon fill="midnightblue" stroke="midnightblue" points="574.41,-161.56 566.36,-168.44 576.94,-168.09 574.41,-161.56"/>
</g>
<!-- Node4 -->
<g id="node4" class="node">
<title>Node4</title>
<g id="a_node4"><a xlink:href="main_8cpp.html" target="_top" xlink:title="Main routine of svZeroDSolver.">
<polygon fill="none" stroke="black" points="270.84,-56.5 270.84,-75.5 326.84,-75.5 326.84,-56.5 270.84,-56.5"/>
<text text-anchor="middle" x="298.84" y="-63.5" font-family="Helvetica,sans-Serif" font-size="10.00">main.cpp</text>
</a>
</g>
</g>
<!-- Node2&#45;&gt;Node4 -->
<g id="edge54" class="edge">
<title>Node2&#45;&gt;Node4</title>
<path fill="none" stroke="midnightblue" d="M492.78,-176.35C419.12,-174.18 294.41,-165.5 265.84,-132 250.89,-114.48 273.87,-89.02 288.41,-75.76"/>
<polygon fill="midnightblue" stroke="midnightblue" points="492.74,-179.85 502.82,-176.61 492.92,-172.85 492.74,-179.85"/>
</g>
<!-- Node15 -->
<g id="node15" class="node">
<title>Node15</title>
<g id="a_node15"><a xlink:href="integrator_8hpp.html" target="_top" xlink:title="ALGEBRA::Integrator source file.">
<polygon fill="none" stroke="black" points="274.84,-112.5 274.84,-131.5 384.84,-131.5 384.84,-112.5 274.84,-112.5"/>
<text text-anchor="middle" x="329.84" y="-119.5" font-family="Helvetica,sans-Serif" font-size="10.00">algebra/integrator.hpp</text>
</a>
</g>
</g>
<!-- Node2&#45;&gt;Node15 -->
<g id="edge32" class="edge">
<title>Node2&#45;&gt;Node15</title>
<path fill="none" stroke="midnightblue" d="M503.52,-166.02C462.34,-155.82 401.86,-140.84 364.22,-131.52"/>
<polygon fill="midnightblue" stroke="midnightblue" points="502.74,-169.44 513.29,-168.44 504.43,-162.64 502.74,-169.44"/>
</g>
<!-- Node16 -->
<g id="node16" class="node">
<title>Node16</title>
<g id="a_node16"><a xlink:href="sparsesystem_8hpp.html" target="_top" xlink:title="ALGEBRA::SparseSystem source file.">
<polygon fill="none" stroke="black" points="778.84,-112.5 778.84,-131.5 908.84,-131.5 908.84,-112.5 778.84,-112.5"/>
<text text-anchor="middle" x="843.84" y="-119.5" font-family="Helvetica,sans-Serif" font-size="10.00">algebra/sparsesystem.hpp</text>
</a>
</g>
</g>
<!-- Node2&#45;&gt;Node16 -->
<g id="edge34" class="edge">
<title>Node2&#45;&gt;Node16</title>
<path fill="none" stroke="midnightblue" d="M599.72,-166.54C653.83,-156.33 738,-141 792.07,-131.52"/>
<polygon fill="midnightblue" stroke="midnightblue" points="598.82,-163.14 589.65,-168.44 600.13,-170.02 598.82,-163.14"/>
</g>
<!-- Node17 -->
<g id="node17" class="node">
<title>Node17</title>
<g id="a_node17"><a xlink:href="configreader_8hpp.html" target="_top" xlink:title="IO::ConfigReader source file.">
<polygon fill="none" stroke="black" points="402.84,-112.5 402.84,-131.5 500.84,-131.5 500.84,-112.5 402.84,-112.5"/>
<text text-anchor="middle" x="451.84" y="-119.5" font-family="Helvetica,sans-Serif" font-size="10.00">io/configreader.hpp</text>
</a>
</g>
</g>
<!-- Node2&#45;&gt;Node17 -->
<g id="edge48" class="edge">
<title>Node2&#45;&gt;Node17</title>
<path fill="none" stroke="midnightblue" d="M523.26,-163.18C505.6,-153.24 482.32,-140.15 467.22,-131.65"/>
<polygon fill="midnightblue" stroke="midnightblue" points="521.98,-166.47 532.41,-168.32 525.41,-160.37 521.98,-166.47"/>
</g>
<!-- Node18 -->
<g id="node18" class="node">
<title>Node18</title>
<g id="a_node18"><a xlink:href="csvwriter_8hpp.html" target="_top" xlink:title="IO::write_csv source file.">
<polygon fill="none" stroke="black" points="28.34,-112.5 28.34,-131.5 113.34,-131.5 113.34,-112.5 28.34,-112.5"/>
<text text-anchor="middle" x="70.84" y="-119.5" font-family="Helvetica,sans-Serif" font-size="10.00">io/csvwriter.hpp</text>
</a>
</g>
</g>
<!-- Node2&#45;&gt;Node18 -->
<g id="edge50" class="edge">
<title>Node2&#45;&gt;Node18</title>
<path fill="none" stroke="midnightblue" d="M492.61,-172.4C411.23,-165.34 254.43,-150.68 121.84,-132 119.08,-131.61 116.24,-131.18 113.38,-130.73"/>
<polygon fill="midnightblue" stroke="midnightblue" points="492.36,-175.89 502.63,-173.26 492.96,-168.92 492.36,-175.89"/>
</g>
<!-- Node19 -->
<g id="node19" class="node">
<title>Node19</title>
<g id="a_node19"><a xlink:href="jsonwriter_8hpp.html" target="_top" xlink:title="IO::write_json source file.">
<polygon fill="none" stroke="black" points="131.34,-112.5 131.34,-131.5 218.34,-131.5 218.34,-112.5 131.34,-112.5"/>
<text text-anchor="middle" x="174.84" y="-119.5" font-family="Helvetica,sans-Serif" font-size="10.00">io/jsonwriter.hpp</text>
</a>
</g>
</g>
<!-- Node2&#45;&gt;Node19 -->
<g id="edge52" class="edge">
<title>Node2&#45;&gt;Node19</title>
<path fill="none" stroke="midnightblue" d="M492.59,-169.31C429.67,-160.51 323.8,-145.55 232.84,-132 228.2,-131.31 223.36,-130.58 218.53,-129.84"/>
<polygon fill="midnightblue" stroke="midnightblue" points="492.3,-172.81 502.69,-170.72 493.27,-165.87 492.3,-172.81"/>
</g>
<!-- Node3&#45;&gt;Node1 -->
<g id="edge25" class="edge">
<title>Node3&#45;&gt;Node1</title>
<path fill="none" stroke="midnightblue" d="M710.37,-139.36C729.97,-163.05 765.54,-206.05 780.69,-224.37"/>
<polygon fill="midnightblue" stroke="midnightblue" points="713.01,-137.07 703.94,-131.59 707.62,-141.53 713.01,-137.07"/>
</g>
<!-- Node3&#45;&gt;Node2 -->
<g id="edge27" class="edge">
<title>Node3&#45;&gt;Node2</title>
<path fill="none" stroke="midnightblue" d="M668.97,-135.18C642.54,-145.31 603.24,-159.48 576.53,-168.44"/>
<polygon fill="midnightblue" stroke="midnightblue" points="670.36,-138.4 678.42,-131.52 667.83,-131.87 670.36,-138.4"/>
</g>
<!-- Node3&#45;&gt;Node4 -->
<g id="edge3" class="edge">
<title>Node3&#45;&gt;Node4</title>
<path fill="none" stroke="midnightblue" d="M622.9,-113.52C550.71,-105.77 437.86,-92.5 340.84,-76 336.42,-75.25 331.77,-74.36 327.24,-73.43"/>
<polygon fill="midnightblue" stroke="midnightblue" points="622.94,-117.04 633.25,-114.62 623.68,-110.08 622.94,-117.04"/>
</g>
<!-- Node5 -->
<g id="node5" class="node">
<title>Node5</title>
<g id="a_node5"><a xlink:href="block_8hpp.html" target="_top" xlink:title="MODEL::Block source file.">
<polygon fill="none" stroke="black" points="839.34,-56.5 839.34,-75.5 926.34,-75.5 926.34,-56.5 839.34,-56.5"/>
<text text-anchor="middle" x="882.84" y="-63.5" font-family="Helvetica,sans-Serif" font-size="10.00">model/block.hpp</text>
</a>
</g>
</g>
<!-- Node3&#45;&gt;Node5 -->
<g id="edge4" class="edge">
<title>Node3&#45;&gt;Node5</title>
<path fill="none" stroke="midnightblue" d="M736.21,-109.57C771.3,-99.38 821.86,-84.7 853.5,-75.52"/>
<polygon fill="midnightblue" stroke="midnightblue" points="734.94,-106.29 726.31,-112.44 736.89,-113.02 734.94,-106.29"/>
</g>
<!-- Node6 -->
<g id="node6" class="node">
<title>Node6</title>
<g id="a_node6"><a xlink:href="bloodvessel_8hpp.html" target="_top" xlink:title="MODEL::BloodVessel source file.">
<polygon fill="none" stroke="black" points="508.84,-0.5 508.84,-19.5 624.84,-19.5 624.84,-0.5 508.84,-0.5"/>
<text text-anchor="middle" x="566.84" y="-7.5" font-family="Helvetica,sans-Serif" font-size="10.00">model/bloodvessel.hpp</text>
</a>
</g>
</g>
<!-- Node3&#45;&gt;Node6 -->
<g id="edge21" class="edge">
<title>Node3&#45;&gt;Node6</title>
<path fill="none" stroke="midnightblue" d="M678.89,-105.82C651.2,-82.39 598.97,-38.19 576.99,-19.59"/>
<polygon fill="midnightblue" stroke="midnightblue" points="676.74,-108.58 686.63,-112.37 681.26,-103.24 676.74,-108.58"/>
</g>
<!-- Node7 -->
<g id="node7" class="node">
<title>Node7</title>
<g id="a_node7"><a xlink:href="closedloop_r_c_rbc_8hpp_source.html" target="_top" xlink:title=" ">
<polygon fill="none" stroke="black" points="813.34,-0.5 813.34,-19.5 954.34,-19.5 954.34,-0.5 813.34,-0.5"/>
<text text-anchor="middle" x="883.84" y="-7.5" font-family="Helvetica,sans-Serif" font-size="10.00">model/closedloopRCRbc.hpp</text>
</a>
</g>
</g>
<!-- Node3&#45;&gt;Node7 -->
<g id="edge22" class="edge">
<title>Node3&#45;&gt;Node7</title>
<path fill="none" stroke="midnightblue" d="M720.62,-107.01C759.87,-83.92 837.07,-38.51 869.23,-19.59"/>
<polygon fill="midnightblue" stroke="midnightblue" points="718.35,-104.28 711.51,-112.37 721.9,-110.32 718.35,-104.28"/>
</g>
<!-- Node8 -->
<g id="node8" class="node">
<title>Node8</title>
<g id="a_node8"><a xlink:href="closedloopcoronarybc_8hpp_source.html" target="_top" xlink:title=" ">
<polygon fill="none" stroke="black" points="972.84,-0.5 972.84,-19.5 1130.84,-19.5 1130.84,-0.5 972.84,-0.5"/>
<text text-anchor="middle" x="1051.84" y="-7.5" font-family="Helvetica,sans-Serif" font-size="10.00">model/closedloopcoronarybc.hpp</text>
</a>
</g>
</g>
<!-- Node3&#45;&gt;Node8 -->
<g id="edge23" class="edge">
<title>Node3&#45;&gt;Node8</title>
<path fill="none" stroke="midnightblue" d="M763.61,-110.91C822.93,-101.49 904.89,-87.24 935.84,-76 956.67,-68.43 1011.5,-35.65 1037.62,-19.74"/>
<polygon fill="midnightblue" stroke="midnightblue" points="762.89,-107.48 753.55,-112.49 763.98,-114.39 762.89,-107.48"/>
</g>
<!-- Node9 -->
<g id="node9" class="node">
<title>Node9</title>
<g id="a_node9"><a xlink:href="closedloopheartpulmonary_8hpp.html" target="_top" xlink:title="MODEL::ClosedLoopHeartPulmonary source file.">
<polygon fill="none" stroke="black" points="1148.84,-0.5 1148.84,-19.5 1324.84,-19.5 1324.84,-0.5 1148.84,-0.5"/>
<text text-anchor="middle" x="1236.84" y="-7.5" font-family="Helvetica,sans-Serif" font-size="10.00">model/closedloopheartpulmonary.hpp</text>
</a>
</g>
</g>
<!-- Node3&#45;&gt;Node9 -->
<g id="edge24" class="edge">
<title>Node3&#45;&gt;Node9</title>
<path fill="none" stroke="midnightblue" d="M765.71,-110.97C820.64,-102.64 899.42,-89.93 967.84,-76 1053.99,-58.46 1154.43,-32.78 1204.71,-19.56"/>
<polygon fill="midnightblue" stroke="midnightblue" points="765.11,-107.53 755.74,-112.48 766.15,-114.45 765.11,-107.53"/>
</g>
<!-- Node10 -->
<g id="node10" class="node">
<title>Node10</title>
<g id="a_node10"><a xlink:href="junction_8hpp.html" target="_top" xlink:title="MODEL::Junction source file.">
<polygon fill="none" stroke="black" points="254.84,-0.5 254.84,-19.5 352.84,-19.5 352.84,-0.5 254.84,-0.5"/>
<text text-anchor="middle" x="303.84" y="-7.5" font-family="Helvetica,sans-Serif" font-size="10.00">model/junction.hpp</text>
</a>
</g>
</g>
<!-- Node3&#45;&gt;Node10 -->
<g id="edge26" class="edge">
<title>Node3&#45;&gt;Node10</title>
<path fill="none" stroke="midnightblue" d="M654.74,-109.76C621.15,-100.76 572.93,-87.73 530.84,-76 459.76,-56.19 376.41,-32.1 333.18,-19.55"/>
<polygon fill="midnightblue" stroke="midnightblue" points="654.1,-113.22 664.66,-112.42 655.91,-106.46 654.1,-113.22"/>
</g>
<!-- Node11 -->
<g id="node11" class="node">
<title>Node11</title>
<g id="a_node11"><a xlink:href="openloopcoronarybc_8hpp.html" target="_top" xlink:title="MODEL::ClosedLoopCoronaryBC source file.">
<polygon fill="none" stroke="black" points="86.84,-0.5 86.84,-19.5 236.84,-19.5 236.84,-0.5 86.84,-0.5"/>
<text text-anchor="middle" x="161.84" y="-7.5" font-family="Helvetica,sans-Serif" font-size="10.00">model/openloopcoronarybc.hpp</text>
</a>
</g>
</g>
<!-- Node3&#45;&gt;Node11 -->
<g id="edge28" class="edge">
<title>Node3&#45;&gt;Node11</title>
<path fill="none" stroke="midnightblue" d="M639.4,-110.62C591.14,-101.78 520.38,-88.55 458.84,-76 365.22,-56.91 255.52,-32.32 199.27,-19.55"/>
<polygon fill="midnightblue" stroke="midnightblue" points="638.88,-114.08 649.34,-112.43 640.14,-107.19 638.88,-114.08"/>
</g>
<!-- Node12 -->
<g id="node12" class="node">
<title>Node12</title>
<g id="a_node12"><a xlink:href="pressurereferencebc_8hpp.html" target="_top" xlink:title="MODEL::PressureReferenceBC source file.">
<polygon fill="none" stroke="black" points="642.84,-0.5 642.84,-19.5 794.84,-19.5 794.84,-0.5 642.84,-0.5"/>
<text text-anchor="middle" x="718.84" y="-7.5" font-family="Helvetica,sans-Serif" font-size="10.00">model/pressurereferencebc.hpp</text>
</a>
</g>
</g>
<!-- Node3&#45;&gt;Node12 -->
<g id="edge29" class="edge">
<title>Node3&#45;&gt;Node12</title>
<path fill="none" stroke="midnightblue" d="M700.57,-102.35C705.38,-78.25 713.57,-37.31 717.12,-19.59"/>
<polygon fill="midnightblue" stroke="midnightblue" points="697.09,-101.88 698.56,-112.37 703.95,-103.25 697.09,-101.88"/>
</g>
<!-- Node13 -->
<g id="node13" class="node">
<title>Node13</title>
<g id="a_node13"><a xlink:href="resistancebc_8hpp.html" target="_top" xlink:title="MODEL::ResistanceBC source file.">
<polygon fill="none" stroke="black" points="371.34,-0.5 371.34,-19.5 490.34,-19.5 490.34,-0.5 371.34,-0.5"/>
<text text-anchor="middle" x="430.84" y="-7.5" font-family="Helvetica,sans-Serif" font-size="10.00">model/resistancebc.hpp</text>
</a>
</g>
</g>
<!-- Node3&#45;&gt;Node13 -->
<g id="edge30" class="edge">
<title>Node3&#45;&gt;Node13</title>
<path fill="none" stroke="midnightblue" d="M666.48,-108.45C611.85,-85.86 498.33,-38.91 451.61,-19.59"/>
<polygon fill="midnightblue" stroke="midnightblue" points="665.38,-111.78 675.96,-112.37 668.06,-105.31 665.38,-111.78"/>
</g>
<!-- Node14 -->
<g id="node14" class="node">
<title>Node14</title>
<g id="a_node14"><a xlink:href="windkesselbc_8hpp.html" target="_top" xlink:title="MODEL::WindkesselBC source file.">
<polygon fill="none" stroke="black" points="1343.34,-0.5 1343.34,-19.5 1466.34,-19.5 1466.34,-0.5 1343.34,-0.5"/>
<text text-anchor="middle" x="1404.84" y="-7.5" font-family="Helvetica,sans-Serif" font-size="10.00">model/windkesselbc.hpp</text>
</a>
</g>
</g>
<!-- Node3&#45;&gt;Node14 -->
<g id="edge31" class="edge">
<title>Node3&#45;&gt;Node14</title>
<path fill="none" stroke="midnightblue" d="M770.78,-111.51C852.33,-100.94 978.31,-84.24 1025.84,-76 1068.35,-68.63 1078.4,-63.82 1120.84,-56 1198.16,-41.74 1287.83,-28 1345.4,-19.53"/>
<polygon fill="midnightblue" stroke="midnightblue" points="770.04,-108.08 760.57,-112.83 770.94,-115.02 770.04,-108.08"/>
</g>
<!-- Node5&#45;&gt;Node1 -->
<g id="edge10" class="edge">
<title>Node5&#45;&gt;Node1</title>
<path fill="none" stroke="midnightblue" d="M900.87,-83.01C913.28,-96.05 926.14,-115.03 917.84,-132 894.91,-178.85 838.6,-210.23 808.16,-224.39"/>
<polygon fill="midnightblue" stroke="midnightblue" points="903,-80.19 893.4,-75.72 898.11,-85.21 903,-80.19"/>
</g>
<!-- Node5&#45;&gt;Node6 -->
<g id="edge5" class="edge">
<title>Node5&#45;&gt;Node6</title>
<path fill="none" stroke="midnightblue" d="M829.29,-55.85C769.85,-45.69 674.69,-29.43 616.76,-19.53"/>
<polygon fill="midnightblue" stroke="midnightblue" points="828.78,-59.31 839.23,-57.55 829.96,-52.41 828.78,-59.31"/>
</g>
<!-- Node5&#45;&gt;Node7 -->
<g id="edge7" class="edge">
<title>Node5&#45;&gt;Node7</title>
<path fill="none" stroke="midnightblue" d="M883.19,-45.8C883.36,-36.91 883.54,-26.78 883.67,-19.75"/>
<polygon fill="midnightblue" stroke="midnightblue" points="879.69,-46.02 883,-56.08 886.69,-46.15 879.69,-46.02"/>
</g>
<!-- Node5&#45;&gt;Node8 -->
<g id="edge8" class="edge">
<title>Node5&#45;&gt;Node8</title>
<path fill="none" stroke="midnightblue" d="M919.44,-53.3C951.28,-43.13 996.68,-28.62 1025.18,-19.52"/>
<polygon fill="midnightblue" stroke="midnightblue" points="918.07,-50.07 909.61,-56.44 920.2,-56.73 918.07,-50.07"/>
</g>
<!-- Node5&#45;&gt;Node9 -->
<g id="edge9" class="edge">
<title>Node5&#45;&gt;Node9</title>
<path fill="none" stroke="midnightblue" d="M936.79,-56.77C1002.82,-46.7 1114.05,-29.73 1180.94,-19.53"/>
<polygon fill="midnightblue" stroke="midnightblue" points="935.96,-53.36 926.6,-58.32 937.01,-60.28 935.96,-53.36"/>
</g>
<!-- Node5&#45;&gt;Node10 -->
<g id="edge11" class="edge">
<title>Node5&#45;&gt;Node10</title>
<path fill="none" stroke="midnightblue" d="M828.98,-61.56C734.29,-55.23 531.9,-40.52 361.84,-20 358.9,-19.65 355.89,-19.26 352.85,-18.84"/>
<polygon fill="midnightblue" stroke="midnightblue" points="828.95,-65.06 839.16,-62.23 829.42,-58.08 828.95,-65.06"/>
</g>
<!-- Node5&#45;&gt;Node11 -->
<g id="edge13" class="edge">
<title>Node5&#45;&gt;Node11</title>
<path fill="none" stroke="midnightblue" d="M829,-61.86C719.23,-55.3 461.67,-39.18 245.84,-20 242.91,-19.74 239.94,-19.47 236.93,-19.18"/>
<polygon fill="midnightblue" stroke="midnightblue" points="828.97,-65.36 839.16,-62.46 829.38,-58.37 828.97,-65.36"/>
</g>
<!-- Node5&#45;&gt;Node12 -->
<g id="edge15" class="edge">
<title>Node5&#45;&gt;Node12</title>
<path fill="none" stroke="midnightblue" d="M847.32,-53.3C816.41,-43.13 772.36,-28.62 744.7,-19.52"/>
<polygon fill="midnightblue" stroke="midnightblue" points="846.26,-56.64 856.85,-56.44 848.45,-49.99 846.26,-56.64"/>
</g>
<!-- Node5&#45;&gt;Node13 -->
<g id="edge17" class="edge">
<title>Node5&#45;&gt;Node13</title>
<path fill="none" stroke="midnightblue" d="M829.13,-58.91C755.02,-50.45 617.23,-34.55 499.84,-20 496.84,-19.63 493.77,-19.24 490.67,-18.85"/>
<polygon fill="midnightblue" stroke="midnightblue" points="828.83,-62.4 839.16,-60.05 829.62,-55.44 828.83,-62.4"/>
</g>
<!-- Node5&#45;&gt;Node14 -->
<g id="edge19" class="edge">
<title>Node5&#45;&gt;Node14</title>
<path fill="none" stroke="midnightblue" d="M936.55,-60.11C1021.12,-52.3 1190.48,-36.24 1333.84,-20 1336.92,-19.65 1340.08,-19.28 1343.27,-18.91"/>
<polygon fill="midnightblue" stroke="midnightblue" points="936.05,-56.64 926.41,-61.04 936.69,-63.61 936.05,-56.64"/>
</g>
<!-- Node6&#45;&gt;Node2 -->
<g id="edge6" class="edge">
<title>Node6&#45;&gt;Node2</title>
<path fill="none" stroke="midnightblue" d="M564.71,-29.58C560.63,-65.21 551.85,-141.95 548.86,-168.08"/>
<polygon fill="midnightblue" stroke="midnightblue" points="568.19,-29.9 565.85,-19.57 561.24,-29.11 568.19,-29.9"/>
</g>
<!-- Node10&#45;&gt;Node2 -->
<g id="edge12" class="edge">
<title>Node10&#45;&gt;Node2</title>
<path fill="none" stroke="midnightblue" d="M256.28,-21.93C166.37,-43.65 -16.53,-93.5 18.84,-132 51.26,-167.3 380.22,-174.94 502.44,-176.57"/>
<polygon fill="midnightblue" stroke="midnightblue" points="257.33,-25.27 266.24,-19.54 255.7,-18.47 257.33,-25.27"/>
</g>
<!-- Node11&#45;&gt;Node2 -->
<g id="edge14" class="edge">
<title>Node11&#45;&gt;Node2</title>
<path fill="none" stroke="midnightblue" d="M124.86,-22.8C67.66,-42.87 -31.51,-85.95 10.84,-132 43.85,-167.89 379.3,-175.17 502.64,-176.63"/>
<polygon fill="midnightblue" stroke="midnightblue" points="126.01,-26.11 134.33,-19.56 123.74,-19.49 126.01,-26.11"/>
</g>
<!-- Node12&#45;&gt;Node2 -->
<g id="edge16" class="edge">
<title>Node12&#45;&gt;Node2</title>
<path fill="none" stroke="midnightblue" d="M702.47,-26.89C667.13,-61.19 584.64,-141.27 557.03,-168.08"/>
<polygon fill="midnightblue" stroke="midnightblue" points="705.27,-29.04 710.01,-19.57 700.4,-24.02 705.27,-29.04"/>
</g>
<!-- Node13&#45;&gt;Node2 -->
<g id="edge18" class="edge">
<title>Node13&#45;&gt;Node2</title>
<path fill="none" stroke="midnightblue" d="M444.69,-27.28C461.05,-46.83 488.71,-80.87 509.84,-112 523.05,-131.47 536.47,-155.69 543.27,-168.36"/>
<polygon fill="midnightblue" stroke="midnightblue" points="447.34,-25.01 438.22,-19.62 441.99,-29.52 447.34,-25.01"/>
</g>
<!-- Node14&#45;&gt;Node2 -->
<g id="edge20" class="edge">
<title>Node14&#45;&gt;Node2</title>
<path fill="none" stroke="midnightblue" d="M1367.71,-22.53C1323.1,-36.18 1245.88,-59.19 1178.84,-76 1063.76,-104.86 1034.84,-112.37 917.84,-132 801.37,-151.54 662.92,-166.09 593.02,-172.83"/>
<polygon fill="midnightblue" stroke="midnightblue" points="1368.98,-25.8 1377.52,-19.52 1366.93,-19.11 1368.98,-25.8"/>
</g>
<!-- Node15&#45;&gt;Node4 -->
<g id="edge33" class="edge">
<title>Node15&#45;&gt;Node4</title>
<path fill="none" stroke="midnightblue" d="M319.66,-103.27C314.36,-94.05 308.12,-83.17 303.86,-75.75"/>
<polygon fill="midnightblue" stroke="midnightblue" points="316.7,-105.15 324.72,-112.08 322.77,-101.67 316.7,-105.15"/>
</g>
<!-- Node16&#45;&gt;Node1 -->
<g id="edge41" class="edge">
<title>Node16&#45;&gt;Node1</title>
<path fill="none" stroke="midnightblue" d="M834.86,-140.63C822.68,-164.55 801.39,-206.38 792.23,-224.37"/>
<polygon fill="midnightblue" stroke="midnightblue" points="838.04,-142.09 839.46,-131.59 831.81,-138.92 838.04,-142.09"/>
</g>
<!-- Node16&#45;&gt;Node2 -->
<g id="edge43" class="edge">
<title>Node16&#45;&gt;Node2</title>
<path fill="none" stroke="midnightblue" d="M791.81,-133.49C735.39,-144.13 646.41,-160.32 592.87,-169.66"/>
<polygon fill="midnightblue" stroke="midnightblue" points="792.77,-136.87 801.95,-131.57 791.47,-129.99 792.77,-136.87"/>
</g>
<!-- Node16&#45;&gt;Node4 -->
<g id="edge35" class="edge">
<title>Node16&#45;&gt;Node4</title>
<path fill="none" stroke="midnightblue" d="M768.37,-111.86C594.37,-93.1 398.73,-75.69 327,-69.44"/>
<polygon fill="midnightblue" stroke="midnightblue" points="768.16,-115.36 778.48,-112.96 768.91,-108.4 768.16,-115.36"/>
</g>
<!-- Node16&#45;&gt;Node5 -->
<g id="edge36" class="edge">
<title>Node16&#45;&gt;Node5</title>
<path fill="none" stroke="midnightblue" d="M856.22,-103.86C862.97,-94.5 871.04,-83.33 876.52,-75.75"/>
<polygon fill="midnightblue" stroke="midnightblue" points="853.29,-101.93 850.28,-112.08 858.97,-106.03 853.29,-101.93"/>
</g>
<!-- Node16&#45;&gt;Node6 -->
<g id="edge37" class="edge">
<title>Node16&#45;&gt;Node6</title>
<path fill="none" stroke="midnightblue" d="M826.03,-105.91C807.77,-91.15 777.99,-69.06 748.84,-56 708.59,-37.97 659.96,-26.42 623.09,-19.54"/>
<polygon fill="midnightblue" stroke="midnightblue" points="824.08,-108.83 834.02,-112.49 828.53,-103.43 824.08,-108.83"/>
</g>
<!-- Node16&#45;&gt;Node7 -->
<g id="edge38" class="edge">
<title>Node16&#45;&gt;Node7</title>
<path fill="none" stroke="midnightblue" d="M919.25,-113.87C969.48,-107.37 1029.05,-95.72 1044.84,-76 1050.39,-69.06 1050.21,-63.08 1044.84,-56 1032.07,-39.18 981.81,-26.94 940.8,-19.51"/>
<polygon fill="midnightblue" stroke="midnightblue" points="918.51,-110.43 909.02,-115.13 919.38,-117.38 918.51,-110.43"/>
</g>
<!-- Node16&#45;&gt;Node8 -->
<g id="edge39" class="edge">
<title>Node16&#45;&gt;Node8</title>
<path fill="none" stroke="midnightblue" d="M919.07,-115.36C974.44,-109.46 1043.03,-97.88 1060.84,-76 1074.07,-59.74 1063.63,-33.28 1056.71,-19.67"/>
<polygon fill="midnightblue" stroke="midnightblue" points="918.5,-111.9 908.9,-116.39 919.21,-118.86 918.5,-111.9"/>
</g>
<!-- Node16&#45;&gt;Node9 -->
<g id="edge40" class="edge">
<title>Node16&#45;&gt;Node9</title>
<path fill="none" stroke="midnightblue" d="M916.25,-110.87C962.93,-103.42 1024.64,-91.82 1077.84,-76 1130.72,-60.28 1190.2,-33.33 1219.13,-19.6"/>
<polygon fill="midnightblue" stroke="midnightblue" points="915.56,-107.44 906.22,-112.45 916.65,-114.35 915.56,-107.44"/>
</g>
<!-- Node16&#45;&gt;Node10 -->
<g id="edge42" class="edge">
<title>Node16&#45;&gt;Node10</title>
<path fill="none" stroke="midnightblue" d="M780.08,-110.77C730.05,-102.41 658.73,-89.76 596.84,-76 562.74,-68.42 554.84,-63.99 520.84,-56 461.47,-42.04 392.43,-28.12 348.46,-19.54"/>
<polygon fill="midnightblue" stroke="midnightblue" points="779.68,-114.25 790.11,-112.44 780.82,-107.35 779.68,-114.25"/>
</g>
<!-- Node16&#45;&gt;Node11 -->
<g id="edge44" class="edge">
<title>Node16&#45;&gt;Node11</title>
<path fill="none" stroke="midnightblue" d="M768.46,-111.17C688.33,-100.6 566.94,-84.21 520.84,-76 479.64,-68.66 469.92,-63.92 428.84,-56 355.79,-41.91 271.03,-28.05 216.94,-19.51"/>
<polygon fill="midnightblue" stroke="midnightblue" points="768.13,-114.66 778.51,-112.49 769.05,-107.72 768.13,-114.66"/>
</g>
<!-- Node16&#45;&gt;Node12 -->
<g id="edge45" class="edge">
<title>Node16&#45;&gt;Node12</title>
<path fill="none" stroke="midnightblue" d="M885.6,-109.2C918.1,-97.93 954.74,-79.23 935.84,-56 925.88,-43.77 839.62,-28.74 778.91,-19.52"/>
<polygon fill="midnightblue" stroke="midnightblue" points="884.12,-106.01 875.72,-112.46 886.31,-112.66 884.12,-106.01"/>
</g>
<!-- Node16&#45;&gt;Node13 -->
<g id="edge46" class="edge">
<title>Node16&#45;&gt;Node13</title>
<path fill="none" stroke="midnightblue" d="M801.97,-109.85C719.32,-87.84 536.82,-39.23 462.88,-19.53"/>
<polygon fill="midnightblue" stroke="midnightblue" points="801.21,-113.27 811.77,-112.46 803.01,-106.5 801.21,-113.27"/>
</g>
<!-- Node16&#45;&gt;Node14 -->
<g id="edge47" class="edge">
<title>Node16&#45;&gt;Node14</title>
<path fill="none" stroke="midnightblue" d="M912.09,-110.95C967.65,-102.5 1048.02,-89.63 1117.84,-76 1209.34,-58.14 1316.24,-32.71 1370.08,-19.58"/>
<polygon fill="midnightblue" stroke="midnightblue" points="911.37,-107.52 902.01,-112.48 912.42,-114.44 911.37,-107.52"/>
</g>
<!-- Node17&#45;&gt;Node4 -->
<g id="edge49" class="edge">
<title>Node17&#45;&gt;Node4</title>
<path fill="none" stroke="midnightblue" d="M417.95,-109.04C389.16,-98.88 348.55,-84.55 322.97,-75.52"/>
<polygon fill="midnightblue" stroke="midnightblue" points="417,-112.42 427.59,-112.44 419.33,-105.81 417,-112.42"/>
</g>
<!-- Node18&#45;&gt;Node4 -->
<g id="edge51" class="edge">
<title>Node18&#45;&gt;Node4</title>
<path fill="none" stroke="midnightblue" d="M116.71,-110.14C162.79,-99.22 232.33,-82.75 270.78,-73.64"/>
<polygon fill="midnightblue" stroke="midnightblue" points="115.89,-106.73 106.96,-112.44 117.5,-113.54 115.89,-106.73"/>
</g>
<!-- Node19&#45;&gt;Node4 -->
<g id="edge53" class="edge">
<title>Node19&#45;&gt;Node4</title>
<path fill="none" stroke="midnightblue" d="M203.84,-108.37C227.06,-98.26 259,-84.35 279.28,-75.52"/>
<polygon fill="midnightblue" stroke="midnightblue" points="202.25,-105.24 194.48,-112.44 205.05,-111.66 202.25,-105.24"/>
</g>
</g>
</svg>
