<?xml version="1.0" encoding="UTF-8" standalone="no"?>
<!DOCTYPE svg PUBLIC "-//W3C//DTD SVG 1.1//EN"
 "http://www.w3.org/Graphics/SVG/1.1/DTD/svg11.dtd">
<!-- Generated by graphviz version 3.0.0 (20220413.0242)
 -->
<!-- Title: Graphical Class Hierarchy Pages: 1 -->
<svg width="322pt" height="268pt"
 viewBox="0.00 0.00 322.00 268.00" xmlns="http://www.w3.org/2000/svg" xmlns:xlink="http://www.w3.org/1999/xlink">
<g id="graph0" class="graph" transform="scale(1 1) rotate(0) translate(4 264)">
<title>Graphical Class Hierarchy</title>
<!-- Node0 -->
<g id="node1" class="node">
<title>Node0</title>
<g id="a_node1"><a xlink:href="class_m_o_d_e_l_1_1_block.html" target="_top" xlink:title="Base class for 0D model components.">
<polygon fill="none" stroke="black" points="0,-126.5 0,-145.5 103,-145.5 103,-126.5 0,-126.5"/>
<text text-anchor="middle" x="51.5" y="-133.5" font-family="Helvetica,sans-Serif" font-size="10.00">MODEL::Block&lt; T &gt;</text>
</a>
</g>
</g>
<!-- Node1 -->
<g id="node2" class="node">
<title>Node1</title>
<g id="a_node2"><a xlink:href="class_m_o_d_e_l_1_1_blood_vessel.html" target="_top" xlink:title="Resistor&#45;capacitor&#45;inductor blood vessel with optional stenosis.">
<polygon fill="none" stroke="black" points="160,-240.5 160,-259.5 293,-259.5 293,-240.5 160,-240.5"/>
<text text-anchor="middle" x="226.5" y="-247.5" font-family="Helvetica,sans-Serif" font-size="10.00">MODEL::BloodVessel&lt; T &gt;</text>
</a>
</g>
</g>
<!-- Node0&#45;&gt;Node1 -->
<g id="edge1" class="edge">
<title>Node0&#45;&gt;Node1</title>
<path fill="none" stroke="midnightblue" d="M63.92,-154.25C78.56,-176.05 106.03,-211.94 139,-231 145.66,-234.85 153.01,-237.92 160.54,-240.37"/>
<polygon fill="midnightblue" stroke="midnightblue" points="66.68,-152.07 58.29,-145.6 60.81,-155.89 66.68,-152.07"/>
</g>
<!-- Node2 -->
<g id="node3" class="node">
<title>Node2</title>
<g id="a_node3"><a xlink:href="class_m_o_d_e_l_1_1_flow_reference_b_c.html" target="_top" xlink:title="Flow reference boundary condition.">
<polygon fill="none" stroke="black" points="148,-202.5 148,-221.5 305,-221.5 305,-202.5 148,-202.5"/>
<text text-anchor="middle" x="226.5" y="-209.5" font-family="Helvetica,sans-Serif" font-size="10.00">MODEL::FlowReferenceBC&lt; T &gt;</text>
</a>
</g>
</g>
<!-- Node0&#45;&gt;Node2 -->
<g id="edge2" class="edge">
<title>Node0&#45;&gt;Node2</title>
<path fill="none" stroke="midnightblue" d="M71.97,-151.86C88.76,-164.77 114.17,-182.52 139,-193 148.07,-196.83 158,-199.93 167.81,-202.43"/>
<polygon fill="midnightblue" stroke="midnightblue" points="74.04,-149.04 64.02,-145.61 69.72,-154.54 74.04,-149.04"/>
</g>
<!-- Node3 -->
<g id="node4" class="node">
<title>Node3</title>
<g id="a_node4"><a xlink:href="class_m_o_d_e_l_1_1_junction.html" target="_top" xlink:title="Junction.">
<polygon fill="none" stroke="black" points="169,-164.5 169,-183.5 284,-183.5 284,-164.5 169,-164.5"/>
<text text-anchor="middle" x="226.5" y="-171.5" font-family="Helvetica,sans-Serif" font-size="10.00">MODEL::Junction&lt; T &gt;</text>
</a>
</g>
</g>
<!-- Node0&#45;&gt;Node3 -->
<g id="edge3" class="edge">
<title>Node0&#45;&gt;Node3</title>
<path fill="none" stroke="midnightblue" d="M106.01,-147.75C130.47,-153.13 159.07,-159.41 182.16,-164.48"/>
<polygon fill="midnightblue" stroke="midnightblue" points="106.67,-144.32 96.16,-145.59 105.17,-151.15 106.67,-144.32"/>
</g>
<!-- Node4 -->
<g id="node5" class="node">
<title>Node4</title>
<g id="a_node5"><a xlink:href="class_m_o_d_e_l_1_1_open_loop_coronary_b_c.html" target="_top" xlink:title="Open loop coronary boundary condition based on .">
<polygon fill="none" stroke="black" points="139,-126.5 139,-145.5 314,-145.5 314,-126.5 139,-126.5"/>
<text text-anchor="middle" x="226.5" y="-133.5" font-family="Helvetica,sans-Serif" font-size="10.00">MODEL::OpenLoopCoronaryBC&lt; T &gt;</text>
</a>
</g>
</g>
<!-- Node0&#45;&gt;Node4 -->
<g id="edge4" class="edge">
<title>Node0&#45;&gt;Node4</title>
<path fill="none" stroke="midnightblue" d="M113.28,-136C121.55,-136 130.18,-136 138.8,-136"/>
<polygon fill="midnightblue" stroke="midnightblue" points="113,-132.5 103,-136 113,-139.5 113,-132.5"/>
</g>
<!-- Node5 -->
<g id="node6" class="node">
<title>Node5</title>
<g id="a_node6"><a xlink:href="class_m_o_d_e_l_1_1_pressure_reference_b_c.html" target="_top" xlink:title="Pressure reference boundary condition.">
<polygon fill="none" stroke="black" points="157,-77 157,-107 296,-107 296,-77 157,-77"/>
<text text-anchor="start" x="165" y="-95" font-family="Helvetica,sans-Serif" font-size="10.00">MODEL::PressureReference</text>
<text text-anchor="middle" x="226.5" y="-84" font-family="Helvetica,sans-Serif" font-size="10.00">BC&lt; T &gt;</text>
</a>
</g>
</g>
<!-- Node0&#45;&gt;Node5 -->
<g id="edge5" class="edge">
<title>Node0&#45;&gt;Node5</title>
<path fill="none" stroke="midnightblue" d="M99.78,-123.97C120.31,-118.75 144.56,-112.59 166.27,-107.07"/>
<polygon fill="midnightblue" stroke="midnightblue" points="98.87,-120.6 90.04,-126.45 100.59,-127.38 98.87,-120.6"/>
</g>
<!-- Node6 -->
<g id="node7" class="node">
<title>Node6</title>
<g id="a_node7"><a xlink:href="class_m_o_d_e_l_1_1_resistance_b_c.html" target="_top" xlink:title="Resistance boundary condition.">
<polygon fill="none" stroke="black" points="156.5,-38.5 156.5,-57.5 296.5,-57.5 296.5,-38.5 156.5,-38.5"/>
<text text-anchor="middle" x="226.5" y="-45.5" font-family="Helvetica,sans-Serif" font-size="10.00">MODEL::ResistanceBC&lt; T &gt;</text>
</a>
</g>
</g>
<!-- Node0&#45;&gt;Node6 -->
<g id="edge6" class="edge">
<title>Node0&#45;&gt;Node6</title>
<path fill="none" stroke="midnightblue" d="M68.82,-119.5C85.17,-103.92 111.76,-81.05 139,-68 148.04,-63.67 158.06,-60.25 167.99,-57.56"/>
<polygon fill="midnightblue" stroke="midnightblue" points="66.37,-117 61.66,-126.49 71.26,-122.01 66.37,-117"/>
</g>
<!-- Node7 -->
<g id="node8" class="node">
<title>Node7</title>
<g id="a_node8"><a xlink:href="class_m_o_d_e_l_1_1_windkessel_b_c.html" target="_top" xlink:title="Windkessel RCR boundary condition.">
<polygon fill="none" stroke="black" points="155.5,-0.5 155.5,-19.5 297.5,-19.5 297.5,-0.5 155.5,-0.5"/>
<text text-anchor="middle" x="226.5" y="-7.5" font-family="Helvetica,sans-Serif" font-size="10.00">MODEL::WindkesselBC&lt; T &gt;</text>
</a>
</g>
</g>
<!-- Node0&#45;&gt;Node7 -->
<g id="edge7" class="edge">
<title>Node0&#45;&gt;Node7</title>
<path fill="none" stroke="midnightblue" d="M62.14,-117.57C75.83,-93.28 103.28,-51.08 139,-29 145.28,-25.12 152.24,-22.03 159.42,-19.56"/>
<polygon fill="midnightblue" stroke="midnightblue" points="58.99,-116.03 57.27,-126.49 65.13,-119.38 58.99,-116.03"/>
</g>
</g>
</svg>
