<?xml version="1.0" encoding="UTF-8" standalone="no"?>
<!DOCTYPE svg PUBLIC "-//W3C//DTD SVG 1.1//EN"
 "http://www.w3.org/Graphics/SVG/1.1/DTD/svg11.dtd">
<!-- Generated by graphviz version 3.0.0 (20220413.0242)
 -->
<!-- Title: Graphical Class Hierarchy Pages: 1 -->
<svg width="328pt" height="382pt"
 viewBox="0.00 0.00 328.00 382.00" xmlns="http://www.w3.org/2000/svg" xmlns:xlink="http://www.w3.org/1999/xlink">
<g id="graph0" class="graph" transform="scale(1 1) rotate(0) translate(4 378)">
<title>Graphical Class Hierarchy</title>
<!-- Node0 -->
<g id="node1" class="node">
<title>Node0</title>
<g id="a_node1"><a xlink:href="struct_m_o_d_e_l_1_1_block_1_1_parameters.html" target="_top" xlink:title="Parameters of the element.">
<polygon fill="none" stroke="black" points="0,-171.5 0,-201.5 107,-201.5 107,-171.5 0,-171.5"/>
<text text-anchor="start" x="8" y="-189.5" font-family="Helvetica,sans-Serif" font-size="10.00">MODEL::Block&lt; T &gt;::</text>
<text text-anchor="middle" x="53.5" y="-178.5" font-family="Helvetica,sans-Serif" font-size="10.00">Parameters</text>
</a>
</g>
</g>
<!-- Node1 -->
<g id="node2" class="node">
<title>Node1</title>
<g id="a_node2"><a xlink:href="struct_m_o_d_e_l_1_1_blood_vessel_1_1_parameters.html" target="_top" xlink:title="Parameters of the element.">
<polygon fill="none" stroke="black" points="176.5,-343.5 176.5,-373.5 286.5,-373.5 286.5,-343.5 176.5,-343.5"/>
<text text-anchor="start" x="184.5" y="-361.5" font-family="Helvetica,sans-Serif" font-size="10.00">MODEL::BloodVessel</text>
<text text-anchor="middle" x="231.5" y="-350.5" font-family="Helvetica,sans-Serif" font-size="10.00">&lt; T &gt;::Parameters</text>
</a>
</g>
</g>
<!-- Node0&#45;&gt;Node1 -->
<g id="edge1" class="edge">
<title>Node0&#45;&gt;Node1</title>
<path fill="none" stroke="midnightblue" d="M62.74,-211.51C74.96,-244.65 101.06,-302.63 143,-334.5 152.66,-341.84 164.42,-346.93 176.15,-350.47"/>
<polygon fill="midnightblue" stroke="midnightblue" points="65.9,-209.94 59.26,-201.69 59.3,-212.28 65.9,-209.94"/>
</g>
<!-- Node2 -->
<g id="node3" class="node">
<title>Node2</title>
<g id="a_node3"><a xlink:href="struct_m_o_d_e_l_1_1_closed_loop_heart_pulmonary_1_1_parameters.html" target="_top" xlink:title="Parameters of the element.">
<polygon fill="none" stroke="black" points="143,-294.5 143,-324.5 320,-324.5 320,-294.5 143,-294.5"/>
<text text-anchor="start" x="151" y="-312.5" font-family="Helvetica,sans-Serif" font-size="10.00">MODEL::ClosedLoopHeartPulmonary</text>
<text text-anchor="middle" x="231.5" y="-301.5" font-family="Helvetica,sans-Serif" font-size="10.00">&lt; T &gt;::Parameters</text>
</a>
</g>
</g>
<!-- Node0&#45;&gt;Node2 -->
<g id="edge2" class="edge">
<title>Node0&#45;&gt;Node2</title>
<path fill="none" stroke="midnightblue" d="M69.59,-210.1C85.28,-232.72 111.86,-266.21 143,-285.5 148.49,-288.9 154.47,-291.83 160.63,-294.35"/>
<polygon fill="midnightblue" stroke="midnightblue" points="72.44,-208.05 63.94,-201.72 66.63,-211.97 72.44,-208.05"/>
</g>
<!-- Node3 -->
<g id="node4" class="node">
<title>Node3</title>
<g id="a_node4"><a xlink:href="struct_m_o_d_e_l_1_1_flow_reference_b_c_1_1_parameters.html" target="_top" xlink:title="Parameters of the element.">
<polygon fill="none" stroke="black" points="164.5,-245.5 164.5,-275.5 298.5,-275.5 298.5,-245.5 164.5,-245.5"/>
<text text-anchor="start" x="172.5" y="-263.5" font-family="Helvetica,sans-Serif" font-size="10.00">MODEL::FlowReferenceBC</text>
<text text-anchor="middle" x="231.5" y="-252.5" font-family="Helvetica,sans-Serif" font-size="10.00">&lt; T &gt;::Parameters</text>
</a>
</g>
</g>
<!-- Node0&#45;&gt;Node3 -->
<g id="edge3" class="edge">
<title>Node0&#45;&gt;Node3</title>
<path fill="none" stroke="midnightblue" d="M86.05,-206.84C102.53,-216.81 123.31,-228.39 143,-236.5 151.01,-239.8 159.62,-242.79 168.19,-245.45"/>
<polygon fill="midnightblue" stroke="midnightblue" points="87.72,-203.77 77.37,-201.5 84.05,-209.73 87.72,-203.77"/>
</g>
<!-- Node4 -->
<g id="node5" class="node">
<title>Node4</title>
<g id="a_node5"><a xlink:href="struct_m_o_d_e_l_1_1_junction_1_1_parameters.html" target="_top" xlink:title="Parameters of the element.">
<polygon fill="none" stroke="black" points="178,-196.5 178,-226.5 285,-226.5 285,-196.5 178,-196.5"/>
<text text-anchor="start" x="186" y="-214.5" font-family="Helvetica,sans-Serif" font-size="10.00">MODEL::Junction&lt; T</text>
<text text-anchor="middle" x="231.5" y="-203.5" font-family="Helvetica,sans-Serif" font-size="10.00"> &gt;::Parameters</text>
</a>
</g>
</g>
<!-- Node0&#45;&gt;Node4 -->
<g id="edge4" class="edge">
<title>Node0&#45;&gt;Node4</title>
<path fill="none" stroke="midnightblue" d="M117.44,-195.44C137.18,-198.24 158.77,-201.31 177.73,-204"/>
<polygon fill="midnightblue" stroke="midnightblue" points="117.7,-191.94 107.31,-194 116.71,-198.87 117.7,-191.94"/>
</g>
<!-- Node5 -->
<g id="node6" class="node">
<title>Node5</title>
<g id="a_node6"><a xlink:href="struct_m_o_d_e_l_1_1_open_loop_coronary_b_c_1_1_parameters.html" target="_top" xlink:title="Parameters of the element.">
<polygon fill="none" stroke="black" points="155.5,-147.5 155.5,-177.5 307.5,-177.5 307.5,-147.5 155.5,-147.5"/>
<text text-anchor="start" x="163.5" y="-165.5" font-family="Helvetica,sans-Serif" font-size="10.00">MODEL::OpenLoopCoronaryBC</text>
<text text-anchor="middle" x="231.5" y="-154.5" font-family="Helvetica,sans-Serif" font-size="10.00">&lt; T &gt;::Parameters</text>
</a>
</g>
</g>
<!-- Node0&#45;&gt;Node5 -->
<g id="edge5" class="edge">
<title>Node0&#45;&gt;Node5</title>
<path fill="none" stroke="midnightblue" d="M117.42,-177.92C129.69,-176.25 142.67,-174.48 155.28,-172.76"/>
<polygon fill="midnightblue" stroke="midnightblue" points="116.74,-174.48 107.31,-179.3 117.69,-181.42 116.74,-174.48"/>
</g>
<!-- Node6 -->
<g id="node7" class="node">
<title>Node6</title>
<g id="a_node7"><a xlink:href="struct_m_o_d_e_l_1_1_pressure_reference_b_c_1_1_parameters.html" target="_top" xlink:title="Parameters of the element.">
<polygon fill="none" stroke="black" points="162,-98.5 162,-128.5 301,-128.5 301,-98.5 162,-98.5"/>
<text text-anchor="start" x="170" y="-116.5" font-family="Helvetica,sans-Serif" font-size="10.00">MODEL::PressureReference</text>
<text text-anchor="middle" x="231.5" y="-105.5" font-family="Helvetica,sans-Serif" font-size="10.00">BC&lt; T &gt;::Parameters</text>
</a>
</g>
</g>
<!-- Node0&#45;&gt;Node6 -->
<g id="edge6" class="edge">
<title>Node0&#45;&gt;Node6</title>
<path fill="none" stroke="midnightblue" d="M88.03,-166.06C104.23,-156.77 124.2,-146.18 143,-138.5 151.92,-134.86 161.56,-131.53 171.07,-128.58"/>
<polygon fill="midnightblue" stroke="midnightblue" points="85.84,-163.28 78.96,-171.34 89.37,-169.33 85.84,-163.28"/>
</g>
<!-- Node7 -->
<g id="node8" class="node">
<title>Node7</title>
<g id="a_node8"><a xlink:href="struct_m_o_d_e_l_1_1_resistance_b_c_1_1_parameters.html" target="_top" xlink:title="Parameters of the element.">
<polygon fill="none" stroke="black" points="172.5,-49.5 172.5,-79.5 290.5,-79.5 290.5,-49.5 172.5,-49.5"/>
<text text-anchor="start" x="180.5" y="-67.5" font-family="Helvetica,sans-Serif" font-size="10.00">MODEL::ResistanceBC</text>
<text text-anchor="middle" x="231.5" y="-56.5" font-family="Helvetica,sans-Serif" font-size="10.00">&lt; T &gt;::Parameters</text>
</a>
</g>
</g>
<!-- Node0&#45;&gt;Node7 -->
<g id="edge7" class="edge">
<title>Node0&#45;&gt;Node7</title>
<path fill="none" stroke="midnightblue" d="M70.22,-162.79C86.07,-140.7 112.51,-108.39 143,-89.5 151.86,-84.01 161.97,-79.69 172.1,-76.3"/>
<polygon fill="midnightblue" stroke="midnightblue" points="67.15,-161.08 64.29,-171.29 72.89,-165.09 67.15,-161.08"/>
</g>
<!-- Node8 -->
<g id="node9" class="node">
<title>Node8</title>
<g id="a_node9"><a xlink:href="struct_m_o_d_e_l_1_1_windkessel_b_c_1_1_parameters.html" target="_top" xlink:title="Parameters of the element.">
<polygon fill="none" stroke="black" points="172,-0.5 172,-30.5 291,-30.5 291,-0.5 172,-0.5"/>
<text text-anchor="start" x="180" y="-18.5" font-family="Helvetica,sans-Serif" font-size="10.00">MODEL::WindkesselBC</text>
<text text-anchor="middle" x="231.5" y="-7.5" font-family="Helvetica,sans-Serif" font-size="10.00">&lt; T &gt;::Parameters</text>
</a>
</g>
</g>
<!-- Node0&#45;&gt;Node8 -->
<g id="edge8" class="edge">
<title>Node0&#45;&gt;Node8</title>
<path fill="none" stroke="midnightblue" d="M63.08,-161.38C75.54,-128.68 101.76,-71.99 143,-40.5 151.41,-34.08 161.42,-29.3 171.6,-25.76"/>
<polygon fill="midnightblue" stroke="midnightblue" points="59.67,-160.5 59.52,-171.1 66.25,-162.91 59.67,-160.5"/>
</g>
</g>
</svg>
