<?xml version="1.0" encoding="UTF-8" standalone="no"?>
<!DOCTYPE svg PUBLIC "-//W3C//DTD SVG 1.1//EN"
 "http://www.w3.org/Graphics/SVG/1.1/DTD/svg11.dtd">
<!-- Generated by graphviz version 3.0.0 (20220413.0242)
 -->
<!-- Title: algebra/integrator.hpp Pages: 1 -->
<svg width="1271pt" height="364pt"
 viewBox="0.00 0.00 1271.13 364.00" xmlns="http://www.w3.org/2000/svg" xmlns:xlink="http://www.w3.org/1999/xlink">
<g id="graph0" class="graph" transform="scale(1 1) rotate(0) translate(4 360)">
<title>algebra/integrator.hpp</title>
<!-- Node1 -->
<g id="node1" class="node">
<title>Node1</title>
<g id="a_node1"><a xlink:title="ALGEBRA::Integrator source file.">
<polygon fill="#bfbfbf" stroke="black" points="409,-336.5 409,-355.5 519,-355.5 519,-336.5 409,-336.5"/>
<text text-anchor="middle" x="464" y="-343.5" font-family="Helvetica,sans-Serif" font-size="10.00">algebra/integrator.hpp</text>
</a>
</g>
</g>
<!-- Node2 -->
<g id="node2" class="node">
<title>Node2</title>
<g id="a_node2"><a xlink:title=" ">
<polygon fill="none" stroke="#bfbfbf" points="199.5,-56.5 199.5,-75.5 270.5,-75.5 270.5,-56.5 199.5,-56.5"/>
<text text-anchor="middle" x="235" y="-63.5" font-family="Helvetica,sans-Serif" font-size="10.00">Eigen/Dense</text>
</a>
</g>
</g>
<!-- Node1&#45;&gt;Node2 -->
<g id="edge1" class="edge">
<title>Node1&#45;&gt;Node2</title>
<path fill="none" stroke="midnightblue" d="M408.95,-343.47C286.04,-338.56 0,-318.2 0,-235 0,-235 0,-235 0,-177 0,-94.3 120.84,-73.65 189.22,-68.57"/>
<polygon fill="midnightblue" stroke="midnightblue" points="189.56,-72.06 199.31,-67.91 189.1,-65.07 189.56,-72.06"/>
</g>
<!-- Node3 -->
<g id="node3" class="node">
<title>Node3</title>
<g id="a_node3"><a xlink:href="model_8hpp.html" target="_top" xlink:title="MODEL::Model source file.">
<polygon fill="none" stroke="black" points="415,-280.5 415,-299.5 513,-299.5 513,-280.5 415,-280.5"/>
<text text-anchor="middle" x="464" y="-287.5" font-family="Helvetica,sans-Serif" font-size="10.00">../model/model.hpp</text>
</a>
</g>
</g>
<!-- Node1&#45;&gt;Node3 -->
<g id="edge2" class="edge">
<title>Node1&#45;&gt;Node3</title>
<path fill="none" stroke="midnightblue" d="M464,-336.08C464,-329.01 464,-318.86 464,-309.99"/>
<polygon fill="midnightblue" stroke="midnightblue" points="467.5,-309.75 464,-299.75 460.5,-309.75 467.5,-309.75"/>
</g>
<!-- Node27 -->
<g id="node27" class="node">
<title>Node27</title>
<g id="a_node27"><a xlink:href="state_8hpp.html" target="_top" xlink:title="ALGEBRA::State source file.">
<polygon fill="none" stroke="black" points="531,-280.5 531,-299.5 587,-299.5 587,-280.5 531,-280.5"/>
<text text-anchor="middle" x="559" y="-287.5" font-family="Helvetica,sans-Serif" font-size="10.00">state.hpp</text>
</a>
</g>
</g>
<!-- Node1&#45;&gt;Node27 -->
<g id="edge62" class="edge">
<title>Node1&#45;&gt;Node27</title>
<path fill="none" stroke="midnightblue" d="M479.26,-336.32C494.22,-327.82 517.25,-314.73 534.73,-304.8"/>
<polygon fill="midnightblue" stroke="midnightblue" points="536.81,-307.64 543.77,-299.65 533.35,-301.55 536.81,-307.64"/>
</g>
<!-- Node4 -->
<g id="node4" class="node">
<title>Node4</title>
<g id="a_node4"><a xlink:title=" ">
<polygon fill="none" stroke="#bfbfbf" points="1144.5,-112.5 1144.5,-131.5 1179.5,-131.5 1179.5,-112.5 1144.5,-112.5"/>
<text text-anchor="middle" x="1162" y="-119.5" font-family="Helvetica,sans-Serif" font-size="10.00">map</text>
</a>
</g>
</g>
<!-- Node3&#45;&gt;Node4 -->
<g id="edge3" class="edge">
<title>Node3&#45;&gt;Node4</title>
<path fill="none" stroke="midnightblue" d="M513,-281.03C516.04,-280.65 519.06,-280.3 522,-280 562.62,-275.86 1227.85,-273.57 1256,-244 1270.77,-228.49 1259.24,-192.64 1240,-168 1226.97,-151.31 1205.9,-139.69 1188.94,-132.44"/>
<polygon fill="midnightblue" stroke="midnightblue" points="1190.11,-129.14 1179.52,-128.67 1187.51,-135.64 1190.11,-129.14"/>
</g>
<!-- Node5 -->
<g id="node5" class="node">
<title>Node5</title>
<g id="a_node5"><a xlink:title=" ">
<polygon fill="none" stroke="#bfbfbf" points="28.5,-224.5 28.5,-243.5 57.5,-243.5 57.5,-224.5 28.5,-224.5"/>
<text text-anchor="middle" x="43" y="-231.5" font-family="Helvetica,sans-Serif" font-size="10.00">list</text>
</a>
</g>
</g>
<!-- Node3&#45;&gt;Node5 -->
<g id="edge4" class="edge">
<title>Node3&#45;&gt;Node5</title>
<path fill="none" stroke="midnightblue" d="M414.74,-287.3C340.88,-283.91 197.16,-274.03 67.27,-243.44"/>
<polygon fill="midnightblue" stroke="midnightblue" points="68.09,-240.04 57.54,-241.1 66.45,-246.84 68.09,-240.04"/>
</g>
<!-- Node6 -->
<g id="node6" class="node">
<title>Node6</title>
<g id="a_node6"><a xlink:title=" ">
<polygon fill="none" stroke="#bfbfbf" points="76,-224.5 76,-243.5 122,-243.5 122,-224.5 76,-224.5"/>
<text text-anchor="middle" x="99" y="-231.5" font-family="Helvetica,sans-Serif" font-size="10.00">variant</text>
</a>
</g>
</g>
<!-- Node3&#45;&gt;Node6 -->
<g id="edge5" class="edge">
<title>Node3&#45;&gt;Node6</title>
<path fill="none" stroke="midnightblue" d="M414.84,-283.84C350.48,-276.73 234.26,-262.64 136,-244 134.72,-243.76 133.42,-243.5 132.11,-243.23"/>
<polygon fill="midnightblue" stroke="midnightblue" points="132.53,-239.74 122.01,-240.98 131.02,-246.57 132.53,-239.74"/>
</g>
<!-- Node7 -->
<g id="node7" class="node">
<title>Node7</title>
<g id="a_node7"><a xlink:href="densesystem_8hpp.html" target="_top" xlink:title="ALGEBRA::DenseSystem source file.">
<polygon fill="none" stroke="black" points="478,-112.5 478,-131.5 612,-131.5 612,-112.5 478,-112.5"/>
<text text-anchor="middle" x="545" y="-119.5" font-family="Helvetica,sans-Serif" font-size="10.00">../algebra/densesystem.hpp</text>
</a>
</g>
</g>
<!-- Node3&#45;&gt;Node7 -->
<g id="edge6" class="edge">
<title>Node3&#45;&gt;Node7</title>
<path fill="none" stroke="midnightblue" d="M414.79,-285.94C356.91,-281.19 266,-269.76 245,-244 239.38,-237.11 241.53,-232.18 245,-224 259,-191.02 271.15,-184.41 303,-168 331.19,-153.47 408.03,-140.67 467.64,-132.47"/>
<polygon fill="midnightblue" stroke="midnightblue" points="468.36,-135.9 477.8,-131.09 467.42,-128.96 468.36,-135.9"/>
</g>
<!-- Node8 -->
<g id="node8" class="node">
<title>Node8</title>
<g id="a_node8"><a xlink:href="sparsesystem_8hpp.html" target="_top" xlink:title="ALGEBRA::SparseSystem source file.">
<polygon fill="none" stroke="black" points="830.5,-112.5 830.5,-131.5 967.5,-131.5 967.5,-112.5 830.5,-112.5"/>
<text text-anchor="middle" x="899" y="-119.5" font-family="Helvetica,sans-Serif" font-size="10.00">../algebra/sparsesystem.hpp</text>
</a>
</g>
</g>
<!-- Node3&#45;&gt;Node8 -->
<g id="edge8" class="edge">
<title>Node3&#45;&gt;Node8</title>
<path fill="none" stroke="midnightblue" d="M508.7,-280.47C510.14,-280.3 511.58,-280.15 513,-280 552.01,-275.99 1190.99,-272.43 1218,-244 1294.27,-163.73 1095.27,-136.42 977.85,-127.35"/>
<polygon fill="midnightblue" stroke="midnightblue" points="978.03,-123.85 967.8,-126.6 977.51,-130.83 978.03,-123.85"/>
</g>
<!-- Node12 -->
<g id="node12" class="node">
<title>Node12</title>
<g id="a_node12"><a xlink:href="junction_8hpp.html" target="_top" xlink:title="MODEL::Junction source file.">
<polygon fill="none" stroke="black" points="984,-224.5 984,-243.5 1052,-243.5 1052,-224.5 984,-224.5"/>
<text text-anchor="middle" x="1018" y="-231.5" font-family="Helvetica,sans-Serif" font-size="10.00">junction.hpp</text>
</a>
</g>
</g>
<!-- Node3&#45;&gt;Node12 -->
<g id="edge13" class="edge">
<title>Node3&#45;&gt;Node12</title>
<path fill="none" stroke="midnightblue" d="M513.01,-281.13C516.05,-280.73 519.06,-280.34 522,-280 719.36,-256.88 773.36,-272.23 973.83,-243.99"/>
<polygon fill="midnightblue" stroke="midnightblue" points="974.4,-247.44 983.8,-242.57 973.41,-240.51 974.4,-247.44"/>
</g>
<!-- Node15 -->
<g id="node15" class="node">
<title>Node15</title>
<g id="a_node15"><a xlink:href="node_8hpp.html" target="_top" xlink:title="MODEL::Node source file.">
<polygon fill="none" stroke="black" points="122,-112.5 122,-131.5 178,-131.5 178,-112.5 122,-112.5"/>
<text text-anchor="middle" x="150" y="-119.5" font-family="Helvetica,sans-Serif" font-size="10.00">node.hpp</text>
</a>
</g>
</g>
<!-- Node3&#45;&gt;Node15 -->
<g id="edge33" class="edge">
<title>Node3&#45;&gt;Node15</title>
<path fill="none" stroke="midnightblue" d="M414.91,-287.98C341.38,-285.4 207.65,-276.27 174,-244 146.26,-217.4 145.62,-168.64 147.71,-141.85"/>
<polygon fill="midnightblue" stroke="midnightblue" points="151.23,-141.85 148.74,-131.55 144.27,-141.15 151.23,-141.85"/>
</g>
<!-- Node17 -->
<g id="node17" class="node">
<title>Node17</title>
<g id="a_node17"><a xlink:href="dofhandler_8hpp.html" target="_top" xlink:title="MODEL::DOFHandler source file.">
<polygon fill="none" stroke="black" points="296,-56.5 296,-75.5 376,-75.5 376,-56.5 296,-56.5"/>
<text text-anchor="middle" x="336" y="-63.5" font-family="Helvetica,sans-Serif" font-size="10.00">dofhandler.hpp</text>
</a>
</g>
</g>
<!-- Node3&#45;&gt;Node17 -->
<g id="edge32" class="edge">
<title>Node3&#45;&gt;Node17</title>
<path fill="none" stroke="midnightblue" d="M414.8,-286.29C355.17,-281.87 259.92,-270.71 238,-244 219.47,-221.41 148.54,-256.22 244,-112 254.34,-96.38 271.74,-86 288.65,-79.19"/>
<polygon fill="midnightblue" stroke="midnightblue" points="290.31,-82.31 298.49,-75.57 287.89,-75.73 290.31,-82.31"/>
</g>
<!-- Node18 -->
<g id="node18" class="node">
<title>Node18</title>
<g id="a_node18"><a xlink:href="bloodvessel_8hpp.html" target="_top" xlink:title="MODEL::BloodVessel source file.">
<polygon fill="none" stroke="black" points="254,-224.5 254,-243.5 340,-243.5 340,-224.5 254,-224.5"/>
<text text-anchor="middle" x="297" y="-231.5" font-family="Helvetica,sans-Serif" font-size="10.00">bloodvessel.hpp</text>
</a>
</g>
</g>
<!-- Node3&#45;&gt;Node18 -->
<g id="edge27" class="edge">
<title>Node3&#45;&gt;Node18</title>
<path fill="none" stroke="midnightblue" d="M437.54,-280.44C409.32,-271.32 364.46,-256.81 333.03,-246.65"/>
<polygon fill="midnightblue" stroke="midnightblue" points="333.93,-243.26 323.34,-243.52 331.78,-249.92 333.93,-243.26"/>
</g>
<!-- Node20 -->
<g id="node20" class="node">
<title>Node20</title>
<g id="a_node20"><a xlink:href="flowreference_8hpp.html" target="_top" xlink:title="MODEL::FlowReference source file.">
<polygon fill="none" stroke="black" points="358,-224.5 358,-243.5 450,-243.5 450,-224.5 358,-224.5"/>
<text text-anchor="middle" x="404" y="-231.5" font-family="Helvetica,sans-Serif" font-size="10.00">flowreference.hpp</text>
</a>
</g>
</g>
<!-- Node3&#45;&gt;Node20 -->
<g id="edge34" class="edge">
<title>Node3&#45;&gt;Node20</title>
<path fill="none" stroke="midnightblue" d="M454.36,-280.32C445.49,-272.34 432.13,-260.31 421.39,-250.65"/>
<polygon fill="midnightblue" stroke="midnightblue" points="423.59,-247.92 413.82,-243.83 418.91,-253.13 423.59,-247.92"/>
</g>
<!-- Node23 -->
<g id="node23" class="node">
<title>Node23</title>
<g id="a_node23"><a xlink:href="pressurereference_8hpp.html" target="_top" xlink:title="MODEL::PressureReference source file.">
<polygon fill="none" stroke="black" points="468.5,-224.5 468.5,-243.5 581.5,-243.5 581.5,-224.5 468.5,-224.5"/>
<text text-anchor="middle" x="525" y="-231.5" font-family="Helvetica,sans-Serif" font-size="10.00">pressurereference.hpp</text>
</a>
</g>
</g>
<!-- Node3&#45;&gt;Node23 -->
<g id="edge43" class="edge">
<title>Node3&#45;&gt;Node23</title>
<path fill="none" stroke="midnightblue" d="M473.8,-280.32C482.82,-272.34 496.41,-260.31 507.32,-250.65"/>
<polygon fill="midnightblue" stroke="midnightblue" points="509.85,-253.08 515.02,-243.83 505.21,-247.84 509.85,-253.08"/>
</g>
<!-- Node24 -->
<g id="node24" class="node">
<title>Node24</title>
<g id="a_node24"><a xlink:href="rcrblockwithdistalpressure_8hpp.html" target="_top" xlink:title="MODEL::RCRBlockWithDistalPressure source file.">
<polygon fill="none" stroke="black" points="1070,-224.5 1070,-243.5 1218,-243.5 1218,-224.5 1070,-224.5"/>
<text text-anchor="middle" x="1144" y="-231.5" font-family="Helvetica,sans-Serif" font-size="10.00">rcrblockwithdistalpressure.hpp</text>
</a>
</g>
</g>
<!-- Node3&#45;&gt;Node24 -->
<g id="edge48" class="edge">
<title>Node3&#45;&gt;Node24</title>
<path fill="none" stroke="midnightblue" d="M513.01,-281.09C516.05,-280.69 519.06,-280.33 522,-280 757.37,-253.93 820.12,-264.64 1059.74,-244.07"/>
<polygon fill="midnightblue" stroke="midnightblue" points="1060.14,-247.55 1069.8,-243.2 1059.54,-240.58 1060.14,-247.55"/>
</g>
<!-- Node25 -->
<g id="node25" class="node">
<title>Node25</title>
<g id="a_node25"><a xlink:href="resistancewithdistalpressure_8hpp.html" target="_top" xlink:title="MODEL::ResistanceWithDistalPressure source file.">
<polygon fill="none" stroke="black" points="600,-224.5 600,-243.5 758,-243.5 758,-224.5 600,-224.5"/>
<text text-anchor="middle" x="679" y="-231.5" font-family="Helvetica,sans-Serif" font-size="10.00">resistancewithdistalpressure.hpp</text>
</a>
</g>
</g>
<!-- Node3&#45;&gt;Node25 -->
<g id="edge52" class="edge">
<title>Node3&#45;&gt;Node25</title>
<path fill="none" stroke="midnightblue" d="M498.07,-280.44C535.18,-271.12 594.66,-256.18 635.21,-246"/>
<polygon fill="midnightblue" stroke="midnightblue" points="636.25,-249.35 645.09,-243.52 634.54,-242.56 636.25,-249.35"/>
</g>
<!-- Node26 -->
<g id="node26" class="node">
<title>Node26</title>
<g id="a_node26"><a xlink:href="openloopcoronarywithdistalpressure_8hpp.html" target="_top" xlink:title="MODEL::OpenLoopCoronaryWithDistalPressure source file.">
<polygon fill="none" stroke="black" points="776.5,-224.5 776.5,-243.5 965.5,-243.5 965.5,-224.5 776.5,-224.5"/>
<text text-anchor="middle" x="871" y="-231.5" font-family="Helvetica,sans-Serif" font-size="10.00">openloopcoronarywithdistalpressure.hpp</text>
</a>
</g>
</g>
<!-- Node3&#45;&gt;Node26 -->
<g id="edge57" class="edge">
<title>Node3&#45;&gt;Node26</title>
<path fill="none" stroke="midnightblue" d="M513.03,-281.3C516.07,-280.85 519.07,-280.42 522,-280 613.95,-266.94 719.77,-253.52 790.56,-244.78"/>
<polygon fill="midnightblue" stroke="midnightblue" points="791.24,-248.22 800.74,-243.52 790.39,-241.27 791.24,-248.22"/>
</g>
<!-- Node7&#45;&gt;Node2 -->
<g id="edge7" class="edge">
<title>Node7&#45;&gt;Node2</title>
<path fill="none" stroke="midnightblue" d="M495.88,-112.44C436.77,-102.15 338.32,-85 280.75,-74.97"/>
<polygon fill="midnightblue" stroke="midnightblue" points="281.3,-71.51 270.84,-73.24 280.09,-78.41 281.3,-71.51"/>
</g>
<!-- Node8&#45;&gt;Node3 -->
<g id="edge12" class="edge">
<title>Node8&#45;&gt;Node3</title>
<path fill="none" stroke="midnightblue" d="M967.68,-125.89C1088.11,-133.3 1316.9,-158.86 1236,-244 1208.99,-272.43 570.01,-275.99 531,-280 528.47,-280.26 525.89,-280.55 523.27,-280.87"/>
<polygon fill="midnightblue" stroke="midnightblue" points="522.54,-277.44 513.08,-282.22 523.45,-284.38 522.54,-277.44"/>
</g>
<!-- Node9 -->
<g id="node9" class="node">
<title>Node9</title>
<g id="a_node9"><a xlink:title=" ">
<polygon fill="none" stroke="#bfbfbf" points="862,-56.5 862,-75.5 936,-75.5 936,-56.5 862,-56.5"/>
<text text-anchor="middle" x="899" y="-63.5" font-family="Helvetica,sans-Serif" font-size="10.00">Eigen/Sparse</text>
</a>
</g>
</g>
<!-- Node8&#45;&gt;Node9 -->
<g id="edge9" class="edge">
<title>Node8&#45;&gt;Node9</title>
<path fill="none" stroke="midnightblue" d="M899,-112.08C899,-105.01 899,-94.86 899,-85.99"/>
<polygon fill="midnightblue" stroke="midnightblue" points="902.5,-85.75 899,-75.75 895.5,-85.75 902.5,-85.75"/>
</g>
<!-- Node10 -->
<g id="node10" class="node">
<title>Node10</title>
<g id="a_node10"><a xlink:title=" ">
<polygon fill="none" stroke="#bfbfbf" points="954,-56.5 954,-75.5 1042,-75.5 1042,-56.5 954,-56.5"/>
<text text-anchor="middle" x="998" y="-63.5" font-family="Helvetica,sans-Serif" font-size="10.00">Eigen/SparseLU</text>
</a>
</g>
</g>
<!-- Node8&#45;&gt;Node10 -->
<g id="edge10" class="edge">
<title>Node8&#45;&gt;Node10</title>
<path fill="none" stroke="midnightblue" d="M914.91,-112.32C930.64,-103.74 954.94,-90.49 973.21,-80.52"/>
<polygon fill="midnightblue" stroke="midnightblue" points="975.03,-83.52 982.13,-75.65 971.68,-77.37 975.03,-83.52"/>
</g>
<!-- Node11 -->
<g id="node11" class="node">
<title>Node11</title>
<g id="a_node11"><a xlink:title=" ">
<polygon fill="none" stroke="#bfbfbf" points="790,-56.5 790,-75.5 844,-75.5 844,-56.5 790,-56.5"/>
<text text-anchor="middle" x="817" y="-63.5" font-family="Helvetica,sans-Serif" font-size="10.00">iostream</text>
</a>
</g>
</g>
<!-- Node8&#45;&gt;Node11 -->
<g id="edge11" class="edge">
<title>Node8&#45;&gt;Node11</title>
<path fill="none" stroke="midnightblue" d="M885.83,-112.32C873.15,-103.98 853.77,-91.21 838.79,-81.35"/>
<polygon fill="midnightblue" stroke="midnightblue" points="840.42,-78.23 830.14,-75.65 836.57,-84.08 840.42,-78.23"/>
</g>
<!-- Node12&#45;&gt;Node7 -->
<g id="edge14" class="edge">
<title>Node12&#45;&gt;Node7</title>
<path fill="none" stroke="midnightblue" d="M990.23,-224.41C946.75,-211.15 859.85,-185.42 785,-168 725.25,-154.09 656.37,-141.53 607.76,-133.23"/>
<polygon fill="midnightblue" stroke="midnightblue" points="608.15,-129.75 597.71,-131.53 606.98,-136.65 608.15,-129.75"/>
</g>
<!-- Node12&#45;&gt;Node8 -->
<g id="edge15" class="edge">
<title>Node12&#45;&gt;Node8</title>
<path fill="none" stroke="midnightblue" d="M1008.66,-224.37C988.59,-205.81 941.1,-161.91 915.7,-138.44"/>
<polygon fill="midnightblue" stroke="midnightblue" points="918.01,-135.81 908.29,-131.59 913.26,-140.95 918.01,-135.81"/>
</g>
<!-- Node13 -->
<g id="node13" class="node">
<title>Node13</title>
<g id="a_node13"><a xlink:href="block_8hpp.html" target="_top" xlink:title="MODEL::Block source file.">
<polygon fill="none" stroke="black" points="718,-168.5 718,-187.5 776,-187.5 776,-168.5 718,-168.5"/>
<text text-anchor="middle" x="747" y="-175.5" font-family="Helvetica,sans-Serif" font-size="10.00">block.hpp</text>
</a>
</g>
</g>
<!-- Node12&#45;&gt;Node13 -->
<g id="edge16" class="edge">
<title>Node12&#45;&gt;Node13</title>
<path fill="none" stroke="midnightblue" d="M983.74,-225.78C980.79,-225.18 977.84,-224.57 975,-224 892.89,-207.42 872.11,-204.58 790,-188 788.74,-187.75 787.46,-187.48 786.16,-187.22"/>
<polygon fill="midnightblue" stroke="midnightblue" points="786.63,-183.74 776.13,-185.16 785.22,-190.6 786.63,-183.74"/>
</g>
<!-- Node13&#45;&gt;Node4 -->
<g id="edge18" class="edge">
<title>Node13&#45;&gt;Node4</title>
<path fill="none" stroke="midnightblue" d="M776.18,-173.2C852.85,-163.23 1059.23,-136.37 1134.25,-126.61"/>
<polygon fill="midnightblue" stroke="midnightblue" points="1134.87,-130.06 1144.34,-125.3 1133.97,-123.12 1134.87,-130.06"/>
</g>
<!-- Node13&#45;&gt;Node7 -->
<g id="edge25" class="edge">
<title>Node13&#45;&gt;Node7</title>
<path fill="none" stroke="midnightblue" d="M717.63,-169.15C683.27,-159.96 626.15,-144.69 587.09,-134.25"/>
<polygon fill="midnightblue" stroke="midnightblue" points="587.64,-130.78 577.08,-131.58 585.84,-137.54 587.64,-130.78"/>
</g>
<!-- Node13&#45;&gt;Node8 -->
<g id="edge26" class="edge">
<title>Node13&#45;&gt;Node8</title>
<path fill="none" stroke="midnightblue" d="M771.08,-168.44C796.54,-159.4 836.89,-145.06 865.46,-134.92"/>
<polygon fill="midnightblue" stroke="midnightblue" points="866.78,-138.16 875.03,-131.52 864.43,-131.57 866.78,-138.16"/>
</g>
<!-- Node14 -->
<g id="node14" class="node">
<title>Node14</title>
<g id="a_node14"><a xlink:title=" ">
<polygon fill="none" stroke="#bfbfbf" points="426,-0.5 426,-19.5 470,-19.5 470,-0.5 426,-0.5"/>
<text text-anchor="middle" x="448" y="-7.5" font-family="Helvetica,sans-Serif" font-size="10.00">vector</text>
</a>
</g>
</g>
<!-- Node13&#45;&gt;Node14 -->
<g id="edge17" class="edge">
<title>Node13&#45;&gt;Node14</title>
<path fill="none" stroke="midnightblue" d="M736.62,-168.31C720.61,-155.15 688.63,-129.81 659,-112 597.62,-75.09 520.67,-41.1 478.73,-23.53"/>
<polygon fill="midnightblue" stroke="midnightblue" points="479.93,-20.23 469.35,-19.62 477.24,-26.7 479.93,-20.23"/>
</g>
<!-- Node13&#45;&gt;Node15 -->
<g id="edge19" class="edge">
<title>Node13&#45;&gt;Node15</title>
<path fill="none" stroke="midnightblue" d="M717.79,-174.45C640.48,-167.69 424.06,-148.67 244,-132 225.75,-130.31 205.51,-128.38 188.5,-126.74"/>
<polygon fill="midnightblue" stroke="midnightblue" points="188.67,-123.24 178.38,-125.76 188,-130.21 188.67,-123.24"/>
</g>
<!-- Node13&#45;&gt;Node17 -->
<g id="edge24" class="edge">
<title>Node13&#45;&gt;Node17</title>
<path fill="none" stroke="midnightblue" d="M733.65,-168.27C711.31,-154.1 664.51,-126.25 621,-112 541.29,-85.9 443.92,-74.69 386.1,-70.06"/>
<polygon fill="midnightblue" stroke="midnightblue" points="386.36,-66.57 376.12,-69.29 385.83,-73.55 386.36,-66.57"/>
</g>
<!-- Node16 -->
<g id="node16" class="node">
<title>Node16</title>
<g id="a_node16"><a xlink:title=" ">
<polygon fill="none" stroke="#bfbfbf" points="226.5,-0.5 226.5,-19.5 267.5,-19.5 267.5,-0.5 226.5,-0.5"/>
<text text-anchor="middle" x="247" y="-7.5" font-family="Helvetica,sans-Serif" font-size="10.00">string</text>
</a>
</g>
</g>
<!-- Node15&#45;&gt;Node16 -->
<g id="edge20" class="edge">
<title>Node15&#45;&gt;Node16</title>
<path fill="none" stroke="midnightblue" d="M154.08,-112.36C160.52,-99.27 173.97,-74.02 190,-56 200.32,-44.4 213.89,-33.56 225.2,-25.42"/>
<polygon fill="midnightblue" stroke="midnightblue" points="227.48,-28.1 233.69,-19.51 223.48,-22.35 227.48,-28.1"/>
</g>
<!-- Node15&#45;&gt;Node17 -->
<g id="edge21" class="edge">
<title>Node15&#45;&gt;Node17</title>
<path fill="none" stroke="midnightblue" d="M178.25,-112.8C209.79,-103.64 261.06,-88.76 296.55,-78.45"/>
<polygon fill="midnightblue" stroke="midnightblue" points="297.93,-81.7 306.56,-75.55 295.98,-74.97 297.93,-81.7"/>
</g>
<!-- Node17&#45;&gt;Node14 -->
<g id="edge22" class="edge">
<title>Node17&#45;&gt;Node14</title>
<path fill="none" stroke="midnightblue" d="M353.99,-56.32C372.04,-47.62 400.05,-34.12 420.8,-24.11"/>
<polygon fill="midnightblue" stroke="midnightblue" points="422.56,-27.15 430.05,-19.65 419.52,-20.84 422.56,-27.15"/>
</g>
<!-- Node17&#45;&gt;Node16 -->
<g id="edge23" class="edge">
<title>Node17&#45;&gt;Node16</title>
<path fill="none" stroke="midnightblue" d="M321.7,-56.32C307.82,-47.9 286.51,-34.97 270.2,-25.07"/>
<polygon fill="midnightblue" stroke="midnightblue" points="271.63,-21.85 261.26,-19.65 268,-27.83 271.63,-21.85"/>
</g>
<!-- Node18&#45;&gt;Node7 -->
<g id="edge30" class="edge">
<title>Node18&#45;&gt;Node7</title>
<path fill="none" stroke="midnightblue" d="M297.59,-224.34C299.03,-210.27 304,-182.55 321,-168 342.88,-149.28 412.01,-137.32 467.75,-130.47"/>
<polygon fill="midnightblue" stroke="midnightblue" points="468.47,-133.91 477.99,-129.25 467.64,-126.96 468.47,-133.91"/>
</g>
<!-- Node18&#45;&gt;Node8 -->
<g id="edge31" class="edge">
<title>Node18&#45;&gt;Node8</title>
<path fill="none" stroke="midnightblue" d="M334.2,-224.4C391.81,-211.26 506.18,-185.8 604,-168 679.41,-154.28 766.18,-141.39 826,-132.95"/>
<polygon fill="midnightblue" stroke="midnightblue" points="826.68,-136.39 836.1,-131.53 825.71,-129.46 826.68,-136.39"/>
</g>
<!-- Node18&#45;&gt;Node13 -->
<g id="edge29" class="edge">
<title>Node18&#45;&gt;Node13</title>
<path fill="none" stroke="midnightblue" d="M340.1,-225.34C343.11,-224.87 346.1,-224.41 349,-224 479.95,-205.28 636.06,-189.53 707.62,-182.68"/>
<polygon fill="midnightblue" stroke="midnightblue" points="708.34,-186.13 717.96,-181.69 707.67,-179.16 708.34,-186.13"/>
</g>
<!-- Node19 -->
<g id="node19" class="node">
<title>Node19</title>
<g id="a_node19"><a xlink:title=" ">
<polygon fill="none" stroke="#bfbfbf" points="253,-112.5 253,-131.5 299,-131.5 299,-112.5 253,-112.5"/>
<text text-anchor="middle" x="276" y="-119.5" font-family="Helvetica,sans-Serif" font-size="10.00">math.h</text>
</a>
</g>
</g>
<!-- Node18&#45;&gt;Node19 -->
<g id="edge28" class="edge">
<title>Node18&#45;&gt;Node19</title>
<path fill="none" stroke="midnightblue" d="M295.24,-224.38C293.39,-215.33 290.44,-200.67 288,-188 285.02,-172.49 281.77,-154.86 279.41,-141.88"/>
<polygon fill="midnightblue" stroke="midnightblue" points="282.82,-141.05 277.59,-131.84 275.93,-142.3 282.82,-141.05"/>
</g>
<!-- Node20&#45;&gt;Node7 -->
<g id="edge35" class="edge">
<title>Node20&#45;&gt;Node7</title>
<path fill="none" stroke="midnightblue" d="M421.65,-224.39C437.82,-216.12 462.06,-202.73 481,-188 499.84,-173.35 518.68,-153.42 530.99,-139.5"/>
<polygon fill="midnightblue" stroke="midnightblue" points="533.84,-141.56 537.75,-131.72 528.55,-136.97 533.84,-141.56"/>
</g>
<!-- Node20&#45;&gt;Node8 -->
<g id="edge36" class="edge">
<title>Node20&#45;&gt;Node8</title>
<path fill="none" stroke="midnightblue" d="M442.43,-224.46C531.61,-204.64 752.48,-155.56 850.65,-133.75"/>
<polygon fill="midnightblue" stroke="midnightblue" points="851.59,-137.12 860.59,-131.53 850.07,-130.29 851.59,-137.12"/>
</g>
<!-- Node20&#45;&gt;Node13 -->
<g id="edge37" class="edge">
<title>Node20&#45;&gt;Node13</title>
<path fill="none" stroke="midnightblue" d="M450.2,-225.38C453.18,-224.91 456.13,-224.45 459,-224 567.75,-207.11 595.64,-207.28 704,-188 705.27,-187.77 706.55,-187.54 707.85,-187.3"/>
<polygon fill="midnightblue" stroke="midnightblue" points="708.76,-190.69 717.9,-185.34 707.42,-183.82 708.76,-190.69"/>
</g>
<!-- Node21 -->
<g id="node21" class="node">
<title>Node21</title>
<g id="a_node21"><a xlink:href="timedependentparameter_8hpp.html" target="_top" xlink:title="MODEL::TimeDependentParameter source file.">
<polygon fill="none" stroke="black" points="330,-168.5 330,-187.5 472,-187.5 472,-168.5 330,-168.5"/>
<text text-anchor="middle" x="401" y="-175.5" font-family="Helvetica,sans-Serif" font-size="10.00">timedependentparameter.hpp</text>
</a>
</g>
</g>
<!-- Node20&#45;&gt;Node21 -->
<g id="edge38" class="edge">
<title>Node20&#45;&gt;Node21</title>
<path fill="none" stroke="midnightblue" d="M403.5,-224.08C403.11,-217.01 402.55,-206.86 402.05,-197.99"/>
<polygon fill="midnightblue" stroke="midnightblue" points="405.54,-197.54 401.49,-187.75 398.55,-197.93 405.54,-197.54"/>
</g>
<!-- Node21&#45;&gt;Node14 -->
<g id="edge40" class="edge">
<title>Node21&#45;&gt;Node14</title>
<path fill="none" stroke="midnightblue" d="M407.66,-168.21C413.91,-159.49 423.04,-145.51 428,-132 440.74,-97.32 445.4,-54.06 447.08,-29.79"/>
<polygon fill="midnightblue" stroke="midnightblue" points="450.57,-29.98 447.67,-19.79 443.58,-29.57 450.57,-29.98"/>
</g>
<!-- Node21&#45;&gt;Node17 -->
<g id="edge42" class="edge">
<title>Node21&#45;&gt;Node17</title>
<path fill="none" stroke="midnightblue" d="M390.74,-168.29C381.35,-159.84 367.65,-146.25 359,-132 350.27,-117.61 344.19,-99.42 340.48,-85.94"/>
<polygon fill="midnightblue" stroke="midnightblue" points="343.79,-84.74 337.92,-75.91 337.01,-86.47 343.79,-84.74"/>
</g>
<!-- Node21&#45;&gt;Node19 -->
<g id="edge39" class="edge">
<title>Node21&#45;&gt;Node19</title>
<path fill="none" stroke="midnightblue" d="M381.19,-168.44C360.71,-159.6 328.52,-145.69 305.14,-135.59"/>
<polygon fill="midnightblue" stroke="midnightblue" points="306.28,-132.27 295.71,-131.52 303.51,-138.7 306.28,-132.27"/>
</g>
<!-- Node22 -->
<g id="node22" class="node">
<title>Node22</title>
<g id="a_node22"><a xlink:title=" ">
<polygon fill="none" stroke="#bfbfbf" points="368.5,-112.5 368.5,-131.5 419.5,-131.5 419.5,-112.5 368.5,-112.5"/>
<text text-anchor="middle" x="394" y="-119.5" font-family="Helvetica,sans-Serif" font-size="10.00">numeric</text>
</a>
</g>
</g>
<!-- Node21&#45;&gt;Node22 -->
<g id="edge41" class="edge">
<title>Node21&#45;&gt;Node22</title>
<path fill="none" stroke="midnightblue" d="M399.84,-168.08C398.92,-160.93 397.58,-150.64 396.42,-141.69"/>
<polygon fill="midnightblue" stroke="midnightblue" points="399.89,-141.22 395.13,-131.75 392.95,-142.12 399.89,-141.22"/>
</g>
<!-- Node23&#45;&gt;Node7 -->
<g id="edge44" class="edge">
<title>Node23&#45;&gt;Node7</title>
<path fill="none" stroke="midnightblue" d="M526.57,-224.37C529.8,-206.62 537.24,-165.67 541.62,-141.6"/>
<polygon fill="midnightblue" stroke="midnightblue" points="545.09,-142.06 543.44,-131.59 538.21,-140.8 545.09,-142.06"/>
</g>
<!-- Node23&#45;&gt;Node8 -->
<g id="edge45" class="edge">
<title>Node23&#45;&gt;Node8</title>
<path fill="none" stroke="midnightblue" d="M580.35,-224.46C650.91,-213.42 766.08,-194.79 785,-188 819.9,-175.47 856.5,-152.6 878.53,-137.6"/>
<polygon fill="midnightblue" stroke="midnightblue" points="880.81,-140.28 887.04,-131.71 876.82,-134.53 880.81,-140.28"/>
</g>
<!-- Node23&#45;&gt;Node13 -->
<g id="edge46" class="edge">
<title>Node23&#45;&gt;Node13</title>
<path fill="none" stroke="midnightblue" d="M560.18,-224.44C600.39,-214.66 666.02,-198.7 707.83,-188.53"/>
<polygon fill="midnightblue" stroke="midnightblue" points="708.77,-191.9 717.66,-186.14 707.12,-185.1 708.77,-191.9"/>
</g>
<!-- Node23&#45;&gt;Node21 -->
<g id="edge47" class="edge">
<title>Node23&#45;&gt;Node21</title>
<path fill="none" stroke="midnightblue" d="M505.35,-224.44C485.04,-215.6 453.1,-201.69 429.9,-191.59"/>
<polygon fill="midnightblue" stroke="midnightblue" points="431.12,-188.3 420.56,-187.52 428.33,-194.72 431.12,-188.3"/>
</g>
<!-- Node24&#45;&gt;Node7 -->
<g id="edge49" class="edge">
<title>Node24&#45;&gt;Node7</title>
<path fill="none" stroke="midnightblue" d="M1106.8,-224.42C1049.18,-211.3 934.81,-185.88 837,-168 762.23,-154.33 676.19,-141.41 616.97,-132.95"/>
<polygon fill="midnightblue" stroke="midnightblue" points="617.37,-129.47 606.97,-131.53 616.38,-136.4 617.37,-129.47"/>
</g>
<!-- Node24&#45;&gt;Node8 -->
<g id="edge50" class="edge">
<title>Node24&#45;&gt;Node8</title>
<path fill="none" stroke="midnightblue" d="M1124.78,-224.37C1081.84,-205.09 977.96,-158.45 927.49,-135.79"/>
<polygon fill="midnightblue" stroke="midnightblue" points="928.69,-132.49 918.14,-131.59 925.82,-138.88 928.69,-132.49"/>
</g>
<!-- Node24&#45;&gt;Node13 -->
<g id="edge51" class="edge">
<title>Node24&#45;&gt;Node13</title>
<path fill="none" stroke="midnightblue" d="M1081.09,-224.44C998.32,-213.19 855.31,-193.73 786.38,-184.36"/>
<polygon fill="midnightblue" stroke="midnightblue" points="786.75,-180.87 776.37,-183 785.81,-187.81 786.75,-180.87"/>
</g>
<!-- Node25&#45;&gt;Node7 -->
<g id="edge53" class="edge">
<title>Node25&#45;&gt;Node7</title>
<path fill="none" stroke="midnightblue" d="M668.49,-224.37C645.78,-205.73 591.94,-161.53 563.44,-138.13"/>
<polygon fill="midnightblue" stroke="midnightblue" points="565.42,-135.23 555.47,-131.59 560.97,-140.64 565.42,-135.23"/>
</g>
<!-- Node25&#45;&gt;Node8 -->
<g id="edge54" class="edge">
<title>Node25&#45;&gt;Node8</title>
<path fill="none" stroke="midnightblue" d="M758.3,-225.49C790.89,-219.35 827.57,-208.2 856,-188 872.67,-176.16 884.64,-155.65 891.66,-140.83"/>
<polygon fill="midnightblue" stroke="midnightblue" points="894.87,-142.21 895.72,-131.65 888.47,-139.38 894.87,-142.21"/>
</g>
<!-- Node25&#45;&gt;Node13 -->
<g id="edge55" class="edge">
<title>Node25&#45;&gt;Node13</title>
<path fill="none" stroke="midnightblue" d="M689.93,-224.32C700.17,-216.18 715.72,-203.84 728,-194.09"/>
<polygon fill="midnightblue" stroke="midnightblue" points="730.22,-196.79 735.88,-187.83 725.87,-191.31 730.22,-196.79"/>
</g>
<!-- Node25&#45;&gt;Node21 -->
<g id="edge56" class="edge">
<title>Node25&#45;&gt;Node21</title>
<path fill="none" stroke="midnightblue" d="M634.95,-224.44C586.15,-214.96 507.44,-199.67 454.97,-189.48"/>
<polygon fill="midnightblue" stroke="midnightblue" points="455.33,-185.99 444.84,-187.52 453.99,-192.86 455.33,-185.99"/>
</g>
<!-- Node26&#45;&gt;Node7 -->
<g id="edge58" class="edge">
<title>Node26&#45;&gt;Node7</title>
<path fill="none" stroke="midnightblue" d="M836.23,-224.48C803.2,-216.13 752.3,-202.55 709,-188 660.98,-171.87 606.56,-149.45 574.05,-135.6"/>
<polygon fill="midnightblue" stroke="midnightblue" points="575.26,-132.31 564.69,-131.6 572.51,-138.75 575.26,-132.31"/>
</g>
<!-- Node26&#45;&gt;Node8 -->
<g id="edge59" class="edge">
<title>Node26&#45;&gt;Node8</title>
<path fill="none" stroke="midnightblue" d="M876.67,-224.46C882.16,-215.71 890.19,-201.51 894,-188 898.27,-172.83 899.38,-154.94 899.5,-141.77"/>
<polygon fill="midnightblue" stroke="midnightblue" points="902.99,-141.57 899.4,-131.6 895.99,-141.63 902.99,-141.57"/>
</g>
<!-- Node26&#45;&gt;Node13 -->
<g id="edge60" class="edge">
<title>Node26&#45;&gt;Node13</title>
<path fill="none" stroke="midnightblue" d="M851.35,-224.44C831.04,-215.6 799.1,-201.69 775.9,-191.59"/>
<polygon fill="midnightblue" stroke="midnightblue" points="777.12,-188.3 766.56,-187.52 774.33,-194.72 777.12,-188.3"/>
</g>
<!-- Node26&#45;&gt;Node21 -->
<g id="edge61" class="edge">
<title>Node26&#45;&gt;Node21</title>
<path fill="none" stroke="midnightblue" d="M796.79,-224.47C711.1,-214.63 570.63,-198.49 482.13,-188.32"/>
<polygon fill="midnightblue" stroke="midnightblue" points="482.47,-184.84 472.13,-187.17 481.67,-191.79 482.47,-184.84"/>
</g>
</g>
</svg>
