<?xml version="1.0" encoding="UTF-8" standalone="no"?>
<!DOCTYPE svg PUBLIC "-//W3C//DTD SVG 1.1//EN"
 "http://www.w3.org/Graphics/SVG/1.1/DTD/svg11.dtd">
<!-- Generated by graphviz version 3.0.0 (20220413.0242)
 -->
<!-- Title: algebra/integrator.hpp Pages: 1 -->
<svg width="1149pt" height="364pt"
 viewBox="0.00 0.00 1148.84 364.00" xmlns="http://www.w3.org/2000/svg" xmlns:xlink="http://www.w3.org/1999/xlink">
<g id="graph0" class="graph" transform="scale(1 1) rotate(0) translate(4 360)">
<title>algebra/integrator.hpp</title>
<!-- Node1 -->
<g id="node1" class="node">
<title>Node1</title>
<g id="a_node1"><a xlink:title="ALGEBRA::Integrator source file.">
<polygon fill="#bfbfbf" stroke="black" points="448,-336.5 448,-355.5 558,-355.5 558,-336.5 448,-336.5"/>
<text text-anchor="middle" x="503" y="-343.5" font-family="Helvetica,sans-Serif" font-size="10.00">algebra/integrator.hpp</text>
</a>
</g>
</g>
<!-- Node2 -->
<g id="node2" class="node">
<title>Node2</title>
<g id="a_node2"><a xlink:title=" ">
<polygon fill="none" stroke="#bfbfbf" points="71.5,-56.5 71.5,-75.5 142.5,-75.5 142.5,-56.5 71.5,-56.5"/>
<text text-anchor="middle" x="107" y="-63.5" font-family="Helvetica,sans-Serif" font-size="10.00">Eigen/Dense</text>
</a>
</g>
</g>
<!-- Node1&#45;&gt;Node2 -->
<g id="edge1" class="edge">
<title>Node1&#45;&gt;Node2</title>
<path fill="none" stroke="midnightblue" d="M447.73,-344.48C317.07,-341.78 0,-325.84 0,-235 0,-235 0,-235 0,-177 0,-131.41 47.8,-97.62 79.51,-80.23"/>
<polygon fill="midnightblue" stroke="midnightblue" points="81.15,-83.32 88.36,-75.56 77.88,-77.13 81.15,-83.32"/>
</g>
<!-- Node3 -->
<g id="node3" class="node">
<title>Node3</title>
<g id="a_node3"><a xlink:href="model_8hpp.html" target="_top" xlink:title="MODEL::Model source file.">
<polygon fill="none" stroke="black" points="454,-280.5 454,-299.5 552,-299.5 552,-280.5 454,-280.5"/>
<text text-anchor="middle" x="503" y="-287.5" font-family="Helvetica,sans-Serif" font-size="10.00">../model/model.hpp</text>
</a>
</g>
</g>
<!-- Node1&#45;&gt;Node3 -->
<g id="edge2" class="edge">
<title>Node1&#45;&gt;Node3</title>
<path fill="none" stroke="midnightblue" d="M503,-336.08C503,-329.01 503,-318.86 503,-309.99"/>
<polygon fill="midnightblue" stroke="midnightblue" points="506.5,-309.75 503,-299.75 499.5,-309.75 506.5,-309.75"/>
</g>
<!-- Node27 -->
<g id="node27" class="node">
<title>Node27</title>
<g id="a_node27"><a xlink:href="state_8hpp.html" target="_top" xlink:title="ALGEBRA::State source file.">
<polygon fill="none" stroke="black" points="570,-280.5 570,-299.5 626,-299.5 626,-280.5 570,-280.5"/>
<text text-anchor="middle" x="598" y="-287.5" font-family="Helvetica,sans-Serif" font-size="10.00">state.hpp</text>
</a>
</g>
</g>
<!-- Node1&#45;&gt;Node27 -->
<g id="edge63" class="edge">
<title>Node1&#45;&gt;Node27</title>
<path fill="none" stroke="midnightblue" d="M518.26,-336.32C533.22,-327.82 556.25,-314.73 573.73,-304.8"/>
<polygon fill="midnightblue" stroke="midnightblue" points="575.81,-307.64 582.77,-299.65 572.35,-301.55 575.81,-307.64"/>
</g>
<!-- Node4 -->
<g id="node4" class="node">
<title>Node4</title>
<g id="a_node4"><a xlink:title=" ">
<polygon fill="none" stroke="#bfbfbf" points="813.5,-112.5 813.5,-131.5 848.5,-131.5 848.5,-112.5 813.5,-112.5"/>
<text text-anchor="middle" x="831" y="-119.5" font-family="Helvetica,sans-Serif" font-size="10.00">map</text>
</a>
</g>
</g>
<!-- Node3&#45;&gt;Node4 -->
<g id="edge3" class="edge">
<title>Node3&#45;&gt;Node4</title>
<path fill="none" stroke="midnightblue" d="M552.02,-281.18C555.06,-280.76 558.07,-280.37 561,-280 603.31,-274.73 914.3,-275.53 943,-244 965.74,-219.02 961.92,-195.98 943,-168 924.33,-140.38 885.62,-129.71 858.98,-125.59"/>
<polygon fill="midnightblue" stroke="midnightblue" points="859.11,-122.08 848.74,-124.23 858.19,-129.02 859.11,-122.08"/>
</g>
<!-- Node5 -->
<g id="node5" class="node">
<title>Node5</title>
<g id="a_node5"><a xlink:title=" ">
<polygon fill="none" stroke="#bfbfbf" points="1028.5,-224.5 1028.5,-243.5 1057.5,-243.5 1057.5,-224.5 1028.5,-224.5"/>
<text text-anchor="middle" x="1043" y="-231.5" font-family="Helvetica,sans-Serif" font-size="10.00">list</text>
</a>
</g>
</g>
<!-- Node3&#45;&gt;Node5 -->
<g id="edge4" class="edge">
<title>Node3&#45;&gt;Node5</title>
<path fill="none" stroke="midnightblue" d="M552.01,-281.13C555.05,-280.73 558.06,-280.34 561,-280 761.6,-256.5 815.67,-282.17 1014,-244 1015.49,-243.71 1017.01,-243.38 1018.53,-243.01"/>
<polygon fill="midnightblue" stroke="midnightblue" points="1019.73,-246.31 1028.41,-240.22 1017.83,-239.57 1019.73,-246.31"/>
</g>
<!-- Node6 -->
<g id="node6" class="node">
<title>Node6</title>
<g id="a_node6"><a xlink:title=" ">
<polygon fill="none" stroke="#bfbfbf" points="1076,-224.5 1076,-243.5 1122,-243.5 1122,-224.5 1076,-224.5"/>
<text text-anchor="middle" x="1099" y="-231.5" font-family="Helvetica,sans-Serif" font-size="10.00">variant</text>
</a>
</g>
</g>
<!-- Node3&#45;&gt;Node6 -->
<g id="edge5" class="edge">
<title>Node3&#45;&gt;Node6</title>
<path fill="none" stroke="midnightblue" d="M552.01,-281.1C555.05,-280.7 558.06,-280.33 561,-280 781.75,-255.06 843.1,-281.91 1065.67,-243.88"/>
<polygon fill="midnightblue" stroke="midnightblue" points="1066.45,-247.3 1075.71,-242.14 1065.26,-240.4 1066.45,-247.3"/>
</g>
<!-- Node7 -->
<g id="node7" class="node">
<title>Node7</title>
<g id="a_node7"><a xlink:href="densesystem_8hpp.html" target="_top" xlink:title="ALGEBRA::DenseSystem source file.">
<polygon fill="none" stroke="black" points="147,-112.5 147,-131.5 281,-131.5 281,-112.5 147,-112.5"/>
<text text-anchor="middle" x="214" y="-119.5" font-family="Helvetica,sans-Serif" font-size="10.00">../algebra/densesystem.hpp</text>
</a>
</g>
</g>
<!-- Node3&#45;&gt;Node7 -->
<g id="edge6" class="edge">
<title>Node3&#45;&gt;Node7</title>
<path fill="none" stroke="midnightblue" d="M453.91,-287.62C345.01,-283.93 91.34,-272.14 66,-244 26.01,-199.59 118.38,-155.57 174.74,-135.01"/>
<polygon fill="midnightblue" stroke="midnightblue" points="176.21,-138.21 184.46,-131.57 173.87,-131.61 176.21,-138.21"/>
</g>
<!-- Node8 -->
<g id="node8" class="node">
<title>Node8</title>
<g id="a_node8"><a xlink:href="sparsesystem_8hpp.html" target="_top" xlink:title="ALGEBRA::SparseSystem source file.">
<polygon fill="none" stroke="black" points="317.5,-112.5 317.5,-131.5 454.5,-131.5 454.5,-112.5 317.5,-112.5"/>
<text text-anchor="middle" x="386" y="-119.5" font-family="Helvetica,sans-Serif" font-size="10.00">../algebra/sparsesystem.hpp</text>
</a>
</g>
</g>
<!-- Node3&#45;&gt;Node8 -->
<g id="edge9" class="edge">
<title>Node3&#45;&gt;Node8</title>
<path fill="none" stroke="midnightblue" d="M453.94,-287.99C383.92,-285.41 261.18,-276.29 234,-244 195,-197.67 288.41,-154.71 345.69,-134.74"/>
<polygon fill="midnightblue" stroke="midnightblue" points="346.89,-138.03 355.24,-131.51 344.65,-131.4 346.89,-138.03"/>
</g>
<!-- Node12 -->
<g id="node12" class="node">
<title>Node12</title>
<g id="a_node12"><a xlink:href="junction_8hpp.html" target="_top" xlink:title="MODEL::Junction source file.">
<polygon fill="none" stroke="black" points="356,-224.5 356,-243.5 424,-243.5 424,-224.5 356,-224.5"/>
<text text-anchor="middle" x="390" y="-231.5" font-family="Helvetica,sans-Serif" font-size="10.00">junction.hpp</text>
</a>
</g>
</g>
<!-- Node3&#45;&gt;Node12 -->
<g id="edge14" class="edge">
<title>Node3&#45;&gt;Node12</title>
<path fill="none" stroke="midnightblue" d="M485.09,-280.44C466.75,-271.68 437.99,-257.94 416.91,-247.86"/>
<polygon fill="midnightblue" stroke="midnightblue" points="418.35,-244.67 407.82,-243.52 415.33,-250.99 418.35,-244.67"/>
</g>
<!-- Node15 -->
<g id="node15" class="node">
<title>Node15</title>
<g id="a_node15"><a xlink:href="node_8hpp.html" target="_top" xlink:title="MODEL::Node source file.">
<polygon fill="none" stroke="black" points="1028,-112.5 1028,-131.5 1084,-131.5 1084,-112.5 1028,-112.5"/>
<text text-anchor="middle" x="1056" y="-119.5" font-family="Helvetica,sans-Serif" font-size="10.00">node.hpp</text>
</a>
</g>
</g>
<!-- Node3&#45;&gt;Node15 -->
<g id="edge34" class="edge">
<title>Node3&#45;&gt;Node15</title>
<path fill="none" stroke="midnightblue" d="M552.01,-281.08C555.05,-280.68 558.06,-280.32 561,-280 624.09,-273.13 1087.56,-290.27 1131,-244 1162.39,-210.57 1108.87,-162.03 1077.04,-137.85"/>
<polygon fill="midnightblue" stroke="midnightblue" points="1078.85,-134.83 1068.73,-131.71 1074.69,-140.46 1078.85,-134.83"/>
</g>
<!-- Node17 -->
<g id="node17" class="node">
<title>Node17</title>
<g id="a_node17"><a xlink:href="dofhandler_8hpp.html" target="_top" xlink:title="MODEL::DOFHandler source file.">
<polygon fill="none" stroke="black" points="861,-56.5 861,-75.5 941,-75.5 941,-56.5 861,-56.5"/>
<text text-anchor="middle" x="901" y="-63.5" font-family="Helvetica,sans-Serif" font-size="10.00">dofhandler.hpp</text>
</a>
</g>
</g>
<!-- Node3&#45;&gt;Node17 -->
<g id="edge33" class="edge">
<title>Node3&#45;&gt;Node17</title>
<path fill="none" stroke="midnightblue" d="M552.02,-281.17C555.05,-280.75 558.07,-280.36 561,-280 605.51,-274.56 932.3,-276.69 963,-244 1003.18,-201.23 993.23,-163.98 966,-112 958.72,-98.11 944.99,-87.65 932.02,-80.33"/>
<polygon fill="midnightblue" stroke="midnightblue" points="933.3,-77.05 922.81,-75.55 930.07,-83.27 933.3,-77.05"/>
</g>
<!-- Node18 -->
<g id="node18" class="node">
<title>Node18</title>
<g id="a_node18"><a xlink:href="bloodvessel_8hpp.html" target="_top" xlink:title="MODEL::BloodVessel source file.">
<polygon fill="none" stroke="black" points="252,-224.5 252,-243.5 338,-243.5 338,-224.5 252,-224.5"/>
<text text-anchor="middle" x="295" y="-231.5" font-family="Helvetica,sans-Serif" font-size="10.00">bloodvessel.hpp</text>
</a>
</g>
</g>
<!-- Node3&#45;&gt;Node18 -->
<g id="edge28" class="edge">
<title>Node3&#45;&gt;Node18</title>
<path fill="none" stroke="midnightblue" d="M470.04,-280.44C434.21,-271.14 376.84,-256.25 337.61,-246.06"/>
<polygon fill="midnightblue" stroke="midnightblue" points="338.36,-242.64 327.8,-243.52 336.6,-249.42 338.36,-242.64"/>
</g>
<!-- Node20 -->
<g id="node20" class="node">
<title>Node20</title>
<g id="a_node20"><a xlink:href="flowreferencebc_8hpp.html" target="_top" xlink:title="MODEL::FlowReferenceBC source file.">
<polygon fill="none" stroke="black" points="581.5,-224.5 581.5,-243.5 684.5,-243.5 684.5,-224.5 581.5,-224.5"/>
<text text-anchor="middle" x="633" y="-231.5" font-family="Helvetica,sans-Serif" font-size="10.00">flowreferencebc.hpp</text>
</a>
</g>
</g>
<!-- Node3&#45;&gt;Node20 -->
<g id="edge35" class="edge">
<title>Node3&#45;&gt;Node20</title>
<path fill="none" stroke="midnightblue" d="M523.6,-280.44C544.99,-271.56 578.68,-257.56 603.02,-247.45"/>
<polygon fill="midnightblue" stroke="midnightblue" points="604.61,-250.58 612.5,-243.52 601.92,-244.12 604.61,-250.58"/>
</g>
<!-- Node23 -->
<g id="node23" class="node">
<title>Node23</title>
<g id="a_node23"><a xlink:href="pressurereferencebc_8hpp.html" target="_top" xlink:title="MODEL::PressureReferenceBC source file.">
<polygon fill="none" stroke="black" points="702.5,-224.5 702.5,-243.5 825.5,-243.5 825.5,-224.5 702.5,-224.5"/>
<text text-anchor="middle" x="764" y="-231.5" font-family="Helvetica,sans-Serif" font-size="10.00">pressurereferencebc.hpp</text>
</a>
</g>
</g>
<!-- Node3&#45;&gt;Node23 -->
<g id="edge44" class="edge">
<title>Node3&#45;&gt;Node23</title>
<path fill="none" stroke="midnightblue" d="M544.36,-280.44C590.08,-270.98 663.76,-255.74 713.02,-245.55"/>
<polygon fill="midnightblue" stroke="midnightblue" points="713.75,-248.97 722.84,-243.52 712.34,-242.12 713.75,-248.97"/>
</g>
<!-- Node24 -->
<g id="node24" class="node">
<title>Node24</title>
<g id="a_node24"><a xlink:href="windkesselbc_8hpp.html" target="_top" xlink:title="MODEL::WindkesselBC source file.">
<polygon fill="none" stroke="black" points="84,-224.5 84,-243.5 178,-243.5 178,-224.5 84,-224.5"/>
<text text-anchor="middle" x="131" y="-231.5" font-family="Helvetica,sans-Serif" font-size="10.00">windkesselbc.hpp</text>
</a>
</g>
</g>
<!-- Node3&#45;&gt;Node24 -->
<g id="edge49" class="edge">
<title>Node3&#45;&gt;Node24</title>
<path fill="none" stroke="midnightblue" d="M453.98,-281.95C392.69,-273.13 284.58,-257.53 192,-244 190.75,-243.82 189.48,-243.63 188.21,-243.45"/>
<polygon fill="midnightblue" stroke="midnightblue" points="188.69,-239.98 178.29,-241.99 187.67,-246.9 188.69,-239.98"/>
</g>
<!-- Node25 -->
<g id="node25" class="node">
<title>Node25</title>
<g id="a_node25"><a xlink:href="resistancebc_8hpp.html" target="_top" xlink:title="MODEL::ResistanceBC source file.">
<polygon fill="none" stroke="black" points="844,-224.5 844,-243.5 934,-243.5 934,-224.5 844,-224.5"/>
<text text-anchor="middle" x="889" y="-231.5" font-family="Helvetica,sans-Serif" font-size="10.00">resistancebc.hpp</text>
</a>
</g>
</g>
<!-- Node3&#45;&gt;Node25 -->
<g id="edge53" class="edge">
<title>Node3&#45;&gt;Node25</title>
<path fill="none" stroke="midnightblue" d="M552.04,-281.31C555.07,-280.86 558.07,-280.42 561,-280 679.38,-263.04 711.82,-262.14 833.82,-244.13"/>
<polygon fill="midnightblue" stroke="midnightblue" points="834.56,-247.56 843.94,-242.63 833.53,-240.64 834.56,-247.56"/>
</g>
<!-- Node26 -->
<g id="node26" class="node">
<title>Node26</title>
<g id="a_node26"><a xlink:href="openloopcoronarybc_8hpp.html" target="_top" xlink:title="MODEL::OpenLoopCoronaryBC source file.">
<polygon fill="none" stroke="black" points="442.5,-224.5 442.5,-243.5 563.5,-243.5 563.5,-224.5 442.5,-224.5"/>
<text text-anchor="middle" x="503" y="-231.5" font-family="Helvetica,sans-Serif" font-size="10.00">openloopcoronarybc.hpp</text>
</a>
</g>
</g>
<!-- Node3&#45;&gt;Node26 -->
<g id="edge58" class="edge">
<title>Node3&#45;&gt;Node26</title>
<path fill="none" stroke="midnightblue" d="M503,-280.08C503,-273.01 503,-262.86 503,-253.99"/>
<polygon fill="midnightblue" stroke="midnightblue" points="506.5,-253.75 503,-243.75 499.5,-253.75 506.5,-253.75"/>
</g>
<!-- Node7&#45;&gt;Node2 -->
<g id="edge7" class="edge">
<title>Node7&#45;&gt;Node2</title>
<path fill="none" stroke="midnightblue" d="M196.81,-112.32C179.65,-103.66 153.05,-90.24 133.25,-80.25"/>
<polygon fill="midnightblue" stroke="midnightblue" points="134.65,-77.04 124.15,-75.65 131.5,-83.28 134.65,-77.04"/>
</g>
<!-- Node7&#45;&gt;Node3 -->
<g id="edge8" class="edge">
<title>Node7&#45;&gt;Node3</title>
<path fill="none" stroke="midnightblue" d="M194.14,-131.57C147.94,-150.28 41.61,-196.92 84,-244 107.82,-270.46 333.43,-282.46 443.43,-286.87"/>
<polygon fill="midnightblue" stroke="midnightblue" points="443.57,-290.38 453.7,-287.27 443.84,-283.38 443.57,-290.38"/>
</g>
<!-- Node8&#45;&gt;Node3 -->
<g id="edge13" class="edge">
<title>Node8&#45;&gt;Node3</title>
<path fill="none" stroke="midnightblue" d="M365.04,-131.51C317.66,-149.75 210.74,-194.99 252,-244 276.33,-272.9 377.22,-283.24 443.53,-286.94"/>
<polygon fill="midnightblue" stroke="midnightblue" points="443.68,-290.45 453.85,-287.48 444.05,-283.46 443.68,-290.45"/>
</g>
<!-- Node9 -->
<g id="node9" class="node">
<title>Node9</title>
<g id="a_node9"><a xlink:title=" ">
<polygon fill="none" stroke="#bfbfbf" points="349,-56.5 349,-75.5 423,-75.5 423,-56.5 349,-56.5"/>
<text text-anchor="middle" x="386" y="-63.5" font-family="Helvetica,sans-Serif" font-size="10.00">Eigen/Sparse</text>
</a>
</g>
</g>
<!-- Node8&#45;&gt;Node9 -->
<g id="edge10" class="edge">
<title>Node8&#45;&gt;Node9</title>
<path fill="none" stroke="midnightblue" d="M386,-112.08C386,-105.01 386,-94.86 386,-85.99"/>
<polygon fill="midnightblue" stroke="midnightblue" points="389.5,-85.75 386,-75.75 382.5,-85.75 389.5,-85.75"/>
</g>
<!-- Node10 -->
<g id="node10" class="node">
<title>Node10</title>
<g id="a_node10"><a xlink:title=" ">
<polygon fill="none" stroke="#bfbfbf" points="441,-56.5 441,-75.5 529,-75.5 529,-56.5 441,-56.5"/>
<text text-anchor="middle" x="485" y="-63.5" font-family="Helvetica,sans-Serif" font-size="10.00">Eigen/SparseLU</text>
</a>
</g>
</g>
<!-- Node8&#45;&gt;Node10 -->
<g id="edge11" class="edge">
<title>Node8&#45;&gt;Node10</title>
<path fill="none" stroke="midnightblue" d="M401.91,-112.32C417.64,-103.74 441.94,-90.49 460.21,-80.52"/>
<polygon fill="midnightblue" stroke="midnightblue" points="462.03,-83.52 469.13,-75.65 458.68,-77.37 462.03,-83.52"/>
</g>
<!-- Node11 -->
<g id="node11" class="node">
<title>Node11</title>
<g id="a_node11"><a xlink:title=" ">
<polygon fill="none" stroke="#bfbfbf" points="277,-56.5 277,-75.5 331,-75.5 331,-56.5 277,-56.5"/>
<text text-anchor="middle" x="304" y="-63.5" font-family="Helvetica,sans-Serif" font-size="10.00">iostream</text>
</a>
</g>
</g>
<!-- Node8&#45;&gt;Node11 -->
<g id="edge12" class="edge">
<title>Node8&#45;&gt;Node11</title>
<path fill="none" stroke="midnightblue" d="M372.83,-112.32C360.15,-103.98 340.77,-91.21 325.79,-81.35"/>
<polygon fill="midnightblue" stroke="midnightblue" points="327.42,-78.23 317.14,-75.65 323.57,-84.08 327.42,-78.23"/>
</g>
<!-- Node12&#45;&gt;Node7 -->
<g id="edge15" class="edge">
<title>Node12&#45;&gt;Node7</title>
<path fill="none" stroke="midnightblue" d="M376.19,-224.37C345.86,-205.41 273.2,-160 236.31,-136.94"/>
<polygon fill="midnightblue" stroke="midnightblue" points="238.08,-133.92 227.75,-131.59 234.37,-139.86 238.08,-133.92"/>
</g>
<!-- Node12&#45;&gt;Node8 -->
<g id="edge16" class="edge">
<title>Node12&#45;&gt;Node8</title>
<path fill="none" stroke="midnightblue" d="M389.69,-224.37C389.04,-206.62 387.55,-165.67 386.68,-141.6"/>
<polygon fill="midnightblue" stroke="midnightblue" points="390.17,-141.46 386.31,-131.59 383.18,-141.71 390.17,-141.46"/>
</g>
<!-- Node13 -->
<g id="node13" class="node">
<title>Node13</title>
<g id="a_node13"><a xlink:href="block_8hpp.html" target="_top" xlink:title="MODEL::Block source file.">
<polygon fill="none" stroke="black" points="602,-168.5 602,-187.5 660,-187.5 660,-168.5 602,-168.5"/>
<text text-anchor="middle" x="631" y="-175.5" font-family="Helvetica,sans-Serif" font-size="10.00">block.hpp</text>
</a>
</g>
</g>
<!-- Node12&#45;&gt;Node13 -->
<g id="edge17" class="edge">
<title>Node12&#45;&gt;Node13</title>
<path fill="none" stroke="midnightblue" d="M424.02,-225.38C468.17,-215.49 545.05,-198.26 591.66,-187.81"/>
<polygon fill="midnightblue" stroke="midnightblue" points="592.7,-191.17 601.69,-185.57 591.17,-184.34 592.7,-191.17"/>
</g>
<!-- Node13&#45;&gt;Node4 -->
<g id="edge19" class="edge">
<title>Node13&#45;&gt;Node4</title>
<path fill="none" stroke="midnightblue" d="M660.17,-169.31C693.7,-160.43 750.37,-145.35 799,-132 800.46,-131.6 801.96,-131.19 803.47,-130.77"/>
<polygon fill="midnightblue" stroke="midnightblue" points="804.72,-134.05 813.41,-127.99 802.83,-127.31 804.72,-134.05"/>
</g>
<!-- Node13&#45;&gt;Node7 -->
<g id="edge26" class="edge">
<title>Node13&#45;&gt;Node7</title>
<path fill="none" stroke="midnightblue" d="M601.92,-170.56C597.28,-169.63 592.52,-168.74 588,-168 486,-151.22 367.37,-138.01 291.54,-130.35"/>
<polygon fill="midnightblue" stroke="midnightblue" points="291.43,-126.82 281.13,-129.31 290.73,-133.79 291.43,-126.82"/>
</g>
<!-- Node13&#45;&gt;Node8 -->
<g id="edge27" class="edge">
<title>Node13&#45;&gt;Node8</title>
<path fill="none" stroke="midnightblue" d="M601.93,-170.59C560.67,-161.5 484.57,-144.73 434.62,-133.72"/>
<polygon fill="midnightblue" stroke="midnightblue" points="435.21,-130.26 424.69,-131.53 433.71,-137.1 435.21,-130.26"/>
</g>
<!-- Node14 -->
<g id="node14" class="node">
<title>Node14</title>
<g id="a_node14"><a xlink:title=" ">
<polygon fill="none" stroke="#bfbfbf" points="725,-0.5 725,-19.5 769,-19.5 769,-0.5 725,-0.5"/>
<text text-anchor="middle" x="747" y="-7.5" font-family="Helvetica,sans-Serif" font-size="10.00">vector</text>
</a>
</g>
</g>
<!-- Node13&#45;&gt;Node14 -->
<g id="edge18" class="edge">
<title>Node13&#45;&gt;Node14</title>
<path fill="none" stroke="midnightblue" d="M637.24,-168.08C655.73,-141.61 710.52,-63.21 734.97,-28.21"/>
<polygon fill="midnightblue" stroke="midnightblue" points="738.15,-29.77 741.01,-19.57 732.42,-25.76 738.15,-29.77"/>
</g>
<!-- Node13&#45;&gt;Node15 -->
<g id="edge20" class="edge">
<title>Node13&#45;&gt;Node15</title>
<path fill="none" stroke="midnightblue" d="M660.21,-173.29C735.12,-163.77 934.02,-138.5 1017.87,-127.84"/>
<polygon fill="midnightblue" stroke="midnightblue" points="1018.5,-131.29 1027.98,-126.56 1017.62,-124.35 1018.5,-131.29"/>
</g>
<!-- Node13&#45;&gt;Node17 -->
<g id="edge25" class="edge">
<title>Node13&#45;&gt;Node17</title>
<path fill="none" stroke="midnightblue" d="M652.19,-168.37C699.8,-148.97 815.41,-101.87 870.64,-79.37"/>
<polygon fill="midnightblue" stroke="midnightblue" points="871.97,-82.61 879.91,-75.59 869.33,-76.12 871.97,-82.61"/>
</g>
<!-- Node16 -->
<g id="node16" class="node">
<title>Node16</title>
<g id="a_node16"><a xlink:title=" ">
<polygon fill="none" stroke="#bfbfbf" points="945.5,-0.5 945.5,-19.5 986.5,-19.5 986.5,-0.5 945.5,-0.5"/>
<text text-anchor="middle" x="966" y="-7.5" font-family="Helvetica,sans-Serif" font-size="10.00">string</text>
</a>
</g>
</g>
<!-- Node15&#45;&gt;Node16 -->
<g id="edge21" class="edge">
<title>Node15&#45;&gt;Node16</title>
<path fill="none" stroke="midnightblue" d="M1048.94,-112.37C1033.95,-94.05 998.77,-51.05 979.39,-27.36"/>
<polygon fill="midnightblue" stroke="midnightblue" points="982.07,-25.11 973.03,-19.59 976.65,-29.55 982.07,-25.11"/>
</g>
<!-- Node15&#45;&gt;Node17 -->
<g id="edge22" class="edge">
<title>Node15&#45;&gt;Node17</title>
<path fill="none" stroke="midnightblue" d="M1031.44,-112.44C1005.48,-103.4 964.33,-89.06 935.2,-78.92"/>
<polygon fill="midnightblue" stroke="midnightblue" points="936.04,-75.5 925.45,-75.52 933.74,-82.11 936.04,-75.5"/>
</g>
<!-- Node17&#45;&gt;Node14 -->
<g id="edge23" class="edge">
<title>Node17&#45;&gt;Node14</title>
<path fill="none" stroke="midnightblue" d="M876.6,-56.44C850.2,-47.19 807.99,-32.39 778.96,-22.21"/>
<polygon fill="midnightblue" stroke="midnightblue" points="779.88,-18.82 769.29,-18.82 777.57,-25.43 779.88,-18.82"/>
</g>
<!-- Node17&#45;&gt;Node16 -->
<g id="edge24" class="edge">
<title>Node17&#45;&gt;Node16</title>
<path fill="none" stroke="midnightblue" d="M911.44,-56.32C921.15,-48.26 935.82,-36.08 947.5,-26.37"/>
<polygon fill="midnightblue" stroke="midnightblue" points="949.91,-28.92 955.37,-19.83 945.44,-23.53 949.91,-28.92"/>
</g>
<!-- Node18&#45;&gt;Node7 -->
<g id="edge31" class="edge">
<title>Node18&#45;&gt;Node7</title>
<path fill="none" stroke="midnightblue" d="M253.95,-224.38C234.04,-217.92 211.91,-206.81 200,-188 190.96,-173.71 196.84,-154.5 203.54,-140.67"/>
<polygon fill="midnightblue" stroke="midnightblue" points="206.71,-142.17 208.35,-131.7 200.54,-138.86 206.71,-142.17"/>
</g>
<!-- Node18&#45;&gt;Node8 -->
<g id="edge32" class="edge">
<title>Node18&#45;&gt;Node8</title>
<path fill="none" stroke="midnightblue" d="M302.14,-224.37C317.29,-206.05 352.87,-163.05 372.46,-139.36"/>
<polygon fill="midnightblue" stroke="midnightblue" points="375.22,-141.53 378.89,-131.59 369.82,-137.07 375.22,-141.53"/>
</g>
<!-- Node18&#45;&gt;Node13 -->
<g id="edge30" class="edge">
<title>Node18&#45;&gt;Node13</title>
<path fill="none" stroke="midnightblue" d="M338.12,-225.49C341.13,-224.98 344.11,-224.48 347,-224 434.44,-209.51 537.21,-193.47 591.98,-185"/>
<polygon fill="midnightblue" stroke="midnightblue" points="592.6,-188.45 601.95,-183.46 591.53,-181.53 592.6,-188.45"/>
</g>
<!-- Node19 -->
<g id="node19" class="node">
<title>Node19</title>
<g id="a_node19"><a xlink:title=" ">
<polygon fill="none" stroke="#bfbfbf" points="532,-112.5 532,-131.5 578,-131.5 578,-112.5 532,-112.5"/>
<text text-anchor="middle" x="555" y="-119.5" font-family="Helvetica,sans-Serif" font-size="10.00">math.h</text>
</a>
</g>
</g>
<!-- Node18&#45;&gt;Node19 -->
<g id="edge29" class="edge">
<title>Node18&#45;&gt;Node19</title>
<path fill="none" stroke="midnightblue" d="M315.4,-224.37C361.16,-205.01 472.12,-158.06 525.44,-135.51"/>
<polygon fill="midnightblue" stroke="midnightblue" points="526.85,-138.71 534.69,-131.59 524.12,-132.26 526.85,-138.71"/>
</g>
<!-- Node20&#45;&gt;Node7 -->
<g id="edge36" class="edge">
<title>Node20&#45;&gt;Node7</title>
<path fill="none" stroke="midnightblue" d="M600.47,-224.46C525.36,-204.74 339.91,-156.05 256.2,-134.08"/>
<polygon fill="midnightblue" stroke="midnightblue" points="257.07,-130.69 246.51,-131.53 255.29,-137.46 257.07,-130.69"/>
</g>
<!-- Node20&#45;&gt;Node8 -->
<g id="edge37" class="edge">
<title>Node20&#45;&gt;Node8</title>
<path fill="none" stroke="midnightblue" d="M613.62,-224.37C570.33,-205.09 465.61,-158.45 414.72,-135.79"/>
<polygon fill="midnightblue" stroke="midnightblue" points="415.85,-132.46 405.29,-131.59 413,-138.86 415.85,-132.46"/>
</g>
<!-- Node20&#45;&gt;Node13 -->
<g id="edge38" class="edge">
<title>Node20&#45;&gt;Node13</title>
<path fill="none" stroke="midnightblue" d="M632.67,-224.08C632.41,-217.01 632.03,-206.86 631.7,-197.99"/>
<polygon fill="midnightblue" stroke="midnightblue" points="635.19,-197.61 631.32,-187.75 628.2,-197.87 635.19,-197.61"/>
</g>
<!-- Node21 -->
<g id="node21" class="node">
<title>Node21</title>
<g id="a_node21"><a xlink:href="timedependentparameter_8hpp.html" target="_top" xlink:title="MODEL::TimeDependentParameter source file.">
<polygon fill="none" stroke="black" points="792,-168.5 792,-187.5 934,-187.5 934,-168.5 792,-168.5"/>
<text text-anchor="middle" x="863" y="-175.5" font-family="Helvetica,sans-Serif" font-size="10.00">timedependentparameter.hpp</text>
</a>
</g>
</g>
<!-- Node20&#45;&gt;Node21 -->
<g id="edge39" class="edge">
<title>Node20&#45;&gt;Node21</title>
<path fill="none" stroke="midnightblue" d="M669.44,-224.44C709.4,-215.06 773.59,-199.99 816.98,-189.8"/>
<polygon fill="midnightblue" stroke="midnightblue" points="817.79,-193.21 826.73,-187.52 816.19,-186.39 817.79,-193.21"/>
</g>
<!-- Node21&#45;&gt;Node14 -->
<g id="edge41" class="edge">
<title>Node21&#45;&gt;Node14</title>
<path fill="none" stroke="midnightblue" d="M848.08,-168.22C835.33,-160.11 817.17,-147.08 805,-132 779.13,-99.94 761.33,-54.44 752.79,-29.36"/>
<polygon fill="midnightblue" stroke="midnightblue" points="756.05,-28.09 749.61,-19.68 749.4,-30.27 756.05,-28.09"/>
</g>
<!-- Node21&#45;&gt;Node17 -->
<g id="edge43" class="edge">
<title>Node21&#45;&gt;Node17</title>
<path fill="none" stroke="midnightblue" d="M865.98,-168.37C872.14,-150.54 886.39,-109.3 894.69,-85.27"/>
<polygon fill="midnightblue" stroke="midnightblue" points="898.07,-86.19 898.03,-75.59 891.46,-83.9 898.07,-86.19"/>
</g>
<!-- Node21&#45;&gt;Node19 -->
<g id="edge40" class="edge">
<title>Node21&#45;&gt;Node19</title>
<path fill="none" stroke="midnightblue" d="M814.2,-168.44C751.06,-157.37 642.75,-138.38 588.3,-128.84"/>
<polygon fill="midnightblue" stroke="midnightblue" points="588.62,-125.34 578.16,-127.06 587.41,-132.24 588.62,-125.34"/>
</g>
<!-- Node22 -->
<g id="node22" class="node">
<title>Node22</title>
<g id="a_node22"><a xlink:title=" ">
<polygon fill="none" stroke="#bfbfbf" points="905.5,-112.5 905.5,-131.5 956.5,-131.5 956.5,-112.5 905.5,-112.5"/>
<text text-anchor="middle" x="931" y="-119.5" font-family="Helvetica,sans-Serif" font-size="10.00">numeric</text>
</a>
</g>
</g>
<!-- Node21&#45;&gt;Node22 -->
<g id="edge42" class="edge">
<title>Node21&#45;&gt;Node22</title>
<path fill="none" stroke="midnightblue" d="M873.93,-168.32C884.17,-160.18 899.72,-147.84 912,-138.09"/>
<polygon fill="midnightblue" stroke="midnightblue" points="914.22,-140.79 919.88,-131.83 909.87,-135.31 914.22,-140.79"/>
</g>
<!-- Node23&#45;&gt;Node7 -->
<g id="edge45" class="edge">
<title>Node23&#45;&gt;Node7</title>
<path fill="none" stroke="midnightblue" d="M721.3,-224.46C621.91,-204.58 375.31,-155.26 266.74,-133.55"/>
<polygon fill="midnightblue" stroke="midnightblue" points="267.16,-130.06 256.67,-131.53 265.79,-136.93 267.16,-130.06"/>
</g>
<!-- Node23&#45;&gt;Node8 -->
<g id="edge46" class="edge">
<title>Node23&#45;&gt;Node8</title>
<path fill="none" stroke="midnightblue" d="M754.58,-224.39C738.41,-210.13 703.72,-181.82 669,-168 603.16,-141.79 522.97,-130.81 464.78,-126.24"/>
<polygon fill="midnightblue" stroke="midnightblue" points="464.78,-122.73 454.55,-125.48 464.26,-129.71 464.78,-122.73"/>
</g>
<!-- Node23&#45;&gt;Node13 -->
<g id="edge47" class="edge">
<title>Node23&#45;&gt;Node13</title>
<path fill="none" stroke="midnightblue" d="M742.93,-224.44C720.94,-215.52 686.27,-201.44 661.34,-191.32"/>
<polygon fill="midnightblue" stroke="midnightblue" points="662.56,-188.04 651.98,-187.52 659.92,-194.52 662.56,-188.04"/>
</g>
<!-- Node23&#45;&gt;Node21 -->
<g id="edge48" class="edge">
<title>Node23&#45;&gt;Node21</title>
<path fill="none" stroke="midnightblue" d="M779.91,-224.32C795.64,-215.74 819.94,-202.49 838.21,-192.52"/>
<polygon fill="midnightblue" stroke="midnightblue" points="840.03,-195.52 847.13,-187.65 836.68,-189.37 840.03,-195.52"/>
</g>
<!-- Node24&#45;&gt;Node7 -->
<g id="edge50" class="edge">
<title>Node24&#45;&gt;Node7</title>
<path fill="none" stroke="midnightblue" d="M137.51,-224.37C151.27,-206.14 183.5,-163.43 201.42,-139.68"/>
<polygon fill="midnightblue" stroke="midnightblue" points="204.29,-141.68 207.52,-131.59 198.7,-137.47 204.29,-141.68"/>
</g>
<!-- Node24&#45;&gt;Node8 -->
<g id="edge51" class="edge">
<title>Node24&#45;&gt;Node8</title>
<path fill="none" stroke="midnightblue" d="M142.97,-224.34C162.19,-210.76 201.49,-184.33 238,-168 270.71,-153.37 309.52,-141.77 339.19,-134.01"/>
<polygon fill="midnightblue" stroke="midnightblue" points="340.07,-137.4 348.88,-131.53 338.33,-130.62 340.07,-137.4"/>
</g>
<!-- Node24&#45;&gt;Node13 -->
<g id="edge52" class="edge">
<title>Node24&#45;&gt;Node13</title>
<path fill="none" stroke="midnightblue" d="M178.04,-227.92C276.14,-217.33 500.96,-193.04 591.83,-183.23"/>
<polygon fill="midnightblue" stroke="midnightblue" points="592.41,-186.69 601.97,-182.13 591.66,-179.73 592.41,-186.69"/>
</g>
<!-- Node25&#45;&gt;Node7 -->
<g id="edge54" class="edge">
<title>Node25&#45;&gt;Node7</title>
<path fill="none" stroke="midnightblue" d="M860.43,-224.4C803.08,-207.17 678.6,-169.88 669,-168 659.85,-166.21 418.98,-142.8 291.5,-130.48"/>
<polygon fill="midnightblue" stroke="midnightblue" points="291.69,-126.98 281.4,-129.5 291.01,-133.95 291.69,-126.98"/>
</g>
<!-- Node25&#45;&gt;Node8 -->
<g id="edge55" class="edge">
<title>Node25&#45;&gt;Node8</title>
<path fill="none" stroke="midnightblue" d="M868.19,-224.41C846.75,-215.51 812.41,-201.08 783,-188 763.74,-179.44 760.25,-173.84 740,-168 689.92,-153.55 552.74,-138.65 464.59,-130.14"/>
<polygon fill="midnightblue" stroke="midnightblue" points="464.91,-126.66 454.62,-129.19 464.25,-133.63 464.91,-126.66"/>
</g>
<!-- Node25&#45;&gt;Node13 -->
<g id="edge56" class="edge">
<title>Node25&#45;&gt;Node13</title>
<path fill="none" stroke="midnightblue" d="M848.12,-224.44C799.27,-214.22 718.14,-197.24 670.09,-187.18"/>
<polygon fill="midnightblue" stroke="midnightblue" points="670.58,-183.71 660.08,-185.09 669.15,-190.56 670.58,-183.71"/>
</g>
<!-- Node25&#45;&gt;Node21 -->
<g id="edge57" class="edge">
<title>Node25&#45;&gt;Node21</title>
<path fill="none" stroke="midnightblue" d="M884.71,-224.08C881.15,-216.69 875.98,-205.95 871.58,-196.81"/>
<polygon fill="midnightblue" stroke="midnightblue" points="874.71,-195.24 867.21,-187.75 868.4,-198.28 874.71,-195.24"/>
</g>
<!-- Node26&#45;&gt;Node7 -->
<g id="edge59" class="edge">
<title>Node26&#45;&gt;Node7</title>
<path fill="none" stroke="midnightblue" d="M480.32,-224.37C429.25,-204.93 305.1,-157.67 246.13,-135.23"/>
<polygon fill="midnightblue" stroke="midnightblue" points="247.16,-131.88 236.57,-131.59 244.67,-138.42 247.16,-131.88"/>
</g>
<!-- Node26&#45;&gt;Node8 -->
<g id="edge60" class="edge">
<title>Node26&#45;&gt;Node8</title>
<path fill="none" stroke="midnightblue" d="M493.82,-224.37C474.17,-205.89 427.79,-162.29 402.75,-138.74"/>
<polygon fill="midnightblue" stroke="midnightblue" points="404.82,-135.89 395.14,-131.59 400.03,-140.99 404.82,-135.89"/>
</g>
<!-- Node26&#45;&gt;Node13 -->
<g id="edge61" class="edge">
<title>Node26&#45;&gt;Node13</title>
<path fill="none" stroke="midnightblue" d="M523.28,-224.44C544.35,-215.56 577.52,-201.56 601.49,-191.45"/>
<polygon fill="midnightblue" stroke="midnightblue" points="602.96,-194.63 610.81,-187.52 600.24,-188.18 602.96,-194.63"/>
</g>
<!-- Node26&#45;&gt;Node21 -->
<g id="edge62" class="edge">
<title>Node26&#45;&gt;Node21</title>
<path fill="none" stroke="midnightblue" d="M560.04,-224.44C624.16,-214.83 728.15,-199.23 796.06,-189.04"/>
<polygon fill="midnightblue" stroke="midnightblue" points="796.85,-192.46 806.22,-187.52 795.82,-185.54 796.85,-192.46"/>
</g>
</g>
</svg>
