<?xml version="1.0" encoding="UTF-8" standalone="no"?>
<!DOCTYPE svg PUBLIC "-//W3C//DTD SVG 1.1//EN"
 "http://www.w3.org/Graphics/SVG/1.1/DTD/svg11.dtd">
<!-- Generated by graphviz version 3.0.0 (20220413.0242)
 -->
<!-- Title: algebra/integrator.hpp Pages: 1 -->
<svg width="811pt" height="364pt"
 viewBox="0.00 0.00 810.61 364.00" xmlns="http://www.w3.org/2000/svg" xmlns:xlink="http://www.w3.org/1999/xlink">
<g id="graph0" class="graph" transform="scale(1 1) rotate(0) translate(4 360)">
<title>algebra/integrator.hpp</title>
<!-- Node1 -->
<g id="node1" class="node">
<title>Node1</title>
<g id="a_node1"><a xlink:title="ALGEBRA::Integrator source file.">
<polygon fill="#bfbfbf" stroke="black" points="397,-336.5 397,-355.5 507,-355.5 507,-336.5 397,-336.5"/>
<text text-anchor="middle" x="452" y="-343.5" font-family="Helvetica,sans-Serif" font-size="10.00">algebra/integrator.hpp</text>
</a>
</g>
</g>
<!-- Node2 -->
<g id="node2" class="node">
<title>Node2</title>
<g id="a_node2"><a xlink:title=" ">
<polygon fill="none" stroke="#bfbfbf" points="33.5,-56.5 33.5,-75.5 104.5,-75.5 104.5,-56.5 33.5,-56.5"/>
<text text-anchor="middle" x="69" y="-63.5" font-family="Helvetica,sans-Serif" font-size="10.00">Eigen/Dense</text>
</a>
</g>
</g>
<!-- Node1&#45;&gt;Node2 -->
<g id="edge1" class="edge">
<title>Node1&#45;&gt;Node2</title>
<path fill="none" stroke="midnightblue" d="M396.58,-343.11C275.88,-337.47 0,-315.76 0,-235 0,-235 0,-235 0,-177 0,-138.39 30.88,-102.21 51.33,-82.49"/>
<polygon fill="midnightblue" stroke="midnightblue" points="53.87,-84.9 58.82,-75.54 49.11,-79.77 53.87,-84.9"/>
</g>
<!-- Node3 -->
<g id="node3" class="node">
<title>Node3</title>
<g id="a_node3"><a xlink:href="model_8hpp.html" target="_top" xlink:title="MODEL::Model source file.">
<polygon fill="none" stroke="black" points="403,-280.5 403,-299.5 501,-299.5 501,-280.5 403,-280.5"/>
<text text-anchor="middle" x="452" y="-287.5" font-family="Helvetica,sans-Serif" font-size="10.00">../model/model.hpp</text>
</a>
</g>
</g>
<!-- Node1&#45;&gt;Node3 -->
<g id="edge2" class="edge">
<title>Node1&#45;&gt;Node3</title>
<path fill="none" stroke="midnightblue" d="M452,-336.08C452,-329.01 452,-318.86 452,-309.99"/>
<polygon fill="midnightblue" stroke="midnightblue" points="455.5,-309.75 452,-299.75 448.5,-309.75 455.5,-309.75"/>
</g>
<!-- Node23 -->
<g id="node23" class="node">
<title>Node23</title>
<g id="a_node23"><a xlink:href="state_8hpp.html" target="_top" xlink:title="ALGEBRA::State source file.">
<polygon fill="none" stroke="black" points="519,-280.5 519,-299.5 575,-299.5 575,-280.5 519,-280.5"/>
<text text-anchor="middle" x="547" y="-287.5" font-family="Helvetica,sans-Serif" font-size="10.00">state.hpp</text>
</a>
</g>
</g>
<!-- Node1&#45;&gt;Node23 -->
<g id="edge45" class="edge">
<title>Node1&#45;&gt;Node23</title>
<path fill="none" stroke="midnightblue" d="M467.26,-336.32C482.22,-327.82 505.25,-314.73 522.73,-304.8"/>
<polygon fill="midnightblue" stroke="midnightblue" points="524.81,-307.64 531.77,-299.65 521.35,-301.55 524.81,-307.64"/>
</g>
<!-- Node4 -->
<g id="node4" class="node">
<title>Node4</title>
<g id="a_node4"><a xlink:title=" ">
<polygon fill="none" stroke="#bfbfbf" points="577.5,-112.5 577.5,-131.5 612.5,-131.5 612.5,-112.5 577.5,-112.5"/>
<text text-anchor="middle" x="595" y="-119.5" font-family="Helvetica,sans-Serif" font-size="10.00">map</text>
</a>
</g>
</g>
<!-- Node3&#45;&gt;Node4 -->
<g id="edge3" class="edge">
<title>Node3&#45;&gt;Node4</title>
<path fill="none" stroke="midnightblue" d="M488.47,-280.44C521.42,-271.95 566.45,-258.18 578,-244 601.81,-214.78 600.76,-167.82 597.88,-141.83"/>
<polygon fill="midnightblue" stroke="midnightblue" points="601.34,-141.25 596.56,-131.8 594.4,-142.17 601.34,-141.25"/>
</g>
<!-- Node5 -->
<g id="node5" class="node">
<title>Node5</title>
<g id="a_node5"><a xlink:title=" ">
<polygon fill="none" stroke="#bfbfbf" points="646.5,-224.5 646.5,-243.5 675.5,-243.5 675.5,-224.5 646.5,-224.5"/>
<text text-anchor="middle" x="661" y="-231.5" font-family="Helvetica,sans-Serif" font-size="10.00">list</text>
</a>
</g>
</g>
<!-- Node3&#45;&gt;Node5 -->
<g id="edge4" class="edge">
<title>Node3&#45;&gt;Node5</title>
<path fill="none" stroke="midnightblue" d="M488.7,-280.46C525.19,-271.82 582.68,-257.81 632,-244 633.46,-243.59 634.96,-243.16 636.47,-242.72"/>
<polygon fill="midnightblue" stroke="midnightblue" points="637.74,-245.99 646.29,-239.74 635.71,-239.29 637.74,-245.99"/>
</g>
<!-- Node6 -->
<g id="node6" class="node">
<title>Node6</title>
<g id="a_node6"><a xlink:title=" ">
<polygon fill="none" stroke="#bfbfbf" points="694,-224.5 694,-243.5 740,-243.5 740,-224.5 694,-224.5"/>
<text text-anchor="middle" x="717" y="-231.5" font-family="Helvetica,sans-Serif" font-size="10.00">variant</text>
</a>
</g>
</g>
<!-- Node3&#45;&gt;Node6 -->
<g id="edge5" class="edge">
<title>Node3&#45;&gt;Node6</title>
<path fill="none" stroke="midnightblue" d="M501.35,-280.7C546.46,-272.84 615.24,-260.16 683.87,-244.11"/>
<polygon fill="midnightblue" stroke="midnightblue" points="685.06,-247.43 693.99,-241.72 683.45,-240.61 685.06,-247.43"/>
</g>
<!-- Node7 -->
<g id="node7" class="node">
<title>Node7</title>
<g id="a_node7"><a xlink:href="densesystem_8hpp.html" target="_top" xlink:title="ALGEBRA::DenseSystem source file.">
<polygon fill="none" stroke="black" points="116,-112.5 116,-131.5 250,-131.5 250,-112.5 116,-112.5"/>
<text text-anchor="middle" x="183" y="-119.5" font-family="Helvetica,sans-Serif" font-size="10.00">../algebra/densesystem.hpp</text>
</a>
</g>
</g>
<!-- Node3&#45;&gt;Node7 -->
<g id="edge6" class="edge">
<title>Node3&#45;&gt;Node7</title>
<path fill="none" stroke="midnightblue" d="M402.65,-286.62C306.39,-281.46 101.06,-267.76 80,-244 45.88,-205.5 116.12,-158.89 156.79,-136.41"/>
<polygon fill="midnightblue" stroke="midnightblue" points="158.55,-139.44 165.69,-131.61 155.22,-133.27 158.55,-139.44"/>
</g>
<!-- Node8 -->
<g id="node8" class="node">
<title>Node8</title>
<g id="a_node8"><a xlink:href="sparsesystem_8hpp.html" target="_top" xlink:title="ALGEBRA::SparseSystem source file.">
<polygon fill="none" stroke="black" points="268.5,-112.5 268.5,-131.5 405.5,-131.5 405.5,-112.5 268.5,-112.5"/>
<text text-anchor="middle" x="337" y="-119.5" font-family="Helvetica,sans-Serif" font-size="10.00">../algebra/sparsesystem.hpp</text>
</a>
</g>
</g>
<!-- Node3&#45;&gt;Node8 -->
<g id="edge8" class="edge">
<title>Node3&#45;&gt;Node8</title>
<path fill="none" stroke="midnightblue" d="M402.85,-286.36C309.72,-280.85 115.04,-266.72 95,-244 40.65,-182.37 173.59,-148.46 263.23,-133.17"/>
<polygon fill="midnightblue" stroke="midnightblue" points="263.83,-136.62 273.12,-131.53 262.68,-129.72 263.83,-136.62"/>
</g>
<!-- Node11 -->
<g id="node11" class="node">
<title>Node11</title>
<g id="a_node11"><a xlink:href="junction_8hpp.html" target="_top" xlink:title="MODEL::Junction source file.">
<polygon fill="none" stroke="black" points="270,-224.5 270,-243.5 338,-243.5 338,-224.5 270,-224.5"/>
<text text-anchor="middle" x="304" y="-231.5" font-family="Helvetica,sans-Serif" font-size="10.00">junction.hpp</text>
</a>
</g>
</g>
<!-- Node3&#45;&gt;Node11 -->
<g id="edge11" class="edge">
<title>Node3&#45;&gt;Node11</title>
<path fill="none" stroke="midnightblue" d="M428.55,-280.44C403.87,-271.44 364.81,-257.19 337.02,-247.05"/>
<polygon fill="midnightblue" stroke="midnightblue" points="337.94,-243.66 327.34,-243.52 335.54,-250.23 337.94,-243.66"/>
</g>
<!-- Node14 -->
<g id="node14" class="node">
<title>Node14</title>
<g id="a_node14"><a xlink:href="node_8hpp.html" target="_top" xlink:title="MODEL::Node source file.">
<polygon fill="none" stroke="black" points="465,-112.5 465,-131.5 521,-131.5 521,-112.5 465,-112.5"/>
<text text-anchor="middle" x="493" y="-119.5" font-family="Helvetica,sans-Serif" font-size="10.00">node.hpp</text>
</a>
</g>
</g>
<!-- Node3&#45;&gt;Node14 -->
<g id="edge44" class="edge">
<title>Node3&#45;&gt;Node14</title>
<path fill="none" stroke="midnightblue" d="M501.16,-281.37C523.36,-275.21 547.57,-264.08 561,-244 585.41,-207.52 540.65,-161.69 512.8,-138.29"/>
<polygon fill="midnightblue" stroke="midnightblue" points="514.76,-135.37 504.8,-131.78 510.35,-140.8 514.76,-135.37"/>
</g>
<!-- Node16 -->
<g id="node16" class="node">
<title>Node16</title>
<g id="a_node16"><a xlink:href="dofhandler_8hpp.html" target="_top" xlink:title="MODEL::DOFHandler source file.">
<polygon fill="none" stroke="black" points="509,-56.5 509,-75.5 589,-75.5 589,-56.5 509,-56.5"/>
<text text-anchor="middle" x="549" y="-63.5" font-family="Helvetica,sans-Serif" font-size="10.00">dofhandler.hpp</text>
</a>
</g>
</g>
<!-- Node3&#45;&gt;Node16 -->
<g id="edge43" class="edge">
<title>Node3&#45;&gt;Node16</title>
<path fill="none" stroke="midnightblue" d="M501.05,-281.37C504.08,-280.91 507.08,-280.45 510,-280 642.41,-259.75 750.53,-313.63 797,-188 809.34,-154.65 799.76,-134.22 772,-112 745.89,-91.1 656.76,-78.16 599.39,-71.8"/>
<polygon fill="midnightblue" stroke="midnightblue" points="599.74,-68.31 589.43,-70.72 598.99,-75.27 599.74,-68.31"/>
</g>
<!-- Node17 -->
<g id="node17" class="node">
<title>Node17</title>
<g id="a_node17"><a xlink:href="bloodvessel_8hpp.html" target="_top" xlink:title="MODEL::BloodVessel source file.">
<polygon fill="none" stroke="black" points="356,-224.5 356,-243.5 442,-243.5 442,-224.5 356,-224.5"/>
<text text-anchor="middle" x="399" y="-231.5" font-family="Helvetica,sans-Serif" font-size="10.00">bloodvessel.hpp</text>
</a>
</g>
</g>
<!-- Node3&#45;&gt;Node17 -->
<g id="edge25" class="edge">
<title>Node3&#45;&gt;Node17</title>
<path fill="none" stroke="midnightblue" d="M443.25,-280.08C435.53,-272.22 424.1,-260.57 414.78,-251.08"/>
<polygon fill="midnightblue" stroke="midnightblue" points="417.09,-248.44 407.59,-243.75 412.1,-253.34 417.09,-248.44"/>
</g>
<!-- Node19 -->
<g id="node19" class="node">
<title>Node19</title>
<g id="a_node19"><a xlink:href="rcrblockwithdistalpressure_8hpp.html" target="_top" xlink:title="MODEL::RCRBlockWithDistalPressure source file.">
<polygon fill="none" stroke="black" points="104,-224.5 104,-243.5 252,-243.5 252,-224.5 104,-224.5"/>
<text text-anchor="middle" x="178" y="-231.5" font-family="Helvetica,sans-Serif" font-size="10.00">rcrblockwithdistalpressure.hpp</text>
</a>
</g>
</g>
<!-- Node3&#45;&gt;Node19 -->
<g id="edge30" class="edge">
<title>Node3&#45;&gt;Node19</title>
<path fill="none" stroke="midnightblue" d="M408.58,-280.44C360.48,-270.96 282.91,-255.67 231.19,-245.48"/>
<polygon fill="midnightblue" stroke="midnightblue" points="231.7,-242.02 221.21,-243.52 230.35,-248.88 231.7,-242.02"/>
</g>
<!-- Node20 -->
<g id="node20" class="node">
<title>Node20</title>
<g id="a_node20"><a xlink:href="flowreference_8hpp.html" target="_top" xlink:title="MODEL::FlowReference source file.">
<polygon fill="none" stroke="black" points="460,-224.5 460,-243.5 552,-243.5 552,-224.5 460,-224.5"/>
<text text-anchor="middle" x="506" y="-231.5" font-family="Helvetica,sans-Serif" font-size="10.00">flowreference.hpp</text>
</a>
</g>
</g>
<!-- Node3&#45;&gt;Node20 -->
<g id="edge34" class="edge">
<title>Node3&#45;&gt;Node20</title>
<path fill="none" stroke="midnightblue" d="M460.92,-280.08C468.78,-272.22 480.43,-260.57 489.92,-251.08"/>
<polygon fill="midnightblue" stroke="midnightblue" points="492.65,-253.3 497.25,-243.75 487.7,-248.35 492.65,-253.3"/>
</g>
<!-- Node7&#45;&gt;Node2 -->
<g id="edge7" class="edge">
<title>Node7&#45;&gt;Node2</title>
<path fill="none" stroke="midnightblue" d="M164.94,-112.44C146.43,-103.68 117.42,-89.94 96.14,-79.86"/>
<polygon fill="midnightblue" stroke="midnightblue" points="97.51,-76.63 86.98,-75.52 94.52,-82.96 97.51,-76.63"/>
</g>
<!-- Node9 -->
<g id="node9" class="node">
<title>Node9</title>
<g id="a_node9"><a xlink:title=" ">
<polygon fill="none" stroke="#bfbfbf" points="300,-56.5 300,-75.5 374,-75.5 374,-56.5 300,-56.5"/>
<text text-anchor="middle" x="337" y="-63.5" font-family="Helvetica,sans-Serif" font-size="10.00">Eigen/Sparse</text>
</a>
</g>
</g>
<!-- Node8&#45;&gt;Node9 -->
<g id="edge9" class="edge">
<title>Node8&#45;&gt;Node9</title>
<path fill="none" stroke="midnightblue" d="M337,-112.08C337,-105.01 337,-94.86 337,-85.99"/>
<polygon fill="midnightblue" stroke="midnightblue" points="340.5,-85.75 337,-75.75 333.5,-85.75 340.5,-85.75"/>
</g>
<!-- Node10 -->
<g id="node10" class="node">
<title>Node10</title>
<g id="a_node10"><a xlink:title=" ">
<polygon fill="none" stroke="#bfbfbf" points="194,-56.5 194,-75.5 282,-75.5 282,-56.5 194,-56.5"/>
<text text-anchor="middle" x="238" y="-63.5" font-family="Helvetica,sans-Serif" font-size="10.00">Eigen/SparseLU</text>
</a>
</g>
</g>
<!-- Node8&#45;&gt;Node10 -->
<g id="edge10" class="edge">
<title>Node8&#45;&gt;Node10</title>
<path fill="none" stroke="midnightblue" d="M321.09,-112.32C305.36,-103.74 281.06,-90.49 262.79,-80.52"/>
<polygon fill="midnightblue" stroke="midnightblue" points="264.32,-77.37 253.87,-75.65 260.97,-83.52 264.32,-77.37"/>
</g>
<!-- Node11&#45;&gt;Node7 -->
<g id="edge12" class="edge">
<title>Node11&#45;&gt;Node7</title>
<path fill="none" stroke="midnightblue" d="M275.06,-224.39C255.45,-217.31 230.09,-205.55 213,-188 200.29,-174.94 192.3,-155.52 187.79,-141.31"/>
<polygon fill="midnightblue" stroke="midnightblue" points="191.14,-140.28 185,-131.64 184.41,-142.22 191.14,-140.28"/>
</g>
<!-- Node11&#45;&gt;Node8 -->
<g id="edge13" class="edge">
<title>Node11&#45;&gt;Node8</title>
<path fill="none" stroke="midnightblue" d="M306.59,-224.37C311.94,-206.54 324.31,-165.3 331.52,-141.27"/>
<polygon fill="midnightblue" stroke="midnightblue" points="334.9,-142.18 334.42,-131.59 328.2,-140.16 334.9,-142.18"/>
</g>
<!-- Node12 -->
<g id="node12" class="node">
<title>Node12</title>
<g id="a_node12"><a xlink:href="block_8hpp.html" target="_top" xlink:title="MODEL::Block source file.">
<polygon fill="none" stroke="black" points="408,-168.5 408,-187.5 466,-187.5 466,-168.5 408,-168.5"/>
<text text-anchor="middle" x="437" y="-175.5" font-family="Helvetica,sans-Serif" font-size="10.00">block.hpp</text>
</a>
</g>
</g>
<!-- Node11&#45;&gt;Node12 -->
<g id="edge14" class="edge">
<title>Node11&#45;&gt;Node12</title>
<path fill="none" stroke="midnightblue" d="M325.07,-224.44C347.06,-215.52 381.73,-201.44 406.66,-191.32"/>
<polygon fill="midnightblue" stroke="midnightblue" points="408.08,-194.52 416.02,-187.52 405.44,-188.04 408.08,-194.52"/>
</g>
<!-- Node12&#45;&gt;Node4 -->
<g id="edge16" class="edge">
<title>Node12&#45;&gt;Node4</title>
<path fill="none" stroke="midnightblue" d="M462.04,-168.44C490.84,-158.6 537.96,-142.49 567.69,-132.33"/>
<polygon fill="midnightblue" stroke="midnightblue" points="569.09,-135.55 577.42,-129.01 566.83,-128.93 569.09,-135.55"/>
</g>
<!-- Node12&#45;&gt;Node7 -->
<g id="edge23" class="edge">
<title>Node12&#45;&gt;Node7</title>
<path fill="none" stroke="midnightblue" d="M407.86,-170.81C365.23,-161.74 285.26,-144.74 233.08,-133.65"/>
<polygon fill="midnightblue" stroke="midnightblue" points="233.54,-130.17 223.03,-131.51 232.09,-137.01 233.54,-130.17"/>
</g>
<!-- Node12&#45;&gt;Node8 -->
<g id="edge24" class="edge">
<title>Node12&#45;&gt;Node8</title>
<path fill="none" stroke="midnightblue" d="M420.93,-168.32C405.04,-159.74 380.49,-146.49 362.04,-136.52"/>
<polygon fill="midnightblue" stroke="midnightblue" points="363.49,-133.33 353.03,-131.65 360.16,-139.49 363.49,-133.33"/>
</g>
<!-- Node13 -->
<g id="node13" class="node">
<title>Node13</title>
<g id="a_node13"><a xlink:title=" ">
<polygon fill="none" stroke="#bfbfbf" points="527,-0.5 527,-19.5 571,-19.5 571,-0.5 527,-0.5"/>
<text text-anchor="middle" x="549" y="-7.5" font-family="Helvetica,sans-Serif" font-size="10.00">vector</text>
</a>
</g>
</g>
<!-- Node12&#45;&gt;Node13 -->
<g id="edge15" class="edge">
<title>Node12&#45;&gt;Node13</title>
<path fill="none" stroke="midnightblue" d="M438.47,-168.19C440.86,-155.31 446.32,-130.82 456,-112 474.29,-76.45 508.54,-44.12 529.98,-26.06"/>
<polygon fill="midnightblue" stroke="midnightblue" points="532.28,-28.7 537.77,-19.65 527.83,-23.3 532.28,-28.7"/>
</g>
<!-- Node12&#45;&gt;Node14 -->
<g id="edge17" class="edge">
<title>Node12&#45;&gt;Node14</title>
<path fill="none" stroke="midnightblue" d="M446,-168.32C454.19,-160.42 466.51,-148.55 476.47,-138.94"/>
<polygon fill="midnightblue" stroke="midnightblue" points="479.07,-141.29 483.84,-131.83 474.21,-136.26 479.07,-141.29"/>
</g>
<!-- Node12&#45;&gt;Node16 -->
<g id="edge22" class="edge">
<title>Node12&#45;&gt;Node16</title>
<path fill="none" stroke="midnightblue" d="M466.11,-169.74C486.73,-163.16 513.55,-151.44 530,-132 541.03,-118.97 545.66,-99.81 547.6,-85.67"/>
<polygon fill="midnightblue" stroke="midnightblue" points="551.09,-85.92 548.65,-75.61 544.13,-85.19 551.09,-85.92"/>
</g>
<!-- Node15 -->
<g id="node15" class="node">
<title>Node15</title>
<g id="a_node15"><a xlink:title=" ">
<polygon fill="none" stroke="#bfbfbf" points="426.5,-0.5 426.5,-19.5 467.5,-19.5 467.5,-0.5 426.5,-0.5"/>
<text text-anchor="middle" x="447" y="-7.5" font-family="Helvetica,sans-Serif" font-size="10.00">string</text>
</a>
</g>
</g>
<!-- Node14&#45;&gt;Node15 -->
<g id="edge18" class="edge">
<title>Node14&#45;&gt;Node15</title>
<path fill="none" stroke="midnightblue" d="M489.39,-112.37C481.9,-94.46 464.53,-52.92 454.51,-28.95"/>
<polygon fill="midnightblue" stroke="midnightblue" points="457.68,-27.47 450.59,-19.59 451.22,-30.17 457.68,-27.47"/>
</g>
<!-- Node14&#45;&gt;Node16 -->
<g id="edge19" class="edge">
<title>Node14&#45;&gt;Node16</title>
<path fill="none" stroke="midnightblue" d="M502,-112.32C510.19,-104.42 522.51,-92.55 532.47,-82.94"/>
<polygon fill="midnightblue" stroke="midnightblue" points="535.07,-85.29 539.84,-75.83 530.21,-80.26 535.07,-85.29"/>
</g>
<!-- Node16&#45;&gt;Node13 -->
<g id="edge20" class="edge">
<title>Node16&#45;&gt;Node13</title>
<path fill="none" stroke="midnightblue" d="M549,-56.08C549,-49.01 549,-38.86 549,-29.99"/>
<polygon fill="midnightblue" stroke="midnightblue" points="552.5,-29.75 549,-19.75 545.5,-29.75 552.5,-29.75"/>
</g>
<!-- Node16&#45;&gt;Node15 -->
<g id="edge21" class="edge">
<title>Node16&#45;&gt;Node15</title>
<path fill="none" stroke="midnightblue" d="M532.61,-56.32C516.33,-47.7 491.13,-34.36 472.28,-24.39"/>
<polygon fill="midnightblue" stroke="midnightblue" points="473.82,-21.24 463.35,-19.65 470.55,-27.43 473.82,-21.24"/>
</g>
<!-- Node17&#45;&gt;Node7 -->
<g id="edge28" class="edge">
<title>Node17&#45;&gt;Node7</title>
<path fill="none" stroke="midnightblue" d="M382.05,-224.37C344.43,-205.21 253.76,-159.04 208.95,-136.22"/>
<polygon fill="midnightblue" stroke="midnightblue" points="210.37,-133.01 199.87,-131.59 207.19,-139.25 210.37,-133.01"/>
</g>
<!-- Node17&#45;&gt;Node8 -->
<g id="edge29" class="edge">
<title>Node17&#45;&gt;Node8</title>
<path fill="none" stroke="midnightblue" d="M394.13,-224.37C383.95,-206.3 360.21,-164.18 346.76,-140.31"/>
<polygon fill="midnightblue" stroke="midnightblue" points="349.8,-138.58 341.84,-131.59 343.7,-142.02 349.8,-138.58"/>
</g>
<!-- Node17&#45;&gt;Node12 -->
<g id="edge27" class="edge">
<title>Node17&#45;&gt;Node12</title>
<path fill="none" stroke="midnightblue" d="M405.27,-224.08C410.64,-216.46 418.52,-205.26 425.08,-195.94"/>
<polygon fill="midnightblue" stroke="midnightblue" points="427.95,-197.94 430.84,-187.75 422.22,-193.91 427.95,-197.94"/>
</g>
<!-- Node18 -->
<g id="node18" class="node">
<title>Node18</title>
<g id="a_node18"><a xlink:title=" ">
<polygon fill="none" stroke="#bfbfbf" points="631,-112.5 631,-131.5 677,-131.5 677,-112.5 631,-112.5"/>
<text text-anchor="middle" x="654" y="-119.5" font-family="Helvetica,sans-Serif" font-size="10.00">math.h</text>
</a>
</g>
</g>
<!-- Node17&#45;&gt;Node18 -->
<g id="edge26" class="edge">
<title>Node17&#45;&gt;Node18</title>
<path fill="none" stroke="midnightblue" d="M419.01,-224.37C463.79,-205.05 572.26,-158.26 624.68,-135.65"/>
<polygon fill="midnightblue" stroke="midnightblue" points="626.29,-138.77 634.08,-131.59 623.52,-132.34 626.29,-138.77"/>
</g>
<!-- Node19&#45;&gt;Node7 -->
<g id="edge31" class="edge">
<title>Node19&#45;&gt;Node7</title>
<path fill="none" stroke="midnightblue" d="M176.28,-224.15C174.08,-211.63 170.8,-188.03 173,-168 173.97,-159.14 175.99,-149.47 177.96,-141.38"/>
<polygon fill="midnightblue" stroke="midnightblue" points="181.39,-142.09 180.52,-131.53 174.62,-140.33 181.39,-142.09"/>
</g>
<!-- Node19&#45;&gt;Node8 -->
<g id="edge32" class="edge">
<title>Node19&#45;&gt;Node8</title>
<path fill="none" stroke="midnightblue" d="M190.48,-224.37C217.64,-205.57 282.41,-160.77 315.99,-137.53"/>
<polygon fill="midnightblue" stroke="midnightblue" points="318.35,-140.16 324.58,-131.59 314.37,-134.4 318.35,-140.16"/>
</g>
<!-- Node19&#45;&gt;Node12 -->
<g id="edge33" class="edge">
<title>Node19&#45;&gt;Node12</title>
<path fill="none" stroke="midnightblue" d="M219.04,-224.44C268.07,-214.22 349.52,-197.24 397.75,-187.18"/>
<polygon fill="midnightblue" stroke="midnightblue" points="398.73,-190.55 407.81,-185.09 397.3,-183.7 398.73,-190.55"/>
</g>
<!-- Node20&#45;&gt;Node7 -->
<g id="edge35" class="edge">
<title>Node20&#45;&gt;Node7</title>
<path fill="none" stroke="midnightblue" d="M480.92,-224.46C423.68,-204.97 283.3,-157.16 217.76,-134.84"/>
<polygon fill="midnightblue" stroke="midnightblue" points="218.88,-131.52 208.28,-131.61 216.62,-138.15 218.88,-131.52"/>
</g>
<!-- Node20&#45;&gt;Node8 -->
<g id="edge36" class="edge">
<title>Node20&#45;&gt;Node8</title>
<path fill="none" stroke="midnightblue" d="M504.13,-224.07C500.74,-210.12 492.29,-183.18 475,-168 455.86,-151.2 430.32,-140.65 406.42,-134.03"/>
<polygon fill="midnightblue" stroke="midnightblue" points="407.21,-130.62 396.66,-131.52 405.47,-137.4 407.21,-130.62"/>
</g>
<!-- Node20&#45;&gt;Node12 -->
<g id="edge37" class="edge">
<title>Node20&#45;&gt;Node12</title>
<path fill="none" stroke="midnightblue" d="M494.91,-224.32C484.51,-216.18 468.74,-203.84 456.28,-194.09"/>
<polygon fill="midnightblue" stroke="midnightblue" points="458.32,-191.24 448.29,-187.83 454.01,-196.75 458.32,-191.24"/>
</g>
<!-- Node21 -->
<g id="node21" class="node">
<title>Node21</title>
<g id="a_node21"><a xlink:href="timedependentparameter_8hpp.html" target="_top" xlink:title="MODEL::TimeDependentParameter source file.">
<polygon fill="none" stroke="black" points="646,-168.5 646,-187.5 788,-187.5 788,-168.5 646,-168.5"/>
<text text-anchor="middle" x="717" y="-175.5" font-family="Helvetica,sans-Serif" font-size="10.00">timedependentparameter.hpp</text>
</a>
</g>
</g>
<!-- Node20&#45;&gt;Node21 -->
<g id="edge38" class="edge">
<title>Node20&#45;&gt;Node21</title>
<path fill="none" stroke="midnightblue" d="M539.43,-224.44C575.86,-215.12 634.23,-200.18 674.03,-190"/>
<polygon fill="midnightblue" stroke="midnightblue" points="674.9,-193.39 683.72,-187.52 673.17,-186.61 674.9,-193.39"/>
</g>
<!-- Node21&#45;&gt;Node13 -->
<g id="edge40" class="edge">
<title>Node21&#45;&gt;Node13</title>
<path fill="none" stroke="midnightblue" d="M733.89,-168.33C754.82,-156.39 786.1,-133.86 772,-112 729.42,-45.97 632.06,-22.64 581.23,-14.77"/>
<polygon fill="midnightblue" stroke="midnightblue" points="581.53,-11.27 571.13,-13.31 580.53,-18.2 581.53,-11.27"/>
</g>
<!-- Node21&#45;&gt;Node16 -->
<g id="edge42" class="edge">
<title>Node21&#45;&gt;Node16</title>
<path fill="none" stroke="midnightblue" d="M728.93,-168.31C745.26,-155.36 770.95,-130.55 756,-112 736.7,-88.06 654.29,-76.19 599.45,-70.84"/>
<polygon fill="midnightblue" stroke="midnightblue" points="599.5,-67.33 589.22,-69.89 598.85,-74.3 599.5,-67.33"/>
</g>
<!-- Node21&#45;&gt;Node18 -->
<g id="edge39" class="edge">
<title>Node21&#45;&gt;Node18</title>
<path fill="none" stroke="midnightblue" d="M706.88,-168.32C697.47,-160.26 683.26,-148.08 671.93,-138.37"/>
<polygon fill="midnightblue" stroke="midnightblue" points="674.18,-135.68 664.31,-131.83 669.62,-141 674.18,-135.68"/>
</g>
<!-- Node22 -->
<g id="node22" class="node">
<title>Node22</title>
<g id="a_node22"><a xlink:title=" ">
<polygon fill="none" stroke="#bfbfbf" points="695.5,-112.5 695.5,-131.5 746.5,-131.5 746.5,-112.5 695.5,-112.5"/>
<text text-anchor="middle" x="721" y="-119.5" font-family="Helvetica,sans-Serif" font-size="10.00">numeric</text>
</a>
</g>
</g>
<!-- Node21&#45;&gt;Node22 -->
<g id="edge41" class="edge">
<title>Node21&#45;&gt;Node22</title>
<path fill="none" stroke="midnightblue" d="M717.66,-168.08C718.18,-161.01 718.94,-150.86 719.59,-141.99"/>
<polygon fill="midnightblue" stroke="midnightblue" points="723.1,-141.98 720.35,-131.75 716.12,-141.47 723.1,-141.98"/>
</g>
</g>
</svg>
