<?xml version="1.0" encoding="UTF-8" standalone="no"?>
<!DOCTYPE svg PUBLIC "-//W3C//DTD SVG 1.1//EN"
 "http://www.w3.org/Graphics/SVG/1.1/DTD/svg11.dtd">
<!-- Generated by graphviz version 3.0.0 (20220413.0242)
 -->
<!-- Title: algebra/integrator.hpp Pages: 1 -->
<svg width="1151pt" height="364pt"
 viewBox="0.00 0.00 1150.52 364.00" xmlns="http://www.w3.org/2000/svg" xmlns:xlink="http://www.w3.org/1999/xlink">
<g id="graph0" class="graph" transform="scale(1 1) rotate(0) translate(4 360)">
<title>algebra/integrator.hpp</title>
<!-- Node1 -->
<g id="node1" class="node">
<title>Node1</title>
<g id="a_node1"><a xlink:title="ALGEBRA::Integrator source file.">
<polygon fill="#bfbfbf" stroke="black" points="432,-336.5 432,-355.5 542,-355.5 542,-336.5 432,-336.5"/>
<text text-anchor="middle" x="487" y="-343.5" font-family="Helvetica,sans-Serif" font-size="10.00">algebra/integrator.hpp</text>
</a>
</g>
</g>
<!-- Node2 -->
<g id="node2" class="node">
<title>Node2</title>
<g id="a_node2"><a xlink:title=" ">
<polygon fill="none" stroke="#bfbfbf" points="74.5,-56.5 74.5,-75.5 145.5,-75.5 145.5,-56.5 74.5,-56.5"/>
<text text-anchor="middle" x="110" y="-63.5" font-family="Helvetica,sans-Serif" font-size="10.00">Eigen/Dense</text>
</a>
</g>
</g>
<!-- Node1&#45;&gt;Node2 -->
<g id="edge1" class="edge">
<title>Node1&#45;&gt;Node2</title>
<path fill="none" stroke="midnightblue" d="M431.61,-344.08C303.97,-340.47 0,-322.65 0,-235 0,-235 0,-235 0,-177 0,-130.91 48.88,-97.39 81.47,-80.16"/>
<polygon fill="midnightblue" stroke="midnightblue" points="83.25,-83.18 90.59,-75.54 80.09,-76.94 83.25,-83.18"/>
</g>
<!-- Node3 -->
<g id="node3" class="node">
<title>Node3</title>
<g id="a_node3"><a xlink:href="model_8hpp.html" target="_top" xlink:title="MODEL::Model source file.">
<polygon fill="none" stroke="black" points="438,-280.5 438,-299.5 536,-299.5 536,-280.5 438,-280.5"/>
<text text-anchor="middle" x="487" y="-287.5" font-family="Helvetica,sans-Serif" font-size="10.00">../model/model.hpp</text>
</a>
</g>
</g>
<!-- Node1&#45;&gt;Node3 -->
<g id="edge2" class="edge">
<title>Node1&#45;&gt;Node3</title>
<path fill="none" stroke="midnightblue" d="M487,-336.08C487,-329.01 487,-318.86 487,-309.99"/>
<polygon fill="midnightblue" stroke="midnightblue" points="490.5,-309.75 487,-299.75 483.5,-309.75 490.5,-309.75"/>
</g>
<!-- Node27 -->
<g id="node27" class="node">
<title>Node27</title>
<g id="a_node27"><a xlink:href="state_8hpp.html" target="_top" xlink:title="ALGEBRA::State source file.">
<polygon fill="none" stroke="black" points="554,-280.5 554,-299.5 610,-299.5 610,-280.5 554,-280.5"/>
<text text-anchor="middle" x="582" y="-287.5" font-family="Helvetica,sans-Serif" font-size="10.00">state.hpp</text>
</a>
</g>
</g>
<!-- Node1&#45;&gt;Node27 -->
<g id="edge63" class="edge">
<title>Node1&#45;&gt;Node27</title>
<path fill="none" stroke="midnightblue" d="M502.26,-336.32C517.22,-327.82 540.25,-314.73 557.73,-304.8"/>
<polygon fill="midnightblue" stroke="midnightblue" points="559.81,-307.64 566.77,-299.65 556.35,-301.55 559.81,-307.64"/>
</g>
<!-- Node4 -->
<g id="node4" class="node">
<title>Node4</title>
<g id="a_node4"><a xlink:title=" ">
<polygon fill="none" stroke="#bfbfbf" points="671.5,-224.5 671.5,-243.5 700.5,-243.5 700.5,-224.5 671.5,-224.5"/>
<text text-anchor="middle" x="686" y="-231.5" font-family="Helvetica,sans-Serif" font-size="10.00">list</text>
</a>
</g>
</g>
<!-- Node3&#45;&gt;Node4 -->
<g id="edge3" class="edge">
<title>Node3&#45;&gt;Node4</title>
<path fill="none" stroke="midnightblue" d="M526.19,-280.43C560.01,-272.72 610.3,-260.48 661.86,-244.09"/>
<polygon fill="midnightblue" stroke="midnightblue" points="663.05,-247.39 671.5,-240.99 660.9,-240.72 663.05,-247.39"/>
</g>
<!-- Node5 -->
<g id="node5" class="node">
<title>Node5</title>
<g id="a_node5"><a xlink:title=" ">
<polygon fill="none" stroke="#bfbfbf" points="840.5,-112.5 840.5,-131.5 875.5,-131.5 875.5,-112.5 840.5,-112.5"/>
<text text-anchor="middle" x="858" y="-119.5" font-family="Helvetica,sans-Serif" font-size="10.00">map</text>
</a>
</g>
</g>
<!-- Node3&#45;&gt;Node5 -->
<g id="edge4" class="edge">
<title>Node3&#45;&gt;Node5</title>
<path fill="none" stroke="midnightblue" d="M536.01,-281.14C539.05,-280.73 542.07,-280.35 545,-280 594.26,-274.19 956.37,-280.46 990,-244 1030.72,-199.85 934.81,-153.43 885.29,-133.3"/>
<polygon fill="midnightblue" stroke="midnightblue" points="886.36,-129.96 875.78,-129.53 883.78,-136.47 886.36,-129.96"/>
</g>
<!-- Node6 -->
<g id="node6" class="node">
<title>Node6</title>
<g id="a_node6"><a xlink:title=" ">
<polygon fill="none" stroke="#bfbfbf" points="1075,-224.5 1075,-243.5 1121,-243.5 1121,-224.5 1075,-224.5"/>
<text text-anchor="middle" x="1098" y="-231.5" font-family="Helvetica,sans-Serif" font-size="10.00">variant</text>
</a>
</g>
</g>
<!-- Node3&#45;&gt;Node6 -->
<g id="edge5" class="edge">
<title>Node3&#45;&gt;Node6</title>
<path fill="none" stroke="midnightblue" d="M536.01,-281.1C539.05,-280.7 542.06,-280.33 545,-280 773.46,-254.35 833.83,-279.29 1061,-244 1062.25,-243.81 1063.52,-243.59 1064.8,-243.36"/>
<polygon fill="midnightblue" stroke="midnightblue" points="1065.55,-246.78 1074.63,-241.32 1064.13,-239.92 1065.55,-246.78"/>
</g>
<!-- Node7 -->
<g id="node7" class="node">
<title>Node7</title>
<g id="a_node7"><a xlink:href="densesystem_8hpp.html" target="_top" xlink:title="ALGEBRA::DenseSystem source file.">
<polygon fill="none" stroke="black" points="153,-112.5 153,-131.5 287,-131.5 287,-112.5 153,-112.5"/>
<text text-anchor="middle" x="220" y="-119.5" font-family="Helvetica,sans-Serif" font-size="10.00">../algebra/densesystem.hpp</text>
</a>
</g>
</g>
<!-- Node3&#45;&gt;Node7 -->
<g id="edge6" class="edge">
<title>Node3&#45;&gt;Node7</title>
<path fill="none" stroke="midnightblue" d="M437.61,-287.42C331.55,-283.37 90.2,-270.99 66,-244 25.13,-198.43 121,-154.97 179.38,-134.78"/>
<polygon fill="midnightblue" stroke="midnightblue" points="180.74,-138.02 189.11,-131.52 178.51,-131.38 180.74,-138.02"/>
</g>
<!-- Node8 -->
<g id="node8" class="node">
<title>Node8</title>
<g id="a_node8"><a xlink:href="sparsesystem_8hpp.html" target="_top" xlink:title="ALGEBRA::SparseSystem source file.">
<polygon fill="none" stroke="black" points="340.5,-112.5 340.5,-131.5 477.5,-131.5 477.5,-112.5 340.5,-112.5"/>
<text text-anchor="middle" x="409" y="-119.5" font-family="Helvetica,sans-Serif" font-size="10.00">../algebra/sparsesystem.hpp</text>
</a>
</g>
</g>
<!-- Node3&#45;&gt;Node8 -->
<g id="edge9" class="edge">
<title>Node3&#45;&gt;Node8</title>
<path fill="none" stroke="midnightblue" d="M437.87,-287.43C371.51,-284.13 259.04,-274.09 234,-244 192.01,-193.55 296.2,-153.1 361.43,-134.35"/>
<polygon fill="midnightblue" stroke="midnightblue" points="362.45,-137.69 371.14,-131.63 360.57,-130.95 362.45,-137.69"/>
</g>
<!-- Node12 -->
<g id="node12" class="node">
<title>Node12</title>
<g id="a_node12"><a xlink:href="bloodvessel_8hpp.html" target="_top" xlink:title="MODEL::BloodVessel source file.">
<polygon fill="none" stroke="black" points="252,-224.5 252,-243.5 338,-243.5 338,-224.5 252,-224.5"/>
<text text-anchor="middle" x="295" y="-231.5" font-family="Helvetica,sans-Serif" font-size="10.00">bloodvessel.hpp</text>
</a>
</g>
</g>
<!-- Node3&#45;&gt;Node12 -->
<g id="edge14" class="edge">
<title>Node3&#45;&gt;Node12</title>
<path fill="none" stroke="midnightblue" d="M456.58,-280.44C423.72,-271.2 371.22,-256.44 335.03,-246.26"/>
<polygon fill="midnightblue" stroke="midnightblue" points="335.85,-242.85 325.28,-243.52 333.96,-249.59 335.85,-242.85"/>
</g>
<!-- Node16 -->
<g id="node16" class="node">
<title>Node16</title>
<g id="a_node16"><a xlink:href="dofhandler_8hpp.html" target="_top" xlink:title="MODEL::DOFHandler source file.">
<polygon fill="none" stroke="black" points="888,-56.5 888,-75.5 968,-75.5 968,-56.5 888,-56.5"/>
<text text-anchor="middle" x="928" y="-63.5" font-family="Helvetica,sans-Serif" font-size="10.00">dofhandler.hpp</text>
</a>
</g>
</g>
<!-- Node3&#45;&gt;Node16 -->
<g id="edge29" class="edge">
<title>Node3&#45;&gt;Node16</title>
<path fill="none" stroke="midnightblue" d="M536.01,-281.13C539.05,-280.72 542.06,-280.34 545,-280 596.25,-274.04 972.96,-281.87 1008,-244 1028.27,-222.09 1086.34,-264.51 993,-112 984.7,-98.43 970.59,-87.93 957.64,-80.49"/>
<polygon fill="midnightblue" stroke="midnightblue" points="958.98,-77.24 948.51,-75.62 955.69,-83.42 958.98,-77.24"/>
</g>
<!-- Node18 -->
<g id="node18" class="node">
<title>Node18</title>
<g id="a_node18"><a xlink:href="node_8hpp.html" target="_top" xlink:title="MODEL::Node source file.">
<polygon fill="none" stroke="black" points="1075,-112.5 1075,-131.5 1131,-131.5 1131,-112.5 1075,-112.5"/>
<text text-anchor="middle" x="1103" y="-119.5" font-family="Helvetica,sans-Serif" font-size="10.00">node.hpp</text>
</a>
</g>
</g>
<!-- Node3&#45;&gt;Node18 -->
<g id="edge43" class="edge">
<title>Node3&#45;&gt;Node18</title>
<path fill="none" stroke="midnightblue" d="M536.01,-281.07C539.05,-280.68 542.06,-280.32 545,-280 609.75,-273 1085.39,-291.44 1130,-244 1156.92,-215.37 1131.71,-166.03 1115.03,-140.09"/>
<polygon fill="midnightblue" stroke="midnightblue" points="1117.86,-138.02 1109.39,-131.67 1112.05,-141.92 1117.86,-138.02"/>
</g>
<!-- Node19 -->
<g id="node19" class="node">
<title>Node19</title>
<g id="a_node19"><a xlink:href="flowreferencebc_8hpp.html" target="_top" xlink:title="MODEL::FlowReferenceBC source file.">
<polygon fill="none" stroke="black" points="550.5,-224.5 550.5,-243.5 653.5,-243.5 653.5,-224.5 550.5,-224.5"/>
<text text-anchor="middle" x="602" y="-231.5" font-family="Helvetica,sans-Serif" font-size="10.00">flowreferencebc.hpp</text>
</a>
</g>
</g>
<!-- Node3&#45;&gt;Node19 -->
<g id="edge30" class="edge">
<title>Node3&#45;&gt;Node19</title>
<path fill="none" stroke="midnightblue" d="M505.22,-280.44C523.9,-271.68 553.16,-257.94 574.62,-247.86"/>
<polygon fill="midnightblue" stroke="midnightblue" points="576.3,-250.93 583.86,-243.52 573.32,-244.6 576.3,-250.93"/>
</g>
<!-- Node22 -->
<g id="node22" class="node">
<title>Node22</title>
<g id="a_node22"><a xlink:href="junction_8hpp.html" target="_top" xlink:title="MODEL::Junction source file.">
<polygon fill="none" stroke="black" points="356,-224.5 356,-243.5 424,-243.5 424,-224.5 356,-224.5"/>
<text text-anchor="middle" x="390" y="-231.5" font-family="Helvetica,sans-Serif" font-size="10.00">junction.hpp</text>
</a>
</g>
</g>
<!-- Node3&#45;&gt;Node22 -->
<g id="edge39" class="edge">
<title>Node3&#45;&gt;Node22</title>
<path fill="none" stroke="midnightblue" d="M471.42,-280.32C456,-271.74 432.19,-258.49 414.29,-248.52"/>
<polygon fill="midnightblue" stroke="midnightblue" points="415.99,-245.46 405.55,-243.65 412.58,-251.58 415.99,-245.46"/>
</g>
<!-- Node23 -->
<g id="node23" class="node">
<title>Node23</title>
<g id="a_node23"><a xlink:href="openloopcoronarybc_8hpp.html" target="_top" xlink:title="MODEL::ClosedLoopCoronaryBC source file.">
<polygon fill="none" stroke="black" points="718.5,-224.5 718.5,-243.5 839.5,-243.5 839.5,-224.5 718.5,-224.5"/>
<text text-anchor="middle" x="779" y="-231.5" font-family="Helvetica,sans-Serif" font-size="10.00">openloopcoronarybc.hpp</text>
</a>
</g>
</g>
<!-- Node3&#45;&gt;Node23 -->
<g id="edge44" class="edge">
<title>Node3&#45;&gt;Node23</title>
<path fill="none" stroke="midnightblue" d="M533.27,-280.44C584.74,-270.92 667.89,-255.55 723,-245.36"/>
<polygon fill="midnightblue" stroke="midnightblue" points="723.75,-248.78 732.95,-243.52 722.48,-241.89 723.75,-248.78"/>
</g>
<!-- Node24 -->
<g id="node24" class="node">
<title>Node24</title>
<g id="a_node24"><a xlink:href="pressurereferencebc_8hpp.html" target="_top" xlink:title="MODEL::PressureReferenceBC source file.">
<polygon fill="none" stroke="black" points="857.5,-224.5 857.5,-243.5 980.5,-243.5 980.5,-224.5 857.5,-224.5"/>
<text text-anchor="middle" x="919" y="-231.5" font-family="Helvetica,sans-Serif" font-size="10.00">pressurereferencebc.hpp</text>
</a>
</g>
</g>
<!-- Node3&#45;&gt;Node24 -->
<g id="edge49" class="edge">
<title>Node3&#45;&gt;Node24</title>
<path fill="none" stroke="midnightblue" d="M536.03,-281.26C539.06,-280.83 542.07,-280.4 545,-280 676.51,-262.02 712.24,-260.73 846.87,-244.25"/>
<polygon fill="midnightblue" stroke="midnightblue" points="847.67,-247.68 857.17,-242.98 846.82,-240.73 847.67,-247.68"/>
</g>
<!-- Node25 -->
<g id="node25" class="node">
<title>Node25</title>
<g id="a_node25"><a xlink:href="resistancebc_8hpp.html" target="_top" xlink:title="MODEL::ResistanceBC source file.">
<polygon fill="none" stroke="black" points="442,-224.5 442,-243.5 532,-243.5 532,-224.5 442,-224.5"/>
<text text-anchor="middle" x="487" y="-231.5" font-family="Helvetica,sans-Serif" font-size="10.00">resistancebc.hpp</text>
</a>
</g>
</g>
<!-- Node3&#45;&gt;Node25 -->
<g id="edge54" class="edge">
<title>Node3&#45;&gt;Node25</title>
<path fill="none" stroke="midnightblue" d="M487,-280.08C487,-273.01 487,-262.86 487,-253.99"/>
<polygon fill="midnightblue" stroke="midnightblue" points="490.5,-253.75 487,-243.75 483.5,-253.75 490.5,-253.75"/>
</g>
<!-- Node26 -->
<g id="node26" class="node">
<title>Node26</title>
<g id="a_node26"><a xlink:href="windkesselbc_8hpp.html" target="_top" xlink:title="MODEL::WindkesselBC source file.">
<polygon fill="none" stroke="black" points="84,-224.5 84,-243.5 178,-243.5 178,-224.5 84,-224.5"/>
<text text-anchor="middle" x="131" y="-231.5" font-family="Helvetica,sans-Serif" font-size="10.00">windkesselbc.hpp</text>
</a>
</g>
</g>
<!-- Node3&#45;&gt;Node26 -->
<g id="edge59" class="edge">
<title>Node3&#45;&gt;Node26</title>
<path fill="none" stroke="midnightblue" d="M437.87,-281.55C372.65,-271.65 257.67,-254.21 188.49,-243.72"/>
<polygon fill="midnightblue" stroke="midnightblue" points="188.62,-240.2 178.21,-242.16 187.57,-247.12 188.62,-240.2"/>
</g>
<!-- Node7&#45;&gt;Node2 -->
<g id="edge7" class="edge">
<title>Node7&#45;&gt;Node2</title>
<path fill="none" stroke="midnightblue" d="M202.33,-112.32C184.61,-103.62 157.1,-90.12 136.71,-80.11"/>
<polygon fill="midnightblue" stroke="midnightblue" points="138.15,-76.92 127.63,-75.65 135.06,-83.2 138.15,-76.92"/>
</g>
<!-- Node7&#45;&gt;Node3 -->
<g id="edge8" class="edge">
<title>Node7&#45;&gt;Node3</title>
<path fill="none" stroke="midnightblue" d="M198.84,-131.52C150.54,-149.95 40.77,-195.79 84,-244 106.72,-269.34 320.9,-281.8 427.49,-286.58"/>
<polygon fill="midnightblue" stroke="midnightblue" points="427.63,-290.09 437.77,-287.03 427.93,-283.1 427.63,-290.09"/>
</g>
<!-- Node8&#45;&gt;Node3 -->
<g id="edge13" class="edge">
<title>Node8&#45;&gt;Node3</title>
<path fill="none" stroke="midnightblue" d="M381.37,-131.63C325.28,-148.97 207.85,-190.96 252,-244 274.25,-270.73 365.55,-281.65 427.65,-286.06"/>
<polygon fill="midnightblue" stroke="midnightblue" points="427.52,-289.56 437.73,-286.74 427.99,-282.58 427.52,-289.56"/>
</g>
<!-- Node9 -->
<g id="node9" class="node">
<title>Node9</title>
<g id="a_node9"><a xlink:title=" ">
<polygon fill="none" stroke="#bfbfbf" points="372,-56.5 372,-75.5 446,-75.5 446,-56.5 372,-56.5"/>
<text text-anchor="middle" x="409" y="-63.5" font-family="Helvetica,sans-Serif" font-size="10.00">Eigen/Sparse</text>
</a>
</g>
</g>
<!-- Node8&#45;&gt;Node9 -->
<g id="edge10" class="edge">
<title>Node8&#45;&gt;Node9</title>
<path fill="none" stroke="midnightblue" d="M409,-112.08C409,-105.01 409,-94.86 409,-85.99"/>
<polygon fill="midnightblue" stroke="midnightblue" points="412.5,-85.75 409,-75.75 405.5,-85.75 412.5,-85.75"/>
</g>
<!-- Node10 -->
<g id="node10" class="node">
<title>Node10</title>
<g id="a_node10"><a xlink:title=" ">
<polygon fill="none" stroke="#bfbfbf" points="464,-56.5 464,-75.5 552,-75.5 552,-56.5 464,-56.5"/>
<text text-anchor="middle" x="508" y="-63.5" font-family="Helvetica,sans-Serif" font-size="10.00">Eigen/SparseLU</text>
</a>
</g>
</g>
<!-- Node8&#45;&gt;Node10 -->
<g id="edge11" class="edge">
<title>Node8&#45;&gt;Node10</title>
<path fill="none" stroke="midnightblue" d="M424.91,-112.32C440.64,-103.74 464.94,-90.49 483.21,-80.52"/>
<polygon fill="midnightblue" stroke="midnightblue" points="485.03,-83.52 492.13,-75.65 481.68,-77.37 485.03,-83.52"/>
</g>
<!-- Node11 -->
<g id="node11" class="node">
<title>Node11</title>
<g id="a_node11"><a xlink:title=" ">
<polygon fill="none" stroke="#bfbfbf" points="300,-56.5 300,-75.5 354,-75.5 354,-56.5 300,-56.5"/>
<text text-anchor="middle" x="327" y="-63.5" font-family="Helvetica,sans-Serif" font-size="10.00">iostream</text>
</a>
</g>
</g>
<!-- Node8&#45;&gt;Node11 -->
<g id="edge12" class="edge">
<title>Node8&#45;&gt;Node11</title>
<path fill="none" stroke="midnightblue" d="M395.83,-112.32C383.15,-103.98 363.77,-91.21 348.79,-81.35"/>
<polygon fill="midnightblue" stroke="midnightblue" points="350.42,-78.23 340.14,-75.65 346.57,-84.08 350.42,-78.23"/>
</g>
<!-- Node12&#45;&gt;Node7 -->
<g id="edge16" class="edge">
<title>Node12&#45;&gt;Node7</title>
<path fill="none" stroke="midnightblue" d="M258.3,-224.35C239.17,-217.77 217.43,-206.58 206,-188 197.14,-173.6 203,-154.4 209.64,-140.61"/>
<polygon fill="midnightblue" stroke="midnightblue" points="212.79,-142.14 214.41,-131.67 206.61,-138.84 212.79,-142.14"/>
</g>
<!-- Node12&#45;&gt;Node8 -->
<g id="edge17" class="edge">
<title>Node12&#45;&gt;Node8</title>
<path fill="none" stroke="midnightblue" d="M303.95,-224.37C323.09,-205.89 368.28,-162.29 392.68,-138.74"/>
<polygon fill="midnightblue" stroke="midnightblue" points="395.33,-141.05 400.1,-131.59 390.47,-136.02 395.33,-141.05"/>
</g>
<!-- Node13 -->
<g id="node13" class="node">
<title>Node13</title>
<g id="a_node13"><a xlink:title=" ">
<polygon fill="none" stroke="#bfbfbf" points="538,-112.5 538,-131.5 584,-131.5 584,-112.5 538,-112.5"/>
<text text-anchor="middle" x="561" y="-119.5" font-family="Helvetica,sans-Serif" font-size="10.00">math.h</text>
</a>
</g>
</g>
<!-- Node12&#45;&gt;Node13 -->
<g id="edge15" class="edge">
<title>Node12&#45;&gt;Node13</title>
<path fill="none" stroke="midnightblue" d="M315.87,-224.37C362.68,-205.01 476.21,-158.06 530.75,-135.51"/>
<polygon fill="midnightblue" stroke="midnightblue" points="532.32,-138.65 540.22,-131.59 529.65,-132.18 532.32,-138.65"/>
</g>
<!-- Node14 -->
<g id="node14" class="node">
<title>Node14</title>
<g id="a_node14"><a xlink:href="block_8hpp.html" target="_top" xlink:title="MODEL::Block source file.">
<polygon fill="none" stroke="black" points="608,-168.5 608,-187.5 666,-187.5 666,-168.5 608,-168.5"/>
<text text-anchor="middle" x="637" y="-175.5" font-family="Helvetica,sans-Serif" font-size="10.00">block.hpp</text>
</a>
</g>
</g>
<!-- Node12&#45;&gt;Node14 -->
<g id="edge18" class="edge">
<title>Node12&#45;&gt;Node14</title>
<path fill="none" stroke="midnightblue" d="M338.12,-225.48C341.12,-224.97 344.11,-224.47 347,-224 436.51,-209.31 541.77,-193.29 597.59,-184.89"/>
<polygon fill="midnightblue" stroke="midnightblue" points="598.38,-188.31 607.75,-183.37 597.34,-181.39 598.38,-188.31"/>
</g>
<!-- Node14&#45;&gt;Node5 -->
<g id="edge19" class="edge">
<title>Node14&#45;&gt;Node5</title>
<path fill="none" stroke="midnightblue" d="M666.23,-170.43C703.45,-161.97 769.68,-146.62 826,-132 827.47,-131.62 828.97,-131.22 830.48,-130.82"/>
<polygon fill="midnightblue" stroke="midnightblue" points="831.72,-134.11 840.43,-128.08 829.86,-127.36 831.72,-134.11"/>
</g>
<!-- Node14&#45;&gt;Node7 -->
<g id="edge21" class="edge">
<title>Node14&#45;&gt;Node7</title>
<path fill="none" stroke="midnightblue" d="M607.92,-170.56C603.28,-169.63 598.52,-168.74 594,-168 492,-151.22 373.37,-138.01 297.54,-130.35"/>
<polygon fill="midnightblue" stroke="midnightblue" points="297.43,-126.82 287.13,-129.31 296.73,-133.79 297.43,-126.82"/>
</g>
<!-- Node14&#45;&gt;Node8 -->
<g id="edge22" class="edge">
<title>Node14&#45;&gt;Node8</title>
<path fill="none" stroke="midnightblue" d="M607.66,-170.05C568.97,-160.89 500.48,-144.67 454.91,-133.87"/>
<polygon fill="midnightblue" stroke="midnightblue" points="455.52,-130.42 444.98,-131.52 453.91,-137.23 455.52,-130.42"/>
</g>
<!-- Node15 -->
<g id="node15" class="node">
<title>Node15</title>
<g id="a_node15"><a xlink:title=" ">
<polygon fill="none" stroke="#bfbfbf" points="752,-0.5 752,-19.5 796,-19.5 796,-0.5 752,-0.5"/>
<text text-anchor="middle" x="774" y="-7.5" font-family="Helvetica,sans-Serif" font-size="10.00">vector</text>
</a>
</g>
</g>
<!-- Node14&#45;&gt;Node15 -->
<g id="edge20" class="edge">
<title>Node14&#45;&gt;Node15</title>
<path fill="none" stroke="midnightblue" d="M644.37,-168.08C666.4,-141.38 732.02,-61.87 760.53,-27.32"/>
<polygon fill="midnightblue" stroke="midnightblue" points="763.26,-29.51 766.93,-19.57 757.86,-25.05 763.26,-29.51"/>
</g>
<!-- Node14&#45;&gt;Node16 -->
<g id="edge23" class="edge">
<title>Node14&#45;&gt;Node16</title>
<path fill="none" stroke="midnightblue" d="M659.83,-168.37C711.26,-148.93 836.27,-101.67 895.65,-79.23"/>
<polygon fill="midnightblue" stroke="midnightblue" points="897.16,-82.4 905.27,-75.59 894.68,-75.85 897.16,-82.4"/>
</g>
<!-- Node14&#45;&gt;Node18 -->
<g id="edge26" class="edge">
<title>Node14&#45;&gt;Node18</title>
<path fill="none" stroke="midnightblue" d="M666.15,-173.62C746.94,-164.26 973.72,-137.98 1064.61,-127.45"/>
<polygon fill="midnightblue" stroke="midnightblue" points="1065.22,-130.9 1074.75,-126.27 1064.41,-123.95 1065.22,-130.9"/>
</g>
<!-- Node16&#45;&gt;Node15 -->
<g id="edge25" class="edge">
<title>Node16&#45;&gt;Node15</title>
<path fill="none" stroke="midnightblue" d="M903.6,-56.44C877.2,-47.19 834.99,-32.39 805.96,-22.21"/>
<polygon fill="midnightblue" stroke="midnightblue" points="806.88,-18.82 796.29,-18.82 804.57,-25.43 806.88,-18.82"/>
</g>
<!-- Node17 -->
<g id="node17" class="node">
<title>Node17</title>
<g id="a_node17"><a xlink:title=" ">
<polygon fill="none" stroke="#bfbfbf" points="982.5,-0.5 982.5,-19.5 1023.5,-19.5 1023.5,-0.5 982.5,-0.5"/>
<text text-anchor="middle" x="1003" y="-7.5" font-family="Helvetica,sans-Serif" font-size="10.00">string</text>
</a>
</g>
</g>
<!-- Node16&#45;&gt;Node17 -->
<g id="edge24" class="edge">
<title>Node16&#45;&gt;Node17</title>
<path fill="none" stroke="midnightblue" d="M940.05,-56.32C951.46,-48.11 968.83,-35.6 982.43,-25.81"/>
<polygon fill="midnightblue" stroke="midnightblue" points="984.66,-28.52 990.73,-19.83 980.57,-22.84 984.66,-28.52"/>
</g>
<!-- Node18&#45;&gt;Node16 -->
<g id="edge28" class="edge">
<title>Node18&#45;&gt;Node16</title>
<path fill="none" stroke="midnightblue" d="M1075.27,-112.44C1045.57,-103.28 998.28,-88.69 965.33,-78.52"/>
<polygon fill="midnightblue" stroke="midnightblue" points="966.19,-75.12 955.6,-75.52 964.12,-81.81 966.19,-75.12"/>
</g>
<!-- Node18&#45;&gt;Node17 -->
<g id="edge27" class="edge">
<title>Node18&#45;&gt;Node17</title>
<path fill="none" stroke="midnightblue" d="M1095.15,-112.37C1078.43,-93.97 1039.06,-50.67 1017.59,-27.05"/>
<polygon fill="midnightblue" stroke="midnightblue" points="1020.13,-24.64 1010.81,-19.59 1014.95,-29.35 1020.13,-24.64"/>
</g>
<!-- Node19&#45;&gt;Node7 -->
<g id="edge31" class="edge">
<title>Node19&#45;&gt;Node7</title>
<path fill="none" stroke="midnightblue" d="M572.34,-224.46C504.15,-204.82 336.16,-156.45 259.41,-134.35"/>
<polygon fill="midnightblue" stroke="midnightblue" points="260.22,-130.94 249.64,-131.53 258.28,-137.67 260.22,-130.94"/>
</g>
<!-- Node19&#45;&gt;Node8 -->
<g id="edge32" class="edge">
<title>Node19&#45;&gt;Node8</title>
<path fill="none" stroke="midnightblue" d="M586.86,-224.37C553.45,-205.33 473.24,-159.62 432.95,-136.65"/>
<polygon fill="midnightblue" stroke="midnightblue" points="434.5,-133.5 424.07,-131.59 431.03,-139.58 434.5,-133.5"/>
</g>
<!-- Node19&#45;&gt;Node14 -->
<g id="edge33" class="edge">
<title>Node19&#45;&gt;Node14</title>
<path fill="none" stroke="midnightblue" d="M607.78,-224.08C612.67,-216.53 619.83,-205.49 625.83,-196.23"/>
<polygon fill="midnightblue" stroke="midnightblue" points="628.83,-198.05 631.33,-187.75 622.95,-194.24 628.83,-198.05"/>
</g>
<!-- Node20 -->
<g id="node20" class="node">
<title>Node20</title>
<g id="a_node20"><a xlink:href="timedependentparameter_8hpp.html" target="_top" xlink:title="MODEL::TimeDependentParameter source file.">
<polygon fill="none" stroke="black" points="798,-168.5 798,-187.5 940,-187.5 940,-168.5 798,-168.5"/>
<text text-anchor="middle" x="869" y="-175.5" font-family="Helvetica,sans-Serif" font-size="10.00">timedependentparameter.hpp</text>
</a>
</g>
</g>
<!-- Node19&#45;&gt;Node20 -->
<g id="edge34" class="edge">
<title>Node19&#45;&gt;Node20</title>
<path fill="none" stroke="midnightblue" d="M644.31,-224.44C691.08,-214.98 766.46,-199.74 816.85,-189.55"/>
<polygon fill="midnightblue" stroke="midnightblue" points="817.78,-192.93 826.89,-187.52 816.4,-186.07 817.78,-192.93"/>
</g>
<!-- Node20&#45;&gt;Node13 -->
<g id="edge35" class="edge">
<title>Node20&#45;&gt;Node13</title>
<path fill="none" stroke="midnightblue" d="M820.2,-168.44C757.06,-157.37 648.75,-138.38 594.3,-128.84"/>
<polygon fill="midnightblue" stroke="midnightblue" points="594.62,-125.34 584.16,-127.06 593.41,-132.24 594.62,-125.34"/>
</g>
<!-- Node20&#45;&gt;Node15 -->
<g id="edge37" class="edge">
<title>Node20&#45;&gt;Node15</title>
<path fill="none" stroke="midnightblue" d="M860.66,-168.19C852.67,-159.46 840.59,-145.47 832,-132 809.96,-97.44 790.82,-53.22 781,-28.95"/>
<polygon fill="midnightblue" stroke="midnightblue" points="784.22,-27.58 777.28,-19.58 777.72,-30.17 784.22,-27.58"/>
</g>
<!-- Node20&#45;&gt;Node16 -->
<g id="edge38" class="edge">
<title>Node20&#45;&gt;Node16</title>
<path fill="none" stroke="midnightblue" d="M873.63,-168.37C883.28,-150.38 905.71,-108.55 918.55,-84.63"/>
<polygon fill="midnightblue" stroke="midnightblue" points="921.75,-86.06 923.39,-75.59 915.58,-82.75 921.75,-86.06"/>
</g>
<!-- Node21 -->
<g id="node21" class="node">
<title>Node21</title>
<g id="a_node21"><a xlink:title=" ">
<polygon fill="none" stroke="#bfbfbf" points="932.5,-112.5 932.5,-131.5 983.5,-131.5 983.5,-112.5 932.5,-112.5"/>
<text text-anchor="middle" x="958" y="-119.5" font-family="Helvetica,sans-Serif" font-size="10.00">numeric</text>
</a>
</g>
</g>
<!-- Node20&#45;&gt;Node21 -->
<g id="edge36" class="edge">
<title>Node20&#45;&gt;Node21</title>
<path fill="none" stroke="midnightblue" d="M883.3,-168.32C897.18,-159.9 918.49,-146.97 934.8,-137.07"/>
<polygon fill="midnightblue" stroke="midnightblue" points="937,-139.83 943.74,-131.65 933.37,-133.85 937,-139.83"/>
</g>
<!-- Node22&#45;&gt;Node7 -->
<g id="edge40" class="edge">
<title>Node22&#45;&gt;Node7</title>
<path fill="none" stroke="midnightblue" d="M376.66,-224.37C347.49,-205.49 277.78,-160.38 242,-137.24"/>
<polygon fill="midnightblue" stroke="midnightblue" points="243.57,-134.09 233.28,-131.59 239.77,-139.96 243.57,-134.09"/>
</g>
<!-- Node22&#45;&gt;Node8 -->
<g id="edge41" class="edge">
<title>Node22&#45;&gt;Node8</title>
<path fill="none" stroke="midnightblue" d="M391.49,-224.37C394.56,-206.62 401.63,-165.67 405.79,-141.6"/>
<polygon fill="midnightblue" stroke="midnightblue" points="409.26,-142.04 407.52,-131.59 402.36,-140.85 409.26,-142.04"/>
</g>
<!-- Node22&#45;&gt;Node14 -->
<g id="edge42" class="edge">
<title>Node22&#45;&gt;Node14</title>
<path fill="none" stroke="midnightblue" d="M424.08,-225.55C469.58,-215.6 549.97,-198.03 597.88,-187.55"/>
<polygon fill="midnightblue" stroke="midnightblue" points="598.86,-190.92 607.88,-185.37 597.36,-184.08 598.86,-190.92"/>
</g>
<!-- Node23&#45;&gt;Node7 -->
<g id="edge45" class="edge">
<title>Node23&#45;&gt;Node7</title>
<path fill="none" stroke="midnightblue" d="M735.6,-224.46C634.48,-204.56 383.44,-155.16 273.27,-133.48"/>
<polygon fill="midnightblue" stroke="midnightblue" points="273.86,-130.03 263.37,-131.53 272.51,-136.9 273.86,-130.03"/>
</g>
<!-- Node23&#45;&gt;Node8 -->
<g id="edge46" class="edge">
<title>Node23&#45;&gt;Node8</title>
<path fill="none" stroke="midnightblue" d="M768.52,-224.46C750.56,-210.31 712.22,-182.14 675,-168 614.54,-145.03 541.9,-133.74 487.82,-128.22"/>
<polygon fill="midnightblue" stroke="midnightblue" points="487.89,-124.72 477.6,-127.23 487.21,-131.68 487.89,-124.72"/>
</g>
<!-- Node23&#45;&gt;Node14 -->
<g id="edge47" class="edge">
<title>Node23&#45;&gt;Node14</title>
<path fill="none" stroke="midnightblue" d="M756.5,-224.44C732.92,-215.48 695.68,-201.31 669.04,-191.18"/>
<polygon fill="midnightblue" stroke="midnightblue" points="669.99,-187.8 659.4,-187.52 667.5,-194.34 669.99,-187.8"/>
</g>
<!-- Node23&#45;&gt;Node20 -->
<g id="edge48" class="edge">
<title>Node23&#45;&gt;Node20</title>
<path fill="none" stroke="midnightblue" d="M793.46,-224.32C807.5,-215.9 829.05,-202.97 845.54,-193.07"/>
<polygon fill="midnightblue" stroke="midnightblue" points="847.8,-195.8 854.58,-187.65 844.2,-189.8 847.8,-195.8"/>
</g>
<!-- Node24&#45;&gt;Node7 -->
<g id="edge50" class="edge">
<title>Node24&#45;&gt;Node7</title>
<path fill="none" stroke="midnightblue" d="M885.46,-224.49C850.57,-215.58 794.38,-201.1 746,-188 714.36,-179.43 707.21,-174.08 675,-168 638.95,-161.2 417.7,-140.75 297.53,-129.92"/>
<polygon fill="midnightblue" stroke="midnightblue" points="297.56,-126.41 287.28,-128.99 296.93,-133.38 297.56,-126.41"/>
</g>
<!-- Node24&#45;&gt;Node8 -->
<g id="edge51" class="edge">
<title>Node24&#45;&gt;Node8</title>
<path fill="none" stroke="midnightblue" d="M891.81,-224.49C865.3,-215.97 823.98,-202.15 789,-188 769.46,-180.1 766.23,-173.91 746,-168 699.04,-154.29 571.6,-139.47 487.59,-130.72"/>
<polygon fill="midnightblue" stroke="midnightblue" points="487.88,-127.23 477.57,-129.69 487.16,-134.2 487.88,-127.23"/>
</g>
<!-- Node24&#45;&gt;Node14 -->
<g id="edge52" class="edge">
<title>Node24&#45;&gt;Node14</title>
<path fill="none" stroke="midnightblue" d="M874.32,-224.44C819.72,-213.99 728.21,-196.47 676.22,-186.51"/>
<polygon fill="midnightblue" stroke="midnightblue" points="676.85,-183.07 666.37,-184.62 675.53,-189.94 676.85,-183.07"/>
</g>
<!-- Node24&#45;&gt;Node20 -->
<g id="edge53" class="edge">
<title>Node24&#45;&gt;Node20</title>
<path fill="none" stroke="midnightblue" d="M910.74,-224.08C903.54,-216.3 892.89,-204.8 884.15,-195.37"/>
<polygon fill="midnightblue" stroke="midnightblue" points="886.47,-192.71 877.1,-187.75 881.33,-197.47 886.47,-192.71"/>
</g>
<!-- Node25&#45;&gt;Node7 -->
<g id="edge55" class="edge">
<title>Node25&#45;&gt;Node7</title>
<path fill="none" stroke="midnightblue" d="M466.05,-224.37C419.06,-205.01 305.11,-158.06 250.36,-135.51"/>
<polygon fill="midnightblue" stroke="midnightblue" points="251.43,-132.16 240.85,-131.59 248.77,-138.64 251.43,-132.16"/>
</g>
<!-- Node25&#45;&gt;Node8 -->
<g id="edge56" class="edge">
<title>Node25&#45;&gt;Node8</title>
<path fill="none" stroke="midnightblue" d="M480.88,-224.37C468.01,-206.22 437.93,-163.8 421.05,-139.99"/>
<polygon fill="midnightblue" stroke="midnightblue" points="423.73,-137.72 415.09,-131.59 418.02,-141.77 423.73,-137.72"/>
</g>
<!-- Node25&#45;&gt;Node14 -->
<g id="edge57" class="edge">
<title>Node25&#45;&gt;Node14</title>
<path fill="none" stroke="midnightblue" d="M510.77,-224.44C535.89,-215.4 575.71,-201.06 603.9,-190.92"/>
<polygon fill="midnightblue" stroke="midnightblue" points="605.12,-194.2 613.34,-187.52 602.75,-187.61 605.12,-194.2"/>
</g>
<!-- Node25&#45;&gt;Node20 -->
<g id="edge58" class="edge">
<title>Node25&#45;&gt;Node20</title>
<path fill="none" stroke="midnightblue" d="M532.01,-225.54C535.39,-225.01 538.75,-224.49 542,-224 628.11,-211.03 727.2,-197.61 793.53,-188.83"/>
<polygon fill="midnightblue" stroke="midnightblue" points="794.02,-192.3 803.48,-187.52 793.1,-185.36 794.02,-192.3"/>
</g>
<!-- Node26&#45;&gt;Node7 -->
<g id="edge60" class="edge">
<title>Node26&#45;&gt;Node7</title>
<path fill="none" stroke="midnightblue" d="M137.98,-224.37C152.74,-206.14 187.29,-163.43 206.51,-139.68"/>
<polygon fill="midnightblue" stroke="midnightblue" points="209.48,-141.57 213.05,-131.59 204.04,-137.16 209.48,-141.57"/>
</g>
<!-- Node26&#45;&gt;Node8 -->
<g id="edge61" class="edge">
<title>Node26&#45;&gt;Node8</title>
<path fill="none" stroke="midnightblue" d="M143.33,-224.48C163.54,-210.86 205.34,-184.08 244,-168 280.27,-152.91 323.13,-141.4 356.07,-133.8"/>
<polygon fill="midnightblue" stroke="midnightblue" points="356.98,-137.18 365.96,-131.56 355.43,-130.35 356.98,-137.18"/>
</g>
<!-- Node26&#45;&gt;Node14 -->
<g id="edge62" class="edge">
<title>Node26&#45;&gt;Node14</title>
<path fill="none" stroke="midnightblue" d="M178.15,-227.97C277.37,-217.38 506.12,-192.97 597.88,-183.18"/>
<polygon fill="midnightblue" stroke="midnightblue" points="598.29,-186.65 607.86,-182.11 597.54,-179.69 598.29,-186.65"/>
</g>
</g>
</svg>
