<?xml version="1.0" encoding="UTF-8" standalone="no"?>
<!DOCTYPE svg PUBLIC "-//W3C//DTD SVG 1.1//EN"
 "http://www.w3.org/Graphics/SVG/1.1/DTD/svg11.dtd">
<!-- Generated by graphviz version 3.0.0 (20220413.0242)
 -->
<!-- Title: algebra/integrator.hpp Pages: 1 -->
<svg width="941pt" height="364pt"
 viewBox="0.00 0.00 940.79 364.00" xmlns="http://www.w3.org/2000/svg" xmlns:xlink="http://www.w3.org/1999/xlink">
<g id="graph0" class="graph" transform="scale(1 1) rotate(0) translate(4 360)">
<title>algebra/integrator.hpp</title>
<!-- Node1 -->
<g id="node1" class="node">
<title>Node1</title>
<g id="a_node1"><a xlink:title="ALGEBRA::Integrator source file.">
<polygon fill="#bfbfbf" stroke="black" points="362,-336.5 362,-355.5 472,-355.5 472,-336.5 362,-336.5"/>
<text text-anchor="middle" x="417" y="-343.5" font-family="Helvetica,sans-Serif" font-size="10.00">algebra/integrator.hpp</text>
</a>
</g>
</g>
<!-- Node2 -->
<g id="node2" class="node">
<title>Node2</title>
<g id="a_node2"><a xlink:title=" ">
<polygon fill="none" stroke="#bfbfbf" points="40.5,-56.5 40.5,-75.5 111.5,-75.5 111.5,-56.5 40.5,-56.5"/>
<text text-anchor="middle" x="76" y="-63.5" font-family="Helvetica,sans-Serif" font-size="10.00">Eigen/Dense</text>
</a>
</g>
</g>
<!-- Node1&#45;&gt;Node2 -->
<g id="edge1" class="edge">
<title>Node1&#45;&gt;Node2</title>
<path fill="none" stroke="midnightblue" d="M361.63,-341.98C248.19,-334.26 0,-308.94 0,-235 0,-235 0,-235 0,-177 0,-137.28 33.96,-101.5 56.48,-82.15"/>
<polygon fill="midnightblue" stroke="midnightblue" points="58.98,-84.63 64.46,-75.57 54.52,-79.24 58.98,-84.63"/>
</g>
<!-- Node3 -->
<g id="node3" class="node">
<title>Node3</title>
<g id="a_node3"><a xlink:href="model_8hpp.html" target="_top" xlink:title="MODEL::Model source file.">
<polygon fill="none" stroke="black" points="368,-280.5 368,-299.5 466,-299.5 466,-280.5 368,-280.5"/>
<text text-anchor="middle" x="417" y="-287.5" font-family="Helvetica,sans-Serif" font-size="10.00">../model/model.hpp</text>
</a>
</g>
</g>
<!-- Node1&#45;&gt;Node3 -->
<g id="edge2" class="edge">
<title>Node1&#45;&gt;Node3</title>
<path fill="none" stroke="midnightblue" d="M417,-336.08C417,-329.01 417,-318.86 417,-309.99"/>
<polygon fill="midnightblue" stroke="midnightblue" points="420.5,-309.75 417,-299.75 413.5,-309.75 420.5,-309.75"/>
</g>
<!-- Node24 -->
<g id="node24" class="node">
<title>Node24</title>
<g id="a_node24"><a xlink:href="state_8hpp.html" target="_top" xlink:title="ALGEBRA::State source file.">
<polygon fill="none" stroke="black" points="484,-280.5 484,-299.5 540,-299.5 540,-280.5 484,-280.5"/>
<text text-anchor="middle" x="512" y="-287.5" font-family="Helvetica,sans-Serif" font-size="10.00">state.hpp</text>
</a>
</g>
</g>
<!-- Node1&#45;&gt;Node24 -->
<g id="edge47" class="edge">
<title>Node1&#45;&gt;Node24</title>
<path fill="none" stroke="midnightblue" d="M432.26,-336.32C447.22,-327.82 470.25,-314.73 487.73,-304.8"/>
<polygon fill="midnightblue" stroke="midnightblue" points="489.81,-307.64 496.77,-299.65 486.35,-301.55 489.81,-307.64"/>
</g>
<!-- Node4 -->
<g id="node4" class="node">
<title>Node4</title>
<g id="a_node4"><a xlink:title=" ">
<polygon fill="none" stroke="#bfbfbf" points="683.5,-112.5 683.5,-131.5 718.5,-131.5 718.5,-112.5 683.5,-112.5"/>
<text text-anchor="middle" x="701" y="-119.5" font-family="Helvetica,sans-Serif" font-size="10.00">map</text>
</a>
</g>
</g>
<!-- Node3&#45;&gt;Node4 -->
<g id="edge3" class="edge">
<title>Node3&#45;&gt;Node4</title>
<path fill="none" stroke="midnightblue" d="M466.05,-281.38C469.08,-280.92 472.08,-280.45 475,-280 526.99,-271.97 674.74,-283.93 709,-244 733.7,-215.21 719.67,-167.01 709.19,-140.98"/>
<polygon fill="midnightblue" stroke="midnightblue" points="712.32,-139.41 705.17,-131.59 705.89,-142.16 712.32,-139.41"/>
</g>
<!-- Node5 -->
<g id="node5" class="node">
<title>Node5</title>
<g id="a_node5"><a xlink:title=" ">
<polygon fill="none" stroke="#bfbfbf" points="478.5,-224.5 478.5,-243.5 507.5,-243.5 507.5,-224.5 478.5,-224.5"/>
<text text-anchor="middle" x="493" y="-231.5" font-family="Helvetica,sans-Serif" font-size="10.00">list</text>
</a>
</g>
</g>
<!-- Node3&#45;&gt;Node5 -->
<g id="edge4" class="edge">
<title>Node3&#45;&gt;Node5</title>
<path fill="none" stroke="midnightblue" d="M429.21,-280.32C440.78,-272.11 458.38,-259.6 472.16,-249.81"/>
<polygon fill="midnightblue" stroke="midnightblue" points="474.44,-252.48 480.57,-243.83 470.39,-246.77 474.44,-252.48"/>
</g>
<!-- Node6 -->
<g id="node6" class="node">
<title>Node6</title>
<g id="a_node6"><a xlink:title=" ">
<polygon fill="none" stroke="#bfbfbf" points="526,-224.5 526,-243.5 572,-243.5 572,-224.5 526,-224.5"/>
<text text-anchor="middle" x="549" y="-231.5" font-family="Helvetica,sans-Serif" font-size="10.00">variant</text>
</a>
</g>
</g>
<!-- Node3&#45;&gt;Node6 -->
<g id="edge5" class="edge">
<title>Node3&#45;&gt;Node6</title>
<path fill="none" stroke="midnightblue" d="M437.92,-280.44C459.74,-271.52 494.15,-257.44 518.89,-247.32"/>
<polygon fill="midnightblue" stroke="midnightblue" points="520.25,-250.54 528.18,-243.52 517.6,-244.06 520.25,-250.54"/>
</g>
<!-- Node7 -->
<g id="node7" class="node">
<title>Node7</title>
<g id="a_node7"><a xlink:href="densesystem_8hpp.html" target="_top" xlink:title="ALGEBRA::DenseSystem source file.">
<polygon fill="none" stroke="black" points="85,-112.5 85,-131.5 219,-131.5 219,-112.5 85,-112.5"/>
<text text-anchor="middle" x="152" y="-119.5" font-family="Helvetica,sans-Serif" font-size="10.00">../algebra/densesystem.hpp</text>
</a>
</g>
</g>
<!-- Node3&#45;&gt;Node7 -->
<g id="edge6" class="edge">
<title>Node3&#45;&gt;Node7</title>
<path fill="none" stroke="midnightblue" d="M367.8,-286.41C274.04,-280.97 77.24,-266.93 57,-244 24.17,-206.81 89,-159.88 127.05,-136.93"/>
<polygon fill="midnightblue" stroke="midnightblue" points="129.22,-139.71 136.07,-131.63 125.68,-133.68 129.22,-139.71"/>
</g>
<!-- Node8 -->
<g id="node8" class="node">
<title>Node8</title>
<g id="a_node8"><a xlink:href="sparsesystem_8hpp.html" target="_top" xlink:title="ALGEBRA::SparseSystem source file.">
<polygon fill="none" stroke="black" points="253.5,-112.5 253.5,-131.5 390.5,-131.5 390.5,-112.5 253.5,-112.5"/>
<text text-anchor="middle" x="322" y="-119.5" font-family="Helvetica,sans-Serif" font-size="10.00">../algebra/sparsesystem.hpp</text>
</a>
</g>
</g>
<!-- Node3&#45;&gt;Node8 -->
<g id="edge8" class="edge">
<title>Node3&#45;&gt;Node8</title>
<path fill="none" stroke="midnightblue" d="M367.93,-286.38C307.82,-281.91 211.63,-270.55 190,-244 184.39,-237.11 186.2,-232.04 190,-224 200.9,-200.95 259.98,-158.66 295.5,-136.84"/>
<polygon fill="midnightblue" stroke="midnightblue" points="297.62,-139.65 304.41,-131.51 294.03,-133.64 297.62,-139.65"/>
</g>
<!-- Node12 -->
<g id="node12" class="node">
<title>Node12</title>
<g id="a_node12"><a xlink:href="junction_8hpp.html" target="_top" xlink:title="MODEL::Junction source file.">
<polygon fill="none" stroke="black" points="66,-224.5 66,-243.5 134,-243.5 134,-224.5 66,-224.5"/>
<text text-anchor="middle" x="100" y="-231.5" font-family="Helvetica,sans-Serif" font-size="10.00">junction.hpp</text>
</a>
</g>
</g>
<!-- Node3&#45;&gt;Node12 -->
<g id="edge13" class="edge">
<title>Node3&#45;&gt;Node12</title>
<path fill="none" stroke="midnightblue" d="M367.86,-281.08C313.9,-272.31 224.69,-257.6 148,-244 146.73,-243.78 145.45,-243.55 144.15,-243.31"/>
<polygon fill="midnightblue" stroke="midnightblue" points="144.54,-239.83 134.07,-241.47 143.28,-246.71 144.54,-239.83"/>
</g>
<!-- Node15 -->
<g id="node15" class="node">
<title>Node15</title>
<g id="a_node15"><a xlink:href="node_8hpp.html" target="_top" xlink:title="MODEL::Node source file.">
<polygon fill="none" stroke="black" points="609,-112.5 609,-131.5 665,-131.5 665,-112.5 609,-112.5"/>
<text text-anchor="middle" x="637" y="-119.5" font-family="Helvetica,sans-Serif" font-size="10.00">node.hpp</text>
</a>
</g>
</g>
<!-- Node3&#45;&gt;Node15 -->
<g id="edge46" class="edge">
<title>Node3&#45;&gt;Node15</title>
<path fill="none" stroke="midnightblue" d="M466.22,-281.32C544.59,-269.05 689.18,-246.14 691,-244 718.41,-211.72 678.48,-163.3 653.88,-138.64"/>
<polygon fill="midnightblue" stroke="midnightblue" points="656.15,-135.97 646.54,-131.52 651.28,-141 656.15,-135.97"/>
</g>
<!-- Node17 -->
<g id="node17" class="node">
<title>Node17</title>
<g id="a_node17"><a xlink:href="dofhandler_8hpp.html" target="_top" xlink:title="MODEL::DOFHandler source file.">
<polygon fill="none" stroke="black" points="665,-56.5 665,-75.5 745,-75.5 745,-56.5 665,-56.5"/>
<text text-anchor="middle" x="705" y="-63.5" font-family="Helvetica,sans-Serif" font-size="10.00">dofhandler.hpp</text>
</a>
</g>
</g>
<!-- Node3&#45;&gt;Node17 -->
<g id="edge45" class="edge">
<title>Node3&#45;&gt;Node17</title>
<path fill="none" stroke="midnightblue" d="M466.04,-281.35C469.07,-280.89 472.08,-280.43 475,-280 576.39,-264.92 865.11,-269.71 927,-188 944.91,-164.36 915.8,-124.62 900,-112 858.88,-79.14 798.13,-69.41 755.39,-66.95"/>
<polygon fill="midnightblue" stroke="midnightblue" points="755.36,-63.44 745.2,-66.48 755.03,-70.43 755.36,-63.44"/>
</g>
<!-- Node18 -->
<g id="node18" class="node">
<title>Node18</title>
<g id="a_node18"><a xlink:href="bloodvessel_8hpp.html" target="_top" xlink:title="MODEL::BloodVessel source file.">
<polygon fill="none" stroke="black" points="374,-224.5 374,-243.5 460,-243.5 460,-224.5 374,-224.5"/>
<text text-anchor="middle" x="417" y="-231.5" font-family="Helvetica,sans-Serif" font-size="10.00">bloodvessel.hpp</text>
</a>
</g>
</g>
<!-- Node3&#45;&gt;Node18 -->
<g id="edge27" class="edge">
<title>Node3&#45;&gt;Node18</title>
<path fill="none" stroke="midnightblue" d="M417,-280.08C417,-273.01 417,-262.86 417,-253.99"/>
<polygon fill="midnightblue" stroke="midnightblue" points="420.5,-253.75 417,-243.75 413.5,-253.75 420.5,-253.75"/>
</g>
<!-- Node20 -->
<g id="node20" class="node">
<title>Node20</title>
<g id="a_node20"><a xlink:href="rcrblockwithdistalpressure_8hpp.html" target="_top" xlink:title="MODEL::RCRBlockWithDistalPressure source file.">
<polygon fill="none" stroke="black" points="208,-224.5 208,-243.5 356,-243.5 356,-224.5 208,-224.5"/>
<text text-anchor="middle" x="282" y="-231.5" font-family="Helvetica,sans-Serif" font-size="10.00">rcrblockwithdistalpressure.hpp</text>
</a>
</g>
</g>
<!-- Node3&#45;&gt;Node20 -->
<g id="edge32" class="edge">
<title>Node3&#45;&gt;Node20</title>
<path fill="none" stroke="midnightblue" d="M395.61,-280.44C373.29,-271.52 338.1,-257.44 312.79,-247.32"/>
<polygon fill="midnightblue" stroke="midnightblue" points="313.88,-243.98 303.29,-243.52 311.28,-250.48 313.88,-243.98"/>
</g>
<!-- Node21 -->
<g id="node21" class="node">
<title>Node21</title>
<g id="a_node21"><a xlink:href="flowreference_8hpp.html" target="_top" xlink:title="MODEL::FlowReference source file.">
<polygon fill="none" stroke="black" points="590,-224.5 590,-243.5 682,-243.5 682,-224.5 590,-224.5"/>
<text text-anchor="middle" x="636" y="-231.5" font-family="Helvetica,sans-Serif" font-size="10.00">flowreference.hpp</text>
</a>
</g>
</g>
<!-- Node3&#45;&gt;Node21 -->
<g id="edge36" class="edge">
<title>Node3&#45;&gt;Node21</title>
<path fill="none" stroke="midnightblue" d="M451.7,-280.44C489.58,-271.1 550.35,-256.12 591.66,-245.93"/>
<polygon fill="midnightblue" stroke="midnightblue" points="592.59,-249.31 601.46,-243.52 590.91,-242.51 592.59,-249.31"/>
</g>
<!-- Node7&#45;&gt;Node2 -->
<g id="edge7" class="edge">
<title>Node7&#45;&gt;Node2</title>
<path fill="none" stroke="midnightblue" d="M139.79,-112.32C128.22,-104.11 110.62,-91.6 96.84,-81.81"/>
<polygon fill="midnightblue" stroke="midnightblue" points="98.61,-78.77 88.43,-75.83 94.56,-84.48 98.61,-78.77"/>
</g>
<!-- Node8&#45;&gt;Node3 -->
<g id="edge12" class="edge">
<title>Node8&#45;&gt;Node3</title>
<path fill="none" stroke="midnightblue" d="M313.69,-131.51C288.93,-150.95 219.87,-198.9 208,-224 204.2,-232.04 202.39,-237.11 208,-244 226.93,-267.23 302.94,-278.83 357.92,-284.37"/>
<polygon fill="midnightblue" stroke="midnightblue" points="357.63,-287.86 367.92,-285.33 358.3,-280.89 357.63,-287.86"/>
</g>
<!-- Node9 -->
<g id="node9" class="node">
<title>Node9</title>
<g id="a_node9"><a xlink:title=" ">
<polygon fill="none" stroke="#bfbfbf" points="285,-56.5 285,-75.5 359,-75.5 359,-56.5 285,-56.5"/>
<text text-anchor="middle" x="322" y="-63.5" font-family="Helvetica,sans-Serif" font-size="10.00">Eigen/Sparse</text>
</a>
</g>
</g>
<!-- Node8&#45;&gt;Node9 -->
<g id="edge9" class="edge">
<title>Node8&#45;&gt;Node9</title>
<path fill="none" stroke="midnightblue" d="M322,-112.08C322,-105.01 322,-94.86 322,-85.99"/>
<polygon fill="midnightblue" stroke="midnightblue" points="325.5,-85.75 322,-75.75 318.5,-85.75 325.5,-85.75"/>
</g>
<!-- Node10 -->
<g id="node10" class="node">
<title>Node10</title>
<g id="a_node10"><a xlink:title=" ">
<polygon fill="none" stroke="#bfbfbf" points="377,-56.5 377,-75.5 465,-75.5 465,-56.5 377,-56.5"/>
<text text-anchor="middle" x="421" y="-63.5" font-family="Helvetica,sans-Serif" font-size="10.00">Eigen/SparseLU</text>
</a>
</g>
</g>
<!-- Node8&#45;&gt;Node10 -->
<g id="edge10" class="edge">
<title>Node8&#45;&gt;Node10</title>
<path fill="none" stroke="midnightblue" d="M337.91,-112.32C353.64,-103.74 377.94,-90.49 396.21,-80.52"/>
<polygon fill="midnightblue" stroke="midnightblue" points="398.03,-83.52 405.13,-75.65 394.68,-77.37 398.03,-83.52"/>
</g>
<!-- Node11 -->
<g id="node11" class="node">
<title>Node11</title>
<g id="a_node11"><a xlink:title=" ">
<polygon fill="none" stroke="#bfbfbf" points="213,-56.5 213,-75.5 267,-75.5 267,-56.5 213,-56.5"/>
<text text-anchor="middle" x="240" y="-63.5" font-family="Helvetica,sans-Serif" font-size="10.00">iostream</text>
</a>
</g>
</g>
<!-- Node8&#45;&gt;Node11 -->
<g id="edge11" class="edge">
<title>Node8&#45;&gt;Node11</title>
<path fill="none" stroke="midnightblue" d="M308.83,-112.32C296.15,-103.98 276.77,-91.21 261.79,-81.35"/>
<polygon fill="midnightblue" stroke="midnightblue" points="263.42,-78.23 253.14,-75.65 259.57,-84.08 263.42,-78.23"/>
</g>
<!-- Node12&#45;&gt;Node7 -->
<g id="edge14" class="edge">
<title>Node12&#45;&gt;Node7</title>
<path fill="none" stroke="midnightblue" d="M97.77,-224.1C94.99,-211.1 91.56,-186.47 100,-168 105.78,-155.36 117.05,-144.91 127.63,-137.27"/>
<polygon fill="midnightblue" stroke="midnightblue" points="129.85,-140 136.22,-131.53 125.96,-134.18 129.85,-140"/>
</g>
<!-- Node12&#45;&gt;Node8 -->
<g id="edge15" class="edge">
<title>Node12&#45;&gt;Node8</title>
<path fill="none" stroke="midnightblue" d="M117.42,-224.37C156.16,-205.17 249.66,-158.84 295.61,-136.07"/>
<polygon fill="midnightblue" stroke="midnightblue" points="297.25,-139.17 304.66,-131.59 294.15,-132.9 297.25,-139.17"/>
</g>
<!-- Node13 -->
<g id="node13" class="node">
<title>Node13</title>
<g id="a_node13"><a xlink:href="block_8hpp.html" target="_top" xlink:title="MODEL::Block source file.">
<polygon fill="none" stroke="black" points="454,-168.5 454,-187.5 512,-187.5 512,-168.5 454,-168.5"/>
<text text-anchor="middle" x="483" y="-175.5" font-family="Helvetica,sans-Serif" font-size="10.00">block.hpp</text>
</a>
</g>
</g>
<!-- Node12&#45;&gt;Node13 -->
<g id="edge16" class="edge">
<title>Node12&#45;&gt;Node13</title>
<path fill="none" stroke="midnightblue" d="M134.33,-228.16C205.52,-218.12 368.87,-195.09 443.95,-184.51"/>
<polygon fill="midnightblue" stroke="midnightblue" points="444.53,-187.96 453.94,-183.1 443.55,-181.03 444.53,-187.96"/>
</g>
<!-- Node13&#45;&gt;Node4 -->
<g id="edge18" class="edge">
<title>Node13&#45;&gt;Node4</title>
<path fill="none" stroke="midnightblue" d="M512.01,-171.02C547.78,-163.46 610.62,-149.58 673.65,-131.89"/>
<polygon fill="midnightblue" stroke="midnightblue" points="674.69,-135.23 683.35,-129.14 672.78,-128.5 674.69,-135.23"/>
</g>
<!-- Node13&#45;&gt;Node7 -->
<g id="edge25" class="edge">
<title>Node13&#45;&gt;Node7</title>
<path fill="none" stroke="midnightblue" d="M453.92,-172.26C400.61,-163.56 286.18,-144.89 214.51,-133.2"/>
<polygon fill="midnightblue" stroke="midnightblue" points="214.69,-129.68 204.26,-131.53 213.56,-136.59 214.69,-129.68"/>
</g>
<!-- Node13&#45;&gt;Node8 -->
<g id="edge26" class="edge">
<title>Node13&#45;&gt;Node8</title>
<path fill="none" stroke="midnightblue" d="M457.49,-168.44C430.4,-159.36 387.41,-144.94 357.13,-134.78"/>
<polygon fill="midnightblue" stroke="midnightblue" points="357.99,-131.38 347.39,-131.52 355.76,-138.01 357.99,-131.38"/>
</g>
<!-- Node14 -->
<g id="node14" class="node">
<title>Node14</title>
<g id="a_node14"><a xlink:title=" ">
<polygon fill="none" stroke="#bfbfbf" points="683,-0.5 683,-19.5 727,-19.5 727,-0.5 683,-0.5"/>
<text text-anchor="middle" x="705" y="-7.5" font-family="Helvetica,sans-Serif" font-size="10.00">vector</text>
</a>
</g>
</g>
<!-- Node13&#45;&gt;Node14 -->
<g id="edge17" class="edge">
<title>Node13&#45;&gt;Node14</title>
<path fill="none" stroke="midnightblue" d="M492.73,-168.29C507.1,-155.52 535.02,-131.18 560,-112 602.6,-79.3 654.74,-44.09 683.45,-25.1"/>
<polygon fill="midnightblue" stroke="midnightblue" points="685.49,-27.95 691.91,-19.53 681.64,-22.11 685.49,-27.95"/>
</g>
<!-- Node13&#45;&gt;Node15 -->
<g id="edge19" class="edge">
<title>Node13&#45;&gt;Node15</title>
<path fill="none" stroke="midnightblue" d="M507.4,-168.44C533.2,-159.4 574.08,-145.06 603.02,-134.92"/>
<polygon fill="midnightblue" stroke="midnightblue" points="604.43,-138.13 612.71,-131.52 602.12,-131.52 604.43,-138.13"/>
</g>
<!-- Node13&#45;&gt;Node17 -->
<g id="edge24" class="edge">
<title>Node13&#45;&gt;Node17</title>
<path fill="none" stroke="midnightblue" d="M497.52,-168.3C519.39,-155.35 562.24,-130.52 600,-112 624.44,-100.01 652.86,-87.94 673.96,-79.33"/>
<polygon fill="midnightblue" stroke="midnightblue" points="675.44,-82.5 683.39,-75.51 672.81,-76.02 675.44,-82.5"/>
</g>
<!-- Node16 -->
<g id="node16" class="node">
<title>Node16</title>
<g id="a_node16"><a xlink:title=" ">
<polygon fill="none" stroke="#bfbfbf" points="620.5,-0.5 620.5,-19.5 661.5,-19.5 661.5,-0.5 620.5,-0.5"/>
<text text-anchor="middle" x="641" y="-7.5" font-family="Helvetica,sans-Serif" font-size="10.00">string</text>
</a>
</g>
</g>
<!-- Node15&#45;&gt;Node16 -->
<g id="edge20" class="edge">
<title>Node15&#45;&gt;Node16</title>
<path fill="none" stroke="midnightblue" d="M637.31,-112.37C637.96,-94.62 639.45,-53.67 640.32,-29.6"/>
<polygon fill="midnightblue" stroke="midnightblue" points="643.82,-29.71 640.69,-19.59 636.83,-29.46 643.82,-29.71"/>
</g>
<!-- Node15&#45;&gt;Node17 -->
<g id="edge21" class="edge">
<title>Node15&#45;&gt;Node17</title>
<path fill="none" stroke="midnightblue" d="M647.93,-112.32C658.17,-104.18 673.72,-91.84 686,-82.09"/>
<polygon fill="midnightblue" stroke="midnightblue" points="688.22,-84.79 693.88,-75.83 683.87,-79.31 688.22,-84.79"/>
</g>
<!-- Node17&#45;&gt;Node14 -->
<g id="edge22" class="edge">
<title>Node17&#45;&gt;Node14</title>
<path fill="none" stroke="midnightblue" d="M705,-56.08C705,-49.01 705,-38.86 705,-29.99"/>
<polygon fill="midnightblue" stroke="midnightblue" points="708.5,-29.75 705,-19.75 701.5,-29.75 708.5,-29.75"/>
</g>
<!-- Node17&#45;&gt;Node16 -->
<g id="edge23" class="edge">
<title>Node17&#45;&gt;Node16</title>
<path fill="none" stroke="midnightblue" d="M694.72,-56.32C685.16,-48.26 670.72,-36.08 659.22,-26.37"/>
<polygon fill="midnightblue" stroke="midnightblue" points="661.37,-23.61 651.47,-19.83 656.86,-28.96 661.37,-23.61"/>
</g>
<!-- Node18&#45;&gt;Node7 -->
<g id="edge30" class="edge">
<title>Node18&#45;&gt;Node7</title>
<path fill="none" stroke="midnightblue" d="M373.97,-224.85C318.6,-214.15 227.83,-195.8 214,-188 193.08,-176.2 174.89,-155.07 163.72,-140.11"/>
<polygon fill="midnightblue" stroke="midnightblue" points="166.38,-137.81 157.7,-131.73 160.69,-141.89 166.38,-137.81"/>
</g>
<!-- Node18&#45;&gt;Node8 -->
<g id="edge31" class="edge">
<title>Node18&#45;&gt;Node8</title>
<path fill="none" stroke="midnightblue" d="M409.55,-224.37C393.73,-206.05 356.59,-163.05 336.13,-139.36"/>
<polygon fill="midnightblue" stroke="midnightblue" points="338.6,-136.87 329.42,-131.59 333.31,-141.45 338.6,-136.87"/>
</g>
<!-- Node18&#45;&gt;Node13 -->
<g id="edge29" class="edge">
<title>Node18&#45;&gt;Node13</title>
<path fill="none" stroke="midnightblue" d="M427.6,-224.32C437.46,-216.26 452.35,-204.08 464.22,-194.37"/>
<polygon fill="midnightblue" stroke="midnightblue" points="466.68,-196.88 472.2,-187.83 462.25,-191.46 466.68,-196.88"/>
</g>
<!-- Node19 -->
<g id="node19" class="node">
<title>Node19</title>
<g id="a_node19"><a xlink:title=" ">
<polygon fill="none" stroke="#bfbfbf" points="737,-112.5 737,-131.5 783,-131.5 783,-112.5 737,-112.5"/>
<text text-anchor="middle" x="760" y="-119.5" font-family="Helvetica,sans-Serif" font-size="10.00">math.h</text>
</a>
</g>
</g>
<!-- Node18&#45;&gt;Node19 -->
<g id="edge28" class="edge">
<title>Node18&#45;&gt;Node19</title>
<path fill="none" stroke="midnightblue" d="M443.63,-224.46C505.61,-204.58 659.39,-155.26 727.1,-133.55"/>
<polygon fill="midnightblue" stroke="midnightblue" points="728.37,-136.82 736.83,-130.43 726.24,-130.15 728.37,-136.82"/>
</g>
<!-- Node20&#45;&gt;Node7 -->
<g id="edge33" class="edge">
<title>Node20&#45;&gt;Node7</title>
<path fill="none" stroke="midnightblue" d="M242.5,-224.47C220.36,-217.86 193.73,-206.59 176,-188 163.95,-175.36 157.85,-156.15 154.82,-141.89"/>
<polygon fill="midnightblue" stroke="midnightblue" points="158.21,-140.96 153,-131.73 151.32,-142.19 158.21,-140.96"/>
</g>
<!-- Node20&#45;&gt;Node8 -->
<g id="edge34" class="edge">
<title>Node20&#45;&gt;Node8</title>
<path fill="none" stroke="midnightblue" d="M285.14,-224.37C291.62,-206.54 306.62,-165.3 315.36,-141.27"/>
<polygon fill="midnightblue" stroke="midnightblue" points="318.75,-142.19 318.88,-131.59 312.17,-139.79 318.75,-142.19"/>
</g>
<!-- Node20&#45;&gt;Node13 -->
<g id="edge35" class="edge">
<title>Node20&#45;&gt;Node13</title>
<path fill="none" stroke="midnightblue" d="M313.85,-224.44C349.21,-214.94 406.3,-199.61 444.23,-189.42"/>
<polygon fill="midnightblue" stroke="midnightblue" points="445.16,-192.79 453.91,-186.82 443.34,-186.03 445.16,-192.79"/>
</g>
<!-- Node21&#45;&gt;Node7 -->
<g id="edge37" class="edge">
<title>Node21&#45;&gt;Node7</title>
<path fill="none" stroke="midnightblue" d="M598.42,-224.46C511.31,-204.66 295.7,-155.66 199.57,-133.81"/>
<polygon fill="midnightblue" stroke="midnightblue" points="200.08,-130.34 189.55,-131.53 198.53,-137.16 200.08,-130.34"/>
</g>
<!-- Node21&#45;&gt;Node8 -->
<g id="edge38" class="edge">
<title>Node21&#45;&gt;Node8</title>
<path fill="none" stroke="midnightblue" d="M623.5,-224.3C603.01,-210.42 560.58,-183.28 521,-168 478.99,-151.78 429.62,-140.57 390.57,-133.4"/>
<polygon fill="midnightblue" stroke="midnightblue" points="390.82,-129.89 380.36,-131.57 389.59,-136.78 390.82,-129.89"/>
</g>
<!-- Node21&#45;&gt;Node13 -->
<g id="edge39" class="edge">
<title>Node21&#45;&gt;Node13</title>
<path fill="none" stroke="midnightblue" d="M611.76,-224.44C586.13,-215.4 545.51,-201.06 516.76,-190.92"/>
<polygon fill="midnightblue" stroke="midnightblue" points="517.72,-187.54 507.13,-187.52 515.39,-194.15 517.72,-187.54"/>
</g>
<!-- Node22 -->
<g id="node22" class="node">
<title>Node22</title>
<g id="a_node22"><a xlink:href="timedependentparameter_8hpp.html" target="_top" xlink:title="MODEL::TimeDependentParameter source file.">
<polygon fill="none" stroke="black" points="776,-168.5 776,-187.5 918,-187.5 918,-168.5 776,-168.5"/>
<text text-anchor="middle" x="847" y="-175.5" font-family="Helvetica,sans-Serif" font-size="10.00">timedependentparameter.hpp</text>
</a>
</g>
</g>
<!-- Node21&#45;&gt;Node22 -->
<g id="edge40" class="edge">
<title>Node21&#45;&gt;Node22</title>
<path fill="none" stroke="midnightblue" d="M669.43,-224.44C705.86,-215.12 764.23,-200.18 804.03,-190"/>
<polygon fill="midnightblue" stroke="midnightblue" points="804.9,-193.39 813.72,-187.52 803.17,-186.61 804.9,-193.39"/>
</g>
<!-- Node22&#45;&gt;Node14 -->
<g id="edge42" class="edge">
<title>Node22&#45;&gt;Node14</title>
<path fill="none" stroke="midnightblue" d="M863.19,-168.34C883.27,-156.41 913.32,-133.89 900,-112 864.34,-53.37 782.44,-27.26 736.94,-16.92"/>
<polygon fill="midnightblue" stroke="midnightblue" points="737.52,-13.47 727.01,-14.78 736.05,-20.31 737.52,-13.47"/>
</g>
<!-- Node22&#45;&gt;Node17 -->
<g id="edge44" class="edge">
<title>Node22&#45;&gt;Node17</title>
<path fill="none" stroke="midnightblue" d="M841.44,-168.49C832.38,-155.12 813.27,-128.95 792,-112 775.17,-98.59 753.72,-87.44 736.33,-79.59"/>
<polygon fill="midnightblue" stroke="midnightblue" points="737.7,-76.37 727.14,-75.58 734.9,-82.79 737.7,-76.37"/>
</g>
<!-- Node22&#45;&gt;Node19 -->
<g id="edge41" class="edge">
<title>Node22&#45;&gt;Node19</title>
<path fill="none" stroke="midnightblue" d="M833.02,-168.32C819.45,-159.9 798.62,-146.97 782.68,-137.07"/>
<polygon fill="midnightblue" stroke="midnightblue" points="784.29,-133.95 773.94,-131.65 780.59,-139.9 784.29,-133.95"/>
</g>
<!-- Node23 -->
<g id="node23" class="node">
<title>Node23</title>
<g id="a_node23"><a xlink:title=" ">
<polygon fill="none" stroke="#bfbfbf" points="839.5,-112.5 839.5,-131.5 890.5,-131.5 890.5,-112.5 839.5,-112.5"/>
<text text-anchor="middle" x="865" y="-119.5" font-family="Helvetica,sans-Serif" font-size="10.00">numeric</text>
</a>
</g>
</g>
<!-- Node22&#45;&gt;Node23 -->
<g id="edge43" class="edge">
<title>Node22&#45;&gt;Node23</title>
<path fill="none" stroke="midnightblue" d="M849.97,-168.08C852.38,-160.85 855.86,-150.41 858.87,-141.4"/>
<polygon fill="midnightblue" stroke="midnightblue" points="862.24,-142.34 862.08,-131.75 855.6,-140.13 862.24,-142.34"/>
</g>
</g>
</svg>
