<?xml version="1.0" encoding="UTF-8" standalone="no"?>
<!DOCTYPE svg PUBLIC "-//W3C//DTD SVG 1.1//EN"
 "http://www.w3.org/Graphics/SVG/1.1/DTD/svg11.dtd">
<!-- Generated by graphviz version 3.0.0 (20220413.0242)
 -->
<!-- Title: io/jsonwriter.hpp Pages: 1 -->
<svg width="1068pt" height="364pt"
 viewBox="0.00 0.00 1068.00 364.00" xmlns="http://www.w3.org/2000/svg" xmlns:xlink="http://www.w3.org/1999/xlink">
<g id="graph0" class="graph" transform="scale(1 1) rotate(0) translate(4 360)">
<title>io/jsonwriter.hpp</title>
<!-- Node1 -->
<g id="node1" class="node">
<title>Node1</title>
<g id="a_node1"><a xlink:title="IO::write_json source file.">
<polygon fill="#bfbfbf" stroke="black" points="559.5,-336.5 559.5,-355.5 646.5,-355.5 646.5,-336.5 559.5,-336.5"/>
<text text-anchor="middle" x="603" y="-343.5" font-family="Helvetica,sans-Serif" font-size="10.00">io/jsonwriter.hpp</text>
</a>
</g>
</g>
<!-- Node2 -->
<g id="node2" class="node">
<title>Node2</title>
<g id="a_node2"><a xlink:title=" ">
<polygon fill="none" stroke="#bfbfbf" points="0,-280.5 0,-299.5 100,-299.5 100,-280.5 0,-280.5"/>
<text text-anchor="middle" x="50" y="-287.5" font-family="Helvetica,sans-Serif" font-size="10.00">jsoncpp/json/json.h</text>
</a>
</g>
</g>
<!-- Node1&#45;&gt;Node2 -->
<g id="edge1" class="edge">
<title>Node1&#45;&gt;Node2</title>
<path fill="none" stroke="midnightblue" d="M559.42,-341.7C473.89,-335.05 278.08,-319.07 114,-300 112.75,-299.85 111.48,-299.7 110.2,-299.55"/>
<polygon fill="midnightblue" stroke="midnightblue" points="110.64,-296.08 100.28,-298.3 109.76,-303.02 110.64,-296.08"/>
</g>
<!-- Node3 -->
<g id="node3" class="node">
<title>Node3</title>
<g id="a_node3"><a xlink:title=" ">
<polygon fill="none" stroke="#bfbfbf" points="593,-0.5 593,-19.5 637,-19.5 637,-0.5 593,-0.5"/>
<text text-anchor="middle" x="615" y="-7.5" font-family="Helvetica,sans-Serif" font-size="10.00">vector</text>
</a>
</g>
</g>
<!-- Node1&#45;&gt;Node3 -->
<g id="edge2" class="edge">
<title>Node1&#45;&gt;Node3</title>
<path fill="none" stroke="midnightblue" d="M559.16,-344.13C441.57,-340.63 128,-323.03 128,-235 128,-235 128,-235 128,-121 128,-27.47 474.1,-13.46 582.77,-11.37"/>
<polygon fill="midnightblue" stroke="midnightblue" points="582.87,-14.87 592.81,-11.19 582.75,-7.87 582.87,-14.87"/>
</g>
<!-- Node4 -->
<g id="node4" class="node">
<title>Node4</title>
<g id="a_node4"><a xlink:href="state_8hpp.html" target="_top" xlink:title="ALGEBRA::State source file.">
<polygon fill="none" stroke="black" points="962,-280.5 962,-299.5 1060,-299.5 1060,-280.5 962,-280.5"/>
<text text-anchor="middle" x="1011" y="-287.5" font-family="Helvetica,sans-Serif" font-size="10.00">../algebra/state.hpp</text>
</a>
</g>
</g>
<!-- Node1&#45;&gt;Node4 -->
<g id="edge3" class="edge">
<title>Node1&#45;&gt;Node4</title>
<path fill="none" stroke="midnightblue" d="M646.59,-339.49C712.07,-331.17 839.68,-314.8 948,-300 949.26,-299.83 950.54,-299.65 951.83,-299.47"/>
<polygon fill="midnightblue" stroke="midnightblue" points="952.4,-302.93 961.83,-298.08 951.44,-295.99 952.4,-302.93"/>
</g>
<!-- Node5 -->
<g id="node5" class="node">
<title>Node5</title>
<g id="a_node5"><a xlink:href="model_8hpp.html" target="_top" xlink:title="MODEL::Model source file.">
<polygon fill="none" stroke="black" points="554,-280.5 554,-299.5 652,-299.5 652,-280.5 554,-280.5"/>
<text text-anchor="middle" x="603" y="-287.5" font-family="Helvetica,sans-Serif" font-size="10.00">../model/model.hpp</text>
</a>
</g>
</g>
<!-- Node1&#45;&gt;Node5 -->
<g id="edge4" class="edge">
<title>Node1&#45;&gt;Node5</title>
<path fill="none" stroke="midnightblue" d="M603,-336.08C603,-329.01 603,-318.86 603,-309.99"/>
<polygon fill="midnightblue" stroke="midnightblue" points="606.5,-309.75 603,-299.75 599.5,-309.75 606.5,-309.75"/>
</g>
<!-- Node25 -->
<g id="node25" class="node">
<title>Node25</title>
<g id="a_node25"><a xlink:href="startswith_8hpp.html" target="_top" xlink:title="HELPERS::startswith source file.">
<polygon fill="none" stroke="black" points="924.5,-168.5 924.5,-187.5 1043.5,-187.5 1043.5,-168.5 924.5,-168.5"/>
<text text-anchor="middle" x="984" y="-175.5" font-family="Helvetica,sans-Serif" font-size="10.00">../helpers/startswith.hpp</text>
</a>
</g>
</g>
<!-- Node1&#45;&gt;Node25 -->
<g id="edge47" class="edge">
<title>Node1&#45;&gt;Node25</title>
<path fill="none" stroke="midnightblue" d="M637.94,-336.42C693.96,-321.9 806.47,-289.54 894,-244 920.79,-230.06 948.5,-208.83 965.97,-194.46"/>
<polygon fill="midnightblue" stroke="midnightblue" points="968.69,-196.75 974.11,-187.65 964.2,-191.38 968.69,-196.75"/>
</g>
<!-- Node6 -->
<g id="node6" class="node">
<title>Node6</title>
<g id="a_node6"><a xlink:title=" ">
<polygon fill="none" stroke="#bfbfbf" points="584.5,-112.5 584.5,-131.5 619.5,-131.5 619.5,-112.5 584.5,-112.5"/>
<text text-anchor="middle" x="602" y="-119.5" font-family="Helvetica,sans-Serif" font-size="10.00">map</text>
</a>
</g>
</g>
<!-- Node5&#45;&gt;Node6 -->
<g id="edge5" class="edge">
<title>Node5&#45;&gt;Node6</title>
<path fill="none" stroke="midnightblue" d="M652.44,-284.7C704.91,-279 782.75,-266.87 801,-244 806.55,-237.05 806.32,-231.12 801,-224 767.15,-178.72 728.77,-214.81 679,-188 655.09,-175.12 631.86,-153.96 617.28,-139.29"/>
<polygon fill="midnightblue" stroke="midnightblue" points="619.59,-136.65 610.12,-131.91 614.57,-141.53 619.59,-136.65"/>
</g>
<!-- Node7 -->
<g id="node7" class="node">
<title>Node7</title>
<g id="a_node7"><a xlink:title=" ">
<polygon fill="none" stroke="#bfbfbf" points="588.5,-224.5 588.5,-243.5 617.5,-243.5 617.5,-224.5 588.5,-224.5"/>
<text text-anchor="middle" x="603" y="-231.5" font-family="Helvetica,sans-Serif" font-size="10.00">list</text>
</a>
</g>
</g>
<!-- Node5&#45;&gt;Node7 -->
<g id="edge6" class="edge">
<title>Node5&#45;&gt;Node7</title>
<path fill="none" stroke="midnightblue" d="M603,-280.08C603,-273.01 603,-262.86 603,-253.99"/>
<polygon fill="midnightblue" stroke="midnightblue" points="606.5,-253.75 603,-243.75 599.5,-253.75 606.5,-253.75"/>
</g>
<!-- Node8 -->
<g id="node8" class="node">
<title>Node8</title>
<g id="a_node8"><a xlink:title=" ">
<polygon fill="none" stroke="#bfbfbf" points="636,-224.5 636,-243.5 682,-243.5 682,-224.5 636,-224.5"/>
<text text-anchor="middle" x="659" y="-231.5" font-family="Helvetica,sans-Serif" font-size="10.00">variant</text>
</a>
</g>
</g>
<!-- Node5&#45;&gt;Node8 -->
<g id="edge7" class="edge">
<title>Node5&#45;&gt;Node8</title>
<path fill="none" stroke="midnightblue" d="M612,-280.32C620.19,-272.42 632.51,-260.55 642.47,-250.94"/>
<polygon fill="midnightblue" stroke="midnightblue" points="645.07,-253.29 649.84,-243.83 640.21,-248.26 645.07,-253.29"/>
</g>
<!-- Node9 -->
<g id="node9" class="node">
<title>Node9</title>
<g id="a_node9"><a xlink:href="densesystem_8hpp.html" target="_top" xlink:title="ALGEBRA::DenseSystem source file.">
<polygon fill="none" stroke="black" points="200,-112.5 200,-131.5 334,-131.5 334,-112.5 200,-112.5"/>
<text text-anchor="middle" x="267" y="-119.5" font-family="Helvetica,sans-Serif" font-size="10.00">../algebra/densesystem.hpp</text>
</a>
</g>
</g>
<!-- Node5&#45;&gt;Node9 -->
<g id="edge8" class="edge">
<title>Node5&#45;&gt;Node9</title>
<path fill="none" stroke="midnightblue" d="M553.84,-286.98C453.29,-282.34 231.6,-269.33 209,-244 180.33,-211.87 223.32,-163.04 249.42,-138.39"/>
<polygon fill="midnightblue" stroke="midnightblue" points="251.86,-140.89 256.88,-131.56 247.14,-135.73 251.86,-140.89"/>
</g>
<!-- Node11 -->
<g id="node11" class="node">
<title>Node11</title>
<g id="a_node11"><a xlink:href="sparsesystem_8hpp.html" target="_top" xlink:title="ALGEBRA::SparseSystem source file.">
<polygon fill="none" stroke="black" points="352.5,-112.5 352.5,-131.5 489.5,-131.5 489.5,-112.5 352.5,-112.5"/>
<text text-anchor="middle" x="421" y="-119.5" font-family="Helvetica,sans-Serif" font-size="10.00">../algebra/sparsesystem.hpp</text>
</a>
</g>
</g>
<!-- Node5&#45;&gt;Node11 -->
<g id="edge10" class="edge">
<title>Node5&#45;&gt;Node11</title>
<path fill="none" stroke="midnightblue" d="M553.73,-286.75C455.88,-281.78 244.62,-268.33 223,-244 174.38,-189.28 294.53,-151.28 368.36,-133.83"/>
<polygon fill="midnightblue" stroke="midnightblue" points="369.49,-137.16 378.45,-131.51 367.92,-130.34 369.49,-137.16"/>
</g>
<!-- Node14 -->
<g id="node14" class="node">
<title>Node14</title>
<g id="a_node14"><a xlink:href="junction_8hpp.html" target="_top" xlink:title="MODEL::Junction source file.">
<polygon fill="none" stroke="black" points="398,-224.5 398,-243.5 466,-243.5 466,-224.5 398,-224.5"/>
<text text-anchor="middle" x="432" y="-231.5" font-family="Helvetica,sans-Serif" font-size="10.00">junction.hpp</text>
</a>
</g>
</g>
<!-- Node5&#45;&gt;Node14 -->
<g id="edge13" class="edge">
<title>Node5&#45;&gt;Node14</title>
<path fill="none" stroke="midnightblue" d="M575.9,-280.44C547.01,-271.32 501.08,-256.81 468.89,-246.65"/>
<polygon fill="midnightblue" stroke="midnightblue" points="469.56,-243.19 458.97,-243.52 467.45,-249.87 469.56,-243.19"/>
</g>
<!-- Node16 -->
<g id="node16" class="node">
<title>Node16</title>
<g id="a_node16"><a xlink:href="node_8hpp.html" target="_top" xlink:title="MODEL::Node source file.">
<polygon fill="none" stroke="black" points="886,-112.5 886,-131.5 942,-131.5 942,-112.5 886,-112.5"/>
<text text-anchor="middle" x="914" y="-119.5" font-family="Helvetica,sans-Serif" font-size="10.00">node.hpp</text>
</a>
</g>
</g>
<!-- Node5&#45;&gt;Node16 -->
<g id="edge46" class="edge">
<title>Node5&#45;&gt;Node16</title>
<path fill="none" stroke="midnightblue" d="M652.01,-286.69C720.34,-282.51 839.53,-271.42 872,-244 902.62,-218.14 910.95,-168.71 913.19,-141.72"/>
<polygon fill="midnightblue" stroke="midnightblue" points="916.69,-141.86 913.82,-131.66 909.7,-141.42 916.69,-141.86"/>
</g>
<!-- Node18 -->
<g id="node18" class="node">
<title>Node18</title>
<g id="a_node18"><a xlink:href="dofhandler_8hpp.html" target="_top" xlink:title="MODEL::DOFHandler source file.">
<polygon fill="none" stroke="black" points="773,-56.5 773,-75.5 853,-75.5 853,-56.5 773,-56.5"/>
<text text-anchor="middle" x="813" y="-63.5" font-family="Helvetica,sans-Serif" font-size="10.00">dofhandler.hpp</text>
</a>
</g>
</g>
<!-- Node5&#45;&gt;Node18 -->
<g id="edge45" class="edge">
<title>Node5&#45;&gt;Node18</title>
<path fill="none" stroke="midnightblue" d="M652.35,-284.06C707.59,-277.61 792.57,-264.65 817,-244 862.42,-205.6 854.4,-169.45 839,-112 836.35,-102.1 830.93,-92.13 825.73,-84.1"/>
<polygon fill="midnightblue" stroke="midnightblue" points="828.46,-81.91 819.89,-75.68 822.71,-85.89 828.46,-81.91"/>
</g>
<!-- Node19 -->
<g id="node19" class="node">
<title>Node19</title>
<g id="a_node19"><a xlink:href="bloodvessel_8hpp.html" target="_top" xlink:title="MODEL::BloodVessel source file.">
<polygon fill="none" stroke="black" points="484,-224.5 484,-243.5 570,-243.5 570,-224.5 484,-224.5"/>
<text text-anchor="middle" x="527" y="-231.5" font-family="Helvetica,sans-Serif" font-size="10.00">bloodvessel.hpp</text>
</a>
</g>
</g>
<!-- Node5&#45;&gt;Node19 -->
<g id="edge27" class="edge">
<title>Node5&#45;&gt;Node19</title>
<path fill="none" stroke="midnightblue" d="M590.79,-280.32C579.22,-272.11 561.62,-259.6 547.84,-249.81"/>
<polygon fill="midnightblue" stroke="midnightblue" points="549.61,-246.77 539.43,-243.83 545.56,-252.48 549.61,-246.77"/>
</g>
<!-- Node21 -->
<g id="node21" class="node">
<title>Node21</title>
<g id="a_node21"><a xlink:href="rcrblockwithdistalpressure_8hpp.html" target="_top" xlink:title="MODEL::RCRBlockWithDistalPressure source file.">
<polygon fill="none" stroke="black" points="232,-224.5 232,-243.5 380,-243.5 380,-224.5 232,-224.5"/>
<text text-anchor="middle" x="306" y="-231.5" font-family="Helvetica,sans-Serif" font-size="10.00">rcrblockwithdistalpressure.hpp</text>
</a>
</g>
</g>
<!-- Node5&#45;&gt;Node21 -->
<g id="edge32" class="edge">
<title>Node5&#45;&gt;Node21</title>
<path fill="none" stroke="midnightblue" d="M555.94,-280.44C503.59,-270.92 419.01,-255.55 362.96,-245.36"/>
<polygon fill="midnightblue" stroke="midnightblue" points="363.31,-241.86 352.84,-243.52 362.05,-248.75 363.31,-241.86"/>
</g>
<!-- Node22 -->
<g id="node22" class="node">
<title>Node22</title>
<g id="a_node22"><a xlink:href="flowreference_8hpp.html" target="_top" xlink:title="MODEL::FlowReference source file.">
<polygon fill="none" stroke="black" points="700,-224.5 700,-243.5 792,-243.5 792,-224.5 700,-224.5"/>
<text text-anchor="middle" x="746" y="-231.5" font-family="Helvetica,sans-Serif" font-size="10.00">flowreference.hpp</text>
</a>
</g>
</g>
<!-- Node5&#45;&gt;Node22 -->
<g id="edge36" class="edge">
<title>Node5&#45;&gt;Node22</title>
<path fill="none" stroke="midnightblue" d="M625.66,-280.44C649.4,-271.48 686.91,-257.31 713.74,-247.18"/>
<polygon fill="midnightblue" stroke="midnightblue" points="715.33,-250.32 723.45,-243.52 712.86,-243.77 715.33,-250.32"/>
</g>
<!-- Node10 -->
<g id="node10" class="node">
<title>Node10</title>
<g id="a_node10"><a xlink:title=" ">
<polygon fill="none" stroke="#bfbfbf" points="220.5,-56.5 220.5,-75.5 291.5,-75.5 291.5,-56.5 220.5,-56.5"/>
<text text-anchor="middle" x="256" y="-63.5" font-family="Helvetica,sans-Serif" font-size="10.00">Eigen/Dense</text>
</a>
</g>
</g>
<!-- Node9&#45;&gt;Node10 -->
<g id="edge9" class="edge">
<title>Node9&#45;&gt;Node10</title>
<path fill="none" stroke="midnightblue" d="M265.18,-112.08C263.73,-104.93 261.63,-94.64 259.81,-85.69"/>
<polygon fill="midnightblue" stroke="midnightblue" points="263.21,-84.85 257.78,-75.75 256.35,-86.25 263.21,-84.85"/>
</g>
<!-- Node12 -->
<g id="node12" class="node">
<title>Node12</title>
<g id="a_node12"><a xlink:title=" ">
<polygon fill="none" stroke="#bfbfbf" points="310,-56.5 310,-75.5 384,-75.5 384,-56.5 310,-56.5"/>
<text text-anchor="middle" x="347" y="-63.5" font-family="Helvetica,sans-Serif" font-size="10.00">Eigen/Sparse</text>
</a>
</g>
</g>
<!-- Node11&#45;&gt;Node12 -->
<g id="edge11" class="edge">
<title>Node11&#45;&gt;Node12</title>
<path fill="none" stroke="midnightblue" d="M409.11,-112.32C397.85,-104.11 380.71,-91.6 367.29,-81.81"/>
<polygon fill="midnightblue" stroke="midnightblue" points="369.25,-78.9 359.11,-75.83 365.12,-84.56 369.25,-78.9"/>
</g>
<!-- Node13 -->
<g id="node13" class="node">
<title>Node13</title>
<g id="a_node13"><a xlink:title=" ">
<polygon fill="none" stroke="#bfbfbf" points="402,-56.5 402,-75.5 490,-75.5 490,-56.5 402,-56.5"/>
<text text-anchor="middle" x="446" y="-63.5" font-family="Helvetica,sans-Serif" font-size="10.00">Eigen/SparseLU</text>
</a>
</g>
</g>
<!-- Node11&#45;&gt;Node13 -->
<g id="edge12" class="edge">
<title>Node11&#45;&gt;Node13</title>
<path fill="none" stroke="midnightblue" d="M425.13,-112.08C428.51,-104.77 433.42,-94.18 437.62,-85.1"/>
<polygon fill="midnightblue" stroke="midnightblue" points="440.92,-86.3 441.95,-75.75 434.57,-83.36 440.92,-86.3"/>
</g>
<!-- Node14&#45;&gt;Node9 -->
<g id="edge14" class="edge">
<title>Node14&#45;&gt;Node9</title>
<path fill="none" stroke="midnightblue" d="M411.18,-224.38C392.4,-216.19 364.37,-202.94 342,-188 320,-173.3 297.4,-152.85 282.85,-138.83"/>
<polygon fill="midnightblue" stroke="midnightblue" points="285.24,-136.28 275.64,-131.79 280.34,-141.28 285.24,-136.28"/>
</g>
<!-- Node14&#45;&gt;Node11 -->
<g id="edge15" class="edge">
<title>Node14&#45;&gt;Node11</title>
<path fill="none" stroke="midnightblue" d="M431.14,-224.37C429.36,-206.62 425.27,-165.67 422.86,-141.6"/>
<polygon fill="midnightblue" stroke="midnightblue" points="426.34,-141.19 421.86,-131.59 419.37,-141.89 426.34,-141.19"/>
</g>
<!-- Node15 -->
<g id="node15" class="node">
<title>Node15</title>
<g id="a_node15"><a xlink:href="block_8hpp.html" target="_top" xlink:title="MODEL::Block source file.">
<polygon fill="none" stroke="black" points="498,-168.5 498,-187.5 556,-187.5 556,-168.5 498,-168.5"/>
<text text-anchor="middle" x="527" y="-175.5" font-family="Helvetica,sans-Serif" font-size="10.00">block.hpp</text>
</a>
</g>
</g>
<!-- Node14&#45;&gt;Node15 -->
<g id="edge16" class="edge">
<title>Node14&#45;&gt;Node15</title>
<path fill="none" stroke="midnightblue" d="M447.26,-224.32C462.22,-215.82 485.25,-202.73 502.73,-192.8"/>
<polygon fill="midnightblue" stroke="midnightblue" points="504.81,-195.64 511.77,-187.65 501.35,-189.55 504.81,-195.64"/>
</g>
<!-- Node15&#45;&gt;Node3 -->
<g id="edge17" class="edge">
<title>Node15&#45;&gt;Node3</title>
<path fill="none" stroke="midnightblue" d="M529.37,-168.33C533,-155.62 540.51,-131.35 550,-112 565.38,-80.65 588.45,-47.09 602.57,-27.63"/>
<polygon fill="midnightblue" stroke="midnightblue" points="605.44,-29.64 608.54,-19.51 599.8,-25.5 605.44,-29.64"/>
</g>
<!-- Node15&#45;&gt;Node6 -->
<g id="edge18" class="edge">
<title>Node15&#45;&gt;Node6</title>
<path fill="none" stroke="midnightblue" d="M539.05,-168.32C550.46,-160.11 567.83,-147.6 581.43,-137.81"/>
<polygon fill="midnightblue" stroke="midnightblue" points="583.66,-140.52 589.73,-131.83 579.57,-134.84 583.66,-140.52"/>
</g>
<!-- Node15&#45;&gt;Node9 -->
<g id="edge25" class="edge">
<title>Node15&#45;&gt;Node9</title>
<path fill="none" stroke="midnightblue" d="M497.93,-170.96C454.48,-161.94 371.98,-144.8 318.26,-133.65"/>
<polygon fill="midnightblue" stroke="midnightblue" points="318.76,-130.17 308.25,-131.57 317.33,-137.03 318.76,-130.17"/>
</g>
<!-- Node15&#45;&gt;Node11 -->
<g id="edge26" class="edge">
<title>Node15&#45;&gt;Node11</title>
<path fill="none" stroke="midnightblue" d="M509.97,-168.32C492.97,-159.66 466.62,-146.24 447.01,-136.25"/>
<polygon fill="midnightblue" stroke="midnightblue" points="448.49,-133.08 437.99,-131.65 445.31,-139.31 448.49,-133.08"/>
</g>
<!-- Node15&#45;&gt;Node16 -->
<g id="edge19" class="edge">
<title>Node15&#45;&gt;Node16</title>
<path fill="none" stroke="midnightblue" d="M556.09,-172.94C625.01,-163.32 798.24,-139.15 875.62,-128.35"/>
<polygon fill="midnightblue" stroke="midnightblue" points="876.47,-131.77 885.89,-126.92 875.5,-124.84 876.47,-131.77"/>
</g>
<!-- Node15&#45;&gt;Node18 -->
<g id="edge24" class="edge">
<title>Node15&#45;&gt;Node18</title>
<path fill="none" stroke="midnightblue" d="M530.98,-168.19C537.93,-153.9 553.68,-125.88 576,-112 633.23,-76.42 712.15,-67.79 762.89,-66.29"/>
<polygon fill="midnightblue" stroke="midnightblue" points="763.03,-69.78 772.95,-66.07 762.88,-62.79 763.03,-69.78"/>
</g>
<!-- Node17 -->
<g id="node17" class="node">
<title>Node17</title>
<g id="a_node17"><a xlink:title=" ">
<polygon fill="none" stroke="#bfbfbf" points="893.5,-0.5 893.5,-19.5 934.5,-19.5 934.5,-0.5 893.5,-0.5"/>
<text text-anchor="middle" x="914" y="-7.5" font-family="Helvetica,sans-Serif" font-size="10.00">string</text>
</a>
</g>
</g>
<!-- Node16&#45;&gt;Node17 -->
<g id="edge20" class="edge">
<title>Node16&#45;&gt;Node17</title>
<path fill="none" stroke="midnightblue" d="M914,-112.37C914,-94.62 914,-53.67 914,-29.6"/>
<polygon fill="midnightblue" stroke="midnightblue" points="917.5,-29.59 914,-19.59 910.5,-29.59 917.5,-29.59"/>
</g>
<!-- Node16&#45;&gt;Node18 -->
<g id="edge21" class="edge">
<title>Node16&#45;&gt;Node18</title>
<path fill="none" stroke="midnightblue" d="M897.77,-112.32C881.65,-103.7 856.7,-90.36 838.04,-80.39"/>
<polygon fill="midnightblue" stroke="midnightblue" points="839.66,-77.28 829.19,-75.65 836.36,-83.46 839.66,-77.28"/>
</g>
<!-- Node18&#45;&gt;Node3 -->
<g id="edge22" class="edge">
<title>Node18&#45;&gt;Node3</title>
<path fill="none" stroke="midnightblue" d="M781.63,-56.44C744.75,-46.39 683.89,-29.79 646.82,-19.68"/>
<polygon fill="midnightblue" stroke="midnightblue" points="647.6,-16.26 637.03,-17.01 645.76,-23.02 647.6,-16.26"/>
</g>
<!-- Node18&#45;&gt;Node17 -->
<g id="edge23" class="edge">
<title>Node18&#45;&gt;Node17</title>
<path fill="none" stroke="midnightblue" d="M829.23,-56.32C845.35,-47.7 870.3,-34.36 888.96,-24.39"/>
<polygon fill="midnightblue" stroke="midnightblue" points="890.64,-27.46 897.81,-19.65 887.34,-21.28 890.64,-27.46"/>
</g>
<!-- Node19&#45;&gt;Node9 -->
<g id="edge30" class="edge">
<title>Node19&#45;&gt;Node9</title>
<path fill="none" stroke="midnightblue" d="M491.15,-224.44C460.88,-216.65 416.72,-203.94 380,-188 362.09,-180.23 317.01,-153.42 289.51,-136.75"/>
<polygon fill="midnightblue" stroke="midnightblue" points="291.28,-133.74 280.92,-131.53 287.65,-139.72 291.28,-133.74"/>
</g>
<!-- Node19&#45;&gt;Node11 -->
<g id="edge31" class="edge">
<title>Node19&#45;&gt;Node11</title>
<path fill="none" stroke="midnightblue" d="M518.68,-224.37C500.96,-205.97 459.23,-162.67 436.47,-139.05"/>
<polygon fill="midnightblue" stroke="midnightblue" points="438.74,-136.36 429.28,-131.59 433.7,-141.22 438.74,-136.36"/>
</g>
<!-- Node19&#45;&gt;Node15 -->
<g id="edge29" class="edge">
<title>Node19&#45;&gt;Node15</title>
<path fill="none" stroke="midnightblue" d="M527,-224.08C527,-217.01 527,-206.86 527,-197.99"/>
<polygon fill="midnightblue" stroke="midnightblue" points="530.5,-197.75 527,-187.75 523.5,-197.75 530.5,-197.75"/>
</g>
<!-- Node20 -->
<g id="node20" class="node">
<title>Node20</title>
<g id="a_node20"><a xlink:title=" ">
<polygon fill="none" stroke="#bfbfbf" points="638,-112.5 638,-131.5 684,-131.5 684,-112.5 638,-112.5"/>
<text text-anchor="middle" x="661" y="-119.5" font-family="Helvetica,sans-Serif" font-size="10.00">math.h</text>
</a>
</g>
</g>
<!-- Node19&#45;&gt;Node20 -->
<g id="edge28" class="edge">
<title>Node19&#45;&gt;Node20</title>
<path fill="none" stroke="midnightblue" d="M537.51,-224.37C560.22,-205.73 614.06,-161.53 642.56,-138.13"/>
<polygon fill="midnightblue" stroke="midnightblue" points="645.03,-140.64 650.53,-131.59 640.58,-135.23 645.03,-140.64"/>
</g>
<!-- Node21&#45;&gt;Node9 -->
<g id="edge33" class="edge">
<title>Node21&#45;&gt;Node9</title>
<path fill="none" stroke="midnightblue" d="M294.73,-224.43C285.03,-216.27 271.72,-203.05 266,-188 260.36,-173.17 261.22,-155.01 263.14,-141.67"/>
<polygon fill="midnightblue" stroke="midnightblue" points="266.59,-142.22 264.88,-131.76 259.7,-141.01 266.59,-142.22"/>
</g>
<!-- Node21&#45;&gt;Node11 -->
<g id="edge34" class="edge">
<title>Node21&#45;&gt;Node11</title>
<path fill="none" stroke="midnightblue" d="M315.02,-224.37C334.34,-205.89 379.92,-162.29 404.54,-138.74"/>
<polygon fill="midnightblue" stroke="midnightblue" points="407.21,-141.03 412.02,-131.59 402.37,-135.97 407.21,-141.03"/>
</g>
<!-- Node21&#45;&gt;Node15 -->
<g id="edge35" class="edge">
<title>Node21&#45;&gt;Node15</title>
<path fill="none" stroke="midnightblue" d="M341.02,-224.44C381.05,-214.66 446.39,-198.7 488.01,-188.53"/>
<polygon fill="midnightblue" stroke="midnightblue" points="488.91,-191.91 497.79,-186.14 487.25,-185.11 488.91,-191.91"/>
</g>
<!-- Node22&#45;&gt;Node9 -->
<g id="edge37" class="edge">
<title>Node22&#45;&gt;Node9</title>
<path fill="none" stroke="midnightblue" d="M699.87,-225.21C631.5,-213.62 509.15,-192.7 489,-188 422.24,-172.43 345.8,-148.72 302.28,-134.65"/>
<polygon fill="midnightblue" stroke="midnightblue" points="303.32,-131.31 292.73,-131.55 301.16,-137.97 303.32,-131.31"/>
</g>
<!-- Node22&#45;&gt;Node11 -->
<g id="edge38" class="edge">
<title>Node22&#45;&gt;Node11</title>
<path fill="none" stroke="midnightblue" d="M723.25,-224.48C689.05,-211.76 622.29,-187.23 565,-168 529.35,-156.03 488.39,-143.34 459.3,-134.49"/>
<polygon fill="midnightblue" stroke="midnightblue" points="460.11,-131.08 449.53,-131.53 458.08,-137.78 460.11,-131.08"/>
</g>
<!-- Node22&#45;&gt;Node15 -->
<g id="edge39" class="edge">
<title>Node22&#45;&gt;Node15</title>
<path fill="none" stroke="midnightblue" d="M711.3,-224.44C671.83,-214.71 607.52,-198.85 566.25,-188.68"/>
<polygon fill="midnightblue" stroke="midnightblue" points="566.83,-185.22 556.28,-186.22 565.15,-192.01 566.83,-185.22"/>
</g>
<!-- Node23 -->
<g id="node23" class="node">
<title>Node23</title>
<g id="a_node23"><a xlink:href="timedependentparameter_8hpp.html" target="_top" xlink:title="MODEL::TimeDependentParameter source file.">
<polygon fill="none" stroke="black" points="688,-168.5 688,-187.5 830,-187.5 830,-168.5 688,-168.5"/>
<text text-anchor="middle" x="759" y="-175.5" font-family="Helvetica,sans-Serif" font-size="10.00">timedependentparameter.hpp</text>
</a>
</g>
</g>
<!-- Node22&#45;&gt;Node23 -->
<g id="edge40" class="edge">
<title>Node22&#45;&gt;Node23</title>
<path fill="none" stroke="midnightblue" d="M748.15,-224.08C749.87,-216.93 752.35,-206.64 754.5,-197.69"/>
<polygon fill="midnightblue" stroke="midnightblue" points="757.96,-198.29 756.89,-187.75 751.15,-196.65 757.96,-198.29"/>
</g>
<!-- Node23&#45;&gt;Node3 -->
<g id="edge42" class="edge">
<title>Node23&#45;&gt;Node3</title>
<path fill="none" stroke="midnightblue" d="M751.26,-168.08C728.1,-141.38 659.12,-61.87 629.16,-27.32"/>
<polygon fill="midnightblue" stroke="midnightblue" points="631.63,-24.83 622.43,-19.57 626.34,-29.42 631.63,-24.83"/>
</g>
<!-- Node23&#45;&gt;Node18 -->
<g id="edge44" class="edge">
<title>Node23&#45;&gt;Node18</title>
<path fill="none" stroke="midnightblue" d="M758.89,-168.08C759.07,-155.07 760.76,-130.41 770,-112 775.72,-100.61 785.29,-90.17 793.95,-82.22"/>
<polygon fill="midnightblue" stroke="midnightblue" points="796.25,-84.85 801.52,-75.66 791.67,-79.56 796.25,-84.85"/>
</g>
<!-- Node23&#45;&gt;Node20 -->
<g id="edge41" class="edge">
<title>Node23&#45;&gt;Node20</title>
<path fill="none" stroke="midnightblue" d="M743.25,-168.32C727.68,-159.74 703.62,-146.49 685.54,-136.52"/>
<polygon fill="midnightblue" stroke="midnightblue" points="687.15,-133.42 676.71,-131.65 683.78,-139.55 687.15,-133.42"/>
</g>
<!-- Node24 -->
<g id="node24" class="node">
<title>Node24</title>
<g id="a_node24"><a xlink:title=" ">
<polygon fill="none" stroke="#bfbfbf" points="778.5,-112.5 778.5,-131.5 829.5,-131.5 829.5,-112.5 778.5,-112.5"/>
<text text-anchor="middle" x="804" y="-119.5" font-family="Helvetica,sans-Serif" font-size="10.00">numeric</text>
</a>
</g>
</g>
<!-- Node23&#45;&gt;Node24 -->
<g id="edge43" class="edge">
<title>Node23&#45;&gt;Node24</title>
<path fill="none" stroke="midnightblue" d="M766.43,-168.08C772.85,-160.38 782.31,-149.03 790.12,-139.65"/>
<polygon fill="midnightblue" stroke="midnightblue" points="792.99,-141.67 796.71,-131.75 787.62,-137.19 792.99,-141.67"/>
</g>
<!-- Node25&#45;&gt;Node17 -->
<g id="edge48" class="edge">
<title>Node25&#45;&gt;Node17</title>
<path fill="none" stroke="midnightblue" d="M980.24,-168.08C969.17,-141.83 936.58,-64.55 921.64,-29.12"/>
<polygon fill="midnightblue" stroke="midnightblue" points="924.72,-27.42 917.61,-19.57 918.27,-30.14 924.72,-27.42"/>
</g>
</g>
</svg>
