<?xml version="1.0" encoding="UTF-8" standalone="no"?>
<!DOCTYPE svg PUBLIC "-//W3C//DTD SVG 1.1//EN"
 "http://www.w3.org/Graphics/SVG/1.1/DTD/svg11.dtd">
<!-- Generated by graphviz version 3.0.0 (20220413.0242)
 -->
<!-- Title: io/jsonwriter.hpp Pages: 1 -->
<svg width="1393pt" height="364pt"
 viewBox="0.00 0.00 1393.00 364.00" xmlns="http://www.w3.org/2000/svg" xmlns:xlink="http://www.w3.org/1999/xlink">
<g id="graph0" class="graph" transform="scale(1 1) rotate(0) translate(4 360)">
<title>io/jsonwriter.hpp</title>
<!-- Node1 -->
<g id="node1" class="node">
<title>Node1</title>
<g id="a_node1"><a xlink:title="IO::write_json source file.">
<polygon fill="#bfbfbf" stroke="black" points="715.5,-336.5 715.5,-355.5 802.5,-355.5 802.5,-336.5 715.5,-336.5"/>
<text text-anchor="middle" x="759" y="-343.5" font-family="Helvetica,sans-Serif" font-size="10.00">io/jsonwriter.hpp</text>
</a>
</g>
</g>
<!-- Node2 -->
<g id="node2" class="node">
<title>Node2</title>
<g id="a_node2"><a xlink:title=" ">
<polygon fill="none" stroke="#bfbfbf" points="0,-280.5 0,-299.5 42,-299.5 42,-280.5 0,-280.5"/>
<text text-anchor="middle" x="21" y="-287.5" font-family="Helvetica,sans-Serif" font-size="10.00">json.h</text>
</a>
</g>
</g>
<!-- Node1&#45;&gt;Node2 -->
<g id="edge1" class="edge">
<title>Node1&#45;&gt;Node2</title>
<path fill="none" stroke="midnightblue" d="M715.49,-345.04C604.71,-344.54 303.29,-339.35 56,-300 54.75,-299.8 53.47,-299.58 52.19,-299.33"/>
<polygon fill="midnightblue" stroke="midnightblue" points="52.86,-295.9 42.34,-297.16 51.35,-302.73 52.86,-295.9"/>
</g>
<!-- Node3 -->
<g id="node3" class="node">
<title>Node3</title>
<g id="a_node3"><a xlink:title=" ">
<polygon fill="none" stroke="#bfbfbf" points="562,-0.5 562,-19.5 606,-19.5 606,-0.5 562,-0.5"/>
<text text-anchor="middle" x="584" y="-7.5" font-family="Helvetica,sans-Serif" font-size="10.00">vector</text>
</a>
</g>
</g>
<!-- Node1&#45;&gt;Node3 -->
<g id="edge2" class="edge">
<title>Node1&#45;&gt;Node3</title>
<path fill="none" stroke="midnightblue" d="M715.38,-342.66C563.92,-333.98 70,-300.64 70,-235 70,-235 70,-235 70,-121 70,-21.99 439.32,-11.79 551.85,-10.99"/>
<polygon fill="midnightblue" stroke="midnightblue" points="551.93,-14.49 561.91,-10.94 551.9,-7.49 551.93,-14.49"/>
</g>
<!-- Node4 -->
<g id="node4" class="node">
<title>Node4</title>
<g id="a_node4"><a xlink:href="state_8hpp.html" target="_top" xlink:title="ALGEBRA::State source file.">
<polygon fill="none" stroke="black" points="1287,-280.5 1287,-299.5 1385,-299.5 1385,-280.5 1287,-280.5"/>
<text text-anchor="middle" x="1336" y="-287.5" font-family="Helvetica,sans-Serif" font-size="10.00">../algebra/state.hpp</text>
</a>
</g>
</g>
<!-- Node1&#45;&gt;Node4 -->
<g id="edge3" class="edge">
<title>Node1&#45;&gt;Node4</title>
<path fill="none" stroke="midnightblue" d="M802.74,-341.98C891.54,-335.67 1099.25,-320 1273,-300 1274.27,-299.85 1275.55,-299.7 1276.83,-299.55"/>
<polygon fill="midnightblue" stroke="midnightblue" points="1277.37,-303.01 1286.85,-298.29 1276.49,-296.06 1277.37,-303.01"/>
</g>
<!-- Node5 -->
<g id="node5" class="node">
<title>Node5</title>
<g id="a_node5"><a xlink:href="startswith_8hpp.html" target="_top" xlink:title="HELPERS::startswith source file.">
<polygon fill="none" stroke="black" points="1249.5,-168.5 1249.5,-187.5 1368.5,-187.5 1368.5,-168.5 1249.5,-168.5"/>
<text text-anchor="middle" x="1309" y="-175.5" font-family="Helvetica,sans-Serif" font-size="10.00">../helpers/startswith.hpp</text>
</a>
</g>
</g>
<!-- Node1&#45;&gt;Node5 -->
<g id="edge4" class="edge">
<title>Node1&#45;&gt;Node5</title>
<path fill="none" stroke="midnightblue" d="M802.79,-343.07C889.66,-337.7 1088.13,-317.67 1235,-244 1258.99,-231.97 1281.37,-210.26 1295.11,-195.26"/>
<polygon fill="midnightblue" stroke="midnightblue" points="1297.78,-197.52 1301.8,-187.72 1292.55,-192.88 1297.78,-197.52"/>
</g>
<!-- Node7 -->
<g id="node7" class="node">
<title>Node7</title>
<g id="a_node7"><a xlink:href="model_8hpp.html" target="_top" xlink:title="MODEL::Model source file.">
<polygon fill="none" stroke="black" points="710,-280.5 710,-299.5 808,-299.5 808,-280.5 710,-280.5"/>
<text text-anchor="middle" x="759" y="-287.5" font-family="Helvetica,sans-Serif" font-size="10.00">../model/model.hpp</text>
</a>
</g>
</g>
<!-- Node1&#45;&gt;Node7 -->
<g id="edge6" class="edge">
<title>Node1&#45;&gt;Node7</title>
<path fill="none" stroke="midnightblue" d="M759,-336.08C759,-329.01 759,-318.86 759,-309.99"/>
<polygon fill="midnightblue" stroke="midnightblue" points="762.5,-309.75 759,-299.75 755.5,-309.75 762.5,-309.75"/>
</g>
<!-- Node6 -->
<g id="node6" class="node">
<title>Node6</title>
<g id="a_node6"><a xlink:title=" ">
<polygon fill="none" stroke="#bfbfbf" points="1109.5,-0.5 1109.5,-19.5 1150.5,-19.5 1150.5,-0.5 1109.5,-0.5"/>
<text text-anchor="middle" x="1130" y="-7.5" font-family="Helvetica,sans-Serif" font-size="10.00">string</text>
</a>
</g>
</g>
<!-- Node5&#45;&gt;Node6 -->
<g id="edge5" class="edge">
<title>Node5&#45;&gt;Node6</title>
<path fill="none" stroke="midnightblue" d="M1299.38,-168.08C1270.35,-141.15 1183.39,-60.51 1146.66,-26.45"/>
<polygon fill="midnightblue" stroke="midnightblue" points="1148.95,-23.8 1139.24,-19.57 1144.19,-28.93 1148.95,-23.8"/>
</g>
<!-- Node8 -->
<g id="node8" class="node">
<title>Node8</title>
<g id="a_node8"><a xlink:title=" ">
<polygon fill="none" stroke="#bfbfbf" points="154.5,-224.5 154.5,-243.5 183.5,-243.5 183.5,-224.5 154.5,-224.5"/>
<text text-anchor="middle" x="169" y="-231.5" font-family="Helvetica,sans-Serif" font-size="10.00">list</text>
</a>
</g>
</g>
<!-- Node7&#45;&gt;Node8 -->
<g id="edge7" class="edge">
<title>Node7&#45;&gt;Node8</title>
<path fill="none" stroke="midnightblue" d="M709.87,-289.67C612.46,-290.01 388.23,-285.91 193.37,-243.37"/>
<polygon fill="midnightblue" stroke="midnightblue" points="194.05,-239.94 183.53,-241.19 192.53,-246.77 194.05,-239.94"/>
</g>
<!-- Node9 -->
<g id="node9" class="node">
<title>Node9</title>
<g id="a_node9"><a xlink:title=" ">
<polygon fill="none" stroke="#bfbfbf" points="1048.5,-112.5 1048.5,-131.5 1083.5,-131.5 1083.5,-112.5 1048.5,-112.5"/>
<text text-anchor="middle" x="1066" y="-119.5" font-family="Helvetica,sans-Serif" font-size="10.00">map</text>
</a>
</g>
</g>
<!-- Node7&#45;&gt;Node9 -->
<g id="edge8" class="edge">
<title>Node7&#45;&gt;Node9</title>
<path fill="none" stroke="midnightblue" d="M808.3,-285.98C897.52,-280 1078.28,-265.38 1097,-244 1123.08,-214.21 1096.19,-165.37 1078.62,-139.8"/>
<polygon fill="midnightblue" stroke="midnightblue" points="1081.36,-137.6 1072.69,-131.51 1075.67,-141.68 1081.36,-137.6"/>
</g>
<!-- Node10 -->
<g id="node10" class="node">
<title>Node10</title>
<g id="a_node10"><a xlink:title=" ">
<polygon fill="none" stroke="#bfbfbf" points="202,-224.5 202,-243.5 248,-243.5 248,-224.5 202,-224.5"/>
<text text-anchor="middle" x="225" y="-231.5" font-family="Helvetica,sans-Serif" font-size="10.00">variant</text>
</a>
</g>
</g>
<!-- Node7&#45;&gt;Node10 -->
<g id="edge9" class="edge">
<title>Node7&#45;&gt;Node10</title>
<path fill="none" stroke="midnightblue" d="M709.78,-287.6C621.11,-284.43 428.67,-274.56 258.2,-243.9"/>
<polygon fill="midnightblue" stroke="midnightblue" points="258.77,-240.45 248.3,-242.09 257.51,-247.33 258.77,-240.45"/>
</g>
<!-- Node11 -->
<g id="node11" class="node">
<title>Node11</title>
<g id="a_node11"><a xlink:href="densesystem_8hpp.html" target="_top" xlink:title="ALGEBRA::DenseSystem source file.">
<polygon fill="none" stroke="black" points="896,-112.5 896,-131.5 1030,-131.5 1030,-112.5 896,-112.5"/>
<text text-anchor="middle" x="963" y="-119.5" font-family="Helvetica,sans-Serif" font-size="10.00">../algebra/densesystem.hpp</text>
</a>
</g>
</g>
<!-- Node7&#45;&gt;Node11 -->
<g id="edge10" class="edge">
<title>Node7&#45;&gt;Node11</title>
<path fill="none" stroke="midnightblue" d="M808.02,-289.3C885.03,-288.44 1028.51,-281.53 1061,-244 1094.93,-204.81 1024.08,-159.13 985.46,-136.77"/>
<polygon fill="midnightblue" stroke="midnightblue" points="986.84,-133.52 976.42,-131.6 983.37,-139.6 986.84,-133.52"/>
</g>
<!-- Node13 -->
<g id="node13" class="node">
<title>Node13</title>
<g id="a_node13"><a xlink:href="sparsesystem_8hpp.html" target="_top" xlink:title="ALGEBRA::SparseSystem source file.">
<polygon fill="none" stroke="black" points="526.5,-112.5 526.5,-131.5 663.5,-131.5 663.5,-112.5 526.5,-112.5"/>
<text text-anchor="middle" x="595" y="-119.5" font-family="Helvetica,sans-Serif" font-size="10.00">../algebra/sparsesystem.hpp</text>
</a>
</g>
</g>
<!-- Node7&#45;&gt;Node13 -->
<g id="edge13" class="edge">
<title>Node7&#45;&gt;Node13</title>
<path fill="none" stroke="midnightblue" d="M709.85,-289.15C569.4,-289.12 174.52,-285.45 136,-244 82.32,-186.24 371.35,-146.28 516.24,-130.51"/>
<polygon fill="midnightblue" stroke="midnightblue" points="516.84,-133.96 526.41,-129.41 516.1,-127 516.84,-133.96"/>
</g>
<!-- Node17 -->
<g id="node17" class="node">
<title>Node17</title>
<g id="a_node17"><a xlink:href="bloodvessel_8hpp.html" target="_top" xlink:title="MODEL::BloodVessel source file.">
<polygon fill="none" stroke="black" points="975,-224.5 975,-243.5 1061,-243.5 1061,-224.5 975,-224.5"/>
<text text-anchor="middle" x="1018" y="-231.5" font-family="Helvetica,sans-Serif" font-size="10.00">bloodvessel.hpp</text>
</a>
</g>
</g>
<!-- Node7&#45;&gt;Node17 -->
<g id="edge18" class="edge">
<title>Node7&#45;&gt;Node17</title>
<path fill="none" stroke="midnightblue" d="M800.04,-280.44C845.32,-271 918.23,-255.8 967.11,-245.61"/>
<polygon fill="midnightblue" stroke="midnightblue" points="968.08,-248.98 977.15,-243.52 966.65,-242.13 968.08,-248.98"/>
</g>
<!-- Node20 -->
<g id="node20" class="node">
<title>Node20</title>
<g id="a_node20"><a xlink:href="dofhandler_8hpp.html" target="_top" xlink:title="MODEL::DOFHandler source file.">
<polygon fill="none" stroke="black" points="812,-56.5 812,-75.5 892,-75.5 892,-56.5 812,-56.5"/>
<text text-anchor="middle" x="852" y="-63.5" font-family="Helvetica,sans-Serif" font-size="10.00">dofhandler.hpp</text>
</a>
</g>
</g>
<!-- Node7&#45;&gt;Node20 -->
<g id="edge33" class="edge">
<title>Node7&#45;&gt;Node20</title>
<path fill="none" stroke="midnightblue" d="M808.04,-289.64C898.5,-289.81 1086.84,-285.05 1135,-244 1174.4,-210.42 1159.82,-183.27 1167,-132 1168.23,-123.2 1172.82,-118.72 1167,-112 1165.92,-110.75 990.77,-86.27 902.15,-73.95"/>
<polygon fill="midnightblue" stroke="midnightblue" points="902.43,-70.46 892.05,-72.55 901.47,-77.39 902.43,-70.46"/>
</g>
<!-- Node21 -->
<g id="node21" class="node">
<title>Node21</title>
<g id="a_node21"><a xlink:href="node_8hpp.html" target="_top" xlink:title="MODEL::Node source file.">
<polygon fill="none" stroke="black" points="1102,-112.5 1102,-131.5 1158,-131.5 1158,-112.5 1102,-112.5"/>
<text text-anchor="middle" x="1130" y="-119.5" font-family="Helvetica,sans-Serif" font-size="10.00">node.hpp</text>
</a>
</g>
</g>
<!-- Node7&#45;&gt;Node21 -->
<g id="edge47" class="edge">
<title>Node7&#45;&gt;Node21</title>
<path fill="none" stroke="midnightblue" d="M808.07,-289.92C895.49,-290.44 1072.98,-286.12 1115,-244 1141.95,-216.99 1138.38,-168.03 1133.92,-141.42"/>
<polygon fill="midnightblue" stroke="midnightblue" points="1137.34,-140.68 1132.03,-131.51 1130.46,-141.99 1137.34,-140.68"/>
</g>
<!-- Node22 -->
<g id="node22" class="node">
<title>Node22</title>
<g id="a_node22"><a xlink:href="flowreferencebc_8hpp.html" target="_top" xlink:title="MODEL::FlowReferenceBC source file.">
<polygon fill="none" stroke="black" points="655.5,-224.5 655.5,-243.5 758.5,-243.5 758.5,-224.5 655.5,-224.5"/>
<text text-anchor="middle" x="707" y="-231.5" font-family="Helvetica,sans-Serif" font-size="10.00">flowreferencebc.hpp</text>
</a>
</g>
</g>
<!-- Node7&#45;&gt;Node22 -->
<g id="edge34" class="edge">
<title>Node7&#45;&gt;Node22</title>
<path fill="none" stroke="midnightblue" d="M750.41,-280.08C742.84,-272.22 731.62,-260.57 722.49,-251.08"/>
<polygon fill="midnightblue" stroke="midnightblue" points="724.88,-248.53 715.43,-243.75 719.84,-253.38 724.88,-248.53"/>
</g>
<!-- Node25 -->
<g id="node25" class="node">
<title>Node25</title>
<g id="a_node25"><a xlink:href="junction_8hpp.html" target="_top" xlink:title="MODEL::Junction source file.">
<polygon fill="none" stroke="black" points="777,-224.5 777,-243.5 845,-243.5 845,-224.5 777,-224.5"/>
<text text-anchor="middle" x="811" y="-231.5" font-family="Helvetica,sans-Serif" font-size="10.00">junction.hpp</text>
</a>
</g>
</g>
<!-- Node7&#45;&gt;Node25 -->
<g id="edge43" class="edge">
<title>Node7&#45;&gt;Node25</title>
<path fill="none" stroke="midnightblue" d="M767.59,-280.08C775.16,-272.22 786.38,-260.57 795.51,-251.08"/>
<polygon fill="midnightblue" stroke="midnightblue" points="798.16,-253.38 802.57,-243.75 793.12,-248.53 798.16,-253.38"/>
</g>
<!-- Node26 -->
<g id="node26" class="node">
<title>Node26</title>
<g id="a_node26"><a xlink:href="openloopcoronarybc_8hpp.html" target="_top" xlink:title="MODEL::ClosedLoopCoronaryBC source file.">
<polygon fill="none" stroke="black" points="407.5,-224.5 407.5,-243.5 528.5,-243.5 528.5,-224.5 407.5,-224.5"/>
<text text-anchor="middle" x="468" y="-231.5" font-family="Helvetica,sans-Serif" font-size="10.00">openloopcoronarybc.hpp</text>
</a>
</g>
</g>
<!-- Node7&#45;&gt;Node26 -->
<g id="edge48" class="edge">
<title>Node7&#45;&gt;Node26</title>
<path fill="none" stroke="midnightblue" d="M712.89,-280.44C661.59,-270.92 578.73,-255.55 523.81,-245.36"/>
<polygon fill="midnightblue" stroke="midnightblue" points="524.36,-241.9 513.89,-243.52 523.09,-248.78 524.36,-241.9"/>
</g>
<!-- Node27 -->
<g id="node27" class="node">
<title>Node27</title>
<g id="a_node27"><a xlink:href="pressurereferencebc_8hpp.html" target="_top" xlink:title="MODEL::PressureReferenceBC source file.">
<polygon fill="none" stroke="black" points="266.5,-224.5 266.5,-243.5 389.5,-243.5 389.5,-224.5 266.5,-224.5"/>
<text text-anchor="middle" x="328" y="-231.5" font-family="Helvetica,sans-Serif" font-size="10.00">pressurereferencebc.hpp</text>
</a>
</g>
</g>
<!-- Node7&#45;&gt;Node27 -->
<g id="edge53" class="edge">
<title>Node7&#45;&gt;Node27</title>
<path fill="none" stroke="midnightblue" d="M709.94,-282.95C642.46,-274.6 516.9,-259.03 400.03,-244.25"/>
<polygon fill="midnightblue" stroke="midnightblue" points="400.2,-240.75 389.83,-242.96 399.32,-247.69 400.2,-240.75"/>
</g>
<!-- Node28 -->
<g id="node28" class="node">
<title>Node28</title>
<g id="a_node28"><a xlink:href="resistancebc_8hpp.html" target="_top" xlink:title="MODEL::ResistanceBC source file.">
<polygon fill="none" stroke="black" points="547,-224.5 547,-243.5 637,-243.5 637,-224.5 547,-224.5"/>
<text text-anchor="middle" x="592" y="-231.5" font-family="Helvetica,sans-Serif" font-size="10.00">resistancebc.hpp</text>
</a>
</g>
</g>
<!-- Node7&#45;&gt;Node28 -->
<g id="edge58" class="edge">
<title>Node7&#45;&gt;Node28</title>
<path fill="none" stroke="midnightblue" d="M732.54,-280.44C704.32,-271.32 659.46,-256.81 628.03,-246.65"/>
<polygon fill="midnightblue" stroke="midnightblue" points="628.93,-243.26 618.34,-243.52 626.78,-249.92 628.93,-243.26"/>
</g>
<!-- Node29 -->
<g id="node29" class="node">
<title>Node29</title>
<g id="a_node29"><a xlink:href="windkesselbc_8hpp.html" target="_top" xlink:title="MODEL::WindkesselBC source file.">
<polygon fill="none" stroke="black" points="863,-224.5 863,-243.5 957,-243.5 957,-224.5 863,-224.5"/>
<text text-anchor="middle" x="910" y="-231.5" font-family="Helvetica,sans-Serif" font-size="10.00">windkesselbc.hpp</text>
</a>
</g>
</g>
<!-- Node7&#45;&gt;Node29 -->
<g id="edge63" class="edge">
<title>Node7&#45;&gt;Node29</title>
<path fill="none" stroke="midnightblue" d="M782.93,-280.44C808.22,-271.4 848.3,-257.06 876.68,-246.92"/>
<polygon fill="midnightblue" stroke="midnightblue" points="877.95,-250.18 886.19,-243.52 875.59,-243.59 877.95,-250.18"/>
</g>
<!-- Node11&#45;&gt;Node7 -->
<g id="edge12" class="edge">
<title>Node11&#45;&gt;Node7</title>
<path fill="none" stroke="midnightblue" d="M985.77,-131.6C1029.32,-151.35 1115.8,-201.49 1079,-244 1046.35,-281.71 901.65,-288.51 818.36,-289.31"/>
<polygon fill="midnightblue" stroke="midnightblue" points="818.25,-285.81 808.27,-289.39 818.3,-292.81 818.25,-285.81"/>
</g>
<!-- Node12 -->
<g id="node12" class="node">
<title>Node12</title>
<g id="a_node12"><a xlink:title=" ">
<polygon fill="none" stroke="#bfbfbf" points="927.5,-56.5 927.5,-75.5 998.5,-75.5 998.5,-56.5 927.5,-56.5"/>
<text text-anchor="middle" x="963" y="-63.5" font-family="Helvetica,sans-Serif" font-size="10.00">Eigen/Dense</text>
</a>
</g>
</g>
<!-- Node11&#45;&gt;Node12 -->
<g id="edge11" class="edge">
<title>Node11&#45;&gt;Node12</title>
<path fill="none" stroke="midnightblue" d="M963,-112.08C963,-105.01 963,-94.86 963,-85.99"/>
<polygon fill="midnightblue" stroke="midnightblue" points="966.5,-85.75 963,-75.75 959.5,-85.75 966.5,-85.75"/>
</g>
<!-- Node13&#45;&gt;Node7 -->
<g id="edge17" class="edge">
<title>Node13&#45;&gt;Node7</title>
<path fill="none" stroke="midnightblue" d="M526.4,-130.49C389.51,-146.26 100.3,-186.22 154,-244 190.86,-283.66 554.07,-288.73 699.43,-289.12"/>
<polygon fill="midnightblue" stroke="midnightblue" points="699.5,-292.62 709.51,-289.14 699.52,-285.62 699.5,-292.62"/>
</g>
<!-- Node14 -->
<g id="node14" class="node">
<title>Node14</title>
<g id="a_node14"><a xlink:title=" ">
<polygon fill="none" stroke="#bfbfbf" points="459,-56.5 459,-75.5 533,-75.5 533,-56.5 459,-56.5"/>
<text text-anchor="middle" x="496" y="-63.5" font-family="Helvetica,sans-Serif" font-size="10.00">Eigen/Sparse</text>
</a>
</g>
</g>
<!-- Node13&#45;&gt;Node14 -->
<g id="edge14" class="edge">
<title>Node13&#45;&gt;Node14</title>
<path fill="none" stroke="midnightblue" d="M579.09,-112.32C563.36,-103.74 539.06,-90.49 520.79,-80.52"/>
<polygon fill="midnightblue" stroke="midnightblue" points="522.32,-77.37 511.87,-75.65 518.97,-83.52 522.32,-77.37"/>
</g>
<!-- Node15 -->
<g id="node15" class="node">
<title>Node15</title>
<g id="a_node15"><a xlink:title=" ">
<polygon fill="none" stroke="#bfbfbf" points="551,-56.5 551,-75.5 639,-75.5 639,-56.5 551,-56.5"/>
<text text-anchor="middle" x="595" y="-63.5" font-family="Helvetica,sans-Serif" font-size="10.00">Eigen/SparseLU</text>
</a>
</g>
</g>
<!-- Node13&#45;&gt;Node15 -->
<g id="edge15" class="edge">
<title>Node13&#45;&gt;Node15</title>
<path fill="none" stroke="midnightblue" d="M595,-112.08C595,-105.01 595,-94.86 595,-85.99"/>
<polygon fill="midnightblue" stroke="midnightblue" points="598.5,-85.75 595,-75.75 591.5,-85.75 598.5,-85.75"/>
</g>
<!-- Node16 -->
<g id="node16" class="node">
<title>Node16</title>
<g id="a_node16"><a xlink:title=" ">
<polygon fill="none" stroke="#bfbfbf" points="657,-56.5 657,-75.5 711,-75.5 711,-56.5 657,-56.5"/>
<text text-anchor="middle" x="684" y="-63.5" font-family="Helvetica,sans-Serif" font-size="10.00">iostream</text>
</a>
</g>
</g>
<!-- Node13&#45;&gt;Node16 -->
<g id="edge16" class="edge">
<title>Node13&#45;&gt;Node16</title>
<path fill="none" stroke="midnightblue" d="M609.3,-112.32C623.18,-103.9 644.49,-90.97 660.8,-81.07"/>
<polygon fill="midnightblue" stroke="midnightblue" points="663,-83.83 669.74,-75.65 659.37,-77.85 663,-83.83"/>
</g>
<!-- Node17&#45;&gt;Node11 -->
<g id="edge20" class="edge">
<title>Node17&#45;&gt;Node11</title>
<path fill="none" stroke="midnightblue" d="M1017.74,-224.09C1017.04,-211.08 1014.46,-186.43 1005,-168 999.31,-156.9 990.07,-146.57 981.71,-138.62"/>
<polygon fill="midnightblue" stroke="midnightblue" points="983.88,-135.86 974.11,-131.77 979.2,-141.06 983.88,-135.86"/>
</g>
<!-- Node17&#45;&gt;Node13 -->
<g id="edge21" class="edge">
<title>Node17&#45;&gt;Node13</title>
<path fill="none" stroke="midnightblue" d="M998.31,-224.44C966.15,-210.76 900.12,-183.9 842,-168 784.67,-152.32 718.34,-140.58 668.86,-133.02"/>
<polygon fill="midnightblue" stroke="midnightblue" points="669.29,-129.55 658.88,-131.52 668.25,-136.47 669.29,-129.55"/>
</g>
<!-- Node18 -->
<g id="node18" class="node">
<title>Node18</title>
<g id="a_node18"><a xlink:title=" ">
<polygon fill="none" stroke="#bfbfbf" points="832,-112.5 832,-131.5 878,-131.5 878,-112.5 832,-112.5"/>
<text text-anchor="middle" x="855" y="-119.5" font-family="Helvetica,sans-Serif" font-size="10.00">math.h</text>
</a>
</g>
</g>
<!-- Node17&#45;&gt;Node18 -->
<g id="edge19" class="edge">
<title>Node17&#45;&gt;Node18</title>
<path fill="none" stroke="midnightblue" d="M1005.21,-224.37C977.24,-205.49 910.4,-160.38 876.1,-137.24"/>
<polygon fill="midnightblue" stroke="midnightblue" points="877.98,-134.28 867.73,-131.59 874.06,-140.09 877.98,-134.28"/>
</g>
<!-- Node19 -->
<g id="node19" class="node">
<title>Node19</title>
<g id="a_node19"><a xlink:href="block_8hpp.html" target="_top" xlink:title="MODEL::Block source file.">
<polygon fill="none" stroke="black" points="775,-168.5 775,-187.5 833,-187.5 833,-168.5 775,-168.5"/>
<text text-anchor="middle" x="804" y="-175.5" font-family="Helvetica,sans-Serif" font-size="10.00">block.hpp</text>
</a>
</g>
</g>
<!-- Node17&#45;&gt;Node19 -->
<g id="edge22" class="edge">
<title>Node17&#45;&gt;Node19</title>
<path fill="none" stroke="midnightblue" d="M984.09,-224.44C945.74,-214.77 883.39,-199.03 843.04,-188.85"/>
<polygon fill="midnightblue" stroke="midnightblue" points="843.83,-185.44 833.28,-186.39 842.12,-192.23 843.83,-185.44"/>
</g>
<!-- Node19&#45;&gt;Node3 -->
<g id="edge24" class="edge">
<title>Node19&#45;&gt;Node3</title>
<path fill="none" stroke="midnightblue" d="M800.33,-168.24C790.6,-146.09 761.99,-87.38 720,-56 689.13,-32.93 645.8,-21.3 616.4,-15.71"/>
<polygon fill="midnightblue" stroke="midnightblue" points="616.71,-12.21 606.25,-13.92 615.49,-19.11 616.71,-12.21"/>
</g>
<!-- Node19&#45;&gt;Node9 -->
<g id="edge23" class="edge">
<title>Node19&#45;&gt;Node9</title>
<path fill="none" stroke="midnightblue" d="M833.22,-172.68C876.19,-166.06 959.05,-152.24 1038.69,-131.77"/>
<polygon fill="midnightblue" stroke="midnightblue" points="1039.59,-135.16 1048.38,-129.25 1037.82,-128.38 1039.59,-135.16"/>
</g>
<!-- Node19&#45;&gt;Node11 -->
<g id="edge25" class="edge">
<title>Node19&#45;&gt;Node11</title>
<path fill="none" stroke="midnightblue" d="M829.19,-168.44C855.94,-159.36 898.4,-144.94 928.31,-134.78"/>
<polygon fill="midnightblue" stroke="midnightblue" points="929.58,-138.05 937.92,-131.52 927.33,-131.42 929.58,-138.05"/>
</g>
<!-- Node19&#45;&gt;Node13 -->
<g id="edge26" class="edge">
<title>Node19&#45;&gt;Node13</title>
<path fill="none" stroke="midnightblue" d="M774.94,-169.49C739.29,-160.28 678.57,-144.59 637.64,-134.02"/>
<polygon fill="midnightblue" stroke="midnightblue" points="638.5,-130.62 627.94,-131.51 636.75,-137.4 638.5,-130.62"/>
</g>
<!-- Node19&#45;&gt;Node20 -->
<g id="edge27" class="edge">
<title>Node19&#45;&gt;Node20</title>
<path fill="none" stroke="midnightblue" d="M805.7,-168.3C808.39,-155.56 814.21,-131.25 823,-112 827.49,-102.17 833.88,-91.99 839.52,-83.8"/>
<polygon fill="midnightblue" stroke="midnightblue" points="842.47,-85.7 845.43,-75.53 836.77,-81.63 842.47,-85.7"/>
</g>
<!-- Node19&#45;&gt;Node21 -->
<g id="edge30" class="edge">
<title>Node19&#45;&gt;Node21</title>
<path fill="none" stroke="midnightblue" d="M833.27,-173.27C883.93,-166.64 991.41,-151.79 1091.77,-132.11"/>
<polygon fill="midnightblue" stroke="midnightblue" points="1092.64,-135.5 1101.77,-130.13 1091.28,-128.64 1092.64,-135.5"/>
</g>
<!-- Node20&#45;&gt;Node3 -->
<g id="edge29" class="edge">
<title>Node20&#45;&gt;Node3</title>
<path fill="none" stroke="midnightblue" d="M811.88,-56.92C758.55,-46.17 665.36,-27.39 616.3,-17.51"/>
<polygon fill="midnightblue" stroke="midnightblue" points="616.75,-14.03 606.25,-15.48 615.36,-20.89 616.75,-14.03"/>
</g>
<!-- Node20&#45;&gt;Node6 -->
<g id="edge28" class="edge">
<title>Node20&#45;&gt;Node6</title>
<path fill="none" stroke="midnightblue" d="M892.13,-57.21C948.28,-46.3 1049.06,-26.72 1099.5,-16.92"/>
<polygon fill="midnightblue" stroke="midnightblue" points="1100.32,-20.33 1109.47,-14.99 1098.98,-13.46 1100.32,-20.33"/>
</g>
<!-- Node21&#45;&gt;Node6 -->
<g id="edge31" class="edge">
<title>Node21&#45;&gt;Node6</title>
<path fill="none" stroke="midnightblue" d="M1130,-112.37C1130,-94.62 1130,-53.67 1130,-29.6"/>
<polygon fill="midnightblue" stroke="midnightblue" points="1133.5,-29.59 1130,-19.59 1126.5,-29.59 1133.5,-29.59"/>
</g>
<!-- Node21&#45;&gt;Node20 -->
<g id="edge32" class="edge">
<title>Node21&#45;&gt;Node20</title>
<path fill="none" stroke="midnightblue" d="M1101.75,-113.96C1098.8,-113.28 1095.84,-112.61 1093,-112 1027.34,-97.9 951.07,-84.08 902.21,-75.56"/>
<polygon fill="midnightblue" stroke="midnightblue" points="902.67,-72.09 892.22,-73.82 901.47,-78.98 902.67,-72.09"/>
</g>
<!-- Node22&#45;&gt;Node11 -->
<g id="edge35" class="edge">
<title>Node22&#45;&gt;Node11</title>
<path fill="none" stroke="midnightblue" d="M737.58,-224.44C765.31,-216.3 807.07,-203.07 842,-188 877.37,-172.74 916.29,-150.85 940.19,-136.78"/>
<polygon fill="midnightblue" stroke="midnightblue" points="942.06,-139.74 948.87,-131.62 938.48,-133.72 942.06,-139.74"/>
</g>
<!-- Node22&#45;&gt;Node13 -->
<g id="edge36" class="edge">
<title>Node22&#45;&gt;Node13</title>
<path fill="none" stroke="midnightblue" d="M696.83,-224.25C686.58,-215.34 670.4,-201.02 657,-188 640.33,-171.8 622.05,-152.43 609.69,-139.07"/>
<polygon fill="midnightblue" stroke="midnightblue" points="612.17,-136.6 602.82,-131.61 607.02,-141.34 612.17,-136.6"/>
</g>
<!-- Node22&#45;&gt;Node19 -->
<g id="edge37" class="edge">
<title>Node22&#45;&gt;Node19</title>
<path fill="none" stroke="midnightblue" d="M722.58,-224.32C738,-215.74 761.81,-202.49 779.71,-192.52"/>
<polygon fill="midnightblue" stroke="midnightblue" points="781.42,-195.58 788.45,-187.65 778.01,-189.46 781.42,-195.58"/>
</g>
<!-- Node23 -->
<g id="node23" class="node">
<title>Node23</title>
<g id="a_node23"><a xlink:href="timedependentparameter_8hpp.html" target="_top" xlink:title="MODEL::TimeDependentParameter source file.">
<polygon fill="none" stroke="black" points="349,-168.5 349,-187.5 491,-187.5 491,-168.5 349,-168.5"/>
<text text-anchor="middle" x="420" y="-175.5" font-family="Helvetica,sans-Serif" font-size="10.00">timedependentparameter.hpp</text>
</a>
</g>
</g>
<!-- Node22&#45;&gt;Node23 -->
<g id="edge38" class="edge">
<title>Node22&#45;&gt;Node23</title>
<path fill="none" stroke="midnightblue" d="M661.52,-224.44C611.04,-214.94 529.54,-199.61 475.38,-189.42"/>
<polygon fill="midnightblue" stroke="midnightblue" points="475.74,-185.93 465.26,-187.52 474.44,-192.81 475.74,-185.93"/>
</g>
<!-- Node23&#45;&gt;Node3 -->
<g id="edge41" class="edge">
<title>Node23&#45;&gt;Node3</title>
<path fill="none" stroke="midnightblue" d="M419.52,-168.39C418.78,-146.59 419.92,-88.62 450,-56 476.27,-27.52 521.1,-17.05 551.61,-13.21"/>
<polygon fill="midnightblue" stroke="midnightblue" points="552.19,-16.67 561.75,-12.11 551.43,-9.71 552.19,-16.67"/>
</g>
<!-- Node23&#45;&gt;Node18 -->
<g id="edge39" class="edge">
<title>Node23&#45;&gt;Node18</title>
<path fill="none" stroke="midnightblue" d="M488.93,-168.44C583.72,-156.68 750.64,-135.96 821.58,-127.15"/>
<polygon fill="midnightblue" stroke="midnightblue" points="822.24,-130.59 831.73,-125.89 821.37,-123.65 822.24,-130.59"/>
</g>
<!-- Node23&#45;&gt;Node20 -->
<g id="edge42" class="edge">
<title>Node23&#45;&gt;Node20</title>
<path fill="none" stroke="midnightblue" d="M485.14,-168.47C536.42,-161.02 609.43,-148.75 672,-132 726.04,-117.53 786.86,-93.98 822.17,-79.55"/>
<polygon fill="midnightblue" stroke="midnightblue" points="823.93,-82.6 831.84,-75.56 821.27,-76.13 823.93,-82.6"/>
</g>
<!-- Node24 -->
<g id="node24" class="node">
<title>Node24</title>
<g id="a_node24"><a xlink:title=" ">
<polygon fill="none" stroke="#bfbfbf" points="448.5,-112.5 448.5,-131.5 499.5,-131.5 499.5,-112.5 448.5,-112.5"/>
<text text-anchor="middle" x="474" y="-119.5" font-family="Helvetica,sans-Serif" font-size="10.00">numeric</text>
</a>
</g>
</g>
<!-- Node23&#45;&gt;Node24 -->
<g id="edge40" class="edge">
<title>Node23&#45;&gt;Node24</title>
<path fill="none" stroke="midnightblue" d="M428.92,-168.08C436.78,-160.22 448.43,-148.57 457.92,-139.08"/>
<polygon fill="midnightblue" stroke="midnightblue" points="460.65,-141.3 465.25,-131.75 455.7,-136.35 460.65,-141.3"/>
</g>
<!-- Node25&#45;&gt;Node11 -->
<g id="edge44" class="edge">
<title>Node25&#45;&gt;Node11</title>
<path fill="none" stroke="midnightblue" d="M840.35,-224.42C861.95,-217.12 891.22,-205.09 913,-188 929.75,-174.86 943.98,-154.9 952.93,-140.57"/>
<polygon fill="midnightblue" stroke="midnightblue" points="956.11,-142.07 958.25,-131.7 950.11,-138.47 956.11,-142.07"/>
</g>
<!-- Node25&#45;&gt;Node13 -->
<g id="edge45" class="edge">
<title>Node25&#45;&gt;Node13</title>
<path fill="none" stroke="midnightblue" d="M784.53,-224.48C760.57,-216.37 724.61,-203.16 695,-188 665.75,-173.02 634.34,-151.64 614.68,-137.54"/>
<polygon fill="midnightblue" stroke="midnightblue" points="616.68,-134.67 606.53,-131.63 612.57,-140.33 616.68,-134.67"/>
</g>
<!-- Node25&#45;&gt;Node19 -->
<g id="edge46" class="edge">
<title>Node25&#45;&gt;Node19</title>
<path fill="none" stroke="midnightblue" d="M809.84,-224.08C808.92,-216.93 807.58,-206.64 806.42,-197.69"/>
<polygon fill="midnightblue" stroke="midnightblue" points="809.89,-197.22 805.13,-187.75 802.95,-198.12 809.89,-197.22"/>
</g>
<!-- Node26&#45;&gt;Node11 -->
<g id="edge49" class="edge">
<title>Node26&#45;&gt;Node11</title>
<path fill="none" stroke="midnightblue" d="M495.75,-224.42C539.64,-211.05 627.9,-185.05 704,-168 767.98,-153.67 841.73,-141.25 894.12,-133.11"/>
<polygon fill="midnightblue" stroke="midnightblue" points="894.96,-136.52 904.31,-131.54 893.89,-129.6 894.96,-136.52"/>
</g>
<!-- Node26&#45;&gt;Node13 -->
<g id="edge50" class="edge">
<title>Node26&#45;&gt;Node13</title>
<path fill="none" stroke="midnightblue" d="M412.36,-224.45C367.33,-215.18 315.17,-197.59 340,-168 351.39,-154.42 445.56,-140.49 516.18,-131.8"/>
<polygon fill="midnightblue" stroke="midnightblue" points="516.9,-135.23 526.41,-130.55 516.06,-128.28 516.9,-135.23"/>
</g>
<!-- Node26&#45;&gt;Node19 -->
<g id="edge51" class="edge">
<title>Node26&#45;&gt;Node19</title>
<path fill="none" stroke="midnightblue" d="M521.24,-224.44C588.97,-213.56 704.37,-195.01 764.67,-185.32"/>
<polygon fill="midnightblue" stroke="midnightblue" points="765.59,-188.72 774.91,-183.67 764.48,-181.81 765.59,-188.72"/>
</g>
<!-- Node26&#45;&gt;Node23 -->
<g id="edge52" class="edge">
<title>Node26&#45;&gt;Node23</title>
<path fill="none" stroke="midnightblue" d="M460.07,-224.08C453.15,-216.3 442.93,-204.8 434.55,-195.37"/>
<polygon fill="midnightblue" stroke="midnightblue" points="437.04,-192.9 427.78,-187.75 431.81,-197.55 437.04,-192.9"/>
</g>
<!-- Node27&#45;&gt;Node11 -->
<g id="edge54" class="edge">
<title>Node27&#45;&gt;Node11</title>
<path fill="none" stroke="midnightblue" d="M362.21,-224.43C416.84,-210.97 527.27,-184.69 622,-168 671.09,-159.35 801.2,-142.84 885.76,-132.4"/>
<polygon fill="midnightblue" stroke="midnightblue" points="886.34,-135.86 895.84,-131.16 885.49,-128.91 886.34,-135.86"/>
</g>
<!-- Node27&#45;&gt;Node13 -->
<g id="edge55" class="edge">
<title>Node27&#45;&gt;Node13</title>
<path fill="none" stroke="midnightblue" d="M325.15,-224.18C321.29,-210.39 316.35,-183.66 330,-168 342.26,-153.93 442.68,-139.87 516.29,-131.3"/>
<polygon fill="midnightblue" stroke="midnightblue" points="516.95,-134.75 526.49,-130.13 516.15,-127.8 516.95,-134.75"/>
</g>
<!-- Node27&#45;&gt;Node19 -->
<g id="edge56" class="edge">
<title>Node27&#45;&gt;Node19</title>
<path fill="none" stroke="midnightblue" d="M389.83,-224.99C392.59,-224.65 395.32,-224.32 398,-224 532.56,-207.89 692.47,-190.76 764.9,-183.1"/>
<polygon fill="midnightblue" stroke="midnightblue" points="765.36,-186.58 774.93,-182.05 764.62,-179.61 765.36,-186.58"/>
</g>
<!-- Node27&#45;&gt;Node23 -->
<g id="edge57" class="edge">
<title>Node27&#45;&gt;Node23</title>
<path fill="none" stroke="midnightblue" d="M342.78,-224.32C357.27,-215.82 379.57,-202.73 396.49,-192.8"/>
<polygon fill="midnightblue" stroke="midnightblue" points="398.4,-195.74 405.26,-187.65 394.86,-189.7 398.4,-195.74"/>
</g>
<!-- Node28&#45;&gt;Node11 -->
<g id="edge59" class="edge">
<title>Node28&#45;&gt;Node11</title>
<path fill="none" stroke="midnightblue" d="M612.32,-224.4C644.49,-211.01 709.31,-184.98 766,-168 813.3,-153.83 868.14,-141.64 907.93,-133.53"/>
<polygon fill="midnightblue" stroke="midnightblue" points="908.85,-136.92 917.96,-131.51 907.47,-130.06 908.85,-136.92"/>
</g>
<!-- Node28&#45;&gt;Node13 -->
<g id="edge60" class="edge">
<title>Node28&#45;&gt;Node13</title>
<path fill="none" stroke="midnightblue" d="M592.24,-224.37C592.72,-206.62 593.84,-165.67 594.49,-141.6"/>
<polygon fill="midnightblue" stroke="midnightblue" points="597.99,-141.68 594.77,-131.59 590.99,-141.49 597.99,-141.68"/>
</g>
<!-- Node28&#45;&gt;Node19 -->
<g id="edge61" class="edge">
<title>Node28&#45;&gt;Node19</title>
<path fill="none" stroke="midnightblue" d="M625.59,-224.44C663.51,-214.79 725.09,-199.1 765.07,-188.92"/>
<polygon fill="midnightblue" stroke="midnightblue" points="766.17,-192.25 774.99,-186.39 764.44,-185.47 766.17,-192.25"/>
</g>
<!-- Node28&#45;&gt;Node23 -->
<g id="edge62" class="edge">
<title>Node28&#45;&gt;Node23</title>
<path fill="none" stroke="midnightblue" d="M564.75,-224.44C535.56,-215.28 489.08,-200.69 456.69,-190.52"/>
<polygon fill="midnightblue" stroke="midnightblue" points="457.72,-187.17 447.13,-187.52 455.62,-193.85 457.72,-187.17"/>
</g>
<!-- Node29&#45;&gt;Node11 -->
<g id="edge64" class="edge">
<title>Node29&#45;&gt;Node11</title>
<path fill="none" stroke="midnightblue" d="M939.88,-224.39C957.54,-217.59 978.45,-206.15 989,-188 998.02,-172.48 987.98,-153.24 977.87,-139.74"/>
<polygon fill="midnightblue" stroke="midnightblue" points="980.44,-137.34 971.42,-131.78 975.01,-141.75 980.44,-137.34"/>
</g>
<!-- Node29&#45;&gt;Node13 -->
<g id="edge65" class="edge">
<title>Node29&#45;&gt;Node13</title>
<path fill="none" stroke="midnightblue" d="M880.87,-224.46C851.66,-215.77 805.48,-201.66 766,-188 716.42,-170.85 659.62,-148.77 625.57,-135.26"/>
<polygon fill="midnightblue" stroke="midnightblue" points="626.76,-131.97 616.18,-131.52 624.17,-138.47 626.76,-131.97"/>
</g>
<!-- Node29&#45;&gt;Node19 -->
<g id="edge66" class="edge">
<title>Node29&#45;&gt;Node19</title>
<path fill="none" stroke="midnightblue" d="M892.97,-224.32C875.97,-215.66 849.62,-202.24 830.01,-192.25"/>
<polygon fill="midnightblue" stroke="midnightblue" points="831.49,-189.08 820.99,-187.65 828.31,-195.31 831.49,-189.08"/>
</g>
</g>
</svg>
