<?xml version="1.0" encoding="UTF-8" standalone="no"?>
<!DOCTYPE svg PUBLIC "-//W3C//DTD SVG 1.1//EN"
 "http://www.w3.org/Graphics/SVG/1.1/DTD/svg11.dtd">
<!-- Generated by graphviz version 3.0.0 (20220413.0242)
 -->
<!-- Title: io/jsonwriter.hpp Pages: 1 -->
<svg width="1010pt" height="364pt"
 viewBox="0.00 0.00 1010.00 364.00" xmlns="http://www.w3.org/2000/svg" xmlns:xlink="http://www.w3.org/1999/xlink">
<g id="graph0" class="graph" transform="scale(1 1) rotate(0) translate(4 360)">
<title>io/jsonwriter.hpp</title>
<!-- Node1 -->
<g id="node1" class="node">
<title>Node1</title>
<g id="a_node1"><a xlink:title="IO::write_json source file.">
<polygon fill="#bfbfbf" stroke="black" points="501.5,-336.5 501.5,-355.5 588.5,-355.5 588.5,-336.5 501.5,-336.5"/>
<text text-anchor="middle" x="545" y="-343.5" font-family="Helvetica,sans-Serif" font-size="10.00">io/jsonwriter.hpp</text>
</a>
</g>
</g>
<!-- Node2 -->
<g id="node2" class="node">
<title>Node2</title>
<g id="a_node2"><a xlink:title=" ">
<polygon fill="none" stroke="#bfbfbf" points="0,-280.5 0,-299.5 42,-299.5 42,-280.5 0,-280.5"/>
<text text-anchor="middle" x="21" y="-287.5" font-family="Helvetica,sans-Serif" font-size="10.00">json.h</text>
</a>
</g>
</g>
<!-- Node1&#45;&gt;Node2 -->
<g id="edge1" class="edge">
<title>Node1&#45;&gt;Node2</title>
<path fill="none" stroke="midnightblue" d="M501.19,-343.32C415.25,-339.5 218.75,-328.23 56,-300 54.75,-299.78 53.48,-299.54 52.19,-299.29"/>
<polygon fill="midnightblue" stroke="midnightblue" points="52.88,-295.85 42.35,-297.07 51.34,-302.68 52.88,-295.85"/>
</g>
<!-- Node3 -->
<g id="node3" class="node">
<title>Node3</title>
<g id="a_node3"><a xlink:title=" ">
<polygon fill="none" stroke="#bfbfbf" points="535,-0.5 535,-19.5 579,-19.5 579,-0.5 535,-0.5"/>
<text text-anchor="middle" x="557" y="-7.5" font-family="Helvetica,sans-Serif" font-size="10.00">vector</text>
</a>
</g>
</g>
<!-- Node1&#45;&gt;Node3 -->
<g id="edge2" class="edge">
<title>Node1&#45;&gt;Node3</title>
<path fill="none" stroke="midnightblue" d="M501.16,-344.13C383.57,-340.63 70,-323.03 70,-235 70,-235 70,-235 70,-121 70,-27.47 416.1,-13.46 524.77,-11.37"/>
<polygon fill="midnightblue" stroke="midnightblue" points="524.87,-14.87 534.81,-11.19 524.75,-7.87 524.87,-14.87"/>
</g>
<!-- Node4 -->
<g id="node4" class="node">
<title>Node4</title>
<g id="a_node4"><a xlink:href="state_8hpp.html" target="_top" xlink:title="ALGEBRA::State source file.">
<polygon fill="none" stroke="black" points="904,-280.5 904,-299.5 1002,-299.5 1002,-280.5 904,-280.5"/>
<text text-anchor="middle" x="953" y="-287.5" font-family="Helvetica,sans-Serif" font-size="10.00">../algebra/state.hpp</text>
</a>
</g>
</g>
<!-- Node1&#45;&gt;Node4 -->
<g id="edge3" class="edge">
<title>Node1&#45;&gt;Node4</title>
<path fill="none" stroke="midnightblue" d="M588.59,-339.49C654.07,-331.17 781.68,-314.8 890,-300 891.26,-299.83 892.54,-299.65 893.83,-299.47"/>
<polygon fill="midnightblue" stroke="midnightblue" points="894.4,-302.93 903.83,-298.08 893.44,-295.99 894.4,-302.93"/>
</g>
<!-- Node5 -->
<g id="node5" class="node">
<title>Node5</title>
<g id="a_node5"><a xlink:href="model_8hpp.html" target="_top" xlink:title="MODEL::Model source file.">
<polygon fill="none" stroke="black" points="496,-280.5 496,-299.5 594,-299.5 594,-280.5 496,-280.5"/>
<text text-anchor="middle" x="545" y="-287.5" font-family="Helvetica,sans-Serif" font-size="10.00">../model/model.hpp</text>
</a>
</g>
</g>
<!-- Node1&#45;&gt;Node5 -->
<g id="edge4" class="edge">
<title>Node1&#45;&gt;Node5</title>
<path fill="none" stroke="midnightblue" d="M545,-336.08C545,-329.01 545,-318.86 545,-309.99"/>
<polygon fill="midnightblue" stroke="midnightblue" points="548.5,-309.75 545,-299.75 541.5,-309.75 548.5,-309.75"/>
</g>
<!-- Node25 -->
<g id="node25" class="node">
<title>Node25</title>
<g id="a_node25"><a xlink:href="startswith_8hpp.html" target="_top" xlink:title="HELPERS::startswith source file.">
<polygon fill="none" stroke="black" points="866.5,-168.5 866.5,-187.5 985.5,-187.5 985.5,-168.5 866.5,-168.5"/>
<text text-anchor="middle" x="926" y="-175.5" font-family="Helvetica,sans-Serif" font-size="10.00">../helpers/startswith.hpp</text>
</a>
</g>
</g>
<!-- Node1&#45;&gt;Node25 -->
<g id="edge47" class="edge">
<title>Node1&#45;&gt;Node25</title>
<path fill="none" stroke="midnightblue" d="M579.94,-336.42C635.96,-321.9 748.47,-289.54 836,-244 862.79,-230.06 890.5,-208.83 907.97,-194.46"/>
<polygon fill="midnightblue" stroke="midnightblue" points="910.69,-196.75 916.11,-187.65 906.2,-191.38 910.69,-196.75"/>
</g>
<!-- Node6 -->
<g id="node6" class="node">
<title>Node6</title>
<g id="a_node6"><a xlink:title=" ">
<polygon fill="none" stroke="#bfbfbf" points="526.5,-112.5 526.5,-131.5 561.5,-131.5 561.5,-112.5 526.5,-112.5"/>
<text text-anchor="middle" x="544" y="-119.5" font-family="Helvetica,sans-Serif" font-size="10.00">map</text>
</a>
</g>
</g>
<!-- Node5&#45;&gt;Node6 -->
<g id="edge5" class="edge">
<title>Node5&#45;&gt;Node6</title>
<path fill="none" stroke="midnightblue" d="M594.44,-284.7C646.91,-279 724.75,-266.87 743,-244 748.55,-237.05 748.32,-231.12 743,-224 709.15,-178.72 670.77,-214.81 621,-188 597.09,-175.12 573.86,-153.96 559.28,-139.29"/>
<polygon fill="midnightblue" stroke="midnightblue" points="561.59,-136.65 552.12,-131.91 556.57,-141.53 561.59,-136.65"/>
</g>
<!-- Node7 -->
<g id="node7" class="node">
<title>Node7</title>
<g id="a_node7"><a xlink:title=" ">
<polygon fill="none" stroke="#bfbfbf" points="530.5,-224.5 530.5,-243.5 559.5,-243.5 559.5,-224.5 530.5,-224.5"/>
<text text-anchor="middle" x="545" y="-231.5" font-family="Helvetica,sans-Serif" font-size="10.00">list</text>
</a>
</g>
</g>
<!-- Node5&#45;&gt;Node7 -->
<g id="edge6" class="edge">
<title>Node5&#45;&gt;Node7</title>
<path fill="none" stroke="midnightblue" d="M545,-280.08C545,-273.01 545,-262.86 545,-253.99"/>
<polygon fill="midnightblue" stroke="midnightblue" points="548.5,-253.75 545,-243.75 541.5,-253.75 548.5,-253.75"/>
</g>
<!-- Node8 -->
<g id="node8" class="node">
<title>Node8</title>
<g id="a_node8"><a xlink:title=" ">
<polygon fill="none" stroke="#bfbfbf" points="578,-224.5 578,-243.5 624,-243.5 624,-224.5 578,-224.5"/>
<text text-anchor="middle" x="601" y="-231.5" font-family="Helvetica,sans-Serif" font-size="10.00">variant</text>
</a>
</g>
</g>
<!-- Node5&#45;&gt;Node8 -->
<g id="edge7" class="edge">
<title>Node5&#45;&gt;Node8</title>
<path fill="none" stroke="midnightblue" d="M554,-280.32C562.19,-272.42 574.51,-260.55 584.47,-250.94"/>
<polygon fill="midnightblue" stroke="midnightblue" points="587.07,-253.29 591.84,-243.83 582.21,-248.26 587.07,-253.29"/>
</g>
<!-- Node9 -->
<g id="node9" class="node">
<title>Node9</title>
<g id="a_node9"><a xlink:href="densesystem_8hpp.html" target="_top" xlink:title="ALGEBRA::DenseSystem source file.">
<polygon fill="none" stroke="black" points="142,-112.5 142,-131.5 276,-131.5 276,-112.5 142,-112.5"/>
<text text-anchor="middle" x="209" y="-119.5" font-family="Helvetica,sans-Serif" font-size="10.00">../algebra/densesystem.hpp</text>
</a>
</g>
</g>
<!-- Node5&#45;&gt;Node9 -->
<g id="edge8" class="edge">
<title>Node5&#45;&gt;Node9</title>
<path fill="none" stroke="midnightblue" d="M495.84,-286.98C395.29,-282.34 173.6,-269.33 151,-244 122.33,-211.87 165.32,-163.04 191.42,-138.39"/>
<polygon fill="midnightblue" stroke="midnightblue" points="193.86,-140.89 198.88,-131.56 189.14,-135.73 193.86,-140.89"/>
</g>
<!-- Node11 -->
<g id="node11" class="node">
<title>Node11</title>
<g id="a_node11"><a xlink:href="sparsesystem_8hpp.html" target="_top" xlink:title="ALGEBRA::SparseSystem source file.">
<polygon fill="none" stroke="black" points="294.5,-112.5 294.5,-131.5 431.5,-131.5 431.5,-112.5 294.5,-112.5"/>
<text text-anchor="middle" x="363" y="-119.5" font-family="Helvetica,sans-Serif" font-size="10.00">../algebra/sparsesystem.hpp</text>
</a>
</g>
</g>
<!-- Node5&#45;&gt;Node11 -->
<g id="edge10" class="edge">
<title>Node5&#45;&gt;Node11</title>
<path fill="none" stroke="midnightblue" d="M495.73,-286.75C397.88,-281.78 186.62,-268.33 165,-244 116.38,-189.28 236.53,-151.28 310.36,-133.83"/>
<polygon fill="midnightblue" stroke="midnightblue" points="311.49,-137.16 320.45,-131.51 309.92,-130.34 311.49,-137.16"/>
</g>
<!-- Node14 -->
<g id="node14" class="node">
<title>Node14</title>
<g id="a_node14"><a xlink:href="junction_8hpp.html" target="_top" xlink:title="MODEL::Junction source file.">
<polygon fill="none" stroke="black" points="340,-224.5 340,-243.5 408,-243.5 408,-224.5 340,-224.5"/>
<text text-anchor="middle" x="374" y="-231.5" font-family="Helvetica,sans-Serif" font-size="10.00">junction.hpp</text>
</a>
</g>
</g>
<!-- Node5&#45;&gt;Node14 -->
<g id="edge13" class="edge">
<title>Node5&#45;&gt;Node14</title>
<path fill="none" stroke="midnightblue" d="M517.9,-280.44C489.01,-271.32 443.08,-256.81 410.89,-246.65"/>
<polygon fill="midnightblue" stroke="midnightblue" points="411.56,-243.19 400.97,-243.52 409.45,-249.87 411.56,-243.19"/>
</g>
<!-- Node16 -->
<g id="node16" class="node">
<title>Node16</title>
<g id="a_node16"><a xlink:href="node_8hpp.html" target="_top" xlink:title="MODEL::Node source file.">
<polygon fill="none" stroke="black" points="828,-112.5 828,-131.5 884,-131.5 884,-112.5 828,-112.5"/>
<text text-anchor="middle" x="856" y="-119.5" font-family="Helvetica,sans-Serif" font-size="10.00">node.hpp</text>
</a>
</g>
</g>
<!-- Node5&#45;&gt;Node16 -->
<g id="edge46" class="edge">
<title>Node5&#45;&gt;Node16</title>
<path fill="none" stroke="midnightblue" d="M594.01,-286.69C662.34,-282.51 781.53,-271.42 814,-244 844.62,-218.14 852.95,-168.71 855.19,-141.72"/>
<polygon fill="midnightblue" stroke="midnightblue" points="858.69,-141.86 855.82,-131.66 851.7,-141.42 858.69,-141.86"/>
</g>
<!-- Node18 -->
<g id="node18" class="node">
<title>Node18</title>
<g id="a_node18"><a xlink:href="dofhandler_8hpp.html" target="_top" xlink:title="MODEL::DOFHandler source file.">
<polygon fill="none" stroke="black" points="715,-56.5 715,-75.5 795,-75.5 795,-56.5 715,-56.5"/>
<text text-anchor="middle" x="755" y="-63.5" font-family="Helvetica,sans-Serif" font-size="10.00">dofhandler.hpp</text>
</a>
</g>
</g>
<!-- Node5&#45;&gt;Node18 -->
<g id="edge45" class="edge">
<title>Node5&#45;&gt;Node18</title>
<path fill="none" stroke="midnightblue" d="M594.35,-284.06C649.59,-277.61 734.57,-264.65 759,-244 804.42,-205.6 796.4,-169.45 781,-112 778.35,-102.1 772.93,-92.13 767.73,-84.1"/>
<polygon fill="midnightblue" stroke="midnightblue" points="770.46,-81.91 761.89,-75.68 764.71,-85.89 770.46,-81.91"/>
</g>
<!-- Node19 -->
<g id="node19" class="node">
<title>Node19</title>
<g id="a_node19"><a xlink:href="bloodvessel_8hpp.html" target="_top" xlink:title="MODEL::BloodVessel source file.">
<polygon fill="none" stroke="black" points="426,-224.5 426,-243.5 512,-243.5 512,-224.5 426,-224.5"/>
<text text-anchor="middle" x="469" y="-231.5" font-family="Helvetica,sans-Serif" font-size="10.00">bloodvessel.hpp</text>
</a>
</g>
</g>
<!-- Node5&#45;&gt;Node19 -->
<g id="edge27" class="edge">
<title>Node5&#45;&gt;Node19</title>
<path fill="none" stroke="midnightblue" d="M532.79,-280.32C521.22,-272.11 503.62,-259.6 489.84,-249.81"/>
<polygon fill="midnightblue" stroke="midnightblue" points="491.61,-246.77 481.43,-243.83 487.56,-252.48 491.61,-246.77"/>
</g>
<!-- Node21 -->
<g id="node21" class="node">
<title>Node21</title>
<g id="a_node21"><a xlink:href="rcrblockwithdistalpressure_8hpp.html" target="_top" xlink:title="MODEL::RCRBlockWithDistalPressure source file.">
<polygon fill="none" stroke="black" points="174,-224.5 174,-243.5 322,-243.5 322,-224.5 174,-224.5"/>
<text text-anchor="middle" x="248" y="-231.5" font-family="Helvetica,sans-Serif" font-size="10.00">rcrblockwithdistalpressure.hpp</text>
</a>
</g>
</g>
<!-- Node5&#45;&gt;Node21 -->
<g id="edge32" class="edge">
<title>Node5&#45;&gt;Node21</title>
<path fill="none" stroke="midnightblue" d="M497.94,-280.44C445.59,-270.92 361.01,-255.55 304.96,-245.36"/>
<polygon fill="midnightblue" stroke="midnightblue" points="305.31,-241.86 294.84,-243.52 304.05,-248.75 305.31,-241.86"/>
</g>
<!-- Node22 -->
<g id="node22" class="node">
<title>Node22</title>
<g id="a_node22"><a xlink:href="flowreference_8hpp.html" target="_top" xlink:title="MODEL::FlowReference source file.">
<polygon fill="none" stroke="black" points="642,-224.5 642,-243.5 734,-243.5 734,-224.5 642,-224.5"/>
<text text-anchor="middle" x="688" y="-231.5" font-family="Helvetica,sans-Serif" font-size="10.00">flowreference.hpp</text>
</a>
</g>
</g>
<!-- Node5&#45;&gt;Node22 -->
<g id="edge36" class="edge">
<title>Node5&#45;&gt;Node22</title>
<path fill="none" stroke="midnightblue" d="M567.66,-280.44C591.4,-271.48 628.91,-257.31 655.74,-247.18"/>
<polygon fill="midnightblue" stroke="midnightblue" points="657.33,-250.32 665.45,-243.52 654.86,-243.77 657.33,-250.32"/>
</g>
<!-- Node10 -->
<g id="node10" class="node">
<title>Node10</title>
<g id="a_node10"><a xlink:title=" ">
<polygon fill="none" stroke="#bfbfbf" points="162.5,-56.5 162.5,-75.5 233.5,-75.5 233.5,-56.5 162.5,-56.5"/>
<text text-anchor="middle" x="198" y="-63.5" font-family="Helvetica,sans-Serif" font-size="10.00">Eigen/Dense</text>
</a>
</g>
</g>
<!-- Node9&#45;&gt;Node10 -->
<g id="edge9" class="edge">
<title>Node9&#45;&gt;Node10</title>
<path fill="none" stroke="midnightblue" d="M207.18,-112.08C205.73,-104.93 203.63,-94.64 201.81,-85.69"/>
<polygon fill="midnightblue" stroke="midnightblue" points="205.21,-84.85 199.78,-75.75 198.35,-86.25 205.21,-84.85"/>
</g>
<!-- Node12 -->
<g id="node12" class="node">
<title>Node12</title>
<g id="a_node12"><a xlink:title=" ">
<polygon fill="none" stroke="#bfbfbf" points="252,-56.5 252,-75.5 326,-75.5 326,-56.5 252,-56.5"/>
<text text-anchor="middle" x="289" y="-63.5" font-family="Helvetica,sans-Serif" font-size="10.00">Eigen/Sparse</text>
</a>
</g>
</g>
<!-- Node11&#45;&gt;Node12 -->
<g id="edge11" class="edge">
<title>Node11&#45;&gt;Node12</title>
<path fill="none" stroke="midnightblue" d="M351.11,-112.32C339.85,-104.11 322.71,-91.6 309.29,-81.81"/>
<polygon fill="midnightblue" stroke="midnightblue" points="311.25,-78.9 301.11,-75.83 307.12,-84.56 311.25,-78.9"/>
</g>
<!-- Node13 -->
<g id="node13" class="node">
<title>Node13</title>
<g id="a_node13"><a xlink:title=" ">
<polygon fill="none" stroke="#bfbfbf" points="344,-56.5 344,-75.5 432,-75.5 432,-56.5 344,-56.5"/>
<text text-anchor="middle" x="388" y="-63.5" font-family="Helvetica,sans-Serif" font-size="10.00">Eigen/SparseLU</text>
</a>
</g>
</g>
<!-- Node11&#45;&gt;Node13 -->
<g id="edge12" class="edge">
<title>Node11&#45;&gt;Node13</title>
<path fill="none" stroke="midnightblue" d="M367.13,-112.08C370.51,-104.77 375.42,-94.18 379.62,-85.1"/>
<polygon fill="midnightblue" stroke="midnightblue" points="382.92,-86.3 383.95,-75.75 376.57,-83.36 382.92,-86.3"/>
</g>
<!-- Node14&#45;&gt;Node9 -->
<g id="edge14" class="edge">
<title>Node14&#45;&gt;Node9</title>
<path fill="none" stroke="midnightblue" d="M353.18,-224.38C334.4,-216.19 306.37,-202.94 284,-188 262,-173.3 239.4,-152.85 224.85,-138.83"/>
<polygon fill="midnightblue" stroke="midnightblue" points="227.24,-136.28 217.64,-131.79 222.34,-141.28 227.24,-136.28"/>
</g>
<!-- Node14&#45;&gt;Node11 -->
<g id="edge15" class="edge">
<title>Node14&#45;&gt;Node11</title>
<path fill="none" stroke="midnightblue" d="M373.14,-224.37C371.36,-206.62 367.27,-165.67 364.86,-141.6"/>
<polygon fill="midnightblue" stroke="midnightblue" points="368.34,-141.19 363.86,-131.59 361.37,-141.89 368.34,-141.19"/>
</g>
<!-- Node15 -->
<g id="node15" class="node">
<title>Node15</title>
<g id="a_node15"><a xlink:href="block_8hpp.html" target="_top" xlink:title="MODEL::Block source file.">
<polygon fill="none" stroke="black" points="440,-168.5 440,-187.5 498,-187.5 498,-168.5 440,-168.5"/>
<text text-anchor="middle" x="469" y="-175.5" font-family="Helvetica,sans-Serif" font-size="10.00">block.hpp</text>
</a>
</g>
</g>
<!-- Node14&#45;&gt;Node15 -->
<g id="edge16" class="edge">
<title>Node14&#45;&gt;Node15</title>
<path fill="none" stroke="midnightblue" d="M389.26,-224.32C404.22,-215.82 427.25,-202.73 444.73,-192.8"/>
<polygon fill="midnightblue" stroke="midnightblue" points="446.81,-195.64 453.77,-187.65 443.35,-189.55 446.81,-195.64"/>
</g>
<!-- Node15&#45;&gt;Node3 -->
<g id="edge17" class="edge">
<title>Node15&#45;&gt;Node3</title>
<path fill="none" stroke="midnightblue" d="M471.37,-168.33C475,-155.62 482.51,-131.35 492,-112 507.38,-80.65 530.45,-47.09 544.57,-27.63"/>
<polygon fill="midnightblue" stroke="midnightblue" points="547.44,-29.64 550.54,-19.51 541.8,-25.5 547.44,-29.64"/>
</g>
<!-- Node15&#45;&gt;Node6 -->
<g id="edge18" class="edge">
<title>Node15&#45;&gt;Node6</title>
<path fill="none" stroke="midnightblue" d="M481.05,-168.32C492.46,-160.11 509.83,-147.6 523.43,-137.81"/>
<polygon fill="midnightblue" stroke="midnightblue" points="525.66,-140.52 531.73,-131.83 521.57,-134.84 525.66,-140.52"/>
</g>
<!-- Node15&#45;&gt;Node9 -->
<g id="edge25" class="edge">
<title>Node15&#45;&gt;Node9</title>
<path fill="none" stroke="midnightblue" d="M439.93,-170.96C396.48,-161.94 313.98,-144.8 260.26,-133.65"/>
<polygon fill="midnightblue" stroke="midnightblue" points="260.76,-130.17 250.25,-131.57 259.33,-137.03 260.76,-130.17"/>
</g>
<!-- Node15&#45;&gt;Node11 -->
<g id="edge26" class="edge">
<title>Node15&#45;&gt;Node11</title>
<path fill="none" stroke="midnightblue" d="M451.97,-168.32C434.97,-159.66 408.62,-146.24 389.01,-136.25"/>
<polygon fill="midnightblue" stroke="midnightblue" points="390.49,-133.08 379.99,-131.65 387.31,-139.31 390.49,-133.08"/>
</g>
<!-- Node15&#45;&gt;Node16 -->
<g id="edge19" class="edge">
<title>Node15&#45;&gt;Node16</title>
<path fill="none" stroke="midnightblue" d="M498.09,-172.94C567.01,-163.32 740.24,-139.15 817.62,-128.35"/>
<polygon fill="midnightblue" stroke="midnightblue" points="818.47,-131.77 827.89,-126.92 817.5,-124.84 818.47,-131.77"/>
</g>
<!-- Node15&#45;&gt;Node18 -->
<g id="edge24" class="edge">
<title>Node15&#45;&gt;Node18</title>
<path fill="none" stroke="midnightblue" d="M472.98,-168.19C479.93,-153.9 495.68,-125.88 518,-112 575.23,-76.42 654.15,-67.79 704.89,-66.29"/>
<polygon fill="midnightblue" stroke="midnightblue" points="705.03,-69.78 714.95,-66.07 704.88,-62.79 705.03,-69.78"/>
</g>
<!-- Node17 -->
<g id="node17" class="node">
<title>Node17</title>
<g id="a_node17"><a xlink:title=" ">
<polygon fill="none" stroke="#bfbfbf" points="835.5,-0.5 835.5,-19.5 876.5,-19.5 876.5,-0.5 835.5,-0.5"/>
<text text-anchor="middle" x="856" y="-7.5" font-family="Helvetica,sans-Serif" font-size="10.00">string</text>
</a>
</g>
</g>
<!-- Node16&#45;&gt;Node17 -->
<g id="edge20" class="edge">
<title>Node16&#45;&gt;Node17</title>
<path fill="none" stroke="midnightblue" d="M856,-112.37C856,-94.62 856,-53.67 856,-29.6"/>
<polygon fill="midnightblue" stroke="midnightblue" points="859.5,-29.59 856,-19.59 852.5,-29.59 859.5,-29.59"/>
</g>
<!-- Node16&#45;&gt;Node18 -->
<g id="edge21" class="edge">
<title>Node16&#45;&gt;Node18</title>
<path fill="none" stroke="midnightblue" d="M839.77,-112.32C823.65,-103.7 798.7,-90.36 780.04,-80.39"/>
<polygon fill="midnightblue" stroke="midnightblue" points="781.66,-77.28 771.19,-75.65 778.36,-83.46 781.66,-77.28"/>
</g>
<!-- Node18&#45;&gt;Node3 -->
<g id="edge22" class="edge">
<title>Node18&#45;&gt;Node3</title>
<path fill="none" stroke="midnightblue" d="M723.63,-56.44C686.75,-46.39 625.89,-29.79 588.82,-19.68"/>
<polygon fill="midnightblue" stroke="midnightblue" points="589.6,-16.26 579.03,-17.01 587.76,-23.02 589.6,-16.26"/>
</g>
<!-- Node18&#45;&gt;Node17 -->
<g id="edge23" class="edge">
<title>Node18&#45;&gt;Node17</title>
<path fill="none" stroke="midnightblue" d="M771.23,-56.32C787.35,-47.7 812.3,-34.36 830.96,-24.39"/>
<polygon fill="midnightblue" stroke="midnightblue" points="832.64,-27.46 839.81,-19.65 829.34,-21.28 832.64,-27.46"/>
</g>
<!-- Node19&#45;&gt;Node9 -->
<g id="edge30" class="edge">
<title>Node19&#45;&gt;Node9</title>
<path fill="none" stroke="midnightblue" d="M433.15,-224.44C402.88,-216.65 358.72,-203.94 322,-188 304.09,-180.23 259.01,-153.42 231.51,-136.75"/>
<polygon fill="midnightblue" stroke="midnightblue" points="233.28,-133.74 222.92,-131.53 229.65,-139.72 233.28,-133.74"/>
</g>
<!-- Node19&#45;&gt;Node11 -->
<g id="edge31" class="edge">
<title>Node19&#45;&gt;Node11</title>
<path fill="none" stroke="midnightblue" d="M460.68,-224.37C442.96,-205.97 401.23,-162.67 378.47,-139.05"/>
<polygon fill="midnightblue" stroke="midnightblue" points="380.74,-136.36 371.28,-131.59 375.7,-141.22 380.74,-136.36"/>
</g>
<!-- Node19&#45;&gt;Node15 -->
<g id="edge29" class="edge">
<title>Node19&#45;&gt;Node15</title>
<path fill="none" stroke="midnightblue" d="M469,-224.08C469,-217.01 469,-206.86 469,-197.99"/>
<polygon fill="midnightblue" stroke="midnightblue" points="472.5,-197.75 469,-187.75 465.5,-197.75 472.5,-197.75"/>
</g>
<!-- Node20 -->
<g id="node20" class="node">
<title>Node20</title>
<g id="a_node20"><a xlink:title=" ">
<polygon fill="none" stroke="#bfbfbf" points="580,-112.5 580,-131.5 626,-131.5 626,-112.5 580,-112.5"/>
<text text-anchor="middle" x="603" y="-119.5" font-family="Helvetica,sans-Serif" font-size="10.00">math.h</text>
</a>
</g>
</g>
<!-- Node19&#45;&gt;Node20 -->
<g id="edge28" class="edge">
<title>Node19&#45;&gt;Node20</title>
<path fill="none" stroke="midnightblue" d="M479.51,-224.37C502.22,-205.73 556.06,-161.53 584.56,-138.13"/>
<polygon fill="midnightblue" stroke="midnightblue" points="587.03,-140.64 592.53,-131.59 582.58,-135.23 587.03,-140.64"/>
</g>
<!-- Node21&#45;&gt;Node9 -->
<g id="edge33" class="edge">
<title>Node21&#45;&gt;Node9</title>
<path fill="none" stroke="midnightblue" d="M236.73,-224.43C227.03,-216.27 213.72,-203.05 208,-188 202.36,-173.17 203.22,-155.01 205.14,-141.67"/>
<polygon fill="midnightblue" stroke="midnightblue" points="208.59,-142.22 206.88,-131.76 201.7,-141.01 208.59,-142.22"/>
</g>
<!-- Node21&#45;&gt;Node11 -->
<g id="edge34" class="edge">
<title>Node21&#45;&gt;Node11</title>
<path fill="none" stroke="midnightblue" d="M257.02,-224.37C276.34,-205.89 321.92,-162.29 346.54,-138.74"/>
<polygon fill="midnightblue" stroke="midnightblue" points="349.21,-141.03 354.02,-131.59 344.37,-135.97 349.21,-141.03"/>
</g>
<!-- Node21&#45;&gt;Node15 -->
<g id="edge35" class="edge">
<title>Node21&#45;&gt;Node15</title>
<path fill="none" stroke="midnightblue" d="M283.02,-224.44C323.05,-214.66 388.39,-198.7 430.01,-188.53"/>
<polygon fill="midnightblue" stroke="midnightblue" points="430.91,-191.91 439.79,-186.14 429.25,-185.11 430.91,-191.91"/>
</g>
<!-- Node22&#45;&gt;Node9 -->
<g id="edge37" class="edge">
<title>Node22&#45;&gt;Node9</title>
<path fill="none" stroke="midnightblue" d="M641.87,-225.21C573.5,-213.62 451.15,-192.7 431,-188 364.24,-172.43 287.8,-148.72 244.28,-134.65"/>
<polygon fill="midnightblue" stroke="midnightblue" points="245.32,-131.31 234.73,-131.55 243.16,-137.97 245.32,-131.31"/>
</g>
<!-- Node22&#45;&gt;Node11 -->
<g id="edge38" class="edge">
<title>Node22&#45;&gt;Node11</title>
<path fill="none" stroke="midnightblue" d="M665.25,-224.48C631.05,-211.76 564.29,-187.23 507,-168 471.35,-156.03 430.39,-143.34 401.3,-134.49"/>
<polygon fill="midnightblue" stroke="midnightblue" points="402.11,-131.08 391.53,-131.53 400.08,-137.78 402.11,-131.08"/>
</g>
<!-- Node22&#45;&gt;Node15 -->
<g id="edge39" class="edge">
<title>Node22&#45;&gt;Node15</title>
<path fill="none" stroke="midnightblue" d="M653.3,-224.44C613.83,-214.71 549.52,-198.85 508.25,-188.68"/>
<polygon fill="midnightblue" stroke="midnightblue" points="508.83,-185.22 498.28,-186.22 507.15,-192.01 508.83,-185.22"/>
</g>
<!-- Node23 -->
<g id="node23" class="node">
<title>Node23</title>
<g id="a_node23"><a xlink:href="timedependentparameter_8hpp.html" target="_top" xlink:title="MODEL::TimeDependentParameter source file.">
<polygon fill="none" stroke="black" points="630,-168.5 630,-187.5 772,-187.5 772,-168.5 630,-168.5"/>
<text text-anchor="middle" x="701" y="-175.5" font-family="Helvetica,sans-Serif" font-size="10.00">timedependentparameter.hpp</text>
</a>
</g>
</g>
<!-- Node22&#45;&gt;Node23 -->
<g id="edge40" class="edge">
<title>Node22&#45;&gt;Node23</title>
<path fill="none" stroke="midnightblue" d="M690.15,-224.08C691.87,-216.93 694.35,-206.64 696.5,-197.69"/>
<polygon fill="midnightblue" stroke="midnightblue" points="699.96,-198.29 698.89,-187.75 693.15,-196.65 699.96,-198.29"/>
</g>
<!-- Node23&#45;&gt;Node3 -->
<g id="edge42" class="edge">
<title>Node23&#45;&gt;Node3</title>
<path fill="none" stroke="midnightblue" d="M693.26,-168.08C670.1,-141.38 601.12,-61.87 571.16,-27.32"/>
<polygon fill="midnightblue" stroke="midnightblue" points="573.63,-24.83 564.43,-19.57 568.34,-29.42 573.63,-24.83"/>
</g>
<!-- Node23&#45;&gt;Node18 -->
<g id="edge44" class="edge">
<title>Node23&#45;&gt;Node18</title>
<path fill="none" stroke="midnightblue" d="M700.89,-168.08C701.07,-155.07 702.76,-130.41 712,-112 717.72,-100.61 727.29,-90.17 735.95,-82.22"/>
<polygon fill="midnightblue" stroke="midnightblue" points="738.25,-84.85 743.52,-75.66 733.67,-79.56 738.25,-84.85"/>
</g>
<!-- Node23&#45;&gt;Node20 -->
<g id="edge41" class="edge">
<title>Node23&#45;&gt;Node20</title>
<path fill="none" stroke="midnightblue" d="M685.25,-168.32C669.68,-159.74 645.62,-146.49 627.54,-136.52"/>
<polygon fill="midnightblue" stroke="midnightblue" points="629.15,-133.42 618.71,-131.65 625.78,-139.55 629.15,-133.42"/>
</g>
<!-- Node24 -->
<g id="node24" class="node">
<title>Node24</title>
<g id="a_node24"><a xlink:title=" ">
<polygon fill="none" stroke="#bfbfbf" points="720.5,-112.5 720.5,-131.5 771.5,-131.5 771.5,-112.5 720.5,-112.5"/>
<text text-anchor="middle" x="746" y="-119.5" font-family="Helvetica,sans-Serif" font-size="10.00">numeric</text>
</a>
</g>
</g>
<!-- Node23&#45;&gt;Node24 -->
<g id="edge43" class="edge">
<title>Node23&#45;&gt;Node24</title>
<path fill="none" stroke="midnightblue" d="M708.43,-168.08C714.85,-160.38 724.31,-149.03 732.12,-139.65"/>
<polygon fill="midnightblue" stroke="midnightblue" points="734.99,-141.67 738.71,-131.75 729.62,-137.19 734.99,-141.67"/>
</g>
<!-- Node25&#45;&gt;Node17 -->
<g id="edge48" class="edge">
<title>Node25&#45;&gt;Node17</title>
<path fill="none" stroke="midnightblue" d="M922.24,-168.08C911.17,-141.83 878.58,-64.55 863.64,-29.12"/>
<polygon fill="midnightblue" stroke="midnightblue" points="866.72,-27.42 859.61,-19.57 860.27,-30.14 866.72,-27.42"/>
</g>
</g>
</svg>
