<?xml version="1.0" encoding="UTF-8" standalone="no"?>
<!DOCTYPE svg PUBLIC "-//W3C//DTD SVG 1.1//EN"
 "http://www.w3.org/Graphics/SVG/1.1/DTD/svg11.dtd">
<!-- Generated by graphviz version 3.0.0 (20220413.0242)
 -->
<!-- Title: model/junction.hpp Pages: 1 -->
<svg width="1016pt" height="252pt"
 viewBox="0.00 0.00 1015.50 252.00" xmlns="http://www.w3.org/2000/svg" xmlns:xlink="http://www.w3.org/1999/xlink">
<g id="graph0" class="graph" transform="scale(1 1) rotate(0) translate(4 248)">
<title>model/junction.hpp</title>
<!-- Node1 -->
<g id="node1" class="node">
<title>Node1</title>
<g id="a_node1"><a xlink:title="MODEL::Junction source file.">
<polygon fill="#bfbfbf" stroke="black" points="517,-224.5 517,-243.5 615,-243.5 615,-224.5 517,-224.5"/>
<text text-anchor="middle" x="566" y="-231.5" font-family="Helvetica,sans-Serif" font-size="10.00">model/junction.hpp</text>
</a>
</g>
</g>
<!-- Node2 -->
<g id="node2" class="node">
<title>Node2</title>
<g id="a_node2"><a xlink:href="configreader_8hpp.html" target="_top" xlink:title="IO::ConfigReader source file.">
<polygon fill="none" stroke="black" points="0,-112.5 0,-131.5 98,-131.5 98,-112.5 0,-112.5"/>
<text text-anchor="middle" x="49" y="-119.5" font-family="Helvetica,sans-Serif" font-size="10.00">io/configreader.hpp</text>
</a>
</g>
</g>
<!-- Node1&#45;&gt;Node2 -->
<g id="edge1" class="edge">
<title>Node1&#45;&gt;Node2</title>
<path fill="none" stroke="midnightblue" d="M515.78,-222.31C413.39,-200.53 182.33,-151.37 89.11,-131.53"/>
<polygon fill="midnightblue" stroke="midnightblue" points="515.35,-225.8 525.86,-224.46 516.81,-218.96 515.35,-225.8"/>
</g>
<!-- Node4 -->
<g id="node4" class="node">
<title>Node4</title>
<g id="a_node4"><a xlink:href="model_8hpp.html" target="_top" xlink:title="MODEL::Model source file.">
<polygon fill="none" stroke="black" points="456,-168.5 456,-187.5 546,-187.5 546,-168.5 456,-168.5"/>
<text text-anchor="middle" x="501" y="-175.5" font-family="Helvetica,sans-Serif" font-size="10.00">model/model.hpp</text>
</a>
</g>
</g>
<!-- Node1&#45;&gt;Node4 -->
<g id="edge3" class="edge">
<title>Node1&#45;&gt;Node4</title>
<path fill="none" stroke="midnightblue" d="M547.73,-217.82C536.08,-208.15 521.4,-195.95 511.63,-187.83"/>
<polygon fill="midnightblue" stroke="midnightblue" points="545.63,-220.63 555.56,-224.32 550.1,-215.24 545.63,-220.63"/>
</g>
<!-- Node3 -->
<g id="node3" class="node">
<title>Node3</title>
<g id="a_node3"><a xlink:href="main_8cpp.html" target="_top" xlink:title="Main routine of svZeroDSolver.">
<polygon fill="none" stroke="black" points="311,-56.5 311,-75.5 367,-75.5 367,-56.5 311,-56.5"/>
<text text-anchor="middle" x="339" y="-63.5" font-family="Helvetica,sans-Serif" font-size="10.00">main.cpp</text>
</a>
</g>
</g>
<!-- Node2&#45;&gt;Node3 -->
<g id="edge2" class="edge">
<title>Node2&#45;&gt;Node3</title>
<path fill="none" stroke="midnightblue" d="M104.91,-110.59C166.57,-99.11 263.32,-81.09 310.8,-72.25"/>
<polygon fill="midnightblue" stroke="midnightblue" points="104.14,-107.17 94.95,-112.44 105.42,-114.05 104.14,-107.17"/>
</g>
<!-- Node4&#45;&gt;Node2 -->
<g id="edge23" class="edge">
<title>Node4&#45;&gt;Node2</title>
<path fill="none" stroke="midnightblue" d="M445.39,-171.36C369,-163.45 227.4,-148.21 107,-132 104.07,-131.61 101.06,-131.19 98.03,-130.75"/>
<polygon fill="midnightblue" stroke="midnightblue" points="445.42,-174.88 455.72,-172.43 446.13,-167.92 445.42,-174.88"/>
</g>
<!-- Node4&#45;&gt;Node3 -->
<g id="edge28" class="edge">
<title>Node4&#45;&gt;Node3</title>
<path fill="none" stroke="midnightblue" d="M489.06,-159.89C478.35,-145.56 461.51,-125.36 443,-112 419.71,-95.19 389.16,-82.91 367.2,-75.47"/>
<polygon fill="midnightblue" stroke="midnightblue" points="486.47,-162.28 495.17,-168.33 492.14,-158.18 486.47,-162.28"/>
</g>
<!-- Node5 -->
<g id="node5" class="node">
<title>Node5</title>
<g id="a_node5"><a xlink:href="integrator_8hpp.html" target="_top" xlink:title="ALGEBRA::Integrator source file.">
<polygon fill="none" stroke="black" points="116,-112.5 116,-131.5 226,-131.5 226,-112.5 116,-112.5"/>
<text text-anchor="middle" x="171" y="-119.5" font-family="Helvetica,sans-Serif" font-size="10.00">algebra/integrator.hpp</text>
</a>
</g>
</g>
<!-- Node4&#45;&gt;Node5 -->
<g id="edge4" class="edge">
<title>Node4&#45;&gt;Node5</title>
<path fill="none" stroke="midnightblue" d="M445.81,-167.97C383.74,-157.81 283.7,-141.44 222.98,-131.51"/>
<polygon fill="midnightblue" stroke="midnightblue" points="445.37,-171.44 455.81,-169.6 446.5,-164.54 445.37,-171.44"/>
</g>
<!-- Node6 -->
<g id="node6" class="node">
<title>Node6</title>
<g id="a_node6"><a xlink:href="sparsesystem_8hpp.html" target="_top" xlink:title="ALGEBRA::SparseSystem source file.">
<polygon fill="none" stroke="black" points="567,-112.5 567,-131.5 697,-131.5 697,-112.5 567,-112.5"/>
<text text-anchor="middle" x="632" y="-119.5" font-family="Helvetica,sans-Serif" font-size="10.00">algebra/sparsesystem.hpp</text>
</a>
</g>
</g>
<!-- Node4&#45;&gt;Node6 -->
<g id="edge6" class="edge">
<title>Node4&#45;&gt;Node6</title>
<path fill="none" stroke="midnightblue" d="M525.83,-164.37C548.91,-154.26 582.89,-140.35 606.26,-131.52"/>
<polygon fill="midnightblue" stroke="midnightblue" points="524.38,-161.18 516.67,-168.44 527.23,-167.58 524.38,-161.18"/>
</g>
<!-- Node12 -->
<g id="node12" class="node">
<title>Node12</title>
<g id="a_node12"><a xlink:href="csvwriter_8hpp.html" target="_top" xlink:title="IO::write_csv source file.">
<polygon fill="none" stroke="black" points="244.5,-112.5 244.5,-131.5 329.5,-131.5 329.5,-112.5 244.5,-112.5"/>
<text text-anchor="middle" x="287" y="-119.5" font-family="Helvetica,sans-Serif" font-size="10.00">io/csvwriter.hpp</text>
</a>
</g>
</g>
<!-- Node4&#45;&gt;Node12 -->
<g id="edge24" class="edge">
<title>Node4&#45;&gt;Node12</title>
<path fill="none" stroke="midnightblue" d="M457.24,-165.96C416.83,-155.76 357.63,-140.82 320.75,-131.52"/>
<polygon fill="midnightblue" stroke="midnightblue" points="456.54,-169.39 467.09,-168.44 458.25,-162.6 456.54,-169.39"/>
</g>
<!-- Node13 -->
<g id="node13" class="node">
<title>Node13</title>
<g id="a_node13"><a xlink:href="jsonwriter_8hpp.html" target="_top" xlink:title="IO::write_json source file.">
<polygon fill="none" stroke="black" points="347.5,-112.5 347.5,-131.5 434.5,-131.5 434.5,-112.5 347.5,-112.5"/>
<text text-anchor="middle" x="391" y="-119.5" font-family="Helvetica,sans-Serif" font-size="10.00">io/jsonwriter.hpp</text>
</a>
</g>
</g>
<!-- Node4&#45;&gt;Node13 -->
<g id="edge26" class="edge">
<title>Node4&#45;&gt;Node13</title>
<path fill="none" stroke="midnightblue" d="M474.24,-163.86C453.84,-153.85 426.33,-140.35 408.63,-131.65"/>
<polygon fill="midnightblue" stroke="midnightblue" points="472.81,-167.06 483.33,-168.32 475.89,-160.78 472.81,-167.06"/>
</g>
<!-- Node5&#45;&gt;Node3 -->
<g id="edge5" class="edge">
<title>Node5&#45;&gt;Node3</title>
<path fill="none" stroke="midnightblue" d="M207.39,-109.3C239.04,-99.13 284.17,-84.62 312.5,-75.52"/>
<polygon fill="midnightblue" stroke="midnightblue" points="206.07,-106.05 197.62,-112.44 208.21,-112.72 206.07,-106.05"/>
</g>
<!-- Node6&#45;&gt;Node1 -->
<g id="edge20" class="edge">
<title>Node6&#45;&gt;Node1</title>
<path fill="none" stroke="midnightblue" d="M621.62,-140.31C607.29,-164.18 582.02,-206.3 571.18,-224.37"/>
<polygon fill="midnightblue" stroke="midnightblue" points="624.7,-141.97 626.85,-131.59 618.7,-138.37 624.7,-141.97"/>
</g>
<!-- Node6&#45;&gt;Node3 -->
<g id="edge7" class="edge">
<title>Node6&#45;&gt;Node3</title>
<path fill="none" stroke="midnightblue" d="M575.49,-110.58C513.02,-99.07 414.91,-80.99 367.09,-72.18"/>
<polygon fill="midnightblue" stroke="midnightblue" points="575.1,-114.07 585.57,-112.44 576.37,-107.19 575.1,-114.07"/>
</g>
<!-- Node6&#45;&gt;Node4 -->
<g id="edge21" class="edge">
<title>Node6&#45;&gt;Node4</title>
<path fill="none" stroke="midnightblue" d="M607.28,-135.59C584.23,-145.69 550.25,-159.6 526.85,-168.44"/>
<polygon fill="midnightblue" stroke="midnightblue" points="608.71,-138.78 616.42,-131.52 605.86,-132.39 608.71,-138.78"/>
</g>
<!-- Node7 -->
<g id="node7" class="node">
<title>Node7</title>
<g id="a_node7"><a xlink:href="block_8hpp.html" target="_top" xlink:title="MODEL::Block source file.">
<polygon fill="none" stroke="black" points="681.5,-56.5 681.5,-75.5 768.5,-75.5 768.5,-56.5 681.5,-56.5"/>
<text text-anchor="middle" x="725" y="-63.5" font-family="Helvetica,sans-Serif" font-size="10.00">model/block.hpp</text>
</a>
</g>
</g>
<!-- Node6&#45;&gt;Node7 -->
<g id="edge8" class="edge">
<title>Node6&#45;&gt;Node7</title>
<path fill="none" stroke="midnightblue" d="M655.81,-107.18C672.92,-97.24 695.47,-84.15 710.1,-75.65"/>
<polygon fill="midnightblue" stroke="midnightblue" points="653.83,-104.28 646.94,-112.32 657.35,-110.33 653.83,-104.28"/>
</g>
<!-- Node8 -->
<g id="node8" class="node">
<title>Node8</title>
<g id="a_node8"><a xlink:href="bloodvessel_8hpp.html" target="_top" xlink:title="MODEL::BloodVessel source file.">
<polygon fill="none" stroke="black" points="363,-0.5 363,-19.5 479,-19.5 479,-0.5 363,-0.5"/>
<text text-anchor="middle" x="421" y="-7.5" font-family="Helvetica,sans-Serif" font-size="10.00">model/bloodvessel.hpp</text>
</a>
</g>
</g>
<!-- Node6&#45;&gt;Node8 -->
<g id="edge17" class="edge">
<title>Node6&#45;&gt;Node8</title>
<path fill="none" stroke="midnightblue" d="M608.12,-107.18C584.64,-93.71 547.66,-72.87 515,-56 489.28,-42.71 458.99,-28.46 439.89,-19.63"/>
<polygon fill="midnightblue" stroke="midnightblue" points="606.6,-110.34 617.01,-112.29 610.09,-104.27 606.6,-110.34"/>
</g>
<!-- Node9 -->
<g id="node9" class="node">
<title>Node9</title>
<g id="a_node9"><a xlink:href="closedloopheartpulmonary_8hpp.html" target="_top" xlink:title="MODEL::ClosedLoopHeartPulmonary source file.">
<polygon fill="none" stroke="black" points="637,-0.5 637,-19.5 813,-19.5 813,-0.5 637,-0.5"/>
<text text-anchor="middle" x="725" y="-7.5" font-family="Helvetica,sans-Serif" font-size="10.00">model/closedloopheartpulmonary.hpp</text>
</a>
</g>
</g>
<!-- Node6&#45;&gt;Node9 -->
<g id="edge18" class="edge">
<title>Node6&#45;&gt;Node9</title>
<path fill="none" stroke="midnightblue" d="M641.1,-103.62C648.68,-89.95 660.26,-70.82 673,-56 685.14,-41.88 701.8,-28.26 712.95,-19.77"/>
<polygon fill="midnightblue" stroke="midnightblue" points="638,-102 636.33,-112.46 644.16,-105.32 638,-102"/>
</g>
<!-- Node10 -->
<g id="node10" class="node">
<title>Node10</title>
<g id="a_node10"><a xlink:href="flowreference_8hpp.html" target="_top" xlink:title="MODEL::FlowReference source file.">
<polygon fill="none" stroke="black" points="497,-0.5 497,-19.5 619,-19.5 619,-0.5 497,-0.5"/>
<text text-anchor="middle" x="558" y="-7.5" font-family="Helvetica,sans-Serif" font-size="10.00">model/flowreference.hpp</text>
</a>
</g>
</g>
<!-- Node6&#45;&gt;Node10 -->
<g id="edge19" class="edge">
<title>Node6&#45;&gt;Node10</title>
<path fill="none" stroke="midnightblue" d="M621.67,-103.91C613.57,-90.68 601.88,-71.97 591,-56 582.28,-43.19 571.57,-28.81 564.76,-19.83"/>
<polygon fill="midnightblue" stroke="midnightblue" points="618.69,-105.74 626.88,-112.46 624.67,-102.1 618.69,-105.74"/>
</g>
<!-- Node11 -->
<g id="node11" class="node">
<title>Node11</title>
<g id="a_node11"><a xlink:href="rcrblockwithdistalpressure_8hpp.html" target="_top" xlink:title="MODEL::RCRBlockWithDistalPressure source file.">
<polygon fill="none" stroke="black" points="830.5,-0.5 830.5,-19.5 1007.5,-19.5 1007.5,-0.5 830.5,-0.5"/>
<text text-anchor="middle" x="919" y="-7.5" font-family="Helvetica,sans-Serif" font-size="10.00">model/rcrblockwithdistalpressure.hpp</text>
</a>
</g>
</g>
<!-- Node6&#45;&gt;Node11 -->
<g id="edge22" class="edge">
<title>Node6&#45;&gt;Node11</title>
<path fill="none" stroke="midnightblue" d="M673.99,-109.7C703.45,-101.38 743.56,-89.24 778,-76 797.67,-68.43 801.87,-64.84 821,-56 848.53,-43.28 880.46,-28.64 900.2,-19.6"/>
<polygon fill="midnightblue" stroke="midnightblue" points="672.73,-106.42 664.04,-112.48 674.61,-113.16 672.73,-106.42"/>
</g>
<!-- Node7&#45;&gt;Node1 -->
<g id="edge14" class="edge">
<title>Node7&#45;&gt;Node1</title>
<path fill="none" stroke="midnightblue" d="M722.79,-86.02C720.44,-99.81 715.65,-118.35 706,-132 674.01,-177.28 615.14,-209.86 584.95,-224.45"/>
<polygon fill="midnightblue" stroke="midnightblue" points="726.31,-86.17 724.25,-75.77 719.38,-85.18 726.31,-86.17"/>
</g>
<!-- Node7&#45;&gt;Node8 -->
<g id="edge9" class="edge">
<title>Node7&#45;&gt;Node8</title>
<path fill="none" stroke="midnightblue" d="M671.49,-55.5C614.18,-45.32 524.08,-29.31 468.99,-19.52"/>
<polygon fill="midnightblue" stroke="midnightblue" points="670.99,-58.96 681.44,-57.26 672.21,-52.07 670.99,-58.96"/>
</g>
<!-- Node7&#45;&gt;Node9 -->
<g id="edge11" class="edge">
<title>Node7&#45;&gt;Node9</title>
<path fill="none" stroke="midnightblue" d="M725,-45.8C725,-36.91 725,-26.78 725,-19.75"/>
<polygon fill="midnightblue" stroke="midnightblue" points="721.5,-46.08 725,-56.08 728.5,-46.08 721.5,-46.08"/>
</g>
<!-- Node7&#45;&gt;Node10 -->
<g id="edge12" class="edge">
<title>Node7&#45;&gt;Node10</title>
<path fill="none" stroke="midnightblue" d="M688.83,-53.3C657.36,-43.13 612.51,-28.62 584.34,-19.52"/>
<polygon fill="midnightblue" stroke="midnightblue" points="687.95,-56.7 698.54,-56.44 690.1,-50.04 687.95,-56.7"/>
</g>
<!-- Node7&#45;&gt;Node11 -->
<g id="edge15" class="edge">
<title>Node7&#45;&gt;Node11</title>
<path fill="none" stroke="midnightblue" d="M765.6,-53.7C802.22,-43.51 855.26,-28.74 888.4,-19.52"/>
<polygon fill="midnightblue" stroke="midnightblue" points="764.44,-50.39 755.74,-56.44 766.31,-57.13 764.44,-50.39"/>
</g>
<!-- Node8&#45;&gt;Node4 -->
<g id="edge10" class="edge">
<title>Node8&#45;&gt;Node4</title>
<path fill="none" stroke="midnightblue" d="M429.51,-28.66C446.48,-63.88 484,-141.72 496.7,-168.08"/>
<polygon fill="midnightblue" stroke="midnightblue" points="432.62,-27.06 425.13,-19.57 426.32,-30.1 432.62,-27.06"/>
</g>
<!-- Node10&#45;&gt;Node4 -->
<g id="edge13" class="edge">
<title>Node10&#45;&gt;Node4</title>
<path fill="none" stroke="midnightblue" d="M551.78,-29.12C539.61,-64.55 513.08,-141.83 504.06,-168.08"/>
<polygon fill="midnightblue" stroke="midnightblue" points="555.12,-30.16 555.06,-19.57 548.5,-27.89 555.12,-30.16"/>
</g>
<!-- Node11&#45;&gt;Node4 -->
<g id="edge16" class="edge">
<title>Node11&#45;&gt;Node4</title>
<path fill="none" stroke="midnightblue" d="M897.2,-24.97C875.95,-38.44 842.6,-59.2 813,-76 766.32,-102.49 756.44,-113.64 706,-132 652.76,-151.38 588.56,-163.82 546.36,-170.6"/>
<polygon fill="midnightblue" stroke="midnightblue" points="899.23,-27.82 905.79,-19.5 895.47,-21.92 899.23,-27.82"/>
</g>
<!-- Node12&#45;&gt;Node3 -->
<g id="edge25" class="edge">
<title>Node12&#45;&gt;Node3</title>
<path fill="none" stroke="midnightblue" d="M302.68,-104.72C311.84,-95.2 323.05,-83.56 330.57,-75.75"/>
<polygon fill="midnightblue" stroke="midnightblue" points="300,-102.45 295.59,-112.08 305.04,-107.31 300,-102.45"/>
</g>
<!-- Node13&#45;&gt;Node3 -->
<g id="edge27" class="edge">
<title>Node13&#45;&gt;Node3</title>
<path fill="none" stroke="midnightblue" d="M375.32,-104.72C366.16,-95.2 354.95,-83.56 347.43,-75.75"/>
<polygon fill="midnightblue" stroke="midnightblue" points="372.96,-107.31 382.41,-112.08 378,-102.45 372.96,-107.31"/>
</g>
</g>
</svg>
