<?xml version="1.0" encoding="UTF-8" standalone="no"?>
<!DOCTYPE svg PUBLIC "-//W3C//DTD SVG 1.1//EN"
 "http://www.w3.org/Graphics/SVG/1.1/DTD/svg11.dtd">
<!-- Generated by graphviz version 3.0.0 (20220413.0242)
 -->
<!-- Title: model/junction.hpp Pages: 1 -->
<svg width="956pt" height="252pt"
 viewBox="0.00 0.00 955.84 252.00" xmlns="http://www.w3.org/2000/svg" xmlns:xlink="http://www.w3.org/1999/xlink">
<g id="graph0" class="graph" transform="scale(1 1) rotate(0) translate(4 248)">
<title>model/junction.hpp</title>
<!-- Node1 -->
<g id="node1" class="node">
<title>Node1</title>
<g id="a_node1"><a xlink:title="MODEL::Junction source file.">
<polygon fill="#bfbfbf" stroke="black" points="290,-224.5 290,-243.5 388,-243.5 388,-224.5 290,-224.5"/>
<text text-anchor="middle" x="339" y="-231.5" font-family="Helvetica,sans-Serif" font-size="10.00">model/junction.hpp</text>
</a>
</g>
</g>
<!-- Node2 -->
<g id="node2" class="node">
<title>Node2</title>
<g id="a_node2"><a xlink:href="model_8hpp.html" target="_top" xlink:title="MODEL::Model source file.">
<polygon fill="none" stroke="black" points="464,-168.5 464,-187.5 554,-187.5 554,-168.5 464,-168.5"/>
<text text-anchor="middle" x="509" y="-175.5" font-family="Helvetica,sans-Serif" font-size="10.00">model/model.hpp</text>
</a>
</g>
</g>
<!-- Node1&#45;&gt;Node2 -->
<g id="edge1" class="edge">
<title>Node1&#45;&gt;Node2</title>
<path fill="none" stroke="midnightblue" d="M375.82,-221.3C407.85,-211.13 453.52,-196.62 482.19,-187.52"/>
<polygon fill="midnightblue" stroke="midnightblue" points="374.41,-218.08 365.94,-224.44 376.53,-224.75 374.41,-218.08"/>
</g>
<!-- Node3 -->
<g id="node3" class="node">
<title>Node3</title>
<g id="a_node3"><a xlink:href="integrator_8hpp.html" target="_top" xlink:title="ALGEBRA::Integrator source file.">
<polygon fill="none" stroke="black" points="785,-112.5 785,-131.5 895,-131.5 895,-112.5 785,-112.5"/>
<text text-anchor="middle" x="840" y="-119.5" font-family="Helvetica,sans-Serif" font-size="10.00">algebra/integrator.hpp</text>
</a>
</g>
</g>
<!-- Node2&#45;&gt;Node3 -->
<g id="edge2" class="edge">
<title>Node2&#45;&gt;Node3</title>
<path fill="none" stroke="midnightblue" d="M564.36,-167.97C626.62,-157.81 726.96,-141.44 787.87,-131.51"/>
<polygon fill="midnightblue" stroke="midnightblue" points="563.64,-164.54 554.33,-169.6 564.76,-171.45 563.64,-164.54"/>
</g>
<!-- Node4 -->
<g id="node4" class="node">
<title>Node4</title>
<g id="a_node4"><a xlink:href="main_8cpp.html" target="_top" xlink:title="Main routine of svZeroDSolver.">
<polygon fill="none" stroke="black" points="643,-56.5 643,-75.5 699,-75.5 699,-56.5 643,-56.5"/>
<text text-anchor="middle" x="671" y="-63.5" font-family="Helvetica,sans-Serif" font-size="10.00">main.cpp</text>
</a>
</g>
</g>
<!-- Node2&#45;&gt;Node4 -->
<g id="edge31" class="edge">
<title>Node2&#45;&gt;Node4</title>
<path fill="none" stroke="midnightblue" d="M564.39,-174.71C667.78,-169.85 881.78,-156.89 904,-132 909.92,-125.37 909.66,-118.86 904,-112 878.3,-80.86 755.37,-71.03 699.16,-68.13"/>
<polygon fill="midnightblue" stroke="midnightblue" points="563.96,-171.22 554.14,-175.18 564.29,-178.21 563.96,-171.22"/>
</g>
<!-- Node5 -->
<g id="node5" class="node">
<title>Node5</title>
<g id="a_node5"><a xlink:href="sparsesystem_8hpp.html" target="_top" xlink:title="ALGEBRA::SparseSystem source file.">
<polygon fill="none" stroke="black" points="274,-112.5 274,-131.5 404,-131.5 404,-112.5 274,-112.5"/>
<text text-anchor="middle" x="339" y="-119.5" font-family="Helvetica,sans-Serif" font-size="10.00">algebra/sparsesystem.hpp</text>
</a>
</g>
</g>
<!-- Node2&#45;&gt;Node5 -->
<g id="edge4" class="edge">
<title>Node2&#45;&gt;Node5</title>
<path fill="none" stroke="midnightblue" d="M467.38,-165.57C433.65,-155.38 387.63,-140.7 360.73,-131.52"/>
<polygon fill="midnightblue" stroke="midnightblue" points="466.39,-168.93 476.97,-168.44 468.4,-162.22 466.39,-168.93"/>
</g>
<!-- Node12 -->
<g id="node12" class="node">
<title>Node12</title>
<g id="a_node12"><a xlink:href="configreader_8hpp.html" target="_top" xlink:title="IO::ConfigReader source file.">
<polygon fill="none" stroke="black" points="460,-112.5 460,-131.5 558,-131.5 558,-112.5 460,-112.5"/>
<text text-anchor="middle" x="509" y="-119.5" font-family="Helvetica,sans-Serif" font-size="10.00">io/configreader.hpp</text>
</a>
</g>
</g>
<!-- Node2&#45;&gt;Node12 -->
<g id="edge25" class="edge">
<title>Node2&#45;&gt;Node12</title>
<path fill="none" stroke="midnightblue" d="M509,-157.8C509,-148.91 509,-138.78 509,-131.75"/>
<polygon fill="midnightblue" stroke="midnightblue" points="505.5,-158.08 509,-168.08 512.5,-158.08 505.5,-158.08"/>
</g>
<!-- Node13 -->
<g id="node13" class="node">
<title>Node13</title>
<g id="a_node13"><a xlink:href="csvwriter_8hpp.html" target="_top" xlink:title="IO::write_csv source file.">
<polygon fill="none" stroke="black" points="576.5,-112.5 576.5,-131.5 661.5,-131.5 661.5,-112.5 576.5,-112.5"/>
<text text-anchor="middle" x="619" y="-119.5" font-family="Helvetica,sans-Serif" font-size="10.00">io/csvwriter.hpp</text>
</a>
</g>
</g>
<!-- Node2&#45;&gt;Node13 -->
<g id="edge27" class="edge">
<title>Node2&#45;&gt;Node13</title>
<path fill="none" stroke="midnightblue" d="M535.76,-163.86C556.16,-153.85 583.67,-140.35 601.37,-131.65"/>
<polygon fill="midnightblue" stroke="midnightblue" points="534.11,-160.78 526.67,-168.32 537.19,-167.06 534.11,-160.78"/>
</g>
<!-- Node14 -->
<g id="node14" class="node">
<title>Node14</title>
<g id="a_node14"><a xlink:href="jsonwriter_8hpp.html" target="_top" xlink:title="IO::write_json source file.">
<polygon fill="none" stroke="black" points="679.5,-112.5 679.5,-131.5 766.5,-131.5 766.5,-112.5 679.5,-112.5"/>
<text text-anchor="middle" x="723" y="-119.5" font-family="Helvetica,sans-Serif" font-size="10.00">io/jsonwriter.hpp</text>
</a>
</g>
</g>
<!-- Node2&#45;&gt;Node14 -->
<g id="edge29" class="edge">
<title>Node2&#45;&gt;Node14</title>
<path fill="none" stroke="midnightblue" d="M552.76,-165.96C593.17,-155.76 652.37,-140.82 689.25,-131.52"/>
<polygon fill="midnightblue" stroke="midnightblue" points="551.75,-162.6 542.91,-168.44 553.46,-169.39 551.75,-162.6"/>
</g>
<!-- Node3&#45;&gt;Node4 -->
<g id="edge3" class="edge">
<title>Node3&#45;&gt;Node4</title>
<path fill="none" stroke="midnightblue" d="M803.4,-109.3C771.55,-99.13 726.16,-84.62 697.65,-75.52"/>
<polygon fill="midnightblue" stroke="midnightblue" points="802.63,-112.73 813.22,-112.44 804.76,-106.07 802.63,-112.73"/>
</g>
<!-- Node5&#45;&gt;Node1 -->
<g id="edge20" class="edge">
<title>Node5&#45;&gt;Node1</title>
<path fill="none" stroke="midnightblue" d="M339,-141.6C339,-165.67 339,-206.62 339,-224.37"/>
<polygon fill="midnightblue" stroke="midnightblue" points="342.5,-141.59 339,-131.59 335.5,-141.59 342.5,-141.59"/>
</g>
<!-- Node5&#45;&gt;Node2 -->
<g id="edge21" class="edge">
<title>Node5&#45;&gt;Node2</title>
<path fill="none" stroke="midnightblue" d="M380.48,-134.39C414.17,-144.56 460.2,-159.24 487.15,-168.44"/>
<polygon fill="midnightblue" stroke="midnightblue" points="381.47,-131.03 370.89,-131.52 379.47,-137.74 381.47,-131.03"/>
</g>
<!-- Node5&#45;&gt;Node4 -->
<g id="edge5" class="edge">
<title>Node5&#45;&gt;Node4</title>
<path fill="none" stroke="midnightblue" d="M401.5,-110.83C473.76,-99.08 589.56,-80.25 642.69,-71.6"/>
<polygon fill="midnightblue" stroke="midnightblue" points="400.91,-107.38 391.61,-112.44 402.04,-114.29 400.91,-107.38"/>
</g>
<!-- Node6 -->
<g id="node6" class="node">
<title>Node6</title>
<g id="a_node6"><a xlink:href="block_8hpp.html" target="_top" xlink:title="MODEL::Block source file.">
<polygon fill="none" stroke="black" points="223.5,-56.5 223.5,-75.5 310.5,-75.5 310.5,-56.5 223.5,-56.5"/>
<text text-anchor="middle" x="267" y="-63.5" font-family="Helvetica,sans-Serif" font-size="10.00">model/block.hpp</text>
</a>
</g>
</g>
<!-- Node5&#45;&gt;Node6 -->
<g id="edge6" class="edge">
<title>Node5&#45;&gt;Node6</title>
<path fill="none" stroke="midnightblue" d="M319.13,-106.1C306.18,-96.38 289.7,-84.03 278.78,-75.83"/>
<polygon fill="midnightblue" stroke="midnightblue" points="317.33,-109.12 327.43,-112.32 321.53,-103.52 317.33,-109.12"/>
</g>
<!-- Node7 -->
<g id="node7" class="node">
<title>Node7</title>
<g id="a_node7"><a xlink:href="bloodvessel_8hpp.html" target="_top" xlink:title="MODEL::BloodVessel source file.">
<polygon fill="none" stroke="black" points="0,-0.5 0,-19.5 116,-19.5 116,-0.5 0,-0.5"/>
<text text-anchor="middle" x="58" y="-7.5" font-family="Helvetica,sans-Serif" font-size="10.00">model/bloodvessel.hpp</text>
</a>
</g>
</g>
<!-- Node5&#45;&gt;Node7 -->
<g id="edge18" class="edge">
<title>Node5&#45;&gt;Node7</title>
<path fill="none" stroke="midnightblue" d="M298.95,-109.53C270.71,-101.11 232.16,-88.92 199,-76 153.29,-58.19 101.31,-32.85 75.07,-19.69"/>
<polygon fill="midnightblue" stroke="midnightblue" points="298.28,-112.99 308.86,-112.46 300.27,-106.27 298.28,-112.99"/>
</g>
<!-- Node8 -->
<g id="node8" class="node">
<title>Node8</title>
<g id="a_node8"><a xlink:href="flowreference_8hpp.html" target="_top" xlink:title="MODEL::FlowReference source file.">
<polygon fill="none" stroke="black" points="134,-0.5 134,-19.5 256,-19.5 256,-0.5 134,-0.5"/>
<text text-anchor="middle" x="195" y="-7.5" font-family="Helvetica,sans-Serif" font-size="10.00">model/flowreference.hpp</text>
</a>
</g>
</g>
<!-- Node5&#45;&gt;Node8 -->
<g id="edge19" class="edge">
<title>Node5&#45;&gt;Node8</title>
<path fill="none" stroke="midnightblue" d="M272.9,-109.64C251.63,-103.01 229.55,-92.54 214,-76 199.18,-60.24 195.85,-33.56 195.15,-19.79"/>
<polygon fill="midnightblue" stroke="midnightblue" points="272.02,-113.02 282.6,-112.42 273.95,-106.3 272.02,-113.02"/>
</g>
<!-- Node9 -->
<g id="node9" class="node">
<title>Node9</title>
<g id="a_node9"><a xlink:href="pressurereference_8hpp.html" target="_top" xlink:title="MODEL::PressureReference source file.">
<polygon fill="none" stroke="black" points="274,-0.5 274,-19.5 416,-19.5 416,-0.5 274,-0.5"/>
<text text-anchor="middle" x="345" y="-7.5" font-family="Helvetica,sans-Serif" font-size="10.00">model/pressurereference.hpp</text>
</a>
</g>
</g>
<!-- Node5&#45;&gt;Node9 -->
<g id="edge22" class="edge">
<title>Node5&#45;&gt;Node9</title>
<path fill="none" stroke="midnightblue" d="M340.02,-102.35C341.33,-78.25 343.57,-37.31 344.53,-19.59"/>
<polygon fill="midnightblue" stroke="midnightblue" points="336.52,-102.19 339.47,-112.37 343.51,-102.57 336.52,-102.19"/>
</g>
<!-- Node10 -->
<g id="node10" class="node">
<title>Node10</title>
<g id="a_node10"><a xlink:href="rcrblockwithdistalpressure_8hpp.html" target="_top" xlink:title="MODEL::RCRBlockWithDistalPressure source file.">
<polygon fill="none" stroke="black" points="640.5,-0.5 640.5,-19.5 817.5,-19.5 817.5,-0.5 640.5,-0.5"/>
<text text-anchor="middle" x="729" y="-7.5" font-family="Helvetica,sans-Serif" font-size="10.00">model/rcrblockwithdistalpressure.hpp</text>
</a>
</g>
</g>
<!-- Node5&#45;&gt;Node10 -->
<g id="edge23" class="edge">
<title>Node5&#45;&gt;Node10</title>
<path fill="none" stroke="midnightblue" d="M379.25,-109.65C457.63,-87.54 629.14,-39.17 698.74,-19.53"/>
<polygon fill="midnightblue" stroke="midnightblue" points="377.95,-106.38 369.28,-112.46 379.85,-113.11 377.95,-106.38"/>
</g>
<!-- Node11 -->
<g id="node11" class="node">
<title>Node11</title>
<g id="a_node11"><a xlink:href="resistancewithdistalpressure_8hpp.html" target="_top" xlink:title="MODEL::ResistanceWithDistalPressure source file.">
<polygon fill="none" stroke="black" points="434,-0.5 434,-19.5 622,-19.5 622,-0.5 434,-0.5"/>
<text text-anchor="middle" x="528" y="-7.5" font-family="Helvetica,sans-Serif" font-size="10.00">model/resistancewithdistalpressure.hpp</text>
</a>
</g>
</g>
<!-- Node5&#45;&gt;Node11 -->
<g id="edge24" class="edge">
<title>Node5&#45;&gt;Node11</title>
<path fill="none" stroke="midnightblue" d="M351.45,-104.02C362.89,-89.49 381.06,-68.92 401,-56 428.29,-38.32 463.39,-26.58 489.77,-19.53"/>
<polygon fill="midnightblue" stroke="midnightblue" points="348.52,-102.09 345.24,-112.17 354.08,-106.34 348.52,-102.09"/>
</g>
<!-- Node6&#45;&gt;Node1 -->
<g id="edge11" class="edge">
<title>Node6&#45;&gt;Node1</title>
<path fill="none" stroke="midnightblue" d="M263.08,-85.91C261.13,-99.15 260.11,-117.06 265,-132 277.91,-171.46 312.75,-208.26 329.61,-224.4"/>
<polygon fill="midnightblue" stroke="midnightblue" points="266.6,-86.14 264.91,-75.68 259.7,-84.91 266.6,-86.14"/>
</g>
<!-- Node6&#45;&gt;Node7 -->
<g id="edge7" class="edge">
<title>Node6&#45;&gt;Node7</title>
<path fill="none" stroke="midnightblue" d="M224.02,-53.89C184.55,-43.7 126.9,-28.8 90.96,-19.52"/>
<polygon fill="midnightblue" stroke="midnightblue" points="223.33,-57.33 233.88,-56.44 225.08,-50.55 223.33,-57.33"/>
</g>
<!-- Node6&#45;&gt;Node8 -->
<g id="edge9" class="edge">
<title>Node6&#45;&gt;Node8</title>
<path fill="none" stroke="midnightblue" d="M247.13,-50.1C234.18,-40.38 217.7,-28.03 206.78,-19.83"/>
<polygon fill="midnightblue" stroke="midnightblue" points="245.33,-53.12 255.43,-56.32 249.53,-47.52 245.33,-53.12"/>
</g>
<!-- Node6&#45;&gt;Node9 -->
<g id="edge12" class="edge">
<title>Node6&#45;&gt;Node9</title>
<path fill="none" stroke="midnightblue" d="M287.77,-50.62C302.02,-40.76 320.46,-27.99 332.5,-19.65"/>
<polygon fill="midnightblue" stroke="midnightblue" points="285.76,-47.75 279.53,-56.32 289.75,-53.51 285.76,-47.75"/>
</g>
<!-- Node6&#45;&gt;Node10 -->
<g id="edge14" class="edge">
<title>Node6&#45;&gt;Node10</title>
<path fill="none" stroke="midnightblue" d="M320.85,-58.71C403.78,-49.01 562.9,-30.41 656.08,-19.52"/>
<polygon fill="midnightblue" stroke="midnightblue" points="320.41,-55.23 310.88,-59.87 321.22,-62.19 320.41,-55.23"/>
</g>
<!-- Node6&#45;&gt;Node11 -->
<g id="edge16" class="edge">
<title>Node6&#45;&gt;Node11</title>
<path fill="none" stroke="midnightblue" d="M318.19,-54.41C367.51,-44.2 441.19,-28.96 486.84,-19.52"/>
<polygon fill="midnightblue" stroke="midnightblue" points="317.44,-50.99 308.36,-56.44 318.86,-57.84 317.44,-50.99"/>
</g>
<!-- Node7&#45;&gt;Node2 -->
<g id="edge8" class="edge">
<title>Node7&#45;&gt;Node2</title>
<path fill="none" stroke="midnightblue" d="M74.03,-26.85C101.9,-53.38 162.24,-106.38 224,-132 304.05,-165.21 406.06,-174.08 463.79,-176.35"/>
<polygon fill="midnightblue" stroke="midnightblue" points="76.38,-24.26 66.76,-19.82 71.52,-29.29 76.38,-24.26"/>
</g>
<!-- Node8&#45;&gt;Node2 -->
<g id="edge10" class="edge">
<title>Node8&#45;&gt;Node2</title>
<path fill="none" stroke="midnightblue" d="M192.4,-29.6C191.36,-43.17 191.8,-61.63 199,-76 216.23,-110.4 230.24,-115.51 265,-132 329.6,-162.65 413.02,-172.47 463.69,-175.59"/>
<polygon fill="midnightblue" stroke="midnightblue" points="195.89,-29.86 193.5,-19.54 188.93,-29.1 195.89,-29.86"/>
</g>
<!-- Node9&#45;&gt;Node2 -->
<g id="edge13" class="edge">
<title>Node9&#45;&gt;Node2</title>
<path fill="none" stroke="midnightblue" d="M358.09,-27.9C377.24,-52.16 414.59,-97.7 451,-132 465.66,-145.81 484.31,-159.71 496.45,-168.34"/>
<polygon fill="midnightblue" stroke="midnightblue" points="360.6,-25.43 351.68,-19.72 355.09,-29.75 360.6,-25.43"/>
</g>
<!-- Node10&#45;&gt;Node2 -->
<g id="edge15" class="edge">
<title>Node10&#45;&gt;Node2</title>
<path fill="none" stroke="midnightblue" d="M785.03,-21.69C862.22,-38.75 986.37,-76.04 936,-132 910.78,-160.01 658.89,-171.85 554.23,-175.59"/>
<polygon fill="midnightblue" stroke="midnightblue" points="785.44,-18.2 774.93,-19.51 783.97,-25.04 785.44,-18.2"/>
</g>
<!-- Node11&#45;&gt;Node2 -->
<g id="edge17" class="edge">
<title>Node11&#45;&gt;Node2</title>
<path fill="none" stroke="midnightblue" d="M602.02,-20.98C727.71,-39.43 965.13,-81.66 920,-132 895.89,-158.89 655.69,-171.31 554.05,-175.4"/>
<polygon fill="midnightblue" stroke="midnightblue" points="602.46,-17.5 592.06,-19.53 601.45,-24.43 602.46,-17.5"/>
</g>
<!-- Node12&#45;&gt;Node4 -->
<g id="edge26" class="edge">
<title>Node12&#45;&gt;Node4</title>
<path fill="none" stroke="midnightblue" d="M544.48,-109.17C574.99,-99 618.24,-84.59 645.45,-75.52"/>
<polygon fill="midnightblue" stroke="midnightblue" points="543.05,-105.96 534.67,-112.44 545.26,-112.6 543.05,-105.96"/>
</g>
<!-- Node13&#45;&gt;Node4 -->
<g id="edge28" class="edge">
<title>Node13&#45;&gt;Node4</title>
<path fill="none" stroke="midnightblue" d="M634.68,-104.72C643.84,-95.2 655.05,-83.56 662.57,-75.75"/>
<polygon fill="midnightblue" stroke="midnightblue" points="632,-102.45 627.59,-112.08 637.04,-107.31 632,-102.45"/>
</g>
<!-- Node14&#45;&gt;Node4 -->
<g id="edge30" class="edge">
<title>Node14&#45;&gt;Node4</title>
<path fill="none" stroke="midnightblue" d="M707.32,-104.72C698.16,-95.2 686.95,-83.56 679.43,-75.75"/>
<polygon fill="midnightblue" stroke="midnightblue" points="704.96,-107.31 714.41,-112.08 710,-102.45 704.96,-107.31"/>
</g>
</g>
</svg>
