<?xml version="1.0" encoding="UTF-8" standalone="no"?>
<!DOCTYPE svg PUBLIC "-//W3C//DTD SVG 1.1//EN"
 "http://www.w3.org/Graphics/SVG/1.1/DTD/svg11.dtd">
<!-- Generated by graphviz version 3.0.0 (20220413.0242)
 -->
<!-- Title: model/junction.hpp Pages: 1 -->
<svg width="481pt" height="196pt"
 viewBox="0.00 0.00 480.50 196.00" xmlns="http://www.w3.org/2000/svg" xmlns:xlink="http://www.w3.org/1999/xlink">
<g id="graph0" class="graph" transform="scale(1 1) rotate(0) translate(4 192)">
<title>model/junction.hpp</title>
<!-- Node1 -->
<g id="node1" class="node">
<title>Node1</title>
<g id="a_node1"><a xlink:title="MODEL::Junction source file.">
<polygon fill="#bfbfbf" stroke="black" points="79,-168.5 79,-187.5 177,-187.5 177,-168.5 79,-168.5"/>
<text text-anchor="middle" x="128" y="-175.5" font-family="Helvetica,sans-Serif" font-size="10.00">model/junction.hpp</text>
</a>
</g>
</g>
<!-- Node2 -->
<g id="node2" class="node">
<title>Node2</title>
<g id="a_node2"><a xlink:href="configreader_8hpp.html" target="_top" xlink:title="IO::ConfigReader source file.">
<polygon fill="none" stroke="black" points="0,-56.5 0,-75.5 98,-75.5 98,-56.5 0,-56.5"/>
<text text-anchor="middle" x="49" y="-63.5" font-family="Helvetica,sans-Serif" font-size="10.00">io/configreader.hpp</text>
</a>
</g>
</g>
<!-- Node1&#45;&gt;Node2 -->
<g id="edge1" class="edge">
<title>Node1&#45;&gt;Node2</title>
<path fill="none" stroke="midnightblue" d="M115.76,-159.96C98.64,-136.12 68.18,-93.71 55.17,-75.59"/>
<polygon fill="midnightblue" stroke="midnightblue" points="113.12,-162.29 121.8,-168.37 118.81,-158.2 113.12,-162.29"/>
</g>
<!-- Node4 -->
<g id="node4" class="node">
<title>Node4</title>
<g id="a_node4"><a xlink:href="model_8hpp.html" target="_top" xlink:title="MODEL::Model source file.">
<polygon fill="none" stroke="black" points="122,-112.5 122,-131.5 212,-131.5 212,-112.5 122,-112.5"/>
<text text-anchor="middle" x="167" y="-119.5" font-family="Helvetica,sans-Serif" font-size="10.00">model/model.hpp</text>
</a>
</g>
</g>
<!-- Node1&#45;&gt;Node4 -->
<g id="edge3" class="edge">
<title>Node1&#45;&gt;Node4</title>
<path fill="none" stroke="midnightblue" d="M140.38,-159.86C147.14,-150.5 155.21,-139.33 160.68,-131.75"/>
<polygon fill="midnightblue" stroke="midnightblue" points="137.46,-157.93 134.44,-168.08 143.13,-162.03 137.46,-157.93"/>
</g>
<!-- Node3 -->
<g id="node3" class="node">
<title>Node3</title>
<g id="a_node3"><a xlink:href="main_8cpp.html" target="_top" xlink:title="Main routine of svZeroDSolver.">
<polygon fill="none" stroke="black" points="181,-0.5 181,-19.5 237,-19.5 237,-0.5 181,-0.5"/>
<text text-anchor="middle" x="209" y="-7.5" font-family="Helvetica,sans-Serif" font-size="10.00">main.cpp</text>
</a>
</g>
</g>
<!-- Node2&#45;&gt;Node3 -->
<g id="edge2" class="edge">
<title>Node2&#45;&gt;Node3</title>
<path fill="none" stroke="midnightblue" d="M84.05,-53.17C114.17,-43 156.9,-28.59 183.77,-19.52"/>
<polygon fill="midnightblue" stroke="midnightblue" points="82.71,-49.93 74.35,-56.44 84.95,-56.56 82.71,-49.93"/>
</g>
<!-- Node4&#45;&gt;Node2 -->
<g id="edge6" class="edge">
<title>Node4&#45;&gt;Node2</title>
<path fill="none" stroke="midnightblue" d="M139.1,-108.23C117.03,-98.13 86.82,-84.31 67.61,-75.52"/>
<polygon fill="midnightblue" stroke="midnightblue" points="137.75,-111.46 148.3,-112.44 140.67,-105.1 137.75,-111.46"/>
</g>
<!-- Node4&#45;&gt;Node3 -->
<g id="edge11" class="edge">
<title>Node4&#45;&gt;Node3</title>
<path fill="none" stroke="midnightblue" d="M153.91,-103.93C145.29,-90.47 136.97,-71.46 145,-56 153.89,-38.88 172.61,-26.91 187.52,-19.64"/>
<polygon fill="midnightblue" stroke="midnightblue" points="151.12,-106.05 159.72,-112.25 156.86,-102.05 151.12,-106.05"/>
</g>
<!-- Node5 -->
<g id="node5" class="node">
<title>Node5</title>
<g id="a_node5"><a xlink:href="integrator_8hpp.html" target="_top" xlink:title="ALGEBRA::Integrator source file.">
<polygon fill="none" stroke="black" points="154,-56.5 154,-75.5 264,-75.5 264,-56.5 154,-56.5"/>
<text text-anchor="middle" x="209" y="-63.5" font-family="Helvetica,sans-Serif" font-size="10.00">algebra/integrator.hpp</text>
</a>
</g>
</g>
<!-- Node4&#45;&gt;Node5 -->
<g id="edge4" class="edge">
<title>Node4&#45;&gt;Node5</title>
<path fill="none" stroke="midnightblue" d="M180.11,-104.14C187.43,-94.74 196.24,-83.4 202.19,-75.75"/>
<polygon fill="midnightblue" stroke="midnightblue" points="177.31,-102.04 173.94,-112.08 182.84,-106.34 177.31,-102.04"/>
</g>
<!-- Node6 -->
<g id="node6" class="node">
<title>Node6</title>
<g id="a_node6"><a xlink:href="csvwriter_8hpp.html" target="_top" xlink:title="IO::write_csv source file.">
<polygon fill="none" stroke="black" points="282.5,-56.5 282.5,-75.5 367.5,-75.5 367.5,-56.5 282.5,-56.5"/>
<text text-anchor="middle" x="325" y="-63.5" font-family="Helvetica,sans-Serif" font-size="10.00">io/csvwriter.hpp</text>
</a>
</g>
</g>
<!-- Node4&#45;&gt;Node6 -->
<g id="edge7" class="edge">
<title>Node4&#45;&gt;Node6</title>
<path fill="none" stroke="midnightblue" d="M201.61,-109.17C231.36,-99 273.55,-84.59 300.08,-75.52"/>
<polygon fill="midnightblue" stroke="midnightblue" points="200.37,-105.9 192.04,-112.44 202.63,-112.52 200.37,-105.9"/>
</g>
<!-- Node7 -->
<g id="node7" class="node">
<title>Node7</title>
<g id="a_node7"><a xlink:href="jsonwriter_8hpp.html" target="_top" xlink:title="IO::write_json source file.">
<polygon fill="none" stroke="black" points="385.5,-56.5 385.5,-75.5 472.5,-75.5 472.5,-56.5 385.5,-56.5"/>
<text text-anchor="middle" x="429" y="-63.5" font-family="Helvetica,sans-Serif" font-size="10.00">io/jsonwriter.hpp</text>
</a>
</g>
</g>
<!-- Node4&#45;&gt;Node7 -->
<g id="edge9" class="edge">
<title>Node4&#45;&gt;Node7</title>
<path fill="none" stroke="midnightblue" d="M218.38,-110.41C267.9,-100.2 341.86,-84.96 387.68,-75.52"/>
<polygon fill="midnightblue" stroke="midnightblue" points="217.6,-107 208.51,-112.44 219.02,-113.85 217.6,-107"/>
</g>
<!-- Node5&#45;&gt;Node3 -->
<g id="edge5" class="edge">
<title>Node5&#45;&gt;Node3</title>
<path fill="none" stroke="midnightblue" d="M209,-45.8C209,-36.91 209,-26.78 209,-19.75"/>
<polygon fill="midnightblue" stroke="midnightblue" points="205.5,-46.08 209,-56.08 212.5,-46.08 205.5,-46.08"/>
</g>
<!-- Node6&#45;&gt;Node3 -->
<g id="edge8" class="edge">
<title>Node6&#45;&gt;Node3</title>
<path fill="none" stroke="midnightblue" d="M297.28,-52.1C275.61,-42.01 246.1,-28.27 227.29,-19.52"/>
<polygon fill="midnightblue" stroke="midnightblue" points="296.08,-55.4 306.62,-56.44 299.03,-49.05 296.08,-55.4"/>
</g>
<!-- Node7&#45;&gt;Node3 -->
<g id="edge10" class="edge">
<title>Node7&#45;&gt;Node3</title>
<path fill="none" stroke="midnightblue" d="M384.26,-54.02C340.19,-43.2 274.23,-27.01 237.06,-17.89"/>
<polygon fill="midnightblue" stroke="midnightblue" points="383.59,-57.46 394.14,-56.44 385.26,-50.66 383.59,-57.46"/>
</g>
</g>
</svg>
