<?xml version="1.0" encoding="UTF-8" standalone="no"?>
<!DOCTYPE svg PUBLIC "-//W3C//DTD SVG 1.1//EN"
 "http://www.w3.org/Graphics/SVG/1.1/DTD/svg11.dtd">
<!-- Generated by graphviz version 3.0.0 (20220413.0242)
 -->
<!-- Title: model/junction.hpp Pages: 1 -->
<svg width="1085pt" height="420pt"
 viewBox="0.00 0.00 1085.29 420.00" xmlns="http://www.w3.org/2000/svg" xmlns:xlink="http://www.w3.org/1999/xlink">
<g id="graph0" class="graph" transform="scale(1 1) rotate(0) translate(4 416)">
<title>model/junction.hpp</title>
<!-- Node1 -->
<g id="node1" class="node">
<title>Node1</title>
<g id="a_node1"><a xlink:title="MODEL::Junction source file.">
<polygon fill="#bfbfbf" stroke="black" points="406,-392.5 406,-411.5 504,-411.5 504,-392.5 406,-392.5"/>
<text text-anchor="middle" x="455" y="-399.5" font-family="Helvetica,sans-Serif" font-size="10.00">model/junction.hpp</text>
</a>
</g>
</g>
<!-- Node2 -->
<g id="node2" class="node">
<title>Node2</title>
<g id="a_node2"><a xlink:href="densesystem_8hpp.html" target="_top" xlink:title="ALGEBRA::DenseSystem source file.">
<polygon fill="none" stroke="black" points="428,-336.5 428,-355.5 562,-355.5 562,-336.5 428,-336.5"/>
<text text-anchor="middle" x="495" y="-343.5" font-family="Helvetica,sans-Serif" font-size="10.00">../algebra/densesystem.hpp</text>
</a>
</g>
</g>
<!-- Node1&#45;&gt;Node2 -->
<g id="edge1" class="edge">
<title>Node1&#45;&gt;Node2</title>
<path fill="none" stroke="midnightblue" d="M461.61,-392.08C467.26,-384.46 475.54,-373.26 482.45,-363.94"/>
<polygon fill="midnightblue" stroke="midnightblue" points="485.38,-365.87 488.52,-355.75 479.75,-361.7 485.38,-365.87"/>
</g>
<!-- Node8 -->
<g id="node8" class="node">
<title>Node8</title>
<g id="a_node8"><a xlink:href="sparsesystem_8hpp.html" target="_top" xlink:title="ALGEBRA::SparseSystem source file.">
<polygon fill="none" stroke="black" points="543.5,-112.5 543.5,-131.5 680.5,-131.5 680.5,-112.5 543.5,-112.5"/>
<text text-anchor="middle" x="612" y="-119.5" font-family="Helvetica,sans-Serif" font-size="10.00">../algebra/sparsesystem.hpp</text>
</a>
</g>
</g>
<!-- Node1&#45;&gt;Node8 -->
<g id="edge59" class="edge">
<title>Node1&#45;&gt;Node8</title>
<path fill="none" stroke="midnightblue" d="M504.1,-396.15C637.64,-381.84 1002.24,-334.99 1073,-244 1078.46,-236.98 1078.86,-230.69 1073,-224 1032.81,-178.15 859.38,-205.59 801,-188 781.59,-182.15 778.87,-175.42 760,-168 725.42,-154.41 684.99,-142.36 655.13,-134.16"/>
<polygon fill="midnightblue" stroke="midnightblue" points="656,-130.77 645.43,-131.53 654.17,-137.53 656,-130.77"/>
</g>
<!-- Node14 -->
<g id="node14" class="node">
<title>Node14</title>
<g id="a_node14"><a xlink:href="block_8hpp.html" target="_top" xlink:title="MODEL::Block source file.">
<polygon fill="none" stroke="black" points="418,-168.5 418,-187.5 476,-187.5 476,-168.5 418,-168.5"/>
<text text-anchor="middle" x="447" y="-175.5" font-family="Helvetica,sans-Serif" font-size="10.00">block.hpp</text>
</a>
</g>
</g>
<!-- Node1&#45;&gt;Node14 -->
<g id="edge60" class="edge">
<title>Node1&#45;&gt;Node14</title>
<path fill="none" stroke="midnightblue" d="M405.96,-393.11C298.65,-373.88 58.89,-319.07 141,-224 175,-184.64 332.77,-179.08 407.52,-178.71"/>
<polygon fill="midnightblue" stroke="midnightblue" points="407.93,-182.2 417.92,-178.68 407.91,-175.2 407.93,-182.2"/>
</g>
<!-- Node3 -->
<g id="node3" class="node">
<title>Node3</title>
<g id="a_node3"><a xlink:title=" ">
<polygon fill="none" stroke="#bfbfbf" points="561.5,-280.5 561.5,-299.5 632.5,-299.5 632.5,-280.5 561.5,-280.5"/>
<text text-anchor="middle" x="597" y="-287.5" font-family="Helvetica,sans-Serif" font-size="10.00">Eigen/Dense</text>
</a>
</g>
</g>
<!-- Node2&#45;&gt;Node3 -->
<g id="edge2" class="edge">
<title>Node2&#45;&gt;Node3</title>
<path fill="none" stroke="midnightblue" d="M511.39,-336.32C527.67,-327.7 552.87,-314.36 571.72,-304.39"/>
<polygon fill="midnightblue" stroke="midnightblue" points="573.45,-307.43 580.65,-299.65 570.18,-301.24 573.45,-307.43"/>
</g>
<!-- Node4 -->
<g id="node4" class="node">
<title>Node4</title>
<g id="a_node4"><a xlink:href="model_8hpp.html" target="_top" xlink:title="MODEL::Model source file.">
<polygon fill="none" stroke="black" points="276,-280.5 276,-299.5 374,-299.5 374,-280.5 276,-280.5"/>
<text text-anchor="middle" x="325" y="-287.5" font-family="Helvetica,sans-Serif" font-size="10.00">../model/model.hpp</text>
</a>
</g>
</g>
<!-- Node2&#45;&gt;Node4 -->
<g id="edge3" class="edge">
<title>Node2&#45;&gt;Node4</title>
<path fill="none" stroke="midnightblue" d="M462.97,-336.44C432.38,-327.36 386.79,-312.94 356.41,-302.78"/>
<polygon fill="midnightblue" stroke="midnightblue" points="357.33,-299.4 346.73,-299.52 355.09,-306.03 357.33,-299.4"/>
</g>
<!-- Node4&#45;&gt;Node1 -->
<g id="edge38" class="edge">
<title>Node4&#45;&gt;Node1</title>
<path fill="none" stroke="midnightblue" d="M335.15,-299.59C357.13,-318.19 409.37,-362.39 437.05,-385.82"/>
<polygon fill="midnightblue" stroke="midnightblue" points="434.9,-388.58 444.8,-392.37 439.43,-383.24 434.9,-388.58"/>
</g>
<!-- Node4&#45;&gt;Node2 -->
<g id="edge7" class="edge">
<title>Node4&#45;&gt;Node2</title>
<path fill="none" stroke="midnightblue" d="M356.89,-299.52C387.44,-308.59 433.04,-323 463.46,-333.17"/>
<polygon fill="midnightblue" stroke="midnightblue" points="462.56,-336.56 473.15,-336.44 464.8,-329.93 462.56,-336.56"/>
</g>
<!-- Node5 -->
<g id="node5" class="node">
<title>Node5</title>
<g id="a_node5"><a xlink:title=" ">
<polygon fill="none" stroke="#bfbfbf" points="214.5,-224.5 214.5,-243.5 243.5,-243.5 243.5,-224.5 214.5,-224.5"/>
<text text-anchor="middle" x="229" y="-231.5" font-family="Helvetica,sans-Serif" font-size="10.00">list</text>
</a>
</g>
</g>
<!-- Node4&#45;&gt;Node5 -->
<g id="edge4" class="edge">
<title>Node4&#45;&gt;Node5</title>
<path fill="none" stroke="midnightblue" d="M309.58,-280.32C294.28,-271.72 270.63,-258.42 252.9,-248.45"/>
<polygon fill="midnightblue" stroke="midnightblue" points="254.19,-245.15 243.76,-243.3 250.76,-251.25 254.19,-245.15"/>
</g>
<!-- Node6 -->
<g id="node6" class="node">
<title>Node6</title>
<g id="a_node6"><a xlink:title=" ">
<polygon fill="none" stroke="#bfbfbf" points="183.5,-112.5 183.5,-131.5 218.5,-131.5 218.5,-112.5 183.5,-112.5"/>
<text text-anchor="middle" x="201" y="-119.5" font-family="Helvetica,sans-Serif" font-size="10.00">map</text>
</a>
</g>
</g>
<!-- Node4&#45;&gt;Node6 -->
<g id="edge5" class="edge">
<title>Node4&#45;&gt;Node6</title>
<path fill="none" stroke="midnightblue" d="M275.9,-283.79C227.19,-277.49 157.5,-265.02 141,-244 114.37,-210.07 157,-162.42 183.1,-138.29"/>
<polygon fill="midnightblue" stroke="midnightblue" points="185.46,-140.87 190.57,-131.6 180.79,-135.66 185.46,-140.87"/>
</g>
<!-- Node7 -->
<g id="node7" class="node">
<title>Node7</title>
<g id="a_node7"><a xlink:title=" ">
<polygon fill="none" stroke="#bfbfbf" points="150,-224.5 150,-243.5 196,-243.5 196,-224.5 150,-224.5"/>
<text text-anchor="middle" x="173" y="-231.5" font-family="Helvetica,sans-Serif" font-size="10.00">variant</text>
</a>
</g>
</g>
<!-- Node4&#45;&gt;Node7 -->
<g id="edge6" class="edge">
<title>Node4&#45;&gt;Node7</title>
<path fill="none" stroke="midnightblue" d="M300.92,-280.44C275.31,-271.35 234.63,-256.9 206.04,-246.74"/>
<polygon fill="midnightblue" stroke="midnightblue" points="207.07,-243.39 196.47,-243.34 204.72,-249.98 207.07,-243.39"/>
</g>
<!-- Node4&#45;&gt;Node8 -->
<g id="edge8" class="edge">
<title>Node4&#45;&gt;Node8</title>
<path fill="none" stroke="midnightblue" d="M313.23,-280.14C302.27,-267.2 290.51,-242.64 300,-224 319.2,-186.29 338.24,-184.97 377,-168 426.34,-146.4 486.28,-135.07 533.34,-129.19"/>
<polygon fill="midnightblue" stroke="midnightblue" points="533.97,-132.64 543.48,-127.98 533.14,-125.69 533.97,-132.64"/>
</g>
<!-- Node12 -->
<g id="node12" class="node">
<title>Node12</title>
<g id="a_node12"><a xlink:href="bloodvessel_8hpp.html" target="_top" xlink:title="MODEL::BloodVessel source file.">
<polygon fill="none" stroke="black" points="468,-224.5 468,-243.5 554,-243.5 554,-224.5 468,-224.5"/>
<text text-anchor="middle" x="511" y="-231.5" font-family="Helvetica,sans-Serif" font-size="10.00">bloodvessel.hpp</text>
</a>
</g>
</g>
<!-- Node4&#45;&gt;Node12 -->
<g id="edge13" class="edge">
<title>Node4&#45;&gt;Node12</title>
<path fill="none" stroke="midnightblue" d="M354.47,-280.44C386.17,-271.24 436.73,-256.56 471.77,-246.39"/>
<polygon fill="midnightblue" stroke="midnightblue" points="473.04,-249.67 481.67,-243.52 471.09,-242.94 473.04,-249.67"/>
</g>
<!-- Node16 -->
<g id="node16" class="node">
<title>Node16</title>
<g id="a_node16"><a xlink:href="dofhandler_8hpp.html" target="_top" xlink:title="MODEL::DOFHandler source file.">
<polygon fill="none" stroke="black" points="270,-56.5 270,-75.5 350,-75.5 350,-56.5 270,-56.5"/>
<text text-anchor="middle" x="310" y="-63.5" font-family="Helvetica,sans-Serif" font-size="10.00">dofhandler.hpp</text>
</a>
</g>
</g>
<!-- Node4&#45;&gt;Node16 -->
<g id="edge28" class="edge">
<title>Node4&#45;&gt;Node16</title>
<path fill="none" stroke="midnightblue" d="M275.58,-284.58C223.64,-278.79 147,-266.6 129,-244 90.39,-195.52 125.26,-150.29 174,-112 198.82,-92.5 232.46,-81.28 260.07,-74.91"/>
<polygon fill="midnightblue" stroke="midnightblue" points="260.9,-78.31 269.94,-72.78 259.43,-71.47 260.9,-78.31"/>
</g>
<!-- Node18 -->
<g id="node18" class="node">
<title>Node18</title>
<g id="a_node18"><a xlink:href="node_8hpp.html" target="_top" xlink:title="MODEL::Node source file.">
<polygon fill="none" stroke="black" points="0,-112.5 0,-131.5 56,-131.5 56,-112.5 0,-112.5"/>
<text text-anchor="middle" x="28" y="-119.5" font-family="Helvetica,sans-Serif" font-size="10.00">node.hpp</text>
</a>
</g>
</g>
<!-- Node4&#45;&gt;Node18 -->
<g id="edge39" class="edge">
<title>Node4&#45;&gt;Node18</title>
<path fill="none" stroke="midnightblue" d="M275.79,-286.16C210.59,-281.44 100.28,-269.8 70,-244 39.49,-218.01 31.12,-168.63 28.84,-141.69"/>
<polygon fill="midnightblue" stroke="midnightblue" points="32.33,-141.4 28.19,-131.64 25.35,-141.85 32.33,-141.4"/>
</g>
<!-- Node19 -->
<g id="node19" class="node">
<title>Node19</title>
<g id="a_node19"><a xlink:href="flowreferencebc_8hpp.html" target="_top" xlink:title="MODEL::FlowReferenceBC source file.">
<polygon fill="none" stroke="black" points="572.5,-224.5 572.5,-243.5 675.5,-243.5 675.5,-224.5 572.5,-224.5"/>
<text text-anchor="middle" x="624" y="-231.5" font-family="Helvetica,sans-Serif" font-size="10.00">flowreferencebc.hpp</text>
</a>
</g>
</g>
<!-- Node4&#45;&gt;Node19 -->
<g id="edge29" class="edge">
<title>Node4&#45;&gt;Node19</title>
<path fill="none" stroke="midnightblue" d="M372.38,-280.44C425.08,-270.92 510.23,-255.55 566.66,-245.36"/>
<polygon fill="midnightblue" stroke="midnightblue" points="567.63,-248.74 576.84,-243.52 566.38,-241.85 567.63,-248.74"/>
</g>
<!-- Node22 -->
<g id="node22" class="node">
<title>Node22</title>
<g id="a_node22"><a xlink:href="openloopcoronarybc_8hpp.html" target="_top" xlink:title="MODEL::ClosedLoopCoronaryBC source file.">
<polygon fill="none" stroke="black" points="693.5,-224.5 693.5,-243.5 814.5,-243.5 814.5,-224.5 693.5,-224.5"/>
<text text-anchor="middle" x="754" y="-231.5" font-family="Helvetica,sans-Serif" font-size="10.00">openloopcoronarybc.hpp</text>
</a>
</g>
</g>
<!-- Node4&#45;&gt;Node22 -->
<g id="edge40" class="edge">
<title>Node4&#45;&gt;Node22</title>
<path fill="none" stroke="midnightblue" d="M374.21,-282.93C441.59,-274.61 566.61,-259.09 683.24,-244.22"/>
<polygon fill="midnightblue" stroke="midnightblue" points="683.94,-247.66 693.42,-242.92 683.06,-240.71 683.94,-247.66"/>
</g>
<!-- Node23 -->
<g id="node23" class="node">
<title>Node23</title>
<g id="a_node23"><a xlink:href="pressurereferencebc_8hpp.html" target="_top" xlink:title="MODEL::PressureReferenceBC source file.">
<polygon fill="none" stroke="black" points="832.5,-224.5 832.5,-243.5 955.5,-243.5 955.5,-224.5 832.5,-224.5"/>
<text text-anchor="middle" x="894" y="-231.5" font-family="Helvetica,sans-Serif" font-size="10.00">pressurereferencebc.hpp</text>
</a>
</g>
</g>
<!-- Node4&#45;&gt;Node23 -->
<g id="edge45" class="edge">
<title>Node4&#45;&gt;Node23</title>
<path fill="none" stroke="midnightblue" d="M374.29,-285.18C462.15,-278.23 651.89,-262.61 822.04,-244.18"/>
<polygon fill="midnightblue" stroke="midnightblue" points="822.62,-247.64 832.18,-243.08 821.86,-240.68 822.62,-247.64"/>
</g>
<!-- Node24 -->
<g id="node24" class="node">
<title>Node24</title>
<g id="a_node24"><a xlink:href="resistancebc_8hpp.html" target="_top" xlink:title="MODEL::ResistanceBC source file.">
<polygon fill="none" stroke="black" points="974,-224.5 974,-243.5 1064,-243.5 1064,-224.5 974,-224.5"/>
<text text-anchor="middle" x="1019" y="-231.5" font-family="Helvetica,sans-Serif" font-size="10.00">resistancebc.hpp</text>
</a>
</g>
</g>
<!-- Node4&#45;&gt;Node24 -->
<g id="edge50" class="edge">
<title>Node4&#45;&gt;Node24</title>
<path fill="none" stroke="midnightblue" d="M374.13,-287.14C480,-282.78 737.73,-270.33 963.9,-244.02"/>
<polygon fill="midnightblue" stroke="midnightblue" points="964.44,-247.48 973.96,-242.83 963.62,-240.53 964.44,-247.48"/>
</g>
<!-- Node25 -->
<g id="node25" class="node">
<title>Node25</title>
<g id="a_node25"><a xlink:href="windkesselbc_8hpp.html" target="_top" xlink:title="MODEL::WindkesselBC source file.">
<polygon fill="none" stroke="black" points="318,-224.5 318,-243.5 412,-243.5 412,-224.5 318,-224.5"/>
<text text-anchor="middle" x="365" y="-231.5" font-family="Helvetica,sans-Serif" font-size="10.00">windkesselbc.hpp</text>
</a>
</g>
</g>
<!-- Node4&#45;&gt;Node25 -->
<g id="edge55" class="edge">
<title>Node4&#45;&gt;Node25</title>
<path fill="none" stroke="midnightblue" d="M331.61,-280.08C337.26,-272.46 345.54,-261.26 352.45,-251.94"/>
<polygon fill="midnightblue" stroke="midnightblue" points="355.38,-253.87 358.52,-243.75 349.75,-249.7 355.38,-253.87"/>
</g>
<!-- Node8&#45;&gt;Node4 -->
<g id="edge12" class="edge">
<title>Node8&#45;&gt;Node4</title>
<path fill="none" stroke="midnightblue" d="M543.33,-129.92C499.51,-135.99 442.37,-147.26 395,-168 356.24,-184.97 337.2,-186.29 318,-224 310.51,-238.71 316.26,-257.1 321.32,-270.57"/>
<polygon fill="midnightblue" stroke="midnightblue" points="318.14,-272.05 324.97,-280.14 324.68,-269.55 318.14,-272.05"/>
</g>
<!-- Node9 -->
<g id="node9" class="node">
<title>Node9</title>
<g id="a_node9"><a xlink:title=" ">
<polygon fill="none" stroke="#bfbfbf" points="476,-56.5 476,-75.5 550,-75.5 550,-56.5 476,-56.5"/>
<text text-anchor="middle" x="513" y="-63.5" font-family="Helvetica,sans-Serif" font-size="10.00">Eigen/Sparse</text>
</a>
</g>
</g>
<!-- Node8&#45;&gt;Node9 -->
<g id="edge9" class="edge">
<title>Node8&#45;&gt;Node9</title>
<path fill="none" stroke="midnightblue" d="M596.09,-112.32C580.36,-103.74 556.06,-90.49 537.79,-80.52"/>
<polygon fill="midnightblue" stroke="midnightblue" points="539.32,-77.37 528.87,-75.65 535.97,-83.52 539.32,-77.37"/>
</g>
<!-- Node10 -->
<g id="node10" class="node">
<title>Node10</title>
<g id="a_node10"><a xlink:title=" ">
<polygon fill="none" stroke="#bfbfbf" points="568,-56.5 568,-75.5 656,-75.5 656,-56.5 568,-56.5"/>
<text text-anchor="middle" x="612" y="-63.5" font-family="Helvetica,sans-Serif" font-size="10.00">Eigen/SparseLU</text>
</a>
</g>
</g>
<!-- Node8&#45;&gt;Node10 -->
<g id="edge10" class="edge">
<title>Node8&#45;&gt;Node10</title>
<path fill="none" stroke="midnightblue" d="M612,-112.08C612,-105.01 612,-94.86 612,-85.99"/>
<polygon fill="midnightblue" stroke="midnightblue" points="615.5,-85.75 612,-75.75 608.5,-85.75 615.5,-85.75"/>
</g>
<!-- Node11 -->
<g id="node11" class="node">
<title>Node11</title>
<g id="a_node11"><a xlink:title=" ">
<polygon fill="none" stroke="#bfbfbf" points="674,-56.5 674,-75.5 728,-75.5 728,-56.5 674,-56.5"/>
<text text-anchor="middle" x="701" y="-63.5" font-family="Helvetica,sans-Serif" font-size="10.00">iostream</text>
</a>
</g>
</g>
<!-- Node8&#45;&gt;Node11 -->
<g id="edge11" class="edge">
<title>Node8&#45;&gt;Node11</title>
<path fill="none" stroke="midnightblue" d="M626.3,-112.32C640.18,-103.9 661.49,-90.97 677.8,-81.07"/>
<polygon fill="midnightblue" stroke="midnightblue" points="680,-83.83 686.74,-75.65 676.37,-77.85 680,-83.83"/>
</g>
<!-- Node12&#45;&gt;Node2 -->
<g id="edge15" class="edge">
<title>Node12&#45;&gt;Node2</title>
<path fill="none" stroke="midnightblue" d="M509.75,-243.59C507.17,-261.31 501.22,-302.25 497.71,-326.35"/>
<polygon fill="midnightblue" stroke="midnightblue" points="494.23,-325.97 496.26,-336.37 501.16,-326.98 494.23,-325.97"/>
</g>
<!-- Node12&#45;&gt;Node8 -->
<g id="edge16" class="edge">
<title>Node12&#45;&gt;Node8</title>
<path fill="none" stroke="midnightblue" d="M513.84,-224.16C518.46,-210.79 528.67,-185.19 544,-168 555.48,-155.12 571.44,-144.3 585.01,-136.51"/>
<polygon fill="midnightblue" stroke="midnightblue" points="586.87,-139.48 593.95,-131.6 583.5,-133.35 586.87,-139.48"/>
</g>
<!-- Node13 -->
<g id="node13" class="node">
<title>Node13</title>
<g id="a_node13"><a xlink:title=" ">
<polygon fill="none" stroke="#bfbfbf" points="699,-112.5 699,-131.5 745,-131.5 745,-112.5 699,-112.5"/>
<text text-anchor="middle" x="722" y="-119.5" font-family="Helvetica,sans-Serif" font-size="10.00">math.h</text>
</a>
</g>
</g>
<!-- Node12&#45;&gt;Node13 -->
<g id="edge14" class="edge">
<title>Node12&#45;&gt;Node13</title>
<path fill="none" stroke="midnightblue" d="M527.56,-224.37C564.3,-205.21 652.88,-159.04 696.65,-136.22"/>
<polygon fill="midnightblue" stroke="midnightblue" points="698.27,-139.32 705.52,-131.59 695.03,-133.11 698.27,-139.32"/>
</g>
<!-- Node12&#45;&gt;Node14 -->
<g id="edge17" class="edge">
<title>Node12&#45;&gt;Node14</title>
<path fill="none" stroke="midnightblue" d="M500.72,-224.32C491.16,-216.26 476.72,-204.08 465.22,-194.37"/>
<polygon fill="midnightblue" stroke="midnightblue" points="467.37,-191.61 457.47,-187.83 462.86,-196.96 467.37,-191.61"/>
</g>
<!-- Node14&#45;&gt;Node2 -->
<g id="edge20" class="edge">
<title>Node14&#45;&gt;Node2</title>
<path fill="none" stroke="midnightblue" d="M448.13,-187.51C449.89,-200.02 453.64,-224.05 459,-244 466.94,-273.56 479.54,-306.82 487.53,-326.83"/>
<polygon fill="midnightblue" stroke="midnightblue" points="484.34,-328.28 491.34,-336.23 490.83,-325.65 484.34,-328.28"/>
</g>
<!-- Node14&#45;&gt;Node6 -->
<g id="edge18" class="edge">
<title>Node14&#45;&gt;Node6</title>
<path fill="none" stroke="midnightblue" d="M417.81,-170.59C369.99,-160.1 275.6,-139.37 228.74,-129.09"/>
<polygon fill="midnightblue" stroke="midnightblue" points="229.21,-125.61 218.7,-126.88 227.71,-132.45 229.21,-125.61"/>
</g>
<!-- Node14&#45;&gt;Node8 -->
<g id="edge21" class="edge">
<title>Node14&#45;&gt;Node8</title>
<path fill="none" stroke="midnightblue" d="M473.14,-168.44C501.02,-159.32 545.35,-144.81 576.4,-134.65"/>
<polygon fill="midnightblue" stroke="midnightblue" points="577.56,-137.95 585.98,-131.52 575.38,-131.3 577.56,-137.95"/>
</g>
<!-- Node15 -->
<g id="node15" class="node">
<title>Node15</title>
<g id="a_node15"><a xlink:title=" ">
<polygon fill="none" stroke="#bfbfbf" points="425,-0.5 425,-19.5 469,-19.5 469,-0.5 425,-0.5"/>
<text text-anchor="middle" x="447" y="-7.5" font-family="Helvetica,sans-Serif" font-size="10.00">vector</text>
</a>
</g>
</g>
<!-- Node14&#45;&gt;Node15 -->
<g id="edge19" class="edge">
<title>Node14&#45;&gt;Node15</title>
<path fill="none" stroke="midnightblue" d="M447,-168.08C447,-141.95 447,-65.21 447,-29.58"/>
<polygon fill="midnightblue" stroke="midnightblue" points="450.5,-29.57 447,-19.57 443.5,-29.57 450.5,-29.57"/>
</g>
<!-- Node14&#45;&gt;Node16 -->
<g id="edge22" class="edge">
<title>Node14&#45;&gt;Node16</title>
<path fill="none" stroke="midnightblue" d="M436.25,-168.37C413.04,-149.73 357.99,-105.53 328.85,-82.13"/>
<polygon fill="midnightblue" stroke="midnightblue" points="330.69,-79.12 320.7,-75.59 326.31,-84.58 330.69,-79.12"/>
</g>
<!-- Node14&#45;&gt;Node18 -->
<g id="edge25" class="edge">
<title>Node14&#45;&gt;Node18</title>
<path fill="none" stroke="midnightblue" d="M417.87,-173.25C343.92,-163.72 148.95,-138.59 66.11,-127.91"/>
<polygon fill="midnightblue" stroke="midnightblue" points="66.48,-124.43 56.11,-126.62 65.58,-131.37 66.48,-124.43"/>
</g>
<!-- Node16&#45;&gt;Node15 -->
<g id="edge24" class="edge">
<title>Node16&#45;&gt;Node15</title>
<path fill="none" stroke="midnightblue" d="M331.71,-56.44C354.35,-47.52 390.07,-33.44 415.75,-23.32"/>
<polygon fill="midnightblue" stroke="midnightblue" points="417.37,-26.44 425.39,-19.52 414.81,-19.93 417.37,-26.44"/>
</g>
<!-- Node17 -->
<g id="node17" class="node">
<title>Node17</title>
<g id="a_node17"><a xlink:title=" ">
<polygon fill="none" stroke="#bfbfbf" points="186.5,-0.5 186.5,-19.5 227.5,-19.5 227.5,-0.5 186.5,-0.5"/>
<text text-anchor="middle" x="207" y="-7.5" font-family="Helvetica,sans-Serif" font-size="10.00">string</text>
</a>
</g>
</g>
<!-- Node16&#45;&gt;Node17 -->
<g id="edge23" class="edge">
<title>Node16&#45;&gt;Node17</title>
<path fill="none" stroke="midnightblue" d="M293.45,-56.32C277.01,-47.7 251.57,-34.36 232.53,-24.39"/>
<polygon fill="midnightblue" stroke="midnightblue" points="233.99,-21.2 223.51,-19.65 230.74,-27.4 233.99,-21.2"/>
</g>
<!-- Node18&#45;&gt;Node16 -->
<g id="edge27" class="edge">
<title>Node18&#45;&gt;Node16</title>
<path fill="none" stroke="midnightblue" d="M56.45,-114.8C60.98,-113.84 65.61,-112.88 70,-112 135.38,-98.87 211.04,-84.88 259.65,-76.05"/>
<polygon fill="midnightblue" stroke="midnightblue" points="260.38,-79.48 269.6,-74.25 259.13,-72.59 260.38,-79.48"/>
</g>
<!-- Node18&#45;&gt;Node17 -->
<g id="edge26" class="edge">
<title>Node18&#45;&gt;Node17</title>
<path fill="none" stroke="midnightblue" d="M42.05,-112.37C72.89,-93.41 146.79,-48 184.31,-24.94"/>
<polygon fill="midnightblue" stroke="midnightblue" points="186.33,-27.81 193.02,-19.59 182.67,-21.85 186.33,-27.81"/>
</g>
<!-- Node19&#45;&gt;Node2 -->
<g id="edge30" class="edge">
<title>Node19&#45;&gt;Node2</title>
<path fill="none" stroke="midnightblue" d="M607.62,-243.65C592.64,-251.96 570.25,-265.37 553,-280 535.78,-294.61 518.92,-314.28 507.86,-328.15"/>
<polygon fill="midnightblue" stroke="midnightblue" points="504.88,-326.28 501.48,-336.31 510.39,-330.59 504.88,-326.28"/>
</g>
<!-- Node19&#45;&gt;Node8 -->
<g id="edge31" class="edge">
<title>Node19&#45;&gt;Node8</title>
<path fill="none" stroke="midnightblue" d="M623.06,-224.37C621.12,-206.62 616.65,-165.67 614.03,-141.6"/>
<polygon fill="midnightblue" stroke="midnightblue" points="617.5,-141.15 612.94,-131.59 610.54,-141.91 617.5,-141.15"/>
</g>
<!-- Node19&#45;&gt;Node14 -->
<g id="edge32" class="edge">
<title>Node19&#45;&gt;Node14</title>
<path fill="none" stroke="midnightblue" d="M595.95,-224.44C565.92,-215.28 518.09,-200.69 484.76,-190.52"/>
<polygon fill="midnightblue" stroke="midnightblue" points="485.5,-187.09 474.91,-187.52 483.46,-193.78 485.5,-187.09"/>
</g>
<!-- Node20 -->
<g id="node20" class="node">
<title>Node20</title>
<g id="a_node20"><a xlink:href="timedependentparameter_8hpp.html" target="_top" xlink:title="MODEL::TimeDependentParameter source file.">
<polygon fill="none" stroke="black" points="810,-168.5 810,-187.5 952,-187.5 952,-168.5 810,-168.5"/>
<text text-anchor="middle" x="881" y="-175.5" font-family="Helvetica,sans-Serif" font-size="10.00">timedependentparameter.hpp</text>
</a>
</g>
</g>
<!-- Node19&#45;&gt;Node20 -->
<g id="edge33" class="edge">
<title>Node19&#45;&gt;Node20</title>
<path fill="none" stroke="midnightblue" d="M664.72,-224.44C709.65,-215 782,-199.8 830.5,-189.61"/>
<polygon fill="midnightblue" stroke="midnightblue" points="831.4,-193 840.47,-187.52 829.96,-186.15 831.4,-193"/>
</g>
<!-- Node20&#45;&gt;Node13 -->
<g id="edge34" class="edge">
<title>Node20&#45;&gt;Node13</title>
<path fill="none" stroke="midnightblue" d="M855.81,-168.44C828.43,-159.15 784.59,-144.26 754.61,-134.07"/>
<polygon fill="midnightblue" stroke="midnightblue" points="755.61,-130.72 745.01,-130.82 753.35,-137.35 755.61,-130.72"/>
</g>
<!-- Node20&#45;&gt;Node15 -->
<g id="edge36" class="edge">
<title>Node20&#45;&gt;Node15</title>
<path fill="none" stroke="midnightblue" d="M880.71,-168.34C879.81,-154.75 876.22,-128.31 862,-112 822,-66.11 795.38,-73.27 737,-56 645.85,-29.04 533.54,-17.48 479.31,-13.19"/>
<polygon fill="midnightblue" stroke="midnightblue" points="479.5,-9.69 469.27,-12.42 478.97,-16.67 479.5,-9.69"/>
</g>
<!-- Node20&#45;&gt;Node16 -->
<g id="edge37" class="edge">
<title>Node20&#45;&gt;Node16</title>
<path fill="none" stroke="midnightblue" d="M864.13,-168.38C846.41,-159.33 817.74,-144.67 793,-132 775.66,-123.12 772.68,-117.52 754,-112 681.34,-90.52 460.56,-75.6 360.38,-69.75"/>
<polygon fill="midnightblue" stroke="midnightblue" points="360.4,-66.24 350.21,-69.16 359.99,-73.23 360.4,-66.24"/>
</g>
<!-- Node21 -->
<g id="node21" class="node">
<title>Node21</title>
<g id="a_node21"><a xlink:title=" ">
<polygon fill="none" stroke="#bfbfbf" points="801.5,-112.5 801.5,-131.5 852.5,-131.5 852.5,-112.5 801.5,-112.5"/>
<text text-anchor="middle" x="827" y="-119.5" font-family="Helvetica,sans-Serif" font-size="10.00">numeric</text>
</a>
</g>
</g>
<!-- Node20&#45;&gt;Node21 -->
<g id="edge35" class="edge">
<title>Node20&#45;&gt;Node21</title>
<path fill="none" stroke="midnightblue" d="M872.08,-168.08C864.22,-160.22 852.57,-148.57 843.08,-139.08"/>
<polygon fill="midnightblue" stroke="midnightblue" points="845.3,-136.35 835.75,-131.75 840.35,-141.3 845.3,-136.35"/>
</g>
<!-- Node22&#45;&gt;Node2 -->
<g id="edge41" class="edge">
<title>Node22&#45;&gt;Node2</title>
<path fill="none" stroke="midnightblue" d="M741.4,-243.61C721.19,-257.11 679.91,-283.46 642,-300 609.18,-314.32 570.38,-325.99 540.88,-333.86"/>
<polygon fill="midnightblue" stroke="midnightblue" points="539.65,-330.56 530.86,-336.48 541.42,-337.33 539.65,-330.56"/>
</g>
<!-- Node22&#45;&gt;Node8 -->
<g id="edge42" class="edge">
<title>Node22&#45;&gt;Node8</title>
<path fill="none" stroke="midnightblue" d="M740.79,-224.39C727.47,-215.59 706.44,-201.35 689,-188 667.9,-171.85 644.74,-151.99 629.38,-138.5"/>
<polygon fill="midnightblue" stroke="midnightblue" points="631.53,-135.72 621.72,-131.72 626.89,-140.97 631.53,-135.72"/>
</g>
<!-- Node22&#45;&gt;Node14 -->
<g id="edge43" class="edge">
<title>Node22&#45;&gt;Node14</title>
<path fill="none" stroke="midnightblue" d="M705.35,-224.44C644.55,-213.75 541.71,-195.66 485.88,-185.84"/>
<polygon fill="midnightblue" stroke="midnightblue" points="486.47,-182.39 476.02,-184.1 485.26,-189.28 486.47,-182.39"/>
</g>
<!-- Node22&#45;&gt;Node20 -->
<g id="edge44" class="edge">
<title>Node22&#45;&gt;Node20</title>
<path fill="none" stroke="midnightblue" d="M774.12,-224.44C795.02,-215.56 827.93,-201.56 851.72,-191.45"/>
<polygon fill="midnightblue" stroke="midnightblue" points="853.14,-194.65 860.97,-187.52 850.4,-188.21 853.14,-194.65"/>
</g>
<!-- Node23&#45;&gt;Node2 -->
<g id="edge46" class="edge">
<title>Node23&#45;&gt;Node2</title>
<path fill="none" stroke="midnightblue" d="M866.45,-243.6C825.05,-256.42 744.25,-281.08 675,-300 629.56,-312.42 577.29,-325.33 540.83,-334.13"/>
<polygon fill="midnightblue" stroke="midnightblue" points="539.88,-330.75 530.98,-336.49 541.52,-337.56 539.88,-330.75"/>
</g>
<!-- Node23&#45;&gt;Node8 -->
<g id="edge47" class="edge">
<title>Node23&#45;&gt;Node8</title>
<path fill="none" stroke="midnightblue" d="M851.72,-224.43C817.83,-216.85 769.42,-204.46 729,-188 710.44,-180.44 663.77,-153.56 635.3,-136.82"/>
<polygon fill="midnightblue" stroke="midnightblue" points="636.8,-133.64 626.41,-131.58 633.24,-139.67 636.8,-133.64"/>
</g>
<!-- Node23&#45;&gt;Node14 -->
<g id="edge48" class="edge">
<title>Node23&#45;&gt;Node14</title>
<path fill="none" stroke="midnightblue" d="M832.17,-225.02C829.41,-224.67 826.68,-224.33 824,-224 700.8,-208.73 554.83,-191.57 486.27,-183.57"/>
<polygon fill="midnightblue" stroke="midnightblue" points="486.68,-180.09 476.34,-182.41 485.87,-187.05 486.68,-180.09"/>
</g>
<!-- Node23&#45;&gt;Node20 -->
<g id="edge49" class="edge">
<title>Node23&#45;&gt;Node20</title>
<path fill="none" stroke="midnightblue" d="M891.85,-224.08C890.13,-216.93 887.65,-206.64 885.5,-197.69"/>
<polygon fill="midnightblue" stroke="midnightblue" points="888.85,-196.65 883.11,-187.75 882.04,-198.29 888.85,-196.65"/>
</g>
<!-- Node24&#45;&gt;Node2 -->
<g id="edge51" class="edge">
<title>Node24&#45;&gt;Node2</title>
<path fill="none" stroke="midnightblue" d="M981.08,-243.55C924.66,-256.21 815.27,-280.55 722,-300 663.13,-312.28 595.5,-325.58 549.48,-334.51"/>
<polygon fill="midnightblue" stroke="midnightblue" points="548.57,-331.12 539.42,-336.46 549.9,-338 548.57,-331.12"/>
</g>
<!-- Node24&#45;&gt;Node8 -->
<g id="edge52" class="edge">
<title>Node24&#45;&gt;Node8</title>
<path fill="none" stroke="midnightblue" d="M973.76,-225.19C904.16,-213.13 777.76,-191.04 768,-188 747.49,-181.61 743.75,-176.45 724,-168 696.98,-156.44 665.95,-144.04 643.42,-135.19"/>
<polygon fill="midnightblue" stroke="midnightblue" points="644.6,-131.89 634.01,-131.51 642.05,-138.41 644.6,-131.89"/>
</g>
<!-- Node24&#45;&gt;Node14 -->
<g id="edge53" class="edge">
<title>Node24&#45;&gt;Node14</title>
<path fill="none" stroke="midnightblue" d="M973.96,-225.22C970.93,-224.78 967.92,-224.37 965,-224 786.83,-201.45 572.73,-186.77 486.16,-181.35"/>
<polygon fill="midnightblue" stroke="midnightblue" points="486.21,-177.84 476.01,-180.72 485.77,-184.83 486.21,-177.84"/>
</g>
<!-- Node24&#45;&gt;Node20 -->
<g id="edge54" class="edge">
<title>Node24&#45;&gt;Node20</title>
<path fill="none" stroke="midnightblue" d="M997.13,-224.44C974.22,-215.48 938.02,-201.31 912.13,-191.18"/>
<polygon fill="midnightblue" stroke="midnightblue" points="913.35,-187.9 902.76,-187.52 910.8,-194.42 913.35,-187.9"/>
</g>
<!-- Node25&#45;&gt;Node2 -->
<g id="edge56" class="edge">
<title>Node25&#45;&gt;Node2</title>
<path fill="none" stroke="midnightblue" d="M371.93,-243.62C382.69,-256.69 404.41,-281.91 426,-300 439.98,-311.72 457.16,-322.93 470.88,-331.23"/>
<polygon fill="midnightblue" stroke="midnightblue" points="469.36,-334.4 479.74,-336.49 472.93,-328.38 469.36,-334.4"/>
</g>
<!-- Node25&#45;&gt;Node8 -->
<g id="edge57" class="edge">
<title>Node25&#45;&gt;Node8</title>
<path fill="none" stroke="midnightblue" d="M368.37,-224.27C374.31,-210.1 388.04,-182.25 409,-168 445.47,-143.21 493.35,-131.84 533.45,-126.71"/>
<polygon fill="midnightblue" stroke="midnightblue" points="533.94,-130.18 543.47,-125.54 533.13,-123.23 533.94,-130.18"/>
</g>
<!-- Node25&#45;&gt;Node14 -->
<g id="edge58" class="edge">
<title>Node25&#45;&gt;Node14</title>
<path fill="none" stroke="midnightblue" d="M378.17,-224.32C390.85,-215.98 410.23,-203.21 425.21,-193.35"/>
<polygon fill="midnightblue" stroke="midnightblue" points="427.43,-196.08 433.86,-187.65 423.58,-190.23 427.43,-196.08"/>
</g>
</g>
</svg>
