<?xml version="1.0" encoding="UTF-8" standalone="no"?>
<!DOCTYPE svg PUBLIC "-//W3C//DTD SVG 1.1//EN"
 "http://www.w3.org/Graphics/SVG/1.1/DTD/svg11.dtd">
<!-- Generated by graphviz version 3.0.0 (20220413.0242)
 -->
<!-- Title: model/junction.hpp Pages: 1 -->
<svg width="1088pt" height="252pt"
 viewBox="0.00 0.00 1088.11 252.00" xmlns="http://www.w3.org/2000/svg" xmlns:xlink="http://www.w3.org/1999/xlink">
<g id="graph0" class="graph" transform="scale(1 1) rotate(0) translate(4 248)">
<title>model/junction.hpp</title>
<!-- Node1 -->
<g id="node1" class="node">
<title>Node1</title>
<g id="a_node1"><a xlink:title="MODEL::Junction source file.">
<polygon fill="#bfbfbf" stroke="black" points="575.11,-224.5 575.11,-243.5 673.11,-243.5 673.11,-224.5 575.11,-224.5"/>
<text text-anchor="middle" x="624.11" y="-231.5" font-family="Helvetica,sans-Serif" font-size="10.00">model/junction.hpp</text>
</a>
</g>
</g>
<!-- Node2 -->
<g id="node2" class="node">
<title>Node2</title>
<g id="a_node2"><a xlink:href="model_8hpp.html" target="_top" xlink:title="MODEL::Model source file.">
<polygon fill="none" stroke="black" points="451.11,-168.5 451.11,-187.5 541.11,-187.5 541.11,-168.5 451.11,-168.5"/>
<text text-anchor="middle" x="496.11" y="-175.5" font-family="Helvetica,sans-Serif" font-size="10.00">model/model.hpp</text>
</a>
</g>
</g>
<!-- Node1&#45;&gt;Node2 -->
<g id="edge1" class="edge">
<title>Node1&#45;&gt;Node2</title>
<path fill="none" stroke="midnightblue" d="M594.49,-220.5C570.49,-210.38 537.32,-196.39 516.3,-187.52"/>
<polygon fill="midnightblue" stroke="midnightblue" points="593.25,-223.78 603.83,-224.44 595.97,-217.33 593.25,-223.78"/>
</g>
<!-- Node3 -->
<g id="node3" class="node">
<title>Node3</title>
<g id="a_node3"><a xlink:href="integrator_8hpp.html" target="_top" xlink:title="ALGEBRA::Integrator source file.">
<polygon fill="none" stroke="black" points="135.11,-112.5 135.11,-131.5 245.11,-131.5 245.11,-112.5 135.11,-112.5"/>
<text text-anchor="middle" x="190.11" y="-119.5" font-family="Helvetica,sans-Serif" font-size="10.00">algebra/integrator.hpp</text>
</a>
</g>
</g>
<!-- Node2&#45;&gt;Node3 -->
<g id="edge2" class="edge">
<title>Node2&#45;&gt;Node3</title>
<path fill="none" stroke="midnightblue" d="M440.92,-167.26C383.2,-157.08 293.51,-141.25 238.48,-131.54"/>
<polygon fill="midnightblue" stroke="midnightblue" points="440.5,-170.74 450.96,-169.03 441.72,-163.85 440.5,-170.74"/>
</g>
<!-- Node4 -->
<g id="node4" class="node">
<title>Node4</title>
<g id="a_node4"><a xlink:href="main_8cpp.html" target="_top" xlink:title="Main routine of svZeroDSolver.">
<polygon fill="none" stroke="black" points="283.11,-56.5 283.11,-75.5 339.11,-75.5 339.11,-56.5 283.11,-56.5"/>
<text text-anchor="middle" x="311.11" y="-63.5" font-family="Helvetica,sans-Serif" font-size="10.00">main.cpp</text>
</a>
</g>
</g>
<!-- Node2&#45;&gt;Node4 -->
<g id="edge34" class="edge">
<title>Node2&#45;&gt;Node4</title>
<path fill="none" stroke="midnightblue" d="M440.82,-172.47C386.92,-166.78 310.46,-154.84 292.11,-132 278.56,-115.14 294.3,-88.93 304.23,-75.53"/>
<polygon fill="midnightblue" stroke="midnightblue" points="440.64,-175.97 450.94,-173.5 441.34,-169.01 440.64,-175.97"/>
</g>
<!-- Node5 -->
<g id="node5" class="node">
<title>Node5</title>
<g id="a_node5"><a xlink:href="sparsesystem_8hpp.html" target="_top" xlink:title="ALGEBRA::SparseSystem source file.">
<polygon fill="none" stroke="black" points="559.11,-112.5 559.11,-131.5 689.11,-131.5 689.11,-112.5 559.11,-112.5"/>
<text text-anchor="middle" x="624.11" y="-119.5" font-family="Helvetica,sans-Serif" font-size="10.00">algebra/sparsesystem.hpp</text>
</a>
</g>
</g>
<!-- Node2&#45;&gt;Node5 -->
<g id="edge4" class="edge">
<title>Node2&#45;&gt;Node5</title>
<path fill="none" stroke="midnightblue" d="M520.54,-164.23C543.05,-154.13 576.06,-140.31 598.84,-131.52"/>
<polygon fill="midnightblue" stroke="midnightblue" points="518.95,-161.11 511.3,-168.44 521.85,-167.48 518.95,-161.11"/>
</g>
<!-- Node13 -->
<g id="node13" class="node">
<title>Node13</title>
<g id="a_node13"><a xlink:href="configreader_8hpp.html" target="_top" xlink:title="IO::ConfigReader source file.">
<polygon fill="none" stroke="black" points="301.11,-112.5 301.11,-131.5 399.11,-131.5 399.11,-112.5 301.11,-112.5"/>
<text text-anchor="middle" x="350.11" y="-119.5" font-family="Helvetica,sans-Serif" font-size="10.00">io/configreader.hpp</text>
</a>
</g>
</g>
<!-- Node2&#45;&gt;Node13 -->
<g id="edge28" class="edge">
<title>Node2&#45;&gt;Node13</title>
<path fill="none" stroke="midnightblue" d="M463.41,-164.91C435.96,-154.75 397.44,-140.51 373.13,-131.52"/>
<polygon fill="midnightblue" stroke="midnightblue" points="462.38,-168.26 472.97,-168.44 464.81,-161.69 462.38,-168.26"/>
</g>
<!-- Node14 -->
<g id="node14" class="node">
<title>Node14</title>
<g id="a_node14"><a xlink:href="csvwriter_8hpp.html" target="_top" xlink:title="IO::write_csv source file.">
<polygon fill="none" stroke="black" points="417.61,-112.5 417.61,-131.5 502.61,-131.5 502.61,-112.5 417.61,-112.5"/>
<text text-anchor="middle" x="460.11" y="-119.5" font-family="Helvetica,sans-Serif" font-size="10.00">io/csvwriter.hpp</text>
</a>
</g>
</g>
<!-- Node2&#45;&gt;Node14 -->
<g id="edge30" class="edge">
<title>Node2&#45;&gt;Node14</title>
<path fill="none" stroke="midnightblue" d="M484.49,-159.57C478.29,-150.27 470.94,-139.25 465.94,-131.75"/>
<polygon fill="midnightblue" stroke="midnightblue" points="481.7,-161.7 490.16,-168.08 487.53,-157.82 481.7,-161.7"/>
</g>
<!-- Node15 -->
<g id="node15" class="node">
<title>Node15</title>
<g id="a_node15"><a xlink:href="jsonwriter_8hpp.html" target="_top" xlink:title="IO::write_json source file.">
<polygon fill="none" stroke="black" points="29.61,-112.5 29.61,-131.5 116.61,-131.5 116.61,-112.5 29.61,-112.5"/>
<text text-anchor="middle" x="73.11" y="-119.5" font-family="Helvetica,sans-Serif" font-size="10.00">io/jsonwriter.hpp</text>
</a>
</g>
</g>
<!-- Node2&#45;&gt;Node15 -->
<g id="edge32" class="edge">
<title>Node2&#45;&gt;Node15</title>
<path fill="none" stroke="midnightblue" d="M440.77,-171.09C368.33,-163.17 237.49,-148.22 126.11,-132 123.06,-131.56 119.92,-131.08 116.76,-130.58"/>
<polygon fill="midnightblue" stroke="midnightblue" points="440.7,-174.61 451.02,-172.21 441.46,-167.65 440.7,-174.61"/>
</g>
<!-- Node3&#45;&gt;Node4 -->
<g id="edge3" class="edge">
<title>Node3&#45;&gt;Node4</title>
<path fill="none" stroke="midnightblue" d="M218.41,-108.37C241.07,-98.26 272.23,-84.35 292.03,-75.52"/>
<polygon fill="midnightblue" stroke="midnightblue" points="216.99,-105.17 209.28,-112.44 219.84,-111.56 216.99,-105.17"/>
</g>
<!-- Node5&#45;&gt;Node1 -->
<g id="edge22" class="edge">
<title>Node5&#45;&gt;Node1</title>
<path fill="none" stroke="midnightblue" d="M624.11,-141.6C624.11,-165.67 624.11,-206.62 624.11,-224.37"/>
<polygon fill="midnightblue" stroke="midnightblue" points="627.61,-141.59 624.11,-131.59 620.61,-141.59 627.61,-141.59"/>
</g>
<!-- Node5&#45;&gt;Node2 -->
<g id="edge23" class="edge">
<title>Node5&#45;&gt;Node2</title>
<path fill="none" stroke="midnightblue" d="M599.78,-135.72C577.3,-145.81 544.29,-159.64 521.48,-168.44"/>
<polygon fill="midnightblue" stroke="midnightblue" points="601.36,-138.85 609,-131.52 598.45,-132.48 601.36,-138.85"/>
</g>
<!-- Node5&#45;&gt;Node4 -->
<g id="edge5" class="edge">
<title>Node5&#45;&gt;Node4</title>
<path fill="none" stroke="midnightblue" d="M564.45,-110.71C497.02,-99.07 390.05,-80.62 339.44,-71.89"/>
<polygon fill="midnightblue" stroke="midnightblue" points="564.06,-114.19 574.51,-112.44 565.25,-107.29 564.06,-114.19"/>
</g>
<!-- Node6 -->
<g id="node6" class="node">
<title>Node6</title>
<g id="a_node6"><a xlink:href="block_8hpp.html" target="_top" xlink:title="MODEL::Block source file.">
<polygon fill="none" stroke="black" points="601.61,-56.5 601.61,-75.5 688.61,-75.5 688.61,-56.5 601.61,-56.5"/>
<text text-anchor="middle" x="645.11" y="-63.5" font-family="Helvetica,sans-Serif" font-size="10.00">model/block.hpp</text>
</a>
</g>
</g>
<!-- Node5&#45;&gt;Node6 -->
<g id="edge6" class="edge">
<title>Node5&#45;&gt;Node6</title>
<path fill="none" stroke="midnightblue" d="M631.23,-102.69C634.77,-93.59 638.88,-83.01 641.71,-75.75"/>
<polygon fill="midnightblue" stroke="midnightblue" points="627.94,-101.49 627.58,-112.08 634.46,-104.03 627.94,-101.49"/>
</g>
<!-- Node7 -->
<g id="node7" class="node">
<title>Node7</title>
<g id="a_node7"><a xlink:href="bloodvessel_8hpp.html" target="_top" xlink:title="MODEL::BloodVessel source file.">
<polygon fill="none" stroke="black" points="26.11,-0.5 26.11,-19.5 142.11,-19.5 142.11,-0.5 26.11,-0.5"/>
<text text-anchor="middle" x="84.11" y="-7.5" font-family="Helvetica,sans-Serif" font-size="10.00">model/bloodvessel.hpp</text>
</a>
</g>
</g>
<!-- Node5&#45;&gt;Node7 -->
<g id="edge20" class="edge">
<title>Node5&#45;&gt;Node7</title>
<path fill="none" stroke="midnightblue" d="M580.75,-109.9C526.54,-96.23 430.83,-72.77 348.11,-56 276.68,-41.52 193.75,-27.9 140.18,-19.52"/>
<polygon fill="midnightblue" stroke="midnightblue" points="580.14,-113.36 590.69,-112.42 581.86,-106.57 580.14,-113.36"/>
</g>
<!-- Node8 -->
<g id="node8" class="node">
<title>Node8</title>
<g id="a_node8"><a xlink:href="flowreference_8hpp.html" target="_top" xlink:title="MODEL::FlowReference source file.">
<polygon fill="none" stroke="black" points="160.11,-0.5 160.11,-19.5 282.11,-19.5 282.11,-0.5 160.11,-0.5"/>
<text text-anchor="middle" x="221.11" y="-7.5" font-family="Helvetica,sans-Serif" font-size="10.00">model/flowreference.hpp</text>
</a>
</g>
</g>
<!-- Node5&#45;&gt;Node8 -->
<g id="edge21" class="edge">
<title>Node5&#45;&gt;Node8</title>
<path fill="none" stroke="midnightblue" d="M590.9,-108.83C568.18,-100.25 537.5,-88.16 511.11,-76 493.77,-68.01 491.16,-62.2 473.11,-56 438.43,-44.1 343.77,-28.84 280.85,-19.5"/>
<polygon fill="midnightblue" stroke="midnightblue" points="589.84,-112.17 600.43,-112.4 592.29,-105.62 589.84,-112.17"/>
</g>
<!-- Node9 -->
<g id="node9" class="node">
<title>Node9</title>
<g id="a_node9"><a xlink:href="openloopcoronarywithdistalpressure_8hpp.html" target="_top" xlink:title="MODEL::OpenLoopCoronaryWithDistalPressure source file.">
<polygon fill="none" stroke="black" points="496.11,-0.5 496.11,-19.5 714.11,-19.5 714.11,-0.5 496.11,-0.5"/>
<text text-anchor="middle" x="605.11" y="-7.5" font-family="Helvetica,sans-Serif" font-size="10.00">model/openloopcoronarywithdistalpressure.hpp</text>
</a>
</g>
</g>
<!-- Node5&#45;&gt;Node9 -->
<g id="edge24" class="edge">
<title>Node5&#45;&gt;Node9</title>
<path fill="none" stroke="midnightblue" d="M609.13,-104.47C602.88,-96.48 596.34,-86.38 593.11,-76 586.97,-56.28 595.4,-32.15 600.94,-19.57"/>
<polygon fill="midnightblue" stroke="midnightblue" points="606.52,-106.81 615.63,-112.23 611.89,-102.32 606.52,-106.81"/>
</g>
<!-- Node10 -->
<g id="node10" class="node">
<title>Node10</title>
<g id="a_node10"><a xlink:href="pressurereference_8hpp.html" target="_top" xlink:title="MODEL::PressureReference source file.">
<polygon fill="none" stroke="black" points="938.11,-0.5 938.11,-19.5 1080.11,-19.5 1080.11,-0.5 938.11,-0.5"/>
<text text-anchor="middle" x="1009.11" y="-7.5" font-family="Helvetica,sans-Serif" font-size="10.00">model/pressurereference.hpp</text>
</a>
</g>
</g>
<!-- Node5&#45;&gt;Node10 -->
<g id="edge25" class="edge">
<title>Node5&#45;&gt;Node10</title>
<path fill="none" stroke="midnightblue" d="M663.85,-109.65C741.22,-87.54 910.52,-39.17 979.24,-19.53"/>
<polygon fill="midnightblue" stroke="midnightblue" points="662.65,-106.35 654,-112.46 664.58,-113.08 662.65,-106.35"/>
</g>
<!-- Node11 -->
<g id="node11" class="node">
<title>Node11</title>
<g id="a_node11"><a xlink:href="rcrblockwithdistalpressure_8hpp.html" target="_top" xlink:title="MODEL::RCRBlockWithDistalPressure source file.">
<polygon fill="none" stroke="black" points="300.61,-0.5 300.61,-19.5 477.61,-19.5 477.61,-0.5 300.61,-0.5"/>
<text text-anchor="middle" x="389.11" y="-7.5" font-family="Helvetica,sans-Serif" font-size="10.00">model/rcrblockwithdistalpressure.hpp</text>
</a>
</g>
</g>
<!-- Node5&#45;&gt;Node11 -->
<g id="edge26" class="edge">
<title>Node5&#45;&gt;Node11</title>
<path fill="none" stroke="midnightblue" d="M602.24,-106.94C579.9,-92.94 543.93,-71.36 511.11,-56 479.42,-41.17 441.38,-27.8 416.29,-19.56"/>
<polygon fill="midnightblue" stroke="midnightblue" points="600.61,-110.05 610.93,-112.44 604.36,-104.14 600.61,-110.05"/>
</g>
<!-- Node12 -->
<g id="node12" class="node">
<title>Node12</title>
<g id="a_node12"><a xlink:href="resistancewithdistalpressure_8hpp.html" target="_top" xlink:title="MODEL::ResistanceWithDistalPressure source file.">
<polygon fill="none" stroke="black" points="732.11,-0.5 732.11,-19.5 920.11,-19.5 920.11,-0.5 732.11,-0.5"/>
<text text-anchor="middle" x="826.11" y="-7.5" font-family="Helvetica,sans-Serif" font-size="10.00">model/resistancewithdistalpressure.hpp</text>
</a>
</g>
</g>
<!-- Node5&#45;&gt;Node12 -->
<g id="edge27" class="edge">
<title>Node5&#45;&gt;Node12</title>
<path fill="none" stroke="midnightblue" d="M649,-107.45C691.14,-84.5 775.37,-38.63 810.33,-19.59"/>
<polygon fill="midnightblue" stroke="midnightblue" points="647.07,-104.51 639.96,-112.37 650.42,-110.66 647.07,-104.51"/>
</g>
<!-- Node6&#45;&gt;Node1 -->
<g id="edge11" class="edge">
<title>Node6&#45;&gt;Node1</title>
<path fill="none" stroke="midnightblue" d="M669.83,-81.1C680.64,-88.72 692.19,-99.21 698.11,-112 701.84,-120.07 700.87,-123.55 698.11,-132 685.2,-171.46 650.36,-208.26 633.5,-224.4"/>
<polygon fill="midnightblue" stroke="midnightblue" points="671.73,-78.16 661.44,-75.61 667.89,-84.02 671.73,-78.16"/>
</g>
<!-- Node6&#45;&gt;Node7 -->
<g id="edge7" class="edge">
<title>Node6&#45;&gt;Node7</title>
<path fill="none" stroke="midnightblue" d="M591.38,-60.86C500.56,-53.7 310.97,-38.01 151.11,-20 148.19,-19.67 145.21,-19.32 142.19,-18.96"/>
<polygon fill="midnightblue" stroke="midnightblue" points="591.19,-64.36 601.43,-61.65 591.74,-57.38 591.19,-64.36"/>
</g>
<!-- Node6&#45;&gt;Node8 -->
<g id="edge9" class="edge">
<title>Node6&#45;&gt;Node8</title>
<path fill="none" stroke="midnightblue" d="M591.11,-58.12C512.06,-48.06 365.28,-29.36 282.33,-18.8"/>
<polygon fill="midnightblue" stroke="midnightblue" points="590.97,-61.63 601.33,-59.42 591.85,-54.69 590.97,-61.63"/>
</g>
<!-- Node6&#45;&gt;Node9 -->
<g id="edge12" class="edge">
<title>Node6&#45;&gt;Node9</title>
<path fill="none" stroke="midnightblue" d="M632.41,-47.86C625.48,-38.5 617.2,-27.33 611.59,-19.75"/>
<polygon fill="midnightblue" stroke="midnightblue" points="629.74,-50.13 638.5,-56.08 635.36,-45.96 629.74,-50.13"/>
</g>
<!-- Node6&#45;&gt;Node10 -->
<g id="edge14" class="edge">
<title>Node6&#45;&gt;Node10</title>
<path fill="none" stroke="midnightblue" d="M698.68,-57.05C766.35,-47.01 882.33,-29.81 951.75,-19.51"/>
<polygon fill="midnightblue" stroke="midnightblue" points="698.03,-53.61 688.65,-58.54 699.06,-60.53 698.03,-53.61"/>
</g>
<!-- Node6&#45;&gt;Node11 -->
<g id="edge16" class="edge">
<title>Node6&#45;&gt;Node11</title>
<path fill="none" stroke="midnightblue" d="M594.6,-54.35C546.22,-44.14 474.16,-28.94 429.48,-19.52"/>
<polygon fill="midnightblue" stroke="midnightblue" points="594.04,-57.8 604.54,-56.44 595.48,-50.95 594.04,-57.8"/>
</g>
<!-- Node6&#45;&gt;Node12 -->
<g id="edge18" class="edge">
<title>Node6&#45;&gt;Node12</title>
<path fill="none" stroke="midnightblue" d="M683.43,-53.57C717.57,-43.38 766.77,-28.7 797.56,-19.52"/>
<polygon fill="midnightblue" stroke="midnightblue" points="682.37,-50.23 673.79,-56.44 684.37,-56.94 682.37,-50.23"/>
</g>
<!-- Node7&#45;&gt;Node2 -->
<g id="edge8" class="edge">
<title>Node7&#45;&gt;Node2</title>
<path fill="none" stroke="midnightblue" d="M60.09,-25.06C48.46,-32.9 35.11,-43.58 26.11,-56 9.02,-79.59 -9.61,-114.77 6.11,-132 35.76,-164.5 334.98,-173.83 450.73,-176.24"/>
<polygon fill="midnightblue" stroke="midnightblue" points="62.01,-27.98 68.54,-19.64 58.23,-22.09 62.01,-27.98"/>
</g>
<!-- Node8&#45;&gt;Node2 -->
<g id="edge10" class="edge">
<title>Node8&#45;&gt;Node2</title>
<path fill="none" stroke="midnightblue" d="M168.02,-21.72C92.96,-39.11 -29.8,-77.15 20.11,-132 48.77,-163.5 337.45,-173.42 450.78,-176.11"/>
<polygon fill="midnightblue" stroke="midnightblue" points="168.84,-25.12 177.82,-19.5 167.3,-18.3 168.84,-25.12"/>
</g>
<!-- Node9&#45;&gt;Node2 -->
<g id="edge13" class="edge">
<title>Node9&#45;&gt;Node2</title>
<path fill="none" stroke="midnightblue" d="M654.22,-23.11C671.11,-29.87 688.23,-40.25 698.11,-56 716.05,-84.62 719.24,-105.65 698.11,-132 678.84,-156.04 594.73,-168.06 541.31,-173.38"/>
<polygon fill="midnightblue" stroke="midnightblue" points="654.96,-19.65 644.36,-19.52 652.57,-26.23 654.96,-19.65"/>
</g>
<!-- Node10&#45;&gt;Node2 -->
<g id="edge15" class="edge">
<title>Node10&#45;&gt;Node2</title>
<path fill="none" stroke="midnightblue" d="M984.87,-24.5C939.05,-49.46 835.99,-102.9 743.11,-132 674.48,-153.5 591.71,-165.98 541.53,-172.13"/>
<polygon fill="midnightblue" stroke="midnightblue" points="986.67,-27.51 993.75,-19.63 983.3,-21.37 986.67,-27.51"/>
</g>
<!-- Node11&#45;&gt;Node2 -->
<g id="edge17" class="edge">
<title>Node11&#45;&gt;Node2</title>
<path fill="none" stroke="midnightblue" d="M416.74,-24.29C446.59,-40.37 492.5,-70.53 512.11,-112 521.05,-130.91 509.51,-155.36 501.87,-168.22"/>
<polygon fill="midnightblue" stroke="midnightblue" points="418.15,-21.08 407.67,-19.57 414.92,-27.29 418.15,-21.08"/>
</g>
<!-- Node12&#45;&gt;Node2 -->
<g id="edge19" class="edge">
<title>Node12&#45;&gt;Node2</title>
<path fill="none" stroke="midnightblue" d="M815.66,-28.44C798.61,-55.27 762.15,-106.26 717.11,-132 662.04,-163.47 588.16,-173.13 541.34,-175.98"/>
<polygon fill="midnightblue" stroke="midnightblue" points="818.76,-30.08 821.05,-19.74 812.81,-26.4 818.76,-30.08"/>
</g>
<!-- Node13&#45;&gt;Node4 -->
<g id="edge29" class="edge">
<title>Node13&#45;&gt;Node4</title>
<path fill="none" stroke="midnightblue" d="M337.73,-103.86C330.97,-94.5 322.9,-83.33 317.43,-75.75"/>
<polygon fill="midnightblue" stroke="midnightblue" points="334.98,-106.03 343.67,-112.08 340.65,-101.93 334.98,-106.03"/>
</g>
<!-- Node14&#45;&gt;Node4 -->
<g id="edge31" class="edge">
<title>Node14&#45;&gt;Node4</title>
<path fill="none" stroke="midnightblue" d="M426.74,-108.91C398.72,-98.75 359.41,-84.51 334.61,-75.52"/>
<polygon fill="midnightblue" stroke="midnightblue" points="425.9,-112.33 436.5,-112.44 428.29,-105.75 425.9,-112.33"/>
</g>
<!-- Node15&#45;&gt;Node4 -->
<g id="edge33" class="edge">
<title>Node15&#45;&gt;Node4</title>
<path fill="none" stroke="midnightblue" d="M120.77,-110.19C169.31,-99.17 242.92,-82.47 282.89,-73.4"/>
<polygon fill="midnightblue" stroke="midnightblue" points="119.8,-106.82 110.82,-112.44 121.35,-113.64 119.8,-106.82"/>
</g>
</g>
</svg>
