<?xml version="1.0" encoding="UTF-8" standalone="no"?>
<!DOCTYPE svg PUBLIC "-//W3C//DTD SVG 1.1//EN"
 "http://www.w3.org/Graphics/SVG/1.1/DTD/svg11.dtd">
<!-- Generated by graphviz version 3.0.0 (20220413.0242)
 -->
<!-- Title: model/junction.hpp Pages: 1 -->
<svg width="1150pt" height="252pt"
 viewBox="0.00 0.00 1149.50 252.00" xmlns="http://www.w3.org/2000/svg" xmlns:xlink="http://www.w3.org/1999/xlink">
<g id="graph0" class="graph" transform="scale(1 1) rotate(0) translate(4 248)">
<title>model/junction.hpp</title>
<!-- Node1 -->
<g id="node1" class="node">
<title>Node1</title>
<g id="a_node1"><a xlink:title="MODEL::Junction source file.">
<polygon fill="#bfbfbf" stroke="black" points="346.5,-224.5 346.5,-243.5 444.5,-243.5 444.5,-224.5 346.5,-224.5"/>
<text text-anchor="middle" x="395.5" y="-231.5" font-family="Helvetica,sans-Serif" font-size="10.00">model/junction.hpp</text>
</a>
</g>
</g>
<!-- Node2 -->
<g id="node2" class="node">
<title>Node2</title>
<g id="a_node2"><a xlink:href="model_8hpp.html" target="_top" xlink:title="MODEL::Model source file.">
<polygon fill="none" stroke="black" points="499.5,-168.5 499.5,-187.5 589.5,-187.5 589.5,-168.5 499.5,-168.5"/>
<text text-anchor="middle" x="544.5" y="-175.5" font-family="Helvetica,sans-Serif" font-size="10.00">model/model.hpp</text>
</a>
</g>
</g>
<!-- Node1&#45;&gt;Node2 -->
<g id="edge1" class="edge">
<title>Node1&#45;&gt;Node2</title>
<path fill="none" stroke="midnightblue" d="M428.87,-220.91C456.88,-210.75 496.2,-196.51 521,-187.52"/>
<polygon fill="midnightblue" stroke="midnightblue" points="427.32,-217.75 419.11,-224.44 429.7,-224.33 427.32,-217.75"/>
</g>
<!-- Node3 -->
<g id="node3" class="node">
<title>Node3</title>
<g id="a_node3"><a xlink:href="densesystem_8hpp.html" target="_top" xlink:title="ALGEBRA::DenseSystem source file.">
<polygon fill="none" stroke="black" points="241,-112.5 241,-131.5 368,-131.5 368,-112.5 241,-112.5"/>
<text text-anchor="middle" x="304.5" y="-119.5" font-family="Helvetica,sans-Serif" font-size="10.00">algebra/densesystem.hpp</text>
</a>
</g>
</g>
<!-- Node2&#45;&gt;Node3 -->
<g id="edge2" class="edge">
<title>Node2&#45;&gt;Node3</title>
<path fill="none" stroke="midnightblue" d="M491.35,-166.28C444.21,-156.08 376.99,-140.92 337.27,-131.52"/>
<polygon fill="midnightblue" stroke="midnightblue" points="490.87,-169.76 501.38,-168.44 492.34,-162.92 490.87,-169.76"/>
</g>
<!-- Node11 -->
<g id="node11" class="node">
<title>Node11</title>
<g id="a_node11"><a xlink:href="integrator_8hpp.html" target="_top" xlink:title="ALGEBRA::Integrator source file.">
<polygon fill="none" stroke="black" points="915.5,-112.5 915.5,-131.5 1025.5,-131.5 1025.5,-112.5 915.5,-112.5"/>
<text text-anchor="middle" x="970.5" y="-119.5" font-family="Helvetica,sans-Serif" font-size="10.00">algebra/integrator.hpp</text>
</a>
</g>
</g>
<!-- Node2&#45;&gt;Node11 -->
<g id="edge25" class="edge">
<title>Node2&#45;&gt;Node11</title>
<path fill="none" stroke="midnightblue" d="M599.53,-170.14C669.66,-161.38 794.61,-145.71 901.5,-132 905.93,-131.43 910.53,-130.84 915.14,-130.24"/>
<polygon fill="midnightblue" stroke="midnightblue" points="599.08,-166.67 589.59,-171.38 599.95,-173.61 599.08,-166.67"/>
</g>
<!-- Node12 -->
<g id="node12" class="node">
<title>Node12</title>
<g id="a_node12"><a xlink:href="main_8hpp.html" target="_top" xlink:title="Main page documentation.">
<polygon fill="none" stroke="black" points="922.5,-56.5 922.5,-75.5 978.5,-75.5 978.5,-56.5 922.5,-56.5"/>
<text text-anchor="middle" x="950.5" y="-63.5" font-family="Helvetica,sans-Serif" font-size="10.00">main.hpp</text>
</a>
</g>
</g>
<!-- Node2&#45;&gt;Node12 -->
<g id="edge43" class="edge">
<title>Node2&#45;&gt;Node12</title>
<path fill="none" stroke="midnightblue" d="M599.75,-177.9C665.97,-177.08 779.07,-169.53 867.5,-132 898.84,-118.7 928.45,-90.41 942.31,-75.94"/>
<polygon fill="midnightblue" stroke="midnightblue" points="599.51,-174.41 589.54,-177.98 599.56,-181.41 599.51,-174.41"/>
</g>
<!-- Node15 -->
<g id="node15" class="node">
<title>Node15</title>
<g id="a_node15"><a xlink:href="sparsesystem_8hpp.html" target="_top" xlink:title="ALGEBRA::SparseSystem source file.">
<polygon fill="none" stroke="black" points="386.5,-112.5 386.5,-131.5 516.5,-131.5 516.5,-112.5 386.5,-112.5"/>
<text text-anchor="middle" x="451.5" y="-119.5" font-family="Helvetica,sans-Serif" font-size="10.00">algebra/sparsesystem.hpp</text>
</a>
</g>
</g>
<!-- Node2&#45;&gt;Node15 -->
<g id="edge29" class="edge">
<title>Node2&#45;&gt;Node15</title>
<path fill="none" stroke="midnightblue" d="M515.48,-163.59C496.96,-153.61 474.26,-140.27 461.29,-131.65"/>
<polygon fill="midnightblue" stroke="midnightblue" points="513.97,-166.75 524.44,-168.32 517.24,-160.56 513.97,-166.75"/>
</g>
<!-- Node16 -->
<g id="node16" class="node">
<title>Node16</title>
<g id="a_node16"><a xlink:href="configreader_8hpp.html" target="_top" xlink:title="IO::ConfigReader source file.">
<polygon fill="none" stroke="black" points="1043.5,-112.5 1043.5,-131.5 1141.5,-131.5 1141.5,-112.5 1043.5,-112.5"/>
<text text-anchor="middle" x="1092.5" y="-119.5" font-family="Helvetica,sans-Serif" font-size="10.00">io/configreader.hpp</text>
</a>
</g>
</g>
<!-- Node2&#45;&gt;Node16 -->
<g id="edge39" class="edge">
<title>Node2&#45;&gt;Node16</title>
<path fill="none" stroke="midnightblue" d="M599.59,-173.07C690.4,-166.33 877.14,-151.42 1034.5,-132 1037.43,-131.64 1040.45,-131.24 1043.48,-130.83"/>
<polygon fill="midnightblue" stroke="midnightblue" points="599.24,-169.58 589.53,-173.81 599.76,-176.56 599.24,-169.58"/>
</g>
<!-- Node17 -->
<g id="node17" class="node">
<title>Node17</title>
<g id="a_node17"><a xlink:href="csvwriter_8hpp.html" target="_top" xlink:title="IO::write_csv source file.">
<polygon fill="none" stroke="black" points="774,-112.5 774,-131.5 859,-131.5 859,-112.5 774,-112.5"/>
<text text-anchor="middle" x="816.5" y="-119.5" font-family="Helvetica,sans-Serif" font-size="10.00">io/csvwriter.hpp</text>
</a>
</g>
</g>
<!-- Node2&#45;&gt;Node17 -->
<g id="edge41" class="edge">
<title>Node2&#45;&gt;Node17</title>
<path fill="none" stroke="midnightblue" d="M597.52,-166.47C648.93,-156.27 725.94,-140.98 773.6,-131.52"/>
<polygon fill="midnightblue" stroke="midnightblue" points="596.73,-163.06 587.6,-168.44 598.09,-169.93 596.73,-163.06"/>
</g>
<!-- Node3&#45;&gt;Node1 -->
<g id="edge19" class="edge">
<title>Node3&#45;&gt;Node1</title>
<path fill="none" stroke="midnightblue" d="M318.04,-139.36C337.63,-163.05 373.21,-206.05 388.36,-224.37"/>
<polygon fill="midnightblue" stroke="midnightblue" points="320.68,-137.07 311.61,-131.59 315.28,-141.53 320.68,-137.07"/>
</g>
<!-- Node3&#45;&gt;Node2 -->
<g id="edge20" class="edge">
<title>Node3&#45;&gt;Node2</title>
<path fill="none" stroke="midnightblue" d="M357.45,-133.68C404.53,-143.87 471.76,-159.02 511.56,-168.44"/>
<polygon fill="midnightblue" stroke="midnightblue" points="357.94,-130.2 347.43,-131.52 356.47,-137.04 357.94,-130.2"/>
</g>
<!-- Node4 -->
<g id="node4" class="node">
<title>Node4</title>
<g id="a_node4"><a xlink:href="block_8hpp.html" target="_top" xlink:title="MODEL::Block source file.">
<polygon fill="none" stroke="black" points="326,-56.5 326,-75.5 413,-75.5 413,-56.5 326,-56.5"/>
<text text-anchor="middle" x="369.5" y="-63.5" font-family="Helvetica,sans-Serif" font-size="10.00">model/block.hpp</text>
</a>
</g>
</g>
<!-- Node3&#45;&gt;Node4 -->
<g id="edge3" class="edge">
<title>Node3&#45;&gt;Node4</title>
<path fill="none" stroke="midnightblue" d="M322.77,-105.82C334.42,-96.15 349.1,-83.95 358.87,-75.83"/>
<polygon fill="midnightblue" stroke="midnightblue" points="320.4,-103.24 314.94,-112.32 324.87,-108.63 320.4,-103.24"/>
</g>
<!-- Node5 -->
<g id="node5" class="node">
<title>Node5</title>
<g id="a_node5"><a xlink:href="bloodvessel_8hpp.html" target="_top" xlink:title="MODEL::BloodVessel source file.">
<polygon fill="none" stroke="black" points="629.5,-0.5 629.5,-19.5 745.5,-19.5 745.5,-0.5 629.5,-0.5"/>
<text text-anchor="middle" x="687.5" y="-7.5" font-family="Helvetica,sans-Serif" font-size="10.00">model/bloodvessel.hpp</text>
</a>
</g>
</g>
<!-- Node3&#45;&gt;Node5 -->
<g id="edge17" class="edge">
<title>Node3&#45;&gt;Node5</title>
<path fill="none" stroke="midnightblue" d="M344.03,-109.65C421.01,-87.54 589.43,-39.17 657.78,-19.53"/>
<polygon fill="midnightblue" stroke="midnightblue" points="342.88,-106.34 334.23,-112.46 344.81,-113.06 342.88,-106.34"/>
</g>
<!-- Node6 -->
<g id="node6" class="node">
<title>Node6</title>
<g id="a_node6"><a xlink:href="flowreferencebc_8hpp.html" target="_top" xlink:title="MODEL::FlowReferenceBC source file.">
<polygon fill="none" stroke="black" points="141.5,-0.5 141.5,-19.5 273.5,-19.5 273.5,-0.5 141.5,-0.5"/>
<text text-anchor="middle" x="207.5" y="-7.5" font-family="Helvetica,sans-Serif" font-size="10.00">model/flowreferencebc.hpp</text>
</a>
</g>
</g>
<!-- Node3&#45;&gt;Node6 -->
<g id="edge18" class="edge">
<title>Node3&#45;&gt;Node6</title>
<path fill="none" stroke="midnightblue" d="M290.03,-104.59C269.11,-80.87 231.19,-37.87 215.08,-19.59"/>
<polygon fill="midnightblue" stroke="midnightblue" points="287.65,-107.18 296.89,-112.37 292.9,-102.55 287.65,-107.18"/>
</g>
<!-- Node7 -->
<g id="node7" class="node">
<title>Node7</title>
<g id="a_node7"><a xlink:href="openloopcoronarybc_8hpp.html" target="_top" xlink:title="MODEL::OpenLoopCoronaryBC source file.">
<polygon fill="none" stroke="black" points="461.5,-0.5 461.5,-19.5 611.5,-19.5 611.5,-0.5 461.5,-0.5"/>
<text text-anchor="middle" x="536.5" y="-7.5" font-family="Helvetica,sans-Serif" font-size="10.00">model/openloopcoronarybc.hpp</text>
</a>
</g>
</g>
<!-- Node3&#45;&gt;Node7 -->
<g id="edge21" class="edge">
<title>Node3&#45;&gt;Node7</title>
<path fill="none" stroke="midnightblue" d="M339.62,-109.02C363.15,-100.63 394.63,-88.68 421.5,-76 459.25,-58.19 501.45,-32.85 522.69,-19.69"/>
<polygon fill="midnightblue" stroke="midnightblue" points="338.32,-105.77 330.06,-112.4 340.65,-112.37 338.32,-105.77"/>
</g>
<!-- Node8 -->
<g id="node8" class="node">
<title>Node8</title>
<g id="a_node8"><a xlink:href="pressurereferencebc_8hpp.html" target="_top" xlink:title="MODEL::PressureReferenceBC source file.">
<polygon fill="none" stroke="black" points="291.5,-0.5 291.5,-19.5 443.5,-19.5 443.5,-0.5 291.5,-0.5"/>
<text text-anchor="middle" x="367.5" y="-7.5" font-family="Helvetica,sans-Serif" font-size="10.00">model/pressurereferencebc.hpp</text>
</a>
</g>
</g>
<!-- Node3&#45;&gt;Node8 -->
<g id="edge22" class="edge">
<title>Node3&#45;&gt;Node8</title>
<path fill="none" stroke="midnightblue" d="M304.74,-102.3C305.65,-88.68 308.46,-70.2 316.5,-56 325.34,-40.38 341.66,-27.45 353.47,-19.51"/>
<polygon fill="midnightblue" stroke="midnightblue" points="301.24,-102.27 304.35,-112.4 308.23,-102.54 301.24,-102.27"/>
</g>
<!-- Node9 -->
<g id="node9" class="node">
<title>Node9</title>
<g id="a_node9"><a xlink:href="resistancebc_8hpp.html" target="_top" xlink:title="MODEL::ResistanceBC source file.">
<polygon fill="none" stroke="black" points="764,-0.5 764,-19.5 883,-19.5 883,-0.5 764,-0.5"/>
<text text-anchor="middle" x="823.5" y="-7.5" font-family="Helvetica,sans-Serif" font-size="10.00">model/resistancebc.hpp</text>
</a>
</g>
</g>
<!-- Node3&#45;&gt;Node9 -->
<g id="edge23" class="edge">
<title>Node3&#45;&gt;Node9</title>
<path fill="none" stroke="midnightblue" d="M354.6,-110.38C457.23,-88.63 689.56,-39.39 783.23,-19.53"/>
<polygon fill="midnightblue" stroke="midnightblue" points="353.85,-106.96 344.79,-112.46 355.3,-113.81 353.85,-106.96"/>
</g>
<!-- Node10 -->
<g id="node10" class="node">
<title>Node10</title>
<g id="a_node10"><a xlink:href="windkesselbc_8hpp.html" target="_top" xlink:title="MODEL::WindkesselBC source file.">
<polygon fill="none" stroke="black" points="0,-0.5 0,-19.5 123,-19.5 123,-0.5 0,-0.5"/>
<text text-anchor="middle" x="61.5" y="-7.5" font-family="Helvetica,sans-Serif" font-size="10.00">model/windkesselbc.hpp</text>
</a>
</g>
</g>
<!-- Node3&#45;&gt;Node10 -->
<g id="edge24" class="edge">
<title>Node3&#45;&gt;Node10</title>
<path fill="none" stroke="midnightblue" d="M276.14,-108.16C226,-85.47 122.98,-38.83 80.48,-19.59"/>
<polygon fill="midnightblue" stroke="midnightblue" points="274.88,-111.43 285.43,-112.37 277.77,-105.06 274.88,-111.43"/>
</g>
<!-- Node4&#45;&gt;Node1 -->
<g id="edge8" class="edge">
<title>Node4&#45;&gt;Node1</title>
<path fill="none" stroke="midnightblue" d="M315.68,-72.17C268.72,-79.19 211.05,-95.38 231.5,-132 260.04,-183.09 326.2,-211.53 365.2,-224.41"/>
<polygon fill="midnightblue" stroke="midnightblue" points="316.38,-75.61 325.81,-70.77 315.42,-68.67 316.38,-75.61"/>
</g>
<!-- Node4&#45;&gt;Node5 -->
<g id="edge4" class="edge">
<title>Node4&#45;&gt;Node5</title>
<path fill="none" stroke="midnightblue" d="M423.06,-55.91C482.9,-45.74 579.02,-29.42 637.41,-19.51"/>
<polygon fill="midnightblue" stroke="midnightblue" points="422.32,-52.48 413.05,-57.6 423.49,-59.38 422.32,-52.48"/>
</g>
<!-- Node4&#45;&gt;Node6 -->
<g id="edge6" class="edge">
<title>Node4&#45;&gt;Node6</title>
<path fill="none" stroke="midnightblue" d="M334.02,-53.17C303.51,-43 260.26,-28.59 233.05,-19.52"/>
<polygon fill="midnightblue" stroke="midnightblue" points="333.24,-56.6 343.83,-56.44 335.45,-49.96 333.24,-56.6"/>
</g>
<!-- Node4&#45;&gt;Node7 -->
<g id="edge9" class="edge">
<title>Node4&#45;&gt;Node7</title>
<path fill="none" stroke="midnightblue" d="M405.67,-53.3C437.14,-43.13 481.99,-28.62 510.16,-19.52"/>
<polygon fill="midnightblue" stroke="midnightblue" points="404.4,-50.04 395.96,-56.44 406.55,-56.7 404.4,-50.04"/>
</g>
<!-- Node4&#45;&gt;Node8 -->
<g id="edge11" class="edge">
<title>Node4&#45;&gt;Node8</title>
<path fill="none" stroke="midnightblue" d="M368.79,-45.8C368.46,-36.91 368.08,-26.78 367.82,-19.75"/>
<polygon fill="midnightblue" stroke="midnightblue" points="365.3,-46.22 369.17,-56.08 372.3,-45.96 365.3,-46.22"/>
</g>
<!-- Node4&#45;&gt;Node9 -->
<g id="edge13" class="edge">
<title>Node4&#45;&gt;Node9</title>
<path fill="none" stroke="midnightblue" d="M423.18,-58.95C497.61,-50.52 636.34,-34.61 754.5,-20 757.5,-19.63 760.57,-19.25 763.67,-18.85"/>
<polygon fill="midnightblue" stroke="midnightblue" points="422.66,-55.49 413.11,-60.09 423.44,-62.45 422.66,-55.49"/>
</g>
<!-- Node4&#45;&gt;Node10 -->
<g id="edge15" class="edge">
<title>Node4&#45;&gt;Node10</title>
<path fill="none" stroke="midnightblue" d="M315.63,-55.55C257.62,-45.38 166.16,-29.35 110.23,-19.54"/>
<polygon fill="midnightblue" stroke="midnightblue" points="315.24,-59.04 325.7,-57.32 316.45,-52.15 315.24,-59.04"/>
</g>
<!-- Node5&#45;&gt;Node2 -->
<g id="edge5" class="edge">
<title>Node5&#45;&gt;Node2</title>
<path fill="none" stroke="midnightblue" d="M685.41,-29.86C683.17,-43.57 678.63,-62.08 669.5,-76 640.88,-119.62 587.37,-153.41 560.61,-168.45"/>
<polygon fill="midnightblue" stroke="midnightblue" points="688.91,-30.07 686.79,-19.69 681.97,-29.13 688.91,-30.07"/>
</g>
<!-- Node6&#45;&gt;Node2 -->
<g id="edge7" class="edge">
<title>Node6&#45;&gt;Node2</title>
<path fill="none" stroke="midnightblue" d="M205.2,-29.54C203.03,-56.29 203.49,-105.44 231.5,-132 269.19,-167.75 422.21,-175.23 499.45,-176.71"/>
<polygon fill="midnightblue" stroke="midnightblue" points="208.69,-29.88 206.23,-19.57 201.72,-29.16 208.69,-29.88"/>
</g>
<!-- Node7&#45;&gt;Node2 -->
<g id="edge10" class="edge">
<title>Node7&#45;&gt;Node2</title>
<path fill="none" stroke="midnightblue" d="M543.62,-29.21C551.99,-52.85 564.06,-95.39 558.5,-132 556.53,-144.94 551.56,-159.28 548.1,-168.22"/>
<polygon fill="midnightblue" stroke="midnightblue" points="546.88,-27.93 540.12,-19.78 540.32,-30.37 546.88,-27.93"/>
</g>
<!-- Node8&#45;&gt;Node2 -->
<g id="edge12" class="edge">
<title>Node8&#45;&gt;Node2</title>
<path fill="none" stroke="midnightblue" d="M400.6,-23.52C436.72,-38.88 493.64,-68.38 525.5,-112 538.12,-129.28 542.4,-154.84 543.82,-168.18"/>
<polygon fill="midnightblue" stroke="midnightblue" points="401.58,-20.14 391,-19.56 398.91,-26.61 401.58,-20.14"/>
</g>
<!-- Node9&#45;&gt;Node2 -->
<g id="edge14" class="edge">
<title>Node9&#45;&gt;Node2</title>
<path fill="none" stroke="midnightblue" d="M817.12,-29.55C811.36,-43.91 801.6,-63.39 787.5,-76 728.92,-128.37 639.36,-155.96 586.9,-168.43"/>
<polygon fill="midnightblue" stroke="midnightblue" points="820.55,-30.37 820.76,-19.78 813.99,-27.93 820.55,-30.37"/>
</g>
<!-- Node10&#45;&gt;Node2 -->
<g id="edge16" class="edge">
<title>Node10&#45;&gt;Node2</title>
<path fill="none" stroke="midnightblue" d="M75.91,-26.97C101.1,-53.73 156.04,-107.12 214.5,-132 264.91,-153.45 421.51,-167.8 499.47,-173.81"/>
<polygon fill="midnightblue" stroke="midnightblue" points="78.44,-24.55 69.08,-19.59 73.3,-29.3 78.44,-24.55"/>
</g>
<!-- Node11&#45;&gt;Node12 -->
<g id="edge26" class="edge">
<title>Node11&#45;&gt;Node12</title>
<path fill="none" stroke="midnightblue" d="M963.72,-102.69C960.35,-93.59 956.43,-83.01 953.74,-75.75"/>
<polygon fill="midnightblue" stroke="midnightblue" points="960.44,-103.92 967.2,-112.08 967.01,-101.49 960.44,-103.92"/>
</g>
<!-- Node13 -->
<g id="node13" class="node">
<title>Node13</title>
<g id="a_node13"><a xlink:href="main_8cpp.html" target="_top" xlink:title="Main routine of svZeroDSolver.">
<polygon fill="none" stroke="black" points="912.5,-0.5 912.5,-19.5 968.5,-19.5 968.5,-0.5 912.5,-0.5"/>
<text text-anchor="middle" x="940.5" y="-7.5" font-family="Helvetica,sans-Serif" font-size="10.00">main.cpp</text>
</a>
</g>
</g>
<!-- Node12&#45;&gt;Node13 -->
<g id="edge27" class="edge">
<title>Node12&#45;&gt;Node13</title>
<path fill="none" stroke="midnightblue" d="M947,-46.1C945.34,-37.14 943.44,-26.86 942.12,-19.75"/>
<polygon fill="midnightblue" stroke="midnightblue" points="943.59,-46.89 948.85,-56.08 950.47,-45.61 943.59,-46.89"/>
</g>
<!-- Node14 -->
<g id="node14" class="node">
<title>Node14</title>
<g id="a_node14"><a xlink:href="python_8cpp.html" target="_top" xlink:title="Python binding for svZeroDSolver.">
<polygon fill="none" stroke="black" points="987,-0.5 987,-19.5 1050,-19.5 1050,-0.5 987,-0.5"/>
<text text-anchor="middle" x="1018.5" y="-7.5" font-family="Helvetica,sans-Serif" font-size="10.00">python.cpp</text>
</a>
</g>
</g>
<!-- Node12&#45;&gt;Node14 -->
<g id="edge28" class="edge">
<title>Node12&#45;&gt;Node14</title>
<path fill="none" stroke="midnightblue" d="M969.26,-50.1C981.5,-40.38 997.06,-28.03 1007.38,-19.83"/>
<polygon fill="midnightblue" stroke="midnightblue" points="967.08,-47.36 961.43,-56.32 971.43,-52.85 967.08,-47.36"/>
</g>
<!-- Node15&#45;&gt;Node1 -->
<g id="edge33" class="edge">
<title>Node15&#45;&gt;Node1</title>
<path fill="none" stroke="midnightblue" d="M442.53,-140.63C430.35,-164.55 409.05,-206.38 399.89,-224.37"/>
<polygon fill="midnightblue" stroke="midnightblue" points="445.71,-142.09 447.13,-131.59 439.47,-138.92 445.71,-142.09"/>
</g>
<!-- Node15&#45;&gt;Node2 -->
<g id="edge34" class="edge">
<title>Node15&#45;&gt;Node2</title>
<path fill="none" stroke="midnightblue" d="M480.47,-136.39C498.99,-146.36 521.69,-159.7 534.67,-168.32"/>
<polygon fill="midnightblue" stroke="midnightblue" points="481.99,-133.23 471.52,-131.65 478.72,-139.42 481.99,-133.23"/>
</g>
<!-- Node15&#45;&gt;Node4 -->
<g id="edge30" class="edge">
<title>Node15&#45;&gt;Node4</title>
<path fill="none" stroke="midnightblue" d="M429.67,-106.62C414.69,-96.76 395.3,-83.99 382.64,-75.65"/>
<polygon fill="midnightblue" stroke="midnightblue" points="428.05,-109.75 438.33,-112.32 431.9,-103.9 428.05,-109.75"/>
</g>
<!-- Node15&#45;&gt;Node5 -->
<g id="edge31" class="edge">
<title>Node15&#45;&gt;Node5</title>
<path fill="none" stroke="midnightblue" d="M526.86,-116.86C565.24,-111.63 610.96,-100.27 645.5,-76 665.95,-61.63 678.85,-33.83 684.38,-19.7"/>
<polygon fill="midnightblue" stroke="midnightblue" points="526.25,-113.41 516.76,-118.13 527.12,-120.36 526.25,-113.41"/>
</g>
<!-- Node15&#45;&gt;Node6 -->
<g id="edge32" class="edge">
<title>Node15&#45;&gt;Node6</title>
<path fill="none" stroke="midnightblue" d="M409.45,-109.54C382.35,-101.53 346.67,-89.83 316.5,-76 279.65,-59.11 239.46,-32.92 219.77,-19.52"/>
<polygon fill="midnightblue" stroke="midnightblue" points="408.81,-113 419.39,-112.42 410.76,-106.27 408.81,-113"/>
</g>
<!-- Node15&#45;&gt;Node7 -->
<g id="edge35" class="edge">
<title>Node15&#45;&gt;Node7</title>
<path fill="none" stroke="midnightblue" d="M490.28,-108.39C505.7,-101.35 521.99,-90.91 531.5,-76 542.57,-58.63 540.43,-33.11 538.26,-19.8"/>
<polygon fill="midnightblue" stroke="midnightblue" points="488.73,-105.25 480.87,-112.35 491.44,-111.7 488.73,-105.25"/>
</g>
<!-- Node15&#45;&gt;Node8 -->
<g id="edge36" class="edge">
<title>Node15&#45;&gt;Node8</title>
<path fill="none" stroke="midnightblue" d="M445.51,-102.61C440.48,-88.89 432.36,-70.16 421.5,-56 410.06,-41.09 392.84,-27.83 380.94,-19.64"/>
<polygon fill="midnightblue" stroke="midnightblue" points="442.3,-104.04 448.88,-112.35 448.92,-101.75 442.3,-104.04"/>
</g>
<!-- Node15&#45;&gt;Node9 -->
<g id="edge37" class="edge">
<title>Node15&#45;&gt;Node9</title>
<path fill="none" stroke="midnightblue" d="M526.74,-115.52C604.5,-108.89 719.94,-96.05 759.5,-76 785.77,-62.68 807.65,-34.4 817.65,-19.93"/>
<polygon fill="midnightblue" stroke="midnightblue" points="526.18,-112.05 516.51,-116.38 526.77,-119.03 526.18,-112.05"/>
</g>
<!-- Node15&#45;&gt;Node10 -->
<g id="edge38" class="edge">
<title>Node15&#45;&gt;Node10</title>
<path fill="none" stroke="midnightblue" d="M406.23,-110.01C370.59,-101.22 319.73,-88.37 275.5,-76 207.82,-57.08 128.86,-32.42 88.41,-19.6"/>
<polygon fill="midnightblue" stroke="midnightblue" points="405.77,-113.5 416.31,-112.49 407.44,-106.71 405.77,-113.5"/>
</g>
<!-- Node16&#45;&gt;Node12 -->
<g id="edge40" class="edge">
<title>Node16&#45;&gt;Node12</title>
<path fill="none" stroke="midnightblue" d="M1060.34,-108.77C1033.67,-98.63 996.43,-84.47 972.9,-75.52"/>
<polygon fill="midnightblue" stroke="midnightblue" points="1059.41,-112.16 1070,-112.44 1061.9,-105.62 1059.41,-112.16"/>
</g>
<!-- Node17&#45;&gt;Node12 -->
<g id="edge42" class="edge">
<title>Node17&#45;&gt;Node12</title>
<path fill="none" stroke="midnightblue" d="M847.18,-108.64C872.32,-98.5 907.25,-84.43 929.37,-75.52"/>
<polygon fill="midnightblue" stroke="midnightblue" points="845.7,-105.46 837.73,-112.44 848.32,-111.95 845.7,-105.46"/>
</g>
</g>
</svg>
