<?xml version="1.0" encoding="UTF-8" standalone="no"?>
<!DOCTYPE svg PUBLIC "-//W3C//DTD SVG 1.1//EN"
 "http://www.w3.org/Graphics/SVG/1.1/DTD/svg11.dtd">
<!-- Generated by graphviz version 3.0.0 (20220413.0242)
 -->
<!-- Title: model/junction.hpp Pages: 1 -->
<svg width="742pt" height="420pt"
 viewBox="0.00 0.00 742.00 420.00" xmlns="http://www.w3.org/2000/svg" xmlns:xlink="http://www.w3.org/1999/xlink">
<g id="graph0" class="graph" transform="scale(1 1) rotate(0) translate(4 416)">
<title>model/junction.hpp</title>
<!-- Node1 -->
<g id="node1" class="node">
<title>Node1</title>
<g id="a_node1"><a xlink:title="MODEL::Junction source file.">
<polygon fill="#bfbfbf" stroke="black" points="250,-392.5 250,-411.5 348,-411.5 348,-392.5 250,-392.5"/>
<text text-anchor="middle" x="299" y="-399.5" font-family="Helvetica,sans-Serif" font-size="10.00">model/junction.hpp</text>
</a>
</g>
</g>
<!-- Node2 -->
<g id="node2" class="node">
<title>Node2</title>
<g id="a_node2"><a xlink:href="densesystem_8hpp.html" target="_top" xlink:title="ALGEBRA::DenseSystem source file.">
<polygon fill="none" stroke="black" points="364,-112.5 364,-131.5 498,-131.5 498,-112.5 364,-112.5"/>
<text text-anchor="middle" x="431" y="-119.5" font-family="Helvetica,sans-Serif" font-size="10.00">../algebra/densesystem.hpp</text>
</a>
</g>
</g>
<!-- Node1&#45;&gt;Node2 -->
<g id="edge1" class="edge">
<title>Node1&#45;&gt;Node2</title>
<path fill="none" stroke="midnightblue" d="M348.04,-396.47C447.65,-386.15 668.05,-357.24 713,-300 722.77,-287.56 730.46,-250.44 709,-224 672.29,-178.78 637.88,-207.49 583,-188 538.53,-172.21 488.49,-149.89 458.37,-135.94"/>
<polygon fill="midnightblue" stroke="midnightblue" points="459.5,-132.61 448.96,-131.55 456.54,-138.95 459.5,-132.61"/>
</g>
<!-- Node4 -->
<g id="node4" class="node">
<title>Node4</title>
<g id="a_node4"><a xlink:href="sparsesystem_8hpp.html" target="_top" xlink:title="ALGEBRA::SparseSystem source file.">
<polygon fill="none" stroke="black" points="311.5,-336.5 311.5,-355.5 448.5,-355.5 448.5,-336.5 311.5,-336.5"/>
<text text-anchor="middle" x="380" y="-343.5" font-family="Helvetica,sans-Serif" font-size="10.00">../algebra/sparsesystem.hpp</text>
</a>
</g>
</g>
<!-- Node1&#45;&gt;Node4 -->
<g id="edge3" class="edge">
<title>Node1&#45;&gt;Node4</title>
<path fill="none" stroke="midnightblue" d="M312.01,-392.32C324.53,-383.98 343.68,-371.21 358.47,-361.35"/>
<polygon fill="midnightblue" stroke="midnightblue" points="360.64,-364.11 367.02,-355.65 356.76,-358.29 360.64,-364.11"/>
</g>
<!-- Node14 -->
<g id="node14" class="node">
<title>Node14</title>
<g id="a_node14"><a xlink:href="block_8hpp.html" target="_top" xlink:title="MODEL::Block source file.">
<polygon fill="none" stroke="black" points="186,-168.5 186,-187.5 244,-187.5 244,-168.5 186,-168.5"/>
<text text-anchor="middle" x="215" y="-175.5" font-family="Helvetica,sans-Serif" font-size="10.00">block.hpp</text>
</a>
</g>
</g>
<!-- Node1&#45;&gt;Node14 -->
<g id="edge44" class="edge">
<title>Node1&#45;&gt;Node14</title>
<path fill="none" stroke="midnightblue" d="M282.62,-392.44C246.55,-372.41 161.84,-318.48 141,-244 138.6,-235.44 136.64,-231.75 141,-224 149.22,-209.38 164.33,-198.95 178.76,-191.85"/>
<polygon fill="midnightblue" stroke="midnightblue" points="180.4,-194.95 188.07,-187.64 177.52,-188.57 180.4,-194.95"/>
</g>
<!-- Node3 -->
<g id="node3" class="node">
<title>Node3</title>
<g id="a_node3"><a xlink:title=" ">
<polygon fill="none" stroke="#bfbfbf" points="395.5,-56.5 395.5,-75.5 466.5,-75.5 466.5,-56.5 395.5,-56.5"/>
<text text-anchor="middle" x="431" y="-63.5" font-family="Helvetica,sans-Serif" font-size="10.00">Eigen/Dense</text>
</a>
</g>
</g>
<!-- Node2&#45;&gt;Node3 -->
<g id="edge2" class="edge">
<title>Node2&#45;&gt;Node3</title>
<path fill="none" stroke="midnightblue" d="M431,-112.08C431,-105.01 431,-94.86 431,-85.99"/>
<polygon fill="midnightblue" stroke="midnightblue" points="434.5,-85.75 431,-75.75 427.5,-85.75 434.5,-85.75"/>
</g>
<!-- Node5 -->
<g id="node5" class="node">
<title>Node5</title>
<g id="a_node5"><a xlink:title=" ">
<polygon fill="none" stroke="#bfbfbf" points="376,-280.5 376,-299.5 450,-299.5 450,-280.5 376,-280.5"/>
<text text-anchor="middle" x="413" y="-287.5" font-family="Helvetica,sans-Serif" font-size="10.00">Eigen/Sparse</text>
</a>
</g>
</g>
<!-- Node4&#45;&gt;Node5 -->
<g id="edge4" class="edge">
<title>Node4&#45;&gt;Node5</title>
<path fill="none" stroke="midnightblue" d="M385.45,-336.08C390.01,-328.61 396.67,-317.72 402.29,-308.52"/>
<polygon fill="midnightblue" stroke="midnightblue" points="405.42,-310.11 407.65,-299.75 399.45,-306.46 405.42,-310.11"/>
</g>
<!-- Node6 -->
<g id="node6" class="node">
<title>Node6</title>
<g id="a_node6"><a xlink:title=" ">
<polygon fill="none" stroke="#bfbfbf" points="544,-280.5 544,-299.5 632,-299.5 632,-280.5 544,-280.5"/>
<text text-anchor="middle" x="588" y="-287.5" font-family="Helvetica,sans-Serif" font-size="10.00">Eigen/SparseLU</text>
</a>
</g>
</g>
<!-- Node4&#45;&gt;Node6 -->
<g id="edge5" class="edge">
<title>Node4&#45;&gt;Node6</title>
<path fill="none" stroke="midnightblue" d="M412.96,-336.44C448.79,-327.14 506.16,-312.25 545.39,-302.06"/>
<polygon fill="midnightblue" stroke="midnightblue" points="546.4,-305.42 555.2,-299.52 544.64,-298.64 546.4,-305.42"/>
</g>
<!-- Node7 -->
<g id="node7" class="node">
<title>Node7</title>
<g id="a_node7"><a xlink:title=" ">
<polygon fill="none" stroke="#bfbfbf" points="650,-280.5 650,-299.5 704,-299.5 704,-280.5 650,-280.5"/>
<text text-anchor="middle" x="677" y="-287.5" font-family="Helvetica,sans-Serif" font-size="10.00">iostream</text>
</a>
</g>
</g>
<!-- Node4&#45;&gt;Node7 -->
<g id="edge6" class="edge">
<title>Node4&#45;&gt;Node7</title>
<path fill="none" stroke="midnightblue" d="M436.74,-336.46C487.49,-328.54 564.11,-315.9 639.74,-300.14"/>
<polygon fill="midnightblue" stroke="midnightblue" points="640.86,-303.48 649.92,-298 639.42,-296.63 640.86,-303.48"/>
</g>
<!-- Node8 -->
<g id="node8" class="node">
<title>Node8</title>
<g id="a_node8"><a xlink:href="model_8hpp.html" target="_top" xlink:title="MODEL::Model source file.">
<polygon fill="none" stroke="black" points="184,-280.5 184,-299.5 282,-299.5 282,-280.5 184,-280.5"/>
<text text-anchor="middle" x="233" y="-287.5" font-family="Helvetica,sans-Serif" font-size="10.00">../model/model.hpp</text>
</a>
</g>
</g>
<!-- Node4&#45;&gt;Node8 -->
<g id="edge7" class="edge">
<title>Node4&#45;&gt;Node8</title>
<path fill="none" stroke="midnightblue" d="M351.62,-336.44C325.24,-327.48 286.47,-313.31 260.41,-303.18"/>
<polygon fill="midnightblue" stroke="midnightblue" points="261.69,-299.92 251.1,-299.52 259.13,-306.44 261.69,-299.92"/>
</g>
<!-- Node8&#45;&gt;Node1 -->
<g id="edge13" class="edge">
<title>Node8&#45;&gt;Node1</title>
<path fill="none" stroke="midnightblue" d="M238.15,-299.59C248.98,-317.63 274.25,-359.74 288.58,-383.64"/>
<polygon fill="midnightblue" stroke="midnightblue" points="285.67,-385.59 293.82,-392.37 291.68,-381.99 285.67,-385.59"/>
</g>
<!-- Node8&#45;&gt;Node2 -->
<g id="edge11" class="edge">
<title>Node8&#45;&gt;Node2</title>
<path fill="none" stroke="midnightblue" d="M243.37,-280.31C275.31,-253.53 372.51,-172.03 413,-138.09"/>
<polygon fill="midnightblue" stroke="midnightblue" points="415.32,-140.71 420.74,-131.61 410.82,-135.35 415.32,-140.71"/>
</g>
<!-- Node8&#45;&gt;Node4 -->
<g id="edge12" class="edge">
<title>Node8&#45;&gt;Node4</title>
<path fill="none" stroke="midnightblue" d="M261.26,-299.52C287.6,-308.47 326.38,-322.63 352.47,-332.77"/>
<polygon fill="midnightblue" stroke="midnightblue" points="351.21,-336.04 361.8,-336.44 353.77,-329.52 351.21,-336.04"/>
</g>
<!-- Node9 -->
<g id="node9" class="node">
<title>Node9</title>
<g id="a_node9"><a xlink:title=" ">
<polygon fill="none" stroke="#bfbfbf" points="113.5,-112.5 113.5,-131.5 148.5,-131.5 148.5,-112.5 113.5,-112.5"/>
<text text-anchor="middle" x="131" y="-119.5" font-family="Helvetica,sans-Serif" font-size="10.00">map</text>
</a>
</g>
</g>
<!-- Node8&#45;&gt;Node9 -->
<g id="edge8" class="edge">
<title>Node8&#45;&gt;Node9</title>
<path fill="none" stroke="midnightblue" d="M196.16,-280.44C176.48,-273.87 153.73,-262.65 141,-244 119.97,-213.21 123.23,-167.19 127.25,-141.7"/>
<polygon fill="midnightblue" stroke="midnightblue" points="130.75,-142.01 129.07,-131.55 123.86,-140.78 130.75,-142.01"/>
</g>
<!-- Node10 -->
<g id="node10" class="node">
<title>Node10</title>
<g id="a_node10"><a xlink:title=" ">
<polygon fill="none" stroke="#bfbfbf" points="150.5,-224.5 150.5,-243.5 179.5,-243.5 179.5,-224.5 150.5,-224.5"/>
<text text-anchor="middle" x="165" y="-231.5" font-family="Helvetica,sans-Serif" font-size="10.00">list</text>
</a>
</g>
</g>
<!-- Node8&#45;&gt;Node10 -->
<g id="edge9" class="edge">
<title>Node8&#45;&gt;Node10</title>
<path fill="none" stroke="midnightblue" d="M222.07,-280.32C211.83,-272.18 196.28,-259.84 184,-250.09"/>
<polygon fill="midnightblue" stroke="midnightblue" points="186.13,-247.31 176.12,-243.83 181.78,-252.79 186.13,-247.31"/>
</g>
<!-- Node11 -->
<g id="node11" class="node">
<title>Node11</title>
<g id="a_node11"><a xlink:title=" ">
<polygon fill="none" stroke="#bfbfbf" points="198,-224.5 198,-243.5 244,-243.5 244,-224.5 198,-224.5"/>
<text text-anchor="middle" x="221" y="-231.5" font-family="Helvetica,sans-Serif" font-size="10.00">variant</text>
</a>
</g>
</g>
<!-- Node8&#45;&gt;Node11 -->
<g id="edge10" class="edge">
<title>Node8&#45;&gt;Node11</title>
<path fill="none" stroke="midnightblue" d="M231.02,-280.08C229.43,-272.93 227.14,-262.64 225.15,-253.69"/>
<polygon fill="midnightblue" stroke="midnightblue" points="228.53,-252.75 222.94,-243.75 221.7,-254.27 228.53,-252.75"/>
</g>
<!-- Node12 -->
<g id="node12" class="node">
<title>Node12</title>
<g id="a_node12"><a xlink:href="bloodvessel_8hpp.html" target="_top" xlink:title="MODEL::BloodVessel source file.">
<polygon fill="none" stroke="black" points="504,-224.5 504,-243.5 590,-243.5 590,-224.5 504,-224.5"/>
<text text-anchor="middle" x="547" y="-231.5" font-family="Helvetica,sans-Serif" font-size="10.00">bloodvessel.hpp</text>
</a>
</g>
</g>
<!-- Node8&#45;&gt;Node12 -->
<g id="edge14" class="edge">
<title>Node8&#45;&gt;Node12</title>
<path fill="none" stroke="midnightblue" d="M282.26,-280.56C332.76,-271.9 413.87,-257.98 493.64,-244.23"/>
<polygon fill="midnightblue" stroke="midnightblue" points="494.61,-247.62 503.87,-242.47 493.42,-240.72 494.61,-247.62"/>
</g>
<!-- Node16 -->
<g id="node16" class="node">
<title>Node16</title>
<g id="a_node16"><a xlink:href="node_8hpp.html" target="_top" xlink:title="MODEL::Node source file.">
<polygon fill="none" stroke="black" points="0,-112.5 0,-131.5 56,-131.5 56,-112.5 0,-112.5"/>
<text text-anchor="middle" x="28" y="-119.5" font-family="Helvetica,sans-Serif" font-size="10.00">node.hpp</text>
</a>
</g>
</g>
<!-- Node8&#45;&gt;Node16 -->
<g id="edge43" class="edge">
<title>Node8&#45;&gt;Node16</title>
<path fill="none" stroke="midnightblue" d="M183.66,-287.22C147.9,-283.39 100.63,-272.71 70,-244 41.03,-216.85 32.04,-168.7 29.25,-142.06"/>
<polygon fill="midnightblue" stroke="midnightblue" points="32.71,-141.45 28.38,-131.78 25.74,-142.04 32.71,-141.45"/>
</g>
<!-- Node18 -->
<g id="node18" class="node">
<title>Node18</title>
<g id="a_node18"><a xlink:href="dofhandler_8hpp.html" target="_top" xlink:title="MODEL::DOFHandler source file.">
<polygon fill="none" stroke="black" points="94,-56.5 94,-75.5 174,-75.5 174,-56.5 94,-56.5"/>
<text text-anchor="middle" x="134" y="-63.5" font-family="Helvetica,sans-Serif" font-size="10.00">dofhandler.hpp</text>
</a>
</g>
</g>
<!-- Node8&#45;&gt;Node18 -->
<g id="edge42" class="edge">
<title>Node8&#45;&gt;Node18</title>
<path fill="none" stroke="midnightblue" d="M189.98,-280.44C168.34,-273.96 143.5,-262.84 128,-244 90.11,-197.95 86.72,-169.07 104,-112 107.12,-101.7 113.45,-91.61 119.5,-83.6"/>
<polygon fill="midnightblue" stroke="midnightblue" points="122.23,-85.8 125.79,-75.82 116.78,-81.4 122.23,-85.8"/>
</g>
<!-- Node19 -->
<g id="node19" class="node">
<title>Node19</title>
<g id="a_node19"><a xlink:href="rcrblockwithdistalpressure_8hpp.html" target="_top" xlink:title="MODEL::RCRBlockWithDistalPressure source file.">
<polygon fill="none" stroke="black" points="338,-224.5 338,-243.5 486,-243.5 486,-224.5 338,-224.5"/>
<text text-anchor="middle" x="412" y="-231.5" font-family="Helvetica,sans-Serif" font-size="10.00">rcrblockwithdistalpressure.hpp</text>
</a>
</g>
</g>
<!-- Node8&#45;&gt;Node19 -->
<g id="edge29" class="edge">
<title>Node8&#45;&gt;Node19</title>
<path fill="none" stroke="midnightblue" d="M261.36,-280.44C291.74,-271.28 340.11,-256.69 373.82,-246.52"/>
<polygon fill="midnightblue" stroke="midnightblue" points="375.21,-249.76 383.77,-243.52 373.18,-243.05 375.21,-249.76"/>
</g>
<!-- Node20 -->
<g id="node20" class="node">
<title>Node20</title>
<g id="a_node20"><a xlink:href="flowreference_8hpp.html" target="_top" xlink:title="MODEL::FlowReference source file.">
<polygon fill="none" stroke="black" points="608,-224.5 608,-243.5 700,-243.5 700,-224.5 608,-224.5"/>
<text text-anchor="middle" x="654" y="-231.5" font-family="Helvetica,sans-Serif" font-size="10.00">flowreference.hpp</text>
</a>
</g>
</g>
<!-- Node8&#45;&gt;Node20 -->
<g id="edge33" class="edge">
<title>Node8&#45;&gt;Node20</title>
<path fill="none" stroke="midnightblue" d="M282.22,-283.58C350.64,-275.9 478.64,-261.04 597.78,-244.13"/>
<polygon fill="midnightblue" stroke="midnightblue" points="598.4,-247.57 607.81,-242.7 597.41,-240.64 598.4,-247.57"/>
</g>
<!-- Node12&#45;&gt;Node2 -->
<g id="edge27" class="edge">
<title>Node12&#45;&gt;Node2</title>
<path fill="none" stroke="midnightblue" d="M528.38,-224.39C512.65,-216.49 490.15,-203.64 474,-188 459.77,-174.21 447.74,-154.93 440.06,-140.95"/>
<polygon fill="midnightblue" stroke="midnightblue" points="443.03,-139.07 435.27,-131.86 436.84,-142.34 443.03,-139.07"/>
</g>
<!-- Node12&#45;&gt;Node4 -->
<g id="edge28" class="edge">
<title>Node12&#45;&gt;Node4</title>
<path fill="none" stroke="midnightblue" d="M536.19,-243.64C519.87,-256.52 487.81,-281.25 459,-300 441.58,-311.34 421.18,-322.92 405.48,-331.49"/>
<polygon fill="midnightblue" stroke="midnightblue" points="403.5,-328.58 396.37,-336.41 406.83,-334.73 403.5,-328.58"/>
</g>
<!-- Node13 -->
<g id="node13" class="node">
<title>Node13</title>
<g id="a_node13"><a xlink:title=" ">
<polygon fill="none" stroke="#bfbfbf" points="535,-112.5 535,-131.5 581,-131.5 581,-112.5 535,-112.5"/>
<text text-anchor="middle" x="558" y="-119.5" font-family="Helvetica,sans-Serif" font-size="10.00">math.h</text>
</a>
</g>
</g>
<!-- Node12&#45;&gt;Node13 -->
<g id="edge15" class="edge">
<title>Node12&#45;&gt;Node13</title>
<path fill="none" stroke="midnightblue" d="M547.86,-224.37C549.64,-206.62 553.73,-165.67 556.14,-141.6"/>
<polygon fill="midnightblue" stroke="midnightblue" points="559.63,-141.89 557.14,-131.59 552.66,-141.19 559.63,-141.89"/>
</g>
<!-- Node12&#45;&gt;Node14 -->
<g id="edge16" class="edge">
<title>Node12&#45;&gt;Node14</title>
<path fill="none" stroke="midnightblue" d="M503.88,-225.5C500.87,-224.99 497.89,-224.48 495,-224 409.18,-209.68 308.42,-193.69 254.24,-185.15"/>
<polygon fill="midnightblue" stroke="midnightblue" points="254.46,-181.65 244.04,-183.55 253.38,-188.56 254.46,-181.65"/>
</g>
<!-- Node14&#45;&gt;Node2 -->
<g id="edge25" class="edge">
<title>Node14&#45;&gt;Node2</title>
<path fill="none" stroke="midnightblue" d="M244.13,-169.72C280.8,-160.55 344.15,-144.71 386.81,-134.05"/>
<polygon fill="midnightblue" stroke="midnightblue" points="387.79,-137.41 396.64,-131.59 386.09,-130.62 387.79,-137.41"/>
</g>
<!-- Node14&#45;&gt;Node4 -->
<g id="edge26" class="edge">
<title>Node14&#45;&gt;Node4</title>
<path fill="none" stroke="midnightblue" d="M223.52,-187.57C249.69,-213.9 329.25,-293.94 363.75,-328.65"/>
<polygon fill="midnightblue" stroke="midnightblue" points="361.6,-331.45 371.13,-336.08 366.56,-326.52 361.6,-331.45"/>
</g>
<!-- Node14&#45;&gt;Node9 -->
<g id="edge18" class="edge">
<title>Node14&#45;&gt;Node9</title>
<path fill="none" stroke="midnightblue" d="M201.5,-168.32C188.4,-159.9 168.29,-146.97 152.89,-137.07"/>
<polygon fill="midnightblue" stroke="midnightblue" points="154.77,-134.12 144.46,-131.65 150.98,-140.01 154.77,-134.12"/>
</g>
<!-- Node15 -->
<g id="node15" class="node">
<title>Node15</title>
<g id="a_node15"><a xlink:title=" ">
<polygon fill="none" stroke="#bfbfbf" points="193,-0.5 193,-19.5 237,-19.5 237,-0.5 193,-0.5"/>
<text text-anchor="middle" x="215" y="-7.5" font-family="Helvetica,sans-Serif" font-size="10.00">vector</text>
</a>
</g>
</g>
<!-- Node14&#45;&gt;Node15 -->
<g id="edge17" class="edge">
<title>Node14&#45;&gt;Node15</title>
<path fill="none" stroke="midnightblue" d="M215,-168.08C215,-141.95 215,-65.21 215,-29.58"/>
<polygon fill="midnightblue" stroke="midnightblue" points="218.5,-29.57 215,-19.57 211.5,-29.57 218.5,-29.57"/>
</g>
<!-- Node14&#45;&gt;Node16 -->
<g id="edge19" class="edge">
<title>Node14&#45;&gt;Node16</title>
<path fill="none" stroke="midnightblue" d="M185.78,-168.56C153.53,-159.25 101.49,-144.22 66.07,-133.99"/>
<polygon fill="midnightblue" stroke="midnightblue" points="66.68,-130.53 56.1,-131.11 64.73,-137.25 66.68,-130.53"/>
</g>
<!-- Node14&#45;&gt;Node18 -->
<g id="edge24" class="edge">
<title>Node14&#45;&gt;Node18</title>
<path fill="none" stroke="midnightblue" d="M208.64,-168.37C195.22,-150.14 163.77,-107.43 146.28,-83.68"/>
<polygon fill="midnightblue" stroke="midnightblue" points="149.07,-81.57 140.33,-75.59 143.44,-85.72 149.07,-81.57"/>
</g>
<!-- Node17 -->
<g id="node17" class="node">
<title>Node17</title>
<g id="a_node17"><a xlink:title=" ">
<polygon fill="none" stroke="#bfbfbf" points="67.5,-0.5 67.5,-19.5 108.5,-19.5 108.5,-0.5 67.5,-0.5"/>
<text text-anchor="middle" x="88" y="-7.5" font-family="Helvetica,sans-Serif" font-size="10.00">string</text>
</a>
</g>
</g>
<!-- Node16&#45;&gt;Node17 -->
<g id="edge20" class="edge">
<title>Node16&#45;&gt;Node17</title>
<path fill="none" stroke="midnightblue" d="M32.71,-112.37C42.52,-94.38 65.34,-52.55 78.39,-28.63"/>
<polygon fill="midnightblue" stroke="midnightblue" points="81.6,-30.05 83.31,-19.59 75.45,-26.69 81.6,-30.05"/>
</g>
<!-- Node16&#45;&gt;Node18 -->
<g id="edge21" class="edge">
<title>Node16&#45;&gt;Node18</title>
<path fill="none" stroke="midnightblue" d="M45.03,-112.32C62.03,-103.66 88.38,-90.24 107.99,-80.25"/>
<polygon fill="midnightblue" stroke="midnightblue" points="109.69,-83.31 117.01,-75.65 106.51,-77.08 109.69,-83.31"/>
</g>
<!-- Node18&#45;&gt;Node15 -->
<g id="edge22" class="edge">
<title>Node18&#45;&gt;Node15</title>
<path fill="none" stroke="midnightblue" d="M147.01,-56.32C159.53,-47.98 178.68,-35.21 193.47,-25.35"/>
<polygon fill="midnightblue" stroke="midnightblue" points="195.64,-28.11 202.02,-19.65 191.76,-22.29 195.64,-28.11"/>
</g>
<!-- Node18&#45;&gt;Node17 -->
<g id="edge23" class="edge">
<title>Node18&#45;&gt;Node17</title>
<path fill="none" stroke="midnightblue" d="M126.4,-56.08C119.77,-48.3 109.98,-36.8 101.94,-27.37"/>
<polygon fill="midnightblue" stroke="midnightblue" points="104.6,-25.09 95.45,-19.75 99.27,-29.63 104.6,-25.09"/>
</g>
<!-- Node19&#45;&gt;Node2 -->
<g id="edge30" class="edge">
<title>Node19&#45;&gt;Node2</title>
<path fill="none" stroke="midnightblue" d="M413.49,-224.37C416.56,-206.62 423.63,-165.67 427.79,-141.6"/>
<polygon fill="midnightblue" stroke="midnightblue" points="431.26,-142.04 429.52,-131.59 424.36,-140.85 431.26,-142.04"/>
</g>
<!-- Node19&#45;&gt;Node4 -->
<g id="edge31" class="edge">
<title>Node19&#45;&gt;Node4</title>
<path fill="none" stroke="midnightblue" d="M398.94,-243.56C388.09,-251.53 373.43,-264.48 367,-280 360.74,-295.1 365.43,-313.45 370.85,-326.8"/>
<polygon fill="midnightblue" stroke="midnightblue" points="367.83,-328.62 375.15,-336.28 374.2,-325.72 367.83,-328.62"/>
</g>
<!-- Node19&#45;&gt;Node14 -->
<g id="edge32" class="edge">
<title>Node19&#45;&gt;Node14</title>
<path fill="none" stroke="midnightblue" d="M380.78,-224.44C346.47,-215.04 291.29,-199.91 254.12,-189.72"/>
<polygon fill="midnightblue" stroke="midnightblue" points="254.71,-186.26 244.14,-186.99 252.86,-193.01 254.71,-186.26"/>
</g>
<!-- Node20&#45;&gt;Node2 -->
<g id="edge34" class="edge">
<title>Node20&#45;&gt;Node2</title>
<path fill="none" stroke="midnightblue" d="M613.86,-224.49C584.52,-217.28 544.37,-205.33 512,-188 487.32,-174.79 462.79,-153.69 447.3,-139.14"/>
<polygon fill="midnightblue" stroke="midnightblue" points="449.31,-136.22 439.68,-131.82 444.46,-141.27 449.31,-136.22"/>
</g>
<!-- Node20&#45;&gt;Node4 -->
<g id="edge35" class="edge">
<title>Node20&#45;&gt;Node4</title>
<path fill="none" stroke="midnightblue" d="M630.65,-243.55C606.58,-252.43 568.03,-266.83 535,-280 511.3,-289.45 447.65,-316.32 409.69,-332.4"/>
<polygon fill="midnightblue" stroke="midnightblue" points="408.02,-329.31 400.18,-336.43 410.75,-335.75 408.02,-329.31"/>
</g>
<!-- Node20&#45;&gt;Node14 -->
<g id="edge36" class="edge">
<title>Node20&#45;&gt;Node14</title>
<path fill="none" stroke="midnightblue" d="M607.81,-225.29C604.83,-224.84 601.87,-224.4 599,-224 473.5,-206.39 324.24,-190.28 254.54,-183.03"/>
<polygon fill="midnightblue" stroke="midnightblue" points="254.75,-179.54 244.45,-181.99 254.03,-186.5 254.75,-179.54"/>
</g>
<!-- Node21 -->
<g id="node21" class="node">
<title>Node21</title>
<g id="a_node21"><a xlink:href="timedependentparameter_8hpp.html" target="_top" xlink:title="MODEL::TimeDependentParameter source file.">
<polygon fill="none" stroke="black" points="592,-168.5 592,-187.5 734,-187.5 734,-168.5 592,-168.5"/>
<text text-anchor="middle" x="663" y="-175.5" font-family="Helvetica,sans-Serif" font-size="10.00">timedependentparameter.hpp</text>
</a>
</g>
</g>
<!-- Node20&#45;&gt;Node21 -->
<g id="edge37" class="edge">
<title>Node20&#45;&gt;Node21</title>
<path fill="none" stroke="midnightblue" d="M655.49,-224.08C656.68,-216.93 658.39,-206.64 659.88,-197.69"/>
<polygon fill="midnightblue" stroke="midnightblue" points="663.35,-198.19 661.54,-187.75 656.45,-197.04 663.35,-198.19"/>
</g>
<!-- Node21&#45;&gt;Node13 -->
<g id="edge38" class="edge">
<title>Node21&#45;&gt;Node13</title>
<path fill="none" stroke="midnightblue" d="M646.13,-168.32C629.29,-159.66 603.19,-146.24 583.76,-136.25"/>
<polygon fill="midnightblue" stroke="midnightblue" points="585.32,-133.12 574.83,-131.65 582.12,-139.34 585.32,-133.12"/>
</g>
<!-- Node21&#45;&gt;Node15 -->
<g id="edge39" class="edge">
<title>Node21&#45;&gt;Node15</title>
<path fill="none" stroke="midnightblue" d="M673.68,-168.46C688.6,-155.49 712.34,-130.4 698,-112 642.06,-40.19 346.17,-18 247.24,-12.54"/>
<polygon fill="midnightblue" stroke="midnightblue" points="247.41,-9.04 237.24,-12 247.03,-16.03 247.41,-9.04"/>
</g>
<!-- Node21&#45;&gt;Node18 -->
<g id="edge41" class="edge">
<title>Node21&#45;&gt;Node18</title>
<path fill="none" stroke="midnightblue" d="M656.47,-168.39C644.89,-153.86 619.22,-124.8 590,-112 518.32,-80.6 287.49,-70.88 184.46,-68.07"/>
<polygon fill="midnightblue" stroke="midnightblue" points="184.4,-64.57 174.31,-67.8 184.22,-71.56 184.4,-64.57"/>
</g>
<!-- Node22 -->
<g id="node22" class="node">
<title>Node22</title>
<g id="a_node22"><a xlink:title=" ">
<polygon fill="none" stroke="#bfbfbf" points="637.5,-112.5 637.5,-131.5 688.5,-131.5 688.5,-112.5 637.5,-112.5"/>
<text text-anchor="middle" x="663" y="-119.5" font-family="Helvetica,sans-Serif" font-size="10.00">numeric</text>
</a>
</g>
</g>
<!-- Node21&#45;&gt;Node22 -->
<g id="edge40" class="edge">
<title>Node21&#45;&gt;Node22</title>
<path fill="none" stroke="midnightblue" d="M663,-168.08C663,-161.01 663,-150.86 663,-141.99"/>
<polygon fill="midnightblue" stroke="midnightblue" points="666.5,-141.75 663,-131.75 659.5,-141.75 666.5,-141.75"/>
</g>
</g>
</svg>
