<?xml version="1.0" encoding="UTF-8" standalone="no"?>
<!DOCTYPE svg PUBLIC "-//W3C//DTD SVG 1.1//EN"
 "http://www.w3.org/Graphics/SVG/1.1/DTD/svg11.dtd">
<!-- Generated by graphviz version 7.0.5 (20221223.1930)
 -->
<!-- Title: optimize/levenbergmarquardtoptimizer.hpp Pages: 1 -->
<svg width="2166pt" height="412pt"
 viewBox="0.00 0.00 2165.50 412.00" xmlns="http://www.w3.org/2000/svg" xmlns:xlink="http://www.w3.org/1999/xlink">
<g id="graph0" class="graph" transform="scale(1 1) rotate(0) translate(4 408)">
<title>optimize/levenbergmarquardtoptimizer.hpp</title>
<!-- Node1 -->
<g id="node1" class="node">
<title>Node1</title>
<g id="a_node1"><a xlink:title="OPT::LevenbergMarquardtOptimizer source file.">
<polygon fill="#999999" stroke="#666666" points="198.5,-404 0.5,-404 0.5,-385 198.5,-385 198.5,-404"/>
<text text-anchor="middle" x="99.5" y="-392" font-family="Helvetica,sans-Serif" font-size="10.00">optimize/levenbergmarquardtoptimizer.hpp</text>
</a>
</g>
</g>
<!-- Node2 -->
<g id="node2" class="node">
<title>Node2</title>
<g id="a_node2"><a xlink:title=" ">
<polygon fill="#e0e0e0" stroke="#999999" points="71,-349 0,-349 0,-330 71,-330 71,-349"/>
<text text-anchor="middle" x="35.5" y="-337" font-family="Helvetica,sans-Serif" font-size="10.00">Eigen/Dense</text>
</a>
</g>
</g>
<!-- Node1&#45;&gt;Node2 -->
<g id="edge1" class="edge">
<title>Node1&#45;&gt;Node2</title>
<path fill="none" stroke="#63b8ff" d="M88.64,-384.51C79.39,-376.85 65.88,-365.66 54.79,-356.47"/>
<polygon fill="#63b8ff" stroke="#63b8ff" points="57.3,-354.01 47.36,-350.32 52.83,-359.4 57.3,-354.01"/>
</g>
<!-- Node3 -->
<g id="node3" class="node">
<title>Node3</title>
<g id="a_node3"><a xlink:title=" ">
<polygon fill="#e0e0e0" stroke="#999999" points="1161.5,-74 1087.5,-74 1087.5,-55 1161.5,-55 1161.5,-74"/>
<text text-anchor="middle" x="1124.5" y="-62" font-family="Helvetica,sans-Serif" font-size="10.00">Eigen/Sparse</text>
</a>
</g>
</g>
<!-- Node1&#45;&gt;Node3 -->
<g id="edge2" class="edge">
<title>Node1&#45;&gt;Node3</title>
<path fill="none" stroke="#63b8ff" d="M99.5,-384.54C99.5,-366.03 99.5,-322.25 99.5,-285.5 99.5,-285.5 99.5,-285.5 99.5,-173.5 99.5,-74.1 871.7,-65.89 1075.61,-65.45"/>
<polygon fill="#63b8ff" stroke="#63b8ff" points="1075.6,-68.95 1085.6,-65.44 1075.59,-61.95 1075.6,-68.95"/>
</g>
<!-- Node4 -->
<g id="node4" class="node">
<title>Node4</title>
<g id="a_node4"><a xlink:href="model_8hpp.html" target="_top" xlink:title="MODEL::Model source file.">
<polygon fill="white" stroke="#666666" points="1156.5,-349 1066.5,-349 1066.5,-330 1156.5,-330 1156.5,-349"/>
<text text-anchor="middle" x="1111.5" y="-337" font-family="Helvetica,sans-Serif" font-size="10.00">model/model.hpp</text>
</a>
</g>
</g>
<!-- Node1&#45;&gt;Node4 -->
<g id="edge3" class="edge">
<title>Node1&#45;&gt;Node4</title>
<path fill="none" stroke="#63b8ff" d="M198.84,-388.3C408.33,-377.33 889.65,-352.12 1054.72,-343.47"/>
<polygon fill="#63b8ff" stroke="#63b8ff" points="1054.74,-346.98 1064.54,-342.96 1054.37,-339.99 1054.74,-346.98"/>
</g>
<!-- Node5 -->
<g id="node5" class="node">
<title>Node5</title>
<g id="a_node5"><a xlink:title=" ">
<polygon fill="#e0e0e0" stroke="#999999" points="993.5,-294 937.5,-294 937.5,-275 993.5,-275 993.5,-294"/>
<text text-anchor="middle" x="965.5" y="-282" font-family="Helvetica,sans-Serif" font-size="10.00">algorithm</text>
</a>
</g>
</g>
<!-- Node4&#45;&gt;Node5 -->
<g id="edge4" class="edge">
<title>Node4&#45;&gt;Node5</title>
<path fill="none" stroke="#63b8ff" d="M1086.73,-329.51C1063.1,-320.93 1027.26,-307.92 1000.67,-298.27"/>
<polygon fill="#63b8ff" stroke="#63b8ff" points="1001.92,-295 991.32,-294.87 999.53,-301.58 1001.92,-295"/>
</g>
<!-- Node6 -->
<g id="node6" class="node">
<title>Node6</title>
<g id="a_node6"><a xlink:title=" ">
<polygon fill="#e0e0e0" stroke="#999999" points="1041,-294 1012,-294 1012,-275 1041,-275 1041,-294"/>
<text text-anchor="middle" x="1026.5" y="-282" font-family="Helvetica,sans-Serif" font-size="10.00">list</text>
</a>
</g>
</g>
<!-- Node4&#45;&gt;Node6 -->
<g id="edge5" class="edge">
<title>Node4&#45;&gt;Node6</title>
<path fill="none" stroke="#63b8ff" d="M1097.08,-329.51C1084.3,-321.54 1065.4,-309.75 1050.37,-300.38"/>
<polygon fill="#63b8ff" stroke="#63b8ff" points="1052.33,-297.48 1041.99,-295.16 1048.62,-303.42 1052.33,-297.48"/>
</g>
<!-- Node7 -->
<g id="node7" class="node">
<title>Node7</title>
<g id="a_node7"><a xlink:title=" ">
<polygon fill="#e0e0e0" stroke="#999999" points="1110,-294 1059,-294 1059,-275 1110,-275 1110,-294"/>
<text text-anchor="middle" x="1084.5" y="-282" font-family="Helvetica,sans-Serif" font-size="10.00">memory</text>
</a>
</g>
</g>
<!-- Node4&#45;&gt;Node7 -->
<g id="edge6" class="edge">
<title>Node4&#45;&gt;Node7</title>
<path fill="none" stroke="#63b8ff" d="M1107.04,-329.75C1103.55,-322.88 1098.55,-313.08 1094.15,-304.45"/>
<polygon fill="#63b8ff" stroke="#63b8ff" points="1097.4,-303.11 1089.74,-295.79 1091.16,-306.29 1097.4,-303.11"/>
</g>
<!-- Node8 -->
<g id="node8" class="node">
<title>Node8</title>
<g id="a_node8"><a xlink:title=" ">
<polygon fill="#e0e0e0" stroke="#999999" points="1275.5,-19 1231.5,-19 1231.5,0 1275.5,0 1275.5,-19"/>
<text text-anchor="middle" x="1253.5" y="-7" font-family="Helvetica,sans-Serif" font-size="10.00">vector</text>
</a>
</g>
</g>
<!-- Node4&#45;&gt;Node8 -->
<g id="edge7" class="edge">
<title>Node4&#45;&gt;Node8</title>
<path fill="none" stroke="#63b8ff" d="M1156.78,-338.65C1357.55,-338.74 2157.5,-332.68 2157.5,-230.5 2157.5,-230.5 2157.5,-230.5 2157.5,-118.5 2157.5,-73.78 1450.86,-23.72 1287.1,-12.71"/>
<polygon fill="#63b8ff" stroke="#63b8ff" points="1287.57,-9.24 1277.36,-12.06 1287.1,-16.22 1287.57,-9.24"/>
</g>
<!-- Node9 -->
<g id="node9" class="node">
<title>Node9</title>
<g id="a_node9"><a xlink:href="sparsesystem_8hpp.html" target="_top" xlink:title="ALGEBRA::SparseSystem source file.">
<polygon fill="white" stroke="#666666" points="1453,-129 1316,-129 1316,-110 1453,-110 1453,-129"/>
<text text-anchor="middle" x="1384.5" y="-117" font-family="Helvetica,sans-Serif" font-size="10.00">../algebra/sparsesystem.hpp</text>
</a>
</g>
</g>
<!-- Node4&#45;&gt;Node9 -->
<g id="edge8" class="edge">
<title>Node4&#45;&gt;Node9</title>
<path fill="none" stroke="#63b8ff" d="M1156.71,-337.15C1294.85,-332.97 1709.37,-319 1842.5,-294 1920.96,-279.27 1966.48,-303.52 2013.5,-239 2070.71,-160.5 2135.18,-225.78 1866.5,-165 1690.65,-125.22 1639.08,-146.04 1465.13,-130.1"/>
<polygon fill="#63b8ff" stroke="#63b8ff" points="1465.56,-126.63 1455.28,-129.17 1464.9,-133.6 1465.56,-126.63"/>
</g>
<!-- Node12 -->
<g id="node12" class="node">
<title>Node12</title>
<g id="a_node12"><a xlink:href="bloodvessel_8hpp.html" target="_top" xlink:title="MODEL::BloodVessel source file.">
<polygon fill="white" stroke="#666666" points="1117,-239 994,-239 994,-220 1117,-220 1117,-239"/>
<text text-anchor="middle" x="1055.5" y="-227" font-family="Helvetica,sans-Serif" font-size="10.00">../model/bloodvessel.hpp</text>
</a>
</g>
</g>
<!-- Node4&#45;&gt;Node12 -->
<g id="edge13" class="edge">
<title>Node4&#45;&gt;Node12</title>
<path fill="none" stroke="#63b8ff" d="M1115.65,-329.72C1121.05,-316.92 1128.76,-292.73 1119.5,-275 1112.69,-261.98 1100.14,-251.99 1087.95,-244.82"/>
<polygon fill="#63b8ff" stroke="#63b8ff" points="1089.73,-241.8 1079.26,-240.16 1086.42,-247.97 1089.73,-241.8"/>
</g>
<!-- Node14 -->
<g id="node14" class="node">
<title>Node14</title>
<g id="a_node14"><a xlink:href="block_8hpp.html" target="_top" xlink:title="MODEL::Block source file.">
<polygon fill="white" stroke="#666666" points="1273.5,-184 1215.5,-184 1215.5,-165 1273.5,-165 1273.5,-184"/>
<text text-anchor="middle" x="1244.5" y="-172" font-family="Helvetica,sans-Serif" font-size="10.00">block.hpp</text>
</a>
</g>
</g>
<!-- Node4&#45;&gt;Node14 -->
<g id="edge74" class="edge">
<title>Node4&#45;&gt;Node14</title>
<path fill="none" stroke="#63b8ff" d="M1066.32,-338.59C1023.99,-336.44 961.04,-327.24 918.5,-294 890.79,-272.35 867.24,-246.37 890.5,-220 900.79,-208.33 1113.03,-187.56 1203.85,-179.17"/>
<polygon fill="#63b8ff" stroke="#63b8ff" points="1203.92,-182.68 1213.56,-178.28 1203.28,-175.71 1203.92,-182.68"/>
</g>
<!-- Node17 -->
<g id="node17" class="node">
<title>Node17</title>
<g id="a_node17"><a xlink:href="dofhandler_8hpp.html" target="_top" xlink:title="MODEL::DOFHandler source file.">
<polygon fill="white" stroke="#666666" points="1259.5,-74 1179.5,-74 1179.5,-55 1259.5,-55 1259.5,-74"/>
<text text-anchor="middle" x="1219.5" y="-62" font-family="Helvetica,sans-Serif" font-size="10.00">dofhandler.hpp</text>
</a>
</g>
</g>
<!-- Node4&#45;&gt;Node17 -->
<g id="edge76" class="edge">
<title>Node4&#45;&gt;Node17</title>
<path fill="none" stroke="#63b8ff" d="M1066.15,-338.3C874.09,-336.87 137.5,-325.19 137.5,-230.5 137.5,-230.5 137.5,-230.5 137.5,-173.5 137.5,-119.7 1041.47,-83.36 1167.74,-73.87"/>
<polygon fill="#63b8ff" stroke="#63b8ff" points="1168.02,-77.36 1177.67,-72.98 1167.39,-70.39 1168.02,-77.36"/>
</g>
<!-- Node19 -->
<g id="node19" class="node">
<title>Node19</title>
<g id="a_node19"><a xlink:href="node_8hpp.html" target="_top" xlink:title="MODEL::Node source file.">
<polygon fill="white" stroke="#666666" points="1643.5,-129 1587.5,-129 1587.5,-110 1643.5,-110 1643.5,-129"/>
<text text-anchor="middle" x="1615.5" y="-117" font-family="Helvetica,sans-Serif" font-size="10.00">node.hpp</text>
</a>
</g>
</g>
<!-- Node4&#45;&gt;Node19 -->
<g id="edge77" class="edge">
<title>Node4&#45;&gt;Node19</title>
<path fill="none" stroke="#63b8ff" d="M1156.82,-338.4C1307.24,-337.71 1788.8,-332.49 1938.5,-294 1992.98,-279.99 2022.59,-286.64 2052.5,-239 2091.89,-176.25 2043.77,-196.14 1943.5,-165 1842.7,-133.7 1717.71,-124.41 1655.12,-121.65"/>
<polygon fill="#63b8ff" stroke="#63b8ff" points="1655.47,-118.17 1645.33,-121.26 1655.18,-125.16 1655.47,-118.17"/>
</g>
<!-- Node20 -->
<g id="node20" class="node">
<title>Node20</title>
<g id="a_node20"><a xlink:href="bloodvesseljunction_8hpp.html" target="_top" xlink:title="MODEL::BloodVesselJunction source file.">
<polygon fill="white" stroke="#666666" points="1324,-294 1167,-294 1167,-275 1324,-275 1324,-294"/>
<text text-anchor="middle" x="1245.5" y="-282" font-family="Helvetica,sans-Serif" font-size="10.00">../model/bloodvesseljunction.hpp</text>
</a>
</g>
</g>
<!-- Node4&#45;&gt;Node20 -->
<g id="edge28" class="edge">
<title>Node4&#45;&gt;Node20</title>
<path fill="none" stroke="#63b8ff" d="M1134.23,-329.51C1155.73,-321.01 1188.23,-308.15 1212.57,-298.53"/>
<polygon fill="#63b8ff" stroke="#63b8ff" points="1213.69,-301.85 1221.7,-294.91 1211.11,-295.34 1213.69,-301.85"/>
</g>
<!-- Node21 -->
<g id="node21" class="node">
<title>Node21</title>
<g id="a_node21"><a xlink:href="blocktype_8hpp.html" target="_top" xlink:title="MODEL::BlockType source file.">
<polygon fill="white" stroke="#666666" points="975.5,-239 899.5,-239 899.5,-220 975.5,-220 975.5,-239"/>
<text text-anchor="middle" x="937.5" y="-227" font-family="Helvetica,sans-Serif" font-size="10.00">blocktype.hpp</text>
</a>
</g>
</g>
<!-- Node4&#45;&gt;Node21 -->
<g id="edge75" class="edge">
<title>Node4&#45;&gt;Node21</title>
<path fill="none" stroke="#63b8ff" d="M1066.21,-333.83C1017.67,-327.79 945.32,-315.4 928.5,-294 918.72,-281.55 922.58,-263.34 927.94,-249.61"/>
<polygon fill="#63b8ff" stroke="#63b8ff" points="931.03,-251.29 931.92,-240.74 924.64,-248.43 931.03,-251.29"/>
</g>
<!-- Node22 -->
<g id="node22" class="node">
<title>Node22</title>
<g id="a_node22"><a xlink:href="closedloop_r_c_rbc_8hpp.html" target="_top" xlink:title="MODEL::ClosedLoopRCRBC source file.">
<polygon fill="white" stroke="#666666" points="1632,-239 1483,-239 1483,-220 1632,-220 1632,-239"/>
<text text-anchor="middle" x="1557.5" y="-227" font-family="Helvetica,sans-Serif" font-size="10.00">../model/closedloopRCRbc.hpp</text>
</a>
</g>
</g>
<!-- Node4&#45;&gt;Node22 -->
<g id="edge33" class="edge">
<title>Node4&#45;&gt;Node22</title>
<path fill="none" stroke="#63b8ff" d="M1156.94,-333.08C1209.57,-326.28 1298.63,-313.14 1373.5,-294 1427.65,-280.16 1488.63,-257.7 1525.02,-243.53"/>
<polygon fill="#63b8ff" stroke="#63b8ff" points="1526.05,-246.89 1534.07,-239.97 1523.49,-240.37 1526.05,-246.89"/>
</g>
<!-- Node23 -->
<g id="node23" class="node">
<title>Node23</title>
<g id="a_node23"><a xlink:href="closedloopcoronarybc_8hpp.html" target="_top" xlink:title="MODEL::ClosedLoopCoronaryBC source file.">
<polygon fill="white" stroke="#666666" points="1809,-294 1644,-294 1644,-275 1809,-275 1809,-294"/>
<text text-anchor="middle" x="1726.5" y="-282" font-family="Helvetica,sans-Serif" font-size="10.00">../model/closedloopcoronarybc.hpp</text>
</a>
</g>
</g>
<!-- Node4&#45;&gt;Node23 -->
<g id="edge36" class="edge">
<title>Node4&#45;&gt;Node23</title>
<path fill="none" stroke="#63b8ff" d="M1156.97,-334.58C1257.01,-325.96 1497.95,-305.2 1632.18,-293.63"/>
<polygon fill="#63b8ff" stroke="#63b8ff" points="1632.46,-297.12 1642.13,-292.77 1631.86,-290.14 1632.46,-297.12"/>
</g>
<!-- Node24 -->
<g id="node24" class="node">
<title>Node24</title>
<g id="a_node24"><a xlink:href="closedloopheartpulmonary_8hpp.html" target="_top" xlink:title="MODEL::ClosedLoopHeartPulmonary source file.">
<polygon fill="white" stroke="#666666" points="1997,-239 1850,-239 1850,-220 1997,-220 1997,-239"/>
<text text-anchor="middle" x="1923.5" y="-227" font-family="Helvetica,sans-Serif" font-size="10.00">closedloopheartpulmonary.hpp</text>
</a>
</g>
</g>
<!-- Node4&#45;&gt;Node24 -->
<g id="edge44" class="edge">
<title>Node4&#45;&gt;Node24</title>
<path fill="none" stroke="#63b8ff" d="M1156.91,-338.46C1292.78,-337.88 1694.38,-332.86 1818.5,-294 1850.85,-283.87 1883.55,-261.8 1903.67,-246.55"/>
<polygon fill="#63b8ff" stroke="#63b8ff" points="1905.79,-249.33 1911.53,-240.42 1901.49,-243.81 1905.79,-249.33"/>
</g>
<!-- Node25 -->
<g id="node25" class="node">
<title>Node25</title>
<g id="a_node25"><a xlink:href="flowreferencebc_8hpp.html" target="_top" xlink:title="MODEL::FlowReferenceBC source file.">
<polygon fill="white" stroke="#666666" points="697.5,-239 557.5,-239 557.5,-220 697.5,-220 697.5,-239"/>
<text text-anchor="middle" x="627.5" y="-227" font-family="Helvetica,sans-Serif" font-size="10.00">../model/flowreferencebc.hpp</text>
</a>
</g>
</g>
<!-- Node4&#45;&gt;Node25 -->
<g id="edge45" class="edge">
<title>Node4&#45;&gt;Node25</title>
<path fill="none" stroke="#63b8ff" d="M1066.17,-333.77C1009.07,-327.29 908.16,-314.12 823.5,-294 765.7,-280.26 700.39,-257.62 661.65,-243.41"/>
<polygon fill="#63b8ff" stroke="#63b8ff" points="663,-240.18 652.41,-239.99 660.57,-246.74 663,-240.18"/>
</g>
<!-- Node26 -->
<g id="node26" class="node">
<title>Node26</title>
<g id="a_node26"><a xlink:href="parameter_8hpp.html" target="_top" xlink:title="MODEL::Parameter source file.">
<polygon fill="white" stroke="#666666" points="694.5,-184 616.5,-184 616.5,-165 694.5,-165 694.5,-184"/>
<text text-anchor="middle" x="655.5" y="-172" font-family="Helvetica,sans-Serif" font-size="10.00">parameter.hpp</text>
</a>
</g>
</g>
<!-- Node4&#45;&gt;Node26 -->
<g id="edge78" class="edge">
<title>Node4&#45;&gt;Node26</title>
<path fill="none" stroke="#63b8ff" d="M1066.18,-337.15C889.2,-331.43 251.54,-306.24 194.5,-239 189.04,-232.56 188.82,-226.25 194.5,-220 221.71,-190.04 491.26,-179.68 605.14,-176.62"/>
<polygon fill="#63b8ff" stroke="#63b8ff" points="604.89,-180.13 614.79,-176.37 604.7,-173.13 604.89,-180.13"/>
</g>
<!-- Node28 -->
<g id="node28" class="node">
<title>Node28</title>
<g id="a_node28"><a xlink:href="junction_8hpp.html" target="_top" xlink:title="MODEL::Junction source file.">
<polygon fill="white" stroke="#666666" points="1832,-239 1727,-239 1727,-220 1832,-220 1832,-239"/>
<text text-anchor="middle" x="1779.5" y="-227" font-family="Helvetica,sans-Serif" font-size="10.00">../model/junction.hpp</text>
</a>
</g>
</g>
<!-- Node4&#45;&gt;Node28 -->
<g id="edge53" class="edge">
<title>Node4&#45;&gt;Node28</title>
<path fill="none" stroke="#63b8ff" d="M1156.93,-332.32C1216.74,-324.08 1325.14,-308.81 1417.5,-294 1524.25,-276.88 1648.27,-254.61 1719.94,-241.5"/>
<polygon fill="#63b8ff" stroke="#63b8ff" points="1720.28,-244.99 1729.49,-239.75 1719.02,-238.11 1720.28,-244.99"/>
</g>
<!-- Node29 -->
<g id="node29" class="node">
<title>Node29</title>
<g id="a_node29"><a xlink:href="openloopcoronarybc_8hpp.html" target="_top" xlink:title="MODEL::OpenLoopCoronaryBC source file.">
<polygon fill="white" stroke="#666666" points="539.5,-239 381.5,-239 381.5,-220 539.5,-220 539.5,-239"/>
<text text-anchor="middle" x="460.5" y="-227" font-family="Helvetica,sans-Serif" font-size="10.00">../model/openloopcoronarybc.hpp</text>
</a>
</g>
</g>
<!-- Node4&#45;&gt;Node29 -->
<g id="edge56" class="edge">
<title>Node4&#45;&gt;Node29</title>
<path fill="none" stroke="#63b8ff" d="M1066.23,-334.16C998.27,-327.35 865.95,-312.94 754.5,-294 666.9,-279.11 565.87,-255.96 507.96,-242.11"/>
<polygon fill="#63b8ff" stroke="#63b8ff" points="508.98,-238.76 498.44,-239.82 507.34,-245.56 508.98,-238.76"/>
</g>
<!-- Node30 -->
<g id="node30" class="node">
<title>Node30</title>
<g id="a_node30"><a xlink:href="pressurereferencebc_8hpp.html" target="_top" xlink:title="MODEL::PressureReferenceBC source file.">
<polygon fill="white" stroke="#666666" points="363.5,-239 203.5,-239 203.5,-220 363.5,-220 363.5,-239"/>
<text text-anchor="middle" x="283.5" y="-227" font-family="Helvetica,sans-Serif" font-size="10.00">../model/pressurereferencebc.hpp</text>
</a>
</g>
</g>
<!-- Node4&#45;&gt;Node30 -->
<g id="edge60" class="edge">
<title>Node4&#45;&gt;Node30</title>
<path fill="none" stroke="#63b8ff" d="M1066.19,-335.2C983.83,-328.96 804.14,-314.22 653.5,-294 542.06,-279.04 412.78,-255.41 340.32,-241.58"/>
<polygon fill="#63b8ff" stroke="#63b8ff" points="341.16,-238.18 330.68,-239.73 339.84,-245.05 341.16,-238.18"/>
</g>
<!-- Node31 -->
<g id="node31" class="node">
<title>Node31</title>
<g id="a_node31"><a xlink:href="resistancebc_8hpp.html" target="_top" xlink:title="MODEL::ResistanceBC source file.">
<polygon fill="white" stroke="#666666" points="843,-239 716,-239 716,-220 843,-220 843,-239"/>
<text text-anchor="middle" x="779.5" y="-227" font-family="Helvetica,sans-Serif" font-size="10.00">../model/resistancebc.hpp</text>
</a>
</g>
</g>
<!-- Node4&#45;&gt;Node31 -->
<g id="edge64" class="edge">
<title>Node4&#45;&gt;Node31</title>
<path fill="none" stroke="#63b8ff" d="M1066.35,-337.41C1013.92,-334.64 925.92,-325.24 857.5,-294 833.03,-282.83 809.77,-262.11 795.12,-247.38"/>
<polygon fill="#63b8ff" stroke="#63b8ff" points="797.68,-244.99 788.23,-240.21 792.64,-249.85 797.68,-244.99"/>
</g>
<!-- Node32 -->
<g id="node32" class="node">
<title>Node32</title>
<g id="a_node32"><a xlink:href="resistivejunction_8hpp.html" target="_top" xlink:title="MODEL::ResistiveJunction source file.">
<polygon fill="white" stroke="#666666" points="1315.5,-239 1173.5,-239 1173.5,-220 1315.5,-220 1315.5,-239"/>
<text text-anchor="middle" x="1244.5" y="-227" font-family="Helvetica,sans-Serif" font-size="10.00">../model/resistivejunction.hpp</text>
</a>
</g>
</g>
<!-- Node4&#45;&gt;Node32 -->
<g id="edge68" class="edge">
<title>Node4&#45;&gt;Node32</title>
<path fill="none" stroke="#63b8ff" d="M1156.57,-336.02C1214.87,-331.76 1311.58,-320.76 1333.5,-294 1351.36,-272.2 1318.56,-254.32 1287.86,-243.16"/>
<polygon fill="#63b8ff" stroke="#63b8ff" points="1289.2,-239.92 1278.6,-239.98 1286.93,-246.54 1289.2,-239.92"/>
</g>
<!-- Node33 -->
<g id="node33" class="node">
<title>Node33</title>
<g id="a_node33"><a xlink:href="windkesselbc_8hpp.html" target="_top" xlink:title="MODEL::WindkesselBC source file.">
<polygon fill="white" stroke="#666666" points="1465,-239 1334,-239 1334,-220 1465,-220 1465,-239"/>
<text text-anchor="middle" x="1399.5" y="-227" font-family="Helvetica,sans-Serif" font-size="10.00">../model/windkesselbc.hpp</text>
</a>
</g>
</g>
<!-- Node4&#45;&gt;Node33 -->
<g id="edge71" class="edge">
<title>Node4&#45;&gt;Node33</title>
<path fill="none" stroke="#63b8ff" d="M1156.93,-339.27C1207.46,-338.12 1289.81,-330.13 1349.5,-294 1367.29,-283.23 1381.24,-263.65 1389.84,-249.06"/>
<polygon fill="#63b8ff" stroke="#63b8ff" points="1392.83,-250.88 1394.6,-240.44 1386.7,-247.5 1392.83,-250.88"/>
</g>
<!-- Node9&#45;&gt;Node3 -->
<g id="edge9" class="edge">
<title>Node9&#45;&gt;Node3</title>
<path fill="none" stroke="#63b8ff" d="M1340.39,-109.51C1293.85,-100.02 1220.72,-85.11 1172.69,-75.32"/>
<polygon fill="#63b8ff" stroke="#63b8ff" points="1173.63,-71.94 1163.13,-73.38 1172.23,-78.8 1173.63,-71.94"/>
</g>
<!-- Node9&#45;&gt;Node4 -->
<g id="edge12" class="edge">
<title>Node9&#45;&gt;Node4</title>
<path fill="none" stroke="#63b8ff" d="M1453.49,-127.17C1459.6,-127.81 1465.67,-128.43 1471.5,-129 1654.87,-146.98 1704.79,-124.34 1884.5,-165 2153.18,-225.78 2088.71,-160.5 2031.5,-239 1984.48,-303.52 1938.96,-279.27 1860.5,-294 1728.28,-318.83 1318.53,-332.78 1167.79,-337.06"/>
<polygon fill="#63b8ff" stroke="#63b8ff" points="1167.96,-333.56 1158.06,-337.34 1168.15,-340.56 1167.96,-333.56"/>
</g>
<!-- Node10 -->
<g id="node10" class="node">
<title>Node10</title>
<g id="a_node10"><a xlink:title=" ">
<polygon fill="#e0e0e0" stroke="#999999" points="1416.5,-74 1328.5,-74 1328.5,-55 1416.5,-55 1416.5,-74"/>
<text text-anchor="middle" x="1372.5" y="-62" font-family="Helvetica,sans-Serif" font-size="10.00">Eigen/SparseLU</text>
</a>
</g>
</g>
<!-- Node9&#45;&gt;Node10 -->
<g id="edge10" class="edge">
<title>Node9&#45;&gt;Node10</title>
<path fill="none" stroke="#63b8ff" d="M1382.52,-109.75C1381.03,-103.19 1378.94,-93.95 1377.05,-85.6"/>
<polygon fill="#63b8ff" stroke="#63b8ff" points="1380.48,-84.9 1374.86,-75.92 1373.65,-86.44 1380.48,-84.9"/>
</g>
<!-- Node11 -->
<g id="node11" class="node">
<title>Node11</title>
<g id="a_node11"><a xlink:title=" ">
<polygon fill="#e0e0e0" stroke="#999999" points="1488.5,-74 1434.5,-74 1434.5,-55 1488.5,-55 1488.5,-74"/>
<text text-anchor="middle" x="1461.5" y="-62" font-family="Helvetica,sans-Serif" font-size="10.00">iostream</text>
</a>
</g>
</g>
<!-- Node9&#45;&gt;Node11 -->
<g id="edge11" class="edge">
<title>Node9&#45;&gt;Node11</title>
<path fill="none" stroke="#63b8ff" d="M1397.56,-109.51C1409.02,-101.62 1425.93,-89.98 1439.48,-80.65"/>
<polygon fill="#63b8ff" stroke="#63b8ff" points="1441.13,-83.77 1447.38,-75.22 1437.16,-78 1441.13,-83.77"/>
</g>
<!-- Node12&#45;&gt;Node9 -->
<g id="edge15" class="edge">
<title>Node12&#45;&gt;Node9</title>
<path fill="none" stroke="#63b8ff" d="M1074.21,-219.53C1102.4,-206.27 1157.66,-181.27 1206.5,-165 1247.13,-151.47 1294.18,-139.87 1329.7,-131.92"/>
<polygon fill="#63b8ff" stroke="#63b8ff" points="1330.32,-135.36 1339.33,-129.79 1328.81,-128.53 1330.32,-135.36"/>
</g>
<!-- Node13 -->
<g id="node13" class="node">
<title>Node13</title>
<g id="a_node13"><a xlink:title=" ">
<polygon fill="#e0e0e0" stroke="#999999" points="1031.5,-129 985.5,-129 985.5,-110 1031.5,-110 1031.5,-129"/>
<text text-anchor="middle" x="1008.5" y="-117" font-family="Helvetica,sans-Serif" font-size="10.00">math.h</text>
</a>
</g>
</g>
<!-- Node12&#45;&gt;Node13 -->
<g id="edge14" class="edge">
<title>Node12&#45;&gt;Node13</title>
<path fill="none" stroke="#63b8ff" d="M1051.65,-219.66C1044.11,-202.34 1027.23,-163.55 1016.96,-139.95"/>
<polygon fill="#63b8ff" stroke="#63b8ff" points="1020.2,-138.62 1013,-130.85 1013.78,-141.41 1020.2,-138.62"/>
</g>
<!-- Node12&#45;&gt;Node14 -->
<g id="edge16" class="edge">
<title>Node12&#45;&gt;Node14</title>
<path fill="none" stroke="#63b8ff" d="M1087.56,-219.51C1119.78,-210.48 1169.52,-196.53 1204.34,-186.76"/>
<polygon fill="#63b8ff" stroke="#63b8ff" points="1204.94,-190.23 1213.63,-184.16 1203.05,-183.49 1204.94,-190.23"/>
</g>
<!-- Node14&#45;&gt;Node8 -->
<g id="edge18" class="edge">
<title>Node14&#45;&gt;Node8</title>
<path fill="none" stroke="#63b8ff" d="M1248.55,-164.62C1257.01,-144.96 1275.26,-96.22 1268.5,-55 1267.13,-46.66 1264.41,-37.77 1261.66,-30.15"/>
<polygon fill="#63b8ff" stroke="#63b8ff" points="1264.94,-28.94 1258.05,-20.89 1258.42,-31.48 1264.94,-28.94"/>
</g>
<!-- Node14&#45;&gt;Node9 -->
<g id="edge19" class="edge">
<title>Node14&#45;&gt;Node9</title>
<path fill="none" stroke="#63b8ff" d="M1268.25,-164.51C1290.81,-155.97 1324.97,-143.03 1350.44,-133.4"/>
<polygon fill="#63b8ff" stroke="#63b8ff" points="1351.57,-136.71 1359.69,-129.89 1349.09,-130.16 1351.57,-136.71"/>
</g>
<!-- Node15 -->
<g id="node15" class="node">
<title>Node15</title>
<g id="a_node15"><a xlink:title=" ">
<polygon fill="#e0e0e0" stroke="#999999" points="1162,-19 1127,-19 1127,0 1162,0 1162,-19"/>
<text text-anchor="middle" x="1144.5" y="-7" font-family="Helvetica,sans-Serif" font-size="10.00">map</text>
</a>
</g>
</g>
<!-- Node14&#45;&gt;Node15 -->
<g id="edge17" class="edge">
<title>Node14&#45;&gt;Node15</title>
<path fill="none" stroke="#63b8ff" d="M1215.21,-165.71C1175.95,-153.5 1107.81,-125.75 1078.5,-74 1066.27,-52.4 1093.49,-33.54 1116.6,-22.1"/>
<polygon fill="#63b8ff" stroke="#63b8ff" points="1117.8,-25.4 1125.4,-18.02 1114.86,-19.05 1117.8,-25.4"/>
</g>
<!-- Node16 -->
<g id="node16" class="node">
<title>Node16</title>
<g id="a_node16"><a xlink:href="state_8hpp.html" target="_top" xlink:title="ALGEBRA::State source file.">
<polygon fill="white" stroke="#666666" points="1569.5,-129 1471.5,-129 1471.5,-110 1569.5,-110 1569.5,-129"/>
<text text-anchor="middle" x="1520.5" y="-117" font-family="Helvetica,sans-Serif" font-size="10.00">../algebra/state.hpp</text>
</a>
</g>
</g>
<!-- Node14&#45;&gt;Node16 -->
<g id="edge20" class="edge">
<title>Node14&#45;&gt;Node16</title>
<path fill="none" stroke="#63b8ff" d="M1273.78,-167.88C1318.52,-159.29 1404.78,-142.72 1462.51,-131.64"/>
<polygon fill="#63b8ff" stroke="#63b8ff" points="1463.01,-135.1 1472.17,-129.78 1461.69,-128.23 1463.01,-135.1"/>
</g>
<!-- Node14&#45;&gt;Node17 -->
<g id="edge21" class="edge">
<title>Node14&#45;&gt;Node17</title>
<path fill="none" stroke="#63b8ff" d="M1242.45,-164.66C1238.48,-147.5 1229.63,-109.26 1224.15,-85.6"/>
<polygon fill="#63b8ff" stroke="#63b8ff" points="1227.58,-84.89 1221.92,-75.93 1220.76,-86.47 1227.58,-84.89"/>
</g>
<!-- Node14&#45;&gt;Node19 -->
<g id="edge25" class="edge">
<title>Node14&#45;&gt;Node19</title>
<path fill="none" stroke="#63b8ff" d="M1273.68,-170.54C1330.15,-164.61 1458.46,-150.18 1576.27,-129.25"/>
<polygon fill="#63b8ff" stroke="#63b8ff" points="1576.56,-132.75 1585.78,-127.54 1575.32,-125.86 1576.56,-132.75"/>
</g>
<!-- Node17&#45;&gt;Node8 -->
<g id="edge24" class="edge">
<title>Node17&#45;&gt;Node8</title>
<path fill="none" stroke="#63b8ff" d="M1225.11,-54.75C1229.62,-47.73 1236.09,-37.64 1241.71,-28.87"/>
<polygon fill="#63b8ff" stroke="#63b8ff" points="1244.49,-31.02 1246.95,-20.72 1238.6,-27.24 1244.49,-31.02"/>
</g>
<!-- Node17&#45;&gt;Node15 -->
<g id="edge22" class="edge">
<title>Node17&#45;&gt;Node15</title>
<path fill="none" stroke="#63b8ff" d="M1206.78,-54.51C1195.72,-46.7 1179.46,-35.21 1166.33,-25.93"/>
<polygon fill="#63b8ff" stroke="#63b8ff" points="1168.46,-23.14 1158.27,-20.23 1164.42,-28.86 1168.46,-23.14"/>
</g>
<!-- Node18 -->
<g id="node18" class="node">
<title>Node18</title>
<g id="a_node18"><a xlink:title=" ">
<polygon fill="#e0e0e0" stroke="#999999" points="1481,-19 1440,-19 1440,0 1481,0 1481,-19"/>
<text text-anchor="middle" x="1460.5" y="-7" font-family="Helvetica,sans-Serif" font-size="10.00">string</text>
</a>
</g>
</g>
<!-- Node17&#45;&gt;Node18 -->
<g id="edge23" class="edge">
<title>Node17&#45;&gt;Node18</title>
<path fill="none" stroke="#63b8ff" d="M1259.84,-54.63C1307.34,-44.18 1385.26,-27.05 1428.7,-17.49"/>
<polygon fill="#63b8ff" stroke="#63b8ff" points="1429.24,-20.96 1438.25,-15.39 1427.74,-14.12 1429.24,-20.96"/>
</g>
<!-- Node19&#45;&gt;Node17 -->
<g id="edge27" class="edge">
<title>Node19&#45;&gt;Node17</title>
<path fill="none" stroke="#63b8ff" d="M1587.28,-111.7C1584.32,-111.09 1581.36,-110.5 1578.5,-110 1469.67,-90.81 1340.85,-76.98 1270.93,-70.2"/>
<polygon fill="#63b8ff" stroke="#63b8ff" points="1271.61,-66.75 1261.32,-69.28 1270.94,-73.72 1271.61,-66.75"/>
</g>
<!-- Node19&#45;&gt;Node18 -->
<g id="edge26" class="edge">
<title>Node19&#45;&gt;Node18</title>
<path fill="none" stroke="#63b8ff" d="M1602.82,-109.66C1576.48,-91.31 1515.57,-48.87 1482.62,-25.91"/>
<polygon fill="#63b8ff" stroke="#63b8ff" points="1484.81,-23.17 1474.6,-20.33 1480.81,-28.91 1484.81,-23.17"/>
</g>
<!-- Node20&#45;&gt;Node9 -->
<g id="edge29" class="edge">
<title>Node20&#45;&gt;Node9</title>
<path fill="none" stroke="#63b8ff" d="M1324.45,-280.18C1433.92,-274.75 1620.78,-262.18 1641.5,-239 1698.37,-175.38 1559.77,-143.54 1464.76,-129.64"/>
<polygon fill="#63b8ff" stroke="#63b8ff" points="1465.29,-126.18 1454.9,-128.25 1464.31,-133.11 1465.29,-126.18"/>
</g>
<!-- Node20&#45;&gt;Node12 -->
<g id="edge32" class="edge">
<title>Node20&#45;&gt;Node12</title>
<path fill="none" stroke="#63b8ff" d="M1213.27,-274.51C1181.65,-265.69 1133.23,-252.18 1098.37,-242.46"/>
<polygon fill="#63b8ff" stroke="#63b8ff" points="1099.6,-239.17 1089.03,-239.85 1097.72,-245.91 1099.6,-239.17"/>
</g>
<!-- Node20&#45;&gt;Node14 -->
<g id="edge30" class="edge">
<title>Node20&#45;&gt;Node14</title>
<path fill="none" stroke="#63b8ff" d="M1212.84,-274.51C1195.21,-267.8 1174.96,-256.68 1164.5,-239 1151.45,-216.93 1178.65,-199.54 1204.81,-188.58"/>
<polygon fill="#63b8ff" stroke="#63b8ff" points="1206,-191.87 1214.04,-184.97 1203.46,-185.35 1206,-191.87"/>
</g>
<!-- Node20&#45;&gt;Node21 -->
<g id="edge31" class="edge">
<title>Node20&#45;&gt;Node21</title>
<path fill="none" stroke="#63b8ff" d="M1191.99,-274.54C1141.68,-266.08 1063.97,-252.91 987.27,-239.47"/>
<polygon fill="#63b8ff" stroke="#63b8ff" points="987.91,-236.03 977.46,-237.75 986.7,-242.93 987.91,-236.03"/>
</g>
<!-- Node22&#45;&gt;Node9 -->
<g id="edge34" class="edge">
<title>Node22&#45;&gt;Node9</title>
<path fill="none" stroke="#63b8ff" d="M1543.34,-219.66C1513.69,-201.15 1444.78,-158.13 1408.24,-135.32"/>
<polygon fill="#63b8ff" stroke="#63b8ff" points="1410.47,-132.59 1400.14,-130.26 1406.77,-138.53 1410.47,-132.59"/>
</g>
<!-- Node22&#45;&gt;Node14 -->
<g id="edge35" class="edge">
<title>Node22&#45;&gt;Node14</title>
<path fill="none" stroke="#63b8ff" d="M1504.4,-219.51C1442.36,-209 1341.09,-191.85 1285.03,-182.36"/>
<polygon fill="#63b8ff" stroke="#63b8ff" points="1285.72,-178.93 1275.28,-180.71 1284.55,-185.83 1285.72,-178.93"/>
</g>
<!-- Node23&#45;&gt;Node9 -->
<g id="edge37" class="edge">
<title>Node23&#45;&gt;Node9</title>
<path fill="none" stroke="#63b8ff" d="M1809.18,-281.83C1882.42,-278.4 1981.49,-268.29 2006.5,-239 2011.98,-232.58 2011.79,-226.58 2006.5,-220 1935.53,-131.64 1869.24,-183.96 1757.5,-165 1729.41,-160.23 1565.84,-141.24 1464.85,-129.66"/>
<polygon fill="#63b8ff" stroke="#63b8ff" points="1465.31,-126.19 1454.97,-128.53 1464.51,-133.14 1465.31,-126.19"/>
</g>
<!-- Node23&#45;&gt;Node14 -->
<g id="edge38" class="edge">
<title>Node23&#45;&gt;Node14</title>
<path fill="none" stroke="#63b8ff" d="M1718.06,-274.68C1703.79,-260.41 1673.36,-232.6 1641.5,-220 1577.3,-194.61 1372.83,-181.8 1285.11,-177.35"/>
<polygon fill="#63b8ff" stroke="#63b8ff" points="1285.45,-173.87 1275.29,-176.87 1285.1,-180.86 1285.45,-173.87"/>
</g>
<!-- Node23&#45;&gt;Node24 -->
<g id="edge39" class="edge">
<title>Node23&#45;&gt;Node24</title>
<path fill="none" stroke="#63b8ff" d="M1759.92,-274.51C1792.85,-265.65 1843.34,-252.07 1879.52,-242.33"/>
<polygon fill="#63b8ff" stroke="#63b8ff" points="1880.04,-245.82 1888.79,-239.84 1878.22,-239.06 1880.04,-245.82"/>
</g>
<!-- Node24&#45;&gt;Node9 -->
<g id="edge41" class="edge">
<title>Node24&#45;&gt;Node9</title>
<path fill="none" stroke="#63b8ff" d="M1897.56,-219.5C1857.32,-205.87 1777.25,-179.97 1707.5,-165 1662.57,-155.36 1544.7,-140.05 1464.49,-130.13"/>
<polygon fill="#63b8ff" stroke="#63b8ff" points="1465.29,-126.71 1454.94,-128.96 1464.44,-133.65 1465.29,-126.71"/>
</g>
<!-- Node24&#45;&gt;Node13 -->
<g id="edge40" class="edge">
<title>Node24&#45;&gt;Node13</title>
<path fill="none" stroke="#63b8ff" d="M1849.78,-219.8C1663,-197.75 1176.51,-140.33 1042.89,-124.56"/>
<polygon fill="#63b8ff" stroke="#63b8ff" points="1043.62,-121.12 1033.28,-123.42 1042.8,-128.07 1043.62,-121.12"/>
</g>
<!-- Node24&#45;&gt;Node14 -->
<g id="edge43" class="edge">
<title>Node24&#45;&gt;Node14</title>
<path fill="none" stroke="#63b8ff" d="M1849.75,-220.75C1846.97,-220.49 1844.21,-220.24 1841.5,-220 1632.31,-201.37 1381.4,-184.42 1284.97,-178.11"/>
<polygon fill="#63b8ff" stroke="#63b8ff" points="1285.44,-174.63 1275.23,-177.48 1284.98,-181.62 1285.44,-174.63"/>
</g>
<!-- Node24&#45;&gt;Node16 -->
<g id="edge42" class="edge">
<title>Node24&#45;&gt;Node16</title>
<path fill="none" stroke="#63b8ff" d="M1912.31,-219.64C1893.9,-205.58 1855.57,-178.37 1818.5,-165 1815.71,-163.99 1667.32,-142.08 1581.02,-129.39"/>
<polygon fill="#63b8ff" stroke="#63b8ff" points="1581.69,-125.95 1571.29,-127.96 1580.67,-132.87 1581.69,-125.95"/>
</g>
<!-- Node25&#45;&gt;Node9 -->
<g id="edge46" class="edge">
<title>Node25&#45;&gt;Node9</title>
<path fill="none" stroke="#63b8ff" d="M690.42,-219.52C829.33,-199.7 1161.7,-152.29 1310.4,-131.07"/>
<polygon fill="#63b8ff" stroke="#63b8ff" points="1310.73,-134.56 1320.14,-129.68 1309.75,-127.63 1310.73,-134.56"/>
</g>
<!-- Node25&#45;&gt;Node14 -->
<g id="edge47" class="edge">
<title>Node25&#45;&gt;Node14</title>
<path fill="none" stroke="#63b8ff" d="M697.7,-220.86C700.67,-220.56 703.62,-220.27 706.5,-220 892,-202.35 1113.88,-185.27 1203.74,-178.53"/>
<polygon fill="#63b8ff" stroke="#63b8ff" points="1203.81,-182.03 1213.52,-177.79 1203.28,-175.05 1203.81,-182.03"/>
</g>
<!-- Node25&#45;&gt;Node26 -->
<g id="edge48" class="edge">
<title>Node25&#45;&gt;Node26</title>
<path fill="none" stroke="#63b8ff" d="M632.12,-219.75C635.75,-212.88 640.93,-203.08 645.49,-194.45"/>
<polygon fill="#63b8ff" stroke="#63b8ff" points="648.49,-196.26 650.07,-185.78 642.3,-192.99 648.49,-196.26"/>
</g>
<!-- Node26&#45;&gt;Node8 -->
<g id="edge51" class="edge">
<title>Node26&#45;&gt;Node8</title>
<path fill="none" stroke="#63b8ff" d="M686.06,-164.51C728.51,-152.06 807.74,-128.96 875.5,-110 965.52,-84.82 988.09,-78.74 1078.5,-55 1127.67,-42.09 1184.77,-27.68 1220.02,-18.85"/>
<polygon fill="#63b8ff" stroke="#63b8ff" points="1220.77,-22.27 1229.63,-16.45 1219.08,-15.48 1220.77,-22.27"/>
</g>
<!-- Node26&#45;&gt;Node13 -->
<g id="edge49" class="edge">
<title>Node26&#45;&gt;Node13</title>
<path fill="none" stroke="#63b8ff" d="M694.97,-167.57C764.58,-157.12 908.03,-135.58 973.97,-125.68"/>
<polygon fill="#63b8ff" stroke="#63b8ff" points="974.48,-129.15 983.85,-124.2 973.44,-122.23 974.48,-129.15"/>
</g>
<!-- Node26&#45;&gt;Node17 -->
<g id="edge52" class="edge">
<title>Node26&#45;&gt;Node17</title>
<path fill="none" stroke="#63b8ff" d="M695,-165.5C755.54,-153.28 874.93,-129.34 976.5,-110 1042.42,-97.45 1118.53,-83.61 1167.75,-74.76"/>
<polygon fill="#63b8ff" stroke="#63b8ff" points="1168.34,-78.21 1177.56,-72.99 1167.1,-71.32 1168.34,-78.21"/>
</g>
<!-- Node27 -->
<g id="node27" class="node">
<title>Node27</title>
<g id="a_node27"><a xlink:title=" ">
<polygon fill="#e0e0e0" stroke="#999999" points="681,-129 630,-129 630,-110 681,-110 681,-129"/>
<text text-anchor="middle" x="655.5" y="-117" font-family="Helvetica,sans-Serif" font-size="10.00">numeric</text>
</a>
</g>
</g>
<!-- Node26&#45;&gt;Node27 -->
<g id="edge50" class="edge">
<title>Node26&#45;&gt;Node27</title>
<path fill="none" stroke="#63b8ff" d="M655.5,-164.75C655.5,-158.27 655.5,-149.16 655.5,-140.9"/>
<polygon fill="#63b8ff" stroke="#63b8ff" points="659,-140.96 655.5,-130.96 652,-140.96 659,-140.96"/>
</g>
<!-- Node28&#45;&gt;Node9 -->
<g id="edge54" class="edge">
<title>Node28&#45;&gt;Node9</title>
<path fill="none" stroke="#63b8ff" d="M1768.3,-219.66C1749.88,-205.62 1711.55,-178.44 1674.5,-165 1637,-151.39 1536.84,-137.78 1464.73,-129.26"/>
<polygon fill="#63b8ff" stroke="#63b8ff" points="1465.25,-125.8 1454.91,-128.11 1464.44,-132.75 1465.25,-125.8"/>
</g>
<!-- Node28&#45;&gt;Node14 -->
<g id="edge55" class="edge">
<title>Node28&#45;&gt;Node14</title>
<path fill="none" stroke="#63b8ff" d="M1726.85,-221.66C1722,-221.08 1717.16,-220.52 1712.5,-220 1554.74,-202.5 1366.59,-185.91 1285.26,-178.94"/>
<polygon fill="#63b8ff" stroke="#63b8ff" points="1285.6,-175.46 1275.34,-178.1 1285,-182.43 1285.6,-175.46"/>
</g>
<!-- Node29&#45;&gt;Node9 -->
<g id="edge57" class="edge">
<title>Node29&#45;&gt;Node9</title>
<path fill="none" stroke="#63b8ff" d="M526.76,-219.54C621.98,-206.77 803.05,-182.91 957.5,-165 1078.31,-150.99 1218.59,-136.76 1304.44,-128.28"/>
<polygon fill="#63b8ff" stroke="#63b8ff" points="1304.55,-131.79 1314.16,-127.33 1303.87,-124.82 1304.55,-131.79"/>
</g>
<!-- Node29&#45;&gt;Node14 -->
<g id="edge58" class="edge">
<title>Node29&#45;&gt;Node14</title>
<path fill="none" stroke="#63b8ff" d="M539.64,-220.73C542.63,-220.48 545.59,-220.23 548.5,-220 797.45,-200.02 1097.07,-183.35 1204.09,-177.62"/>
<polygon fill="#63b8ff" stroke="#63b8ff" points="1203.99,-181.13 1213.79,-177.11 1203.62,-174.14 1203.99,-181.13"/>
</g>
<!-- Node29&#45;&gt;Node26 -->
<g id="edge59" class="edge">
<title>Node29&#45;&gt;Node26</title>
<path fill="none" stroke="#63b8ff" d="M493.58,-219.51C526.03,-210.69 575.72,-197.18 611.5,-187.46"/>
<polygon fill="#63b8ff" stroke="#63b8ff" points="612.39,-190.84 621.12,-184.84 610.56,-184.09 612.39,-190.84"/>
</g>
<!-- Node30&#45;&gt;Node9 -->
<g id="edge61" class="edge">
<title>Node30&#45;&gt;Node9</title>
<path fill="none" stroke="#63b8ff" d="M363.97,-220.77C467.07,-210.73 640.03,-193.38 703.5,-184 748.25,-177.39 758.65,-170.96 803.5,-165 981.65,-141.33 1192.33,-129.08 1304.61,-123.8"/>
<polygon fill="#63b8ff" stroke="#63b8ff" points="1304.48,-127.31 1314.31,-123.35 1304.16,-120.32 1304.48,-127.31"/>
</g>
<!-- Node30&#45;&gt;Node14 -->
<g id="edge62" class="edge">
<title>Node30&#45;&gt;Node14</title>
<path fill="none" stroke="#63b8ff" d="M363.54,-220.69C366.56,-220.45 369.56,-220.22 372.5,-220 692.51,-196.56 1079.48,-181.46 1203.9,-176.93"/>
<polygon fill="#63b8ff" stroke="#63b8ff" points="1203.73,-180.44 1213.6,-176.58 1203.48,-173.45 1203.73,-180.44"/>
</g>
<!-- Node30&#45;&gt;Node26 -->
<g id="edge63" class="edge">
<title>Node30&#45;&gt;Node26</title>
<path fill="none" stroke="#63b8ff" d="M346.6,-219.51C419.5,-209.12 537.98,-192.24 605.04,-182.69"/>
<polygon fill="#63b8ff" stroke="#63b8ff" points="605.24,-186.2 614.64,-181.32 604.25,-179.27 605.24,-186.2"/>
</g>
<!-- Node31&#45;&gt;Node9 -->
<g id="edge65" class="edge">
<title>Node31&#45;&gt;Node9</title>
<path fill="none" stroke="#63b8ff" d="M843.46,-221C921.8,-211.56 1049.83,-195.23 1096.5,-184 1121.64,-177.95 1126.51,-171.67 1151.5,-165 1205.35,-150.64 1267.39,-139.02 1313.9,-131.26"/>
<polygon fill="#63b8ff" stroke="#63b8ff" points="1314.28,-134.75 1323.58,-129.67 1313.15,-127.84 1314.28,-134.75"/>
</g>
<!-- Node31&#45;&gt;Node14 -->
<g id="edge66" class="edge">
<title>Node31&#45;&gt;Node14</title>
<path fill="none" stroke="#63b8ff" d="M843.18,-221.24C940.38,-210.16 1122.99,-189.35 1204.01,-180.11"/>
<polygon fill="#63b8ff" stroke="#63b8ff" points="1204.16,-183.62 1213.7,-179.01 1203.37,-176.67 1204.16,-183.62"/>
</g>
<!-- Node31&#45;&gt;Node26 -->
<g id="edge67" class="edge">
<title>Node31&#45;&gt;Node26</title>
<path fill="none" stroke="#63b8ff" d="M758.47,-219.51C738.75,-211.08 709.03,-198.38 686.59,-188.79"/>
<polygon fill="#63b8ff" stroke="#63b8ff" points="688.19,-185.66 677.62,-184.95 685.44,-192.1 688.19,-185.66"/>
</g>
<!-- Node32&#45;&gt;Node9 -->
<g id="edge69" class="edge">
<title>Node32&#45;&gt;Node9</title>
<path fill="none" stroke="#63b8ff" d="M1255.96,-219.66C1279.65,-201.39 1334.29,-159.23 1364.14,-136.21"/>
<polygon fill="#63b8ff" stroke="#63b8ff" points="1365.91,-139.26 1371.69,-130.38 1361.63,-133.72 1365.91,-139.26"/>
</g>
<!-- Node32&#45;&gt;Node14 -->
<g id="edge70" class="edge">
<title>Node32&#45;&gt;Node14</title>
<path fill="none" stroke="#63b8ff" d="M1244.5,-219.75C1244.5,-213.27 1244.5,-204.16 1244.5,-195.9"/>
<polygon fill="#63b8ff" stroke="#63b8ff" points="1248,-195.96 1244.5,-185.96 1241,-195.96 1248,-195.96"/>
</g>
<!-- Node33&#45;&gt;Node9 -->
<g id="edge72" class="edge">
<title>Node33&#45;&gt;Node9</title>
<path fill="none" stroke="#63b8ff" d="M1398.27,-219.66C1395.89,-202.5 1390.58,-164.26 1387.29,-140.6"/>
<polygon fill="#63b8ff" stroke="#63b8ff" points="1390.8,-140.38 1385.95,-130.96 1383.86,-141.35 1390.8,-140.38"/>
</g>
<!-- Node33&#45;&gt;Node14 -->
<g id="edge73" class="edge">
<title>Node33&#45;&gt;Node14</title>
<path fill="none" stroke="#63b8ff" d="M1373.21,-219.51C1347.97,-210.88 1309.61,-197.76 1281.34,-188.1"/>
<polygon fill="#63b8ff" stroke="#63b8ff" points="1282.69,-184.86 1272.1,-184.94 1280.43,-191.48 1282.69,-184.86"/>
</g>
</g>
</svg>
