<?xml version="1.0" encoding="UTF-8" standalone="no"?>
<!DOCTYPE svg PUBLIC "-//W3C//DTD SVG 1.1//EN"
 "http://www.w3.org/Graphics/SVG/1.1/DTD/svg11.dtd">
<!-- Generated by graphviz version 3.0.0 (20220413.0242)
 -->
<!-- Title: main.cpp Pages: 1 -->
<svg width="1349pt" height="420pt"
 viewBox="0.00 0.00 1348.71 420.00" xmlns="http://www.w3.org/2000/svg" xmlns:xlink="http://www.w3.org/1999/xlink">
<g id="graph0" class="graph" transform="scale(1 1) rotate(0) translate(4 416)">
<title>main.cpp</title>
<!-- Node1 -->
<g id="node1" class="node">
<title>Node1</title>
<g id="a_node1"><a xlink:title="Main routine of svZeroDSolver.">
<polygon fill="#bfbfbf" stroke="black" points="638,-392.5 638,-411.5 694,-411.5 694,-392.5 638,-392.5"/>
<text text-anchor="middle" x="666" y="-399.5" font-family="Helvetica,sans-Serif" font-size="10.00">main.cpp</text>
</a>
</g>
</g>
<!-- Node2 -->
<g id="node2" class="node">
<title>Node2</title>
<g id="a_node2"><a xlink:href="integrator_8hpp.html" target="_top" xlink:title="ALGEBRA::Integrator source file.">
<polygon fill="none" stroke="black" points="653,-336.5 653,-355.5 763,-355.5 763,-336.5 653,-336.5"/>
<text text-anchor="middle" x="708" y="-343.5" font-family="Helvetica,sans-Serif" font-size="10.00">algebra/integrator.hpp</text>
</a>
</g>
</g>
<!-- Node1&#45;&gt;Node2 -->
<g id="edge1" class="edge">
<title>Node1&#45;&gt;Node2</title>
<path fill="none" stroke="midnightblue" d="M672.94,-392.08C678.93,-384.38 687.75,-373.03 695.05,-363.65"/>
<polygon fill="midnightblue" stroke="midnightblue" points="697.82,-365.79 701.19,-355.75 692.29,-361.5 697.82,-365.79"/>
</g>
<!-- Node4 -->
<g id="node4" class="node">
<title>Node4</title>
<g id="a_node4"><a xlink:href="model_8hpp.html" target="_top" xlink:title="MODEL::Model source file.">
<polygon fill="none" stroke="black" points="641,-280.5 641,-299.5 739,-299.5 739,-280.5 641,-280.5"/>
<text text-anchor="middle" x="690" y="-287.5" font-family="Helvetica,sans-Serif" font-size="10.00">../model/model.hpp</text>
</a>
</g>
</g>
<!-- Node1&#45;&gt;Node4 -->
<g id="edge50" class="edge">
<title>Node1&#45;&gt;Node4</title>
<path fill="none" stroke="midnightblue" d="M659.14,-392.44C649.94,-379.87 635.68,-355.77 644,-336 649.03,-324.05 658.94,-313.69 668.29,-305.93"/>
<polygon fill="midnightblue" stroke="midnightblue" points="670.44,-308.69 676.21,-299.81 666.16,-303.15 670.44,-308.69"/>
</g>
<!-- Node8 -->
<g id="node8" class="node">
<title>Node8</title>
<g id="a_node8"><a xlink:href="densesystem_8hpp.html" target="_top" xlink:title="ALGEBRA::DenseSystem source file.">
<polygon fill="none" stroke="black" points="347,-112.5 347,-131.5 481,-131.5 481,-112.5 347,-112.5"/>
<text text-anchor="middle" x="414" y="-119.5" font-family="Helvetica,sans-Serif" font-size="10.00">../algebra/densesystem.hpp</text>
</a>
</g>
</g>
<!-- Node1&#45;&gt;Node8 -->
<g id="edge47" class="edge">
<title>Node1&#45;&gt;Node8</title>
<path fill="none" stroke="midnightblue" d="M637.94,-400.26C538.96,-396.89 212,-379.09 212,-291 212,-291 212,-291 212,-233 212,-173.86 279.61,-146.33 336.6,-133.63"/>
<polygon fill="midnightblue" stroke="midnightblue" points="337.67,-136.98 346.74,-131.5 336.23,-130.13 337.67,-136.98"/>
</g>
<!-- Node9 -->
<g id="node9" class="node">
<title>Node9</title>
<g id="a_node9"><a xlink:href="sparsesystem_8hpp.html" target="_top" xlink:title="ALGEBRA::SparseSystem source file.">
<polygon fill="none" stroke="black" points="545.5,-112.5 545.5,-131.5 682.5,-131.5 682.5,-112.5 545.5,-112.5"/>
<text text-anchor="middle" x="614" y="-119.5" font-family="Helvetica,sans-Serif" font-size="10.00">../algebra/sparsesystem.hpp</text>
</a>
</g>
</g>
<!-- Node1&#45;&gt;Node9 -->
<g id="edge48" class="edge">
<title>Node1&#45;&gt;Node9</title>
<path fill="none" stroke="midnightblue" d="M637.81,-397.59C560.1,-387.53 346,-355.19 307,-300 287.51,-272.41 287.8,-251.79 307,-224 335.67,-182.5 475.52,-149.47 556.23,-133.48"/>
<polygon fill="midnightblue" stroke="midnightblue" points="557.1,-136.88 566.24,-131.53 555.76,-130.01 557.1,-136.88"/>
</g>
<!-- Node24 -->
<g id="node24" class="node">
<title>Node24</title>
<g id="a_node24"><a xlink:href="state_8hpp.html" target="_top" xlink:title="ALGEBRA::State source file.">
<polygon fill="none" stroke="black" points="899,-280.5 899,-299.5 955,-299.5 955,-280.5 899,-280.5"/>
<text text-anchor="middle" x="927" y="-287.5" font-family="Helvetica,sans-Serif" font-size="10.00">state.hpp</text>
</a>
</g>
</g>
<!-- Node1&#45;&gt;Node24 -->
<g id="edge49" class="edge">
<title>Node1&#45;&gt;Node24</title>
<path fill="none" stroke="midnightblue" d="M693.09,-392.37C719.03,-383.88 759.12,-370.17 793,-356 831.67,-339.83 875.09,-318.08 901.74,-304.29"/>
<polygon fill="midnightblue" stroke="midnightblue" points="903.51,-307.32 910.77,-299.6 900.28,-301.11 903.51,-307.32"/>
</g>
<!-- Node25 -->
<g id="node25" class="node">
<title>Node25</title>
<g id="a_node25"><a xlink:href="configreader_8hpp.html" target="_top" xlink:title="IO::ConfigReader source file.">
<polygon fill="none" stroke="black" points="474,-336.5 474,-355.5 572,-355.5 572,-336.5 474,-336.5"/>
<text text-anchor="middle" x="523" y="-343.5" font-family="Helvetica,sans-Serif" font-size="10.00">io/configreader.hpp</text>
</a>
</g>
</g>
<!-- Node1&#45;&gt;Node25 -->
<g id="edge51" class="edge">
<title>Node1&#45;&gt;Node25</title>
<path fill="none" stroke="midnightblue" d="M643.34,-392.44C619.6,-383.48 582.09,-369.31 555.26,-359.18"/>
<polygon fill="midnightblue" stroke="midnightblue" points="556.14,-355.77 545.55,-355.52 553.67,-362.32 556.14,-355.77"/>
</g>
<!-- Node27 -->
<g id="node27" class="node">
<title>Node27</title>
<g id="a_node27"><a xlink:href="debug_8hpp.html" target="_top" xlink:title="HELPERS::DEBUG source file.">
<polygon fill="none" stroke="black" points="757.5,-280.5 757.5,-299.5 860.5,-299.5 860.5,-280.5 757.5,-280.5"/>
<text text-anchor="middle" x="809" y="-287.5" font-family="Helvetica,sans-Serif" font-size="10.00">../helpers/debug.hpp</text>
</a>
</g>
</g>
<!-- Node1&#45;&gt;Node27 -->
<g id="edge73" class="edge">
<title>Node1&#45;&gt;Node27</title>
<path fill="none" stroke="midnightblue" d="M694.41,-394.37C717.49,-387.8 749.75,-375.81 772,-356 786.36,-343.22 796.49,-323.48 802.47,-309.1"/>
<polygon fill="midnightblue" stroke="midnightblue" points="805.74,-310.35 806.1,-299.76 799.22,-307.82 805.74,-310.35"/>
</g>
<!-- Node30 -->
<g id="node30" class="node">
<title>Node30</title>
<g id="a_node30"><a xlink:href="csvwriter_8hpp.html" target="_top" xlink:title="IO::write_csv source file.">
<polygon fill="none" stroke="black" points="965.5,-336.5 965.5,-355.5 1050.5,-355.5 1050.5,-336.5 965.5,-336.5"/>
<text text-anchor="middle" x="1008" y="-343.5" font-family="Helvetica,sans-Serif" font-size="10.00">io/csvwriter.hpp</text>
</a>
</g>
</g>
<!-- Node1&#45;&gt;Node30 -->
<g id="edge59" class="edge">
<title>Node1&#45;&gt;Node30</title>
<path fill="none" stroke="midnightblue" d="M694.28,-396.54C751.52,-387.5 881.89,-366.91 955.28,-355.32"/>
<polygon fill="midnightblue" stroke="midnightblue" points="955.91,-358.77 965.24,-353.75 954.82,-351.85 955.91,-358.77"/>
</g>
<!-- Node33 -->
<g id="node33" class="node">
<title>Node33</title>
<g id="a_node33"><a xlink:href="jsonwriter_8hpp.html" target="_top" xlink:title="IO::write_json source file.">
<polygon fill="none" stroke="black" points="1086.5,-336.5 1086.5,-355.5 1173.5,-355.5 1173.5,-336.5 1086.5,-336.5"/>
<text text-anchor="middle" x="1130" y="-343.5" font-family="Helvetica,sans-Serif" font-size="10.00">io/jsonwriter.hpp</text>
</a>
</g>
</g>
<!-- Node1&#45;&gt;Node33 -->
<g id="edge67" class="edge">
<title>Node1&#45;&gt;Node33</title>
<path fill="none" stroke="midnightblue" d="M694.2,-397.92C758.9,-390.82 922.97,-372.63 1060,-356 1065.19,-355.37 1070.59,-354.7 1075.99,-354.02"/>
<polygon fill="midnightblue" stroke="midnightblue" points="1076.84,-357.44 1086.32,-352.71 1075.96,-350.5 1076.84,-357.44"/>
</g>
<!-- Node35 -->
<g id="node35" class="node">
<title>Node35</title>
<g id="a_node35"><a xlink:href="endswith_8hpp.html" target="_top" xlink:title="HELPERS::endswith source file.">
<polygon fill="none" stroke="black" points="0,-168.5 0,-187.5 108,-187.5 108,-168.5 0,-168.5"/>
<text text-anchor="middle" x="54" y="-175.5" font-family="Helvetica,sans-Serif" font-size="10.00">helpers/endswith.hpp</text>
</a>
</g>
</g>
<!-- Node1&#45;&gt;Node35 -->
<g id="edge74" class="edge">
<title>Node1&#45;&gt;Node35</title>
<path fill="none" stroke="midnightblue" d="M637.94,-401.09C549.01,-400.96 274.81,-397.15 198,-356 129.06,-319.06 80.8,-233.82 62.34,-196.75"/>
<polygon fill="midnightblue" stroke="midnightblue" points="65.44,-195.12 57.92,-187.65 59.14,-198.18 65.44,-195.12"/>
</g>
<!-- Node3 -->
<g id="node3" class="node">
<title>Node3</title>
<g id="a_node3"><a xlink:title=" ">
<polygon fill="none" stroke="#bfbfbf" points="333.5,-56.5 333.5,-75.5 404.5,-75.5 404.5,-56.5 333.5,-56.5"/>
<text text-anchor="middle" x="369" y="-63.5" font-family="Helvetica,sans-Serif" font-size="10.00">Eigen/Dense</text>
</a>
</g>
</g>
<!-- Node2&#45;&gt;Node3 -->
<g id="edge2" class="edge">
<title>Node2&#45;&gt;Node3</title>
<path fill="none" stroke="midnightblue" d="M678.2,-336.49C632.51,-323.55 542.3,-298.51 465,-280 389.89,-262.02 343.63,-304 295,-244 253.82,-193.19 319.35,-116.19 352.12,-83.07"/>
<polygon fill="midnightblue" stroke="midnightblue" points="354.99,-85.15 359.66,-75.64 350.08,-80.17 354.99,-85.15"/>
</g>
<!-- Node2&#45;&gt;Node4 -->
<g id="edge3" class="edge">
<title>Node2&#45;&gt;Node4</title>
<path fill="none" stroke="midnightblue" d="M705.03,-336.08C702.62,-328.85 699.14,-318.41 696.13,-309.4"/>
<polygon fill="midnightblue" stroke="midnightblue" points="699.4,-308.13 692.92,-299.75 692.76,-310.34 699.4,-308.13"/>
</g>
<!-- Node2&#45;&gt;Node24 -->
<g id="edge46" class="edge">
<title>Node2&#45;&gt;Node24</title>
<path fill="none" stroke="midnightblue" d="M742.7,-336.44C782.51,-326.63 847.57,-310.59 888.79,-300.42"/>
<polygon fill="midnightblue" stroke="midnightblue" points="889.86,-303.76 898.73,-297.97 888.18,-296.97 889.86,-303.76"/>
</g>
<!-- Node5 -->
<g id="node5" class="node">
<title>Node5</title>
<g id="a_node5"><a xlink:title=" ">
<polygon fill="none" stroke="#bfbfbf" points="854.5,-112.5 854.5,-131.5 889.5,-131.5 889.5,-112.5 854.5,-112.5"/>
<text text-anchor="middle" x="872" y="-119.5" font-family="Helvetica,sans-Serif" font-size="10.00">map</text>
</a>
</g>
</g>
<!-- Node4&#45;&gt;Node5 -->
<g id="edge4" class="edge">
<title>Node4&#45;&gt;Node5</title>
<path fill="none" stroke="midnightblue" d="M739.09,-280.9C810.47,-269.01 934.81,-247.83 938,-244 943.7,-237.18 940.81,-232.43 938,-224 931.68,-205.03 922.16,-204.6 911,-188 900.47,-172.34 889.49,-153.82 881.88,-140.56"/>
<polygon fill="midnightblue" stroke="midnightblue" points="884.76,-138.55 876.78,-131.59 878.68,-142.01 884.76,-138.55"/>
</g>
<!-- Node6 -->
<g id="node6" class="node">
<title>Node6</title>
<g id="a_node6"><a xlink:title=" ">
<polygon fill="none" stroke="#bfbfbf" points="402.5,-224.5 402.5,-243.5 431.5,-243.5 431.5,-224.5 402.5,-224.5"/>
<text text-anchor="middle" x="417" y="-231.5" font-family="Helvetica,sans-Serif" font-size="10.00">list</text>
</a>
</g>
</g>
<!-- Node4&#45;&gt;Node6 -->
<g id="edge5" class="edge">
<title>Node4&#45;&gt;Node6</title>
<path fill="none" stroke="midnightblue" d="M640.75,-282.77C592.27,-276.04 516.08,-263.88 441.6,-243.71"/>
<polygon fill="midnightblue" stroke="midnightblue" points="442.16,-240.23 431.59,-240.95 440.29,-246.98 442.16,-240.23"/>
</g>
<!-- Node7 -->
<g id="node7" class="node">
<title>Node7</title>
<g id="a_node7"><a xlink:title=" ">
<polygon fill="none" stroke="#bfbfbf" points="450,-224.5 450,-243.5 496,-243.5 496,-224.5 450,-224.5"/>
<text text-anchor="middle" x="473" y="-231.5" font-family="Helvetica,sans-Serif" font-size="10.00">variant</text>
</a>
</g>
</g>
<!-- Node4&#45;&gt;Node7 -->
<g id="edge6" class="edge">
<title>Node4&#45;&gt;Node7</title>
<path fill="none" stroke="midnightblue" d="M653.05,-280.42C617.68,-272.12 562.6,-258.95 505.9,-244.17"/>
<polygon fill="midnightblue" stroke="midnightblue" points="506.61,-240.74 496.05,-241.59 504.83,-247.51 506.61,-240.74"/>
</g>
<!-- Node4&#45;&gt;Node8 -->
<g id="edge7" class="edge">
<title>Node4&#45;&gt;Node8</title>
<path fill="none" stroke="midnightblue" d="M640.72,-286.8C542.27,-281.9 328.83,-268.54 307,-244 272.18,-204.84 345.2,-158.38 387.19,-136.14"/>
<polygon fill="midnightblue" stroke="midnightblue" points="388.84,-139.22 396.12,-131.52 385.63,-133.01 388.84,-139.22"/>
</g>
<!-- Node4&#45;&gt;Node9 -->
<g id="edge9" class="edge">
<title>Node4&#45;&gt;Node9</title>
<path fill="none" stroke="midnightblue" d="M688.14,-280.37C685.28,-267.71 679.22,-243.5 671,-224 657.96,-193.07 637.73,-159.59 625.2,-140"/>
<polygon fill="midnightblue" stroke="midnightblue" points="628.12,-138.06 619.74,-131.57 622.24,-141.86 628.12,-138.06"/>
</g>
<!-- Node12 -->
<g id="node12" class="node">
<title>Node12</title>
<g id="a_node12"><a xlink:href="junction_8hpp.html" target="_top" xlink:title="MODEL::Junction source file.">
<polygon fill="none" stroke="black" points="316,-224.5 316,-243.5 384,-243.5 384,-224.5 316,-224.5"/>
<text text-anchor="middle" x="350" y="-231.5" font-family="Helvetica,sans-Serif" font-size="10.00">junction.hpp</text>
</a>
</g>
</g>
<!-- Node4&#45;&gt;Node12 -->
<g id="edge12" class="edge">
<title>Node4&#45;&gt;Node12</title>
<path fill="none" stroke="midnightblue" d="M640.99,-282.43C584.06,-274.61 487.11,-260.7 394.35,-244.16"/>
<polygon fill="midnightblue" stroke="midnightblue" points="394.7,-240.67 384.23,-242.35 393.46,-247.56 394.7,-240.67"/>
</g>
<!-- Node15 -->
<g id="node15" class="node">
<title>Node15</title>
<g id="a_node15"><a xlink:href="node_8hpp.html" target="_top" xlink:title="MODEL::Node source file.">
<polygon fill="none" stroke="black" points="780,-112.5 780,-131.5 836,-131.5 836,-112.5 780,-112.5"/>
<text text-anchor="middle" x="808" y="-119.5" font-family="Helvetica,sans-Serif" font-size="10.00">node.hpp</text>
</a>
</g>
</g>
<!-- Node4&#45;&gt;Node15 -->
<g id="edge45" class="edge">
<title>Node4&#45;&gt;Node15</title>
<path fill="none" stroke="midnightblue" d="M739.24,-281.12C805.87,-270.22 917.14,-251.1 923,-244 928.66,-237.14 926.85,-232.01 923,-224 911.9,-200.92 897.4,-204.73 878,-188 859.1,-171.7 838.24,-152.11 824.24,-138.72"/>
<polygon fill="midnightblue" stroke="midnightblue" points="826.5,-136.04 816.87,-131.63 821.65,-141.08 826.5,-136.04"/>
</g>
<!-- Node17 -->
<g id="node17" class="node">
<title>Node17</title>
<g id="a_node17"><a xlink:href="dofhandler_8hpp.html" target="_top" xlink:title="MODEL::DOFHandler source file.">
<polygon fill="none" stroke="black" points="823,-56.5 823,-75.5 903,-75.5 903,-56.5 823,-56.5"/>
<text text-anchor="middle" x="863" y="-63.5" font-family="Helvetica,sans-Serif" font-size="10.00">dofhandler.hpp</text>
</a>
</g>
</g>
<!-- Node4&#45;&gt;Node17 -->
<g id="edge44" class="edge">
<title>Node4&#45;&gt;Node17</title>
<path fill="none" stroke="midnightblue" d="M739.02,-281.21C809.38,-269.95 932.83,-249.8 953,-244 1015.82,-225.93 1043.89,-235.31 1089,-188 1113.1,-162.72 1131.37,-138.83 1109,-112 1084.61,-82.74 978.07,-72.45 913.46,-68.87"/>
<polygon fill="midnightblue" stroke="midnightblue" points="913.25,-65.36 903.08,-68.33 912.89,-72.35 913.25,-65.36"/>
</g>
<!-- Node18 -->
<g id="node18" class="node">
<title>Node18</title>
<g id="a_node18"><a xlink:href="bloodvessel_8hpp.html" target="_top" xlink:title="MODEL::BloodVessel source file.">
<polygon fill="none" stroke="black" points="828,-224.5 828,-243.5 914,-243.5 914,-224.5 828,-224.5"/>
<text text-anchor="middle" x="871" y="-231.5" font-family="Helvetica,sans-Serif" font-size="10.00">bloodvessel.hpp</text>
</a>
</g>
</g>
<!-- Node4&#45;&gt;Node18 -->
<g id="edge26" class="edge">
<title>Node4&#45;&gt;Node18</title>
<path fill="none" stroke="midnightblue" d="M718.68,-280.44C749.53,-271.24 798.73,-256.56 832.83,-246.39"/>
<polygon fill="midnightblue" stroke="midnightblue" points="833.87,-249.73 842.45,-243.52 831.87,-243.02 833.87,-249.73"/>
</g>
<!-- Node20 -->
<g id="node20" class="node">
<title>Node20</title>
<g id="a_node20"><a xlink:href="rcrblockwithdistalpressure_8hpp.html" target="_top" xlink:title="MODEL::RCRBlockWithDistalPressure source file.">
<polygon fill="none" stroke="black" points="514,-224.5 514,-243.5 662,-243.5 662,-224.5 514,-224.5"/>
<text text-anchor="middle" x="588" y="-231.5" font-family="Helvetica,sans-Serif" font-size="10.00">rcrblockwithdistalpressure.hpp</text>
</a>
</g>
</g>
<!-- Node4&#45;&gt;Node20 -->
<g id="edge31" class="edge">
<title>Node4&#45;&gt;Node20</title>
<path fill="none" stroke="midnightblue" d="M673.61,-280.32C657.33,-271.7 632.13,-258.36 613.28,-248.39"/>
<polygon fill="midnightblue" stroke="midnightblue" points="614.82,-245.24 604.35,-243.65 611.55,-251.43 614.82,-245.24"/>
</g>
<!-- Node21 -->
<g id="node21" class="node">
<title>Node21</title>
<g id="a_node21"><a xlink:href="flowreference_8hpp.html" target="_top" xlink:title="MODEL::FlowReference source file.">
<polygon fill="none" stroke="black" points="718,-224.5 718,-243.5 810,-243.5 810,-224.5 718,-224.5"/>
<text text-anchor="middle" x="764" y="-231.5" font-family="Helvetica,sans-Serif" font-size="10.00">flowreference.hpp</text>
</a>
</g>
</g>
<!-- Node4&#45;&gt;Node21 -->
<g id="edge35" class="edge">
<title>Node4&#45;&gt;Node21</title>
<path fill="none" stroke="midnightblue" d="M701.89,-280.32C713.15,-272.11 730.29,-259.6 743.71,-249.81"/>
<polygon fill="midnightblue" stroke="midnightblue" points="745.88,-252.56 751.89,-243.83 741.75,-246.9 745.88,-252.56"/>
</g>
<!-- Node8&#45;&gt;Node3 -->
<g id="edge8" class="edge">
<title>Node8&#45;&gt;Node3</title>
<path fill="none" stroke="midnightblue" d="M406.57,-112.08C400.15,-104.38 390.69,-93.03 382.88,-83.65"/>
<polygon fill="midnightblue" stroke="midnightblue" points="385.38,-81.19 376.29,-75.75 380.01,-85.67 385.38,-81.19"/>
</g>
<!-- Node10 -->
<g id="node10" class="node">
<title>Node10</title>
<g id="a_node10"><a xlink:title=" ">
<polygon fill="none" stroke="#bfbfbf" points="577,-56.5 577,-75.5 651,-75.5 651,-56.5 577,-56.5"/>
<text text-anchor="middle" x="614" y="-63.5" font-family="Helvetica,sans-Serif" font-size="10.00">Eigen/Sparse</text>
</a>
</g>
</g>
<!-- Node9&#45;&gt;Node10 -->
<g id="edge10" class="edge">
<title>Node9&#45;&gt;Node10</title>
<path fill="none" stroke="midnightblue" d="M614,-112.08C614,-105.01 614,-94.86 614,-85.99"/>
<polygon fill="midnightblue" stroke="midnightblue" points="617.5,-85.75 614,-75.75 610.5,-85.75 617.5,-85.75"/>
</g>
<!-- Node11 -->
<g id="node11" class="node">
<title>Node11</title>
<g id="a_node11"><a xlink:title=" ">
<polygon fill="none" stroke="#bfbfbf" points="471,-56.5 471,-75.5 559,-75.5 559,-56.5 471,-56.5"/>
<text text-anchor="middle" x="515" y="-63.5" font-family="Helvetica,sans-Serif" font-size="10.00">Eigen/SparseLU</text>
</a>
</g>
</g>
<!-- Node9&#45;&gt;Node11 -->
<g id="edge11" class="edge">
<title>Node9&#45;&gt;Node11</title>
<path fill="none" stroke="midnightblue" d="M598.09,-112.32C582.36,-103.74 558.06,-90.49 539.79,-80.52"/>
<polygon fill="midnightblue" stroke="midnightblue" points="541.32,-77.37 530.87,-75.65 537.97,-83.52 541.32,-77.37"/>
</g>
<!-- Node12&#45;&gt;Node8 -->
<g id="edge13" class="edge">
<title>Node12&#45;&gt;Node8</title>
<path fill="none" stroke="midnightblue" d="M355.02,-224.37C365.54,-206.3 390.04,-164.18 403.93,-140.31"/>
<polygon fill="midnightblue" stroke="midnightblue" points="407,-142 409,-131.59 400.95,-138.47 407,-142"/>
</g>
<!-- Node12&#45;&gt;Node9 -->
<g id="edge14" class="edge">
<title>Node12&#45;&gt;Node9</title>
<path fill="none" stroke="midnightblue" d="M370.72,-224.37C417.17,-205.01 529.85,-158.06 583.98,-135.51"/>
<polygon fill="midnightblue" stroke="midnightblue" points="585.5,-138.67 593.38,-131.59 582.8,-132.21 585.5,-138.67"/>
</g>
<!-- Node13 -->
<g id="node13" class="node">
<title>Node13</title>
<g id="a_node13"><a xlink:href="block_8hpp.html" target="_top" xlink:title="MODEL::Block source file.">
<polygon fill="none" stroke="black" points="730,-168.5 730,-187.5 788,-187.5 788,-168.5 730,-168.5"/>
<text text-anchor="middle" x="759" y="-175.5" font-family="Helvetica,sans-Serif" font-size="10.00">block.hpp</text>
</a>
</g>
</g>
<!-- Node12&#45;&gt;Node13 -->
<g id="edge15" class="edge">
<title>Node12&#45;&gt;Node13</title>
<path fill="none" stroke="midnightblue" d="M384.22,-225.57C387.18,-225.01 390.14,-224.47 393,-224 511.4,-204.37 652.67,-189.36 719.81,-182.73"/>
<polygon fill="midnightblue" stroke="midnightblue" points="720.33,-186.19 729.94,-181.74 719.65,-179.23 720.33,-186.19"/>
</g>
<!-- Node13&#45;&gt;Node5 -->
<g id="edge17" class="edge">
<title>Node13&#45;&gt;Node5</title>
<path fill="none" stroke="midnightblue" d="M776.91,-168.44C795.25,-159.68 824.01,-145.94 845.09,-135.86"/>
<polygon fill="midnightblue" stroke="midnightblue" points="846.67,-138.99 854.18,-131.52 843.65,-132.67 846.67,-138.99"/>
</g>
<!-- Node13&#45;&gt;Node8 -->
<g id="edge24" class="edge">
<title>Node13&#45;&gt;Node8</title>
<path fill="none" stroke="midnightblue" d="M729.9,-170.67C725.26,-169.73 720.5,-168.81 716,-168 638.77,-154.18 549.89,-141.29 488.65,-132.89"/>
<polygon fill="midnightblue" stroke="midnightblue" points="489.07,-129.41 478.69,-131.53 488.12,-136.35 489.07,-129.41"/>
</g>
<!-- Node13&#45;&gt;Node9 -->
<g id="edge25" class="edge">
<title>Node13&#45;&gt;Node9</title>
<path fill="none" stroke="midnightblue" d="M736.02,-168.44C711.84,-159.44 673.58,-145.19 646.35,-135.05"/>
<polygon fill="midnightblue" stroke="midnightblue" points="647.46,-131.73 636.87,-131.52 645.02,-138.29 647.46,-131.73"/>
</g>
<!-- Node14 -->
<g id="node14" class="node">
<title>Node14</title>
<g id="a_node14"><a xlink:title=" ">
<polygon fill="none" stroke="#bfbfbf" points="1004,-0.5 1004,-19.5 1048,-19.5 1048,-0.5 1004,-0.5"/>
<text text-anchor="middle" x="1026" y="-7.5" font-family="Helvetica,sans-Serif" font-size="10.00">vector</text>
</a>
</g>
</g>
<!-- Node13&#45;&gt;Node14 -->
<g id="edge16" class="edge">
<title>Node13&#45;&gt;Node14</title>
<path fill="none" stroke="midnightblue" d="M756.5,-168.17C753.32,-155.26 749.14,-130.74 757,-112 770.74,-79.25 782.71,-72.8 814,-56 872.21,-24.74 950.32,-15.19 993.64,-12.28"/>
<polygon fill="midnightblue" stroke="midnightblue" points="994.09,-15.76 1003.87,-11.67 993.68,-8.77 994.09,-15.76"/>
</g>
<!-- Node13&#45;&gt;Node15 -->
<g id="edge18" class="edge">
<title>Node13&#45;&gt;Node15</title>
<path fill="none" stroke="midnightblue" d="M767.09,-168.08C774.16,-160.3 784.59,-148.8 793.15,-139.37"/>
<polygon fill="midnightblue" stroke="midnightblue" points="795.93,-141.51 800.06,-131.75 790.75,-136.8 795.93,-141.51"/>
</g>
<!-- Node13&#45;&gt;Node17 -->
<g id="edge23" class="edge">
<title>Node13&#45;&gt;Node17</title>
<path fill="none" stroke="midnightblue" d="M758.28,-168.46C757.62,-155.04 758.23,-128.82 771,-112 782.79,-96.46 801.37,-85.98 818.75,-79.07"/>
<polygon fill="midnightblue" stroke="midnightblue" points="820.05,-82.32 828.23,-75.59 817.64,-75.75 820.05,-82.32"/>
</g>
<!-- Node16 -->
<g id="node16" class="node">
<title>Node16</title>
<g id="a_node16"><a xlink:title=" ">
<polygon fill="none" stroke="#bfbfbf" points="752.5,-0.5 752.5,-19.5 793.5,-19.5 793.5,-0.5 752.5,-0.5"/>
<text text-anchor="middle" x="773" y="-7.5" font-family="Helvetica,sans-Serif" font-size="10.00">string</text>
</a>
</g>
</g>
<!-- Node15&#45;&gt;Node16 -->
<g id="edge19" class="edge">
<title>Node15&#45;&gt;Node16</title>
<path fill="none" stroke="midnightblue" d="M805.25,-112.37C799.58,-94.54 786.46,-53.3 778.81,-29.27"/>
<polygon fill="midnightblue" stroke="midnightblue" points="782.1,-28.06 775.73,-19.59 775.43,-30.18 782.1,-28.06"/>
</g>
<!-- Node15&#45;&gt;Node17 -->
<g id="edge20" class="edge">
<title>Node15&#45;&gt;Node17</title>
<path fill="none" stroke="midnightblue" d="M817.08,-112.08C825.17,-104.14 837.2,-92.34 846.91,-82.8"/>
<polygon fill="midnightblue" stroke="midnightblue" points="849.4,-85.25 854.09,-75.75 844.5,-80.26 849.4,-85.25"/>
</g>
<!-- Node17&#45;&gt;Node14 -->
<g id="edge21" class="edge">
<title>Node17&#45;&gt;Node14</title>
<path fill="none" stroke="midnightblue" d="M888.83,-56.44C917.38,-46.99 963.39,-31.74 994.15,-21.55"/>
<polygon fill="midnightblue" stroke="midnightblue" points="995.56,-24.77 1003.95,-18.3 993.36,-18.13 995.56,-24.77"/>
</g>
<!-- Node17&#45;&gt;Node16 -->
<g id="edge22" class="edge">
<title>Node17&#45;&gt;Node16</title>
<path fill="none" stroke="midnightblue" d="M848.54,-56.32C834.5,-47.9 812.95,-34.97 796.46,-25.07"/>
<polygon fill="midnightblue" stroke="midnightblue" points="797.8,-21.8 787.42,-19.65 794.2,-27.8 797.8,-21.8"/>
</g>
<!-- Node18&#45;&gt;Node8 -->
<g id="edge29" class="edge">
<title>Node18&#45;&gt;Node8</title>
<path fill="none" stroke="midnightblue" d="M835.76,-224.46C784.37,-212.01 685.85,-188.17 602,-168 553.33,-156.29 497.54,-142.95 459.46,-133.85"/>
<polygon fill="midnightblue" stroke="midnightblue" points="460.24,-130.44 449.7,-131.52 458.61,-137.25 460.24,-130.44"/>
</g>
<!-- Node18&#45;&gt;Node9 -->
<g id="edge30" class="edge">
<title>Node18&#45;&gt;Node9</title>
<path fill="none" stroke="midnightblue" d="M863.75,-224.38C851.48,-210.36 825.2,-182.71 797,-168 764.13,-150.85 724.51,-140.07 690.55,-133.37"/>
<polygon fill="midnightblue" stroke="midnightblue" points="691.14,-129.92 680.67,-131.51 689.84,-136.8 691.14,-129.92"/>
</g>
<!-- Node18&#45;&gt;Node13 -->
<g id="edge28" class="edge">
<title>Node18&#45;&gt;Node13</title>
<path fill="none" stroke="midnightblue" d="M853.01,-224.32C834.96,-215.62 806.95,-202.12 786.2,-192.11"/>
<polygon fill="midnightblue" stroke="midnightblue" points="787.48,-188.84 776.95,-187.65 784.44,-195.15 787.48,-188.84"/>
</g>
<!-- Node19 -->
<g id="node19" class="node">
<title>Node19</title>
<g id="a_node19"><a xlink:title=" ">
<polygon fill="none" stroke="#bfbfbf" points="1054,-112.5 1054,-131.5 1100,-131.5 1100,-112.5 1054,-112.5"/>
<text text-anchor="middle" x="1077" y="-119.5" font-family="Helvetica,sans-Serif" font-size="10.00">math.h</text>
</a>
</g>
</g>
<!-- Node18&#45;&gt;Node19 -->
<g id="edge27" class="edge">
<title>Node18&#45;&gt;Node19</title>
<path fill="none" stroke="midnightblue" d="M914.03,-229.17C966.49,-223.55 1050.68,-211.13 1071,-188 1081.86,-175.64 1082.33,-156.39 1080.7,-142.04"/>
<polygon fill="midnightblue" stroke="midnightblue" points="1084.11,-141.16 1079.11,-131.81 1077.19,-142.23 1084.11,-141.16"/>
</g>
<!-- Node20&#45;&gt;Node8 -->
<g id="edge32" class="edge">
<title>Node20&#45;&gt;Node8</title>
<path fill="none" stroke="midnightblue" d="M574.35,-224.37C544.36,-205.41 472.53,-160 436.05,-136.94"/>
<polygon fill="midnightblue" stroke="midnightblue" points="437.91,-133.98 427.59,-131.59 434.17,-139.89 437.91,-133.98"/>
</g>
<!-- Node20&#45;&gt;Node9 -->
<g id="edge33" class="edge">
<title>Node20&#45;&gt;Node9</title>
<path fill="none" stroke="midnightblue" d="M590.04,-224.37C594.24,-206.62 603.92,-165.67 609.6,-141.6"/>
<polygon fill="midnightblue" stroke="midnightblue" points="613.08,-142.13 611.97,-131.59 606.26,-140.52 613.08,-142.13"/>
</g>
<!-- Node20&#45;&gt;Node13 -->
<g id="edge34" class="edge">
<title>Node20&#45;&gt;Node13</title>
<path fill="none" stroke="midnightblue" d="M615.1,-224.44C643.99,-215.32 689.92,-200.81 722.11,-190.65"/>
<polygon fill="midnightblue" stroke="midnightblue" points="723.55,-193.87 732.03,-187.52 721.44,-187.19 723.55,-193.87"/>
</g>
<!-- Node21&#45;&gt;Node8 -->
<g id="edge36" class="edge">
<title>Node21&#45;&gt;Node8</title>
<path fill="none" stroke="midnightblue" d="M736.83,-224.46C674.67,-204.93 522.06,-156.96 451.23,-134.7"/>
<polygon fill="midnightblue" stroke="midnightblue" points="451.99,-131.27 441.4,-131.61 449.89,-137.95 451.99,-131.27"/>
</g>
<!-- Node21&#45;&gt;Node9 -->
<g id="edge37" class="edge">
<title>Node21&#45;&gt;Node9</title>
<path fill="none" stroke="midnightblue" d="M752.23,-224.37C726.6,-205.57 665.5,-160.77 633.82,-137.53"/>
<polygon fill="midnightblue" stroke="midnightblue" points="635.85,-134.68 625.72,-131.59 631.71,-140.33 635.85,-134.68"/>
</g>
<!-- Node21&#45;&gt;Node13 -->
<g id="edge38" class="edge">
<title>Node21&#45;&gt;Node13</title>
<path fill="none" stroke="midnightblue" d="M763.17,-224.08C762.52,-217.01 761.58,-206.86 760.76,-197.99"/>
<polygon fill="midnightblue" stroke="midnightblue" points="764.22,-197.39 759.81,-187.75 757.25,-198.03 764.22,-197.39"/>
</g>
<!-- Node22 -->
<g id="node22" class="node">
<title>Node22</title>
<g id="a_node22"><a xlink:href="timedependentparameter_8hpp.html" target="_top" xlink:title="MODEL::TimeDependentParameter source file.">
<polygon fill="none" stroke="black" points="920,-168.5 920,-187.5 1062,-187.5 1062,-168.5 920,-168.5"/>
<text text-anchor="middle" x="991" y="-175.5" font-family="Helvetica,sans-Serif" font-size="10.00">timedependentparameter.hpp</text>
</a>
</g>
</g>
<!-- Node21&#45;&gt;Node22 -->
<g id="edge39" class="edge">
<title>Node21&#45;&gt;Node22</title>
<path fill="none" stroke="midnightblue" d="M799.97,-224.44C839.32,-215.08 902.49,-200.06 945.31,-189.87"/>
<polygon fill="midnightblue" stroke="midnightblue" points="946.28,-193.24 955.2,-187.52 944.66,-186.43 946.28,-193.24"/>
</g>
<!-- Node22&#45;&gt;Node14 -->
<g id="edge41" class="edge">
<title>Node22&#45;&gt;Node14</title>
<path fill="none" stroke="midnightblue" d="M994.68,-168.19C998.3,-159.22 1003.73,-144.86 1007,-132 1016.04,-96.4 1021.53,-53.75 1024.15,-29.78"/>
<polygon fill="midnightblue" stroke="midnightblue" points="1027.65,-29.93 1025.2,-19.62 1020.69,-29.2 1027.65,-29.93"/>
</g>
<!-- Node22&#45;&gt;Node17 -->
<g id="edge43" class="edge">
<title>Node22&#45;&gt;Node17</title>
<path fill="none" stroke="midnightblue" d="M980.81,-168.4C970.12,-159.37 952.84,-144.73 938,-132 918.36,-115.15 895.95,-95.7 880.78,-82.5"/>
<polygon fill="midnightblue" stroke="midnightblue" points="883,-79.79 873.16,-75.86 878.4,-85.07 883,-79.79"/>
</g>
<!-- Node22&#45;&gt;Node19 -->
<g id="edge40" class="edge">
<title>Node22&#45;&gt;Node19</title>
<path fill="none" stroke="midnightblue" d="M1004.82,-168.32C1018.23,-159.9 1038.82,-146.97 1054.59,-137.07"/>
<polygon fill="midnightblue" stroke="midnightblue" points="1056.61,-139.94 1063.22,-131.65 1052.89,-134.01 1056.61,-139.94"/>
</g>
<!-- Node23 -->
<g id="node23" class="node">
<title>Node23</title>
<g id="a_node23"><a xlink:title=" ">
<polygon fill="none" stroke="#bfbfbf" points="946.5,-112.5 946.5,-131.5 997.5,-131.5 997.5,-112.5 946.5,-112.5"/>
<text text-anchor="middle" x="972" y="-119.5" font-family="Helvetica,sans-Serif" font-size="10.00">numeric</text>
</a>
</g>
</g>
<!-- Node22&#45;&gt;Node23 -->
<g id="edge42" class="edge">
<title>Node22&#45;&gt;Node23</title>
<path fill="none" stroke="midnightblue" d="M987.86,-168.08C985.32,-160.85 981.64,-150.41 978.47,-141.4"/>
<polygon fill="midnightblue" stroke="midnightblue" points="981.7,-140.02 975.08,-131.75 975.1,-142.35 981.7,-140.02"/>
</g>
<!-- Node25&#45;&gt;Node4 -->
<g id="edge54" class="edge">
<title>Node25&#45;&gt;Node4</title>
<path fill="none" stroke="midnightblue" d="M549.46,-336.44C577.68,-327.32 622.54,-312.81 653.97,-302.65"/>
<polygon fill="midnightblue" stroke="midnightblue" points="655.22,-305.92 663.66,-299.52 653.07,-299.26 655.22,-305.92"/>
</g>
<!-- Node25&#45;&gt;Node12 -->
<g id="edge55" class="edge">
<title>Node25&#45;&gt;Node12</title>
<path fill="none" stroke="midnightblue" d="M517.24,-336.24C507.81,-322.52 487.85,-295.89 465,-280 443.3,-264.91 415.84,-253.92 393.19,-246.58"/>
<polygon fill="midnightblue" stroke="midnightblue" points="394.08,-243.19 383.49,-243.56 392,-249.87 394.08,-243.19"/>
</g>
<!-- Node25&#45;&gt;Node16 -->
<g id="edge52" class="edge">
<title>Node25&#45;&gt;Node16</title>
<path fill="none" stroke="midnightblue" d="M473.99,-345.61C369.85,-344.09 136,-324.48 136,-179 136,-179 136,-179 136,-121 136,-32.59 237.65,-74.98 324,-56 478.29,-22.08 668.1,-13.68 741.74,-11.64"/>
<polygon fill="midnightblue" stroke="midnightblue" points="742.24,-15.13 752.14,-11.37 742.06,-8.13 742.24,-15.13"/>
</g>
<!-- Node26 -->
<g id="node26" class="node">
<title>Node26</title>
<g id="a_node26"><a xlink:title=" ">
<polygon fill="none" stroke="#bfbfbf" points="316.5,-280.5 316.5,-299.5 375.5,-299.5 375.5,-280.5 316.5,-280.5"/>
<text text-anchor="middle" x="346" y="-287.5" font-family="Helvetica,sans-Serif" font-size="10.00">stdexcept</text>
</a>
</g>
</g>
<!-- Node25&#45;&gt;Node26 -->
<g id="edge53" class="edge">
<title>Node25&#45;&gt;Node26</title>
<path fill="none" stroke="midnightblue" d="M494.95,-336.44C464.92,-327.28 417.09,-312.69 383.76,-302.52"/>
<polygon fill="midnightblue" stroke="midnightblue" points="384.5,-299.09 373.91,-299.52 382.46,-305.78 384.5,-299.09"/>
</g>
<!-- Node25&#45;&gt;Node27 -->
<g id="edge56" class="edge">
<title>Node25&#45;&gt;Node27</title>
<path fill="none" stroke="midnightblue" d="M568.32,-336.44C618.63,-326.94 699.84,-311.61 753.81,-301.42"/>
<polygon fill="midnightblue" stroke="midnightblue" points="754.72,-304.81 763.89,-299.52 753.42,-297.93 754.72,-304.81"/>
</g>
<!-- Node29 -->
<g id="node29" class="node">
<title>Node29</title>
<g id="a_node29"><a xlink:title=" ">
<polygon fill="none" stroke="#bfbfbf" points="393.5,-280.5 393.5,-299.5 456.5,-299.5 456.5,-280.5 393.5,-280.5"/>
<text text-anchor="middle" x="425" y="-287.5" font-family="Helvetica,sans-Serif" font-size="10.00">simdjson.h</text>
</a>
</g>
</g>
<!-- Node25&#45;&gt;Node29 -->
<g id="edge58" class="edge">
<title>Node25&#45;&gt;Node29</title>
<path fill="none" stroke="midnightblue" d="M507.25,-336.32C491.68,-327.74 467.62,-314.49 449.54,-304.52"/>
<polygon fill="midnightblue" stroke="midnightblue" points="451.15,-301.42 440.71,-299.65 447.78,-307.55 451.15,-301.42"/>
</g>
<!-- Node28 -->
<g id="node28" class="node">
<title>Node28</title>
<g id="a_node28"><a xlink:title=" ">
<polygon fill="none" stroke="#bfbfbf" points="1084,-224.5 1084,-243.5 1138,-243.5 1138,-224.5 1084,-224.5"/>
<text text-anchor="middle" x="1111" y="-231.5" font-family="Helvetica,sans-Serif" font-size="10.00">iostream</text>
</a>
</g>
</g>
<!-- Node27&#45;&gt;Node28 -->
<g id="edge57" class="edge">
<title>Node27&#45;&gt;Node28</title>
<path fill="none" stroke="midnightblue" d="M860.63,-280.81C913.37,-272.27 997.58,-258.18 1070,-244 1071.25,-243.76 1072.51,-243.5 1073.79,-243.24"/>
<polygon fill="midnightblue" stroke="midnightblue" points="1074.62,-246.65 1083.69,-241.18 1073.18,-239.8 1074.62,-246.65"/>
</g>
<!-- Node30&#45;&gt;Node4 -->
<g id="edge64" class="edge">
<title>Node30&#45;&gt;Node4</title>
<path fill="none" stroke="midnightblue" d="M965.44,-337.77C909.81,-328.33 812.09,-311.73 749.24,-301.06"/>
<polygon fill="midnightblue" stroke="midnightblue" points="749.53,-297.56 739.08,-299.33 748.36,-304.46 749.53,-297.56"/>
</g>
<!-- Node30&#45;&gt;Node14 -->
<g id="edge61" class="edge">
<title>Node30&#45;&gt;Node14</title>
<path fill="none" stroke="midnightblue" d="M1050.76,-338.46C1109.79,-329.07 1210.44,-311.62 1223,-300 1245.1,-279.56 1242,-265.1 1242,-235 1242,-235 1242,-235 1242,-121 1242,-39.62 1118.74,-18.42 1058.44,-12.92"/>
<polygon fill="midnightblue" stroke="midnightblue" points="1058.55,-9.41 1048.3,-12.09 1057.98,-16.39 1058.55,-9.41"/>
</g>
<!-- Node30&#45;&gt;Node16 -->
<g id="edge60" class="edge">
<title>Node30&#45;&gt;Node16</title>
<path fill="none" stroke="midnightblue" d="M1017.21,-336.48C1031.42,-323.54 1059.78,-298.48 1086,-280 1111.73,-261.86 1127.67,-268.85 1147,-244 1165.48,-220.24 1166,-209.1 1166,-179 1166,-179 1166,-179 1166,-121 1166,-45.86 896.22,-19.72 803.7,-12.97"/>
<polygon fill="midnightblue" stroke="midnightblue" points="803.8,-9.46 793.58,-12.25 803.31,-16.45 803.8,-9.46"/>
</g>
<!-- Node30&#45;&gt;Node24 -->
<g id="edge63" class="edge">
<title>Node30&#45;&gt;Node24</title>
<path fill="none" stroke="midnightblue" d="M994.99,-336.32C982.47,-327.98 963.32,-315.21 948.53,-305.35"/>
<polygon fill="midnightblue" stroke="midnightblue" points="950.24,-302.29 939.98,-299.65 946.36,-308.11 950.24,-302.29"/>
</g>
<!-- Node31 -->
<g id="node31" class="node">
<title>Node31</title>
<g id="a_node31"><a xlink:title=" ">
<polygon fill="none" stroke="#bfbfbf" points="983,-280.5 983,-299.5 1033,-299.5 1033,-280.5 983,-280.5"/>
<text text-anchor="middle" x="1008" y="-287.5" font-family="Helvetica,sans-Serif" font-size="10.00">fstream</text>
</a>
</g>
</g>
<!-- Node30&#45;&gt;Node31 -->
<g id="edge62" class="edge">
<title>Node30&#45;&gt;Node31</title>
<path fill="none" stroke="midnightblue" d="M1008,-336.08C1008,-329.01 1008,-318.86 1008,-309.99"/>
<polygon fill="midnightblue" stroke="midnightblue" points="1011.5,-309.75 1008,-299.75 1004.5,-309.75 1011.5,-309.75"/>
</g>
<!-- Node32 -->
<g id="node32" class="node">
<title>Node32</title>
<g id="a_node32"><a xlink:href="startswith_8hpp.html" target="_top" xlink:title="HELPERS::startswith source file.">
<polygon fill="none" stroke="black" points="1094.5,-280.5 1094.5,-299.5 1213.5,-299.5 1213.5,-280.5 1094.5,-280.5"/>
<text text-anchor="middle" x="1154" y="-287.5" font-family="Helvetica,sans-Serif" font-size="10.00">../helpers/startswith.hpp</text>
</a>
</g>
</g>
<!-- Node30&#45;&gt;Node32 -->
<g id="edge65" class="edge">
<title>Node30&#45;&gt;Node32</title>
<path fill="none" stroke="midnightblue" d="M1031.13,-336.44C1055.48,-327.44 1094.01,-313.19 1121.42,-303.05"/>
<polygon fill="midnightblue" stroke="midnightblue" points="1122.81,-306.27 1130.97,-299.52 1120.38,-299.7 1122.81,-306.27"/>
</g>
<!-- Node32&#45;&gt;Node16 -->
<g id="edge66" class="edge">
<title>Node32&#45;&gt;Node16</title>
<path fill="none" stroke="midnightblue" d="M1160.95,-280.48C1174.69,-262.75 1204,-220.12 1204,-179 1204,-179 1204,-179 1204,-121 1204,-90.2 1204.26,-74.97 1180,-56 1150.47,-32.91 893.31,-17.32 803.66,-12.55"/>
<polygon fill="midnightblue" stroke="midnightblue" points="803.76,-9.05 793.59,-12.02 803.39,-16.04 803.76,-9.05"/>
</g>
<!-- Node33&#45;&gt;Node4 -->
<g id="edge71" class="edge">
<title>Node33&#45;&gt;Node4</title>
<path fill="none" stroke="midnightblue" d="M1086.32,-339.3C1077.61,-338.18 1068.51,-337.04 1060,-336 925.12,-319.52 888.61,-318.53 749.44,-300.01"/>
<polygon fill="midnightblue" stroke="midnightblue" points="749.61,-296.5 739.24,-298.65 748.68,-303.44 749.61,-296.5"/>
</g>
<!-- Node33&#45;&gt;Node14 -->
<g id="edge69" class="edge">
<title>Node33&#45;&gt;Node14</title>
<path fill="none" stroke="midnightblue" d="M1173.51,-339.86C1223.11,-333.15 1300.05,-319.87 1321,-300 1342.84,-279.29 1340,-265.1 1340,-235 1340,-235 1340,-235 1340,-121 1340,-61.71 1138.09,-26.78 1058.09,-15.26"/>
<polygon fill="midnightblue" stroke="midnightblue" points="1058.47,-11.78 1048.08,-13.85 1057.49,-18.71 1058.47,-11.78"/>
</g>
<!-- Node33&#45;&gt;Node24 -->
<g id="edge70" class="edge">
<title>Node33&#45;&gt;Node24</title>
<path fill="none" stroke="midnightblue" d="M1097.83,-336.44C1061.71,-326.83 1003.14,-311.25 964.84,-301.07"/>
<polygon fill="midnightblue" stroke="midnightblue" points="965.66,-297.66 955.09,-298.47 963.86,-304.43 965.66,-297.66"/>
</g>
<!-- Node33&#45;&gt;Node32 -->
<g id="edge72" class="edge">
<title>Node33&#45;&gt;Node32</title>
<path fill="none" stroke="midnightblue" d="M1133.96,-336.08C1137.21,-328.77 1141.92,-318.18 1145.95,-309.1"/>
<polygon fill="midnightblue" stroke="midnightblue" points="1149.25,-310.31 1150.11,-299.75 1142.85,-307.47 1149.25,-310.31"/>
</g>
<!-- Node34 -->
<g id="node34" class="node">
<title>Node34</title>
<g id="a_node34"><a xlink:title=" ">
<polygon fill="none" stroke="#bfbfbf" points="1270,-280.5 1270,-299.5 1312,-299.5 1312,-280.5 1270,-280.5"/>
<text text-anchor="middle" x="1291" y="-287.5" font-family="Helvetica,sans-Serif" font-size="10.00">json.h</text>
</a>
</g>
</g>
<!-- Node33&#45;&gt;Node34 -->
<g id="edge68" class="edge">
<title>Node33&#45;&gt;Node34</title>
<path fill="none" stroke="midnightblue" d="M1155.51,-336.44C1183.87,-326.93 1229.67,-311.57 1260.06,-301.38"/>
<polygon fill="midnightblue" stroke="midnightblue" points="1261.35,-304.64 1269.72,-298.14 1259.13,-298 1261.35,-304.64"/>
</g>
<!-- Node35&#45;&gt;Node16 -->
<g id="edge75" class="edge">
<title>Node35&#45;&gt;Node16</title>
<path fill="none" stroke="midnightblue" d="M55.89,-168.33C61.4,-145.32 79.84,-82.66 122,-56 174.8,-22.61 619.98,-13.35 742.11,-11.43"/>
<polygon fill="midnightblue" stroke="midnightblue" points="742.32,-14.93 752.27,-11.27 742.22,-7.93 742.32,-14.93"/>
</g>
</g>
</svg>
