<?xml version="1.0" encoding="UTF-8" standalone="no"?>
<!DOCTYPE svg PUBLIC "-//W3C//DTD SVG 1.1//EN"
 "http://www.w3.org/Graphics/SVG/1.1/DTD/svg11.dtd">
<!-- Generated by graphviz version 3.0.0 (20220413.0242)
 -->
<!-- Title: main.hpp Pages: 1 -->
<svg width="2767pt" height="364pt"
 viewBox="0.00 0.00 2767.04 364.00" xmlns="http://www.w3.org/2000/svg" xmlns:xlink="http://www.w3.org/1999/xlink">
<g id="graph0" class="graph" transform="scale(1 1) rotate(0) translate(4 360)">
<title>main.hpp</title>
<!-- Node1 -->
<g id="node1" class="node">
<title>Node1</title>
<g id="a_node1"><a xlink:title="Main page documentation.">
<polygon fill="#bfbfbf" stroke="black" points="483.33,-336.5 483.33,-355.5 539.33,-355.5 539.33,-336.5 483.33,-336.5"/>
<text text-anchor="middle" x="511.33" y="-343.5" font-family="Helvetica,sans-Serif" font-size="10.00">main.hpp</text>
</a>
</g>
</g>
<!-- Node2 -->
<g id="node2" class="node">
<title>Node2</title>
<g id="a_node2"><a xlink:href="integrator_8hpp.html" target="_top" xlink:title="ALGEBRA::Integrator source file.">
<polygon fill="none" stroke="black" points="84.33,-280.5 84.33,-299.5 194.33,-299.5 194.33,-280.5 84.33,-280.5"/>
<text text-anchor="middle" x="139.33" y="-287.5" font-family="Helvetica,sans-Serif" font-size="10.00">algebra/integrator.hpp</text>
</a>
</g>
</g>
<!-- Node1&#45;&gt;Node2 -->
<g id="edge1" class="edge">
<title>Node1&#45;&gt;Node2</title>
<path fill="none" stroke="midnightblue" d="M483.07,-340.9C424.07,-332.33 286.48,-312.36 204.39,-300.44"/>
<polygon fill="midnightblue" stroke="midnightblue" points="204.82,-296.97 194.42,-299 203.81,-303.9 204.82,-296.97"/>
</g>
<!-- Node4 -->
<g id="node4" class="node">
<title>Node4</title>
<g id="a_node4"><a xlink:href="model_8hpp.html" target="_top" xlink:title="MODEL::Model source file.">
<polygon fill="none" stroke="black" points="462.33,-224.5 462.33,-243.5 560.33,-243.5 560.33,-224.5 462.33,-224.5"/>
<text text-anchor="middle" x="511.33" y="-231.5" font-family="Helvetica,sans-Serif" font-size="10.00">../model/model.hpp</text>
</a>
</g>
</g>
<!-- Node1&#45;&gt;Node4 -->
<g id="edge92" class="edge">
<title>Node1&#45;&gt;Node4</title>
<path fill="none" stroke="midnightblue" d="M511.33,-336.37C511.33,-318.62 511.33,-277.67 511.33,-253.6"/>
<polygon fill="midnightblue" stroke="midnightblue" points="514.83,-253.59 511.33,-243.59 507.83,-253.59 514.83,-253.59"/>
</g>
<!-- Node14 -->
<g id="node14" class="node">
<title>Node14</title>
<g id="a_node14"><a xlink:href="state_8hpp.html" target="_top" xlink:title="ALGEBRA::State source file.">
<polygon fill="none" stroke="black" points="141.33,-112.5 141.33,-131.5 239.33,-131.5 239.33,-112.5 141.33,-112.5"/>
<text text-anchor="middle" x="190.33" y="-119.5" font-family="Helvetica,sans-Serif" font-size="10.00">../algebra/state.hpp</text>
</a>
</g>
</g>
<!-- Node1&#45;&gt;Node14 -->
<g id="edge26" class="edge">
<title>Node1&#45;&gt;Node14</title>
<path fill="none" stroke="midnightblue" d="M483.14,-344.16C398.82,-341.32 149.8,-330.5 75.33,-300 38.47,-284.9 22.59,-279.91 5.33,-244 -23.5,-184 71.69,-149.75 136.06,-133.91"/>
<polygon fill="midnightblue" stroke="midnightblue" points="137.18,-137.24 146.1,-131.52 135.56,-130.43 137.18,-137.24"/>
</g>
<!-- Node18 -->
<g id="node18" class="node">
<title>Node18</title>
<g id="a_node18"><a xlink:href="debug_8hpp.html" target="_top" xlink:title="HELPERS::DEBUG source file.">
<polygon fill="none" stroke="black" points="2596.83,-224.5 2596.83,-243.5 2691.83,-243.5 2691.83,-224.5 2596.83,-224.5"/>
<text text-anchor="middle" x="2644.33" y="-231.5" font-family="Helvetica,sans-Serif" font-size="10.00">helpers/debug.hpp</text>
</a>
</g>
</g>
<!-- Node1&#45;&gt;Node18 -->
<g id="edge27" class="edge">
<title>Node1&#45;&gt;Node18</title>
<path fill="none" stroke="midnightblue" d="M539.44,-344.76C721.25,-342.94 1749.73,-329.16 2582.33,-244 2583.64,-243.87 2584.97,-243.72 2586.3,-243.58"/>
<polygon fill="midnightblue" stroke="midnightblue" points="2587.15,-247 2596.66,-242.34 2586.31,-240.05 2587.15,-247"/>
</g>
<!-- Node19 -->
<g id="node19" class="node">
<title>Node19</title>
<g id="a_node19"><a xlink:href="endswith_8hpp.html" target="_top" xlink:title="HELPERS::endswith source file.">
<polygon fill="none" stroke="black" points="2499.33,-280.5 2499.33,-299.5 2607.33,-299.5 2607.33,-280.5 2499.33,-280.5"/>
<text text-anchor="middle" x="2553.33" y="-287.5" font-family="Helvetica,sans-Serif" font-size="10.00">helpers/endswith.hpp</text>
</a>
</g>
</g>
<!-- Node1&#45;&gt;Node19 -->
<g id="edge29" class="edge">
<title>Node1&#45;&gt;Node19</title>
<path fill="none" stroke="midnightblue" d="M539.42,-344.26C756.7,-338.51 2169.52,-301.15 2489.13,-292.7"/>
<polygon fill="midnightblue" stroke="midnightblue" points="2489.25,-296.2 2499.16,-292.43 2489.07,-289.2 2489.25,-296.2"/>
</g>
<!-- Node20 -->
<g id="node20" class="node">
<title>Node20</title>
<g id="a_node20"><a xlink:href="configreader_8hpp.html" target="_top" xlink:title="IO::ConfigReader source file.">
<polygon fill="none" stroke="black" points="1538.33,-280.5 1538.33,-299.5 1636.33,-299.5 1636.33,-280.5 1538.33,-280.5"/>
<text text-anchor="middle" x="1587.33" y="-287.5" font-family="Helvetica,sans-Serif" font-size="10.00">io/configreader.hpp</text>
</a>
</g>
</g>
<!-- Node1&#45;&gt;Node20 -->
<g id="edge31" class="edge">
<title>Node1&#45;&gt;Node20</title>
<path fill="none" stroke="midnightblue" d="M539.56,-343.58C682.56,-336.41 1328.01,-304.01 1528.04,-293.98"/>
<polygon fill="midnightblue" stroke="midnightblue" points="1528.25,-297.47 1538.07,-293.47 1527.9,-290.48 1528.25,-297.47"/>
</g>
<!-- Node38 -->
<g id="node38" class="node">
<title>Node38</title>
<g id="a_node38"><a xlink:href="csvwriter_8hpp.html" target="_top" xlink:title="IO::write_csv source file.">
<polygon fill="none" stroke="black" points="238.83,-280.5 238.83,-299.5 323.83,-299.5 323.83,-280.5 238.83,-280.5"/>
<text text-anchor="middle" x="281.33" y="-287.5" font-family="Helvetica,sans-Serif" font-size="10.00">io/csvwriter.hpp</text>
</a>
</g>
</g>
<!-- Node1&#45;&gt;Node38 -->
<g id="edge85" class="edge">
<title>Node1&#45;&gt;Node38</title>
<path fill="none" stroke="midnightblue" d="M483.13,-338.38C444.35,-329.27 374.09,-312.78 327.57,-301.85"/>
<polygon fill="midnightblue" stroke="midnightblue" points="328.27,-298.42 317.73,-299.55 326.67,-305.24 328.27,-298.42"/>
</g>
<!-- Node3 -->
<g id="node3" class="node">
<title>Node3</title>
<g id="a_node3"><a xlink:title=" ">
<polygon fill="none" stroke="#bfbfbf" points="14.83,-224.5 14.83,-243.5 85.83,-243.5 85.83,-224.5 14.83,-224.5"/>
<text text-anchor="middle" x="50.33" y="-231.5" font-family="Helvetica,sans-Serif" font-size="10.00">Eigen/Dense</text>
</a>
</g>
</g>
<!-- Node2&#45;&gt;Node3 -->
<g id="edge2" class="edge">
<title>Node2&#45;&gt;Node3</title>
<path fill="none" stroke="midnightblue" d="M125.04,-280.32C111.15,-271.9 89.84,-258.97 73.53,-249.07"/>
<polygon fill="midnightblue" stroke="midnightblue" points="74.96,-245.85 64.6,-243.65 71.33,-251.83 74.96,-245.85"/>
</g>
<!-- Node2&#45;&gt;Node4 -->
<g id="edge3" class="edge">
<title>Node2&#45;&gt;Node4</title>
<path fill="none" stroke="midnightblue" d="M194.48,-281.22C254.95,-272.65 355.12,-258.36 452.1,-244.02"/>
<polygon fill="midnightblue" stroke="midnightblue" points="452.7,-247.47 462.08,-242.55 451.68,-240.55 452.7,-247.47"/>
</g>
<!-- Node2&#45;&gt;Node14 -->
<g id="edge25" class="edge">
<title>Node2&#45;&gt;Node14</title>
<path fill="none" stroke="midnightblue" d="M141.92,-280.49C147.93,-260.72 163.32,-210.19 176.33,-168 179.05,-159.19 182.09,-149.42 184.64,-141.25"/>
<polygon fill="midnightblue" stroke="midnightblue" points="188,-142.21 187.64,-131.62 181.32,-140.13 188,-142.21"/>
</g>
<!-- Node5 -->
<g id="node5" class="node">
<title>Node5</title>
<g id="a_node5"><a xlink:title=" ">
<polygon fill="none" stroke="#bfbfbf" points="444.33,-168.5 444.33,-187.5 500.33,-187.5 500.33,-168.5 444.33,-168.5"/>
<text text-anchor="middle" x="472.33" y="-175.5" font-family="Helvetica,sans-Serif" font-size="10.00">algorithm</text>
</a>
</g>
</g>
<!-- Node4&#45;&gt;Node5 -->
<g id="edge4" class="edge">
<title>Node4&#45;&gt;Node5</title>
<path fill="none" stroke="midnightblue" d="M504.89,-224.08C499.39,-216.46 491.3,-205.26 484.57,-195.94"/>
<polygon fill="midnightblue" stroke="midnightblue" points="487.35,-193.81 478.65,-187.75 481.67,-197.91 487.35,-193.81"/>
</g>
<!-- Node6 -->
<g id="node6" class="node">
<title>Node6</title>
<g id="a_node6"><a xlink:title=" ">
<polygon fill="none" stroke="#bfbfbf" points="650.83,-168.5 650.83,-187.5 679.83,-187.5 679.83,-168.5 650.83,-168.5"/>
<text text-anchor="middle" x="665.33" y="-175.5" font-family="Helvetica,sans-Serif" font-size="10.00">list</text>
</a>
</g>
</g>
<!-- Node4&#45;&gt;Node6 -->
<g id="edge5" class="edge">
<title>Node4&#45;&gt;Node6</title>
<path fill="none" stroke="midnightblue" d="M535.74,-224.44C564.59,-214.33 612.32,-197.59 641.1,-187.5"/>
<polygon fill="midnightblue" stroke="midnightblue" points="642.5,-190.72 650.78,-184.1 640.18,-184.11 642.5,-190.72"/>
</g>
<!-- Node7 -->
<g id="node7" class="node">
<title>Node7</title>
<g id="a_node7"><a xlink:title=" ">
<polygon fill="none" stroke="#bfbfbf" points="430.33,-0.5 430.33,-19.5 474.33,-19.5 474.33,-0.5 430.33,-0.5"/>
<text text-anchor="middle" x="452.33" y="-7.5" font-family="Helvetica,sans-Serif" font-size="10.00">vector</text>
</a>
</g>
</g>
<!-- Node4&#45;&gt;Node7 -->
<g id="edge6" class="edge">
<title>Node4&#45;&gt;Node7</title>
<path fill="none" stroke="midnightblue" d="M483.32,-224.4C466.16,-217.51 445.59,-205.98 435.33,-188 406.09,-136.7 430.04,-63.23 444.02,-29.37"/>
<polygon fill="midnightblue" stroke="midnightblue" points="447.38,-30.42 448.13,-19.85 440.95,-27.65 447.38,-30.42"/>
</g>
<!-- Node8 -->
<g id="node8" class="node">
<title>Node8</title>
<g id="a_node8"><a xlink:href="sparsesystem_8hpp.html" target="_top" xlink:title="ALGEBRA::SparseSystem source file.">
<polygon fill="none" stroke="black" points="1207.83,-112.5 1207.83,-131.5 1344.83,-131.5 1344.83,-112.5 1207.83,-112.5"/>
<text text-anchor="middle" x="1276.33" y="-119.5" font-family="Helvetica,sans-Serif" font-size="10.00">../algebra/sparsesystem.hpp</text>
</a>
</g>
</g>
<!-- Node4&#45;&gt;Node8 -->
<g id="edge7" class="edge">
<title>Node4&#45;&gt;Node8</title>
<path fill="none" stroke="midnightblue" d="M515.16,-224.28C527.86,-209.59 563.27,-180.31 599.33,-168 707.41,-131.12 1043.1,-124.35 1197.4,-123.19"/>
<polygon fill="midnightblue" stroke="midnightblue" points="1197.77,-126.68 1207.75,-123.12 1197.72,-119.68 1197.77,-126.68"/>
</g>
<!-- Node12 -->
<g id="node12" class="node">
<title>Node12</title>
<g id="a_node12"><a xlink:href="block_8hpp.html" target="_top" xlink:title="MODEL::Block source file.">
<polygon fill="none" stroke="black" points="1343.33,-168.5 1343.33,-187.5 1401.33,-187.5 1401.33,-168.5 1343.33,-168.5"/>
<text text-anchor="middle" x="1372.33" y="-175.5" font-family="Helvetica,sans-Serif" font-size="10.00">block.hpp</text>
</a>
</g>
</g>
<!-- Node4&#45;&gt;Node12 -->
<g id="edge12" class="edge">
<title>Node4&#45;&gt;Node12</title>
<path fill="none" stroke="midnightblue" d="M560.64,-228.05C575.62,-226.63 592.15,-225.16 607.33,-224 884.92,-202.83 1219.83,-186.2 1332.89,-180.84"/>
<polygon fill="midnightblue" stroke="midnightblue" points="1333.3,-184.32 1343.13,-180.35 1332.97,-177.33 1333.3,-184.32"/>
</g>
<!-- Node15 -->
<g id="node15" class="node">
<title>Node15</title>
<g id="a_node15"><a xlink:href="dofhandler_8hpp.html" target="_top" xlink:title="MODEL::DOFHandler source file.">
<polygon fill="none" stroke="black" points="1361.33,-56.5 1361.33,-75.5 1441.33,-75.5 1441.33,-56.5 1361.33,-56.5"/>
<text text-anchor="middle" x="1401.33" y="-63.5" font-family="Helvetica,sans-Serif" font-size="10.00">dofhandler.hpp</text>
</a>
</g>
</g>
<!-- Node4&#45;&gt;Node15 -->
<g id="edge23" class="edge">
<title>Node4&#45;&gt;Node15</title>
<path fill="none" stroke="midnightblue" d="M515.61,-224.47C523.35,-210.07 541.12,-181.2 565.33,-168 574.07,-163.24 1172.24,-93.57 1351.26,-72.8"/>
<polygon fill="midnightblue" stroke="midnightblue" points="1351.67,-76.28 1361.2,-71.65 1350.87,-69.32 1351.67,-76.28"/>
</g>
<!-- Node17 -->
<g id="node17" class="node">
<title>Node17</title>
<g id="a_node17"><a xlink:href="node_8hpp.html" target="_top" xlink:title="MODEL::Node source file.">
<polygon fill="none" stroke="black" points="1401.33,-112.5 1401.33,-131.5 1457.33,-131.5 1457.33,-112.5 1401.33,-112.5"/>
<text text-anchor="middle" x="1429.33" y="-119.5" font-family="Helvetica,sans-Serif" font-size="10.00">node.hpp</text>
</a>
</g>
</g>
<!-- Node4&#45;&gt;Node17 -->
<g id="edge24" class="edge">
<title>Node4&#45;&gt;Node17</title>
<path fill="none" stroke="midnightblue" d="M531.34,-224.49C551.18,-215.88 582.29,-201.88 608.33,-188 623.47,-179.93 624.94,-173.03 641.33,-168 793,-121.47 1196.26,-145.46 1354.33,-132 1366.36,-130.98 1379.43,-129.52 1391.25,-128.09"/>
<polygon fill="midnightblue" stroke="midnightblue" points="1391.76,-131.55 1401.25,-126.84 1390.89,-124.6 1391.76,-131.55"/>
</g>
<!-- Node8&#45;&gt;Node4 -->
<g id="edge11" class="edge">
<title>Node8&#45;&gt;Node4</title>
<path fill="none" stroke="midnightblue" d="M1207.58,-123.18C1061.57,-124.34 725.49,-131.1 617.33,-168 585.77,-178.77 554.72,-202.54 534.17,-218.15"/>
<polygon fill="midnightblue" stroke="midnightblue" points="531.91,-215.47 526.03,-224.28 536.12,-221.06 531.91,-215.47"/>
</g>
<!-- Node9 -->
<g id="node9" class="node">
<title>Node9</title>
<g id="a_node9"><a xlink:title=" ">
<polygon fill="none" stroke="#bfbfbf" points="1240.33,-56.5 1240.33,-75.5 1314.33,-75.5 1314.33,-56.5 1240.33,-56.5"/>
<text text-anchor="middle" x="1277.33" y="-63.5" font-family="Helvetica,sans-Serif" font-size="10.00">Eigen/Sparse</text>
</a>
</g>
</g>
<!-- Node8&#45;&gt;Node9 -->
<g id="edge8" class="edge">
<title>Node8&#45;&gt;Node9</title>
<path fill="none" stroke="midnightblue" d="M1276.5,-112.08C1276.63,-105.01 1276.82,-94.86 1276.98,-85.99"/>
<polygon fill="midnightblue" stroke="midnightblue" points="1280.49,-85.81 1277.17,-75.75 1273.49,-85.68 1280.49,-85.81"/>
</g>
<!-- Node10 -->
<g id="node10" class="node">
<title>Node10</title>
<g id="a_node10"><a xlink:title=" ">
<polygon fill="none" stroke="#bfbfbf" points="1134.33,-56.5 1134.33,-75.5 1222.33,-75.5 1222.33,-56.5 1134.33,-56.5"/>
<text text-anchor="middle" x="1178.33" y="-63.5" font-family="Helvetica,sans-Serif" font-size="10.00">Eigen/SparseLU</text>
</a>
</g>
</g>
<!-- Node8&#45;&gt;Node10 -->
<g id="edge9" class="edge">
<title>Node8&#45;&gt;Node10</title>
<path fill="none" stroke="midnightblue" d="M1260.59,-112.32C1245.02,-103.74 1220.96,-90.49 1202.88,-80.52"/>
<polygon fill="midnightblue" stroke="midnightblue" points="1204.49,-77.42 1194.04,-75.65 1201.11,-83.55 1204.49,-77.42"/>
</g>
<!-- Node11 -->
<g id="node11" class="node">
<title>Node11</title>
<g id="a_node11"><a xlink:title=" ">
<polygon fill="none" stroke="#bfbfbf" points="1495.33,-56.5 1495.33,-75.5 1549.33,-75.5 1549.33,-56.5 1495.33,-56.5"/>
<text text-anchor="middle" x="1522.33" y="-63.5" font-family="Helvetica,sans-Serif" font-size="10.00">iostream</text>
</a>
</g>
</g>
<!-- Node8&#45;&gt;Node11 -->
<g id="edge10" class="edge">
<title>Node8&#45;&gt;Node11</title>
<path fill="none" stroke="midnightblue" d="M1315.31,-112.44C1362.04,-102.19 1439.76,-85.13 1485.51,-75.08"/>
<polygon fill="midnightblue" stroke="midnightblue" points="1486.3,-78.49 1495.32,-72.93 1484.8,-71.66 1486.3,-78.49"/>
</g>
<!-- Node12&#45;&gt;Node7 -->
<g id="edge14" class="edge">
<title>Node12&#45;&gt;Node7</title>
<path fill="none" stroke="midnightblue" d="M1343.28,-171.76C1206.51,-147.08 627.47,-42.6 484.4,-16.79"/>
<polygon fill="midnightblue" stroke="midnightblue" points="484.95,-13.33 474.49,-15 483.71,-20.22 484.95,-13.33"/>
</g>
<!-- Node12&#45;&gt;Node8 -->
<g id="edge15" class="edge">
<title>Node12&#45;&gt;Node8</title>
<path fill="none" stroke="midnightblue" d="M1356.91,-168.32C1341.8,-159.82 1318.52,-146.73 1300.86,-136.8"/>
<polygon fill="midnightblue" stroke="midnightblue" points="1302.15,-133.51 1291.72,-131.65 1298.72,-139.61 1302.15,-133.51"/>
</g>
<!-- Node13 -->
<g id="node13" class="node">
<title>Node13</title>
<g id="a_node13"><a xlink:title=" ">
<polygon fill="none" stroke="#bfbfbf" points="1475.83,-112.5 1475.83,-131.5 1510.83,-131.5 1510.83,-112.5 1475.83,-112.5"/>
<text text-anchor="middle" x="1493.33" y="-119.5" font-family="Helvetica,sans-Serif" font-size="10.00">map</text>
</a>
</g>
</g>
<!-- Node12&#45;&gt;Node13 -->
<g id="edge13" class="edge">
<title>Node12&#45;&gt;Node13</title>
<path fill="none" stroke="midnightblue" d="M1391.51,-168.44C1411.71,-159.43 1443.68,-145.16 1466.41,-135.02"/>
<polygon fill="midnightblue" stroke="midnightblue" points="1468.12,-138.09 1475.82,-130.82 1465.26,-131.69 1468.12,-138.09"/>
</g>
<!-- Node12&#45;&gt;Node14 -->
<g id="edge16" class="edge">
<title>Node12&#45;&gt;Node14</title>
<path fill="none" stroke="midnightblue" d="M1343.12,-175.67C1188.34,-168.59 463.25,-135.47 249.67,-125.71"/>
<polygon fill="midnightblue" stroke="midnightblue" points="249.74,-122.21 239.6,-125.25 249.43,-129.2 249.74,-122.21"/>
</g>
<!-- Node12&#45;&gt;Node15 -->
<g id="edge17" class="edge">
<title>Node12&#45;&gt;Node15</title>
<path fill="none" stroke="midnightblue" d="M1374.61,-168.37C1379.31,-150.54 1390.18,-109.3 1396.52,-85.27"/>
<polygon fill="midnightblue" stroke="midnightblue" points="1399.9,-86.15 1399.07,-75.59 1393.14,-84.37 1399.9,-86.15"/>
</g>
<!-- Node12&#45;&gt;Node17 -->
<g id="edge20" class="edge">
<title>Node12&#45;&gt;Node17</title>
<path fill="none" stroke="midnightblue" d="M1381.49,-168.32C1389.84,-160.42 1402.37,-148.55 1412.51,-138.94"/>
<polygon fill="midnightblue" stroke="midnightblue" points="1415.16,-141.25 1420.01,-131.83 1410.34,-136.17 1415.16,-141.25"/>
</g>
<!-- Node15&#45;&gt;Node7 -->
<g id="edge19" class="edge">
<title>Node15&#45;&gt;Node7</title>
<path fill="none" stroke="midnightblue" d="M1361.3,-59.89C1349.13,-58.47 1335.7,-57.03 1323.33,-56 996.63,-28.74 599.51,-15.4 484.79,-11.94"/>
<polygon fill="midnightblue" stroke="midnightblue" points="484.68,-8.43 474.58,-11.63 484.47,-15.43 484.68,-8.43"/>
</g>
<!-- Node16 -->
<g id="node16" class="node">
<title>Node16</title>
<g id="a_node16"><a xlink:title=" ">
<polygon fill="none" stroke="#bfbfbf" points="1533.83,-0.5 1533.83,-19.5 1574.83,-19.5 1574.83,-0.5 1533.83,-0.5"/>
<text text-anchor="middle" x="1554.33" y="-7.5" font-family="Helvetica,sans-Serif" font-size="10.00">string</text>
</a>
</g>
</g>
<!-- Node15&#45;&gt;Node16 -->
<g id="edge18" class="edge">
<title>Node15&#45;&gt;Node16</title>
<path fill="none" stroke="midnightblue" d="M1425.58,-56.44C1452.26,-47.03 1495.19,-31.87 1524.06,-21.68"/>
<polygon fill="midnightblue" stroke="midnightblue" points="1525.37,-24.93 1533.64,-18.3 1523.04,-18.33 1525.37,-24.93"/>
</g>
<!-- Node17&#45;&gt;Node15 -->
<g id="edge22" class="edge">
<title>Node17&#45;&gt;Node15</title>
<path fill="none" stroke="midnightblue" d="M1424.71,-112.08C1420.88,-104.69 1415.31,-93.95 1410.57,-84.81"/>
<polygon fill="midnightblue" stroke="midnightblue" points="1413.58,-83.02 1405.87,-75.75 1407.37,-86.24 1413.58,-83.02"/>
</g>
<!-- Node17&#45;&gt;Node16 -->
<g id="edge21" class="edge">
<title>Node17&#45;&gt;Node16</title>
<path fill="none" stroke="midnightblue" d="M1457.48,-113.06C1493.58,-102.59 1552.29,-84.51 1558.33,-76 1567.93,-62.48 1565.23,-43.13 1561.16,-29.06"/>
<polygon fill="midnightblue" stroke="midnightblue" points="1564.46,-27.88 1557.96,-19.51 1557.82,-30.1 1564.46,-27.88"/>
</g>
<!-- Node18&#45;&gt;Node11 -->
<g id="edge28" class="edge">
<title>Node18&#45;&gt;Node11</title>
<path fill="none" stroke="midnightblue" d="M2605.64,-224.46C2505.76,-202.7 2230.9,-144.57 1999.33,-112 1836.35,-89.07 1640.36,-74.7 1559.74,-69.36"/>
<polygon fill="midnightblue" stroke="midnightblue" points="1559.8,-65.86 1549.6,-68.7 1559.35,-72.84 1559.8,-65.86"/>
</g>
<!-- Node19&#45;&gt;Node16 -->
<g id="edge30" class="edge">
<title>Node19&#45;&gt;Node16</title>
<path fill="none" stroke="midnightblue" d="M2607.7,-285.71C2643.78,-281.05 2690.37,-270 2723.33,-244 2749.1,-223.68 2758.33,-211.81 2758.33,-179 2758.33,-179 2758.33,-179 2758.33,-121 2758.33,-111.91 2787.19,-97.51 2447.33,-56 2111.1,-14.94 1699.25,-11.18 1584.99,-10.97"/>
<polygon fill="midnightblue" stroke="midnightblue" points="1584.87,-7.47 1574.87,-10.96 1584.87,-14.47 1584.87,-7.47"/>
</g>
<!-- Node20&#45;&gt;Node4 -->
<g id="edge64" class="edge">
<title>Node20&#45;&gt;Node4</title>
<path fill="none" stroke="midnightblue" d="M1538.2,-288.51C1391.46,-286.7 943.73,-278.51 574.33,-244 573.07,-243.88 571.78,-243.76 570.49,-243.62"/>
<polygon fill="midnightblue" stroke="midnightblue" points="570.79,-240.13 560.46,-242.49 570,-247.09 570.79,-240.13"/>
</g>
<!-- Node20&#45;&gt;Node6 -->
<g id="edge32" class="edge">
<title>Node20&#45;&gt;Node6</title>
<path fill="none" stroke="midnightblue" d="M1538.23,-288.61C1344.17,-286.81 639.78,-277.97 607.33,-244 590.17,-226.02 618.95,-204.34 641.76,-191.12"/>
<polygon fill="midnightblue" stroke="midnightblue" points="643.65,-194.07 650.71,-186.16 640.26,-187.94 643.65,-194.07"/>
</g>
<!-- Node20&#45;&gt;Node16 -->
<g id="edge34" class="edge">
<title>Node20&#45;&gt;Node16</title>
<path fill="none" stroke="midnightblue" d="M1636.68,-288.6C1846.89,-286.69 2658.87,-277.19 2701.33,-244 2725.05,-225.47 2720.33,-209.1 2720.33,-179 2720.33,-179 2720.33,-179 2720.33,-121 2720.33,-62.25 1769.75,-19.91 1585.17,-12.25"/>
<polygon fill="midnightblue" stroke="midnightblue" points="1585.2,-8.75 1575.07,-11.83 1584.91,-15.74 1585.2,-8.75"/>
</g>
<!-- Node20&#45;&gt;Node17 -->
<g id="edge65" class="edge">
<title>Node20&#45;&gt;Node17</title>
<path fill="none" stroke="midnightblue" d="M1636.45,-287.62C1830.43,-282.03 2533.42,-260.68 2549.33,-244 2555.47,-237.57 2555.26,-230.62 2549.33,-224 2507.67,-177.46 1481.92,-134.17 1467.33,-132 1467.23,-131.99 1467.13,-131.97 1467.03,-131.95"/>
<polygon fill="midnightblue" stroke="midnightblue" points="1467.92,-128.56 1457.45,-130.22 1466.67,-135.45 1467.92,-128.56"/>
</g>
<!-- Node20&#45;&gt;Node18 -->
<g id="edge35" class="edge">
<title>Node20&#45;&gt;Node18</title>
<path fill="none" stroke="midnightblue" d="M1636.37,-288.5C1781.31,-286.65 2220.18,-278.39 2582.33,-244 2583.64,-243.88 2584.97,-243.74 2586.3,-243.6"/>
<polygon fill="midnightblue" stroke="midnightblue" points="2587.13,-247.03 2596.66,-242.41 2586.33,-240.08 2587.13,-247.03"/>
</g>
<!-- Node21 -->
<g id="node21" class="node">
<title>Node21</title>
<g id="a_node21"><a xlink:title=" ">
<polygon fill="none" stroke="#bfbfbf" points="1742.83,-224.5 1742.83,-243.5 1801.83,-243.5 1801.83,-224.5 1742.83,-224.5"/>
<text text-anchor="middle" x="1772.33" y="-231.5" font-family="Helvetica,sans-Serif" font-size="10.00">stdexcept</text>
</a>
</g>
</g>
<!-- Node20&#45;&gt;Node21 -->
<g id="edge33" class="edge">
<title>Node20&#45;&gt;Node21</title>
<path fill="none" stroke="midnightblue" d="M1616.65,-280.44C1648.18,-271.24 1698.47,-256.56 1733.32,-246.39"/>
<polygon fill="midnightblue" stroke="midnightblue" points="1734.54,-249.68 1743.16,-243.52 1732.58,-242.96 1734.54,-249.68"/>
</g>
<!-- Node22 -->
<g id="node22" class="node">
<title>Node22</title>
<g id="a_node22"><a xlink:href="startswith_8hpp.html" target="_top" xlink:title="HELPERS::startswith source file.">
<polygon fill="none" stroke="black" points="324.83,-224.5 324.83,-243.5 443.83,-243.5 443.83,-224.5 324.83,-224.5"/>
<text text-anchor="middle" x="384.33" y="-231.5" font-family="Helvetica,sans-Serif" font-size="10.00">../helpers/startswith.hpp</text>
</a>
</g>
</g>
<!-- Node20&#45;&gt;Node22 -->
<g id="edge36" class="edge">
<title>Node20&#45;&gt;Node22</title>
<path fill="none" stroke="midnightblue" d="M1538.33,-288.63C1381.87,-287.12 880.16,-279.68 454.19,-243.98"/>
<polygon fill="midnightblue" stroke="midnightblue" points="454.4,-240.49 444.14,-243.14 453.81,-247.46 454.4,-240.49"/>
</g>
<!-- Node23 -->
<g id="node23" class="node">
<title>Node23</title>
<g id="a_node23"><a xlink:href="bloodvessel_8hpp.html" target="_top" xlink:title="MODEL::BloodVessel source file.">
<polygon fill="none" stroke="black" points="1601.83,-224.5 1601.83,-243.5 1724.83,-243.5 1724.83,-224.5 1601.83,-224.5"/>
<text text-anchor="middle" x="1663.33" y="-231.5" font-family="Helvetica,sans-Serif" font-size="10.00">../model/bloodvessel.hpp</text>
</a>
</g>
</g>
<!-- Node20&#45;&gt;Node23 -->
<g id="edge38" class="edge">
<title>Node20&#45;&gt;Node23</title>
<path fill="none" stroke="midnightblue" d="M1599.55,-280.32C1611.11,-272.11 1628.71,-259.6 1642.5,-249.81"/>
<polygon fill="midnightblue" stroke="midnightblue" points="1644.78,-252.48 1650.9,-243.83 1640.72,-246.77 1644.78,-252.48"/>
</g>
<!-- Node25 -->
<g id="node25" class="node">
<title>Node25</title>
<g id="a_node25"><a xlink:href="closedloop_r_c_rbc_8hpp.html" target="_top" xlink:title="MODEL::ClosedLoopRCRBC source file.">
<polygon fill="none" stroke="black" points="967.83,-224.5 967.83,-243.5 1116.83,-243.5 1116.83,-224.5 967.83,-224.5"/>
<text text-anchor="middle" x="1042.33" y="-231.5" font-family="Helvetica,sans-Serif" font-size="10.00">../model/closedloopRCRbc.hpp</text>
</a>
</g>
</g>
<!-- Node20&#45;&gt;Node25 -->
<g id="edge42" class="edge">
<title>Node20&#45;&gt;Node25</title>
<path fill="none" stroke="midnightblue" d="M1538.2,-284.36C1455.72,-276.53 1283.92,-260.08 1127.28,-244.09"/>
<polygon fill="midnightblue" stroke="midnightblue" points="1127.29,-240.57 1116.99,-243.04 1126.58,-247.53 1127.29,-240.57"/>
</g>
<!-- Node26 -->
<g id="node26" class="node">
<title>Node26</title>
<g id="a_node26"><a xlink:href="closedloopcoronarybc_8hpp_source.html" target="_top" xlink:title=" ">
<polygon fill="none" stroke="black" points="1134.83,-224.5 1134.83,-243.5 1299.83,-243.5 1299.83,-224.5 1134.83,-224.5"/>
<text text-anchor="middle" x="1217.33" y="-231.5" font-family="Helvetica,sans-Serif" font-size="10.00">../model/closedloopcoronarybc.hpp</text>
</a>
</g>
</g>
<!-- Node20&#45;&gt;Node26 -->
<g id="edge45" class="edge">
<title>Node20&#45;&gt;Node26</title>
<path fill="none" stroke="midnightblue" d="M1538.2,-281.83C1473.43,-272.38 1359.13,-255.7 1285.88,-245"/>
<polygon fill="midnightblue" stroke="midnightblue" points="1286.23,-241.52 1275.83,-243.54 1285.22,-248.44 1286.23,-241.52"/>
</g>
<!-- Node27 -->
<g id="node27" class="node">
<title>Node27</title>
<g id="a_node27"><a xlink:href="closedloopheartpulmonary_8hpp.html" target="_top" xlink:title="MODEL::ClosedLoopHeartPulmonary source file.">
<polygon fill="none" stroke="black" points="616.33,-224.5 616.33,-243.5 800.33,-243.5 800.33,-224.5 616.33,-224.5"/>
<text text-anchor="middle" x="708.33" y="-231.5" font-family="Helvetica,sans-Serif" font-size="10.00">../model/closedloopheartpulmonary.hpp</text>
</a>
</g>
</g>
<!-- Node20&#45;&gt;Node27 -->
<g id="edge48" class="edge">
<title>Node20&#45;&gt;Node27</title>
<path fill="none" stroke="midnightblue" d="M1538.21,-286.67C1415.42,-280.73 1085.25,-264.08 810.33,-244 810.23,-243.99 810.13,-243.99 810.03,-243.98"/>
<polygon fill="midnightblue" stroke="midnightblue" points="810.58,-240.51 800.34,-243.25 810.05,-247.49 810.58,-240.51"/>
</g>
<!-- Node28 -->
<g id="node28" class="node">
<title>Node28</title>
<g id="a_node28"><a xlink:href="flowreferencebc_8hpp.html" target="_top" xlink:title="MODEL::FlowReferenceBC source file.">
<polygon fill="none" stroke="black" points="2046.33,-224.5 2046.33,-243.5 2186.33,-243.5 2186.33,-224.5 2046.33,-224.5"/>
<text text-anchor="middle" x="2116.33" y="-231.5" font-family="Helvetica,sans-Serif" font-size="10.00">../model/flowreferencebc.hpp</text>
</a>
</g>
</g>
<!-- Node20&#45;&gt;Node28 -->
<g id="edge53" class="edge">
<title>Node20&#45;&gt;Node28</title>
<path fill="none" stroke="midnightblue" d="M1636.63,-284.29C1717.67,-276.51 1884.37,-260.29 2036.15,-244.11"/>
<polygon fill="midnightblue" stroke="midnightblue" points="2036.56,-247.59 2046.13,-243.05 2035.81,-240.63 2036.56,-247.59"/>
</g>
<!-- Node31 -->
<g id="node31" class="node">
<title>Node31</title>
<g id="a_node31"><a xlink:href="junction_8hpp.html" target="_top" xlink:title="MODEL::Junction source file.">
<polygon fill="none" stroke="black" points="1317.83,-224.5 1317.83,-243.5 1422.83,-243.5 1422.83,-224.5 1317.83,-224.5"/>
<text text-anchor="middle" x="1370.33" y="-231.5" font-family="Helvetica,sans-Serif" font-size="10.00">../model/junction.hpp</text>
</a>
</g>
</g>
<!-- Node20&#45;&gt;Node31 -->
<g id="edge61" class="edge">
<title>Node20&#45;&gt;Node31</title>
<path fill="none" stroke="midnightblue" d="M1552.95,-280.44C1515.41,-271.1 1455.2,-256.12 1414.27,-245.93"/>
<polygon fill="midnightblue" stroke="midnightblue" points="1415.11,-242.53 1404.56,-243.52 1413.42,-249.33 1415.11,-242.53"/>
</g>
<!-- Node32 -->
<g id="node32" class="node">
<title>Node32</title>
<g id="a_node32"><a xlink:href="openloopcoronarybc_8hpp.html" target="_top" xlink:title="MODEL::ClosedLoopCoronaryBC source file.">
<polygon fill="none" stroke="black" points="2204.33,-224.5 2204.33,-243.5 2362.33,-243.5 2362.33,-224.5 2204.33,-224.5"/>
<text text-anchor="middle" x="2283.33" y="-231.5" font-family="Helvetica,sans-Serif" font-size="10.00">../model/openloopcoronarybc.hpp</text>
</a>
</g>
</g>
<!-- Node20&#45;&gt;Node32 -->
<g id="edge66" class="edge">
<title>Node20&#45;&gt;Node32</title>
<path fill="none" stroke="midnightblue" d="M1636.63,-285.82C1738.56,-279.15 1980.18,-262.8 2194.03,-244.09"/>
<polygon fill="midnightblue" stroke="midnightblue" points="2194.54,-247.56 2204.19,-243.2 2193.92,-240.59 2194.54,-247.56"/>
</g>
<!-- Node33 -->
<g id="node33" class="node">
<title>Node33</title>
<g id="a_node33"><a xlink:href="pressurereferencebc_8hpp.html" target="_top" xlink:title="MODEL::PressureReferenceBC source file.">
<polygon fill="none" stroke="black" points="2380.33,-224.5 2380.33,-243.5 2540.33,-243.5 2540.33,-224.5 2380.33,-224.5"/>
<text text-anchor="middle" x="2460.33" y="-231.5" font-family="Helvetica,sans-Serif" font-size="10.00">../model/pressurereferencebc.hpp</text>
</a>
</g>
</g>
<!-- Node20&#45;&gt;Node33 -->
<g id="edge70" class="edge">
<title>Node20&#45;&gt;Node33</title>
<path fill="none" stroke="midnightblue" d="M1636.46,-286.92C1758.59,-281.6 2085.95,-266.35 2370.2,-244.06"/>
<polygon fill="midnightblue" stroke="midnightblue" points="2370.6,-247.54 2380.3,-243.26 2370.05,-240.56 2370.6,-247.54"/>
</g>
<!-- Node34 -->
<g id="node34" class="node">
<title>Node34</title>
<g id="a_node34"><a xlink:href="resistancebc_8hpp.html" target="_top" xlink:title="MODEL::ResistanceBC source file.">
<polygon fill="none" stroke="black" points="1900.83,-224.5 1900.83,-243.5 2027.83,-243.5 2027.83,-224.5 1900.83,-224.5"/>
<text text-anchor="middle" x="1964.33" y="-231.5" font-family="Helvetica,sans-Serif" font-size="10.00">../model/resistancebc.hpp</text>
</a>
</g>
</g>
<!-- Node20&#45;&gt;Node34 -->
<g id="edge74" class="edge">
<title>Node20&#45;&gt;Node34</title>
<path fill="none" stroke="midnightblue" d="M1636.62,-281.94C1702.48,-272.51 1819.57,-255.74 1894.5,-245"/>
<polygon fill="midnightblue" stroke="midnightblue" points="1895.38,-248.41 1904.78,-243.53 1894.39,-241.48 1895.38,-248.41"/>
</g>
<!-- Node35 -->
<g id="node35" class="node">
<title>Node35</title>
<g id="a_node35"><a xlink:href="resistivejunction_8hpp.html" target="_top" xlink:title="MODEL::ResistiveJunction source file.">
<polygon fill="none" stroke="black" points="1441.33,-224.5 1441.33,-243.5 1583.33,-243.5 1583.33,-224.5 1441.33,-224.5"/>
<text text-anchor="middle" x="1512.33" y="-231.5" font-family="Helvetica,sans-Serif" font-size="10.00">../model/resistivejunction.hpp</text>
</a>
</g>
</g>
<!-- Node20&#45;&gt;Node35 -->
<g id="edge78" class="edge">
<title>Node20&#45;&gt;Node35</title>
<path fill="none" stroke="midnightblue" d="M1575.28,-280.32C1563.87,-272.11 1546.5,-259.6 1532.9,-249.81"/>
<polygon fill="midnightblue" stroke="midnightblue" points="1534.76,-246.84 1524.6,-243.83 1530.67,-252.52 1534.76,-246.84"/>
</g>
<!-- Node36 -->
<g id="node36" class="node">
<title>Node36</title>
<g id="a_node36"><a xlink:href="windkesselbc_8hpp.html" target="_top" xlink:title="MODEL::WindkesselBC source file.">
<polygon fill="none" stroke="black" points="818.83,-224.5 818.83,-243.5 949.83,-243.5 949.83,-224.5 818.83,-224.5"/>
<text text-anchor="middle" x="884.33" y="-231.5" font-family="Helvetica,sans-Serif" font-size="10.00">../model/windkesselbc.hpp</text>
</a>
</g>
</g>
<!-- Node20&#45;&gt;Node36 -->
<g id="edge81" class="edge">
<title>Node20&#45;&gt;Node36</title>
<path fill="none" stroke="midnightblue" d="M1538.01,-286.27C1433.58,-280.32 1182.27,-265.08 960.37,-244.05"/>
<polygon fill="midnightblue" stroke="midnightblue" points="960.45,-240.55 950.17,-243.08 959.79,-247.51 960.45,-240.55"/>
</g>
<!-- Node37 -->
<g id="node37" class="node">
<title>Node37</title>
<g id="a_node37"><a xlink:title=" ">
<polygon fill="none" stroke="#bfbfbf" points="1819.83,-224.5 1819.83,-243.5 1882.83,-243.5 1882.83,-224.5 1819.83,-224.5"/>
<text text-anchor="middle" x="1851.33" y="-231.5" font-family="Helvetica,sans-Serif" font-size="10.00">simdjson.h</text>
</a>
</g>
</g>
<!-- Node20&#45;&gt;Node37 -->
<g id="edge84" class="edge">
<title>Node20&#45;&gt;Node37</title>
<path fill="none" stroke="midnightblue" d="M1631.6,-280.42C1674.71,-271.99 1742.35,-258.59 1809.56,-244.35"/>
<polygon fill="midnightblue" stroke="midnightblue" points="1810.42,-247.74 1819.47,-242.24 1808.96,-240.89 1810.42,-247.74"/>
</g>
<!-- Node22&#45;&gt;Node16 -->
<g id="edge37" class="edge">
<title>Node22&#45;&gt;Node16</title>
<path fill="none" stroke="midnightblue" d="M388.54,-224.12C395.85,-209.73 412.36,-181.56 435.33,-168 702.89,-10.08 817.39,-97.11 1125.33,-56 1274.31,-36.11 1453.37,-19.75 1523.78,-13.61"/>
<polygon fill="midnightblue" stroke="midnightblue" points="1524.09,-17.1 1533.75,-12.74 1523.48,-10.12 1524.09,-17.1"/>
</g>
<!-- Node23&#45;&gt;Node8 -->
<g id="edge40" class="edge">
<title>Node23&#45;&gt;Node8</title>
<path fill="none" stroke="midnightblue" d="M1634.65,-224.42C1592.39,-211.81 1510.9,-187.67 1441.33,-168 1399.52,-156.18 1351.58,-143.16 1318.2,-134.19"/>
<polygon fill="midnightblue" stroke="midnightblue" points="1318.89,-130.75 1308.32,-131.54 1317.07,-137.51 1318.89,-130.75"/>
</g>
<!-- Node23&#45;&gt;Node12 -->
<g id="edge41" class="edge">
<title>Node23&#45;&gt;Node12</title>
<path fill="none" stroke="midnightblue" d="M1617.22,-224.44C1560.43,-213.9 1464.94,-196.18 1411.53,-186.27"/>
<polygon fill="midnightblue" stroke="midnightblue" points="1411.9,-182.78 1401.43,-184.4 1410.62,-189.66 1411.9,-182.78"/>
</g>
<!-- Node24 -->
<g id="node24" class="node">
<title>Node24</title>
<g id="a_node24"><a xlink:title=" ">
<polygon fill="none" stroke="#bfbfbf" points="1529.33,-112.5 1529.33,-131.5 1575.33,-131.5 1575.33,-112.5 1529.33,-112.5"/>
<text text-anchor="middle" x="1552.33" y="-119.5" font-family="Helvetica,sans-Serif" font-size="10.00">math.h</text>
</a>
</g>
</g>
<!-- Node23&#45;&gt;Node24 -->
<g id="edge39" class="edge">
<title>Node23&#45;&gt;Node24</title>
<path fill="none" stroke="midnightblue" d="M1654.62,-224.37C1635.98,-205.89 1591.98,-162.29 1568.22,-138.74"/>
<polygon fill="midnightblue" stroke="midnightblue" points="1570.57,-136.14 1561,-131.59 1565.64,-141.12 1570.57,-136.14"/>
</g>
<!-- Node25&#45;&gt;Node8 -->
<g id="edge43" class="edge">
<title>Node25&#45;&gt;Node8</title>
<path fill="none" stroke="midnightblue" d="M1060.7,-224.37C1101.62,-205.13 1200.5,-158.65 1248.83,-135.93"/>
<polygon fill="midnightblue" stroke="midnightblue" points="1250.5,-139.01 1258.06,-131.59 1247.52,-132.68 1250.5,-139.01"/>
</g>
<!-- Node25&#45;&gt;Node12 -->
<g id="edge44" class="edge">
<title>Node25&#45;&gt;Node12</title>
<path fill="none" stroke="midnightblue" d="M1102.4,-224.49C1160.57,-216.03 1251.2,-202.29 1329.33,-188 1330.6,-187.77 1331.89,-187.53 1333.18,-187.28"/>
<polygon fill="midnightblue" stroke="midnightblue" points="1334.1,-190.67 1343.23,-185.3 1332.74,-183.8 1334.1,-190.67"/>
</g>
<!-- Node26&#45;&gt;Node8 -->
<g id="edge46" class="edge">
<title>Node26&#45;&gt;Node8</title>
<path fill="none" stroke="midnightblue" d="M1221.96,-224.37C1231.61,-206.38 1254.05,-164.55 1266.88,-140.63"/>
<polygon fill="midnightblue" stroke="midnightblue" points="1270.08,-142.06 1271.73,-131.59 1263.92,-138.75 1270.08,-142.06"/>
</g>
<!-- Node26&#45;&gt;Node12 -->
<g id="edge47" class="edge">
<title>Node26&#45;&gt;Node12</title>
<path fill="none" stroke="midnightblue" d="M1241.89,-224.44C1267.86,-215.4 1309,-201.06 1338.13,-190.92"/>
<polygon fill="midnightblue" stroke="midnightblue" points="1339.6,-194.11 1347.89,-187.52 1337.29,-187.5 1339.6,-194.11"/>
</g>
<!-- Node27&#45;&gt;Node8 -->
<g id="edge50" class="edge">
<title>Node27&#45;&gt;Node8</title>
<path fill="none" stroke="midnightblue" d="M751.56,-224.47C814.91,-211.98 936.68,-188.03 1040.33,-168 1102.27,-156.03 1173.4,-142.5 1221.24,-133.43"/>
<polygon fill="midnightblue" stroke="midnightblue" points="1221.91,-136.86 1231.08,-131.56 1220.6,-129.98 1221.91,-136.86"/>
</g>
<!-- Node27&#45;&gt;Node12 -->
<g id="edge52" class="edge">
<title>Node27&#45;&gt;Node12</title>
<path fill="none" stroke="midnightblue" d="M800.35,-224.8C803.72,-224.53 807.06,-224.26 810.33,-224 1040.84,-205.84 1100.31,-219.76 1329.33,-188 1330.61,-187.82 1331.9,-187.63 1333.21,-187.43"/>
<polygon fill="midnightblue" stroke="midnightblue" points="1334.05,-190.83 1343.28,-185.64 1332.83,-183.94 1334.05,-190.83"/>
</g>
<!-- Node27&#45;&gt;Node14 -->
<g id="edge51" class="edge">
<title>Node27&#45;&gt;Node14</title>
<path fill="none" stroke="midnightblue" d="M708.49,-224.18C708.22,-209.88 705.39,-181.83 688.33,-168 654.88,-140.88 374.11,-128.77 249.5,-124.69"/>
<polygon fill="midnightblue" stroke="midnightblue" points="249.48,-121.19 239.37,-124.36 249.25,-128.18 249.48,-121.19"/>
</g>
<!-- Node27&#45;&gt;Node24 -->
<g id="edge49" class="edge">
<title>Node27&#45;&gt;Node24</title>
<path fill="none" stroke="midnightblue" d="M789.57,-224.47C962.61,-206.05 1363.79,-161.94 1519.14,-131.95"/>
<polygon fill="midnightblue" stroke="midnightblue" points="1519.88,-135.37 1529.01,-130 1518.53,-128.5 1519.88,-135.37"/>
</g>
<!-- Node28&#45;&gt;Node8 -->
<g id="edge54" class="edge">
<title>Node28&#45;&gt;Node8</title>
<path fill="none" stroke="midnightblue" d="M2046.12,-225C2043.15,-224.66 2040.21,-224.33 2037.33,-224 1896.01,-207.95 1860.39,-206.33 1719.33,-188 1584.33,-170.46 1426.72,-146.5 1340.61,-133.11"/>
<polygon fill="midnightblue" stroke="midnightblue" points="1340.89,-129.61 1330.47,-131.53 1339.81,-136.53 1340.89,-129.61"/>
</g>
<!-- Node28&#45;&gt;Node12 -->
<g id="edge55" class="edge">
<title>Node28&#45;&gt;Node12</title>
<path fill="none" stroke="midnightblue" d="M2046.14,-224.83C2043.17,-224.54 2040.22,-224.26 2037.33,-224 1800.26,-202.49 1514.78,-186.49 1411.78,-181.04"/>
<polygon fill="midnightblue" stroke="midnightblue" points="1411.71,-177.53 1401.54,-180.5 1411.34,-184.52 1411.71,-177.53"/>
</g>
<!-- Node29 -->
<g id="node29" class="node">
<title>Node29</title>
<g id="a_node29"><a xlink:href="timedependentparameter_8hpp.html" target="_top" xlink:title="MODEL::TimeDependentParameter source file.">
<polygon fill="none" stroke="black" points="1893.33,-168.5 1893.33,-187.5 2035.33,-187.5 2035.33,-168.5 1893.33,-168.5"/>
<text text-anchor="middle" x="1964.33" y="-175.5" font-family="Helvetica,sans-Serif" font-size="10.00">timedependentparameter.hpp</text>
</a>
</g>
</g>
<!-- Node28&#45;&gt;Node29 -->
<g id="edge56" class="edge">
<title>Node28&#45;&gt;Node29</title>
<path fill="none" stroke="midnightblue" d="M2092.25,-224.44C2066.79,-215.4 2026.44,-201.06 1997.88,-190.92"/>
<polygon fill="midnightblue" stroke="midnightblue" points="1998.9,-187.57 1988.31,-187.52 1996.56,-194.16 1998.9,-187.57"/>
</g>
<!-- Node29&#45;&gt;Node7 -->
<g id="edge59" class="edge">
<title>Node29&#45;&gt;Node7</title>
<path fill="none" stroke="midnightblue" d="M1942.78,-168.49C1882.95,-145.31 1709.24,-81.15 1558.33,-56 1343.85,-20.25 644.31,-12.54 484.88,-11.23"/>
<polygon fill="midnightblue" stroke="midnightblue" points="484.78,-7.73 474.76,-11.15 484.73,-14.73 484.78,-7.73"/>
</g>
<!-- Node29&#45;&gt;Node15 -->
<g id="edge60" class="edge">
<title>Node29&#45;&gt;Node15</title>
<path fill="none" stroke="midnightblue" d="M1893.2,-170.05C1809.48,-161.43 1675.71,-146.12 1627.33,-132 1607.1,-126.09 1604.22,-118.99 1584.33,-112 1540.47,-96.57 1488.9,-84.4 1451.7,-76.63"/>
<polygon fill="midnightblue" stroke="midnightblue" points="1452.11,-73.14 1441.61,-74.56 1450.7,-80 1452.11,-73.14"/>
</g>
<!-- Node29&#45;&gt;Node24 -->
<g id="edge57" class="edge">
<title>Node29&#45;&gt;Node24</title>
<path fill="none" stroke="midnightblue" d="M1893.11,-171C1817.4,-164.03 1694.35,-151 1589.33,-132 1588.05,-131.77 1586.75,-131.52 1585.44,-131.26"/>
<polygon fill="midnightblue" stroke="midnightblue" points="1585.85,-127.76 1575.34,-129.04 1584.36,-134.6 1585.85,-127.76"/>
</g>
<!-- Node30 -->
<g id="node30" class="node">
<title>Node30</title>
<g id="a_node30"><a xlink:title=" ">
<polygon fill="none" stroke="#bfbfbf" points="1938.83,-112.5 1938.83,-131.5 1989.83,-131.5 1989.83,-112.5 1938.83,-112.5"/>
<text text-anchor="middle" x="1964.33" y="-119.5" font-family="Helvetica,sans-Serif" font-size="10.00">numeric</text>
</a>
</g>
</g>
<!-- Node29&#45;&gt;Node30 -->
<g id="edge58" class="edge">
<title>Node29&#45;&gt;Node30</title>
<path fill="none" stroke="midnightblue" d="M1964.33,-168.08C1964.33,-161.01 1964.33,-150.86 1964.33,-141.99"/>
<polygon fill="midnightblue" stroke="midnightblue" points="1967.83,-141.75 1964.33,-131.75 1960.83,-141.75 1967.83,-141.75"/>
</g>
<!-- Node31&#45;&gt;Node8 -->
<g id="edge62" class="edge">
<title>Node31&#45;&gt;Node8</title>
<path fill="none" stroke="midnightblue" d="M1362.96,-224.37C1347.31,-206.05 1310.56,-163.05 1290.32,-139.36"/>
<polygon fill="midnightblue" stroke="midnightblue" points="1292.83,-136.92 1283.68,-131.59 1287.51,-141.47 1292.83,-136.92"/>
</g>
<!-- Node31&#45;&gt;Node12 -->
<g id="edge63" class="edge">
<title>Node31&#45;&gt;Node12</title>
<path fill="none" stroke="midnightblue" d="M1370.66,-224.08C1370.93,-217.01 1371.3,-206.86 1371.63,-197.99"/>
<polygon fill="midnightblue" stroke="midnightblue" points="1375.14,-197.87 1372.01,-187.75 1368.14,-197.61 1375.14,-197.87"/>
</g>
<!-- Node32&#45;&gt;Node8 -->
<g id="edge67" class="edge">
<title>Node32&#45;&gt;Node8</title>
<path fill="none" stroke="midnightblue" d="M2204.18,-224.88C2201.2,-224.58 2198.24,-224.29 2195.33,-224 2028.72,-207.48 1986.72,-206.72 1820.33,-188 1751.31,-180.24 1734.28,-176.44 1665.33,-168 1557.97,-154.86 1433.8,-140.67 1355.19,-131.81"/>
<polygon fill="midnightblue" stroke="midnightblue" points="1355.21,-128.29 1344.88,-130.65 1354.42,-135.25 1355.21,-128.29"/>
</g>
<!-- Node32&#45;&gt;Node12 -->
<g id="edge68" class="edge">
<title>Node32&#45;&gt;Node12</title>
<path fill="none" stroke="midnightblue" d="M2204.2,-224.73C2201.21,-224.47 2198.24,-224.23 2195.33,-224 1894.15,-200.38 1529.98,-185.11 1411.57,-180.49"/>
<polygon fill="midnightblue" stroke="midnightblue" points="1411.65,-176.99 1401.53,-180.1 1411.38,-183.98 1411.65,-176.99"/>
</g>
<!-- Node32&#45;&gt;Node29 -->
<g id="edge69" class="edge">
<title>Node32&#45;&gt;Node29</title>
<path fill="none" stroke="midnightblue" d="M2232.79,-224.44C2176.32,-214.89 2084.96,-199.42 2024.77,-189.23"/>
<polygon fill="midnightblue" stroke="midnightblue" points="2025.09,-185.73 2014.64,-187.52 2023.92,-192.64 2025.09,-185.73"/>
</g>
<!-- Node33&#45;&gt;Node8 -->
<g id="edge71" class="edge">
<title>Node33&#45;&gt;Node8</title>
<path fill="none" stroke="midnightblue" d="M2380.29,-224.8C2377.27,-224.53 2374.27,-224.26 2371.33,-224 2155.13,-205.08 2099.95,-212.77 1884.33,-188 1827.13,-181.43 1813.47,-175.14 1756.33,-168 1680.95,-158.59 1471.14,-139.9 1355.44,-129.82"/>
<polygon fill="midnightblue" stroke="midnightblue" points="1355.49,-126.31 1345.22,-128.93 1354.88,-133.29 1355.49,-126.31"/>
</g>
<!-- Node33&#45;&gt;Node12 -->
<g id="edge72" class="edge">
<title>Node33&#45;&gt;Node12</title>
<path fill="none" stroke="midnightblue" d="M2380.3,-224.69C2377.27,-224.45 2374.28,-224.21 2371.33,-224 1998.34,-196.76 1545.71,-183.5 1411.57,-179.98"/>
<polygon fill="midnightblue" stroke="midnightblue" points="1411.47,-176.48 1401.38,-179.72 1411.29,-183.47 1411.47,-176.48"/>
</g>
<!-- Node33&#45;&gt;Node29 -->
<g id="edge73" class="edge">
<title>Node33&#45;&gt;Node29</title>
<path fill="none" stroke="midnightblue" d="M2382.02,-224.47C2290.19,-214.48 2138.72,-197.99 2045.63,-187.85"/>
<polygon fill="midnightblue" stroke="midnightblue" points="2045.73,-184.34 2035.41,-186.74 2044.97,-191.3 2045.73,-184.34"/>
</g>
<!-- Node34&#45;&gt;Node8 -->
<g id="edge75" class="edge">
<title>Node34&#45;&gt;Node8</title>
<path fill="none" stroke="midnightblue" d="M1900.46,-225.01C1799.71,-212.39 1614.5,-189.15 1607.33,-188 1506.49,-171.76 1389.41,-147.48 1325.03,-133.65"/>
<polygon fill="midnightblue" stroke="midnightblue" points="1325.67,-130.21 1315.16,-131.52 1324.2,-137.05 1325.67,-130.21"/>
</g>
<!-- Node34&#45;&gt;Node12 -->
<g id="edge76" class="edge">
<title>Node34&#45;&gt;Node12</title>
<path fill="none" stroke="midnightblue" d="M1900.75,-224.92C1897.9,-224.6 1895.09,-224.29 1892.33,-224 1713.05,-205.04 1498.37,-188.37 1411.59,-181.88"/>
<polygon fill="midnightblue" stroke="midnightblue" points="1411.64,-178.38 1401.41,-181.13 1411.12,-185.36 1411.64,-178.38"/>
</g>
<!-- Node34&#45;&gt;Node29 -->
<g id="edge77" class="edge">
<title>Node34&#45;&gt;Node29</title>
<path fill="none" stroke="midnightblue" d="M1964.33,-224.08C1964.33,-217.01 1964.33,-206.86 1964.33,-197.99"/>
<polygon fill="midnightblue" stroke="midnightblue" points="1967.83,-197.75 1964.33,-187.75 1960.83,-197.75 1967.83,-197.75"/>
</g>
<!-- Node35&#45;&gt;Node8 -->
<g id="edge79" class="edge">
<title>Node35&#45;&gt;Node8</title>
<path fill="none" stroke="midnightblue" d="M1500.94,-224.42C1482.64,-210.95 1445.2,-184.66 1410.33,-168 1380.78,-153.88 1345.63,-142.26 1318.74,-134.36"/>
<polygon fill="midnightblue" stroke="midnightblue" points="1319.45,-130.92 1308.87,-131.52 1317.51,-137.65 1319.45,-130.92"/>
</g>
<!-- Node35&#45;&gt;Node12 -->
<g id="edge80" class="edge">
<title>Node35&#45;&gt;Node12</title>
<path fill="none" stroke="midnightblue" d="M1490.15,-224.44C1466.91,-215.48 1430.19,-201.31 1403.92,-191.18"/>
<polygon fill="midnightblue" stroke="midnightblue" points="1405,-187.85 1394.41,-187.52 1402.48,-194.38 1405,-187.85"/>
</g>
<!-- Node36&#45;&gt;Node8 -->
<g id="edge82" class="edge">
<title>Node36&#45;&gt;Node8</title>
<path fill="none" stroke="midnightblue" d="M914.77,-224.46C984.75,-204.82 1157.13,-156.45 1235.9,-134.35"/>
<polygon fill="midnightblue" stroke="midnightblue" points="1237.24,-137.61 1245.92,-131.53 1235.35,-130.87 1237.24,-137.61"/>
</g>
<!-- Node36&#45;&gt;Node12 -->
<g id="edge83" class="edge">
<title>Node36&#45;&gt;Node12</title>
<path fill="none" stroke="midnightblue" d="M950.18,-225.01C953.27,-224.67 956.34,-224.33 959.33,-224 1123.59,-206.16 1166.01,-212.96 1329.33,-188 1330.61,-187.81 1331.9,-187.6 1333.2,-187.38"/>
<polygon fill="midnightblue" stroke="midnightblue" points="1334.06,-190.78 1343.27,-185.53 1332.8,-183.89 1334.06,-190.78"/>
</g>
<!-- Node38&#45;&gt;Node4 -->
<g id="edge91" class="edge">
<title>Node38&#45;&gt;Node4</title>
<path fill="none" stroke="midnightblue" d="M317.78,-280.44C357.73,-271.06 421.92,-255.99 465.32,-245.8"/>
<polygon fill="midnightblue" stroke="midnightblue" points="466.13,-249.21 475.06,-243.52 464.53,-242.39 466.13,-249.21"/>
</g>
<!-- Node38&#45;&gt;Node7 -->
<g id="edge88" class="edge">
<title>Node38&#45;&gt;Node7</title>
<path fill="none" stroke="midnightblue" d="M259.71,-280.46C242.42,-272.83 218.34,-260.34 201.33,-244 153.6,-198.13 93.2,-165.39 132.33,-112 167.05,-64.64 345.51,-29.24 419.81,-16.33"/>
<polygon fill="midnightblue" stroke="midnightblue" points="420.72,-19.73 429.99,-14.59 419.54,-12.83 420.72,-19.73"/>
</g>
<!-- Node38&#45;&gt;Node14 -->
<g id="edge89" class="edge">
<title>Node38&#45;&gt;Node14</title>
<path fill="none" stroke="midnightblue" d="M260.82,-280.49C245.6,-273.1 225.6,-260.91 214.33,-244 193.44,-212.62 189.93,-167.18 189.78,-141.86"/>
<polygon fill="midnightblue" stroke="midnightblue" points="193.28,-141.8 189.9,-131.76 186.28,-141.72 193.28,-141.8"/>
</g>
<!-- Node38&#45;&gt;Node16 -->
<g id="edge87" class="edge">
<title>Node38&#45;&gt;Node16</title>
<path fill="none" stroke="midnightblue" d="M270.82,-280.3C256.73,-267.55 234.84,-243.22 247.33,-224 358.46,-53 473.71,-92.59 674.33,-56 842.47,-25.33 1387.53,-13.92 1523.42,-11.51"/>
<polygon fill="midnightblue" stroke="midnightblue" points="1523.61,-15.01 1533.55,-11.33 1523.49,-8.01 1523.61,-15.01"/>
</g>
<!-- Node38&#45;&gt;Node22 -->
<g id="edge90" class="edge">
<title>Node38&#45;&gt;Node22</title>
<path fill="none" stroke="midnightblue" d="M297.88,-280.32C314.33,-271.7 339.77,-258.36 358.8,-248.39"/>
<polygon fill="midnightblue" stroke="midnightblue" points="360.6,-251.4 367.83,-243.65 357.35,-245.2 360.6,-251.4"/>
</g>
<!-- Node39 -->
<g id="node39" class="node">
<title>Node39</title>
<g id="a_node39"><a xlink:title=" ">
<polygon fill="none" stroke="#bfbfbf" points="256.33,-224.5 256.33,-243.5 306.33,-243.5 306.33,-224.5 256.33,-224.5"/>
<text text-anchor="middle" x="281.33" y="-231.5" font-family="Helvetica,sans-Serif" font-size="10.00">fstream</text>
</a>
</g>
</g>
<!-- Node38&#45;&gt;Node39 -->
<g id="edge86" class="edge">
<title>Node38&#45;&gt;Node39</title>
<path fill="none" stroke="midnightblue" d="M281.33,-280.08C281.33,-273.01 281.33,-262.86 281.33,-253.99"/>
<polygon fill="midnightblue" stroke="midnightblue" points="284.83,-253.75 281.33,-243.75 277.83,-253.75 284.83,-253.75"/>
</g>
</g>
</svg>
