<?xml version="1.0" encoding="UTF-8" standalone="no"?>
<!DOCTYPE svg PUBLIC "-//W3C//DTD SVG 1.1//EN"
 "http://www.w3.org/Graphics/SVG/1.1/DTD/svg11.dtd">
<!-- Generated by graphviz version 3.0.0 (20220413.0242)
 -->
<!-- Title: main.cpp Pages: 1 -->
<svg width="1497pt" height="420pt"
 viewBox="0.00 0.00 1497.00 420.00" xmlns="http://www.w3.org/2000/svg" xmlns:xlink="http://www.w3.org/1999/xlink">
<g id="graph0" class="graph" transform="scale(1 1) rotate(0) translate(4 416)">
<title>main.cpp</title>
<!-- Node1 -->
<g id="node1" class="node">
<title>Node1</title>
<g id="a_node1"><a xlink:title="Main routine of svZeroDSolver.">
<polygon fill="#bfbfbf" stroke="black" points="493,-392.5 493,-411.5 549,-411.5 549,-392.5 493,-392.5"/>
<text text-anchor="middle" x="521" y="-399.5" font-family="Helvetica,sans-Serif" font-size="10.00">main.cpp</text>
</a>
</g>
</g>
<!-- Node2 -->
<g id="node2" class="node">
<title>Node2</title>
<g id="a_node2"><a xlink:href="integrator_8hpp.html" target="_top" xlink:title="ALGEBRA::Integrator source file.">
<polygon fill="none" stroke="black" points="681,-336.5 681,-355.5 791,-355.5 791,-336.5 681,-336.5"/>
<text text-anchor="middle" x="736" y="-343.5" font-family="Helvetica,sans-Serif" font-size="10.00">algebra/integrator.hpp</text>
</a>
</g>
</g>
<!-- Node1&#45;&gt;Node2 -->
<g id="edge1" class="edge">
<title>Node1&#45;&gt;Node2</title>
<path fill="none" stroke="midnightblue" d="M549.11,-393.94C585.46,-384.81 649.19,-368.8 691.99,-358.05"/>
<polygon fill="midnightblue" stroke="midnightblue" points="693.01,-361.41 701.85,-355.58 691.3,-354.62 693.01,-361.41"/>
</g>
<!-- Node4 -->
<g id="node4" class="node">
<title>Node4</title>
<g id="a_node4"><a xlink:href="model_8hpp.html" target="_top" xlink:title="MODEL::Model source file.">
<polygon fill="none" stroke="black" points="628,-280.5 628,-299.5 726,-299.5 726,-280.5 628,-280.5"/>
<text text-anchor="middle" x="677" y="-287.5" font-family="Helvetica,sans-Serif" font-size="10.00">../model/model.hpp</text>
</a>
</g>
</g>
<!-- Node1&#45;&gt;Node4 -->
<g id="edge52" class="edge">
<title>Node1&#45;&gt;Node4</title>
<path fill="none" stroke="midnightblue" d="M533.24,-392.37C559.9,-373.57 623.44,-328.77 656.39,-305.53"/>
<polygon fill="midnightblue" stroke="midnightblue" points="658.66,-308.21 664.82,-299.59 654.63,-302.49 658.66,-308.21"/>
</g>
<!-- Node8 -->
<g id="node8" class="node">
<title>Node8</title>
<g id="a_node8"><a xlink:href="densesystem_8hpp.html" target="_top" xlink:title="ALGEBRA::DenseSystem source file.">
<polygon fill="none" stroke="black" points="534,-112.5 534,-131.5 668,-131.5 668,-112.5 534,-112.5"/>
<text text-anchor="middle" x="601" y="-119.5" font-family="Helvetica,sans-Serif" font-size="10.00">../algebra/densesystem.hpp</text>
</a>
</g>
</g>
<!-- Node1&#45;&gt;Node8 -->
<g id="edge49" class="edge">
<title>Node1&#45;&gt;Node8</title>
<path fill="none" stroke="midnightblue" d="M515.56,-392.19C502.1,-370.91 465.3,-315.8 424,-280 396.19,-255.9 345.21,-256.22 363,-224 385.59,-183.09 409.47,-187.37 452,-168 484.48,-153.21 523.1,-141.7 552.89,-134.03"/>
<polygon fill="midnightblue" stroke="midnightblue" points="553.78,-137.41 562.63,-131.57 552.07,-130.62 553.78,-137.41"/>
</g>
<!-- Node9 -->
<g id="node9" class="node">
<title>Node9</title>
<g id="a_node9"><a xlink:href="sparsesystem_8hpp.html" target="_top" xlink:title="ALGEBRA::SparseSystem source file.">
<polygon fill="none" stroke="black" points="275.5,-112.5 275.5,-131.5 412.5,-131.5 412.5,-112.5 275.5,-112.5"/>
<text text-anchor="middle" x="344" y="-119.5" font-family="Helvetica,sans-Serif" font-size="10.00">../algebra/sparsesystem.hpp</text>
</a>
</g>
</g>
<!-- Node1&#45;&gt;Node9 -->
<g id="edge50" class="edge">
<title>Node1&#45;&gt;Node9</title>
<path fill="none" stroke="midnightblue" d="M492.76,-398.73C407.43,-391.19 155.38,-363.79 111,-300 54.33,-218.54 219.83,-158.33 301.42,-134.38"/>
<polygon fill="midnightblue" stroke="midnightblue" points="302.53,-137.7 311.17,-131.57 300.59,-130.98 302.53,-137.7"/>
</g>
<!-- Node25 -->
<g id="node25" class="node">
<title>Node25</title>
<g id="a_node25"><a xlink:href="state_8hpp.html" target="_top" xlink:title="ALGEBRA::State source file.">
<polygon fill="none" stroke="black" points="1197,-280.5 1197,-299.5 1253,-299.5 1253,-280.5 1197,-280.5"/>
<text text-anchor="middle" x="1225" y="-287.5" font-family="Helvetica,sans-Serif" font-size="10.00">state.hpp</text>
</a>
</g>
</g>
<!-- Node1&#45;&gt;Node25 -->
<g id="edge51" class="edge">
<title>Node1&#45;&gt;Node25</title>
<path fill="none" stroke="midnightblue" d="M549.24,-400.3C666.57,-397.21 1112.01,-383.75 1168,-356 1188.94,-345.62 1205.49,-323.83 1215.25,-308.34"/>
<polygon fill="midnightblue" stroke="midnightblue" points="1218.3,-310.05 1220.42,-299.67 1212.29,-306.46 1218.3,-310.05"/>
</g>
<!-- Node26 -->
<g id="node26" class="node">
<title>Node26</title>
<g id="a_node26"><a xlink:href="configreader_8hpp.html" target="_top" xlink:title="IO::ConfigReader source file.">
<polygon fill="none" stroke="black" points="322,-336.5 322,-355.5 420,-355.5 420,-336.5 322,-336.5"/>
<text text-anchor="middle" x="371" y="-343.5" font-family="Helvetica,sans-Serif" font-size="10.00">io/configreader.hpp</text>
</a>
</g>
</g>
<!-- Node1&#45;&gt;Node26 -->
<g id="edge53" class="edge">
<title>Node1&#45;&gt;Node26</title>
<path fill="none" stroke="midnightblue" d="M497.23,-392.44C472.11,-383.4 432.29,-369.06 404.1,-358.92"/>
<polygon fill="midnightblue" stroke="midnightblue" points="405.25,-355.61 394.66,-355.52 402.88,-362.2 405.25,-355.61"/>
</g>
<!-- Node28 -->
<g id="node28" class="node">
<title>Node28</title>
<g id="a_node28"><a xlink:href="debug_8hpp.html" target="_top" xlink:title="HELPERS::DEBUG source file.">
<polygon fill="none" stroke="black" points="120.5,-280.5 120.5,-299.5 223.5,-299.5 223.5,-280.5 120.5,-280.5"/>
<text text-anchor="middle" x="172" y="-287.5" font-family="Helvetica,sans-Serif" font-size="10.00">../helpers/debug.hpp</text>
</a>
</g>
</g>
<!-- Node1&#45;&gt;Node28 -->
<g id="edge75" class="edge">
<title>Node1&#45;&gt;Node28</title>
<path fill="none" stroke="midnightblue" d="M492.89,-396.92C452.43,-390.61 375.72,-376.96 313,-356 270.69,-341.86 224.16,-318.84 196.55,-304.33"/>
<polygon fill="midnightblue" stroke="midnightblue" points="198.08,-301.18 187.61,-299.58 194.8,-307.36 198.08,-301.18"/>
</g>
<!-- Node30 -->
<g id="node30" class="node">
<title>Node30</title>
<g id="a_node30"><a xlink:href="csvwriter_8hpp.html" target="_top" xlink:title="IO::write_csv source file.">
<polygon fill="none" stroke="black" points="1073.5,-336.5 1073.5,-355.5 1158.5,-355.5 1158.5,-336.5 1073.5,-336.5"/>
<text text-anchor="middle" x="1116" y="-343.5" font-family="Helvetica,sans-Serif" font-size="10.00">io/csvwriter.hpp</text>
</a>
</g>
</g>
<!-- Node1&#45;&gt;Node30 -->
<g id="edge61" class="edge">
<title>Node1&#45;&gt;Node30</title>
<path fill="none" stroke="midnightblue" d="M549.3,-398.43C642.54,-389.97 941.1,-362.87 1063.2,-351.79"/>
<polygon fill="midnightblue" stroke="midnightblue" points="1063.78,-355.25 1073.42,-350.86 1063.15,-348.28 1063.78,-355.25"/>
</g>
<!-- Node33 -->
<g id="node33" class="node">
<title>Node33</title>
<g id="a_node33"><a xlink:href="jsonwriter_8hpp.html" target="_top" xlink:title="IO::write_json source file.">
<polygon fill="none" stroke="black" points="1260.5,-336.5 1260.5,-355.5 1347.5,-355.5 1347.5,-336.5 1260.5,-336.5"/>
<text text-anchor="middle" x="1304" y="-343.5" font-family="Helvetica,sans-Serif" font-size="10.00">io/jsonwriter.hpp</text>
</a>
</g>
</g>
<!-- Node1&#45;&gt;Node33 -->
<g id="edge69" class="edge">
<title>Node1&#45;&gt;Node33</title>
<path fill="none" stroke="midnightblue" d="M549.33,-399.61C644.26,-394.85 959.81,-378.3 1220,-356 1229.86,-355.15 1240.37,-354.13 1250.48,-353.08"/>
<polygon fill="midnightblue" stroke="midnightblue" points="1250.86,-356.56 1260.44,-352.02 1250.12,-349.6 1250.86,-356.56"/>
</g>
<!-- Node35 -->
<g id="node35" class="node">
<title>Node35</title>
<g id="a_node35"><a xlink:href="endswith_8hpp.html" target="_top" xlink:title="HELPERS::endswith source file.">
<polygon fill="none" stroke="black" points="0,-168.5 0,-187.5 108,-187.5 108,-168.5 0,-168.5"/>
<text text-anchor="middle" x="54" y="-175.5" font-family="Helvetica,sans-Serif" font-size="10.00">helpers/endswith.hpp</text>
</a>
</g>
</g>
<!-- Node1&#45;&gt;Node35 -->
<g id="edge76" class="edge">
<title>Node1&#45;&gt;Node35</title>
<path fill="none" stroke="midnightblue" d="M492.85,-400.13C400.03,-396.99 107.87,-384.88 78,-356 34.75,-314.18 43.27,-234.09 49.93,-197.76"/>
<polygon fill="midnightblue" stroke="midnightblue" points="53.43,-198.09 51.96,-187.6 46.57,-196.72 53.43,-198.09"/>
</g>
<!-- Node3 -->
<g id="node3" class="node">
<title>Node3</title>
<g id="a_node3"><a xlink:title=" ">
<polygon fill="none" stroke="#bfbfbf" points="936.5,-56.5 936.5,-75.5 1007.5,-75.5 1007.5,-56.5 936.5,-56.5"/>
<text text-anchor="middle" x="972" y="-63.5" font-family="Helvetica,sans-Serif" font-size="10.00">Eigen/Dense</text>
</a>
</g>
</g>
<!-- Node2&#45;&gt;Node3 -->
<g id="edge2" class="edge">
<title>Node2&#45;&gt;Node3</title>
<path fill="none" stroke="midnightblue" d="M791.22,-340.3C854.94,-331.89 958.55,-308.55 1018,-244 1041.32,-218.67 1042.24,-201.17 1033,-168 1023.89,-135.29 1001,-102.6 986,-83.61"/>
<polygon fill="midnightblue" stroke="midnightblue" points="988.58,-81.23 979.55,-75.68 983.14,-85.64 988.58,-81.23"/>
</g>
<!-- Node2&#45;&gt;Node4 -->
<g id="edge3" class="edge">
<title>Node2&#45;&gt;Node4</title>
<path fill="none" stroke="midnightblue" d="M726.52,-336.32C717.8,-328.34 704.66,-316.31 694.1,-306.65"/>
<polygon fill="midnightblue" stroke="midnightblue" points="696.39,-304 686.65,-299.83 691.67,-309.17 696.39,-304"/>
</g>
<!-- Node2&#45;&gt;Node25 -->
<g id="edge48" class="edge">
<title>Node2&#45;&gt;Node25</title>
<path fill="none" stroke="midnightblue" d="M791.27,-339.19C870.67,-330.8 1021.6,-314.68 1150,-300 1161.99,-298.63 1175.06,-297.08 1186.87,-295.66"/>
<polygon fill="midnightblue" stroke="midnightblue" points="1187.36,-299.12 1196.87,-294.45 1186.53,-292.18 1187.36,-299.12"/>
</g>
<!-- Node5 -->
<g id="node5" class="node">
<title>Node5</title>
<g id="a_node5"><a xlink:title=" ">
<polygon fill="none" stroke="#bfbfbf" points="762.5,-112.5 762.5,-131.5 797.5,-131.5 797.5,-112.5 762.5,-112.5"/>
<text text-anchor="middle" x="780" y="-119.5" font-family="Helvetica,sans-Serif" font-size="10.00">map</text>
</a>
</g>
</g>
<!-- Node4&#45;&gt;Node5 -->
<g id="edge4" class="edge">
<title>Node4&#45;&gt;Node5</title>
<path fill="none" stroke="midnightblue" d="M726.1,-289.11C803.14,-288.12 946.94,-281.19 979,-244 984.8,-237.27 984.32,-231.12 979,-224 945.15,-178.72 906.77,-214.81 857,-188 833.09,-175.12 809.86,-153.96 795.28,-139.29"/>
<polygon fill="midnightblue" stroke="midnightblue" points="797.59,-136.65 788.12,-131.91 792.57,-141.53 797.59,-136.65"/>
</g>
<!-- Node6 -->
<g id="node6" class="node">
<title>Node6</title>
<g id="a_node6"><a xlink:title=" ">
<polygon fill="none" stroke="#bfbfbf" points="662.5,-224.5 662.5,-243.5 691.5,-243.5 691.5,-224.5 662.5,-224.5"/>
<text text-anchor="middle" x="677" y="-231.5" font-family="Helvetica,sans-Serif" font-size="10.00">list</text>
</a>
</g>
</g>
<!-- Node4&#45;&gt;Node6 -->
<g id="edge5" class="edge">
<title>Node4&#45;&gt;Node6</title>
<path fill="none" stroke="midnightblue" d="M677,-280.08C677,-273.01 677,-262.86 677,-253.99"/>
<polygon fill="midnightblue" stroke="midnightblue" points="680.5,-253.75 677,-243.75 673.5,-253.75 680.5,-253.75"/>
</g>
<!-- Node7 -->
<g id="node7" class="node">
<title>Node7</title>
<g id="a_node7"><a xlink:title=" ">
<polygon fill="none" stroke="#bfbfbf" points="710,-224.5 710,-243.5 756,-243.5 756,-224.5 710,-224.5"/>
<text text-anchor="middle" x="733" y="-231.5" font-family="Helvetica,sans-Serif" font-size="10.00">variant</text>
</a>
</g>
</g>
<!-- Node4&#45;&gt;Node7 -->
<g id="edge6" class="edge">
<title>Node4&#45;&gt;Node7</title>
<path fill="none" stroke="midnightblue" d="M686,-280.32C694.19,-272.42 706.51,-260.55 716.47,-250.94"/>
<polygon fill="midnightblue" stroke="midnightblue" points="719.07,-253.29 723.84,-243.83 714.21,-248.26 719.07,-253.29"/>
</g>
<!-- Node4&#45;&gt;Node8 -->
<g id="edge7" class="edge">
<title>Node4&#45;&gt;Node8</title>
<path fill="none" stroke="midnightblue" d="M627.7,-284.19C577.37,-278.14 504.24,-265.8 487,-244 453.81,-202.03 528.48,-157.39 572.2,-135.96"/>
<polygon fill="midnightblue" stroke="midnightblue" points="573.75,-139.09 581.26,-131.62 570.73,-132.78 573.75,-139.09"/>
</g>
<!-- Node4&#45;&gt;Node9 -->
<g id="edge9" class="edge">
<title>Node4&#45;&gt;Node9</title>
<path fill="none" stroke="midnightblue" d="M627.84,-289.52C543.98,-289.46 379.21,-284.29 342,-244 316.28,-216.15 323.29,-167.56 332.85,-141.23"/>
<polygon fill="midnightblue" stroke="midnightblue" points="336.19,-142.29 336.86,-131.72 329.75,-139.57 336.19,-142.29"/>
</g>
<!-- Node13 -->
<g id="node13" class="node">
<title>Node13</title>
<g id="a_node13"><a xlink:href="junction_8hpp.html" target="_top" xlink:title="MODEL::Junction source file.">
<polygon fill="none" stroke="black" points="372,-224.5 372,-243.5 440,-243.5 440,-224.5 372,-224.5"/>
<text text-anchor="middle" x="406" y="-231.5" font-family="Helvetica,sans-Serif" font-size="10.00">junction.hpp</text>
</a>
</g>
</g>
<!-- Node4&#45;&gt;Node13 -->
<g id="edge14" class="edge">
<title>Node4&#45;&gt;Node13</title>
<path fill="none" stroke="midnightblue" d="M634.06,-280.44C583.79,-270.43 500.97,-253.92 450.18,-243.8"/>
<polygon fill="midnightblue" stroke="midnightblue" points="450.65,-240.33 440.16,-241.81 449.28,-247.19 450.65,-240.33"/>
</g>
<!-- Node16 -->
<g id="node16" class="node">
<title>Node16</title>
<g id="a_node16"><a xlink:href="node_8hpp.html" target="_top" xlink:title="MODEL::Node source file.">
<polygon fill="none" stroke="black" points="460,-112.5 460,-131.5 516,-131.5 516,-112.5 460,-112.5"/>
<text text-anchor="middle" x="488" y="-119.5" font-family="Helvetica,sans-Serif" font-size="10.00">node.hpp</text>
</a>
</g>
</g>
<!-- Node4&#45;&gt;Node16 -->
<g id="edge47" class="edge">
<title>Node4&#45;&gt;Node16</title>
<path fill="none" stroke="midnightblue" d="M627.89,-289.43C548.32,-288.97 396.68,-282.85 363,-244 326.17,-201.51 409.02,-156.83 456.95,-135.61"/>
<polygon fill="midnightblue" stroke="midnightblue" points="458.52,-138.75 466.31,-131.57 455.75,-132.32 458.52,-138.75"/>
</g>
<!-- Node18 -->
<g id="node18" class="node">
<title>Node18</title>
<g id="a_node18"><a xlink:href="dofhandler_8hpp.html" target="_top" xlink:title="MODEL::DOFHandler source file.">
<polygon fill="none" stroke="black" points="800,-56.5 800,-75.5 880,-75.5 880,-56.5 800,-56.5"/>
<text text-anchor="middle" x="840" y="-63.5" font-family="Helvetica,sans-Serif" font-size="10.00">dofhandler.hpp</text>
</a>
</g>
</g>
<!-- Node4&#45;&gt;Node18 -->
<g id="edge46" class="edge">
<title>Node4&#45;&gt;Node18</title>
<path fill="none" stroke="midnightblue" d="M726.2,-287.96C804.88,-285.33 954.31,-276.14 995,-244 1022.6,-222.2 1031.01,-200.25 1017,-168 995.04,-117.47 934.3,-91.04 890.09,-78.09"/>
<polygon fill="midnightblue" stroke="midnightblue" points="890.94,-74.69 880.37,-75.38 889.06,-81.44 890.94,-74.69"/>
</g>
<!-- Node19 -->
<g id="node19" class="node">
<title>Node19</title>
<g id="a_node19"><a xlink:href="bloodvessel_8hpp.html" target="_top" xlink:title="MODEL::BloodVessel source file.">
<polygon fill="none" stroke="black" points="774,-224.5 774,-243.5 860,-243.5 860,-224.5 774,-224.5"/>
<text text-anchor="middle" x="817" y="-231.5" font-family="Helvetica,sans-Serif" font-size="10.00">bloodvessel.hpp</text>
</a>
</g>
</g>
<!-- Node4&#45;&gt;Node19 -->
<g id="edge28" class="edge">
<title>Node4&#45;&gt;Node19</title>
<path fill="none" stroke="midnightblue" d="M699.18,-280.44C722.43,-271.48 759.15,-257.31 785.42,-247.18"/>
<polygon fill="midnightblue" stroke="midnightblue" points="786.85,-250.38 794.92,-243.52 784.33,-243.85 786.85,-250.38"/>
</g>
<!-- Node21 -->
<g id="node21" class="node">
<title>Node21</title>
<g id="a_node21"><a xlink:href="rcrblockwithdistalpressure_8hpp.html" target="_top" xlink:title="MODEL::RCRBlockWithDistalPressure source file.">
<polygon fill="none" stroke="black" points="496,-224.5 496,-243.5 644,-243.5 644,-224.5 496,-224.5"/>
<text text-anchor="middle" x="570" y="-231.5" font-family="Helvetica,sans-Serif" font-size="10.00">rcrblockwithdistalpressure.hpp</text>
</a>
</g>
</g>
<!-- Node4&#45;&gt;Node21 -->
<g id="edge33" class="edge">
<title>Node4&#45;&gt;Node21</title>
<path fill="none" stroke="midnightblue" d="M659.81,-280.32C642.65,-271.66 616.05,-258.24 596.25,-248.25"/>
<polygon fill="midnightblue" stroke="midnightblue" points="597.65,-245.04 587.15,-243.65 594.5,-251.28 597.65,-245.04"/>
</g>
<!-- Node22 -->
<g id="node22" class="node">
<title>Node22</title>
<g id="a_node22"><a xlink:href="flowreference_8hpp.html" target="_top" xlink:title="MODEL::FlowReference source file.">
<polygon fill="none" stroke="black" points="878,-224.5 878,-243.5 970,-243.5 970,-224.5 878,-224.5"/>
<text text-anchor="middle" x="924" y="-231.5" font-family="Helvetica,sans-Serif" font-size="10.00">flowreference.hpp</text>
</a>
</g>
</g>
<!-- Node4&#45;&gt;Node22 -->
<g id="edge37" class="edge">
<title>Node4&#45;&gt;Node22</title>
<path fill="none" stroke="midnightblue" d="M716.14,-280.44C759.23,-271.02 828.56,-255.87 875.17,-245.68"/>
<polygon fill="midnightblue" stroke="midnightblue" points="876.02,-249.07 885.05,-243.52 874.53,-242.23 876.02,-249.07"/>
</g>
<!-- Node8&#45;&gt;Node3 -->
<g id="edge8" class="edge">
<title>Node8&#45;&gt;Node3</title>
<path fill="none" stroke="midnightblue" d="M659.79,-112.44C733.68,-101.69 858.96,-83.45 926.16,-73.67"/>
<polygon fill="midnightblue" stroke="midnightblue" points="927.04,-77.08 936.43,-72.18 926.03,-70.15 927.04,-77.08"/>
</g>
<!-- Node9&#45;&gt;Node4 -->
<g id="edge13" class="edge">
<title>Node9&#45;&gt;Node4</title>
<path fill="none" stroke="midnightblue" d="M345.62,-131.72C343.85,-153.78 330.73,-212.31 360,-244 394.15,-280.98 535.75,-288.37 617.76,-289.39"/>
<polygon fill="midnightblue" stroke="midnightblue" points="617.91,-292.89 627.94,-289.48 617.97,-285.89 617.91,-292.89"/>
</g>
<!-- Node10 -->
<g id="node10" class="node">
<title>Node10</title>
<g id="a_node10"><a xlink:title=" ">
<polygon fill="none" stroke="#bfbfbf" points="395,-56.5 395,-75.5 469,-75.5 469,-56.5 395,-56.5"/>
<text text-anchor="middle" x="432" y="-63.5" font-family="Helvetica,sans-Serif" font-size="10.00">Eigen/Sparse</text>
</a>
</g>
</g>
<!-- Node9&#45;&gt;Node10 -->
<g id="edge10" class="edge">
<title>Node9&#45;&gt;Node10</title>
<path fill="none" stroke="midnightblue" d="M358.14,-112.32C371.87,-103.9 392.94,-90.97 409.06,-81.07"/>
<polygon fill="midnightblue" stroke="midnightblue" points="411.2,-83.87 417.9,-75.65 407.54,-77.9 411.2,-83.87"/>
</g>
<!-- Node11 -->
<g id="node11" class="node">
<title>Node11</title>
<g id="a_node11"><a xlink:title=" ">
<polygon fill="none" stroke="#bfbfbf" points="289,-56.5 289,-75.5 377,-75.5 377,-56.5 289,-56.5"/>
<text text-anchor="middle" x="333" y="-63.5" font-family="Helvetica,sans-Serif" font-size="10.00">Eigen/SparseLU</text>
</a>
</g>
</g>
<!-- Node9&#45;&gt;Node11 -->
<g id="edge11" class="edge">
<title>Node9&#45;&gt;Node11</title>
<path fill="none" stroke="midnightblue" d="M342.18,-112.08C340.73,-104.93 338.63,-94.64 336.81,-85.69"/>
<polygon fill="midnightblue" stroke="midnightblue" points="340.21,-84.85 334.78,-75.75 333.35,-86.25 340.21,-84.85"/>
</g>
<!-- Node12 -->
<g id="node12" class="node">
<title>Node12</title>
<g id="a_node12"><a xlink:title=" ">
<polygon fill="none" stroke="#bfbfbf" points="214,-56.5 214,-75.5 268,-75.5 268,-56.5 214,-56.5"/>
<text text-anchor="middle" x="241" y="-63.5" font-family="Helvetica,sans-Serif" font-size="10.00">iostream</text>
</a>
</g>
</g>
<!-- Node9&#45;&gt;Node12 -->
<g id="edge12" class="edge">
<title>Node9&#45;&gt;Node12</title>
<path fill="none" stroke="midnightblue" d="M327.45,-112.32C311.01,-103.7 285.57,-90.36 266.53,-80.39"/>
<polygon fill="midnightblue" stroke="midnightblue" points="267.99,-77.2 257.51,-75.65 264.74,-83.4 267.99,-77.2"/>
</g>
<!-- Node13&#45;&gt;Node8 -->
<g id="edge15" class="edge">
<title>Node13&#45;&gt;Node8</title>
<path fill="none" stroke="midnightblue" d="M414.13,-224.33C427.28,-210.73 454.51,-184.27 482,-168 506.45,-153.53 536.37,-142.24 560.09,-134.59"/>
<polygon fill="midnightblue" stroke="midnightblue" points="561.35,-137.86 569.85,-131.53 559.26,-131.18 561.35,-137.86"/>
</g>
<!-- Node13&#45;&gt;Node9 -->
<g id="edge16" class="edge">
<title>Node13&#45;&gt;Node9</title>
<path fill="none" stroke="midnightblue" d="M401.13,-224.37C390.95,-206.3 367.21,-164.18 353.76,-140.31"/>
<polygon fill="midnightblue" stroke="midnightblue" points="356.8,-138.58 348.84,-131.59 350.7,-142.02 356.8,-138.58"/>
</g>
<!-- Node14 -->
<g id="node14" class="node">
<title>Node14</title>
<g id="a_node14"><a xlink:href="block_8hpp.html" target="_top" xlink:title="MODEL::Block source file.">
<polygon fill="none" stroke="black" points="638,-168.5 638,-187.5 696,-187.5 696,-168.5 638,-168.5"/>
<text text-anchor="middle" x="667" y="-175.5" font-family="Helvetica,sans-Serif" font-size="10.00">block.hpp</text>
</a>
</g>
</g>
<!-- Node13&#45;&gt;Node14 -->
<g id="edge17" class="edge">
<title>Node13&#45;&gt;Node14</title>
<path fill="none" stroke="midnightblue" d="M440.12,-225.94C488.47,-215.94 576.69,-197.68 627.71,-187.13"/>
<polygon fill="midnightblue" stroke="midnightblue" points="628.62,-190.52 637.7,-185.06 627.2,-183.66 628.62,-190.52"/>
</g>
<!-- Node14&#45;&gt;Node5 -->
<g id="edge19" class="edge">
<title>Node14&#45;&gt;Node5</title>
<path fill="none" stroke="midnightblue" d="M684.91,-168.44C703.25,-159.68 732.01,-145.94 753.09,-135.86"/>
<polygon fill="midnightblue" stroke="midnightblue" points="754.67,-138.99 762.18,-131.52 751.65,-132.67 754.67,-138.99"/>
</g>
<!-- Node14&#45;&gt;Node8 -->
<g id="edge26" class="edge">
<title>Node14&#45;&gt;Node8</title>
<path fill="none" stroke="midnightblue" d="M656.4,-168.32C646.54,-160.26 631.65,-148.08 619.78,-138.37"/>
<polygon fill="midnightblue" stroke="midnightblue" points="621.75,-135.46 611.8,-131.83 617.32,-140.88 621.75,-135.46"/>
</g>
<!-- Node14&#45;&gt;Node9 -->
<g id="edge27" class="edge">
<title>Node14&#45;&gt;Node9</title>
<path fill="none" stroke="midnightblue" d="M637.89,-170.71C633.25,-169.77 628.5,-168.83 624,-168 551.84,-154.66 468.79,-141.6 411.99,-133.01"/>
<polygon fill="midnightblue" stroke="midnightblue" points="412.46,-129.54 402.05,-131.52 411.42,-136.47 412.46,-129.54"/>
</g>
<!-- Node15 -->
<g id="node15" class="node">
<title>Node15</title>
<g id="a_node15"><a xlink:title=" ">
<polygon fill="none" stroke="#bfbfbf" points="1052,-0.5 1052,-19.5 1096,-19.5 1096,-0.5 1052,-0.5"/>
<text text-anchor="middle" x="1074" y="-7.5" font-family="Helvetica,sans-Serif" font-size="10.00">vector</text>
</a>
</g>
</g>
<!-- Node14&#45;&gt;Node15 -->
<g id="edge18" class="edge">
<title>Node14&#45;&gt;Node15</title>
<path fill="none" stroke="midnightblue" d="M672.65,-168.21C688.19,-144.9 734.23,-81.58 791,-56 875.83,-17.78 987.76,-11.39 1041.92,-10.72"/>
<polygon fill="midnightblue" stroke="midnightblue" points="1041.98,-14.22 1051.95,-10.65 1041.93,-7.22 1041.98,-14.22"/>
</g>
<!-- Node14&#45;&gt;Node16 -->
<g id="edge20" class="edge">
<title>Node14&#45;&gt;Node16</title>
<path fill="none" stroke="midnightblue" d="M638.64,-168.44C608.26,-159.28 559.89,-144.69 526.18,-134.52"/>
<polygon fill="midnightblue" stroke="midnightblue" points="526.82,-131.05 516.23,-131.52 524.79,-137.76 526.82,-131.05"/>
</g>
<!-- Node14&#45;&gt;Node18 -->
<g id="edge25" class="edge">
<title>Node14&#45;&gt;Node18</title>
<path fill="none" stroke="midnightblue" d="M677.33,-168.43C693.24,-155.42 724.96,-130.28 754,-112 772.72,-100.22 794.84,-88.69 811.97,-80.25"/>
<polygon fill="midnightblue" stroke="midnightblue" points="813.95,-83.18 821.41,-75.66 810.88,-76.89 813.95,-83.18"/>
</g>
<!-- Node17 -->
<g id="node17" class="node">
<title>Node17</title>
<g id="a_node17"><a xlink:title=" ">
<polygon fill="none" stroke="#bfbfbf" points="643.5,-0.5 643.5,-19.5 684.5,-19.5 684.5,-0.5 643.5,-0.5"/>
<text text-anchor="middle" x="664" y="-7.5" font-family="Helvetica,sans-Serif" font-size="10.00">string</text>
</a>
</g>
</g>
<!-- Node16&#45;&gt;Node17 -->
<g id="edge21" class="edge">
<title>Node16&#45;&gt;Node17</title>
<path fill="none" stroke="midnightblue" d="M501.81,-112.37C532.14,-93.41 604.8,-48 641.69,-24.94"/>
<polygon fill="midnightblue" stroke="midnightblue" points="643.63,-27.86 650.25,-19.59 639.92,-21.92 643.63,-27.86"/>
</g>
<!-- Node16&#45;&gt;Node18 -->
<g id="edge22" class="edge">
<title>Node16&#45;&gt;Node18</title>
<path fill="none" stroke="midnightblue" d="M516.22,-113.84C519.18,-113.18 522.14,-112.55 525,-112 617.75,-94.14 727.12,-80.06 789.54,-72.68"/>
<polygon fill="midnightblue" stroke="midnightblue" points="789.99,-76.15 799.52,-71.51 789.18,-69.2 789.99,-76.15"/>
</g>
<!-- Node18&#45;&gt;Node15 -->
<g id="edge23" class="edge">
<title>Node18&#45;&gt;Node15</title>
<path fill="none" stroke="midnightblue" d="M877.08,-56.44C922.56,-45.95 998.9,-28.33 1041.95,-18.4"/>
<polygon fill="midnightblue" stroke="midnightblue" points="1042.93,-21.76 1051.88,-16.1 1041.35,-14.94 1042.93,-21.76"/>
</g>
<!-- Node18&#45;&gt;Node17 -->
<g id="edge24" class="edge">
<title>Node18&#45;&gt;Node17</title>
<path fill="none" stroke="midnightblue" d="M812.11,-56.44C779.96,-46.58 727.31,-30.42 694.21,-20.27"/>
<polygon fill="midnightblue" stroke="midnightblue" points="695.19,-16.91 684.61,-17.32 693.14,-23.6 695.19,-16.91"/>
</g>
<!-- Node19&#45;&gt;Node8 -->
<g id="edge31" class="edge">
<title>Node19&#45;&gt;Node8</title>
<path fill="none" stroke="midnightblue" d="M803.49,-224.46C782.73,-211.51 741.53,-186.43 705,-168 681.04,-155.92 653.09,-143.93 632.2,-135.38"/>
<polygon fill="midnightblue" stroke="midnightblue" points="633.43,-132.1 622.85,-131.58 630.8,-138.59 633.43,-132.1"/>
</g>
<!-- Node19&#45;&gt;Node9 -->
<g id="edge32" class="edge">
<title>Node19&#45;&gt;Node9</title>
<path fill="none" stroke="midnightblue" d="M773.66,-224.86C729,-216.31 657.43,-202.17 596,-188 521.04,-170.71 434.31,-147.67 384.63,-134.17"/>
<polygon fill="midnightblue" stroke="midnightblue" points="385.48,-130.77 374.91,-131.52 383.64,-137.53 385.48,-130.77"/>
</g>
<!-- Node19&#45;&gt;Node14 -->
<g id="edge30" class="edge">
<title>Node19&#45;&gt;Node14</title>
<path fill="none" stroke="midnightblue" d="M793.23,-224.44C768.11,-215.4 728.29,-201.06 700.1,-190.92"/>
<polygon fill="midnightblue" stroke="midnightblue" points="701.25,-187.61 690.66,-187.52 698.88,-194.2 701.25,-187.61"/>
</g>
<!-- Node20 -->
<g id="node20" class="node">
<title>Node20</title>
<g id="a_node20"><a xlink:title=" ">
<polygon fill="none" stroke="#bfbfbf" points="816,-112.5 816,-131.5 862,-131.5 862,-112.5 816,-112.5"/>
<text text-anchor="middle" x="839" y="-119.5" font-family="Helvetica,sans-Serif" font-size="10.00">math.h</text>
</a>
</g>
</g>
<!-- Node19&#45;&gt;Node20 -->
<g id="edge29" class="edge">
<title>Node19&#45;&gt;Node20</title>
<path fill="none" stroke="midnightblue" d="M818.73,-224.37C822.28,-206.62 830.47,-165.67 835.28,-141.6"/>
<polygon fill="midnightblue" stroke="midnightblue" points="838.75,-142.08 837.28,-131.59 831.89,-140.71 838.75,-142.08"/>
</g>
<!-- Node21&#45;&gt;Node8 -->
<g id="edge34" class="edge">
<title>Node21&#45;&gt;Node8</title>
<path fill="none" stroke="midnightblue" d="M572.43,-224.37C577.46,-206.54 589.08,-165.3 595.85,-141.27"/>
<polygon fill="midnightblue" stroke="midnightblue" points="599.23,-142.17 598.58,-131.59 592.5,-140.27 599.23,-142.17"/>
</g>
<!-- Node21&#45;&gt;Node9 -->
<g id="edge35" class="edge">
<title>Node21&#45;&gt;Node9</title>
<path fill="none" stroke="midnightblue" d="M552.27,-224.37C512.82,-205.17 417.64,-158.84 370.86,-136.07"/>
<polygon fill="midnightblue" stroke="midnightblue" points="372.17,-132.82 361.65,-131.59 369.11,-139.11 372.17,-132.82"/>
</g>
<!-- Node21&#45;&gt;Node14 -->
<g id="edge36" class="edge">
<title>Node21&#45;&gt;Node14</title>
<path fill="none" stroke="midnightblue" d="M585.58,-224.32C601,-215.74 624.81,-202.49 642.71,-192.52"/>
<polygon fill="midnightblue" stroke="midnightblue" points="644.42,-195.58 651.45,-187.65 641.01,-189.46 644.42,-195.58"/>
</g>
<!-- Node22&#45;&gt;Node8 -->
<g id="edge38" class="edge">
<title>Node22&#45;&gt;Node8</title>
<path fill="none" stroke="midnightblue" d="M899.83,-224.47C864.24,-211.94 795.59,-187.87 737,-168 703.02,-156.47 664.14,-143.65 636.68,-134.64"/>
<polygon fill="midnightblue" stroke="midnightblue" points="637.7,-131.3 627.11,-131.51 635.53,-137.95 637.7,-131.3"/>
</g>
<!-- Node22&#45;&gt;Node9 -->
<g id="edge39" class="edge">
<title>Node22&#45;&gt;Node9</title>
<path fill="none" stroke="midnightblue" d="M877.79,-225.39C874.82,-224.92 871.87,-224.45 869,-224 762.44,-207.29 733.69,-213.97 629,-188 602.94,-181.54 597.9,-175.06 572,-168 517.72,-153.2 454.92,-141.17 408.99,-133.29"/>
<polygon fill="midnightblue" stroke="midnightblue" points="409.31,-129.79 398.87,-131.57 408.14,-136.69 409.31,-129.79"/>
</g>
<!-- Node22&#45;&gt;Node14 -->
<g id="edge40" class="edge">
<title>Node22&#45;&gt;Node14</title>
<path fill="none" stroke="midnightblue" d="M883.28,-224.44C834.75,-214.25 754.24,-197.33 706.33,-187.26"/>
<polygon fill="midnightblue" stroke="midnightblue" points="706.85,-183.8 696.34,-185.16 705.41,-190.65 706.85,-183.8"/>
</g>
<!-- Node23 -->
<g id="node23" class="node">
<title>Node23</title>
<g id="a_node23"><a xlink:href="timedependentparameter_8hpp.html" target="_top" xlink:title="MODEL::TimeDependentParameter source file.">
<polygon fill="none" stroke="black" points="866,-168.5 866,-187.5 1008,-187.5 1008,-168.5 866,-168.5"/>
<text text-anchor="middle" x="937" y="-175.5" font-family="Helvetica,sans-Serif" font-size="10.00">timedependentparameter.hpp</text>
</a>
</g>
</g>
<!-- Node22&#45;&gt;Node23 -->
<g id="edge41" class="edge">
<title>Node22&#45;&gt;Node23</title>
<path fill="none" stroke="midnightblue" d="M926.15,-224.08C927.87,-216.93 930.35,-206.64 932.5,-197.69"/>
<polygon fill="midnightblue" stroke="midnightblue" points="935.96,-198.29 934.89,-187.75 929.15,-196.65 935.96,-198.29"/>
</g>
<!-- Node23&#45;&gt;Node15 -->
<g id="edge43" class="edge">
<title>Node23&#45;&gt;Node15</title>
<path fill="none" stroke="midnightblue" d="M944.37,-168.08C966.4,-141.38 1032.02,-61.87 1060.53,-27.32"/>
<polygon fill="midnightblue" stroke="midnightblue" points="1063.26,-29.51 1066.93,-19.57 1057.86,-25.05 1063.26,-29.51"/>
</g>
<!-- Node23&#45;&gt;Node18 -->
<g id="edge45" class="edge">
<title>Node23&#45;&gt;Node18</title>
<path fill="none" stroke="midnightblue" d="M940.62,-168.17C945.46,-154.83 952.2,-129.26 941,-112 929.51,-94.3 909.26,-83.5 889.9,-76.95"/>
<polygon fill="midnightblue" stroke="midnightblue" points="890.8,-73.56 880.21,-73.97 888.74,-80.25 890.8,-73.56"/>
</g>
<!-- Node23&#45;&gt;Node20 -->
<g id="edge42" class="edge">
<title>Node23&#45;&gt;Node20</title>
<path fill="none" stroke="midnightblue" d="M921.25,-168.32C905.68,-159.74 881.62,-146.49 863.54,-136.52"/>
<polygon fill="midnightblue" stroke="midnightblue" points="865.15,-133.42 854.71,-131.65 861.78,-139.55 865.15,-133.42"/>
</g>
<!-- Node24 -->
<g id="node24" class="node">
<title>Node24</title>
<g id="a_node24"><a xlink:title=" ">
<polygon fill="none" stroke="#bfbfbf" points="880.5,-112.5 880.5,-131.5 931.5,-131.5 931.5,-112.5 880.5,-112.5"/>
<text text-anchor="middle" x="906" y="-119.5" font-family="Helvetica,sans-Serif" font-size="10.00">numeric</text>
</a>
</g>
</g>
<!-- Node23&#45;&gt;Node24 -->
<g id="edge44" class="edge">
<title>Node23&#45;&gt;Node24</title>
<path fill="none" stroke="midnightblue" d="M931.88,-168.08C927.59,-160.61 921.34,-149.72 916.06,-140.52"/>
<polygon fill="midnightblue" stroke="midnightblue" points="919.04,-138.68 911.02,-131.75 912.97,-142.17 919.04,-138.68"/>
</g>
<!-- Node26&#45;&gt;Node4 -->
<g id="edge56" class="edge">
<title>Node26&#45;&gt;Node4</title>
<path fill="none" stroke="midnightblue" d="M419.49,-336.44C473.54,-326.9 560.93,-311.48 618.67,-301.29"/>
<polygon fill="midnightblue" stroke="midnightblue" points="619.5,-304.7 628.74,-299.52 618.28,-297.81 619.5,-304.7"/>
</g>
<!-- Node26&#45;&gt;Node13 -->
<g id="edge57" class="edge">
<title>Node26&#45;&gt;Node13</title>
<path fill="none" stroke="midnightblue" d="M387.33,-336.39C399.96,-328.72 416.5,-316.21 424,-300 431.12,-284.61 424.42,-265.83 417.26,-252.42"/>
<polygon fill="midnightblue" stroke="midnightblue" points="420.24,-250.58 412.16,-243.73 414.21,-254.12 420.24,-250.58"/>
</g>
<!-- Node26&#45;&gt;Node17 -->
<g id="edge54" class="edge">
<title>Node26&#45;&gt;Node17</title>
<path fill="none" stroke="midnightblue" d="M377.67,-336.15C386.54,-323.21 399.99,-298.66 390,-280 376.39,-254.57 357.14,-263.62 336,-244 261.36,-174.71 136.59,-131.44 205,-56 233.77,-24.27 535.13,-14.14 633.28,-11.67"/>
<polygon fill="midnightblue" stroke="midnightblue" points="633.53,-15.17 643.44,-11.43 633.36,-8.17 633.53,-15.17"/>
</g>
<!-- Node27 -->
<g id="node27" class="node">
<title>Node27</title>
<g id="a_node27"><a xlink:title=" ">
<polygon fill="none" stroke="#bfbfbf" points="241.5,-280.5 241.5,-299.5 300.5,-299.5 300.5,-280.5 241.5,-280.5"/>
<text text-anchor="middle" x="271" y="-287.5" font-family="Helvetica,sans-Serif" font-size="10.00">stdexcept</text>
</a>
</g>
</g>
<!-- Node26&#45;&gt;Node27 -->
<g id="edge55" class="edge">
<title>Node26&#45;&gt;Node27</title>
<path fill="none" stroke="midnightblue" d="M354.93,-336.32C339.04,-327.74 314.49,-314.49 296.04,-304.52"/>
<polygon fill="midnightblue" stroke="midnightblue" points="297.49,-301.33 287.03,-299.65 294.16,-307.49 297.49,-301.33"/>
</g>
<!-- Node26&#45;&gt;Node28 -->
<g id="edge58" class="edge">
<title>Node26&#45;&gt;Node28</title>
<path fill="none" stroke="midnightblue" d="M339.47,-336.44C305.41,-327.2 250.99,-312.44 213.48,-302.26"/>
<polygon fill="midnightblue" stroke="midnightblue" points="213.95,-298.76 203.38,-299.52 212.12,-305.51 213.95,-298.76"/>
</g>
<!-- Node29 -->
<g id="node29" class="node">
<title>Node29</title>
<g id="a_node29"><a xlink:title=" ">
<polygon fill="none" stroke="#bfbfbf" points="318.5,-280.5 318.5,-299.5 381.5,-299.5 381.5,-280.5 318.5,-280.5"/>
<text text-anchor="middle" x="350" y="-287.5" font-family="Helvetica,sans-Serif" font-size="10.00">simdjson.h</text>
</a>
</g>
</g>
<!-- Node26&#45;&gt;Node29 -->
<g id="edge60" class="edge">
<title>Node26&#45;&gt;Node29</title>
<path fill="none" stroke="midnightblue" d="M367.53,-336.08C364.69,-328.77 360.57,-318.18 357.04,-309.1"/>
<polygon fill="midnightblue" stroke="midnightblue" points="360.29,-307.8 353.4,-299.75 353.77,-310.34 360.29,-307.8"/>
</g>
<!-- Node28&#45;&gt;Node12 -->
<g id="edge59" class="edge">
<title>Node28&#45;&gt;Node12</title>
<path fill="none" stroke="midnightblue" d="M174.7,-280.3C184.88,-247.56 220.99,-131.38 235.2,-85.67"/>
<polygon fill="midnightblue" stroke="midnightblue" points="238.61,-86.47 238.24,-75.88 231.93,-84.39 238.61,-86.47"/>
</g>
<!-- Node30&#45;&gt;Node4 -->
<g id="edge66" class="edge">
<title>Node30&#45;&gt;Node4</title>
<path fill="none" stroke="midnightblue" d="M1073.11,-339.72C994.17,-330.01 825.76,-309.3 736.07,-298.27"/>
<polygon fill="midnightblue" stroke="midnightblue" points="736.41,-294.78 726.06,-297.03 735.56,-301.73 736.41,-294.78"/>
</g>
<!-- Node30&#45;&gt;Node15 -->
<g id="edge63" class="edge">
<title>Node30&#45;&gt;Node15</title>
<path fill="none" stroke="midnightblue" d="M1125.29,-336.39C1133.58,-328.02 1145.14,-314.48 1150,-300 1160.74,-267.98 1230.47,-255.65 1126,-56 1119.51,-43.6 1108.07,-33.13 1097.57,-25.41"/>
<polygon fill="midnightblue" stroke="midnightblue" points="1099.32,-22.37 1089.09,-19.6 1095.36,-28.14 1099.32,-22.37"/>
</g>
<!-- Node30&#45;&gt;Node17 -->
<g id="edge62" class="edge">
<title>Node30&#45;&gt;Node17</title>
<path fill="none" stroke="midnightblue" d="M1106.71,-336.39C1098.42,-328.02 1086.86,-314.48 1082,-300 1079.17,-291.57 1080.72,-288.8 1082,-280 1088.74,-233.66 1112,-225.83 1112,-179 1112,-179 1112,-179 1112,-121 1112,-34.94 796.25,-15.85 694.91,-11.94"/>
<polygon fill="midnightblue" stroke="midnightblue" points="694.83,-8.44 684.71,-11.57 694.58,-15.43 694.83,-8.44"/>
</g>
<!-- Node30&#45;&gt;Node25 -->
<g id="edge65" class="edge">
<title>Node30&#45;&gt;Node25</title>
<path fill="none" stroke="midnightblue" d="M1133.51,-336.32C1151.07,-327.62 1178.33,-314.12 1198.53,-304.11"/>
<polygon fill="midnightblue" stroke="midnightblue" points="1200.12,-307.23 1207.53,-299.65 1197.02,-300.96 1200.12,-307.23"/>
</g>
<!-- Node31 -->
<g id="node31" class="node">
<title>Node31</title>
<g id="a_node31"><a xlink:title=" ">
<polygon fill="none" stroke="#bfbfbf" points="1091,-280.5 1091,-299.5 1141,-299.5 1141,-280.5 1091,-280.5"/>
<text text-anchor="middle" x="1116" y="-287.5" font-family="Helvetica,sans-Serif" font-size="10.00">fstream</text>
</a>
</g>
</g>
<!-- Node30&#45;&gt;Node31 -->
<g id="edge64" class="edge">
<title>Node30&#45;&gt;Node31</title>
<path fill="none" stroke="midnightblue" d="M1116,-336.08C1116,-329.01 1116,-318.86 1116,-309.99"/>
<polygon fill="midnightblue" stroke="midnightblue" points="1119.5,-309.75 1116,-299.75 1112.5,-309.75 1119.5,-309.75"/>
</g>
<!-- Node32 -->
<g id="node32" class="node">
<title>Node32</title>
<g id="a_node32"><a xlink:href="startswith_8hpp.html" target="_top" xlink:title="HELPERS::startswith source file.">
<polygon fill="none" stroke="black" points="1271.5,-280.5 1271.5,-299.5 1390.5,-299.5 1390.5,-280.5 1271.5,-280.5"/>
<text text-anchor="middle" x="1331" y="-287.5" font-family="Helvetica,sans-Serif" font-size="10.00">../helpers/startswith.hpp</text>
</a>
</g>
</g>
<!-- Node30&#45;&gt;Node32 -->
<g id="edge67" class="edge">
<title>Node30&#45;&gt;Node32</title>
<path fill="none" stroke="midnightblue" d="M1150.07,-336.44C1187.18,-327.12 1246.66,-312.18 1287.21,-302"/>
<polygon fill="midnightblue" stroke="midnightblue" points="1288.25,-305.35 1297.09,-299.52 1286.54,-298.56 1288.25,-305.35"/>
</g>
<!-- Node32&#45;&gt;Node17 -->
<g id="edge68" class="edge">
<title>Node32&#45;&gt;Node17</title>
<path fill="none" stroke="midnightblue" d="M1326.5,-280.17C1307.76,-244.48 1231.99,-110.26 1126,-56 1050.35,-17.27 785.73,-11.81 694.89,-11.09"/>
<polygon fill="midnightblue" stroke="midnightblue" points="694.72,-7.59 684.7,-11.03 694.67,-14.59 694.72,-7.59"/>
</g>
<!-- Node33&#45;&gt;Node4 -->
<g id="edge73" class="edge">
<title>Node33&#45;&gt;Node4</title>
<path fill="none" stroke="midnightblue" d="M1260.41,-341.25C1150.47,-331.78 861.77,-306.91 736.46,-296.12"/>
<polygon fill="midnightblue" stroke="midnightblue" points="736.55,-292.62 726.28,-295.24 735.95,-299.59 736.55,-292.62"/>
</g>
<!-- Node33&#45;&gt;Node15 -->
<g id="edge71" class="edge">
<title>Node33&#45;&gt;Node15</title>
<path fill="none" stroke="midnightblue" d="M1339.09,-336.39C1359.54,-329.67 1384.31,-318.31 1400,-300 1419.58,-277.14 1419,-265.1 1419,-235 1419,-235 1419,-235 1419,-121 1419,-55.74 1192.08,-23.98 1106.31,-14.31"/>
<polygon fill="midnightblue" stroke="midnightblue" points="1106.43,-10.8 1096.11,-13.19 1105.66,-17.76 1106.43,-10.8"/>
</g>
<!-- Node33&#45;&gt;Node25 -->
<g id="edge72" class="edge">
<title>Node33&#45;&gt;Node25</title>
<path fill="none" stroke="midnightblue" d="M1291.31,-336.32C1279.1,-327.98 1260.42,-315.21 1246,-305.35"/>
<polygon fill="midnightblue" stroke="midnightblue" points="1247.89,-302.41 1237.66,-299.65 1243.94,-308.19 1247.89,-302.41"/>
</g>
<!-- Node33&#45;&gt;Node32 -->
<g id="edge74" class="edge">
<title>Node33&#45;&gt;Node32</title>
<path fill="none" stroke="midnightblue" d="M1308.46,-336.08C1312.15,-328.69 1317.52,-317.95 1322.09,-308.81"/>
<polygon fill="midnightblue" stroke="midnightblue" points="1325.28,-310.26 1326.62,-299.75 1319.02,-307.13 1325.28,-310.26"/>
</g>
<!-- Node34 -->
<g id="node34" class="node">
<title>Node34</title>
<g id="a_node34"><a xlink:title=" ">
<polygon fill="none" stroke="#bfbfbf" points="1447,-280.5 1447,-299.5 1489,-299.5 1489,-280.5 1447,-280.5"/>
<text text-anchor="middle" x="1468" y="-287.5" font-family="Helvetica,sans-Serif" font-size="10.00">json.h</text>
</a>
</g>
</g>
<!-- Node33&#45;&gt;Node34 -->
<g id="edge70" class="edge">
<title>Node33&#45;&gt;Node34</title>
<path fill="none" stroke="midnightblue" d="M1329.99,-336.44C1359.04,-326.88 1406.05,-311.4 1437,-301.21"/>
<polygon fill="midnightblue" stroke="midnightblue" points="1438.43,-304.42 1446.83,-297.97 1436.24,-297.77 1438.43,-304.42"/>
</g>
<!-- Node35&#45;&gt;Node17 -->
<g id="edge77" class="edge">
<title>Node35&#45;&gt;Node17</title>
<path fill="none" stroke="midnightblue" d="M58.5,-168.28C70.97,-145.14 108.46,-82.19 160,-56 243.42,-13.6 537.03,-10.61 633.23,-10.79"/>
<polygon fill="midnightblue" stroke="midnightblue" points="633.44,-14.3 643.45,-10.83 633.46,-7.3 633.44,-14.3"/>
</g>
</g>
</svg>
