<?xml version="1.0" encoding="UTF-8" standalone="no"?>
<!DOCTYPE svg PUBLIC "-//W3C//DTD SVG 1.1//EN"
 "http://www.w3.org/Graphics/SVG/1.1/DTD/svg11.dtd">
<!-- Generated by graphviz version 3.0.0 (20220413.0242)
 -->
<!-- Title: main.hpp Pages: 1 -->
<svg width="2188pt" height="364pt"
 viewBox="0.00 0.00 2188.23 364.00" xmlns="http://www.w3.org/2000/svg" xmlns:xlink="http://www.w3.org/1999/xlink">
<g id="graph0" class="graph" transform="scale(1 1) rotate(0) translate(4 360)">
<title>main.hpp</title>
<!-- Node1 -->
<g id="node1" class="node">
<title>Node1</title>
<g id="a_node1"><a xlink:title="Main page documentation.">
<polygon fill="#bfbfbf" stroke="black" points="298,-336.5 298,-355.5 354,-355.5 354,-336.5 298,-336.5"/>
<text text-anchor="middle" x="326" y="-343.5" font-family="Helvetica,sans-Serif" font-size="10.00">main.hpp</text>
</a>
</g>
</g>
<!-- Node2 -->
<g id="node2" class="node">
<title>Node2</title>
<g id="a_node2"><a xlink:href="integrator_8hpp.html" target="_top" xlink:title="ALGEBRA::Integrator source file.">
<polygon fill="none" stroke="black" points="115,-280.5 115,-299.5 225,-299.5 225,-280.5 115,-280.5"/>
<text text-anchor="middle" x="170" y="-287.5" font-family="Helvetica,sans-Serif" font-size="10.00">algebra/integrator.hpp</text>
</a>
</g>
</g>
<!-- Node1&#45;&gt;Node2 -->
<g id="edge1" class="edge">
<title>Node1&#45;&gt;Node2</title>
<path fill="none" stroke="midnightblue" d="M301.28,-336.44C275.15,-327.4 233.74,-313.06 204.42,-302.92"/>
<polygon fill="midnightblue" stroke="midnightblue" points="205.2,-299.48 194.6,-299.52 202.91,-306.1 205.2,-299.48"/>
</g>
<!-- Node4 -->
<g id="node4" class="node">
<title>Node4</title>
<g id="a_node4"><a xlink:href="model_8hpp.html" target="_top" xlink:title="MODEL::Model source file.">
<polygon fill="none" stroke="black" points="277,-224.5 277,-243.5 375,-243.5 375,-224.5 277,-224.5"/>
<text text-anchor="middle" x="326" y="-231.5" font-family="Helvetica,sans-Serif" font-size="10.00">../model/model.hpp</text>
</a>
</g>
</g>
<!-- Node1&#45;&gt;Node4 -->
<g id="edge80" class="edge">
<title>Node1&#45;&gt;Node4</title>
<path fill="none" stroke="midnightblue" d="M326,-336.37C326,-318.62 326,-277.67 326,-253.6"/>
<polygon fill="midnightblue" stroke="midnightblue" points="329.5,-253.59 326,-243.59 322.5,-253.59 329.5,-253.59"/>
</g>
<!-- Node17 -->
<g id="node17" class="node">
<title>Node17</title>
<g id="a_node17"><a xlink:href="state_8hpp.html" target="_top" xlink:title="ALGEBRA::State source file.">
<polygon fill="none" stroke="black" points="0,-224.5 0,-243.5 56,-243.5 56,-224.5 0,-224.5"/>
<text text-anchor="middle" x="28" y="-231.5" font-family="Helvetica,sans-Serif" font-size="10.00">state.hpp</text>
</a>
</g>
</g>
<!-- Node1&#45;&gt;Node17 -->
<g id="edge25" class="edge">
<title>Node1&#45;&gt;Node17</title>
<path fill="none" stroke="midnightblue" d="M297.86,-343.63C254.63,-340.58 170.12,-330.83 106,-300 81.07,-288.01 57.39,-266.29 42.8,-251.28"/>
<polygon fill="midnightblue" stroke="midnightblue" points="45.09,-248.61 35.68,-243.73 40,-253.41 45.09,-248.61"/>
</g>
<!-- Node18 -->
<g id="node18" class="node">
<title>Node18</title>
<g id="a_node18"><a xlink:href="debug_8hpp.html" target="_top" xlink:title="HELPERS::DEBUG source file.">
<polygon fill="none" stroke="black" points="163.5,-224.5 163.5,-243.5 258.5,-243.5 258.5,-224.5 163.5,-224.5"/>
<text text-anchor="middle" x="211" y="-231.5" font-family="Helvetica,sans-Serif" font-size="10.00">helpers/debug.hpp</text>
</a>
</g>
</g>
<!-- Node1&#45;&gt;Node18 -->
<g id="edge26" class="edge">
<title>Node1&#45;&gt;Node18</title>
<path fill="none" stroke="midnightblue" d="M316.98,-336.37C297.66,-317.89 252.08,-274.29 227.46,-250.74"/>
<polygon fill="midnightblue" stroke="midnightblue" points="229.63,-247.97 219.98,-243.59 224.79,-253.03 229.63,-247.97"/>
</g>
<!-- Node19 -->
<g id="node19" class="node">
<title>Node19</title>
<g id="a_node19"><a xlink:href="endswith_8hpp.html" target="_top" xlink:title="HELPERS::endswith source file.">
<polygon fill="none" stroke="black" points="1370,-280.5 1370,-299.5 1478,-299.5 1478,-280.5 1370,-280.5"/>
<text text-anchor="middle" x="1424" y="-287.5" font-family="Helvetica,sans-Serif" font-size="10.00">helpers/endswith.hpp</text>
</a>
</g>
</g>
<!-- Node1&#45;&gt;Node19 -->
<g id="edge28" class="edge">
<title>Node1&#45;&gt;Node19</title>
<path fill="none" stroke="midnightblue" d="M354.25,-343.61C498.17,-336.53 1151.24,-304.41 1359.78,-294.16"/>
<polygon fill="midnightblue" stroke="midnightblue" points="1360.14,-297.64 1369.96,-293.66 1359.8,-290.65 1360.14,-297.64"/>
</g>
<!-- Node20 -->
<g id="node20" class="node">
<title>Node20</title>
<g id="a_node20"><a xlink:href="configreader_8hpp.html" target="_top" xlink:title="IO::ConfigReader source file.">
<polygon fill="none" stroke="black" points="796,-280.5 796,-299.5 894,-299.5 894,-280.5 796,-280.5"/>
<text text-anchor="middle" x="845" y="-287.5" font-family="Helvetica,sans-Serif" font-size="10.00">io/configreader.hpp</text>
</a>
</g>
</g>
<!-- Node1&#45;&gt;Node20 -->
<g id="edge30" class="edge">
<title>Node1&#45;&gt;Node20</title>
<path fill="none" stroke="midnightblue" d="M354.27,-342.06C436.02,-333.55 673.91,-308.8 785.68,-297.17"/>
<polygon fill="midnightblue" stroke="midnightblue" points="786.19,-300.64 795.77,-296.12 785.46,-293.68 786.19,-300.64"/>
</g>
<!-- Node35 -->
<g id="node35" class="node">
<title>Node35</title>
<g id="a_node35"><a xlink:href="csvwriter_8hpp.html" target="_top" xlink:title="IO::write_csv source file.">
<polygon fill="none" stroke="black" points="1954.5,-280.5 1954.5,-299.5 2039.5,-299.5 2039.5,-280.5 1954.5,-280.5"/>
<text text-anchor="middle" x="1997" y="-287.5" font-family="Helvetica,sans-Serif" font-size="10.00">io/csvwriter.hpp</text>
</a>
</g>
</g>
<!-- Node1&#45;&gt;Node35 -->
<g id="edge73" class="edge">
<title>Node1&#45;&gt;Node35</title>
<path fill="none" stroke="midnightblue" d="M354.3,-344.09C548.46,-337.81 1683.62,-301.13 1943.85,-292.72"/>
<polygon fill="midnightblue" stroke="midnightblue" points="1944.28,-296.21 1954.17,-292.38 1944.06,-289.21 1944.28,-296.21"/>
</g>
<!-- Node3 -->
<g id="node3" class="node">
<title>Node3</title>
<g id="a_node3"><a xlink:title=" ">
<polygon fill="none" stroke="#bfbfbf" points="74.5,-224.5 74.5,-243.5 145.5,-243.5 145.5,-224.5 74.5,-224.5"/>
<text text-anchor="middle" x="110" y="-231.5" font-family="Helvetica,sans-Serif" font-size="10.00">Eigen/Dense</text>
</a>
</g>
</g>
<!-- Node2&#45;&gt;Node3 -->
<g id="edge2" class="edge">
<title>Node2&#45;&gt;Node3</title>
<path fill="none" stroke="midnightblue" d="M160.36,-280.32C151.49,-272.34 138.13,-260.31 127.39,-250.65"/>
<polygon fill="midnightblue" stroke="midnightblue" points="129.59,-247.92 119.82,-243.83 124.91,-253.13 129.59,-247.92"/>
</g>
<!-- Node2&#45;&gt;Node4 -->
<g id="edge3" class="edge">
<title>Node2&#45;&gt;Node4</title>
<path fill="none" stroke="midnightblue" d="M194.72,-280.44C220.85,-271.4 262.26,-257.06 291.58,-246.92"/>
<polygon fill="midnightblue" stroke="midnightblue" points="293.09,-250.1 301.4,-243.52 290.8,-243.48 293.09,-250.1"/>
</g>
<!-- Node2&#45;&gt;Node17 -->
<g id="edge24" class="edge">
<title>Node2&#45;&gt;Node17</title>
<path fill="none" stroke="midnightblue" d="M147.5,-280.44C123.92,-271.48 86.68,-257.31 60.04,-247.18"/>
<polygon fill="midnightblue" stroke="midnightblue" points="60.99,-243.8 50.4,-243.52 58.5,-250.34 60.99,-243.8"/>
</g>
<!-- Node5 -->
<g id="node5" class="node">
<title>Node5</title>
<g id="a_node5"><a xlink:title=" ">
<polygon fill="none" stroke="#bfbfbf" points="222,-168.5 222,-187.5 278,-187.5 278,-168.5 222,-168.5"/>
<text text-anchor="middle" x="250" y="-175.5" font-family="Helvetica,sans-Serif" font-size="10.00">algorithm</text>
</a>
</g>
</g>
<!-- Node4&#45;&gt;Node5 -->
<g id="edge4" class="edge">
<title>Node4&#45;&gt;Node5</title>
<path fill="none" stroke="midnightblue" d="M313.79,-224.32C302.22,-216.11 284.62,-203.6 270.84,-193.81"/>
<polygon fill="midnightblue" stroke="midnightblue" points="272.61,-190.77 262.43,-187.83 268.56,-196.48 272.61,-190.77"/>
</g>
<!-- Node6 -->
<g id="node6" class="node">
<title>Node6</title>
<g id="a_node6"><a xlink:title=" ">
<polygon fill="none" stroke="#bfbfbf" points="466.5,-168.5 466.5,-187.5 495.5,-187.5 495.5,-168.5 466.5,-168.5"/>
<text text-anchor="middle" x="481" y="-175.5" font-family="Helvetica,sans-Serif" font-size="10.00">list</text>
</a>
</g>
</g>
<!-- Node4&#45;&gt;Node6 -->
<g id="edge5" class="edge">
<title>Node4&#45;&gt;Node6</title>
<path fill="none" stroke="midnightblue" d="M350.56,-224.44C379.6,-214.33 427.64,-197.59 456.61,-187.5"/>
<polygon fill="midnightblue" stroke="midnightblue" points="458.06,-190.7 466.35,-184.1 455.75,-184.09 458.06,-190.7"/>
</g>
<!-- Node7 -->
<g id="node7" class="node">
<title>Node7</title>
<g id="a_node7"><a xlink:title=" ">
<polygon fill="none" stroke="#bfbfbf" points="1146,-0.5 1146,-19.5 1190,-19.5 1190,-0.5 1146,-0.5"/>
<text text-anchor="middle" x="1168" y="-7.5" font-family="Helvetica,sans-Serif" font-size="10.00">vector</text>
</a>
</g>
</g>
<!-- Node4&#45;&gt;Node7 -->
<g id="edge6" class="edge">
<title>Node4&#45;&gt;Node7</title>
<path fill="none" stroke="midnightblue" d="M327.63,-224.49C330.36,-211.56 336.73,-186.52 348,-168 383.95,-108.93 393.24,-85.04 456,-56 518.18,-27.23 1004.83,-14.57 1135.69,-11.67"/>
<polygon fill="midnightblue" stroke="midnightblue" points="1135.95,-15.17 1145.87,-11.45 1135.79,-8.17 1135.95,-15.17"/>
</g>
<!-- Node8 -->
<g id="node8" class="node">
<title>Node8</title>
<g id="a_node8"><a xlink:href="sparsesystem_8hpp.html" target="_top" xlink:title="ALGEBRA::SparseSystem source file.">
<polygon fill="none" stroke="black" points="873.5,-112.5 873.5,-131.5 1010.5,-131.5 1010.5,-112.5 873.5,-112.5"/>
<text text-anchor="middle" x="942" y="-119.5" font-family="Helvetica,sans-Serif" font-size="10.00">../algebra/sparsesystem.hpp</text>
</a>
</g>
</g>
<!-- Node4&#45;&gt;Node8 -->
<g id="edge7" class="edge">
<title>Node4&#45;&gt;Node8</title>
<path fill="none" stroke="midnightblue" d="M333.66,-224.44C352.96,-209.98 402.08,-181.03 448,-168 523.39,-146.6 743.85,-132.6 863.21,-126.5"/>
<polygon fill="midnightblue" stroke="midnightblue" points="863.57,-129.99 873.38,-125.99 863.22,-123 863.57,-129.99"/>
</g>
<!-- Node12 -->
<g id="node12" class="node">
<title>Node12</title>
<g id="a_node12"><a xlink:href="block_8hpp.html" target="_top" xlink:title="MODEL::Block source file.">
<polygon fill="none" stroke="black" points="1055,-168.5 1055,-187.5 1113,-187.5 1113,-168.5 1055,-168.5"/>
<text text-anchor="middle" x="1084" y="-175.5" font-family="Helvetica,sans-Serif" font-size="10.00">block.hpp</text>
</a>
</g>
</g>
<!-- Node4&#45;&gt;Node12 -->
<g id="edge12" class="edge">
<title>Node4&#45;&gt;Node12</title>
<path fill="none" stroke="midnightblue" d="M375.15,-229.5C515.71,-219.48 917.41,-190.87 1044.77,-181.8"/>
<polygon fill="midnightblue" stroke="midnightblue" points="1045.12,-185.28 1054.84,-181.08 1044.62,-178.3 1045.12,-185.28"/>
</g>
<!-- Node14 -->
<g id="node14" class="node">
<title>Node14</title>
<g id="a_node14"><a xlink:href="dofhandler_8hpp.html" target="_top" xlink:title="MODEL::DOFHandler source file.">
<polygon fill="none" stroke="black" points="744,-56.5 744,-75.5 824,-75.5 824,-56.5 744,-56.5"/>
<text text-anchor="middle" x="784" y="-63.5" font-family="Helvetica,sans-Serif" font-size="10.00">dofhandler.hpp</text>
</a>
</g>
</g>
<!-- Node4&#45;&gt;Node14 -->
<g id="edge22" class="edge">
<title>Node4&#45;&gt;Node14</title>
<path fill="none" stroke="midnightblue" d="M329.54,-224.32C335.74,-210.23 349.97,-182.47 371,-168 484.14,-90.17 650.96,-72.12 733.68,-68.07"/>
<polygon fill="midnightblue" stroke="midnightblue" points="733.98,-71.56 743.82,-67.62 733.68,-64.57 733.98,-71.56"/>
</g>
<!-- Node16 -->
<g id="node16" class="node">
<title>Node16</title>
<g id="a_node16"><a xlink:href="node_8hpp.html" target="_top" xlink:title="MODEL::Node source file.">
<polygon fill="none" stroke="black" points="688,-112.5 688,-131.5 744,-131.5 744,-112.5 688,-112.5"/>
<text text-anchor="middle" x="716" y="-119.5" font-family="Helvetica,sans-Serif" font-size="10.00">node.hpp</text>
</a>
</g>
</g>
<!-- Node4&#45;&gt;Node16 -->
<g id="edge23" class="edge">
<title>Node4&#45;&gt;Node16</title>
<path fill="none" stroke="midnightblue" d="M333.84,-224.08C347.1,-209.62 375.52,-181.37 406,-168 497.39,-127.93 617.02,-122.18 677.47,-122.14"/>
<polygon fill="midnightblue" stroke="midnightblue" points="677.68,-125.64 687.7,-122.19 677.71,-118.64 677.68,-125.64"/>
</g>
<!-- Node8&#45;&gt;Node4 -->
<g id="edge11" class="edge">
<title>Node8&#45;&gt;Node4</title>
<path fill="none" stroke="midnightblue" d="M873.29,-126.56C760.43,-132.69 541.15,-146.67 466,-168 424.93,-179.66 381.28,-204.05 353.62,-219.41"/>
<polygon fill="midnightblue" stroke="midnightblue" points="351.59,-216.54 344.53,-224.44 354.98,-222.66 351.59,-216.54"/>
</g>
<!-- Node9 -->
<g id="node9" class="node">
<title>Node9</title>
<g id="a_node9"><a xlink:title=" ">
<polygon fill="none" stroke="#bfbfbf" points="998,-56.5 998,-75.5 1072,-75.5 1072,-56.5 998,-56.5"/>
<text text-anchor="middle" x="1035" y="-63.5" font-family="Helvetica,sans-Serif" font-size="10.00">Eigen/Sparse</text>
</a>
</g>
</g>
<!-- Node8&#45;&gt;Node9 -->
<g id="edge8" class="edge">
<title>Node8&#45;&gt;Node9</title>
<path fill="none" stroke="midnightblue" d="M956.94,-112.32C971.59,-103.82 994.13,-90.73 1011.24,-80.8"/>
<polygon fill="midnightblue" stroke="midnightblue" points="1013.2,-83.7 1020.1,-75.65 1009.69,-77.65 1013.2,-83.7"/>
</g>
<!-- Node10 -->
<g id="node10" class="node">
<title>Node10</title>
<g id="a_node10"><a xlink:title=" ">
<polygon fill="none" stroke="#bfbfbf" points="892,-56.5 892,-75.5 980,-75.5 980,-56.5 892,-56.5"/>
<text text-anchor="middle" x="936" y="-63.5" font-family="Helvetica,sans-Serif" font-size="10.00">Eigen/SparseLU</text>
</a>
</g>
</g>
<!-- Node8&#45;&gt;Node10 -->
<g id="edge9" class="edge">
<title>Node8&#45;&gt;Node10</title>
<path fill="none" stroke="midnightblue" d="M941.01,-112.08C940.21,-104.93 939.07,-94.64 938.08,-85.69"/>
<polygon fill="midnightblue" stroke="midnightblue" points="941.56,-85.3 936.97,-75.75 934.6,-86.08 941.56,-85.3"/>
</g>
<!-- Node11 -->
<g id="node11" class="node">
<title>Node11</title>
<g id="a_node11"><a xlink:title=" ">
<polygon fill="none" stroke="#bfbfbf" points="465,-56.5 465,-75.5 519,-75.5 519,-56.5 465,-56.5"/>
<text text-anchor="middle" x="492" y="-63.5" font-family="Helvetica,sans-Serif" font-size="10.00">iostream</text>
</a>
</g>
</g>
<!-- Node8&#45;&gt;Node11 -->
<g id="edge10" class="edge">
<title>Node8&#45;&gt;Node11</title>
<path fill="none" stroke="midnightblue" d="M873.16,-112.74C776.64,-101.16 604.44,-80.49 529.06,-71.45"/>
<polygon fill="midnightblue" stroke="midnightblue" points="529.43,-67.97 519.08,-70.25 528.6,-74.92 529.43,-67.97"/>
</g>
<!-- Node12&#45;&gt;Node7 -->
<g id="edge14" class="edge">
<title>Node12&#45;&gt;Node7</title>
<path fill="none" stroke="midnightblue" d="M1088.52,-168.08C1101.85,-141.72 1141.24,-63.88 1159.06,-28.66"/>
<polygon fill="midnightblue" stroke="midnightblue" points="1162.27,-30.07 1163.66,-19.57 1156.03,-26.91 1162.27,-30.07"/>
</g>
<!-- Node12&#45;&gt;Node8 -->
<g id="edge15" class="edge">
<title>Node12&#45;&gt;Node8</title>
<path fill="none" stroke="midnightblue" d="M1061.5,-168.44C1037.92,-159.48 1000.68,-145.31 974.04,-135.18"/>
<polygon fill="midnightblue" stroke="midnightblue" points="974.99,-131.8 964.4,-131.52 972.5,-138.34 974.99,-131.8"/>
</g>
<!-- Node13 -->
<g id="node13" class="node">
<title>Node13</title>
<g id="a_node13"><a xlink:title=" ">
<polygon fill="none" stroke="#bfbfbf" points="1028.5,-112.5 1028.5,-131.5 1063.5,-131.5 1063.5,-112.5 1028.5,-112.5"/>
<text text-anchor="middle" x="1046" y="-119.5" font-family="Helvetica,sans-Serif" font-size="10.00">map</text>
</a>
</g>
</g>
<!-- Node12&#45;&gt;Node13 -->
<g id="edge13" class="edge">
<title>Node12&#45;&gt;Node13</title>
<path fill="none" stroke="midnightblue" d="M1077.73,-168.08C1072.36,-160.46 1064.48,-149.26 1057.92,-139.94"/>
<polygon fill="midnightblue" stroke="midnightblue" points="1060.78,-137.91 1052.16,-131.75 1055.05,-141.94 1060.78,-137.91"/>
</g>
<!-- Node12&#45;&gt;Node14 -->
<g id="edge16" class="edge">
<title>Node12&#45;&gt;Node14</title>
<path fill="none" stroke="midnightblue" d="M1085.38,-168.43C1087.09,-154.49 1088.15,-126.95 1073,-112 1056.27,-95.49 912.52,-79.32 834.27,-71.63"/>
<polygon fill="midnightblue" stroke="midnightblue" points="834.43,-68.13 824.14,-70.65 833.76,-75.1 834.43,-68.13"/>
</g>
<!-- Node12&#45;&gt;Node16 -->
<g id="edge19" class="edge">
<title>Node12&#45;&gt;Node16</title>
<path fill="none" stroke="midnightblue" d="M1054.82,-172.72C988.87,-163.04 828.36,-139.49 754.43,-128.64"/>
<polygon fill="midnightblue" stroke="midnightblue" points="754.58,-125.12 744.17,-127.13 753.56,-132.05 754.58,-125.12"/>
</g>
<!-- Node14&#45;&gt;Node7 -->
<g id="edge18" class="edge">
<title>Node14&#45;&gt;Node7</title>
<path fill="none" stroke="midnightblue" d="M824.08,-58.18C828.77,-57.43 833.49,-56.68 838,-56 946.99,-39.49 1076.65,-22.62 1135.76,-15.07"/>
<polygon fill="midnightblue" stroke="midnightblue" points="1136.48,-18.51 1145.95,-13.78 1135.59,-11.57 1136.48,-18.51"/>
</g>
<!-- Node15 -->
<g id="node15" class="node">
<title>Node15</title>
<g id="a_node15"><a xlink:title=" ">
<polygon fill="none" stroke="#bfbfbf" points="1548.5,-0.5 1548.5,-19.5 1589.5,-19.5 1589.5,-0.5 1548.5,-0.5"/>
<text text-anchor="middle" x="1569" y="-7.5" font-family="Helvetica,sans-Serif" font-size="10.00">string</text>
</a>
</g>
</g>
<!-- Node14&#45;&gt;Node15 -->
<g id="edge17" class="edge">
<title>Node14&#45;&gt;Node15</title>
<path fill="none" stroke="midnightblue" d="M824.04,-57.85C828.74,-57.15 833.47,-56.52 838,-56 1108.3,-25.24 1437.39,-14.46 1538.19,-11.75"/>
<polygon fill="midnightblue" stroke="midnightblue" points="1538.39,-15.25 1548.29,-11.49 1538.2,-8.25 1538.39,-15.25"/>
</g>
<!-- Node16&#45;&gt;Node14 -->
<g id="edge21" class="edge">
<title>Node16&#45;&gt;Node14</title>
<path fill="none" stroke="midnightblue" d="M726.93,-112.32C737.17,-104.18 752.72,-91.84 765,-82.09"/>
<polygon fill="midnightblue" stroke="midnightblue" points="767.22,-84.79 772.88,-75.83 762.87,-79.31 767.22,-84.79"/>
</g>
<!-- Node16&#45;&gt;Node15 -->
<g id="edge20" class="edge">
<title>Node16&#45;&gt;Node15</title>
<path fill="none" stroke="midnightblue" d="M715.64,-112.12C715.6,-97.74 717.86,-69.58 735,-56 767.08,-30.57 1391.67,-14.99 1538.35,-11.67"/>
<polygon fill="midnightblue" stroke="midnightblue" points="1538.53,-15.16 1548.45,-11.44 1538.37,-8.17 1538.53,-15.16"/>
</g>
<!-- Node18&#45;&gt;Node11 -->
<g id="edge27" class="edge">
<title>Node18&#45;&gt;Node11</title>
<path fill="none" stroke="midnightblue" d="M208.59,-224.16C205.5,-210.81 201.78,-185.21 213,-168 265.91,-86.81 391.71,-70.41 454.71,-67.41"/>
<polygon fill="midnightblue" stroke="midnightblue" points="455.13,-70.9 464.99,-67.02 454.86,-63.9 455.13,-70.9"/>
</g>
<!-- Node19&#45;&gt;Node15 -->
<g id="edge29" class="edge">
<title>Node19&#45;&gt;Node15</title>
<path fill="none" stroke="midnightblue" d="M1478.39,-287.14C1594.54,-282.67 1858.85,-269.78 1890,-244 1913.19,-224.81 1909,-209.1 1909,-179 1909,-179 1909,-179 1909,-121 1909,-90.2 1908.96,-75.35 1885,-56 1841.53,-20.9 1670.48,-13.18 1599.81,-11.48"/>
<polygon fill="midnightblue" stroke="midnightblue" points="1599.82,-7.98 1589.75,-11.26 1599.67,-14.98 1599.82,-7.98"/>
</g>
<!-- Node20&#45;&gt;Node4 -->
<g id="edge52" class="edge">
<title>Node20&#45;&gt;Node4</title>
<path fill="none" stroke="midnightblue" d="M796,-284.87C712.4,-277.66 536.89,-261.85 389,-244 387.74,-243.85 386.46,-243.69 385.17,-243.53"/>
<polygon fill="midnightblue" stroke="midnightblue" points="385.52,-240.05 375.15,-242.23 384.62,-246.99 385.52,-240.05"/>
</g>
<!-- Node20&#45;&gt;Node6 -->
<g id="edge31" class="edge">
<title>Node20&#45;&gt;Node6</title>
<path fill="none" stroke="midnightblue" d="M795.67,-287.32C690.39,-283.22 451.26,-271.02 427,-244 411.22,-226.43 436.64,-205.25 457.69,-191.95"/>
<polygon fill="midnightblue" stroke="midnightblue" points="459.54,-194.92 466.31,-186.77 455.93,-188.92 459.54,-194.92"/>
</g>
<!-- Node20&#45;&gt;Node15 -->
<g id="edge33" class="edge">
<title>Node20&#45;&gt;Node15</title>
<path fill="none" stroke="midnightblue" d="M842.93,-280.25C835.15,-244.88 811.59,-111.72 883,-56 909.17,-35.58 1408.04,-16.66 1538.17,-12.06"/>
<polygon fill="midnightblue" stroke="midnightblue" points="1538.38,-15.56 1548.25,-11.71 1538.13,-8.56 1538.38,-15.56"/>
</g>
<!-- Node20&#45;&gt;Node16 -->
<g id="edge53" class="edge">
<title>Node20&#45;&gt;Node16</title>
<path fill="none" stroke="midnightblue" d="M795.84,-286.84C697.05,-281.99 481.98,-268.7 460,-244 427.63,-207.62 598.66,-155.09 677.68,-133.19"/>
<polygon fill="midnightblue" stroke="midnightblue" points="679.02,-136.45 687.74,-130.42 677.17,-129.7 679.02,-136.45"/>
</g>
<!-- Node20&#45;&gt;Node18 -->
<g id="edge34" class="edge">
<title>Node20&#45;&gt;Node18</title>
<path fill="none" stroke="midnightblue" d="M795.86,-286.48C697.77,-281.16 470.55,-267.41 268.74,-243.99"/>
<polygon fill="midnightblue" stroke="midnightblue" points="268.89,-240.48 258.55,-242.79 268.07,-247.43 268.89,-240.48"/>
</g>
<!-- Node21 -->
<g id="node21" class="node">
<title>Node21</title>
<g id="a_node21"><a xlink:title=" ">
<polygon fill="none" stroke="#bfbfbf" points="1022.5,-224.5 1022.5,-243.5 1081.5,-243.5 1081.5,-224.5 1022.5,-224.5"/>
<text text-anchor="middle" x="1052" y="-231.5" font-family="Helvetica,sans-Serif" font-size="10.00">stdexcept</text>
</a>
</g>
</g>
<!-- Node20&#45;&gt;Node21 -->
<g id="edge32" class="edge">
<title>Node20&#45;&gt;Node21</title>
<path fill="none" stroke="midnightblue" d="M877.8,-280.44C914.32,-270.92 973.34,-255.52 1012.41,-245.33"/>
<polygon fill="midnightblue" stroke="midnightblue" points="1013.58,-248.64 1022.37,-242.73 1011.81,-241.87 1013.58,-248.64"/>
</g>
<!-- Node22 -->
<g id="node22" class="node">
<title>Node22</title>
<g id="a_node22"><a xlink:href="startswith_8hpp.html" target="_top" xlink:title="HELPERS::startswith source file.">
<polygon fill="none" stroke="black" points="1937.5,-224.5 1937.5,-243.5 2056.5,-243.5 2056.5,-224.5 1937.5,-224.5"/>
<text text-anchor="middle" x="1997" y="-231.5" font-family="Helvetica,sans-Serif" font-size="10.00">../helpers/startswith.hpp</text>
</a>
</g>
</g>
<!-- Node20&#45;&gt;Node22 -->
<g id="edge35" class="edge">
<title>Node20&#45;&gt;Node22</title>
<path fill="none" stroke="midnightblue" d="M894.01,-287.6C1043.47,-283.18 1506.71,-268.36 1890,-244 1901.99,-243.24 1914.73,-242.29 1927.07,-241.3"/>
<polygon fill="midnightblue" stroke="midnightblue" points="1927.65,-244.76 1937.33,-240.45 1927.07,-237.78 1927.65,-244.76"/>
</g>
<!-- Node23 -->
<g id="node23" class="node">
<title>Node23</title>
<g id="a_node23"><a xlink:href="bloodvessel_8hpp.html" target="_top" xlink:title="MODEL::BloodVessel source file.">
<polygon fill="none" stroke="black" points="1757.5,-224.5 1757.5,-243.5 1880.5,-243.5 1880.5,-224.5 1757.5,-224.5"/>
<text text-anchor="middle" x="1819" y="-231.5" font-family="Helvetica,sans-Serif" font-size="10.00">../model/bloodvessel.hpp</text>
</a>
</g>
</g>
<!-- Node20&#45;&gt;Node23 -->
<g id="edge37" class="edge">
<title>Node20&#45;&gt;Node23</title>
<path fill="none" stroke="midnightblue" d="M894.09,-287.9C1028.74,-284.61 1415.4,-273.22 1746.91,-244.12"/>
<polygon fill="midnightblue" stroke="midnightblue" points="1747.54,-247.58 1757.19,-243.21 1746.92,-240.61 1747.54,-247.58"/>
</g>
<!-- Node25 -->
<g id="node25" class="node">
<title>Node25</title>
<g id="a_node25"><a xlink:href="flowreferencebc_8hpp.html" target="_top" xlink:title="MODEL::FlowReferenceBC source file.">
<polygon fill="none" stroke="black" points="1100,-224.5 1100,-243.5 1240,-243.5 1240,-224.5 1100,-224.5"/>
<text text-anchor="middle" x="1170" y="-231.5" font-family="Helvetica,sans-Serif" font-size="10.00">../model/flowreferencebc.hpp</text>
</a>
</g>
</g>
<!-- Node20&#45;&gt;Node25 -->
<g id="edge41" class="edge">
<title>Node20&#45;&gt;Node25</title>
<path fill="none" stroke="midnightblue" d="M894.01,-280.86C951.37,-271.33 1046.42,-255.53 1108.64,-245.2"/>
<polygon fill="midnightblue" stroke="midnightblue" points="1109.42,-248.61 1118.71,-243.52 1108.27,-241.71 1109.42,-248.61"/>
</g>
<!-- Node28 -->
<g id="node28" class="node">
<title>Node28</title>
<g id="a_node28"><a xlink:href="junction_8hpp.html" target="_top" xlink:title="MODEL::Junction source file.">
<polygon fill="none" stroke="black" points="469.5,-224.5 469.5,-243.5 574.5,-243.5 574.5,-224.5 469.5,-224.5"/>
<text text-anchor="middle" x="522" y="-231.5" font-family="Helvetica,sans-Serif" font-size="10.00">../model/junction.hpp</text>
</a>
</g>
</g>
<!-- Node20&#45;&gt;Node28 -->
<g id="edge49" class="edge">
<title>Node20&#45;&gt;Node28</title>
<path fill="none" stroke="midnightblue" d="M795.94,-280.8C738.85,-271.25 644.55,-255.49 582.84,-245.17"/>
<polygon fill="midnightblue" stroke="midnightblue" points="583.29,-241.7 572.85,-243.5 582.14,-248.6 583.29,-241.7"/>
</g>
<!-- Node29 -->
<g id="node29" class="node">
<title>Node29</title>
<g id="a_node29"><a xlink:href="openloopcoronarybc_8hpp.html" target="_top" xlink:title="MODEL::OpenLoopCoronaryBC source file.">
<polygon fill="none" stroke="black" points="1258,-224.5 1258,-243.5 1416,-243.5 1416,-224.5 1258,-224.5"/>
<text text-anchor="middle" x="1337" y="-231.5" font-family="Helvetica,sans-Serif" font-size="10.00">../model/openloopcoronarybc.hpp</text>
</a>
</g>
</g>
<!-- Node20&#45;&gt;Node29 -->
<g id="edge54" class="edge">
<title>Node20&#45;&gt;Node29</title>
<path fill="none" stroke="midnightblue" d="M894.43,-283.58C977.44,-274.46 1145.91,-255.97 1249.37,-244.62"/>
<polygon fill="midnightblue" stroke="midnightblue" points="1249.92,-248.08 1259.48,-243.51 1249.16,-241.12 1249.92,-248.08"/>
</g>
<!-- Node30 -->
<g id="node30" class="node">
<title>Node30</title>
<g id="a_node30"><a xlink:href="pressurereferencebc_8hpp.html" target="_top" xlink:title="MODEL::PressureReferenceBC source file.">
<polygon fill="none" stroke="black" points="1434,-224.5 1434,-243.5 1594,-243.5 1594,-224.5 1434,-224.5"/>
<text text-anchor="middle" x="1514" y="-231.5" font-family="Helvetica,sans-Serif" font-size="10.00">../model/pressurereferencebc.hpp</text>
</a>
</g>
</g>
<!-- Node20&#45;&gt;Node30 -->
<g id="edge58" class="edge">
<title>Node20&#45;&gt;Node30</title>
<path fill="none" stroke="midnightblue" d="M894.3,-285.56C992.73,-278.62 1220.85,-262.11 1423.7,-244.1"/>
<polygon fill="midnightblue" stroke="midnightblue" points="1424.3,-247.56 1433.95,-243.18 1423.68,-240.58 1424.3,-247.56"/>
</g>
<!-- Node31 -->
<g id="node31" class="node">
<title>Node31</title>
<g id="a_node31"><a xlink:href="resistancebc_8hpp.html" target="_top" xlink:title="MODEL::ResistanceBC source file.">
<polygon fill="none" stroke="black" points="1612.5,-224.5 1612.5,-243.5 1739.5,-243.5 1739.5,-224.5 1612.5,-224.5"/>
<text text-anchor="middle" x="1676" y="-231.5" font-family="Helvetica,sans-Serif" font-size="10.00">../model/resistancebc.hpp</text>
</a>
</g>
</g>
<!-- Node20&#45;&gt;Node31 -->
<g id="edge62" class="edge">
<title>Node20&#45;&gt;Node31</title>
<path fill="none" stroke="midnightblue" d="M894.3,-287.16C1013.75,-282.46 1328.36,-268.69 1602.19,-244.01"/>
<polygon fill="midnightblue" stroke="midnightblue" points="1602.68,-247.48 1612.32,-243.09 1602.05,-240.51 1602.68,-247.48"/>
</g>
<!-- Node32 -->
<g id="node32" class="node">
<title>Node32</title>
<g id="a_node32"><a xlink:href="resistivejunction_8hpp.html" target="_top" xlink:title="MODEL::ResistiveJunction source file.">
<polygon fill="none" stroke="black" points="593,-224.5 593,-243.5 735,-243.5 735,-224.5 593,-224.5"/>
<text text-anchor="middle" x="664" y="-231.5" font-family="Helvetica,sans-Serif" font-size="10.00">../model/resistivejunction.hpp</text>
</a>
</g>
</g>
<!-- Node20&#45;&gt;Node32 -->
<g id="edge66" class="edge">
<title>Node20&#45;&gt;Node32</title>
<path fill="none" stroke="midnightblue" d="M816.32,-280.44C785.47,-271.24 736.27,-256.56 702.17,-246.39"/>
<polygon fill="midnightblue" stroke="midnightblue" points="703.13,-243.02 692.55,-243.52 701.13,-249.73 703.13,-243.02"/>
</g>
<!-- Node33 -->
<g id="node33" class="node">
<title>Node33</title>
<g id="a_node33"><a xlink:href="windkesselbc_8hpp.html" target="_top" xlink:title="MODEL::WindkesselBC source file.">
<polygon fill="none" stroke="black" points="873.5,-224.5 873.5,-243.5 1004.5,-243.5 1004.5,-224.5 873.5,-224.5"/>
<text text-anchor="middle" x="939" y="-231.5" font-family="Helvetica,sans-Serif" font-size="10.00">../model/windkesselbc.hpp</text>
</a>
</g>
</g>
<!-- Node20&#45;&gt;Node33 -->
<g id="edge69" class="edge">
<title>Node20&#45;&gt;Node33</title>
<path fill="none" stroke="midnightblue" d="M860.1,-280.32C874.9,-271.82 897.69,-258.73 914.98,-248.8"/>
<polygon fill="midnightblue" stroke="midnightblue" points="917.01,-251.67 923.93,-243.65 913.52,-245.6 917.01,-251.67"/>
</g>
<!-- Node34 -->
<g id="node34" class="node">
<title>Node34</title>
<g id="a_node34"><a xlink:title=" ">
<polygon fill="none" stroke="#bfbfbf" points="753.5,-224.5 753.5,-243.5 816.5,-243.5 816.5,-224.5 753.5,-224.5"/>
<text text-anchor="middle" x="785" y="-231.5" font-family="Helvetica,sans-Serif" font-size="10.00">simdjson.h</text>
</a>
</g>
</g>
<!-- Node20&#45;&gt;Node34 -->
<g id="edge72" class="edge">
<title>Node20&#45;&gt;Node34</title>
<path fill="none" stroke="midnightblue" d="M835.36,-280.32C826.49,-272.34 813.13,-260.31 802.39,-250.65"/>
<polygon fill="midnightblue" stroke="midnightblue" points="804.59,-247.92 794.82,-243.83 799.91,-253.13 804.59,-247.92"/>
</g>
<!-- Node22&#45;&gt;Node15 -->
<g id="edge36" class="edge">
<title>Node22&#45;&gt;Node15</title>
<path fill="none" stroke="midnightblue" d="M1996.3,-224.17C1993.45,-194.74 1979.98,-99.37 1923,-56 1872.61,-17.64 1676.93,-11.85 1600.16,-11.07"/>
<polygon fill="midnightblue" stroke="midnightblue" points="1599.75,-7.57 1589.72,-10.99 1599.7,-14.57 1599.75,-7.57"/>
</g>
<!-- Node23&#45;&gt;Node8 -->
<g id="edge39" class="edge">
<title>Node23&#45;&gt;Node8</title>
<path fill="none" stroke="midnightblue" d="M1773.03,-224.49C1698.51,-210.94 1546.59,-184.33 1417,-168 1244.48,-146.26 1197.95,-150 1021.07,-132.08"/>
<polygon fill="midnightblue" stroke="midnightblue" points="1021.2,-128.58 1010.89,-131.04 1020.49,-135.54 1021.2,-128.58"/>
</g>
<!-- Node23&#45;&gt;Node12 -->
<g id="edge40" class="edge">
<title>Node23&#45;&gt;Node12</title>
<path fill="none" stroke="midnightblue" d="M1757.19,-224.85C1754.42,-224.55 1751.68,-224.26 1749,-224 1626.33,-211.97 1247.29,-188.8 1123.53,-181.36"/>
<polygon fill="midnightblue" stroke="midnightblue" points="1123.56,-177.86 1113.37,-180.75 1123.15,-184.84 1123.56,-177.86"/>
</g>
<!-- Node24 -->
<g id="node24" class="node">
<title>Node24</title>
<g id="a_node24"><a xlink:title=" ">
<polygon fill="none" stroke="#bfbfbf" points="1495,-112.5 1495,-131.5 1541,-131.5 1541,-112.5 1495,-112.5"/>
<text text-anchor="middle" x="1518" y="-119.5" font-family="Helvetica,sans-Serif" font-size="10.00">math.h</text>
</a>
</g>
</g>
<!-- Node23&#45;&gt;Node24 -->
<g id="edge38" class="edge">
<title>Node23&#45;&gt;Node24</title>
<path fill="none" stroke="midnightblue" d="M1795.38,-224.37C1741.95,-204.84 1611.71,-157.25 1550.63,-134.92"/>
<polygon fill="midnightblue" stroke="midnightblue" points="1551.69,-131.59 1541.1,-131.44 1549.29,-138.16 1551.69,-131.59"/>
</g>
<!-- Node25&#45;&gt;Node8 -->
<g id="edge42" class="edge">
<title>Node25&#45;&gt;Node8</title>
<path fill="none" stroke="midnightblue" d="M1116.31,-224.47C1084.25,-217.8 1043.57,-206.46 1011,-188 988.74,-175.38 968.07,-154.11 955.26,-139.36"/>
<polygon fill="midnightblue" stroke="midnightblue" points="957.8,-136.93 948.68,-131.54 952.44,-141.44 957.8,-136.93"/>
</g>
<!-- Node25&#45;&gt;Node12 -->
<g id="edge43" class="edge">
<title>Node25&#45;&gt;Node12</title>
<path fill="none" stroke="midnightblue" d="M1156.18,-224.32C1142.77,-215.9 1122.18,-202.97 1106.41,-193.07"/>
<polygon fill="midnightblue" stroke="midnightblue" points="1108.11,-190.01 1097.78,-187.65 1104.39,-195.94 1108.11,-190.01"/>
</g>
<!-- Node26 -->
<g id="node26" class="node">
<title>Node26</title>
<g id="a_node26"><a xlink:href="timedependentparameter_8hpp.html" target="_top" xlink:title="MODEL::TimeDependentParameter source file.">
<polygon fill="none" stroke="black" points="1266,-168.5 1266,-187.5 1408,-187.5 1408,-168.5 1266,-168.5"/>
<text text-anchor="middle" x="1337" y="-175.5" font-family="Helvetica,sans-Serif" font-size="10.00">timedependentparameter.hpp</text>
</a>
</g>
</g>
<!-- Node25&#45;&gt;Node26 -->
<g id="edge44" class="edge">
<title>Node25&#45;&gt;Node26</title>
<path fill="none" stroke="midnightblue" d="M1196.46,-224.44C1224.68,-215.32 1269.54,-200.81 1300.97,-190.65"/>
<polygon fill="midnightblue" stroke="midnightblue" points="1302.22,-193.92 1310.66,-187.52 1300.07,-187.26 1302.22,-193.92"/>
</g>
<!-- Node26&#45;&gt;Node7 -->
<g id="edge47" class="edge">
<title>Node26&#45;&gt;Node7</title>
<path fill="none" stroke="midnightblue" d="M1336.32,-168.18C1334.9,-154.84 1330.63,-129.27 1318,-112 1287.05,-69.67 1232.64,-39.59 1198.56,-23.78"/>
<polygon fill="midnightblue" stroke="midnightblue" points="1199.65,-20.44 1189.1,-19.52 1196.78,-26.82 1199.65,-20.44"/>
</g>
<!-- Node26&#45;&gt;Node14 -->
<g id="edge48" class="edge">
<title>Node26&#45;&gt;Node14</title>
<path fill="none" stroke="midnightblue" d="M1308.95,-168.44C1263.69,-154.87 1171.54,-128.31 1092,-112 1001.92,-93.53 895.52,-79.73 834.29,-72.56"/>
<polygon fill="midnightblue" stroke="midnightblue" points="834.46,-69.05 824.12,-71.38 833.65,-76.01 834.46,-69.05"/>
</g>
<!-- Node26&#45;&gt;Node24 -->
<g id="edge45" class="edge">
<title>Node26&#45;&gt;Node24</title>
<path fill="none" stroke="midnightblue" d="M1365.68,-168.44C1398.11,-158.77 1450.83,-143.04 1484.96,-132.86"/>
<polygon fill="midnightblue" stroke="midnightblue" points="1486.33,-136.1 1494.91,-129.89 1484.33,-129.39 1486.33,-136.1"/>
</g>
<!-- Node27 -->
<g id="node27" class="node">
<title>Node27</title>
<g id="a_node27"><a xlink:title=" ">
<polygon fill="none" stroke="#bfbfbf" points="1257.5,-112.5 1257.5,-131.5 1308.5,-131.5 1308.5,-112.5 1257.5,-112.5"/>
<text text-anchor="middle" x="1283" y="-119.5" font-family="Helvetica,sans-Serif" font-size="10.00">numeric</text>
</a>
</g>
</g>
<!-- Node26&#45;&gt;Node27 -->
<g id="edge46" class="edge">
<title>Node26&#45;&gt;Node27</title>
<path fill="none" stroke="midnightblue" d="M1328.08,-168.08C1320.22,-160.22 1308.57,-148.57 1299.08,-139.08"/>
<polygon fill="midnightblue" stroke="midnightblue" points="1301.3,-136.35 1291.75,-131.75 1296.35,-141.3 1301.3,-136.35"/>
</g>
<!-- Node28&#45;&gt;Node8 -->
<g id="edge50" class="edge">
<title>Node28&#45;&gt;Node8</title>
<path fill="none" stroke="midnightblue" d="M554.61,-224.46C629.89,-204.74 815.79,-156.05 899.7,-134.08"/>
<polygon fill="midnightblue" stroke="midnightblue" points="900.63,-137.45 909.41,-131.53 898.85,-130.68 900.63,-137.45"/>
</g>
<!-- Node28&#45;&gt;Node12 -->
<g id="edge51" class="edge">
<title>Node28&#45;&gt;Node12</title>
<path fill="none" stroke="midnightblue" d="M574.74,-225.15C577.87,-224.74 580.98,-224.36 584,-224 755.21,-203.88 960.33,-187.99 1044.76,-181.8"/>
<polygon fill="midnightblue" stroke="midnightblue" points="1045.2,-185.28 1054.92,-181.06 1044.69,-178.3 1045.2,-185.28"/>
</g>
<!-- Node29&#45;&gt;Node8 -->
<g id="edge55" class="edge">
<title>Node29&#45;&gt;Node8</title>
<path fill="none" stroke="midnightblue" d="M1258.7,-224.49C1186.15,-215.96 1083.91,-202.1 1046,-188 1037.26,-184.75 991.77,-155.51 963.93,-137.37"/>
<polygon fill="midnightblue" stroke="midnightblue" points="965.53,-134.23 955.24,-131.7 961.7,-140.09 965.53,-134.23"/>
</g>
<!-- Node29&#45;&gt;Node12 -->
<g id="edge56" class="edge">
<title>Node29&#45;&gt;Node12</title>
<path fill="none" stroke="midnightblue" d="M1296.91,-224.44C1249.27,-214.28 1170.31,-197.42 1123.11,-187.35"/>
<polygon fill="midnightblue" stroke="midnightblue" points="1123.76,-183.91 1113.25,-185.24 1122.3,-190.75 1123.76,-183.91"/>
</g>
<!-- Node29&#45;&gt;Node26 -->
<g id="edge57" class="edge">
<title>Node29&#45;&gt;Node26</title>
<path fill="none" stroke="midnightblue" d="M1337,-224.08C1337,-217.01 1337,-206.86 1337,-197.99"/>
<polygon fill="midnightblue" stroke="midnightblue" points="1340.5,-197.75 1337,-187.75 1333.5,-197.75 1340.5,-197.75"/>
</g>
<!-- Node30&#45;&gt;Node8 -->
<g id="edge59" class="edge">
<title>Node30&#45;&gt;Node8</title>
<path fill="none" stroke="midnightblue" d="M1443.42,-224.47C1381.4,-216.52 1288.85,-203.58 1209,-188 1187.24,-183.76 1056.34,-151.41 986.25,-134.01"/>
<polygon fill="midnightblue" stroke="midnightblue" points="986.92,-130.57 976.37,-131.55 985.23,-137.36 986.92,-130.57"/>
</g>
<!-- Node30&#45;&gt;Node12 -->
<g id="edge60" class="edge">
<title>Node30&#45;&gt;Node12</title>
<path fill="none" stroke="midnightblue" d="M1437.31,-224.48C1362.03,-215.95 1243.98,-202.08 1142,-188 1135.99,-187.17 1129.63,-186.24 1123.42,-185.3"/>
<polygon fill="midnightblue" stroke="midnightblue" points="1123.6,-181.79 1113.18,-183.72 1122.53,-188.7 1123.6,-181.79"/>
</g>
<!-- Node30&#45;&gt;Node26 -->
<g id="edge61" class="edge">
<title>Node30&#45;&gt;Node26</title>
<path fill="none" stroke="midnightblue" d="M1485.95,-224.44C1455.92,-215.28 1408.09,-200.69 1374.76,-190.52"/>
<polygon fill="midnightblue" stroke="midnightblue" points="1375.5,-187.09 1364.91,-187.52 1373.46,-193.78 1375.5,-187.09"/>
</g>
<!-- Node31&#45;&gt;Node8 -->
<g id="edge63" class="edge">
<title>Node31&#45;&gt;Node8</title>
<path fill="none" stroke="midnightblue" d="M1612.31,-225.08C1609.16,-224.71 1606.05,-224.35 1603,-224 1449.38,-206.54 1408.95,-216.52 1257,-188 1223.94,-181.79 1216.79,-175.53 1184,-168 1123.73,-154.17 1054.27,-141.59 1005.27,-133.28"/>
<polygon fill="midnightblue" stroke="midnightblue" points="1005.58,-129.78 995.14,-131.57 1004.41,-136.68 1005.58,-129.78"/>
</g>
<!-- Node31&#45;&gt;Node12 -->
<g id="edge64" class="edge">
<title>Node31&#45;&gt;Node12</title>
<path fill="none" stroke="midnightblue" d="M1612.31,-225.01C1609.17,-224.66 1606.05,-224.32 1603,-224 1424.05,-205.22 1209.78,-188.45 1123.17,-181.91"/>
<polygon fill="midnightblue" stroke="midnightblue" points="1123.25,-178.41 1113.01,-181.15 1122.72,-185.39 1123.25,-178.41"/>
</g>
<!-- Node31&#45;&gt;Node26 -->
<g id="edge65" class="edge">
<title>Node31&#45;&gt;Node26</title>
<path fill="none" stroke="midnightblue" d="M1622.28,-224.44C1562.03,-214.85 1464.39,-199.29 1400.43,-189.1"/>
<polygon fill="midnightblue" stroke="midnightblue" points="1400.89,-185.63 1390.46,-187.52 1399.79,-192.55 1400.89,-185.63"/>
</g>
<!-- Node32&#45;&gt;Node8 -->
<g id="edge67" class="edge">
<title>Node32&#45;&gt;Node8</title>
<path fill="none" stroke="midnightblue" d="M685.81,-224.37C734.84,-204.97 853.88,-157.87 910.74,-135.37"/>
<polygon fill="midnightblue" stroke="midnightblue" points="912.28,-138.53 920.29,-131.59 909.7,-132.02 912.28,-138.53"/>
</g>
<!-- Node32&#45;&gt;Node12 -->
<g id="edge68" class="edge">
<title>Node32&#45;&gt;Node12</title>
<path fill="none" stroke="midnightblue" d="M730.55,-224.44C819.18,-213.05 973.1,-193.26 1044.95,-184.02"/>
<polygon fill="midnightblue" stroke="midnightblue" points="1045.47,-187.48 1054.94,-182.74 1044.58,-180.54 1045.47,-187.48"/>
</g>
<!-- Node33&#45;&gt;Node8 -->
<g id="edge70" class="edge">
<title>Node33&#45;&gt;Node8</title>
<path fill="none" stroke="midnightblue" d="M939.24,-224.37C939.72,-206.62 940.84,-165.67 941.49,-141.6"/>
<polygon fill="midnightblue" stroke="midnightblue" points="944.99,-141.68 941.77,-131.59 937.99,-141.49 944.99,-141.68"/>
</g>
<!-- Node33&#45;&gt;Node12 -->
<g id="edge71" class="edge">
<title>Node33&#45;&gt;Node12</title>
<path fill="none" stroke="midnightblue" d="M961.98,-224.44C986.16,-215.44 1024.42,-201.19 1051.65,-191.05"/>
<polygon fill="midnightblue" stroke="midnightblue" points="1052.98,-194.29 1061.13,-187.52 1050.54,-187.73 1052.98,-194.29"/>
</g>
<!-- Node35&#45;&gt;Node4 -->
<g id="edge79" class="edge">
<title>Node35&#45;&gt;Node4</title>
<path fill="none" stroke="midnightblue" d="M1954.5,-288.34C1773.9,-285.43 1052.29,-272.55 460,-244 435.55,-242.82 408.63,-241.1 385.36,-239.47"/>
<polygon fill="midnightblue" stroke="midnightblue" points="385.52,-235.97 375.3,-238.76 385.02,-242.96 385.52,-235.97"/>
</g>
<!-- Node35&#45;&gt;Node7 -->
<g id="edge76" class="edge">
<title>Node35&#45;&gt;Node7</title>
<path fill="none" stroke="midnightblue" d="M2039.65,-287.46C2102.71,-283.64 2209.54,-270.34 2172,-224 2045.09,-67.34 1358,-21.21 1200.28,-12.61"/>
<polygon fill="midnightblue" stroke="midnightblue" points="1200.43,-9.11 1190.26,-12.08 1200.06,-16.1 1200.43,-9.11"/>
</g>
<!-- Node35&#45;&gt;Node15 -->
<g id="edge75" class="edge">
<title>Node35&#45;&gt;Node15</title>
<path fill="none" stroke="midnightblue" d="M2017.7,-280.35C2033.14,-272.88 2053.64,-260.65 2066,-244 2083.94,-219.83 2085,-209.1 2085,-179 2085,-179 2085,-179 2085,-121 2085,-21.16 1710.85,-11.59 1599.75,-10.95"/>
<polygon fill="midnightblue" stroke="midnightblue" points="1599.56,-7.45 1589.55,-10.91 1599.53,-14.45 1599.56,-7.45"/>
</g>
<!-- Node35&#45;&gt;Node17 -->
<g id="edge77" class="edge">
<title>Node35&#45;&gt;Node17</title>
<path fill="none" stroke="midnightblue" d="M1954.48,-288.27C1686.16,-283.63 233.69,-258.01 66.13,-243.56"/>
<polygon fill="midnightblue" stroke="midnightblue" points="66.47,-240.07 56.16,-242.51 65.75,-247.03 66.47,-240.07"/>
</g>
<!-- Node35&#45;&gt;Node22 -->
<g id="edge78" class="edge">
<title>Node35&#45;&gt;Node22</title>
<path fill="none" stroke="midnightblue" d="M1997,-280.08C1997,-273.01 1997,-262.86 1997,-253.99"/>
<polygon fill="midnightblue" stroke="midnightblue" points="2000.5,-253.75 1997,-243.75 1993.5,-253.75 2000.5,-253.75"/>
</g>
<!-- Node36 -->
<g id="node36" class="node">
<title>Node36</title>
<g id="a_node36"><a xlink:title=" ">
<polygon fill="none" stroke="#bfbfbf" points="2113,-224.5 2113,-243.5 2163,-243.5 2163,-224.5 2113,-224.5"/>
<text text-anchor="middle" x="2138" y="-231.5" font-family="Helvetica,sans-Serif" font-size="10.00">fstream</text>
</a>
</g>
</g>
<!-- Node35&#45;&gt;Node36 -->
<g id="edge74" class="edge">
<title>Node35&#45;&gt;Node36</title>
<path fill="none" stroke="midnightblue" d="M2019.34,-280.44C2042.75,-271.48 2079.74,-257.31 2106.19,-247.18"/>
<polygon fill="midnightblue" stroke="midnightblue" points="2107.68,-250.36 2115.76,-243.52 2105.17,-243.82 2107.68,-250.36"/>
</g>
</g>
</svg>
