<?xml version="1.0" encoding="UTF-8" standalone="no"?>
<!DOCTYPE svg PUBLIC "-//W3C//DTD SVG 1.1//EN"
 "http://www.w3.org/Graphics/SVG/1.1/DTD/svg11.dtd">
<!-- Generated by graphviz version 3.0.0 (20220413.0242)
 -->
<!-- Title: main.cpp Pages: 1 -->
<svg width="1940pt" height="420pt"
 viewBox="0.00 0.00 1939.50 420.00" xmlns="http://www.w3.org/2000/svg" xmlns:xlink="http://www.w3.org/1999/xlink">
<g id="graph0" class="graph" transform="scale(1 1) rotate(0) translate(4 416)">
<title>main.cpp</title>
<!-- Node1 -->
<g id="node1" class="node">
<title>Node1</title>
<g id="a_node1"><a xlink:title="Main routine of svZeroDSolver.">
<polygon fill="#bfbfbf" stroke="black" points="1025.5,-392.5 1025.5,-411.5 1081.5,-411.5 1081.5,-392.5 1025.5,-392.5"/>
<text text-anchor="middle" x="1053.5" y="-399.5" font-family="Helvetica,sans-Serif" font-size="10.00">main.cpp</text>
</a>
</g>
</g>
<!-- Node2 -->
<g id="node2" class="node">
<title>Node2</title>
<g id="a_node2"><a xlink:href="integrator_8hpp.html" target="_top" xlink:title="ALGEBRA::Integrator source file.">
<polygon fill="none" stroke="black" points="1040.5,-336.5 1040.5,-355.5 1150.5,-355.5 1150.5,-336.5 1040.5,-336.5"/>
<text text-anchor="middle" x="1095.5" y="-343.5" font-family="Helvetica,sans-Serif" font-size="10.00">algebra/integrator.hpp</text>
</a>
</g>
</g>
<!-- Node1&#45;&gt;Node2 -->
<g id="edge1" class="edge">
<title>Node1&#45;&gt;Node2</title>
<path fill="none" stroke="midnightblue" d="M1060.44,-392.08C1066.43,-384.38 1075.25,-373.03 1082.55,-363.65"/>
<polygon fill="midnightblue" stroke="midnightblue" points="1085.32,-365.79 1088.69,-355.75 1079.79,-361.5 1085.32,-365.79"/>
</g>
<!-- Node4 -->
<g id="node4" class="node">
<title>Node4</title>
<g id="a_node4"><a xlink:href="model_8hpp.html" target="_top" xlink:title="MODEL::Model source file.">
<polygon fill="none" stroke="black" points="1005.5,-280.5 1005.5,-299.5 1103.5,-299.5 1103.5,-280.5 1005.5,-280.5"/>
<text text-anchor="middle" x="1054.5" y="-287.5" font-family="Helvetica,sans-Serif" font-size="10.00">../model/model.hpp</text>
</a>
</g>
</g>
<!-- Node1&#45;&gt;Node4 -->
<g id="edge62" class="edge">
<title>Node1&#45;&gt;Node4</title>
<path fill="none" stroke="midnightblue" d="M1047.24,-392.32C1039.11,-379.99 1026.54,-356.62 1031.5,-336 1033.81,-326.42 1038.52,-316.58 1043.08,-308.56"/>
<polygon fill="midnightblue" stroke="midnightblue" points="1046.19,-310.17 1048.4,-299.81 1040.21,-306.54 1046.19,-310.17"/>
</g>
<!-- Node8 -->
<g id="node8" class="node">
<title>Node8</title>
<g id="a_node8"><a xlink:href="densesystem_8hpp.html" target="_top" xlink:title="ALGEBRA::DenseSystem source file.">
<polygon fill="none" stroke="black" points="735.5,-112.5 735.5,-131.5 869.5,-131.5 869.5,-112.5 735.5,-112.5"/>
<text text-anchor="middle" x="802.5" y="-119.5" font-family="Helvetica,sans-Serif" font-size="10.00">../algebra/densesystem.hpp</text>
</a>
</g>
</g>
<!-- Node1&#45;&gt;Node8 -->
<g id="edge59" class="edge">
<title>Node1&#45;&gt;Node8</title>
<path fill="none" stroke="midnightblue" d="M1025.2,-399.25C900.28,-391.14 404.5,-354.93 404.5,-291 404.5,-291 404.5,-291 404.5,-233 404.5,-198.37 631.22,-153.35 742.43,-133.35"/>
<polygon fill="midnightblue" stroke="midnightblue" points="743.27,-136.76 752.5,-131.56 742.04,-129.87 743.27,-136.76"/>
</g>
<!-- Node9 -->
<g id="node9" class="node">
<title>Node9</title>
<g id="a_node9"><a xlink:href="sparsesystem_8hpp.html" target="_top" xlink:title="ALGEBRA::SparseSystem source file.">
<polygon fill="none" stroke="black" points="1020,-112.5 1020,-131.5 1157,-131.5 1157,-112.5 1020,-112.5"/>
<text text-anchor="middle" x="1088.5" y="-119.5" font-family="Helvetica,sans-Serif" font-size="10.00">../algebra/sparsesystem.hpp</text>
</a>
</g>
</g>
<!-- Node1&#45;&gt;Node9 -->
<g id="edge60" class="edge">
<title>Node1&#45;&gt;Node9</title>
<path fill="none" stroke="midnightblue" d="M1081.61,-399.83C1156.65,-395.01 1361.86,-370.31 1447.5,-244 1496.26,-172.08 1464.5,-244.09 1315.5,-188 1296.53,-180.86 1293.58,-174.87 1274.5,-168 1232.5,-152.88 1183.35,-141.23 1146.12,-133.58"/>
<polygon fill="midnightblue" stroke="midnightblue" points="1146.45,-130.08 1135.95,-131.53 1145.06,-136.94 1146.45,-130.08"/>
</g>
<!-- Node27 -->
<g id="node27" class="node">
<title>Node27</title>
<g id="a_node27"><a xlink:href="state_8hpp.html" target="_top" xlink:title="ALGEBRA::State source file.">
<polygon fill="none" stroke="black" points="1639.5,-280.5 1639.5,-299.5 1695.5,-299.5 1695.5,-280.5 1639.5,-280.5"/>
<text text-anchor="middle" x="1667.5" y="-287.5" font-family="Helvetica,sans-Serif" font-size="10.00">state.hpp</text>
</a>
</g>
</g>
<!-- Node1&#45;&gt;Node27 -->
<g id="edge61" class="edge">
<title>Node1&#45;&gt;Node27</title>
<path fill="none" stroke="midnightblue" d="M1081.79,-401.48C1181.63,-402.74 1516.45,-403.27 1610.5,-356 1631.38,-345.51 1647.94,-323.74 1657.72,-308.29"/>
<polygon fill="midnightblue" stroke="midnightblue" points="1660.76,-310.02 1662.91,-299.64 1654.76,-306.41 1660.76,-310.02"/>
</g>
<!-- Node28 -->
<g id="node28" class="node">
<title>Node28</title>
<g id="a_node28"><a xlink:href="configreader_8hpp.html" target="_top" xlink:title="IO::ConfigReader source file.">
<polygon fill="none" stroke="black" points="172.5,-336.5 172.5,-355.5 270.5,-355.5 270.5,-336.5 172.5,-336.5"/>
<text text-anchor="middle" x="221.5" y="-343.5" font-family="Helvetica,sans-Serif" font-size="10.00">io/configreader.hpp</text>
</a>
</g>
</g>
<!-- Node1&#45;&gt;Node28 -->
<g id="edge63" class="edge">
<title>Node1&#45;&gt;Node28</title>
<path fill="none" stroke="midnightblue" d="M1025.28,-399.65C927.1,-394.85 591.28,-377.81 314.5,-356 303.6,-355.14 292,-354.11 280.82,-353.06"/>
<polygon fill="midnightblue" stroke="midnightblue" points="280.99,-349.56 270.7,-352.09 280.32,-356.53 280.99,-349.56"/>
</g>
<!-- Node30 -->
<g id="node30" class="node">
<title>Node30</title>
<g id="a_node30"><a xlink:href="debug_8hpp.html" target="_top" xlink:title="HELPERS::DEBUG source file.">
<polygon fill="none" stroke="black" points="0,-280.5 0,-299.5 103,-299.5 103,-280.5 0,-280.5"/>
<text text-anchor="middle" x="51.5" y="-287.5" font-family="Helvetica,sans-Serif" font-size="10.00">../helpers/debug.hpp</text>
</a>
</g>
</g>
<!-- Node1&#45;&gt;Node30 -->
<g id="edge84" class="edge">
<title>Node1&#45;&gt;Node30</title>
<path fill="none" stroke="midnightblue" d="M1025.29,-401.35C892.67,-402.74 330.56,-405.52 163.5,-356 127.85,-345.43 91.52,-321.39 70.27,-305.7"/>
<polygon fill="midnightblue" stroke="midnightblue" points="72.22,-302.78 62.13,-299.54 68,-308.37 72.22,-302.78"/>
</g>
<!-- Node32 -->
<g id="node32" class="node">
<title>Node32</title>
<g id="a_node32"><a xlink:href="csvwriter_8hpp.html" target="_top" xlink:title="IO::write_csv source file.">
<polygon fill="none" stroke="black" points="1516,-336.5 1516,-355.5 1601,-355.5 1601,-336.5 1516,-336.5"/>
<text text-anchor="middle" x="1558.5" y="-343.5" font-family="Helvetica,sans-Serif" font-size="10.00">io/csvwriter.hpp</text>
</a>
</g>
</g>
<!-- Node1&#45;&gt;Node32 -->
<g id="edge70" class="edge">
<title>Node1&#45;&gt;Node32</title>
<path fill="none" stroke="midnightblue" d="M1081.56,-398.16C1149.96,-391.22 1330.75,-372.73 1481.5,-356 1489.31,-355.13 1497.56,-354.19 1505.64,-353.26"/>
<polygon fill="midnightblue" stroke="midnightblue" points="1506.22,-356.72 1515.75,-352.09 1505.41,-349.76 1506.22,-356.72"/>
</g>
<!-- Node35 -->
<g id="node35" class="node">
<title>Node35</title>
<g id="a_node35"><a xlink:href="jsonwriter_8hpp.html" target="_top" xlink:title="IO::write_json source file.">
<polygon fill="none" stroke="black" points="1703,-336.5 1703,-355.5 1790,-355.5 1790,-336.5 1703,-336.5"/>
<text text-anchor="middle" x="1746.5" y="-343.5" font-family="Helvetica,sans-Serif" font-size="10.00">io/jsonwriter.hpp</text>
</a>
</g>
</g>
<!-- Node1&#45;&gt;Node35 -->
<g id="edge78" class="edge">
<title>Node1&#45;&gt;Node35</title>
<path fill="none" stroke="midnightblue" d="M1081.76,-399.24C1168.55,-393.78 1438.92,-376.23 1662.5,-356 1672.36,-355.11 1682.86,-354.06 1692.98,-353"/>
<polygon fill="midnightblue" stroke="midnightblue" points="1693.36,-356.48 1702.93,-351.94 1692.62,-349.52 1693.36,-356.48"/>
</g>
<!-- Node37 -->
<g id="node37" class="node">
<title>Node37</title>
<g id="a_node37"><a xlink:href="endswith_8hpp.html" target="_top" xlink:title="HELPERS::endswith source file.">
<polygon fill="none" stroke="black" points="230.5,-168.5 230.5,-187.5 338.5,-187.5 338.5,-168.5 230.5,-168.5"/>
<text text-anchor="middle" x="284.5" y="-175.5" font-family="Helvetica,sans-Serif" font-size="10.00">helpers/endswith.hpp</text>
</a>
</g>
</g>
<!-- Node1&#45;&gt;Node37 -->
<g id="edge85" class="edge">
<title>Node1&#45;&gt;Node37</title>
<path fill="none" stroke="midnightblue" d="M1025.27,-400.53C905.9,-398.36 446.15,-387.95 390.5,-356 329.43,-320.94 299.65,-235.34 289.11,-197.51"/>
<polygon fill="midnightblue" stroke="midnightblue" points="292.48,-196.56 286.54,-187.79 285.71,-198.35 292.48,-196.56"/>
</g>
<!-- Node3 -->
<g id="node3" class="node">
<title>Node3</title>
<g id="a_node3"><a xlink:title=" ">
<polygon fill="none" stroke="#bfbfbf" points="716,-56.5 716,-75.5 787,-75.5 787,-56.5 716,-56.5"/>
<text text-anchor="middle" x="751.5" y="-63.5" font-family="Helvetica,sans-Serif" font-size="10.00">Eigen/Dense</text>
</a>
</g>
</g>
<!-- Node2&#45;&gt;Node3 -->
<g id="edge2" class="edge">
<title>Node2&#45;&gt;Node3</title>
<path fill="none" stroke="midnightblue" d="M1040.41,-342.49C870.58,-334.01 366.5,-303.12 366.5,-235 366.5,-235 366.5,-235 366.5,-177 366.5,-107.1 604.06,-79.14 705.97,-70.36"/>
<polygon fill="midnightblue" stroke="midnightblue" points="706.3,-73.85 715.97,-69.53 705.71,-66.87 706.3,-73.85"/>
</g>
<!-- Node2&#45;&gt;Node4 -->
<g id="edge3" class="edge">
<title>Node2&#45;&gt;Node4</title>
<path fill="none" stroke="midnightblue" d="M1088.73,-336.08C1082.94,-328.46 1074.44,-317.26 1067.36,-307.94"/>
<polygon fill="midnightblue" stroke="midnightblue" points="1069.98,-305.6 1061.14,-299.75 1064.4,-309.83 1069.98,-305.6"/>
</g>
<!-- Node2&#45;&gt;Node27 -->
<g id="edge58" class="edge">
<title>Node2&#45;&gt;Node27</title>
<path fill="none" stroke="midnightblue" d="M1150.71,-340.53C1242.49,-332.98 1432.24,-316.87 1592.5,-300 1604.5,-298.74 1617.57,-297.22 1629.38,-295.79"/>
<polygon fill="midnightblue" stroke="midnightblue" points="1629.88,-299.26 1639.39,-294.57 1629.04,-292.31 1629.88,-299.26"/>
</g>
<!-- Node5 -->
<g id="node5" class="node">
<title>Node5</title>
<g id="a_node5"><a xlink:title=" ">
<polygon fill="none" stroke="#bfbfbf" points="682,-112.5 682,-131.5 717,-131.5 717,-112.5 682,-112.5"/>
<text text-anchor="middle" x="699.5" y="-119.5" font-family="Helvetica,sans-Serif" font-size="10.00">map</text>
</a>
</g>
</g>
<!-- Node4&#45;&gt;Node5 -->
<g id="edge4" class="edge">
<title>Node4&#45;&gt;Node5</title>
<path fill="none" stroke="midnightblue" d="M1005.44,-288.49C881.12,-286.68 561.32,-278.66 529.5,-244 495.82,-207.3 540.05,-200.59 591.5,-168 605.48,-159.14 645.44,-143.32 672.63,-133"/>
<polygon fill="midnightblue" stroke="midnightblue" points="673.87,-136.27 681.99,-129.46 671.4,-129.72 673.87,-136.27"/>
</g>
<!-- Node6 -->
<g id="node6" class="node">
<title>Node6</title>
<g id="a_node6"><a xlink:title=" ">
<polygon fill="none" stroke="#bfbfbf" points="1040,-224.5 1040,-243.5 1069,-243.5 1069,-224.5 1040,-224.5"/>
<text text-anchor="middle" x="1054.5" y="-231.5" font-family="Helvetica,sans-Serif" font-size="10.00">list</text>
</a>
</g>
</g>
<!-- Node4&#45;&gt;Node6 -->
<g id="edge5" class="edge">
<title>Node4&#45;&gt;Node6</title>
<path fill="none" stroke="midnightblue" d="M1054.5,-280.08C1054.5,-273.01 1054.5,-262.86 1054.5,-253.99"/>
<polygon fill="midnightblue" stroke="midnightblue" points="1058,-253.75 1054.5,-243.75 1051,-253.75 1058,-253.75"/>
</g>
<!-- Node7 -->
<g id="node7" class="node">
<title>Node7</title>
<g id="a_node7"><a xlink:title=" ">
<polygon fill="none" stroke="#bfbfbf" points="1087.5,-224.5 1087.5,-243.5 1133.5,-243.5 1133.5,-224.5 1087.5,-224.5"/>
<text text-anchor="middle" x="1110.5" y="-231.5" font-family="Helvetica,sans-Serif" font-size="10.00">variant</text>
</a>
</g>
</g>
<!-- Node4&#45;&gt;Node7 -->
<g id="edge6" class="edge">
<title>Node4&#45;&gt;Node7</title>
<path fill="none" stroke="midnightblue" d="M1063.5,-280.32C1071.69,-272.42 1084.01,-260.55 1093.97,-250.94"/>
<polygon fill="midnightblue" stroke="midnightblue" points="1096.57,-253.29 1101.34,-243.83 1091.71,-248.26 1096.57,-253.29"/>
</g>
<!-- Node4&#45;&gt;Node8 -->
<g id="edge7" class="edge">
<title>Node4&#45;&gt;Node8</title>
<path fill="none" stroke="midnightblue" d="M1005.28,-288.41C882.22,-286.44 568.74,-278.08 537.5,-244 504.17,-207.64 675.5,-156.43 758.95,-134.12"/>
<polygon fill="midnightblue" stroke="midnightblue" points="759.9,-137.49 768.67,-131.55 758.1,-130.72 759.9,-137.49"/>
</g>
<!-- Node4&#45;&gt;Node9 -->
<g id="edge9" class="edge">
<title>Node4&#45;&gt;Node9</title>
<path fill="none" stroke="midnightblue" d="M1103.69,-286.26C1197.28,-280.81 1393.08,-267.07 1413.5,-244 1419.39,-237.34 1418.95,-231.02 1413.5,-224 1374.13,-173.23 1335.11,-206.22 1273.5,-188 1216.83,-171.24 1151.89,-148.82 1115.83,-135.16"/>
<polygon fill="midnightblue" stroke="midnightblue" points="1117.04,-131.88 1106.45,-131.56 1114.53,-138.42 1117.04,-131.88"/>
</g>
<!-- Node13 -->
<g id="node13" class="node">
<title>Node13</title>
<g id="a_node13"><a xlink:href="junction_8hpp.html" target="_top" xlink:title="MODEL::Junction source file.">
<polygon fill="none" stroke="black" points="712.5,-224.5 712.5,-243.5 780.5,-243.5 780.5,-224.5 712.5,-224.5"/>
<text text-anchor="middle" x="746.5" y="-231.5" font-family="Helvetica,sans-Serif" font-size="10.00">junction.hpp</text>
</a>
</g>
</g>
<!-- Node4&#45;&gt;Node13 -->
<g id="edge14" class="edge">
<title>Node4&#45;&gt;Node13</title>
<path fill="none" stroke="midnightblue" d="M1005.07,-281.18C953.95,-272.97 871.57,-259.38 791.06,-244.24"/>
<polygon fill="midnightblue" stroke="midnightblue" points="791.22,-240.71 780.74,-242.29 789.92,-247.59 791.22,-240.71"/>
</g>
<!-- Node16 -->
<g id="node16" class="node">
<title>Node16</title>
<g id="a_node16"><a xlink:href="node_8hpp.html" target="_top" xlink:title="MODEL::Node source file.">
<polygon fill="none" stroke="black" points="607.5,-112.5 607.5,-131.5 663.5,-131.5 663.5,-112.5 607.5,-112.5"/>
<text text-anchor="middle" x="635.5" y="-119.5" font-family="Helvetica,sans-Serif" font-size="10.00">node.hpp</text>
</a>
</g>
</g>
<!-- Node4&#45;&gt;Node16 -->
<g id="edge34" class="edge">
<title>Node4&#45;&gt;Node16</title>
<path fill="none" stroke="midnightblue" d="M1005.43,-288.61C878.58,-287.1 547.38,-279.74 514.5,-244 476.86,-203.09 558.88,-157.35 605.75,-135.68"/>
<polygon fill="midnightblue" stroke="midnightblue" points="607.21,-138.86 614.89,-131.56 604.33,-132.48 607.21,-138.86"/>
</g>
<!-- Node18 -->
<g id="node18" class="node">
<title>Node18</title>
<g id="a_node18"><a xlink:href="dofhandler_8hpp.html" target="_top" xlink:title="MODEL::DOFHandler source file.">
<polygon fill="none" stroke="black" points="1090.5,-56.5 1090.5,-75.5 1170.5,-75.5 1170.5,-56.5 1090.5,-56.5"/>
<text text-anchor="middle" x="1130.5" y="-63.5" font-family="Helvetica,sans-Serif" font-size="10.00">dofhandler.hpp</text>
</a>
</g>
</g>
<!-- Node4&#45;&gt;Node18 -->
<g id="edge33" class="edge">
<title>Node4&#45;&gt;Node18</title>
<path fill="none" stroke="midnightblue" d="M1103.64,-287.98C1195.57,-285.33 1389.47,-276 1447.5,-244 1496.41,-217.03 1498.62,-187.54 1504.5,-132 1505.44,-123.16 1510.43,-118.62 1504.5,-112 1457.92,-59.98 1267.14,-84.45 1180.59,-75.82"/>
<polygon fill="midnightblue" stroke="midnightblue" points="1180.92,-72.34 1170.57,-74.6 1180.07,-79.29 1180.92,-72.34"/>
</g>
<!-- Node19 -->
<g id="node19" class="node">
<title>Node19</title>
<g id="a_node19"><a xlink:href="bloodvessel_8hpp.html" target="_top" xlink:title="MODEL::BloodVessel source file.">
<polygon fill="none" stroke="black" points="1327.5,-224.5 1327.5,-243.5 1413.5,-243.5 1413.5,-224.5 1327.5,-224.5"/>
<text text-anchor="middle" x="1370.5" y="-231.5" font-family="Helvetica,sans-Serif" font-size="10.00">bloodvessel.hpp</text>
</a>
</g>
</g>
<!-- Node4&#45;&gt;Node19 -->
<g id="edge28" class="edge">
<title>Node4&#45;&gt;Node19</title>
<path fill="none" stroke="midnightblue" d="M1103.65,-280.66C1154.5,-272.02 1236.51,-258.07 1317.05,-244.25"/>
<polygon fill="midnightblue" stroke="midnightblue" points="1318.11,-247.62 1327.37,-242.47 1316.92,-240.72 1318.11,-247.62"/>
</g>
<!-- Node21 -->
<g id="node21" class="node">
<title>Node21</title>
<g id="a_node21"><a xlink:href="flowreference_8hpp.html" target="_top" xlink:title="MODEL::FlowReference source file.">
<polygon fill="none" stroke="black" points="798.5,-224.5 798.5,-243.5 890.5,-243.5 890.5,-224.5 798.5,-224.5"/>
<text text-anchor="middle" x="844.5" y="-231.5" font-family="Helvetica,sans-Serif" font-size="10.00">flowreference.hpp</text>
</a>
</g>
</g>
<!-- Node4&#45;&gt;Node21 -->
<g id="edge35" class="edge">
<title>Node4&#45;&gt;Node21</title>
<path fill="none" stroke="midnightblue" d="M1021.22,-280.44C985.05,-271.14 927.12,-256.25 887.52,-246.06"/>
<polygon fill="midnightblue" stroke="midnightblue" points="888.18,-242.62 877.62,-243.52 886.43,-249.4 888.18,-242.62"/>
</g>
<!-- Node24 -->
<g id="node24" class="node">
<title>Node24</title>
<g id="a_node24"><a xlink:href="pressurereference_8hpp.html" target="_top" xlink:title="MODEL::PressureReference source file.">
<polygon fill="none" stroke="black" points="909,-224.5 909,-243.5 1022,-243.5 1022,-224.5 909,-224.5"/>
<text text-anchor="middle" x="965.5" y="-231.5" font-family="Helvetica,sans-Serif" font-size="10.00">pressurereference.hpp</text>
</a>
</g>
</g>
<!-- Node4&#45;&gt;Node24 -->
<g id="edge44" class="edge">
<title>Node4&#45;&gt;Node24</title>
<path fill="none" stroke="midnightblue" d="M1040.2,-280.32C1026.32,-271.9 1005.01,-258.97 988.7,-249.07"/>
<polygon fill="midnightblue" stroke="midnightblue" points="990.13,-245.85 979.76,-243.65 986.5,-251.83 990.13,-245.85"/>
</g>
<!-- Node25 -->
<g id="node25" class="node">
<title>Node25</title>
<g id="a_node25"><a xlink:href="rcrblockwithdistalpressure_8hpp.html" target="_top" xlink:title="MODEL::RCRBlockWithDistalPressure source file.">
<polygon fill="none" stroke="black" points="546.5,-224.5 546.5,-243.5 694.5,-243.5 694.5,-224.5 546.5,-224.5"/>
<text text-anchor="middle" x="620.5" y="-231.5" font-family="Helvetica,sans-Serif" font-size="10.00">rcrblockwithdistalpressure.hpp</text>
</a>
</g>
</g>
<!-- Node4&#45;&gt;Node25 -->
<g id="edge49" class="edge">
<title>Node4&#45;&gt;Node25</title>
<path fill="none" stroke="midnightblue" d="M1005.14,-282.86C930.48,-273.57 788.13,-255.86 699.1,-244.78"/>
<polygon fill="midnightblue" stroke="midnightblue" points="699.41,-241.29 689.05,-243.53 698.55,-248.24 699.41,-241.29"/>
</g>
<!-- Node26 -->
<g id="node26" class="node">
<title>Node26</title>
<g id="a_node26"><a xlink:href="resistancewithdistalpressure_8hpp.html" target="_top" xlink:title="MODEL::ResistanceWithDistalPressure source file.">
<polygon fill="none" stroke="black" points="1151.5,-224.5 1151.5,-243.5 1309.5,-243.5 1309.5,-224.5 1151.5,-224.5"/>
<text text-anchor="middle" x="1230.5" y="-231.5" font-family="Helvetica,sans-Serif" font-size="10.00">resistancewithdistalpressure.hpp</text>
</a>
</g>
</g>
<!-- Node4&#45;&gt;Node26 -->
<g id="edge53" class="edge">
<title>Node4&#45;&gt;Node26</title>
<path fill="none" stroke="midnightblue" d="M1082.39,-280.44C1112.25,-271.28 1159.81,-256.69 1192.96,-246.52"/>
<polygon fill="midnightblue" stroke="midnightblue" points="1194.21,-249.8 1202.74,-243.52 1192.16,-243.1 1194.21,-249.8"/>
</g>
<!-- Node8&#45;&gt;Node3 -->
<g id="edge8" class="edge">
<title>Node8&#45;&gt;Node3</title>
<path fill="none" stroke="midnightblue" d="M794.08,-112.08C786.65,-104.22 775.65,-92.57 766.69,-83.08"/>
<polygon fill="midnightblue" stroke="midnightblue" points="769.18,-80.62 759.76,-75.75 764.09,-85.42 769.18,-80.62"/>
</g>
<!-- Node9&#45;&gt;Node4 -->
<g id="edge13" class="edge">
<title>Node9&#45;&gt;Node4</title>
<path fill="none" stroke="midnightblue" d="M1117.98,-131.56C1157.61,-144.55 1229.51,-169.67 1291.5,-188 1353.11,-206.22 1392.13,-173.23 1431.5,-224 1436.95,-231.02 1437.39,-237.34 1431.5,-244 1411.06,-267.09 1214.94,-280.83 1113.89,-286.28"/>
<polygon fill="midnightblue" stroke="midnightblue" points="1113.63,-282.79 1103.82,-286.81 1114,-289.78 1113.63,-282.79"/>
</g>
<!-- Node10 -->
<g id="node10" class="node">
<title>Node10</title>
<g id="a_node10"><a xlink:title=" ">
<polygon fill="none" stroke="#bfbfbf" points="998.5,-56.5 998.5,-75.5 1072.5,-75.5 1072.5,-56.5 998.5,-56.5"/>
<text text-anchor="middle" x="1035.5" y="-63.5" font-family="Helvetica,sans-Serif" font-size="10.00">Eigen/Sparse</text>
</a>
</g>
</g>
<!-- Node9&#45;&gt;Node10 -->
<g id="edge10" class="edge">
<title>Node9&#45;&gt;Node10</title>
<path fill="none" stroke="midnightblue" d="M1079.75,-112.08C1072.03,-104.22 1060.6,-92.57 1051.28,-83.08"/>
<polygon fill="midnightblue" stroke="midnightblue" points="1053.59,-80.44 1044.09,-75.75 1048.6,-85.34 1053.59,-80.44"/>
</g>
<!-- Node11 -->
<g id="node11" class="node">
<title>Node11</title>
<g id="a_node11"><a xlink:title=" ">
<polygon fill="none" stroke="#bfbfbf" points="1188.5,-56.5 1188.5,-75.5 1276.5,-75.5 1276.5,-56.5 1188.5,-56.5"/>
<text text-anchor="middle" x="1232.5" y="-63.5" font-family="Helvetica,sans-Serif" font-size="10.00">Eigen/SparseLU</text>
</a>
</g>
</g>
<!-- Node9&#45;&gt;Node11 -->
<g id="edge11" class="edge">
<title>Node9&#45;&gt;Node11</title>
<path fill="none" stroke="midnightblue" d="M1111.32,-112.44C1135.33,-103.44 1173.33,-89.19 1200.37,-79.05"/>
<polygon fill="midnightblue" stroke="midnightblue" points="1201.66,-82.3 1209.79,-75.52 1199.2,-75.75 1201.66,-82.3"/>
</g>
<!-- Node12 -->
<g id="node12" class="node">
<title>Node12</title>
<g id="a_node12"><a xlink:title=" ">
<polygon fill="none" stroke="#bfbfbf" points="464.5,-56.5 464.5,-75.5 518.5,-75.5 518.5,-56.5 464.5,-56.5"/>
<text text-anchor="middle" x="491.5" y="-63.5" font-family="Helvetica,sans-Serif" font-size="10.00">iostream</text>
</a>
</g>
</g>
<!-- Node9&#45;&gt;Node12 -->
<g id="edge12" class="edge">
<title>Node9&#45;&gt;Node12</title>
<path fill="none" stroke="midnightblue" d="M1019.73,-114.78C892.96,-103.31 626.49,-79.21 528.6,-70.36"/>
<polygon fill="midnightblue" stroke="midnightblue" points="528.86,-66.86 518.58,-69.45 528.23,-73.84 528.86,-66.86"/>
</g>
<!-- Node13&#45;&gt;Node8 -->
<g id="edge15" class="edge">
<title>Node13&#45;&gt;Node8</title>
<path fill="none" stroke="midnightblue" d="M750.89,-224.37C760.05,-206.38 781.35,-164.55 793.53,-140.63"/>
<polygon fill="midnightblue" stroke="midnightblue" points="796.71,-142.09 798.13,-131.59 790.47,-138.92 796.71,-142.09"/>
</g>
<!-- Node13&#45;&gt;Node9 -->
<g id="edge16" class="edge">
<title>Node13&#45;&gt;Node9</title>
<path fill="none" stroke="midnightblue" d="M780.78,-224.66C814.53,-216.22 867.42,-202.4 912.5,-188 964.04,-171.53 1022.79,-149.07 1057.7,-135.33"/>
<polygon fill="midnightblue" stroke="midnightblue" points="1059.3,-138.46 1067.31,-131.52 1056.72,-131.95 1059.3,-138.46"/>
</g>
<!-- Node14 -->
<g id="node14" class="node">
<title>Node14</title>
<g id="a_node14"><a xlink:href="block_8hpp.html" target="_top" xlink:title="MODEL::Block source file.">
<polygon fill="none" stroke="black" points="812.5,-168.5 812.5,-187.5 870.5,-187.5 870.5,-168.5 812.5,-168.5"/>
<text text-anchor="middle" x="841.5" y="-175.5" font-family="Helvetica,sans-Serif" font-size="10.00">block.hpp</text>
</a>
</g>
</g>
<!-- Node13&#45;&gt;Node14 -->
<g id="edge17" class="edge">
<title>Node13&#45;&gt;Node14</title>
<path fill="none" stroke="midnightblue" d="M761.76,-224.32C776.72,-215.82 799.75,-202.73 817.23,-192.8"/>
<polygon fill="midnightblue" stroke="midnightblue" points="819.31,-195.64 826.27,-187.65 815.85,-189.55 819.31,-195.64"/>
</g>
<!-- Node14&#45;&gt;Node5 -->
<g id="edge19" class="edge">
<title>Node14&#45;&gt;Node5</title>
<path fill="none" stroke="midnightblue" d="M819,-168.44C794.04,-158.95 753.75,-143.63 726.95,-133.44"/>
<polygon fill="midnightblue" stroke="midnightblue" points="727.99,-130.09 717.4,-129.81 725.5,-136.63 727.99,-130.09"/>
</g>
<!-- Node14&#45;&gt;Node8 -->
<g id="edge26" class="edge">
<title>Node14&#45;&gt;Node8</title>
<path fill="none" stroke="midnightblue" d="M835.06,-168.08C829.55,-160.46 821.47,-149.26 814.74,-139.94"/>
<polygon fill="midnightblue" stroke="midnightblue" points="817.51,-137.81 808.82,-131.75 811.84,-141.91 817.51,-137.81"/>
</g>
<!-- Node14&#45;&gt;Node9 -->
<g id="edge27" class="edge">
<title>Node14&#45;&gt;Node9</title>
<path fill="none" stroke="midnightblue" d="M870.8,-170.59C912.41,-161.5 989.13,-144.73 1039.48,-133.72"/>
<polygon fill="midnightblue" stroke="midnightblue" points="1040.47,-137.08 1049.49,-131.53 1038.97,-130.25 1040.47,-137.08"/>
</g>
<!-- Node15 -->
<g id="node15" class="node">
<title>Node15</title>
<g id="a_node15"><a xlink:title=" ">
<polygon fill="none" stroke="#bfbfbf" points="1390.5,-0.5 1390.5,-19.5 1434.5,-19.5 1434.5,-0.5 1390.5,-0.5"/>
<text text-anchor="middle" x="1412.5" y="-7.5" font-family="Helvetica,sans-Serif" font-size="10.00">vector</text>
</a>
</g>
</g>
<!-- Node14&#45;&gt;Node15 -->
<g id="edge18" class="edge">
<title>Node14&#45;&gt;Node15</title>
<path fill="none" stroke="midnightblue" d="M848.72,-168.31C868.47,-145.25 926.11,-82.48 989.5,-56 1060.16,-26.48 1293.92,-15.26 1380.17,-12.06"/>
<polygon fill="midnightblue" stroke="midnightblue" points="1380.53,-15.55 1390.4,-11.69 1380.28,-8.55 1380.53,-15.55"/>
</g>
<!-- Node14&#45;&gt;Node16 -->
<g id="edge20" class="edge">
<title>Node14&#45;&gt;Node16</title>
<path fill="none" stroke="midnightblue" d="M812.42,-169.38C776.02,-159.84 713.6,-143.47 673.46,-132.95"/>
<polygon fill="midnightblue" stroke="midnightblue" points="674.33,-129.56 663.77,-130.41 672.55,-136.33 674.33,-129.56"/>
</g>
<!-- Node14&#45;&gt;Node18 -->
<g id="edge25" class="edge">
<title>Node14&#45;&gt;Node18</title>
<path fill="none" stroke="midnightblue" d="M863.62,-168.42C895.89,-155.93 957.75,-132.03 1010.5,-112 1040.12,-100.75 1073.91,-88.1 1098.07,-79.08"/>
<polygon fill="midnightblue" stroke="midnightblue" points="1099.33,-82.34 1107.47,-75.57 1096.88,-75.79 1099.33,-82.34"/>
</g>
<!-- Node17 -->
<g id="node17" class="node">
<title>Node17</title>
<g id="a_node17"><a xlink:title=" ">
<polygon fill="none" stroke="#bfbfbf" points="840,-0.5 840,-19.5 881,-19.5 881,-0.5 840,-0.5"/>
<text text-anchor="middle" x="860.5" y="-7.5" font-family="Helvetica,sans-Serif" font-size="10.00">string</text>
</a>
</g>
</g>
<!-- Node16&#45;&gt;Node17 -->
<g id="edge21" class="edge">
<title>Node16&#45;&gt;Node17</title>
<path fill="none" stroke="midnightblue" d="M642.45,-112.5C654.21,-98.65 679.41,-71.25 706.5,-56 745.97,-33.78 797.44,-21.63 829.73,-15.72"/>
<polygon fill="midnightblue" stroke="midnightblue" points="830.65,-19.12 839.9,-13.95 829.45,-12.22 830.65,-19.12"/>
</g>
<!-- Node16&#45;&gt;Node18 -->
<g id="edge22" class="edge">
<title>Node16&#45;&gt;Node18</title>
<path fill="none" stroke="midnightblue" d="M663.69,-113.68C666.65,-113.05 669.63,-112.47 672.5,-112 849.3,-82.89 898.89,-99.87 1080.29,-76.03"/>
<polygon fill="midnightblue" stroke="midnightblue" points="1080.99,-79.47 1090.44,-74.67 1080.06,-72.53 1080.99,-79.47"/>
</g>
<!-- Node18&#45;&gt;Node15 -->
<g id="edge23" class="edge">
<title>Node18&#45;&gt;Node15</title>
<path fill="none" stroke="midnightblue" d="M1170.6,-57.32C1226.94,-46.53 1328.4,-27.1 1380.18,-17.19"/>
<polygon fill="midnightblue" stroke="midnightblue" points="1380.99,-20.6 1390.15,-15.28 1379.67,-13.72 1380.99,-20.6"/>
</g>
<!-- Node18&#45;&gt;Node17 -->
<g id="edge24" class="edge">
<title>Node18&#45;&gt;Node17</title>
<path fill="none" stroke="midnightblue" d="M1090.37,-56.97C1036.04,-46.11 940.25,-26.95 891.25,-17.15"/>
<polygon fill="midnightblue" stroke="midnightblue" points="891.75,-13.68 881.25,-15.15 890.37,-20.54 891.75,-13.68"/>
</g>
<!-- Node19&#45;&gt;Node8 -->
<g id="edge31" class="edge">
<title>Node19&#45;&gt;Node8</title>
<path fill="none" stroke="midnightblue" d="M1327.34,-224.64C1225.29,-204.88 969.27,-155.3 856.86,-133.53"/>
<polygon fill="midnightblue" stroke="midnightblue" points="857.25,-130.04 846.76,-131.57 855.92,-136.91 857.25,-130.04"/>
</g>
<!-- Node19&#45;&gt;Node9 -->
<g id="edge32" class="edge">
<title>Node19&#45;&gt;Node9</title>
<path fill="none" stroke="midnightblue" d="M1338.89,-224.48C1309.43,-216.21 1264.45,-202.79 1226.5,-188 1186.28,-172.33 1141.34,-150.27 1113.99,-136.3"/>
<polygon fill="midnightblue" stroke="midnightblue" points="1115.24,-133.01 1104.75,-131.55 1112.04,-139.24 1115.24,-133.01"/>
</g>
<!-- Node19&#45;&gt;Node14 -->
<g id="edge30" class="edge">
<title>Node19&#45;&gt;Node14</title>
<path fill="none" stroke="midnightblue" d="M1327.41,-225.28C1324.4,-224.82 1321.41,-224.39 1318.5,-224 1156.74,-202.4 962.76,-187.48 880.95,-181.68"/>
<polygon fill="midnightblue" stroke="midnightblue" points="880.85,-178.17 870.63,-180.96 880.36,-185.15 880.85,-178.17"/>
</g>
<!-- Node20 -->
<g id="node20" class="node">
<title>Node20</title>
<g id="a_node20"><a xlink:title=" ">
<polygon fill="none" stroke="#bfbfbf" points="1449.5,-112.5 1449.5,-131.5 1495.5,-131.5 1495.5,-112.5 1449.5,-112.5"/>
<text text-anchor="middle" x="1472.5" y="-119.5" font-family="Helvetica,sans-Serif" font-size="10.00">math.h</text>
</a>
</g>
</g>
<!-- Node19&#45;&gt;Node20 -->
<g id="edge29" class="edge">
<title>Node19&#45;&gt;Node20</title>
<path fill="none" stroke="midnightblue" d="M1413.59,-226.11C1436.09,-220.09 1461.74,-208.86 1475.5,-188 1484.43,-174.46 1482.4,-155.65 1478.89,-141.75"/>
<polygon fill="midnightblue" stroke="midnightblue" points="1482.15,-140.44 1475.94,-131.85 1475.44,-142.43 1482.15,-140.44"/>
</g>
<!-- Node21&#45;&gt;Node8 -->
<g id="edge36" class="edge">
<title>Node21&#45;&gt;Node8</title>
<path fill="none" stroke="midnightblue" d="M833.01,-224.47C823.11,-216.34 809.49,-203.13 803.5,-188 797.66,-173.24 797.93,-155.09 799.36,-141.72"/>
<polygon fill="midnightblue" stroke="midnightblue" points="802.83,-142.18 800.73,-131.79 795.9,-141.22 802.83,-142.18"/>
</g>
<!-- Node21&#45;&gt;Node9 -->
<g id="edge37" class="edge">
<title>Node21&#45;&gt;Node9</title>
<path fill="none" stroke="midnightblue" d="M881.33,-224.46C911.06,-216.88 953.54,-204.44 988.5,-188 1018.4,-173.94 1049.87,-152.15 1069.35,-137.74"/>
<polygon fill="midnightblue" stroke="midnightblue" points="1071.51,-140.49 1077.4,-131.68 1067.3,-134.89 1071.51,-140.49"/>
</g>
<!-- Node21&#45;&gt;Node14 -->
<g id="edge38" class="edge">
<title>Node21&#45;&gt;Node14</title>
<path fill="none" stroke="midnightblue" d="M844,-224.08C843.61,-217.01 843.05,-206.86 842.55,-197.99"/>
<polygon fill="midnightblue" stroke="midnightblue" points="846.04,-197.54 841.99,-187.75 839.05,-197.93 846.04,-197.54"/>
</g>
<!-- Node22 -->
<g id="node22" class="node">
<title>Node22</title>
<g id="a_node22"><a xlink:href="timedependentparameter_8hpp.html" target="_top" xlink:title="MODEL::TimeDependentParameter source file.">
<polygon fill="none" stroke="black" points="1324.5,-168.5 1324.5,-187.5 1466.5,-187.5 1466.5,-168.5 1324.5,-168.5"/>
<text text-anchor="middle" x="1395.5" y="-175.5" font-family="Helvetica,sans-Serif" font-size="10.00">timedependentparameter.hpp</text>
</a>
</g>
</g>
<!-- Node21&#45;&gt;Node22 -->
<g id="edge39" class="edge">
<title>Node21&#45;&gt;Node22</title>
<path fill="none" stroke="midnightblue" d="M890.68,-225.2C893.66,-224.77 896.62,-224.37 899.5,-224 1045.1,-205.51 1215.68,-191.75 1314.1,-184.59"/>
<polygon fill="midnightblue" stroke="midnightblue" points="1314.56,-188.06 1324.28,-183.85 1314.05,-181.08 1314.56,-188.06"/>
</g>
<!-- Node22&#45;&gt;Node15 -->
<g id="edge41" class="edge">
<title>Node22&#45;&gt;Node15</title>
<path fill="none" stroke="midnightblue" d="M1396.41,-168.08C1399.09,-141.95 1406.95,-65.21 1410.6,-29.58"/>
<polygon fill="midnightblue" stroke="midnightblue" points="1414.09,-29.87 1411.62,-19.57 1407.12,-29.16 1414.09,-29.87"/>
</g>
<!-- Node22&#45;&gt;Node18 -->
<g id="edge43" class="edge">
<title>Node22&#45;&gt;Node18</title>
<path fill="none" stroke="midnightblue" d="M1374.71,-168.37C1328.07,-149.01 1214.97,-102.06 1160.63,-79.51"/>
<polygon fill="midnightblue" stroke="midnightblue" points="1161.78,-76.19 1151.2,-75.59 1159.09,-82.66 1161.78,-76.19"/>
</g>
<!-- Node22&#45;&gt;Node20 -->
<g id="edge40" class="edge">
<title>Node22&#45;&gt;Node20</title>
<path fill="none" stroke="midnightblue" d="M1407.87,-168.32C1419.66,-160.06 1437.63,-147.45 1451.64,-137.63"/>
<polygon fill="midnightblue" stroke="midnightblue" points="1453.98,-140.26 1460.16,-131.65 1449.96,-134.53 1453.98,-140.26"/>
</g>
<!-- Node23 -->
<g id="node23" class="node">
<title>Node23</title>
<g id="a_node23"><a xlink:title=" ">
<polygon fill="none" stroke="#bfbfbf" points="1333,-112.5 1333,-131.5 1384,-131.5 1384,-112.5 1333,-112.5"/>
<text text-anchor="middle" x="1358.5" y="-119.5" font-family="Helvetica,sans-Serif" font-size="10.00">numeric</text>
</a>
</g>
</g>
<!-- Node22&#45;&gt;Node23 -->
<g id="edge42" class="edge">
<title>Node22&#45;&gt;Node23</title>
<path fill="none" stroke="midnightblue" d="M1389.39,-168.08C1384.22,-160.53 1376.65,-149.49 1370.31,-140.23"/>
<polygon fill="midnightblue" stroke="midnightblue" points="1373.04,-138.02 1364.5,-131.75 1367.26,-141.98 1373.04,-138.02"/>
</g>
<!-- Node24&#45;&gt;Node8 -->
<g id="edge45" class="edge">
<title>Node24&#45;&gt;Node8</title>
<path fill="none" stroke="midnightblue" d="M954.94,-224.37C939.01,-211.5 907.68,-186.79 879.5,-168 862.54,-156.69 842.65,-145.11 827.34,-136.53"/>
<polygon fill="midnightblue" stroke="midnightblue" points="828.91,-133.4 818.46,-131.6 825.51,-139.52 828.91,-133.4"/>
</g>
<!-- Node24&#45;&gt;Node9 -->
<g id="edge46" class="edge">
<title>Node24&#45;&gt;Node9</title>
<path fill="none" stroke="midnightblue" d="M978.62,-224.31C991.32,-215.67 1010.9,-201.75 1026.5,-188 1043.94,-172.63 1062.09,-153.12 1074.21,-139.51"/>
<polygon fill="midnightblue" stroke="midnightblue" points="1076.94,-141.7 1080.92,-131.88 1071.69,-137.08 1076.94,-141.7"/>
</g>
<!-- Node24&#45;&gt;Node14 -->
<g id="edge47" class="edge">
<title>Node24&#45;&gt;Node14</title>
<path fill="none" stroke="midnightblue" d="M945.85,-224.44C925.54,-215.6 893.6,-201.69 870.4,-191.59"/>
<polygon fill="midnightblue" stroke="midnightblue" points="871.62,-188.3 861.06,-187.52 868.83,-194.72 871.62,-188.3"/>
</g>
<!-- Node24&#45;&gt;Node22 -->
<g id="edge48" class="edge">
<title>Node24&#45;&gt;Node22</title>
<path fill="none" stroke="midnightblue" d="M1022.21,-225.1C1025.01,-224.72 1027.79,-224.35 1030.5,-224 1128,-211.24 1240.29,-197.55 1314.28,-188.66"/>
<polygon fill="midnightblue" stroke="midnightblue" points="1314.95,-192.11 1324.46,-187.44 1314.12,-185.16 1314.95,-192.11"/>
</g>
<!-- Node25&#45;&gt;Node8 -->
<g id="edge50" class="edge">
<title>Node25&#45;&gt;Node8</title>
<path fill="none" stroke="midnightblue" d="M634.78,-224.37C666.15,-205.41 741.28,-160 779.43,-136.94"/>
<polygon fill="midnightblue" stroke="midnightblue" points="781.54,-139.76 788.29,-131.59 777.92,-133.77 781.54,-139.76"/>
</g>
<!-- Node25&#45;&gt;Node9 -->
<g id="edge51" class="edge">
<title>Node25&#45;&gt;Node9</title>
<path fill="none" stroke="midnightblue" d="M685.61,-224.5C750.36,-215.54 844.88,-200.97 879.5,-188 895.56,-181.98 896.69,-174.64 912.5,-168 950.08,-152.22 994.57,-140.9 1029.42,-133.56"/>
<polygon fill="midnightblue" stroke="midnightblue" points="1030.35,-136.95 1039.44,-131.51 1028.95,-130.09 1030.35,-136.95"/>
</g>
<!-- Node25&#45;&gt;Node14 -->
<g id="edge52" class="edge">
<title>Node25&#45;&gt;Node14</title>
<path fill="none" stroke="midnightblue" d="M655.52,-224.44C695.55,-214.66 760.89,-198.7 802.51,-188.53"/>
<polygon fill="midnightblue" stroke="midnightblue" points="803.41,-191.91 812.29,-186.14 801.75,-185.11 803.41,-191.91"/>
</g>
<!-- Node26&#45;&gt;Node8 -->
<g id="edge54" class="edge">
<title>Node26&#45;&gt;Node8</title>
<path fill="none" stroke="midnightblue" d="M1197.27,-224.46C1120.55,-204.74 931.11,-156.05 845.61,-134.08"/>
<polygon fill="midnightblue" stroke="midnightblue" points="846.26,-130.63 835.71,-131.53 844.52,-137.41 846.26,-130.63"/>
</g>
<!-- Node26&#45;&gt;Node9 -->
<g id="edge55" class="edge">
<title>Node26&#45;&gt;Node9</title>
<path fill="none" stroke="midnightblue" d="M1219.36,-224.37C1195.2,-205.65 1137.75,-161.15 1107.65,-137.83"/>
<polygon fill="midnightblue" stroke="midnightblue" points="1109.64,-134.95 1099.59,-131.59 1105.35,-140.48 1109.64,-134.95"/>
</g>
<!-- Node26&#45;&gt;Node14 -->
<g id="edge56" class="edge">
<title>Node26&#45;&gt;Node14</title>
<path fill="none" stroke="midnightblue" d="M1168.86,-224.44C1088.13,-213.24 948.9,-193.91 881.02,-184.49"/>
<polygon fill="midnightblue" stroke="midnightblue" points="881.14,-180.97 870.75,-183.06 880.18,-187.9 881.14,-180.97"/>
</g>
<!-- Node26&#45;&gt;Node22 -->
<g id="edge57" class="edge">
<title>Node26&#45;&gt;Node22</title>
<path fill="none" stroke="midnightblue" d="M1256.64,-224.44C1284.52,-215.32 1328.85,-200.81 1359.9,-190.65"/>
<polygon fill="midnightblue" stroke="midnightblue" points="1361.06,-193.95 1369.48,-187.52 1358.88,-187.3 1361.06,-193.95"/>
</g>
<!-- Node28&#45;&gt;Node4 -->
<g id="edge66" class="edge">
<title>Node28&#45;&gt;Node4</title>
<path fill="none" stroke="midnightblue" d="M270.81,-341.8C415.41,-332.43 838.07,-305.03 994.97,-294.86"/>
<polygon fill="midnightblue" stroke="midnightblue" points="995.6,-298.33 1005.36,-294.19 995.15,-291.34 995.6,-298.33"/>
</g>
<!-- Node28&#45;&gt;Node17 -->
<g id="edge64" class="edge">
<title>Node28&#45;&gt;Node17</title>
<path fill="none" stroke="midnightblue" d="M200.21,-336.49C184.31,-329.1 163.22,-316.91 150.5,-300 132.4,-275.95 131.5,-265.1 131.5,-235 131.5,-235 131.5,-235 131.5,-121 131.5,-49.27 690.53,-18.81 829.51,-12.35"/>
<polygon fill="midnightblue" stroke="midnightblue" points="830.03,-15.83 839.86,-11.88 829.71,-8.84 830.03,-15.83"/>
</g>
<!-- Node29 -->
<g id="node29" class="node">
<title>Node29</title>
<g id="a_node29"><a xlink:title=" ">
<polygon fill="none" stroke="#bfbfbf" points="241,-280.5 241,-299.5 300,-299.5 300,-280.5 241,-280.5"/>
<text text-anchor="middle" x="270.5" y="-287.5" font-family="Helvetica,sans-Serif" font-size="10.00">stdexcept</text>
</a>
</g>
</g>
<!-- Node28&#45;&gt;Node29 -->
<g id="edge65" class="edge">
<title>Node28&#45;&gt;Node29</title>
<path fill="none" stroke="midnightblue" d="M229.59,-336.08C236.66,-328.3 247.09,-316.8 255.65,-307.37"/>
<polygon fill="midnightblue" stroke="midnightblue" points="258.43,-309.51 262.56,-299.75 253.25,-304.8 258.43,-309.51"/>
</g>
<!-- Node28&#45;&gt;Node30 -->
<g id="edge67" class="edge">
<title>Node28&#45;&gt;Node30</title>
<path fill="none" stroke="midnightblue" d="M194.56,-336.44C165.84,-327.32 120.17,-312.81 88.18,-302.65"/>
<polygon fill="midnightblue" stroke="midnightblue" points="88.9,-299.21 78.31,-299.52 86.78,-305.88 88.9,-299.21"/>
</g>
<!-- Node31 -->
<g id="node31" class="node">
<title>Node31</title>
<g id="a_node31"><a xlink:title=" ">
<polygon fill="none" stroke="#bfbfbf" points="160,-280.5 160,-299.5 223,-299.5 223,-280.5 160,-280.5"/>
<text text-anchor="middle" x="191.5" y="-287.5" font-family="Helvetica,sans-Serif" font-size="10.00">simdjson.h</text>
</a>
</g>
</g>
<!-- Node28&#45;&gt;Node31 -->
<g id="edge69" class="edge">
<title>Node28&#45;&gt;Node31</title>
<path fill="none" stroke="midnightblue" d="M216.55,-336.08C212.4,-328.61 206.35,-317.72 201.23,-308.52"/>
<polygon fill="midnightblue" stroke="midnightblue" points="204.28,-306.79 196.36,-299.75 198.16,-310.19 204.28,-306.79"/>
</g>
<!-- Node30&#45;&gt;Node12 -->
<g id="edge68" class="edge">
<title>Node30&#45;&gt;Node12</title>
<path fill="none" stroke="midnightblue" d="M62.1,-280.22C88.05,-258.98 157.36,-203.98 221.5,-168 276.72,-137.02 293.21,-134.22 352.5,-112 386.66,-99.2 426.32,-86.58 454.51,-77.97"/>
<polygon fill="midnightblue" stroke="midnightblue" points="455.79,-81.24 464.34,-74.99 453.76,-74.54 455.79,-81.24"/>
</g>
<!-- Node32&#45;&gt;Node4 -->
<g id="edge75" class="edge">
<title>Node32&#45;&gt;Node4</title>
<path fill="none" stroke="midnightblue" d="M1515.96,-340.44C1426.14,-330.82 1216.93,-308.4 1113.94,-297.37"/>
<polygon fill="midnightblue" stroke="midnightblue" points="1114.03,-293.86 1103.71,-296.27 1113.28,-300.82 1114.03,-293.86"/>
</g>
<!-- Node32&#45;&gt;Node15 -->
<g id="edge72" class="edge">
<title>Node32&#45;&gt;Node15</title>
<path fill="none" stroke="midnightblue" d="M1566.58,-336.34C1574.23,-327.72 1585.55,-313.82 1592.5,-300 1606.02,-273.11 1611.5,-265.1 1611.5,-235 1611.5,-235 1611.5,-235 1611.5,-121 1611.5,-90.2 1610.36,-76.64 1587.5,-56 1547.81,-20.16 1483.38,-12.1 1444.76,-10.71"/>
<polygon fill="midnightblue" stroke="midnightblue" points="1444.67,-7.21 1434.59,-10.48 1444.51,-14.21 1444.67,-7.21"/>
</g>
<!-- Node32&#45;&gt;Node17 -->
<g id="edge71" class="edge">
<title>Node32&#45;&gt;Node17</title>
<path fill="none" stroke="midnightblue" d="M1549.21,-336.39C1540.92,-328.02 1529.36,-314.48 1524.5,-300 1521.67,-291.57 1522.51,-288.66 1524.5,-280 1535.67,-231.37 1573.5,-228.89 1573.5,-179 1573.5,-179 1573.5,-179 1573.5,-121 1573.5,-50.88 1027.92,-19.26 891.25,-12.44"/>
<polygon fill="midnightblue" stroke="midnightblue" points="891.23,-8.94 881.07,-11.94 890.89,-15.93 891.23,-8.94"/>
</g>
<!-- Node32&#45;&gt;Node27 -->
<g id="edge74" class="edge">
<title>Node32&#45;&gt;Node27</title>
<path fill="none" stroke="midnightblue" d="M1576.01,-336.32C1593.57,-327.62 1620.83,-314.12 1641.03,-304.11"/>
<polygon fill="midnightblue" stroke="midnightblue" points="1642.62,-307.23 1650.03,-299.65 1639.52,-300.96 1642.62,-307.23"/>
</g>
<!-- Node33 -->
<g id="node33" class="node">
<title>Node33</title>
<g id="a_node33"><a xlink:title=" ">
<polygon fill="none" stroke="#bfbfbf" points="1533.5,-280.5 1533.5,-299.5 1583.5,-299.5 1583.5,-280.5 1533.5,-280.5"/>
<text text-anchor="middle" x="1558.5" y="-287.5" font-family="Helvetica,sans-Serif" font-size="10.00">fstream</text>
</a>
</g>
</g>
<!-- Node32&#45;&gt;Node33 -->
<g id="edge73" class="edge">
<title>Node32&#45;&gt;Node33</title>
<path fill="none" stroke="midnightblue" d="M1558.5,-336.08C1558.5,-329.01 1558.5,-318.86 1558.5,-309.99"/>
<polygon fill="midnightblue" stroke="midnightblue" points="1562,-309.75 1558.5,-299.75 1555,-309.75 1562,-309.75"/>
</g>
<!-- Node34 -->
<g id="node34" class="node">
<title>Node34</title>
<g id="a_node34"><a xlink:href="startswith_8hpp.html" target="_top" xlink:title="HELPERS::startswith source file.">
<polygon fill="none" stroke="black" points="1714,-280.5 1714,-299.5 1833,-299.5 1833,-280.5 1714,-280.5"/>
<text text-anchor="middle" x="1773.5" y="-287.5" font-family="Helvetica,sans-Serif" font-size="10.00">../helpers/startswith.hpp</text>
</a>
</g>
</g>
<!-- Node32&#45;&gt;Node34 -->
<g id="edge76" class="edge">
<title>Node32&#45;&gt;Node34</title>
<path fill="none" stroke="midnightblue" d="M1592.57,-336.44C1629.68,-327.12 1689.16,-312.18 1729.71,-302"/>
<polygon fill="midnightblue" stroke="midnightblue" points="1730.75,-305.35 1739.59,-299.52 1729.04,-298.56 1730.75,-305.35"/>
</g>
<!-- Node34&#45;&gt;Node17 -->
<g id="edge77" class="edge">
<title>Node34&#45;&gt;Node17</title>
<path fill="none" stroke="midnightblue" d="M1764.35,-280.25C1747.11,-262.77 1711.5,-221.53 1711.5,-179 1711.5,-179 1711.5,-179 1711.5,-121 1711.5,-58.78 1647.43,-72.74 1587.5,-56 1453.31,-18.53 1011.51,-12.22 891.06,-11.19"/>
<polygon fill="midnightblue" stroke="midnightblue" points="891.08,-7.69 881.05,-11.12 891.02,-14.69 891.08,-7.69"/>
</g>
<!-- Node35&#45;&gt;Node4 -->
<g id="edge82" class="edge">
<title>Node35&#45;&gt;Node4</title>
<path fill="none" stroke="midnightblue" d="M1702.95,-341.6C1583.46,-332.28 1250.33,-306.28 1113.91,-295.64"/>
<polygon fill="midnightblue" stroke="midnightblue" points="1113.89,-292.12 1103.65,-294.84 1113.35,-299.1 1113.89,-292.12"/>
</g>
<!-- Node35&#45;&gt;Node15 -->
<g id="edge80" class="edge">
<title>Node35&#45;&gt;Node15</title>
<path fill="none" stroke="midnightblue" d="M1781.59,-336.39C1802.04,-329.67 1826.81,-318.31 1842.5,-300 1862.08,-277.14 1861.5,-265.1 1861.5,-235 1861.5,-235 1861.5,-235 1861.5,-121 1861.5,-35.15 1547.95,-15.97 1444.89,-11.98"/>
<polygon fill="midnightblue" stroke="midnightblue" points="1444.89,-8.48 1434.77,-11.61 1444.63,-15.47 1444.89,-8.48"/>
</g>
<!-- Node35&#45;&gt;Node27 -->
<g id="edge81" class="edge">
<title>Node35&#45;&gt;Node27</title>
<path fill="none" stroke="midnightblue" d="M1733.81,-336.32C1721.6,-327.98 1702.92,-315.21 1688.5,-305.35"/>
<polygon fill="midnightblue" stroke="midnightblue" points="1690.39,-302.41 1680.16,-299.65 1686.44,-308.19 1690.39,-302.41"/>
</g>
<!-- Node35&#45;&gt;Node34 -->
<g id="edge83" class="edge">
<title>Node35&#45;&gt;Node34</title>
<path fill="none" stroke="midnightblue" d="M1750.96,-336.08C1754.65,-328.69 1760.02,-317.95 1764.59,-308.81"/>
<polygon fill="midnightblue" stroke="midnightblue" points="1767.78,-310.26 1769.12,-299.75 1761.52,-307.13 1767.78,-310.26"/>
</g>
<!-- Node36 -->
<g id="node36" class="node">
<title>Node36</title>
<g id="a_node36"><a xlink:title=" ">
<polygon fill="none" stroke="#bfbfbf" points="1889.5,-280.5 1889.5,-299.5 1931.5,-299.5 1931.5,-280.5 1889.5,-280.5"/>
<text text-anchor="middle" x="1910.5" y="-287.5" font-family="Helvetica,sans-Serif" font-size="10.00">json.h</text>
</a>
</g>
</g>
<!-- Node35&#45;&gt;Node36 -->
<g id="edge79" class="edge">
<title>Node35&#45;&gt;Node36</title>
<path fill="none" stroke="midnightblue" d="M1772.49,-336.44C1801.54,-326.88 1848.55,-311.4 1879.5,-301.21"/>
<polygon fill="midnightblue" stroke="midnightblue" points="1880.93,-304.42 1889.33,-297.97 1878.74,-297.77 1880.93,-304.42"/>
</g>
<!-- Node37&#45;&gt;Node17 -->
<g id="edge86" class="edge">
<title>Node37&#45;&gt;Node17</title>
<path fill="none" stroke="midnightblue" d="M292.24,-168.24C304.25,-154.98 328.49,-129.52 352.5,-112 394.59,-81.28 405.79,-71.61 455.5,-56 590.04,-13.74 760.61,-10.01 829.53,-10.43"/>
<polygon fill="midnightblue" stroke="midnightblue" points="829.67,-13.93 839.7,-10.52 829.73,-6.93 829.67,-13.93"/>
</g>
</g>
</svg>
