<?xml version="1.0" encoding="UTF-8" standalone="no"?>
<!DOCTYPE svg PUBLIC "-//W3C//DTD SVG 1.1//EN"
 "http://www.w3.org/Graphics/SVG/1.1/DTD/svg11.dtd">
<!-- Generated by graphviz version 3.0.0 (20220413.0242)
 -->
<!-- Title: main.cpp Pages: 1 -->
<svg width="2045pt" height="420pt"
 viewBox="0.00 0.00 2045.16 420.00" xmlns="http://www.w3.org/2000/svg" xmlns:xlink="http://www.w3.org/1999/xlink">
<g id="graph0" class="graph" transform="scale(1 1) rotate(0) translate(4 416)">
<title>main.cpp</title>
<!-- Node1 -->
<g id="node1" class="node">
<title>Node1</title>
<g id="a_node1"><a xlink:title="Main routine of svZeroDSolver.">
<polygon fill="#bfbfbf" stroke="black" points="1110,-392.5 1110,-411.5 1166,-411.5 1166,-392.5 1110,-392.5"/>
<text text-anchor="middle" x="1138" y="-399.5" font-family="Helvetica,sans-Serif" font-size="10.00">main.cpp</text>
</a>
</g>
</g>
<!-- Node2 -->
<g id="node2" class="node">
<title>Node2</title>
<g id="a_node2"><a xlink:href="integrator_8hpp.html" target="_top" xlink:title="ALGEBRA::Integrator source file.">
<polygon fill="none" stroke="black" points="1711,-336.5 1711,-355.5 1821,-355.5 1821,-336.5 1711,-336.5"/>
<text text-anchor="middle" x="1766" y="-343.5" font-family="Helvetica,sans-Serif" font-size="10.00">algebra/integrator.hpp</text>
</a>
</g>
</g>
<!-- Node1&#45;&gt;Node2 -->
<g id="edge1" class="edge">
<title>Node1&#45;&gt;Node2</title>
<path fill="none" stroke="midnightblue" d="M1166.26,-399.22C1248.35,-393.94 1493.91,-377.41 1697,-356 1698.11,-355.88 1699.23,-355.76 1700.36,-355.64"/>
<polygon fill="midnightblue" stroke="midnightblue" points="1701.13,-359.07 1710.67,-354.46 1700.33,-352.12 1701.13,-359.07"/>
</g>
<!-- Node4 -->
<g id="node4" class="node">
<title>Node4</title>
<g id="a_node4"><a xlink:href="model_8hpp.html" target="_top" xlink:title="MODEL::Model source file.">
<polygon fill="none" stroke="black" points="1033,-280.5 1033,-299.5 1131,-299.5 1131,-280.5 1033,-280.5"/>
<text text-anchor="middle" x="1082" y="-287.5" font-family="Helvetica,sans-Serif" font-size="10.00">../model/model.hpp</text>
</a>
</g>
</g>
<!-- Node1&#45;&gt;Node4 -->
<g id="edge67" class="edge">
<title>Node1&#45;&gt;Node4</title>
<path fill="none" stroke="midnightblue" d="M1133.61,-392.37C1124.45,-374.38 1103.15,-332.55 1090.97,-308.63"/>
<polygon fill="midnightblue" stroke="midnightblue" points="1094.03,-306.92 1086.37,-299.59 1087.79,-310.09 1094.03,-306.92"/>
</g>
<!-- Node8 -->
<g id="node8" class="node">
<title>Node8</title>
<g id="a_node8"><a xlink:href="densesystem_8hpp.html" target="_top" xlink:title="ALGEBRA::DenseSystem source file.">
<polygon fill="none" stroke="black" points="1216,-112.5 1216,-131.5 1350,-131.5 1350,-112.5 1216,-112.5"/>
<text text-anchor="middle" x="1283" y="-119.5" font-family="Helvetica,sans-Serif" font-size="10.00">../algebra/densesystem.hpp</text>
</a>
</g>
</g>
<!-- Node1&#45;&gt;Node8 -->
<g id="edge64" class="edge">
<title>Node1&#45;&gt;Node8</title>
<path fill="none" stroke="midnightblue" d="M1166.01,-401.44C1222.96,-401.41 1355.45,-396.55 1457,-356 1536.6,-324.22 1574.76,-320.2 1614,-244 1625.05,-222.54 1606.41,-175.33 1598,-168 1563.56,-137.97 1442.1,-127.96 1360.46,-124.63"/>
<polygon fill="midnightblue" stroke="midnightblue" points="1360.34,-121.13 1350.21,-124.24 1360.07,-128.12 1360.34,-121.13"/>
</g>
<!-- Node9 -->
<g id="node9" class="node">
<title>Node9</title>
<g id="a_node9"><a xlink:href="sparsesystem_8hpp.html" target="_top" xlink:title="ALGEBRA::SparseSystem source file.">
<polygon fill="none" stroke="black" points="571.5,-112.5 571.5,-131.5 708.5,-131.5 708.5,-112.5 571.5,-112.5"/>
<text text-anchor="middle" x="640" y="-119.5" font-family="Helvetica,sans-Serif" font-size="10.00">../algebra/sparsesystem.hpp</text>
</a>
</g>
</g>
<!-- Node1&#45;&gt;Node9 -->
<g id="edge65" class="edge">
<title>Node1&#45;&gt;Node9</title>
<path fill="none" stroke="midnightblue" d="M1109.9,-399.15C990.91,-390.66 530.65,-351.23 445,-244 428.8,-223.72 448.67,-183.59 466,-168 491.96,-144.65 528.48,-133.11 561.37,-127.52"/>
<polygon fill="midnightblue" stroke="midnightblue" points="562.09,-130.95 571.44,-125.98 561.02,-124.04 562.09,-130.95"/>
</g>
<!-- Node28 -->
<g id="node28" class="node">
<title>Node28</title>
<g id="a_node28"><a xlink:href="state_8hpp.html" target="_top" xlink:title="ALGEBRA::State source file.">
<polygon fill="none" stroke="black" points="1893,-280.5 1893,-299.5 1949,-299.5 1949,-280.5 1893,-280.5"/>
<text text-anchor="middle" x="1921" y="-287.5" font-family="Helvetica,sans-Serif" font-size="10.00">state.hpp</text>
</a>
</g>
</g>
<!-- Node1&#45;&gt;Node28 -->
<g id="edge66" class="edge">
<title>Node1&#45;&gt;Node28</title>
<path fill="none" stroke="midnightblue" d="M1166.24,-401.21C1280.02,-401.76 1704.7,-400.69 1830,-356 1859.54,-345.46 1888.04,-322.34 1905.05,-306.71"/>
<polygon fill="midnightblue" stroke="midnightblue" points="1907.57,-309.14 1912.43,-299.73 1902.76,-304.06 1907.57,-309.14"/>
</g>
<!-- Node29 -->
<g id="node29" class="node">
<title>Node29</title>
<g id="a_node29"><a xlink:href="configreader_8hpp.html" target="_top" xlink:title="IO::ConfigReader source file.">
<polygon fill="none" stroke="black" points="156,-336.5 156,-355.5 254,-355.5 254,-336.5 156,-336.5"/>
<text text-anchor="middle" x="205" y="-343.5" font-family="Helvetica,sans-Serif" font-size="10.00">io/configreader.hpp</text>
</a>
</g>
</g>
<!-- Node1&#45;&gt;Node29 -->
<g id="edge68" class="edge">
<title>Node1&#45;&gt;Node29</title>
<path fill="none" stroke="midnightblue" d="M1109.81,-400.21C1001.99,-397.03 605.46,-384.03 280,-356 274.9,-355.56 269.62,-355.05 264.32,-354.49"/>
<polygon fill="midnightblue" stroke="midnightblue" points="264.49,-350.99 254.17,-353.38 263.73,-357.95 264.49,-350.99"/>
</g>
<!-- Node31 -->
<g id="node31" class="node">
<title>Node31</title>
<g id="a_node31"><a xlink:href="debug_8hpp.html" target="_top" xlink:title="HELPERS::DEBUG source file.">
<polygon fill="none" stroke="black" points="221.5,-280.5 221.5,-299.5 324.5,-299.5 324.5,-280.5 221.5,-280.5"/>
<text text-anchor="middle" x="273" y="-287.5" font-family="Helvetica,sans-Serif" font-size="10.00">../helpers/debug.hpp</text>
</a>
</g>
</g>
<!-- Node1&#45;&gt;Node31 -->
<g id="edge89" class="edge">
<title>Node1&#45;&gt;Node31</title>
<path fill="none" stroke="midnightblue" d="M1109.73,-400.59C976.02,-398.48 410.61,-387.72 339,-356 315.89,-345.76 296.28,-323.6 284.58,-308.01"/>
<polygon fill="midnightblue" stroke="midnightblue" points="287.32,-305.82 278.65,-299.73 281.63,-309.9 287.32,-305.82"/>
</g>
<!-- Node33 -->
<g id="node33" class="node">
<title>Node33</title>
<g id="a_node33"><a xlink:href="csvwriter_8hpp.html" target="_top" xlink:title="IO::write_csv source file.">
<polygon fill="none" stroke="black" points="1362.5,-336.5 1362.5,-355.5 1447.5,-355.5 1447.5,-336.5 1362.5,-336.5"/>
<text text-anchor="middle" x="1405" y="-343.5" font-family="Helvetica,sans-Serif" font-size="10.00">io/csvwriter.hpp</text>
</a>
</g>
</g>
<!-- Node1&#45;&gt;Node33 -->
<g id="edge75" class="edge">
<title>Node1&#45;&gt;Node33</title>
<path fill="none" stroke="midnightblue" d="M1166.07,-395.32C1210.31,-386.38 1296.96,-368.85 1352.86,-357.55"/>
<polygon fill="midnightblue" stroke="midnightblue" points="1353.81,-360.92 1362.92,-355.51 1352.43,-354.06 1353.81,-360.92"/>
</g>
<!-- Node36 -->
<g id="node36" class="node">
<title>Node36</title>
<g id="a_node36"><a xlink:href="jsonwriter_8hpp.html" target="_top" xlink:title="IO::write_json source file.">
<polygon fill="none" stroke="black" points="1877.5,-336.5 1877.5,-355.5 1964.5,-355.5 1964.5,-336.5 1877.5,-336.5"/>
<text text-anchor="middle" x="1921" y="-343.5" font-family="Helvetica,sans-Serif" font-size="10.00">io/jsonwriter.hpp</text>
</a>
</g>
</g>
<!-- Node1&#45;&gt;Node36 -->
<g id="edge83" class="edge">
<title>Node1&#45;&gt;Node36</title>
<path fill="none" stroke="midnightblue" d="M1166.07,-400.19C1263,-397.18 1592.5,-385.32 1863,-356 1864.46,-355.84 1865.93,-355.67 1867.42,-355.5"/>
<polygon fill="midnightblue" stroke="midnightblue" points="1867.88,-358.97 1877.35,-354.21 1866.99,-352.02 1867.88,-358.97"/>
</g>
<!-- Node38 -->
<g id="node38" class="node">
<title>Node38</title>
<g id="a_node38"><a xlink:href="endswith_8hpp.html" target="_top" xlink:title="HELPERS::endswith source file.">
<polygon fill="none" stroke="black" points="0,-168.5 0,-187.5 108,-187.5 108,-168.5 0,-168.5"/>
<text text-anchor="middle" x="54" y="-175.5" font-family="Helvetica,sans-Serif" font-size="10.00">helpers/endswith.hpp</text>
</a>
</g>
</g>
<!-- Node1&#45;&gt;Node38 -->
<g id="edge90" class="edge">
<title>Node1&#45;&gt;Node38</title>
<path fill="none" stroke="midnightblue" d="M1109.6,-401.07C967.99,-401.19 337.41,-399.24 147,-356 84.85,-341.89 50.18,-353.14 15,-300 -7.03,-266.73 21.51,-220.1 40.18,-195.58"/>
<polygon fill="midnightblue" stroke="midnightblue" points="43.03,-197.62 46.5,-187.61 37.54,-193.27 43.03,-197.62"/>
</g>
<!-- Node3 -->
<g id="node3" class="node">
<title>Node3</title>
<g id="a_node3"><a xlink:title=" ">
<polygon fill="none" stroke="#bfbfbf" points="1434.5,-56.5 1434.5,-75.5 1505.5,-75.5 1505.5,-56.5 1434.5,-56.5"/>
<text text-anchor="middle" x="1470" y="-63.5" font-family="Helvetica,sans-Serif" font-size="10.00">Eigen/Dense</text>
</a>
</g>
</g>
<!-- Node2&#45;&gt;Node3 -->
<g id="edge2" class="edge">
<title>Node2&#45;&gt;Node3</title>
<path fill="none" stroke="midnightblue" d="M1761.34,-336.32C1756.83,-327.46 1750.21,-313.18 1747,-300 1738.97,-267.08 1759.06,-252.67 1741,-224 1688.97,-141.42 1576.66,-97.46 1514.19,-78.56"/>
<polygon fill="midnightblue" stroke="midnightblue" points="1514.82,-75.09 1504.24,-75.63 1512.85,-81.81 1514.82,-75.09"/>
</g>
<!-- Node2&#45;&gt;Node4 -->
<g id="edge3" class="edge">
<title>Node2&#45;&gt;Node4</title>
<path fill="none" stroke="midnightblue" d="M1710.89,-340.65C1584.14,-330.64 1272.75,-306.06 1141.68,-295.71"/>
<polygon fill="midnightblue" stroke="midnightblue" points="1141.68,-292.2 1131.43,-294.9 1141.13,-299.18 1141.68,-292.2"/>
</g>
<!-- Node2&#45;&gt;Node28 -->
<g id="edge63" class="edge">
<title>Node2&#45;&gt;Node28</title>
<path fill="none" stroke="midnightblue" d="M1790.56,-336.44C1816.52,-327.4 1857.67,-313.06 1886.8,-302.92"/>
<polygon fill="midnightblue" stroke="midnightblue" points="1888.26,-306.11 1896.55,-299.52 1885.96,-299.5 1888.26,-306.11"/>
</g>
<!-- Node5 -->
<g id="node5" class="node">
<title>Node5</title>
<g id="a_node5"><a xlink:title=" ">
<polygon fill="none" stroke="#bfbfbf" points="844.5,-112.5 844.5,-131.5 879.5,-131.5 879.5,-112.5 844.5,-112.5"/>
<text text-anchor="middle" x="862" y="-119.5" font-family="Helvetica,sans-Serif" font-size="10.00">map</text>
</a>
</g>
</g>
<!-- Node4&#45;&gt;Node5 -->
<g id="edge4" class="edge">
<title>Node4&#45;&gt;Node5</title>
<path fill="none" stroke="midnightblue" d="M1032.55,-288.93C898.51,-288.22 535.84,-282.72 500,-244 467.11,-208.47 378.26,-262.91 832,-132 832.87,-131.75 833.75,-131.49 834.64,-131.23"/>
<polygon fill="midnightblue" stroke="midnightblue" points="835.65,-134.58 844.25,-128.39 833.67,-127.87 835.65,-134.58"/>
</g>
<!-- Node6 -->
<g id="node6" class="node">
<title>Node6</title>
<g id="a_node6"><a xlink:title=" ">
<polygon fill="none" stroke="#bfbfbf" points="1107.5,-224.5 1107.5,-243.5 1136.5,-243.5 1136.5,-224.5 1107.5,-224.5"/>
<text text-anchor="middle" x="1122" y="-231.5" font-family="Helvetica,sans-Serif" font-size="10.00">list</text>
</a>
</g>
</g>
<!-- Node4&#45;&gt;Node6 -->
<g id="edge5" class="edge">
<title>Node4&#45;&gt;Node6</title>
<path fill="none" stroke="midnightblue" d="M1088.61,-280.08C1094.26,-272.46 1102.54,-261.26 1109.45,-251.94"/>
<polygon fill="midnightblue" stroke="midnightblue" points="1112.38,-253.87 1115.52,-243.75 1106.75,-249.7 1112.38,-253.87"/>
</g>
<!-- Node7 -->
<g id="node7" class="node">
<title>Node7</title>
<g id="a_node7"><a xlink:title=" ">
<polygon fill="none" stroke="#bfbfbf" points="1155,-224.5 1155,-243.5 1201,-243.5 1201,-224.5 1155,-224.5"/>
<text text-anchor="middle" x="1178" y="-231.5" font-family="Helvetica,sans-Serif" font-size="10.00">variant</text>
</a>
</g>
</g>
<!-- Node4&#45;&gt;Node7 -->
<g id="edge6" class="edge">
<title>Node4&#45;&gt;Node7</title>
<path fill="none" stroke="midnightblue" d="M1097.42,-280.32C1112.54,-271.82 1135.82,-258.73 1153.47,-248.8"/>
<polygon fill="midnightblue" stroke="midnightblue" points="1155.61,-251.61 1162.61,-243.65 1152.18,-245.51 1155.61,-251.61"/>
</g>
<!-- Node4&#45;&gt;Node8 -->
<g id="edge7" class="edge">
<title>Node4&#45;&gt;Node8</title>
<path fill="none" stroke="midnightblue" d="M1131.19,-288.37C1253.37,-286.29 1563.11,-277.72 1594,-244 1665.98,-165.41 1473.95,-137.29 1360.15,-127.68"/>
<polygon fill="midnightblue" stroke="midnightblue" points="1360.32,-124.19 1350.07,-126.86 1359.75,-131.16 1360.32,-124.19"/>
</g>
<!-- Node4&#45;&gt;Node9 -->
<g id="edge9" class="edge">
<title>Node4&#45;&gt;Node9</title>
<path fill="none" stroke="midnightblue" d="M1032.7,-289.2C890.71,-289.33 489.15,-286.08 450,-244 402.42,-192.86 517.86,-152.5 589.14,-134"/>
<polygon fill="midnightblue" stroke="midnightblue" points="590.04,-137.38 598.88,-131.54 588.33,-130.6 590.04,-137.38"/>
</g>
<!-- Node13 -->
<g id="node13" class="node">
<title>Node13</title>
<g id="a_node13"><a xlink:href="junction_8hpp.html" target="_top" xlink:title="MODEL::Junction source file.">
<polygon fill="none" stroke="black" points="675,-224.5 675,-243.5 743,-243.5 743,-224.5 675,-224.5"/>
<text text-anchor="middle" x="709" y="-231.5" font-family="Helvetica,sans-Serif" font-size="10.00">junction.hpp</text>
</a>
</g>
</g>
<!-- Node4&#45;&gt;Node13 -->
<g id="edge14" class="edge">
<title>Node4&#45;&gt;Node13</title>
<path fill="none" stroke="midnightblue" d="M1032.91,-283.41C970.32,-276.03 858.55,-262.05 753.38,-244.14"/>
<polygon fill="midnightblue" stroke="midnightblue" points="753.67,-240.64 743.23,-242.39 752.49,-247.53 753.67,-240.64"/>
</g>
<!-- Node16 -->
<g id="node16" class="node">
<title>Node16</title>
<g id="a_node16"><a xlink:href="node_8hpp.html" target="_top" xlink:title="MODEL::Node source file.">
<polygon fill="none" stroke="black" points="767,-112.5 767,-131.5 823,-131.5 823,-112.5 767,-112.5"/>
<text text-anchor="middle" x="795" y="-119.5" font-family="Helvetica,sans-Serif" font-size="10.00">node.hpp</text>
</a>
</g>
</g>
<!-- Node4&#45;&gt;Node16 -->
<g id="edge34" class="edge">
<title>Node4&#45;&gt;Node16</title>
<path fill="none" stroke="midnightblue" d="M1032.78,-289.15C893.67,-289.07 505.22,-285.12 467,-244 424.53,-198.31 661.71,-147.99 756.85,-129.92"/>
<polygon fill="midnightblue" stroke="midnightblue" points="757.75,-133.32 766.93,-128.03 756.45,-126.44 757.75,-133.32"/>
</g>
<!-- Node18 -->
<g id="node18" class="node">
<title>Node18</title>
<g id="a_node18"><a xlink:href="dofhandler_8hpp.html" target="_top" xlink:title="MODEL::DOFHandler source file.">
<polygon fill="none" stroke="black" points="886,-56.5 886,-75.5 966,-75.5 966,-56.5 886,-56.5"/>
<text text-anchor="middle" x="926" y="-63.5" font-family="Helvetica,sans-Serif" font-size="10.00">dofhandler.hpp</text>
</a>
</g>
</g>
<!-- Node4&#45;&gt;Node18 -->
<g id="edge33" class="edge">
<title>Node4&#45;&gt;Node18</title>
<path fill="none" stroke="midnightblue" d="M1131.23,-286.63C1259.95,-280.18 1597.77,-261.66 1614,-244 1620.01,-237.46 1615.23,-232.8 1614,-224 1610.41,-198.37 1616.74,-185.86 1598,-168 1508.64,-82.84 1116.34,-69.42 976.08,-67.35"/>
<polygon fill="midnightblue" stroke="midnightblue" points="976.08,-63.85 966.03,-67.22 975.98,-70.85 976.08,-63.85"/>
</g>
<!-- Node19 -->
<g id="node19" class="node">
<title>Node19</title>
<g id="a_node19"><a xlink:href="bloodvessel_8hpp.html" target="_top" xlink:title="MODEL::BloodVessel source file.">
<polygon fill="none" stroke="black" points="761,-224.5 761,-243.5 847,-243.5 847,-224.5 761,-224.5"/>
<text text-anchor="middle" x="804" y="-231.5" font-family="Helvetica,sans-Serif" font-size="10.00">bloodvessel.hpp</text>
</a>
</g>
</g>
<!-- Node4&#45;&gt;Node19 -->
<g id="edge28" class="edge">
<title>Node4&#45;&gt;Node19</title>
<path fill="none" stroke="midnightblue" d="M1037.95,-280.44C989.01,-270.94 909.97,-255.58 857.51,-245.39"/>
<polygon fill="midnightblue" stroke="midnightblue" points="857.87,-241.9 847.39,-243.43 856.54,-248.77 857.87,-241.9"/>
</g>
<!-- Node21 -->
<g id="node21" class="node">
<title>Node21</title>
<g id="a_node21"><a xlink:href="flowreference_8hpp.html" target="_top" xlink:title="MODEL::FlowReference source file.">
<polygon fill="none" stroke="black" points="997,-224.5 997,-243.5 1089,-243.5 1089,-224.5 997,-224.5"/>
<text text-anchor="middle" x="1043" y="-231.5" font-family="Helvetica,sans-Serif" font-size="10.00">flowreference.hpp</text>
</a>
</g>
</g>
<!-- Node4&#45;&gt;Node21 -->
<g id="edge35" class="edge">
<title>Node4&#45;&gt;Node21</title>
<path fill="none" stroke="midnightblue" d="M1075.56,-280.08C1070.05,-272.46 1061.97,-261.26 1055.24,-251.94"/>
<polygon fill="midnightblue" stroke="midnightblue" points="1058.01,-249.81 1049.32,-243.75 1052.34,-253.91 1058.01,-249.81"/>
</g>
<!-- Node24 -->
<g id="node24" class="node">
<title>Node24</title>
<g id="a_node24"><a xlink:href="pressurereference_8hpp.html" target="_top" xlink:title="MODEL::PressureReference source file.">
<polygon fill="none" stroke="black" points="865.5,-224.5 865.5,-243.5 978.5,-243.5 978.5,-224.5 865.5,-224.5"/>
<text text-anchor="middle" x="922" y="-231.5" font-family="Helvetica,sans-Serif" font-size="10.00">pressurereference.hpp</text>
</a>
</g>
</g>
<!-- Node4&#45;&gt;Node24 -->
<g id="edge44" class="edge">
<title>Node4&#45;&gt;Node24</title>
<path fill="none" stroke="midnightblue" d="M1056.65,-280.44C1029.73,-271.36 987,-256.94 956.91,-246.78"/>
<polygon fill="midnightblue" stroke="midnightblue" points="957.83,-243.4 947.23,-243.52 955.59,-250.03 957.83,-243.4"/>
</g>
<!-- Node25 -->
<g id="node25" class="node">
<title>Node25</title>
<g id="a_node25"><a xlink:href="rcrblockwithdistalpressure_8hpp.html" target="_top" xlink:title="MODEL::RCRBlockWithDistalPressure source file.">
<polygon fill="none" stroke="black" points="509,-224.5 509,-243.5 657,-243.5 657,-224.5 509,-224.5"/>
<text text-anchor="middle" x="583" y="-231.5" font-family="Helvetica,sans-Serif" font-size="10.00">rcrblockwithdistalpressure.hpp</text>
</a>
</g>
</g>
<!-- Node4&#45;&gt;Node25 -->
<g id="edge49" class="edge">
<title>Node4&#45;&gt;Node25</title>
<path fill="none" stroke="midnightblue" d="M1032.69,-283.67C956.63,-275.45 805.81,-259.14 667.17,-244.13"/>
<polygon fill="midnightblue" stroke="midnightblue" points="667.53,-240.65 657.21,-243.05 666.78,-247.6 667.53,-240.65"/>
</g>
<!-- Node26 -->
<g id="node26" class="node">
<title>Node26</title>
<g id="a_node26"><a xlink:href="resistancewithdistalpressure_8hpp.html" target="_top" xlink:title="MODEL::ResistanceWithDistalPressure source file.">
<polygon fill="none" stroke="black" points="1427,-224.5 1427,-243.5 1585,-243.5 1585,-224.5 1427,-224.5"/>
<text text-anchor="middle" x="1506" y="-231.5" font-family="Helvetica,sans-Serif" font-size="10.00">resistancewithdistalpressure.hpp</text>
</a>
</g>
</g>
<!-- Node4&#45;&gt;Node26 -->
<g id="edge53" class="edge">
<title>Node4&#45;&gt;Node26</title>
<path fill="none" stroke="midnightblue" d="M1131.05,-282.75C1204.13,-273.45 1342.25,-255.86 1428.91,-244.82"/>
<polygon fill="midnightblue" stroke="midnightblue" points="1429.48,-248.27 1438.95,-243.54 1428.59,-241.33 1429.48,-248.27"/>
</g>
<!-- Node27 -->
<g id="node27" class="node">
<title>Node27</title>
<g id="a_node27"><a xlink:href="openloopcoronarywithdistalpressure_8hpp.html" target="_top" xlink:title="MODEL::OpenLoopCoronaryWithDistalPressure source file.">
<polygon fill="none" stroke="black" points="1219.5,-224.5 1219.5,-243.5 1408.5,-243.5 1408.5,-224.5 1219.5,-224.5"/>
<text text-anchor="middle" x="1314" y="-231.5" font-family="Helvetica,sans-Serif" font-size="10.00">openloopcoronarywithdistalpressure.hpp</text>
</a>
</g>
</g>
<!-- Node4&#45;&gt;Node27 -->
<g id="edge58" class="edge">
<title>Node4&#45;&gt;Node27</title>
<path fill="none" stroke="midnightblue" d="M1118.76,-280.44C1159.06,-271.06 1223.81,-255.99 1267.58,-245.8"/>
<polygon fill="midnightblue" stroke="midnightblue" points="1268.46,-249.19 1277.41,-243.52 1266.88,-242.37 1268.46,-249.19"/>
</g>
<!-- Node8&#45;&gt;Node3 -->
<g id="edge8" class="edge">
<title>Node8&#45;&gt;Node3</title>
<path fill="none" stroke="midnightblue" d="M1312.63,-112.44C1344.5,-103.24 1395.33,-88.56 1430.56,-78.39"/>
<polygon fill="midnightblue" stroke="midnightblue" points="1431.87,-81.65 1440.51,-75.52 1429.93,-74.93 1431.87,-81.65"/>
</g>
<!-- Node9&#45;&gt;Node4 -->
<g id="edge13" class="edge">
<title>Node9&#45;&gt;Node4</title>
<path fill="none" stroke="midnightblue" d="M609.11,-131.54C547.08,-148.72 418.18,-190.45 468,-244 505.51,-284.32 875.72,-288.99 1022.55,-289.19"/>
<polygon fill="midnightblue" stroke="midnightblue" points="1022.73,-292.69 1032.73,-289.2 1022.73,-285.69 1022.73,-292.69"/>
</g>
<!-- Node10 -->
<g id="node10" class="node">
<title>Node10</title>
<g id="a_node10"><a xlink:title=" ">
<polygon fill="none" stroke="#bfbfbf" points="660,-56.5 660,-75.5 734,-75.5 734,-56.5 660,-56.5"/>
<text text-anchor="middle" x="697" y="-63.5" font-family="Helvetica,sans-Serif" font-size="10.00">Eigen/Sparse</text>
</a>
</g>
</g>
<!-- Node9&#45;&gt;Node10 -->
<g id="edge10" class="edge">
<title>Node9&#45;&gt;Node10</title>
<path fill="none" stroke="midnightblue" d="M649.16,-112.32C657.5,-104.42 670.03,-92.55 680.18,-82.94"/>
<polygon fill="midnightblue" stroke="midnightblue" points="682.82,-85.25 687.68,-75.83 678.01,-80.17 682.82,-85.25"/>
</g>
<!-- Node11 -->
<g id="node11" class="node">
<title>Node11</title>
<g id="a_node11"><a xlink:title=" ">
<polygon fill="none" stroke="#bfbfbf" points="554,-56.5 554,-75.5 642,-75.5 642,-56.5 554,-56.5"/>
<text text-anchor="middle" x="598" y="-63.5" font-family="Helvetica,sans-Serif" font-size="10.00">Eigen/SparseLU</text>
</a>
</g>
</g>
<!-- Node9&#45;&gt;Node11 -->
<g id="edge11" class="edge">
<title>Node9&#45;&gt;Node11</title>
<path fill="none" stroke="midnightblue" d="M633.06,-112.08C627.07,-104.38 618.25,-93.03 610.95,-83.65"/>
<polygon fill="midnightblue" stroke="midnightblue" points="613.71,-81.5 604.81,-75.75 608.18,-85.79 613.71,-81.5"/>
</g>
<!-- Node12 -->
<g id="node12" class="node">
<title>Node12</title>
<g id="a_node12"><a xlink:title=" ">
<polygon fill="none" stroke="#bfbfbf" points="399,-56.5 399,-75.5 453,-75.5 453,-56.5 399,-56.5"/>
<text text-anchor="middle" x="426" y="-63.5" font-family="Helvetica,sans-Serif" font-size="10.00">iostream</text>
</a>
</g>
</g>
<!-- Node9&#45;&gt;Node12 -->
<g id="edge12" class="edge">
<title>Node9&#45;&gt;Node12</title>
<path fill="none" stroke="midnightblue" d="M606.09,-112.44C567.09,-102.6 503.26,-86.5 463,-76.34"/>
<polygon fill="midnightblue" stroke="midnightblue" points="463.85,-72.94 453.3,-73.89 462.14,-79.73 463.85,-72.94"/>
</g>
<!-- Node13&#45;&gt;Node8 -->
<g id="edge15" class="edge">
<title>Node13&#45;&gt;Node8</title>
<path fill="none" stroke="midnightblue" d="M743.2,-225.47C746.17,-224.93 749.13,-224.43 752,-224 927.66,-197.76 981.27,-243.45 1150,-188 1166.29,-182.65 1167.82,-175.98 1183,-168 1205.88,-155.97 1232.62,-144.05 1252.69,-135.5"/>
<polygon fill="midnightblue" stroke="midnightblue" points="1254.11,-138.7 1261.96,-131.58 1251.39,-132.25 1254.11,-138.7"/>
</g>
<!-- Node13&#45;&gt;Node9 -->
<g id="edge16" class="edge">
<title>Node13&#45;&gt;Node9</title>
<path fill="none" stroke="midnightblue" d="M693.14,-224.47C680.27,-216.69 662.71,-203.99 653,-188 644.51,-174.01 641.44,-155.51 640.39,-141.82"/>
<polygon fill="midnightblue" stroke="midnightblue" points="643.88,-141.49 639.91,-131.67 636.88,-141.82 643.88,-141.49"/>
</g>
<!-- Node14 -->
<g id="node14" class="node">
<title>Node14</title>
<g id="a_node14"><a xlink:href="block_8hpp.html" target="_top" xlink:title="MODEL::Block source file.">
<polygon fill="none" stroke="black" points="885,-168.5 885,-187.5 943,-187.5 943,-168.5 885,-168.5"/>
<text text-anchor="middle" x="914" y="-175.5" font-family="Helvetica,sans-Serif" font-size="10.00">block.hpp</text>
</a>
</g>
</g>
<!-- Node13&#45;&gt;Node14 -->
<g id="edge17" class="edge">
<title>Node13&#45;&gt;Node14</title>
<path fill="none" stroke="midnightblue" d="M741.48,-224.44C777.76,-214.89 836.44,-199.43 875.12,-189.24"/>
<polygon fill="midnightblue" stroke="midnightblue" points="876.21,-192.58 884.98,-186.64 874.42,-185.81 876.21,-192.58"/>
</g>
<!-- Node14&#45;&gt;Node5 -->
<g id="edge19" class="edge">
<title>Node14&#45;&gt;Node5</title>
<path fill="none" stroke="midnightblue" d="M905.41,-168.08C897.84,-160.22 886.62,-148.57 877.49,-139.08"/>
<polygon fill="midnightblue" stroke="midnightblue" points="879.88,-136.53 870.43,-131.75 874.84,-141.38 879.88,-136.53"/>
</g>
<!-- Node14&#45;&gt;Node8 -->
<g id="edge26" class="edge">
<title>Node14&#45;&gt;Node8</title>
<path fill="none" stroke="midnightblue" d="M943.26,-172.72C1001.54,-164.19 1133.47,-144.88 1214.7,-132.99"/>
<polygon fill="midnightblue" stroke="midnightblue" points="1215.45,-136.42 1224.84,-131.51 1214.44,-129.5 1215.45,-136.42"/>
</g>
<!-- Node14&#45;&gt;Node9 -->
<g id="edge27" class="edge">
<title>Node14&#45;&gt;Node9</title>
<path fill="none" stroke="midnightblue" d="M884.87,-170.85C880.23,-169.88 875.49,-168.91 871,-168 810.74,-155.83 741.52,-142.42 694.69,-133.43"/>
<polygon fill="midnightblue" stroke="midnightblue" points="695.23,-129.97 684.75,-131.53 693.91,-136.85 695.23,-129.97"/>
</g>
<!-- Node15 -->
<g id="node15" class="node">
<title>Node15</title>
<g id="a_node15"><a xlink:title=" ">
<polygon fill="none" stroke="#bfbfbf" points="1135,-0.5 1135,-19.5 1179,-19.5 1179,-0.5 1135,-0.5"/>
<text text-anchor="middle" x="1157" y="-7.5" font-family="Helvetica,sans-Serif" font-size="10.00">vector</text>
</a>
</g>
</g>
<!-- Node14&#45;&gt;Node15 -->
<g id="edge18" class="edge">
<title>Node14&#45;&gt;Node15</title>
<path fill="none" stroke="midnightblue" d="M930.14,-168.36C946.13,-159.65 971.18,-145.58 992,-132 1046.7,-96.32 1107.93,-49.48 1138.1,-25.91"/>
<polygon fill="midnightblue" stroke="midnightblue" points="1140.39,-28.57 1146.09,-19.65 1136.07,-23.06 1140.39,-28.57"/>
</g>
<!-- Node14&#45;&gt;Node16 -->
<g id="edge20" class="edge">
<title>Node14&#45;&gt;Node16</title>
<path fill="none" stroke="midnightblue" d="M895.14,-168.44C875.73,-159.64 845.27,-145.81 823.04,-135.72"/>
<polygon fill="midnightblue" stroke="midnightblue" points="824.32,-132.46 813.77,-131.52 821.43,-138.84 824.32,-132.46"/>
</g>
<!-- Node14&#45;&gt;Node18 -->
<g id="edge25" class="edge">
<title>Node14&#45;&gt;Node18</title>
<path fill="none" stroke="midnightblue" d="M914.94,-168.37C916.88,-150.62 921.35,-109.67 923.97,-85.6"/>
<polygon fill="midnightblue" stroke="midnightblue" points="927.46,-85.91 925.06,-75.59 920.5,-85.15 927.46,-85.91"/>
</g>
<!-- Node17 -->
<g id="node17" class="node">
<title>Node17</title>
<g id="a_node17"><a xlink:title=" ">
<polygon fill="none" stroke="#bfbfbf" points="509.5,-0.5 509.5,-19.5 550.5,-19.5 550.5,-0.5 509.5,-0.5"/>
<text text-anchor="middle" x="530" y="-7.5" font-family="Helvetica,sans-Serif" font-size="10.00">string</text>
</a>
</g>
</g>
<!-- Node16&#45;&gt;Node17 -->
<g id="edge21" class="edge">
<title>Node16&#45;&gt;Node17</title>
<path fill="none" stroke="midnightblue" d="M790.6,-112.24C782.97,-98.02 765.89,-70.1 743,-56 685.48,-20.56 604.43,-12.67 560.76,-11.14"/>
<polygon fill="midnightblue" stroke="midnightblue" points="560.84,-7.64 550.75,-10.88 560.66,-14.64 560.84,-7.64"/>
</g>
<!-- Node16&#45;&gt;Node18 -->
<g id="edge22" class="edge">
<title>Node16&#45;&gt;Node18</title>
<path fill="none" stroke="midnightblue" d="M815.76,-112.44C837.32,-103.56 871.26,-89.56 895.79,-79.45"/>
<polygon fill="midnightblue" stroke="midnightblue" points="897.43,-82.56 905.34,-75.52 894.76,-76.09 897.43,-82.56"/>
</g>
<!-- Node18&#45;&gt;Node15 -->
<g id="edge23" class="edge">
<title>Node18&#45;&gt;Node15</title>
<path fill="none" stroke="midnightblue" d="M962.6,-56.44C1007.38,-45.98 1082.46,-28.42 1125.02,-18.47"/>
<polygon fill="midnightblue" stroke="midnightblue" points="1125.91,-21.86 1134.85,-16.18 1124.32,-15.05 1125.91,-21.86"/>
</g>
<!-- Node18&#45;&gt;Node17 -->
<g id="edge24" class="edge">
<title>Node18&#45;&gt;Node17</title>
<path fill="none" stroke="midnightblue" d="M885.85,-59.53C806.55,-48.71 631.39,-24.83 560.59,-15.17"/>
<polygon fill="midnightblue" stroke="midnightblue" points="560.92,-11.68 550.53,-13.8 559.97,-18.62 560.92,-11.68"/>
</g>
<!-- Node19&#45;&gt;Node8 -->
<g id="edge31" class="edge">
<title>Node19&#45;&gt;Node8</title>
<path fill="none" stroke="midnightblue" d="M847.1,-225.33C850.11,-224.86 853.1,-224.41 856,-224 1000.77,-203.52 1045.31,-237.17 1183,-188 1199.69,-182.04 1238.75,-155 1262.82,-137.73"/>
<polygon fill="midnightblue" stroke="midnightblue" points="1265.17,-140.34 1271.23,-131.65 1261.08,-134.67 1265.17,-140.34"/>
</g>
<!-- Node19&#45;&gt;Node9 -->
<g id="edge32" class="edge">
<title>Node19&#45;&gt;Node9</title>
<path fill="none" stroke="midnightblue" d="M791.13,-224.37C762.99,-205.49 695.74,-160.38 661.23,-137.24"/>
<polygon fill="midnightblue" stroke="midnightblue" points="663.06,-134.26 652.81,-131.59 659.16,-140.07 663.06,-134.26"/>
</g>
<!-- Node19&#45;&gt;Node14 -->
<g id="edge30" class="edge">
<title>Node19&#45;&gt;Node14</title>
<path fill="none" stroke="midnightblue" d="M821.67,-224.32C839.39,-215.62 866.9,-202.12 887.29,-192.11"/>
<polygon fill="midnightblue" stroke="midnightblue" points="888.94,-195.2 896.37,-187.65 885.85,-188.92 888.94,-195.2"/>
</g>
<!-- Node20 -->
<g id="node20" class="node">
<title>Node20</title>
<g id="a_node20"><a xlink:title=" ">
<polygon fill="none" stroke="#bfbfbf" points="937,-112.5 937,-131.5 983,-131.5 983,-112.5 937,-112.5"/>
<text text-anchor="middle" x="960" y="-119.5" font-family="Helvetica,sans-Serif" font-size="10.00">math.h</text>
</a>
</g>
</g>
<!-- Node19&#45;&gt;Node20 -->
<g id="edge29" class="edge">
<title>Node19&#45;&gt;Node20</title>
<path fill="none" stroke="midnightblue" d="M812.29,-224.27C825.12,-211.05 850.93,-185.64 876,-168 893.53,-155.67 914.84,-144.29 931.6,-136.06"/>
<polygon fill="midnightblue" stroke="midnightblue" points="933.39,-139.08 940.89,-131.6 930.36,-132.78 933.39,-139.08"/>
</g>
<!-- Node21&#45;&gt;Node8 -->
<g id="edge36" class="edge">
<title>Node21&#45;&gt;Node8</title>
<path fill="none" stroke="midnightblue" d="M1089.14,-224.56C1150.64,-213.15 1252.54,-193.56 1259,-188 1272.51,-176.36 1278.42,-156.41 1281,-141.67"/>
<polygon fill="midnightblue" stroke="midnightblue" points="1284.49,-142.03 1282.4,-131.65 1277.55,-141.07 1284.49,-142.03"/>
</g>
<!-- Node21&#45;&gt;Node9 -->
<g id="edge37" class="edge">
<title>Node21&#45;&gt;Node9</title>
<path fill="none" stroke="midnightblue" d="M999.81,-224.44C959.12,-216.1 896.57,-202.57 843,-188 782.76,-171.61 713.76,-148.6 673.7,-134.8"/>
<polygon fill="midnightblue" stroke="midnightblue" points="674.76,-131.47 664.17,-131.51 672.47,-138.08 674.76,-131.47"/>
</g>
<!-- Node21&#45;&gt;Node14 -->
<g id="edge38" class="edge">
<title>Node21&#45;&gt;Node14</title>
<path fill="none" stroke="midnightblue" d="M1022.56,-224.44C1001.33,-215.56 967.9,-201.56 943.75,-191.45"/>
<polygon fill="midnightblue" stroke="midnightblue" points="944.92,-188.15 934.34,-187.52 942.22,-194.61 944.92,-188.15"/>
</g>
<!-- Node22 -->
<g id="node22" class="node">
<title>Node22</title>
<g id="a_node22"><a xlink:href="timedependentparameter_8hpp.html" target="_top" xlink:title="MODEL::TimeDependentParameter source file.">
<polygon fill="none" stroke="black" points="999,-168.5 999,-187.5 1141,-187.5 1141,-168.5 999,-168.5"/>
<text text-anchor="middle" x="1070" y="-175.5" font-family="Helvetica,sans-Serif" font-size="10.00">timedependentparameter.hpp</text>
</a>
</g>
</g>
<!-- Node21&#45;&gt;Node22 -->
<g id="edge39" class="edge">
<title>Node21&#45;&gt;Node22</title>
<path fill="none" stroke="midnightblue" d="M1047.46,-224.08C1051.15,-216.69 1056.52,-205.95 1061.09,-196.81"/>
<polygon fill="midnightblue" stroke="midnightblue" points="1064.28,-198.26 1065.62,-187.75 1058.02,-195.13 1064.28,-198.26"/>
</g>
<!-- Node22&#45;&gt;Node15 -->
<g id="edge41" class="edge">
<title>Node22&#45;&gt;Node15</title>
<path fill="none" stroke="midnightblue" d="M1090.98,-168.44C1106.25,-161.09 1126.08,-148.97 1137,-132 1157.28,-100.48 1159.12,-55.09 1158.3,-29.81"/>
<polygon fill="midnightblue" stroke="midnightblue" points="1161.79,-29.55 1157.79,-19.74 1154.8,-29.9 1161.79,-29.55"/>
</g>
<!-- Node22&#45;&gt;Node18 -->
<g id="edge43" class="edge">
<title>Node22&#45;&gt;Node18</title>
<path fill="none" stroke="midnightblue" d="M1060.15,-168.27C1045.6,-155.48 1017.32,-131.12 992,-112 977.75,-101.24 961.14,-89.92 948.15,-81.33"/>
<polygon fill="midnightblue" stroke="midnightblue" points="949.69,-78.16 939.41,-75.6 945.85,-84.01 949.69,-78.16"/>
</g>
<!-- Node22&#45;&gt;Node20 -->
<g id="edge40" class="edge">
<title>Node22&#45;&gt;Node20</title>
<path fill="none" stroke="midnightblue" d="M1052.33,-168.32C1034.61,-159.62 1007.1,-146.12 986.71,-136.11"/>
<polygon fill="midnightblue" stroke="midnightblue" points="988.15,-132.92 977.63,-131.65 985.06,-139.2 988.15,-132.92"/>
</g>
<!-- Node23 -->
<g id="node23" class="node">
<title>Node23</title>
<g id="a_node23"><a xlink:title=" ">
<polygon fill="none" stroke="#bfbfbf" points="1077.5,-112.5 1077.5,-131.5 1128.5,-131.5 1128.5,-112.5 1077.5,-112.5"/>
<text text-anchor="middle" x="1103" y="-119.5" font-family="Helvetica,sans-Serif" font-size="10.00">numeric</text>
</a>
</g>
</g>
<!-- Node22&#45;&gt;Node23 -->
<g id="edge42" class="edge">
<title>Node22&#45;&gt;Node23</title>
<path fill="none" stroke="midnightblue" d="M1075.45,-168.08C1080.01,-160.61 1086.67,-149.72 1092.29,-140.52"/>
<polygon fill="midnightblue" stroke="midnightblue" points="1095.42,-142.11 1097.65,-131.75 1089.45,-138.46 1095.42,-142.11"/>
</g>
<!-- Node24&#45;&gt;Node8 -->
<g id="edge45" class="edge">
<title>Node24&#45;&gt;Node8</title>
<path fill="none" stroke="midnightblue" d="M978.73,-224.93C1063.94,-212.75 1215.65,-190.78 1221,-188 1242.32,-176.92 1260.43,-155.65 1271.47,-140.45"/>
<polygon fill="midnightblue" stroke="midnightblue" points="1274.57,-142.13 1277.4,-131.92 1268.82,-138.13 1274.57,-142.13"/>
</g>
<!-- Node24&#45;&gt;Node9 -->
<g id="edge46" class="edge">
<title>Node24&#45;&gt;Node9</title>
<path fill="none" stroke="midnightblue" d="M884.97,-224.49C853.11,-216.64 806.24,-203.83 767,-188 749.3,-180.86 745.96,-176.75 729,-168 707.97,-157.15 684.02,-145.06 666.27,-136.14"/>
<polygon fill="midnightblue" stroke="midnightblue" points="667.61,-132.9 657.1,-131.54 664.47,-139.16 667.61,-132.9"/>
</g>
<!-- Node24&#45;&gt;Node14 -->
<g id="edge47" class="edge">
<title>Node24&#45;&gt;Node14</title>
<path fill="none" stroke="midnightblue" d="M920.68,-224.08C919.62,-216.93 918.09,-206.64 916.77,-197.69"/>
<polygon fill="midnightblue" stroke="midnightblue" points="920.22,-197.13 915.3,-187.75 913.3,-198.16 920.22,-197.13"/>
</g>
<!-- Node24&#45;&gt;Node22 -->
<g id="edge48" class="edge">
<title>Node24&#45;&gt;Node22</title>
<path fill="none" stroke="midnightblue" d="M945.45,-224.44C970.13,-215.44 1009.19,-201.19 1036.98,-191.05"/>
<polygon fill="midnightblue" stroke="midnightblue" points="1038.46,-194.23 1046.66,-187.52 1036.06,-187.66 1038.46,-194.23"/>
</g>
<!-- Node25&#45;&gt;Node8 -->
<g id="edge50" class="edge">
<title>Node25&#45;&gt;Node8</title>
<path fill="none" stroke="midnightblue" d="M616.17,-224.41C670.24,-210.69 780.9,-183.76 876,-168 990.12,-149.09 1123.59,-136.04 1205.71,-129.04"/>
<polygon fill="midnightblue" stroke="midnightblue" points="1206.05,-132.52 1215.72,-128.19 1205.46,-125.55 1206.05,-132.52"/>
</g>
<!-- Node25&#45;&gt;Node9 -->
<g id="edge51" class="edge">
<title>Node25&#45;&gt;Node9</title>
<path fill="none" stroke="midnightblue" d="M587.21,-224.1C593.2,-211.51 604.62,-187.84 615,-168 619.83,-158.78 625.43,-148.64 630.11,-140.32"/>
<polygon fill="midnightblue" stroke="midnightblue" points="633.19,-141.98 635.08,-131.56 627.1,-138.53 633.19,-141.98"/>
</g>
<!-- Node25&#45;&gt;Node14 -->
<g id="edge52" class="edge">
<title>Node25&#45;&gt;Node14</title>
<path fill="none" stroke="midnightblue" d="M635.45,-224.44C702,-213.59 815.27,-195.11 874.79,-185.4"/>
<polygon fill="midnightblue" stroke="midnightblue" points="875.61,-188.81 884.91,-183.75 874.48,-181.9 875.61,-188.81"/>
</g>
<!-- Node26&#45;&gt;Node8 -->
<g id="edge54" class="edge">
<title>Node26&#45;&gt;Node8</title>
<path fill="none" stroke="midnightblue" d="M1488.5,-224.37C1449.58,-205.17 1355.66,-158.84 1309.5,-136.07"/>
<polygon fill="midnightblue" stroke="midnightblue" points="1310.93,-132.88 1300.42,-131.59 1307.84,-139.15 1310.93,-132.88"/>
</g>
<!-- Node26&#45;&gt;Node9 -->
<g id="edge55" class="edge">
<title>Node26&#45;&gt;Node9</title>
<path fill="none" stroke="midnightblue" d="M1426.91,-224.93C1423.56,-224.61 1420.25,-224.3 1417,-224 1227.36,-206.42 1172.81,-241.42 990,-188 971.68,-182.65 970.15,-173.89 952,-168 909.97,-154.36 796.8,-140.02 718.97,-131.29"/>
<polygon fill="midnightblue" stroke="midnightblue" points="719.04,-127.78 708.72,-130.15 718.27,-134.73 719.04,-127.78"/>
</g>
<!-- Node26&#45;&gt;Node14 -->
<g id="edge56" class="edge">
<title>Node26&#45;&gt;Node14</title>
<path fill="none" stroke="midnightblue" d="M1426.91,-224.91C1423.56,-224.6 1420.25,-224.29 1417,-224 1212.75,-205.68 1160,-217.07 957,-188 955.73,-187.82 954.43,-187.62 953.13,-187.41"/>
<polygon fill="midnightblue" stroke="midnightblue" points="953.51,-183.92 943.05,-185.61 952.28,-190.81 953.51,-183.92"/>
</g>
<!-- Node26&#45;&gt;Node22 -->
<g id="edge57" class="edge">
<title>Node26&#45;&gt;Node22</title>
<path fill="none" stroke="midnightblue" d="M1436.91,-224.44C1358.54,-214.74 1230.99,-198.94 1148.8,-188.76"/>
<polygon fill="midnightblue" stroke="midnightblue" points="1149.12,-185.27 1138.76,-187.52 1148.26,-192.22 1149.12,-185.27"/>
</g>
<!-- Node27&#45;&gt;Node8 -->
<g id="edge59" class="edge">
<title>Node27&#45;&gt;Node8</title>
<path fill="none" stroke="midnightblue" d="M1311.82,-224.13C1308.7,-211.59 1302.71,-187.96 1297,-168 1294.46,-159.14 1291.45,-149.36 1288.87,-141.19"/>
<polygon fill="midnightblue" stroke="midnightblue" points="1292.18,-140.05 1285.8,-131.59 1285.51,-142.18 1292.18,-140.05"/>
</g>
<!-- Node27&#45;&gt;Node9 -->
<g id="edge60" class="edge">
<title>Node27&#45;&gt;Node9</title>
<path fill="none" stroke="midnightblue" d="M1219.46,-224.63C1100.71,-213.9 908.48,-195.77 876,-188 851.92,-182.24 847.63,-175.4 824,-168 779.82,-154.16 728.6,-141.94 691.43,-133.74"/>
<polygon fill="midnightblue" stroke="midnightblue" points="691.85,-130.25 681.34,-131.53 690.36,-137.08 691.85,-130.25"/>
</g>
<!-- Node27&#45;&gt;Node14 -->
<g id="edge61" class="edge">
<title>Node27&#45;&gt;Node14</title>
<path fill="none" stroke="midnightblue" d="M1231.12,-224.48C1158.59,-216.56 1050.5,-203.65 957,-188 955.73,-187.79 954.44,-187.56 953.14,-187.33"/>
<polygon fill="midnightblue" stroke="midnightblue" points="953.56,-183.85 943.08,-185.42 952.25,-190.73 953.56,-183.85"/>
</g>
<!-- Node27&#45;&gt;Node22 -->
<g id="edge62" class="edge">
<title>Node27&#45;&gt;Node22</title>
<path fill="none" stroke="midnightblue" d="M1275.34,-224.44C1232.86,-215.04 1164.57,-199.93 1118.53,-189.74"/>
<polygon fill="midnightblue" stroke="midnightblue" points="1119,-186.26 1108.48,-187.52 1117.49,-193.09 1119,-186.26"/>
</g>
<!-- Node29&#45;&gt;Node4 -->
<g id="edge71" class="edge">
<title>Node29&#45;&gt;Node4</title>
<path fill="none" stroke="midnightblue" d="M254.03,-341.98C404.4,-332.72 858.74,-304.75 1022.42,-294.67"/>
<polygon fill="midnightblue" stroke="midnightblue" points="1023.01,-298.14 1032.77,-294.03 1022.58,-291.15 1023.01,-298.14"/>
</g>
<!-- Node29&#45;&gt;Node17 -->
<g id="edge69" class="edge">
<title>Node29&#45;&gt;Node17</title>
<path fill="none" stroke="midnightblue" d="M203.43,-336.48C200.18,-318.04 193,-273.04 193,-235 193,-235 193,-235 193,-121 193,-56.88 416.26,-24.27 499.34,-14.35"/>
<polygon fill="midnightblue" stroke="midnightblue" points="499.9,-17.81 509.43,-13.17 499.09,-10.85 499.9,-17.81"/>
</g>
<!-- Node30 -->
<g id="node30" class="node">
<title>Node30</title>
<g id="a_node30"><a xlink:title=" ">
<polygon fill="none" stroke="#bfbfbf" points="24.5,-280.5 24.5,-299.5 83.5,-299.5 83.5,-280.5 24.5,-280.5"/>
<text text-anchor="middle" x="54" y="-287.5" font-family="Helvetica,sans-Serif" font-size="10.00">stdexcept</text>
</a>
</g>
</g>
<!-- Node29&#45;&gt;Node30 -->
<g id="edge70" class="edge">
<title>Node29&#45;&gt;Node30</title>
<path fill="none" stroke="midnightblue" d="M181.07,-336.44C155.78,-327.4 115.7,-313.06 87.32,-302.92"/>
<polygon fill="midnightblue" stroke="midnightblue" points="88.41,-299.59 77.81,-299.52 86.05,-306.18 88.41,-299.59"/>
</g>
<!-- Node29&#45;&gt;Node31 -->
<g id="edge72" class="edge">
<title>Node29&#45;&gt;Node31</title>
<path fill="none" stroke="midnightblue" d="M215.93,-336.32C226.17,-328.18 241.72,-315.84 254,-306.09"/>
<polygon fill="midnightblue" stroke="midnightblue" points="256.22,-308.79 261.88,-299.83 251.87,-303.31 256.22,-308.79"/>
</g>
<!-- Node32 -->
<g id="node32" class="node">
<title>Node32</title>
<g id="a_node32"><a xlink:title=" ">
<polygon fill="none" stroke="#bfbfbf" points="101.5,-280.5 101.5,-299.5 164.5,-299.5 164.5,-280.5 101.5,-280.5"/>
<text text-anchor="middle" x="133" y="-287.5" font-family="Helvetica,sans-Serif" font-size="10.00">simdjson.h</text>
</a>
</g>
</g>
<!-- Node29&#45;&gt;Node32 -->
<g id="edge74" class="edge">
<title>Node29&#45;&gt;Node32</title>
<path fill="none" stroke="midnightblue" d="M193.43,-336.32C182.58,-328.18 166.12,-315.84 153.12,-306.09"/>
<polygon fill="midnightblue" stroke="midnightblue" points="154.88,-303.03 144.78,-299.83 150.68,-308.63 154.88,-303.03"/>
</g>
<!-- Node31&#45;&gt;Node12 -->
<g id="edge73" class="edge">
<title>Node31&#45;&gt;Node12</title>
<path fill="none" stroke="midnightblue" d="M275.47,-280.31C279.26,-267.57 287.1,-243.26 297,-224 327.1,-165.46 381.85,-108.86 409.33,-82.46"/>
<polygon fill="midnightblue" stroke="midnightblue" points="411.77,-84.97 416.62,-75.55 406.95,-79.89 411.77,-84.97"/>
</g>
<!-- Node33&#45;&gt;Node4 -->
<g id="edge80" class="edge">
<title>Node33&#45;&gt;Node4</title>
<path fill="none" stroke="midnightblue" d="M1362.44,-337.88C1305.77,-328.41 1205.26,-311.61 1141.22,-300.9"/>
<polygon fill="midnightblue" stroke="midnightblue" points="1141.71,-297.43 1131.27,-299.24 1140.55,-304.34 1141.71,-297.43"/>
</g>
<!-- Node33&#45;&gt;Node15 -->
<g id="edge77" class="edge">
<title>Node33&#45;&gt;Node15</title>
<path fill="none" stroke="midnightblue" d="M1447.76,-342.42C1535.35,-334.57 1727,-303.22 1727,-179 1727,-179 1727,-179 1727,-121 1727,-10.69 1310.26,-8.6 1189.45,-10.31"/>
<polygon fill="midnightblue" stroke="midnightblue" points="1189.29,-6.81 1179.34,-10.47 1189.4,-13.81 1189.29,-6.81"/>
</g>
<!-- Node33&#45;&gt;Node17 -->
<g id="edge76" class="edge">
<title>Node33&#45;&gt;Node17</title>
<path fill="none" stroke="midnightblue" d="M1362.23,-343.21C1185.4,-335.44 517.3,-302.42 445,-244 377.29,-189.28 338.72,-126.35 390,-56 414.9,-21.84 466.16,-13.04 499.26,-11.09"/>
<polygon fill="midnightblue" stroke="midnightblue" points="499.47,-14.59 509.31,-10.67 499.18,-7.59 499.47,-14.59"/>
</g>
<!-- Node33&#45;&gt;Node28 -->
<g id="edge79" class="edge">
<title>Node33&#45;&gt;Node28</title>
<path fill="none" stroke="midnightblue" d="M1447.56,-343.08C1529.87,-338.91 1716.71,-327.26 1882.9,-299.95"/>
<polygon fill="midnightblue" stroke="midnightblue" points="1883.52,-303.4 1892.81,-298.3 1882.37,-296.5 1883.52,-303.4"/>
</g>
<!-- Node34 -->
<g id="node34" class="node">
<title>Node34</title>
<g id="a_node34"><a xlink:title=" ">
<polygon fill="none" stroke="#bfbfbf" points="1380,-280.5 1380,-299.5 1430,-299.5 1430,-280.5 1380,-280.5"/>
<text text-anchor="middle" x="1405" y="-287.5" font-family="Helvetica,sans-Serif" font-size="10.00">fstream</text>
</a>
</g>
</g>
<!-- Node33&#45;&gt;Node34 -->
<g id="edge78" class="edge">
<title>Node33&#45;&gt;Node34</title>
<path fill="none" stroke="midnightblue" d="M1405,-336.08C1405,-329.01 1405,-318.86 1405,-309.99"/>
<polygon fill="midnightblue" stroke="midnightblue" points="1408.5,-309.75 1405,-299.75 1401.5,-309.75 1408.5,-309.75"/>
</g>
<!-- Node35 -->
<g id="node35" class="node">
<title>Node35</title>
<g id="a_node35"><a xlink:href="startswith_8hpp.html" target="_top" xlink:title="HELPERS::startswith source file.">
<polygon fill="none" stroke="black" points="1755.5,-280.5 1755.5,-299.5 1874.5,-299.5 1874.5,-280.5 1755.5,-280.5"/>
<text text-anchor="middle" x="1815" y="-287.5" font-family="Helvetica,sans-Serif" font-size="10.00">../helpers/startswith.hpp</text>
</a>
</g>
</g>
<!-- Node33&#45;&gt;Node35 -->
<g id="edge81" class="edge">
<title>Node33&#45;&gt;Node35</title>
<path fill="none" stroke="midnightblue" d="M1447.72,-339.37C1518.27,-330.08 1659.83,-311.44 1745.12,-300.2"/>
<polygon fill="midnightblue" stroke="midnightblue" points="1745.78,-303.65 1755.23,-298.87 1744.86,-296.71 1745.78,-303.65"/>
</g>
<!-- Node35&#45;&gt;Node17 -->
<g id="edge82" class="edge">
<title>Node35&#45;&gt;Node17</title>
<path fill="none" stroke="midnightblue" d="M1814.22,-280.45C1812.59,-261.96 1809,-216.87 1809,-179 1809,-179 1809,-179 1809,-121 1809,12.82 1647.66,-73.56 1515,-56 1323.97,-30.71 707.13,-15.1 561.17,-11.7"/>
<polygon fill="midnightblue" stroke="midnightblue" points="560.82,-8.19 550.74,-11.46 560.66,-15.19 560.82,-8.19"/>
</g>
<!-- Node36&#45;&gt;Node4 -->
<g id="edge87" class="edge">
<title>Node36&#45;&gt;Node4</title>
<path fill="none" stroke="midnightblue" d="M1877.06,-340.31C1862.13,-338.81 1845.35,-337.22 1830,-336 1573.93,-315.64 1267.9,-299.92 1141.3,-293.79"/>
<polygon fill="midnightblue" stroke="midnightblue" points="1141.21,-290.28 1131.06,-293.3 1140.87,-297.27 1141.21,-290.28"/>
</g>
<!-- Node36&#45;&gt;Node15 -->
<g id="edge85" class="edge">
<title>Node36&#45;&gt;Node15</title>
<path fill="none" stroke="midnightblue" d="M1956.45,-336.48C1977.11,-329.79 2002.14,-318.44 2018,-300 2037.63,-277.18 2037,-265.1 2037,-235 2037,-235 2037,-235 2037,-121 2037,-33.8 1347.86,-14.79 1189.27,-11.57"/>
<polygon fill="midnightblue" stroke="midnightblue" points="1189.26,-8.07 1179.19,-11.37 1189.12,-15.07 1189.26,-8.07"/>
</g>
<!-- Node36&#45;&gt;Node28 -->
<g id="edge86" class="edge">
<title>Node36&#45;&gt;Node28</title>
<path fill="none" stroke="midnightblue" d="M1921,-336.08C1921,-329.01 1921,-318.86 1921,-309.99"/>
<polygon fill="midnightblue" stroke="midnightblue" points="1924.5,-309.75 1921,-299.75 1917.5,-309.75 1924.5,-309.75"/>
</g>
<!-- Node36&#45;&gt;Node35 -->
<g id="edge88" class="edge">
<title>Node36&#45;&gt;Node35</title>
<path fill="none" stroke="midnightblue" d="M1903.97,-336.32C1886.97,-327.66 1860.62,-314.24 1841.01,-304.25"/>
<polygon fill="midnightblue" stroke="midnightblue" points="1842.49,-301.08 1831.99,-299.65 1839.31,-307.31 1842.49,-301.08"/>
</g>
<!-- Node37 -->
<g id="node37" class="node">
<title>Node37</title>
<g id="a_node37"><a xlink:title=" ">
<polygon fill="none" stroke="#bfbfbf" points="1967,-280.5 1967,-299.5 2009,-299.5 2009,-280.5 1967,-280.5"/>
<text text-anchor="middle" x="1988" y="-287.5" font-family="Helvetica,sans-Serif" font-size="10.00">json.h</text>
</a>
</g>
</g>
<!-- Node36&#45;&gt;Node37 -->
<g id="edge84" class="edge">
<title>Node36&#45;&gt;Node37</title>
<path fill="none" stroke="midnightblue" d="M1931.76,-336.32C1941.77,-328.26 1956.89,-316.08 1968.93,-306.37"/>
<polygon fill="midnightblue" stroke="midnightblue" points="1971.45,-308.83 1977.04,-299.83 1967.06,-303.38 1971.45,-308.83"/>
</g>
<!-- Node38&#45;&gt;Node17 -->
<g id="edge91" class="edge">
<title>Node38&#45;&gt;Node17</title>
<path fill="none" stroke="midnightblue" d="M59.79,-168.38C75.7,-145.49 122.66,-83.1 179,-56 235.33,-28.91 423.89,-16.45 498.87,-12.48"/>
<polygon fill="midnightblue" stroke="midnightblue" points="499.27,-15.97 509.08,-11.96 498.91,-8.98 499.27,-15.97"/>
</g>
</g>
</svg>
