<?xml version="1.0" encoding="UTF-8" standalone="no"?>
<!DOCTYPE svg PUBLIC "-//W3C//DTD SVG 1.1//EN"
 "http://www.w3.org/Graphics/SVG/1.1/DTD/svg11.dtd">
<!-- Generated by graphviz version 3.0.0 (20220413.0242)
 -->
<!-- Title: model/model.hpp Pages: 1 -->
<svg width="916pt" height="308pt"
 viewBox="0.00 0.00 915.87 308.00" xmlns="http://www.w3.org/2000/svg" xmlns:xlink="http://www.w3.org/1999/xlink">
<g id="graph0" class="graph" transform="scale(1 1) rotate(0) translate(4 304)">
<title>model/model.hpp</title>
<!-- Node1 -->
<g id="node1" class="node">
<title>Node1</title>
<g id="a_node1"><a xlink:title="MODEL::Model source file.">
<polygon fill="#bfbfbf" stroke="black" points="224.87,-280.5 224.87,-299.5 314.87,-299.5 314.87,-280.5 224.87,-280.5"/>
<text text-anchor="middle" x="269.87" y="-287.5" font-family="Helvetica,sans-Serif" font-size="10.00">model/model.hpp</text>
</a>
</g>
</g>
<!-- Node2 -->
<g id="node2" class="node">
<title>Node2</title>
<g id="a_node2"><a xlink:title=" ">
<polygon fill="none" stroke="#bfbfbf" points="18.37,-112.5 18.37,-131.5 53.37,-131.5 53.37,-112.5 18.37,-112.5"/>
<text text-anchor="middle" x="35.87" y="-119.5" font-family="Helvetica,sans-Serif" font-size="10.00">map</text>
</a>
</g>
</g>
<!-- Node1&#45;&gt;Node2 -->
<g id="edge1" class="edge">
<title>Node1&#45;&gt;Node2</title>
<path fill="none" stroke="midnightblue" d="M224.61,-287.84C157.99,-285.08 38.53,-275.71 11.87,-244 -13.06,-214.35 9.23,-166.19 24.45,-140.48"/>
<polygon fill="midnightblue" stroke="midnightblue" points="27.53,-142.15 29.82,-131.81 21.58,-138.46 27.53,-142.15"/>
</g>
<!-- Node3 -->
<g id="node3" class="node">
<title>Node3</title>
<g id="a_node3"><a xlink:title=" ">
<polygon fill="none" stroke="#bfbfbf" points="21.37,-224.5 21.37,-243.5 50.37,-243.5 50.37,-224.5 21.37,-224.5"/>
<text text-anchor="middle" x="35.87" y="-231.5" font-family="Helvetica,sans-Serif" font-size="10.00">list</text>
</a>
</g>
</g>
<!-- Node1&#45;&gt;Node3 -->
<g id="edge2" class="edge">
<title>Node1&#45;&gt;Node3</title>
<path fill="none" stroke="midnightblue" d="M224.74,-281.32C184.06,-273.96 122.52,-261.73 60.44,-243.8"/>
<polygon fill="midnightblue" stroke="midnightblue" points="61.06,-240.33 50.48,-240.87 59.09,-247.05 61.06,-240.33"/>
</g>
<!-- Node4 -->
<g id="node4" class="node">
<title>Node4</title>
<g id="a_node4"><a xlink:title=" ">
<polygon fill="none" stroke="#bfbfbf" points="68.87,-224.5 68.87,-243.5 114.87,-243.5 114.87,-224.5 68.87,-224.5"/>
<text text-anchor="middle" x="91.87" y="-231.5" font-family="Helvetica,sans-Serif" font-size="10.00">variant</text>
</a>
</g>
</g>
<!-- Node1&#45;&gt;Node4 -->
<g id="edge3" class="edge">
<title>Node1&#45;&gt;Node4</title>
<path fill="none" stroke="midnightblue" d="M241.67,-280.44C209.95,-270.82 158.5,-255.21 124.93,-245.03"/>
<polygon fill="midnightblue" stroke="midnightblue" points="125.71,-241.61 115.12,-242.05 123.68,-248.31 125.71,-241.61"/>
</g>
<!-- Node5 -->
<g id="node5" class="node">
<title>Node5</title>
<g id="a_node5"><a xlink:href="densesystem_8hpp.html" target="_top" xlink:title="ALGEBRA::DenseSystem source file.">
<polygon fill="none" stroke="black" points="341.87,-112.5 341.87,-131.5 475.87,-131.5 475.87,-112.5 341.87,-112.5"/>
<text text-anchor="middle" x="408.87" y="-119.5" font-family="Helvetica,sans-Serif" font-size="10.00">../algebra/densesystem.hpp</text>
</a>
</g>
</g>
<!-- Node1&#45;&gt;Node5 -->
<g id="edge4" class="edge">
<title>Node1&#45;&gt;Node5</title>
<path fill="none" stroke="midnightblue" d="M261.12,-280.29C253.31,-271.84 242.42,-258.25 237.87,-244 226.38,-208.02 245.82,-190.87 275.87,-168 297.44,-151.59 325.36,-140.95 350.05,-134.15"/>
<polygon fill="midnightblue" stroke="midnightblue" points="351.24,-137.46 360.04,-131.56 349.48,-130.68 351.24,-137.46"/>
</g>
<!-- Node7 -->
<g id="node7" class="node">
<title>Node7</title>
<g id="a_node7"><a xlink:href="sparsesystem_8hpp.html" target="_top" xlink:title="ALGEBRA::SparseSystem source file.">
<polygon fill="none" stroke="black" points="504.37,-112.5 504.37,-131.5 641.37,-131.5 641.37,-112.5 504.37,-112.5"/>
<text text-anchor="middle" x="572.87" y="-119.5" font-family="Helvetica,sans-Serif" font-size="10.00">../algebra/sparsesystem.hpp</text>
</a>
</g>
</g>
<!-- Node1&#45;&gt;Node7 -->
<g id="edge6" class="edge">
<title>Node1&#45;&gt;Node7</title>
<path fill="none" stroke="midnightblue" d="M315.13,-287.51C419.51,-283.74 669.54,-272.09 694.87,-244 733.39,-201.28 647.01,-156.84 600.16,-135.67"/>
<polygon fill="midnightblue" stroke="midnightblue" points="601.39,-132.39 590.83,-131.52 598.54,-138.78 601.39,-132.39"/>
</g>
<!-- Node11 -->
<g id="node11" class="node">
<title>Node11</title>
<g id="a_node11"><a xlink:href="junction_8hpp.html" target="_top" xlink:title="MODEL::Junction source file.">
<polygon fill="none" stroke="black" points="412.87,-224.5 412.87,-243.5 480.87,-243.5 480.87,-224.5 412.87,-224.5"/>
<text text-anchor="middle" x="446.87" y="-231.5" font-family="Helvetica,sans-Serif" font-size="10.00">junction.hpp</text>
</a>
</g>
</g>
<!-- Node1&#45;&gt;Node11 -->
<g id="edge11" class="edge">
<title>Node1&#45;&gt;Node11</title>
<path fill="none" stroke="midnightblue" d="M297.92,-280.44C327.95,-271.28 375.78,-256.69 409.11,-246.52"/>
<polygon fill="midnightblue" stroke="midnightblue" points="410.41,-249.78 418.96,-243.52 408.37,-243.09 410.41,-249.78"/>
</g>
<!-- Node14 -->
<g id="node14" class="node">
<title>Node14</title>
<g id="a_node14"><a xlink:href="node_8hpp.html" target="_top" xlink:title="MODEL::Node source file.">
<polygon fill="none" stroke="black" points="114.87,-112.5 114.87,-131.5 170.87,-131.5 170.87,-112.5 114.87,-112.5"/>
<text text-anchor="middle" x="142.87" y="-119.5" font-family="Helvetica,sans-Serif" font-size="10.00">node.hpp</text>
</a>
</g>
</g>
<!-- Node1&#45;&gt;Node14 -->
<g id="edge44" class="edge">
<title>Node1&#45;&gt;Node14</title>
<path fill="none" stroke="midnightblue" d="M228.05,-280.48C206.68,-274 182.04,-262.86 166.87,-244 143.13,-214.48 140.74,-167.98 141.53,-142.06"/>
<polygon fill="midnightblue" stroke="midnightblue" points="145.04,-141.9 142.05,-131.74 138.05,-141.55 145.04,-141.9"/>
</g>
<!-- Node16 -->
<g id="node16" class="node">
<title>Node16</title>
<g id="a_node16"><a xlink:href="dofhandler_8hpp.html" target="_top" xlink:title="MODEL::DOFHandler source file.">
<polygon fill="none" stroke="black" points="196.87,-56.5 196.87,-75.5 276.87,-75.5 276.87,-56.5 196.87,-56.5"/>
<text text-anchor="middle" x="236.87" y="-63.5" font-family="Helvetica,sans-Serif" font-size="10.00">dofhandler.hpp</text>
</a>
</g>
</g>
<!-- Node1&#45;&gt;Node16 -->
<g id="edge43" class="edge">
<title>Node1&#45;&gt;Node16</title>
<path fill="none" stroke="midnightblue" d="M258.88,-280.37C249.42,-272.17 236.44,-258.92 230.87,-244 210.5,-189.39 223.59,-118.6 231.75,-85.54"/>
<polygon fill="midnightblue" stroke="midnightblue" points="235.14,-86.41 234.28,-75.85 228.37,-84.64 235.14,-86.41"/>
</g>
<!-- Node17 -->
<g id="node17" class="node">
<title>Node17</title>
<g id="a_node17"><a xlink:href="bloodvessel_8hpp.html" target="_top" xlink:title="MODEL::BloodVessel source file.">
<polygon fill="none" stroke="black" points="498.87,-224.5 498.87,-243.5 584.87,-243.5 584.87,-224.5 498.87,-224.5"/>
<text text-anchor="middle" x="541.87" y="-231.5" font-family="Helvetica,sans-Serif" font-size="10.00">bloodvessel.hpp</text>
</a>
</g>
</g>
<!-- Node1&#45;&gt;Node17 -->
<g id="edge25" class="edge">
<title>Node1&#45;&gt;Node17</title>
<path fill="none" stroke="midnightblue" d="M312.97,-280.44C360.72,-270.96 437.73,-255.67 489.07,-245.48"/>
<polygon fill="midnightblue" stroke="midnightblue" points="489.85,-248.9 498.97,-243.52 488.48,-242.03 489.85,-248.9"/>
</g>
<!-- Node19 -->
<g id="node19" class="node">
<title>Node19</title>
<g id="a_node19"><a xlink:href="rcrblockwithdistalpressure_8hpp.html" target="_top" xlink:title="MODEL::RCRBlockWithDistalPressure source file.">
<polygon fill="none" stroke="black" points="246.87,-224.5 246.87,-243.5 394.87,-243.5 394.87,-224.5 246.87,-224.5"/>
<text text-anchor="middle" x="320.87" y="-231.5" font-family="Helvetica,sans-Serif" font-size="10.00">rcrblockwithdistalpressure.hpp</text>
</a>
</g>
</g>
<!-- Node1&#45;&gt;Node19 -->
<g id="edge30" class="edge">
<title>Node1&#45;&gt;Node19</title>
<path fill="none" stroke="midnightblue" d="M278.29,-280.08C285.72,-272.22 296.72,-260.57 305.68,-251.08"/>
<polygon fill="midnightblue" stroke="midnightblue" points="308.28,-253.42 312.61,-243.75 303.2,-248.62 308.28,-253.42"/>
</g>
<!-- Node20 -->
<g id="node20" class="node">
<title>Node20</title>
<g id="a_node20"><a xlink:href="flowreference_8hpp.html" target="_top" xlink:title="MODEL::FlowReference source file.">
<polygon fill="none" stroke="black" points="602.87,-224.5 602.87,-243.5 694.87,-243.5 694.87,-224.5 602.87,-224.5"/>
<text text-anchor="middle" x="648.87" y="-231.5" font-family="Helvetica,sans-Serif" font-size="10.00">flowreference.hpp</text>
</a>
</g>
</g>
<!-- Node1&#45;&gt;Node20 -->
<g id="edge34" class="edge">
<title>Node1&#45;&gt;Node20</title>
<path fill="none" stroke="midnightblue" d="M315,-283.08C375.69,-275.05 487.23,-260.01 592.5,-244.18"/>
<polygon fill="midnightblue" stroke="midnightblue" points="593.3,-247.6 602.67,-242.64 592.26,-240.67 593.3,-247.6"/>
</g>
<!-- Node6 -->
<g id="node6" class="node">
<title>Node6</title>
<g id="a_node6"><a xlink:title=" ">
<polygon fill="none" stroke="#bfbfbf" points="373.37,-56.5 373.37,-75.5 444.37,-75.5 444.37,-56.5 373.37,-56.5"/>
<text text-anchor="middle" x="408.87" y="-63.5" font-family="Helvetica,sans-Serif" font-size="10.00">Eigen/Dense</text>
</a>
</g>
</g>
<!-- Node5&#45;&gt;Node6 -->
<g id="edge5" class="edge">
<title>Node5&#45;&gt;Node6</title>
<path fill="none" stroke="midnightblue" d="M408.87,-112.08C408.87,-105.01 408.87,-94.86 408.87,-85.99"/>
<polygon fill="midnightblue" stroke="midnightblue" points="412.37,-85.75 408.87,-75.75 405.37,-85.75 412.37,-85.75"/>
</g>
<!-- Node7&#45;&gt;Node1 -->
<g id="edge10" class="edge">
<title>Node7&#45;&gt;Node1</title>
<path fill="none" stroke="midnightblue" d="M600.37,-131.52C652.09,-150.51 754.13,-198.24 712.87,-244 687.6,-272.03 438.69,-283.69 325.38,-287.48"/>
<polygon fill="midnightblue" stroke="midnightblue" points="325.06,-283.99 315.18,-287.81 325.28,-290.98 325.06,-283.99"/>
</g>
<!-- Node8 -->
<g id="node8" class="node">
<title>Node8</title>
<g id="a_node8"><a xlink:title=" ">
<polygon fill="none" stroke="#bfbfbf" points="535.87,-56.5 535.87,-75.5 609.87,-75.5 609.87,-56.5 535.87,-56.5"/>
<text text-anchor="middle" x="572.87" y="-63.5" font-family="Helvetica,sans-Serif" font-size="10.00">Eigen/Sparse</text>
</a>
</g>
</g>
<!-- Node7&#45;&gt;Node8 -->
<g id="edge7" class="edge">
<title>Node7&#45;&gt;Node8</title>
<path fill="none" stroke="midnightblue" d="M572.87,-112.08C572.87,-105.01 572.87,-94.86 572.87,-85.99"/>
<polygon fill="midnightblue" stroke="midnightblue" points="576.37,-85.75 572.87,-75.75 569.37,-85.75 576.37,-85.75"/>
</g>
<!-- Node9 -->
<g id="node9" class="node">
<title>Node9</title>
<g id="a_node9"><a xlink:title=" ">
<polygon fill="none" stroke="#bfbfbf" points="627.87,-56.5 627.87,-75.5 715.87,-75.5 715.87,-56.5 627.87,-56.5"/>
<text text-anchor="middle" x="671.87" y="-63.5" font-family="Helvetica,sans-Serif" font-size="10.00">Eigen/SparseLU</text>
</a>
</g>
</g>
<!-- Node7&#45;&gt;Node9 -->
<g id="edge8" class="edge">
<title>Node7&#45;&gt;Node9</title>
<path fill="none" stroke="midnightblue" d="M588.78,-112.32C604.51,-103.74 628.81,-90.49 647.08,-80.52"/>
<polygon fill="midnightblue" stroke="midnightblue" points="648.9,-83.52 656,-75.65 645.55,-77.37 648.9,-83.52"/>
</g>
<!-- Node10 -->
<g id="node10" class="node">
<title>Node10</title>
<g id="a_node10"><a xlink:title=" ">
<polygon fill="none" stroke="#bfbfbf" points="463.87,-56.5 463.87,-75.5 517.87,-75.5 517.87,-56.5 463.87,-56.5"/>
<text text-anchor="middle" x="490.87" y="-63.5" font-family="Helvetica,sans-Serif" font-size="10.00">iostream</text>
</a>
</g>
</g>
<!-- Node7&#45;&gt;Node10 -->
<g id="edge9" class="edge">
<title>Node7&#45;&gt;Node10</title>
<path fill="none" stroke="midnightblue" d="M559.7,-112.32C547.02,-103.98 527.64,-91.21 512.67,-81.35"/>
<polygon fill="midnightblue" stroke="midnightblue" points="514.29,-78.23 504.01,-75.65 510.44,-84.08 514.29,-78.23"/>
</g>
<!-- Node11&#45;&gt;Node5 -->
<g id="edge12" class="edge">
<title>Node11&#45;&gt;Node5</title>
<path fill="none" stroke="midnightblue" d="M443.89,-224.37C437.73,-206.54 423.48,-165.3 415.18,-141.27"/>
<polygon fill="midnightblue" stroke="midnightblue" points="418.41,-139.9 411.84,-131.59 411.8,-142.19 418.41,-139.9"/>
</g>
<!-- Node11&#45;&gt;Node7 -->
<g id="edge13" class="edge">
<title>Node11&#45;&gt;Node7</title>
<path fill="none" stroke="midnightblue" d="M456.76,-224.37C478.01,-205.81 528.3,-161.91 555.19,-138.44"/>
<polygon fill="midnightblue" stroke="midnightblue" points="557.8,-140.8 563.03,-131.59 553.19,-135.53 557.8,-140.8"/>
</g>
<!-- Node12 -->
<g id="node12" class="node">
<title>Node12</title>
<g id="a_node12"><a xlink:href="block_8hpp.html" target="_top" xlink:title="MODEL::Block source file.">
<polygon fill="none" stroke="black" points="284.87,-168.5 284.87,-187.5 342.87,-187.5 342.87,-168.5 284.87,-168.5"/>
<text text-anchor="middle" x="313.87" y="-175.5" font-family="Helvetica,sans-Serif" font-size="10.00">block.hpp</text>
</a>
</g>
</g>
<!-- Node11&#45;&gt;Node12 -->
<g id="edge14" class="edge">
<title>Node11&#45;&gt;Node12</title>
<path fill="none" stroke="midnightblue" d="M425.8,-224.44C403.81,-215.52 369.14,-201.44 344.21,-191.32"/>
<polygon fill="midnightblue" stroke="midnightblue" points="345.43,-188.04 334.85,-187.52 342.8,-194.52 345.43,-188.04"/>
</g>
<!-- Node12&#45;&gt;Node2 -->
<g id="edge16" class="edge">
<title>Node12&#45;&gt;Node2</title>
<path fill="none" stroke="midnightblue" d="M284.65,-171.32C230.65,-160.84 115.98,-138.56 63.34,-128.34"/>
<polygon fill="midnightblue" stroke="midnightblue" points="63.87,-124.87 53.38,-126.4 62.53,-131.74 63.87,-124.87"/>
</g>
<!-- Node12&#45;&gt;Node5 -->
<g id="edge23" class="edge">
<title>Node12&#45;&gt;Node5</title>
<path fill="none" stroke="midnightblue" d="M329.13,-168.32C344.09,-159.82 367.13,-146.73 384.6,-136.8"/>
<polygon fill="midnightblue" stroke="midnightblue" points="386.68,-139.64 393.65,-131.65 383.22,-133.55 386.68,-139.64"/>
</g>
<!-- Node12&#45;&gt;Node7 -->
<g id="edge24" class="edge">
<title>Node12&#45;&gt;Node7</title>
<path fill="none" stroke="midnightblue" d="M343.08,-170.91C386.45,-161.87 468.51,-144.76 521.92,-133.62"/>
<polygon fill="midnightblue" stroke="midnightblue" points="522.79,-137.02 531.87,-131.55 521.36,-130.16 522.79,-137.02"/>
</g>
<!-- Node13 -->
<g id="node13" class="node">
<title>Node13</title>
<g id="a_node13"><a xlink:title=" ">
<polygon fill="none" stroke="#bfbfbf" points="291.87,-0.5 291.87,-19.5 335.87,-19.5 335.87,-0.5 291.87,-0.5"/>
<text text-anchor="middle" x="313.87" y="-7.5" font-family="Helvetica,sans-Serif" font-size="10.00">vector</text>
</a>
</g>
</g>
<!-- Node12&#45;&gt;Node13 -->
<g id="edge15" class="edge">
<title>Node12&#45;&gt;Node13</title>
<path fill="none" stroke="midnightblue" d="M313.87,-168.08C313.87,-141.95 313.87,-65.21 313.87,-29.58"/>
<polygon fill="midnightblue" stroke="midnightblue" points="317.37,-29.57 313.87,-19.57 310.37,-29.57 317.37,-29.57"/>
</g>
<!-- Node12&#45;&gt;Node14 -->
<g id="edge17" class="edge">
<title>Node12&#45;&gt;Node14</title>
<path fill="none" stroke="midnightblue" d="M286.78,-168.44C257.88,-159.32 211.95,-144.81 179.77,-134.65"/>
<polygon fill="midnightblue" stroke="midnightblue" points="180.43,-131.19 169.84,-131.52 178.32,-137.87 180.43,-131.19"/>
</g>
<!-- Node12&#45;&gt;Node16 -->
<g id="edge22" class="edge">
<title>Node12&#45;&gt;Node16</title>
<path fill="none" stroke="midnightblue" d="M307.83,-168.37C295.12,-150.22 265.43,-107.8 248.76,-83.99"/>
<polygon fill="midnightblue" stroke="midnightblue" points="251.49,-81.78 242.89,-75.59 245.75,-85.79 251.49,-81.78"/>
</g>
<!-- Node15 -->
<g id="node15" class="node">
<title>Node15</title>
<g id="a_node15"><a xlink:title=" ">
<polygon fill="none" stroke="#bfbfbf" points="174.37,-0.5 174.37,-19.5 215.37,-19.5 215.37,-0.5 174.37,-0.5"/>
<text text-anchor="middle" x="194.87" y="-7.5" font-family="Helvetica,sans-Serif" font-size="10.00">string</text>
</a>
</g>
</g>
<!-- Node14&#45;&gt;Node15 -->
<g id="edge18" class="edge">
<title>Node14&#45;&gt;Node15</title>
<path fill="none" stroke="midnightblue" d="M146.95,-112.37C155.42,-94.46 175.05,-52.92 186.39,-28.95"/>
<polygon fill="midnightblue" stroke="midnightblue" points="189.7,-30.13 190.81,-19.59 183.37,-27.14 189.7,-30.13"/>
</g>
<!-- Node14&#45;&gt;Node16 -->
<g id="edge19" class="edge">
<title>Node14&#45;&gt;Node16</title>
<path fill="none" stroke="midnightblue" d="M157.97,-112.32C172.77,-103.82 195.57,-90.73 212.85,-80.8"/>
<polygon fill="midnightblue" stroke="midnightblue" points="214.88,-83.67 221.81,-75.65 211.39,-77.6 214.88,-83.67"/>
</g>
<!-- Node16&#45;&gt;Node13 -->
<g id="edge20" class="edge">
<title>Node16&#45;&gt;Node13</title>
<path fill="none" stroke="midnightblue" d="M249.24,-56.32C261.03,-48.06 279,-35.45 293.01,-25.63"/>
<polygon fill="midnightblue" stroke="midnightblue" points="295.35,-28.26 301.53,-19.65 291.33,-22.53 295.35,-28.26"/>
</g>
<!-- Node16&#45;&gt;Node15 -->
<g id="edge21" class="edge">
<title>Node16&#45;&gt;Node15</title>
<path fill="none" stroke="midnightblue" d="M229.94,-56.08C223.94,-48.38 215.12,-37.03 207.82,-27.65"/>
<polygon fill="midnightblue" stroke="midnightblue" points="210.58,-25.5 201.68,-19.75 205.05,-29.79 210.58,-25.5"/>
</g>
<!-- Node17&#45;&gt;Node5 -->
<g id="edge28" class="edge">
<title>Node17&#45;&gt;Node5</title>
<path fill="none" stroke="midnightblue" d="M531.43,-224.37C508.9,-205.73 455.46,-161.53 427.17,-138.13"/>
<polygon fill="midnightblue" stroke="midnightblue" points="429.2,-135.27 419.26,-131.59 424.73,-140.66 429.2,-135.27"/>
</g>
<!-- Node17&#45;&gt;Node7 -->
<g id="edge29" class="edge">
<title>Node17&#45;&gt;Node7</title>
<path fill="none" stroke="midnightblue" d="M550.89,-224.34C558.94,-215.93 570.17,-202.36 574.87,-188 579.76,-173.06 578.74,-155.15 576.79,-141.91"/>
<polygon fill="midnightblue" stroke="midnightblue" points="580.17,-140.91 574.97,-131.68 573.28,-142.14 580.17,-140.91"/>
</g>
<!-- Node17&#45;&gt;Node12 -->
<g id="edge27" class="edge">
<title>Node17&#45;&gt;Node12</title>
<path fill="none" stroke="midnightblue" d="M505.74,-224.44C464.01,-214.56 395.61,-198.36 352.75,-188.21"/>
<polygon fill="midnightblue" stroke="midnightblue" points="353.49,-184.79 342.96,-185.89 351.88,-191.6 353.49,-184.79"/>
</g>
<!-- Node18 -->
<g id="node18" class="node">
<title>Node18</title>
<g id="a_node18"><a xlink:title=" ">
<polygon fill="none" stroke="#bfbfbf" points="659.87,-112.5 659.87,-131.5 705.87,-131.5 705.87,-112.5 659.87,-112.5"/>
<text text-anchor="middle" x="682.87" y="-119.5" font-family="Helvetica,sans-Serif" font-size="10.00">math.h</text>
</a>
</g>
</g>
<!-- Node17&#45;&gt;Node18 -->
<g id="edge26" class="edge">
<title>Node17&#45;&gt;Node18</title>
<path fill="none" stroke="midnightblue" d="M552.94,-224.37C576.92,-205.65 633.97,-161.15 663.86,-137.83"/>
<polygon fill="midnightblue" stroke="midnightblue" points="666.13,-140.5 671.86,-131.59 661.82,-134.98 666.13,-140.5"/>
</g>
<!-- Node19&#45;&gt;Node5 -->
<g id="edge31" class="edge">
<title>Node19&#45;&gt;Node5</title>
<path fill="none" stroke="midnightblue" d="M327.78,-224.37C342.36,-206.14 376.53,-163.43 395.53,-139.68"/>
<polygon fill="midnightblue" stroke="midnightblue" points="398.48,-141.59 402,-131.59 393.02,-137.21 398.48,-141.59"/>
</g>
<!-- Node19&#45;&gt;Node7 -->
<g id="edge32" class="edge">
<title>Node19&#45;&gt;Node7</title>
<path fill="none" stroke="midnightblue" d="M340.65,-224.37C384.9,-205.05 492.1,-158.26 543.9,-135.65"/>
<polygon fill="midnightblue" stroke="midnightblue" points="545.42,-138.8 553.19,-131.59 542.62,-132.38 545.42,-138.8"/>
</g>
<!-- Node19&#45;&gt;Node12 -->
<g id="edge33" class="edge">
<title>Node19&#45;&gt;Node12</title>
<path fill="none" stroke="midnightblue" d="M319.72,-224.08C318.79,-216.93 317.45,-206.64 316.29,-197.69"/>
<polygon fill="midnightblue" stroke="midnightblue" points="319.76,-197.22 315.01,-187.75 312.82,-198.12 319.76,-197.22"/>
</g>
<!-- Node20&#45;&gt;Node5 -->
<g id="edge35" class="edge">
<title>Node20&#45;&gt;Node5</title>
<path fill="none" stroke="midnightblue" d="M630.04,-224.37C587.98,-205.09 486.22,-158.45 436.78,-135.79"/>
<polygon fill="midnightblue" stroke="midnightblue" points="438.16,-132.58 427.62,-131.59 435.25,-138.94 438.16,-132.58"/>
</g>
<!-- Node20&#45;&gt;Node7 -->
<g id="edge36" class="edge">
<title>Node20&#45;&gt;Node7</title>
<path fill="none" stroke="midnightblue" d="M642.91,-224.37C630.37,-206.22 601.06,-163.8 584.61,-139.99"/>
<polygon fill="midnightblue" stroke="midnightblue" points="587.37,-137.83 578.81,-131.59 581.61,-141.81 587.37,-137.83"/>
</g>
<!-- Node20&#45;&gt;Node12 -->
<g id="edge37" class="edge">
<title>Node20&#45;&gt;Node12</title>
<path fill="none" stroke="midnightblue" d="M602.66,-225.43C599.69,-224.94 596.74,-224.46 593.87,-224 507.99,-210.07 407.25,-193.93 353.09,-185.27"/>
<polygon fill="midnightblue" stroke="midnightblue" points="353.32,-181.76 342.9,-183.64 352.22,-188.67 353.32,-181.76"/>
</g>
<!-- Node21 -->
<g id="node21" class="node">
<title>Node21</title>
<g id="a_node21"><a xlink:href="timedependentparameter_8hpp.html" target="_top" xlink:title="MODEL::TimeDependentParameter source file.">
<polygon fill="none" stroke="black" points="765.87,-168.5 765.87,-187.5 907.87,-187.5 907.87,-168.5 765.87,-168.5"/>
<text text-anchor="middle" x="836.87" y="-175.5" font-family="Helvetica,sans-Serif" font-size="10.00">timedependentparameter.hpp</text>
</a>
</g>
</g>
<!-- Node20&#45;&gt;Node21 -->
<g id="edge38" class="edge">
<title>Node20&#45;&gt;Node21</title>
<path fill="none" stroke="midnightblue" d="M678.66,-224.44C710.7,-215.24 761.8,-200.56 797.22,-190.39"/>
<polygon fill="midnightblue" stroke="midnightblue" points="798.58,-193.64 807.22,-187.52 796.64,-186.91 798.58,-193.64"/>
</g>
<!-- Node21&#45;&gt;Node13 -->
<g id="edge40" class="edge">
<title>Node21&#45;&gt;Node13</title>
<path fill="none" stroke="midnightblue" d="M837.15,-168.1C837.12,-154.65 835.28,-128.95 822.87,-112 793.24,-71.52 772.58,-71.5 724.87,-56 654.4,-33.11 430.29,-17.87 346.18,-12.83"/>
<polygon fill="midnightblue" stroke="midnightblue" points="346.14,-9.32 335.95,-12.23 345.73,-16.31 346.14,-9.32"/>
</g>
<!-- Node21&#45;&gt;Node16 -->
<g id="edge42" class="edge">
<title>Node21&#45;&gt;Node16</title>
<path fill="none" stroke="midnightblue" d="M820.84,-168.24C789.02,-150.89 720.5,-113.69 714.87,-112 674.66,-99.93 401.71,-78.99 287.24,-70.61"/>
<polygon fill="midnightblue" stroke="midnightblue" points="287.22,-67.1 276.99,-69.87 286.71,-74.08 287.22,-67.1"/>
</g>
<!-- Node21&#45;&gt;Node18 -->
<g id="edge39" class="edge">
<title>Node21&#45;&gt;Node18</title>
<path fill="none" stroke="midnightblue" d="M812.47,-168.44C786.37,-159.29 744.83,-144.73 715.84,-134.56"/>
<polygon fill="midnightblue" stroke="midnightblue" points="716.75,-131.17 706.15,-131.16 714.43,-137.77 716.75,-131.17"/>
</g>
<!-- Node22 -->
<g id="node22" class="node">
<title>Node22</title>
<g id="a_node22"><a xlink:title=" ">
<polygon fill="none" stroke="#bfbfbf" points="762.37,-112.5 762.37,-131.5 813.37,-131.5 813.37,-112.5 762.37,-112.5"/>
<text text-anchor="middle" x="787.87" y="-119.5" font-family="Helvetica,sans-Serif" font-size="10.00">numeric</text>
</a>
</g>
</g>
<!-- Node21&#45;&gt;Node22 -->
<g id="edge41" class="edge">
<title>Node21&#45;&gt;Node22</title>
<path fill="none" stroke="midnightblue" d="M828.78,-168.08C821.72,-160.3 811.28,-148.8 802.72,-139.37"/>
<polygon fill="midnightblue" stroke="midnightblue" points="805.12,-136.8 795.81,-131.75 799.94,-141.51 805.12,-136.8"/>
</g>
</g>
</svg>
