<?xml version="1.0" encoding="UTF-8" standalone="no"?>
<!DOCTYPE svg PUBLIC "-//W3C//DTD SVG 1.1//EN"
 "http://www.w3.org/Graphics/SVG/1.1/DTD/svg11.dtd">
<!-- Generated by graphviz version 3.0.0 (20220413.0242)
 -->
<!-- Title: model/model.hpp Pages: 1 -->
<svg width="1102pt" height="364pt"
 viewBox="0.00 0.00 1101.71 364.00" xmlns="http://www.w3.org/2000/svg" xmlns:xlink="http://www.w3.org/1999/xlink">
<g id="graph0" class="graph" transform="scale(1 1) rotate(0) translate(4 360)">
<title>model/model.hpp</title>
<!-- Node1 -->
<g id="node1" class="node">
<title>Node1</title>
<g id="a_node1"><a xlink:title="MODEL::Model source file.">
<polygon fill="#bfbfbf" stroke="black" points="455,-336.5 455,-355.5 545,-355.5 545,-336.5 455,-336.5"/>
<text text-anchor="middle" x="500" y="-343.5" font-family="Helvetica,sans-Serif" font-size="10.00">model/model.hpp</text>
</a>
</g>
</g>
<!-- Node2 -->
<g id="node2" class="node">
<title>Node2</title>
<g id="a_node2"><a xlink:href="integrator_8hpp.html" target="_top" xlink:title="ALGEBRA::Integrator source file.">
<polygon fill="none" stroke="black" points="57,-224.5 57,-243.5 167,-243.5 167,-224.5 57,-224.5"/>
<text text-anchor="middle" x="112" y="-231.5" font-family="Helvetica,sans-Serif" font-size="10.00">algebra/integrator.hpp</text>
</a>
</g>
</g>
<!-- Node1&#45;&gt;Node2 -->
<g id="edge1" class="edge">
<title>Node1&#45;&gt;Node2</title>
<path fill="none" stroke="midnightblue" d="M459.95,-333.65C381.97,-311.54 211.35,-263.17 142.1,-243.53"/>
<polygon fill="midnightblue" stroke="midnightblue" points="459.3,-337.1 469.88,-336.46 461.21,-330.37 459.3,-337.1"/>
</g>
<!-- Node3 -->
<g id="node3" class="node">
<title>Node3</title>
<g id="a_node3"><a xlink:href="main_8hpp.html" target="_top" xlink:title="Main page documentation.">
<polygon fill="none" stroke="black" points="266,-56.5 266,-75.5 322,-75.5 322,-56.5 266,-56.5"/>
<text text-anchor="middle" x="294" y="-63.5" font-family="Helvetica,sans-Serif" font-size="10.00">main.hpp</text>
</a>
</g>
</g>
<!-- Node1&#45;&gt;Node3 -->
<g id="edge34" class="edge">
<title>Node1&#45;&gt;Node3</title>
<path fill="none" stroke="midnightblue" d="M444.59,-344.41C314.41,-341.52 0,-325.22 0,-235 0,-235 0,-235 0,-177 0,-127.66 44.97,-132.18 90,-112 149.24,-85.45 225.38,-74.03 265.81,-69.56"/>
<polygon fill="midnightblue" stroke="midnightblue" points="444.68,-347.91 454.75,-344.61 444.82,-340.91 444.68,-347.91"/>
</g>
<!-- Node6 -->
<g id="node6" class="node">
<title>Node6</title>
<g id="a_node6"><a xlink:href="sparsesystem_8hpp.html" target="_top" xlink:title="ALGEBRA::SparseSystem source file.">
<polygon fill="none" stroke="black" points="435,-280.5 435,-299.5 565,-299.5 565,-280.5 435,-280.5"/>
<text text-anchor="middle" x="500" y="-287.5" font-family="Helvetica,sans-Serif" font-size="10.00">algebra/sparsesystem.hpp</text>
</a>
</g>
</g>
<!-- Node1&#45;&gt;Node6 -->
<g id="edge5" class="edge">
<title>Node1&#45;&gt;Node6</title>
<path fill="none" stroke="midnightblue" d="M493.53,-326.1C492.9,-317.14 493.34,-306.86 494.87,-299.75"/>
<polygon fill="midnightblue" stroke="midnightblue" points="490.07,-326.62 494.83,-336.08 497.01,-325.71 490.07,-326.62"/>
</g>
<!-- Node9 -->
<g id="node9" class="node">
<title>Node9</title>
<g id="a_node9"><a xlink:href="configreader_8hpp.html" target="_top" xlink:title="IO::ConfigReader source file.">
<polygon fill="none" stroke="black" points="501,-112.5 501,-131.5 599,-131.5 599,-112.5 501,-112.5"/>
<text text-anchor="middle" x="550" y="-119.5" font-family="Helvetica,sans-Serif" font-size="10.00">io/configreader.hpp</text>
</a>
</g>
</g>
<!-- Node1&#45;&gt;Node9 -->
<g id="edge31" class="edge">
<title>Node1&#45;&gt;Node9</title>
<path fill="none" stroke="midnightblue" d="M555.34,-338.3C686.4,-321.19 1009.5,-271.24 1073,-188 1078.39,-180.93 1079.01,-174.55 1073,-168 1057.09,-150.67 726.55,-132.02 599.32,-125.45"/>
<polygon fill="midnightblue" stroke="midnightblue" points="554.59,-334.87 545.12,-339.62 555.49,-341.81 554.59,-334.87"/>
</g>
<!-- Node16 -->
<g id="node16" class="node">
<title>Node16</title>
<g id="a_node16"><a xlink:href="csvwriter_8hpp.html" target="_top" xlink:title="IO::write_csv source file.">
<polygon fill="none" stroke="black" points="852.5,-112.5 852.5,-131.5 937.5,-131.5 937.5,-112.5 852.5,-112.5"/>
<text text-anchor="middle" x="895" y="-119.5" font-family="Helvetica,sans-Serif" font-size="10.00">io/csvwriter.hpp</text>
</a>
</g>
</g>
<!-- Node1&#45;&gt;Node16 -->
<g id="edge32" class="edge">
<title>Node1&#45;&gt;Node16</title>
<path fill="none" stroke="midnightblue" d="M555.17,-345.07C654.72,-342.96 868.43,-328.07 1023,-244 1057.09,-225.46 1073.56,-223.16 1090,-188 1093.76,-179.95 1095.53,-174.96 1090,-168 1071.34,-144.55 989.29,-132.27 937.75,-126.75"/>
<polygon fill="midnightblue" stroke="midnightblue" points="554.97,-341.57 545.03,-345.25 555.09,-348.57 554.97,-341.57"/>
</g>
<!-- Node2&#45;&gt;Node3 -->
<g id="edge2" class="edge">
<title>Node2&#45;&gt;Node3</title>
<path fill="none" stroke="midnightblue" d="M86.59,-219.19C66.75,-206.53 44.49,-186.93 57,-168 104.35,-96.36 213.99,-75.37 265.85,-69.35"/>
<polygon fill="midnightblue" stroke="midnightblue" points="85.03,-222.33 95.4,-224.49 88.63,-216.33 85.03,-222.33"/>
</g>
<!-- Node4 -->
<g id="node4" class="node">
<title>Node4</title>
<g id="a_node4"><a xlink:href="main_8cpp.html" target="_top" xlink:title="Main routine of svZeroDSolver.">
<polygon fill="none" stroke="black" points="227,-0.5 227,-19.5 283,-19.5 283,-0.5 227,-0.5"/>
<text text-anchor="middle" x="255" y="-7.5" font-family="Helvetica,sans-Serif" font-size="10.00">main.cpp</text>
</a>
</g>
</g>
<!-- Node3&#45;&gt;Node4 -->
<g id="edge3" class="edge">
<title>Node3&#45;&gt;Node4</title>
<path fill="none" stroke="midnightblue" d="M281.62,-47.86C274.86,-38.5 266.79,-27.33 261.32,-19.75"/>
<polygon fill="midnightblue" stroke="midnightblue" points="278.87,-50.03 287.56,-56.08 284.54,-45.93 278.87,-50.03"/>
</g>
<!-- Node5 -->
<g id="node5" class="node">
<title>Node5</title>
<g id="a_node5"><a xlink:href="python_8cpp.html" target="_top" xlink:title="Python binding for svZeroDSolver.">
<polygon fill="none" stroke="black" points="301.5,-0.5 301.5,-19.5 364.5,-19.5 364.5,-0.5 301.5,-0.5"/>
<text text-anchor="middle" x="333" y="-7.5" font-family="Helvetica,sans-Serif" font-size="10.00">python.cpp</text>
</a>
</g>
</g>
<!-- Node3&#45;&gt;Node5 -->
<g id="edge4" class="edge">
<title>Node3&#45;&gt;Node5</title>
<path fill="none" stroke="midnightblue" d="M306.38,-47.86C313.14,-38.5 321.21,-27.33 326.68,-19.75"/>
<polygon fill="midnightblue" stroke="midnightblue" points="303.46,-45.93 300.44,-56.08 309.13,-50.03 303.46,-45.93"/>
</g>
<!-- Node6&#45;&gt;Node1 -->
<g id="edge26" class="edge">
<title>Node6&#45;&gt;Node1</title>
<path fill="none" stroke="midnightblue" d="M506.46,-309.69C507.11,-318.64 506.68,-328.93 505.17,-336.08"/>
<polygon fill="midnightblue" stroke="midnightblue" points="509.92,-309.2 505.13,-299.75 502.98,-310.13 509.92,-309.2"/>
</g>
<!-- Node7 -->
<g id="node7" class="node">
<title>Node7</title>
<g id="a_node7"><a xlink:href="block_8hpp.html" target="_top" xlink:title="MODEL::Block source file.">
<polygon fill="none" stroke="black" points="528.5,-224.5 528.5,-243.5 615.5,-243.5 615.5,-224.5 528.5,-224.5"/>
<text text-anchor="middle" x="572" y="-231.5" font-family="Helvetica,sans-Serif" font-size="10.00">model/block.hpp</text>
</a>
</g>
</g>
<!-- Node6&#45;&gt;Node7 -->
<g id="edge6" class="edge">
<title>Node6&#45;&gt;Node7</title>
<path fill="none" stroke="midnightblue" d="M519.87,-274.1C532.82,-264.38 549.3,-252.03 560.22,-243.83"/>
<polygon fill="midnightblue" stroke="midnightblue" points="517.47,-271.52 511.57,-280.32 521.67,-277.12 517.47,-271.52"/>
</g>
<!-- Node8 -->
<g id="node8" class="node">
<title>Node8</title>
<g id="a_node8"><a xlink:href="bloodvessel_8hpp.html" target="_top" xlink:title="MODEL::BloodVessel source file.">
<polygon fill="none" stroke="black" points="350,-168.5 350,-187.5 466,-187.5 466,-168.5 350,-168.5"/>
<text text-anchor="middle" x="408" y="-175.5" font-family="Helvetica,sans-Serif" font-size="10.00">model/bloodvessel.hpp</text>
</a>
</g>
</g>
<!-- Node6&#45;&gt;Node8 -->
<g id="edge23" class="edge">
<title>Node6&#45;&gt;Node8</title>
<path fill="none" stroke="midnightblue" d="M486.27,-272.59C466.44,-248.87 430.47,-205.87 415.19,-187.59"/>
<polygon fill="midnightblue" stroke="midnightblue" points="483.68,-274.94 492.78,-280.37 489.05,-270.45 483.68,-274.94"/>
</g>
<!-- Node10 -->
<g id="node10" class="node">
<title>Node10</title>
<g id="a_node10"><a xlink:href="flowreferencebc_8hpp.html" target="_top" xlink:title="MODEL::FlowReferenceBC source file.">
<polygon fill="none" stroke="black" points="484,-168.5 484,-187.5 616,-187.5 616,-168.5 484,-168.5"/>
<text text-anchor="middle" x="550" y="-175.5" font-family="Helvetica,sans-Serif" font-size="10.00">model/flowreferencebc.hpp</text>
</a>
</g>
</g>
<!-- Node6&#45;&gt;Node10 -->
<g id="edge24" class="edge">
<title>Node6&#45;&gt;Node10</title>
<path fill="none" stroke="midnightblue" d="M503.77,-270.39C506.87,-257.07 511.9,-238.93 519,-224 525.44,-210.46 535.74,-196.49 542.68,-187.78"/>
<polygon fill="midnightblue" stroke="midnightblue" points="500.33,-269.75 501.63,-280.27 507.17,-271.24 500.33,-269.75"/>
</g>
<!-- Node11 -->
<g id="node11" class="node">
<title>Node11</title>
<g id="a_node11"><a xlink:href="junction_8hpp.html" target="_top" xlink:title="MODEL::Junction source file.">
<polygon fill="none" stroke="black" points="66,-168.5 66,-187.5 164,-187.5 164,-168.5 66,-168.5"/>
<text text-anchor="middle" x="115" y="-175.5" font-family="Helvetica,sans-Serif" font-size="10.00">model/junction.hpp</text>
</a>
</g>
</g>
<!-- Node6&#45;&gt;Node11 -->
<g id="edge25" class="edge">
<title>Node6&#45;&gt;Node11</title>
<path fill="none" stroke="midnightblue" d="M460.26,-277.65C382.89,-255.54 213.58,-207.17 144.87,-187.53"/>
<polygon fill="midnightblue" stroke="midnightblue" points="459.53,-281.08 470.11,-280.46 461.46,-274.35 459.53,-281.08"/>
</g>
<!-- Node12 -->
<g id="node12" class="node">
<title>Node12</title>
<g id="a_node12"><a xlink:href="openloopcoronarybc_8hpp.html" target="_top" xlink:title="MODEL::OpenLoopCoronaryBC source file.">
<polygon fill="none" stroke="black" points="182,-168.5 182,-187.5 332,-187.5 332,-168.5 182,-168.5"/>
<text text-anchor="middle" x="257" y="-175.5" font-family="Helvetica,sans-Serif" font-size="10.00">model/openloopcoronarybc.hpp</text>
</a>
</g>
</g>
<!-- Node6&#45;&gt;Node12 -->
<g id="edge27" class="edge">
<title>Node6&#45;&gt;Node12</title>
<path fill="none" stroke="midnightblue" d="M471.64,-276.16C421.5,-253.47 318.48,-206.83 275.98,-187.59"/>
<polygon fill="midnightblue" stroke="midnightblue" points="470.38,-279.43 480.93,-280.37 473.27,-273.06 470.38,-279.43"/>
</g>
<!-- Node13 -->
<g id="node13" class="node">
<title>Node13</title>
<g id="a_node13"><a xlink:href="pressurereferencebc_8hpp.html" target="_top" xlink:title="MODEL::PressureReferenceBC source file.">
<polygon fill="none" stroke="black" points="634,-168.5 634,-187.5 786,-187.5 786,-168.5 634,-168.5"/>
<text text-anchor="middle" x="710" y="-175.5" font-family="Helvetica,sans-Serif" font-size="10.00">model/pressurereferencebc.hpp</text>
</a>
</g>
</g>
<!-- Node6&#45;&gt;Node13 -->
<g id="edge28" class="edge">
<title>Node6&#45;&gt;Node13</title>
<path fill="none" stroke="midnightblue" d="M541.24,-277.45C566.02,-269.69 597.74,-258.27 624,-244 654.26,-227.56 685.45,-201.17 700.6,-187.63"/>
<polygon fill="midnightblue" stroke="midnightblue" points="539.97,-274.18 531.42,-280.45 542.01,-280.87 539.97,-274.18"/>
</g>
<!-- Node14 -->
<g id="node14" class="node">
<title>Node14</title>
<g id="a_node14"><a xlink:href="resistancebc_8hpp.html" target="_top" xlink:title="MODEL::ResistanceBC source file.">
<polygon fill="none" stroke="black" points="804.5,-168.5 804.5,-187.5 923.5,-187.5 923.5,-168.5 804.5,-168.5"/>
<text text-anchor="middle" x="864" y="-175.5" font-family="Helvetica,sans-Serif" font-size="10.00">model/resistancebc.hpp</text>
</a>
</g>
</g>
<!-- Node6&#45;&gt;Node14 -->
<g id="edge29" class="edge">
<title>Node6&#45;&gt;Node14</title>
<path fill="none" stroke="midnightblue" d="M539.32,-277.59C570.25,-268.57 614.41,-255.62 653,-244 719.07,-224.11 796.54,-200.05 836.72,-187.53"/>
<polygon fill="midnightblue" stroke="midnightblue" points="537.99,-274.33 529.36,-280.48 539.94,-281.05 537.99,-274.33"/>
</g>
<!-- Node15 -->
<g id="node15" class="node">
<title>Node15</title>
<g id="a_node15"><a xlink:href="windkesselbc_8hpp.html" target="_top" xlink:title="MODEL::WindkesselBC source file.">
<polygon fill="none" stroke="black" points="941.5,-168.5 941.5,-187.5 1064.5,-187.5 1064.5,-168.5 941.5,-168.5"/>
<text text-anchor="middle" x="1003" y="-175.5" font-family="Helvetica,sans-Serif" font-size="10.00">model/windkesselbc.hpp</text>
</a>
</g>
</g>
<!-- Node6&#45;&gt;Node15 -->
<g id="edge30" class="edge">
<title>Node6&#45;&gt;Node15</title>
<path fill="none" stroke="midnightblue" d="M548.86,-278.31C648.48,-256.53 873.28,-207.37 963.97,-187.53"/>
<polygon fill="midnightblue" stroke="midnightblue" points="548.07,-274.9 539.05,-280.46 549.57,-281.74 548.07,-274.9"/>
</g>
<!-- Node7&#45;&gt;Node1 -->
<g id="edge14" class="edge">
<title>Node7&#45;&gt;Node1</title>
<path fill="none" stroke="midnightblue" d="M577.41,-253.41C580.35,-267.14 581.95,-285.87 574,-300 563.98,-317.82 543.72,-329.41 526.93,-336.36"/>
<polygon fill="midnightblue" stroke="midnightblue" points="580.79,-252.49 574.93,-243.66 574.01,-254.22 580.79,-252.49"/>
</g>
<!-- Node7&#45;&gt;Node8 -->
<g id="edge7" class="edge">
<title>Node7&#45;&gt;Node8</title>
<path fill="none" stroke="midnightblue" d="M536.48,-221.3C505.58,-211.13 461.53,-196.62 433.86,-187.52"/>
<polygon fill="midnightblue" stroke="midnightblue" points="535.42,-224.64 546.01,-224.44 537.61,-217.99 535.42,-224.64"/>
</g>
<!-- Node7&#45;&gt;Node10 -->
<g id="edge10" class="edge">
<title>Node7&#45;&gt;Node10</title>
<path fill="none" stroke="midnightblue" d="M564.54,-214.69C560.83,-205.59 556.52,-195.01 553.57,-187.75"/>
<polygon fill="midnightblue" stroke="midnightblue" points="561.35,-216.14 568.37,-224.08 567.84,-213.5 561.35,-216.14"/>
</g>
<!-- Node7&#45;&gt;Node11 -->
<g id="edge12" class="edge">
<title>Node7&#45;&gt;Node11</title>
<path fill="none" stroke="midnightblue" d="M517.86,-227.62C441.04,-219.81 296.07,-204.48 173,-188 170.07,-187.61 167.06,-187.19 164.03,-186.75"/>
<polygon fill="midnightblue" stroke="midnightblue" points="517.93,-231.14 528.24,-228.67 518.64,-224.18 517.93,-231.14"/>
</g>
<!-- Node7&#45;&gt;Node12 -->
<g id="edge15" class="edge">
<title>Node7&#45;&gt;Node12</title>
<path fill="none" stroke="midnightblue" d="M518.28,-223.79C458.97,-213.62 364.28,-197.39 306.65,-187.51"/>
<polygon fill="midnightblue" stroke="midnightblue" points="517.75,-227.25 528.2,-225.49 518.94,-220.35 517.75,-227.25"/>
</g>
<!-- Node7&#45;&gt;Node13 -->
<g id="edge17" class="edge">
<title>Node7&#45;&gt;Node13</title>
<path fill="none" stroke="midnightblue" d="M603.25,-220.77C629.17,-210.63 665.36,-196.47 688.24,-187.52"/>
<polygon fill="midnightblue" stroke="midnightblue" points="601.9,-217.54 593.87,-224.44 604.45,-224.06 601.9,-217.54"/>
</g>
<!-- Node7&#45;&gt;Node14 -->
<g id="edge19" class="edge">
<title>Node7&#45;&gt;Node14</title>
<path fill="none" stroke="midnightblue" d="M625.63,-223.08C680.64,-212.91 765.34,-197.25 817.57,-187.59"/>
<polygon fill="midnightblue" stroke="midnightblue" points="624.91,-219.66 615.72,-224.92 626.19,-226.54 624.91,-219.66"/>
</g>
<!-- Node7&#45;&gt;Node15 -->
<g id="edge21" class="edge">
<title>Node7&#45;&gt;Node15</title>
<path fill="none" stroke="midnightblue" d="M625.45,-226.35C695.76,-217.59 823.15,-201.7 932,-188 935.08,-187.61 938.24,-187.21 941.43,-186.81"/>
<polygon fill="midnightblue" stroke="midnightblue" points="624.99,-222.88 615.5,-227.59 625.86,-229.82 624.99,-222.88"/>
</g>
<!-- Node8&#45;&gt;Node9 -->
<g id="edge8" class="edge">
<title>Node8&#45;&gt;Node9</title>
<path fill="none" stroke="midnightblue" d="M440.16,-164.77C466.83,-154.63 504.07,-140.47 527.6,-131.52"/>
<polygon fill="midnightblue" stroke="midnightblue" points="438.6,-161.62 430.5,-168.44 441.09,-168.16 438.6,-161.62"/>
</g>
<!-- Node9&#45;&gt;Node3 -->
<g id="edge9" class="edge">
<title>Node9&#45;&gt;Node3</title>
<path fill="none" stroke="midnightblue" d="M499.54,-110.36C446.44,-99.16 364.76,-81.93 322.12,-72.93"/>
<polygon fill="midnightblue" stroke="midnightblue" points="498.93,-113.8 509.44,-112.44 500.37,-106.95 498.93,-113.8"/>
</g>
<!-- Node10&#45;&gt;Node9 -->
<g id="edge11" class="edge">
<title>Node10&#45;&gt;Node9</title>
<path fill="none" stroke="midnightblue" d="M550,-157.8C550,-148.91 550,-138.78 550,-131.75"/>
<polygon fill="midnightblue" stroke="midnightblue" points="546.5,-158.08 550,-168.08 553.5,-158.08 546.5,-158.08"/>
</g>
<!-- Node11&#45;&gt;Node9 -->
<g id="edge13" class="edge">
<title>Node11&#45;&gt;Node9</title>
<path fill="none" stroke="midnightblue" d="M174.05,-167.9C297.64,-151.07 430.69,-136.01 500.83,-128.31"/>
<polygon fill="midnightblue" stroke="midnightblue" points="173.46,-164.44 164.03,-169.27 174.41,-171.38 173.46,-164.44"/>
</g>
<!-- Node12&#45;&gt;Node9 -->
<g id="edge16" class="edge">
<title>Node12&#45;&gt;Node9</title>
<path fill="none" stroke="midnightblue" d="M313.43,-166.6C368.8,-156.4 452.23,-141.02 503.79,-131.52"/>
<polygon fill="midnightblue" stroke="midnightblue" points="312.63,-163.19 303.43,-168.44 313.9,-170.07 312.63,-163.19"/>
</g>
<!-- Node13&#45;&gt;Node9 -->
<g id="edge18" class="edge">
<title>Node13&#45;&gt;Node9</title>
<path fill="none" stroke="midnightblue" d="M674.95,-165.17C644.83,-155 602.1,-140.59 575.23,-131.52"/>
<polygon fill="midnightblue" stroke="midnightblue" points="674.05,-168.56 684.65,-168.44 676.29,-161.93 674.05,-168.56"/>
</g>
<!-- Node14&#45;&gt;Node9 -->
<g id="edge20" class="edge">
<title>Node14&#45;&gt;Node9</title>
<path fill="none" stroke="midnightblue" d="M804.24,-166.72C744.72,-156.49 654.44,-140.96 599,-131.43"/>
<polygon fill="midnightblue" stroke="midnightblue" points="803.8,-170.2 814.25,-168.44 804.98,-163.3 803.8,-170.2"/>
</g>
<!-- Node15&#45;&gt;Node9 -->
<g id="edge22" class="edge">
<title>Node15&#45;&gt;Node9</title>
<path fill="none" stroke="midnightblue" d="M931.21,-167.91C805.15,-152.53 670,-136.82 599.16,-128.65"/>
<polygon fill="midnightblue" stroke="midnightblue" points="931.08,-171.42 941.43,-169.16 931.93,-164.47 931.08,-171.42"/>
</g>
<!-- Node16&#45;&gt;Node3 -->
<g id="edge33" class="edge">
<title>Node16&#45;&gt;Node3</title>
<path fill="none" stroke="midnightblue" d="M841.94,-116.23C718.59,-105.15 415.89,-77.95 322.14,-69.53"/>
<polygon fill="midnightblue" stroke="midnightblue" points="841.99,-119.75 852.26,-117.16 842.61,-112.78 841.99,-119.75"/>
</g>
</g>
</svg>
