<?xml version="1.0" encoding="UTF-8" standalone="no"?>
<!DOCTYPE svg PUBLIC "-//W3C//DTD SVG 1.1//EN"
 "http://www.w3.org/Graphics/SVG/1.1/DTD/svg11.dtd">
<!-- Generated by graphviz version 3.0.0 (20220413.0242)
 -->
<!-- Title: model/model.hpp Pages: 1 -->
<svg width="843pt" height="308pt"
 viewBox="0.00 0.00 842.50 308.00" xmlns="http://www.w3.org/2000/svg" xmlns:xlink="http://www.w3.org/1999/xlink">
<g id="graph0" class="graph" transform="scale(1 1) rotate(0) translate(4 304)">
<title>model/model.hpp</title>
<!-- Node1 -->
<g id="node1" class="node">
<title>Node1</title>
<g id="a_node1"><a xlink:title="MODEL::Model source file.">
<polygon fill="#bfbfbf" stroke="black" points="174.5,-280.5 174.5,-299.5 264.5,-299.5 264.5,-280.5 174.5,-280.5"/>
<text text-anchor="middle" x="219.5" y="-287.5" font-family="Helvetica,sans-Serif" font-size="10.00">model/model.hpp</text>
</a>
</g>
</g>
<!-- Node2 -->
<g id="node2" class="node">
<title>Node2</title>
<g id="a_node2"><a xlink:title=" ">
<polygon fill="none" stroke="#bfbfbf" points="0,-112.5 0,-131.5 35,-131.5 35,-112.5 0,-112.5"/>
<text text-anchor="middle" x="17.5" y="-119.5" font-family="Helvetica,sans-Serif" font-size="10.00">map</text>
</a>
</g>
</g>
<!-- Node1&#45;&gt;Node2 -->
<g id="edge1" class="edge">
<title>Node1&#45;&gt;Node2</title>
<path fill="none" stroke="midnightblue" d="M174.07,-284.65C122.91,-278.74 44.42,-266.26 25.5,-244 1.04,-215.23 6.93,-167.37 12.65,-141.3"/>
<polygon fill="midnightblue" stroke="midnightblue" points="16.05,-142.12 15,-131.58 9.25,-140.48 16.05,-142.12"/>
</g>
<!-- Node3 -->
<g id="node3" class="node">
<title>Node3</title>
<g id="a_node3"><a xlink:title=" ">
<polygon fill="none" stroke="#bfbfbf" points="35,-224.5 35,-243.5 64,-243.5 64,-224.5 35,-224.5"/>
<text text-anchor="middle" x="49.5" y="-231.5" font-family="Helvetica,sans-Serif" font-size="10.00">list</text>
</a>
</g>
</g>
<!-- Node1&#45;&gt;Node3 -->
<g id="edge2" class="edge">
<title>Node1&#45;&gt;Node3</title>
<path fill="none" stroke="midnightblue" d="M192.56,-280.44C159.93,-270.08 105.41,-252.76 73.94,-242.76"/>
<polygon fill="midnightblue" stroke="midnightblue" points="74.81,-239.37 64.22,-239.67 72.69,-246.04 74.81,-239.37"/>
</g>
<!-- Node4 -->
<g id="node4" class="node">
<title>Node4</title>
<g id="a_node4"><a xlink:href="densesystem_8hpp.html" target="_top" xlink:title="ALGEBRA::DenseSystem source file.">
<polygon fill="none" stroke="black" points="287.5,-112.5 287.5,-131.5 421.5,-131.5 421.5,-112.5 287.5,-112.5"/>
<text text-anchor="middle" x="354.5" y="-119.5" font-family="Helvetica,sans-Serif" font-size="10.00">../algebra/densesystem.hpp</text>
</a>
</g>
</g>
<!-- Node1&#45;&gt;Node4 -->
<g id="edge3" class="edge">
<title>Node1&#45;&gt;Node4</title>
<path fill="none" stroke="midnightblue" d="M210.75,-280.29C202.94,-271.84 192.05,-258.25 187.5,-244 176.3,-208.92 191.89,-191.19 220.5,-168 241.03,-151.36 267.99,-140.76 292.34,-134.06"/>
<polygon fill="midnightblue" stroke="midnightblue" points="293.43,-137.39 302.24,-131.51 291.68,-130.62 293.43,-137.39"/>
</g>
<!-- Node6 -->
<g id="node6" class="node">
<title>Node6</title>
<g id="a_node6"><a xlink:href="sparsesystem_8hpp.html" target="_top" xlink:title="ALGEBRA::SparseSystem source file.">
<polygon fill="none" stroke="black" points="441,-112.5 441,-131.5 578,-131.5 578,-112.5 441,-112.5"/>
<text text-anchor="middle" x="509.5" y="-119.5" font-family="Helvetica,sans-Serif" font-size="10.00">../algebra/sparsesystem.hpp</text>
</a>
</g>
</g>
<!-- Node1&#45;&gt;Node6 -->
<g id="edge5" class="edge">
<title>Node1&#45;&gt;Node6</title>
<path fill="none" stroke="midnightblue" d="M264.68,-287.67C370.58,-284.09 627.79,-272.52 653.5,-244 694.16,-198.91 599.8,-155.49 545.1,-135.1"/>
<polygon fill="midnightblue" stroke="midnightblue" points="545.98,-131.7 535.39,-131.56 543.59,-138.27 545.98,-131.7"/>
</g>
<!-- Node9 -->
<g id="node9" class="node">
<title>Node9</title>
<g id="a_node9"><a xlink:href="junction_8hpp.html" target="_top" xlink:title="MODEL::Junction source file.">
<polygon fill="none" stroke="black" points="362.5,-224.5 362.5,-243.5 430.5,-243.5 430.5,-224.5 362.5,-224.5"/>
<text text-anchor="middle" x="396.5" y="-231.5" font-family="Helvetica,sans-Serif" font-size="10.00">junction.hpp</text>
</a>
</g>
</g>
<!-- Node1&#45;&gt;Node9 -->
<g id="edge8" class="edge">
<title>Node1&#45;&gt;Node9</title>
<path fill="none" stroke="midnightblue" d="M247.55,-280.44C277.58,-271.28 325.41,-256.69 358.74,-246.52"/>
<polygon fill="midnightblue" stroke="midnightblue" points="360.04,-249.78 368.59,-243.52 358,-243.09 360.04,-249.78"/>
</g>
<!-- Node12 -->
<g id="node12" class="node">
<title>Node12</title>
<g id="a_node12"><a xlink:href="node_8hpp.html" target="_top" xlink:title="MODEL::Node source file.">
<polygon fill="none" stroke="black" points="64.5,-112.5 64.5,-131.5 120.5,-131.5 120.5,-112.5 64.5,-112.5"/>
<text text-anchor="middle" x="92.5" y="-119.5" font-family="Helvetica,sans-Serif" font-size="10.00">node.hpp</text>
</a>
</g>
</g>
<!-- Node1&#45;&gt;Node12 -->
<g id="edge41" class="edge">
<title>Node1&#45;&gt;Node12</title>
<path fill="none" stroke="midnightblue" d="M177.68,-280.48C156.3,-274 131.67,-262.86 116.5,-244 92.76,-214.48 90.37,-167.98 91.16,-142.06"/>
<polygon fill="midnightblue" stroke="midnightblue" points="94.67,-141.9 91.68,-131.74 87.68,-141.55 94.67,-141.9"/>
</g>
<!-- Node14 -->
<g id="node14" class="node">
<title>Node14</title>
<g id="a_node14"><a xlink:href="dofhandler_8hpp.html" target="_top" xlink:title="MODEL::DOFHandler source file.">
<polygon fill="none" stroke="black" points="146.5,-56.5 146.5,-75.5 226.5,-75.5 226.5,-56.5 146.5,-56.5"/>
<text text-anchor="middle" x="186.5" y="-63.5" font-family="Helvetica,sans-Serif" font-size="10.00">dofhandler.hpp</text>
</a>
</g>
</g>
<!-- Node1&#45;&gt;Node14 -->
<g id="edge40" class="edge">
<title>Node1&#45;&gt;Node14</title>
<path fill="none" stroke="midnightblue" d="M208.51,-280.37C199.05,-272.17 186.06,-258.92 180.5,-244 160.13,-189.39 173.22,-118.6 181.38,-85.54"/>
<polygon fill="midnightblue" stroke="midnightblue" points="184.77,-86.41 183.91,-75.85 178,-84.64 184.77,-86.41"/>
</g>
<!-- Node15 -->
<g id="node15" class="node">
<title>Node15</title>
<g id="a_node15"><a xlink:href="bloodvessel_8hpp.html" target="_top" xlink:title="MODEL::BloodVessel source file.">
<polygon fill="none" stroke="black" points="448.5,-224.5 448.5,-243.5 534.5,-243.5 534.5,-224.5 448.5,-224.5"/>
<text text-anchor="middle" x="491.5" y="-231.5" font-family="Helvetica,sans-Serif" font-size="10.00">bloodvessel.hpp</text>
</a>
</g>
</g>
<!-- Node1&#45;&gt;Node15 -->
<g id="edge22" class="edge">
<title>Node1&#45;&gt;Node15</title>
<path fill="none" stroke="midnightblue" d="M262.6,-280.44C310.35,-270.96 387.36,-255.67 438.69,-245.48"/>
<polygon fill="midnightblue" stroke="midnightblue" points="439.48,-248.9 448.6,-243.52 438.11,-242.03 439.48,-248.9"/>
</g>
<!-- Node17 -->
<g id="node17" class="node">
<title>Node17</title>
<g id="a_node17"><a xlink:href="rcrblockwithdistalpressure_8hpp.html" target="_top" xlink:title="MODEL::RCRBlockWithDistalPressure source file.">
<polygon fill="none" stroke="black" points="196.5,-224.5 196.5,-243.5 344.5,-243.5 344.5,-224.5 196.5,-224.5"/>
<text text-anchor="middle" x="270.5" y="-231.5" font-family="Helvetica,sans-Serif" font-size="10.00">rcrblockwithdistalpressure.hpp</text>
</a>
</g>
</g>
<!-- Node1&#45;&gt;Node17 -->
<g id="edge27" class="edge">
<title>Node1&#45;&gt;Node17</title>
<path fill="none" stroke="midnightblue" d="M227.92,-280.08C235.35,-272.22 246.35,-260.57 255.31,-251.08"/>
<polygon fill="midnightblue" stroke="midnightblue" points="257.91,-253.42 262.24,-243.75 252.82,-248.62 257.91,-253.42"/>
</g>
<!-- Node18 -->
<g id="node18" class="node">
<title>Node18</title>
<g id="a_node18"><a xlink:href="flowreference_8hpp.html" target="_top" xlink:title="MODEL::FlowReference source file.">
<polygon fill="none" stroke="black" points="552.5,-224.5 552.5,-243.5 644.5,-243.5 644.5,-224.5 552.5,-224.5"/>
<text text-anchor="middle" x="598.5" y="-231.5" font-family="Helvetica,sans-Serif" font-size="10.00">flowreference.hpp</text>
</a>
</g>
</g>
<!-- Node1&#45;&gt;Node18 -->
<g id="edge31" class="edge">
<title>Node1&#45;&gt;Node18</title>
<path fill="none" stroke="midnightblue" d="M264.63,-283.08C325.32,-275.05 436.86,-260.01 542.13,-244.18"/>
<polygon fill="midnightblue" stroke="midnightblue" points="542.93,-247.6 552.3,-242.64 541.89,-240.67 542.93,-247.6"/>
</g>
<!-- Node5 -->
<g id="node5" class="node">
<title>Node5</title>
<g id="a_node5"><a xlink:title=" ">
<polygon fill="none" stroke="#bfbfbf" points="319,-56.5 319,-75.5 390,-75.5 390,-56.5 319,-56.5"/>
<text text-anchor="middle" x="354.5" y="-63.5" font-family="Helvetica,sans-Serif" font-size="10.00">Eigen/Dense</text>
</a>
</g>
</g>
<!-- Node4&#45;&gt;Node5 -->
<g id="edge4" class="edge">
<title>Node4&#45;&gt;Node5</title>
<path fill="none" stroke="midnightblue" d="M354.5,-112.08C354.5,-105.01 354.5,-94.86 354.5,-85.99"/>
<polygon fill="midnightblue" stroke="midnightblue" points="358,-85.75 354.5,-75.75 351,-85.75 358,-85.75"/>
</g>
<!-- Node7 -->
<g id="node7" class="node">
<title>Node7</title>
<g id="a_node7"><a xlink:title=" ">
<polygon fill="none" stroke="#bfbfbf" points="542.5,-56.5 542.5,-75.5 616.5,-75.5 616.5,-56.5 542.5,-56.5"/>
<text text-anchor="middle" x="579.5" y="-63.5" font-family="Helvetica,sans-Serif" font-size="10.00">Eigen/Sparse</text>
</a>
</g>
</g>
<!-- Node6&#45;&gt;Node7 -->
<g id="edge6" class="edge">
<title>Node6&#45;&gt;Node7</title>
<path fill="none" stroke="midnightblue" d="M520.75,-112.32C531.3,-104.18 547.3,-91.84 559.94,-82.09"/>
<polygon fill="midnightblue" stroke="midnightblue" points="562.27,-84.71 568.05,-75.83 557.99,-79.17 562.27,-84.71"/>
</g>
<!-- Node8 -->
<g id="node8" class="node">
<title>Node8</title>
<g id="a_node8"><a xlink:title=" ">
<polygon fill="none" stroke="#bfbfbf" points="436.5,-56.5 436.5,-75.5 524.5,-75.5 524.5,-56.5 436.5,-56.5"/>
<text text-anchor="middle" x="480.5" y="-63.5" font-family="Helvetica,sans-Serif" font-size="10.00">Eigen/SparseLU</text>
</a>
</g>
</g>
<!-- Node6&#45;&gt;Node8 -->
<g id="edge7" class="edge">
<title>Node6&#45;&gt;Node8</title>
<path fill="none" stroke="midnightblue" d="M504.71,-112.08C500.74,-104.69 494.97,-93.95 490.07,-84.81"/>
<polygon fill="midnightblue" stroke="midnightblue" points="493.01,-82.91 485.2,-75.75 486.85,-86.22 493.01,-82.91"/>
</g>
<!-- Node9&#45;&gt;Node4 -->
<g id="edge9" class="edge">
<title>Node9&#45;&gt;Node4</title>
<path fill="none" stroke="midnightblue" d="M393.2,-224.37C386.37,-206.46 370.51,-164.92 361.35,-140.95"/>
<polygon fill="midnightblue" stroke="midnightblue" points="364.62,-139.69 357.78,-131.59 358.08,-142.18 364.62,-139.69"/>
</g>
<!-- Node9&#45;&gt;Node6 -->
<g id="edge10" class="edge">
<title>Node9&#45;&gt;Node6</title>
<path fill="none" stroke="midnightblue" d="M405.37,-224.37C424.35,-205.89 469.14,-162.29 493.33,-138.74"/>
<polygon fill="midnightblue" stroke="midnightblue" points="495.95,-141.07 500.67,-131.59 491.07,-136.06 495.95,-141.07"/>
</g>
<!-- Node10 -->
<g id="node10" class="node">
<title>Node10</title>
<g id="a_node10"><a xlink:href="block_8hpp.html" target="_top" xlink:title="MODEL::Block source file.">
<polygon fill="none" stroke="black" points="229.5,-168.5 229.5,-187.5 287.5,-187.5 287.5,-168.5 229.5,-168.5"/>
<text text-anchor="middle" x="258.5" y="-175.5" font-family="Helvetica,sans-Serif" font-size="10.00">block.hpp</text>
</a>
</g>
</g>
<!-- Node9&#45;&gt;Node10 -->
<g id="edge11" class="edge">
<title>Node9&#45;&gt;Node10</title>
<path fill="none" stroke="midnightblue" d="M374.63,-224.44C351.72,-215.48 315.52,-201.31 289.63,-191.18"/>
<polygon fill="midnightblue" stroke="midnightblue" points="290.85,-187.9 280.26,-187.52 288.3,-194.42 290.85,-187.9"/>
</g>
<!-- Node10&#45;&gt;Node2 -->
<g id="edge13" class="edge">
<title>Node10&#45;&gt;Node2</title>
<path fill="none" stroke="midnightblue" d="M229.22,-170.65C189.74,-162.05 117.25,-146.16 55.5,-132 52.2,-131.24 48.73,-130.44 45.3,-129.63"/>
<polygon fill="midnightblue" stroke="midnightblue" points="45.81,-126.16 35.27,-127.27 44.2,-132.97 45.81,-126.16"/>
</g>
<!-- Node10&#45;&gt;Node4 -->
<g id="edge20" class="edge">
<title>Node10&#45;&gt;Node4</title>
<path fill="none" stroke="midnightblue" d="M273.92,-168.32C289.04,-159.82 312.32,-146.73 329.97,-136.8"/>
<polygon fill="midnightblue" stroke="midnightblue" points="332.11,-139.61 339.11,-131.65 328.68,-133.51 332.11,-139.61"/>
</g>
<!-- Node10&#45;&gt;Node6 -->
<g id="edge21" class="edge">
<title>Node10&#45;&gt;Node6</title>
<path fill="none" stroke="midnightblue" d="M287.78,-170.7C329.97,-161.62 408.42,-144.75 459.79,-133.7"/>
<polygon fill="midnightblue" stroke="midnightblue" points="460.64,-137.09 469.68,-131.57 459.17,-130.25 460.64,-137.09"/>
</g>
<!-- Node11 -->
<g id="node11" class="node">
<title>Node11</title>
<g id="a_node11"><a xlink:title=" ">
<polygon fill="none" stroke="#bfbfbf" points="236.5,-0.5 236.5,-19.5 280.5,-19.5 280.5,-0.5 236.5,-0.5"/>
<text text-anchor="middle" x="258.5" y="-7.5" font-family="Helvetica,sans-Serif" font-size="10.00">vector</text>
</a>
</g>
</g>
<!-- Node10&#45;&gt;Node11 -->
<g id="edge12" class="edge">
<title>Node10&#45;&gt;Node11</title>
<path fill="none" stroke="midnightblue" d="M258.5,-168.08C258.5,-141.95 258.5,-65.21 258.5,-29.58"/>
<polygon fill="midnightblue" stroke="midnightblue" points="262,-29.57 258.5,-19.57 255,-29.57 262,-29.57"/>
</g>
<!-- Node10&#45;&gt;Node12 -->
<g id="edge14" class="edge">
<title>Node10&#45;&gt;Node12</title>
<path fill="none" stroke="midnightblue" d="M232.2,-168.44C204.15,-159.32 159.56,-144.81 128.32,-134.65"/>
<polygon fill="midnightblue" stroke="midnightblue" points="129.27,-131.28 118.68,-131.52 127.11,-137.94 129.27,-131.28"/>
</g>
<!-- Node10&#45;&gt;Node14 -->
<g id="edge19" class="edge">
<title>Node10&#45;&gt;Node14</title>
<path fill="none" stroke="midnightblue" d="M252.85,-168.37C240.97,-150.22 213.21,-107.8 197.62,-83.99"/>
<polygon fill="midnightblue" stroke="midnightblue" points="200.53,-82.04 192.12,-75.59 194.67,-85.88 200.53,-82.04"/>
</g>
<!-- Node13 -->
<g id="node13" class="node">
<title>Node13</title>
<g id="a_node13"><a xlink:title=" ">
<polygon fill="none" stroke="#bfbfbf" points="128,-0.5 128,-19.5 169,-19.5 169,-0.5 128,-0.5"/>
<text text-anchor="middle" x="148.5" y="-7.5" font-family="Helvetica,sans-Serif" font-size="10.00">string</text>
</a>
</g>
</g>
<!-- Node12&#45;&gt;Node13 -->
<g id="edge15" class="edge">
<title>Node12&#45;&gt;Node13</title>
<path fill="none" stroke="midnightblue" d="M96.89,-112.37C106.05,-94.38 127.35,-52.55 139.53,-28.63"/>
<polygon fill="midnightblue" stroke="midnightblue" points="142.71,-30.09 144.13,-19.59 136.47,-26.92 142.71,-30.09"/>
</g>
<!-- Node12&#45;&gt;Node14 -->
<g id="edge16" class="edge">
<title>Node12&#45;&gt;Node14</title>
<path fill="none" stroke="midnightblue" d="M107.6,-112.32C122.4,-103.82 145.19,-90.73 162.48,-80.8"/>
<polygon fill="midnightblue" stroke="midnightblue" points="164.51,-83.67 171.43,-75.65 161.02,-77.6 164.51,-83.67"/>
</g>
<!-- Node14&#45;&gt;Node11 -->
<g id="edge17" class="edge">
<title>Node14&#45;&gt;Node11</title>
<path fill="none" stroke="midnightblue" d="M198.07,-56.32C208.92,-48.18 225.38,-35.84 238.38,-26.09"/>
<polygon fill="midnightblue" stroke="midnightblue" points="240.82,-28.63 246.72,-19.83 236.62,-23.03 240.82,-28.63"/>
</g>
<!-- Node14&#45;&gt;Node13 -->
<g id="edge18" class="edge">
<title>Node14&#45;&gt;Node13</title>
<path fill="none" stroke="midnightblue" d="M180.23,-56.08C174.86,-48.46 166.98,-37.26 160.42,-27.94"/>
<polygon fill="midnightblue" stroke="midnightblue" points="163.28,-25.91 154.66,-19.75 157.55,-29.94 163.28,-25.91"/>
</g>
<!-- Node15&#45;&gt;Node4 -->
<g id="edge25" class="edge">
<title>Node15&#45;&gt;Node4</title>
<path fill="none" stroke="midnightblue" d="M480.75,-224.37C457.54,-205.73 402.49,-161.53 373.35,-138.13"/>
<polygon fill="midnightblue" stroke="midnightblue" points="375.19,-135.12 365.2,-131.59 370.81,-140.58 375.19,-135.12"/>
</g>
<!-- Node15&#45;&gt;Node6 -->
<g id="edge26" class="edge">
<title>Node15&#45;&gt;Node6</title>
<path fill="none" stroke="midnightblue" d="M498.91,-224.41C505.78,-215.84 515.51,-201.98 519.5,-188 523.91,-172.56 520.46,-154.47 516.45,-141.3"/>
<polygon fill="midnightblue" stroke="midnightblue" points="519.67,-139.89 513.11,-131.56 513.04,-142.15 519.67,-139.89"/>
</g>
<!-- Node15&#45;&gt;Node10 -->
<g id="edge24" class="edge">
<title>Node15&#45;&gt;Node10</title>
<path fill="none" stroke="midnightblue" d="M454.58,-224.44C411.7,-214.5 341.25,-198.18 297.5,-188.04"/>
<polygon fill="midnightblue" stroke="midnightblue" points="298.05,-184.57 287.52,-185.73 296.47,-191.39 298.05,-184.57"/>
</g>
<!-- Node16 -->
<g id="node16" class="node">
<title>Node16</title>
<g id="a_node16"><a xlink:title=" ">
<polygon fill="none" stroke="#bfbfbf" points="596.5,-112.5 596.5,-131.5 642.5,-131.5 642.5,-112.5 596.5,-112.5"/>
<text text-anchor="middle" x="619.5" y="-119.5" font-family="Helvetica,sans-Serif" font-size="10.00">math.h</text>
</a>
</g>
</g>
<!-- Node15&#45;&gt;Node16 -->
<g id="edge23" class="edge">
<title>Node15&#45;&gt;Node16</title>
<path fill="none" stroke="midnightblue" d="M501.54,-224.37C523.23,-205.73 574.66,-161.53 601.89,-138.13"/>
<polygon fill="midnightblue" stroke="midnightblue" points="604.2,-140.76 609.5,-131.59 599.64,-135.45 604.2,-140.76"/>
</g>
<!-- Node17&#45;&gt;Node4 -->
<g id="edge28" class="edge">
<title>Node17&#45;&gt;Node4</title>
<path fill="none" stroke="midnightblue" d="M277.09,-224.37C291.02,-206.14 323.63,-163.43 341.77,-139.68"/>
<polygon fill="midnightblue" stroke="midnightblue" points="344.65,-141.66 347.94,-131.59 339.09,-137.41 344.65,-141.66"/>
</g>
<!-- Node17&#45;&gt;Node6 -->
<g id="edge29" class="edge">
<title>Node17&#45;&gt;Node6</title>
<path fill="none" stroke="midnightblue" d="M289.25,-224.37C331.14,-205.09 432.47,-158.45 481.71,-135.79"/>
<polygon fill="midnightblue" stroke="midnightblue" points="483.21,-138.95 490.83,-131.59 480.29,-132.59 483.21,-138.95"/>
</g>
<!-- Node17&#45;&gt;Node10 -->
<g id="edge30" class="edge">
<title>Node17&#45;&gt;Node10</title>
<path fill="none" stroke="midnightblue" d="M268.52,-224.08C266.93,-216.93 264.64,-206.64 262.65,-197.69"/>
<polygon fill="midnightblue" stroke="midnightblue" points="266.03,-196.75 260.44,-187.75 259.2,-198.27 266.03,-196.75"/>
</g>
<!-- Node18&#45;&gt;Node4 -->
<g id="edge32" class="edge">
<title>Node18&#45;&gt;Node4</title>
<path fill="none" stroke="midnightblue" d="M579.35,-224.37C536.59,-205.09 433.14,-158.45 382.87,-135.79"/>
<polygon fill="midnightblue" stroke="midnightblue" points="384.11,-132.51 373.56,-131.59 381.24,-138.89 384.11,-132.51"/>
</g>
<!-- Node18&#45;&gt;Node6 -->
<g id="edge33" class="edge">
<title>Node18&#45;&gt;Node6</title>
<path fill="none" stroke="midnightblue" d="M591.52,-224.37C576.76,-206.14 542.21,-163.43 522.99,-139.68"/>
<polygon fill="midnightblue" stroke="midnightblue" points="525.46,-137.16 516.45,-131.59 520.02,-141.57 525.46,-137.16"/>
</g>
<!-- Node18&#45;&gt;Node10 -->
<g id="edge34" class="edge">
<title>Node18&#45;&gt;Node10</title>
<path fill="none" stroke="midnightblue" d="M552.29,-225.42C549.32,-224.94 546.37,-224.46 543.5,-224 455.69,-209.88 352.58,-193.7 297.64,-185.11"/>
<polygon fill="midnightblue" stroke="midnightblue" points="298.06,-181.63 287.64,-183.55 296.98,-188.55 298.06,-181.63"/>
</g>
<!-- Node19 -->
<g id="node19" class="node">
<title>Node19</title>
<g id="a_node19"><a xlink:href="timedependentparameter_8hpp.html" target="_top" xlink:title="MODEL::TimeDependentParameter source file.">
<polygon fill="none" stroke="black" points="692.5,-168.5 692.5,-187.5 834.5,-187.5 834.5,-168.5 692.5,-168.5"/>
<text text-anchor="middle" x="763.5" y="-175.5" font-family="Helvetica,sans-Serif" font-size="10.00">timedependentparameter.hpp</text>
</a>
</g>
</g>
<!-- Node18&#45;&gt;Node19 -->
<g id="edge35" class="edge">
<title>Node18&#45;&gt;Node19</title>
<path fill="none" stroke="midnightblue" d="M624.64,-224.44C652.52,-215.32 696.85,-200.81 727.9,-190.65"/>
<polygon fill="midnightblue" stroke="midnightblue" points="729.06,-193.95 737.48,-187.52 726.88,-187.3 729.06,-193.95"/>
</g>
<!-- Node19&#45;&gt;Node11 -->
<g id="edge37" class="edge">
<title>Node19&#45;&gt;Node11</title>
<path fill="none" stroke="midnightblue" d="M765.59,-168.49C768.35,-155.12 771.56,-128.95 759.5,-112 722.09,-59.4 687.9,-72.53 625.5,-56 504.96,-24.07 356.03,-14.69 291.21,-12.02"/>
<polygon fill="midnightblue" stroke="midnightblue" points="290.95,-8.51 280.82,-11.62 290.68,-15.5 290.95,-8.51"/>
</g>
<!-- Node19&#45;&gt;Node14 -->
<g id="edge39" class="edge">
<title>Node19&#45;&gt;Node14</title>
<path fill="none" stroke="midnightblue" d="M749.23,-168.26C721.46,-151.31 661.93,-115.36 651.5,-112 612.75,-99.54 348.87,-78.95 236.74,-70.64"/>
<polygon fill="midnightblue" stroke="midnightblue" points="236.93,-67.15 226.69,-69.9 236.41,-74.13 236.93,-67.15"/>
</g>
<!-- Node19&#45;&gt;Node16 -->
<g id="edge36" class="edge">
<title>Node19&#45;&gt;Node16</title>
<path fill="none" stroke="midnightblue" d="M740.68,-168.44C716.67,-159.44 678.67,-145.19 651.63,-135.05"/>
<polygon fill="midnightblue" stroke="midnightblue" points="652.8,-131.75 642.21,-131.52 650.34,-138.3 652.8,-131.75"/>
</g>
<!-- Node20 -->
<g id="node20" class="node">
<title>Node20</title>
<g id="a_node20"><a xlink:title=" ">
<polygon fill="none" stroke="#bfbfbf" points="699,-112.5 699,-131.5 750,-131.5 750,-112.5 699,-112.5"/>
<text text-anchor="middle" x="724.5" y="-119.5" font-family="Helvetica,sans-Serif" font-size="10.00">numeric</text>
</a>
</g>
</g>
<!-- Node19&#45;&gt;Node20 -->
<g id="edge38" class="edge">
<title>Node19&#45;&gt;Node20</title>
<path fill="none" stroke="midnightblue" d="M757.06,-168.08C751.55,-160.46 743.47,-149.26 736.74,-139.94"/>
<polygon fill="midnightblue" stroke="midnightblue" points="739.51,-137.81 730.82,-131.75 733.84,-141.91 739.51,-137.81"/>
</g>
</g>
</svg>
