<?xml version="1.0" encoding="UTF-8" standalone="no"?>
<!DOCTYPE svg PUBLIC "-//W3C//DTD SVG 1.1//EN"
 "http://www.w3.org/Graphics/SVG/1.1/DTD/svg11.dtd">
<!-- Generated by graphviz version 3.0.0 (20220413.0242)
 -->
<!-- Title: model/model.hpp Pages: 1 -->
<svg width="1110pt" height="308pt"
 viewBox="0.00 0.00 1109.75 308.00" xmlns="http://www.w3.org/2000/svg" xmlns:xlink="http://www.w3.org/1999/xlink">
<g id="graph0" class="graph" transform="scale(1 1) rotate(0) translate(4 304)">
<title>model/model.hpp</title>
<!-- Node1 -->
<g id="node1" class="node">
<title>Node1</title>
<g id="a_node1"><a xlink:title="MODEL::Model source file.">
<polygon fill="#bfbfbf" stroke="black" points="333.5,-280.5 333.5,-299.5 423.5,-299.5 423.5,-280.5 333.5,-280.5"/>
<text text-anchor="middle" x="378.5" y="-287.5" font-family="Helvetica,sans-Serif" font-size="10.00">model/model.hpp</text>
</a>
</g>
</g>
<!-- Node2 -->
<g id="node2" class="node">
<title>Node2</title>
<g id="a_node2"><a xlink:title=" ">
<polygon fill="none" stroke="#bfbfbf" points="0,-224.5 0,-243.5 29,-243.5 29,-224.5 0,-224.5"/>
<text text-anchor="middle" x="14.5" y="-231.5" font-family="Helvetica,sans-Serif" font-size="10.00">list</text>
</a>
</g>
</g>
<!-- Node1&#45;&gt;Node2 -->
<g id="edge1" class="edge">
<title>Node1&#45;&gt;Node2</title>
<path fill="none" stroke="midnightblue" d="M333.38,-285.36C268.64,-279.58 145.93,-266.61 43.5,-244 42.02,-243.67 40.51,-243.31 38.99,-242.91"/>
<polygon fill="midnightblue" stroke="midnightblue" points="39.7,-239.48 29.13,-240.06 37.76,-246.2 39.7,-239.48"/>
</g>
<!-- Node3 -->
<g id="node3" class="node">
<title>Node3</title>
<g id="a_node3"><a xlink:title=" ">
<polygon fill="none" stroke="#bfbfbf" points="142,-112.5 142,-131.5 177,-131.5 177,-112.5 142,-112.5"/>
<text text-anchor="middle" x="159.5" y="-119.5" font-family="Helvetica,sans-Serif" font-size="10.00">map</text>
</a>
</g>
</g>
<!-- Node1&#45;&gt;Node3 -->
<g id="edge2" class="edge">
<title>Node1&#45;&gt;Node3</title>
<path fill="none" stroke="midnightblue" d="M333.32,-284.24C282.37,-277.94 203.94,-265.08 183.5,-244 156.88,-216.54 155.72,-168.51 157.45,-141.97"/>
<polygon fill="midnightblue" stroke="midnightblue" points="160.96,-142.01 158.34,-131.74 153.99,-141.4 160.96,-142.01"/>
</g>
<!-- Node4 -->
<g id="node4" class="node">
<title>Node4</title>
<g id="a_node4"><a xlink:title=" ">
<polygon fill="none" stroke="#bfbfbf" points="85.5,-224.5 85.5,-243.5 131.5,-243.5 131.5,-224.5 85.5,-224.5"/>
<text text-anchor="middle" x="108.5" y="-231.5" font-family="Helvetica,sans-Serif" font-size="10.00">variant</text>
</a>
</g>
</g>
<!-- Node1&#45;&gt;Node4 -->
<g id="edge3" class="edge">
<title>Node1&#45;&gt;Node4</title>
<path fill="none" stroke="midnightblue" d="M333.27,-280.93C286.22,-272.37 210.51,-258.18 145.5,-244 144.23,-243.72 142.93,-243.43 141.63,-243.14"/>
<polygon fill="midnightblue" stroke="midnightblue" points="142.09,-239.65 131.55,-240.79 140.5,-246.47 142.09,-239.65"/>
</g>
<!-- Node5 -->
<g id="node5" class="node">
<title>Node5</title>
<g id="a_node5"><a xlink:href="densesystem_8hpp.html" target="_top" xlink:title="ALGEBRA::DenseSystem source file.">
<polygon fill="none" stroke="black" points="376.5,-112.5 376.5,-131.5 510.5,-131.5 510.5,-112.5 376.5,-112.5"/>
<text text-anchor="middle" x="443.5" y="-119.5" font-family="Helvetica,sans-Serif" font-size="10.00">../algebra/densesystem.hpp</text>
</a>
</g>
</g>
<!-- Node1&#45;&gt;Node5 -->
<g id="edge4" class="edge">
<title>Node1&#45;&gt;Node5</title>
<path fill="none" stroke="midnightblue" d="M333.48,-281.68C294.09,-272.67 246,-254.65 263.5,-224 291.01,-175.8 351.53,-148.28 394.91,-134.5"/>
<polygon fill="midnightblue" stroke="midnightblue" points="396.16,-137.77 404.71,-131.52 394.12,-131.08 396.16,-137.77"/>
</g>
<!-- Node7 -->
<g id="node7" class="node">
<title>Node7</title>
<g id="a_node7"><a xlink:href="sparsesystem_8hpp.html" target="_top" xlink:title="ALGEBRA::SparseSystem source file.">
<polygon fill="none" stroke="black" points="674,-112.5 674,-131.5 811,-131.5 811,-112.5 674,-112.5"/>
<text text-anchor="middle" x="742.5" y="-119.5" font-family="Helvetica,sans-Serif" font-size="10.00">../algebra/sparsesystem.hpp</text>
</a>
</g>
</g>
<!-- Node1&#45;&gt;Node7 -->
<g id="edge7" class="edge">
<title>Node1&#45;&gt;Node7</title>
<path fill="none" stroke="midnightblue" d="M423.72,-287.7C574.78,-283.31 1053.02,-267.96 1075.5,-244 1096.55,-221.56 1072.1,-185.74 1047.5,-168 1029.18,-154.79 905.35,-140.03 821.16,-131.13"/>
<polygon fill="midnightblue" stroke="midnightblue" points="821.41,-127.64 811.1,-130.07 820.68,-134.6 821.41,-127.64"/>
</g>
<!-- Node11 -->
<g id="node11" class="node">
<title>Node11</title>
<g id="a_node11"><a xlink:href="bloodvessel_8hpp.html" target="_top" xlink:title="MODEL::BloodVessel source file.">
<polygon fill="none" stroke="black" points="281.5,-224.5 281.5,-243.5 367.5,-243.5 367.5,-224.5 281.5,-224.5"/>
<text text-anchor="middle" x="324.5" y="-231.5" font-family="Helvetica,sans-Serif" font-size="10.00">bloodvessel.hpp</text>
</a>
</g>
</g>
<!-- Node1&#45;&gt;Node11 -->
<g id="edge12" class="edge">
<title>Node1&#45;&gt;Node11</title>
<path fill="none" stroke="midnightblue" d="M369.58,-280.08C361.72,-272.22 350.07,-260.57 340.58,-251.08"/>
<polygon fill="midnightblue" stroke="midnightblue" points="342.8,-248.35 333.25,-243.75 337.85,-253.3 342.8,-248.35"/>
</g>
<!-- Node15 -->
<g id="node15" class="node">
<title>Node15</title>
<g id="a_node15"><a xlink:href="dofhandler_8hpp.html" target="_top" xlink:title="MODEL::DOFHandler source file.">
<polygon fill="none" stroke="black" points="470.5,-56.5 470.5,-75.5 550.5,-75.5 550.5,-56.5 470.5,-56.5"/>
<text text-anchor="middle" x="510.5" y="-63.5" font-family="Helvetica,sans-Serif" font-size="10.00">dofhandler.hpp</text>
</a>
</g>
</g>
<!-- Node1&#45;&gt;Node15 -->
<g id="edge27" class="edge">
<title>Node1&#45;&gt;Node15</title>
<path fill="none" stroke="midnightblue" d="M333.38,-283.28C308.92,-277.62 280.67,-266.37 265.5,-244 260.51,-236.64 263.05,-232.54 265.5,-224 284.06,-159.28 308.43,-144.31 367.5,-112 396.61,-96.08 432.18,-84.86 460.57,-77.6"/>
<polygon fill="midnightblue" stroke="midnightblue" points="461.42,-80.99 470.29,-75.2 459.74,-74.2 461.42,-80.99"/>
</g>
<!-- Node17 -->
<g id="node17" class="node">
<title>Node17</title>
<g id="a_node17"><a xlink:href="node_8hpp.html" target="_top" xlink:title="MODEL::Node source file.">
<polygon fill="none" stroke="black" points="67.5,-112.5 67.5,-131.5 123.5,-131.5 123.5,-112.5 67.5,-112.5"/>
<text text-anchor="middle" x="95.5" y="-119.5" font-family="Helvetica,sans-Serif" font-size="10.00">node.hpp</text>
</a>
</g>
</g>
<!-- Node1&#45;&gt;Node17 -->
<g id="edge41" class="edge">
<title>Node1&#45;&gt;Node17</title>
<path fill="none" stroke="midnightblue" d="M333.39,-289.16C257.44,-288.35 109.12,-281.84 76.5,-244 51.37,-214.85 71.27,-166.44 85.09,-140.57"/>
<polygon fill="midnightblue" stroke="midnightblue" points="88.3,-142 90.15,-131.56 82.2,-138.57 88.3,-142"/>
</g>
<!-- Node18 -->
<g id="node18" class="node">
<title>Node18</title>
<g id="a_node18"><a xlink:href="flowreferencebc_8hpp.html" target="_top" xlink:title="MODEL::FlowReferenceBC source file.">
<polygon fill="none" stroke="black" points="692,-224.5 692,-243.5 795,-243.5 795,-224.5 692,-224.5"/>
<text text-anchor="middle" x="743.5" y="-231.5" font-family="Helvetica,sans-Serif" font-size="10.00">flowreferencebc.hpp</text>
</a>
</g>
</g>
<!-- Node1&#45;&gt;Node18 -->
<g id="edge28" class="edge">
<title>Node1&#45;&gt;Node18</title>
<path fill="none" stroke="midnightblue" d="M423.62,-282.32C488.56,-272.72 608.59,-254.96 681.72,-244.14"/>
<polygon fill="midnightblue" stroke="midnightblue" points="682.34,-247.59 691.72,-242.66 681.32,-240.66 682.34,-247.59"/>
</g>
<!-- Node21 -->
<g id="node21" class="node">
<title>Node21</title>
<g id="a_node21"><a xlink:href="junction_8hpp.html" target="_top" xlink:title="MODEL::Junction source file.">
<polygon fill="none" stroke="black" points="497.5,-224.5 497.5,-243.5 565.5,-243.5 565.5,-224.5 497.5,-224.5"/>
<text text-anchor="middle" x="531.5" y="-231.5" font-family="Helvetica,sans-Serif" font-size="10.00">junction.hpp</text>
</a>
</g>
</g>
<!-- Node1&#45;&gt;Node21 -->
<g id="edge37" class="edge">
<title>Node1&#45;&gt;Node21</title>
<path fill="none" stroke="midnightblue" d="M402.74,-280.44C428.37,-271.4 468.99,-257.06 497.74,-246.92"/>
<polygon fill="midnightblue" stroke="midnightblue" points="499.11,-250.15 507.37,-243.52 496.78,-243.54 499.11,-250.15"/>
</g>
<!-- Node22 -->
<g id="node22" class="node">
<title>Node22</title>
<g id="a_node22"><a xlink:href="openloopcoronarybc_8hpp.html" target="_top" xlink:title="MODEL::OpenLoopCoronaryBC source file.">
<polygon fill="none" stroke="black" points="813,-224.5 813,-243.5 934,-243.5 934,-224.5 813,-224.5"/>
<text text-anchor="middle" x="873.5" y="-231.5" font-family="Helvetica,sans-Serif" font-size="10.00">openloopcoronarybc.hpp</text>
</a>
</g>
</g>
<!-- Node1&#45;&gt;Node22 -->
<g id="edge42" class="edge">
<title>Node1&#45;&gt;Node22</title>
<path fill="none" stroke="midnightblue" d="M423.62,-284.6C499.68,-277.1 658.49,-261.1 802.99,-244.16"/>
<polygon fill="midnightblue" stroke="midnightblue" points="803.41,-247.63 812.93,-242.99 802.59,-240.68 803.41,-247.63"/>
</g>
<!-- Node23 -->
<g id="node23" class="node">
<title>Node23</title>
<g id="a_node23"><a xlink:href="pressurereferencebc_8hpp.html" target="_top" xlink:title="MODEL::PressureReferenceBC source file.">
<polygon fill="none" stroke="black" points="952,-224.5 952,-243.5 1075,-243.5 1075,-224.5 952,-224.5"/>
<text text-anchor="middle" x="1013.5" y="-231.5" font-family="Helvetica,sans-Serif" font-size="10.00">pressurereferencebc.hpp</text>
</a>
</g>
</g>
<!-- Node1&#45;&gt;Node23 -->
<g id="edge47" class="edge">
<title>Node1&#45;&gt;Node23</title>
<path fill="none" stroke="midnightblue" d="M423.61,-286.15C517.87,-280.04 742.81,-264.61 941.64,-244.15"/>
<polygon fill="midnightblue" stroke="midnightblue" points="942.1,-247.62 951.68,-243.11 941.38,-240.66 942.1,-247.62"/>
</g>
<!-- Node24 -->
<g id="node24" class="node">
<title>Node24</title>
<g id="a_node24"><a xlink:href="resistancebc_8hpp.html" target="_top" xlink:title="MODEL::ResistanceBC source file.">
<polygon fill="none" stroke="black" points="583.5,-224.5 583.5,-243.5 673.5,-243.5 673.5,-224.5 583.5,-224.5"/>
<text text-anchor="middle" x="628.5" y="-231.5" font-family="Helvetica,sans-Serif" font-size="10.00">resistancebc.hpp</text>
</a>
</g>
</g>
<!-- Node1&#45;&gt;Node24 -->
<g id="edge52" class="edge">
<title>Node1&#45;&gt;Node24</title>
<path fill="none" stroke="midnightblue" d="M418.11,-280.44C461.73,-271.02 531.9,-255.87 579.08,-245.68"/>
<polygon fill="midnightblue" stroke="midnightblue" points="580.04,-249.05 589.07,-243.52 578.56,-242.21 580.04,-249.05"/>
</g>
<!-- Node25 -->
<g id="node25" class="node">
<title>Node25</title>
<g id="a_node25"><a xlink:href="windkesselbc_8hpp.html" target="_top" xlink:title="MODEL::WindkesselBC source file.">
<polygon fill="none" stroke="black" points="385.5,-224.5 385.5,-243.5 479.5,-243.5 479.5,-224.5 385.5,-224.5"/>
<text text-anchor="middle" x="432.5" y="-231.5" font-family="Helvetica,sans-Serif" font-size="10.00">windkesselbc.hpp</text>
</a>
</g>
</g>
<!-- Node1&#45;&gt;Node25 -->
<g id="edge57" class="edge">
<title>Node1&#45;&gt;Node25</title>
<path fill="none" stroke="midnightblue" d="M387.42,-280.08C395.28,-272.22 406.93,-260.57 416.42,-251.08"/>
<polygon fill="midnightblue" stroke="midnightblue" points="419.15,-253.3 423.75,-243.75 414.2,-248.35 419.15,-253.3"/>
</g>
<!-- Node5&#45;&gt;Node1 -->
<g id="edge6" class="edge">
<title>Node5&#45;&gt;Node1</title>
<path fill="none" stroke="midnightblue" d="M417.11,-131.52C379.16,-144.12 311.15,-172.05 281.5,-224 266.32,-250.59 300.5,-267.67 332.47,-277.61"/>
<polygon fill="midnightblue" stroke="midnightblue" points="331.68,-281.03 342.26,-280.47 333.64,-274.31 331.68,-281.03"/>
</g>
<!-- Node6 -->
<g id="node6" class="node">
<title>Node6</title>
<g id="a_node6"><a xlink:title=" ">
<polygon fill="none" stroke="#bfbfbf" points="381,-56.5 381,-75.5 452,-75.5 452,-56.5 381,-56.5"/>
<text text-anchor="middle" x="416.5" y="-63.5" font-family="Helvetica,sans-Serif" font-size="10.00">Eigen/Dense</text>
</a>
</g>
</g>
<!-- Node5&#45;&gt;Node6 -->
<g id="edge5" class="edge">
<title>Node5&#45;&gt;Node6</title>
<path fill="none" stroke="midnightblue" d="M439.04,-112.08C435.35,-104.69 429.98,-93.95 425.41,-84.81"/>
<polygon fill="midnightblue" stroke="midnightblue" points="428.48,-83.13 420.88,-75.75 422.22,-86.26 428.48,-83.13"/>
</g>
<!-- Node7&#45;&gt;Node1 -->
<g id="edge11" class="edge">
<title>Node7&#45;&gt;Node1</title>
<path fill="none" stroke="midnightblue" d="M811.13,-128.85C899.96,-137.33 1045.51,-153.59 1065.5,-168 1090.1,-185.74 1114.55,-221.56 1093.5,-244 1071.14,-267.83 598.01,-283.14 433.89,-287.63"/>
<polygon fill="midnightblue" stroke="midnightblue" points="433.43,-284.14 423.53,-287.91 433.62,-291.13 433.43,-284.14"/>
</g>
<!-- Node8 -->
<g id="node8" class="node">
<title>Node8</title>
<g id="a_node8"><a xlink:title=" ">
<polygon fill="none" stroke="#bfbfbf" points="705.5,-56.5 705.5,-75.5 779.5,-75.5 779.5,-56.5 705.5,-56.5"/>
<text text-anchor="middle" x="742.5" y="-63.5" font-family="Helvetica,sans-Serif" font-size="10.00">Eigen/Sparse</text>
</a>
</g>
</g>
<!-- Node7&#45;&gt;Node8 -->
<g id="edge8" class="edge">
<title>Node7&#45;&gt;Node8</title>
<path fill="none" stroke="midnightblue" d="M742.5,-112.08C742.5,-105.01 742.5,-94.86 742.5,-85.99"/>
<polygon fill="midnightblue" stroke="midnightblue" points="746,-85.75 742.5,-75.75 739,-85.75 746,-85.75"/>
</g>
<!-- Node9 -->
<g id="node9" class="node">
<title>Node9</title>
<g id="a_node9"><a xlink:title=" ">
<polygon fill="none" stroke="#bfbfbf" points="797.5,-56.5 797.5,-75.5 885.5,-75.5 885.5,-56.5 797.5,-56.5"/>
<text text-anchor="middle" x="841.5" y="-63.5" font-family="Helvetica,sans-Serif" font-size="10.00">Eigen/SparseLU</text>
</a>
</g>
</g>
<!-- Node7&#45;&gt;Node9 -->
<g id="edge9" class="edge">
<title>Node7&#45;&gt;Node9</title>
<path fill="none" stroke="midnightblue" d="M758.41,-112.32C774.14,-103.74 798.44,-90.49 816.71,-80.52"/>
<polygon fill="midnightblue" stroke="midnightblue" points="818.53,-83.52 825.63,-75.65 815.18,-77.37 818.53,-83.52"/>
</g>
<!-- Node10 -->
<g id="node10" class="node">
<title>Node10</title>
<g id="a_node10"><a xlink:title=" ">
<polygon fill="none" stroke="#bfbfbf" points="633.5,-56.5 633.5,-75.5 687.5,-75.5 687.5,-56.5 633.5,-56.5"/>
<text text-anchor="middle" x="660.5" y="-63.5" font-family="Helvetica,sans-Serif" font-size="10.00">iostream</text>
</a>
</g>
</g>
<!-- Node7&#45;&gt;Node10 -->
<g id="edge10" class="edge">
<title>Node7&#45;&gt;Node10</title>
<path fill="none" stroke="midnightblue" d="M729.33,-112.32C716.65,-103.98 697.27,-91.21 682.29,-81.35"/>
<polygon fill="midnightblue" stroke="midnightblue" points="683.92,-78.23 673.64,-75.65 680.07,-84.08 683.92,-78.23"/>
</g>
<!-- Node11&#45;&gt;Node5 -->
<g id="edge14" class="edge">
<title>Node11&#45;&gt;Node5</title>
<path fill="none" stroke="midnightblue" d="M333.84,-224.37C353.91,-205.81 401.4,-161.91 426.8,-138.44"/>
<polygon fill="midnightblue" stroke="midnightblue" points="429.24,-140.95 434.21,-131.59 424.49,-135.81 429.24,-140.95"/>
</g>
<!-- Node11&#45;&gt;Node7 -->
<g id="edge15" class="edge">
<title>Node11&#45;&gt;Node7</title>
<path fill="none" stroke="midnightblue" d="M344.2,-224.47C376.36,-210.82 442.4,-184 500.5,-168 556.85,-152.48 622.06,-140.7 670.59,-133.09"/>
<polygon fill="midnightblue" stroke="midnightblue" points="671.33,-136.52 680.68,-131.53 670.26,-129.6 671.33,-136.52"/>
</g>
<!-- Node12 -->
<g id="node12" class="node">
<title>Node12</title>
<g id="a_node12"><a xlink:title=" ">
<polygon fill="none" stroke="#bfbfbf" points="607.5,-112.5 607.5,-131.5 653.5,-131.5 653.5,-112.5 607.5,-112.5"/>
<text text-anchor="middle" x="630.5" y="-119.5" font-family="Helvetica,sans-Serif" font-size="10.00">math.h</text>
</a>
</g>
</g>
<!-- Node11&#45;&gt;Node12 -->
<g id="edge13" class="edge">
<title>Node11&#45;&gt;Node12</title>
<path fill="none" stroke="midnightblue" d="M330.79,-224.19C341.5,-209.9 364.74,-181.87 391.5,-168 426.89,-149.66 540.11,-133.89 597.08,-126.88"/>
<polygon fill="midnightblue" stroke="midnightblue" points="597.86,-130.31 607.36,-125.63 597.01,-123.36 597.86,-130.31"/>
</g>
<!-- Node13 -->
<g id="node13" class="node">
<title>Node13</title>
<g id="a_node13"><a xlink:href="block_8hpp.html" target="_top" xlink:title="MODEL::Block source file.">
<polygon fill="none" stroke="black" points="509.5,-168.5 509.5,-187.5 567.5,-187.5 567.5,-168.5 509.5,-168.5"/>
<text text-anchor="middle" x="538.5" y="-175.5" font-family="Helvetica,sans-Serif" font-size="10.00">block.hpp</text>
</a>
</g>
</g>
<!-- Node11&#45;&gt;Node13 -->
<g id="edge16" class="edge">
<title>Node11&#45;&gt;Node13</title>
<path fill="none" stroke="midnightblue" d="M358.41,-224.44C396.76,-214.77 459.11,-199.03 499.46,-188.85"/>
<polygon fill="midnightblue" stroke="midnightblue" points="500.38,-192.23 509.22,-186.39 498.67,-185.44 500.38,-192.23"/>
</g>
<!-- Node13&#45;&gt;Node3 -->
<g id="edge17" class="edge">
<title>Node13&#45;&gt;Node3</title>
<path fill="none" stroke="midnightblue" d="M509.39,-172.85C438.48,-162.75 257.49,-136.96 187.62,-127.01"/>
<polygon fill="midnightblue" stroke="midnightblue" points="187.78,-123.49 177.39,-125.55 186.8,-130.42 187.78,-123.49"/>
</g>
<!-- Node13&#45;&gt;Node5 -->
<g id="edge19" class="edge">
<title>Node13&#45;&gt;Node5</title>
<path fill="none" stroke="midnightblue" d="M523.24,-168.32C508.28,-159.82 485.25,-146.73 467.77,-136.8"/>
<polygon fill="midnightblue" stroke="midnightblue" points="469.15,-133.55 458.73,-131.65 465.69,-139.64 469.15,-133.55"/>
</g>
<!-- Node13&#45;&gt;Node7 -->
<g id="edge20" class="edge">
<title>Node13&#45;&gt;Node7</title>
<path fill="none" stroke="midnightblue" d="M567.73,-169.26C602.49,-160.06 660.78,-144.63 700.4,-134.14"/>
<polygon fill="midnightblue" stroke="midnightblue" points="701.53,-137.47 710.3,-131.52 699.73,-130.7 701.53,-137.47"/>
</g>
<!-- Node14 -->
<g id="node14" class="node">
<title>Node14</title>
<g id="a_node14"><a xlink:title=" ">
<polygon fill="none" stroke="#bfbfbf" points="556.5,-0.5 556.5,-19.5 600.5,-19.5 600.5,-0.5 556.5,-0.5"/>
<text text-anchor="middle" x="578.5" y="-7.5" font-family="Helvetica,sans-Serif" font-size="10.00">vector</text>
</a>
</g>
</g>
<!-- Node13&#45;&gt;Node14 -->
<g id="edge18" class="edge">
<title>Node13&#45;&gt;Node14</title>
<path fill="none" stroke="midnightblue" d="M540.65,-168.08C546.95,-141.95 565.44,-65.21 574.02,-29.58"/>
<polygon fill="midnightblue" stroke="midnightblue" points="577.5,-30.11 576.44,-19.57 570.69,-28.47 577.5,-30.11"/>
</g>
<!-- Node13&#45;&gt;Node15 -->
<g id="edge21" class="edge">
<title>Node13&#45;&gt;Node15</title>
<path fill="none" stroke="midnightblue" d="M536.3,-168.37C531.78,-150.62 521.36,-109.67 515.23,-85.6"/>
<polygon fill="midnightblue" stroke="midnightblue" points="518.55,-84.42 512.69,-75.59 511.76,-86.15 518.55,-84.42"/>
</g>
<!-- Node13&#45;&gt;Node17 -->
<g id="edge24" class="edge">
<title>Node13&#45;&gt;Node17</title>
<path fill="none" stroke="midnightblue" d="M509.27,-175.05C443.76,-170.41 280.1,-157.29 133.76,-132.02"/>
<polygon fill="midnightblue" stroke="midnightblue" points="134.16,-128.53 123.7,-130.25 132.95,-135.43 134.16,-128.53"/>
</g>
<!-- Node15&#45;&gt;Node14 -->
<g id="edge23" class="edge">
<title>Node15&#45;&gt;Node14</title>
<path fill="none" stroke="midnightblue" d="M521.43,-56.32C531.67,-48.18 547.22,-35.84 559.5,-26.09"/>
<polygon fill="midnightblue" stroke="midnightblue" points="561.72,-28.79 567.38,-19.83 557.37,-23.31 561.72,-28.79"/>
</g>
<!-- Node16 -->
<g id="node16" class="node">
<title>Node16</title>
<g id="a_node16"><a xlink:title=" ">
<polygon fill="none" stroke="#bfbfbf" points="345,-0.5 345,-19.5 386,-19.5 386,-0.5 345,-0.5"/>
<text text-anchor="middle" x="365.5" y="-7.5" font-family="Helvetica,sans-Serif" font-size="10.00">string</text>
</a>
</g>
</g>
<!-- Node15&#45;&gt;Node16 -->
<g id="edge22" class="edge">
<title>Node15&#45;&gt;Node16</title>
<path fill="none" stroke="midnightblue" d="M487.52,-56.44C462.63,-47.17 422.82,-32.35 395.48,-22.17"/>
<polygon fill="midnightblue" stroke="midnightblue" points="396.62,-18.85 386.02,-18.64 394.17,-25.41 396.62,-18.85"/>
</g>
<!-- Node17&#45;&gt;Node15 -->
<g id="edge26" class="edge">
<title>Node17&#45;&gt;Node15</title>
<path fill="none" stroke="midnightblue" d="M123.7,-113.74C126.66,-113.1 129.64,-112.5 132.5,-112 276.94,-86.62 315.36,-97 460.5,-76 460.6,-75.99 460.7,-75.97 460.8,-75.96"/>
<polygon fill="midnightblue" stroke="midnightblue" points="461.08,-79.46 470.42,-74.46 460,-72.54 461.08,-79.46"/>
</g>
<!-- Node17&#45;&gt;Node16 -->
<g id="edge25" class="edge">
<title>Node17&#45;&gt;Node16</title>
<path fill="none" stroke="midnightblue" d="M116.69,-112.37C164.32,-92.96 280,-45.83 335.21,-23.34"/>
<polygon fill="midnightblue" stroke="midnightblue" points="336.84,-26.45 344.78,-19.44 334.2,-19.97 336.84,-26.45"/>
</g>
<!-- Node18&#45;&gt;Node5 -->
<g id="edge29" class="edge">
<title>Node18&#45;&gt;Node5</title>
<path fill="none" stroke="midnightblue" d="M722.52,-224.49C690.99,-211.77 629.42,-187.24 576.5,-168 544,-156.18 506.67,-143.64 479.85,-134.81"/>
<polygon fill="midnightblue" stroke="midnightblue" points="480.71,-131.41 470.12,-131.62 478.53,-138.06 480.71,-131.41"/>
</g>
<!-- Node18&#45;&gt;Node7 -->
<g id="edge30" class="edge">
<title>Node18&#45;&gt;Node7</title>
<path fill="none" stroke="midnightblue" d="M743.42,-224.37C743.26,-206.62 742.89,-165.67 742.67,-141.6"/>
<polygon fill="midnightblue" stroke="midnightblue" points="746.17,-141.56 742.58,-131.59 739.17,-141.62 746.17,-141.56"/>
</g>
<!-- Node18&#45;&gt;Node13 -->
<g id="edge31" class="edge">
<title>Node18&#45;&gt;Node13</title>
<path fill="none" stroke="midnightblue" d="M711.02,-224.44C674.74,-214.89 616.06,-199.43 577.38,-189.24"/>
<polygon fill="midnightblue" stroke="midnightblue" points="578.08,-185.81 567.52,-186.64 576.29,-192.58 578.08,-185.81"/>
</g>
<!-- Node19 -->
<g id="node19" class="node">
<title>Node19</title>
<g id="a_node19"><a xlink:href="timedependentparameter_8hpp.html" target="_top" xlink:title="MODEL::TimeDependentParameter source file.">
<polygon fill="none" stroke="black" points="889.5,-168.5 889.5,-187.5 1031.5,-187.5 1031.5,-168.5 889.5,-168.5"/>
<text text-anchor="middle" x="960.5" y="-175.5" font-family="Helvetica,sans-Serif" font-size="10.00">timedependentparameter.hpp</text>
</a>
</g>
</g>
<!-- Node18&#45;&gt;Node19 -->
<g id="edge32" class="edge">
<title>Node18&#45;&gt;Node19</title>
<path fill="none" stroke="midnightblue" d="M777.88,-224.44C815.42,-215.1 875.63,-200.12 916.57,-189.93"/>
<polygon fill="midnightblue" stroke="midnightblue" points="917.42,-193.33 926.28,-187.52 915.73,-186.53 917.42,-193.33"/>
</g>
<!-- Node19&#45;&gt;Node12 -->
<g id="edge33" class="edge">
<title>Node19&#45;&gt;Node12</title>
<path fill="none" stroke="midnightblue" d="M891.61,-168.48C831.6,-160.59 742.4,-147.71 665.5,-132 664.9,-131.88 664.3,-131.75 663.7,-131.62"/>
<polygon fill="midnightblue" stroke="midnightblue" points="664.3,-128.17 653.77,-129.33 662.73,-134.99 664.3,-128.17"/>
</g>
<!-- Node19&#45;&gt;Node14 -->
<g id="edge35" class="edge">
<title>Node19&#45;&gt;Node14</title>
<path fill="none" stroke="midnightblue" d="M959.11,-168.15C956.82,-155.21 951.48,-130.66 941.5,-112 926.17,-83.35 922.91,-71.78 894.5,-56 846.12,-29.13 680.86,-16.79 610.56,-12.67"/>
<polygon fill="midnightblue" stroke="midnightblue" points="610.7,-9.17 600.51,-12.1 610.3,-16.16 610.7,-9.17"/>
</g>
<!-- Node19&#45;&gt;Node15 -->
<g id="edge36" class="edge">
<title>Node19&#45;&gt;Node15</title>
<path fill="none" stroke="midnightblue" d="M943.74,-168.47C912.27,-152.58 845.28,-119.38 820.5,-112 772.96,-97.84 635.76,-81.01 560.83,-72.51"/>
<polygon fill="midnightblue" stroke="midnightblue" points="561.01,-69.01 550.68,-71.36 560.22,-75.96 561.01,-69.01"/>
</g>
<!-- Node20 -->
<g id="node20" class="node">
<title>Node20</title>
<g id="a_node20"><a xlink:title=" ">
<polygon fill="none" stroke="#bfbfbf" points="881,-112.5 881,-131.5 932,-131.5 932,-112.5 881,-112.5"/>
<text text-anchor="middle" x="906.5" y="-119.5" font-family="Helvetica,sans-Serif" font-size="10.00">numeric</text>
</a>
</g>
</g>
<!-- Node19&#45;&gt;Node20 -->
<g id="edge34" class="edge">
<title>Node19&#45;&gt;Node20</title>
<path fill="none" stroke="midnightblue" d="M951.58,-168.08C943.72,-160.22 932.07,-148.57 922.58,-139.08"/>
<polygon fill="midnightblue" stroke="midnightblue" points="924.8,-136.35 915.25,-131.75 919.85,-141.3 924.8,-136.35"/>
</g>
<!-- Node21&#45;&gt;Node5 -->
<g id="edge38" class="edge">
<title>Node21&#45;&gt;Node5</title>
<path fill="none" stroke="midnightblue" d="M513.77,-224.39C499.5,-216.65 479.84,-204.04 467.5,-188 456.97,-174.31 450.7,-155.52 447.22,-141.67"/>
<polygon fill="midnightblue" stroke="midnightblue" points="450.62,-140.79 445.01,-131.8 443.79,-142.33 450.62,-140.79"/>
</g>
<!-- Node21&#45;&gt;Node7 -->
<g id="edge39" class="edge">
<title>Node21&#45;&gt;Node7</title>
<path fill="none" stroke="midnightblue" d="M548.06,-224.37C584.8,-205.21 673.38,-159.04 717.15,-136.22"/>
<polygon fill="midnightblue" stroke="midnightblue" points="718.77,-139.32 726.02,-131.59 715.53,-133.11 718.77,-139.32"/>
</g>
<!-- Node21&#45;&gt;Node13 -->
<g id="edge40" class="edge">
<title>Node21&#45;&gt;Node13</title>
<path fill="none" stroke="midnightblue" d="M532.66,-224.08C533.58,-216.93 534.92,-206.64 536.08,-197.69"/>
<polygon fill="midnightblue" stroke="midnightblue" points="539.55,-198.12 537.37,-187.75 532.61,-197.22 539.55,-198.12"/>
</g>
<!-- Node22&#45;&gt;Node5 -->
<g id="edge43" class="edge">
<title>Node22&#45;&gt;Node5</title>
<path fill="none" stroke="midnightblue" d="M840.12,-224.46C763.04,-204.74 572.71,-156.05 486.81,-134.08"/>
<polygon fill="midnightblue" stroke="midnightblue" points="487.42,-130.62 476.86,-131.53 485.68,-137.4 487.42,-130.62"/>
</g>
<!-- Node22&#45;&gt;Node7 -->
<g id="edge44" class="edge">
<title>Node22&#45;&gt;Node7</title>
<path fill="none" stroke="midnightblue" d="M864.06,-224.42C850.13,-211.83 823.15,-187.7 799.5,-168 787.27,-157.81 773.24,-146.73 762.16,-138.11"/>
<polygon fill="midnightblue" stroke="midnightblue" points="764.05,-135.15 754,-131.79 759.76,-140.68 764.05,-135.15"/>
</g>
<!-- Node22&#45;&gt;Node13 -->
<g id="edge45" class="edge">
<title>Node22&#45;&gt;Node13</title>
<path fill="none" stroke="midnightblue" d="M820.42,-224.44C752.89,-213.56 637.83,-195.01 577.71,-185.32"/>
<polygon fill="midnightblue" stroke="midnightblue" points="577.93,-181.81 567.5,-183.67 576.82,-188.72 577.93,-181.81"/>
</g>
<!-- Node22&#45;&gt;Node19 -->
<g id="edge46" class="edge">
<title>Node22&#45;&gt;Node19</title>
<path fill="none" stroke="midnightblue" d="M887.48,-224.32C901.05,-215.9 921.88,-202.97 937.82,-193.07"/>
<polygon fill="midnightblue" stroke="midnightblue" points="939.91,-195.9 946.56,-187.65 936.21,-189.95 939.91,-195.9"/>
</g>
<!-- Node23&#45;&gt;Node5 -->
<g id="edge48" class="edge">
<title>Node23&#45;&gt;Node5</title>
<path fill="none" stroke="midnightblue" d="M969.25,-224.46C866.14,-204.56 610.16,-155.16 497.82,-133.48"/>
<polygon fill="midnightblue" stroke="midnightblue" points="498.21,-129.99 487.72,-131.53 496.88,-136.87 498.21,-129.99"/>
</g>
<!-- Node23&#45;&gt;Node7 -->
<g id="edge49" class="edge">
<title>Node23&#45;&gt;Node7</title>
<path fill="none" stroke="midnightblue" d="M1022.6,-224.07C1035.24,-210.6 1055,-184.86 1040.5,-168 1026.3,-151.49 904.54,-137.42 821.12,-129.6"/>
<polygon fill="midnightblue" stroke="midnightblue" points="821.43,-126.12 811.15,-128.68 820.78,-133.09 821.43,-126.12"/>
</g>
<!-- Node23&#45;&gt;Node13 -->
<g id="edge50" class="edge">
<title>Node23&#45;&gt;Node13</title>
<path fill="none" stroke="midnightblue" d="M951.67,-224.99C948.91,-224.65 946.18,-224.32 943.5,-224 809.6,-207.95 650.55,-190.85 578.05,-183.17"/>
<polygon fill="midnightblue" stroke="midnightblue" points="578.31,-179.67 567.99,-182.1 577.57,-186.63 578.31,-179.67"/>
</g>
<!-- Node23&#45;&gt;Node19 -->
<g id="edge51" class="edge">
<title>Node23&#45;&gt;Node19</title>
<path fill="none" stroke="midnightblue" d="M1004.75,-224.08C997.03,-216.22 985.6,-204.57 976.28,-195.08"/>
<polygon fill="midnightblue" stroke="midnightblue" points="978.59,-192.44 969.09,-187.75 973.6,-197.34 978.59,-192.44"/>
</g>
<!-- Node24&#45;&gt;Node5 -->
<g id="edge53" class="edge">
<title>Node24&#45;&gt;Node5</title>
<path fill="none" stroke="midnightblue" d="M587.99,-224.43C561.51,-217.52 527.04,-205.94 500.5,-188 481.73,-175.31 465.28,-154.99 454.94,-140.45"/>
<polygon fill="midnightblue" stroke="midnightblue" points="457.6,-138.14 449.06,-131.86 451.82,-142.09 457.6,-138.14"/>
</g>
<!-- Node24&#45;&gt;Node7 -->
<g id="edge54" class="edge">
<title>Node24&#45;&gt;Node7</title>
<path fill="none" stroke="midnightblue" d="M637.45,-224.37C656.59,-205.89 701.78,-162.29 726.18,-138.74"/>
<polygon fill="midnightblue" stroke="midnightblue" points="728.83,-141.05 733.6,-131.59 723.97,-136.02 728.83,-141.05"/>
</g>
<!-- Node24&#45;&gt;Node13 -->
<g id="edge55" class="edge">
<title>Node24&#45;&gt;Node13</title>
<path fill="none" stroke="midnightblue" d="M614.04,-224.32C600,-215.9 578.45,-202.97 561.96,-193.07"/>
<polygon fill="midnightblue" stroke="midnightblue" points="563.3,-189.8 552.92,-187.65 559.7,-195.8 563.3,-189.8"/>
</g>
<!-- Node24&#45;&gt;Node19 -->
<g id="edge56" class="edge">
<title>Node24&#45;&gt;Node19</title>
<path fill="none" stroke="midnightblue" d="M673.52,-225.63C676.9,-225.08 680.25,-224.53 683.5,-224 757.06,-212.01 841.62,-198.28 897.77,-189.17"/>
<polygon fill="midnightblue" stroke="midnightblue" points="898.6,-192.58 907.91,-187.53 897.48,-185.67 898.6,-192.58"/>
</g>
<!-- Node25&#45;&gt;Node5 -->
<g id="edge58" class="edge">
<title>Node25&#45;&gt;Node5</title>
<path fill="none" stroke="midnightblue" d="M430.99,-224.11C429.11,-211.54 426.48,-187.88 429.5,-168 430.87,-159 433.69,-149.33 436.45,-141.26"/>
<polygon fill="midnightblue" stroke="midnightblue" points="439.77,-142.37 439.9,-131.78 433.19,-139.98 439.77,-142.37"/>
</g>
<!-- Node25&#45;&gt;Node7 -->
<g id="edge59" class="edge">
<title>Node25&#45;&gt;Node7</title>
<path fill="none" stroke="midnightblue" d="M466.03,-224.49C495.64,-216.52 539.7,-203.53 576.5,-188 593.72,-180.73 596.4,-175.55 613.5,-168 643.19,-154.9 678,-142.94 703.97,-134.66"/>
<polygon fill="midnightblue" stroke="midnightblue" points="705.33,-137.9 713.81,-131.56 703.22,-131.22 705.33,-137.9"/>
</g>
<!-- Node25&#45;&gt;Node13 -->
<g id="edge60" class="edge">
<title>Node25&#45;&gt;Node13</title>
<path fill="none" stroke="midnightblue" d="M449.53,-224.32C466.53,-215.66 492.88,-202.24 512.49,-192.25"/>
<polygon fill="midnightblue" stroke="midnightblue" points="514.19,-195.31 521.51,-187.65 511.01,-189.08 514.19,-195.31"/>
</g>
</g>
</svg>
