<?xml version="1.0" encoding="UTF-8" standalone="no"?>
<!DOCTYPE svg PUBLIC "-//W3C//DTD SVG 1.1//EN"
 "http://www.w3.org/Graphics/SVG/1.1/DTD/svg11.dtd">
<!-- Generated by graphviz version 3.0.0 (20220413.0242)
 -->
<!-- Title: model/model.hpp Pages: 1 -->
<svg width="1662pt" height="196pt"
 viewBox="0.00 0.00 1661.50 196.00" xmlns="http://www.w3.org/2000/svg" xmlns:xlink="http://www.w3.org/1999/xlink">
<g id="graph0" class="graph" transform="scale(1 1) rotate(0) translate(4 192)">
<title>model/model.hpp</title>
<!-- Node1 -->
<g id="node1" class="node">
<title>Node1</title>
<g id="a_node1"><a xlink:title="MODEL::Model source file.">
<polygon fill="#bfbfbf" stroke="black" points="634,-168.5 634,-187.5 724,-187.5 724,-168.5 634,-168.5"/>
<text text-anchor="middle" x="679" y="-175.5" font-family="Helvetica,sans-Serif" font-size="10.00">model/model.hpp</text>
</a>
</g>
</g>
<!-- Node2 -->
<g id="node2" class="node">
<title>Node2</title>
<g id="a_node2"><a xlink:href="densesystem_8hpp.html" target="_top" xlink:title="ALGEBRA::DenseSystem source file.">
<polygon fill="none" stroke="black" points="762.5,-112.5 762.5,-131.5 889.5,-131.5 889.5,-112.5 762.5,-112.5"/>
<text text-anchor="middle" x="826" y="-119.5" font-family="Helvetica,sans-Serif" font-size="10.00">algebra/densesystem.hpp</text>
</a>
</g>
</g>
<!-- Node1&#45;&gt;Node2 -->
<g id="edge1" class="edge">
<title>Node1&#45;&gt;Node2</title>
<path fill="none" stroke="midnightblue" d="M706.53,-164.77C732.62,-154.63 771.4,-140.47 797.74,-131.52"/>
<polygon fill="midnightblue" stroke="midnightblue" points="705.23,-161.52 697.2,-168.44 707.79,-168.04 705.23,-161.52"/>
</g>
<!-- Node3 -->
<g id="node3" class="node">
<title>Node3</title>
<g id="a_node3"><a xlink:href="main_8cpp.html" target="_top" xlink:title="Main routine of svZeroDSolver.">
<polygon fill="none" stroke="black" points="271,-56.5 271,-75.5 327,-75.5 327,-56.5 271,-56.5"/>
<text text-anchor="middle" x="299" y="-63.5" font-family="Helvetica,sans-Serif" font-size="10.00">main.cpp</text>
</a>
</g>
</g>
<!-- Node1&#45;&gt;Node3 -->
<g id="edge54" class="edge">
<title>Node1&#45;&gt;Node3</title>
<path fill="none" stroke="midnightblue" d="M623.45,-174.09C543.12,-169.07 399.19,-156.87 354,-132 329.91,-118.74 311.79,-90.44 303.68,-75.95"/>
<polygon fill="midnightblue" stroke="midnightblue" points="623.67,-177.61 633.87,-174.72 624.1,-170.62 623.67,-177.61"/>
</g>
<!-- Node15 -->
<g id="node15" class="node">
<title>Node15</title>
<g id="a_node15"><a xlink:href="integrator_8hpp.html" target="_top" xlink:title="ALGEBRA::Integrator source file.">
<polygon fill="none" stroke="black" points="363,-112.5 363,-131.5 473,-131.5 473,-112.5 363,-112.5"/>
<text text-anchor="middle" x="418" y="-119.5" font-family="Helvetica,sans-Serif" font-size="10.00">algebra/integrator.hpp</text>
</a>
</g>
</g>
<!-- Node1&#45;&gt;Node15 -->
<g id="edge32" class="edge">
<title>Node1&#45;&gt;Node15</title>
<path fill="none" stroke="midnightblue" d="M627.81,-166.41C578.49,-156.2 504.81,-140.96 459.16,-131.52"/>
<polygon fill="midnightblue" stroke="midnightblue" points="627.14,-169.84 637.64,-168.44 628.56,-162.99 627.14,-169.84"/>
</g>
<!-- Node16 -->
<g id="node16" class="node">
<title>Node16</title>
<g id="a_node16"><a xlink:href="sparsesystem_8hpp.html" target="_top" xlink:title="ALGEBRA::SparseSystem source file.">
<polygon fill="none" stroke="black" points="614,-112.5 614,-131.5 744,-131.5 744,-112.5 614,-112.5"/>
<text text-anchor="middle" x="679" y="-119.5" font-family="Helvetica,sans-Serif" font-size="10.00">algebra/sparsesystem.hpp</text>
</a>
</g>
</g>
<!-- Node1&#45;&gt;Node16 -->
<g id="edge34" class="edge">
<title>Node1&#45;&gt;Node16</title>
<path fill="none" stroke="midnightblue" d="M672.53,-158.1C671.9,-149.14 672.34,-138.86 673.87,-131.75"/>
<polygon fill="midnightblue" stroke="midnightblue" points="669.07,-158.62 673.83,-168.08 676.01,-157.71 669.07,-158.62"/>
</g>
<!-- Node17 -->
<g id="node17" class="node">
<title>Node17</title>
<g id="a_node17"><a xlink:href="configreader_8hpp.html" target="_top" xlink:title="IO::ConfigReader source file.">
<polygon fill="none" stroke="black" points="0,-112.5 0,-131.5 98,-131.5 98,-112.5 0,-112.5"/>
<text text-anchor="middle" x="49" y="-119.5" font-family="Helvetica,sans-Serif" font-size="10.00">io/configreader.hpp</text>
</a>
</g>
</g>
<!-- Node1&#45;&gt;Node17 -->
<g id="edge48" class="edge">
<title>Node1&#45;&gt;Node17</title>
<path fill="none" stroke="midnightblue" d="M623.55,-174.03C521.24,-168.25 295.92,-154.06 107,-132 104.06,-131.66 101.05,-131.28 98.01,-130.87"/>
<polygon fill="midnightblue" stroke="midnightblue" points="623.47,-177.53 633.65,-174.6 623.87,-170.54 623.47,-177.53"/>
</g>
<!-- Node18 -->
<g id="node18" class="node">
<title>Node18</title>
<g id="a_node18"><a xlink:href="csvwriter_8hpp.html" target="_top" xlink:title="IO::write_csv source file.">
<polygon fill="none" stroke="black" points="116.5,-112.5 116.5,-131.5 201.5,-131.5 201.5,-112.5 116.5,-112.5"/>
<text text-anchor="middle" x="159" y="-119.5" font-family="Helvetica,sans-Serif" font-size="10.00">io/csvwriter.hpp</text>
</a>
</g>
</g>
<!-- Node1&#45;&gt;Node18 -->
<g id="edge50" class="edge">
<title>Node1&#45;&gt;Node18</title>
<path fill="none" stroke="midnightblue" d="M623.91,-173.13C536.11,-166.65 359.11,-152.28 210,-132 207.24,-131.62 204.4,-131.21 201.54,-130.77"/>
<polygon fill="midnightblue" stroke="midnightblue" points="623.69,-176.63 633.92,-173.87 624.2,-169.64 623.69,-176.63"/>
</g>
<!-- Node19 -->
<g id="node19" class="node">
<title>Node19</title>
<g id="a_node19"><a xlink:href="jsonwriter_8hpp.html" target="_top" xlink:title="IO::write_json source file.">
<polygon fill="none" stroke="black" points="219.5,-112.5 219.5,-131.5 306.5,-131.5 306.5,-112.5 219.5,-112.5"/>
<text text-anchor="middle" x="263" y="-119.5" font-family="Helvetica,sans-Serif" font-size="10.00">io/jsonwriter.hpp</text>
</a>
</g>
</g>
<!-- Node1&#45;&gt;Node19 -->
<g id="edge52" class="edge">
<title>Node1&#45;&gt;Node19</title>
<path fill="none" stroke="midnightblue" d="M623.76,-170.56C553.38,-162.24 428.02,-147.03 321,-132 316.36,-131.35 311.51,-130.64 306.68,-129.92"/>
<polygon fill="midnightblue" stroke="midnightblue" points="623.39,-174.04 633.73,-171.74 624.21,-167.09 623.39,-174.04"/>
</g>
<!-- Node2&#45;&gt;Node1 -->
<g id="edge27" class="edge">
<title>Node2&#45;&gt;Node1</title>
<path fill="none" stroke="midnightblue" d="M798.59,-135.18C772.53,-145.31 733.76,-159.48 707.38,-168.44"/>
<polygon fill="midnightblue" stroke="midnightblue" points="799.87,-138.44 807.9,-131.52 797.31,-131.92 799.87,-138.44"/>
</g>
<!-- Node2&#45;&gt;Node3 -->
<g id="edge2" class="edge">
<title>Node2&#45;&gt;Node3</title>
<path fill="none" stroke="midnightblue" d="M752.31,-111.95C584.5,-93.4 397.13,-75.96 327.18,-69.56"/>
<polygon fill="midnightblue" stroke="midnightblue" points="751.98,-115.43 762.31,-113.06 752.76,-108.48 751.98,-115.43"/>
</g>
<!-- Node4 -->
<g id="node4" class="node">
<title>Node4</title>
<g id="a_node4"><a xlink:href="block_8hpp.html" target="_top" xlink:title="MODEL::Block source file.">
<polygon fill="none" stroke="black" points="763.5,-56.5 763.5,-75.5 850.5,-75.5 850.5,-56.5 763.5,-56.5"/>
<text text-anchor="middle" x="807" y="-63.5" font-family="Helvetica,sans-Serif" font-size="10.00">model/block.hpp</text>
</a>
</g>
</g>
<!-- Node2&#45;&gt;Node4 -->
<g id="edge3" class="edge">
<title>Node2&#45;&gt;Node4</title>
<path fill="none" stroke="midnightblue" d="M819.45,-102.4C816.28,-93.36 812.61,-82.94 810.08,-75.75"/>
<polygon fill="midnightblue" stroke="midnightblue" points="816.24,-103.81 822.86,-112.08 822.85,-101.49 816.24,-103.81"/>
</g>
<!-- Node5 -->
<g id="node5" class="node">
<title>Node5</title>
<g id="a_node5"><a xlink:href="bloodvessel_8hpp.html" target="_top" xlink:title="MODEL::BloodVessel source file.">
<polygon fill="none" stroke="black" points="1082,-0.5 1082,-19.5 1198,-19.5 1198,-0.5 1082,-0.5"/>
<text text-anchor="middle" x="1140" y="-7.5" font-family="Helvetica,sans-Serif" font-size="10.00">model/bloodvessel.hpp</text>
</a>
</g>
</g>
<!-- Node2&#45;&gt;Node5 -->
<g id="edge21" class="edge">
<title>Node2&#45;&gt;Node5</title>
<path fill="none" stroke="midnightblue" d="M881.33,-110.41C917.64,-102.7 965.84,-90.98 1007,-76 1051.44,-59.82 1100.7,-33.32 1124.9,-19.69"/>
<polygon fill="midnightblue" stroke="midnightblue" points="880.49,-107.01 871.42,-112.48 881.92,-113.87 880.49,-107.01"/>
</g>
<!-- Node6 -->
<g id="node6" class="node">
<title>Node6</title>
<g id="a_node6"><a xlink:href="closedloop_r_c_rbc_8hpp_source.html" target="_top" xlink:title=" ">
<polygon fill="none" stroke="black" points="382.5,-0.5 382.5,-19.5 523.5,-19.5 523.5,-0.5 382.5,-0.5"/>
<text text-anchor="middle" x="453" y="-7.5" font-family="Helvetica,sans-Serif" font-size="10.00">model/closedloopRCRbc.hpp</text>
</a>
</g>
</g>
<!-- Node2&#45;&gt;Node6 -->
<g id="edge22" class="edge">
<title>Node2&#45;&gt;Node6</title>
<path fill="none" stroke="midnightblue" d="M787.04,-109.51C711.87,-87.34 548.38,-39.13 481.94,-19.53"/>
<polygon fill="midnightblue" stroke="midnightblue" points="786.46,-112.99 797.04,-112.46 788.44,-106.27 786.46,-112.99"/>
</g>
<!-- Node7 -->
<g id="node7" class="node">
<title>Node7</title>
<g id="a_node7"><a xlink:href="closedloopcoronarybc_8hpp_source.html" target="_top" xlink:title=" ">
<polygon fill="none" stroke="black" points="542,-0.5 542,-19.5 700,-19.5 700,-0.5 542,-0.5"/>
<text text-anchor="middle" x="621" y="-7.5" font-family="Helvetica,sans-Serif" font-size="10.00">model/closedloopcoronarybc.hpp</text>
</a>
</g>
</g>
<!-- Node2&#45;&gt;Node7 -->
<g id="edge23" class="edge">
<title>Node2&#45;&gt;Node7</title>
<path fill="none" stroke="midnightblue" d="M801.01,-107.59C758.33,-84.69 672.57,-38.67 637.01,-19.59"/>
<polygon fill="midnightblue" stroke="midnightblue" points="799.45,-110.72 809.91,-112.37 802.76,-104.56 799.45,-110.72"/>
</g>
<!-- Node8 -->
<g id="node8" class="node">
<title>Node8</title>
<g id="a_node8"><a xlink:href="closedloopheartpulmonary_8hpp.html" target="_top" xlink:title="MODEL::ClosedLoopHeartPulmonary source file.">
<polygon fill="none" stroke="black" points="718,-0.5 718,-19.5 894,-19.5 894,-0.5 718,-0.5"/>
<text text-anchor="middle" x="806" y="-7.5" font-family="Helvetica,sans-Serif" font-size="10.00">model/closedloopheartpulmonary.hpp</text>
</a>
</g>
</g>
<!-- Node2&#45;&gt;Node8 -->
<g id="edge24" class="edge">
<title>Node2&#45;&gt;Node8</title>
<path fill="none" stroke="midnightblue" d="M843.46,-105.01C855.48,-91.97 867.96,-73 860,-56 852.34,-39.64 835.49,-27.16 822.63,-19.54"/>
<polygon fill="midnightblue" stroke="midnightblue" points="840.79,-102.73 836.22,-112.29 845.76,-107.67 840.79,-102.73"/>
</g>
<!-- Node9 -->
<g id="node9" class="node">
<title>Node9</title>
<g id="a_node9"><a xlink:href="flowreferencebc_8hpp.html" target="_top" xlink:title="MODEL::FlowReferenceBC source file.">
<polygon fill="none" stroke="black" points="1384,-0.5 1384,-19.5 1516,-19.5 1516,-0.5 1384,-0.5"/>
<text text-anchor="middle" x="1450" y="-7.5" font-family="Helvetica,sans-Serif" font-size="10.00">model/flowreferencebc.hpp</text>
</a>
</g>
</g>
<!-- Node2&#45;&gt;Node9 -->
<g id="edge25" class="edge">
<title>Node2&#45;&gt;Node9</title>
<path fill="none" stroke="midnightblue" d="M899.64,-116.99C982.01,-111.56 1119.1,-99.68 1235,-76 1306.25,-61.44 1387.8,-33.6 1426.82,-19.55"/>
<polygon fill="midnightblue" stroke="midnightblue" points="899.37,-113.5 889.62,-117.64 899.82,-120.48 899.37,-113.5"/>
</g>
<!-- Node10 -->
<g id="node10" class="node">
<title>Node10</title>
<g id="a_node10"><a xlink:href="junction_8hpp.html" target="_top" xlink:title="MODEL::Junction source file.">
<polygon fill="none" stroke="black" points="266,-0.5 266,-19.5 364,-19.5 364,-0.5 266,-0.5"/>
<text text-anchor="middle" x="315" y="-7.5" font-family="Helvetica,sans-Serif" font-size="10.00">model/junction.hpp</text>
</a>
</g>
</g>
<!-- Node2&#45;&gt;Node10 -->
<g id="edge26" class="edge">
<title>Node2&#45;&gt;Node10</title>
<path fill="none" stroke="midnightblue" d="M770.46,-110.54C725.04,-101.83 659.22,-88.81 602,-76 565.81,-67.9 557.12,-64.4 521,-56 463.77,-42.69 397.33,-28.38 355.72,-19.56"/>
<polygon fill="midnightblue" stroke="midnightblue" points="769.92,-114 780.4,-112.45 771.24,-107.13 769.92,-114"/>
</g>
<!-- Node11 -->
<g id="node11" class="node">
<title>Node11</title>
<g id="a_node11"><a xlink:href="openloopcoronarybc_8hpp.html" target="_top" xlink:title="MODEL::ClosedLoopCoronaryBC source file.">
<polygon fill="none" stroke="black" points="1216,-0.5 1216,-19.5 1366,-19.5 1366,-0.5 1216,-0.5"/>
<text text-anchor="middle" x="1291" y="-7.5" font-family="Helvetica,sans-Serif" font-size="10.00">model/openloopcoronarybc.hpp</text>
</a>
</g>
</g>
<!-- Node2&#45;&gt;Node11 -->
<g id="edge28" class="edge">
<title>Node2&#45;&gt;Node11</title>
<path fill="none" stroke="midnightblue" d="M899.7,-114.18C959.92,-107.56 1046.9,-95.58 1121,-76 1177.82,-60.99 1241.82,-33.48 1272.56,-19.55"/>
<polygon fill="midnightblue" stroke="midnightblue" points="899.09,-110.72 889.53,-115.28 899.84,-117.68 899.09,-110.72"/>
</g>
<!-- Node12 -->
<g id="node12" class="node">
<title>Node12</title>
<g id="a_node12"><a xlink:href="pressurereferencebc_8hpp.html" target="_top" xlink:title="MODEL::PressureReferenceBC source file.">
<polygon fill="none" stroke="black" points="912,-0.5 912,-19.5 1064,-19.5 1064,-0.5 912,-0.5"/>
<text text-anchor="middle" x="988" y="-7.5" font-family="Helvetica,sans-Serif" font-size="10.00">model/pressurereferencebc.hpp</text>
</a>
</g>
</g>
<!-- Node2&#45;&gt;Node12 -->
<g id="edge29" class="edge">
<title>Node2&#45;&gt;Node12</title>
<path fill="none" stroke="midnightblue" d="M847.04,-106.71C881.18,-83.53 947.6,-38.43 975.35,-19.59"/>
<polygon fill="midnightblue" stroke="midnightblue" points="845.02,-103.86 838.71,-112.37 848.95,-109.65 845.02,-103.86"/>
</g>
<!-- Node13 -->
<g id="node13" class="node">
<title>Node13</title>
<g id="a_node13"><a xlink:href="resistancebc_8hpp.html" target="_top" xlink:title="MODEL::ResistanceBC source file.">
<polygon fill="none" stroke="black" points="1534.5,-0.5 1534.5,-19.5 1653.5,-19.5 1653.5,-0.5 1534.5,-0.5"/>
<text text-anchor="middle" x="1594" y="-7.5" font-family="Helvetica,sans-Serif" font-size="10.00">model/resistancebc.hpp</text>
</a>
</g>
</g>
<!-- Node2&#45;&gt;Node13 -->
<g id="edge30" class="edge">
<title>Node2&#45;&gt;Node13</title>
<path fill="none" stroke="midnightblue" d="M899.7,-119.48C1004.54,-116.27 1202.4,-106.38 1368,-76 1443.29,-62.19 1529.53,-33.74 1570.29,-19.5"/>
<polygon fill="midnightblue" stroke="midnightblue" points="899.43,-115.98 889.54,-119.77 899.64,-122.98 899.43,-115.98"/>
</g>
<!-- Node14 -->
<g id="node14" class="node">
<title>Node14</title>
<g id="a_node14"><a xlink:href="windkesselbc_8hpp.html" target="_top" xlink:title="MODEL::WindkesselBC source file.">
<polygon fill="none" stroke="black" points="124.5,-0.5 124.5,-19.5 247.5,-19.5 247.5,-0.5 124.5,-0.5"/>
<text text-anchor="middle" x="186" y="-7.5" font-family="Helvetica,sans-Serif" font-size="10.00">model/windkesselbc.hpp</text>
</a>
</g>
</g>
<!-- Node2&#45;&gt;Node14 -->
<g id="edge31" class="edge">
<title>Node2&#45;&gt;Node14</title>
<path fill="none" stroke="midnightblue" d="M752.32,-111.7C690.39,-103.5 599.64,-90.62 521,-76 481.14,-68.59 471.73,-64.09 432,-56 364.36,-42.22 285.84,-28.2 236.06,-19.55"/>
<polygon fill="midnightblue" stroke="midnightblue" points="752.02,-115.19 762.39,-113.02 752.93,-108.25 752.02,-115.19"/>
</g>
<!-- Node4&#45;&gt;Node5 -->
<g id="edge4" class="edge">
<title>Node4&#45;&gt;Node5</title>
<path fill="none" stroke="midnightblue" d="M860.57,-56.31C922.97,-46.19 1025.41,-29.58 1087.4,-19.53"/>
<polygon fill="midnightblue" stroke="midnightblue" points="859.84,-52.88 850.53,-57.94 860.97,-59.79 859.84,-52.88"/>
</g>
<!-- Node4&#45;&gt;Node6 -->
<g id="edge6" class="edge">
<title>Node4&#45;&gt;Node6</title>
<path fill="none" stroke="midnightblue" d="M753.04,-56.77C687.02,-46.7 575.79,-29.73 508.89,-19.53"/>
<polygon fill="midnightblue" stroke="midnightblue" points="752.82,-60.28 763.24,-58.32 753.88,-53.36 752.82,-60.28"/>
</g>
<!-- Node4&#45;&gt;Node7 -->
<g id="edge7" class="edge">
<title>Node4&#45;&gt;Node7</title>
<path fill="none" stroke="midnightblue" d="M767.62,-53.57C732.53,-43.38 681.98,-28.7 650.33,-19.52"/>
<polygon fill="midnightblue" stroke="midnightblue" points="766.95,-57.02 777.53,-56.44 768.9,-50.29 766.95,-57.02"/>
</g>
<!-- Node4&#45;&gt;Node8 -->
<g id="edge8" class="edge">
<title>Node4&#45;&gt;Node8</title>
<path fill="none" stroke="midnightblue" d="M806.64,-45.8C806.48,-36.91 806.29,-26.78 806.16,-19.75"/>
<polygon fill="midnightblue" stroke="midnightblue" points="803.15,-46.15 806.83,-56.08 810.15,-46.02 803.15,-46.15"/>
</g>
<!-- Node4&#45;&gt;Node9 -->
<g id="edge9" class="edge">
<title>Node4&#45;&gt;Node9</title>
<path fill="none" stroke="midnightblue" d="M860.76,-61.47C961.67,-54.67 1186.29,-38.79 1375,-20 1377.87,-19.71 1380.8,-19.41 1383.76,-19.1"/>
<polygon fill="midnightblue" stroke="midnightblue" points="860.26,-57.99 850.52,-62.15 860.73,-64.98 860.26,-57.99"/>
</g>
<!-- Node4&#45;&gt;Node10 -->
<g id="edge11" class="edge">
<title>Node4&#45;&gt;Node10</title>
<path fill="none" stroke="midnightblue" d="M753.21,-60.24C671.25,-52.81 510.23,-37.46 374,-20 370.81,-19.59 367.53,-19.15 364.23,-18.69"/>
<polygon fill="midnightblue" stroke="midnightblue" points="753.01,-63.74 763.28,-61.15 753.64,-56.77 753.01,-63.74"/>
</g>
<!-- Node4&#45;&gt;Node11 -->
<g id="edge13" class="edge">
<title>Node4&#45;&gt;Node11</title>
<path fill="none" stroke="midnightblue" d="M860.93,-58.98C947.48,-49.33 1117.59,-30.35 1215.95,-19.37"/>
<polygon fill="midnightblue" stroke="midnightblue" points="860.36,-55.53 850.81,-60.11 861.13,-62.48 860.36,-55.53"/>
</g>
<!-- Node4&#45;&gt;Node12 -->
<g id="edge15" class="edge">
<title>Node4&#45;&gt;Node12</title>
<path fill="none" stroke="midnightblue" d="M845.32,-53.57C879.46,-43.38 928.66,-28.7 959.45,-19.52"/>
<polygon fill="midnightblue" stroke="midnightblue" points="844.26,-50.23 835.68,-56.44 846.26,-56.94 844.26,-50.23"/>
</g>
<!-- Node4&#45;&gt;Node13 -->
<g id="edge17" class="edge">
<title>Node4&#45;&gt;Node13</title>
<path fill="none" stroke="midnightblue" d="M860.79,-62.86C980.39,-57.84 1277.36,-43.88 1525,-20 1528.01,-19.71 1531.08,-19.39 1534.19,-19.05"/>
<polygon fill="midnightblue" stroke="midnightblue" points="860.64,-59.37 850.79,-63.28 860.93,-66.36 860.64,-59.37"/>
</g>
<!-- Node4&#45;&gt;Node14 -->
<g id="edge19" class="edge">
<title>Node4&#45;&gt;Node14</title>
<path fill="none" stroke="midnightblue" d="M753.45,-61.41C655.02,-54.64 438.76,-38.95 257,-20 253.91,-19.68 250.75,-19.33 247.55,-18.97"/>
<polygon fill="midnightblue" stroke="midnightblue" points="753.23,-64.91 763.45,-62.1 753.71,-57.92 753.23,-64.91"/>
</g>
<!-- Node5&#45;&gt;Node1 -->
<g id="edge5" class="edge">
<title>Node5&#45;&gt;Node1</title>
<path fill="none" stroke="midnightblue" d="M1119.6,-25.49C1082.51,-51.11 1000.79,-104.31 924,-132 856.88,-156.21 774.5,-167.9 724.42,-173.16"/>
<polygon fill="midnightblue" stroke="midnightblue" points="1121.83,-28.2 1128.03,-19.61 1117.83,-22.46 1121.83,-28.2"/>
</g>
<!-- Node9&#45;&gt;Node1 -->
<g id="edge10" class="edge">
<title>Node9&#45;&gt;Node1</title>
<path fill="none" stroke="midnightblue" d="M1413.39,-22.75C1338.07,-46.53 1159.94,-100.76 1007,-132 906.9,-152.45 787.68,-166.19 724.14,-172.69"/>
<polygon fill="midnightblue" stroke="midnightblue" points="1414.85,-25.96 1423.33,-19.6 1412.74,-19.28 1414.85,-25.96"/>
</g>
<!-- Node10&#45;&gt;Node1 -->
<g id="edge12" class="edge">
<title>Node10&#45;&gt;Node1</title>
<path fill="none" stroke="midnightblue" d="M343.18,-23.85C414.44,-56.35 600.41,-141.16 660.2,-168.42"/>
<polygon fill="midnightblue" stroke="midnightblue" points="344.46,-20.59 333.91,-19.62 341.56,-26.96 344.46,-20.59"/>
</g>
<!-- Node11&#45;&gt;Node1 -->
<g id="edge14" class="edge">
<title>Node11&#45;&gt;Node1</title>
<path fill="none" stroke="midnightblue" d="M1262.25,-23.65C1205.54,-48.11 1074.79,-102.12 960,-132 878.24,-153.28 780.33,-166.21 724.32,-172.45"/>
<polygon fill="midnightblue" stroke="midnightblue" points="1263.86,-26.76 1271.65,-19.57 1261.08,-20.34 1263.86,-26.76"/>
</g>
<!-- Node12&#45;&gt;Node1 -->
<g id="edge16" class="edge">
<title>Node12&#45;&gt;Node1</title>
<path fill="none" stroke="midnightblue" d="M979.98,-29.14C967.05,-56.13 938.95,-106.44 899,-132 845.64,-166.14 771.38,-175.07 724.25,-177.04"/>
<polygon fill="midnightblue" stroke="midnightblue" points="983.31,-30.28 984.32,-19.73 976.95,-27.35 983.31,-30.28"/>
</g>
<!-- Node13&#45;&gt;Node1 -->
<g id="edge18" class="edge">
<title>Node13&#45;&gt;Node1</title>
<path fill="none" stroke="midnightblue" d="M1552.58,-22.07C1463.7,-45.46 1247.83,-100.37 1064,-132 941.97,-153 796.47,-167.06 724.27,-173.31"/>
<polygon fill="midnightblue" stroke="midnightblue" points="1553.5,-25.44 1562.28,-19.51 1551.72,-18.68 1553.5,-25.44"/>
</g>
<!-- Node14&#45;&gt;Node1 -->
<g id="edge20" class="edge">
<title>Node14&#45;&gt;Node1</title>
<path fill="none" stroke="midnightblue" d="M232.05,-22.06C262.19,-29.96 302.13,-41.71 336,-56 352.86,-63.12 355.23,-68.68 372,-76 419.14,-96.58 433.28,-95.48 482,-112 507.43,-120.62 513.55,-123.45 539,-132 577.96,-145.09 623.29,-159.52 651.57,-168.42"/>
<polygon fill="midnightblue" stroke="midnightblue" points="232.78,-18.63 222.22,-19.52 231.03,-25.41 232.78,-18.63"/>
</g>
<!-- Node15&#45;&gt;Node3 -->
<g id="edge33" class="edge">
<title>Node15&#45;&gt;Node3</title>
<path fill="none" stroke="midnightblue" d="M389.86,-108.23C367.6,-98.13 337.14,-84.31 317.77,-75.52"/>
<polygon fill="midnightblue" stroke="midnightblue" points="388.59,-111.5 399.14,-112.44 391.48,-105.12 388.59,-111.5"/>
</g>
<!-- Node16&#45;&gt;Node1 -->
<g id="edge43" class="edge">
<title>Node16&#45;&gt;Node1</title>
<path fill="none" stroke="midnightblue" d="M685.46,-141.69C686.11,-150.64 685.68,-160.93 684.17,-168.08"/>
<polygon fill="midnightblue" stroke="midnightblue" points="688.92,-141.2 684.13,-131.75 681.98,-142.13 688.92,-141.2"/>
</g>
<!-- Node16&#45;&gt;Node3 -->
<g id="edge35" class="edge">
<title>Node16&#45;&gt;Node3</title>
<path fill="none" stroke="midnightblue" d="M608.74,-111.02C524.14,-98.99 386.06,-79.37 327.11,-71"/>
<polygon fill="midnightblue" stroke="midnightblue" points="608.39,-114.5 618.79,-112.44 609.38,-107.57 608.39,-114.5"/>
</g>
<!-- Node16&#45;&gt;Node4 -->
<g id="edge36" class="edge">
<title>Node16&#45;&gt;Node4</title>
<path fill="none" stroke="midnightblue" d="M708.62,-108.5C732.62,-98.38 765.78,-84.39 786.81,-75.52"/>
<polygon fill="midnightblue" stroke="midnightblue" points="707.14,-105.33 699.28,-112.44 709.86,-111.78 707.14,-105.33"/>
</g>
<!-- Node16&#45;&gt;Node5 -->
<g id="edge37" class="edge">
<title>Node16&#45;&gt;Node5</title>
<path fill="none" stroke="midnightblue" d="M731.46,-110.48C774.24,-101.75 836.18,-88.73 890,-76 969.21,-57.27 1061.77,-32.42 1108.93,-19.55"/>
<polygon fill="midnightblue" stroke="midnightblue" points="730.66,-107.08 721.56,-112.5 732.06,-113.93 730.66,-107.08"/>
</g>
<!-- Node16&#45;&gt;Node6 -->
<g id="edge38" class="edge">
<title>Node16&#45;&gt;Node6</title>
<path fill="none" stroke="midnightblue" d="M652.04,-107.88C605.2,-85.08 510.02,-38.75 470.65,-19.59"/>
<polygon fill="midnightblue" stroke="midnightblue" points="650.74,-111.14 661.27,-112.37 653.81,-104.85 650.74,-111.14"/>
</g>
<!-- Node16&#45;&gt;Node7 -->
<g id="edge39" class="edge">
<title>Node16&#45;&gt;Node7</title>
<path fill="none" stroke="midnightblue" d="M669.68,-103.32C657.05,-79.37 635,-37.55 625.53,-19.59"/>
<polygon fill="midnightblue" stroke="midnightblue" points="666.69,-105.16 674.45,-112.37 672.88,-101.89 666.69,-105.16"/>
</g>
<!-- Node16&#45;&gt;Node8 -->
<g id="edge40" class="edge">
<title>Node16&#45;&gt;Node8</title>
<path fill="none" stroke="midnightblue" d="M696.53,-105.82C723.58,-82.39 774.61,-38.19 796.08,-19.59"/>
<polygon fill="midnightblue" stroke="midnightblue" points="694.23,-103.18 688.97,-112.37 698.82,-108.47 694.23,-103.18"/>
</g>
<!-- Node16&#45;&gt;Node9 -->
<g id="edge41" class="edge">
<title>Node16&#45;&gt;Node9</title>
<path fill="none" stroke="midnightblue" d="M752.48,-111.12C818.97,-102.13 919.58,-88.41 1007,-76 1145.72,-56.31 1308.72,-32.12 1393.03,-19.53"/>
<polygon fill="midnightblue" stroke="midnightblue" points="751.96,-107.66 742.52,-112.46 752.9,-114.59 751.96,-107.66"/>
</g>
<!-- Node16&#45;&gt;Node10 -->
<g id="edge42" class="edge">
<title>Node16&#45;&gt;Node10</title>
<path fill="none" stroke="midnightblue" d="M640.98,-109.51C567.62,-87.34 408.07,-39.13 343.24,-19.53"/>
<polygon fill="midnightblue" stroke="midnightblue" points="640.16,-112.92 650.74,-112.46 642.18,-106.22 640.16,-112.92"/>
</g>
<!-- Node16&#45;&gt;Node11 -->
<g id="edge44" class="edge">
<title>Node16&#45;&gt;Node11</title>
<path fill="none" stroke="midnightblue" d="M739.69,-110.82C792.82,-101.84 872.07,-88.32 941,-76 1050.81,-56.37 1179.77,-32.11 1246.28,-19.5"/>
<polygon fill="midnightblue" stroke="midnightblue" points="739.03,-107.38 729.75,-112.49 740.19,-114.28 739.03,-107.38"/>
</g>
<!-- Node16&#45;&gt;Node12 -->
<g id="edge45" class="edge">
<title>Node16&#45;&gt;Node12</title>
<path fill="none" stroke="midnightblue" d="M740.44,-110.51C776.18,-103.25 821.61,-91.97 860,-76 875.83,-69.41 877.9,-64.13 893,-56 918.55,-42.25 949.01,-28.22 968.42,-19.56"/>
<polygon fill="midnightblue" stroke="midnightblue" points="739.76,-107.08 730.63,-112.46 741.12,-113.95 739.76,-107.08"/>
</g>
<!-- Node16&#45;&gt;Node13 -->
<g id="edge46" class="edge">
<title>Node16&#45;&gt;Node13</title>
<path fill="none" stroke="midnightblue" d="M753.69,-112.03C753.8,-112.02 753.9,-112.01 754,-112 902.35,-95.11 939.72,-93.49 1088,-76 1282.46,-53.06 1330.81,-45.11 1525,-20 1528,-19.61 1531.06,-19.22 1534.16,-18.81"/>
<polygon fill="midnightblue" stroke="midnightblue" points="753.57,-108.53 744.04,-113.15 754.37,-115.48 753.57,-108.53"/>
</g>
<!-- Node16&#45;&gt;Node14 -->
<g id="edge47" class="edge">
<title>Node16&#45;&gt;Node14</title>
<path fill="none" stroke="midnightblue" d="M625.3,-110.44C580.9,-101.59 516.26,-88.45 460,-76 373.6,-56.88 272.4,-32.3 220.53,-19.54"/>
<polygon fill="midnightblue" stroke="midnightblue" points="624.8,-113.91 635.29,-112.42 626.16,-107.04 624.8,-113.91"/>
</g>
<!-- Node17&#45;&gt;Node3 -->
<g id="edge49" class="edge">
<title>Node17&#45;&gt;Node3</title>
<path fill="none" stroke="midnightblue" d="M98.54,-110.3C150.11,-99.16 229.05,-82.11 270.82,-73.09"/>
<polygon fill="midnightblue" stroke="midnightblue" points="97.65,-106.91 88.61,-112.44 99.13,-113.75 97.65,-106.91"/>
</g>
<!-- Node18&#45;&gt;Node3 -->
<g id="edge51" class="edge">
<title>Node18&#45;&gt;Node3</title>
<path fill="none" stroke="midnightblue" d="M190.7,-108.77C217,-98.63 253.72,-84.47 276.92,-75.52"/>
<polygon fill="midnightblue" stroke="midnightblue" points="189.25,-105.58 181.18,-112.44 191.77,-112.11 189.25,-105.58"/>
</g>
<!-- Node19&#45;&gt;Node3 -->
<g id="edge53" class="edge">
<title>Node19&#45;&gt;Node3</title>
<path fill="none" stroke="midnightblue" d="M274.62,-103.57C280.82,-94.27 288.17,-83.25 293.17,-75.75"/>
<polygon fill="midnightblue" stroke="midnightblue" points="271.58,-101.82 268.94,-112.08 277.4,-105.7 271.58,-101.82"/>
</g>
</g>
</svg>
