<?xml version="1.0" encoding="UTF-8" standalone="no"?>
<!DOCTYPE svg PUBLIC "-//W3C//DTD SVG 1.1//EN"
 "http://www.w3.org/Graphics/SVG/1.1/DTD/svg11.dtd">
<!-- Generated by graphviz version 3.0.0 (20220413.0242)
 -->
<!-- Title: model/model.hpp Pages: 1 -->
<svg width="608pt" height="252pt"
 viewBox="0.00 0.00 607.64 252.00" xmlns="http://www.w3.org/2000/svg" xmlns:xlink="http://www.w3.org/1999/xlink">
<g id="graph0" class="graph" transform="scale(1 1) rotate(0) translate(4 248)">
<title>model/model.hpp</title>
<!-- Node1 -->
<g id="node1" class="node">
<title>Node1</title>
<g id="a_node1"><a xlink:title="MODEL::Model source file.">
<polygon fill="#bfbfbf" stroke="black" points="238,-224.5 238,-243.5 328,-243.5 328,-224.5 238,-224.5"/>
<text text-anchor="middle" x="283" y="-231.5" font-family="Helvetica,sans-Serif" font-size="10.00">model/model.hpp</text>
</a>
</g>
</g>
<!-- Node2 -->
<g id="node2" class="node">
<title>Node2</title>
<g id="a_node2"><a xlink:title=" ">
<polygon fill="none" stroke="#bfbfbf" points="0,-168.5 0,-187.5 56,-187.5 56,-168.5 0,-168.5"/>
<text text-anchor="middle" x="28" y="-175.5" font-family="Helvetica,sans-Serif" font-size="10.00">algorithm</text>
</a>
</g>
</g>
<!-- Node1&#45;&gt;Node2 -->
<g id="edge1" class="edge">
<title>Node1&#45;&gt;Node2</title>
<path fill="none" stroke="midnightblue" d="M238.84,-224.5C196.69,-216.25 131.16,-203.1 66.26,-188.46"/>
<polygon fill="midnightblue" stroke="midnightblue" points="66.8,-184.99 56.27,-186.19 65.25,-191.82 66.8,-184.99"/>
</g>
<!-- Node3 -->
<g id="node3" class="node">
<title>Node3</title>
<g id="a_node3"><a xlink:title=" ">
<polygon fill="none" stroke="#bfbfbf" points="73.5,-168.5 73.5,-187.5 102.5,-187.5 102.5,-168.5 73.5,-168.5"/>
<text text-anchor="middle" x="88" y="-175.5" font-family="Helvetica,sans-Serif" font-size="10.00">list</text>
</a>
</g>
</g>
<!-- Node1&#45;&gt;Node3 -->
<g id="edge2" class="edge">
<title>Node1&#45;&gt;Node3</title>
<path fill="none" stroke="midnightblue" d="M250.15,-224.47C216.59,-215.67 163.02,-201.37 117,-188 115.54,-187.58 114.05,-187.14 112.54,-186.69"/>
<polygon fill="midnightblue" stroke="midnightblue" points="113.31,-183.26 102.72,-183.68 111.26,-189.95 113.31,-183.26"/>
</g>
<!-- Node4 -->
<g id="node4" class="node">
<title>Node4</title>
<g id="a_node4"><a xlink:title=" ">
<polygon fill="none" stroke="#bfbfbf" points="417,-0.5 417,-19.5 461,-19.5 461,-0.5 417,-0.5"/>
<text text-anchor="middle" x="439" y="-7.5" font-family="Helvetica,sans-Serif" font-size="10.00">vector</text>
</a>
</g>
</g>
<!-- Node1&#45;&gt;Node4 -->
<g id="edge3" class="edge">
<title>Node1&#45;&gt;Node4</title>
<path fill="none" stroke="midnightblue" d="M267.55,-224.41C222.4,-198.28 97.12,-117.75 150,-56 182.76,-17.74 338.3,-11.76 406.65,-11"/>
<polygon fill="midnightblue" stroke="midnightblue" points="406.87,-14.5 416.84,-10.92 406.82,-7.5 406.87,-14.5"/>
</g>
<!-- Node5 -->
<g id="node5" class="node">
<title>Node5</title>
<g id="a_node5"><a xlink:href="sparsesystem_8hpp.html" target="_top" xlink:title="ALGEBRA::SparseSystem source file.">
<polygon fill="none" stroke="black" points="214.5,-112.5 214.5,-131.5 351.5,-131.5 351.5,-112.5 214.5,-112.5"/>
<text text-anchor="middle" x="283" y="-119.5" font-family="Helvetica,sans-Serif" font-size="10.00">../algebra/sparsesystem.hpp</text>
</a>
</g>
</g>
<!-- Node1&#45;&gt;Node5 -->
<g id="edge4" class="edge">
<title>Node1&#45;&gt;Node5</title>
<path fill="none" stroke="midnightblue" d="M279.16,-224.37C275.81,-206.62 275.35,-165.67 277.79,-141.6"/>
<polygon fill="midnightblue" stroke="midnightblue" points="281.27,-141.97 279.16,-131.59 274.34,-141.02 281.27,-141.97"/>
</g>
<!-- Node9 -->
<g id="node9" class="node">
<title>Node9</title>
<g id="a_node9"><a xlink:href="block_8hpp.html" target="_top" xlink:title="MODEL::Block source file.">
<polygon fill="none" stroke="black" points="401,-168.5 401,-187.5 459,-187.5 459,-168.5 401,-168.5"/>
<text text-anchor="middle" x="430" y="-175.5" font-family="Helvetica,sans-Serif" font-size="10.00">block.hpp</text>
</a>
</g>
</g>
<!-- Node1&#45;&gt;Node9 -->
<g id="edge9" class="edge">
<title>Node1&#45;&gt;Node9</title>
<path fill="none" stroke="midnightblue" d="M306.29,-224.44C330.81,-215.44 369.6,-201.19 397.2,-191.05"/>
<polygon fill="midnightblue" stroke="midnightblue" points="398.64,-194.25 406.82,-187.52 396.22,-187.68 398.64,-194.25"/>
</g>
<!-- Node11 -->
<g id="node11" class="node">
<title>Node11</title>
<g id="a_node11"><a xlink:href="dofhandler_8hpp.html" target="_top" xlink:title="MODEL::DOFHandler source file.">
<polygon fill="none" stroke="black" points="467,-56.5 467,-75.5 547,-75.5 547,-56.5 467,-56.5"/>
<text text-anchor="middle" x="507" y="-63.5" font-family="Helvetica,sans-Serif" font-size="10.00">dofhandler.hpp</text>
</a>
</g>
</g>
<!-- Node1&#45;&gt;Node11 -->
<g id="edge19" class="edge">
<title>Node1&#45;&gt;Node11</title>
<path fill="none" stroke="midnightblue" d="M328.25,-227.95C373.01,-221.96 442.88,-209.91 500,-188 546.12,-170.31 571.4,-174.83 596,-132 610.08,-107.48 578.24,-89.61 548.81,-78.88"/>
<polygon fill="midnightblue" stroke="midnightblue" points="549.58,-75.44 538.99,-75.52 547.32,-82.07 549.58,-75.44"/>
</g>
<!-- Node13 -->
<g id="node13" class="node">
<title>Node13</title>
<g id="a_node13"><a xlink:href="node_8hpp.html" target="_top" xlink:title="MODEL::Node source file.">
<polygon fill="none" stroke="black" points="531,-112.5 531,-131.5 587,-131.5 587,-112.5 531,-112.5"/>
<text text-anchor="middle" x="559" y="-119.5" font-family="Helvetica,sans-Serif" font-size="10.00">node.hpp</text>
</a>
</g>
</g>
<!-- Node1&#45;&gt;Node13 -->
<g id="edge20" class="edge">
<title>Node1&#45;&gt;Node13</title>
<path fill="none" stroke="midnightblue" d="M328.32,-226.92C366.78,-220.62 422.77,-208.71 468,-188 496.22,-175.08 524.67,-152.95 542.07,-138.15"/>
<polygon fill="midnightblue" stroke="midnightblue" points="544.42,-140.75 549.67,-131.55 539.83,-135.47 544.42,-140.75"/>
</g>
<!-- Node5&#45;&gt;Node1 -->
<g id="edge8" class="edge">
<title>Node5&#45;&gt;Node1</title>
<path fill="none" stroke="midnightblue" d="M286.84,-131.59C290.19,-149.31 290.65,-190.25 288.22,-214.35"/>
<polygon fill="midnightblue" stroke="midnightblue" points="284.73,-213.99 286.84,-224.37 291.67,-214.94 284.73,-213.99"/>
</g>
<!-- Node6 -->
<g id="node6" class="node">
<title>Node6</title>
<g id="a_node6"><a xlink:title=" ">
<polygon fill="none" stroke="#bfbfbf" points="231,-56.5 231,-75.5 305,-75.5 305,-56.5 231,-56.5"/>
<text text-anchor="middle" x="268" y="-63.5" font-family="Helvetica,sans-Serif" font-size="10.00">Eigen/Sparse</text>
</a>
</g>
</g>
<!-- Node5&#45;&gt;Node6 -->
<g id="edge5" class="edge">
<title>Node5&#45;&gt;Node6</title>
<path fill="none" stroke="midnightblue" d="M280.52,-112.08C278.51,-104.85 275.61,-94.41 273.11,-85.4"/>
<polygon fill="midnightblue" stroke="midnightblue" points="276.48,-84.45 270.43,-75.75 269.74,-86.32 276.48,-84.45"/>
</g>
<!-- Node7 -->
<g id="node7" class="node">
<title>Node7</title>
<g id="a_node7"><a xlink:title=" ">
<polygon fill="none" stroke="#bfbfbf" points="323,-56.5 323,-75.5 411,-75.5 411,-56.5 323,-56.5"/>
<text text-anchor="middle" x="367" y="-63.5" font-family="Helvetica,sans-Serif" font-size="10.00">Eigen/SparseLU</text>
</a>
</g>
</g>
<!-- Node5&#45;&gt;Node7 -->
<g id="edge6" class="edge">
<title>Node5&#45;&gt;Node7</title>
<path fill="none" stroke="midnightblue" d="M296.5,-112.32C309.6,-103.9 329.71,-90.97 345.11,-81.07"/>
<polygon fill="midnightblue" stroke="midnightblue" points="347.02,-84.01 353.54,-75.65 343.23,-78.12 347.02,-84.01"/>
</g>
<!-- Node8 -->
<g id="node8" class="node">
<title>Node8</title>
<g id="a_node8"><a xlink:title=" ">
<polygon fill="none" stroke="#bfbfbf" points="159,-56.5 159,-75.5 213,-75.5 213,-56.5 159,-56.5"/>
<text text-anchor="middle" x="186" y="-63.5" font-family="Helvetica,sans-Serif" font-size="10.00">iostream</text>
</a>
</g>
</g>
<!-- Node5&#45;&gt;Node8 -->
<g id="edge7" class="edge">
<title>Node5&#45;&gt;Node8</title>
<path fill="none" stroke="midnightblue" d="M267.42,-112.32C252,-103.74 228.19,-90.49 210.29,-80.52"/>
<polygon fill="midnightblue" stroke="midnightblue" points="211.99,-77.46 201.55,-75.65 208.58,-83.58 211.99,-77.46"/>
</g>
<!-- Node9&#45;&gt;Node4 -->
<g id="edge11" class="edge">
<title>Node9&#45;&gt;Node4</title>
<path fill="none" stroke="midnightblue" d="M430.48,-168.08C431.9,-141.95 436.06,-65.21 437.99,-29.58"/>
<polygon fill="midnightblue" stroke="midnightblue" points="441.49,-29.74 438.54,-19.57 434.5,-29.36 441.49,-29.74"/>
</g>
<!-- Node9&#45;&gt;Node5 -->
<g id="edge12" class="edge">
<title>Node9&#45;&gt;Node5</title>
<path fill="none" stroke="midnightblue" d="M406.71,-168.44C382.19,-159.44 343.4,-145.19 315.8,-135.05"/>
<polygon fill="midnightblue" stroke="midnightblue" points="316.78,-131.68 306.18,-131.52 314.36,-138.25 316.78,-131.68"/>
</g>
<!-- Node10 -->
<g id="node10" class="node">
<title>Node10</title>
<g id="a_node10"><a xlink:title=" ">
<polygon fill="none" stroke="#bfbfbf" points="477.5,-112.5 477.5,-131.5 512.5,-131.5 512.5,-112.5 477.5,-112.5"/>
<text text-anchor="middle" x="495" y="-119.5" font-family="Helvetica,sans-Serif" font-size="10.00">map</text>
</a>
</g>
</g>
<!-- Node9&#45;&gt;Node10 -->
<g id="edge10" class="edge">
<title>Node9&#45;&gt;Node10</title>
<path fill="none" stroke="midnightblue" d="M440.44,-168.32C450.15,-160.26 464.82,-148.08 476.5,-138.37"/>
<polygon fill="midnightblue" stroke="midnightblue" points="478.91,-140.92 484.37,-131.83 474.44,-135.53 478.91,-140.92"/>
</g>
<!-- Node9&#45;&gt;Node11 -->
<g id="edge13" class="edge">
<title>Node9&#45;&gt;Node11</title>
<path fill="none" stroke="midnightblue" d="M434.44,-168.27C441.08,-155.49 454.3,-131.13 468,-112 475.22,-101.91 484.24,-91.4 491.79,-83.07"/>
<polygon fill="midnightblue" stroke="midnightblue" points="494.51,-85.28 498.72,-75.57 489.37,-80.53 494.51,-85.28"/>
</g>
<!-- Node9&#45;&gt;Node13 -->
<g id="edge16" class="edge">
<title>Node9&#45;&gt;Node13</title>
<path fill="none" stroke="midnightblue" d="M450.44,-168.44C471.67,-159.56 505.1,-145.56 529.25,-135.45"/>
<polygon fill="midnightblue" stroke="midnightblue" points="530.78,-138.61 538.66,-131.52 528.08,-132.15 530.78,-138.61"/>
</g>
<!-- Node11&#45;&gt;Node4 -->
<g id="edge15" class="edge">
<title>Node11&#45;&gt;Node4</title>
<path fill="none" stroke="midnightblue" d="M496.07,-56.32C485.83,-48.18 470.28,-35.84 458,-26.09"/>
<polygon fill="midnightblue" stroke="midnightblue" points="460.13,-23.31 450.12,-19.83 455.78,-28.79 460.13,-23.31"/>
</g>
<!-- Node12 -->
<g id="node12" class="node">
<title>Node12</title>
<g id="a_node12"><a xlink:title=" ">
<polygon fill="none" stroke="#bfbfbf" points="520.5,-0.5 520.5,-19.5 561.5,-19.5 561.5,-0.5 520.5,-0.5"/>
<text text-anchor="middle" x="541" y="-7.5" font-family="Helvetica,sans-Serif" font-size="10.00">string</text>
</a>
</g>
</g>
<!-- Node11&#45;&gt;Node12 -->
<g id="edge14" class="edge">
<title>Node11&#45;&gt;Node12</title>
<path fill="none" stroke="midnightblue" d="M512.61,-56.08C517.37,-48.53 524.32,-37.49 530.15,-28.23"/>
<polygon fill="midnightblue" stroke="midnightblue" points="533.12,-30.08 535.49,-19.75 527.2,-26.35 533.12,-30.08"/>
</g>
<!-- Node13&#45;&gt;Node11 -->
<g id="edge18" class="edge">
<title>Node13&#45;&gt;Node11</title>
<path fill="none" stroke="midnightblue" d="M550.41,-112.08C542.84,-104.22 531.62,-92.57 522.49,-83.08"/>
<polygon fill="midnightblue" stroke="midnightblue" points="524.88,-80.53 515.43,-75.75 519.84,-85.38 524.88,-80.53"/>
</g>
<!-- Node13&#45;&gt;Node12 -->
<g id="edge17" class="edge">
<title>Node13&#45;&gt;Node12</title>
<path fill="none" stroke="midnightblue" d="M559.36,-112.08C559.69,-99.47 559.68,-75.77 556,-56 554.32,-46.99 551.27,-37.32 548.36,-29.25"/>
<polygon fill="midnightblue" stroke="midnightblue" points="551.57,-27.86 544.73,-19.77 545.03,-30.36 551.57,-27.86"/>
</g>
</g>
</svg>
