<?xml version="1.0" encoding="UTF-8" standalone="no"?>
<!DOCTYPE svg PUBLIC "-//W3C//DTD SVG 1.1//EN"
 "http://www.w3.org/Graphics/SVG/1.1/DTD/svg11.dtd">
<!-- Generated by graphviz version 3.0.0 (20220413.0242)
 -->
<!-- Title: model/model.hpp Pages: 1 -->
<svg width="1486pt" height="196pt"
 viewBox="0.00 0.00 1485.50 196.00" xmlns="http://www.w3.org/2000/svg" xmlns:xlink="http://www.w3.org/1999/xlink">
<g id="graph0" class="graph" transform="scale(1 1) rotate(0) translate(4 192)">
<title>model/model.hpp</title>
<!-- Node1 -->
<g id="node1" class="node">
<title>Node1</title>
<g id="a_node1"><a xlink:title="MODEL::Model source file.">
<polygon fill="#bfbfbf" stroke="black" points="580,-168.5 580,-187.5 670,-187.5 670,-168.5 580,-168.5"/>
<text text-anchor="middle" x="625" y="-175.5" font-family="Helvetica,sans-Serif" font-size="10.00">model/model.hpp</text>
</a>
</g>
</g>
<!-- Node2 -->
<g id="node2" class="node">
<title>Node2</title>
<g id="a_node2"><a xlink:href="densesystem_8hpp.html" target="_top" xlink:title="ALGEBRA::DenseSystem source file.">
<polygon fill="none" stroke="black" points="755.5,-112.5 755.5,-131.5 882.5,-131.5 882.5,-112.5 755.5,-112.5"/>
<text text-anchor="middle" x="819" y="-119.5" font-family="Helvetica,sans-Serif" font-size="10.00">algebra/densesystem.hpp</text>
</a>
</g>
</g>
<!-- Node1&#45;&gt;Node2 -->
<g id="edge1" class="edge">
<title>Node1&#45;&gt;Node2</title>
<path fill="none" stroke="midnightblue" d="M660.44,-165.57C695.38,-155.38 748.29,-140.7 783.32,-131.52"/>
<polygon fill="midnightblue" stroke="midnightblue" points="659.26,-162.27 650.65,-168.44 661.23,-168.98 659.26,-162.27"/>
</g>
<!-- Node3 -->
<g id="node3" class="node">
<title>Node3</title>
<g id="a_node3"><a xlink:href="main_8cpp.html" target="_top" xlink:title="Main routine of svZeroDSolver.">
<polygon fill="none" stroke="black" points="305,-56.5 305,-75.5 361,-75.5 361,-56.5 305,-56.5"/>
<text text-anchor="middle" x="333" y="-63.5" font-family="Helvetica,sans-Serif" font-size="10.00">main.cpp</text>
</a>
</g>
</g>
<!-- Node1&#45;&gt;Node3 -->
<g id="edge48" class="edge">
<title>Node1&#45;&gt;Node3</title>
<path fill="none" stroke="midnightblue" d="M569.44,-174.47C499.72,-170.18 385.48,-159.14 354,-132 337.29,-117.6 333.78,-89.81 333.1,-75.69"/>
<polygon fill="midnightblue" stroke="midnightblue" points="569.61,-177.98 579.8,-175.08 570.02,-171 569.61,-177.98"/>
</g>
<!-- Node13 -->
<g id="node13" class="node">
<title>Node13</title>
<g id="a_node13"><a xlink:href="integrator_8hpp.html" target="_top" xlink:title="ALGEBRA::Integrator source file.">
<polygon fill="none" stroke="black" points="363,-112.5 363,-131.5 473,-131.5 473,-112.5 363,-112.5"/>
<text text-anchor="middle" x="418" y="-119.5" font-family="Helvetica,sans-Serif" font-size="10.00">algebra/integrator.hpp</text>
</a>
</g>
</g>
<!-- Node1&#45;&gt;Node13 -->
<g id="edge28" class="edge">
<title>Node1&#45;&gt;Node13</title>
<path fill="none" stroke="midnightblue" d="M582.18,-165.83C543.09,-155.63 486.17,-140.78 450.65,-131.52"/>
<polygon fill="midnightblue" stroke="midnightblue" points="581.64,-169.31 592.2,-168.44 583.41,-162.53 581.64,-169.31"/>
</g>
<!-- Node14 -->
<g id="node14" class="node">
<title>Node14</title>
<g id="a_node14"><a xlink:href="sparsesystem_8hpp.html" target="_top" xlink:title="ALGEBRA::SparseSystem source file.">
<polygon fill="none" stroke="black" points="607,-112.5 607,-131.5 737,-131.5 737,-112.5 607,-112.5"/>
<text text-anchor="middle" x="672" y="-119.5" font-family="Helvetica,sans-Serif" font-size="10.00">algebra/sparsesystem.hpp</text>
</a>
</g>
</g>
<!-- Node1&#45;&gt;Node14 -->
<g id="edge30" class="edge">
<title>Node1&#45;&gt;Node14</title>
<path fill="none" stroke="midnightblue" d="M633.59,-159.86C640.9,-150.5 651.03,-139.33 659.25,-131.75"/>
<polygon fill="midnightblue" stroke="midnightblue" points="630.65,-157.94 627.59,-168.08 636.31,-162.06 630.65,-157.94"/>
</g>
<!-- Node15 -->
<g id="node15" class="node">
<title>Node15</title>
<g id="a_node15"><a xlink:href="configreader_8hpp.html" target="_top" xlink:title="IO::ConfigReader source file.">
<polygon fill="none" stroke="black" points="0,-112.5 0,-131.5 98,-131.5 98,-112.5 0,-112.5"/>
<text text-anchor="middle" x="49" y="-119.5" font-family="Helvetica,sans-Serif" font-size="10.00">io/configreader.hpp</text>
</a>
</g>
</g>
<!-- Node1&#45;&gt;Node15 -->
<g id="edge42" class="edge">
<title>Node1&#45;&gt;Node15</title>
<path fill="none" stroke="midnightblue" d="M569.63,-173.42C474.74,-167.01 275.01,-152.31 107,-132 104.07,-131.65 101.05,-131.26 98.02,-130.84"/>
<polygon fill="midnightblue" stroke="midnightblue" points="569.65,-176.93 579.86,-174.1 570.11,-169.94 569.65,-176.93"/>
</g>
<!-- Node16 -->
<g id="node16" class="node">
<title>Node16</title>
<g id="a_node16"><a xlink:href="csvwriter_8hpp.html" target="_top" xlink:title="IO::write_csv source file.">
<polygon fill="none" stroke="black" points="116.5,-112.5 116.5,-131.5 201.5,-131.5 201.5,-112.5 116.5,-112.5"/>
<text text-anchor="middle" x="159" y="-119.5" font-family="Helvetica,sans-Serif" font-size="10.00">io/csvwriter.hpp</text>
</a>
</g>
</g>
<!-- Node1&#45;&gt;Node16 -->
<g id="edge44" class="edge">
<title>Node1&#45;&gt;Node16</title>
<path fill="none" stroke="midnightblue" d="M569.44,-172.16C489.69,-164.95 338.23,-150.25 210,-132 207.24,-131.61 204.4,-131.18 201.54,-130.73"/>
<polygon fill="midnightblue" stroke="midnightblue" points="569.47,-175.68 579.74,-173.09 570.09,-168.71 569.47,-175.68"/>
</g>
<!-- Node17 -->
<g id="node17" class="node">
<title>Node17</title>
<g id="a_node17"><a xlink:href="jsonwriter_8hpp.html" target="_top" xlink:title="IO::write_json source file.">
<polygon fill="none" stroke="black" points="219.5,-112.5 219.5,-131.5 306.5,-131.5 306.5,-112.5 219.5,-112.5"/>
<text text-anchor="middle" x="263" y="-119.5" font-family="Helvetica,sans-Serif" font-size="10.00">io/jsonwriter.hpp</text>
</a>
</g>
</g>
<!-- Node1&#45;&gt;Node17 -->
<g id="edge46" class="edge">
<title>Node1&#45;&gt;Node17</title>
<path fill="none" stroke="midnightblue" d="M569.75,-168.94C508.82,-160.02 407.89,-145.17 321,-132 316.37,-131.3 311.52,-130.56 306.7,-129.81"/>
<polygon fill="midnightblue" stroke="midnightblue" points="569.52,-172.44 579.92,-170.43 570.53,-165.52 569.52,-172.44"/>
</g>
<!-- Node2&#45;&gt;Node1 -->
<g id="edge23" class="edge">
<title>Node2&#45;&gt;Node1</title>
<path fill="none" stroke="midnightblue" d="M783.71,-134.39C748.82,-144.56 695.91,-159.24 660.83,-168.44"/>
<polygon fill="midnightblue" stroke="midnightblue" points="784.88,-137.69 793.48,-131.52 782.9,-130.98 784.88,-137.69"/>
</g>
<!-- Node2&#45;&gt;Node3 -->
<g id="edge2" class="edge">
<title>Node2&#45;&gt;Node3</title>
<path fill="none" stroke="midnightblue" d="M745.35,-111.94C593.87,-94.41 426.37,-76.74 361.06,-69.92"/>
<polygon fill="midnightblue" stroke="midnightblue" points="744.97,-115.42 755.31,-113.09 745.77,-108.46 744.97,-115.42"/>
</g>
<!-- Node4 -->
<g id="node4" class="node">
<title>Node4</title>
<g id="a_node4"><a xlink:href="block_8hpp.html" target="_top" xlink:title="MODEL::Block source file.">
<polygon fill="none" stroke="black" points="759.5,-56.5 759.5,-75.5 846.5,-75.5 846.5,-56.5 759.5,-56.5"/>
<text text-anchor="middle" x="803" y="-63.5" font-family="Helvetica,sans-Serif" font-size="10.00">model/block.hpp</text>
</a>
</g>
</g>
<!-- Node2&#45;&gt;Node4 -->
<g id="edge3" class="edge">
<title>Node2&#45;&gt;Node4</title>
<path fill="none" stroke="midnightblue" d="M813.49,-102.4C810.81,-93.36 807.72,-82.94 805.59,-75.75"/>
<polygon fill="midnightblue" stroke="midnightblue" points="810.16,-103.49 816.36,-112.08 816.87,-101.5 810.16,-103.49"/>
</g>
<!-- Node5 -->
<g id="node5" class="node">
<title>Node5</title>
<g id="a_node5"><a xlink:href="bloodvessel_8hpp.html" target="_top" xlink:title="MODEL::BloodVessel source file.">
<polygon fill="none" stroke="black" points="434,-0.5 434,-19.5 550,-19.5 550,-0.5 434,-0.5"/>
<text text-anchor="middle" x="492" y="-7.5" font-family="Helvetica,sans-Serif" font-size="10.00">model/bloodvessel.hpp</text>
</a>
</g>
</g>
<!-- Node2&#45;&gt;Node5 -->
<g id="edge19" class="edge">
<title>Node2&#45;&gt;Node5</title>
<path fill="none" stroke="midnightblue" d="M784.04,-109.24C717.88,-86.98 575.75,-39.17 517.6,-19.61"/>
<polygon fill="midnightblue" stroke="midnightblue" points="783.02,-112.59 793.61,-112.46 785.25,-105.95 783.02,-112.59"/>
</g>
<!-- Node6 -->
<g id="node6" class="node">
<title>Node6</title>
<g id="a_node6"><a xlink:href="closedloopheartpulmonary_8hpp.html" target="_top" xlink:title="MODEL::ClosedLoopHeartPulmonary source file.">
<polygon fill="none" stroke="black" points="684,-0.5 684,-19.5 860,-19.5 860,-0.5 684,-0.5"/>
<text text-anchor="middle" x="772" y="-7.5" font-family="Helvetica,sans-Serif" font-size="10.00">model/closedloopheartpulmonary.hpp</text>
</a>
</g>
</g>
<!-- Node2&#45;&gt;Node6 -->
<g id="edge20" class="edge">
<title>Node2&#45;&gt;Node6</title>
<path fill="none" stroke="midnightblue" d="M837.37,-105.47C850.75,-92.21 864.93,-72.68 855,-56 844.02,-37.55 822.54,-26.2 804.18,-19.51"/>
<polygon fill="midnightblue" stroke="midnightblue" points="834.74,-103.13 829.78,-112.49 839.5,-108.27 834.74,-103.13"/>
</g>
<!-- Node7 -->
<g id="node7" class="node">
<title>Node7</title>
<g id="a_node7"><a xlink:href="flowreferencebc_8hpp.html" target="_top" xlink:title="MODEL::FlowReferenceBC source file.">
<polygon fill="none" stroke="black" points="284,-0.5 284,-19.5 416,-19.5 416,-0.5 284,-0.5"/>
<text text-anchor="middle" x="350" y="-7.5" font-family="Helvetica,sans-Serif" font-size="10.00">model/flowreferencebc.hpp</text>
</a>
</g>
</g>
<!-- Node2&#45;&gt;Node7 -->
<g id="edge21" class="edge">
<title>Node2&#45;&gt;Node7</title>
<path fill="none" stroke="midnightblue" d="M771.47,-110.2C731.76,-101.15 673.66,-87.85 623,-76 537.61,-56.03 437.33,-32.01 385.32,-19.51"/>
<polygon fill="midnightblue" stroke="midnightblue" points="770.88,-113.65 781.4,-112.46 772.43,-106.83 770.88,-113.65"/>
</g>
<!-- Node8 -->
<g id="node8" class="node">
<title>Node8</title>
<g id="a_node8"><a xlink:href="junction_8hpp.html" target="_top" xlink:title="MODEL::Junction source file.">
<polygon fill="none" stroke="black" points="568,-0.5 568,-19.5 666,-19.5 666,-0.5 568,-0.5"/>
<text text-anchor="middle" x="617" y="-7.5" font-family="Helvetica,sans-Serif" font-size="10.00">model/junction.hpp</text>
</a>
</g>
</g>
<!-- Node2&#45;&gt;Node8 -->
<g id="edge22" class="edge">
<title>Node2&#45;&gt;Node8</title>
<path fill="none" stroke="midnightblue" d="M794.11,-107.45C751.97,-84.5 667.74,-38.63 632.78,-19.59"/>
<polygon fill="midnightblue" stroke="midnightblue" points="792.69,-110.66 803.15,-112.37 796.04,-104.51 792.69,-110.66"/>
</g>
<!-- Node9 -->
<g id="node9" class="node">
<title>Node9</title>
<g id="a_node9"><a xlink:href="openloopcoronarybc_8hpp.html" target="_top" xlink:title="MODEL::OpenLoopCoronaryBC source file.">
<polygon fill="none" stroke="black" points="1016,-0.5 1016,-19.5 1166,-19.5 1166,-0.5 1016,-0.5"/>
<text text-anchor="middle" x="1091" y="-7.5" font-family="Helvetica,sans-Serif" font-size="10.00">model/openloopcoronarybc.hpp</text>
</a>
</g>
</g>
<!-- Node2&#45;&gt;Node9 -->
<g id="edge24" class="edge">
<title>Node2&#45;&gt;Node9</title>
<path fill="none" stroke="midnightblue" d="M889.63,-110.51C924.82,-103.61 967.36,-92.69 1003,-76 1034.99,-61.02 1066.95,-33.49 1082.04,-19.56"/>
<polygon fill="midnightblue" stroke="midnightblue" points="888.62,-107.14 879.44,-112.44 889.92,-114.02 888.62,-107.14"/>
</g>
<!-- Node10 -->
<g id="node10" class="node">
<title>Node10</title>
<g id="a_node10"><a xlink:href="pressurereferencebc_8hpp.html" target="_top" xlink:title="MODEL::PressureReferenceBC source file.">
<polygon fill="none" stroke="black" points="1184,-0.5 1184,-19.5 1336,-19.5 1336,-0.5 1184,-0.5"/>
<text text-anchor="middle" x="1260" y="-7.5" font-family="Helvetica,sans-Serif" font-size="10.00">model/pressurereferencebc.hpp</text>
</a>
</g>
</g>
<!-- Node2&#45;&gt;Node10 -->
<g id="edge25" class="edge">
<title>Node2&#45;&gt;Node10</title>
<path fill="none" stroke="midnightblue" d="M892.92,-115.56C953.98,-109.72 1042.43,-98.11 1117,-76 1165.63,-61.58 1219.08,-33.8 1244.68,-19.69"/>
<polygon fill="midnightblue" stroke="midnightblue" points="892.24,-112.11 882.6,-116.52 892.88,-119.08 892.24,-112.11"/>
</g>
<!-- Node11 -->
<g id="node11" class="node">
<title>Node11</title>
<g id="a_node11"><a xlink:href="resistancebc_8hpp.html" target="_top" xlink:title="MODEL::ResistanceBC source file.">
<polygon fill="none" stroke="black" points="878.5,-0.5 878.5,-19.5 997.5,-19.5 997.5,-0.5 878.5,-0.5"/>
<text text-anchor="middle" x="938" y="-7.5" font-family="Helvetica,sans-Serif" font-size="10.00">model/resistancebc.hpp</text>
</a>
</g>
</g>
<!-- Node2&#45;&gt;Node11 -->
<g id="edge26" class="edge">
<title>Node2&#45;&gt;Node11</title>
<path fill="none" stroke="midnightblue" d="M837.27,-105.63C847.34,-97.05 860,-86.08 871,-76 892.51,-56.29 916.89,-32.16 929.48,-19.57"/>
<polygon fill="midnightblue" stroke="midnightblue" points="834.88,-103.07 829.51,-112.21 839.4,-108.41 834.88,-103.07"/>
</g>
<!-- Node12 -->
<g id="node12" class="node">
<title>Node12</title>
<g id="a_node12"><a xlink:href="windkesselbc_8hpp.html" target="_top" xlink:title="MODEL::WindkesselBC source file.">
<polygon fill="none" stroke="black" points="1354.5,-0.5 1354.5,-19.5 1477.5,-19.5 1477.5,-0.5 1354.5,-0.5"/>
<text text-anchor="middle" x="1416" y="-7.5" font-family="Helvetica,sans-Serif" font-size="10.00">model/windkesselbc.hpp</text>
</a>
</g>
</g>
<!-- Node2&#45;&gt;Node12 -->
<g id="edge27" class="edge">
<title>Node2&#45;&gt;Node12</title>
<path fill="none" stroke="midnightblue" d="M892.66,-118.04C975.75,-113.53 1114.47,-102.47 1231,-76 1293.08,-61.9 1363.18,-33.72 1396.46,-19.55"/>
<polygon fill="midnightblue" stroke="midnightblue" points="892.37,-114.55 882.56,-118.57 892.73,-121.54 892.37,-114.55"/>
</g>
<!-- Node4&#45;&gt;Node5 -->
<g id="edge4" class="edge">
<title>Node4&#45;&gt;Node5</title>
<path fill="none" stroke="midnightblue" d="M749.27,-55.67C690.72,-45.51 597.86,-29.38 541.17,-19.54"/>
<polygon fill="midnightblue" stroke="midnightblue" points="748.98,-59.17 759.43,-57.43 750.18,-52.28 748.98,-59.17"/>
</g>
<!-- Node4&#45;&gt;Node6 -->
<g id="edge6" class="edge">
<title>Node4&#45;&gt;Node6</title>
<path fill="none" stroke="midnightblue" d="M792.82,-47.27C787.53,-38.05 781.28,-27.17 777.02,-19.75"/>
<polygon fill="midnightblue" stroke="midnightblue" points="789.87,-49.15 797.88,-56.08 795.94,-45.67 789.87,-49.15"/>
</g>
<!-- Node4&#45;&gt;Node7 -->
<g id="edge7" class="edge">
<title>Node4&#45;&gt;Node7</title>
<path fill="none" stroke="midnightblue" d="M748.98,-58.59C675.62,-49.87 540.4,-33.79 425,-20 422.14,-19.66 419.21,-19.31 416.25,-18.95"/>
<polygon fill="midnightblue" stroke="midnightblue" points="749,-62.11 759.34,-59.82 749.83,-55.16 749,-62.11"/>
</g>
<!-- Node4&#45;&gt;Node8 -->
<g id="edge9" class="edge">
<title>Node4&#45;&gt;Node8</title>
<path fill="none" stroke="midnightblue" d="M763.62,-53.57C728.53,-43.38 677.98,-28.7 646.33,-19.52"/>
<polygon fill="midnightblue" stroke="midnightblue" points="762.95,-57.02 773.53,-56.44 764.9,-50.29 762.95,-57.02"/>
</g>
<!-- Node4&#45;&gt;Node9 -->
<g id="edge11" class="edge">
<title>Node4&#45;&gt;Node9</title>
<path fill="none" stroke="midnightblue" d="M856.88,-54.9C911.23,-44.71 994.23,-29.14 1045.42,-19.55"/>
<polygon fill="midnightblue" stroke="midnightblue" points="855.92,-51.52 846.74,-56.8 857.21,-58.4 855.92,-51.52"/>
</g>
<!-- Node4&#45;&gt;Node10 -->
<g id="edge13" class="edge">
<title>Node4&#45;&gt;Node10</title>
<path fill="none" stroke="midnightblue" d="M856.95,-58.62C939.22,-48.9 1096.13,-30.36 1188.02,-19.5"/>
<polygon fill="midnightblue" stroke="midnightblue" points="856.34,-55.17 846.82,-59.82 857.16,-62.12 856.34,-55.17"/>
</g>
<!-- Node4&#45;&gt;Node11 -->
<g id="edge15" class="edge">
<title>Node4&#45;&gt;Node11</title>
<path fill="none" stroke="midnightblue" d="M833.91,-52.64C859.24,-42.5 894.43,-28.43 916.71,-19.52"/>
<polygon fill="midnightblue" stroke="midnightblue" points="832.38,-49.48 824.39,-56.44 834.98,-55.98 832.38,-49.48"/>
</g>
<!-- Node4&#45;&gt;Node12 -->
<g id="edge17" class="edge">
<title>Node4&#45;&gt;Node12</title>
<path fill="none" stroke="midnightblue" d="M856.81,-61.31C954.28,-54.45 1166.51,-38.71 1345,-20 1348.09,-19.68 1351.25,-19.33 1354.45,-18.97"/>
<polygon fill="midnightblue" stroke="midnightblue" points="856.35,-57.83 846.62,-62.02 856.84,-64.81 856.35,-57.83"/>
</g>
<!-- Node5&#45;&gt;Node1 -->
<g id="edge5" class="edge">
<title>Node5&#45;&gt;Node1</title>
<path fill="none" stroke="midnightblue" d="M505.43,-27.76C533.29,-62.54 596.55,-141.49 617.85,-168.08"/>
<polygon fill="midnightblue" stroke="midnightblue" points="507.85,-25.18 498.86,-19.57 502.39,-29.56 507.85,-25.18"/>
</g>
<!-- Node7&#45;&gt;Node1 -->
<g id="edge8" class="edge">
<title>Node7&#45;&gt;Node1</title>
<path fill="none" stroke="midnightblue" d="M372.92,-24.83C427.83,-57.98 565.68,-141.19 610.6,-168.31"/>
<polygon fill="midnightblue" stroke="midnightblue" points="374.63,-21.78 364.26,-19.61 371.01,-27.77 374.63,-21.78"/>
</g>
<!-- Node8&#45;&gt;Node1 -->
<g id="edge10" class="edge">
<title>Node8&#45;&gt;Node1</title>
<path fill="none" stroke="midnightblue" d="M609.41,-29.19C600.49,-53.11 588.11,-96.28 598,-132 601.84,-145.87 611.23,-159.76 617.85,-168.36"/>
<polygon fill="midnightblue" stroke="midnightblue" points="612.76,-30.24 613.17,-19.65 606.24,-27.67 612.76,-30.24"/>
</g>
<!-- Node9&#45;&gt;Node1 -->
<g id="edge12" class="edge">
<title>Node9&#45;&gt;Node1</title>
<path fill="none" stroke="midnightblue" d="M1074.08,-26.5C1044.23,-52.89 979.17,-106.19 914,-132 832.09,-164.44 728.46,-173.58 670.18,-176.1"/>
<polygon fill="midnightblue" stroke="midnightblue" points="1076.43,-29.09 1081.54,-19.81 1071.76,-23.88 1076.43,-29.09"/>
</g>
<!-- Node10&#45;&gt;Node1 -->
<g id="edge14" class="edge">
<title>Node10&#45;&gt;Node1</title>
<path fill="none" stroke="midnightblue" d="M1233.19,-23.9C1180.2,-48.84 1057.73,-103.71 949,-132 851.45,-157.38 733.41,-169.2 670.19,-174.06"/>
<polygon fill="midnightblue" stroke="midnightblue" points="1234.72,-27.05 1242.26,-19.61 1231.73,-20.72 1234.72,-27.05"/>
</g>
<!-- Node11&#45;&gt;Node1 -->
<g id="edge16" class="edge">
<title>Node11&#45;&gt;Node1</title>
<path fill="none" stroke="midnightblue" d="M936.36,-29.77C932.93,-56.82 922.48,-106.33 891,-132 857.92,-158.97 737.13,-170.34 670.27,-174.66"/>
<polygon fill="midnightblue" stroke="midnightblue" points="939.86,-30 937.44,-19.69 932.89,-29.26 939.86,-30"/>
</g>
<!-- Node12&#45;&gt;Node1 -->
<g id="edge18" class="edge">
<title>Node12&#45;&gt;Node1</title>
<path fill="none" stroke="midnightblue" d="M1381.39,-22.98C1310.02,-47.24 1140.97,-102.34 995,-132 879.11,-155.55 740.13,-168.41 670.08,-173.84"/>
<polygon fill="midnightblue" stroke="midnightblue" points="1382.86,-26.18 1391.19,-19.64 1380.6,-19.55 1382.86,-26.18"/>
</g>
<!-- Node13&#45;&gt;Node3 -->
<g id="edge29" class="edge">
<title>Node13&#45;&gt;Node3</title>
<path fill="none" stroke="midnightblue" d="M395.81,-106.9C380.22,-97 359.87,-84.07 346.62,-75.65"/>
<polygon fill="midnightblue" stroke="midnightblue" points="394.03,-109.92 404.34,-112.32 397.78,-104.01 394.03,-109.92"/>
</g>
<!-- Node14&#45;&gt;Node1 -->
<g id="edge37" class="edge">
<title>Node14&#45;&gt;Node1</title>
<path fill="none" stroke="midnightblue" d="M663.45,-140.09C656.11,-149.48 645.92,-160.73 637.67,-168.32"/>
<polygon fill="midnightblue" stroke="midnightblue" points="666.41,-141.98 669.46,-131.83 660.75,-137.86 666.41,-141.98"/>
</g>
<!-- Node14&#45;&gt;Node3 -->
<g id="edge31" class="edge">
<title>Node14&#45;&gt;Node3</title>
<path fill="none" stroke="midnightblue" d="M608.13,-110.83C533.94,-99.01 414.87,-80.04 361.04,-71.47"/>
<polygon fill="midnightblue" stroke="midnightblue" points="607.86,-114.33 618.28,-112.44 608.96,-107.41 607.86,-114.33"/>
</g>
<!-- Node14&#45;&gt;Node4 -->
<g id="edge32" class="edge">
<title>Node14&#45;&gt;Node4</title>
<path fill="none" stroke="midnightblue" d="M702.32,-108.5C726.88,-98.38 760.82,-84.39 782.34,-75.52"/>
<polygon fill="midnightblue" stroke="midnightblue" points="700.67,-105.4 692.76,-112.44 703.34,-111.87 700.67,-105.4"/>
</g>
<!-- Node14&#45;&gt;Node5 -->
<g id="edge33" class="edge">
<title>Node14&#45;&gt;Node5</title>
<path fill="none" stroke="midnightblue" d="M649.11,-107.01C611.32,-83.92 537.02,-38.51 506.06,-19.59"/>
<polygon fill="midnightblue" stroke="midnightblue" points="647.52,-110.14 657.88,-112.37 651.17,-104.17 647.52,-110.14"/>
</g>
<!-- Node14&#45;&gt;Node6 -->
<g id="edge34" class="edge">
<title>Node14&#45;&gt;Node6</title>
<path fill="none" stroke="midnightblue" d="M686.64,-104.9C708.14,-81.25 747.5,-37.95 764.19,-19.59"/>
<polygon fill="midnightblue" stroke="midnightblue" points="683.98,-102.61 679.85,-112.37 689.16,-107.32 683.98,-102.61"/>
</g>
<!-- Node14&#45;&gt;Node7 -->
<g id="edge35" class="edge">
<title>Node14&#45;&gt;Node7</title>
<path fill="none" stroke="midnightblue" d="M637.18,-109.1C571.85,-86.79 432.35,-39.13 375.2,-19.61"/>
<polygon fill="midnightblue" stroke="midnightblue" points="636.41,-112.54 647,-112.46 638.67,-105.92 636.41,-112.54"/>
</g>
<!-- Node14&#45;&gt;Node8 -->
<g id="edge36" class="edge">
<title>Node14&#45;&gt;Node8</title>
<path fill="none" stroke="midnightblue" d="M663.16,-103.32C651.18,-79.37 630.27,-37.55 621.3,-19.59"/>
<polygon fill="midnightblue" stroke="midnightblue" points="660.08,-104.99 667.68,-112.37 666.34,-101.86 660.08,-104.99"/>
</g>
<!-- Node14&#45;&gt;Node9 -->
<g id="edge38" class="edge">
<title>Node14&#45;&gt;Node9</title>
<path fill="none" stroke="midnightblue" d="M728.86,-110.55C771.97,-102.25 832.55,-89.78 885,-76 951.38,-58.56 1028.12,-32.84 1066.49,-19.59"/>
<polygon fill="midnightblue" stroke="midnightblue" points="728.01,-107.15 718.84,-112.46 729.32,-114.03 728.01,-107.15"/>
</g>
<!-- Node14&#45;&gt;Node10 -->
<g id="edge39" class="edge">
<title>Node14&#45;&gt;Node10</title>
<path fill="none" stroke="midnightblue" d="M734.22,-110.79C787.36,-101.96 865.79,-88.66 934,-76 1036.85,-56.92 1157.48,-32.27 1219.15,-19.51"/>
<polygon fill="midnightblue" stroke="midnightblue" points="733.56,-107.36 724.27,-112.44 734.71,-114.26 733.56,-107.36"/>
</g>
<!-- Node14&#45;&gt;Node11 -->
<g id="edge40" class="edge">
<title>Node14&#45;&gt;Node11</title>
<path fill="none" stroke="midnightblue" d="M744.06,-110.57C778.79,-103.74 820.32,-92.87 855,-76 885.61,-61.11 915.56,-33.54 929.64,-19.58"/>
<polygon fill="midnightblue" stroke="midnightblue" points="743.16,-107.17 733.98,-112.47 744.46,-114.05 743.16,-107.17"/>
</g>
<!-- Node14&#45;&gt;Node12 -->
<g id="edge41" class="edge">
<title>Node14&#45;&gt;Node12</title>
<path fill="none" stroke="midnightblue" d="M746.39,-111.1C812.5,-102.21 911.75,-88.66 998,-76 1129.34,-56.72 1283.59,-32.26 1362.93,-19.55"/>
<polygon fill="midnightblue" stroke="midnightblue" points="745.51,-107.69 736.07,-112.49 746.45,-114.62 745.51,-107.69"/>
</g>
<!-- Node15&#45;&gt;Node3 -->
<g id="edge43" class="edge">
<title>Node15&#45;&gt;Node3</title>
<path fill="none" stroke="midnightblue" d="M104.1,-110.52C164.33,-99.07 258.45,-81.18 305,-72.32"/>
<polygon fill="midnightblue" stroke="midnightblue" points="103.17,-107.14 94,-112.44 104.48,-114.01 103.17,-107.14"/>
</g>
<!-- Node16&#45;&gt;Node3 -->
<g id="edge45" class="edge">
<title>Node16&#45;&gt;Node3</title>
<path fill="none" stroke="midnightblue" d="M196.26,-109.44C229.07,-99.26 276.08,-84.66 305.56,-75.52"/>
<polygon fill="midnightblue" stroke="midnightblue" points="195.08,-106.14 186.57,-112.44 197.16,-112.82 195.08,-106.14"/>
</g>
<!-- Node17&#45;&gt;Node3 -->
<g id="edge47" class="edge">
<title>Node17&#45;&gt;Node3</title>
<path fill="none" stroke="midnightblue" d="M282.31,-106.1C294.91,-96.38 310.93,-84.03 321.55,-75.83"/>
<polygon fill="midnightblue" stroke="midnightblue" points="280.03,-103.44 274.25,-112.32 284.3,-108.99 280.03,-103.44"/>
</g>
</g>
</svg>
