<?xml version="1.0" encoding="UTF-8" standalone="no"?>
<!DOCTYPE svg PUBLIC "-//W3C//DTD SVG 1.1//EN"
 "http://www.w3.org/Graphics/SVG/1.1/DTD/svg11.dtd">
<!-- Generated by graphviz version 3.0.0 (20220413.0242)
 -->
<!-- Title: model/model.hpp Pages: 1 -->
<svg width="1489pt" height="196pt"
 viewBox="0.00 0.00 1489.00 196.00" xmlns="http://www.w3.org/2000/svg" xmlns:xlink="http://www.w3.org/1999/xlink">
<g id="graph0" class="graph" transform="scale(1 1) rotate(0) translate(4 192)">
<title>model/model.hpp</title>
<!-- Node1 -->
<g id="node1" class="node">
<title>Node1</title>
<g id="a_node1"><a xlink:title="MODEL::Model source file.">
<polygon fill="#bfbfbf" stroke="black" points="513,-168.5 513,-187.5 603,-187.5 603,-168.5 513,-168.5"/>
<text text-anchor="middle" x="558" y="-175.5" font-family="Helvetica,sans-Serif" font-size="10.00">model/model.hpp</text>
</a>
</g>
</g>
<!-- Node2 -->
<g id="node2" class="node">
<title>Node2</title>
<g id="a_node2"><a xlink:href="integrator_8hpp.html" target="_top" xlink:title="ALGEBRA::Integrator source file.">
<polygon fill="none" stroke="black" points="0,-112.5 0,-131.5 110,-131.5 110,-112.5 0,-112.5"/>
<text text-anchor="middle" x="55" y="-119.5" font-family="Helvetica,sans-Serif" font-size="10.00">algebra/integrator.hpp</text>
</a>
</g>
</g>
<!-- Node1&#45;&gt;Node2 -->
<g id="edge1" class="edge">
<title>Node1&#45;&gt;Node2</title>
<path fill="none" stroke="midnightblue" d="M502.75,-172.01C419.46,-164.33 256.81,-148.75 119,-132 116.1,-131.65 113.14,-131.27 110.14,-130.89"/>
<polygon fill="midnightblue" stroke="midnightblue" points="502.47,-175.5 512.75,-172.93 503.11,-168.53 502.47,-175.5"/>
</g>
<!-- Node3 -->
<g id="node3" class="node">
<title>Node3</title>
<g id="a_node3"><a xlink:href="main_8cpp.html" target="_top" xlink:title="Main routine of svZeroDSolver.">
<polygon fill="none" stroke="black" points="311,-56.5 311,-75.5 367,-75.5 367,-56.5 311,-56.5"/>
<text text-anchor="middle" x="339" y="-63.5" font-family="Helvetica,sans-Serif" font-size="10.00">main.cpp</text>
</a>
</g>
</g>
<!-- Node1&#45;&gt;Node3 -->
<g id="edge34" class="edge">
<title>Node1&#45;&gt;Node3</title>
<path fill="none" stroke="midnightblue" d="M535.08,-163.09C512.14,-149.4 475.67,-128.24 443,-112 415.17,-98.16 382.07,-84.26 360.82,-75.65"/>
<polygon fill="midnightblue" stroke="midnightblue" points="533.37,-166.14 543.74,-168.29 536.97,-160.14 533.37,-166.14"/>
</g>
<!-- Node4 -->
<g id="node4" class="node">
<title>Node4</title>
<g id="a_node4"><a xlink:href="sparsesystem_8hpp.html" target="_top" xlink:title="ALGEBRA::SparseSystem source file.">
<polygon fill="none" stroke="black" points="624,-112.5 624,-131.5 754,-131.5 754,-112.5 624,-112.5"/>
<text text-anchor="middle" x="689" y="-119.5" font-family="Helvetica,sans-Serif" font-size="10.00">algebra/sparsesystem.hpp</text>
</a>
</g>
</g>
<!-- Node1&#45;&gt;Node4 -->
<g id="edge3" class="edge">
<title>Node1&#45;&gt;Node4</title>
<path fill="none" stroke="midnightblue" d="M582.83,-164.37C605.91,-154.26 639.89,-140.35 663.26,-131.52"/>
<polygon fill="midnightblue" stroke="midnightblue" points="581.38,-161.18 573.67,-168.44 584.23,-167.58 581.38,-161.18"/>
</g>
<!-- Node13 -->
<g id="node13" class="node">
<title>Node13</title>
<g id="a_node13"><a xlink:href="configreader_8hpp.html" target="_top" xlink:title="IO::ConfigReader source file.">
<polygon fill="none" stroke="black" points="128,-112.5 128,-131.5 226,-131.5 226,-112.5 128,-112.5"/>
<text text-anchor="middle" x="177" y="-119.5" font-family="Helvetica,sans-Serif" font-size="10.00">io/configreader.hpp</text>
</a>
</g>
</g>
<!-- Node1&#45;&gt;Node13 -->
<g id="edge28" class="edge">
<title>Node1&#45;&gt;Node13</title>
<path fill="none" stroke="midnightblue" d="M502.84,-169.58C438.51,-160.87 328.98,-145.84 235,-132 232.08,-131.57 229.07,-131.12 226.04,-130.66"/>
<polygon fill="midnightblue" stroke="midnightblue" points="502.39,-173.05 512.77,-170.92 503.33,-166.11 502.39,-173.05"/>
</g>
<!-- Node14 -->
<g id="node14" class="node">
<title>Node14</title>
<g id="a_node14"><a xlink:href="csvwriter_8hpp.html" target="_top" xlink:title="IO::write_csv source file.">
<polygon fill="none" stroke="black" points="244.5,-112.5 244.5,-131.5 329.5,-131.5 329.5,-112.5 244.5,-112.5"/>
<text text-anchor="middle" x="287" y="-119.5" font-family="Helvetica,sans-Serif" font-size="10.00">io/csvwriter.hpp</text>
</a>
</g>
</g>
<!-- Node1&#45;&gt;Node14 -->
<g id="edge30" class="edge">
<title>Node1&#45;&gt;Node14</title>
<path fill="none" stroke="midnightblue" d="M505.17,-166.47C453.96,-156.27 377.23,-140.98 329.74,-131.52"/>
<polygon fill="midnightblue" stroke="midnightblue" points="504.57,-169.92 515.06,-168.44 505.94,-163.06 504.57,-169.92"/>
</g>
<!-- Node15 -->
<g id="node15" class="node">
<title>Node15</title>
<g id="a_node15"><a xlink:href="jsonwriter_8hpp.html" target="_top" xlink:title="IO::write_json source file.">
<polygon fill="none" stroke="black" points="347.5,-112.5 347.5,-131.5 434.5,-131.5 434.5,-112.5 347.5,-112.5"/>
<text text-anchor="middle" x="391" y="-119.5" font-family="Helvetica,sans-Serif" font-size="10.00">io/jsonwriter.hpp</text>
</a>
</g>
</g>
<!-- Node1&#45;&gt;Node15 -->
<g id="edge32" class="edge">
<title>Node1&#45;&gt;Node15</title>
<path fill="none" stroke="midnightblue" d="M521.83,-165.3C490.36,-155.13 445.51,-140.62 417.34,-131.52"/>
<polygon fill="midnightblue" stroke="midnightblue" points="520.95,-168.7 531.54,-168.44 523.1,-162.04 520.95,-168.7"/>
</g>
<!-- Node2&#45;&gt;Node3 -->
<g id="edge2" class="edge">
<title>Node2&#45;&gt;Node3</title>
<path fill="none" stroke="midnightblue" d="M110.1,-110.52C170.33,-99.07 264.45,-81.18 311,-72.32"/>
<polygon fill="midnightblue" stroke="midnightblue" points="109.17,-107.14 100,-112.44 110.48,-114.01 109.17,-107.14"/>
</g>
<!-- Node4&#45;&gt;Node1 -->
<g id="edge23" class="edge">
<title>Node4&#45;&gt;Node1</title>
<path fill="none" stroke="midnightblue" d="M664.28,-135.59C641.23,-145.69 607.25,-159.6 583.85,-168.44"/>
<polygon fill="midnightblue" stroke="midnightblue" points="665.71,-138.78 673.42,-131.52 662.86,-132.39 665.71,-138.78"/>
</g>
<!-- Node4&#45;&gt;Node3 -->
<g id="edge4" class="edge">
<title>Node4&#45;&gt;Node3</title>
<path fill="none" stroke="midnightblue" d="M623.47,-110.89C546.5,-99.01 422.31,-79.85 367.06,-71.33"/>
<polygon fill="midnightblue" stroke="midnightblue" points="623.12,-114.38 633.54,-112.44 624.19,-107.46 623.12,-114.38"/>
</g>
<!-- Node5 -->
<g id="node5" class="node">
<title>Node5</title>
<g id="a_node5"><a xlink:href="block_8hpp.html" target="_top" xlink:title="MODEL::Block source file.">
<polygon fill="none" stroke="black" points="700.5,-56.5 700.5,-75.5 787.5,-75.5 787.5,-56.5 700.5,-56.5"/>
<text text-anchor="middle" x="744" y="-63.5" font-family="Helvetica,sans-Serif" font-size="10.00">model/block.hpp</text>
</a>
</g>
</g>
<!-- Node4&#45;&gt;Node5 -->
<g id="edge5" class="edge">
<title>Node4&#45;&gt;Node5</title>
<path fill="none" stroke="midnightblue" d="M705.29,-105C715.04,-95.43 727.05,-83.64 735.09,-75.75"/>
<polygon fill="midnightblue" stroke="midnightblue" points="702.77,-102.58 698.08,-112.08 707.67,-107.57 702.77,-102.58"/>
</g>
<!-- Node6 -->
<g id="node6" class="node">
<title>Node6</title>
<g id="a_node6"><a xlink:href="bloodvessel_8hpp.html" target="_top" xlink:title="MODEL::BloodVessel source file.">
<polygon fill="none" stroke="black" points="312,-0.5 312,-19.5 428,-19.5 428,-0.5 312,-0.5"/>
<text text-anchor="middle" x="370" y="-7.5" font-family="Helvetica,sans-Serif" font-size="10.00">model/bloodvessel.hpp</text>
</a>
</g>
</g>
<!-- Node4&#45;&gt;Node6 -->
<g id="edge20" class="edge">
<title>Node4&#45;&gt;Node6</title>
<path fill="none" stroke="midnightblue" d="M654.5,-109.1C589.78,-86.79 451.58,-39.13 394.97,-19.61"/>
<polygon fill="midnightblue" stroke="midnightblue" points="653.64,-112.51 664.23,-112.46 655.92,-105.89 653.64,-112.51"/>
</g>
<!-- Node7 -->
<g id="node7" class="node">
<title>Node7</title>
<g id="a_node7"><a xlink:href="flowreference_8hpp.html" target="_top" xlink:title="MODEL::FlowReference source file.">
<polygon fill="none" stroke="black" points="446,-0.5 446,-19.5 568,-19.5 568,-0.5 446,-0.5"/>
<text text-anchor="middle" x="507" y="-7.5" font-family="Helvetica,sans-Serif" font-size="10.00">model/flowreference.hpp</text>
</a>
</g>
</g>
<!-- Node4&#45;&gt;Node7 -->
<g id="edge21" class="edge">
<title>Node4&#45;&gt;Node7</title>
<path fill="none" stroke="midnightblue" d="M665.85,-107.01C627.65,-83.92 552.52,-38.51 521.21,-19.59"/>
<polygon fill="midnightblue" stroke="midnightblue" points="664.35,-110.19 674.72,-112.37 667.97,-104.2 664.35,-110.19"/>
</g>
<!-- Node8 -->
<g id="node8" class="node">
<title>Node8</title>
<g id="a_node8"><a xlink:href="junction_8hpp.html" target="_top" xlink:title="MODEL::Junction source file.">
<polygon fill="none" stroke="black" points="586,-0.5 586,-19.5 684,-19.5 684,-0.5 586,-0.5"/>
<text text-anchor="middle" x="635" y="-7.5" font-family="Helvetica,sans-Serif" font-size="10.00">model/junction.hpp</text>
</a>
</g>
</g>
<!-- Node4&#45;&gt;Node8 -->
<g id="edge22" class="edge">
<title>Node4&#45;&gt;Node8</title>
<path fill="none" stroke="midnightblue" d="M680.32,-103.32C668.56,-79.37 648.03,-37.55 639.22,-19.59"/>
<polygon fill="midnightblue" stroke="midnightblue" points="677.21,-104.93 684.76,-112.37 683.5,-101.85 677.21,-104.93"/>
</g>
<!-- Node9 -->
<g id="node9" class="node">
<title>Node9</title>
<g id="a_node9"><a xlink:href="openloopcoronarywithdistalpressure_8hpp.html" target="_top" xlink:title="MODEL::OpenLoopCoronaryWithDistalPressure source file.">
<polygon fill="none" stroke="black" points="1263,-0.5 1263,-19.5 1481,-19.5 1481,-0.5 1263,-0.5"/>
<text text-anchor="middle" x="1372" y="-7.5" font-family="Helvetica,sans-Serif" font-size="10.00">model/openloopcoronarywithdistalpressure.hpp</text>
</a>
</g>
</g>
<!-- Node4&#45;&gt;Node9 -->
<g id="edge24" class="edge">
<title>Node4&#45;&gt;Node9</title>
<path fill="none" stroke="midnightblue" d="M752.1,-110.84C885.67,-89.33 1194.87,-39.53 1319.01,-19.53"/>
<polygon fill="midnightblue" stroke="midnightblue" points="751.34,-107.41 742.03,-112.46 752.45,-114.33 751.34,-107.41"/>
</g>
<!-- Node10 -->
<g id="node10" class="node">
<title>Node10</title>
<g id="a_node10"><a xlink:href="pressurereference_8hpp.html" target="_top" xlink:title="MODEL::PressureReference source file.">
<polygon fill="none" stroke="black" points="897,-0.5 897,-19.5 1039,-19.5 1039,-0.5 897,-0.5"/>
<text text-anchor="middle" x="968" y="-7.5" font-family="Helvetica,sans-Serif" font-size="10.00">model/pressurereference.hpp</text>
</a>
</g>
</g>
<!-- Node4&#45;&gt;Node10 -->
<g id="edge25" class="edge">
<title>Node4&#45;&gt;Node10</title>
<path fill="none" stroke="midnightblue" d="M723.58,-108.96C748.55,-100.15 783,-87.72 813,-76 862.19,-56.77 919.31,-32.24 948.55,-19.52"/>
<polygon fill="midnightblue" stroke="midnightblue" points="722.11,-105.77 713.84,-112.39 724.43,-112.37 722.11,-105.77"/>
</g>
<!-- Node11 -->
<g id="node11" class="node">
<title>Node11</title>
<g id="a_node11"><a xlink:href="rcrblockwithdistalpressure_8hpp.html" target="_top" xlink:title="MODEL::RCRBlockWithDistalPressure source file.">
<polygon fill="none" stroke="black" points="701.5,-0.5 701.5,-19.5 878.5,-19.5 878.5,-0.5 701.5,-0.5"/>
<text text-anchor="middle" x="790" y="-7.5" font-family="Helvetica,sans-Serif" font-size="10.00">model/rcrblockwithdistalpressure.hpp</text>
</a>
</g>
</g>
<!-- Node4&#45;&gt;Node11 -->
<g id="edge26" class="edge">
<title>Node4&#45;&gt;Node11</title>
<path fill="none" stroke="midnightblue" d="M749.24,-109.25C767.34,-102.61 785.22,-92.22 796,-76 807.41,-58.82 799.57,-33.21 794.07,-19.85"/>
<polygon fill="midnightblue" stroke="midnightblue" points="747.9,-106.01 739.51,-112.49 750.1,-112.66 747.9,-106.01"/>
</g>
<!-- Node12 -->
<g id="node12" class="node">
<title>Node12</title>
<g id="a_node12"><a xlink:href="resistancewithdistalpressure_8hpp.html" target="_top" xlink:title="MODEL::ResistanceWithDistalPressure source file.">
<polygon fill="none" stroke="black" points="1057,-0.5 1057,-19.5 1245,-19.5 1245,-0.5 1057,-0.5"/>
<text text-anchor="middle" x="1151" y="-7.5" font-family="Helvetica,sans-Serif" font-size="10.00">model/resistancewithdistalpressure.hpp</text>
</a>
</g>
</g>
<!-- Node4&#45;&gt;Node12 -->
<g id="edge27" class="edge">
<title>Node4&#45;&gt;Node12</title>
<path fill="none" stroke="midnightblue" d="M734.71,-110.12C826.63,-88.23 1032.11,-39.31 1115.15,-19.53"/>
<polygon fill="midnightblue" stroke="midnightblue" points="733.79,-106.74 724.87,-112.46 735.41,-113.55 733.79,-106.74"/>
</g>
<!-- Node5&#45;&gt;Node6 -->
<g id="edge6" class="edge">
<title>Node5&#45;&gt;Node6</title>
<path fill="none" stroke="midnightblue" d="M690.06,-57.21C620.4,-47.15 499.63,-29.72 428.04,-19.38"/>
<polygon fill="midnightblue" stroke="midnightblue" points="689.97,-60.73 700.37,-58.7 690.97,-53.81 689.97,-60.73"/>
</g>
<!-- Node5&#45;&gt;Node7 -->
<g id="edge8" class="edge">
<title>Node5&#45;&gt;Node7</title>
<path fill="none" stroke="midnightblue" d="M696.68,-54.22C651.89,-44.01 585.56,-28.9 544.38,-19.52"/>
<polygon fill="midnightblue" stroke="midnightblue" points="695.92,-57.63 706.45,-56.44 697.47,-50.81 695.92,-57.63"/>
</g>
<!-- Node5&#45;&gt;Node8 -->
<g id="edge10" class="edge">
<title>Node5&#45;&gt;Node8</title>
<path fill="none" stroke="midnightblue" d="M717.48,-51.86C697.27,-41.85 670.01,-28.35 652.47,-19.65"/>
<polygon fill="midnightblue" stroke="midnightblue" points="715.97,-55.02 726.49,-56.32 719.08,-48.75 715.97,-55.02"/>
</g>
<!-- Node5&#45;&gt;Node9 -->
<g id="edge12" class="edge">
<title>Node5&#45;&gt;Node9</title>
<path fill="none" stroke="midnightblue" d="M797.76,-60.38C903.25,-51.31 1138.76,-31.06 1273.11,-19.5"/>
<polygon fill="midnightblue" stroke="midnightblue" points="797.32,-56.9 787.66,-61.25 797.92,-63.88 797.32,-56.9"/>
</g>
<!-- Node5&#45;&gt;Node10 -->
<g id="edge14" class="edge">
<title>Node5&#45;&gt;Node10</title>
<path fill="none" stroke="midnightblue" d="M789.26,-54.09C831.58,-43.89 893.91,-28.86 932.67,-19.52"/>
<polygon fill="midnightblue" stroke="midnightblue" points="788.39,-50.7 779.49,-56.44 790.04,-57.5 788.39,-50.7"/>
</g>
<!-- Node5&#45;&gt;Node11 -->
<g id="edge16" class="edge">
<title>Node5&#45;&gt;Node11</title>
<path fill="none" stroke="midnightblue" d="M758.11,-48.43C766.18,-38.97 775.96,-27.48 782.55,-19.75"/>
<polygon fill="midnightblue" stroke="midnightblue" points="755.42,-46.2 751.6,-56.08 760.75,-50.74 755.42,-46.2"/>
</g>
<!-- Node5&#45;&gt;Node12 -->
<g id="edge18" class="edge">
<title>Node5&#45;&gt;Node12</title>
<path fill="none" stroke="midnightblue" d="M797.67,-57.88C872.23,-47.99 1006.98,-30.11 1086.78,-19.52"/>
<polygon fill="midnightblue" stroke="midnightblue" points="797.01,-54.44 787.56,-59.22 797.93,-61.38 797.01,-54.44"/>
</g>
<!-- Node6&#45;&gt;Node1 -->
<g id="edge7" class="edge">
<title>Node6&#45;&gt;Node1</title>
<path fill="none" stroke="midnightblue" d="M387.58,-26.52C426.3,-60.72 517.95,-141.64 548.16,-168.31"/>
<polygon fill="midnightblue" stroke="midnightblue" points="389.56,-23.6 379.75,-19.61 384.93,-28.85 389.56,-23.6"/>
</g>
<!-- Node7&#45;&gt;Node1 -->
<g id="edge9" class="edge">
<title>Node7&#45;&gt;Node1</title>
<path fill="none" stroke="midnightblue" d="M512.71,-29.58C523.66,-65.21 547.23,-141.95 555.26,-168.08"/>
<polygon fill="midnightblue" stroke="midnightblue" points="515.91,-28.1 509.63,-19.57 509.22,-30.16 515.91,-28.1"/>
</g>
<!-- Node8&#45;&gt;Node1 -->
<g id="edge11" class="edge">
<title>Node8&#45;&gt;Node1</title>
<path fill="none" stroke="midnightblue" d="M626.81,-28.66C610.47,-63.88 574.37,-141.72 562.14,-168.08"/>
<polygon fill="midnightblue" stroke="midnightblue" points="629.99,-30.11 631.03,-19.57 623.64,-27.17 629.99,-30.11"/>
</g>
<!-- Node9&#45;&gt;Node1 -->
<g id="edge13" class="edge">
<title>Node9&#45;&gt;Node1</title>
<path fill="none" stroke="midnightblue" d="M1331.47,-22.2C1246.72,-45.31 1044.35,-98.87 872,-132 776.95,-150.27 664.42,-164.66 603.2,-171.89"/>
<polygon fill="midnightblue" stroke="midnightblue" points="1332.49,-25.55 1341.21,-19.53 1330.64,-18.8 1332.49,-25.55"/>
</g>
<!-- Node10&#45;&gt;Node1 -->
<g id="edge15" class="edge">
<title>Node10&#45;&gt;Node1</title>
<path fill="none" stroke="midnightblue" d="M950.71,-26.59C920.73,-52.74 856.14,-105.17 792,-132 729.6,-158.1 651.46,-169.22 603.13,-173.84"/>
<polygon fill="midnightblue" stroke="midnightblue" points="953.37,-28.92 958.55,-19.67 948.74,-23.67 953.37,-28.92"/>
</g>
<!-- Node11&#45;&gt;Node1 -->
<g id="edge17" class="edge">
<title>Node11&#45;&gt;Node1</title>
<path fill="none" stroke="midnightblue" d="M803.01,-28.4C811.18,-41.54 819.11,-59.98 813,-76 801.11,-107.17 791.8,-115.16 763,-132 713.3,-161.06 646.86,-171.39 603.27,-175.04"/>
<polygon fill="midnightblue" stroke="midnightblue" points="805.74,-26.18 797.22,-19.88 799.95,-30.12 805.74,-26.18"/>
</g>
<!-- Node12&#45;&gt;Node1 -->
<g id="edge19" class="edge">
<title>Node12&#45;&gt;Node1</title>
<path fill="none" stroke="midnightblue" d="M1122.69,-23.58C1066.83,-47.94 938.06,-101.78 825,-132 748.48,-152.45 657.02,-165.48 603.44,-171.99"/>
<polygon fill="midnightblue" stroke="midnightblue" points="1124.19,-26.75 1131.94,-19.53 1121.38,-20.34 1124.19,-26.75"/>
</g>
<!-- Node13&#45;&gt;Node3 -->
<g id="edge29" class="edge">
<title>Node13&#45;&gt;Node3</title>
<path fill="none" stroke="midnightblue" d="M212.48,-109.17C242.99,-99 286.24,-84.59 313.45,-75.52"/>
<polygon fill="midnightblue" stroke="midnightblue" points="211.05,-105.96 202.67,-112.44 213.26,-112.6 211.05,-105.96"/>
</g>
<!-- Node14&#45;&gt;Node3 -->
<g id="edge31" class="edge">
<title>Node14&#45;&gt;Node3</title>
<path fill="none" stroke="midnightblue" d="M302.68,-104.72C311.84,-95.2 323.05,-83.56 330.57,-75.75"/>
<polygon fill="midnightblue" stroke="midnightblue" points="300,-102.45 295.59,-112.08 305.04,-107.31 300,-102.45"/>
</g>
<!-- Node15&#45;&gt;Node3 -->
<g id="edge33" class="edge">
<title>Node15&#45;&gt;Node3</title>
<path fill="none" stroke="midnightblue" d="M375.32,-104.72C366.16,-95.2 354.95,-83.56 347.43,-75.75"/>
<polygon fill="midnightblue" stroke="midnightblue" points="372.96,-107.31 382.41,-112.08 378,-102.45 372.96,-107.31"/>
</g>
</g>
</svg>
