<?xml version="1.0" encoding="UTF-8" standalone="no"?>
<!DOCTYPE svg PUBLIC "-//W3C//DTD SVG 1.1//EN"
 "http://www.w3.org/Graphics/SVG/1.1/DTD/svg11.dtd">
<!-- Generated by graphviz version 3.0.0 (20220413.0242)
 -->
<!-- Title: model/model.hpp Pages: 1 -->
<svg width="1247pt" height="308pt"
 viewBox="0.00 0.00 1247.00 308.00" xmlns="http://www.w3.org/2000/svg" xmlns:xlink="http://www.w3.org/1999/xlink">
<g id="graph0" class="graph" transform="scale(1 1) rotate(0) translate(4 304)">
<title>model/model.hpp</title>
<!-- Node1 -->
<g id="node1" class="node">
<title>Node1</title>
<g id="a_node1"><a xlink:title="MODEL::Model source file.">
<polygon fill="#bfbfbf" stroke="black" points="663,-280.5 663,-299.5 753,-299.5 753,-280.5 663,-280.5"/>
<text text-anchor="middle" x="708" y="-287.5" font-family="Helvetica,sans-Serif" font-size="10.00">model/model.hpp</text>
</a>
</g>
</g>
<!-- Node2 -->
<g id="node2" class="node">
<title>Node2</title>
<g id="a_node2"><a xlink:title=" ">
<polygon fill="none" stroke="#bfbfbf" points="66.5,-112.5 66.5,-131.5 101.5,-131.5 101.5,-112.5 66.5,-112.5"/>
<text text-anchor="middle" x="84" y="-119.5" font-family="Helvetica,sans-Serif" font-size="10.00">map</text>
</a>
</g>
</g>
<!-- Node1&#45;&gt;Node2 -->
<g id="edge1" class="edge">
<title>Node1&#45;&gt;Node2</title>
<path fill="none" stroke="midnightblue" d="M662.87,-287.78C511.42,-283.49 29.49,-267.98 7,-244 -5.2,-230.99 -0.44,-195.95 18,-168 27.5,-153.61 43.33,-142.58 57.11,-135.05"/>
<polygon fill="midnightblue" stroke="midnightblue" points="58.91,-138.06 66.22,-130.39 55.73,-131.83 58.91,-138.06"/>
</g>
<!-- Node3 -->
<g id="node3" class="node">
<title>Node3</title>
<g id="a_node3"><a xlink:title=" ">
<polygon fill="none" stroke="#bfbfbf" points="1145.5,-224.5 1145.5,-243.5 1174.5,-243.5 1174.5,-224.5 1145.5,-224.5"/>
<text text-anchor="middle" x="1160" y="-231.5" font-family="Helvetica,sans-Serif" font-size="10.00">list</text>
</a>
</g>
</g>
<!-- Node1&#45;&gt;Node3 -->
<g id="edge2" class="edge">
<title>Node1&#45;&gt;Node3</title>
<path fill="none" stroke="midnightblue" d="M753.21,-287.08C831.08,-283.14 995.21,-272.02 1131,-244 1132.49,-243.69 1134.01,-243.34 1135.53,-242.96"/>
<polygon fill="midnightblue" stroke="midnightblue" points="1136.74,-246.25 1145.4,-240.14 1134.82,-239.52 1136.74,-246.25"/>
</g>
<!-- Node4 -->
<g id="node4" class="node">
<title>Node4</title>
<g id="a_node4"><a xlink:title=" ">
<polygon fill="none" stroke="#bfbfbf" points="1193,-224.5 1193,-243.5 1239,-243.5 1239,-224.5 1193,-224.5"/>
<text text-anchor="middle" x="1216" y="-231.5" font-family="Helvetica,sans-Serif" font-size="10.00">variant</text>
</a>
</g>
</g>
<!-- Node1&#45;&gt;Node4 -->
<g id="edge3" class="edge">
<title>Node1&#45;&gt;Node4</title>
<path fill="none" stroke="midnightblue" d="M753.33,-287.43C836.66,-283.95 1019.82,-273.59 1182.51,-243.96"/>
<polygon fill="midnightblue" stroke="midnightblue" points="1183.5,-247.34 1192.7,-242.08 1182.23,-240.46 1183.5,-247.34"/>
</g>
<!-- Node5 -->
<g id="node5" class="node">
<title>Node5</title>
<g id="a_node5"><a xlink:href="densesystem_8hpp.html" target="_top" xlink:title="ALGEBRA::DenseSystem source file.">
<polygon fill="none" stroke="black" points="238,-112.5 238,-131.5 372,-131.5 372,-112.5 238,-112.5"/>
<text text-anchor="middle" x="305" y="-119.5" font-family="Helvetica,sans-Serif" font-size="10.00">../algebra/densesystem.hpp</text>
</a>
</g>
</g>
<!-- Node1&#45;&gt;Node5 -->
<g id="edge4" class="edge">
<title>Node1&#45;&gt;Node5</title>
<path fill="none" stroke="midnightblue" d="M662.96,-289.52C517.28,-290.74 65.73,-290.69 22,-244 -43.75,-173.8 122.89,-142.5 227.61,-130.1"/>
<polygon fill="midnightblue" stroke="midnightblue" points="228.32,-133.54 237.86,-128.92 227.52,-126.59 228.32,-133.54"/>
</g>
<!-- Node7 -->
<g id="node7" class="node">
<title>Node7</title>
<g id="a_node7"><a xlink:href="sparsesystem_8hpp.html" target="_top" xlink:title="ALGEBRA::SparseSystem source file.">
<polygon fill="none" stroke="black" points="567.5,-112.5 567.5,-131.5 704.5,-131.5 704.5,-112.5 567.5,-112.5"/>
<text text-anchor="middle" x="636" y="-119.5" font-family="Helvetica,sans-Serif" font-size="10.00">../algebra/sparsesystem.hpp</text>
</a>
</g>
</g>
<!-- Node1&#45;&gt;Node7 -->
<g id="edge6" class="edge">
<title>Node1&#45;&gt;Node7</title>
<path fill="none" stroke="midnightblue" d="M753.21,-288.91C826.07,-287.57 964,-280.07 995,-244 1000.8,-237.26 1000.59,-230.91 995,-224 947,-164.62 900.67,-208.1 827,-188 799.89,-180.6 793.72,-176.75 767,-168 732.15,-156.59 692.33,-143.82 665.68,-134.8"/>
<polygon fill="midnightblue" stroke="midnightblue" points="666.75,-131.47 656.15,-131.54 664.48,-138.09 666.75,-131.47"/>
</g>
<!-- Node11 -->
<g id="node11" class="node">
<title>Node11</title>
<g id="a_node11"><a xlink:href="junction_8hpp.html" target="_top" xlink:title="MODEL::Junction source file.">
<polygon fill="none" stroke="black" points="31,-224.5 31,-243.5 99,-243.5 99,-224.5 31,-224.5"/>
<text text-anchor="middle" x="65" y="-231.5" font-family="Helvetica,sans-Serif" font-size="10.00">junction.hpp</text>
</a>
</g>
</g>
<!-- Node1&#45;&gt;Node11 -->
<g id="edge11" class="edge">
<title>Node1&#45;&gt;Node11</title>
<path fill="none" stroke="midnightblue" d="M663,-287.65C564.41,-284.25 321.82,-273.51 109.3,-244"/>
<polygon fill="midnightblue" stroke="midnightblue" points="109.59,-240.51 99.2,-242.58 108.62,-247.44 109.59,-240.51"/>
</g>
<!-- Node14 -->
<g id="node14" class="node">
<title>Node14</title>
<g id="a_node14"><a xlink:href="node_8hpp.html" target="_top" xlink:title="MODEL::Node source file.">
<polygon fill="none" stroke="black" points="991,-112.5 991,-131.5 1047,-131.5 1047,-112.5 991,-112.5"/>
<text text-anchor="middle" x="1019" y="-119.5" font-family="Helvetica,sans-Serif" font-size="10.00">node.hpp</text>
</a>
</g>
</g>
<!-- Node1&#45;&gt;Node14 -->
<g id="edge31" class="edge">
<title>Node1&#45;&gt;Node14</title>
<path fill="none" stroke="midnightblue" d="M753.07,-289.61C832.83,-289.63 993.79,-284.5 1029,-244 1053.93,-215.34 1038.81,-167.09 1027.68,-141.01"/>
<polygon fill="midnightblue" stroke="midnightblue" points="1030.73,-139.27 1023.41,-131.61 1024.35,-142.16 1030.73,-139.27"/>
</g>
<!-- Node16 -->
<g id="node16" class="node">
<title>Node16</title>
<g id="a_node16"><a xlink:href="dofhandler_8hpp.html" target="_top" xlink:title="MODEL::DOFHandler source file.">
<polygon fill="none" stroke="black" points="914,-56.5 914,-75.5 994,-75.5 994,-56.5 914,-56.5"/>
<text text-anchor="middle" x="954" y="-63.5" font-family="Helvetica,sans-Serif" font-size="10.00">dofhandler.hpp</text>
</a>
</g>
</g>
<!-- Node1&#45;&gt;Node16 -->
<g id="edge30" class="edge">
<title>Node1&#45;&gt;Node16</title>
<path fill="none" stroke="midnightblue" d="M753.06,-289.7C836.09,-289.97 1008.35,-285.38 1048,-244 1088.67,-201.57 1088.1,-161.24 1056,-112 1044.3,-94.04 1023.62,-83.19 1003.93,-76.67"/>
<polygon fill="midnightblue" stroke="midnightblue" points="1004.67,-73.24 994.08,-73.72 1002.66,-79.94 1004.67,-73.24"/>
</g>
<!-- Node17 -->
<g id="node17" class="node">
<title>Node17</title>
<g id="a_node17"><a xlink:href="bloodvessel_8hpp.html" target="_top" xlink:title="MODEL::BloodVessel source file.">
<polygon fill="none" stroke="black" points="283,-224.5 283,-243.5 369,-243.5 369,-224.5 283,-224.5"/>
<text text-anchor="middle" x="326" y="-231.5" font-family="Helvetica,sans-Serif" font-size="10.00">bloodvessel.hpp</text>
</a>
</g>
</g>
<!-- Node1&#45;&gt;Node17 -->
<g id="edge25" class="edge">
<title>Node1&#45;&gt;Node17</title>
<path fill="none" stroke="midnightblue" d="M662.83,-283.36C601.12,-275.54 486.77,-260.65 379.17,-244.13"/>
<polygon fill="midnightblue" stroke="midnightblue" points="379.53,-240.65 369.11,-242.58 378.46,-247.57 379.53,-240.65"/>
</g>
<!-- Node19 -->
<g id="node19" class="node">
<title>Node19</title>
<g id="a_node19"><a xlink:href="flowreference_8hpp.html" target="_top" xlink:title="MODEL::FlowReference source file.">
<polygon fill="none" stroke="black" points="387,-224.5 387,-243.5 479,-243.5 479,-224.5 387,-224.5"/>
<text text-anchor="middle" x="433" y="-231.5" font-family="Helvetica,sans-Serif" font-size="10.00">flowreference.hpp</text>
</a>
</g>
</g>
<!-- Node1&#45;&gt;Node19 -->
<g id="edge32" class="edge">
<title>Node1&#45;&gt;Node19</title>
<path fill="none" stroke="midnightblue" d="M664.43,-280.44C616.15,-270.96 538.29,-255.67 486.39,-245.48"/>
<polygon fill="midnightblue" stroke="midnightblue" points="486.86,-242.01 476.37,-243.52 485.51,-248.88 486.86,-242.01"/>
</g>
<!-- Node22 -->
<g id="node22" class="node">
<title>Node22</title>
<g id="a_node22"><a xlink:href="pressurereference_8hpp.html" target="_top" xlink:title="MODEL::PressureReference source file.">
<polygon fill="none" stroke="black" points="497.5,-224.5 497.5,-243.5 610.5,-243.5 610.5,-224.5 497.5,-224.5"/>
<text text-anchor="middle" x="554" y="-231.5" font-family="Helvetica,sans-Serif" font-size="10.00">pressurereference.hpp</text>
</a>
</g>
</g>
<!-- Node1&#45;&gt;Node22 -->
<g id="edge41" class="edge">
<title>Node1&#45;&gt;Node22</title>
<path fill="none" stroke="midnightblue" d="M683.6,-280.44C657.81,-271.4 616.93,-257.06 587.99,-246.92"/>
<polygon fill="midnightblue" stroke="midnightblue" points="588.89,-243.52 578.29,-243.52 586.57,-250.13 588.89,-243.52"/>
</g>
<!-- Node23 -->
<g id="node23" class="node">
<title>Node23</title>
<g id="a_node23"><a xlink:href="rcrblockwithdistalpressure_8hpp.html" target="_top" xlink:title="MODEL::RCRBlockWithDistalPressure source file.">
<polygon fill="none" stroke="black" points="117,-224.5 117,-243.5 265,-243.5 265,-224.5 117,-224.5"/>
<text text-anchor="middle" x="191" y="-231.5" font-family="Helvetica,sans-Serif" font-size="10.00">rcrblockwithdistalpressure.hpp</text>
</a>
</g>
</g>
<!-- Node1&#45;&gt;Node23 -->
<g id="edge46" class="edge">
<title>Node1&#45;&gt;Node23</title>
<path fill="none" stroke="midnightblue" d="M662.7,-284.37C585.52,-276.48 423.31,-259.81 275.39,-244.14"/>
<polygon fill="midnightblue" stroke="midnightblue" points="275.53,-240.64 265.21,-243.06 274.79,-247.6 275.53,-240.64"/>
</g>
<!-- Node24 -->
<g id="node24" class="node">
<title>Node24</title>
<g id="a_node24"><a xlink:href="resistancewithdistalpressure_8hpp.html" target="_top" xlink:title="MODEL::ResistanceWithDistalPressure source file.">
<polygon fill="none" stroke="black" points="629,-224.5 629,-243.5 787,-243.5 787,-224.5 629,-224.5"/>
<text text-anchor="middle" x="708" y="-231.5" font-family="Helvetica,sans-Serif" font-size="10.00">resistancewithdistalpressure.hpp</text>
</a>
</g>
</g>
<!-- Node1&#45;&gt;Node24 -->
<g id="edge50" class="edge">
<title>Node1&#45;&gt;Node24</title>
<path fill="none" stroke="midnightblue" d="M708,-280.08C708,-273.01 708,-262.86 708,-253.99"/>
<polygon fill="midnightblue" stroke="midnightblue" points="711.5,-253.75 708,-243.75 704.5,-253.75 711.5,-253.75"/>
</g>
<!-- Node25 -->
<g id="node25" class="node">
<title>Node25</title>
<g id="a_node25"><a xlink:href="openloopcoronarywithdistalpressure_8hpp.html" target="_top" xlink:title="MODEL::OpenLoopCoronaryWithDistalPressure source file.">
<polygon fill="none" stroke="black" points="805.5,-224.5 805.5,-243.5 994.5,-243.5 994.5,-224.5 805.5,-224.5"/>
<text text-anchor="middle" x="900" y="-231.5" font-family="Helvetica,sans-Serif" font-size="10.00">openloopcoronarywithdistalpressure.hpp</text>
</a>
</g>
</g>
<!-- Node1&#45;&gt;Node25 -->
<g id="edge55" class="edge">
<title>Node1&#45;&gt;Node25</title>
<path fill="none" stroke="midnightblue" d="M738.43,-280.44C771.29,-271.2 823.79,-256.44 859.98,-246.26"/>
<polygon fill="midnightblue" stroke="midnightblue" points="861.04,-249.59 869.72,-243.52 859.15,-242.85 861.04,-249.59"/>
</g>
<!-- Node6 -->
<g id="node6" class="node">
<title>Node6</title>
<g id="a_node6"><a xlink:title=" ">
<polygon fill="none" stroke="#bfbfbf" points="269.5,-56.5 269.5,-75.5 340.5,-75.5 340.5,-56.5 269.5,-56.5"/>
<text text-anchor="middle" x="305" y="-63.5" font-family="Helvetica,sans-Serif" font-size="10.00">Eigen/Dense</text>
</a>
</g>
</g>
<!-- Node5&#45;&gt;Node6 -->
<g id="edge5" class="edge">
<title>Node5&#45;&gt;Node6</title>
<path fill="none" stroke="midnightblue" d="M305,-112.08C305,-105.01 305,-94.86 305,-85.99"/>
<polygon fill="midnightblue" stroke="midnightblue" points="308.5,-85.75 305,-75.75 301.5,-85.75 308.5,-85.75"/>
</g>
<!-- Node7&#45;&gt;Node1 -->
<g id="edge10" class="edge">
<title>Node7&#45;&gt;Node1</title>
<path fill="none" stroke="midnightblue" d="M669.59,-131.54C700.08,-140.53 745.7,-155.13 785,-168 811.72,-176.75 817.89,-180.6 845,-188 918.67,-208.1 965,-164.62 1013,-224 1018.59,-230.91 1018.8,-237.26 1013,-244 981.84,-280.26 842.57,-287.65 763.35,-288.93"/>
<polygon fill="midnightblue" stroke="midnightblue" points="763.01,-285.43 753.06,-289.07 763.11,-292.43 763.01,-285.43"/>
</g>
<!-- Node8 -->
<g id="node8" class="node">
<title>Node8</title>
<g id="a_node8"><a xlink:title=" ">
<polygon fill="none" stroke="#bfbfbf" points="500,-56.5 500,-75.5 574,-75.5 574,-56.5 500,-56.5"/>
<text text-anchor="middle" x="537" y="-63.5" font-family="Helvetica,sans-Serif" font-size="10.00">Eigen/Sparse</text>
</a>
</g>
</g>
<!-- Node7&#45;&gt;Node8 -->
<g id="edge7" class="edge">
<title>Node7&#45;&gt;Node8</title>
<path fill="none" stroke="midnightblue" d="M620.1,-112.32C604.37,-103.74 580.06,-90.49 561.8,-80.52"/>
<polygon fill="midnightblue" stroke="midnightblue" points="563.33,-77.37 552.87,-75.65 559.97,-83.52 563.33,-77.37"/>
</g>
<!-- Node9 -->
<g id="node9" class="node">
<title>Node9</title>
<g id="a_node9"><a xlink:title=" ">
<polygon fill="none" stroke="#bfbfbf" points="592,-56.5 592,-75.5 680,-75.5 680,-56.5 592,-56.5"/>
<text text-anchor="middle" x="636" y="-63.5" font-family="Helvetica,sans-Serif" font-size="10.00">Eigen/SparseLU</text>
</a>
</g>
</g>
<!-- Node7&#45;&gt;Node9 -->
<g id="edge8" class="edge">
<title>Node7&#45;&gt;Node9</title>
<path fill="none" stroke="midnightblue" d="M636,-112.08C636,-105.01 636,-94.86 636,-85.99"/>
<polygon fill="midnightblue" stroke="midnightblue" points="639.5,-85.75 636,-75.75 632.5,-85.75 639.5,-85.75"/>
</g>
<!-- Node10 -->
<g id="node10" class="node">
<title>Node10</title>
<g id="a_node10"><a xlink:title=" ">
<polygon fill="none" stroke="#bfbfbf" points="698,-56.5 698,-75.5 752,-75.5 752,-56.5 698,-56.5"/>
<text text-anchor="middle" x="725" y="-63.5" font-family="Helvetica,sans-Serif" font-size="10.00">iostream</text>
</a>
</g>
</g>
<!-- Node7&#45;&gt;Node10 -->
<g id="edge9" class="edge">
<title>Node7&#45;&gt;Node10</title>
<path fill="none" stroke="midnightblue" d="M650.3,-112.32C664.19,-103.9 685.5,-90.97 701.81,-81.07"/>
<polygon fill="midnightblue" stroke="midnightblue" points="704.01,-83.83 710.74,-75.65 700.38,-77.85 704.01,-83.83"/>
</g>
<!-- Node11&#45;&gt;Node5 -->
<g id="edge12" class="edge">
<title>Node11&#45;&gt;Node5</title>
<path fill="none" stroke="midnightblue" d="M83.84,-224.37C125.9,-205.09 227.65,-158.45 277.1,-135.79"/>
<polygon fill="midnightblue" stroke="midnightblue" points="278.63,-138.94 286.26,-131.59 275.71,-132.58 278.63,-138.94"/>
</g>
<!-- Node11&#45;&gt;Node7 -->
<g id="edge13" class="edge">
<title>Node11&#45;&gt;Node7</title>
<path fill="none" stroke="midnightblue" d="M95.32,-224.4C143.75,-210.9 241.7,-184.57 326,-168 404.1,-152.65 494.22,-140.14 557.09,-132.24"/>
<polygon fill="midnightblue" stroke="midnightblue" points="557.84,-135.68 567.33,-130.97 556.98,-128.73 557.84,-135.68"/>
</g>
<!-- Node12 -->
<g id="node12" class="node">
<title>Node12</title>
<g id="a_node12"><a xlink:href="block_8hpp.html" target="_top" xlink:title="MODEL::Block source file.">
<polygon fill="none" stroke="black" points="409,-168.5 409,-187.5 467,-187.5 467,-168.5 409,-168.5"/>
<text text-anchor="middle" x="438" y="-175.5" font-family="Helvetica,sans-Serif" font-size="10.00">block.hpp</text>
</a>
</g>
</g>
<!-- Node11&#45;&gt;Node12 -->
<g id="edge14" class="edge">
<title>Node11&#45;&gt;Node12</title>
<path fill="none" stroke="midnightblue" d="M99.23,-225.61C102.19,-225.04 105.15,-224.49 108,-224 212.5,-205.96 336.63,-190.68 398.64,-183.45"/>
<polygon fill="midnightblue" stroke="midnightblue" points="399.23,-186.91 408.76,-182.28 398.43,-179.96 399.23,-186.91"/>
</g>
<!-- Node12&#45;&gt;Node2 -->
<g id="edge16" class="edge">
<title>Node12&#45;&gt;Node2</title>
<path fill="none" stroke="midnightblue" d="M408.73,-172.54C341.57,-162.29 177.16,-137.21 111.62,-127.21"/>
<polygon fill="midnightblue" stroke="midnightblue" points="112.05,-123.74 101.63,-125.69 110.99,-130.66 112.05,-123.74"/>
</g>
<!-- Node12&#45;&gt;Node5 -->
<g id="edge23" class="edge">
<title>Node12&#45;&gt;Node5</title>
<path fill="none" stroke="midnightblue" d="M416.93,-168.44C394.94,-159.52 360.27,-145.44 335.34,-135.32"/>
<polygon fill="midnightblue" stroke="midnightblue" points="336.56,-132.04 325.98,-131.52 333.93,-138.52 336.56,-132.04"/>
</g>
<!-- Node12&#45;&gt;Node7 -->
<g id="edge24" class="edge">
<title>Node12&#45;&gt;Node7</title>
<path fill="none" stroke="midnightblue" d="M467.22,-169.03C500.99,-159.82 556.81,-144.6 594.94,-134.2"/>
<polygon fill="midnightblue" stroke="midnightblue" points="595.98,-137.54 604.71,-131.54 594.14,-130.79 595.98,-137.54"/>
</g>
<!-- Node13 -->
<g id="node13" class="node">
<title>Node13</title>
<g id="a_node13"><a xlink:title=" ">
<polygon fill="none" stroke="#bfbfbf" points="827,-0.5 827,-19.5 871,-19.5 871,-0.5 827,-0.5"/>
<text text-anchor="middle" x="849" y="-7.5" font-family="Helvetica,sans-Serif" font-size="10.00">vector</text>
</a>
</g>
</g>
<!-- Node12&#45;&gt;Node13 -->
<g id="edge15" class="edge">
<title>Node12&#45;&gt;Node13</title>
<path fill="none" stroke="midnightblue" d="M438.95,-168.19C441.9,-145.39 453.15,-84.27 491,-56 542.05,-17.87 738.04,-11.92 816.37,-11.09"/>
<polygon fill="midnightblue" stroke="midnightblue" points="816.65,-14.59 826.62,-11 816.59,-7.59 816.65,-14.59"/>
</g>
<!-- Node12&#45;&gt;Node14 -->
<g id="edge17" class="edge">
<title>Node12&#45;&gt;Node14</title>
<path fill="none" stroke="midnightblue" d="M467.05,-174.6C543.94,-168.2 759.15,-149.98 938,-132 952.03,-130.59 967.4,-128.91 980.95,-127.39"/>
<polygon fill="midnightblue" stroke="midnightblue" points="981.36,-130.87 990.9,-126.27 980.57,-123.91 981.36,-130.87"/>
</g>
<!-- Node12&#45;&gt;Node16 -->
<g id="edge22" class="edge">
<title>Node12&#45;&gt;Node16</title>
<path fill="none" stroke="midnightblue" d="M450.36,-168.28C471.5,-153.86 516.45,-125.31 559,-112 622.11,-92.26 812.05,-76.86 903.59,-70.36"/>
<polygon fill="midnightblue" stroke="midnightblue" points="903.99,-73.84 913.73,-69.65 903.5,-66.86 903.99,-73.84"/>
</g>
<!-- Node15 -->
<g id="node15" class="node">
<title>Node15</title>
<g id="a_node15"><a xlink:title=" ">
<polygon fill="none" stroke="#bfbfbf" points="967.5,-0.5 967.5,-19.5 1008.5,-19.5 1008.5,-0.5 967.5,-0.5"/>
<text text-anchor="middle" x="988" y="-7.5" font-family="Helvetica,sans-Serif" font-size="10.00">string</text>
</a>
</g>
</g>
<!-- Node14&#45;&gt;Node15 -->
<g id="edge18" class="edge">
<title>Node14&#45;&gt;Node15</title>
<path fill="none" stroke="midnightblue" d="M1017.05,-112.11C1014.24,-99.53 1008.75,-75.87 1003,-56 1000.43,-47.09 997.21,-37.31 994.42,-29.15"/>
<polygon fill="midnightblue" stroke="midnightblue" points="997.68,-27.86 991.09,-19.56 991.07,-30.16 997.68,-27.86"/>
</g>
<!-- Node14&#45;&gt;Node16 -->
<g id="edge19" class="edge">
<title>Node14&#45;&gt;Node16</title>
<path fill="none" stroke="midnightblue" d="M1008.56,-112.32C998.86,-104.26 984.19,-92.08 972.5,-82.37"/>
<polygon fill="midnightblue" stroke="midnightblue" points="974.57,-79.53 964.64,-75.83 970.09,-84.92 974.57,-79.53"/>
</g>
<!-- Node16&#45;&gt;Node13 -->
<g id="edge20" class="edge">
<title>Node16&#45;&gt;Node13</title>
<path fill="none" stroke="midnightblue" d="M937.13,-56.32C920.3,-47.66 894.2,-34.24 874.77,-24.25"/>
<polygon fill="midnightblue" stroke="midnightblue" points="876.33,-21.12 865.83,-19.65 873.12,-27.34 876.33,-21.12"/>
</g>
<!-- Node16&#45;&gt;Node15 -->
<g id="edge21" class="edge">
<title>Node16&#45;&gt;Node15</title>
<path fill="none" stroke="midnightblue" d="M959.62,-56.08C964.37,-48.53 971.32,-37.49 977.16,-28.23"/>
<polygon fill="midnightblue" stroke="midnightblue" points="980.13,-30.08 982.49,-19.75 974.2,-26.35 980.13,-30.08"/>
</g>
<!-- Node17&#45;&gt;Node5 -->
<g id="edge28" class="edge">
<title>Node17&#45;&gt;Node5</title>
<path fill="none" stroke="midnightblue" d="M316.45,-224.45C307.92,-216.12 296.02,-202.6 291,-188 285.68,-172.49 290.58,-154.18 295.99,-140.96"/>
<polygon fill="midnightblue" stroke="midnightblue" points="299.29,-142.14 300.25,-131.59 292.92,-139.24 299.29,-142.14"/>
</g>
<!-- Node17&#45;&gt;Node7 -->
<g id="edge29" class="edge">
<title>Node17&#45;&gt;Node7</title>
<path fill="none" stroke="midnightblue" d="M362.22,-224.48C393.09,-216.66 438.3,-203.91 476,-188 492.87,-180.88 495.35,-175.59 512,-168 540.39,-155.06 573.68,-143.15 598.62,-134.84"/>
<polygon fill="midnightblue" stroke="midnightblue" points="600.01,-138.06 608.41,-131.61 597.82,-131.41 600.01,-138.06"/>
</g>
<!-- Node17&#45;&gt;Node12 -->
<g id="edge27" class="edge">
<title>Node17&#45;&gt;Node12</title>
<path fill="none" stroke="midnightblue" d="M344,-224.32C362.04,-215.62 390.05,-202.12 410.81,-192.11"/>
<polygon fill="midnightblue" stroke="midnightblue" points="412.57,-195.15 420.05,-187.65 409.53,-188.84 412.57,-195.15"/>
</g>
<!-- Node18 -->
<g id="node18" class="node">
<title>Node18</title>
<g id="a_node18"><a xlink:title=" ">
<polygon fill="none" stroke="#bfbfbf" points="750,-112.5 750,-131.5 796,-131.5 796,-112.5 750,-112.5"/>
<text text-anchor="middle" x="773" y="-119.5" font-family="Helvetica,sans-Serif" font-size="10.00">math.h</text>
</a>
</g>
</g>
<!-- Node17&#45;&gt;Node18 -->
<g id="edge26" class="edge">
<title>Node17&#45;&gt;Node18</title>
<path fill="none" stroke="midnightblue" d="M360.71,-224.46C444.7,-203.79 658.07,-151.28 740.14,-131.09"/>
<polygon fill="midnightblue" stroke="midnightblue" points="741.06,-134.47 749.93,-128.68 739.38,-127.67 741.06,-134.47"/>
</g>
<!-- Node19&#45;&gt;Node5 -->
<g id="edge33" class="edge">
<title>Node19&#45;&gt;Node5</title>
<path fill="none" stroke="midnightblue" d="M394.75,-224.45C372.93,-217.8 346.52,-206.5 329,-188 317,-175.32 310.89,-156.11 307.85,-141.86"/>
<polygon fill="midnightblue" stroke="midnightblue" points="311.24,-140.94 306.02,-131.72 304.35,-142.18 311.24,-140.94"/>
</g>
<!-- Node19&#45;&gt;Node7 -->
<g id="edge34" class="edge">
<title>Node19&#45;&gt;Node7</title>
<path fill="none" stroke="midnightblue" d="M448.93,-224.37C484.21,-205.25 569.15,-159.23 611.35,-136.36"/>
<polygon fill="midnightblue" stroke="midnightblue" points="613.02,-139.43 620.15,-131.59 609.69,-133.28 613.02,-139.43"/>
</g>
<!-- Node19&#45;&gt;Node12 -->
<g id="edge35" class="edge">
<title>Node19&#45;&gt;Node12</title>
<path fill="none" stroke="midnightblue" d="M433.83,-224.08C434.49,-217.01 435.42,-206.86 436.25,-197.99"/>
<polygon fill="midnightblue" stroke="midnightblue" points="439.76,-198.03 437.19,-187.75 432.79,-197.39 439.76,-198.03"/>
</g>
<!-- Node20 -->
<g id="node20" class="node">
<title>Node20</title>
<g id="a_node20"><a xlink:href="timedependentparameter_8hpp.html" target="_top" xlink:title="MODEL::TimeDependentParameter source file.">
<polygon fill="none" stroke="black" points="845,-168.5 845,-187.5 987,-187.5 987,-168.5 845,-168.5"/>
<text text-anchor="middle" x="916" y="-175.5" font-family="Helvetica,sans-Serif" font-size="10.00">timedependentparameter.hpp</text>
</a>
</g>
</g>
<!-- Node19&#45;&gt;Node20 -->
<g id="edge36" class="edge">
<title>Node19&#45;&gt;Node20</title>
<path fill="none" stroke="midnightblue" d="M479.12,-225.38C482.46,-224.9 485.78,-224.43 489,-224 609.13,-208.03 748.87,-194.2 834.88,-186.23"/>
<polygon fill="midnightblue" stroke="midnightblue" points="835.21,-189.71 844.84,-185.31 834.56,-182.74 835.21,-189.71"/>
</g>
<!-- Node20&#45;&gt;Node13 -->
<g id="edge38" class="edge">
<title>Node20&#45;&gt;Node13</title>
<path fill="none" stroke="midnightblue" d="M903,-168.27C892.08,-160.2 877.02,-147.19 869,-132 851.68,-99.16 848.68,-54.92 848.52,-30.04"/>
<polygon fill="midnightblue" stroke="midnightblue" points="852.03,-29.83 848.62,-19.8 845.03,-29.77 852.03,-29.83"/>
</g>
<!-- Node20&#45;&gt;Node16 -->
<g id="edge40" class="edge">
<title>Node20&#45;&gt;Node16</title>
<path fill="none" stroke="midnightblue" d="M920.96,-168.28C925.85,-159.39 933.26,-145.08 938,-132 943.52,-116.79 947.77,-98.9 950.5,-85.74"/>
<polygon fill="midnightblue" stroke="midnightblue" points="954,-86.07 952.5,-75.59 947.13,-84.72 954,-86.07"/>
</g>
<!-- Node20&#45;&gt;Node18 -->
<g id="edge37" class="edge">
<title>Node20&#45;&gt;Node18</title>
<path fill="none" stroke="midnightblue" d="M893.35,-168.44C869.6,-159.48 832.1,-145.31 805.27,-135.18"/>
<polygon fill="midnightblue" stroke="midnightblue" points="806.15,-131.77 795.56,-131.52 803.68,-138.32 806.15,-131.77"/>
</g>
<!-- Node21 -->
<g id="node21" class="node">
<title>Node21</title>
<g id="a_node21"><a xlink:title=" ">
<polygon fill="none" stroke="#bfbfbf" points="877.5,-112.5 877.5,-131.5 928.5,-131.5 928.5,-112.5 877.5,-112.5"/>
<text text-anchor="middle" x="903" y="-119.5" font-family="Helvetica,sans-Serif" font-size="10.00">numeric</text>
</a>
</g>
</g>
<!-- Node20&#45;&gt;Node21 -->
<g id="edge39" class="edge">
<title>Node20&#45;&gt;Node21</title>
<path fill="none" stroke="midnightblue" d="M913.86,-168.08C912.13,-160.93 909.66,-150.64 907.5,-141.69"/>
<polygon fill="midnightblue" stroke="midnightblue" points="910.85,-140.65 905.11,-131.75 904.05,-142.29 910.85,-140.65"/>
</g>
<!-- Node22&#45;&gt;Node5 -->
<g id="edge42" class="edge">
<title>Node22&#45;&gt;Node5</title>
<path fill="none" stroke="midnightblue" d="M511.85,-224.48C480.14,-217.17 436.13,-205.1 400,-188 371.29,-174.4 341.6,-152.63 323.22,-138.07"/>
<polygon fill="midnightblue" stroke="midnightblue" points="325.14,-135.13 315.16,-131.58 320.75,-140.58 325.14,-135.13"/>
</g>
<!-- Node22&#45;&gt;Node7 -->
<g id="edge43" class="edge">
<title>Node22&#45;&gt;Node7</title>
<path fill="none" stroke="midnightblue" d="M560.44,-224.37C574.03,-206.14 605.87,-163.43 623.57,-139.68"/>
<polygon fill="midnightblue" stroke="midnightblue" points="626.43,-141.7 629.6,-131.59 620.82,-137.52 626.43,-141.7"/>
</g>
<!-- Node22&#45;&gt;Node12 -->
<g id="edge44" class="edge">
<title>Node22&#45;&gt;Node12</title>
<path fill="none" stroke="midnightblue" d="M535.62,-224.44C516.79,-215.68 487.27,-201.94 465.62,-191.86"/>
<polygon fill="midnightblue" stroke="midnightblue" points="466.84,-188.56 456.3,-187.52 463.89,-194.91 466.84,-188.56"/>
</g>
<!-- Node22&#45;&gt;Node20 -->
<g id="edge45" class="edge">
<title>Node22&#45;&gt;Node20</title>
<path fill="none" stroke="midnightblue" d="M610.57,-224.56C674.97,-214.96 780.11,-199.27 848.68,-189.04"/>
<polygon fill="midnightblue" stroke="midnightblue" points="849.57,-192.45 858.94,-187.51 848.54,-185.53 849.57,-192.45"/>
</g>
<!-- Node23&#45;&gt;Node5 -->
<g id="edge47" class="edge">
<title>Node23&#45;&gt;Node5</title>
<path fill="none" stroke="midnightblue" d="M199.95,-224.37C219.1,-205.89 264.28,-162.29 288.69,-138.74"/>
<polygon fill="midnightblue" stroke="midnightblue" points="291.33,-141.05 296.1,-131.59 286.47,-136.02 291.33,-141.05"/>
</g>
<!-- Node23&#45;&gt;Node7 -->
<g id="edge48" class="edge">
<title>Node23&#45;&gt;Node7</title>
<path fill="none" stroke="midnightblue" d="M215.2,-224.49C253.88,-211.12 332.17,-184.96 400,-168 457.62,-153.6 524.14,-141.3 571.85,-133.21"/>
<polygon fill="midnightblue" stroke="midnightblue" points="572.45,-136.66 581.73,-131.55 571.29,-129.76 572.45,-136.66"/>
</g>
<!-- Node23&#45;&gt;Node12 -->
<g id="edge49" class="edge">
<title>Node23&#45;&gt;Node12</title>
<path fill="none" stroke="midnightblue" d="M230.14,-224.44C276.3,-214.35 352.58,-197.68 398.78,-187.58"/>
<polygon fill="midnightblue" stroke="midnightblue" points="399.7,-190.96 408.72,-185.4 398.2,-184.12 399.7,-190.96"/>
</g>
<!-- Node24&#45;&gt;Node5 -->
<g id="edge51" class="edge">
<title>Node24&#45;&gt;Node5</title>
<path fill="none" stroke="midnightblue" d="M678.01,-224.43C633.84,-211.85 548.66,-187.74 476,-168 432.46,-156.17 382.54,-143.09 347.93,-134.09"/>
<polygon fill="midnightblue" stroke="midnightblue" points="348.71,-130.68 338.15,-131.56 346.95,-137.46 348.71,-130.68"/>
</g>
<!-- Node24&#45;&gt;Node7 -->
<g id="edge52" class="edge">
<title>Node24&#45;&gt;Node7</title>
<path fill="none" stroke="midnightblue" d="M702.35,-224.37C690.47,-206.22 662.71,-163.8 647.13,-139.99"/>
<polygon fill="midnightblue" stroke="midnightblue" points="650.03,-138.04 641.63,-131.59 644.18,-141.88 650.03,-138.04"/>
</g>
<!-- Node24&#45;&gt;Node12 -->
<g id="edge53" class="edge">
<title>Node24&#45;&gt;Node12</title>
<path fill="none" stroke="midnightblue" d="M665.22,-224.44C613.58,-214.12 527.45,-196.89 477.38,-186.88"/>
<polygon fill="midnightblue" stroke="midnightblue" points="477.76,-183.38 467.27,-184.85 476.39,-190.25 477.76,-183.38"/>
</g>
<!-- Node24&#45;&gt;Node20 -->
<g id="edge54" class="edge">
<title>Node24&#45;&gt;Node20</title>
<path fill="none" stroke="midnightblue" d="M740.96,-224.44C776.79,-215.14 834.17,-200.25 873.39,-190.06"/>
<polygon fill="midnightblue" stroke="midnightblue" points="874.4,-193.42 883.2,-187.52 872.64,-186.64 874.4,-193.42"/>
</g>
<!-- Node25&#45;&gt;Node5 -->
<g id="edge56" class="edge">
<title>Node25&#45;&gt;Node5</title>
<path fill="none" stroke="midnightblue" d="M853.81,-224.46C746.07,-204.54 478.43,-155.06 361.35,-133.42"/>
<polygon fill="midnightblue" stroke="midnightblue" points="361.64,-129.91 351.17,-131.53 360.37,-136.79 361.64,-129.91"/>
</g>
<!-- Node25&#45;&gt;Node7 -->
<g id="edge57" class="edge">
<title>Node25&#45;&gt;Node7</title>
<path fill="none" stroke="midnightblue" d="M877.43,-224.46C854.16,-215.59 816.9,-201.19 785,-188 742.83,-170.56 694.48,-149.21 664.59,-135.86"/>
<polygon fill="midnightblue" stroke="midnightblue" points="665.75,-132.54 655.19,-131.65 662.89,-138.93 665.75,-132.54"/>
</g>
<!-- Node25&#45;&gt;Node12 -->
<g id="edge58" class="edge">
<title>Node25&#45;&gt;Node12</title>
<path fill="none" stroke="midnightblue" d="M827.05,-224.47C728.09,-212.91 554.78,-192.65 477.33,-183.6"/>
<polygon fill="midnightblue" stroke="midnightblue" points="477.4,-180.08 467.06,-182.4 476.59,-187.03 477.4,-180.08"/>
</g>
<!-- Node25&#45;&gt;Node20 -->
<g id="edge59" class="edge">
<title>Node25&#45;&gt;Node20</title>
<path fill="none" stroke="midnightblue" d="M902.65,-224.08C904.79,-216.85 907.88,-206.41 910.55,-197.4"/>
<polygon fill="midnightblue" stroke="midnightblue" points="913.93,-198.33 913.41,-187.75 907.21,-196.34 913.93,-198.33"/>
</g>
</g>
</svg>
