<?xml version="1.0" encoding="UTF-8" standalone="no"?>
<!DOCTYPE svg PUBLIC "-//W3C//DTD SVG 1.1//EN"
 "http://www.w3.org/Graphics/SVG/1.1/DTD/svg11.dtd">
<!-- Generated by graphviz version 3.0.0 (20221109.1736)
 -->
<!-- Title: model/model.hpp Pages: 1 -->
<svg width="1974pt" height="420pt"
 viewBox="0.00 0.00 1973.50 420.00" xmlns="http://www.w3.org/2000/svg" xmlns:xlink="http://www.w3.org/1999/xlink">
<g id="graph0" class="graph" transform="scale(1 1) rotate(0) translate(4 416)">
<title>model/model.hpp</title>
<!-- Node1 -->
<g id="node1" class="node">
<title>Node1</title>
<g id="a_node1"><a xlink:title="MODEL::Model source file.">
<polygon fill="#bfbfbf" stroke="black" points="873,-392.5 873,-411.5 963,-411.5 963,-392.5 873,-392.5"/>
<text text-anchor="middle" x="918" y="-399.5" font-family="Helvetica,sans-Serif" font-size="10.00">model/model.hpp</text>
</a>
</g>
</g>
<!-- Node2 -->
<g id="node2" class="node">
<title>Node2</title>
<g id="a_node2"><a xlink:href="integrator_8hpp.html" target="_top" xlink:title="ALGEBRA::Integrator source file.">
<polygon fill="none" stroke="black" points="44,-280.5 44,-299.5 154,-299.5 154,-280.5 44,-280.5"/>
<text text-anchor="middle" x="99" y="-287.5" font-family="Helvetica,sans-Serif" font-size="10.00">algebra/integrator.hpp</text>
</a>
</g>
</g>
<!-- Node1&#45;&gt;Node2 -->
<g id="edge1" class="edge">
<title>Node1&#45;&gt;Node2</title>
<path fill="none" stroke="midnightblue" d="M862.49,-393.54C712.97,-373.46 303.02,-318.4 154.04,-298.39"/>
<polygon fill="midnightblue" stroke="midnightblue" points="862.42,-397.07 872.8,-394.93 863.36,-390.13 862.42,-397.07"/>
</g>
<!-- Node3 -->
<g id="node3" class="node">
<title>Node3</title>
<g id="a_node3"><a xlink:href="main_8hpp.html" target="_top" xlink:title="Main page documentation.">
<polygon fill="none" stroke="black" points="400,-56.5 400,-75.5 456,-75.5 456,-56.5 400,-56.5"/>
<text text-anchor="middle" x="428" y="-63.5" font-family="Helvetica,sans-Serif" font-size="10.00">main.hpp</text>
</a>
</g>
</g>
<!-- Node1&#45;&gt;Node3 -->
<g id="edge50" class="edge">
<title>Node1&#45;&gt;Node3</title>
<path fill="none" stroke="midnightblue" d="M862.59,-400.22C664.04,-396.69 0,-378.37 0,-291 0,-291 0,-291 0,-177 0,-94.14 304.7,-72.8 399.92,-68.15"/>
<polygon fill="midnightblue" stroke="midnightblue" points="862.73,-403.72 872.79,-400.39 862.85,-396.72 862.73,-403.72"/>
</g>
<!-- Node6 -->
<g id="node6" class="node">
<title>Node6</title>
<g id="a_node6"><a xlink:href="sparsesystem_8hpp.html" target="_top" xlink:title="ALGEBRA::SparseSystem source file.">
<polygon fill="none" stroke="black" points="853,-336.5 853,-355.5 983,-355.5 983,-336.5 853,-336.5"/>
<text text-anchor="middle" x="918" y="-343.5" font-family="Helvetica,sans-Serif" font-size="10.00">algebra/sparsesystem.hpp</text>
</a>
</g>
</g>
<!-- Node1&#45;&gt;Node6 -->
<g id="edge5" class="edge">
<title>Node1&#45;&gt;Node6</title>
<path fill="none" stroke="midnightblue" d="M911.53,-382.1C910.9,-373.14 911.34,-362.86 912.87,-355.75"/>
<polygon fill="midnightblue" stroke="midnightblue" points="908.07,-382.62 912.83,-392.08 915.01,-381.71 908.07,-382.62"/>
</g>
<!-- Node9 -->
<g id="node9" class="node">
<title>Node9</title>
<g id="a_node9"><a xlink:href="configreader_8hpp.html" target="_top" xlink:title="IO::ConfigReader source file.">
<polygon fill="none" stroke="black" points="838,-112.5 838,-131.5 936,-131.5 936,-112.5 838,-112.5"/>
<text text-anchor="middle" x="887" y="-119.5" font-family="Helvetica,sans-Serif" font-size="10.00">io/configreader.hpp</text>
</a>
</g>
</g>
<!-- Node1&#45;&gt;Node9 -->
<g id="edge47" class="edge">
<title>Node1&#45;&gt;Node9</title>
<path fill="none" stroke="midnightblue" d="M973.06,-400.34C1173.42,-397.22 1852,-380.07 1852,-291 1852,-291 1852,-291 1852,-233 1852,-139.84 1132.83,-125.55 936.18,-123.38"/>
<polygon fill="midnightblue" stroke="midnightblue" points="973,-396.84 963.05,-400.49 973.1,-403.84 973,-396.84"/>
</g>
<!-- Node21 -->
<g id="node21" class="node">
<title>Node21</title>
<g id="a_node21"><a xlink:href="csvwriter_8hpp.html" target="_top" xlink:title="IO::write_csv source file.">
<polygon fill="none" stroke="black" points="1880.5,-168.5 1880.5,-187.5 1965.5,-187.5 1965.5,-168.5 1880.5,-168.5"/>
<text text-anchor="middle" x="1923" y="-175.5" font-family="Helvetica,sans-Serif" font-size="10.00">io/csvwriter.hpp</text>
</a>
</g>
</g>
<!-- Node1&#45;&gt;Node21 -->
<g id="edge48" class="edge">
<title>Node1&#45;&gt;Node21</title>
<path fill="none" stroke="midnightblue" d="M973.17,-400.11C1170.35,-396.69 1830.41,-383.24 1866,-356 1921.37,-313.61 1923.88,-216.75 1923.32,-187.51"/>
<polygon fill="midnightblue" stroke="midnightblue" points="972.98,-396.61 963.04,-400.28 973.1,-403.61 972.98,-396.61"/>
</g>
<!-- Node2&#45;&gt;Node3 -->
<g id="edge2" class="edge">
<title>Node2&#45;&gt;Node3</title>
<path fill="none" stroke="midnightblue" d="M78.38,-274.07C62.74,-260.86 45.69,-241.07 57,-224 136.49,-104.05 327.85,-75.49 399.92,-68.91"/>
<polygon fill="midnightblue" stroke="midnightblue" points="76.27,-276.87 86.28,-280.34 80.62,-271.38 76.27,-276.87"/>
</g>
<!-- Node4 -->
<g id="node4" class="node">
<title>Node4</title>
<g id="a_node4"><a xlink:href="main_8cpp.html" target="_top" xlink:title="Main routine of svZeroDSolver.">
<polygon fill="none" stroke="black" points="361,-0.5 361,-19.5 417,-19.5 417,-0.5 361,-0.5"/>
<text text-anchor="middle" x="389" y="-7.5" font-family="Helvetica,sans-Serif" font-size="10.00">main.cpp</text>
</a>
</g>
</g>
<!-- Node3&#45;&gt;Node4 -->
<g id="edge3" class="edge">
<title>Node3&#45;&gt;Node4</title>
<path fill="none" stroke="midnightblue" d="M415.62,-47.86C408.86,-38.5 400.79,-27.33 395.32,-19.75"/>
<polygon fill="midnightblue" stroke="midnightblue" points="412.87,-50.03 421.56,-56.08 418.54,-45.93 412.87,-50.03"/>
</g>
<!-- Node5 -->
<g id="node5" class="node">
<title>Node5</title>
<g id="a_node5"><a xlink:href="python_8cpp.html" target="_top" xlink:title="Python binding for svZeroDSolver.">
<polygon fill="none" stroke="black" points="435.5,-0.5 435.5,-19.5 498.5,-19.5 498.5,-0.5 435.5,-0.5"/>
<text text-anchor="middle" x="467" y="-7.5" font-family="Helvetica,sans-Serif" font-size="10.00">python.cpp</text>
</a>
</g>
</g>
<!-- Node3&#45;&gt;Node5 -->
<g id="edge4" class="edge">
<title>Node3&#45;&gt;Node5</title>
<path fill="none" stroke="midnightblue" d="M440.38,-47.86C447.14,-38.5 455.21,-27.33 460.68,-19.75"/>
<polygon fill="midnightblue" stroke="midnightblue" points="437.46,-45.93 434.44,-56.08 443.13,-50.03 437.46,-45.93"/>
</g>
<!-- Node6&#45;&gt;Node1 -->
<g id="edge41" class="edge">
<title>Node6&#45;&gt;Node1</title>
<path fill="none" stroke="midnightblue" d="M924.46,-365.69C925.11,-374.64 924.68,-384.93 923.17,-392.08"/>
<polygon fill="midnightblue" stroke="midnightblue" points="927.92,-365.2 923.13,-355.75 920.98,-366.13 927.92,-365.2"/>
</g>
<!-- Node7 -->
<g id="node7" class="node">
<title>Node7</title>
<g id="a_node7"><a xlink:href="block_8hpp.html" target="_top" xlink:title="MODEL::Block source file.">
<polygon fill="none" stroke="black" points="787.5,-280.5 787.5,-299.5 874.5,-299.5 874.5,-280.5 787.5,-280.5"/>
<text text-anchor="middle" x="831" y="-287.5" font-family="Helvetica,sans-Serif" font-size="10.00">model/block.hpp</text>
</a>
</g>
</g>
<!-- Node6&#45;&gt;Node7 -->
<g id="edge6" class="edge">
<title>Node6&#45;&gt;Node7</title>
<path fill="none" stroke="midnightblue" d="M895.28,-330.9C879.33,-321 858.5,-308.07 844.94,-299.65"/>
<polygon fill="midnightblue" stroke="midnightblue" points="893.68,-334.02 904.02,-336.32 897.37,-328.08 893.68,-334.02"/>
</g>
<!-- Node8 -->
<g id="node8" class="node">
<title>Node8</title>
<g id="a_node8"><a xlink:href="bloodvessel_8hpp.html" target="_top" xlink:title="MODEL::BloodVessel source file.">
<polygon fill="none" stroke="black" points="398,-224.5 398,-243.5 514,-243.5 514,-224.5 398,-224.5"/>
<text text-anchor="middle" x="456" y="-231.5" font-family="Helvetica,sans-Serif" font-size="10.00">model/bloodvessel.hpp</text>
</a>
</g>
</g>
<!-- Node6&#45;&gt;Node8 -->
<g id="edge34" class="edge">
<title>Node6&#45;&gt;Node8</title>
<path fill="none" stroke="midnightblue" d="M869.83,-334.22C829.92,-325.24 771.72,-312.01 721,-300 638.03,-280.35 540.72,-256.2 490.26,-243.59"/>
<polygon fill="midnightblue" stroke="midnightblue" points="869.3,-337.69 879.82,-336.47 870.84,-330.86 869.3,-337.69"/>
</g>
<!-- Node10 -->
<g id="node10" class="node">
<title>Node10</title>
<g id="a_node10"><a xlink:href="bloodvesseljunction_8hpp.html" target="_top" xlink:title="MODEL::BloodVesselJunction source file.">
<polygon fill="none" stroke="black" points="591.5,-168.5 591.5,-187.5 740.5,-187.5 740.5,-168.5 591.5,-168.5"/>
<text text-anchor="middle" x="666" y="-175.5" font-family="Helvetica,sans-Serif" font-size="10.00">model/bloodvesseljunction.hpp</text>
</a>
</g>
</g>
<!-- Node6&#45;&gt;Node10 -->
<g id="edge35" class="edge">
<title>Node6&#45;&gt;Node10</title>
<path fill="none" stroke="midnightblue" d="M842.83,-342.21C710.49,-335.53 444.62,-313.58 389,-244 383.45,-237.06 383.24,-230.77 389,-224 402.04,-208.67 513.67,-194.38 591.17,-186.18"/>
<polygon fill="midnightblue" stroke="midnightblue" points="842.73,-345.71 852.89,-342.7 843.07,-338.72 842.73,-345.71"/>
</g>
<!-- Node11 -->
<g id="node11" class="node">
<title>Node11</title>
<g id="a_node11"><a xlink:href="closedloop_r_c_rbc_8hpp.html" target="_top" xlink:title="MODEL::ClosedLoopRCRBC source file.">
<polygon fill="none" stroke="black" points="532.5,-224.5 532.5,-243.5 673.5,-243.5 673.5,-224.5 532.5,-224.5"/>
<text text-anchor="middle" x="603" y="-231.5" font-family="Helvetica,sans-Serif" font-size="10.00">model/closedloopRCRbc.hpp</text>
</a>
</g>
</g>
<!-- Node6&#45;&gt;Node11 -->
<g id="edge36" class="edge">
<title>Node6&#45;&gt;Node11</title>
<path fill="none" stroke="midnightblue" d="M880.38,-333.41C852.11,-324.58 812.49,-311.94 778,-300 722.57,-280.81 658.04,-256.26 624.99,-243.53"/>
<polygon fill="midnightblue" stroke="midnightblue" points="879.66,-336.85 890.25,-336.48 881.75,-330.17 879.66,-336.85"/>
</g>
<!-- Node12 -->
<g id="node12" class="node">
<title>Node12</title>
<g id="a_node12"><a xlink:href="closedloopcoronarybc_8hpp.html" target="_top" xlink:title="MODEL::ClosedLoopCoronaryBC source file.">
<polygon fill="none" stroke="black" points="1666,-224.5 1666,-243.5 1824,-243.5 1824,-224.5 1666,-224.5"/>
<text text-anchor="middle" x="1745" y="-231.5" font-family="Helvetica,sans-Serif" font-size="10.00">model/closedloopcoronarybc.hpp</text>
</a>
</g>
</g>
<!-- Node6&#45;&gt;Node12 -->
<g id="edge37" class="edge">
<title>Node6&#45;&gt;Node12</title>
<path fill="none" stroke="midnightblue" d="M993.45,-335.42C1064.15,-326.42 1172.77,-312.48 1267,-300 1416.44,-280.2 1592.05,-256.11 1683.14,-243.55"/>
<polygon fill="midnightblue" stroke="midnightblue" points="992.78,-331.98 983.3,-336.72 993.67,-338.93 992.78,-331.98"/>
</g>
<!-- Node13 -->
<g id="node13" class="node">
<title>Node13</title>
<g id="a_node13"><a xlink:href="closedloopheartpulmonary_8hpp.html" target="_top" xlink:title="MODEL::ClosedLoopHeartPulmonary source file.">
<polygon fill="none" stroke="black" points="730,-224.5 730,-243.5 906,-243.5 906,-224.5 730,-224.5"/>
<text text-anchor="middle" x="818" y="-231.5" font-family="Helvetica,sans-Serif" font-size="10.00">model/closedloopheartpulmonary.hpp</text>
</a>
</g>
</g>
<!-- Node6&#45;&gt;Node13 -->
<g id="edge38" class="edge">
<title>Node6&#45;&gt;Node13</title>
<path fill="none" stroke="midnightblue" d="M910.96,-326.76C904.98,-312.87 895.39,-293.86 883,-280 869.09,-264.45 848.79,-251.5 834.58,-243.55"/>
<polygon fill="midnightblue" stroke="midnightblue" points="907.79,-328.27 914.81,-336.21 914.27,-325.62 907.79,-328.27"/>
</g>
<!-- Node14 -->
<g id="node14" class="node">
<title>Node14</title>
<g id="a_node14"><a xlink:href="flowreferencebc_8hpp.html" target="_top" xlink:title="MODEL::FlowReferenceBC source file.">
<polygon fill="none" stroke="black" points="924,-224.5 924,-243.5 1056,-243.5 1056,-224.5 924,-224.5"/>
<text text-anchor="middle" x="990" y="-231.5" font-family="Helvetica,sans-Serif" font-size="10.00">model/flowreferencebc.hpp</text>
</a>
</g>
</g>
<!-- Node6&#45;&gt;Node14 -->
<g id="edge39" class="edge">
<title>Node6&#45;&gt;Node14</title>
<path fill="none" stroke="midnightblue" d="M929.16,-327.96C944.76,-304.12 972.52,-261.71 984.38,-243.59"/>
<polygon fill="midnightblue" stroke="midnightblue" points="926.2,-326.08 923.65,-336.37 932.05,-329.92 926.2,-326.08"/>
</g>
<!-- Node15 -->
<g id="node15" class="node">
<title>Node15</title>
<g id="a_node15"><a xlink:href="junction_8hpp.html" target="_top" xlink:title="MODEL::Junction source file.">
<polygon fill="none" stroke="black" points="1074,-224.5 1074,-243.5 1172,-243.5 1172,-224.5 1074,-224.5"/>
<text text-anchor="middle" x="1123" y="-231.5" font-family="Helvetica,sans-Serif" font-size="10.00">model/junction.hpp</text>
</a>
</g>
</g>
<!-- Node6&#45;&gt;Node15 -->
<g id="edge40" class="edge">
<title>Node6&#45;&gt;Node15</title>
<path fill="none" stroke="midnightblue" d="M942.99,-331.59C985.67,-308.69 1071.43,-262.67 1106.99,-243.59"/>
<polygon fill="midnightblue" stroke="midnightblue" points="941.24,-328.56 934.09,-336.37 944.55,-334.72 941.24,-328.56"/>
</g>
<!-- Node16 -->
<g id="node16" class="node">
<title>Node16</title>
<g id="a_node16"><a xlink:href="openloopcoronarybc_8hpp.html" target="_top" xlink:title="MODEL::OpenLoopCoronaryBC source file.">
<polygon fill="none" stroke="black" points="1190,-224.5 1190,-243.5 1340,-243.5 1340,-224.5 1190,-224.5"/>
<text text-anchor="middle" x="1265" y="-231.5" font-family="Helvetica,sans-Serif" font-size="10.00">model/openloopcoronarybc.hpp</text>
</a>
</g>
</g>
<!-- Node6&#45;&gt;Node16 -->
<g id="edge42" class="edge">
<title>Node6&#45;&gt;Node16</title>
<path fill="none" stroke="midnightblue" d="M954.66,-333.38C1024.69,-311.18 1176,-263.21 1237.84,-243.61"/>
<polygon fill="midnightblue" stroke="midnightblue" points="953.41,-330.1 944.94,-336.46 955.53,-336.77 953.41,-330.1"/>
</g>
<!-- Node17 -->
<g id="node17" class="node">
<title>Node17</title>
<g id="a_node17"><a xlink:href="pressurereferencebc_8hpp.html" target="_top" xlink:title="MODEL::PressureReferenceBC source file.">
<polygon fill="none" stroke="black" points="1358,-224.5 1358,-243.5 1510,-243.5 1510,-224.5 1358,-224.5"/>
<text text-anchor="middle" x="1434" y="-231.5" font-family="Helvetica,sans-Serif" font-size="10.00">model/pressurereferencebc.hpp</text>
</a>
</g>
</g>
<!-- Node6&#45;&gt;Node17 -->
<g id="edge43" class="edge">
<title>Node6&#45;&gt;Node17</title>
<path fill="none" stroke="midnightblue" d="M968.12,-334.31C1070.32,-312.53 1300.93,-263.37 1393.97,-243.53"/>
<polygon fill="midnightblue" stroke="midnightblue" points="967.11,-330.95 958.06,-336.46 968.57,-337.8 967.11,-330.95"/>
</g>
<!-- Node18 -->
<g id="node18" class="node">
<title>Node18</title>
<g id="a_node18"><a xlink:href="resistancebc_8hpp.html" target="_top" xlink:title="MODEL::ResistanceBC source file.">
<polygon fill="none" stroke="black" points="1528.5,-224.5 1528.5,-243.5 1647.5,-243.5 1647.5,-224.5 1528.5,-224.5"/>
<text text-anchor="middle" x="1588" y="-231.5" font-family="Helvetica,sans-Serif" font-size="10.00">model/resistancebc.hpp</text>
</a>
</g>
</g>
<!-- Node6&#45;&gt;Node18 -->
<g id="edge44" class="edge">
<title>Node6&#45;&gt;Node18</title>
<path fill="none" stroke="midnightblue" d="M979.9,-334.84C1110.93,-313.33 1414.24,-263.53 1536.02,-243.53"/>
<polygon fill="midnightblue" stroke="midnightblue" points="979.32,-331.39 970.02,-336.46 980.45,-338.29 979.32,-331.39"/>
</g>
<!-- Node19 -->
<g id="node19" class="node">
<title>Node19</title>
<g id="a_node19"><a xlink:href="resistivejunction_8hpp.html" target="_top" xlink:title="MODEL::ResistiveJunction source file.">
<polygon fill="none" stroke="black" points="66,-224.5 66,-243.5 200,-243.5 200,-224.5 66,-224.5"/>
<text text-anchor="middle" x="133" y="-231.5" font-family="Helvetica,sans-Serif" font-size="10.00">model/resistivejunction.hpp</text>
</a>
</g>
</g>
<!-- Node6&#45;&gt;Node19 -->
<g id="edge45" class="edge">
<title>Node6&#45;&gt;Node19</title>
<path fill="none" stroke="midnightblue" d="M842.59,-345.55C728.33,-344.99 505.04,-338.44 320,-300 256.73,-286.86 185.54,-257.96 152.18,-243.54"/>
<polygon fill="midnightblue" stroke="midnightblue" points="842.62,-349.05 852.63,-345.59 842.65,-342.05 842.62,-349.05"/>
</g>
<!-- Node20 -->
<g id="node20" class="node">
<title>Node20</title>
<g id="a_node20"><a xlink:href="windkesselbc_8hpp.html" target="_top" xlink:title="MODEL::WindkesselBC source file.">
<polygon fill="none" stroke="black" points="218.5,-224.5 218.5,-243.5 341.5,-243.5 341.5,-224.5 218.5,-224.5"/>
<text text-anchor="middle" x="280" y="-231.5" font-family="Helvetica,sans-Serif" font-size="10.00">model/windkesselbc.hpp</text>
</a>
</g>
</g>
<!-- Node6&#45;&gt;Node20 -->
<g id="edge46" class="edge">
<title>Node6&#45;&gt;Node20</title>
<path fill="none" stroke="midnightblue" d="M842.93,-344.69C710.68,-343.2 442.01,-335.73 356,-300 325.86,-287.48 299,-258.29 286.86,-243.67"/>
<polygon fill="midnightblue" stroke="midnightblue" points="842.95,-348.19 852.98,-344.79 843.02,-341.19 842.95,-348.19"/>
</g>
<!-- Node7&#45;&gt;Node1 -->
<g id="edge23" class="edge">
<title>Node7&#45;&gt;Node1</title>
<path fill="none" stroke="midnightblue" d="M830.86,-310.17C831.64,-324.03 834.61,-342.6 844,-356 856.16,-373.37 877.37,-385.25 893.98,-392.43"/>
<polygon fill="midnightblue" stroke="midnightblue" points="834.35,-309.77 830.62,-299.85 827.35,-309.93 834.35,-309.77"/>
</g>
<!-- Node7&#45;&gt;Node8 -->
<g id="edge7" class="edge">
<title>Node7&#45;&gt;Node8</title>
<path fill="none" stroke="midnightblue" d="M777.34,-281.27C707.56,-271.23 586.13,-253.74 514.19,-243.38"/>
<polygon fill="midnightblue" stroke="midnightblue" points="776.85,-284.74 787.25,-282.7 777.85,-277.81 776.85,-284.74"/>
</g>
<!-- Node7&#45;&gt;Node10 -->
<g id="edge12" class="edge">
<title>Node7&#45;&gt;Node10</title>
<path fill="none" stroke="midnightblue" d="M789.48,-277.29C767.79,-269.92 741.55,-258.94 721,-244 699,-228.01 680.21,-201.43 671.38,-187.74"/>
<polygon fill="midnightblue" stroke="midnightblue" points="788.5,-280.65 799.09,-280.42 790.67,-273.99 788.5,-280.65"/>
</g>
<!-- Node7&#45;&gt;Node11 -->
<g id="edge13" class="edge">
<title>Node7&#45;&gt;Node11</title>
<path fill="none" stroke="midnightblue" d="M784.93,-278.09C741.85,-267.89 678.41,-252.86 638.96,-243.52"/>
<polygon fill="midnightblue" stroke="midnightblue" points="784.34,-281.54 794.87,-280.44 785.95,-274.73 784.34,-281.54"/>
</g>
<!-- Node7&#45;&gt;Node12 -->
<g id="edge15" class="edge">
<title>Node7&#45;&gt;Node12</title>
<path fill="none" stroke="midnightblue" d="M885.11,-286.92C1017.03,-281.65 1365.69,-266.58 1656,-244 1659.25,-243.75 1662.57,-243.48 1665.92,-243.19"/>
<polygon fill="midnightblue" stroke="midnightblue" points="884.73,-283.43 874.87,-287.32 885,-290.42 884.73,-283.43"/>
</g>
<!-- Node7&#45;&gt;Node13 -->
<g id="edge17" class="edge">
<title>Node7&#45;&gt;Node13</title>
<path fill="none" stroke="midnightblue" d="M826.45,-270.1C824.29,-261.14 821.82,-250.86 820.11,-243.75"/>
<polygon fill="midnightblue" stroke="midnightblue" points="823.11,-271.18 828.85,-280.08 829.92,-269.54 823.11,-271.18"/>
</g>
<!-- Node7&#45;&gt;Node14 -->
<g id="edge19" class="edge">
<title>Node7&#45;&gt;Node14</title>
<path fill="none" stroke="midnightblue" d="M865.83,-277.17C895.77,-267 938.22,-252.59 964.92,-243.52"/>
<polygon fill="midnightblue" stroke="midnightblue" points="864.54,-273.91 856.19,-280.44 866.79,-280.54 864.54,-273.91"/>
</g>
<!-- Node7&#45;&gt;Node15 -->
<g id="edge21" class="edge">
<title>Node7&#45;&gt;Node15</title>
<path fill="none" stroke="midnightblue" d="M884.63,-279.08C939.64,-268.91 1024.34,-253.25 1076.57,-243.59"/>
<polygon fill="midnightblue" stroke="midnightblue" points="883.91,-275.66 874.72,-280.92 885.19,-282.54 883.91,-275.66"/>
</g>
<!-- Node7&#45;&gt;Node16 -->
<g id="edge24" class="edge">
<title>Node7&#45;&gt;Node16</title>
<path fill="none" stroke="midnightblue" d="M884.79,-282.31C963.56,-272.51 1110.29,-254.25 1196.62,-243.51"/>
<polygon fill="midnightblue" stroke="midnightblue" points="884.09,-278.87 874.6,-283.58 884.96,-285.81 884.09,-278.87"/>
</g>
<!-- Node7&#45;&gt;Node17 -->
<g id="edge26" class="edge">
<title>Node7&#45;&gt;Node17</title>
<path fill="none" stroke="midnightblue" d="M884.82,-284.66C978.97,-276.99 1179.68,-260.32 1349,-244 1351.81,-243.73 1354.66,-243.45 1357.55,-243.16"/>
<polygon fill="midnightblue" stroke="midnightblue" points="884.37,-281.19 874.69,-285.48 884.94,-288.16 884.37,-281.19"/>
</g>
<!-- Node7&#45;&gt;Node18 -->
<g id="edge28" class="edge">
<title>Node7&#45;&gt;Node18</title>
<path fill="none" stroke="midnightblue" d="M884.58,-286.67C1000.48,-281.38 1283.09,-267.08 1519,-244 1522.01,-243.71 1525.08,-243.38 1528.19,-243.04"/>
<polygon fill="midnightblue" stroke="midnightblue" points="884.38,-283.18 874.55,-287.13 884.69,-290.17 884.38,-283.18"/>
</g>
<!-- Node7&#45;&gt;Node19 -->
<g id="edge30" class="edge">
<title>Node7&#45;&gt;Node19</title>
<path fill="none" stroke="midnightblue" d="M777.22,-285.94C669.33,-279.61 418.87,-264.01 209,-244 206.09,-243.72 203.12,-243.43 200.12,-243.12"/>
<polygon fill="midnightblue" stroke="midnightblue" points="777.02,-289.43 787.2,-286.52 777.43,-282.44 777.02,-289.43"/>
</g>
<!-- Node7&#45;&gt;Node20 -->
<g id="edge32" class="edge">
<title>Node7&#45;&gt;Node20</title>
<path fill="none" stroke="midnightblue" d="M777.15,-283.72C674.31,-273.64 450.57,-251.72 341.82,-241.06"/>
<polygon fill="midnightblue" stroke="midnightblue" points="777.01,-287.23 787.3,-284.72 777.69,-280.26 777.01,-287.23"/>
</g>
<!-- Node8&#45;&gt;Node9 -->
<g id="edge8" class="edge">
<title>Node8&#45;&gt;Node9</title>
<path fill="none" stroke="midnightblue" d="M477.75,-218.94C502.13,-203.87 543.32,-180.45 582,-168 669.38,-139.88 776.57,-129.24 837.81,-125.28"/>
<polygon fill="midnightblue" stroke="midnightblue" points="475.58,-216.17 468.98,-224.45 479.31,-222.1 475.58,-216.17"/>
</g>
<!-- Node8&#45;&gt;Node10 -->
<g id="edge10" class="edge">
<title>Node8&#45;&gt;Node10</title>
<path fill="none" stroke="midnightblue" d="M499.19,-221.89C538.85,-211.7 596.77,-196.8 632.88,-187.52"/>
<polygon fill="midnightblue" stroke="midnightblue" points="498.09,-218.56 489.28,-224.44 499.83,-225.34 498.09,-218.56"/>
</g>
<!-- Node9&#45;&gt;Node3 -->
<g id="edge9" class="edge">
<title>Node9&#45;&gt;Node3</title>
<path fill="none" stroke="midnightblue" d="M827.65,-114.02C727.73,-102.26 529.63,-78.96 456.23,-70.32"/>
<polygon fill="midnightblue" stroke="midnightblue" points="827.54,-117.53 837.88,-115.22 828.36,-110.58 827.54,-117.53"/>
</g>
<!-- Node10&#45;&gt;Node9 -->
<g id="edge11" class="edge">
<title>Node10&#45;&gt;Node9</title>
<path fill="none" stroke="midnightblue" d="M710.92,-166.02C752.67,-155.82 813.98,-140.84 852.15,-131.52"/>
<polygon fill="midnightblue" stroke="midnightblue" points="709.9,-162.67 701.02,-168.44 711.56,-169.47 709.9,-162.67"/>
</g>
<!-- Node11&#45;&gt;Node9 -->
<g id="edge14" class="edge">
<title>Node11&#45;&gt;Node9</title>
<path fill="none" stroke="midnightblue" d="M645.29,-221.68C674.73,-213.38 714.71,-201.28 749,-188 794.19,-170.49 845.29,-144.8 870.76,-131.57"/>
<polygon fill="midnightblue" stroke="midnightblue" points="644.04,-218.39 635.34,-224.45 645.92,-225.14 644.04,-218.39"/>
</g>
<!-- Node12&#45;&gt;Node9 -->
<g id="edge16" class="edge">
<title>Node12&#45;&gt;Node9</title>
<path fill="none" stroke="midnightblue" d="M1671.67,-223.14C1575.39,-210.23 1401.08,-187.02 1252,-168 1138.95,-153.58 1006.09,-137.39 936.02,-128.91"/>
<polygon fill="midnightblue" stroke="midnightblue" points="1671.22,-226.61 1681.6,-224.47 1672.15,-219.67 1671.22,-226.61"/>
</g>
<!-- Node13&#45;&gt;Node9 -->
<g id="edge18" class="edge">
<title>Node13&#45;&gt;Node9</title>
<path fill="none" stroke="midnightblue" d="M828.89,-215.64C843.88,-191.74 870.3,-149.63 881.61,-131.59"/>
<polygon fill="midnightblue" stroke="midnightblue" points="825.76,-214.04 823.41,-224.37 831.69,-217.76 825.76,-214.04"/>
</g>
<!-- Node14&#45;&gt;Node9 -->
<g id="edge20" class="edge">
<title>Node14&#45;&gt;Node9</title>
<path fill="none" stroke="midnightblue" d="M974.92,-216.9C952.78,-193.25 912.23,-149.95 895.04,-131.59"/>
<polygon fill="midnightblue" stroke="midnightblue" points="972.53,-219.46 981.92,-224.37 977.64,-214.68 972.53,-219.46"/>
</g>
<!-- Node15&#45;&gt;Node9 -->
<g id="edge22" class="edge">
<title>Node15&#45;&gt;Node9</title>
<path fill="none" stroke="midnightblue" d="M1095.15,-220.02C1046.35,-197.27 946.62,-150.79 905.43,-131.59"/>
<polygon fill="midnightblue" stroke="midnightblue" points="1093.94,-223.32 1104.48,-224.37 1096.9,-216.97 1093.94,-223.32"/>
</g>
<!-- Node16&#45;&gt;Node9 -->
<g id="edge25" class="edge">
<title>Node16&#45;&gt;Node9</title>
<path fill="none" stroke="midnightblue" d="M1225.98,-221.65C1150.02,-199.54 983.79,-151.17 916.33,-131.53"/>
<polygon fill="midnightblue" stroke="midnightblue" points="1225.07,-225.03 1235.65,-224.46 1227.03,-218.31 1225.07,-225.03"/>
</g>
<!-- Node17&#45;&gt;Node9 -->
<g id="edge27" class="edge">
<title>Node17&#45;&gt;Node9</title>
<path fill="none" stroke="midnightblue" d="M1381.52,-222.45C1273.52,-200.73 1028.26,-151.41 929.44,-131.53"/>
<polygon fill="midnightblue" stroke="midnightblue" points="1381.04,-225.92 1391.53,-224.46 1382.42,-219.06 1381.04,-225.92"/>
</g>
<!-- Node18&#45;&gt;Node9 -->
<g id="edge29" class="edge">
<title>Node18&#45;&gt;Node9</title>
<path fill="none" stroke="midnightblue" d="M1523.82,-222.88C1442.61,-210.07 1298.44,-187.36 1175,-168 1091.13,-154.85 993.51,-139.61 936.18,-130.67"/>
<polygon fill="midnightblue" stroke="midnightblue" points="1523.46,-226.36 1533.88,-224.46 1524.55,-219.45 1523.46,-226.36"/>
</g>
<!-- Node19&#45;&gt;Node9 -->
<g id="edge31" class="edge">
<title>Node19&#45;&gt;Node9</title>
<path fill="none" stroke="midnightblue" d="M177.83,-222.13C238.2,-207.84 349.12,-182.83 445,-168 586.78,-146.07 755.87,-132.25 837.73,-126.34"/>
<polygon fill="midnightblue" stroke="midnightblue" points="176.79,-218.78 167.88,-224.5 178.41,-225.59 176.79,-218.78"/>
</g>
<!-- Node20&#45;&gt;Node9 -->
<g id="edge33" class="edge">
<title>Node20&#45;&gt;Node9</title>
<path fill="none" stroke="midnightblue" d="M318.33,-221.5C367.43,-207.14 455.36,-182.68 532,-168 640.3,-147.25 769.09,-133.64 837.88,-127.25"/>
<polygon fill="midnightblue" stroke="midnightblue" points="317.06,-218.22 308.46,-224.4 319.04,-224.94 317.06,-218.22"/>
</g>
<!-- Node21&#45;&gt;Node3 -->
<g id="edge49" class="edge">
<title>Node21&#45;&gt;Node3</title>
<path fill="none" stroke="midnightblue" d="M1870.44,-168.53C1868.94,-168.34 1867.46,-168.17 1866,-168 1300.3,-103.59 604.4,-73.9 456.47,-68.08"/>
<polygon fill="midnightblue" stroke="midnightblue" points="1870.04,-172.01 1880.41,-169.86 1870.97,-165.07 1870.04,-172.01"/>
</g>
</g>
</svg>
