<?xml version="1.0" encoding="UTF-8" standalone="no"?>
<!DOCTYPE svg PUBLIC "-//W3C//DTD SVG 1.1//EN"
 "http://www.w3.org/Graphics/SVG/1.1/DTD/svg11.dtd">
<!-- Generated by graphviz version 3.0.0 (20220413.0242)
 -->
<!-- Title: model/model.hpp Pages: 1 -->
<svg width="913pt" height="308pt"
 viewBox="0.00 0.00 913.00 308.00" xmlns="http://www.w3.org/2000/svg" xmlns:xlink="http://www.w3.org/1999/xlink">
<g id="graph0" class="graph" transform="scale(1 1) rotate(0) translate(4 304)">
<title>model/model.hpp</title>
<!-- Node1 -->
<g id="node1" class="node">
<title>Node1</title>
<g id="a_node1"><a xlink:title="MODEL::Model source file.">
<polygon fill="#bfbfbf" stroke="black" points="266,-280.5 266,-299.5 356,-299.5 356,-280.5 266,-280.5"/>
<text text-anchor="middle" x="311" y="-287.5" font-family="Helvetica,sans-Serif" font-size="10.00">model/model.hpp</text>
</a>
</g>
</g>
<!-- Node2 -->
<g id="node2" class="node">
<title>Node2</title>
<g id="a_node2"><a xlink:href="integrator_8hpp.html" target="_top" xlink:title="ALGEBRA::Integrator source file.">
<polygon fill="none" stroke="black" points="28,-168.5 28,-187.5 138,-187.5 138,-168.5 28,-168.5"/>
<text text-anchor="middle" x="83" y="-175.5" font-family="Helvetica,sans-Serif" font-size="10.00">algebra/integrator.hpp</text>
</a>
</g>
</g>
<!-- Node1&#45;&gt;Node2 -->
<g id="edge1" class="edge">
<title>Node1&#45;&gt;Node2</title>
<path fill="none" stroke="midnightblue" d="M255.91,-282.28C204.57,-275.04 132.76,-262.06 111,-244 93.41,-229.41 86.6,-201.71 84.19,-187.65"/>
<polygon fill="midnightblue" stroke="midnightblue" points="255.49,-285.76 265.88,-283.66 256.45,-278.83 255.49,-285.76"/>
</g>
<!-- Node3 -->
<g id="node3" class="node">
<title>Node3</title>
<g id="a_node3"><a xlink:href="main_8cpp.html" target="_top" xlink:title="Main routine of svZeroDSolver.">
<polygon fill="none" stroke="black" points="174,-0.5 174,-19.5 230,-19.5 230,-0.5 174,-0.5"/>
<text text-anchor="middle" x="202" y="-7.5" font-family="Helvetica,sans-Serif" font-size="10.00">main.cpp</text>
</a>
</g>
</g>
<!-- Node1&#45;&gt;Node3 -->
<g id="edge26" class="edge">
<title>Node1&#45;&gt;Node3</title>
<path fill="none" stroke="midnightblue" d="M255.79,-284.01C210.33,-278.43 144.98,-266.96 92,-244 46.06,-224.1 0,-229.06 0,-179 0,-179 0,-179 0,-121 0,-42.73 118.41,-19.83 173.91,-13.4"/>
<polygon fill="midnightblue" stroke="midnightblue" points="255.41,-287.49 265.75,-285.18 256.22,-280.54 255.41,-287.49"/>
</g>
<!-- Node4 -->
<g id="node4" class="node">
<title>Node4</title>
<g id="a_node4"><a xlink:href="sparsesystem_8hpp.html" target="_top" xlink:title="ALGEBRA::SparseSystem source file.">
<polygon fill="none" stroke="black" points="415,-224.5 415,-243.5 545,-243.5 545,-224.5 415,-224.5"/>
<text text-anchor="middle" x="480" y="-231.5" font-family="Helvetica,sans-Serif" font-size="10.00">algebra/sparsesystem.hpp</text>
</a>
</g>
</g>
<!-- Node1&#45;&gt;Node4 -->
<g id="edge3" class="edge">
<title>Node1&#45;&gt;Node4</title>
<path fill="none" stroke="midnightblue" d="M342.32,-277.17C372.56,-267 417.89,-252.59 448.27,-243.52"/>
<polygon fill="midnightblue" stroke="midnightblue" points="341.03,-273.91 332.69,-280.44 343.28,-280.54 341.03,-273.91"/>
</g>
<!-- Node9 -->
<g id="node9" class="node">
<title>Node9</title>
<g id="a_node9"><a xlink:href="configreader_8hpp.html" target="_top" xlink:title="IO::ConfigReader source file.">
<polygon fill="none" stroke="black" points="300,-56.5 300,-75.5 398,-75.5 398,-56.5 300,-56.5"/>
<text text-anchor="middle" x="349" y="-63.5" font-family="Helvetica,sans-Serif" font-size="10.00">io/configreader.hpp</text>
</a>
</g>
</g>
<!-- Node1&#45;&gt;Node9 -->
<g id="edge21" class="edge">
<title>Node1&#45;&gt;Node9</title>
<path fill="none" stroke="midnightblue" d="M302.83,-270.98C289.01,-237.69 264.98,-165.13 291,-112 299.19,-95.29 316.9,-83 330.61,-75.53"/>
<polygon fill="midnightblue" stroke="midnightblue" points="299.69,-272.54 306.87,-280.33 306.11,-269.76 299.69,-272.54"/>
</g>
<!-- Node11 -->
<g id="node11" class="node">
<title>Node11</title>
<g id="a_node11"><a xlink:href="csvwriter_8hpp.html" target="_top" xlink:title="IO::write_csv source file.">
<polygon fill="none" stroke="black" points="120.5,-224.5 120.5,-243.5 205.5,-243.5 205.5,-224.5 120.5,-224.5"/>
<text text-anchor="middle" x="163" y="-231.5" font-family="Helvetica,sans-Serif" font-size="10.00">io/csvwriter.hpp</text>
</a>
</g>
</g>
<!-- Node1&#45;&gt;Node11 -->
<g id="edge22" class="edge">
<title>Node1&#45;&gt;Node11</title>
<path fill="none" stroke="midnightblue" d="M277.85,-276.91C250.03,-266.75 210.98,-252.51 186.34,-243.52"/>
<polygon fill="midnightblue" stroke="midnightblue" points="276.96,-280.3 287.55,-280.44 279.35,-273.73 276.96,-280.3"/>
</g>
<!-- Node12 -->
<g id="node12" class="node">
<title>Node12</title>
<g id="a_node12"><a xlink:href="jsonwriter_8hpp.html" target="_top" xlink:title="IO::write_json source file.">
<polygon fill="none" stroke="black" points="194.5,-56.5 194.5,-75.5 281.5,-75.5 281.5,-56.5 194.5,-56.5"/>
<text text-anchor="middle" x="238" y="-63.5" font-family="Helvetica,sans-Serif" font-size="10.00">io/jsonwriter.hpp</text>
</a>
</g>
</g>
<!-- Node1&#45;&gt;Node12 -->
<g id="edge24" class="edge">
<title>Node1&#45;&gt;Node12</title>
<path fill="none" stroke="midnightblue" d="M298.83,-272.21C293.35,-264.02 287.19,-253.84 283,-244 256.78,-182.45 243.21,-102.12 239.25,-75.78"/>
<polygon fill="midnightblue" stroke="midnightblue" points="295.99,-274.26 304.58,-280.48 301.74,-270.27 295.99,-274.26"/>
</g>
<!-- Node2&#45;&gt;Node3 -->
<g id="edge2" class="edge">
<title>Node2&#45;&gt;Node3</title>
<path fill="none" stroke="midnightblue" d="M91.03,-158.96C102.51,-134.29 125.19,-89.29 152,-56 163.43,-41.81 179.5,-28.21 190.3,-19.74"/>
<polygon fill="midnightblue" stroke="midnightblue" points="87.79,-157.65 86.82,-168.2 94.16,-160.55 87.79,-157.65"/>
</g>
<!-- Node4&#45;&gt;Node1 -->
<g id="edge19" class="edge">
<title>Node4&#45;&gt;Node1</title>
<path fill="none" stroke="midnightblue" d="M448.81,-246.78C418.62,-256.94 373.29,-271.36 342.87,-280.44"/>
<polygon fill="midnightblue" stroke="midnightblue" points="450.08,-250.05 458.43,-243.52 447.83,-243.42 450.08,-250.05"/>
</g>
<!-- Node4&#45;&gt;Node3 -->
<g id="edge4" class="edge">
<title>Node4&#45;&gt;Node3</title>
<path fill="none" stroke="midnightblue" d="M473.53,-214.66C458.18,-171.59 419.91,-66.83 407,-56 380.41,-33.7 279.87,-19.67 230.17,-13.95"/>
<polygon fill="midnightblue" stroke="midnightblue" points="470.26,-215.93 476.91,-224.18 476.86,-213.59 470.26,-215.93"/>
</g>
<!-- Node5 -->
<g id="node5" class="node">
<title>Node5</title>
<g id="a_node5"><a xlink:href="block_8hpp.html" target="_top" xlink:title="MODEL::Block source file.">
<polygon fill="none" stroke="black" points="508.5,-168.5 508.5,-187.5 595.5,-187.5 595.5,-168.5 508.5,-168.5"/>
<text text-anchor="middle" x="552" y="-175.5" font-family="Helvetica,sans-Serif" font-size="10.00">model/block.hpp</text>
</a>
</g>
</g>
<!-- Node4&#45;&gt;Node5 -->
<g id="edge5" class="edge">
<title>Node4&#45;&gt;Node5</title>
<path fill="none" stroke="midnightblue" d="M499.87,-218.1C512.82,-208.38 529.3,-196.03 540.22,-187.83"/>
<polygon fill="midnightblue" stroke="midnightblue" points="497.47,-215.52 491.57,-224.32 501.67,-221.12 497.47,-215.52"/>
</g>
<!-- Node6 -->
<g id="node6" class="node">
<title>Node6</title>
<g id="a_node6"><a xlink:href="bloodvessel_8hpp.html" target="_top" xlink:title="MODEL::BloodVessel source file.">
<polygon fill="none" stroke="black" points="789,-112.5 789,-131.5 905,-131.5 905,-112.5 789,-112.5"/>
<text text-anchor="middle" x="847" y="-119.5" font-family="Helvetica,sans-Serif" font-size="10.00">model/bloodvessel.hpp</text>
</a>
</g>
</g>
<!-- Node4&#45;&gt;Node6 -->
<g id="edge16" class="edge">
<title>Node4&#45;&gt;Node6</title>
<path fill="none" stroke="midnightblue" d="M519.04,-221.51C549.75,-212.45 593.62,-199.48 632,-188 699.06,-167.94 777.78,-144.05 818.84,-131.57"/>
<polygon fill="midnightblue" stroke="midnightblue" points="517.76,-218.24 509.15,-224.42 519.74,-224.95 517.76,-218.24"/>
</g>
<!-- Node7 -->
<g id="node7" class="node">
<title>Node7</title>
<g id="a_node7"><a xlink:href="flowreference_8hpp.html" target="_top" xlink:title="MODEL::FlowReference source file.">
<polygon fill="none" stroke="black" points="454,-112.5 454,-131.5 576,-131.5 576,-112.5 454,-112.5"/>
<text text-anchor="middle" x="515" y="-119.5" font-family="Helvetica,sans-Serif" font-size="10.00">model/flowreference.hpp</text>
</a>
</g>
</g>
<!-- Node4&#45;&gt;Node7 -->
<g id="edge17" class="edge">
<title>Node4&#45;&gt;Node7</title>
<path fill="none" stroke="midnightblue" d="M485.57,-214.49C489.52,-201.46 494.99,-183.64 500,-168 504.07,-155.3 509,-140.65 512.06,-131.61"/>
<polygon fill="midnightblue" stroke="midnightblue" points="482.19,-213.56 482.65,-224.15 488.9,-215.59 482.19,-213.56"/>
</g>
<!-- Node8 -->
<g id="node8" class="node">
<title>Node8</title>
<g id="a_node8"><a xlink:href="junction_8hpp.html" target="_top" xlink:title="MODEL::Junction source file.">
<polygon fill="none" stroke="black" points="300,-112.5 300,-131.5 398,-131.5 398,-112.5 300,-112.5"/>
<text text-anchor="middle" x="349" y="-119.5" font-family="Helvetica,sans-Serif" font-size="10.00">model/junction.hpp</text>
</a>
</g>
</g>
<!-- Node4&#45;&gt;Node8 -->
<g id="edge18" class="edge">
<title>Node4&#45;&gt;Node8</title>
<path fill="none" stroke="midnightblue" d="M456.32,-219.09C442.83,-210.75 425.9,-199.53 412,-188 389.99,-169.73 367.43,-144.59 356.23,-131.57"/>
<polygon fill="midnightblue" stroke="midnightblue" points="454.67,-222.19 465.03,-224.38 458.3,-216.2 454.67,-222.19"/>
</g>
<!-- Node10 -->
<g id="node10" class="node">
<title>Node10</title>
<g id="a_node10"><a xlink:href="rcrblockwithdistalpressure_8hpp.html" target="_top" xlink:title="MODEL::RCRBlockWithDistalPressure source file.">
<polygon fill="none" stroke="black" points="594.5,-112.5 594.5,-131.5 771.5,-131.5 771.5,-112.5 594.5,-112.5"/>
<text text-anchor="middle" x="683" y="-119.5" font-family="Helvetica,sans-Serif" font-size="10.00">model/rcrblockwithdistalpressure.hpp</text>
</a>
</g>
</g>
<!-- Node4&#45;&gt;Node10 -->
<g id="edge20" class="edge">
<title>Node4&#45;&gt;Node10</title>
<path fill="none" stroke="midnightblue" d="M523.1,-221.56C547.98,-213.98 579.32,-202.71 605,-188 633.14,-171.88 661.13,-145.35 674.64,-131.71"/>
<polygon fill="midnightblue" stroke="midnightblue" points="521.81,-218.29 513.22,-224.49 523.8,-225 521.81,-218.29"/>
</g>
<!-- Node5&#45;&gt;Node6 -->
<g id="edge6" class="edge">
<title>Node5&#45;&gt;Node6</title>
<path fill="none" stroke="midnightblue" d="M605.55,-167.2C661.2,-157.01 747.42,-141.23 800.37,-131.54"/>
<polygon fill="midnightblue" stroke="midnightblue" points="604.73,-163.79 595.53,-169.03 606,-170.67 604.73,-163.79"/>
</g>
<!-- Node5&#45;&gt;Node7 -->
<g id="edge8" class="edge">
<title>Node5&#45;&gt;Node7</title>
<path fill="none" stroke="midnightblue" d="M540.05,-159.57C533.69,-150.27 526.13,-139.25 521,-131.75"/>
<polygon fill="midnightblue" stroke="midnightblue" points="537.35,-161.81 545.89,-168.08 543.13,-157.86 537.35,-161.81"/>
</g>
<!-- Node5&#45;&gt;Node8 -->
<g id="edge10" class="edge">
<title>Node5&#45;&gt;Node8</title>
<path fill="none" stroke="midnightblue" d="M510.01,-165.83C471.68,-155.63 415.85,-140.78 381.02,-131.52"/>
<polygon fill="midnightblue" stroke="midnightblue" points="509.27,-169.26 519.83,-168.44 511.07,-162.49 509.27,-169.26"/>
</g>
<!-- Node5&#45;&gt;Node10 -->
<g id="edge14" class="edge">
<title>Node5&#45;&gt;Node10</title>
<path fill="none" stroke="midnightblue" d="M582.32,-164.5C606.88,-154.38 640.82,-140.39 662.34,-131.52"/>
<polygon fill="midnightblue" stroke="midnightblue" points="580.67,-161.4 572.76,-168.44 583.34,-167.87 580.67,-161.4"/>
</g>
<!-- Node6&#45;&gt;Node1 -->
<g id="edge7" class="edge">
<title>Node6&#45;&gt;Node1</title>
<path fill="none" stroke="midnightblue" d="M823.35,-136.66C778.56,-161.9 677.62,-215.84 586,-244 507.15,-268.23 411.35,-280.15 356.15,-285.4"/>
<polygon fill="midnightblue" stroke="midnightblue" points="825.31,-139.57 832.28,-131.59 821.85,-133.48 825.31,-139.57"/>
</g>
<!-- Node7&#45;&gt;Node1 -->
<g id="edge9" class="edge">
<title>Node7&#45;&gt;Node1</title>
<path fill="none" stroke="midnightblue" d="M496.46,-138.09C454.74,-172.03 354.59,-253.53 321.68,-280.31"/>
<polygon fill="midnightblue" stroke="midnightblue" points="498.88,-140.63 504.43,-131.61 494.46,-135.2 498.88,-140.63"/>
</g>
<!-- Node8&#45;&gt;Node1 -->
<g id="edge13" class="edge">
<title>Node8&#45;&gt;Node1</title>
<path fill="none" stroke="midnightblue" d="M344.75,-141.58C336.59,-177.21 319.02,-253.95 313.04,-280.08"/>
<polygon fill="midnightblue" stroke="midnightblue" points="348.22,-142.1 347.04,-131.57 341.4,-140.53 348.22,-142.1"/>
</g>
<!-- Node8&#45;&gt;Node9 -->
<g id="edge11" class="edge">
<title>Node8&#45;&gt;Node9</title>
<path fill="none" stroke="midnightblue" d="M349,-101.8C349,-92.91 349,-82.78 349,-75.75"/>
<polygon fill="midnightblue" stroke="midnightblue" points="345.5,-102.08 349,-112.08 352.5,-102.08 345.5,-102.08"/>
</g>
<!-- Node9&#45;&gt;Node3 -->
<g id="edge12" class="edge">
<title>Node9&#45;&gt;Node3</title>
<path fill="none" stroke="midnightblue" d="M316.08,-52.91C288.44,-42.75 249.66,-28.51 225.18,-19.52"/>
<polygon fill="midnightblue" stroke="midnightblue" points="315.11,-56.28 325.71,-56.44 317.53,-49.71 315.11,-56.28"/>
</g>
<!-- Node10&#45;&gt;Node1 -->
<g id="edge15" class="edge">
<title>Node10&#45;&gt;Node1</title>
<path fill="none" stroke="midnightblue" d="M671.59,-140.14C661.95,-153.92 647.31,-173.32 632,-188 601.19,-217.53 593.26,-227.27 554,-244 488.68,-271.84 406.26,-282.49 356.14,-286.54"/>
<polygon fill="midnightblue" stroke="midnightblue" points="674.65,-141.86 677.4,-131.63 668.87,-137.91 674.65,-141.86"/>
</g>
<!-- Node11&#45;&gt;Node3 -->
<g id="edge23" class="edge">
<title>Node11&#45;&gt;Node3</title>
<path fill="none" stroke="midnightblue" d="M164.13,-214.12C166.38,-181.5 172.42,-112.63 186,-56 189.09,-43.1 194.57,-28.75 198.24,-19.8"/>
<polygon fill="midnightblue" stroke="midnightblue" points="160.62,-214.2 163.47,-224.41 167.61,-214.66 160.62,-214.2"/>
</g>
<!-- Node12&#45;&gt;Node3 -->
<g id="edge25" class="edge">
<title>Node12&#45;&gt;Node3</title>
<path fill="none" stroke="midnightblue" d="M226.38,-47.57C220.18,-38.27 212.83,-27.25 207.83,-19.75"/>
<polygon fill="midnightblue" stroke="midnightblue" points="223.6,-49.7 232.06,-56.08 229.42,-45.82 223.6,-49.7"/>
</g>
</g>
</svg>
