<?xml version="1.0" encoding="UTF-8" standalone="no"?>
<!DOCTYPE svg PUBLIC "-//W3C//DTD SVG 1.1//EN"
 "http://www.w3.org/Graphics/SVG/1.1/DTD/svg11.dtd">
<!-- Generated by graphviz version 3.0.0 (20220413.0242)
 -->
<!-- Title: model/node.hpp Pages: 1 -->
<svg width="1382pt" height="308pt"
 viewBox="0.00 0.00 1381.96 308.00" xmlns="http://www.w3.org/2000/svg" xmlns:xlink="http://www.w3.org/1999/xlink">
<g id="graph0" class="graph" transform="scale(1 1) rotate(0) translate(4 304)">
<title>model/node.hpp</title>
<!-- Node1 -->
<g id="node1" class="node">
<title>Node1</title>
<g id="a_node1"><a xlink:title="MODEL::Node source file.">
<polygon fill="#bfbfbf" stroke="black" points="732.96,-280.5 732.96,-299.5 817.96,-299.5 817.96,-280.5 732.96,-280.5"/>
<text text-anchor="middle" x="775.46" y="-287.5" font-family="Helvetica,sans-Serif" font-size="10.00">model/node.hpp</text>
</a>
</g>
</g>
<!-- Node2 -->
<g id="node2" class="node">
<title>Node2</title>
<g id="a_node2"><a xlink:href="block_8hpp.html" target="_top" xlink:title="MODEL::Block source file.">
<polygon fill="none" stroke="black" points="840.96,-224.5 840.96,-243.5 927.96,-243.5 927.96,-224.5 840.96,-224.5"/>
<text text-anchor="middle" x="884.46" y="-231.5" font-family="Helvetica,sans-Serif" font-size="10.00">model/block.hpp</text>
</a>
</g>
</g>
<!-- Node1&#45;&gt;Node2 -->
<g id="edge1" class="edge">
<title>Node1&#45;&gt;Node2</title>
<path fill="none" stroke="midnightblue" d="M801.98,-275.86C822.19,-265.85 849.45,-252.35 866.99,-243.65"/>
<polygon fill="midnightblue" stroke="midnightblue" points="800.38,-272.75 792.97,-280.32 803.49,-279.02 800.38,-272.75"/>
</g>
<!-- Node4 -->
<g id="node4" class="node">
<title>Node4</title>
<g id="a_node4"><a xlink:href="model_8hpp.html" target="_top" xlink:title="MODEL::Model source file.">
<polygon fill="none" stroke="black" points="587.46,-112.5 587.46,-131.5 677.46,-131.5 677.46,-112.5 587.46,-112.5"/>
<text text-anchor="middle" x="632.46" y="-119.5" font-family="Helvetica,sans-Serif" font-size="10.00">model/model.hpp</text>
</a>
</g>
</g>
<!-- Node1&#45;&gt;Node4 -->
<g id="edge50" class="edge">
<title>Node1&#45;&gt;Node4</title>
<path fill="none" stroke="midnightblue" d="M761,-272.21C730.89,-237.26 662.43,-157.79 639.84,-131.57"/>
<polygon fill="midnightblue" stroke="midnightblue" points="758.59,-274.78 767.77,-280.08 763.9,-270.21 758.59,-274.78"/>
</g>
<!-- Node3 -->
<g id="node3" class="node">
<title>Node3</title>
<g id="a_node3"><a xlink:href="bloodvessel_8hpp.html" target="_top" xlink:title="MODEL::BloodVessel source file.">
<polygon fill="none" stroke="black" points="740.46,-168.5 740.46,-187.5 856.46,-187.5 856.46,-168.5 740.46,-168.5"/>
<text text-anchor="middle" x="798.46" y="-175.5" font-family="Helvetica,sans-Serif" font-size="10.00">model/bloodvessel.hpp</text>
</a>
</g>
</g>
<!-- Node2&#45;&gt;Node3 -->
<g id="edge2" class="edge">
<title>Node2&#45;&gt;Node3</title>
<path fill="none" stroke="midnightblue" d="M862.01,-218.9C846.24,-209 825.65,-196.07 812.24,-187.65"/>
<polygon fill="midnightblue" stroke="midnightblue" points="860.31,-221.97 870.64,-224.32 864.04,-216.04 860.31,-221.97"/>
</g>
<!-- Node7 -->
<g id="node7" class="node">
<title>Node7</title>
<g id="a_node7"><a xlink:href="closedloopheartpulmonary_8hpp.html" target="_top" xlink:title="MODEL::ClosedLoopHeartPulmonary source file.">
<polygon fill="none" stroke="black" points="886.46,-0.5 886.46,-19.5 1062.46,-19.5 1062.46,-0.5 886.46,-0.5"/>
<text text-anchor="middle" x="974.46" y="-7.5" font-family="Helvetica,sans-Serif" font-size="10.00">model/closedloopheartpulmonary.hpp</text>
</a>
</g>
</g>
<!-- Node2&#45;&gt;Node7 -->
<g id="edge43" class="edge">
<title>Node2&#45;&gt;Node7</title>
<path fill="none" stroke="midnightblue" d="M938.15,-225.68C981.54,-218.53 1037.61,-206.08 1051.46,-188 1087.14,-141.43 1080.66,-106.88 1051.46,-56 1041.06,-37.87 1020.21,-26.35 1002.83,-19.51"/>
<polygon fill="midnightblue" stroke="midnightblue" points="937.59,-222.22 928.27,-227.25 938.69,-229.14 937.59,-222.22"/>
</g>
<!-- Node8 -->
<g id="node8" class="node">
<title>Node8</title>
<g id="a_node8"><a xlink:href="flowreferencebc_8hpp.html" target="_top" xlink:title="MODEL::FlowReferenceBC source file.">
<polygon fill="none" stroke="black" points="568.46,-0.5 568.46,-19.5 700.46,-19.5 700.46,-0.5 568.46,-0.5"/>
<text text-anchor="middle" x="634.46" y="-7.5" font-family="Helvetica,sans-Serif" font-size="10.00">model/flowreferencebc.hpp</text>
</a>
</g>
</g>
<!-- Node2&#45;&gt;Node8 -->
<g id="edge44" class="edge">
<title>Node2&#45;&gt;Node8</title>
<path fill="none" stroke="midnightblue" d="M830.74,-227.54C799.02,-221.97 759.68,-210.72 731.46,-188 723.92,-181.93 657.11,-54.43 638.98,-19.68"/>
<polygon fill="midnightblue" stroke="midnightblue" points="830.32,-231.01 840.75,-229.15 831.44,-224.1 830.32,-231.01"/>
</g>
<!-- Node9 -->
<g id="node9" class="node">
<title>Node9</title>
<g id="a_node9"><a xlink:href="junction_8hpp.html" target="_top" xlink:title="MODEL::Junction source file.">
<polygon fill="none" stroke="black" points="452.46,-0.5 452.46,-19.5 550.46,-19.5 550.46,-0.5 452.46,-0.5"/>
<text text-anchor="middle" x="501.46" y="-7.5" font-family="Helvetica,sans-Serif" font-size="10.00">model/junction.hpp</text>
</a>
</g>
</g>
<!-- Node2&#45;&gt;Node9 -->
<g id="edge45" class="edge">
<title>Node2&#45;&gt;Node9</title>
<path fill="none" stroke="midnightblue" d="M830.79,-226.45C701.28,-209.44 377.67,-159.29 314.46,-76 309.09,-68.92 308.96,-62.98 314.46,-56 323.09,-45.05 400.04,-29.24 452.5,-19.56"/>
<polygon fill="midnightblue" stroke="midnightblue" points="830.51,-229.95 840.87,-227.76 831.41,-223.01 830.51,-229.95"/>
</g>
<!-- Node10 -->
<g id="node10" class="node">
<title>Node10</title>
<g id="a_node10"><a xlink:href="openloopcoronarybc_8hpp.html" target="_top" xlink:title="MODEL::OpenLoopCoronaryBC source file.">
<polygon fill="none" stroke="black" points="718.46,-0.5 718.46,-19.5 868.46,-19.5 868.46,-0.5 718.46,-0.5"/>
<text text-anchor="middle" x="793.46" y="-7.5" font-family="Helvetica,sans-Serif" font-size="10.00">model/openloopcoronarybc.hpp</text>
</a>
</g>
</g>
<!-- Node2&#45;&gt;Node10 -->
<g id="edge46" class="edge">
<title>Node2&#45;&gt;Node10</title>
<path fill="none" stroke="midnightblue" d="M908.94,-219.24C959.54,-189.1 1067,-115.21 1018.46,-56 1008.17,-43.45 919.77,-28.64 856.89,-19.53"/>
<polygon fill="midnightblue" stroke="midnightblue" points="907.07,-216.28 900.21,-224.35 910.61,-222.32 907.07,-216.28"/>
</g>
<!-- Node11 -->
<g id="node11" class="node">
<title>Node11</title>
<g id="a_node11"><a xlink:href="pressurereferencebc_8hpp.html" target="_top" xlink:title="MODEL::PressureReferenceBC source file.">
<polygon fill="none" stroke="black" points="1080.46,-0.5 1080.46,-19.5 1232.46,-19.5 1232.46,-0.5 1080.46,-0.5"/>
<text text-anchor="middle" x="1156.46" y="-7.5" font-family="Helvetica,sans-Serif" font-size="10.00">model/pressurereferencebc.hpp</text>
</a>
</g>
</g>
<!-- Node2&#45;&gt;Node11 -->
<g id="edge47" class="edge">
<title>Node2&#45;&gt;Node11</title>
<path fill="none" stroke="midnightblue" d="M938.04,-232.13C978.66,-228.85 1033.75,-218.47 1071.46,-188 1128.47,-141.94 1149.68,-48.4 1155.01,-19.62"/>
<polygon fill="midnightblue" stroke="midnightblue" points="937.78,-228.64 928.04,-232.82 938.26,-235.63 937.78,-228.64"/>
</g>
<!-- Node12 -->
<g id="node12" class="node">
<title>Node12</title>
<g id="a_node12"><a xlink:href="resistancebc_8hpp.html" target="_top" xlink:title="MODEL::ResistanceBC source file.">
<polygon fill="none" stroke="black" points="314.96,-0.5 314.96,-19.5 433.96,-19.5 433.96,-0.5 314.96,-0.5"/>
<text text-anchor="middle" x="374.46" y="-7.5" font-family="Helvetica,sans-Serif" font-size="10.00">model/resistancebc.hpp</text>
</a>
</g>
</g>
<!-- Node2&#45;&gt;Node12 -->
<g id="edge48" class="edge">
<title>Node2&#45;&gt;Node12</title>
<path fill="none" stroke="midnightblue" d="M830.5,-230C677.84,-220.23 248.87,-183.51 170.46,-76 165.22,-68.82 164.89,-62.93 170.46,-56 179.86,-44.3 262.37,-28.92 319.53,-19.51"/>
<polygon fill="midnightblue" stroke="midnightblue" points="830.38,-233.5 840.58,-230.63 830.82,-226.51 830.38,-233.5"/>
</g>
<!-- Node13 -->
<g id="node13" class="node">
<title>Node13</title>
<g id="a_node13"><a xlink:href="windkesselbc_8hpp.html" target="_top" xlink:title="MODEL::WindkesselBC source file.">
<polygon fill="none" stroke="black" points="1250.96,-0.5 1250.96,-19.5 1373.96,-19.5 1373.96,-0.5 1250.96,-0.5"/>
<text text-anchor="middle" x="1312.46" y="-7.5" font-family="Helvetica,sans-Serif" font-size="10.00">model/windkesselbc.hpp</text>
</a>
</g>
</g>
<!-- Node2&#45;&gt;Node13 -->
<g id="edge49" class="edge">
<title>Node2&#45;&gt;Node13</title>
<path fill="none" stroke="midnightblue" d="M938.37,-228.47C982.17,-223.17 1044.65,-211.85 1094.46,-188 1189,-142.74 1278.51,-48.66 1304.75,-19.68"/>
<polygon fill="midnightblue" stroke="midnightblue" points="937.74,-225.02 928.21,-229.63 938.54,-231.97 937.74,-225.02"/>
</g>
<!-- Node3&#45;&gt;Node4 -->
<g id="edge3" class="edge">
<title>Node3&#45;&gt;Node4</title>
<path fill="none" stroke="midnightblue" d="M762.51,-165.3C731.23,-155.13 686.64,-140.62 658.64,-131.52"/>
<polygon fill="midnightblue" stroke="midnightblue" points="761.57,-168.68 772.16,-168.44 763.73,-162.02 761.57,-168.68"/>
</g>
<!-- Node5 -->
<g id="node5" class="node">
<title>Node5</title>
<g id="a_node5"><a xlink:href="densesystem_8hpp.html" target="_top" xlink:title="ALGEBRA::DenseSystem source file.">
<polygon fill="none" stroke="black" points="881.96,-56.5 881.96,-75.5 1008.96,-75.5 1008.96,-56.5 881.96,-56.5"/>
<text text-anchor="middle" x="945.46" y="-63.5" font-family="Helvetica,sans-Serif" font-size="10.00">algebra/densesystem.hpp</text>
</a>
</g>
</g>
<!-- Node4&#45;&gt;Node5 -->
<g id="edge4" class="edge">
<title>Node4&#45;&gt;Node5</title>
<path fill="none" stroke="midnightblue" d="M686.93,-110.66C744.22,-100.46 833.73,-85.04 891.02,-75.52"/>
<polygon fill="midnightblue" stroke="midnightblue" points="686.2,-107.24 676.97,-112.44 687.43,-114.13 686.2,-107.24"/>
</g>
<!-- Node6 -->
<g id="node6" class="node">
<title>Node6</title>
<g id="a_node6"><a xlink:href="main_8cpp.html" target="_top" xlink:title="Main routine of svZeroDSolver.">
<polygon fill="none" stroke="black" points="240.46,-0.5 240.46,-19.5 296.46,-19.5 296.46,-0.5 240.46,-0.5"/>
<text text-anchor="middle" x="268.46" y="-7.5" font-family="Helvetica,sans-Serif" font-size="10.00">main.cpp</text>
</a>
</g>
</g>
<!-- Node4&#45;&gt;Node6 -->
<g id="edge42" class="edge">
<title>Node4&#45;&gt;Node6</title>
<path fill="none" stroke="midnightblue" d="M577.07,-121.24C430.85,-121.28 43.06,-117.46 4.46,-76 -1.6,-69.49 -1.27,-62.79 4.46,-56 34.45,-20.47 178.71,-12.99 240.39,-11.42"/>
<polygon fill="midnightblue" stroke="midnightblue" points="577.17,-124.74 587.17,-121.23 577.17,-117.74 577.17,-124.74"/>
</g>
<!-- Node14 -->
<g id="node14" class="node">
<title>Node14</title>
<g id="a_node14"><a xlink:href="integrator_8hpp.html" target="_top" xlink:title="ALGEBRA::Integrator source file.">
<polygon fill="none" stroke="black" points="13.46,-56.5 13.46,-75.5 123.46,-75.5 123.46,-56.5 13.46,-56.5"/>
<text text-anchor="middle" x="68.46" y="-63.5" font-family="Helvetica,sans-Serif" font-size="10.00">algebra/integrator.hpp</text>
</a>
</g>
</g>
<!-- Node4&#45;&gt;Node14 -->
<g id="edge22" class="edge">
<title>Node4&#45;&gt;Node14</title>
<path fill="none" stroke="midnightblue" d="M577.23,-115.71C469.32,-105.38 231.64,-82.62 123.71,-72.29"/>
<polygon fill="midnightblue" stroke="midnightblue" points="576.97,-119.2 587.26,-116.67 577.64,-112.23 576.97,-119.2"/>
</g>
<!-- Node15 -->
<g id="node15" class="node">
<title>Node15</title>
<g id="a_node15"><a xlink:href="sparsesystem_8hpp.html" target="_top" xlink:title="ALGEBRA::SparseSystem source file.">
<polygon fill="none" stroke="black" points="733.46,-56.5 733.46,-75.5 863.46,-75.5 863.46,-56.5 733.46,-56.5"/>
<text text-anchor="middle" x="798.46" y="-63.5" font-family="Helvetica,sans-Serif" font-size="10.00">algebra/sparsesystem.hpp</text>
</a>
</g>
</g>
<!-- Node4&#45;&gt;Node15 -->
<g id="edge24" class="edge">
<title>Node4&#45;&gt;Node15</title>
<path fill="none" stroke="midnightblue" d="M663.13,-109.17C692.8,-99 737.33,-84.59 767.2,-75.52"/>
<polygon fill="midnightblue" stroke="midnightblue" points="661.98,-105.86 653.68,-112.44 664.27,-112.48 661.98,-105.86"/>
</g>
<!-- Node16 -->
<g id="node16" class="node">
<title>Node16</title>
<g id="a_node16"><a xlink:href="configreader_8hpp.html" target="_top" xlink:title="IO::ConfigReader source file.">
<polygon fill="none" stroke="black" points="323.46,-56.5 323.46,-75.5 421.46,-75.5 421.46,-56.5 323.46,-56.5"/>
<text text-anchor="middle" x="372.46" y="-63.5" font-family="Helvetica,sans-Serif" font-size="10.00">io/configreader.hpp</text>
</a>
</g>
</g>
<!-- Node4&#45;&gt;Node16 -->
<g id="edge36" class="edge">
<title>Node4&#45;&gt;Node16</title>
<path fill="none" stroke="midnightblue" d="M581.47,-110.41C532.33,-100.2 458.93,-84.96 413.47,-75.52"/>
<polygon fill="midnightblue" stroke="midnightblue" points="580.76,-113.84 591.26,-112.44 582.18,-106.98 580.76,-113.84"/>
</g>
<!-- Node17 -->
<g id="node17" class="node">
<title>Node17</title>
<g id="a_node17"><a xlink:href="csvwriter_8hpp.html" target="_top" xlink:title="IO::write_csv source file.">
<polygon fill="none" stroke="black" points="439.96,-56.5 439.96,-75.5 524.96,-75.5 524.96,-56.5 439.96,-56.5"/>
<text text-anchor="middle" x="482.46" y="-63.5" font-family="Helvetica,sans-Serif" font-size="10.00">io/csvwriter.hpp</text>
</a>
</g>
</g>
<!-- Node4&#45;&gt;Node17 -->
<g id="edge38" class="edge">
<title>Node4&#45;&gt;Node17</title>
<path fill="none" stroke="midnightblue" d="M599.24,-109.04C571.01,-98.88 531.2,-84.55 506.12,-75.52"/>
<polygon fill="midnightblue" stroke="midnightblue" points="598.1,-112.35 608.69,-112.44 600.47,-105.76 598.1,-112.35"/>
</g>
<!-- Node18 -->
<g id="node18" class="node">
<title>Node18</title>
<g id="a_node18"><a xlink:href="jsonwriter_8hpp.html" target="_top" xlink:title="IO::write_json source file.">
<polygon fill="none" stroke="black" points="179.96,-56.5 179.96,-75.5 266.96,-75.5 266.96,-56.5 179.96,-56.5"/>
<text text-anchor="middle" x="223.46" y="-63.5" font-family="Helvetica,sans-Serif" font-size="10.00">io/jsonwriter.hpp</text>
</a>
</g>
</g>
<!-- Node4&#45;&gt;Node18 -->
<g id="edge40" class="edge">
<title>Node4&#45;&gt;Node18</title>
<path fill="none" stroke="midnightblue" d="M576.97,-113.67C494.68,-102.81 342,-82.65 267.14,-72.77"/>
<polygon fill="midnightblue" stroke="midnightblue" points="576.76,-117.18 587.13,-115.01 577.67,-110.24 576.76,-117.18"/>
</g>
<!-- Node5&#45;&gt;Node2 -->
<g id="edge6" class="edge">
<title>Node5&#45;&gt;Node2</title>
<path fill="none" stroke="midnightblue" d="M938.8,-85.12C925.79,-120.55 897.38,-197.83 887.74,-224.08"/>
<polygon fill="midnightblue" stroke="midnightblue" points="942.15,-86.16 942.31,-75.57 935.58,-83.75 942.15,-86.16"/>
</g>
<!-- Node5&#45;&gt;Node3 -->
<g id="edge7" class="edge">
<title>Node5&#45;&gt;Node3</title>
<path fill="none" stroke="midnightblue" d="M925.64,-81.83C894.48,-105.15 835.01,-149.65 810,-168.37"/>
<polygon fill="midnightblue" stroke="midnightblue" points="928.07,-84.39 933.98,-75.59 923.88,-78.78 928.07,-84.39"/>
</g>
<!-- Node5&#45;&gt;Node4 -->
<g id="edge13" class="edge">
<title>Node5&#45;&gt;Node4</title>
<path fill="none" stroke="midnightblue" d="M891.14,-77.31C830.71,-88.07 734.32,-104.66 677.78,-114"/>
<polygon fill="midnightblue" stroke="midnightblue" points="892.02,-80.71 901.25,-75.5 890.79,-73.82 892.02,-80.71"/>
</g>
<!-- Node5&#45;&gt;Node6 -->
<g id="edge5" class="edge">
<title>Node5&#45;&gt;Node6</title>
<path fill="none" stroke="midnightblue" d="M871.57,-55.99C619.28,-33.2 551.8,-57.49 305.46,-20 302.59,-19.56 299.61,-19.01 296.64,-18.39"/>
<polygon fill="midnightblue" stroke="midnightblue" points="871.51,-59.49 881.78,-56.92 872.15,-52.52 871.51,-59.49"/>
</g>
<!-- Node5&#45;&gt;Node7 -->
<g id="edge8" class="edge">
<title>Node5&#45;&gt;Node7</title>
<path fill="none" stroke="midnightblue" d="M955.14,-46.98C960.06,-37.82 965.82,-27.09 969.76,-19.75"/>
<polygon fill="midnightblue" stroke="midnightblue" points="951.9,-45.62 950.25,-56.08 958.07,-48.93 951.9,-45.62"/>
</g>
<!-- Node5&#45;&gt;Node8 -->
<g id="edge9" class="edge">
<title>Node5&#45;&gt;Node8</title>
<path fill="none" stroke="midnightblue" d="M886.3,-54.73C827.53,-44.52 738.46,-29.06 683.51,-19.52"/>
<polygon fill="midnightblue" stroke="midnightblue" points="885.73,-58.18 896.18,-56.44 886.93,-51.28 885.73,-58.18"/>
</g>
<!-- Node5&#45;&gt;Node9 -->
<g id="edge11" class="edge">
<title>Node5&#45;&gt;Node9</title>
<path fill="none" stroke="midnightblue" d="M871.52,-55.9C731.71,-39.39 694.98,-38.3 559.46,-20 556.53,-19.6 553.52,-19.18 550.49,-18.75"/>
<polygon fill="midnightblue" stroke="midnightblue" points="871.42,-59.41 881.76,-57.12 872.25,-52.46 871.42,-59.41"/>
</g>
<!-- Node5&#45;&gt;Node10 -->
<g id="edge14" class="edge">
<title>Node5&#45;&gt;Node10</title>
<path fill="none" stroke="midnightblue" d="M911.79,-53.04C883.19,-42.88 842.85,-28.55 817.43,-19.52"/>
<polygon fill="midnightblue" stroke="midnightblue" points="910.78,-56.39 921.38,-56.44 913.13,-49.8 910.78,-56.39"/>
</g>
<!-- Node5&#45;&gt;Node11 -->
<g id="edge16" class="edge">
<title>Node5&#45;&gt;Node11</title>
<path fill="none" stroke="midnightblue" d="M988.6,-53.96C1028.46,-43.76 1086.82,-28.82 1123.18,-19.52"/>
<polygon fill="midnightblue" stroke="midnightblue" points="987.72,-50.57 978.9,-56.44 989.45,-57.35 987.72,-50.57"/>
</g>
<!-- Node5&#45;&gt;Node12 -->
<g id="edge18" class="edge">
<title>Node5&#45;&gt;Node12</title>
<path fill="none" stroke="midnightblue" d="M871.67,-55.96C680.45,-36.42 630.46,-40.03 443.46,-20 440.46,-19.68 437.38,-19.33 434.28,-18.97"/>
<polygon fill="midnightblue" stroke="midnightblue" points="871.47,-59.46 881.78,-57 872.19,-52.49 871.47,-59.46"/>
</g>
<!-- Node5&#45;&gt;Node13 -->
<g id="edge20" class="edge">
<title>Node5&#45;&gt;Node13</title>
<path fill="none" stroke="midnightblue" d="M1013.56,-54.98C1082.89,-44.78 1189.2,-29.14 1254.58,-19.52"/>
<polygon fill="midnightblue" stroke="midnightblue" points="1013,-51.53 1003.61,-56.44 1014.02,-58.45 1013,-51.53"/>
</g>
<!-- Node8&#45;&gt;Node4 -->
<g id="edge10" class="edge">
<title>Node8&#45;&gt;Node4</title>
<path fill="none" stroke="midnightblue" d="M634.12,-29.6C633.69,-53.67 632.94,-94.62 632.62,-112.37"/>
<polygon fill="midnightblue" stroke="midnightblue" points="637.62,-29.65 634.31,-19.59 630.62,-29.53 637.62,-29.65"/>
</g>
<!-- Node9&#45;&gt;Node4 -->
<g id="edge12" class="edge">
<title>Node9&#45;&gt;Node4</title>
<path fill="none" stroke="midnightblue" d="M524.47,-25.18C537.51,-33.58 553.88,-44.75 567.46,-56 589.83,-74.53 613.24,-99.57 624.91,-112.49"/>
<polygon fill="midnightblue" stroke="midnightblue" points="525.98,-21.98 515.65,-19.59 522.23,-27.9 525.98,-21.98"/>
</g>
<!-- Node10&#45;&gt;Node4 -->
<g id="edge15" class="edge">
<title>Node10&#45;&gt;Node4</title>
<path fill="none" stroke="midnightblue" d="M771.2,-25.22C757.62,-33.97 739.94,-45.49 724.46,-56 695.34,-75.77 661.69,-99.88 644.27,-112.44"/>
<polygon fill="midnightblue" stroke="midnightblue" points="773.35,-28 779.88,-19.65 769.57,-22.11 773.35,-28"/>
</g>
<!-- Node11&#45;&gt;Node4 -->
<g id="edge17" class="edge">
<title>Node11&#45;&gt;Node4</title>
<path fill="none" stroke="midnightblue" d="M1133.22,-24.83C1106.51,-40.03 1060.87,-63.89 1018.46,-76 898.6,-110.22 750.71,-118.49 677.67,-120.44"/>
<polygon fill="midnightblue" stroke="midnightblue" points="1135.26,-27.69 1142.17,-19.66 1131.76,-21.63 1135.26,-27.69"/>
</g>
<!-- Node12&#45;&gt;Node4 -->
<g id="edge19" class="edge">
<title>Node12&#45;&gt;Node4</title>
<path fill="none" stroke="midnightblue" d="M427.82,-21.8C459.38,-29.23 499.67,-40.57 533.46,-56 551.42,-64.2 598.13,-96.66 620.36,-112.38"/>
<polygon fill="midnightblue" stroke="midnightblue" points="428.43,-18.35 417.9,-19.53 426.86,-25.17 428.43,-18.35"/>
</g>
<!-- Node13&#45;&gt;Node4 -->
<g id="edge21" class="edge">
<title>Node13&#45;&gt;Node4</title>
<path fill="none" stroke="midnightblue" d="M1274.83,-22.41C1225.4,-36.97 1135.71,-61.96 1057.46,-76 920.35,-100.6 755.76,-113.32 677.74,-118.36"/>
<polygon fill="midnightblue" stroke="midnightblue" points="1275.86,-25.75 1284.45,-19.56 1273.87,-19.04 1275.86,-25.75"/>
</g>
<!-- Node14&#45;&gt;Node6 -->
<g id="edge23" class="edge">
<title>Node14&#45;&gt;Node6</title>
<path fill="none" stroke="midnightblue" d="M110.13,-53.75C149.1,-43.23 206.23,-27.8 240.15,-18.64"/>
<polygon fill="midnightblue" stroke="midnightblue" points="108.89,-50.46 100.15,-56.44 110.72,-57.22 108.89,-50.46"/>
</g>
<!-- Node15&#45;&gt;Node2 -->
<g id="edge26" class="edge">
<title>Node15&#45;&gt;Node2</title>
<path fill="none" stroke="midnightblue" d="M811.86,-83.71C826.76,-103.02 850.69,-136.21 865.46,-168 874.38,-187.19 880.15,-211.53 882.79,-224.29"/>
<polygon fill="midnightblue" stroke="midnightblue" points="814.46,-81.35 805.53,-75.65 808.95,-85.68 814.46,-81.35"/>
</g>
<!-- Node15&#45;&gt;Node3 -->
<g id="edge27" class="edge">
<title>Node15&#45;&gt;Node3</title>
<path fill="none" stroke="midnightblue" d="M798.46,-85.6C798.46,-109.67 798.46,-150.62 798.46,-168.37"/>
<polygon fill="midnightblue" stroke="midnightblue" points="801.96,-85.59 798.46,-75.59 794.96,-85.59 801.96,-85.59"/>
</g>
<!-- Node15&#45;&gt;Node4 -->
<g id="edge31" class="edge">
<title>Node15&#45;&gt;Node4</title>
<path fill="none" stroke="midnightblue" d="M767.54,-78.92C737.91,-89.06 693.64,-103.4 663.85,-112.44"/>
<polygon fill="midnightblue" stroke="midnightblue" points="769.06,-82.1 777.36,-75.52 766.77,-75.48 769.06,-82.1"/>
</g>
<!-- Node15&#45;&gt;Node6 -->
<g id="edge25" class="edge">
<title>Node15&#45;&gt;Node6</title>
<path fill="none" stroke="midnightblue" d="M723.06,-61.58C625.96,-56.39 452.24,-44.41 305.46,-20 302.59,-19.52 299.62,-18.94 296.65,-18.31"/>
<polygon fill="midnightblue" stroke="midnightblue" points="722.9,-65.08 733.07,-62.11 723.27,-58.09 722.9,-65.08"/>
</g>
<!-- Node15&#45;&gt;Node7 -->
<g id="edge28" class="edge">
<title>Node15&#45;&gt;Node7</title>
<path fill="none" stroke="midnightblue" d="M836.15,-53.44C869.33,-43.26 916.89,-28.66 946.7,-19.52"/>
<polygon fill="midnightblue" stroke="midnightblue" points="834.88,-50.16 826.35,-56.44 836.94,-56.86 834.88,-50.16"/>
</g>
<!-- Node15&#45;&gt;Node8 -->
<g id="edge29" class="edge">
<title>Node15&#45;&gt;Node8</title>
<path fill="none" stroke="midnightblue" d="M762.94,-53.3C732.04,-43.13 687.99,-28.62 660.33,-19.52"/>
<polygon fill="midnightblue" stroke="midnightblue" points="761.88,-56.64 772.48,-56.44 764.07,-49.99 761.88,-56.64"/>
</g>
<!-- Node15&#45;&gt;Node9 -->
<g id="edge30" class="edge">
<title>Node15&#45;&gt;Node9</title>
<path fill="none" stroke="midnightblue" d="M741.27,-54.6C685.14,-44.4 600.57,-29.02 548.3,-19.52"/>
<polygon fill="midnightblue" stroke="midnightblue" points="740.94,-58.1 751.4,-56.44 742.19,-51.21 740.94,-58.1"/>
</g>
<!-- Node15&#45;&gt;Node10 -->
<g id="edge32" class="edge">
<title>Node15&#45;&gt;Node10</title>
<path fill="none" stroke="midnightblue" d="M796.71,-46.1C795.88,-37.14 794.93,-26.86 794.27,-19.75"/>
<polygon fill="midnightblue" stroke="midnightblue" points="793.23,-46.45 797.64,-56.08 800.2,-45.8 793.23,-46.45"/>
</g>
<!-- Node15&#45;&gt;Node11 -->
<g id="edge33" class="edge">
<title>Node15&#45;&gt;Node11</title>
<path fill="none" stroke="midnightblue" d="M865.31,-54.92C932.94,-44.71 1036.35,-29.12 1100,-19.52"/>
<polygon fill="midnightblue" stroke="midnightblue" points="864.55,-51.49 855.19,-56.44 865.6,-58.41 864.55,-51.49"/>
</g>
<!-- Node15&#45;&gt;Node12 -->
<g id="edge34" class="edge">
<title>Node15&#45;&gt;Node12</title>
<path fill="none" stroke="midnightblue" d="M723.04,-55.52C651.17,-46.47 539.92,-32.4 443.46,-20 440.47,-19.61 437.4,-19.22 434.3,-18.82"/>
<polygon fill="midnightblue" stroke="midnightblue" points="722.99,-59.04 733.35,-56.82 723.86,-52.1 722.99,-59.04"/>
</g>
<!-- Node15&#45;&gt;Node13 -->
<g id="edge35" class="edge">
<title>Node15&#45;&gt;Node13</title>
<path fill="none" stroke="midnightblue" d="M873.16,-56.03C873.26,-56.02 873.36,-56.01 873.46,-56 1036.83,-38.21 1078.15,-38.33 1241.46,-20 1244.55,-19.65 1247.71,-19.29 1250.9,-18.91"/>
<polygon fill="midnightblue" stroke="midnightblue" points="873.05,-52.52 863.49,-57.11 873.82,-59.48 873.05,-52.52"/>
</g>
<!-- Node16&#45;&gt;Node6 -->
<g id="edge37" class="edge">
<title>Node16&#45;&gt;Node6</title>
<path fill="none" stroke="midnightblue" d="M346.63,-51.59C327.4,-41.61 301.72,-28.27 285.13,-19.65"/>
<polygon fill="midnightblue" stroke="midnightblue" points="345.26,-54.82 355.75,-56.32 348.49,-48.61 345.26,-54.82"/>
</g>
<!-- Node17&#45;&gt;Node6 -->
<g id="edge39" class="edge">
<title>Node17&#45;&gt;Node6</title>
<path fill="none" stroke="midnightblue" d="M438.76,-53.97C396.28,-43.25 333.01,-27.29 296.74,-18.14"/>
<polygon fill="midnightblue" stroke="midnightblue" points="438,-57.39 448.55,-56.44 439.71,-50.6 438,-57.39"/>
</g>
<!-- Node18&#45;&gt;Node6 -->
<g id="edge41" class="edge">
<title>Node18&#45;&gt;Node6</title>
<path fill="none" stroke="midnightblue" d="M237.51,-48.14C245.35,-38.74 254.79,-27.4 261.17,-19.75"/>
<polygon fill="midnightblue" stroke="midnightblue" points="234.61,-46.16 230.89,-56.08 239.98,-50.64 234.61,-46.16"/>
</g>
</g>
</svg>
