<?xml version="1.0" encoding="UTF-8" standalone="no"?>
<!DOCTYPE svg PUBLIC "-//W3C//DTD SVG 1.1//EN"
 "http://www.w3.org/Graphics/SVG/1.1/DTD/svg11.dtd">
<!-- Generated by graphviz version 3.0.0 (20220413.0242)
 -->
<!-- Title: model/node.hpp Pages: 1 -->
<svg width="1169pt" height="364pt"
 viewBox="0.00 0.00 1169.00 364.00" xmlns="http://www.w3.org/2000/svg" xmlns:xlink="http://www.w3.org/1999/xlink">
<g id="graph0" class="graph" transform="scale(1 1) rotate(0) translate(4 360)">
<title>model/node.hpp</title>
<!-- Node1 -->
<g id="node1" class="node">
<title>Node1</title>
<g id="a_node1"><a xlink:title="MODEL::Node source file.">
<polygon fill="#bfbfbf" stroke="black" points="524.5,-336.5 524.5,-355.5 609.5,-355.5 609.5,-336.5 524.5,-336.5"/>
<text text-anchor="middle" x="567" y="-343.5" font-family="Helvetica,sans-Serif" font-size="10.00">model/node.hpp</text>
</a>
</g>
</g>
<!-- Node2 -->
<g id="node2" class="node">
<title>Node2</title>
<g id="a_node2"><a xlink:href="block_8hpp.html" target="_top" xlink:title="MODEL::Block source file.">
<polygon fill="none" stroke="black" points="417.5,-280.5 417.5,-299.5 504.5,-299.5 504.5,-280.5 417.5,-280.5"/>
<text text-anchor="middle" x="461" y="-287.5" font-family="Helvetica,sans-Serif" font-size="10.00">model/block.hpp</text>
</a>
</g>
</g>
<!-- Node1&#45;&gt;Node2 -->
<g id="edge1" class="edge">
<title>Node1&#45;&gt;Node2</title>
<path fill="none" stroke="midnightblue" d="M540.94,-331.73C521.32,-321.73 494.97,-308.31 477.99,-299.65"/>
<polygon fill="midnightblue" stroke="midnightblue" points="539.47,-334.9 549.97,-336.32 542.65,-328.67 539.47,-334.9"/>
</g>
<!-- Node4 -->
<g id="node4" class="node">
<title>Node4</title>
<g id="a_node4"><a xlink:href="model_8hpp.html" target="_top" xlink:title="MODEL::Model source file.">
<polygon fill="none" stroke="black" points="494,-168.5 494,-187.5 584,-187.5 584,-168.5 494,-168.5"/>
<text text-anchor="middle" x="539" y="-175.5" font-family="Helvetica,sans-Serif" font-size="10.00">model/model.hpp</text>
</a>
</g>
</g>
<!-- Node1&#45;&gt;Node4 -->
<g id="edge45" class="edge">
<title>Node1&#45;&gt;Node4</title>
<path fill="none" stroke="midnightblue" d="M571.43,-326.23C576.31,-301.98 582.09,-258.74 571,-224 566.45,-209.75 555.56,-196.16 547.75,-187.71"/>
<polygon fill="midnightblue" stroke="midnightblue" points="567.97,-325.7 569.25,-336.22 574.81,-327.19 567.97,-325.7"/>
</g>
<!-- Node3 -->
<g id="node3" class="node">
<title>Node3</title>
<g id="a_node3"><a xlink:href="bloodvessel_8hpp.html" target="_top" xlink:title="MODEL::BloodVessel source file.">
<polygon fill="none" stroke="black" points="446,-224.5 446,-243.5 562,-243.5 562,-224.5 446,-224.5"/>
<text text-anchor="middle" x="504" y="-231.5" font-family="Helvetica,sans-Serif" font-size="10.00">model/bloodvessel.hpp</text>
</a>
</g>
</g>
<!-- Node2&#45;&gt;Node3 -->
<g id="edge2" class="edge">
<title>Node2&#45;&gt;Node3</title>
<path fill="none" stroke="midnightblue" d="M474.42,-272.14C481.91,-262.74 490.94,-251.4 497.03,-243.75"/>
<polygon fill="midnightblue" stroke="midnightblue" points="471.59,-270.08 468.1,-280.08 477.07,-274.44 471.59,-270.08"/>
</g>
<!-- Node6 -->
<g id="node6" class="node">
<title>Node6</title>
<g id="a_node6"><a xlink:href="flowreferencebc_8hpp.html" target="_top" xlink:title="MODEL::FlowReferenceBC source file.">
<polygon fill="none" stroke="black" points="0,-56.5 0,-75.5 132,-75.5 132,-56.5 0,-56.5"/>
<text text-anchor="middle" x="66" y="-63.5" font-family="Helvetica,sans-Serif" font-size="10.00">model/flowreferencebc.hpp</text>
</a>
</g>
</g>
<!-- Node2&#45;&gt;Node6 -->
<g id="edge39" class="edge">
<title>Node2&#45;&gt;Node6</title>
<path fill="none" stroke="midnightblue" d="M407.01,-282.31C369.33,-276.1 318.69,-264.59 278,-244 186.02,-197.46 99,-104.25 73.49,-75.58"/>
<polygon fill="midnightblue" stroke="midnightblue" points="406.86,-285.83 417.28,-283.93 407.95,-278.91 406.86,-285.83"/>
</g>
<!-- Node7 -->
<g id="node7" class="node">
<title>Node7</title>
<g id="a_node7"><a xlink:href="junction_8hpp.html" target="_top" xlink:title="MODEL::Junction source file.">
<polygon fill="none" stroke="black" points="292,-56.5 292,-75.5 390,-75.5 390,-56.5 292,-56.5"/>
<text text-anchor="middle" x="341" y="-63.5" font-family="Helvetica,sans-Serif" font-size="10.00">model/junction.hpp</text>
</a>
</g>
</g>
<!-- Node2&#45;&gt;Node7 -->
<g id="edge40" class="edge">
<title>Node2&#45;&gt;Node7</title>
<path fill="none" stroke="midnightblue" d="M423.76,-277.09C368.43,-257.14 266.52,-211.17 224,-132 207.12,-100.58 252.55,-83.47 291.63,-74.8"/>
<polygon fill="midnightblue" stroke="midnightblue" points="422.6,-280.39 433.19,-280.4 424.92,-273.79 422.6,-280.39"/>
</g>
<!-- Node8 -->
<g id="node8" class="node">
<title>Node8</title>
<g id="a_node8"><a xlink:href="openloopcoronarybc_8hpp.html" target="_top" xlink:title="MODEL::OpenLoopCoronaryBC source file.">
<polygon fill="none" stroke="black" points="716,-56.5 716,-75.5 866,-75.5 866,-56.5 716,-56.5"/>
<text text-anchor="middle" x="791" y="-63.5" font-family="Helvetica,sans-Serif" font-size="10.00">model/openloopcoronarybc.hpp</text>
</a>
</g>
</g>
<!-- Node2&#45;&gt;Node8 -->
<g id="edge41" class="edge">
<title>Node2&#45;&gt;Node8</title>
<path fill="none" stroke="midnightblue" d="M515.01,-281.97C642.25,-264.18 954.75,-212.98 1016,-132 1021.36,-124.91 1021.64,-118.87 1016,-112 1005.71,-99.45 917.31,-84.64 854.43,-75.53"/>
<polygon fill="midnightblue" stroke="midnightblue" points="514.15,-278.55 504.73,-283.39 515.11,-285.49 514.15,-278.55"/>
</g>
<!-- Node9 -->
<g id="node9" class="node">
<title>Node9</title>
<g id="a_node9"><a xlink:href="pressurereferencebc_8hpp.html" target="_top" xlink:title="MODEL::PressureReferenceBC source file.">
<polygon fill="none" stroke="black" points="408,-56.5 408,-75.5 560,-75.5 560,-56.5 408,-56.5"/>
<text text-anchor="middle" x="484" y="-63.5" font-family="Helvetica,sans-Serif" font-size="10.00">model/pressurereferencebc.hpp</text>
</a>
</g>
</g>
<!-- Node2&#45;&gt;Node9 -->
<g id="edge42" class="edge">
<title>Node2&#45;&gt;Node9</title>
<path fill="none" stroke="midnightblue" d="M512.46,-277.39C532.86,-270.58 555.19,-260.03 571,-244 589.78,-224.96 588.02,-214.27 593,-188 599.62,-153.06 592.22,-138.03 568,-112 552,-94.8 527.9,-82.84 509.62,-75.59"/>
<polygon fill="midnightblue" stroke="midnightblue" points="511.14,-274.14 502.63,-280.45 513.22,-280.82 511.14,-274.14"/>
</g>
<!-- Node10 -->
<g id="node10" class="node">
<title>Node10</title>
<g id="a_node10"><a xlink:href="resistancebc_8hpp.html" target="_top" xlink:title="MODEL::ResistanceBC source file.">
<polygon fill="none" stroke="black" points="578.5,-56.5 578.5,-75.5 697.5,-75.5 697.5,-56.5 578.5,-56.5"/>
<text text-anchor="middle" x="638" y="-63.5" font-family="Helvetica,sans-Serif" font-size="10.00">model/resistancebc.hpp</text>
</a>
</g>
</g>
<!-- Node2&#45;&gt;Node10 -->
<g id="edge43" class="edge">
<title>Node2&#45;&gt;Node10</title>
<path fill="none" stroke="midnightblue" d="M514.66,-282.57C541.53,-276.7 572.58,-265.47 593,-244 639.76,-194.83 639.79,-104.18 638.54,-75.76"/>
<polygon fill="midnightblue" stroke="midnightblue" points="513.73,-279.18 504.61,-284.56 515.1,-286.05 513.73,-279.18"/>
</g>
<!-- Node11 -->
<g id="node11" class="node">
<title>Node11</title>
<g id="a_node11"><a xlink:href="windkesselbc_8hpp.html" target="_top" xlink:title="MODEL::WindkesselBC source file.">
<polygon fill="none" stroke="black" points="150.5,-56.5 150.5,-75.5 273.5,-75.5 273.5,-56.5 150.5,-56.5"/>
<text text-anchor="middle" x="212" y="-63.5" font-family="Helvetica,sans-Serif" font-size="10.00">model/windkesselbc.hpp</text>
</a>
</g>
</g>
<!-- Node2&#45;&gt;Node11 -->
<g id="edge44" class="edge">
<title>Node2&#45;&gt;Node11</title>
<path fill="none" stroke="midnightblue" d="M407.3,-278.52C377.96,-271.41 341.66,-260.29 312,-244 278.58,-225.64 272.37,-216.47 247,-188 226.99,-165.54 217.83,-160.75 209,-132 203.03,-112.56 206.94,-88.32 209.78,-75.65"/>
<polygon fill="midnightblue" stroke="midnightblue" points="406.84,-282.01 417.37,-280.87 408.43,-275.19 406.84,-282.01"/>
</g>
<!-- Node3&#45;&gt;Node4 -->
<g id="edge3" class="edge">
<title>Node3&#45;&gt;Node4</title>
<path fill="none" stroke="midnightblue" d="M515.3,-215.57C521.32,-206.27 528.47,-195.25 533.33,-187.75"/>
<polygon fill="midnightblue" stroke="midnightblue" points="512.28,-213.79 509.78,-224.08 518.16,-217.6 512.28,-213.79"/>
</g>
<!-- Node5 -->
<g id="node5" class="node">
<title>Node5</title>
<g id="a_node5"><a xlink:href="densesystem_8hpp.html" target="_top" xlink:title="ALGEBRA::DenseSystem source file.">
<polygon fill="none" stroke="black" points="381.5,-112.5 381.5,-131.5 508.5,-131.5 508.5,-112.5 381.5,-112.5"/>
<text text-anchor="middle" x="445" y="-119.5" font-family="Helvetica,sans-Serif" font-size="10.00">algebra/densesystem.hpp</text>
</a>
</g>
</g>
<!-- Node4&#45;&gt;Node5 -->
<g id="edge4" class="edge">
<title>Node4&#45;&gt;Node5</title>
<path fill="none" stroke="midnightblue" d="M509.73,-163.59C491.03,-153.61 468.08,-140.27 454.96,-131.65"/>
<polygon fill="midnightblue" stroke="midnightblue" points="508.3,-166.79 518.78,-168.32 511.54,-160.59 508.3,-166.79"/>
</g>
<!-- Node12 -->
<g id="node12" class="node">
<title>Node12</title>
<g id="a_node12"><a xlink:href="integrator_8hpp.html" target="_top" xlink:title="ALGEBRA::Integrator source file.">
<polygon fill="none" stroke="black" points="897,-112.5 897,-131.5 1007,-131.5 1007,-112.5 897,-112.5"/>
<text text-anchor="middle" x="952" y="-119.5" font-family="Helvetica,sans-Serif" font-size="10.00">algebra/integrator.hpp</text>
</a>
</g>
</g>
<!-- Node4&#45;&gt;Node12 -->
<g id="edge20" class="edge">
<title>Node4&#45;&gt;Node12</title>
<path fill="none" stroke="midnightblue" d="M594.63,-169.73C673.72,-159.38 817.83,-140.54 896.73,-130.23"/>
<polygon fill="midnightblue" stroke="midnightblue" points="593.84,-166.3 584.38,-171.07 594.75,-173.24 593.84,-166.3"/>
</g>
<!-- Node13 -->
<g id="node13" class="node">
<title>Node13</title>
<g id="a_node13"><a xlink:href="main_8hpp.html" target="_top" xlink:title="Main page documentation.">
<polygon fill="none" stroke="black" points="904,-56.5 904,-75.5 960,-75.5 960,-56.5 904,-56.5"/>
<text text-anchor="middle" x="932" y="-63.5" font-family="Helvetica,sans-Serif" font-size="10.00">main.hpp</text>
</a>
</g>
</g>
<!-- Node4&#45;&gt;Node13 -->
<g id="edge38" class="edge">
<title>Node4&#45;&gt;Node13</title>
<path fill="none" stroke="midnightblue" d="M594.31,-177.43C658.17,-176.05 765.17,-167.87 849,-132 880.3,-118.61 909.93,-90.36 923.8,-75.92"/>
<polygon fill="midnightblue" stroke="midnightblue" points="594,-173.94 584.06,-177.61 594.12,-180.94 594,-173.94"/>
</g>
<!-- Node16 -->
<g id="node16" class="node">
<title>Node16</title>
<g id="a_node16"><a xlink:href="sparsesystem_8hpp.html" target="_top" xlink:title="ALGEBRA::SparseSystem source file.">
<polygon fill="none" stroke="black" points="233,-112.5 233,-131.5 363,-131.5 363,-112.5 233,-112.5"/>
<text text-anchor="middle" x="298" y="-119.5" font-family="Helvetica,sans-Serif" font-size="10.00">algebra/sparsesystem.hpp</text>
</a>
</g>
</g>
<!-- Node4&#45;&gt;Node16 -->
<g id="edge24" class="edge">
<title>Node4&#45;&gt;Node16</title>
<path fill="none" stroke="midnightblue" d="M485.65,-166.28C438.33,-156.08 370.83,-140.92 330.93,-131.52"/>
<polygon fill="midnightblue" stroke="midnightblue" points="485.21,-169.77 495.72,-168.44 486.68,-162.92 485.21,-169.77"/>
</g>
<!-- Node17 -->
<g id="node17" class="node">
<title>Node17</title>
<g id="a_node17"><a xlink:href="configreader_8hpp.html" target="_top" xlink:title="IO::ConfigReader source file.">
<polygon fill="none" stroke="black" points="1063,-112.5 1063,-131.5 1161,-131.5 1161,-112.5 1063,-112.5"/>
<text text-anchor="middle" x="1112" y="-119.5" font-family="Helvetica,sans-Serif" font-size="10.00">io/configreader.hpp</text>
</a>
</g>
</g>
<!-- Node4&#45;&gt;Node17 -->
<g id="edge34" class="edge">
<title>Node4&#45;&gt;Node17</title>
<path fill="none" stroke="midnightblue" d="M594.49,-171.77C706.23,-161.24 956.73,-137.63 1062.92,-127.63"/>
<polygon fill="midnightblue" stroke="midnightblue" points="594.07,-168.29 584.44,-172.72 594.73,-175.26 594.07,-168.29"/>
</g>
<!-- Node18 -->
<g id="node18" class="node">
<title>Node18</title>
<g id="a_node18"><a xlink:href="csvwriter_8hpp.html" target="_top" xlink:title="IO::write_csv source file.">
<polygon fill="none" stroke="black" points="755.5,-112.5 755.5,-131.5 840.5,-131.5 840.5,-112.5 755.5,-112.5"/>
<text text-anchor="middle" x="798" y="-119.5" font-family="Helvetica,sans-Serif" font-size="10.00">io/csvwriter.hpp</text>
</a>
</g>
</g>
<!-- Node4&#45;&gt;Node18 -->
<g id="edge36" class="edge">
<title>Node4&#45;&gt;Node18</title>
<path fill="none" stroke="midnightblue" d="M590.1,-166.35C639.05,-156.14 711.95,-140.94 757.15,-131.52"/>
<polygon fill="midnightblue" stroke="midnightblue" points="589.11,-162.98 580.04,-168.44 590.54,-169.83 589.11,-162.98"/>
</g>
<!-- Node5&#45;&gt;Node2 -->
<g id="edge5" class="edge">
<title>Node5&#45;&gt;Node2</title>
<path fill="none" stroke="midnightblue" d="M440.28,-141.55C434.97,-165.57 428.14,-208.56 437,-244 440.39,-257.57 448.74,-271.53 454.63,-280.23"/>
<polygon fill="midnightblue" stroke="midnightblue" points="443.73,-142.21 442.63,-131.67 436.91,-140.59 443.73,-142.21"/>
</g>
<!-- Node5&#45;&gt;Node3 -->
<g id="edge6" class="edge">
<title>Node5&#45;&gt;Node3</title>
<path fill="none" stroke="midnightblue" d="M454.45,-140.63C467.29,-164.55 489.72,-206.38 499.37,-224.37"/>
<polygon fill="midnightblue" stroke="midnightblue" points="457.42,-138.75 449.61,-131.59 451.25,-142.06 457.42,-138.75"/>
</g>
<!-- Node5&#45;&gt;Node4 -->
<g id="edge11" class="edge">
<title>Node5&#45;&gt;Node4</title>
<path fill="none" stroke="midnightblue" d="M474.22,-136.39C492.92,-146.36 515.87,-159.7 529.01,-168.32"/>
<polygon fill="midnightblue" stroke="midnightblue" points="475.66,-133.19 465.18,-131.65 472.41,-139.39 475.66,-133.19"/>
</g>
<!-- Node5&#45;&gt;Node6 -->
<g id="edge7" class="edge">
<title>Node5&#45;&gt;Node6</title>
<path fill="none" stroke="midnightblue" d="M374.67,-110.98C303.08,-100.78 193.3,-85.14 125.77,-75.52"/>
<polygon fill="midnightblue" stroke="midnightblue" points="374.55,-114.5 384.95,-112.44 375.54,-107.57 374.55,-114.5"/>
</g>
<!-- Node5&#45;&gt;Node7 -->
<g id="edge9" class="edge">
<title>Node5&#45;&gt;Node7</title>
<path fill="none" stroke="midnightblue" d="M419.17,-107.59C399.94,-97.61 374.26,-84.27 357.67,-75.65"/>
<polygon fill="midnightblue" stroke="midnightblue" points="417.8,-110.82 428.29,-112.32 421.03,-104.61 417.8,-110.82"/>
</g>
<!-- Node5&#45;&gt;Node8 -->
<g id="edge12" class="edge">
<title>Node5&#45;&gt;Node8</title>
<path fill="none" stroke="midnightblue" d="M510.01,-110.85C575.38,-100.65 675.04,-85.1 736.43,-75.52"/>
<polygon fill="midnightblue" stroke="midnightblue" points="509.17,-107.44 499.82,-112.44 510.24,-114.36 509.17,-107.44"/>
</g>
<!-- Node5&#45;&gt;Node9 -->
<g id="edge14" class="edge">
<title>Node5&#45;&gt;Node9</title>
<path fill="none" stroke="midnightblue" d="M457.38,-103.86C464.14,-94.5 472.21,-83.33 477.68,-75.75"/>
<polygon fill="midnightblue" stroke="midnightblue" points="454.46,-101.93 451.44,-112.08 460.13,-106.03 454.46,-101.93"/>
</g>
<!-- Node5&#45;&gt;Node10 -->
<g id="edge16" class="edge">
<title>Node5&#45;&gt;Node10</title>
<path fill="none" stroke="midnightblue" d="M485.39,-109.7C521.82,-99.51 574.59,-84.74 607.56,-75.52"/>
<polygon fill="midnightblue" stroke="midnightblue" points="484.27,-106.38 475.58,-112.44 486.15,-113.12 484.27,-106.38"/>
</g>
<!-- Node5&#45;&gt;Node11 -->
<g id="edge18" class="edge">
<title>Node5&#45;&gt;Node11</title>
<path fill="none" stroke="midnightblue" d="M398.2,-110.15C354.17,-99.95 289.15,-84.88 248.75,-75.52"/>
<polygon fill="midnightblue" stroke="midnightblue" points="397.55,-113.6 408.08,-112.44 399.13,-106.78 397.55,-113.6"/>
</g>
<!-- Node6&#45;&gt;Node4 -->
<g id="edge8" class="edge">
<title>Node6&#45;&gt;Node4</title>
<path fill="none" stroke="midnightblue" d="M89.83,-80.45C117.56,-95.48 165.17,-119.35 209,-132 308.16,-160.63 429.48,-171.21 493.84,-175"/>
<polygon fill="midnightblue" stroke="midnightblue" points="91.34,-77.29 80.89,-75.54 87.97,-83.42 91.34,-77.29"/>
</g>
<!-- Node7&#45;&gt;Node4 -->
<g id="edge10" class="edge">
<title>Node7&#45;&gt;Node4</title>
<path fill="none" stroke="midnightblue" d="M393.11,-77.69C441.61,-88.06 507.77,-103.44 517,-112 533.25,-127.06 537.5,-154.55 538.61,-168.46"/>
<polygon fill="midnightblue" stroke="midnightblue" points="393.56,-74.21 383.05,-75.56 392.11,-81.06 393.56,-74.21"/>
</g>
<!-- Node8&#45;&gt;Node4 -->
<g id="edge13" class="edge">
<title>Node8&#45;&gt;Node4</title>
<path fill="none" stroke="midnightblue" d="M762.02,-79.65C710.22,-102.26 603.03,-149.05 558.77,-168.37"/>
<polygon fill="midnightblue" stroke="midnightblue" points="763.55,-82.8 771.32,-75.59 760.75,-76.38 763.55,-82.8"/>
</g>
<!-- Node9&#45;&gt;Node4 -->
<g id="edge15" class="edge">
<title>Node9&#45;&gt;Node4</title>
<path fill="none" stroke="midnightblue" d="M515.84,-80.06C529.24,-87.33 543.45,-97.83 551,-112 560.82,-130.43 550.61,-155.51 543.89,-168.47"/>
<polygon fill="midnightblue" stroke="midnightblue" points="517.3,-76.87 506.79,-75.53 514.17,-83.13 517.3,-76.87"/>
</g>
<!-- Node10&#45;&gt;Node4 -->
<g id="edge17" class="edge">
<title>Node10&#45;&gt;Node4</title>
<path fill="none" stroke="midnightblue" d="M623.55,-83.05C602.3,-106.67 563.32,-149.97 546.77,-168.37"/>
<polygon fill="midnightblue" stroke="midnightblue" points="626.18,-85.37 630.27,-75.59 620.98,-80.68 626.18,-85.37"/>
</g>
<!-- Node11&#45;&gt;Node4 -->
<g id="edge19" class="edge">
<title>Node11&#45;&gt;Node4</title>
<path fill="none" stroke="midnightblue" d="M210.07,-85.6C209.65,-100.29 211.73,-120.22 224,-132 261.76,-168.25 416.22,-175.49 493.92,-176.81"/>
<polygon fill="midnightblue" stroke="midnightblue" points="213.56,-85.82 210.75,-75.61 206.57,-85.34 213.56,-85.82"/>
</g>
<!-- Node12&#45;&gt;Node13 -->
<g id="edge21" class="edge">
<title>Node12&#45;&gt;Node13</title>
<path fill="none" stroke="midnightblue" d="M945.22,-102.69C941.85,-93.59 937.93,-83.01 935.24,-75.75"/>
<polygon fill="midnightblue" stroke="midnightblue" points="941.94,-103.92 948.7,-112.08 948.51,-101.49 941.94,-103.92"/>
</g>
<!-- Node14 -->
<g id="node14" class="node">
<title>Node14</title>
<g id="a_node14"><a xlink:href="main_8cpp.html" target="_top" xlink:title="Main routine of svZeroDSolver.">
<polygon fill="none" stroke="black" points="865,-0.5 865,-19.5 921,-19.5 921,-0.5 865,-0.5"/>
<text text-anchor="middle" x="893" y="-7.5" font-family="Helvetica,sans-Serif" font-size="10.00">main.cpp</text>
</a>
</g>
</g>
<!-- Node13&#45;&gt;Node14 -->
<g id="edge22" class="edge">
<title>Node13&#45;&gt;Node14</title>
<path fill="none" stroke="midnightblue" d="M919.62,-47.86C912.86,-38.5 904.79,-27.33 899.32,-19.75"/>
<polygon fill="midnightblue" stroke="midnightblue" points="916.87,-50.03 925.56,-56.08 922.54,-45.93 916.87,-50.03"/>
</g>
<!-- Node15 -->
<g id="node15" class="node">
<title>Node15</title>
<g id="a_node15"><a xlink:href="python_8cpp.html" target="_top" xlink:title="Python binding for svZeroDSolver.">
<polygon fill="none" stroke="black" points="939.5,-0.5 939.5,-19.5 1002.5,-19.5 1002.5,-0.5 939.5,-0.5"/>
<text text-anchor="middle" x="971" y="-7.5" font-family="Helvetica,sans-Serif" font-size="10.00">python.cpp</text>
</a>
</g>
</g>
<!-- Node13&#45;&gt;Node15 -->
<g id="edge23" class="edge">
<title>Node13&#45;&gt;Node15</title>
<path fill="none" stroke="midnightblue" d="M944.38,-47.86C951.14,-38.5 959.21,-27.33 964.68,-19.75"/>
<polygon fill="midnightblue" stroke="midnightblue" points="941.46,-45.93 938.44,-56.08 947.13,-50.03 941.46,-45.93"/>
</g>
<!-- Node16&#45;&gt;Node2 -->
<g id="edge25" class="edge">
<title>Node16&#45;&gt;Node2</title>
<path fill="none" stroke="midnightblue" d="M313.6,-138.89C347.28,-173.19 425.91,-253.27 452.24,-280.08"/>
<polygon fill="midnightblue" stroke="midnightblue" points="315.92,-136.25 306.41,-131.57 310.92,-141.16 315.92,-136.25"/>
</g>
<!-- Node16&#45;&gt;Node3 -->
<g id="edge26" class="edge">
<title>Node16&#45;&gt;Node3</title>
<path fill="none" stroke="midnightblue" d="M323.02,-136.36C365.85,-159.23 452.03,-205.25 487.84,-224.37"/>
<polygon fill="midnightblue" stroke="midnightblue" points="324.56,-133.21 314.09,-131.59 321.26,-139.39 324.56,-133.21"/>
</g>
<!-- Node16&#45;&gt;Node4 -->
<g id="edge29" class="edge">
<title>Node16&#45;&gt;Node4</title>
<path fill="none" stroke="midnightblue" d="M351.15,-133.68C398.42,-143.87 465.93,-159.02 505.9,-168.44"/>
<polygon fill="midnightblue" stroke="midnightblue" points="351.6,-130.19 341.09,-131.52 350.13,-137.04 351.6,-130.19"/>
</g>
<!-- Node16&#45;&gt;Node6 -->
<g id="edge27" class="edge">
<title>Node16&#45;&gt;Node6</title>
<path fill="none" stroke="midnightblue" d="M251.4,-110.15C207.56,-99.95 142.82,-84.88 102.59,-75.52"/>
<polygon fill="midnightblue" stroke="midnightblue" points="250.71,-113.59 261.24,-112.44 252.29,-106.77 250.71,-113.59"/>
</g>
<!-- Node16&#45;&gt;Node7 -->
<g id="edge28" class="edge">
<title>Node16&#45;&gt;Node7</title>
<path fill="none" stroke="midnightblue" d="M311.42,-104.14C318.91,-94.74 327.94,-83.4 334.03,-75.75"/>
<polygon fill="midnightblue" stroke="midnightblue" points="308.59,-102.08 305.1,-112.08 314.07,-106.44 308.59,-102.08"/>
</g>
<!-- Node16&#45;&gt;Node8 -->
<g id="edge30" class="edge">
<title>Node16&#45;&gt;Node8</title>
<path fill="none" stroke="midnightblue" d="M373.35,-111.87C430.54,-105.49 611.71,-86.13 715.87,-75.01"/>
<polygon fill="midnightblue" stroke="midnightblue" points="372.91,-108.4 363.36,-113 373.69,-115.36 372.91,-108.4"/>
</g>
<!-- Node16&#45;&gt;Node9 -->
<g id="edge31" class="edge">
<title>Node16&#45;&gt;Node9</title>
<path fill="none" stroke="midnightblue" d="M337.38,-109.57C372.47,-99.38 423.02,-84.7 454.67,-75.52"/>
<polygon fill="midnightblue" stroke="midnightblue" points="336.1,-106.29 327.47,-112.44 338.05,-113.02 336.1,-106.29"/>
</g>
<!-- Node16&#45;&gt;Node10 -->
<g id="edge32" class="edge">
<title>Node16&#45;&gt;Node10</title>
<path fill="none" stroke="midnightblue" d="M361.88,-110.85C426.12,-100.65 524.05,-85.1 584.38,-75.52"/>
<polygon fill="midnightblue" stroke="midnightblue" points="361.2,-107.42 351.87,-112.44 362.3,-114.33 361.2,-107.42"/>
</g>
<!-- Node16&#45;&gt;Node11 -->
<g id="edge33" class="edge">
<title>Node16&#45;&gt;Node11</title>
<path fill="none" stroke="midnightblue" d="M275.55,-106.9C259.78,-97 239.19,-84.07 225.78,-75.65"/>
<polygon fill="midnightblue" stroke="midnightblue" points="273.85,-109.97 284.18,-112.32 277.57,-104.04 273.85,-109.97"/>
</g>
<!-- Node17&#45;&gt;Node13 -->
<g id="edge35" class="edge">
<title>Node17&#45;&gt;Node13</title>
<path fill="none" stroke="midnightblue" d="M1073.86,-109.56C1039.8,-99.34 990.69,-84.61 960.09,-75.43"/>
<polygon fill="midnightblue" stroke="midnightblue" points="1072.89,-112.92 1083.48,-112.44 1074.91,-106.22 1072.89,-112.92"/>
</g>
<!-- Node18&#45;&gt;Node13 -->
<g id="edge37" class="edge">
<title>Node18&#45;&gt;Node13</title>
<path fill="none" stroke="midnightblue" d="M828.68,-108.64C853.82,-98.5 888.75,-84.43 910.87,-75.52"/>
<polygon fill="midnightblue" stroke="midnightblue" points="827.2,-105.46 819.23,-112.44 829.82,-111.95 827.2,-105.46"/>
</g>
</g>
</svg>
