<?xml version="1.0" encoding="UTF-8" standalone="no"?>
<!DOCTYPE svg PUBLIC "-//W3C//DTD SVG 1.1//EN"
 "http://www.w3.org/Graphics/SVG/1.1/DTD/svg11.dtd">
<!-- Generated by graphviz version 3.0.0 (20220413.0242)
 -->
<!-- Title: model/node.hpp Pages: 1 -->
<svg width="1667pt" height="308pt"
 viewBox="0.00 0.00 1666.50 308.00" xmlns="http://www.w3.org/2000/svg" xmlns:xlink="http://www.w3.org/1999/xlink">
<g id="graph0" class="graph" transform="scale(1 1) rotate(0) translate(4 304)">
<title>model/node.hpp</title>
<!-- Node1 -->
<g id="node1" class="node">
<title>Node1</title>
<g id="a_node1"><a xlink:title="MODEL::Node source file.">
<polygon fill="#bfbfbf" stroke="black" points="820.5,-280.5 820.5,-299.5 905.5,-299.5 905.5,-280.5 820.5,-280.5"/>
<text text-anchor="middle" x="863" y="-287.5" font-family="Helvetica,sans-Serif" font-size="10.00">model/node.hpp</text>
</a>
</g>
</g>
<!-- Node2 -->
<g id="node2" class="node">
<title>Node2</title>
<g id="a_node2"><a xlink:href="block_8hpp.html" target="_top" xlink:title="MODEL::Block source file.">
<polygon fill="none" stroke="black" points="915.5,-224.5 915.5,-243.5 1002.5,-243.5 1002.5,-224.5 915.5,-224.5"/>
<text text-anchor="middle" x="959" y="-231.5" font-family="Helvetica,sans-Serif" font-size="10.00">model/block.hpp</text>
</a>
</g>
</g>
<!-- Node1&#45;&gt;Node2 -->
<g id="edge1" class="edge">
<title>Node1&#45;&gt;Node2</title>
<path fill="none" stroke="midnightblue" d="M887.57,-275.18C905.24,-265.24 928.51,-252.15 943.61,-243.65"/>
<polygon fill="midnightblue" stroke="midnightblue" points="885.42,-272.37 878.42,-280.32 888.86,-278.47 885.42,-272.37"/>
</g>
<!-- Node4 -->
<g id="node4" class="node">
<title>Node4</title>
<g id="a_node4"><a xlink:href="model_8hpp.html" target="_top" xlink:title="MODEL::Model source file.">
<polygon fill="none" stroke="black" points="685,-112.5 685,-131.5 775,-131.5 775,-112.5 685,-112.5"/>
<text text-anchor="middle" x="730" y="-119.5" font-family="Helvetica,sans-Serif" font-size="10.00">model/model.hpp</text>
</a>
</g>
</g>
<!-- Node1&#45;&gt;Node4 -->
<g id="edge56" class="edge">
<title>Node1&#45;&gt;Node4</title>
<path fill="none" stroke="midnightblue" d="M849.55,-272.21C821.55,-237.26 757.87,-157.79 736.86,-131.57"/>
<polygon fill="midnightblue" stroke="midnightblue" points="846.87,-274.46 855.85,-280.08 852.33,-270.08 846.87,-274.46"/>
</g>
<!-- Node3 -->
<g id="node3" class="node">
<title>Node3</title>
<g id="a_node3"><a xlink:href="bloodvessel_8hpp.html" target="_top" xlink:title="MODEL::BloodVessel source file.">
<polygon fill="none" stroke="black" points="901,-168.5 901,-187.5 1017,-187.5 1017,-168.5 901,-168.5"/>
<text text-anchor="middle" x="959" y="-175.5" font-family="Helvetica,sans-Serif" font-size="10.00">model/bloodvessel.hpp</text>
</a>
</g>
</g>
<!-- Node2&#45;&gt;Node3 -->
<g id="edge2" class="edge">
<title>Node2&#45;&gt;Node3</title>
<path fill="none" stroke="midnightblue" d="M959,-213.8C959,-204.91 959,-194.78 959,-187.75"/>
<polygon fill="midnightblue" stroke="midnightblue" points="955.5,-214.08 959,-224.08 962.5,-214.08 955.5,-214.08"/>
</g>
<!-- Node7 -->
<g id="node7" class="node">
<title>Node7</title>
<g id="a_node7"><a xlink:href="closedloop_r_c_rbc_8hpp_source.html" target="_top" xlink:title=" ">
<polygon fill="none" stroke="black" points="1009.5,-0.5 1009.5,-19.5 1150.5,-19.5 1150.5,-0.5 1009.5,-0.5"/>
<text text-anchor="middle" x="1080" y="-7.5" font-family="Helvetica,sans-Serif" font-size="10.00">model/closedloopRCRbc.hpp</text>
</a>
</g>
</g>
<!-- Node2&#45;&gt;Node7 -->
<g id="edge47" class="edge">
<title>Node2&#45;&gt;Node7</title>
<path fill="none" stroke="midnightblue" d="M1006.03,-221.58C1048.91,-208.26 1109.1,-181.45 1133,-132 1147.73,-101.52 1152.89,-86.4 1138,-56 1129.81,-39.29 1112.1,-27 1098.39,-19.53"/>
<polygon fill="midnightblue" stroke="midnightblue" points="1004.94,-218.26 996.35,-224.46 1006.93,-224.97 1004.94,-218.26"/>
</g>
<!-- Node8 -->
<g id="node8" class="node">
<title>Node8</title>
<g id="a_node8"><a xlink:href="closedloopcoronarybc_8hpp_source.html" target="_top" xlink:title=" ">
<polygon fill="none" stroke="black" points="1169,-0.5 1169,-19.5 1327,-19.5 1327,-0.5 1169,-0.5"/>
<text text-anchor="middle" x="1248" y="-7.5" font-family="Helvetica,sans-Serif" font-size="10.00">model/closedloopcoronarybc.hpp</text>
</a>
</g>
</g>
<!-- Node2&#45;&gt;Node8 -->
<g id="edge48" class="edge">
<title>Node2&#45;&gt;Node8</title>
<path fill="none" stroke="midnightblue" d="M1012.91,-224.52C1042.3,-218 1078.23,-206.81 1106,-188 1176.12,-140.49 1228.62,-47.94 1243.64,-19.51"/>
<polygon fill="midnightblue" stroke="midnightblue" points="1011.88,-221.15 1002.81,-226.63 1013.31,-228.01 1011.88,-221.15"/>
</g>
<!-- Node9 -->
<g id="node9" class="node">
<title>Node9</title>
<g id="a_node9"><a xlink:href="closedloopheartpulmonary_8hpp.html" target="_top" xlink:title="MODEL::ClosedLoopHeartPulmonary source file.">
<polygon fill="none" stroke="black" points="1345,-0.5 1345,-19.5 1521,-19.5 1521,-0.5 1345,-0.5"/>
<text text-anchor="middle" x="1433" y="-7.5" font-family="Helvetica,sans-Serif" font-size="10.00">model/closedloopheartpulmonary.hpp</text>
</a>
</g>
</g>
<!-- Node2&#45;&gt;Node9 -->
<g id="edge49" class="edge">
<title>Node2&#45;&gt;Node9</title>
<path fill="none" stroke="midnightblue" d="M1012.7,-223.05C1047.51,-215.63 1093.38,-204.01 1132,-188 1252.12,-138.2 1382.27,-47.59 1421.3,-19.52"/>
<polygon fill="midnightblue" stroke="midnightblue" points="1011.81,-219.66 1002.74,-225.12 1013.24,-226.51 1011.81,-219.66"/>
</g>
<!-- Node10 -->
<g id="node10" class="node">
<title>Node10</title>
<g id="a_node10"><a xlink:href="flowreferencebc_8hpp.html" target="_top" xlink:title="MODEL::FlowReferenceBC source file.">
<polygon fill="none" stroke="black" points="743,-0.5 743,-19.5 875,-19.5 875,-0.5 743,-0.5"/>
<text text-anchor="middle" x="809" y="-7.5" font-family="Helvetica,sans-Serif" font-size="10.00">model/flowreferencebc.hpp</text>
</a>
</g>
</g>
<!-- Node2&#45;&gt;Node10 -->
<g id="edge50" class="edge">
<title>Node2&#45;&gt;Node10</title>
<path fill="none" stroke="midnightblue" d="M927.59,-220.13C912.08,-212.56 893.96,-201.76 881,-188 832.32,-136.33 814.71,-47.36 810.25,-19.56"/>
<polygon fill="midnightblue" stroke="midnightblue" points="926.3,-223.38 936.84,-224.42 929.24,-217.03 926.3,-223.38"/>
</g>
<!-- Node11 -->
<g id="node11" class="node">
<title>Node11</title>
<g id="a_node11"><a xlink:href="junction_8hpp.html" target="_top" xlink:title="MODEL::Junction source file.">
<polygon fill="none" stroke="black" points="893,-0.5 893,-19.5 991,-19.5 991,-0.5 893,-0.5"/>
<text text-anchor="middle" x="942" y="-7.5" font-family="Helvetica,sans-Serif" font-size="10.00">model/junction.hpp</text>
</a>
</g>
</g>
<!-- Node2&#45;&gt;Node11 -->
<g id="edge51" class="edge">
<title>Node2&#45;&gt;Node11</title>
<path fill="none" stroke="midnightblue" d="M987.27,-220.03C1045.54,-191.54 1169.46,-120.9 1119,-56 1110.83,-45.49 1037.15,-29.39 987.47,-19.57"/>
<polygon fill="midnightblue" stroke="midnightblue" points="985.69,-216.9 978.19,-224.38 988.72,-223.21 985.69,-216.9"/>
</g>
<!-- Node12 -->
<g id="node12" class="node">
<title>Node12</title>
<g id="a_node12"><a xlink:href="openloopcoronarybc_8hpp.html" target="_top" xlink:title="MODEL::ClosedLoopCoronaryBC source file.">
<polygon fill="none" stroke="black" points="433,-0.5 433,-19.5 583,-19.5 583,-0.5 433,-0.5"/>
<text text-anchor="middle" x="508" y="-7.5" font-family="Helvetica,sans-Serif" font-size="10.00">model/openloopcoronarybc.hpp</text>
</a>
</g>
</g>
<!-- Node2&#45;&gt;Node12 -->
<g id="edge52" class="edge">
<title>Node2&#45;&gt;Node12</title>
<path fill="none" stroke="midnightblue" d="M905.23,-232.72C816.63,-229.81 637.59,-213.38 515,-132 486.19,-112.88 473.94,-108.06 461,-76 451.88,-53.4 477.19,-31.32 494.12,-19.62"/>
<polygon fill="midnightblue" stroke="midnightblue" points="905.22,-236.22 915.32,-233.01 905.42,-229.23 905.22,-236.22"/>
</g>
<!-- Node13 -->
<g id="node13" class="node">
<title>Node13</title>
<g id="a_node13"><a xlink:href="pressurereferencebc_8hpp.html" target="_top" xlink:title="MODEL::PressureReferenceBC source file.">
<polygon fill="none" stroke="black" points="263,-0.5 263,-19.5 415,-19.5 415,-0.5 263,-0.5"/>
<text text-anchor="middle" x="339" y="-7.5" font-family="Helvetica,sans-Serif" font-size="10.00">model/pressurereferencebc.hpp</text>
</a>
</g>
</g>
<!-- Node2&#45;&gt;Node13 -->
<g id="edge53" class="edge">
<title>Node2&#45;&gt;Node13</title>
<path fill="none" stroke="midnightblue" d="M905.28,-229.99C753.31,-220.19 326.34,-183.4 249,-76 230.14,-49.8 274.49,-30.06 307.41,-19.54"/>
<polygon fill="midnightblue" stroke="midnightblue" points="905.11,-233.49 915.31,-230.62 905.55,-226.5 905.11,-233.49"/>
</g>
<!-- Node14 -->
<g id="node14" class="node">
<title>Node14</title>
<g id="a_node14"><a xlink:href="resistancebc_8hpp.html" target="_top" xlink:title="MODEL::ResistanceBC source file.">
<polygon fill="none" stroke="black" points="1539.5,-0.5 1539.5,-19.5 1658.5,-19.5 1658.5,-0.5 1539.5,-0.5"/>
<text text-anchor="middle" x="1599" y="-7.5" font-family="Helvetica,sans-Serif" font-size="10.00">model/resistancebc.hpp</text>
</a>
</g>
</g>
<!-- Node2&#45;&gt;Node14 -->
<g id="edge54" class="edge">
<title>Node2&#45;&gt;Node14</title>
<path fill="none" stroke="midnightblue" d="M1012.7,-224.07C1055.1,-216.37 1115.5,-203.99 1167,-188 1332.65,-136.58 1523.23,-47.44 1581.31,-19.58"/>
<polygon fill="midnightblue" stroke="midnightblue" points="1011.82,-220.67 1002.6,-225.87 1013.06,-227.56 1011.82,-220.67"/>
</g>
<!-- Node15 -->
<g id="node15" class="node">
<title>Node15</title>
<g id="a_node15"><a xlink:href="windkesselbc_8hpp.html" target="_top" xlink:title="MODEL::WindkesselBC source file.">
<polygon fill="none" stroke="black" points="601.5,-0.5 601.5,-19.5 724.5,-19.5 724.5,-0.5 601.5,-0.5"/>
<text text-anchor="middle" x="663" y="-7.5" font-family="Helvetica,sans-Serif" font-size="10.00">model/windkesselbc.hpp</text>
</a>
</g>
</g>
<!-- Node2&#45;&gt;Node15 -->
<g id="edge55" class="edge">
<title>Node2&#45;&gt;Node15</title>
<path fill="none" stroke="midnightblue" d="M905.15,-223.87C789.06,-202.97 521.45,-147.89 469,-76 463.76,-68.82 463.47,-62.96 469,-56 477.95,-44.73 557.32,-29.09 611.73,-19.52"/>
<polygon fill="midnightblue" stroke="midnightblue" points="904.78,-227.36 915.24,-225.67 906,-220.47 904.78,-227.36"/>
</g>
<!-- Node3&#45;&gt;Node4 -->
<g id="edge3" class="edge">
<title>Node3&#45;&gt;Node4</title>
<path fill="none" stroke="midnightblue" d="M912.73,-166.09C869.46,-155.89 805.74,-140.86 766.12,-131.52"/>
<polygon fill="midnightblue" stroke="midnightblue" points="912.18,-169.55 922.71,-168.44 913.78,-162.74 912.18,-169.55"/>
</g>
<!-- Node5 -->
<g id="node5" class="node">
<title>Node5</title>
<g id="a_node5"><a xlink:href="densesystem_8hpp.html" target="_top" xlink:title="ALGEBRA::DenseSystem source file.">
<polygon fill="none" stroke="black" points="834.5,-56.5 834.5,-75.5 961.5,-75.5 961.5,-56.5 834.5,-56.5"/>
<text text-anchor="middle" x="898" y="-63.5" font-family="Helvetica,sans-Serif" font-size="10.00">algebra/densesystem.hpp</text>
</a>
</g>
</g>
<!-- Node4&#45;&gt;Node5 -->
<g id="edge4" class="edge">
<title>Node4&#45;&gt;Node5</title>
<path fill="none" stroke="midnightblue" d="M761.1,-109.17C791.15,-99 836.21,-84.59 866.42,-75.52"/>
<polygon fill="midnightblue" stroke="midnightblue" points="759.86,-105.9 751.53,-112.44 762.13,-112.52 759.86,-105.9"/>
</g>
<!-- Node6 -->
<g id="node6" class="node">
<title>Node6</title>
<g id="a_node6"><a xlink:href="main_8cpp.html" target="_top" xlink:title="Main routine of svZeroDSolver.">
<polygon fill="none" stroke="black" points="189,-0.5 189,-19.5 245,-19.5 245,-0.5 189,-0.5"/>
<text text-anchor="middle" x="217" y="-7.5" font-family="Helvetica,sans-Serif" font-size="10.00">main.cpp</text>
</a>
</g>
</g>
<!-- Node4&#45;&gt;Node6 -->
<g id="edge46" class="edge">
<title>Node4&#45;&gt;Node6</title>
<path fill="none" stroke="midnightblue" d="M674.79,-112.82C621.79,-104.66 539.59,-91.16 469,-76 387.06,-58.4 291.55,-32.18 245.16,-19.07"/>
<polygon fill="midnightblue" stroke="midnightblue" points="674.57,-116.33 684.99,-114.38 675.63,-109.41 674.57,-116.33"/>
</g>
<!-- Node16 -->
<g id="node16" class="node">
<title>Node16</title>
<g id="a_node16"><a xlink:href="integrator_8hpp.html" target="_top" xlink:title="ALGEBRA::Integrator source file.">
<polygon fill="none" stroke="black" points="478,-56.5 478,-75.5 588,-75.5 588,-56.5 478,-56.5"/>
<text text-anchor="middle" x="533" y="-63.5" font-family="Helvetica,sans-Serif" font-size="10.00">algebra/integrator.hpp</text>
</a>
</g>
</g>
<!-- Node4&#45;&gt;Node16 -->
<g id="edge24" class="edge">
<title>Node4&#45;&gt;Node16</title>
<path fill="none" stroke="midnightblue" d="M688.77,-109.7C651.59,-99.51 597.73,-84.74 564.07,-75.52"/>
<polygon fill="midnightblue" stroke="midnightblue" points="688.22,-113.18 698.78,-112.44 690.07,-106.42 688.22,-113.18"/>
</g>
<!-- Node17 -->
<g id="node17" class="node">
<title>Node17</title>
<g id="a_node17"><a xlink:href="sparsesystem_8hpp.html" target="_top" xlink:title="ALGEBRA::SparseSystem source file.">
<polygon fill="none" stroke="black" points="980,-56.5 980,-75.5 1110,-75.5 1110,-56.5 980,-56.5"/>
<text text-anchor="middle" x="1045" y="-63.5" font-family="Helvetica,sans-Serif" font-size="10.00">algebra/sparsesystem.hpp</text>
</a>
</g>
</g>
<!-- Node4&#45;&gt;Node17 -->
<g id="edge26" class="edge">
<title>Node4&#45;&gt;Node17</title>
<path fill="none" stroke="midnightblue" d="M784.85,-110.66C842.52,-100.46 932.6,-85.04 990.24,-75.52"/>
<polygon fill="midnightblue" stroke="midnightblue" points="784.06,-107.25 774.82,-112.44 785.28,-114.14 784.06,-107.25"/>
</g>
<!-- Node18 -->
<g id="node18" class="node">
<title>Node18</title>
<g id="a_node18"><a xlink:href="configreader_8hpp.html" target="_top" xlink:title="IO::ConfigReader source file.">
<polygon fill="none" stroke="black" points="0,-56.5 0,-75.5 98,-75.5 98,-56.5 0,-56.5"/>
<text text-anchor="middle" x="49" y="-63.5" font-family="Helvetica,sans-Serif" font-size="10.00">io/configreader.hpp</text>
</a>
</g>
</g>
<!-- Node4&#45;&gt;Node18 -->
<g id="edge40" class="edge">
<title>Node4&#45;&gt;Node18</title>
<path fill="none" stroke="midnightblue" d="M674.84,-118.53C566.01,-113.33 316.03,-99.73 107,-76 104.06,-75.67 101.05,-75.29 98.01,-74.89"/>
<polygon fill="midnightblue" stroke="midnightblue" points="674.78,-122.04 684.93,-119.01 675.11,-115.04 674.78,-122.04"/>
</g>
<!-- Node19 -->
<g id="node19" class="node">
<title>Node19</title>
<g id="a_node19"><a xlink:href="csvwriter_8hpp.html" target="_top" xlink:title="IO::write_csv source file.">
<polygon fill="none" stroke="black" points="116.5,-56.5 116.5,-75.5 201.5,-75.5 201.5,-56.5 116.5,-56.5"/>
<text text-anchor="middle" x="159" y="-63.5" font-family="Helvetica,sans-Serif" font-size="10.00">io/csvwriter.hpp</text>
</a>
</g>
</g>
<!-- Node4&#45;&gt;Node19 -->
<g id="edge42" class="edge">
<title>Node4&#45;&gt;Node19</title>
<path fill="none" stroke="midnightblue" d="M674.71,-115.94C585.24,-107.73 403.18,-90.92 249,-76 233.53,-74.5 216.56,-72.82 201.57,-71.31"/>
<polygon fill="midnightblue" stroke="midnightblue" points="674.62,-119.45 684.9,-116.88 675.26,-112.48 674.62,-119.45"/>
</g>
<!-- Node20 -->
<g id="node20" class="node">
<title>Node20</title>
<g id="a_node20"><a xlink:href="jsonwriter_8hpp.html" target="_top" xlink:title="IO::write_json source file.">
<polygon fill="none" stroke="black" points="258.5,-56.5 258.5,-75.5 345.5,-75.5 345.5,-56.5 258.5,-56.5"/>
<text text-anchor="middle" x="302" y="-63.5" font-family="Helvetica,sans-Serif" font-size="10.00">io/jsonwriter.hpp</text>
</a>
</g>
</g>
<!-- Node4&#45;&gt;Node20 -->
<g id="edge44" class="edge">
<title>Node4&#45;&gt;Node20</title>
<path fill="none" stroke="midnightblue" d="M674.49,-114C588.27,-103.12 423.99,-82.39 345.65,-72.51"/>
<polygon fill="midnightblue" stroke="midnightblue" points="674.24,-117.49 684.6,-115.27 675.12,-110.55 674.24,-117.49"/>
</g>
<!-- Node5&#45;&gt;Node2 -->
<g id="edge6" class="edge">
<title>Node5&#45;&gt;Node2</title>
<path fill="none" stroke="midnightblue" d="M891.61,-85.14C884.04,-109.97 874.51,-155.18 892,-188 901.29,-205.44 920.67,-217.32 936.21,-224.47"/>
<polygon fill="midnightblue" stroke="midnightblue" points="894.96,-86.16 894.75,-75.57 888.31,-83.98 894.96,-86.16"/>
</g>
<!-- Node5&#45;&gt;Node3 -->
<g id="edge7" class="edge">
<title>Node5&#45;&gt;Node3</title>
<path fill="none" stroke="midnightblue" d="M907.77,-84.63C921.04,-108.55 944.24,-150.38 954.21,-168.37"/>
<polygon fill="midnightblue" stroke="midnightblue" points="910.67,-82.64 902.76,-75.59 904.55,-86.03 910.67,-82.64"/>
</g>
<!-- Node5&#45;&gt;Node4 -->
<g id="edge15" class="edge">
<title>Node5&#45;&gt;Node4</title>
<path fill="none" stroke="midnightblue" d="M867.03,-78.78C837.03,-88.94 791.96,-103.36 761.71,-112.44"/>
<polygon fill="midnightblue" stroke="midnightblue" points="868.25,-82.06 876.58,-75.52 865.99,-75.44 868.25,-82.06"/>
</g>
<!-- Node5&#45;&gt;Node6 -->
<g id="edge5" class="edge">
<title>Node5&#45;&gt;Node6</title>
<path fill="none" stroke="midnightblue" d="M823.88,-63.88C703.6,-61.15 458.73,-51.82 254,-20 251.13,-19.55 248.15,-18.99 245.18,-18.37"/>
<polygon fill="midnightblue" stroke="midnightblue" points="824,-67.38 834.07,-64.1 824.15,-60.38 824,-67.38"/>
</g>
<!-- Node5&#45;&gt;Node7 -->
<g id="edge8" class="edge">
<title>Node5&#45;&gt;Node7</title>
<path fill="none" stroke="midnightblue" d="M936.53,-53.57C970.86,-43.38 1020.33,-28.7 1051.3,-19.52"/>
<polygon fill="midnightblue" stroke="midnightblue" points="935.43,-50.24 926.84,-56.44 937.42,-56.95 935.43,-50.24"/>
</g>
<!-- Node5&#45;&gt;Node8 -->
<g id="edge9" class="edge">
<title>Node5&#45;&gt;Node8</title>
<path fill="none" stroke="midnightblue" d="M963.36,-54.92C1029.48,-44.71 1130.57,-29.12 1192.8,-19.52"/>
<polygon fill="midnightblue" stroke="midnightblue" points="962.81,-51.46 953.46,-56.44 963.88,-58.38 962.81,-51.46"/>
</g>
<!-- Node5&#45;&gt;Node9 -->
<g id="edge10" class="edge">
<title>Node5&#45;&gt;Node9</title>
<path fill="none" stroke="midnightblue" d="M971.75,-55.95C1056.19,-46.82 1235.78,-29.65 1344.56,-19.34"/>
<polygon fill="midnightblue" stroke="midnightblue" points="971.25,-52.48 961.69,-57.05 972.01,-59.44 971.25,-52.48"/>
</g>
<!-- Node5&#45;&gt;Node10 -->
<g id="edge11" class="edge">
<title>Node5&#45;&gt;Node10</title>
<path fill="none" stroke="midnightblue" d="M874.76,-50.9C858.44,-41 837.13,-28.07 823.26,-19.65"/>
<polygon fill="midnightblue" stroke="midnightblue" points="873.34,-54.13 883.7,-56.32 876.97,-48.14 873.34,-54.13"/>
</g>
<!-- Node5&#45;&gt;Node11 -->
<g id="edge13" class="edge">
<title>Node5&#45;&gt;Node11</title>
<path fill="none" stroke="midnightblue" d="M911.73,-48.14C919.4,-38.74 928.63,-27.4 934.87,-19.75"/>
<polygon fill="midnightblue" stroke="midnightblue" points="908.87,-46.12 905.27,-56.08 914.3,-50.54 908.87,-46.12"/>
</g>
<!-- Node5&#45;&gt;Node12 -->
<g id="edge16" class="edge">
<title>Node5&#45;&gt;Node12</title>
<path fill="none" stroke="midnightblue" d="M826.08,-55.04C752.42,-44.84 639.13,-29.16 569.51,-19.52"/>
<polygon fill="midnightblue" stroke="midnightblue" points="825.82,-58.54 836.2,-56.44 826.78,-51.6 825.82,-58.54"/>
</g>
<!-- Node5&#45;&gt;Node13 -->
<g id="edge18" class="edge">
<title>Node5&#45;&gt;Node13</title>
<path fill="none" stroke="midnightblue" d="M824.17,-58.24C730.91,-49.64 565.51,-34.21 424,-20 421.19,-19.72 418.34,-19.43 415.45,-19.13"/>
<polygon fill="midnightblue" stroke="midnightblue" points="824.07,-61.75 834.34,-59.18 824.71,-54.78 824.07,-61.75"/>
</g>
<!-- Node5&#45;&gt;Node14 -->
<g id="edge20" class="edge">
<title>Node5&#45;&gt;Node14</title>
<path fill="none" stroke="midnightblue" d="M971.75,-55.99C1220.57,-33.05 1285.48,-43.8 1530,-20 1533.01,-19.71 1536.08,-19.39 1539.19,-19.04"/>
<polygon fill="midnightblue" stroke="midnightblue" points="971.31,-52.52 961.68,-56.93 971.96,-59.49 971.31,-52.52"/>
</g>
<!-- Node5&#45;&gt;Node15 -->
<g id="edge22" class="edge">
<title>Node5&#45;&gt;Node15</title>
<path fill="none" stroke="midnightblue" d="M850.79,-54.15C806.39,-43.95 740.81,-28.88 700.06,-19.52"/>
<polygon fill="midnightblue" stroke="midnightblue" points="850.23,-57.62 860.76,-56.44 851.8,-50.79 850.23,-57.62"/>
</g>
<!-- Node10&#45;&gt;Node4 -->
<g id="edge12" class="edge">
<title>Node10&#45;&gt;Node4</title>
<path fill="none" stroke="midnightblue" d="M786.19,-25.41C775.2,-33.32 762.59,-43.95 754,-56 741.29,-73.83 734.52,-99.16 731.67,-112.31"/>
<polygon fill="midnightblue" stroke="midnightblue" points="788.27,-28.23 794.53,-19.69 784.31,-22.46 788.27,-28.23"/>
</g>
<!-- Node11&#45;&gt;Node4 -->
<g id="edge14" class="edge">
<title>Node11&#45;&gt;Node4</title>
<path fill="none" stroke="midnightblue" d="M904.67,-22.86C881.2,-30.92 850.63,-42.54 825,-56 792.62,-73 757.99,-98.91 740.87,-112.31"/>
<polygon fill="midnightblue" stroke="midnightblue" points="905.9,-26.14 914.26,-19.63 903.67,-19.51 905.9,-26.14"/>
</g>
<!-- Node12&#45;&gt;Node4 -->
<g id="edge17" class="edge">
<title>Node12&#45;&gt;Node4</title>
<path fill="none" stroke="midnightblue" d="M546.51,-22.75C571,-30.82 603.04,-42.48 630,-56 663.87,-72.99 700.42,-98.9 718.51,-112.3"/>
<polygon fill="midnightblue" stroke="midnightblue" points="547.45,-19.38 536.86,-19.63 545.3,-26.04 547.45,-19.38"/>
</g>
<!-- Node13&#45;&gt;Node4 -->
<g id="edge19" class="edge">
<title>Node13&#45;&gt;Node4</title>
<path fill="none" stroke="midnightblue" d="M413.91,-20.92C477.77,-29.96 564.27,-43.73 597,-56 613.06,-62.02 614.82,-68.02 630,-76 656.63,-89.99 688.48,-103.85 708.96,-112.42"/>
<polygon fill="midnightblue" stroke="midnightblue" points="414.25,-17.44 403.86,-19.52 413.28,-24.37 414.25,-17.44"/>
</g>
<!-- Node14&#45;&gt;Node4 -->
<g id="edge21" class="edge">
<title>Node14&#45;&gt;Node4</title>
<path fill="none" stroke="midnightblue" d="M1529.01,-20.91C1435.59,-34.04 1264.97,-57.68 1119,-76 994.71,-91.6 847.83,-108.06 775.25,-116.05"/>
<polygon fill="midnightblue" stroke="midnightblue" points="1529.77,-24.34 1539.18,-19.48 1528.79,-17.41 1529.77,-24.34"/>
</g>
<!-- Node15&#45;&gt;Node4 -->
<g id="edge23" class="edge">
<title>Node15&#45;&gt;Node4</title>
<path fill="none" stroke="midnightblue" d="M673.54,-28.31C688.08,-52.18 713.73,-94.3 724.74,-112.37"/>
<polygon fill="midnightblue" stroke="midnightblue" points="676.42,-26.31 668.23,-19.59 670.45,-29.95 676.42,-26.31"/>
</g>
<!-- Node16&#45;&gt;Node6 -->
<g id="edge25" class="edge">
<title>Node16&#45;&gt;Node6</title>
<path fill="none" stroke="midnightblue" d="M468.07,-56.01C411.36,-47.8 326.93,-34.73 254,-20 251.15,-19.42 248.18,-18.78 245.23,-18.11"/>
<polygon fill="midnightblue" stroke="midnightblue" points="467.58,-59.47 477.98,-57.43 468.58,-52.54 467.58,-59.47"/>
</g>
<!-- Node17&#45;&gt;Node2 -->
<g id="edge28" class="edge">
<title>Node17&#45;&gt;Node2</title>
<path fill="none" stroke="midnightblue" d="M1046.49,-85.8C1047.56,-111.06 1046.12,-156.44 1026,-188 1015.15,-205.01 995.31,-217.13 980.02,-224.47"/>
<polygon fill="midnightblue" stroke="midnightblue" points="1049.98,-85.5 1045.88,-75.73 1042.99,-85.92 1049.98,-85.5"/>
</g>
<!-- Node17&#45;&gt;Node3 -->
<g id="edge29" class="edge">
<title>Node17&#45;&gt;Node3</title>
<path fill="none" stroke="midnightblue" d="M1031.96,-83.68C1013.39,-107.43 980,-150.14 965.75,-168.37"/>
<polygon fill="midnightblue" stroke="midnightblue" points="1034.88,-85.63 1038.28,-75.59 1029.37,-81.31 1034.88,-85.63"/>
</g>
<!-- Node17&#45;&gt;Node4 -->
<g id="edge35" class="edge">
<title>Node17&#45;&gt;Node4</title>
<path fill="none" stroke="midnightblue" d="M990.17,-77.33C929.21,-88.12 832.04,-104.73 775.24,-114.05"/>
<polygon fill="midnightblue" stroke="midnightblue" points="991.13,-80.72 1000.37,-75.52 989.91,-73.82 991.13,-80.72"/>
</g>
<!-- Node17&#45;&gt;Node6 -->
<g id="edge27" class="edge">
<title>Node17&#45;&gt;Node6</title>
<path fill="none" stroke="midnightblue" d="M969.69,-55.95C651.37,-29.48 566.51,-65.44 254,-20 251.12,-19.58 248.14,-19.04 245.17,-18.43"/>
<polygon fill="midnightblue" stroke="midnightblue" points="969.4,-59.44 979.66,-56.8 969.99,-52.47 969.4,-59.44"/>
</g>
<!-- Node17&#45;&gt;Node7 -->
<g id="edge30" class="edge">
<title>Node17&#45;&gt;Node7</title>
<path fill="none" stroke="midnightblue" d="M1056.3,-47.57C1062.32,-38.27 1069.47,-27.25 1074.33,-19.75"/>
<polygon fill="midnightblue" stroke="midnightblue" points="1053.28,-45.79 1050.78,-56.08 1059.16,-49.6 1053.28,-45.79"/>
</g>
<!-- Node17&#45;&gt;Node8 -->
<g id="edge31" class="edge">
<title>Node17&#45;&gt;Node8</title>
<path fill="none" stroke="midnightblue" d="M1086.99,-53.83C1125.32,-43.63 1181.15,-28.78 1215.98,-19.52"/>
<polygon fill="midnightblue" stroke="midnightblue" points="1085.93,-50.49 1077.17,-56.44 1087.73,-57.26 1085.93,-50.49"/>
</g>
<!-- Node17&#45;&gt;Node9 -->
<g id="edge32" class="edge">
<title>Node17&#45;&gt;Node9</title>
<path fill="none" stroke="midnightblue" d="M1116.55,-55.04C1189.83,-44.84 1302.54,-29.16 1371.81,-19.52"/>
<polygon fill="midnightblue" stroke="midnightblue" points="1115.9,-51.6 1106.48,-56.44 1116.87,-58.53 1115.9,-51.6"/>
</g>
<!-- Node17&#45;&gt;Node10 -->
<g id="edge33" class="edge">
<title>Node17&#45;&gt;Node10</title>
<path fill="none" stroke="midnightblue" d="M997.59,-54.15C953,-43.95 887.15,-28.88 846.22,-19.52"/>
<polygon fill="midnightblue" stroke="midnightblue" points="997.08,-57.62 1007.61,-56.44 998.64,-50.8 997.08,-57.62"/>
</g>
<!-- Node17&#45;&gt;Node11 -->
<g id="edge34" class="edge">
<title>Node17&#45;&gt;Node11</title>
<path fill="none" stroke="midnightblue" d="M1019.42,-51.59C1000.38,-41.61 974.94,-28.27 958.51,-19.65"/>
<polygon fill="midnightblue" stroke="midnightblue" points="1017.97,-54.78 1028.45,-56.32 1021.22,-48.58 1017.97,-54.78"/>
</g>
<!-- Node17&#45;&gt;Node12 -->
<g id="edge36" class="edge">
<title>Node17&#45;&gt;Node12</title>
<path fill="none" stroke="midnightblue" d="M969.68,-55.88C801.12,-37.75 757.14,-36.69 592,-20 589.08,-19.71 586.11,-19.4 583.1,-19.09"/>
<polygon fill="midnightblue" stroke="midnightblue" points="969.32,-59.36 979.64,-56.96 970.07,-52.4 969.32,-59.36"/>
</g>
<!-- Node17&#45;&gt;Node13 -->
<g id="edge37" class="edge">
<title>Node17&#45;&gt;Node13</title>
<path fill="none" stroke="midnightblue" d="M969.45,-55.9C726.7,-33.48 663.43,-40.55 424,-20 421.19,-19.76 418.33,-19.5 415.44,-19.24"/>
<polygon fill="midnightblue" stroke="midnightblue" points="969.37,-59.41 979.65,-56.85 970.02,-52.44 969.37,-59.41"/>
</g>
<!-- Node17&#45;&gt;Node14 -->
<g id="edge38" class="edge">
<title>Node17&#45;&gt;Node14</title>
<path fill="none" stroke="midnightblue" d="M1120.32,-58.88C1215.76,-50.94 1385.26,-36.15 1530,-20 1533,-19.67 1536.07,-19.31 1539.18,-18.94"/>
<polygon fill="midnightblue" stroke="midnightblue" points="1119.87,-55.41 1110.19,-59.73 1120.45,-62.39 1119.87,-55.41"/>
</g>
<!-- Node17&#45;&gt;Node15 -->
<g id="edge39" class="edge">
<title>Node17&#45;&gt;Node15</title>
<path fill="none" stroke="midnightblue" d="M974.56,-55.04C902.41,-44.84 791.44,-29.16 723.25,-19.52"/>
<polygon fill="midnightblue" stroke="midnightblue" points="974.08,-58.51 984.47,-56.44 975.06,-51.58 974.08,-58.51"/>
</g>
<!-- Node18&#45;&gt;Node6 -->
<g id="edge41" class="edge">
<title>Node18&#45;&gt;Node6</title>
<path fill="none" stroke="midnightblue" d="M85.39,-53.3C117.04,-43.13 162.17,-28.62 190.5,-19.52"/>
<polygon fill="midnightblue" stroke="midnightblue" points="84.07,-50.05 75.62,-56.44 86.21,-56.72 84.07,-50.05"/>
</g>
<!-- Node19&#45;&gt;Node6 -->
<g id="edge43" class="edge">
<title>Node19&#45;&gt;Node6</title>
<path fill="none" stroke="midnightblue" d="M175.91,-49.25C186.2,-39.67 198.97,-27.79 207.51,-19.83"/>
<polygon fill="midnightblue" stroke="midnightblue" points="173.25,-46.95 168.32,-56.32 178.02,-52.07 173.25,-46.95"/>
</g>
<!-- Node20&#45;&gt;Node6 -->
<g id="edge45" class="edge">
<title>Node20&#45;&gt;Node6</title>
<path fill="none" stroke="midnightblue" d="M279.81,-50.9C264.22,-41 243.87,-28.07 230.62,-19.65"/>
<polygon fill="midnightblue" stroke="midnightblue" points="278.03,-53.92 288.34,-56.32 281.78,-48.01 278.03,-53.92"/>
</g>
</g>
</svg>
