<?xml version="1.0" encoding="UTF-8" standalone="no"?>
<!DOCTYPE svg PUBLIC "-//W3C//DTD SVG 1.1//EN"
 "http://www.w3.org/Graphics/SVG/1.1/DTD/svg11.dtd">
<!-- Generated by graphviz version 3.0.0 (20220413.0242)
 -->
<!-- Title: model/openloopcoronarybc.hpp Pages: 1 -->
<svg width="1108pt" height="420pt"
 viewBox="0.00 0.00 1107.71 420.00" xmlns="http://www.w3.org/2000/svg" xmlns:xlink="http://www.w3.org/1999/xlink">
<g id="graph0" class="graph" transform="scale(1 1) rotate(0) translate(4 416)">
<title>model/openloopcoronarybc.hpp</title>
<!-- Node1 -->
<g id="node1" class="node">
<title>Node1</title>
<g id="a_node1"><a xlink:title="MODEL::OpenLoopCoronaryBC source file.">
<polygon fill="#bfbfbf" stroke="black" points="416,-392.5 416,-411.5 566,-411.5 566,-392.5 416,-392.5"/>
<text text-anchor="middle" x="491" y="-399.5" font-family="Helvetica,sans-Serif" font-size="10.00">model/openloopcoronarybc.hpp</text>
</a>
</g>
</g>
<!-- Node2 -->
<g id="node2" class="node">
<title>Node2</title>
<g id="a_node2"><a xlink:href="densesystem_8hpp.html" target="_top" xlink:title="ALGEBRA::DenseSystem source file.">
<polygon fill="none" stroke="black" points="424,-336.5 424,-355.5 558,-355.5 558,-336.5 424,-336.5"/>
<text text-anchor="middle" x="491" y="-343.5" font-family="Helvetica,sans-Serif" font-size="10.00">../algebra/densesystem.hpp</text>
</a>
</g>
</g>
<!-- Node1&#45;&gt;Node2 -->
<g id="edge1" class="edge">
<title>Node1&#45;&gt;Node2</title>
<path fill="none" stroke="midnightblue" d="M491,-392.08C491,-385.01 491,-374.86 491,-365.99"/>
<polygon fill="midnightblue" stroke="midnightblue" points="494.5,-365.75 491,-355.75 487.5,-365.75 494.5,-365.75"/>
</g>
<!-- Node8 -->
<g id="node8" class="node">
<title>Node8</title>
<g id="a_node8"><a xlink:href="sparsesystem_8hpp.html" target="_top" xlink:title="ALGEBRA::SparseSystem source file.">
<polygon fill="none" stroke="black" points="538.5,-112.5 538.5,-131.5 675.5,-131.5 675.5,-112.5 538.5,-112.5"/>
<text text-anchor="middle" x="607" y="-119.5" font-family="Helvetica,sans-Serif" font-size="10.00">../algebra/sparsesystem.hpp</text>
</a>
</g>
</g>
<!-- Node1&#45;&gt;Node8 -->
<g id="edge58" class="edge">
<title>Node1&#45;&gt;Node8</title>
<path fill="none" stroke="midnightblue" d="M554.17,-392.47C685.56,-373.3 980.98,-322.26 1040,-244 1045.35,-236.9 1045.49,-230.99 1040,-224 1034,-216.36 769.28,-158.19 656.77,-133.76"/>
<polygon fill="midnightblue" stroke="midnightblue" points="657.2,-130.27 646.69,-131.57 655.72,-137.11 657.2,-130.27"/>
</g>
<!-- Node13 -->
<g id="node13" class="node">
<title>Node13</title>
<g id="a_node13"><a xlink:href="block_8hpp.html" target="_top" xlink:title="MODEL::Block source file.">
<polygon fill="none" stroke="black" points="405,-168.5 405,-187.5 463,-187.5 463,-168.5 405,-168.5"/>
<text text-anchor="middle" x="434" y="-175.5" font-family="Helvetica,sans-Serif" font-size="10.00">block.hpp</text>
</a>
</g>
</g>
<!-- Node1&#45;&gt;Node13 -->
<g id="edge59" class="edge">
<title>Node1&#45;&gt;Node13</title>
<path fill="none" stroke="midnightblue" d="M429.32,-392.5C350.36,-377.87 217.06,-339.65 161,-244 156.51,-236.33 155.25,-230.78 161,-224 190.5,-189.24 326.38,-181.28 394.64,-179.5"/>
<polygon fill="midnightblue" stroke="midnightblue" points="395.07,-182.99 404.99,-179.26 394.91,-175.99 395.07,-182.99"/>
</g>
<!-- Node21 -->
<g id="node21" class="node">
<title>Node21</title>
<g id="a_node21"><a xlink:href="timedependentparameter_8hpp.html" target="_top" xlink:title="MODEL::TimeDependentParameter source file.">
<polygon fill="none" stroke="black" points="914,-168.5 914,-187.5 1056,-187.5 1056,-168.5 914,-168.5"/>
<text text-anchor="middle" x="985" y="-175.5" font-family="Helvetica,sans-Serif" font-size="10.00">timedependentparameter.hpp</text>
</a>
</g>
</g>
<!-- Node1&#45;&gt;Node21 -->
<g id="edge60" class="edge">
<title>Node1&#45;&gt;Node21</title>
<path fill="none" stroke="midnightblue" d="M566.08,-400.75C715.62,-399.47 1039.25,-392.47 1073,-356 1112.85,-312.95 1103.62,-274.04 1073,-224 1063.49,-208.46 1046.74,-198.07 1030.38,-191.23"/>
<polygon fill="midnightblue" stroke="midnightblue" points="1031.44,-187.89 1020.85,-187.6 1028.95,-194.43 1031.44,-187.89"/>
</g>
<!-- Node3 -->
<g id="node3" class="node">
<title>Node3</title>
<g id="a_node3"><a xlink:title=" ">
<polygon fill="none" stroke="#bfbfbf" points="538.5,-280.5 538.5,-299.5 609.5,-299.5 609.5,-280.5 538.5,-280.5"/>
<text text-anchor="middle" x="574" y="-287.5" font-family="Helvetica,sans-Serif" font-size="10.00">Eigen/Dense</text>
</a>
</g>
</g>
<!-- Node2&#45;&gt;Node3 -->
<g id="edge2" class="edge">
<title>Node2&#45;&gt;Node3</title>
<path fill="none" stroke="midnightblue" d="M504.34,-336.32C517.16,-327.98 536.78,-315.21 551.94,-305.35"/>
<polygon fill="midnightblue" stroke="midnightblue" points="554.22,-308.04 560.7,-299.65 550.41,-302.17 554.22,-308.04"/>
</g>
<!-- Node4 -->
<g id="node4" class="node">
<title>Node4</title>
<g id="a_node4"><a xlink:href="model_8hpp.html" target="_top" xlink:title="MODEL::Model source file.">
<polygon fill="none" stroke="black" points="270,-280.5 270,-299.5 368,-299.5 368,-280.5 270,-280.5"/>
<text text-anchor="middle" x="319" y="-287.5" font-family="Helvetica,sans-Serif" font-size="10.00">../model/model.hpp</text>
</a>
</g>
</g>
<!-- Node2&#45;&gt;Node4 -->
<g id="edge3" class="edge">
<title>Node2&#45;&gt;Node4</title>
<path fill="none" stroke="midnightblue" d="M458.66,-336.44C427.73,-327.36 381.6,-312.94 350.84,-302.78"/>
<polygon fill="midnightblue" stroke="midnightblue" points="351.64,-299.36 341.05,-299.52 349.43,-306 351.64,-299.36"/>
</g>
<!-- Node4&#45;&gt;Node1 -->
<g id="edge57" class="edge">
<title>Node4&#45;&gt;Node1</title>
<path fill="none" stroke="midnightblue" d="M331.27,-299.66C349.37,-312.35 384.4,-336.61 415,-356 432.27,-366.94 452.16,-378.69 467.27,-387.44"/>
<polygon fill="midnightblue" stroke="midnightblue" points="465.57,-390.51 475.98,-392.47 469.07,-384.44 465.57,-390.51"/>
</g>
<!-- Node4&#45;&gt;Node2 -->
<g id="edge7" class="edge">
<title>Node4&#45;&gt;Node2</title>
<path fill="none" stroke="midnightblue" d="M351.21,-299.52C382.09,-308.59 428.22,-323 459.02,-333.17"/>
<polygon fill="midnightblue" stroke="midnightblue" points="458.24,-336.6 468.83,-336.44 460.46,-329.96 458.24,-336.6"/>
</g>
<!-- Node5 -->
<g id="node5" class="node">
<title>Node5</title>
<g id="a_node5"><a xlink:title=" ">
<polygon fill="none" stroke="#bfbfbf" points="174.5,-112.5 174.5,-131.5 209.5,-131.5 209.5,-112.5 174.5,-112.5"/>
<text text-anchor="middle" x="192" y="-119.5" font-family="Helvetica,sans-Serif" font-size="10.00">map</text>
</a>
</g>
</g>
<!-- Node4&#45;&gt;Node5 -->
<g id="edge4" class="edge">
<title>Node4&#45;&gt;Node5</title>
<path fill="none" stroke="midnightblue" d="M269.64,-281.54C228.37,-274.17 174.19,-261.47 161,-244 137.36,-212.69 162.61,-165.22 179.46,-140.05"/>
<polygon fill="midnightblue" stroke="midnightblue" points="182.52,-141.78 185.38,-131.58 176.78,-137.77 182.52,-141.78"/>
</g>
<!-- Node6 -->
<g id="node6" class="node">
<title>Node6</title>
<g id="a_node6"><a xlink:title=" ">
<polygon fill="none" stroke="#bfbfbf" points="170.5,-224.5 170.5,-243.5 199.5,-243.5 199.5,-224.5 170.5,-224.5"/>
<text text-anchor="middle" x="185" y="-231.5" font-family="Helvetica,sans-Serif" font-size="10.00">list</text>
</a>
</g>
</g>
<!-- Node4&#45;&gt;Node6 -->
<g id="edge5" class="edge">
<title>Node4&#45;&gt;Node6</title>
<path fill="none" stroke="midnightblue" d="M297.77,-280.44C273.64,-270.72 234.34,-254.88 209.09,-244.71"/>
<polygon fill="midnightblue" stroke="midnightblue" points="210.11,-241.35 199.53,-240.85 207.49,-247.84 210.11,-241.35"/>
</g>
<!-- Node7 -->
<g id="node7" class="node">
<title>Node7</title>
<g id="a_node7"><a xlink:title=" ">
<polygon fill="none" stroke="#bfbfbf" points="218,-224.5 218,-243.5 264,-243.5 264,-224.5 218,-224.5"/>
<text text-anchor="middle" x="241" y="-231.5" font-family="Helvetica,sans-Serif" font-size="10.00">variant</text>
</a>
</g>
</g>
<!-- Node4&#45;&gt;Node7 -->
<g id="edge6" class="edge">
<title>Node4&#45;&gt;Node7</title>
<path fill="none" stroke="midnightblue" d="M306.47,-280.32C294.41,-271.98 275.97,-259.21 261.73,-249.35"/>
<polygon fill="midnightblue" stroke="midnightblue" points="263.72,-246.47 253.5,-243.65 259.73,-252.22 263.72,-246.47"/>
</g>
<!-- Node4&#45;&gt;Node8 -->
<g id="edge8" class="edge">
<title>Node4&#45;&gt;Node8</title>
<path fill="none" stroke="midnightblue" d="M312.93,-280.13C309.85,-267.17 311.23,-242.59 320,-224 334.23,-193.82 341.02,-184.53 370,-168 417.93,-140.66 479.73,-129.69 528.26,-125.4"/>
<polygon fill="midnightblue" stroke="midnightblue" points="528.72,-128.87 538.41,-124.58 528.16,-121.9 528.72,-128.87"/>
</g>
<!-- Node12 -->
<g id="node12" class="node">
<title>Node12</title>
<g id="a_node12"><a xlink:href="junction_8hpp.html" target="_top" xlink:title="MODEL::Junction source file.">
<polygon fill="none" stroke="black" points="338,-224.5 338,-243.5 406,-243.5 406,-224.5 338,-224.5"/>
<text text-anchor="middle" x="372" y="-231.5" font-family="Helvetica,sans-Serif" font-size="10.00">junction.hpp</text>
</a>
</g>
</g>
<!-- Node4&#45;&gt;Node12 -->
<g id="edge13" class="edge">
<title>Node4&#45;&gt;Node12</title>
<path fill="none" stroke="midnightblue" d="M327.75,-280.08C335.47,-272.22 346.9,-260.57 356.22,-251.08"/>
<polygon fill="midnightblue" stroke="midnightblue" points="358.9,-253.34 363.41,-243.75 353.91,-248.44 358.9,-253.34"/>
</g>
<!-- Node15 -->
<g id="node15" class="node">
<title>Node15</title>
<g id="a_node15"><a xlink:href="node_8hpp.html" target="_top" xlink:title="MODEL::Node source file.">
<polygon fill="none" stroke="black" points="0,-112.5 0,-131.5 56,-131.5 56,-112.5 0,-112.5"/>
<text text-anchor="middle" x="28" y="-119.5" font-family="Helvetica,sans-Serif" font-size="10.00">node.hpp</text>
</a>
</g>
</g>
<!-- Node4&#45;&gt;Node15 -->
<g id="edge33" class="edge">
<title>Node4&#45;&gt;Node15</title>
<path fill="none" stroke="midnightblue" d="M269.83,-287.22C201.35,-283.69 82.26,-273.4 52,-244 24.44,-217.22 23.72,-168.53 25.76,-141.81"/>
<polygon fill="midnightblue" stroke="midnightblue" points="29.28,-141.82 26.77,-131.53 22.31,-141.14 29.28,-141.82"/>
</g>
<!-- Node17 -->
<g id="node17" class="node">
<title>Node17</title>
<g id="a_node17"><a xlink:href="dofhandler_8hpp.html" target="_top" xlink:title="MODEL::DOFHandler source file.">
<polygon fill="none" stroke="black" points="259,-56.5 259,-75.5 339,-75.5 339,-56.5 259,-56.5"/>
<text text-anchor="middle" x="299" y="-63.5" font-family="Helvetica,sans-Serif" font-size="10.00">dofhandler.hpp</text>
</a>
</g>
</g>
<!-- Node4&#45;&gt;Node17 -->
<g id="edge32" class="edge">
<title>Node4&#45;&gt;Node17</title>
<path fill="none" stroke="midnightblue" d="M269.8,-282.67C225.02,-275.77 163.71,-263.11 149,-244 112.95,-197.17 125.26,-155.74 165,-112 186.31,-88.54 220.22,-77.3 248.59,-71.92"/>
<polygon fill="midnightblue" stroke="midnightblue" points="249.49,-75.32 258.76,-70.19 248.32,-68.41 249.49,-75.32"/>
</g>
<!-- Node18 -->
<g id="node18" class="node">
<title>Node18</title>
<g id="a_node18"><a xlink:href="bloodvessel_8hpp.html" target="_top" xlink:title="MODEL::BloodVessel source file.">
<polygon fill="none" stroke="black" points="574,-224.5 574,-243.5 660,-243.5 660,-224.5 574,-224.5"/>
<text text-anchor="middle" x="617" y="-231.5" font-family="Helvetica,sans-Serif" font-size="10.00">bloodvessel.hpp</text>
</a>
</g>
</g>
<!-- Node4&#45;&gt;Node18 -->
<g id="edge27" class="edge">
<title>Node4&#45;&gt;Node18</title>
<path fill="none" stroke="midnightblue" d="M366.22,-280.44C419.99,-270.7 507.62,-254.82 563.77,-244.65"/>
<polygon fill="midnightblue" stroke="midnightblue" points="564.66,-248.04 573.87,-242.82 563.41,-241.15 564.66,-248.04"/>
</g>
<!-- Node20 -->
<g id="node20" class="node">
<title>Node20</title>
<g id="a_node20"><a xlink:href="flowreferencebc_8hpp.html" target="_top" xlink:title="MODEL::FlowReferenceBC source file.">
<polygon fill="none" stroke="black" points="678.5,-224.5 678.5,-243.5 781.5,-243.5 781.5,-224.5 678.5,-224.5"/>
<text text-anchor="middle" x="730" y="-231.5" font-family="Helvetica,sans-Serif" font-size="10.00">flowreferencebc.hpp</text>
</a>
</g>
</g>
<!-- Node4&#45;&gt;Node20 -->
<g id="edge34" class="edge">
<title>Node4&#45;&gt;Node20</title>
<path fill="none" stroke="midnightblue" d="M368.02,-282.99C433.83,-274.86 554.64,-259.7 668.49,-244.05"/>
<polygon fill="midnightblue" stroke="midnightblue" points="669,-247.51 678.42,-242.68 668.04,-240.58 669,-247.51"/>
</g>
<!-- Node23 -->
<g id="node23" class="node">
<title>Node23</title>
<g id="a_node23"><a xlink:href="pressurereferencebc_8hpp.html" target="_top" xlink:title="MODEL::PressureReferenceBC source file.">
<polygon fill="none" stroke="black" points="799.5,-224.5 799.5,-243.5 922.5,-243.5 922.5,-224.5 799.5,-224.5"/>
<text text-anchor="middle" x="861" y="-231.5" font-family="Helvetica,sans-Serif" font-size="10.00">pressurereferencebc.hpp</text>
</a>
</g>
</g>
<!-- Node4&#45;&gt;Node23 -->
<g id="edge43" class="edge">
<title>Node4&#45;&gt;Node23</title>
<path fill="none" stroke="midnightblue" d="M368.32,-284.83C452.5,-277.61 629.55,-261.9 789.17,-244.18"/>
<polygon fill="midnightblue" stroke="midnightblue" points="789.63,-247.65 799.18,-243.06 788.85,-240.69 789.63,-247.65"/>
</g>
<!-- Node24 -->
<g id="node24" class="node">
<title>Node24</title>
<g id="a_node24"><a xlink:href="windkesselbc_8hpp.html" target="_top" xlink:title="MODEL::WindkesselBC source file.">
<polygon fill="none" stroke="black" points="462,-224.5 462,-243.5 556,-243.5 556,-224.5 462,-224.5"/>
<text text-anchor="middle" x="509" y="-231.5" font-family="Helvetica,sans-Serif" font-size="10.00">windkesselbc.hpp</text>
</a>
</g>
</g>
<!-- Node4&#45;&gt;Node24 -->
<g id="edge48" class="edge">
<title>Node4&#45;&gt;Node24</title>
<path fill="none" stroke="midnightblue" d="M349.11,-280.44C381.63,-271.2 433.58,-256.44 469.39,-246.26"/>
<polygon fill="midnightblue" stroke="midnightblue" points="470.37,-249.62 479.03,-243.52 468.46,-242.88 470.37,-249.62"/>
</g>
<!-- Node25 -->
<g id="node25" class="node">
<title>Node25</title>
<g id="a_node25"><a xlink:href="resistancebc_8hpp.html" target="_top" xlink:title="MODEL::ResistanceBC source file.">
<polygon fill="none" stroke="black" points="941,-224.5 941,-243.5 1031,-243.5 1031,-224.5 941,-224.5"/>
<text text-anchor="middle" x="986" y="-231.5" font-family="Helvetica,sans-Serif" font-size="10.00">resistancebc.hpp</text>
</a>
</g>
</g>
<!-- Node4&#45;&gt;Node25 -->
<g id="edge52" class="edge">
<title>Node4&#45;&gt;Node25</title>
<path fill="none" stroke="midnightblue" d="M368.02,-286.93C470.52,-282.28 715.2,-269.44 930.72,-244.04"/>
<polygon fill="midnightblue" stroke="midnightblue" points="931.45,-247.48 940.96,-242.82 930.62,-240.53 931.45,-247.48"/>
</g>
<!-- Node8&#45;&gt;Node4 -->
<g id="edge12" class="edge">
<title>Node8&#45;&gt;Node4</title>
<path fill="none" stroke="midnightblue" d="M538.41,-125.9C493.21,-130.51 434.17,-141.66 388,-168 359.02,-184.53 352.23,-193.82 338,-224 331.15,-238.52 328.81,-256.7 326.6,-270.14"/>
<polygon fill="midnightblue" stroke="midnightblue" points="323.13,-269.65 324.67,-280.13 330,-270.97 323.13,-269.65"/>
</g>
<!-- Node9 -->
<g id="node9" class="node">
<title>Node9</title>
<g id="a_node9"><a xlink:title=" ">
<polygon fill="none" stroke="#bfbfbf" points="471,-56.5 471,-75.5 545,-75.5 545,-56.5 471,-56.5"/>
<text text-anchor="middle" x="508" y="-63.5" font-family="Helvetica,sans-Serif" font-size="10.00">Eigen/Sparse</text>
</a>
</g>
</g>
<!-- Node8&#45;&gt;Node9 -->
<g id="edge9" class="edge">
<title>Node8&#45;&gt;Node9</title>
<path fill="none" stroke="midnightblue" d="M591.09,-112.32C575.36,-103.74 551.06,-90.49 532.79,-80.52"/>
<polygon fill="midnightblue" stroke="midnightblue" points="534.32,-77.37 523.87,-75.65 530.97,-83.52 534.32,-77.37"/>
</g>
<!-- Node10 -->
<g id="node10" class="node">
<title>Node10</title>
<g id="a_node10"><a xlink:title=" ">
<polygon fill="none" stroke="#bfbfbf" points="563,-56.5 563,-75.5 651,-75.5 651,-56.5 563,-56.5"/>
<text text-anchor="middle" x="607" y="-63.5" font-family="Helvetica,sans-Serif" font-size="10.00">Eigen/SparseLU</text>
</a>
</g>
</g>
<!-- Node8&#45;&gt;Node10 -->
<g id="edge10" class="edge">
<title>Node8&#45;&gt;Node10</title>
<path fill="none" stroke="midnightblue" d="M607,-112.08C607,-105.01 607,-94.86 607,-85.99"/>
<polygon fill="midnightblue" stroke="midnightblue" points="610.5,-85.75 607,-75.75 603.5,-85.75 610.5,-85.75"/>
</g>
<!-- Node11 -->
<g id="node11" class="node">
<title>Node11</title>
<g id="a_node11"><a xlink:title=" ">
<polygon fill="none" stroke="#bfbfbf" points="669,-56.5 669,-75.5 723,-75.5 723,-56.5 669,-56.5"/>
<text text-anchor="middle" x="696" y="-63.5" font-family="Helvetica,sans-Serif" font-size="10.00">iostream</text>
</a>
</g>
</g>
<!-- Node8&#45;&gt;Node11 -->
<g id="edge11" class="edge">
<title>Node8&#45;&gt;Node11</title>
<path fill="none" stroke="midnightblue" d="M621.3,-112.32C635.18,-103.9 656.49,-90.97 672.8,-81.07"/>
<polygon fill="midnightblue" stroke="midnightblue" points="675,-83.83 681.74,-75.65 671.37,-77.85 675,-83.83"/>
</g>
<!-- Node12&#45;&gt;Node2 -->
<g id="edge14" class="edge">
<title>Node12&#45;&gt;Node2</title>
<path fill="none" stroke="midnightblue" d="M377.03,-243.79C384.94,-257.09 401.32,-282.6 420,-300 433.4,-312.48 450.73,-323.54 464.91,-331.57"/>
<polygon fill="midnightblue" stroke="midnightblue" points="463.25,-334.66 473.7,-336.4 466.62,-328.52 463.25,-334.66"/>
</g>
<!-- Node12&#45;&gt;Node8 -->
<g id="edge15" class="edge">
<title>Node12&#45;&gt;Node8</title>
<path fill="none" stroke="midnightblue" d="M372.61,-224.36C374.08,-210.32 379.08,-182.65 396,-168 415.78,-150.88 476.79,-139.04 528.16,-131.82"/>
<polygon fill="midnightblue" stroke="midnightblue" points="528.85,-135.26 538.29,-130.44 527.9,-128.32 528.85,-135.26"/>
</g>
<!-- Node12&#45;&gt;Node13 -->
<g id="edge16" class="edge">
<title>Node12&#45;&gt;Node13</title>
<path fill="none" stroke="midnightblue" d="M381.96,-224.32C391.13,-216.34 404.94,-204.31 416.03,-194.65"/>
<polygon fill="midnightblue" stroke="midnightblue" points="418.62,-197.04 423.86,-187.83 414.02,-191.76 418.62,-197.04"/>
</g>
<!-- Node13&#45;&gt;Node2 -->
<g id="edge25" class="edge">
<title>Node13&#45;&gt;Node2</title>
<path fill="none" stroke="midnightblue" d="M436.37,-187.9C439.78,-200.48 446.37,-224.15 453,-244 462.8,-273.37 475.79,-306.92 483.76,-327.01"/>
<polygon fill="midnightblue" stroke="midnightblue" points="480.57,-328.44 487.53,-336.43 487.07,-325.85 480.57,-328.44"/>
</g>
<!-- Node13&#45;&gt;Node5 -->
<g id="edge18" class="edge">
<title>Node13&#45;&gt;Node5</title>
<path fill="none" stroke="midnightblue" d="M404.81,-170.49C357.69,-159.97 265.52,-139.4 219.5,-129.14"/>
<polygon fill="midnightblue" stroke="midnightblue" points="220.15,-125.7 209.63,-126.93 218.63,-132.53 220.15,-125.7"/>
</g>
<!-- Node13&#45;&gt;Node8 -->
<g id="edge26" class="edge">
<title>Node13&#45;&gt;Node8</title>
<path fill="none" stroke="midnightblue" d="M461.41,-168.44C490.77,-159.28 537.52,-144.69 570.1,-134.52"/>
<polygon fill="midnightblue" stroke="midnightblue" points="571.21,-137.84 579.72,-131.52 569.13,-131.16 571.21,-137.84"/>
</g>
<!-- Node14 -->
<g id="node14" class="node">
<title>Node14</title>
<g id="a_node14"><a xlink:title=" ">
<polygon fill="none" stroke="#bfbfbf" points="412,-0.5 412,-19.5 456,-19.5 456,-0.5 412,-0.5"/>
<text text-anchor="middle" x="434" y="-7.5" font-family="Helvetica,sans-Serif" font-size="10.00">vector</text>
</a>
</g>
</g>
<!-- Node13&#45;&gt;Node14 -->
<g id="edge17" class="edge">
<title>Node13&#45;&gt;Node14</title>
<path fill="none" stroke="midnightblue" d="M434,-168.08C434,-141.95 434,-65.21 434,-29.58"/>
<polygon fill="midnightblue" stroke="midnightblue" points="437.5,-29.57 434,-19.57 430.5,-29.57 437.5,-29.57"/>
</g>
<!-- Node13&#45;&gt;Node15 -->
<g id="edge19" class="edge">
<title>Node13&#45;&gt;Node15</title>
<path fill="none" stroke="midnightblue" d="M404.8,-173.12C332.85,-163.55 147.02,-138.83 66.34,-128.1"/>
<polygon fill="midnightblue" stroke="midnightblue" points="66.5,-124.59 56.12,-126.74 65.58,-131.53 66.5,-124.59"/>
</g>
<!-- Node13&#45;&gt;Node17 -->
<g id="edge24" class="edge">
<title>Node13&#45;&gt;Node17</title>
<path fill="none" stroke="midnightblue" d="M423.41,-168.37C400.54,-149.73 346.29,-105.53 317.57,-82.13"/>
<polygon fill="midnightblue" stroke="midnightblue" points="319.51,-79.19 309.54,-75.59 315.09,-84.62 319.51,-79.19"/>
</g>
<!-- Node16 -->
<g id="node16" class="node">
<title>Node16</title>
<g id="a_node16"><a xlink:title=" ">
<polygon fill="none" stroke="#bfbfbf" points="177.5,-0.5 177.5,-19.5 218.5,-19.5 218.5,-0.5 177.5,-0.5"/>
<text text-anchor="middle" x="198" y="-7.5" font-family="Helvetica,sans-Serif" font-size="10.00">string</text>
</a>
</g>
</g>
<!-- Node15&#45;&gt;Node16 -->
<g id="edge20" class="edge">
<title>Node15&#45;&gt;Node16</title>
<path fill="none" stroke="midnightblue" d="M41.34,-112.37C70.51,-93.49 140.22,-48.38 176,-25.24"/>
<polygon fill="midnightblue" stroke="midnightblue" points="178.23,-27.96 184.72,-19.59 174.43,-22.09 178.23,-27.96"/>
</g>
<!-- Node15&#45;&gt;Node17 -->
<g id="edge21" class="edge">
<title>Node15&#45;&gt;Node17</title>
<path fill="none" stroke="midnightblue" d="M56,-114.93C60.67,-113.94 65.47,-112.93 70,-112 131.44,-99.38 202.3,-85.57 248.73,-76.62"/>
<polygon fill="midnightblue" stroke="midnightblue" points="249.67,-80.01 258.83,-74.68 248.35,-73.13 249.67,-80.01"/>
</g>
<!-- Node17&#45;&gt;Node14 -->
<g id="edge22" class="edge">
<title>Node17&#45;&gt;Node14</title>
<path fill="none" stroke="midnightblue" d="M320.39,-56.44C342.71,-47.52 377.9,-33.44 403.21,-23.32"/>
<polygon fill="midnightblue" stroke="midnightblue" points="404.72,-26.48 412.71,-19.52 402.12,-19.98 404.72,-26.48"/>
</g>
<!-- Node17&#45;&gt;Node16 -->
<g id="edge23" class="edge">
<title>Node17&#45;&gt;Node16</title>
<path fill="none" stroke="midnightblue" d="M282.77,-56.32C266.65,-47.7 241.7,-34.36 223.04,-24.39"/>
<polygon fill="midnightblue" stroke="midnightblue" points="224.66,-21.28 214.19,-19.65 221.36,-27.46 224.66,-21.28"/>
</g>
<!-- Node18&#45;&gt;Node2 -->
<g id="edge30" class="edge">
<title>Node18&#45;&gt;Node2</title>
<path fill="none" stroke="midnightblue" d="M582.06,-243.52C550.25,-252.03 506.66,-265.86 496,-280 486.11,-293.12 485.83,-312.27 487.44,-326.38"/>
<polygon fill="midnightblue" stroke="midnightblue" points="484,-327.07 488.99,-336.41 490.92,-326 484,-327.07"/>
</g>
<!-- Node18&#45;&gt;Node8 -->
<g id="edge31" class="edge">
<title>Node18&#45;&gt;Node8</title>
<path fill="none" stroke="midnightblue" d="M616.22,-224.37C614.6,-206.62 610.88,-165.67 608.69,-141.6"/>
<polygon fill="midnightblue" stroke="midnightblue" points="612.17,-141.23 607.78,-131.59 605.2,-141.87 612.17,-141.23"/>
</g>
<!-- Node18&#45;&gt;Node13 -->
<g id="edge29" class="edge">
<title>Node18&#45;&gt;Node13</title>
<path fill="none" stroke="midnightblue" d="M588,-224.44C556.82,-215.24 507.07,-200.56 472.59,-190.39"/>
<polygon fill="midnightblue" stroke="midnightblue" points="473.44,-186.99 462.86,-187.52 471.46,-193.7 473.44,-186.99"/>
</g>
<!-- Node19 -->
<g id="node19" class="node">
<title>Node19</title>
<g id="a_node19"><a xlink:title=" ">
<polygon fill="none" stroke="#bfbfbf" points="756,-112.5 756,-131.5 802,-131.5 802,-112.5 756,-112.5"/>
<text text-anchor="middle" x="779" y="-119.5" font-family="Helvetica,sans-Serif" font-size="10.00">math.h</text>
</a>
</g>
</g>
<!-- Node18&#45;&gt;Node19 -->
<g id="edge28" class="edge">
<title>Node18&#45;&gt;Node19</title>
<path fill="none" stroke="midnightblue" d="M629.71,-224.37C657.51,-205.49 723.94,-160.38 758.03,-137.24"/>
<polygon fill="midnightblue" stroke="midnightblue" points="760.04,-140.1 766.35,-131.59 756.11,-134.31 760.04,-140.1"/>
</g>
<!-- Node20&#45;&gt;Node2 -->
<g id="edge35" class="edge">
<title>Node20&#45;&gt;Node2</title>
<path fill="none" stroke="midnightblue" d="M683.06,-243.55C627.92,-253.9 542.37,-271.06 530,-280 514.04,-291.54 503.41,-311.8 497.33,-326.65"/>
<polygon fill="midnightblue" stroke="midnightblue" points="493.95,-325.7 493.7,-336.29 500.5,-328.17 493.95,-325.7"/>
</g>
<!-- Node20&#45;&gt;Node8 -->
<g id="edge36" class="edge">
<title>Node20&#45;&gt;Node8</title>
<path fill="none" stroke="midnightblue" d="M720.35,-224.37C699.6,-205.81 650.51,-161.91 624.26,-138.44"/>
<polygon fill="midnightblue" stroke="midnightblue" points="626.39,-135.65 616.61,-131.59 621.73,-140.87 626.39,-135.65"/>
</g>
<!-- Node20&#45;&gt;Node13 -->
<g id="edge37" class="edge">
<title>Node20&#45;&gt;Node13</title>
<path fill="none" stroke="midnightblue" d="M683.1,-224.44C625.06,-213.85 527.28,-196.02 473.1,-186.13"/>
<polygon fill="midnightblue" stroke="midnightblue" points="473.65,-182.68 463.19,-184.32 472.4,-189.56 473.65,-182.68"/>
</g>
<!-- Node20&#45;&gt;Node21 -->
<g id="edge38" class="edge">
<title>Node20&#45;&gt;Node21</title>
<path fill="none" stroke="midnightblue" d="M770.41,-224.44C814.98,-215 886.77,-199.8 934.89,-189.61"/>
<polygon fill="midnightblue" stroke="midnightblue" points="935.73,-193.01 944.78,-187.52 934.28,-186.16 935.73,-193.01"/>
</g>
<!-- Node21&#45;&gt;Node14 -->
<g id="edge40" class="edge">
<title>Node21&#45;&gt;Node14</title>
<path fill="none" stroke="midnightblue" d="M985.07,-168.46C984.69,-154.56 981.84,-127.08 966,-112 893.16,-42.68 570.55,-18.68 466.48,-12.67"/>
<polygon fill="midnightblue" stroke="midnightblue" points="466.45,-9.16 456.27,-12.1 466.06,-16.15 466.45,-9.16"/>
</g>
<!-- Node21&#45;&gt;Node17 -->
<g id="edge42" class="edge">
<title>Node21&#45;&gt;Node17</title>
<path fill="none" stroke="midnightblue" d="M966.96,-168.4C935.9,-154.01 869.97,-125.35 811,-112 724.05,-92.32 460.94,-75.95 349.61,-69.71"/>
<polygon fill="midnightblue" stroke="midnightblue" points="349.5,-66.2 339.33,-69.14 349.12,-73.19 349.5,-66.2"/>
</g>
<!-- Node21&#45;&gt;Node19 -->
<g id="edge39" class="edge">
<title>Node21&#45;&gt;Node19</title>
<path fill="none" stroke="midnightblue" d="M952.36,-168.44C913.93,-158.37 850.47,-141.74 811.92,-131.63"/>
<polygon fill="midnightblue" stroke="midnightblue" points="812.78,-128.24 802.22,-129.09 811,-135.01 812.78,-128.24"/>
</g>
<!-- Node22 -->
<g id="node22" class="node">
<title>Node22</title>
<g id="a_node22"><a xlink:title=" ">
<polygon fill="none" stroke="#bfbfbf" points="905.5,-112.5 905.5,-131.5 956.5,-131.5 956.5,-112.5 905.5,-112.5"/>
<text text-anchor="middle" x="931" y="-119.5" font-family="Helvetica,sans-Serif" font-size="10.00">numeric</text>
</a>
</g>
</g>
<!-- Node21&#45;&gt;Node22 -->
<g id="edge41" class="edge">
<title>Node21&#45;&gt;Node22</title>
<path fill="none" stroke="midnightblue" d="M976.08,-168.08C968.22,-160.22 956.57,-148.57 947.08,-139.08"/>
<polygon fill="midnightblue" stroke="midnightblue" points="949.3,-136.35 939.75,-131.75 944.35,-141.3 949.3,-136.35"/>
</g>
<!-- Node23&#45;&gt;Node2 -->
<g id="edge44" class="edge">
<title>Node23&#45;&gt;Node2</title>
<path fill="none" stroke="midnightblue" d="M832.29,-243.53C766.39,-263.13 604.21,-311.34 529.65,-333.51"/>
<polygon fill="midnightblue" stroke="midnightblue" points="528.31,-330.26 519.73,-336.46 530.31,-336.97 528.31,-330.26"/>
</g>
<!-- Node23&#45;&gt;Node8 -->
<g id="edge45" class="edge">
<title>Node23&#45;&gt;Node8</title>
<path fill="none" stroke="midnightblue" d="M830.4,-224.5C802.65,-216.39 760.88,-203.19 726,-188 691.29,-172.88 653.22,-151.1 629.72,-137"/>
<polygon fill="midnightblue" stroke="midnightblue" points="631.24,-133.83 620.88,-131.64 627.62,-139.82 631.24,-133.83"/>
</g>
<!-- Node23&#45;&gt;Node13 -->
<g id="edge46" class="edge">
<title>Node23&#45;&gt;Node13</title>
<path fill="none" stroke="midnightblue" d="M799.16,-225.04C796.41,-224.69 793.67,-224.34 791,-224 675.65,-209.31 539.31,-192.19 473.48,-183.94"/>
<polygon fill="midnightblue" stroke="midnightblue" points="473.51,-180.42 463.16,-182.65 472.64,-187.37 473.51,-180.42"/>
</g>
<!-- Node23&#45;&gt;Node21 -->
<g id="edge47" class="edge">
<title>Node23&#45;&gt;Node21</title>
<path fill="none" stroke="midnightblue" d="M880.65,-224.44C900.96,-215.6 932.9,-201.69 956.1,-191.59"/>
<polygon fill="midnightblue" stroke="midnightblue" points="957.67,-194.72 965.44,-187.52 954.88,-188.3 957.67,-194.72"/>
</g>
<!-- Node24&#45;&gt;Node2 -->
<g id="edge49" class="edge">
<title>Node24&#45;&gt;Node2</title>
<path fill="none" stroke="midnightblue" d="M553.19,-243.53C592.02,-253.12 639.39,-271.22 619,-300 606.89,-317.1 587.74,-327.74 567.91,-334.36"/>
<polygon fill="midnightblue" stroke="midnightblue" points="566.72,-331.07 558.15,-337.3 568.73,-337.77 566.72,-331.07"/>
</g>
<!-- Node24&#45;&gt;Node8 -->
<g id="edge50" class="edge">
<title>Node24&#45;&gt;Node8</title>
<path fill="none" stroke="midnightblue" d="M516.69,-224.37C533.01,-206.05 571.32,-163.05 592.42,-139.36"/>
<polygon fill="midnightblue" stroke="midnightblue" points="595.31,-141.39 599.35,-131.59 590.08,-136.73 595.31,-141.39"/>
</g>
<!-- Node24&#45;&gt;Node13 -->
<g id="edge51" class="edge">
<title>Node24&#45;&gt;Node13</title>
<path fill="none" stroke="midnightblue" d="M496.95,-224.32C485.54,-216.11 468.17,-203.6 454.57,-193.81"/>
<polygon fill="midnightblue" stroke="midnightblue" points="456.43,-190.84 446.27,-187.83 452.34,-196.52 456.43,-190.84"/>
</g>
<!-- Node25&#45;&gt;Node2 -->
<g id="edge53" class="edge">
<title>Node25&#45;&gt;Node2</title>
<path fill="none" stroke="midnightblue" d="M947.59,-243.53C858.44,-263.35 637.57,-312.43 539.38,-334.25"/>
<polygon fill="midnightblue" stroke="midnightblue" points="538.43,-330.87 529.43,-336.46 539.95,-337.71 538.43,-330.87"/>
</g>
<!-- Node25&#45;&gt;Node8 -->
<g id="edge54" class="edge">
<title>Node25&#45;&gt;Node8</title>
<path fill="none" stroke="midnightblue" d="M956.58,-224.46C888.91,-204.82 722.25,-156.45 646.1,-134.35"/>
<polygon fill="midnightblue" stroke="midnightblue" points="646.98,-130.96 636.41,-131.53 645.03,-137.68 646.98,-130.96"/>
</g>
<!-- Node25&#45;&gt;Node13 -->
<g id="edge55" class="edge">
<title>Node25&#45;&gt;Node13</title>
<path fill="none" stroke="midnightblue" d="M940.96,-225.23C937.93,-224.79 934.92,-224.38 932,-224 761.9,-202.17 557.77,-187.23 473.42,-181.55"/>
<polygon fill="midnightblue" stroke="midnightblue" points="473.48,-178.05 463.27,-180.87 473.02,-185.03 473.48,-178.05"/>
</g>
<!-- Node25&#45;&gt;Node21 -->
<g id="edge56" class="edge">
<title>Node25&#45;&gt;Node21</title>
<path fill="none" stroke="midnightblue" d="M985.83,-224.08C985.7,-217.01 985.52,-206.86 985.35,-197.99"/>
<polygon fill="midnightblue" stroke="midnightblue" points="988.85,-197.68 985.16,-187.75 981.85,-197.81 988.85,-197.68"/>
</g>
</g>
</svg>
