<?xml version="1.0" encoding="UTF-8" standalone="no"?>
<!DOCTYPE svg PUBLIC "-//W3C//DTD SVG 1.1//EN"
 "http://www.w3.org/Graphics/SVG/1.1/DTD/svg11.dtd">
<!-- Generated by graphviz version 3.0.0 (20220413.0242)
 -->
<!-- Title: model/openloopcoronarybc.hpp Pages: 1 -->
<svg width="1474pt" height="252pt"
 viewBox="0.00 0.00 1474.11 252.00" xmlns="http://www.w3.org/2000/svg" xmlns:xlink="http://www.w3.org/1999/xlink">
<g id="graph0" class="graph" transform="scale(1 1) rotate(0) translate(4 248)">
<title>model/openloopcoronarybc.hpp</title>
<!-- Node1 -->
<g id="node1" class="node">
<title>Node1</title>
<g id="a_node1"><a xlink:title="MODEL::ClosedLoopCoronaryBC source file.">
<polygon fill="#bfbfbf" stroke="black" points="712.61,-224.5 712.61,-243.5 862.61,-243.5 862.61,-224.5 712.61,-224.5"/>
<text text-anchor="middle" x="787.61" y="-231.5" font-family="Helvetica,sans-Serif" font-size="10.00">model/openloopcoronarybc.hpp</text>
</a>
</g>
</g>
<!-- Node2 -->
<g id="node2" class="node">
<title>Node2</title>
<g id="a_node2"><a xlink:href="model_8hpp.html" target="_top" xlink:title="MODEL::Model source file.">
<polygon fill="none" stroke="black" points="502.61,-168.5 502.61,-187.5 592.61,-187.5 592.61,-168.5 502.61,-168.5"/>
<text text-anchor="middle" x="547.61" y="-175.5" font-family="Helvetica,sans-Serif" font-size="10.00">model/model.hpp</text>
</a>
</g>
</g>
<!-- Node1&#45;&gt;Node2 -->
<g id="edge1" class="edge">
<title>Node1&#45;&gt;Node2</title>
<path fill="none" stroke="midnightblue" d="M739.69,-222.22C694.34,-212.01 627.17,-196.9 585.46,-187.52"/>
<polygon fill="midnightblue" stroke="midnightblue" points="739.06,-225.66 749.58,-224.44 740.6,-218.83 739.06,-225.66"/>
</g>
<!-- Node3 -->
<g id="node3" class="node">
<title>Node3</title>
<g id="a_node3"><a xlink:href="densesystem_8hpp.html" target="_top" xlink:title="ALGEBRA::DenseSystem source file.">
<polygon fill="none" stroke="black" points="633.11,-112.5 633.11,-131.5 760.11,-131.5 760.11,-112.5 633.11,-112.5"/>
<text text-anchor="middle" x="696.61" y="-119.5" font-family="Helvetica,sans-Serif" font-size="10.00">algebra/densesystem.hpp</text>
</a>
</g>
</g>
<!-- Node2&#45;&gt;Node3 -->
<g id="edge2" class="edge">
<title>Node2&#45;&gt;Node3</title>
<path fill="none" stroke="midnightblue" d="M575.6,-164.77C602.06,-154.63 641.37,-140.47 668.03,-131.52"/>
<polygon fill="midnightblue" stroke="midnightblue" points="574.19,-161.56 566.13,-168.44 576.72,-168.09 574.19,-161.56"/>
</g>
<!-- Node4 -->
<g id="node4" class="node">
<title>Node4</title>
<g id="a_node4"><a xlink:href="main_8cpp.html" target="_top" xlink:title="Main routine of svZeroDSolver.">
<polygon fill="none" stroke="black" points="270.61,-56.5 270.61,-75.5 326.61,-75.5 326.61,-56.5 270.61,-56.5"/>
<text text-anchor="middle" x="298.61" y="-63.5" font-family="Helvetica,sans-Serif" font-size="10.00">main.cpp</text>
</a>
</g>
</g>
<!-- Node2&#45;&gt;Node4 -->
<g id="edge54" class="edge">
<title>Node2&#45;&gt;Node4</title>
<path fill="none" stroke="midnightblue" d="M492.56,-176.35C418.9,-174.18 294.19,-165.5 265.61,-132 250.66,-114.48 273.65,-89.02 288.19,-75.76"/>
<polygon fill="midnightblue" stroke="midnightblue" points="492.51,-179.85 502.6,-176.61 492.7,-172.85 492.51,-179.85"/>
</g>
<!-- Node15 -->
<g id="node15" class="node">
<title>Node15</title>
<g id="a_node15"><a xlink:href="integrator_8hpp.html" target="_top" xlink:title="ALGEBRA::Integrator source file.">
<polygon fill="none" stroke="black" points="274.61,-112.5 274.61,-131.5 384.61,-131.5 384.61,-112.5 274.61,-112.5"/>
<text text-anchor="middle" x="329.61" y="-119.5" font-family="Helvetica,sans-Serif" font-size="10.00">algebra/integrator.hpp</text>
</a>
</g>
</g>
<!-- Node2&#45;&gt;Node15 -->
<g id="edge32" class="edge">
<title>Node2&#45;&gt;Node15</title>
<path fill="none" stroke="midnightblue" d="M503.3,-166.02C462.12,-155.82 401.64,-140.84 363.99,-131.52"/>
<polygon fill="midnightblue" stroke="midnightblue" points="502.52,-169.44 513.07,-168.44 504.2,-162.64 502.52,-169.44"/>
</g>
<!-- Node16 -->
<g id="node16" class="node">
<title>Node16</title>
<g id="a_node16"><a xlink:href="sparsesystem_8hpp.html" target="_top" xlink:title="ALGEBRA::SparseSystem source file.">
<polygon fill="none" stroke="black" points="778.61,-112.5 778.61,-131.5 908.61,-131.5 908.61,-112.5 778.61,-112.5"/>
<text text-anchor="middle" x="843.61" y="-119.5" font-family="Helvetica,sans-Serif" font-size="10.00">algebra/sparsesystem.hpp</text>
</a>
</g>
</g>
<!-- Node2&#45;&gt;Node16 -->
<g id="edge34" class="edge">
<title>Node2&#45;&gt;Node16</title>
<path fill="none" stroke="midnightblue" d="M599.5,-166.54C653.61,-156.33 737.78,-141 791.85,-131.52"/>
<polygon fill="midnightblue" stroke="midnightblue" points="598.6,-163.14 589.43,-168.44 599.9,-170.02 598.6,-163.14"/>
</g>
<!-- Node17 -->
<g id="node17" class="node">
<title>Node17</title>
<g id="a_node17"><a xlink:href="configreader_8hpp.html" target="_top" xlink:title="IO::ConfigReader source file.">
<polygon fill="none" stroke="black" points="402.61,-112.5 402.61,-131.5 500.61,-131.5 500.61,-112.5 402.61,-112.5"/>
<text text-anchor="middle" x="451.61" y="-119.5" font-family="Helvetica,sans-Serif" font-size="10.00">io/configreader.hpp</text>
</a>
</g>
</g>
<!-- Node2&#45;&gt;Node17 -->
<g id="edge48" class="edge">
<title>Node2&#45;&gt;Node17</title>
<path fill="none" stroke="midnightblue" d="M523.04,-163.18C505.37,-153.24 482.1,-140.15 467,-131.65"/>
<polygon fill="midnightblue" stroke="midnightblue" points="521.76,-166.47 532.19,-168.32 525.19,-160.37 521.76,-166.47"/>
</g>
<!-- Node18 -->
<g id="node18" class="node">
<title>Node18</title>
<g id="a_node18"><a xlink:href="csvwriter_8hpp.html" target="_top" xlink:title="IO::write_csv source file.">
<polygon fill="none" stroke="black" points="28.11,-112.5 28.11,-131.5 113.11,-131.5 113.11,-112.5 28.11,-112.5"/>
<text text-anchor="middle" x="70.61" y="-119.5" font-family="Helvetica,sans-Serif" font-size="10.00">io/csvwriter.hpp</text>
</a>
</g>
</g>
<!-- Node2&#45;&gt;Node18 -->
<g id="edge50" class="edge">
<title>Node2&#45;&gt;Node18</title>
<path fill="none" stroke="midnightblue" d="M492.38,-172.4C411.01,-165.34 254.21,-150.68 121.61,-132 118.85,-131.61 116.01,-131.18 113.15,-130.73"/>
<polygon fill="midnightblue" stroke="midnightblue" points="492.14,-175.89 502.4,-173.26 492.74,-168.92 492.14,-175.89"/>
</g>
<!-- Node19 -->
<g id="node19" class="node">
<title>Node19</title>
<g id="a_node19"><a xlink:href="jsonwriter_8hpp.html" target="_top" xlink:title="IO::write_json source file.">
<polygon fill="none" stroke="black" points="131.11,-112.5 131.11,-131.5 218.11,-131.5 218.11,-112.5 131.11,-112.5"/>
<text text-anchor="middle" x="174.61" y="-119.5" font-family="Helvetica,sans-Serif" font-size="10.00">io/jsonwriter.hpp</text>
</a>
</g>
</g>
<!-- Node2&#45;&gt;Node19 -->
<g id="edge52" class="edge">
<title>Node2&#45;&gt;Node19</title>
<path fill="none" stroke="midnightblue" d="M492.37,-169.31C429.45,-160.51 323.58,-145.55 232.61,-132 227.98,-131.31 223.13,-130.58 218.31,-129.84"/>
<polygon fill="midnightblue" stroke="midnightblue" points="492.08,-172.81 502.47,-170.72 493.05,-165.87 492.08,-172.81"/>
</g>
<!-- Node3&#45;&gt;Node1 -->
<g id="edge28" class="edge">
<title>Node3&#45;&gt;Node1</title>
<path fill="none" stroke="midnightblue" d="M710.15,-139.36C729.74,-163.05 765.32,-206.05 780.47,-224.37"/>
<polygon fill="midnightblue" stroke="midnightblue" points="712.79,-137.07 703.72,-131.59 707.4,-141.53 712.79,-137.07"/>
</g>
<!-- Node3&#45;&gt;Node2 -->
<g id="edge27" class="edge">
<title>Node3&#45;&gt;Node2</title>
<path fill="none" stroke="midnightblue" d="M668.75,-135.18C642.32,-145.31 603.02,-159.48 576.31,-168.44"/>
<polygon fill="midnightblue" stroke="midnightblue" points="670.14,-138.4 678.19,-131.52 667.6,-131.87 670.14,-138.4"/>
</g>
<!-- Node3&#45;&gt;Node4 -->
<g id="edge3" class="edge">
<title>Node3&#45;&gt;Node4</title>
<path fill="none" stroke="midnightblue" d="M622.68,-113.52C550.49,-105.77 437.64,-92.5 340.61,-76 336.2,-75.25 331.55,-74.36 327.02,-73.43"/>
<polygon fill="midnightblue" stroke="midnightblue" points="622.71,-117.04 633.03,-114.62 623.46,-110.08 622.71,-117.04"/>
</g>
<!-- Node5 -->
<g id="node5" class="node">
<title>Node5</title>
<g id="a_node5"><a xlink:href="block_8hpp.html" target="_top" xlink:title="MODEL::Block source file.">
<polygon fill="none" stroke="black" points="839.11,-56.5 839.11,-75.5 926.11,-75.5 926.11,-56.5 839.11,-56.5"/>
<text text-anchor="middle" x="882.61" y="-63.5" font-family="Helvetica,sans-Serif" font-size="10.00">model/block.hpp</text>
</a>
</g>
</g>
<!-- Node3&#45;&gt;Node5 -->
<g id="edge4" class="edge">
<title>Node3&#45;&gt;Node5</title>
<path fill="none" stroke="midnightblue" d="M735.99,-109.57C771.08,-99.38 821.63,-84.7 853.28,-75.52"/>
<polygon fill="midnightblue" stroke="midnightblue" points="734.71,-106.29 726.08,-112.44 736.66,-113.02 734.71,-106.29"/>
</g>
<!-- Node6 -->
<g id="node6" class="node">
<title>Node6</title>
<g id="a_node6"><a xlink:href="bloodvessel_8hpp.html" target="_top" xlink:title="MODEL::BloodVessel source file.">
<polygon fill="none" stroke="black" points="508.61,-0.5 508.61,-19.5 624.61,-19.5 624.61,-0.5 508.61,-0.5"/>
<text text-anchor="middle" x="566.61" y="-7.5" font-family="Helvetica,sans-Serif" font-size="10.00">model/bloodvessel.hpp</text>
</a>
</g>
</g>
<!-- Node3&#45;&gt;Node6 -->
<g id="edge21" class="edge">
<title>Node3&#45;&gt;Node6</title>
<path fill="none" stroke="midnightblue" d="M678.67,-105.82C650.98,-82.39 598.75,-38.19 576.77,-19.59"/>
<polygon fill="midnightblue" stroke="midnightblue" points="676.52,-108.58 686.41,-112.37 681.04,-103.24 676.52,-108.58"/>
</g>
<!-- Node7 -->
<g id="node7" class="node">
<title>Node7</title>
<g id="a_node7"><a xlink:href="closedloop_r_c_rbc_8hpp_source.html" target="_top" xlink:title=" ">
<polygon fill="none" stroke="black" points="813.11,-0.5 813.11,-19.5 954.11,-19.5 954.11,-0.5 813.11,-0.5"/>
<text text-anchor="middle" x="883.61" y="-7.5" font-family="Helvetica,sans-Serif" font-size="10.00">model/closedloopRCRbc.hpp</text>
</a>
</g>
</g>
<!-- Node3&#45;&gt;Node7 -->
<g id="edge22" class="edge">
<title>Node3&#45;&gt;Node7</title>
<path fill="none" stroke="midnightblue" d="M720.4,-107.01C759.65,-83.92 836.84,-38.51 869.01,-19.59"/>
<polygon fill="midnightblue" stroke="midnightblue" points="718.13,-104.28 711.29,-112.37 721.68,-110.32 718.13,-104.28"/>
</g>
<!-- Node8 -->
<g id="node8" class="node">
<title>Node8</title>
<g id="a_node8"><a xlink:href="closedloopcoronarybc_8hpp_source.html" target="_top" xlink:title=" ">
<polygon fill="none" stroke="black" points="972.61,-0.5 972.61,-19.5 1130.61,-19.5 1130.61,-0.5 972.61,-0.5"/>
<text text-anchor="middle" x="1051.61" y="-7.5" font-family="Helvetica,sans-Serif" font-size="10.00">model/closedloopcoronarybc.hpp</text>
</a>
</g>
</g>
<!-- Node3&#45;&gt;Node8 -->
<g id="edge23" class="edge">
<title>Node3&#45;&gt;Node8</title>
<path fill="none" stroke="midnightblue" d="M763.38,-110.91C822.7,-101.49 904.66,-87.24 935.61,-76 956.44,-68.43 1011.28,-35.65 1037.39,-19.74"/>
<polygon fill="midnightblue" stroke="midnightblue" points="762.66,-107.48 753.33,-112.49 763.75,-114.39 762.66,-107.48"/>
</g>
<!-- Node9 -->
<g id="node9" class="node">
<title>Node9</title>
<g id="a_node9"><a xlink:href="closedloopheartpulmonary_8hpp.html" target="_top" xlink:title="MODEL::ClosedLoopHeartPulmonary source file.">
<polygon fill="none" stroke="black" points="1148.61,-0.5 1148.61,-19.5 1324.61,-19.5 1324.61,-0.5 1148.61,-0.5"/>
<text text-anchor="middle" x="1236.61" y="-7.5" font-family="Helvetica,sans-Serif" font-size="10.00">model/closedloopheartpulmonary.hpp</text>
</a>
</g>
</g>
<!-- Node3&#45;&gt;Node9 -->
<g id="edge24" class="edge">
<title>Node3&#45;&gt;Node9</title>
<path fill="none" stroke="midnightblue" d="M765.49,-110.97C820.41,-102.64 899.2,-89.93 967.61,-76 1053.77,-58.46 1154.21,-32.78 1204.48,-19.56"/>
<polygon fill="midnightblue" stroke="midnightblue" points="764.88,-107.53 755.52,-112.48 765.93,-114.45 764.88,-107.53"/>
</g>
<!-- Node10 -->
<g id="node10" class="node">
<title>Node10</title>
<g id="a_node10"><a xlink:href="flowreferencebc_8hpp.html" target="_top" xlink:title="MODEL::FlowReferenceBC source file.">
<polygon fill="none" stroke="black" points="220.61,-0.5 220.61,-19.5 352.61,-19.5 352.61,-0.5 220.61,-0.5"/>
<text text-anchor="middle" x="286.61" y="-7.5" font-family="Helvetica,sans-Serif" font-size="10.00">model/flowreferencebc.hpp</text>
</a>
</g>
</g>
<!-- Node3&#45;&gt;Node10 -->
<g id="edge25" class="edge">
<title>Node3&#45;&gt;Node10</title>
<path fill="none" stroke="midnightblue" d="M655.05,-109.85C573,-87.84 391.82,-39.23 318.42,-19.53"/>
<polygon fill="midnightblue" stroke="midnightblue" points="654.22,-113.25 664.78,-112.46 656.03,-106.49 654.22,-113.25"/>
</g>
<!-- Node11 -->
<g id="node11" class="node">
<title>Node11</title>
<g id="a_node11"><a xlink:href="junction_8hpp.html" target="_top" xlink:title="MODEL::Junction source file.">
<polygon fill="none" stroke="black" points="104.61,-0.5 104.61,-19.5 202.61,-19.5 202.61,-0.5 104.61,-0.5"/>
<text text-anchor="middle" x="153.61" y="-7.5" font-family="Helvetica,sans-Serif" font-size="10.00">model/junction.hpp</text>
</a>
</g>
</g>
<!-- Node3&#45;&gt;Node11 -->
<g id="edge26" class="edge">
<title>Node3&#45;&gt;Node11</title>
<path fill="none" stroke="midnightblue" d="M637.32,-110.68C587.63,-101.89 514.88,-88.71 451.61,-76 357.39,-57.08 246.98,-32.31 190.7,-19.5"/>
<polygon fill="midnightblue" stroke="midnightblue" points="636.79,-114.14 647.25,-112.43 638.01,-107.24 636.79,-114.14"/>
</g>
<!-- Node12 -->
<g id="node12" class="node">
<title>Node12</title>
<g id="a_node12"><a xlink:href="pressurereferencebc_8hpp.html" target="_top" xlink:title="MODEL::PressureReferenceBC source file.">
<polygon fill="none" stroke="black" points="642.61,-0.5 642.61,-19.5 794.61,-19.5 794.61,-0.5 642.61,-0.5"/>
<text text-anchor="middle" x="718.61" y="-7.5" font-family="Helvetica,sans-Serif" font-size="10.00">model/pressurereferencebc.hpp</text>
</a>
</g>
</g>
<!-- Node3&#45;&gt;Node12 -->
<g id="edge29" class="edge">
<title>Node3&#45;&gt;Node12</title>
<path fill="none" stroke="midnightblue" d="M700.34,-102.35C705.16,-78.25 713.35,-37.31 716.89,-19.59"/>
<polygon fill="midnightblue" stroke="midnightblue" points="696.87,-101.88 698.34,-112.37 703.73,-103.25 696.87,-101.88"/>
</g>
<!-- Node13 -->
<g id="node13" class="node">
<title>Node13</title>
<g id="a_node13"><a xlink:href="resistancebc_8hpp.html" target="_top" xlink:title="MODEL::ResistanceBC source file.">
<polygon fill="none" stroke="black" points="371.11,-0.5 371.11,-19.5 490.11,-19.5 490.11,-0.5 371.11,-0.5"/>
<text text-anchor="middle" x="430.61" y="-7.5" font-family="Helvetica,sans-Serif" font-size="10.00">model/resistancebc.hpp</text>
</a>
</g>
</g>
<!-- Node3&#45;&gt;Node13 -->
<g id="edge30" class="edge">
<title>Node3&#45;&gt;Node13</title>
<path fill="none" stroke="midnightblue" d="M666.25,-108.45C611.63,-85.86 498.11,-38.91 451.39,-19.59"/>
<polygon fill="midnightblue" stroke="midnightblue" points="665.16,-111.78 675.74,-112.37 667.84,-105.31 665.16,-111.78"/>
</g>
<!-- Node14 -->
<g id="node14" class="node">
<title>Node14</title>
<g id="a_node14"><a xlink:href="windkesselbc_8hpp.html" target="_top" xlink:title="MODEL::WindkesselBC source file.">
<polygon fill="none" stroke="black" points="1343.11,-0.5 1343.11,-19.5 1466.11,-19.5 1466.11,-0.5 1343.11,-0.5"/>
<text text-anchor="middle" x="1404.61" y="-7.5" font-family="Helvetica,sans-Serif" font-size="10.00">model/windkesselbc.hpp</text>
</a>
</g>
</g>
<!-- Node3&#45;&gt;Node14 -->
<g id="edge31" class="edge">
<title>Node3&#45;&gt;Node14</title>
<path fill="none" stroke="midnightblue" d="M770.56,-111.51C852.11,-100.94 978.09,-84.24 1025.61,-76 1068.13,-68.63 1078.18,-63.82 1120.61,-56 1197.93,-41.74 1287.61,-28 1345.17,-19.53"/>
<polygon fill="midnightblue" stroke="midnightblue" points="769.81,-108.08 760.35,-112.83 770.71,-115.02 769.81,-108.08"/>
</g>
<!-- Node5&#45;&gt;Node1 -->
<g id="edge14" class="edge">
<title>Node5&#45;&gt;Node1</title>
<path fill="none" stroke="midnightblue" d="M900.65,-83.01C913.05,-96.05 925.92,-115.03 917.61,-132 894.68,-178.85 838.38,-210.23 807.94,-224.39"/>
<polygon fill="midnightblue" stroke="midnightblue" points="902.78,-80.19 893.17,-75.72 897.89,-85.21 902.78,-80.19"/>
</g>
<!-- Node5&#45;&gt;Node6 -->
<g id="edge5" class="edge">
<title>Node5&#45;&gt;Node6</title>
<path fill="none" stroke="midnightblue" d="M829.06,-55.85C769.63,-45.69 674.47,-29.43 616.54,-19.53"/>
<polygon fill="midnightblue" stroke="midnightblue" points="828.56,-59.31 839.01,-57.55 829.74,-52.41 828.56,-59.31"/>
</g>
<!-- Node5&#45;&gt;Node7 -->
<g id="edge7" class="edge">
<title>Node5&#45;&gt;Node7</title>
<path fill="none" stroke="midnightblue" d="M882.97,-45.8C883.13,-36.91 883.32,-26.78 883.45,-19.75"/>
<polygon fill="midnightblue" stroke="midnightblue" points="879.46,-46.02 882.78,-56.08 886.46,-46.15 879.46,-46.02"/>
</g>
<!-- Node5&#45;&gt;Node8 -->
<g id="edge8" class="edge">
<title>Node5&#45;&gt;Node8</title>
<path fill="none" stroke="midnightblue" d="M919.22,-53.3C951.06,-43.13 996.45,-28.62 1024.96,-19.52"/>
<polygon fill="midnightblue" stroke="midnightblue" points="917.85,-50.07 909.39,-56.44 919.98,-56.73 917.85,-50.07"/>
</g>
<!-- Node5&#45;&gt;Node9 -->
<g id="edge9" class="edge">
<title>Node5&#45;&gt;Node9</title>
<path fill="none" stroke="midnightblue" d="M936.57,-56.77C1002.59,-46.7 1113.83,-29.73 1180.72,-19.53"/>
<polygon fill="midnightblue" stroke="midnightblue" points="935.73,-53.36 926.38,-58.32 936.79,-60.28 935.73,-53.36"/>
</g>
<!-- Node5&#45;&gt;Node10 -->
<g id="edge10" class="edge">
<title>Node5&#45;&gt;Node10</title>
<path fill="none" stroke="midnightblue" d="M828.82,-60.95C734.24,-53.69 532,-37.58 361.61,-20 358.74,-19.7 355.81,-19.39 352.85,-19.07"/>
<polygon fill="midnightblue" stroke="midnightblue" points="828.76,-64.45 839,-61.73 829.29,-57.47 828.76,-64.45"/>
</g>
<!-- Node5&#45;&gt;Node11 -->
<g id="edge12" class="edge">
<title>Node5&#45;&gt;Node11</title>
<path fill="none" stroke="midnightblue" d="M828.71,-62.98C714.61,-58.35 440.33,-45.37 211.61,-20 208.68,-19.67 205.66,-19.31 202.62,-18.91"/>
<polygon fill="midnightblue" stroke="midnightblue" points="828.79,-66.48 838.93,-63.39 829.08,-59.49 828.79,-66.48"/>
</g>
<!-- Node5&#45;&gt;Node12 -->
<g id="edge15" class="edge">
<title>Node5&#45;&gt;Node12</title>
<path fill="none" stroke="midnightblue" d="M847.09,-53.3C816.19,-43.13 772.14,-28.62 744.48,-19.52"/>
<polygon fill="midnightblue" stroke="midnightblue" points="846.03,-56.64 856.63,-56.44 848.22,-49.99 846.03,-56.64"/>
</g>
<!-- Node5&#45;&gt;Node13 -->
<g id="edge17" class="edge">
<title>Node5&#45;&gt;Node13</title>
<path fill="none" stroke="midnightblue" d="M828.91,-58.91C754.8,-50.45 617.01,-34.55 499.61,-20 496.62,-19.63 493.55,-19.24 490.45,-18.85"/>
<polygon fill="midnightblue" stroke="midnightblue" points="828.61,-62.4 838.94,-60.05 829.4,-55.44 828.61,-62.4"/>
</g>
<!-- Node5&#45;&gt;Node14 -->
<g id="edge19" class="edge">
<title>Node5&#45;&gt;Node14</title>
<path fill="none" stroke="midnightblue" d="M936.32,-60.11C1020.9,-52.3 1190.25,-36.24 1333.61,-20 1336.7,-19.65 1339.86,-19.28 1343.05,-18.91"/>
<polygon fill="midnightblue" stroke="midnightblue" points="935.83,-56.64 926.19,-61.04 936.47,-63.61 935.83,-56.64"/>
</g>
<!-- Node6&#45;&gt;Node2 -->
<g id="edge6" class="edge">
<title>Node6&#45;&gt;Node2</title>
<path fill="none" stroke="midnightblue" d="M564.49,-29.58C560.41,-65.21 551.62,-141.95 548.63,-168.08"/>
<polygon fill="midnightblue" stroke="midnightblue" points="567.97,-29.9 565.63,-19.57 561.02,-29.11 567.97,-29.9"/>
</g>
<!-- Node10&#45;&gt;Node2 -->
<g id="edge11" class="edge">
<title>Node10&#45;&gt;Node2</title>
<path fill="none" stroke="midnightblue" d="M242.57,-22.07C158.19,-44.29 -15.07,-95.33 18.61,-132 51.04,-167.3 379.99,-174.94 502.21,-176.57"/>
<polygon fill="midnightblue" stroke="midnightblue" points="243.61,-25.42 252.4,-19.5 241.84,-18.64 243.61,-25.42"/>
</g>
<!-- Node11&#45;&gt;Node2 -->
<g id="edge13" class="edge">
<title>Node11&#45;&gt;Node2</title>
<path fill="none" stroke="midnightblue" d="M118.55,-23.07C64.11,-43.59 -30.42,-87.38 10.61,-132 43.62,-167.89 379.07,-175.17 502.42,-176.63"/>
<polygon fill="midnightblue" stroke="midnightblue" points="120.03,-26.26 128.21,-19.52 117.61,-19.69 120.03,-26.26"/>
</g>
<!-- Node12&#45;&gt;Node2 -->
<g id="edge16" class="edge">
<title>Node12&#45;&gt;Node2</title>
<path fill="none" stroke="midnightblue" d="M702.25,-26.89C666.91,-61.19 584.42,-141.27 556.81,-168.08"/>
<polygon fill="midnightblue" stroke="midnightblue" points="705.05,-29.04 709.79,-19.57 700.17,-24.02 705.05,-29.04"/>
</g>
<!-- Node13&#45;&gt;Node2 -->
<g id="edge18" class="edge">
<title>Node13&#45;&gt;Node2</title>
<path fill="none" stroke="midnightblue" d="M444.46,-27.28C460.82,-46.83 488.48,-80.87 509.61,-112 522.83,-131.47 536.25,-155.69 543.05,-168.36"/>
<polygon fill="midnightblue" stroke="midnightblue" points="447.12,-25.01 438,-19.62 441.77,-29.52 447.12,-25.01"/>
</g>
<!-- Node14&#45;&gt;Node2 -->
<g id="edge20" class="edge">
<title>Node14&#45;&gt;Node2</title>
<path fill="none" stroke="midnightblue" d="M1367.48,-22.53C1322.88,-36.18 1245.66,-59.19 1178.61,-76 1063.54,-104.86 1034.62,-112.37 917.61,-132 801.14,-151.54 662.7,-166.09 592.8,-172.83"/>
<polygon fill="midnightblue" stroke="midnightblue" points="1368.76,-25.8 1377.29,-19.52 1366.71,-19.11 1368.76,-25.8"/>
</g>
<!-- Node15&#45;&gt;Node4 -->
<g id="edge33" class="edge">
<title>Node15&#45;&gt;Node4</title>
<path fill="none" stroke="midnightblue" d="M319.44,-103.27C314.14,-94.05 307.9,-83.17 303.64,-75.75"/>
<polygon fill="midnightblue" stroke="midnightblue" points="316.48,-105.15 324.49,-112.08 322.55,-101.67 316.48,-105.15"/>
</g>
<!-- Node16&#45;&gt;Node1 -->
<g id="edge44" class="edge">
<title>Node16&#45;&gt;Node1</title>
<path fill="none" stroke="midnightblue" d="M834.64,-140.63C822.46,-164.55 801.17,-206.38 792.01,-224.37"/>
<polygon fill="midnightblue" stroke="midnightblue" points="837.82,-142.09 839.24,-131.59 831.58,-138.92 837.82,-142.09"/>
</g>
<!-- Node16&#45;&gt;Node2 -->
<g id="edge43" class="edge">
<title>Node16&#45;&gt;Node2</title>
<path fill="none" stroke="midnightblue" d="M791.59,-133.49C735.17,-144.13 646.18,-160.32 592.64,-169.66"/>
<polygon fill="midnightblue" stroke="midnightblue" points="792.55,-136.87 801.73,-131.57 791.25,-129.99 792.55,-136.87"/>
</g>
<!-- Node16&#45;&gt;Node4 -->
<g id="edge35" class="edge">
<title>Node16&#45;&gt;Node4</title>
<path fill="none" stroke="midnightblue" d="M768.15,-111.86C594.15,-93.1 398.51,-75.69 326.78,-69.44"/>
<polygon fill="midnightblue" stroke="midnightblue" points="767.93,-115.36 778.25,-112.96 768.69,-108.4 767.93,-115.36"/>
</g>
<!-- Node16&#45;&gt;Node5 -->
<g id="edge36" class="edge">
<title>Node16&#45;&gt;Node5</title>
<path fill="none" stroke="midnightblue" d="M855.99,-103.86C862.75,-94.5 870.82,-83.33 876.29,-75.75"/>
<polygon fill="midnightblue" stroke="midnightblue" points="853.07,-101.93 850.05,-112.08 858.74,-106.03 853.07,-101.93"/>
</g>
<!-- Node16&#45;&gt;Node6 -->
<g id="edge37" class="edge">
<title>Node16&#45;&gt;Node6</title>
<path fill="none" stroke="midnightblue" d="M825.81,-105.91C807.55,-91.15 777.76,-69.06 748.61,-56 708.36,-37.97 659.73,-26.42 622.87,-19.54"/>
<polygon fill="midnightblue" stroke="midnightblue" points="823.85,-108.83 833.8,-112.49 828.31,-103.43 823.85,-108.83"/>
</g>
<!-- Node16&#45;&gt;Node7 -->
<g id="edge38" class="edge">
<title>Node16&#45;&gt;Node7</title>
<path fill="none" stroke="midnightblue" d="M919.03,-113.87C969.25,-107.37 1028.82,-95.72 1044.61,-76 1050.17,-69.06 1049.99,-63.08 1044.61,-56 1031.85,-39.18 981.59,-26.94 940.57,-19.51"/>
<polygon fill="midnightblue" stroke="midnightblue" points="918.29,-110.43 908.8,-115.13 919.15,-117.38 918.29,-110.43"/>
</g>
<!-- Node16&#45;&gt;Node8 -->
<g id="edge39" class="edge">
<title>Node16&#45;&gt;Node8</title>
<path fill="none" stroke="midnightblue" d="M918.85,-115.36C974.21,-109.46 1042.81,-97.88 1060.61,-76 1073.84,-59.74 1063.41,-33.28 1056.49,-19.67"/>
<polygon fill="midnightblue" stroke="midnightblue" points="918.27,-111.9 908.68,-116.39 918.98,-118.86 918.27,-111.9"/>
</g>
<!-- Node16&#45;&gt;Node9 -->
<g id="edge40" class="edge">
<title>Node16&#45;&gt;Node9</title>
<path fill="none" stroke="midnightblue" d="M916.03,-110.87C962.71,-103.42 1024.42,-91.82 1077.61,-76 1130.49,-60.28 1189.98,-33.33 1218.91,-19.6"/>
<polygon fill="midnightblue" stroke="midnightblue" points="915.34,-107.44 906,-112.45 916.42,-114.35 915.34,-107.44"/>
</g>
<!-- Node16&#45;&gt;Node10 -->
<g id="edge41" class="edge">
<title>Node16&#45;&gt;Node10</title>
<path fill="none" stroke="midnightblue" d="M779.86,-110.77C729.82,-102.41 658.51,-89.76 596.61,-76 562.52,-68.42 554.67,-63.75 520.61,-56 457.28,-41.59 383.62,-27.93 336.12,-19.52"/>
<polygon fill="midnightblue" stroke="midnightblue" points="779.45,-114.25 789.89,-112.44 780.6,-107.35 779.45,-114.25"/>
</g>
<!-- Node16&#45;&gt;Node11 -->
<g id="edge42" class="edge">
<title>Node16&#45;&gt;Node11</title>
<path fill="none" stroke="midnightblue" d="M768.23,-111.78C702.65,-103.45 605.13,-90.33 520.61,-76 475.93,-68.43 465.19,-64.21 420.61,-56 344.8,-42.03 256.54,-27.49 202.9,-18.85"/>
<polygon fill="midnightblue" stroke="midnightblue" points="768.12,-115.29 778.48,-113.07 769,-108.34 768.12,-115.29"/>
</g>
<!-- Node16&#45;&gt;Node12 -->
<g id="edge45" class="edge">
<title>Node16&#45;&gt;Node12</title>
<path fill="none" stroke="midnightblue" d="M885.38,-109.2C917.87,-97.93 954.52,-79.23 935.61,-56 925.65,-43.77 839.4,-28.74 778.69,-19.52"/>
<polygon fill="midnightblue" stroke="midnightblue" points="883.9,-106.01 875.5,-112.46 886.09,-112.66 883.9,-106.01"/>
</g>
<!-- Node16&#45;&gt;Node13 -->
<g id="edge46" class="edge">
<title>Node16&#45;&gt;Node13</title>
<path fill="none" stroke="midnightblue" d="M801.74,-109.85C719.09,-87.84 536.59,-39.23 462.66,-19.53"/>
<polygon fill="midnightblue" stroke="midnightblue" points="800.98,-113.27 811.55,-112.46 802.79,-106.5 800.98,-113.27"/>
</g>
<!-- Node16&#45;&gt;Node14 -->
<g id="edge47" class="edge">
<title>Node16&#45;&gt;Node14</title>
<path fill="none" stroke="midnightblue" d="M911.87,-110.95C967.42,-102.5 1047.79,-89.63 1117.61,-76 1209.12,-58.14 1316.02,-32.71 1369.85,-19.58"/>
<polygon fill="midnightblue" stroke="midnightblue" points="911.15,-107.52 901.79,-112.48 912.2,-114.44 911.15,-107.52"/>
</g>
<!-- Node17&#45;&gt;Node4 -->
<g id="edge49" class="edge">
<title>Node17&#45;&gt;Node4</title>
<path fill="none" stroke="midnightblue" d="M417.72,-109.04C388.94,-98.88 348.33,-84.55 322.74,-75.52"/>
<polygon fill="midnightblue" stroke="midnightblue" points="416.77,-112.42 427.37,-112.44 419.1,-105.81 416.77,-112.42"/>
</g>
<!-- Node18&#45;&gt;Node4 -->
<g id="edge51" class="edge">
<title>Node18&#45;&gt;Node4</title>
<path fill="none" stroke="midnightblue" d="M116.48,-110.14C162.57,-99.22 232.11,-82.75 270.56,-73.64"/>
<polygon fill="midnightblue" stroke="midnightblue" points="115.66,-106.73 106.74,-112.44 117.28,-113.54 115.66,-106.73"/>
</g>
<!-- Node19&#45;&gt;Node4 -->
<g id="edge53" class="edge">
<title>Node19&#45;&gt;Node4</title>
<path fill="none" stroke="midnightblue" d="M203.62,-108.37C226.84,-98.26 258.78,-84.35 279.06,-75.52"/>
<polygon fill="midnightblue" stroke="midnightblue" points="202.03,-105.24 194.26,-112.44 204.83,-111.66 202.03,-105.24"/>
</g>
</g>
</svg>
