<?xml version="1.0" encoding="UTF-8" standalone="no"?>
<!DOCTYPE svg PUBLIC "-//W3C//DTD SVG 1.1//EN"
 "http://www.w3.org/Graphics/SVG/1.1/DTD/svg11.dtd">
<!-- Generated by graphviz version 3.0.0 (20220413.0242)
 -->
<!-- Title: model/openloopcoronarybc.hpp Pages: 1 -->
<svg width="1168pt" height="252pt"
 viewBox="0.00 0.00 1167.79 252.00" xmlns="http://www.w3.org/2000/svg" xmlns:xlink="http://www.w3.org/1999/xlink">
<g id="graph0" class="graph" transform="scale(1 1) rotate(0) translate(4 248)">
<title>model/openloopcoronarybc.hpp</title>
<!-- Node1 -->
<g id="node1" class="node">
<title>Node1</title>
<g id="a_node1"><a xlink:title="MODEL::OpenLoopCoronaryBC source file.">
<polygon fill="#bfbfbf" stroke="black" points="676.29,-224.5 676.29,-243.5 826.29,-243.5 826.29,-224.5 676.29,-224.5"/>
<text text-anchor="middle" x="751.29" y="-231.5" font-family="Helvetica,sans-Serif" font-size="10.00">model/openloopcoronarybc.hpp</text>
</a>
</g>
</g>
<!-- Node2 -->
<g id="node2" class="node">
<title>Node2</title>
<g id="a_node2"><a xlink:href="model_8hpp.html" target="_top" xlink:title="MODEL::Model source file.">
<polygon fill="none" stroke="black" points="503.29,-168.5 503.29,-187.5 593.29,-187.5 593.29,-168.5 503.29,-168.5"/>
<text text-anchor="middle" x="548.29" y="-175.5" font-family="Helvetica,sans-Serif" font-size="10.00">model/model.hpp</text>
</a>
</g>
</g>
<!-- Node1&#45;&gt;Node2 -->
<g id="edge1" class="edge">
<title>Node1&#45;&gt;Node2</title>
<path fill="none" stroke="midnightblue" d="M709.3,-221.83C670.97,-211.63 615.14,-196.78 580.31,-187.52"/>
<polygon fill="midnightblue" stroke="midnightblue" points="708.56,-225.26 719.13,-224.44 710.36,-218.49 708.56,-225.26"/>
</g>
<!-- Node3 -->
<g id="node3" class="node">
<title>Node3</title>
<g id="a_node3"><a xlink:href="densesystem_8hpp.html" target="_top" xlink:title="ALGEBRA::DenseSystem source file.">
<polygon fill="none" stroke="black" points="743.79,-112.5 743.79,-131.5 870.79,-131.5 870.79,-112.5 743.79,-112.5"/>
<text text-anchor="middle" x="807.29" y="-119.5" font-family="Helvetica,sans-Serif" font-size="10.00">algebra/densesystem.hpp</text>
</a>
</g>
</g>
<!-- Node2&#45;&gt;Node3 -->
<g id="edge2" class="edge">
<title>Node2&#45;&gt;Node3</title>
<path fill="none" stroke="midnightblue" d="M594.19,-166.28C641.35,-156.08 714.19,-140.92 761.36,-131.52"/>
<polygon fill="midnightblue" stroke="midnightblue" points="593.27,-162.9 584.24,-168.44 594.76,-169.74 593.27,-162.9"/>
</g>
<!-- Node4 -->
<g id="node4" class="node">
<title>Node4</title>
<g id="a_node4"><a xlink:href="main_8cpp.html" target="_top" xlink:title="Main routine of svZeroDSolver.">
<polygon fill="none" stroke="black" points="244.29,-56.5 244.29,-75.5 300.29,-75.5 300.29,-56.5 244.29,-56.5"/>
<text text-anchor="middle" x="272.29" y="-63.5" font-family="Helvetica,sans-Serif" font-size="10.00">main.cpp</text>
</a>
</g>
</g>
<!-- Node2&#45;&gt;Node4 -->
<g id="edge48" class="edge">
<title>Node2&#45;&gt;Node4</title>
<path fill="none" stroke="midnightblue" d="M533.67,-160.83C519.25,-145.89 495.87,-124.23 471.29,-112 467.44,-110.08 354.57,-85.1 300.56,-73.21"/>
<polygon fill="midnightblue" stroke="midnightblue" points="531.31,-163.43 540.7,-168.33 536.41,-158.64 531.31,-163.43"/>
</g>
<!-- Node13 -->
<g id="node13" class="node">
<title>Node13</title>
<g id="a_node13"><a xlink:href="integrator_8hpp.html" target="_top" xlink:title="ALGEBRA::Integrator source file.">
<polygon fill="none" stroke="black" points="28.29,-112.5 28.29,-131.5 138.29,-131.5 138.29,-112.5 28.29,-112.5"/>
<text text-anchor="middle" x="83.29" y="-119.5" font-family="Helvetica,sans-Serif" font-size="10.00">algebra/integrator.hpp</text>
</a>
</g>
</g>
<!-- Node2&#45;&gt;Node13 -->
<g id="edge28" class="edge">
<title>Node2&#45;&gt;Node13</title>
<path fill="none" stroke="midnightblue" d="M493.14,-171.3C415.78,-163.2 270.68,-147.6 147.29,-132 144.4,-131.63 141.43,-131.25 138.44,-130.85"/>
<polygon fill="midnightblue" stroke="midnightblue" points="492.83,-174.79 503.14,-172.35 493.56,-167.83 492.83,-174.79"/>
</g>
<!-- Node14 -->
<g id="node14" class="node">
<title>Node14</title>
<g id="a_node14"><a xlink:href="sparsesystem_8hpp.html" target="_top" xlink:title="ALGEBRA::SparseSystem source file.">
<polygon fill="none" stroke="black" points="595.29,-112.5 595.29,-131.5 725.29,-131.5 725.29,-112.5 595.29,-112.5"/>
<text text-anchor="middle" x="660.29" y="-119.5" font-family="Helvetica,sans-Serif" font-size="10.00">algebra/sparsesystem.hpp</text>
</a>
</g>
</g>
<!-- Node2&#45;&gt;Node14 -->
<g id="edge30" class="edge">
<title>Node2&#45;&gt;Node14</title>
<path fill="none" stroke="midnightblue" d="M570.18,-163.59C589.56,-153.61 617.5,-140.27 637.23,-131.65"/>
<polygon fill="midnightblue" stroke="midnightblue" points="568.4,-160.57 561.17,-168.32 571.65,-166.77 568.4,-160.57"/>
</g>
<!-- Node15 -->
<g id="node15" class="node">
<title>Node15</title>
<g id="a_node15"><a xlink:href="configreader_8hpp.html" target="_top" xlink:title="IO::ConfigReader source file.">
<polygon fill="none" stroke="black" points="156.29,-112.5 156.29,-131.5 254.29,-131.5 254.29,-112.5 156.29,-112.5"/>
<text text-anchor="middle" x="205.29" y="-119.5" font-family="Helvetica,sans-Serif" font-size="10.00">io/configreader.hpp</text>
</a>
</g>
</g>
<!-- Node2&#45;&gt;Node15 -->
<g id="edge42" class="edge">
<title>Node2&#45;&gt;Node15</title>
<path fill="none" stroke="midnightblue" d="M492.89,-168.28C426.88,-157.89 317.61,-140.68 254.47,-130.74"/>
<polygon fill="midnightblue" stroke="midnightblue" points="492.67,-171.79 503.1,-169.88 493.76,-164.87 492.67,-171.79"/>
</g>
<!-- Node16 -->
<g id="node16" class="node">
<title>Node16</title>
<g id="a_node16"><a xlink:href="csvwriter_8hpp.html" target="_top" xlink:title="IO::write_csv source file.">
<polygon fill="none" stroke="black" points="272.79,-112.5 272.79,-131.5 357.79,-131.5 357.79,-112.5 272.79,-112.5"/>
<text text-anchor="middle" x="315.29" y="-119.5" font-family="Helvetica,sans-Serif" font-size="10.00">io/csvwriter.hpp</text>
</a>
</g>
</g>
<!-- Node2&#45;&gt;Node16 -->
<g id="edge44" class="edge">
<title>Node2&#45;&gt;Node16</title>
<path fill="none" stroke="midnightblue" d="M501.49,-166.15C457.46,-155.95 392.44,-140.88 352.04,-131.52"/>
<polygon fill="midnightblue" stroke="midnightblue" points="500.84,-169.6 511.37,-168.44 502.42,-162.78 500.84,-169.6"/>
</g>
<!-- Node17 -->
<g id="node17" class="node">
<title>Node17</title>
<g id="a_node17"><a xlink:href="jsonwriter_8hpp.html" target="_top" xlink:title="IO::write_json source file.">
<polygon fill="none" stroke="black" points="375.79,-112.5 375.79,-131.5 462.79,-131.5 462.79,-112.5 375.79,-112.5"/>
<text text-anchor="middle" x="419.29" y="-119.5" font-family="Helvetica,sans-Serif" font-size="10.00">io/jsonwriter.hpp</text>
</a>
</g>
</g>
<!-- Node2&#45;&gt;Node17 -->
<g id="edge46" class="edge">
<title>Node2&#45;&gt;Node17</title>
<path fill="none" stroke="midnightblue" d="M518.44,-164.5C494.25,-154.38 460.83,-140.39 439.64,-131.52"/>
<polygon fill="midnightblue" stroke="midnightblue" points="517.28,-167.81 527.85,-168.44 519.98,-161.35 517.28,-167.81"/>
</g>
<!-- Node3&#45;&gt;Node1 -->
<g id="edge24" class="edge">
<title>Node3&#45;&gt;Node1</title>
<path fill="none" stroke="midnightblue" d="M798.32,-140.63C786.14,-164.55 764.85,-206.38 755.69,-224.37"/>
<polygon fill="midnightblue" stroke="midnightblue" points="801.5,-142.09 802.92,-131.59 795.26,-138.92 801.5,-142.09"/>
</g>
<!-- Node3&#45;&gt;Node2 -->
<g id="edge23" class="edge">
<title>Node3&#45;&gt;Node2</title>
<path fill="none" stroke="midnightblue" d="M761.25,-133.75C713.86,-144 640.63,-159.24 593.53,-168.62"/>
<polygon fill="midnightblue" stroke="midnightblue" points="762.22,-137.12 771.25,-131.58 760.73,-130.28 762.22,-137.12"/>
</g>
<!-- Node3&#45;&gt;Node4 -->
<g id="edge3" class="edge">
<title>Node3&#45;&gt;Node4</title>
<path fill="none" stroke="midnightblue" d="M733.41,-111.93C562.42,-93.19 371.2,-75.8 300.44,-69.49"/>
<polygon fill="midnightblue" stroke="midnightblue" points="733.28,-115.44 743.6,-113.05 734.04,-108.48 733.28,-115.44"/>
</g>
<!-- Node5 -->
<g id="node5" class="node">
<title>Node5</title>
<g id="a_node5"><a xlink:href="block_8hpp.html" target="_top" xlink:title="MODEL::Block source file.">
<polygon fill="none" stroke="black" points="698.79,-56.5 698.79,-75.5 785.79,-75.5 785.79,-56.5 698.79,-56.5"/>
<text text-anchor="middle" x="742.29" y="-63.5" font-family="Helvetica,sans-Serif" font-size="10.00">model/block.hpp</text>
</a>
</g>
</g>
<!-- Node3&#45;&gt;Node5 -->
<g id="edge4" class="edge">
<title>Node3&#45;&gt;Node5</title>
<path fill="none" stroke="midnightblue" d="M789.02,-105.82C777.37,-96.15 762.69,-83.95 752.92,-75.83"/>
<polygon fill="midnightblue" stroke="midnightblue" points="786.92,-108.63 796.85,-112.32 791.39,-103.24 786.92,-108.63"/>
</g>
<!-- Node6 -->
<g id="node6" class="node">
<title>Node6</title>
<g id="a_node6"><a xlink:href="bloodvessel_8hpp.html" target="_top" xlink:title="MODEL::BloodVessel source file.">
<polygon fill="none" stroke="black" points="272.29,-0.5 272.29,-19.5 388.29,-19.5 388.29,-0.5 272.29,-0.5"/>
<text text-anchor="middle" x="330.29" y="-7.5" font-family="Helvetica,sans-Serif" font-size="10.00">model/bloodvessel.hpp</text>
</a>
</g>
</g>
<!-- Node3&#45;&gt;Node6 -->
<g id="edge19" class="edge">
<title>Node3&#45;&gt;Node6</title>
<path fill="none" stroke="midnightblue" d="M757.3,-110.3C715.76,-101.34 655.12,-88.11 602.29,-76 516.87,-56.42 416.69,-32.14 365.02,-19.52"/>
<polygon fill="midnightblue" stroke="midnightblue" points="756.66,-113.74 767.18,-112.42 758.14,-106.9 756.66,-113.74"/>
</g>
<!-- Node7 -->
<g id="node7" class="node">
<title>Node7</title>
<g id="a_node7"><a xlink:href="closedloopheartpulmonary_8hpp.html" target="_top" xlink:title="MODEL::ClosedLoopHeartPulmonary source file.">
<polygon fill="none" stroke="black" points="842.29,-0.5 842.29,-19.5 1018.29,-19.5 1018.29,-0.5 842.29,-0.5"/>
<text text-anchor="middle" x="930.29" y="-7.5" font-family="Helvetica,sans-Serif" font-size="10.00">model/closedloopheartpulmonary.hpp</text>
</a>
</g>
</g>
<!-- Node3&#45;&gt;Node7 -->
<g id="edge20" class="edge">
<title>Node3&#45;&gt;Node7</title>
<path fill="none" stroke="midnightblue" d="M850.23,-109.02C868.87,-101.99 889.72,-91.38 904.29,-76 919.67,-59.77 926.38,-33.29 928.93,-19.68"/>
<polygon fill="midnightblue" stroke="midnightblue" points="848.99,-105.75 840.73,-112.38 851.32,-112.35 848.99,-105.75"/>
</g>
<!-- Node8 -->
<g id="node8" class="node">
<title>Node8</title>
<g id="a_node8"><a xlink:href="flowreferencebc_8hpp.html" target="_top" xlink:title="MODEL::FlowReferenceBC source file.">
<polygon fill="none" stroke="black" points="406.29,-0.5 406.29,-19.5 538.29,-19.5 538.29,-0.5 406.29,-0.5"/>
<text text-anchor="middle" x="472.29" y="-7.5" font-family="Helvetica,sans-Serif" font-size="10.00">model/flowreferencebc.hpp</text>
</a>
</g>
</g>
<!-- Node3&#45;&gt;Node8 -->
<g id="edge21" class="edge">
<title>Node3&#45;&gt;Node8</title>
<path fill="none" stroke="midnightblue" d="M769.87,-109.46C740.98,-100.5 700.03,-87.67 664.29,-76 604.08,-56.34 533.62,-32.19 497.09,-19.59"/>
<polygon fill="midnightblue" stroke="midnightblue" points="768.97,-112.85 779.55,-112.47 771.04,-106.16 768.97,-112.85"/>
</g>
<!-- Node9 -->
<g id="node9" class="node">
<title>Node9</title>
<g id="a_node9"><a xlink:href="junction_8hpp.html" target="_top" xlink:title="MODEL::Junction source file.">
<polygon fill="none" stroke="black" points="726.29,-0.5 726.29,-19.5 824.29,-19.5 824.29,-0.5 726.29,-0.5"/>
<text text-anchor="middle" x="775.29" y="-7.5" font-family="Helvetica,sans-Serif" font-size="10.00">model/junction.hpp</text>
</a>
</g>
</g>
<!-- Node3&#45;&gt;Node9 -->
<g id="edge22" class="edge">
<title>Node3&#45;&gt;Node9</title>
<path fill="none" stroke="midnightblue" d="M819.81,-103.7C827.83,-90.35 835.51,-71.59 828.29,-56 820.79,-39.79 804.25,-27.28 791.63,-19.61"/>
<polygon fill="midnightblue" stroke="midnightblue" points="816.7,-102.06 814.12,-112.34 822.54,-105.91 816.7,-102.06"/>
</g>
<!-- Node10 -->
<g id="node10" class="node">
<title>Node10</title>
<g id="a_node10"><a xlink:href="pressurereferencebc_8hpp.html" target="_top" xlink:title="MODEL::PressureReferenceBC source file.">
<polygon fill="none" stroke="black" points="556.29,-0.5 556.29,-19.5 708.29,-19.5 708.29,-0.5 556.29,-0.5"/>
<text text-anchor="middle" x="632.29" y="-7.5" font-family="Helvetica,sans-Serif" font-size="10.00">model/pressurereferencebc.hpp</text>
</a>
</g>
</g>
<!-- Node3&#45;&gt;Node10 -->
<g id="edge25" class="edge">
<title>Node3&#45;&gt;Node10</title>
<path fill="none" stroke="midnightblue" d="M762.48,-109.56C739.31,-102.3 711.34,-91.33 689.29,-76 666.62,-60.23 647.09,-33.55 637.9,-19.79"/>
<polygon fill="midnightblue" stroke="midnightblue" points="761.5,-112.92 772.09,-112.45 763.52,-106.22 761.5,-112.92"/>
</g>
<!-- Node11 -->
<g id="node11" class="node">
<title>Node11</title>
<g id="a_node11"><a xlink:href="resistancebc_8hpp.html" target="_top" xlink:title="MODEL::ResistanceBC source file.">
<polygon fill="none" stroke="black" points="134.79,-0.5 134.79,-19.5 253.79,-19.5 253.79,-0.5 134.79,-0.5"/>
<text text-anchor="middle" x="194.29" y="-7.5" font-family="Helvetica,sans-Serif" font-size="10.00">model/resistancebc.hpp</text>
</a>
</g>
</g>
<!-- Node3&#45;&gt;Node11 -->
<g id="edge26" class="edge">
<title>Node3&#45;&gt;Node11</title>
<path fill="none" stroke="midnightblue" d="M733.8,-111.14C674.81,-102.86 589.97,-90.15 516.29,-76 477.33,-68.52 468.12,-64.18 429.29,-56 364.46,-42.35 289.19,-28.24 241.66,-19.54"/>
<polygon fill="midnightblue" stroke="midnightblue" points="733.38,-114.61 743.77,-112.53 734.35,-107.68 733.38,-114.61"/>
</g>
<!-- Node12 -->
<g id="node12" class="node">
<title>Node12</title>
<g id="a_node12"><a xlink:href="windkesselbc_8hpp.html" target="_top" xlink:title="MODEL::WindkesselBC source file.">
<polygon fill="none" stroke="black" points="1036.79,-0.5 1036.79,-19.5 1159.79,-19.5 1159.79,-0.5 1036.79,-0.5"/>
<text text-anchor="middle" x="1098.29" y="-7.5" font-family="Helvetica,sans-Serif" font-size="10.00">model/windkesselbc.hpp</text>
</a>
</g>
</g>
<!-- Node3&#45;&gt;Node12 -->
<g id="edge27" class="edge">
<title>Node3&#45;&gt;Node12</title>
<path fill="none" stroke="midnightblue" d="M862.62,-110.3C897.14,-102.72 942.11,-91.21 980.29,-76 1020.49,-59.99 1064.21,-33.18 1085.37,-19.53"/>
<polygon fill="midnightblue" stroke="midnightblue" points="861.76,-106.9 852.71,-112.42 863.23,-113.74 861.76,-106.9"/>
</g>
<!-- Node5&#45;&gt;Node1 -->
<g id="edge12" class="edge">
<title>Node5&#45;&gt;Node1</title>
<path fill="none" stroke="midnightblue" d="M795.81,-69.72C825.86,-74.33 861.08,-85.52 880.29,-112 915.82,-160.96 820.28,-206.22 774.35,-224.48"/>
<polygon fill="midnightblue" stroke="midnightblue" points="796.23,-66.25 785.85,-68.4 795.3,-73.19 796.23,-66.25"/>
</g>
<!-- Node5&#45;&gt;Node6 -->
<g id="edge5" class="edge">
<title>Node5&#45;&gt;Node6</title>
<path fill="none" stroke="midnightblue" d="M688.69,-58.07C620.85,-49.29 500.38,-33.65 397.29,-20 394.38,-19.61 391.4,-19.22 388.39,-18.82"/>
<polygon fill="midnightblue" stroke="midnightblue" points="688.35,-61.56 698.72,-59.37 689.25,-54.62 688.35,-61.56"/>
</g>
<!-- Node5&#45;&gt;Node7 -->
<g id="edge7" class="edge">
<title>Node5&#45;&gt;Node7</title>
<path fill="none" stroke="midnightblue" d="M782.09,-53.57C817.56,-43.38 868.66,-28.7 900.64,-19.52"/>
<polygon fill="midnightblue" stroke="midnightblue" points="780.73,-50.32 772.08,-56.44 782.66,-57.05 780.73,-50.32"/>
</g>
<!-- Node5&#45;&gt;Node8 -->
<g id="edge8" class="edge">
<title>Node5&#45;&gt;Node8</title>
<path fill="none" stroke="midnightblue" d="M689.66,-54.47C638.63,-44.27 562.19,-28.98 514.87,-19.52"/>
<polygon fill="midnightblue" stroke="midnightblue" points="689.02,-57.91 699.51,-56.44 690.39,-51.05 689.02,-57.91"/>
</g>
<!-- Node5&#45;&gt;Node9 -->
<g id="edge10" class="edge">
<title>Node5&#45;&gt;Node9</title>
<path fill="none" stroke="midnightblue" d="M753.12,-47.27C758.76,-38.05 765.41,-27.17 769.94,-19.75"/>
<polygon fill="midnightblue" stroke="midnightblue" points="749.97,-45.73 747.74,-56.08 755.94,-49.38 749.97,-45.73"/>
</g>
<!-- Node5&#45;&gt;Node10 -->
<g id="edge13" class="edge">
<title>Node5&#45;&gt;Node10</title>
<path fill="none" stroke="midnightblue" d="M715.53,-51.86C695.13,-41.85 667.63,-28.35 649.92,-19.65"/>
<polygon fill="midnightblue" stroke="midnightblue" points="714.1,-55.06 724.62,-56.32 717.18,-48.78 714.1,-55.06"/>
</g>
<!-- Node5&#45;&gt;Node11 -->
<g id="edge15" class="edge">
<title>Node5&#45;&gt;Node11</title>
<path fill="none" stroke="midnightblue" d="M688.56,-60.59C599.9,-53.16 417.39,-37.28 263.29,-20 260.29,-19.66 257.22,-19.31 254.11,-18.94"/>
<polygon fill="midnightblue" stroke="midnightblue" points="688.39,-64.09 698.65,-61.43 688.97,-57.11 688.39,-64.09"/>
</g>
<!-- Node5&#45;&gt;Node12 -->
<g id="edge17" class="edge">
<title>Node5&#45;&gt;Node12</title>
<path fill="none" stroke="midnightblue" d="M796.18,-56.83C862.49,-46.77 974.54,-29.77 1041.96,-19.55"/>
<polygon fill="midnightblue" stroke="midnightblue" points="795.31,-53.42 785.94,-58.38 796.36,-60.34 795.31,-53.42"/>
</g>
<!-- Node6&#45;&gt;Node2 -->
<g id="edge6" class="edge">
<title>Node6&#45;&gt;Node2</title>
<path fill="none" stroke="midnightblue" d="M277.18,-21.69C178.76,-42.64 -18.66,-90.69 19.29,-132 51.71,-167.3 380.67,-174.94 502.89,-176.57"/>
<polygon fill="midnightblue" stroke="midnightblue" points="278.17,-25.05 287.24,-19.56 276.73,-18.2 278.17,-25.05"/>
</g>
<!-- Node8&#45;&gt;Node2 -->
<g id="edge9" class="edge">
<title>Node8&#45;&gt;Node2</title>
<path fill="none" stroke="midnightblue" d="M480.38,-28.66C496.5,-63.88 532.14,-141.72 544.21,-168.08"/>
<polygon fill="midnightblue" stroke="midnightblue" points="483.56,-27.2 476.21,-19.57 477.19,-30.12 483.56,-27.2"/>
</g>
<!-- Node9&#45;&gt;Node2 -->
<g id="edge11" class="edge">
<title>Node9&#45;&gt;Node2</title>
<path fill="none" stroke="midnightblue" d="M801.87,-24.28C843.11,-46.58 914.41,-92.94 880.29,-132 843.6,-174 675.61,-178.33 593.6,-177.86"/>
<polygon fill="midnightblue" stroke="midnightblue" points="803.32,-21.09 792.84,-19.53 800.06,-27.28 803.32,-21.09"/>
</g>
<!-- Node10&#45;&gt;Node2 -->
<g id="edge14" class="edge">
<title>Node10&#45;&gt;Node2</title>
<path fill="none" stroke="midnightblue" d="M623.35,-28.66C605.53,-63.88 566.14,-141.72 552.81,-168.08"/>
<polygon fill="midnightblue" stroke="midnightblue" points="626.56,-30.07 627.96,-19.57 620.32,-26.91 626.56,-30.07"/>
</g>
<!-- Node11&#45;&gt;Node2 -->
<g id="edge16" class="edge">
<title>Node11&#45;&gt;Node2</title>
<path fill="none" stroke="midnightblue" d="M147.7,-22.1C79.09,-40.5 -36.14,-80.43 11.29,-132 44.3,-167.89 379.75,-175.17 503.1,-176.63"/>
<polygon fill="midnightblue" stroke="midnightblue" points="148.67,-25.47 157.46,-19.55 146.9,-18.69 148.67,-25.47"/>
</g>
<!-- Node12&#45;&gt;Node2 -->
<g id="edge18" class="edge">
<title>Node12&#45;&gt;Node2</title>
<path fill="none" stroke="midnightblue" d="M1081,-26.12C1064.54,-40.08 1038.73,-60.88 1014.29,-76 965.61,-106.13 953.17,-115.69 898.29,-132 792,-163.58 661.05,-173 593.44,-175.81"/>
<polygon fill="midnightblue" stroke="midnightblue" points="1083.39,-28.68 1088.7,-19.51 1078.83,-23.37 1083.39,-28.68"/>
</g>
<!-- Node13&#45;&gt;Node4 -->
<g id="edge29" class="edge">
<title>Node13&#45;&gt;Node4</title>
<path fill="none" stroke="midnightblue" d="M122.99,-109.66C159.23,-99.3 211.9,-84.25 244.03,-75.08"/>
<polygon fill="midnightblue" stroke="midnightblue" points="121.89,-106.33 113.24,-112.44 123.82,-113.06 121.89,-106.33"/>
</g>
<!-- Node14&#45;&gt;Node1 -->
<g id="edge38" class="edge">
<title>Node14&#45;&gt;Node1</title>
<path fill="none" stroke="midnightblue" d="M673.83,-139.36C693.42,-163.05 729,-206.05 744.15,-224.37"/>
<polygon fill="midnightblue" stroke="midnightblue" points="676.47,-137.07 667.4,-131.59 671.08,-141.53 676.47,-137.07"/>
</g>
<!-- Node14&#45;&gt;Node2 -->
<g id="edge37" class="edge">
<title>Node14&#45;&gt;Node2</title>
<path fill="none" stroke="midnightblue" d="M638.68,-136.27C619.21,-146.31 590.97,-159.79 571.13,-168.44"/>
<polygon fill="midnightblue" stroke="midnightblue" points="640.49,-139.27 647.71,-131.52 637.23,-133.08 640.49,-139.27"/>
</g>
<!-- Node14&#45;&gt;Node4 -->
<g id="edge31" class="edge">
<title>Node14&#45;&gt;Node4</title>
<path fill="none" stroke="midnightblue" d="M588.79,-111.05C502.2,-99 360.51,-79.28 300.53,-70.93"/>
<polygon fill="midnightblue" stroke="midnightblue" points="588.42,-114.53 598.81,-112.44 589.39,-107.6 588.42,-114.53"/>
</g>
<!-- Node14&#45;&gt;Node5 -->
<g id="edge32" class="edge">
<title>Node14&#45;&gt;Node5</title>
<path fill="none" stroke="midnightblue" d="M682.12,-106.62C697.1,-96.76 716.49,-83.99 729.15,-75.65"/>
<polygon fill="midnightblue" stroke="midnightblue" points="679.89,-103.9 673.47,-112.32 683.74,-109.75 679.89,-103.9"/>
</g>
<!-- Node14&#45;&gt;Node6 -->
<g id="edge33" class="edge">
<title>Node14&#45;&gt;Node6</title>
<path fill="none" stroke="midnightblue" d="M621.19,-109.54C591.48,-100.72 549.68,-88.02 513.29,-76 455.35,-56.85 387.86,-32.29 353.29,-19.54"/>
<polygon fill="midnightblue" stroke="midnightblue" points="620.58,-113.01 631.16,-112.5 622.57,-106.3 620.58,-113.01"/>
</g>
<!-- Node14&#45;&gt;Node7 -->
<g id="edge34" class="edge">
<title>Node14&#45;&gt;Node7</title>
<path fill="none" stroke="midnightblue" d="M706.61,-109.9C736.95,-101.98 777.15,-90.23 811.29,-76 851.27,-59.34 895.26,-33.05 916.84,-19.58"/>
<polygon fill="midnightblue" stroke="midnightblue" points="705.54,-106.56 696.73,-112.44 707.28,-113.34 705.54,-106.56"/>
</g>
<!-- Node14&#45;&gt;Node8 -->
<g id="edge35" class="edge">
<title>Node14&#45;&gt;Node8</title>
<path fill="none" stroke="midnightblue" d="M618.54,-109.42C595.11,-101.87 565.91,-90.69 542.29,-76 516.38,-59.89 491.55,-33.36 479.64,-19.71"/>
<polygon fill="midnightblue" stroke="midnightblue" points="617.61,-112.79 628.2,-112.43 619.7,-106.11 617.61,-112.79"/>
</g>
<!-- Node14&#45;&gt;Node9 -->
<g id="edge36" class="edge">
<title>Node14&#45;&gt;Node9</title>
<path fill="none" stroke="midnightblue" d="M712.64,-110.17C746.17,-102.04 785.23,-89.95 795.29,-76 807.86,-58.57 792.45,-33.07 782.49,-19.78"/>
<polygon fill="midnightblue" stroke="midnightblue" points="711.84,-106.76 702.9,-112.45 713.44,-113.57 711.84,-106.76"/>
</g>
<!-- Node14&#45;&gt;Node10 -->
<g id="edge39" class="edge">
<title>Node14&#45;&gt;Node10</title>
<path fill="none" stroke="midnightblue" d="M655.63,-102.67C649.51,-78.62 639.01,-37.39 634.48,-19.59"/>
<polygon fill="midnightblue" stroke="midnightblue" points="652.24,-103.54 658.09,-112.37 659.02,-101.81 652.24,-103.54"/>
</g>
<!-- Node14&#45;&gt;Node11 -->
<g id="edge40" class="edge">
<title>Node14&#45;&gt;Node11</title>
<path fill="none" stroke="midnightblue" d="M609.63,-110.38C567.88,-101.51 507.14,-88.38 454.29,-76 372.29,-56.8 276.27,-32.26 227.05,-19.52"/>
<polygon fill="midnightblue" stroke="midnightblue" points="609.05,-113.83 619.56,-112.48 610.5,-106.98 609.05,-113.83"/>
</g>
<!-- Node14&#45;&gt;Node12 -->
<g id="edge41" class="edge">
<title>Node14&#45;&gt;Node12</title>
<path fill="none" stroke="midnightblue" d="M706.24,-110C743.69,-100.99 797.95,-87.84 845.29,-76 924.48,-56.2 1017.39,-32.11 1065.58,-19.55"/>
<polygon fill="midnightblue" stroke="midnightblue" points="705.04,-106.69 696.14,-112.43 706.68,-113.49 705.04,-106.69"/>
</g>
<!-- Node15&#45;&gt;Node4 -->
<g id="edge43" class="edge">
<title>Node15&#45;&gt;Node4</title>
<path fill="none" stroke="midnightblue" d="M224.13,-105.82C236.13,-96.15 251.26,-83.95 261.33,-75.83"/>
<polygon fill="midnightblue" stroke="midnightblue" points="221.65,-103.32 216.06,-112.32 226.04,-108.77 221.65,-103.32"/>
</g>
<!-- Node16&#45;&gt;Node4 -->
<g id="edge45" class="edge">
<title>Node16&#45;&gt;Node4</title>
<path fill="none" stroke="midnightblue" d="M301.87,-104.14C294.38,-94.74 285.35,-83.4 279.26,-75.75"/>
<polygon fill="midnightblue" stroke="midnightblue" points="299.22,-106.44 308.19,-112.08 304.7,-102.08 299.22,-106.44"/>
</g>
<!-- Node17&#45;&gt;Node4 -->
<g id="edge47" class="edge">
<title>Node17&#45;&gt;Node4</title>
<path fill="none" stroke="midnightblue" d="M386.37,-108.91C358.73,-98.75 319.95,-84.51 295.48,-75.52"/>
<polygon fill="midnightblue" stroke="midnightblue" points="385.41,-112.28 396,-112.44 387.82,-105.71 385.41,-112.28"/>
</g>
</g>
</svg>
