<?xml version="1.0" encoding="UTF-8" standalone="no"?>
<!DOCTYPE svg PUBLIC "-//W3C//DTD SVG 1.1//EN"
 "http://www.w3.org/Graphics/SVG/1.1/DTD/svg11.dtd">
<!-- Generated by graphviz version 3.0.0 (20220413.0242)
 -->
<!-- Title: model/pressurereferencebc.hpp Pages: 1 -->
<svg width="1007pt" height="420pt"
 viewBox="0.00 0.00 1007.11 420.00" xmlns="http://www.w3.org/2000/svg" xmlns:xlink="http://www.w3.org/1999/xlink">
<g id="graph0" class="graph" transform="scale(1 1) rotate(0) translate(4 416)">
<title>model/pressurereferencebc.hpp</title>
<!-- Node1 -->
<g id="node1" class="node">
<title>Node1</title>
<g id="a_node1"><a xlink:title="MODEL::PressureReferenceBC source file.">
<polygon fill="#bfbfbf" stroke="black" points="388.95,-392.5 388.95,-411.5 540.95,-411.5 540.95,-392.5 388.95,-392.5"/>
<text text-anchor="middle" x="464.95" y="-399.5" font-family="Helvetica,sans-Serif" font-size="10.00">model/pressurereferencebc.hpp</text>
</a>
</g>
</g>
<!-- Node2 -->
<g id="node2" class="node">
<title>Node2</title>
<g id="a_node2"><a xlink:href="densesystem_8hpp.html" target="_top" xlink:title="ALGEBRA::DenseSystem source file.">
<polygon fill="none" stroke="black" points="397.95,-336.5 397.95,-355.5 531.95,-355.5 531.95,-336.5 397.95,-336.5"/>
<text text-anchor="middle" x="464.95" y="-343.5" font-family="Helvetica,sans-Serif" font-size="10.00">../algebra/densesystem.hpp</text>
</a>
</g>
</g>
<!-- Node1&#45;&gt;Node2 -->
<g id="edge1" class="edge">
<title>Node1&#45;&gt;Node2</title>
<path fill="none" stroke="midnightblue" d="M464.95,-392.08C464.95,-385.01 464.95,-374.86 464.95,-365.99"/>
<polygon fill="midnightblue" stroke="midnightblue" points="468.45,-365.75 464.95,-355.75 461.45,-365.75 468.45,-365.75"/>
</g>
<!-- Node8 -->
<g id="node8" class="node">
<title>Node8</title>
<g id="a_node8"><a xlink:href="sparsesystem_8hpp.html" target="_top" xlink:title="ALGEBRA::SparseSystem source file.">
<polygon fill="none" stroke="black" points="448.45,-112.5 448.45,-131.5 585.45,-131.5 585.45,-112.5 448.45,-112.5"/>
<text text-anchor="middle" x="516.95" y="-119.5" font-family="Helvetica,sans-Serif" font-size="10.00">../algebra/sparsesystem.hpp</text>
</a>
</g>
</g>
<!-- Node1&#45;&gt;Node8 -->
<g id="edge58" class="edge">
<title>Node1&#45;&gt;Node8</title>
<path fill="none" stroke="midnightblue" d="M541.31,-401.15C650.36,-396.73 847.59,-370.5 938.95,-244 997.8,-162.51 1034.77,-247.89 787.95,-188 751.91,-179.26 742.99,-176.72 706.95,-168 657.95,-156.15 601.76,-142.88 563.27,-133.84"/>
<polygon fill="midnightblue" stroke="midnightblue" points="563.93,-130.4 553.39,-131.52 562.33,-137.22 563.93,-130.4"/>
</g>
<!-- Node13 -->
<g id="node13" class="node">
<title>Node13</title>
<g id="a_node13"><a xlink:href="block_8hpp.html" target="_top" xlink:title="MODEL::Block source file.">
<polygon fill="none" stroke="black" points="341.95,-168.5 341.95,-187.5 399.95,-187.5 399.95,-168.5 341.95,-168.5"/>
<text text-anchor="middle" x="370.95" y="-175.5" font-family="Helvetica,sans-Serif" font-size="10.00">block.hpp</text>
</a>
</g>
</g>
<!-- Node1&#45;&gt;Node13 -->
<g id="edge59" class="edge">
<title>Node1&#45;&gt;Node13</title>
<path fill="none" stroke="midnightblue" d="M388.83,-399.04C286.05,-391.81 106.19,-361.91 22.95,-244 17.82,-236.74 17.08,-230.68 22.95,-224 43.09,-201.08 244.93,-186.47 331.67,-181.2"/>
<polygon fill="midnightblue" stroke="midnightblue" points="332.13,-184.68 341.9,-180.59 331.71,-177.69 332.13,-184.68"/>
</g>
<!-- Node21 -->
<g id="node21" class="node">
<title>Node21</title>
<g id="a_node21"><a xlink:href="timedependentparameter_8hpp.html" target="_top" xlink:title="MODEL::TimeDependentParameter source file.">
<polygon fill="none" stroke="black" points="796.95,-168.5 796.95,-187.5 938.95,-187.5 938.95,-168.5 796.95,-168.5"/>
<text text-anchor="middle" x="867.95" y="-175.5" font-family="Helvetica,sans-Serif" font-size="10.00">timedependentparameter.hpp</text>
</a>
</g>
</g>
<!-- Node1&#45;&gt;Node21 -->
<g id="edge60" class="edge">
<title>Node1&#45;&gt;Node21</title>
<path fill="none" stroke="midnightblue" d="M541.16,-399.78C675.61,-396.84 943.48,-387.11 971.95,-356 1011.55,-312.72 1004.16,-273.03 971.95,-224 961.37,-207.91 943.68,-197.54 925.86,-190.88"/>
<polygon fill="midnightblue" stroke="midnightblue" points="926.59,-187.43 915.99,-187.54 924.35,-194.06 926.59,-187.43"/>
</g>
<!-- Node3 -->
<g id="node3" class="node">
<title>Node3</title>
<g id="a_node3"><a xlink:title=" ">
<polygon fill="none" stroke="#bfbfbf" points="512.45,-280.5 512.45,-299.5 583.45,-299.5 583.45,-280.5 512.45,-280.5"/>
<text text-anchor="middle" x="547.95" y="-287.5" font-family="Helvetica,sans-Serif" font-size="10.00">Eigen/Dense</text>
</a>
</g>
</g>
<!-- Node2&#45;&gt;Node3 -->
<g id="edge2" class="edge">
<title>Node2&#45;&gt;Node3</title>
<path fill="none" stroke="midnightblue" d="M478.28,-336.32C491.11,-327.98 510.73,-315.21 525.89,-305.35"/>
<polygon fill="midnightblue" stroke="midnightblue" points="528.17,-308.04 534.64,-299.65 524.35,-302.17 528.17,-308.04"/>
</g>
<!-- Node4 -->
<g id="node4" class="node">
<title>Node4</title>
<g id="a_node4"><a xlink:href="model_8hpp.html" target="_top" xlink:title="MODEL::Model source file.">
<polygon fill="none" stroke="black" points="225.95,-280.5 225.95,-299.5 323.95,-299.5 323.95,-280.5 225.95,-280.5"/>
<text text-anchor="middle" x="274.95" y="-287.5" font-family="Helvetica,sans-Serif" font-size="10.00">../model/model.hpp</text>
</a>
</g>
</g>
<!-- Node2&#45;&gt;Node4 -->
<g id="edge3" class="edge">
<title>Node2&#45;&gt;Node4</title>
<path fill="none" stroke="midnightblue" d="M429.75,-336.44C395.5,-327.28 343.97,-312.69 309.83,-302.52"/>
<polygon fill="midnightblue" stroke="midnightblue" points="310.41,-299.04 299.83,-299.52 308.4,-305.74 310.41,-299.04"/>
</g>
<!-- Node4&#45;&gt;Node1 -->
<g id="edge43" class="edge">
<title>Node4&#45;&gt;Node1</title>
<path fill="none" stroke="midnightblue" d="M289.79,-299.59C322.6,-318.59 401.56,-364.3 441.28,-387.3"/>
<polygon fill="midnightblue" stroke="midnightblue" points="439.63,-390.39 450.04,-392.37 443.14,-384.33 439.63,-390.39"/>
</g>
<!-- Node4&#45;&gt;Node2 -->
<g id="edge7" class="edge">
<title>Node4&#45;&gt;Node2</title>
<path fill="none" stroke="midnightblue" d="M309.99,-299.52C344.19,-308.66 395.72,-323.26 429.91,-333.44"/>
<polygon fill="midnightblue" stroke="midnightblue" points="429.34,-336.92 439.93,-336.44 431.36,-330.22 429.34,-336.92"/>
</g>
<!-- Node5 -->
<g id="node5" class="node">
<title>Node5</title>
<g id="a_node5"><a xlink:title=" ">
<polygon fill="none" stroke="#bfbfbf" points="90.45,-112.5 90.45,-131.5 125.45,-131.5 125.45,-112.5 90.45,-112.5"/>
<text text-anchor="middle" x="107.95" y="-119.5" font-family="Helvetica,sans-Serif" font-size="10.00">map</text>
</a>
</g>
</g>
<!-- Node4&#45;&gt;Node5 -->
<g id="edge4" class="edge">
<title>Node4&#45;&gt;Node5</title>
<path fill="none" stroke="midnightblue" d="M225.81,-287.45C159.94,-284.21 48.3,-274.28 22.95,-244 -7.61,-207.5 50.69,-160.39 85.16,-137.19"/>
<polygon fill="midnightblue" stroke="midnightblue" points="87.3,-139.98 93.75,-131.57 83.47,-134.12 87.3,-139.98"/>
</g>
<!-- Node6 -->
<g id="node6" class="node">
<title>Node6</title>
<g id="a_node6"><a xlink:title=" ">
<polygon fill="none" stroke="#bfbfbf" points="32.45,-224.5 32.45,-243.5 61.45,-243.5 61.45,-224.5 32.45,-224.5"/>
<text text-anchor="middle" x="46.95" y="-231.5" font-family="Helvetica,sans-Serif" font-size="10.00">list</text>
</a>
</g>
</g>
<!-- Node4&#45;&gt;Node6 -->
<g id="edge5" class="edge">
<title>Node4&#45;&gt;Node6</title>
<path fill="none" stroke="midnightblue" d="M227.06,-280.43C187.6,-272.92 130.09,-260.95 71.37,-243.77"/>
<polygon fill="midnightblue" stroke="midnightblue" points="72.14,-240.35 61.56,-240.85 70.14,-247.06 72.14,-240.35"/>
</g>
<!-- Node7 -->
<g id="node7" class="node">
<title>Node7</title>
<g id="a_node7"><a xlink:title=" ">
<polygon fill="none" stroke="#bfbfbf" points="79.95,-224.5 79.95,-243.5 125.95,-243.5 125.95,-224.5 79.95,-224.5"/>
<text text-anchor="middle" x="102.95" y="-231.5" font-family="Helvetica,sans-Serif" font-size="10.00">variant</text>
</a>
</g>
</g>
<!-- Node4&#45;&gt;Node7 -->
<g id="edge6" class="edge">
<title>Node4&#45;&gt;Node7</title>
<path fill="none" stroke="midnightblue" d="M247.69,-280.44C217.43,-270.94 168.59,-255.61 136.13,-245.42"/>
<polygon fill="midnightblue" stroke="midnightblue" points="136.8,-241.96 126.21,-242.3 134.7,-248.64 136.8,-241.96"/>
</g>
<!-- Node4&#45;&gt;Node8 -->
<g id="edge8" class="edge">
<title>Node4&#45;&gt;Node8</title>
<path fill="none" stroke="midnightblue" d="M255.33,-280.49C235.12,-268.55 208.91,-245.84 219.95,-224 238.87,-186.55 257.67,-185.19 295.95,-168 340.68,-147.91 394.83,-136.61 438.38,-130.36"/>
<polygon fill="midnightblue" stroke="midnightblue" points="438.93,-133.82 448.36,-128.99 437.98,-126.88 438.93,-133.82"/>
</g>
<!-- Node12 -->
<g id="node12" class="node">
<title>Node12</title>
<g id="a_node12"><a xlink:href="junction_8hpp.html" target="_top" xlink:title="MODEL::Junction source file.">
<polygon fill="none" stroke="black" points="237.95,-224.5 237.95,-243.5 305.95,-243.5 305.95,-224.5 237.95,-224.5"/>
<text text-anchor="middle" x="271.95" y="-231.5" font-family="Helvetica,sans-Serif" font-size="10.00">junction.hpp</text>
</a>
</g>
</g>
<!-- Node4&#45;&gt;Node12 -->
<g id="edge13" class="edge">
<title>Node4&#45;&gt;Node12</title>
<path fill="none" stroke="midnightblue" d="M274.45,-280.08C274.06,-273.01 273.49,-262.86 273,-253.99"/>
<polygon fill="midnightblue" stroke="midnightblue" points="276.48,-253.54 272.43,-243.75 269.49,-253.93 276.48,-253.54"/>
</g>
<!-- Node15 -->
<g id="node15" class="node">
<title>Node15</title>
<g id="a_node15"><a xlink:href="node_8hpp.html" target="_top" xlink:title="MODEL::Node source file.">
<polygon fill="none" stroke="black" points="15.95,-112.5 15.95,-131.5 71.95,-131.5 71.95,-112.5 15.95,-112.5"/>
<text text-anchor="middle" x="43.95" y="-119.5" font-family="Helvetica,sans-Serif" font-size="10.00">node.hpp</text>
</a>
</g>
</g>
<!-- Node4&#45;&gt;Node15 -->
<g id="edge33" class="edge">
<title>Node4&#45;&gt;Node15</title>
<path fill="none" stroke="midnightblue" d="M225.81,-287.9C157.16,-285.21 37.9,-275.93 10.95,-244 -14.57,-213.77 12.75,-165.5 30.77,-140.03"/>
<polygon fill="midnightblue" stroke="midnightblue" points="33.75,-141.87 36.87,-131.75 28.12,-137.72 33.75,-141.87"/>
</g>
<!-- Node17 -->
<g id="node17" class="node">
<title>Node17</title>
<g id="a_node17"><a xlink:href="dofhandler_8hpp.html" target="_top" xlink:title="MODEL::DOFHandler source file.">
<polygon fill="none" stroke="black" points="205.95,-56.5 205.95,-75.5 285.95,-75.5 285.95,-56.5 205.95,-56.5"/>
<text text-anchor="middle" x="245.95" y="-63.5" font-family="Helvetica,sans-Serif" font-size="10.00">dofhandler.hpp</text>
</a>
</g>
</g>
<!-- Node4&#45;&gt;Node17 -->
<g id="edge32" class="edge">
<title>Node4&#45;&gt;Node17</title>
<path fill="none" stroke="midnightblue" d="M259.16,-280.47C246.74,-272.77 230.34,-260.18 222.95,-244 198.3,-190.09 223.33,-117.91 237.56,-84.87"/>
<polygon fill="midnightblue" stroke="midnightblue" points="240.82,-86.15 241.72,-75.59 234.43,-83.29 240.82,-86.15"/>
</g>
<!-- Node18 -->
<g id="node18" class="node">
<title>Node18</title>
<g id="a_node18"><a xlink:href="bloodvessel_8hpp.html" target="_top" xlink:title="MODEL::BloodVessel source file.">
<polygon fill="none" stroke="black" points="473.95,-224.5 473.95,-243.5 559.95,-243.5 559.95,-224.5 473.95,-224.5"/>
<text text-anchor="middle" x="516.95" y="-231.5" font-family="Helvetica,sans-Serif" font-size="10.00">bloodvessel.hpp</text>
</a>
</g>
</g>
<!-- Node4&#45;&gt;Node18 -->
<g id="edge27" class="edge">
<title>Node4&#45;&gt;Node18</title>
<path fill="none" stroke="midnightblue" d="M313.29,-280.44C355.42,-271.04 423.15,-255.93 468.82,-245.74"/>
<polygon fill="midnightblue" stroke="midnightblue" points="469.78,-249.11 478.78,-243.52 468.26,-242.28 469.78,-249.11"/>
</g>
<!-- Node20 -->
<g id="node20" class="node">
<title>Node20</title>
<g id="a_node20"><a xlink:href="flowreferencebc_8hpp.html" target="_top" xlink:title="MODEL::FlowReferenceBC source file.">
<polygon fill="none" stroke="black" points="578.45,-224.5 578.45,-243.5 681.45,-243.5 681.45,-224.5 578.45,-224.5"/>
<text text-anchor="middle" x="629.95" y="-231.5" font-family="Helvetica,sans-Serif" font-size="10.00">flowreferencebc.hpp</text>
</a>
</g>
</g>
<!-- Node4&#45;&gt;Node20 -->
<g id="edge34" class="edge">
<title>Node4&#45;&gt;Node20</title>
<path fill="none" stroke="midnightblue" d="M324.31,-281.49C388.13,-271.78 499.3,-254.87 568.52,-244.34"/>
<polygon fill="midnightblue" stroke="midnightblue" points="569.05,-247.8 578.41,-242.84 568,-240.88 569.05,-247.8"/>
</g>
<!-- Node23 -->
<g id="node23" class="node">
<title>Node23</title>
<g id="a_node23"><a xlink:href="windkesselbc_8hpp.html" target="_top" xlink:title="MODEL::WindkesselBC source file.">
<polygon fill="none" stroke="black" points="323.95,-224.5 323.95,-243.5 417.95,-243.5 417.95,-224.5 323.95,-224.5"/>
<text text-anchor="middle" x="370.95" y="-231.5" font-family="Helvetica,sans-Serif" font-size="10.00">windkesselbc.hpp</text>
</a>
</g>
</g>
<!-- Node4&#45;&gt;Node23 -->
<g id="edge44" class="edge">
<title>Node4&#45;&gt;Node23</title>
<path fill="none" stroke="midnightblue" d="M290.37,-280.32C305.48,-271.82 328.76,-258.73 346.42,-248.8"/>
<polygon fill="midnightblue" stroke="midnightblue" points="348.56,-251.61 355.56,-243.65 345.13,-245.51 348.56,-251.61"/>
</g>
<!-- Node24 -->
<g id="node24" class="node">
<title>Node24</title>
<g id="a_node24"><a xlink:href="resistancebc_8hpp.html" target="_top" xlink:title="MODEL::ResistanceBC source file.">
<polygon fill="none" stroke="black" points="699.95,-224.5 699.95,-243.5 789.95,-243.5 789.95,-224.5 699.95,-224.5"/>
<text text-anchor="middle" x="744.95" y="-231.5" font-family="Helvetica,sans-Serif" font-size="10.00">resistancebc.hpp</text>
</a>
</g>
</g>
<!-- Node4&#45;&gt;Node24 -->
<g id="edge48" class="edge">
<title>Node4&#45;&gt;Node24</title>
<path fill="none" stroke="midnightblue" d="M324.05,-284.61C400.15,-277.6 551.4,-262.87 689.94,-244.07"/>
<polygon fill="midnightblue" stroke="midnightblue" points="690.46,-247.53 699.89,-242.71 689.51,-240.59 690.46,-247.53"/>
</g>
<!-- Node25 -->
<g id="node25" class="node">
<title>Node25</title>
<g id="a_node25"><a xlink:href="openloopcoronarybc_8hpp.html" target="_top" xlink:title="MODEL::OpenLoopCoronaryBC source file.">
<polygon fill="none" stroke="black" points="808.45,-224.5 808.45,-243.5 929.45,-243.5 929.45,-224.5 808.45,-224.5"/>
<text text-anchor="middle" x="868.95" y="-231.5" font-family="Helvetica,sans-Serif" font-size="10.00">openloopcoronarybc.hpp</text>
</a>
</g>
</g>
<!-- Node4&#45;&gt;Node25 -->
<g id="edge53" class="edge">
<title>Node4&#45;&gt;Node25</title>
<path fill="none" stroke="midnightblue" d="M324.14,-285.47C415.36,-278.78 617.17,-263.26 798.28,-244.03"/>
<polygon fill="midnightblue" stroke="midnightblue" points="798.69,-247.5 808.26,-242.96 797.94,-240.54 798.69,-247.5"/>
</g>
<!-- Node8&#45;&gt;Node4 -->
<g id="edge12" class="edge">
<title>Node8&#45;&gt;Node4</title>
<path fill="none" stroke="midnightblue" d="M448.39,-131.23C407.99,-137.64 356.68,-148.81 313.95,-168 275.67,-185.19 256.87,-186.55 237.95,-224 228.77,-242.15 245.34,-260.91 259.38,-273.58"/>
<polygon fill="midnightblue" stroke="midnightblue" points="257.28,-276.4 267.14,-280.29 261.86,-271.1 257.28,-276.4"/>
</g>
<!-- Node9 -->
<g id="node9" class="node">
<title>Node9</title>
<g id="a_node9"><a xlink:title=" ">
<polygon fill="none" stroke="#bfbfbf" points="389.95,-56.5 389.95,-75.5 463.95,-75.5 463.95,-56.5 389.95,-56.5"/>
<text text-anchor="middle" x="426.95" y="-63.5" font-family="Helvetica,sans-Serif" font-size="10.00">Eigen/Sparse</text>
</a>
</g>
</g>
<!-- Node8&#45;&gt;Node9 -->
<g id="edge9" class="edge">
<title>Node8&#45;&gt;Node9</title>
<path fill="none" stroke="midnightblue" d="M502.49,-112.32C488.45,-103.9 466.9,-90.97 450.4,-81.07"/>
<polygon fill="midnightblue" stroke="midnightblue" points="451.75,-77.8 441.37,-75.65 448.14,-83.8 451.75,-77.8"/>
</g>
<!-- Node10 -->
<g id="node10" class="node">
<title>Node10</title>
<g id="a_node10"><a xlink:title=" ">
<polygon fill="none" stroke="#bfbfbf" points="481.95,-56.5 481.95,-75.5 569.95,-75.5 569.95,-56.5 481.95,-56.5"/>
<text text-anchor="middle" x="525.95" y="-63.5" font-family="Helvetica,sans-Serif" font-size="10.00">Eigen/SparseLU</text>
</a>
</g>
</g>
<!-- Node8&#45;&gt;Node10 -->
<g id="edge10" class="edge">
<title>Node8&#45;&gt;Node10</title>
<path fill="none" stroke="midnightblue" d="M518.43,-112.08C519.62,-104.93 521.34,-94.64 522.83,-85.69"/>
<polygon fill="midnightblue" stroke="midnightblue" points="526.3,-86.19 524.49,-75.75 519.39,-85.04 526.3,-86.19"/>
</g>
<!-- Node11 -->
<g id="node11" class="node">
<title>Node11</title>
<g id="a_node11"><a xlink:title=" ">
<polygon fill="none" stroke="#bfbfbf" points="587.95,-56.5 587.95,-75.5 641.95,-75.5 641.95,-56.5 587.95,-56.5"/>
<text text-anchor="middle" x="614.95" y="-63.5" font-family="Helvetica,sans-Serif" font-size="10.00">iostream</text>
</a>
</g>
</g>
<!-- Node8&#45;&gt;Node11 -->
<g id="edge11" class="edge">
<title>Node8&#45;&gt;Node11</title>
<path fill="none" stroke="midnightblue" d="M532.69,-112.32C548.26,-103.74 572.32,-90.49 590.4,-80.52"/>
<polygon fill="midnightblue" stroke="midnightblue" points="592.17,-83.55 599.24,-75.65 588.79,-77.42 592.17,-83.55"/>
</g>
<!-- Node12&#45;&gt;Node2 -->
<g id="edge14" class="edge">
<title>Node12&#45;&gt;Node2</title>
<path fill="none" stroke="midnightblue" d="M287.02,-243.59C320.35,-262.59 400.56,-308.3 440.91,-331.3"/>
<polygon fill="midnightblue" stroke="midnightblue" points="439.38,-334.46 449.8,-336.37 442.85,-328.38 439.38,-334.46"/>
</g>
<!-- Node12&#45;&gt;Node8 -->
<g id="edge15" class="edge">
<title>Node12&#45;&gt;Node8</title>
<path fill="none" stroke="midnightblue" d="M277.56,-224.33C287.15,-210.25 308.09,-182.51 332.95,-168 364.87,-149.36 404.23,-138.41 438.35,-132"/>
<polygon fill="midnightblue" stroke="midnightblue" points="439.05,-135.43 448.28,-130.23 437.82,-128.54 439.05,-135.43"/>
</g>
<!-- Node12&#45;&gt;Node13 -->
<g id="edge16" class="edge">
<title>Node12&#45;&gt;Node13</title>
<path fill="none" stroke="midnightblue" d="M287.85,-224.32C303.58,-215.74 327.89,-202.49 346.15,-192.52"/>
<polygon fill="midnightblue" stroke="midnightblue" points="347.98,-195.52 355.08,-187.65 344.62,-189.37 347.98,-195.52"/>
</g>
<!-- Node13&#45;&gt;Node2 -->
<g id="edge25" class="edge">
<title>Node13&#45;&gt;Node2</title>
<path fill="none" stroke="midnightblue" d="M386.12,-187.65C398.75,-195.59 416.33,-208.45 426.95,-224 448.8,-256.01 458.57,-301.21 462.54,-326.33"/>
<polygon fill="midnightblue" stroke="midnightblue" points="459.09,-326.93 463.97,-336.34 466.02,-325.94 459.09,-326.93"/>
</g>
<!-- Node13&#45;&gt;Node5 -->
<g id="edge18" class="edge">
<title>Node13&#45;&gt;Node5</title>
<path fill="none" stroke="midnightblue" d="M341.79,-171.01C290.71,-160.53 185.69,-138.96 135.65,-128.69"/>
<polygon fill="midnightblue" stroke="midnightblue" points="136.06,-125.2 125.56,-126.62 134.65,-132.06 136.06,-125.2"/>
</g>
<!-- Node13&#45;&gt;Node8 -->
<g id="edge26" class="edge">
<title>Node13&#45;&gt;Node8</title>
<path fill="none" stroke="midnightblue" d="M394.08,-168.44C418.43,-159.44 456.95,-145.19 484.37,-135.05"/>
<polygon fill="midnightblue" stroke="midnightblue" points="485.75,-138.27 493.92,-131.52 483.33,-131.7 485.75,-138.27"/>
</g>
<!-- Node14 -->
<g id="node14" class="node">
<title>Node14</title>
<g id="a_node14"><a xlink:title=" ">
<polygon fill="none" stroke="#bfbfbf" points="339.95,-0.5 339.95,-19.5 383.95,-19.5 383.95,-0.5 339.95,-0.5"/>
<text text-anchor="middle" x="361.95" y="-7.5" font-family="Helvetica,sans-Serif" font-size="10.00">vector</text>
</a>
</g>
</g>
<!-- Node13&#45;&gt;Node14 -->
<g id="edge17" class="edge">
<title>Node13&#45;&gt;Node14</title>
<path fill="none" stroke="midnightblue" d="M370.46,-168.08C369.04,-141.95 364.88,-65.21 362.95,-29.58"/>
<polygon fill="midnightblue" stroke="midnightblue" points="366.45,-29.36 362.41,-19.57 359.46,-29.74 366.45,-29.36"/>
</g>
<!-- Node13&#45;&gt;Node15 -->
<g id="edge19" class="edge">
<title>Node13&#45;&gt;Node15</title>
<path fill="none" stroke="midnightblue" d="M341.58,-173.28C290.74,-166.66 182.89,-151.83 82.2,-132.11"/>
<polygon fill="midnightblue" stroke="midnightblue" points="82.66,-128.63 72.17,-130.13 81.3,-135.5 82.66,-128.63"/>
</g>
<!-- Node13&#45;&gt;Node17 -->
<g id="edge24" class="edge">
<title>Node13&#45;&gt;Node17</title>
<path fill="none" stroke="midnightblue" d="M361.14,-168.37C340.05,-149.81 290.16,-105.91 263.49,-82.44"/>
<polygon fill="midnightblue" stroke="midnightblue" points="265.53,-79.57 255.71,-75.59 260.9,-84.83 265.53,-79.57"/>
</g>
<!-- Node16 -->
<g id="node16" class="node">
<title>Node16</title>
<g id="a_node16"><a xlink:title=" ">
<polygon fill="none" stroke="#bfbfbf" points="144.45,-0.5 144.45,-19.5 185.45,-19.5 185.45,-0.5 144.45,-0.5"/>
<text text-anchor="middle" x="164.95" y="-7.5" font-family="Helvetica,sans-Serif" font-size="10.00">string</text>
</a>
</g>
</g>
<!-- Node15&#45;&gt;Node16 -->
<g id="edge20" class="edge">
<title>Node15&#45;&gt;Node16</title>
<path fill="none" stroke="midnightblue" d="M53.44,-112.37C73.85,-93.81 122.14,-49.91 147.96,-26.44"/>
<polygon fill="midnightblue" stroke="midnightblue" points="150.45,-28.91 155.49,-19.59 145.74,-23.73 150.45,-28.91"/>
</g>
<!-- Node15&#45;&gt;Node17 -->
<g id="edge21" class="edge">
<title>Node15&#45;&gt;Node17</title>
<path fill="none" stroke="midnightblue" d="M72.03,-113.49C106.34,-104.32 164.67,-88.73 204.23,-78.15"/>
<polygon fill="midnightblue" stroke="midnightblue" points="205.35,-81.48 214.11,-75.51 203.54,-74.71 205.35,-81.48"/>
</g>
<!-- Node17&#45;&gt;Node14 -->
<g id="edge22" class="edge">
<title>Node17&#45;&gt;Node14</title>
<path fill="none" stroke="midnightblue" d="M264.33,-56.44C283.16,-47.68 312.68,-33.94 334.32,-23.86"/>
<polygon fill="midnightblue" stroke="midnightblue" points="336.06,-26.91 343.65,-19.52 333.11,-20.56 336.06,-26.91"/>
</g>
<!-- Node17&#45;&gt;Node16 -->
<g id="edge23" class="edge">
<title>Node17&#45;&gt;Node16</title>
<path fill="none" stroke="midnightblue" d="M232.93,-56.32C220.41,-47.98 201.26,-35.21 186.47,-25.35"/>
<polygon fill="midnightblue" stroke="midnightblue" points="188.19,-22.29 177.93,-19.65 184.31,-28.11 188.19,-22.29"/>
</g>
<!-- Node18&#45;&gt;Node2 -->
<g id="edge30" class="edge">
<title>Node18&#45;&gt;Node2</title>
<path fill="none" stroke="midnightblue" d="M512.88,-243.59C504.4,-261.55 484.63,-303.37 473.3,-327.32"/>
<polygon fill="midnightblue" stroke="midnightblue" points="470.14,-325.83 469.03,-336.37 476.46,-328.82 470.14,-325.83"/>
</g>
<!-- Node18&#45;&gt;Node8 -->
<g id="edge31" class="edge">
<title>Node18&#45;&gt;Node8</title>
<path fill="none" stroke="midnightblue" d="M516.95,-224.37C516.95,-206.62 516.95,-165.67 516.95,-141.6"/>
<polygon fill="midnightblue" stroke="midnightblue" points="520.45,-141.59 516.95,-131.59 513.45,-141.59 520.45,-141.59"/>
</g>
<!-- Node18&#45;&gt;Node13 -->
<g id="edge29" class="edge">
<title>Node18&#45;&gt;Node13</title>
<path fill="none" stroke="midnightblue" d="M493.81,-224.44C469.46,-215.44 430.94,-201.19 403.52,-191.05"/>
<polygon fill="midnightblue" stroke="midnightblue" points="404.56,-187.7 393.97,-187.52 402.14,-194.27 404.56,-187.7"/>
</g>
<!-- Node19 -->
<g id="node19" class="node">
<title>Node19</title>
<g id="a_node19"><a xlink:title=" ">
<polygon fill="none" stroke="#bfbfbf" points="655.95,-112.5 655.95,-131.5 701.95,-131.5 701.95,-112.5 655.95,-112.5"/>
<text text-anchor="middle" x="678.95" y="-119.5" font-family="Helvetica,sans-Serif" font-size="10.00">math.h</text>
</a>
</g>
</g>
<!-- Node18&#45;&gt;Node19 -->
<g id="edge28" class="edge">
<title>Node18&#45;&gt;Node19</title>
<path fill="none" stroke="midnightblue" d="M529.66,-224.37C557.46,-205.49 623.89,-160.38 657.98,-137.24"/>
<polygon fill="midnightblue" stroke="midnightblue" points="659.99,-140.1 666.29,-131.59 656.05,-134.31 659.99,-140.1"/>
</g>
<!-- Node20&#45;&gt;Node2 -->
<g id="edge35" class="edge">
<title>Node20&#45;&gt;Node2</title>
<path fill="none" stroke="midnightblue" d="M627.16,-243.9C622.38,-257.81 611.29,-284.69 592.95,-300 573.25,-316.45 547.14,-327.04 523.64,-333.79"/>
<polygon fill="midnightblue" stroke="midnightblue" points="522.5,-330.48 513.75,-336.46 524.32,-337.23 522.5,-330.48"/>
</g>
<!-- Node20&#45;&gt;Node8 -->
<g id="edge36" class="edge">
<title>Node20&#45;&gt;Node8</title>
<path fill="none" stroke="midnightblue" d="M621.08,-224.37C602.1,-205.89 557.31,-162.29 533.12,-138.74"/>
<polygon fill="midnightblue" stroke="midnightblue" points="535.38,-136.06 525.77,-131.59 530.5,-141.07 535.38,-136.06"/>
</g>
<!-- Node20&#45;&gt;Node13 -->
<g id="edge37" class="edge">
<title>Node20&#45;&gt;Node13</title>
<path fill="none" stroke="midnightblue" d="M588.91,-224.44C539.87,-214.22 458.42,-197.24 410.19,-187.18"/>
<polygon fill="midnightblue" stroke="midnightblue" points="410.64,-183.7 400.14,-185.09 409.21,-190.55 410.64,-183.7"/>
</g>
<!-- Node20&#45;&gt;Node21 -->
<g id="edge38" class="edge">
<title>Node20&#45;&gt;Node21</title>
<path fill="none" stroke="midnightblue" d="M667.66,-224.44C709.09,-215.04 775.7,-199.93 820.61,-189.74"/>
<polygon fill="midnightblue" stroke="midnightblue" points="821.43,-193.14 830.41,-187.52 819.88,-186.32 821.43,-193.14"/>
</g>
<!-- Node21&#45;&gt;Node14 -->
<g id="edge40" class="edge">
<title>Node21&#45;&gt;Node14</title>
<path fill="none" stroke="midnightblue" d="M867.93,-168.08C867.4,-154.15 864.31,-127.23 848.95,-112 783.93,-47.55 492.48,-20.57 394.33,-13.21"/>
<polygon fill="midnightblue" stroke="midnightblue" points="394.36,-9.7 384.13,-12.46 393.84,-16.68 394.36,-9.7"/>
</g>
<!-- Node21&#45;&gt;Node17 -->
<g id="edge42" class="edge">
<title>Node21&#45;&gt;Node17</title>
<path fill="none" stroke="midnightblue" d="M851.54,-168.29C823.57,-153.88 764.47,-125.35 710.95,-112 671.45,-102.15 408,-80.08 296.08,-71.01"/>
<polygon fill="midnightblue" stroke="midnightblue" points="296.31,-67.52 286.06,-70.2 295.74,-74.49 296.31,-67.52"/>
</g>
<!-- Node21&#45;&gt;Node19 -->
<g id="edge39" class="edge">
<title>Node21&#45;&gt;Node19</title>
<path fill="none" stroke="midnightblue" d="M838,-168.44C803.7,-158.65 747.68,-142.64 712.1,-132.47"/>
<polygon fill="midnightblue" stroke="midnightblue" points="712.78,-129.03 702.2,-129.64 710.85,-135.76 712.78,-129.03"/>
</g>
<!-- Node22 -->
<g id="node22" class="node">
<title>Node22</title>
<g id="a_node22"><a xlink:title=" ">
<polygon fill="none" stroke="#bfbfbf" points="788.45,-112.5 788.45,-131.5 839.45,-131.5 839.45,-112.5 788.45,-112.5"/>
<text text-anchor="middle" x="813.95" y="-119.5" font-family="Helvetica,sans-Serif" font-size="10.00">numeric</text>
</a>
</g>
</g>
<!-- Node21&#45;&gt;Node22 -->
<g id="edge41" class="edge">
<title>Node21&#45;&gt;Node22</title>
<path fill="none" stroke="midnightblue" d="M859.03,-168.08C851.16,-160.22 839.51,-148.57 830.03,-139.08"/>
<polygon fill="midnightblue" stroke="midnightblue" points="832.24,-136.35 822.7,-131.75 827.29,-141.3 832.24,-136.35"/>
</g>
<!-- Node23&#45;&gt;Node2 -->
<g id="edge45" class="edge">
<title>Node23&#45;&gt;Node2</title>
<path fill="none" stroke="midnightblue" d="M378.29,-243.59C393.91,-261.87 430.65,-304.87 450.92,-328.59"/>
<polygon fill="midnightblue" stroke="midnightblue" points="448.41,-331.04 457.57,-336.37 453.73,-326.49 448.41,-331.04"/>
</g>
<!-- Node23&#45;&gt;Node8 -->
<g id="edge46" class="edge">
<title>Node23&#45;&gt;Node8</title>
<path fill="none" stroke="midnightblue" d="M382.4,-224.37C407.24,-205.65 466.31,-161.15 497.26,-137.83"/>
<polygon fill="midnightblue" stroke="midnightblue" points="499.66,-140.4 505.54,-131.59 495.45,-134.81 499.66,-140.4"/>
</g>
<!-- Node23&#45;&gt;Node13 -->
<g id="edge47" class="edge">
<title>Node23&#45;&gt;Node13</title>
<path fill="none" stroke="midnightblue" d="M370.95,-224.08C370.95,-217.01 370.95,-206.86 370.95,-197.99"/>
<polygon fill="midnightblue" stroke="midnightblue" points="374.45,-197.75 370.95,-187.75 367.45,-197.75 374.45,-197.75"/>
</g>
<!-- Node24&#45;&gt;Node2 -->
<g id="edge49" class="edge">
<title>Node24&#45;&gt;Node2</title>
<path fill="none" stroke="midnightblue" d="M729.73,-243.69C705.86,-257.08 657.87,-282.98 614.95,-300 580.2,-313.78 539.52,-325.73 509.3,-333.85"/>
<polygon fill="midnightblue" stroke="midnightblue" points="508.24,-330.51 499.47,-336.46 510.04,-337.28 508.24,-330.51"/>
</g>
<!-- Node24&#45;&gt;Node8 -->
<g id="edge50" class="edge">
<title>Node24&#45;&gt;Node8</title>
<path fill="none" stroke="midnightblue" d="M718.39,-224.46C693.9,-216.24 656.78,-202.88 625.95,-188 594.17,-172.67 559.5,-151.08 537.99,-137.07"/>
<polygon fill="midnightblue" stroke="midnightblue" points="539.9,-134.14 529.62,-131.57 536.05,-139.99 539.9,-134.14"/>
</g>
<!-- Node24&#45;&gt;Node13 -->
<g id="edge51" class="edge">
<title>Node24&#45;&gt;Node13</title>
<path fill="none" stroke="midnightblue" d="M699.88,-225.4C696.86,-224.92 693.86,-224.45 690.95,-224 589.99,-208.49 470.77,-192.28 410.34,-184.21"/>
<polygon fill="midnightblue" stroke="midnightblue" points="410.48,-180.7 400.1,-182.85 409.55,-187.64 410.48,-180.7"/>
</g>
<!-- Node24&#45;&gt;Node21 -->
<g id="edge52" class="edge">
<title>Node24&#45;&gt;Node21</title>
<path fill="none" stroke="midnightblue" d="M764.44,-224.44C784.59,-215.6 816.27,-201.69 839.28,-191.59"/>
<polygon fill="midnightblue" stroke="midnightblue" points="840.8,-194.74 848.55,-187.52 837.98,-188.33 840.8,-194.74"/>
</g>
<!-- Node25&#45;&gt;Node2 -->
<g id="edge54" class="edge">
<title>Node25&#45;&gt;Node2</title>
<path fill="none" stroke="midnightblue" d="M841.76,-243.55C800.48,-256.41 719.44,-281.25 649.95,-300 603.42,-312.56 549.88,-325.4 512.41,-334.14"/>
<polygon fill="midnightblue" stroke="midnightblue" points="511.24,-330.82 502.29,-336.49 512.82,-337.64 511.24,-330.82"/>
</g>
<!-- Node25&#45;&gt;Node8 -->
<g id="edge55" class="edge">
<title>Node25&#45;&gt;Node8</title>
<path fill="none" stroke="midnightblue" d="M841.62,-224.46C779.11,-204.93 625.63,-156.96 554.39,-134.7"/>
<polygon fill="midnightblue" stroke="midnightblue" points="555.09,-131.25 544.5,-131.61 553,-137.93 555.09,-131.25"/>
</g>
<!-- Node25&#45;&gt;Node13 -->
<g id="edge56" class="edge">
<title>Node25&#45;&gt;Node13</title>
<path fill="none" stroke="midnightblue" d="M808.25,-225.11C805.1,-224.73 801.99,-224.36 798.95,-224 655.77,-207.27 485.32,-190.2 410.01,-182.8"/>
<polygon fill="midnightblue" stroke="midnightblue" points="410.33,-179.32 400.03,-181.82 409.64,-186.28 410.33,-179.32"/>
</g>
<!-- Node25&#45;&gt;Node21 -->
<g id="edge57" class="edge">
<title>Node25&#45;&gt;Node21</title>
<path fill="none" stroke="midnightblue" d="M868.78,-224.08C868.65,-217.01 868.46,-206.86 868.3,-197.99"/>
<polygon fill="midnightblue" stroke="midnightblue" points="871.79,-197.68 868.11,-187.75 864.79,-197.81 871.79,-197.68"/>
</g>
</g>
</svg>
