<?xml version="1.0" encoding="UTF-8" standalone="no"?>
<!DOCTYPE svg PUBLIC "-//W3C//DTD SVG 1.1//EN"
 "http://www.w3.org/Graphics/SVG/1.1/DTD/svg11.dtd">
<!-- Generated by graphviz version 3.0.0 (20220413.0242)
 -->
<!-- Title: model/pressurereference.hpp Pages: 1 -->
<svg width="1333pt" height="420pt"
 viewBox="0.00 0.00 1332.92 420.00" xmlns="http://www.w3.org/2000/svg" xmlns:xlink="http://www.w3.org/1999/xlink">
<g id="graph0" class="graph" transform="scale(1 1) rotate(0) translate(4 416)">
<title>model/pressurereference.hpp</title>
<!-- Node1 -->
<g id="node1" class="node">
<title>Node1</title>
<g id="a_node1"><a xlink:title="MODEL::PressureReference source file.">
<polygon fill="#bfbfbf" stroke="black" points="536,-392.5 536,-411.5 678,-411.5 678,-392.5 536,-392.5"/>
<text text-anchor="middle" x="607" y="-399.5" font-family="Helvetica,sans-Serif" font-size="10.00">model/pressurereference.hpp</text>
</a>
</g>
</g>
<!-- Node2 -->
<g id="node2" class="node">
<title>Node2</title>
<g id="a_node2"><a xlink:href="densesystem_8hpp.html" target="_top" xlink:title="ALGEBRA::DenseSystem source file.">
<polygon fill="none" stroke="black" points="586,-112.5 586,-131.5 720,-131.5 720,-112.5 586,-112.5"/>
<text text-anchor="middle" x="653" y="-119.5" font-family="Helvetica,sans-Serif" font-size="10.00">../algebra/densesystem.hpp</text>
</a>
</g>
</g>
<!-- Node1&#45;&gt;Node2 -->
<g id="edge1" class="edge">
<title>Node1&#45;&gt;Node2</title>
<path fill="none" stroke="midnightblue" d="M678.02,-392.88C821,-374.93 1135.34,-326.75 1199,-244 1277.6,-141.84 1520.69,-283.86 1000,-188 896.8,-169 776.43,-146.34 708.02,-133.41"/>
<polygon fill="midnightblue" stroke="midnightblue" points="708.38,-129.92 697.9,-131.5 707.08,-136.8 708.38,-129.92"/>
</g>
<!-- Node4 -->
<g id="node4" class="node">
<title>Node4</title>
<g id="a_node4"><a xlink:href="sparsesystem_8hpp.html" target="_top" xlink:title="ALGEBRA::SparseSystem source file.">
<polygon fill="none" stroke="black" points="538.5,-336.5 538.5,-355.5 675.5,-355.5 675.5,-336.5 538.5,-336.5"/>
<text text-anchor="middle" x="607" y="-343.5" font-family="Helvetica,sans-Serif" font-size="10.00">../algebra/sparsesystem.hpp</text>
</a>
</g>
</g>
<!-- Node1&#45;&gt;Node4 -->
<g id="edge3" class="edge">
<title>Node1&#45;&gt;Node4</title>
<path fill="none" stroke="midnightblue" d="M607,-392.08C607,-385.01 607,-374.86 607,-365.99"/>
<polygon fill="midnightblue" stroke="midnightblue" points="610.5,-365.75 607,-355.75 603.5,-365.75 610.5,-365.75"/>
</g>
<!-- Node13 -->
<g id="node13" class="node">
<title>Node13</title>
<g id="a_node13"><a xlink:href="block_8hpp.html" target="_top" xlink:title="MODEL::Block source file.">
<polygon fill="none" stroke="black" points="269,-168.5 269,-187.5 327,-187.5 327,-168.5 269,-168.5"/>
<text text-anchor="middle" x="298" y="-175.5" font-family="Helvetica,sans-Serif" font-size="10.00">block.hpp</text>
</a>
</g>
</g>
<!-- Node1&#45;&gt;Node13 -->
<g id="edge58" class="edge">
<title>Node1&#45;&gt;Node13</title>
<path fill="none" stroke="midnightblue" d="M535.84,-393.16C454.11,-381.86 317.94,-355.85 214,-300 181.29,-282.42 167.08,-277.93 152,-244 132.12,-199.26 209.01,-185.31 258.71,-180.97"/>
<polygon fill="midnightblue" stroke="midnightblue" points="259.16,-184.44 268.86,-180.18 258.62,-177.46 259.16,-184.44"/>
</g>
<!-- Node21 -->
<g id="node21" class="node">
<title>Node21</title>
<g id="a_node21"><a xlink:href="timedependentparameter_8hpp.html" target="_top" xlink:title="MODEL::TimeDependentParameter source file.">
<polygon fill="none" stroke="black" points="1009,-168.5 1009,-187.5 1151,-187.5 1151,-168.5 1009,-168.5"/>
<text text-anchor="middle" x="1080" y="-175.5" font-family="Helvetica,sans-Serif" font-size="10.00">timedependentparameter.hpp</text>
</a>
</g>
</g>
<!-- Node1&#45;&gt;Node21 -->
<g id="edge59" class="edge">
<title>Node1&#45;&gt;Node21</title>
<path fill="none" stroke="midnightblue" d="M678.03,-401.2C833.87,-400.89 1194.92,-395.84 1232,-356 1271.97,-313.05 1267.11,-271 1232,-224 1215.28,-201.61 1187.91,-189.9 1160.97,-183.93"/>
<polygon fill="midnightblue" stroke="midnightblue" points="1161.58,-180.48 1151.09,-181.97 1160.22,-187.35 1161.58,-180.48"/>
</g>
<!-- Node3 -->
<g id="node3" class="node">
<title>Node3</title>
<g id="a_node3"><a xlink:title=" ">
<polygon fill="none" stroke="#bfbfbf" points="617.5,-56.5 617.5,-75.5 688.5,-75.5 688.5,-56.5 617.5,-56.5"/>
<text text-anchor="middle" x="653" y="-63.5" font-family="Helvetica,sans-Serif" font-size="10.00">Eigen/Dense</text>
</a>
</g>
</g>
<!-- Node2&#45;&gt;Node3 -->
<g id="edge2" class="edge">
<title>Node2&#45;&gt;Node3</title>
<path fill="none" stroke="midnightblue" d="M653,-112.08C653,-105.01 653,-94.86 653,-85.99"/>
<polygon fill="midnightblue" stroke="midnightblue" points="656.5,-85.75 653,-75.75 649.5,-85.75 656.5,-85.75"/>
</g>
<!-- Node5 -->
<g id="node5" class="node">
<title>Node5</title>
<g id="a_node5"><a xlink:title=" ">
<polygon fill="none" stroke="#bfbfbf" points="538,-280.5 538,-299.5 612,-299.5 612,-280.5 538,-280.5"/>
<text text-anchor="middle" x="575" y="-287.5" font-family="Helvetica,sans-Serif" font-size="10.00">Eigen/Sparse</text>
</a>
</g>
</g>
<!-- Node4&#45;&gt;Node5 -->
<g id="edge4" class="edge">
<title>Node4&#45;&gt;Node5</title>
<path fill="none" stroke="midnightblue" d="M601.72,-336.08C597.29,-328.61 590.84,-317.72 585.38,-308.52"/>
<polygon fill="midnightblue" stroke="midnightblue" points="588.29,-306.57 580.19,-299.75 582.27,-310.14 588.29,-306.57"/>
</g>
<!-- Node6 -->
<g id="node6" class="node">
<title>Node6</title>
<g id="a_node6"><a xlink:title=" ">
<polygon fill="none" stroke="#bfbfbf" points="706,-280.5 706,-299.5 794,-299.5 794,-280.5 706,-280.5"/>
<text text-anchor="middle" x="750" y="-287.5" font-family="Helvetica,sans-Serif" font-size="10.00">Eigen/SparseLU</text>
</a>
</g>
</g>
<!-- Node4&#45;&gt;Node6 -->
<g id="edge5" class="edge">
<title>Node4&#45;&gt;Node6</title>
<path fill="none" stroke="midnightblue" d="M629.66,-336.44C653.4,-327.48 690.91,-313.31 717.74,-303.18"/>
<polygon fill="midnightblue" stroke="midnightblue" points="719.33,-306.32 727.45,-299.52 716.86,-299.77 719.33,-306.32"/>
</g>
<!-- Node7 -->
<g id="node7" class="node">
<title>Node7</title>
<g id="a_node7"><a xlink:title=" ">
<polygon fill="none" stroke="#bfbfbf" points="812,-280.5 812,-299.5 866,-299.5 866,-280.5 812,-280.5"/>
<text text-anchor="middle" x="839" y="-287.5" font-family="Helvetica,sans-Serif" font-size="10.00">iostream</text>
</a>
</g>
</g>
<!-- Node4&#45;&gt;Node7 -->
<g id="edge6" class="edge">
<title>Node4&#45;&gt;Node7</title>
<path fill="none" stroke="midnightblue" d="M645.36,-336.42C682.82,-327.99 741.72,-314.61 801.84,-300.25"/>
<polygon fill="midnightblue" stroke="midnightblue" points="802.98,-303.57 811.89,-297.84 801.35,-296.76 802.98,-303.57"/>
</g>
<!-- Node8 -->
<g id="node8" class="node">
<title>Node8</title>
<g id="a_node8"><a xlink:href="model_8hpp.html" target="_top" xlink:title="MODEL::Model source file.">
<polygon fill="none" stroke="black" points="346,-280.5 346,-299.5 444,-299.5 444,-280.5 346,-280.5"/>
<text text-anchor="middle" x="395" y="-287.5" font-family="Helvetica,sans-Serif" font-size="10.00">../model/model.hpp</text>
</a>
</g>
</g>
<!-- Node4&#45;&gt;Node8 -->
<g id="edge7" class="edge">
<title>Node4&#45;&gt;Node8</title>
<path fill="none" stroke="midnightblue" d="M568.32,-336.44C529.84,-327.16 471.37,-312.31 433.1,-302.13"/>
<polygon fill="midnightblue" stroke="midnightblue" points="433.92,-298.72 423.35,-299.52 432.11,-305.48 433.92,-298.72"/>
</g>
<!-- Node8&#45;&gt;Node1 -->
<g id="edge43" class="edge">
<title>Node8&#45;&gt;Node1</title>
<path fill="none" stroke="midnightblue" d="M411.56,-299.59C448.41,-318.71 537.39,-364.88 581.43,-387.73"/>
<polygon fill="midnightblue" stroke="midnightblue" points="579.88,-390.87 590.36,-392.37 583.1,-384.66 579.88,-390.87"/>
</g>
<!-- Node8&#45;&gt;Node2 -->
<g id="edge11" class="edge">
<title>Node8&#45;&gt;Node2</title>
<path fill="none" stroke="midnightblue" d="M381.21,-280.43C363.06,-268.05 334.98,-244.39 349,-224 398.88,-151.45 503.31,-130.01 575.76,-124.2"/>
<polygon fill="midnightblue" stroke="midnightblue" points="576.04,-127.69 585.76,-123.48 575.54,-120.71 576.04,-127.69"/>
</g>
<!-- Node8&#45;&gt;Node4 -->
<g id="edge12" class="edge">
<title>Node8&#45;&gt;Node4</title>
<path fill="none" stroke="midnightblue" d="M433.51,-299.52C471.93,-308.78 530.41,-323.63 568.73,-333.83"/>
<polygon fill="midnightblue" stroke="midnightblue" points="567.93,-337.24 578.5,-336.44 569.74,-330.48 567.93,-337.24"/>
</g>
<!-- Node9 -->
<g id="node9" class="node">
<title>Node9</title>
<g id="a_node9"><a xlink:title=" ">
<polygon fill="none" stroke="#bfbfbf" points="210.5,-112.5 210.5,-131.5 245.5,-131.5 245.5,-112.5 210.5,-112.5"/>
<text text-anchor="middle" x="228" y="-119.5" font-family="Helvetica,sans-Serif" font-size="10.00">map</text>
</a>
</g>
</g>
<!-- Node8&#45;&gt;Node9 -->
<g id="edge8" class="edge">
<title>Node8&#45;&gt;Node9</title>
<path fill="none" stroke="midnightblue" d="M345.86,-287.05C313.02,-283.02 271.49,-272.17 247,-244 222.08,-215.34 222.68,-167.79 225.33,-141.65"/>
<polygon fill="midnightblue" stroke="midnightblue" points="228.82,-141.93 226.56,-131.58 221.87,-141.08 228.82,-141.93"/>
</g>
<!-- Node10 -->
<g id="node10" class="node">
<title>Node10</title>
<g id="a_node10"><a xlink:title=" ">
<polygon fill="none" stroke="#bfbfbf" points="170.5,-224.5 170.5,-243.5 199.5,-243.5 199.5,-224.5 170.5,-224.5"/>
<text text-anchor="middle" x="185" y="-231.5" font-family="Helvetica,sans-Serif" font-size="10.00">list</text>
</a>
</g>
</g>
<!-- Node8&#45;&gt;Node10 -->
<g id="edge9" class="edge">
<title>Node8&#45;&gt;Node10</title>
<path fill="none" stroke="midnightblue" d="M358.09,-280.48C321.4,-271.85 263.59,-257.85 214,-244 212.54,-243.59 211.04,-243.16 209.53,-242.72"/>
<polygon fill="midnightblue" stroke="midnightblue" points="210.29,-239.29 199.7,-239.74 208.26,-245.99 210.29,-239.29"/>
</g>
<!-- Node11 -->
<g id="node11" class="node">
<title>Node11</title>
<g id="a_node11"><a xlink:title=" ">
<polygon fill="none" stroke="#bfbfbf" points="256,-224.5 256,-243.5 302,-243.5 302,-224.5 256,-224.5"/>
<text text-anchor="middle" x="279" y="-231.5" font-family="Helvetica,sans-Serif" font-size="10.00">variant</text>
</a>
</g>
</g>
<!-- Node8&#45;&gt;Node11 -->
<g id="edge10" class="edge">
<title>Node8&#45;&gt;Node11</title>
<path fill="none" stroke="midnightblue" d="M376.62,-280.44C357.78,-271.68 328.27,-257.94 306.62,-247.86"/>
<polygon fill="midnightblue" stroke="midnightblue" points="307.84,-244.56 297.29,-243.52 304.88,-250.91 307.84,-244.56"/>
</g>
<!-- Node12 -->
<g id="node12" class="node">
<title>Node12</title>
<g id="a_node12"><a xlink:href="junction_8hpp.html" target="_top" xlink:title="MODEL::Junction source file.">
<polygon fill="none" stroke="black" points="358,-224.5 358,-243.5 426,-243.5 426,-224.5 358,-224.5"/>
<text text-anchor="middle" x="392" y="-231.5" font-family="Helvetica,sans-Serif" font-size="10.00">junction.hpp</text>
</a>
</g>
</g>
<!-- Node8&#45;&gt;Node12 -->
<g id="edge13" class="edge">
<title>Node8&#45;&gt;Node12</title>
<path fill="none" stroke="midnightblue" d="M394.5,-280.08C394.11,-273.01 393.55,-262.86 393.05,-253.99"/>
<polygon fill="midnightblue" stroke="midnightblue" points="396.54,-253.54 392.49,-243.75 389.55,-253.93 396.54,-253.54"/>
</g>
<!-- Node15 -->
<g id="node15" class="node">
<title>Node15</title>
<g id="a_node15"><a xlink:href="node_8hpp.html" target="_top" xlink:title="MODEL::Node source file.">
<polygon fill="none" stroke="black" points="0,-112.5 0,-131.5 56,-131.5 56,-112.5 0,-112.5"/>
<text text-anchor="middle" x="28" y="-119.5" font-family="Helvetica,sans-Serif" font-size="10.00">node.hpp</text>
</a>
</g>
</g>
<!-- Node8&#45;&gt;Node15 -->
<g id="edge33" class="edge">
<title>Node8&#45;&gt;Node15</title>
<path fill="none" stroke="midnightblue" d="M346,-289.34C261.52,-288.87 93.53,-282.9 52,-244 23.83,-217.61 23.43,-168.4 25.66,-141.58"/>
<polygon fill="midnightblue" stroke="midnightblue" points="29.15,-141.9 26.7,-131.59 22.18,-141.17 29.15,-141.9"/>
</g>
<!-- Node17 -->
<g id="node17" class="node">
<title>Node17</title>
<g id="a_node17"><a xlink:href="dofhandler_8hpp.html" target="_top" xlink:title="MODEL::DOFHandler source file.">
<polygon fill="none" stroke="black" points="167,-56.5 167,-75.5 247,-75.5 247,-56.5 167,-56.5"/>
<text text-anchor="middle" x="207" y="-63.5" font-family="Helvetica,sans-Serif" font-size="10.00">dofhandler.hpp</text>
</a>
</g>
</g>
<!-- Node8&#45;&gt;Node17 -->
<g id="edge32" class="edge">
<title>Node8&#45;&gt;Node17</title>
<path fill="none" stroke="midnightblue" d="M345.94,-286.68C284.36,-282.63 183.99,-271.83 161,-244 121.46,-196.14 169.16,-118.13 193.89,-83.95"/>
<polygon fill="midnightblue" stroke="midnightblue" points="196.73,-86 199.9,-75.89 191.12,-81.82 196.73,-86"/>
</g>
<!-- Node18 -->
<g id="node18" class="node">
<title>Node18</title>
<g id="a_node18"><a xlink:href="bloodvessel_8hpp.html" target="_top" xlink:title="MODEL::BloodVessel source file.">
<polygon fill="none" stroke="black" points="610,-224.5 610,-243.5 696,-243.5 696,-224.5 610,-224.5"/>
<text text-anchor="middle" x="653" y="-231.5" font-family="Helvetica,sans-Serif" font-size="10.00">bloodvessel.hpp</text>
</a>
</g>
</g>
<!-- Node8&#45;&gt;Node18 -->
<g id="edge27" class="edge">
<title>Node8&#45;&gt;Node18</title>
<path fill="none" stroke="midnightblue" d="M435.88,-280.44C480.98,-271 553.61,-255.8 602.3,-245.61"/>
<polygon fill="midnightblue" stroke="midnightblue" points="603.24,-248.99 612.31,-243.52 601.81,-242.14 603.24,-248.99"/>
</g>
<!-- Node20 -->
<g id="node20" class="node">
<title>Node20</title>
<g id="a_node20"><a xlink:href="flowreference_8hpp.html" target="_top" xlink:title="MODEL::FlowReference source file.">
<polygon fill="none" stroke="black" points="714,-224.5 714,-243.5 806,-243.5 806,-224.5 714,-224.5"/>
<text text-anchor="middle" x="760" y="-231.5" font-family="Helvetica,sans-Serif" font-size="10.00">flowreference.hpp</text>
</a>
</g>
</g>
<!-- Node8&#45;&gt;Node20 -->
<g id="edge34" class="edge">
<title>Node8&#45;&gt;Node20</title>
<path fill="none" stroke="midnightblue" d="M444.17,-282.14C503.31,-273.83 605.86,-259.22 703.73,-244.17"/>
<polygon fill="midnightblue" stroke="midnightblue" points="704.45,-247.61 713.8,-242.62 703.38,-240.69 704.45,-247.61"/>
</g>
<!-- Node23 -->
<g id="node23" class="node">
<title>Node23</title>
<g id="a_node23"><a xlink:href="rcrblockwithdistalpressure_8hpp.html" target="_top" xlink:title="MODEL::RCRBlockWithDistalPressure source file.">
<polygon fill="none" stroke="black" points="444,-224.5 444,-243.5 592,-243.5 592,-224.5 444,-224.5"/>
<text text-anchor="middle" x="518" y="-231.5" font-family="Helvetica,sans-Serif" font-size="10.00">rcrblockwithdistalpressure.hpp</text>
</a>
</g>
</g>
<!-- Node8&#45;&gt;Node23 -->
<g id="edge44" class="edge">
<title>Node8&#45;&gt;Node23</title>
<path fill="none" stroke="midnightblue" d="M414.49,-280.44C434.64,-271.6 466.32,-257.69 489.33,-247.59"/>
<polygon fill="midnightblue" stroke="midnightblue" points="490.85,-250.74 498.6,-243.52 488.04,-244.33 490.85,-250.74"/>
</g>
<!-- Node24 -->
<g id="node24" class="node">
<title>Node24</title>
<g id="a_node24"><a xlink:href="resistancewithdistalpressure_8hpp.html" target="_top" xlink:title="MODEL::ResistanceWithDistalPressure source file.">
<polygon fill="none" stroke="black" points="824,-224.5 824,-243.5 982,-243.5 982,-224.5 824,-224.5"/>
<text text-anchor="middle" x="903" y="-231.5" font-family="Helvetica,sans-Serif" font-size="10.00">resistancewithdistalpressure.hpp</text>
</a>
</g>
</g>
<!-- Node8&#45;&gt;Node24 -->
<g id="edge48" class="edge">
<title>Node8&#45;&gt;Node24</title>
<path fill="none" stroke="midnightblue" d="M444.17,-283.77C529.44,-274.71 705.91,-255.95 813.43,-244.52"/>
<polygon fill="midnightblue" stroke="midnightblue" points="814.04,-247.98 823.62,-243.44 813.3,-241.02 814.04,-247.98"/>
</g>
<!-- Node25 -->
<g id="node25" class="node">
<title>Node25</title>
<g id="a_node25"><a xlink:href="openloopcoronarywithdistalpressure_8hpp.html" target="_top" xlink:title="MODEL::OpenLoopCoronaryWithDistalPressure source file.">
<polygon fill="none" stroke="black" points="1000.5,-224.5 1000.5,-243.5 1189.5,-243.5 1189.5,-224.5 1000.5,-224.5"/>
<text text-anchor="middle" x="1095" y="-231.5" font-family="Helvetica,sans-Serif" font-size="10.00">openloopcoronarywithdistalpressure.hpp</text>
</a>
</g>
</g>
<!-- Node8&#45;&gt;Node25 -->
<g id="edge53" class="edge">
<title>Node8&#45;&gt;Node25</title>
<path fill="none" stroke="midnightblue" d="M444.07,-285.48C544.4,-278.24 780.49,-260.99 990.37,-244.04"/>
<polygon fill="midnightblue" stroke="midnightblue" points="990.66,-247.53 1000.34,-243.24 990.09,-240.55 990.66,-247.53"/>
</g>
<!-- Node12&#45;&gt;Node2 -->
<g id="edge14" class="edge">
<title>Node12&#45;&gt;Node2</title>
<path fill="none" stroke="midnightblue" d="M412.48,-224.37C458.41,-205.01 569.8,-158.06 623.32,-135.51"/>
<polygon fill="midnightblue" stroke="midnightblue" points="624.76,-138.7 632.61,-131.59 622.04,-132.25 624.76,-138.7"/>
</g>
<!-- Node12&#45;&gt;Node4 -->
<g id="edge15" class="edge">
<title>Node12&#45;&gt;Node4</title>
<path fill="none" stroke="midnightblue" d="M408.79,-243.59C446.16,-262.71 536.41,-308.88 581.07,-331.73"/>
<polygon fill="midnightblue" stroke="midnightblue" points="579.63,-334.93 590.13,-336.37 582.82,-328.7 579.63,-334.93"/>
</g>
<!-- Node12&#45;&gt;Node13 -->
<g id="edge16" class="edge">
<title>Node12&#45;&gt;Node13</title>
<path fill="none" stroke="midnightblue" d="M376.9,-224.32C362.1,-215.82 339.31,-202.73 322.02,-192.8"/>
<polygon fill="midnightblue" stroke="midnightblue" points="323.48,-189.6 313.07,-187.65 319.99,-195.67 323.48,-189.6"/>
</g>
<!-- Node13&#45;&gt;Node2 -->
<g id="edge25" class="edge">
<title>Node13&#45;&gt;Node2</title>
<path fill="none" stroke="midnightblue" d="M327.1,-170.65C331.74,-169.71 336.49,-168.8 341,-168 420.64,-153.94 512.3,-141.11 575.56,-132.79"/>
<polygon fill="midnightblue" stroke="midnightblue" points="576.4,-136.21 585.86,-131.44 575.49,-129.27 576.4,-136.21"/>
</g>
<!-- Node13&#45;&gt;Node4 -->
<g id="edge26" class="edge">
<title>Node13&#45;&gt;Node4</title>
<path fill="none" stroke="midnightblue" d="M268.72,-181.77C220.3,-187.55 131.63,-203.84 161,-244 203.7,-302.4 411.64,-328.84 527.91,-339.22"/>
<polygon fill="midnightblue" stroke="midnightblue" points="527.92,-342.74 538.18,-340.12 528.52,-335.76 527.92,-342.74"/>
</g>
<!-- Node13&#45;&gt;Node9 -->
<g id="edge18" class="edge">
<title>Node13&#45;&gt;Node9</title>
<path fill="none" stroke="midnightblue" d="M286.75,-168.32C276.2,-160.18 260.2,-147.84 247.56,-138.09"/>
<polygon fill="midnightblue" stroke="midnightblue" points="249.51,-135.17 239.45,-131.83 245.23,-140.71 249.51,-135.17"/>
</g>
<!-- Node14 -->
<g id="node14" class="node">
<title>Node14</title>
<g id="a_node14"><a xlink:title=" ">
<polygon fill="none" stroke="#bfbfbf" points="290,-0.5 290,-19.5 334,-19.5 334,-0.5 290,-0.5"/>
<text text-anchor="middle" x="312" y="-7.5" font-family="Helvetica,sans-Serif" font-size="10.00">vector</text>
</a>
</g>
</g>
<!-- Node13&#45;&gt;Node14 -->
<g id="edge17" class="edge">
<title>Node13&#45;&gt;Node14</title>
<path fill="none" stroke="midnightblue" d="M298.75,-168.08C300.96,-141.95 307.43,-65.21 310.43,-29.58"/>
<polygon fill="midnightblue" stroke="midnightblue" points="313.92,-29.83 311.28,-19.57 306.95,-29.24 313.92,-29.83"/>
</g>
<!-- Node13&#45;&gt;Node15 -->
<g id="edge19" class="edge">
<title>Node13&#45;&gt;Node15</title>
<path fill="none" stroke="midnightblue" d="M268.85,-171.17C219.79,-161.36 120.73,-141.55 66.18,-130.64"/>
<polygon fill="midnightblue" stroke="midnightblue" points="66.71,-127.17 56.22,-128.64 65.34,-134.04 66.71,-127.17"/>
</g>
<!-- Node13&#45;&gt;Node17 -->
<g id="edge24" class="edge">
<title>Node13&#45;&gt;Node17</title>
<path fill="none" stroke="midnightblue" d="M292.85,-168.17C285.15,-155.26 269.82,-130.74 254,-112 245.18,-101.56 234.21,-90.94 225.08,-82.64"/>
<polygon fill="midnightblue" stroke="midnightblue" points="227.12,-79.77 217.33,-75.74 222.47,-85 227.12,-79.77"/>
</g>
<!-- Node16 -->
<g id="node16" class="node">
<title>Node16</title>
<g id="a_node16"><a xlink:title=" ">
<polygon fill="none" stroke="#bfbfbf" points="115.5,-0.5 115.5,-19.5 156.5,-19.5 156.5,-0.5 115.5,-0.5"/>
<text text-anchor="middle" x="136" y="-7.5" font-family="Helvetica,sans-Serif" font-size="10.00">string</text>
</a>
</g>
</g>
<!-- Node15&#45;&gt;Node16 -->
<g id="edge20" class="edge">
<title>Node15&#45;&gt;Node16</title>
<path fill="none" stroke="midnightblue" d="M36.47,-112.37C54.61,-93.89 97.42,-50.29 120.54,-26.74"/>
<polygon fill="midnightblue" stroke="midnightblue" points="123.06,-29.18 127.56,-19.59 118.06,-24.28 123.06,-29.18"/>
</g>
<!-- Node15&#45;&gt;Node17 -->
<g id="edge21" class="edge">
<title>Node15&#45;&gt;Node17</title>
<path fill="none" stroke="midnightblue" d="M56.36,-112.44C86.74,-103.28 135.11,-88.69 168.82,-78.52"/>
<polygon fill="midnightblue" stroke="midnightblue" points="170.21,-81.76 178.77,-75.52 168.18,-75.05 170.21,-81.76"/>
</g>
<!-- Node17&#45;&gt;Node14 -->
<g id="edge22" class="edge">
<title>Node17&#45;&gt;Node14</title>
<path fill="none" stroke="midnightblue" d="M223.87,-56.32C240.71,-47.66 266.81,-34.24 286.24,-24.25"/>
<polygon fill="midnightblue" stroke="midnightblue" points="287.88,-27.34 295.17,-19.65 284.68,-21.12 287.88,-27.34"/>
</g>
<!-- Node17&#45;&gt;Node16 -->
<g id="edge23" class="edge">
<title>Node17&#45;&gt;Node16</title>
<path fill="none" stroke="midnightblue" d="M195.59,-56.32C184.89,-48.18 168.66,-35.84 155.84,-26.09"/>
<polygon fill="midnightblue" stroke="midnightblue" points="157.69,-23.1 147.61,-19.83 153.46,-28.67 157.69,-23.1"/>
</g>
<!-- Node18&#45;&gt;Node2 -->
<g id="edge30" class="edge">
<title>Node18&#45;&gt;Node2</title>
<path fill="none" stroke="midnightblue" d="M653,-224.37C653,-206.62 653,-165.67 653,-141.6"/>
<polygon fill="midnightblue" stroke="midnightblue" points="656.5,-141.59 653,-131.59 649.5,-141.59 656.5,-141.59"/>
</g>
<!-- Node18&#45;&gt;Node4 -->
<g id="edge31" class="edge">
<title>Node18&#45;&gt;Node4</title>
<path fill="none" stroke="midnightblue" d="M615.71,-243.54C583.06,-251.86 539.25,-265.37 529,-280 513.52,-302.08 544.39,-320.98 571.74,-332.62"/>
<polygon fill="midnightblue" stroke="midnightblue" points="570.61,-335.93 581.19,-336.42 573.22,-329.44 570.61,-335.93"/>
</g>
<!-- Node18&#45;&gt;Node13 -->
<g id="edge29" class="edge">
<title>Node18&#45;&gt;Node13</title>
<path fill="none" stroke="midnightblue" d="M609.88,-225.46C606.88,-224.96 603.89,-224.47 601,-224 506.59,-208.82 395.32,-192.76 337.45,-184.55"/>
<polygon fill="midnightblue" stroke="midnightblue" points="337.68,-181.05 327.29,-183.11 336.7,-187.98 337.68,-181.05"/>
</g>
<!-- Node19 -->
<g id="node19" class="node">
<title>Node19</title>
<g id="a_node19"><a xlink:title=" ">
<polygon fill="none" stroke="#bfbfbf" points="958,-112.5 958,-131.5 1004,-131.5 1004,-112.5 958,-112.5"/>
<text text-anchor="middle" x="981" y="-119.5" font-family="Helvetica,sans-Serif" font-size="10.00">math.h</text>
</a>
</g>
</g>
<!-- Node18&#45;&gt;Node19 -->
<g id="edge28" class="edge">
<title>Node18&#45;&gt;Node19</title>
<path fill="none" stroke="midnightblue" d="M678.46,-224.46C737.33,-204.72 882.78,-155.94 948.2,-134"/>
<polygon fill="midnightblue" stroke="midnightblue" points="949.61,-137.22 957.98,-130.72 947.39,-130.58 949.61,-137.22"/>
</g>
<!-- Node20&#45;&gt;Node2 -->
<g id="edge35" class="edge">
<title>Node20&#45;&gt;Node2</title>
<path fill="none" stroke="midnightblue" d="M751.6,-224.37C733.71,-205.97 691.59,-162.67 668.61,-139.05"/>
<polygon fill="midnightblue" stroke="midnightblue" points="670.84,-136.32 661.36,-131.59 665.82,-141.2 670.84,-136.32"/>
</g>
<!-- Node20&#45;&gt;Node4 -->
<g id="edge36" class="edge">
<title>Node20&#45;&gt;Node4</title>
<path fill="none" stroke="midnightblue" d="M747.91,-243.61C735.22,-252.65 714.69,-267.3 697,-280 672.92,-297.3 645.28,-317.28 627.06,-330.47"/>
<polygon fill="midnightblue" stroke="midnightblue" points="624.97,-327.66 618.92,-336.36 629.08,-333.33 624.97,-327.66"/>
</g>
<!-- Node20&#45;&gt;Node13 -->
<g id="edge37" class="edge">
<title>Node20&#45;&gt;Node13</title>
<path fill="none" stroke="midnightblue" d="M713.81,-225.26C710.83,-224.82 707.88,-224.39 705,-224 570.4,-205.56 409.96,-189.57 337.26,-182.65"/>
<polygon fill="midnightblue" stroke="midnightblue" points="337.47,-179.16 327.18,-181.7 336.81,-186.13 337.47,-179.16"/>
</g>
<!-- Node20&#45;&gt;Node21 -->
<g id="edge38" class="edge">
<title>Node20&#45;&gt;Node21</title>
<path fill="none" stroke="midnightblue" d="M806.19,-225.21C862.43,-215.72 957.55,-199.66 1019.57,-189.2"/>
<polygon fill="midnightblue" stroke="midnightblue" points="1020.32,-192.62 1029.6,-187.5 1019.16,-185.72 1020.32,-192.62"/>
</g>
<!-- Node21&#45;&gt;Node14 -->
<g id="edge40" class="edge">
<title>Node21&#45;&gt;Node14</title>
<path fill="none" stroke="midnightblue" d="M1077.39,-168.16C1072.67,-153.83 1061.26,-125.74 1041,-112 924.65,-33.06 469.55,-15.2 344.15,-11.74"/>
<polygon fill="midnightblue" stroke="midnightblue" points="344.13,-8.24 334.04,-11.48 343.94,-15.24 344.13,-8.24"/>
</g>
<!-- Node21&#45;&gt;Node17 -->
<g id="edge42" class="edge">
<title>Node21&#45;&gt;Node17</title>
<path fill="none" stroke="midnightblue" d="M1074.24,-168.27C1063.96,-153.55 1040.91,-124.23 1013,-112 944.07,-81.8 423.44,-70.6 257.59,-67.77"/>
<polygon fill="midnightblue" stroke="midnightblue" points="257.24,-64.27 247.19,-67.6 257.13,-71.27 257.24,-64.27"/>
</g>
<!-- Node21&#45;&gt;Node19 -->
<g id="edge39" class="edge">
<title>Node21&#45;&gt;Node19</title>
<path fill="none" stroke="midnightblue" d="M1064.09,-168.32C1048.36,-159.74 1024.06,-146.49 1005.79,-136.52"/>
<polygon fill="midnightblue" stroke="midnightblue" points="1007.32,-133.37 996.87,-131.65 1003.97,-139.52 1007.32,-133.37"/>
</g>
<!-- Node22 -->
<g id="node22" class="node">
<title>Node22</title>
<g id="a_node22"><a xlink:title=" ">
<polygon fill="none" stroke="#bfbfbf" points="1098.5,-112.5 1098.5,-131.5 1149.5,-131.5 1149.5,-112.5 1098.5,-112.5"/>
<text text-anchor="middle" x="1124" y="-119.5" font-family="Helvetica,sans-Serif" font-size="10.00">numeric</text>
</a>
</g>
</g>
<!-- Node21&#45;&gt;Node22 -->
<g id="edge41" class="edge">
<title>Node21&#45;&gt;Node22</title>
<path fill="none" stroke="midnightblue" d="M1087.27,-168.08C1093.54,-160.38 1102.79,-149.03 1110.43,-139.65"/>
<polygon fill="midnightblue" stroke="midnightblue" points="1113.27,-141.71 1116.87,-131.75 1107.84,-137.29 1113.27,-141.71"/>
</g>
<!-- Node23&#45;&gt;Node2 -->
<g id="edge45" class="edge">
<title>Node23&#45;&gt;Node2</title>
<path fill="none" stroke="midnightblue" d="M528.59,-224.37C551.46,-205.73 605.71,-161.53 634.43,-138.13"/>
<polygon fill="midnightblue" stroke="midnightblue" points="636.91,-140.62 642.46,-131.59 632.49,-135.19 636.91,-140.62"/>
</g>
<!-- Node23&#45;&gt;Node4 -->
<g id="edge46" class="edge">
<title>Node23&#45;&gt;Node4</title>
<path fill="none" stroke="midnightblue" d="M565.33,-243.58C586.1,-249.95 608.55,-260.98 621,-280 630.26,-294.15 624.34,-313.38 617.58,-327.25"/>
<polygon fill="midnightblue" stroke="midnightblue" points="614.39,-325.79 612.72,-336.25 620.55,-329.12 614.39,-325.79"/>
</g>
<!-- Node23&#45;&gt;Node13 -->
<g id="edge47" class="edge">
<title>Node23&#45;&gt;Node13</title>
<path fill="none" stroke="midnightblue" d="M483.14,-224.44C443.29,-214.66 378.25,-198.7 336.82,-188.53"/>
<polygon fill="midnightblue" stroke="midnightblue" points="337.62,-185.12 327.08,-186.14 335.95,-191.92 337.62,-185.12"/>
</g>
<!-- Node24&#45;&gt;Node2 -->
<g id="edge49" class="edge">
<title>Node24&#45;&gt;Node2</title>
<path fill="none" stroke="midnightblue" d="M883.38,-224.37C839.48,-205.05 733.13,-158.26 681.75,-135.65"/>
<polygon fill="midnightblue" stroke="midnightblue" points="683.09,-132.42 672.53,-131.59 680.27,-138.82 683.09,-132.42"/>
</g>
<!-- Node24&#45;&gt;Node4 -->
<g id="edge50" class="edge">
<title>Node24&#45;&gt;Node4</title>
<path fill="none" stroke="midnightblue" d="M901.9,-243.76C899.61,-257.97 892.98,-285.89 875,-300 846.27,-322.54 754.29,-334.27 686.06,-340.03"/>
<polygon fill="midnightblue" stroke="midnightblue" points="685.43,-336.57 675.75,-340.87 686,-343.55 685.43,-336.57"/>
</g>
<!-- Node24&#45;&gt;Node13 -->
<g id="edge51" class="edge">
<title>Node24&#45;&gt;Node13</title>
<path fill="none" stroke="midnightblue" d="M823.85,-224.85C820.86,-224.56 817.9,-224.27 815,-224 636.76,-207.13 423.73,-189.34 337.31,-182.22"/>
<polygon fill="midnightblue" stroke="midnightblue" points="337.42,-178.71 327.17,-181.38 336.84,-185.69 337.42,-178.71"/>
</g>
<!-- Node24&#45;&gt;Node21 -->
<g id="edge52" class="edge">
<title>Node24&#45;&gt;Node21</title>
<path fill="none" stroke="midnightblue" d="M931.05,-224.44C961.08,-215.28 1008.91,-200.69 1042.24,-190.52"/>
<polygon fill="midnightblue" stroke="midnightblue" points="1043.54,-193.78 1052.09,-187.52 1041.5,-187.09 1043.54,-193.78"/>
</g>
<!-- Node25&#45;&gt;Node2 -->
<g id="edge54" class="edge">
<title>Node25&#45;&gt;Node2</title>
<path fill="none" stroke="midnightblue" d="M1060.68,-224.46C981.37,-204.72 785.42,-155.96 697.25,-134.01"/>
<polygon fill="midnightblue" stroke="midnightblue" points="697.84,-130.55 687.29,-131.53 696.15,-137.35 697.84,-130.55"/>
</g>
<!-- Node25&#45;&gt;Node4 -->
<g id="edge55" class="edge">
<title>Node25&#45;&gt;Node4</title>
<path fill="none" stroke="midnightblue" d="M1072.95,-243.5C1036.6,-257.22 961.57,-284.3 896,-300 825.77,-316.82 744.39,-328.84 685.91,-336.2"/>
<polygon fill="midnightblue" stroke="midnightblue" points="685.13,-332.77 675.63,-337.48 685.99,-339.72 685.13,-332.77"/>
</g>
<!-- Node25&#45;&gt;Node13 -->
<g id="edge56" class="edge">
<title>Node25&#45;&gt;Node13</title>
<path fill="none" stroke="midnightblue" d="M1000.35,-224.72C997.19,-224.47 994.07,-224.23 991,-224 742.27,-205.16 442.94,-187.38 337.26,-181.25"/>
<polygon fill="midnightblue" stroke="midnightblue" points="337.25,-177.75 327.06,-180.66 336.85,-184.73 337.25,-177.75"/>
</g>
<!-- Node25&#45;&gt;Node21 -->
<g id="edge57" class="edge">
<title>Node25&#45;&gt;Node21</title>
<path fill="none" stroke="midnightblue" d="M1092.52,-224.08C1090.51,-216.85 1087.61,-206.41 1085.11,-197.4"/>
<polygon fill="midnightblue" stroke="midnightblue" points="1088.48,-196.45 1082.43,-187.75 1081.74,-198.32 1088.48,-196.45"/>
</g>
</g>
</svg>
