<?xml version="1.0" encoding="UTF-8" standalone="no"?>
<!DOCTYPE svg PUBLIC "-//W3C//DTD SVG 1.1//EN"
 "http://www.w3.org/Graphics/SVG/1.1/DTD/svg11.dtd">
<!-- Generated by graphviz version 3.0.0 (20220413.0242)
 -->
<!-- Title: model/pressurereferencebc.hpp Pages: 1 -->
<svg width="1194pt" height="252pt"
 viewBox="0.00 0.00 1193.82 252.00" xmlns="http://www.w3.org/2000/svg" xmlns:xlink="http://www.w3.org/1999/xlink">
<g id="graph0" class="graph" transform="scale(1 1) rotate(0) translate(4 248)">
<title>model/pressurereferencebc.hpp</title>
<!-- Node1 -->
<g id="node1" class="node">
<title>Node1</title>
<g id="a_node1"><a xlink:title="MODEL::PressureReferenceBC source file.">
<polygon fill="#bfbfbf" stroke="black" points="667.32,-224.5 667.32,-243.5 819.32,-243.5 819.32,-224.5 667.32,-224.5"/>
<text text-anchor="middle" x="743.32" y="-231.5" font-family="Helvetica,sans-Serif" font-size="10.00">model/pressurereferencebc.hpp</text>
</a>
</g>
</g>
<!-- Node2 -->
<g id="node2" class="node">
<title>Node2</title>
<g id="a_node2"><a xlink:href="model_8hpp.html" target="_top" xlink:title="MODEL::Model source file.">
<polygon fill="none" stroke="black" points="570.32,-168.5 570.32,-187.5 660.32,-187.5 660.32,-168.5 570.32,-168.5"/>
<text text-anchor="middle" x="615.32" y="-175.5" font-family="Helvetica,sans-Serif" font-size="10.00">model/model.hpp</text>
</a>
</g>
</g>
<!-- Node1&#45;&gt;Node2 -->
<g id="edge1" class="edge">
<title>Node1&#45;&gt;Node2</title>
<path fill="none" stroke="midnightblue" d="M713.69,-220.5C689.7,-210.38 656.53,-196.39 635.5,-187.52"/>
<polygon fill="midnightblue" stroke="midnightblue" points="712.46,-223.78 723.04,-224.44 715.18,-217.33 712.46,-223.78"/>
</g>
<!-- Node3 -->
<g id="node3" class="node">
<title>Node3</title>
<g id="a_node3"><a xlink:href="densesystem_8hpp.html" target="_top" xlink:title="ALGEBRA::DenseSystem source file.">
<polygon fill="none" stroke="black" points="743.82,-112.5 743.82,-131.5 870.82,-131.5 870.82,-112.5 743.82,-112.5"/>
<text text-anchor="middle" x="807.32" y="-119.5" font-family="Helvetica,sans-Serif" font-size="10.00">algebra/densesystem.hpp</text>
</a>
</g>
</g>
<!-- Node2&#45;&gt;Node3 -->
<g id="edge2" class="edge">
<title>Node2&#45;&gt;Node3</title>
<path fill="none" stroke="midnightblue" d="M650.33,-165.57C684.9,-155.38 737.27,-140.7 771.96,-131.52"/>
<polygon fill="midnightblue" stroke="midnightblue" points="649.24,-162.24 640.65,-168.44 651.23,-168.95 649.24,-162.24"/>
</g>
<!-- Node4 -->
<g id="node4" class="node">
<title>Node4</title>
<g id="a_node4"><a xlink:href="main_8cpp.html" target="_top" xlink:title="Main routine of svZeroDSolver.">
<polygon fill="none" stroke="black" points="329.32,-56.5 329.32,-75.5 385.32,-75.5 385.32,-56.5 329.32,-56.5"/>
<text text-anchor="middle" x="357.32" y="-63.5" font-family="Helvetica,sans-Serif" font-size="10.00">main.cpp</text>
</a>
</g>
</g>
<!-- Node2&#45;&gt;Node4 -->
<g id="edge45" class="edge">
<title>Node2&#45;&gt;Node4</title>
<path fill="none" stroke="midnightblue" d="M586.95,-164.27C566.92,-155.27 539.47,-142.92 515.32,-132 495.74,-123.15 491.09,-120.39 471.32,-112 439.98,-98.7 403.28,-84.45 380.17,-75.63"/>
<polygon fill="midnightblue" stroke="midnightblue" points="585.58,-167.49 596.14,-168.39 588.45,-161.11 585.58,-167.49"/>
</g>
<!-- Node12 -->
<g id="node12" class="node">
<title>Node12</title>
<g id="a_node12"><a xlink:href="integrator_8hpp.html" target="_top" xlink:title="ALGEBRA::Integrator source file.">
<polygon fill="none" stroke="black" points="28.32,-112.5 28.32,-131.5 138.32,-131.5 138.32,-112.5 28.32,-112.5"/>
<text text-anchor="middle" x="83.32" y="-119.5" font-family="Helvetica,sans-Serif" font-size="10.00">algebra/integrator.hpp</text>
</a>
</g>
</g>
<!-- Node2&#45;&gt;Node12 -->
<g id="edge26" class="edge">
<title>Node2&#45;&gt;Node12</title>
<path fill="none" stroke="midnightblue" d="M560.08,-172.48C472.46,-165.13 296.24,-149.62 147.32,-132 144.42,-131.66 141.45,-131.29 138.46,-130.91"/>
<polygon fill="midnightblue" stroke="midnightblue" points="559.81,-175.97 570.07,-173.31 560.39,-168.99 559.81,-175.97"/>
</g>
<!-- Node13 -->
<g id="node13" class="node">
<title>Node13</title>
<g id="a_node13"><a xlink:href="sparsesystem_8hpp.html" target="_top" xlink:title="ALGEBRA::SparseSystem source file.">
<polygon fill="none" stroke="black" points="595.32,-112.5 595.32,-131.5 725.32,-131.5 725.32,-112.5 595.32,-112.5"/>
<text text-anchor="middle" x="660.32" y="-119.5" font-family="Helvetica,sans-Serif" font-size="10.00">algebra/sparsesystem.hpp</text>
</a>
</g>
</g>
<!-- Node2&#45;&gt;Node13 -->
<g id="edge28" class="edge">
<title>Node2&#45;&gt;Node13</title>
<path fill="none" stroke="midnightblue" d="M623.27,-159.86C630.24,-150.5 639.95,-139.33 647.89,-131.75"/>
<polygon fill="midnightblue" stroke="midnightblue" points="620.39,-157.87 617.58,-168.08 626.15,-161.85 620.39,-157.87"/>
</g>
<!-- Node14 -->
<g id="node14" class="node">
<title>Node14</title>
<g id="a_node14"><a xlink:href="configreader_8hpp.html" target="_top" xlink:title="IO::ConfigReader source file.">
<polygon fill="none" stroke="black" points="156.32,-112.5 156.32,-131.5 254.32,-131.5 254.32,-112.5 156.32,-112.5"/>
<text text-anchor="middle" x="205.32" y="-119.5" font-family="Helvetica,sans-Serif" font-size="10.00">io/configreader.hpp</text>
</a>
</g>
</g>
<!-- Node2&#45;&gt;Node14 -->
<g id="edge39" class="edge">
<title>Node2&#45;&gt;Node14</title>
<path fill="none" stroke="midnightblue" d="M560,-170.39C490.62,-162 368.05,-146.82 263.32,-132 260.39,-131.59 257.38,-131.15 254.35,-130.7"/>
<polygon fill="midnightblue" stroke="midnightblue" points="559.91,-173.91 570.26,-171.63 560.75,-166.96 559.91,-173.91"/>
</g>
<!-- Node15 -->
<g id="node15" class="node">
<title>Node15</title>
<g id="a_node15"><a xlink:href="csvwriter_8hpp.html" target="_top" xlink:title="IO::write_csv source file.">
<polygon fill="none" stroke="black" points="272.82,-112.5 272.82,-131.5 357.82,-131.5 357.82,-112.5 272.82,-112.5"/>
<text text-anchor="middle" x="315.32" y="-119.5" font-family="Helvetica,sans-Serif" font-size="10.00">io/csvwriter.hpp</text>
</a>
</g>
</g>
<!-- Node2&#45;&gt;Node15 -->
<g id="edge41" class="edge">
<title>Node2&#45;&gt;Node15</title>
<path fill="none" stroke="midnightblue" d="M559.94,-167.03C501.61,-156.53 411.03,-140.23 358,-130.68"/>
<polygon fill="midnightblue" stroke="midnightblue" points="559.62,-170.53 570.08,-168.86 560.86,-163.64 559.62,-170.53"/>
</g>
<!-- Node16 -->
<g id="node16" class="node">
<title>Node16</title>
<g id="a_node16"><a xlink:href="jsonwriter_8hpp.html" target="_top" xlink:title="IO::write_json source file.">
<polygon fill="none" stroke="black" points="375.82,-112.5 375.82,-131.5 462.82,-131.5 462.82,-112.5 375.82,-112.5"/>
<text text-anchor="middle" x="419.32" y="-119.5" font-family="Helvetica,sans-Serif" font-size="10.00">io/jsonwriter.hpp</text>
</a>
</g>
</g>
<!-- Node2&#45;&gt;Node16 -->
<g id="edge43" class="edge">
<title>Node2&#45;&gt;Node16</title>
<path fill="none" stroke="midnightblue" d="M574.3,-165.7C537.31,-155.51 483.72,-140.74 450.23,-131.52"/>
<polygon fill="midnightblue" stroke="midnightblue" points="573.69,-169.16 584.26,-168.44 575.55,-162.41 573.69,-169.16"/>
</g>
<!-- Node3&#45;&gt;Node1 -->
<g id="edge23" class="edge">
<title>Node3&#45;&gt;Node1</title>
<path fill="none" stroke="midnightblue" d="M797.25,-140.31C783.36,-164.18 758.85,-206.3 748.34,-224.37"/>
<polygon fill="midnightblue" stroke="midnightblue" points="800.31,-142 802.32,-131.59 794.26,-138.47 800.31,-142"/>
</g>
<!-- Node3&#45;&gt;Node2 -->
<g id="edge21" class="edge">
<title>Node3&#45;&gt;Node2</title>
<path fill="none" stroke="midnightblue" d="M772.45,-134.39C737.94,-144.56 685.57,-159.24 650.83,-168.44"/>
<polygon fill="midnightblue" stroke="midnightblue" points="773.53,-137.72 782.12,-131.52 771.53,-131.01 773.53,-137.72"/>
</g>
<!-- Node3&#45;&gt;Node4 -->
<g id="edge3" class="edge">
<title>Node3&#45;&gt;Node4</title>
<path fill="none" stroke="midnightblue" d="M733.37,-111.89C596.56,-95.31 446.99,-77.59 385.7,-70.35"/>
<polygon fill="midnightblue" stroke="midnightblue" points="733.27,-115.4 743.62,-113.13 734.11,-108.45 733.27,-115.4"/>
</g>
<!-- Node5 -->
<g id="node5" class="node">
<title>Node5</title>
<g id="a_node5"><a xlink:href="block_8hpp.html" target="_top" xlink:title="MODEL::Block source file.">
<polygon fill="none" stroke="black" points="745.82,-56.5 745.82,-75.5 832.82,-75.5 832.82,-56.5 745.82,-56.5"/>
<text text-anchor="middle" x="789.32" y="-63.5" font-family="Helvetica,sans-Serif" font-size="10.00">model/block.hpp</text>
</a>
</g>
</g>
<!-- Node3&#45;&gt;Node5 -->
<g id="edge4" class="edge">
<title>Node3&#45;&gt;Node5</title>
<path fill="none" stroke="midnightblue" d="M801.12,-102.4C798.1,-93.36 794.63,-82.94 792.23,-75.75"/>
<polygon fill="midnightblue" stroke="midnightblue" points="797.86,-103.7 804.34,-112.08 804.5,-101.49 797.86,-103.7"/>
</g>
<!-- Node6 -->
<g id="node6" class="node">
<title>Node6</title>
<g id="a_node6"><a xlink:href="bloodvessel_8hpp.html" target="_top" xlink:title="MODEL::BloodVessel source file.">
<polygon fill="none" stroke="black" points="472.32,-0.5 472.32,-19.5 588.32,-19.5 588.32,-0.5 472.32,-0.5"/>
<text text-anchor="middle" x="530.32" y="-7.5" font-family="Helvetica,sans-Serif" font-size="10.00">model/bloodvessel.hpp</text>
</a>
</g>
</g>
<!-- Node3&#45;&gt;Node6 -->
<g id="edge18" class="edge">
<title>Node3&#45;&gt;Node6</title>
<path fill="none" stroke="midnightblue" d="M776.06,-108.59C719.31,-86.05 600.7,-38.95 551.95,-19.59"/>
<polygon fill="midnightblue" stroke="midnightblue" points="775,-111.93 785.58,-112.37 777.58,-105.42 775,-111.93"/>
</g>
<!-- Node7 -->
<g id="node7" class="node">
<title>Node7</title>
<g id="a_node7"><a xlink:href="flowreferencebc_8hpp.html" target="_top" xlink:title="MODEL::FlowReferenceBC source file.">
<polygon fill="none" stroke="black" points="606.32,-0.5 606.32,-19.5 738.32,-19.5 738.32,-0.5 606.32,-0.5"/>
<text text-anchor="middle" x="672.32" y="-7.5" font-family="Helvetica,sans-Serif" font-size="10.00">model/flowreferencebc.hpp</text>
</a>
</g>
</g>
<!-- Node3&#45;&gt;Node7 -->
<g id="edge19" class="edge">
<title>Node3&#45;&gt;Node7</title>
<path fill="none" stroke="midnightblue" d="M782.98,-107.45C768.82,-99.12 750.94,-87.8 736.32,-76 713.89,-57.9 691,-32.68 679.65,-19.62"/>
<polygon fill="midnightblue" stroke="midnightblue" points="781.26,-110.5 791.67,-112.47 784.76,-104.44 781.26,-110.5"/>
</g>
<!-- Node8 -->
<g id="node8" class="node">
<title>Node8</title>
<g id="a_node8"><a xlink:href="junction_8hpp.html" target="_top" xlink:title="MODEL::Junction source file.">
<polygon fill="none" stroke="black" points="356.32,-0.5 356.32,-19.5 454.32,-19.5 454.32,-0.5 356.32,-0.5"/>
<text text-anchor="middle" x="405.32" y="-7.5" font-family="Helvetica,sans-Serif" font-size="10.00">model/junction.hpp</text>
</a>
</g>
</g>
<!-- Node3&#45;&gt;Node8 -->
<g id="edge20" class="edge">
<title>Node3&#45;&gt;Node8</title>
<path fill="none" stroke="midnightblue" d="M765.3,-109.76C731.52,-100.7 682.84,-87.61 640.32,-76 567.02,-55.99 480.97,-32.08 436.09,-19.58"/>
<polygon fill="midnightblue" stroke="midnightblue" points="764.72,-113.23 775.28,-112.44 766.53,-106.47 764.72,-113.23"/>
</g>
<!-- Node9 -->
<g id="node9" class="node">
<title>Node9</title>
<g id="a_node9"><a xlink:href="openloopcoronarybc_8hpp.html" target="_top" xlink:title="MODEL::OpenLoopCoronaryBC source file.">
<polygon fill="none" stroke="black" points="894.32,-0.5 894.32,-19.5 1044.32,-19.5 1044.32,-0.5 894.32,-0.5"/>
<text text-anchor="middle" x="969.32" y="-7.5" font-family="Helvetica,sans-Serif" font-size="10.00">model/openloopcoronarybc.hpp</text>
</a>
</g>
</g>
<!-- Node3&#45;&gt;Node9 -->
<g id="edge22" class="edge">
<title>Node3&#45;&gt;Node9</title>
<path fill="none" stroke="midnightblue" d="M880.81,-112.57C906.12,-106.23 932.74,-95.19 951.32,-76 966.3,-60.52 969.04,-33.71 969.4,-19.86"/>
<polygon fill="midnightblue" stroke="midnightblue" points="879.79,-109.22 870.82,-114.86 881.35,-116.04 879.79,-109.22"/>
</g>
<!-- Node10 -->
<g id="node10" class="node">
<title>Node10</title>
<g id="a_node10"><a xlink:href="resistancebc_8hpp.html" target="_top" xlink:title="MODEL::ResistanceBC source file.">
<polygon fill="none" stroke="black" points="756.82,-0.5 756.82,-19.5 875.82,-19.5 875.82,-0.5 756.82,-0.5"/>
<text text-anchor="middle" x="816.32" y="-7.5" font-family="Helvetica,sans-Serif" font-size="10.00">model/resistancebc.hpp</text>
</a>
</g>
</g>
<!-- Node3&#45;&gt;Node10 -->
<g id="edge24" class="edge">
<title>Node3&#45;&gt;Node10</title>
<path fill="none" stroke="midnightblue" d="M823.97,-105.04C831.08,-97.08 838.6,-86.84 842.32,-76 849.34,-55.54 834.03,-32.11 824.04,-19.73"/>
<polygon fill="midnightblue" stroke="midnightblue" points="821.26,-102.81 816.87,-112.45 826.32,-107.65 821.26,-102.81"/>
</g>
<!-- Node11 -->
<g id="node11" class="node">
<title>Node11</title>
<g id="a_node11"><a xlink:href="windkesselbc_8hpp.html" target="_top" xlink:title="MODEL::WindkesselBC source file.">
<polygon fill="none" stroke="black" points="1062.82,-0.5 1062.82,-19.5 1185.82,-19.5 1185.82,-0.5 1062.82,-0.5"/>
<text text-anchor="middle" x="1124.32" y="-7.5" font-family="Helvetica,sans-Serif" font-size="10.00">model/windkesselbc.hpp</text>
</a>
</g>
</g>
<!-- Node3&#45;&gt;Node11 -->
<g id="edge25" class="edge">
<title>Node3&#45;&gt;Node11</title>
<path fill="none" stroke="midnightblue" d="M881.22,-120.72C935.22,-117.62 1008.63,-107.21 1065.32,-76 1090.15,-62.33 1110.04,-34.21 1119.07,-19.86"/>
<polygon fill="midnightblue" stroke="midnightblue" points="880.84,-117.24 871.03,-121.23 881.19,-124.23 880.84,-117.24"/>
</g>
<!-- Node5&#45;&gt;Node1 -->
<g id="edge13" class="edge">
<title>Node5&#45;&gt;Node1</title>
<path fill="none" stroke="midnightblue" d="M832.64,-78.77C861.9,-89.22 893.06,-106.78 880.32,-132 856.13,-179.87 797.38,-210.63 765.23,-224.48"/>
<polygon fill="midnightblue" stroke="midnightblue" points="833.44,-75.35 822.85,-75.5 831.22,-81.99 833.44,-75.35"/>
</g>
<!-- Node5&#45;&gt;Node6 -->
<g id="edge5" class="edge">
<title>Node5&#45;&gt;Node6</title>
<path fill="none" stroke="midnightblue" d="M738.22,-54.35C689.27,-44.14 616.36,-28.94 571.16,-19.52"/>
<polygon fill="midnightblue" stroke="midnightblue" points="737.77,-57.83 748.28,-56.44 739.2,-50.98 737.77,-57.83"/>
</g>
<!-- Node5&#45;&gt;Node7 -->
<g id="edge7" class="edge">
<title>Node5&#45;&gt;Node7</title>
<path fill="none" stroke="midnightblue" d="M761.65,-52.23C739.77,-42.13 709.82,-28.31 690.77,-19.52"/>
<polygon fill="midnightblue" stroke="midnightblue" points="760.23,-55.43 770.78,-56.44 763.17,-49.08 760.23,-55.43"/>
</g>
<!-- Node5&#45;&gt;Node8 -->
<g id="edge9" class="edge">
<title>Node5&#45;&gt;Node8</title>
<path fill="none" stroke="midnightblue" d="M735.83,-57.9C671.21,-49.25 559.23,-34.06 463.32,-20 460.39,-19.57 457.39,-19.12 454.36,-18.67"/>
<polygon fill="midnightblue" stroke="midnightblue" points="735.41,-61.37 745.78,-59.23 736.33,-54.43 735.41,-61.37"/>
</g>
<!-- Node5&#45;&gt;Node9 -->
<g id="edge11" class="edge">
<title>Node5&#45;&gt;Node9</title>
<path fill="none" stroke="midnightblue" d="M827.42,-53.57C861.38,-43.38 910.31,-28.7 940.93,-19.52"/>
<polygon fill="midnightblue" stroke="midnightblue" points="826.41,-50.22 817.84,-56.44 828.42,-56.92 826.41,-50.22"/>
</g>
<!-- Node5&#45;&gt;Node10 -->
<g id="edge14" class="edge">
<title>Node5&#45;&gt;Node10</title>
<path fill="none" stroke="midnightblue" d="M798.33,-46.98C802.91,-37.82 808.27,-27.09 811.94,-19.75"/>
<polygon fill="midnightblue" stroke="midnightblue" points="795.12,-45.57 793.78,-56.08 801.38,-48.7 795.12,-45.57"/>
</g>
<!-- Node5&#45;&gt;Node11 -->
<g id="edge16" class="edge">
<title>Node5&#45;&gt;Node11</title>
<path fill="none" stroke="midnightblue" d="M843.21,-56.31C905.99,-46.19 1009.04,-29.58 1071.4,-19.53"/>
<polygon fill="midnightblue" stroke="midnightblue" points="842.43,-52.89 833.11,-57.94 843.54,-59.8 842.43,-52.89"/>
</g>
<!-- Node6&#45;&gt;Node2 -->
<g id="edge6" class="edge">
<title>Node6&#45;&gt;Node2</title>
<path fill="none" stroke="midnightblue" d="M529.29,-30.08C529.23,-43.4 530.5,-61.34 536.32,-76 552.01,-115.52 588.26,-152.29 605.66,-168.42"/>
<polygon fill="midnightblue" stroke="midnightblue" points="532.8,-29.87 529.6,-19.77 525.8,-29.66 532.8,-29.87"/>
</g>
<!-- Node7&#45;&gt;Node2 -->
<g id="edge8" class="edge">
<title>Node7&#45;&gt;Node2</title>
<path fill="none" stroke="midnightblue" d="M652.84,-26.33C631.81,-44.26 599.53,-76.1 586.32,-112 578.72,-132.64 595.71,-156 606.77,-168.32"/>
<polygon fill="midnightblue" stroke="midnightblue" points="655.34,-28.81 660.82,-19.74 650.88,-23.41 655.34,-28.81"/>
</g>
<!-- Node8&#45;&gt;Node2 -->
<g id="edge10" class="edge">
<title>Node8&#45;&gt;Node2</title>
<path fill="none" stroke="midnightblue" d="M345.86,-11.03C215.48,-12.96 -76.58,-28.59 19.32,-132 56.54,-172.14 437.29,-176.68 569.99,-177.04"/>
<polygon fill="midnightblue" stroke="midnightblue" points="346.14,-14.53 356.09,-10.9 346.05,-7.53 346.14,-14.53"/>
</g>
<!-- Node9&#45;&gt;Node2 -->
<g id="edge12" class="edge">
<title>Node9&#45;&gt;Node2</title>
<path fill="none" stroke="midnightblue" d="M973.91,-29.57C976.28,-43.13 977.37,-61.58 970.32,-76 952.51,-112.42 935.51,-115.86 898.32,-132 819.36,-166.26 717.88,-174.76 660.37,-176.68"/>
<polygon fill="midnightblue" stroke="midnightblue" points="977.28,-28.58 971.78,-19.53 970.44,-30.04 977.28,-28.58"/>
</g>
<!-- Node10&#45;&gt;Node2 -->
<g id="edge15" class="edge">
<title>Node10&#45;&gt;Node2</title>
<path fill="none" stroke="midnightblue" d="M835.37,-26.41C863.14,-50.72 908.52,-98.6 880.32,-132 852.69,-164.71 728.51,-173.65 660.39,-176.09"/>
<polygon fill="midnightblue" stroke="midnightblue" points="837.3,-23.47 827.41,-19.67 832.78,-28.81 837.3,-23.47"/>
</g>
<!-- Node11&#45;&gt;Node2 -->
<g id="edge17" class="edge">
<title>Node11&#45;&gt;Node2</title>
<path fill="none" stroke="midnightblue" d="M1119.03,-29.75C1114.05,-44.21 1105.26,-63.75 1091.32,-76 1027.06,-132.45 766.62,-162.79 660.58,-173.01"/>
<polygon fill="midnightblue" stroke="midnightblue" points="1122.47,-30.47 1122.11,-19.89 1115.79,-28.39 1122.47,-30.47"/>
</g>
<!-- Node12&#45;&gt;Node4 -->
<g id="edge27" class="edge">
<title>Node12&#45;&gt;Node4</title>
<path fill="none" stroke="midnightblue" d="M136.75,-110.47C194.39,-99.11 283.95,-81.46 329.16,-72.55"/>
<polygon fill="midnightblue" stroke="midnightblue" points="135.87,-107.08 126.73,-112.44 137.22,-113.94 135.87,-107.08"/>
</g>
<!-- Node13&#45;&gt;Node1 -->
<g id="edge36" class="edge">
<title>Node13&#45;&gt;Node1</title>
<path fill="none" stroke="midnightblue" d="M672.9,-139.68C690.82,-163.43 723.05,-206.14 736.8,-224.37"/>
<polygon fill="midnightblue" stroke="midnightblue" points="675.62,-137.47 666.8,-131.59 670.03,-141.68 675.62,-137.47"/>
</g>
<!-- Node13&#45;&gt;Node2 -->
<g id="edge34" class="edge">
<title>Node13&#45;&gt;Node2</title>
<path fill="none" stroke="midnightblue" d="M652.4,-140.09C645.41,-149.48 635.63,-160.73 627.66,-168.32"/>
<polygon fill="midnightblue" stroke="midnightblue" points="655.3,-142.05 658.1,-131.83 649.54,-138.07 655.3,-142.05"/>
</g>
<!-- Node13&#45;&gt;Node4 -->
<g id="edge29" class="edge">
<title>Node13&#45;&gt;Node4</title>
<path fill="none" stroke="midnightblue" d="M597.3,-110.87C544.35,-102.18 466.75,-89.03 399.32,-76 394.92,-75.15 390.28,-74.21 385.75,-73.26"/>
<polygon fill="midnightblue" stroke="midnightblue" points="596.78,-114.33 607.22,-112.49 597.91,-107.42 596.78,-114.33"/>
</g>
<!-- Node13&#45;&gt;Node5 -->
<g id="edge30" class="edge">
<title>Node13&#45;&gt;Node5</title>
<path fill="none" stroke="midnightblue" d="M690.17,-108.5C714.35,-98.38 747.78,-84.39 768.97,-75.52"/>
<polygon fill="midnightblue" stroke="midnightblue" points="688.63,-105.35 680.76,-112.44 691.33,-111.81 688.63,-105.35"/>
</g>
<!-- Node13&#45;&gt;Node6 -->
<g id="edge31" class="edge">
<title>Node13&#45;&gt;Node6</title>
<path fill="none" stroke="midnightblue" d="M607.87,-109.44C587.83,-102.67 566.24,-92.15 551.32,-76 536.51,-59.97 532.14,-33.41 530.85,-19.73"/>
<polygon fill="midnightblue" stroke="midnightblue" points="606.95,-112.83 617.54,-112.48 609.05,-106.15 606.95,-112.83"/>
</g>
<!-- Node13&#45;&gt;Node7 -->
<g id="edge32" class="edge">
<title>Node13&#45;&gt;Node7</title>
<path fill="none" stroke="midnightblue" d="M661.38,-102.1C662.21,-89.11 663.52,-71.48 665.32,-56 666.79,-43.28 669.2,-28.64 670.78,-19.6"/>
<polygon fill="midnightblue" stroke="midnightblue" points="657.89,-101.96 660.78,-112.15 664.87,-102.38 657.89,-101.96"/>
</g>
<!-- Node13&#45;&gt;Node8 -->
<g id="edge33" class="edge">
<title>Node13&#45;&gt;Node8</title>
<path fill="none" stroke="midnightblue" d="M585.01,-112.98C529.63,-105.78 460.18,-93.61 437.32,-76 418.78,-61.73 410.29,-33.88 407.03,-19.72"/>
<polygon fill="midnightblue" stroke="midnightblue" points="584.81,-116.48 595.17,-114.27 585.69,-109.54 584.81,-116.48"/>
</g>
<!-- Node13&#45;&gt;Node9 -->
<g id="edge35" class="edge">
<title>Node13&#45;&gt;Node9</title>
<path fill="none" stroke="midnightblue" d="M717.53,-110.39C753.9,-102.79 801.63,-91.21 842.32,-76 885.24,-59.96 932.45,-33.16 955.33,-19.52"/>
<polygon fill="midnightblue" stroke="midnightblue" points="716.69,-106.99 707.59,-112.43 718.09,-113.85 716.69,-106.99"/>
</g>
<!-- Node13&#45;&gt;Node10 -->
<g id="edge37" class="edge">
<title>Node13&#45;&gt;Node10</title>
<path fill="none" stroke="midnightblue" d="M676.59,-105.44C691.48,-91.61 714.46,-71.27 736.32,-56 756.82,-41.67 782.27,-27.99 798.88,-19.55"/>
<polygon fill="midnightblue" stroke="midnightblue" points="674.09,-102.98 669.2,-112.38 678.89,-108.08 674.09,-102.98"/>
</g>
<!-- Node13&#45;&gt;Node11 -->
<g id="edge38" class="edge">
<title>Node13&#45;&gt;Node11</title>
<path fill="none" stroke="midnightblue" d="M714.85,-110.52C758.84,-101.87 822.24,-88.95 877.32,-76 955.88,-57.53 1047.58,-32.47 1094.03,-19.52"/>
<polygon fill="midnightblue" stroke="midnightblue" points="714.08,-107.11 704.94,-112.46 715.42,-113.97 714.08,-107.11"/>
</g>
<!-- Node14&#45;&gt;Node4 -->
<g id="edge40" class="edge">
<title>Node14&#45;&gt;Node4</title>
<path fill="none" stroke="midnightblue" d="M238.98,-109.04C267.58,-98.88 307.93,-84.55 333.34,-75.52"/>
<polygon fill="midnightblue" stroke="midnightblue" points="237.65,-105.8 229.4,-112.44 240,-112.39 237.65,-105.8"/>
</g>
<!-- Node15&#45;&gt;Node4 -->
<g id="edge42" class="edge">
<title>Node15&#45;&gt;Node4</title>
<path fill="none" stroke="midnightblue" d="M328.43,-104.14C335.74,-94.74 344.56,-83.4 350.51,-75.75"/>
<polygon fill="midnightblue" stroke="midnightblue" points="325.63,-102.04 322.25,-112.08 331.15,-106.34 325.63,-102.04"/>
</g>
<!-- Node16&#45;&gt;Node4 -->
<g id="edge44" class="edge">
<title>Node16&#45;&gt;Node4</title>
<path fill="none" stroke="midnightblue" d="M401.56,-105.54C390.51,-95.91 376.69,-83.87 367.46,-75.83"/>
<polygon fill="midnightblue" stroke="midnightblue" points="399.52,-108.4 409.36,-112.32 404.11,-103.12 399.52,-108.4"/>
</g>
</g>
</svg>
