<?xml version="1.0" encoding="UTF-8" standalone="no"?>
<!DOCTYPE svg PUBLIC "-//W3C//DTD SVG 1.1//EN"
 "http://www.w3.org/Graphics/SVG/1.1/DTD/svg11.dtd">
<!-- Generated by graphviz version 3.0.0 (20220413.0242)
 -->
<!-- Title: model/pressurereferencebc.hpp Pages: 1 -->
<svg width="1167pt" height="252pt"
 viewBox="0.00 0.00 1166.82 252.00" xmlns="http://www.w3.org/2000/svg" xmlns:xlink="http://www.w3.org/1999/xlink">
<g id="graph0" class="graph" transform="scale(1 1) rotate(0) translate(4 248)">
<title>model/pressurereferencebc.hpp</title>
<!-- Node1 -->
<g id="node1" class="node">
<title>Node1</title>
<g id="a_node1"><a xlink:title="MODEL::PressureReferenceBC source file.">
<polygon fill="#bfbfbf" stroke="black" points="675.32,-224.5 675.32,-243.5 827.32,-243.5 827.32,-224.5 675.32,-224.5"/>
<text text-anchor="middle" x="751.32" y="-231.5" font-family="Helvetica,sans-Serif" font-size="10.00">model/pressurereferencebc.hpp</text>
</a>
</g>
</g>
<!-- Node2 -->
<g id="node2" class="node">
<title>Node2</title>
<g id="a_node2"><a xlink:href="model_8hpp.html" target="_top" xlink:title="MODEL::Model source file.">
<polygon fill="none" stroke="black" points="503.32,-168.5 503.32,-187.5 593.32,-187.5 593.32,-168.5 503.32,-168.5"/>
<text text-anchor="middle" x="548.32" y="-175.5" font-family="Helvetica,sans-Serif" font-size="10.00">model/model.hpp</text>
</a>
</g>
</g>
<!-- Node1&#45;&gt;Node2 -->
<g id="edge1" class="edge">
<title>Node1&#45;&gt;Node2</title>
<path fill="none" stroke="midnightblue" d="M709.33,-221.83C671,-211.63 615.17,-196.78 580.34,-187.52"/>
<polygon fill="midnightblue" stroke="midnightblue" points="708.59,-225.26 719.16,-224.44 710.39,-218.49 708.59,-225.26"/>
</g>
<!-- Node3 -->
<g id="node3" class="node">
<title>Node3</title>
<g id="a_node3"><a xlink:href="densesystem_8hpp.html" target="_top" xlink:title="ALGEBRA::DenseSystem source file.">
<polygon fill="none" stroke="black" points="743.82,-112.5 743.82,-131.5 870.82,-131.5 870.82,-112.5 743.82,-112.5"/>
<text text-anchor="middle" x="807.32" y="-119.5" font-family="Helvetica,sans-Serif" font-size="10.00">algebra/densesystem.hpp</text>
</a>
</g>
</g>
<!-- Node2&#45;&gt;Node3 -->
<g id="edge2" class="edge">
<title>Node2&#45;&gt;Node3</title>
<path fill="none" stroke="midnightblue" d="M594.22,-166.28C641.38,-156.08 714.22,-140.92 761.4,-131.52"/>
<polygon fill="midnightblue" stroke="midnightblue" points="593.3,-162.9 584.27,-168.44 594.79,-169.74 593.3,-162.9"/>
</g>
<!-- Node4 -->
<g id="node4" class="node">
<title>Node4</title>
<g id="a_node4"><a xlink:href="main_8cpp.html" target="_top" xlink:title="Main routine of svZeroDSolver.">
<polygon fill="none" stroke="black" points="244.32,-56.5 244.32,-75.5 300.32,-75.5 300.32,-56.5 244.32,-56.5"/>
<text text-anchor="middle" x="272.32" y="-63.5" font-family="Helvetica,sans-Serif" font-size="10.00">main.cpp</text>
</a>
</g>
</g>
<!-- Node2&#45;&gt;Node4 -->
<g id="edge48" class="edge">
<title>Node2&#45;&gt;Node4</title>
<path fill="none" stroke="midnightblue" d="M533.7,-160.83C519.28,-145.89 495.9,-124.23 471.32,-112 467.47,-110.08 354.6,-85.1 300.59,-73.21"/>
<polygon fill="midnightblue" stroke="midnightblue" points="531.34,-163.43 540.73,-168.33 536.45,-158.64 531.34,-163.43"/>
</g>
<!-- Node13 -->
<g id="node13" class="node">
<title>Node13</title>
<g id="a_node13"><a xlink:href="integrator_8hpp.html" target="_top" xlink:title="ALGEBRA::Integrator source file.">
<polygon fill="none" stroke="black" points="28.32,-112.5 28.32,-131.5 138.32,-131.5 138.32,-112.5 28.32,-112.5"/>
<text text-anchor="middle" x="83.32" y="-119.5" font-family="Helvetica,sans-Serif" font-size="10.00">algebra/integrator.hpp</text>
</a>
</g>
</g>
<!-- Node2&#45;&gt;Node13 -->
<g id="edge28" class="edge">
<title>Node2&#45;&gt;Node13</title>
<path fill="none" stroke="midnightblue" d="M493.17,-171.3C415.81,-163.2 270.71,-147.6 147.32,-132 144.43,-131.63 141.46,-131.25 138.47,-130.85"/>
<polygon fill="midnightblue" stroke="midnightblue" points="492.86,-174.79 503.17,-172.35 493.59,-167.83 492.86,-174.79"/>
</g>
<!-- Node14 -->
<g id="node14" class="node">
<title>Node14</title>
<g id="a_node14"><a xlink:href="sparsesystem_8hpp.html" target="_top" xlink:title="ALGEBRA::SparseSystem source file.">
<polygon fill="none" stroke="black" points="595.32,-112.5 595.32,-131.5 725.32,-131.5 725.32,-112.5 595.32,-112.5"/>
<text text-anchor="middle" x="660.32" y="-119.5" font-family="Helvetica,sans-Serif" font-size="10.00">algebra/sparsesystem.hpp</text>
</a>
</g>
</g>
<!-- Node2&#45;&gt;Node14 -->
<g id="edge30" class="edge">
<title>Node2&#45;&gt;Node14</title>
<path fill="none" stroke="midnightblue" d="M570.21,-163.59C589.59,-153.61 617.53,-140.27 637.26,-131.65"/>
<polygon fill="midnightblue" stroke="midnightblue" points="568.43,-160.57 561.2,-168.32 571.68,-166.77 568.43,-160.57"/>
</g>
<!-- Node15 -->
<g id="node15" class="node">
<title>Node15</title>
<g id="a_node15"><a xlink:href="configreader_8hpp.html" target="_top" xlink:title="IO::ConfigReader source file.">
<polygon fill="none" stroke="black" points="156.32,-112.5 156.32,-131.5 254.32,-131.5 254.32,-112.5 156.32,-112.5"/>
<text text-anchor="middle" x="205.32" y="-119.5" font-family="Helvetica,sans-Serif" font-size="10.00">io/configreader.hpp</text>
</a>
</g>
</g>
<!-- Node2&#45;&gt;Node15 -->
<g id="edge42" class="edge">
<title>Node2&#45;&gt;Node15</title>
<path fill="none" stroke="midnightblue" d="M492.92,-168.28C426.91,-157.89 317.64,-140.68 254.5,-130.74"/>
<polygon fill="midnightblue" stroke="midnightblue" points="492.71,-171.79 503.13,-169.88 493.79,-164.87 492.71,-171.79"/>
</g>
<!-- Node16 -->
<g id="node16" class="node">
<title>Node16</title>
<g id="a_node16"><a xlink:href="csvwriter_8hpp.html" target="_top" xlink:title="IO::write_csv source file.">
<polygon fill="none" stroke="black" points="272.82,-112.5 272.82,-131.5 357.82,-131.5 357.82,-112.5 272.82,-112.5"/>
<text text-anchor="middle" x="315.32" y="-119.5" font-family="Helvetica,sans-Serif" font-size="10.00">io/csvwriter.hpp</text>
</a>
</g>
</g>
<!-- Node2&#45;&gt;Node16 -->
<g id="edge44" class="edge">
<title>Node2&#45;&gt;Node16</title>
<path fill="none" stroke="midnightblue" d="M501.52,-166.15C457.5,-155.95 392.48,-140.88 352.07,-131.52"/>
<polygon fill="midnightblue" stroke="midnightblue" points="500.87,-169.6 511.4,-168.44 502.45,-162.78 500.87,-169.6"/>
</g>
<!-- Node17 -->
<g id="node17" class="node">
<title>Node17</title>
<g id="a_node17"><a xlink:href="jsonwriter_8hpp.html" target="_top" xlink:title="IO::write_json source file.">
<polygon fill="none" stroke="black" points="375.82,-112.5 375.82,-131.5 462.82,-131.5 462.82,-112.5 375.82,-112.5"/>
<text text-anchor="middle" x="419.32" y="-119.5" font-family="Helvetica,sans-Serif" font-size="10.00">io/jsonwriter.hpp</text>
</a>
</g>
</g>
<!-- Node2&#45;&gt;Node17 -->
<g id="edge46" class="edge">
<title>Node2&#45;&gt;Node17</title>
<path fill="none" stroke="midnightblue" d="M518.47,-164.5C494.28,-154.38 460.86,-140.39 439.67,-131.52"/>
<polygon fill="midnightblue" stroke="midnightblue" points="517.31,-167.81 527.88,-168.44 520.01,-161.35 517.31,-167.81"/>
</g>
<!-- Node3&#45;&gt;Node1 -->
<g id="edge25" class="edge">
<title>Node3&#45;&gt;Node1</title>
<path fill="none" stroke="midnightblue" d="M798.35,-140.63C786.17,-164.55 764.88,-206.38 755.72,-224.37"/>
<polygon fill="midnightblue" stroke="midnightblue" points="801.53,-142.09 802.95,-131.59 795.29,-138.92 801.53,-142.09"/>
</g>
<!-- Node3&#45;&gt;Node2 -->
<g id="edge23" class="edge">
<title>Node3&#45;&gt;Node2</title>
<path fill="none" stroke="midnightblue" d="M761.28,-133.75C713.89,-144 640.66,-159.24 593.56,-168.62"/>
<polygon fill="midnightblue" stroke="midnightblue" points="762.25,-137.12 771.28,-131.58 760.77,-130.28 762.25,-137.12"/>
</g>
<!-- Node3&#45;&gt;Node4 -->
<g id="edge3" class="edge">
<title>Node3&#45;&gt;Node4</title>
<path fill="none" stroke="midnightblue" d="M733.44,-111.93C562.45,-93.19 371.23,-75.8 300.47,-69.49"/>
<polygon fill="midnightblue" stroke="midnightblue" points="733.31,-115.44 743.63,-113.05 734.08,-108.48 733.31,-115.44"/>
</g>
<!-- Node5 -->
<g id="node5" class="node">
<title>Node5</title>
<g id="a_node5"><a xlink:href="block_8hpp.html" target="_top" xlink:title="MODEL::Block source file.">
<polygon fill="none" stroke="black" points="698.82,-56.5 698.82,-75.5 785.82,-75.5 785.82,-56.5 698.82,-56.5"/>
<text text-anchor="middle" x="742.32" y="-63.5" font-family="Helvetica,sans-Serif" font-size="10.00">model/block.hpp</text>
</a>
</g>
</g>
<!-- Node3&#45;&gt;Node5 -->
<g id="edge4" class="edge">
<title>Node3&#45;&gt;Node5</title>
<path fill="none" stroke="midnightblue" d="M789.05,-105.82C777.4,-96.15 762.72,-83.95 752.96,-75.83"/>
<polygon fill="midnightblue" stroke="midnightblue" points="786.95,-108.63 796.88,-112.32 791.42,-103.24 786.95,-108.63"/>
</g>
<!-- Node6 -->
<g id="node6" class="node">
<title>Node6</title>
<g id="a_node6"><a xlink:href="bloodvessel_8hpp.html" target="_top" xlink:title="MODEL::BloodVessel source file.">
<polygon fill="none" stroke="black" points="273.32,-0.5 273.32,-19.5 389.32,-19.5 389.32,-0.5 273.32,-0.5"/>
<text text-anchor="middle" x="331.32" y="-7.5" font-family="Helvetica,sans-Serif" font-size="10.00">model/bloodvessel.hpp</text>
</a>
</g>
</g>
<!-- Node3&#45;&gt;Node6 -->
<g id="edge19" class="edge">
<title>Node3&#45;&gt;Node6</title>
<path fill="none" stroke="midnightblue" d="M757.97,-110.37C716.62,-101.4 656.06,-88.12 603.32,-76 517.91,-56.38 417.72,-32.11 366.06,-19.51"/>
<polygon fill="midnightblue" stroke="midnightblue" points="757.27,-113.8 767.79,-112.49 758.76,-106.95 757.27,-113.8"/>
</g>
<!-- Node7 -->
<g id="node7" class="node">
<title>Node7</title>
<g id="a_node7"><a xlink:href="closedloopheartpulmonary_8hpp.html" target="_top" xlink:title="MODEL::ClosedLoopHeartPulmonary source file.">
<polygon fill="none" stroke="black" points="841.32,-0.5 841.32,-19.5 1017.32,-19.5 1017.32,-0.5 841.32,-0.5"/>
<text text-anchor="middle" x="929.32" y="-7.5" font-family="Helvetica,sans-Serif" font-size="10.00">model/closedloopheartpulmonary.hpp</text>
</a>
</g>
</g>
<!-- Node3&#45;&gt;Node7 -->
<g id="edge20" class="edge">
<title>Node3&#45;&gt;Node7</title>
<path fill="none" stroke="midnightblue" d="M850.35,-109.11C869.01,-102.09 889.86,-91.47 904.32,-76 919.52,-59.75 925.78,-33.28 928.11,-19.68"/>
<polygon fill="midnightblue" stroke="midnightblue" points="849.11,-105.84 840.84,-112.46 851.43,-112.44 849.11,-105.84"/>
</g>
<!-- Node8 -->
<g id="node8" class="node">
<title>Node8</title>
<g id="a_node8"><a xlink:href="flowreferencebc_8hpp.html" target="_top" xlink:title="MODEL::FlowReferenceBC source file.">
<polygon fill="none" stroke="black" points="407.32,-0.5 407.32,-19.5 539.32,-19.5 539.32,-0.5 407.32,-0.5"/>
<text text-anchor="middle" x="473.32" y="-7.5" font-family="Helvetica,sans-Serif" font-size="10.00">model/flowreferencebc.hpp</text>
</a>
</g>
</g>
<!-- Node3&#45;&gt;Node8 -->
<g id="edge21" class="edge">
<title>Node3&#45;&gt;Node8</title>
<path fill="none" stroke="midnightblue" d="M769.89,-109.48C741,-100.53 700.06,-87.7 664.32,-76 604.4,-56.38 534.32,-32.22 497.99,-19.6"/>
<polygon fill="midnightblue" stroke="midnightblue" points="768.99,-112.87 779.58,-112.48 771.06,-106.18 768.99,-112.87"/>
</g>
<!-- Node9 -->
<g id="node9" class="node">
<title>Node9</title>
<g id="a_node9"><a xlink:href="junction_8hpp.html" target="_top" xlink:title="MODEL::Junction source file.">
<polygon fill="none" stroke="black" points="725.32,-0.5 725.32,-19.5 823.32,-19.5 823.32,-0.5 725.32,-0.5"/>
<text text-anchor="middle" x="774.32" y="-7.5" font-family="Helvetica,sans-Serif" font-size="10.00">model/junction.hpp</text>
</a>
</g>
</g>
<!-- Node3&#45;&gt;Node9 -->
<g id="edge22" class="edge">
<title>Node3&#45;&gt;Node9</title>
<path fill="none" stroke="midnightblue" d="M819.88,-103.68C827.93,-90.32 835.61,-71.56 828.32,-56 820.66,-39.64 803.81,-27.16 790.96,-19.54"/>
<polygon fill="midnightblue" stroke="midnightblue" points="816.76,-102.05 814.17,-112.33 822.6,-105.91 816.76,-102.05"/>
</g>
<!-- Node10 -->
<g id="node10" class="node">
<title>Node10</title>
<g id="a_node10"><a xlink:href="openloopcoronarybc_8hpp.html" target="_top" xlink:title="MODEL::OpenLoopCoronaryBC source file.">
<polygon fill="none" stroke="black" points="557.32,-0.5 557.32,-19.5 707.32,-19.5 707.32,-0.5 557.32,-0.5"/>
<text text-anchor="middle" x="632.32" y="-7.5" font-family="Helvetica,sans-Serif" font-size="10.00">model/openloopcoronarybc.hpp</text>
</a>
</g>
</g>
<!-- Node3&#45;&gt;Node10 -->
<g id="edge24" class="edge">
<title>Node3&#45;&gt;Node10</title>
<path fill="none" stroke="midnightblue" d="M762.51,-109.56C739.34,-102.3 711.37,-91.33 689.32,-76 666.65,-60.23 647.12,-33.55 637.93,-19.79"/>
<polygon fill="midnightblue" stroke="midnightblue" points="761.53,-112.92 772.12,-112.45 763.55,-106.22 761.53,-112.92"/>
</g>
<!-- Node11 -->
<g id="node11" class="node">
<title>Node11</title>
<g id="a_node11"><a xlink:href="resistancebc_8hpp.html" target="_top" xlink:title="MODEL::ResistanceBC source file.">
<polygon fill="none" stroke="black" points="135.82,-0.5 135.82,-19.5 254.82,-19.5 254.82,-0.5 135.82,-0.5"/>
<text text-anchor="middle" x="195.32" y="-7.5" font-family="Helvetica,sans-Serif" font-size="10.00">model/resistancebc.hpp</text>
</a>
</g>
</g>
<!-- Node3&#45;&gt;Node11 -->
<g id="edge26" class="edge">
<title>Node3&#45;&gt;Node11</title>
<path fill="none" stroke="midnightblue" d="M733.8,-111.08C675.03,-102.8 590.63,-90.1 517.32,-76 478.36,-68.51 469.15,-64.18 430.32,-56 365.49,-42.35 290.22,-28.24 242.69,-19.54"/>
<polygon fill="midnightblue" stroke="midnightblue" points="733.35,-114.55 743.73,-112.48 734.32,-107.62 733.35,-114.55"/>
</g>
<!-- Node12 -->
<g id="node12" class="node">
<title>Node12</title>
<g id="a_node12"><a xlink:href="windkesselbc_8hpp.html" target="_top" xlink:title="MODEL::WindkesselBC source file.">
<polygon fill="none" stroke="black" points="1035.82,-0.5 1035.82,-19.5 1158.82,-19.5 1158.82,-0.5 1035.82,-0.5"/>
<text text-anchor="middle" x="1097.32" y="-7.5" font-family="Helvetica,sans-Serif" font-size="10.00">model/windkesselbc.hpp</text>
</a>
</g>
</g>
<!-- Node3&#45;&gt;Node12 -->
<g id="edge27" class="edge">
<title>Node3&#45;&gt;Node12</title>
<path fill="none" stroke="midnightblue" d="M862.67,-110.34C897.19,-102.79 942.17,-91.27 980.32,-76 1020.23,-60.02 1063.56,-33.19 1084.53,-19.54"/>
<polygon fill="midnightblue" stroke="midnightblue" points="861.81,-106.95 852.76,-112.47 863.27,-113.79 861.81,-106.95"/>
</g>
<!-- Node5&#45;&gt;Node1 -->
<g id="edge14" class="edge">
<title>Node5&#45;&gt;Node1</title>
<path fill="none" stroke="midnightblue" d="M795.84,-69.72C825.89,-74.33 861.11,-85.52 880.32,-112 915.85,-160.96 820.31,-206.22 774.38,-224.48"/>
<polygon fill="midnightblue" stroke="midnightblue" points="796.26,-66.25 785.88,-68.4 795.34,-73.19 796.26,-66.25"/>
</g>
<!-- Node5&#45;&gt;Node6 -->
<g id="edge5" class="edge">
<title>Node5&#45;&gt;Node6</title>
<path fill="none" stroke="midnightblue" d="M688.6,-58.03C620.9,-49.23 500.98,-33.61 398.32,-20 395.41,-19.61 392.43,-19.22 389.43,-18.82"/>
<polygon fill="midnightblue" stroke="midnightblue" points="688.24,-61.51 698.6,-59.33 689.14,-54.57 688.24,-61.51"/>
</g>
<!-- Node5&#45;&gt;Node7 -->
<g id="edge7" class="edge">
<title>Node5&#45;&gt;Node7</title>
<path fill="none" stroke="midnightblue" d="M781.91,-53.57C817.19,-43.38 868.02,-28.7 899.83,-19.52"/>
<polygon fill="midnightblue" stroke="midnightblue" points="780.59,-50.31 771.95,-56.44 782.53,-57.03 780.59,-50.31"/>
</g>
<!-- Node5&#45;&gt;Node8 -->
<g id="edge8" class="edge">
<title>Node5&#45;&gt;Node8</title>
<path fill="none" stroke="midnightblue" d="M689.88,-54.47C639.05,-44.27 562.89,-28.98 515.75,-19.52"/>
<polygon fill="midnightblue" stroke="midnightblue" points="689.21,-57.91 699.7,-56.44 690.58,-51.04 689.21,-57.91"/>
</g>
<!-- Node5&#45;&gt;Node9 -->
<g id="edge10" class="edge">
<title>Node5&#45;&gt;Node9</title>
<path fill="none" stroke="midnightblue" d="M752.83,-47.27C758.3,-38.05 764.74,-27.17 769.14,-19.75"/>
<polygon fill="midnightblue" stroke="midnightblue" points="749.69,-45.7 747.61,-56.08 755.72,-49.26 749.69,-45.7"/>
</g>
<!-- Node5&#45;&gt;Node10 -->
<g id="edge12" class="edge">
<title>Node5&#45;&gt;Node10</title>
<path fill="none" stroke="midnightblue" d="M715.56,-51.86C695.16,-41.85 667.66,-28.35 649.95,-19.65"/>
<polygon fill="midnightblue" stroke="midnightblue" points="714.13,-55.06 724.65,-56.32 717.21,-48.78 714.13,-55.06"/>
</g>
<!-- Node5&#45;&gt;Node11 -->
<g id="edge15" class="edge">
<title>Node5&#45;&gt;Node11</title>
<path fill="none" stroke="midnightblue" d="M688.71,-60.58C600.22,-53.15 418.1,-37.26 264.32,-20 261.32,-19.66 258.25,-19.31 255.15,-18.94"/>
<polygon fill="midnightblue" stroke="midnightblue" points="688.51,-64.08 698.77,-61.43 689.1,-57.1 688.51,-64.08"/>
</g>
<!-- Node5&#45;&gt;Node12 -->
<g id="edge17" class="edge">
<title>Node5&#45;&gt;Node12</title>
<path fill="none" stroke="midnightblue" d="M796.06,-56.83C862.18,-46.77 973.92,-29.77 1041.15,-19.55"/>
<polygon fill="midnightblue" stroke="midnightblue" points="795.21,-53.41 785.85,-58.38 796.27,-60.33 795.21,-53.41"/>
</g>
<!-- Node6&#45;&gt;Node2 -->
<g id="edge6" class="edge">
<title>Node6&#45;&gt;Node2</title>
<path fill="none" stroke="midnightblue" d="M278.34,-21.6C179.71,-42.49 -18.77,-90.53 19.32,-132 51.75,-167.3 380.7,-174.94 502.92,-176.57"/>
<polygon fill="midnightblue" stroke="midnightblue" points="279.06,-25.03 288.13,-19.55 277.63,-18.17 279.06,-25.03"/>
</g>
<!-- Node8&#45;&gt;Node2 -->
<g id="edge9" class="edge">
<title>Node8&#45;&gt;Node2</title>
<path fill="none" stroke="midnightblue" d="M481.51,-29.12C497.51,-64.55 532.43,-141.83 544.29,-168.08"/>
<polygon fill="midnightblue" stroke="midnightblue" points="484.5,-27.24 477.19,-19.57 478.12,-30.12 484.5,-27.24"/>
</g>
<!-- Node9&#45;&gt;Node2 -->
<g id="edge11" class="edge">
<title>Node9&#45;&gt;Node2</title>
<path fill="none" stroke="midnightblue" d="M801.11,-24.25C842.69,-46.5 914.59,-92.78 880.32,-132 843.63,-174 675.64,-178.33 593.63,-177.86"/>
<polygon fill="midnightblue" stroke="midnightblue" points="802.5,-21.02 792.01,-19.5 799.26,-27.23 802.5,-21.02"/>
</g>
<!-- Node10&#45;&gt;Node2 -->
<g id="edge13" class="edge">
<title>Node10&#45;&gt;Node2</title>
<path fill="none" stroke="midnightblue" d="M623.39,-28.66C605.57,-63.88 566.18,-141.72 552.84,-168.08"/>
<polygon fill="midnightblue" stroke="midnightblue" points="626.59,-30.07 627.99,-19.57 620.35,-26.91 626.59,-30.07"/>
</g>
<!-- Node11&#45;&gt;Node2 -->
<g id="edge16" class="edge">
<title>Node11&#45;&gt;Node2</title>
<path fill="none" stroke="midnightblue" d="M148.49,-22.06C79.53,-40.39 -36.29,-80.23 11.32,-132 44.33,-167.89 379.78,-175.17 503.13,-176.63"/>
<polygon fill="midnightblue" stroke="midnightblue" points="149.5,-25.41 158.3,-19.51 147.74,-18.64 149.5,-25.41"/>
</g>
<!-- Node12&#45;&gt;Node2 -->
<g id="edge18" class="edge">
<title>Node12&#45;&gt;Node2</title>
<path fill="none" stroke="midnightblue" d="M1079.75,-26.33C1063.27,-40.28 1037.6,-60.92 1013.32,-76 965.03,-106 952.79,-115.72 898.32,-132 792.08,-163.76 661.11,-173.11 593.49,-175.85"/>
<polygon fill="midnightblue" stroke="midnightblue" points="1082.15,-28.88 1087.47,-19.71 1077.6,-23.56 1082.15,-28.88"/>
</g>
<!-- Node13&#45;&gt;Node4 -->
<g id="edge29" class="edge">
<title>Node13&#45;&gt;Node4</title>
<path fill="none" stroke="midnightblue" d="M123.03,-109.66C159.27,-99.3 211.93,-84.25 244.06,-75.08"/>
<polygon fill="midnightblue" stroke="midnightblue" points="121.92,-106.33 113.27,-112.44 123.85,-113.06 121.92,-106.33"/>
</g>
<!-- Node14&#45;&gt;Node1 -->
<g id="edge39" class="edge">
<title>Node14&#45;&gt;Node1</title>
<path fill="none" stroke="midnightblue" d="M673.86,-139.36C693.45,-163.05 729.03,-206.05 744.18,-224.37"/>
<polygon fill="midnightblue" stroke="midnightblue" points="676.5,-137.07 667.43,-131.59 671.11,-141.53 676.5,-137.07"/>
</g>
<!-- Node14&#45;&gt;Node2 -->
<g id="edge37" class="edge">
<title>Node14&#45;&gt;Node2</title>
<path fill="none" stroke="midnightblue" d="M638.71,-136.27C619.24,-146.31 591,-159.79 571.16,-168.44"/>
<polygon fill="midnightblue" stroke="midnightblue" points="640.52,-139.27 647.74,-131.52 637.26,-133.08 640.52,-139.27"/>
</g>
<!-- Node14&#45;&gt;Node4 -->
<g id="edge31" class="edge">
<title>Node14&#45;&gt;Node4</title>
<path fill="none" stroke="midnightblue" d="M588.83,-111.05C502.23,-99 360.54,-79.28 300.56,-70.93"/>
<polygon fill="midnightblue" stroke="midnightblue" points="588.46,-114.53 598.84,-112.44 589.42,-107.6 588.46,-114.53"/>
</g>
<!-- Node14&#45;&gt;Node5 -->
<g id="edge32" class="edge">
<title>Node14&#45;&gt;Node5</title>
<path fill="none" stroke="midnightblue" d="M682.16,-106.62C697.14,-96.76 716.52,-83.99 729.18,-75.65"/>
<polygon fill="midnightblue" stroke="midnightblue" points="679.92,-103.9 673.5,-112.32 683.77,-109.75 679.92,-103.9"/>
</g>
<!-- Node14&#45;&gt;Node6 -->
<g id="edge33" class="edge">
<title>Node14&#45;&gt;Node6</title>
<path fill="none" stroke="midnightblue" d="M621.49,-109.52C591.99,-100.68 550.47,-87.98 514.32,-76 456.4,-56.8 388.9,-32.25 354.33,-19.52"/>
<polygon fill="midnightblue" stroke="midnightblue" points="620.81,-112.97 631.4,-112.48 622.82,-106.26 620.81,-112.97"/>
</g>
<!-- Node14&#45;&gt;Node7 -->
<g id="edge34" class="edge">
<title>Node14&#45;&gt;Node7</title>
<path fill="none" stroke="midnightblue" d="M706.66,-109.94C737,-102.04 777.21,-90.29 811.32,-76 851.02,-59.38 894.61,-33.07 915.99,-19.59"/>
<polygon fill="midnightblue" stroke="midnightblue" points="705.59,-106.6 696.77,-112.47 707.33,-113.38 705.59,-106.6"/>
</g>
<!-- Node14&#45;&gt;Node8 -->
<g id="edge35" class="edge">
<title>Node14&#45;&gt;Node8</title>
<path fill="none" stroke="midnightblue" d="M618.53,-109.48C595.08,-101.96 565.89,-90.78 542.32,-76 516.67,-59.92 492.24,-33.37 480.54,-19.72"/>
<polygon fill="midnightblue" stroke="midnightblue" points="617.61,-112.86 628.2,-112.48 619.69,-106.17 617.61,-112.86"/>
</g>
<!-- Node14&#45;&gt;Node9 -->
<g id="edge36" class="edge">
<title>Node14&#45;&gt;Node9</title>
<path fill="none" stroke="midnightblue" d="M712.67,-110.17C746.2,-102.04 785.26,-89.95 795.32,-76 807.94,-58.49 792,-33.02 781.74,-19.76"/>
<polygon fill="midnightblue" stroke="midnightblue" points="711.87,-106.76 702.93,-112.45 713.47,-113.57 711.87,-106.76"/>
</g>
<!-- Node14&#45;&gt;Node10 -->
<g id="edge38" class="edge">
<title>Node14&#45;&gt;Node10</title>
<path fill="none" stroke="midnightblue" d="M655.66,-102.67C649.54,-78.62 639.04,-37.39 634.51,-19.59"/>
<polygon fill="midnightblue" stroke="midnightblue" points="652.27,-103.54 658.13,-112.37 659.05,-101.81 652.27,-103.54"/>
</g>
<!-- Node14&#45;&gt;Node11 -->
<g id="edge40" class="edge">
<title>Node14&#45;&gt;Node11</title>
<path fill="none" stroke="midnightblue" d="M609.91,-110.36C568.36,-101.49 507.92,-88.35 455.32,-76 373.33,-56.76 277.31,-32.23 228.08,-19.51"/>
<polygon fill="midnightblue" stroke="midnightblue" points="609.28,-113.8 619.79,-112.46 610.74,-106.96 609.28,-113.8"/>
</g>
<!-- Node14&#45;&gt;Node12 -->
<g id="edge41" class="edge">
<title>Node14&#45;&gt;Node12</title>
<path fill="none" stroke="midnightblue" d="M706.27,-110.01C743.73,-101.01 797.99,-87.86 845.32,-76 924.21,-56.23 1016.75,-32.13 1064.74,-19.56"/>
<polygon fill="midnightblue" stroke="midnightblue" points="705.08,-106.7 696.17,-112.44 706.71,-113.5 705.08,-106.7"/>
</g>
<!-- Node15&#45;&gt;Node4 -->
<g id="edge43" class="edge">
<title>Node15&#45;&gt;Node4</title>
<path fill="none" stroke="midnightblue" d="M224.16,-105.82C236.16,-96.15 251.29,-83.95 261.36,-75.83"/>
<polygon fill="midnightblue" stroke="midnightblue" points="221.68,-103.32 216.09,-112.32 226.07,-108.77 221.68,-103.32"/>
</g>
<!-- Node16&#45;&gt;Node4 -->
<g id="edge45" class="edge">
<title>Node16&#45;&gt;Node4</title>
<path fill="none" stroke="midnightblue" d="M301.9,-104.14C294.41,-94.74 285.39,-83.4 279.29,-75.75"/>
<polygon fill="midnightblue" stroke="midnightblue" points="299.25,-106.44 308.22,-112.08 304.73,-102.08 299.25,-106.44"/>
</g>
<!-- Node17&#45;&gt;Node4 -->
<g id="edge47" class="edge">
<title>Node17&#45;&gt;Node4</title>
<path fill="none" stroke="midnightblue" d="M386.4,-108.91C358.76,-98.75 319.98,-84.51 295.51,-75.52"/>
<polygon fill="midnightblue" stroke="midnightblue" points="385.44,-112.28 396.03,-112.44 387.85,-105.71 385.44,-112.28"/>
</g>
</g>
</svg>
