<?xml version="1.0" encoding="UTF-8" standalone="no"?>
<!DOCTYPE svg PUBLIC "-//W3C//DTD SVG 1.1//EN"
 "http://www.w3.org/Graphics/SVG/1.1/DTD/svg11.dtd">
<!-- Generated by graphviz version 3.0.0 (20220413.0242)
 -->
<!-- Title: model/pressurereferencebc.hpp Pages: 1 -->
<svg width="586pt" height="364pt"
 viewBox="0.00 0.00 585.50 364.00" xmlns="http://www.w3.org/2000/svg" xmlns:xlink="http://www.w3.org/1999/xlink">
<g id="graph0" class="graph" transform="scale(1 1) rotate(0) translate(4 360)">
<title>model/pressurereferencebc.hpp</title>
<!-- Node1 -->
<g id="node1" class="node">
<title>Node1</title>
<g id="a_node1"><a xlink:title="MODEL::PressureReferenceBC source file.">
<polygon fill="#bfbfbf" stroke="black" points="358,-336.5 358,-355.5 510,-355.5 510,-336.5 358,-336.5"/>
<text text-anchor="middle" x="434" y="-343.5" font-family="Helvetica,sans-Serif" font-size="10.00">model/pressurereferencebc.hpp</text>
</a>
</g>
</g>
<!-- Node2 -->
<g id="node2" class="node">
<title>Node2</title>
<g id="a_node2"><a xlink:href="sparsesystem_8hpp.html" target="_top" xlink:title="ALGEBRA::SparseSystem source file.">
<polygon fill="none" stroke="black" points="180.5,-280.5 180.5,-299.5 317.5,-299.5 317.5,-280.5 180.5,-280.5"/>
<text text-anchor="middle" x="249" y="-287.5" font-family="Helvetica,sans-Serif" font-size="10.00">../algebra/sparsesystem.hpp</text>
</a>
</g>
</g>
<!-- Node1&#45;&gt;Node2 -->
<g id="edge1" class="edge">
<title>Node1&#45;&gt;Node2</title>
<path fill="none" stroke="midnightblue" d="M404.69,-336.44C373.16,-327.24 322.87,-312.56 288.01,-302.39"/>
<polygon fill="midnightblue" stroke="midnightblue" points="288.76,-298.96 278.18,-299.52 286.8,-305.68 288.76,-298.96"/>
</g>
<!-- Node10 -->
<g id="node10" class="node">
<title>Node10</title>
<g id="a_node10"><a xlink:href="block_8hpp.html" target="_top" xlink:title="MODEL::Block source file.">
<polygon fill="none" stroke="black" points="319,-168.5 319,-187.5 377,-187.5 377,-168.5 319,-168.5"/>
<text text-anchor="middle" x="348" y="-175.5" font-family="Helvetica,sans-Serif" font-size="10.00">block.hpp</text>
</a>
</g>
</g>
<!-- Node1&#45;&gt;Node10 -->
<g id="edge22" class="edge">
<title>Node1&#45;&gt;Node10</title>
<path fill="none" stroke="midnightblue" d="M432.45,-336.2C428.5,-315.39 416.65,-262.05 393,-224 386.03,-212.79 375.77,-202.25 366.81,-194.19"/>
<polygon fill="midnightblue" stroke="midnightblue" points="368.93,-191.4 359.07,-187.53 364.37,-196.71 368.93,-191.4"/>
</g>
<!-- Node15 -->
<g id="node15" class="node">
<title>Node15</title>
<g id="a_node15"><a xlink:href="timedependentparameter_8hpp.html" target="_top" xlink:title="MODEL::TimeDependentParameter source file.">
<polygon fill="none" stroke="black" points="430,-112.5 430,-131.5 572,-131.5 572,-112.5 430,-112.5"/>
<text text-anchor="middle" x="501" y="-119.5" font-family="Helvetica,sans-Serif" font-size="10.00">timedependentparameter.hpp</text>
</a>
</g>
</g>
<!-- Node1&#45;&gt;Node15 -->
<g id="edge23" class="edge">
<title>Node1&#45;&gt;Node15</title>
<path fill="none" stroke="midnightblue" d="M436.63,-336.3C446.51,-303.56 481.57,-187.38 495.37,-141.67"/>
<polygon fill="midnightblue" stroke="midnightblue" points="498.78,-142.47 498.32,-131.88 492.08,-140.45 498.78,-142.47"/>
</g>
<!-- Node3 -->
<g id="node3" class="node">
<title>Node3</title>
<g id="a_node3"><a xlink:title=" ">
<polygon fill="none" stroke="#bfbfbf" points="294,-224.5 294,-243.5 368,-243.5 368,-224.5 294,-224.5"/>
<text text-anchor="middle" x="331" y="-231.5" font-family="Helvetica,sans-Serif" font-size="10.00">Eigen/Sparse</text>
</a>
</g>
</g>
<!-- Node2&#45;&gt;Node3 -->
<g id="edge2" class="edge">
<title>Node2&#45;&gt;Node3</title>
<path fill="none" stroke="midnightblue" d="M262.17,-280.32C274.85,-271.98 294.23,-259.21 309.21,-249.35"/>
<polygon fill="midnightblue" stroke="midnightblue" points="311.43,-252.08 317.86,-243.65 307.58,-246.23 311.43,-252.08"/>
</g>
<!-- Node4 -->
<g id="node4" class="node">
<title>Node4</title>
<g id="a_node4"><a xlink:title=" ">
<polygon fill="none" stroke="#bfbfbf" points="0,-224.5 0,-243.5 88,-243.5 88,-224.5 0,-224.5"/>
<text text-anchor="middle" x="44" y="-231.5" font-family="Helvetica,sans-Serif" font-size="10.00">Eigen/SparseLU</text>
</a>
</g>
</g>
<!-- Node2&#45;&gt;Node4 -->
<g id="edge3" class="edge">
<title>Node2&#45;&gt;Node4</title>
<path fill="none" stroke="midnightblue" d="M216.52,-280.44C181.28,-271.16 124.9,-256.31 86.24,-246.13"/>
<polygon fill="midnightblue" stroke="midnightblue" points="86.89,-242.68 76.33,-243.52 85.11,-249.45 86.89,-242.68"/>
</g>
<!-- Node5 -->
<g id="node5" class="node">
<title>Node5</title>
<g id="a_node5"><a xlink:title=" ">
<polygon fill="none" stroke="#bfbfbf" points="222,-224.5 222,-243.5 276,-243.5 276,-224.5 222,-224.5"/>
<text text-anchor="middle" x="249" y="-231.5" font-family="Helvetica,sans-Serif" font-size="10.00">iostream</text>
</a>
</g>
</g>
<!-- Node2&#45;&gt;Node5 -->
<g id="edge4" class="edge">
<title>Node2&#45;&gt;Node5</title>
<path fill="none" stroke="midnightblue" d="M249,-280.08C249,-273.01 249,-262.86 249,-253.99"/>
<polygon fill="midnightblue" stroke="midnightblue" points="252.5,-253.75 249,-243.75 245.5,-253.75 252.5,-253.75"/>
</g>
<!-- Node6 -->
<g id="node6" class="node">
<title>Node6</title>
<g id="a_node6"><a xlink:href="model_8hpp.html" target="_top" xlink:title="MODEL::Model source file.">
<polygon fill="none" stroke="black" points="106,-224.5 106,-243.5 204,-243.5 204,-224.5 106,-224.5"/>
<text text-anchor="middle" x="155" y="-231.5" font-family="Helvetica,sans-Serif" font-size="10.00">../model/model.hpp</text>
</a>
</g>
</g>
<!-- Node2&#45;&gt;Node6 -->
<g id="edge5" class="edge">
<title>Node2&#45;&gt;Node6</title>
<path fill="none" stroke="midnightblue" d="M228.78,-280.32C212.3,-271.9 189.49,-258.97 173.49,-249.07"/>
<polygon fill="midnightblue" stroke="midnightblue" points="175.27,-246.06 164.96,-243.65 171.52,-251.97 175.27,-246.06"/>
</g>
<!-- Node6&#45;&gt;Node2 -->
<g id="edge9" class="edge">
<title>Node6&#45;&gt;Node2</title>
<path fill="none" stroke="midnightblue" d="M175.18,-243.65C191.65,-252.07 214.46,-265 230.47,-274.9"/>
<polygon fill="midnightblue" stroke="midnightblue" points="228.69,-277.92 239.01,-280.32 232.45,-272.01 228.69,-277.92"/>
</g>
<!-- Node7 -->
<g id="node7" class="node">
<title>Node7</title>
<g id="a_node7"><a xlink:title=" ">
<polygon fill="none" stroke="#bfbfbf" points="67,-168.5 67,-187.5 123,-187.5 123,-168.5 67,-168.5"/>
<text text-anchor="middle" x="95" y="-175.5" font-family="Helvetica,sans-Serif" font-size="10.00">algorithm</text>
</a>
</g>
</g>
<!-- Node6&#45;&gt;Node7 -->
<g id="edge6" class="edge">
<title>Node6&#45;&gt;Node7</title>
<path fill="none" stroke="midnightblue" d="M145.36,-224.32C136.49,-216.34 123.13,-204.31 112.39,-194.65"/>
<polygon fill="midnightblue" stroke="midnightblue" points="114.59,-191.92 104.82,-187.83 109.91,-197.13 114.59,-191.92"/>
</g>
<!-- Node8 -->
<g id="node8" class="node">
<title>Node8</title>
<g id="a_node8"><a xlink:title=" ">
<polygon fill="none" stroke="#bfbfbf" points="140.5,-168.5 140.5,-187.5 169.5,-187.5 169.5,-168.5 140.5,-168.5"/>
<text text-anchor="middle" x="155" y="-175.5" font-family="Helvetica,sans-Serif" font-size="10.00">list</text>
</a>
</g>
</g>
<!-- Node6&#45;&gt;Node8 -->
<g id="edge7" class="edge">
<title>Node6&#45;&gt;Node8</title>
<path fill="none" stroke="midnightblue" d="M155,-224.08C155,-217.01 155,-206.86 155,-197.99"/>
<polygon fill="midnightblue" stroke="midnightblue" points="158.5,-197.75 155,-187.75 151.5,-197.75 158.5,-197.75"/>
</g>
<!-- Node9 -->
<g id="node9" class="node">
<title>Node9</title>
<g id="a_node9"><a xlink:title=" ">
<polygon fill="none" stroke="#bfbfbf" points="290,-0.5 290,-19.5 334,-19.5 334,-0.5 290,-0.5"/>
<text text-anchor="middle" x="312" y="-7.5" font-family="Helvetica,sans-Serif" font-size="10.00">vector</text>
</a>
</g>
</g>
<!-- Node6&#45;&gt;Node9 -->
<g id="edge8" class="edge">
<title>Node6&#45;&gt;Node9</title>
<path fill="none" stroke="midnightblue" d="M117.77,-224.45C84.27,-214.76 42.5,-196.49 58,-168 105.22,-81.18 222.96,-36.6 280.01,-19.5"/>
<polygon fill="midnightblue" stroke="midnightblue" points="281.3,-22.77 289.93,-16.62 279.35,-16.05 281.3,-22.77"/>
</g>
<!-- Node6&#45;&gt;Node10 -->
<g id="edge10" class="edge">
<title>Node6&#45;&gt;Node10</title>
<path fill="none" stroke="midnightblue" d="M185.58,-224.44C219,-215.09 272.63,-200.09 309.04,-189.9"/>
<polygon fill="midnightblue" stroke="midnightblue" points="310.14,-193.23 318.83,-187.16 308.25,-186.49 310.14,-193.23"/>
</g>
<!-- Node12 -->
<g id="node12" class="node">
<title>Node12</title>
<g id="a_node12"><a xlink:href="dofhandler_8hpp.html" target="_top" xlink:title="MODEL::DOFHandler source file.">
<polygon fill="none" stroke="black" points="240,-56.5 240,-75.5 320,-75.5 320,-56.5 240,-56.5"/>
<text text-anchor="middle" x="280" y="-63.5" font-family="Helvetica,sans-Serif" font-size="10.00">dofhandler.hpp</text>
</a>
</g>
</g>
<!-- Node6&#45;&gt;Node12 -->
<g id="edge20" class="edge">
<title>Node6&#45;&gt;Node12</title>
<path fill="none" stroke="midnightblue" d="M159.67,-224.41C164.55,-215.38 172.42,-200.74 179,-188 196.33,-154.45 192.47,-140.71 217,-112 227.68,-99.5 242.54,-88.67 255.14,-80.77"/>
<polygon fill="midnightblue" stroke="midnightblue" points="257.06,-83.7 263.83,-75.56 253.45,-77.7 257.06,-83.7"/>
</g>
<!-- Node14 -->
<g id="node14" class="node">
<title>Node14</title>
<g id="a_node14"><a xlink:href="node_8hpp.html" target="_top" xlink:title="MODEL::Node source file.">
<polygon fill="none" stroke="black" points="226,-112.5 226,-131.5 282,-131.5 282,-112.5 226,-112.5"/>
<text text-anchor="middle" x="254" y="-119.5" font-family="Helvetica,sans-Serif" font-size="10.00">node.hpp</text>
</a>
</g>
</g>
<!-- Node6&#45;&gt;Node14 -->
<g id="edge21" class="edge">
<title>Node6&#45;&gt;Node14</title>
<path fill="none" stroke="midnightblue" d="M168.24,-224.43C180.49,-216.08 198.77,-202.55 212,-188 225.24,-173.44 237.08,-154.27 244.78,-140.52"/>
<polygon fill="midnightblue" stroke="midnightblue" points="247.92,-142.08 249.63,-131.62 241.77,-138.73 247.92,-142.08"/>
</g>
<!-- Node10&#45;&gt;Node2 -->
<g id="edge13" class="edge">
<title>Node10&#45;&gt;Node2</title>
<path fill="none" stroke="midnightblue" d="M357.13,-187.55C369.86,-200.54 390,-225.65 377,-244 365.23,-260.61 346.83,-271.13 327.61,-277.78"/>
<polygon fill="midnightblue" stroke="midnightblue" points="326.33,-274.52 317.82,-280.84 328.41,-281.2 326.33,-274.52"/>
</g>
<!-- Node10&#45;&gt;Node9 -->
<g id="edge12" class="edge">
<title>Node10&#45;&gt;Node9</title>
<path fill="none" stroke="midnightblue" d="M347.26,-168.37C345.41,-148.35 339.93,-97.32 329,-56 326.63,-47.02 323.1,-37.34 319.88,-29.28"/>
<polygon fill="midnightblue" stroke="midnightblue" points="323.01,-27.68 315.94,-19.79 316.54,-30.37 323.01,-27.68"/>
</g>
<!-- Node11 -->
<g id="node11" class="node">
<title>Node11</title>
<g id="a_node11"><a xlink:title=" ">
<polygon fill="none" stroke="#bfbfbf" points="376.5,-112.5 376.5,-131.5 411.5,-131.5 411.5,-112.5 376.5,-112.5"/>
<text text-anchor="middle" x="394" y="-119.5" font-family="Helvetica,sans-Serif" font-size="10.00">map</text>
</a>
</g>
</g>
<!-- Node10&#45;&gt;Node11 -->
<g id="edge11" class="edge">
<title>Node10&#45;&gt;Node11</title>
<path fill="none" stroke="midnightblue" d="M355.6,-168.08C362.23,-160.3 372.02,-148.8 380.06,-139.37"/>
<polygon fill="midnightblue" stroke="midnightblue" points="382.73,-141.63 386.55,-131.75 377.4,-137.09 382.73,-141.63"/>
</g>
<!-- Node10&#45;&gt;Node12 -->
<g id="edge14" class="edge">
<title>Node10&#45;&gt;Node12</title>
<path fill="none" stroke="midnightblue" d="M342.66,-168.37C331.49,-150.3 305.45,-108.18 290.7,-84.31"/>
<polygon fill="midnightblue" stroke="midnightblue" points="293.55,-82.26 285.31,-75.59 287.59,-85.94 293.55,-82.26"/>
</g>
<!-- Node10&#45;&gt;Node14 -->
<g id="edge17" class="edge">
<title>Node10&#45;&gt;Node14</title>
<path fill="none" stroke="midnightblue" d="M332.9,-168.32C318.1,-159.82 295.31,-146.73 278.02,-136.8"/>
<polygon fill="midnightblue" stroke="midnightblue" points="279.48,-133.6 269.07,-131.65 275.99,-139.67 279.48,-133.6"/>
</g>
<!-- Node12&#45;&gt;Node9 -->
<g id="edge16" class="edge">
<title>Node12&#45;&gt;Node9</title>
<path fill="none" stroke="midnightblue" d="M285.28,-56.08C289.71,-48.61 296.16,-37.72 301.62,-28.52"/>
<polygon fill="midnightblue" stroke="midnightblue" points="304.73,-30.14 306.81,-19.75 298.71,-26.57 304.73,-30.14"/>
</g>
<!-- Node13 -->
<g id="node13" class="node">
<title>Node13</title>
<g id="a_node13"><a xlink:title=" ">
<polygon fill="none" stroke="#bfbfbf" points="227.5,-0.5 227.5,-19.5 268.5,-19.5 268.5,-0.5 227.5,-0.5"/>
<text text-anchor="middle" x="248" y="-7.5" font-family="Helvetica,sans-Serif" font-size="10.00">string</text>
</a>
</g>
</g>
<!-- Node12&#45;&gt;Node13 -->
<g id="edge15" class="edge">
<title>Node12&#45;&gt;Node13</title>
<path fill="none" stroke="midnightblue" d="M274.72,-56.08C270.29,-48.61 263.84,-37.72 258.38,-28.52"/>
<polygon fill="midnightblue" stroke="midnightblue" points="261.29,-26.57 253.19,-19.75 255.27,-30.14 261.29,-26.57"/>
</g>
<!-- Node14&#45;&gt;Node12 -->
<g id="edge19" class="edge">
<title>Node14&#45;&gt;Node12</title>
<path fill="none" stroke="midnightblue" d="M258.29,-112.08C261.85,-104.69 267.02,-93.95 271.42,-84.81"/>
<polygon fill="midnightblue" stroke="midnightblue" points="274.6,-86.28 275.79,-75.75 268.29,-83.24 274.6,-86.28"/>
</g>
<!-- Node14&#45;&gt;Node13 -->
<g id="edge18" class="edge">
<title>Node14&#45;&gt;Node13</title>
<path fill="none" stroke="midnightblue" d="M247.9,-112.19C242.25,-103.46 234.24,-89.48 231,-76 227.17,-60.07 232.66,-42.06 238.39,-29.04"/>
<polygon fill="midnightblue" stroke="midnightblue" points="241.66,-30.33 242.87,-19.8 235.36,-27.27 241.66,-30.33"/>
</g>
<!-- Node15&#45;&gt;Node9 -->
<g id="edge26" class="edge">
<title>Node15&#45;&gt;Node9</title>
<path fill="none" stroke="midnightblue" d="M486.17,-112.37C453.46,-93.33 374.91,-47.62 335.45,-24.65"/>
<polygon fill="midnightblue" stroke="midnightblue" points="337.16,-21.6 326.76,-19.59 333.64,-27.65 337.16,-21.6"/>
</g>
<!-- Node15&#45;&gt;Node12 -->
<g id="edge27" class="edge">
<title>Node15&#45;&gt;Node12</title>
<path fill="none" stroke="midnightblue" d="M465.98,-112.44C427.75,-103.1 366.43,-88.12 324.74,-77.93"/>
<polygon fill="midnightblue" stroke="midnightblue" points="325.4,-74.49 314.85,-75.52 323.74,-81.29 325.4,-74.49"/>
</g>
<!-- Node16 -->
<g id="node16" class="node">
<title>Node16</title>
<g id="a_node16"><a xlink:title=" ">
<polygon fill="none" stroke="#bfbfbf" points="462,-56.5 462,-75.5 508,-75.5 508,-56.5 462,-56.5"/>
<text text-anchor="middle" x="485" y="-63.5" font-family="Helvetica,sans-Serif" font-size="10.00">math.h</text>
</a>
</g>
</g>
<!-- Node15&#45;&gt;Node16 -->
<g id="edge24" class="edge">
<title>Node15&#45;&gt;Node16</title>
<path fill="none" stroke="midnightblue" d="M498.36,-112.08C496.21,-104.85 493.12,-94.41 490.45,-85.4"/>
<polygon fill="midnightblue" stroke="midnightblue" points="493.79,-84.34 487.59,-75.75 487.08,-86.33 493.79,-84.34"/>
</g>
<!-- Node17 -->
<g id="node17" class="node">
<title>Node17</title>
<g id="a_node17"><a xlink:title=" ">
<polygon fill="none" stroke="#bfbfbf" points="526.5,-56.5 526.5,-75.5 577.5,-75.5 577.5,-56.5 526.5,-56.5"/>
<text text-anchor="middle" x="552" y="-63.5" font-family="Helvetica,sans-Serif" font-size="10.00">numeric</text>
</a>
</g>
</g>
<!-- Node15&#45;&gt;Node17 -->
<g id="edge25" class="edge">
<title>Node15&#45;&gt;Node17</title>
<path fill="none" stroke="midnightblue" d="M509.42,-112.08C516.85,-104.22 527.85,-92.57 536.81,-83.08"/>
<polygon fill="midnightblue" stroke="midnightblue" points="539.41,-85.42 543.74,-75.75 534.32,-80.62 539.41,-85.42"/>
</g>
</g>
</svg>
