<?xml version="1.0" encoding="UTF-8" standalone="no"?>
<!DOCTYPE svg PUBLIC "-//W3C//DTD SVG 1.1//EN"
 "http://www.w3.org/Graphics/SVG/1.1/DTD/svg11.dtd">
<!-- Generated by graphviz version 3.0.0 (20220413.0242)
 -->
<!-- Title: model/pressurereference.hpp Pages: 1 -->
<svg width="1060pt" height="420pt"
 viewBox="0.00 0.00 1060.44 420.00" xmlns="http://www.w3.org/2000/svg" xmlns:xlink="http://www.w3.org/1999/xlink">
<g id="graph0" class="graph" transform="scale(1 1) rotate(0) translate(4 416)">
<title>model/pressurereference.hpp</title>
<!-- Node1 -->
<g id="node1" class="node">
<title>Node1</title>
<g id="a_node1"><a xlink:title="MODEL::PressureReference source file.">
<polygon fill="#bfbfbf" stroke="black" points="503,-392.5 503,-411.5 645,-411.5 645,-392.5 503,-392.5"/>
<text text-anchor="middle" x="574" y="-399.5" font-family="Helvetica,sans-Serif" font-size="10.00">model/pressurereference.hpp</text>
</a>
</g>
</g>
<!-- Node2 -->
<g id="node2" class="node">
<title>Node2</title>
<g id="a_node2"><a xlink:href="densesystem_8hpp.html" target="_top" xlink:title="ALGEBRA::DenseSystem source file.">
<polygon fill="none" stroke="black" points="505,-112.5 505,-131.5 639,-131.5 639,-112.5 505,-112.5"/>
<text text-anchor="middle" x="572" y="-119.5" font-family="Helvetica,sans-Serif" font-size="10.00">../algebra/densesystem.hpp</text>
</a>
</g>
</g>
<!-- Node1&#45;&gt;Node2 -->
<g id="edge1" class="edge">
<title>Node1&#45;&gt;Node2</title>
<path fill="none" stroke="midnightblue" d="M645.2,-395.98C788.98,-383.27 1092.02,-341.99 991,-224 957.21,-184.54 809.71,-203.1 760,-188 739.83,-181.87 736.66,-175.59 717,-168 682.79,-154.81 642.95,-142.66 613.69,-134.33"/>
<polygon fill="midnightblue" stroke="midnightblue" points="614.39,-130.89 603.81,-131.54 612.49,-137.62 614.39,-130.89"/>
</g>
<!-- Node4 -->
<g id="node4" class="node">
<title>Node4</title>
<g id="a_node4"><a xlink:href="sparsesystem_8hpp.html" target="_top" xlink:title="ALGEBRA::SparseSystem source file.">
<polygon fill="none" stroke="black" points="505.5,-336.5 505.5,-355.5 642.5,-355.5 642.5,-336.5 505.5,-336.5"/>
<text text-anchor="middle" x="574" y="-343.5" font-family="Helvetica,sans-Serif" font-size="10.00">../algebra/sparsesystem.hpp</text>
</a>
</g>
</g>
<!-- Node1&#45;&gt;Node4 -->
<g id="edge3" class="edge">
<title>Node1&#45;&gt;Node4</title>
<path fill="none" stroke="midnightblue" d="M574,-392.08C574,-385.01 574,-374.86 574,-365.99"/>
<polygon fill="midnightblue" stroke="midnightblue" points="577.5,-365.75 574,-355.75 570.5,-365.75 577.5,-365.75"/>
</g>
<!-- Node13 -->
<g id="node13" class="node">
<title>Node13</title>
<g id="a_node13"><a xlink:href="block_8hpp.html" target="_top" xlink:title="MODEL::Block source file.">
<polygon fill="none" stroke="black" points="403,-168.5 403,-187.5 461,-187.5 461,-168.5 403,-168.5"/>
<text text-anchor="middle" x="432" y="-175.5" font-family="Helvetica,sans-Serif" font-size="10.00">block.hpp</text>
</a>
</g>
</g>
<!-- Node1&#45;&gt;Node13 -->
<g id="edge53" class="edge">
<title>Node1&#45;&gt;Node13</title>
<path fill="none" stroke="midnightblue" d="M502.98,-400.47C401.94,-395.22 222.16,-368 161,-244 157.07,-236.03 155.25,-230.78 161,-224 190.2,-189.55 324.49,-181.44 392.41,-179.56"/>
<polygon fill="midnightblue" stroke="midnightblue" points="392.81,-183.05 402.72,-179.31 392.64,-176.05 392.81,-183.05"/>
</g>
<!-- Node21 -->
<g id="node21" class="node">
<title>Node21</title>
<g id="a_node21"><a xlink:href="timedependentparameter_8hpp.html" target="_top" xlink:title="MODEL::TimeDependentParameter source file.">
<polygon fill="none" stroke="black" points="769,-168.5 769,-187.5 911,-187.5 911,-168.5 769,-168.5"/>
<text text-anchor="middle" x="840" y="-175.5" font-family="Helvetica,sans-Serif" font-size="10.00">timedependentparameter.hpp</text>
</a>
</g>
</g>
<!-- Node1&#45;&gt;Node21 -->
<g id="edge54" class="edge">
<title>Node1&#45;&gt;Node21</title>
<path fill="none" stroke="midnightblue" d="M645.22,-399.02C765.69,-394.93 999.11,-383.51 1024,-356 1063.37,-312.5 1060.22,-270.15 1024,-224 1010.91,-207.32 964.32,-196.03 921.3,-188.92"/>
<polygon fill="midnightblue" stroke="midnightblue" points="921.75,-185.45 911.33,-187.34 920.65,-192.37 921.75,-185.45"/>
</g>
<!-- Node3 -->
<g id="node3" class="node">
<title>Node3</title>
<g id="a_node3"><a xlink:title=" ">
<polygon fill="none" stroke="#bfbfbf" points="536.5,-56.5 536.5,-75.5 607.5,-75.5 607.5,-56.5 536.5,-56.5"/>
<text text-anchor="middle" x="572" y="-63.5" font-family="Helvetica,sans-Serif" font-size="10.00">Eigen/Dense</text>
</a>
</g>
</g>
<!-- Node2&#45;&gt;Node3 -->
<g id="edge2" class="edge">
<title>Node2&#45;&gt;Node3</title>
<path fill="none" stroke="midnightblue" d="M572,-112.08C572,-105.01 572,-94.86 572,-85.99"/>
<polygon fill="midnightblue" stroke="midnightblue" points="575.5,-85.75 572,-75.75 568.5,-85.75 575.5,-85.75"/>
</g>
<!-- Node5 -->
<g id="node5" class="node">
<title>Node5</title>
<g id="a_node5"><a xlink:title=" ">
<polygon fill="none" stroke="#bfbfbf" points="678,-280.5 678,-299.5 752,-299.5 752,-280.5 678,-280.5"/>
<text text-anchor="middle" x="715" y="-287.5" font-family="Helvetica,sans-Serif" font-size="10.00">Eigen/Sparse</text>
</a>
</g>
</g>
<!-- Node4&#45;&gt;Node5 -->
<g id="edge4" class="edge">
<title>Node4&#45;&gt;Node5</title>
<path fill="none" stroke="midnightblue" d="M596.34,-336.44C619.75,-327.48 656.74,-313.31 683.19,-303.18"/>
<polygon fill="midnightblue" stroke="midnightblue" points="684.68,-306.36 692.76,-299.52 682.17,-299.82 684.68,-306.36"/>
</g>
<!-- Node6 -->
<g id="node6" class="node">
<title>Node6</title>
<g id="a_node6"><a xlink:title=" ">
<polygon fill="none" stroke="#bfbfbf" points="770,-280.5 770,-299.5 858,-299.5 858,-280.5 770,-280.5"/>
<text text-anchor="middle" x="814" y="-287.5" font-family="Helvetica,sans-Serif" font-size="10.00">Eigen/SparseLU</text>
</a>
</g>
</g>
<!-- Node4&#45;&gt;Node6 -->
<g id="edge5" class="edge">
<title>Node4&#45;&gt;Node6</title>
<path fill="none" stroke="midnightblue" d="M612.03,-336.44C653.81,-327.04 720.98,-311.93 766.27,-301.74"/>
<polygon fill="midnightblue" stroke="midnightblue" points="767.16,-305.13 776.15,-299.52 765.62,-298.3 767.16,-305.13"/>
</g>
<!-- Node7 -->
<g id="node7" class="node">
<title>Node7</title>
<g id="a_node7"><a xlink:title=" ">
<polygon fill="none" stroke="#bfbfbf" points="876,-280.5 876,-299.5 930,-299.5 930,-280.5 876,-280.5"/>
<text text-anchor="middle" x="903" y="-287.5" font-family="Helvetica,sans-Serif" font-size="10.00">iostream</text>
</a>
</g>
</g>
<!-- Node4&#45;&gt;Node7 -->
<g id="edge6" class="edge">
<title>Node4&#45;&gt;Node7</title>
<path fill="none" stroke="midnightblue" d="M641.22,-336.48C698.54,-328.8 783.31,-316.47 866.11,-300.03"/>
<polygon fill="midnightblue" stroke="midnightblue" points="866.82,-303.45 875.93,-298.05 865.44,-296.59 866.82,-303.45"/>
</g>
<!-- Node8 -->
<g id="node8" class="node">
<title>Node8</title>
<g id="a_node8"><a xlink:href="model_8hpp.html" target="_top" xlink:title="MODEL::Model source file.">
<polygon fill="none" stroke="black" points="243,-280.5 243,-299.5 341,-299.5 341,-280.5 243,-280.5"/>
<text text-anchor="middle" x="292" y="-287.5" font-family="Helvetica,sans-Serif" font-size="10.00">../model/model.hpp</text>
</a>
</g>
</g>
<!-- Node4&#45;&gt;Node8 -->
<g id="edge7" class="edge">
<title>Node4&#45;&gt;Node8</title>
<path fill="none" stroke="midnightblue" d="M524.23,-336.44C472.64,-326.96 392.67,-311.67 341.28,-301.48"/>
<polygon fill="midnightblue" stroke="midnightblue" points="341.89,-298.04 331.39,-299.52 340.52,-304.9 341.89,-298.04"/>
</g>
<!-- Node8&#45;&gt;Node1 -->
<g id="edge43" class="edge">
<title>Node8&#45;&gt;Node1</title>
<path fill="none" stroke="midnightblue" d="M314.03,-299.59C363.76,-318.99 484.9,-366.25 542.53,-388.73"/>
<polygon fill="midnightblue" stroke="midnightblue" points="541.28,-392 551.87,-392.37 543.83,-385.47 541.28,-392"/>
</g>
<!-- Node8&#45;&gt;Node2 -->
<g id="edge11" class="edge">
<title>Node8&#45;&gt;Node2</title>
<path fill="none" stroke="midnightblue" d="M296.57,-280.23C308.88,-257.53 345.17,-196.63 394,-168 424.53,-150.1 462.05,-139.27 494.76,-132.73"/>
<polygon fill="midnightblue" stroke="midnightblue" points="495.58,-136.14 504.75,-130.84 494.27,-129.26 495.58,-136.14"/>
</g>
<!-- Node8&#45;&gt;Node4 -->
<g id="edge12" class="edge">
<title>Node8&#45;&gt;Node4</title>
<path fill="none" stroke="midnightblue" d="M341.07,-299.43C392.55,-308.88 472.84,-324.23 524.48,-334.47"/>
<polygon fill="midnightblue" stroke="midnightblue" points="523.91,-337.92 534.41,-336.44 525.28,-331.06 523.91,-337.92"/>
</g>
<!-- Node9 -->
<g id="node9" class="node">
<title>Node9</title>
<g id="a_node9"><a xlink:title=" ">
<polygon fill="none" stroke="#bfbfbf" points="179.5,-112.5 179.5,-131.5 214.5,-131.5 214.5,-112.5 179.5,-112.5"/>
<text text-anchor="middle" x="197" y="-119.5" font-family="Helvetica,sans-Serif" font-size="10.00">map</text>
</a>
</g>
</g>
<!-- Node8&#45;&gt;Node9 -->
<g id="edge8" class="edge">
<title>Node8&#45;&gt;Node9</title>
<path fill="none" stroke="midnightblue" d="M242.88,-285.79C213.95,-281.08 179.51,-269.93 161,-244 137.98,-211.75 165.43,-164.7 183.55,-139.84"/>
<polygon fill="midnightblue" stroke="midnightblue" points="186.43,-141.84 189.69,-131.76 180.85,-137.6 186.43,-141.84"/>
</g>
<!-- Node10 -->
<g id="node10" class="node">
<title>Node10</title>
<g id="a_node10"><a xlink:title=" ">
<polygon fill="none" stroke="#bfbfbf" points="170.5,-224.5 170.5,-243.5 199.5,-243.5 199.5,-224.5 170.5,-224.5"/>
<text text-anchor="middle" x="185" y="-231.5" font-family="Helvetica,sans-Serif" font-size="10.00">list</text>
</a>
</g>
</g>
<!-- Node8&#45;&gt;Node10 -->
<g id="edge9" class="edge">
<title>Node8&#45;&gt;Node10</title>
<path fill="none" stroke="midnightblue" d="M274.81,-280.32C256.94,-271.31 228.83,-257.12 208.83,-247.03"/>
<polygon fill="midnightblue" stroke="midnightblue" points="210.24,-243.82 199.74,-242.44 207.09,-250.07 210.24,-243.82"/>
</g>
<!-- Node11 -->
<g id="node11" class="node">
<title>Node11</title>
<g id="a_node11"><a xlink:title=" ">
<polygon fill="none" stroke="#bfbfbf" points="218,-224.5 218,-243.5 264,-243.5 264,-224.5 218,-224.5"/>
<text text-anchor="middle" x="241" y="-231.5" font-family="Helvetica,sans-Serif" font-size="10.00">variant</text>
</a>
</g>
</g>
<!-- Node8&#45;&gt;Node11 -->
<g id="edge10" class="edge">
<title>Node8&#45;&gt;Node11</title>
<path fill="none" stroke="midnightblue" d="M283.58,-280.08C276.15,-272.22 265.15,-260.57 256.19,-251.08"/>
<polygon fill="midnightblue" stroke="midnightblue" points="258.68,-248.62 249.26,-243.75 253.59,-253.42 258.68,-248.62"/>
</g>
<!-- Node12 -->
<g id="node12" class="node">
<title>Node12</title>
<g id="a_node12"><a xlink:href="junction_8hpp.html" target="_top" xlink:title="MODEL::Junction source file.">
<polygon fill="none" stroke="black" points="524,-224.5 524,-243.5 592,-243.5 592,-224.5 524,-224.5"/>
<text text-anchor="middle" x="558" y="-231.5" font-family="Helvetica,sans-Serif" font-size="10.00">junction.hpp</text>
</a>
</g>
</g>
<!-- Node8&#45;&gt;Node12 -->
<g id="edge13" class="edge">
<title>Node8&#45;&gt;Node12</title>
<path fill="none" stroke="midnightblue" d="M334.77,-280.46C377.57,-271.9 445.58,-258.24 513.69,-244.26"/>
<polygon fill="midnightblue" stroke="midnightblue" points="514.65,-247.64 523.74,-242.19 513.24,-240.78 514.65,-247.64"/>
</g>
<!-- Node15 -->
<g id="node15" class="node">
<title>Node15</title>
<g id="a_node15"><a xlink:href="node_8hpp.html" target="_top" xlink:title="MODEL::Node source file.">
<polygon fill="none" stroke="black" points="0,-112.5 0,-131.5 56,-131.5 56,-112.5 0,-112.5"/>
<text text-anchor="middle" x="28" y="-119.5" font-family="Helvetica,sans-Serif" font-size="10.00">node.hpp</text>
</a>
</g>
</g>
<!-- Node8&#45;&gt;Node15 -->
<g id="edge33" class="edge">
<title>Node8&#45;&gt;Node15</title>
<path fill="none" stroke="midnightblue" d="M242.78,-286.15C180.54,-281.51 78.33,-270.05 52,-244 24.82,-217.1 23.88,-168.85 25.8,-142.13"/>
<polygon fill="midnightblue" stroke="midnightblue" points="29.32,-142.1 26.76,-131.82 22.35,-141.45 29.32,-142.1"/>
</g>
<!-- Node17 -->
<g id="node17" class="node">
<title>Node17</title>
<g id="a_node17"><a xlink:href="dofhandler_8hpp.html" target="_top" xlink:title="MODEL::DOFHandler source file.">
<polygon fill="none" stroke="black" points="257,-56.5 257,-75.5 337,-75.5 337,-56.5 257,-56.5"/>
<text text-anchor="middle" x="297" y="-63.5" font-family="Helvetica,sans-Serif" font-size="10.00">dofhandler.hpp</text>
</a>
</g>
</g>
<!-- Node8&#45;&gt;Node17 -->
<g id="edge32" class="edge">
<title>Node8&#45;&gt;Node17</title>
<path fill="none" stroke="midnightblue" d="M242.74,-287.49C210.7,-283.62 171.08,-272.8 150,-244 114.95,-196.12 129.37,-155.24 170,-112 190.03,-90.69 220.78,-79.46 247.01,-73.55"/>
<polygon fill="midnightblue" stroke="midnightblue" points="247.72,-76.97 256.81,-71.53 246.31,-70.12 247.72,-76.97"/>
</g>
<!-- Node18 -->
<g id="node18" class="node">
<title>Node18</title>
<g id="a_node18"><a xlink:href="bloodvessel_8hpp.html" target="_top" xlink:title="MODEL::BloodVessel source file.">
<polygon fill="none" stroke="black" points="896,-224.5 896,-243.5 982,-243.5 982,-224.5 896,-224.5"/>
<text text-anchor="middle" x="939" y="-231.5" font-family="Helvetica,sans-Serif" font-size="10.00">bloodvessel.hpp</text>
</a>
</g>
</g>
<!-- Node8&#45;&gt;Node18 -->
<g id="edge27" class="edge">
<title>Node8&#45;&gt;Node18</title>
<path fill="none" stroke="midnightblue" d="M341.14,-286.88C441.51,-282.21 677.48,-269.45 885.71,-244.04"/>
<polygon fill="midnightblue" stroke="midnightblue" points="886.42,-247.48 895.92,-242.78 885.56,-240.53 886.42,-247.48"/>
</g>
<!-- Node20 -->
<g id="node20" class="node">
<title>Node20</title>
<g id="a_node20"><a xlink:href="flowreference_8hpp.html" target="_top" xlink:title="MODEL::FlowReference source file.">
<polygon fill="none" stroke="black" points="610,-224.5 610,-243.5 702,-243.5 702,-224.5 610,-224.5"/>
<text text-anchor="middle" x="656" y="-231.5" font-family="Helvetica,sans-Serif" font-size="10.00">flowreference.hpp</text>
</a>
</g>
</g>
<!-- Node8&#45;&gt;Node20 -->
<g id="edge34" class="edge">
<title>Node8&#45;&gt;Node20</title>
<path fill="none" stroke="midnightblue" d="M341.01,-282.13C399.96,-273.82 502.18,-259.2 599.76,-244.17"/>
<polygon fill="midnightblue" stroke="midnightblue" points="600.45,-247.61 609.8,-242.62 599.38,-240.69 600.45,-247.61"/>
</g>
<!-- Node23 -->
<g id="node23" class="node">
<title>Node23</title>
<g id="a_node23"><a xlink:href="rcrblockwithdistalpressure_8hpp.html" target="_top" xlink:title="MODEL::RCRBlockWithDistalPressure source file.">
<polygon fill="none" stroke="black" points="358,-224.5 358,-243.5 506,-243.5 506,-224.5 358,-224.5"/>
<text text-anchor="middle" x="432" y="-231.5" font-family="Helvetica,sans-Serif" font-size="10.00">rcrblockwithdistalpressure.hpp</text>
</a>
</g>
</g>
<!-- Node8&#45;&gt;Node23 -->
<g id="edge44" class="edge">
<title>Node8&#45;&gt;Node23</title>
<path fill="none" stroke="midnightblue" d="M314.18,-280.44C337.43,-271.48 374.15,-257.31 400.42,-247.18"/>
<polygon fill="midnightblue" stroke="midnightblue" points="401.85,-250.38 409.92,-243.52 399.33,-243.85 401.85,-250.38"/>
</g>
<!-- Node24 -->
<g id="node24" class="node">
<title>Node24</title>
<g id="a_node24"><a xlink:href="resistancewithdistalpressure_8hpp.html" target="_top" xlink:title="MODEL::ResistanceWithDistalPressure source file.">
<polygon fill="none" stroke="black" points="720,-224.5 720,-243.5 878,-243.5 878,-224.5 720,-224.5"/>
<text text-anchor="middle" x="799" y="-231.5" font-family="Helvetica,sans-Serif" font-size="10.00">resistancewithdistalpressure.hpp</text>
</a>
</g>
</g>
<!-- Node8&#45;&gt;Node24 -->
<g id="edge48" class="edge">
<title>Node8&#45;&gt;Node24</title>
<path fill="none" stroke="midnightblue" d="M341.07,-283.77C426.18,-274.71 602.3,-255.95 709.61,-244.52"/>
<polygon fill="midnightblue" stroke="midnightblue" points="710.2,-247.98 719.77,-243.44 709.46,-241.02 710.2,-247.98"/>
</g>
<!-- Node12&#45;&gt;Node2 -->
<g id="edge14" class="edge">
<title>Node12&#45;&gt;Node2</title>
<path fill="none" stroke="midnightblue" d="M559.1,-224.37C561.36,-206.62 566.57,-165.67 569.63,-141.6"/>
<polygon fill="midnightblue" stroke="midnightblue" points="573.12,-141.95 570.91,-131.59 566.17,-141.07 573.12,-141.95"/>
</g>
<!-- Node12&#45;&gt;Node4 -->
<g id="edge15" class="edge">
<title>Node12&#45;&gt;Node4</title>
<path fill="none" stroke="midnightblue" d="M557.52,-243.91C557.01,-256.5 556.68,-280.18 560,-300 561.51,-308.98 564.35,-318.65 567.08,-326.72"/>
<polygon fill="midnightblue" stroke="midnightblue" points="563.81,-327.98 570.48,-336.21 570.4,-325.61 563.81,-327.98"/>
</g>
<!-- Node12&#45;&gt;Node13 -->
<g id="edge16" class="edge">
<title>Node12&#45;&gt;Node13</title>
<path fill="none" stroke="midnightblue" d="M538.03,-224.44C517.39,-215.6 484.94,-201.69 461.37,-191.59"/>
<polygon fill="midnightblue" stroke="midnightblue" points="462.44,-188.24 451.87,-187.52 459.68,-194.67 462.44,-188.24"/>
</g>
<!-- Node13&#45;&gt;Node2 -->
<g id="edge25" class="edge">
<title>Node13&#45;&gt;Node2</title>
<path fill="none" stroke="midnightblue" d="M454.18,-168.44C477.43,-159.48 514.15,-145.31 540.42,-135.18"/>
<polygon fill="midnightblue" stroke="midnightblue" points="541.85,-138.38 549.92,-131.52 539.33,-131.85 541.85,-138.38"/>
</g>
<!-- Node13&#45;&gt;Node4 -->
<g id="edge26" class="edge">
<title>Node13&#45;&gt;Node4</title>
<path fill="none" stroke="midnightblue" d="M403.67,-187.52C373.5,-198.14 332.24,-218.11 349,-244 383.1,-296.68 451.89,-322.14 504.49,-334.29"/>
<polygon fill="midnightblue" stroke="midnightblue" points="503.92,-337.75 514.44,-336.48 505.42,-330.91 503.92,-337.75"/>
</g>
<!-- Node13&#45;&gt;Node9 -->
<g id="edge18" class="edge">
<title>Node13&#45;&gt;Node9</title>
<path fill="none" stroke="midnightblue" d="M402.71,-170.27C356.92,-159.75 269.01,-139.55 224.41,-129.3"/>
<polygon fill="midnightblue" stroke="midnightblue" points="225.09,-125.86 214.56,-127.03 223.52,-132.68 225.09,-125.86"/>
</g>
<!-- Node14 -->
<g id="node14" class="node">
<title>Node14</title>
<g id="a_node14"><a xlink:title=" ">
<polygon fill="none" stroke="#bfbfbf" points="410,-0.5 410,-19.5 454,-19.5 454,-0.5 410,-0.5"/>
<text text-anchor="middle" x="432" y="-7.5" font-family="Helvetica,sans-Serif" font-size="10.00">vector</text>
</a>
</g>
</g>
<!-- Node13&#45;&gt;Node14 -->
<g id="edge17" class="edge">
<title>Node13&#45;&gt;Node14</title>
<path fill="none" stroke="midnightblue" d="M432,-168.08C432,-141.95 432,-65.21 432,-29.58"/>
<polygon fill="midnightblue" stroke="midnightblue" points="435.5,-29.57 432,-19.57 428.5,-29.57 435.5,-29.57"/>
</g>
<!-- Node13&#45;&gt;Node15 -->
<g id="edge19" class="edge">
<title>Node13&#45;&gt;Node15</title>
<path fill="none" stroke="midnightblue" d="M402.95,-173.12C331.43,-163.56 146.88,-138.89 66.44,-128.14"/>
<polygon fill="midnightblue" stroke="midnightblue" points="66.63,-124.63 56.25,-126.78 65.7,-131.57 66.63,-124.63"/>
</g>
<!-- Node13&#45;&gt;Node17 -->
<g id="edge24" class="edge">
<title>Node13&#45;&gt;Node17</title>
<path fill="none" stroke="midnightblue" d="M421.41,-168.37C398.54,-149.73 344.29,-105.53 315.57,-82.13"/>
<polygon fill="midnightblue" stroke="midnightblue" points="317.51,-79.19 307.54,-75.59 313.09,-84.62 317.51,-79.19"/>
</g>
<!-- Node16 -->
<g id="node16" class="node">
<title>Node16</title>
<g id="a_node16"><a xlink:title=" ">
<polygon fill="none" stroke="#bfbfbf" points="175.5,-0.5 175.5,-19.5 216.5,-19.5 216.5,-0.5 175.5,-0.5"/>
<text text-anchor="middle" x="196" y="-7.5" font-family="Helvetica,sans-Serif" font-size="10.00">string</text>
</a>
</g>
</g>
<!-- Node15&#45;&gt;Node16 -->
<g id="edge20" class="edge">
<title>Node15&#45;&gt;Node16</title>
<path fill="none" stroke="midnightblue" d="M41.18,-112.37C70.01,-93.49 138.9,-48.38 174.26,-25.24"/>
<polygon fill="midnightblue" stroke="midnightblue" points="176.43,-28 182.88,-19.59 172.6,-22.14 176.43,-28"/>
</g>
<!-- Node15&#45;&gt;Node17 -->
<g id="edge21" class="edge">
<title>Node15&#45;&gt;Node17</title>
<path fill="none" stroke="midnightblue" d="M56,-114.94C60.67,-113.94 65.47,-112.93 70,-112 130.73,-99.48 200.73,-85.7 246.76,-76.73"/>
<polygon fill="midnightblue" stroke="midnightblue" points="247.63,-80.13 256.78,-74.78 246.29,-73.25 247.63,-80.13"/>
</g>
<!-- Node17&#45;&gt;Node14 -->
<g id="edge22" class="edge">
<title>Node17&#45;&gt;Node14</title>
<path fill="none" stroke="midnightblue" d="M318.39,-56.44C340.71,-47.52 375.9,-33.44 401.21,-23.32"/>
<polygon fill="midnightblue" stroke="midnightblue" points="402.72,-26.48 410.71,-19.52 400.12,-19.98 402.72,-26.48"/>
</g>
<!-- Node17&#45;&gt;Node16 -->
<g id="edge23" class="edge">
<title>Node17&#45;&gt;Node16</title>
<path fill="none" stroke="midnightblue" d="M280.77,-56.32C264.65,-47.7 239.7,-34.36 221.04,-24.39"/>
<polygon fill="midnightblue" stroke="midnightblue" points="222.66,-21.28 212.19,-19.65 219.36,-27.46 222.66,-21.28"/>
</g>
<!-- Node18&#45;&gt;Node2 -->
<g id="edge30" class="edge">
<title>Node18&#45;&gt;Node2</title>
<path fill="none" stroke="midnightblue" d="M895.94,-224.85C843.46,-214.75 757.97,-197.69 727,-188 725.4,-187.5 646.36,-154.28 601.79,-135.53"/>
<polygon fill="midnightblue" stroke="midnightblue" points="602.89,-132.2 592.31,-131.55 600.17,-138.65 602.89,-132.2"/>
</g>
<!-- Node18&#45;&gt;Node4 -->
<g id="edge31" class="edge">
<title>Node18&#45;&gt;Node4</title>
<path fill="none" stroke="midnightblue" d="M895.87,-242.49C892.87,-243 889.89,-243.51 887,-244 790.17,-260.37 760.13,-243.41 669,-280 660.91,-283.25 619.74,-312.25 594.32,-330.4"/>
<polygon fill="midnightblue" stroke="midnightblue" points="592.17,-327.64 586.07,-336.31 596.24,-333.33 592.17,-327.64"/>
</g>
<!-- Node18&#45;&gt;Node13 -->
<g id="edge29" class="edge">
<title>Node18&#45;&gt;Node13</title>
<path fill="none" stroke="midnightblue" d="M895.91,-225.29C892.9,-224.83 889.91,-224.39 887,-224 733.62,-203.17 549.92,-187.96 471.07,-181.9"/>
<polygon fill="midnightblue" stroke="midnightblue" points="471.33,-178.41 461.1,-181.14 470.8,-185.39 471.33,-178.41"/>
</g>
<!-- Node19 -->
<g id="node19" class="node">
<title>Node19</title>
<g id="a_node19"><a xlink:title=" ">
<polygon fill="none" stroke="#bfbfbf" points="900,-112.5 900,-131.5 946,-131.5 946,-112.5 900,-112.5"/>
<text text-anchor="middle" x="923" y="-119.5" font-family="Helvetica,sans-Serif" font-size="10.00">math.h</text>
</a>
</g>
</g>
<!-- Node18&#45;&gt;Node19 -->
<g id="edge28" class="edge">
<title>Node18&#45;&gt;Node19</title>
<path fill="none" stroke="midnightblue" d="M937.74,-224.37C935.16,-206.62 929.21,-165.67 925.71,-141.6"/>
<polygon fill="midnightblue" stroke="midnightblue" points="929.15,-140.98 924.25,-131.59 922.23,-141.99 929.15,-140.98"/>
</g>
<!-- Node20&#45;&gt;Node2 -->
<g id="edge35" class="edge">
<title>Node20&#45;&gt;Node2</title>
<path fill="none" stroke="midnightblue" d="M649.41,-224.37C635.48,-206.14 602.87,-163.43 584.73,-139.68"/>
<polygon fill="midnightblue" stroke="midnightblue" points="587.41,-137.41 578.56,-131.59 581.85,-141.66 587.41,-137.41"/>
</g>
<!-- Node20&#45;&gt;Node4 -->
<g id="edge36" class="edge">
<title>Node20&#45;&gt;Node4</title>
<path fill="none" stroke="midnightblue" d="M640.73,-243.51C627.75,-251.44 609.45,-264.37 598,-280 587.79,-293.94 581.48,-312.69 577.91,-326.47"/>
<polygon fill="midnightblue" stroke="midnightblue" points="574.49,-325.74 575.61,-336.27 581.3,-327.34 574.49,-325.74"/>
</g>
<!-- Node20&#45;&gt;Node13 -->
<g id="edge37" class="edge">
<title>Node20&#45;&gt;Node13</title>
<path fill="none" stroke="midnightblue" d="M620.51,-224.44C579.82,-214.64 513.33,-198.61 471.17,-188.44"/>
<polygon fill="midnightblue" stroke="midnightblue" points="471.8,-184.99 461.26,-186.05 470.16,-191.8 471.8,-184.99"/>
</g>
<!-- Node20&#45;&gt;Node21 -->
<g id="edge38" class="edge">
<title>Node20&#45;&gt;Node21</title>
<path fill="none" stroke="midnightblue" d="M685.16,-224.44C716.51,-215.24 766.53,-200.56 801.2,-190.39"/>
<polygon fill="midnightblue" stroke="midnightblue" points="802.37,-193.69 810.98,-187.52 800.4,-186.97 802.37,-193.69"/>
</g>
<!-- Node21&#45;&gt;Node14 -->
<g id="edge40" class="edge">
<title>Node21&#45;&gt;Node14</title>
<path fill="none" stroke="midnightblue" d="M827.01,-168.37C793.57,-146.53 701.26,-88.47 617,-56 565.13,-36.01 501.56,-22.86 464.06,-16.19"/>
<polygon fill="midnightblue" stroke="midnightblue" points="464.65,-12.75 454.2,-14.49 463.46,-19.64 464.65,-12.75"/>
</g>
<!-- Node21&#45;&gt;Node17 -->
<g id="edge42" class="edge">
<title>Node21&#45;&gt;Node17</title>
<path fill="none" stroke="midnightblue" d="M819.37,-168.49C784.62,-154.52 711.95,-126.77 648,-112 542.52,-87.64 415.96,-75.49 347.3,-70.29"/>
<polygon fill="midnightblue" stroke="midnightblue" points="347.43,-66.79 337.2,-69.54 346.91,-73.77 347.43,-66.79"/>
</g>
<!-- Node21&#45;&gt;Node19 -->
<g id="edge39" class="edge">
<title>Node21&#45;&gt;Node19</title>
<path fill="none" stroke="midnightblue" d="M853.34,-168.32C866.16,-159.98 885.78,-147.21 900.94,-137.35"/>
<polygon fill="midnightblue" stroke="midnightblue" points="903.22,-140.04 909.7,-131.65 899.41,-134.17 903.22,-140.04"/>
</g>
<!-- Node22 -->
<g id="node22" class="node">
<title>Node22</title>
<g id="a_node22"><a xlink:title=" ">
<polygon fill="none" stroke="#bfbfbf" points="814.5,-112.5 814.5,-131.5 865.5,-131.5 865.5,-112.5 814.5,-112.5"/>
<text text-anchor="middle" x="840" y="-119.5" font-family="Helvetica,sans-Serif" font-size="10.00">numeric</text>
</a>
</g>
</g>
<!-- Node21&#45;&gt;Node22 -->
<g id="edge41" class="edge">
<title>Node21&#45;&gt;Node22</title>
<path fill="none" stroke="midnightblue" d="M840,-168.08C840,-161.01 840,-150.86 840,-141.99"/>
<polygon fill="midnightblue" stroke="midnightblue" points="843.5,-141.75 840,-131.75 836.5,-141.75 843.5,-141.75"/>
</g>
<!-- Node23&#45;&gt;Node2 -->
<g id="edge45" class="edge">
<title>Node23&#45;&gt;Node2</title>
<path fill="none" stroke="midnightblue" d="M442.99,-224.37C466.81,-205.65 523.44,-161.15 553.12,-137.83"/>
<polygon fill="midnightblue" stroke="midnightblue" points="555.36,-140.52 561.07,-131.59 551.04,-135.02 555.36,-140.52"/>
</g>
<!-- Node23&#45;&gt;Node4 -->
<g id="edge46" class="edge">
<title>Node23&#45;&gt;Node4</title>
<path fill="none" stroke="midnightblue" d="M443.09,-243.59C467.2,-262.27 524.65,-306.77 554.79,-330.12"/>
<polygon fill="midnightblue" stroke="midnightblue" points="552.81,-333.01 562.86,-336.37 557.1,-327.48 552.81,-333.01"/>
</g>
<!-- Node23&#45;&gt;Node13 -->
<g id="edge47" class="edge">
<title>Node23&#45;&gt;Node13</title>
<path fill="none" stroke="midnightblue" d="M432,-224.08C432,-217.01 432,-206.86 432,-197.99"/>
<polygon fill="midnightblue" stroke="midnightblue" points="435.5,-197.75 432,-187.75 428.5,-197.75 435.5,-197.75"/>
</g>
<!-- Node24&#45;&gt;Node2 -->
<g id="edge49" class="edge">
<title>Node24&#45;&gt;Node2</title>
<path fill="none" stroke="midnightblue" d="M774.09,-224.36C750.69,-215.97 714.9,-202.41 685,-188 652.53,-172.36 616.73,-151.02 594.31,-137.13"/>
<polygon fill="midnightblue" stroke="midnightblue" points="595.9,-134 585.57,-131.67 592.19,-139.94 595.9,-134"/>
</g>
<!-- Node24&#45;&gt;Node4 -->
<g id="edge50" class="edge">
<title>Node24&#45;&gt;Node4</title>
<path fill="none" stroke="midnightblue" d="M738.99,-243.57C706.77,-250.08 667.36,-261.23 636,-280 615.39,-292.33 597.13,-313.36 585.86,-328.15"/>
<polygon fill="midnightblue" stroke="midnightblue" points="582.89,-326.29 579.79,-336.42 588.53,-330.43 582.89,-326.29"/>
</g>
<!-- Node24&#45;&gt;Node13 -->
<g id="edge51" class="edge">
<title>Node24&#45;&gt;Node13</title>
<path fill="none" stroke="midnightblue" d="M740.85,-224.44C665.6,-213.37 536.5,-194.38 471.64,-184.83"/>
<polygon fill="midnightblue" stroke="midnightblue" points="471.83,-181.32 461.42,-183.33 470.81,-188.25 471.83,-181.32"/>
</g>
<!-- Node24&#45;&gt;Node21 -->
<g id="edge52" class="edge">
<title>Node24&#45;&gt;Node21</title>
<path fill="none" stroke="midnightblue" d="M805.77,-224.08C811.56,-216.46 820.06,-205.26 827.14,-195.94"/>
<polygon fill="midnightblue" stroke="midnightblue" points="830.1,-197.83 833.36,-187.75 824.52,-193.6 830.1,-197.83"/>
</g>
</g>
</svg>
