<?xml version="1.0" encoding="UTF-8" standalone="no"?>
<!DOCTYPE svg PUBLIC "-//W3C//DTD SVG 1.1//EN"
 "http://www.w3.org/Graphics/SVG/1.1/DTD/svg11.dtd">
<!-- Generated by graphviz version 3.0.0 (20220413.0242)
 -->
<!-- Title: model/rcrblockwithdistalpressure.hpp Pages: 1 -->
<svg width="725pt" height="364pt"
 viewBox="0.00 0.00 725.09 364.00" xmlns="http://www.w3.org/2000/svg" xmlns:xlink="http://www.w3.org/1999/xlink">
<g id="graph0" class="graph" transform="scale(1 1) rotate(0) translate(4 360)">
<title>model/rcrblockwithdistalpressure.hpp</title>
<!-- Node1 -->
<g id="node1" class="node">
<title>Node1</title>
<g id="a_node1"><a xlink:title="MODEL::RCRBlockWithDistalPressure source file.">
<polygon fill="#bfbfbf" stroke="black" points="342,-336.5 342,-355.5 519,-355.5 519,-336.5 342,-336.5"/>
<text text-anchor="middle" x="430.5" y="-343.5" font-family="Helvetica,sans-Serif" font-size="10.00">model/rcrblockwithdistalpressure.hpp</text>
</a>
</g>
</g>
<!-- Node2 -->
<g id="node2" class="node">
<title>Node2</title>
<g id="a_node2"><a xlink:href="model_8hpp.html" target="_top" xlink:title="MODEL::Model source file.">
<polygon fill="none" stroke="black" points="309.5,-280.5 309.5,-299.5 399.5,-299.5 399.5,-280.5 309.5,-280.5"/>
<text text-anchor="middle" x="354.5" y="-287.5" font-family="Helvetica,sans-Serif" font-size="10.00">model/model.hpp</text>
</a>
</g>
</g>
<!-- Node1&#45;&gt;Node2 -->
<g id="edge1" class="edge">
<title>Node1&#45;&gt;Node2</title>
<path fill="none" stroke="midnightblue" d="M409.92,-330.38C396.19,-320.62 378.57,-308.11 366.93,-299.83"/>
<polygon fill="midnightblue" stroke="midnightblue" points="408.11,-333.38 418.29,-336.32 412.16,-327.68 408.11,-333.38"/>
</g>
<!-- Node3 -->
<g id="node3" class="node">
<title>Node3</title>
<g id="a_node3"><a xlink:href="integrator_8hpp.html" target="_top" xlink:title="ALGEBRA::Integrator source file.">
<polygon fill="none" stroke="black" points="57.5,-168.5 57.5,-187.5 167.5,-187.5 167.5,-168.5 57.5,-168.5"/>
<text text-anchor="middle" x="112.5" y="-175.5" font-family="Helvetica,sans-Serif" font-size="10.00">algebra/integrator.hpp</text>
</a>
</g>
</g>
<!-- Node2&#45;&gt;Node3 -->
<g id="edge2" class="edge">
<title>Node2&#45;&gt;Node3</title>
<path fill="none" stroke="midnightblue" d="M299.32,-286.38C258.14,-282.13 202.06,-271.3 160.5,-244 138.69,-229.67 123.24,-201.85 116.41,-187.71"/>
<polygon fill="midnightblue" stroke="midnightblue" points="299.17,-289.88 309.45,-287.32 299.82,-282.91 299.17,-289.88"/>
</g>
<!-- Node4 -->
<g id="node4" class="node">
<title>Node4</title>
<g id="a_node4"><a xlink:href="main_8cpp.html" target="_top" xlink:title="Main routine of svZeroDSolver.">
<polygon fill="none" stroke="black" points="186.5,-0.5 186.5,-19.5 242.5,-19.5 242.5,-0.5 186.5,-0.5"/>
<text text-anchor="middle" x="214.5" y="-7.5" font-family="Helvetica,sans-Serif" font-size="10.00">main.cpp</text>
</a>
</g>
</g>
<!-- Node2&#45;&gt;Node4 -->
<g id="edge26" class="edge">
<title>Node2&#45;&gt;Node4</title>
<path fill="none" stroke="midnightblue" d="M299.44,-280.72C258.4,-273.29 207.34,-260.95 194.5,-244 167.1,-207.83 202.79,-57.22 212.29,-19.56"/>
<polygon fill="midnightblue" stroke="midnightblue" points="298.9,-284.18 309.36,-282.46 300.11,-277.28 298.9,-284.18"/>
</g>
<!-- Node5 -->
<g id="node5" class="node">
<title>Node5</title>
<g id="a_node5"><a xlink:href="sparsesystem_8hpp.html" target="_top" xlink:title="ALGEBRA::SparseSystem source file.">
<polygon fill="none" stroke="black" points="458.5,-224.5 458.5,-243.5 588.5,-243.5 588.5,-224.5 458.5,-224.5"/>
<text text-anchor="middle" x="523.5" y="-231.5" font-family="Helvetica,sans-Serif" font-size="10.00">algebra/sparsesystem.hpp</text>
</a>
</g>
</g>
<!-- Node2&#45;&gt;Node5 -->
<g id="edge4" class="edge">
<title>Node2&#45;&gt;Node5</title>
<path fill="none" stroke="midnightblue" d="M385.82,-277.17C416.06,-267 461.39,-252.59 491.77,-243.52"/>
<polygon fill="midnightblue" stroke="midnightblue" points="384.53,-273.91 376.19,-280.44 386.78,-280.54 384.53,-273.91"/>
</g>
<!-- Node10 -->
<g id="node10" class="node">
<title>Node10</title>
<g id="a_node10"><a xlink:href="configreader_8hpp.html" target="_top" xlink:title="IO::ConfigReader source file.">
<polygon fill="none" stroke="black" points="261.5,-56.5 261.5,-75.5 359.5,-75.5 359.5,-56.5 261.5,-56.5"/>
<text text-anchor="middle" x="310.5" y="-63.5" font-family="Helvetica,sans-Serif" font-size="10.00">io/configreader.hpp</text>
</a>
</g>
</g>
<!-- Node2&#45;&gt;Node10 -->
<g id="edge21" class="edge">
<title>Node2&#45;&gt;Node10</title>
<path fill="none" stroke="midnightblue" d="M349.12,-270.59C340.81,-241.45 324.94,-182.78 316.5,-132 313.19,-112.1 311.58,-88.45 310.91,-75.88"/>
<polygon fill="midnightblue" stroke="midnightblue" points="345.77,-271.6 351.9,-280.24 352.49,-269.66 345.77,-271.6"/>
</g>
<!-- Node11 -->
<g id="node11" class="node">
<title>Node11</title>
<g id="a_node11"><a xlink:href="csvwriter_8hpp.html" target="_top" xlink:title="IO::write_csv source file.">
<polygon fill="none" stroke="black" points="203,-224.5 203,-243.5 288,-243.5 288,-224.5 203,-224.5"/>
<text text-anchor="middle" x="245.5" y="-231.5" font-family="Helvetica,sans-Serif" font-size="10.00">io/csvwriter.hpp</text>
</a>
</g>
</g>
<!-- Node2&#45;&gt;Node11 -->
<g id="edge22" class="edge">
<title>Node2&#45;&gt;Node11</title>
<path fill="none" stroke="midnightblue" d="M327.98,-275.86C307.77,-265.85 280.51,-252.35 262.97,-243.65"/>
<polygon fill="midnightblue" stroke="midnightblue" points="326.47,-279.02 336.99,-280.32 329.58,-272.75 326.47,-279.02"/>
</g>
<!-- Node12 -->
<g id="node12" class="node">
<title>Node12</title>
<g id="a_node12"><a xlink:href="jsonwriter_8hpp.html" target="_top" xlink:title="IO::write_json source file.">
<polygon fill="none" stroke="black" points="0,-56.5 0,-75.5 87,-75.5 87,-56.5 0,-56.5"/>
<text text-anchor="middle" x="43.5" y="-63.5" font-family="Helvetica,sans-Serif" font-size="10.00">io/jsonwriter.hpp</text>
</a>
</g>
</g>
<!-- Node2&#45;&gt;Node12 -->
<g id="edge24" class="edge">
<title>Node2&#45;&gt;Node12</title>
<path fill="none" stroke="midnightblue" d="M299.12,-283.2C254.06,-277.17 189.5,-265.48 136.5,-244 93.54,-226.58 71.64,-228.17 48.5,-188 27.19,-151.02 36.53,-96.6 41.31,-75.66"/>
<polygon fill="midnightblue" stroke="midnightblue" points="298.91,-286.7 309.27,-284.51 299.8,-279.76 298.91,-286.7"/>
</g>
<!-- Node3&#45;&gt;Node4 -->
<g id="edge3" class="edge">
<title>Node3&#45;&gt;Node4</title>
<path fill="none" stroke="midnightblue" d="M121.74,-159.35C134.44,-135.45 158.35,-91.68 181.5,-56 189.94,-43 200.72,-28.67 207.62,-19.75"/>
<polygon fill="midnightblue" stroke="midnightblue" points="118.6,-157.81 117.02,-168.29 124.79,-161.08 118.6,-157.81"/>
</g>
<!-- Node5&#45;&gt;Node1 -->
<g id="edge20" class="edge">
<title>Node5&#45;&gt;Node1</title>
<path fill="none" stroke="midnightblue" d="M509.67,-251.36C489.64,-275.05 453.28,-318.05 437.8,-336.37"/>
<polygon fill="midnightblue" stroke="midnightblue" points="512.45,-253.49 516.24,-243.59 507.11,-248.97 512.45,-253.49"/>
</g>
<!-- Node5&#45;&gt;Node2 -->
<g id="edge19" class="edge">
<title>Node5&#45;&gt;Node2</title>
<path fill="none" stroke="midnightblue" d="M492.31,-246.78C462.12,-256.94 416.79,-271.36 386.37,-280.44"/>
<polygon fill="midnightblue" stroke="midnightblue" points="493.58,-250.05 501.93,-243.52 491.33,-243.42 493.58,-250.05"/>
</g>
<!-- Node5&#45;&gt;Node4 -->
<g id="edge5" class="edge">
<title>Node5&#45;&gt;Node4</title>
<path fill="none" stroke="midnightblue" d="M571.88,-221.88C639.73,-204.08 750.23,-165.62 706.5,-112 647.05,-39.1 338.35,-17.34 242.75,-12.3"/>
<polygon fill="midnightblue" stroke="midnightblue" points="570.62,-218.59 561.79,-224.46 572.35,-225.38 570.62,-218.59"/>
</g>
<!-- Node6 -->
<g id="node6" class="node">
<title>Node6</title>
<g id="a_node6"><a xlink:href="block_8hpp.html" target="_top" xlink:title="MODEL::Block source file.">
<polygon fill="none" stroke="black" points="459,-168.5 459,-187.5 546,-187.5 546,-168.5 459,-168.5"/>
<text text-anchor="middle" x="502.5" y="-175.5" font-family="Helvetica,sans-Serif" font-size="10.00">model/block.hpp</text>
</a>
</g>
</g>
<!-- Node5&#45;&gt;Node6 -->
<g id="edge6" class="edge">
<title>Node5&#45;&gt;Node6</title>
<path fill="none" stroke="midnightblue" d="M516.38,-214.69C512.84,-205.59 508.73,-195.01 505.9,-187.75"/>
<polygon fill="midnightblue" stroke="midnightblue" points="513.15,-216.03 520.03,-224.08 519.67,-213.49 513.15,-216.03"/>
</g>
<!-- Node7 -->
<g id="node7" class="node">
<title>Node7</title>
<g id="a_node7"><a xlink:href="bloodvessel_8hpp.html" target="_top" xlink:title="MODEL::BloodVessel source file.">
<polygon fill="none" stroke="black" points="581.5,-112.5 581.5,-131.5 697.5,-131.5 697.5,-112.5 581.5,-112.5"/>
<text text-anchor="middle" x="639.5" y="-119.5" font-family="Helvetica,sans-Serif" font-size="10.00">model/bloodvessel.hpp</text>
</a>
</g>
</g>
<!-- Node5&#45;&gt;Node7 -->
<g id="edge16" class="edge">
<title>Node5&#45;&gt;Node7</title>
<path fill="none" stroke="midnightblue" d="M540.16,-217.21C565.02,-193.63 611,-150.03 630.44,-131.59"/>
<polygon fill="midnightblue" stroke="midnightblue" points="537.45,-214.95 532.6,-224.37 542.27,-220.03 537.45,-214.95"/>
</g>
<!-- Node8 -->
<g id="node8" class="node">
<title>Node8</title>
<g id="a_node8"><a xlink:href="flowreference_8hpp.html" target="_top" xlink:title="MODEL::FlowReference source file.">
<polygon fill="none" stroke="black" points="441.5,-112.5 441.5,-131.5 563.5,-131.5 563.5,-112.5 441.5,-112.5"/>
<text text-anchor="middle" x="502.5" y="-119.5" font-family="Helvetica,sans-Serif" font-size="10.00">model/flowreference.hpp</text>
</a>
</g>
</g>
<!-- Node5&#45;&gt;Node8 -->
<g id="edge17" class="edge">
<title>Node5&#45;&gt;Node8</title>
<path fill="none" stroke="midnightblue" d="M540.09,-216.92C551.5,-203.83 563.29,-184.83 555.5,-168 548,-151.79 531.46,-139.28 518.83,-131.61"/>
<polygon fill="midnightblue" stroke="midnightblue" points="537.52,-214.55 533.22,-224.23 542.62,-219.34 537.52,-214.55"/>
</g>
<!-- Node9 -->
<g id="node9" class="node">
<title>Node9</title>
<g id="a_node9"><a xlink:href="junction_8hpp.html" target="_top" xlink:title="MODEL::Junction source file.">
<polygon fill="none" stroke="black" points="325.5,-112.5 325.5,-131.5 423.5,-131.5 423.5,-112.5 325.5,-112.5"/>
<text text-anchor="middle" x="374.5" y="-119.5" font-family="Helvetica,sans-Serif" font-size="10.00">model/junction.hpp</text>
</a>
</g>
</g>
<!-- Node5&#45;&gt;Node9 -->
<g id="edge18" class="edge">
<title>Node5&#45;&gt;Node9</title>
<path fill="none" stroke="midnightblue" d="M499.09,-219.24C484.61,-210.76 466.09,-199.37 450.5,-188 425.25,-169.59 397.93,-144.93 383.94,-131.92"/>
<polygon fill="midnightblue" stroke="midnightblue" points="497.54,-222.39 507.95,-224.36 501.05,-216.32 497.54,-222.39"/>
</g>
<!-- Node6&#45;&gt;Node1 -->
<g id="edge15" class="edge">
<title>Node6&#45;&gt;Node1</title>
<path fill="none" stroke="midnightblue" d="M478.76,-193.46C468.11,-201.19 456.42,-211.66 449.5,-224 428.38,-261.65 428.81,-315.67 429.89,-336.43"/>
<polygon fill="midnightblue" stroke="midnightblue" points="481.02,-196.15 487.32,-187.63 477.08,-190.37 481.02,-196.15"/>
</g>
<!-- Node6&#45;&gt;Node7 -->
<g id="edge7" class="edge">
<title>Node6&#45;&gt;Node7</title>
<path fill="none" stroke="midnightblue" d="M533.52,-164.77C559.26,-154.63 595.19,-140.47 617.89,-131.52"/>
<polygon fill="midnightblue" stroke="midnightblue" points="532.23,-161.52 524.21,-168.44 534.79,-168.03 532.23,-161.52"/>
</g>
<!-- Node6&#45;&gt;Node8 -->
<g id="edge9" class="edge">
<title>Node6&#45;&gt;Node8</title>
<path fill="none" stroke="midnightblue" d="M502.5,-157.8C502.5,-148.91 502.5,-138.78 502.5,-131.75"/>
<polygon fill="midnightblue" stroke="midnightblue" points="499,-158.08 502.5,-168.08 506,-158.08 499,-158.08"/>
</g>
<!-- Node6&#45;&gt;Node9 -->
<g id="edge11" class="edge">
<title>Node6&#45;&gt;Node9</title>
<path fill="none" stroke="midnightblue" d="M472.88,-164.5C448.88,-154.38 415.72,-140.39 394.69,-131.52"/>
<polygon fill="midnightblue" stroke="midnightblue" points="471.64,-167.78 482.22,-168.44 474.36,-161.33 471.64,-167.78"/>
</g>
<!-- Node7&#45;&gt;Node2 -->
<g id="edge8" class="edge">
<title>Node7&#45;&gt;Node2</title>
<path fill="none" stroke="midnightblue" d="M638.63,-141.65C636.31,-168.55 627.9,-217.88 597.5,-244 568.42,-268.99 461.48,-281.02 399.58,-286.01"/>
<polygon fill="midnightblue" stroke="midnightblue" points="642.12,-141.84 639.3,-131.63 635.14,-141.37 642.12,-141.84"/>
</g>
<!-- Node8&#45;&gt;Node2 -->
<g id="edge10" class="edge">
<title>Node8&#45;&gt;Node2</title>
<path fill="none" stroke="midnightblue" d="M483.31,-138.14C473.15,-146.52 460.7,-157.36 450.5,-168 413.02,-207.11 374.92,-259.84 360.51,-280.34"/>
<polygon fill="midnightblue" stroke="midnightblue" points="485.64,-140.76 491.21,-131.75 481.24,-135.32 485.64,-140.76"/>
</g>
<!-- Node9&#45;&gt;Node2 -->
<g id="edge14" class="edge">
<title>Node9&#45;&gt;Node2</title>
<path fill="none" stroke="midnightblue" d="M372.26,-141.58C367.97,-177.21 358.72,-253.95 355.58,-280.08"/>
<polygon fill="midnightblue" stroke="midnightblue" points="375.75,-141.92 373.47,-131.57 368.8,-141.08 375.75,-141.92"/>
</g>
<!-- Node9&#45;&gt;Node10 -->
<g id="edge12" class="edge">
<title>Node9&#45;&gt;Node10</title>
<path fill="none" stroke="midnightblue" d="M356.51,-105.82C345.04,-96.15 330.59,-83.95 320.97,-75.83"/>
<polygon fill="midnightblue" stroke="midnightblue" points="354.32,-108.55 364.22,-112.32 358.83,-103.2 354.32,-108.55"/>
</g>
<!-- Node10&#45;&gt;Node4 -->
<g id="edge13" class="edge">
<title>Node10&#45;&gt;Node4</title>
<path fill="none" stroke="midnightblue" d="M285.93,-51.18C268.26,-41.24 244.99,-28.15 229.89,-19.65"/>
<polygon fill="midnightblue" stroke="midnightblue" points="284.64,-54.47 295.08,-56.32 288.08,-48.37 284.64,-54.47"/>
</g>
<!-- Node11&#45;&gt;Node4 -->
<g id="edge23" class="edge">
<title>Node11&#45;&gt;Node4</title>
<path fill="none" stroke="midnightblue" d="M242.89,-214.3C236.51,-168.64 220.34,-52.85 215.74,-19.88"/>
<polygon fill="midnightblue" stroke="midnightblue" points="239.44,-214.88 244.28,-224.3 246.37,-213.91 239.44,-214.88"/>
</g>
<!-- Node12&#45;&gt;Node4 -->
<g id="edge25" class="edge">
<title>Node12&#45;&gt;Node4</title>
<path fill="none" stroke="midnightblue" d="M80.54,-53.3C112.76,-43.13 158.69,-28.62 187.53,-19.52"/>
<polygon fill="midnightblue" stroke="midnightblue" points="79.08,-50.09 70.6,-56.44 81.19,-56.77 79.08,-50.09"/>
</g>
</g>
</svg>
