<?xml version="1.0" encoding="UTF-8" standalone="no"?>
<!DOCTYPE svg PUBLIC "-//W3C//DTD SVG 1.1//EN"
 "http://www.w3.org/Graphics/SVG/1.1/DTD/svg11.dtd">
<!-- Generated by graphviz version 3.0.0 (20220413.0242)
 -->
<!-- Title: model/rcrblockwithdistalpressure.hpp Pages: 1 -->
<svg width="1177pt" height="420pt"
 viewBox="0.00 0.00 1177.25 420.00" xmlns="http://www.w3.org/2000/svg" xmlns:xlink="http://www.w3.org/1999/xlink">
<g id="graph0" class="graph" transform="scale(1 1) rotate(0) translate(4 416)">
<title>model/rcrblockwithdistalpressure.hpp</title>
<!-- Node1 -->
<g id="node1" class="node">
<title>Node1</title>
<g id="a_node1"><a xlink:title="MODEL::RCRBlockWithDistalPressure source file.">
<polygon fill="#bfbfbf" stroke="black" points="407.5,-392.5 407.5,-411.5 584.5,-411.5 584.5,-392.5 407.5,-392.5"/>
<text text-anchor="middle" x="496" y="-399.5" font-family="Helvetica,sans-Serif" font-size="10.00">model/rcrblockwithdistalpressure.hpp</text>
</a>
</g>
</g>
<!-- Node2 -->
<g id="node2" class="node">
<title>Node2</title>
<g id="a_node2"><a xlink:href="densesystem_8hpp.html" target="_top" xlink:title="ALGEBRA::DenseSystem source file.">
<polygon fill="none" stroke="black" points="588,-112.5 588,-131.5 722,-131.5 722,-112.5 588,-112.5"/>
<text text-anchor="middle" x="655" y="-119.5" font-family="Helvetica,sans-Serif" font-size="10.00">../algebra/densesystem.hpp</text>
</a>
</g>
</g>
<!-- Node1&#45;&gt;Node2 -->
<g id="edge1" class="edge">
<title>Node1&#45;&gt;Node2</title>
<path fill="none" stroke="midnightblue" d="M584.59,-393.81C749.93,-378.33 1095.09,-335.56 1165,-244 1170.39,-236.93 1170.81,-230.73 1165,-224 1128.87,-182.2 972.3,-202.55 919,-188 896.31,-181.81 892.49,-174.88 870,-168 820.2,-152.76 762.36,-140.98 719.22,-133.3"/>
<polygon fill="midnightblue" stroke="midnightblue" points="719.59,-129.81 709.14,-131.53 718.38,-136.7 719.59,-129.81"/>
</g>
<!-- Node4 -->
<g id="node4" class="node">
<title>Node4</title>
<g id="a_node4"><a xlink:href="sparsesystem_8hpp.html" target="_top" xlink:title="ALGEBRA::SparseSystem source file.">
<polygon fill="none" stroke="black" points="476.5,-336.5 476.5,-355.5 613.5,-355.5 613.5,-336.5 476.5,-336.5"/>
<text text-anchor="middle" x="545" y="-343.5" font-family="Helvetica,sans-Serif" font-size="10.00">../algebra/sparsesystem.hpp</text>
</a>
</g>
</g>
<!-- Node1&#45;&gt;Node4 -->
<g id="edge3" class="edge">
<title>Node1&#45;&gt;Node4</title>
<path fill="none" stroke="midnightblue" d="M504.09,-392.08C511.16,-384.3 521.59,-372.8 530.15,-363.37"/>
<polygon fill="midnightblue" stroke="midnightblue" points="532.93,-365.51 537.06,-355.75 527.75,-360.8 532.93,-365.51"/>
</g>
<!-- Node13 -->
<g id="node13" class="node">
<title>Node13</title>
<g id="a_node13"><a xlink:href="block_8hpp.html" target="_top" xlink:title="MODEL::Block source file.">
<polygon fill="none" stroke="black" points="419,-168.5 419,-187.5 477,-187.5 477,-168.5 419,-168.5"/>
<text text-anchor="middle" x="448" y="-175.5" font-family="Helvetica,sans-Serif" font-size="10.00">block.hpp</text>
</a>
</g>
</g>
<!-- Node1&#45;&gt;Node13 -->
<g id="edge59" class="edge">
<title>Node1&#45;&gt;Node13</title>
<path fill="none" stroke="midnightblue" d="M435.37,-392.46C358.77,-377.81 232.09,-339.59 192,-244 188.56,-235.8 186.28,-230.81 192,-224 219.21,-191.59 343.96,-182.52 408.73,-179.98"/>
<polygon fill="midnightblue" stroke="midnightblue" points="409.09,-183.47 418.96,-179.61 408.84,-176.47 409.09,-183.47"/>
</g>
<!-- Node3 -->
<g id="node3" class="node">
<title>Node3</title>
<g id="a_node3"><a xlink:title=" ">
<polygon fill="none" stroke="#bfbfbf" points="619.5,-56.5 619.5,-75.5 690.5,-75.5 690.5,-56.5 619.5,-56.5"/>
<text text-anchor="middle" x="655" y="-63.5" font-family="Helvetica,sans-Serif" font-size="10.00">Eigen/Dense</text>
</a>
</g>
</g>
<!-- Node2&#45;&gt;Node3 -->
<g id="edge2" class="edge">
<title>Node2&#45;&gt;Node3</title>
<path fill="none" stroke="midnightblue" d="M655,-112.08C655,-105.01 655,-94.86 655,-85.99"/>
<polygon fill="midnightblue" stroke="midnightblue" points="658.5,-85.75 655,-75.75 651.5,-85.75 658.5,-85.75"/>
</g>
<!-- Node5 -->
<g id="node5" class="node">
<title>Node5</title>
<g id="a_node5"><a xlink:title=" ">
<polygon fill="none" stroke="#bfbfbf" points="611,-280.5 611,-299.5 685,-299.5 685,-280.5 611,-280.5"/>
<text text-anchor="middle" x="648" y="-287.5" font-family="Helvetica,sans-Serif" font-size="10.00">Eigen/Sparse</text>
</a>
</g>
</g>
<!-- Node4&#45;&gt;Node5 -->
<g id="edge4" class="edge">
<title>Node4&#45;&gt;Node5</title>
<path fill="none" stroke="midnightblue" d="M561.55,-336.32C577.99,-327.7 603.43,-314.36 622.47,-304.39"/>
<polygon fill="midnightblue" stroke="midnightblue" points="624.26,-307.4 631.49,-299.65 621.01,-301.2 624.26,-307.4"/>
</g>
<!-- Node6 -->
<g id="node6" class="node">
<title>Node6</title>
<g id="a_node6"><a xlink:title=" ">
<polygon fill="none" stroke="#bfbfbf" points="703,-280.5 703,-299.5 791,-299.5 791,-280.5 703,-280.5"/>
<text text-anchor="middle" x="747" y="-287.5" font-family="Helvetica,sans-Serif" font-size="10.00">Eigen/SparseLU</text>
</a>
</g>
</g>
<!-- Node4&#45;&gt;Node6 -->
<g id="edge5" class="edge">
<title>Node4&#45;&gt;Node6</title>
<path fill="none" stroke="midnightblue" d="M577.01,-336.44C611.73,-327.16 667.29,-312.31 705.38,-302.13"/>
<polygon fill="midnightblue" stroke="midnightblue" points="706.39,-305.48 715.14,-299.52 704.58,-298.72 706.39,-305.48"/>
</g>
<!-- Node7 -->
<g id="node7" class="node">
<title>Node7</title>
<g id="a_node7"><a xlink:title=" ">
<polygon fill="none" stroke="#bfbfbf" points="809,-280.5 809,-299.5 863,-299.5 863,-280.5 809,-280.5"/>
<text text-anchor="middle" x="836" y="-287.5" font-family="Helvetica,sans-Serif" font-size="10.00">iostream</text>
</a>
</g>
</g>
<!-- Node4&#45;&gt;Node7 -->
<g id="edge6" class="edge">
<title>Node4&#45;&gt;Node7</title>
<path fill="none" stroke="midnightblue" d="M599.93,-336.45C649.5,-328.48 724.61,-315.76 798.92,-300.11"/>
<polygon fill="midnightblue" stroke="midnightblue" points="799.87,-303.49 808.92,-297.99 798.41,-296.64 799.87,-303.49"/>
</g>
<!-- Node8 -->
<g id="node8" class="node">
<title>Node8</title>
<g id="a_node8"><a xlink:href="model_8hpp.html" target="_top" xlink:title="MODEL::Model source file.">
<polygon fill="none" stroke="black" points="343,-280.5 343,-299.5 441,-299.5 441,-280.5 343,-280.5"/>
<text text-anchor="middle" x="392" y="-287.5" font-family="Helvetica,sans-Serif" font-size="10.00">../model/model.hpp</text>
</a>
</g>
</g>
<!-- Node4&#45;&gt;Node8 -->
<g id="edge7" class="edge">
<title>Node4&#45;&gt;Node8</title>
<path fill="none" stroke="midnightblue" d="M515.67,-336.44C488.18,-327.44 447.59,-313.19 420.41,-303.05"/>
<polygon fill="midnightblue" stroke="midnightblue" points="421.64,-299.77 411.05,-299.52 419.17,-306.32 421.64,-299.77"/>
</g>
<!-- Node8&#45;&gt;Node1 -->
<g id="edge48" class="edge">
<title>Node8&#45;&gt;Node1</title>
<path fill="none" stroke="midnightblue" d="M400.12,-299.59C417.48,-317.95 458.42,-361.25 480.77,-384.9"/>
<polygon fill="midnightblue" stroke="midnightblue" points="478.43,-387.51 487.84,-392.37 483.51,-382.7 478.43,-387.51"/>
</g>
<!-- Node8&#45;&gt;Node2 -->
<g id="edge11" class="edge">
<title>Node8&#45;&gt;Node2</title>
<path fill="none" stroke="midnightblue" d="M379.22,-280.31C363.34,-268.35 339.42,-245.8 349,-224 363.81,-190.31 377.06,-184.41 410,-168 462.33,-141.93 527.71,-130.85 577.77,-126.19"/>
<polygon fill="midnightblue" stroke="midnightblue" points="578.23,-129.66 587.89,-125.32 577.62,-122.69 578.23,-129.66"/>
</g>
<!-- Node8&#45;&gt;Node4 -->
<g id="edge12" class="edge">
<title>Node8&#45;&gt;Node4</title>
<path fill="none" stroke="midnightblue" d="M421.21,-299.52C448.66,-308.51 489.25,-322.75 516.47,-332.91"/>
<polygon fill="midnightblue" stroke="midnightblue" points="515.25,-336.19 525.85,-336.44 517.73,-329.64 515.25,-336.19"/>
</g>
<!-- Node9 -->
<g id="node9" class="node">
<title>Node9</title>
<g id="a_node9"><a xlink:title=" ">
<polygon fill="none" stroke="#bfbfbf" points="240.5,-112.5 240.5,-131.5 275.5,-131.5 275.5,-112.5 240.5,-112.5"/>
<text text-anchor="middle" x="258" y="-119.5" font-family="Helvetica,sans-Serif" font-size="10.00">map</text>
</a>
</g>
</g>
<!-- Node8&#45;&gt;Node9 -->
<g id="edge8" class="edge">
<title>Node8&#45;&gt;Node9</title>
<path fill="none" stroke="midnightblue" d="M342.87,-284.41C291.72,-278.5 216.65,-266.23 199,-244 172.39,-210.47 214.07,-162.97 239.93,-138.66"/>
<polygon fill="midnightblue" stroke="midnightblue" points="242.62,-140.95 247.67,-131.63 237.91,-135.77 242.62,-140.95"/>
</g>
<!-- Node10 -->
<g id="node10" class="node">
<title>Node10</title>
<g id="a_node10"><a xlink:title=" ">
<polygon fill="none" stroke="#bfbfbf" points="208.5,-224.5 208.5,-243.5 237.5,-243.5 237.5,-224.5 208.5,-224.5"/>
<text text-anchor="middle" x="223" y="-231.5" font-family="Helvetica,sans-Serif" font-size="10.00">list</text>
</a>
</g>
</g>
<!-- Node8&#45;&gt;Node10 -->
<g id="edge9" class="edge">
<title>Node8&#45;&gt;Node10</title>
<path fill="none" stroke="midnightblue" d="M362.68,-280.44C335.23,-272.31 292.87,-259.47 247.42,-244"/>
<polygon fill="midnightblue" stroke="midnightblue" points="248.27,-240.59 237.67,-240.66 246,-247.21 248.27,-240.59"/>
</g>
<!-- Node11 -->
<g id="node11" class="node">
<title>Node11</title>
<g id="a_node11"><a xlink:title=" ">
<polygon fill="none" stroke="#bfbfbf" points="256,-224.5 256,-243.5 302,-243.5 302,-224.5 256,-224.5"/>
<text text-anchor="middle" x="279" y="-231.5" font-family="Helvetica,sans-Serif" font-size="10.00">variant</text>
</a>
</g>
</g>
<!-- Node8&#45;&gt;Node11 -->
<g id="edge10" class="edge">
<title>Node8&#45;&gt;Node11</title>
<path fill="none" stroke="midnightblue" d="M374.09,-280.44C355.75,-271.68 326.99,-257.94 305.91,-247.86"/>
<polygon fill="midnightblue" stroke="midnightblue" points="307.35,-244.67 296.82,-243.52 304.33,-250.99 307.35,-244.67"/>
</g>
<!-- Node12 -->
<g id="node12" class="node">
<title>Node12</title>
<g id="a_node12"><a xlink:href="junction_8hpp.html" target="_top" xlink:title="MODEL::Junction source file.">
<polygon fill="none" stroke="black" points="358,-224.5 358,-243.5 426,-243.5 426,-224.5 358,-224.5"/>
<text text-anchor="middle" x="392" y="-231.5" font-family="Helvetica,sans-Serif" font-size="10.00">junction.hpp</text>
</a>
</g>
</g>
<!-- Node8&#45;&gt;Node12 -->
<g id="edge13" class="edge">
<title>Node8&#45;&gt;Node12</title>
<path fill="none" stroke="midnightblue" d="M392,-280.08C392,-273.01 392,-262.86 392,-253.99"/>
<polygon fill="midnightblue" stroke="midnightblue" points="395.5,-253.75 392,-243.75 388.5,-253.75 395.5,-253.75"/>
</g>
<!-- Node15 -->
<g id="node15" class="node">
<title>Node15</title>
<g id="a_node15"><a xlink:href="node_8hpp.html" target="_top" xlink:title="MODEL::Node source file.">
<polygon fill="none" stroke="black" points="0,-112.5 0,-131.5 56,-131.5 56,-112.5 0,-112.5"/>
<text text-anchor="middle" x="28" y="-119.5" font-family="Helvetica,sans-Serif" font-size="10.00">node.hpp</text>
</a>
</g>
</g>
<!-- Node8&#45;&gt;Node15 -->
<g id="edge33" class="edge">
<title>Node8&#45;&gt;Node15</title>
<path fill="none" stroke="midnightblue" d="M342.76,-289.28C258.8,-288.67 93.04,-282.49 52,-244 23.84,-217.59 23.44,-168.39 25.66,-141.58"/>
<polygon fill="midnightblue" stroke="midnightblue" points="29.15,-141.9 26.71,-131.59 22.19,-141.17 29.15,-141.9"/>
</g>
<!-- Node17 -->
<g id="node17" class="node">
<title>Node17</title>
<g id="a_node17"><a xlink:href="dofhandler_8hpp.html" target="_top" xlink:title="MODEL::DOFHandler source file.">
<polygon fill="none" stroke="black" points="280,-56.5 280,-75.5 360,-75.5 360,-56.5 280,-56.5"/>
<text text-anchor="middle" x="320" y="-63.5" font-family="Helvetica,sans-Serif" font-size="10.00">dofhandler.hpp</text>
</a>
</g>
</g>
<!-- Node8&#45;&gt;Node17 -->
<g id="edge32" class="edge">
<title>Node8&#45;&gt;Node17</title>
<path fill="none" stroke="midnightblue" d="M342.78,-285.16C288.47,-279.78 206.18,-267.85 187,-244 148.24,-195.81 185.34,-153.71 231,-112 246.53,-97.81 267.37,-86.96 284.98,-79.46"/>
<polygon fill="midnightblue" stroke="midnightblue" points="286.42,-82.65 294.37,-75.65 283.79,-76.17 286.42,-82.65"/>
</g>
<!-- Node18 -->
<g id="node18" class="node">
<title>Node18</title>
<g id="a_node18"><a xlink:href="bloodvessel_8hpp.html" target="_top" xlink:title="MODEL::BloodVessel source file.">
<polygon fill="none" stroke="black" points="1070,-224.5 1070,-243.5 1156,-243.5 1156,-224.5 1070,-224.5"/>
<text text-anchor="middle" x="1113" y="-231.5" font-family="Helvetica,sans-Serif" font-size="10.00">bloodvessel.hpp</text>
</a>
</g>
</g>
<!-- Node8&#45;&gt;Node18 -->
<g id="edge27" class="edge">
<title>Node8&#45;&gt;Node18</title>
<path fill="none" stroke="midnightblue" d="M441.06,-286.37C570.9,-279.29 922.33,-259.45 1059.63,-244.01"/>
<polygon fill="midnightblue" stroke="midnightblue" points="1060.39,-247.44 1069.92,-242.81 1059.58,-240.49 1060.39,-247.44"/>
</g>
<!-- Node20 -->
<g id="node20" class="node">
<title>Node20</title>
<g id="a_node20"><a xlink:href="flowreference_8hpp.html" target="_top" xlink:title="MODEL::FlowReference source file.">
<polygon fill="none" stroke="black" points="960,-224.5 960,-243.5 1052,-243.5 1052,-224.5 960,-224.5"/>
<text text-anchor="middle" x="1006" y="-231.5" font-family="Helvetica,sans-Serif" font-size="10.00">flowreference.hpp</text>
</a>
</g>
</g>
<!-- Node8&#45;&gt;Node20 -->
<g id="edge34" class="edge">
<title>Node8&#45;&gt;Node20</title>
<path fill="none" stroke="midnightblue" d="M441.11,-286.4C536.92,-281.04 755.62,-267.36 949.72,-244.06"/>
<polygon fill="midnightblue" stroke="midnightblue" points="950.32,-247.51 959.83,-242.84 949.48,-240.57 950.32,-247.51"/>
</g>
<!-- Node23 -->
<g id="node23" class="node">
<title>Node23</title>
<g id="a_node23"><a xlink:href="pressurereference_8hpp.html" target="_top" xlink:title="MODEL::PressureReference source file.">
<polygon fill="none" stroke="black" points="444.5,-224.5 444.5,-243.5 557.5,-243.5 557.5,-224.5 444.5,-224.5"/>
<text text-anchor="middle" x="501" y="-231.5" font-family="Helvetica,sans-Serif" font-size="10.00">pressurereference.hpp</text>
</a>
</g>
</g>
<!-- Node8&#45;&gt;Node23 -->
<g id="edge43" class="edge">
<title>Node8&#45;&gt;Node23</title>
<path fill="none" stroke="midnightblue" d="M409.51,-280.32C427.07,-271.62 454.33,-258.12 474.53,-248.11"/>
<polygon fill="midnightblue" stroke="midnightblue" points="476.12,-251.23 483.53,-243.65 473.02,-244.96 476.12,-251.23"/>
</g>
<!-- Node24 -->
<g id="node24" class="node">
<title>Node24</title>
<g id="a_node24"><a xlink:href="resistancewithdistalpressure_8hpp.html" target="_top" xlink:title="MODEL::ResistanceWithDistalPressure source file.">
<polygon fill="none" stroke="black" points="576,-224.5 576,-243.5 734,-243.5 734,-224.5 576,-224.5"/>
<text text-anchor="middle" x="655" y="-231.5" font-family="Helvetica,sans-Serif" font-size="10.00">resistancewithdistalpressure.hpp</text>
</a>
</g>
</g>
<!-- Node8&#45;&gt;Node24 -->
<g id="edge49" class="edge">
<title>Node8&#45;&gt;Node24</title>
<path fill="none" stroke="midnightblue" d="M433.67,-280.44C479.75,-270.98 554,-255.74 603.63,-245.55"/>
<polygon fill="midnightblue" stroke="midnightblue" points="604.43,-248.96 613.52,-243.52 603.02,-242.1 604.43,-248.96"/>
</g>
<!-- Node25 -->
<g id="node25" class="node">
<title>Node25</title>
<g id="a_node25"><a xlink:href="openloopcoronarywithdistalpressure_8hpp.html" target="_top" xlink:title="MODEL::OpenLoopCoronaryWithDistalPressure source file.">
<polygon fill="none" stroke="black" points="752.5,-224.5 752.5,-243.5 941.5,-243.5 941.5,-224.5 752.5,-224.5"/>
<text text-anchor="middle" x="847" y="-231.5" font-family="Helvetica,sans-Serif" font-size="10.00">openloopcoronarywithdistalpressure.hpp</text>
</a>
</g>
</g>
<!-- Node8&#45;&gt;Node25 -->
<g id="edge54" class="edge">
<title>Node8&#45;&gt;Node25</title>
<path fill="none" stroke="midnightblue" d="M441.13,-283.17C518.84,-273.95 670.96,-255.89 765.29,-244.7"/>
<polygon fill="midnightblue" stroke="midnightblue" points="765.85,-248.16 775.37,-243.5 765.03,-241.2 765.85,-248.16"/>
</g>
<!-- Node12&#45;&gt;Node2 -->
<g id="edge14" class="edge">
<title>Node12&#45;&gt;Node2</title>
<path fill="none" stroke="midnightblue" d="M412.64,-224.37C458.92,-205.01 571.16,-158.06 625.1,-135.51"/>
<polygon fill="midnightblue" stroke="midnightblue" points="626.58,-138.68 634.46,-131.59 623.88,-132.22 626.58,-138.68"/>
</g>
<!-- Node12&#45;&gt;Node4 -->
<g id="edge15" class="edge">
<title>Node12&#45;&gt;Node4</title>
<path fill="none" stroke="midnightblue" d="M403.95,-243.59C430.04,-262.35 492.36,-307.15 524.72,-330.42"/>
<polygon fill="midnightblue" stroke="midnightblue" points="522.83,-333.37 532.99,-336.37 526.92,-327.69 522.83,-333.37"/>
</g>
<!-- Node12&#45;&gt;Node13 -->
<g id="edge16" class="edge">
<title>Node12&#45;&gt;Node13</title>
<path fill="none" stroke="midnightblue" d="M401,-224.32C409.19,-216.42 421.51,-204.55 431.47,-194.94"/>
<polygon fill="midnightblue" stroke="midnightblue" points="434.07,-197.29 438.84,-187.83 429.21,-192.26 434.07,-197.29"/>
</g>
<!-- Node13&#45;&gt;Node2 -->
<g id="edge25" class="edge">
<title>Node13&#45;&gt;Node2</title>
<path fill="none" stroke="midnightblue" d="M477.22,-169.38C512.46,-160.18 571.98,-144.66 612.35,-134.13"/>
<polygon fill="midnightblue" stroke="midnightblue" points="613.38,-137.47 622.17,-131.56 611.61,-130.7 613.38,-137.47"/>
</g>
<!-- Node13&#45;&gt;Node4 -->
<g id="edge26" class="edge">
<title>Node13&#45;&gt;Node4</title>
<path fill="none" stroke="midnightblue" d="M418.84,-179.78C359.24,-182.05 226.74,-190.79 199,-224 193.3,-230.82 194.06,-236.61 199,-244 229.52,-289.71 381.07,-320.24 473.18,-334.91"/>
<polygon fill="midnightblue" stroke="midnightblue" points="472.86,-338.4 483.28,-336.49 473.94,-331.48 472.86,-338.4"/>
</g>
<!-- Node13&#45;&gt;Node9 -->
<g id="edge18" class="edge">
<title>Node13&#45;&gt;Node9</title>
<path fill="none" stroke="midnightblue" d="M418.73,-168.68C382.35,-158.34 320.74,-140.83 285.3,-130.76"/>
<polygon fill="midnightblue" stroke="midnightblue" points="286.19,-127.37 275.62,-128.01 284.28,-134.11 286.19,-127.37"/>
</g>
<!-- Node14 -->
<g id="node14" class="node">
<title>Node14</title>
<g id="a_node14"><a xlink:title=" ">
<polygon fill="none" stroke="#bfbfbf" points="426,-0.5 426,-19.5 470,-19.5 470,-0.5 426,-0.5"/>
<text text-anchor="middle" x="448" y="-7.5" font-family="Helvetica,sans-Serif" font-size="10.00">vector</text>
</a>
</g>
</g>
<!-- Node13&#45;&gt;Node14 -->
<g id="edge17" class="edge">
<title>Node13&#45;&gt;Node14</title>
<path fill="none" stroke="midnightblue" d="M448,-168.08C448,-141.95 448,-65.21 448,-29.58"/>
<polygon fill="midnightblue" stroke="midnightblue" points="451.5,-29.57 448,-19.57 444.5,-29.57 451.5,-29.57"/>
</g>
<!-- Node13&#45;&gt;Node15 -->
<g id="edge19" class="edge">
<title>Node13&#45;&gt;Node15</title>
<path fill="none" stroke="midnightblue" d="M418.8,-173.25C344.68,-163.72 149.23,-138.59 66.2,-127.91"/>
<polygon fill="midnightblue" stroke="midnightblue" points="66.54,-124.43 56.18,-126.62 65.65,-131.37 66.54,-124.43"/>
</g>
<!-- Node13&#45;&gt;Node17 -->
<g id="edge24" class="edge">
<title>Node13&#45;&gt;Node17</title>
<path fill="none" stroke="midnightblue" d="M437.96,-168.37C416.27,-149.73 364.84,-105.53 337.61,-82.13"/>
<polygon fill="midnightblue" stroke="midnightblue" points="339.86,-79.45 330,-75.59 335.3,-84.76 339.86,-79.45"/>
</g>
<!-- Node16 -->
<g id="node16" class="node">
<title>Node16</title>
<g id="a_node16"><a xlink:title=" ">
<polygon fill="none" stroke="#bfbfbf" points="205.5,-0.5 205.5,-19.5 246.5,-19.5 246.5,-0.5 205.5,-0.5"/>
<text text-anchor="middle" x="226" y="-7.5" font-family="Helvetica,sans-Serif" font-size="10.00">string</text>
</a>
</g>
</g>
<!-- Node15&#45;&gt;Node16 -->
<g id="edge20" class="edge">
<title>Node15&#45;&gt;Node16</title>
<path fill="none" stroke="midnightblue" d="M43.54,-112.37C77.88,-93.29 160.44,-47.42 201.69,-24.51"/>
<polygon fill="midnightblue" stroke="midnightblue" points="203.49,-27.51 210.54,-19.59 200.09,-21.39 203.49,-27.51"/>
</g>
<!-- Node15&#45;&gt;Node17 -->
<g id="edge21" class="edge">
<title>Node15&#45;&gt;Node17</title>
<path fill="none" stroke="midnightblue" d="M56.44,-114.77C60.97,-113.82 65.61,-112.87 70,-112 139.02,-98.4 219.09,-84.28 269.64,-75.56"/>
<polygon fill="midnightblue" stroke="midnightblue" points="270.39,-78.98 279.65,-73.84 269.21,-72.09 270.39,-78.98"/>
</g>
<!-- Node17&#45;&gt;Node14 -->
<g id="edge22" class="edge">
<title>Node17&#45;&gt;Node14</title>
<path fill="none" stroke="midnightblue" d="M340.28,-56.44C361.35,-47.56 394.52,-33.56 418.49,-23.45"/>
<polygon fill="midnightblue" stroke="midnightblue" points="419.96,-26.63 427.81,-19.52 417.24,-20.18 419.96,-26.63"/>
</g>
<!-- Node17&#45;&gt;Node16 -->
<g id="edge23" class="edge">
<title>Node17&#45;&gt;Node16</title>
<path fill="none" stroke="midnightblue" d="M304.9,-56.32C290.1,-47.82 267.31,-34.73 250.02,-24.8"/>
<polygon fill="midnightblue" stroke="midnightblue" points="251.48,-21.6 241.07,-19.65 247.99,-27.67 251.48,-21.6"/>
</g>
<!-- Node18&#45;&gt;Node2 -->
<g id="edge30" class="edge">
<title>Node18&#45;&gt;Node2</title>
<path fill="none" stroke="midnightblue" d="M1069.88,-225.15C1014.1,-214.88 920.06,-197.11 886,-188 859.25,-180.85 853.52,-175.95 827,-168 784.48,-155.25 735.46,-142.62 700.65,-134.01"/>
<polygon fill="midnightblue" stroke="midnightblue" points="701.33,-130.57 690.78,-131.58 699.66,-137.37 701.33,-130.57"/>
</g>
<!-- Node18&#45;&gt;Node4 -->
<g id="edge31" class="edge">
<title>Node18&#45;&gt;Node4</title>
<path fill="none" stroke="midnightblue" d="M1090.85,-243.61C1053.93,-257.61 977.23,-285.23 910,-300 812.62,-321.4 698.23,-333.43 623.82,-339.57"/>
<polygon fill="midnightblue" stroke="midnightblue" points="623.27,-336.1 613.59,-340.39 623.84,-343.08 623.27,-336.1"/>
</g>
<!-- Node18&#45;&gt;Node13 -->
<g id="edge29" class="edge">
<title>Node18&#45;&gt;Node13</title>
<path fill="none" stroke="midnightblue" d="M1069.92,-225.21C1066.9,-224.77 1063.91,-224.36 1061,-224 845.34,-197.49 584.94,-184.68 487.41,-180.55"/>
<polygon fill="midnightblue" stroke="midnightblue" points="487.27,-177.04 477.13,-180.12 486.98,-184.04 487.27,-177.04"/>
</g>
<!-- Node19 -->
<g id="node19" class="node">
<title>Node19</title>
<g id="a_node19"><a xlink:title=" ">
<polygon fill="none" stroke="#bfbfbf" points="1051,-112.5 1051,-131.5 1097,-131.5 1097,-112.5 1051,-112.5"/>
<text text-anchor="middle" x="1074" y="-119.5" font-family="Helvetica,sans-Serif" font-size="10.00">math.h</text>
</a>
</g>
</g>
<!-- Node18&#45;&gt;Node19 -->
<g id="edge28" class="edge">
<title>Node18&#45;&gt;Node19</title>
<path fill="none" stroke="midnightblue" d="M1109.94,-224.37C1103.62,-206.54 1089,-165.3 1080.48,-141.27"/>
<polygon fill="midnightblue" stroke="midnightblue" points="1083.69,-139.85 1077.05,-131.59 1077.09,-142.19 1083.69,-139.85"/>
</g>
<!-- Node20&#45;&gt;Node2 -->
<g id="edge35" class="edge">
<title>Node20&#45;&gt;Node2</title>
<path fill="none" stroke="midnightblue" d="M972.2,-224.43C938.91,-215.82 886.69,-201.88 842,-188 787.39,-171.04 724.79,-148.67 687.64,-135.09"/>
<polygon fill="midnightblue" stroke="midnightblue" points="688.46,-131.66 677.87,-131.5 686.05,-138.23 688.46,-131.66"/>
</g>
<!-- Node20&#45;&gt;Node4 -->
<g id="edge36" class="edge">
<title>Node20&#45;&gt;Node4</title>
<path fill="none" stroke="midnightblue" d="M992.13,-243.57C968.44,-257.76 918.27,-285.98 872,-300 789.45,-325.01 690.92,-336.17 623.75,-341.12"/>
<polygon fill="midnightblue" stroke="midnightblue" points="623.39,-337.63 613.66,-341.83 623.88,-344.62 623.39,-337.63"/>
</g>
<!-- Node20&#45;&gt;Node13 -->
<g id="edge37" class="edge">
<title>Node20&#45;&gt;Node13</title>
<path fill="none" stroke="midnightblue" d="M959.82,-225.19C956.84,-224.77 953.88,-224.36 951,-224 778.96,-202.26 572.5,-187.25 487.51,-181.55"/>
<polygon fill="midnightblue" stroke="midnightblue" points="487.49,-178.04 477.28,-180.87 487.03,-185.03 487.49,-178.04"/>
</g>
<!-- Node21 -->
<g id="node21" class="node">
<title>Node21</title>
<g id="a_node21"><a xlink:href="timedependentparameter_8hpp.html" target="_top" xlink:title="MODEL::TimeDependentParameter source file.">
<polygon fill="none" stroke="black" points="928,-168.5 928,-187.5 1070,-187.5 1070,-168.5 928,-168.5"/>
<text text-anchor="middle" x="999" y="-175.5" font-family="Helvetica,sans-Serif" font-size="10.00">timedependentparameter.hpp</text>
</a>
</g>
</g>
<!-- Node20&#45;&gt;Node21 -->
<g id="edge38" class="edge">
<title>Node20&#45;&gt;Node21</title>
<path fill="none" stroke="midnightblue" d="M1004.84,-224.08C1003.92,-216.93 1002.58,-206.64 1001.42,-197.69"/>
<polygon fill="midnightblue" stroke="midnightblue" points="1004.89,-197.22 1000.13,-187.75 997.95,-198.12 1004.89,-197.22"/>
</g>
<!-- Node21&#45;&gt;Node14 -->
<g id="edge40" class="edge">
<title>Node21&#45;&gt;Node14</title>
<path fill="none" stroke="midnightblue" d="M999.13,-168.39C998.85,-154.39 996.12,-126.78 980,-112 905.87,-44.05 584.12,-19.14 480.38,-12.78"/>
<polygon fill="midnightblue" stroke="midnightblue" points="480.39,-9.28 470.2,-12.18 479.97,-16.26 480.39,-9.28"/>
</g>
<!-- Node21&#45;&gt;Node17 -->
<g id="edge42" class="edge">
<title>Node21&#45;&gt;Node17</title>
<path fill="none" stroke="midnightblue" d="M969.12,-168.41C919.9,-154.57 818.48,-127.33 731,-112 601.93,-89.38 447.94,-76.14 370.21,-70.4"/>
<polygon fill="midnightblue" stroke="midnightblue" points="370.43,-66.91 360.21,-69.67 369.93,-73.89 370.43,-66.91"/>
</g>
<!-- Node21&#45;&gt;Node19 -->
<g id="edge39" class="edge">
<title>Node21&#45;&gt;Node19</title>
<path fill="none" stroke="midnightblue" d="M1011.05,-168.32C1022.46,-160.11 1039.83,-147.6 1053.43,-137.81"/>
<polygon fill="midnightblue" stroke="midnightblue" points="1055.66,-140.52 1061.73,-131.83 1051.57,-134.84 1055.66,-140.52"/>
</g>
<!-- Node22 -->
<g id="node22" class="node">
<title>Node22</title>
<g id="a_node22"><a xlink:title=" ">
<polygon fill="none" stroke="#bfbfbf" points="919.5,-112.5 919.5,-131.5 970.5,-131.5 970.5,-112.5 919.5,-112.5"/>
<text text-anchor="middle" x="945" y="-119.5" font-family="Helvetica,sans-Serif" font-size="10.00">numeric</text>
</a>
</g>
</g>
<!-- Node21&#45;&gt;Node22 -->
<g id="edge41" class="edge">
<title>Node21&#45;&gt;Node22</title>
<path fill="none" stroke="midnightblue" d="M990.08,-168.08C982.22,-160.22 970.57,-148.57 961.08,-139.08"/>
<polygon fill="midnightblue" stroke="midnightblue" points="963.3,-136.35 953.75,-131.75 958.35,-141.3 963.3,-136.35"/>
</g>
<!-- Node23&#45;&gt;Node2 -->
<g id="edge44" class="edge">
<title>Node23&#45;&gt;Node2</title>
<path fill="none" stroke="midnightblue" d="M513.08,-224.37C539.4,-205.57 602.12,-160.77 634.65,-137.53"/>
<polygon fill="midnightblue" stroke="midnightblue" points="636.87,-140.25 642.97,-131.59 632.8,-134.56 636.87,-140.25"/>
</g>
<!-- Node23&#45;&gt;Node4 -->
<g id="edge45" class="edge">
<title>Node23&#45;&gt;Node4</title>
<path fill="none" stroke="midnightblue" d="M504.44,-243.59C511.59,-261.47 528.2,-303 537.8,-327"/>
<polygon fill="midnightblue" stroke="midnightblue" points="534.58,-328.38 541.55,-336.37 541.08,-325.78 534.58,-328.38"/>
</g>
<!-- Node23&#45;&gt;Node13 -->
<g id="edge46" class="edge">
<title>Node23&#45;&gt;Node13</title>
<path fill="none" stroke="midnightblue" d="M492.25,-224.08C484.53,-216.22 473.1,-204.57 463.78,-195.08"/>
<polygon fill="midnightblue" stroke="midnightblue" points="466.09,-192.44 456.59,-187.75 461.1,-197.34 466.09,-192.44"/>
</g>
<!-- Node23&#45;&gt;Node21 -->
<g id="edge47" class="edge">
<title>Node23&#45;&gt;Node21</title>
<path fill="none" stroke="midnightblue" d="M557.51,-225.17C560.72,-224.77 563.9,-224.37 567,-224 689.07,-209.32 830.88,-195.09 917.77,-186.69"/>
<polygon fill="midnightblue" stroke="midnightblue" points="918.21,-190.16 927.83,-185.72 917.54,-183.19 918.21,-190.16"/>
</g>
<!-- Node24&#45;&gt;Node2 -->
<g id="edge50" class="edge">
<title>Node24&#45;&gt;Node2</title>
<path fill="none" stroke="midnightblue" d="M655,-224.37C655,-206.62 655,-165.67 655,-141.6"/>
<polygon fill="midnightblue" stroke="midnightblue" points="658.5,-141.59 655,-131.59 651.5,-141.59 658.5,-141.59"/>
</g>
<!-- Node24&#45;&gt;Node4 -->
<g id="edge51" class="edge">
<title>Node24&#45;&gt;Node4</title>
<path fill="none" stroke="midnightblue" d="M627.22,-243.58C608.49,-250.65 584.47,-262.41 569,-280 557.47,-293.12 551.3,-312.26 548.12,-326.38"/>
<polygon fill="midnightblue" stroke="midnightblue" points="544.64,-325.93 546.16,-336.41 551.51,-327.27 544.64,-325.93"/>
</g>
<!-- Node24&#45;&gt;Node13 -->
<g id="edge52" class="edge">
<title>Node24&#45;&gt;Node13</title>
<path fill="none" stroke="midnightblue" d="M622.2,-224.44C585.57,-214.89 526.32,-199.43 487.26,-189.24"/>
<polygon fill="midnightblue" stroke="midnightblue" points="487.86,-185.78 477.3,-186.64 486.09,-192.55 487.86,-185.78"/>
</g>
<!-- Node24&#45;&gt;Node21 -->
<g id="edge53" class="edge">
<title>Node24&#45;&gt;Node21</title>
<path fill="none" stroke="midnightblue" d="M709.51,-224.44C770.65,-214.85 869.74,-199.29 934.64,-189.1"/>
<polygon fill="midnightblue" stroke="midnightblue" points="935.41,-192.52 944.75,-187.52 934.33,-185.61 935.41,-192.52"/>
</g>
<!-- Node25&#45;&gt;Node2 -->
<g id="edge55" class="edge">
<title>Node25&#45;&gt;Node2</title>
<path fill="none" stroke="midnightblue" d="M831.93,-224.37C798.71,-205.33 718.91,-159.62 678.83,-136.65"/>
<polygon fill="midnightblue" stroke="midnightblue" points="680.41,-133.53 670,-131.59 676.93,-139.6 680.41,-133.53"/>
</g>
<!-- Node25&#45;&gt;Node4 -->
<g id="edge56" class="edge">
<title>Node25&#45;&gt;Node4</title>
<path fill="none" stroke="midnightblue" d="M770.28,-243.52C709.47,-251.29 630.21,-263.99 602,-280 581.89,-291.41 565.35,-312.62 555.36,-327.71"/>
<polygon fill="midnightblue" stroke="midnightblue" points="552.39,-325.85 550.01,-336.17 558.31,-329.59 552.39,-325.85"/>
</g>
<!-- Node25&#45;&gt;Node13 -->
<g id="edge57" class="edge">
<title>Node25&#45;&gt;Node13</title>
<path fill="none" stroke="midnightblue" d="M783.78,-224.44C700.38,-213.16 556.13,-193.63 487.06,-184.29"/>
<polygon fill="midnightblue" stroke="midnightblue" points="487.41,-180.8 477.04,-182.93 486.48,-187.74 487.41,-180.8"/>
</g>
<!-- Node25&#45;&gt;Node21 -->
<g id="edge58" class="edge">
<title>Node25&#45;&gt;Node21</title>
<path fill="none" stroke="midnightblue" d="M871.08,-224.44C896.54,-215.4 936.89,-201.06 965.46,-190.92"/>
<polygon fill="midnightblue" stroke="midnightblue" points="966.78,-194.16 975.03,-187.52 964.43,-187.57 966.78,-194.16"/>
</g>
</g>
</svg>
