<?xml version="1.0" encoding="UTF-8" standalone="no"?>
<!DOCTYPE svg PUBLIC "-//W3C//DTD SVG 1.1//EN"
 "http://www.w3.org/Graphics/SVG/1.1/DTD/svg11.dtd">
<!-- Generated by graphviz version 3.0.0 (20220413.0242)
 -->
<!-- Title: model/rcrblockwithdistalpressure.hpp Pages: 1 -->
<svg width="1112pt" height="252pt"
 viewBox="0.00 0.00 1111.50 252.00" xmlns="http://www.w3.org/2000/svg" xmlns:xlink="http://www.w3.org/1999/xlink">
<g id="graph0" class="graph" transform="scale(1 1) rotate(0) translate(4 248)">
<title>model/rcrblockwithdistalpressure.hpp</title>
<!-- Node1 -->
<g id="node1" class="node">
<title>Node1</title>
<g id="a_node1"><a xlink:title="MODEL::RCRBlockWithDistalPressure source file.">
<polygon fill="#bfbfbf" stroke="black" points="535,-224.5 535,-243.5 712,-243.5 712,-224.5 535,-224.5"/>
<text text-anchor="middle" x="623.5" y="-231.5" font-family="Helvetica,sans-Serif" font-size="10.00">model/rcrblockwithdistalpressure.hpp</text>
</a>
</g>
</g>
<!-- Node2 -->
<g id="node2" class="node">
<title>Node2</title>
<g id="a_node2"><a xlink:href="model_8hpp.html" target="_top" xlink:title="MODEL::Model source file.">
<polygon fill="none" stroke="black" points="450.5,-168.5 450.5,-187.5 540.5,-187.5 540.5,-168.5 450.5,-168.5"/>
<text text-anchor="middle" x="495.5" y="-175.5" font-family="Helvetica,sans-Serif" font-size="10.00">model/model.hpp</text>
</a>
</g>
</g>
<!-- Node1&#45;&gt;Node2 -->
<g id="edge1" class="edge">
<title>Node1&#45;&gt;Node2</title>
<path fill="none" stroke="midnightblue" d="M593.88,-220.5C569.88,-210.38 536.72,-196.39 515.69,-187.52"/>
<polygon fill="midnightblue" stroke="midnightblue" points="592.65,-223.78 603.22,-224.44 595.37,-217.33 592.65,-223.78"/>
</g>
<!-- Node3 -->
<g id="node3" class="node">
<title>Node3</title>
<g id="a_node3"><a xlink:href="integrator_8hpp.html" target="_top" xlink:title="ALGEBRA::Integrator source file.">
<polygon fill="none" stroke="black" points="134.5,-112.5 134.5,-131.5 244.5,-131.5 244.5,-112.5 134.5,-112.5"/>
<text text-anchor="middle" x="189.5" y="-119.5" font-family="Helvetica,sans-Serif" font-size="10.00">algebra/integrator.hpp</text>
</a>
</g>
</g>
<!-- Node2&#45;&gt;Node3 -->
<g id="edge2" class="edge">
<title>Node2&#45;&gt;Node3</title>
<path fill="none" stroke="midnightblue" d="M440.32,-167.26C382.6,-157.08 292.9,-141.25 237.87,-131.54"/>
<polygon fill="midnightblue" stroke="midnightblue" points="439.9,-170.74 450.35,-169.03 441.11,-163.85 439.9,-170.74"/>
</g>
<!-- Node4 -->
<g id="node4" class="node">
<title>Node4</title>
<g id="a_node4"><a xlink:href="main_8cpp.html" target="_top" xlink:title="Main routine of svZeroDSolver.">
<polygon fill="none" stroke="black" points="282.5,-56.5 282.5,-75.5 338.5,-75.5 338.5,-56.5 282.5,-56.5"/>
<text text-anchor="middle" x="310.5" y="-63.5" font-family="Helvetica,sans-Serif" font-size="10.00">main.cpp</text>
</a>
</g>
</g>
<!-- Node2&#45;&gt;Node4 -->
<g id="edge34" class="edge">
<title>Node2&#45;&gt;Node4</title>
<path fill="none" stroke="midnightblue" d="M440.22,-172.47C386.32,-166.78 309.86,-154.84 291.5,-132 277.95,-115.14 293.7,-88.93 303.62,-75.53"/>
<polygon fill="midnightblue" stroke="midnightblue" points="440.03,-175.97 450.34,-173.5 440.74,-169.01 440.03,-175.97"/>
</g>
<!-- Node5 -->
<g id="node5" class="node">
<title>Node5</title>
<g id="a_node5"><a xlink:href="sparsesystem_8hpp.html" target="_top" xlink:title="ALGEBRA::SparseSystem source file.">
<polygon fill="none" stroke="black" points="558.5,-112.5 558.5,-131.5 688.5,-131.5 688.5,-112.5 558.5,-112.5"/>
<text text-anchor="middle" x="623.5" y="-119.5" font-family="Helvetica,sans-Serif" font-size="10.00">algebra/sparsesystem.hpp</text>
</a>
</g>
</g>
<!-- Node2&#45;&gt;Node5 -->
<g id="edge4" class="edge">
<title>Node2&#45;&gt;Node5</title>
<path fill="none" stroke="midnightblue" d="M519.93,-164.23C542.44,-154.13 575.46,-140.31 598.24,-131.52"/>
<polygon fill="midnightblue" stroke="midnightblue" points="518.34,-161.11 510.7,-168.44 521.25,-167.48 518.34,-161.11"/>
</g>
<!-- Node13 -->
<g id="node13" class="node">
<title>Node13</title>
<g id="a_node13"><a xlink:href="configreader_8hpp.html" target="_top" xlink:title="IO::ConfigReader source file.">
<polygon fill="none" stroke="black" points="300.5,-112.5 300.5,-131.5 398.5,-131.5 398.5,-112.5 300.5,-112.5"/>
<text text-anchor="middle" x="349.5" y="-119.5" font-family="Helvetica,sans-Serif" font-size="10.00">io/configreader.hpp</text>
</a>
</g>
</g>
<!-- Node2&#45;&gt;Node13 -->
<g id="edge28" class="edge">
<title>Node2&#45;&gt;Node13</title>
<path fill="none" stroke="midnightblue" d="M462.8,-164.91C435.36,-154.75 396.83,-140.51 372.53,-131.52"/>
<polygon fill="midnightblue" stroke="midnightblue" points="461.78,-168.26 472.37,-168.44 464.2,-161.69 461.78,-168.26"/>
</g>
<!-- Node14 -->
<g id="node14" class="node">
<title>Node14</title>
<g id="a_node14"><a xlink:href="csvwriter_8hpp.html" target="_top" xlink:title="IO::write_csv source file.">
<polygon fill="none" stroke="black" points="417,-112.5 417,-131.5 502,-131.5 502,-112.5 417,-112.5"/>
<text text-anchor="middle" x="459.5" y="-119.5" font-family="Helvetica,sans-Serif" font-size="10.00">io/csvwriter.hpp</text>
</a>
</g>
</g>
<!-- Node2&#45;&gt;Node14 -->
<g id="edge30" class="edge">
<title>Node2&#45;&gt;Node14</title>
<path fill="none" stroke="midnightblue" d="M483.88,-159.57C477.69,-150.27 470.34,-139.25 465.34,-131.75"/>
<polygon fill="midnightblue" stroke="midnightblue" points="481.1,-161.7 489.56,-168.08 486.92,-157.82 481.1,-161.7"/>
</g>
<!-- Node15 -->
<g id="node15" class="node">
<title>Node15</title>
<g id="a_node15"><a xlink:href="jsonwriter_8hpp.html" target="_top" xlink:title="IO::write_json source file.">
<polygon fill="none" stroke="black" points="29,-112.5 29,-131.5 116,-131.5 116,-112.5 29,-112.5"/>
<text text-anchor="middle" x="72.5" y="-119.5" font-family="Helvetica,sans-Serif" font-size="10.00">io/jsonwriter.hpp</text>
</a>
</g>
</g>
<!-- Node2&#45;&gt;Node15 -->
<g id="edge32" class="edge">
<title>Node2&#45;&gt;Node15</title>
<path fill="none" stroke="midnightblue" d="M440.16,-171.09C367.73,-163.17 236.89,-148.22 125.5,-132 122.46,-131.56 119.31,-131.08 116.15,-130.58"/>
<polygon fill="midnightblue" stroke="midnightblue" points="440.1,-174.61 450.42,-172.21 440.85,-167.65 440.1,-174.61"/>
</g>
<!-- Node3&#45;&gt;Node4 -->
<g id="edge3" class="edge">
<title>Node3&#45;&gt;Node4</title>
<path fill="none" stroke="midnightblue" d="M217.81,-108.37C240.47,-98.26 271.63,-84.35 291.42,-75.52"/>
<polygon fill="midnightblue" stroke="midnightblue" points="216.38,-105.17 208.68,-112.44 219.23,-111.56 216.38,-105.17"/>
</g>
<!-- Node5&#45;&gt;Node1 -->
<g id="edge26" class="edge">
<title>Node5&#45;&gt;Node1</title>
<path fill="none" stroke="midnightblue" d="M623.5,-141.6C623.5,-165.67 623.5,-206.62 623.5,-224.37"/>
<polygon fill="midnightblue" stroke="midnightblue" points="627,-141.59 623.5,-131.59 620,-141.59 627,-141.59"/>
</g>
<!-- Node5&#45;&gt;Node2 -->
<g id="edge23" class="edge">
<title>Node5&#45;&gt;Node2</title>
<path fill="none" stroke="midnightblue" d="M599.18,-135.72C576.7,-145.81 543.68,-159.64 520.87,-168.44"/>
<polygon fill="midnightblue" stroke="midnightblue" points="600.75,-138.85 608.4,-131.52 597.85,-132.48 600.75,-138.85"/>
</g>
<!-- Node5&#45;&gt;Node4 -->
<g id="edge5" class="edge">
<title>Node5&#45;&gt;Node4</title>
<path fill="none" stroke="midnightblue" d="M563.85,-110.71C496.41,-99.07 389.45,-80.62 338.83,-71.89"/>
<polygon fill="midnightblue" stroke="midnightblue" points="563.46,-114.19 573.91,-112.44 564.65,-107.29 563.46,-114.19"/>
</g>
<!-- Node6 -->
<g id="node6" class="node">
<title>Node6</title>
<g id="a_node6"><a xlink:href="block_8hpp.html" target="_top" xlink:title="MODEL::Block source file.">
<polygon fill="none" stroke="black" points="601,-56.5 601,-75.5 688,-75.5 688,-56.5 601,-56.5"/>
<text text-anchor="middle" x="644.5" y="-63.5" font-family="Helvetica,sans-Serif" font-size="10.00">model/block.hpp</text>
</a>
</g>
</g>
<!-- Node5&#45;&gt;Node6 -->
<g id="edge6" class="edge">
<title>Node5&#45;&gt;Node6</title>
<path fill="none" stroke="midnightblue" d="M630.62,-102.69C634.16,-93.59 638.28,-83.01 641.1,-75.75"/>
<polygon fill="midnightblue" stroke="midnightblue" points="627.33,-101.49 626.97,-112.08 633.86,-104.03 627.33,-101.49"/>
</g>
<!-- Node7 -->
<g id="node7" class="node">
<title>Node7</title>
<g id="a_node7"><a xlink:href="bloodvessel_8hpp.html" target="_top" xlink:title="MODEL::BloodVessel source file.">
<polygon fill="none" stroke="black" points="129.5,-0.5 129.5,-19.5 245.5,-19.5 245.5,-0.5 129.5,-0.5"/>
<text text-anchor="middle" x="187.5" y="-7.5" font-family="Helvetica,sans-Serif" font-size="10.00">model/bloodvessel.hpp</text>
</a>
</g>
</g>
<!-- Node5&#45;&gt;Node7 -->
<g id="edge20" class="edge">
<title>Node5&#45;&gt;Node7</title>
<path fill="none" stroke="midnightblue" d="M579.83,-109.98C492.83,-88.03 299.54,-39.27 221.33,-19.53"/>
<polygon fill="midnightblue" stroke="midnightblue" points="579.1,-113.41 589.65,-112.46 580.81,-106.62 579.1,-113.41"/>
</g>
<!-- Node8 -->
<g id="node8" class="node">
<title>Node8</title>
<g id="a_node8"><a xlink:href="flowreference_8hpp.html" target="_top" xlink:title="MODEL::FlowReference source file.">
<polygon fill="none" stroke="black" points="263.5,-0.5 263.5,-19.5 385.5,-19.5 385.5,-0.5 263.5,-0.5"/>
<text text-anchor="middle" x="324.5" y="-7.5" font-family="Helvetica,sans-Serif" font-size="10.00">model/flowreference.hpp</text>
</a>
</g>
</g>
<!-- Node5&#45;&gt;Node8 -->
<g id="edge21" class="edge">
<title>Node5&#45;&gt;Node8</title>
<path fill="none" stroke="midnightblue" d="M595.78,-107.96C565.77,-94.11 516.33,-72.04 472.5,-56 433.03,-41.56 386.51,-27.95 356.31,-19.56"/>
<polygon fill="midnightblue" stroke="midnightblue" points="594.63,-111.28 605.17,-112.32 597.58,-104.94 594.63,-111.28"/>
</g>
<!-- Node9 -->
<g id="node9" class="node">
<title>Node9</title>
<g id="a_node9"><a xlink:href="junction_8hpp.html" target="_top" xlink:title="MODEL::Junction source file.">
<polygon fill="none" stroke="black" points="563.5,-0.5 563.5,-19.5 661.5,-19.5 661.5,-0.5 563.5,-0.5"/>
<text text-anchor="middle" x="612.5" y="-7.5" font-family="Helvetica,sans-Serif" font-size="10.00">model/junction.hpp</text>
</a>
</g>
</g>
<!-- Node5&#45;&gt;Node9 -->
<g id="edge22" class="edge">
<title>Node5&#45;&gt;Node9</title>
<path fill="none" stroke="midnightblue" d="M608.53,-104.47C602.28,-96.48 595.73,-86.38 592.5,-76 586.26,-55.93 598.37,-32.35 606.33,-19.84"/>
<polygon fill="midnightblue" stroke="midnightblue" points="605.92,-106.81 615.02,-112.23 611.29,-102.32 605.92,-106.81"/>
</g>
<!-- Node10 -->
<g id="node10" class="node">
<title>Node10</title>
<g id="a_node10"><a xlink:href="openloopcoronarywithdistalpressure_8hpp.html" target="_top" xlink:title="MODEL::OpenLoopCoronaryWithDistalPressure source file.">
<polygon fill="none" stroke="black" points="885.5,-0.5 885.5,-19.5 1103.5,-19.5 1103.5,-0.5 885.5,-0.5"/>
<text text-anchor="middle" x="994.5" y="-7.5" font-family="Helvetica,sans-Serif" font-size="10.00">model/openloopcoronarywithdistalpressure.hpp</text>
</a>
</g>
</g>
<!-- Node5&#45;&gt;Node10 -->
<g id="edge24" class="edge">
<title>Node5&#45;&gt;Node10</title>
<path fill="none" stroke="midnightblue" d="M662.25,-109.51C737.02,-87.34 899.64,-39.13 965.72,-19.53"/>
<polygon fill="midnightblue" stroke="midnightblue" points="660.9,-106.26 652.31,-112.46 662.89,-112.97 660.9,-106.26"/>
</g>
<!-- Node11 -->
<g id="node11" class="node">
<title>Node11</title>
<g id="a_node11"><a xlink:href="pressurereference_8hpp.html" target="_top" xlink:title="MODEL::PressureReference source file.">
<polygon fill="none" stroke="black" points="403.5,-0.5 403.5,-19.5 545.5,-19.5 545.5,-0.5 403.5,-0.5"/>
<text text-anchor="middle" x="474.5" y="-7.5" font-family="Helvetica,sans-Serif" font-size="10.00">model/pressurereference.hpp</text>
</a>
</g>
</g>
<!-- Node5&#45;&gt;Node11 -->
<g id="edge25" class="edge">
<title>Node5&#45;&gt;Node11</title>
<path fill="none" stroke="midnightblue" d="M603.75,-106.42C572.24,-83.15 511.55,-38.35 486.14,-19.59"/>
<polygon fill="midnightblue" stroke="midnightblue" points="601.69,-109.24 611.81,-112.37 605.84,-103.61 601.69,-109.24"/>
</g>
<!-- Node12 -->
<g id="node12" class="node">
<title>Node12</title>
<g id="a_node12"><a xlink:href="resistancewithdistalpressure_8hpp.html" target="_top" xlink:title="MODEL::ResistanceWithDistalPressure source file.">
<polygon fill="none" stroke="black" points="679.5,-0.5 679.5,-19.5 867.5,-19.5 867.5,-0.5 679.5,-0.5"/>
<text text-anchor="middle" x="773.5" y="-7.5" font-family="Helvetica,sans-Serif" font-size="10.00">model/resistancewithdistalpressure.hpp</text>
</a>
</g>
</g>
<!-- Node5&#45;&gt;Node12 -->
<g id="edge27" class="edge">
<title>Node5&#45;&gt;Node12</title>
<path fill="none" stroke="midnightblue" d="M648.26,-107.29C662.95,-98.82 681.72,-87.43 697.5,-76 723.09,-57.46 750.71,-32.43 764.54,-19.51"/>
<polygon fill="midnightblue" stroke="midnightblue" points="646.24,-104.41 639.28,-112.39 649.7,-110.5 646.24,-104.41"/>
</g>
<!-- Node6&#45;&gt;Node1 -->
<g id="edge17" class="edge">
<title>Node6&#45;&gt;Node1</title>
<path fill="none" stroke="midnightblue" d="M669.23,-81.1C680.03,-88.72 691.58,-99.21 697.5,-112 701.24,-120.07 700.27,-123.55 697.5,-132 684.59,-171.46 649.76,-208.26 632.9,-224.4"/>
<polygon fill="midnightblue" stroke="midnightblue" points="671.12,-78.16 660.84,-75.61 667.29,-84.02 671.12,-78.16"/>
</g>
<!-- Node6&#45;&gt;Node7 -->
<g id="edge7" class="edge">
<title>Node6&#45;&gt;Node7</title>
<path fill="none" stroke="midnightblue" d="M590.72,-59.12C515.47,-50.81 374.49,-34.98 254.5,-20 251.59,-19.64 248.61,-19.26 245.6,-18.87"/>
<polygon fill="midnightblue" stroke="midnightblue" points="590.57,-62.62 600.9,-60.24 591.34,-55.66 590.57,-62.62"/>
</g>
<!-- Node6&#45;&gt;Node8 -->
<g id="edge9" class="edge">
<title>Node6&#45;&gt;Node8</title>
<path fill="none" stroke="midnightblue" d="M590.61,-55.91C530.39,-45.74 433.66,-29.42 374.9,-19.51"/>
<polygon fill="midnightblue" stroke="midnightblue" points="590.24,-59.39 600.68,-57.6 591.4,-52.49 590.24,-59.39"/>
</g>
<!-- Node6&#45;&gt;Node9 -->
<g id="edge11" class="edge">
<title>Node6&#45;&gt;Node9</title>
<path fill="none" stroke="midnightblue" d="M634,-47.27C628.53,-38.05 622.09,-27.17 617.69,-19.75"/>
<polygon fill="midnightblue" stroke="midnightblue" points="631.11,-49.26 639.22,-56.08 637.13,-45.7 631.11,-49.26"/>
</g>
<!-- Node6&#45;&gt;Node10 -->
<g id="edge13" class="edge">
<title>Node6&#45;&gt;Node10</title>
<path fill="none" stroke="midnightblue" d="M698.22,-56.71C763.58,-46.63 873.37,-29.69 939.37,-19.51"/>
<polygon fill="midnightblue" stroke="midnightblue" points="697.47,-53.29 688.12,-58.27 698.54,-60.2 697.47,-53.29"/>
</g>
<!-- Node6&#45;&gt;Node11 -->
<g id="edge15" class="edge">
<title>Node6&#45;&gt;Node11</title>
<path fill="none" stroke="midnightblue" d="M607.68,-53.3C575.65,-43.13 529.99,-28.62 501.31,-19.52"/>
<polygon fill="midnightblue" stroke="midnightblue" points="606.98,-56.75 617.57,-56.44 609.09,-50.08 606.98,-56.75"/>
</g>
<!-- Node6&#45;&gt;Node12 -->
<g id="edge18" class="edge">
<title>Node6&#45;&gt;Node12</title>
<path fill="none" stroke="midnightblue" d="M674.36,-52.5C698.54,-42.38 731.96,-28.39 753.16,-19.52"/>
<polygon fill="midnightblue" stroke="midnightblue" points="672.82,-49.35 664.94,-56.44 675.52,-55.81 672.82,-49.35"/>
</g>
<!-- Node7&#45;&gt;Node2 -->
<g id="edge8" class="edge">
<title>Node7&#45;&gt;Node2</title>
<path fill="none" stroke="midnightblue" d="M142.72,-22.35C76.64,-41.1 -34.47,-81.56 11.5,-132 40.74,-164.08 335.62,-173.66 450.26,-176.19"/>
<polygon fill="midnightblue" stroke="midnightblue" points="143.81,-25.68 152.51,-19.63 141.94,-18.93 143.81,-25.68"/>
</g>
<!-- Node8&#45;&gt;Node2 -->
<g id="edge10" class="edge">
<title>Node8&#45;&gt;Node2</title>
<path fill="none" stroke="midnightblue" d="M272.79,-21.7C176.42,-42.77 -17.66,-91.15 19.5,-132 48.17,-163.5 336.85,-173.42 450.18,-176.11"/>
<polygon fill="midnightblue" stroke="midnightblue" points="273.61,-25.1 282.64,-19.57 272.12,-18.26 273.61,-25.1"/>
</g>
<!-- Node9&#45;&gt;Node2 -->
<g id="edge12" class="edge">
<title>Node9&#45;&gt;Node2</title>
<path fill="none" stroke="midnightblue" d="M655.63,-23.27C671.67,-30.16 688.22,-40.57 697.5,-56 714.93,-84.94 718.63,-105.65 697.5,-132 678.23,-156.04 594.12,-168.06 540.7,-173.38"/>
<polygon fill="midnightblue" stroke="midnightblue" points="656.89,-20.01 646.3,-19.61 654.33,-26.52 656.89,-20.01"/>
</g>
<!-- Node10&#45;&gt;Node2 -->
<g id="edge14" class="edge">
<title>Node10&#45;&gt;Node2</title>
<path fill="none" stroke="midnightblue" d="M970.97,-24.68C926.85,-49.74 828.07,-103.08 738.5,-132 671.34,-153.69 590.15,-166.08 540.7,-172.17"/>
<polygon fill="midnightblue" stroke="midnightblue" points="972.83,-27.65 979.77,-19.64 969.35,-21.57 972.83,-27.65"/>
</g>
<!-- Node11&#45;&gt;Node2 -->
<g id="edge16" class="edge">
<title>Node11&#45;&gt;Node2</title>
<path fill="none" stroke="midnightblue" d="M483.26,-28.91C492.4,-48.7 506.14,-81.76 511.5,-112 515.12,-132.37 505.97,-155.84 500.06,-168.25"/>
<polygon fill="midnightblue" stroke="midnightblue" points="486.3,-27.16 478.85,-19.63 479.98,-30.16 486.3,-27.16"/>
</g>
<!-- Node12&#45;&gt;Node2 -->
<g id="edge19" class="edge">
<title>Node12&#45;&gt;Node2</title>
<path fill="none" stroke="midnightblue" d="M770.13,-29.72C764.24,-56.71 749.42,-106.15 716.5,-132 689.71,-153.04 597.24,-166.27 540.75,-172.58"/>
<polygon fill="midnightblue" stroke="midnightblue" points="773.61,-30.15 772.13,-19.66 766.75,-28.79 773.61,-30.15"/>
</g>
<!-- Node13&#45;&gt;Node4 -->
<g id="edge29" class="edge">
<title>Node13&#45;&gt;Node4</title>
<path fill="none" stroke="midnightblue" d="M337.12,-103.86C330.37,-94.5 322.29,-83.33 316.82,-75.75"/>
<polygon fill="midnightblue" stroke="midnightblue" points="334.37,-106.03 343.06,-112.08 340.05,-101.93 334.37,-106.03"/>
</g>
<!-- Node14&#45;&gt;Node4 -->
<g id="edge31" class="edge">
<title>Node14&#45;&gt;Node4</title>
<path fill="none" stroke="midnightblue" d="M426.13,-108.91C398.12,-98.75 358.81,-84.51 334,-75.52"/>
<polygon fill="midnightblue" stroke="midnightblue" points="425.3,-112.33 435.89,-112.44 427.68,-105.75 425.3,-112.33"/>
</g>
<!-- Node15&#45;&gt;Node4 -->
<g id="edge33" class="edge">
<title>Node15&#45;&gt;Node4</title>
<path fill="none" stroke="midnightblue" d="M120.17,-110.19C168.7,-99.17 242.32,-82.47 282.28,-73.4"/>
<polygon fill="midnightblue" stroke="midnightblue" points="119.19,-106.82 110.21,-112.44 120.74,-113.64 119.19,-106.82"/>
</g>
</g>
</svg>
