<?xml version="1.0" encoding="UTF-8" standalone="no"?>
<!DOCTYPE svg PUBLIC "-//W3C//DTD SVG 1.1//EN"
 "http://www.w3.org/Graphics/SVG/1.1/DTD/svg11.dtd">
<!-- Generated by graphviz version 3.0.0 (20220413.0242)
 -->
<!-- Title: model/resistancewithdistalpressure.hpp Pages: 1 -->
<svg width="1016pt" height="420pt"
 viewBox="0.00 0.00 1016.24 420.00" xmlns="http://www.w3.org/2000/svg" xmlns:xlink="http://www.w3.org/1999/xlink">
<g id="graph0" class="graph" transform="scale(1 1) rotate(0) translate(4 416)">
<title>model/resistancewithdistalpressure.hpp</title>
<!-- Node1 -->
<g id="node1" class="node">
<title>Node1</title>
<g id="a_node1"><a xlink:title="MODEL::ResistanceWithDistalPressure source file.">
<polygon fill="#bfbfbf" stroke="black" points="469,-392.5 469,-411.5 657,-411.5 657,-392.5 469,-392.5"/>
<text text-anchor="middle" x="563" y="-399.5" font-family="Helvetica,sans-Serif" font-size="10.00">model/resistancewithdistalpressure.hpp</text>
</a>
</g>
</g>
<!-- Node2 -->
<g id="node2" class="node">
<title>Node2</title>
<g id="a_node2"><a xlink:href="densesystem_8hpp.html" target="_top" xlink:title="ALGEBRA::DenseSystem source file.">
<polygon fill="none" stroke="black" points="499,-112.5 499,-131.5 633,-131.5 633,-112.5 499,-112.5"/>
<text text-anchor="middle" x="566" y="-119.5" font-family="Helvetica,sans-Serif" font-size="10.00">../algebra/densesystem.hpp</text>
</a>
</g>
</g>
<!-- Node1&#45;&gt;Node2 -->
<g id="edge1" class="edge">
<title>Node1&#45;&gt;Node2</title>
<path fill="none" stroke="midnightblue" d="M648.51,-392.48C787.01,-375.43 1036.34,-329.31 947,-224 915.23,-186.56 775.63,-203.39 729,-188 710.5,-181.9 707.86,-175.78 690,-168 661.03,-155.37 627.26,-143.29 602.29,-134.82"/>
<polygon fill="midnightblue" stroke="midnightblue" points="603.1,-131.4 592.5,-131.54 600.87,-138.04 603.1,-131.4"/>
</g>
<!-- Node4 -->
<g id="node4" class="node">
<title>Node4</title>
<g id="a_node4"><a xlink:href="sparsesystem_8hpp.html" target="_top" xlink:title="ALGEBRA::SparseSystem source file.">
<polygon fill="none" stroke="black" points="494.5,-336.5 494.5,-355.5 631.5,-355.5 631.5,-336.5 494.5,-336.5"/>
<text text-anchor="middle" x="563" y="-343.5" font-family="Helvetica,sans-Serif" font-size="10.00">../algebra/sparsesystem.hpp</text>
</a>
</g>
</g>
<!-- Node1&#45;&gt;Node4 -->
<g id="edge3" class="edge">
<title>Node1&#45;&gt;Node4</title>
<path fill="none" stroke="midnightblue" d="M563,-392.08C563,-385.01 563,-374.86 563,-365.99"/>
<polygon fill="midnightblue" stroke="midnightblue" points="566.5,-365.75 563,-355.75 559.5,-365.75 566.5,-365.75"/>
</g>
<!-- Node13 -->
<g id="node13" class="node">
<title>Node13</title>
<g id="a_node13"><a xlink:href="block_8hpp.html" target="_top" xlink:title="MODEL::Block source file.">
<polygon fill="none" stroke="black" points="403,-168.5 403,-187.5 461,-187.5 461,-168.5 403,-168.5"/>
<text text-anchor="middle" x="432" y="-175.5" font-family="Helvetica,sans-Serif" font-size="10.00">block.hpp</text>
</a>
</g>
</g>
<!-- Node1&#45;&gt;Node13 -->
<g id="edge53" class="edge">
<title>Node1&#45;&gt;Node13</title>
<path fill="none" stroke="midnightblue" d="M468.82,-397.75C368.25,-388.35 215.93,-355.38 161,-244 157.07,-236.03 155.25,-230.78 161,-224 190.2,-189.55 324.49,-181.44 392.41,-179.56"/>
<polygon fill="midnightblue" stroke="midnightblue" points="392.81,-183.05 402.72,-179.31 392.64,-176.05 392.81,-183.05"/>
</g>
<!-- Node21 -->
<g id="node21" class="node">
<title>Node21</title>
<g id="a_node21"><a xlink:href="timedependentparameter_8hpp.html" target="_top" xlink:title="MODEL::TimeDependentParameter source file.">
<polygon fill="none" stroke="black" points="738,-168.5 738,-187.5 880,-187.5 880,-168.5 738,-168.5"/>
<text text-anchor="middle" x="809" y="-175.5" font-family="Helvetica,sans-Serif" font-size="10.00">timedependentparameter.hpp</text>
</a>
</g>
</g>
<!-- Node1&#45;&gt;Node21 -->
<g id="edge54" class="edge">
<title>Node1&#45;&gt;Node21</title>
<path fill="none" stroke="midnightblue" d="M657.18,-397.37C773.53,-391.91 958.82,-379.59 980,-356 1019.2,-312.35 1015.82,-270.46 980,-224 967.71,-208.05 923.11,-196.63 882.54,-189.29"/>
<polygon fill="midnightblue" stroke="midnightblue" points="883.07,-185.83 872.61,-187.55 881.86,-192.72 883.07,-185.83"/>
</g>
<!-- Node3 -->
<g id="node3" class="node">
<title>Node3</title>
<g id="a_node3"><a xlink:title=" ">
<polygon fill="none" stroke="#bfbfbf" points="530.5,-56.5 530.5,-75.5 601.5,-75.5 601.5,-56.5 530.5,-56.5"/>
<text text-anchor="middle" x="566" y="-63.5" font-family="Helvetica,sans-Serif" font-size="10.00">Eigen/Dense</text>
</a>
</g>
</g>
<!-- Node2&#45;&gt;Node3 -->
<g id="edge2" class="edge">
<title>Node2&#45;&gt;Node3</title>
<path fill="none" stroke="midnightblue" d="M566,-112.08C566,-105.01 566,-94.86 566,-85.99"/>
<polygon fill="midnightblue" stroke="midnightblue" points="569.5,-85.75 566,-75.75 562.5,-85.75 569.5,-85.75"/>
</g>
<!-- Node5 -->
<g id="node5" class="node">
<title>Node5</title>
<g id="a_node5"><a xlink:title=" ">
<polygon fill="none" stroke="#bfbfbf" points="667,-280.5 667,-299.5 741,-299.5 741,-280.5 667,-280.5"/>
<text text-anchor="middle" x="704" y="-287.5" font-family="Helvetica,sans-Serif" font-size="10.00">Eigen/Sparse</text>
</a>
</g>
</g>
<!-- Node4&#45;&gt;Node5 -->
<g id="edge4" class="edge">
<title>Node4&#45;&gt;Node5</title>
<path fill="none" stroke="midnightblue" d="M585.34,-336.44C608.75,-327.48 645.74,-313.31 672.19,-303.18"/>
<polygon fill="midnightblue" stroke="midnightblue" points="673.68,-306.36 681.76,-299.52 671.17,-299.82 673.68,-306.36"/>
</g>
<!-- Node6 -->
<g id="node6" class="node">
<title>Node6</title>
<g id="a_node6"><a xlink:title=" ">
<polygon fill="none" stroke="#bfbfbf" points="759,-280.5 759,-299.5 847,-299.5 847,-280.5 759,-280.5"/>
<text text-anchor="middle" x="803" y="-287.5" font-family="Helvetica,sans-Serif" font-size="10.00">Eigen/SparseLU</text>
</a>
</g>
</g>
<!-- Node4&#45;&gt;Node6 -->
<g id="edge5" class="edge">
<title>Node4&#45;&gt;Node6</title>
<path fill="none" stroke="midnightblue" d="M601.03,-336.44C642.81,-327.04 709.98,-311.93 755.27,-301.74"/>
<polygon fill="midnightblue" stroke="midnightblue" points="756.16,-305.13 765.15,-299.52 754.62,-298.3 756.16,-305.13"/>
</g>
<!-- Node7 -->
<g id="node7" class="node">
<title>Node7</title>
<g id="a_node7"><a xlink:title=" ">
<polygon fill="none" stroke="#bfbfbf" points="865,-280.5 865,-299.5 919,-299.5 919,-280.5 865,-280.5"/>
<text text-anchor="middle" x="892" y="-287.5" font-family="Helvetica,sans-Serif" font-size="10.00">iostream</text>
</a>
</g>
</g>
<!-- Node4&#45;&gt;Node7 -->
<g id="edge6" class="edge">
<title>Node4&#45;&gt;Node7</title>
<path fill="none" stroke="midnightblue" d="M630.22,-336.48C687.54,-328.8 772.31,-316.47 855.11,-300.03"/>
<polygon fill="midnightblue" stroke="midnightblue" points="855.82,-303.45 864.93,-298.05 854.44,-296.59 855.82,-303.45"/>
</g>
<!-- Node8 -->
<g id="node8" class="node">
<title>Node8</title>
<g id="a_node8"><a xlink:href="model_8hpp.html" target="_top" xlink:title="MODEL::Model source file.">
<polygon fill="none" stroke="black" points="243,-280.5 243,-299.5 341,-299.5 341,-280.5 243,-280.5"/>
<text text-anchor="middle" x="292" y="-287.5" font-family="Helvetica,sans-Serif" font-size="10.00">../model/model.hpp</text>
</a>
</g>
</g>
<!-- Node4&#45;&gt;Node8 -->
<g id="edge7" class="edge">
<title>Node4&#45;&gt;Node8</title>
<path fill="none" stroke="midnightblue" d="M514.97,-336.44C465.53,-327 389.1,-311.8 339.76,-301.61"/>
<polygon fill="midnightblue" stroke="midnightblue" points="340.16,-298.12 329.66,-299.52 338.74,-304.97 340.16,-298.12"/>
</g>
<!-- Node8&#45;&gt;Node1 -->
<g id="edge52" class="edge">
<title>Node8&#45;&gt;Node1</title>
<path fill="none" stroke="midnightblue" d="M313.17,-299.59C360.86,-318.95 476.9,-366.05 532.42,-388.59"/>
<polygon fill="midnightblue" stroke="midnightblue" points="531.15,-391.85 541.74,-392.37 533.79,-385.36 531.15,-391.85"/>
</g>
<!-- Node8&#45;&gt;Node2 -->
<g id="edge11" class="edge">
<title>Node8&#45;&gt;Node2</title>
<path fill="none" stroke="midnightblue" d="M296.58,-280.25C308.93,-257.61 345.29,-196.83 394,-168 422.88,-150.91 458.26,-140.22 489.4,-133.57"/>
<polygon fill="midnightblue" stroke="midnightblue" points="490.25,-136.97 499.35,-131.55 488.86,-130.11 490.25,-136.97"/>
</g>
<!-- Node8&#45;&gt;Node4 -->
<g id="edge12" class="edge">
<title>Node8&#45;&gt;Node4</title>
<path fill="none" stroke="midnightblue" d="M339.82,-299.52C389.29,-308.96 465.93,-324.2 515.34,-334.41"/>
<polygon fill="midnightblue" stroke="midnightblue" points="514.65,-337.84 525.15,-336.44 516.07,-330.99 514.65,-337.84"/>
</g>
<!-- Node9 -->
<g id="node9" class="node">
<title>Node9</title>
<g id="a_node9"><a xlink:title=" ">
<polygon fill="none" stroke="#bfbfbf" points="179.5,-112.5 179.5,-131.5 214.5,-131.5 214.5,-112.5 179.5,-112.5"/>
<text text-anchor="middle" x="197" y="-119.5" font-family="Helvetica,sans-Serif" font-size="10.00">map</text>
</a>
</g>
</g>
<!-- Node8&#45;&gt;Node9 -->
<g id="edge8" class="edge">
<title>Node8&#45;&gt;Node9</title>
<path fill="none" stroke="midnightblue" d="M242.88,-285.79C213.95,-281.08 179.51,-269.93 161,-244 137.98,-211.75 165.43,-164.7 183.55,-139.84"/>
<polygon fill="midnightblue" stroke="midnightblue" points="186.43,-141.84 189.69,-131.76 180.85,-137.6 186.43,-141.84"/>
</g>
<!-- Node10 -->
<g id="node10" class="node">
<title>Node10</title>
<g id="a_node10"><a xlink:title=" ">
<polygon fill="none" stroke="#bfbfbf" points="170.5,-224.5 170.5,-243.5 199.5,-243.5 199.5,-224.5 170.5,-224.5"/>
<text text-anchor="middle" x="185" y="-231.5" font-family="Helvetica,sans-Serif" font-size="10.00">list</text>
</a>
</g>
</g>
<!-- Node8&#45;&gt;Node10 -->
<g id="edge9" class="edge">
<title>Node8&#45;&gt;Node10</title>
<path fill="none" stroke="midnightblue" d="M274.81,-280.32C256.94,-271.31 228.83,-257.12 208.83,-247.03"/>
<polygon fill="midnightblue" stroke="midnightblue" points="210.24,-243.82 199.74,-242.44 207.09,-250.07 210.24,-243.82"/>
</g>
<!-- Node11 -->
<g id="node11" class="node">
<title>Node11</title>
<g id="a_node11"><a xlink:title=" ">
<polygon fill="none" stroke="#bfbfbf" points="218,-224.5 218,-243.5 264,-243.5 264,-224.5 218,-224.5"/>
<text text-anchor="middle" x="241" y="-231.5" font-family="Helvetica,sans-Serif" font-size="10.00">variant</text>
</a>
</g>
</g>
<!-- Node8&#45;&gt;Node11 -->
<g id="edge10" class="edge">
<title>Node8&#45;&gt;Node11</title>
<path fill="none" stroke="midnightblue" d="M283.58,-280.08C276.15,-272.22 265.15,-260.57 256.19,-251.08"/>
<polygon fill="midnightblue" stroke="midnightblue" points="258.68,-248.62 249.26,-243.75 253.59,-253.42 258.68,-248.62"/>
</g>
<!-- Node12 -->
<g id="node12" class="node">
<title>Node12</title>
<g id="a_node12"><a xlink:href="junction_8hpp.html" target="_top" xlink:title="MODEL::Junction source file.">
<polygon fill="none" stroke="black" points="524,-224.5 524,-243.5 592,-243.5 592,-224.5 524,-224.5"/>
<text text-anchor="middle" x="558" y="-231.5" font-family="Helvetica,sans-Serif" font-size="10.00">junction.hpp</text>
</a>
</g>
</g>
<!-- Node8&#45;&gt;Node12 -->
<g id="edge13" class="edge">
<title>Node8&#45;&gt;Node12</title>
<path fill="none" stroke="midnightblue" d="M334.77,-280.46C377.57,-271.9 445.58,-258.24 513.69,-244.26"/>
<polygon fill="midnightblue" stroke="midnightblue" points="514.65,-247.64 523.74,-242.19 513.24,-240.78 514.65,-247.64"/>
</g>
<!-- Node15 -->
<g id="node15" class="node">
<title>Node15</title>
<g id="a_node15"><a xlink:href="node_8hpp.html" target="_top" xlink:title="MODEL::Node source file.">
<polygon fill="none" stroke="black" points="0,-112.5 0,-131.5 56,-131.5 56,-112.5 0,-112.5"/>
<text text-anchor="middle" x="28" y="-119.5" font-family="Helvetica,sans-Serif" font-size="10.00">node.hpp</text>
</a>
</g>
</g>
<!-- Node8&#45;&gt;Node15 -->
<g id="edge33" class="edge">
<title>Node8&#45;&gt;Node15</title>
<path fill="none" stroke="midnightblue" d="M242.78,-286.15C180.54,-281.51 78.33,-270.05 52,-244 24.82,-217.1 23.88,-168.85 25.8,-142.13"/>
<polygon fill="midnightblue" stroke="midnightblue" points="29.32,-142.1 26.76,-131.82 22.35,-141.45 29.32,-142.1"/>
</g>
<!-- Node17 -->
<g id="node17" class="node">
<title>Node17</title>
<g id="a_node17"><a xlink:href="dofhandler_8hpp.html" target="_top" xlink:title="MODEL::DOFHandler source file.">
<polygon fill="none" stroke="black" points="257,-56.5 257,-75.5 337,-75.5 337,-56.5 257,-56.5"/>
<text text-anchor="middle" x="297" y="-63.5" font-family="Helvetica,sans-Serif" font-size="10.00">dofhandler.hpp</text>
</a>
</g>
</g>
<!-- Node8&#45;&gt;Node17 -->
<g id="edge32" class="edge">
<title>Node8&#45;&gt;Node17</title>
<path fill="none" stroke="midnightblue" d="M242.74,-287.49C210.7,-283.62 171.08,-272.8 150,-244 114.95,-196.12 129.37,-155.24 170,-112 190.03,-90.69 220.78,-79.46 247.01,-73.55"/>
<polygon fill="midnightblue" stroke="midnightblue" points="247.72,-76.97 256.81,-71.53 246.31,-70.12 247.72,-76.97"/>
</g>
<!-- Node18 -->
<g id="node18" class="node">
<title>Node18</title>
<g id="a_node18"><a xlink:href="bloodvessel_8hpp.html" target="_top" xlink:title="MODEL::BloodVessel source file.">
<polygon fill="none" stroke="black" points="852,-224.5 852,-243.5 938,-243.5 938,-224.5 852,-224.5"/>
<text text-anchor="middle" x="895" y="-231.5" font-family="Helvetica,sans-Serif" font-size="10.00">bloodvessel.hpp</text>
</a>
</g>
</g>
<!-- Node8&#45;&gt;Node18 -->
<g id="edge27" class="edge">
<title>Node8&#45;&gt;Node18</title>
<path fill="none" stroke="midnightblue" d="M341.17,-286.47C436.02,-281.27 651.01,-267.92 841.98,-244.02"/>
<polygon fill="midnightblue" stroke="midnightblue" points="842.43,-247.49 851.91,-242.76 841.55,-240.55 842.43,-247.49"/>
</g>
<!-- Node20 -->
<g id="node20" class="node">
<title>Node20</title>
<g id="a_node20"><a xlink:href="flowreference_8hpp.html" target="_top" xlink:title="MODEL::FlowReference source file.">
<polygon fill="none" stroke="black" points="610,-224.5 610,-243.5 702,-243.5 702,-224.5 610,-224.5"/>
<text text-anchor="middle" x="656" y="-231.5" font-family="Helvetica,sans-Serif" font-size="10.00">flowreference.hpp</text>
</a>
</g>
</g>
<!-- Node8&#45;&gt;Node20 -->
<g id="edge34" class="edge">
<title>Node8&#45;&gt;Node20</title>
<path fill="none" stroke="midnightblue" d="M341.01,-282.13C399.96,-273.82 502.18,-259.2 599.76,-244.17"/>
<polygon fill="midnightblue" stroke="midnightblue" points="600.45,-247.61 609.8,-242.62 599.38,-240.69 600.45,-247.61"/>
</g>
<!-- Node23 -->
<g id="node23" class="node">
<title>Node23</title>
<g id="a_node23"><a xlink:href="pressurereference_8hpp.html" target="_top" xlink:title="MODEL::PressureReference source file.">
<polygon fill="none" stroke="black" points="720.5,-224.5 720.5,-243.5 833.5,-243.5 833.5,-224.5 720.5,-224.5"/>
<text text-anchor="middle" x="777" y="-231.5" font-family="Helvetica,sans-Serif" font-size="10.00">pressurereference.hpp</text>
</a>
</g>
</g>
<!-- Node8&#45;&gt;Node23 -->
<g id="edge43" class="edge">
<title>Node8&#45;&gt;Node23</title>
<path fill="none" stroke="midnightblue" d="M341.08,-284.19C417.54,-276.59 570.01,-261.03 710.4,-244.04"/>
<polygon fill="midnightblue" stroke="midnightblue" points="710.98,-247.5 720.49,-242.81 710.14,-240.55 710.98,-247.5"/>
</g>
<!-- Node24 -->
<g id="node24" class="node">
<title>Node24</title>
<g id="a_node24"><a xlink:href="rcrblockwithdistalpressure_8hpp.html" target="_top" xlink:title="MODEL::RCRBlockWithDistalPressure source file.">
<polygon fill="none" stroke="black" points="358,-224.5 358,-243.5 506,-243.5 506,-224.5 358,-224.5"/>
<text text-anchor="middle" x="432" y="-231.5" font-family="Helvetica,sans-Serif" font-size="10.00">rcrblockwithdistalpressure.hpp</text>
</a>
</g>
</g>
<!-- Node8&#45;&gt;Node24 -->
<g id="edge48" class="edge">
<title>Node8&#45;&gt;Node24</title>
<path fill="none" stroke="midnightblue" d="M314.18,-280.44C337.43,-271.48 374.15,-257.31 400.42,-247.18"/>
<polygon fill="midnightblue" stroke="midnightblue" points="401.85,-250.38 409.92,-243.52 399.33,-243.85 401.85,-250.38"/>
</g>
<!-- Node12&#45;&gt;Node2 -->
<g id="edge14" class="edge">
<title>Node12&#45;&gt;Node2</title>
<path fill="none" stroke="midnightblue" d="M558.63,-224.37C559.92,-206.62 562.9,-165.67 564.65,-141.6"/>
<polygon fill="midnightblue" stroke="midnightblue" points="568.14,-141.82 565.38,-131.59 561.16,-141.31 568.14,-141.82"/>
</g>
<!-- Node12&#45;&gt;Node4 -->
<g id="edge15" class="edge">
<title>Node12&#45;&gt;Node4</title>
<path fill="none" stroke="midnightblue" d="M555.15,-243.84C551.49,-256.36 545.95,-279.95 549,-300 550.37,-309 553.19,-318.67 555.95,-326.74"/>
<polygon fill="midnightblue" stroke="midnightblue" points="552.69,-328.02 559.4,-336.22 559.27,-325.63 552.69,-328.02"/>
</g>
<!-- Node12&#45;&gt;Node13 -->
<g id="edge16" class="edge">
<title>Node12&#45;&gt;Node13</title>
<path fill="none" stroke="midnightblue" d="M538.03,-224.44C517.39,-215.6 484.94,-201.69 461.37,-191.59"/>
<polygon fill="midnightblue" stroke="midnightblue" points="462.44,-188.24 451.87,-187.52 459.68,-194.67 462.44,-188.24"/>
</g>
<!-- Node13&#45;&gt;Node2 -->
<g id="edge25" class="edge">
<title>Node13&#45;&gt;Node2</title>
<path fill="none" stroke="midnightblue" d="M453.23,-168.44C475.38,-159.52 510.32,-145.44 535.44,-135.32"/>
<polygon fill="midnightblue" stroke="midnightblue" points="536.9,-138.5 544.87,-131.52 534.28,-132.01 536.9,-138.5"/>
</g>
<!-- Node13&#45;&gt;Node4 -->
<g id="edge26" class="edge">
<title>Node13&#45;&gt;Node4</title>
<path fill="none" stroke="midnightblue" d="M403.48,-187.55C373.43,-198.15 332.54,-218.03 349,-244 381.99,-296.05 449.79,-321.78 500.28,-334.16"/>
<polygon fill="midnightblue" stroke="midnightblue" points="499.6,-337.6 510.13,-336.47 501.19,-330.78 499.6,-337.6"/>
</g>
<!-- Node13&#45;&gt;Node9 -->
<g id="edge18" class="edge">
<title>Node13&#45;&gt;Node9</title>
<path fill="none" stroke="midnightblue" d="M402.71,-170.27C356.92,-159.75 269.01,-139.55 224.41,-129.3"/>
<polygon fill="midnightblue" stroke="midnightblue" points="225.09,-125.86 214.56,-127.03 223.52,-132.68 225.09,-125.86"/>
</g>
<!-- Node14 -->
<g id="node14" class="node">
<title>Node14</title>
<g id="a_node14"><a xlink:title=" ">
<polygon fill="none" stroke="#bfbfbf" points="410,-0.5 410,-19.5 454,-19.5 454,-0.5 410,-0.5"/>
<text text-anchor="middle" x="432" y="-7.5" font-family="Helvetica,sans-Serif" font-size="10.00">vector</text>
</a>
</g>
</g>
<!-- Node13&#45;&gt;Node14 -->
<g id="edge17" class="edge">
<title>Node13&#45;&gt;Node14</title>
<path fill="none" stroke="midnightblue" d="M432,-168.08C432,-141.95 432,-65.21 432,-29.58"/>
<polygon fill="midnightblue" stroke="midnightblue" points="435.5,-29.57 432,-19.57 428.5,-29.57 435.5,-29.57"/>
</g>
<!-- Node13&#45;&gt;Node15 -->
<g id="edge19" class="edge">
<title>Node13&#45;&gt;Node15</title>
<path fill="none" stroke="midnightblue" d="M402.95,-173.12C331.43,-163.56 146.88,-138.89 66.44,-128.14"/>
<polygon fill="midnightblue" stroke="midnightblue" points="66.63,-124.63 56.25,-126.78 65.7,-131.57 66.63,-124.63"/>
</g>
<!-- Node13&#45;&gt;Node17 -->
<g id="edge24" class="edge">
<title>Node13&#45;&gt;Node17</title>
<path fill="none" stroke="midnightblue" d="M421.41,-168.37C398.54,-149.73 344.29,-105.53 315.57,-82.13"/>
<polygon fill="midnightblue" stroke="midnightblue" points="317.51,-79.19 307.54,-75.59 313.09,-84.62 317.51,-79.19"/>
</g>
<!-- Node16 -->
<g id="node16" class="node">
<title>Node16</title>
<g id="a_node16"><a xlink:title=" ">
<polygon fill="none" stroke="#bfbfbf" points="175.5,-0.5 175.5,-19.5 216.5,-19.5 216.5,-0.5 175.5,-0.5"/>
<text text-anchor="middle" x="196" y="-7.5" font-family="Helvetica,sans-Serif" font-size="10.00">string</text>
</a>
</g>
</g>
<!-- Node15&#45;&gt;Node16 -->
<g id="edge20" class="edge">
<title>Node15&#45;&gt;Node16</title>
<path fill="none" stroke="midnightblue" d="M41.18,-112.37C70.01,-93.49 138.9,-48.38 174.26,-25.24"/>
<polygon fill="midnightblue" stroke="midnightblue" points="176.43,-28 182.88,-19.59 172.6,-22.14 176.43,-28"/>
</g>
<!-- Node15&#45;&gt;Node17 -->
<g id="edge21" class="edge">
<title>Node15&#45;&gt;Node17</title>
<path fill="none" stroke="midnightblue" d="M56,-114.94C60.67,-113.94 65.47,-112.93 70,-112 130.73,-99.48 200.73,-85.7 246.76,-76.73"/>
<polygon fill="midnightblue" stroke="midnightblue" points="247.63,-80.13 256.78,-74.78 246.29,-73.25 247.63,-80.13"/>
</g>
<!-- Node17&#45;&gt;Node14 -->
<g id="edge22" class="edge">
<title>Node17&#45;&gt;Node14</title>
<path fill="none" stroke="midnightblue" d="M318.39,-56.44C340.71,-47.52 375.9,-33.44 401.21,-23.32"/>
<polygon fill="midnightblue" stroke="midnightblue" points="402.72,-26.48 410.71,-19.52 400.12,-19.98 402.72,-26.48"/>
</g>
<!-- Node17&#45;&gt;Node16 -->
<g id="edge23" class="edge">
<title>Node17&#45;&gt;Node16</title>
<path fill="none" stroke="midnightblue" d="M280.77,-56.32C264.65,-47.7 239.7,-34.36 221.04,-24.39"/>
<polygon fill="midnightblue" stroke="midnightblue" points="222.66,-21.28 212.19,-19.65 219.36,-27.46 222.66,-21.28"/>
</g>
<!-- Node18&#45;&gt;Node2 -->
<g id="edge30" class="edge">
<title>Node18&#45;&gt;Node2</title>
<path fill="none" stroke="midnightblue" d="M851.88,-224.52C802.34,-214.55 724.27,-198.1 696,-188 695.83,-187.94 630.15,-155.09 592.22,-136.12"/>
<polygon fill="midnightblue" stroke="midnightblue" points="593.74,-132.96 583.23,-131.62 590.61,-139.23 593.74,-132.96"/>
</g>
<!-- Node18&#45;&gt;Node4 -->
<g id="edge31" class="edge">
<title>Node18&#45;&gt;Node4</title>
<path fill="none" stroke="midnightblue" d="M851.95,-242.7C786.08,-254.56 666.92,-276.29 658,-280 649.95,-283.34 608.77,-312.31 583.34,-330.43"/>
<polygon fill="midnightblue" stroke="midnightblue" points="581.18,-327.66 575.08,-336.32 585.25,-333.36 581.18,-327.66"/>
</g>
<!-- Node18&#45;&gt;Node13 -->
<g id="edge29" class="edge">
<title>Node18&#45;&gt;Node13</title>
<path fill="none" stroke="midnightblue" d="M851.9,-225.33C848.89,-224.86 845.9,-224.41 843,-224 707,-204.8 544.7,-189.16 471.39,-182.49"/>
<polygon fill="midnightblue" stroke="midnightblue" points="471.5,-178.98 461.23,-181.57 470.87,-185.96 471.5,-178.98"/>
</g>
<!-- Node19 -->
<g id="node19" class="node">
<title>Node19</title>
<g id="a_node19"><a xlink:title=" ">
<polygon fill="none" stroke="#bfbfbf" points="869,-112.5 869,-131.5 915,-131.5 915,-112.5 869,-112.5"/>
<text text-anchor="middle" x="892" y="-119.5" font-family="Helvetica,sans-Serif" font-size="10.00">math.h</text>
</a>
</g>
</g>
<!-- Node18&#45;&gt;Node19 -->
<g id="edge28" class="edge">
<title>Node18&#45;&gt;Node19</title>
<path fill="none" stroke="midnightblue" d="M894.76,-224.37C894.28,-206.62 893.16,-165.67 892.51,-141.6"/>
<polygon fill="midnightblue" stroke="midnightblue" points="896.01,-141.49 892.23,-131.59 889.01,-141.68 896.01,-141.49"/>
</g>
<!-- Node20&#45;&gt;Node2 -->
<g id="edge35" class="edge">
<title>Node20&#45;&gt;Node2</title>
<path fill="none" stroke="midnightblue" d="M648.94,-224.37C633.95,-206.05 598.77,-163.05 579.39,-139.36"/>
<polygon fill="midnightblue" stroke="midnightblue" points="582.07,-137.11 573.03,-131.59 576.65,-141.55 582.07,-137.11"/>
</g>
<!-- Node20&#45;&gt;Node4 -->
<g id="edge36" class="edge">
<title>Node20&#45;&gt;Node4</title>
<path fill="none" stroke="midnightblue" d="M636.26,-243.59C620.91,-251.17 600.11,-263.56 587,-280 576.23,-293.51 569.99,-312.31 566.59,-326.22"/>
<polygon fill="midnightblue" stroke="midnightblue" points="563.14,-325.62 564.43,-336.14 569.98,-327.11 563.14,-325.62"/>
</g>
<!-- Node20&#45;&gt;Node13 -->
<g id="edge37" class="edge">
<title>Node20&#45;&gt;Node13</title>
<path fill="none" stroke="midnightblue" d="M620.51,-224.44C579.82,-214.64 513.33,-198.61 471.17,-188.44"/>
<polygon fill="midnightblue" stroke="midnightblue" points="471.8,-184.99 461.26,-186.05 470.16,-191.8 471.8,-184.99"/>
</g>
<!-- Node20&#45;&gt;Node21 -->
<g id="edge38" class="edge">
<title>Node20&#45;&gt;Node21</title>
<path fill="none" stroke="midnightblue" d="M680.24,-224.44C705.87,-215.4 746.49,-201.06 775.24,-190.92"/>
<polygon fill="midnightblue" stroke="midnightblue" points="776.61,-194.15 784.87,-187.52 774.28,-187.54 776.61,-194.15"/>
</g>
<!-- Node21&#45;&gt;Node14 -->
<g id="edge40" class="edge">
<title>Node21&#45;&gt;Node14</title>
<path fill="none" stroke="midnightblue" d="M797.62,-168.31C768.31,-146.33 687.15,-87.96 611,-56 561.79,-35.34 500.84,-22.52 464.26,-16.08"/>
<polygon fill="midnightblue" stroke="midnightblue" points="464.62,-12.59 454.17,-14.35 463.44,-19.49 464.62,-12.59"/>
</g>
<!-- Node21&#45;&gt;Node17 -->
<g id="edge42" class="edge">
<title>Node21&#45;&gt;Node17</title>
<path fill="none" stroke="midnightblue" d="M790.94,-168.29C760.82,-154.16 698.06,-126.34 642,-112 539.17,-85.69 414.95,-74.3 347.16,-69.74"/>
<polygon fill="midnightblue" stroke="midnightblue" points="347.38,-66.25 337.17,-69.09 346.93,-73.23 347.38,-66.25"/>
</g>
<!-- Node21&#45;&gt;Node19 -->
<g id="edge39" class="edge">
<title>Node21&#45;&gt;Node19</title>
<path fill="none" stroke="midnightblue" d="M822.34,-168.32C835.16,-159.98 854.78,-147.21 869.94,-137.35"/>
<polygon fill="midnightblue" stroke="midnightblue" points="872.22,-140.04 878.7,-131.65 868.41,-134.17 872.22,-140.04"/>
</g>
<!-- Node22 -->
<g id="node22" class="node">
<title>Node22</title>
<g id="a_node22"><a xlink:title=" ">
<polygon fill="none" stroke="#bfbfbf" points="783.5,-112.5 783.5,-131.5 834.5,-131.5 834.5,-112.5 783.5,-112.5"/>
<text text-anchor="middle" x="809" y="-119.5" font-family="Helvetica,sans-Serif" font-size="10.00">numeric</text>
</a>
</g>
</g>
<!-- Node21&#45;&gt;Node22 -->
<g id="edge41" class="edge">
<title>Node21&#45;&gt;Node22</title>
<path fill="none" stroke="midnightblue" d="M809,-168.08C809,-161.01 809,-150.86 809,-141.99"/>
<polygon fill="midnightblue" stroke="midnightblue" points="812.5,-141.75 809,-131.75 805.5,-141.75 812.5,-141.75"/>
</g>
<!-- Node23&#45;&gt;Node2 -->
<g id="edge44" class="edge">
<title>Node23&#45;&gt;Node2</title>
<path fill="none" stroke="midnightblue" d="M748.23,-224.4C723.56,-216.49 687.45,-203.65 658,-188 630.69,-173.49 602.02,-152.11 584.08,-137.88"/>
<polygon fill="midnightblue" stroke="midnightblue" points="586.18,-135.07 576.2,-131.53 581.79,-140.52 586.18,-135.07"/>
</g>
<!-- Node23&#45;&gt;Node4 -->
<g id="edge45" class="edge">
<title>Node23&#45;&gt;Node4</title>
<path fill="none" stroke="midnightblue" d="M724.26,-243.57C693.66,-250.21 655.3,-261.49 625,-280 604.5,-292.52 586.22,-313.51 574.92,-328.24"/>
<polygon fill="midnightblue" stroke="midnightblue" points="571.96,-326.35 568.82,-336.47 577.58,-330.52 571.96,-326.35"/>
</g>
<!-- Node23&#45;&gt;Node13 -->
<g id="edge46" class="edge">
<title>Node23&#45;&gt;Node13</title>
<path fill="none" stroke="midnightblue" d="M722.33,-224.44C652.47,-213.51 533.19,-194.84 471.52,-185.19"/>
<polygon fill="midnightblue" stroke="midnightblue" points="471.84,-181.69 461.42,-183.6 470.76,-188.61 471.84,-181.69"/>
</g>
<!-- Node23&#45;&gt;Node21 -->
<g id="edge47" class="edge">
<title>Node23&#45;&gt;Node21</title>
<path fill="none" stroke="midnightblue" d="M782.28,-224.08C786.71,-216.61 793.16,-205.72 798.62,-196.52"/>
<polygon fill="midnightblue" stroke="midnightblue" points="801.73,-198.14 803.81,-187.75 795.71,-194.57 801.73,-198.14"/>
</g>
<!-- Node24&#45;&gt;Node2 -->
<g id="edge49" class="edge">
<title>Node24&#45;&gt;Node2</title>
<path fill="none" stroke="midnightblue" d="M442.51,-224.37C465.22,-205.73 519.06,-161.53 547.56,-138.13"/>
<polygon fill="midnightblue" stroke="midnightblue" points="550.03,-140.64 555.53,-131.59 545.58,-135.23 550.03,-140.64"/>
</g>
<!-- Node24&#45;&gt;Node4 -->
<g id="edge50" class="edge">
<title>Node24&#45;&gt;Node4</title>
<path fill="none" stroke="midnightblue" d="M442.23,-243.59C464.38,-262.19 517.02,-306.39 544.92,-329.82"/>
<polygon fill="midnightblue" stroke="midnightblue" points="542.81,-332.62 552.72,-336.37 547.31,-327.26 542.81,-332.62"/>
</g>
<!-- Node24&#45;&gt;Node13 -->
<g id="edge51" class="edge">
<title>Node24&#45;&gt;Node13</title>
<path fill="none" stroke="midnightblue" d="M432,-224.08C432,-217.01 432,-206.86 432,-197.99"/>
<polygon fill="midnightblue" stroke="midnightblue" points="435.5,-197.75 432,-187.75 428.5,-197.75 435.5,-197.75"/>
</g>
</g>
</svg>
