<?xml version="1.0" encoding="UTF-8" standalone="no"?>
<!DOCTYPE svg PUBLIC "-//W3C//DTD SVG 1.1//EN"
 "http://www.w3.org/Graphics/SVG/1.1/DTD/svg11.dtd">
<!-- Generated by graphviz version 3.0.0 (20220413.0242)
 -->
<!-- Title: model/resistancebc.hpp Pages: 1 -->
<svg width="1167pt" height="252pt"
 viewBox="0.00 0.00 1166.84 252.00" xmlns="http://www.w3.org/2000/svg" xmlns:xlink="http://www.w3.org/1999/xlink">
<g id="graph0" class="graph" transform="scale(1 1) rotate(0) translate(4 248)">
<title>model/resistancebc.hpp</title>
<!-- Node1 -->
<g id="node1" class="node">
<title>Node1</title>
<g id="a_node1"><a xlink:title="MODEL::ResistanceBC source file.">
<polygon fill="#bfbfbf" stroke="black" points="691.84,-224.5 691.84,-243.5 810.84,-243.5 810.84,-224.5 691.84,-224.5"/>
<text text-anchor="middle" x="751.34" y="-231.5" font-family="Helvetica,sans-Serif" font-size="10.00">model/resistancebc.hpp</text>
</a>
</g>
</g>
<!-- Node2 -->
<g id="node2" class="node">
<title>Node2</title>
<g id="a_node2"><a xlink:href="model_8hpp.html" target="_top" xlink:title="MODEL::Model source file.">
<polygon fill="none" stroke="black" points="503.34,-168.5 503.34,-187.5 593.34,-187.5 593.34,-168.5 503.34,-168.5"/>
<text text-anchor="middle" x="548.34" y="-175.5" font-family="Helvetica,sans-Serif" font-size="10.00">model/model.hpp</text>
</a>
</g>
</g>
<!-- Node1&#45;&gt;Node2 -->
<g id="edge1" class="edge">
<title>Node1&#45;&gt;Node2</title>
<path fill="none" stroke="midnightblue" d="M709.35,-221.83C671.02,-211.63 615.19,-196.78 580.36,-187.52"/>
<polygon fill="midnightblue" stroke="midnightblue" points="708.61,-225.26 719.18,-224.44 710.41,-218.49 708.61,-225.26"/>
</g>
<!-- Node3 -->
<g id="node3" class="node">
<title>Node3</title>
<g id="a_node3"><a xlink:href="densesystem_8hpp.html" target="_top" xlink:title="ALGEBRA::DenseSystem source file.">
<polygon fill="none" stroke="black" points="743.84,-112.5 743.84,-131.5 870.84,-131.5 870.84,-112.5 743.84,-112.5"/>
<text text-anchor="middle" x="807.34" y="-119.5" font-family="Helvetica,sans-Serif" font-size="10.00">algebra/densesystem.hpp</text>
</a>
</g>
</g>
<!-- Node2&#45;&gt;Node3 -->
<g id="edge2" class="edge">
<title>Node2&#45;&gt;Node3</title>
<path fill="none" stroke="midnightblue" d="M594.24,-166.28C641.4,-156.08 714.24,-140.92 761.41,-131.52"/>
<polygon fill="midnightblue" stroke="midnightblue" points="593.32,-162.9 584.29,-168.44 594.81,-169.74 593.32,-162.9"/>
</g>
<!-- Node4 -->
<g id="node4" class="node">
<title>Node4</title>
<g id="a_node4"><a xlink:href="main_8cpp.html" target="_top" xlink:title="Main routine of svZeroDSolver.">
<polygon fill="none" stroke="black" points="244.34,-56.5 244.34,-75.5 300.34,-75.5 300.34,-56.5 244.34,-56.5"/>
<text text-anchor="middle" x="272.34" y="-63.5" font-family="Helvetica,sans-Serif" font-size="10.00">main.cpp</text>
</a>
</g>
</g>
<!-- Node2&#45;&gt;Node4 -->
<g id="edge48" class="edge">
<title>Node2&#45;&gt;Node4</title>
<path fill="none" stroke="midnightblue" d="M533.72,-160.83C519.3,-145.89 495.92,-124.23 471.34,-112 467.49,-110.08 354.62,-85.1 300.61,-73.21"/>
<polygon fill="midnightblue" stroke="midnightblue" points="531.36,-163.43 540.75,-168.33 536.46,-158.64 531.36,-163.43"/>
</g>
<!-- Node13 -->
<g id="node13" class="node">
<title>Node13</title>
<g id="a_node13"><a xlink:href="integrator_8hpp.html" target="_top" xlink:title="ALGEBRA::Integrator source file.">
<polygon fill="none" stroke="black" points="28.34,-112.5 28.34,-131.5 138.34,-131.5 138.34,-112.5 28.34,-112.5"/>
<text text-anchor="middle" x="83.34" y="-119.5" font-family="Helvetica,sans-Serif" font-size="10.00">algebra/integrator.hpp</text>
</a>
</g>
</g>
<!-- Node2&#45;&gt;Node13 -->
<g id="edge28" class="edge">
<title>Node2&#45;&gt;Node13</title>
<path fill="none" stroke="midnightblue" d="M493.19,-171.3C415.83,-163.2 270.73,-147.6 147.34,-132 144.45,-131.63 141.48,-131.25 138.49,-130.85"/>
<polygon fill="midnightblue" stroke="midnightblue" points="492.88,-174.79 503.19,-172.35 493.61,-167.83 492.88,-174.79"/>
</g>
<!-- Node14 -->
<g id="node14" class="node">
<title>Node14</title>
<g id="a_node14"><a xlink:href="sparsesystem_8hpp.html" target="_top" xlink:title="ALGEBRA::SparseSystem source file.">
<polygon fill="none" stroke="black" points="595.34,-112.5 595.34,-131.5 725.34,-131.5 725.34,-112.5 595.34,-112.5"/>
<text text-anchor="middle" x="660.34" y="-119.5" font-family="Helvetica,sans-Serif" font-size="10.00">algebra/sparsesystem.hpp</text>
</a>
</g>
</g>
<!-- Node2&#45;&gt;Node14 -->
<g id="edge30" class="edge">
<title>Node2&#45;&gt;Node14</title>
<path fill="none" stroke="midnightblue" d="M570.23,-163.59C589.61,-153.61 617.55,-140.27 637.28,-131.65"/>
<polygon fill="midnightblue" stroke="midnightblue" points="568.45,-160.57 561.22,-168.32 571.7,-166.77 568.45,-160.57"/>
</g>
<!-- Node15 -->
<g id="node15" class="node">
<title>Node15</title>
<g id="a_node15"><a xlink:href="configreader_8hpp.html" target="_top" xlink:title="IO::ConfigReader source file.">
<polygon fill="none" stroke="black" points="156.34,-112.5 156.34,-131.5 254.34,-131.5 254.34,-112.5 156.34,-112.5"/>
<text text-anchor="middle" x="205.34" y="-119.5" font-family="Helvetica,sans-Serif" font-size="10.00">io/configreader.hpp</text>
</a>
</g>
</g>
<!-- Node2&#45;&gt;Node15 -->
<g id="edge42" class="edge">
<title>Node2&#45;&gt;Node15</title>
<path fill="none" stroke="midnightblue" d="M492.94,-168.28C426.93,-157.89 317.66,-140.68 254.52,-130.74"/>
<polygon fill="midnightblue" stroke="midnightblue" points="492.72,-171.79 503.15,-169.88 493.81,-164.87 492.72,-171.79"/>
</g>
<!-- Node16 -->
<g id="node16" class="node">
<title>Node16</title>
<g id="a_node16"><a xlink:href="csvwriter_8hpp.html" target="_top" xlink:title="IO::write_csv source file.">
<polygon fill="none" stroke="black" points="272.84,-112.5 272.84,-131.5 357.84,-131.5 357.84,-112.5 272.84,-112.5"/>
<text text-anchor="middle" x="315.34" y="-119.5" font-family="Helvetica,sans-Serif" font-size="10.00">io/csvwriter.hpp</text>
</a>
</g>
</g>
<!-- Node2&#45;&gt;Node16 -->
<g id="edge44" class="edge">
<title>Node2&#45;&gt;Node16</title>
<path fill="none" stroke="midnightblue" d="M501.54,-166.15C457.51,-155.95 392.49,-140.88 352.09,-131.52"/>
<polygon fill="midnightblue" stroke="midnightblue" points="500.89,-169.6 511.42,-168.44 502.47,-162.78 500.89,-169.6"/>
</g>
<!-- Node17 -->
<g id="node17" class="node">
<title>Node17</title>
<g id="a_node17"><a xlink:href="jsonwriter_8hpp.html" target="_top" xlink:title="IO::write_json source file.">
<polygon fill="none" stroke="black" points="375.84,-112.5 375.84,-131.5 462.84,-131.5 462.84,-112.5 375.84,-112.5"/>
<text text-anchor="middle" x="419.34" y="-119.5" font-family="Helvetica,sans-Serif" font-size="10.00">io/jsonwriter.hpp</text>
</a>
</g>
</g>
<!-- Node2&#45;&gt;Node17 -->
<g id="edge46" class="edge">
<title>Node2&#45;&gt;Node17</title>
<path fill="none" stroke="midnightblue" d="M518.49,-164.5C494.3,-154.38 460.88,-140.39 439.69,-131.52"/>
<polygon fill="midnightblue" stroke="midnightblue" points="517.33,-167.81 527.9,-168.44 520.03,-161.35 517.33,-167.81"/>
</g>
<!-- Node3&#45;&gt;Node1 -->
<g id="edge26" class="edge">
<title>Node3&#45;&gt;Node1</title>
<path fill="none" stroke="midnightblue" d="M798.37,-140.63C786.19,-164.55 764.9,-206.38 755.74,-224.37"/>
<polygon fill="midnightblue" stroke="midnightblue" points="801.55,-142.09 802.97,-131.59 795.31,-138.92 801.55,-142.09"/>
</g>
<!-- Node3&#45;&gt;Node2 -->
<g id="edge23" class="edge">
<title>Node3&#45;&gt;Node2</title>
<path fill="none" stroke="midnightblue" d="M761.3,-133.75C713.91,-144 640.68,-159.24 593.58,-168.62"/>
<polygon fill="midnightblue" stroke="midnightblue" points="762.27,-137.12 771.3,-131.58 760.78,-130.28 762.27,-137.12"/>
</g>
<!-- Node3&#45;&gt;Node4 -->
<g id="edge3" class="edge">
<title>Node3&#45;&gt;Node4</title>
<path fill="none" stroke="midnightblue" d="M733.46,-111.93C562.47,-93.19 371.25,-75.8 300.49,-69.49"/>
<polygon fill="midnightblue" stroke="midnightblue" points="733.33,-115.44 743.65,-113.05 734.09,-108.48 733.33,-115.44"/>
</g>
<!-- Node5 -->
<g id="node5" class="node">
<title>Node5</title>
<g id="a_node5"><a xlink:href="block_8hpp.html" target="_top" xlink:title="MODEL::Block source file.">
<polygon fill="none" stroke="black" points="698.84,-56.5 698.84,-75.5 785.84,-75.5 785.84,-56.5 698.84,-56.5"/>
<text text-anchor="middle" x="742.34" y="-63.5" font-family="Helvetica,sans-Serif" font-size="10.00">model/block.hpp</text>
</a>
</g>
</g>
<!-- Node3&#45;&gt;Node5 -->
<g id="edge4" class="edge">
<title>Node3&#45;&gt;Node5</title>
<path fill="none" stroke="midnightblue" d="M789.07,-105.82C777.42,-96.15 762.74,-83.95 752.97,-75.83"/>
<polygon fill="midnightblue" stroke="midnightblue" points="786.97,-108.63 796.9,-112.32 791.44,-103.24 786.97,-108.63"/>
</g>
<!-- Node6 -->
<g id="node6" class="node">
<title>Node6</title>
<g id="a_node6"><a xlink:href="bloodvessel_8hpp.html" target="_top" xlink:title="MODEL::BloodVessel source file.">
<polygon fill="none" stroke="black" points="273.34,-0.5 273.34,-19.5 389.34,-19.5 389.34,-0.5 273.34,-0.5"/>
<text text-anchor="middle" x="331.34" y="-7.5" font-family="Helvetica,sans-Serif" font-size="10.00">model/bloodvessel.hpp</text>
</a>
</g>
</g>
<!-- Node3&#45;&gt;Node6 -->
<g id="edge19" class="edge">
<title>Node3&#45;&gt;Node6</title>
<path fill="none" stroke="midnightblue" d="M757.99,-110.37C716.64,-101.4 656.08,-88.12 603.34,-76 517.93,-56.38 417.74,-32.11 366.07,-19.51"/>
<polygon fill="midnightblue" stroke="midnightblue" points="757.29,-113.8 767.81,-112.49 758.77,-106.95 757.29,-113.8"/>
</g>
<!-- Node7 -->
<g id="node7" class="node">
<title>Node7</title>
<g id="a_node7"><a xlink:href="closedloopheartpulmonary_8hpp.html" target="_top" xlink:title="MODEL::ClosedLoopHeartPulmonary source file.">
<polygon fill="none" stroke="black" points="841.34,-0.5 841.34,-19.5 1017.34,-19.5 1017.34,-0.5 841.34,-0.5"/>
<text text-anchor="middle" x="929.34" y="-7.5" font-family="Helvetica,sans-Serif" font-size="10.00">model/closedloopheartpulmonary.hpp</text>
</a>
</g>
</g>
<!-- Node3&#45;&gt;Node7 -->
<g id="edge20" class="edge">
<title>Node3&#45;&gt;Node7</title>
<path fill="none" stroke="midnightblue" d="M850.37,-109.11C869.03,-102.09 889.87,-91.47 904.34,-76 919.53,-59.75 925.8,-33.28 928.13,-19.68"/>
<polygon fill="midnightblue" stroke="midnightblue" points="849.13,-105.84 840.86,-112.46 851.45,-112.44 849.13,-105.84"/>
</g>
<!-- Node8 -->
<g id="node8" class="node">
<title>Node8</title>
<g id="a_node8"><a xlink:href="flowreferencebc_8hpp.html" target="_top" xlink:title="MODEL::FlowReferenceBC source file.">
<polygon fill="none" stroke="black" points="407.34,-0.5 407.34,-19.5 539.34,-19.5 539.34,-0.5 407.34,-0.5"/>
<text text-anchor="middle" x="473.34" y="-7.5" font-family="Helvetica,sans-Serif" font-size="10.00">model/flowreferencebc.hpp</text>
</a>
</g>
</g>
<!-- Node3&#45;&gt;Node8 -->
<g id="edge21" class="edge">
<title>Node3&#45;&gt;Node8</title>
<path fill="none" stroke="midnightblue" d="M769.91,-109.48C741.02,-100.53 700.07,-87.7 664.34,-76 604.42,-56.38 534.34,-32.22 498,-19.6"/>
<polygon fill="midnightblue" stroke="midnightblue" points="769.01,-112.87 779.6,-112.48 771.08,-106.18 769.01,-112.87"/>
</g>
<!-- Node9 -->
<g id="node9" class="node">
<title>Node9</title>
<g id="a_node9"><a xlink:href="junction_8hpp.html" target="_top" xlink:title="MODEL::Junction source file.">
<polygon fill="none" stroke="black" points="725.34,-0.5 725.34,-19.5 823.34,-19.5 823.34,-0.5 725.34,-0.5"/>
<text text-anchor="middle" x="774.34" y="-7.5" font-family="Helvetica,sans-Serif" font-size="10.00">model/junction.hpp</text>
</a>
</g>
</g>
<!-- Node3&#45;&gt;Node9 -->
<g id="edge22" class="edge">
<title>Node3&#45;&gt;Node9</title>
<path fill="none" stroke="midnightblue" d="M819.9,-103.68C827.95,-90.32 835.63,-71.56 828.34,-56 820.68,-39.64 803.83,-27.16 790.97,-19.54"/>
<polygon fill="midnightblue" stroke="midnightblue" points="816.78,-102.05 814.19,-112.33 822.62,-105.91 816.78,-102.05"/>
</g>
<!-- Node10 -->
<g id="node10" class="node">
<title>Node10</title>
<g id="a_node10"><a xlink:href="openloopcoronarybc_8hpp.html" target="_top" xlink:title="MODEL::OpenLoopCoronaryBC source file.">
<polygon fill="none" stroke="black" points="557.34,-0.5 557.34,-19.5 707.34,-19.5 707.34,-0.5 557.34,-0.5"/>
<text text-anchor="middle" x="632.34" y="-7.5" font-family="Helvetica,sans-Serif" font-size="10.00">model/openloopcoronarybc.hpp</text>
</a>
</g>
</g>
<!-- Node3&#45;&gt;Node10 -->
<g id="edge24" class="edge">
<title>Node3&#45;&gt;Node10</title>
<path fill="none" stroke="midnightblue" d="M762.53,-109.56C739.36,-102.3 711.39,-91.33 689.34,-76 666.67,-60.23 647.14,-33.55 637.95,-19.79"/>
<polygon fill="midnightblue" stroke="midnightblue" points="761.55,-112.92 772.14,-112.45 763.57,-106.22 761.55,-112.92"/>
</g>
<!-- Node11 -->
<g id="node11" class="node">
<title>Node11</title>
<g id="a_node11"><a xlink:href="pressurereferencebc_8hpp.html" target="_top" xlink:title="MODEL::PressureReferenceBC source file.">
<polygon fill="none" stroke="black" points="103.34,-0.5 103.34,-19.5 255.34,-19.5 255.34,-0.5 103.34,-0.5"/>
<text text-anchor="middle" x="179.34" y="-7.5" font-family="Helvetica,sans-Serif" font-size="10.00">model/pressurereferencebc.hpp</text>
</a>
</g>
</g>
<!-- Node3&#45;&gt;Node11 -->
<g id="edge25" class="edge">
<title>Node3&#45;&gt;Node11</title>
<path fill="none" stroke="midnightblue" d="M734.4,-111.07C675.62,-102.73 590.92,-89.96 517.34,-76 477.51,-68.44 468.08,-64.05 428.34,-56 359.88,-42.13 280.41,-28.13 230.01,-19.51"/>
<polygon fill="midnightblue" stroke="midnightblue" points="733.95,-114.54 744.34,-112.47 734.93,-107.6 733.95,-114.54"/>
</g>
<!-- Node12 -->
<g id="node12" class="node">
<title>Node12</title>
<g id="a_node12"><a xlink:href="windkesselbc_8hpp.html" target="_top" xlink:title="MODEL::WindkesselBC source file.">
<polygon fill="none" stroke="black" points="1035.84,-0.5 1035.84,-19.5 1158.84,-19.5 1158.84,-0.5 1035.84,-0.5"/>
<text text-anchor="middle" x="1097.34" y="-7.5" font-family="Helvetica,sans-Serif" font-size="10.00">model/windkesselbc.hpp</text>
</a>
</g>
</g>
<!-- Node3&#45;&gt;Node12 -->
<g id="edge27" class="edge">
<title>Node3&#45;&gt;Node12</title>
<path fill="none" stroke="midnightblue" d="M862.68,-110.34C897.21,-102.79 942.19,-91.27 980.34,-76 1020.25,-60.02 1063.58,-33.19 1084.54,-19.54"/>
<polygon fill="midnightblue" stroke="midnightblue" points="861.83,-106.95 852.78,-112.47 863.29,-113.79 861.83,-106.95"/>
</g>
<!-- Node5&#45;&gt;Node1 -->
<g id="edge16" class="edge">
<title>Node5&#45;&gt;Node1</title>
<path fill="none" stroke="midnightblue" d="M795.86,-69.72C825.91,-74.33 861.13,-85.52 880.34,-112 915.87,-160.96 820.33,-206.22 774.4,-224.48"/>
<polygon fill="midnightblue" stroke="midnightblue" points="796.27,-66.25 785.9,-68.4 795.35,-73.19 796.27,-66.25"/>
</g>
<!-- Node5&#45;&gt;Node6 -->
<g id="edge5" class="edge">
<title>Node5&#45;&gt;Node6</title>
<path fill="none" stroke="midnightblue" d="M688.62,-58.03C620.92,-49.23 501,-33.61 398.34,-20 395.43,-19.61 392.45,-19.22 389.44,-18.82"/>
<polygon fill="midnightblue" stroke="midnightblue" points="688.25,-61.51 698.62,-59.33 689.16,-54.57 688.25,-61.51"/>
</g>
<!-- Node5&#45;&gt;Node7 -->
<g id="edge7" class="edge">
<title>Node5&#45;&gt;Node7</title>
<path fill="none" stroke="midnightblue" d="M781.93,-53.57C817.21,-43.38 868.04,-28.7 899.85,-19.52"/>
<polygon fill="midnightblue" stroke="midnightblue" points="780.61,-50.31 771.97,-56.44 782.55,-57.03 780.61,-50.31"/>
</g>
<!-- Node5&#45;&gt;Node8 -->
<g id="edge8" class="edge">
<title>Node5&#45;&gt;Node8</title>
<path fill="none" stroke="midnightblue" d="M689.9,-54.47C639.06,-44.27 562.91,-28.98 515.77,-19.52"/>
<polygon fill="midnightblue" stroke="midnightblue" points="689.22,-57.91 699.72,-56.44 690.6,-51.04 689.22,-57.91"/>
</g>
<!-- Node5&#45;&gt;Node9 -->
<g id="edge10" class="edge">
<title>Node5&#45;&gt;Node9</title>
<path fill="none" stroke="midnightblue" d="M752.85,-47.27C758.31,-38.05 764.76,-27.17 769.16,-19.75"/>
<polygon fill="midnightblue" stroke="midnightblue" points="749.71,-45.7 747.63,-56.08 755.73,-49.26 749.71,-45.7"/>
</g>
<!-- Node5&#45;&gt;Node10 -->
<g id="edge12" class="edge">
<title>Node5&#45;&gt;Node10</title>
<path fill="none" stroke="midnightblue" d="M715.58,-51.86C695.18,-41.85 667.68,-28.35 649.97,-19.65"/>
<polygon fill="midnightblue" stroke="midnightblue" points="714.15,-55.06 724.67,-56.32 717.23,-48.78 714.15,-55.06"/>
</g>
<!-- Node5&#45;&gt;Node11 -->
<g id="edge14" class="edge">
<title>Node5&#45;&gt;Node11</title>
<path fill="none" stroke="midnightblue" d="M688.77,-60.16C600.35,-52.13 418.32,-35.4 264.34,-20 261.54,-19.72 258.68,-19.43 255.79,-19.14"/>
<polygon fill="midnightblue" stroke="midnightblue" points="688.55,-63.66 698.83,-61.07 689.18,-56.68 688.55,-63.66"/>
</g>
<!-- Node5&#45;&gt;Node12 -->
<g id="edge17" class="edge">
<title>Node5&#45;&gt;Node12</title>
<path fill="none" stroke="midnightblue" d="M796.08,-56.83C862.2,-46.77 973.94,-29.77 1041.16,-19.55"/>
<polygon fill="midnightblue" stroke="midnightblue" points="795.23,-53.41 785.87,-58.38 796.28,-60.33 795.23,-53.41"/>
</g>
<!-- Node6&#45;&gt;Node2 -->
<g id="edge6" class="edge">
<title>Node6&#45;&gt;Node2</title>
<path fill="none" stroke="midnightblue" d="M278.36,-21.6C179.73,-42.49 -18.75,-90.53 19.34,-132 51.76,-167.3 380.72,-174.94 502.94,-176.57"/>
<polygon fill="midnightblue" stroke="midnightblue" points="279.08,-25.03 288.15,-19.55 277.65,-18.17 279.08,-25.03"/>
</g>
<!-- Node8&#45;&gt;Node2 -->
<g id="edge9" class="edge">
<title>Node8&#45;&gt;Node2</title>
<path fill="none" stroke="midnightblue" d="M481.53,-29.12C497.53,-64.55 532.45,-141.83 544.31,-168.08"/>
<polygon fill="midnightblue" stroke="midnightblue" points="484.52,-27.24 477.21,-19.57 478.14,-30.12 484.52,-27.24"/>
</g>
<!-- Node9&#45;&gt;Node2 -->
<g id="edge11" class="edge">
<title>Node9&#45;&gt;Node2</title>
<path fill="none" stroke="midnightblue" d="M801.13,-24.25C842.71,-46.5 914.6,-92.78 880.34,-132 843.65,-174 675.66,-178.33 593.65,-177.86"/>
<polygon fill="midnightblue" stroke="midnightblue" points="802.52,-21.02 792.03,-19.5 799.28,-27.23 802.52,-21.02"/>
</g>
<!-- Node10&#45;&gt;Node2 -->
<g id="edge13" class="edge">
<title>Node10&#45;&gt;Node2</title>
<path fill="none" stroke="midnightblue" d="M623.4,-28.66C605.58,-63.88 566.19,-141.72 552.86,-168.08"/>
<polygon fill="midnightblue" stroke="midnightblue" points="626.61,-30.07 628.01,-19.57 620.37,-26.91 626.61,-30.07"/>
</g>
<!-- Node11&#45;&gt;Node2 -->
<g id="edge15" class="edge">
<title>Node11&#45;&gt;Node2</title>
<path fill="none" stroke="midnightblue" d="M137.45,-22.43C74.22,-41.62 -33.7,-83.03 11.34,-132 44.35,-167.89 379.8,-175.17 503.15,-176.63"/>
<polygon fill="midnightblue" stroke="midnightblue" points="138.6,-25.75 147.19,-19.55 136.61,-19.04 138.6,-25.75"/>
</g>
<!-- Node12&#45;&gt;Node2 -->
<g id="edge18" class="edge">
<title>Node12&#45;&gt;Node2</title>
<path fill="none" stroke="midnightblue" d="M1079.77,-26.33C1063.29,-40.28 1037.62,-60.92 1013.34,-76 965.05,-106 952.81,-115.72 898.34,-132 792.1,-163.76 661.13,-173.11 593.51,-175.85"/>
<polygon fill="midnightblue" stroke="midnightblue" points="1082.17,-28.88 1087.49,-19.71 1077.62,-23.56 1082.17,-28.88"/>
</g>
<!-- Node13&#45;&gt;Node4 -->
<g id="edge29" class="edge">
<title>Node13&#45;&gt;Node4</title>
<path fill="none" stroke="midnightblue" d="M123.04,-109.66C159.28,-99.3 211.95,-84.25 244.08,-75.08"/>
<polygon fill="midnightblue" stroke="midnightblue" points="121.94,-106.33 113.29,-112.44 123.87,-113.06 121.94,-106.33"/>
</g>
<!-- Node14&#45;&gt;Node1 -->
<g id="edge40" class="edge">
<title>Node14&#45;&gt;Node1</title>
<path fill="none" stroke="midnightblue" d="M673.88,-139.36C693.47,-163.05 729.05,-206.05 744.2,-224.37"/>
<polygon fill="midnightblue" stroke="midnightblue" points="676.52,-137.07 667.45,-131.59 671.13,-141.53 676.52,-137.07"/>
</g>
<!-- Node14&#45;&gt;Node2 -->
<g id="edge37" class="edge">
<title>Node14&#45;&gt;Node2</title>
<path fill="none" stroke="midnightblue" d="M638.73,-136.27C619.26,-146.31 591.01,-159.79 571.18,-168.44"/>
<polygon fill="midnightblue" stroke="midnightblue" points="640.54,-139.27 647.76,-131.52 637.28,-133.08 640.54,-139.27"/>
</g>
<!-- Node14&#45;&gt;Node4 -->
<g id="edge31" class="edge">
<title>Node14&#45;&gt;Node4</title>
<path fill="none" stroke="midnightblue" d="M588.84,-111.05C502.25,-99 360.56,-79.28 300.58,-70.93"/>
<polygon fill="midnightblue" stroke="midnightblue" points="588.47,-114.53 598.86,-112.44 589.44,-107.6 588.47,-114.53"/>
</g>
<!-- Node14&#45;&gt;Node5 -->
<g id="edge32" class="edge">
<title>Node14&#45;&gt;Node5</title>
<path fill="none" stroke="midnightblue" d="M682.17,-106.62C697.15,-96.76 716.54,-83.99 729.2,-75.65"/>
<polygon fill="midnightblue" stroke="midnightblue" points="679.94,-103.9 673.52,-112.32 683.79,-109.75 679.94,-103.9"/>
</g>
<!-- Node14&#45;&gt;Node6 -->
<g id="edge33" class="edge">
<title>Node14&#45;&gt;Node6</title>
<path fill="none" stroke="midnightblue" d="M621.51,-109.52C592.01,-100.68 550.49,-87.98 514.34,-76 456.42,-56.8 388.92,-32.25 354.34,-19.52"/>
<polygon fill="midnightblue" stroke="midnightblue" points="620.83,-112.97 631.42,-112.48 622.84,-106.26 620.83,-112.97"/>
</g>
<!-- Node14&#45;&gt;Node7 -->
<g id="edge34" class="edge">
<title>Node14&#45;&gt;Node7</title>
<path fill="none" stroke="midnightblue" d="M706.68,-109.94C737.02,-102.04 777.22,-90.29 811.34,-76 851.04,-59.38 894.63,-33.07 916.01,-19.59"/>
<polygon fill="midnightblue" stroke="midnightblue" points="705.61,-106.6 696.79,-112.47 707.35,-113.38 705.61,-106.6"/>
</g>
<!-- Node14&#45;&gt;Node8 -->
<g id="edge35" class="edge">
<title>Node14&#45;&gt;Node8</title>
<path fill="none" stroke="midnightblue" d="M618.55,-109.48C595.1,-101.96 565.91,-90.78 542.34,-76 516.68,-59.92 492.26,-33.37 480.56,-19.72"/>
<polygon fill="midnightblue" stroke="midnightblue" points="617.63,-112.86 628.22,-112.48 619.71,-106.17 617.63,-112.86"/>
</g>
<!-- Node14&#45;&gt;Node9 -->
<g id="edge36" class="edge">
<title>Node14&#45;&gt;Node9</title>
<path fill="none" stroke="midnightblue" d="M712.69,-110.17C746.22,-102.04 785.28,-89.95 795.34,-76 807.96,-58.49 792.02,-33.02 781.75,-19.76"/>
<polygon fill="midnightblue" stroke="midnightblue" points="711.89,-106.76 702.95,-112.45 713.49,-113.57 711.89,-106.76"/>
</g>
<!-- Node14&#45;&gt;Node10 -->
<g id="edge38" class="edge">
<title>Node14&#45;&gt;Node10</title>
<path fill="none" stroke="midnightblue" d="M655.68,-102.67C649.55,-78.62 639.06,-37.39 634.53,-19.59"/>
<polygon fill="midnightblue" stroke="midnightblue" points="652.29,-103.54 658.14,-112.37 659.07,-101.81 652.29,-103.54"/>
</g>
<!-- Node14&#45;&gt;Node11 -->
<g id="edge39" class="edge">
<title>Node14&#45;&gt;Node11</title>
<path fill="none" stroke="midnightblue" d="M610.75,-110.34C569.2,-101.35 508.35,-88.06 455.34,-76 368.94,-56.34 267.59,-32.19 215.03,-19.59"/>
<polygon fill="midnightblue" stroke="midnightblue" points="610.11,-113.78 620.62,-112.47 611.58,-106.93 610.11,-113.78"/>
</g>
<!-- Node14&#45;&gt;Node12 -->
<g id="edge41" class="edge">
<title>Node14&#45;&gt;Node12</title>
<path fill="none" stroke="midnightblue" d="M706.29,-110.01C743.75,-101.01 798.01,-87.86 845.34,-76 924.23,-56.23 1016.77,-32.13 1064.76,-19.56"/>
<polygon fill="midnightblue" stroke="midnightblue" points="705.1,-106.7 696.19,-112.44 706.73,-113.5 705.1,-106.7"/>
</g>
<!-- Node15&#45;&gt;Node4 -->
<g id="edge43" class="edge">
<title>Node15&#45;&gt;Node4</title>
<path fill="none" stroke="midnightblue" d="M224.18,-105.82C236.18,-96.15 251.31,-83.95 261.38,-75.83"/>
<polygon fill="midnightblue" stroke="midnightblue" points="221.7,-103.32 216.11,-112.32 226.09,-108.77 221.7,-103.32"/>
</g>
<!-- Node16&#45;&gt;Node4 -->
<g id="edge45" class="edge">
<title>Node16&#45;&gt;Node4</title>
<path fill="none" stroke="midnightblue" d="M301.92,-104.14C294.43,-94.74 285.4,-83.4 279.31,-75.75"/>
<polygon fill="midnightblue" stroke="midnightblue" points="299.27,-106.44 308.24,-112.08 304.75,-102.08 299.27,-106.44"/>
</g>
<!-- Node17&#45;&gt;Node4 -->
<g id="edge47" class="edge">
<title>Node17&#45;&gt;Node4</title>
<path fill="none" stroke="midnightblue" d="M386.42,-108.91C358.78,-98.75 320,-84.51 295.52,-75.52"/>
<polygon fill="midnightblue" stroke="midnightblue" points="385.46,-112.28 396.05,-112.44 387.87,-105.71 385.46,-112.28"/>
</g>
</g>
</svg>
