<?xml version="1.0" encoding="UTF-8" standalone="no"?>
<!DOCTYPE svg PUBLIC "-//W3C//DTD SVG 1.1//EN"
 "http://www.w3.org/Graphics/SVG/1.1/DTD/svg11.dtd">
<!-- Generated by graphviz version 3.0.0 (20221109.1736)
 -->
<!-- Title: algebra/sparsesystem.hpp Pages: 1 -->
<svg width="1864pt" height="364pt"
 viewBox="0.00 0.00 1863.52 364.00" xmlns="http://www.w3.org/2000/svg" xmlns:xlink="http://www.w3.org/1999/xlink">
<g id="graph0" class="graph" transform="scale(1 1) rotate(0) translate(4 360)">
<title>algebra/sparsesystem.hpp</title>
<!-- Node1 -->
<g id="node1" class="node">
<title>Node1</title>
<g id="a_node1"><a xlink:title="ALGEBRA::SparseSystem source file.">
<polygon fill="#bfbfbf" stroke="black" points="874,-336.5 874,-355.5 1004,-355.5 1004,-336.5 874,-336.5"/>
<text text-anchor="middle" x="939" y="-343.5" font-family="Helvetica,sans-Serif" font-size="10.00">algebra/sparsesystem.hpp</text>
</a>
</g>
</g>
<!-- Node2 -->
<g id="node2" class="node">
<title>Node2</title>
<g id="a_node2"><a xlink:href="block_8hpp.html" target="_top" xlink:title="MODEL::Block source file.">
<polygon fill="none" stroke="black" points="823.5,-280.5 823.5,-299.5 910.5,-299.5 910.5,-280.5 823.5,-280.5"/>
<text text-anchor="middle" x="867" y="-287.5" font-family="Helvetica,sans-Serif" font-size="10.00">model/block.hpp</text>
</a>
</g>
</g>
<!-- Node1&#45;&gt;Node2 -->
<g id="edge1" class="edge">
<title>Node1&#45;&gt;Node2</title>
<path fill="none" stroke="midnightblue" d="M919.13,-330.1C906.18,-320.38 889.7,-308.03 878.78,-299.83"/>
<polygon fill="midnightblue" stroke="midnightblue" points="917.33,-333.12 927.43,-336.32 921.53,-327.52 917.33,-333.12"/>
</g>
<!-- Node7 -->
<g id="node7" class="node">
<title>Node7</title>
<g id="a_node7"><a xlink:href="bloodvessel_8hpp.html" target="_top" xlink:title="MODEL::BloodVessel source file.">
<polygon fill="none" stroke="black" points="304,-224.5 304,-243.5 420,-243.5 420,-224.5 304,-224.5"/>
<text text-anchor="middle" x="362" y="-231.5" font-family="Helvetica,sans-Serif" font-size="10.00">model/bloodvessel.hpp</text>
</a>
</g>
</g>
<!-- Node1&#45;&gt;Node7 -->
<g id="edge39" class="edge">
<title>Node1&#45;&gt;Node7</title>
<path fill="none" stroke="midnightblue" d="M884.33,-334.58C770.76,-312.93 511.22,-263.45 406.77,-243.53"/>
<polygon fill="midnightblue" stroke="midnightblue" points="883.73,-338.03 894.2,-336.46 885.04,-331.15 883.73,-338.03"/>
</g>
<!-- Node8 -->
<g id="node8" class="node">
<title>Node8</title>
<g id="a_node8"><a xlink:href="bloodvesseljunction_8hpp.html" target="_top" xlink:title="MODEL::BloodVesselJunction source file.">
<polygon fill="none" stroke="black" points="381.5,-168.5 381.5,-187.5 530.5,-187.5 530.5,-168.5 381.5,-168.5"/>
<text text-anchor="middle" x="456" y="-175.5" font-family="Helvetica,sans-Serif" font-size="10.00">model/bloodvesseljunction.hpp</text>
</a>
</g>
</g>
<!-- Node1&#45;&gt;Node8 -->
<g id="edge40" class="edge">
<title>Node1&#45;&gt;Node8</title>
<path fill="none" stroke="midnightblue" d="M863.44,-345.04C709.1,-343.33 366.22,-329.74 295,-244 266.06,-209.16 326.55,-192.83 381.46,-185.28"/>
<polygon fill="midnightblue" stroke="midnightblue" points="863.74,-348.55 873.77,-345.14 863.8,-341.55 863.74,-348.55"/>
</g>
<!-- Node9 -->
<g id="node9" class="node">
<title>Node9</title>
<g id="a_node9"><a xlink:href="closedloop_r_c_rbc_8hpp.html" target="_top" xlink:title="MODEL::ClosedLoopRCRBC source file.">
<polygon fill="none" stroke="black" points="1321.5,-224.5 1321.5,-243.5 1462.5,-243.5 1462.5,-224.5 1321.5,-224.5"/>
<text text-anchor="middle" x="1392" y="-231.5" font-family="Helvetica,sans-Serif" font-size="10.00">model/closedloopRCRbc.hpp</text>
</a>
</g>
</g>
<!-- Node1&#45;&gt;Node9 -->
<g id="edge41" class="edge">
<title>Node1&#45;&gt;Node9</title>
<path fill="none" stroke="midnightblue" d="M984.1,-334.05C1074.35,-312.13 1275.51,-263.29 1356.85,-243.53"/>
<polygon fill="midnightblue" stroke="midnightblue" points="983.06,-330.7 974.17,-336.46 984.71,-337.5 983.06,-330.7"/>
</g>
<!-- Node10 -->
<g id="node10" class="node">
<title>Node10</title>
<g id="a_node10"><a xlink:href="closedloopcoronarybc_8hpp.html" target="_top" xlink:title="MODEL::ClosedLoopCoronaryBC source file.">
<polygon fill="none" stroke="black" points="1481,-224.5 1481,-243.5 1639,-243.5 1639,-224.5 1481,-224.5"/>
<text text-anchor="middle" x="1560" y="-231.5" font-family="Helvetica,sans-Serif" font-size="10.00">model/closedloopcoronarybc.hpp</text>
</a>
</g>
</g>
<!-- Node1&#45;&gt;Node10 -->
<g id="edge42" class="edge">
<title>Node1&#45;&gt;Node10</title>
<path fill="none" stroke="midnightblue" d="M997.1,-334.71C1118.94,-313.13 1399.17,-263.49 1511.82,-243.53"/>
<polygon fill="midnightblue" stroke="midnightblue" points="996.45,-331.27 987.21,-336.46 997.67,-338.16 996.45,-331.27"/>
</g>
<!-- Node11 -->
<g id="node11" class="node">
<title>Node11</title>
<g id="a_node11"><a xlink:href="closedloopheartpulmonary_8hpp.html" target="_top" xlink:title="MODEL::ClosedLoopHeartPulmonary source file.">
<polygon fill="none" stroke="black" points="1657,-224.5 1657,-243.5 1833,-243.5 1833,-224.5 1657,-224.5"/>
<text text-anchor="middle" x="1745" y="-231.5" font-family="Helvetica,sans-Serif" font-size="10.00">model/closedloopheartpulmonary.hpp</text>
</a>
</g>
</g>
<!-- Node1&#45;&gt;Node11 -->
<g id="edge43" class="edge">
<title>Node1&#45;&gt;Node11</title>
<path fill="none" stroke="midnightblue" d="M1011.58,-335.09C1168.16,-313.73 1535.38,-263.61 1682.47,-243.53"/>
<polygon fill="midnightblue" stroke="midnightblue" points="1011.01,-331.64 1001.57,-336.46 1011.96,-338.58 1011.01,-331.64"/>
</g>
<!-- Node12 -->
<g id="node12" class="node">
<title>Node12</title>
<g id="a_node12"><a xlink:href="flowreferencebc_8hpp.html" target="_top" xlink:title="MODEL::FlowReferenceBC source file.">
<polygon fill="none" stroke="black" points="0,-224.5 0,-243.5 132,-243.5 132,-224.5 0,-224.5"/>
<text text-anchor="middle" x="66" y="-231.5" font-family="Helvetica,sans-Serif" font-size="10.00">model/flowreferencebc.hpp</text>
</a>
</g>
</g>
<!-- Node1&#45;&gt;Node12 -->
<g id="edge44" class="edge">
<title>Node1&#45;&gt;Node12</title>
<path fill="none" stroke="midnightblue" d="M863.96,-343.18C707.23,-338.9 349.81,-326.49 231,-300 174.5,-287.4 112,-258.25 82.78,-243.66"/>
<polygon fill="midnightblue" stroke="midnightblue" points="863.9,-346.68 873.99,-343.45 864.09,-339.68 863.9,-346.68"/>
</g>
<!-- Node13 -->
<g id="node13" class="node">
<title>Node13</title>
<g id="a_node13"><a xlink:href="junction_8hpp.html" target="_top" xlink:title="MODEL::Junction source file.">
<polygon fill="none" stroke="black" points="150,-224.5 150,-243.5 248,-243.5 248,-224.5 150,-224.5"/>
<text text-anchor="middle" x="199" y="-231.5" font-family="Helvetica,sans-Serif" font-size="10.00">model/junction.hpp</text>
</a>
</g>
</g>
<!-- Node1&#45;&gt;Node13 -->
<g id="edge45" class="edge">
<title>Node1&#45;&gt;Node13</title>
<path fill="none" stroke="midnightblue" d="M863.81,-343.04C698.82,-338.3 315.46,-324.76 262,-300 235.19,-287.58 213.78,-258.35 204.3,-243.69"/>
<polygon fill="midnightblue" stroke="midnightblue" points="863.79,-346.54 873.88,-343.33 863.98,-339.54 863.79,-346.54"/>
</g>
<!-- Node14 -->
<g id="node14" class="node">
<title>Node14</title>
<g id="a_node14"><a xlink:href="model_8hpp.html" target="_top" xlink:title="MODEL::Model source file.">
<polygon fill="none" stroke="black" points="1118,-168.5 1118,-187.5 1208,-187.5 1208,-168.5 1118,-168.5"/>
<text text-anchor="middle" x="1163" y="-175.5" font-family="Helvetica,sans-Serif" font-size="10.00">model/model.hpp</text>
</a>
</g>
</g>
<!-- Node1&#45;&gt;Node14 -->
<g id="edge46" class="edge">
<title>Node1&#45;&gt;Node14</title>
<path fill="none" stroke="midnightblue" d="M1014.26,-342.06C1219.79,-333.47 1778.58,-305.05 1833,-244 1838.91,-237.36 1839.07,-230.49 1833,-224 1790.16,-178.23 1351.61,-177.42 1208.09,-178.48"/>
<polygon fill="midnightblue" stroke="midnightblue" points="1014,-338.57 1004.15,-342.48 1014.29,-345.56 1014,-338.57"/>
</g>
<!-- Node17 -->
<g id="node17" class="node">
<title>Node17</title>
<g id="a_node17"><a xlink:href="openloopcoronarybc_8hpp.html" target="_top" xlink:title="MODEL::OpenLoopCoronaryBC source file.">
<polygon fill="none" stroke="black" points="476,-224.5 476,-243.5 626,-243.5 626,-224.5 476,-224.5"/>
<text text-anchor="middle" x="551" y="-231.5" font-family="Helvetica,sans-Serif" font-size="10.00">model/openloopcoronarybc.hpp</text>
</a>
</g>
</g>
<!-- Node1&#45;&gt;Node17 -->
<g id="edge47" class="edge">
<title>Node1&#45;&gt;Node17</title>
<path fill="none" stroke="midnightblue" d="M898.07,-333.64C865.52,-324.58 818.82,-311.55 778,-300 707.2,-279.97 624.08,-256.07 580.73,-243.58"/>
<polygon fill="midnightblue" stroke="midnightblue" points="897.55,-337.12 908.12,-336.43 899.42,-330.38 897.55,-337.12"/>
</g>
<!-- Node18 -->
<g id="node18" class="node">
<title>Node18</title>
<g id="a_node18"><a xlink:href="pressurereferencebc_8hpp.html" target="_top" xlink:title="MODEL::PressureReferenceBC source file.">
<polygon fill="none" stroke="black" points="644,-224.5 644,-243.5 796,-243.5 796,-224.5 644,-224.5"/>
<text text-anchor="middle" x="720" y="-231.5" font-family="Helvetica,sans-Serif" font-size="10.00">model/pressurereferencebc.hpp</text>
</a>
</g>
</g>
<!-- Node1&#45;&gt;Node18 -->
<g id="edge48" class="edge">
<title>Node1&#45;&gt;Node18</title>
<path fill="none" stroke="midnightblue" d="M898.97,-333.51C873.88,-325.61 841.25,-314.02 814,-300 781.54,-283.29 747.18,-257.02 730.42,-243.57"/>
<polygon fill="midnightblue" stroke="midnightblue" points="897.95,-336.86 908.54,-336.46 900.01,-330.17 897.95,-336.86"/>
</g>
<!-- Node19 -->
<g id="node19" class="node">
<title>Node19</title>
<g id="a_node19"><a xlink:href="resistancebc_8hpp.html" target="_top" xlink:title="MODEL::ResistanceBC source file.">
<polygon fill="none" stroke="black" points="852.5,-224.5 852.5,-243.5 971.5,-243.5 971.5,-224.5 852.5,-224.5"/>
<text text-anchor="middle" x="912" y="-231.5" font-family="Helvetica,sans-Serif" font-size="10.00">model/resistancebc.hpp</text>
</a>
</g>
</g>
<!-- Node1&#45;&gt;Node19 -->
<g id="edge49" class="edge">
<title>Node1&#45;&gt;Node19</title>
<path fill="none" stroke="midnightblue" d="M934.42,-326.35C928.51,-302.25 918.46,-261.31 914.11,-243.59"/>
<polygon fill="midnightblue" stroke="midnightblue" points="931.1,-327.49 936.88,-336.37 937.9,-325.82 931.1,-327.49"/>
</g>
<!-- Node20 -->
<g id="node20" class="node">
<title>Node20</title>
<g id="a_node20"><a xlink:href="resistivejunction_8hpp.html" target="_top" xlink:title="MODEL::ResistiveJunction source file.">
<polygon fill="none" stroke="black" points="990,-224.5 990,-243.5 1124,-243.5 1124,-224.5 990,-224.5"/>
<text text-anchor="middle" x="1057" y="-231.5" font-family="Helvetica,sans-Serif" font-size="10.00">model/resistivejunction.hpp</text>
</a>
</g>
</g>
<!-- Node1&#45;&gt;Node20 -->
<g id="edge50" class="edge">
<title>Node1&#45;&gt;Node20</title>
<path fill="none" stroke="midnightblue" d="M955.61,-329.51C980.83,-306.01 1027.92,-262.11 1047.78,-243.59"/>
<polygon fill="midnightblue" stroke="midnightblue" points="953.19,-326.99 948.26,-336.37 957.96,-332.11 953.19,-326.99"/>
</g>
<!-- Node21 -->
<g id="node21" class="node">
<title>Node21</title>
<g id="a_node21"><a xlink:href="windkesselbc_8hpp.html" target="_top" xlink:title="MODEL::WindkesselBC source file.">
<polygon fill="none" stroke="black" points="1180.5,-224.5 1180.5,-243.5 1303.5,-243.5 1303.5,-224.5 1180.5,-224.5"/>
<text text-anchor="middle" x="1242" y="-231.5" font-family="Helvetica,sans-Serif" font-size="10.00">model/windkesselbc.hpp</text>
</a>
</g>
</g>
<!-- Node1&#45;&gt;Node21 -->
<g id="edge51" class="edge">
<title>Node1&#45;&gt;Node21</title>
<path fill="none" stroke="midnightblue" d="M972.43,-332.86C1034.2,-310.44 1164.79,-263.03 1218.33,-243.59"/>
<polygon fill="midnightblue" stroke="midnightblue" points="970.98,-329.67 962.78,-336.37 973.37,-336.25 970.98,-329.67"/>
</g>
<!-- Node3 -->
<g id="node3" class="node">
<title>Node3</title>
<g id="a_node3"><a xlink:href="configreader_8hpp.html" target="_top" xlink:title="IO::ConfigReader source file.">
<polygon fill="none" stroke="black" points="851,-112.5 851,-131.5 949,-131.5 949,-112.5 851,-112.5"/>
<text text-anchor="middle" x="900" y="-119.5" font-family="Helvetica,sans-Serif" font-size="10.00">io/configreader.hpp</text>
</a>
</g>
</g>
<!-- Node2&#45;&gt;Node3 -->
<g id="edge2" class="edge">
<title>Node2&#45;&gt;Node3</title>
<path fill="none" stroke="midnightblue" d="M854.58,-271.98C846.66,-259.03 838.62,-240.66 843,-224 852.87,-186.42 880.26,-148.1 893.14,-131.51"/>
<polygon fill="midnightblue" stroke="midnightblue" points="851.7,-273.96 860.16,-280.34 857.53,-270.08 851.7,-273.96"/>
</g>
<!-- Node2&#45;&gt;Node7 -->
<g id="edge6" class="edge">
<title>Node2&#45;&gt;Node7</title>
<path fill="none" stroke="midnightblue" d="M813.27,-283.78C731.38,-275.74 570.46,-259.62 434,-244 429.49,-243.48 424.83,-242.94 420.15,-242.37"/>
<polygon fill="midnightblue" stroke="midnightblue" points="813.04,-287.27 823.33,-284.76 813.72,-280.31 813.04,-287.27"/>
</g>
<!-- Node2&#45;&gt;Node8 -->
<g id="edge10" class="edge">
<title>Node2&#45;&gt;Node8</title>
<path fill="none" stroke="midnightblue" d="M813.22,-286.5C709.91,-281.2 491.7,-267.36 467,-244 451.53,-229.37 452.74,-201.69 454.55,-187.64"/>
<polygon fill="midnightblue" stroke="midnightblue" points="813.28,-290.01 823.44,-287.02 813.63,-283.02 813.28,-290.01"/>
</g>
<!-- Node2&#45;&gt;Node9 -->
<g id="edge11" class="edge">
<title>Node2&#45;&gt;Node9</title>
<path fill="none" stroke="midnightblue" d="M920.75,-283.8C1004.57,-275.65 1171.5,-259.2 1313,-244 1315.75,-243.71 1318.54,-243.4 1321.37,-243.09"/>
<polygon fill="midnightblue" stroke="midnightblue" points="920.32,-280.33 910.7,-284.78 920.99,-287.3 920.32,-280.33"/>
</g>
<!-- Node2&#45;&gt;Node10 -->
<g id="edge13" class="edge">
<title>Node2&#45;&gt;Node10</title>
<path fill="none" stroke="midnightblue" d="M920.79,-285.5C1026.48,-278.51 1268.68,-261.96 1472,-244 1474.91,-243.74 1477.87,-243.48 1480.86,-243.2"/>
<polygon fill="midnightblue" stroke="midnightblue" points="920.44,-282.02 910.69,-286.17 920.9,-289 920.44,-282.02"/>
</g>
<!-- Node2&#45;&gt;Node11 -->
<g id="edge15" class="edge">
<title>Node2&#45;&gt;Node11</title>
<path fill="none" stroke="midnightblue" d="M920.86,-286.55C1047.67,-280.63 1374.99,-264.52 1648,-244 1650.95,-243.78 1653.95,-243.54 1656.98,-243.3"/>
<polygon fill="midnightblue" stroke="midnightblue" points="920.47,-283.06 910.64,-287.02 920.79,-290.05 920.47,-283.06"/>
</g>
<!-- Node2&#45;&gt;Node12 -->
<g id="edge17" class="edge">
<title>Node2&#45;&gt;Node12</title>
<path fill="none" stroke="midnightblue" d="M813.07,-286.72C692.46,-281.39 391.82,-266.8 141,-244 138.13,-243.74 135.19,-243.46 132.23,-243.16"/>
<polygon fill="midnightblue" stroke="midnightblue" points="813.01,-290.22 823.15,-287.16 813.31,-283.23 813.01,-290.22"/>
</g>
<!-- Node2&#45;&gt;Node13 -->
<g id="edge19" class="edge">
<title>Node2&#45;&gt;Node13</title>
<path fill="none" stroke="midnightblue" d="M813.21,-285.04C711.81,-277.51 485.46,-260.42 295,-244 279.82,-242.69 263.31,-241.18 248.32,-239.77"/>
<polygon fill="midnightblue" stroke="midnightblue" points="812.98,-288.53 823.21,-285.78 813.49,-281.55 812.98,-288.53"/>
</g>
<!-- Node2&#45;&gt;Node14 -->
<g id="edge21" class="edge">
<title>Node2&#45;&gt;Node14</title>
<path fill="none" stroke="midnightblue" d="M920.8,-285.77C988.69,-280.72 1100.53,-268.83 1133,-244 1151.36,-229.95 1158.88,-202.01 1161.62,-187.77"/>
<polygon fill="midnightblue" stroke="midnightblue" points="920.43,-282.29 910.71,-286.5 920.93,-289.27 920.43,-282.29"/>
</g>
<!-- Node2&#45;&gt;Node17 -->
<g id="edge29" class="edge">
<title>Node2&#45;&gt;Node17</title>
<path fill="none" stroke="midnightblue" d="M813.45,-279.85C754.02,-269.69 658.86,-253.43 600.92,-243.53"/>
<polygon fill="midnightblue" stroke="midnightblue" points="812.95,-283.31 823.39,-281.55 814.13,-276.41 812.95,-283.31"/>
</g>
<!-- Node2&#45;&gt;Node18 -->
<g id="edge31" class="edge">
<title>Node2&#45;&gt;Node18</title>
<path fill="none" stroke="midnightblue" d="M834.08,-276.91C806.44,-266.75 767.66,-252.51 743.18,-243.52"/>
<polygon fill="midnightblue" stroke="midnightblue" points="833.11,-280.28 843.71,-280.44 835.53,-273.71 833.11,-280.28"/>
</g>
<!-- Node2&#45;&gt;Node19 -->
<g id="edge33" class="edge">
<title>Node2&#45;&gt;Node19</title>
<path fill="none" stroke="midnightblue" d="M881.05,-272.14C888.89,-262.74 898.33,-251.4 904.71,-243.75"/>
<polygon fill="midnightblue" stroke="midnightblue" points="878.14,-270.16 874.43,-280.08 883.52,-274.64 878.14,-270.16"/>
</g>
<!-- Node2&#45;&gt;Node20 -->
<g id="edge35" class="edge">
<title>Node2&#45;&gt;Node20</title>
<path fill="none" stroke="midnightblue" d="M906.76,-277.7C942.62,-267.51 994.57,-252.74 1027.03,-243.52"/>
<polygon fill="midnightblue" stroke="midnightblue" points="905.77,-274.34 897.11,-280.44 907.68,-281.08 905.77,-274.34"/>
</g>
<!-- Node2&#45;&gt;Node21 -->
<g id="edge37" class="edge">
<title>Node2&#45;&gt;Node21</title>
<path fill="none" stroke="midnightblue" d="M921.04,-281.22C990.57,-271.21 1110.91,-253.88 1182.83,-243.52"/>
<polygon fill="midnightblue" stroke="midnightblue" points="920.15,-277.81 910.75,-282.7 921.15,-284.74 920.15,-277.81"/>
</g>
<!-- Node4 -->
<g id="node4" class="node">
<title>Node4</title>
<g id="a_node4"><a xlink:href="main_8hpp.html" target="_top" xlink:title="Main page documentation.">
<polygon fill="none" stroke="black" points="1064,-56.5 1064,-75.5 1120,-75.5 1120,-56.5 1064,-56.5"/>
<text text-anchor="middle" x="1092" y="-63.5" font-family="Helvetica,sans-Serif" font-size="10.00">main.hpp</text>
</a>
</g>
</g>
<!-- Node3&#45;&gt;Node4 -->
<g id="edge3" class="edge">
<title>Node3&#45;&gt;Node4</title>
<path fill="none" stroke="midnightblue" d="M940.39,-109.64C977.44,-99.22 1031.35,-84.06 1063.91,-74.9"/>
<polygon fill="midnightblue" stroke="midnightblue" points="939.1,-106.37 930.42,-112.44 941,-113.11 939.1,-106.37"/>
</g>
<!-- Node5 -->
<g id="node5" class="node">
<title>Node5</title>
<g id="a_node5"><a xlink:href="main_8cpp.html" target="_top" xlink:title="Main routine of svZeroDSolver.">
<polygon fill="none" stroke="black" points="1025,-0.5 1025,-19.5 1081,-19.5 1081,-0.5 1025,-0.5"/>
<text text-anchor="middle" x="1053" y="-7.5" font-family="Helvetica,sans-Serif" font-size="10.00">main.cpp</text>
</a>
</g>
</g>
<!-- Node4&#45;&gt;Node5 -->
<g id="edge4" class="edge">
<title>Node4&#45;&gt;Node5</title>
<path fill="none" stroke="midnightblue" d="M1079.62,-47.86C1072.86,-38.5 1064.79,-27.33 1059.32,-19.75"/>
<polygon fill="midnightblue" stroke="midnightblue" points="1076.87,-50.03 1085.56,-56.08 1082.54,-45.93 1076.87,-50.03"/>
</g>
<!-- Node6 -->
<g id="node6" class="node">
<title>Node6</title>
<g id="a_node6"><a xlink:href="python_8cpp.html" target="_top" xlink:title="Python binding for svZeroDSolver.">
<polygon fill="none" stroke="black" points="1099.5,-0.5 1099.5,-19.5 1162.5,-19.5 1162.5,-0.5 1099.5,-0.5"/>
<text text-anchor="middle" x="1131" y="-7.5" font-family="Helvetica,sans-Serif" font-size="10.00">python.cpp</text>
</a>
</g>
</g>
<!-- Node4&#45;&gt;Node6 -->
<g id="edge5" class="edge">
<title>Node4&#45;&gt;Node6</title>
<path fill="none" stroke="midnightblue" d="M1104.38,-47.86C1111.14,-38.5 1119.21,-27.33 1124.68,-19.75"/>
<polygon fill="midnightblue" stroke="midnightblue" points="1101.46,-45.93 1098.44,-56.08 1107.13,-50.03 1101.46,-45.93"/>
</g>
<!-- Node7&#45;&gt;Node3 -->
<g id="edge7" class="edge">
<title>Node7&#45;&gt;Node3</title>
<path fill="none" stroke="midnightblue" d="M359.25,-214.28C358.24,-199.52 359.64,-179.55 372,-168 406.57,-135.69 726.64,-126.25 850.95,-123.79"/>
<polygon fill="midnightblue" stroke="midnightblue" points="355.78,-214.77 360.35,-224.33 362.74,-214.01 355.78,-214.77"/>
</g>
<!-- Node7&#45;&gt;Node8 -->
<g id="edge8" class="edge">
<title>Node7&#45;&gt;Node8</title>
<path fill="none" stroke="midnightblue" d="M386.06,-219.18C403.36,-209.24 426.15,-196.15 440.93,-187.65"/>
<polygon fill="midnightblue" stroke="midnightblue" points="384.03,-216.31 377.1,-224.32 387.52,-222.38 384.03,-216.31"/>
</g>
<!-- Node8&#45;&gt;Node3 -->
<g id="edge9" class="edge">
<title>Node8&#45;&gt;Node3</title>
<path fill="none" stroke="midnightblue" d="M536.42,-167.22C628.06,-156.07 774.94,-138.21 850.92,-128.97"/>
<polygon fill="midnightblue" stroke="midnightblue" points="535.86,-163.76 526.35,-168.44 536.7,-170.71 535.86,-163.76"/>
</g>
<!-- Node9&#45;&gt;Node3 -->
<g id="edge12" class="edge">
<title>Node9&#45;&gt;Node3</title>
<path fill="none" stroke="midnightblue" d="M1311.15,-223.42C1210.73,-211.41 1050.93,-191.93 1038,-188 1018.98,-182.22 1015.92,-176.59 998,-168 970.82,-154.97 939.07,-140.53 919.24,-131.61"/>
<polygon fill="midnightblue" stroke="midnightblue" points="1310.94,-226.92 1321.28,-224.63 1311.77,-219.97 1310.94,-226.92"/>
</g>
<!-- Node10&#45;&gt;Node3 -->
<g id="edge14" class="edge">
<title>Node10&#45;&gt;Node3</title>
<path fill="none" stroke="midnightblue" d="M1470.7,-223.91C1294.22,-207.96 1243.68,-232.36 1076,-188 1055.23,-182.51 1051.97,-175.92 1032,-168 996.44,-153.9 954.49,-140.06 927.59,-131.53"/>
<polygon fill="midnightblue" stroke="midnightblue" points="1470.57,-227.42 1480.85,-224.86 1471.22,-220.45 1470.57,-227.42"/>
</g>
<!-- Node11&#45;&gt;Node3 -->
<g id="edge16" class="edge">
<title>Node11&#45;&gt;Node3</title>
<path fill="none" stroke="midnightblue" d="M1646.9,-223.96C1406.79,-206.12 1337.83,-248.94 1109,-188 1089.41,-182.78 1086.99,-175.1 1068,-168 1025.43,-152.09 974.85,-139.33 940.39,-131.52"/>
<polygon fill="midnightblue" stroke="midnightblue" points="1646.74,-227.45 1656.98,-224.73 1647.28,-220.47 1646.74,-227.45"/>
</g>
<!-- Node12&#45;&gt;Node3 -->
<g id="edge18" class="edge">
<title>Node12&#45;&gt;Node3</title>
<path fill="none" stroke="midnightblue" d="M99.83,-221.12C144.24,-206.06 224.92,-180.56 296,-168 499.73,-132 747.07,-124.76 850.65,-123.33"/>
<polygon fill="midnightblue" stroke="midnightblue" points="98.46,-217.89 90.13,-224.44 100.73,-224.51 98.46,-217.89"/>
</g>
<!-- Node13&#45;&gt;Node3 -->
<g id="edge20" class="edge">
<title>Node13&#45;&gt;Node3</title>
<path fill="none" stroke="midnightblue" d="M224.28,-219.83C254.99,-204.51 308.81,-179.8 358,-168 535.89,-125.32 754.97,-121.47 851,-122.12"/>
<polygon fill="midnightblue" stroke="midnightblue" points="222.5,-216.81 215.16,-224.45 225.66,-223.05 222.5,-216.81"/>
</g>
<!-- Node14&#45;&gt;Node1 -->
<g id="edge24" class="edge">
<title>Node14&#45;&gt;Node1</title>
<path fill="none" stroke="midnightblue" d="M1218.52,-178.47C1374.65,-177.43 1808.41,-178.49 1851,-224 1857.07,-230.49 1856.91,-237.36 1851,-244 1794.94,-306.89 1203.64,-335.15 1004.2,-342.78"/>
<polygon fill="midnightblue" stroke="midnightblue" points="1218.18,-174.97 1208.21,-178.54 1218.23,-181.97 1218.18,-174.97"/>
</g>
<!-- Node14&#45;&gt;Node3 -->
<g id="edge25" class="edge">
<title>Node14&#45;&gt;Node3</title>
<path fill="none" stroke="midnightblue" d="M1111.42,-166.41C1061.72,-156.2 987.47,-140.96 941.48,-131.52"/>
<polygon fill="midnightblue" stroke="midnightblue" points="1110.83,-169.86 1121.33,-168.44 1112.24,-163 1110.83,-169.86"/>
</g>
<!-- Node14&#45;&gt;Node4 -->
<g id="edge28" class="edge">
<title>Node14&#45;&gt;Node4</title>
<path fill="none" stroke="midnightblue" d="M1182.64,-161.72C1197.34,-148.38 1213.14,-128.59 1202,-112 1183.83,-84.93 1146.19,-74.14 1120.03,-69.84"/>
<polygon fill="midnightblue" stroke="midnightblue" points="1180.12,-159.27 1174.76,-168.42 1184.65,-164.61 1180.12,-159.27"/>
</g>
<!-- Node15 -->
<g id="node15" class="node">
<title>Node15</title>
<g id="a_node15"><a xlink:href="integrator_8hpp.html" target="_top" xlink:title="ALGEBRA::Integrator source file.">
<polygon fill="none" stroke="black" points="979,-112.5 979,-131.5 1089,-131.5 1089,-112.5 979,-112.5"/>
<text text-anchor="middle" x="1034" y="-119.5" font-family="Helvetica,sans-Serif" font-size="10.00">algebra/integrator.hpp</text>
</a>
</g>
</g>
<!-- Node14&#45;&gt;Node15 -->
<g id="edge22" class="edge">
<title>Node14&#45;&gt;Node15</title>
<path fill="none" stroke="midnightblue" d="M1133.15,-164.5C1108.96,-154.38 1075.54,-140.39 1054.34,-131.52"/>
<polygon fill="midnightblue" stroke="midnightblue" points="1131.98,-167.81 1142.56,-168.44 1134.69,-161.35 1131.98,-167.81"/>
</g>
<!-- Node16 -->
<g id="node16" class="node">
<title>Node16</title>
<g id="a_node16"><a xlink:href="csvwriter_8hpp.html" target="_top" xlink:title="IO::write_csv source file.">
<polygon fill="none" stroke="black" points="1107.5,-112.5 1107.5,-131.5 1192.5,-131.5 1192.5,-112.5 1107.5,-112.5"/>
<text text-anchor="middle" x="1150" y="-119.5" font-family="Helvetica,sans-Serif" font-size="10.00">io/csvwriter.hpp</text>
</a>
</g>
</g>
<!-- Node14&#45;&gt;Node16 -->
<g id="edge26" class="edge">
<title>Node14&#45;&gt;Node16</title>
<path fill="none" stroke="midnightblue" d="M1158.45,-158.1C1156.29,-149.14 1153.82,-138.86 1152.11,-131.75"/>
<polygon fill="midnightblue" stroke="midnightblue" points="1155.11,-159.18 1160.85,-168.08 1161.92,-157.54 1155.11,-159.18"/>
</g>
<!-- Node15&#45;&gt;Node4 -->
<g id="edge23" class="edge">
<title>Node15&#45;&gt;Node4</title>
<path fill="none" stroke="midnightblue" d="M1050.91,-105.25C1061.2,-95.67 1073.97,-83.79 1082.51,-75.83"/>
<polygon fill="midnightblue" stroke="midnightblue" points="1048.25,-102.95 1043.32,-112.32 1053.02,-108.07 1048.25,-102.95"/>
</g>
<!-- Node16&#45;&gt;Node4 -->
<g id="edge27" class="edge">
<title>Node16&#45;&gt;Node4</title>
<path fill="none" stroke="midnightblue" d="M1133.09,-105.25C1122.8,-95.67 1110.03,-83.79 1101.49,-75.83"/>
<polygon fill="midnightblue" stroke="midnightblue" points="1130.98,-108.07 1140.68,-112.32 1135.75,-102.95 1130.98,-108.07"/>
</g>
<!-- Node17&#45;&gt;Node3 -->
<g id="edge30" class="edge">
<title>Node17&#45;&gt;Node3</title>
<path fill="none" stroke="midnightblue" d="M587.87,-221.38C658.3,-199.18 810.49,-151.21 872.68,-131.61"/>
<polygon fill="midnightblue" stroke="midnightblue" points="586.58,-218.12 578.1,-224.46 588.68,-224.79 586.58,-218.12"/>
</g>
<!-- Node18&#45;&gt;Node3 -->
<g id="edge32" class="edge">
<title>Node18&#45;&gt;Node3</title>
<path fill="none" stroke="midnightblue" d="M739.05,-217.85C756.85,-204.04 784.45,-183.47 810,-168 833.46,-153.79 861.99,-140.09 880.56,-131.61"/>
<polygon fill="midnightblue" stroke="midnightblue" points="736.4,-215.48 730.69,-224.4 740.72,-220.99 736.4,-215.48"/>
</g>
<!-- Node19&#45;&gt;Node3 -->
<g id="edge34" class="edge">
<title>Node19&#45;&gt;Node3</title>
<path fill="none" stroke="midnightblue" d="M909.97,-214.35C907.34,-190.25 902.87,-149.31 900.94,-131.59"/>
<polygon fill="midnightblue" stroke="midnightblue" points="906.49,-214.81 911.06,-224.37 913.45,-214.05 906.49,-214.81"/>
</g>
<!-- Node20&#45;&gt;Node3 -->
<g id="edge36" class="edge">
<title>Node20&#45;&gt;Node3</title>
<path fill="none" stroke="midnightblue" d="M1023.58,-220.71C1004.59,-212.88 980.9,-201.65 962,-188 938.74,-171.19 916.89,-144.97 906.43,-131.54"/>
<polygon fill="midnightblue" stroke="midnightblue" points="1022.45,-224.03 1033.04,-224.49 1025.05,-217.53 1022.45,-224.03"/>
</g>
<!-- Node21&#45;&gt;Node3 -->
<g id="edge38" class="edge">
<title>Node21&#45;&gt;Node3</title>
<path fill="none" stroke="midnightblue" d="M1170.55,-227.14C1121.25,-221.32 1054.95,-209.95 1000,-188 981.44,-180.59 934.03,-147.41 911.82,-131.53"/>
<polygon fill="midnightblue" stroke="midnightblue" points="1170.16,-230.61 1180.49,-228.26 1170.94,-223.66 1170.16,-230.61"/>
</g>
</g>
</svg>
