<?xml version="1.0" encoding="UTF-8" standalone="no"?>
<!DOCTYPE svg PUBLIC "-//W3C//DTD SVG 1.1//EN"
 "http://www.w3.org/Graphics/SVG/1.1/DTD/svg11.dtd">
<!-- Generated by graphviz version 3.0.0 (20220413.0242)
 -->
<!-- Title: algebra/sparsesystem.hpp Pages: 1 -->
<svg width="1030pt" height="364pt"
 viewBox="0.00 0.00 1029.52 364.00" xmlns="http://www.w3.org/2000/svg" xmlns:xlink="http://www.w3.org/1999/xlink">
<g id="graph0" class="graph" transform="scale(1 1) rotate(0) translate(4 360)">
<title>algebra/sparsesystem.hpp</title>
<!-- Node1 -->
<g id="node1" class="node">
<title>Node1</title>
<g id="a_node1"><a xlink:title="ALGEBRA::SparseSystem source file.">
<polygon fill="#bfbfbf" stroke="black" points="451.5,-336.5 451.5,-355.5 581.5,-355.5 581.5,-336.5 451.5,-336.5"/>
<text text-anchor="middle" x="516.5" y="-343.5" font-family="Helvetica,sans-Serif" font-size="10.00">algebra/sparsesystem.hpp</text>
</a>
</g>
</g>
<!-- Node2 -->
<g id="node2" class="node">
<title>Node2</title>
<g id="a_node2"><a xlink:title=" ">
<polygon fill="none" stroke="#bfbfbf" points="122.5,-280.5 122.5,-299.5 196.5,-299.5 196.5,-280.5 122.5,-280.5"/>
<text text-anchor="middle" x="159.5" y="-287.5" font-family="Helvetica,sans-Serif" font-size="10.00">Eigen/Sparse</text>
</a>
</g>
</g>
<!-- Node1&#45;&gt;Node2 -->
<g id="edge1" class="edge">
<title>Node1&#45;&gt;Node2</title>
<path fill="none" stroke="midnightblue" d="M451.43,-336.54C390.62,-328.41 297.07,-315.36 206.51,-300.1"/>
<polygon fill="midnightblue" stroke="midnightblue" points="207.07,-296.65 196.63,-298.43 205.9,-303.55 207.07,-296.65"/>
</g>
<!-- Node3 -->
<g id="node3" class="node">
<title>Node3</title>
<g id="a_node3"><a xlink:title=" ">
<polygon fill="none" stroke="#bfbfbf" points="214.5,-280.5 214.5,-299.5 302.5,-299.5 302.5,-280.5 214.5,-280.5"/>
<text text-anchor="middle" x="258.5" y="-287.5" font-family="Helvetica,sans-Serif" font-size="10.00">Eigen/SparseLU</text>
</a>
</g>
</g>
<!-- Node1&#45;&gt;Node3 -->
<g id="edge2" class="edge">
<title>Node1&#45;&gt;Node3</title>
<path fill="none" stroke="midnightblue" d="M475.62,-336.44C430.52,-327 357.89,-311.8 309.2,-301.61"/>
<polygon fill="midnightblue" stroke="midnightblue" points="309.69,-298.14 299.19,-299.52 308.26,-304.99 309.69,-298.14"/>
</g>
<!-- Node4 -->
<g id="node4" class="node">
<title>Node4</title>
<g id="a_node4"><a xlink:title=" ">
<polygon fill="none" stroke="#bfbfbf" points="320.5,-280.5 320.5,-299.5 374.5,-299.5 374.5,-280.5 320.5,-280.5"/>
<text text-anchor="middle" x="347.5" y="-287.5" font-family="Helvetica,sans-Serif" font-size="10.00">iostream</text>
</a>
</g>
</g>
<!-- Node1&#45;&gt;Node4 -->
<g id="edge3" class="edge">
<title>Node1&#45;&gt;Node4</title>
<path fill="none" stroke="midnightblue" d="M489.72,-336.44C461.17,-327.32 415.77,-312.81 383.96,-302.65"/>
<polygon fill="midnightblue" stroke="midnightblue" points="384.74,-299.23 374.15,-299.52 382.61,-305.89 384.74,-299.23"/>
</g>
<!-- Node5 -->
<g id="node5" class="node">
<title>Node5</title>
<g id="a_node5"><a xlink:href="model_8hpp.html" target="_top" xlink:title="MODEL::Model source file.">
<polygon fill="none" stroke="black" points="584.5,-280.5 584.5,-299.5 682.5,-299.5 682.5,-280.5 584.5,-280.5"/>
<text text-anchor="middle" x="633.5" y="-287.5" font-family="Helvetica,sans-Serif" font-size="10.00">../model/model.hpp</text>
</a>
</g>
</g>
<!-- Node1&#45;&gt;Node5 -->
<g id="edge4" class="edge">
<title>Node1&#45;&gt;Node5</title>
<path fill="none" stroke="midnightblue" d="M530.18,-336.32C547.38,-327.51 576.94,-313.75 600.14,-303.71"/>
<polygon fill="midnightblue" stroke="midnightblue" points="601.81,-306.8 609.64,-299.65 599.07,-300.36 601.81,-306.8"/>
</g>
<!-- Node5&#45;&gt;Node1 -->
<g id="edge11" class="edge">
<title>Node5&#45;&gt;Node1</title>
<path fill="none" stroke="midnightblue" d="M620.13,-299.52C602.86,-308.39 572.78,-322.38 549.37,-332.5"/>
<polygon fill="midnightblue" stroke="midnightblue" points="547.95,-329.3 540.13,-336.44 550.7,-335.74 547.95,-329.3"/>
</g>
<!-- Node6 -->
<g id="node6" class="node">
<title>Node6</title>
<g id="a_node6"><a xlink:title=" ">
<polygon fill="none" stroke="#bfbfbf" points="766,-112.5 766,-131.5 801,-131.5 801,-112.5 766,-112.5"/>
<text text-anchor="middle" x="783.5" y="-119.5" font-family="Helvetica,sans-Serif" font-size="10.00">map</text>
</a>
</g>
</g>
<!-- Node5&#45;&gt;Node6 -->
<g id="edge5" class="edge">
<title>Node5&#45;&gt;Node6</title>
<path fill="none" stroke="midnightblue" d="M682.8,-285.98C772.02,-280 952.78,-265.38 971.5,-244 977.36,-237.31 976.06,-231.63 971.5,-224 953.39,-193.72 858.17,-152.59 810.6,-133.52"/>
<polygon fill="midnightblue" stroke="midnightblue" points="811.8,-130.23 801.22,-129.79 809.22,-136.74 811.8,-130.23"/>
</g>
<!-- Node7 -->
<g id="node7" class="node">
<title>Node7</title>
<g id="a_node7"><a xlink:title=" ">
<polygon fill="none" stroke="#bfbfbf" points="671,-224.5 671,-243.5 700,-243.5 700,-224.5 671,-224.5"/>
<text text-anchor="middle" x="685.5" y="-231.5" font-family="Helvetica,sans-Serif" font-size="10.00">list</text>
</a>
</g>
</g>
<!-- Node5&#45;&gt;Node7 -->
<g id="edge6" class="edge">
<title>Node5&#45;&gt;Node7</title>
<path fill="none" stroke="midnightblue" d="M642.09,-280.08C649.66,-272.22 660.88,-260.57 670.01,-251.08"/>
<polygon fill="midnightblue" stroke="midnightblue" points="672.66,-253.38 677.07,-243.75 667.62,-248.53 672.66,-253.38"/>
</g>
<!-- Node8 -->
<g id="node8" class="node">
<title>Node8</title>
<g id="a_node8"><a xlink:title=" ">
<polygon fill="none" stroke="#bfbfbf" points="718.5,-224.5 718.5,-243.5 764.5,-243.5 764.5,-224.5 718.5,-224.5"/>
<text text-anchor="middle" x="741.5" y="-231.5" font-family="Helvetica,sans-Serif" font-size="10.00">variant</text>
</a>
</g>
</g>
<!-- Node5&#45;&gt;Node8 -->
<g id="edge7" class="edge">
<title>Node5&#45;&gt;Node8</title>
<path fill="none" stroke="midnightblue" d="M650.85,-280.32C668.17,-271.66 695.02,-258.24 715,-248.25"/>
<polygon fill="midnightblue" stroke="midnightblue" points="716.81,-251.26 724.19,-243.65 713.68,-245 716.81,-251.26"/>
</g>
<!-- Node9 -->
<g id="node9" class="node">
<title>Node9</title>
<g id="a_node9"><a xlink:href="densesystem_8hpp.html" target="_top" xlink:title="ALGEBRA::DenseSystem source file.">
<polygon fill="none" stroke="black" points="528.5,-112.5 528.5,-131.5 662.5,-131.5 662.5,-112.5 528.5,-112.5"/>
<text text-anchor="middle" x="595.5" y="-119.5" font-family="Helvetica,sans-Serif" font-size="10.00">../algebra/densesystem.hpp</text>
</a>
</g>
</g>
<!-- Node5&#45;&gt;Node9 -->
<g id="edge8" class="edge">
<title>Node5&#45;&gt;Node9</title>
<path fill="none" stroke="midnightblue" d="M628.19,-280.08C618,-253.95 600.04,-177.21 595.3,-141.58"/>
<polygon fill="midnightblue" stroke="midnightblue" points="598.78,-141.15 594.26,-131.57 591.82,-141.88 598.78,-141.15"/>
</g>
<!-- Node11 -->
<g id="node11" class="node">
<title>Node11</title>
<g id="a_node11"><a xlink:href="junction_8hpp.html" target="_top" xlink:title="MODEL::Junction source file.">
<polygon fill="none" stroke="black" points="894.5,-224.5 894.5,-243.5 962.5,-243.5 962.5,-224.5 894.5,-224.5"/>
<text text-anchor="middle" x="928.5" y="-231.5" font-family="Helvetica,sans-Serif" font-size="10.00">junction.hpp</text>
</a>
</g>
</g>
<!-- Node5&#45;&gt;Node11 -->
<g id="edge12" class="edge">
<title>Node5&#45;&gt;Node11</title>
<path fill="none" stroke="midnightblue" d="M682.83,-280.64C731.51,-272.28 808.3,-258.84 884.06,-244.24"/>
<polygon fill="midnightblue" stroke="midnightblue" points="885.1,-247.6 894.25,-242.26 883.77,-240.73 885.1,-247.6"/>
</g>
<!-- Node14 -->
<g id="node14" class="node">
<title>Node14</title>
<g id="a_node14"><a xlink:href="node_8hpp.html" target="_top" xlink:title="MODEL::Node source file.">
<polygon fill="none" stroke="black" points="819.5,-112.5 819.5,-131.5 875.5,-131.5 875.5,-112.5 819.5,-112.5"/>
<text text-anchor="middle" x="847.5" y="-119.5" font-family="Helvetica,sans-Serif" font-size="10.00">node.hpp</text>
</a>
</g>
</g>
<!-- Node5&#45;&gt;Node14 -->
<g id="edge32" class="edge">
<title>Node5&#45;&gt;Node14</title>
<path fill="none" stroke="midnightblue" d="M682.6,-286.31C775.08,-280.73 967.66,-266.52 987.5,-244 1026.98,-199.18 935.27,-155.64 882.1,-135.16"/>
<polygon fill="midnightblue" stroke="midnightblue" points="883.25,-131.85 872.66,-131.61 880.79,-138.41 883.25,-131.85"/>
</g>
<!-- Node16 -->
<g id="node16" class="node">
<title>Node16</title>
<g id="a_node16"><a xlink:href="dofhandler_8hpp.html" target="_top" xlink:title="MODEL::DOFHandler source file.">
<polygon fill="none" stroke="black" points="733.5,-56.5 733.5,-75.5 813.5,-75.5 813.5,-56.5 733.5,-56.5"/>
<text text-anchor="middle" x="773.5" y="-63.5" font-family="Helvetica,sans-Serif" font-size="10.00">dofhandler.hpp</text>
</a>
</g>
</g>
<!-- Node5&#45;&gt;Node16 -->
<g id="edge31" class="edge">
<title>Node5&#45;&gt;Node16</title>
<path fill="none" stroke="midnightblue" d="M682.61,-286.64C778.97,-281.52 985.35,-267.85 1006.5,-244 1073.29,-168.66 897.01,-103.89 813.99,-78.48"/>
<polygon fill="midnightblue" stroke="midnightblue" points="814.94,-75.1 804.35,-75.57 812.92,-81.81 814.94,-75.1"/>
</g>
<!-- Node17 -->
<g id="node17" class="node">
<title>Node17</title>
<g id="a_node17"><a xlink:href="bloodvessel_8hpp.html" target="_top" xlink:title="MODEL::BloodVessel source file.">
<polygon fill="none" stroke="black" points="510.5,-224.5 510.5,-243.5 596.5,-243.5 596.5,-224.5 510.5,-224.5"/>
<text text-anchor="middle" x="553.5" y="-231.5" font-family="Helvetica,sans-Serif" font-size="10.00">bloodvessel.hpp</text>
</a>
</g>
</g>
<!-- Node5&#45;&gt;Node17 -->
<g id="edge26" class="edge">
<title>Node5&#45;&gt;Node17</title>
<path fill="none" stroke="midnightblue" d="M620.65,-280.32C608.28,-271.98 589.37,-259.21 574.76,-249.35"/>
<polygon fill="midnightblue" stroke="midnightblue" points="576.57,-246.35 566.32,-243.65 572.65,-252.15 576.57,-246.35"/>
</g>
<!-- Node19 -->
<g id="node19" class="node">
<title>Node19</title>
<g id="a_node19"><a xlink:href="flowreferencebc_8hpp.html" target="_top" xlink:title="MODEL::FlowReferenceBC source file.">
<polygon fill="none" stroke="black" points="0,-224.5 0,-243.5 103,-243.5 103,-224.5 0,-224.5"/>
<text text-anchor="middle" x="51.5" y="-231.5" font-family="Helvetica,sans-Serif" font-size="10.00">flowreferencebc.hpp</text>
</a>
</g>
</g>
<!-- Node5&#45;&gt;Node19 -->
<g id="edge33" class="edge">
<title>Node5&#45;&gt;Node19</title>
<path fill="none" stroke="midnightblue" d="M584.19,-285.74C493.31,-279.51 293.02,-264.76 113.23,-244.01"/>
<polygon fill="midnightblue" stroke="midnightblue" points="113.39,-240.51 103.06,-242.83 112.58,-247.46 113.39,-240.51"/>
</g>
<!-- Node22 -->
<g id="node22" class="node">
<title>Node22</title>
<g id="a_node22"><a xlink:href="pressurereferencebc_8hpp.html" target="_top" xlink:title="MODEL::PressureReferenceBC source file.">
<polygon fill="none" stroke="black" points="369,-224.5 369,-243.5 492,-243.5 492,-224.5 369,-224.5"/>
<text text-anchor="middle" x="430.5" y="-231.5" font-family="Helvetica,sans-Serif" font-size="10.00">pressurereferencebc.hpp</text>
</a>
</g>
</g>
<!-- Node5&#45;&gt;Node22 -->
<g id="edge42" class="edge">
<title>Node5&#45;&gt;Node22</title>
<path fill="none" stroke="midnightblue" d="M601.33,-280.44C566.44,-271.16 510.61,-256.31 472.33,-246.13"/>
<polygon fill="midnightblue" stroke="midnightblue" points="473.08,-242.7 462.52,-243.52 471.28,-249.47 473.08,-242.7"/>
</g>
<!-- Node23 -->
<g id="node23" class="node">
<title>Node23</title>
<g id="a_node23"><a xlink:href="windkesselbc_8hpp.html" target="_top" xlink:title="MODEL::WindkesselBC source file.">
<polygon fill="none" stroke="black" points="782.5,-224.5 782.5,-243.5 876.5,-243.5 876.5,-224.5 782.5,-224.5"/>
<text text-anchor="middle" x="829.5" y="-231.5" font-family="Helvetica,sans-Serif" font-size="10.00">windkesselbc.hpp</text>
</a>
</g>
</g>
<!-- Node5&#45;&gt;Node23 -->
<g id="edge47" class="edge">
<title>Node5&#45;&gt;Node23</title>
<path fill="none" stroke="midnightblue" d="M664.56,-280.44C698.1,-271.2 751.7,-256.44 788.64,-246.26"/>
<polygon fill="midnightblue" stroke="midnightblue" points="789.88,-249.55 798.59,-243.52 788.02,-242.8 789.88,-249.55"/>
</g>
<!-- Node24 -->
<g id="node24" class="node">
<title>Node24</title>
<g id="a_node24"><a xlink:href="resistancebc_8hpp.html" target="_top" xlink:title="MODEL::ResistanceBC source file.">
<polygon fill="none" stroke="black" points="121.5,-224.5 121.5,-243.5 211.5,-243.5 211.5,-224.5 121.5,-224.5"/>
<text text-anchor="middle" x="166.5" y="-231.5" font-family="Helvetica,sans-Serif" font-size="10.00">resistancebc.hpp</text>
</a>
</g>
</g>
<!-- Node5&#45;&gt;Node24 -->
<g id="edge51" class="edge">
<title>Node5&#45;&gt;Node24</title>
<path fill="none" stroke="midnightblue" d="M584.44,-284.56C508.85,-277.52 359.15,-262.8 221.84,-244.11"/>
<polygon fill="midnightblue" stroke="midnightblue" points="221.93,-240.6 211.55,-242.7 220.98,-247.53 221.93,-240.6"/>
</g>
<!-- Node25 -->
<g id="node25" class="node">
<title>Node25</title>
<g id="a_node25"><a xlink:href="openloopcoronarybc_8hpp.html" target="_top" xlink:title="MODEL::OpenLoopCoronaryBC source file.">
<polygon fill="none" stroke="black" points="230,-224.5 230,-243.5 351,-243.5 351,-224.5 230,-224.5"/>
<text text-anchor="middle" x="290.5" y="-231.5" font-family="Helvetica,sans-Serif" font-size="10.00">openloopcoronarybc.hpp</text>
</a>
</g>
</g>
<!-- Node5&#45;&gt;Node25 -->
<g id="edge56" class="edge">
<title>Node5&#45;&gt;Node25</title>
<path fill="none" stroke="midnightblue" d="M584.36,-281.26C523.92,-271.75 421.19,-255.58 354.6,-245.09"/>
<polygon fill="midnightblue" stroke="midnightblue" points="355.07,-241.62 344.65,-243.52 353.98,-248.54 355.07,-241.62"/>
</g>
<!-- Node9&#45;&gt;Node5 -->
<g id="edge10" class="edge">
<title>Node9&#45;&gt;Node5</title>
<path fill="none" stroke="midnightblue" d="M600.67,-131.57C610.79,-157.23 628.77,-233.92 633.63,-269.93"/>
<polygon fill="midnightblue" stroke="midnightblue" points="630.17,-270.51 634.72,-280.08 637.13,-269.76 630.17,-270.51"/>
</g>
<!-- Node10 -->
<g id="node10" class="node">
<title>Node10</title>
<g id="a_node10"><a xlink:title=" ">
<polygon fill="none" stroke="#bfbfbf" points="560,-56.5 560,-75.5 631,-75.5 631,-56.5 560,-56.5"/>
<text text-anchor="middle" x="595.5" y="-63.5" font-family="Helvetica,sans-Serif" font-size="10.00">Eigen/Dense</text>
</a>
</g>
</g>
<!-- Node9&#45;&gt;Node10 -->
<g id="edge9" class="edge">
<title>Node9&#45;&gt;Node10</title>
<path fill="none" stroke="midnightblue" d="M595.5,-112.08C595.5,-105.01 595.5,-94.86 595.5,-85.99"/>
<polygon fill="midnightblue" stroke="midnightblue" points="599,-85.75 595.5,-75.75 592,-85.75 599,-85.75"/>
</g>
<!-- Node11&#45;&gt;Node1 -->
<g id="edge14" class="edge">
<title>Node11&#45;&gt;Node1</title>
<path fill="none" stroke="midnightblue" d="M905.16,-243.53C868.23,-256.82 793.92,-282.73 729.5,-300 677.45,-313.95 617.31,-326.32 574.24,-334.54"/>
<polygon fill="midnightblue" stroke="midnightblue" points="573.4,-331.14 564.22,-336.44 574.7,-338.02 573.4,-331.14"/>
</g>
<!-- Node11&#45;&gt;Node9 -->
<g id="edge13" class="edge">
<title>Node11&#45;&gt;Node9</title>
<path fill="none" stroke="midnightblue" d="M910.95,-224.47C882.86,-211.07 825.85,-184.87 775.5,-168 733.07,-153.78 683.67,-141.74 647.37,-133.7"/>
<polygon fill="midnightblue" stroke="midnightblue" points="648.02,-130.26 637.5,-131.54 646.52,-137.1 648.02,-130.26"/>
</g>
<!-- Node12 -->
<g id="node12" class="node">
<title>Node12</title>
<g id="a_node12"><a xlink:href="block_8hpp.html" target="_top" xlink:title="MODEL::Block source file.">
<polygon fill="none" stroke="black" points="708.5,-168.5 708.5,-187.5 766.5,-187.5 766.5,-168.5 708.5,-168.5"/>
<text text-anchor="middle" x="737.5" y="-175.5" font-family="Helvetica,sans-Serif" font-size="10.00">block.hpp</text>
</a>
</g>
</g>
<!-- Node11&#45;&gt;Node12 -->
<g id="edge15" class="edge">
<title>Node11&#45;&gt;Node12</title>
<path fill="none" stroke="midnightblue" d="M898.24,-224.44C865.26,-215.12 812.4,-200.17 776.37,-189.99"/>
<polygon fill="midnightblue" stroke="midnightblue" points="777.26,-186.6 766.68,-187.25 775.35,-193.34 777.26,-186.6"/>
</g>
<!-- Node12&#45;&gt;Node1 -->
<g id="edge25" class="edge">
<title>Node12&#45;&gt;Node1</title>
<path fill="none" stroke="midnightblue" d="M766.65,-180.15C823.49,-183.07 945.81,-192.9 971.5,-224 977.16,-230.85 976.84,-236.9 971.5,-244 926.48,-303.85 708.68,-329.95 591.5,-339.82"/>
<polygon fill="midnightblue" stroke="midnightblue" points="591.2,-336.34 581.52,-340.64 591.77,-343.31 591.2,-336.34"/>
</g>
<!-- Node12&#45;&gt;Node6 -->
<g id="edge17" class="edge">
<title>Node12&#45;&gt;Node6</title>
<path fill="none" stroke="midnightblue" d="M745.1,-168.08C751.73,-160.3 761.52,-148.8 769.56,-139.37"/>
<polygon fill="midnightblue" stroke="midnightblue" points="772.23,-141.63 776.05,-131.75 766.9,-137.09 772.23,-141.63"/>
</g>
<!-- Node12&#45;&gt;Node9 -->
<g id="edge24" class="edge">
<title>Node12&#45;&gt;Node9</title>
<path fill="none" stroke="midnightblue" d="M715,-168.44C691.42,-159.48 654.18,-145.31 627.54,-135.18"/>
<polygon fill="midnightblue" stroke="midnightblue" points="628.49,-131.8 617.9,-131.52 626,-138.34 628.49,-131.8"/>
</g>
<!-- Node13 -->
<g id="node13" class="node">
<title>Node13</title>
<g id="a_node13"><a xlink:title=" ">
<polygon fill="none" stroke="#bfbfbf" points="677.5,-0.5 677.5,-19.5 721.5,-19.5 721.5,-0.5 677.5,-0.5"/>
<text text-anchor="middle" x="699.5" y="-7.5" font-family="Helvetica,sans-Serif" font-size="10.00">vector</text>
</a>
</g>
</g>
<!-- Node12&#45;&gt;Node13 -->
<g id="edge16" class="edge">
<title>Node12&#45;&gt;Node13</title>
<path fill="none" stroke="midnightblue" d="M735.46,-168.08C729.48,-141.95 711.91,-65.21 703.75,-29.58"/>
<polygon fill="midnightblue" stroke="midnightblue" points="707.1,-28.53 701.46,-19.57 700.28,-30.1 707.1,-28.53"/>
</g>
<!-- Node12&#45;&gt;Node14 -->
<g id="edge18" class="edge">
<title>Node12&#45;&gt;Node14</title>
<path fill="none" stroke="midnightblue" d="M755.17,-168.32C772.89,-159.62 800.4,-146.12 820.79,-136.11"/>
<polygon fill="midnightblue" stroke="midnightblue" points="822.44,-139.2 829.87,-131.65 819.35,-132.92 822.44,-139.2"/>
</g>
<!-- Node12&#45;&gt;Node16 -->
<g id="edge23" class="edge">
<title>Node12&#45;&gt;Node16</title>
<path fill="none" stroke="midnightblue" d="M739.87,-168.1C743.27,-155.52 749.86,-131.85 756.5,-112 759.48,-103.08 763.13,-93.3 766.28,-85.14"/>
<polygon fill="midnightblue" stroke="midnightblue" points="769.65,-86.14 770.04,-75.56 763.13,-83.59 769.65,-86.14"/>
</g>
<!-- Node15 -->
<g id="node15" class="node">
<title>Node15</title>
<g id="a_node15"><a xlink:title=" ">
<polygon fill="none" stroke="#bfbfbf" points="788,-0.5 788,-19.5 829,-19.5 829,-0.5 788,-0.5"/>
<text text-anchor="middle" x="808.5" y="-7.5" font-family="Helvetica,sans-Serif" font-size="10.00">string</text>
</a>
</g>
</g>
<!-- Node14&#45;&gt;Node15 -->
<g id="edge19" class="edge">
<title>Node14&#45;&gt;Node15</title>
<path fill="none" stroke="midnightblue" d="M844.44,-112.37C838.12,-94.54 823.5,-53.3 814.98,-29.27"/>
<polygon fill="midnightblue" stroke="midnightblue" points="818.19,-27.85 811.55,-19.59 811.59,-30.19 818.19,-27.85"/>
</g>
<!-- Node14&#45;&gt;Node16 -->
<g id="edge20" class="edge">
<title>Node14&#45;&gt;Node16</title>
<path fill="none" stroke="midnightblue" d="M835.61,-112.32C824.35,-104.11 807.21,-91.6 793.79,-81.81"/>
<polygon fill="midnightblue" stroke="midnightblue" points="795.75,-78.9 785.61,-75.83 791.62,-84.56 795.75,-78.9"/>
</g>
<!-- Node16&#45;&gt;Node13 -->
<g id="edge21" class="edge">
<title>Node16&#45;&gt;Node13</title>
<path fill="none" stroke="midnightblue" d="M761.61,-56.32C750.35,-48.11 733.21,-35.6 719.79,-25.81"/>
<polygon fill="midnightblue" stroke="midnightblue" points="721.75,-22.9 711.61,-19.83 717.62,-28.56 721.75,-22.9"/>
</g>
<!-- Node16&#45;&gt;Node15 -->
<g id="edge22" class="edge">
<title>Node16&#45;&gt;Node15</title>
<path fill="none" stroke="midnightblue" d="M779.28,-56.08C784.17,-48.53 791.33,-37.49 797.33,-28.23"/>
<polygon fill="midnightblue" stroke="midnightblue" points="800.33,-30.05 802.83,-19.75 794.45,-26.24 800.33,-30.05"/>
</g>
<!-- Node17&#45;&gt;Node1 -->
<g id="edge30" class="edge">
<title>Node17&#45;&gt;Node1</title>
<path fill="none" stroke="midnightblue" d="M550.61,-243.59C544.62,-261.39 530.75,-302.62 522.66,-326.67"/>
<polygon fill="midnightblue" stroke="midnightblue" points="519.27,-325.77 519.4,-336.37 525.91,-328.01 519.27,-325.77"/>
</g>
<!-- Node17&#45;&gt;Node9 -->
<g id="edge29" class="edge">
<title>Node17&#45;&gt;Node9</title>
<path fill="none" stroke="midnightblue" d="M556.8,-224.37C563.63,-206.46 579.49,-164.92 588.65,-140.95"/>
<polygon fill="midnightblue" stroke="midnightblue" points="591.92,-142.18 592.22,-131.59 585.38,-139.69 591.92,-142.18"/>
</g>
<!-- Node17&#45;&gt;Node12 -->
<g id="edge28" class="edge">
<title>Node17&#45;&gt;Node12</title>
<path fill="none" stroke="midnightblue" d="M582.66,-224.44C614.01,-215.24 664.03,-200.56 698.7,-190.39"/>
<polygon fill="midnightblue" stroke="midnightblue" points="699.87,-193.69 708.48,-187.52 697.9,-186.97 699.87,-193.69"/>
</g>
<!-- Node18 -->
<g id="node18" class="node">
<title>Node18</title>
<g id="a_node18"><a xlink:title=" ">
<polygon fill="none" stroke="#bfbfbf" points="373.5,-112.5 373.5,-131.5 419.5,-131.5 419.5,-112.5 373.5,-112.5"/>
<text text-anchor="middle" x="396.5" y="-119.5" font-family="Helvetica,sans-Serif" font-size="10.00">math.h</text>
</a>
</g>
</g>
<!-- Node17&#45;&gt;Node18 -->
<g id="edge27" class="edge">
<title>Node17&#45;&gt;Node18</title>
<path fill="none" stroke="midnightblue" d="M541.18,-224.37C514.35,-205.57 450.41,-160.77 417.24,-137.53"/>
<polygon fill="midnightblue" stroke="midnightblue" points="418.96,-134.46 408.76,-131.59 414.94,-140.2 418.96,-134.46"/>
</g>
<!-- Node19&#45;&gt;Node1 -->
<g id="edge35" class="edge">
<title>Node19&#45;&gt;Node1</title>
<path fill="none" stroke="midnightblue" d="M103.08,-242.66C106.27,-243.12 109.43,-243.57 112.5,-244 232.83,-260.87 268.89,-239.66 383.5,-280 399.68,-285.69 401.32,-292.02 416.5,-300 439.38,-312.03 466.12,-323.95 486.19,-332.5"/>
<polygon fill="midnightblue" stroke="midnightblue" points="484.89,-335.75 495.46,-336.42 487.61,-329.3 484.89,-335.75"/>
</g>
<!-- Node19&#45;&gt;Node9 -->
<g id="edge34" class="edge">
<title>Node19&#45;&gt;Node9</title>
<path fill="none" stroke="midnightblue" d="M103.08,-225.35C106.27,-224.89 109.43,-224.44 112.5,-224 228.86,-207.42 259.58,-212.65 374.5,-188 409.86,-180.42 505.55,-151.11 558.68,-134.56"/>
<polygon fill="midnightblue" stroke="midnightblue" points="559.9,-137.84 568.4,-131.52 557.81,-131.16 559.9,-137.84"/>
</g>
<!-- Node19&#45;&gt;Node12 -->
<g id="edge36" class="edge">
<title>Node19&#45;&gt;Node12</title>
<path fill="none" stroke="midnightblue" d="M103.05,-225.12C106.24,-224.72 109.41,-224.34 112.5,-224 333.44,-199.78 599.8,-185.56 698.36,-180.8"/>
<polygon fill="midnightblue" stroke="midnightblue" points="698.64,-184.29 708.46,-180.32 698.3,-177.3 698.64,-184.29"/>
</g>
<!-- Node20 -->
<g id="node20" class="node">
<title>Node20</title>
<g id="a_node20"><a xlink:href="timedependentparameter_8hpp.html" target="_top" xlink:title="MODEL::TimeDependentParameter source file.">
<polygon fill="none" stroke="black" points="223.5,-168.5 223.5,-187.5 365.5,-187.5 365.5,-168.5 223.5,-168.5"/>
<text text-anchor="middle" x="294.5" y="-175.5" font-family="Helvetica,sans-Serif" font-size="10.00">timedependentparameter.hpp</text>
</a>
</g>
</g>
<!-- Node19&#45;&gt;Node20 -->
<g id="edge37" class="edge">
<title>Node19&#45;&gt;Node20</title>
<path fill="none" stroke="midnightblue" d="M90,-224.44C132.31,-215.04 200.32,-199.93 246.17,-189.74"/>
<polygon fill="midnightblue" stroke="midnightblue" points="247.17,-193.1 256.18,-187.52 245.65,-186.27 247.17,-193.1"/>
</g>
<!-- Node20&#45;&gt;Node13 -->
<g id="edge39" class="edge">
<title>Node20&#45;&gt;Node13</title>
<path fill="none" stroke="midnightblue" d="M297.15,-168.4C301.9,-154.41 313.22,-126.81 332.5,-112 435.96,-32.5 598.13,-15.55 666.91,-11.96"/>
<polygon fill="midnightblue" stroke="midnightblue" points="667.3,-15.44 677.13,-11.49 666.98,-8.45 667.3,-15.44"/>
</g>
<!-- Node20&#45;&gt;Node16 -->
<g id="edge41" class="edge">
<title>Node20&#45;&gt;Node16</title>
<path fill="none" stroke="midnightblue" d="M300.69,-168.42C311.69,-153.94 336.15,-124.97 364.5,-112 396.49,-97.37 621.41,-78.61 723.42,-70.74"/>
<polygon fill="midnightblue" stroke="midnightblue" points="723.77,-74.22 733.48,-69.97 723.24,-67.24 723.77,-74.22"/>
</g>
<!-- Node20&#45;&gt;Node18 -->
<g id="edge38" class="edge">
<title>Node20&#45;&gt;Node18</title>
<path fill="none" stroke="midnightblue" d="M310.89,-168.32C327.17,-159.7 352.37,-146.36 371.22,-136.39"/>
<polygon fill="midnightblue" stroke="midnightblue" points="372.95,-139.43 380.15,-131.65 369.68,-133.24 372.95,-139.43"/>
</g>
<!-- Node21 -->
<g id="node21" class="node">
<title>Node21</title>
<g id="a_node21"><a xlink:title=" ">
<polygon fill="none" stroke="#bfbfbf" points="228,-112.5 228,-131.5 279,-131.5 279,-112.5 228,-112.5"/>
<text text-anchor="middle" x="253.5" y="-119.5" font-family="Helvetica,sans-Serif" font-size="10.00">numeric</text>
</a>
</g>
</g>
<!-- Node20&#45;&gt;Node21 -->
<g id="edge40" class="edge">
<title>Node20&#45;&gt;Node21</title>
<path fill="none" stroke="midnightblue" d="M287.73,-168.08C281.94,-160.46 273.44,-149.26 266.36,-139.94"/>
<polygon fill="midnightblue" stroke="midnightblue" points="268.98,-137.6 260.14,-131.75 263.4,-141.83 268.98,-137.6"/>
</g>
<!-- Node22&#45;&gt;Node1 -->
<g id="edge44" class="edge">
<title>Node22&#45;&gt;Node1</title>
<path fill="none" stroke="midnightblue" d="M447.39,-243.58C461.24,-251.38 480.45,-264.1 492.5,-280 502.93,-293.77 509.21,-312.55 512.72,-326.38"/>
<polygon fill="midnightblue" stroke="midnightblue" points="509.32,-327.25 514.96,-336.22 516.15,-325.69 509.32,-327.25"/>
</g>
<!-- Node22&#45;&gt;Node9 -->
<g id="edge43" class="edge">
<title>Node22&#45;&gt;Node9</title>
<path fill="none" stroke="midnightblue" d="M453.15,-224.37C472.84,-216.37 501.71,-203.39 524.5,-188 545.57,-173.77 566.67,-153.5 580.33,-139.39"/>
<polygon fill="midnightblue" stroke="midnightblue" points="583.1,-141.55 587.45,-131.89 578.03,-136.73 583.1,-141.55"/>
</g>
<!-- Node22&#45;&gt;Node12 -->
<g id="edge45" class="edge">
<title>Node22&#45;&gt;Node12</title>
<path fill="none" stroke="midnightblue" d="M479.15,-224.44C539.95,-213.75 642.79,-195.66 698.62,-185.84"/>
<polygon fill="midnightblue" stroke="midnightblue" points="699.24,-189.28 708.48,-184.1 698.03,-182.39 699.24,-189.28"/>
</g>
<!-- Node22&#45;&gt;Node20 -->
<g id="edge46" class="edge">
<title>Node22&#45;&gt;Node20</title>
<path fill="none" stroke="midnightblue" d="M408.95,-224.44C386.47,-215.52 351.01,-201.44 325.52,-191.32"/>
<polygon fill="midnightblue" stroke="midnightblue" points="326.53,-187.95 315.95,-187.52 323.95,-194.46 326.53,-187.95"/>
</g>
<!-- Node23&#45;&gt;Node1 -->
<g id="edge49" class="edge">
<title>Node23&#45;&gt;Node1</title>
<path fill="none" stroke="midnightblue" d="M813.77,-243.61C788.58,-257.13 737.34,-283.48 691.5,-300 651.21,-314.52 604.12,-326.35 568.95,-334.23"/>
<polygon fill="midnightblue" stroke="midnightblue" points="567.91,-330.88 558.89,-336.45 569.41,-337.71 567.91,-330.88"/>
</g>
<!-- Node23&#45;&gt;Node9 -->
<g id="edge48" class="edge">
<title>Node23&#45;&gt;Node9</title>
<path fill="none" stroke="midnightblue" d="M798.52,-224.43C771.68,-216.5 732.15,-203.61 699.5,-188 668.71,-173.28 635.71,-151.51 615.33,-137.29"/>
<polygon fill="midnightblue" stroke="midnightblue" points="617.35,-134.43 607.16,-131.52 613.31,-140.15 617.35,-134.43"/>
</g>
<!-- Node23&#45;&gt;Node12 -->
<g id="edge50" class="edge">
<title>Node23&#45;&gt;Node12</title>
<path fill="none" stroke="midnightblue" d="M814.72,-224.32C800.23,-215.82 777.93,-202.73 761.01,-192.8"/>
<polygon fill="midnightblue" stroke="midnightblue" points="762.64,-189.7 752.24,-187.65 759.1,-195.74 762.64,-189.7"/>
</g>
<!-- Node24&#45;&gt;Node1 -->
<g id="edge53" class="edge">
<title>Node24&#45;&gt;Node1</title>
<path fill="none" stroke="midnightblue" d="M211.62,-242.65C281.02,-254.47 407.03,-276.25 416.5,-280 432.97,-286.53 472.11,-313.38 496.25,-330.46"/>
<polygon fill="midnightblue" stroke="midnightblue" points="494.51,-333.52 504.69,-336.47 498.57,-327.81 494.51,-333.52"/>
</g>
<!-- Node24&#45;&gt;Node9 -->
<g id="edge52" class="edge">
<title>Node24&#45;&gt;Node9</title>
<path fill="none" stroke="midnightblue" d="M211.58,-225.46C214.6,-224.96 217.59,-224.47 220.5,-224 321.76,-207.57 351.14,-220.32 448.5,-188 466.61,-181.99 469.22,-176.09 486.5,-168 512.06,-156.03 541.71,-143.9 563.63,-135.25"/>
<polygon fill="midnightblue" stroke="midnightblue" points="565.07,-138.44 573.11,-131.54 562.52,-131.93 565.07,-138.44"/>
</g>
<!-- Node24&#45;&gt;Node12 -->
<g id="edge54" class="edge">
<title>Node24&#45;&gt;Node12</title>
<path fill="none" stroke="midnightblue" d="M211.54,-225.22C214.57,-224.78 217.58,-224.37 220.5,-224 398.11,-201.5 611.49,-186.82 698.1,-181.37"/>
<polygon fill="midnightblue" stroke="midnightblue" points="698.5,-184.85 708.26,-180.74 698.07,-177.87 698.5,-184.85"/>
</g>
<!-- Node24&#45;&gt;Node20 -->
<g id="edge55" class="edge">
<title>Node24&#45;&gt;Node20</title>
<path fill="none" stroke="midnightblue" d="M186.78,-224.44C207.85,-215.56 241.02,-201.56 264.99,-191.45"/>
<polygon fill="midnightblue" stroke="midnightblue" points="266.46,-194.63 274.31,-187.52 263.74,-188.18 266.46,-194.63"/>
</g>
<!-- Node25&#45;&gt;Node1 -->
<g id="edge58" class="edge">
<title>Node25&#45;&gt;Node1</title>
<path fill="none" stroke="midnightblue" d="M350.88,-243.5C383.29,-249.99 422.94,-261.15 454.5,-280 475.12,-292.32 493.37,-313.34 504.64,-328.14"/>
<polygon fill="midnightblue" stroke="midnightblue" points="501.98,-330.42 510.71,-336.41 507.62,-326.28 501.98,-330.42"/>
</g>
<!-- Node25&#45;&gt;Node9 -->
<g id="edge57" class="edge">
<title>Node25&#45;&gt;Node9</title>
<path fill="none" stroke="midnightblue" d="M348.97,-224.49C388.71,-217.54 441.95,-205.88 486.5,-188 504.06,-180.95 547.12,-154.1 573.56,-137.2"/>
<polygon fill="midnightblue" stroke="midnightblue" points="575.63,-140.03 582.15,-131.68 571.84,-134.14 575.63,-140.03"/>
</g>
<!-- Node25&#45;&gt;Node12 -->
<g id="edge59" class="edge">
<title>Node25&#45;&gt;Node12</title>
<path fill="none" stroke="midnightblue" d="M351.08,-225.06C353.92,-224.7 356.74,-224.34 359.5,-224 483.01,-208.59 629.37,-191.5 698.12,-183.54"/>
<polygon fill="midnightblue" stroke="midnightblue" points="698.55,-187.01 708.08,-182.39 697.74,-180.06 698.55,-187.01"/>
</g>
<!-- Node25&#45;&gt;Node20 -->
<g id="edge60" class="edge">
<title>Node25&#45;&gt;Node20</title>
<path fill="none" stroke="midnightblue" d="M291.16,-224.08C291.68,-217.01 292.44,-206.86 293.09,-197.99"/>
<polygon fill="midnightblue" stroke="midnightblue" points="296.6,-197.98 293.85,-187.75 289.62,-197.47 296.6,-197.98"/>
</g>
</g>
</svg>
