<?xml version="1.0" encoding="UTF-8" standalone="no"?>
<!DOCTYPE svg PUBLIC "-//W3C//DTD SVG 1.1//EN"
 "http://www.w3.org/Graphics/SVG/1.1/DTD/svg11.dtd">
<!-- Generated by graphviz version 3.0.0 (20220413.0242)
 -->
<!-- Title: algebra/sparsesystem.hpp Pages: 1 -->
<svg width="993pt" height="308pt"
 viewBox="0.00 0.00 992.71 308.00" xmlns="http://www.w3.org/2000/svg" xmlns:xlink="http://www.w3.org/1999/xlink">
<g id="graph0" class="graph" transform="scale(1 1) rotate(0) translate(4 304)">
<title>algebra/sparsesystem.hpp</title>
<!-- Node1 -->
<g id="node1" class="node">
<title>Node1</title>
<g id="a_node1"><a xlink:title="ALGEBRA::SparseSystem source file.">
<polygon fill="#bfbfbf" stroke="black" points="493,-280.5 493,-299.5 623,-299.5 623,-280.5 493,-280.5"/>
<text text-anchor="middle" x="558" y="-287.5" font-family="Helvetica,sans-Serif" font-size="10.00">algebra/sparsesystem.hpp</text>
</a>
</g>
</g>
<!-- Node2 -->
<g id="node2" class="node">
<title>Node2</title>
<g id="a_node2"><a xlink:href="main_8cpp.html" target="_top" xlink:title="Main routine of svZeroDSolver.">
<polygon fill="none" stroke="black" points="489,-0.5 489,-19.5 545,-19.5 545,-0.5 489,-0.5"/>
<text text-anchor="middle" x="517" y="-7.5" font-family="Helvetica,sans-Serif" font-size="10.00">main.cpp</text>
</a>
</g>
</g>
<!-- Node1&#45;&gt;Node2 -->
<g id="edge1" class="edge">
<title>Node1&#45;&gt;Node2</title>
<path fill="none" stroke="midnightblue" d="M482.69,-289.66C330.35,-288.97 0,-276.25 0,-179 0,-179 0,-179 0,-121 0,-20.17 380.95,-11.39 488.84,-10.93"/>
<polygon fill="midnightblue" stroke="midnightblue" points="482.89,-293.16 492.9,-289.69 482.91,-286.16 482.89,-293.16"/>
</g>
<!-- Node3 -->
<g id="node3" class="node">
<title>Node3</title>
<g id="a_node3"><a xlink:href="block_8hpp.html" target="_top" xlink:title="MODEL::Block source file.">
<polygon fill="none" stroke="black" points="478.5,-224.5 478.5,-243.5 565.5,-243.5 565.5,-224.5 478.5,-224.5"/>
<text text-anchor="middle" x="522" y="-231.5" font-family="Helvetica,sans-Serif" font-size="10.00">model/block.hpp</text>
</a>
</g>
</g>
<!-- Node1&#45;&gt;Node3 -->
<g id="edge2" class="edge">
<title>Node1&#45;&gt;Node3</title>
<path fill="none" stroke="midnightblue" d="M546.38,-271.57C540.18,-262.27 532.83,-251.25 527.83,-243.75"/>
<polygon fill="midnightblue" stroke="midnightblue" points="543.6,-273.7 552.06,-280.08 549.42,-269.82 543.6,-273.7"/>
</g>
<!-- Node4 -->
<g id="node4" class="node">
<title>Node4</title>
<g id="a_node4"><a xlink:href="bloodvessel_8hpp.html" target="_top" xlink:title="MODEL::BloodVessel source file.">
<polygon fill="none" stroke="black" points="706,-168.5 706,-187.5 822,-187.5 822,-168.5 706,-168.5"/>
<text text-anchor="middle" x="764" y="-175.5" font-family="Helvetica,sans-Serif" font-size="10.00">model/bloodvessel.hpp</text>
</a>
</g>
</g>
<!-- Node1&#45;&gt;Node4 -->
<g id="edge25" class="edge">
<title>Node1&#45;&gt;Node4</title>
<path fill="none" stroke="midnightblue" d="M583.11,-275.59C626,-252.69 712.18,-206.67 747.91,-187.59"/>
<polygon fill="midnightblue" stroke="midnightblue" points="581.34,-272.57 574.16,-280.37 584.63,-278.75 581.34,-272.57"/>
</g>
<!-- Node5 -->
<g id="node5" class="node">
<title>Node5</title>
<g id="a_node5"><a xlink:href="model_8hpp.html" target="_top" xlink:title="MODEL::Model source file.">
<polygon fill="none" stroke="black" points="549,-112.5 549,-131.5 639,-131.5 639,-112.5 549,-112.5"/>
<text text-anchor="middle" x="594" y="-119.5" font-family="Helvetica,sans-Serif" font-size="10.00">model/model.hpp</text>
</a>
</g>
</g>
<!-- Node1&#45;&gt;Node5 -->
<g id="edge28" class="edge">
<title>Node1&#45;&gt;Node5</title>
<path fill="none" stroke="midnightblue" d="M633.24,-280.88C738.61,-268.18 921.57,-239.56 962,-188 1003.24,-135.41 746.65,-125.33 639.39,-123.43"/>
<polygon fill="midnightblue" stroke="midnightblue" points="632.81,-277.41 623.29,-282.06 633.64,-284.36 632.81,-277.41"/>
</g>
<!-- Node10 -->
<g id="node10" class="node">
<title>Node10</title>
<g id="a_node10"><a xlink:href="flowreference_8hpp.html" target="_top" xlink:title="MODEL::FlowReference source file.">
<polygon fill="none" stroke="black" points="840,-168.5 840,-187.5 962,-187.5 962,-168.5 840,-168.5"/>
<text text-anchor="middle" x="901" y="-175.5" font-family="Helvetica,sans-Serif" font-size="10.00">model/flowreference.hpp</text>
</a>
</g>
</g>
<!-- Node1&#45;&gt;Node10 -->
<g id="edge26" class="edge">
<title>Node1&#45;&gt;Node10</title>
<path fill="none" stroke="midnightblue" d="M594.24,-277.38C663.46,-255.18 813.03,-207.21 874.15,-187.61"/>
<polygon fill="midnightblue" stroke="midnightblue" points="593.08,-274.07 584.63,-280.46 595.22,-280.74 593.08,-274.07"/>
</g>
<!-- Node11 -->
<g id="node11" class="node">
<title>Node11</title>
<g id="a_node11"><a xlink:href="junction_8hpp.html" target="_top" xlink:title="MODEL::Junction source file.">
<polygon fill="none" stroke="black" points="28,-168.5 28,-187.5 126,-187.5 126,-168.5 28,-168.5"/>
<text text-anchor="middle" x="77" y="-175.5" font-family="Helvetica,sans-Serif" font-size="10.00">model/junction.hpp</text>
</a>
</g>
</g>
<!-- Node1&#45;&gt;Node11 -->
<g id="edge27" class="edge">
<title>Node1&#45;&gt;Node11</title>
<path fill="none" stroke="midnightblue" d="M508.16,-278.36C466.41,-269.39 405.26,-256.11 352,-244 265.65,-224.37 164.36,-200.11 112.12,-187.5"/>
<polygon fill="midnightblue" stroke="midnightblue" points="507.57,-281.81 518.08,-280.49 509.04,-274.97 507.57,-281.81"/>
</g>
<!-- Node12 -->
<g id="node12" class="node">
<title>Node12</title>
<g id="a_node12"><a xlink:href="pressurereference_8hpp.html" target="_top" xlink:title="MODEL::PressureReference source file.">
<polygon fill="none" stroke="black" points="144,-168.5 144,-187.5 286,-187.5 286,-168.5 144,-168.5"/>
<text text-anchor="middle" x="215" y="-175.5" font-family="Helvetica,sans-Serif" font-size="10.00">model/pressurereference.hpp</text>
</a>
</g>
</g>
<!-- Node1&#45;&gt;Node12 -->
<g id="edge29" class="edge">
<title>Node1&#45;&gt;Node12</title>
<path fill="none" stroke="midnightblue" d="M521.76,-277.38C452.54,-255.18 302.97,-207.21 241.85,-187.61"/>
<polygon fill="midnightblue" stroke="midnightblue" points="520.78,-280.74 531.37,-280.46 522.92,-274.07 520.78,-280.74"/>
</g>
<!-- Node13 -->
<g id="node13" class="node">
<title>Node13</title>
<g id="a_node13"><a xlink:href="rcrblockwithdistalpressure_8hpp.html" target="_top" xlink:title="MODEL::RCRBlockWithDistalPressure source file.">
<polygon fill="none" stroke="black" points="304.5,-168.5 304.5,-187.5 481.5,-187.5 481.5,-168.5 304.5,-168.5"/>
<text text-anchor="middle" x="393" y="-175.5" font-family="Helvetica,sans-Serif" font-size="10.00">model/rcrblockwithdistalpressure.hpp</text>
</a>
</g>
</g>
<!-- Node1&#45;&gt;Node13 -->
<g id="edge30" class="edge">
<title>Node1&#45;&gt;Node13</title>
<path fill="none" stroke="midnightblue" d="M528.85,-276.15C511.25,-267.9 488.69,-256.43 470,-244 443.49,-226.37 415.75,-200.95 401.94,-187.73"/>
<polygon fill="midnightblue" stroke="midnightblue" points="527.51,-279.39 538.06,-280.39 530.44,-273.03 527.51,-279.39"/>
</g>
<!-- Node14 -->
<g id="node14" class="node">
<title>Node14</title>
<g id="a_node14"><a xlink:href="resistancewithdistalpressure_8hpp.html" target="_top" xlink:title="MODEL::ResistanceWithDistalPressure source file.">
<polygon fill="none" stroke="black" points="500,-168.5 500,-187.5 688,-187.5 688,-168.5 500,-168.5"/>
<text text-anchor="middle" x="594" y="-175.5" font-family="Helvetica,sans-Serif" font-size="10.00">model/resistancewithdistalpressure.hpp</text>
</a>
</g>
</g>
<!-- Node1&#45;&gt;Node14 -->
<g id="edge31" class="edge">
<title>Node1&#45;&gt;Node14</title>
<path fill="none" stroke="midnightblue" d="M565.22,-270.86C568.37,-262.7 572.02,-252.92 575,-244 581.64,-224.15 588.23,-200.48 591.63,-187.9"/>
<polygon fill="midnightblue" stroke="midnightblue" points="561.85,-269.86 561.46,-280.44 568.37,-272.41 561.85,-269.86"/>
</g>
<!-- Node3&#45;&gt;Node4 -->
<g id="edge3" class="edge">
<title>Node3&#45;&gt;Node4</title>
<path fill="none" stroke="midnightblue" d="M570.32,-222.22C616.05,-212.01 683.78,-196.9 725.83,-187.52"/>
<polygon fill="midnightblue" stroke="midnightblue" points="569.34,-218.85 560.35,-224.44 570.87,-225.68 569.34,-218.85"/>
</g>
<!-- Node3&#45;&gt;Node10 -->
<g id="edge15" class="edge">
<title>Node3&#45;&gt;Node10</title>
<path fill="none" stroke="midnightblue" d="M575.8,-225.33C645.89,-215.35 768.08,-197.94 841.07,-187.54"/>
<polygon fill="midnightblue" stroke="midnightblue" points="575.25,-221.88 565.85,-226.75 576.24,-228.81 575.25,-221.88"/>
</g>
<!-- Node3&#45;&gt;Node11 -->
<g id="edge17" class="edge">
<title>Node3&#45;&gt;Node11</title>
<path fill="none" stroke="midnightblue" d="M468.29,-227.41C393.49,-219.48 253.75,-204.11 135,-188 132.07,-187.6 129.06,-187.18 126.03,-186.74"/>
<polygon fill="midnightblue" stroke="midnightblue" points="468.09,-230.91 478.4,-228.48 468.83,-223.95 468.09,-230.91"/>
</g>
<!-- Node3&#45;&gt;Node12 -->
<g id="edge19" class="edge">
<title>Node3&#45;&gt;Node12</title>
<path fill="none" stroke="midnightblue" d="M468.3,-223.55C410.49,-213.38 319.32,-197.35 263.57,-187.54"/>
<polygon fill="midnightblue" stroke="midnightblue" points="467.89,-227.04 478.34,-225.32 469.1,-220.14 467.89,-227.04"/>
</g>
<!-- Node3&#45;&gt;Node13 -->
<g id="edge21" class="edge">
<title>Node3&#45;&gt;Node13</title>
<path fill="none" stroke="midnightblue" d="M492.15,-220.5C467.96,-210.38 434.54,-196.39 413.34,-187.52"/>
<polygon fill="midnightblue" stroke="midnightblue" points="490.98,-223.81 501.56,-224.44 493.69,-217.35 490.98,-223.81"/>
</g>
<!-- Node3&#45;&gt;Node14 -->
<g id="edge23" class="edge">
<title>Node3&#45;&gt;Node14</title>
<path fill="none" stroke="midnightblue" d="M541.87,-218.1C554.82,-208.38 571.3,-196.03 582.22,-187.83"/>
<polygon fill="midnightblue" stroke="midnightblue" points="539.47,-215.52 533.57,-224.32 543.67,-221.12 539.47,-215.52"/>
</g>
<!-- Node4&#45;&gt;Node5 -->
<g id="edge4" class="edge">
<title>Node4&#45;&gt;Node5</title>
<path fill="none" stroke="midnightblue" d="M727.18,-165.3C695.15,-155.13 649.48,-140.62 620.81,-131.52"/>
<polygon fill="midnightblue" stroke="midnightblue" points="726.47,-168.75 737.06,-168.44 728.59,-162.08 726.47,-168.75"/>
</g>
<!-- Node5&#45;&gt;Node1 -->
<g id="edge7" class="edge">
<title>Node5&#45;&gt;Node1</title>
<path fill="none" stroke="midnightblue" d="M649.19,-123.44C765.45,-125.37 1021.17,-135.49 980,-188 936.79,-243.11 730.73,-272.01 623.32,-283.28"/>
<polygon fill="midnightblue" stroke="midnightblue" points="649.1,-119.94 639.05,-123.29 649,-126.94 649.1,-119.94"/>
</g>
<!-- Node5&#45;&gt;Node2 -->
<g id="edge14" class="edge">
<title>Node5&#45;&gt;Node2</title>
<path fill="none" stroke="midnightblue" d="M582.07,-103.96C565.38,-80.12 535.7,-37.71 523.01,-19.59"/>
<polygon fill="midnightblue" stroke="midnightblue" points="579.36,-106.18 587.96,-112.37 585.09,-102.17 579.36,-106.18"/>
</g>
<!-- Node6 -->
<g id="node6" class="node">
<title>Node6</title>
<g id="a_node6"><a xlink:href="integrator_8hpp.html" target="_top" xlink:title="ALGEBRA::Integrator source file.">
<polygon fill="none" stroke="black" points="581,-56.5 581,-75.5 691,-75.5 691,-56.5 581,-56.5"/>
<text text-anchor="middle" x="636" y="-63.5" font-family="Helvetica,sans-Serif" font-size="10.00">algebra/integrator.hpp</text>
</a>
</g>
</g>
<!-- Node5&#45;&gt;Node6 -->
<g id="edge5" class="edge">
<title>Node5&#45;&gt;Node6</title>
<path fill="none" stroke="midnightblue" d="M607.11,-104.14C614.43,-94.74 623.24,-83.4 629.19,-75.75"/>
<polygon fill="midnightblue" stroke="midnightblue" points="604.31,-102.04 600.94,-112.08 609.84,-106.34 604.31,-102.04"/>
</g>
<!-- Node7 -->
<g id="node7" class="node">
<title>Node7</title>
<g id="a_node7"><a xlink:href="configreader_8hpp.html" target="_top" xlink:title="IO::ConfigReader source file.">
<polygon fill="none" stroke="black" points="709,-56.5 709,-75.5 807,-75.5 807,-56.5 709,-56.5"/>
<text text-anchor="middle" x="758" y="-63.5" font-family="Helvetica,sans-Serif" font-size="10.00">io/configreader.hpp</text>
</a>
</g>
</g>
<!-- Node5&#45;&gt;Node7 -->
<g id="edge8" class="edge">
<title>Node5&#45;&gt;Node7</title>
<path fill="none" stroke="midnightblue" d="M629.52,-109.3C660.42,-99.13 704.47,-84.62 732.14,-75.52"/>
<polygon fill="midnightblue" stroke="midnightblue" points="628.39,-105.99 619.99,-112.44 630.58,-112.64 628.39,-105.99"/>
</g>
<!-- Node8 -->
<g id="node8" class="node">
<title>Node8</title>
<g id="a_node8"><a xlink:href="csvwriter_8hpp.html" target="_top" xlink:title="IO::write_csv source file.">
<polygon fill="none" stroke="black" points="334.5,-56.5 334.5,-75.5 419.5,-75.5 419.5,-56.5 334.5,-56.5"/>
<text text-anchor="middle" x="377" y="-63.5" font-family="Helvetica,sans-Serif" font-size="10.00">io/csvwriter.hpp</text>
</a>
</g>
</g>
<!-- Node5&#45;&gt;Node8 -->
<g id="edge10" class="edge">
<title>Node5&#45;&gt;Node8</title>
<path fill="none" stroke="midnightblue" d="M549.89,-110.02C508.9,-99.82 448.7,-84.84 411.22,-75.52"/>
<polygon fill="midnightblue" stroke="midnightblue" points="549.07,-113.43 559.62,-112.44 550.76,-106.63 549.07,-113.43"/>
</g>
<!-- Node9 -->
<g id="node9" class="node">
<title>Node9</title>
<g id="a_node9"><a xlink:href="jsonwriter_8hpp.html" target="_top" xlink:title="IO::write_json source file.">
<polygon fill="none" stroke="black" points="437.5,-56.5 437.5,-75.5 524.5,-75.5 524.5,-56.5 437.5,-56.5"/>
<text text-anchor="middle" x="481" y="-63.5" font-family="Helvetica,sans-Serif" font-size="10.00">io/jsonwriter.hpp</text>
</a>
</g>
</g>
<!-- Node5&#45;&gt;Node9 -->
<g id="edge12" class="edge">
<title>Node5&#45;&gt;Node9</title>
<path fill="none" stroke="midnightblue" d="M567,-108.1C545.89,-98.01 517.14,-84.27 498.82,-75.52"/>
<polygon fill="midnightblue" stroke="midnightblue" points="565.56,-111.29 576.09,-112.44 568.58,-104.97 565.56,-111.29"/>
</g>
<!-- Node6&#45;&gt;Node2 -->
<g id="edge6" class="edge">
<title>Node6&#45;&gt;Node2</title>
<path fill="none" stroke="midnightblue" d="M607.86,-52.23C585.6,-42.13 555.14,-28.31 535.77,-19.52"/>
<polygon fill="midnightblue" stroke="midnightblue" points="606.59,-55.5 617.14,-56.44 609.48,-49.12 606.59,-55.5"/>
</g>
<!-- Node7&#45;&gt;Node2 -->
<g id="edge9" class="edge">
<title>Node7&#45;&gt;Node2</title>
<path fill="none" stroke="midnightblue" d="M710.01,-54.25C660.73,-43.21 585.68,-26.39 545.22,-17.32"/>
<polygon fill="midnightblue" stroke="midnightblue" points="709.29,-57.67 719.81,-56.44 710.82,-50.84 709.29,-57.67"/>
</g>
<!-- Node8&#45;&gt;Node2 -->
<g id="edge11" class="edge">
<title>Node8&#45;&gt;Node2</title>
<path fill="none" stroke="midnightblue" d="M408.7,-52.77C435,-42.63 471.72,-28.47 494.92,-19.52"/>
<polygon fill="midnightblue" stroke="midnightblue" points="407.25,-49.58 399.18,-56.44 409.77,-56.11 407.25,-49.58"/>
</g>
<!-- Node9&#45;&gt;Node2 -->
<g id="edge13" class="edge">
<title>Node9&#45;&gt;Node2</title>
<path fill="none" stroke="midnightblue" d="M492.62,-47.57C498.82,-38.27 506.17,-27.25 511.17,-19.75"/>
<polygon fill="midnightblue" stroke="midnightblue" points="489.58,-45.82 486.94,-56.08 495.4,-49.7 489.58,-45.82"/>
</g>
<!-- Node10&#45;&gt;Node5 -->
<g id="edge16" class="edge">
<title>Node10&#45;&gt;Node5</title>
<path fill="none" stroke="midnightblue" d="M842.42,-166.7C783.32,-156.3 693.32,-140.47 639.42,-130.99"/>
<polygon fill="midnightblue" stroke="midnightblue" points="841.9,-170.16 852.35,-168.44 843.11,-163.26 841.9,-170.16"/>
</g>
<!-- Node11&#45;&gt;Node5 -->
<g id="edge18" class="edge">
<title>Node11&#45;&gt;Node5</title>
<path fill="none" stroke="midnightblue" d="M136.38,-167.89C294.03,-148.19 468.37,-133.14 548.95,-126.57"/>
<polygon fill="midnightblue" stroke="midnightblue" points="135.5,-164.47 126.02,-169.2 136.38,-171.42 135.5,-164.47"/>
</g>
<!-- Node12&#45;&gt;Node5 -->
<g id="edge20" class="edge">
<title>Node12&#45;&gt;Node5</title>
<path fill="none" stroke="midnightblue" d="M285.15,-167.01C362.14,-156.04 483.47,-138.75 548.78,-129.44"/>
<polygon fill="midnightblue" stroke="midnightblue" points="284.46,-163.57 275.05,-168.44 285.45,-170.5 284.46,-163.57"/>
</g>
<!-- Node13&#45;&gt;Node5 -->
<g id="edge22" class="edge">
<title>Node13&#45;&gt;Node5</title>
<path fill="none" stroke="midnightblue" d="M434.58,-165.83C472.53,-155.63 527.81,-140.78 562.3,-131.52"/>
<polygon fill="midnightblue" stroke="midnightblue" points="433.6,-162.47 424.85,-168.44 435.41,-169.23 433.6,-162.47"/>
</g>
<!-- Node14&#45;&gt;Node5 -->
<g id="edge24" class="edge">
<title>Node14&#45;&gt;Node5</title>
<path fill="none" stroke="midnightblue" d="M594,-157.8C594,-148.91 594,-138.78 594,-131.75"/>
<polygon fill="midnightblue" stroke="midnightblue" points="590.5,-158.08 594,-168.08 597.5,-158.08 590.5,-158.08"/>
</g>
</g>
</svg>
