<?xml version="1.0" encoding="UTF-8" standalone="no"?>
<!DOCTYPE svg PUBLIC "-//W3C//DTD SVG 1.1//EN"
 "http://www.w3.org/Graphics/SVG/1.1/DTD/svg11.dtd">
<!-- Generated by graphviz version 3.0.0 (20220413.0242)
 -->
<!-- Title: algebra/sparsesystem.hpp Pages: 1 -->
<svg width="853pt" height="308pt"
 viewBox="0.00 0.00 853.00 308.00" xmlns="http://www.w3.org/2000/svg" xmlns:xlink="http://www.w3.org/1999/xlink">
<g id="graph0" class="graph" transform="scale(1 1) rotate(0) translate(4 304)">
<title>algebra/sparsesystem.hpp</title>
<!-- Node1 -->
<g id="node1" class="node">
<title>Node1</title>
<g id="a_node1"><a xlink:title="ALGEBRA::SparseSystem source file.">
<polygon fill="#bfbfbf" stroke="black" points="214,-280.5 214,-299.5 344,-299.5 344,-280.5 214,-280.5"/>
<text text-anchor="middle" x="279" y="-287.5" font-family="Helvetica,sans-Serif" font-size="10.00">algebra/sparsesystem.hpp</text>
</a>
</g>
</g>
<!-- Node2 -->
<g id="node2" class="node">
<title>Node2</title>
<g id="a_node2"><a xlink:href="main_8cpp.html" target="_top" xlink:title="Main routine of svZeroDSolver.">
<polygon fill="none" stroke="black" points="199,-0.5 199,-19.5 255,-19.5 255,-0.5 199,-0.5"/>
<text text-anchor="middle" x="227" y="-7.5" font-family="Helvetica,sans-Serif" font-size="10.00">main.cpp</text>
</a>
</g>
</g>
<!-- Node1&#45;&gt;Node2 -->
<g id="edge1" class="edge">
<title>Node1&#45;&gt;Node2</title>
<path fill="none" stroke="midnightblue" d="M221.53,-278.41C139.85,-261.69 0,-226.18 0,-179 0,-179 0,-179 0,-121 0,-88.19 8.95,-75.95 35,-56 83.79,-18.64 158.56,-11.55 198.88,-10.64"/>
<polygon fill="midnightblue" stroke="midnightblue" points="221.18,-281.91 231.67,-280.45 222.56,-275.05 221.18,-281.91"/>
</g>
<!-- Node3 -->
<g id="node3" class="node">
<title>Node3</title>
<g id="a_node3"><a xlink:href="block_8hpp.html" target="_top" xlink:title="MODEL::Block source file.">
<polygon fill="none" stroke="black" points="319.5,-224.5 319.5,-243.5 406.5,-243.5 406.5,-224.5 319.5,-224.5"/>
<text text-anchor="middle" x="363" y="-231.5" font-family="Helvetica,sans-Serif" font-size="10.00">model/block.hpp</text>
</a>
</g>
</g>
<!-- Node1&#45;&gt;Node3 -->
<g id="edge2" class="edge">
<title>Node1&#45;&gt;Node3</title>
<path fill="none" stroke="midnightblue" d="M300.93,-274.9C316.34,-265 336.45,-252.07 349.54,-243.65"/>
<polygon fill="midnightblue" stroke="midnightblue" points="299.02,-271.97 292.5,-280.32 302.8,-277.86 299.02,-271.97"/>
</g>
<!-- Node4 -->
<g id="node4" class="node">
<title>Node4</title>
<g id="a_node4"><a xlink:href="bloodvessel_8hpp.html" target="_top" xlink:title="MODEL::BloodVessel source file.">
<polygon fill="none" stroke="black" points="84,-168.5 84,-187.5 200,-187.5 200,-168.5 84,-168.5"/>
<text text-anchor="middle" x="142" y="-175.5" font-family="Helvetica,sans-Serif" font-size="10.00">model/bloodvessel.hpp</text>
</a>
</g>
</g>
<!-- Node1&#45;&gt;Node4 -->
<g id="edge23" class="edge">
<title>Node1&#45;&gt;Node4</title>
<path fill="none" stroke="midnightblue" d="M260.09,-273.82C230.91,-250.39 175.86,-206.19 152.7,-187.59"/>
<polygon fill="midnightblue" stroke="midnightblue" points="258.26,-276.84 268.25,-280.37 262.64,-271.38 258.26,-276.84"/>
</g>
<!-- Node5 -->
<g id="node5" class="node">
<title>Node5</title>
<g id="a_node5"><a xlink:href="model_8hpp.html" target="_top" xlink:title="MODEL::Model source file.">
<polygon fill="none" stroke="black" points="218,-112.5 218,-131.5 308,-131.5 308,-112.5 218,-112.5"/>
<text text-anchor="middle" x="263" y="-119.5" font-family="Helvetica,sans-Serif" font-size="10.00">model/model.hpp</text>
</a>
</g>
</g>
<!-- Node1&#45;&gt;Node5 -->
<g id="edge27" class="edge">
<title>Node1&#45;&gt;Node5</title>
<path fill="none" stroke="midnightblue" d="M215.19,-278.12C164.77,-265.51 97.95,-239.47 66,-188 31.71,-132.77 149.51,-123.62 217.84,-122.64"/>
<polygon fill="midnightblue" stroke="midnightblue" points="214.5,-281.56 225.04,-280.47 216.12,-274.75 214.5,-281.56"/>
</g>
<!-- Node10 -->
<g id="node10" class="node">
<title>Node10</title>
<g id="a_node10"><a xlink:href="closedloopheartpulmonary_8hpp.html" target="_top" xlink:title="MODEL::ClosedLoopHeartPulmonary source file.">
<polygon fill="none" stroke="black" points="669,-168.5 669,-187.5 845,-187.5 845,-168.5 669,-168.5"/>
<text text-anchor="middle" x="757" y="-175.5" font-family="Helvetica,sans-Serif" font-size="10.00">model/closedloopheartpulmonary.hpp</text>
</a>
</g>
</g>
<!-- Node1&#45;&gt;Node10 -->
<g id="edge24" class="edge">
<title>Node1&#45;&gt;Node10</title>
<path fill="none" stroke="midnightblue" d="M327,-278.24C367.31,-269.18 426.44,-255.84 478,-244 565.01,-224.03 667.17,-200.11 720.46,-187.59"/>
<polygon fill="midnightblue" stroke="midnightblue" points="326.16,-274.84 317.17,-280.45 327.69,-281.67 326.16,-274.84"/>
</g>
<!-- Node11 -->
<g id="node11" class="node">
<title>Node11</title>
<g id="a_node11"><a xlink:href="flowreference_8hpp.html" target="_top" xlink:title="MODEL::FlowReference source file.">
<polygon fill="none" stroke="black" points="218,-168.5 218,-187.5 340,-187.5 340,-168.5 218,-168.5"/>
<text text-anchor="middle" x="279" y="-175.5" font-family="Helvetica,sans-Serif" font-size="10.00">model/flowreference.hpp</text>
</a>
</g>
</g>
<!-- Node1&#45;&gt;Node11 -->
<g id="edge25" class="edge">
<title>Node1&#45;&gt;Node11</title>
<path fill="none" stroke="midnightblue" d="M279,-270.35C279,-246.25 279,-205.31 279,-187.59"/>
<polygon fill="midnightblue" stroke="midnightblue" points="275.5,-270.37 279,-280.37 282.5,-270.37 275.5,-270.37"/>
</g>
<!-- Node12 -->
<g id="node12" class="node">
<title>Node12</title>
<g id="a_node12"><a xlink:href="junction_8hpp.html" target="_top" xlink:title="MODEL::Junction source file.">
<polygon fill="none" stroke="black" points="553,-168.5 553,-187.5 651,-187.5 651,-168.5 553,-168.5"/>
<text text-anchor="middle" x="602" y="-175.5" font-family="Helvetica,sans-Serif" font-size="10.00">model/junction.hpp</text>
</a>
</g>
</g>
<!-- Node1&#45;&gt;Node12 -->
<g id="edge26" class="edge">
<title>Node1&#45;&gt;Node12</title>
<path fill="none" stroke="midnightblue" d="M322.49,-277.84C354.43,-269.35 398.73,-256.95 437,-244 490.22,-225.99 551.42,-200.62 582.17,-187.54"/>
<polygon fill="midnightblue" stroke="midnightblue" points="321.36,-274.52 312.58,-280.46 323.14,-281.29 321.36,-274.52"/>
</g>
<!-- Node13 -->
<g id="node13" class="node">
<title>Node13</title>
<g id="a_node13"><a xlink:href="rcrblockwithdistalpressure_8hpp.html" target="_top" xlink:title="MODEL::RCRBlockWithDistalPressure source file.">
<polygon fill="none" stroke="black" points="358.5,-168.5 358.5,-187.5 535.5,-187.5 535.5,-168.5 358.5,-168.5"/>
<text text-anchor="middle" x="447" y="-175.5" font-family="Helvetica,sans-Serif" font-size="10.00">model/rcrblockwithdistalpressure.hpp</text>
</a>
</g>
</g>
<!-- Node1&#45;&gt;Node13 -->
<g id="edge28" class="edge">
<title>Node1&#45;&gt;Node13</title>
<path fill="none" stroke="midnightblue" d="M347.61,-277.96C371.43,-271.34 396.92,-260.79 416,-244 433.27,-228.8 441.73,-201.87 445.12,-187.93"/>
<polygon fill="midnightblue" stroke="midnightblue" points="346.69,-274.58 337.89,-280.47 348.44,-281.36 346.69,-274.58"/>
</g>
<!-- Node3&#45;&gt;Node4 -->
<g id="edge3" class="edge">
<title>Node3&#45;&gt;Node4</title>
<path fill="none" stroke="midnightblue" d="M318.08,-222.02C276.33,-211.82 215.02,-196.84 176.85,-187.52"/>
<polygon fill="midnightblue" stroke="midnightblue" points="317.44,-225.47 327.98,-224.44 319.1,-218.67 317.44,-225.47"/>
</g>
<!-- Node3&#45;&gt;Node10 -->
<g id="edge15" class="edge">
<title>Node3&#45;&gt;Node10</title>
<path fill="none" stroke="midnightblue" d="M416.95,-225.61C489.48,-215.67 618.13,-198.03 694.69,-187.54"/>
<polygon fill="midnightblue" stroke="midnightblue" points="416.1,-222.19 406.67,-227.01 417.05,-229.12 416.1,-222.19"/>
</g>
<!-- Node3&#45;&gt;Node11 -->
<g id="edge16" class="edge">
<title>Node3&#45;&gt;Node11</title>
<path fill="none" stroke="midnightblue" d="M341.07,-218.9C325.66,-209 305.55,-196.07 292.46,-187.65"/>
<polygon fill="midnightblue" stroke="midnightblue" points="339.2,-221.86 349.5,-224.32 342.98,-215.97 339.2,-221.86"/>
</g>
<!-- Node3&#45;&gt;Node12 -->
<g id="edge18" class="edge">
<title>Node3&#45;&gt;Node12</title>
<path fill="none" stroke="midnightblue" d="M410.72,-222.22C455.89,-212.01 522.77,-196.9 564.31,-187.52"/>
<polygon fill="midnightblue" stroke="midnightblue" points="409.85,-218.83 400.87,-224.44 411.4,-225.65 409.85,-218.83"/>
</g>
<!-- Node3&#45;&gt;Node13 -->
<g id="edge21" class="edge">
<title>Node3&#45;&gt;Node13</title>
<path fill="none" stroke="midnightblue" d="M384.93,-218.9C400.34,-209 420.45,-196.07 433.54,-187.65"/>
<polygon fill="midnightblue" stroke="midnightblue" points="383.02,-215.97 376.5,-224.32 386.8,-221.86 383.02,-215.97"/>
</g>
<!-- Node4&#45;&gt;Node5 -->
<g id="edge4" class="edge">
<title>Node4&#45;&gt;Node5</title>
<path fill="none" stroke="midnightblue" d="M170.31,-164.37C192.97,-154.26 224.13,-140.35 243.92,-131.52"/>
<polygon fill="midnightblue" stroke="midnightblue" points="168.88,-161.17 161.17,-168.44 171.73,-167.56 168.88,-161.17"/>
</g>
<!-- Node5&#45;&gt;Node1 -->
<g id="edge7" class="edge">
<title>Node5&#45;&gt;Node1</title>
<path fill="none" stroke="midnightblue" d="M207.66,-123.27C144.33,-126.06 53.33,-138.6 84,-188 118.08,-242.9 191.84,-268.87 238.35,-280.47"/>
<polygon fill="midnightblue" stroke="midnightblue" points="208.09,-126.76 217.96,-122.89 207.83,-119.76 208.09,-126.76"/>
</g>
<!-- Node5&#45;&gt;Node2 -->
<g id="edge14" class="edge">
<title>Node5&#45;&gt;Node2</title>
<path fill="none" stroke="midnightblue" d="M257.97,-102.41C254.34,-89.35 249.19,-71.51 244,-56 239.71,-43.17 234.04,-28.56 230.46,-19.56"/>
<polygon fill="midnightblue" stroke="midnightblue" points="254.61,-103.38 260.63,-112.1 261.36,-101.53 254.61,-103.38"/>
</g>
<!-- Node6 -->
<g id="node6" class="node">
<title>Node6</title>
<g id="a_node6"><a xlink:href="integrator_8hpp.html" target="_top" xlink:title="ALGEBRA::Integrator source file.">
<polygon fill="none" stroke="black" points="291,-56.5 291,-75.5 401,-75.5 401,-56.5 291,-56.5"/>
<text text-anchor="middle" x="346" y="-63.5" font-family="Helvetica,sans-Serif" font-size="10.00">algebra/integrator.hpp</text>
</a>
</g>
</g>
<!-- Node5&#45;&gt;Node6 -->
<g id="edge5" class="edge">
<title>Node5&#45;&gt;Node6</title>
<path fill="none" stroke="midnightblue" d="M285.1,-106.62C300.26,-96.76 319.88,-83.99 332.7,-75.65"/>
<polygon fill="midnightblue" stroke="midnightblue" points="282.81,-103.94 276.34,-112.32 286.63,-109.8 282.81,-103.94"/>
</g>
<!-- Node7 -->
<g id="node7" class="node">
<title>Node7</title>
<g id="a_node7"><a xlink:href="configreader_8hpp.html" target="_top" xlink:title="IO::ConfigReader source file.">
<polygon fill="none" stroke="black" points="419,-56.5 419,-75.5 517,-75.5 517,-56.5 419,-56.5"/>
<text text-anchor="middle" x="468" y="-63.5" font-family="Helvetica,sans-Serif" font-size="10.00">io/configreader.hpp</text>
</a>
</g>
</g>
<!-- Node5&#45;&gt;Node7 -->
<g id="edge8" class="edge">
<title>Node5&#45;&gt;Node7</title>
<path fill="none" stroke="midnightblue" d="M305.41,-109.83C344.11,-99.63 400.49,-84.78 435.67,-75.52"/>
<polygon fill="midnightblue" stroke="midnightblue" points="304.26,-106.51 295.48,-112.44 306.04,-113.28 304.26,-106.51"/>
</g>
<!-- Node8 -->
<g id="node8" class="node">
<title>Node8</title>
<g id="a_node8"><a xlink:href="csvwriter_8hpp.html" target="_top" xlink:title="IO::write_csv source file.">
<polygon fill="none" stroke="black" points="44.5,-56.5 44.5,-75.5 129.5,-75.5 129.5,-56.5 44.5,-56.5"/>
<text text-anchor="middle" x="87" y="-63.5" font-family="Helvetica,sans-Serif" font-size="10.00">io/csvwriter.hpp</text>
</a>
</g>
</g>
<!-- Node5&#45;&gt;Node8 -->
<g id="edge10" class="edge">
<title>Node5&#45;&gt;Node8</title>
<path fill="none" stroke="midnightblue" d="M225.31,-109.44C192.13,-99.26 144.57,-84.66 114.76,-75.52"/>
<polygon fill="midnightblue" stroke="midnightblue" points="224.53,-112.86 235.11,-112.44 226.58,-106.16 224.53,-112.86"/>
</g>
<!-- Node9 -->
<g id="node9" class="node">
<title>Node9</title>
<g id="a_node9"><a xlink:href="jsonwriter_8hpp.html" target="_top" xlink:title="IO::write_json source file.">
<polygon fill="none" stroke="black" points="147.5,-56.5 147.5,-75.5 234.5,-75.5 234.5,-56.5 147.5,-56.5"/>
<text text-anchor="middle" x="191" y="-63.5" font-family="Helvetica,sans-Serif" font-size="10.00">io/jsonwriter.hpp</text>
</a>
</g>
</g>
<!-- Node5&#45;&gt;Node9 -->
<g id="edge12" class="edge">
<title>Node5&#45;&gt;Node9</title>
<path fill="none" stroke="midnightblue" d="M243.13,-106.1C230.18,-96.38 213.7,-84.03 202.78,-75.83"/>
<polygon fill="midnightblue" stroke="midnightblue" points="241.33,-109.12 251.43,-112.32 245.53,-103.52 241.33,-109.12"/>
</g>
<!-- Node6&#45;&gt;Node2 -->
<g id="edge6" class="edge">
<title>Node6&#45;&gt;Node2</title>
<path fill="none" stroke="midnightblue" d="M317.86,-52.23C295.6,-42.13 265.14,-28.31 245.77,-19.52"/>
<polygon fill="midnightblue" stroke="midnightblue" points="316.59,-55.5 327.14,-56.44 319.48,-49.12 316.59,-55.5"/>
</g>
<!-- Node7&#45;&gt;Node2 -->
<g id="edge9" class="edge">
<title>Node7&#45;&gt;Node2</title>
<path fill="none" stroke="midnightblue" d="M420.01,-54.25C370.73,-43.21 295.68,-26.39 255.22,-17.32"/>
<polygon fill="midnightblue" stroke="midnightblue" points="419.29,-57.67 429.81,-56.44 420.82,-50.84 419.29,-57.67"/>
</g>
<!-- Node8&#45;&gt;Node2 -->
<g id="edge11" class="edge">
<title>Node8&#45;&gt;Node2</title>
<path fill="none" stroke="midnightblue" d="M118.7,-52.77C145,-42.63 181.72,-28.47 204.92,-19.52"/>
<polygon fill="midnightblue" stroke="midnightblue" points="117.25,-49.58 109.18,-56.44 119.77,-56.11 117.25,-49.58"/>
</g>
<!-- Node9&#45;&gt;Node2 -->
<g id="edge13" class="edge">
<title>Node9&#45;&gt;Node2</title>
<path fill="none" stroke="midnightblue" d="M202.62,-47.57C208.82,-38.27 216.17,-27.25 221.17,-19.75"/>
<polygon fill="midnightblue" stroke="midnightblue" points="199.58,-45.82 196.94,-56.08 205.4,-49.7 199.58,-45.82"/>
</g>
<!-- Node11&#45;&gt;Node5 -->
<g id="edge17" class="edge">
<title>Node11&#45;&gt;Node5</title>
<path fill="none" stroke="midnightblue" d="M273.49,-158.4C270.81,-149.36 267.72,-138.94 265.59,-131.75"/>
<polygon fill="midnightblue" stroke="midnightblue" points="270.16,-159.49 276.36,-168.08 276.87,-157.5 270.16,-159.49"/>
</g>
<!-- Node12&#45;&gt;Node5 -->
<g id="edge20" class="edge">
<title>Node12&#45;&gt;Node5</title>
<path fill="none" stroke="midnightblue" d="M542.73,-167.56C475.82,-156.9 368.42,-139.79 308.02,-130.17"/>
<polygon fill="midnightblue" stroke="midnightblue" points="542.28,-171.03 552.71,-169.15 543.38,-164.12 542.28,-171.03"/>
</g>
<!-- Node12&#45;&gt;Node7 -->
<g id="edge19" class="edge">
<title>Node12&#45;&gt;Node7</title>
<path fill="none" stroke="midnightblue" d="M583.5,-161.82C554.96,-138.39 501.12,-94.19 478.47,-75.59"/>
<polygon fill="midnightblue" stroke="midnightblue" points="581.54,-164.73 591.49,-168.37 585.98,-159.32 581.54,-164.73"/>
</g>
<!-- Node13&#45;&gt;Node5 -->
<g id="edge22" class="edge">
<title>Node13&#45;&gt;Node5</title>
<path fill="none" stroke="midnightblue" d="M408.05,-165.57C373.34,-155.38 323.32,-140.7 292.02,-131.52"/>
<polygon fill="midnightblue" stroke="midnightblue" points="407.26,-168.99 417.84,-168.44 409.23,-162.27 407.26,-168.99"/>
</g>
</g>
</svg>
