<?xml version="1.0" encoding="UTF-8" standalone="no"?>
<!DOCTYPE svg PUBLIC "-//W3C//DTD SVG 1.1//EN"
 "http://www.w3.org/Graphics/SVG/1.1/DTD/svg11.dtd">
<!-- Generated by graphviz version 3.0.0 (20220413.0242)
 -->
<!-- Title: algebra/sparsesystem.hpp Pages: 1 -->
<svg width="1359pt" height="308pt"
 viewBox="0.00 0.00 1359.30 308.00" xmlns="http://www.w3.org/2000/svg" xmlns:xlink="http://www.w3.org/1999/xlink">
<g id="graph0" class="graph" transform="scale(1 1) rotate(0) translate(4 304)">
<title>algebra/sparsesystem.hpp</title>
<!-- Node1 -->
<g id="node1" class="node">
<title>Node1</title>
<g id="a_node1"><a xlink:title="ALGEBRA::SparseSystem source file.">
<polygon fill="#bfbfbf" stroke="black" points="714.8,-280.5 714.8,-299.5 844.8,-299.5 844.8,-280.5 714.8,-280.5"/>
<text text-anchor="middle" x="779.8" y="-287.5" font-family="Helvetica,sans-Serif" font-size="10.00">algebra/sparsesystem.hpp</text>
</a>
</g>
</g>
<!-- Node2 -->
<g id="node2" class="node">
<title>Node2</title>
<g id="a_node2"><a xlink:href="main_8cpp.html" target="_top" xlink:title="Main routine of svZeroDSolver.">
<polygon fill="none" stroke="black" points="219.8,-0.5 219.8,-19.5 275.8,-19.5 275.8,-0.5 219.8,-0.5"/>
<text text-anchor="middle" x="247.8" y="-7.5" font-family="Helvetica,sans-Serif" font-size="10.00">main.cpp</text>
</a>
</g>
</g>
<!-- Node1&#45;&gt;Node2 -->
<g id="edge1" class="edge">
<title>Node1&#45;&gt;Node2</title>
<path fill="none" stroke="midnightblue" d="M704.54,-286.2C509.15,-277.92 0.8,-249.61 0.8,-179 0.8,-179 0.8,-179 0.8,-121 0.8,-90.9 -2.41,-76.31 19.8,-56 48.76,-29.52 165.33,-17.3 219.66,-12.96"/>
<polygon fill="midnightblue" stroke="midnightblue" points="704.59,-289.7 714.73,-286.62 704.88,-282.71 704.59,-289.7"/>
</g>
<!-- Node3 -->
<g id="node3" class="node">
<title>Node3</title>
<g id="a_node3"><a xlink:href="block_8hpp.html" target="_top" xlink:title="MODEL::Block source file.">
<polygon fill="none" stroke="black" points="898.3,-224.5 898.3,-243.5 985.3,-243.5 985.3,-224.5 898.3,-224.5"/>
<text text-anchor="middle" x="941.8" y="-231.5" font-family="Helvetica,sans-Serif" font-size="10.00">model/block.hpp</text>
</a>
</g>
</g>
<!-- Node1&#45;&gt;Node3 -->
<g id="edge2" class="edge">
<title>Node1&#45;&gt;Node3</title>
<path fill="none" stroke="midnightblue" d="M815.29,-277.17C845.79,-267 889.05,-252.59 916.25,-243.52"/>
<polygon fill="midnightblue" stroke="midnightblue" points="813.85,-273.96 805.47,-280.44 816.07,-280.6 813.85,-273.96"/>
</g>
<!-- Node4 -->
<g id="node4" class="node">
<title>Node4</title>
<g id="a_node4"><a xlink:href="bloodvessel_8hpp.html" target="_top" xlink:title="MODEL::BloodVessel source file.">
<polygon fill="none" stroke="black" points="721.8,-168.5 721.8,-187.5 837.8,-187.5 837.8,-168.5 721.8,-168.5"/>
<text text-anchor="middle" x="779.8" y="-175.5" font-family="Helvetica,sans-Serif" font-size="10.00">model/bloodvessel.hpp</text>
</a>
</g>
</g>
<!-- Node1&#45;&gt;Node4 -->
<g id="edge38" class="edge">
<title>Node1&#45;&gt;Node4</title>
<path fill="none" stroke="midnightblue" d="M779.8,-270.35C779.8,-246.25 779.8,-205.31 779.8,-187.59"/>
<polygon fill="midnightblue" stroke="midnightblue" points="776.3,-270.37 779.8,-280.37 783.3,-270.37 776.3,-270.37"/>
</g>
<!-- Node5 -->
<g id="node5" class="node">
<title>Node5</title>
<g id="a_node5"><a xlink:href="model_8hpp.html" target="_top" xlink:title="MODEL::Model source file.">
<polygon fill="none" stroke="black" points="601.8,-112.5 601.8,-131.5 691.8,-131.5 691.8,-112.5 601.8,-112.5"/>
<text text-anchor="middle" x="646.8" y="-119.5" font-family="Helvetica,sans-Serif" font-size="10.00">model/model.hpp</text>
</a>
</g>
</g>
<!-- Node1&#45;&gt;Node5 -->
<g id="edge41" class="edge">
<title>Node1&#45;&gt;Node5</title>
<path fill="none" stroke="midnightblue" d="M724.54,-277.4C704.94,-270.55 684.46,-259.98 670.8,-244 641.95,-210.23 638.13,-153.44 642.32,-131.77"/>
<polygon fill="midnightblue" stroke="midnightblue" points="723.47,-280.73 734.06,-280.47 725.62,-274.07 723.47,-280.73"/>
</g>
<!-- Node7 -->
<g id="node7" class="node">
<title>Node7</title>
<g id="a_node7"><a xlink:href="flowreferencebc_8hpp.html" target="_top" xlink:title="MODEL::FlowReferenceBC source file.">
<polygon fill="none" stroke="black" points="1077.8,-0.5 1077.8,-19.5 1209.8,-19.5 1209.8,-0.5 1077.8,-0.5"/>
<text text-anchor="middle" x="1143.8" y="-7.5" font-family="Helvetica,sans-Serif" font-size="10.00">model/flowreferencebc.hpp</text>
</a>
</g>
</g>
<!-- Node1&#45;&gt;Node7 -->
<g id="edge39" class="edge">
<title>Node1&#45;&gt;Node7</title>
<path fill="none" stroke="midnightblue" d="M855.13,-286.66C987,-280.49 1245.8,-258.29 1245.8,-179 1245.8,-179 1245.8,-179 1245.8,-121 1245.8,-71.78 1190.21,-35.28 1161.11,-19.55"/>
<polygon fill="midnightblue" stroke="midnightblue" points="854.92,-283.16 845.09,-287.11 855.24,-290.16 854.92,-283.16"/>
</g>
<!-- Node8 -->
<g id="node8" class="node">
<title>Node8</title>
<g id="a_node8"><a xlink:href="junction_8hpp.html" target="_top" xlink:title="MODEL::Junction source file.">
<polygon fill="none" stroke="black" points="961.8,-0.5 961.8,-19.5 1059.8,-19.5 1059.8,-0.5 961.8,-0.5"/>
<text text-anchor="middle" x="1010.8" y="-7.5" font-family="Helvetica,sans-Serif" font-size="10.00">model/junction.hpp</text>
</a>
</g>
</g>
<!-- Node1&#45;&gt;Node8 -->
<g id="edge40" class="edge">
<title>Node1&#45;&gt;Node8</title>
<path fill="none" stroke="midnightblue" d="M855.12,-283.1C914.77,-276.91 991.77,-265.07 1014.8,-244 1080.48,-183.93 1030.32,-55.03 1014.91,-19.96"/>
<polygon fill="midnightblue" stroke="midnightblue" points="854.56,-279.64 844.96,-284.11 855.26,-286.6 854.56,-279.64"/>
</g>
<!-- Node9 -->
<g id="node9" class="node">
<title>Node9</title>
<g id="a_node9"><a xlink:href="openloopcoronarybc_8hpp.html" target="_top" xlink:title="MODEL::OpenLoopCoronaryBC source file.">
<polygon fill="none" stroke="black" points="485.8,-0.5 485.8,-19.5 635.8,-19.5 635.8,-0.5 485.8,-0.5"/>
<text text-anchor="middle" x="560.8" y="-7.5" font-family="Helvetica,sans-Serif" font-size="10.00">model/openloopcoronarybc.hpp</text>
</a>
</g>
</g>
<!-- Node1&#45;&gt;Node9 -->
<g id="edge42" class="edge">
<title>Node1&#45;&gt;Node9</title>
<path fill="none" stroke="midnightblue" d="M704.61,-287.69C566.35,-283.24 285.8,-263.75 285.8,-179 285.8,-179 285.8,-179 285.8,-121 285.8,-90.9 282.38,-76.08 304.8,-56 330.94,-32.6 419.78,-21.02 485.5,-15.54"/>
<polygon fill="midnightblue" stroke="midnightblue" points="704.61,-291.19 714.71,-288 704.82,-284.2 704.61,-291.19"/>
</g>
<!-- Node10 -->
<g id="node10" class="node">
<title>Node10</title>
<g id="a_node10"><a xlink:href="pressurereferencebc_8hpp.html" target="_top" xlink:title="MODEL::PressureReferenceBC source file.">
<polygon fill="none" stroke="black" points="653.8,-0.5 653.8,-19.5 805.8,-19.5 805.8,-0.5 653.8,-0.5"/>
<text text-anchor="middle" x="729.8" y="-7.5" font-family="Helvetica,sans-Serif" font-size="10.00">model/pressurereferencebc.hpp</text>
</a>
</g>
</g>
<!-- Node1&#45;&gt;Node10 -->
<g id="edge43" class="edge">
<title>Node1&#45;&gt;Node10</title>
<path fill="none" stroke="midnightblue" d="M764.67,-272.9C748.22,-254.18 722.92,-221.54 712.8,-188 694,-125.64 717.74,-45.83 726.67,-19.7"/>
<polygon fill="midnightblue" stroke="midnightblue" points="762.22,-275.4 771.52,-280.47 767.41,-270.71 762.22,-275.4"/>
</g>
<!-- Node11 -->
<g id="node11" class="node">
<title>Node11</title>
<g id="a_node11"><a xlink:href="resistancebc_8hpp.html" target="_top" xlink:title="MODEL::ResistanceBC source file.">
<polygon fill="none" stroke="black" points="824.3,-0.5 824.3,-19.5 943.3,-19.5 943.3,-0.5 824.3,-0.5"/>
<text text-anchor="middle" x="883.8" y="-7.5" font-family="Helvetica,sans-Serif" font-size="10.00">model/resistancebc.hpp</text>
</a>
</g>
</g>
<!-- Node1&#45;&gt;Node11 -->
<g id="edge44" class="edge">
<title>Node1&#45;&gt;Node11</title>
<path fill="none" stroke="midnightblue" d="M854.88,-283.2C909.65,-277.23 977.23,-265.63 994.8,-244 1049.25,-176.98 1000.69,-122.66 945.8,-56 932.95,-40.39 913.51,-27.46 899.82,-19.52"/>
<polygon fill="midnightblue" stroke="midnightblue" points="854.4,-279.73 844.82,-284.25 855.13,-286.69 854.4,-279.73"/>
</g>
<!-- Node12 -->
<g id="node12" class="node">
<title>Node12</title>
<g id="a_node12"><a xlink:href="windkesselbc_8hpp.html" target="_top" xlink:title="MODEL::WindkesselBC source file.">
<polygon fill="none" stroke="black" points="1228.3,-0.5 1228.3,-19.5 1351.3,-19.5 1351.3,-0.5 1228.3,-0.5"/>
<text text-anchor="middle" x="1289.8" y="-7.5" font-family="Helvetica,sans-Serif" font-size="10.00">model/windkesselbc.hpp</text>
</a>
</g>
</g>
<!-- Node1&#45;&gt;Node12 -->
<g id="edge45" class="edge">
<title>Node1&#45;&gt;Node12</title>
<path fill="none" stroke="midnightblue" d="M855.34,-289.21C1004.34,-287.58 1321.8,-273.06 1321.8,-179 1321.8,-179 1321.8,-179 1321.8,-121 1321.8,-81.82 1302.85,-37.8 1294.12,-19.59"/>
<polygon fill="midnightblue" stroke="midnightblue" points="854.88,-285.71 844.91,-289.31 854.94,-292.71 854.88,-285.71"/>
</g>
<!-- Node3&#45;&gt;Node4 -->
<g id="edge3" class="edge">
<title>Node3&#45;&gt;Node4</title>
<path fill="none" stroke="midnightblue" d="M906.32,-221.17C875.82,-211 832.56,-196.59 805.35,-187.52"/>
<polygon fill="midnightblue" stroke="midnightblue" points="905.54,-224.6 916.13,-224.44 907.75,-217.96 905.54,-224.6"/>
</g>
<!-- Node3&#45;&gt;Node7 -->
<g id="edge32" class="edge">
<title>Node3&#45;&gt;Node7</title>
<path fill="none" stroke="midnightblue" d="M958.6,-217.15C967.44,-208.66 978.38,-197.93 987.8,-188 1047.31,-125.32 1114.7,-45.72 1136.55,-19.67"/>
<polygon fill="midnightblue" stroke="midnightblue" points="955.99,-214.8 951.17,-224.23 960.82,-219.87 955.99,-214.8"/>
</g>
<!-- Node3&#45;&gt;Node8 -->
<g id="edge33" class="edge">
<title>Node3&#45;&gt;Node8</title>
<path fill="none" stroke="midnightblue" d="M954.77,-216.01C960.42,-207.9 966.67,-197.84 970.8,-188 996.53,-126.71 1007.02,-46.21 1009.91,-19.8"/>
<polygon fill="midnightblue" stroke="midnightblue" points="951.85,-214.07 948.8,-224.22 957.51,-218.19 951.85,-214.07"/>
</g>
<!-- Node3&#45;&gt;Node9 -->
<g id="edge34" class="edge">
<title>Node3&#45;&gt;Node9</title>
<path fill="none" stroke="midnightblue" d="M921.89,-218.53C902.93,-204.96 873.41,-184.35 846.8,-168 747.39,-106.91 622.78,-42.47 577.89,-19.64"/>
<polygon fill="midnightblue" stroke="midnightblue" points="919.89,-221.41 930.05,-224.41 923.98,-215.73 919.89,-221.41"/>
</g>
<!-- Node3&#45;&gt;Node10 -->
<g id="edge35" class="edge">
<title>Node3&#45;&gt;Node10</title>
<path fill="none" stroke="midnightblue" d="M941.51,-214.34C939.87,-178.18 930.91,-98.39 884.8,-56 863.35,-36.28 833.75,-25.15 806.16,-18.89"/>
<polygon fill="midnightblue" stroke="midnightblue" points="938.01,-214.56 941.82,-224.45 945.01,-214.35 938.01,-214.56"/>
</g>
<!-- Node3&#45;&gt;Node11 -->
<g id="edge36" class="edge">
<title>Node3&#45;&gt;Node11</title>
<path fill="none" stroke="midnightblue" d="M948.86,-214.74C951.61,-206.67 954.44,-197 955.8,-188 960.88,-154.61 965.72,-144.29 955.8,-112 943.72,-72.68 909.59,-35.81 893.04,-19.62"/>
<polygon fill="midnightblue" stroke="midnightblue" points="945.54,-213.63 945.4,-224.22 952.12,-216.02 945.54,-213.63"/>
</g>
<!-- Node3&#45;&gt;Node12 -->
<g id="edge37" class="edge">
<title>Node3&#45;&gt;Node12</title>
<path fill="none" stroke="midnightblue" d="M964.26,-218.68C1030.43,-176.46 1223.36,-53.39 1276.26,-19.64"/>
<polygon fill="midnightblue" stroke="midnightblue" points="961.99,-215.97 955.45,-224.3 965.76,-221.87 961.99,-215.97"/>
</g>
<!-- Node4&#45;&gt;Node5 -->
<g id="edge4" class="edge">
<title>Node4&#45;&gt;Node5</title>
<path fill="none" stroke="midnightblue" d="M749.36,-164.64C724.4,-154.5 689.73,-140.43 667.78,-131.52"/>
<polygon fill="midnightblue" stroke="midnightblue" points="748.15,-167.92 758.73,-168.44 750.78,-161.44 748.15,-167.92"/>
</g>
<!-- Node5&#45;&gt;Node1 -->
<g id="edge24" class="edge">
<title>Node5&#45;&gt;Node1</title>
<path fill="none" stroke="midnightblue" d="M653.11,-141.78C657.53,-167.7 663.67,-214.58 688.8,-244 704.63,-262.53 729.63,-273.78 749.55,-280.39"/>
<polygon fill="midnightblue" stroke="midnightblue" points="656.52,-140.94 651.21,-131.77 649.64,-142.25 656.52,-140.94"/>
</g>
<!-- Node5&#45;&gt;Node2 -->
<g id="edge31" class="edge">
<title>Node5&#45;&gt;Node2</title>
<path fill="none" stroke="midnightblue" d="M591.51,-118.44C507.72,-113.77 353.22,-101.88 304.8,-76 279.92,-62.7 260.84,-33.88 252.46,-19.51"/>
<polygon fill="midnightblue" stroke="midnightblue" points="591.44,-121.94 601.61,-118.98 591.81,-114.95 591.44,-121.94"/>
</g>
<!-- Node6 -->
<g id="node6" class="node">
<title>Node6</title>
<g id="a_node6"><a xlink:href="densesystem_8hpp.html" target="_top" xlink:title="ALGEBRA::DenseSystem source file.">
<polygon fill="none" stroke="black" points="748.3,-56.5 748.3,-75.5 875.3,-75.5 875.3,-56.5 748.3,-56.5"/>
<text text-anchor="middle" x="811.8" y="-63.5" font-family="Helvetica,sans-Serif" font-size="10.00">algebra/densesystem.hpp</text>
</a>
</g>
</g>
<!-- Node5&#45;&gt;Node6 -->
<g id="edge5" class="edge">
<title>Node5&#45;&gt;Node6</title>
<path fill="none" stroke="midnightblue" d="M677.63,-109.04C707.12,-98.88 751.12,-84.55 780.7,-75.52"/>
<polygon fill="midnightblue" stroke="midnightblue" points="676.15,-105.85 667.86,-112.44 678.45,-112.46 676.15,-105.85"/>
</g>
<!-- Node13 -->
<g id="node13" class="node">
<title>Node13</title>
<g id="a_node13"><a xlink:href="integrator_8hpp.html" target="_top" xlink:title="ALGEBRA::Integrator source file.">
<polygon fill="none" stroke="black" points="313.8,-56.5 313.8,-75.5 423.8,-75.5 423.8,-56.5 313.8,-56.5"/>
<text text-anchor="middle" x="368.8" y="-63.5" font-family="Helvetica,sans-Serif" font-size="10.00">algebra/integrator.hpp</text>
</a>
</g>
</g>
<!-- Node5&#45;&gt;Node13 -->
<g id="edge22" class="edge">
<title>Node5&#45;&gt;Node13</title>
<path fill="none" stroke="midnightblue" d="M592.61,-110.47C540.07,-100.27 461.36,-84.98 412.65,-75.52"/>
<polygon fill="midnightblue" stroke="midnightblue" points="592.27,-113.97 602.75,-112.44 593.6,-107.1 592.27,-113.97"/>
</g>
<!-- Node14 -->
<g id="node14" class="node">
<title>Node14</title>
<g id="a_node14"><a xlink:href="configreader_8hpp.html" target="_top" xlink:title="IO::ConfigReader source file.">
<polygon fill="none" stroke="black" points="441.8,-56.5 441.8,-75.5 539.8,-75.5 539.8,-56.5 441.8,-56.5"/>
<text text-anchor="middle" x="490.8" y="-63.5" font-family="Helvetica,sans-Serif" font-size="10.00">io/configreader.hpp</text>
</a>
</g>
</g>
<!-- Node5&#45;&gt;Node14 -->
<g id="edge25" class="edge">
<title>Node5&#45;&gt;Node14</title>
<path fill="none" stroke="midnightblue" d="M612.63,-109.17C583.26,-99 541.6,-84.59 515.41,-75.52"/>
<polygon fill="midnightblue" stroke="midnightblue" points="611.49,-112.48 622.08,-112.44 613.78,-105.86 611.49,-112.48"/>
</g>
<!-- Node15 -->
<g id="node15" class="node">
<title>Node15</title>
<g id="a_node15"><a xlink:href="csvwriter_8hpp.html" target="_top" xlink:title="IO::write_csv source file.">
<polygon fill="none" stroke="black" points="29.3,-56.5 29.3,-75.5 114.3,-75.5 114.3,-56.5 29.3,-56.5"/>
<text text-anchor="middle" x="71.8" y="-63.5" font-family="Helvetica,sans-Serif" font-size="10.00">io/csvwriter.hpp</text>
</a>
</g>
</g>
<!-- Node5&#45;&gt;Node15 -->
<g id="edge27" class="edge">
<title>Node5&#45;&gt;Node15</title>
<path fill="none" stroke="midnightblue" d="M591.78,-117.89C496.13,-112.13 293.14,-98.3 122.8,-76 120.04,-75.64 117.2,-75.23 114.34,-74.8"/>
<polygon fill="midnightblue" stroke="midnightblue" points="591.61,-121.39 601.8,-118.49 592.02,-114.4 591.61,-121.39"/>
</g>
<!-- Node16 -->
<g id="node16" class="node">
<title>Node16</title>
<g id="a_node16"><a xlink:href="jsonwriter_8hpp.html" target="_top" xlink:title="IO::write_json source file.">
<polygon fill="none" stroke="black" points="132.3,-56.5 132.3,-75.5 219.3,-75.5 219.3,-56.5 132.3,-56.5"/>
<text text-anchor="middle" x="175.8" y="-63.5" font-family="Helvetica,sans-Serif" font-size="10.00">io/jsonwriter.hpp</text>
</a>
</g>
</g>
<!-- Node5&#45;&gt;Node16 -->
<g id="edge29" class="edge">
<title>Node5&#45;&gt;Node16</title>
<path fill="none" stroke="midnightblue" d="M591.24,-115.75C511.85,-108.08 361.43,-92.85 233.8,-76 229.16,-75.39 224.31,-74.7 219.48,-73.99"/>
<polygon fill="midnightblue" stroke="midnightblue" points="591.21,-119.27 601.5,-116.74 591.88,-112.3 591.21,-119.27"/>
</g>
<!-- Node6&#45;&gt;Node2 -->
<g id="edge6" class="edge">
<title>Node6&#45;&gt;Node2</title>
<path fill="none" stroke="midnightblue" d="M738.24,-57.96C612.14,-45.88 360.14,-21.76 275.94,-13.69"/>
<polygon fill="midnightblue" stroke="midnightblue" points="737.91,-61.44 748.2,-58.91 738.58,-54.47 737.91,-61.44"/>
</g>
<!-- Node6&#45;&gt;Node3 -->
<g id="edge7" class="edge">
<title>Node6&#45;&gt;Node3</title>
<path fill="none" stroke="midnightblue" d="M835.03,-81.17C846.97,-89.22 861.2,-100.05 871.8,-112 904.51,-148.85 929.36,-203.34 938.25,-224.33"/>
<polygon fill="midnightblue" stroke="midnightblue" points="836.74,-78.11 826.45,-75.6 832.93,-83.98 836.74,-78.11"/>
</g>
<!-- Node6&#45;&gt;Node4 -->
<g id="edge8" class="edge">
<title>Node6&#45;&gt;Node4</title>
<path fill="none" stroke="midnightblue" d="M806.49,-85.27C799.5,-109.3 787.5,-150.54 782.31,-168.37"/>
<polygon fill="midnightblue" stroke="midnightblue" points="809.87,-86.17 809.3,-75.59 803.15,-84.22 809.87,-86.17"/>
</g>
<!-- Node6&#45;&gt;Node5 -->
<g id="edge13" class="edge">
<title>Node6&#45;&gt;Node5</title>
<path fill="none" stroke="midnightblue" d="M781.1,-78.92C751.67,-89.06 707.66,-103.4 678.04,-112.44"/>
<polygon fill="midnightblue" stroke="midnightblue" points="782.57,-82.11 790.86,-75.52 780.27,-75.5 782.57,-82.11"/>
</g>
<!-- Node6&#45;&gt;Node7 -->
<g id="edge9" class="edge">
<title>Node6&#45;&gt;Node7</title>
<path fill="none" stroke="midnightblue" d="M874.57,-54.79C937.31,-44.59 1032.66,-29.08 1091.44,-19.52"/>
<polygon fill="midnightblue" stroke="midnightblue" points="873.72,-51.38 864.41,-56.44 874.84,-58.29 873.72,-51.38"/>
</g>
<!-- Node6&#45;&gt;Node8 -->
<g id="edge11" class="edge">
<title>Node6&#45;&gt;Node8</title>
<path fill="none" stroke="midnightblue" d="M853.45,-53.7C891.01,-43.51 945.42,-28.74 979.42,-19.52"/>
<polygon fill="midnightblue" stroke="midnightblue" points="852.07,-50.45 843.34,-56.44 853.9,-57.2 852.07,-50.45"/>
</g>
<!-- Node6&#45;&gt;Node9 -->
<g id="edge14" class="edge">
<title>Node6&#45;&gt;Node9</title>
<path fill="none" stroke="midnightblue" d="M761.98,-54.28C714.55,-44.08 644.1,-28.92 600.39,-19.52"/>
<polygon fill="midnightblue" stroke="midnightblue" points="761.52,-57.76 772.03,-56.44 762.99,-50.92 761.52,-57.76"/>
</g>
<!-- Node6&#45;&gt;Node10 -->
<g id="edge16" class="edge">
<title>Node6&#45;&gt;Node10</title>
<path fill="none" stroke="midnightblue" d="M789.97,-50.62C774.99,-40.76 755.61,-27.99 742.95,-19.65"/>
<polygon fill="midnightblue" stroke="midnightblue" points="788.35,-53.75 798.63,-56.32 792.2,-47.9 788.35,-53.75"/>
</g>
<!-- Node6&#45;&gt;Node11 -->
<g id="edge18" class="edge">
<title>Node6&#45;&gt;Node11</title>
<path fill="none" stroke="midnightblue" d="M831.67,-50.1C844.63,-40.38 861.1,-28.03 872.02,-19.83"/>
<polygon fill="midnightblue" stroke="midnightblue" points="829.27,-47.52 823.37,-56.32 833.47,-53.12 829.27,-47.52"/>
</g>
<!-- Node6&#45;&gt;Node12 -->
<g id="edge20" class="edge">
<title>Node6&#45;&gt;Node12</title>
<path fill="none" stroke="midnightblue" d="M885.81,-57.18C967.4,-48.47 1102.53,-33.8 1218.8,-20 1221.89,-19.63 1225.05,-19.25 1228.24,-18.87"/>
<polygon fill="midnightblue" stroke="midnightblue" points="885.21,-53.72 875.64,-58.26 885.95,-60.68 885.21,-53.72"/>
</g>
<!-- Node7&#45;&gt;Node5 -->
<g id="edge10" class="edge">
<title>Node7&#45;&gt;Node5</title>
<path fill="none" stroke="midnightblue" d="M1108.91,-22.66C1065.47,-36.84 988.83,-60.76 921.8,-76 841.61,-94.23 746.65,-108.09 691.9,-115.35"/>
<polygon fill="midnightblue" stroke="midnightblue" points="1110.02,-25.98 1118.43,-19.54 1107.84,-19.33 1110.02,-25.98"/>
</g>
<!-- Node8&#45;&gt;Node5 -->
<g id="edge12" class="edge">
<title>Node8&#45;&gt;Node5</title>
<path fill="none" stroke="midnightblue" d="M988.56,-25C964.05,-39.82 923.02,-62.84 884.8,-76 819.79,-98.38 740.74,-110.53 692.1,-116.39"/>
<polygon fill="midnightblue" stroke="midnightblue" points="990.71,-27.79 997.4,-19.58 987.05,-21.83 990.71,-27.79"/>
</g>
<!-- Node9&#45;&gt;Node5 -->
<g id="edge15" class="edge">
<title>Node9&#45;&gt;Node5</title>
<path fill="none" stroke="midnightblue" d="M573.84,-27.68C592.41,-51.43 625.8,-94.14 640.06,-112.37"/>
<polygon fill="midnightblue" stroke="midnightblue" points="576.44,-25.31 567.52,-19.59 570.92,-29.63 576.44,-25.31"/>
</g>
<!-- Node10&#45;&gt;Node5 -->
<g id="edge17" class="edge">
<title>Node10&#45;&gt;Node5</title>
<path fill="none" stroke="midnightblue" d="M703.81,-24.69C691.36,-32.41 677.17,-43.09 667.8,-56 655.13,-73.47 649.86,-98.95 647.88,-112.23"/>
<polygon fill="midnightblue" stroke="midnightblue" points="705.61,-27.69 712.46,-19.61 702.07,-21.65 705.61,-27.69"/>
</g>
<!-- Node11&#45;&gt;Node5 -->
<g id="edge19" class="edge">
<title>Node11&#45;&gt;Node5</title>
<path fill="none" stroke="midnightblue" d="M835.81,-22.04C807.11,-29.6 770.4,-40.97 739.8,-56 707.09,-72.06 673.09,-98.85 656.75,-112.48"/>
<polygon fill="midnightblue" stroke="midnightblue" points="836.78,-25.4 845.6,-19.53 835.04,-18.62 836.78,-25.4"/>
</g>
<!-- Node12&#45;&gt;Node5 -->
<g id="edge21" class="edge">
<title>Node12&#45;&gt;Node5</title>
<path fill="none" stroke="midnightblue" d="M1241.87,-21.79C1179.78,-35.55 1068.08,-59.51 971.8,-76 872.29,-93.04 754.77,-108.06 691.89,-115.68"/>
<polygon fill="midnightblue" stroke="midnightblue" points="1242.77,-25.18 1251.77,-19.6 1241.25,-18.35 1242.77,-25.18"/>
</g>
<!-- Node13&#45;&gt;Node2 -->
<g id="edge23" class="edge">
<title>Node13&#45;&gt;Node2</title>
<path fill="none" stroke="midnightblue" d="M340.5,-52.37C317.84,-42.26 286.68,-28.35 266.89,-19.52"/>
<polygon fill="midnightblue" stroke="midnightblue" points="339.07,-55.56 349.63,-56.44 341.93,-49.17 339.07,-55.56"/>
</g>
<!-- Node14&#45;&gt;Node2 -->
<g id="edge26" class="edge">
<title>Node14&#45;&gt;Node2</title>
<path fill="none" stroke="midnightblue" d="M442.39,-54.24C392.55,-43.17 316.61,-26.29 275.9,-17.24"/>
<polygon fill="midnightblue" stroke="midnightblue" points="441.78,-57.69 452.3,-56.44 443.3,-50.86 441.78,-57.69"/>
</g>
<!-- Node15&#45;&gt;Node2 -->
<g id="edge28" class="edge">
<title>Node15&#45;&gt;Node2</title>
<path fill="none" stroke="midnightblue" d="M109.49,-53.44C142.68,-43.26 190.23,-28.66 220.05,-19.52"/>
<polygon fill="midnightblue" stroke="midnightblue" points="108.22,-50.16 99.69,-56.44 110.28,-56.86 108.22,-50.16"/>
</g>
<!-- Node16&#45;&gt;Node2 -->
<g id="edge30" class="edge">
<title>Node16&#45;&gt;Node2</title>
<path fill="none" stroke="midnightblue" d="M195.67,-50.1C208.63,-40.38 225.1,-28.03 236.02,-19.83"/>
<polygon fill="midnightblue" stroke="midnightblue" points="193.27,-47.52 187.37,-56.32 197.47,-53.12 193.27,-47.52"/>
</g>
</g>
</svg>
