<?xml version="1.0" encoding="UTF-8" standalone="no"?>
<!DOCTYPE svg PUBLIC "-//W3C//DTD SVG 1.1//EN"
 "http://www.w3.org/Graphics/SVG/1.1/DTD/svg11.dtd">
<!-- Generated by graphviz version 3.0.0 (20220413.0242)
 -->
<!-- Title: algebra/sparsesystem.hpp Pages: 1 -->
<svg width="1115pt" height="308pt"
 viewBox="0.00 0.00 1115.00 308.00" xmlns="http://www.w3.org/2000/svg" xmlns:xlink="http://www.w3.org/1999/xlink">
<g id="graph0" class="graph" transform="scale(1 1) rotate(0) translate(4 304)">
<title>algebra/sparsesystem.hpp</title>
<!-- Node1 -->
<g id="node1" class="node">
<title>Node1</title>
<g id="a_node1"><a xlink:title="ALGEBRA::SparseSystem source file.">
<polygon fill="#bfbfbf" stroke="black" points="472,-280.5 472,-299.5 602,-299.5 602,-280.5 472,-280.5"/>
<text text-anchor="middle" x="537" y="-287.5" font-family="Helvetica,sans-Serif" font-size="10.00">algebra/sparsesystem.hpp</text>
</a>
</g>
</g>
<!-- Node2 -->
<g id="node2" class="node">
<title>Node2</title>
<g id="a_node2"><a xlink:href="block_8hpp.html" target="_top" xlink:title="MODEL::Block source file.">
<polygon fill="none" stroke="black" points="529.5,-224.5 529.5,-243.5 616.5,-243.5 616.5,-224.5 529.5,-224.5"/>
<text text-anchor="middle" x="573" y="-231.5" font-family="Helvetica,sans-Serif" font-size="10.00">model/block.hpp</text>
</a>
</g>
</g>
<!-- Node1&#45;&gt;Node2 -->
<g id="edge1" class="edge">
<title>Node1&#45;&gt;Node2</title>
<path fill="none" stroke="midnightblue" d="M548.62,-271.57C554.82,-262.27 562.17,-251.25 567.17,-243.75"/>
<polygon fill="midnightblue" stroke="midnightblue" points="545.58,-269.82 542.94,-280.08 551.4,-273.7 545.58,-269.82"/>
</g>
<!-- Node3 -->
<g id="node3" class="node">
<title>Node3</title>
<g id="a_node3"><a xlink:href="bloodvessel_8hpp.html" target="_top" xlink:title="MODEL::BloodVessel source file.">
<polygon fill="none" stroke="black" points="725,-168.5 725,-187.5 841,-187.5 841,-168.5 725,-168.5"/>
<text text-anchor="middle" x="783" y="-175.5" font-family="Helvetica,sans-Serif" font-size="10.00">model/bloodvessel.hpp</text>
</a>
</g>
</g>
<!-- Node1&#45;&gt;Node3 -->
<g id="edge27" class="edge">
<title>Node1&#45;&gt;Node3</title>
<path fill="none" stroke="midnightblue" d="M567.59,-276.68C589.31,-267.84 619.08,-255.5 645,-244 688.57,-224.67 739.1,-200.39 765.26,-187.67"/>
<polygon fill="midnightblue" stroke="midnightblue" points="566.18,-273.48 558.23,-280.49 568.81,-279.97 566.18,-273.48"/>
</g>
<!-- Node8 -->
<g id="node8" class="node">
<title>Node8</title>
<g id="a_node8"><a xlink:href="flowreferencebc_8hpp.html" target="_top" xlink:title="MODEL::FlowReferenceBC source file.">
<polygon fill="none" stroke="black" points="859,-168.5 859,-187.5 991,-187.5 991,-168.5 859,-168.5"/>
<text text-anchor="middle" x="925" y="-175.5" font-family="Helvetica,sans-Serif" font-size="10.00">model/flowreferencebc.hpp</text>
</a>
</g>
</g>
<!-- Node1&#45;&gt;Node8 -->
<g id="edge28" class="edge">
<title>Node1&#45;&gt;Node8</title>
<path fill="none" stroke="midnightblue" d="M577.05,-277.65C655.03,-255.54 825.65,-207.17 894.9,-187.53"/>
<polygon fill="midnightblue" stroke="midnightblue" points="575.79,-274.37 567.12,-280.46 577.7,-281.1 575.79,-274.37"/>
</g>
<!-- Node9 -->
<g id="node9" class="node">
<title>Node9</title>
<g id="a_node9"><a xlink:href="junction_8hpp.html" target="_top" xlink:title="MODEL::Junction source file.">
<polygon fill="none" stroke="black" points="1009,-168.5 1009,-187.5 1107,-187.5 1107,-168.5 1009,-168.5"/>
<text text-anchor="middle" x="1058" y="-175.5" font-family="Helvetica,sans-Serif" font-size="10.00">model/junction.hpp</text>
</a>
</g>
</g>
<!-- Node1&#45;&gt;Node9 -->
<g id="edge29" class="edge">
<title>Node1&#45;&gt;Node9</title>
<path fill="none" stroke="midnightblue" d="M587.3,-278.38C690.32,-256.63 923.55,-207.39 1017.58,-187.53"/>
<polygon fill="midnightblue" stroke="midnightblue" points="586.51,-274.97 577.45,-280.46 587.96,-281.82 586.51,-274.97"/>
</g>
<!-- Node10 -->
<g id="node10" class="node">
<title>Node10</title>
<g id="a_node10"><a xlink:href="model_8hpp.html" target="_top" xlink:title="MODEL::Model source file.">
<polygon fill="none" stroke="black" points="0,-168.5 0,-187.5 90,-187.5 90,-168.5 0,-168.5"/>
<text text-anchor="middle" x="45" y="-175.5" font-family="Helvetica,sans-Serif" font-size="10.00">model/model.hpp</text>
</a>
</g>
</g>
<!-- Node1&#45;&gt;Node10 -->
<g id="edge30" class="edge">
<title>Node1&#45;&gt;Node10</title>
<path fill="none" stroke="midnightblue" d="M478.92,-278.48C434.14,-269.53 370.98,-256.21 316,-244 228.07,-224.46 124.94,-200.16 74.91,-187.53"/>
<polygon fill="midnightblue" stroke="midnightblue" points="478.26,-281.92 488.75,-280.44 479.63,-275.05 478.26,-281.92"/>
</g>
<!-- Node13 -->
<g id="node13" class="node">
<title>Node13</title>
<g id="a_node13"><a xlink:href="openloopcoronarybc_8hpp.html" target="_top" xlink:title="MODEL::OpenLoopCoronaryBC source file.">
<polygon fill="none" stroke="black" points="108,-168.5 108,-187.5 258,-187.5 258,-168.5 108,-168.5"/>
<text text-anchor="middle" x="183" y="-175.5" font-family="Helvetica,sans-Serif" font-size="10.00">model/openloopcoronarybc.hpp</text>
</a>
</g>
</g>
<!-- Node1&#45;&gt;Node13 -->
<g id="edge31" class="edge">
<title>Node1&#45;&gt;Node13</title>
<path fill="none" stroke="midnightblue" d="M499.6,-277.38C428.16,-255.18 273.79,-207.21 210.71,-187.61"/>
<polygon fill="midnightblue" stroke="midnightblue" points="498.93,-280.83 509.52,-280.46 501.01,-274.15 498.93,-280.83"/>
</g>
<!-- Node14 -->
<g id="node14" class="node">
<title>Node14</title>
<g id="a_node14"><a xlink:href="pressurereferencebc_8hpp.html" target="_top" xlink:title="MODEL::PressureReferenceBC source file.">
<polygon fill="none" stroke="black" points="276,-168.5 276,-187.5 428,-187.5 428,-168.5 276,-168.5"/>
<text text-anchor="middle" x="352" y="-175.5" font-family="Helvetica,sans-Serif" font-size="10.00">model/pressurereferencebc.hpp</text>
</a>
</g>
</g>
<!-- Node1&#45;&gt;Node14 -->
<g id="edge32" class="edge">
<title>Node1&#45;&gt;Node14</title>
<path fill="none" stroke="midnightblue" d="M513.47,-275.01C474.64,-251.92 398.27,-206.51 366.45,-187.59"/>
<polygon fill="midnightblue" stroke="midnightblue" points="512.1,-278.27 522.48,-280.37 515.68,-272.25 512.1,-278.27"/>
</g>
<!-- Node15 -->
<g id="node15" class="node">
<title>Node15</title>
<g id="a_node15"><a xlink:href="resistancebc_8hpp.html" target="_top" xlink:title="MODEL::ResistanceBC source file.">
<polygon fill="none" stroke="black" points="446.5,-168.5 446.5,-187.5 565.5,-187.5 565.5,-168.5 446.5,-168.5"/>
<text text-anchor="middle" x="506" y="-175.5" font-family="Helvetica,sans-Serif" font-size="10.00">model/resistancebc.hpp</text>
</a>
</g>
</g>
<!-- Node1&#45;&gt;Node15 -->
<g id="edge33" class="edge">
<title>Node1&#45;&gt;Node15</title>
<path fill="none" stroke="midnightblue" d="M529.36,-270.66C526.18,-262.58 522.63,-252.91 520,-244 514.12,-224.07 509.59,-200.03 507.42,-187.52"/>
<polygon fill="midnightblue" stroke="midnightblue" points="526.22,-272.22 533.22,-280.17 532.7,-269.59 526.22,-272.22"/>
</g>
<!-- Node16 -->
<g id="node16" class="node">
<title>Node16</title>
<g id="a_node16"><a xlink:href="windkesselbc_8hpp.html" target="_top" xlink:title="MODEL::WindkesselBC source file.">
<polygon fill="none" stroke="black" points="583.5,-168.5 583.5,-187.5 706.5,-187.5 706.5,-168.5 583.5,-168.5"/>
<text text-anchor="middle" x="645" y="-175.5" font-family="Helvetica,sans-Serif" font-size="10.00">model/windkesselbc.hpp</text>
</a>
</g>
</g>
<!-- Node1&#45;&gt;Node16 -->
<g id="edge34" class="edge">
<title>Node1&#45;&gt;Node16</title>
<path fill="none" stroke="midnightblue" d="M576.72,-276.59C593.7,-269.49 612.46,-258.94 625,-244 638.97,-227.36 643.19,-201.06 644.46,-187.58"/>
<polygon fill="midnightblue" stroke="midnightblue" points="575.04,-273.5 566.99,-280.39 577.58,-280.02 575.04,-273.5"/>
</g>
<!-- Node2&#45;&gt;Node3 -->
<g id="edge2" class="edge">
<title>Node2&#45;&gt;Node3</title>
<path fill="none" stroke="midnightblue" d="M616.19,-221.89C655.85,-211.7 713.77,-196.8 749.88,-187.52"/>
<polygon fill="midnightblue" stroke="midnightblue" points="615.09,-218.56 606.28,-224.44 616.83,-225.34 615.09,-218.56"/>
</g>
<!-- Node2&#45;&gt;Node8 -->
<g id="edge7" class="edge">
<title>Node2&#45;&gt;Node8</title>
<path fill="none" stroke="midnightblue" d="M626.65,-224.77C692.3,-214.7 802.91,-197.73 869.42,-187.53"/>
<polygon fill="midnightblue" stroke="midnightblue" points="625.87,-221.35 616.52,-226.32 626.93,-228.27 625.87,-221.35"/>
</g>
<!-- Node2&#45;&gt;Node9 -->
<g id="edge9" class="edge">
<title>Node2&#45;&gt;Node9</title>
<path fill="none" stroke="midnightblue" d="M626.69,-228.19C707.72,-220.74 866.02,-205.44 1000,-188 1002.93,-187.62 1005.94,-187.21 1008.98,-186.78"/>
<polygon fill="midnightblue" stroke="midnightblue" points="626.37,-224.71 616.73,-229.1 627,-231.68 626.37,-224.71"/>
</g>
<!-- Node2&#45;&gt;Node10 -->
<g id="edge11" class="edge">
<title>Node2&#45;&gt;Node10</title>
<path fill="none" stroke="midnightblue" d="M519.42,-229.15C431.44,-222.55 250.97,-207.85 99,-188 96.08,-187.62 93.07,-187.2 90.05,-186.75"/>
<polygon fill="midnightblue" stroke="midnightblue" points="519.19,-232.64 529.43,-229.9 519.71,-225.66 519.19,-232.64"/>
</g>
<!-- Node2&#45;&gt;Node13 -->
<g id="edge19" class="edge">
<title>Node2&#45;&gt;Node13</title>
<path fill="none" stroke="midnightblue" d="M519.2,-225.55C447.3,-215.6 320.17,-197.99 244.54,-187.52"/>
<polygon fill="midnightblue" stroke="midnightblue" points="519.01,-229.06 529.4,-226.96 519.97,-222.12 519.01,-229.06"/>
</g>
<!-- Node2&#45;&gt;Node14 -->
<g id="edge21" class="edge">
<title>Node2&#45;&gt;Node14</title>
<path fill="none" stroke="midnightblue" d="M528.08,-222.02C486.33,-211.82 425.02,-196.84 386.85,-187.52"/>
<polygon fill="midnightblue" stroke="midnightblue" points="527.44,-225.47 537.98,-224.44 529.1,-218.67 527.44,-225.47"/>
</g>
<!-- Node2&#45;&gt;Node15 -->
<g id="edge23" class="edge">
<title>Node2&#45;&gt;Node15</title>
<path fill="none" stroke="midnightblue" d="M554.17,-217.82C542.16,-208.15 527.03,-195.95 516.96,-187.83"/>
<polygon fill="midnightblue" stroke="midnightblue" points="552.25,-220.77 562.24,-224.32 556.65,-215.32 552.25,-220.77"/>
</g>
<!-- Node2&#45;&gt;Node16 -->
<g id="edge25" class="edge">
<title>Node2&#45;&gt;Node16</title>
<path fill="none" stroke="midnightblue" d="M592.87,-218.1C605.82,-208.38 622.3,-196.03 633.22,-187.83"/>
<polygon fill="midnightblue" stroke="midnightblue" points="590.47,-215.52 584.57,-224.32 594.67,-221.12 590.47,-215.52"/>
</g>
<!-- Node4 -->
<g id="node4" class="node">
<title>Node4</title>
<g id="a_node4"><a xlink:href="configreader_8hpp.html" target="_top" xlink:title="IO::ConfigReader source file.">
<polygon fill="none" stroke="black" points="457,-112.5 457,-131.5 555,-131.5 555,-112.5 457,-112.5"/>
<text text-anchor="middle" x="506" y="-119.5" font-family="Helvetica,sans-Serif" font-size="10.00">io/configreader.hpp</text>
</a>
</g>
</g>
<!-- Node3&#45;&gt;Node4 -->
<g id="edge3" class="edge">
<title>Node3&#45;&gt;Node4</title>
<path fill="none" stroke="midnightblue" d="M729,-166.47C676.65,-156.27 598.23,-140.98 549.69,-131.52"/>
<polygon fill="midnightblue" stroke="midnightblue" points="728.62,-169.97 739.11,-168.44 729.96,-163.09 728.62,-169.97"/>
</g>
<!-- Node5 -->
<g id="node5" class="node">
<title>Node5</title>
<g id="a_node5"><a xlink:href="main_8hpp.html" target="_top" xlink:title="Main page documentation.">
<polygon fill="none" stroke="black" points="117,-56.5 117,-75.5 173,-75.5 173,-56.5 117,-56.5"/>
<text text-anchor="middle" x="145" y="-63.5" font-family="Helvetica,sans-Serif" font-size="10.00">main.hpp</text>
</a>
</g>
</g>
<!-- Node4&#45;&gt;Node5 -->
<g id="edge4" class="edge">
<title>Node4&#45;&gt;Node5</title>
<path fill="none" stroke="midnightblue" d="M446.68,-112.13C367.83,-100.33 231.65,-79.96 173.1,-71.2"/>
<polygon fill="midnightblue" stroke="midnightblue" points="446.53,-115.64 456.94,-113.66 447.57,-108.72 446.53,-115.64"/>
</g>
<!-- Node6 -->
<g id="node6" class="node">
<title>Node6</title>
<g id="a_node6"><a xlink:href="main_8cpp.html" target="_top" xlink:title="Main routine of svZeroDSolver.">
<polygon fill="none" stroke="black" points="78,-0.5 78,-19.5 134,-19.5 134,-0.5 78,-0.5"/>
<text text-anchor="middle" x="106" y="-7.5" font-family="Helvetica,sans-Serif" font-size="10.00">main.cpp</text>
</a>
</g>
</g>
<!-- Node5&#45;&gt;Node6 -->
<g id="edge5" class="edge">
<title>Node5&#45;&gt;Node6</title>
<path fill="none" stroke="midnightblue" d="M132.62,-47.86C125.86,-38.5 117.79,-27.33 112.32,-19.75"/>
<polygon fill="midnightblue" stroke="midnightblue" points="129.87,-50.03 138.56,-56.08 135.54,-45.93 129.87,-50.03"/>
</g>
<!-- Node7 -->
<g id="node7" class="node">
<title>Node7</title>
<g id="a_node7"><a xlink:href="python_8cpp.html" target="_top" xlink:title="Python binding for svZeroDSolver.">
<polygon fill="none" stroke="black" points="152.5,-0.5 152.5,-19.5 215.5,-19.5 215.5,-0.5 152.5,-0.5"/>
<text text-anchor="middle" x="184" y="-7.5" font-family="Helvetica,sans-Serif" font-size="10.00">python.cpp</text>
</a>
</g>
</g>
<!-- Node5&#45;&gt;Node7 -->
<g id="edge6" class="edge">
<title>Node5&#45;&gt;Node7</title>
<path fill="none" stroke="midnightblue" d="M157.38,-47.86C164.14,-38.5 172.21,-27.33 177.68,-19.75"/>
<polygon fill="midnightblue" stroke="midnightblue" points="154.46,-45.93 151.44,-56.08 160.13,-50.03 154.46,-45.93"/>
</g>
<!-- Node8&#45;&gt;Node4 -->
<g id="edge8" class="edge">
<title>Node8&#45;&gt;Node4</title>
<path fill="none" stroke="midnightblue" d="M848.45,-167.13C763.01,-156.12 627.32,-138.64 555.06,-129.32"/>
<polygon fill="midnightblue" stroke="midnightblue" points="848.24,-170.64 858.61,-168.44 849.14,-163.69 848.24,-170.64"/>
</g>
<!-- Node9&#45;&gt;Node4 -->
<g id="edge10" class="edge">
<title>Node9&#45;&gt;Node4</title>
<path fill="none" stroke="midnightblue" d="M998.92,-167.94C830.08,-147.44 642.41,-132.79 555.19,-126.45"/>
<polygon fill="midnightblue" stroke="midnightblue" points="998.63,-171.43 1008.98,-169.17 999.48,-164.48 998.63,-171.43"/>
</g>
<!-- Node10&#45;&gt;Node1 -->
<g id="edge14" class="edge">
<title>Node10&#45;&gt;Node1</title>
<path fill="none" stroke="midnightblue" d="M96.61,-189.78C154.57,-202.9 251.05,-225.57 334,-244 393.14,-257.14 461.74,-271.55 502.28,-280.44"/>
<polygon fill="midnightblue" stroke="midnightblue" points="97.12,-186.31 86.6,-187.53 95.58,-193.14 97.12,-186.31"/>
</g>
<!-- Node10&#45;&gt;Node4 -->
<g id="edge15" class="edge">
<title>Node10&#45;&gt;Node4</title>
<path fill="none" stroke="midnightblue" d="M100.16,-167.91C235.08,-149.43 381.93,-134.69 456.71,-127.57"/>
<polygon fill="midnightblue" stroke="midnightblue" points="99.48,-164.47 90.05,-169.3 100.44,-171.4 99.48,-164.47"/>
</g>
<!-- Node10&#45;&gt;Node5 -->
<g id="edge18" class="edge">
<title>Node10&#45;&gt;Node5</title>
<path fill="none" stroke="midnightblue" d="M31.42,-160.14C22,-146.27 12.83,-126.59 23,-112 44.11,-81.72 88.02,-71.76 116.99,-68.52"/>
<polygon fill="midnightblue" stroke="midnightblue" points="28.69,-162.33 37.44,-168.31 34.32,-158.18 28.69,-162.33"/>
</g>
<!-- Node11 -->
<g id="node11" class="node">
<title>Node11</title>
<g id="a_node11"><a xlink:href="integrator_8hpp.html" target="_top" xlink:title="ALGEBRA::Integrator source file.">
<polygon fill="none" stroke="black" points="32,-112.5 32,-131.5 142,-131.5 142,-112.5 32,-112.5"/>
<text text-anchor="middle" x="87" y="-119.5" font-family="Helvetica,sans-Serif" font-size="10.00">algebra/integrator.hpp</text>
</a>
</g>
</g>
<!-- Node10&#45;&gt;Node11 -->
<g id="edge12" class="edge">
<title>Node10&#45;&gt;Node11</title>
<path fill="none" stroke="midnightblue" d="M58.11,-160.14C65.43,-150.74 74.24,-139.4 80.19,-131.75"/>
<polygon fill="midnightblue" stroke="midnightblue" points="55.31,-158.04 51.94,-168.08 60.84,-162.34 55.31,-158.04"/>
</g>
<!-- Node12 -->
<g id="node12" class="node">
<title>Node12</title>
<g id="a_node12"><a xlink:href="csvwriter_8hpp.html" target="_top" xlink:title="IO::write_csv source file.">
<polygon fill="none" stroke="black" points="160.5,-112.5 160.5,-131.5 245.5,-131.5 245.5,-112.5 160.5,-112.5"/>
<text text-anchor="middle" x="203" y="-119.5" font-family="Helvetica,sans-Serif" font-size="10.00">io/csvwriter.hpp</text>
</a>
</g>
</g>
<!-- Node10&#45;&gt;Node12 -->
<g id="edge16" class="edge">
<title>Node10&#45;&gt;Node12</title>
<path fill="none" stroke="midnightblue" d="M79.61,-165.17C109.36,-155 151.55,-140.59 178.08,-131.52"/>
<polygon fill="midnightblue" stroke="midnightblue" points="78.37,-161.9 70.04,-168.44 80.63,-168.52 78.37,-161.9"/>
</g>
<!-- Node11&#45;&gt;Node5 -->
<g id="edge13" class="edge">
<title>Node11&#45;&gt;Node5</title>
<path fill="none" stroke="midnightblue" d="M103.91,-105.25C114.2,-95.67 126.97,-83.79 135.51,-75.83"/>
<polygon fill="midnightblue" stroke="midnightblue" points="101.25,-102.95 96.32,-112.32 106.02,-108.07 101.25,-102.95"/>
</g>
<!-- Node12&#45;&gt;Node5 -->
<g id="edge17" class="edge">
<title>Node12&#45;&gt;Node5</title>
<path fill="none" stroke="midnightblue" d="M186.09,-105.25C175.8,-95.67 163.03,-83.79 154.49,-75.83"/>
<polygon fill="midnightblue" stroke="midnightblue" points="183.98,-108.07 193.68,-112.32 188.75,-102.95 183.98,-108.07"/>
</g>
<!-- Node13&#45;&gt;Node4 -->
<g id="edge20" class="edge">
<title>Node13&#45;&gt;Node4</title>
<path fill="none" stroke="midnightblue" d="M244.17,-166.77C305.87,-156.46 399.92,-140.73 456.91,-131.21"/>
<polygon fill="midnightblue" stroke="midnightblue" points="243.47,-163.34 234.18,-168.44 244.62,-170.25 243.47,-163.34"/>
</g>
<!-- Node14&#45;&gt;Node4 -->
<g id="edge22" class="edge">
<title>Node14&#45;&gt;Node4</title>
<path fill="none" stroke="midnightblue" d="M386.11,-165.04C415.09,-154.88 455.96,-140.55 481.71,-131.52"/>
<polygon fill="midnightblue" stroke="midnightblue" points="384.68,-161.83 376.4,-168.44 387,-168.44 384.68,-161.83"/>
</g>
<!-- Node15&#45;&gt;Node4 -->
<g id="edge24" class="edge">
<title>Node15&#45;&gt;Node4</title>
<path fill="none" stroke="midnightblue" d="M506,-157.8C506,-148.91 506,-138.78 506,-131.75"/>
<polygon fill="midnightblue" stroke="midnightblue" points="502.5,-158.08 506,-168.08 509.5,-158.08 502.5,-158.08"/>
</g>
<!-- Node16&#45;&gt;Node4 -->
<g id="edge26" class="edge">
<title>Node16&#45;&gt;Node4</title>
<path fill="none" stroke="midnightblue" d="M613.52,-164.77C587.41,-154.63 550.96,-140.47 527.92,-131.52"/>
<polygon fill="midnightblue" stroke="midnightblue" points="612.39,-168.08 622.98,-168.44 614.92,-161.56 612.39,-168.08"/>
</g>
</g>
</svg>
