<?xml version="1.0" encoding="UTF-8" standalone="no"?>
<!DOCTYPE svg PUBLIC "-//W3C//DTD SVG 1.1//EN"
 "http://www.w3.org/Graphics/SVG/1.1/DTD/svg11.dtd">
<!-- Generated by graphviz version 3.0.0 (20220413.0242)
 -->
<!-- Title: algebra/sparsesystem.hpp Pages: 1 -->
<svg width="1228pt" height="308pt"
 viewBox="0.00 0.00 1228.40 308.00" xmlns="http://www.w3.org/2000/svg" xmlns:xlink="http://www.w3.org/1999/xlink">
<g id="graph0" class="graph" transform="scale(1 1) rotate(0) translate(4 304)">
<title>algebra/sparsesystem.hpp</title>
<!-- Node1 -->
<g id="node1" class="node">
<title>Node1</title>
<g id="a_node1"><a xlink:title="ALGEBRA::SparseSystem source file.">
<polygon fill="#bfbfbf" stroke="black" points="636,-280.5 636,-299.5 766,-299.5 766,-280.5 636,-280.5"/>
<text text-anchor="middle" x="701" y="-287.5" font-family="Helvetica,sans-Serif" font-size="10.00">algebra/sparsesystem.hpp</text>
</a>
</g>
</g>
<!-- Node2 -->
<g id="node2" class="node">
<title>Node2</title>
<g id="a_node2"><a xlink:href="main_8cpp.html" target="_top" xlink:title="Main routine of svZeroDSolver.">
<polygon fill="none" stroke="black" points="623,-0.5 623,-19.5 679,-19.5 679,-0.5 623,-0.5"/>
<text text-anchor="middle" x="651" y="-7.5" font-family="Helvetica,sans-Serif" font-size="10.00">main.cpp</text>
</a>
</g>
</g>
<!-- Node1&#45;&gt;Node2 -->
<g id="edge1" class="edge">
<title>Node1&#45;&gt;Node2</title>
<path fill="none" stroke="midnightblue" d="M625.76,-284.99C444.78,-274.35 0,-241.8 0,-179 0,-179 0,-179 0,-121 0,-56.88 497.31,-20.81 622.61,-12.74"/>
<polygon fill="midnightblue" stroke="midnightblue" points="625.81,-288.5 635.99,-285.59 626.21,-281.51 625.81,-288.5"/>
</g>
<!-- Node3 -->
<g id="node3" class="node">
<title>Node3</title>
<g id="a_node3"><a xlink:href="block_8hpp.html" target="_top" xlink:title="MODEL::Block source file.">
<polygon fill="none" stroke="black" points="585.5,-224.5 585.5,-243.5 672.5,-243.5 672.5,-224.5 585.5,-224.5"/>
<text text-anchor="middle" x="629" y="-231.5" font-family="Helvetica,sans-Serif" font-size="10.00">model/block.hpp</text>
</a>
</g>
</g>
<!-- Node1&#45;&gt;Node3 -->
<g id="edge2" class="edge">
<title>Node1&#45;&gt;Node3</title>
<path fill="none" stroke="midnightblue" d="M681.13,-274.1C668.18,-264.38 651.7,-252.03 640.78,-243.83"/>
<polygon fill="midnightblue" stroke="midnightblue" points="679.33,-277.12 689.43,-280.32 683.53,-271.52 679.33,-277.12"/>
</g>
<!-- Node4 -->
<g id="node4" class="node">
<title>Node4</title>
<g id="a_node4"><a xlink:href="bloodvessel_8hpp.html" target="_top" xlink:title="MODEL::BloodVessel source file.">
<polygon fill="none" stroke="black" points="942,-168.5 942,-187.5 1058,-187.5 1058,-168.5 942,-168.5"/>
<text text-anchor="middle" x="1000" y="-175.5" font-family="Helvetica,sans-Serif" font-size="10.00">model/bloodvessel.hpp</text>
</a>
</g>
</g>
<!-- Node1&#45;&gt;Node4 -->
<g id="edge27" class="edge">
<title>Node1&#45;&gt;Node4</title>
<path fill="none" stroke="midnightblue" d="M733.99,-276.86C794.94,-254.44 923.81,-207.03 976.65,-187.59"/>
<polygon fill="midnightblue" stroke="midnightblue" points="732.64,-273.63 724.46,-280.37 735.06,-280.2 732.64,-273.63"/>
</g>
<!-- Node5 -->
<g id="node5" class="node">
<title>Node5</title>
<g id="a_node5"><a xlink:href="model_8hpp.html" target="_top" xlink:title="MODEL::Model source file.">
<polygon fill="none" stroke="black" points="684,-112.5 684,-131.5 774,-131.5 774,-112.5 684,-112.5"/>
<text text-anchor="middle" x="729" y="-119.5" font-family="Helvetica,sans-Serif" font-size="10.00">model/model.hpp</text>
</a>
</g>
</g>
<!-- Node1&#45;&gt;Node5 -->
<g id="edge30" class="edge">
<title>Node1&#45;&gt;Node5</title>
<path fill="none" stroke="midnightblue" d="M776.4,-284.95C902.02,-276.62 1145.31,-252.54 1198,-188 1203.62,-181.11 1203.98,-174.57 1198,-168 1169.56,-136.76 886.34,-126.78 774.22,-123.98"/>
<polygon fill="midnightblue" stroke="midnightblue" points="775.85,-281.48 766.09,-285.62 776.3,-288.47 775.85,-281.48"/>
</g>
<!-- Node10 -->
<g id="node10" class="node">
<title>Node10</title>
<g id="a_node10"><a xlink:href="flowreference_8hpp.html" target="_top" xlink:title="MODEL::FlowReference source file.">
<polygon fill="none" stroke="black" points="1076,-168.5 1076,-187.5 1198,-187.5 1198,-168.5 1076,-168.5"/>
<text text-anchor="middle" x="1137" y="-175.5" font-family="Helvetica,sans-Serif" font-size="10.00">model/flowreference.hpp</text>
</a>
</g>
</g>
<!-- Node1&#45;&gt;Node10 -->
<g id="edge28" class="edge">
<title>Node1&#45;&gt;Node10</title>
<path fill="none" stroke="midnightblue" d="M744.67,-277.98C831.67,-256.03 1024.96,-207.27 1103.17,-187.53"/>
<polygon fill="midnightblue" stroke="midnightblue" points="743.69,-274.62 734.85,-280.46 745.4,-281.41 743.69,-274.62"/>
</g>
<!-- Node11 -->
<g id="node11" class="node">
<title>Node11</title>
<g id="a_node11"><a xlink:href="junction_8hpp.html" target="_top" xlink:title="MODEL::Junction source file.">
<polygon fill="none" stroke="black" points="28,-168.5 28,-187.5 126,-187.5 126,-168.5 28,-168.5"/>
<text text-anchor="middle" x="77" y="-175.5" font-family="Helvetica,sans-Serif" font-size="10.00">model/junction.hpp</text>
</a>
</g>
</g>
<!-- Node1&#45;&gt;Node11 -->
<g id="edge29" class="edge">
<title>Node1&#45;&gt;Node11</title>
<path fill="none" stroke="midnightblue" d="M638.67,-278.79C584.32,-269.83 503.4,-256.34 433,-244 321.3,-224.43 190.13,-200.14 122.48,-187.52"/>
<polygon fill="midnightblue" stroke="midnightblue" points="638.4,-282.29 648.83,-280.47 639.54,-275.39 638.4,-282.29"/>
</g>
<!-- Node12 -->
<g id="node12" class="node">
<title>Node12</title>
<g id="a_node12"><a xlink:href="openloopcoronarywithdistalpressure_8hpp.html" target="_top" xlink:title="MODEL::OpenLoopCoronaryWithDistalPressure source file.">
<polygon fill="none" stroke="black" points="144,-168.5 144,-187.5 362,-187.5 362,-168.5 144,-168.5"/>
<text text-anchor="middle" x="253" y="-175.5" font-family="Helvetica,sans-Serif" font-size="10.00">model/openloopcoronarywithdistalpressure.hpp</text>
</a>
</g>
</g>
<!-- Node1&#45;&gt;Node12 -->
<g id="edge31" class="edge">
<title>Node1&#45;&gt;Node12</title>
<path fill="none" stroke="midnightblue" d="M656.4,-278.05C567.14,-256.13 368.21,-207.29 287.76,-187.53"/>
<polygon fill="midnightblue" stroke="midnightblue" points="655.67,-281.47 666.22,-280.46 657.34,-274.68 655.67,-281.47"/>
</g>
<!-- Node13 -->
<g id="node13" class="node">
<title>Node13</title>
<g id="a_node13"><a xlink:href="pressurereference_8hpp.html" target="_top" xlink:title="MODEL::PressureReference source file.">
<polygon fill="none" stroke="black" points="380,-168.5 380,-187.5 522,-187.5 522,-168.5 380,-168.5"/>
<text text-anchor="middle" x="451" y="-175.5" font-family="Helvetica,sans-Serif" font-size="10.00">model/pressurereference.hpp</text>
</a>
</g>
</g>
<!-- Node1&#45;&gt;Node13 -->
<g id="edge32" class="edge">
<title>Node1&#45;&gt;Node13</title>
<path fill="none" stroke="midnightblue" d="M664.7,-277.2C639.72,-268.75 605.95,-256.66 577,-244 535.95,-226.05 489.59,-200.77 466.21,-187.65"/>
<polygon fill="midnightblue" stroke="midnightblue" points="663.9,-280.62 674.49,-280.48 666.12,-273.98 663.9,-280.62"/>
</g>
<!-- Node14 -->
<g id="node14" class="node">
<title>Node14</title>
<g id="a_node14"><a xlink:href="rcrblockwithdistalpressure_8hpp.html" target="_top" xlink:title="MODEL::RCRBlockWithDistalPressure source file.">
<polygon fill="none" stroke="black" points="540.5,-168.5 540.5,-187.5 717.5,-187.5 717.5,-168.5 540.5,-168.5"/>
<text text-anchor="middle" x="629" y="-175.5" font-family="Helvetica,sans-Serif" font-size="10.00">model/rcrblockwithdistalpressure.hpp</text>
</a>
</g>
</g>
<!-- Node1&#45;&gt;Node14 -->
<g id="edge33" class="edge">
<title>Node1&#45;&gt;Node14</title>
<path fill="none" stroke="midnightblue" d="M698.47,-270.2C695.95,-256.52 691.1,-238.02 682,-224 672.01,-208.61 655.2,-195.63 643.19,-187.63"/>
<polygon fill="midnightblue" stroke="midnightblue" points="695.05,-271.02 700.07,-280.35 701.97,-269.92 695.05,-271.02"/>
</g>
<!-- Node15 -->
<g id="node15" class="node">
<title>Node15</title>
<g id="a_node15"><a xlink:href="resistancewithdistalpressure_8hpp.html" target="_top" xlink:title="MODEL::ResistanceWithDistalPressure source file.">
<polygon fill="none" stroke="black" points="736,-168.5 736,-187.5 924,-187.5 924,-168.5 736,-168.5"/>
<text text-anchor="middle" x="830" y="-175.5" font-family="Helvetica,sans-Serif" font-size="10.00">model/resistancewithdistalpressure.hpp</text>
</a>
</g>
</g>
<!-- Node1&#45;&gt;Node15 -->
<g id="edge34" class="edge">
<title>Node1&#45;&gt;Node15</title>
<path fill="none" stroke="midnightblue" d="M718.81,-273.82C746.28,-250.39 798.11,-206.19 819.92,-187.59"/>
<polygon fill="midnightblue" stroke="midnightblue" points="716.46,-271.22 711.12,-280.37 721,-276.54 716.46,-271.22"/>
</g>
<!-- Node3&#45;&gt;Node4 -->
<g id="edge3" class="edge">
<title>Node3&#45;&gt;Node4</title>
<path fill="none" stroke="midnightblue" d="M682.86,-225.16C751.85,-215.12 870.95,-197.78 941.92,-187.45"/>
<polygon fill="midnightblue" stroke="midnightblue" points="682.04,-221.74 672.65,-226.65 683.05,-228.67 682.04,-221.74"/>
</g>
<!-- Node3&#45;&gt;Node10 -->
<g id="edge15" class="edge">
<title>Node3&#45;&gt;Node10</title>
<path fill="none" stroke="midnightblue" d="M682.71,-227.93C765.35,-220.02 928.64,-204 1067,-188 1069.92,-187.66 1072.91,-187.31 1075.93,-186.95"/>
<polygon fill="midnightblue" stroke="midnightblue" points="682.18,-224.46 672.56,-228.9 682.84,-231.43 682.18,-224.46"/>
</g>
<!-- Node3&#45;&gt;Node11 -->
<g id="edge17" class="edge">
<title>Node3&#45;&gt;Node11</title>
<path fill="none" stroke="midnightblue" d="M575.23,-229.22C484.35,-222.58 294.67,-207.64 135,-188 132.07,-187.64 129.05,-187.24 126.02,-186.83"/>
<polygon fill="midnightblue" stroke="midnightblue" points="575.06,-232.72 585.29,-229.95 575.57,-225.73 575.06,-232.72"/>
</g>
<!-- Node3&#45;&gt;Node12 -->
<g id="edge19" class="edge">
<title>Node3&#45;&gt;Node12</title>
<path fill="none" stroke="midnightblue" d="M574.81,-225.22C505.1,-215.21 384.43,-197.88 312.32,-187.52"/>
<polygon fill="midnightblue" stroke="midnightblue" points="574.74,-228.74 585.13,-226.7 575.73,-221.81 574.74,-228.74"/>
</g>
<!-- Node3&#45;&gt;Node13 -->
<g id="edge21" class="edge">
<title>Node3&#45;&gt;Node13</title>
<path fill="none" stroke="midnightblue" d="M590.88,-221.44C557.32,-211.26 509.23,-196.66 479.07,-187.52"/>
<polygon fill="midnightblue" stroke="midnightblue" points="590.21,-224.89 600.8,-224.44 592.24,-218.19 590.21,-224.89"/>
</g>
<!-- Node3&#45;&gt;Node14 -->
<g id="edge23" class="edge">
<title>Node3&#45;&gt;Node14</title>
<path fill="none" stroke="midnightblue" d="M629,-213.8C629,-204.91 629,-194.78 629,-187.75"/>
<polygon fill="midnightblue" stroke="midnightblue" points="625.5,-214.08 629,-224.08 632.5,-214.08 625.5,-214.08"/>
</g>
<!-- Node3&#45;&gt;Node15 -->
<g id="edge25" class="edge">
<title>Node3&#45;&gt;Node15</title>
<path fill="none" stroke="midnightblue" d="M670.58,-221.83C708.53,-211.63 763.81,-196.78 798.3,-187.52"/>
<polygon fill="midnightblue" stroke="midnightblue" points="669.6,-218.47 660.85,-224.44 671.41,-225.23 669.6,-218.47"/>
</g>
<!-- Node4&#45;&gt;Node5 -->
<g id="edge4" class="edge">
<title>Node4&#45;&gt;Node5</title>
<path fill="none" stroke="midnightblue" d="M947.17,-166.47C895.96,-156.27 819.23,-140.98 771.74,-131.52"/>
<polygon fill="midnightblue" stroke="midnightblue" points="946.57,-169.92 957.06,-168.44 947.94,-163.06 946.57,-169.92"/>
</g>
<!-- Node5&#45;&gt;Node1 -->
<g id="edge7" class="edge">
<title>Node5&#45;&gt;Node1</title>
<path fill="none" stroke="midnightblue" d="M784.43,-124C906.13,-126.84 1187.65,-136.86 1216,-168 1221.98,-174.57 1221.62,-181.11 1216,-188 1160.34,-256.18 892.01,-279.2 766.21,-286.22"/>
<polygon fill="midnightblue" stroke="midnightblue" points="784.28,-120.5 774.21,-123.77 784.13,-127.5 784.28,-120.5"/>
</g>
<!-- Node5&#45;&gt;Node2 -->
<g id="edge14" class="edge">
<title>Node5&#45;&gt;Node2</title>
<path fill="none" stroke="midnightblue" d="M716.92,-103.96C700.01,-80.12 669.94,-37.71 657.09,-19.59"/>
<polygon fill="midnightblue" stroke="midnightblue" points="714.24,-106.24 722.88,-112.37 719.95,-102.19 714.24,-106.24"/>
</g>
<!-- Node6 -->
<g id="node6" class="node">
<title>Node6</title>
<g id="a_node6"><a xlink:href="integrator_8hpp.html" target="_top" xlink:title="ALGEBRA::Integrator source file.">
<polygon fill="none" stroke="black" points="715,-56.5 715,-75.5 825,-75.5 825,-56.5 715,-56.5"/>
<text text-anchor="middle" x="770" y="-63.5" font-family="Helvetica,sans-Serif" font-size="10.00">algebra/integrator.hpp</text>
</a>
</g>
</g>
<!-- Node5&#45;&gt;Node6 -->
<g id="edge5" class="edge">
<title>Node5&#45;&gt;Node6</title>
<path fill="none" stroke="midnightblue" d="M742.02,-103.86C749.12,-94.5 757.6,-83.33 763.36,-75.75"/>
<polygon fill="midnightblue" stroke="midnightblue" points="739.03,-102 735.77,-112.08 744.61,-106.24 739.03,-102"/>
</g>
<!-- Node7 -->
<g id="node7" class="node">
<title>Node7</title>
<g id="a_node7"><a xlink:href="configreader_8hpp.html" target="_top" xlink:title="IO::ConfigReader source file.">
<polygon fill="none" stroke="black" points="843,-56.5 843,-75.5 941,-75.5 941,-56.5 843,-56.5"/>
<text text-anchor="middle" x="892" y="-63.5" font-family="Helvetica,sans-Serif" font-size="10.00">io/configreader.hpp</text>
</a>
</g>
</g>
<!-- Node5&#45;&gt;Node7 -->
<g id="edge8" class="edge">
<title>Node5&#45;&gt;Node7</title>
<path fill="none" stroke="midnightblue" d="M764.7,-109.17C795.4,-99 838.92,-84.59 866.29,-75.52"/>
<polygon fill="midnightblue" stroke="midnightblue" points="763.22,-105.98 754.83,-112.44 765.42,-112.62 763.22,-105.98"/>
</g>
<!-- Node8 -->
<g id="node8" class="node">
<title>Node8</title>
<g id="a_node8"><a xlink:href="csvwriter_8hpp.html" target="_top" xlink:title="IO::write_csv source file.">
<polygon fill="none" stroke="black" points="468.5,-56.5 468.5,-75.5 553.5,-75.5 553.5,-56.5 468.5,-56.5"/>
<text text-anchor="middle" x="511" y="-63.5" font-family="Helvetica,sans-Serif" font-size="10.00">io/csvwriter.hpp</text>
</a>
</g>
</g>
<!-- Node5&#45;&gt;Node8 -->
<g id="edge10" class="edge">
<title>Node5&#45;&gt;Node8</title>
<path fill="none" stroke="midnightblue" d="M684.69,-110.02C643.51,-99.82 583.03,-84.84 545.38,-75.52"/>
<polygon fill="midnightblue" stroke="midnightblue" points="683.91,-113.44 694.46,-112.44 685.59,-106.64 683.91,-113.44"/>
</g>
<!-- Node9 -->
<g id="node9" class="node">
<title>Node9</title>
<g id="a_node9"><a xlink:href="jsonwriter_8hpp.html" target="_top" xlink:title="IO::write_json source file.">
<polygon fill="none" stroke="black" points="571.5,-56.5 571.5,-75.5 658.5,-75.5 658.5,-56.5 571.5,-56.5"/>
<text text-anchor="middle" x="615" y="-63.5" font-family="Helvetica,sans-Serif" font-size="10.00">io/jsonwriter.hpp</text>
</a>
</g>
</g>
<!-- Node5&#45;&gt;Node9 -->
<g id="edge12" class="edge">
<title>Node5&#45;&gt;Node9</title>
<path fill="none" stroke="midnightblue" d="M701.76,-108.1C680.46,-98.01 651.46,-84.27 632.98,-75.52"/>
<polygon fill="midnightblue" stroke="midnightblue" points="700.4,-111.33 710.94,-112.44 703.4,-105 700.4,-111.33"/>
</g>
<!-- Node6&#45;&gt;Node2 -->
<g id="edge6" class="edge">
<title>Node6&#45;&gt;Node2</title>
<path fill="none" stroke="midnightblue" d="M741.86,-52.23C719.6,-42.13 689.14,-28.31 669.77,-19.52"/>
<polygon fill="midnightblue" stroke="midnightblue" points="740.59,-55.5 751.14,-56.44 743.48,-49.12 740.59,-55.5"/>
</g>
<!-- Node7&#45;&gt;Node2 -->
<g id="edge9" class="edge">
<title>Node7&#45;&gt;Node2</title>
<path fill="none" stroke="midnightblue" d="M844.01,-54.25C794.73,-43.21 719.68,-26.39 679.22,-17.32"/>
<polygon fill="midnightblue" stroke="midnightblue" points="843.29,-57.67 853.81,-56.44 844.82,-50.84 843.29,-57.67"/>
</g>
<!-- Node8&#45;&gt;Node2 -->
<g id="edge11" class="edge">
<title>Node8&#45;&gt;Node2</title>
<path fill="none" stroke="midnightblue" d="M542.7,-52.77C569,-42.63 605.72,-28.47 628.92,-19.52"/>
<polygon fill="midnightblue" stroke="midnightblue" points="541.25,-49.58 533.18,-56.44 543.77,-56.11 541.25,-49.58"/>
</g>
<!-- Node9&#45;&gt;Node2 -->
<g id="edge13" class="edge">
<title>Node9&#45;&gt;Node2</title>
<path fill="none" stroke="midnightblue" d="M626.62,-47.57C632.82,-38.27 640.17,-27.25 645.17,-19.75"/>
<polygon fill="midnightblue" stroke="midnightblue" points="623.58,-45.82 620.94,-56.08 629.4,-49.7 623.58,-45.82"/>
</g>
<!-- Node10&#45;&gt;Node5 -->
<g id="edge16" class="edge">
<title>Node10&#45;&gt;Node5</title>
<path fill="none" stroke="midnightblue" d="M1065.95,-167.6C981.95,-156.48 844.69,-138.31 774.08,-128.97"/>
<polygon fill="midnightblue" stroke="midnightblue" points="1065.55,-171.07 1075.92,-168.92 1066.46,-164.13 1065.55,-171.07"/>
</g>
<!-- Node11&#45;&gt;Node5 -->
<g id="edge18" class="edge">
<title>Node11&#45;&gt;Node5</title>
<path fill="none" stroke="midnightblue" d="M136.03,-167.97C346.82,-144.02 585.91,-130.27 683.8,-125.21"/>
<polygon fill="midnightblue" stroke="midnightblue" points="135.55,-164.5 126.01,-169.12 136.34,-171.46 135.55,-164.5"/>
</g>
<!-- Node12&#45;&gt;Node5 -->
<g id="edge20" class="edge">
<title>Node12&#45;&gt;Node5</title>
<path fill="none" stroke="midnightblue" d="M338.37,-167.32C439.68,-155.82 604.83,-137.09 683.95,-128.11"/>
<polygon fill="midnightblue" stroke="midnightblue" points="337.7,-163.87 328.16,-168.47 338.49,-170.82 337.7,-163.87"/>
</g>
<!-- Node13&#45;&gt;Node5 -->
<g id="edge22" class="edge">
<title>Node13&#45;&gt;Node5</title>
<path fill="none" stroke="midnightblue" d="M505.19,-166.47C557.73,-156.27 636.44,-140.98 685.16,-131.52"/>
<polygon fill="midnightblue" stroke="midnightblue" points="504.2,-163.1 495.05,-168.44 505.53,-169.97 504.2,-163.1"/>
</g>
<!-- Node14&#45;&gt;Node5 -->
<g id="edge24" class="edge">
<title>Node14&#45;&gt;Node5</title>
<path fill="none" stroke="midnightblue" d="M654.09,-163.45C672.55,-153.48 697.1,-140.23 712.97,-131.65"/>
<polygon fill="midnightblue" stroke="midnightblue" points="652.2,-160.49 645.07,-168.32 655.53,-166.65 652.2,-160.49"/>
</g>
<!-- Node15&#45;&gt;Node5 -->
<g id="edge26" class="edge">
<title>Node15&#45;&gt;Node5</title>
<path fill="none" stroke="midnightblue" d="M804.92,-163.59C786.24,-153.61 761.3,-140.27 745.19,-131.65"/>
<polygon fill="midnightblue" stroke="midnightblue" points="803.3,-166.7 813.77,-168.32 806.6,-160.52 803.3,-166.7"/>
</g>
</g>
</svg>
