<?xml version="1.0" encoding="UTF-8" standalone="no"?>
<!DOCTYPE svg PUBLIC "-//W3C//DTD SVG 1.1//EN"
 "http://www.w3.org/Graphics/SVG/1.1/DTD/svg11.dtd">
<!-- Generated by graphviz version 3.0.0 (20221109.1736)
 -->
<!-- Title: helpers/startswith.hpp Pages: 1 -->
<svg width="210pt" height="196pt"
 viewBox="0.00 0.00 209.50 196.00" xmlns="http://www.w3.org/2000/svg" xmlns:xlink="http://www.w3.org/1999/xlink">
<g id="graph0" class="graph" transform="scale(1 1) rotate(0) translate(4 192)">
<title>helpers/startswith.hpp</title>
<!-- Node1 -->
<g id="node1" class="node">
<title>Node1</title>
<g id="a_node1"><a xlink:title="HELPERS::startswith source file.">
<polygon fill="#bfbfbf" stroke="black" points="48,-168.5 48,-187.5 160,-187.5 160,-168.5 48,-168.5"/>
<text text-anchor="middle" x="104" y="-175.5" font-family="Helvetica,sans-Serif" font-size="10.00">helpers/startswith.hpp</text>
</a>
</g>
</g>
<!-- Node2 -->
<g id="node2" class="node">
<title>Node2</title>
<g id="a_node2"><a xlink:href="configreader_8hpp.html" target="_top" xlink:title="IO::ConfigReader source file.">
<polygon fill="none" stroke="black" points="0,-112.5 0,-131.5 98,-131.5 98,-112.5 0,-112.5"/>
<text text-anchor="middle" x="49" y="-119.5" font-family="Helvetica,sans-Serif" font-size="10.00">io/configreader.hpp</text>
</a>
</g>
</g>
<!-- Node1&#45;&gt;Node2 -->
<g id="edge1" class="edge">
<title>Node1&#45;&gt;Node2</title>
<path fill="none" stroke="midnightblue" d="M87.71,-161C77.96,-151.43 65.95,-139.64 57.91,-131.75"/>
<polygon fill="midnightblue" stroke="midnightblue" points="85.33,-163.57 94.92,-168.08 90.23,-158.58 85.33,-163.57"/>
</g>
<!-- Node6 -->
<g id="node6" class="node">
<title>Node6</title>
<g id="a_node6"><a xlink:href="csvwriter_8hpp.html" target="_top" xlink:title="IO::write_csv source file.">
<polygon fill="none" stroke="black" points="116.5,-112.5 116.5,-131.5 201.5,-131.5 201.5,-112.5 116.5,-112.5"/>
<text text-anchor="middle" x="159" y="-119.5" font-family="Helvetica,sans-Serif" font-size="10.00">io/csvwriter.hpp</text>
</a>
</g>
</g>
<!-- Node1&#45;&gt;Node6 -->
<g id="edge5" class="edge">
<title>Node1&#45;&gt;Node6</title>
<path fill="none" stroke="midnightblue" d="M120.29,-161C130.04,-151.43 142.05,-139.64 150.09,-131.75"/>
<polygon fill="midnightblue" stroke="midnightblue" points="117.77,-158.58 113.08,-168.08 122.67,-163.57 117.77,-158.58"/>
</g>
<!-- Node3 -->
<g id="node3" class="node">
<title>Node3</title>
<g id="a_node3"><a xlink:href="main_8hpp.html" target="_top" xlink:title="Main page documentation.">
<polygon fill="none" stroke="black" points="76,-56.5 76,-75.5 132,-75.5 132,-56.5 76,-56.5"/>
<text text-anchor="middle" x="104" y="-63.5" font-family="Helvetica,sans-Serif" font-size="10.00">main.hpp</text>
</a>
</g>
</g>
<!-- Node2&#45;&gt;Node3 -->
<g id="edge2" class="edge">
<title>Node2&#45;&gt;Node3</title>
<path fill="none" stroke="midnightblue" d="M65.29,-105C75.04,-95.43 87.05,-83.64 95.09,-75.75"/>
<polygon fill="midnightblue" stroke="midnightblue" points="62.77,-102.58 58.08,-112.08 67.67,-107.57 62.77,-102.58"/>
</g>
<!-- Node4 -->
<g id="node4" class="node">
<title>Node4</title>
<g id="a_node4"><a xlink:href="main_8cpp.html" target="_top" xlink:title="Main routine of svZeroDSolver.">
<polygon fill="none" stroke="black" points="37,-0.5 37,-19.5 93,-19.5 93,-0.5 37,-0.5"/>
<text text-anchor="middle" x="65" y="-7.5" font-family="Helvetica,sans-Serif" font-size="10.00">main.cpp</text>
</a>
</g>
</g>
<!-- Node3&#45;&gt;Node4 -->
<g id="edge3" class="edge">
<title>Node3&#45;&gt;Node4</title>
<path fill="none" stroke="midnightblue" d="M91.62,-47.86C84.86,-38.5 76.79,-27.33 71.32,-19.75"/>
<polygon fill="midnightblue" stroke="midnightblue" points="88.87,-50.03 97.56,-56.08 94.54,-45.93 88.87,-50.03"/>
</g>
<!-- Node5 -->
<g id="node5" class="node">
<title>Node5</title>
<g id="a_node5"><a xlink:href="python_8cpp.html" target="_top" xlink:title="Python binding for svZeroDSolver.">
<polygon fill="none" stroke="black" points="111.5,-0.5 111.5,-19.5 174.5,-19.5 174.5,-0.5 111.5,-0.5"/>
<text text-anchor="middle" x="143" y="-7.5" font-family="Helvetica,sans-Serif" font-size="10.00">python.cpp</text>
</a>
</g>
</g>
<!-- Node3&#45;&gt;Node5 -->
<g id="edge4" class="edge">
<title>Node3&#45;&gt;Node5</title>
<path fill="none" stroke="midnightblue" d="M116.38,-47.86C123.14,-38.5 131.21,-27.33 136.68,-19.75"/>
<polygon fill="midnightblue" stroke="midnightblue" points="113.46,-45.93 110.44,-56.08 119.13,-50.03 113.46,-45.93"/>
</g>
<!-- Node6&#45;&gt;Node3 -->
<g id="edge6" class="edge">
<title>Node6&#45;&gt;Node3</title>
<path fill="none" stroke="midnightblue" d="M142.71,-105C132.96,-95.43 120.95,-83.64 112.91,-75.75"/>
<polygon fill="midnightblue" stroke="midnightblue" points="140.33,-107.57 149.92,-112.08 145.23,-102.58 140.33,-107.57"/>
</g>
</g>
</svg>
