<?xml version="1.0" encoding="UTF-8" standalone="no"?>
<!DOCTYPE svg PUBLIC "-//W3C//DTD SVG 1.1//EN"
 "http://www.w3.org/Graphics/SVG/1.1/DTD/svg11.dtd">
<!-- Generated by graphviz version 3.0.0 (20220413.0242)
 -->
<!-- Title: algebra/state.hpp Pages: 1 -->
<svg width="2026pt" height="420pt"
 viewBox="0.00 0.00 2026.00 420.00" xmlns="http://www.w3.org/2000/svg" xmlns:xlink="http://www.w3.org/1999/xlink">
<g id="graph0" class="graph" transform="scale(1 1) rotate(0) translate(4 416)">
<title>algebra/state.hpp</title>
<!-- Node1 -->
<g id="node1" class="node">
<title>Node1</title>
<g id="a_node1"><a xlink:title="ALGEBRA::State source file.">
<polygon fill="#bfbfbf" stroke="black" points="153.5,-392.5 153.5,-411.5 244.5,-411.5 244.5,-392.5 153.5,-392.5"/>
<text text-anchor="middle" x="199" y="-399.5" font-family="Helvetica,sans-Serif" font-size="10.00">algebra/state.hpp</text>
</a>
</g>
</g>
<!-- Node2 -->
<g id="node2" class="node">
<title>Node2</title>
<g id="a_node2"><a xlink:href="integrator_8hpp.html" target="_top" xlink:title="ALGEBRA::Integrator source file.">
<polygon fill="none" stroke="black" points="28,-224.5 28,-243.5 138,-243.5 138,-224.5 28,-224.5"/>
<text text-anchor="middle" x="83" y="-231.5" font-family="Helvetica,sans-Serif" font-size="10.00">algebra/integrator.hpp</text>
</a>
</g>
</g>
<!-- Node1&#45;&gt;Node2 -->
<g id="edge1" class="edge">
<title>Node1&#45;&gt;Node2</title>
<path fill="none" stroke="midnightblue" d="M186.95,-383.76C162.38,-348.59 107.23,-269.68 88.99,-243.57"/>
<polygon fill="midnightblue" stroke="midnightblue" points="184.17,-385.88 192.76,-392.08 189.9,-381.87 184.17,-385.88"/>
</g>
<!-- Node3 -->
<g id="node3" class="node">
<title>Node3</title>
<g id="a_node3"><a xlink:href="main_8hpp.html" target="_top" xlink:title="Main page documentation.">
<polygon fill="none" stroke="black" points="171,-56.5 171,-75.5 227,-75.5 227,-56.5 171,-56.5"/>
<text text-anchor="middle" x="199" y="-63.5" font-family="Helvetica,sans-Serif" font-size="10.00">main.hpp</text>
</a>
</g>
</g>
<!-- Node1&#45;&gt;Node3 -->
<g id="edge7" class="edge">
<title>Node1&#45;&gt;Node3</title>
<path fill="none" stroke="midnightblue" d="M143.41,-394.23C84.53,-383.6 0,-356.86 0,-291 0,-291 0,-291 0,-177 0,-99.83 116.06,-76.37 170.91,-69.6"/>
<polygon fill="midnightblue" stroke="midnightblue" points="142.9,-397.7 153.35,-395.92 144.07,-390.8 142.9,-397.7"/>
</g>
<!-- Node6 -->
<g id="node6" class="node">
<title>Node6</title>
<g id="a_node6"><a xlink:href="csvwriter_8hpp.html" target="_top" xlink:title="IO::write_csv source file.">
<polygon fill="none" stroke="black" points="156.5,-224.5 156.5,-243.5 241.5,-243.5 241.5,-224.5 156.5,-224.5"/>
<text text-anchor="middle" x="199" y="-231.5" font-family="Helvetica,sans-Serif" font-size="10.00">io/csvwriter.hpp</text>
</a>
</g>
</g>
<!-- Node1&#45;&gt;Node6 -->
<g id="edge5" class="edge">
<title>Node1&#45;&gt;Node6</title>
<path fill="none" stroke="midnightblue" d="M199,-381.93C199,-345.92 199,-269.23 199,-243.57"/>
<polygon fill="midnightblue" stroke="midnightblue" points="195.5,-382.08 199,-392.08 202.5,-382.08 195.5,-382.08"/>
</g>
<!-- Node7 -->
<g id="node7" class="node">
<title>Node7</title>
<g id="a_node7"><a xlink:href="block_8hpp.html" target="_top" xlink:title="MODEL::Block source file.">
<polygon fill="none" stroke="black" points="905.5,-336.5 905.5,-355.5 992.5,-355.5 992.5,-336.5 905.5,-336.5"/>
<text text-anchor="middle" x="949" y="-343.5" font-family="Helvetica,sans-Serif" font-size="10.00">model/block.hpp</text>
</a>
</g>
</g>
<!-- Node1&#45;&gt;Node7 -->
<g id="edge8" class="edge">
<title>Node1&#45;&gt;Node7</title>
<path fill="none" stroke="midnightblue" d="M254.81,-396.98C398,-386.67 776.2,-359.44 905.18,-350.16"/>
<polygon fill="midnightblue" stroke="midnightblue" points="254.23,-393.51 244.51,-397.72 254.73,-400.5 254.23,-393.51"/>
</g>
<!-- Node12 -->
<g id="node12" class="node">
<title>Node12</title>
<g id="a_node12"><a xlink:href="closedloopheartpulmonary_8hpp.html" target="_top" xlink:title="MODEL::ClosedLoopHeartPulmonary source file.">
<polygon fill="none" stroke="black" points="1842,-168.5 1842,-187.5 2018,-187.5 2018,-168.5 1842,-168.5"/>
<text text-anchor="middle" x="1930" y="-175.5" font-family="Helvetica,sans-Serif" font-size="10.00">model/closedloopheartpulmonary.hpp</text>
</a>
</g>
</g>
<!-- Node1&#45;&gt;Node12 -->
<g id="edge51" class="edge">
<title>Node1&#45;&gt;Node12</title>
<path fill="none" stroke="midnightblue" d="M255.01,-400.12C385.94,-397.58 722.13,-388.19 1001,-356 1286.99,-322.99 1356.66,-300.28 1639,-244 1731.4,-225.58 1839.5,-200.5 1894.27,-187.54"/>
<polygon fill="midnightblue" stroke="midnightblue" points="254.76,-396.63 244.83,-400.32 254.89,-403.63 254.76,-396.63"/>
</g>
<!-- Node2&#45;&gt;Node3 -->
<g id="edge2" class="edge">
<title>Node2&#45;&gt;Node3</title>
<path fill="none" stroke="midnightblue" d="M95.05,-215.76C119.62,-180.59 174.77,-101.68 193.01,-75.57"/>
<polygon fill="midnightblue" stroke="midnightblue" points="92.1,-213.87 89.24,-224.08 97.83,-217.88 92.1,-213.87"/>
</g>
<!-- Node4 -->
<g id="node4" class="node">
<title>Node4</title>
<g id="a_node4"><a xlink:href="main_8cpp.html" target="_top" xlink:title="Main routine of svZeroDSolver.">
<polygon fill="none" stroke="black" points="132,-0.5 132,-19.5 188,-19.5 188,-0.5 132,-0.5"/>
<text text-anchor="middle" x="160" y="-7.5" font-family="Helvetica,sans-Serif" font-size="10.00">main.cpp</text>
</a>
</g>
</g>
<!-- Node3&#45;&gt;Node4 -->
<g id="edge3" class="edge">
<title>Node3&#45;&gt;Node4</title>
<path fill="none" stroke="midnightblue" d="M186.62,-47.86C179.86,-38.5 171.79,-27.33 166.32,-19.75"/>
<polygon fill="midnightblue" stroke="midnightblue" points="183.87,-50.03 192.56,-56.08 189.54,-45.93 183.87,-50.03"/>
</g>
<!-- Node5 -->
<g id="node5" class="node">
<title>Node5</title>
<g id="a_node5"><a xlink:href="python_8cpp.html" target="_top" xlink:title="Python binding for svZeroDSolver.">
<polygon fill="none" stroke="black" points="206.5,-0.5 206.5,-19.5 269.5,-19.5 269.5,-0.5 206.5,-0.5"/>
<text text-anchor="middle" x="238" y="-7.5" font-family="Helvetica,sans-Serif" font-size="10.00">python.cpp</text>
</a>
</g>
</g>
<!-- Node3&#45;&gt;Node5 -->
<g id="edge4" class="edge">
<title>Node3&#45;&gt;Node5</title>
<path fill="none" stroke="midnightblue" d="M211.38,-47.86C218.14,-38.5 226.21,-27.33 231.68,-19.75"/>
<polygon fill="midnightblue" stroke="midnightblue" points="208.46,-45.93 205.44,-56.08 214.13,-50.03 208.46,-45.93"/>
</g>
<!-- Node6&#45;&gt;Node3 -->
<g id="edge6" class="edge">
<title>Node6&#45;&gt;Node3</title>
<path fill="none" stroke="midnightblue" d="M199,-213.93C199,-177.92 199,-101.23 199,-75.57"/>
<polygon fill="midnightblue" stroke="midnightblue" points="195.5,-214.08 199,-224.08 202.5,-214.08 195.5,-214.08"/>
</g>
<!-- Node8 -->
<g id="node8" class="node">
<title>Node8</title>
<g id="a_node8"><a xlink:href="bloodvessel_8hpp.html" target="_top" xlink:title="MODEL::BloodVessel source file.">
<polygon fill="none" stroke="black" points="336,-168.5 336,-187.5 452,-187.5 452,-168.5 336,-168.5"/>
<text text-anchor="middle" x="394" y="-175.5" font-family="Helvetica,sans-Serif" font-size="10.00">model/bloodvessel.hpp</text>
</a>
</g>
</g>
<!-- Node7&#45;&gt;Node8 -->
<g id="edge9" class="edge">
<title>Node7&#45;&gt;Node8</title>
<path fill="none" stroke="midnightblue" d="M909.32,-333.71C877.76,-324.7 832.51,-311.69 793,-300 653.48,-258.72 487.08,-207.67 422.02,-187.64"/>
<polygon fill="midnightblue" stroke="midnightblue" points="908.48,-337.12 919.06,-336.49 910.4,-330.38 908.48,-337.12"/>
</g>
<!-- Node10 -->
<g id="node10" class="node">
<title>Node10</title>
<g id="a_node10"><a xlink:href="closedloop_r_c_rbc_8hpp.html" target="_top" xlink:title="MODEL::ClosedLoopRCRBC source file.">
<polygon fill="none" stroke="black" points="470.5,-168.5 470.5,-187.5 611.5,-187.5 611.5,-168.5 470.5,-168.5"/>
<text text-anchor="middle" x="541" y="-175.5" font-family="Helvetica,sans-Serif" font-size="10.00">model/closedloopRCRbc.hpp</text>
</a>
</g>
</g>
<!-- Node7&#45;&gt;Node10 -->
<g id="edge12" class="edge">
<title>Node7&#45;&gt;Node10</title>
<path fill="none" stroke="midnightblue" d="M918.53,-332.6C839.54,-300.47 629.65,-215.07 562.2,-187.62"/>
<polygon fill="midnightblue" stroke="midnightblue" points="917.34,-335.9 927.92,-336.42 919.98,-329.41 917.34,-335.9"/>
</g>
<!-- Node11 -->
<g id="node11" class="node">
<title>Node11</title>
<g id="a_node11"><a xlink:href="closedloopcoronarybc_8hpp_source.html" target="_top" xlink:title=" ">
<polygon fill="none" stroke="black" points="630,-168.5 630,-187.5 788,-187.5 788,-168.5 630,-168.5"/>
<text text-anchor="middle" x="709" y="-175.5" font-family="Helvetica,sans-Serif" font-size="10.00">model/closedloopcoronarybc.hpp</text>
</a>
</g>
</g>
<!-- Node7&#45;&gt;Node11 -->
<g id="edge14" class="edge">
<title>Node7&#45;&gt;Node11</title>
<path fill="none" stroke="midnightblue" d="M927.94,-330.44C879.28,-296.78 760.23,-214.44 721.44,-187.61"/>
<polygon fill="midnightblue" stroke="midnightblue" points="926.22,-333.5 936.43,-336.31 930.2,-327.74 926.22,-333.5"/>
</g>
<!-- Node7&#45;&gt;Node12 -->
<g id="edge16" class="edge">
<title>Node7&#45;&gt;Node12</title>
<path fill="none" stroke="midnightblue" d="M1002.97,-336.86C1060.88,-328.06 1155.52,-313.48 1237,-300 1480.4,-259.74 1771.16,-207.68 1882.99,-187.51"/>
<polygon fill="midnightblue" stroke="midnightblue" points="1002.31,-333.42 992.95,-338.38 1003.36,-340.34 1002.31,-333.42"/>
</g>
<!-- Node13 -->
<g id="node13" class="node">
<title>Node13</title>
<g id="a_node13"><a xlink:href="flowreferencebc_8hpp.html" target="_top" xlink:title="MODEL::FlowReferenceBC source file.">
<polygon fill="none" stroke="black" points="806,-168.5 806,-187.5 938,-187.5 938,-168.5 806,-168.5"/>
<text text-anchor="middle" x="872" y="-175.5" font-family="Helvetica,sans-Serif" font-size="10.00">model/flowreferencebc.hpp</text>
</a>
</g>
</g>
<!-- Node7&#45;&gt;Node13 -->
<g id="edge18" class="edge">
<title>Node7&#45;&gt;Node13</title>
<path fill="none" stroke="midnightblue" d="M938.73,-327.48C934.04,-319.24 928.53,-309.23 924,-300 903.74,-258.75 883.24,-207.68 875.36,-187.64"/>
<polygon fill="midnightblue" stroke="midnightblue" points="935.72,-329.27 943.75,-336.18 941.78,-325.77 935.72,-329.27"/>
</g>
<!-- Node14 -->
<g id="node14" class="node">
<title>Node14</title>
<g id="a_node14"><a xlink:href="junction_8hpp.html" target="_top" xlink:title="MODEL::Junction source file.">
<polygon fill="none" stroke="black" points="956,-168.5 956,-187.5 1054,-187.5 1054,-168.5 956,-168.5"/>
<text text-anchor="middle" x="1005" y="-175.5" font-family="Helvetica,sans-Serif" font-size="10.00">model/junction.hpp</text>
</a>
</g>
</g>
<!-- Node7&#45;&gt;Node14 -->
<g id="edge20" class="edge">
<title>Node7&#45;&gt;Node14</title>
<path fill="none" stroke="midnightblue" d="M940.81,-327.19C930.72,-302.44 917,-256.97 935,-224 944.62,-206.37 964.43,-194.62 980.53,-187.56"/>
<polygon fill="midnightblue" stroke="midnightblue" points="937.62,-328.64 944.8,-336.43 944.05,-325.87 937.62,-328.64"/>
</g>
<!-- Node15 -->
<g id="node15" class="node">
<title>Node15</title>
<g id="a_node15"><a xlink:href="model_8hpp.html" target="_top" xlink:title="MODEL::Model source file.">
<polygon fill="none" stroke="black" points="263,-280.5 263,-299.5 353,-299.5 353,-280.5 263,-280.5"/>
<text text-anchor="middle" x="308" y="-287.5" font-family="Helvetica,sans-Serif" font-size="10.00">model/model.hpp</text>
</a>
</g>
</g>
<!-- Node7&#45;&gt;Node15 -->
<g id="edge22" class="edge">
<title>Node7&#45;&gt;Node15</title>
<path fill="none" stroke="midnightblue" d="M895.46,-340.49C771.86,-330.08 468.46,-304.52 353.32,-294.82"/>
<polygon fill="midnightblue" stroke="midnightblue" points="895.19,-343.98 905.45,-341.33 895.77,-337 895.19,-343.98"/>
</g>
<!-- Node17 -->
<g id="node17" class="node">
<title>Node17</title>
<g id="a_node17"><a xlink:href="openloopcoronarybc_8hpp.html" target="_top" xlink:title="MODEL::ClosedLoopCoronaryBC source file.">
<polygon fill="none" stroke="black" points="1072,-168.5 1072,-187.5 1222,-187.5 1222,-168.5 1072,-168.5"/>
<text text-anchor="middle" x="1147" y="-175.5" font-family="Helvetica,sans-Serif" font-size="10.00">model/openloopcoronarybc.hpp</text>
</a>
</g>
</g>
<!-- Node7&#45;&gt;Node17 -->
<g id="edge46" class="edge">
<title>Node7&#45;&gt;Node17</title>
<path fill="none" stroke="midnightblue" d="M969.98,-330.64C997,-311.82 1045.01,-277.29 1083,-244 1104.44,-225.21 1127.37,-200.71 1139.1,-187.82"/>
<polygon fill="midnightblue" stroke="midnightblue" points="967.9,-327.82 961.67,-336.39 971.88,-333.58 967.9,-327.82"/>
</g>
<!-- Node18 -->
<g id="node18" class="node">
<title>Node18</title>
<g id="a_node18"><a xlink:href="pressurereferencebc_8hpp.html" target="_top" xlink:title="MODEL::PressureReferenceBC source file.">
<polygon fill="none" stroke="black" points="1240,-168.5 1240,-187.5 1392,-187.5 1392,-168.5 1240,-168.5"/>
<text text-anchor="middle" x="1316" y="-175.5" font-family="Helvetica,sans-Serif" font-size="10.00">model/pressurereferencebc.hpp</text>
</a>
</g>
</g>
<!-- Node7&#45;&gt;Node18 -->
<g id="edge47" class="edge">
<title>Node7&#45;&gt;Node18</title>
<path fill="none" stroke="midnightblue" d="M977.28,-332.21C1048.99,-299.77 1236.5,-214.96 1296.93,-187.62"/>
<polygon fill="midnightblue" stroke="midnightblue" points="975.63,-329.11 967.96,-336.42 978.51,-335.49 975.63,-329.11"/>
</g>
<!-- Node19 -->
<g id="node19" class="node">
<title>Node19</title>
<g id="a_node19"><a xlink:href="resistancebc_8hpp.html" target="_top" xlink:title="MODEL::ResistanceBC source file.">
<polygon fill="none" stroke="black" points="1410.5,-168.5 1410.5,-187.5 1529.5,-187.5 1529.5,-168.5 1410.5,-168.5"/>
<text text-anchor="middle" x="1470" y="-175.5" font-family="Helvetica,sans-Serif" font-size="10.00">model/resistancebc.hpp</text>
</a>
</g>
</g>
<!-- Node7&#45;&gt;Node19 -->
<g id="edge48" class="edge">
<title>Node7&#45;&gt;Node19</title>
<path fill="none" stroke="midnightblue" d="M984.83,-333.29C1011.67,-324.42 1049.26,-311.79 1082,-300 1171.08,-267.93 1190.53,-251.91 1281,-224 1330.47,-208.74 1388.57,-195.6 1427.16,-187.52"/>
<polygon fill="midnightblue" stroke="midnightblue" points="983.5,-330.05 975.1,-336.5 985.69,-336.69 983.5,-330.05"/>
</g>
<!-- Node20 -->
<g id="node20" class="node">
<title>Node20</title>
<g id="a_node20"><a xlink:href="resistivejunction_8hpp.html" target="_top" xlink:title="MODEL::ResistiveJunction source file.">
<polygon fill="none" stroke="black" points="1548,-168.5 1548,-187.5 1682,-187.5 1682,-168.5 1548,-168.5"/>
<text text-anchor="middle" x="1615" y="-175.5" font-family="Helvetica,sans-Serif" font-size="10.00">model/resistivejunction.hpp</text>
</a>
</g>
</g>
<!-- Node7&#45;&gt;Node20 -->
<g id="edge49" class="edge">
<title>Node7&#45;&gt;Node20</title>
<path fill="none" stroke="midnightblue" d="M993.37,-333.94C1118.03,-302.87 1469.56,-215.25 1580.8,-187.52"/>
<polygon fill="midnightblue" stroke="midnightblue" points="992.26,-330.61 983.4,-336.42 993.95,-337.4 992.26,-330.61"/>
</g>
<!-- Node21 -->
<g id="node21" class="node">
<title>Node21</title>
<g id="a_node21"><a xlink:href="windkesselbc_8hpp.html" target="_top" xlink:title="MODEL::WindkesselBC source file.">
<polygon fill="none" stroke="black" points="1700.5,-168.5 1700.5,-187.5 1823.5,-187.5 1823.5,-168.5 1700.5,-168.5"/>
<text text-anchor="middle" x="1762" y="-175.5" font-family="Helvetica,sans-Serif" font-size="10.00">model/windkesselbc.hpp</text>
</a>
</g>
</g>
<!-- Node7&#45;&gt;Node21 -->
<g id="edge50" class="edge">
<title>Node7&#45;&gt;Node21</title>
<path fill="none" stroke="midnightblue" d="M1002.34,-334.68C1048.77,-325.66 1117.87,-312.14 1178,-300 1382.51,-258.72 1626.89,-207.46 1721.67,-187.5"/>
<polygon fill="midnightblue" stroke="midnightblue" points="1001.65,-331.25 992.5,-336.59 1002.99,-338.12 1001.65,-331.25"/>
</g>
<!-- Node9 -->
<g id="node9" class="node">
<title>Node9</title>
<g id="a_node9"><a xlink:href="configreader_8hpp.html" target="_top" xlink:title="IO::ConfigReader source file.">
<polygon fill="none" stroke="black" points="956,-112.5 956,-131.5 1054,-131.5 1054,-112.5 956,-112.5"/>
<text text-anchor="middle" x="1005" y="-119.5" font-family="Helvetica,sans-Serif" font-size="10.00">io/configreader.hpp</text>
</a>
</g>
</g>
<!-- Node8&#45;&gt;Node9 -->
<g id="edge10" class="edge">
<title>Node8&#45;&gt;Node9</title>
<path fill="none" stroke="midnightblue" d="M462.18,-167.92C650.67,-147.71 861.93,-132.56 955.79,-126.23"/>
<polygon fill="midnightblue" stroke="midnightblue" points="461.65,-164.46 452.08,-169.01 462.4,-171.42 461.65,-164.46"/>
</g>
<!-- Node9&#45;&gt;Node3 -->
<g id="edge11" class="edge">
<title>Node9&#45;&gt;Node3</title>
<path fill="none" stroke="midnightblue" d="M945.58,-117.02C784.32,-106.22 342.79,-76.63 227.07,-68.88"/>
<polygon fill="midnightblue" stroke="midnightblue" points="945.58,-120.53 955.79,-117.7 946.05,-113.54 945.58,-120.53"/>
</g>
<!-- Node10&#45;&gt;Node9 -->
<g id="edge13" class="edge">
<title>Node10&#45;&gt;Node9</title>
<path fill="none" stroke="midnightblue" d="M621.71,-167.61C718.01,-156.4 875.98,-138.01 955.7,-128.74"/>
<polygon fill="midnightblue" stroke="midnightblue" points="621.25,-164.14 611.72,-168.77 622.06,-171.09 621.25,-164.14"/>
</g>
<!-- Node11&#45;&gt;Node9 -->
<g id="edge15" class="edge">
<title>Node11&#45;&gt;Node9</title>
<path fill="none" stroke="midnightblue" d="M766,-166.6C821.94,-156.4 906.23,-141.02 958.32,-131.52"/>
<polygon fill="midnightblue" stroke="midnightblue" points="765.11,-163.21 755.9,-168.44 766.37,-170.09 765.11,-163.21"/>
</g>
<!-- Node12&#45;&gt;Node9 -->
<g id="edge17" class="edge">
<title>Node12&#45;&gt;Node9</title>
<path fill="none" stroke="midnightblue" d="M1831.71,-167.93C1529.64,-145.92 1180.74,-130.34 1054.04,-125.01"/>
<polygon fill="midnightblue" stroke="midnightblue" points="1831.75,-171.45 1841.98,-168.69 1832.27,-164.46 1831.75,-171.45"/>
</g>
<!-- Node13&#45;&gt;Node9 -->
<g id="edge19" class="edge">
<title>Node13&#45;&gt;Node9</title>
<path fill="none" stroke="midnightblue" d="M902.45,-164.64C927.41,-154.5 962.08,-140.43 984.02,-131.52"/>
<polygon fill="midnightblue" stroke="midnightblue" points="901.02,-161.44 893.07,-168.44 903.66,-167.92 901.02,-161.44"/>
</g>
<!-- Node14&#45;&gt;Node9 -->
<g id="edge21" class="edge">
<title>Node14&#45;&gt;Node9</title>
<path fill="none" stroke="midnightblue" d="M1005,-157.8C1005,-148.91 1005,-138.78 1005,-131.75"/>
<polygon fill="midnightblue" stroke="midnightblue" points="1001.5,-158.08 1005,-168.08 1008.5,-158.08 1001.5,-158.08"/>
</g>
<!-- Node15&#45;&gt;Node2 -->
<g id="edge23" class="edge">
<title>Node15&#45;&gt;Node2</title>
<path fill="none" stroke="midnightblue" d="M262.53,-278.09C220.03,-267.89 157.42,-252.86 118.49,-243.52"/>
<polygon fill="midnightblue" stroke="midnightblue" points="261.81,-281.51 272.35,-280.44 263.44,-274.71 261.81,-281.51"/>
</g>
<!-- Node15&#45;&gt;Node3 -->
<g id="edge45" class="edge">
<title>Node15&#45;&gt;Node3</title>
<path fill="none" stroke="midnightblue" d="M299.24,-271.16C277.13,-226.12 219.65,-109.06 203.36,-75.88"/>
<polygon fill="midnightblue" stroke="midnightblue" points="296.18,-272.86 303.73,-280.3 302.46,-269.78 296.18,-272.86"/>
</g>
<!-- Node15&#45;&gt;Node6 -->
<g id="edge44" class="edge">
<title>Node15&#45;&gt;Node6</title>
<path fill="none" stroke="midnightblue" d="M281.48,-275.86C261.27,-265.85 234.01,-252.35 216.47,-243.65"/>
<polygon fill="midnightblue" stroke="midnightblue" points="279.97,-279.02 290.49,-280.32 283.08,-272.75 279.97,-279.02"/>
</g>
<!-- Node15&#45;&gt;Node9 -->
<g id="edge43" class="edge">
<title>Node15&#45;&gt;Node9</title>
<path fill="none" stroke="midnightblue" d="M304.58,-270.28C300.84,-243.29 298.71,-193.86 327,-168 373.14,-125.81 807.83,-122.64 955.89,-122.79"/>
<polygon fill="midnightblue" stroke="midnightblue" points="301.15,-271.02 306.19,-280.34 308.06,-269.91 301.15,-271.02"/>
</g>
<!-- Node16 -->
<g id="node16" class="node">
<title>Node16</title>
<g id="a_node16"><a xlink:href="sparsesystem_8hpp.html" target="_top" xlink:title="ALGEBRA::SparseSystem source file.">
<polygon fill="none" stroke="black" points="944,-224.5 944,-243.5 1074,-243.5 1074,-224.5 944,-224.5"/>
<text text-anchor="middle" x="1009" y="-231.5" font-family="Helvetica,sans-Serif" font-size="10.00">algebra/sparsesystem.hpp</text>
</a>
</g>
</g>
<!-- Node15&#45;&gt;Node16 -->
<g id="edge24" class="edge">
<title>Node15&#45;&gt;Node16</title>
<path fill="none" stroke="midnightblue" d="M363.43,-284.42C491.46,-274.28 806.9,-249.98 943.86,-239.71"/>
<polygon fill="midnightblue" stroke="midnightblue" points="362.78,-280.96 353.09,-285.25 363.33,-287.94 362.78,-280.96"/>
</g>
<!-- Node16&#45;&gt;Node7 -->
<g id="edge25" class="edge">
<title>Node16&#45;&gt;Node7</title>
<path fill="none" stroke="midnightblue" d="M999.39,-252.63C986.34,-276.55 963.52,-318.38 953.71,-336.37"/>
<polygon fill="midnightblue" stroke="midnightblue" points="1002.6,-254.05 1004.31,-243.59 996.45,-250.69 1002.6,-254.05"/>
</g>
<!-- Node16&#45;&gt;Node8 -->
<g id="edge26" class="edge">
<title>Node16&#45;&gt;Node8</title>
<path fill="none" stroke="midnightblue" d="M933.69,-228.05C827.95,-220.82 629.54,-206.23 461,-188 458.08,-187.68 455.1,-187.34 452.08,-186.99"/>
<polygon fill="midnightblue" stroke="midnightblue" points="933.73,-231.56 943.94,-228.75 934.2,-224.58 933.73,-231.56"/>
</g>
<!-- Node16&#45;&gt;Node10 -->
<g id="edge27" class="edge">
<title>Node16&#45;&gt;Node10</title>
<path fill="none" stroke="midnightblue" d="M933.92,-224.34C845.13,-214.09 698.45,-197.17 611.63,-187.15"/>
<polygon fill="midnightblue" stroke="midnightblue" points="933.59,-227.82 943.93,-225.49 934.39,-220.87 933.59,-227.82"/>
</g>
<!-- Node16&#45;&gt;Node11 -->
<g id="edge28" class="edge">
<title>Node16&#45;&gt;Node11</title>
<path fill="none" stroke="midnightblue" d="M951.58,-222.66C894.88,-212.46 809.21,-197.04 756.31,-187.52"/>
<polygon fill="midnightblue" stroke="midnightblue" points="951,-226.12 961.46,-224.44 952.24,-219.23 951,-226.12"/>
</g>
<!-- Node16&#45;&gt;Node12 -->
<g id="edge29" class="edge">
<title>Node16&#45;&gt;Node12</title>
<path fill="none" stroke="midnightblue" d="M1084.34,-229.84C1229.37,-223.56 1557.42,-208.3 1833,-188 1835.95,-187.78 1838.95,-187.55 1841.98,-187.31"/>
<polygon fill="midnightblue" stroke="midnightblue" points="1084.05,-226.35 1074.21,-230.28 1084.36,-233.35 1084.05,-226.35"/>
</g>
<!-- Node16&#45;&gt;Node13 -->
<g id="edge30" class="edge">
<title>Node16&#45;&gt;Node13</title>
<path fill="none" stroke="midnightblue" d="M977.98,-220.77C952.24,-210.63 916.31,-196.47 893.61,-187.52"/>
<polygon fill="midnightblue" stroke="midnightblue" points="976.71,-224.03 987.29,-224.44 979.27,-217.52 976.71,-224.03"/>
</g>
<!-- Node16&#45;&gt;Node14 -->
<g id="edge31" class="edge">
<title>Node16&#45;&gt;Node14</title>
<path fill="none" stroke="midnightblue" d="M1007.6,-214.1C1006.94,-205.14 1006.17,-194.86 1005.65,-187.75"/>
<polygon fill="midnightblue" stroke="midnightblue" points="1004.11,-214.37 1008.34,-224.08 1011.09,-213.85 1004.11,-214.37"/>
</g>
<!-- Node16&#45;&gt;Node15 -->
<g id="edge32" class="edge">
<title>Node16&#45;&gt;Node15</title>
<path fill="none" stroke="midnightblue" d="M933.73,-241.14C787.85,-252.64 470.92,-277.03 353.16,-285.78"/>
<polygon fill="midnightblue" stroke="midnightblue" points="934.23,-244.61 943.93,-240.34 933.68,-237.64 934.23,-244.61"/>
</g>
<!-- Node16&#45;&gt;Node17 -->
<g id="edge33" class="edge">
<title>Node16&#45;&gt;Node17</title>
<path fill="none" stroke="midnightblue" d="M1040.25,-220.77C1066.17,-210.63 1102.36,-196.47 1125.24,-187.52"/>
<polygon fill="midnightblue" stroke="midnightblue" points="1038.9,-217.54 1030.87,-224.44 1041.45,-224.06 1038.9,-217.54"/>
</g>
<!-- Node16&#45;&gt;Node18 -->
<g id="edge35" class="edge">
<title>Node16&#45;&gt;Node18</title>
<path fill="none" stroke="midnightblue" d="M1067.76,-222.66C1125.78,-212.46 1213.45,-197.04 1267.58,-187.52"/>
<polygon fill="midnightblue" stroke="midnightblue" points="1066.89,-219.26 1057.65,-224.44 1068.1,-226.16 1066.89,-219.26"/>
</g>
<!-- Node16&#45;&gt;Node19 -->
<g id="edge37" class="edge">
<title>Node16&#45;&gt;Node19</title>
<path fill="none" stroke="midnightblue" d="M1084.57,-224.67C1163.54,-215.89 1291.03,-201.48 1401,-188 1404,-187.63 1407.07,-187.25 1410.17,-186.86"/>
<polygon fill="midnightblue" stroke="midnightblue" points="1083.79,-221.24 1074.24,-225.82 1084.56,-228.2 1083.79,-221.24"/>
</g>
<!-- Node16&#45;&gt;Node20 -->
<g id="edge39" class="edge">
<title>Node16&#45;&gt;Node20</title>
<path fill="none" stroke="midnightblue" d="M1084.32,-227.4C1187.14,-219.56 1377.18,-204.45 1539,-188 1541.91,-187.7 1544.88,-187.39 1547.88,-187.07"/>
<polygon fill="midnightblue" stroke="midnightblue" points="1084.05,-223.91 1074.34,-228.15 1084.58,-230.89 1084.05,-223.91"/>
</g>
<!-- Node16&#45;&gt;Node21 -->
<g id="edge41" class="edge">
<title>Node16&#45;&gt;Node21</title>
<path fill="none" stroke="midnightblue" d="M1084.77,-229.49C1210.78,-223.33 1471.28,-209.16 1691,-188 1694.09,-187.7 1697.26,-187.38 1700.45,-187.03"/>
<polygon fill="midnightblue" stroke="midnightblue" points="1084.28,-226.01 1074.47,-229.99 1084.62,-233 1084.28,-226.01"/>
</g>
<!-- Node17&#45;&gt;Node9 -->
<g id="edge34" class="edge">
<title>Node17&#45;&gt;Node9</title>
<path fill="none" stroke="midnightblue" d="M1114.84,-164.77C1088.17,-154.63 1050.93,-140.47 1027.4,-131.52"/>
<polygon fill="midnightblue" stroke="midnightblue" points="1113.91,-168.16 1124.5,-168.44 1116.4,-161.62 1113.91,-168.16"/>
</g>
<!-- Node18&#45;&gt;Node9 -->
<g id="edge36" class="edge">
<title>Node18&#45;&gt;Node9</title>
<path fill="none" stroke="midnightblue" d="M1256.84,-166.73C1198.07,-156.52 1109,-141.06 1054.05,-131.52"/>
<polygon fill="midnightblue" stroke="midnightblue" points="1256.27,-170.18 1266.72,-168.44 1257.47,-163.28 1256.27,-170.18"/>
</g>
<!-- Node19&#45;&gt;Node9 -->
<g id="edge38" class="edge">
<title>Node19&#45;&gt;Node9</title>
<path fill="none" stroke="midnightblue" d="M1399.94,-167.89C1268.74,-151.95 1127.09,-136.27 1054.11,-128.32"/>
<polygon fill="midnightblue" stroke="midnightblue" points="1399.82,-171.4 1410.17,-169.13 1400.67,-164.45 1399.82,-171.4"/>
</g>
<!-- Node20&#45;&gt;Node9 -->
<g id="edge40" class="edge">
<title>Node20&#45;&gt;Node9</title>
<path fill="none" stroke="midnightblue" d="M1537.7,-167.9C1352.95,-149.34 1146.41,-133.43 1054.01,-126.57"/>
<polygon fill="midnightblue" stroke="midnightblue" points="1537.58,-171.4 1547.88,-168.93 1538.28,-164.44 1537.58,-171.4"/>
</g>
<!-- Node21&#45;&gt;Node9 -->
<g id="edge42" class="edge">
<title>Node21&#45;&gt;Node9</title>
<path fill="none" stroke="midnightblue" d="M1690.27,-167.99C1445.01,-144.71 1165.38,-130.4 1054.16,-125.2"/>
<polygon fill="midnightblue" stroke="midnightblue" points="1690.16,-171.5 1700.45,-168.97 1690.83,-164.53 1690.16,-171.5"/>
</g>
</g>
</svg>
