<?xml version="1.0" encoding="UTF-8" standalone="no"?>
<!DOCTYPE svg PUBLIC "-//W3C//DTD SVG 1.1//EN"
 "http://www.w3.org/Graphics/SVG/1.1/DTD/svg11.dtd">
<!-- Generated by graphviz version 3.0.0 (20220413.0242)
 -->
<!-- Title: algebra/state.hpp Pages: 1 -->
<svg width="365pt" height="140pt"
 viewBox="0.00 0.00 364.50 140.00" xmlns="http://www.w3.org/2000/svg" xmlns:xlink="http://www.w3.org/1999/xlink">
<g id="graph0" class="graph" transform="scale(1 1) rotate(0) translate(4 136)">
<title>algebra/state.hpp</title>
<!-- Node1 -->
<g id="node1" class="node">
<title>Node1</title>
<g id="a_node1"><a xlink:title="ALGEBRA::State source file.">
<polygon fill="#bfbfbf" stroke="black" points="127.5,-112.5 127.5,-131.5 218.5,-131.5 218.5,-112.5 127.5,-112.5"/>
<text text-anchor="middle" x="173" y="-119.5" font-family="Helvetica,sans-Serif" font-size="10.00">algebra/state.hpp</text>
</a>
</g>
</g>
<!-- Node2 -->
<g id="node2" class="node">
<title>Node2</title>
<g id="a_node2"><a xlink:href="integrator_8hpp.html" target="_top" xlink:title="ALGEBRA::Integrator source file.">
<polygon fill="none" stroke="black" points="0,-56.5 0,-75.5 110,-75.5 110,-56.5 0,-56.5"/>
<text text-anchor="middle" x="55" y="-63.5" font-family="Helvetica,sans-Serif" font-size="10.00">algebra/integrator.hpp</text>
</a>
</g>
</g>
<!-- Node1&#45;&gt;Node2 -->
<g id="edge1" class="edge">
<title>Node1&#45;&gt;Node2</title>
<path fill="none" stroke="midnightblue" d="M145.1,-108.23C123.03,-98.13 92.82,-84.31 73.61,-75.52"/>
<polygon fill="midnightblue" stroke="midnightblue" points="143.75,-111.46 154.3,-112.44 146.67,-105.1 143.75,-111.46"/>
</g>
<!-- Node3 -->
<g id="node3" class="node">
<title>Node3</title>
<g id="a_node3"><a xlink:href="main_8cpp.html" target="_top" xlink:title="Main routine of svZeroDSolver.">
<polygon fill="none" stroke="black" points="145,-0.5 145,-19.5 201,-19.5 201,-0.5 145,-0.5"/>
<text text-anchor="middle" x="173" y="-7.5" font-family="Helvetica,sans-Serif" font-size="10.00">main.cpp</text>
</a>
</g>
</g>
<!-- Node1&#45;&gt;Node3 -->
<g id="edge7" class="edge">
<title>Node1&#45;&gt;Node3</title>
<path fill="none" stroke="midnightblue" d="M164.94,-102.83C161.79,-94.78 158.57,-85.09 157,-76 153.48,-55.61 162.59,-32.15 168.47,-19.75"/>
<polygon fill="midnightblue" stroke="midnightblue" points="161.81,-104.4 168.89,-112.28 168.26,-101.7 161.81,-104.4"/>
</g>
<!-- Node4 -->
<g id="node4" class="node">
<title>Node4</title>
<g id="a_node4"><a xlink:href="csvwriter_8hpp.html" target="_top" xlink:title="IO::write_csv source file.">
<polygon fill="none" stroke="black" points="166.5,-56.5 166.5,-75.5 251.5,-75.5 251.5,-56.5 166.5,-56.5"/>
<text text-anchor="middle" x="209" y="-63.5" font-family="Helvetica,sans-Serif" font-size="10.00">io/csvwriter.hpp</text>
</a>
</g>
</g>
<!-- Node1&#45;&gt;Node4 -->
<g id="edge3" class="edge">
<title>Node1&#45;&gt;Node4</title>
<path fill="none" stroke="midnightblue" d="M184.62,-103.57C190.82,-94.27 198.17,-83.25 203.17,-75.75"/>
<polygon fill="midnightblue" stroke="midnightblue" points="181.58,-101.82 178.94,-112.08 187.4,-105.7 181.58,-101.82"/>
</g>
<!-- Node5 -->
<g id="node5" class="node">
<title>Node5</title>
<g id="a_node5"><a xlink:href="jsonwriter_8hpp.html" target="_top" xlink:title="IO::write_json source file.">
<polygon fill="none" stroke="black" points="269.5,-56.5 269.5,-75.5 356.5,-75.5 356.5,-56.5 269.5,-56.5"/>
<text text-anchor="middle" x="313" y="-63.5" font-family="Helvetica,sans-Serif" font-size="10.00">io/jsonwriter.hpp</text>
</a>
</g>
</g>
<!-- Node1&#45;&gt;Node5 -->
<g id="edge5" class="edge">
<title>Node1&#45;&gt;Node5</title>
<path fill="none" stroke="midnightblue" d="M204.7,-108.77C231,-98.63 267.72,-84.47 290.92,-75.52"/>
<polygon fill="midnightblue" stroke="midnightblue" points="203.25,-105.58 195.18,-112.44 205.77,-112.11 203.25,-105.58"/>
</g>
<!-- Node2&#45;&gt;Node3 -->
<g id="edge2" class="edge">
<title>Node2&#45;&gt;Node3</title>
<path fill="none" stroke="midnightblue" d="M82.9,-52.23C104.97,-42.13 135.18,-28.31 154.39,-19.52"/>
<polygon fill="midnightblue" stroke="midnightblue" points="81.33,-49.1 73.7,-56.44 84.25,-55.46 81.33,-49.1"/>
</g>
<!-- Node4&#45;&gt;Node3 -->
<g id="edge4" class="edge">
<title>Node4&#45;&gt;Node3</title>
<path fill="none" stroke="midnightblue" d="M197.38,-47.57C191.18,-38.27 183.83,-27.25 178.83,-19.75"/>
<polygon fill="midnightblue" stroke="midnightblue" points="194.6,-49.7 203.06,-56.08 200.42,-45.82 194.6,-49.7"/>
</g>
<!-- Node5&#45;&gt;Node3 -->
<g id="edge6" class="edge">
<title>Node5&#45;&gt;Node3</title>
<path fill="none" stroke="midnightblue" d="M281.3,-52.77C255,-42.63 218.28,-28.47 195.08,-19.52"/>
<polygon fill="midnightblue" stroke="midnightblue" points="280.23,-56.11 290.82,-56.44 282.75,-49.58 280.23,-56.11"/>
</g>
</g>
</svg>
