<?xml version="1.0" encoding="UTF-8" standalone="no"?>
<!DOCTYPE svg PUBLIC "-//W3C//DTD SVG 1.1//EN"
 "http://www.w3.org/Graphics/SVG/1.1/DTD/svg11.dtd">
<!-- Generated by graphviz version 3.0.0 (20221109.1736)
 -->
<!-- Title: algebra/state.hpp Pages: 1 -->
<svg width="2140pt" height="476pt"
 viewBox="0.00 0.00 2140.00 476.00" xmlns="http://www.w3.org/2000/svg" xmlns:xlink="http://www.w3.org/1999/xlink">
<g id="graph0" class="graph" transform="scale(1 1) rotate(0) translate(4 472)">
<title>algebra/state.hpp</title>
<!-- Node1 -->
<g id="node1" class="node">
<title>Node1</title>
<g id="a_node1"><a xlink:title="ALGEBRA::State source file.">
<polygon fill="#bfbfbf" stroke="black" points="153.5,-448.5 153.5,-467.5 244.5,-467.5 244.5,-448.5 153.5,-448.5"/>
<text text-anchor="middle" x="199" y="-455.5" font-family="Helvetica,sans-Serif" font-size="10.00">algebra/state.hpp</text>
</a>
</g>
</g>
<!-- Node2 -->
<g id="node2" class="node">
<title>Node2</title>
<g id="a_node2"><a xlink:href="integrator_8hpp.html" target="_top" xlink:title="ALGEBRA::Integrator source file.">
<polygon fill="none" stroke="black" points="28,-280.5 28,-299.5 138,-299.5 138,-280.5 28,-280.5"/>
<text text-anchor="middle" x="83" y="-287.5" font-family="Helvetica,sans-Serif" font-size="10.00">algebra/integrator.hpp</text>
</a>
</g>
</g>
<!-- Node1&#45;&gt;Node2 -->
<g id="edge1" class="edge">
<title>Node1&#45;&gt;Node2</title>
<path fill="none" stroke="midnightblue" d="M186.95,-439.76C162.38,-404.59 107.23,-325.68 88.99,-299.57"/>
<polygon fill="midnightblue" stroke="midnightblue" points="184.17,-441.88 192.76,-448.08 189.9,-437.87 184.17,-441.88"/>
</g>
<!-- Node3 -->
<g id="node3" class="node">
<title>Node3</title>
<g id="a_node3"><a xlink:href="main_8hpp.html" target="_top" xlink:title="Main page documentation.">
<polygon fill="none" stroke="black" points="171,-56.5 171,-75.5 227,-75.5 227,-56.5 171,-56.5"/>
<text text-anchor="middle" x="199" y="-63.5" font-family="Helvetica,sans-Serif" font-size="10.00">main.hpp</text>
</a>
</g>
</g>
<!-- Node1&#45;&gt;Node3 -->
<g id="edge7" class="edge">
<title>Node1&#45;&gt;Node3</title>
<path fill="none" stroke="midnightblue" d="M143.41,-450.23C84.53,-439.6 0,-412.86 0,-347 0,-347 0,-347 0,-177 0,-99.83 116.06,-76.37 170.91,-69.6"/>
<polygon fill="midnightblue" stroke="midnightblue" points="142.9,-453.7 153.35,-451.92 144.07,-446.8 142.9,-453.7"/>
</g>
<!-- Node6 -->
<g id="node6" class="node">
<title>Node6</title>
<g id="a_node6"><a xlink:href="csvwriter_8hpp.html" target="_top" xlink:title="IO::write_csv source file.">
<polygon fill="none" stroke="black" points="156.5,-280.5 156.5,-299.5 241.5,-299.5 241.5,-280.5 156.5,-280.5"/>
<text text-anchor="middle" x="199" y="-287.5" font-family="Helvetica,sans-Serif" font-size="10.00">io/csvwriter.hpp</text>
</a>
</g>
</g>
<!-- Node1&#45;&gt;Node6 -->
<g id="edge5" class="edge">
<title>Node1&#45;&gt;Node6</title>
<path fill="none" stroke="midnightblue" d="M199,-437.93C199,-401.92 199,-325.23 199,-299.57"/>
<polygon fill="midnightblue" stroke="midnightblue" points="195.5,-438.08 199,-448.08 202.5,-438.08 195.5,-438.08"/>
</g>
<!-- Node7 -->
<g id="node7" class="node">
<title>Node7</title>
<g id="a_node7"><a xlink:href="block_8hpp.html" target="_top" xlink:title="MODEL::Block source file.">
<polygon fill="none" stroke="black" points="1105.5,-392.5 1105.5,-411.5 1192.5,-411.5 1192.5,-392.5 1105.5,-392.5"/>
<text text-anchor="middle" x="1149" y="-399.5" font-family="Helvetica,sans-Serif" font-size="10.00">model/block.hpp</text>
</a>
</g>
</g>
<!-- Node1&#45;&gt;Node7 -->
<g id="edge8" class="edge">
<title>Node1&#45;&gt;Node7</title>
<path fill="none" stroke="midnightblue" d="M254.62,-453.84C427.03,-444.04 950.18,-414.3 1105.24,-405.49"/>
<polygon fill="midnightblue" stroke="midnightblue" points="254.29,-450.35 244.5,-454.41 254.68,-457.34 254.29,-450.35"/>
</g>
<!-- Node13 -->
<g id="node13" class="node">
<title>Node13</title>
<g id="a_node13"><a xlink:href="closedloopheartpulmonary_8hpp.html" target="_top" xlink:title="MODEL::ClosedLoopHeartPulmonary source file.">
<polygon fill="none" stroke="black" points="1956,-224.5 1956,-243.5 2132,-243.5 2132,-224.5 1956,-224.5"/>
<text text-anchor="middle" x="2044" y="-231.5" font-family="Helvetica,sans-Serif" font-size="10.00">model/closedloopheartpulmonary.hpp</text>
</a>
</g>
</g>
<!-- Node1&#45;&gt;Node13 -->
<g id="edge56" class="edge">
<title>Node1&#45;&gt;Node13</title>
<path fill="none" stroke="midnightblue" d="M254.76,-456.36C538.17,-452.77 1811.69,-432.47 1969,-356 2015.23,-333.52 2035.85,-267.69 2041.95,-243.8"/>
<polygon fill="midnightblue" stroke="midnightblue" points="254.67,-452.86 244.71,-456.49 254.75,-459.86 254.67,-452.86"/>
</g>
<!-- Node2&#45;&gt;Node3 -->
<g id="edge2" class="edge">
<title>Node2&#45;&gt;Node3</title>
<path fill="none" stroke="midnightblue" d="M92.32,-271.16C115.86,-226.12 177.02,-109.06 194.36,-75.88"/>
<polygon fill="midnightblue" stroke="midnightblue" points="89.08,-269.81 87.55,-280.3 95.28,-273.06 89.08,-269.81"/>
</g>
<!-- Node4 -->
<g id="node4" class="node">
<title>Node4</title>
<g id="a_node4"><a xlink:href="main_8cpp.html" target="_top" xlink:title="Main routine of svZeroDSolver.">
<polygon fill="none" stroke="black" points="132,-0.5 132,-19.5 188,-19.5 188,-0.5 132,-0.5"/>
<text text-anchor="middle" x="160" y="-7.5" font-family="Helvetica,sans-Serif" font-size="10.00">main.cpp</text>
</a>
</g>
</g>
<!-- Node3&#45;&gt;Node4 -->
<g id="edge3" class="edge">
<title>Node3&#45;&gt;Node4</title>
<path fill="none" stroke="midnightblue" d="M186.62,-47.86C179.86,-38.5 171.79,-27.33 166.32,-19.75"/>
<polygon fill="midnightblue" stroke="midnightblue" points="183.87,-50.03 192.56,-56.08 189.54,-45.93 183.87,-50.03"/>
</g>
<!-- Node5 -->
<g id="node5" class="node">
<title>Node5</title>
<g id="a_node5"><a xlink:href="python_8cpp.html" target="_top" xlink:title="Python binding for svZeroDSolver.">
<polygon fill="none" stroke="black" points="206.5,-0.5 206.5,-19.5 269.5,-19.5 269.5,-0.5 206.5,-0.5"/>
<text text-anchor="middle" x="238" y="-7.5" font-family="Helvetica,sans-Serif" font-size="10.00">python.cpp</text>
</a>
</g>
</g>
<!-- Node3&#45;&gt;Node5 -->
<g id="edge4" class="edge">
<title>Node3&#45;&gt;Node5</title>
<path fill="none" stroke="midnightblue" d="M211.38,-47.86C218.14,-38.5 226.21,-27.33 231.68,-19.75"/>
<polygon fill="midnightblue" stroke="midnightblue" points="208.46,-45.93 205.44,-56.08 214.13,-50.03 208.46,-45.93"/>
</g>
<!-- Node6&#45;&gt;Node3 -->
<g id="edge6" class="edge">
<title>Node6&#45;&gt;Node3</title>
<path fill="none" stroke="midnightblue" d="M199,-270.3C199,-224.64 199,-108.85 199,-75.88"/>
<polygon fill="midnightblue" stroke="midnightblue" points="195.5,-270.3 199,-280.3 202.5,-270.3 195.5,-270.3"/>
</g>
<!-- Node8 -->
<g id="node8" class="node">
<title>Node8</title>
<g id="a_node8"><a xlink:href="configreader_8hpp.html" target="_top" xlink:title="IO::ConfigReader source file.">
<polygon fill="none" stroke="black" points="1065,-112.5 1065,-131.5 1163,-131.5 1163,-112.5 1065,-112.5"/>
<text text-anchor="middle" x="1114" y="-119.5" font-family="Helvetica,sans-Serif" font-size="10.00">io/configreader.hpp</text>
</a>
</g>
</g>
<!-- Node7&#45;&gt;Node8 -->
<g id="edge9" class="edge">
<title>Node7&#45;&gt;Node8</title>
<path fill="none" stroke="midnightblue" d="M1202.62,-399.09C1378.71,-392.09 1928,-364.4 1928,-291 1928,-291 1928,-291 1928,-233 1928,-155.37 1339.07,-130.22 1163.09,-124.43"/>
<polygon fill="midnightblue" stroke="midnightblue" points="1202.41,-395.59 1192.55,-399.48 1202.68,-402.59 1202.41,-395.59"/>
</g>
<!-- Node9 -->
<g id="node9" class="node">
<title>Node9</title>
<g id="a_node9"><a xlink:href="bloodvessel_8hpp.html" target="_top" xlink:title="MODEL::BloodVessel source file.">
<polygon fill="none" stroke="black" points="1260,-224.5 1260,-243.5 1376,-243.5 1376,-224.5 1260,-224.5"/>
<text text-anchor="middle" x="1318" y="-231.5" font-family="Helvetica,sans-Serif" font-size="10.00">model/bloodvessel.hpp</text>
</a>
</g>
</g>
<!-- Node7&#45;&gt;Node9 -->
<g id="edge11" class="edge">
<title>Node7&#45;&gt;Node9</title>
<path fill="none" stroke="midnightblue" d="M1165.64,-384.65C1200.98,-349.94 1282.47,-269.9 1309.28,-243.57"/>
<polygon fill="midnightblue" stroke="midnightblue" points="1162.77,-382.57 1158.09,-392.08 1167.67,-387.56 1162.77,-382.57"/>
</g>
<!-- Node10 -->
<g id="node10" class="node">
<title>Node10</title>
<g id="a_node10"><a xlink:href="bloodvesseljunction_8hpp.html" target="_top" xlink:title="MODEL::BloodVesselJunction source file.">
<polygon fill="none" stroke="black" points="1141.5,-168.5 1141.5,-187.5 1290.5,-187.5 1290.5,-168.5 1141.5,-168.5"/>
<text text-anchor="middle" x="1216" y="-175.5" font-family="Helvetica,sans-Serif" font-size="10.00">model/bloodvesseljunction.hpp</text>
</a>
</g>
</g>
<!-- Node7&#45;&gt;Node10 -->
<g id="edge15" class="edge">
<title>Node7&#45;&gt;Node10</title>
<path fill="none" stroke="midnightblue" d="M1202.75,-397.89C1291.69,-389.51 1467.36,-358.53 1545,-244 1549.99,-236.64 1550.84,-230.7 1545,-224 1528.51,-205.1 1382.45,-191.11 1290.57,-184.08"/>
<polygon fill="midnightblue" stroke="midnightblue" points="1202.26,-394.42 1192.61,-398.79 1202.88,-401.39 1202.26,-394.42"/>
</g>
<!-- Node11 -->
<g id="node11" class="node">
<title>Node11</title>
<g id="a_node11"><a xlink:href="closedloop_r_c_rbc_8hpp.html" target="_top" xlink:title="MODEL::ClosedLoopRCRBC source file.">
<polygon fill="none" stroke="black" points="1394.5,-224.5 1394.5,-243.5 1535.5,-243.5 1535.5,-224.5 1394.5,-224.5"/>
<text text-anchor="middle" x="1465" y="-231.5" font-family="Helvetica,sans-Serif" font-size="10.00">model/closedloopRCRbc.hpp</text>
</a>
</g>
</g>
<!-- Node7&#45;&gt;Node11 -->
<g id="edge16" class="edge">
<title>Node7&#45;&gt;Node11</title>
<path fill="none" stroke="midnightblue" d="M1174.76,-387.47C1237.52,-354.5 1397.01,-270.71 1448.62,-243.61"/>
<polygon fill="midnightblue" stroke="midnightblue" points="1172.77,-384.56 1165.54,-392.31 1176.03,-390.76 1172.77,-384.56"/>
</g>
<!-- Node12 -->
<g id="node12" class="node">
<title>Node12</title>
<g id="a_node12"><a xlink:href="closedloopcoronarybc_8hpp.html" target="_top" xlink:title="MODEL::ClosedLoopCoronaryBC source file.">
<polygon fill="none" stroke="black" points="1592,-224.5 1592,-243.5 1750,-243.5 1750,-224.5 1592,-224.5"/>
<text text-anchor="middle" x="1671" y="-231.5" font-family="Helvetica,sans-Serif" font-size="10.00">model/closedloopcoronarybc.hpp</text>
</a>
</g>
</g>
<!-- Node7&#45;&gt;Node12 -->
<g id="edge18" class="edge">
<title>Node7&#45;&gt;Node12</title>
<path fill="none" stroke="midnightblue" d="M1202.82,-400.57C1303.29,-398.93 1514.96,-391.27 1578,-356 1625.87,-329.23 1657.13,-266.64 1667.34,-243.66"/>
<polygon fill="midnightblue" stroke="midnightblue" points="1202.53,-397.08 1192.58,-400.73 1202.63,-404.08 1202.53,-397.08"/>
</g>
<!-- Node7&#45;&gt;Node13 -->
<g id="edge20" class="edge">
<title>Node7&#45;&gt;Node13</title>
<path fill="none" stroke="midnightblue" d="M1202.66,-400.4C1370.19,-398.2 1876.27,-388.86 1942,-356 1992.87,-330.57 2028.16,-267.15 2039.81,-243.81"/>
<polygon fill="midnightblue" stroke="midnightblue" points="1202.55,-396.9 1192.59,-400.53 1202.64,-403.9 1202.55,-396.9"/>
</g>
<!-- Node14 -->
<g id="node14" class="node">
<title>Node14</title>
<g id="a_node14"><a xlink:href="flowreferencebc_8hpp.html" target="_top" xlink:title="MODEL::FlowReferenceBC source file.">
<polygon fill="none" stroke="black" points="1768,-224.5 1768,-243.5 1900,-243.5 1900,-224.5 1768,-224.5"/>
<text text-anchor="middle" x="1834" y="-231.5" font-family="Helvetica,sans-Serif" font-size="10.00">model/flowreferencebc.hpp</text>
</a>
</g>
</g>
<!-- Node7&#45;&gt;Node14 -->
<g id="edge22" class="edge">
<title>Node7&#45;&gt;Node14</title>
<path fill="none" stroke="midnightblue" d="M1203.02,-398.26C1306.79,-392.57 1530.22,-378.13 1604,-356 1693.46,-329.16 1788.63,-266.61 1821.78,-243.65"/>
<polygon fill="midnightblue" stroke="midnightblue" points="1202.56,-394.78 1192.77,-398.82 1202.94,-401.77 1202.56,-394.78"/>
</g>
<!-- Node15 -->
<g id="node15" class="node">
<title>Node15</title>
<g id="a_node15"><a xlink:href="junction_8hpp.html" target="_top" xlink:title="MODEL::Junction source file.">
<polygon fill="none" stroke="black" points="336,-224.5 336,-243.5 434,-243.5 434,-224.5 336,-224.5"/>
<text text-anchor="middle" x="385" y="-231.5" font-family="Helvetica,sans-Serif" font-size="10.00">model/junction.hpp</text>
</a>
</g>
</g>
<!-- Node7&#45;&gt;Node15 -->
<g id="edge24" class="edge">
<title>Node7&#45;&gt;Node15</title>
<path fill="none" stroke="midnightblue" d="M1095.29,-393.81C1038.55,-385.89 946.6,-372.11 868,-356 695.24,-320.6 491.11,-264.78 415.31,-243.57"/>
<polygon fill="midnightblue" stroke="midnightblue" points="1095.08,-397.31 1105.46,-395.22 1096.04,-390.38 1095.08,-397.31"/>
</g>
<!-- Node16 -->
<g id="node16" class="node">
<title>Node16</title>
<g id="a_node16"><a xlink:href="model_8hpp.html" target="_top" xlink:title="MODEL::Model source file.">
<polygon fill="none" stroke="black" points="263,-336.5 263,-355.5 353,-355.5 353,-336.5 263,-336.5"/>
<text text-anchor="middle" x="308" y="-343.5" font-family="Helvetica,sans-Serif" font-size="10.00">model/model.hpp</text>
</a>
</g>
</g>
<!-- Node7&#45;&gt;Node16 -->
<g id="edge26" class="edge">
<title>Node7&#45;&gt;Node16</title>
<path fill="none" stroke="midnightblue" d="M1095.05,-397.54C940.23,-387.6 496.42,-359.1 353.17,-349.9"/>
<polygon fill="midnightblue" stroke="midnightblue" points="1095.06,-401.04 1105.26,-398.19 1095.51,-394.06 1095.06,-401.04"/>
</g>
<!-- Node18 -->
<g id="node18" class="node">
<title>Node18</title>
<g id="a_node18"><a xlink:href="openloopcoronarybc_8hpp.html" target="_top" xlink:title="MODEL::OpenLoopCoronaryBC source file.">
<polygon fill="none" stroke="black" points="452,-224.5 452,-243.5 602,-243.5 602,-224.5 452,-224.5"/>
<text text-anchor="middle" x="527" y="-231.5" font-family="Helvetica,sans-Serif" font-size="10.00">model/openloopcoronarybc.hpp</text>
</a>
</g>
</g>
<!-- Node7&#45;&gt;Node18 -->
<g id="edge51" class="edge">
<title>Node7&#45;&gt;Node18</title>
<path fill="none" stroke="midnightblue" d="M1097.03,-390.42C1055.89,-381.82 997.06,-369.02 946,-356 797.06,-318.03 620.86,-264.19 554.29,-243.53"/>
<polygon fill="midnightblue" stroke="midnightblue" points="1096.32,-393.85 1106.83,-392.46 1097.75,-387 1096.32,-393.85"/>
</g>
<!-- Node19 -->
<g id="node19" class="node">
<title>Node19</title>
<g id="a_node19"><a xlink:href="pressurereferencebc_8hpp.html" target="_top" xlink:title="MODEL::PressureReferenceBC source file.">
<polygon fill="none" stroke="black" points="620,-224.5 620,-243.5 772,-243.5 772,-224.5 620,-224.5"/>
<text text-anchor="middle" x="696" y="-231.5" font-family="Helvetica,sans-Serif" font-size="10.00">model/pressurereferencebc.hpp</text>
</a>
</g>
</g>
<!-- Node7&#45;&gt;Node19 -->
<g id="edge52" class="edge">
<title>Node7&#45;&gt;Node19</title>
<path fill="none" stroke="midnightblue" d="M1109.5,-389.59C1080.2,-380.93 1039.37,-368.42 1004,-356 894.23,-317.46 765.4,-264.18 716.35,-243.6"/>
<polygon fill="midnightblue" stroke="midnightblue" points="1108.77,-393.03 1119.35,-392.49 1110.75,-386.31 1108.77,-393.03"/>
</g>
<!-- Node20 -->
<g id="node20" class="node">
<title>Node20</title>
<g id="a_node20"><a xlink:href="resistancebc_8hpp.html" target="_top" xlink:title="MODEL::ResistanceBC source file.">
<polygon fill="none" stroke="black" points="790.5,-224.5 790.5,-243.5 909.5,-243.5 909.5,-224.5 790.5,-224.5"/>
<text text-anchor="middle" x="850" y="-231.5" font-family="Helvetica,sans-Serif" font-size="10.00">model/resistancebc.hpp</text>
</a>
</g>
</g>
<!-- Node7&#45;&gt;Node20 -->
<g id="edge53" class="edge">
<title>Node7&#45;&gt;Node20</title>
<path fill="none" stroke="midnightblue" d="M1116.23,-388.65C1094.96,-380.25 1066.87,-368.45 1043,-356 971.82,-318.88 892.17,-264.54 862.24,-243.64"/>
<polygon fill="midnightblue" stroke="midnightblue" points="1115.18,-392 1125.77,-392.37 1117.73,-385.47 1115.18,-392"/>
</g>
<!-- Node21 -->
<g id="node21" class="node">
<title>Node21</title>
<g id="a_node21"><a xlink:href="resistivejunction_8hpp.html" target="_top" xlink:title="MODEL::ResistiveJunction source file.">
<polygon fill="none" stroke="black" points="928,-224.5 928,-243.5 1062,-243.5 1062,-224.5 928,-224.5"/>
<text text-anchor="middle" x="995" y="-231.5" font-family="Helvetica,sans-Serif" font-size="10.00">model/resistivejunction.hpp</text>
</a>
</g>
</g>
<!-- Node7&#45;&gt;Node21 -->
<g id="edge54" class="edge">
<title>Node7&#45;&gt;Node21</title>
<path fill="none" stroke="midnightblue" d="M1121.86,-387.62C1091.21,-371.15 1041.97,-340.32 1014,-300 1001.8,-282.42 997.35,-256.98 995.79,-243.75"/>
<polygon fill="midnightblue" stroke="midnightblue" points="1120.25,-390.73 1130.73,-392.27 1123.49,-384.53 1120.25,-390.73"/>
</g>
<!-- Node22 -->
<g id="node22" class="node">
<title>Node22</title>
<g id="a_node22"><a xlink:href="windkesselbc_8hpp.html" target="_top" xlink:title="MODEL::WindkesselBC source file.">
<polygon fill="none" stroke="black" points="1118.5,-224.5 1118.5,-243.5 1241.5,-243.5 1241.5,-224.5 1118.5,-224.5"/>
<text text-anchor="middle" x="1180" y="-231.5" font-family="Helvetica,sans-Serif" font-size="10.00">model/windkesselbc.hpp</text>
</a>
</g>
</g>
<!-- Node7&#45;&gt;Node22 -->
<g id="edge55" class="edge">
<title>Node7&#45;&gt;Node22</title>
<path fill="none" stroke="midnightblue" d="M1152.56,-381.93C1159.29,-345.92 1173.61,-269.23 1178.4,-243.57"/>
<polygon fill="midnightblue" stroke="midnightblue" points="1149.06,-381.6 1150.67,-392.08 1155.94,-382.89 1149.06,-381.6"/>
</g>
<!-- Node8&#45;&gt;Node3 -->
<g id="edge10" class="edge">
<title>Node8&#45;&gt;Node3</title>
<path fill="none" stroke="midnightblue" d="M1054.61,-117.49C876.97,-107.01 354.21,-76.16 227.1,-68.66"/>
<polygon fill="midnightblue" stroke="midnightblue" points="1054.62,-121 1064.81,-118.1 1055.03,-114.01 1054.62,-121"/>
</g>
<!-- Node9&#45;&gt;Node8 -->
<g id="edge12" class="edge">
<title>Node9&#45;&gt;Node8</title>
<path fill="none" stroke="midnightblue" d="M1317.71,-214.12C1316.46,-199.56 1312.35,-179.95 1300,-168 1280.72,-149.34 1211.74,-136.32 1163.44,-129.24"/>
<polygon fill="midnightblue" stroke="midnightblue" points="1314.23,-214.66 1318.21,-224.48 1321.22,-214.32 1314.23,-214.66"/>
</g>
<!-- Node9&#45;&gt;Node10 -->
<g id="edge13" class="edge">
<title>Node9&#45;&gt;Node10</title>
<path fill="none" stroke="midnightblue" d="M1292.67,-219.59C1273.81,-209.61 1248.62,-196.27 1232.35,-187.65"/>
<polygon fill="midnightblue" stroke="midnightblue" points="1291.14,-222.74 1301.61,-224.32 1294.41,-216.55 1291.14,-222.74"/>
</g>
<!-- Node10&#45;&gt;Node8 -->
<g id="edge14" class="edge">
<title>Node10&#45;&gt;Node8</title>
<path fill="none" stroke="midnightblue" d="M1190.67,-163.59C1171.81,-153.61 1146.62,-140.27 1130.35,-131.65"/>
<polygon fill="midnightblue" stroke="midnightblue" points="1189.14,-166.74 1199.61,-168.32 1192.41,-160.55 1189.14,-166.74"/>
</g>
<!-- Node11&#45;&gt;Node8 -->
<g id="edge17" class="edge">
<title>Node11&#45;&gt;Node8</title>
<path fill="none" stroke="midnightblue" d="M1439.7,-219.73C1411.25,-205.26 1363.36,-182.28 1320,-168 1267.5,-150.7 1205.26,-138.16 1163.04,-130.77"/>
<polygon fill="midnightblue" stroke="midnightblue" points="1438.42,-223 1448.91,-224.46 1441.62,-216.78 1438.42,-223"/>
</g>
<!-- Node12&#45;&gt;Node8 -->
<g id="edge19" class="edge">
<title>Node12&#45;&gt;Node8</title>
<path fill="none" stroke="midnightblue" d="M1621.18,-222.29C1559.48,-209.12 1451.12,-186.25 1358,-168 1290.15,-154.7 1211.47,-140.39 1162.21,-131.56"/>
<polygon fill="midnightblue" stroke="midnightblue" points="1620.53,-225.73 1631.04,-224.4 1621.99,-218.89 1620.53,-225.73"/>
</g>
<!-- Node13&#45;&gt;Node8 -->
<g id="edge21" class="edge">
<title>Node13&#45;&gt;Node8</title>
<path fill="none" stroke="midnightblue" d="M2026.62,-217.9C2007.39,-202.22 1974.77,-178.53 1942,-168 1795.77,-121.02 1318.08,-121.09 1163.06,-122.42"/>
<polygon fill="midnightblue" stroke="midnightblue" points="2024.55,-220.73 2034.46,-224.47 2029.04,-215.37 2024.55,-220.73"/>
</g>
<!-- Node14&#45;&gt;Node8 -->
<g id="edge23" class="edge">
<title>Node14&#45;&gt;Node8</title>
<path fill="none" stroke="midnightblue" d="M1770.55,-222.88C1689.16,-209.95 1543.63,-186.95 1419,-168 1328.78,-154.28 1223.44,-138.87 1163.15,-130.11"/>
<polygon fill="midnightblue" stroke="midnightblue" points="1770.21,-226.37 1780.63,-224.49 1771.31,-219.46 1770.21,-226.37"/>
</g>
<!-- Node15&#45;&gt;Node8 -->
<g id="edge25" class="edge">
<title>Node15&#45;&gt;Node8</title>
<path fill="none" stroke="midnightblue" d="M439.95,-222.63C512.75,-209.09 645.25,-185.09 759,-168 867.9,-151.64 996.18,-136.36 1064.8,-128.51"/>
<polygon fill="midnightblue" stroke="midnightblue" points="439.27,-219.2 430.08,-224.47 440.56,-226.08 439.27,-219.2"/>
</g>
<!-- Node16&#45;&gt;Node2 -->
<g id="edge27" class="edge">
<title>Node16&#45;&gt;Node2</title>
<path fill="none" stroke="midnightblue" d="M262.53,-334.09C220.03,-323.89 157.42,-308.86 118.49,-299.52"/>
<polygon fill="midnightblue" stroke="midnightblue" points="261.81,-337.51 272.35,-336.44 263.44,-330.71 261.81,-337.51"/>
</g>
<!-- Node16&#45;&gt;Node3 -->
<g id="edge50" class="edge">
<title>Node16&#45;&gt;Node3</title>
<path fill="none" stroke="midnightblue" d="M297.86,-327.43C286.6,-306.24 270,-269.19 270,-235 270,-235 270,-235 270,-177 270,-133.13 229.65,-92.89 209.78,-75.74"/>
<polygon fill="midnightblue" stroke="midnightblue" points="294.82,-329.17 302.72,-336.23 300.95,-325.78 294.82,-329.17"/>
</g>
<!-- Node16&#45;&gt;Node6 -->
<g id="edge49" class="edge">
<title>Node16&#45;&gt;Node6</title>
<path fill="none" stroke="midnightblue" d="M281.48,-331.86C261.27,-321.85 234.01,-308.35 216.47,-299.65"/>
<polygon fill="midnightblue" stroke="midnightblue" points="279.97,-335.02 290.49,-336.32 283.08,-328.75 279.97,-335.02"/>
</g>
<!-- Node16&#45;&gt;Node8 -->
<g id="edge48" class="edge">
<title>Node16&#45;&gt;Node8</title>
<path fill="none" stroke="midnightblue" d="M304.93,-326.31C301.74,-299.76 300.38,-251.32 327,-224 378.77,-170.88 900.47,-135.65 1064.74,-125.81"/>
<polygon fill="midnightblue" stroke="midnightblue" points="301.47,-326.81 306.34,-336.22 308.4,-325.83 301.47,-326.81"/>
</g>
<!-- Node17 -->
<g id="node17" class="node">
<title>Node17</title>
<g id="a_node17"><a xlink:href="sparsesystem_8hpp.html" target="_top" xlink:title="ALGEBRA::SparseSystem source file.">
<polygon fill="none" stroke="black" points="1023,-280.5 1023,-299.5 1153,-299.5 1153,-280.5 1023,-280.5"/>
<text text-anchor="middle" x="1088" y="-287.5" font-family="Helvetica,sans-Serif" font-size="10.00">algebra/sparsesystem.hpp</text>
</a>
</g>
</g>
<!-- Node16&#45;&gt;Node17 -->
<g id="edge28" class="edge">
<title>Node16&#45;&gt;Node17</title>
<path fill="none" stroke="midnightblue" d="M363.11,-340.92C503.28,-330.95 872.57,-305.38 1022.96,-295.24"/>
<polygon fill="midnightblue" stroke="midnightblue" points="362.75,-337.44 353.02,-341.64 363.24,-344.42 362.75,-337.44"/>
</g>
<!-- Node17&#45;&gt;Node7 -->
<g id="edge29" class="edge">
<title>Node17&#45;&gt;Node7</title>
<path fill="none" stroke="midnightblue" d="M1097.77,-308.63C1111.04,-332.55 1134.24,-374.38 1144.21,-392.37"/>
<polygon fill="midnightblue" stroke="midnightblue" points="1100.67,-306.64 1092.76,-299.59 1094.55,-310.03 1100.67,-306.64"/>
</g>
<!-- Node17&#45;&gt;Node9 -->
<g id="edge30" class="edge">
<title>Node17&#45;&gt;Node9</title>
<path fill="none" stroke="midnightblue" d="M1134.2,-278.15C1177.66,-267.95 1241.84,-252.88 1281.73,-243.52"/>
<polygon fill="midnightblue" stroke="midnightblue" points="1133.38,-274.75 1124.44,-280.44 1134.98,-281.57 1133.38,-274.75"/>
</g>
<!-- Node17&#45;&gt;Node10 -->
<g id="edge31" class="edge">
<title>Node17&#45;&gt;Node10</title>
<path fill="none" stroke="midnightblue" d="M1089.85,-270.14C1092.17,-255.89 1097.36,-236.68 1109,-224 1126.17,-205.29 1152.36,-194.1 1174.53,-187.56"/>
<polygon fill="midnightblue" stroke="midnightblue" points="1086.35,-269.92 1088.55,-280.28 1093.3,-270.81 1086.35,-269.92"/>
</g>
<!-- Node17&#45;&gt;Node11 -->
<g id="edge32" class="edge">
<title>Node17&#45;&gt;Node11</title>
<path fill="none" stroke="midnightblue" d="M1157.96,-278.98C1229.17,-268.78 1338.38,-253.14 1405.54,-243.52"/>
<polygon fill="midnightblue" stroke="midnightblue" points="1157.14,-275.56 1147.74,-280.44 1158.13,-282.49 1157.14,-275.56"/>
</g>
<!-- Node17&#45;&gt;Node12 -->
<g id="edge33" class="edge">
<title>Node17&#45;&gt;Node12</title>
<path fill="none" stroke="midnightblue" d="M1163.25,-282.03C1273.8,-271.79 1479.17,-252.77 1591.89,-242.33"/>
<polygon fill="midnightblue" stroke="midnightblue" points="1162.82,-278.56 1153.18,-282.96 1163.46,-285.53 1162.82,-278.56"/>
</g>
<!-- Node17&#45;&gt;Node13 -->
<g id="edge34" class="edge">
<title>Node17&#45;&gt;Node13</title>
<path fill="none" stroke="midnightblue" d="M1163.29,-285.17C1307.86,-277.75 1634.36,-260.68 1909,-244 1924.12,-243.08 1940.2,-242.05 1955.78,-241.03"/>
<polygon fill="midnightblue" stroke="midnightblue" points="1163.01,-281.68 1153.2,-285.69 1163.37,-288.67 1163.01,-281.68"/>
</g>
<!-- Node17&#45;&gt;Node14 -->
<g id="edge35" class="edge">
<title>Node17&#45;&gt;Node14</title>
<path fill="none" stroke="midnightblue" d="M1163.51,-285.23C1287.82,-278.73 1543.32,-264.16 1759,-244 1761.87,-243.73 1764.81,-243.44 1767.77,-243.14"/>
<polygon fill="midnightblue" stroke="midnightblue" points="1163.14,-281.74 1153.34,-285.76 1163.5,-288.74 1163.14,-281.74"/>
</g>
<!-- Node17&#45;&gt;Node15 -->
<g id="edge36" class="edge">
<title>Node17&#45;&gt;Node15</title>
<path fill="none" stroke="midnightblue" d="M1012.61,-285.8C892.02,-280.23 648.4,-267.06 443,-244 440.06,-243.67 437.05,-243.3 434.01,-242.9"/>
<polygon fill="midnightblue" stroke="midnightblue" points="1012.68,-289.31 1022.83,-286.27 1013,-282.32 1012.68,-289.31"/>
</g>
<!-- Node17&#45;&gt;Node16 -->
<g id="edge37" class="edge">
<title>Node17&#45;&gt;Node16</title>
<path fill="none" stroke="midnightblue" d="M1012.74,-296.51C852.53,-307.85 482.18,-333.46 353.2,-342.1"/>
<polygon fill="midnightblue" stroke="midnightblue" points="1013.25,-299.98 1022.98,-295.78 1012.76,-293 1013.25,-299.98"/>
</g>
<!-- Node17&#45;&gt;Node18 -->
<g id="edge38" class="edge">
<title>Node17&#45;&gt;Node18</title>
<path fill="none" stroke="midnightblue" d="M1012.79,-282.2C918.78,-273.64 752.94,-258.3 611,-244 608.08,-243.71 605.11,-243.4 602.1,-243.09"/>
<polygon fill="midnightblue" stroke="midnightblue" points="1012.5,-285.69 1022.78,-283.11 1013.14,-278.72 1012.5,-285.69"/>
</g>
<!-- Node17&#45;&gt;Node19 -->
<g id="edge40" class="edge">
<title>Node17&#45;&gt;Node19</title>
<path fill="none" stroke="midnightblue" d="M1015.71,-279.04C941.68,-268.84 827.81,-253.16 757.82,-243.52"/>
<polygon fill="midnightblue" stroke="midnightblue" points="1015.5,-282.55 1025.89,-280.44 1016.46,-275.61 1015.5,-282.55"/>
</g>
<!-- Node17&#45;&gt;Node20 -->
<g id="edge42" class="edge">
<title>Node17&#45;&gt;Node20</title>
<path fill="none" stroke="midnightblue" d="M1040.48,-278.22C995.5,-268.01 928.9,-252.9 887.54,-243.52"/>
<polygon fill="midnightblue" stroke="midnightblue" points="1039.76,-281.64 1050.29,-280.44 1041.31,-274.82 1039.76,-281.64"/>
</g>
<!-- Node17&#45;&gt;Node21 -->
<g id="edge44" class="edge">
<title>Node17&#45;&gt;Node21</title>
<path fill="none" stroke="midnightblue" d="M1064.19,-275.18C1047.08,-265.24 1024.53,-252.15 1009.9,-243.65"/>
<polygon fill="midnightblue" stroke="midnightblue" points="1062.65,-278.33 1073.06,-280.32 1066.17,-272.28 1062.65,-278.33"/>
</g>
<!-- Node17&#45;&gt;Node22 -->
<g id="edge46" class="edge">
<title>Node17&#45;&gt;Node22</title>
<path fill="none" stroke="midnightblue" d="M1111.55,-275.18C1128.48,-265.24 1150.78,-252.15 1165.26,-243.65"/>
<polygon fill="midnightblue" stroke="midnightblue" points="1109.63,-272.24 1102.78,-280.32 1113.18,-278.28 1109.63,-272.24"/>
</g>
<!-- Node18&#45;&gt;Node8 -->
<g id="edge39" class="edge">
<title>Node18&#45;&gt;Node8</title>
<path fill="none" stroke="midnightblue" d="M580.55,-222.46C646.99,-209.43 763.78,-186.68 864,-168 934.02,-154.95 1015.19,-140.45 1065.57,-131.53"/>
<polygon fill="midnightblue" stroke="midnightblue" points="579.46,-219.1 570.32,-224.46 580.81,-225.97 579.46,-219.1"/>
</g>
<!-- Node19&#45;&gt;Node8 -->
<g id="edge41" class="edge">
<title>Node19&#45;&gt;Node8</title>
<path fill="none" stroke="midnightblue" d="M738.38,-221.85C822.03,-199.84 1006.74,-151.23 1081.57,-131.53"/>
<polygon fill="midnightblue" stroke="midnightblue" points="737.23,-218.53 728.45,-224.46 739.01,-225.3 737.23,-218.53"/>
</g>
<!-- Node20&#45;&gt;Node8 -->
<g id="edge43" class="edge">
<title>Node20&#45;&gt;Node8</title>
<path fill="none" stroke="midnightblue" d="M880.13,-220.45C934.35,-197.86 1047.01,-150.91 1093.38,-131.59"/>
<polygon fill="midnightblue" stroke="midnightblue" points="878.6,-217.29 870.72,-224.37 881.29,-223.75 878.6,-217.29"/>
</g>
<!-- Node21&#45;&gt;Node8 -->
<g id="edge45" class="edge">
<title>Node21&#45;&gt;Node8</title>
<path fill="none" stroke="midnightblue" d="M1011.76,-217.51C1037.18,-194.01 1084.67,-150.11 1104.71,-131.59"/>
<polygon fill="midnightblue" stroke="midnightblue" points="1009.31,-215.01 1004.34,-224.37 1014.06,-220.15 1009.31,-215.01"/>
</g>
<!-- Node22&#45;&gt;Node8 -->
<g id="edge47" class="edge">
<title>Node22&#45;&gt;Node8</title>
<path fill="none" stroke="midnightblue" d="M1160.05,-218.03C1150.64,-210.04 1139.98,-199.5 1133,-188 1121.89,-169.71 1116.98,-144.57 1115.06,-131.57"/>
<polygon fill="midnightblue" stroke="midnightblue" points="1157.89,-220.78 1167.86,-224.34 1162.29,-215.33 1157.89,-220.78"/>
</g>
</g>
</svg>
