<?xml version="1.0" encoding="UTF-8" standalone="no"?>
<!DOCTYPE svg PUBLIC "-//W3C//DTD SVG 1.1//EN"
 "http://www.w3.org/Graphics/SVG/1.1/DTD/svg11.dtd">
<!-- Generated by graphviz version 3.0.0 (20221109.1736)
 -->
<!-- Title: algebra/state.hpp Pages: 1 -->
<svg width="2102pt" height="476pt"
 viewBox="0.00 0.00 2102.00 476.00" xmlns="http://www.w3.org/2000/svg" xmlns:xlink="http://www.w3.org/1999/xlink">
<g id="graph0" class="graph" transform="scale(1 1) rotate(0) translate(4 472)">
<title>algebra/state.hpp</title>
<!-- Node1 -->
<g id="node1" class="node">
<title>Node1</title>
<g id="a_node1"><a xlink:title="ALGEBRA::State source file.">
<polygon fill="#bfbfbf" stroke="black" points="153.5,-448.5 153.5,-467.5 244.5,-467.5 244.5,-448.5 153.5,-448.5"/>
<text text-anchor="middle" x="199" y="-455.5" font-family="Helvetica,sans-Serif" font-size="10.00">algebra/state.hpp</text>
</a>
</g>
</g>
<!-- Node2 -->
<g id="node2" class="node">
<title>Node2</title>
<g id="a_node2"><a xlink:href="integrator_8hpp.html" target="_top" xlink:title="ALGEBRA::Integrator source file.">
<polygon fill="none" stroke="black" points="28,-280.5 28,-299.5 138,-299.5 138,-280.5 28,-280.5"/>
<text text-anchor="middle" x="83" y="-287.5" font-family="Helvetica,sans-Serif" font-size="10.00">algebra/integrator.hpp</text>
</a>
</g>
</g>
<!-- Node1&#45;&gt;Node2 -->
<g id="edge1" class="edge">
<title>Node1&#45;&gt;Node2</title>
<path fill="none" stroke="midnightblue" d="M186.95,-439.76C162.38,-404.59 107.23,-325.68 88.99,-299.57"/>
<polygon fill="midnightblue" stroke="midnightblue" points="184.17,-441.88 192.76,-448.08 189.9,-437.87 184.17,-441.88"/>
</g>
<!-- Node3 -->
<g id="node3" class="node">
<title>Node3</title>
<g id="a_node3"><a xlink:href="main_8hpp.html" target="_top" xlink:title="Main page documentation.">
<polygon fill="none" stroke="black" points="171,-56.5 171,-75.5 227,-75.5 227,-56.5 171,-56.5"/>
<text text-anchor="middle" x="199" y="-63.5" font-family="Helvetica,sans-Serif" font-size="10.00">main.hpp</text>
</a>
</g>
</g>
<!-- Node1&#45;&gt;Node3 -->
<g id="edge7" class="edge">
<title>Node1&#45;&gt;Node3</title>
<path fill="none" stroke="midnightblue" d="M143.41,-450.23C84.53,-439.6 0,-412.86 0,-347 0,-347 0,-347 0,-177 0,-99.83 116.06,-76.37 170.91,-69.6"/>
<polygon fill="midnightblue" stroke="midnightblue" points="142.9,-453.7 153.35,-451.92 144.07,-446.8 142.9,-453.7"/>
</g>
<!-- Node6 -->
<g id="node6" class="node">
<title>Node6</title>
<g id="a_node6"><a xlink:href="csvwriter_8hpp.html" target="_top" xlink:title="IO::write_csv source file.">
<polygon fill="none" stroke="black" points="156.5,-280.5 156.5,-299.5 241.5,-299.5 241.5,-280.5 156.5,-280.5"/>
<text text-anchor="middle" x="199" y="-287.5" font-family="Helvetica,sans-Serif" font-size="10.00">io/csvwriter.hpp</text>
</a>
</g>
</g>
<!-- Node1&#45;&gt;Node6 -->
<g id="edge5" class="edge">
<title>Node1&#45;&gt;Node6</title>
<path fill="none" stroke="midnightblue" d="M199,-437.93C199,-401.92 199,-325.23 199,-299.57"/>
<polygon fill="midnightblue" stroke="midnightblue" points="195.5,-438.08 199,-448.08 202.5,-438.08 195.5,-438.08"/>
</g>
<!-- Node7 -->
<g id="node7" class="node">
<title>Node7</title>
<g id="a_node7"><a xlink:href="block_8hpp.html" target="_top" xlink:title="MODEL::Block source file.">
<polygon fill="none" stroke="black" points="983.5,-392.5 983.5,-411.5 1070.5,-411.5 1070.5,-392.5 983.5,-392.5"/>
<text text-anchor="middle" x="1027" y="-399.5" font-family="Helvetica,sans-Serif" font-size="10.00">model/block.hpp</text>
</a>
</g>
</g>
<!-- Node1&#45;&gt;Node7 -->
<g id="edge8" class="edge">
<title>Node1&#45;&gt;Node7</title>
<path fill="none" stroke="midnightblue" d="M254.95,-453.35C410.24,-443.22 844.27,-414.92 983.46,-405.84"/>
<polygon fill="midnightblue" stroke="midnightblue" points="254.45,-449.88 244.7,-454.02 254.9,-456.86 254.45,-449.88"/>
</g>
<!-- Node13 -->
<g id="node13" class="node">
<title>Node13</title>
<g id="a_node13"><a xlink:href="closedloopheartpulmonary_8hpp.html" target="_top" xlink:title="MODEL::ClosedLoopHeartPulmonary source file.">
<polygon fill="none" stroke="black" points="1918,-224.5 1918,-243.5 2094,-243.5 2094,-224.5 1918,-224.5"/>
<text text-anchor="middle" x="2006" y="-231.5" font-family="Helvetica,sans-Serif" font-size="10.00">model/closedloopheartpulmonary.hpp</text>
</a>
</g>
</g>
<!-- Node1&#45;&gt;Node13 -->
<g id="edge55" class="edge">
<title>Node1&#45;&gt;Node13</title>
<path fill="none" stroke="midnightblue" d="M254.54,-456.33C393.84,-454.19 769.16,-445.51 1080,-412 1231.83,-395.63 1268.51,-381.93 1419,-356 1557.84,-332.07 1593.06,-328.66 1731,-300 1818.42,-281.84 1920.53,-256.65 1972.26,-243.6"/>
<polygon fill="midnightblue" stroke="midnightblue" points="254.48,-452.83 244.53,-456.48 254.58,-459.83 254.48,-452.83"/>
</g>
<!-- Node2&#45;&gt;Node3 -->
<g id="edge2" class="edge">
<title>Node2&#45;&gt;Node3</title>
<path fill="none" stroke="midnightblue" d="M92.32,-271.16C115.86,-226.12 177.02,-109.06 194.36,-75.88"/>
<polygon fill="midnightblue" stroke="midnightblue" points="89.08,-269.81 87.55,-280.3 95.28,-273.06 89.08,-269.81"/>
</g>
<!-- Node4 -->
<g id="node4" class="node">
<title>Node4</title>
<g id="a_node4"><a xlink:href="main_8cpp.html" target="_top" xlink:title="Main routine of svZeroDSolver.">
<polygon fill="none" stroke="black" points="132,-0.5 132,-19.5 188,-19.5 188,-0.5 132,-0.5"/>
<text text-anchor="middle" x="160" y="-7.5" font-family="Helvetica,sans-Serif" font-size="10.00">main.cpp</text>
</a>
</g>
</g>
<!-- Node3&#45;&gt;Node4 -->
<g id="edge3" class="edge">
<title>Node3&#45;&gt;Node4</title>
<path fill="none" stroke="midnightblue" d="M186.62,-47.86C179.86,-38.5 171.79,-27.33 166.32,-19.75"/>
<polygon fill="midnightblue" stroke="midnightblue" points="183.87,-50.03 192.56,-56.08 189.54,-45.93 183.87,-50.03"/>
</g>
<!-- Node5 -->
<g id="node5" class="node">
<title>Node5</title>
<g id="a_node5"><a xlink:href="python_8cpp.html" target="_top" xlink:title="Python binding for svZeroDSolver.">
<polygon fill="none" stroke="black" points="206.5,-0.5 206.5,-19.5 269.5,-19.5 269.5,-0.5 206.5,-0.5"/>
<text text-anchor="middle" x="238" y="-7.5" font-family="Helvetica,sans-Serif" font-size="10.00">python.cpp</text>
</a>
</g>
</g>
<!-- Node3&#45;&gt;Node5 -->
<g id="edge4" class="edge">
<title>Node3&#45;&gt;Node5</title>
<path fill="none" stroke="midnightblue" d="M211.38,-47.86C218.14,-38.5 226.21,-27.33 231.68,-19.75"/>
<polygon fill="midnightblue" stroke="midnightblue" points="208.46,-45.93 205.44,-56.08 214.13,-50.03 208.46,-45.93"/>
</g>
<!-- Node6&#45;&gt;Node3 -->
<g id="edge6" class="edge">
<title>Node6&#45;&gt;Node3</title>
<path fill="none" stroke="midnightblue" d="M199,-270.3C199,-224.64 199,-108.85 199,-75.88"/>
<polygon fill="midnightblue" stroke="midnightblue" points="195.5,-270.3 199,-280.3 202.5,-270.3 195.5,-270.3"/>
</g>
<!-- Node8 -->
<g id="node8" class="node">
<title>Node8</title>
<g id="a_node8"><a xlink:href="bloodvessel_8hpp.html" target="_top" xlink:title="MODEL::BloodVessel source file.">
<polygon fill="none" stroke="black" points="938,-224.5 938,-243.5 1054,-243.5 1054,-224.5 938,-224.5"/>
<text text-anchor="middle" x="996" y="-231.5" font-family="Helvetica,sans-Serif" font-size="10.00">model/bloodvessel.hpp</text>
</a>
</g>
</g>
<!-- Node7&#45;&gt;Node8 -->
<g id="edge9" class="edge">
<title>Node7&#45;&gt;Node8</title>
<path fill="none" stroke="midnightblue" d="M1010.28,-385.17C992.13,-366.73 964.24,-334.37 953,-300 950.24,-291.55 949.69,-288.25 953,-280 959.11,-264.76 973.13,-251.75 983.5,-243.7"/>
<polygon fill="midnightblue" stroke="midnightblue" points="1008.03,-387.87 1017.61,-392.4 1012.95,-382.89 1008.03,-387.87"/>
</g>
<!-- Node10 -->
<g id="node10" class="node">
<title>Node10</title>
<g id="a_node10"><a xlink:href="bloodvesseljunction_8hpp.html" target="_top" xlink:title="MODEL::BloodVesselJunction source file.">
<polygon fill="none" stroke="black" points="1015.5,-168.5 1015.5,-187.5 1164.5,-187.5 1164.5,-168.5 1015.5,-168.5"/>
<text text-anchor="middle" x="1090" y="-175.5" font-family="Helvetica,sans-Serif" font-size="10.00">model/bloodvesseljunction.hpp</text>
</a>
</g>
</g>
<!-- Node7&#45;&gt;Node10 -->
<g id="edge14" class="edge">
<title>Node7&#45;&gt;Node10</title>
<path fill="none" stroke="midnightblue" d="M1043.72,-385.17C1061.87,-366.73 1089.76,-334.37 1101,-300 1114.18,-259.7 1099.88,-208.09 1093.13,-187.78"/>
<polygon fill="midnightblue" stroke="midnightblue" points="1041.05,-382.89 1036.39,-392.4 1045.97,-387.87 1041.05,-382.89"/>
</g>
<!-- Node11 -->
<g id="node11" class="node">
<title>Node11</title>
<g id="a_node11"><a xlink:href="closedloop_r_c_rbc_8hpp.html" target="_top" xlink:title="MODEL::ClosedLoopRCRBC source file.">
<polygon fill="none" stroke="black" points="1148.5,-224.5 1148.5,-243.5 1289.5,-243.5 1289.5,-224.5 1148.5,-224.5"/>
<text text-anchor="middle" x="1219" y="-231.5" font-family="Helvetica,sans-Serif" font-size="10.00">model/closedloopRCRbc.hpp</text>
</a>
</g>
</g>
<!-- Node7&#45;&gt;Node11 -->
<g id="edge15" class="edge">
<title>Node7&#45;&gt;Node11</title>
<path fill="none" stroke="midnightblue" d="M1069.57,-389.24C1090.48,-382.01 1115.17,-371.17 1134,-356 1174.98,-322.98 1204.83,-265.25 1215.1,-243.56"/>
<polygon fill="midnightblue" stroke="midnightblue" points="1068.36,-385.95 1059.95,-392.41 1070.55,-392.6 1068.36,-385.95"/>
</g>
<!-- Node12 -->
<g id="node12" class="node">
<title>Node12</title>
<g id="a_node12"><a xlink:href="closedloopcoronarybc_8hpp.html" target="_top" xlink:title="MODEL::ClosedLoopCoronaryBC source file.">
<polygon fill="none" stroke="black" points="1308,-224.5 1308,-243.5 1466,-243.5 1466,-224.5 1308,-224.5"/>
<text text-anchor="middle" x="1387" y="-231.5" font-family="Helvetica,sans-Serif" font-size="10.00">model/closedloopcoronarybc.hpp</text>
</a>
</g>
</g>
<!-- Node7&#45;&gt;Node12 -->
<g id="edge17" class="edge">
<title>Node7&#45;&gt;Node12</title>
<path fill="none" stroke="midnightblue" d="M1068.21,-389.64C1094.53,-381.71 1129.03,-370.05 1158,-356 1214.13,-328.78 1220.63,-308.73 1276,-280 1304.61,-265.15 1339.27,-251.79 1362.16,-243.55"/>
<polygon fill="midnightblue" stroke="midnightblue" points="1067.15,-386.31 1058.55,-392.5 1069.13,-393.02 1067.15,-386.31"/>
</g>
<!-- Node7&#45;&gt;Node13 -->
<g id="edge19" class="edge">
<title>Node7&#45;&gt;Node13</title>
<path fill="none" stroke="midnightblue" d="M1080.93,-394.15C1144.8,-385.88 1254.33,-371.17 1348,-356 1580.75,-318.3 1858.12,-264.31 1963,-243.56"/>
<polygon fill="midnightblue" stroke="midnightblue" points="1080.17,-390.72 1070.7,-395.47 1081.07,-397.66 1080.17,-390.72"/>
</g>
<!-- Node14 -->
<g id="node14" class="node">
<title>Node14</title>
<g id="a_node14"><a xlink:href="flowreferencebc_8hpp.html" target="_top" xlink:title="MODEL::FlowReferenceBC source file.">
<polygon fill="none" stroke="black" points="1484,-224.5 1484,-243.5 1616,-243.5 1616,-224.5 1484,-224.5"/>
<text text-anchor="middle" x="1550" y="-231.5" font-family="Helvetica,sans-Serif" font-size="10.00">model/flowreferencebc.hpp</text>
</a>
</g>
</g>
<!-- Node7&#45;&gt;Node14 -->
<g id="edge21" class="edge">
<title>Node7&#45;&gt;Node14</title>
<path fill="none" stroke="midnightblue" d="M1069.44,-389.86C1102.22,-381.1 1148.66,-368.36 1189,-356 1316.99,-316.8 1468.37,-263.91 1526.06,-243.51"/>
<polygon fill="midnightblue" stroke="midnightblue" points="1068.49,-386.5 1059.73,-392.45 1070.29,-393.26 1068.49,-386.5"/>
</g>
<!-- Node15 -->
<g id="node15" class="node">
<title>Node15</title>
<g id="a_node15"><a xlink:href="junction_8hpp.html" target="_top" xlink:title="MODEL::Junction source file.">
<polygon fill="none" stroke="black" points="1634,-224.5 1634,-243.5 1732,-243.5 1732,-224.5 1634,-224.5"/>
<text text-anchor="middle" x="1683" y="-231.5" font-family="Helvetica,sans-Serif" font-size="10.00">model/junction.hpp</text>
</a>
</g>
</g>
<!-- Node7&#45;&gt;Node15 -->
<g id="edge23" class="edge">
<title>Node7&#45;&gt;Node15</title>
<path fill="none" stroke="midnightblue" d="M1079.15,-390.4C1121.11,-381.7 1181.51,-368.77 1234,-356 1393.05,-317.31 1581.8,-264.01 1653.45,-243.51"/>
<polygon fill="midnightblue" stroke="midnightblue" points="1078.25,-387.02 1069.16,-392.47 1079.66,-393.87 1078.25,-387.02"/>
</g>
<!-- Node16 -->
<g id="node16" class="node">
<title>Node16</title>
<g id="a_node16"><a xlink:href="model_8hpp.html" target="_top" xlink:title="MODEL::Model source file.">
<polygon fill="none" stroke="black" points="263,-336.5 263,-355.5 353,-355.5 353,-336.5 263,-336.5"/>
<text text-anchor="middle" x="308" y="-343.5" font-family="Helvetica,sans-Serif" font-size="10.00">model/model.hpp</text>
</a>
</g>
</g>
<!-- Node7&#45;&gt;Node16 -->
<g id="edge25" class="edge">
<title>Node7&#45;&gt;Node16</title>
<path fill="none" stroke="midnightblue" d="M973.18,-396.96C836.82,-386.72 479.69,-359.89 353.2,-350.4"/>
<polygon fill="midnightblue" stroke="midnightblue" points="973.14,-400.46 983.37,-397.72 973.66,-393.48 973.14,-400.46"/>
</g>
<!-- Node18 -->
<g id="node18" class="node">
<title>Node18</title>
<g id="a_node18"><a xlink:href="openloopcoronarybc_8hpp.html" target="_top" xlink:title="MODEL::OpenLoopCoronaryBC source file.">
<polygon fill="none" stroke="black" points="1750,-224.5 1750,-243.5 1900,-243.5 1900,-224.5 1750,-224.5"/>
<text text-anchor="middle" x="1825" y="-231.5" font-family="Helvetica,sans-Serif" font-size="10.00">model/openloopcoronarybc.hpp</text>
</a>
</g>
</g>
<!-- Node7&#45;&gt;Node18 -->
<g id="edge50" class="edge">
<title>Node7&#45;&gt;Node18</title>
<path fill="none" stroke="midnightblue" d="M1080.96,-392.47C1133.64,-383.94 1216.02,-370.11 1287,-356 1477.61,-318.09 1704.22,-264.22 1789.88,-243.54"/>
<polygon fill="midnightblue" stroke="midnightblue" points="1080.14,-389.05 1070.83,-394.1 1081.26,-395.96 1080.14,-389.05"/>
</g>
<!-- Node19 -->
<g id="node19" class="node">
<title>Node19</title>
<g id="a_node19"><a xlink:href="pressurereferencebc_8hpp.html" target="_top" xlink:title="MODEL::PressureReferenceBC source file.">
<polygon fill="none" stroke="black" points="336,-224.5 336,-243.5 488,-243.5 488,-224.5 336,-224.5"/>
<text text-anchor="middle" x="412" y="-231.5" font-family="Helvetica,sans-Serif" font-size="10.00">model/pressurereferencebc.hpp</text>
</a>
</g>
</g>
<!-- Node7&#45;&gt;Node19 -->
<g id="edge51" class="edge">
<title>Node7&#45;&gt;Node19</title>
<path fill="none" stroke="midnightblue" d="M983.07,-389.92C947.64,-380.93 896.56,-367.86 852,-356 697.73,-314.96 513.72,-263.56 442.36,-243.54"/>
<polygon fill="midnightblue" stroke="midnightblue" points="982.53,-393.39 993.08,-392.46 984.25,-386.61 982.53,-393.39"/>
</g>
<!-- Node20 -->
<g id="node20" class="node">
<title>Node20</title>
<g id="a_node20"><a xlink:href="resistancebc_8hpp.html" target="_top" xlink:title="MODEL::ResistanceBC source file.">
<polygon fill="none" stroke="black" points="506.5,-224.5 506.5,-243.5 625.5,-243.5 625.5,-224.5 506.5,-224.5"/>
<text text-anchor="middle" x="566" y="-231.5" font-family="Helvetica,sans-Serif" font-size="10.00">model/resistancebc.hpp</text>
</a>
</g>
</g>
<!-- Node7&#45;&gt;Node20 -->
<g id="edge52" class="edge">
<title>Node7&#45;&gt;Node20</title>
<path fill="none" stroke="midnightblue" d="M993.64,-388.99C905.13,-357.12 665.9,-270.97 589.67,-243.52"/>
<polygon fill="midnightblue" stroke="midnightblue" points="992.59,-392.33 1003.19,-392.42 994.96,-385.74 992.59,-392.33"/>
</g>
<!-- Node21 -->
<g id="node21" class="node">
<title>Node21</title>
<g id="a_node21"><a xlink:href="resistivejunction_8hpp.html" target="_top" xlink:title="MODEL::ResistiveJunction source file.">
<polygon fill="none" stroke="black" points="644,-224.5 644,-243.5 778,-243.5 778,-224.5 644,-224.5"/>
<text text-anchor="middle" x="711" y="-231.5" font-family="Helvetica,sans-Serif" font-size="10.00">model/resistivejunction.hpp</text>
</a>
</g>
</g>
<!-- Node7&#45;&gt;Node21 -->
<g id="edge53" class="edge">
<title>Node7&#45;&gt;Node21</title>
<path fill="none" stroke="midnightblue" d="M1001.24,-387.47C938.48,-354.5 778.99,-270.71 727.38,-243.61"/>
<polygon fill="midnightblue" stroke="midnightblue" points="999.97,-390.76 1010.46,-392.31 1003.23,-384.56 999.97,-390.76"/>
</g>
<!-- Node22 -->
<g id="node22" class="node">
<title>Node22</title>
<g id="a_node22"><a xlink:href="windkesselbc_8hpp.html" target="_top" xlink:title="MODEL::WindkesselBC source file.">
<polygon fill="none" stroke="black" points="796.5,-224.5 796.5,-243.5 919.5,-243.5 919.5,-224.5 796.5,-224.5"/>
<text text-anchor="middle" x="858" y="-231.5" font-family="Helvetica,sans-Serif" font-size="10.00">model/windkesselbc.hpp</text>
</a>
</g>
</g>
<!-- Node7&#45;&gt;Node22 -->
<g id="edge54" class="edge">
<title>Node7&#45;&gt;Node22</title>
<path fill="none" stroke="midnightblue" d="M1005.64,-386.52C993.81,-378.13 979.1,-367.06 967,-356 924.84,-317.47 881.35,-264.41 864.88,-243.74"/>
<polygon fill="midnightblue" stroke="midnightblue" points="1003.83,-389.52 1014.03,-392.37 1007.83,-383.78 1003.83,-389.52"/>
</g>
<!-- Node9 -->
<g id="node9" class="node">
<title>Node9</title>
<g id="a_node9"><a xlink:href="configreader_8hpp.html" target="_top" xlink:title="IO::ConfigReader source file.">
<polygon fill="none" stroke="black" points="990,-112.5 990,-131.5 1088,-131.5 1088,-112.5 990,-112.5"/>
<text text-anchor="middle" x="1039" y="-119.5" font-family="Helvetica,sans-Serif" font-size="10.00">io/configreader.hpp</text>
</a>
</g>
</g>
<!-- Node8&#45;&gt;Node9 -->
<g id="edge10" class="edge">
<title>Node8&#45;&gt;Node9</title>
<path fill="none" stroke="midnightblue" d="M996.97,-213.95C998.18,-200.65 1000.9,-182.72 1007,-168 1012.8,-154.01 1023.63,-140.15 1031.07,-131.58"/>
<polygon fill="midnightblue" stroke="midnightblue" points="993.46,-214.03 996.25,-224.25 1000.44,-214.52 993.46,-214.03"/>
</g>
<!-- Node8&#45;&gt;Node10 -->
<g id="edge12" class="edge">
<title>Node8&#45;&gt;Node10</title>
<path fill="none" stroke="midnightblue" d="M1020.06,-219.18C1037.36,-209.24 1060.15,-196.15 1074.93,-187.65"/>
<polygon fill="midnightblue" stroke="midnightblue" points="1018.03,-216.31 1011.1,-224.32 1021.52,-222.38 1018.03,-216.31"/>
</g>
<!-- Node9&#45;&gt;Node3 -->
<g id="edge11" class="edge">
<title>Node9&#45;&gt;Node3</title>
<path fill="none" stroke="midnightblue" d="M979.86,-117.2C813.69,-106.52 346.91,-76.51 227.24,-68.82"/>
<polygon fill="midnightblue" stroke="midnightblue" points="979.7,-120.69 989.9,-117.84 980.14,-113.71 979.7,-120.69"/>
</g>
<!-- Node10&#45;&gt;Node9 -->
<g id="edge13" class="edge">
<title>Node10&#45;&gt;Node9</title>
<path fill="none" stroke="midnightblue" d="M1074.62,-160.72C1065.63,-151.2 1054.64,-139.56 1047.26,-131.75"/>
<polygon fill="midnightblue" stroke="midnightblue" points="1072.17,-163.22 1081.58,-168.08 1077.26,-158.41 1072.17,-163.22"/>
</g>
<!-- Node11&#45;&gt;Node9 -->
<g id="edge16" class="edge">
<title>Node11&#45;&gt;Node9</title>
<path fill="none" stroke="midnightblue" d="M1210.64,-215C1203,-200.41 1190.42,-180.31 1174,-168 1148.9,-149.17 1115.48,-137.95 1088.17,-131.42"/>
<polygon fill="midnightblue" stroke="midnightblue" points="1207.55,-216.65 1215.12,-224.06 1213.82,-213.55 1207.55,-216.65"/>
</g>
<!-- Node12&#45;&gt;Node9 -->
<g id="edge18" class="edge">
<title>Node12&#45;&gt;Node9</title>
<path fill="none" stroke="midnightblue" d="M1353.96,-221.11C1316.19,-207.66 1252.43,-185.36 1197,-168 1153.59,-154.4 1102.94,-140.28 1070.92,-131.57"/>
<polygon fill="midnightblue" stroke="midnightblue" points="1352.84,-224.43 1363.43,-224.49 1355.19,-217.84 1352.84,-224.43"/>
</g>
<!-- Node13&#45;&gt;Node9 -->
<g id="edge20" class="edge">
<title>Node13&#45;&gt;Node9</title>
<path fill="none" stroke="midnightblue" d="M1926.5,-223.26C1820.08,-210.29 1625.4,-186.8 1459,-168 1324.92,-152.85 1166.61,-136.23 1088.16,-128.08"/>
<polygon fill="midnightblue" stroke="midnightblue" points="1926.17,-226.75 1936.52,-224.48 1927.02,-219.8 1926.17,-226.75"/>
</g>
<!-- Node14&#45;&gt;Node9 -->
<g id="edge22" class="edge">
<title>Node14&#45;&gt;Node9</title>
<path fill="none" stroke="midnightblue" d="M1500.36,-222.31C1399.16,-200.53 1170.78,-151.37 1078.65,-131.53"/>
<polygon fill="midnightblue" stroke="midnightblue" points="1499.82,-225.78 1510.33,-224.46 1501.29,-218.93 1499.82,-225.78"/>
</g>
<!-- Node15&#45;&gt;Node9 -->
<g id="edge24" class="edge">
<title>Node15&#45;&gt;Node9</title>
<path fill="none" stroke="midnightblue" d="M1624.45,-222.74C1550.67,-209.84 1419.98,-187.07 1308,-168 1231.21,-154.92 1142.04,-140.07 1088.1,-131.12"/>
<polygon fill="midnightblue" stroke="midnightblue" points="1624.02,-226.22 1634.47,-224.49 1625.23,-219.32 1624.02,-226.22"/>
</g>
<!-- Node16&#45;&gt;Node2 -->
<g id="edge26" class="edge">
<title>Node16&#45;&gt;Node2</title>
<path fill="none" stroke="midnightblue" d="M262.53,-334.09C220.03,-323.89 157.42,-308.86 118.49,-299.52"/>
<polygon fill="midnightblue" stroke="midnightblue" points="261.81,-337.51 272.35,-336.44 263.44,-330.71 261.81,-337.51"/>
</g>
<!-- Node16&#45;&gt;Node3 -->
<g id="edge49" class="edge">
<title>Node16&#45;&gt;Node3</title>
<path fill="none" stroke="midnightblue" d="M297.86,-327.43C286.6,-306.24 270,-269.19 270,-235 270,-235 270,-235 270,-177 270,-133.13 229.65,-92.89 209.78,-75.74"/>
<polygon fill="midnightblue" stroke="midnightblue" points="294.82,-329.17 302.72,-336.23 300.95,-325.78 294.82,-329.17"/>
</g>
<!-- Node16&#45;&gt;Node6 -->
<g id="edge48" class="edge">
<title>Node16&#45;&gt;Node6</title>
<path fill="none" stroke="midnightblue" d="M281.48,-331.86C261.27,-321.85 234.01,-308.35 216.47,-299.65"/>
<polygon fill="midnightblue" stroke="midnightblue" points="279.97,-335.02 290.49,-336.32 283.08,-328.75 279.97,-335.02"/>
</g>
<!-- Node16&#45;&gt;Node9 -->
<g id="edge47" class="edge">
<title>Node16&#45;&gt;Node9</title>
<path fill="none" stroke="midnightblue" d="M304.9,-326.28C301.66,-299.69 300.26,-251.2 327,-224 419.45,-129.97 844.16,-122.35 989.81,-122.56"/>
<polygon fill="midnightblue" stroke="midnightblue" points="301.44,-326.81 306.32,-336.21 308.37,-325.81 301.44,-326.81"/>
</g>
<!-- Node17 -->
<g id="node17" class="node">
<title>Node17</title>
<g id="a_node17"><a xlink:href="sparsesystem_8hpp.html" target="_top" xlink:title="ALGEBRA::SparseSystem source file.">
<polygon fill="none" stroke="black" points="962,-280.5 962,-299.5 1092,-299.5 1092,-280.5 962,-280.5"/>
<text text-anchor="middle" x="1027" y="-287.5" font-family="Helvetica,sans-Serif" font-size="10.00">algebra/sparsesystem.hpp</text>
</a>
</g>
</g>
<!-- Node16&#45;&gt;Node17 -->
<g id="edge27" class="edge">
<title>Node16&#45;&gt;Node17</title>
<path fill="none" stroke="midnightblue" d="M363.44,-340.54C494.36,-330.43 821.85,-305.83 961.9,-295.59"/>
<polygon fill="midnightblue" stroke="midnightblue" points="362.94,-337.07 353.24,-341.33 363.48,-344.05 362.94,-337.07"/>
</g>
<!-- Node17&#45;&gt;Node7 -->
<g id="edge28" class="edge">
<title>Node17&#45;&gt;Node7</title>
<path fill="none" stroke="midnightblue" d="M1027,-309.6C1027,-333.67 1027,-374.62 1027,-392.37"/>
<polygon fill="midnightblue" stroke="midnightblue" points="1030.5,-309.59 1027,-299.59 1023.5,-309.59 1030.5,-309.59"/>
</g>
<!-- Node17&#45;&gt;Node8 -->
<g id="edge29" class="edge">
<title>Node17&#45;&gt;Node8</title>
<path fill="none" stroke="midnightblue" d="M1016.82,-271.27C1011.53,-262.05 1005.28,-251.17 1001.02,-243.75"/>
<polygon fill="midnightblue" stroke="midnightblue" points="1013.87,-273.15 1021.88,-280.08 1019.94,-269.67 1013.87,-273.15"/>
</g>
<!-- Node17&#45;&gt;Node10 -->
<g id="edge30" class="edge">
<title>Node17&#45;&gt;Node10</title>
<path fill="none" stroke="midnightblue" d="M1042,-272.57C1048.97,-264.39 1057.03,-254.1 1063,-244 1074.2,-225.07 1083,-200.62 1087.24,-187.78"/>
<polygon fill="midnightblue" stroke="midnightblue" points="1039.22,-270.43 1035.25,-280.25 1044.48,-275.05 1039.22,-270.43"/>
</g>
<!-- Node17&#45;&gt;Node11 -->
<g id="edge31" class="edge">
<title>Node17&#45;&gt;Node11</title>
<path fill="none" stroke="midnightblue" d="M1067.18,-277.7C1103.42,-267.51 1155.91,-252.74 1188.72,-243.52"/>
<polygon fill="midnightblue" stroke="midnightblue" points="1066.1,-274.37 1057.42,-280.44 1068,-281.11 1066.1,-274.37"/>
</g>
<!-- Node17&#45;&gt;Node12 -->
<g id="edge32" class="edge">
<title>Node17&#45;&gt;Node12</title>
<path fill="none" stroke="midnightblue" d="M1094.22,-278.92C1162.23,-268.71 1266.22,-253.12 1330.22,-243.52"/>
<polygon fill="midnightblue" stroke="midnightblue" points="1093.41,-275.5 1084.04,-280.44 1094.45,-282.42 1093.41,-275.5"/>
</g>
<!-- Node17&#45;&gt;Node13 -->
<g id="edge33" class="edge">
<title>Node17&#45;&gt;Node13</title>
<path fill="none" stroke="midnightblue" d="M1102.24,-286.22C1254.62,-280.35 1610.57,-265.45 1909,-244 1911.95,-243.79 1914.95,-243.56 1917.98,-243.33"/>
<polygon fill="midnightblue" stroke="midnightblue" points="1101.92,-282.73 1092.06,-286.61 1102.19,-289.72 1101.92,-282.73"/>
</g>
<!-- Node17&#45;&gt;Node14 -->
<g id="edge34" class="edge">
<title>Node17&#45;&gt;Node14</title>
<path fill="none" stroke="midnightblue" d="M1102.34,-281.88C1191.4,-273.36 1344.07,-258.43 1475,-244 1477.87,-243.68 1480.8,-243.36 1483.75,-243.02"/>
<polygon fill="midnightblue" stroke="midnightblue" points="1101.95,-278.4 1092.33,-282.84 1102.62,-285.37 1101.95,-278.4"/>
</g>
<!-- Node17&#45;&gt;Node15 -->
<g id="edge35" class="edge">
<title>Node17&#45;&gt;Node15</title>
<path fill="none" stroke="midnightblue" d="M1102.52,-285.23C1216.13,-279.13 1437.69,-265.55 1625,-244 1627.94,-243.66 1630.95,-243.29 1633.99,-242.88"/>
<polygon fill="midnightblue" stroke="midnightblue" points="1102,-281.75 1092.2,-285.78 1102.37,-288.74 1102,-281.75"/>
</g>
<!-- Node17&#45;&gt;Node16 -->
<g id="edge36" class="edge">
<title>Node17&#45;&gt;Node16</title>
<path fill="none" stroke="midnightblue" d="M951.78,-296.98C802.58,-308.44 473.49,-333.13 353.14,-341.86"/>
<polygon fill="midnightblue" stroke="midnightblue" points="952.07,-300.47 961.77,-296.21 951.53,-293.49 952.07,-300.47"/>
</g>
<!-- Node17&#45;&gt;Node18 -->
<g id="edge37" class="edge">
<title>Node17&#45;&gt;Node18</title>
<path fill="none" stroke="midnightblue" d="M1102.31,-285.34C1232.59,-278.77 1508.45,-263.78 1741,-244 1743.92,-243.75 1746.9,-243.49 1749.91,-243.21"/>
<polygon fill="midnightblue" stroke="midnightblue" points="1101.86,-281.86 1092.05,-285.86 1102.21,-288.85 1101.86,-281.86"/>
</g>
<!-- Node17&#45;&gt;Node19 -->
<g id="edge39" class="edge">
<title>Node17&#45;&gt;Node19</title>
<path fill="none" stroke="midnightblue" d="M951.71,-283.1C848.92,-274.94 658.92,-259.44 497,-244 494.19,-243.73 491.33,-243.45 488.45,-243.17"/>
<polygon fill="midnightblue" stroke="midnightblue" points="951.44,-286.59 961.69,-283.89 951.99,-279.61 951.44,-286.59"/>
</g>
<!-- Node17&#45;&gt;Node20 -->
<g id="edge41" class="edge">
<title>Node17&#45;&gt;Node20</title>
<path fill="none" stroke="midnightblue" d="M951.43,-280.67C872.46,-271.89 744.97,-257.48 635,-244 632,-243.63 628.93,-243.25 625.83,-242.86"/>
<polygon fill="midnightblue" stroke="midnightblue" points="951.44,-284.2 961.76,-281.82 952.21,-277.24 951.44,-284.2"/>
</g>
<!-- Node17&#45;&gt;Node21 -->
<g id="edge43" class="edge">
<title>Node17&#45;&gt;Node21</title>
<path fill="none" stroke="midnightblue" d="M966.89,-278.73C907.17,-268.52 816.67,-253.06 760.84,-243.52"/>
<polygon fill="midnightblue" stroke="midnightblue" points="966.48,-282.21 976.93,-280.44 967.66,-275.31 966.48,-282.21"/>
</g>
<!-- Node17&#45;&gt;Node22 -->
<g id="edge45" class="edge">
<title>Node17&#45;&gt;Node22</title>
<path fill="none" stroke="midnightblue" d="M990.4,-277.3C958.55,-267.13 913.16,-252.62 884.65,-243.52"/>
<polygon fill="midnightblue" stroke="midnightblue" points="989.63,-280.73 1000.22,-280.44 991.76,-274.07 989.63,-280.73"/>
</g>
<!-- Node18&#45;&gt;Node9 -->
<g id="edge38" class="edge">
<title>Node18&#45;&gt;Node9</title>
<path fill="none" stroke="midnightblue" d="M1757.83,-222.97C1670.4,-209.97 1512.86,-186.76 1378,-168 1274.95,-153.67 1154.12,-137.87 1088.15,-129.33"/>
<polygon fill="midnightblue" stroke="midnightblue" points="1757.47,-226.45 1767.88,-224.46 1758.5,-219.53 1757.47,-226.45"/>
</g>
<!-- Node19&#45;&gt;Node9 -->
<g id="edge40" class="edge">
<title>Node19&#45;&gt;Node9</title>
<path fill="none" stroke="midnightblue" d="M464.63,-222.52C531.88,-209.24 651.91,-185.93 755,-168 837.26,-153.69 933.25,-138.87 989.93,-130.32"/>
<polygon fill="midnightblue" stroke="midnightblue" points="463.83,-219.11 454.7,-224.48 465.19,-225.97 463.83,-219.11"/>
</g>
<!-- Node20&#45;&gt;Node9 -->
<g id="edge42" class="edge">
<title>Node20&#45;&gt;Node9</title>
<path fill="none" stroke="midnightblue" d="M611.9,-222.09C666.65,-209.1 760.97,-186.8 842,-168 897.36,-155.16 961.55,-140.55 1001.22,-131.55"/>
<polygon fill="midnightblue" stroke="midnightblue" points="611.07,-218.69 602.15,-224.4 612.69,-225.5 611.07,-218.69"/>
</g>
<!-- Node21&#45;&gt;Node9 -->
<g id="edge44" class="edge">
<title>Node21&#45;&gt;Node9</title>
<path fill="none" stroke="midnightblue" d="M746.06,-221.24C812.43,-198.98 955,-151.17 1013.33,-131.61"/>
<polygon fill="midnightblue" stroke="midnightblue" points="744.83,-217.96 736.46,-224.46 747.06,-224.6 744.83,-217.96"/>
</g>
<!-- Node22&#45;&gt;Node9 -->
<g id="edge46" class="edge">
<title>Node22&#45;&gt;Node9</title>
<path fill="none" stroke="midnightblue" d="M881.02,-219.01C919.02,-195.92 993.73,-150.51 1024.86,-131.59"/>
<polygon fill="midnightblue" stroke="midnightblue" points="878.93,-216.18 872.2,-224.37 882.57,-222.17 878.93,-216.18"/>
</g>
</g>
</svg>
