<?xml version="1.0" encoding="UTF-8" standalone="no"?>
<!DOCTYPE svg PUBLIC "-//W3C//DTD SVG 1.1//EN"
 "http://www.w3.org/Graphics/SVG/1.1/DTD/svg11.dtd">
<!-- Generated by graphviz version 3.0.0 (20221109.1736)
 -->
<!-- Title: MODEL::Block&lt; T &gt;::Parameters Pages: 1 -->
<svg width="328pt" height="578pt"
 viewBox="0.00 0.00 328.00 578.00" xmlns="http://www.w3.org/2000/svg" xmlns:xlink="http://www.w3.org/1999/xlink">
<g id="graph0" class="graph" transform="scale(1 1) rotate(0) translate(4 574)">
<title>MODEL::Block&lt; T &gt;::Parameters</title>
<!-- Node1 -->
<g id="node1" class="node">
<title>Node1</title>
<g id="a_node1"><a xlink:title="Parameters of the element.">
<polygon fill="#bfbfbf" stroke="black" points="0,-269.5 0,-299.5 107,-299.5 107,-269.5 0,-269.5"/>
<text text-anchor="start" x="8" y="-287.5" font-family="Helvetica,sans-Serif" font-size="10.00">MODEL::Block&lt; T &gt;::</text>
<text text-anchor="middle" x="53.5" y="-276.5" font-family="Helvetica,sans-Serif" font-size="10.00">Parameters</text>
</a>
</g>
</g>
<!-- Node2 -->
<g id="node2" class="node">
<title>Node2</title>
<g id="a_node2"><a xlink:href="struct_m_o_d_e_l_1_1_blood_vessel_1_1_parameters.html" target="_top" xlink:title="Parameters of the element.">
<polygon fill="none" stroke="black" points="176.5,-539.5 176.5,-569.5 286.5,-569.5 286.5,-539.5 176.5,-539.5"/>
<text text-anchor="start" x="184.5" y="-557.5" font-family="Helvetica,sans-Serif" font-size="10.00">MODEL::BloodVessel</text>
<text text-anchor="middle" x="231.5" y="-546.5" font-family="Helvetica,sans-Serif" font-size="10.00">&lt; T &gt;::Parameters</text>
</a>
</g>
</g>
<!-- Node1&#45;&gt;Node2 -->
<g id="edge1" class="edge">
<title>Node1&#45;&gt;Node2</title>
<path fill="none" stroke="midnightblue" d="M56.13,-309.68C60.73,-359.38 78.11,-470.46 143,-530.5 152.25,-539.06 164.26,-544.61 176.41,-548.2"/>
<polygon fill="midnightblue" stroke="midnightblue" points="59.6,-309.19 55.29,-299.51 52.63,-309.76 59.6,-309.19"/>
</g>
<!-- Node3 -->
<g id="node3" class="node">
<title>Node3</title>
<g id="a_node3"><a xlink:href="struct_m_o_d_e_l_1_1_blood_vessel_junction_1_1_parameters.html" target="_top" xlink:title="Parameters of the element.">
<polygon fill="none" stroke="black" points="158,-490.5 158,-520.5 305,-520.5 305,-490.5 158,-490.5"/>
<text text-anchor="start" x="166" y="-508.5" font-family="Helvetica,sans-Serif" font-size="10.00">MODEL::BloodVesselJunction</text>
<text text-anchor="middle" x="231.5" y="-497.5" font-family="Helvetica,sans-Serif" font-size="10.00">&lt; T &gt;::Parameters</text>
</a>
</g>
</g>
<!-- Node1&#45;&gt;Node3 -->
<g id="edge2" class="edge">
<title>Node1&#45;&gt;Node3</title>
<path fill="none" stroke="midnightblue" d="M58.69,-309.64C67.02,-351.62 89.69,-435.85 143,-481.5 147.43,-485.29 152.4,-488.49 157.67,-491.18"/>
<polygon fill="midnightblue" stroke="midnightblue" points="62.11,-308.88 56.83,-299.7 55.23,-310.17 62.11,-308.88"/>
</g>
<!-- Node4 -->
<g id="node4" class="node">
<title>Node4</title>
<g id="a_node4"><a xlink:href="struct_m_o_d_e_l_1_1_closed_loop_coronary_b_c_1_1_parameters.html" target="_top" xlink:title="Parameters of the element.">
<polygon fill="none" stroke="black" points="158.5,-441.5 158.5,-471.5 304.5,-471.5 304.5,-441.5 158.5,-441.5"/>
<text text-anchor="start" x="166.5" y="-459.5" font-family="Helvetica,sans-Serif" font-size="10.00">MODEL::ClosedLoopCoronary</text>
<text text-anchor="middle" x="231.5" y="-448.5" font-family="Helvetica,sans-Serif" font-size="10.00">BC&lt; T &gt;::Parameters</text>
</a>
</g>
</g>
<!-- Node1&#45;&gt;Node4 -->
<g id="edge3" class="edge">
<title>Node1&#45;&gt;Node4</title>
<path fill="none" stroke="midnightblue" d="M62.74,-309.51C74.96,-342.65 101.06,-400.63 143,-432.5 147.64,-436.03 152.77,-439.03 158.14,-441.6"/>
<polygon fill="midnightblue" stroke="midnightblue" points="65.9,-307.94 59.26,-299.69 59.3,-310.28 65.9,-307.94"/>
</g>
<!-- Node5 -->
<g id="node5" class="node">
<title>Node5</title>
<g id="a_node5"><a xlink:href="struct_m_o_d_e_l_1_1_closed_loop_heart_pulmonary_1_1_parameters.html" target="_top" xlink:title="Parameters of the element.">
<polygon fill="none" stroke="black" points="143,-392.5 143,-422.5 320,-422.5 320,-392.5 143,-392.5"/>
<text text-anchor="start" x="151" y="-410.5" font-family="Helvetica,sans-Serif" font-size="10.00">MODEL::ClosedLoopHeartPulmonary</text>
<text text-anchor="middle" x="231.5" y="-399.5" font-family="Helvetica,sans-Serif" font-size="10.00">&lt; T &gt;::Parameters</text>
</a>
</g>
</g>
<!-- Node1&#45;&gt;Node5 -->
<g id="edge4" class="edge">
<title>Node1&#45;&gt;Node5</title>
<path fill="none" stroke="midnightblue" d="M69.59,-308.1C85.28,-330.72 111.86,-364.21 143,-383.5 148.49,-386.9 154.47,-389.83 160.63,-392.35"/>
<polygon fill="midnightblue" stroke="midnightblue" points="72.44,-306.05 63.94,-299.72 66.63,-309.97 72.44,-306.05"/>
</g>
<!-- Node6 -->
<g id="node6" class="node">
<title>Node6</title>
<g id="a_node6"><a xlink:href="struct_m_o_d_e_l_1_1_closed_loop_r_c_r_b_c_1_1_parameters.html" target="_top" xlink:title="Parameters of the element.">
<polygon fill="none" stroke="black" points="161,-343.5 161,-373.5 302,-373.5 302,-343.5 161,-343.5"/>
<text text-anchor="start" x="169" y="-361.5" font-family="Helvetica,sans-Serif" font-size="10.00">MODEL::ClosedLoopRCRBC</text>
<text text-anchor="middle" x="231.5" y="-350.5" font-family="Helvetica,sans-Serif" font-size="10.00">&lt; T &gt;::Parameters</text>
</a>
</g>
</g>
<!-- Node1&#45;&gt;Node6 -->
<g id="edge5" class="edge">
<title>Node1&#45;&gt;Node6</title>
<path fill="none" stroke="midnightblue" d="M86.05,-304.84C102.53,-314.81 123.31,-326.39 143,-334.5 151.01,-337.8 159.62,-340.79 168.19,-343.45"/>
<polygon fill="midnightblue" stroke="midnightblue" points="87.72,-301.77 77.37,-299.5 84.05,-307.73 87.72,-301.77"/>
</g>
<!-- Node7 -->
<g id="node7" class="node">
<title>Node7</title>
<g id="a_node7"><a xlink:href="struct_m_o_d_e_l_1_1_flow_reference_b_c_1_1_parameters.html" target="_top" xlink:title="Parameters of the element.">
<polygon fill="none" stroke="black" points="164.5,-294.5 164.5,-324.5 298.5,-324.5 298.5,-294.5 164.5,-294.5"/>
<text text-anchor="start" x="172.5" y="-312.5" font-family="Helvetica,sans-Serif" font-size="10.00">MODEL::FlowReferenceBC</text>
<text text-anchor="middle" x="231.5" y="-301.5" font-family="Helvetica,sans-Serif" font-size="10.00">&lt; T &gt;::Parameters</text>
</a>
</g>
</g>
<!-- Node1&#45;&gt;Node7 -->
<g id="edge6" class="edge">
<title>Node1&#45;&gt;Node7</title>
<path fill="none" stroke="midnightblue" d="M117.61,-293.46C132.77,-295.62 149.01,-297.93 164.31,-300.1"/>
<polygon fill="midnightblue" stroke="midnightblue" points="117.7,-289.94 107.31,-292 116.71,-296.87 117.7,-289.94"/>
</g>
<!-- Node8 -->
<g id="node8" class="node">
<title>Node8</title>
<g id="a_node8"><a xlink:href="struct_m_o_d_e_l_1_1_junction_1_1_parameters.html" target="_top" xlink:title="Parameters of the element.">
<polygon fill="none" stroke="black" points="178,-245.5 178,-275.5 285,-275.5 285,-245.5 178,-245.5"/>
<text text-anchor="start" x="186" y="-263.5" font-family="Helvetica,sans-Serif" font-size="10.00">MODEL::Junction&lt; T</text>
<text text-anchor="middle" x="231.5" y="-252.5" font-family="Helvetica,sans-Serif" font-size="10.00"> &gt;::Parameters</text>
</a>
</g>
</g>
<!-- Node1&#45;&gt;Node8 -->
<g id="edge7" class="edge">
<title>Node1&#45;&gt;Node8</title>
<path fill="none" stroke="midnightblue" d="M117.44,-275.92C137.18,-273.22 158.77,-270.28 177.73,-267.7"/>
<polygon fill="midnightblue" stroke="midnightblue" points="116.74,-272.48 107.31,-277.3 117.69,-279.42 116.74,-272.48"/>
</g>
<!-- Node9 -->
<g id="node9" class="node">
<title>Node9</title>
<g id="a_node9"><a xlink:href="struct_m_o_d_e_l_1_1_open_loop_coronary_b_c_1_1_parameters.html" target="_top" xlink:title="Parameters of the element.">
<polygon fill="none" stroke="black" points="155.5,-196.5 155.5,-226.5 307.5,-226.5 307.5,-196.5 155.5,-196.5"/>
<text text-anchor="start" x="163.5" y="-214.5" font-family="Helvetica,sans-Serif" font-size="10.00">MODEL::OpenLoopCoronaryBC</text>
<text text-anchor="middle" x="231.5" y="-203.5" font-family="Helvetica,sans-Serif" font-size="10.00">&lt; T &gt;::Parameters</text>
</a>
</g>
</g>
<!-- Node1&#45;&gt;Node9 -->
<g id="edge8" class="edge">
<title>Node1&#45;&gt;Node9</title>
<path fill="none" stroke="midnightblue" d="M88.03,-264.06C104.23,-254.77 124.2,-244.18 143,-236.5 151.92,-232.86 161.56,-229.53 171.07,-226.58"/>
<polygon fill="midnightblue" stroke="midnightblue" points="85.84,-261.28 78.96,-269.34 89.37,-267.33 85.84,-261.28"/>
</g>
<!-- Node10 -->
<g id="node10" class="node">
<title>Node10</title>
<g id="a_node10"><a xlink:href="struct_m_o_d_e_l_1_1_pressure_reference_b_c_1_1_parameters.html" target="_top" xlink:title="Parameters of the element.">
<polygon fill="none" stroke="black" points="162,-147.5 162,-177.5 301,-177.5 301,-147.5 162,-147.5"/>
<text text-anchor="start" x="170" y="-165.5" font-family="Helvetica,sans-Serif" font-size="10.00">MODEL::PressureReference</text>
<text text-anchor="middle" x="231.5" y="-154.5" font-family="Helvetica,sans-Serif" font-size="10.00">BC&lt; T &gt;::Parameters</text>
</a>
</g>
</g>
<!-- Node1&#45;&gt;Node10 -->
<g id="edge9" class="edge">
<title>Node1&#45;&gt;Node10</title>
<path fill="none" stroke="midnightblue" d="M70.22,-260.79C86.07,-238.7 112.51,-206.39 143,-187.5 149.18,-183.67 155.96,-180.41 162.93,-177.64"/>
<polygon fill="midnightblue" stroke="midnightblue" points="67.15,-259.08 64.29,-269.29 72.89,-263.09 67.15,-259.08"/>
</g>
<!-- Node11 -->
<g id="node11" class="node">
<title>Node11</title>
<g id="a_node11"><a xlink:href="struct_m_o_d_e_l_1_1_resistance_b_c_1_1_parameters.html" target="_top" xlink:title="Parameters of the element.">
<polygon fill="none" stroke="black" points="172.5,-98.5 172.5,-128.5 290.5,-128.5 290.5,-98.5 172.5,-98.5"/>
<text text-anchor="start" x="180.5" y="-116.5" font-family="Helvetica,sans-Serif" font-size="10.00">MODEL::ResistanceBC</text>
<text text-anchor="middle" x="231.5" y="-105.5" font-family="Helvetica,sans-Serif" font-size="10.00">&lt; T &gt;::Parameters</text>
</a>
</g>
</g>
<!-- Node1&#45;&gt;Node11 -->
<g id="edge10" class="edge">
<title>Node1&#45;&gt;Node11</title>
<path fill="none" stroke="midnightblue" d="M63.08,-259.38C75.54,-226.68 101.76,-169.99 143,-138.5 151.54,-131.98 161.72,-127.16 172.06,-123.6"/>
<polygon fill="midnightblue" stroke="midnightblue" points="59.67,-258.5 59.52,-269.1 66.25,-260.91 59.67,-258.5"/>
</g>
<!-- Node12 -->
<g id="node12" class="node">
<title>Node12</title>
<g id="a_node12"><a xlink:href="struct_m_o_d_e_l_1_1_resistive_junction_1_1_parameters.html" target="_top" xlink:title="Parameters of the element.">
<polygon fill="none" stroke="black" points="165,-49.5 165,-79.5 298,-79.5 298,-49.5 165,-49.5"/>
<text text-anchor="start" x="173" y="-67.5" font-family="Helvetica,sans-Serif" font-size="10.00">MODEL::ResistiveJunction</text>
<text text-anchor="middle" x="231.5" y="-56.5" font-family="Helvetica,sans-Serif" font-size="10.00">&lt; T &gt;::Parameters</text>
</a>
</g>
</g>
<!-- Node1&#45;&gt;Node12 -->
<g id="edge11" class="edge">
<title>Node1&#45;&gt;Node12</title>
<path fill="none" stroke="midnightblue" d="M58.82,-259.67C67.34,-218.2 90.29,-134.95 143,-89.5 149.34,-84.03 156.81,-79.76 164.66,-76.41"/>
<polygon fill="midnightblue" stroke="midnightblue" points="55.38,-259.01 56.91,-269.49 62.25,-260.34 55.38,-259.01"/>
</g>
<!-- Node13 -->
<g id="node13" class="node">
<title>Node13</title>
<g id="a_node13"><a xlink:href="struct_m_o_d_e_l_1_1_windkessel_b_c_1_1_parameters.html" target="_top" xlink:title="Parameters of the element.">
<polygon fill="none" stroke="black" points="172,-0.5 172,-30.5 291,-30.5 291,-0.5 172,-0.5"/>
<text text-anchor="start" x="180" y="-18.5" font-family="Helvetica,sans-Serif" font-size="10.00">MODEL::WindkesselBC</text>
<text text-anchor="middle" x="231.5" y="-7.5" font-family="Helvetica,sans-Serif" font-size="10.00">&lt; T &gt;::Parameters</text>
</a>
</g>
</g>
<!-- Node1&#45;&gt;Node13 -->
<g id="edge12" class="edge">
<title>Node1&#45;&gt;Node13</title>
<path fill="none" stroke="midnightblue" d="M56.29,-259.22C61.15,-209.85 78.97,-100.22 143,-40.5 151.09,-32.96 161.29,-27.67 171.86,-23.97"/>
<polygon fill="midnightblue" stroke="midnightblue" points="52.79,-259.07 55.39,-269.34 59.76,-259.69 52.79,-259.07"/>
</g>
</g>
</svg>
