<?xml version="1.0" encoding="UTF-8" standalone="no"?>
<!DOCTYPE svg PUBLIC "-//W3C//DTD SVG 1.1//EN"
 "http://www.w3.org/Graphics/SVG/1.1/DTD/svg11.dtd">
<!-- Generated by graphviz version 3.0.0 (20220413.0242)
 -->
<!-- Title: MODEL::Block&lt; T &gt;::Parameters Pages: 1 -->
<svg width="303pt" height="333pt"
 viewBox="0.00 0.00 303.00 333.00" xmlns="http://www.w3.org/2000/svg" xmlns:xlink="http://www.w3.org/1999/xlink">
<g id="graph0" class="graph" transform="scale(1 1) rotate(0) translate(4 329)">
<title>MODEL::Block&lt; T &gt;::Parameters</title>
<!-- Node1 -->
<g id="node1" class="node">
<title>Node1</title>
<g id="a_node1"><a xlink:title="Parameters of the element.">
<polygon fill="#bfbfbf" stroke="black" points="0,-147.5 0,-177.5 107,-177.5 107,-147.5 0,-147.5"/>
<text text-anchor="start" x="8" y="-165.5" font-family="Helvetica,sans-Serif" font-size="10.00">MODEL::Block&lt; T &gt;::</text>
<text text-anchor="middle" x="53.5" y="-154.5" font-family="Helvetica,sans-Serif" font-size="10.00">Parameters</text>
</a>
</g>
</g>
<!-- Node2 -->
<g id="node2" class="node">
<title>Node2</title>
<g id="a_node2"><a xlink:href="struct_m_o_d_e_l_1_1_blood_vessel_1_1_parameters.html" target="_top" xlink:title="Parameters of the element.">
<polygon fill="none" stroke="black" points="164,-294.5 164,-324.5 274,-324.5 274,-294.5 164,-294.5"/>
<text text-anchor="start" x="172" y="-312.5" font-family="Helvetica,sans-Serif" font-size="10.00">MODEL::BloodVessel</text>
<text text-anchor="middle" x="219" y="-301.5" font-family="Helvetica,sans-Serif" font-size="10.00">&lt; T &gt;::Parameters</text>
</a>
</g>
</g>
<!-- Node1&#45;&gt;Node2 -->
<g id="edge1" class="edge">
<title>Node1&#45;&gt;Node2</title>
<path fill="none" stroke="midnightblue" d="M65.96,-186.82C80.25,-214.57 107.21,-259.49 143,-285.5 149.3,-290.08 156.52,-293.81 163.93,-296.84"/>
<polygon fill="midnightblue" stroke="midnightblue" points="69.05,-185.15 61.45,-177.77 62.78,-188.28 69.05,-185.15"/>
</g>
<!-- Node3 -->
<g id="node3" class="node">
<title>Node3</title>
<g id="a_node3"><a xlink:href="struct_m_o_d_e_l_1_1_flow_reference_b_c_1_1_parameters.html" target="_top" xlink:title="Parameters of the element.">
<polygon fill="none" stroke="black" points="152,-245.5 152,-275.5 286,-275.5 286,-245.5 152,-245.5"/>
<text text-anchor="start" x="160" y="-263.5" font-family="Helvetica,sans-Serif" font-size="10.00">MODEL::FlowReferenceBC</text>
<text text-anchor="middle" x="219" y="-252.5" font-family="Helvetica,sans-Serif" font-size="10.00">&lt; T &gt;::Parameters</text>
</a>
</g>
</g>
<!-- Node1&#45;&gt;Node3 -->
<g id="edge2" class="edge">
<title>Node1&#45;&gt;Node3</title>
<path fill="none" stroke="midnightblue" d="M76,-184.63C92.91,-200.93 117.74,-222.6 143,-236.5 149.11,-239.86 155.76,-242.84 162.5,-245.44"/>
<polygon fill="midnightblue" stroke="midnightblue" points="78.41,-182.08 68.82,-177.56 73.5,-187.07 78.41,-182.08"/>
</g>
<!-- Node4 -->
<g id="node4" class="node">
<title>Node4</title>
<g id="a_node4"><a xlink:href="struct_m_o_d_e_l_1_1_junction_1_1_parameters.html" target="_top" xlink:title="Parameters of the element.">
<polygon fill="none" stroke="black" points="165.5,-196.5 165.5,-226.5 272.5,-226.5 272.5,-196.5 165.5,-196.5"/>
<text text-anchor="start" x="173.5" y="-214.5" font-family="Helvetica,sans-Serif" font-size="10.00">MODEL::Junction&lt; T</text>
<text text-anchor="middle" x="219" y="-203.5" font-family="Helvetica,sans-Serif" font-size="10.00"> &gt;::Parameters</text>
</a>
</g>
</g>
<!-- Node1&#45;&gt;Node4 -->
<g id="edge3" class="edge">
<title>Node1&#45;&gt;Node4</title>
<path fill="none" stroke="midnightblue" d="M114.94,-180.61C132.32,-185.82 151.08,-191.45 167.78,-196.45"/>
<polygon fill="midnightblue" stroke="midnightblue" points="115.47,-177.12 104.89,-177.6 113.46,-183.82 115.47,-177.12"/>
</g>
<!-- Node5 -->
<g id="node5" class="node">
<title>Node5</title>
<g id="a_node5"><a xlink:href="struct_m_o_d_e_l_1_1_open_loop_coronary_b_c_1_1_parameters.html" target="_top" xlink:title="Parameters of the element.">
<polygon fill="none" stroke="black" points="143,-147.5 143,-177.5 295,-177.5 295,-147.5 143,-147.5"/>
<text text-anchor="start" x="151" y="-165.5" font-family="Helvetica,sans-Serif" font-size="10.00">MODEL::OpenLoopCoronaryBC</text>
<text text-anchor="middle" x="219" y="-154.5" font-family="Helvetica,sans-Serif" font-size="10.00">&lt; T &gt;::Parameters</text>
</a>
</g>
</g>
<!-- Node1&#45;&gt;Node5 -->
<g id="edge4" class="edge">
<title>Node1&#45;&gt;Node5</title>
<path fill="none" stroke="midnightblue" d="M117.2,-162.5C125.59,-162.5 134.26,-162.5 142.84,-162.5"/>
<polygon fill="midnightblue" stroke="midnightblue" points="117.13,-159 107.13,-162.5 117.13,-166 117.13,-159"/>
</g>
<!-- Node6 -->
<g id="node6" class="node">
<title>Node6</title>
<g id="a_node6"><a xlink:href="struct_m_o_d_e_l_1_1_pressure_reference_b_c_1_1_parameters.html" target="_top" xlink:title="Parameters of the element.">
<polygon fill="none" stroke="black" points="149.5,-98.5 149.5,-128.5 288.5,-128.5 288.5,-98.5 149.5,-98.5"/>
<text text-anchor="start" x="157.5" y="-116.5" font-family="Helvetica,sans-Serif" font-size="10.00">MODEL::PressureReference</text>
<text text-anchor="middle" x="219" y="-105.5" font-family="Helvetica,sans-Serif" font-size="10.00">BC&lt; T &gt;::Parameters</text>
</a>
</g>
</g>
<!-- Node1&#45;&gt;Node6 -->
<g id="edge5" class="edge">
<title>Node1&#45;&gt;Node6</title>
<path fill="none" stroke="midnightblue" d="M114.94,-144.39C132.32,-139.18 151.08,-133.55 167.78,-128.55"/>
<polygon fill="midnightblue" stroke="midnightblue" points="113.46,-141.18 104.89,-147.4 115.47,-147.88 113.46,-141.18"/>
</g>
<!-- Node7 -->
<g id="node7" class="node">
<title>Node7</title>
<g id="a_node7"><a xlink:href="struct_m_o_d_e_l_1_1_resistance_b_c_1_1_parameters.html" target="_top" xlink:title="Parameters of the element.">
<polygon fill="none" stroke="black" points="160,-49.5 160,-79.5 278,-79.5 278,-49.5 160,-49.5"/>
<text text-anchor="start" x="168" y="-67.5" font-family="Helvetica,sans-Serif" font-size="10.00">MODEL::ResistanceBC</text>
<text text-anchor="middle" x="219" y="-56.5" font-family="Helvetica,sans-Serif" font-size="10.00">&lt; T &gt;::Parameters</text>
</a>
</g>
</g>
<!-- Node1&#45;&gt;Node7 -->
<g id="edge6" class="edge">
<title>Node1&#45;&gt;Node7</title>
<path fill="none" stroke="midnightblue" d="M76.41,-140.48C93.36,-124.48 118.07,-103.31 143,-89.5 149.72,-85.78 157.1,-82.49 164.51,-79.62"/>
<polygon fill="midnightblue" stroke="midnightblue" points="73.98,-137.96 69.2,-147.42 78.83,-143.01 73.98,-137.96"/>
</g>
<!-- Node8 -->
<g id="node8" class="node">
<title>Node8</title>
<g id="a_node8"><a xlink:href="struct_m_o_d_e_l_1_1_windkessel_b_c_1_1_parameters.html" target="_top" xlink:title="Parameters of the element.">
<polygon fill="none" stroke="black" points="159.5,-0.5 159.5,-30.5 278.5,-30.5 278.5,-0.5 159.5,-0.5"/>
<text text-anchor="start" x="167.5" y="-18.5" font-family="Helvetica,sans-Serif" font-size="10.00">MODEL::WindkesselBC</text>
<text text-anchor="middle" x="219" y="-7.5" font-family="Helvetica,sans-Serif" font-size="10.00">&lt; T &gt;::Parameters</text>
</a>
</g>
</g>
<!-- Node1&#45;&gt;Node8 -->
<g id="edge7" class="edge">
<title>Node1&#45;&gt;Node8</title>
<path fill="none" stroke="midnightblue" d="M66.07,-138.46C80.45,-111 107.51,-66.51 143,-40.5 148.2,-36.69 154.02,-33.43 160.06,-30.66"/>
<polygon fill="midnightblue" stroke="midnightblue" points="62.93,-136.9 61.52,-147.4 69.17,-140.08 62.93,-136.9"/>
</g>
</g>
</svg>
