<?xml version="1.0" encoding="UTF-8" standalone="no"?>
<!DOCTYPE svg PUBLIC "-//W3C//DTD SVG 1.1//EN"
 "http://www.w3.org/Graphics/SVG/1.1/DTD/svg11.dtd">
<!-- Generated by graphviz version 3.0.0 (20220413.0242)
 -->
<!-- Title: MODEL::Block&lt; T &gt;::Parameters Pages: 1 -->
<svg width="296pt" height="186pt"
 viewBox="0.00 0.00 296.00 186.00" xmlns="http://www.w3.org/2000/svg" xmlns:xlink="http://www.w3.org/1999/xlink">
<g id="graph0" class="graph" transform="scale(1 1) rotate(0) translate(4 182)">
<title>MODEL::Block&lt; T &gt;::Parameters</title>
<!-- Node1 -->
<g id="node1" class="node">
<title>Node1</title>
<g id="a_node1"><a xlink:title="Parameters of the element.">
<polygon fill="#bfbfbf" stroke="black" points="0,-73.5 0,-103.5 107,-103.5 107,-73.5 0,-73.5"/>
<text text-anchor="start" x="8" y="-91.5" font-family="Helvetica,sans-Serif" font-size="10.00">MODEL::Block&lt; T &gt;::</text>
<text text-anchor="middle" x="53.5" y="-80.5" font-family="Helvetica,sans-Serif" font-size="10.00">Parameters</text>
</a>
</g>
</g>
<!-- Node2 -->
<g id="node2" class="node">
<title>Node2</title>
<g id="a_node2"><a xlink:href="struct_m_o_d_e_l_1_1_blood_vessel_1_1_parameters.html" target="_top" xlink:title="Parameters of the element.">
<polygon fill="none" stroke="black" points="160.5,-147.5 160.5,-177.5 270.5,-177.5 270.5,-147.5 160.5,-147.5"/>
<text text-anchor="start" x="168.5" y="-165.5" font-family="Helvetica,sans-Serif" font-size="10.00">MODEL::BloodVessel</text>
<text text-anchor="middle" x="215.5" y="-154.5" font-family="Helvetica,sans-Serif" font-size="10.00">&lt; T &gt;::Parameters</text>
</a>
</g>
</g>
<!-- Node1&#45;&gt;Node2 -->
<g id="edge1" class="edge">
<title>Node1&#45;&gt;Node2</title>
<path fill="none" stroke="midnightblue" d="M86.94,-108.8C103.36,-118.56 123.82,-129.96 143,-138.5 150.18,-141.7 157.92,-144.71 165.56,-147.46"/>
<polygon fill="midnightblue" stroke="midnightblue" points="88.64,-105.74 78.27,-103.58 85.03,-111.73 88.64,-105.74"/>
</g>
<!-- Node3 -->
<g id="node3" class="node">
<title>Node3</title>
<g id="a_node3"><a xlink:href="struct_m_o_d_e_l_1_1_flow_reference_1_1_parameters.html" target="_top" xlink:title="Parameters of the element.">
<polygon fill="none" stroke="black" points="155,-98.5 155,-128.5 276,-128.5 276,-98.5 155,-98.5"/>
<text text-anchor="start" x="163" y="-116.5" font-family="Helvetica,sans-Serif" font-size="10.00">MODEL::FlowReference</text>
<text text-anchor="middle" x="215.5" y="-105.5" font-family="Helvetica,sans-Serif" font-size="10.00">&lt; T &gt;::Parameters</text>
</a>
</g>
</g>
<!-- Node1&#45;&gt;Node3 -->
<g id="edge2" class="edge">
<title>Node1&#45;&gt;Node3</title>
<path fill="none" stroke="midnightblue" d="M117.5,-98.34C129.78,-100.26 142.63,-102.27 154.81,-104.17"/>
<polygon fill="midnightblue" stroke="midnightblue" points="117.75,-94.84 107.33,-96.76 116.67,-101.76 117.75,-94.84"/>
</g>
<!-- Node4 -->
<g id="node4" class="node">
<title>Node4</title>
<g id="a_node4"><a xlink:href="struct_m_o_d_e_l_1_1_junction_1_1_parameters.html" target="_top" xlink:title="Parameters of the element.">
<polygon fill="none" stroke="black" points="162,-49.5 162,-79.5 269,-79.5 269,-49.5 162,-49.5"/>
<text text-anchor="start" x="170" y="-67.5" font-family="Helvetica,sans-Serif" font-size="10.00">MODEL::Junction&lt; T</text>
<text text-anchor="middle" x="215.5" y="-56.5" font-family="Helvetica,sans-Serif" font-size="10.00"> &gt;::Parameters</text>
</a>
</g>
</g>
<!-- Node1&#45;&gt;Node4 -->
<g id="edge3" class="edge">
<title>Node1&#45;&gt;Node4</title>
<path fill="none" stroke="midnightblue" d="M117.4,-79.07C132.16,-76.85 147.74,-74.51 161.99,-72.38"/>
<polygon fill="midnightblue" stroke="midnightblue" points="116.7,-75.63 107.33,-80.57 117.74,-82.55 116.7,-75.63"/>
</g>
<!-- Node5 -->
<g id="node5" class="node">
<title>Node5</title>
<g id="a_node5"><a xlink:href="struct_m_o_d_e_l_1_1_r_c_r_block_with_distal_pressure_1_1_parameters.html" target="_top" xlink:title="Parameters of the element.">
<polygon fill="none" stroke="black" points="143,-0.5 143,-30.5 288,-30.5 288,-0.5 143,-0.5"/>
<text text-anchor="start" x="151" y="-18.5" font-family="Helvetica,sans-Serif" font-size="10.00">MODEL::RCRBlockWithDistal</text>
<text text-anchor="middle" x="215.5" y="-7.5" font-family="Helvetica,sans-Serif" font-size="10.00">Pressure&lt; T &gt;::Parameters</text>
</a>
</g>
</g>
<!-- Node1&#45;&gt;Node5 -->
<g id="edge4" class="edge">
<title>Node1&#45;&gt;Node5</title>
<path fill="none" stroke="midnightblue" d="M88.94,-68.15C105.06,-59.06 124.7,-48.6 143,-40.5 150.94,-36.99 159.53,-33.62 167.92,-30.57"/>
<polygon fill="midnightblue" stroke="midnightblue" points="86.85,-65.31 79.9,-73.31 90.32,-71.39 86.85,-65.31"/>
</g>
</g>
</svg>
