<?xml version="1.0" encoding="UTF-8" standalone="no"?>
<!DOCTYPE svg PUBLIC "-//W3C//DTD SVG 1.1//EN"
 "http://www.w3.org/Graphics/SVG/1.1/DTD/svg11.dtd">
<!-- Generated by graphviz version 3.0.0 (20220413.0242)
 -->
<!-- Title: MODEL::Block&lt; T &gt;::Parameters Pages: 1 -->
<svg width="328pt" height="480pt"
 viewBox="0.00 0.00 328.00 480.00" xmlns="http://www.w3.org/2000/svg" xmlns:xlink="http://www.w3.org/1999/xlink">
<g id="graph0" class="graph" transform="scale(1 1) rotate(0) translate(4 476)">
<title>MODEL::Block&lt; T &gt;::Parameters</title>
<!-- Node1 -->
<g id="node1" class="node">
<title>Node1</title>
<g id="a_node1"><a xlink:title="Parameters of the element.">
<polygon fill="#bfbfbf" stroke="black" points="0,-220.5 0,-250.5 107,-250.5 107,-220.5 0,-220.5"/>
<text text-anchor="start" x="8" y="-238.5" font-family="Helvetica,sans-Serif" font-size="10.00">MODEL::Block&lt; T &gt;::</text>
<text text-anchor="middle" x="53.5" y="-227.5" font-family="Helvetica,sans-Serif" font-size="10.00">Parameters</text>
</a>
</g>
</g>
<!-- Node2 -->
<g id="node2" class="node">
<title>Node2</title>
<g id="a_node2"><a xlink:href="struct_m_o_d_e_l_1_1_blood_vessel_1_1_parameters.html" target="_top" xlink:title="Parameters of the element.">
<polygon fill="none" stroke="black" points="176.5,-441.5 176.5,-471.5 286.5,-471.5 286.5,-441.5 176.5,-441.5"/>
<text text-anchor="start" x="184.5" y="-459.5" font-family="Helvetica,sans-Serif" font-size="10.00">MODEL::BloodVessel</text>
<text text-anchor="middle" x="231.5" y="-448.5" font-family="Helvetica,sans-Serif" font-size="10.00">&lt; T &gt;::Parameters</text>
</a>
</g>
</g>
<!-- Node1&#45;&gt;Node2 -->
<g id="edge1" class="edge">
<title>Node1&#45;&gt;Node2</title>
<path fill="none" stroke="midnightblue" d="M58.69,-260.64C67.02,-302.62 89.69,-386.85 143,-432.5 152.45,-440.59 164.4,-445.98 176.41,-449.55"/>
<polygon fill="midnightblue" stroke="midnightblue" points="62.11,-259.88 56.83,-250.7 55.23,-261.17 62.11,-259.88"/>
</g>
<!-- Node3 -->
<g id="node3" class="node">
<title>Node3</title>
<g id="a_node3"><a xlink:href="struct_m_o_d_e_l_1_1_closed_loop_coronary_b_c_1_1_parameters.html" target="_top" xlink:title="Parameters of the element.">
<polygon fill="none" stroke="black" points="158.5,-392.5 158.5,-422.5 304.5,-422.5 304.5,-392.5 158.5,-392.5"/>
<text text-anchor="start" x="166.5" y="-410.5" font-family="Helvetica,sans-Serif" font-size="10.00">MODEL::ClosedLoopCoronary</text>
<text text-anchor="middle" x="231.5" y="-399.5" font-family="Helvetica,sans-Serif" font-size="10.00">BC&lt; T &gt;::Parameters</text>
</a>
</g>
</g>
<!-- Node1&#45;&gt;Node3 -->
<g id="edge2" class="edge">
<title>Node1&#45;&gt;Node3</title>
<path fill="none" stroke="midnightblue" d="M62.74,-260.51C74.96,-293.65 101.06,-351.63 143,-383.5 147.64,-387.03 152.77,-390.03 158.14,-392.6"/>
<polygon fill="midnightblue" stroke="midnightblue" points="65.9,-258.94 59.26,-250.69 59.3,-261.28 65.9,-258.94"/>
</g>
<!-- Node4 -->
<g id="node4" class="node">
<title>Node4</title>
<g id="a_node4"><a xlink:href="struct_m_o_d_e_l_1_1_closed_loop_heart_pulmonary_1_1_parameters.html" target="_top" xlink:title="Parameters of the element.">
<polygon fill="none" stroke="black" points="143,-343.5 143,-373.5 320,-373.5 320,-343.5 143,-343.5"/>
<text text-anchor="start" x="151" y="-361.5" font-family="Helvetica,sans-Serif" font-size="10.00">MODEL::ClosedLoopHeartPulmonary</text>
<text text-anchor="middle" x="231.5" y="-350.5" font-family="Helvetica,sans-Serif" font-size="10.00">&lt; T &gt;::Parameters</text>
</a>
</g>
</g>
<!-- Node1&#45;&gt;Node4 -->
<g id="edge3" class="edge">
<title>Node1&#45;&gt;Node4</title>
<path fill="none" stroke="midnightblue" d="M69.59,-259.1C85.28,-281.72 111.86,-315.21 143,-334.5 148.49,-337.9 154.47,-340.83 160.63,-343.35"/>
<polygon fill="midnightblue" stroke="midnightblue" points="72.44,-257.05 63.94,-250.72 66.63,-260.97 72.44,-257.05"/>
</g>
<!-- Node5 -->
<g id="node5" class="node">
<title>Node5</title>
<g id="a_node5"><a xlink:href="struct_m_o_d_e_l_1_1_closed_loop_r_c_r_b_c_1_1_parameters.html" target="_top" xlink:title="Parameters of the element.">
<polygon fill="none" stroke="black" points="161,-294.5 161,-324.5 302,-324.5 302,-294.5 161,-294.5"/>
<text text-anchor="start" x="169" y="-312.5" font-family="Helvetica,sans-Serif" font-size="10.00">MODEL::ClosedLoopRCRBC</text>
<text text-anchor="middle" x="231.5" y="-301.5" font-family="Helvetica,sans-Serif" font-size="10.00">&lt; T &gt;::Parameters</text>
</a>
</g>
</g>
<!-- Node1&#45;&gt;Node5 -->
<g id="edge4" class="edge">
<title>Node1&#45;&gt;Node5</title>
<path fill="none" stroke="midnightblue" d="M86.05,-255.84C102.53,-265.81 123.31,-277.39 143,-285.5 151.01,-288.8 159.62,-291.79 168.19,-294.45"/>
<polygon fill="midnightblue" stroke="midnightblue" points="87.72,-252.77 77.37,-250.5 84.05,-258.73 87.72,-252.77"/>
</g>
<!-- Node6 -->
<g id="node6" class="node">
<title>Node6</title>
<g id="a_node6"><a xlink:href="struct_m_o_d_e_l_1_1_flow_reference_b_c_1_1_parameters.html" target="_top" xlink:title="Parameters of the element.">
<polygon fill="none" stroke="black" points="164.5,-245.5 164.5,-275.5 298.5,-275.5 298.5,-245.5 164.5,-245.5"/>
<text text-anchor="start" x="172.5" y="-263.5" font-family="Helvetica,sans-Serif" font-size="10.00">MODEL::FlowReferenceBC</text>
<text text-anchor="middle" x="231.5" y="-252.5" font-family="Helvetica,sans-Serif" font-size="10.00">&lt; T &gt;::Parameters</text>
</a>
</g>
</g>
<!-- Node1&#45;&gt;Node6 -->
<g id="edge5" class="edge">
<title>Node1&#45;&gt;Node6</title>
<path fill="none" stroke="midnightblue" d="M117.61,-244.46C132.77,-246.62 149.01,-248.93 164.31,-251.1"/>
<polygon fill="midnightblue" stroke="midnightblue" points="117.7,-240.94 107.31,-243 116.71,-247.87 117.7,-240.94"/>
</g>
<!-- Node7 -->
<g id="node7" class="node">
<title>Node7</title>
<g id="a_node7"><a xlink:href="struct_m_o_d_e_l_1_1_junction_1_1_parameters.html" target="_top" xlink:title="Parameters of the element.">
<polygon fill="none" stroke="black" points="178,-196.5 178,-226.5 285,-226.5 285,-196.5 178,-196.5"/>
<text text-anchor="start" x="186" y="-214.5" font-family="Helvetica,sans-Serif" font-size="10.00">MODEL::Junction&lt; T</text>
<text text-anchor="middle" x="231.5" y="-203.5" font-family="Helvetica,sans-Serif" font-size="10.00"> &gt;::Parameters</text>
</a>
</g>
</g>
<!-- Node1&#45;&gt;Node7 -->
<g id="edge6" class="edge">
<title>Node1&#45;&gt;Node7</title>
<path fill="none" stroke="midnightblue" d="M117.44,-226.92C137.18,-224.22 158.77,-221.28 177.73,-218.7"/>
<polygon fill="midnightblue" stroke="midnightblue" points="116.74,-223.48 107.31,-228.3 117.69,-230.42 116.74,-223.48"/>
</g>
<!-- Node8 -->
<g id="node8" class="node">
<title>Node8</title>
<g id="a_node8"><a xlink:href="struct_m_o_d_e_l_1_1_open_loop_coronary_b_c_1_1_parameters.html" target="_top" xlink:title="Parameters of the element.">
<polygon fill="none" stroke="black" points="155.5,-147.5 155.5,-177.5 307.5,-177.5 307.5,-147.5 155.5,-147.5"/>
<text text-anchor="start" x="163.5" y="-165.5" font-family="Helvetica,sans-Serif" font-size="10.00">MODEL::OpenLoopCoronaryBC</text>
<text text-anchor="middle" x="231.5" y="-154.5" font-family="Helvetica,sans-Serif" font-size="10.00">&lt; T &gt;::Parameters</text>
</a>
</g>
</g>
<!-- Node1&#45;&gt;Node8 -->
<g id="edge7" class="edge">
<title>Node1&#45;&gt;Node8</title>
<path fill="none" stroke="midnightblue" d="M88.03,-215.06C104.23,-205.77 124.2,-195.18 143,-187.5 151.92,-183.86 161.56,-180.53 171.07,-177.58"/>
<polygon fill="midnightblue" stroke="midnightblue" points="85.84,-212.28 78.96,-220.34 89.37,-218.33 85.84,-212.28"/>
</g>
<!-- Node9 -->
<g id="node9" class="node">
<title>Node9</title>
<g id="a_node9"><a xlink:href="struct_m_o_d_e_l_1_1_pressure_reference_b_c_1_1_parameters.html" target="_top" xlink:title="Parameters of the element.">
<polygon fill="none" stroke="black" points="162,-98.5 162,-128.5 301,-128.5 301,-98.5 162,-98.5"/>
<text text-anchor="start" x="170" y="-116.5" font-family="Helvetica,sans-Serif" font-size="10.00">MODEL::PressureReference</text>
<text text-anchor="middle" x="231.5" y="-105.5" font-family="Helvetica,sans-Serif" font-size="10.00">BC&lt; T &gt;::Parameters</text>
</a>
</g>
</g>
<!-- Node1&#45;&gt;Node9 -->
<g id="edge8" class="edge">
<title>Node1&#45;&gt;Node9</title>
<path fill="none" stroke="midnightblue" d="M70.22,-211.79C86.07,-189.7 112.51,-157.39 143,-138.5 149.18,-134.67 155.96,-131.41 162.93,-128.64"/>
<polygon fill="midnightblue" stroke="midnightblue" points="67.15,-210.08 64.29,-220.29 72.89,-214.09 67.15,-210.08"/>
</g>
<!-- Node10 -->
<g id="node10" class="node">
<title>Node10</title>
<g id="a_node10"><a xlink:href="struct_m_o_d_e_l_1_1_resistance_b_c_1_1_parameters.html" target="_top" xlink:title="Parameters of the element.">
<polygon fill="none" stroke="black" points="172.5,-49.5 172.5,-79.5 290.5,-79.5 290.5,-49.5 172.5,-49.5"/>
<text text-anchor="start" x="180.5" y="-67.5" font-family="Helvetica,sans-Serif" font-size="10.00">MODEL::ResistanceBC</text>
<text text-anchor="middle" x="231.5" y="-56.5" font-family="Helvetica,sans-Serif" font-size="10.00">&lt; T &gt;::Parameters</text>
</a>
</g>
</g>
<!-- Node1&#45;&gt;Node10 -->
<g id="edge9" class="edge">
<title>Node1&#45;&gt;Node10</title>
<path fill="none" stroke="midnightblue" d="M63.08,-210.38C75.54,-177.68 101.76,-120.99 143,-89.5 151.54,-82.98 161.72,-78.16 172.06,-74.6"/>
<polygon fill="midnightblue" stroke="midnightblue" points="59.67,-209.5 59.52,-220.1 66.25,-211.91 59.67,-209.5"/>
</g>
<!-- Node11 -->
<g id="node11" class="node">
<title>Node11</title>
<g id="a_node11"><a xlink:href="struct_m_o_d_e_l_1_1_windkessel_b_c_1_1_parameters.html" target="_top" xlink:title="Parameters of the element.">
<polygon fill="none" stroke="black" points="172,-0.5 172,-30.5 291,-30.5 291,-0.5 172,-0.5"/>
<text text-anchor="start" x="180" y="-18.5" font-family="Helvetica,sans-Serif" font-size="10.00">MODEL::WindkesselBC</text>
<text text-anchor="middle" x="231.5" y="-7.5" font-family="Helvetica,sans-Serif" font-size="10.00">&lt; T &gt;::Parameters</text>
</a>
</g>
</g>
<!-- Node1&#45;&gt;Node11 -->
<g id="edge10" class="edge">
<title>Node1&#45;&gt;Node11</title>
<path fill="none" stroke="midnightblue" d="M58.82,-210.67C67.34,-169.2 90.29,-85.95 143,-40.5 151.26,-33.38 161.42,-28.28 171.86,-24.64"/>
<polygon fill="midnightblue" stroke="midnightblue" points="55.38,-210.01 56.91,-220.49 62.25,-211.34 55.38,-210.01"/>
</g>
</g>
</svg>
