<?xml version="1.0" encoding="UTF-8" standalone="no"?>
<!DOCTYPE svg PUBLIC "-//W3C//DTD SVG 1.1//EN"
 "http://www.w3.org/Graphics/SVG/1.1/DTD/svg11.dtd">
<!-- Generated by graphviz version 3.0.0 (20220413.0242)
 -->
<!-- Title: model/timedependentparameter.hpp Pages: 1 -->
<svg width="984pt" height="308pt"
 viewBox="0.00 0.00 983.61 308.00" xmlns="http://www.w3.org/2000/svg" xmlns:xlink="http://www.w3.org/1999/xlink">
<g id="graph0" class="graph" transform="scale(1 1) rotate(0) translate(4 304)">
<title>model/timedependentparameter.hpp</title>
<!-- Node1 -->
<g id="node1" class="node">
<title>Node1</title>
<g id="a_node1"><a xlink:title="MODEL::TimeDependentParameter source file.">
<polygon fill="#bfbfbf" stroke="black" points="750.11,-280.5 750.11,-299.5 921.11,-299.5 921.11,-280.5 750.11,-280.5"/>
<text text-anchor="middle" x="835.61" y="-287.5" font-family="Helvetica,sans-Serif" font-size="10.00">model/timedependentparameter.hpp</text>
</a>
</g>
</g>
<!-- Node2 -->
<g id="node2" class="node">
<title>Node2</title>
<g id="a_node2"><a xlink:href="flowreference_8hpp.html" target="_top" xlink:title="MODEL::FlowReference source file.">
<polygon fill="none" stroke="black" points="626.61,-224.5 626.61,-243.5 748.61,-243.5 748.61,-224.5 626.61,-224.5"/>
<text text-anchor="middle" x="687.61" y="-231.5" font-family="Helvetica,sans-Serif" font-size="10.00">model/flowreference.hpp</text>
</a>
</g>
</g>
<!-- Node1&#45;&gt;Node2 -->
<g id="edge1" class="edge">
<title>Node1&#45;&gt;Node2</title>
<path fill="none" stroke="midnightblue" d="M802.46,-276.91C774.64,-266.75 735.59,-252.51 710.95,-243.52"/>
<polygon fill="midnightblue" stroke="midnightblue" points="801.56,-280.3 812.16,-280.44 803.96,-273.73 801.56,-280.3"/>
</g>
<!-- Node10 -->
<g id="node10" class="node">
<title>Node10</title>
<g id="a_node10"><a xlink:href="pressurereference_8hpp.html" target="_top" xlink:title="MODEL::PressureReference source file.">
<polygon fill="none" stroke="black" points="627.61,-0.5 627.61,-19.5 769.61,-19.5 769.61,-0.5 627.61,-0.5"/>
<text text-anchor="middle" x="698.61" y="-7.5" font-family="Helvetica,sans-Serif" font-size="10.00">model/pressurereference.hpp</text>
</a>
</g>
</g>
<!-- Node1&#45;&gt;Node10 -->
<g id="edge33" class="edge">
<title>Node1&#45;&gt;Node10</title>
<path fill="none" stroke="midnightblue" d="M827.86,-271.03C810.66,-231.54 767.51,-134.42 725.61,-56 718.74,-43.14 709.91,-28.78 704.25,-19.81"/>
<polygon fill="midnightblue" stroke="midnightblue" points="824.72,-272.6 831.91,-280.39 831.14,-269.82 824.72,-272.6"/>
</g>
<!-- Node12 -->
<g id="node12" class="node">
<title>Node12</title>
<g id="a_node12"><a xlink:href="resistancewithdistalpressure_8hpp.html" target="_top" xlink:title="MODEL::ResistanceWithDistalPressure source file.">
<polygon fill="none" stroke="black" points="787.61,-0.5 787.61,-19.5 975.61,-19.5 975.61,-0.5 787.61,-0.5"/>
<text text-anchor="middle" x="881.61" y="-7.5" font-family="Helvetica,sans-Serif" font-size="10.00">model/resistancewithdistalpressure.hpp</text>
</a>
</g>
</g>
<!-- Node1&#45;&gt;Node12 -->
<g id="edge34" class="edge">
<title>Node1&#45;&gt;Node12</title>
<path fill="none" stroke="midnightblue" d="M847.7,-272C861.33,-251.14 881.61,-214.18 881.61,-179 881.61,-179 881.61,-179 881.61,-121 881.61,-83.19 881.61,-38.06 881.61,-19.56"/>
<polygon fill="midnightblue" stroke="midnightblue" points="844.73,-270.15 842,-280.39 850.52,-274.08 844.73,-270.15"/>
</g>
<!-- Node3 -->
<g id="node3" class="node">
<title>Node3</title>
<g id="a_node3"><a xlink:href="model_8hpp.html" target="_top" xlink:title="MODEL::Model source file.">
<polygon fill="none" stroke="black" points="409.61,-168.5 409.61,-187.5 499.61,-187.5 499.61,-168.5 409.61,-168.5"/>
<text text-anchor="middle" x="454.61" y="-175.5" font-family="Helvetica,sans-Serif" font-size="10.00">model/model.hpp</text>
</a>
</g>
</g>
<!-- Node2&#45;&gt;Node3 -->
<g id="edge2" class="edge">
<title>Node2&#45;&gt;Node3</title>
<path fill="none" stroke="midnightblue" d="M640.8,-222.15C596.78,-211.95 531.76,-196.88 491.35,-187.52"/>
<polygon fill="midnightblue" stroke="midnightblue" points="640.16,-225.6 650.69,-224.44 641.74,-218.78 640.16,-225.6"/>
</g>
<!-- Node4 -->
<g id="node4" class="node">
<title>Node4</title>
<g id="a_node4"><a xlink:href="integrator_8hpp.html" target="_top" xlink:title="ALGEBRA::Integrator source file.">
<polygon fill="none" stroke="black" points="277.61,-112.5 277.61,-131.5 387.61,-131.5 387.61,-112.5 277.61,-112.5"/>
<text text-anchor="middle" x="332.61" y="-119.5" font-family="Helvetica,sans-Serif" font-size="10.00">algebra/integrator.hpp</text>
</a>
</g>
</g>
<!-- Node3&#45;&gt;Node4 -->
<g id="edge3" class="edge">
<title>Node3&#45;&gt;Node4</title>
<path fill="none" stroke="midnightblue" d="M426.07,-164.37C403.22,-154.26 371.8,-140.35 351.85,-131.52"/>
<polygon fill="midnightblue" stroke="midnightblue" points="424.71,-167.6 435.28,-168.44 427.55,-161.2 424.71,-167.6"/>
</g>
<!-- Node5 -->
<g id="node5" class="node">
<title>Node5</title>
<g id="a_node5"><a xlink:href="main_8cpp.html" target="_top" xlink:title="Main routine of svZeroDSolver.">
<polygon fill="none" stroke="black" points="262.61,-56.5 262.61,-75.5 318.61,-75.5 318.61,-56.5 262.61,-56.5"/>
<text text-anchor="middle" x="290.61" y="-63.5" font-family="Helvetica,sans-Serif" font-size="10.00">main.cpp</text>
</a>
</g>
</g>
<!-- Node3&#45;&gt;Node5 -->
<g id="edge32" class="edge">
<title>Node3&#45;&gt;Node5</title>
<path fill="none" stroke="midnightblue" d="M399.33,-171.13C350.51,-164.68 284.67,-152.41 268.61,-132 255.2,-114.96 271.97,-89.3 282.79,-75.88"/>
<polygon fill="midnightblue" stroke="midnightblue" points="399.1,-174.63 409.46,-172.42 399.98,-167.69 399.1,-174.63"/>
</g>
<!-- Node6 -->
<g id="node6" class="node">
<title>Node6</title>
<g id="a_node6"><a xlink:href="sparsesystem_8hpp.html" target="_top" xlink:title="ALGEBRA::SparseSystem source file.">
<polygon fill="none" stroke="black" points="559.61,-112.5 559.61,-131.5 689.61,-131.5 689.61,-112.5 559.61,-112.5"/>
<text text-anchor="middle" x="624.61" y="-119.5" font-family="Helvetica,sans-Serif" font-size="10.00">algebra/sparsesystem.hpp</text>
</a>
</g>
</g>
<!-- Node3&#45;&gt;Node6 -->
<g id="edge5" class="edge">
<title>Node3&#45;&gt;Node6</title>
<path fill="none" stroke="midnightblue" d="M486.15,-165.17C516.57,-155 562.17,-140.59 592.72,-131.52"/>
<polygon fill="midnightblue" stroke="midnightblue" points="484.81,-161.93 476.46,-168.44 487.05,-168.56 484.81,-161.93"/>
</g>
<!-- Node13 -->
<g id="node13" class="node">
<title>Node13</title>
<g id="a_node13"><a xlink:href="configreader_8hpp.html" target="_top" xlink:title="IO::ConfigReader source file.">
<polygon fill="none" stroke="black" points="405.61,-112.5 405.61,-131.5 503.61,-131.5 503.61,-112.5 405.61,-112.5"/>
<text text-anchor="middle" x="454.61" y="-119.5" font-family="Helvetica,sans-Serif" font-size="10.00">io/configreader.hpp</text>
</a>
</g>
</g>
<!-- Node3&#45;&gt;Node13 -->
<g id="edge26" class="edge">
<title>Node3&#45;&gt;Node13</title>
<path fill="none" stroke="midnightblue" d="M454.61,-157.8C454.61,-148.91 454.61,-138.78 454.61,-131.75"/>
<polygon fill="midnightblue" stroke="midnightblue" points="451.11,-158.08 454.61,-168.08 458.11,-158.08 451.11,-158.08"/>
</g>
<!-- Node14 -->
<g id="node14" class="node">
<title>Node14</title>
<g id="a_node14"><a xlink:href="csvwriter_8hpp.html" target="_top" xlink:title="IO::write_csv source file.">
<polygon fill="none" stroke="black" points="31.11,-112.5 31.11,-131.5 116.11,-131.5 116.11,-112.5 31.11,-112.5"/>
<text text-anchor="middle" x="73.61" y="-119.5" font-family="Helvetica,sans-Serif" font-size="10.00">io/csvwriter.hpp</text>
</a>
</g>
</g>
<!-- Node3&#45;&gt;Node14 -->
<g id="edge28" class="edge">
<title>Node3&#45;&gt;Node14</title>
<path fill="none" stroke="midnightblue" d="M399.3,-170.13C333.68,-161.82 221,-147.07 124.61,-132 121.85,-131.57 119.02,-131.11 116.16,-130.64"/>
<polygon fill="midnightblue" stroke="midnightblue" points="399.06,-173.63 409.42,-171.41 399.94,-166.68 399.06,-173.63"/>
</g>
<!-- Node15 -->
<g id="node15" class="node">
<title>Node15</title>
<g id="a_node15"><a xlink:href="jsonwriter_8hpp.html" target="_top" xlink:title="IO::write_json source file.">
<polygon fill="none" stroke="black" points="134.11,-112.5 134.11,-131.5 221.11,-131.5 221.11,-112.5 134.11,-112.5"/>
<text text-anchor="middle" x="177.61" y="-119.5" font-family="Helvetica,sans-Serif" font-size="10.00">io/jsonwriter.hpp</text>
</a>
</g>
</g>
<!-- Node3&#45;&gt;Node15 -->
<g id="edge30" class="edge">
<title>Node3&#45;&gt;Node15</title>
<path fill="none" stroke="midnightblue" d="M400.61,-166.47C348.26,-156.27 269.84,-140.98 221.29,-131.52"/>
<polygon fill="midnightblue" stroke="midnightblue" points="400.23,-169.97 410.72,-168.44 401.57,-163.09 400.23,-169.97"/>
</g>
<!-- Node4&#45;&gt;Node5 -->
<g id="edge4" class="edge">
<title>Node4&#45;&gt;Node5</title>
<path fill="none" stroke="midnightblue" d="M319.5,-104.14C312.18,-94.74 303.37,-83.4 297.41,-75.75"/>
<polygon fill="midnightblue" stroke="midnightblue" points="316.77,-106.34 325.67,-112.08 322.3,-102.04 316.77,-106.34"/>
</g>
<!-- Node6&#45;&gt;Node2 -->
<g id="edge20" class="edge">
<title>Node6&#45;&gt;Node2</title>
<path fill="none" stroke="midnightblue" d="M634.52,-140.31C648.19,-164.18 672.31,-206.3 682.66,-224.37"/>
<polygon fill="midnightblue" stroke="midnightblue" points="637.53,-138.53 629.53,-131.59 631.46,-142.01 637.53,-138.53"/>
</g>
<!-- Node6&#45;&gt;Node3 -->
<g id="edge22" class="edge">
<title>Node6&#45;&gt;Node3</title>
<path fill="none" stroke="midnightblue" d="M593.2,-134.78C562.82,-144.94 517.22,-159.36 486.63,-168.44"/>
<polygon fill="midnightblue" stroke="midnightblue" points="594.52,-138.03 602.88,-131.52 592.28,-131.4 594.52,-138.03"/>
</g>
<!-- Node6&#45;&gt;Node5 -->
<g id="edge6" class="edge">
<title>Node6&#45;&gt;Node5</title>
<path fill="none" stroke="midnightblue" d="M561.7,-110.83C488.81,-99.04 371.91,-80.14 318.66,-71.54"/>
<polygon fill="midnightblue" stroke="midnightblue" points="561.25,-114.3 571.68,-112.44 562.37,-107.39 561.25,-114.3"/>
</g>
<!-- Node7 -->
<g id="node7" class="node">
<title>Node7</title>
<g id="a_node7"><a xlink:href="block_8hpp.html" target="_top" xlink:title="MODEL::Block source file.">
<polygon fill="none" stroke="black" points="576.11,-56.5 576.11,-75.5 663.11,-75.5 663.11,-56.5 576.11,-56.5"/>
<text text-anchor="middle" x="619.61" y="-63.5" font-family="Helvetica,sans-Serif" font-size="10.00">model/block.hpp</text>
</a>
</g>
</g>
<!-- Node6&#45;&gt;Node7 -->
<g id="edge7" class="edge">
<title>Node6&#45;&gt;Node7</title>
<path fill="none" stroke="midnightblue" d="M622.86,-102.1C622.03,-93.14 621.08,-82.86 620.42,-75.75"/>
<polygon fill="midnightblue" stroke="midnightblue" points="619.37,-102.45 623.78,-112.08 626.34,-101.8 619.37,-102.45"/>
</g>
<!-- Node8 -->
<g id="node8" class="node">
<title>Node8</title>
<g id="a_node8"><a xlink:href="bloodvessel_8hpp.html" target="_top" xlink:title="MODEL::BloodVessel source file.">
<polygon fill="none" stroke="black" points="182.61,-0.5 182.61,-19.5 298.61,-19.5 298.61,-0.5 182.61,-0.5"/>
<text text-anchor="middle" x="240.61" y="-7.5" font-family="Helvetica,sans-Serif" font-size="10.00">model/bloodvessel.hpp</text>
</a>
</g>
</g>
<!-- Node6&#45;&gt;Node8 -->
<g id="edge19" class="edge">
<title>Node6&#45;&gt;Node8</title>
<path fill="none" stroke="midnightblue" d="M584.97,-109.65C507.8,-87.54 338.94,-39.17 270.4,-19.53"/>
<polygon fill="midnightblue" stroke="midnightblue" points="584.22,-113.07 594.79,-112.46 586.15,-106.34 584.22,-113.07"/>
</g>
<!-- Node9 -->
<g id="node9" class="node">
<title>Node9</title>
<g id="a_node9"><a xlink:href="junction_8hpp.html" target="_top" xlink:title="MODEL::Junction source file.">
<polygon fill="none" stroke="black" points="316.61,-0.5 316.61,-19.5 414.61,-19.5 414.61,-0.5 316.61,-0.5"/>
<text text-anchor="middle" x="365.61" y="-7.5" font-family="Helvetica,sans-Serif" font-size="10.00">model/junction.hpp</text>
</a>
</g>
</g>
<!-- Node6&#45;&gt;Node9 -->
<g id="edge21" class="edge">
<title>Node6&#45;&gt;Node9</title>
<path fill="none" stroke="midnightblue" d="M598.19,-107.89C570.43,-94.29 525.37,-72.72 485.61,-56 453,-42.29 414.6,-28.25 390.19,-19.58"/>
<polygon fill="midnightblue" stroke="midnightblue" points="596.73,-111.07 607.25,-112.35 599.82,-104.79 596.73,-111.07"/>
</g>
<!-- Node6&#45;&gt;Node10 -->
<g id="edge23" class="edge">
<title>Node6&#45;&gt;Node10</title>
<path fill="none" stroke="midnightblue" d="M644.52,-105.8C654.01,-97.76 664.94,-87.24 672.61,-76 685.08,-57.73 692.96,-32.59 696.47,-19.57"/>
<polygon fill="midnightblue" stroke="midnightblue" points="642.22,-103.16 636.67,-112.18 646.64,-108.59 642.22,-103.16"/>
</g>
<!-- Node11 -->
<g id="node11" class="node">
<title>Node11</title>
<g id="a_node11"><a xlink:href="rcrblockwithdistalpressure_8hpp.html" target="_top" xlink:title="MODEL::RCRBlockWithDistalPressure source file.">
<polygon fill="none" stroke="black" points="432.11,-0.5 432.11,-19.5 609.11,-19.5 609.11,-0.5 432.11,-0.5"/>
<text text-anchor="middle" x="520.61" y="-7.5" font-family="Helvetica,sans-Serif" font-size="10.00">model/rcrblockwithdistalpressure.hpp</text>
</a>
</g>
</g>
<!-- Node6&#45;&gt;Node11 -->
<g id="edge24" class="edge">
<title>Node6&#45;&gt;Node11</title>
<path fill="none" stroke="midnightblue" d="M603.15,-106.27C591.94,-98.04 578.35,-87.2 567.61,-76 550.07,-57.7 533.71,-32.57 525.72,-19.57"/>
<polygon fill="midnightblue" stroke="midnightblue" points="601.37,-109.29 611.54,-112.26 605.44,-103.6 601.37,-109.29"/>
</g>
<!-- Node6&#45;&gt;Node12 -->
<g id="edge25" class="edge">
<title>Node6&#45;&gt;Node12</title>
<path fill="none" stroke="midnightblue" d="M654.27,-108.3C707.17,-85.66 816.49,-38.87 861.53,-19.59"/>
<polygon fill="midnightblue" stroke="midnightblue" points="652.59,-105.22 644.77,-112.37 655.34,-111.65 652.59,-105.22"/>
</g>
<!-- Node7&#45;&gt;Node2 -->
<g id="edge10" class="edge">
<title>Node7&#45;&gt;Node2</title>
<path fill="none" stroke="midnightblue" d="M658.81,-79.54C674.03,-86.54 689.87,-96.97 698.61,-112 720.12,-149.02 700.6,-203.41 691.59,-224.35"/>
<polygon fill="midnightblue" stroke="midnightblue" points="660.06,-76.27 649.49,-75.61 657.34,-82.72 660.06,-76.27"/>
</g>
<!-- Node7&#45;&gt;Node8 -->
<g id="edge8" class="edge">
<title>Node7&#45;&gt;Node8</title>
<path fill="none" stroke="midnightblue" d="M565.74,-57.32C495.1,-47.26 371.66,-29.67 298.9,-19.31"/>
<polygon fill="midnightblue" stroke="midnightblue" points="565.37,-60.81 575.76,-58.75 566.35,-53.88 565.37,-60.81"/>
</g>
<!-- Node7&#45;&gt;Node9 -->
<g id="edge11" class="edge">
<title>Node7&#45;&gt;Node9</title>
<path fill="none" stroke="midnightblue" d="M569.49,-54.35C521.49,-44.14 449.99,-28.94 405.67,-19.52"/>
<polygon fill="midnightblue" stroke="midnightblue" points="568.85,-57.79 579.36,-56.44 570.31,-50.94 568.85,-57.79"/>
</g>
<!-- Node7&#45;&gt;Node10 -->
<g id="edge13" class="edge">
<title>Node7&#45;&gt;Node10</title>
<path fill="none" stroke="midnightblue" d="M640.64,-50.62C655.07,-40.76 673.75,-27.99 685.95,-19.65"/>
<polygon fill="midnightblue" stroke="midnightblue" points="638.58,-47.79 632.3,-56.32 642.53,-53.57 638.58,-47.79"/>
</g>
<!-- Node7&#45;&gt;Node11 -->
<g id="edge15" class="edge">
<title>Node7&#45;&gt;Node11</title>
<path fill="none" stroke="midnightblue" d="M594.77,-51.45C576.49,-41.48 552.19,-28.23 536.47,-19.65"/>
<polygon fill="midnightblue" stroke="midnightblue" points="593.25,-54.61 603.7,-56.32 596.6,-48.46 593.25,-54.61"/>
</g>
<!-- Node7&#45;&gt;Node12 -->
<g id="edge17" class="edge">
<title>Node7&#45;&gt;Node12</title>
<path fill="none" stroke="midnightblue" d="M670.99,-54.41C720.51,-44.2 794.47,-28.96 840.29,-19.52"/>
<polygon fill="midnightblue" stroke="midnightblue" points="670.21,-51 661.12,-56.44 671.62,-57.85 670.21,-51"/>
</g>
<!-- Node8&#45;&gt;Node3 -->
<g id="edge9" class="edge">
<title>Node8&#45;&gt;Node3</title>
<path fill="none" stroke="midnightblue" d="M175.39,-21.32C90.54,-37.35 -40.92,-72.74 12.61,-132 38.88,-161.08 302.05,-172.35 409.39,-175.76"/>
<polygon fill="midnightblue" stroke="midnightblue" points="176.04,-24.76 185.24,-19.5 174.77,-17.87 176.04,-24.76"/>
</g>
<!-- Node9&#45;&gt;Node3 -->
<g id="edge12" class="edge">
<title>Node9&#45;&gt;Node3</title>
<path fill="none" stroke="midnightblue" d="M306.71,-20.99C198.03,-40.67 -19.4,-86.51 21.61,-132 47.26,-160.45 303.88,-172.06 409.53,-175.66"/>
<polygon fill="midnightblue" stroke="midnightblue" points="307.33,-24.44 316.56,-19.23 306.1,-17.55 307.33,-24.44"/>
</g>
<!-- Node10&#45;&gt;Node3 -->
<g id="edge14" class="edge">
<title>Node10&#45;&gt;Node3</title>
<path fill="none" stroke="midnightblue" d="M705.09,-29.25C713.04,-55.26 722.71,-103.04 698.61,-132 673.8,-161.8 563.25,-171.94 499.8,-175.33"/>
<polygon fill="midnightblue" stroke="midnightblue" points="708.34,-27.95 701.89,-19.55 701.7,-30.15 708.34,-27.95"/>
</g>
<!-- Node11&#45;&gt;Node3 -->
<g id="edge16" class="edge">
<title>Node11&#45;&gt;Node3</title>
<path fill="none" stroke="midnightblue" d="M523.84,-29.46C527.25,-54.34 530,-99.27 512.61,-132 503.82,-148.54 486,-160.93 472.42,-168.47"/>
<polygon fill="midnightblue" stroke="midnightblue" points="527.3,-28.9 522.3,-19.56 520.38,-29.98 527.3,-28.9"/>
</g>
<!-- Node12&#45;&gt;Node3 -->
<g id="edge18" class="edge">
<title>Node12&#45;&gt;Node3</title>
<path fill="none" stroke="midnightblue" d="M865.77,-26.77C838.24,-53.19 778.64,-106.01 717.61,-132 645.37,-162.76 553.49,-172.52 499.65,-175.59"/>
<polygon fill="midnightblue" stroke="midnightblue" points="868.24,-29.26 872.96,-19.78 863.35,-24.25 868.24,-29.26"/>
</g>
<!-- Node13&#45;&gt;Node5 -->
<g id="edge27" class="edge">
<title>Node13&#45;&gt;Node5</title>
<path fill="none" stroke="midnightblue" d="M419.09,-109.3C388.19,-99.13 344.13,-84.62 316.47,-75.52"/>
<polygon fill="midnightblue" stroke="midnightblue" points="418.03,-112.64 428.62,-112.44 420.22,-105.99 418.03,-112.64"/>
</g>
<!-- Node14&#45;&gt;Node5 -->
<g id="edge29" class="edge">
<title>Node14&#45;&gt;Node5</title>
<path fill="none" stroke="midnightblue" d="M117.7,-110.03C161.05,-99.24 225.87,-83.11 262.59,-73.97"/>
<polygon fill="midnightblue" stroke="midnightblue" points="116.85,-106.63 107.99,-112.44 118.54,-113.43 116.85,-106.63"/>
</g>
<!-- Node15&#45;&gt;Node5 -->
<g id="edge31" class="edge">
<title>Node15&#45;&gt;Node5</title>
<path fill="none" stroke="midnightblue" d="M204.61,-108.1C225.72,-98.01 254.47,-84.27 272.79,-75.52"/>
<polygon fill="midnightblue" stroke="midnightblue" points="203.03,-104.97 195.51,-112.44 206.04,-111.29 203.03,-104.97"/>
</g>
</g>
</svg>
