<?xml version="1.0" encoding="UTF-8" standalone="no"?>
<!DOCTYPE svg PUBLIC "-//W3C//DTD SVG 1.1//EN"
 "http://www.w3.org/Graphics/SVG/1.1/DTD/svg11.dtd">
<!-- Generated by graphviz version 3.0.0 (20220413.0242)
 -->
<!-- Title: model/timedependentparameter.hpp Pages: 1 -->
<svg width="1011pt" height="420pt"
 viewBox="0.00 0.00 1011.00 420.00" xmlns="http://www.w3.org/2000/svg" xmlns:xlink="http://www.w3.org/1999/xlink">
<g id="graph0" class="graph" transform="scale(1 1) rotate(0) translate(4 416)">
<title>model/timedependentparameter.hpp</title>
<!-- Node1 -->
<g id="node1" class="node">
<title>Node1</title>
<g id="a_node1"><a xlink:title="MODEL::TimeDependentParameter source file.">
<polygon fill="#bfbfbf" stroke="black" points="428.5,-392.5 428.5,-411.5 599.5,-411.5 599.5,-392.5 428.5,-392.5"/>
<text text-anchor="middle" x="514" y="-399.5" font-family="Helvetica,sans-Serif" font-size="10.00">model/timedependentparameter.hpp</text>
</a>
</g>
</g>
<!-- Node2 -->
<g id="node2" class="node">
<title>Node2</title>
<g id="a_node2"><a xlink:href="flowreference_8hpp.html" target="_top" xlink:title="MODEL::FlowReference source file.">
<polygon fill="none" stroke="black" points="453,-336.5 453,-355.5 575,-355.5 575,-336.5 453,-336.5"/>
<text text-anchor="middle" x="514" y="-343.5" font-family="Helvetica,sans-Serif" font-size="10.00">model/flowreference.hpp</text>
</a>
</g>
</g>
<!-- Node1&#45;&gt;Node2 -->
<g id="edge1" class="edge">
<title>Node1&#45;&gt;Node2</title>
<path fill="none" stroke="midnightblue" d="M514,-381.8C514,-372.91 514,-362.78 514,-355.75"/>
<polygon fill="midnightblue" stroke="midnightblue" points="510.5,-382.08 514,-392.08 517.5,-382.08 510.5,-382.08"/>
</g>
<!-- Node3 -->
<g id="node3" class="node">
<title>Node3</title>
<g id="a_node3"><a xlink:href="model_8hpp.html" target="_top" xlink:title="MODEL::Model source file.">
<polygon fill="none" stroke="black" points="601,-280.5 601,-299.5 691,-299.5 691,-280.5 601,-280.5"/>
<text text-anchor="middle" x="646" y="-287.5" font-family="Helvetica,sans-Serif" font-size="10.00">model/model.hpp</text>
</a>
</g>
</g>
<!-- Node2&#45;&gt;Node3 -->
<g id="edge2" class="edge">
<title>Node2&#45;&gt;Node3</title>
<path fill="none" stroke="midnightblue" d="M544.22,-332.64C568.99,-322.5 603.4,-308.43 625.18,-299.52"/>
<polygon fill="midnightblue" stroke="midnightblue" points="542.85,-329.42 534.92,-336.44 545.5,-335.9 542.85,-329.42"/>
</g>
<!-- Node4 -->
<g id="node4" class="node">
<title>Node4</title>
<g id="a_node4"><a xlink:href="integrator_8hpp.html" target="_top" xlink:title="ALGEBRA::Integrator source file.">
<polygon fill="none" stroke="black" points="893,-168.5 893,-187.5 1003,-187.5 1003,-168.5 893,-168.5"/>
<text text-anchor="middle" x="948" y="-175.5" font-family="Helvetica,sans-Serif" font-size="10.00">algebra/integrator.hpp</text>
</a>
</g>
</g>
<!-- Node3&#45;&gt;Node4 -->
<g id="edge3" class="edge">
<title>Node3&#45;&gt;Node4</title>
<path fill="none" stroke="midnightblue" d="M701.45,-286.97C750.52,-283.2 822.85,-272.75 879,-244 906.25,-230.05 930.33,-202.06 941.46,-187.79"/>
<polygon fill="midnightblue" stroke="midnightblue" points="701.08,-283.48 691.35,-287.67 701.56,-290.47 701.08,-283.48"/>
</g>
<!-- Node5 -->
<g id="node5" class="node">
<title>Node5</title>
<g id="a_node5"><a xlink:href="main_8cpp.html" target="_top" xlink:title="Main routine of svZeroDSolver.">
<polygon fill="none" stroke="black" points="715,-0.5 715,-19.5 771,-19.5 771,-0.5 715,-0.5"/>
<text text-anchor="middle" x="743" y="-7.5" font-family="Helvetica,sans-Serif" font-size="10.00">main.cpp</text>
</a>
</g>
</g>
<!-- Node3&#45;&gt;Node5 -->
<g id="edge29" class="edge">
<title>Node3&#45;&gt;Node5</title>
<path fill="none" stroke="midnightblue" d="M659.18,-271.96C664.97,-263.84 671.47,-253.78 676,-244 714.41,-161.13 735.84,-51.34 741.48,-19.81"/>
<polygon fill="midnightblue" stroke="midnightblue" points="656.22,-270.06 653.08,-280.18 661.85,-274.23 656.22,-270.06"/>
</g>
<!-- Node6 -->
<g id="node6" class="node">
<title>Node6</title>
<g id="a_node6"><a xlink:href="sparsesystem_8hpp.html" target="_top" xlink:title="ALGEBRA::SparseSystem source file.">
<polygon fill="none" stroke="black" points="449,-224.5 449,-243.5 579,-243.5 579,-224.5 449,-224.5"/>
<text text-anchor="middle" x="514" y="-231.5" font-family="Helvetica,sans-Serif" font-size="10.00">algebra/sparsesystem.hpp</text>
</a>
</g>
</g>
<!-- Node3&#45;&gt;Node6 -->
<g id="edge5" class="edge">
<title>Node3&#45;&gt;Node6</title>
<path fill="none" stroke="midnightblue" d="M610.35,-276.77C584.04,-266.63 549.64,-252.47 529.74,-243.52"/>
<polygon fill="midnightblue" stroke="midnightblue" points="609.4,-280.16 620,-280.44 611.9,-273.61 609.4,-280.16"/>
</g>
<!-- Node11 -->
<g id="node11" class="node">
<title>Node11</title>
<g id="a_node11"><a xlink:href="configreader_8hpp.html" target="_top" xlink:title="IO::ConfigReader source file.">
<polygon fill="none" stroke="black" points="598,-56.5 598,-75.5 696,-75.5 696,-56.5 598,-56.5"/>
<text text-anchor="middle" x="647" y="-63.5" font-family="Helvetica,sans-Serif" font-size="10.00">io/configreader.hpp</text>
</a>
</g>
</g>
<!-- Node3&#45;&gt;Node11 -->
<g id="edge24" class="edge">
<title>Node3&#45;&gt;Node11</title>
<path fill="none" stroke="midnightblue" d="M652.1,-270.6C661.96,-238.24 679.12,-169.13 667,-112 664.16,-98.62 657.06,-84.39 652.13,-75.59"/>
<polygon fill="midnightblue" stroke="midnightblue" points="648.66,-269.85 648.97,-280.44 655.34,-271.96 648.66,-269.85"/>
</g>
<!-- Node13 -->
<g id="node13" class="node">
<title>Node13</title>
<g id="a_node13"><a xlink:href="csvwriter_8hpp.html" target="_top" xlink:title="IO::write_csv source file.">
<polygon fill="none" stroke="black" points="751.5,-224.5 751.5,-243.5 836.5,-243.5 836.5,-224.5 751.5,-224.5"/>
<text text-anchor="middle" x="794" y="-231.5" font-family="Helvetica,sans-Serif" font-size="10.00">io/csvwriter.hpp</text>
</a>
</g>
</g>
<!-- Node3&#45;&gt;Node13 -->
<g id="edge25" class="edge">
<title>Node3&#45;&gt;Node13</title>
<path fill="none" stroke="midnightblue" d="M679.15,-276.91C706.97,-266.75 746.02,-252.51 770.66,-243.52"/>
<polygon fill="midnightblue" stroke="midnightblue" points="677.65,-273.73 669.45,-280.44 680.04,-280.3 677.65,-273.73"/>
</g>
<!-- Node14 -->
<g id="node14" class="node">
<title>Node14</title>
<g id="a_node14"><a xlink:href="jsonwriter_8hpp.html" target="_top" xlink:title="IO::write_json source file.">
<polygon fill="none" stroke="black" points="813.5,-56.5 813.5,-75.5 900.5,-75.5 900.5,-56.5 813.5,-56.5"/>
<text text-anchor="middle" x="857" y="-63.5" font-family="Helvetica,sans-Serif" font-size="10.00">io/jsonwriter.hpp</text>
</a>
</g>
</g>
<!-- Node3&#45;&gt;Node14 -->
<g id="edge27" class="edge">
<title>Node3&#45;&gt;Node14</title>
<path fill="none" stroke="midnightblue" d="M701.34,-283.82C753.59,-277.7 826.59,-265.5 845,-244 887.87,-193.93 867.45,-103.89 859.6,-75.69"/>
<polygon fill="midnightblue" stroke="midnightblue" points="700.74,-280.37 691.19,-284.97 701.52,-287.33 700.74,-280.37"/>
</g>
<!-- Node4&#45;&gt;Node5 -->
<g id="edge4" class="edge">
<title>Node4&#45;&gt;Node5</title>
<path fill="none" stroke="midnightblue" d="M947.46,-157.96C945.65,-131.35 938.37,-83.23 910,-56 872.09,-19.61 807.97,-11.95 771.19,-10.74"/>
<polygon fill="midnightblue" stroke="midnightblue" points="943.98,-158.41 947.95,-168.23 950.97,-158.07 943.98,-158.41"/>
</g>
<!-- Node6&#45;&gt;Node2 -->
<g id="edge20" class="edge">
<title>Node6&#45;&gt;Node2</title>
<path fill="none" stroke="midnightblue" d="M514,-253.6C514,-277.67 514,-318.62 514,-336.37"/>
<polygon fill="midnightblue" stroke="midnightblue" points="517.5,-253.59 514,-243.59 510.5,-253.59 517.5,-253.59"/>
</g>
<!-- Node6&#45;&gt;Node3 -->
<g id="edge22" class="edge">
<title>Node6&#45;&gt;Node3</title>
<path fill="none" stroke="midnightblue" d="M549.53,-247.18C575.82,-257.31 610.22,-271.48 630.17,-280.44"/>
<polygon fill="midnightblue" stroke="midnightblue" points="550.49,-243.8 539.9,-243.52 548,-250.34 550.49,-243.8"/>
</g>
<!-- Node6&#45;&gt;Node5 -->
<g id="edge6" class="edge">
<title>Node6&#45;&gt;Node5</title>
<path fill="none" stroke="midnightblue" d="M515.79,-214.11C520.43,-176.88 536.42,-94.29 589,-56 627.05,-28.29 681.98,-17.55 714.92,-13.46"/>
<polygon fill="midnightblue" stroke="midnightblue" points="512.26,-214.17 514.65,-224.49 519.22,-214.94 512.26,-214.17"/>
</g>
<!-- Node7 -->
<g id="node7" class="node">
<title>Node7</title>
<g id="a_node7"><a xlink:href="block_8hpp.html" target="_top" xlink:title="MODEL::Block source file.">
<polygon fill="none" stroke="black" points="373.5,-168.5 373.5,-187.5 460.5,-187.5 460.5,-168.5 373.5,-168.5"/>
<text text-anchor="middle" x="417" y="-175.5" font-family="Helvetica,sans-Serif" font-size="10.00">model/block.hpp</text>
</a>
</g>
</g>
<!-- Node6&#45;&gt;Node7 -->
<g id="edge7" class="edge">
<title>Node6&#45;&gt;Node7</title>
<path fill="none" stroke="midnightblue" d="M489.66,-219.45C471.76,-209.48 447.95,-196.23 432.55,-187.65"/>
<polygon fill="midnightblue" stroke="midnightblue" points="487.98,-222.52 498.42,-224.32 491.38,-216.4 487.98,-222.52"/>
</g>
<!-- Node8 -->
<g id="node8" class="node">
<title>Node8</title>
<g id="a_node8"><a xlink:href="bloodvessel_8hpp.html" target="_top" xlink:title="MODEL::BloodVessel source file.">
<polygon fill="none" stroke="black" points="0,-112.5 0,-131.5 116,-131.5 116,-112.5 0,-112.5"/>
<text text-anchor="middle" x="58" y="-119.5" font-family="Helvetica,sans-Serif" font-size="10.00">model/bloodvessel.hpp</text>
</a>
</g>
</g>
<!-- Node6&#45;&gt;Node8 -->
<g id="edge18" class="edge">
<title>Node6&#45;&gt;Node8</title>
<path fill="none" stroke="midnightblue" d="M464.31,-222.3C423.58,-213.43 364.46,-200.32 313,-188 232.58,-168.75 138.41,-144.23 90.13,-131.51"/>
<polygon fill="midnightblue" stroke="midnightblue" points="463.74,-225.76 474.26,-224.46 465.23,-218.92 463.74,-225.76"/>
</g>
<!-- Node9 -->
<g id="node9" class="node">
<title>Node9</title>
<g id="a_node9"><a xlink:href="closedloopheartpulmonary_8hpp.html" target="_top" xlink:title="MODEL::ClosedLoopHeartPulmonary source file.">
<polygon fill="none" stroke="black" points="134,-112.5 134,-131.5 310,-131.5 310,-112.5 134,-112.5"/>
<text text-anchor="middle" x="222" y="-119.5" font-family="Helvetica,sans-Serif" font-size="10.00">model/closedloopheartpulmonary.hpp</text>
</a>
</g>
</g>
<!-- Node6&#45;&gt;Node9 -->
<g id="edge19" class="edge">
<title>Node6&#45;&gt;Node9</title>
<path fill="none" stroke="midnightblue" d="M470.97,-221.79C440.7,-213.49 399.43,-201.35 364,-188 317.57,-170.5 264.96,-144.81 238.73,-131.57"/>
<polygon fill="midnightblue" stroke="midnightblue" points="470.23,-225.21 480.79,-224.45 472.06,-218.46 470.23,-225.21"/>
</g>
<!-- Node10 -->
<g id="node10" class="node">
<title>Node10</title>
<g id="a_node10"><a xlink:href="junction_8hpp.html" target="_top" xlink:title="MODEL::Junction source file.">
<polygon fill="none" stroke="black" points="560,-112.5 560,-131.5 658,-131.5 658,-112.5 560,-112.5"/>
<text text-anchor="middle" x="609" y="-119.5" font-family="Helvetica,sans-Serif" font-size="10.00">model/junction.hpp</text>
</a>
</g>
</g>
<!-- Node6&#45;&gt;Node10 -->
<g id="edge21" class="edge">
<title>Node6&#45;&gt;Node10</title>
<path fill="none" stroke="midnightblue" d="M528.18,-216.59C548.66,-192.87 585.79,-149.87 601.58,-131.59"/>
<polygon fill="midnightblue" stroke="midnightblue" points="525.34,-214.51 521.45,-224.37 530.64,-219.09 525.34,-214.51"/>
</g>
<!-- Node12 -->
<g id="node12" class="node">
<title>Node12</title>
<g id="a_node12"><a xlink:href="rcrblockwithdistalpressure_8hpp.html" target="_top" xlink:title="MODEL::RCRBlockWithDistalPressure source file.">
<polygon fill="none" stroke="black" points="327.5,-112.5 327.5,-131.5 504.5,-131.5 504.5,-112.5 327.5,-112.5"/>
<text text-anchor="middle" x="416" y="-119.5" font-family="Helvetica,sans-Serif" font-size="10.00">model/rcrblockwithdistalpressure.hpp</text>
</a>
</g>
</g>
<!-- Node6&#45;&gt;Node12 -->
<g id="edge23" class="edge">
<title>Node6&#45;&gt;Node12</title>
<path fill="none" stroke="midnightblue" d="M503.75,-215.66C495.28,-202.02 482.5,-182.9 469,-168 456.19,-153.87 439.01,-140.04 427.72,-131.52"/>
<polygon fill="midnightblue" stroke="midnightblue" points="500.92,-217.75 509.1,-224.49 506.91,-214.12 500.92,-217.75"/>
</g>
<!-- Node7&#45;&gt;Node2 -->
<g id="edge11" class="edge">
<title>Node7&#45;&gt;Node2</title>
<path fill="none" stroke="midnightblue" d="M422.01,-197.64C425.97,-210.97 432.13,-229.12 440,-244 459.6,-281.09 491.71,-319.66 506.32,-336.4"/>
<polygon fill="midnightblue" stroke="midnightblue" points="425.3,-196.42 419.22,-187.75 418.57,-198.32 425.3,-196.42"/>
</g>
<!-- Node7&#45;&gt;Node8 -->
<g id="edge8" class="edge">
<title>Node7&#45;&gt;Node8</title>
<path fill="none" stroke="midnightblue" d="M363.43,-168.94C296.6,-158.89 182.85,-141.78 114.63,-131.52"/>
<polygon fill="midnightblue" stroke="midnightblue" points="362.93,-172.41 373.34,-170.43 363.97,-165.48 362.93,-172.41"/>
</g>
<!-- Node7&#45;&gt;Node9 -->
<g id="edge10" class="edge">
<title>Node7&#45;&gt;Node9</title>
<path fill="none" stroke="midnightblue" d="M376.19,-165.7C339.39,-155.51 286.07,-140.74 252.75,-131.52"/>
<polygon fill="midnightblue" stroke="midnightblue" points="375.53,-169.15 386.1,-168.44 377.4,-162.4 375.53,-169.15"/>
</g>
<!-- Node7&#45;&gt;Node10 -->
<g id="edge12" class="edge">
<title>Node7&#45;&gt;Node10</title>
<path fill="none" stroke="midnightblue" d="M457.18,-165.7C493.42,-155.51 545.91,-140.74 578.72,-131.52"/>
<polygon fill="midnightblue" stroke="midnightblue" points="456.1,-162.37 447.42,-168.44 458,-169.11 456.1,-162.37"/>
</g>
<!-- Node7&#45;&gt;Node12 -->
<g id="edge16" class="edge">
<title>Node7&#45;&gt;Node12</title>
<path fill="none" stroke="midnightblue" d="M416.64,-157.8C416.48,-148.91 416.29,-138.78 416.16,-131.75"/>
<polygon fill="midnightblue" stroke="midnightblue" points="413.15,-158.15 416.83,-168.08 420.15,-158.02 413.15,-158.15"/>
</g>
<!-- Node8&#45;&gt;Node3 -->
<g id="edge9" class="edge">
<title>Node8&#45;&gt;Node3</title>
<path fill="none" stroke="midnightblue" d="M88.43,-135.37C122.92,-149.15 180.99,-171.65 232,-188 364.62,-230.52 526.06,-265.12 602.23,-280.46"/>
<polygon fill="midnightblue" stroke="midnightblue" points="89.52,-132.03 78.93,-131.55 86.91,-138.53 89.52,-132.03"/>
</g>
<!-- Node10&#45;&gt;Node3 -->
<g id="edge15" class="edge">
<title>Node10&#45;&gt;Node3</title>
<path fill="none" stroke="midnightblue" d="M614.63,-141.16C617.06,-149.32 619.84,-159.1 622,-168 632.17,-209.83 641.17,-260.57 644.56,-280.44"/>
<polygon fill="midnightblue" stroke="midnightblue" points="617.97,-140.12 611.71,-131.57 611.27,-142.15 617.97,-140.12"/>
</g>
<!-- Node10&#45;&gt;Node11 -->
<g id="edge13" class="edge">
<title>Node10&#45;&gt;Node11</title>
<path fill="none" stroke="midnightblue" d="M621.06,-103.86C627.64,-94.5 635.51,-83.33 640.84,-75.75"/>
<polygon fill="midnightblue" stroke="midnightblue" points="618.17,-101.89 615.27,-112.08 623.89,-105.92 618.17,-101.89"/>
</g>
<!-- Node11&#45;&gt;Node5 -->
<g id="edge14" class="edge">
<title>Node11&#45;&gt;Node5</title>
<path fill="none" stroke="midnightblue" d="M671.57,-51.18C689.24,-41.24 712.51,-28.15 727.61,-19.65"/>
<polygon fill="midnightblue" stroke="midnightblue" points="669.42,-48.37 662.42,-56.32 672.86,-54.47 669.42,-48.37"/>
</g>
<!-- Node12&#45;&gt;Node3 -->
<g id="edge17" class="edge">
<title>Node12&#45;&gt;Node3</title>
<path fill="none" stroke="midnightblue" d="M444.05,-136.06C479.58,-153.34 541.73,-186.08 588,-224 609.29,-241.45 629.62,-266.94 639.6,-280.22"/>
<polygon fill="midnightblue" stroke="midnightblue" points="445.31,-132.78 434.78,-131.61 442.28,-139.09 445.31,-132.78"/>
</g>
<!-- Node13&#45;&gt;Node5 -->
<g id="edge26" class="edge">
<title>Node13&#45;&gt;Node5</title>
<path fill="none" stroke="midnightblue" d="M789.7,-214.3C779.22,-168.64 752.62,-52.85 745.04,-19.88"/>
<polygon fill="midnightblue" stroke="midnightblue" points="786.35,-215.33 792,-224.3 793.17,-213.77 786.35,-215.33"/>
</g>
<!-- Node14&#45;&gt;Node5 -->
<g id="edge28" class="edge">
<title>Node14&#45;&gt;Node5</title>
<path fill="none" stroke="midnightblue" d="M829.76,-52.1C808.46,-42.01 779.46,-28.27 760.98,-19.52"/>
<polygon fill="midnightblue" stroke="midnightblue" points="828.4,-55.33 838.94,-56.44 831.4,-49 828.4,-55.33"/>
</g>
</g>
</svg>
