<?xml version="1.0" encoding="UTF-8" standalone="no"?>
<!DOCTYPE svg PUBLIC "-//W3C//DTD SVG 1.1//EN"
 "http://www.w3.org/Graphics/SVG/1.1/DTD/svg11.dtd">
<!-- Generated by graphviz version 3.0.0 (20220413.0242)
 -->
<!-- Title: model/timedependentparameter.hpp Pages: 1 -->
<svg width="1085pt" height="308pt"
 viewBox="0.00 0.00 1084.97 308.00" xmlns="http://www.w3.org/2000/svg" xmlns:xlink="http://www.w3.org/1999/xlink">
<g id="graph0" class="graph" transform="scale(1 1) rotate(0) translate(4 304)">
<title>model/timedependentparameter.hpp</title>
<!-- Node1 -->
<g id="node1" class="node">
<title>Node1</title>
<g id="a_node1"><a xlink:title="MODEL::TimeDependentParameter source file.">
<polygon fill="#bfbfbf" stroke="black" points="809.47,-280.5 809.47,-299.5 980.47,-299.5 980.47,-280.5 809.47,-280.5"/>
<text text-anchor="middle" x="894.97" y="-287.5" font-family="Helvetica,sans-Serif" font-size="10.00">model/timedependentparameter.hpp</text>
</a>
</g>
</g>
<!-- Node2 -->
<g id="node2" class="node">
<title>Node2</title>
<g id="a_node2"><a xlink:href="flowreference_8hpp.html" target="_top" xlink:title="MODEL::FlowReference source file.">
<polygon fill="none" stroke="black" points="627.97,-224.5 627.97,-243.5 749.97,-243.5 749.97,-224.5 627.97,-224.5"/>
<text text-anchor="middle" x="688.97" y="-231.5" font-family="Helvetica,sans-Serif" font-size="10.00">model/flowreference.hpp</text>
</a>
</g>
</g>
<!-- Node1&#45;&gt;Node2 -->
<g id="edge1" class="edge">
<title>Node1&#45;&gt;Node2</title>
<path fill="none" stroke="midnightblue" d="M852.36,-277.83C813.46,-267.63 756.81,-252.78 721.46,-243.52"/>
<polygon fill="midnightblue" stroke="midnightblue" points="851.77,-281.29 862.33,-280.44 853.55,-274.52 851.77,-281.29"/>
</g>
<!-- Node10 -->
<g id="node10" class="node">
<title>Node10</title>
<g id="a_node10"><a xlink:href="openloopcoronarywithdistalpressure_8hpp.html" target="_top" xlink:title="MODEL::OpenLoopCoronaryWithDistalPressure source file.">
<polygon fill="none" stroke="black" points="492.97,-0.5 492.97,-19.5 710.97,-19.5 710.97,-0.5 492.97,-0.5"/>
<text text-anchor="middle" x="601.97" y="-7.5" font-family="Helvetica,sans-Serif" font-size="10.00">model/openloopcoronarywithdistalpressure.hpp</text>
</a>
</g>
</g>
<!-- Node1&#45;&gt;Node10 -->
<g id="edge36" class="edge">
<title>Node1&#45;&gt;Node10</title>
<path fill="none" stroke="midnightblue" d="M889.76,-270.39C884.13,-248.65 875.97,-211.51 875.97,-179 875.97,-179 875.97,-179 875.97,-121 875.97,-72.37 725.44,-35.4 647.53,-19.52"/>
<polygon fill="midnightblue" stroke="midnightblue" points="886.43,-271.5 892.41,-280.25 893.19,-269.68 886.43,-271.5"/>
</g>
<!-- Node11 -->
<g id="node11" class="node">
<title>Node11</title>
<g id="a_node11"><a xlink:href="pressurereference_8hpp.html" target="_top" xlink:title="MODEL::PressureReference source file.">
<polygon fill="none" stroke="black" points="728.97,-0.5 728.97,-19.5 870.97,-19.5 870.97,-0.5 728.97,-0.5"/>
<text text-anchor="middle" x="799.97" y="-7.5" font-family="Helvetica,sans-Serif" font-size="10.00">model/pressurereference.hpp</text>
</a>
</g>
</g>
<!-- Node1&#45;&gt;Node11 -->
<g id="edge37" class="edge">
<title>Node1&#45;&gt;Node11</title>
<path fill="none" stroke="midnightblue" d="M900.19,-270.39C905.81,-248.65 913.97,-211.51 913.97,-179 913.97,-179 913.97,-179 913.97,-121 913.97,-90.2 910.52,-78.94 889.97,-56 874,-38.17 849.35,-26.54 829.88,-19.57"/>
<polygon fill="midnightblue" stroke="midnightblue" points="896.75,-269.68 897.53,-280.25 903.51,-271.5 896.75,-269.68"/>
</g>
<!-- Node13 -->
<g id="node13" class="node">
<title>Node13</title>
<g id="a_node13"><a xlink:href="resistancewithdistalpressure_8hpp.html" target="_top" xlink:title="MODEL::ResistanceWithDistalPressure source file.">
<polygon fill="none" stroke="black" points="888.97,-0.5 888.97,-19.5 1076.97,-19.5 1076.97,-0.5 888.97,-0.5"/>
<text text-anchor="middle" x="982.97" y="-7.5" font-family="Helvetica,sans-Serif" font-size="10.00">model/resistancewithdistalpressure.hpp</text>
</a>
</g>
</g>
<!-- Node1&#45;&gt;Node13 -->
<g id="edge38" class="edge">
<title>Node1&#45;&gt;Node13</title>
<path fill="none" stroke="midnightblue" d="M913.46,-273.63C934.8,-254.06 966.97,-218.06 966.97,-179 966.97,-179 966.97,-179 966.97,-121 966.97,-82.98 976.45,-38.34 980.81,-19.78"/>
<polygon fill="midnightblue" stroke="midnightblue" points="911.09,-271.06 905.91,-280.3 915.72,-276.3 911.09,-271.06"/>
</g>
<!-- Node3 -->
<g id="node3" class="node">
<title>Node3</title>
<g id="a_node3"><a xlink:href="model_8hpp.html" target="_top" xlink:title="MODEL::Model source file.">
<polygon fill="none" stroke="black" points="365.97,-168.5 365.97,-187.5 455.97,-187.5 455.97,-168.5 365.97,-168.5"/>
<text text-anchor="middle" x="410.97" y="-175.5" font-family="Helvetica,sans-Serif" font-size="10.00">model/model.hpp</text>
</a>
</g>
</g>
<!-- Node2&#45;&gt;Node3 -->
<g id="edge2" class="edge">
<title>Node2&#45;&gt;Node3</title>
<path fill="none" stroke="midnightblue" d="M634.78,-222.47C582.24,-212.27 503.53,-196.98 454.82,-187.52"/>
<polygon fill="midnightblue" stroke="midnightblue" points="634.44,-225.97 644.92,-224.44 635.77,-219.1 634.44,-225.97"/>
</g>
<!-- Node4 -->
<g id="node4" class="node">
<title>Node4</title>
<g id="a_node4"><a xlink:href="integrator_8hpp.html" target="_top" xlink:title="ALGEBRA::Integrator source file.">
<polygon fill="none" stroke="black" points="294.97,-112.5 294.97,-131.5 404.97,-131.5 404.97,-112.5 294.97,-112.5"/>
<text text-anchor="middle" x="349.97" y="-119.5" font-family="Helvetica,sans-Serif" font-size="10.00">algebra/integrator.hpp</text>
</a>
</g>
</g>
<!-- Node3&#45;&gt;Node4 -->
<g id="edge3" class="edge">
<title>Node3&#45;&gt;Node4</title>
<path fill="none" stroke="midnightblue" d="M393.51,-161.54C382.63,-151.91 369.03,-139.87 359.95,-131.83"/>
<polygon fill="midnightblue" stroke="midnightblue" points="391.36,-164.32 401.17,-168.32 396,-159.07 391.36,-164.32"/>
</g>
<!-- Node5 -->
<g id="node5" class="node">
<title>Node5</title>
<g id="a_node5"><a xlink:href="main_8cpp.html" target="_top" xlink:title="Main routine of svZeroDSolver.">
<polygon fill="none" stroke="black" points="264.97,-56.5 264.97,-75.5 320.97,-75.5 320.97,-56.5 264.97,-56.5"/>
<text text-anchor="middle" x="292.97" y="-63.5" font-family="Helvetica,sans-Serif" font-size="10.00">main.cpp</text>
</a>
</g>
</g>
<!-- Node3&#45;&gt;Node5 -->
<g id="edge35" class="edge">
<title>Node3&#45;&gt;Node5</title>
<path fill="none" stroke="midnightblue" d="M355.85,-171.51C330.17,-165.88 301.84,-154.57 285.97,-132 274.09,-115.1 282.64,-89.38 288.58,-75.92"/>
<polygon fill="midnightblue" stroke="midnightblue" points="355.42,-174.99 365.9,-173.47 356.76,-168.12 355.42,-174.99"/>
</g>
<!-- Node6 -->
<g id="node6" class="node">
<title>Node6</title>
<g id="a_node6"><a xlink:href="sparsesystem_8hpp.html" target="_top" xlink:title="ALGEBRA::SparseSystem source file.">
<polygon fill="none" stroke="black" points="576.97,-112.5 576.97,-131.5 706.97,-131.5 706.97,-112.5 576.97,-112.5"/>
<text text-anchor="middle" x="641.97" y="-119.5" font-family="Helvetica,sans-Serif" font-size="10.00">algebra/sparsesystem.hpp</text>
</a>
</g>
</g>
<!-- Node3&#45;&gt;Node6 -->
<g id="edge5" class="edge">
<title>Node3&#45;&gt;Node6</title>
<path fill="none" stroke="midnightblue" d="M452.37,-166.02C494.27,-155.82 558.52,-140.84 600.46,-131.52"/>
<polygon fill="midnightblue" stroke="midnightblue" points="451.37,-162.67 442.49,-168.44 453.03,-169.46 451.37,-162.67"/>
</g>
<!-- Node14 -->
<g id="node14" class="node">
<title>Node14</title>
<g id="a_node14"><a xlink:href="configreader_8hpp.html" target="_top" xlink:title="IO::ConfigReader source file.">
<polygon fill="none" stroke="black" points="422.97,-112.5 422.97,-131.5 520.97,-131.5 520.97,-112.5 422.97,-112.5"/>
<text text-anchor="middle" x="471.97" y="-119.5" font-family="Helvetica,sans-Serif" font-size="10.00">io/configreader.hpp</text>
</a>
</g>
</g>
<!-- Node3&#45;&gt;Node14 -->
<g id="edge29" class="edge">
<title>Node3&#45;&gt;Node14</title>
<path fill="none" stroke="midnightblue" d="M428.44,-161.54C439.32,-151.91 452.92,-139.87 461.99,-131.83"/>
<polygon fill="midnightblue" stroke="midnightblue" points="425.94,-159.07 420.77,-168.32 430.58,-164.32 425.94,-159.07"/>
</g>
<!-- Node15 -->
<g id="node15" class="node">
<title>Node15</title>
<g id="a_node15"><a xlink:href="csvwriter_8hpp.html" target="_top" xlink:title="IO::write_csv source file.">
<polygon fill="none" stroke="black" points="48.47,-112.5 48.47,-131.5 133.47,-131.5 133.47,-112.5 48.47,-112.5"/>
<text text-anchor="middle" x="90.97" y="-119.5" font-family="Helvetica,sans-Serif" font-size="10.00">io/csvwriter.hpp</text>
</a>
</g>
</g>
<!-- Node3&#45;&gt;Node15 -->
<g id="edge31" class="edge">
<title>Node3&#45;&gt;Node15</title>
<path fill="none" stroke="midnightblue" d="M355.61,-167.89C301.21,-158.9 215.84,-144.7 141.97,-132 139.23,-131.53 136.4,-131.04 133.54,-130.54"/>
<polygon fill="midnightblue" stroke="midnightblue" points="355.3,-171.38 365.74,-169.56 356.44,-164.48 355.3,-171.38"/>
</g>
<!-- Node16 -->
<g id="node16" class="node">
<title>Node16</title>
<g id="a_node16"><a xlink:href="jsonwriter_8hpp.html" target="_top" xlink:title="IO::write_json source file.">
<polygon fill="none" stroke="black" points="151.47,-112.5 151.47,-131.5 238.47,-131.5 238.47,-112.5 151.47,-112.5"/>
<text text-anchor="middle" x="194.97" y="-119.5" font-family="Helvetica,sans-Serif" font-size="10.00">io/jsonwriter.hpp</text>
</a>
</g>
</g>
<!-- Node3&#45;&gt;Node16 -->
<g id="edge33" class="edge">
<title>Node3&#45;&gt;Node16</title>
<path fill="none" stroke="midnightblue" d="M366.81,-165.96C326.01,-155.76 266.26,-140.82 229.04,-131.52"/>
<polygon fill="midnightblue" stroke="midnightblue" points="366.2,-169.41 376.75,-168.44 367.89,-162.62 366.2,-169.41"/>
</g>
<!-- Node4&#45;&gt;Node5 -->
<g id="edge4" class="edge">
<title>Node4&#45;&gt;Node5</title>
<path fill="none" stroke="midnightblue" d="M333.35,-105.25C323.24,-95.67 310.7,-83.79 302.3,-75.83"/>
<polygon fill="midnightblue" stroke="midnightblue" points="331.15,-107.99 340.81,-112.32 335.96,-102.91 331.15,-107.99"/>
</g>
<!-- Node6&#45;&gt;Node2 -->
<g id="edge22" class="edge">
<title>Node6&#45;&gt;Node2</title>
<path fill="none" stroke="midnightblue" d="M649.64,-140.95C659.89,-164.92 677.63,-206.46 685.28,-224.37"/>
<polygon fill="midnightblue" stroke="midnightblue" points="652.79,-139.41 645.64,-131.59 646.35,-142.16 652.79,-139.41"/>
</g>
<!-- Node6&#45;&gt;Node3 -->
<g id="edge24" class="edge">
<title>Node6&#45;&gt;Node3</title>
<path fill="none" stroke="midnightblue" d="M600.75,-133.93C558.92,-144.12 494.67,-159.1 452.66,-168.44"/>
<polygon fill="midnightblue" stroke="midnightblue" points="601.74,-137.29 610.62,-131.52 600.08,-130.5 601.74,-137.29"/>
</g>
<!-- Node6&#45;&gt;Node5 -->
<g id="edge6" class="edge">
<title>Node6&#45;&gt;Node5</title>
<path fill="none" stroke="midnightblue" d="M576.66,-110.89C500.11,-99.05 376.71,-79.96 321.39,-71.4"/>
<polygon fill="midnightblue" stroke="midnightblue" points="576.25,-114.37 586.67,-112.44 577.33,-107.46 576.25,-114.37"/>
</g>
<!-- Node7 -->
<g id="node7" class="node">
<title>Node7</title>
<g id="a_node7"><a xlink:href="block_8hpp.html" target="_top" xlink:title="MODEL::Block source file.">
<polygon fill="none" stroke="black" points="570.47,-56.5 570.47,-75.5 657.47,-75.5 657.47,-56.5 570.47,-56.5"/>
<text text-anchor="middle" x="613.97" y="-63.5" font-family="Helvetica,sans-Serif" font-size="10.00">model/block.hpp</text>
</a>
</g>
</g>
<!-- Node6&#45;&gt;Node7 -->
<g id="edge7" class="edge">
<title>Node6&#45;&gt;Node7</title>
<path fill="none" stroke="midnightblue" d="M632.63,-102.98C627.88,-93.82 622.32,-83.09 618.51,-75.75"/>
<polygon fill="midnightblue" stroke="midnightblue" points="629.64,-104.82 637.35,-112.08 635.85,-101.59 629.64,-104.82"/>
</g>
<!-- Node8 -->
<g id="node8" class="node">
<title>Node8</title>
<g id="a_node8"><a xlink:href="bloodvessel_8hpp.html" target="_top" xlink:title="MODEL::BloodVessel source file.">
<polygon fill="none" stroke="black" points="242.97,-0.5 242.97,-19.5 358.97,-19.5 358.97,-0.5 242.97,-0.5"/>
<text text-anchor="middle" x="300.97" y="-7.5" font-family="Helvetica,sans-Serif" font-size="10.00">model/bloodvessel.hpp</text>
</a>
</g>
</g>
<!-- Node6&#45;&gt;Node8 -->
<g id="edge21" class="edge">
<title>Node6&#45;&gt;Node8</title>
<path fill="none" stroke="midnightblue" d="M605.94,-109.38C537.13,-87.18 388.43,-39.21 327.66,-19.61"/>
<polygon fill="midnightblue" stroke="midnightblue" points="604.91,-112.72 615.5,-112.46 607.06,-106.06 604.91,-112.72"/>
</g>
<!-- Node9 -->
<g id="node9" class="node">
<title>Node9</title>
<g id="a_node9"><a xlink:href="junction_8hpp.html" target="_top" xlink:title="MODEL::Junction source file.">
<polygon fill="none" stroke="black" points="376.97,-0.5 376.97,-19.5 474.97,-19.5 474.97,-0.5 376.97,-0.5"/>
<text text-anchor="middle" x="425.97" y="-7.5" font-family="Helvetica,sans-Serif" font-size="10.00">model/junction.hpp</text>
</a>
</g>
</g>
<!-- Node6&#45;&gt;Node9 -->
<g id="edge23" class="edge">
<title>Node6&#45;&gt;Node9</title>
<path fill="none" stroke="midnightblue" d="M616.86,-107.57C591.89,-94.28 552.43,-73.45 517.97,-56 492.44,-43.06 462.63,-28.6 444.03,-19.65"/>
<polygon fill="midnightblue" stroke="midnightblue" points="615.52,-110.83 625.99,-112.44 618.82,-104.65 615.52,-110.83"/>
</g>
<!-- Node6&#45;&gt;Node10 -->
<g id="edge25" class="edge">
<title>Node6&#45;&gt;Node10</title>
<path fill="none" stroke="midnightblue" d="M656.34,-104.04C665.85,-90.64 675.18,-71.66 666.97,-56 657.93,-38.74 638.92,-26.78 623.78,-19.55"/>
<polygon fill="midnightblue" stroke="midnightblue" points="653.29,-102.26 649.94,-112.31 658.83,-106.54 653.29,-102.26"/>
</g>
<!-- Node6&#45;&gt;Node11 -->
<g id="edge26" class="edge">
<title>Node6&#45;&gt;Node11</title>
<path fill="none" stroke="midnightblue" d="M662.92,-106.42C696.34,-83.15 760.69,-38.35 787.63,-19.59"/>
<polygon fill="midnightblue" stroke="midnightblue" points="660.58,-103.78 654.37,-112.37 664.58,-109.53 660.58,-103.78"/>
</g>
<!-- Node12 -->
<g id="node12" class="node">
<title>Node12</title>
<g id="a_node12"><a xlink:href="rcrblockwithdistalpressure_8hpp.html" target="_top" xlink:title="MODEL::RCRBlockWithDistalPressure source file.">
<polygon fill="none" stroke="black" points="48.47,-0.5 48.47,-19.5 225.47,-19.5 225.47,-0.5 48.47,-0.5"/>
<text text-anchor="middle" x="136.97" y="-7.5" font-family="Helvetica,sans-Serif" font-size="10.00">model/rcrblockwithdistalpressure.hpp</text>
</a>
</g>
</g>
<!-- Node6&#45;&gt;Node12 -->
<g id="edge27" class="edge">
<title>Node6&#45;&gt;Node12</title>
<path fill="none" stroke="midnightblue" d="M592.92,-110.31C492.9,-88.53 267.2,-39.37 176.15,-19.53"/>
<polygon fill="midnightblue" stroke="midnightblue" points="592.25,-113.75 602.77,-112.46 593.74,-106.91 592.25,-113.75"/>
</g>
<!-- Node6&#45;&gt;Node13 -->
<g id="edge28" class="edge">
<title>Node6&#45;&gt;Node13</title>
<path fill="none" stroke="midnightblue" d="M674.03,-108.81C710.22,-95.23 770.95,-72.95 823.97,-56 867.42,-42.11 918.23,-28.12 950.5,-19.5"/>
<polygon fill="midnightblue" stroke="midnightblue" points="672.63,-105.6 664.5,-112.4 675.1,-112.15 672.63,-105.6"/>
</g>
<!-- Node7&#45;&gt;Node2 -->
<g id="edge10" class="edge">
<title>Node7&#45;&gt;Node2</title>
<path fill="none" stroke="midnightblue" d="M667.35,-77.86C685.97,-84.48 704.95,-95.09 715.97,-112 739.83,-148.6 708.87,-203.24 695.03,-224.3"/>
<polygon fill="midnightblue" stroke="midnightblue" points="668.29,-74.48 657.69,-74.74 666.14,-81.14 668.29,-74.48"/>
</g>
<!-- Node7&#45;&gt;Node8 -->
<g id="edge8" class="edge">
<title>Node7&#45;&gt;Node8</title>
<path fill="none" stroke="midnightblue" d="M560.59,-55.79C501.66,-45.62 407.57,-29.39 350.31,-19.51"/>
<polygon fill="midnightblue" stroke="midnightblue" points="560,-59.24 570.45,-57.49 561.19,-52.34 560,-59.24"/>
</g>
<!-- Node7&#45;&gt;Node9 -->
<g id="edge11" class="edge">
<title>Node7&#45;&gt;Node9</title>
<path fill="none" stroke="midnightblue" d="M574.17,-53.57C538.71,-43.38 487.61,-28.7 455.62,-19.52"/>
<polygon fill="midnightblue" stroke="midnightblue" points="573.61,-57.05 584.18,-56.44 575.54,-50.32 573.61,-57.05"/>
</g>
<!-- Node7&#45;&gt;Node10 -->
<g id="edge13" class="edge">
<title>Node7&#45;&gt;Node10</title>
<path fill="none" stroke="midnightblue" d="M609.77,-46.1C607.78,-37.14 605.5,-26.86 603.92,-19.75"/>
<polygon fill="midnightblue" stroke="midnightblue" points="606.4,-47.08 611.99,-56.08 613.24,-45.56 606.4,-47.08"/>
</g>
<!-- Node7&#45;&gt;Node11 -->
<g id="edge15" class="edge">
<title>Node7&#45;&gt;Node11</title>
<path fill="none" stroke="midnightblue" d="M653.35,-53.57C688.44,-43.38 738.99,-28.7 770.64,-19.52"/>
<polygon fill="midnightblue" stroke="midnightblue" points="652.07,-50.29 643.44,-56.44 654.02,-57.02 652.07,-50.29"/>
</g>
<!-- Node7&#45;&gt;Node12 -->
<g id="edge17" class="edge">
<title>Node7&#45;&gt;Node12</title>
<path fill="none" stroke="midnightblue" d="M560.41,-58.94C475.33,-49.3 309,-30.48 212.06,-19.5"/>
<polygon fill="midnightblue" stroke="midnightblue" points="560.05,-62.42 570.38,-60.06 560.83,-55.46 560.05,-62.42"/>
</g>
<!-- Node7&#45;&gt;Node13 -->
<g id="edge19" class="edge">
<title>Node7&#45;&gt;Node13</title>
<path fill="none" stroke="midnightblue" d="M667.9,-57.11C736.4,-47.08 854.18,-29.85 924.69,-19.53"/>
<polygon fill="midnightblue" stroke="midnightblue" points="667.14,-53.68 657.75,-58.59 668.15,-60.61 667.14,-53.68"/>
</g>
<!-- Node8&#45;&gt;Node3 -->
<g id="edge9" class="edge">
<title>Node8&#45;&gt;Node3</title>
<path fill="none" stroke="midnightblue" d="M246.49,-21.75C212.57,-29.33 168.42,-40.84 130.97,-56 -4.26,-110.74 -17.25,-77.73 30.97,-132 52.9,-156.68 269.82,-170.16 365.75,-174.96"/>
<polygon fill="midnightblue" stroke="midnightblue" points="247.65,-25.08 256.67,-19.52 246.15,-18.24 247.65,-25.08"/>
</g>
<!-- Node9&#45;&gt;Node3 -->
<g id="edge12" class="edge">
<title>Node9&#45;&gt;Node3</title>
<path fill="none" stroke="midnightblue" d="M371.1,-21.49C269.27,-41.49 59.47,-85.47 38.97,-112 33.54,-119.03 33.08,-125.35 38.97,-132 60.33,-156.1 271.18,-169.84 365.63,-174.83"/>
<polygon fill="midnightblue" stroke="midnightblue" points="372.06,-24.87 381.2,-19.51 370.71,-18 372.06,-24.87"/>
</g>
<!-- Node10&#45;&gt;Node3 -->
<g id="edge14" class="edge">
<title>Node10&#45;&gt;Node3</title>
<path fill="none" stroke="midnightblue" d="M585.47,-26.93C577.64,-35.1 568.58,-45.52 561.97,-56 542.42,-87 556.36,-106.57 529.97,-132 509.85,-151.39 480.56,-162.6 456.07,-168.99"/>
<polygon fill="midnightblue" stroke="midnightblue" points="588.19,-29.16 592.75,-19.59 583.22,-24.23 588.19,-29.16"/>
</g>
<!-- Node11&#45;&gt;Node3 -->
<g id="edge16" class="edge">
<title>Node11&#45;&gt;Node3</title>
<path fill="none" stroke="midnightblue" d="M793.03,-29C781.5,-56.24 755.68,-107.37 715.97,-132 673.44,-158.38 530.3,-170.23 456.23,-174.7"/>
<polygon fill="midnightblue" stroke="midnightblue" points="796.35,-30.12 796.86,-19.54 789.87,-27.49 796.35,-30.12"/>
</g>
<!-- Node12&#45;&gt;Node3 -->
<g id="edge18" class="edge">
<title>Node12&#45;&gt;Node3</title>
<path fill="none" stroke="midnightblue" d="M105.65,-23.53C56.88,-44.76 -27.9,-89.64 9.97,-132 33.38,-158.18 266.1,-170.95 365.9,-175.26"/>
<polygon fill="midnightblue" stroke="midnightblue" points="107.05,-26.74 114.88,-19.61 104.31,-20.3 107.05,-26.74"/>
</g>
<!-- Node13&#45;&gt;Node3 -->
<g id="edge20" class="edge">
<title>Node13&#45;&gt;Node3</title>
<path fill="none" stroke="midnightblue" d="M961.15,-25.09C920.06,-50.89 827.65,-105.48 741.97,-132 642.94,-162.66 520.83,-172.44 456.15,-175.55"/>
<polygon fill="midnightblue" stroke="midnightblue" points="963.21,-27.93 969.78,-19.62 959.46,-22.01 963.21,-27.93"/>
</g>
<!-- Node14&#45;&gt;Node5 -->
<g id="edge30" class="edge">
<title>Node14&#45;&gt;Node5</title>
<path fill="none" stroke="midnightblue" d="M433.64,-109.44C399.89,-99.26 351.53,-84.66 321.2,-75.52"/>
<polygon fill="midnightblue" stroke="midnightblue" points="433.02,-112.91 443.61,-112.44 435.05,-106.2 433.02,-112.91"/>
</g>
<!-- Node15&#45;&gt;Node5 -->
<g id="edge32" class="edge">
<title>Node15&#45;&gt;Node5</title>
<path fill="none" stroke="midnightblue" d="M132.84,-109.81C172.32,-99.25 230.41,-83.72 264.7,-74.56"/>
<polygon fill="midnightblue" stroke="midnightblue" points="131.74,-106.48 122.98,-112.44 133.54,-113.24 131.74,-106.48"/>
</g>
<!-- Node16&#45;&gt;Node5 -->
<g id="edge34" class="edge">
<title>Node16&#45;&gt;Node5</title>
<path fill="none" stroke="midnightblue" d="M219.56,-107.45C237.65,-97.48 261.71,-84.23 277.27,-75.65"/>
<polygon fill="midnightblue" stroke="midnightblue" points="217.79,-104.43 210.72,-112.32 221.17,-110.56 217.79,-104.43"/>
</g>
</g>
</svg>
