<?xml version="1.0" encoding="UTF-8" standalone="no"?>
<!DOCTYPE svg PUBLIC "-//W3C//DTD SVG 1.1//EN"
 "http://www.w3.org/Graphics/SVG/1.1/DTD/svg11.dtd">
<!-- Generated by graphviz version 3.0.0 (20220413.0242)
 -->
<!-- Title: model/windkesselbc.hpp Pages: 1 -->
<svg width="1095pt" height="420pt"
 viewBox="0.00 0.00 1095.00 420.00" xmlns="http://www.w3.org/2000/svg" xmlns:xlink="http://www.w3.org/1999/xlink">
<g id="graph0" class="graph" transform="scale(1 1) rotate(0) translate(4 416)">
<title>model/windkesselbc.hpp</title>
<!-- Node1 -->
<g id="node1" class="node">
<title>Node1</title>
<g id="a_node1"><a xlink:title="MODEL::WindkesselBC source file.">
<polygon fill="#bfbfbf" stroke="black" points="804.5,-392.5 804.5,-411.5 927.5,-411.5 927.5,-392.5 804.5,-392.5"/>
<text text-anchor="middle" x="866" y="-399.5" font-family="Helvetica,sans-Serif" font-size="10.00">model/windkesselbc.hpp</text>
</a>
</g>
</g>
<!-- Node2 -->
<g id="node2" class="node">
<title>Node2</title>
<g id="a_node2"><a xlink:href="densesystem_8hpp.html" target="_top" xlink:title="ALGEBRA::DenseSystem source file.">
<polygon fill="none" stroke="black" points="617,-336.5 617,-355.5 751,-355.5 751,-336.5 617,-336.5"/>
<text text-anchor="middle" x="684" y="-343.5" font-family="Helvetica,sans-Serif" font-size="10.00">../algebra/densesystem.hpp</text>
</a>
</g>
</g>
<!-- Node1&#45;&gt;Node2 -->
<g id="edge1" class="edge">
<title>Node1&#45;&gt;Node2</title>
<path fill="none" stroke="midnightblue" d="M837.16,-392.44C806.14,-383.24 756.67,-368.56 722.38,-358.39"/>
<polygon fill="midnightblue" stroke="midnightblue" points="723.29,-355.01 712.7,-355.52 721.29,-361.72 723.29,-355.01"/>
</g>
<!-- Node8 -->
<g id="node8" class="node">
<title>Node8</title>
<g id="a_node8"><a xlink:href="sparsesystem_8hpp.html" target="_top" xlink:title="ALGEBRA::SparseSystem source file.">
<polygon fill="none" stroke="black" points="646.5,-112.5 646.5,-131.5 783.5,-131.5 783.5,-112.5 646.5,-112.5"/>
<text text-anchor="middle" x="715" y="-119.5" font-family="Helvetica,sans-Serif" font-size="10.00">../algebra/sparsesystem.hpp</text>
</a>
</g>
</g>
<!-- Node1&#45;&gt;Node8 -->
<g id="edge59" class="edge">
<title>Node1&#45;&gt;Node8</title>
<path fill="none" stroke="midnightblue" d="M927.56,-396.31C992.95,-387.58 1087,-362.57 1087,-291 1087,-291 1087,-291 1087,-233 1087,-172.34 902.83,-142.59 793.66,-130.28"/>
<polygon fill="midnightblue" stroke="midnightblue" points="793.99,-126.79 783.66,-129.17 793.22,-133.75 793.99,-126.79"/>
</g>
<!-- Node13 -->
<g id="node13" class="node">
<title>Node13</title>
<g id="a_node13"><a xlink:href="block_8hpp.html" target="_top" xlink:title="MODEL::Block source file.">
<polygon fill="none" stroke="black" points="502,-168.5 502,-187.5 560,-187.5 560,-168.5 502,-168.5"/>
<text text-anchor="middle" x="531" y="-175.5" font-family="Helvetica,sans-Serif" font-size="10.00">block.hpp</text>
</a>
</g>
</g>
<!-- Node1&#45;&gt;Node13 -->
<g id="edge60" class="edge">
<title>Node1&#45;&gt;Node13</title>
<path fill="none" stroke="midnightblue" d="M885.34,-392.38C940.26,-366.81 1089.49,-289.09 1030,-224 999.2,-190.29 683.22,-181.61 570.6,-179.57"/>
<polygon fill="midnightblue" stroke="midnightblue" points="570.41,-176.07 560.35,-179.4 570.29,-183.07 570.41,-176.07"/>
</g>
<!-- Node3 -->
<g id="node3" class="node">
<title>Node3</title>
<g id="a_node3"><a xlink:title=" ">
<polygon fill="none" stroke="#bfbfbf" points="892.5,-280.5 892.5,-299.5 963.5,-299.5 963.5,-280.5 892.5,-280.5"/>
<text text-anchor="middle" x="928" y="-287.5" font-family="Helvetica,sans-Serif" font-size="10.00">Eigen/Dense</text>
</a>
</g>
</g>
<!-- Node2&#45;&gt;Node3 -->
<g id="edge2" class="edge">
<title>Node2&#45;&gt;Node3</title>
<path fill="none" stroke="midnightblue" d="M722.66,-336.44C766.01,-326.85 836.25,-311.3 882.29,-301.12"/>
<polygon fill="midnightblue" stroke="midnightblue" points="883.29,-304.48 892.3,-298.9 881.78,-297.65 883.29,-304.48"/>
</g>
<!-- Node4 -->
<g id="node4" class="node">
<title>Node4</title>
<g id="a_node4"><a xlink:href="model_8hpp.html" target="_top" xlink:title="MODEL::Model source file.">
<polygon fill="none" stroke="black" points="482,-280.5 482,-299.5 580,-299.5 580,-280.5 482,-280.5"/>
<text text-anchor="middle" x="531" y="-287.5" font-family="Helvetica,sans-Serif" font-size="10.00">../model/model.hpp</text>
</a>
</g>
</g>
<!-- Node2&#45;&gt;Node4 -->
<g id="edge3" class="edge">
<title>Node2&#45;&gt;Node4</title>
<path fill="none" stroke="midnightblue" d="M654.67,-336.44C627.18,-327.44 586.59,-313.19 559.41,-303.05"/>
<polygon fill="midnightblue" stroke="midnightblue" points="560.64,-299.77 550.05,-299.52 558.17,-306.32 560.64,-299.77"/>
</g>
<!-- Node4&#45;&gt;Node1 -->
<g id="edge48" class="edge">
<title>Node4&#45;&gt;Node1</title>
<path fill="none" stroke="midnightblue" d="M538.51,-299.83C551.23,-314.16 578.52,-342.23 608,-356 667.02,-383.56 740.79,-394.37 794.31,-398.54"/>
<polygon fill="midnightblue" stroke="midnightblue" points="794.17,-402.04 804.39,-399.27 794.67,-395.06 794.17,-402.04"/>
</g>
<!-- Node4&#45;&gt;Node2 -->
<g id="edge7" class="edge">
<title>Node4&#45;&gt;Node2</title>
<path fill="none" stroke="midnightblue" d="M560.21,-299.52C587.66,-308.51 628.25,-322.75 655.47,-332.91"/>
<polygon fill="midnightblue" stroke="midnightblue" points="654.25,-336.19 664.85,-336.44 656.73,-329.64 654.25,-336.19"/>
</g>
<!-- Node5 -->
<g id="node5" class="node">
<title>Node5</title>
<g id="a_node5"><a xlink:title=" ">
<polygon fill="none" stroke="#bfbfbf" points="369.5,-112.5 369.5,-131.5 404.5,-131.5 404.5,-112.5 369.5,-112.5"/>
<text text-anchor="middle" x="387" y="-119.5" font-family="Helvetica,sans-Serif" font-size="10.00">map</text>
</a>
</g>
</g>
<!-- Node4&#45;&gt;Node5 -->
<g id="edge4" class="edge">
<title>Node4&#45;&gt;Node5</title>
<path fill="none" stroke="midnightblue" d="M481.79,-283.4C397.87,-273.63 235.26,-253.57 227,-244 183.28,-193.33 234.9,-244.3 322,-188 342.42,-174.8 361.56,-154.29 373.71,-139.84"/>
<polygon fill="midnightblue" stroke="midnightblue" points="376.7,-141.71 380.32,-131.75 371.28,-137.28 376.7,-141.71"/>
</g>
<!-- Node6 -->
<g id="node6" class="node">
<title>Node6</title>
<g id="a_node6"><a xlink:title=" ">
<polygon fill="none" stroke="#bfbfbf" points="236.5,-224.5 236.5,-243.5 265.5,-243.5 265.5,-224.5 236.5,-224.5"/>
<text text-anchor="middle" x="251" y="-231.5" font-family="Helvetica,sans-Serif" font-size="10.00">list</text>
</a>
</g>
</g>
<!-- Node4&#45;&gt;Node6 -->
<g id="edge5" class="edge">
<title>Node4&#45;&gt;Node6</title>
<path fill="none" stroke="midnightblue" d="M481.81,-283.1C431.96,-276.51 352.59,-264.35 275.46,-243.66"/>
<polygon fill="midnightblue" stroke="midnightblue" points="276.15,-240.22 265.58,-240.96 274.3,-246.97 276.15,-240.22"/>
</g>
<!-- Node7 -->
<g id="node7" class="node">
<title>Node7</title>
<g id="a_node7"><a xlink:title=" ">
<polygon fill="none" stroke="#bfbfbf" points="284,-224.5 284,-243.5 330,-243.5 330,-224.5 284,-224.5"/>
<text text-anchor="middle" x="307" y="-231.5" font-family="Helvetica,sans-Serif" font-size="10.00">variant</text>
</a>
</g>
</g>
<!-- Node4&#45;&gt;Node7 -->
<g id="edge6" class="edge">
<title>Node4&#45;&gt;Node7</title>
<path fill="none" stroke="midnightblue" d="M492.26,-280.45C455.45,-272.2 398.31,-259.1 339.82,-244.13"/>
<polygon fill="midnightblue" stroke="midnightblue" points="340.6,-240.71 330.04,-241.61 338.85,-247.49 340.6,-240.71"/>
</g>
<!-- Node4&#45;&gt;Node8 -->
<g id="edge8" class="edge">
<title>Node4&#45;&gt;Node8</title>
<path fill="none" stroke="midnightblue" d="M580.12,-289.53C658.85,-289.03 807.44,-282.63 841,-244 879.24,-199.99 791.46,-156.32 743.42,-135.54"/>
<polygon fill="midnightblue" stroke="midnightblue" points="744.68,-132.27 734.11,-131.57 741.94,-138.71 744.68,-132.27"/>
</g>
<!-- Node12 -->
<g id="node12" class="node">
<title>Node12</title>
<g id="a_node12"><a xlink:href="junction_8hpp.html" target="_top" xlink:title="MODEL::Junction source file.">
<polygon fill="none" stroke="black" points="953,-224.5 953,-243.5 1021,-243.5 1021,-224.5 953,-224.5"/>
<text text-anchor="middle" x="987" y="-231.5" font-family="Helvetica,sans-Serif" font-size="10.00">junction.hpp</text>
</a>
</g>
</g>
<!-- Node4&#45;&gt;Node12 -->
<g id="edge13" class="edge">
<title>Node4&#45;&gt;Node12</title>
<path fill="none" stroke="midnightblue" d="M580.14,-284.79C656.94,-277.93 810.01,-263.18 939,-244 940.27,-243.81 941.57,-243.61 942.87,-243.41"/>
<polygon fill="midnightblue" stroke="midnightblue" points="943.68,-246.82 952.97,-241.71 942.52,-239.91 943.68,-246.82"/>
</g>
<!-- Node15 -->
<g id="node15" class="node">
<title>Node15</title>
<g id="a_node15"><a xlink:href="node_8hpp.html" target="_top" xlink:title="MODEL::Node source file.">
<polygon fill="none" stroke="black" points="0,-112.5 0,-131.5 56,-131.5 56,-112.5 0,-112.5"/>
<text text-anchor="middle" x="28" y="-119.5" font-family="Helvetica,sans-Serif" font-size="10.00">node.hpp</text>
</a>
</g>
</g>
<!-- Node4&#45;&gt;Node15 -->
<g id="edge33" class="edge">
<title>Node4&#45;&gt;Node15</title>
<path fill="none" stroke="midnightblue" d="M481.95,-287.66C366.22,-284.06 83.46,-272.4 52,-244 23.35,-218.13 23.14,-168.7 25.53,-141.72"/>
<polygon fill="midnightblue" stroke="midnightblue" points="29.03,-141.98 26.64,-131.66 22.07,-141.22 29.03,-141.98"/>
</g>
<!-- Node17 -->
<g id="node17" class="node">
<title>Node17</title>
<g id="a_node17"><a xlink:href="dofhandler_8hpp.html" target="_top" xlink:title="MODEL::DOFHandler source file.">
<polygon fill="none" stroke="black" points="125,-56.5 125,-75.5 205,-75.5 205,-56.5 125,-56.5"/>
<text text-anchor="middle" x="165" y="-63.5" font-family="Helvetica,sans-Serif" font-size="10.00">dofhandler.hpp</text>
</a>
</g>
</g>
<!-- Node4&#45;&gt;Node17 -->
<g id="edge32" class="edge">
<title>Node4&#45;&gt;Node17</title>
<path fill="none" stroke="midnightblue" d="M481.72,-287.68C371.22,-284.21 111.23,-273.01 85,-244 63.94,-220.7 13.4,-260.73 105,-112 113.05,-98.92 126.42,-88.35 138.5,-80.74"/>
<polygon fill="midnightblue" stroke="midnightblue" points="140.53,-83.6 147.37,-75.51 136.98,-77.57 140.53,-83.6"/>
</g>
<!-- Node18 -->
<g id="node18" class="node">
<title>Node18</title>
<g id="a_node18"><a xlink:href="bloodvessel_8hpp.html" target="_top" xlink:title="MODEL::BloodVessel source file.">
<polygon fill="none" stroke="black" points="94,-224.5 94,-243.5 180,-243.5 180,-224.5 94,-224.5"/>
<text text-anchor="middle" x="137" y="-231.5" font-family="Helvetica,sans-Serif" font-size="10.00">bloodvessel.hpp</text>
</a>
</g>
</g>
<!-- Node4&#45;&gt;Node18 -->
<g id="edge27" class="edge">
<title>Node4&#45;&gt;Node18</title>
<path fill="none" stroke="midnightblue" d="M481.84,-282.81C416.16,-274.45 296.22,-258.89 194,-244 192.75,-243.82 191.48,-243.63 190.19,-243.44"/>
<polygon fill="midnightblue" stroke="midnightblue" points="190.65,-239.97 180.24,-241.94 189.61,-246.89 190.65,-239.97"/>
</g>
<!-- Node20 -->
<g id="node20" class="node">
<title>Node20</title>
<g id="a_node20"><a xlink:href="flowreferencebc_8hpp.html" target="_top" xlink:title="MODEL::FlowReferenceBC source file.">
<polygon fill="none" stroke="black" points="348.5,-224.5 348.5,-243.5 451.5,-243.5 451.5,-224.5 348.5,-224.5"/>
<text text-anchor="middle" x="400" y="-231.5" font-family="Helvetica,sans-Serif" font-size="10.00">flowreferencebc.hpp</text>
</a>
</g>
</g>
<!-- Node4&#45;&gt;Node20 -->
<g id="edge34" class="edge">
<title>Node4&#45;&gt;Node20</title>
<path fill="none" stroke="midnightblue" d="M510.24,-280.44C488.68,-271.56 454.74,-257.56 430.21,-247.45"/>
<polygon fill="midnightblue" stroke="midnightblue" points="431.24,-244.09 420.66,-243.52 428.57,-250.56 431.24,-244.09"/>
</g>
<!-- Node23 -->
<g id="node23" class="node">
<title>Node23</title>
<g id="a_node23"><a xlink:href="pressurereferencebc_8hpp.html" target="_top" xlink:title="MODEL::PressureReferenceBC source file.">
<polygon fill="none" stroke="black" points="469.5,-224.5 469.5,-243.5 592.5,-243.5 592.5,-224.5 469.5,-224.5"/>
<text text-anchor="middle" x="531" y="-231.5" font-family="Helvetica,sans-Serif" font-size="10.00">pressurereferencebc.hpp</text>
</a>
</g>
</g>
<!-- Node4&#45;&gt;Node23 -->
<g id="edge43" class="edge">
<title>Node4&#45;&gt;Node23</title>
<path fill="none" stroke="midnightblue" d="M531,-280.08C531,-273.01 531,-262.86 531,-253.99"/>
<polygon fill="midnightblue" stroke="midnightblue" points="534.5,-253.75 531,-243.75 527.5,-253.75 534.5,-253.75"/>
</g>
<!-- Node24 -->
<g id="node24" class="node">
<title>Node24</title>
<g id="a_node24"><a xlink:href="resistancebc_8hpp.html" target="_top" xlink:title="MODEL::ResistanceBC source file.">
<polygon fill="none" stroke="black" points="611,-224.5 611,-243.5 701,-243.5 701,-224.5 611,-224.5"/>
<text text-anchor="middle" x="656" y="-231.5" font-family="Helvetica,sans-Serif" font-size="10.00">resistancebc.hpp</text>
</a>
</g>
</g>
<!-- Node4&#45;&gt;Node24 -->
<g id="edge49" class="edge">
<title>Node4&#45;&gt;Node24</title>
<path fill="none" stroke="midnightblue" d="M550.81,-280.44C571.29,-271.6 603.48,-257.69 626.86,-247.59"/>
<polygon fill="midnightblue" stroke="midnightblue" points="628.49,-250.7 636.29,-243.52 625.72,-244.27 628.49,-250.7"/>
</g>
<!-- Node25 -->
<g id="node25" class="node">
<title>Node25</title>
<g id="a_node25"><a xlink:href="openloopcoronarybc_8hpp.html" target="_top" xlink:title="MODEL::OpenLoopCoronaryBC source file.">
<polygon fill="none" stroke="black" points="719.5,-224.5 719.5,-243.5 840.5,-243.5 840.5,-224.5 719.5,-224.5"/>
<text text-anchor="middle" x="780" y="-231.5" font-family="Helvetica,sans-Serif" font-size="10.00">openloopcoronarybc.hpp</text>
</a>
</g>
</g>
<!-- Node4&#45;&gt;Node25 -->
<g id="edge54" class="edge">
<title>Node4&#45;&gt;Node25</title>
<path fill="none" stroke="midnightblue" d="M570.45,-280.44C613.89,-271.02 683.79,-255.87 730.78,-245.68"/>
<polygon fill="midnightblue" stroke="midnightblue" points="731.7,-249.06 740.73,-243.52 730.22,-242.22 731.7,-249.06"/>
</g>
<!-- Node8&#45;&gt;Node4 -->
<g id="edge12" class="edge">
<title>Node8&#45;&gt;Node4</title>
<path fill="none" stroke="midnightblue" d="M743.78,-131.57C796.76,-150.3 899.87,-196.96 859,-244 825.25,-282.85 675.19,-289.1 590.13,-289.54"/>
<polygon fill="midnightblue" stroke="midnightblue" points="590.08,-286.04 580.09,-289.57 590.1,-293.04 590.08,-286.04"/>
</g>
<!-- Node9 -->
<g id="node9" class="node">
<title>Node9</title>
<g id="a_node9"><a xlink:title=" ">
<polygon fill="none" stroke="#bfbfbf" points="579,-56.5 579,-75.5 653,-75.5 653,-56.5 579,-56.5"/>
<text text-anchor="middle" x="616" y="-63.5" font-family="Helvetica,sans-Serif" font-size="10.00">Eigen/Sparse</text>
</a>
</g>
</g>
<!-- Node8&#45;&gt;Node9 -->
<g id="edge9" class="edge">
<title>Node8&#45;&gt;Node9</title>
<path fill="none" stroke="midnightblue" d="M699.09,-112.32C683.36,-103.74 659.06,-90.49 640.79,-80.52"/>
<polygon fill="midnightblue" stroke="midnightblue" points="642.32,-77.37 631.87,-75.65 638.97,-83.52 642.32,-77.37"/>
</g>
<!-- Node10 -->
<g id="node10" class="node">
<title>Node10</title>
<g id="a_node10"><a xlink:title=" ">
<polygon fill="none" stroke="#bfbfbf" points="671,-56.5 671,-75.5 759,-75.5 759,-56.5 671,-56.5"/>
<text text-anchor="middle" x="715" y="-63.5" font-family="Helvetica,sans-Serif" font-size="10.00">Eigen/SparseLU</text>
</a>
</g>
</g>
<!-- Node8&#45;&gt;Node10 -->
<g id="edge10" class="edge">
<title>Node8&#45;&gt;Node10</title>
<path fill="none" stroke="midnightblue" d="M715,-112.08C715,-105.01 715,-94.86 715,-85.99"/>
<polygon fill="midnightblue" stroke="midnightblue" points="718.5,-85.75 715,-75.75 711.5,-85.75 718.5,-85.75"/>
</g>
<!-- Node11 -->
<g id="node11" class="node">
<title>Node11</title>
<g id="a_node11"><a xlink:title=" ">
<polygon fill="none" stroke="#bfbfbf" points="777,-56.5 777,-75.5 831,-75.5 831,-56.5 777,-56.5"/>
<text text-anchor="middle" x="804" y="-63.5" font-family="Helvetica,sans-Serif" font-size="10.00">iostream</text>
</a>
</g>
</g>
<!-- Node8&#45;&gt;Node11 -->
<g id="edge11" class="edge">
<title>Node8&#45;&gt;Node11</title>
<path fill="none" stroke="midnightblue" d="M729.3,-112.32C743.18,-103.9 764.49,-90.97 780.8,-81.07"/>
<polygon fill="midnightblue" stroke="midnightblue" points="783,-83.83 789.74,-75.65 779.37,-77.85 783,-83.83"/>
</g>
<!-- Node12&#45;&gt;Node2 -->
<g id="edge14" class="edge">
<title>Node12&#45;&gt;Node2</title>
<path fill="none" stroke="midnightblue" d="M987.93,-243.62C988.93,-257.63 988.61,-285.26 973,-300 943.29,-328.05 836.72,-338.61 761.67,-342.6"/>
<polygon fill="midnightblue" stroke="midnightblue" points="761.12,-339.12 751.3,-343.11 761.47,-346.11 761.12,-339.12"/>
</g>
<!-- Node12&#45;&gt;Node8 -->
<g id="edge15" class="edge">
<title>Node12&#45;&gt;Node8</title>
<path fill="none" stroke="midnightblue" d="M983.13,-224.22C976.38,-209.97 961.02,-182 939,-168 895.83,-140.54 839.29,-129.33 793.82,-124.96"/>
<polygon fill="midnightblue" stroke="midnightblue" points="793.96,-121.46 783.7,-124.08 793.36,-128.44 793.96,-121.46"/>
</g>
<!-- Node12&#45;&gt;Node13 -->
<g id="edge16" class="edge">
<title>Node12&#45;&gt;Node13</title>
<path fill="none" stroke="midnightblue" d="M952.73,-228.94C869.73,-219.11 658.33,-194.08 570.35,-183.66"/>
<polygon fill="midnightblue" stroke="midnightblue" points="570.59,-180.16 560.25,-182.46 569.77,-187.12 570.59,-180.16"/>
</g>
<!-- Node13&#45;&gt;Node2 -->
<g id="edge25" class="edge">
<title>Node13&#45;&gt;Node2</title>
<path fill="none" stroke="midnightblue" d="M560.24,-178.49C631.79,-177.92 812.54,-180.88 850,-224 893.09,-273.6 788.18,-314.48 725.97,-333.5"/>
<polygon fill="midnightblue" stroke="midnightblue" points="724.6,-330.26 716.01,-336.47 726.6,-336.97 724.6,-330.26"/>
</g>
<!-- Node13&#45;&gt;Node5 -->
<g id="edge18" class="edge">
<title>Node13&#45;&gt;Node5</title>
<path fill="none" stroke="midnightblue" d="M508.18,-168.44C482.73,-158.9 441.56,-143.46 414.38,-133.27"/>
<polygon fill="midnightblue" stroke="midnightblue" points="415.31,-129.88 404.72,-129.64 412.85,-136.43 415.31,-129.88"/>
</g>
<!-- Node13&#45;&gt;Node8 -->
<g id="edge26" class="edge">
<title>Node13&#45;&gt;Node8</title>
<path fill="none" stroke="midnightblue" d="M560.16,-168.44C591.51,-159.24 641.53,-144.56 676.2,-134.39"/>
<polygon fill="midnightblue" stroke="midnightblue" points="677.37,-137.69 685.98,-131.52 675.4,-130.97 677.37,-137.69"/>
</g>
<!-- Node14 -->
<g id="node14" class="node">
<title>Node14</title>
<g id="a_node14"><a xlink:title=" ">
<polygon fill="none" stroke="#bfbfbf" points="274,-0.5 274,-19.5 318,-19.5 318,-0.5 274,-0.5"/>
<text text-anchor="middle" x="296" y="-7.5" font-family="Helvetica,sans-Serif" font-size="10.00">vector</text>
</a>
</g>
</g>
<!-- Node13&#45;&gt;Node14 -->
<g id="edge17" class="edge">
<title>Node13&#45;&gt;Node14</title>
<path fill="none" stroke="midnightblue" d="M520.87,-168.5C505.59,-155.79 475.63,-131.29 449,-112 403.68,-79.17 348.45,-43.8 318.29,-24.86"/>
<polygon fill="midnightblue" stroke="midnightblue" points="320.11,-21.87 309.78,-19.53 316.4,-27.8 320.11,-21.87"/>
</g>
<!-- Node13&#45;&gt;Node15 -->
<g id="edge19" class="edge">
<title>Node13&#45;&gt;Node15</title>
<path fill="none" stroke="midnightblue" d="M501.81,-174.03C432.78,-166.98 254.12,-148.59 105,-132 92.35,-130.59 78.55,-129 66.16,-127.55"/>
<polygon fill="midnightblue" stroke="midnightblue" points="66.49,-124.06 56.15,-126.37 65.67,-131.01 66.49,-124.06"/>
</g>
<!-- Node13&#45;&gt;Node17 -->
<g id="edge24" class="edge">
<title>Node13&#45;&gt;Node17</title>
<path fill="none" stroke="midnightblue" d="M518.55,-168.35C497.71,-154.28 453.99,-126.57 413,-112 346.85,-88.49 266.2,-76.77 215.21,-71.3"/>
<polygon fill="midnightblue" stroke="midnightblue" points="215.42,-67.8 205.11,-70.26 214.7,-74.77 215.42,-67.8"/>
</g>
<!-- Node16 -->
<g id="node16" class="node">
<title>Node16</title>
<g id="a_node16"><a xlink:title=" ">
<polygon fill="none" stroke="#bfbfbf" points="87.5,-0.5 87.5,-19.5 128.5,-19.5 128.5,-0.5 87.5,-0.5"/>
<text text-anchor="middle" x="108" y="-7.5" font-family="Helvetica,sans-Serif" font-size="10.00">string</text>
</a>
</g>
</g>
<!-- Node15&#45;&gt;Node16 -->
<g id="edge20" class="edge">
<title>Node15&#45;&gt;Node16</title>
<path fill="none" stroke="midnightblue" d="M34.28,-112.37C47.48,-94.22 78.33,-51.8 95.64,-27.99"/>
<polygon fill="midnightblue" stroke="midnightblue" points="98.7,-29.74 101.75,-19.59 93.04,-25.62 98.7,-29.74"/>
</g>
<!-- Node15&#45;&gt;Node17 -->
<g id="edge21" class="edge">
<title>Node15&#45;&gt;Node17</title>
<path fill="none" stroke="midnightblue" d="M49.71,-112.44C72.35,-103.52 108.07,-89.44 133.75,-79.32"/>
<polygon fill="midnightblue" stroke="midnightblue" points="135.37,-82.44 143.39,-75.52 132.81,-75.93 135.37,-82.44"/>
</g>
<!-- Node17&#45;&gt;Node14 -->
<g id="edge22" class="edge">
<title>Node17&#45;&gt;Node14</title>
<path fill="none" stroke="midnightblue" d="M185.76,-56.44C207.32,-47.56 241.26,-33.56 265.79,-23.45"/>
<polygon fill="midnightblue" stroke="midnightblue" points="267.43,-26.56 275.34,-19.52 264.76,-20.09 267.43,-26.56"/>
</g>
<!-- Node17&#45;&gt;Node16 -->
<g id="edge23" class="edge">
<title>Node17&#45;&gt;Node16</title>
<path fill="none" stroke="midnightblue" d="M155.84,-56.32C147.5,-48.42 134.97,-36.55 124.82,-26.94"/>
<polygon fill="midnightblue" stroke="midnightblue" points="126.99,-24.17 117.32,-19.83 122.18,-29.25 126.99,-24.17"/>
</g>
<!-- Node18&#45;&gt;Node2 -->
<g id="edge30" class="edge">
<title>Node18&#45;&gt;Node2</title>
<path fill="none" stroke="midnightblue" d="M179.44,-243.53C278.26,-263.41 523.52,-312.73 631.52,-334.45"/>
<polygon fill="midnightblue" stroke="midnightblue" points="631.04,-337.92 641.53,-336.46 632.42,-331.06 631.04,-337.92"/>
</g>
<!-- Node18&#45;&gt;Node8 -->
<g id="edge31" class="edge">
<title>Node18&#45;&gt;Node8</title>
<path fill="none" stroke="midnightblue" d="M176.46,-224.49C236.34,-211.68 353.8,-186.91 454,-168 521.7,-155.23 599.57,-141.99 652.51,-133.21"/>
<polygon fill="midnightblue" stroke="midnightblue" points="653.13,-136.65 662.42,-131.57 651.98,-129.75 653.13,-136.65"/>
</g>
<!-- Node18&#45;&gt;Node13 -->
<g id="edge29" class="edge">
<title>Node18&#45;&gt;Node13</title>
<path fill="none" stroke="midnightblue" d="M180.29,-227.07C257.36,-216.5 417.22,-194.59 491.49,-184.42"/>
<polygon fill="midnightblue" stroke="midnightblue" points="492.37,-187.83 501.8,-183 491.42,-180.89 492.37,-187.83"/>
</g>
<!-- Node19 -->
<g id="node19" class="node">
<title>Node19</title>
<g id="a_node19"><a xlink:title=" ">
<polygon fill="none" stroke="#bfbfbf" points="114,-112.5 114,-131.5 160,-131.5 160,-112.5 114,-112.5"/>
<text text-anchor="middle" x="137" y="-119.5" font-family="Helvetica,sans-Serif" font-size="10.00">math.h</text>
</a>
</g>
</g>
<!-- Node18&#45;&gt;Node19 -->
<g id="edge28" class="edge">
<title>Node18&#45;&gt;Node19</title>
<path fill="none" stroke="midnightblue" d="M137,-224.37C137,-206.62 137,-165.67 137,-141.6"/>
<polygon fill="midnightblue" stroke="midnightblue" points="140.5,-141.59 137,-131.59 133.5,-141.59 140.5,-141.59"/>
</g>
<!-- Node20&#45;&gt;Node2 -->
<g id="edge35" class="edge">
<title>Node20&#45;&gt;Node2</title>
<path fill="none" stroke="midnightblue" d="M444.16,-243.57C491.53,-253.11 563.4,-268.66 589,-280 604.55,-286.89 641.44,-313.36 664.4,-330.33"/>
<polygon fill="midnightblue" stroke="midnightblue" points="662.33,-333.15 672.45,-336.3 666.5,-327.53 662.33,-333.15"/>
</g>
<!-- Node20&#45;&gt;Node8 -->
<g id="edge36" class="edge">
<title>Node20&#45;&gt;Node8</title>
<path fill="none" stroke="midnightblue" d="M409.5,-224.32C425.49,-210.21 459.32,-182.44 493,-168 538.44,-148.52 592.78,-137.32 636.33,-130.97"/>
<polygon fill="midnightblue" stroke="midnightblue" points="636.88,-134.42 646.3,-129.57 635.91,-127.49 636.88,-134.42"/>
</g>
<!-- Node20&#45;&gt;Node13 -->
<g id="edge37" class="edge">
<title>Node20&#45;&gt;Node13</title>
<path fill="none" stroke="midnightblue" d="M420.76,-224.44C442.32,-215.56 476.26,-201.56 500.79,-191.45"/>
<polygon fill="midnightblue" stroke="midnightblue" points="502.43,-194.56 510.34,-187.52 499.76,-188.09 502.43,-194.56"/>
</g>
<!-- Node21 -->
<g id="node21" class="node">
<title>Node21</title>
<g id="a_node21"><a xlink:href="timedependentparameter_8hpp.html" target="_top" xlink:title="MODEL::TimeDependentParameter source file.">
<polygon fill="none" stroke="black" points="171,-168.5 171,-187.5 313,-187.5 313,-168.5 171,-168.5"/>
<text text-anchor="middle" x="242" y="-175.5" font-family="Helvetica,sans-Serif" font-size="10.00">timedependentparameter.hpp</text>
</a>
</g>
</g>
<!-- Node20&#45;&gt;Node21 -->
<g id="edge38" class="edge">
<title>Node20&#45;&gt;Node21</title>
<path fill="none" stroke="midnightblue" d="M374.96,-224.44C348.38,-215.36 306.19,-200.94 276.48,-190.78"/>
<polygon fill="midnightblue" stroke="midnightblue" points="277.51,-187.44 266.92,-187.52 275.25,-194.06 277.51,-187.44"/>
</g>
<!-- Node21&#45;&gt;Node14 -->
<g id="edge40" class="edge">
<title>Node21&#45;&gt;Node14</title>
<path fill="none" stroke="midnightblue" d="M250.75,-168.19C258.67,-159.68 269.98,-146.04 276,-132 290.64,-97.88 294.62,-54.1 295.66,-29.65"/>
<polygon fill="midnightblue" stroke="midnightblue" points="299.16,-29.71 295.97,-19.6 292.17,-29.49 299.16,-29.71"/>
</g>
<!-- Node21&#45;&gt;Node17 -->
<g id="edge42" class="edge">
<title>Node21&#45;&gt;Node17</title>
<path fill="none" stroke="midnightblue" d="M234.79,-168.21C227.55,-159.26 216.17,-144.91 207,-132 195.73,-116.13 183.77,-97.41 175.51,-84.15"/>
<polygon fill="midnightblue" stroke="midnightblue" points="178.44,-82.24 170.21,-75.57 172.49,-85.92 178.44,-82.24"/>
</g>
<!-- Node21&#45;&gt;Node19 -->
<g id="edge39" class="edge">
<title>Node21&#45;&gt;Node19</title>
<path fill="none" stroke="midnightblue" d="M225.13,-168.32C208.29,-159.66 182.19,-146.24 162.76,-136.25"/>
<polygon fill="midnightblue" stroke="midnightblue" points="164.32,-133.12 153.83,-131.65 161.12,-139.34 164.32,-133.12"/>
</g>
<!-- Node22 -->
<g id="node22" class="node">
<title>Node22</title>
<g id="a_node22"><a xlink:title=" ">
<polygon fill="none" stroke="#bfbfbf" points="216.5,-112.5 216.5,-131.5 267.5,-131.5 267.5,-112.5 216.5,-112.5"/>
<text text-anchor="middle" x="242" y="-119.5" font-family="Helvetica,sans-Serif" font-size="10.00">numeric</text>
</a>
</g>
</g>
<!-- Node21&#45;&gt;Node22 -->
<g id="edge41" class="edge">
<title>Node21&#45;&gt;Node22</title>
<path fill="none" stroke="midnightblue" d="M242,-168.08C242,-161.01 242,-150.86 242,-141.99"/>
<polygon fill="midnightblue" stroke="midnightblue" points="245.5,-141.75 242,-131.75 238.5,-141.75 245.5,-141.75"/>
</g>
<!-- Node23&#45;&gt;Node2 -->
<g id="edge44" class="edge">
<title>Node23&#45;&gt;Node2</title>
<path fill="none" stroke="midnightblue" d="M553.55,-243.54C572.75,-251.41 600.56,-264.23 622,-280 640.94,-293.93 659.06,-313.98 670.77,-328.13"/>
<polygon fill="midnightblue" stroke="midnightblue" points="668.18,-330.48 677.18,-336.06 673.62,-326.08 668.18,-330.48"/>
</g>
<!-- Node23&#45;&gt;Node8 -->
<g id="edge45" class="edge">
<title>Node23&#45;&gt;Node8</title>
<path fill="none" stroke="midnightblue" d="M545.44,-224.37C577.15,-205.41 653.11,-160 691.68,-136.94"/>
<polygon fill="midnightblue" stroke="midnightblue" points="693.84,-139.73 700.63,-131.59 690.25,-133.72 693.84,-139.73"/>
</g>
<!-- Node23&#45;&gt;Node13 -->
<g id="edge46" class="edge">
<title>Node23&#45;&gt;Node13</title>
<path fill="none" stroke="midnightblue" d="M531,-224.08C531,-217.01 531,-206.86 531,-197.99"/>
<polygon fill="midnightblue" stroke="midnightblue" points="534.5,-197.75 531,-187.75 527.5,-197.75 534.5,-197.75"/>
</g>
<!-- Node23&#45;&gt;Node21 -->
<g id="edge47" class="edge">
<title>Node23&#45;&gt;Node21</title>
<path fill="none" stroke="midnightblue" d="M485.21,-224.44C434.26,-214.92 351.97,-199.55 297.43,-189.36"/>
<polygon fill="midnightblue" stroke="midnightblue" points="298.05,-185.91 287.58,-187.52 296.77,-192.79 298.05,-185.91"/>
</g>
<!-- Node24&#45;&gt;Node2 -->
<g id="edge50" class="edge">
<title>Node24&#45;&gt;Node2</title>
<path fill="none" stroke="midnightblue" d="M658.19,-243.59C662.72,-261.39 673.21,-302.62 679.34,-326.67"/>
<polygon fill="midnightblue" stroke="midnightblue" points="675.94,-327.54 681.8,-336.37 682.73,-325.81 675.94,-327.54"/>
</g>
<!-- Node24&#45;&gt;Node8 -->
<g id="edge51" class="edge">
<title>Node24&#45;&gt;Node8</title>
<path fill="none" stroke="midnightblue" d="M660.63,-224.37C670.28,-206.38 692.71,-164.55 705.55,-140.63"/>
<polygon fill="midnightblue" stroke="midnightblue" points="708.75,-142.06 710.39,-131.59 702.58,-138.75 708.75,-142.06"/>
</g>
<!-- Node24&#45;&gt;Node13 -->
<g id="edge52" class="edge">
<title>Node24&#45;&gt;Node13</title>
<path fill="none" stroke="midnightblue" d="M636.19,-224.44C615.71,-215.6 583.52,-201.69 560.14,-191.59"/>
<polygon fill="midnightblue" stroke="midnightblue" points="561.28,-188.27 550.71,-187.52 558.51,-194.7 561.28,-188.27"/>
</g>
<!-- Node24&#45;&gt;Node21 -->
<g id="edge53" class="edge">
<title>Node24&#45;&gt;Node21</title>
<path fill="none" stroke="midnightblue" d="M611,-225.5C607.62,-224.97 604.26,-224.47 601,-224 505.85,-210.26 396.15,-196.86 323.31,-188.31"/>
<polygon fill="midnightblue" stroke="midnightblue" points="323.63,-184.82 313.29,-187.14 322.81,-191.78 323.63,-184.82"/>
</g>
<!-- Node25&#45;&gt;Node2 -->
<g id="edge55" class="edge">
<title>Node25&#45;&gt;Node2</title>
<path fill="none" stroke="midnightblue" d="M772.5,-243.59C756.55,-261.87 719.02,-304.87 698.33,-328.59"/>
<polygon fill="midnightblue" stroke="midnightblue" points="695.47,-326.53 691.53,-336.37 700.75,-331.14 695.47,-326.53"/>
</g>
<!-- Node25&#45;&gt;Node8 -->
<g id="edge56" class="edge">
<title>Node25&#45;&gt;Node8</title>
<path fill="none" stroke="midnightblue" d="M774.9,-224.37C764.22,-206.3 739.33,-164.18 725.23,-140.31"/>
<polygon fill="midnightblue" stroke="midnightblue" points="728.18,-138.42 720.08,-131.59 722.15,-141.98 728.18,-138.42"/>
</g>
<!-- Node25&#45;&gt;Node13 -->
<g id="edge57" class="edge">
<title>Node25&#45;&gt;Node13</title>
<path fill="none" stroke="midnightblue" d="M740.55,-224.44C693.88,-214.32 616.69,-197.58 570.16,-187.49"/>
<polygon fill="midnightblue" stroke="midnightblue" points="570.67,-184.02 560.16,-185.32 569.19,-190.86 570.67,-184.02"/>
</g>
<!-- Node25&#45;&gt;Node21 -->
<g id="edge58" class="edge">
<title>Node25&#45;&gt;Node21</title>
<path fill="none" stroke="midnightblue" d="M719.31,-225.08C716.16,-224.7 713.04,-224.34 710,-224 574.55,-208.78 416.67,-194.27 323.26,-186.02"/>
<polygon fill="midnightblue" stroke="midnightblue" points="323.3,-182.51 313.03,-185.12 322.69,-189.48 323.3,-182.51"/>
</g>
</g>
</svg>
