<?xml version="1.0" encoding="UTF-8" standalone="no"?>
<!DOCTYPE svg PUBLIC "-//W3C//DTD SVG 1.1//EN"
 "http://www.w3.org/Graphics/SVG/1.1/DTD/svg11.dtd">
<!-- Generated by graphviz version 7.0.5 (20221223.1930)
 -->
<!-- Title: model/windkesselbc.hpp Pages: 1 -->
<svg width="2095pt" height="467pt"
 viewBox="0.00 0.00 2094.50 467.00" xmlns="http://www.w3.org/2000/svg" xmlns:xlink="http://www.w3.org/1999/xlink">
<g id="graph0" class="graph" transform="scale(1 1) rotate(0) translate(4 463)">
<title>model/windkesselbc.hpp</title>
<!-- Node1 -->
<g id="node1" class="node">
<title>Node1</title>
<g id="a_node1"><a xlink:title="MODEL::WindkesselBC source file.">
<polygon fill="#999999" stroke="#666666" points="1306,-459 1183,-459 1183,-440 1306,-440 1306,-459"/>
<text text-anchor="middle" x="1244.5" y="-447" font-family="Helvetica,sans-Serif" font-size="10.00">model/windkesselbc.hpp</text>
</a>
</g>
</g>
<!-- Node2 -->
<g id="node2" class="node">
<title>Node2</title>
<g id="a_node2"><a xlink:href="sparsesystem_8hpp.html" target="_top" xlink:title="ALGEBRA::SparseSystem source file.">
<polygon fill="white" stroke="#666666" points="1313,-404 1176,-404 1176,-385 1313,-385 1313,-404"/>
<text text-anchor="middle" x="1244.5" y="-392" font-family="Helvetica,sans-Serif" font-size="10.00">../algebra/sparsesystem.hpp</text>
</a>
</g>
</g>
<!-- Node1&#45;&gt;Node2 -->
<g id="edge1" class="edge">
<title>Node1&#45;&gt;Node2</title>
<path fill="none" stroke="#63b8ff" d="M1244.5,-439.75C1244.5,-433.27 1244.5,-424.16 1244.5,-415.9"/>
<polygon fill="#63b8ff" stroke="#63b8ff" points="1248,-415.96 1244.5,-405.96 1241,-415.96 1248,-415.96"/>
</g>
<!-- Node13 -->
<g id="node13" class="node">
<title>Node13</title>
<g id="a_node13"><a xlink:href="block_8hpp.html" target="_top" xlink:title="MODEL::Block source file.">
<polygon fill="white" stroke="#666666" points="1136.5,-184 1078.5,-184 1078.5,-165 1136.5,-165 1136.5,-184"/>
<text text-anchor="middle" x="1107.5" y="-172" font-family="Helvetica,sans-Serif" font-size="10.00">block.hpp</text>
</a>
</g>
</g>
<!-- Node1&#45;&gt;Node13 -->
<g id="edge75" class="edge">
<title>Node1&#45;&gt;Node13</title>
<path fill="none" stroke="#63b8ff" d="M1306.41,-447.06C1500.86,-441.74 2086.5,-419.16 2086.5,-340.5 2086.5,-340.5 2086.5,-340.5 2086.5,-283.5 2086.5,-252.09 2081.74,-237.26 2055.5,-220 2036.26,-207.35 1327.33,-182.85 1148.26,-176.85"/>
<polygon fill="#63b8ff" stroke="#63b8ff" points="1148.39,-173.35 1138.28,-176.52 1148.16,-180.35 1148.39,-173.35"/>
</g>
<!-- Node3 -->
<g id="node3" class="node">
<title>Node3</title>
<g id="a_node3"><a xlink:title=" ">
<polygon fill="#e0e0e0" stroke="#999999" points="1384.5,-349 1310.5,-349 1310.5,-330 1384.5,-330 1384.5,-349"/>
<text text-anchor="middle" x="1347.5" y="-337" font-family="Helvetica,sans-Serif" font-size="10.00">Eigen/Sparse</text>
</a>
</g>
</g>
<!-- Node2&#45;&gt;Node3 -->
<g id="edge2" class="edge">
<title>Node2&#45;&gt;Node3</title>
<path fill="none" stroke="#63b8ff" d="M1261.97,-384.51C1277.9,-376.31 1301.69,-364.07 1320.14,-354.58"/>
<polygon fill="#63b8ff" stroke="#63b8ff" points="1321.65,-357.74 1328.94,-350.05 1318.45,-351.51 1321.65,-357.74"/>
</g>
<!-- Node4 -->
<g id="node4" class="node">
<title>Node4</title>
<g id="a_node4"><a xlink:title=" ">
<polygon fill="#e0e0e0" stroke="#999999" points="1490.5,-349 1402.5,-349 1402.5,-330 1490.5,-330 1490.5,-349"/>
<text text-anchor="middle" x="1446.5" y="-337" font-family="Helvetica,sans-Serif" font-size="10.00">Eigen/SparseLU</text>
</a>
</g>
</g>
<!-- Node2&#45;&gt;Node4 -->
<g id="edge3" class="edge">
<title>Node2&#45;&gt;Node4</title>
<path fill="none" stroke="#63b8ff" d="M1278.77,-384.51C1312.53,-375.65 1364.31,-362.07 1401.4,-352.33"/>
<polygon fill="#63b8ff" stroke="#63b8ff" points="1402.15,-355.75 1410.94,-349.83 1400.38,-348.98 1402.15,-355.75"/>
</g>
<!-- Node5 -->
<g id="node5" class="node">
<title>Node5</title>
<g id="a_node5"><a xlink:title=" ">
<polygon fill="#e0e0e0" stroke="#999999" points="1102.5,-349 1048.5,-349 1048.5,-330 1102.5,-330 1102.5,-349"/>
<text text-anchor="middle" x="1075.5" y="-337" font-family="Helvetica,sans-Serif" font-size="10.00">iostream</text>
</a>
</g>
</g>
<!-- Node2&#45;&gt;Node5 -->
<g id="edge4" class="edge">
<title>Node2&#45;&gt;Node5</title>
<path fill="none" stroke="#63b8ff" d="M1215.83,-384.51C1187.73,-375.7 1144.73,-362.21 1113.73,-352.49"/>
<polygon fill="#63b8ff" stroke="#63b8ff" points="1114.94,-349.2 1104.35,-349.55 1112.85,-355.88 1114.94,-349.2"/>
</g>
<!-- Node6 -->
<g id="node6" class="node">
<title>Node6</title>
<g id="a_node6"><a xlink:href="model_8hpp.html" target="_top" xlink:title="MODEL::Model source file.">
<polygon fill="white" stroke="#666666" points="979.5,-349 881.5,-349 881.5,-330 979.5,-330 979.5,-349"/>
<text text-anchor="middle" x="930.5" y="-337" font-family="Helvetica,sans-Serif" font-size="10.00">../model/model.hpp</text>
</a>
</g>
</g>
<!-- Node2&#45;&gt;Node6 -->
<g id="edge5" class="edge">
<title>Node2&#45;&gt;Node6</title>
<path fill="none" stroke="#63b8ff" d="M1186.02,-384.51C1130,-375.38 1046.03,-361.23 989.76,-351.45"/>
<polygon fill="#63b8ff" stroke="#63b8ff" points="990.49,-348.02 980.04,-349.75 989.29,-354.92 990.49,-348.02"/>
</g>
<!-- Node6&#45;&gt;Node1 -->
<g id="edge69" class="edge">
<title>Node6&#45;&gt;Node1</title>
<path fill="none" stroke="#63b8ff" d="M956.49,-349.44C1012.24,-368.62 1143.44,-413.74 1207.71,-435.85"/>
<polygon fill="#63b8ff" stroke="#63b8ff" points="1206.51,-439.13 1217.11,-439.08 1208.79,-432.52 1206.51,-439.13"/>
</g>
<!-- Node6&#45;&gt;Node2 -->
<g id="edge10" class="edge">
<title>Node6&#45;&gt;Node2</title>
<path fill="none" stroke="#63b8ff" d="M979.75,-347.99C1035.44,-357.01 1125.91,-372.24 1185.36,-382.58"/>
<polygon fill="#63b8ff" stroke="#63b8ff" points="1184.51,-385.98 1194.96,-384.25 1185.71,-379.08 1184.51,-385.98"/>
</g>
<!-- Node7 -->
<g id="node7" class="node">
<title>Node7</title>
<g id="a_node7"><a xlink:title=" ">
<polygon fill="#e0e0e0" stroke="#999999" points="637.5,-294 581.5,-294 581.5,-275 637.5,-275 637.5,-294"/>
<text text-anchor="middle" x="609.5" y="-282" font-family="Helvetica,sans-Serif" font-size="10.00">algorithm</text>
</a>
</g>
</g>
<!-- Node6&#45;&gt;Node7 -->
<g id="edge6" class="edge">
<title>Node6&#45;&gt;Node7</title>
<path fill="none" stroke="#63b8ff" d="M881,-331.24C825.15,-322.9 731.62,-308.49 651.5,-294 650.68,-293.85 649.84,-293.7 649.01,-293.54"/>
<polygon fill="#63b8ff" stroke="#63b8ff" points="649.9,-290.15 639.42,-291.71 648.58,-297.03 649.9,-290.15"/>
</g>
<!-- Node8 -->
<g id="node8" class="node">
<title>Node8</title>
<g id="a_node8"><a xlink:title=" ">
<polygon fill="#e0e0e0" stroke="#999999" points="196,-294 167,-294 167,-275 196,-275 196,-294"/>
<text text-anchor="middle" x="181.5" y="-282" font-family="Helvetica,sans-Serif" font-size="10.00">list</text>
</a>
</g>
</g>
<!-- Node6&#45;&gt;Node8 -->
<g id="edge7" class="edge">
<title>Node6&#45;&gt;Node8</title>
<path fill="none" stroke="#63b8ff" d="M881.17,-337.35C743.25,-333.86 354.66,-321.96 207.42,-293.95"/>
<polygon fill="#63b8ff" stroke="#63b8ff" points="208.39,-290.57 197.89,-292.02 207,-297.43 208.39,-290.57"/>
</g>
<!-- Node9 -->
<g id="node9" class="node">
<title>Node9</title>
<g id="a_node9"><a xlink:title=" ">
<polygon fill="#e0e0e0" stroke="#999999" points="265,-294 214,-294 214,-275 265,-275 265,-294"/>
<text text-anchor="middle" x="239.5" y="-282" font-family="Helvetica,sans-Serif" font-size="10.00">memory</text>
</a>
</g>
</g>
<!-- Node6&#45;&gt;Node9 -->
<g id="edge8" class="edge">
<title>Node6&#45;&gt;Node9</title>
<path fill="none" stroke="#63b8ff" d="M881.26,-337.5C772.3,-334.78 502.77,-325.19 279.5,-294 278.48,-293.86 277.46,-293.71 276.42,-293.54"/>
<polygon fill="#63b8ff" stroke="#63b8ff" points="277.18,-290.12 266.72,-291.79 275.94,-297.01 277.18,-290.12"/>
</g>
<!-- Node10 -->
<g id="node10" class="node">
<title>Node10</title>
<g id="a_node10"><a xlink:title=" ">
<polygon fill="#e0e0e0" stroke="#999999" points="494.5,-19 450.5,-19 450.5,0 494.5,0 494.5,-19"/>
<text text-anchor="middle" x="472.5" y="-7" font-family="Helvetica,sans-Serif" font-size="10.00">vector</text>
</a>
</g>
</g>
<!-- Node6&#45;&gt;Node10 -->
<g id="edge9" class="edge">
<title>Node6&#45;&gt;Node10</title>
<path fill="none" stroke="#63b8ff" d="M881.46,-336.25C741.12,-329.63 346.4,-309.71 323.5,-294 297.76,-276.34 293.5,-261.71 293.5,-230.5 293.5,-230.5 293.5,-230.5 293.5,-118.5 293.5,-51.32 387.06,-24.83 438.9,-15.31"/>
<polygon fill="#63b8ff" stroke="#63b8ff" points="439.43,-18.77 448.7,-13.63 438.25,-11.87 439.43,-18.77"/>
</g>
<!-- Node11 -->
<g id="node11" class="node">
<title>Node11</title>
<g id="a_node11"><a xlink:href="bloodvessel_8hpp.html" target="_top" xlink:title="MODEL::BloodVessel source file.">
<polygon fill="white" stroke="#666666" points="1560,-239 1437,-239 1437,-220 1560,-220 1560,-239"/>
<text text-anchor="middle" x="1498.5" y="-227" font-family="Helvetica,sans-Serif" font-size="10.00">../model/bloodvessel.hpp</text>
</a>
</g>
</g>
<!-- Node6&#45;&gt;Node11 -->
<g id="edge11" class="edge">
<title>Node6&#45;&gt;Node11</title>
<path fill="none" stroke="#63b8ff" d="M979.87,-334.6C998.55,-333.14 1020,-331.47 1039.5,-330 1094.27,-325.86 1495.1,-334.23 1532.5,-294 1545.33,-280.2 1531.27,-260.64 1517.53,-246.88"/>
<polygon fill="#63b8ff" stroke="#63b8ff" points="1520.07,-244.46 1510.37,-240.2 1515.3,-249.58 1520.07,-244.46"/>
</g>
<!-- Node6&#45;&gt;Node13 -->
<g id="edge70" class="edge">
<title>Node6&#45;&gt;Node13</title>
<path fill="none" stroke="#63b8ff" d="M881.07,-332.96C812.91,-324.81 696.99,-308.95 684.5,-294 679.09,-287.52 679.28,-281.64 684.5,-275 731.85,-214.81 970.16,-187.51 1066.75,-178.79"/>
<polygon fill="#63b8ff" stroke="#63b8ff" points="1066.91,-182.29 1076.56,-177.92 1066.29,-175.31 1066.91,-182.29"/>
</g>
<!-- Node16 -->
<g id="node16" class="node">
<title>Node16</title>
<g id="a_node16"><a xlink:href="dofhandler_8hpp.html" target="_top" xlink:title="MODEL::DOFHandler source file.">
<polygon fill="white" stroke="#666666" points="647.5,-74 567.5,-74 567.5,-55 647.5,-55 647.5,-74"/>
<text text-anchor="middle" x="607.5" y="-62" font-family="Helvetica,sans-Serif" font-size="10.00">dofhandler.hpp</text>
</a>
</g>
</g>
<!-- Node6&#45;&gt;Node16 -->
<g id="edge72" class="edge">
<title>Node6&#45;&gt;Node16</title>
<path fill="none" stroke="#63b8ff" d="M881.3,-336.25C750.87,-330.06 405.09,-312.01 388.5,-294 382.78,-287.79 384.79,-282.58 388.5,-275 435.02,-179.98 509.79,-211.11 576.5,-129 587.16,-115.88 595.33,-98.48 600.6,-85.22"/>
<polygon fill="#63b8ff" stroke="#63b8ff" points="603.87,-86.45 604.08,-75.85 597.31,-84.01 603.87,-86.45"/>
</g>
<!-- Node18 -->
<g id="node18" class="node">
<title>Node18</title>
<g id="a_node18"><a xlink:href="node_8hpp.html" target="_top" xlink:title="MODEL::Node source file.">
<polygon fill="white" stroke="#666666" points="567.5,-129 511.5,-129 511.5,-110 567.5,-110 567.5,-129"/>
<text text-anchor="middle" x="539.5" y="-117" font-family="Helvetica,sans-Serif" font-size="10.00">node.hpp</text>
</a>
</g>
</g>
<!-- Node6&#45;&gt;Node18 -->
<g id="edge73" class="edge">
<title>Node6&#45;&gt;Node18</title>
<path fill="none" stroke="#63b8ff" d="M881.27,-336.49C745.27,-330.71 373.27,-313.2 355.5,-294 326.04,-262.18 266.5,-287.41 393.5,-165 422.13,-137.4 467.37,-126.87 499.9,-122.88"/>
<polygon fill="#63b8ff" stroke="#63b8ff" points="500.17,-126.37 509.75,-121.84 499.44,-119.41 500.17,-126.37"/>
</g>
<!-- Node19 -->
<g id="node19" class="node">
<title>Node19</title>
<g id="a_node19"><a xlink:href="bloodvesseljunction_8hpp.html" target="_top" xlink:title="MODEL::BloodVesselJunction source file.">
<polygon fill="white" stroke="#666666" points="1524,-294 1367,-294 1367,-275 1524,-275 1524,-294"/>
<text text-anchor="middle" x="1445.5" y="-282" font-family="Helvetica,sans-Serif" font-size="10.00">../model/bloodvesseljunction.hpp</text>
</a>
</g>
</g>
<!-- Node6&#45;&gt;Node19 -->
<g id="edge26" class="edge">
<title>Node6&#45;&gt;Node19</title>
<path fill="none" stroke="#63b8ff" d="M979.88,-333.42C1066.32,-324.52 1246.22,-306.01 1355.36,-294.78"/>
<polygon fill="#63b8ff" stroke="#63b8ff" points="1355.58,-298.27 1365.17,-293.77 1354.86,-291.31 1355.58,-298.27"/>
</g>
<!-- Node20 -->
<g id="node20" class="node">
<title>Node20</title>
<g id="a_node20"><a xlink:href="blocktype_8hpp.html" target="_top" xlink:title="MODEL::BlockType source file.">
<polygon fill="white" stroke="#666666" points="1284.5,-239 1208.5,-239 1208.5,-220 1284.5,-220 1284.5,-239"/>
<text text-anchor="middle" x="1246.5" y="-227" font-family="Helvetica,sans-Serif" font-size="10.00">blocktype.hpp</text>
</a>
</g>
</g>
<!-- Node6&#45;&gt;Node20 -->
<g id="edge71" class="edge">
<title>Node6&#45;&gt;Node20</title>
<path fill="none" stroke="#63b8ff" d="M979.83,-334.51C1046.37,-328.42 1160.7,-315.21 1196.5,-294 1214.39,-283.4 1228.33,-263.79 1236.89,-249.15"/>
<polygon fill="#63b8ff" stroke="#63b8ff" points="1239.9,-250.94 1241.64,-240.49 1233.76,-247.58 1239.9,-250.94"/>
</g>
<!-- Node21 -->
<g id="node21" class="node">
<title>Node21</title>
<g id="a_node21"><a xlink:href="closedloop_r_c_rbc_8hpp.html" target="_top" xlink:title="MODEL::ClosedLoopRCRBC source file.">
<polygon fill="white" stroke="#666666" points="149,-294 0,-294 0,-275 149,-275 149,-294"/>
<text text-anchor="middle" x="74.5" y="-282" font-family="Helvetica,sans-Serif" font-size="10.00">../model/closedloopRCRbc.hpp</text>
</a>
</g>
</g>
<!-- Node6&#45;&gt;Node21 -->
<g id="edge31" class="edge">
<title>Node6&#45;&gt;Node21</title>
<path fill="none" stroke="#63b8ff" d="M881.16,-336.42C760.22,-331.17 439.13,-316.23 160.29,-294.19"/>
<polygon fill="#63b8ff" stroke="#63b8ff" points="160.9,-290.73 150.65,-293.42 160.34,-297.7 160.9,-290.73"/>
</g>
<!-- Node22 -->
<g id="node22" class="node">
<title>Node22</title>
<g id="a_node22"><a xlink:href="closedloopcoronarybc_8hpp.html" target="_top" xlink:title="MODEL::ClosedLoopCoronaryBC source file.">
<polygon fill="white" stroke="#666666" points="1944,-294 1779,-294 1779,-275 1944,-275 1944,-294"/>
<text text-anchor="middle" x="1861.5" y="-282" font-family="Helvetica,sans-Serif" font-size="10.00">../model/closedloopcoronarybc.hpp</text>
</a>
</g>
</g>
<!-- Node6&#45;&gt;Node22 -->
<g id="edge34" class="edge">
<title>Node6&#45;&gt;Node22</title>
<path fill="none" stroke="#63b8ff" d="M979.86,-334.38C998.54,-332.89 1019.99,-331.27 1039.5,-330 1346.82,-310.03 1424.06,-312.05 1731.5,-294 1743.05,-293.32 1755.17,-292.58 1767.18,-291.82"/>
<polygon fill="#63b8ff" stroke="#63b8ff" points="1767.37,-295.31 1777.13,-291.18 1766.92,-288.32 1767.37,-295.31"/>
</g>
<!-- Node23 -->
<g id="node23" class="node">
<title>Node23</title>
<g id="a_node23"><a xlink:href="closedloopheartpulmonary_8hpp.html" target="_top" xlink:title="MODEL::ClosedLoopHeartPulmonary source file.">
<polygon fill="white" stroke="#666666" points="2046,-239 1899,-239 1899,-220 2046,-220 2046,-239"/>
<text text-anchor="middle" x="1972.5" y="-227" font-family="Helvetica,sans-Serif" font-size="10.00">closedloopheartpulmonary.hpp</text>
</a>
</g>
</g>
<!-- Node6&#45;&gt;Node23 -->
<g id="edge42" class="edge">
<title>Node6&#45;&gt;Node23</title>
<path fill="none" stroke="#63b8ff" d="M979.85,-334.25C998.53,-332.74 1019.98,-331.14 1039.5,-330 1090.23,-327.02 1913.35,-325.15 1953.5,-294 1966.58,-283.85 1970.96,-265.06 1972.29,-250.54"/>
<polygon fill="#63b8ff" stroke="#63b8ff" points="1975.78,-250.87 1972.74,-240.72 1968.78,-250.54 1975.78,-250.87"/>
</g>
<!-- Node24 -->
<g id="node24" class="node">
<title>Node24</title>
<g id="a_node24"><a xlink:href="flowreferencebc_8hpp.html" target="_top" xlink:title="MODEL::FlowReferenceBC source file.">
<polygon fill="white" stroke="#666666" points="833.5,-294 693.5,-294 693.5,-275 833.5,-275 833.5,-294"/>
<text text-anchor="middle" x="763.5" y="-282" font-family="Helvetica,sans-Serif" font-size="10.00">../model/flowreferencebc.hpp</text>
</a>
</g>
</g>
<!-- Node6&#45;&gt;Node24 -->
<g id="edge43" class="edge">
<title>Node6&#45;&gt;Node24</title>
<path fill="none" stroke="#63b8ff" d="M902.17,-329.51C874.74,-320.8 832.92,-307.53 802.38,-297.84"/>
<polygon fill="#63b8ff" stroke="#63b8ff" points="803.72,-294.59 793.13,-294.9 801.6,-301.27 803.72,-294.59"/>
</g>
<!-- Node25 -->
<g id="node25" class="node">
<title>Node25</title>
<g id="a_node25"><a xlink:href="parameter_8hpp.html" target="_top" xlink:title="MODEL::Parameter source file.">
<polygon fill="white" stroke="#666666" points="637.5,-239 559.5,-239 559.5,-220 637.5,-220 637.5,-239"/>
<text text-anchor="middle" x="598.5" y="-227" font-family="Helvetica,sans-Serif" font-size="10.00">parameter.hpp</text>
</a>
</g>
</g>
<!-- Node6&#45;&gt;Node25 -->
<g id="edge74" class="edge">
<title>Node6&#45;&gt;Node25</title>
<path fill="none" stroke="#63b8ff" d="M881.21,-335.94C787.83,-330.58 592.61,-316.77 572.5,-294 560.84,-280.8 571.32,-261.66 582.26,-247.85"/>
<polygon fill="#63b8ff" stroke="#63b8ff" points="584.78,-250.29 588.65,-240.42 579.48,-245.72 584.78,-250.29"/>
</g>
<!-- Node27 -->
<g id="node27" class="node">
<title>Node27</title>
<g id="a_node27"><a xlink:href="junction_8hpp.html" target="_top" xlink:title="MODEL::Junction source file.">
<polygon fill="white" stroke="#666666" points="1349,-294 1244,-294 1244,-275 1349,-275 1349,-294"/>
<text text-anchor="middle" x="1296.5" y="-282" font-family="Helvetica,sans-Serif" font-size="10.00">../model/junction.hpp</text>
</a>
</g>
</g>
<!-- Node6&#45;&gt;Node27 -->
<g id="edge51" class="edge">
<title>Node6&#45;&gt;Node27</title>
<path fill="none" stroke="#63b8ff" d="M979.86,-331.35C1045.24,-321.88 1160.66,-305.17 1232.62,-294.75"/>
<polygon fill="#63b8ff" stroke="#63b8ff" points="1232.89,-298.25 1242.29,-293.35 1231.89,-291.32 1232.89,-298.25"/>
</g>
<!-- Node28 -->
<g id="node28" class="node">
<title>Node28</title>
<g id="a_node28"><a xlink:href="openloopcoronarybc_8hpp.html" target="_top" xlink:title="MODEL::OpenLoopCoronaryBC source file.">
<polygon fill="white" stroke="#666666" points="1009.5,-294 851.5,-294 851.5,-275 1009.5,-275 1009.5,-294"/>
<text text-anchor="middle" x="930.5" y="-282" font-family="Helvetica,sans-Serif" font-size="10.00">../model/openloopcoronarybc.hpp</text>
</a>
</g>
</g>
<!-- Node6&#45;&gt;Node28 -->
<g id="edge54" class="edge">
<title>Node6&#45;&gt;Node28</title>
<path fill="none" stroke="#63b8ff" d="M930.5,-329.75C930.5,-323.27 930.5,-314.16 930.5,-305.9"/>
<polygon fill="#63b8ff" stroke="#63b8ff" points="934,-305.96 930.5,-295.96 927,-305.96 934,-305.96"/>
</g>
<!-- Node29 -->
<g id="node29" class="node">
<title>Node29</title>
<g id="a_node29"><a xlink:href="pressurereferencebc_8hpp.html" target="_top" xlink:title="MODEL::PressureReferenceBC source file.">
<polygon fill="white" stroke="#666666" points="1187.5,-294 1027.5,-294 1027.5,-275 1187.5,-275 1187.5,-294"/>
<text text-anchor="middle" x="1107.5" y="-282" font-family="Helvetica,sans-Serif" font-size="10.00">../model/pressurereferencebc.hpp</text>
</a>
</g>
</g>
<!-- Node6&#45;&gt;Node29 -->
<g id="edge58" class="edge">
<title>Node6&#45;&gt;Node29</title>
<path fill="none" stroke="#63b8ff" d="M960.53,-329.51C989.73,-320.76 1034.31,-307.42 1066.71,-297.71"/>
<polygon fill="#63b8ff" stroke="#63b8ff" points="1067.6,-301.1 1076.17,-294.88 1065.59,-294.4 1067.6,-301.1"/>
</g>
<!-- Node30 -->
<g id="node30" class="node">
<title>Node30</title>
<g id="a_node30"><a xlink:href="resistancebc_8hpp.html" target="_top" xlink:title="MODEL::ResistanceBC source file.">
<polygon fill="white" stroke="#666666" points="525,-294 398,-294 398,-275 525,-275 525,-294"/>
<text text-anchor="middle" x="461.5" y="-282" font-family="Helvetica,sans-Serif" font-size="10.00">../model/resistancebc.hpp</text>
</a>
</g>
</g>
<!-- Node6&#45;&gt;Node30 -->
<g id="edge62" class="edge">
<title>Node6&#45;&gt;Node30</title>
<path fill="none" stroke="#63b8ff" d="M881.2,-332.93C798.96,-323.64 633.31,-304.92 536.53,-293.98"/>
<polygon fill="#63b8ff" stroke="#63b8ff" points="537.2,-290.53 526.87,-292.89 536.41,-297.49 537.2,-290.53"/>
</g>
<!-- Node31 -->
<g id="node31" class="node">
<title>Node31</title>
<g id="a_node31"><a xlink:href="resistivejunction_8hpp.html" target="_top" xlink:title="MODEL::ResistiveJunction source file.">
<polygon fill="white" stroke="#666666" points="1722.5,-294 1580.5,-294 1580.5,-275 1722.5,-275 1722.5,-294"/>
<text text-anchor="middle" x="1651.5" y="-282" font-family="Helvetica,sans-Serif" font-size="10.00">../model/resistivejunction.hpp</text>
</a>
</g>
</g>
<!-- Node6&#45;&gt;Node31 -->
<g id="edge66" class="edge">
<title>Node6&#45;&gt;Node31</title>
<path fill="none" stroke="#63b8ff" d="M979.87,-334.55C998.55,-333.08 1020,-331.43 1039.5,-330 1273.64,-312.87 1332.56,-313.68 1566.5,-294 1567.33,-293.93 1568.17,-293.86 1569.01,-293.79"/>
<polygon fill="#63b8ff" stroke="#63b8ff" points="1568.93,-297.31 1578.59,-292.94 1568.32,-290.33 1568.93,-297.31"/>
</g>
<!-- Node11&#45;&gt;Node2 -->
<g id="edge13" class="edge">
<title>Node11&#45;&gt;Node2</title>
<path fill="none" stroke="#63b8ff" d="M1555.18,-239.48C1622.32,-250.38 1725.85,-268.17 1731.5,-275 1736.88,-281.51 1736.58,-287.26 1731.5,-294 1683.4,-357.82 1449.97,-381.38 1324.57,-389.52"/>
<polygon fill="#63b8ff" stroke="#63b8ff" points="1324.42,-386.03 1314.66,-390.15 1324.86,-393.01 1324.42,-386.03"/>
</g>
<!-- Node12 -->
<g id="node12" class="node">
<title>Node12</title>
<g id="a_node12"><a xlink:title=" ">
<polygon fill="#e0e0e0" stroke="#999999" points="1521.5,-184 1475.5,-184 1475.5,-165 1521.5,-165 1521.5,-184"/>
<text text-anchor="middle" x="1498.5" y="-172" font-family="Helvetica,sans-Serif" font-size="10.00">math.h</text>
</a>
</g>
</g>
<!-- Node11&#45;&gt;Node12 -->
<g id="edge12" class="edge">
<title>Node11&#45;&gt;Node12</title>
<path fill="none" stroke="#63b8ff" d="M1498.5,-219.75C1498.5,-213.27 1498.5,-204.16 1498.5,-195.9"/>
<polygon fill="#63b8ff" stroke="#63b8ff" points="1502,-195.96 1498.5,-185.96 1495,-195.96 1502,-195.96"/>
</g>
<!-- Node11&#45;&gt;Node13 -->
<g id="edge14" class="edge">
<title>Node11&#45;&gt;Node13</title>
<path fill="none" stroke="#63b8ff" d="M1436.54,-220.1C1355.73,-209.15 1216.6,-190.29 1148.07,-181"/>
<polygon fill="#63b8ff" stroke="#63b8ff" points="1148.78,-177.56 1138.4,-179.69 1147.84,-184.5 1148.78,-177.56"/>
</g>
<!-- Node13&#45;&gt;Node2 -->
<g id="edge17" class="edge">
<title>Node13&#45;&gt;Node2</title>
<path fill="none" stroke="#63b8ff" d="M1136.93,-176.63C1280.17,-182.42 1899.56,-211.07 1953.5,-275 2036.34,-373.19 1527.39,-390.09 1324.92,-392.94"/>
<polygon fill="#63b8ff" stroke="#63b8ff" points="1324.95,-389.44 1314.99,-393.07 1325.04,-396.44 1324.95,-389.44"/>
</g>
<!-- Node13&#45;&gt;Node10 -->
<g id="edge16" class="edge">
<title>Node13&#45;&gt;Node10</title>
<path fill="none" stroke="#63b8ff" d="M1078.39,-173.32C963.68,-172.36 546.97,-166.32 502.5,-129 473.86,-104.97 470.43,-57.89 471.08,-30.87"/>
<polygon fill="#63b8ff" stroke="#63b8ff" points="474.57,-31.07 471.56,-20.92 467.58,-30.74 474.57,-31.07"/>
</g>
<!-- Node14 -->
<g id="node14" class="node">
<title>Node14</title>
<g id="a_node14"><a xlink:title=" ">
<polygon fill="#e0e0e0" stroke="#999999" points="796,-19 761,-19 761,0 796,0 796,-19"/>
<text text-anchor="middle" x="778.5" y="-7" font-family="Helvetica,sans-Serif" font-size="10.00">map</text>
</a>
</g>
</g>
<!-- Node13&#45;&gt;Node14 -->
<g id="edge15" class="edge">
<title>Node13&#45;&gt;Node14</title>
<path fill="none" stroke="#63b8ff" d="M1089.34,-164.5C1034.73,-137.45 871.7,-56.67 806.2,-24.22"/>
<polygon fill="#63b8ff" stroke="#63b8ff" points="808.07,-21.24 797.56,-19.94 804.96,-27.52 808.07,-21.24"/>
</g>
<!-- Node15 -->
<g id="node15" class="node">
<title>Node15</title>
<g id="a_node15"><a xlink:href="state_8hpp.html" target="_top" xlink:title="ALGEBRA::State source file.">
<polygon fill="white" stroke="#666666" points="1496.5,-129 1398.5,-129 1398.5,-110 1496.5,-110 1496.5,-129"/>
<text text-anchor="middle" x="1447.5" y="-117" font-family="Helvetica,sans-Serif" font-size="10.00">../algebra/state.hpp</text>
</a>
</g>
</g>
<!-- Node13&#45;&gt;Node15 -->
<g id="edge18" class="edge">
<title>Node13&#45;&gt;Node15</title>
<path fill="none" stroke="#63b8ff" d="M1136.78,-168.94C1192.25,-160.29 1313.64,-141.37 1387.2,-129.9"/>
<polygon fill="#63b8ff" stroke="#63b8ff" points="1387.3,-133.43 1396.64,-128.43 1386.22,-126.51 1387.3,-133.43"/>
</g>
<!-- Node13&#45;&gt;Node16 -->
<g id="edge19" class="edge">
<title>Node13&#45;&gt;Node16</title>
<path fill="none" stroke="#63b8ff" d="M1078.09,-167.15C995.87,-149.39 762.85,-99.06 658.79,-76.58"/>
<polygon fill="#63b8ff" stroke="#63b8ff" points="659.64,-73.18 649.13,-74.49 658.16,-80.02 659.64,-73.18"/>
</g>
<!-- Node13&#45;&gt;Node18 -->
<g id="edge23" class="edge">
<title>Node13&#45;&gt;Node18</title>
<path fill="none" stroke="#63b8ff" d="M1078.16,-170.76C983.68,-161.95 687.25,-134.29 579.31,-124.22"/>
<polygon fill="#63b8ff" stroke="#63b8ff" points="579.78,-120.74 569.5,-123.3 579.13,-127.71 579.78,-120.74"/>
</g>
<!-- Node16&#45;&gt;Node10 -->
<g id="edge22" class="edge">
<title>Node16&#45;&gt;Node10</title>
<path fill="none" stroke="#63b8ff" d="M584.6,-54.51C562.81,-45.96 529.8,-33 505.24,-23.35"/>
<polygon fill="#63b8ff" stroke="#63b8ff" points="506.61,-20.13 496.02,-19.74 504.05,-26.65 506.61,-20.13"/>
</g>
<!-- Node16&#45;&gt;Node14 -->
<g id="edge20" class="edge">
<title>Node16&#45;&gt;Node14</title>
<path fill="none" stroke="#63b8ff" d="M636.51,-54.51C668.25,-44.67 718.79,-29.01 750.23,-19.26"/>
<polygon fill="#63b8ff" stroke="#63b8ff" points="750.92,-22.71 759.44,-16.41 748.85,-16.03 750.92,-22.71"/>
</g>
<!-- Node17 -->
<g id="node17" class="node">
<title>Node17</title>
<g id="a_node17"><a xlink:title=" ">
<polygon fill="#e0e0e0" stroke="#999999" points="570,-19 529,-19 529,0 570,0 570,-19"/>
<text text-anchor="middle" x="549.5" y="-7" font-family="Helvetica,sans-Serif" font-size="10.00">string</text>
</a>
</g>
</g>
<!-- Node16&#45;&gt;Node17 -->
<g id="edge21" class="edge">
<title>Node16&#45;&gt;Node17</title>
<path fill="none" stroke="#63b8ff" d="M597.66,-54.51C589.45,-47 577.52,-36.1 567.59,-27.03"/>
<polygon fill="#63b8ff" stroke="#63b8ff" points="570.05,-24.54 560.31,-20.38 565.33,-29.71 570.05,-24.54"/>
</g>
<!-- Node18&#45;&gt;Node16 -->
<g id="edge25" class="edge">
<title>Node18&#45;&gt;Node16</title>
<path fill="none" stroke="#63b8ff" d="M551.04,-109.51C560.96,-101.77 575.51,-90.43 587.36,-81.2"/>
<polygon fill="#63b8ff" stroke="#63b8ff" points="589.21,-84.2 594.94,-75.29 584.9,-78.68 589.21,-84.2"/>
</g>
<!-- Node18&#45;&gt;Node17 -->
<g id="edge24" class="edge">
<title>Node18&#45;&gt;Node17</title>
<path fill="none" stroke="#63b8ff" d="M540.32,-109.66C541.9,-92.57 545.42,-54.61 547.61,-30.92"/>
<polygon fill="#63b8ff" stroke="#63b8ff" points="551.09,-31.25 548.53,-20.97 544.12,-30.6 551.09,-31.25"/>
</g>
<!-- Node19&#45;&gt;Node2 -->
<g id="edge27" class="edge">
<title>Node19&#45;&gt;Node2</title>
<path fill="none" stroke="#63b8ff" d="M1393.63,-294.44C1364.86,-301.08 1329.38,-312.15 1301.5,-330 1283.03,-341.83 1266.86,-361.21 1256.5,-375.46"/>
<polygon fill="#63b8ff" stroke="#63b8ff" points="1253.75,-373.29 1250.91,-383.5 1259.49,-377.29 1253.75,-373.29"/>
</g>
<!-- Node19&#45;&gt;Node11 -->
<g id="edge30" class="edge">
<title>Node19&#45;&gt;Node11</title>
<path fill="none" stroke="#63b8ff" d="M1454.25,-274.75C1461.65,-267.35 1472.46,-256.54 1481.55,-247.45"/>
<polygon fill="#63b8ff" stroke="#63b8ff" points="1483.89,-250.06 1488.49,-240.51 1478.94,-245.11 1483.89,-250.06"/>
</g>
<!-- Node19&#45;&gt;Node13 -->
<g id="edge28" class="edge">
<title>Node19&#45;&gt;Node13</title>
<path fill="none" stroke="#63b8ff" d="M1427.14,-274.7C1398.93,-261.43 1342.98,-236.14 1293.5,-220 1244.3,-203.95 1186.05,-190.95 1148.02,-183.23"/>
<polygon fill="#63b8ff" stroke="#63b8ff" points="1148.87,-179.83 1138.38,-181.31 1147.5,-186.7 1148.87,-179.83"/>
</g>
<!-- Node19&#45;&gt;Node20 -->
<g id="edge29" class="edge">
<title>Node19&#45;&gt;Node20</title>
<path fill="none" stroke="#63b8ff" d="M1411.74,-274.51C1378.48,-265.65 1327.47,-252.07 1290.93,-242.33"/>
<polygon fill="#63b8ff" stroke="#63b8ff" points="1292.12,-239.03 1281.55,-239.84 1290.32,-245.79 1292.12,-239.03"/>
</g>
<!-- Node21&#45;&gt;Node2 -->
<g id="edge32" class="edge">
<title>Node21&#45;&gt;Node2</title>
<path fill="none" stroke="#63b8ff" d="M149.15,-293.18C151.97,-293.46 154.76,-293.73 157.5,-294 533.98,-330.91 984.25,-370.76 1164.33,-386.52"/>
<polygon fill="#63b8ff" stroke="#63b8ff" points="1164.02,-390 1174.29,-387.39 1164.63,-383.03 1164.02,-390"/>
</g>
<!-- Node21&#45;&gt;Node13 -->
<g id="edge33" class="edge">
<title>Node21&#45;&gt;Node13</title>
<path fill="none" stroke="#63b8ff" d="M127.95,-274.53C210.31,-260.99 373.3,-235.28 512.5,-220 720.32,-197.19 970.29,-182.69 1066.77,-177.57"/>
<polygon fill="#63b8ff" stroke="#63b8ff" points="1066.71,-181.08 1076.51,-177.06 1066.34,-174.09 1066.71,-181.08"/>
</g>
<!-- Node22&#45;&gt;Node2 -->
<g id="edge35" class="edge">
<title>Node22&#45;&gt;Node2</title>
<path fill="none" stroke="#63b8ff" d="M1851.65,-294.41C1835.06,-308.8 1799.89,-336.78 1764.5,-349 1685.39,-376.32 1449.68,-387.38 1324.57,-391.43"/>
<polygon fill="#63b8ff" stroke="#63b8ff" points="1324.58,-387.92 1314.7,-391.74 1324.8,-394.92 1324.58,-387.92"/>
</g>
<!-- Node22&#45;&gt;Node13 -->
<g id="edge36" class="edge">
<title>Node22&#45;&gt;Node13</title>
<path fill="none" stroke="#63b8ff" d="M1826.57,-274.54C1771.9,-260.83 1662.61,-234.69 1568.5,-220 1414.03,-195.89 1228.27,-182.73 1147.86,-177.8"/>
<polygon fill="#63b8ff" stroke="#63b8ff" points="1148.48,-174.33 1138.29,-177.22 1148.06,-181.32 1148.48,-174.33"/>
</g>
<!-- Node22&#45;&gt;Node23 -->
<g id="edge37" class="edge">
<title>Node22&#45;&gt;Node23</title>
<path fill="none" stroke="#63b8ff" d="M1880.33,-274.51C1897.66,-266.24 1923.61,-253.84 1943.57,-244.31"/>
<polygon fill="#63b8ff" stroke="#63b8ff" points="1945.07,-247.48 1952.58,-240.01 1942.05,-241.16 1945.07,-247.48"/>
</g>
<!-- Node23&#45;&gt;Node2 -->
<g id="edge39" class="edge">
<title>Node23&#45;&gt;Node2</title>
<path fill="none" stroke="#63b8ff" d="M1989.03,-239.36C2001.35,-246.98 2017.24,-259.24 2024.5,-275 2038.25,-304.87 2047.08,-325.09 2024.5,-349 2000.73,-374.17 1518.68,-387.5 1324.51,-391.86"/>
<polygon fill="#63b8ff" stroke="#63b8ff" points="1324.69,-388.36 1314.77,-392.08 1324.85,-395.36 1324.69,-388.36"/>
</g>
<!-- Node23&#45;&gt;Node12 -->
<g id="edge38" class="edge">
<title>Node23&#45;&gt;Node12</title>
<path fill="none" stroke="#63b8ff" d="M1898.7,-220.25C1794.71,-208.62 1609.25,-187.88 1532.85,-179.34"/>
<polygon fill="#63b8ff" stroke="#63b8ff" points="1533.38,-175.88 1523.05,-178.25 1532.6,-182.84 1533.38,-175.88"/>
</g>
<!-- Node23&#45;&gt;Node13 -->
<g id="edge41" class="edge">
<title>Node23&#45;&gt;Node13</title>
<path fill="none" stroke="#63b8ff" d="M1898.58,-221.15C1893.81,-220.74 1889.09,-220.35 1884.5,-220 1603.13,-198.36 1263.69,-182.41 1148.22,-177.27"/>
<polygon fill="#63b8ff" stroke="#63b8ff" points="1148.47,-173.78 1138.32,-176.83 1148.16,-180.77 1148.47,-173.78"/>
</g>
<!-- Node23&#45;&gt;Node15 -->
<g id="edge40" class="edge">
<title>Node23&#45;&gt;Node15</title>
<path fill="none" stroke="#63b8ff" d="M1929.09,-219.57C1833.9,-199.99 1606.97,-153.3 1502.21,-131.76"/>
<polygon fill="#63b8ff" stroke="#63b8ff" points="1502.94,-128.33 1492.44,-129.75 1501.53,-135.19 1502.94,-128.33"/>
</g>
<!-- Node24&#45;&gt;Node2 -->
<g id="edge44" class="edge">
<title>Node24&#45;&gt;Node2</title>
<path fill="none" stroke="#63b8ff" d="M833.87,-293.78C931.74,-305.4 1098.51,-325.63 1111.5,-330 1127.54,-335.4 1129.42,-341.33 1144.5,-349 1166.69,-360.29 1192.36,-371.68 1212.13,-380.11"/>
<polygon fill="#63b8ff" stroke="#63b8ff" points="1210.77,-383.33 1221.35,-384 1213.5,-376.88 1210.77,-383.33"/>
</g>
<!-- Node24&#45;&gt;Node13 -->
<g id="edge45" class="edge">
<title>Node24&#45;&gt;Node13</title>
<path fill="none" stroke="#63b8ff" d="M791.94,-274.57C853.37,-255.29 998.51,-209.72 1068.47,-187.75"/>
<polygon fill="#63b8ff" stroke="#63b8ff" points="1069.09,-191.23 1077.58,-184.89 1066.99,-184.55 1069.09,-191.23"/>
</g>
<!-- Node24&#45;&gt;Node25 -->
<g id="edge46" class="edge">
<title>Node24&#45;&gt;Node25</title>
<path fill="none" stroke="#63b8ff" d="M735.51,-274.51C708.41,-265.8 667.09,-252.53 636.92,-242.84"/>
<polygon fill="#63b8ff" stroke="#63b8ff" points="638.38,-239.64 627.79,-239.91 636.24,-246.3 638.38,-239.64"/>
</g>
<!-- Node25&#45;&gt;Node10 -->
<g id="edge49" class="edge">
<title>Node25&#45;&gt;Node10</title>
<path fill="none" stroke="#63b8ff" d="M583.37,-219.56C558.78,-204.22 510.29,-170.5 484.5,-129 466.74,-100.42 466.99,-88.62 468.5,-55 468.86,-47.06 469.57,-38.34 470.29,-30.74"/>
<polygon fill="#63b8ff" stroke="#63b8ff" points="473.77,-31.16 471.31,-20.86 466.81,-30.44 473.77,-31.16"/>
</g>
<!-- Node25&#45;&gt;Node12 -->
<g id="edge47" class="edge">
<title>Node25&#45;&gt;Node12</title>
<path fill="none" stroke="#63b8ff" d="M637.75,-226.19C787.66,-217.36 1322.74,-185.85 1464.06,-177.53"/>
<polygon fill="#63b8ff" stroke="#63b8ff" points="1464.11,-181.03 1473.89,-176.95 1463.7,-174.04 1464.11,-181.03"/>
</g>
<!-- Node25&#45;&gt;Node16 -->
<g id="edge50" class="edge">
<title>Node25&#45;&gt;Node16</title>
<path fill="none" stroke="#63b8ff" d="M602.5,-219.52C606.19,-210.68 611.42,-196.71 613.5,-184 619.1,-149.87 614.77,-109.53 611.13,-85.81"/>
<polygon fill="#63b8ff" stroke="#63b8ff" points="614.59,-85.27 609.5,-75.98 607.68,-86.42 614.59,-85.27"/>
</g>
<!-- Node26 -->
<g id="node26" class="node">
<title>Node26</title>
<g id="a_node26"><a xlink:title=" ">
<polygon fill="#e0e0e0" stroke="#999999" points="605,-184 554,-184 554,-165 605,-165 605,-184"/>
<text text-anchor="middle" x="579.5" y="-172" font-family="Helvetica,sans-Serif" font-size="10.00">numeric</text>
</a>
</g>
</g>
<!-- Node25&#45;&gt;Node26 -->
<g id="edge48" class="edge">
<title>Node25&#45;&gt;Node26</title>
<path fill="none" stroke="#63b8ff" d="M595.36,-219.75C592.96,-213.04 589.54,-203.52 586.5,-195.02"/>
<polygon fill="#63b8ff" stroke="#63b8ff" points="589.89,-194.1 583.22,-185.87 583.3,-196.46 589.89,-194.1"/>
</g>
<!-- Node27&#45;&gt;Node2 -->
<g id="edge52" class="edge">
<title>Node27&#45;&gt;Node2</title>
<path fill="none" stroke="#63b8ff" d="M1290.16,-294.39C1284.08,-303.16 1274.92,-317.09 1268.5,-330 1261.42,-344.23 1255.14,-361.1 1250.78,-373.87"/>
<polygon fill="#63b8ff" stroke="#63b8ff" points="1247.51,-372.61 1247.7,-383.2 1254.16,-374.8 1247.51,-372.61"/>
</g>
<!-- Node27&#45;&gt;Node13 -->
<g id="edge53" class="edge">
<title>Node27&#45;&gt;Node13</title>
<path fill="none" stroke="#63b8ff" d="M1274.39,-274.65C1254.37,-266.34 1224.3,-253.11 1199.5,-239 1173.88,-224.43 1146.28,-204.8 1128.06,-191.24"/>
<polygon fill="#63b8ff" stroke="#63b8ff" points="1130.29,-188.53 1120.19,-185.31 1126.07,-194.12 1130.29,-188.53"/>
</g>
<!-- Node28&#45;&gt;Node2 -->
<g id="edge55" class="edge">
<title>Node28&#45;&gt;Node2</title>
<path fill="none" stroke="#63b8ff" d="M1006.48,-294.48C1048.28,-301.1 1100.46,-312.13 1144.5,-330 1174.36,-342.11 1205.13,-363.19 1224.51,-377.71"/>
<polygon fill="#63b8ff" stroke="#63b8ff" points="1222.27,-380.41 1232.34,-383.71 1226.53,-374.85 1222.27,-380.41"/>
</g>
<!-- Node28&#45;&gt;Node13 -->
<g id="edge56" class="edge">
<title>Node28&#45;&gt;Node13</title>
<path fill="none" stroke="#63b8ff" d="M944.98,-274.66C975.32,-256.15 1045.82,-213.13 1083.21,-190.32"/>
<polygon fill="#63b8ff" stroke="#63b8ff" points="1084.81,-193.44 1091.52,-185.25 1081.16,-187.47 1084.81,-193.44"/>
</g>
<!-- Node28&#45;&gt;Node25 -->
<g id="edge57" class="edge">
<title>Node28&#45;&gt;Node25</title>
<path fill="none" stroke="#63b8ff" d="M874.18,-274.51C811.09,-264.44 709.74,-248.26 649.09,-238.58"/>
<polygon fill="#63b8ff" stroke="#63b8ff" points="649.81,-235.15 639.39,-237.03 648.71,-242.06 649.81,-235.15"/>
</g>
<!-- Node29&#45;&gt;Node2 -->
<g id="edge59" class="edge">
<title>Node29&#45;&gt;Node2</title>
<path fill="none" stroke="#63b8ff" d="M1125.31,-294.36C1141.06,-302.58 1164.29,-315.68 1182.5,-330 1200.21,-343.93 1217.92,-362.67 1229.85,-376.17"/>
<polygon fill="#63b8ff" stroke="#63b8ff" points="1226.93,-378.15 1236.12,-383.42 1232.23,-373.57 1226.93,-378.15"/>
</g>
<!-- Node29&#45;&gt;Node13 -->
<g id="edge60" class="edge">
<title>Node29&#45;&gt;Node13</title>
<path fill="none" stroke="#63b8ff" d="M1107.5,-274.66C1107.5,-257.57 1107.5,-219.61 1107.5,-195.92"/>
<polygon fill="#63b8ff" stroke="#63b8ff" points="1111,-195.97 1107.5,-185.97 1104,-195.97 1111,-195.97"/>
</g>
<!-- Node29&#45;&gt;Node25 -->
<g id="edge61" class="edge">
<title>Node29&#45;&gt;Node25</title>
<path fill="none" stroke="#63b8ff" d="M1027.13,-275.13C921.09,-264.09 737.58,-244.98 649.1,-235.77"/>
<polygon fill="#63b8ff" stroke="#63b8ff" points="649.58,-232.3 639.27,-234.75 648.86,-239.26 649.58,-232.3"/>
</g>
<!-- Node30&#45;&gt;Node2 -->
<g id="edge63" class="edge">
<title>Node30&#45;&gt;Node2</title>
<path fill="none" stroke="#63b8ff" d="M515.6,-294.46C594.11,-307.33 744.28,-331.43 872.5,-349 972.87,-362.75 1088.81,-376.24 1164.22,-384.7"/>
<polygon fill="#63b8ff" stroke="#63b8ff" points="1163.67,-388.16 1174,-385.79 1164.45,-381.2 1163.67,-388.16"/>
</g>
<!-- Node30&#45;&gt;Node13 -->
<g id="edge64" class="edge">
<title>Node30&#45;&gt;Node13</title>
<path fill="none" stroke="#63b8ff" d="M470.38,-274.57C485.38,-260.14 517.33,-232.1 550.5,-220 645.47,-185.36 954.96,-177.63 1066.75,-175.95"/>
<polygon fill="#63b8ff" stroke="#63b8ff" points="1066.7,-179.45 1076.65,-175.81 1066.6,-172.45 1066.7,-179.45"/>
</g>
<!-- Node30&#45;&gt;Node25 -->
<g id="edge65" class="edge">
<title>Node30&#45;&gt;Node25</title>
<path fill="none" stroke="#63b8ff" d="M484.74,-274.51C506.82,-265.97 540.25,-253.03 565.17,-243.4"/>
<polygon fill="#63b8ff" stroke="#63b8ff" points="566.13,-246.78 574.19,-239.9 563.6,-240.25 566.13,-246.78"/>
</g>
<!-- Node31&#45;&gt;Node2 -->
<g id="edge67" class="edge">
<title>Node31&#45;&gt;Node2</title>
<path fill="none" stroke="#63b8ff" d="M1633.72,-294.47C1605.82,-308.18 1549.74,-334.32 1499.5,-349 1442.05,-365.78 1375.36,-377.15 1324.6,-384.19"/>
<polygon fill="#63b8ff" stroke="#63b8ff" points="1324.3,-380.7 1314.86,-385.51 1325.24,-387.63 1324.3,-380.7"/>
</g>
<!-- Node31&#45;&gt;Node13 -->
<g id="edge68" class="edge">
<title>Node31&#45;&gt;Node13</title>
<path fill="none" stroke="#63b8ff" d="M1606.02,-274.51C1560.75,-265.55 1489.31,-251.39 1427.5,-239 1385.71,-230.63 1375.3,-228.34 1333.5,-220 1268.56,-207.04 1193.08,-192.23 1147.86,-183.38"/>
<polygon fill="#63b8ff" stroke="#63b8ff" points="1148.74,-179.99 1138.25,-181.5 1147.39,-186.86 1148.74,-179.99"/>
</g>
</g>
</svg>
