<?xml version="1.0" encoding="UTF-8" standalone="no"?>
<!DOCTYPE svg PUBLIC "-//W3C//DTD SVG 1.1//EN"
 "http://www.w3.org/Graphics/SVG/1.1/DTD/svg11.dtd">
<!-- Generated by graphviz version 3.0.0 (20220413.0242)
 -->
<!-- Title: model/windkesselbc.hpp Pages: 1 -->
<svg width="1194pt" height="252pt"
 viewBox="0.00 0.00 1193.69 252.00" xmlns="http://www.w3.org/2000/svg" xmlns:xlink="http://www.w3.org/1999/xlink">
<g id="graph0" class="graph" transform="scale(1 1) rotate(0) translate(4 248)">
<title>model/windkesselbc.hpp</title>
<!-- Node1 -->
<g id="node1" class="node">
<title>Node1</title>
<g id="a_node1"><a xlink:title="MODEL::WindkesselBC source file.">
<polygon fill="#bfbfbf" stroke="black" points="680.69,-224.5 680.69,-243.5 803.69,-243.5 803.69,-224.5 680.69,-224.5"/>
<text text-anchor="middle" x="742.19" y="-231.5" font-family="Helvetica,sans-Serif" font-size="10.00">model/windkesselbc.hpp</text>
</a>
</g>
</g>
<!-- Node2 -->
<g id="node2" class="node">
<title>Node2</title>
<g id="a_node2"><a xlink:href="model_8hpp.html" target="_top" xlink:title="MODEL::Model source file.">
<polygon fill="none" stroke="black" points="569.19,-168.5 569.19,-187.5 659.19,-187.5 659.19,-168.5 569.19,-168.5"/>
<text text-anchor="middle" x="614.19" y="-175.5" font-family="Helvetica,sans-Serif" font-size="10.00">model/model.hpp</text>
</a>
</g>
</g>
<!-- Node1&#45;&gt;Node2 -->
<g id="edge1" class="edge">
<title>Node1&#45;&gt;Node2</title>
<path fill="none" stroke="midnightblue" d="M712.57,-220.5C688.57,-210.38 655.41,-196.39 634.38,-187.52"/>
<polygon fill="midnightblue" stroke="midnightblue" points="711.34,-223.78 721.91,-224.44 714.06,-217.33 711.34,-223.78"/>
</g>
<!-- Node3 -->
<g id="node3" class="node">
<title>Node3</title>
<g id="a_node3"><a xlink:href="densesystem_8hpp.html" target="_top" xlink:title="ALGEBRA::DenseSystem source file.">
<polygon fill="none" stroke="black" points="742.69,-112.5 742.69,-131.5 869.69,-131.5 869.69,-112.5 742.69,-112.5"/>
<text text-anchor="middle" x="806.19" y="-119.5" font-family="Helvetica,sans-Serif" font-size="10.00">algebra/densesystem.hpp</text>
</a>
</g>
</g>
<!-- Node2&#45;&gt;Node3 -->
<g id="edge2" class="edge">
<title>Node2&#45;&gt;Node3</title>
<path fill="none" stroke="midnightblue" d="M649.21,-165.57C683.77,-155.38 736.14,-140.7 770.83,-131.52"/>
<polygon fill="midnightblue" stroke="midnightblue" points="648.12,-162.24 639.53,-168.44 650.11,-168.95 648.12,-162.24"/>
</g>
<!-- Node4 -->
<g id="node4" class="node">
<title>Node4</title>
<g id="a_node4"><a xlink:href="main_8cpp.html" target="_top" xlink:title="Main routine of svZeroDSolver.">
<polygon fill="none" stroke="black" points="328.19,-56.5 328.19,-75.5 384.19,-75.5 384.19,-56.5 328.19,-56.5"/>
<text text-anchor="middle" x="356.19" y="-63.5" font-family="Helvetica,sans-Serif" font-size="10.00">main.cpp</text>
</a>
</g>
</g>
<!-- Node2&#45;&gt;Node4 -->
<g id="edge45" class="edge">
<title>Node2&#45;&gt;Node4</title>
<path fill="none" stroke="midnightblue" d="M585.83,-164.27C565.8,-155.27 538.34,-142.92 514.19,-132 494.62,-123.15 489.97,-120.39 470.19,-112 438.85,-98.7 402.16,-84.45 379.04,-75.63"/>
<polygon fill="midnightblue" stroke="midnightblue" points="584.46,-167.49 595.01,-168.39 587.32,-161.11 584.46,-167.49"/>
</g>
<!-- Node12 -->
<g id="node12" class="node">
<title>Node12</title>
<g id="a_node12"><a xlink:href="integrator_8hpp.html" target="_top" xlink:title="ALGEBRA::Integrator source file.">
<polygon fill="none" stroke="black" points="27.19,-112.5 27.19,-131.5 137.19,-131.5 137.19,-112.5 27.19,-112.5"/>
<text text-anchor="middle" x="82.19" y="-119.5" font-family="Helvetica,sans-Serif" font-size="10.00">algebra/integrator.hpp</text>
</a>
</g>
</g>
<!-- Node2&#45;&gt;Node12 -->
<g id="edge26" class="edge">
<title>Node2&#45;&gt;Node12</title>
<path fill="none" stroke="midnightblue" d="M558.96,-172.48C471.33,-165.13 295.12,-149.62 146.19,-132 143.3,-131.66 140.33,-131.29 137.33,-130.91"/>
<polygon fill="midnightblue" stroke="midnightblue" points="558.69,-175.97 568.94,-173.31 559.27,-168.99 558.69,-175.97"/>
</g>
<!-- Node13 -->
<g id="node13" class="node">
<title>Node13</title>
<g id="a_node13"><a xlink:href="sparsesystem_8hpp.html" target="_top" xlink:title="ALGEBRA::SparseSystem source file.">
<polygon fill="none" stroke="black" points="594.19,-112.5 594.19,-131.5 724.19,-131.5 724.19,-112.5 594.19,-112.5"/>
<text text-anchor="middle" x="659.19" y="-119.5" font-family="Helvetica,sans-Serif" font-size="10.00">algebra/sparsesystem.hpp</text>
</a>
</g>
</g>
<!-- Node2&#45;&gt;Node13 -->
<g id="edge28" class="edge">
<title>Node2&#45;&gt;Node13</title>
<path fill="none" stroke="midnightblue" d="M622.15,-159.86C629.11,-150.5 638.83,-139.33 646.77,-131.75"/>
<polygon fill="midnightblue" stroke="midnightblue" points="619.27,-157.87 616.46,-168.08 625.02,-161.85 619.27,-157.87"/>
</g>
<!-- Node14 -->
<g id="node14" class="node">
<title>Node14</title>
<g id="a_node14"><a xlink:href="configreader_8hpp.html" target="_top" xlink:title="IO::ConfigReader source file.">
<polygon fill="none" stroke="black" points="155.19,-112.5 155.19,-131.5 253.19,-131.5 253.19,-112.5 155.19,-112.5"/>
<text text-anchor="middle" x="204.19" y="-119.5" font-family="Helvetica,sans-Serif" font-size="10.00">io/configreader.hpp</text>
</a>
</g>
</g>
<!-- Node2&#45;&gt;Node14 -->
<g id="edge39" class="edge">
<title>Node2&#45;&gt;Node14</title>
<path fill="none" stroke="midnightblue" d="M558.88,-170.39C489.5,-162 366.92,-146.82 262.19,-132 259.27,-131.59 256.26,-131.15 253.23,-130.7"/>
<polygon fill="midnightblue" stroke="midnightblue" points="558.79,-173.91 569.13,-171.63 559.62,-166.96 558.79,-173.91"/>
</g>
<!-- Node15 -->
<g id="node15" class="node">
<title>Node15</title>
<g id="a_node15"><a xlink:href="csvwriter_8hpp.html" target="_top" xlink:title="IO::write_csv source file.">
<polygon fill="none" stroke="black" points="271.69,-112.5 271.69,-131.5 356.69,-131.5 356.69,-112.5 271.69,-112.5"/>
<text text-anchor="middle" x="314.19" y="-119.5" font-family="Helvetica,sans-Serif" font-size="10.00">io/csvwriter.hpp</text>
</a>
</g>
</g>
<!-- Node2&#45;&gt;Node15 -->
<g id="edge41" class="edge">
<title>Node2&#45;&gt;Node15</title>
<path fill="none" stroke="midnightblue" d="M558.81,-167.03C500.49,-156.53 409.91,-140.23 356.88,-130.68"/>
<polygon fill="midnightblue" stroke="midnightblue" points="558.49,-170.53 568.96,-168.86 559.73,-163.64 558.49,-170.53"/>
</g>
<!-- Node16 -->
<g id="node16" class="node">
<title>Node16</title>
<g id="a_node16"><a xlink:href="jsonwriter_8hpp.html" target="_top" xlink:title="IO::write_json source file.">
<polygon fill="none" stroke="black" points="374.69,-112.5 374.69,-131.5 461.69,-131.5 461.69,-112.5 374.69,-112.5"/>
<text text-anchor="middle" x="418.19" y="-119.5" font-family="Helvetica,sans-Serif" font-size="10.00">io/jsonwriter.hpp</text>
</a>
</g>
</g>
<!-- Node2&#45;&gt;Node16 -->
<g id="edge43" class="edge">
<title>Node2&#45;&gt;Node16</title>
<path fill="none" stroke="midnightblue" d="M573.17,-165.7C536.18,-155.51 482.59,-140.74 449.1,-131.52"/>
<polygon fill="midnightblue" stroke="midnightblue" points="572.57,-169.16 583.14,-168.44 574.43,-162.41 572.57,-169.16"/>
</g>
<!-- Node3&#45;&gt;Node1 -->
<g id="edge25" class="edge">
<title>Node3&#45;&gt;Node1</title>
<path fill="none" stroke="midnightblue" d="M796.12,-140.31C782.24,-164.18 757.73,-206.3 747.22,-224.37"/>
<polygon fill="midnightblue" stroke="midnightblue" points="799.19,-142 801.19,-131.59 793.14,-138.47 799.19,-142"/>
</g>
<!-- Node3&#45;&gt;Node2 -->
<g id="edge21" class="edge">
<title>Node3&#45;&gt;Node2</title>
<path fill="none" stroke="midnightblue" d="M771.33,-134.39C736.82,-144.56 684.44,-159.24 649.7,-168.44"/>
<polygon fill="midnightblue" stroke="midnightblue" points="772.4,-137.72 780.99,-131.52 770.41,-131.01 772.4,-137.72"/>
</g>
<!-- Node3&#45;&gt;Node4 -->
<g id="edge3" class="edge">
<title>Node3&#45;&gt;Node4</title>
<path fill="none" stroke="midnightblue" d="M732.25,-111.89C595.43,-95.31 445.86,-77.59 384.57,-70.35"/>
<polygon fill="midnightblue" stroke="midnightblue" points="732.14,-115.4 742.49,-113.13 732.99,-108.45 732.14,-115.4"/>
</g>
<!-- Node5 -->
<g id="node5" class="node">
<title>Node5</title>
<g id="a_node5"><a xlink:href="block_8hpp.html" target="_top" xlink:title="MODEL::Block source file.">
<polygon fill="none" stroke="black" points="744.69,-56.5 744.69,-75.5 831.69,-75.5 831.69,-56.5 744.69,-56.5"/>
<text text-anchor="middle" x="788.19" y="-63.5" font-family="Helvetica,sans-Serif" font-size="10.00">model/block.hpp</text>
</a>
</g>
</g>
<!-- Node3&#45;&gt;Node5 -->
<g id="edge4" class="edge">
<title>Node3&#45;&gt;Node5</title>
<path fill="none" stroke="midnightblue" d="M799.99,-102.4C796.98,-93.36 793.51,-82.94 791.11,-75.75"/>
<polygon fill="midnightblue" stroke="midnightblue" points="796.74,-103.7 803.22,-112.08 803.38,-101.49 796.74,-103.7"/>
</g>
<!-- Node6 -->
<g id="node6" class="node">
<title>Node6</title>
<g id="a_node6"><a xlink:href="bloodvessel_8hpp.html" target="_top" xlink:title="MODEL::BloodVessel source file.">
<polygon fill="none" stroke="black" points="444.19,-0.5 444.19,-19.5 560.19,-19.5 560.19,-0.5 444.19,-0.5"/>
<text text-anchor="middle" x="502.19" y="-7.5" font-family="Helvetica,sans-Serif" font-size="10.00">model/bloodvessel.hpp</text>
</a>
</g>
</g>
<!-- Node3&#45;&gt;Node6 -->
<g id="edge18" class="edge">
<title>Node3&#45;&gt;Node6</title>
<path fill="none" stroke="midnightblue" d="M772.94,-108.97C711.1,-86.59 579.83,-39.09 525.99,-19.61"/>
<polygon fill="midnightblue" stroke="midnightblue" points="772,-112.35 782.59,-112.46 774.38,-105.77 772,-112.35"/>
</g>
<!-- Node7 -->
<g id="node7" class="node">
<title>Node7</title>
<g id="a_node7"><a xlink:href="flowreferencebc_8hpp.html" target="_top" xlink:title="MODEL::FlowReferenceBC source file.">
<polygon fill="none" stroke="black" points="578.19,-0.5 578.19,-19.5 710.19,-19.5 710.19,-0.5 578.19,-0.5"/>
<text text-anchor="middle" x="644.19" y="-7.5" font-family="Helvetica,sans-Serif" font-size="10.00">model/flowreferencebc.hpp</text>
</a>
</g>
</g>
<!-- Node3&#45;&gt;Node7 -->
<g id="edge19" class="edge">
<title>Node3&#45;&gt;Node7</title>
<path fill="none" stroke="midnightblue" d="M783.63,-107.14C769.57,-98.4 751.18,-86.76 735.19,-76 706.2,-56.48 672.99,-32.28 655.83,-19.62"/>
<polygon fill="midnightblue" stroke="midnightblue" points="781.82,-110.14 792.17,-112.43 785.51,-104.19 781.82,-110.14"/>
</g>
<!-- Node8 -->
<g id="node8" class="node">
<title>Node8</title>
<g id="a_node8"><a xlink:href="junction_8hpp.html" target="_top" xlink:title="MODEL::Junction source file.">
<polygon fill="none" stroke="black" points="328.19,-0.5 328.19,-19.5 426.19,-19.5 426.19,-0.5 328.19,-0.5"/>
<text text-anchor="middle" x="377.19" y="-7.5" font-family="Helvetica,sans-Serif" font-size="10.00">model/junction.hpp</text>
</a>
</g>
</g>
<!-- Node3&#45;&gt;Node8 -->
<g id="edge20" class="edge">
<title>Node3&#45;&gt;Node8</title>
<path fill="none" stroke="midnightblue" d="M760.73,-110.05C723.67,-101.07 669.99,-87.94 623.19,-76 546.15,-56.35 455.83,-32.2 408.99,-19.59"/>
<polygon fill="midnightblue" stroke="midnightblue" points="760.18,-113.52 770.72,-112.47 761.83,-106.72 760.18,-113.52"/>
</g>
<!-- Node9 -->
<g id="node9" class="node">
<title>Node9</title>
<g id="a_node9"><a xlink:href="openloopcoronarybc_8hpp.html" target="_top" xlink:title="MODEL::OpenLoopCoronaryBC source file.">
<polygon fill="none" stroke="black" points="898.19,-0.5 898.19,-19.5 1048.19,-19.5 1048.19,-0.5 898.19,-0.5"/>
<text text-anchor="middle" x="973.19" y="-7.5" font-family="Helvetica,sans-Serif" font-size="10.00">model/openloopcoronarybc.hpp</text>
</a>
</g>
</g>
<!-- Node3&#45;&gt;Node9 -->
<g id="edge22" class="edge">
<title>Node3&#45;&gt;Node9</title>
<path fill="none" stroke="midnightblue" d="M879.62,-111.69C904.67,-105.25 931.13,-94.37 950.19,-76 966.05,-60.72 971,-33.82 972.52,-19.91"/>
<polygon fill="midnightblue" stroke="midnightblue" points="878.67,-108.32 869.75,-114.03 880.28,-115.13 878.67,-108.32"/>
</g>
<!-- Node10 -->
<g id="node10" class="node">
<title>Node10</title>
<g id="a_node10"><a xlink:href="pressurereferencebc_8hpp.html" target="_top" xlink:title="MODEL::PressureReferenceBC source file.">
<polygon fill="none" stroke="black" points="728.19,-0.5 728.19,-19.5 880.19,-19.5 880.19,-0.5 728.19,-0.5"/>
<text text-anchor="middle" x="804.19" y="-7.5" font-family="Helvetica,sans-Serif" font-size="10.00">model/pressurereferencebc.hpp</text>
</a>
</g>
</g>
<!-- Node3&#45;&gt;Node10 -->
<g id="edge23" class="edge">
<title>Node3&#45;&gt;Node10</title>
<path fill="none" stroke="midnightblue" d="M823.58,-105C835.28,-92.22 847.49,-73.59 841.19,-56 835.94,-41.34 823.62,-28.03 814.63,-19.76"/>
<polygon fill="midnightblue" stroke="midnightblue" points="821.07,-102.57 816.54,-112.15 826.05,-107.48 821.07,-102.57"/>
</g>
<!-- Node11 -->
<g id="node11" class="node">
<title>Node11</title>
<g id="a_node11"><a xlink:href="resistancebc_8hpp.html" target="_top" xlink:title="MODEL::ResistanceBC source file.">
<polygon fill="none" stroke="black" points="1066.69,-0.5 1066.69,-19.5 1185.69,-19.5 1185.69,-0.5 1066.69,-0.5"/>
<text text-anchor="middle" x="1126.19" y="-7.5" font-family="Helvetica,sans-Serif" font-size="10.00">model/resistancebc.hpp</text>
</a>
</g>
</g>
<!-- Node3&#45;&gt;Node11 -->
<g id="edge24" class="edge">
<title>Node3&#45;&gt;Node11</title>
<path fill="none" stroke="midnightblue" d="M879.87,-120.31C933.76,-117 1007.12,-106.5 1064.19,-76 1089.78,-62.33 1110.91,-34.21 1120.56,-19.86"/>
<polygon fill="midnightblue" stroke="midnightblue" points="879.49,-116.82 869.7,-120.86 879.87,-123.81 879.49,-116.82"/>
</g>
<!-- Node5&#45;&gt;Node1 -->
<g id="edge17" class="edge">
<title>Node5&#45;&gt;Node1</title>
<path fill="none" stroke="midnightblue" d="M831.51,-78.77C860.77,-89.22 891.93,-106.78 879.19,-132 855.01,-179.87 796.25,-210.63 764.1,-224.48"/>
<polygon fill="midnightblue" stroke="midnightblue" points="832.32,-75.35 821.73,-75.5 830.1,-81.99 832.32,-75.35"/>
</g>
<!-- Node5&#45;&gt;Node6 -->
<g id="edge5" class="edge">
<title>Node5&#45;&gt;Node6</title>
<path fill="none" stroke="midnightblue" d="M734.37,-54.84C680.35,-44.64 598.08,-29.1 547.35,-19.53"/>
<polygon fill="midnightblue" stroke="midnightblue" points="733.97,-58.32 744.44,-56.74 735.27,-51.45 733.97,-58.32"/>
</g>
<!-- Node5&#45;&gt;Node7 -->
<g id="edge7" class="edge">
<title>Node5&#45;&gt;Node7</title>
<path fill="none" stroke="midnightblue" d="M755.94,-52.91C728.87,-42.75 690.88,-28.51 666.9,-19.52"/>
<polygon fill="midnightblue" stroke="midnightblue" points="754.78,-56.21 765.38,-56.44 757.24,-49.66 754.78,-56.21"/>
</g>
<!-- Node5&#45;&gt;Node8 -->
<g id="edge9" class="edge">
<title>Node5&#45;&gt;Node8</title>
<path fill="none" stroke="midnightblue" d="M734.44,-58.61C665.19,-50.27 541.09,-34.96 435.19,-20 432.27,-19.59 429.26,-19.15 426.23,-18.7"/>
<polygon fill="midnightblue" stroke="midnightblue" points="734.32,-62.12 744.67,-59.84 735.16,-55.17 734.32,-62.12"/>
</g>
<!-- Node5&#45;&gt;Node9 -->
<g id="edge11" class="edge">
<title>Node5&#45;&gt;Node9</title>
<path fill="none" stroke="midnightblue" d="M827.36,-53.57C862.26,-43.38 912.54,-28.7 944.02,-19.52"/>
<polygon fill="midnightblue" stroke="midnightblue" points="826.13,-50.28 817.51,-56.44 828.09,-57 826.13,-50.28"/>
</g>
<!-- Node5&#45;&gt;Node10 -->
<g id="edge13" class="edge">
<title>Node5&#45;&gt;Node10</title>
<path fill="none" stroke="midnightblue" d="M793.71,-46.4C796.38,-37.36 799.47,-26.94 801.6,-19.75"/>
<polygon fill="midnightblue" stroke="midnightblue" points="790.32,-45.5 790.84,-56.08 797.03,-47.49 790.32,-45.5"/>
</g>
<!-- Node5&#45;&gt;Node11 -->
<g id="edge15" class="edge">
<title>Node5&#45;&gt;Node11</title>
<path fill="none" stroke="midnightblue" d="M842.22,-56.37C905.59,-46.24 1009.95,-29.57 1072.97,-19.5"/>
<polygon fill="midnightblue" stroke="midnightblue" points="841.36,-52.96 832.03,-58 842.46,-59.87 841.36,-52.96"/>
</g>
<!-- Node6&#45;&gt;Node2 -->
<g id="edge6" class="edge">
<title>Node6&#45;&gt;Node2</title>
<path fill="none" stroke="midnightblue" d="M507.76,-29.39C512.25,-42.83 519.27,-61.22 528.19,-76 551.04,-113.86 587.99,-151.74 605.04,-168.32"/>
<polygon fill="midnightblue" stroke="midnightblue" points="511.09,-28.3 504.72,-19.83 504.42,-30.42 511.09,-28.3"/>
</g>
<!-- Node7&#45;&gt;Node2 -->
<g id="edge8" class="edge">
<title>Node7&#45;&gt;Node2</title>
<path fill="none" stroke="midnightblue" d="M630.64,-27.69C616.13,-46.75 593.99,-79.51 585.19,-112 582.87,-120.58 582.68,-123.47 585.19,-132 589.34,-146.09 599.41,-159.93 606.52,-168.46"/>
<polygon fill="midnightblue" stroke="midnightblue" points="633.47,-29.76 636.88,-19.72 627.96,-25.44 633.47,-29.76"/>
</g>
<!-- Node8&#45;&gt;Node2 -->
<g id="edge10" class="edge">
<title>Node8&#45;&gt;Node2</title>
<path fill="none" stroke="midnightblue" d="M317.87,-12.07C194.6,-16.21 -70.65,-36.19 18.19,-132 55.41,-172.14 436.16,-176.68 568.87,-177.04"/>
<polygon fill="midnightblue" stroke="midnightblue" points="318.03,-15.57 327.92,-11.76 317.81,-8.57 318.03,-15.57"/>
</g>
<!-- Node9&#45;&gt;Node2 -->
<g id="edge12" class="edge">
<title>Node9&#45;&gt;Node2</title>
<path fill="none" stroke="midnightblue" d="M976.35,-29.68C977.73,-43.29 977.63,-61.76 970.19,-76 951.26,-112.25 934.76,-115.85 897.19,-132 818.12,-165.99 716.68,-174.59 659.21,-176.6"/>
<polygon fill="midnightblue" stroke="midnightblue" points="979.79,-29.02 974.97,-19.59 972.86,-29.97 979.79,-29.02"/>
</g>
<!-- Node10&#45;&gt;Node2 -->
<g id="edge14" class="edge">
<title>Node10&#45;&gt;Node2</title>
<path fill="none" stroke="midnightblue" d="M825.29,-25.84C856.59,-49.62 908.64,-97.14 879.19,-132 851.57,-164.71 727.39,-173.65 659.27,-176.09"/>
<polygon fill="midnightblue" stroke="midnightblue" points="827.22,-22.91 817.1,-19.79 823.06,-28.54 827.22,-22.91"/>
</g>
<!-- Node11&#45;&gt;Node2 -->
<g id="edge16" class="edge">
<title>Node11&#45;&gt;Node2</title>
<path fill="none" stroke="midnightblue" d="M1120.16,-29.34C1114.52,-43.85 1104.77,-63.65 1090.19,-76 1024.93,-131.29 765.08,-162.3 659.32,-172.85"/>
<polygon fill="midnightblue" stroke="midnightblue" points="1123.47,-30.49 1123.55,-19.89 1116.88,-28.12 1123.47,-30.49"/>
</g>
<!-- Node12&#45;&gt;Node4 -->
<g id="edge27" class="edge">
<title>Node12&#45;&gt;Node4</title>
<path fill="none" stroke="midnightblue" d="M135.63,-110.47C193.26,-99.11 282.82,-81.46 328.04,-72.55"/>
<polygon fill="midnightblue" stroke="midnightblue" points="134.74,-107.08 125.61,-112.44 136.1,-113.94 134.74,-107.08"/>
</g>
<!-- Node13&#45;&gt;Node1 -->
<g id="edge38" class="edge">
<title>Node13&#45;&gt;Node1</title>
<path fill="none" stroke="midnightblue" d="M671.78,-139.68C689.7,-163.43 721.92,-206.14 735.68,-224.37"/>
<polygon fill="midnightblue" stroke="midnightblue" points="674.49,-137.47 665.68,-131.59 668.91,-141.68 674.49,-137.47"/>
</g>
<!-- Node13&#45;&gt;Node2 -->
<g id="edge34" class="edge">
<title>Node13&#45;&gt;Node2</title>
<path fill="none" stroke="midnightblue" d="M651.28,-140.09C644.29,-149.48 634.51,-160.73 626.54,-168.32"/>
<polygon fill="midnightblue" stroke="midnightblue" points="654.18,-142.05 656.98,-131.83 648.42,-138.07 654.18,-142.05"/>
</g>
<!-- Node13&#45;&gt;Node4 -->
<g id="edge29" class="edge">
<title>Node13&#45;&gt;Node4</title>
<path fill="none" stroke="midnightblue" d="M596.17,-110.87C543.23,-102.18 465.63,-89.03 398.19,-76 393.8,-75.15 389.16,-74.21 384.63,-73.26"/>
<polygon fill="midnightblue" stroke="midnightblue" points="595.66,-114.33 606.09,-112.49 596.79,-107.42 595.66,-114.33"/>
</g>
<!-- Node13&#45;&gt;Node5 -->
<g id="edge30" class="edge">
<title>Node13&#45;&gt;Node5</title>
<path fill="none" stroke="midnightblue" d="M689.05,-108.5C713.23,-98.38 746.66,-84.39 767.85,-75.52"/>
<polygon fill="midnightblue" stroke="midnightblue" points="687.51,-105.35 679.63,-112.44 690.21,-111.81 687.51,-105.35"/>
</g>
<!-- Node13&#45;&gt;Node6 -->
<g id="edge31" class="edge">
<title>Node13&#45;&gt;Node6</title>
<path fill="none" stroke="midnightblue" d="M615.98,-109.2C594.71,-101.96 569.55,-91.12 550.19,-76 529.85,-60.11 513.95,-33.48 506.62,-19.76"/>
<polygon fill="midnightblue" stroke="midnightblue" points="615.16,-112.61 625.75,-112.37 617.32,-105.95 615.16,-112.61"/>
</g>
<!-- Node13&#45;&gt;Node7 -->
<g id="edge32" class="edge">
<title>Node13&#45;&gt;Node7</title>
<path fill="none" stroke="midnightblue" d="M656.65,-102.35C653.36,-78.25 647.78,-37.31 645.36,-19.59"/>
<polygon fill="midnightblue" stroke="midnightblue" points="653.2,-102.93 658.02,-112.37 660.13,-101.99 653.2,-102.93"/>
</g>
<!-- Node13&#45;&gt;Node8 -->
<g id="edge33" class="edge">
<title>Node13&#45;&gt;Node8</title>
<path fill="none" stroke="midnightblue" d="M583.88,-117.57C538.6,-112.75 481.21,-101.56 436.19,-76 411.54,-62 391.57,-34.03 382.49,-19.78"/>
<polygon fill="midnightblue" stroke="midnightblue" points="583.64,-121.07 593.94,-118.56 584.33,-114.1 583.64,-121.07"/>
</g>
<!-- Node13&#45;&gt;Node9 -->
<g id="edge35" class="edge">
<title>Node13&#45;&gt;Node9</title>
<path fill="none" stroke="midnightblue" d="M715.21,-110.41C751.69,-102.73 799.97,-91.05 841.19,-76 885.35,-59.88 934.22,-33.36 958.22,-19.71"/>
<polygon fill="midnightblue" stroke="midnightblue" points="714.34,-107.02 705.26,-112.47 715.76,-113.87 714.34,-107.02"/>
</g>
<!-- Node13&#45;&gt;Node10 -->
<g id="edge36" class="edge">
<title>Node13&#45;&gt;Node10</title>
<path fill="none" stroke="midnightblue" d="M676.21,-105.33C691.27,-91.73 714.09,-71.8 735.19,-56 753.4,-42.37 775.6,-28.31 789.82,-19.62"/>
<polygon fill="midnightblue" stroke="midnightblue" points="673.74,-102.85 668.7,-112.17 678.45,-108.03 673.74,-102.85"/>
</g>
<!-- Node13&#45;&gt;Node11 -->
<g id="edge37" class="edge">
<title>Node13&#45;&gt;Node11</title>
<path fill="none" stroke="midnightblue" d="M713.97,-110.51C758.16,-101.85 821.86,-88.92 877.19,-76 956.38,-57.51 1048.82,-32.45 1095.65,-19.52"/>
<polygon fill="midnightblue" stroke="midnightblue" points="713.16,-107.1 704.02,-112.45 714.5,-113.97 713.16,-107.1"/>
</g>
<!-- Node14&#45;&gt;Node4 -->
<g id="edge40" class="edge">
<title>Node14&#45;&gt;Node4</title>
<path fill="none" stroke="midnightblue" d="M237.86,-109.04C266.46,-98.88 306.81,-84.55 332.22,-75.52"/>
<polygon fill="midnightblue" stroke="midnightblue" points="236.53,-105.8 228.28,-112.44 238.87,-112.39 236.53,-105.8"/>
</g>
<!-- Node15&#45;&gt;Node4 -->
<g id="edge42" class="edge">
<title>Node15&#45;&gt;Node4</title>
<path fill="none" stroke="midnightblue" d="M327.3,-104.14C334.62,-94.74 343.43,-83.4 349.39,-75.75"/>
<polygon fill="midnightblue" stroke="midnightblue" points="324.51,-102.04 321.13,-112.08 330.03,-106.34 324.51,-102.04"/>
</g>
<!-- Node16&#45;&gt;Node4 -->
<g id="edge44" class="edge">
<title>Node16&#45;&gt;Node4</title>
<path fill="none" stroke="midnightblue" d="M400.44,-105.54C389.38,-95.91 375.56,-83.87 366.34,-75.83"/>
<polygon fill="midnightblue" stroke="midnightblue" points="398.39,-108.4 408.23,-112.32 402.99,-103.12 398.39,-108.4"/>
</g>
</g>
</svg>
